<svg height="48" viewBox="0 0 48 48" width="48" xmlns="http://www.w3.org/2000/svg"><g fill="none" fill-rule="evenodd"><circle cx="24" cy="24" fill-rule="nonzero" r="23.5" stroke="#01081e" stroke-opacity=".16"/><g transform="translate(12 12)"><path d="m5.11662043 0h14.76669297c2.8141247 0 5.1166204 2.30249574 5.1166204 5.11662043v14.76669297c0 2.8141247-2.3024957 5.1166204-5.1166204 5.1166204h-14.76669297c-2.81412469 0-5.11662043-2.3024295-5.11662043-5.1166204v-14.76669297c0-2.81412469 2.30249574-5.11662043 5.11662043-5.11662043z" fill="#3ace01"/><path d="m12.4757123 4.14120986c5.0655304 0 9.1719301 3.28823021 9.1719301 7.34446634 0 1.4168238-.5013712 2.7396735-1.3693072 3.8616041-.0429501.0638626-.0990698.1344093-.1698151.2123681l-.0053605.0058237c-.2964814.3547188-.6303538.687731-.9974481.9951319-2.5363719 2.3443869-6.7112006 5.1355476-7.262206 4.7049216-.4790028-.3743078.7889184-2.2051466-.6738996-2.5098342-.1020478-.0117137-.203831-.0242877-.3047538-.0385823l-.0019192-.0001324v-.0001323c-4.2963993-.6103679-7.55908447-3.6156172-7.55908447-7.2311682 0-4.05623613 4.10633359-7.34446634 9.17186387-7.34446634z" fill="#fff"/><path d="m7.15413592 13.8283426h1.84983217c.26312724 0 .47834097-.2152799.47834097-.4784072v-.0399059c0-.2631272-.21521373-.4783409-.47834097-.4783409h-1.33158533v-3.02960317c0-.26312724-.21521373-.47834098-.47834098-.47834098h-.03990586c-.26312725 0-.47834098.21521374-.47834098.47834098v3.54778377c0 .2631935.21521373.4784734.47834098.4784734zm11.46251358-2.2238091v-.0399058c0-.2631273-.2152799-.478341-.4784071-.478341h-1.3315192v-.7574174h1.3315192c.2631272 0 .4784071-.2152137.4784071-.47834093v-.03990586c0-.26312725-.2152799-.47834098-.4784071-.47834098h-1.8498322c-.2631272 0-.478341.21521373-.478341.47834098v3.54778379c0 .2631273.2152138.4784072.478341.4784072h1.8498322c.2631272 0 .4784071-.2152799.4784071-.4784072v-.0399059c0-.2631272-.2152799-.4783409-.4784071-.4783409h-1.3315192v-.7574174h1.3315192c.2631272.0001324.4784071-.2151475.4784071-.4782086zm-3.5574459 2.0811936.0001324-.0001986c.0885168-.0892466.138224-.2098281.1383139-.3355269v-3.54778381c0-.26312725-.2152138-.47834098-.4784072-.47834098h-.0399059c-.2631272 0-.4783409.21521373-.4783409.47834098v2.08258331l-1.7289896-2.31904047c-.0825912-.14420378-.2381116-.24188382-.4153386-.24188382h-.0399059c-.2631273 0-.4784072.21521373-.4784072.47834098v3.54778381c0 .2631272.2152138.4784071.4784072.4784071h.0399059c.2631272 0 .4783409-.2152799.4783409-.4784071v-2.1215627l1.7414312 2.3785353c.010721.0166771.0224346.0326924.0350748.0479135l.0000662.0001324c.0478473.0652523.1132982.1099893.1862274.1373212.0560535.0231626.1173351.0360013.1814625.0360013h.0399058c.0779551.0000661.1547176-.0191414.2234861-.055855.0478473-.0227656.0881503-.052149.116541-.0867605zm-4.712466.1426155h.0399059c.2631273 0 .478341-.2152799.478341-.4784072v-3.54778379c0-.26312725-.2152137-.47834098-.478341-.47834098h-.0399059c-.2631272 0-.47840711.21521373-.47840711.47834098v3.54778379c0 .2631273.21527991.4784072.47840711.4784072z" fill="#3ace01"/></g></g></svg>