<svg height="48" viewBox="0 0 48 48" width="48" xmlns="http://www.w3.org/2000/svg" xmlns:xlink="http://www.w3.org/1999/xlink"><linearGradient id="a" x1="14.644614%" x2="85.355186%" y1="14.644643%" y2="85.355357%"><stop offset="0" stop-color="#2489be"/><stop offset="1" stop-color="#0575b3"/></linearGradient><g fill="none" fill-rule="nonzero"><circle cx="24" cy="24" r="23.5" stroke="#01081e" stroke-opacity=".16"/><path d="m13.5013284.00135556c-7.45587814 0-13.49997284 6.0440947-13.49997284 13.49997284 0 7.4558782 6.0440947 13.4999729 13.49997284 13.4999729 7.4558782 0 13.5000272-6.0440947 13.5000272-13.4999729 0-7.45587814-6.0442574-13.49997284-13.5000272-13.49997284zm-3.60181821 20.02659094h-2.9640567v-9.5760205h2.9640567zm-1.49615323-10.83007161c-.96802899 0-1.75278692-.79115616-1.75278692-1.76693891 0-.97589121.78486638-1.76699314 1.75278692-1.76699314s1.75267844.79110193 1.75267844 1.76699314c.0000543.97583698-.78470368 1.76693891-1.75267844 1.76693891zm12.60400524 10.83007161h-2.9497421v-5.026615c0-1.3786538-.523678-2.1482295-1.6138154-2.1482295-1.186436 0-1.80625.8015126-1.80625 2.1482295v5.026615h-2.8428701v-9.5760205h2.8428701v1.2897293s.8551384-1.5818243 2.8856514-1.5818243c2.0305673 0 3.4841561 1.2398449 3.4841561 3.8047177z" fill="url(#a)" transform="translate(11 11)"/></g></svg>