<svg height="48" viewBox="0 0 48 48" width="48" xmlns="http://www.w3.org/2000/svg"><g fill="none" fill-rule="nonzero"><circle cx="24" cy="24" r="23.5" stroke="#01081e" stroke-opacity=".16"/><g transform="translate(12 12)"><path d="m0 0h24v24h-24z" fill="#000" opacity="0"/><path d="m23.3465625 4.96340625c-.6424219.94075781-1.4199844 1.74229688-2.3325938 2.40421875.0098204.13394531.0147188.33541406.0147188.60440625 0 1.24785938-.1823906 2.49264845-.5471719 3.73436715-.3648047 1.2418594-.9187734 2.4338672-1.661789 3.5760938-.7431328 1.1422266-1.6282032 2.1525-2.6549766 3.0306094-1.0268672.8782968-2.2649531 1.5789843-3.7143047 2.1021797-1.449375.5231953-2.99885155.7849453-4.64847655.7849453-2.60022656 0-4.98007031-.6959063-7.13936719-2.0874141.33527344.0380156.7093125.0570469 1.12209375.0570469 2.15929688 0 4.08342188-.6620391 5.77228125-1.9860469-1.00720312-.0196875-1.90938281-.3291328-2.70651562-.9285937-.79710938-.5992969-1.34432813-1.3645782-1.64160938-2.2954688.31685156.0478125.60979688.0717891.87878906.0717891.41278125 0 .8205-.052875 1.2234375-.1585313-1.07472656-.2210156-1.96471875-.7559062-2.66971875-1.6046719-.705-.848625-1.05749999-1.8344062-1.05749999-2.95694527v-.0571875c.65224218.36478125 1.35295312.56132812 2.10220312.58961718-.63375-.42248437-1.13746875-.97399218-1.51085156-1.65447656-.37340625-.68039063-.56076563-1.4191875-.56186719-2.21632031 0-.84503907.21117188-1.62679688.63379688-2.34532032 1.16074218 1.42964063 2.57378906 2.57371875 4.23939843 3.43232813 1.66546875.85851563 3.44779688 1.33570313 5.34670314 1.43151563-.0761484-.36480469-.1142344-.71976563-.1142344-1.06488282 0-1.28596875.4532109-2.38221094 1.3596797-3.28865625.9064687-.90644531 2.0027344-1.35965625 3.28875-1.35965625 1.3437187 0 2.4761484.48951563 3.3973828 1.46835938 1.0465547-.20144532 2.0303906-.57546094 2.9514844-1.12202344-.3549375 1.10296875-1.035961 1.95728906-2.0431875 2.56275.8929687-.0958125 1.7853047-.33585938 2.6769844-.72035156z" fill="#00aced"/></g></g></svg>