<svg height="48" viewBox="0 0 48 48" width="48" xmlns="http://www.w3.org/2000/svg"><g fill="none" fill-rule="nonzero"><circle cx="24" cy="24" r="23.5" stroke="#01081e" stroke-opacity=".16"/><g transform="translate(10 12)"><path d="m27.9728301 6.72705309c.1203239 1.56033032-.1436125 3.43006511-1.1738519 3.52155571-1.6817633.1502664-.8045627-1.70227932-.7823832-2.81735546.0615483-3.2321128-2.6975859-5.47779076-5.4001623-5.47779076-.7657485 0-2.5439928.51900113-2.2700755-1.09566905.1230964-.71196308.7263798-.70198229 1.3302176-.78238311 4.5451413-.60605581 7.97687 2.5207042 8.2962553 6.65164267z" fill="#e99315"/><path d="m20.5382498 10.4837119c1.9540171 1.0690536 4.3017209 1.6013625 3.91247 4.774145-.093154.7602036-.5533794 1.7760263-1.0169317 2.4247777-3.3030873 4.6238787-13.2655801 6.5673604-19.48693977 3.0530131-2.0865398-1.1793968-4.24571757-2.9038557-3.91247005-6.3400202.2866705-2.9570866 2.27506585-5.24767812 4.22631047-7.19892275 1.86141751-1.86252648 3.8243064-3.31972196 6.49527695-3.99120739 2.8977563-.72859774 3.7544409 1.68730815 2.9737212 4.06939026 1.6784364-.11256115 5.2354793-1.9861774 6.8085629-.15636573.6931105.80622611.4275105 2.25011387 0 3.36519001zm-2.1131552 7.5122086c.6260173-.7097451 1.2553617-1.7915519 1.2514981-3.0513495-.0083352-3.8891816-4.9077946-5.32586098-8.7642613-5.00869362-2.10927379.17300042-3.52820957.61825452-5.00869356 1.48713782-1.20823019.7091907-2.62217557 1.863081-2.97372121 3.5991841-.79125493 3.9041528 3.45501713 5.7389548 6.57345981 5.9474425 3.60306556.2423114 7.20945796-1.029685 8.92171816-2.9737213z" fill="#d52a2c"/><path d="m24.1374339 6.72705309c.1641286 1.19159554-.1768818 2.22405292-.860566 2.26952096-1.1400281.07596491-.7136265-.78071964-.7829376-1.7998693-.0432501-.62768085-.5633602-1.35239717-1.0174862-1.56532071-.8905083-.41697526-2.2695209.30385964-2.2695209-.93874883 0-.92266868.8001267-.82674219 1.2525892-.86112047 1.9817415-.15082084 3.4466999 1.21488406 3.6779215 2.89553835z" fill="#e99315"/><path d="m14.9817217 14.5531022c1.6673466 5.0391904-7.01982297 7.3824583-8.6084322 3.051904-1.06295423-2.8960928 1.48935581-5.1994376 4.1475731-5.4777907 2.269521-.2378755 3.9612651.9193417 4.4608591 2.4258867zm-3.9912074.8611204c.3537636.6121552 1.167198.1724459 1.095669-.3127314-.0853912-.5616968-1.1028774-.4785235-1.095669.3127314zm-1.408955 2.6609898c1.4605224-.3476642 1.6568113-3.0984811-.54783452-2.5828069-1.85199121.4325009-1.49379171 3.0679842.54783452 2.5828069z" fill="#000"/></g></g></svg>