<svg width="20" height="20" viewBox="0 0 20 20" fill="none" xmlns="http://www.w3.org/2000/svg">
<path fill-rule="evenodd" clip-rule="evenodd" d="M2.7 6.69483C2.7 4.94262 3.90711 3.70078 5.16632 3.70078H14.8337C16.0929 3.70078 17.3 4.94262 17.3 6.69483V7.40956H16.299C15.6042 7.40956 14.9865 7.72985 14.5545 8.24376C14.0762 8.79232 13.8189 9.55638 13.8831 10.3539C13.9841 11.7431 15.089 12.8376 16.4 12.8376H17.3V13.3067C17.3 15.0589 16.0929 16.3008 14.8337 16.3008H5.16632C3.90711 16.3008 2.7 15.0589 2.7 13.3067V6.69483ZM5.16632 2.30078C2.93921 2.30078 1.3 4.37967 1.3 6.69483V13.3067C1.3 15.6219 2.93921 17.7008 5.16632 17.7008H14.8337C17.0608 17.7008 18.7 15.6219 18.7 13.3067V12.1376C18.7 11.751 18.3866 11.4376 18 11.4376H16.4C15.8932 11.4376 15.3315 10.9817 15.2793 10.2506L15.2793 10.2505L15.2787 10.2435C15.2431 9.80754 15.3877 9.41666 15.6123 9.16088L15.6237 9.14754C15.8147 8.91871 16.0535 8.80957 16.299 8.80957H18C18.3866 8.80957 18.7 8.49616 18.7 8.10957V6.69483C18.7 4.37967 17.0608 2.30078 14.8337 2.30078H5.16632ZM5.83325 6.30078C5.44666 6.30078 5.13326 6.61418 5.13326 7.00078C5.13326 7.38738 5.44666 7.70078 5.83325 7.70078H11.6666C12.0532 7.70078 12.3666 7.38738 12.3666 7.00078C12.3666 6.61418 12.0532 6.30078 11.6666 6.30078H5.83325Z" fill="#8C8C8C"/>
</svg>
