<svg width="20" height="20" viewBox="0 0 20 20" fill="none" xmlns="http://www.w3.org/2000/svg">
<g id="borrow+repay">
<g id="Vector">
<path fill-rule="evenodd" clip-rule="evenodd" d="M9.18157 14.6104C9.18157 14.6104 9.18162 14.6104 9.33146 13.875L9.18157 14.6104C9.31195 14.636 9.44693 14.6278 9.57307 14.5865L11.8652 13.8365C12.2655 13.7055 12.4819 13.2808 12.3484 12.8878C12.215 12.4949 11.7823 12.2825 11.382 12.4135L9.28191 13.1006L9.23222 13.091C9.07354 13.0601 8.84611 13.016 8.57086 12.9632C8.02051 12.8575 7.27825 12.7165 6.51159 12.5753C5.74574 12.4344 4.95196 12.2927 4.29977 12.186C3.68404 12.0853 3.10697 12 2.83708 12C2.52711 12 2.18175 12.0761 1.90418 12.3145C1.61325 12.5644 1.5 12.9037 1.5 13.2188C1.5 13.7917 1.85612 14.3477 2.29682 14.7803C2.71095 15.1868 3.61344 15.9734 4.71902 16.664C5.80329 17.3413 7.19797 18 8.56742 18C9.84286 18 10.8955 17.6851 11.7697 17.399C11.8518 17.3722 11.9314 17.3459 12.0089 17.3204C12.7984 17.0604 13.3615 16.875 13.9157 16.875H17.7355L17.7359 15.375H13.9157C13.0945 15.375 12.2817 15.6454 11.5467 15.8899C11.4588 15.9191 11.372 15.948 11.2865 15.976C10.4416 16.2524 9.5841 16.5 8.56742 16.5C7.64473 16.5 6.55626 16.0337 5.53941 15.3985C4.54387 14.7766 3.72726 14.0632 3.37734 13.7197C3.31236 13.6559 3.25776 13.5952 3.21239 13.5388C3.41899 13.5664 3.70072 13.6087 4.04855 13.6656C4.68568 13.7698 5.46774 13.9094 6.22998 14.0497C6.99141 14.1898 7.72949 14.33 8.27745 14.4353C8.55136 14.4879 8.77759 14.5317 8.93526 14.5624L9.18157 14.6104ZM17.7359 15.375C18.1579 15.375 18.5 15.7108 18.5 16.125C18.5 16.5392 18.1575 16.875 17.7355 16.875L17.7359 15.375Z" fill="#F3F3F3"/>
<path fill-rule="evenodd" clip-rule="evenodd" d="M15.7333 11.0574C16.3328 11.3937 16.8528 11.8187 17.1957 12.1553C17.4941 12.4482 17.9778 12.4482 18.2762 12.1553C18.5746 11.8624 18.5746 11.3876 18.2762 11.0947C17.8551 10.6813 17.229 10.1688 16.4914 9.75507C15.7602 9.34489 14.8626 9 13.9157 9C13.4306 9 12.8389 9.1149 12.2536 9.27296C11.6552 9.43457 11.0114 9.65586 10.4037 9.89936C9.79669 10.1426 9.2114 10.4136 8.7324 10.6787C8.49319 10.8111 8.27108 10.9471 8.08234 11.0827C7.90341 11.2112 7.713 11.3683 7.57416 11.55C7.23034 12 7.26439 12.4986 7.40732 12.8727C7.53987 13.2197 7.78021 13.5161 7.98614 13.7317C8.2011 13.9568 8.43047 14.1469 8.60028 14.2776C8.68653 14.344 8.76058 14.3975 8.81414 14.4352C8.84099 14.454 8.86286 14.469 8.87874 14.4797L8.89801 14.4927L8.90407 14.4967L8.90618 14.4981L8.90699 14.4986C8.90699 14.4986 8.90764 14.499 9.33146 13.875L8.90699 14.4986C9.25809 14.7284 9.73312 14.6357 9.96718 14.291C10.201 13.9467 10.1066 13.4816 9.7563 13.2516L9.74585 13.2446C9.73683 13.2385 9.72233 13.2286 9.70328 13.2152C9.66507 13.1884 9.60929 13.1481 9.54333 13.0974C9.40871 12.9937 9.24413 12.8557 9.10094 12.7058C8.97593 12.5749 8.89829 12.4669 8.85867 12.3909C8.89062 12.3636 8.93218 12.3309 8.9846 12.2933C9.10997 12.2033 9.27736 12.0991 9.48284 11.9854C9.89323 11.7583 10.4182 11.5137 10.9811 11.2881C11.5433 11.0629 12.1292 10.8623 12.659 10.7192C13.2019 10.5726 13.6368 10.5 13.9157 10.5C14.497 10.5 15.1275 10.7176 15.7333 11.0574Z" fill="#F3F3F3"/>
</g>
<g id="Vector_2">
<path fill-rule="evenodd" clip-rule="evenodd" d="M8.74372 6.87644C8.40201 7.19805 7.84799 7.19805 7.50628 6.87644L5.5 4.98818L3.49372 6.87644C3.15201 7.19805 2.59799 7.19805 2.25628 6.87644C1.91457 6.55483 1.91457 6.0334 2.25628 5.71179L4.88128 3.24121C5.22299 2.9196 5.77701 2.9196 6.11872 3.24121L8.74372 5.71179C9.08543 6.0334 9.08543 6.55483 8.74372 6.87644Z" fill="#F3F3F3"/>
<path fill-rule="evenodd" clip-rule="evenodd" d="M5.5 10C5.01675 10 4.625 9.63129 4.625 9.17647V3.82353C4.625 3.36871 5.01675 3 5.5 3C5.98325 3 6.375 3.36871 6.375 3.82353V9.17647C6.375 9.63129 5.98325 10 5.5 10Z" fill="#F3F3F3"/>
</g>
<g id="Vector_3">
<path fill-rule="evenodd" clip-rule="evenodd" d="M16.7437 3.12356C16.402 2.80195 15.848 2.80195 15.5063 3.12356L13.5 5.01182L11.4937 3.12356C11.152 2.80195 10.598 2.80195 10.2563 3.12356C9.91457 3.44517 9.91457 3.9666 10.2563 4.28821L12.8813 6.75879C13.223 7.0804 13.777 7.0804 14.1187 6.75879L16.7437 4.28821C17.0854 3.9666 17.0854 3.44517 16.7437 3.12356Z" fill="#F3F3F3"/>
<path fill-rule="evenodd" clip-rule="evenodd" d="M13.5 0C13.0168 0 12.625 0.368706 12.625 0.823529V6.17647C12.625 6.63129 13.0168 7 13.5 7C13.9832 7 14.375 6.63129 14.375 6.17647V0.823529C14.375 0.368706 13.9832 0 13.5 0Z" fill="#F3F3F3"/>
</g>
</g>
</svg>
