<svg width="20" height="20" viewBox="0 0 20 20" fill="none" xmlns="http://www.w3.org/2000/svg">
<g id="ic2_roboto">
<path id="Vector 1575 (Stroke)" fill-rule="evenodd" clip-rule="evenodd" d="M7.98912 12.833C7.71532 12.5655 7.27645 12.5674 7.00502 12.8388C6.73165 13.1122 6.73165 13.5554 7.00502 13.8288L7.5 13.3338C7.00502 13.8288 7.00527 13.829 7.00551 13.8293L7.00603 13.8298L7.00712 13.8309L7.00954 13.8333L7.01538 13.8389L7.031 13.8538C7.04317 13.8652 7.05887 13.8796 7.07811 13.8964C7.11655 13.93 7.16925 13.9738 7.23625 14.024C7.37014 14.1244 7.56196 14.2516 7.81195 14.3766C8.31421 14.6277 9.04573 14.8671 10 14.8671C10.9543 14.8671 11.6858 14.6277 12.188 14.3766C12.438 14.2516 12.6299 14.1244 12.7637 14.024C12.8307 13.9738 12.8834 13.93 12.9219 13.8964C12.9411 13.8796 12.9568 13.8652 12.969 13.8538L12.9846 13.8389L12.9904 13.8333L12.9929 13.8309L12.994 13.8298L12.9945 13.8293C12.9947 13.829 12.995 13.8288 12.5245 13.3583L12.995 13.8288C13.2683 13.5554 13.2683 13.1122 12.995 12.8388C12.7235 12.5674 12.2847 12.5655 12.0109 12.833C12.0094 12.8344 12.0057 12.8377 12 12.8428C11.9863 12.8547 11.9609 12.8761 11.9237 12.904C11.8493 12.9598 11.7286 13.041 11.5619 13.1244C11.2309 13.2899 10.7124 13.4671 10 13.4671C9.2876 13.4671 8.76911 13.2899 8.43804 13.1244C8.27137 13.041 8.15069 12.9598 8.07625 12.904C8.03907 12.8761 8.01364 12.8547 8.00001 12.8428C7.99425 12.8377 7.99062 12.8344 7.98912 12.833Z" fill="#8C8C8C"/>
<path id="Vector 1571 (Stroke)" fill-rule="evenodd" clip-rule="evenodd" d="M7.49999 8.05566C7.88353 8.05566 8.19444 8.36658 8.19444 8.75011V10.4168C8.19444 10.8003 7.88353 11.1112 7.49999 11.1112C7.11646 11.1112 6.80555 10.8003 6.80555 10.4168V8.75011C6.80555 8.36658 7.11646 8.05566 7.49999 8.05566Z" fill="#8C8C8C"/>
<path id="Union" fill-rule="evenodd" clip-rule="evenodd" d="M13.984 3.02094C14.2715 2.66155 14.2132 2.13714 13.8538 1.84963C13.4945 1.56212 12.97 1.62039 12.6825 1.97978L11.0159 4.06311C10.9892 4.09649 10.9654 4.13129 10.9447 4.16719H9.05478C9.03408 4.13147 9.01046 4.09684 8.98388 4.06362L7.31722 1.98029C7.02971 1.6209 6.5053 1.56263 6.14591 1.85014C5.78653 2.13765 5.72826 2.66206 6.01577 3.02144L6.93236 4.16719H6.66666C4.36547 4.16719 2.49999 6.03267 2.49999 8.33385V14.1672C2.49999 16.4684 4.36547 18.3339 6.66666 18.3339H13.3333C15.6345 18.3339 17.5 16.4684 17.5 14.1672V8.33385C17.5 6.03267 15.6345 4.16719 13.3333 4.16719H13.067L13.984 3.02094ZM6.66666 5.6002C5.28595 5.6002 3.99999 7.11948 3.99999 8.5002V14.3335C3.99999 15.7142 5.28595 17.0002 6.66666 17.0002H13.3333C14.714 17.0002 16.1258 15.5479 16.1258 14.1672V8.33385C16.1258 6.95314 14.714 5.6002 13.3333 5.6002H6.66666Z" fill="#8C8C8C"/>
<path id="Vector 1573 (Stroke)" fill-rule="evenodd" clip-rule="evenodd" d="M0.83333 9.72266C1.21686 9.72266 1.52777 10.0336 1.52777 10.4171V12.9171C1.52777 13.3006 1.21686 13.6115 0.83333 13.6115C0.449799 13.6115 0.138885 13.3006 0.138885 12.9171V10.4171C0.138885 10.0336 0.449799 9.72266 0.83333 9.72266Z" fill="#8C8C8C"/>
<path id="Vector 1574 (Stroke)" fill-rule="evenodd" clip-rule="evenodd" d="M19.1667 9.72266C19.5502 9.72266 19.8611 10.0336 19.8611 10.4171V12.9171C19.8611 13.3006 19.5502 13.6115 19.1667 13.6115C18.7831 13.6115 18.4722 13.3006 18.4722 12.9171V10.4171C18.4722 10.0336 18.7831 9.72266 19.1667 9.72266Z" fill="#8C8C8C"/>
<path id="Vector 1572 (Stroke)" fill-rule="evenodd" clip-rule="evenodd" d="M12.5 8.05566C12.8835 8.05566 13.1944 8.36658 13.1944 8.75011V10.4168C13.1944 10.8003 12.8835 11.1112 12.5 11.1112C12.1165 11.1112 11.8055 10.8003 11.8055 10.4168V8.75011C11.8055 8.36658 12.1165 8.05566 12.5 8.05566Z" fill="#8C8C8C"/>
</g>
</svg>
