<svg width="16" height="16" viewBox="0 0 16 16" fill="none" xmlns="http://www.w3.org/2000/svg">
<path fill-rule="evenodd" clip-rule="evenodd" d="M4.81832 10.4742C4.62306 10.6695 4.62306 10.986 4.81832 11.1813C5.01358 11.3766 5.33017 11.3766 5.52543 11.1813L8 8.70673L10.4752 11.1819C10.6704 11.3772 10.987 11.3772 11.1823 11.1819C11.3775 10.9866 11.3775 10.6701 11.1823 10.4748L8.70711 7.99963L11.1823 5.52445C11.3775 5.32919 11.3775 5.01261 11.1823 4.81735C10.987 4.62208 10.6704 4.62208 10.4752 4.81735L8 7.29252L5.52543 4.81795C5.33017 4.62269 5.01358 4.62269 4.81832 4.81795C4.62306 5.01321 4.62306 5.32979 4.81832 5.52506L7.29289 7.99963L4.81832 10.4742Z" fill="#8C8C8C"/>
</svg>
