<svg width="20" height="20" viewBox="0 0 20 20" fill="none" xmlns="http://www.w3.org/2000/svg">
<path fill-rule="evenodd" clip-rule="evenodd" d="M1.3 7.00078C1.3 6.61418 1.6134 6.30078 2 6.30078H4.57143C4.88397 6.30078 5.15864 6.50797 5.2445 6.80848L5.99611 9.43911L7.77071 9.96611C8.01127 10.0375 8.19519 10.2323 8.25276 10.4765L8.68133 12.2947C8.69374 12.3474 8.7 12.4013 8.7 12.4553V16.0008C8.7 16.3874 8.3866 16.7008 8 16.7008H2C1.6134 16.7008 1.3 16.3874 1.3 16.0008V7.00078ZM2.7 7.70078V15.3008H7.3V12.5367L6.98319 11.1927L5.2293 10.6718C4.99993 10.6037 4.82124 10.4231 4.75551 10.1931L4.04342 7.70078H2.7Z" fill="#8C8C8C"/>
<path fill-rule="evenodd" clip-rule="evenodd" d="M18.7 4.00078C18.7 3.61418 18.3866 3.30078 18 3.30078H15.4286C15.0677 3.30078 14.7659 3.57515 14.7317 3.93441L14.3528 7.91352L12.295 8.31365C12.0093 8.36919 11.7878 8.59568 11.7386 8.88251L11.3101 11.3825C11.3034 11.4216 11.3 11.4611 11.3 11.5008V16.0008C11.3 16.3874 11.6134 16.7008 12 16.7008H18C18.3866 16.7008 18.7 16.3874 18.7 16.0008V4.00078ZM17.3 4.70078V15.3008H12.7V11.5603L13.0368 9.59562L15.1336 9.18791C15.4382 9.12869 15.6674 8.87603 15.6968 8.56715L16.0651 4.70078H17.3Z" fill="#8C8C8C"/>
<path fill-rule="evenodd" clip-rule="evenodd" d="M1.3 16.0008C1.3 15.6142 1.6134 15.3008 2 15.3008H18C18.3866 15.3008 18.7 15.6142 18.7 16.0008C18.7 16.3874 18.3866 16.7008 18 16.7008H2C1.6134 16.7008 1.3 16.3874 1.3 16.0008Z" fill="#8C8C8C"/>
</svg>
