<svg width="16" height="16" viewBox="0 0 16 16" fill="none" xmlns="http://www.w3.org/2000/svg">
<path fill-rule="evenodd" clip-rule="evenodd" d="M8.77929 1.94727C7.58722 1.94727 6.62085 2.91363 6.62085 4.10571V7.22259C6.62085 8.41467 7.58722 9.38103 8.77929 9.38103H11.8962C13.0882 9.38103 14.0546 8.41466 14.0546 7.22259V4.10571C14.0546 2.91363 13.0882 1.94727 11.8962 1.94727H8.77929ZM7.82085 4.10571C7.82085 3.57637 8.24996 3.14727 8.77929 3.14727H11.8962C12.4255 3.14727 12.8546 3.57637 12.8546 4.10571V7.22259C12.8546 7.75192 12.4255 8.18103 11.8962 8.18103H8.77929C8.24996 8.18103 7.82085 7.75192 7.82085 7.22259V4.10571ZM3.14556 5.6643C3.14556 5.13496 3.57465 4.70586 4.10397 4.70586H4.10535H4.10672H4.1081H4.10947H4.11085H4.11223H4.11361H4.11499H4.11637H4.11775H4.11913H4.12051H4.12189H4.12327H4.12465H4.12604H4.12742H4.12881H4.13019H4.13158H4.13296H4.13435H4.13574H4.13713H4.13851H4.1399H4.14129H4.14268H4.14407H4.14547H4.14686H4.14825H4.14964H4.15104H4.15243H4.15383H4.15522H4.15662H4.15802H4.15941H4.16081H4.16221H4.16361H4.16501H4.16641H4.16781H4.16921H4.17061H4.17202H4.17342H4.17482H4.17623H4.17763H4.17904H4.18045H4.18185H4.18326H4.18467H4.18608H4.18748H4.18889H4.1903H4.19171H4.19313H4.19454H4.19595H4.19736H4.19878H4.20019H4.20161H4.20302H4.20444H4.20585H4.20727H4.20869H4.21011H4.21153H4.21295H4.21437H4.21579H4.21721H4.21863H4.22005H4.22147H4.2229H4.22432H4.22575H4.22717H4.2286H4.23002H4.23145H4.23288H4.23431H4.23573H4.23716H4.23859H4.24002H4.24146H4.24289H4.24432H4.24575H4.24719H4.24862H4.25005H4.25149H4.25292H4.25436H4.2558H4.25724H4.25867H4.26011H4.26155H4.26299H4.26443H4.26587H4.26731H4.26875H4.2702H4.27164H4.27308H4.27453H4.27597H4.27742H4.27886H4.28031H4.28176H4.28321H4.28466H4.2861H4.28755H4.289H4.29045H4.29191H4.29336H4.29481H4.29626H4.29772H4.29917H4.30063H4.30208H4.30354H4.30499H4.30645H4.30791H4.30937H4.31082H4.31228H4.31374H4.3152H4.31666H4.31813H4.31959H4.32105H4.32252H4.32398H4.32544H4.32691H4.32837H4.32984H4.33131H4.33277H4.33424H4.33571H4.33718H4.33865H4.34012H4.34159H4.34306H4.34453H4.34601H4.34748H4.34895H4.35043H4.3519H4.35338H4.35485H4.35633H4.35781H4.35929H4.36076H4.36224H4.36372H4.3652H4.36668H4.36817H4.36965H4.37113H4.37261H4.3741H4.37558H4.37706H4.37855H4.38004H4.38152H4.38301H4.3845H4.38598H4.38747H4.38896H4.39045H4.39194H4.39343H4.39493H4.39642H4.39791H4.3994H4.4009H4.40239H4.40389H4.40538H4.40688H4.40838H4.40987H4.41137H4.41287H4.41437H4.41587H4.41737H4.41887H4.42037H4.42187H4.42338H4.42488H4.42638H4.42789H4.42939H4.4309H4.4324H4.43391H4.43542H4.43692H4.43843H4.43994H4.44145H4.44296H4.44447H4.44598H4.44749H4.44901H4.45052H4.45203H4.45355H4.45506H4.45658H4.45809H4.45961H4.46112H4.46264H4.46416H4.46568H4.4672H4.46872H4.47024H4.47176H4.47328H4.4748H4.47633H4.47785H4.47937H4.4809H4.48242H4.48395H4.48547H4.487H4.48853H4.49005H4.49158H4.49311H4.49464H4.49617H4.4977H4.49923H4.50076H4.5023H4.50383H4.50536H4.5069H4.50843H4.50997H4.5115H4.51304H4.51458H4.51611H4.51765H4.51919H4.52073H4.52227H4.52381H4.52535H4.52689H4.52843H4.52998H4.53152H4.53306H4.53461H4.53615H4.5377H4.53925H4.54079H4.54234H4.54389H4.54544H4.54698H4.54853H4.55008H4.55163H4.55319H4.55474H4.55629H4.55784H4.5594H4.56095H4.56251H4.56406H4.56562H4.56717H4.56873H4.57029H4.57185H4.5734H4.57496H4.57652H4.57808H4.57964H4.58121H4.58277H4.58433H4.58589H4.58746H4.58902H4.59059H4.59215H4.59372H4.59529H4.59685H4.59842H4.59999H4.60156H4.60313H4.6047H4.60627H4.60784H4.60941H4.61098H4.61256H4.61413H4.6157H4.61728H4.61885H4.62043H4.62201H4.62358H4.62516H4.62674H4.62832H4.6299H4.63148H4.63306H4.63464H4.63622H4.6378H4.63938H4.64097H4.64255H4.64414H4.64572H4.64731H4.64889H4.65048H4.65207H4.65365H4.65524H4.65683H4.65842H4.66001H4.6616H4.66319H4.66478H4.66638H4.66797H4.66956H4.67116H4.67275H4.67435H4.67594H4.67754H4.67914H4.68073H4.68233H4.68393H4.68553H4.68713H4.68873H4.69033H4.69193H4.69353H4.69514H4.69674H4.69834H4.69995H4.70155H4.70316H4.70476H4.70637H4.70798H4.70958H4.71119H4.7128H4.71441H4.71602H4.71763H4.71924H4.72085H4.72247H4.72408H4.72569H4.72731H4.72892H4.73054H4.73215H4.73377H4.73538H4.737H4.73862H4.74024H4.74186H4.74348H4.7451H4.74672H4.74834H4.74996H4.75158H4.75321H4.75483H4.75645H4.75808H4.75971H4.76133H4.76296H4.76458H4.76621H4.76784H4.76947H4.7711H4.77273H4.77436H4.77599H4.77762H4.77925H4.78089H4.78252H4.78415H4.78579H4.78742H4.78906H4.79069H4.79233H4.79397H4.79561H4.79724H4.79888H4.80052H4.80216H4.8038H4.80544H4.80709H4.80873H4.81037H4.81201H4.81366H4.8153H4.81695H4.81859H4.82024H4.82189H4.82353H4.82518H4.82683H4.82848H4.83013H4.83178H4.83343H4.83508H4.83673H4.83839H4.84004H4.84169H4.84335H4.845H4.84666H4.84831H4.84997H4.85163H4.85329H4.85494H4.8566H4.85826H4.85992H4.86158H4.86324H4.8649H4.86657H4.86823H4.86989H4.87156H4.87322H4.87489H4.87655H4.87822H4.87988H4.88155H4.88322C5.21459 4.70586 5.48322 4.43723 5.48322 4.10586C5.48322 3.77449 5.21459 3.50586 4.88322 3.50586H4.88155H4.87988H4.87822H4.87655H4.87489H4.87322H4.87156H4.86989H4.86823H4.86657H4.8649H4.86324H4.86158H4.85992H4.85826H4.8566H4.85494H4.85329H4.85163H4.84997H4.84831H4.84666H4.845H4.84335H4.84169H4.84004H4.83839H4.83673H4.83508H4.83343H4.83178H4.83013H4.82848H4.82683H4.82518H4.82353H4.82189H4.82024H4.81859H4.81695H4.8153H4.81366H4.81201H4.81037H4.80873H4.80709H4.80544H4.8038H4.80216H4.80052H4.79888H4.79724H4.79561H4.79397H4.79233H4.79069H4.78906H4.78742H4.78579H4.78415H4.78252H4.78089H4.77925H4.77762H4.77599H4.77436H4.77273H4.7711H4.76947H4.76784H4.76621H4.76458H4.76296H4.76133H4.75971H4.75808H4.75645H4.75483H4.75321H4.75158H4.74996H4.74834H4.74672H4.7451H4.74348H4.74186H4.74024H4.73862H4.737H4.73538H4.73377H4.73215H4.73054H4.72892H4.72731H4.72569H4.72408H4.72247H4.72085H4.71924H4.71763H4.71602H4.71441H4.7128H4.71119H4.70958H4.70798H4.70637H4.70476H4.70316H4.70155H4.69995H4.69834H4.69674H4.69514H4.69353H4.69193H4.69033H4.68873H4.68713H4.68553H4.68393H4.68233H4.68073H4.67914H4.67754H4.67594H4.67435H4.67275H4.67116H4.66956H4.66797H4.66638H4.66478H4.66319H4.6616H4.66001H4.65842H4.65683H4.65524H4.65365H4.65207H4.65048H4.64889H4.64731H4.64572H4.64414H4.64255H4.64097H4.63938H4.6378H4.63622H4.63464H4.63306H4.63148H4.6299H4.62832H4.62674H4.62516H4.62358H4.62201H4.62043H4.61885H4.61728H4.6157H4.61413H4.61256H4.61098H4.60941H4.60784H4.60627H4.6047H4.60313H4.60156H4.59999H4.59842H4.59685H4.59529H4.59372H4.59215H4.59059H4.58902H4.58746H4.58589H4.58433H4.58277H4.58121H4.57964H4.57808H4.57652H4.57496H4.5734H4.57185H4.57029H4.56873H4.56717H4.56562H4.56406H4.56251H4.56095H4.5594H4.55784H4.55629H4.55474H4.55319H4.55163H4.55008H4.54853H4.54698H4.54544H4.54389H4.54234H4.54079H4.53925H4.5377H4.53615H4.53461H4.53306H4.53152H4.52998H4.52843H4.52689H4.52535H4.52381H4.52227H4.52073H4.51919H4.51765H4.51611H4.51458H4.51304H4.5115H4.50997H4.50843H4.5069H4.50536H4.50383H4.5023H4.50076H4.49923H4.4977H4.49617H4.49464H4.49311H4.49158H4.49005H4.48853H4.487H4.48547H4.48395H4.48242H4.4809H4.47937H4.47785H4.47633H4.4748H4.47328H4.47176H4.47024H4.46872H4.4672H4.46568H4.46416H4.46264H4.46112H4.45961H4.45809H4.45658H4.45506H4.45355H4.45203H4.45052H4.44901H4.44749H4.44598H4.44447H4.44296H4.44145H4.43994H4.43843H4.43692H4.43542H4.43391H4.4324H4.4309H4.42939H4.42789H4.42638H4.42488H4.42338H4.42187H4.42037H4.41887H4.41737H4.41587H4.41437H4.41287H4.41137H4.40987H4.40838H4.40688H4.40538H4.40389H4.40239H4.4009H4.3994H4.39791H4.39642H4.39493H4.39343H4.39194H4.39045H4.38896H4.38747H4.38598H4.3845H4.38301H4.38152H4.38004H4.37855H4.37706H4.37558H4.3741H4.37261H4.37113H4.36965H4.36817H4.36668H4.3652H4.36372H4.36224H4.36076H4.35929H4.35781H4.35633H4.35485H4.35338H4.3519H4.35043H4.34895H4.34748H4.34601H4.34453H4.34306H4.34159H4.34012H4.33865H4.33718H4.33571H4.33424H4.33277H4.33131H4.32984H4.32837H4.32691H4.32544H4.32398H4.32252H4.32105H4.31959H4.31813H4.31666H4.3152H4.31374H4.31228H4.31082H4.30937H4.30791H4.30645H4.30499H4.30354H4.30208H4.30063H4.29917H4.29772H4.29626H4.29481H4.29336H4.29191H4.29045H4.289H4.28755H4.2861H4.28466H4.28321H4.28176H4.28031H4.27886H4.27742H4.27597H4.27453H4.27308H4.27164H4.2702H4.26875H4.26731H4.26587H4.26443H4.26299H4.26155H4.26011H4.25867H4.25724H4.2558H4.25436H4.25292H4.25149H4.25005H4.24862H4.24719H4.24575H4.24432H4.24289H4.24146H4.24002H4.23859H4.23716H4.23573H4.23431H4.23288H4.23145H4.23002H4.2286H4.22717H4.22575H4.22432H4.2229H4.22147H4.22005H4.21863H4.21721H4.21579H4.21437H4.21295H4.21153H4.21011H4.20869H4.20727H4.20585H4.20444H4.20302H4.20161H4.20019H4.19878H4.19736H4.19595H4.19454H4.19313H4.19171H4.1903H4.18889H4.18748H4.18608H4.18467H4.18326H4.18185H4.18045H4.17904H4.17763H4.17623H4.17482H4.17342H4.17202H4.17061H4.16921H4.16781H4.16641H4.16501H4.16361H4.16221H4.16081H4.15941H4.15802H4.15662H4.15522H4.15383H4.15243H4.15104H4.14964H4.14825H4.14686H4.14547H4.14407H4.14268H4.14129H4.1399H4.13851H4.13713H4.13574H4.13435H4.13296H4.13158H4.13019H4.12881H4.12742H4.12604H4.12465H4.12327H4.12189H4.12051H4.11913H4.11775H4.11637H4.11499H4.11361H4.11223H4.11085H4.10947H4.1081H4.10672H4.10535H4.10397C2.91188 3.50586 1.94556 4.47224 1.94556 5.6643V11.8981C1.94556 13.0901 2.91193 14.0565 4.104 14.0565H10.3378C11.5298 14.0565 12.4962 13.0902 12.4962 11.8981V11.8967V11.8953V11.894V11.8926V11.8912V11.8898V11.8885V11.8871V11.8857V11.8843V11.8829V11.8816V11.8802V11.8788V11.8774V11.876V11.8746V11.8733V11.8719V11.8705V11.8691V11.8677V11.8663V11.8649V11.8636V11.8622V11.8608V11.8594V11.858V11.8566V11.8552V11.8538V11.8524V11.851V11.8496V11.8482V11.8468V11.8454V11.844V11.8427V11.8413V11.8399V11.8385V11.8371V11.8357V11.8343V11.8329V11.8315V11.83V11.8286V11.8272V11.8258V11.8244V11.823V11.8216V11.8202V11.8188V11.8174V11.816V11.8146V11.8132V11.8118V11.8104V11.8089V11.8075V11.8061V11.8047V11.8033V11.8019V11.8005V11.799V11.7976V11.7962V11.7948V11.7934V11.792V11.7905V11.7891V11.7877V11.7863V11.7849V11.7834V11.782V11.7806V11.7792V11.7777V11.7763V11.7749V11.7735V11.772V11.7706V11.7692V11.7678V11.7663V11.7649V11.7635V11.762V11.7606V11.7592V11.7577V11.7563V11.7549V11.7534V11.752V11.7506V11.7491V11.7477V11.7463V11.7448V11.7434V11.742V11.7405V11.7391V11.7376V11.7362V11.7348V11.7333V11.7319V11.7304V11.729V11.7275V11.7261V11.7246V11.7232V11.7218V11.7203V11.7189V11.7174V11.716V11.7145V11.7131V11.7116V11.7102V11.7087V11.7073V11.7058V11.7043V11.7029V11.7014V11.7V11.6985V11.6971V11.6956V11.6942V11.6927V11.6912V11.6898V11.6883V11.6869V11.6854V11.6839V11.6825V11.681V11.6796V11.6781V11.6766V11.6752V11.6737V11.6722V11.6708V11.6693V11.6678V11.6664V11.6649V11.6634V11.6619V11.6605V11.659V11.6575V11.6561V11.6546V11.6531V11.6516V11.6502V11.6487V11.6472V11.6457V11.6443V11.6428V11.6413V11.6398V11.6383V11.6369V11.6354V11.6339V11.6324V11.6309V11.6295V11.628V11.6265V11.625V11.6235V11.622V11.6205V11.6191V11.6176V11.6161V11.6146V11.6131V11.6116V11.6101V11.6086V11.6071V11.6056V11.6042V11.6027V11.6012V11.5997V11.5982V11.5967V11.5952V11.5937V11.5922V11.5907V11.5892V11.5877V11.5862V11.5847V11.5832V11.5817V11.5802V11.5787V11.5772V11.5757V11.5742V11.5727V11.5712V11.5697V11.5682V11.5667V11.5651V11.5636V11.5621V11.5606V11.5591V11.5576V11.5561V11.5546V11.5531V11.5515V11.55V11.5485V11.547V11.5455V11.544V11.5425V11.5409V11.5394V11.5379V11.5364V11.5349V11.5333V11.5318V11.5303V11.5288V11.5273V11.5257V11.5242V11.5227V11.5212V11.5196V11.5181V11.5166V11.5151V11.5135V11.512V11.5105V11.509V11.5074V11.5059V11.5044V11.5028V11.5013V11.4998V11.4982V11.4967V11.4952V11.4936V11.4921V11.4906V11.489V11.4875V11.486V11.4844V11.4829V11.4813V11.4798V11.4783V11.4767V11.4752V11.4736V11.4721V11.4705V11.469V11.4675V11.4659V11.4644V11.4628V11.4613V11.4597V11.4582V11.4566V11.4551V11.4535V11.452V11.4504V11.4489V11.4473V11.4458V11.4442V11.4427V11.4411V11.4396V11.438V11.4364V11.4349V11.4333V11.4318V11.4302V11.4287V11.4271V11.4255V11.424V11.4224V11.4209V11.4193V11.4177V11.4162V11.4146V11.413V11.4115V11.4099V11.4083V11.4068V11.4052V11.4036V11.4021V11.4005V11.3989V11.3974V11.3958V11.3942V11.3927V11.3911V11.3895V11.3879V11.3864V11.3848V11.3832V11.3816V11.3801V11.3785V11.3769V11.3753V11.3737V11.3722V11.3706V11.369V11.3674V11.3658V11.3643V11.3627V11.3611V11.3595V11.3579V11.3563V11.3548V11.3532V11.3516V11.35V11.3484V11.3468V11.3452V11.3436V11.3421V11.3405V11.3389V11.3373V11.3357V11.3341V11.3325V11.3309V11.3293V11.3277V11.3261V11.3245V11.3229V11.3213V11.3197V11.3181V11.3165V11.3149V11.3133V11.3117V11.3101V11.3085V11.3069V11.3053V11.3037V11.3021V11.3005V11.2989V11.2973V11.2957V11.2941V11.2925V11.2909V11.2893V11.2877V11.286V11.2844V11.2828V11.2812V11.2796V11.278V11.2764V11.2748V11.2731V11.2715V11.2699V11.2683V11.2667V11.2651V11.2634V11.2618V11.2602V11.2586V11.257V11.2553V11.2537V11.2521V11.2505V11.2489V11.2472V11.2456V11.244V11.2424V11.2407V11.2391V11.2375V11.2359V11.2342V11.2326V11.231V11.2293V11.2277V11.2261V11.2244V11.2228V11.2212V11.2195V11.2179V11.2163V11.2146V11.213V11.2114V11.2097V11.2081V11.2065V11.2048V11.2032V11.2015V11.1999V11.1983V11.1966V11.195V11.1933V11.1917V11.1901V11.1884V11.1868V11.1851V11.1835V11.1818V11.1802V11.1785V11.1769V11.1752V11.1736V11.1719V11.1703V11.1686V11.167V11.1653V11.1637V11.162V11.1604V11.1587V11.1571V11.1554V11.1538V11.1521V11.1504V11.1488V11.1471V11.1455V11.1438V11.1421V11.1405V11.1388V11.1372V11.1355V11.1338V11.1322V11.1305V11.1288V11.1272V11.1255V11.1238V11.1222V11.1205V11.1188C12.4962 10.7875 12.2276 10.5188 11.8962 10.5188C11.5648 10.5188 11.2962 10.7875 11.2962 11.1188V11.1205V11.1222V11.1238V11.1255V11.1272V11.1288V11.1305V11.1322V11.1338V11.1355V11.1372V11.1388V11.1405V11.1421V11.1438V11.1455V11.1471V11.1488V11.1504V11.1521V11.1538V11.1554V11.1571V11.1587V11.1604V11.162V11.1637V11.1653V11.167V11.1686V11.1703V11.1719V11.1736V11.1752V11.1769V11.1785V11.1802V11.1818V11.1835V11.1851V11.1868V11.1884V11.1901V11.1917V11.1933V11.195V11.1966V11.1983V11.1999V11.2015V11.2032V11.2048V11.2065V11.2081V11.2097V11.2114V11.213V11.2146V11.2163V11.2179V11.2195V11.2212V11.2228V11.2244V11.2261V11.2277V11.2293V11.231V11.2326V11.2342V11.2359V11.2375V11.2391V11.2407V11.2424V11.244V11.2456V11.2472V11.2489V11.2505V11.2521V11.2537V11.2553V11.257V11.2586V11.2602V11.2618V11.2634V11.2651V11.2667V11.2683V11.2699V11.2715V11.2731V11.2748V11.2764V11.278V11.2796V11.2812V11.2828V11.2844V11.286V11.2877V11.2893V11.2909V11.2925V11.2941V11.2957V11.2973V11.2989V11.3005V11.3021V11.3037V11.3053V11.3069V11.3085V11.3101V11.3117V11.3133V11.3149V11.3165V11.3181V11.3197V11.3213V11.3229V11.3245V11.3261V11.3277V11.3293V11.3309V11.3325V11.3341V11.3357V11.3373V11.3389V11.3405V11.3421V11.3436V11.3452V11.3468V11.3484V11.35V11.3516V11.3532V11.3548V11.3563V11.3579V11.3595V11.3611V11.3627V11.3643V11.3658V11.3674V11.369V11.3706V11.3722V11.3737V11.3753V11.3769V11.3785V11.3801V11.3816V11.3832V11.3848V11.3864V11.3879V11.3895V11.3911V11.3927V11.3942V11.3958V11.3974V11.3989V11.4005V11.4021V11.4036V11.4052V11.4068V11.4083V11.4099V11.4115V11.413V11.4146V11.4162V11.4177V11.4193V11.4209V11.4224V11.424V11.4255V11.4271V11.4287V11.4302V11.4318V11.4333V11.4349V11.4364V11.438V11.4396V11.4411V11.4427V11.4442V11.4458V11.4473V11.4489V11.4504V11.452V11.4535V11.4551V11.4566V11.4582V11.4597V11.4613V11.4628V11.4644V11.4659V11.4675V11.469V11.4705V11.4721V11.4736V11.4752V11.4767V11.4783V11.4798V11.4813V11.4829V11.4844V11.486V11.4875V11.489V11.4906V11.4921V11.4936V11.4952V11.4967V11.4982V11.4998V11.5013V11.5028V11.5044V11.5059V11.5074V11.509V11.5105V11.512V11.5135V11.5151V11.5166V11.5181V11.5196V11.5212V11.5227V11.5242V11.5257V11.5273V11.5288V11.5303V11.5318V11.5333V11.5349V11.5364V11.5379V11.5394V11.5409V11.5425V11.544V11.5455V11.547V11.5485V11.55V11.5515V11.5531V11.5546V11.5561V11.5576V11.5591V11.5606V11.5621V11.5636V11.5651V11.5667V11.5682V11.5697V11.5712V11.5727V11.5742V11.5757V11.5772V11.5787V11.5802V11.5817V11.5832V11.5847V11.5862V11.5877V11.5892V11.5907V11.5922V11.5937V11.5952V11.5967V11.5982V11.5997V11.6012V11.6027V11.6042V11.6056V11.6071V11.6086V11.6101V11.6116V11.6131V11.6146V11.6161V11.6176V11.6191V11.6205V11.622V11.6235V11.625V11.6265V11.628V11.6295V11.6309V11.6324V11.6339V11.6354V11.6369V11.6383V11.6398V11.6413V11.6428V11.6443V11.6457V11.6472V11.6487V11.6502V11.6516V11.6531V11.6546V11.6561V11.6575V11.659V11.6605V11.6619V11.6634V11.6649V11.6664V11.6678V11.6693V11.6708V11.6722V11.6737V11.6752V11.6766V11.6781V11.6796V11.681V11.6825V11.6839V11.6854V11.6869V11.6883V11.6898V11.6912V11.6927V11.6942V11.6956V11.6971V11.6985V11.7V11.7014V11.7029V11.7043V11.7058V11.7073V11.7087V11.7102V11.7116V11.7131V11.7145V11.716V11.7174V11.7189V11.7203V11.7218V11.7232V11.7246V11.7261V11.7275V11.729V11.7304V11.7319V11.7333V11.7348V11.7362V11.7376V11.7391V11.7405V11.742V11.7434V11.7448V11.7463V11.7477V11.7491V11.7506V11.752V11.7534V11.7549V11.7563V11.7577V11.7592V11.7606V11.762V11.7635V11.7649V11.7663V11.7678V11.7692V11.7706V11.772V11.7735V11.7749V11.7763V11.7777V11.7792V11.7806V11.782V11.7834V11.7849V11.7863V11.7877V11.7891V11.7905V11.792V11.7934V11.7948V11.7962V11.7976V11.799V11.8005V11.8019V11.8033V11.8047V11.8061V11.8075V11.8089V11.8104V11.8118V11.8132V11.8146V11.816V11.8174V11.8188V11.8202V11.8216V11.823V11.8244V11.8258V11.8272V11.8286V11.83V11.8315V11.8329V11.8343V11.8357V11.8371V11.8385V11.8399V11.8413V11.8427V11.844V11.8454V11.8468V11.8482V11.8496V11.851V11.8524V11.8538V11.8552V11.8566V11.858V11.8594V11.8608V11.8622V11.8636V11.8649V11.8663V11.8677V11.8691V11.8705V11.8719V11.8733V11.8746V11.876V11.8774V11.8788V11.8802V11.8816V11.8829V11.8843V11.8857V11.8871V11.8885V11.8898V11.8912V11.8926V11.894V11.8953V11.8967V11.8981C11.2962 12.4274 10.8671 12.8565 10.3378 12.8565H4.104C3.57467 12.8565 3.14556 12.4274 3.14556 11.8981V5.6643Z" fill="#8C8C8C" fill-opacity="0.6"/>
</svg>
