<svg width="20" height="20" viewBox="0 0 20 20" fill="none" xmlns="http://www.w3.org/2000/svg">
<path fill-rule="evenodd" clip-rule="evenodd" d="M5 0.96875C3.6067 0.96875 2.55467 1.38984 1.86604 2.18728C1.19398 2.96553 0.966667 3.98991 0.966667 5.00208V17.5021C0.966667 18.7664 2.40609 19.4949 3.42107 18.728L3.4227 18.7267L4.845 17.6621C4.89615 17.6237 4.97343 17.6243 5.03003 17.6804L6.41187 19.0706L6.41336 19.0721C7.01173 19.6704 7.98827 19.6704 8.58664 19.0721L9.98664 17.6721C10.034 17.6247 10.1067 17.6251 10.1482 17.657L11.5805 18.7291L11.5827 18.7308C12.5906 19.479 14.0333 18.7657 14.0333 17.5021V9.86875H16.1833C16.9915 9.86875 17.7196 9.60998 18.2471 9.08247C18.7746 8.55497 19.0333 7.82694 19.0333 7.01875V5.00208C19.0333 3.89058 18.5781 2.88358 17.8567 2.1522L17.8567 2.15219L17.8533 2.14877C17.1254 1.42088 16.1174 0.978819 15.0231 0.968779V0.96875H15.0167L15.0059 0.968774L15 0.96875H5ZM14.0333 8.46875L14.0333 3.34139C14.0346 2.80954 14.4729 2.37036 15.0137 2.36875C15.7339 2.37627 16.3904 2.66667 16.8617 3.13703C17.3393 3.62215 17.6333 4.28111 17.6333 5.00208V7.01875C17.6333 7.52722 17.4754 7.87419 17.2571 8.09252C17.0388 8.31086 16.6918 8.46875 16.1833 8.46875H14.0333ZM12.6333 3.34071V3.33542C12.6333 2.99144 12.7074 2.66417 12.8404 2.36875H5C3.8933 2.36875 3.27866 2.69349 2.92563 3.1023C2.55602 3.53031 2.36667 4.17259 2.36667 5.00208V17.5021C2.36667 17.6204 2.49237 17.6751 2.5773 17.6108L2.58052 17.6084L4.005 16.5421C4.62035 16.0807 5.47667 16.1471 6.01998 16.6904L6.02146 16.6919L7.40331 18.0821C7.45499 18.1334 7.54517 18.1336 7.59669 18.0821L8.99669 16.6821C9.53141 16.1474 10.3893 16.0795 10.9976 16.5441L12.4173 17.6067C12.4446 17.6268 12.4679 17.6332 12.4868 17.6345C12.5087 17.6359 12.5345 17.6314 12.5599 17.6187C12.5853 17.606 12.6038 17.5884 12.6151 17.5709C12.6249 17.5559 12.6333 17.5353 12.6333 17.5021V9.1704L12.6333 9.16875V3.34375L12.6333 3.34071ZM6.8 10.8445C6.8 10.4579 7.1134 10.1445 7.5 10.1445H10C10.3866 10.1445 10.7 10.4579 10.7 10.8445C10.7 11.2311 10.3866 11.5445 10 11.5445H7.5C7.1134 11.5445 6.8 11.2311 6.8 10.8445ZM7.5 6.80859C7.1134 6.80859 6.8 7.12199 6.8 7.50859C6.8 7.89519 7.1134 8.20859 7.5 8.20859H10C10.3866 8.20859 10.7 7.89519 10.7 7.50859C10.7 7.12199 10.3866 6.80859 10 6.80859H7.5ZM4.29634 10.8328C4.29634 10.4462 4.60974 10.1328 4.99634 10.1328H5.00383C5.39043 10.1328 5.70383 10.4462 5.70383 10.8328C5.70383 11.2194 5.39043 11.5328 5.00383 11.5328H4.99634C4.60974 11.5328 4.29634 11.2194 4.29634 10.8328ZM4.99634 6.80078C4.60974 6.80078 4.29634 7.11418 4.29634 7.50078C4.29634 7.88738 4.60974 8.20078 4.99634 8.20078H5.00383C5.39043 8.20078 5.70383 7.88738 5.70383 7.50078C5.70383 7.11418 5.39043 6.80078 5.00383 6.80078H4.99634Z" fill="#8C8C8C"/>
</svg>
