<svg width="16" height="16" viewBox="0 0 16 16" fill="none" xmlns="http://www.w3.org/2000/svg">
<g id="arrow">
<path id="Union" fill-rule="evenodd" clip-rule="evenodd" d="M3.18643 8.34666C3.18643 7.90483 2.82825 7.54666 2.38643 7.54666C1.9446 7.54666 1.58643 7.90483 1.58643 8.34666V10.56C1.58643 12.1085 2.83793 13.36 4.38643 13.36H11.6818L10.9409 14.101C10.6284 14.4134 10.6284 14.9199 10.9409 15.2323C11.2533 15.5448 11.7598 15.5448 12.0722 15.2323L14.1789 13.1257C14.2188 13.0858 14.2541 13.0421 14.2843 12.9955C14.346 12.9006 14.3881 12.7919 14.4049 12.6751C14.4104 12.6372 14.4132 12.5987 14.4132 12.56C14.4132 12.5213 14.4104 12.4828 14.4049 12.4449C14.3802 12.2753 14.3015 12.117 14.1789 11.9943L12.0722 9.88764C11.7598 9.57522 11.2533 9.57521 10.9409 9.88763C10.6284 10.2001 10.6284 10.7066 10.9409 11.019L11.6818 11.76H4.38643C3.72159 11.76 3.18643 11.2248 3.18643 10.56V8.34666Z" fill="#8C8C8C" fill-opacity="0.6"/>
<path id="Union_2" fill-rule="evenodd" clip-rule="evenodd" d="M12.8131 7.7C12.8131 8.14183 13.1713 8.5 13.6131 8.5C14.0549 8.5 14.4131 8.14183 14.4131 7.7V5.48666C14.4131 3.93817 13.1616 2.68666 11.6131 2.68666H4.31767L5.05865 1.94569C5.37107 1.63327 5.37107 1.12674 5.05866 0.81432C4.74624 0.501899 4.23971 0.501896 3.92729 0.814314L1.82062 2.92096C1.7807 2.96088 1.74544 3.00457 1.71518 3.05121C1.65354 3.14603 1.61145 3.25473 1.59462 3.37159C1.58911 3.40947 1.5863 3.44791 1.5863 3.48665C1.5863 3.52539 1.58911 3.56384 1.59461 3.60172C1.61927 3.77134 1.69798 3.9297 1.82061 4.05233L3.92728 6.15902C4.2397 6.47144 4.74623 6.47145 5.05865 6.15903C5.37107 5.84661 5.37107 5.34008 5.05866 5.02766L4.31767 4.28666H11.6131C12.2779 4.28666 12.8131 4.82182 12.8131 5.48666V7.7Z" fill="#8C8C8C" fill-opacity="0.6"/>
</g>
</svg>
