<svg width="16" height="16" viewBox="0 0 16 16" fill="none" xmlns="http://www.w3.org/2000/svg">
<path fill-rule="evenodd" clip-rule="evenodd" d="M6.37104 2C4.95734 2 3.81944 2.27925 3.04934 3.04934C2.27925 3.81944 2 4.95734 2 6.37104V9.62896C2 11.0427 2.27925 12.1806 3.04934 12.9507C3.81944 13.7208 4.95734 14 6.37104 14H9.62896C11.0427 14 12.1806 13.7208 12.9507 12.9507C13.7208 12.1806 14 11.0427 14 9.62896V6.37104C14 4.95734 13.7208 3.81944 12.9507 3.04934C12.1806 2.27925 11.0427 2 9.62896 2H6.37104ZM3.14027 6.37104C3.14027 5.06981 3.40401 4.30726 3.85564 3.85564C4.30726 3.40401 5.06981 3.14027 6.37104 3.14027H9.62896C10.9302 3.14027 11.6927 3.40401 12.1444 3.85564C12.596 4.30726 12.8597 5.06981 12.8597 6.37104V9.62896C12.8597 10.9302 12.596 11.6927 12.1444 12.1444C11.6927 12.596 10.9302 12.8597 9.62896 12.8597H6.37104C5.06981 12.8597 4.30726 12.596 3.85564 12.1444C3.40401 11.6927 3.14027 10.9302 3.14027 9.62896V6.37104ZM5.31208 9.88159L9.88135 5.31232H9.08594C8.77106 5.31232 8.5158 5.05706 8.5158 4.74219C8.5158 4.42731 8.77106 4.17205 9.08594 4.17205H11.2579C11.5728 4.17205 11.828 4.42731 11.828 4.74219V6.91413C11.828 7.22901 11.5728 7.48427 11.2579 7.48427C10.943 7.48427 10.6877 7.22901 10.6877 6.91413V6.11851L6.11848 10.6878H6.91389C7.22877 10.6878 7.48403 10.943 7.48403 11.2579C7.48403 11.5728 7.22877 11.8281 6.91389 11.8281H4.75296C4.6034 11.8309 4.45293 11.7753 4.3388 11.6612C4.27114 11.5935 4.22404 11.5131 4.1975 11.4277C4.1839 11.3839 4.1757 11.3387 4.1729 11.2934C4.17217 11.2816 4.17181 11.2698 4.17181 11.258C4.17181 11.2572 4.17181 11.2564 4.17181 11.2555V9.08597C4.17181 8.7711 4.42707 8.51584 4.74195 8.51584C5.05683 8.51584 5.31208 8.7711 5.31208 9.08597V9.88159Z" fill="#8C8C8C" fill-opacity="0.6"/>
</svg>
