<svg width="16" height="16" viewBox="0 0 16 16" fill="none" xmlns="http://www.w3.org/2000/svg">
<g id="ic2_no_preview">
<path id="Union" fill-rule="evenodd" clip-rule="evenodd" d="M11.006 11.9958L12.505 13.4948L13.495 12.5049L11.996 11.0059C12.6263 10.1692 13 9.12824 13 8C13 5.23858 10.7614 3 8 3C6.87176 3 5.8308 3.37369 4.99414 4.00404L3.49498 2.50488L2.50503 3.49483L4.00417 4.99397C3.37374 5.83066 3 6.87169 3 8C3 10.7614 5.23858 13 8 13C9.12831 13 10.1693 12.6263 11.006 11.9958ZM10.9923 10.0022C11.3761 9.42973 11.6 8.74101 11.6 8C11.6 6.01177 9.98822 4.4 8 4.4C7.25899 4.4 6.57027 4.62388 5.99779 5.0077L10.9923 10.0022ZM5.00781 5.99762L10.0024 10.9922C9.42987 11.3761 8.74109 11.6 8 11.6C6.01177 11.6 4.4 9.98822 4.4 8C4.4 7.25891 4.62393 6.57013 5.00781 5.99762Z" fill="#8C8C8C"/>
</g>
</svg>
