<svg width="20" height="20" viewBox="0 0 20 20" fill="none" xmlns="http://www.w3.org/2000/svg">
<path fill-rule="evenodd" clip-rule="evenodd" d="M3.2 5.83151C3.2 4.68882 3.48578 3.84351 4.00254 3.28699C4.51058 2.73987 5.34176 2.36484 6.66667 2.36484H13.3333C14.6582 2.36484 15.4894 2.73987 15.9975 3.28699C16.5142 3.84351 16.8 4.68882 16.8 5.83151V14.1648C16.8 15.3075 16.5142 16.1528 15.9975 16.7094C15.4894 17.2565 14.6582 17.6315 13.3333 17.6315H6.66667C5.34176 17.6315 4.51058 17.2565 4.00254 16.7094C3.48578 16.1528 3.2 15.3075 3.2 14.1648V5.83151ZM6.66667 0.964844C5.07492 0.964844 3.82275 1.42315 2.97663 2.33436C2.13923 3.23618 1.8 4.4742 1.8 5.83151V14.1648C1.8 15.5221 2.13923 16.7602 2.97663 17.662C3.82275 18.5732 5.07492 19.0315 6.66667 19.0315H13.3333C14.9251 19.0315 16.1773 18.5732 17.0234 17.662C17.8608 16.7602 18.2 15.5221 18.2 14.1648V5.83151C18.2 4.4742 17.8608 3.23618 17.0234 2.33436C16.1773 1.42315 14.9251 0.964844 13.3333 0.964844H6.66667ZM12.7833 3.75078C12.7833 3.36418 12.4699 3.05078 12.0833 3.05078C11.6967 3.05078 11.3833 3.36418 11.3833 3.75078V5.41745C11.3833 6.72071 12.4467 7.78411 13.75 7.78411H15.4166C15.8032 7.78411 16.1166 7.47071 16.1166 7.08411C16.1166 6.69752 15.8032 6.38411 15.4166 6.38411H13.75C13.2199 6.38411 12.7833 5.94752 12.7833 5.41745V3.75078ZM5.96669 10.8328C5.96669 10.4462 6.28009 10.1328 6.66669 10.1328H10C10.3866 10.1328 10.7 10.4462 10.7 10.8328C10.7 11.2194 10.3866 11.5328 10 11.5328H6.66669C6.28009 11.5328 5.96669 11.2194 5.96669 10.8328ZM6.66669 13.4648C6.28009 13.4648 5.96669 13.7782 5.96669 14.1648C5.96669 14.5514 6.28009 14.8648 6.66669 14.8648H13.3334C13.72 14.8648 14.0334 14.5514 14.0334 14.1648C14.0334 13.7782 13.72 13.4648 13.3334 13.4648H6.66669Z" fill="#8C8C8C"/>
</svg>
