<svg width="20" height="20" viewBox="0 0 20 20" fill="none" xmlns="http://www.w3.org/2000/svg">
<path fill-rule="evenodd" clip-rule="evenodd" d="M8 4C8 3.44772 8.44772 3 9 3L17 3C17.5523 3 18 3.44772 18 4C18 4.55229 17.5523 5 17 5L9 5C8.44772 5 8 4.55228 8 4Z" fill="#8C8C8C"/>
<path fill-rule="evenodd" clip-rule="evenodd" d="M4 2.5C4.82843 2.5 5.5 3.17157 5.5 4V7.5C5.5 8.32843 4.82843 9 4 9C3.17157 9 2.5 8.32843 2.5 7.5V4C2.5 3.17157 3.17157 2.5 4 2.5Z" fill="#8C8C8C"/>
<path fill-rule="evenodd" clip-rule="evenodd" d="M4 11C4.82843 11 5.5 11.6716 5.5 12.5V16C5.5 16.8284 4.82843 17.5 4 17.5C3.17157 17.5 2.5 16.8284 2.5 16V12.5C2.5 11.6716 3.17157 11 4 11Z" fill="#8C8C8C"/>
<path fill-rule="evenodd" clip-rule="evenodd" d="M8 8C8 7.44772 8.44772 7 9 7L17 7C17.5523 7 18 7.44772 18 8C18 8.55229 17.5523 9 17 9L9 9C8.44772 9 8 8.55228 8 8Z" fill="#8C8C8C"/>
<path fill-rule="evenodd" clip-rule="evenodd" d="M8 12C8 11.4477 8.44772 11 9 11L17 11C17.5523 11 18 11.4477 18 12C18 12.5523 17.5523 13 17 13L9 13C8.44772 13 8 12.5523 8 12Z" fill="#8C8C8C"/>
<path fill-rule="evenodd" clip-rule="evenodd" d="M8 16C8 15.4477 8.44772 15 9 15L17 15C17.5523 15 18 15.4477 18 16C18 16.5523 17.5523 17 17 17L9 17C8.44772 17 8 16.5523 8 16Z" fill="#8C8C8C"/>
</svg>
