<svg width="16" height="16" viewBox="0 0 16 16" fill="none" xmlns="http://www.w3.org/2000/svg">
<path fill-rule="evenodd" clip-rule="evenodd" d="M1.7998 3.91782C1.7998 2.74753 2.74851 1.79883 3.9188 1.79883H9.99479C11.1112 1.79883 12.026 2.66225 12.1078 3.75777C13.2042 3.83869 14.0686 4.75388 14.0686 5.87095V11.9469C14.0686 13.1172 13.1199 14.0659 11.9496 14.0659H5.87363C4.75719 14.0659 3.84241 13.2025 3.7606 12.107C2.66419 12.0261 1.7998 11.1109 1.7998 9.99381V3.91782ZM12.8686 7.78083V11.9469C12.8686 12.4545 12.4572 12.8659 11.9496 12.8659H5.87363C5.36609 12.8659 4.95464 12.4545 4.95464 11.9469V7.78083C5.23263 7.91484 5.54436 7.98995 5.87363 7.98995H11.9496C12.2789 7.98995 12.5906 7.91484 12.8686 7.78083ZM3.75464 5.87095C3.75464 4.70066 4.70335 3.75195 5.87364 3.75195H10.8989C10.8208 3.32358 10.4457 2.99883 9.99479 2.99883H3.9188C3.41125 2.99883 2.9998 3.41028 2.9998 3.91782V9.99381C2.9998 10.4453 3.32542 10.8208 3.75464 10.8982V5.87095ZM5.87364 4.95195C5.36609 4.95195 4.95464 5.3634 4.95464 5.87095C4.95464 6.3785 5.36609 6.78995 5.87363 6.78995H11.9496C12.4572 6.78995 12.8686 6.3785 12.8686 5.87095C12.8686 5.3634 12.4572 4.95195 11.9496 4.95195H5.87364Z" fill="#8C8C8C" fill-opacity="0.6"/>
</svg>
