<svg width="20" height="20" viewBox="0 0 20 20" fill="none" xmlns="http://www.w3.org/2000/svg">
<g clip-path="url(#clip0_2010_84079)">
<path fill-rule="evenodd" clip-rule="evenodd" d="M6.25 10.6016C9.01142 10.6016 11.25 8.36299 11.25 5.60156C11.25 2.84014 9.01142 0.601562 6.25 0.601562C3.48858 0.601562 1.25 2.84014 1.25 5.60156C1.25 8.36299 3.48858 10.6016 6.25 10.6016ZM6.25 9.10156C8.183 9.10156 9.75 7.53456 9.75 5.60156C9.75 3.66857 8.183 2.10156 6.25 2.10156C4.317 2.10156 2.75 3.66857 2.75 5.60156C2.75 7.53456 4.317 9.10156 6.25 9.10156Z" fill="#8C8C8C"/>
<path d="M17.9522 12.8575C17.5782 12.4834 17.0111 12.0113 16.3572 11.6376C15.6964 11.26 15.0088 11.0182 14.3748 11.0182C14.0706 11.0182 13.5962 11.0989 13.0041 11.2618C12.4262 11.4208 11.7873 11.6437 11.1741 11.8939C10.5601 12.1445 9.98751 12.4163 9.5399 12.6686C9.31578 12.795 9.13322 12.9107 8.99648 13.0108C8.9393 13.0526 8.89397 13.0889 8.85913 13.1193C8.90234 13.2036 8.98702 13.3237 9.12337 13.4691C9.25193 13.6062 9.39631 13.7344 9.52525 13.8397L11.6113 13.1443C12.0479 12.9988 12.5198 13.2348 12.6654 13.6714C12.8109 14.108 12.5749 14.5799 12.1383 14.7255L9.64647 15.5561C9.50198 15.6058 9.34488 15.6156 9.19332 15.5818L8.94267 15.532C8.77069 15.4979 8.52395 15.4492 8.2252 15.3907C7.62755 15.2738 6.82254 15.118 5.99206 14.9623C5.16069 14.8064 4.30771 14.6514 3.6128 14.5355C3.23343 14.4723 2.92614 14.4253 2.70081 14.3947C2.75029 14.4573 2.80984 14.5248 2.88072 14.5956C3.26237 14.9773 4.15304 15.77 5.23886 16.461C6.34792 17.1668 7.5351 17.6849 8.54146 17.6849C9.65035 17.6849 10.5856 17.4098 11.5071 17.1027C11.6003 17.0716 11.6948 17.0396 11.7905 17.0071C12.5922 16.7354 13.4791 16.4349 14.3748 16.4349H18.5414C19.0017 16.4349 19.3748 16.808 19.3748 17.2682C19.3748 17.7285 19.0012 18.1016 18.541 18.1016H14.3748C13.7703 18.1016 13.1562 18.3076 12.2951 18.5965C12.2108 18.6247 12.1233 18.6541 12.0342 18.6838C11.0806 19.0016 9.93258 19.3516 8.54146 19.3516C7.04782 19.3516 5.52667 18.6197 4.34407 17.8671C3.13822 17.0998 2.15389 16.2258 1.70221 15.7742C1.22154 15.2935 0.83313 14.6756 0.83313 14.0391C0.83313 13.689 0.956645 13.312 1.27396 13.0343C1.57671 12.7694 1.95339 12.6849 2.29146 12.6849C2.58583 12.6849 3.21523 12.7796 3.88679 12.8915C4.59813 13.0101 5.4639 13.1675 6.2992 13.3242C6.61516 13.3834 6.92731 13.4426 7.2258 13.4997C7.11729 13.1071 7.12801 12.6251 7.45813 12.1849C7.60957 11.983 7.81724 11.8084 8.01239 11.6657C8.21826 11.515 8.4605 11.3639 8.72141 11.2168C9.24385 10.9223 9.88222 10.6211 10.5443 10.3509C11.2071 10.0803 11.9093 9.83441 12.5619 9.65486C13.2003 9.47922 13.8457 9.35156 14.3748 9.35156C15.4075 9.35156 16.3865 9.73478 17.1841 10.1905C17.9885 10.6502 18.6714 11.2197 19.1307 11.679C19.4562 12.0044 19.4562 12.532 19.1307 12.8575C18.8053 13.1829 18.2776 13.1829 17.9522 12.8575Z" fill="#8C8C8C"/>
<path fill-rule="evenodd" clip-rule="evenodd" d="M6.04167 3.89844C5.65507 3.89844 5.34167 4.21184 5.34167 4.59844V5.53854C5.34167 6.06694 5.61318 6.57566 6.09215 6.85684L6.72087 7.23739C7.0516 7.43758 7.48199 7.33175 7.68218 7.00102C7.88237 6.67029 7.77654 6.23989 7.44581 6.0397L6.80155 5.64974C6.7678 5.63015 6.74167 5.59114 6.74167 5.53854V4.59844C6.74167 4.21184 6.42827 3.89844 6.04167 3.89844Z" fill="#8C8C8C"/>
</g>
<defs>
<clipPath id="clip0_2010_84079">
<rect width="20" height="20" fill="white"/>
</clipPath>
</defs>
</svg>
