<svg width="20" height="20" viewBox="0 0 20 20" fill="none" xmlns="http://www.w3.org/2000/svg">
<path fill-rule="evenodd" clip-rule="evenodd" d="M3.2 5.83151C3.2 4.68882 3.48578 3.84351 4.00254 3.28699C4.51058 2.73987 5.34176 2.36484 6.66667 2.36484H12C12.3866 2.36484 12.7 2.05144 12.7 1.66484C12.7 1.27824 12.3866 0.964844 12 0.964844H6.66667C5.07492 0.964844 3.82275 1.42315 2.97663 2.33436C2.13923 3.23618 1.8 4.4742 1.8 5.83151V14.1648C1.8 15.5221 2.13923 16.7602 2.97663 17.662C3.82275 18.5732 5.07492 19.0315 6.66667 19.0315H13.3333C14.9251 19.0315 16.1773 18.5732 17.0234 17.662C17.8608 16.7602 18.2 15.5221 18.2 14.1648V8.99687C18.2 8.61028 17.8866 8.29688 17.5 8.29688C17.1134 8.29688 16.8 8.61028 16.8 8.99687V14.1648C16.8 15.3075 16.5142 16.1528 15.9975 16.7094C15.4894 17.2565 14.6582 17.6315 13.3333 17.6315H6.66667C5.34176 17.6315 4.51058 17.2565 4.00254 16.7094C3.48578 16.1528 3.2 15.3075 3.2 14.1648V5.83151ZM18.9905 3.5002C19.2663 3.2293 19.2703 2.7861 18.9994 2.51029C18.7285 2.23447 18.2853 2.23047 18.0095 2.50137L13.4228 7.00619L11.5041 5.01506C11.2358 4.73667 10.7927 4.72847 10.5143 4.99673C10.2359 5.26499 10.2277 5.70813 10.4959 5.98651L12.905 8.48651C13.0347 8.62102 13.2127 8.69814 13.3995 8.70072C13.5862 8.70329 13.7663 8.63109 13.8996 8.5002L18.9905 3.5002ZM5.96669 10.8328C5.96669 10.4462 6.28009 10.1328 6.66669 10.1328H10C10.3866 10.1328 10.7 10.4462 10.7 10.8328C10.7 11.2194 10.3866 11.5328 10 11.5328H6.66669C6.28009 11.5328 5.96669 11.2194 5.96669 10.8328ZM6.66669 13.4648C6.28009 13.4648 5.96669 13.7782 5.96669 14.1648C5.96669 14.5514 6.28009 14.8648 6.66669 14.8648H13.3334C13.72 14.8648 14.0334 14.5514 14.0334 14.1648C14.0334 13.7782 13.72 13.4648 13.3334 13.4648H6.66669Z" fill="#8C8C8C"/>
</svg>
