<svg width="20" height="20" viewBox="0 0 20 20" fill="currentColor" xmlns="http://www.w3.org/2000/svg">
<g clip-path="url(#clip0_1202_71937)">
<path fill-rule="evenodd" clip-rule="evenodd" d="M0.833313 9.99967C0.833313 4.93694 4.93724 0.833008 9.99998 0.833008C15.0627 0.833008 19.1666 4.93694 19.1666 9.99967C19.1666 15.0624 15.0627 19.1663 9.99998 19.1663C4.93724 19.1663 0.833313 15.0624 0.833313 9.99967ZM9.99998 2.49967C5.85772 2.49967 2.49998 5.85741 2.49998 9.99967C2.49998 14.1419 5.85772 17.4997 9.99998 17.4997C14.1422 17.4997 17.5 14.1419 17.5 9.99967C17.5 5.85741 14.1422 2.49967 9.99998 2.49967ZM5.83333 9.16618C5.3731 9.16618 5 9.53927 5 9.99951C5 10.4597 5.3731 10.8328 5.83333 10.8328H14.1667C14.6269 10.8328 15 10.4597 15 9.99951C15 9.53927 14.6269 9.16618 14.1667 9.16618H5.83333Z" fill="currentColor" />
</g>
<defs>
<clipPath id="clip0_1202_71937">
<rect width="20" height="20" fill="white"/>
</clipPath>
</defs>
</svg>
