<svg width="24" height="24" viewBox="0 0 24 24" fill="none" xmlns="http://www.w3.org/2000/svg">
<path fill-rule="evenodd" clip-rule="evenodd" d="M3.78534 7.41642C3.78534 4.6025 6.06655 2.32129 8.88047 2.32129C11.6944 2.32129 13.9756 4.6025 13.9756 7.41642C13.9756 10.2303 11.6944 12.5116 8.88047 12.5116C6.06655 12.5116 3.78534 10.2303 3.78534 7.41642ZM8.88047 4.32129C7.17112 4.32129 5.78534 5.70707 5.78534 7.41642C5.78534 9.12578 7.17112 10.5116 8.88047 10.5116C10.5898 10.5116 11.9756 9.12578 11.9756 7.41642C11.9756 5.70707 10.5898 4.32129 8.88047 4.32129Z" fill="#1D1D1D"/>
<path fill-rule="evenodd" clip-rule="evenodd" d="M1.73779 20.678C1.73779 16.6598 4.98405 13.9013 8.85245 13.9013C12.7085 13.9013 16.0232 16.6485 16.0232 20.678C16.0232 21.2303 15.5755 21.678 15.0232 21.678C14.4709 21.678 14.0232 21.2303 14.0232 20.678C14.0232 17.9226 11.7814 15.9013 8.85245 15.9013C5.93583 15.9013 3.73779 17.9112 3.73779 20.678C3.73779 21.2303 3.29008 21.678 2.73779 21.678C2.18551 21.678 1.73779 21.2303 1.73779 20.678Z" fill="#1D1D1D"/>
<path fill-rule="evenodd" clip-rule="evenodd" d="M15.6973 10C15.6973 9.44772 16.145 9 16.6973 9H22.6158C23.1681 9 23.6158 9.44772 23.6158 10C23.6158 10.5523 23.1681 11 22.6158 11H16.6973C16.145 11 15.6973 10.5523 15.6973 10Z" fill="#1D1D1D"/>
<path fill-rule="evenodd" clip-rule="evenodd" d="M16.8281 14C16.8281 13.4477 17.2758 13 17.8281 13H21.4843C22.0365 13 22.4843 13.4477 22.4843 14C22.4843 14.5523 22.0365 15 21.4843 15H17.8281C17.2758 15 16.8281 14.5523 16.8281 14Z" fill="#1D1D1D"/>
</svg>
