<svg width="20" height="21" viewBox="0 0 20 21" fill="currentColor" xmlns="http://www.w3.org/2000/svg">
<path d="M10.8333 7.16683C10.8333 6.70659 10.4602 6.3335 9.99998 6.3335C9.53974 6.3335 9.16665 6.70659 9.16665 7.16683V9.66683H6.66665C6.20641 9.66683 5.83331 10.0399 5.83331 10.5002C5.83331 10.9604 6.20641 11.3335 6.66665 11.3335H9.16665V13.8335C9.16665 14.2937 9.53974 14.6668 9.99998 14.6668C10.4602 14.6668 10.8333 14.2937 10.8333 13.8335V11.3335H13.3333C13.7935 11.3335 14.1666 10.9604 14.1666 10.5002C14.1666 10.0399 13.7935 9.66683 13.3333 9.66683H10.8333V7.16683Z" fill="currentColor" />
<path fill-rule="evenodd" clip-rule="evenodd" d="M9.99998 1.3335C4.93724 1.3335 0.833313 5.43743 0.833313 10.5002C0.833313 15.5629 4.93724 19.6668 9.99998 19.6668C15.0627 19.6668 19.1666 15.5629 19.1666 10.5002C19.1666 5.43743 15.0627 1.3335 9.99998 1.3335ZM2.49998 10.5002C2.49998 6.3579 5.85772 3.00016 9.99998 3.00016C14.1422 3.00016 17.5 6.3579 17.5 10.5002C17.5 14.6424 14.1422 18.0002 9.99998 18.0002C5.85772 18.0002 2.49998 14.6424 2.49998 10.5002Z" fill="currentColor" />
</svg>
