<svg width="16" height="16" viewBox="0 0 16 16" fill="none" xmlns="http://www.w3.org/2000/svg">
<g clip-path="url(#clip0_1202_70419)">
<path d="M8.00033 3.66661C8.36852 3.66661 8.66699 3.96509 8.66699 4.33327V8.99994C8.66699 9.36813 8.36852 9.66661 8.00033 9.66661C7.63214 9.66661 7.33366 9.36813 7.33366 8.99994V4.33327C7.33366 3.96509 7.63214 3.66661 8.00033 3.66661Z" fill="#F8B200"/>
<path d="M8.00033 11.9999C8.22134 11.9999 8.4333 11.9121 8.58958 11.7559C8.74586 11.5996 8.83366 11.3876 8.83366 11.1666C8.83366 10.9456 8.74586 10.7336 8.58958 10.5774C8.4333 10.4211 8.22134 10.3333 8.00033 10.3333C7.77931 10.3333 7.56735 10.4211 7.41107 10.5774C7.25479 10.7336 7.16699 10.9456 7.16699 11.1666C7.16699 11.3876 7.25479 11.5996 7.41107 11.7559C7.56735 11.9121 7.77931 11.9999 8.00033 11.9999Z" fill="#F8B200"/>
<path fill-rule="evenodd" clip-rule="evenodd" d="M0.666992 8.00033C0.666992 3.95024 3.95024 0.666992 8.00033 0.666992C12.0504 0.666992 15.3337 3.95024 15.3337 8.00033C15.3337 12.0504 12.0504 15.3337 8.00033 15.3337C3.95024 15.3337 0.666992 12.0504 0.666992 8.00033ZM8.00033 2.00033C4.68662 2.00033 2.00033 4.68662 2.00033 8.00033C2.00033 11.314 4.68662 14.0003 8.00033 14.0003C11.314 14.0003 14.0003 11.314 14.0003 8.00033C14.0003 4.68662 11.314 2.00033 8.00033 2.00033Z" fill="#F8B200"/>
</g>
<defs>
<clipPath id="clip0_1202_70419">
<rect width="16" height="16" fill="white"/>
</clipPath>
</defs>
</svg>
