<svg width="24" height="24" viewBox="0 0 24 24" fill="none" xmlns="http://www.w3.org/2000/svg">
<path fill-rule="evenodd" clip-rule="evenodd" d="M15.5864 16.8885C14.3067 17.9043 12.6877 18.511 10.927 18.511C6.78487 18.511 3.427 15.1531 3.427 11.011C3.427 6.86885 6.78487 3.51099 10.927 3.51099C15.0691 3.51099 18.427 6.86885 18.427 11.011C18.427 12.6857 17.8781 14.2323 16.9503 15.4805L20.573 19.1032L19.1871 20.4892L15.5864 16.8885ZM16.467 11.011C16.467 14.0706 13.9867 16.551 10.927 16.551C7.86734 16.551 5.387 14.0706 5.387 11.011C5.387 7.95133 7.86734 5.47099 10.927 5.47099C13.9867 5.47099 16.467 7.95133 16.467 11.011Z" fill="#737E8D"/>
</svg>
