<svg width="24" height="24" viewBox="0 0 24 24" fill="none" xmlns="http://www.w3.org/2000/svg">
<path d="M10.744 15.9464L7.32439 12.5268L8.59718 11.254L10.744 13.4008L15.7383 8.4065L17.0111 9.6793L10.744 15.9464Z" fill="#01BC8D"/>
<path fill-rule="evenodd" clip-rule="evenodd" d="M21 12C21 16.9706 16.9706 21 12 21C7.02944 21 3 16.9706 3 12C3 7.02944 7.02944 3 12 3C16.9706 3 21 7.02944 21 12ZM4.96097 12C4.96097 15.8876 8.11245 19.039 12 19.039C15.8876 19.039 19.039 15.8876 19.039 12C19.039 8.11245 15.8876 4.96097 12 4.96097C8.11245 4.96097 4.96097 8.11245 4.96097 12Z" fill="#01BC8D"/>
</svg>
