<svg width="20" height="20" viewBox="0 0 20 20" fill="none" xmlns="http://www.w3.org/2000/svg">
<path d="M12.417 6.68551L13.4777 7.74617L11.0613 10.1626L13.4766 12.5778L12.4159 13.6385L10.0006 11.2232L7.58495 13.6389L6.52429 12.5782L8.93995 10.1626L6.5232 7.7458L7.58386 6.68514L10.0006 9.10189L12.417 6.68551Z" fill="#F65454"/>
<path fill-rule="evenodd" clip-rule="evenodd" d="M10 17.5C14.1421 17.5 17.5 14.1421 17.5 10C17.5 5.85786 14.1421 2.5 10 2.5C5.85786 2.5 2.5 5.85786 2.5 10C2.5 14.1421 5.85786 17.5 10 17.5ZM10 15.8659C6.76037 15.8659 4.13414 13.2396 4.13414 10C4.13414 6.76037 6.76037 4.13414 10 4.13414C13.2396 4.13414 15.8659 6.76037 15.8659 10C15.8659 13.2396 13.2396 15.8659 10 15.8659Z" fill="#F65454"/>
</svg>
