<svg width="60" height="42" viewBox="0 0 60 42" fill="none" xmlns="http://www.w3.org/2000/svg">
<rect width="60" height="42" rx="3" fill="white"/>
<rect x="0.5" y="0.5" width="59" height="41" rx="2.5" stroke="#000D1D" stroke-opacity="0.08"/>
<mask id="mask0_174_3851" style="mask-type:alpha" maskUnits="userSpaceOnUse" x="0" y="0" width="60" height="41">
<rect width="60" height="40.9985" rx="3" fill="white"/>
</mask>
<g mask="url(#mask0_174_3851)">
<path d="M3.59961 14.1328C3.59961 9.71454 7.18133 6.13281 11.5996 6.13281H48.3996C52.8179 6.13281 56.3996 9.71453 56.3996 14.1328V47.1995C56.3996 51.6178 52.8179 55.1995 48.3996 55.1995H11.5996C7.18132 55.1995 3.59961 51.6178 3.59961 47.1995V14.1328Z" fill="#EBECED"/>
<path d="M5.7334 14.2666C5.7334 10.9529 8.41969 8.2666 11.7334 8.2666H48.2634C51.5771 8.2666 54.2634 10.9529 54.2634 14.2666V51.3333C54.2634 54.647 51.5771 57.3333 48.2634 57.3333H11.7334C8.41969 57.3333 5.7334 54.647 5.7334 51.3333V14.2666Z" fill="white"/>
<rect opacity="0.16" x="20.1406" y="18.2021" width="20.024" height="17.9053" fill="#C9C9C9"/>
<path d="M26.1169 25.5884C26.1169 23.3736 27.9124 21.5781 30.1273 21.5781C32.3421 21.5781 34.1376 23.3736 34.1376 25.5884V26.8698C34.1376 27.5192 33.6111 28.0457 32.9617 28.0457H27.2929C26.6434 28.0457 26.1169 27.5192 26.1169 26.8698V25.5884Z" fill="#242C36"/>
<path d="M24.2 36.1552C24.2 33.6549 26.2269 31.6279 28.7273 31.6279H31.5775C34.0779 31.6279 36.1048 33.6549 36.1048 36.1552H24.2Z" fill="#01BC8D"/>
<path d="M28.8127 30.2676H31.4913V31.7143C31.4913 32.454 30.8917 33.0536 30.152 33.0536C29.4124 33.0536 28.8127 32.454 28.8127 31.7143V30.2676Z" fill="#FFDED3"/>
<path fill-rule="evenodd" clip-rule="evenodd" d="M26.5808 27.009H27.027C27.2485 26.2663 27.9256 25.7528 28.7005 25.7399L29.7657 25.722C30.559 25.7088 31.2498 25.2669 31.6129 24.6152L31.6707 24.9188C31.7428 25.2982 32.0294 25.6007 32.4043 25.6931C32.7584 25.7804 33.0355 26.0557 33.1251 26.4092L33.2771 27.009H33.5748L33.5748 27.3026L33.643 27.2352V27.4313C33.643 29.3815 32.0621 30.9624 30.1119 30.9624C28.1617 30.9624 26.5808 29.3815 26.5808 27.4313V27.009Z" fill="#FFEAE3"/>
<path d="M26.8789 27.0078H26.6465C26.2817 27.0078 25.986 27.3035 25.986 27.6683C25.986 28.033 26.2817 28.3287 26.6465 28.3287H26.8789V27.0078Z" fill="#FFEAE3"/>
<path d="M33.2773 27.0078H33.5098C33.8745 27.0078 34.1702 27.3035 34.1702 27.6683C34.1702 28.033 33.8745 28.3287 33.5098 28.3287H33.2773V27.0078Z" fill="#FFEAE3"/>
<path d="M23.489 18.1543H21.8369C20.9001 18.1543 20.1406 18.9138 20.1406 19.8506V22.1437M36.8162 18.1543H38.4683C39.4051 18.1543 40.1646 18.9138 40.1646 19.8506V22.1437M20.1406 32.1174V34.4105C20.1406 35.3474 20.9001 36.1068 21.8369 36.1068H23.489M40.1646 32.1174V34.4105C40.1646 35.3474 39.4051 36.1068 38.4683 36.1068H36.8162" stroke="#01BC8D" stroke-width="1.27224" stroke-linecap="round"/>
</g>
<circle cx="11.7402" cy="11.8359" r="1.5" fill="#EBECED"/>
<circle cx="15.9402" cy="11.8359" r="1.5" fill="#EBECED"/>
<circle cx="20.1401" cy="11.8359" r="1.5" fill="#EBECED"/>
</svg>
