<svg width="220" height="120" viewBox="0 0 220 120" fill="none" xmlns="http://www.w3.org/2000/svg">
<path opacity="0.3" d="M59.4531 109.783C79.5856 109.783 95.9062 100.165 95.9062 88.3016C95.9062 76.4378 79.5856 66.8203 59.4531 66.8203C39.3206 66.8203 23 76.4378 23 88.3016C23 100.165 39.3206 109.783 59.4531 109.783Z" fill="#12192D"/>
<path d="M60.0931 96.651C80.3722 96.651 96.8116 86.9536 96.8116 74.9913C96.8116 63.0289 80.3722 53.3315 60.0931 53.3315C39.814 53.3315 23.3745 63.0289 23.3745 74.9913C23.3745 86.9536 39.814 96.651 60.0931 96.651Z" fill="#FFE691" stroke="#11192F" stroke-width="0.3" stroke-miterlimit="10" stroke-linecap="round" stroke-linejoin="round"/>
<path d="M60.0931 96.671C39.8143 96.671 23.3936 86.968 23.3936 75.0112V85.7265C23.3936 97.6833 39.8333 107.386 60.0931 107.386C80.3719 107.386 96.8116 97.6833 96.8116 85.7265V75.0112C96.8116 86.968 80.3719 96.671 60.0931 96.671Z" fill="#FF9B46" stroke="#11192F" stroke-width="0.3" stroke-miterlimit="10" stroke-linecap="round" stroke-linejoin="round"/>
<path d="M60.0931 90.3682C74.4837 90.3682 86.1496 83.4842 86.1496 74.9924C86.1496 66.5006 74.4837 59.6167 60.0931 59.6167C45.7025 59.6167 34.0366 66.5006 34.0366 74.9924C34.0366 83.4842 45.7025 90.3682 60.0931 90.3682Z" fill="#FFC33C" stroke="#11192F" stroke-width="0.3" stroke-miterlimit="10" stroke-linecap="round" stroke-linejoin="round"/>
<path d="M60.0931 62.4053C73.682 62.4053 84.8382 68.5556 86.0355 76.3867C86.1116 75.9283 86.1496 75.4699 86.1496 74.9924C86.1496 66.4928 74.4802 59.6167 60.0931 59.6167C45.706 59.6167 34.0366 66.4928 34.0366 74.9924C34.0366 75.4699 34.0936 75.9283 34.1506 76.3867C35.348 68.5556 46.5042 62.4053 60.0931 62.4053Z" fill="#FF9B46" stroke="#11192F" stroke-width="0.3" stroke-miterlimit="10" stroke-linecap="round" stroke-linejoin="round"/>
<path d="M60.0928 99.8779V104.405" stroke="#11192F" stroke-width="0.3" stroke-miterlimit="10" stroke-linecap="round" stroke-linejoin="round"/>
<path d="M66.7446 99.707V104.234" stroke="#11192F" stroke-width="0.3" stroke-miterlimit="10" stroke-linecap="round" stroke-linejoin="round"/>
<path d="M73.2258 98.1787V102.705" stroke="#11192F" stroke-width="0.3" stroke-miterlimit="10" stroke-linecap="round" stroke-linejoin="round"/>
<path d="M78.9082 96.6699V101.197" stroke="#11192F" stroke-width="0.3" stroke-miterlimit="10" stroke-linecap="round" stroke-linejoin="round"/>
<path d="M84.7808 93.938V98.4647" stroke="#11192F" stroke-width="0.3" stroke-miterlimit="10" stroke-linecap="round" stroke-linejoin="round"/>
<path d="M89.2854 90.6538V95.1806" stroke="#11192F" stroke-width="0.3" stroke-miterlimit="10" stroke-linecap="round" stroke-linejoin="round"/>
<path d="M93.6565 86.126V90.6527" stroke="#11192F" stroke-width="0.3" stroke-miterlimit="10" stroke-linecap="round" stroke-linejoin="round"/>
<path d="M53.4409 99.6313V104.158" stroke="#11192F" stroke-width="0.3" stroke-miterlimit="10" stroke-linecap="round" stroke-linejoin="round"/>
<path d="M46.9602 98.083V102.61" stroke="#11192F" stroke-width="0.3" stroke-miterlimit="10" stroke-linecap="round" stroke-linejoin="round"/>
<path d="M41.2776 96.5752V101.102" stroke="#11192F" stroke-width="0.3" stroke-miterlimit="10" stroke-linecap="round" stroke-linejoin="round"/>
<path d="M35.4048 93.8618V98.3886" stroke="#11192F" stroke-width="0.3" stroke-miterlimit="10" stroke-linecap="round" stroke-linejoin="round"/>
<path d="M30.9006 90.5771V95.1039" stroke="#11192F" stroke-width="0.3" stroke-miterlimit="10" stroke-linecap="round" stroke-linejoin="round"/>
<path d="M26.5293 86.0503V90.5771" stroke="#11192F" stroke-width="0.3" stroke-miterlimit="10" stroke-linecap="round" stroke-linejoin="round"/>
<path d="M44.8697 71.9337L39.8333 69.4507V70.9978L43.4443 72.7741C44.0525 72.4112 44.5656 72.1247 44.8697 71.9337Z" fill="#FF9B46" stroke="#11192F" stroke-width="0.3" stroke-miterlimit="10" stroke-linecap="round" stroke-linejoin="round"/>
<path d="M53.3271 72.3156C53.5362 72.201 53.7833 72.0673 54.0683 71.9336C54.5625 71.7044 54.9806 71.5134 55.3607 71.3606C55.7218 71.2078 56.1779 71.0741 56.6911 70.9404C57.2232 70.8067 57.6984 70.7303 58.1355 70.7112C58.5726 70.6921 59.0287 70.7112 59.5229 70.7876C59.77 70.8258 59.998 70.8831 60.2451 70.9595C60.2641 70.9595 60.2831 70.9786 60.3021 70.9786C60.5302 71.055 60.7392 71.1314 60.9483 71.246C61.3094 71.437 61.5945 71.628 61.8036 71.8381C61.8416 71.7617 61.8986 71.6853 61.9366 71.628C62.0316 71.4179 62.0696 71.2078 62.0886 70.9786C62.0886 70.9022 62.0696 70.8258 62.0506 70.7303C62.0506 70.6921 62.0506 70.6539 62.0316 70.6348C61.9936 70.5202 61.9176 70.4247 61.8226 70.3101C61.7275 70.1955 61.5945 70.1 61.4615 70.0045C61.3284 69.909 61.1574 69.8135 60.9673 69.718C60.7583 69.6225 60.5492 69.527 60.3211 69.4506C60.3021 69.4506 60.2831 69.4315 60.2831 69.4315C60.055 69.3551 59.827 69.2977 59.5799 69.2595C59.0858 69.1831 58.6296 69.1641 58.1925 69.1832C57.7364 69.2023 57.2802 69.2787 56.7481 69.4124C56.2349 69.5461 55.7788 69.6798 55.4177 69.8326C55.0376 69.9663 54.6195 70.1764 54.1253 70.4056C53.8213 70.5584 53.5932 70.673 53.3841 70.7876C53.2511 70.864 53.1181 70.9404 53.004 70.9977C52.871 71.0741 52.7379 71.1696 52.5669 71.2651C52.3959 71.3606 52.2248 71.4752 52.0348 71.5898C51.9397 71.6471 51.8827 71.6853 51.8067 71.7235C51.5786 71.8572 51.3886 71.9718 51.3315 72.01L52.7379 72.6976C52.833 72.6403 52.928 72.583 53.004 72.5448C53.061 72.4684 53.1941 72.392 53.3271 72.3156Z" fill="#FF9B46" stroke="#11192F" stroke-width="0.3" stroke-miterlimit="10" stroke-linecap="round" stroke-linejoin="round"/>
<path d="M62.9629 76.614C63.02 76.5758 63.077 76.5567 63.153 76.5185C63.362 76.4039 63.5711 76.3084 63.8372 76.1747C64.4073 75.8882 64.9205 75.659 65.3766 75.4871C65.8328 75.3152 66.3459 75.1433 66.9541 74.9714C67.5623 74.7995 68.1134 74.704 68.6075 74.6658C68.8546 74.6467 69.1017 74.6467 69.3678 74.6467C69.3868 74.6467 69.4058 74.6467 69.4248 74.6467C69.6719 74.6658 69.9379 74.6849 70.204 74.7231C70.4891 74.7613 70.7552 74.8186 71.0022 74.895C71.2683 74.9714 71.5154 75.0669 71.7434 75.2006C72.1236 75.3916 72.3896 75.5826 72.5797 75.7927C72.6177 75.8309 72.6177 75.85 72.6557 75.8882C72.7127 75.7927 72.7697 75.7163 72.8268 75.6208C72.9408 75.3534 72.9978 75.1242 72.9408 74.9141C72.9028 74.6849 72.7888 74.4748 72.5797 74.2647C72.4847 74.1501 72.3706 74.0546 72.2376 73.9591C72.1046 73.8636 71.9335 73.7681 71.7434 73.6726C71.4964 73.558 71.2493 73.4625 71.0022 73.367C70.7362 73.2905 70.4701 73.2333 70.204 73.1951C69.9379 73.1569 69.6719 73.1378 69.4248 73.1187C69.4058 73.1187 69.3868 73.1187 69.3678 73.1187C69.1017 73.1187 68.8546 73.1187 68.6075 73.1378C68.0944 73.176 67.5432 73.2715 66.9541 73.4434C66.3459 73.6153 65.8328 73.7872 65.3766 73.9591C64.9205 74.131 64.4073 74.3602 63.8372 74.6467C63.5711 74.7804 63.362 74.895 63.153 74.9905C63.096 75.0287 63.0389 75.0478 62.9819 75.086C62.8109 75.1815 62.6398 75.277 62.5068 75.3534C62.3548 75.4489 62.1837 75.5444 61.9937 75.659C61.8036 75.7736 61.5945 75.9073 61.3665 76.041C61.0434 76.232 60.8533 76.3466 60.7013 76.4421C60.6253 76.4803 60.5492 76.5376 60.5112 76.5567L61.9176 77.2443C62.1457 77.1106 62.3357 76.996 62.5258 76.8814C62.6208 76.7859 62.7919 76.7095 62.9629 76.614Z" fill="#FF9B46" stroke="#11192F" stroke-width="0.3" stroke-miterlimit="10" stroke-linecap="round" stroke-linejoin="round"/>
<path d="M80.2768 74.6274C80.1818 74.8948 80.0297 75.1622 79.8397 75.4487C79.7066 75.6588 79.5166 75.8498 79.3455 76.0408C79.2695 76.1363 79.2125 76.2127 79.1175 76.3082C78.9654 76.4801 78.7754 76.6329 78.6043 76.7857C78.5093 76.8812 78.4143 76.9767 78.3002 77.0722C78.0912 77.2441 77.8441 77.4351 77.5971 77.607C77.559 77.6452 77.521 77.6643 77.464 77.7025C77.0079 78.0463 76.4947 78.3901 75.9246 78.7721L77.2359 79.4215C77.312 79.3642 77.388 79.3069 77.464 79.2496C77.616 79.135 77.7871 79.0204 77.9391 78.9058C78.0532 78.8103 78.1672 78.7148 78.2812 78.6193C78.5663 78.3901 78.8324 78.1418 79.0795 77.8935C79.0985 77.8744 79.0985 77.8744 79.1175 77.8553C79.1935 77.7598 79.2695 77.6834 79.3455 77.5879C79.4786 77.4351 79.6306 77.2823 79.7446 77.1295C79.7827 77.0913 79.8207 77.034 79.8397 76.9958C79.9347 76.8621 80.0107 76.7284 80.0868 76.5947C80.1628 76.461 80.2198 76.3082 80.2768 76.1745C80.2768 76.1745 80.2768 76.1745 80.2768 76.1554C80.3338 76.0217 80.3528 75.9071 80.3908 75.7734C80.4098 75.6397 80.4288 75.506 80.4288 75.3914V73.8442C80.4288 73.9779 80.3718 74.1307 80.3338 74.2836C80.3148 74.3982 80.3148 74.5128 80.2768 74.6274Z" fill="#FF9B46" stroke="#11192F" stroke-width="0.3" stroke-miterlimit="10" stroke-linecap="round" stroke-linejoin="round"/>
<path d="M61.6517 82.5538C61.6327 82.5156 61.6327 82.4965 61.6137 82.4583C61.5567 82.3628 61.4427 82.2864 61.3287 82.1909C61.3096 82.1909 61.3096 82.1718 61.2906 82.1718L47.4927 75.3721C47.2266 75.2766 46.9605 75.2193 46.7135 75.1811C46.4664 75.1429 46.2003 75.1429 45.9722 75.162H45.9532C45.7632 75.1811 45.5541 75.2384 45.3641 75.2766C45.155 75.3339 44.965 75.4103 44.7749 75.5058C44.6989 75.544 44.6038 75.5631 44.5278 75.6204L43.0454 76.4799L42.4942 76.8046L39.2063 75.1811V76.7282L42.4942 78.3517L44.5468 77.1675C44.6229 77.1102 44.7179 77.0911 44.8129 77.0529C45.003 76.9574 45.193 76.881 45.4021 76.8237C45.5921 76.7664 45.7822 76.7282 45.9912 76.7091H46.0102C46.2573 76.69 46.5044 76.69 46.7705 76.7282C47.0365 76.7664 47.2836 76.8237 47.5497 76.9192L60.9295 83.5279L61.3096 83.2987C61.6707 83.0504 61.7848 82.8212 61.6517 82.5538Z" fill="#FF9B46" stroke="#11192F" stroke-width="0.3" stroke-miterlimit="10" stroke-linecap="round" stroke-linejoin="round"/>
<path d="M80.4099 81.6178L78.1672 82.9166L76.5138 82.0953L73.1498 80.4336C72.6556 80.7201 72.2185 80.9684 71.8384 81.1785C71.4583 81.3886 71.1352 81.5796 70.8691 81.7133L72.3326 82.4391C72.5986 82.2863 72.8267 82.1526 73.1308 81.9807L78.1482 84.4447L80.9801 82.802V81.2549L80.4099 81.6178Z" fill="#FF9B46" stroke="#11192F" stroke-width="0.3" stroke-miterlimit="10" stroke-linecap="round" stroke-linejoin="round"/>
<path d="M73.0929 85.8582L71.4015 85.0177L67.9995 83.3369C67.9235 83.3751 67.8284 83.4324 67.7334 83.4897C67.6004 83.5661 67.4483 83.6425 67.2773 83.7571C67.1822 83.8144 67.1252 83.8526 67.0112 83.9099C66.9162 83.9672 66.8401 84.0054 66.7451 84.0627C66.422 84.2346 66.1559 84.3874 65.9659 84.502L65.1867 84.9413L62.2788 86.6222L59.2 84.4829V86.0301L62.2788 88.1693L65.9659 86.0492C66.194 85.9154 66.5551 85.7245 66.9922 85.4762C67.4483 85.2278 67.7714 85.0368 67.9805 84.9222L73.0739 87.4435L75.9057 85.8009V84.2537L73.0929 85.8582Z" fill="#FF9B46" stroke="#11192F" stroke-width="0.3" stroke-miterlimit="10" stroke-linecap="round" stroke-linejoin="round"/>
<path d="M72.8457 69.0697C74.5562 69.1652 76.2476 69.7 77.9391 70.7123C78.8134 71.228 79.4406 71.7437 79.8397 72.2976C80.2578 72.8324 80.4479 73.3672 80.4288 73.8638C80.4288 74.3605 80.2198 74.9144 79.8207 75.4683C79.4216 76.0222 78.9084 76.5761 78.2812 77.0918C77.635 77.6075 76.8558 78.1805 75.9055 78.7917L80.999 81.313L78.1672 82.9556L73.1498 80.4916C72.1615 81.0647 71.4013 81.4849 70.8881 81.7714L75.9246 84.2544L73.0927 85.897L67.9993 83.3758C67.7712 83.5095 67.4671 83.6814 67.011 83.9297C66.5739 84.178 66.2128 84.369 65.9847 84.5027L62.2976 86.6228L59.2188 84.4836L61.2714 83.2994C61.8795 82.9556 61.8985 82.5736 61.3094 82.1916L47.5114 75.3919C46.4471 75.029 45.4398 75.1245 44.5275 75.6593L42.4749 76.8435L39.187 75.22L43.1021 72.9852C43.8814 72.5268 44.4895 72.183 44.8506 71.9538L39.8142 69.4708L42.646 67.8281L47.5874 70.273C48.5757 69.6809 49.2979 69.2416 49.7921 68.9551L44.8886 66.5293L47.7205 64.8867L52.7569 67.3697C53.8212 66.854 54.8285 66.4338 55.7788 66.1091C56.729 65.7844 57.7173 65.5361 58.7626 65.3451C59.7699 65.1732 60.8152 65.135 61.8415 65.2496C62.8488 65.3451 63.8371 65.5934 64.7874 65.9945C67.4291 67.0641 68.3604 68.363 67.5431 69.9292C69.3677 69.2798 71.1162 68.9933 72.8457 69.0697ZM72.5986 74.2458C72.4276 74.0357 72.1425 73.8256 71.7624 73.6537C71.2872 73.4245 70.7551 73.2526 70.2039 73.1762C69.6528 73.0998 69.1016 73.0807 68.6074 73.1189C68.0943 73.1571 67.5432 73.2526 66.954 73.4245C66.3458 73.5964 65.8327 73.7683 65.3765 73.9403C64.9204 74.1122 64.4073 74.3414 63.8371 74.6279C63.2669 74.9144 62.8108 75.1627 62.5067 75.3346C62.2026 75.5065 61.8035 75.7548 61.3474 76.0222C60.8722 76.3087 60.5681 76.4806 60.4921 76.5379L67.2581 79.8804C67.3531 79.8231 67.5812 79.6894 67.9233 79.4984C68.2844 79.3074 68.5884 79.1355 68.8165 79.0018C69.0446 78.8681 69.3487 78.6771 69.7668 78.4288C70.1659 78.1805 70.489 77.9513 70.7551 77.7603C71.0212 77.5693 71.3252 77.3401 71.6293 77.0727C71.9524 76.8053 72.1995 76.557 72.3895 76.3469C72.5606 76.1368 72.6936 75.8885 72.8457 75.6402C72.9597 75.3728 73.0167 75.1436 72.9597 74.9335C72.9027 74.6661 72.7887 74.456 72.5986 74.2458ZM51.2745 71.992L57.3942 75.0099C57.4513 74.9717 57.6793 74.8571 58.0404 74.647C58.2305 74.5514 58.4015 74.4559 58.5346 74.3795C58.6676 74.3031 58.8006 74.2267 58.8957 74.1694C59.1047 74.0548 59.3898 73.8639 59.7889 73.6155C60.169 73.3672 60.4731 73.1571 60.6822 72.9852C60.8912 72.7942 61.1383 72.5841 61.4044 72.3167C61.6705 72.0684 61.8415 71.8392 61.9175 71.6291C62.0126 71.419 62.0506 71.2089 62.0696 70.9797C62.0696 70.7505 61.9936 70.5213 61.8035 70.3112C61.5944 70.1011 61.3284 69.891 60.9483 69.7191C60.5111 69.509 60.036 69.3562 59.5419 69.2798C59.0477 69.2034 58.5916 69.1843 58.1544 69.2034C57.6983 69.2225 57.2422 69.2989 56.71 69.4326C56.1969 69.5663 55.7408 69.7 55.3797 69.8528C54.9995 69.9865 54.5814 70.1966 54.0873 70.4258C53.5931 70.6741 53.232 70.8651 52.966 71.0179C52.7189 71.1707 52.3768 71.3617 51.9967 71.61C51.5786 71.801 51.3505 71.9347 51.2745 71.992Z" fill="#FFE691" stroke="#11192F" stroke-width="0.3" stroke-miterlimit="10" stroke-linecap="round" stroke-linejoin="round"/>
<path d="M49.8302 68.9165L44.9268 66.4907V68.0378L48.4048 69.7569C48.9749 69.4322 49.4881 69.1266 49.8302 68.9165Z" fill="#FF9B46" stroke="#11192F" stroke-width="0.3" stroke-miterlimit="10" stroke-linecap="round" stroke-linejoin="round"/>
<g opacity="0.5">
<path opacity="0.3" d="M117.81 93.7746L152.917 113.471C153.485 113.789 154.034 114.148 154.592 114.498C155.512 115.083 157.705 116.007 160.507 114.148L196.204 93.7233C196.204 93.7233 199.616 92.0802 198.075 89.5643L196.421 87.8186C196.421 87.8186 197.744 79.7368 196.09 80.6097L160.941 100.86C160.352 101.199 159.7 101.425 159.028 101.456C157.539 101.517 155.554 111.016 157.053 105.759C157.053 105.759 158.191 101.815 162.927 99.8539L196.855 80.3221C197.548 79.9217 198.117 79.3261 198.375 78.5764C198.654 77.7857 198.623 76.7691 197.413 75.8962L158.315 53.6945C157.394 53.1708 156.247 53.181 155.378 53.7664C155.368 53.7766 155.347 53.7869 155.337 53.7972L119.195 75.2492C117.261 76.3994 115.576 77.9397 114.387 79.8395C113.094 81.9241 112.091 84.7789 113.063 88.0445C113.787 90.4885 115.566 92.5115 117.81 93.7746Z" fill="#12192D"/>
</g>
<path d="M117.81 90.4104L152.917 110.106C153.486 110.425 154.034 110.784 154.592 111.133C155.513 111.719 157.705 112.643 160.507 110.784L196.204 90.359C196.204 90.359 199.616 88.716 198.076 86.2L196.421 84.4543C196.421 84.4543 197.745 86.6416 196.09 87.5145L160.941 107.765C160.352 108.104 159.701 108.33 159.028 108.361C157.539 108.422 155.554 107.652 157.053 102.394C157.053 102.394 158.191 98.451 162.927 96.4896L196.855 76.9579C197.548 76.5574 198.117 75.9618 198.375 75.2122C198.655 74.4214 198.624 73.4048 197.414 72.5319L158.315 50.32C157.395 49.7963 156.247 49.8065 155.378 50.3919C155.368 50.4021 155.347 50.4124 155.337 50.4227L119.195 71.8747C117.262 73.0248 115.576 74.5652 114.387 76.465C113.094 78.5496 112.091 81.4044 113.063 84.67C113.787 87.1345 115.566 89.1473 117.81 90.4104Z" fill="#6EFFDC" stroke="#11192F" stroke-width="0.3" stroke-miterlimit="10" stroke-linecap="round" stroke-linejoin="round"/>
<path d="M198.407 73.7329L159.928 95.6163C157.291 97.1156 155.171 99.4569 154.199 102.322C153.775 103.575 153.517 105.023 153.569 106.666C153.569 106.666 153.569 110.989 157.095 111.893" stroke="#11192F" stroke-width="0.3" stroke-miterlimit="10" stroke-linecap="round" stroke-linejoin="round"/>
<path d="M194.146 78.5186L197.807 81.9587C198.489 82.6056 198.251 83.7352 197.372 84.0536L162.937 96.4894L194.146 78.5186Z" fill="#14B491" stroke="#11192F" stroke-width="0.3" stroke-miterlimit="10" stroke-linejoin="round"/>
<path d="M178.19 90.9747L161.903 100.628C160.993 101.172 160.3 102.024 159.969 103.02L159.949 103.082C159.525 104.355 160.9 105.485 162.079 104.828L192.047 88.2123C192.719 87.8426 192.895 86.9492 192.409 86.3536L192.078 85.9531L178.19 90.9747Z" fill="#6EFFDC" stroke="#11192F" stroke-width="0.3" stroke-miterlimit="10" stroke-linecap="round" stroke-linejoin="round"/>
<path d="M187.807 87.5039L162.275 102.723" stroke="#11192F" stroke-width="0.3" stroke-miterlimit="10" stroke-linecap="round" stroke-linejoin="round"/>
<path d="M157.053 102.394C157.053 102.394 159.483 106.265 162.079 104.827" stroke="#11192F" stroke-width="0.3" stroke-miterlimit="10" stroke-linecap="round" stroke-linejoin="round"/>
<path d="M149.629 108.257C148.253 105.166 148.719 102.199 149.732 99.7854C150.973 96.828 153.206 94.4045 155.957 92.7409L185.17 75.0165C186.121 74.4414 186.101 73.0551 185.129 72.5109L157.012 56.5836C156.143 56.0906 155.068 56.0906 154.199 56.5836L125.265 73.0654C117.779 77.4297 116.807 84.5051 116.817 87.9042C116.817 89.0646 117.437 90.1325 118.451 90.6973L149.629 108.257Z" fill="#46E6C3" stroke="#11192F" stroke-width="0.3" stroke-miterlimit="10" stroke-linecap="round" stroke-linejoin="round"/>
<path d="M147.622 46.6327L139.226 40.3892" stroke="#11192F" stroke-width="0.3" stroke-miterlimit="10" stroke-linecap="round" stroke-linejoin="round"/>
<path d="M152.731 44.2198L142.938 26.6187" stroke="#11192F" stroke-width="0.3" stroke-miterlimit="10" stroke-linecap="round" stroke-linejoin="round"/>
<path d="M158.904 32.7085L159.845 28.7241" stroke="#11192F" stroke-width="0.3" stroke-miterlimit="10" stroke-linecap="round" stroke-linejoin="round"/>
<path d="M156.505 42.8331L158.563 34.1455" stroke="#11192F" stroke-width="0.3" stroke-miterlimit="10" stroke-linecap="round" stroke-linejoin="round"/>
<path d="M153.506 106.666C153.455 105.023 153.713 103.575 154.137 102.322C155.109 99.4569 157.229 97.1155 159.866 95.6163L198.334 73.7432C198.52 74.2566 198.468 74.7701 198.324 75.2116C198.065 75.9613 197.496 76.5672 196.803 76.9574L162.875 96.4891C158.139 98.4608 157.002 102.394 157.002 102.394C155.502 107.641 157.488 108.422 158.977 108.36C159.649 108.329 160.311 108.103 160.89 107.765L196.038 87.514C197.693 86.6411 196.369 84.4538 196.369 84.4538L198.024 86.1995C199.564 88.7155 196.152 90.3585 196.152 90.3585L160.455 110.784C159.152 111.646 157.994 111.903 157.022 111.882C153.506 110.969 153.506 106.666 153.506 106.666Z" fill="#32CDA0" stroke="#11192F" stroke-width="0.3" stroke-miterlimit="10" stroke-linejoin="round"/>
<path d="M71.5032 46.6327L79.8896 40.3892" stroke="#11192F" stroke-width="0.3" stroke-miterlimit="10" stroke-linecap="round" stroke-linejoin="round"/>
<path d="M66.3845 44.2198L76.1773 26.6187" stroke="#11192F" stroke-width="0.3" stroke-miterlimit="10" stroke-linecap="round" stroke-linejoin="round"/>
<path d="M60.211 32.7085L59.27 28.7241" stroke="#11192F" stroke-width="0.3" stroke-miterlimit="10" stroke-linecap="round" stroke-linejoin="round"/>
<path d="M62.6101 42.8331L60.5522 34.1455" stroke="#11192F" stroke-width="0.3" stroke-miterlimit="10" stroke-linecap="round" stroke-linejoin="round"/>
<path d="M80.9548 52.9483C87.8005 44.6611 98.2034 39.3726 109.837 39.3726C119.371 39.3726 128.068 42.9154 134.665 48.7585" stroke="#11192F" stroke-width="0.3" stroke-miterlimit="10" stroke-linecap="round" stroke-linejoin="round"/>
<path d="M87.8625 54.9607C93.457 49.323 101.244 45.8213 109.847 45.8213C119.113 45.8213 127.427 49.8776 133.083 56.306" stroke="#11192F" stroke-width="0.3" stroke-miterlimit="10" stroke-linecap="round" stroke-linejoin="round"/>
<path d="M130.167 48.7684H134.676L134.014 44.5786" stroke="#11192F" stroke-width="0.3" stroke-miterlimit="10" stroke-linecap="round" stroke-linejoin="round"/>
<path d="M92.3505 54.9613H87.8315L88.5037 50.7715" stroke="#11192F" stroke-width="0.3" stroke-miterlimit="10" stroke-linecap="round" stroke-linejoin="round"/>
<path d="M134.675 108.278C128.078 114.121 119.381 117.664 109.847 117.664C99.8991 117.664 90.8715 113.803 84.1707 107.518" stroke="#11192F" stroke-width="0.3" stroke-miterlimit="10" stroke-linecap="round" stroke-linejoin="round"/>
<path d="M129.288 104.366C123.983 108.648 117.21 111.215 109.837 111.215C102.246 111.215 95.2871 108.494 89.9202 103.976" stroke="#11192F" stroke-width="0.3" stroke-miterlimit="10" stroke-linecap="round" stroke-linejoin="round"/>
<path d="M130.167 108.278H134.675L134.014 112.468" stroke="#11192F" stroke-width="0.3" stroke-miterlimit="10" stroke-linecap="round" stroke-linejoin="round"/>
<path d="M94.2633 103.832H89.7546L90.4165 108.021" stroke="#11192F" stroke-width="0.3" stroke-miterlimit="10" stroke-linecap="round" stroke-linejoin="round"/>
<path d="M112.339 17.5001L112.101 17.6234C108.854 19.2972 106.228 21.9569 104.584 25.2019C102.877 21.9466 100.209 19.2869 96.952 17.5617L96.8279 17.5001L97.0554 17.3769C100.261 15.6312 102.877 13.0023 104.584 9.79834C106.228 13.0228 108.834 15.662 112.05 17.3461L112.339 17.5001Z" fill="#FFC33C" stroke="#11192F" stroke-width="0.3" stroke-miterlimit="10" stroke-linecap="round" stroke-linejoin="round"/>
<path d="M124.107 7.07681L123.983 7.13843C122.266 8.03184 120.87 9.42843 120.002 11.1536C119.092 9.42843 117.685 8.02157 115.959 7.10762L115.896 7.07681L116.021 7.0152C117.716 6.09099 119.102 4.69439 120.012 3C120.881 4.70466 122.266 6.10125 123.973 7.00493L124.107 7.07681Z" fill="#FFE691" stroke="#11192F" stroke-width="0.3" stroke-miterlimit="10" stroke-linecap="round" stroke-linejoin="round"/>
<path d="M116.631 30.2953L116.548 30.3364C115.462 30.8909 114.593 31.7843 114.045 32.8625C113.477 31.774 112.587 30.8909 111.502 30.3158L111.46 30.2953L111.533 30.2542C112.598 29.6689 113.477 28.796 114.045 27.728C114.593 28.8063 115.462 29.6791 116.538 30.2439L116.631 30.2953Z" fill="#FF9B46" stroke="#11192F" stroke-width="0.3" stroke-miterlimit="10" stroke-linecap="round" stroke-linejoin="round"/>
<path d="M129.03 66.0415V65.9799C129.03 64.3368 129.888 62.8067 131.305 61.9544L138.367 57.6825C138.367 57.6825 140.467 56.1832 143.103 57.6825L157.115 66.1236C157.808 66.5344 158.398 67.1197 158.749 67.8386C159.225 68.8141 159.39 70.1696 157.756 71.4327C157.756 71.4327 155.109 73.733 152.576 73.733C152.576 73.733 150.156 73.8459 147.84 72.2029L134.624 64.5525C134.624 64.5525 133.073 63.6488 131.542 64.5525L129.03 66.0415Z" fill="#14B491" stroke="#11192F" stroke-width="0.3" stroke-miterlimit="10" stroke-linecap="round" stroke-linejoin="round"/>
<path d="M151.883 70.7755C154.042 70.7755 155.792 69.7226 155.792 68.4239C155.792 67.1251 154.042 66.0723 151.883 66.0723C149.724 66.0723 147.974 67.1251 147.974 68.4239C147.974 69.7226 149.724 70.7755 151.883 70.7755Z" fill="#6EFFDC" stroke="#11192F" stroke-width="0.3" stroke-miterlimit="10" stroke-linecap="round" stroke-linejoin="round"/>
<path d="M157.053 102.394C157.053 102.394 159.483 106.266 162.079 104.828C160.321 105.434 159.928 103.976 159.928 103.976C159.525 102.014 161.893 100.628 161.893 100.628L178.18 90.9751L162.865 96.4896C162.875 96.4896 158.273 98.2969 157.053 102.394Z" fill="#007B60"/>
<path d="M157.053 102.394C157.053 102.394 159.432 106.296 162.079 104.828L192.047 88.2126C192.047 88.2126 193.474 87.35 192.078 85.9534L196.369 84.4438C196.369 84.4438 197.476 86.128 196.369 87.3294L160.89 107.765C160.89 107.765 158.522 109.285 156.96 107.508C156.96 107.518 155.761 106.132 157.053 102.394Z" fill="#50F5BE" stroke="#11192F" stroke-width="0.3" stroke-miterlimit="10" stroke-linejoin="round"/>
</svg>
