<svg width="24" height="24" viewBox="0 0 24 24" fill="none" xmlns="http://www.w3.org/2000/svg">
<path fill-rule="evenodd" clip-rule="evenodd" d="M11.7698 4.70902C7.74351 4.70902 4.47953 7.973 4.47953 11.9993C4.47953 16.0256 7.74351 19.2896 11.7698 19.2896C13.7832 19.2896 15.6045 18.4747 16.9248 17.1543L17.6177 16.4613L19.0037 17.8472L18.3107 18.5402C16.6379 20.2131 14.3239 21.2496 11.7698 21.2496C6.66103 21.2496 2.51953 17.1081 2.51953 11.9993C2.51953 6.89052 6.66103 2.74902 11.7698 2.74902C14.3239 2.74902 16.6379 3.78547 18.3107 5.45838C18.7111 5.85871 19.3321 6.53392 19.8405 7.09451L19.5195 8.7214L19.0385 9.13261C18.8719 8.94652 18.642 8.69062 18.3887 8.41125C17.8764 7.84641 17.2862 7.20576 16.9248 6.8443C15.6045 5.52395 13.7832 4.70902 11.7698 4.70902Z" fill="#737E8D"/>
<path fill-rule="evenodd" clip-rule="evenodd" d="M21.4795 4.58626V9.7014C21.4795 10.2426 21.0407 10.6814 20.4995 10.6814H15.3844V8.7214H19.5195V4.58626H21.4795Z" fill="#737E8D"/>
</svg>
