<svg width="20" height="20" viewBox="0 0 20 20" fill="none" xmlns="http://www.w3.org/2000/svg">
<path d="M10.6875 11.5546H9.32386L9.0625 6.25H10.9375L10.6875 11.5546Z" fill="#FBA629"/>
<path d="M10.8352 13.75H9.17614V12.2794H10.8352V13.75Z" fill="#FBA629"/>
<path fill-rule="evenodd" clip-rule="evenodd" d="M17.5 10C17.5 14.1421 14.1421 17.5 10 17.5C5.85786 17.5 2.5 14.1421 2.5 10C2.5 5.85786 5.85786 2.5 10 2.5C14.1421 2.5 17.5 5.85786 17.5 10ZM4.13414 10C4.13414 13.2396 6.76037 15.8659 10 15.8659C13.2396 15.8659 15.8659 13.2396 15.8659 10C15.8659 6.76037 13.2396 4.13414 10 4.13414C6.76037 4.13414 4.13414 6.76037 4.13414 10Z" fill="#FBA629"/>
</svg>
