<svg width="20" height="20" viewBox="0 0 20 20" fill="none" xmlns="http://www.w3.org/2000/svg">
<path fill-rule="evenodd" clip-rule="evenodd" d="M14.5244 12.7508C15.4705 11.8056 16.9675 11.747 17.9824 12.5741L18.1787 12.7508L18.3555 12.9471C19.1843 13.9619 19.1256 15.4602 18.1787 16.4061C17.4148 17.169 16.292 17.3529 15.3535 16.9608C13.9297 18.2255 12.0583 19.0008 10 19.0008C8.98564 19.0008 8.01825 18.8098 7.12695 18.4686L6.75 18.3133L6.68164 18.2791C6.35097 18.0915 6.20956 17.6794 6.36621 17.3241C6.52294 16.969 6.92183 16.7967 7.2832 16.9139L7.35547 16.9413L7.66309 17.0672C8.38986 17.3455 9.17589 17.5008 10 17.5008C11.5925 17.5008 13.0475 16.9317 14.1855 15.9881C13.5311 14.9863 13.6439 13.6302 14.5244 12.7508ZM17.1182 13.8123C16.694 13.389 16.0077 13.3899 15.585 13.8123C15.1615 14.2353 15.1606 14.9216 15.584 15.3446C15.6034 15.364 15.625 15.3816 15.6455 15.3993C15.6802 15.4213 15.7127 15.4472 15.7441 15.4754C16.1655 15.7609 16.7438 15.7183 17.1182 15.3446C17.5414 14.9217 17.5414 14.2353 17.1182 13.8123Z" fill="#1D1D1D"/>
<path fill-rule="evenodd" clip-rule="evenodd" d="M5.2832 4.35824C5.61134 4.16657 6.03781 4.25168 6.2666 4.56527C6.51053 4.89997 6.43721 5.36914 6.10254 5.61313L5.83789 5.81625C5.23135 6.30675 4.70141 6.91202 4.28906 7.6268C3.49389 9.00382 3.2585 10.5456 3.50488 12.0008C4.13124 11.9658 4.76782 12.1577 5.28125 12.576L5.47754 12.7528L5.6543 12.9491C6.48333 13.9639 6.42469 15.4621 5.47754 16.408C4.46806 17.416 2.8312 17.416 1.82227 16.4071C0.813552 15.3981 0.813727 13.7612 1.82324 12.7528C1.90386 12.6722 1.99014 12.5998 2.07812 12.5321C1.69503 10.6672 1.96098 8.65919 2.99023 6.8768L3.2168 6.50766C3.76511 5.66589 4.44971 4.96097 5.21875 4.40024L5.2832 4.35824ZM4.41699 13.8143C3.9928 13.3911 3.30651 13.3917 2.88379 13.8143C2.46058 14.2372 2.45962 14.9236 2.88281 15.3465C3.30553 15.7692 3.99278 15.7698 4.41699 15.3465C4.84048 14.9236 4.84048 14.2372 4.41699 13.8143Z" fill="#1D1D1D"/>
<path fill-rule="evenodd" clip-rule="evenodd" d="M9.46875 7.64047C9.7616 7.34754 10.2364 7.34762 10.5293 7.64047L13.2812 10.3914C13.5739 10.6843 13.574 11.1592 13.2812 11.452L10.5303 14.2049C10.2375 14.4972 9.76253 14.4972 9.46973 14.2049L6.71777 11.453C6.57717 11.3124 6.49815 11.1215 6.49805 10.9227C6.49809 10.724 6.57738 10.533 6.71777 10.3924L9.46875 7.64047ZM8.30859 10.9227L10 12.6131L11.6904 10.9227L9.99902 9.23129L8.30859 10.9227Z" fill="#1D1D1D"/>
<path fill-rule="evenodd" clip-rule="evenodd" d="M8.17285 1.75668C9.16343 0.766775 10.7573 0.751468 11.7695 1.7059C11.7891 1.72185 11.8089 1.73846 11.8271 1.75668C12.2485 2.17764 12.4918 2.70821 12.5615 3.25668C14.3683 3.85718 15.9749 5.09081 17.0039 6.87192C17.5794 7.8681 17.9131 8.93678 18.0332 10.0086C18.0791 10.42 17.7825 10.7905 17.3711 10.8368C16.9596 10.8829 16.5883 10.5871 16.542 10.1756C16.4439 9.30068 16.1726 8.43237 15.7051 7.62289C14.9091 6.24495 13.6891 5.26844 12.3027 4.75473C12.1824 4.99123 12.0251 5.21426 11.8271 5.41195C10.8178 6.41996 9.18086 6.41972 8.17188 5.41098C7.16297 4.40202 7.16318 2.76516 8.17285 1.75668ZM10.6846 2.74399C10.259 2.39673 9.6301 2.42165 9.2334 2.8182C8.81003 3.24114 8.80904 3.92751 9.23242 4.35043C9.6552 4.77288 10.3425 4.77373 10.7666 4.35043C10.9234 4.19388 11.0208 4.00069 11.0615 3.79867C11.0627 3.74982 11.0689 3.7006 11.0801 3.65121C11.0986 3.352 10.9953 3.04678 10.7666 2.8182L10.6846 2.74399Z" fill="#1D1D1D"/>
</svg>
