<?xml version="1.0" encoding="UTF-8"?>
<svg width="40px" height="40px" viewBox="0 0 40 40" version="1.1" xmlns="http://www.w3.org/2000/svg" xmlns:xlink="http://www.w3.org/1999/xlink">
    <!-- Generator: Sketch 55.1 (78136) - https://sketchapp.com -->
    <title>爆仓通知</title>
    <desc>Created with Sketch.</desc>
    <g id="爆仓通知" stroke="none" stroke-width="1" fill="none" fill-rule="evenodd">
        <path d="M10.2555408,-4.14336123e-16 L29.7444592,4.14336123e-16 C33.3105342,-2.4074122e-16 34.6036791,0.371302445 35.9073828,1.06853082 C37.2110865,1.76575919 38.2342408,2.78891348 38.9314692,4.09261719 C39.6286976,5.39632089 40,6.68946584 40,10.2555408 L40,29.7444592 C40,33.3105342 39.6286976,34.6036791 38.9314692,35.9073828 C38.2342408,37.2110865 37.2110865,38.2342408 35.9073828,38.9314692 C34.6036791,39.6286976 33.3105342,40 29.7444592,40 L10.2555408,40 C6.68946584,40 5.39632089,39.6286976 4.09261719,38.9314692 C2.78891348,38.2342408 1.76575919,37.2110865 1.06853082,35.9073828 C0.371302445,34.6036791 1.60494146e-16,33.3105342 -2.76224082e-16,29.7444592 L2.76224082e-16,10.2555408 C-1.60494146e-16,6.68946584 0.371302445,5.39632089 1.06853082,4.09261719 C1.76575919,2.78891348 2.78891348,1.76575919 4.09261719,1.06853082 C5.39632089,0.371302445 6.68946584,2.4074122e-16 10.2555408,-4.14336123e-16 Z" id="Rectangle-4" fill="#FF5F73"></path>
        <g id="预警" transform="translate(10.000000, 10.000000)" fill="#FFFFFF" fill-rule="nonzero">
            <path d="M19.9528543,20 L0.0471457314,20 C0.0213206811,20 0,19.9810323 0,19.9580573 L0,17.9413336 C0,17.9183586 0.0213206811,17.8993909 0.0471457314,17.8993909 L19.9528543,17.8993909 C19.9786793,17.8993909 20,17.9183586 20,17.9413336 L20,19.9580573 C20,19.9810323 19.9786793,20 19.9528543,20 Z M10,0 C5.84246719,0 2.44076754,3.02628767 2.44076754,6.72499466 L2.44076754,16.4426159 C2.44076754,16.5230284 2.45097745,16.6010365 2.45428065,16.6806476 L17.5457193,16.6806476 C17.5490226,16.6010365 17.5592325,16.5227613 17.5592325,16.4426159 L17.5592325,6.72499466 C17.5592325,3.02628767 14.1575328,0 10,0 Z M9.46187802,13.8117119 L9.46187802,9.82688609 L5.43407105,9.82688609 L10.3645536,4.54477452 L10.3645536,7.91167985 L14.5662292,7.91167985 L9.46187802,13.8117119 L9.46187802,13.8117119 Z" id="形状"></path>
        </g>
    </g>
</svg>