<?xml version="1.0" encoding="UTF-8"?>
<svg width="16px" height="16px" viewBox="0 0 16 16" version="1.1" xmlns="http://www.w3.org/2000/svg" xmlns:xlink="http://www.w3.org/1999/xlink">
    <title>2</title>
    <g id="Page-1" stroke="none" stroke-width="1" fill="none" fill-rule="evenodd">
        <g id="我的福利" transform="translate(-967.000000, -234.000000)">
            <g id="2" transform="translate(967.000000, 234.000000)">
                <rect id="Rectangle" fill="#514CC4" fill-rule="nonzero" x="0" y="0" width="16" height="16" rx="2"></rect>
                <g id="本年资金借出" transform="translate(3.000000, 3.000000)" fill="#FFFFFF">
                    <path d="M4.5,0 C6.98528137,0 9,2.01471863 9,4.5 C9,6.98528137 6.98528137,9 4.5,9 C2.01471863,9 0,6.98528137 0,4.5 C0,2.01471863 2.01471863,0 4.5,0 Z M4.86454183,2 L4.24900398,2 L4.24900398,2.6263814 C3.98007968,2.65511449 3.8247012,2.69534082 3.6812749,2.77004686 C3.34063745,2.94819203 3.14940239,3.28724251 3.14940239,3.70099903 C3.14940239,4.32163381 3.50796813,4.66068429 4.38047809,4.86181593 C4.90385825,4.97795811 4.98649722,4.99629635 5.08876435,5.05753106 L5.08876435,5.05753106 L5.15139442,5.09742728 C5.29482072,5.18937318 5.38446215,5.35602511 5.38446215,5.54566351 C5.38446215,5.92494032 5.07370518,6.1375652 4.51792829,6.1375652 C4.01593625,6.1375652 3.6812749,5.99389974 3.49003984,5.69507559 L3.49003984,5.69507559 L3,5.99964636 C3.21513944,6.36742994 3.64541833,6.58005481 4.24900398,6.62602776 L4.24900398,6.62602776 L4.24900398,7 L4.86454183,7 L4.86454183,6.61453452 C5.62350598,6.51684201 6,6.14905844 6,5.49394395 C6,5.11466714 5.85657371,4.82733622 5.5876494,4.65493767 C5.41284861,4.54754774 5.30117032,4.50085647 4.96412495,4.41622853 L4.96412495,4.41622853 L4.59530843,4.327283 C3.97633954,4.17261266 3.76494024,3.99982318 3.76494024,3.65502608 C3.76494024,3.31022898 4.03984064,3.10335072 4.4940239,3.10335072 C4.88247012,3.10335072 5.15737052,3.22402971 5.34262948,3.46538768 L5.34262948,3.46538768 L5.82071713,3.17231014 C5.65338645,2.89072584 5.312749,2.69534082 4.86454183,2.63787464 L4.86454183,2.63787464 L4.86454183,2 Z" id="形状结合"></path>
                    <path d="M8,4.5 C8.69035594,4.5 9.31535594,4.77982203 9.76776695,5.23223305 C10.220178,5.68464406 10.5,6.30964406 10.5,7 L10.5,7 L10.5,7.88196601 L11.809017,10.5 L4.19098301,10.5 L5.5,7.88196601 L5.5,7 C5.5,6.30964406 5.77982203,5.68464406 6.23223305,5.23223305 C6.68464406,4.77982203 7.30964406,4.5 8,4.5 Z" id="矩形" stroke="#514CC4"></path>
                    <path d="M9,10 C9,10.5522847 8.55228475,11 8,11 C7.44771525,11 7,10.5522847 7,10 L7,10 Z" id="形状结合"></path>
                </g>
            </g>
        </g>
    </g>
</svg>