<svg fill="none" height="66" viewBox="0 0 66 66" width="66" xmlns="http://www.w3.org/2000/svg" xmlns:xlink="http://www.w3.org/1999/xlink"><linearGradient id="a" gradientUnits="userSpaceOnUse" x1="-6" x2="59.5" y1="53" y2="12"><stop offset="0" stop-color="#58e3bb"/><stop offset="1" stop-color="#89f8b7"/></linearGradient><path d="m52 16.8116c-1.9494.8424-4.0177 1.3961-6.136 1.6425 2.2246-1.2966 3.8881-3.3355 4.68-5.7363-2.0977 1.2113-4.3926 2.0659-6.786 2.527-1.4663-1.5082-3.3648-2.5537-5.4495-3.0011s-4.2597-.2761-6.2431.4917-3.6839 2.0968-4.8812 3.8148-1.8363 3.7458-1.8342 5.8208c.0036.7914.0995 1.5798.286 2.3501-4.2456-.2096-8.3983-1.2854-12.188-3.1575-3.78967-1.8722-7.13145-4.4986-9.808-7.7086-.95208 1.5788-1.45461 3.3755-1.456 5.2056-.04722 1.6894.34214 3.3634 1.13247 4.8687.79032 1.5054 1.95639 2.7942 3.39153 3.7484-1.768-.0505-5.07-.5054-5.07-1.2888v.1264c.06571 2.4045.97179 4.7156 2.5691 6.5528 1.5973 1.8372 3.79062 3.0911 6.2189 3.5553-.84642.2307-1.72093.3497-2.6.3537-.65435.0024-1.3074-.0569-1.95-.1768.68656 2.0607 2.01733 3.862 3.80691 5.1529 1.78959 1.2909 3.94889 2.0072 6.17709 2.049-3.7724 2.9084-8.44486 4.4934-13.26 4.4981-.86897-.0012-1.737117-.0518-2.6-.1516 4.87942 3.0429 10.5566 4.657 16.354 4.6497 4.001.0404 7.9702-.6941 11.676-2.1606 3.7058-1.4664 7.0741-3.6355 9.9082-6.3807 2.8341-2.7451 5.0774-6.0114 6.5989-9.6081 1.5215-3.5968 2.2907-7.4521 2.2629-11.3408v-1.3394c2.0434-1.4752 3.8036-3.2887 5.2-5.3572z" fill="url(#a)"/></svg>