<svg fill="none" height="174" viewBox="0 0 600 174" width="600" xmlns="http://www.w3.org/2000/svg" xmlns:xlink="http://www.w3.org/1999/xlink"><linearGradient id="a" gradientUnits="userSpaceOnUse" x1="303.412" x2="303.412" y1="6.2164" y2="173.438"><stop offset="0" stop-color="#2a2f40" stop-opacity=".26"/><stop offset="1" stop-color="#2a2f40" stop-opacity="0"/></linearGradient><g fill="url(#a)"><path d="m66.2554 104.015h25.3191v9.414c0 21.415-8.2819 30.592-27.6853 30.592-21.0598 0-27.4487-9.883-27.4487-41.653v-31.0633c0-31.5341 6.6255-41.6532 26.9754-41.6532 16.0906 0 24.1359 7.2952 26.0289 23.0622l33.3642-2.3533c-1.42-33.8874-20.586-49.889748-59.8663-49.889748-23.1894 0-37.8603 5.177238-48.9817 17.414348-10.17497 11.0605-13.961 24.7096-13.961 50.8311v36.4759c0 24.004 3.07615 36.947 11.3581 47.772 10.8848 14.12 26.7388 20.238 52.0578 20.238 25.7923 0 41.6461-6.118 52.7681-20.003 8.755-11.06 11.594-23.062 11.594-47.772v-28.9451h-61.5226z"/><path d="m159.771 170.614h107.665v-29.417h-71.698v-40.711h59.867v-29.4166h-59.867v-39.0647h70.752v-29.41609h-106.719z"/><path d="m297.258 170.614h34.785v-100.4859l31.234 63.7739h23.19l31.234-63.7739v100.4859h34.785v-168.02539h-33.838l-43.776 90.36639-43.776-90.36639h-33.838z"/><path d="m474.115 143.786c5.205 8.707 9.701 13.649 17.037 18.356 11.594 7.06 28.632 11.296 47.325 11.296 20.823 0 37.15-4.707 47.562-13.65 9.465-8.236 13.961-20.238 13.961-37.417 0-18.12-5.442-30.122-16.564-37.6525-8.518-5.4126-13.961-7.2953-35.494-12.7078-24.372-6.1186-31.471-11.5311-31.471-24.4742 0-11.7665 8.045-18.591 21.769-18.591 13.488 0 22.717 4.7066 30.289 15.5317l26.975-17.179c-10.885-18.3557-29.105-27.2982-56.317-27.2982-36.914 0-57.5 17.6497-57.5 49.6544 0 28.0042 13.251 41.8886 48.271 50.5956 23.427 5.883 23.427 5.883 28.159 8.943 4.496 2.824 7.099 8.236 7.099 14.825 0 13.179-8.755 20.003-26.502 20.003-18.221 0-29.342-5.412-36.914-17.649z"/></g></svg>