<svg fill="none" height="94" viewBox="0 0 600 94" width="600" xmlns="http://www.w3.org/2000/svg" xmlns:xlink="http://www.w3.org/1999/xlink"><linearGradient id="a" gradientUnits="userSpaceOnUse" x1="303.412" x2="303.412" y1="3.36918" y2="94"><stop offset="0" stop-color="#2a2f40" stop-opacity=".26"/><stop offset="1" stop-color="#2a2f40" stop-opacity="0"/></linearGradient><g fill="url(#a)"><path d="m19.9906 60.711h11.6828c12.4616 0 19.3415-1.7856 24.5338-6.2497 5.8414-4.9742 8.3078-11.9891 8.3078-23.4681 0-10.7137-2.0769-17.2184-7.0097-22.3202-5.1923-5.22931-12.3318-7.27002-25.8319-7.27002h-31.6734v91.06652h19.9906zm-.3895-15.6879v-28.0597h12.2021c9.3462 0 12.8511 3.8263 12.8511 14.0298s-3.5049 14.0299-12.8511 14.0299z"/><path d="m99.4762 56.247h9.7358l17.394 36.2225h22.068l-19.991-37.7531c11.943-3.3161 16.746-10.8412 16.746-26.5291 0-9.4383-2.077-15.5604-6.751-20.15203-4.932-4.84667-11.553-6.63229-24.014-6.63229h-35.1784v91.06652h19.9906zm-.3894-15.0503v-24.2333h13.6302c9.476 0 12.981 3.3161 12.981 12.1167 0 8.8005-3.505 12.1166-12.722 12.1166z"/><path d="m161.072 57.6499c0 12.4994 1.817 19.7694 6.36 25.3813 6.101 7.6527 14.798 10.8413 28.688 10.8413 13.24 0 21.159-2.6785 27.39-9.3108 5.711-5.867 7.788-13.2645 7.788-26.9118v-21.4274c0-12.6268-1.817-19.6418-6.361-25.3813-6.101-7.6526-14.798-10.8412-28.817-10.8412-13.111 0-21.029 2.67842-27.26 9.31072-5.712 5.86708-7.788 13.26458-7.788 26.91178zm50.236-1.658c0 16.5807-3.765 22.0651-15.188 22.0651-11.293 0-15.058-5.4844-15.058-22.0651v-18.1113c0-16.5807 3.765-22.0651 15.188-22.0651 11.293 0 15.058 5.4844 15.058 22.0651z"/><path d="m270.75 92.4695h17.524l31.284-91.06652h-19.991l-19.99 65.04752-19.991-65.04752h-19.99z"/><path d="m332.889 92.4695h19.99v-91.06652h-19.99z"/><path d="m373.708 92.4695h32.322c25.183.2551 36.476-10.9688 35.827-35.5848v-19.8969c.649-24.616-10.774-35.96744-35.827-35.58482h-32.322zm19.99-15.5604v-59.9457h8.697c15.058-.1276 19.212 4.3365 19.472 21.5549v16.8358c-.26 17.2185-4.414 21.6825-19.472 21.555z"/><path d="m460.292 92.4695h59.063v-15.943h-39.332v-22.0652h32.842v-15.943h-32.842v-21.1723h38.813v-15.94302h-58.544z"/><path d="m530.942 77.9294c2.855 4.7192 5.322 7.3976 9.346 9.9485 6.361 3.8263 15.707 6.1221 25.962 6.1221 11.423 0 20.38-2.5509 26.091-7.3976 5.193-4.464 7.659-10.9687 7.659-20.2795 0-9.8209-2.986-16.3256-9.087-20.407-4.673-2.9335-7.658-3.9539-19.471-6.8874-13.37-3.3162-17.265-6.2497-17.265-13.2646 0-6.3772 4.414-10.076 11.943-10.076 7.399 0 12.462 2.5509 16.615 8.4179l14.799-9.3107c-5.972-9.94843-15.967-14.7951-30.895-14.7951-20.25 0-31.543 9.56581-31.543 26.9118 0 15.1778 7.269 22.7029 26.481 27.422 12.851 3.1886 12.851 3.1886 15.447 4.8467 2.466 1.5305 3.894 4.464 3.894 8.0352 0 7.1425-4.803 10.8413-14.539 10.8413-9.995 0-16.096-2.9335-20.25-9.5658z"/></g></svg>