<svg width="20" height="20" viewBox="0 0 20 20" fill="none" xmlns="http://www.w3.org/2000/svg">
<path fill-rule="evenodd" clip-rule="evenodd" d="M6.83096 3.22767C7.07342 2.95058 7.49459 2.9225 7.77168 3.16496L9.86889 5.00001H10.1298L12.227 3.16496C12.5041 2.9225 12.9253 2.95058 13.1677 3.22767C13.4102 3.50476 13.3821 3.92594 13.105 4.16839L12.1546 5.00001H15.3327C16.4373 5.00001 17.3327 5.89544 17.3327 7.00001V7.66668C17.3327 8.28796 16.9078 8.80999 16.3327 8.958V14.3333C16.3327 15.8061 15.1388 17 13.666 17H6.33268C4.85992 17 3.66602 15.8061 3.66602 14.3333V8.958C3.09094 8.80999 2.66602 8.28796 2.66602 7.66668V7.00001C2.66602 5.89544 3.56145 5.00001 4.66602 5.00001H7.8441L6.89368 4.16839C6.61659 3.92594 6.58851 3.50476 6.83096 3.22767ZM10.666 9.00001H14.9993V14.3333C14.9993 15.0697 14.4024 15.6667 13.666 15.6667H10.666V9.00001ZM4.99935 9.00001H9.33268V15.6667H6.33268C5.5963 15.6667 4.99935 15.0697 4.99935 14.3333V9.00001ZM15.9993 7.66668H3.99935V7.00001C3.99935 6.63182 4.29783 6.33334 4.66602 6.33334H15.3327C15.7009 6.33334 15.9993 6.63182 15.9993 7.00001V7.66668Z" fill="#1D1D1D"/>
</svg>
