<svg width="36" height="36" viewBox="0 0 36 36" fill="none" xmlns="http://www.w3.org/2000/svg">
<mask id="mask0_5328_8786" style="mask-type:alpha" maskUnits="userSpaceOnUse" x="8" y="1" width="20" height="35">
<path d="M22.6057 3.15291L22.6747 3.13567C22.6832 3.16965 22.6817 3.19647 22.6815 3.20107L22.6815 3.20146C22.6813 3.20391 22.6812 3.20602 22.681 3.20772C22.6809 3.20913 22.6808 3.21025 22.6807 3.21107L22.6803 3.21436L22.6803 3.21443C22.6803 3.21443 22.6805 3.21303 22.6811 3.20991L22.6842 3.19615C22.69 3.17174 22.6999 3.13525 22.714 3.0872C22.7419 2.99198 22.7826 2.86359 22.8292 2.72099C22.8846 2.55142 22.9475 2.36457 23.0056 2.19468L24.925 3.52931L24.9248 3.5296L24.9361 3.53657C25.4555 3.8584 25.8132 4.43669 25.85 5.17809L27.0457 29.2825C27.1126 30.6309 26.0877 31.9627 24.7672 32.2434L12.8357 34.7795C12.2168 34.9111 11.6535 34.7866 11.2269 34.4891L10.9984 34.3297L10.997 34.3323L9.12146 33.0278L10.4253 26.6061L10.4345 26.5607L10.4268 26.515C10.4117 26.425 10.4016 26.3319 10.3968 26.236L10.3969 26.236L10.3966 26.2313L9.20096 8.796C9.13535 7.4484 10.1598 6.11794 11.4796 5.8374L22.6208 3.46927L22.6057 3.15291ZM22.6057 3.15291L22.6747 3.13566C22.6625 3.08699 22.6384 3.05271 22.6203 3.0323C22.613 3.02402 22.6057 3.01695 22.599 3.01099L22.6057 3.15291Z" fill="black" stroke="black" stroke-width="0.5"/>
</mask>
<g mask="url(#mask0_5328_8786)">
<path d="M22.6057 3.15291L22.6747 3.13567C22.6832 3.16965 22.6817 3.19647 22.6815 3.20107L22.6815 3.20146C22.6813 3.20391 22.6812 3.20602 22.681 3.20772C22.6809 3.20913 22.6808 3.21025 22.6807 3.21107L22.6803 3.21436L22.6803 3.21443C22.6803 3.21443 22.6805 3.21303 22.6811 3.20991L22.6842 3.19615C22.69 3.17174 22.6999 3.13525 22.714 3.0872C22.7419 2.99198 22.7826 2.86359 22.8292 2.72099C22.8846 2.55142 22.9475 2.36457 23.0056 2.19468L24.925 3.52931L24.9248 3.5296L24.9361 3.53657C25.4555 3.8584 25.8132 4.43669 25.85 5.17809L27.0457 29.2825C27.1126 30.6309 26.0877 31.9627 24.7672 32.2434L12.8357 34.7795C12.2168 34.9111 11.6535 34.7866 11.2269 34.4891L10.9984 34.3297L10.997 34.3323L9.12146 33.0278L10.4253 26.6061L10.4345 26.5607L10.4268 26.515C10.4117 26.425 10.4016 26.3319 10.3968 26.236L10.3969 26.236L10.3966 26.2313L9.20096 8.796C9.13535 7.4484 10.1598 6.11794 11.4796 5.8374L22.6208 3.46927L22.6057 3.15291ZM22.6057 3.15291L22.6747 3.13566C22.6625 3.08699 22.6384 3.05271 22.6203 3.0323C22.613 3.02402 22.6057 3.01695 22.599 3.01099L22.6057 3.15291Z" fill="black" stroke="black" stroke-width="0.5"/>
<path d="M21.9763 29.0488L26.0095 31.7763L25.2018 32.1908L20.834 29.187L21.9763 29.0488Z" fill="#44494F"/>
<path d="M28.2412 28.0343L24.5154 25.5117L23.1445 28.3173L27.2103 31.0737L28.2412 28.0343Z" fill="#44494F"/>
<path d="M10.6434 32.6699L14.6532 35.301L11.8991 36.271L7.41992 33.3804L10.6434 32.6699Z" fill="#44494F"/>
<path d="M13.6562 34.1248L17.51 33.2577" stroke="#25D17F" stroke-width="0.5" stroke-linecap="round"/>
<path d="M24.8691 3.93955C25.0976 4.12019 25.4175 4.47514 25.5068 5.72494C25.5068 5.94177 25.7246 10.0875 25.8256 11.9739" stroke="#25D17F" stroke-width="0.5" stroke-linecap="round"/>
<path d="M22.6057 3.15291L22.6747 3.13567C22.6832 3.16965 22.6817 3.19647 22.6815 3.20107L22.6815 3.20146C22.6813 3.20391 22.6812 3.20602 22.681 3.20772C22.6809 3.20913 22.6808 3.21025 22.6807 3.21107L22.6803 3.21436L22.6803 3.21443C22.6803 3.21443 22.6805 3.21303 22.6811 3.20991L22.6842 3.19615C22.69 3.17174 22.6999 3.13525 22.714 3.0872C22.7419 2.99198 22.7826 2.86359 22.8292 2.72099C22.8846 2.55142 22.9475 2.36457 23.0056 2.19468L24.925 3.52931L24.9248 3.5296L24.9361 3.53657C25.4555 3.85841 25.8132 4.43669 25.85 5.17809L27.0458 29.2825C27.1126 30.6309 26.0877 31.9627 24.7672 32.2434L12.8357 34.7795C12.2168 34.9111 11.6535 34.7866 11.2269 34.4891L10.9986 34.3299L10.9971 34.3325L9.12146 33.0278L10.4253 26.6061L10.4345 26.5607L10.4268 26.515C10.4117 26.425 10.4016 26.3319 10.3968 26.2361L10.3969 26.236L10.3966 26.2313L9.20096 8.796C9.13535 7.4484 10.1598 6.11794 11.4796 5.8374L22.6208 3.46927L22.6057 3.15291ZM22.6057 3.15291L22.6747 3.13566C22.6625 3.08699 22.6384 3.05271 22.6203 3.0323C22.613 3.02402 22.6057 3.01695 22.599 3.01099L22.6057 3.15291Z" stroke="black" stroke-width="0.5"/>
</g>
<rect x="0.256924" y="0.197715" width="17.0314" height="28.9674" rx="2.41667" transform="matrix(0.978148 -0.207912 0.0495471 0.998772 6.54269 4.61616)" fill="#777E87" stroke="black" stroke-width="0.5"/>
<mask id="mask1_5328_8786" style="mask-type:alpha" maskUnits="userSpaceOnUse" x="7" y="2" width="17" height="31">
<rect x="0.256924" y="0.197715" width="14.7175" height="26.353" rx="1.75" transform="matrix(0.978148 -0.207912 0.0495471 0.998772 7.73996 5.68257)" fill="white" stroke="#B8A9A9" stroke-width="0.5"/>
</mask>
<g mask="url(#mask1_5328_8786)">
<rect x="-0.256924" y="-0.197715" width="15.7175" height="27.353" rx="2.25" transform="matrix(0.978148 -0.207912 0.0495471 0.998772 7.74832 5.57525)" fill="#777E87" stroke="#777E87" stroke-width="0.5"/>
<path d="M10.6074 4.37305L10.8778 10.7881L13.4628 13.3419" stroke="#44494F" stroke-width="1.33333" stroke-linecap="round"/>
<path d="M17.7741 12.9797L14.2246 9.53743L14.829 8.10314L19.8095 7.07967L19.6165 2.2694" stroke="#44494F" stroke-width="1.33333" stroke-linecap="round"/>
<path d="M6.64062 25.6457C6.84635 25.6163 8.93072 25.1926 9.94718 24.9844L14.1722 27.6297L14.4745 33.6793" stroke="#44494F" stroke-width="1.33333" stroke-linecap="round"/>
<path d="M20.9142 15.7754L21.2732 23.5564L17.5859 26.4942L18.0437 35.4232" stroke="#44494F" stroke-width="1.33333" stroke-linecap="round"/>
<rect x="0.256924" y="0.197715" width="14.7175" height="26.353" rx="1.75" transform="matrix(0.978148 -0.207912 0.0495471 0.998772 7.73996 5.68257)" stroke="#44494F" stroke-width="0.5"/>
</g>
<path d="M20.7605 11.7643C21.1646 11.7563 21.4785 12.0163 21.5365 12.4071C21.5365 12.4071 21.6547 13.8527 21.6233 16.3146C21.2658 20.5516 18.0567 23.5117 16.1097 23.9522C14.1621 24.3929 10.1382 22.1365 10.004 18.8943C9.92988 17.1033 9.86946 15.4741 9.87062 15.0629C9.87178 14.6517 10.1645 14.2436 10.5714 14.086C11.3712 13.8312 12.1504 13.462 12.883 12.9906C13.6775 12.5646 14.3989 11.9792 14.9939 11.2775C15.3264 10.9578 15.7881 10.8533 16.1405 11.0181C16.8146 11.3773 17.5539 11.6286 18.3369 11.7646C19.1331 11.8228 19.943 11.8227 20.7605 11.7643Z" fill="#25D17F"/>
<path d="M15.3911 19.9004C15.1571 20.1978 14.7571 20.2828 14.4988 20.0901L12.3901 18.5096C12.1318 18.3169 12.1118 17.9148 12.3458 17.6175C12.5798 17.3201 12.9798 17.2351 13.2381 17.4278L14.8786 18.6569L17.7412 15.0039C17.9753 14.7065 18.3752 14.6215 18.6335 14.8142C18.8919 15.0069 18.9118 15.4091 18.6778 15.7064L15.3911 19.9004L15.3911 19.9004Z" fill="black"/>
</svg>
