<svg width="32" height="33" viewBox="0 0 32 33" fill="none" xmlns="http://www.w3.org/2000/svg">
<path d="M31.375 8.61789C30.75 4.76432 27.7357 1.75003 23.8821 1.12503C21.3786 0.717888 18.7357 0.500031 16 0.500031C13.2643 0.500031 10.6214 0.717888 8.11786 1.12503C4.26429 1.75003 1.25 4.76432 0.625 8.61789C0.217857 11.1215 0 13.7643 0 16.5C0 19.2357 0.217857 21.8786 0.625 24.3822C1.25 28.2357 4.26429 31.25 8.11786 31.875C10.6214 32.2822 13.2643 32.5 16 32.5C18.7357 32.5 21.3786 32.2822 23.8821 31.875C27.7357 31.25 30.75 28.2357 31.375 24.3822C31.7821 21.8786 32 19.2357 32 16.5C32 13.7643 31.7821 11.1215 31.375 8.61789Z" fill="url(#paint0_linear_11513_22418)"/>
<path fill-rule="evenodd" clip-rule="evenodd" d="M21.9727 7.54793C22.0114 7.62481 21.9966 7.71785 21.9359 7.7789L11.3604 18.4165C11.2825 18.4948 11.1559 18.4952 11.0776 18.4173L8.95006 16.3022C8.91244 16.2648 8.89122 16.214 8.89107 16.161C8.89091 16.108 8.91184 16.057 8.94923 16.0194L13.7435 11.197L11.7578 9.22293C11.7041 9.16952 11.6851 9.09035 11.7089 9.01841C11.7326 8.94647 11.795 8.89413 11.8699 8.88319L21.7652 7.43999C21.8504 7.42757 21.934 7.47105 21.9727 7.54793ZM9.92967 25.4328C9.89129 25.3557 9.90652 25.2628 9.96748 25.202L20.5898 14.6112C20.6681 14.5332 20.7947 14.5334 20.8727 14.6116L22.9908 16.736C23.0283 16.7736 23.0493 16.8245 23.0492 16.8775C23.0491 16.9306 23.028 16.9814 22.9904 17.0189L18.175 21.8201L20.1519 23.8029C20.2054 23.8565 20.224 23.9358 20.1999 24.0076C20.1758 24.0795 20.1133 24.1315 20.0383 24.1421L10.1367 25.5416C10.0514 25.5537 9.96806 25.5098 9.92967 25.4328Z" fill="white"/>
<defs>
<linearGradient id="paint0_linear_11513_22418" x1="16" y1="0.500031" x2="16" y2="32.5" gradientUnits="userSpaceOnUse">
<stop stop-color="#65B28D"/>
<stop offset="1" stop-color="#4EA38A"/>
</linearGradient>
</defs>
</svg>
