<svg width="12" height="12" viewBox="0 0 12 12" fill="none" xmlns="http://www.w3.org/2000/svg">
<path fill-rule="evenodd" clip-rule="evenodd" d="M1 8V2.5C1 1.67157 1.67157 1 2.5 1H8V2H2.5C2.22386 2 2 2.22386 2 2.5V8H1ZM4.5 4H9.5C9.77614 4 10 4.22386 10 4.5V9.5C10 9.77614 9.77614 10 9.5 10H4.5C4.22386 10 4 9.77614 4 9.5V4.5C4 4.22386 4.22386 4 4.5 4ZM3 4.5C3 3.67157 3.67157 3 4.5 3H9.5C10.3284 3 11 3.67157 11 4.5V9.5C11 10.3284 10.3284 11 9.5 11H4.5C3.67157 11 3 10.3284 3 9.5V4.5Z" fill="currentColor"/>
</svg>
