<svg width="28" height="28" viewBox="0 0 28 28" fill="none" xmlns="http://www.w3.org/2000/svg">
<path d="M27.4531 7.10312C26.9062 3.73125 24.2688 1.09375 20.8969 0.546875C18.7063 0.190625 16.3937 0 14 0C11.6062 0 9.29375 0.190625 7.10312 0.546875C3.73125 1.09375 1.09375 3.73125 0.546875 7.10312C0.190625 9.29375 0 11.6062 0 14C0 16.3937 0.190625 18.7063 0.546875 20.8969C1.09375 24.2688 3.73125 26.9062 7.10312 27.4531C9.29375 27.8094 11.6062 28 14 28C16.3937 28 18.7063 27.8094 20.8969 27.4531C24.2688 26.9062 26.9062 24.2688 27.4531 20.8969C27.8094 18.7063 28 16.3937 28 14C28 11.6062 27.8094 9.29375 27.4531 7.10312Z" fill="url(#paint0_linear_6552_18458)"/>
<path fill-rule="evenodd" clip-rule="evenodd" d="M15.9396 9.93934C16.5254 9.35355 17.4751 9.35355 18.0609 9.93934L23.1215 15L21.0002 17.1213L17.0002 13.1213L12.0609 18.0607C11.4751 18.6464 10.5254 18.6464 9.93957 18.0607L4.87891 13L7.00023 10.8787L11.0002 14.8787L15.9396 9.93934Z" fill="white"/>
<defs>
<linearGradient id="paint0_linear_6552_18458" x1="14" y1="0" x2="14" y2="28" gradientUnits="userSpaceOnUse">
<stop stop-color="#65B28D"/>
<stop offset="1" stop-color="#4EA38A"/>
</linearGradient>
</defs>
</svg>
