<?xml version="1.0" encoding="UTF-8"?>
<svg width="48px" height="48px" viewBox="0 0 48 48" version="1.1" xmlns="http://www.w3.org/2000/svg" xmlns:xlink="http://www.w3.org/1999/xlink">
    <!-- Generator: Sketch 59.1 (86144) - https://sketch.com -->
    <title>Group 6</title>
    <desc>Created with Sketch.</desc>
    <g id="app" stroke="none" stroke-width="1" fill="none" fill-rule="evenodd">
        <g id="02-策略商店-copy" transform="translate(-26.000000, -549.000000)" fill="#E1E8F5">
            <g id="Group-6" transform="translate(26.000000, 549.000000)">
                <path d="M19.0711927,23.9839991 L27.3530275,32.2671183 L32.5805505,27.0395954 C33.5153013,26.1979304 34.9453692,26.2353732 35.8347957,27.1247997 C36.7242222,28.0142262 36.761665,29.4442941 35.92,30.3790449 L29.0214679,37.2788614 C28.0948346,38.1901702 26.6086516,38.1901702 25.6820183,37.2788614 L15.7291743,27.3234486 L15.7291743,33.2406963 C15.7291743,34.5466217 14.6705126,35.6052835 13.3645872,35.6052835 C12.0586617,35.6052835 11,34.5466217 11,33.2406963 L11,14.7195954 C11,13.41367 12.0586617,12.3550082 13.3645872,12.3550082 C14.6705126,12.3550082 15.7291743,13.41367 15.7291743,14.7195954 L15.7291743,20.6368431 L25.6807339,10.6839991 C26.6070847,9.77200031 28.0938328,9.77200031 29.0201835,10.6839991 L35.9238532,17.5825312 C36.7655182,18.517282 36.7280754,19.9473499 35.8386489,20.8367764 C34.9492224,21.7262029 33.5191545,21.7636457 32.5844037,20.9219807 L27.3568807,15.6944578 L19.0711927,23.9839991 Z M27.3568807,21.6168431 L27.3568807,21.6168431 C26.3993388,21.6163235 25.5357937,22.1927331 25.1689982,23.0772374 C24.8022027,23.9617417 25.0044094,24.9801083 25.6813101,25.6573765 C26.3582109,26.3346447 27.3764675,26.537404 28.2611708,26.1710886 C29.145874,25.8047732 29.7227529,24.9415411 29.7227529,23.9839991 C29.723093,23.3561902 29.4740237,22.7539595 29.0303367,22.3097907 C28.5866497,21.865622 27.9846896,21.6158992 27.3568807,21.6155587 L27.3568807,21.6168431 Z" id="形状" fill-opacity="0.24"></path>
                <rect id="Rectangle" fill-opacity="0.16" x="0" y="0" width="48" height="48" rx="10"></rect>
            </g>
        </g>
    </g>
</svg>