<svg width="28" height="28" viewBox="0 0 28 28" fill="none" xmlns="http://www.w3.org/2000/svg">
<path d="M27.4531 7.10312C26.9062 3.73125 24.2688 1.09375 20.8969 0.546875C18.7063 0.190625 16.3937 0 14 0C11.6062 0 9.29375 0.190625 7.10312 0.546875C3.73125 1.09375 1.09375 3.73125 0.546875 7.10312C0.190625 9.29375 0 11.6062 0 14C0 16.3937 0.190625 18.7063 0.546875 20.8969C1.09375 24.2688 3.73125 26.9062 7.10312 27.4531C9.29375 27.8094 11.6062 28 14 28C16.3937 28 18.7063 27.8094 20.8969 27.4531C24.2688 26.9062 26.9062 24.2688 27.4531 20.8969C27.8094 18.7063 28 16.3937 28 14C28 11.6062 27.8094 9.29375 27.4531 7.10312Z" fill="url(#paint0_linear_14320_23890)"/>
<rect x="6.45007" y="7" width="5" height="5" rx="2.5" stroke="white" stroke-width="2"/>
<rect x="16.4501" y="17" width="5" height="5" rx="2.5" stroke="white" stroke-width="2"/>
<path d="M7 21L20.9501 7" stroke="white" stroke-width="2.4"/>
<defs>
<linearGradient id="paint0_linear_14320_23890" x1="14" y1="0" x2="14" y2="28" gradientUnits="userSpaceOnUse">
<stop stop-color="#49A0F0"/>
<stop offset="1" stop-color="#4C93F9"/>
</linearGradient>
</defs>
</svg>
