<svg width="28" height="28" viewBox="0 0 28 28" fill="none" xmlns="http://www.w3.org/2000/svg">
<path d="M27.4531 7.10312C26.9062 3.73125 24.2688 1.09375 20.8969 0.546875C18.7063 0.190625 16.3937 0 14 0C11.6062 0 9.29375 0.190625 7.10312 0.546875C3.73125 1.09375 1.09375 3.73125 0.546875 7.10312C0.190625 9.29375 0 11.6062 0 14C0 16.3937 0.190625 18.7063 0.546875 20.8969C1.09375 24.2688 3.73125 26.9062 7.10312 27.4531C9.29375 27.8094 11.6062 28 14 28C16.3937 28 18.7063 27.8094 20.8969 27.4531C24.2688 26.9062 26.9062 24.2688 27.4531 20.8969C27.8094 18.7063 28 16.3937 28 14C28 11.6062 27.8094 9.29375 27.4531 7.10312Z" fill="url(#paint0_linear_6552_18474)"/>
<path fill-rule="evenodd" clip-rule="evenodd" d="M22.1 9.6999L15.2 18.8999C14.7111 19.5518 13.7912 19.6941 13.1281 19.2205L10.7999 17.5575L7.26308 22.1048L4.89502 20.263L9.31593 14.579C9.80993 13.9439 10.7171 13.8116 11.3718 14.2793L13.6793 15.9275L19.7 7.8999L22.1 9.6999Z" fill="white"/>
<rect x="17" y="7" width="6" height="6" rx="3" fill="#F65454" stroke="white" stroke-width="2"/>
<defs>
<linearGradient id="paint0_linear_6552_18474" x1="14" y1="0" x2="14" y2="28" gradientUnits="userSpaceOnUse">
<stop stop-color="#7DA5CB"/>
<stop offset="1" stop-color="#6F9AC4"/>
</linearGradient>
</defs>
</svg>
