<svg width="28" height="28" viewBox="0 0 28 28" fill="none" xmlns="http://www.w3.org/2000/svg">
<path d="M27.4531 7.10312C26.9062 3.73125 24.2688 1.09375 20.8969 0.546875C18.7063 0.190625 16.3937 0 14 0C11.6062 0 9.29375 0.190625 7.10312 0.546875C3.73125 1.09375 1.09375 3.73125 0.546875 7.10312C0.190625 9.29375 0 11.6062 0 14C0 16.3937 0.190625 18.7063 0.546875 20.8969C1.09375 24.2688 3.73125 26.9062 7.10312 27.4531C9.29375 27.8094 11.6062 28 14 28C16.3937 28 18.7063 27.8094 20.8969 27.4531C24.2688 26.9062 26.9062 24.2688 27.4531 20.8969C27.8094 18.7063 28 16.3937 28 14C28 11.6062 27.8094 9.29375 27.4531 7.10312Z" fill="url(#paint0_linear_6552_18470)"/>
<path fill-rule="evenodd" clip-rule="evenodd" d="M17.0464 18.4606C16.8783 18.2925 16.6162 18.2685 16.4079 18.3831C15.6937 18.7763 14.873 19 14.0001 19C11.7235 19 9.80229 17.4785 9.19784 15.3969C9.13153 15.1685 8.92924 15.0001 8.69143 15.0001H6.62823C6.32754 15.0001 6.09371 15.2643 6.15199 15.5593C6.87741 19.2312 10.1154 22 14.0001 22C15.6455 22 17.1749 21.5033 18.4465 20.6515C18.6964 20.4841 18.7178 20.132 18.5051 19.9193L17.0464 18.4606ZM15.0001 8.69141C15.0001 8.92921 15.1686 9.13151 15.3969 9.19782C17.4786 9.80226 19.0001 11.7235 19.0001 14.0001C19.0001 14.873 18.7764 15.6937 18.3832 16.4079C18.2685 16.6162 18.2925 16.8783 18.4607 17.0464L19.9194 18.5051C20.1321 18.7178 20.4842 18.6964 20.6516 18.4465C21.5033 17.1749 22.0001 15.6455 22.0001 14.0001C22.0001 10.1154 19.2313 6.87741 15.5594 6.15199C15.2644 6.09371 15.0001 6.32754 15.0001 6.62823V8.69141ZM12.6033 9.19782C12.8317 9.13151 13.0001 8.92921 13.0001 8.69141V6.62823C13.0001 6.32754 12.7359 6.0937 12.4409 6.15197C9.27334 6.77773 6.77774 9.27331 6.15198 12.4409C6.0937 12.7359 6.32754 13.0001 6.62823 13.0001H8.69143C8.92924 13.0001 9.13153 12.8316 9.19784 12.6032C9.67356 10.9649 10.965 9.67354 12.6033 9.19782ZM19.6738 19.64L19.6406 19.6732C19.6517 19.6622 19.6628 19.6511 19.6738 19.64Z" fill="white"/>
<defs>
<linearGradient id="paint0_linear_6552_18470" x1="14" y1="0" x2="14" y2="28" gradientUnits="userSpaceOnUse">
<stop stop-color="#7DA5CB"/>
<stop offset="1" stop-color="#6F9AC4"/>
</linearGradient>
</defs>
</svg>
