<svg height="24" viewBox="0 0 446 24" width="446" xmlns="http://www.w3.org/2000/svg"><g fill="none"><path d="m9.408 2.184h4.312l.784 9.128 3.78-9.66h4.564l-6.44 15.848h-4.844l-1.092-7.784-3.22 7.784h-4.844l-1.876-15.316-.532-.532h5.096l.812 9.66zm23.464-2.156-.784 5.656h8.596l-1.624 11.816h-5.376l1.344-9.128h-3.22l-1.344 9.128h-5.376l2.408-16.66-.532-.812zm19.348 8.344h-2.856l-.252 1.064h-5.376l.812-3.752h13.16l-1.624 10.472 1.092 1.344h-12.628c-.541336 0-.947332-.1773316-1.218-.532s-.406-.802664-.406-1.344l.812-5.124h8.064zm-3.64 4.816-.28 1.624h2.688l.28-1.624zm13.916-9.128-.532-.812h5.908l-.364 2.436h3.332l-.56 2.688h-3.108l-.924 6.44h2.688l-.532 2.688h-5.908c-.541336 0-.9799983-.1773316-1.316-.532s-.4386673-.802664-.308-1.344l1.092-7.252h-2.156l.28-2.688h2.184zm30.744 2.324h-3.696l2.464-6.384h3.192zm15.624 8.428.252-1.876h-8.064l1.092-7.252h12.88l-.532 3.472h-4.648l.084-.784h-3.22l-.28 1.876h7.812l-.56 5.376c-.130667.541336-.429331.9893316-.896 1.344s-.970664.532-1.512.532h-10.752l.532-3.752.812 1.064z" fill="#eee"/><path d="m145.236 14.28.532-3.22h-10.752l1.344-9.408h15.848l-.532 4.564h-5.376l.28-1.876h-5.124l-.812 4.032h10.752l-1.064 7.252c0 .2613346-.060666.5086655-.182.742s-.284666.4339992-.49.602-.433999.2986662-.686.392-.517999.14-.798.14h-13.972l.532-4.312.812 1.092zm18.648-5.908h-2.856l-.252 1.064h-5.376l.812-3.752h13.16l-1.624 10.472 1.092 1.344h-12.628c-.541336 0-.947332-.1773316-1.218-.532s-.406-.802664-.406-1.344l.812-5.124h8.064zm-3.64 4.816-.28 1.624h2.688l.28-1.624zm14.448-13.16h6.944l-.476 2.688h-1.344l-.56 2.968h2.156l-.532 2.688h-1.876l-1.344 9.128h-5.376l1.344-9.128h-2.156l.28-2.688h2.128zm22.316 12.628h-8.596l-.28 2.156h7.532l1.344-1.064-.812 3.752h-11.816c-.541336 0-.947332-.1773316-1.218-.532s-.406-.802664-.406-1.344l1.344-9.94h13.972zm-7.812-4.284-.252 1.596h3.22l.28-1.596zm19.992 12.32.532-3.192h-8.596l1.596-11.816h14l-2.156 15.82c-.074667.541336-.317331.9893316-.728 1.344s-.886664.532-1.428.532h-12.096l.532-3.752 1.092 1.064zm-1.344-12.32-1.008 6.412h3.164l1.064-6.412zm18.116-2.688-1.232 8.4 3.36-.336 1.092-7.28-.812-.784h6.188l-1.624 11.816h-5.376l.168-1.064-8.764 1.064 1.624-11.032-.812-.784zm20.132 2.688h-2.856l-.252 1.064h-5.376l.812-3.752h13.16l-1.624 10.472 1.092 1.344h-12.628c-.541336 0-.947332-.1773316-1.218-.532s-.406-.802664-.406-1.344l.812-5.124h8.064zm-3.64 4.816-.28 1.624h2.688l.28-1.624zm17.668-7.504-.532 3.752 3.78-3.752h5.376l-9.156 8.064-.532 3.752h-5.376l1.568-11.032-.56-.784z" fill="#24ae8f"/><path d="m285.572.028-2.408 17.472h-12.096c-.541336 0-.947332-.1773316-1.218-.532s-.406-.802664-.406-1.344l1.344-9.94h8.596l.812-5.656zm-6.44 8.344h-3.388l-1.036 6.44h3.416z" fill="#24ae8f"/><path d="m323.12 1.652-1.064 8.596c-.149334.541336-.443331.9893316-.882 1.344s-.863331.532-1.274.532h-9.408l-.812 5.376h-5.096l1.876-15.064-.812-.784zm-11.536 2.688-.56 5.096h5.656l.812-5.096zm20.216 1.344-.532 3.752 3.78-3.752h5.376l-9.156 8.064-.532 3.752h-5.376l1.568-11.032-.56-.784zm22.764 0c.541336 0 .947332.21933114 1.218.658s.406.92866396.406 1.47l-1.344 9.688h-12.096c-.541336 0-.947332-.1773316-1.218-.532s-.406-.802664-.406-1.344l1.344-9.94zm-7 2.688-1.064 6.44h3.22l1.092-6.44zm19.74 12.32.532-3.192h-8.596l1.596-11.816h14l-2.156 15.82c-.074667.541336-.317331.9893316-.728 1.344s-.886664.532-1.428.532h-12.096l.532-3.752 1.092 1.064zm-1.344-12.32-1.008 6.412h3.164l1.064-6.412zm17.556-2.688-.532 3.752 3.78-3.752h5.376l-9.156 8.064-.532 3.752h-5.376l1.568-11.032-.56-.784zm18.62 2.688h-2.856l-.252 1.064h-5.376l.812-3.752h13.16l-1.624 10.472 1.092 1.344h-12.628c-.541336 0-.947332-.1773316-1.218-.532s-.406-.802664-.406-1.344l.812-5.124h8.064zm-3.64 4.816-.28 1.624h2.688l.28-1.624zm31.108-7.504-1.596 11.816h-4.844l1.344-9.128h-2.156l-1.344 9.128h-4.284l1.372-9.128h-2.128l-1.4 9.128h-4.844l1.624-11.032-.56-.784zm15.232 2.268-4.06 2.996-.308 2.128h-4.004l.504-3.668 4.032-2.716.224-1.54h-6.16l.476-3.5h10.164zm-8.54 6.328h4.088l-.448 3.192h-4.088z" fill="#eee"/></g></svg>