<svg height="132" viewBox="0 0 505 132" width="505" xmlns="http://www.w3.org/2000/svg" xmlns:xlink="http://www.w3.org/1999/xlink"><defs><path id="a" d="m19.6 16.84.88-6h30.4l-.88 6h16.72l1.84-12.88h-22.32l.56-3.84h-20.48l2.56 2.48-.24 1.36h-23.92l-1.84 12.88zm24.96 40.8c1.4933333 0 2.8533333-.5866667 4.08-1.76s1.9733333-2.6133333 2.24-4.32l2.88-20.64h10.8l1.2-8h-10.88l.72-4.64h-15.6l-.64 4.64h-37.2l-1.2 8h37.28l-2.56 18.16-7.36 8.56zm-13.92-7.12-4.24-16.96h-15.36l4.24 16.96zm125.52 7.12 6.16-27.84h27.52l3.36-23.92h-12.88l.8-5.68h-17.68l2.64 3.04-.4 2.64h-11.6l-10.96 51.76zm-22.72 0c1.333333 0 2.653333-.4933333 3.96-1.48s2.066667-2.2533333 2.28-3.8l2.32-16.64 4.88-1.36 1.12-8.4-4.8 1.28 1.36-9.68h4.72l1.04-7.6h-4.64l1.36-9.76h-15.92l1.6 2.32-1.04 7.44h-5.68l-1.04 7.6h5.6l-1.84 13.6-5.92 1.6-1.12 8.4 5.84-1.52-1.6 11.44-6.32 6.56zm45.2-35.36h-14.8l1.68-8.88h14.32zm113.92 35.28 4.24-30.48h13.76l1.12-8h-13.76l2.72-18.88h-18l2.64 2.8-2.32 16.08h-14.64l-1.12 8h14.64l-4.24 30.48zm-27.76-45.28-2.96-10.64h-12.08l2.88 10.64zm-20.08 45.44 21.28-4.4 1.2-8.24-7.12 1.12 4.32-30.88h-19.12l-1.04 7.6h5.44zm156.56-.08 1.52-10.4-2.8 2.24h-4.48l-2.4-10.4 8.48-4.56 1.44-9.92-11.76 6.24-1.92-8.32h15.12l1.12-7.68h-18l-3.28-14.64h-14.8l3.04 3.04 2.64 11.6h-7.28l-1.12 7.68h10.24l3.28 14.16-15.12 8.08-1.36 9.92 18.4-9.76 2.96 12.72zm20.48 0c1.493333 0 2.84-.5066667 4.04-1.52s1.906667-2.2666667 2.12-3.76l7.36-52.16h-14.32l1.68 3.52-6.48 46.56-7.04 7.36zm-20.16-48.88-1.28-6.96h-10.16l1.28 6.96zm12.72 36.64 5.52-39.04h-10.56l-5.52 39.04z"/><filter id="b" height="297.9%" width="126.2%" x="-13.1%" y="-99%"><feOffset dx="0" dy="0" in="SourceAlpha" result="shadowOffsetOuter1"/><feGaussianBlur in="shadowOffsetOuter1" result="shadowBlurOuter1" stdDeviation="19"/><feColorMatrix in="shadowBlurOuter1" type="matrix" values="0 0 0 0 1   0 0 0 0 1   0 0 0 0 1  0 0 0 0.5 0"/></filter></defs><g fill="none" transform="translate(34 37)"><use fill="#000" filter="url(#b)" xlink:href="#a"/><use fill="#fff" xlink:href="#a"/></g></svg>