<svg height="138" viewBox="0 0 873 138" width="873" xmlns="http://www.w3.org/2000/svg" xmlns:xlink="http://www.w3.org/1999/xlink"><defs><path id="a" d="m38.344 47.44c.76 0 1.482-.1266667 2.166-.38s1.3046667-.608 1.862-1.064 1.0006667-1.0006667 1.33-1.634.494-1.3046667.494-2.014l2.888-19.684h-29.184l2.204-10.944h13.908l-.76 5.092h14.592l1.444-12.388h-43.016l-3.648 25.536h29.184l-1.444 8.74h-26.296l-2.204-2.964-1.444 11.704zm56.088 0-2.964-3.648 4.408-28.424h-35.72l-2.204 10.184h14.592l.684-2.888h7.752l-1.14 5.776h-21.888l-2.204 13.908c0 1.4693333.3673333 2.6853333 1.102 3.648s1.8366667 1.444 3.306 1.444zm-16.796-7.296h-7.296l.76-4.408h7.296zm40.736 7.296 3.648-24.776h5.092l1.444-7.296h-5.852l1.52-8.056h3.648l1.292-7.296h-18.848l-2.204 15.352h-5.776l-.76 7.296h5.852l-3.648 24.776zm50.312 0 2.204-10.184-3.648 2.888h-20.444l.76-5.852h23.332l2.888-18.924h-37.924l-3.648 26.98c0 1.4693333.367333 2.6853333 1.102 3.648s1.836667 1.444 3.306 1.444zm-10.944-20.444h-8.74l.684-4.332h8.816zm54.948 36.404c1.469333 0 2.761333-.4813333 3.876-1.444s1.773333-2.1786667 1.976-3.648l5.852-42.94h-38l-4.332 32.072h23.332l-1.444 8.664h-19.684l-2.964-2.888-1.444 10.184zm-6.536-23.332h-8.588l2.736-17.404h8.74zm62.244 7.372 4.408-32.072h-16.796l2.204 2.128-2.964 19.76-9.12.912 3.344-22.8h-16.796l2.204 2.128-4.408 29.944 23.788-2.888-.456 2.888zm49.172 0-2.964-3.648 4.408-28.424h-35.72l-2.204 10.184h14.592l.684-2.888h7.752l-1.14 5.776h-21.888l-2.204 13.908c0 1.4693333.367333 2.6853333 1.102 3.648s1.836667 1.444 3.306 1.444zm-16.796-7.296h-7.296l.76-4.408h7.296zm38.532 7.296 1.444-10.184 24.852-21.888h-14.592l-10.26 10.184 1.444-10.184h-14.744l1.52 2.128-4.256 29.944zm65.436 0 6.536-47.424h-14.592l-2.204 15.352h-23.332l-3.648 26.98c0 1.4693333.367333 2.6853333 1.102 3.648s1.836667 1.444 3.306 1.444zm-13.68-7.296h-9.272l2.812-17.48h9.196zm85.652 7.296 2.204-14.592h25.536c1.114667 0 2.267333-.4813333 3.458-1.444s1.988667-2.1786667 2.394-3.648l2.888-23.332h-47.424l2.204 2.128-5.092 40.888zm19-21.888h-15.352l1.52-13.832h16.036zm38.152 21.888 1.444-10.184 24.852-21.888h-14.592l-10.26 10.184 1.444-10.184h-14.744l1.52 2.128-4.256 29.944zm65.436 0 3.648-26.296c0-1.4693333-.367333-2.7993333-1.102-3.99s-1.836667-1.786-3.306-1.786h-32.832l-3.648 26.98c0 1.4693333.367333 2.6853333 1.102 3.648s1.836667 1.444 3.306 1.444zm-13.908-7.296h-8.74l2.888-17.48h8.816zm56.468 23.256c1.469333 0 2.761333-.4813333 3.876-1.444s1.773333-2.1786667 1.976-3.648l5.852-42.94h-38l-4.332 32.072h23.332l-1.444 8.664h-19.684l-2.964-2.888-1.444 10.184zm-6.536-23.332h-8.588l2.736-17.404h8.74zm38.912 7.372 1.444-10.184 24.852-21.888h-14.592l-10.26 10.184 1.444-10.184h-14.744l1.52 2.128-4.256 29.944zm66.88 0-2.964-3.648 4.408-28.424h-35.72l-2.204 10.184h14.592l.684-2.888h7.752l-1.14 5.776h-21.888l-2.204 13.908c0 1.4693333.367333 2.6853333 1.102 3.648s1.836667 1.444 3.306 1.444zm-16.796-7.296h-7.296l.76-4.408h7.296zm37.088 7.296 3.8-24.776h5.776l-3.724 24.776h11.628l3.648-24.776h5.852l-3.648 24.776h13.148l4.332-32.072h-51.072l1.52 2.128-4.408 29.944z"/><filter id="b" height="279.9%" width="114.2%" x="-7.1%" y="-89.9%"><feOffset dx="0" dy="0" in="SourceAlpha" result="shadowOffsetOuter1"/><feGaussianBlur in="shadowOffsetOuter1" result="shadowBlurOuter1" stdDeviation="19"/><feColorMatrix in="shadowBlurOuter1" type="matrix" values="0 0 0 0 1   0 0 0 0 1   0 0 0 0 1  0 0 0 0.5 0"/></filter></defs><g fill="none" transform="translate(35 37)"><use fill="#000" filter="url(#b)" xlink:href="#a"/><use fill="#fff" xlink:href="#a"/></g></svg>