<svg height="27" viewBox="0 0 256 27" width="256" xmlns="http://www.w3.org/2000/svg"><g fill="none"><path d="m31.3927782 12.6375h-6.7059691l-1.9528371 14.2875h-6.890199l1.9528372-14.2875h-6.7059691l.5158438-3.5625h6.705969l1.0685336-7.725-1.2159175-1.3125h8.2903464l-1.2527635 9.0375h6.7059691zm-21.3706706-12.5625-3.72144437 26.8875h-6.30066323l2.91083272-21.0375-1.43699337.2625.62638173-4.5375zm48.2313928 26.925-.147384-1.9125-18.3861459 1.9125.7369197-4.125 12.9329403-18.6h7.0007369l-12.2697126 17.7375 9.6536478-.975-.5526898-6.7875h6.3006633l1.0316875 12.75zm-16.1016949-9.9h-7.000737l11.495947-16.2-.7369197-.9h8.4008843zm34.4509948 4.2375 3.3161385 1.05.9948416-7.0875h-11.5327929l.5158437-3.525h30.1031688l-.5158438 3.525h-11.5696389l-.2579219 1.8h9.8378777l-.5158438 3.5625h-9.8010317l-.2947678 2.1375h11.9012527l-.4789978 3.5625h-18.9019896l-4.3478261-1.3875-.5526898 1.3875h-7.0007369l3.7214444-8.85-.9579956-1.125h8.4008843z" fill="#fff"/><path d="m131.490923 14.45758h-5.007892l-1.335438 9.6884562c-.123653.8011166-.469874 1.4770487-1.038674 2.0278164-.568801.5507677-1.199418.8261474-1.891871.8261474h-7.530387l3.412787-4.0180807 1.187056-8.5243393h-17.286504l.556433-3.7552156h17.249408l.296764-2.17802504h7.233622l-.333859 2.17802504h5.044988zm-6.34333-9.42559113h-14.096291l-.40805 2.81641169h-7.75296l.853197-6.04589708h11.091554l.111287-.63838665-1.187056-1.16411683h9.496448l-.259668 1.80250348h10.349645l-.853197 6.04589708h-7.75296zm-9.385162 18.62586923h-7.122336l-1.966062-7.961057h7.122336zm21.923441.2628651.74191-5.3699582-2.707971.7134909.519337-3.9429763 2.745067-.7510432.853196-6.38386644h-2.596685l.482242-3.5674548h2.63378l.482242-3.49235049-.74191-1.08901251h7.382004l-.630623 4.581363h2.151539l-.482242 3.5674548h-2.188634l-.630624 4.54381084 2.22573-.6008345-.519337 3.9429764-2.262825.6383866-1.07577 7.8108484c-.098921.726012-.451325 1.3205818-1.057221 1.7837274-.605897.4631456-1.217966.6947149-1.836228.6947149h-6.417521z" fill="#24ae8f"/><path d="m100 1-1.3631579 10h-26.6l1.1789474-8.57142857-1.2157895-1.42857143zm-7.8473684 6.09022556h-12.6l-.1473684 1.05263158h12.6zm.4421052-3.2330827h-12.6l-.1473684 1.05263158h12.6z" fill="#fff"/><path d="m163.452077-0-.367412 2.66991643h5.915335l-1.543131 11.24373257h-12.638978l-2.829073 13.086351h-5.988818l5.033546-24.33008357h5.327476l.183706-1.24094707-1.21246-1.42896936zm-.58786 6.20473538h-6.576677l-.771566 4.17409472h6.797125z" fill="#24ae8f"/><path d="m200.506632 12.6175243h-6.329482l-1.950364 14.3073714h-6.881471l1.950363-14.3073714h-6.734274l.51519-3.75521554h6.734275l1.06718-7.54798331-1.214378-1.31432545h8.279846l-1.251176 8.86230876h6.329482zm-30.285836 14.3824757 2.281557-16.3351878h-2.502353l.478391-3.56745476h8.795036l-1.987163 14.49513216 3.27514-.5257302-.55199 3.867872zm7.875053-26.3240612 1.361575 4.99443672h-5.593496l-1.324775-4.99443672zm30.065041 6.19610571-1.214377-5.44506259-1.398374-1.42698192h6.807873l1.508772 6.87204451h8.279846l-.515191 3.60500699h-6.95507l.883183 3.9054242 5.4095-2.9290682-.662388 4.6564673-3.900727 2.1404729 1.103979 4.8817803h2.060762l1.287976-1.0514604-.699187 4.8817802h-7.396663l-1.361574-5.9707927-8.463843 4.581363.625589-4.6564673 6.95507-3.7927678-1.508772-6.6467315h-4.710312l.51519-3.60500699zm27.636286-6.87204451-3.385537 24.4840056c-.098132.700977-.42319 1.2892883-.975182 1.7649513s-1.171441.7134909-1.858365.7134909h-5.814292l3.238339-3.4547983 2.980745-21.85535465-.772786-1.65229485zm-7.102268 2.89151599-2.539153 18.32545201h-4.857509l2.539152-18.32545201zm-13.063757 1.12656468-.588789-3.26703755h4.673513l.588789 3.26703755zm39.22807 7.58553543-5.335901 4.0180807-.404792 2.8539638h-5.262302l.662388-4.9193324 5.299101-3.64255908.294395-2.06536856h-8.09585l.625589-4.69401948h13.358151zm-11.223791 8.4867872h5.3727l-.588789 4.2809458h-5.3727z" fill="#fff"/></g></svg>