<svg width="91" height="32" viewBox="0 0 91 32" fill="none" xmlns="http://www.w3.org/2000/svg">
<path fill-rule="evenodd" clip-rule="evenodd" d="M7.73435 14.0821L15.6962 22.0212L20.7235 16.9939C21.6107 16.1067 23.0438 16.1067 23.931 16.9939C24.8182 17.8811 24.8182 19.3142 23.931 20.2014L17.3113 26.8211C16.4241 27.7082 14.9682 27.7082 14.1038 26.8211L4.54962 17.2669V22.9539C4.54962 24.205 3.52595 25.2287 2.27481 25.2287C1.02366 25.2287 0 24.205 0 22.9539V5.16488C0 3.91374 1.02366 2.89007 2.27481 2.89007C3.52595 2.89007 4.54962 3.91374 4.54962 5.16488V10.8519L14.1038 1.29771C14.991 0.41053 16.4241 0.41053 17.3113 1.29771L23.931 7.9174C24.8182 8.80458 24.8182 10.2377 23.931 11.1249C23.0438 12.0121 21.6107 12.0121 20.7235 11.1249L15.6734 6.1203L7.73435 14.0821ZM15.6957 11.8074C14.4446 11.8074 13.4209 12.831 13.4209 14.0822C13.4209 15.3333 14.4446 16.357 15.6957 16.357C16.9469 16.357 17.9705 15.3333 17.9705 14.0822C17.9705 12.831 16.9469 11.8074 15.6957 11.8074Z" fill="#01BC8D"/>
<path fill-rule="evenodd" clip-rule="evenodd" d="M73.2791 8.44056C73.2791 7.96285 73.2791 7.50788 73.2563 7.09842C73.2336 6.68895 73.2109 6.30224 73.1426 5.93827C73.0744 5.5743 72.9606 5.23308 72.8241 4.9146C72.6649 4.59613 72.4602 4.3004 72.1872 4.02743C71.8005 3.64071 71.3683 3.34498 70.8678 3.14025C70.3673 2.93552 69.8214 2.82178 69.1844 2.82178C68.5475 2.82178 68.0015 2.93552 67.5011 3.14025C67.0006 3.34498 66.5684 3.64071 66.1817 4.02743C65.9087 4.3004 65.6812 4.59613 65.5447 4.9146C65.3855 5.23308 65.2945 5.5743 65.2263 5.93827C65.158 6.30224 65.1353 6.68895 65.1125 7.09842C65.0898 7.50788 65.0898 7.96285 65.0898 8.44056C65.0898 8.91827 65.0898 9.35048 65.1125 9.78269C65.1353 10.1922 65.158 10.5789 65.2263 10.9428C65.2945 11.3068 65.3855 11.648 65.5447 11.9665C65.704 12.285 65.9087 12.5807 66.1817 12.8537C66.5684 13.2404 67.0006 13.5361 67.5011 13.7409C68.0015 13.9456 68.5475 14.0593 69.1844 14.0593C69.8214 14.0593 70.3673 13.9456 70.8678 13.7409C71.3455 13.5361 71.8005 13.2404 72.1872 12.8537C72.4602 12.5807 72.6876 12.285 72.8241 11.9665C72.9834 11.648 73.0744 11.3068 73.1426 10.9428C73.2109 10.5789 73.2563 10.1922 73.2563 9.78269C73.2791 9.35048 73.2791 8.91827 73.2791 8.44056ZM71.1175 8.44061C71.1175 8.96381 71.1175 9.41877 71.0948 9.76C71.072 10.1012 71.0493 10.3969 71.0038 10.6244C70.9583 10.8519 70.9128 11.0339 70.8445 11.1704C70.7763 11.3069 70.6853 11.4434 70.5943 11.5571C70.4351 11.7391 70.2303 11.8756 70.0029 11.9893C69.7754 12.103 69.5024 12.1485 69.2067 12.1485C68.911 12.1485 68.638 12.103 68.4105 11.9893C68.1603 11.8756 67.9783 11.7391 67.819 11.5571C67.7053 11.4434 67.6371 11.3069 67.5688 11.1704C67.5006 11.0339 67.4551 10.8519 67.4096 10.6244C67.3641 10.3969 67.3413 10.124 67.3186 9.76C67.2958 9.41877 67.2958 8.96381 67.2958 8.44061C67.2958 7.9174 67.2958 7.46244 67.3186 7.12122C67.3413 6.77999 67.3641 6.48427 67.4096 6.25679C67.4551 6.02931 67.5006 5.84732 67.5688 5.71083C67.6371 5.57435 67.7281 5.43786 67.819 5.32412C67.9783 5.14213 68.183 5.00564 68.4105 4.8919C68.638 4.77816 68.911 4.73267 69.2067 4.73267C69.5024 4.73267 69.7754 4.77816 70.0029 4.8919C70.2303 5.00564 70.4351 5.14213 70.5943 5.32412C70.7081 5.43786 70.7763 5.57435 70.8445 5.71083C70.9128 5.84732 70.9583 6.02931 71.0038 6.25679C71.0493 6.48427 71.072 6.75725 71.0948 7.12122C71.0948 7.46244 71.1175 7.9174 71.1175 8.44061Z" fill="#01BC8D"/>
<path fill-rule="evenodd" clip-rule="evenodd" d="M90.4767 3.09483C90.4767 2.98109 90.3857 2.91284 90.2947 2.91284H88.5203C88.4066 2.91284 88.3383 3.00383 88.3383 3.09483V9.66903L83.9934 2.95834C83.9707 2.91284 83.9479 2.91284 83.8797 2.91284H82.2191C82.1281 2.91284 82.0371 3.00383 82.0371 3.09483C82.0371 6.64353 82.0371 10.215 82.0371 13.7637C82.0371 13.8774 82.1281 13.9457 82.2191 13.9457H83.9934C84.1072 13.9457 84.1754 13.8547 84.1754 13.7637V7.16674L88.5203 13.9002C88.5431 13.9457 88.5658 13.9457 88.6341 13.9457H90.2947C90.4084 13.9457 90.4767 13.8547 90.4767 13.7637V3.09483Z" fill="#01BC8D"/>
<path fill-rule="evenodd" clip-rule="evenodd" d="M78.5338 3.09483C78.5338 2.98109 78.4428 2.91284 78.3518 2.91284H76.5775C76.4638 2.91284 76.3955 3.00383 76.3955 3.09483V13.7637C76.3955 13.8774 76.4865 13.9457 76.5775 13.9457H78.3518C78.4656 13.9457 78.5338 13.8547 78.5338 13.7637V3.09483Z" fill="#01BC8D"/>
<path fill-rule="evenodd" clip-rule="evenodd" d="M57.2418 8.44051C57.2418 7.91731 57.2418 7.46235 57.2645 7.12112C57.2873 6.7799 57.31 6.48418 57.3555 6.2567C57.5148 5.30128 58.2427 4.75532 59.1754 4.75532C59.7896 4.75532 60.3355 4.9828 60.6767 5.50601C60.836 5.73349 60.9497 5.98372 61.018 6.27944C61.018 6.30219 61.0407 6.32494 61.0862 6.32494H63.179C63.2018 6.32494 63.2245 6.30219 63.2245 6.27944C62.997 4.9828 62.3146 3.82265 61.0862 3.25395C60.5175 2.98097 59.8806 2.84448 59.1754 2.84448C57.9925 2.84448 56.9915 3.25395 56.1954 4.05013C55.7404 4.50509 55.4219 5.0738 55.2854 5.71074C55.1717 6.32494 55.1035 7.25761 55.1035 8.46326C55.1035 9.66891 55.1717 10.5788 55.2854 11.2158C55.3992 11.8527 55.7177 12.4214 56.1954 12.8764C57.0143 13.6953 57.9925 14.082 59.1754 14.082C59.8806 14.082 60.5175 13.9456 61.0862 13.6726C62.3146 13.1039 62.997 11.921 63.2245 10.6471C63.2245 10.6243 63.2245 10.6016 63.179 10.6016H61.0862C61.0407 10.6016 61.0407 10.6243 61.018 10.6471C60.9497 10.9428 60.836 11.2158 60.6767 11.4205C60.3355 11.921 59.7668 12.1485 59.1754 12.1712C58.2427 12.1712 57.5148 11.6025 57.3555 10.6698C57.31 10.4423 57.2873 10.1694 57.2645 9.8054C57.2418 9.41868 57.2418 8.96372 57.2418 8.44051Z" fill="#01BC8D"/>
<path fill-rule="evenodd" clip-rule="evenodd" d="M35.108 3.09463C35.108 2.98088 35.0171 2.91264 34.9261 2.91264H33.1517C33.038 2.91264 32.9697 3.00363 32.9697 3.09463V13.7635C32.9697 13.8772 33.0607 13.9455 33.1517 13.9455H34.9261C35.0398 13.9455 35.108 13.8545 35.108 13.7635V10.6242L36.5412 8.91814L39.4757 13.9C39.4984 13.9455 39.5439 13.9455 39.5894 13.9455H41.7505C41.8415 13.9455 41.8642 13.8772 41.8187 13.7862L37.9743 7.28027L41.5003 3.04913C41.5685 2.95814 41.5458 2.88989 41.432 2.88989H39.0662C39.0207 2.88989 39.0207 2.88989 38.998 2.91264L35.1308 7.55325V3.09463H35.108Z" fill="#01BC8D"/>
<path fill-rule="evenodd" clip-rule="evenodd" d="M48.0746 12.1258C47.0736 12.1258 46.1637 11.1931 46.1637 10.1012V3.09483C46.1637 2.98109 46.0727 2.91284 45.9817 2.91284H44.2074C44.0936 2.91284 44.0254 3.00383 44.0254 3.09483V10.0557C44.0254 12.4898 45.8452 14.0367 48.0973 14.0367C50.3494 14.0367 52.1692 12.4898 52.1692 10.0557V3.09483C52.1692 2.98109 52.0782 2.91284 51.9872 2.91284H50.2129C50.0991 2.91284 50.0309 3.00383 50.0309 3.09483V10.1012C49.9854 11.2159 49.0755 12.1258 48.0746 12.1258Z" fill="#01BC8D"/>
<path d="M37.6162 28.3677H33.1062V21.2477H34.1862V27.3977H37.6162V28.3677ZM50.0984 28.3677H45.5484V21.2477H50.0984V22.2177H46.6284V24.2977H49.5884V25.2577H46.6284V27.3977H50.0984V28.3677ZM63.5138 28.3677H62.3638L61.8738 26.9377H59.0638L58.5738 28.3677H57.4238L60.0338 21.2477H60.9038L63.5138 28.3677ZM61.5738 26.0177L60.4938 22.8577L59.3838 26.0177H61.5738ZM76.4137 28.3677H75.1537L73.6537 25.3677H72.3037V28.3677H71.2237V21.2477H73.9837C74.6504 21.2477 75.1837 21.441 75.5837 21.8277C75.9904 22.2143 76.1937 22.7143 76.1937 23.3277C76.1937 23.8143 76.0604 24.2243 75.7937 24.5577C75.5337 24.8843 75.1937 25.1043 74.7737 25.2177L76.4137 28.3677ZM72.3037 22.2177V24.4477H73.9037C74.2704 24.4477 74.5637 24.351 74.7837 24.1577C75.0037 23.9577 75.1137 23.6843 75.1137 23.3377C75.1137 22.991 75.0037 22.7177 74.7837 22.5177C74.5637 22.3177 74.2704 22.2177 73.9037 22.2177H72.3037ZM89.8365 28.3677H88.8465L85.5565 23.3577V28.3677H84.4765V21.2477H85.4665L88.7565 26.2477V21.2477H89.8365V28.3677Z" fill="#01BC8D"/>
</svg>
