<svg fill="none" height="72" viewBox="0 0 72 72" width="72" xmlns="http://www.w3.org/2000/svg" xmlns:xlink="http://www.w3.org/1999/xlink"><clipPath id="a"><path d="m22 22h28v28h-28z"/></clipPath><circle cx="36" cy="36" fill="#7cda14" r="36"/><circle cx="36" cy="36" r="35.5" stroke="#fff" stroke-opacity=".24"/><g clip-path="url(#a)" fill="#000"><path d="m49.9427 22.4441c-.0545-.1316-.1469-.244-.2654-.3228-.1186-.0788-.258-.1205-.4004-.1198h-8.6121c-.0976-.0055-.1954.0089-.2873.0424-.0919.0336-.176.0855-.2471.1527s-.1278.1482-.1665.238-.0587.1866-.0587.2844.02.1946.0587.2845c.0387.0898.0954.1708.1665.238.0711.0671.1552.1191.2471.1526.0919.0336.1897.048.2873.0424h6.8832l-12.9886 12.9893c-.1345.1347-.2099.3173-.2098.5077.0002.1903.0759.3728.2106.5073s.3173.2099.5077.2098c.1903-.0001.3728-.0759.5073-.2106l12.9862-12.9885v6.8823c0 .1906.0757.3734.2105.5082.1347.1348.3175.2105.5081.2105s.3734-.0757.5082-.2105c.1347-.1348.2105-.3176.2105-.5082v-8.6089c.0003-.0964-.0187-.1919-.056-.2808z"/><path d="m49.2819 36.3597c-.0061-.1874-.0849-.3651-.2197-.4955-.1347-.1304-.3149-.2033-.5024-.2033s-.3677.0729-.5025.2033c-.1347.1304-.2135.3081-.2197.4955 0 .0093.0055.0171.0055.0265v9.0188c0 1.7422-1.4155 3.16-3.1585 3.16h-18.0914c-.8375-.0012-1.6404-.3346-2.2325-.927s-.9251-1.3954-.9259-2.233v-18.0914c.001-.8373.3341-1.64.9262-2.2319.5922-.592 1.3949-.9249 2.2322-.9258h9.029c.0054 0 .0109.0031.0163.0031.1845-.0104.3579-.0911.4847-.2254.1269-.1342.1976-.312.1976-.4967s-.0707-.3625-.1976-.4967c-.1268-.1343-.3002-.215-.4847-.2254-.0077 0-.0147.0038-.0225.0046h-9.0228c-1.218.0015-2.3857.486-3.247 1.3472-.8612.8613-1.3457 2.029-1.3472 3.247v18.0914c.0015 1.2181.4859 2.3859 1.3472 3.2473.8612.8614 2.0289 1.3461 3.247 1.3477h18.0922c1.2182-.0014 2.3861-.486 3.2475-1.3474.8615-.8614 1.346-2.0294 1.3475-3.2476v-9.0375z"/></g></svg>