<svg height="17" viewBox="0 0 18 17" width="18" xmlns="http://www.w3.org/2000/svg" xmlns:xlink="http://www.w3.org/1999/xlink"><mask id="a" fill="#fff"><path d="m0 0h18v17h-18z" fill="#fff" fill-rule="evenodd"/></mask><path d="m13.631728 4.14644661c.1952621.19526215.1952621.51184463 0 .70710678l-3.5355339 3.53553391 3.5355339 3.5355339c.1952621.1952621.1952621.5118446 0 .7071068-.1952622.1952621-.5118447.1952621-.7071068 0l-3.5355339-3.53553392-3.53553391 3.53553392c-.19526215.1952621-.51184463.1952621-.70710678 0-.19526215-.1952622-.19526215-.5118447 0-.7071068l3.53553391-3.5355339-3.53553391-3.53553391c-.19526215-.19526215-.19526215-.51184463 0-.70710678s.51184463-.19526215.70710678 0l3.53553391 3.53553391 3.5355339-3.53553391c.1952621-.19526215.5118446-.19526215.7071068 0z" fill="#b8c6d8" fill-opacity=".38" fill-rule="evenodd" mask="url(#a)"/></svg>