<svg fill="none" height="344" viewBox="0 0 309 344" width="309" xmlns="http://www.w3.org/2000/svg" xmlns:xlink="http://www.w3.org/1999/xlink"><filter id="a" color-interpolation-filters="sRGB" filterUnits="userSpaceOnUse" height="205" width="205" x="56" y="56"><feFlood flood-opacity="0" result="BackgroundImageFix"/><feBlend in="SourceGraphic" in2="BackgroundImageFix" mode="normal" result="shape"/><feGaussianBlur result="effect1_foregroundBlur_289_4323" stdDeviation="19.5"/></filter><filter id="b" color-interpolation-filters="sRGB" filterUnits="userSpaceOnUse" height="42.231" width="54.7251" x="240.282" y="46.6177"><feFlood flood-opacity="0" result="BackgroundImageFix"/><feBlend in="SourceGraphic" in2="BackgroundImageFix" mode="normal" result="shape"/><feGaussianBlur result="effect1_foregroundBlur_289_4323" stdDeviation="3.5"/></filter><filter id="c" color-interpolation-filters="sRGB" filterUnits="userSpaceOnUse" height="35.9622" width="50.9206" x="235.531" y="278.431"><feFlood flood-opacity="0" result="BackgroundImageFix"/><feBlend in="SourceGraphic" in2="BackgroundImageFix" mode="normal" result="shape"/><feGaussianBlur result="effect1_foregroundBlur_289_4323" stdDeviation="3.5"/></filter><filter id="d" color-interpolation-filters="sRGB" filterUnits="userSpaceOnUse" height="38.9521" width="51.0499" x=".407827" y="157.801"><feFlood flood-opacity="0" result="BackgroundImageFix"/><feBlend in="SourceGraphic" in2="BackgroundImageFix" mode="normal" result="shape"/><feGaussianBlur result="effect1_foregroundBlur_289_4323" stdDeviation="3.5"/></filter><linearGradient id="e" gradientUnits="userSpaceOnUse" x1="158" x2="158" y1="-22" y2="342"><stop offset="0" stop-color="#3f6eff"/><stop offset="1" stop-color="#0b3aca"/></linearGradient><linearGradient id="f" gradientUnits="userSpaceOnUse" x1="158" x2="158" y1="-10" y2="331"><stop offset="0" stop-color="#3f6eff"/><stop offset="1" stop-color="#2e5ef0"/></linearGradient><linearGradient id="g" gradientUnits="userSpaceOnUse" x1="158" x2="158" y1="-10" y2="331"><stop offset="0" stop-color="#3f6eff"/><stop offset="1" stop-color="#1747db"/></linearGradient><linearGradient id="h" gradientUnits="userSpaceOnUse" x1="158" x2="158" y1="0" y2="303"><stop offset="0" stop-color="#4673ff"/><stop offset="1" stop-color="#1a4dea"/></linearGradient><path d="m28-22.5h-.5v.5 295.393.301l.2666.141 130.0004 68.607.233.123.233-.123 130-68.607.267-.141v-.301-295.393-.5h-.5z" stroke="url(#e)"/><path d="m40-7h236v271.924l-118 62.679-118-62.679z" fill="url(#f)" fill-opacity=".5" stroke="url(#g)" stroke-width="6"/><path d="m57 0h202v250.602l-101 52.398-101-52.398z" fill="url(#h)" fill-opacity=".5"/><g filter="url(#a)"><circle cx="158.5" cy="158.5" fill="#2b73ff" r="63.5"/></g><path d="m141.741 20.9668c-2.623 1.5734-5.464-.6556-6.556-1.9668-1.049 7.3426 2.622 10.4894 4.589 11.145l3.278-.6556-.656-1.3112c-1.966-1.9668-3.278-2.6223-.655-7.2114z" fill="#d283ff"/><path d="m143.707 26.8669c-1.048 1.049-4.37 1.7483-5.9 1.9668 2.098 2.6223 7.43 2.8409 9.834 2.6223-1.311-1.3111-2.622-1.3111-3.934-4.5891z" fill="#e6baff"/><path d="m243.218 211.917c2.997-.609 4.932 2.44 5.525 4.041 3.438-6.573 1.026-10.764-.61-12.038l-3.308-.475.18 1.455c1.199 2.51 2.216 3.565-1.787 7.017z" fill="#ff7a00"/><path d="m243.332 205.699c1.339-.639 4.703-.191 6.218.113-1.103-3.172-6.057-5.156-8.396-5.751.799 1.673 2.035 2.11 2.178 5.638z" fill="#ffb800"/><path d="m73.1758 101.507c1.6166 3.636 6.3092 3.387 8.4535 2.807-4.3731 8.605-10.6365 9.212-13.2216 8.439l-3.0012-3.149 1.6787-.906c3.5655-.625 5.4523-.342 6.0906-7.191z" fill="#32ffbb"/><path d="m66.6691 106.321c.3329 1.901 3.348 5.13 4.8139 6.506-4.1953 1.225-10.0381-2.53-12.4351-4.56 2.377-.416 3.7736.565 7.6212-1.946z" fill="#07c989"/><g filter="url(#b)"><path d="m267.315 53.6177c3.662 9.1705 15.321 8.9973 20.692 7.7643-11.661 20.9191-27.248 21.8273-33.584 19.6665l-7.141-8.0938 4.248-2.0875c8.9-1.2085 13.551-.3295 15.785-17.2495z" fill="#ff3436"/></g><g filter="url(#c)"><path d="m245.024 299.33c-.994.568-1.803.125-2.493-1.679.856.592 1.687 1.151 2.493 1.679 2.106-1.204 5.043-6.945 9.434-13.899 5.891 9.371 14.535 9.466 24.994 12.912l-1.103 5.948c-7.819 1.145-12.477 8.675-33.325-4.961z" fill="#60ffc6"/></g><g filter="url(#d)"><path d="m25.5661 164.801c-2.833 8.395-13.2859 8.809-18.15827 7.967 11.46867 18.171 25.47687 18.223 31.04747 15.978l6.0025-7.6-3.908-1.663c-8.0318-.647-12.1557.367-14.9837-14.682z" fill="#b53cff"/></g><path d="m203 113.645c4.895-.774 7.06-4.839 7.531-6.774 2.824 0 6.59-.968 10.355-3.871 1.13 4.258-6.433 11.774-10.355 15-4.55-1.129-4.707-4.355-7.531-4.355z" fill="#308fff"/><path d="m93.3509 249.368c1.7277 3.744 5.3558 4.572 6.9541 4.518.653 2.259 2.268 5.056 5.373 7.423-3.015 1.85-10.5473-2.528-13.9365-4.948-.1834-3.891 2.2624-4.734 1.6094-6.993z" fill="#00f0ff"/><path d="m103 155c-4.8.4-7.3333-2.5-8-4 0 4.4 5.333 10.833 8 13.5 2-3.333 0-6 0-9.5z" fill="#ffd43d"/></svg>