<svg fill="none" height="92" viewBox="0 0 77 92" width="77" xmlns="http://www.w3.org/2000/svg" xmlns:xlink="http://www.w3.org/1999/xlink"><mask id="a" fill="#fff"><path d="m62.1174 15.9727h-56.79166v63.299h37.98426l18.8074-18.9305z" fill="#fff"/></mask><path d="m21.7607 8.88613 53.1402 14.17117-15.9276 59.1597-53.14025-14.1711z" stroke="#2c4182" stroke-width="2"/><path d="m62.1174 15.9727h-56.79166v63.299h37.98426l18.8074-18.9305z" fill="#051d4b"/><path d="m62.1174 15.9727h2v-2h-2zm-56.79166 0v-2h-2v2zm0 63.299h-2v2h2zm56.79166-18.9305 1.4188 1.4096.5812-.585v-.8246zm-18.8074 18.9305v2h.8323l.5865-.5904zm18.8074-65.299h-56.79166v4h56.79166zm-58.79166 2v63.299h4v-63.299zm60.79166 44.3685v-44.3685h-4v44.3685zm-58.79166 20.9305h37.98426v-4h-37.98426zm39.40306-.5904 18.8074-18.9305-2.8377-2.8192-18.8073 18.9305z" fill="#2c4182" mask="url(#a)"/><path d="m43.9213 61.4517h16.0907l-16.0907 15.3911z" stroke="#2c4182" stroke-width="2"/><path clip-rule="evenodd" d="m69.8083 2.36633v-2.36633h-1.1831v2.36633h-2.3656v1.18316h2.3656v2.3663h1.1831v-2.3663h2.3671v-1.18316z" fill="#2c4182" fill-rule="evenodd"/><path clip-rule="evenodd" d="m2.95673 88.7369v-1.7747h-1.18316v1.7747h-1.77357v1.1832h1.77357v1.7747h1.18316v-1.7747h1.77591v-1.1832z" fill="#2c4182" fill-rule="evenodd"/><g stroke="#2c4182" stroke-width="2"><path d="m13.2697 29.0972h40.5716v3.10859h-40.5716z"/><path d="m13.2697 40.1658h40.5716v3.10859h-40.5716z"/><path d="m13.2697 50.3831h40.5716v3.10859h-40.5716z"/><path d="m13.2697 61.4517h24.3944v2.25716h-24.3944z"/></g></svg>