<svg fill="none" height="26" viewBox="0 0 26 26" width="26" xmlns="http://www.w3.org/2000/svg"><g clip-rule="evenodd" fill="#fff" fill-rule="evenodd"><path d="m2.81635 18.3635c.14364 0 .28139.0571.38295.1586l2.1391 2.1391c4.23 4.23 11.0882 4.23 15.3182 0 2.3649-2.3649 3.4707-5.6273 3.1042-8.8775l-.0449-.3481 2.1438-.3115c.5861 4.0337-.7333 8.131-3.6713 11.069-4.9979 4.9979-13.05334 5.0747-18.14532.2306l-.23649-.2306-.60729.6072c-.2115.2115-.5544.2115-.7659 0-.10157-.1015-.15863-.2393-.15863-.3829v-3.5123c0-.2991.24247-.5416.54158-.5416zm.99123-14.5565c4.9979-4.99791 13.05332-5.0748 18.14532-.23068l.2365.23068.6073-.60729c.2115-.2115.5544-.2115.7659 0 .1015.10157.1586.23932.1586.38296v3.51229c0 .29911-.2425.54158-.5416.54158-.1436 0-.2814-.05706-.3829-.15863l-2.1391-2.1391c-4.23-4.22999-11.08821-4.22999-15.3182 0-2.36489 2.36489-3.47073 5.62729-3.10425 8.87749l.0449.3482-2.143804.3115c-.586041-4.0337.733333-8.131 3.671334-11.069z" fill-opacity=".6"/><path d="m6.22818 17.3305v-8.66522h-2.4371v1.62472h.81237v7.0405zm5.14502-7.0405c0-.89729-.7274-1.62471-1.62476-1.62471h-1.08316c-.89731 0-1.62473.72742-1.62473 1.62471v5.4158c0 .8973.72742 1.6248 1.62473 1.6248h1.08316c.89736 0 1.62476-.7275 1.62476-1.6248zm3.791-1.62471c.8974 0 1.6248.72742 1.6248 1.62471v5.4158c0 .8973-.7274 1.6248-1.6248 1.6248h-1.0831c-.8973 0-1.6247-.7275-1.6247-1.6248v-5.4158c0-.89729.7274-1.62471 1.6247-1.62471zm4.6035 2.16631-.8124-2.16631h-1.6247l1.6247 4.33261-1.6247 4.3327h1.6247l.8124-2.1664.8123 2.1664h1.6248l-1.6248-4.3327 1.6248-4.33261h-1.6248zm-10.01925-.5416h-1.08316v5.4158h1.08316zm4.33265 0h1.0832v5.4158h-1.0832z"/></g></svg>