<svg fill="none" height="46" viewBox="0 0 152 46" width="152" xmlns="http://www.w3.org/2000/svg"><path d="m13.2074.5h-.3065l-.139.27304-11.20742 21.99996-.11562.227.11562.227 11.20742 22 .139.273h.3065 124.4606.293l.143-.2555 12.332-22 .137-.2445-.137-.2445-12.332-21.99998-.143-.25552h-.293z" stroke="#898989"/><path d="m15.792 2.85h-.0895l-.0425.07877-10.79201 20.00003-.03843.0712.03843.0712 10.79201 20 .0425.0788h.0895 119.848.087l.043-.0759 11.36-20 .043-.0741-.043-.0741-1.579-2.7815-.024-.0413-.023-.0413-.024-.0412-.023-.0412-.024-.0411-.023-.041-.023-.041-.023-.0409-.024-.0409-.023-.0408-.023-.0408-.023-.0407-.046-.0813-.023-.0405-.023-.0405-.023-.0404-.023-.0404-.046-.0806-.023-.0402-.023-.0402-.022-.0401-.023-.0401-.023-.04-.023-.04-.022-.0399-.023-.0399-.022-.0398-.023-.0397-.023-.0397-.022-.0397-.179-.3156-.178-.3126-.022-.0388-.022-.0388-.022-.0388-.022-.0388-.022-.0387-.022-.0386-.022-.0386-.022-.0386-.022-.0385-.022-.0385-.021-.0385-.022-.0384-.022-.0383-.022-.0384-.022-.0382-.021-.0383-.022-.0382-.022-.0382-.021-.0381-.022-.0381-.022-.038-.021-.038-.022-.038-.021-.0379-.172-.3023-.17-.3-.043-.0747-.021-.0372-.021-.0373-.021-.0372-.021-.0372-.021-.0372-.022-.0371-.042-.0742-.021-.0371-.021-.037-.021-.037-.021-.037-.021-.0369-.021-.0369-.021-.0369-.021-.0369-.021-.0368-.02-.0368-.042-.0735-.021-.0368-.021-.0367-.021-.0367-.021-.0366-.02-.0367-.021-.0366-.021-.0366-.021-.0365-.021-.0366-.02-.0365-.042-.0729-.02-.0365-.021-.0364-.021-.0364-.02-.0364-.021-.0364-.021-.0363-.02-.0364-.021-.0363-.021-.0363-.02-.0363-.041-.0724-.021-.0363-.021-.0362-.02-.0361-.021-.0362-.02-.0362-.021-.0361-.02-.0361-.021-.0361-.02-.0361-.021-.0361-.041-.0721-.02-.036-.021-.036-.02-.036-.02-.036-.021-.036-.02-.036-.021-.0359-.02-.0359-.021-.036-.02-.0359-.02-.0359-.021-.0359-.02-.0359-.021-.0358-.65-1.1445-.65-1.1444-.163-.2873-.02-.036-.021-.036-.02-.0359-.021-.036-.02-.0361-.02-.036-.021-.036-.02-.0361-.021-.0361-.02-.036-.021-.0362-.02-.0361-.021-.0361-.02-.0362-.021-.0361-.021-.0362-.041-.0724-.02-.0363-.021-.0362-.02-.0363-.021-.0363-.021-.0363-.02-.0363-.021-.0364-.021-.0363-.02-.0364-.021-.0364-.021-.0365-.02-.0364-.021-.0365-.021-.0365-.021-.0365-.02-.0366-.021-.0365-.021-.0366-.021-.0366-.021-.0366-.041-.0734-.021-.0367-.021-.03672-.021-.03675-.021-.03678-.021-.03681-.02-.03683-.021-.03686-.021-.03689-.021-.03691-.021-.03694-.021-.03697-.021-.03699-.085-.14827-.084-.14874-.021-.03726-.021-.0373-.022-.03732-.021-.03735-.021-.03739-.021-.03742-.022-.03745-.021-.03748-.085-.15028-.172-.30221-.021-.03794-.022-.03797-.043-.07607-.022-.03809-.021-.03812-.022-.03817-.022-.0382-.022-.03825-.021-.03828-.022-.03833-.022-.03836-.022-.03841-.022-.03844-.021-.03849-.022-.03852-.022-.03857-.022-.03862-.022-.03865-.022-.0387-.022-.03874-.022-.03878-.022-.03883-.022-.03887-.022-.03891-.022-.03896-.023-.039-.022-.03905-.022-.0391-.022-.03914-.045-.07841-.179-.31557-.181-.3187-.023-.04007-.023-.04012-.022-.04017-.023-.04022-.023-.04028-.023-.04033-.023-.04038-.023-.04044-.023-.04049-.023-.04054-.023-.0406-.023-.04065-.023-.04071-.023-.04077-.024-.04082-.023-.04087-.023-.04094-.023-.04099-.024-.04104-.023-.04111-.023-.04116-.024-.04122-.023-.04128-.024-.04134-.023-.04139-.024-.04146-.023-.04151-.024-.04158-.024-.04163-.023-.0417-.024-.04175-.024-.04182-.024-.04188-.023-.04194-.024-.042-.024-.04206-.024-.04213-.024-.04219-.024-.04225-.024-.04232-.194-.34085-.024-.0429-.024-.04297-.025-.04304-.024-.0431-.025-.04317-.024-.04323-.05-.08668-.024-.04345-.025-.04351-.025-.04358-.025-.04365-.024-.04372-.025-.04379-.025-.04386-.025-.04394-.025-.044-.025-.04408-.025-.04414-.025-.04422-.026-.04429-.025-.04437-.025-.04443-.025-.04451-.026-.04459-.025-.04466-.025-.04473-.026-.04481-.051-.08983-.025-.04504-.026-.0451-.103-.1812-.026-.04549-.026-.04557-.026-.04565-.026-.04572-.043-.07592h-.087z" fill="#b5b5b5" stroke="#000" stroke-width=".3"/></svg>