<svg fill="none" height="238" viewBox="0 0 253 238" width="253" xmlns="http://www.w3.org/2000/svg" xmlns:xlink="http://www.w3.org/1999/xlink"><filter id="a" color-interpolation-filters="sRGB" filterUnits="userSpaceOnUse" height="42.272" width="38.672" x="97.5516" y="81.728"><feFlood flood-opacity="0" result="BackgroundImageFix"/><feColorMatrix in="SourceAlpha" result="hardAlpha" type="matrix" values="0 0 0 0 0 0 0 0 0 0 0 0 0 0 0 0 0 0 127 0"/><feOffset dx="3"/><feGaussianBlur stdDeviation="2"/><feComposite in2="hardAlpha" operator="out"/><feColorMatrix type="matrix" values="0 0 0 0 0 0 0 0 0 0.203056 0 0 0 0 0.716667 0 0 0 0.48 0"/><feBlend in2="BackgroundImageFix" mode="normal" result="effect1_dropShadow_40_3816"/><feBlend in="SourceGraphic" in2="effect1_dropShadow_40_3816" mode="normal" result="shape"/></filter><linearGradient id="b" gradientUnits="userSpaceOnUse" x1="116" x2="141.5" y1="112.5" y2="129"><stop offset="0" stop-color="#fff"/><stop offset="1" stop-color="#cfadff"/></linearGradient><linearGradient id="c" gradientUnits="userSpaceOnUse" x1="120.5" x2="87.9998" y1="106.5" y2="98"><stop offset="0" stop-color="#fff"/><stop offset="1" stop-color="#8cadff"/></linearGradient><path d="m62.6778 126.937c-1.8395-1.593-7.9756-2.049-10.8136-2.078.9239-.766 8.8402-2.132 12.6829-2.719 1.2104 2.244 3.1907 3.85 6.26 5.202 13.7282-.987 14.9167-26.248 17.3548-28.2685 1.0335-3.4543.9121-5.9513-10.068-17.632 6.3897 4.5752 21.9361 8.4449 28.9101 9.8079-.066.704 1.276 1.5399 1.276 1.5399 3.103-3.5833.557-11.6028-1.225-15.4528-.048-.0998-.095-.1997-.141-.2995.046.0968.093.1966.141.2995 4.207 8.8119 13.474 17.6685 15.878 18.2446 10.26-6.4257 18.786-18.6007 21.766-23.885-3.936 11.705-3.111 14.2679-1.064 15.1696 1.463 3.3329 12.506-8.4171 14.177-11.1014 1.672-2.6844 17.133-38.8777 19.2-45.7862s6.159-5.1051 5.455-5.171 4.71 10.3836 5.546 9.0414c.668-1.0737 2.866-10.3847 3.881-14.906.25 9.9663-2.362 21.44-4.793 20.8573-5.546-9.0414-10.88-1.3734-12.035-.4162s-10.512 28.8444-12.887 31.4629c-1.901 2.0947-2.647 8.0379-2.782 10.7477-3.893 3.66-12.283 11.3498-14.694 12.8286s-4.561 5.7282-5.334 7.6682l2.233 2.695c3.961 3.211 4.599 3.981 16.051 6.828-16.006.278-15.246 3.545-16.016 4.183-.616.51.675 2.904 1.398 4.037 3.876 2.848 11.441 6.752 14.444 8.809 2.253.211 12.007 10.83 16.602 16.113l9.142 4.761c-3.839-.714-12.09-3.617-16.886-5.486-17.321-15.257-25.42-14.216-27.305-11.788-1.474.572-1.869 4.796-1.494 8.382-.519 2.508 2.359 11.466 3.863 15.631-3.969-8.184-14.535-23.021-19.012-24.506-5.685.036-7.86 10.628-8.237 15.919-1.166-2.713-3.972-8.397-5.865-9.426-2.365-1.287-10.5809 6.821-12.5716 9.121-1.9907 2.299-5.6829 13.389-8.9048 21.254-3.0693 7.494-13.4658 17.524-14.1108 18.181-.0066.011-.0139.02-.0218.027-.0183.015-.0103.006.0218-.027.3135-.543-.8673-6.429-2.3108-5.869-1.1792.458-4.6716-.674-6.2704-1.297-3.1167.419-9.8515 2.061-11.8575 5.282s-7.6842 8.75-10.2726 11.112c1.8948-6.333 7.4565-11.375 13.3627-17.57 7.6784 1.429 27.4225-8.441 31.4039-13.04 3.1851-3.679.7883-6.882 2.1918-13.025-.4405-2.882.4716-8.833 3.6831-12.793 3.2751-4.04-1.4671-5.563-2.7029-6.271-2.541.591-2.1121-.198-3.9051-.01 2.9743-1.426 6.3721-4.849 7.6992-6.382.4694.044.7831-.779-1.7167-4.421-2.4998-3.643-13.8265 9.542-22.7373 6.104-1.43.102-4.7499-.09-6.5894-1.682z" fill="#000"/><path d="m106.704 130.24c.816 1.92 1.632 2.928 3.12 3.936 2.304 1.536 6.096 2.448 10.176 2.448 4.608 0 8.352-1.152 10.656-3.312 2.112-1.92 3.36-5.424 3.36-9.216 0-4.656-2.16-6.72-8.976-8.544-4.08-1.152-5.136-1.872-5.136-3.648 0-2.4 1.632-3.888 4.272-3.888 2.544 0 3.984.864 5.232 3.168l7.008-3.984c-1.728-4.128-5.52-6.048-11.808-6.048-8.256 0-13.2 4.512-13.2 12.096 0 2.928.912 4.944 2.976 6.528 1.776 1.344 2.928 1.776 8.256 3.168 2.064.528 2.88 1.296 2.88 2.736 0 2.64-1.824 4.08-5.136 4.08-3.6 0-5.424-1.008-6.48-3.648z" fill="url(#b)"/><g filter="url(#a)"><path d="m104.072 120h7.536l17.616-34.272h-8.688l-10.896 23.136-2.736-23.136h-8.3524z" fill="url(#c)"/></g></svg>