<svg fill="none" height="175" viewBox="0 0 152 175" width="152" xmlns="http://www.w3.org/2000/svg" xmlns:xlink="http://www.w3.org/1999/xlink"><linearGradient id="a"><stop offset=".178136" stop-color="#fdefa4"/><stop offset=".759134" stop-color="#fffbe2"/></linearGradient><linearGradient id="b" gradientUnits="userSpaceOnUse" x1="-38.5419" x2="69.4881" xlink:href="#a" y1="21.1689" y2="61.9697"/><linearGradient id="c"><stop offset=".0443692" stop-color="#c2f0e2"/><stop offset=".657221" stop-color="#d9fff5"/><stop offset=".868456" stop-color="#d9fff5"/><stop offset="1" stop-color="#fff" stop-opacity="0"/></linearGradient><linearGradient id="d" gradientUnits="userSpaceOnUse" x1="-12.2398" x2="133.861" xlink:href="#c" y1="-58.0503" y2="4.6084"/><linearGradient id="e"><stop offset="0" stop-color="#8dfbda"/><stop offset=".848958" stop-color="#d9fff6"/></linearGradient><linearGradient id="f" gradientUnits="userSpaceOnUse" x1="-24.6596" x2="10.479" xlink:href="#e" y1="20.8537" y2="27.0791"/><linearGradient id="g" gradientUnits="userSpaceOnUse" x1="185.541" x2="77.5112" xlink:href="#a" y1="21.1689" y2="61.9697"/><linearGradient id="h" gradientUnits="userSpaceOnUse" x1="159.239" x2="13.1384" xlink:href="#c" y1="-58.0503" y2="4.6084"/><linearGradient id="i" gradientUnits="userSpaceOnUse" x1="171.659" x2="136.52" xlink:href="#e" y1="20.8537" y2="27.0791"/><linearGradient id="j" gradientUnits="userSpaceOnUse" x1="96.2874" x2="5.27014" y1="159.113" y2="211.184"><stop offset="0" stop-color="#fff"/><stop offset="1" stop-color="#fff" stop-opacity="0"/></linearGradient><mask id="k" height="175" maskUnits="userSpaceOnUse" width="152" x="0" y="0"><rect fill="#d9d9d9" height="175" rx="8" transform="matrix(-1 0 0 1 152 0)" width="152"/></mask><g mask="url(#k)"><rect fill="#eafef9" height="175" rx="8" transform="matrix(-1 0 0 1 152 0)" width="152"/><g fill="#fff" opacity=".6" stroke="#fff"><path d="m2.86318 35.741c-.01681-.0447-.00683-.1018.02228-.1276.0291-.0258.06633-.0105.08313.0342.01681.0447.00683.1018-.02227.1276-.02911.0258-.06634.0105-.08314-.0342z"/><path d="m6.61176 30.2101c-.05861-.1558-.02617-.353.07246-.4404.09863-.0875.22609-.032.28471.1239.05862.1558.02619.353-.07244.4405-.09863.0874-.22611.0319-.28473-.124z"/><path d="m10.3544 24.6905c-.1005-.2672-.0432-.6067.1279-.7584.1712-.1517.3914-.0581.4919.2091s.0432.6068-.128.7585c-.1711.1517-.3913.058-.4918-.2092z"/><path d="m14.1392 19.1437c-.134-.3563-.0592-.8077.1671-1.0082.2262-.2005.5183-.0743.6523.2819.1339.3563.0591.8077-.1671 1.0082-.2263.2005-.5183.0743-.6523-.2819z"/><path d="m17.9347 13.5765c-.1592-.4231-.0694-.9599.2003-1.199.2698-.2391.6175-.09.7766.3331.1591.423.0694.9598-.2004 1.1989s-.6174.09-.7765-.333z"/><path d="m21.7634 7.98974c-.1759-.46758-.0786-1.0592.2173-1.32144s.6783-.0958.8542.37178.0786 1.05923-.2173 1.32147c-.2959.26225-.6784.09577-.8542-.37181z"/><path d="m25.629 2.36096c-.1792-.47648-.0776-1.0816.227-1.35155.3046-.26996.6968-.102532.876.37395.1792.47649.0776 1.08158-.227 1.35153-.3046.26996-.6968.10256-.876-.37393z"/><path d="m2.40668 47.7441c-.10887-.2895-.04896-.6554.1338-.8174.18275-.162.41916-.0586.52802.2308.10887.2895.04897.6554-.13379.8174-.18275.162-.41917.0586-.52803-.2308z"/><path d="m6.15919 42.2245c-.15073-.4008-.06598-.9091.1893-1.1353.25528-.2263.58442-.0848.73515.316s.06598.9091-.1893 1.1353c-.25528.2263-.58441.0848-.73515-.316z"/><path d="m10.0317 36.5858c-.15069-.4008-.06594-.9091.1893-1.1353.2553-.2263.5845-.0848.7352.316s.066.9091-.1893 1.1353c-.2553.2263-.5844.0848-.7352-.316z"/><path d="m13.9094 30.9589c-.1507-.4008-.066-.9091.1893-1.1354.2553-.2262.5844-.0847.7352.3161.1507.4007.066.909-.1893 1.1353-.2553.2262-.5844.0848-.7352-.316z"/><path d="m17.7905 25.3163c-.1507-.4008-.0659-.9091.1893-1.1353.2553-.2263.5845-.0848.7352.316s.066.9091-.1893 1.1353c-.2553.2263-.5844.0848-.7352-.316z"/><path d="m21.6569 19.6958c-.1541-.4097-.0673-.9294.1937-1.1608.2611-.2314.5977-.0869.7518.3228.154.4097.0673.9294-.1938 1.1608s-.5976.0868-.7517-.3228z"/><path d="m25.5153 14.0725c-.1591-.423-.0694-.9598.2004-1.1989s.6175-.09.7766.3331c.1591.423.0694.9598-.2004 1.1989s-.6175.09-.7766-.3331z"/><path d="m29.3692 8.45182c-.1675-.44531-.0728-1.01057.2114-1.26252.2843-.25196.6506-.09522.818.35009.1675.44532.0728 1.01056-.2114 1.26252-.2843.25196-.6506.09522-.818-.35009z"/><path d="m33.2249 2.84134c-.1758-.46758-.0785-1.05921.2174-1.32145.2959-.26225.6783-.0958.8542.37178.1758.46757.0785 1.0592-.2174 1.32145-.2959.26224-.6783.09579-.8542-.37178z"/><path d="m2.13154 59.5991c-.14236-.3785-.06259-.8583.17819-1.0717.24077-.2134.55137-.0796.69373.299.14236.3785.06258.8583-.1782 1.0717-.24077.2134-.55136.0795-.69372-.299z"/><path d="m6.03663 53.9327c-.13399-.3562-.05917-.8076.1671-1.0081.22627-.2006.51831-.0743.65229.2819.13399.3563.05919.8076-.16708 1.0082-.22627.2005-.51832.0743-.65231-.282z"/><path d="m9.92526 48.2918c-.12897-.3429-.05479-.7792.16564-.9746.2205-.1954.5038-.0759.6328.267.1289.3429.0547.7793-.1657.9747-.2205.1954-.5038.0758-.63274-.2671z"/><path d="m13.8156 42.6413c-.1256-.3339-.0558-.7568.156-.9445s.4853-.0691.6109.2649.0558.7569-.156.9445c-.2118.1877-.4853.0691-.6109-.2649z"/><path d="m17.7095 36.9985c-.1206-.3207-.0514-.7286.1546-.9111s.4707-.0706.5913.25c.1206.3207.0513.7285-.1546.9111-.206.1825-.4707.0706-.5913-.25z"/><path d="m21.5716 31.3679c-.1256-.334-.0558-.7569.156-.9446.2118-.1876.4853-.069.6109.2649.1256.334.0558.7569-.156.9446s-.4853.0691-.6109-.2649z"/><path d="m25.4345 25.7567c-.1289-.3429-.0547-.7793.1657-.9747.2205-.1954.5038-.0758.6327.2671.129.3429.0548.7792-.1657.9746-.2204.1954-.5037.0759-.6327-.267z"/><path d="m29.3035 20.1202c-.134-.3562-.0592-.8076.1671-1.0081.2262-.2006.5183-.0743.6523.2819.134.3563.0592.8076-.1671 1.0082-.2263.2005-.5183.0743-.6523-.282z"/><path d="m33.1546 14.5112c-.1423-.3785-.0626-.8583.1782-1.0717s.5514-.0796.6937.299c.1424.3785.0626.8583-.1782 1.0717-.2407.2134-.5513.0795-.6937-.299z"/><path d="m36.9922 8.90862c-.1541-.40969-.0673-.92939.1938-1.16078.261-.23139.5976-.08684.7517.32285.1541.40968.0673.92939-.1937 1.16078-.2611.23139-.5977.08684-.7518-.32285z"/><path d="m40.825 3.30924c-.1675-.44532-.0728-1.01056.2115-1.26252.2842-.25196.6505-.09522.818.3501.1674.44531.0728 1.01056-.2115 1.26252-.2843.25195-.6505.09521-.818-.3501z"/><path d="m1.98622 71.337c-.13399-.3562-.05918-.8076.16709-1.0081.22627-.2006.51831-.0744.6523.2819.13398.3562.05918.8076-.16709 1.0082-.22627.2005-.51832.0743-.6523-.282z"/><path d="m5.91421 65.6527c-.11724-.3117-.05237-.7062.14489-.881s.45221-.0638.56945.2479.05236.7061-.1449.8809c-.19726.1749-.4522.0639-.56944-.2478z"/><path d="m9.82356 59.9941c-.10887-.2894-.04896-.6554.1338-.8174.18274-.1619.41914-.0586.52804.2308.1088.2895.0489.6554-.1338.8174-.1828.162-.41918.0587-.52804-.2308z"/><path d="m13.719 54.3409c-.1005-.2672-.0432-.6067.1279-.7584.1712-.1517.3914-.0581.4919.2091s.0432.6068-.1279.7584c-.1712.1517-.3914.0581-.4919-.2091z"/><path d="m17.6113 48.6926c-.0955-.2538-.0412-.5763.1213-.7203.1624-.1439.3715-.0549.467.199.0954.2538.0411.5763-.1213.7203-.1625.1439-.3715.0549-.467-.199z"/><path d="m21.4922 43.054c-.0955-.2538-.0412-.5763.1213-.7203.1624-.144.3715-.0549.4669.1989.0955.2538.0412.5763-.1212.7203-.1625.144-.3716.0549-.467-.1989z"/><path d="m25.3659 37.4133c-.0954-.2538-.0411-.5763.1213-.7202.1625-.144.3716-.055.467.1989.0955.2538.0412.5763-.1213.7203-.1624.1439-.3715.0549-.467-.199z"/><path d="m29.2272 31.7999c-.1005-.2672-.0432-.6067.1279-.7584.1712-.1517.3914-.0581.4919.2091s.0432.6067-.128.7584c-.1711.1517-.3913.0581-.4918-.2091z"/><path d="m33.086 26.1738c-.1088-.2895-.0489-.6554.1338-.8174.1828-.162.4192-.0586.528.2308.1089.2895.049.6554-.1338.8174-.1827.162-.4191.0586-.528-.2308z"/><path d="m36.9385 20.5667c-.1173-.3117-.0524-.7061.1449-.8809.1973-.1749.4522-.0639.5694.2478.1173.3117.0524.7062-.1449.881-.1972.1748-.4522.0639-.5694-.2479z"/><path d="m40.7699 14.9676c-.129-.3429-.0548-.7792.1657-.9746.2204-.1954.5037-.0759.6327.267.1289.3429.0547.7793-.1657.9747-.2205.1954-.5038.0758-.6327-.2671z"/><path d="m44.6061 9.37506c-.1458-.38742-.064-.87864.1826-1.09718.2466-.21853.5646-.08163.7103.30579s.0639.87865-.1827 1.09718c-.2465.21854-.5645.08163-.7102-.30579z"/><path d="m48.4373 3.77177c-.1591-.42305-.0694-.95984.2004-1.19894.2698-.23911.6175-.08998.7766.33307.1591.42304.0694.9598-.2004 1.19891-.2698.2391-.6175.09001-.7766-.33304z"/><path d="m1.83905 83.0691c-.12561-.334-.05576-.7569.156-.9446.21177-.1877.48527-.0691.61088.2649.12562.334.05577.7569-.156.9446-.21176.1877-.48527.0691-.61088-.2649z"/><path d="m5.77009 77.3925c-.10886-.2894-.04896-.6554.1338-.8173.18276-.162.41916-.0587.52802.2308.10887.2894.04896.6554-.13379.8174-.18276.1619-.41916.0586-.52803-.2309z"/><path d="m9.69733 71.7077c-.09212-.2449-.0398-.556.11684-.6948.15665-.1389.35833-.0528.45043.1921s.0398.556-.1168.6948c-.15669.1389-.35836.0529-.45047-.1921z"/><path d="m13.6008 66.055c-.0837-.2227-.0364-.5053.1058-.6313.1421-.1259.3252-.0476.409.1751.0837.2227.0364.5053-.1058.6313-.1421.1259-.3252.0476-.409-.1751z"/><path d="m17.502 60.3925c-.0753-.2003-.033-.4545.0947-.5676.1276-.1132.2922-.0424.3675.158.0754.2004.033.4545-.0946.5676-.1276.1132-.2922.0424-.3676-.158z"/><path d="m21.4007 54.7462c-.0704-.187-.031-.4241.088-.5295.1189-.1054.2723-.0393.3427.1478.0703.187.0309.4241-.088.5295s-.2724.0392-.3427-.1478z"/><path d="m25.2846 49.0992c-.067-.1781-.0296-.4038.0835-.5041s.2592-.0371.3262.141c.0669.1781.0295.4038-.0836.504-.1131.1003-.2592.0372-.3261-.1409z"/><path d="m29.1627 43.4703c-.067-.1781-.0296-.4038.0836-.5041.1131-.1003.2591-.0372.3261.141.067.1781.0296.4038-.0835.504-.1132.1003-.2592.0372-.3262-.1409z"/><path d="m33.0111 37.8554c-.0754-.2004-.033-.4545.0946-.5676.1276-.1132.2922-.0424.3676.158.0753.2004.033.4545-.0947.5676-.1276.1131-.2922.0424-.3675-.158z"/><path d="m36.8803 32.2212c-.0787-.2093-.0343-.4749.0991-.5931.1335-.1183.3055-.0445.3842.1648s.0343.4748-.0991.5931-.3054.0445-.3842-.1648z"/><path d="m40.7159 26.6276c-.0921-.2449-.0398-.556.1168-.6948.1567-.1388.3583-.0528.4505.1921.0921.2449.0398.556-.1169.6948-.1566.1389-.3583.0529-.4504-.1921z"/><path d="m44.5421 21.0332c-.1089-.2895-.049-.6554.1338-.8174.1827-.162.4191-.0586.528.2308.1089.2895.0489.6554-.1338.8174-.1828.162-.4192.0586-.528-.2308z"/><path d="m48.3833 15.436c-.1206-.3207-.0513-.7286.1546-.9111.206-.1825.4707-.0706.5913.25.1206.3207.0514.7286-.1546.9111s-.4707.0706-.5913-.25z"/><path d="m52.194 9.85302c-.1423-.37852-.0625-.85836.1782-1.07175.2408-.2134.5514-.07953.6938.29899.1423.37851.0626.85835-.1782 1.07174-.2408.2134-.5514.0795-.6938-.29898z"/><path d="m56.0195 4.26979c-.1591-.42305-.0694-.95981.2004-1.19892.2698-.2391.6174-.09.7766.33305.1591.42305.0693.95983-.2004 1.19893-.2698.23911-.6175.08999-.7766-.33306z"/><path d="m59.8526-1.32859c-.1758-.46758-.0785-1.05923.2174-1.32147.2958-.26224.6783-.09577.8541.3718.1759.46758.0786 1.05921-.2173 1.321454-.2959.262243-.6783.095792-.8542-.371784z"/><path d="m1.67973 94.8227c-.12059-.3206-.05138-.7285.15458-.9111.20596-.1825.47068-.0706.59127.25.12058.3207.05138.7286-.15458.9111-.20597.1825-.47068.0706-.59127-.25z"/><path d="m5.60953 89.1422c-.10384-.276-.04458-.627.13238-.7838.17695-.1569.40459-.0602.50843.2159s.04456.6271-.1324.7839c-.17695.1568-.40457.0601-.50841-.216z"/><path d="m9.54628 83.4495c-.08374-.2226-.0364-.5052.10574-.6312.14215-.126.32526-.0476.40898.175.0838.2227.0364.5053-.10572.6313-.14215.126-.32526.0476-.409-.1751z"/><path d="m13.4709 77.7775c-.0704-.1871-.031-.4241.0879-.5296.119-.1054.2724-.0392.3428.1478.0703.1871.0309.4241-.088.5295-.119.1055-.2724.0393-.3427-.1477z"/><path d="m17.3834 72.1105c-.0586-.1558-.0262-.3531.0724-.4405s.2261-.0319.2847.124c.0587.1558.0262.353-.0724.4404-.0986.0875-.2261.032-.2847-.1239z"/><path d="m21.2842 66.45c-.0503-.1336-.0228-.3024.0613-.3769.0842-.0746.1931-.0267.2433.1069.0503.1336.0228.3023-.0613.3769-.0841.0745-.1931.0267-.2433-.1069z"/><path d="m25.1936 60.7914c-.0419-.1113-.0194-.2516.0502-.3133s.16-.0215.2019.0899c.0418.1113.0194.2515-.0503.3133-.0696.0617-.16.0214-.2018-.0899z"/><path d="m29.0672 55.1508c-.0419-.1114-.0194-.2516.0503-.3133.0696-.0617.16-.0215.2018.0898.0419.1114.0194.2516-.0502.3133s-.16.0215-.2019-.0898z"/><path d="m32.9455 49.5219c-.0419-.1113-.0194-.2516.0502-.3133.0697-.0617.1601-.0215.2019.0898.0419.1114.0194.2516-.0502.3133s-.16.0215-.2019-.0898z"/><path d="m36.8097 43.897c-.0453-.1203-.0184-.274.0599-.3434.0783-.0695.1785-.0282.2237.092s.0184.274-.0599.3434c-.0784.0694-.1785.0282-.2237-.092z"/><path d="m40.6502 38.298c-.0586-.1558-.0262-.3531.0725-.4405.0986-.0874.2261-.0319.2847.124.0586.1558.0262.353-.0725.4404-.0986.0875-.2261.032-.2847-.1239z"/><path d="m44.4968 32.6831c-.067-.1781-.0296-.4038.0836-.504.1131-.1003.2591-.0372.3261.1409.067.1782.0296.4039-.0835.5041-.1132.1003-.2592.0372-.3262-.141z"/><path d="m48.3279 27.0941c-.0838-.2227-.0364-.5053.1057-.6313.1422-.126.3253-.0476.409.1751.0838.2226.0364.5052-.1057.6312-.1422.126-.3253.0476-.409-.175z"/><path d="m52.1505 21.503c-.1005-.2672-.0432-.6067.128-.7584.1711-.1517.3913-.0581.4918.2091s.0432.6068-.1279.7585c-.1712.1517-.3914.058-.4919-.2092z"/><path d="m55.9613 15.9203c-.1206-.3206-.0513-.7285.1546-.911.206-.1826.4707-.0706.5913.25s.0514.7285-.1546.9111c-.206.1825-.4707.0706-.5913-.2501z"/><path d="m59.7805 10.3413c-.1424-.37851-.0626-.85835.1782-1.07174.2407-.2134.5513-.07954.6937.29898.1423.37851.0626.85836-.1782 1.07176s-.5514.0795-.6937-.299z"/><path d="m63.6046 4.75028c-.1591-.42304-.0694-.95983.2004-1.19893.2697-.23911.6174-.08998.7765.33306.1592.42305.0694.95982-.2004 1.19892-.2697.2391-.6174.09-.7765-.33305z"/><path d="m67.4064-.812601c-.1842-.489839-.082-1.109949.2284-1.385049s.7114-.10101.8956.38883c.1843.48984.082 1.109959-.2284 1.385058-.3104.275098-.7114.101004-.8956-.388839z"/><path d="m1.49835 106.594c-.12561-.334-.05576-.756.156-.944.21177-.188.48527-.069.61088.265.12562.334.05577.757-.15599.944-.21177.188-.48527.069-.61089-.265z"/><path d="m5.43533 100.898c-.10384-.276-.04456-.627.13239-.784.17696-.1566.40458-.06.50841.216.10384.276.04459.627-.13237.784-.17695.157-.40459.06-.50843-.216z"/><path d="m9.37648 95.2093c-.08374-.2227-.0364-.5053.10574-.6313.14215-.1259.32526-.0476.409.1751s.0364.5053-.10574.6313c-.14215.1259-.32526.0476-.409-.1751z"/><path d="m13.3192 89.5149c-.062-.1648-.0252-.3754.0821-.4706.1074-.0951.2446-.0386.3066.1261.0619.1648.0252.3755-.0822.4706-.1073.0951-.2445.0387-.3065-.1261z"/><path d="m17.2393 83.8465c-.0503-.1336-.0228-.3024.0613-.3769.0841-.0746.1931-.0267.2433.1069.0503.1336.0228.3023-.0613.3769-.0842.0745-.1931.0267-.2433-.1069z"/><path d="m21.1606 78.1675c-.0335-.089-.0136-.2029.0444-.2543.0581-.0515.1322-.021.1657.0681s.0137.203-.0444.2544c-.058.0514-.1322.0209-.1657-.0682z"/><path d="m25.0639 72.5148c-.0252-.067-.0102-.1527.0335-.1914.0436-.0387.0994-.0157.1246.0513.0253.067.0103.1528-.0334.1915-.0436.0387-.0994.0157-.1247-.0514z"/><path d="m28.9693 66.8465c-.0168-.0447-.0069-.1018.0222-.1276.0292-.0258.0664-.0105.0832.0342s.0068.1018-.0223.1276-.0663.0105-.0831-.0342z"/><path d="m32.8442 61.2118c-.0169-.0447-.0069-.1019.0222-.1277s.0664-.0104.0832.0342c.0168.0447.0068.1018-.0223.1276s-.0663.0105-.0831-.0341z"/><path d="m36.7223 55.5828c-.0168-.0447-.0068-.1018.0223-.1276s.0663-.0105.0831.0342.0069.1018-.0223.1276c-.0291.0258-.0663.0105-.0831-.0342z"/><path d="m40.5915 49.9467c-.0202-.0537-.0082-.1222.0267-.1532.035-.0309.0796-.0126.0998.0411.0202.0536.0082.1221-.0267.1531-.035.031-.0796.0126-.0998-.041z"/><path d="m44.4276 44.357c-.0335-.0891-.0136-.203.0444-.2544s.1322-.0209.1657.0682c.0335.089.0136.2029-.0444.2543-.058.0515-.1322.021-.1657-.0681z"/><path d="m48.2644 38.7505c-.0453-.1203-.0184-.274.0599-.3434s.1785-.0283.2237.092c.0452.1202.0184.274-.0599.3434-.0784.0694-.1785.0282-.2237-.092z"/><path d="m52.0952 33.1614c-.062-.1648-.0252-.3755.0821-.4706s.2446-.0387.3066.1261c.0619.1648.0252.3755-.0822.4706-.1073.0951-.2446.0387-.3065-.1261z"/><path d="m55.9228 27.5669c-.0787-.2093-.0343-.4748.0991-.5931s.3054-.0445.3842.1648c.0787.2093.0343.4749-.0991.5931-.1335.1183-.3055.0445-.3842-.1648z"/><path d="m59.7312 21.9972c-.1005-.2672-.0432-.6068.128-.7585.1711-.1516.3913-.058.4918.2092s.0432.6067-.1279.7584c-.1712.1517-.3914.0581-.4919-.2091z"/><path d="m63.5373 16.4187c-.1256-.334-.0558-.7569.156-.9446s.4853-.0691.6109.2649.0557.7569-.156.9446c-.2118.1877-.4853.0691-.6109-.2649z"/><path d="m67.3497 10.8399c-.1457-.3874-.0639-.87864.1826-1.09717.2466-.21854.5646-.08164.7103.30577.1457.3874.064.8787-.1826 1.0972s-.5646.0816-.7103-.3058z"/><path d="m71.1585 5.27018c-.1675-.44531-.0728-1.01056.2114-1.26252.2843-.25196.6506-.09522.8181.35009.1674.44532.0727 1.01057-.2115 1.26253-.2843.25196-.6506.09521-.818-.3501z"/><path d="m74.9644-.308312c-.1926-.512109-.0853-1.160708.2396-1.448658s.7444-.10622.937.40589c.1926.512111.0854 1.160682-.2395 1.4486349-.3249.2879531-.7445.1062421-.9371-.4058669z"/><path d="m1.28617 118.39c-.13734-.365-.06055-.828.17152-1.033.23207-.206.53155-.077.66888.288.13734.366.06053.828-.17154 1.034s-.53153.076-.66886-.289z"/><path d="m5.24008 112.686c-.11221-.299-.04797-.678.14349-.848s.43764-.065.54985.233.04797.678-.14349.848c-.19146.169-.43763.065-.54985-.233z"/><path d="m9.19509 106.985c-.08709-.231-.03775-.525.1102-.656.14794-.132.33848-.05.42557.181.08709.232.03775.526-.11019.657-.14795.131-.33849.05-.42558-.182z"/><path d="m13.1333 101.291c-.067-.179-.0296-.404.0835-.505.1132-.1.2592-.037.3262.141.067.179.0296.404-.0835.505-.1132.1-.2592.037-.3262-.141z"/><path d="m17.076 95.5903c-.0452-.1202-.0184-.274.06-.3434.0783-.0694.1784-.0282.2236.092.0453.1203.0184.274-.0599.3434s-.1785.0282-.2237-.092z"/><path d="m21.005 89.9138c-.0285-.0757-.0116-.1725.0377-.2162s.1124-.0178.1409.0579c.0284.0757.0115.1725-.0378.2162s-.1124.0178-.1408-.0579z"/><path d="m24.9313 84.2335c-.012-.0317-.0049-.0723.0158-.0906.0206-.0183.0471-.0075.059.0243.0119.0317.0049.0723-.0158.0906s-.0471.0074-.059-.0243z"/><path d="m28.8413 78.5748c-.0035-.0092-.0014-.021.0046-.0263s.0137-.0022.0172.007c.0035.0093.0014.0211-.0046.0264s-.0137.0022-.0172-.0071z"/><path d="m44.3506 56.0338c-.0035-.0092-.0014-.021.0046-.0263.006-.0054.0137-.0022.0172.007.0034.0093.0014.0211-.0046.0264s-.0137.0021-.0172-.0071z"/><path d="m48.1982 50.419c-.0119-.0317-.0048-.0723.0159-.0906.0206-.0183.047-.0074.059.0243.0119.0317.0048.0723-.0158.0906-.0207.0183-.0471.0075-.0591-.0243z"/><path d="m52.036 44.8156c-.0252-.067-.0103-.1527.0334-.1914s.0995-.0157.1247.0513.0102.1527-.0334.1914c-.0437.0387-.0995.0158-.1247-.0513z"/><path d="m55.8519 39.2407c-.0452-.1202-.0184-.274.0599-.3434.0784-.0694.1785-.0282.2237.092.0453.1203.0184.274-.0599.3434s-.1785.0283-.2237-.092z"/><path d="m59.6731 33.6477c-.062-.1647-.0252-.3754.0821-.4705.1073-.0952.2446-.0387.3065.126.062.1648.0252.3755-.0821.4706s-.2446.0387-.3065-.1261z"/><path d="m63.4938 28.0706c-.0838-.2226-.0364-.5052.1057-.6312.1422-.126.3253-.0476.409.175.0838.2227.0364.5053-.1057.6313-.1422.126-.3253.0476-.409-.1751z"/><path d="m67.294 22.5c-.1088-.2895-.0489-.6554.1338-.8174.1828-.162.4192-.0586.528.2308.1089.2895.049.6554-.1338.8174-.1827.162-.4191.0586-.528-.2308z"/><path d="m71.0925 16.9366c-.1339-.3562-.0591-.8076.1671-1.0081.2263-.2006.5183-.0743.6523.2819.134.3563.0592.8076-.1671 1.0082-.2262.2005-.5183.0743-.6523-.282z"/><path d="m74.9104 11.352c-.1541-.4097-.0673-.9294.1938-1.1608.261-.23139.5976-.0868.7517.3228.1541.4097.0673.9294-.1937 1.1608-.2611.2314-.5977.0869-.7518-.3228z"/><path d="m78.7087 5.79063c-.1792-.47649-.0775-1.08158.2271-1.35154.3045-.26995.6967-.10255.8759.37393.1793.47649.0776 1.08161-.227 1.35156-.3046.26996-.6968.10253-.876-.37395z"/><path d="m82.5092.217998c-.2043-.54328-.0901-1.231718.2551-1.537668s.7907-.11356.995.429722c.2043.543281.0901 1.231721-.2551 1.537671s-.7907.113556-.995-.429725z"/><path d="m1.07093 130.183c-.150731-.4-.06598-.909.1893-1.135.25527-.226.58442-.085.73515.316.15074.401.06598.909-.18929 1.136-.25528.226-.58442.084-.73516-.317z"/><path d="m5.03304 124.477c-.12561-.334-.05577-.757.156-.944.21176-.188.48525-.069.61086.265s.05578.756-.15598.944c-.21177.188-.48527.069-.61088-.265z"/><path d="m8.9957 118.761c-.09546-.254-.04116-.576.12129-.72s.37153-.055.46699.199c.09547.253.04117.576-.12128.72s-.37153.055-.467-.199z"/><path d="m12.9366 113.074c-.0754-.2-.033-.454.0946-.567.1277-.114.2922-.043.3676.158.0754.2.033.454-.0946.567-.1277.113-.2922.043-.3676-.158z"/><path d="m16.8903 107.368c-.0503-.134-.0228-.302.0613-.377.0841-.074.1931-.027.2433.107.0503.134.0228.302-.0613.377-.0842.074-.1931.027-.2433-.107z"/><path d="m20.8352 101.679c-.0285-.075-.0116-.172.0377-.216s.1124-.018.1409.058c.0284.076.0115.173-.0378.216-.0493.044-.1124.018-.1408-.058z"/><path d="m24.7722 95.9868c-.0085-.0226-.0035-.0516.0113-.0647.0147-.0131.0336-.0053.0421.0173.0086.0227.0035.0517-.0113.0648-.0147.013-.0336.0053-.0421-.0174z"/><path d="m55.7956 50.8989c-.0085-.0226-.0034-.0516.0113-.0647.0148-.0131.0337-.0053.0422.0174.0085.0226.0034.0516-.0113.0647-.0148.0131-.0337.0053-.0422-.0174z"/><path d="m59.6184 45.3098c-.0252-.067-.0103-.1527.0334-.1914s.0995-.0158.1247.0513c.0252.067.0102.1527-.0334.1914-.0437.0387-.0995.0157-.1247-.0513z"/><path d="m63.4224 39.743c-.0503-.1336-.0228-.3024.0613-.3769.0841-.0746.1931-.0267.2433.1069.0503.1336.0228.3023-.0613.3768-.0842.0746-.1931.0268-.2433-.1068z"/><path d="m67.2388 34.1583c-.0703-.187-.0309-.4241.088-.5295s.2724-.0392.3427.1478c.0704.187.031.4241-.088.5295-.1189.1054-.2724.0393-.3427-.1478z"/><path d="m71.0355 28.5911c-.0955-.2538-.0412-.5763.1213-.7203.1624-.144.3715-.0549.467.1989.0954.2538.0411.5763-.1213.7203-.1625.144-.3715.0549-.467-.1989z"/><path d="m74.8344 23.0297c-.1206-.3206-.0514-.7285.1546-.911.2059-.1826.4707-.0706.5912.25.1206.3206.0514.7285-.1545.911-.206.1826-.4707.0706-.5913-.25z"/><path d="m78.6404 17.4532c-.1457-.3874-.064-.8787.1826-1.0972s.5646-.0816.7103.3058.0639.8786-.1826 1.0972c-.2466.2185-.5646.0816-.7103-.3058z"/><path d="m82.4385 11.8918c-.1708-.4542-.0741-1.0309.2159-1.288.2901-.2571.6638-.0973.8346.357.1708.4542.0742 1.0308-.2159 1.2879s-.6638.0973-.8346-.3569z"/><path d="m86.2341 6.3246c-.1959-.52102-.0844-1.18308.2492-1.47874.3336-.29567.7629-.11298.9589.40804.1959.52101.0844 1.18305-.2492 1.47872-.3336.29566-.7629.11299-.9589-.40802z"/><path d="m90.0429.755856c-.2211-.587812-.0969-1.333197.2773-1.664858.3742-.331658.8568-.123998 1.0778.463809.2211.587812.097 1.333198-.2772 1.664863-.3743.33166-.8568.124-1.0779-.463814z"/><path d="m.847414 141.991c-.167483-.445-.072788-1.011.211496-1.263.28429-.252.65053-.095.81801.35.16748.446.07279 1.011-.2115 1.263-.28428.252-.65052.095-.818006-.35z"/><path d="m4.80355 136.291c-.14236-.379-.06258-.859.17819-1.072.24078-.214.55136-.08.69372.299.14236.378.06259.858-.17819 1.072-.24077.213-.55136.079-.69372-.299z"/><path d="m8.77169 130.57c-.11221-.298-.04797-.677.14349-.847s.43763-.066.54985.233c.11221.298.04797.678-.14349.847-.19145.17-.43764.066-.54985-.233z"/><path d="m12.7268 124.862c-.0871-.231-.0377-.525.1102-.656.148-.132.3385-.05.4256.181.0871.232.0377.526-.1102.657s-.3385.05-.4256-.182z"/><path d="m16.6767 119.165c-.0619-.164-.0252-.375.0822-.47.1073-.095.2445-.039.3065.126s.0252.375-.0821.47c-.1074.096-.2446.039-.3066-.126z"/><path d="m20.6358 113.455c-.0369-.098-.015-.223.0488-.28.0638-.056.1454-.023.1823.075.0368.098.015.224-.0489.28-.0638.057-.1454.023-.1822-.075z"/><path d="m24.5766 107.768c-.0168-.044-.0069-.101.0222-.127s.0664-.011.0832.034.0068.102-.0223.128c-.0291.025-.0663.01-.0831-.035z"/><path d="m63.3626 51.3956c-.012-.0317-.0049-.0723.0158-.0906.0206-.0183.0471-.0074.059.0243s.0048.0723-.0158.0906c-.0207.0183-.0471.0074-.059-.0243z"/><path d="m67.1682 45.8321c-.0368-.0979-.0149-.2232.0489-.2798.0638-.0565.1454-.023.1822.075.0369.098.015.2232-.0488.2798s-.1454.023-.1823-.075z"/><path d="m70.9804 40.2492c-.0586-.1559-.0262-.3531.0725-.4405.0986-.0874.2261-.0319.2847.124.0586.1558.0262.353-.0725.4404-.0986.0874-.2261.032-.2847-.1239z"/><path d="m74.7789 34.6898c-.0837-.2227-.0364-.5053.1058-.6313.1421-.126.3252-.0476.409.1751.0837.2226.0364.5052-.1058.6312-.1421.126-.3252.0476-.409-.175z"/><path d="m78.5639 29.1309c-.1122-.2984-.0479-.6778.1435-.8475.1915-.1697.4377-.0654.5499.233s.0479.6778-.1435.8475c-.1915.1697-.4377.0653-.5499-.233z"/><path d="m82.3699 23.5544c-.1373-.3652-.0605-.828.1715-1.0336.2321-.2057.5316-.0764.6689.2887.1373.3652.0606.8279-.1715 1.0336s-.5316.0764-.6689-.2887z"/><path d="m86.1682 17.993c-.1625-.432-.0708-.9801.2048-1.2244.2756-.2442.6307-.092.7932.3399.1624.432.0707.9801-.2049 1.2244-.2755.2442-.6306.092-.7931-.3399z"/><path d="m89.9655 12.4258c-.1876-.4988-.081-1.1324.2381-1.4152s.7299-.1077.9174.391c.1876.4988.081 1.1324-.2381 1.4152s-.7298.1077-.9174-.391z"/><path d="m93.7741 6.85703c-.2127-.56554-.0935-1.28244.2662-1.60125.3597-.3188.8238-.11879 1.0365.44675.2127.56555.0935 1.28248-.2662 1.60128-.3597.31881-.8238.11877-1.0365-.44678z"/><path d="m97.5698 1.28983c-.2379-.63234-.1038-1.434672.2994-1.792043.4033-.35737.9229-.13445 1.1608.49789335.2378.63234265.1037 1.43464965-.2995 1.79201965-.4033.35737-.9229.13448-1.1607-.49787z"/><path d="m.613188 153.809c-.187581-.499-.080961-1.133.238137-1.416.319095-.282.729845-.107.917425.391.18758.499.08097 1.133-.23813 1.416-.3191.282-.729851.107-.917432-.391z"/><path d="m4.57699 148.094c-.15911-.423-.0694-.96.20038-1.199.26979-.239.61747-.09.77658.333s.06939.96-.20039 1.199-.61746.09-.77657-.333z"/><path d="m8.53493 142.392c-.13399-.357-.05918-.808.16709-1.008.22627-.201.51831-.075.6523.281.13399.357.05918.808-.16709 1.009-.22627.2-.51832.074-.6523-.282z"/><path d="m12.4926 136.68c-.1088-.29-.0489-.656.1338-.818.1828-.162.4192-.058.528.231.1089.29.049.655-.1337.817-.1828.162-.4192.059-.5281-.23z"/><path d="m16.4595 130.969c-.0788-.209-.0344-.475.099-.593.1335-.118.3055-.044.3842.165s.0343.475-.0991.593-.3054.045-.3841-.165z"/><path d="m20.4066 125.266c-.0536-.142-.0218-.324.0711-.407.0928-.082.2115-.033.2651.11.0536.142.0218.324-.071.407-.0929.082-.2116.033-.2652-.11z"/><path d="m24.3657 119.554c-.0285-.075-.0116-.172.0377-.216.0494-.044.1124-.018.1409.058.0284.076.0116.173-.0378.216-.0493.044-.1123.018-.1408-.058z"/><path d="m28.3212 113.858c-.0035-.009-.0014-.021.0046-.026.006-.006.0137-.002.0172.007.0034.009.0014.021-.0046.026-.0061.005-.0138.002-.0172-.007z"/><path d="m67.0946 57.4987c-.0034-.0092-.0014-.0211.0046-.0264s.0137-.0021.0172.0071.0014.021-.0046.0263c-.006.0054-.0137.0022-.0172-.007z"/><path d="m70.909 51.9211c-.0252-.067-.0102-.1527.0335-.1914.0436-.0387.0994-.0157.1247.0513.0252.067.0102.1527-.0335.1914-.0436.0387-.0995.0157-.1247-.0513z"/><path d="m74.7102 46.3465c-.0502-.1336-.0228-.3024.0614-.3769.0841-.0746.193-.0267.2433.1069.0502.1336.0227.3023-.0614.3769-.0841.0745-.193.0267-.2433-.1069z"/><path d="m78.5085 40.789c-.0754-.2004-.033-.4545.0946-.5677.1277-.1131.2923-.0423.3676.1581.0754.2004.033.4545-.0946.5676-.1277.1131-.2922.0424-.3676-.158z"/><path d="m82.2992 35.2243c-.1038-.2761-.0445-.6271.1324-.7839.177-.1569.4046-.0602.5084.2159.1039.2761.0446.6271-.1324.7839-.1769.1569-.4045.0601-.5084-.2159z"/><path d="m86.0874 29.6749c-.134-.3562-.0592-.8076.1671-1.0081.2263-.2006.5183-.0743.6523.2819.134.3563.0592.8076-.1671 1.0082-.2263.2005-.5183.0743-.6523-.282z"/><path d="m89.8829 24.1077c-.1591-.4231-.0694-.9598.2004-1.1989s.6174-.09.7766.333c.1591.4231.0694.9598-.2004 1.1989s-.6175.09-.7766-.333z"/><path d="m93.6931 18.5409c-.1842-.4898-.0819-1.1099.2285-1.385s.7114-.101.8956.3888c.1842.4899.0819 1.11-.2285 1.385-.3104.2751-.7113.1011-.8956-.3888z"/><path d="m97.4889 12.9698c-.2094-.5567-.0922-1.2622.2617-1.5758.3539-.3137.8105-.1167 1.0199.4399.2093.5567.0921 1.2622-.2618 1.5758-.3539.3137-.8105.1167-1.0198-.4399z"/><path d="m101.284 7.40256c-.234-.62343-.102-1.41436.295-1.76659.398-.35223.91-.13238 1.145.49106.234.62344.102 1.41436-.296 1.76659-.397.35223-.909.13238-1.144-.49106z"/><path d="m105.078 1.84759c-.263-.69914-.114-1.586883.333-1.982819.446-.395935 1.022-.150134 1.285.549006.263.699143.114 1.586883-.333 1.982813-.447.39594-1.022.15014-1.285-.549z"/><path d="m.380696 165.626c-.209354-.557-.092168-1.262.26174-1.576.353909-.313.810524-.116 1.019874.44.20936.557.09217 1.262-.26174 1.576s-.81052.117-1.019874-.44z"/><path d="m4.33412 159.918c-.18423-.49-.08195-1.11.22844-1.385.3104-.275.71137-.101.89561.389.18423.489.08195 1.11-.22845 1.385-.31039.275-.71137.101-.8956-.389z"/><path d="m8.28121 154.215c-.15911-.423-.0694-.96.20039-1.199.26978-.239.61746-.09.77657.333s.0694.96-.20039 1.199c-.26978.239-.61746.09-.77657-.333z"/><path d="m12.2431 148.511c-.134-.356-.0592-.808.167-1.008.2263-.201.5184-.075.6523.282.134.356.0592.807-.167 1.008-.2263.2-.5184.074-.6523-.282z"/><path d="m16.2072 142.797c-.1039-.277-.0446-.628.1324-.784.1769-.157.4046-.06.5084.216s.0446.627-.1324.783c-.1769.157-.4046.061-.5084-.215z"/><path d="m20.1741 137.084c-.0753-.2-.033-.455.0947-.568.1276-.113.2922-.042.3676.158.0753.201.033.455-.0947.568-.1276.113-.2922.042-.3676-.158z"/><path d="m24.1329 131.374c-.0502-.134-.0227-.303.0614-.377.0841-.075.193-.027.2433.107.0502.133.0228.302-.0613.377-.0842.074-.1931.026-.2434-.107z"/><path d="m28.0821 125.679c-.0252-.067-.0102-.153.0334-.191.0437-.039.0995-.016.1247.051.0253.067.0103.153-.0334.191-.0436.039-.0994.016-.1247-.051z"/><path d="m32.0254 119.981c-.0035-.009-.0014-.021.0046-.026.006-.006.0137-.002.0172.007s.0014.021-.0046.026-.0137.002-.0172-.007z"/><path d="m74.6286 58.0326c-.0201-.0536-.0082-.1222.0268-.1531.0349-.031.0795-.0126.0997.041s.0082.1222-.0267.1531c-.0349.031-.0796.0126-.0998-.041z"/><path d="m78.4249 52.4634c-.0452-.1203-.0184-.274.0599-.3434.0783-.0695.1785-.0283.2237.092.0452.1202.0184.274-.0599.3434s-.1785.0282-.2237-.092z"/><path d="m82.2298 46.8986c-.0704-.1871-.031-.4242.088-.5296.1189-.1054.2723-.0392.3427.1478.0703.1871.0309.4241-.088.5295-.119.1054-.2724.0393-.3427-.1477z"/><path d="m86.0139 41.3409c-.1005-.2672-.0432-.6067.128-.7584.1711-.1517.3913-.0581.4918.2091s.0432.6068-.1279.7584c-.1712.1517-.3914.0581-.4919-.2091z"/><path d="m89.802 35.7899c-.129-.3429-.0548-.7793.1657-.9747.2204-.1954.5037-.0758.6327.2671.1289.3429.0547.7792-.1657.9746-.2205.1954-.5038.0759-.6327-.267z"/><path d="m93.6038 30.2192c-.1541-.4097-.0673-.9294.1937-1.1608.2611-.2314.5977-.0869.7517.3228.1541.4097.0674.9294-.1937 1.1608s-.5976.0869-.7517-.3228z"/><path d="m97.4077 24.6539c-.1792-.4765-.0776-1.0816.227-1.3515.3046-.27.6968-.1026.876.3739s.0776 1.0816-.227 1.3516c-.3046.2699-.6968.1025-.876-.374z"/><path d="m101.193 19.0948c-.21-.5567-.092-1.2622.262-1.5758.353-.3137.81-.1167 1.019.4399.21.5567.093 1.2622-.261 1.5758-.354.3137-.811.1167-1.02-.4399z"/><path d="m104.991 13.5334c-.234-.6234-.102-1.4144.295-1.7666.398-.3522.91-.1324 1.145.4911.234.6234.102 1.4144-.295 1.7666-.398.3522-.91.1323-1.145-.4911z"/><path d="m108.797 7.95689c-.26-.69023-.115-1.56449.323-1.95271s1.004-.1434 1.263.54683c.26.69024.115 1.56449-.323 1.95271s-1.003.1434-1.263-.54683z"/><path d="m112.593 2.3899c-.283-.75258-.122-1.708643.359-2.135431.482-.426788 1.102-.162679 1.385.589898.283.752573.122 1.708643-.36 2.135433-.481.42678-1.101.16268-1.384-.5899z"/><path d="m.342493 177.259c-.162458-.432-.070745-.98.204839-1.225.275585-.244.630698-.092.793158.34.16245.432.07074.98-.20484 1.225-.275587.244-.630698.092-.793157-.34z"/><path d="m4.08468 171.753c-.20936-.557-.09217-1.262.26174-1.576.3539-.313.81052-.117 1.01987.44.20936.557.09217 1.262-.26174 1.576s-.81052.117-1.01987-.44z"/><path d="m8.03688 166.043c-.18423-.49-.08195-1.11.22844-1.385.3104-.275.71137-.101.8956.389.18424.489.08196 1.11-.22844 1.385-.31039.275-.71137.101-.8956-.389z"/><path d="m11.9882 160.35c-.1591-.423-.0694-.96.2004-1.199s.6175-.09.7766.333.0694.96-.2004 1.199-.6174.09-.7766-.333z"/><path d="m15.9473 154.638c-.134-.356-.0592-.808.1671-1.008.2262-.201.5183-.075.6523.282.134.356.0592.807-.1671 1.008-.2263.2-.5183.074-.6523-.282z"/><path d="m19.9114 148.918c-.1038-.276-.0446-.627.1324-.784s.4046-.06.5084.216c.1039.276.0446.627-.1324.784-.1769.156-.4046.06-.5084-.216z"/><path d="m23.878 143.209c-.0754-.2-.033-.455.0946-.568.1277-.113.2923-.042.3676.158.0754.201.033.455-.0946.568-.1277.113-.2922.042-.3676-.158z"/><path d="m27.8357 137.497c-.0502-.134-.0228-.302.0614-.377.0841-.075.193-.027.2432.107.0503.133.0228.302-.0613.377-.0841.074-.193.026-.2433-.107z"/><path d="m31.7866 131.804c-.0252-.067-.0102-.153.0334-.191.0437-.039.0995-.016.1247.051s.0103.153-.0334.191c-.0437.039-.0995.016-.1247-.051z"/><path d="m78.3328 64.1557c-.0201-.0537-.0081-.1222.0268-.1532.0349-.0309.0796-.0126.0997.041.0202.0537.0082.1222-.0267.1532-.0349.0309-.0796.0126-.0998-.041z"/><path d="m82.1317 58.5981c-.0452-.1202-.0184-.2739.0599-.3434.0783-.0694.1785-.0282.2237.092.0452.1203.0184.274-.0599.3434-.0784.0695-.1785.0283-.2237-.092z"/><path d="m85.9379 53.0196c-.0703-.187-.031-.4241.088-.5295.1189-.1054.2724-.0392.3427.1478s.031.4241-.088.5295c-.1189.1054-.2724.0393-.3427-.1478z"/><path d="m89.7209 47.4737c-.1004-.2672-.0431-.6067.128-.7584.1712-.1517.3914-.0581.4919.2091.1004.2672.0432.6068-.128.7585-.1711.1516-.3914.058-.4919-.2092z"/><path d="m93.5212 41.9011c-.1256-.334-.0558-.7569.156-.9446.2118-.1876.4852-.069.6109.2649.1256.334.0557.7569-.156.9446-.2118.1877-.4853.0691-.6109-.2649z"/><path d="m97.3119 36.3364c-.1541-.4097-.0673-.9294.1938-1.1608.261-.2314.5976-.0869.7517.3228s.0673.9294-.1938 1.1608c-.261.2314-.5976.0869-.7517-.3228z"/><path d="m101.11 30.777c-.179-.4765-.077-1.0816.227-1.3516.305-.2699.697-.1025.876.374.18.4764.078 1.0816-.227 1.3515-.304.27-.696.1025-.876-.3739z"/><path d="m104.896 25.2159c-.21-.5567-.093-1.2622.261-1.5758.354-.3137.811-.1167 1.02.4399.21.5566.092 1.2622-.262 1.5758-.353.3137-.81.1167-1.019-.4399z"/><path d="m108.701 19.6545c-.235-.6234-.102-1.4144.295-1.7666s.91-.1324 1.144.4911c.235.6234.103 1.4144-.295 1.7666-.397.3522-.91.1323-1.144-.4911z"/><path d="m112.502 14.0799c-.26-.6902-.115-1.5645.323-1.9527s1.003-.1434 1.263.5469c.259.6902.115 1.5644-.323 1.9527-.438.3882-1.004.1434-1.263-.5469z"/><path d="m116.3 8.52076c-.283-.75258-.122-1.70864.359-2.13543.482-.42679 1.102-.16268 1.385.5899.283.75257.122 1.70864-.36 2.13543-.481.42678-1.101.16268-1.384-.5899z"/><path d="m120.106 2.94423c-.308-.81937-.135-1.85876.387-2.321545.522-.462782 1.196-.173711 1.504.645665.308.81937.134 1.85876-.388 2.32155-.522.46278-1.195.17371-1.503-.64567z"/><path d="m7.7772 177.882c-.2127-.565-.09352-1.282.26619-1.601s.82374-.119 1.03644.447c.2127.565.09354 1.282-.26617 1.601s-.82376.119-1.03646-.447z"/><path d="m11.7426 172.168c-.1843-.49-.082-1.11.2284-1.385s.7114-.101.8956.389c.1842.489.082 1.11-.2284 1.385s-.7114.101-.8956-.389z"/><path d="m15.6978 166.467c-.1591-.423-.0694-.96.2004-1.199s.6175-.09.7766.333.0694.96-.2004 1.199-.6175.09-.7766-.333z"/><path d="m19.6515 160.761c-.134-.356-.0592-.808.1671-1.008.2263-.201.5183-.075.6523.282.134.356.0592.807-.1671 1.008-.2263.2-.5183.074-.6523-.282z"/><path d="m23.617 155.048c-.1039-.276-.0446-.627.1324-.783.1769-.157.4045-.061.5084.216.1038.276.0446.627-.1324.783-.1769.157-.4046.061-.5084-.216z"/><path d="m27.5758 149.34c-.0787-.209-.0344-.475.0991-.593.1334-.118.3054-.044.3841.165s.0344.475-.0991.593c-.1334.118-.3054.045-.3841-.165z"/><path d="m31.5277 143.643c-.0535-.142-.0217-.324.0711-.407.0928-.082.2115-.033.2651.11.0536.142.0218.324-.071.406-.0929.083-.2116.034-.2652-.109z"/><path d="m35.4906 137.929c-.0252-.067-.0103-.153.0334-.191.0437-.039.0995-.016.1247.051s.0102.153-.0334.191c-.0437.039-.0995.016-.1247-.051z"/><path d="m39.4378 132.225c-.0035-.009-.0015-.021.0045-.026.0061-.005.0138-.002.0172.007.0035.009.0014.021-.0046.026-.006.006-.0137.002-.0171-.007z"/><path d="m78.214 75.8717c-.0035-.0092-.0014-.021.0046-.0263.006-.0054.0137-.0022.0172.007.0035.0093.0014.0211-.0046.0264s-.0137.0022-.0172-.0071z"/><path d="m82.0217 70.2942c-.0252-.0671-.0102-.1528.0334-.1915.0437-.0386.0995-.0157.1247.0513.0252.0671.0103.1528-.0334.1915-.0437.0386-.0995.0157-.1247-.0513z"/><path d="m85.8257 64.7312c-.0502-.1336-.0228-.3023.0613-.3769.0842-.0745.1931-.0267.2433.1069.0503.1336.0228.3024-.0613.3769-.0841.0746-.1931.0267-.2433-.1069z"/><path d="m89.6265 59.1562c-.0753-.2004-.033-.4546.0947-.5677.1276-.1131.2922-.0424.3676.158.0753.2004.0329.4546-.0947.5677s-.2922.0424-.3676-.158z"/><path d="m93.4252 53.5968c-.1005-.2672-.0432-.6068.1279-.7585.1712-.1517.3914-.058.4919.2092.1005.2671.0432.6067-.128.7584-.1711.1517-.3913.0581-.4918-.2091z"/><path d="m97.2104 48.0379c-.1289-.3429-.0548-.7792.1657-.9746s.5037-.0759.6327.267.0548.7793-.1657.9747c-.2204.1954-.5037.0758-.6327-.2671z"/><path d="m101.019 42.4692c-.154-.4097-.067-.9294.194-1.1608s.598-.0868.752.3228c.154.4097.067.9294-.194 1.1608s-.598.0869-.752-.3228z"/><path d="m104.806 36.914c-.185-.4899-.082-1.11.228-1.3851.311-.2751.711-.101.896.3888.184.4899.082 1.11-.229 1.3851-.31.2751-.711.101-.895-.3888z"/><path d="m108.601 31.3448c-.209-.5567-.092-1.2622.262-1.5758.354-.3137.81-.1167 1.02.4399.209.5567.092 1.2622-.262 1.5758-.354.3137-.81.1167-1.02-.4399z"/><path d="m112.405 25.7795c-.234-.6234-.102-1.4143.295-1.7666.398-.3522.91-.1324 1.144.4911.235.6234.103 1.4144-.295 1.7666-.397.3522-.909.1324-1.144-.4911z"/><path d="m116.205 20.2049c-.259-.6902-.115-1.5645.323-1.9527.439-.3882 1.004-.1434 1.264.5468.259.6903.115 1.5645-.323 1.9528-.438.3882-1.004.1434-1.264-.5469z"/><path d="m119.994 14.6558c-.288-.7659-.127-1.737.36-2.1689.488-.432 1.116-.1612 1.404.6048.288.7659.127 1.737-.36 2.1689-.488.4319-1.116.1611-1.404-.6048z"/><path d="m123.795 9.08274c-.313-.83273-.137-1.88921.394-2.3597.531-.4705 1.215-.17685 1.528.65589.313.83273.137 1.8892-.394 2.3597-.531.47047-1.215.17684-1.528-.65589z"/><path d="m127.593 3.5233c-.338-.89953-.147-2.0414.427-2.550464.575-.50906 1.315-.192532 1.653.706994.338.89953.147 2.04144-.427 2.5505-.575.50906-1.315.1925-1.653-.70703z"/><path d="m131.378-2.03556c-.366-.97523-.158-2.21392.465-2.76669.624-.55276 1.427-.21029 1.794.76495.367.97523.158 2.21392-.465 2.76669-.624.552767-1.427.21029-1.794-.76495z"/><path d="m19.3919 172.602c-.1624-.432-.0707-.98.2049-1.224s.6307-.092.7931.34c.1625.432.0708.98-.2048 1.224s-.6307.092-.7932-.34z"/><path d="m23.3456 166.892c-.1373-.365-.0605-.828.1716-1.033.232-.206.5315-.077.6688.288.1374.366.0606.828-.1715 1.034s-.5316.076-.6689-.289z"/><path d="m27.3122 161.184c-.1089-.29-.049-.656.1338-.818s.4192-.058.528.231c.1089.289.049.655-.1338.817-.1827.162-.4191.059-.528-.23z"/><path d="m31.265 155.475c-.0837-.223-.0364-.505.1058-.631.1421-.126.3252-.048.409.175.0837.222.0364.505-.1058.631-.1421.126-.3252.048-.409-.175z"/><path d="m35.2211 149.778c-.0586-.155-.0261-.353.0725-.44s.2261-.032.2847.124.0262.353-.0724.44c-.0987.088-.2261.032-.2848-.124z"/><path d="m39.1698 144.076c-.0335-.089-.0136-.203.0444-.255.058-.051.1322-.021.1657.069.0335.089.0136.202-.0444.254-.058.051-.1322.021-.1657-.068z"/><path d="m43.1292 138.37c-.0085-.023-.0034-.052.0113-.065.0148-.013.0337-.005.0422.017.0085.023.0034.052-.0113.065-.0148.013-.0336.005-.0422-.017z"/><path d="m81.9013 82.0083c-.0085-.0227-.0034-.0516.0113-.0647.0148-.0131.0337-.0053.0422.0173.0085.0227.0035.0517-.0113.0647-.0148.0131-.0336.0054-.0422-.0173z"/><path d="m85.7177 76.4353c-.0284-.0757-.0115-.1725.0378-.2162s.1124-.0178.1408.0579c.0285.0757.0116.1725-.0377.2162s-.1124.0178-.1409-.0579z"/><path d="m89.5186 70.8661c-.0536-.1425-.0218-.3247.071-.407s.2115-.0335.2651.109.0218.3248-.071.407c-.0928.0823-.2115.0335-.2651-.109z"/><path d="m93.3204 65.2915c-.0787-.2093-.0344-.4748.0991-.5931.1334-.1183.3054-.0445.3841.1648.0788.2093.0344.4749-.0991.5931-.1334.1183-.3054.0445-.3841-.1648z"/><path d="m97.107 59.7402c-.1089-.2895-.0489-.6554.1338-.8174.1828-.162.4192-.0586.528.2308.1089.2895.049.6554-.1338.8174-.1827.162-.4191.0586-.528-.2308z"/><path d="m100.908 54.1671c-.134-.3562-.059-.8076.167-1.0081.227-.2006.519-.0744.653.2819.134.3562.059.8076-.167 1.0081-.227.2006-.519.0744-.653-.2819z"/><path d="m104.708 48.6096c-.159-.423-.07-.9598.2-1.1989s.618-.09.777.3331c.159.423.069.9598-.201 1.1989-.269.2391-.617.09-.776-.3331z"/><path d="m108.492 43.0469c-.188-.4988-.081-1.1324.238-1.4152s.73-.1077.917.391c.188.4988.081 1.1323-.238 1.4152-.319.2828-.73.1077-.917-.391z"/><path d="m112.302 37.4801c-.212-.5655-.093-1.2825.266-1.6013.36-.3188.824-.1187 1.037.4468.213.5656.093 1.2825-.266 1.6013-.36.3188-.824.1187-1.037-.4468z"/><path d="m116.098 31.9109c-.238-.6323-.104-1.4346.299-1.792s.923-.1345 1.161.4979c.238.6323.104 1.4346-.3 1.792-.403.3574-.922.1345-1.16-.4979z"/><path d="m119.896 26.3515c-.263-.6991-.114-1.5869.333-1.9828.446-.3959 1.022-.1501 1.285.549s.114 1.5869-.333 1.9828-1.022.1501-1.285-.549z"/><path d="m123.698 20.7789c-.288-.766-.126-1.737.361-2.169.487-.4319 1.116-.1611 1.404.6048s.126 1.737-.361 2.1689c-.487.432-1.116.1612-1.404-.6047z"/><path d="m127.499 15.2097c-.314-.8327-.137-1.8892.394-2.3597s1.215-.1769 1.528.6559c.313.8327.137 1.8892-.394 2.3597s-1.215.1768-1.528-.6559z"/><path d="m131.287 9.65667c-.342-.90844-.148-2.06171.432-2.57591s1.327-.19462 1.669.71382c.341.90843.148 2.06172-.432 2.57592s-1.328.1946-1.669-.71383z"/><path d="m135.072 4.09755c-.372-.98859-.163-2.24228.467-2.80019.629-.55791 1.441-.20877 1.813.77982.371.98859.163 2.24228-.467 2.80019-.629.55791-1.441.20877-1.813-.77982z"/><path d="m138.876-1.46969c-.397-1.05539-.173-2.39448.5-2.99096.673-.59647 1.54-.22445 1.937.83094s.173 2.3945-.5 2.990972c-.673.5964743-1.54.224442-1.937-.830952z"/><path d="m27.0254 173.049c-.1457-.388-.064-.879.1826-1.097.2466-.219.5646-.082.7103.305.1457.388.0639.879-.1826 1.098-.2466.218-.5646.081-.7103-.306z"/><path d="m30.9783 167.34c-.1206-.32-.0514-.728.1546-.911.2059-.182.4707-.07.5913.25.1205.321.0513.729-.1546.911-.206.183-.4707.071-.5913-.25z"/><path d="m34.9433 161.626c-.0921-.245-.0398-.556.1169-.695.1566-.139.3583-.053.4504.192s.0398.556-.1169.695c-.1566.139-.3583.053-.4504-.192z"/><path d="m38.8983 155.925c-.067-.178-.0296-.403.0836-.504.1131-.1.2591-.037.3261.141s.0296.404-.0835.504c-.1132.101-.2592.037-.3262-.141z"/><path d="m42.8409 150.227c-.0452-.12-.0184-.274.0599-.343.0784-.07.1785-.029.2237.092.0453.12.0184.274-.0599.343s-.1785.028-.2237-.092z"/><path d="m46.7968 144.527c-.0201-.054-.0082-.122.0268-.153.0349-.031.0796-.013.0997.041.0202.053.0082.122-.0267.153s-.0796.012-.0998-.041z"/><path d="m50.7241 138.846c-.0034-.009-.0014-.021.0046-.026s.0137-.002.0172.007.0014.021-.0046.026c-.006.006-.0137.003-.0172-.007z"/><path d="m81.7472 93.7585c-.0035-.0093-.0014-.0211.0046-.0264s.0137-.0022.0172.0071c.0035.0092.0014.021-.0046.0263s-.0137.0022-.0172-.007z"/><path d="m85.57 88.1674c-.0201-.0536-.0082-.1222.0268-.1532.0349-.0309.0796-.0126.0997.0411.0202.0536.0082.1221-.0267.1531s-.0796.0126-.0998-.041z"/><path d="m89.3858 82.5941c-.0419-.1113-.0194-.2516.0503-.3133.0696-.0617.16-.0214.2018.0899.0419.1113.0194.2516-.0502.3133s-.16.0215-.2019-.0899z"/><path d="m93.1867 77.021c-.067-.1781-.0296-.4038.0835-.504.1131-.1003.2592-.0372.3261.1409.067.1782.0296.4039-.0835.5041-.1131.1003-.2592.0372-.3261-.141z"/><path d="m97.0005 71.4481c-.0871-.2315-.0377-.5255.1102-.6567.1479-.1311.3385-.0497.4256.1819s.0377.5256-.1102.6567c-.148.1311-.3385.0497-.4256-.1819z"/><path d="m100.786 65.889c-.118-.3117-.053-.7061.144-.881.198-.1748.453-.0638.57.2479s.052.7061-.145.881c-.197.1748-.452.0638-.569-.2479z"/><path d="m104.587 60.3179c-.143-.3785-.063-.8584.178-1.0718s.551-.0795.694.299c.142.3785.062.8584-.179 1.0718-.24.2133-.551.0795-.693-.299z"/><path d="m108.385 54.7546c-.167-.4454-.073-1.0106.212-1.2626.284-.2519.65-.0952.818.3501.167.4453.072 1.0106-.212 1.2625-.284.252-.65.0953-.818-.35z"/><path d="m112.187 49.1858c-.193-.5121-.086-1.1607.239-1.4486.325-.288.745-.1063.937.4059.193.5121.086 1.1606-.239 1.4486s-.745.1062-.937-.4059z"/><path d="m115.991 43.6186c-.218-.5789-.096-1.3129.272-1.6394.369-.3265.844-.1219 1.062.457.217.5789.095 1.3129-.273 1.6394s-.844.1219-1.061-.457z"/><path d="m119.791 38.044c-.242-.6457-.108-1.463.301-1.8255s.938-.133 1.181.5127.108 1.4631-.301 1.8256-.938.1329-1.181-.5128z"/><path d="m123.591 32.4866c-.268-.7125-.118-1.6153.334-2.0164.453-.401 1.037-.1486 1.305.5639s.118 1.6153-.334 2.0163c-.453.4011-1.037.1487-1.305-.5638z"/><path d="m127.391 26.9137c-.291-.7748-.126-1.7594.37-2.199.497-.4396 1.135-.1679 1.426.6069.292.7749.126 1.7594-.37 2.1991-.496.4396-1.135.1679-1.426-.607z"/><path d="m131.179 21.3624c-.322-.855-.14-1.9399.405-2.4233.545-.4833 1.248-.1821 1.57.6729.321.855.14 1.94-.406 2.4233-.545.4834-1.248.1821-1.569-.6729z"/><path d="m134.981 15.7917c-.347-.9218-.153-2.09.433-2.6094.586-.5193 1.342-.1931 1.689.7287s.153 2.0901-.433 2.6094c-.586.5194-1.342.1931-1.689-.7287z"/><path d="m138.77 10.227c-.375-.99749-.164-2.26257.471-2.82563.635-.56305 1.455-.21085 1.83.78665s.164 2.26258-.471 2.82558c-.636.5631-1.455.2109-1.83-.7866z"/><path d="m142.57 4.66954c-.4-1.0643-.175-2.41479.504-3.0164.679-.60162 1.554-.22654 1.954.83775.4 1.0643.175 2.41479-.504 3.0164-.679.60162-1.554.22654-1.954-.83775z"/><path d="m146.366-.901602c-.426-1.131088-.185-2.566988.537-3.207168s1.653-.24223 2.078.88886c.426 1.1311.185 2.567005-.537 3.2071869-.723.6401811-1.653.2422131-2.078-.8888789z"/><path d="m34.6568 173.491c-.1289-.343-.0548-.779.1657-.975.2205-.195.5038-.075.6327.267.129.343.0548.78-.1657.975-.2204.195-.5037.076-.6327-.267z"/><path d="m38.6129 167.789c-.1038-.276-.0445-.627.1324-.784.177-.157.4046-.06.5085.216.1038.276.0445.627-.1324.784-.177.156-.4046.06-.5085-.216z"/><path d="m42.5655 162.079c-.0787-.21-.0343-.475.0991-.593.1335-.119.3054-.045.3842.164.0787.21.0343.475-.0991.593-.1335.119-.3055.045-.3842-.164z"/><path d="m46.5118 156.392c-.0586-.156-.0262-.353.0724-.441.0986-.087.2261-.032.2848.124.0586.156.0261.353-.0725.441-.0986.087-.2261.032-.2847-.124z"/><path d="m50.4502 150.697c-.0368-.098-.015-.223.0489-.279.0638-.057.1454-.023.1822.075.0369.098.015.223-.0488.279-.0638.057-.1454.023-.1823-.075z"/><path d="m54.3865 145.003c-.0168-.045-.0068-.102.0223-.128s.0663-.01.0831.034c.0168.045.0068.102-.0223.128s-.0663.01-.0831-.034z"/><path d="m58.3106 139.335c-.0035-.01-.0014-.021.0046-.027.006-.005.0137-.002.0171.007.0035.01.0015.021-.0046.027-.006.005-.0137.002-.0171-.007z"/><path d="m81.5778 105.518c-.0035-.009-.0014-.021.0046-.026s.0137-.002.0171.007c.0035.009.0015.021-.0046.026-.006.006-.0137.002-.0171-.007z"/><path d="m85.4093 99.9207c-.0168-.0447-.0068-.1018.0223-.1276s.0663-.0105.0831.0342.0069.1018-.0222.1276-.0664.0105-.0832-.0342z"/><path d="m89.2324 94.3296c-.0335-.089-.0136-.2029.0444-.2543s.1322-.0209.1657.0681c.0335.0891.0136.203-.0444.2544s-.1322.0209-.1657-.0682z"/><path d="m93.0519 88.7489c-.0536-.1425-.0218-.3247.071-.407.0929-.0823.2116-.0334.2652.1091s.0218.3247-.0711.407c-.0928.0822-.2115.0334-.2651-.1091z"/><path d="m96.8641 83.1679c-.0754-.2004-.033-.4545.0946-.5677.1277-.1131.2922-.0423.3676.158.0754.2004.033.4546-.0946.5677-.1277.1131-.2923.0424-.3676-.158z"/><path d="m100.662 77.6105c-.1-.2672-.043-.6068.128-.7585s.392-.0581.492.2091c.101.2672.043.6068-.128.7585s-.391.058-.492-.2091z"/><path d="m104.468 72.0281c-.125-.334-.055-.7569.156-.9446.212-.1877.486-.0691.611.2649.126.334.056.7569-.156.9446-.212.1876-.485.069-.611-.2649z"/><path d="m108.268 66.4706c-.15-.4008-.066-.9091.19-1.1353.255-.2263.584-.0848.735.316s.066.9091-.19 1.1353c-.255.2263-.584.0848-.735-.316z"/><path d="m112.069 60.8999c-.176-.4676-.079-1.0592.217-1.3214.296-.2623.678-.0958.854.3717.176.4676.079 1.0593-.217 1.3215s-.679.0958-.854-.3718z"/><path d="m115.867 55.3366c-.201-.5344-.089-1.2114.25-1.5122.34-.3009.778-.1115.979.4229s.089 1.2114-.251 1.5122c-.339.3008-.777.1115-.978-.4229z"/><path d="m119.668 49.7655c-.226-.6012-.099-1.3637.284-1.703.383-.3394.877-.1272 1.103.474s.099 1.3636-.284 1.703-.877.1271-1.103-.474z"/><path d="m123.469 44.1909c-.252-.668-.112-1.5138.312-1.8891.423-.3754.97-.1382 1.221.5298.252.6679.112 1.5137-.312 1.8891-.423.3753-.97.1381-1.221-.5298z"/><path d="m127.268 38.6317c-.274-.7303-.118-1.6579.349-2.0718.467-.414 1.068-.1575 1.343.5728.274.7303.118 1.6579-.349 2.0719-.467.4139-1.068.1574-1.343-.5729z"/><path d="m131.069 33.0586c-.299-.7971-.128-1.8101.382-2.2626.511-.4525 1.168-.1731 1.467.624.3.7971.129 1.8101-.381 2.2626-.511.4525-1.168.1731-1.468-.624z"/><path d="m134.873 27.4958c-.325-.8639-.142-1.9603.41-2.4488.551-.4885 1.261-.1841 1.586.6798s.141 1.9602-.41 2.4487-1.261.1842-1.586-.6797z"/><path d="m138.658 21.9366c-.355-.944-.156-2.1408.445-2.673.6-.5322 1.375-.1983 1.73.7458.355.944.156 2.1408-.445 2.673-.6.5322-1.375.1983-1.73-.7458z"/><path d="m142.462 16.3753c-.38-1.0109-.167-2.2931.477-2.8638.644-.5708 1.475-.214 1.855.7968.38 1.0109.166 2.2931-.478 2.8638-.644.5708-1.474.214-1.854-.7968z"/><path d="m146.257 10.8022c-.405-1.07767-.176-2.44524.511-3.05457.688-.60933 1.574-.22968 1.979.84798.405 1.07765.177 2.44519-.511 3.05459-.687.6093-1.573.2296-1.979-.848z"/><path d="m150.062 5.23932c-.43-1.14445-.189-2.59535.539-3.24068.728-.64532 1.667-.24069 2.098.90376.43 1.14445.189 2.59535-.539 3.24067s-1.667.24071-2.098-.90375z"/><path d="m42.2632 173.959c-.1206-.32-.0514-.728.1546-.911.206-.182.4707-.07.5913.25.1206.321.0514.729-.1546.911-.206.183-.4707.071-.5913-.25z"/><path d="m46.2184 168.253c-.0955-.254-.0412-.576.1212-.72.1625-.144.3716-.055.467.199.0955.254.0412.576-.1212.72-.1625.144-.3716.055-.467-.199z"/><path d="m50.1632 162.562c-.0754-.2-.033-.454.0946-.567s.2922-.043.3676.158c.0753.2.033.454-.0947.567-.1276.114-.2922.043-.3675-.158z"/><path d="m54.1005 156.868c-.0536-.142-.0218-.325.071-.407.0929-.082.2116-.033.2651.109.0536.143.0218.325-.071.407s-.2115.034-.2651-.109z"/><path d="m58.0312 151.192c-.0369-.098-.015-.224.0488-.28.0638-.057.1454-.023.1823.075.0368.098.0149.223-.0489.279-.0638.057-.1454.023-.1822-.074z"/><path d="m61.9472 145.517c-.0252-.067-.0102-.153.0335-.192.0436-.038.0995-.015.1247.052s.0102.152-.0335.191c-.0436.039-.0994.016-.1247-.051z"/><path d="m65.8623 139.843c-.0119-.032-.0048-.072.0158-.091.0207-.018.0471-.007.059.025.012.031.0049.072-.0158.09-.0206.018-.0471.008-.059-.024z"/><path d="m69.7512 134.204c-.0085-.023-.0035-.052.0113-.065.0147-.013.0336-.005.0421.017.0086.023.0035.052-.0113.065-.0147.013-.0336.005-.0421-.017z"/><path d="m73.6461 128.546c-.0034-.01-.0014-.021.0046-.027.006-.005.0137-.002.0172.007s.0014.021-.0046.027c-.006.005-.0137.002-.0172-.007z"/><path d="m77.5241 122.919c-.0035-.01-.0014-.021.0046-.027.006-.005.0137-.002.0171.007.0035.01.0015.021-.0046.027-.006.005-.0137.002-.0171-.007z"/><path d="m81.3719 117.302c-.0119-.032-.0048-.072.0159-.091.0206-.018.0471-.007.059.025.0119.031.0048.072-.0158.09-.0207.018-.0471.008-.0591-.024z"/><path d="m85.2292 111.693c-.0202-.054-.0082-.122.0267-.153.035-.031.0796-.013.0998.041.0202.053.0082.122-.0267.153-.035.031-.0796.012-.0998-.041z"/><path d="m89.0511 106.1c-.0369-.098-.015-.224.0488-.28.0638-.057.1454-.023.1823.075.0368.098.0149.223-.0489.28-.0638.056-.1454.023-.1822-.075z"/><path d="m92.8766 100.516c-.0536-.142-.0218-.324.0711-.407.0928-.082.2115-.033.2651.11.0536.142.0218.324-.0711.407-.0928.082-.2115.033-.2651-.11z"/><path d="m96.7097 94.9161c-.0703-.187-.0309-.4241.088-.5295.119-.1054.2724-.0392.3428.1478.0703.187.0309.4241-.088.5295-.119.1054-.2724.0393-.3428-.1478z"/><path d="m100.515 89.3366c-.092-.2449-.039-.556.117-.6948.157-.1388.359-.0529.451.1921.092.2449.04.556-.117.6948-.157.1389-.358.0529-.451-.1921z"/><path d="m104.32 83.7738c-.117-.3117-.052-.7062.145-.881s.452-.0639.57.2479c.117.3117.052.7061-.145.8809-.198.1749-.453.0639-.57-.2478z"/><path d="m108.137 78.1872c-.138-.3652-.061-.8279.171-1.0336s.532-.0764.669.2887c.137.3652.061.828-.171 1.0336-.233.2057-.532.0764-.669-.2887z"/><path d="m111.935 72.6278c-.163-.432-.071-.9802.205-1.2244.275-.2442.63-.0921.793.3399.162.4319.071.9801-.205 1.2243-.276.2443-.631.0921-.793-.3398z"/><path d="m115.746 67.0448c-.185-.4898-.082-1.1099.228-1.385s.711-.101.896.3888c.184.4898.082 1.11-.229 1.3851-.31.2751-.711.101-.895-.3889z"/><path d="m119.55 61.4815c-.21-.5566-.093-1.2622.261-1.5758.354-.3137.811-.1167 1.02.4399.21.5567.092 1.2622-.261 1.5759-.354.3136-.811.1166-1.02-.44z"/><path d="m123.347 55.9143c-.235-.6235-.103-1.4144.295-1.7666.397-.3523.909-.1324 1.144.4911.234.6234.102 1.4143-.295 1.7665-.398.3523-.91.1324-1.144-.491z"/><path d="m127.15 50.3495c-.26-.6903-.115-1.5645.323-1.9528.438-.3882 1.004-.1434 1.263.5469.26.6902.115 1.5645-.323 1.9527s-1.004.1434-1.263-.5468z"/><path d="m130.951 44.7766c-.283-.7525-.122-1.7086.359-2.1354.482-.4268 1.102-.1627 1.385.5899s.122 1.7086-.36 2.1354c-.481.4268-1.101.1627-1.384-.5899z"/><path d="m134.762 39.1937c-.305-.8105-.134-1.8385.383-2.2961.516-.4577 1.182-.1716 1.487.6388.304.8105.133 1.8385-.383 2.2961-.517.4577-1.182.1717-1.487-.6388z"/><path d="m138.55 33.6426c-.333-.8862-.145-2.011.421-2.5123.565-.5013 1.294-.1894 1.627.6968.334.8862.145 2.011-.42 2.5123-.566.5014-1.295.1894-1.628-.6968z"/><path d="m142.351 28.0715c-.359-.953-.155-2.1632.454-2.7031s1.393-.2051 1.752.7479c.358.953.155 2.1632-.454 2.7031s-1.394.205-1.752-.7479z"/><path d="m146.156 22.5067c-.384-1.0198-.168-2.3133.482-2.8892s1.487-.2161 1.871.8036c.383 1.0198.167 2.3133-.482 2.8892-.65.576-1.488.2161-1.871-.8036z"/><path d="m149.951 16.9375c-.408-1.0866-.178-2.4655.516-3.08.693-.6145 1.586-.2318 1.995.8548s.178 2.4655-.515 3.08c-.694.6145-1.587.2318-1.996-.8548z"/><path d="m49.874 174.418c-.1122-.298-.048-.678.1435-.847.1914-.17.4376-.066.5498.233.1122.298.048.677-.1435.847-.1914.17-.4376.065-.5498-.233z"/><path d="m53.8149 168.733c-.0921-.245-.0398-.556.1168-.695.1567-.139.3583-.053.4505.192.0921.245.0398.556-.1169.695-.1566.139-.3583.053-.4504-.192z"/><path d="m57.7414 163.049c-.0754-.201-.033-.455.0946-.568.1277-.113.2923-.042.3676.158.0754.201.033.455-.0946.568-.1277.113-.2922.042-.3676-.158z"/><path d="m61.6765 157.366c-.0587-.155-.0262-.353.0724-.44.0986-.088.2261-.032.2847.124.0587.156.0262.353-.0724.44-.0987.088-.2261.032-.2847-.124z"/><path d="m65.5888 151.7c-.0452-.121-.0184-.274.06-.344.0783-.069.1784-.028.2237.092.0452.121.0184.274-.06.344-.0783.069-.1784.028-.2237-.092z"/><path d="m69.4928 146.043c-.0368-.098-.015-.223.0489-.28.0638-.056.1454-.023.1822.075.0369.098.015.223-.0488.28s-.1454.023-.1823-.075z"/><path d="m73.3979 140.379c-.0285-.076-.0116-.173.0378-.217.0493-.043.1123-.017.1408.058.0285.076.0116.173-.0377.217-.0494.043-.1124.017-.1409-.058z"/><path d="m77.2758 134.75c-.0284-.076-.0115-.173.0378-.216.0493-.044.1124-.018.1408.057.0285.076.0116.173-.0377.217-.0493.043-.1124.017-.1409-.058z"/><path d="m81.1499 129.111c-.0285-.076-.0116-.172.0377-.216s.1124-.018.1409.058c.0284.075.0115.172-.0378.216s-.1124.018-.1408-.058z"/><path d="m85.0033 123.492c-.0368-.098-.015-.223.0489-.28.0638-.056.1454-.023.1822.075.0369.098.015.224-.0488.28-.0638.057-.1454.023-.1823-.075z"/><path d="m88.8546 117.885c-.0452-.12-.0184-.274.0599-.343.0783-.07.1785-.028.2237.092s.0184.274-.0599.343c-.0784.07-.1785.028-.2237-.092z"/><path d="m92.6922 112.278c-.0586-.155-.0262-.353.0724-.44.0987-.087.2262-.032.2848.124s.0262.353-.0725.44c-.0986.088-.2261.032-.2847-.124z"/><path d="m96.5233 106.691c-.0754-.2-.033-.454.0946-.567s.2922-.043.3676.158c.0754.2.033.454-.0947.567-.1276.113-.2922.043-.3675-.158z"/><path d="m100.344 101.1c-.092-.245-.039-.556.117-.695.157-.138.359-.052.451.193.092.244.039.556-.117.694-.157.139-.358.053-.451-.192z"/><path d="m104.175 95.5117c-.109-.2895-.049-.6554.133-.8174.183-.162.42-.0586.528.2308.109.2895.049.6554-.133.8174-.183.162-.419.0586-.528-.2308z"/><path d="m107.97 89.9445c-.134-.3563-.059-.8077.167-1.0082.227-.2005.519-.0743.653.2819.134.3563.059.8077-.167 1.0082-.227.2005-.519.0743-.653-.2819z"/><path d="m111.789 84.3637c-.154-.4097-.067-.9294.194-1.1608s.598-.0868.752.3229.067.9294-.194 1.1607c-.261.2314-.598.0869-.752-.3228z"/><path d="m115.602 78.7827c-.176-.4676-.079-1.0592.217-1.3214.296-.2623.678-.0958.854.3718.176.4675.079 1.0592-.217 1.3214-.296.2623-.679.0958-.854-.3718z"/><path d="m119.408 73.2074c-.196-.521-.085-1.1831.249-1.4787.334-.2957.763-.113.959.408s.084 1.1831-.249 1.4787c-.334.2957-.763.113-.959-.408z"/><path d="m123.216 67.6367c-.221-.5878-.096-1.3332.278-1.6648.374-.3317.857-.124 1.078.4638s.097 1.3332-.278 1.6648c-.374.3317-.856.124-1.078-.4638z"/><path d="m127.013 62.0695c-.246-.6546-.107-1.4854.311-1.8556.417-.3703.956-.1397 1.202.5149s.107 1.4854-.311 1.8556c-.417.3702-.956.1397-1.202-.5149z"/><path d="m130.827 56.4963c-.268-.7125-.118-1.6152.334-2.0163.453-.4011 1.037-.1486 1.305.5639s.118 1.6152-.334 2.0163c-.453.4011-1.037.1486-1.305-.5639z"/><path d="m134.628 50.9215c-.291-.7748-.125-1.7593.371-2.199.496-.4396 1.134-.1679 1.425.607.292.7748.126 1.7593-.37 2.199-.496.4396-1.134.1679-1.426-.607z"/><path d="m138.433 45.3587c-.316-.8417-.138-1.9095.399-2.3852.536-.4756 1.228-.1789 1.545.6627.316.8417.138 1.9095-.399 2.3852-.537.4756-1.228.1789-1.545-.6627z"/><path d="m142.228 39.7914c-.341-.9084-.148-2.0617.432-2.5759.581-.5142 1.328-.1946 1.669.7138.342.9085.149 2.0618-.431 2.576-.581.5142-1.328.1946-1.67-.7139z"/><path d="m146.033 34.2262c-.367-.9753-.159-2.214.465-2.7667.623-.5528 1.426-.2103 1.793.7649s.159 2.2139-.465 2.7667-1.427.2103-1.793-.7649z"/><path d="m149.833 28.6535c-.392-1.042-.171-2.364.493-2.9528.664-.5887 1.52-.2213 1.912.8207.392 1.0421.171 2.3641-.493 2.9528-.664.5888-1.52.2214-1.912-.8207z"/><path d="m57.4562 174.914c-.1123-.298-.048-.678.1434-.847.1915-.17.4377-.066.5499.233.1122.298.048.677-.1435.847s-.4376.065-.5498-.233z"/><path d="m61.3827 169.228c-.0955-.254-.0412-.577.1212-.72.1625-.144.3716-.055.467.198.0955.254.0412.577-.1212.721-.1625.144-.3716.055-.467-.199z"/><path d="m65.3021 163.561c-.0837-.223-.0364-.505.1058-.631.1421-.126.3252-.048.409.175.0837.222.0364.505-.1058.631-.1421.126-.3252.048-.409-.175z"/><path d="m69.2185 157.885c-.0703-.187-.0309-.424.088-.53.119-.105.2724-.039.3427.148.0704.187.031.424-.0879.53-.119.105-.2724.039-.3428-.148z"/><path d="m73.1173 152.236c-.062-.165-.0252-.376.0821-.471s.2446-.039.3066.126c.0619.165.0252.376-.0822.471-.1073.095-.2446.038-.3065-.126z"/><path d="m77.0233 146.571c-.0536-.142-.0218-.325.0711-.407.0928-.082.2115-.033.2651.109.0536.143.0218.325-.071.407-.0929.082-.2116.034-.2652-.109z"/><path d="m80.9015 140.944c-.0536-.142-.0218-.324.071-.407.0929-.082.2116-.033.2652.109.0536.143.0218.325-.0711.407-.0928.083-.2115.034-.2651-.109z"/><path d="m84.7755 135.304c-.0536-.143-.0217-.325.0711-.407.0928-.083.2115-.034.2651.109.0536.142.0218.324-.071.407-.0929.082-.2116.033-.2652-.109z"/><path d="m88.6323 129.693c-.062-.165-.0252-.376.0821-.471.1074-.095.2446-.039.3066.126.0619.165.0252.376-.0822.471-.1073.095-.2445.038-.3065-.126z"/><path d="m92.4851 124.074c-.0703-.187-.0309-.424.088-.529.119-.106.2724-.039.3427.148.0704.187.031.424-.0879.529-.119.106-.2724.039-.3428-.148z"/><path d="m96.3335 118.458c-.0787-.21-.0344-.475.0991-.594.1334-.118.3054-.044.3841.165.0787.21.0343.475-.0991.593-.1334.119-.3054.045-.3841-.164z"/><path d="m100.165 112.872c-.096-.253-.042-.576.121-.72.162-.144.371-.055.467.199.095.254.041.576-.121.72-.163.144-.372.055-.467-.199z"/><path d="m103.986 107.279c-.113-.298-.048-.677.143-.847.192-.17.438-.066.55.233.112.298.048.678-.143.847-.192.17-.438.066-.55-.233z"/><path d="m107.811 101.696c-.129-.343-.055-.779.165-.975.221-.195.504-.075.633.268.129.342.055.779-.166.974-.22.196-.503.076-.632-.267z"/><path d="m111.627 96.1132c-.151-.4008-.066-.9091.189-1.1354.256-.2262.585-.0847.735.3161.151.4007.066.909-.189 1.1353-.255.2262-.584.0848-.735-.316z"/><path d="m115.452 90.5299c-.167-.4453-.072-1.0105.212-1.2625.284-.2519.65-.0952.818.3501.167.4453.073 1.0106-.212 1.2625-.284.252-.65.0953-.818-.3501z"/><path d="m119.253 84.9554c-.192-.5121-.085-1.1607.24-1.4487.325-.2879.744-.1062.937.4059.192.5121.085 1.1607-.24 1.4486-.325.288-.744.1063-.937-.4058z"/><path d="m123.074 79.3766c-.213-.5656-.094-1.2825.266-1.6013s.824-.1188 1.036.4468c.213.5655.094 1.2824-.266 1.6012-.359.3188-.823.1188-1.036-.4467z"/><path d="m126.88 73.799c-.235-.6234-.103-1.4143.295-1.7666.397-.3522.909-.1323 1.144.4911.234.6235.102 1.4144-.295 1.7666-.398.3522-.91.1324-1.144-.4911z"/><path d="m130.695 68.2242c-.255-.6769-.111-1.5362.321-1.9193.433-.383.989-.1449 1.244.532s.111 1.5361-.322 1.9192c-.432.3831-.989.1449-1.243-.5319z"/><path d="m134.501 62.6496c-.28-.7437-.123-1.6863.349-2.1054.473-.419 1.083-.1559 1.363.5878s.123 1.6862-.35 2.1053-1.083.156-1.362-.5877z"/><path d="m138.305 57.0684c-.3-.7971-.129-1.8101.382-2.2626.51-.4525 1.167-.1731 1.467.624s.129 1.8101-.382 2.2626c-.51.4525-1.167.1731-1.467-.624z"/><path d="m142.11 51.5036c-.325-.8639-.141-1.9603.41-2.4488s1.261-.1841 1.586.6798.142 1.9602-.41 2.4487c-.551.4885-1.261.1842-1.586-.6797z"/><path d="m145.901 45.9405c-.355-.944-.156-2.1408.444-2.673.601-.5322 1.375-.1983 1.73.7458.355.944.156 2.1408-.444 2.673s-1.375.1983-1.73-.7458z"/><path d="m149.714 40.3676c-.375-.9975-.164-2.2625.471-2.8256.636-.5631 1.455-.2109 1.83.7866s.164 2.2626-.471 2.8257c-.635.563-1.455.2108-1.83-.7867z"/><path d="m65.0157 175.426c-.1206-.32-.0514-.728.1545-.911.206-.182.4707-.07.5913.25.1206.321.0514.729-.1546.911-.2059.183-.4707.071-.5912-.25z"/><path d="m68.9332 169.75c-.1089-.289-.049-.655.1338-.817.1827-.162.4191-.059.528.23.1089.29.049.656-.1338.818s-.4192.058-.528-.231z"/><path d="m72.847 164.089c-.0955-.254-.0411-.576.1213-.72.1625-.144.3715-.055.467.199s.0412.576-.1213.72c-.1624.144-.3715.055-.467-.199z"/><path d="m76.7532 158.425c-.0871-.232-.0378-.526.1102-.657.1479-.131.3385-.05.4256.182.0871.231.0377.525-.1102.657-.148.131-.3385.049-.4256-.182z"/><path d="m80.6375 152.776c-.0838-.223-.0364-.506.1057-.632s.3253-.047.409.176c.0837.222.0364.505-.1057.631-.1422.126-.3253.047-.409-.175z"/><path d="m84.5311 147.129c-.0787-.209-.0344-.474.0991-.593.1334-.118.3054-.044.3841.165s.0344.475-.0991.593c-.1334.118-.3054.045-.3841-.165z"/><path d="m88.395 141.504c-.0837-.222-.0364-.505.1058-.631.1421-.126.3252-.048.409.175.0837.223.0364.505-.1058.631-.1421.126-.3252.048-.409-.175z"/><path d="m92.2614 135.882c-.0871-.232-.0378-.526.1102-.657.1479-.131.3384-.05.4255.182.0871.231.0378.525-.1102.657-.1479.131-.3384.049-.4255-.182z"/><path d="m96.1114 130.269c-.0954-.254-.0411-.576.1213-.72.1625-.144.3715-.055.467.198.0955.254.0412.577-.1213.721-.1624.144-.3715.055-.467-.199z"/><path d="m99.9662 124.656c-.1038-.276-.0445-.627.1328-.784.177-.157.404-.06.508.216s.045.627-.132.784-.405.06-.5088-.216z"/><path d="m103.806 119.051c-.117-.312-.053-.706.145-.881.197-.175.452-.064.569.248s.053.706-.145.881c-.197.175-.452.064-.569-.248z"/><path d="m107.629 113.468c-.134-.356-.059-.808.168-1.008.226-.201.518-.075.652.282.134.356.059.807-.167 1.008-.227.2-.519.074-.653-.282z"/><path d="m111.452 107.877c-.151-.401-.066-.909.189-1.135.256-.227.585-.085.735.316.151.4.066.909-.189 1.135s-.584.085-.735-.316z"/><path d="m115.279 102.282c-.168-.445-.073-1.011.211-1.263s.651-.095.818.35c.168.446.073 1.011-.211 1.263-.285.252-.651.095-.818-.35z"/><path d="m119.094 96.709c-.188-.4988-.081-1.1324.238-1.4152s.73-.1077.917.391c.188.4988.081 1.1324-.238 1.4152s-.73.1077-.917-.391z"/><path d="m122.905 91.1241c-.21-.5567-.093-1.2622.261-1.5758.354-.3137.811-.1167 1.02.4399.21.5566.092 1.2622-.262 1.5758-.353.3137-.81.1167-1.019-.4399z"/><path d="m126.736 85.5389c-.226-.6012-.099-1.3636.284-1.703s.876-.1272 1.102.474.099 1.3637-.284 1.703c-.383.3394-.876.1272-1.102-.474z"/><path d="m130.546 79.9562c-.246-.6546-.107-1.4854.311-1.8556s.956-.1397 1.202.5149.107 1.4854-.31 1.8556c-.418.3703-.956.1397-1.203-.5149z"/><path d="m134.345 74.3948c-.271-.7214-.117-1.6376.344-2.0464.461-.4087 1.055-.1553 1.326.5661.272.7214.118 1.6376-.344 2.0464-.461.4088-1.055.1554-1.326-.5661z"/><path d="m138.161 68.8082c-.291-.7748-.125-1.7593.371-2.199.496-.4396 1.134-.1679 1.426.607.291.7748.125 1.7593-.371 2.199-.496.4396-1.134.1679-1.426-.607z"/><path d="m141.976 63.2331c-.313-.8327-.136-1.8892.395-2.3597.53-.4705 1.215-.1768 1.528.6559s.137 1.8892-.394 2.3597-1.215.1769-1.529-.6559z"/><path d="m145.772 57.6659c-.338-.8995-.147-2.0414.427-2.5505.575-.509 1.315-.1925 1.653.707.338.8996.147 2.0414-.428 2.5505-.574.5091-1.314.1925-1.652-.707z"/><path d="m149.579 52.0894c-.363-.9664-.159-2.1916.456-2.7366.615-.5451 1.408-.2036 1.771.7627.364.9664.16 2.1916-.455 2.7366-.615.5451-1.408.2036-1.772-.7627z"/><path d="m72.5571 175.946c-.134-.356-.0591-.807.1671-1.008.2263-.2.5183-.074.6523.282s.0592.808-.1671 1.008c-.2262.201-.5183.075-.6523-.282z"/><path d="m76.4715 170.282c-.1206-.321-.0514-.729.1546-.911.2059-.183.4706-.071.5912.25.1206.32.0514.728-.1546.911-.2059.182-.4706.07-.5912-.25z"/><path d="m80.378 164.615c-.1122-.298-.048-.678.1435-.847.1915-.17.4376-.066.5499.233.1122.298.0479.678-.1435.847-.1915.17-.4377.066-.5499-.233z"/><path d="m84.2712 158.973c-.1089-.29-.049-.656.1338-.818.1827-.162.4191-.058.528.231.1089.29.049.655-.1338.817-.1827.162-.4191.059-.528-.23z"/><path d="m88.1467 153.334c-.1089-.29-.049-.655.1338-.817.1827-.162.4191-.059.528.23.1089.29.049.656-.1338.818s-.4192.058-.528-.231z"/><path d="m92.0261 147.691c-.1089-.289-.049-.655.1338-.817.1827-.162.4191-.059.528.231.1089.289.049.655-.1338.817s-.4192.059-.528-.231z"/><path d="m95.8877 142.076c-.1123-.298-.048-.678.1435-.847.1914-.17.4376-.066.5498.233.1122.298.048.678-.1435.847-.1914.17-.4376.066-.5498-.233z"/><path d="m99.7356 136.461c-.1206-.32-.0514-.728.1546-.911.2058-.182.4708-.07.5908.25.121.321.052.729-.154.911-.206.183-.4708.071-.5914-.25z"/><path d="m103.592 130.852c-.129-.343-.055-.779.166-.974.22-.196.503-.076.632.267s.055.779-.165.974c-.221.196-.504.076-.633-.267z"/><path d="m107.43 125.246c-.142-.379-.063-.859.178-1.072.241-.214.552-.08.694.299.142.378.063.858-.178 1.072-.241.213-.552.079-.694-.299z"/><path d="m111.271 119.647c-.154-.41-.068-.929.193-1.161.261-.231.598-.087.752.323s.067.929-.194 1.161c-.261.231-.597.087-.751-.323z"/><path d="m115.097 114.054c-.171-.454-.074-1.031.216-1.288s.664-.097.835.357.074 1.031-.216 1.288-.664.097-.835-.357z"/><path d="m118.923 108.471c-.188-.499-.081-1.133.238-1.415.319-.283.73-.108.917.391.188.498.081 1.132-.238 1.415-.319.282-.73.107-.917-.391z"/><path d="m122.75 102.874c-.204-.543-.09-1.231.255-1.537.346-.306.791-.114.996.429.204.544.09 1.232-.256 1.538-.345.306-.79.114-.995-.43z"/><path d="m126.565 97.2987c-.226-.6012-.099-1.3637.284-1.703.383-.3394.876-.1272 1.102.474.227.6012.099 1.3636-.283 1.703-.383.3394-.877.1271-1.103-.474z"/><path d="m130.392 91.7042c-.243-.6457-.108-1.4631.301-1.8256s.937-.1329 1.18.5128.108 1.463-.301 1.8255-.937.133-1.18-.5127z"/><path d="m134.198 86.1269c-.263-.6991-.114-1.5869.333-1.9828.446-.396 1.022-.1502 1.285.549.263.6991.114 1.5869-.333 1.9828s-1.022.1501-1.285-.549z"/><path d="m138.017 80.5481c-.283-.7526-.122-1.7086.36-2.1354.481-.4268 1.101-.1627 1.384.5899.283.7525.122 1.7086-.359 2.1354-.482.4268-1.102.1627-1.385-.5899z"/><path d="m141.83 74.9652c-.305-.8105-.134-1.8385.383-2.2961.516-.4577 1.182-.1717 1.486.6388.305.8105.134 1.8385-.383 2.2961-.516.4577-1.182.1716-1.486-.6388z"/><path d="m145.628 69.4058c-.33-.8773-.144-1.9907.416-2.4869s1.281-.1873 1.611.6899c.33.8773.144 1.9907-.416 2.4869s-1.281.1873-1.611-.6899z"/><path d="m149.434 63.8292c-.355-.944-.156-2.1408.444-2.673.601-.5322 1.375-.1983 1.73.7458.355.944.156 2.1408-.444 2.673-.601.5322-1.375.1983-1.73-.7458z"/><path d="m80.108 176.467c-.1457-.388-.0639-.879.1826-1.097.2466-.219.5646-.082.7103.305.1457.388.064.879-.1826 1.098-.2466.218-.5646.081-.7103-.306z"/><path d="m83.9934 170.82c-.1424-.379-.0626-.859.1782-1.072.2407-.213.5513-.079.6937.299.1423.379.0626.858-.1782 1.072-.2408.213-.5514.079-.6937-.299z"/><path d="m87.8855 165.175c-.1373-.365-.0605-.827.1716-1.033.232-.206.5315-.077.6688.289.1374.365.0606.828-.1715 1.033-.2321.206-.5315.077-.6689-.289z"/><path d="m91.7665 159.533c-.1373-.365-.0605-.828.1715-1.034.2321-.205.5316-.076.6689.289.1374.365.0606.828-.1715 1.034-.2321.205-.5316.076-.6689-.289z"/><path d="m95.6427 153.904c-.1373-.365-.0605-.828.1716-1.034.232-.205.5315-.076.6688.289.1374.365.0606.828-.1715 1.034-.2321.205-.5315.076-.6689-.289z"/><path d="m99.5029 148.281c-.1424-.379-.0626-.859.1782-1.072.2407-.213.5509-.08.6939.299.142.379.062.858-.178 1.072-.2412.213-.5518.079-.6941-.299z"/><path d="m103.369 142.658c-.145-.387-.064-.878.183-1.097.246-.218.564-.082.71.306.146.387.064.879-.182 1.097-.247.219-.565.082-.711-.306z"/><path d="m107.223 137.039c-.154-.409-.067-.929.194-1.16.261-.232.597-.087.751.323.154.409.068.929-.193 1.16-.261.232-.598.087-.752-.323z"/><path d="m111.054 131.44c-.167-.445-.072-1.01.212-1.262s.65-.096.818.35c.167.445.073 1.01-.212 1.262-.284.252-.65.095-.818-.35z"/><path d="m114.895 125.843c-.179-.476-.077-1.081.227-1.351.305-.27.697-.103.876.374.179.476.078 1.081-.227 1.351-.304.27-.697.103-.876-.374z"/><path d="m118.738 120.233c-.192-.512-.085-1.161.24-1.449s.744-.106.937.406.085 1.161-.239 1.449c-.325.288-.745.106-.938-.406z"/><path d="m122.564 114.648c-.209-.557-.092-1.263.262-1.576.354-.314.81-.117 1.02.44.209.556.092 1.262-.262 1.575-.354.314-.811.117-1.02-.439z"/><path d="m126.385 109.056c-.226-.601-.099-1.363.284-1.703.383-.339.877-.127 1.103.475.226.601.099 1.363-.284 1.703-.383.339-.877.127-1.103-.475z"/><path d="m130.221 103.466c-.243-.646-.108-1.463.301-1.826.409-.362.937-.133 1.18.513s.108 1.463-.301 1.826c-.409.362-.937.133-1.18-.513z"/><path d="m134.044 97.8748c-.26-.6902-.115-1.5644.323-1.9527.438-.3882 1.003-.1434 1.263.5469.259.6902.115 1.5645-.323 1.9527s-1.004.1434-1.263-.5469z"/><path d="m137.857 92.3c-.279-.7437-.123-1.6863.35-2.1054.473-.419 1.083-.1559 1.363.5878.279.7436.123 1.6862-.35 2.1053s-1.083.1559-1.363-.5877z"/><path d="m141.669 86.7188c-.3-.7971-.129-1.8101.381-2.2626.511-.4525 1.168-.1732 1.468.6239.299.7971.129 1.8102-.382 2.2627s-1.167.1731-1.467-.624z"/><path d="m145.481 81.1378c-.321-.855-.14-1.9399.405-2.4233.546-.4833 1.249-.1821 1.57.6729.322.855.14 1.94-.405 2.4233-.546.4834-1.248.1821-1.57-.6729z"/><path d="m149.296 75.5649c-.342-.9085-.148-2.0617.432-2.5759s1.327-.1946 1.669.7138.148 2.0617-.432 2.5759-1.327.1946-1.669-.7138z"/><path d="m153.097 69.9898c-.367-.9752-.158-2.2139.465-2.7667.624-.5527 1.427-.2102 1.794.765.366.9752.158 2.2139-.466 2.7667-.623.5527-1.426.2103-1.793-.765z"/><path d="m87.6178 177.014c-.1675-.445-.0728-1.01.2115-1.262s.6505-.095.818.35.0728 1.01-.2115 1.262-.6505.096-.818-.35z"/><path d="m91.5113 171.37c-.1624-.432-.0707-.98.2049-1.224.2755-.245.6307-.092.7931.339.1625.432.0708.981-.2048 1.225s-.6307.092-.7932-.34z"/><path d="m95.3907 165.727c-.1624-.432-.0707-.98.2049-1.224.2755-.244.6306-.092.7931.34s.0708.98-.2048 1.224-.6307.092-.7932-.34z"/><path d="m99.2689 160.098c-.1625-.431-.0708-.98.2048-1.224s.6303-.092.7933.34c.162.432.071.98-.205 1.224-.2755.245-.6306.092-.7931-.34z"/><path d="m103.127 154.471c-.167-.445-.072-1.01.212-1.262s.65-.095.818.35c.167.445.073 1.01-.212 1.262-.284.252-.65.096-.818-.35z"/><path d="m106.999 148.847c-.171-.454-.074-1.031.216-1.288s.664-.097.835.357.074 1.031-.216 1.288-.664.097-.835-.357z"/><path d="m110.849 143.236c-.18-.477-.078-1.082.227-1.352.304-.27.696-.102.876.374.179.477.077 1.082-.227 1.352-.305.27-.697.102-.876-.374z"/><path d="m114.688 137.635c-.193-.512-.085-1.161.24-1.449s.744-.106.937.406c.192.512.085 1.161-.24 1.449s-.744.106-.937-.406z"/><path d="m118.542 132.016c-.201-.534-.089-1.211.251-1.512.339-.301.777-.111.978.423s.089 1.211-.251 1.512c-.339.301-.777.112-.978-.423z"/><path d="m122.384 126.421c-.213-.565-.094-1.282.266-1.601s.824-.119 1.037.447c.212.566.093 1.282-.267 1.601-.359.319-.823.119-1.036-.447z"/><path d="m126.205 120.832c-.23-.61-.101-1.384.288-1.728.389-.345.89-.129 1.119.481.23.61.101 1.384-.288 1.728-.389.345-.89.129-1.119-.481z"/><path d="m130.047 115.22c-.243-.646-.108-1.463.301-1.826.409-.362.938-.133 1.18.513.243.646.109 1.463-.3 1.826-.409.362-.938.133-1.181-.513z"/><path d="m133.857 109.65c-.263-.699-.114-1.587.333-1.982.447-.396 1.022-.151 1.285.549.263.699.114 1.586-.333 1.982s-1.022.15-1.285-.549z"/><path d="m137.685 104.054c-.28-.744-.123-1.686.35-2.105.472-.42 1.082-.156 1.362.587.28.744.123 1.687-.35 2.106-.472.419-1.082.156-1.362-.588z"/><path d="m141.514 98.4648c-.296-.7882-.13-1.7877.372-2.2325s1.149-.1664 1.446.6218c.296.7882.129 1.7877-.372 2.2325-.502.4448-1.149.1664-1.446-.6218z"/><path d="m145.327 92.886c-.317-.8416-.138-1.9095.398-2.3851.537-.4757 1.229-.179 1.545.6627.317.8416.138 1.9095-.398 2.3851-.537.4757-1.229.1789-1.545-.6627z"/><path d="m149.135 87.3163c-.338-.8995-.147-2.0414.427-2.5505.575-.509 1.315-.1925 1.653.707.338.8996.147 2.0414-.427 2.5505-.575.5091-1.315.1925-1.653-.707z"/><path d="m152.952 81.7297c-.359-.953-.155-2.1632.454-2.7031s1.393-.2051 1.752.7479c.358.953.155 2.1632-.454 2.7031s-1.394.2051-1.752-.7479z"/><path d="m95.1374 177.564c-.1876-.498-.081-1.132.2381-1.415s.7298-.107.9174.391c.1876.499.081 1.133-.2381 1.415-.3191.283-.7299.108-.9174-.391z"/><path d="m99.0194 171.928c-.1875-.499-.0809-1.133.2382-1.415.3191-.283.7298-.108.9174.391.188.498.081 1.132-.2381 1.415s-.7299.107-.9175-.391z"/><path d="m102.895 166.291c-.188-.499-.081-1.132.238-1.415s.73-.108.917.391c.188.499.081 1.132-.238 1.415s-.73.108-.917-.391z"/><path d="m106.758 160.664c-.192-.512-.085-1.16.24-1.448s.744-.107.937.406c.192.512.085 1.16-.24 1.448s-.744.106-.937-.406z"/><path d="m110.624 155.043c-.196-.521-.085-1.183.249-1.478.333-.296.763-.113.959.408s.084 1.183-.25 1.478c-.333.296-.762.113-.958-.408z"/><path d="m114.478 149.425c-.204-.543-.09-1.232.255-1.538.346-.306.791-.113.995.43.205.543.091 1.232-.255 1.538-.345.306-.79.113-.995-.43z"/><path d="m118.329 143.818c-.212-.566-.093-1.282.267-1.601.359-.319.823-.119 1.036.446.213.566.093 1.283-.266 1.602-.36.319-.824.119-1.037-.447z"/><path d="m122.168 138.213c-.226-.601-.099-1.364.284-1.703.383-.34.876-.127 1.102.474.227.601.099 1.363-.283 1.703-.383.339-.877.127-1.103-.474z"/><path d="m126.008 132.614c-.237-.632-.103-1.435.3-1.792s.923-.134 1.161.498c.237.632.103 1.435-.3 1.792s-.923.134-1.161-.498z"/><path d="m129.846 127.011c-.251-.668-.111-1.514.312-1.889.424-.375.971-.138 1.222.53s.111 1.514-.312 1.889c-.424.375-.971.138-1.222-.53z"/><path d="m133.686 121.414c-.263-.699-.114-1.587.333-1.983s1.022-.15 1.285.549.114 1.587-.333 1.983-1.022.15-1.285-.549z"/><path d="m137.514 115.816c-.28-.744-.123-1.687.35-2.106.472-.419 1.082-.156 1.362.588s.123 1.686-.35 2.105c-.472.419-1.083.156-1.362-.587z"/><path d="m141.319 110.24c-.299-.797-.128-1.81.382-2.262.511-.453 1.168-.173 1.467.624.3.797.129 1.81-.381 2.262-.511.453-1.168.173-1.468-.624z"/><path d="m145.156 104.648c-.317-.842-.138-1.91.398-2.385.537-.476 1.229-.179 1.545.662.317.842.138 1.91-.398 2.385-.537.476-1.229.179-1.545-.662z"/><path d="m148.978 99.0567c-.333-.8862-.145-2.011.421-2.5123.565-.5014 1.294-.1894 1.628.6967.333.8862.144 2.011-.421 2.5124-.566.5015-1.295.1894-1.628-.6968z"/><path d="m152.792 93.4796c-.355-.9441-.156-2.1408.444-2.673.601-.5322 1.375-.1983 1.73.7457.355.9441.156 2.1409-.444 2.6731-.601.5321-1.375.1983-1.73-.7458z"/><path d="m106.509 172.496c-.218-.579-.096-1.313.273-1.64.368-.326.843-.122 1.061.457s.096 1.313-.273 1.64c-.368.326-.843.121-1.061-.457z"/><path d="m110.391 166.861c-.218-.579-.096-1.313.273-1.64.368-.326.843-.122 1.061.457s.096 1.313-.273 1.64c-.368.326-.843.122-1.061-.457z"/><path d="m114.254 161.23c-.221-.587-.096-1.333.278-1.664.374-.332.857-.124 1.078.463.221.588.097 1.334-.278 1.665-.374.332-.856.124-1.078-.464z"/><path d="m118.107 155.625c-.229-.61-.1-1.384.288-1.728.389-.345.89-.129 1.12.481.229.61.1 1.384-.289 1.728-.388.345-.89.129-1.119-.481z"/><path d="m121.96 150.009c-.237-.633-.103-1.435.3-1.792.403-.358.923-.135 1.161.497.238.633.103 1.435-.3 1.792-.403.358-.923.135-1.161-.497z"/><path d="m125.809 144.394c-.246-.655-.107-1.486.31-1.856.418-.37.956-.14 1.203.515.246.655.107 1.485-.311 1.856-.418.37-.956.139-1.202-.515z"/><path d="m129.65 138.795c-.26-.69-.115-1.565.323-1.953s1.003-.143 1.263.547.115 1.564-.323 1.953c-.438.388-1.004.143-1.263-.547z"/><path d="m133.486 133.19c-.271-.722-.117-1.638.344-2.047.462-.408 1.055-.155 1.327.566.271.722.117 1.638-.344 2.047s-1.055.155-1.327-.566z"/><path d="m137.317 127.603c-.288-.766-.126-1.737.361-2.169s1.116-.161 1.404.605.127 1.737-.361 2.169c-.487.432-1.116.161-1.404-.605z"/><path d="m141.15 122.002c-.3-.797-.129-1.81.382-2.263.51-.452 1.167-.173 1.467.624s.129 1.81-.382 2.263c-.51.452-1.167.173-1.467-.624z"/><path d="m144.986 116.409c-.317-.841-.138-1.909.398-2.385.537-.475 1.229-.179 1.545.663.317.842.138 1.91-.398 2.385-.537.476-1.229.179-1.545-.663z"/><path d="m148.807 110.818c-.333-.886-.145-2.011.421-2.512.565-.501 1.294-.189 1.628.697.333.886.144 2.011-.421 2.512-.566.502-1.295.19-1.628-.697z"/><path d="m152.621 105.243c-.355-.944-.156-2.141.444-2.673.601-.532 1.375-.198 1.73.746s.156 2.141-.444 2.673c-.601.532-1.375.198-1.73-.746z"/><path d="m114.006 173.066c-.246-.655-.107-1.486.311-1.856s.956-.14 1.202.515c.246.654.107 1.485-.311 1.856-.417.37-.956.139-1.202-.515z"/><path d="m117.87 167.435c-.251-.668-.112-1.514.312-1.889.423-.375.97-.138 1.222.53.251.668.111 1.513-.312 1.889-.424.375-.971.138-1.222-.53z"/><path d="m121.731 161.82c-.254-.677-.11-1.536.322-1.919s.989-.145 1.244.532c.254.676.11 1.536-.322 1.919s-.989.145-1.244-.532z"/><path d="m125.585 156.201c-.263-.699-.114-1.587.333-1.983.446-.396 1.022-.15 1.285.549s.114 1.587-.333 1.983-1.022.15-1.285-.549z"/><path d="m129.436 150.594c-.271-.721-.117-1.638.344-2.046.461-.409 1.055-.156 1.326.566.272.721.118 1.637-.343 2.046-.462.409-1.056.155-1.327-.566z"/><path d="m133.274 144.988c-.283-.753-.122-1.709.36-2.136.481-.427 1.101-.163 1.384.59s.122 1.709-.359 2.135c-.482.427-1.102.163-1.385-.589z"/><path d="m137.118 139.379c-.297-.788-.13-1.788.371-2.233.502-.444 1.149-.166 1.446.622.296.788.13 1.788-.372 2.233-.502.444-1.149.166-1.445-.622z"/><path d="m140.958 133.782c-.308-.819-.134-1.859.388-2.321.522-.463 1.195-.174 1.503.645.309.82.135 1.859-.387 2.322s-1.195.173-1.504-.646z"/><path d="m144.791 128.181c-.321-.855-.14-1.94.405-2.424.546-.483 1.249-.182 1.57.673.322.855.14 1.94-.405 2.424-.545.483-1.248.182-1.57-.673z"/><path d="m148.621 122.594c-.339-.9-.147-2.042.427-2.551s1.314-.192 1.653.707c.338.9.146 2.042-.428 2.551s-1.314.192-1.652-.707z"/><path d="m152.432 117.011c-.359-.953-.156-2.163.454-2.703.609-.54 1.393-.205 1.752.748.358.953.155 2.163-.454 2.703-.61.54-1.394.205-1.752-.748z"/><path d="m121.496 173.63c-.275-.731-.119-1.658.348-2.072s1.068-.158 1.343.573c.275.73.119 1.658-.348 2.072s-1.069.157-1.343-.573z"/><path d="m125.368 168.005c-.28-.744-.123-1.686.35-2.105.472-.419 1.082-.156 1.362.587.28.744.123 1.687-.35 2.106-.472.419-1.083.156-1.362-.588z"/><path d="m129.216 162.39c-.288-.766-.126-1.737.361-2.169s1.116-.161 1.404.605.126 1.737-.361 2.169-1.116.161-1.404-.605z"/><path d="m133.067 156.783c-.297-.788-.13-1.788.372-2.232.502-.445 1.149-.167 1.445.621.297.789.13 1.788-.372 2.233s-1.149.166-1.445-.622z"/><path d="m136.921 151.164c-.305-.81-.134-1.838.383-2.296.516-.457 1.182-.171 1.487.639.305.811.133 1.839-.383 2.296-.517.458-1.182.172-1.487-.639z"/><path d="m140.76 145.568c-.317-.842-.138-1.91.399-2.385.536-.476 1.228-.179 1.544.662.317.842.139 1.91-.398 2.385-.537.476-1.228.179-1.545-.662z"/><path d="m144.594 139.968c-.33-.877-.143-1.99.417-2.487.56-.496 1.281-.187 1.611.69.33.878.143 1.991-.416 2.487-.56.496-1.282.188-1.612-.69z"/><path d="m148.423 134.38c-.346-.922-.152-2.09.434-2.61.586-.519 1.342-.193 1.688.729.347.922.153 2.09-.433 2.609-.586.52-1.342.193-1.689-.728z"/><path d="m152.252 128.783c-.364-.967-.16-2.192.455-2.737s1.408-.203 1.772.763c.363.966.159 2.191-.456 2.737-.615.545-1.408.203-1.771-.763z"/><path d="m128.992 174.2c-.305-.811-.133-1.839.383-2.297.516-.457 1.182-.171 1.487.639.305.811.133 1.839-.383 2.296-.516.458-1.182.172-1.487-.638z"/><path d="m132.84 168.583c-.313-.833-.136-1.889.394-2.36.531-.47 1.216-.177 1.529.656s.136 1.889-.394 2.36c-.531.47-1.215.176-1.529-.656z"/><path d="m136.693 162.98c-.322-.855-.14-1.94.405-2.424.545-.483 1.248-.182 1.57.673.321.855.14 1.94-.405 2.424-.546.483-1.249.182-1.57-.673z"/><path d="m140.545 157.357c-.33-.877-.143-1.991.416-2.487.56-.496 1.282-.187 1.612.69s.143 1.991-.417 2.487-1.281.187-1.611-.69z"/><path d="m144.386 151.76c-.342-.908-.148-2.062.432-2.576s1.327-.194 1.669.714c.342.909.148 2.062-.432 2.576s-1.327.195-1.669-.714z"/><path d="m148.224 146.155c-.355-.944-.156-2.14.444-2.673.601-.532 1.375-.198 1.73.746s.156 2.141-.444 2.673c-.601.532-1.375.198-1.73-.746z"/><path d="m152.055 140.568c-.372-.988-.163-2.242.466-2.8.63-.558 1.442-.209 1.813.78.372.988.163 2.242-.466 2.8-.63.558-1.441.209-1.813-.78z"/><path d="m136.469 174.785c-.338-.899-.147-2.041.427-2.55.575-.509 1.315-.193 1.653.707.338.899.147 2.041-.427 2.55-.575.509-1.315.193-1.653-.707z"/><path d="m140.322 169.167c-.347-.922-.153-2.09.433-2.61.586-.519 1.342-.193 1.689.729s.153 2.09-.433 2.609c-.586.52-1.342.194-1.689-.728z"/><path d="m144.164 163.57c-.359-.953-.155-2.164.454-2.704.609-.539 1.393-.205 1.752.748.358.953.155 2.164-.454 2.703-.609.54-1.394.206-1.752-.747z"/><path d="m148.012 157.957c-.367-.976-.159-2.214.465-2.767s1.427-.21 1.794.765c.366.975.158 2.214-.466 2.767-.623.552-1.426.21-1.793-.765z"/><path d="m151.848 152.348c-.38-1.011-.166-2.293.478-2.864s1.474-.214 1.854.797.167 2.293-.477 2.864-1.475.214-1.855-.797z"/><path d="m143.954 175.357c-.372-.988-.163-2.242.466-2.8.63-.558 1.441-.209 1.813.78s.163 2.242-.466 2.8c-.63.558-1.442.209-1.813-.78z"/><path d="m147.794 169.759c-.383-1.02-.167-2.314.482-2.89.65-.576 1.488-.216 1.871.804.384 1.02.168 2.313-.482 2.889s-1.487.216-1.871-.803z"/><path d="m151.643 164.148c-.392-1.042-.172-2.364.493-2.953.664-.589 1.52-.221 1.912.821s.171 2.364-.493 2.952c-.664.589-1.521.222-1.912-.82z"/><path d="m151.429 175.943c-.405-1.078-.177-2.445.511-3.055.687-.609 1.573-.229 1.979.848.405 1.078.176 2.445-.511 3.055-.688.609-1.574.229-1.979-.848z"/></g><path d="m24.9394 129.983c3.3128 11.623 11.6452 23.556 15.5708 28.254l-21.3454-10.123c-11.61726-9.496-30.0955-37.22-37.8825-49.8953 9.67826 13.7953 24.6172 32.9683 19.89159 11.4123-3.78048-17.2451-30.73429-47.6497-43.73869-60.6963l.8016-8.4555c13.5438 18.2816 40.10202 52.001 37.98451 40.6254-2.1175-11.3755-20.29381-46.5771-29.11721-62.7559 6.8645 9.0611 27.33945 53.0251 36.71884 73.8745 3.24838 18.1758 7.47666 31.1658 9.18476 35.3878-1.5953-2.291-4.80823-6.638-4.89731-5.698 3.57421 11.461 10.03381 20.58 16.13271 24.138 4.5095 2.631 2.5587-8.717.6963-16.068-.1635-.574-.3148-1.147-.4527-1.718.1479.539.3 1.115.4527 1.718z" fill="url(#b)"/><path d="m-24.4854-2.46132c7.1098 13.23562 31.90581 39.65312 39.9188 68.66482 10.0163 36.2645 20.9095 64.6105.7338 41.8015 5.3015 10.999 3.9856 7.407 15.8408 38.137l7.2382 9.498c1.0089 1.497 1.6844 2.21 1.6844 2.21l-1.6844-2.21c-2.0526-3.048-5.4847-9.345-7.4138-19.505-2.4303-12.8 2.3738-8.416 13.8802 20.268 5.4771 13.654 9.1315 18.443 8.5693 21.837l18.4622 17.131c1.463 1.704 2.5984 2.764 3.2552 3.02l-3.2552-3.02c-7.1375-8.312-22.0717-31.945-27.2659-52.319-7.8236-30.689-8.5971-42.629-5.5951-44.8809 2.4016-1.8013 4.0219-2.4139 4.5318-2.495-3.6818-1.898-14.9432-5.4134-17.8136-48.6697-2.8704-43.25634-6.5383-61.9155-7.0928-61.236l-1.8087 3.481c1.6182 5.41963 7.089 33.987 8.6614 68.0827.4256 13.0604-5.7309 9.1359-10.7285-53.81385-3.3195-41.81185-9.16011-53.10135-10.49105-59.63105z" fill="url(#d)" opacity=".6"/><path d="m5.22871 64.7852c-9.21551-18.9447-21.54001-41.4273-32.69061-43.3642l4.6809 22.3076c4.8086-4.9255 17.99353 5.5464 28.00971 21.0566z" fill="url(#f)"/><path d="m122.06 129.983c-3.313 11.623-11.645 23.556-15.571 28.254l21.345-10.123c11.618-9.496 30.096-37.22 37.883-49.8953-9.678 13.7953-24.617 32.9683-19.892 11.4123 3.781-17.2451 30.735-47.6497 43.739-60.6963l-.802-8.4555c-13.543 18.2816-40.102 52.001-37.984 40.6254 2.117-11.3755 20.294-46.5771 29.117-62.7559-6.864 9.0611-27.339 53.0251-36.719 73.8745-3.248 18.1758-7.476 31.1658-9.184 35.3878 1.595-2.291 4.808-6.638 4.897-5.698-3.574 11.461-10.034 20.58-16.133 24.138-4.509 2.631-2.559-8.717-.696-16.068.163-.574.315-1.147.453-1.718-.148.539-.3 1.115-.453 1.718z" fill="url(#g)"/><path d="m171.485-2.46132c-7.11 13.23562-31.906 39.65312-39.919 68.66482-10.016 36.2645-20.91 64.6105-.734 41.8015-5.301 10.999-3.986 7.407-15.841 38.137l-7.238 9.498c-1.009 1.497-1.684 2.21-1.684 2.21l1.684-2.21c2.053-3.048 5.485-9.345 7.414-19.505 2.43-12.8-2.374-8.416-13.88 20.268-5.4774 13.654-9.1318 18.443-8.5697 21.837l-18.4621 17.131c-1.463 1.704-2.5984 2.764-3.2552 3.02l3.2552-3.02c7.1375-8.312 22.0716-31.945 27.2658-52.319 7.824-30.689 8.597-42.629 5.595-44.8809-2.401-1.8013-4.022-2.4139-4.532-2.495 3.682-1.898 14.944-5.4134 17.814-48.6697 2.87-43.25634 6.538-61.9155 7.093-61.236l1.808 3.481c-1.618 5.41963-7.089 33.987-8.661 68.0827-.426 13.0604 5.731 9.1359 10.729-53.81385 3.319-41.81185 9.16-53.10135 10.491-59.63105z" fill="url(#h)"/><path d="m141.771 64.7852c9.215-18.9447 21.54-41.4273 32.69-43.3642l-4.681 22.3076c-4.808-4.9255-17.993 5.5464-28.009 21.0566z" fill="url(#i)"/><path d="m-23 175.52c59.2091-.035 79.7536-13.071 88.5066-27.36 6.9931-11.415 9.845-10.227 13.2897-8.793.8006.334 1.6333.68 2.5573.885 4.913 1.09 6.7636 7.586 7.0655 11.947.3819-.487.7323-.969 1.0692-1.433 2.2206-3.055 3.8542-5.303 10.0348-2.835 7.2199-1.444 11.5169-6.832 15.7359-12.123 3.108-3.897 6.174-7.741 10.335-9.919 14.794-7.743 21.953 1.085 24.975 4.81.665.82 1.13 1.393 1.431 1.488v116.495h-175z" fill="url(#j)"/></g></svg>