<svg fill="none" height="24" viewBox="0 0 24 24" width="24" xmlns="http://www.w3.org/2000/svg" xmlns:xlink="http://www.w3.org/1999/xlink"><clipPath id="a"><path d="m0 0h24v24h-24z"/></clipPath><g clip-path="url(#a)"><g clip-rule="evenodd" fill-rule="evenodd"><path d="m17.6954 3.12414v-.87414l-2.6432 1.98234 2.6432 1.98233v-.87413-.44769h1.3061c.3678 0 .6764.28063.6764.63691l-.0001 2.0062h1.3216v-1.99801c0-1.06885-.8945-1.96666-1.9979-1.96666h-1.3061z" fill="#000d1d"/><path d="m6.28079 18.7203h-1.36027c-.34347 0-.62191-.2959-.62191-.6608v-1.9824h-1.32156v1.9824c0 1.0948.91305 1.9823 1.94347 1.9823h1.36027v.4959.9123l2.64311-2.0689-2.64311-2.0689v.9123z" fill="#01bc8d"/><path d="m9.50755 18.3725c1.06855.8028 2.38995 1.29 3.82825 1.3198 3.6486.0756 6.6676-2.8209 6.7432-6.4695.0363-1.7522-.6128-3.35923-1.7016-4.56477l-.8003 1.1417c.744.92817 1.1788 2.11277 1.1522 3.39517-.0601 2.9031-2.4624 5.2079-5.3655 5.1477-.9939-.0206-1.9176-.3157-2.7004-.8113z" fill="#01bc8d"/></g><circle cx="10.0915" cy="10.0433" r="5.93278" stroke="#000d1d" stroke-width="1.35"/><circle cx="10.0916" cy="10.0433" fill="#01bc8d" opacity=".2" r="3.67802"/><path d="m9.21528 10.043h1.23934v1.23934h-1.23934z" stroke="#000d1d" stroke-width="1.21268" transform="matrix(.70710678 -.70710678 .70710678 .70710678 -4.40238 9.457714)"/></g></svg>