<svg width="254" height="152" viewBox="0 0 254 152" fill="none" xmlns="http://www.w3.org/2000/svg">
  <path
    d="M38.6703 98.4297H55.5903C56.1403 98.4297 56.6703 98.6497 57.0603 99.0397L59.8603 101.84C60.2503 102.23 60.4703 102.76 60.4703 103.31V116.35C60.4703 116.9 60.2503 117.43 59.8603 117.82L58.9603 118.72C58.8903 118.79 58.8103 118.86 58.7303 118.92C58.3703 119.18 57.0703 120.05 57.0703 120.05L32.6803 117.99C32.2903 117.6 32.0703 117.07 32.0703 116.52V110.07C32.0703 109.52 32.2903 108.99 32.6803 108.6L33.6003 107.68C33.9903 107.29 34.2103 106.76 34.2103 106.21V102.9C34.2103 102.35 34.4303 101.82 34.8203 101.43L35.9803 99.8297C35.9803 99.8297 37.4503 98.8297 37.5803 98.7497C37.9103 98.5397 38.2903 98.4297 38.6903 98.4297H38.6703Z"
    fill="#223236" />
  <path
    d="M37.0905 99.5H54.0105C54.5605 99.5 55.0905 99.72 55.4805 100.11L58.2805 102.91C58.6705 103.3 58.8905 103.83 58.8905 104.38V117.42C58.8905 117.97 58.6705 118.5 58.2805 118.89L57.3805 119.79C56.9905 120.18 56.4605 120.4 55.9105 120.4H50.5605C50.0105 120.4 49.4805 120.62 49.0905 121.01L48.6405 121.46C48.2505 121.85 47.7205 122.07 47.1705 122.07H34.9505C34.4005 122.07 33.8705 121.85 33.4805 121.46L31.0905 119.07C30.7005 118.68 30.4805 118.15 30.4805 117.6V111.15C30.4805 110.6 30.7005 110.07 31.0905 109.68L32.0105 108.76C32.4005 108.37 32.6205 107.84 32.6205 107.29V103.98C32.6205 103.43 32.8405 102.9 33.2305 102.51L35.6205 100.12C36.0105 99.73 36.5405 99.51 37.0905 99.51V99.5Z"
    fill="white" />
  <path opacity="0.8"
    d="M30.4707 112.09V117.6C30.4707 118.15 30.6907 118.68 31.0807 119.07L33.4707 121.46C33.8607 121.85 34.3907 122.07 34.9407 122.07H47.1607C47.7107 122.07 48.2407 121.85 48.6307 121.46L49.0807 121.01C49.4707 120.62 50.0007 120.4 50.5507 120.4H55.9007C56.4507 120.4 56.9807 120.18 57.3707 119.79L58.2707 118.89C58.6607 118.5 58.8807 117.97 58.8807 117.42V112.09H30.4807H30.4707Z"
    fill="url(#paint0_linear_4124_6965)" />
  <path
    d="M59.8507 101.84L57.0507 99.0397C56.6607 98.6497 56.1307 98.4297 55.5807 98.4297H38.6607C38.2707 98.4297 37.8807 98.5397 37.5507 98.7497C37.4207 98.8297 35.9507 99.8297 35.9507 99.8297C35.8307 99.9197 35.7107 100.01 35.6107 100.11L33.2207 102.5C32.8307 102.89 32.6107 103.42 32.6107 103.97V107.28C32.6107 107.83 32.3907 108.36 32.0007 108.75L31.0807 109.67C30.6907 110.06 30.4707 110.59 30.4707 111.14V117.59C30.4707 118.14 30.6907 118.67 31.0807 119.06L33.4707 121.45C33.8607 121.84 34.3907 122.06 34.9407 122.06H47.1607C47.7107 122.06 48.2407 121.84 48.6307 121.45L49.0807 121C49.5607 120.51 50.0807 120.39 50.5507 120.39H55.9007C56.3207 120.39 56.7207 120.26 57.0607 120.04C57.0607 120.04 58.3707 119.18 58.7207 118.91C58.8007 118.85 58.8807 118.78 58.9507 118.71L59.8507 117.81C60.2407 117.42 60.4607 116.89 60.4607 116.34V103.3C60.4607 102.75 60.2407 102.22 59.8507 101.83V101.84Z"
    stroke="black" stroke-width="0.3" stroke-linecap="round" stroke-linejoin="round" />
  <path
    d="M40.3206 109.53C39.6706 109.53 39.1406 110.06 39.1406 110.71C39.1406 111.36 39.6706 111.89 40.3206 111.89C40.9706 111.89 41.5006 111.36 41.5006 110.71C41.5006 110.06 40.9706 109.53 40.3206 109.53Z"
    fill="#24D17F" />
  <path
    d="M40.3206 114.19C39.6706 114.19 39.1406 114.72 39.1406 115.37C39.1406 116.02 39.6706 116.55 40.3206 116.55C40.9706 116.55 41.5006 116.02 41.5006 115.37C41.5006 114.72 40.9706 114.19 40.3206 114.19Z"
    fill="#24D17F" />
  <path
    d="M50.4007 107.23C51.0507 107.23 51.5807 106.7 51.5807 106.05C51.5807 105.4 51.0507 104.87 50.4007 104.87C49.7507 104.87 49.2207 105.4 49.2207 106.05C49.2207 106.7 49.7507 107.23 50.4007 107.23Z"
    fill="#24D17F" />
  <path
    d="M40.3206 104.88C39.6706 104.88 39.1406 105.41 39.1406 106.06C39.1406 106.71 39.6706 107.24 40.3206 107.24C40.9706 107.24 41.5006 106.71 41.5006 106.06C41.5006 105.41 40.9706 104.88 40.3206 104.88Z"
    fill="#24D17F" />
  <path
    d="M45.3597 109.53C44.7097 109.53 44.1797 110.06 44.1797 110.71C44.1797 111.36 44.7097 111.89 45.3597 111.89C46.0097 111.89 46.5397 111.36 46.5397 110.71C46.5397 110.06 46.0097 109.53 45.3597 109.53Z"
    fill="#24D17F" />
  <path
    d="M50.4007 109.53C49.7507 109.53 49.2207 110.06 49.2207 110.71C49.2207 111.36 49.7507 111.89 50.4007 111.89C51.0507 111.89 51.5807 111.36 51.5807 110.71C51.5807 110.06 51.0507 109.53 50.4007 109.53Z"
    fill="#24D17F" />
  <path
    d="M45.3597 114.19C44.7097 114.19 44.1797 114.72 44.1797 115.37C44.1797 116.02 44.7097 116.55 45.3597 116.55C46.0097 116.55 46.5397 116.02 46.5397 115.37C46.5397 114.72 46.0097 114.19 45.3597 114.19Z"
    fill="#24D17F" />
  <path
    d="M50.4007 114.19C49.7507 114.19 49.2207 114.72 49.2207 115.37C49.2207 116.02 49.7507 116.55 50.4007 116.55C51.0507 116.55 51.5807 116.02 51.5807 115.37C51.5807 114.72 51.0507 114.19 50.4007 114.19Z"
    fill="#24D17F" />
  <path
    d="M45.3597 104.88C44.7097 104.88 44.1797 105.41 44.1797 106.06C44.1797 106.71 44.7097 107.24 45.3597 107.24C46.0097 107.24 46.5397 106.71 46.5397 106.06C46.5397 105.41 46.0097 104.88 45.3597 104.88Z"
    fill="#24D17F" />
  <path
    d="M203.96 39.4797L203.34 38.8597C202.93 38.4497 202.37 38.2197 201.78 38.2197H185.11C184.67 38.2197 184.25 38.3497 183.89 38.5897C183.77 38.6697 182.13 39.7397 182.13 39.7397L180.12 42.2997C179.71 42.7097 179.48 43.2697 179.48 43.8597V65.4597C179.48 66.0397 179.71 66.5997 180.12 67.0197L181.55 68.4497C181.96 68.8597 182.52 69.0897 183.11 69.0897H190.81C191.39 69.0897 191.95 69.3197 192.37 69.7297L194.01 71.3697C194.42 71.7797 194.98 72.0097 195.57 72.0097L216.71 72.9597C216.71 72.9597 218.42 71.8797 218.78 71.6397C218.9 71.5597 219.01 71.4697 219.12 71.3697L222.91 67.5797C223.32 67.1697 223.55 66.6097 223.55 66.0197V47.0397C223.55 46.4597 223.32 45.8997 222.91 45.4797L218.19 40.7597C217.78 40.3497 217.22 40.1197 216.63 40.1197H205.55C204.97 40.1197 204.41 39.8897 203.99 39.4797H203.96Z"
    fill="#223236" />
  <path
    d="M148.5 140.99H92.6202C90.7502 140.99 90.8602 139.74 92.8702 138.2L95.5602 136.17C97.5702 134.63 100.71 133.38 102.58 133.38H158.46C160.33 133.38 160.22 134.63 158.21 136.17L155.52 138.2C153.51 139.74 150.37 140.99 148.5 140.99Z"
    fill="#EAEAEB" />
  <path d="M41 55.5105C47.23 40.1905 89.67 42.9605 135.79 61.7205C181.91 80.4705 214.25 108.1 208.02 123.42"
    stroke="#839195" stroke-width="0.3" stroke-linecap="round" stroke-linejoin="round" />
  <path
    d="M179.3 86.5697C180.432 86.5697 181.35 85.6519 181.35 84.5197C181.35 83.3875 180.432 82.4697 179.3 82.4697C178.168 82.4697 177.25 83.3875 177.25 84.5197C177.25 85.6519 178.168 86.5697 179.3 86.5697Z"
    fill="#223236" stroke="black" stroke-width="0.3" stroke-linecap="round" stroke-linejoin="round" />
  <path
    d="M202.36 40.8696L201.31 39.8196C201.03 39.5396 200.66 39.3896 200.27 39.3896H182.99C182.6 39.3896 182.23 39.5396 181.95 39.8196L178.08 43.6896C177.8 43.9696 177.65 44.3396 177.65 44.7296V66.9397C177.65 67.3297 177.8 67.6997 178.08 67.9797L179.94 69.8396C180.22 70.1196 180.59 70.2696 180.98 70.2696H189.28C189.67 70.2696 190.04 70.4196 190.32 70.6996L192.39 72.7696C192.67 73.0496 193.04 73.1996 193.43 73.1996H216.03C216.42 73.1996 216.79 73.0496 217.07 72.7696L221.29 68.5497C221.57 68.2697 221.72 67.8997 221.72 67.5097V47.9196C221.72 47.5296 221.57 47.1597 221.29 46.8797L216.14 41.7296C215.86 41.4496 215.49 41.2996 215.1 41.2996H203.41C203.02 41.2996 202.65 41.1496 202.37 40.8696H202.36Z"
    fill="white" />
  <path opacity="0.8"
    d="M178.092 67.9802L179.952 69.8402C180.232 70.1202 180.602 70.2702 180.992 70.2702H189.292C189.682 70.2702 190.052 70.4202 190.332 70.7002L192.402 72.7702C192.682 73.0502 193.052 73.2002 193.442 73.2002H216.042C216.432 73.2002 216.802 73.0502 217.082 72.7702L221.302 68.5502C221.582 68.2702 221.732 67.9002 221.732 67.5102V56.9902H177.682V66.9402C177.682 67.3302 177.832 67.7002 178.112 67.9802H178.092Z"
    fill="url(#paint1_linear_4124_6965)" />
  <g opacity="0.41">
    <mask id="mask0_4124_6965" style="mask-type:luminance" maskUnits="userSpaceOnUse" x="177" y="39" width="45"
      height="35">
      <path
        d="M202.36 40.8696L201.31 39.8196C201.03 39.5396 200.66 39.3896 200.27 39.3896H182.99C182.6 39.3896 182.23 39.5396 181.95 39.8196L178.08 43.6896C177.8 43.9696 177.65 44.3396 177.65 44.7296V66.9397C177.65 67.3297 177.8 67.6997 178.08 67.9797L179.94 69.8396C180.22 70.1196 180.59 70.2696 180.98 70.2696H189.28C189.67 70.2696 190.04 70.4196 190.32 70.6996L192.39 72.7696C192.67 73.0496 193.04 73.1996 193.43 73.1996H216.03C216.42 73.1996 216.79 73.0496 217.07 72.7696L221.29 68.5497C221.57 68.2697 221.72 67.8997 221.72 67.5097V47.9196C221.72 47.5296 221.57 47.1597 221.29 46.8797L216.14 41.7296C215.86 41.4496 215.49 41.2996 215.1 41.2996H203.41C203.02 41.2996 202.65 41.1496 202.37 40.8696H202.36Z"
        fill="white" />
    </mask>
    <g mask="url(#mask0_4124_6965)">
      <path d="M168.391 59.2197H235.541" stroke="white" stroke-width="0.3" stroke-linecap="round"
        stroke-linejoin="round" />
      <path d="M168.391 62.3594H235.541" stroke="white" stroke-width="0.3" stroke-linecap="round"
        stroke-linejoin="round" />
      <path d="M168.391 65.5H235.541" stroke="white" stroke-width="0.3" stroke-linecap="round"
        stroke-linejoin="round" />
      <path d="M168.391 68.6396H235.541" stroke="white" stroke-width="0.3" stroke-linecap="round"
        stroke-linejoin="round" />
      <path d="M168.391 71.7793H235.541" stroke="white" stroke-width="0.3" stroke-linecap="round"
        stroke-linejoin="round" />
    </g>
  </g>
  <path
    d="M155.121 133.38L160.561 129.42C162.441 128.14 163.311 125.63 163.311 123.35V76.3701C163.311 71.8101 159.611 68.1201 155.061 68.1201H100.701C99.2409 68.1201 97.8709 68.5001 96.6809 69.1601C96.0109 69.5301 91.1309 72.8401 91.1309 72.8401L155.121 133.38Z"
    fill="#24D17F" stroke="black" stroke-width="0.3" stroke-linecap="round" stroke-linejoin="round" />
  <path
    d="M163.31 123.341V76.3605C163.31 74.9906 162.97 73.7005 162.38 72.5605L154.16 78.2606L153.07 129.011L153.32 131.671L155.12 133.371L160.56 129.411C162.44 128.131 163.31 125.621 163.31 123.341Z"
    fill="#223236" />
  <path d="M136.59 130.33H111.68H108.56L104.75 134.15H140.41L136.59 130.33Z" fill="#223236" stroke="black"
    stroke-width="0.3" stroke-linecap="round" stroke-linejoin="round" />
  <path
    d="M139.551 134.84C138.971 134.84 138.421 134.61 138.001 134.2L135.391 131.59C135.031 131.23 134.541 131.03 134.031 131.03H112.531C112.021 131.03 111.531 131.24 111.171 131.59L108.561 134.2C108.151 134.61 107.601 134.84 107.011 134.84H96.0113C91.3813 134.84 87.6113 131.07 87.6113 126.43V79.3797C87.6113 74.7497 91.3813 70.9697 96.0113 70.9697H150.571C155.201 70.9697 158.971 74.7397 158.971 79.3797V126.36C158.971 130.99 155.201 134.77 150.571 134.77L139.541 134.84H139.551Z"
    fill="white" />
  <path
    d="M150.581 71.1301C155.141 71.1301 158.831 74.8301 158.831 79.3801V126.36C158.831 130.92 155.131 134.61 150.581 134.61L139.551 134.68C139.011 134.68 138.491 134.47 138.111 134.08L135.501 131.47C135.111 131.08 134.581 130.86 134.031 130.86H112.531C111.981 130.86 111.451 131.08 111.061 131.47L108.451 134.08C108.071 134.46 107.551 134.68 107.011 134.68H96.0107C91.4507 134.68 87.7607 130.98 87.7607 126.43V79.3801C87.7607 74.8201 91.4607 71.1301 96.0107 71.1301H150.571M150.581 70.8301H96.0207C91.3007 70.8301 87.4707 74.6701 87.4707 79.3801V126.43C87.4707 131.15 91.3107 134.98 96.0207 134.98H107.021C107.641 134.98 108.231 134.74 108.671 134.3L111.281 131.69C111.621 131.35 112.061 131.17 112.541 131.17H134.041C134.511 131.17 134.961 131.35 135.301 131.69L137.911 134.3C138.351 134.74 138.941 134.98 139.561 134.98L150.591 134.91C155.301 134.91 159.141 131.07 159.141 126.36V79.3801C159.141 74.6601 155.301 70.8301 150.591 70.8301H150.581Z"
    fill="black" />
  <g style="mix-blend-mode:multiply" opacity="0.4">
    <path
      d="M158.83 126.44V111.25L87.8203 127.41C88.3003 131.51 91.7803 134.69 96.0103 134.69H107.01C107.55 134.69 108.07 134.48 108.45 134.09L111.06 131.48C111.45 131.09 111.98 130.87 112.53 130.87H134.03C134.58 130.87 135.11 131.09 135.5 131.48L138.11 134.09C138.49 134.47 139.01 134.69 139.55 134.69H150.58C155.14 134.69 158.83 130.99 158.83 126.44Z"
      fill="#D4E1E4" />
  </g>
  <path
    d="M119.232 101.9C124.97 101.9 129.622 97.2484 129.622 91.5101C129.622 85.7719 124.97 81.1201 119.232 81.1201C113.494 81.1201 108.842 85.7719 108.842 91.5101C108.842 97.2484 113.494 101.9 119.232 101.9Z"
    fill="#223236" stroke="black" stroke-width="0.3" stroke-linecap="round" stroke-linejoin="round" />
  <path
    d="M146.911 97.7702C146.911 92.7602 142.361 88.8102 137.161 89.8402C134.061 90.4502 131.551 92.9302 130.901 96.0202C130.071 99.9802 132.131 103.58 135.371 105.1C135.601 105.21 135.751 105.42 135.751 105.68C135.751 107.56 135.751 115.32 135.751 116.86C135.751 117.03 135.821 117.2 135.941 117.32L137.881 119.26C138.001 119.38 138.171 119.45 138.341 119.45H139.791C139.961 119.45 140.131 119.38 140.251 119.26L142.331 117.18C142.451 117.06 142.521 116.89 142.521 116.72V115.17C142.521 115 142.451 114.83 142.331 114.71L141.481 113.86C141.361 113.74 141.291 113.57 141.291 113.4V111.06C141.291 110.89 141.361 110.72 141.481 110.6L142.841 109.24C142.961 109.12 143.031 108.95 143.031 108.78V107.29C143.031 107.13 142.971 106.97 142.851 106.86L142.061 106.07V105.2C144.911 103.95 146.901 101.1 146.901 97.7902L146.911 97.7702ZM138.141 94.4002C140.561 93.9402 142.631 96.0202 142.181 98.4402C141.931 99.7802 140.831 100.88 139.491 101.13C137.071 101.59 135.001 99.5102 135.451 97.0902C135.701 95.7502 136.801 94.6502 138.141 94.4002Z"
    fill="#24D17F" stroke="black" stroke-width="0.3" stroke-linecap="round" stroke-linejoin="round" />
  <path
    d="M133.541 119.34L132.621 118.42V110.25C132.621 109.4 132.251 108.59 131.611 108.02C128.311 105.1 123.981 103.32 119.231 103.32C111.151 103.32 104.281 108.44 101.651 115.6C100.901 117.65 101.961 119.89 104.011 120.63C108.771 122.32 113.891 123.25 119.221 123.25C124.551 123.25 129.391 122.37 134.031 120.77C134.161 120.72 134.441 120.26 134.121 119.93C133.971 119.78 133.521 119.33 133.521 119.33L133.541 119.34Z"
    fill="#223236" stroke="black" stroke-width="0.3" stroke-linecap="round" stroke-linejoin="round" />
  <path
    d="M138.811 89.6699V91.1399C138.811 91.4399 138.571 91.6699 138.271 91.6999C135.161 91.9699 132.711 94.5899 132.711 97.7699"
    stroke="black" stroke-width="0.3" stroke-linecap="round" stroke-linejoin="round" />
  <path
    d="M138.811 116.851V104.401C138.811 104.101 139.051 103.871 139.351 103.841C142.461 103.571 144.911 100.951 144.911 97.7705"
    stroke="black" stroke-width="0.3" stroke-linecap="round" stroke-linejoin="round" />
  <path fill-rule="evenodd" clip-rule="evenodd"
    d="M113.68 94.8902C113.3 94.8902 112.99 94.5801 112.99 94.2001V90.3502C112.99 89.9702 113.3 89.6602 113.68 89.6602C114.06 89.6602 114.37 89.9702 114.37 90.3502V94.2001C114.37 94.5801 114.06 94.8902 113.68 94.8902ZM116.48 91.0901C116.1 91.0901 115.79 91.4002 115.79 91.7802V92.7802C115.79 93.1602 116.1 93.4702 116.48 93.4702C116.86 93.4702 117.17 93.1602 117.17 92.7802V91.7802C117.17 91.4002 116.86 91.0901 116.48 91.0901ZM119.29 89.6702C118.91 89.6702 118.6 89.9802 118.6 90.3602V94.2102C118.6 94.5902 118.91 94.9002 119.29 94.9002C119.67 94.9002 119.98 94.5902 119.98 94.2102V90.3602C119.98 89.9802 119.67 89.6702 119.29 89.6702ZM124.89 90.2302C124.51 90.2302 124.2 90.5402 124.2 90.9202V93.6402C124.2 94.0202 124.51 94.3302 124.89 94.3302C125.27 94.3302 125.58 94.0202 125.58 93.6402V90.9202C125.58 90.5402 125.27 90.2302 124.89 90.2302ZM122.09 90.6602C121.71 90.6602 121.4 90.9702 121.4 91.3502V93.2102C121.4 93.5902 121.71 93.9002 122.09 93.9002C122.47 93.9002 122.78 93.5902 122.78 93.2102V91.3502C122.78 90.9702 122.47 90.6602 122.09 90.6602Z"
    fill="white" />
  <path
    d="M144.91 97.7697C145.142 97.7697 145.33 97.5816 145.33 97.3497C145.33 97.1177 145.142 96.9297 144.91 96.9297C144.678 96.9297 144.49 97.1177 144.49 97.3497C144.49 97.5816 144.678 97.7697 144.91 97.7697Z"
    stroke="black" stroke-width="0.3" stroke-linecap="round" stroke-linejoin="round" />
  <path
    d="M132.721 98.6105C132.953 98.6105 133.141 98.4225 133.141 98.1905C133.141 97.9586 132.953 97.7705 132.721 97.7705C132.489 97.7705 132.301 97.9586 132.301 98.1905C132.301 98.4225 132.489 98.6105 132.721 98.6105Z"
    stroke="black" stroke-width="0.3" stroke-linecap="round" stroke-linejoin="round" />
  <path
    d="M147.832 70.3297C151.29 70.3297 154.092 69.7924 154.092 69.1297C154.092 68.4669 151.29 67.9297 147.832 67.9297C144.375 67.9297 141.572 68.4669 141.572 69.1297C141.572 69.7924 144.375 70.3297 147.832 70.3297Z"
    fill="black" stroke="black" stroke-width="0.3" stroke-linecap="round" stroke-linejoin="round" />
  <path
    d="M103.881 70.3102C107.3 70.3102 110.071 69.7819 110.071 69.1302C110.071 68.4785 107.3 67.9502 103.881 67.9502C100.463 67.9502 97.6914 68.4785 97.6914 69.1302C97.6914 69.7819 100.463 70.3102 103.881 70.3102Z"
    fill="black" stroke="black" stroke-width="0.3" stroke-linecap="round" stroke-linejoin="round" />
  <path
    d="M125.851 21.0498C110.531 21.0498 98.1211 33.4698 98.1211 48.7798V69.1198C98.1211 69.7698 100.701 70.1998 103.871 70.1998C107.041 70.1998 109.621 69.7598 109.621 69.1198V48.7798C109.621 39.8298 116.901 32.5598 125.841 32.5598C134.781 32.5598 142.061 39.8398 142.061 48.7798V69.1198C142.061 69.7698 144.641 70.1998 147.811 70.1998C150.981 70.1998 153.561 69.7598 153.561 69.1198V48.7798C153.561 33.4598 141.141 21.0498 125.831 21.0498H125.851Z"
    fill="white" />
  <g style="mix-blend-mode:multiply">
    <path
      d="M106.012 51.6198V70.2098C108.122 70.0398 109.622 69.6198 109.622 69.1298V48.7898C109.622 44.4398 111.352 40.4998 114.142 37.5898C109.292 40.3998 106.012 45.6298 106.012 51.6298V51.6198Z"
      fill="#D4E1E4" />
    <path
      d="M125.852 21.05C125.392 21.05 124.922 21.06 124.472 21.08C124.262 21.09 124.052 21.11 123.842 21.13C123.602 21.15 123.362 21.16 123.122 21.18C122.832 21.21 122.552 21.25 122.262 21.28C122.112 21.3 121.952 21.32 121.802 21.34C121.452 21.39 121.112 21.45 120.772 21.52C120.692 21.54 120.602 21.55 120.522 21.56C120.122 21.64 119.722 21.73 119.332 21.82C119.312 21.82 119.302 21.82 119.282 21.83C114.652 22.97 110.482 25.27 107.092 28.4C111.452 25.54 116.652 23.38 122.252 23.38C137.572 23.38 149.652 33.99 149.652 50.04V70.15C151.942 70.02 153.592 69.63 153.592 69.12V48.78C153.592 45.43 153.002 42.22 151.912 39.24C148.022 28.62 137.832 21.04 125.862 21.04L125.852 21.05Z"
      fill="#D4E1E4" />
    <path
      d="M150.841 36.7598C150.651 36.3598 150.441 35.9598 150.231 35.5598C149.681 34.5398 149.061 33.5698 148.391 32.6398C148.171 32.3298 147.941 32.0298 147.711 31.7298C147.011 30.8298 146.261 29.9798 145.461 29.1698C145.451 29.1598 145.431 29.1398 145.421 29.1298C144.851 28.5598 144.251 28.0198 143.631 27.4998C143.511 27.3998 143.391 27.2998 143.271 27.2098C142.751 26.7898 142.221 26.3898 141.671 26.0098C141.041 25.5698 140.401 25.1698 139.741 24.7798C138.811 24.2398 137.851 23.7498 136.861 23.3298C133.481 21.8698 129.761 21.0498 125.851 21.0498C125.841 21.0498 125.821 21.0498 125.811 21.0498C125.691 21.0498 125.561 21.0498 125.441 21.0498C140.571 21.2698 152.311 33.9198 152.311 49.0998V69.8098C153.111 69.6298 153.581 69.3898 153.581 69.1098V48.7698C153.581 44.4598 152.601 40.3798 150.851 36.7498L150.841 36.7598Z"
      fill="#223236" />
  </g>
  <path
    d="M142.072 53.2002C142.072 53.2002 142.312 54.3602 144.502 55.1602C145.122 55.3802 145.482 55.8702 145.482 56.3802V69.9402"
    stroke="#839195" stroke-width="0.3" stroke-linecap="round" stroke-linejoin="round" />
  <path
    d="M123.451 21.3203C123.231 21.9403 123.231 22.9303 123.221 23.6703C123.221 24.3103 122.701 24.8103 122.061 24.8503C111.551 25.5303 102.421 35.8003 101.801 46.6903"
    stroke="#839195" stroke-width="0.3" stroke-linecap="round" stroke-linejoin="round" />
  <path
    d="M101.801 48.9399C101.994 48.9399 102.151 48.7026 102.151 48.4099C102.151 48.1172 101.994 47.8799 101.801 47.8799C101.608 47.8799 101.451 48.1172 101.451 48.4099C101.451 48.7026 101.608 48.9399 101.801 48.9399Z"
    fill="#839195" stroke="#839195" stroke-width="0.3" stroke-linecap="round" stroke-linejoin="round" />
  <path
    d="M125.851 21.0498C110.531 21.0498 98.1211 33.4698 98.1211 48.7798V69.1198C98.1211 69.7698 100.701 70.1998 103.871 70.1998C107.041 70.1998 109.621 69.7598 109.621 69.1198V48.7798C109.621 39.8298 116.901 32.5598 125.841 32.5598C134.781 32.5598 142.061 39.8398 142.061 48.7798V69.1198C142.061 69.7698 144.641 70.1998 147.811 70.1998C150.981 70.1998 153.561 69.7598 153.561 69.1198V48.7798C153.561 33.4598 141.141 21.0498 125.831 21.0498H125.851Z"
    stroke="black" stroke-width="0.3" stroke-linecap="round" stroke-linejoin="round" />
  <path
    d="M162.521 89.3701C162.521 89.7101 162.351 90.0901 162.151 90.2001C161.951 90.3101 161.781 90.1301 161.781 89.7801C161.781 89.4301 161.951 89.0601 162.151 88.9501C162.351 88.8401 162.521 89.0201 162.521 89.3701ZM162.141 91.7701C161.931 91.8801 161.771 92.2601 161.771 92.6001C161.771 92.9401 161.941 93.1301 162.141 93.0201C162.341 92.9101 162.511 92.5301 162.511 92.1901C162.511 91.8501 162.341 91.6601 162.141 91.7701ZM162.141 94.5901C161.931 94.7001 161.771 95.0801 161.771 95.4201C161.771 95.7601 161.941 95.9501 162.141 95.8401C162.341 95.7301 162.511 95.3501 162.511 95.0101C162.511 94.6701 162.341 94.4801 162.141 94.5901Z"
    fill="white" />
  <path
    d="M204.981 62.7995C202.391 62.7995 200.291 60.6895 200.291 58.1095C200.291 57.7395 199.991 57.4395 199.621 57.4395C199.251 57.4395 198.951 57.7395 198.951 58.1095C198.951 61.4395 201.661 64.1495 204.991 64.1495C205.361 64.1495 205.661 63.8495 205.661 63.4795C205.661 63.1095 205.361 62.8095 204.991 62.8095L204.981 62.7995Z"
    fill="#24D17F" />
  <path
    d="M194.991 58.2302C195.021 55.6702 197.111 53.5902 199.681 53.5902C202.251 53.5902 204.371 55.7002 204.371 58.2802C204.371 58.6502 204.671 58.9502 205.041 58.9502C205.411 58.9502 205.711 58.6502 205.711 58.2802C205.711 54.9502 203.001 52.2402 199.671 52.2402C196.341 52.2402 193.781 54.8202 193.651 58.0302C193.651 58.0502 193.641 58.0702 193.641 58.0902C193.641 58.1202 193.641 58.1502 193.641 58.1902C193.641 58.2202 193.641 58.2502 193.641 58.2802C193.641 58.3002 193.641 58.3202 193.651 58.3302C193.711 61.1002 194.751 63.7402 196.631 65.7902C196.761 65.9302 196.941 66.0102 197.121 66.0102C197.281 66.0102 197.441 65.9502 197.571 65.8302C197.841 65.5802 197.861 65.1602 197.611 64.8802C195.941 63.0502 195.011 60.6902 194.981 58.2202L194.991 58.2302Z"
    fill="#24D17F" />
  <path
    d="M199.681 49.5703C194.961 49.5703 191.101 53.3503 190.971 58.0403C190.971 58.0603 190.961 58.0803 190.961 58.1003C190.961 58.1303 190.961 58.1703 190.961 58.2003C190.961 58.2303 190.961 58.2503 190.961 58.2803C190.961 58.3003 190.961 58.3103 190.961 58.3303C190.981 59.7803 191.221 61.2103 191.681 62.5703C191.771 62.8503 192.041 63.0303 192.321 63.0303C192.391 63.0303 192.461 63.0203 192.531 63.0003C192.881 62.8803 193.071 62.5003 192.951 62.1503C192.531 60.8803 192.311 59.5503 192.301 58.2103C192.341 54.1803 195.631 50.9103 199.671 50.9103C203.711 50.9103 207.051 54.2203 207.051 58.2903C207.051 59.4003 206.151 60.3003 205.041 60.3003C203.931 60.3003 203.031 59.4003 203.031 58.2903C203.031 56.4403 201.531 54.9403 199.681 54.9403C197.831 54.9403 196.331 56.4403 196.331 58.2903C196.331 61.7503 198.381 64.8903 201.551 66.2803C201.641 66.3203 201.731 66.3403 201.821 66.3403C202.081 66.3403 202.321 66.1903 202.431 65.9403C202.581 65.6003 202.431 65.2103 202.091 65.0603C199.411 63.8803 197.671 61.2303 197.671 58.3003C197.671 57.1903 198.571 56.2903 199.681 56.2903C200.791 56.2903 201.691 57.1903 201.691 58.3003C201.691 60.1503 203.191 61.6503 205.041 61.6503C206.891 61.6503 208.391 60.1503 208.391 58.3003C208.391 53.4903 204.481 49.5803 199.671 49.5803L199.681 49.5703Z"
    fill="#24D17F" />
  <path
    d="M193.66 50.2299C195.41 48.9199 197.49 48.2299 199.68 48.2299C201.87 48.2299 203.95 48.9199 205.7 50.2299C205.82 50.3199 205.96 50.3599 206.1 50.3599C206.3 50.3599 206.51 50.2699 206.64 50.0899C206.86 49.7899 206.8 49.3699 206.5 49.1499C204.52 47.6699 202.16 46.8799 199.68 46.8799C197.2 46.8799 194.84 47.6599 192.86 49.1499C192.56 49.3699 192.5 49.7899 192.72 50.0899C192.94 50.3899 193.36 50.4499 193.66 50.2199V50.2299Z"
    fill="#24D17F" />
  <path d="M208.021 123.42C201.791 138.74 159.351 135.97 113.231 117.21C67.1107 98.4598 34.7707 70.8298 41.0007 55.5098"
    stroke="#839195" stroke-width="0.3" stroke-linecap="round" stroke-linejoin="round" />
  <path
    d="M66.3009 96.18C68.5598 96.18 70.3909 94.3488 70.3909 92.09C70.3909 89.8312 68.5598 88 66.3009 88C64.0421 88 62.2109 89.8312 62.2109 92.09C62.2109 94.3488 64.0421 96.18 66.3009 96.18Z"
    fill="#24D17F" stroke="black" stroke-width="0.3" stroke-linecap="round" stroke-linejoin="round" />
  <path d="M50.4003 106.05L40.3203 115.37H50.4003" stroke="#24D17F" stroke-width="0.3" stroke-linecap="round"
    stroke-linejoin="round" />
  <path
    d="M222.88 45.4905L218.16 40.7705C217.75 40.3605 217.19 40.1305 216.6 40.1305H205.52C204.94 40.1305 204.38 39.9005 203.96 39.4905L203.34 38.8705C202.93 38.4605 202.37 38.2305 201.78 38.2305H185.11C184.67 38.2305 184.25 38.3605 183.89 38.6005C183.77 38.6805 182.26 39.6705 182.15 39.7405C182 39.8305 181.86 39.9305 181.74 40.0605L178.3 43.5005C177.89 43.9105 177.66 44.4705 177.66 45.0605V66.6605C177.66 67.2405 177.89 67.8005 178.3 68.2205L179.73 69.6505C180.14 70.0605 180.7 70.2905 181.29 70.2905H188.99C189.57 70.2905 190.13 70.5205 190.55 70.9405L192.19 72.5805C192.6 72.9905 193.16 73.2205 193.75 73.2205H215.74C216.08 73.2205 216.41 73.1305 216.71 72.9905H216.72C216.85 72.9305 216.97 72.8505 217.08 72.7605C217.6 72.4305 218.53 71.8505 218.78 71.6805C218.9 71.6005 219.01 71.5105 219.12 71.4105L222.91 67.6205C223.32 67.2105 223.56 66.6505 223.56 66.0605V47.0805C223.56 46.5005 223.33 45.9405 222.91 45.5205L222.88 45.4905Z"
    stroke="black" stroke-width="0.3" stroke-linecap="round" stroke-linejoin="round" />
  <defs>
    <linearGradient id="paint0_linear_4124_6965" x1="44.6807" y1="122.07" x2="44.6807" y2="112.09"
      gradientUnits="userSpaceOnUse">
      <stop stop-color="#D0E0E4" stop-opacity="0" />
      <stop offset="0.1" stop-color="#D0E0E4" stop-opacity="0.03" />
      <stop offset="0.23" stop-color="#D0E0E4" stop-opacity="0.1" />
      <stop offset="0.39" stop-color="#D0E0E4" stop-opacity="0.23" />
      <stop offset="0.56" stop-color="#D0E0E4" stop-opacity="0.41" />
      <stop offset="0.74" stop-color="#D0E0E4" stop-opacity="0.63" />
      <stop offset="0.94" stop-color="#D0E0E4" stop-opacity="0.9" />
      <stop offset="1" stop-color="#D0E0E4" />
    </linearGradient>
    <linearGradient id="paint1_linear_4124_6965" x1="199.682" y1="73.1902" x2="199.682" y2="56.9902"
      gradientUnits="userSpaceOnUse">
      <stop stop-color="#D0E0E4" stop-opacity="0" />
      <stop offset="0.1" stop-color="#D0E0E4" stop-opacity="0.03" />
      <stop offset="0.23" stop-color="#D0E0E4" stop-opacity="0.1" />
      <stop offset="0.39" stop-color="#D0E0E4" stop-opacity="0.23" />
      <stop offset="0.56" stop-color="#D0E0E4" stop-opacity="0.41" />
      <stop offset="0.74" stop-color="#D0E0E4" stop-opacity="0.63" />
      <stop offset="0.94" stop-color="#D0E0E4" stop-opacity="0.9" />
      <stop offset="1" stop-color="#D0E0E4" />
    </linearGradient>
  </defs>
</svg>