<svg width="24" height="25" viewBox="0 0 24 25" fill="none" xmlns="http://www.w3.org/2000/svg">
<path d="M8.64106 14.8716C8.34816 15.1645 8.34816 15.6394 8.64106 15.9323C8.93395 16.2252 9.40882 16.2252 9.70172 15.9323L11.9998 13.6342L14.2979 15.9323C14.5908 16.2252 15.0657 16.2252 15.3586 15.9323C15.6515 15.6394 15.6515 15.1645 15.3586 14.8716L13.0605 12.5735L15.3586 10.2754C15.6515 9.98255 15.6515 9.50768 15.3586 9.21479C15.0657 8.92189 14.5908 8.92189 14.2979 9.21479L11.9998 11.5129L9.70173 9.21479C9.40883 8.92189 8.93396 8.92189 8.64107 9.21479C8.34817 9.50768 8.34817 9.98255 8.64107 10.2754L10.9392 12.5735L8.64106 14.8716Z" fill="#8C8C8C" fill-opacity="0.6"/>
<path fill-rule="evenodd" clip-rule="evenodd" d="M12 22.0737C17.2467 22.0737 21.5 17.8204 21.5 12.5737C21.5 7.32703 17.2467 3.07373 12 3.07373C6.75329 3.07373 2.5 7.32703 2.5 12.5737C2.5 17.8204 6.75329 22.0737 12 22.0737ZM12 23.5737C18.0751 23.5737 23 18.6489 23 12.5737C23 6.4986 18.0751 1.57373 12 1.57373C5.92487 1.57373 1 6.4986 1 12.5737C1 18.6489 5.92487 23.5737 12 23.5737Z" fill="#8C8C8C" fill-opacity="0.2"/>
</svg>
