<svg width="160" height="160" viewBox="0 0 160 160" fill="none" xmlns="http://www.w3.org/2000/svg">
<path d="M79.2958 147.989C81.7011 147.989 83.6511 147.218 83.6511 146.267C83.6511 145.317 81.7011 144.546 79.2958 144.546C76.8904 144.546 74.9404 145.317 74.9404 146.267C74.9404 147.218 76.8904 147.989 79.2958 147.989Z" fill="#EBE9E9"/>
<path d="M79.2969 146.267L116.102 133.007C117.975 132.184 117.616 130.97 115.78 130.352C115.31 130.193 108.353 127.699 108.353 127.699" stroke="#EBE9E9" stroke-width="1.3913" stroke-linecap="round"/>
<path d="M30.409 124.405C27.8764 123.483 26.9107 122.197 27.5119 120.999C27.8824 120.26 35.6978 113.384 37.2587 112.817L68.3591 105.177C72.4526 103.686 79.1524 103.686 83.2317 105.177L114.55 112.921C116.113 113.488 123.707 120.26 124.078 120.999C124.68 122.197 123.713 123.483 121.178 124.405L83.2317 138.215C79.1382 139.706 72.4384 139.706 68.3591 138.215L30.409 124.405Z" fill="white" stroke="black" stroke-width="0.347826" stroke-miterlimit="10" stroke-linecap="round"/>
<mask id="mask0_3200_100143" style="mask-type:alpha" maskUnits="userSpaceOnUse" x="27" y="103" width="98" height="37">
<path d="M30.409 124.405C27.8764 123.483 26.9107 122.197 27.5119 120.999C27.8824 120.26 35.6978 113.384 37.2587 112.817L68.3591 105.177C72.4526 103.686 79.1524 103.686 83.2317 105.177L114.55 112.921C116.113 113.488 123.707 120.26 124.078 120.999C124.68 122.197 123.713 123.483 121.178 124.405L83.2317 138.215C79.1382 139.706 72.4384 139.706 68.3591 138.215L30.409 124.405Z" fill="white" stroke="black" stroke-width="0.347826" stroke-miterlimit="10" stroke-linecap="round"/>
</mask>
<g mask="url(#mask0_3200_100143)">
<path d="M76.0595 144.804C78.2788 144.804 80.4953 144.514 82.1678 143.888L123.272 128.717C124.953 128.106 125.794 127.298 125.794 126.492V113.044C125.794 113.044 113.256 111.74 115.747 113.372C119.064 115.545 113.443 117.729 113.443 117.729L80.5156 129.777C78.0607 130.673 76.0508 133.544 76.0508 136.156L76.0595 144.804Z" fill="#EBE9E9"/>
<path d="M30.409 124.405C27.8764 123.483 26.9107 122.197 27.5119 120.999C27.8824 120.26 35.6978 113.384 37.2587 112.817L68.3591 105.177C72.4526 103.686 79.1524 103.686 83.2317 105.177L114.55 112.921C116.113 113.488 123.707 120.26 124.078 120.999C124.68 122.197 123.713 123.483 121.178 124.405L83.2317 138.215C79.1382 139.706 72.4384 139.706 68.3591 138.215L30.409 124.405Z" stroke="black" stroke-width="0.347826" stroke-miterlimit="10" stroke-linecap="round"/>
</g>
<path d="M38.7026 116.477C35.357 115.258 35.357 113.264 38.7026 112.049L69.719 100.761C73.0646 99.543 78.5403 99.543 81.8744 100.761L112.888 112.049C116.236 113.264 116.236 115.258 112.888 116.477L81.8744 127.764C78.5287 128.982 73.053 128.982 69.719 127.764L38.7026 116.477Z" fill="white" stroke="black" stroke-width="0.347826" stroke-miterlimit="10" stroke-linecap="round"/>
<path d="M45.6569 116.061C42.9386 115.071 42.9386 113.451 45.6569 112.464L70.8575 103.293C73.5758 102.303 78.0247 102.303 80.7336 103.293L105.932 112.464C108.653 113.451 108.653 115.071 105.932 116.061L80.7336 125.232C78.0153 126.222 73.5664 126.222 70.8575 125.232L45.6569 116.061Z" stroke="#EBE9E9" stroke-width="0.695652" stroke-miterlimit="10" stroke-linecap="round"/>
<path d="M137.578 28.5131C137.578 26.2262 135.339 24.0733 131.683 23.1913L86.3229 12.221C81.5632 11.0711 76.2047 12.5151 74.352 15.4455L31.0378 83.9392C30.6391 84.5462 30.422 85.2638 30.414 86.0006L30.3828 91.6883C30.3828 93.9751 32.6161 96.1378 36.2778 97.0231L81.6381 107.99C86.3946 109.14 91.7562 107.696 93.6089 104.769L136.926 36.2752C137.325 35.6692 137.542 34.9527 137.55 34.2171L137.581 28.5294C137.581 28.5294 137.578 28.5196 137.578 28.5131Z" fill="white" stroke="black" stroke-width="0.347826" stroke-miterlimit="10" stroke-linecap="round"/>
<mask id="mask1_3200_100143" style="mask-type:alpha" maskUnits="userSpaceOnUse" x="30" y="11" width="108" height="98">
<path d="M137.578 28.5131C137.578 26.2262 135.339 24.0733 131.683 23.1913L86.3229 12.221C81.5632 11.0711 76.2047 12.5151 74.352 15.4455L31.0378 83.9392C30.6391 84.5462 30.422 85.2638 30.414 86.0006L30.3828 91.6883C30.3828 93.9751 32.6161 96.1378 36.2778 97.0231L81.6381 107.99C86.3946 109.14 91.7562 107.696 93.6089 104.769L136.926 36.2752C137.325 35.6692 137.542 34.9527 137.55 34.2171L137.581 28.5294C137.581 28.5294 137.578 28.5196 137.578 28.5131Z" fill="white" stroke="black" stroke-width="0.347826" stroke-miterlimit="10" stroke-linecap="round"/>
</mask>
<g mask="url(#mask1_3200_100143)">
<mask id="mask2_3200_100143" style="mask-type:alpha" maskUnits="userSpaceOnUse" x="30" y="11" width="108" height="98">
<path d="M137.578 28.5131C137.578 26.2262 135.339 24.0733 131.683 23.1913L86.3229 12.221C81.5632 11.0711 76.2047 12.5151 74.352 15.4455L31.0378 83.9392C30.6391 84.5462 30.422 85.2638 30.414 86.0006L30.3828 91.6883C30.3828 93.9751 32.6161 96.1378 36.2778 97.0231L81.6381 107.99C86.3946 109.14 91.7562 107.696 93.6089 104.769L136.926 36.2752C137.325 35.6692 137.542 34.9527 137.55 34.2171L137.581 28.5294C137.581 28.5294 137.578 28.5196 137.578 28.5131Z" fill="black"/>
</mask>
<g mask="url(#mask2_3200_100143)">
<path d="M137.578 28.5131C137.578 26.2262 135.339 24.0733 131.683 23.1913L86.3229 12.221C81.5632 11.0711 76.2047 12.5151 74.352 15.4455L31.0378 83.9392C30.6391 84.5462 30.422 85.2638 30.414 86.0006L30.3828 91.6883C30.3828 93.9751 32.6161 96.1378 36.2778 97.0231L81.6381 107.99C86.3946 109.14 91.7562 107.696 93.6089 104.769L136.926 36.2752C137.325 35.6692 137.542 34.9527 137.55 34.2171L137.581 28.5294C137.581 28.5294 137.578 28.5196 137.578 28.5131Z" fill="black"/>
<rect x="89.4658" y="99.8474" width="2.05234" height="9.0948" fill="#B8A9A9"/>
</g>
<path d="M31.0378 83.9391C30.6391 84.5462 30.422 85.2638 30.414 86.0005L30.3828 91.6882C30.3828 93.975 32.6161 96.1377 36.2778 97.023L81.6381 107.99C83.3132 108.388 85.0404 108.487 86.7471 108.284V99.7019L32.8999 81.012L31.0378 83.9391Z" fill="#B8A9A9"/>
<path d="M131.684 23.2076C136.443 24.3576 138.798 27.667 136.946 30.5974L93.6314 99.0911C91.7818 102.031 86.4202 103.465 81.6605 102.316L36.3003 91.3453C31.5437 90.1953 29.1857 86.8859 31.0385 83.9555L74.3526 15.4618C76.2053 12.5216 81.5638 11.0875 86.3235 12.2374L131.684 23.2076Z" fill="white"/>
<path d="M69.5224 103.028C69.8944 103.028 70.1961 102.712 70.1961 102.322C70.1961 101.932 69.8944 101.616 69.5224 101.616C69.1503 101.616 68.8486 101.932 68.8486 102.322C68.8486 102.712 69.1503 103.028 69.5224 103.028Z" fill="black"/>
<path d="M71.8387 103.59C72.2108 103.59 72.5124 103.274 72.5124 102.884C72.5124 102.494 72.2108 102.178 71.8387 102.178C71.4666 102.178 71.165 102.494 71.165 102.884C71.165 103.274 71.4666 103.59 71.8387 103.59Z" fill="black"/>
<path d="M74.1571 104.148C74.5292 104.148 74.8308 103.832 74.8308 103.442C74.8308 103.053 74.5292 102.737 74.1571 102.737C73.785 102.737 73.4834 103.053 73.4834 103.442C73.4834 103.832 73.785 104.148 74.1571 104.148Z" fill="black"/>
<path d="M76.4716 104.71C76.8437 104.71 77.1453 104.394 77.1453 104.004C77.1453 103.615 76.8437 103.299 76.4716 103.299C76.0995 103.299 75.7979 103.615 75.7979 104.004C75.7979 104.394 76.0995 104.71 76.4716 104.71Z" fill="black"/>
<path d="M37.5331 95.2426C37.9052 95.2426 38.2068 94.9267 38.2068 94.537C38.2068 94.1472 37.9052 93.8313 37.5331 93.8313C37.161 93.8313 36.8594 94.1472 36.8594 94.537C36.8594 94.9267 37.161 95.2426 37.5331 95.2426Z" fill="black"/>
<path d="M39.8495 95.8044C40.2216 95.8044 40.5232 95.4884 40.5232 95.0987C40.5232 94.709 40.2216 94.3931 39.8495 94.3931C39.4774 94.3931 39.1758 94.709 39.1758 95.0987C39.1758 95.4884 39.4774 95.8044 39.8495 95.8044Z" fill="black"/>
<path d="M42.1649 96.3632C42.537 96.3632 42.8386 96.0472 42.8386 95.6575C42.8386 95.2678 42.537 94.9519 42.1649 94.9519C41.7928 94.9519 41.4912 95.2678 41.4912 95.6575C41.4912 96.0472 41.7928 96.3632 42.1649 96.3632Z" fill="black"/>
<path d="M44.4833 96.925C44.8554 96.925 45.157 96.6091 45.157 96.2193C45.157 95.8296 44.8554 95.5137 44.4833 95.5137C44.1112 95.5137 43.8096 95.8296 43.8096 96.2193C43.8096 96.6091 44.1112 96.925 44.4833 96.925Z" fill="black"/>
</g>
<path d="M39.2014 89.0175L39.2015 89.0175L81.9148 99.3581C81.9149 99.3581 81.9149 99.3581 81.915 99.3581M39.2014 89.0175L91.5948 96.9086C90.0759 99.2885 85.738 100.459 81.8741 99.5271L81.915 99.3581M39.2014 89.0175C37.2965 88.5579 35.896 87.6703 35.1547 86.6282M39.2014 89.0175L35.1547 86.6282M81.915 99.3581C83.8179 99.8172 85.8387 99.7583 87.5686 99.292C89.302 98.8248 90.7201 97.9554 91.4478 96.8155M81.915 99.3581L91.4478 96.8155M91.4478 96.8155C91.4479 96.8154 91.448 96.8152 91.4482 96.815L133.095 30.9542C133.805 29.8283 133.711 28.6384 132.976 27.6057C132.235 26.5641 130.835 25.6765 128.93 25.2153L86.2167 14.8747C84.3137 14.4156 82.2928 14.4745 80.5629 14.9408C78.8294 15.4081 77.4111 16.2776 76.6835 17.4176C76.6834 17.4177 76.6834 17.4177 76.6833 17.4178L35.0337 83.2784L91.4478 96.8155ZM35.1547 86.6282C34.4197 85.5952 34.3253 84.4045 35.0335 83.2788L35.1547 86.6282Z" stroke="#B8A9A9" stroke-width="0.347826"/>
<path d="M137.578 28.513C137.578 26.2262 135.339 24.0733 131.683 23.1913L86.3229 12.221C81.5632 11.0711 76.2047 12.5151 74.352 15.4455L31.0378 83.9392C30.6391 84.5462 30.422 85.2638 30.414 86.0006V86.0006L30.3828 91.6883C30.3828 93.9751 32.6161 96.1378 36.2778 97.0231L81.6381 107.99C86.3946 109.14 91.7562 107.696 93.6089 104.769L136.926 36.2752C137.325 35.6692 137.542 34.9527 137.55 34.2171L137.581 28.5294C137.581 28.5294 137.578 28.5196 137.578 28.513Z" stroke="black" stroke-width="0.347826" stroke-miterlimit="10" stroke-linecap="round"/>
<mask id="mask3_3200_100143" style="mask-type:alpha" maskUnits="userSpaceOnUse" x="52" y="23" width="68" height="62">
<path d="M81.0094 25.7002C81.9628 24.1803 83.7807 23.4398 85.5247 23.8608L116.691 31.3847C119.464 32.0539 120.763 35.2442 119.248 37.6601L91.3698 82.1025C90.4164 83.6223 88.5984 84.3629 86.8544 83.9418L55.6877 76.4179C52.9156 75.7487 51.6159 72.5584 53.1313 70.1426L81.0094 25.7002Z" fill="#66DD8C"/>
</mask>
<g mask="url(#mask3_3200_100143)">
<path d="M81.0094 25.7002C81.9628 24.1803 83.7807 23.4398 85.5247 23.8608L116.691 31.3847C119.464 32.0539 120.763 35.2442 119.248 37.6601L91.3698 82.1025C90.4164 83.6223 88.5984 84.3629 86.8544 83.9418L55.6877 76.4179C52.9156 75.7487 51.6159 72.5584 53.1313 70.1426L81.0094 25.7002Z" fill="#EBE9E9"/>
<path d="M98.2955 21.6769L61.5844 79.7535L45.125 74.7117L81.9914 18.2615L98.2955 21.6769Z" fill="white"/>
<mask id="mask4_3200_100143" style="mask-type:alpha" maskUnits="userSpaceOnUse" x="91" y="32" width="13" height="11">
<path d="M95.0118 33.5003C95.6351 32.5041 96.817 32.0068 97.965 32.2577L100.9 32.8991C102.781 33.3102 103.686 35.4613 102.665 37.0934L99.9042 41.5057C99.2809 42.5019 98.099 42.9992 96.951 42.7483L94.0162 42.1069C92.1354 41.6958 91.2303 39.5447 92.2514 37.9126L95.0118 33.5003Z" fill="white"/>
</mask>
<g mask="url(#mask4_3200_100143)">
<path d="M95.0118 33.5003C95.6351 32.5041 96.817 32.0068 97.965 32.2577L100.9 32.8991C102.781 33.3102 103.686 35.4613 102.665 37.0934L99.9042 41.5057C99.2809 42.5019 98.099 42.9992 96.951 42.7483L94.0162 42.1069C92.1354 41.6958 91.2303 39.5447 92.2514 37.9126L95.0118 33.5003Z" fill="white"/>
<path d="M93.7969 34.8711L102.824 37.1034" stroke="#B8A9A9" stroke-width="0.347826"/>
<path d="M91.9297 37.6047L100.957 39.8371" stroke="#B8A9A9" stroke-width="0.347826"/>
<path d="M96.2856 35.3727C96.5583 34.9368 97.0753 34.7192 97.5776 34.829L99.2483 35.1942C100.071 35.374 100.467 36.3151 100.02 37.0292L98.5026 39.4553C98.2299 39.8911 97.7128 40.1087 97.2106 39.9989L95.5399 39.6338C94.717 39.4539 94.321 38.5128 94.7678 37.7988L96.2856 35.3727Z" fill="white" stroke="#B8A9A9" stroke-width="0.347826"/>
</g>
<path d="M81.1567 25.7926C82.0704 24.3361 83.8126 23.6264 85.4839 24.0298L116.651 31.5538C119.307 32.1951 120.553 35.2525 119.1 37.5676L91.2224 82.01C90.3088 83.4666 88.5666 84.1763 86.8952 83.7728L55.7285 76.2489C53.0719 75.6075 51.8264 72.5501 53.2787 70.235L81.1567 25.7926Z" stroke="#EBE9E9" stroke-width="0.347826"/>
</g>
<circle cx="14.1341" cy="14.1341" r="13.8559" transform="matrix(0.97237 0.233445 -0.533024 0.8461 63.5312 61.8618)" fill="white" stroke="#EBE9E9" stroke-width="0.556522"/>
<path d="M65.7797 71.5444C61.2629 74.0536 59.3756 78.5843 61.5623 81.664C63.2497 84.039 66.9574 84.9291 70.8007 83.8819L65.7797 71.5444ZM68.6828 70.3613L73.7038 82.6988C78.2206 80.1896 80.1105 75.6595 77.9212 72.5792C76.2338 70.2042 72.5261 69.314 68.6828 70.3613ZM63.9175 86.3667C58.0488 84.9578 55.9018 79.6766 59.1174 74.5722C62.3331 69.4678 69.6973 66.4675 75.566 67.8764C81.4347 69.2854 83.5817 74.5666 80.3646 79.6732C77.1476 84.7798 69.7862 87.7757 63.9175 86.3667Z" fill="#F66754"/>
<path d="M61.4437 142.357L65.8347 140.759C66.6495 140.463 66.6495 139.978 65.8347 139.681L60.7852 137.844L61.4437 142.357Z" fill="black"/>
<path d="M24.0539 133.331L24.054 133.331L24.06 133.329C25.2773 132.886 26.8932 132.661 28.5167 132.661C30.1403 132.661 31.754 132.886 32.9668 133.329L32.9672 133.329L52.1238 140.275C52.1238 140.275 52.1238 140.275 52.1239 140.275C52.7332 140.496 53.177 140.748 53.4654 141.008C53.7534 141.267 53.8741 141.522 53.8741 141.755C53.8741 141.987 53.7534 142.242 53.4653 142.502C53.1774 142.761 52.7345 143.013 52.1267 143.235L47.0512 144.873L47.0512 144.873L47.0451 144.875C45.8279 145.319 44.2119 145.543 42.5884 145.543C40.9649 145.543 39.3512 145.319 38.1384 144.875L38.1379 144.875L18.9794 137.93C18.9793 137.93 18.9793 137.93 18.9792 137.93C18.3704 137.708 17.9271 137.456 17.6389 137.196C17.3512 136.936 17.2306 136.681 17.2306 136.448C17.2306 136.216 17.3511 135.961 17.6389 135.702C17.9265 135.442 18.369 135.191 18.9763 134.97L24.0539 133.331Z" fill="white" stroke="#B8A9A9" stroke-width="0.347826" stroke-miterlimit="10" stroke-linecap="round"/>
<path d="M50.8872 135.688L57.9653 131.801L63.7217 140.655C63.9042 140.936 63.7787 141.313 63.4643 141.429L51.6746 145.764L50.8872 135.688Z" fill="#EBE9E9" stroke="black" stroke-width="0.347826"/>
<path d="M22.9618 119.747C23.2293 119.176 23.8889 118.904 24.4816 119.12L57.2288 131.067C57.9001 131.312 58.2171 132.08 57.9141 132.727L52.0608 145.227C51.7933 145.799 51.1337 146.071 50.541 145.855L17.7938 133.908C17.1225 133.663 16.8055 132.895 17.1086 132.248L22.9618 119.747Z" fill="white" stroke="black" stroke-width="0.347826"/>
<path d="M24.0571 123.049C24.3613 122.399 25.1094 122.088 25.7849 122.329L53.432 132.2C54.2047 132.475 54.5721 133.357 54.2241 134.1L50.605 141.829C50.3008 142.479 49.5527 142.791 48.8771 142.549L21.2301 132.678C20.4574 132.403 20.09 131.521 20.4379 130.778L24.0571 123.049Z" fill="black"/>
<mask id="mask5_3200_100143" style="mask-type:alpha" maskUnits="userSpaceOnUse" x="20" y="122" width="35" height="21">
<path d="M24.0571 123.049C24.3613 122.399 25.1094 122.088 25.7849 122.329L53.432 132.2C54.2047 132.475 54.5721 133.357 54.2241 134.1L50.605 141.829C50.3008 142.479 49.5527 142.791 48.8771 142.549L21.2301 132.678C20.4574 132.403 20.09 131.521 20.4379 130.778L24.0571 123.049Z" fill="black"/>
</mask>
<g mask="url(#mask5_3200_100143)">
<path d="M23.0863 130.585L22.0999 130.221L21.4414 131.621L22.4278 131.986L23.0863 130.585Z" fill="#F66754"/>
<path d="M47.1967 135.967L46.2103 135.603L45.5518 137.003L46.5382 137.368L47.1967 135.967Z" fill="#F66754"/>
<path d="M42.8109 129.267L41.8245 128.903L41.166 130.304L42.1524 130.668L42.8109 129.267Z" fill="#F66754"/>
<path d="M26.7393 127.852L25.7529 127.488L23.3974 132.313L24.3838 132.677L26.7393 127.852Z" fill="#F66754"/>
<path d="M33.2677 129.021L32.2813 128.656L29.9257 133.482L30.9121 133.846L33.2677 129.021Z" fill="#F66754"/>
<path d="M36.6671 127.026L35.6807 126.662L33.3251 131.487L34.3115 131.851L36.6671 127.026Z" fill="#F66754"/>
<path d="M47.2237 130.759L46.2373 130.395L43.8817 135.22L44.8681 135.584L47.2237 130.759Z" fill="#F66754"/>
<path d="M51.4005 136.922L50.4141 136.558L48.0585 141.383L49.0449 141.747L51.4005 136.922Z" fill="#F66754"/>
<path d="M40.2997 129.64L39.3133 129.276L36.4697 134.949L37.4561 135.313L40.2997 129.64Z" fill="#F66754"/>
<path d="M29.6708 126.679L28.6844 126.315L26.9934 129.703L27.9798 130.067L29.6708 126.679Z" fill="#F66754"/>
<path d="M30.3528 130.062L29.3664 129.698L28.1937 132.086L29.1801 132.451L30.3528 130.062Z" fill="#F66754"/>
<path d="M37.887 129.526L36.9006 129.161L35.7278 131.55L36.7143 131.914L37.887 129.526Z" fill="#F66754"/>
<path d="M45.0413 129.999L44.0549 129.635L42.8821 132.023L43.8685 132.388L45.0413 129.999Z" fill="#F66754"/>
<path d="M48.552 137.979L47.5656 137.615L46.3929 140.003L47.3793 140.367L48.552 137.979Z" fill="#F66754"/>
<path d="M41.7907 131.335L40.8043 130.971L39.6141 133.391L40.6006 133.755L41.7907 131.335Z" fill="#F66754"/>
<path d="M49.6107 135.828L48.6243 135.464L47.9658 136.865L48.9522 137.229L49.6107 135.828Z" fill="#F66754"/>
<path d="M41.8558 136.713L40.8694 136.348L40.2109 137.749L41.1974 138.113L41.8558 136.713Z" fill="#F66754"/>
<path d="M33.6283 133.153L32.6419 132.789L31.9834 134.189L32.9698 134.553L33.6283 133.153Z" fill="#F66754"/>
<path d="M27.8187 125.648L26.8323 125.284L26.1738 126.684L27.1602 127.049L27.8187 125.648Z" fill="#F66754"/>
<path d="M30.472 125.042L29.4856 124.678L29.0405 125.549L30.0269 125.913L30.472 125.042Z" fill="#F66754"/>
<path d="M52.5072 134.761L51.5208 134.397L50.8623 135.798L51.8487 136.162L52.5072 134.761Z" fill="#F66754"/>
</g>
<path d="M24.2146 123.123C24.4808 122.554 25.1354 122.281 25.7265 122.492L53.3735 132.363C54.0496 132.605 54.3711 133.376 54.0666 134.026L50.4475 141.755C50.1813 142.324 49.5267 142.597 48.9356 142.386L21.2886 132.515C20.6125 132.273 20.291 131.502 20.5955 130.852L24.2146 123.123Z" stroke="black" stroke-width="0.347826"/>
<path d="M19.015 54.7753L7.93567 41.8896L11.7832 26.8268L28.3722 20.0381L39.451 32.9229L35.6041 47.9831L19.015 54.7753Z" fill="white" stroke="black" stroke-width="0.347826"/>
<mask id="mask6_3200_100143" style="mask-type:alpha" maskUnits="userSpaceOnUse" x="7" y="19" width="33" height="36">
<path d="M19.023 54.7377L7.9689 41.8814L11.8085 26.8495L28.3622 20.0752L39.4158 32.9307L35.5768 47.9599L19.023 54.7377Z" fill="white" stroke="black" stroke-width="0.410154"/>
</mask>
<g mask="url(#mask6_3200_100143)">
<path d="M24.7666 35.2224L28.3826 20.0608L39.4036 32.9192L35.6175 47.9807L24.7666 35.2224Z" fill="#EBE9E9"/>
<path d="M28.4249 19.9303L24.8052 35.193M24.8052 35.193L7.94546 41.9517M24.8052 35.193L35.4876 47.9282" stroke="black" stroke-width="0.347826"/>
</g>
<path d="M12.2916 42.8796L23.5734 38.3612L26.6946 42.1468L15.4129 46.6651L12.2916 42.8796Z" fill="black"/>
<path d="M16.649 48.1881L27.9308 43.6698L31.0521 47.4554L19.7703 51.9737L16.649 48.1881Z" fill="black"/>
<path d="M15.1529 43.7343L16.8369 43.0744" stroke="#66DD8C" stroke-width="1.04348" stroke-linecap="round"/>
<path d="M19.065 42.0856L22.8607 40.6253" stroke="#66DD8C" stroke-width="1.04348" stroke-linecap="round"/>
<path d="M21.5826 48.1648L23.2666 47.5049" stroke="#66DD8C" stroke-width="1.04348" stroke-linecap="round"/>
<path d="M25.4068 46.5539L27.0908 45.894" stroke="#66DD8C" stroke-width="1.04348" stroke-linecap="round"/>
<path d="M19.015 54.7753L7.93567 41.8896L11.7832 26.8268L28.3722 20.0381L39.451 32.9229L35.6041 47.9831L19.015 54.7753Z" stroke="black" stroke-width="0.347826"/>
<mask id="mask7_3200_100143" style="mask-type:alpha" maskUnits="userSpaceOnUse" x="129" y="65" width="29" height="29">
<circle cx="143.319" cy="79.472" r="13.6013" fill="white" stroke="black" stroke-width="0.410154"/>
</mask>
<g mask="url(#mask7_3200_100143)">
<circle cx="143.319" cy="79.472" r="13.8064" fill="white"/>
<path d="M146.534 79.614C150.725 88.7036 145.662 93.5396 136.521 94.1445C147.08 97.4946 154.805 90.1289 157.404 84.9333C159.484 80.7767 157.23 72.2603 155.897 69.0882C152.634 64.2323 141.587 68.8844 146.534 79.614Z" fill="#EBE9E9"/>
<path d="M152.593 78.8229C155.465 85.7172 152.834 90.4696 151.159 91.984C162.463 86.2687 156.45 72.8983 155.921 71.5349C155.391 70.1715 149.002 70.205 152.593 78.8229Z" fill="black"/>
<path d="M150.874 92.3304C137.87 96.9292 125.158 74.2895 138.764 63.5803" stroke="black" stroke-width="1.31249"/>
<path d="M154.249 74.4702C155.395 76.0539 157.392 80.4782 156.21 85.5053" stroke="#66DD8C" stroke-width="1.64061" stroke-linecap="round"/>
<path d="M132.962 74.6899C132.795 77.7441 133.499 80.832 134.814 83.5796" stroke="#66DD8C" stroke-width="0.492184" stroke-linecap="round"/>
<path d="M136.021 85.7468C136.808 86.9723 137.722 88.0943 138.733 89.0706" stroke="#66DD8C" stroke-width="0.492184" stroke-linecap="round"/>
<circle cx="143.319" cy="79.472" r="13.6325" stroke="black" stroke-width="0.347826"/>
</g>
</svg>
