<svg width="117" height="31" viewBox="0 0 117 31" fill="none" xmlns="http://www.w3.org/2000/svg">
<path d="M36.4712 5.81396V8.15625C36.3921 8.27344 36.2661 8.40527 36.0933 8.55176C35.9204 8.69531 35.6816 8.82129 35.377 8.92969C35.0752 9.03516 34.6855 9.08789 34.208 9.08789C33.8184 9.08789 33.4595 9.02051 33.1313 8.88574C32.8062 8.74805 32.5234 8.54883 32.2832 8.28809C32.0459 8.02441 31.8613 7.70508 31.7295 7.33008C31.6006 6.95215 31.5361 6.52441 31.5361 6.04688V5.55029C31.5361 5.07275 31.5918 4.64648 31.7031 4.27148C31.8174 3.89648 31.9844 3.57861 32.2041 3.31787C32.4238 3.0542 32.6934 2.85498 33.0127 2.72021C33.332 2.58252 33.6982 2.51367 34.1113 2.51367C34.6006 2.51367 35.0093 2.59863 35.3374 2.76855C35.6685 2.93555 35.9263 3.16699 36.1108 3.46289C36.2983 3.75879 36.4185 4.0957 36.4712 4.47363H35.623C35.585 4.24219 35.5088 4.03125 35.3945 3.84082C35.2832 3.65039 35.1235 3.49805 34.9155 3.38379C34.7075 3.2666 34.4395 3.20801 34.1113 3.20801C33.8154 3.20801 33.5591 3.26221 33.3423 3.37061C33.1255 3.479 32.9468 3.63428 32.8062 3.83643C32.6655 4.03857 32.5601 4.2832 32.4897 4.57031C32.4224 4.85742 32.3887 5.18115 32.3887 5.5415V6.04688C32.3887 6.41602 32.4312 6.74561 32.5161 7.03564C32.604 7.32568 32.7285 7.57324 32.8896 7.77832C33.0508 7.98047 33.2427 8.13428 33.4653 8.23975C33.6909 8.34521 33.9399 8.39795 34.2124 8.39795C34.5142 8.39795 34.7588 8.37305 34.9463 8.32324C35.1338 8.27051 35.2803 8.20898 35.3857 8.13867C35.4912 8.06543 35.5718 7.99658 35.6274 7.93213V6.49951H34.1465V5.81396H36.4712ZM41.9424 8.31006V9H38.5542V8.31006H41.9424ZM38.7256 2.60156V9H37.8774V2.60156H38.7256ZM41.4941 5.35254V6.04248H38.5542V5.35254H41.4941ZM41.8984 2.60156V3.2959H38.5542V2.60156H41.8984ZM45.4448 2.60156V9H44.6099V2.60156H45.4448ZM47.5015 2.60156V3.2959H42.5576V2.60156H47.5015ZM51.417 2.60156V9H50.5688V2.60156H51.417ZM55.1919 2.60156V9H54.3569V2.60156H55.1919ZM57.2485 2.60156V3.2959H52.3047V2.60156H57.2485ZM65.1807 5.59863V6.00293C65.1807 6.4834 65.1206 6.91406 65.0005 7.29492C64.8804 7.67578 64.7075 7.99951 64.4819 8.26611C64.2563 8.53271 63.9854 8.73633 63.6689 8.87695C63.3555 9.01758 63.0039 9.08789 62.6143 9.08789C62.2363 9.08789 61.8892 9.01758 61.5728 8.87695C61.2593 8.73633 60.9868 8.53271 60.7554 8.26611C60.5269 7.99951 60.3496 7.67578 60.2236 7.29492C60.0977 6.91406 60.0347 6.4834 60.0347 6.00293V5.59863C60.0347 5.11816 60.0962 4.68896 60.2192 4.31104C60.3452 3.93018 60.5225 3.60645 60.751 3.33984C60.9795 3.07031 61.2505 2.86523 61.564 2.72461C61.8804 2.58398 62.2275 2.51367 62.6055 2.51367C62.9951 2.51367 63.3467 2.58398 63.6602 2.72461C63.9766 2.86523 64.2476 3.07031 64.4731 3.33984C64.7017 3.60645 64.876 3.93018 64.9961 4.31104C65.1191 4.68896 65.1807 5.11816 65.1807 5.59863ZM64.3413 6.00293V5.58984C64.3413 5.20898 64.3018 4.87207 64.2227 4.5791C64.1465 4.28613 64.0337 4.04004 63.8843 3.84082C63.7349 3.6416 63.5518 3.49072 63.335 3.38818C63.1211 3.28564 62.8779 3.23438 62.6055 3.23438C62.3418 3.23438 62.103 3.28564 61.8892 3.38818C61.6782 3.49072 61.4966 3.6416 61.3442 3.84082C61.1948 4.04004 61.0791 4.28613 60.9971 4.5791C60.915 4.87207 60.874 5.20898 60.874 5.58984V6.00293C60.874 6.38672 60.915 6.72656 60.9971 7.02246C61.0791 7.31543 61.1963 7.56299 61.3486 7.76514C61.5039 7.96436 61.687 8.11523 61.8979 8.21777C62.1118 8.32031 62.3506 8.37158 62.6143 8.37158C62.8896 8.37158 63.1343 8.32031 63.3481 8.21777C63.562 8.11523 63.7422 7.96436 63.8887 7.76514C64.0381 7.56299 64.1509 7.31543 64.2271 7.02246C64.3032 6.72656 64.3413 6.38672 64.3413 6.00293ZM71.3726 2.60156V9H70.52L67.2988 4.06494V9H66.4507V2.60156H67.2988L70.5332 7.5498V2.60156H71.3726Z" fill="#F3F3F3"/>
<path d="M40.8906 20.1875V24.5312C40.7292 24.7448 40.4766 24.9792 40.1328 25.2344C39.7943 25.4844 39.3438 25.7005 38.7812 25.8828C38.2188 26.0651 37.5182 26.1562 36.6797 26.1562C35.9661 26.1562 35.3125 26.0365 34.7188 25.7969C34.125 25.5521 33.612 25.1953 33.1797 24.7266C32.7526 24.2578 32.4219 23.6875 32.1875 23.0156C31.9531 22.3385 31.8359 21.5677 31.8359 20.7031V19.9141C31.8359 19.0547 31.9427 18.2891 32.1562 17.6172C32.375 16.9401 32.6875 16.3672 33.0938 15.8984C33.5 15.4297 33.9896 15.0755 34.5625 14.8359C35.1406 14.5911 35.7943 14.4688 36.5234 14.4688C37.4557 14.4688 38.2266 14.625 38.8359 14.9375C39.4505 15.2448 39.9245 15.6719 40.2578 16.2188C40.5911 16.7656 40.8021 17.3906 40.8906 18.0938H38.9688C38.9062 17.6979 38.7839 17.3438 38.6016 17.0312C38.4245 16.7188 38.1693 16.474 37.8359 16.2969C37.5078 16.1146 37.0807 16.0234 36.5547 16.0234C36.1016 16.0234 35.7031 16.1094 35.3594 16.2812C35.0156 16.4531 34.7292 16.7057 34.5 17.0391C34.276 17.3724 34.1068 17.7786 33.9922 18.2578C33.8776 18.737 33.8203 19.2839 33.8203 19.8984V20.7031C33.8203 21.3281 33.8854 21.8828 34.0156 22.3672C34.151 22.8516 34.3438 23.2604 34.5938 23.5938C34.849 23.9271 35.1589 24.1797 35.5234 24.3516C35.888 24.5182 36.2995 24.6016 36.7578 24.6016C37.2057 24.6016 37.5729 24.5651 37.8594 24.4922C38.1458 24.4141 38.3724 24.3229 38.5391 24.2188C38.7109 24.1094 38.8438 24.0052 38.9375 23.9062V21.6484H36.5703V20.1875H40.8906ZM42.5156 21.8672V21.6875C42.5156 21.0781 42.6042 20.513 42.7812 19.9922C42.9583 19.4661 43.2135 19.0104 43.5469 18.625C43.8854 18.2344 44.2969 17.9323 44.7812 17.7188C45.2708 17.5 45.8229 17.3906 46.4375 17.3906C47.0573 17.3906 47.6094 17.5 48.0938 17.7188C48.5833 17.9323 48.9974 18.2344 49.3359 18.625C49.6745 19.0104 49.9323 19.4661 50.1094 19.9922C50.2865 20.513 50.375 21.0781 50.375 21.6875V21.8672C50.375 22.4766 50.2865 23.0417 50.1094 23.5625C49.9323 24.0833 49.6745 24.5391 49.3359 24.9297C48.9974 25.3151 48.5859 25.6172 48.1016 25.8359C47.6172 26.0495 47.0677 26.1562 46.4531 26.1562C45.8333 26.1562 45.2786 26.0495 44.7891 25.8359C44.3047 25.6172 43.8932 25.3151 43.5547 24.9297C43.2161 24.5391 42.9583 24.0833 42.7812 23.5625C42.6042 23.0417 42.5156 22.4766 42.5156 21.8672ZM44.3984 21.6875V21.8672C44.3984 22.2474 44.4375 22.6068 44.5156 22.9453C44.5938 23.2839 44.7161 23.5807 44.8828 23.8359C45.0495 24.0911 45.263 24.2917 45.5234 24.4375C45.7839 24.5833 46.0938 24.6562 46.4531 24.6562C46.8021 24.6562 47.1042 24.5833 47.3594 24.4375C47.6198 24.2917 47.8333 24.0911 48 23.8359C48.1667 23.5807 48.2891 23.2839 48.3672 22.9453C48.4505 22.6068 48.4922 22.2474 48.4922 21.8672V21.6875C48.4922 21.3125 48.4505 20.9583 48.3672 20.625C48.2891 20.2865 48.1641 19.987 47.9922 19.7266C47.8255 19.4661 47.612 19.263 47.3516 19.1172C47.0964 18.9661 46.7917 18.8906 46.4375 18.8906C46.0833 18.8906 45.776 18.9661 45.5156 19.1172C45.2604 19.263 45.0495 19.4661 44.8828 19.7266C44.7161 19.987 44.5938 20.2865 44.5156 20.625C44.4375 20.9583 44.3984 21.3125 44.3984 21.6875ZM51.5938 21.8672V21.6875C51.5938 21.0781 51.6823 20.513 51.8594 19.9922C52.0365 19.4661 52.2917 19.0104 52.625 18.625C52.9635 18.2344 53.375 17.9323 53.8594 17.7188C54.349 17.5 54.901 17.3906 55.5156 17.3906C56.1354 17.3906 56.6875 17.5 57.1719 17.7188C57.6615 17.9323 58.0755 18.2344 58.4141 18.625C58.7526 19.0104 59.0104 19.4661 59.1875 19.9922C59.3646 20.513 59.4531 21.0781 59.4531 21.6875V21.8672C59.4531 22.4766 59.3646 23.0417 59.1875 23.5625C59.0104 24.0833 58.7526 24.5391 58.4141 24.9297C58.0755 25.3151 57.6641 25.6172 57.1797 25.8359C56.6953 26.0495 56.1458 26.1562 55.5312 26.1562C54.9115 26.1562 54.3568 26.0495 53.8672 25.8359C53.3828 25.6172 52.9714 25.3151 52.6328 24.9297C52.2943 24.5391 52.0365 24.0833 51.8594 23.5625C51.6823 23.0417 51.5938 22.4766 51.5938 21.8672ZM53.4766 21.6875V21.8672C53.4766 22.2474 53.5156 22.6068 53.5938 22.9453C53.6719 23.2839 53.7943 23.5807 53.9609 23.8359C54.1276 24.0911 54.3411 24.2917 54.6016 24.4375C54.862 24.5833 55.1719 24.6562 55.5312 24.6562C55.8802 24.6562 56.1823 24.5833 56.4375 24.4375C56.6979 24.2917 56.9115 24.0911 57.0781 23.8359C57.2448 23.5807 57.3672 23.2839 57.4453 22.9453C57.5286 22.6068 57.5703 22.2474 57.5703 21.8672V21.6875C57.5703 21.3125 57.5286 20.9583 57.4453 20.625C57.3672 20.2865 57.2422 19.987 57.0703 19.7266C56.9036 19.4661 56.6901 19.263 56.4297 19.1172C56.1745 18.9661 55.8698 18.8906 55.5156 18.8906C55.1615 18.8906 54.8542 18.9661 54.5938 19.1172C54.3385 19.263 54.1276 19.4661 53.9609 19.7266C53.7943 19.987 53.6719 20.2865 53.5938 20.625C53.5156 20.9583 53.4766 21.3125 53.4766 21.6875ZM66.4453 17.5469H68.1562V25.7656C68.1562 26.526 67.9948 27.1719 67.6719 27.7031C67.349 28.2344 66.8984 28.638 66.3203 28.9141C65.7422 29.1953 65.0729 29.3359 64.3125 29.3359C63.9896 29.3359 63.6302 29.2891 63.2344 29.1953C62.8438 29.1016 62.4635 28.9505 62.0938 28.7422C61.7292 28.5391 61.4245 28.2708 61.1797 27.9375L62.0625 26.8281C62.3646 27.1875 62.6979 27.4505 63.0625 27.6172C63.4271 27.7839 63.8099 27.8672 64.2109 27.8672C64.6432 27.8672 65.0104 27.7865 65.3125 27.625C65.6198 27.4688 65.8568 27.237 66.0234 26.9297C66.1901 26.6224 66.2734 26.2474 66.2734 25.8047V19.4609L66.4453 17.5469ZM60.7031 21.8672V21.7031C60.7031 21.0625 60.7812 20.4792 60.9375 19.9531C61.0938 19.4219 61.3177 18.9661 61.6094 18.5859C61.901 18.2005 62.2552 17.9062 62.6719 17.7031C63.0885 17.4948 63.5599 17.3906 64.0859 17.3906C64.6328 17.3906 65.099 17.4896 65.4844 17.6875C65.875 17.8854 66.2005 18.1693 66.4609 18.5391C66.7214 18.9036 66.9245 19.3411 67.0703 19.8516C67.2214 20.3568 67.3333 20.9193 67.4062 21.5391V22.0625C67.3385 22.6667 67.224 23.2188 67.0625 23.7188C66.901 24.2188 66.6875 24.651 66.4219 25.0156C66.1562 25.3802 65.8281 25.6615 65.4375 25.8594C65.0521 26.0573 64.5964 26.1562 64.0703 26.1562C63.5547 26.1562 63.0885 26.0495 62.6719 25.8359C62.2604 25.6224 61.9062 25.3229 61.6094 24.9375C61.3177 24.5521 61.0938 24.099 60.9375 23.5781C60.7812 23.0521 60.7031 22.4818 60.7031 21.8672ZM62.5859 21.7031V21.8672C62.5859 22.2526 62.6224 22.612 62.6953 22.9453C62.7734 23.2786 62.8906 23.5729 63.0469 23.8281C63.2083 24.0781 63.4115 24.276 63.6562 24.4219C63.9062 24.5625 64.2005 24.6328 64.5391 24.6328C64.9818 24.6328 65.3438 24.5391 65.625 24.3516C65.9115 24.1641 66.1302 23.9115 66.2812 23.5938C66.4375 23.2708 66.5469 22.9115 66.6094 22.5156V21.1016C66.5781 20.7943 66.513 20.5078 66.4141 20.2422C66.3203 19.9766 66.1927 19.7448 66.0312 19.5469C65.8698 19.3438 65.6667 19.1875 65.4219 19.0781C65.1771 18.9635 64.888 18.9062 64.5547 18.9062C64.2161 18.9062 63.9219 18.9792 63.6719 19.125C63.4219 19.2708 63.2161 19.4714 63.0547 19.7266C62.8984 19.9818 62.7812 20.2786 62.7031 20.6172C62.625 20.9557 62.5859 21.3177 62.5859 21.7031ZM72.125 14V26H70.2344V14H72.125ZM77.9141 26.1562C77.2891 26.1562 76.724 26.0547 76.2188 25.8516C75.7188 25.6432 75.2917 25.3542 74.9375 24.9844C74.5885 24.6146 74.3203 24.1797 74.1328 23.6797C73.9453 23.1797 73.8516 22.6406 73.8516 22.0625V21.75C73.8516 21.0885 73.9479 20.4896 74.1406 19.9531C74.3333 19.4167 74.6016 18.9583 74.9453 18.5781C75.2891 18.1927 75.6953 17.8984 76.1641 17.6953C76.6328 17.4922 77.1406 17.3906 77.6875 17.3906C78.2917 17.3906 78.8203 17.4922 79.2734 17.6953C79.7266 17.8984 80.1016 18.1849 80.3984 18.5547C80.7005 18.9193 80.9245 19.3542 81.0703 19.8594C81.2214 20.3646 81.2969 20.9219 81.2969 21.5312V22.3359H74.7656V20.9844H79.4375V20.8359C79.4271 20.4974 79.3594 20.1797 79.2344 19.8828C79.1146 19.5859 78.9297 19.3464 78.6797 19.1641C78.4297 18.9818 78.0964 18.8906 77.6797 18.8906C77.3672 18.8906 77.0885 18.9583 76.8438 19.0938C76.6042 19.224 76.4036 19.4141 76.2422 19.6641C76.0807 19.9141 75.9557 20.2161 75.8672 20.5703C75.7839 20.9193 75.7422 21.3125 75.7422 21.75V22.0625C75.7422 22.4323 75.7917 22.776 75.8906 23.0938C75.9948 23.4062 76.1458 23.6797 76.3438 23.9141C76.5417 24.1484 76.7812 24.3333 77.0625 24.4688C77.3438 24.599 77.6641 24.6641 78.0234 24.6641C78.4766 24.6641 78.8802 24.5729 79.2344 24.3906C79.5885 24.2083 79.8958 23.9505 80.1562 23.6172L81.1484 24.5781C80.9661 24.8438 80.7292 25.099 80.4375 25.3438C80.1458 25.5833 79.7891 25.7786 79.3672 25.9297C78.9505 26.0807 78.4661 26.1562 77.9141 26.1562ZM91.2578 21.7578H88.2969V20.2031H91.2578C91.7734 20.2031 92.1901 20.1198 92.5078 19.9531C92.8255 19.7865 93.0573 19.5573 93.2031 19.2656C93.3542 18.9688 93.4297 18.6302 93.4297 18.25C93.4297 17.8906 93.3542 17.5547 93.2031 17.2422C93.0573 16.9245 92.8255 16.6693 92.5078 16.4766C92.1901 16.2839 91.7734 16.1875 91.2578 16.1875H88.8984V26H86.9375V14.625H91.2578C92.138 14.625 92.8854 14.7812 93.5 15.0938C94.1198 15.401 94.5911 15.8281 94.9141 16.375C95.237 16.9167 95.3984 17.5365 95.3984 18.2344C95.3984 18.9688 95.237 19.599 94.9141 20.125C94.5911 20.651 94.1198 21.0547 93.5 21.3359C92.8854 21.6172 92.138 21.7578 91.2578 21.7578ZM98.9844 14V26H97.0938V14H98.9844ZM105.812 24.3047V20.2734C105.812 19.9714 105.758 19.7109 105.648 19.4922C105.539 19.2734 105.372 19.1042 105.148 18.9844C104.93 18.8646 104.654 18.8047 104.32 18.8047C104.013 18.8047 103.747 18.8568 103.523 18.9609C103.299 19.0651 103.125 19.2057 103 19.3828C102.875 19.5599 102.812 19.7604 102.812 19.9844H100.938C100.938 19.651 101.018 19.3281 101.18 19.0156C101.341 18.7031 101.576 18.4245 101.883 18.1797C102.19 17.9349 102.557 17.7422 102.984 17.6016C103.411 17.4609 103.891 17.3906 104.422 17.3906C105.057 17.3906 105.62 17.4974 106.109 17.7109C106.604 17.9245 106.992 18.2474 107.273 18.6797C107.56 19.1068 107.703 19.6432 107.703 20.2891V24.0469C107.703 24.4323 107.729 24.7786 107.781 25.0859C107.839 25.388 107.919 25.651 108.023 25.875V26H106.094C106.005 25.7969 105.935 25.5391 105.883 25.2266C105.836 24.9089 105.812 24.6016 105.812 24.3047ZM106.086 20.8594L106.102 22.0234H104.75C104.401 22.0234 104.094 22.0573 103.828 22.125C103.562 22.1875 103.341 22.2812 103.164 22.4062C102.987 22.5312 102.854 22.6823 102.766 22.8594C102.677 23.0365 102.633 23.237 102.633 23.4609C102.633 23.6849 102.685 23.8906 102.789 24.0781C102.893 24.2604 103.044 24.4036 103.242 24.5078C103.445 24.612 103.69 24.6641 103.977 24.6641C104.362 24.6641 104.698 24.5859 104.984 24.4297C105.276 24.2682 105.505 24.0729 105.672 23.8438C105.839 23.6094 105.927 23.388 105.938 23.1797L106.547 24.0156C106.484 24.2292 106.378 24.4583 106.227 24.7031C106.076 24.9479 105.878 25.1823 105.633 25.4062C105.393 25.625 105.104 25.8047 104.766 25.9453C104.432 26.0859 104.047 26.1562 103.609 26.1562C103.057 26.1562 102.565 26.0469 102.133 25.8281C101.701 25.6042 101.362 25.3047 101.117 24.9297C100.872 24.5495 100.75 24.1198 100.75 23.6406C100.75 23.1927 100.833 22.7969 101 22.4531C101.172 22.1042 101.422 21.8125 101.75 21.5781C102.083 21.3438 102.49 21.1667 102.969 21.0469C103.448 20.9219 103.995 20.8594 104.609 20.8594H106.086ZM112 25.0781L114.297 17.5469H116.312L112.922 27.2891C112.844 27.4974 112.742 27.724 112.617 27.9688C112.492 28.2135 112.328 28.4453 112.125 28.6641C111.927 28.888 111.68 29.0677 111.383 29.2031C111.086 29.3438 110.727 29.4141 110.305 29.4141C110.138 29.4141 109.977 29.3984 109.82 29.3672C109.669 29.3411 109.526 29.3125 109.391 29.2812L109.383 27.8438C109.435 27.849 109.497 27.8542 109.57 27.8594C109.648 27.8646 109.711 27.8672 109.758 27.8672C110.07 27.8672 110.331 27.8281 110.539 27.75C110.747 27.6771 110.917 27.5573 111.047 27.3906C111.182 27.224 111.297 27 111.391 26.7188L112 25.0781ZM110.703 17.5469L112.711 23.875L113.047 25.8594L111.742 26.1953L108.672 17.5469H110.703Z" fill="#F3F3F3"/>
<g clip-path="url(#clip0_3658_36699)">
<mask id="mask0_3658_36699" style="mask-type:alpha" maskUnits="userSpaceOnUse" x="7" y="6" width="18" height="20">
<path d="M23.3276 14.7458C24.2931 15.3032 24.2931 16.6968 23.3276 17.2542L9.67241 25.1381C8.7069 25.6955 7.5 24.9987 7.5 23.8838L7.5 8.11618C7.5 7.0013 8.7069 6.3045 9.67242 6.86194L23.3276 14.7458Z" fill="black"/>
</mask>
<g mask="url(#mask0_3658_36699)">
<path d="M16.0871 12.6895L26.8458 24.586L2.94922 26.4481L16.0871 12.6895Z" fill="#FA3744"/>
<path d="M4.39844 3.58597L21.7777 20.8618L26.0191 18.4825L24.2605 2.1377L4.39844 3.58597Z" fill="#F5C80B"/>
<path d="M6.5695 26.2418L21.8798 11.0349L2.32812 1.62109L6.5695 26.2418Z" fill="#03D0FD"/>
<path d="M7.60304 6.58604L6.87891 -0.758789L22.2927 10.5171L16.9134 16.1033L7.60304 6.58604Z" fill="#0BE978"/>
</g>
</g>
<defs>
<clipPath id="clip0_3658_36699">
<rect width="24" height="24" fill="white" transform="translate(0 4)"/>
</clipPath>
</defs>
</svg>
