<svg width="14" height="11" viewBox="0 0 14 11" fill="none" xmlns="http://www.w3.org/2000/svg">
<path fill-rule="evenodd" clip-rule="evenodd" d="M6.43818 3C6.43818 3.99411 5.6323 4.8 4.63818 4.8C3.64407 4.8 2.83818 3.99411 2.83818 3C2.83818 2.00589 3.64407 1.2 4.63818 1.2C5.6323 1.2 6.43818 2.00589 6.43818 3ZM6.56907 5.29611C7.22279 4.74579 7.63818 3.92141 7.63818 3C7.63818 1.34315 6.29504 0 4.63818 0C2.98133 0 1.63818 1.34315 1.63818 3C1.63818 3.92141 2.05357 4.74579 2.7073 5.29611C1.47369 5.97735 0.638184 7.29113 0.638184 8.80005V9.60005V10.8H1.83818V9.60005V8.80005C1.83818 7.25365 3.09179 6.00005 4.63818 6.00005C6.18458 6.00005 7.43818 7.25365 7.43818 8.80005V9.60005V10.8H8.63818V9.60005V8.80005C8.63818 7.29113 7.80268 5.97735 6.56907 5.29611ZM9.63819 6.00005C9.36607 6.00005 9.10301 6.03887 8.85425 6.11127C8.62174 5.74746 8.3435 5.41583 8.02776 5.1245C8.18512 4.87388 8.31555 4.60448 8.41489 4.32044C8.73599 4.61806 9.16585 4.8 9.63819 4.8C10.6323 4.8 11.4382 3.99411 11.4382 3C11.4382 2.00589 10.6323 1.2 9.63819 1.2C9.16593 1.2 8.73614 1.38187 8.41506 1.6794C8.27829 1.28822 8.08247 0.924762 7.83827 0.599719C8.33965 0.223143 8.96286 0 9.63819 0C11.295 0 12.6382 1.34315 12.6382 3C12.6382 3.92141 12.2228 4.74579 11.5691 5.29611C12.8027 5.97735 13.6382 7.29113 13.6382 8.80005V9.60005V10.8H12.4382V9.60005V8.80005C12.4382 7.25365 11.1846 6.00005 9.63819 6.00005Z" fill="#737E8D" fill-opacity="0.6"/>
</svg>
