<svg class="icon" style="width: 1em;height: 1em;vertical-align: middle;fill: currentColor;overflow: hidden;" viewBox="0 0 1024 1024" version="1.1" xmlns="http://www.w3.org/2000/svg" p-id="2280">
  <path d="M512 512m-512 0a512 512 0 1 0 1024 0 512 512 0 1 0-1024 0ZM457.581714 240.201143m54.418286 0l0 0q54.418286 0 54.418286 54.418286l0 262.363428q0 54.418286-54.418286 54.418286l0 0q-54.418286 0-54.418286-54.418286l0-262.363428q0-54.418286 54.418286-54.418286ZM448 649.801143m64 0l0 0q64 0 64 64l0 0q0 64-64 64l0 0q-64 0-64-64l0 0q0-64 64-64Z" p-id="2281" data-spm-anchor-id="a313x.icontype_auditing.1998910419.i5.5fe93a81rJnl5R"></path>
</svg>
