<svg width="112" height="105" viewBox="0 0 112 105" fill="none" xmlns="http://www.w3.org/2000/svg">
<path d="M7.15338 90.8388V85.6914C7.15338 87.6611 8.73132 89.6635 12.0613 91.5461C23.6946 98.1626 52.3695 100.927 76.104 97.7382C93.0478 95.4638 102.896 90.7517 102.907 85.8438V90.9911C102.885 95.899 93.0478 100.6 76.0931 102.886C52.3587 106.074 23.6837 103.299 12.0504 96.6935C8.72043 94.7999 7.14249 92.7976 7.15338 90.8388Z" fill="#313638" stroke="black" stroke-width="0.35" stroke-linecap="round" stroke-linejoin="round"/>
<path d="M94.3428 77.7918C83.6999 71.7412 57.4843 69.2056 35.774 72.1329C14.0746 75.0494 5.10756 82.3188 15.7505 88.3694C26.3934 94.42 52.609 96.9556 74.3193 94.0282C96.0187 91.1118 104.986 83.8424 94.3428 77.7918Z" fill="#4C5154" stroke="black" stroke-width="0.35" stroke-linecap="round" stroke-linejoin="round"/>
<path d="M11.7132 80.0331L15.424 77.8457C9.98287 81.056 9.6564 84.9084 15.7396 88.3689C26.3826 94.4195 52.5982 96.9551 74.3085 94.0278C95.7685 91.1439 104.768 84.0051 94.6911 77.9981C95.9208 78.7381 97.1614 79.4672 98.3911 80.2072C109.415 86.7692 99.5664 94.5719 76.104 97.7278C52.3696 100.916 23.6946 98.1413 12.0614 91.5357C5.41228 87.7595 5.76052 83.5481 11.7132 80.0331Z" fill="#4C5154" stroke="black" stroke-width="0.35" stroke-linecap="round" stroke-linejoin="round"/>
<path d="M102.907 89.0098V88.4439C102.885 90.3701 101.351 92.2527 98.4781 93.9722C98.2387 94.1136 98.032 94.3204 97.8905 94.5598C97.5967 95.0713 97.3246 95.5283 97.0308 96.0289C96.8675 96.3119 96.6172 96.5404 96.3234 96.6819C91.6005 98.9128 84.4617 100.785 75.3205 101.96C75.0702 101.992 74.8199 101.916 74.6349 101.753L73.797 101.013C73.514 100.763 73.144 100.643 72.774 100.687C60.9993 101.971 48.2996 101.873 37.2105 100.621C36.9058 100.589 36.6011 100.687 36.3617 100.893L35.5455 101.622C35.3061 101.84 34.9796 101.938 34.664 101.895C26.1214 100.763 18.7105 98.9345 13.6828 96.5186C13.4325 96.3989 13.2367 96.2139 13.1061 95.9745C12.8122 95.4739 12.4749 94.8754 12.2355 94.4836C12.1702 94.3639 12.0614 94.1898 11.909 94.0483C11.7131 93.8742 11.4737 93.7436 11.4193 93.711C9.72166 92.6663 8.55725 91.5889 7.87166 90.5116C7.57784 90.0327 7.37107 89.5648 7.26225 89.086C7.19695 88.803 7.16431 88.5201 7.16431 88.248V91.5128C7.16431 91.7304 7.19695 91.9916 7.25137 92.2092C7.25137 92.2201 7.25137 92.2419 7.26225 92.2528C7.31666 92.4813 7.38195 92.7098 7.4799 92.9383C7.4799 92.9383 7.49078 92.9601 7.49078 92.971C7.58872 93.1995 7.70842 93.4389 7.8499 93.6675C7.8499 93.6783 7.87166 93.7001 7.88254 93.711C8.02401 93.9395 8.18725 94.168 8.38313 94.3966C8.41578 94.4292 8.44842 94.4619 8.48107 94.4945C8.66607 94.7013 8.85107 94.908 9.06872 95.1148C9.13401 95.1801 9.21019 95.2345 9.28637 95.2998C9.48225 95.4739 9.67813 95.6589 9.90666 95.833C10.0481 95.9419 10.2114 96.0507 10.3637 96.1595C10.5378 96.2901 10.7011 96.4207 10.897 96.5404C11.2561 96.7798 11.637 97.0083 12.0505 97.2477C17.1217 100.132 25.4358 102.275 35.1537 103.527C36.6664 103.723 38.2117 103.897 39.7896 104.038C39.8331 104.038 39.8767 104.038 39.9202 104.049C41.4437 104.191 42.989 104.31 44.5561 104.419C44.654 104.419 44.752 104.43 44.839 104.441C46.3734 104.539 47.9296 104.615 49.4967 104.67C49.5946 104.67 49.6817 104.67 49.7796 104.67C51.3902 104.724 53.0117 104.757 54.6331 104.757C54.6658 104.757 54.6984 104.757 54.7311 104.757C61.9025 104.778 69.2046 104.365 76.0822 103.44C85.1364 102.221 92.1664 100.317 96.7478 98.053C97.7272 97.5633 98.5978 97.0627 99.3487 96.5513C99.3705 96.5404 99.3814 96.5295 99.4031 96.5186C99.7514 96.2792 100.078 96.0289 100.383 95.7786C100.415 95.7569 100.448 95.7242 100.47 95.7025C100.753 95.463 101.014 95.2128 101.253 94.9733C101.286 94.9407 101.318 94.908 101.34 94.8754C101.569 94.636 101.765 94.3857 101.95 94.1463C101.971 94.1136 101.993 94.081 102.026 94.0375C102.2 93.7872 102.341 93.5369 102.461 93.2975C102.472 93.2648 102.494 93.2322 102.505 93.1995C102.624 92.9492 102.711 92.688 102.777 92.4269C102.777 92.4051 102.777 92.3833 102.788 92.3616C102.842 92.0895 102.885 91.8283 102.885 91.5563V90.6639V89.0098H102.907Z" fill="#1D2022" stroke="black" stroke-width="0.35" stroke-linecap="round" stroke-linejoin="round"/>
<path d="M0.678379 73.5578C-1.75927 68.269 21.0719 52.5222 51.6948 38.386C82.3069 24.2499 109.11 17.0784 111.548 22.3672" stroke="#969696" stroke-width="0.35" stroke-linecap="round" stroke-linejoin="round"/>
<path d="M17.1434 58.8883C18.0569 58.8883 18.7975 58.1477 18.7975 57.2342C18.7975 56.3206 18.0569 55.5801 17.1434 55.5801C16.2298 55.5801 15.4893 56.3206 15.4893 57.2342C15.4893 58.1477 16.2298 58.8883 17.1434 58.8883Z" fill="#25D27F"/>
<g opacity="0.66">
<path d="M41.8357 94.648L43.2722 93.1353C43.4789 92.9177 43.3374 92.5586 43.0436 92.5259C34.4248 91.6662 26.9377 89.9141 22.5957 87.4439C22.4433 87.3568 22.3019 87.2697 22.1604 87.1827C21.6054 86.8453 20.9524 86.7365 20.3104 86.8453L14.8257 87.8139" stroke="#313638" stroke-width="0.35" stroke-linecap="round" stroke-linejoin="round"/>
<path d="M92.1556 78.0862C91.655 77.8033 91.1 77.5204 90.5233 77.2483C90.4145 77.1939 90.2839 77.1721 90.1533 77.1939L87.128 77.5421C86.9648 77.5639 86.8451 77.7815 87.0192 77.8686C87.5198 78.0971 87.9877 78.3474 88.423 78.5868C92.3624 80.8286 93.1351 83.2554 91.2415 85.4971C91.0456 85.7365 91.1762 86.0957 91.4809 86.1392L94.1798 86.5092C94.3865 86.5418 94.5933 86.4657 94.7456 86.3242C97.488 83.6907 96.8459 80.7633 92.1448 78.0971L92.1556 78.0862Z" fill="#313638"/>
<path d="M38.0813 73.5913C37.7005 73.4172 36.5687 72.9166 36.5687 72.9166C36.4272 72.8513 36.2749 72.8405 36.1334 72.8513C21.9863 74.8537 13.781 78.8366 13.7593 82.9937C13.7593 83.3093 14.0096 83.5705 14.3252 83.5487L17.2743 83.3746C17.5355 83.3637 17.764 83.1569 17.7749 82.8957C17.9272 79.174 25.2946 75.6263 37.9507 73.8416C38.1357 73.8199 38.3425 73.7002 38.0813 73.5804V73.5913Z" fill="#313638"/>
<path d="M82.5359 79.5114C79.1079 77.5635 73.3511 76.1379 66.6694 75.3652L55.3191 81.2308L68.1167 90.3067C68.5847 90.6441 69.1723 90.7855 69.7491 90.6985C84.0485 88.5547 89.7835 83.6358 82.5467 79.5223L82.5359 79.5114Z" stroke="#313638" stroke-width="0.35" stroke-linecap="round" stroke-linejoin="round"/>
</g>
<path d="M33.2927 78.3128C34.6203 77.8667 35.1318 77.7143 36.0568 77.4531C34.6094 77.9864 32.988 78.4217 31.9868 79.6514C31.3012 80.4893 31.2142 81.5014 31.8562 82.3937C32.3568 83.0793 33.0859 83.5799 33.815 83.9934C39.5609 87.2581 53.7189 88.6293 65.45 87.0514C77.1703 85.4734 82.013 81.5449 76.2671 78.2802C76.2671 78.2802 78.7374 79.2161 79.5427 79.6078C81.5777 80.5655 82.47 81.8605 82.4156 83.014C82.2959 85.789 76.6806 88.4443 67.0824 89.7284C53.5012 91.5567 37.1015 89.9678 30.4415 86.1808C29.3642 85.5714 28.0909 84.7008 27.7318 83.4384C27.4271 82.3828 27.9603 81.3817 28.7439 80.707C29.658 79.9125 31.7039 78.8461 33.2818 78.3128H33.2927Z" fill="#1D2022" stroke="black" stroke-width="0.35" stroke-linecap="round" stroke-linejoin="round"/>
<path d="M78.5307 79.3141C84.8969 82.927 79.5319 87.2691 66.5601 89.0211C53.5883 90.7623 37.9177 89.2497 31.5516 85.6367C25.1854 82.0238 30.5504 77.6817 43.5221 75.9297C56.4939 74.1885 72.1645 75.7011 78.5307 79.3141Z" fill="#4C5154" stroke="black" stroke-width="0.35" stroke-linecap="round" stroke-linejoin="round"/>
<path opacity="0.4" d="M44.3928 52.1748C38.1246 54.9933 28.8311 64.1019 28.8311 76.0289C28.8311 77.3675 28.8528 82.5366 28.8746 82.5257C28.9181 83.5704 29.7778 84.6369 31.5516 85.6381C37.9178 89.251 53.5884 90.7636 66.5602 89.0225C75.8863 87.771 81.2731 85.1701 81.2078 82.4713C81.2078 82.4713 81.2078 82.4713 81.2078 82.4495V76.1051C81.2078 64.1889 72.1211 54.9933 65.8528 52.1748C64.2966 51.4783 61.1408 50.2051 61.1408 48.0069C61.1408 45.8086 64.1334 44.9816 65.6896 44.2851C71.9578 41.4666 80.5331 32.3581 80.5331 22.2592V17.2969H29.7234V22.2592C29.7234 32.3689 38.2987 41.4666 44.5669 44.2851C46.1231 44.9816 49.1158 45.8522 49.1158 48.0069C49.1158 50.1616 45.9599 51.4675 44.4037 52.1748H44.3928Z" fill="#121212"/>
<path d="M78.5307 79.3141C84.8969 82.927 79.5319 87.2691 66.5601 89.0211C53.5883 90.7623 37.9177 89.2497 31.5516 85.6367C25.1854 82.0238 30.5504 77.6817 43.5221 75.9297C56.4939 74.1885 72.1645 75.7011 78.5307 79.3141Z" fill="#25D27F"/>
<path d="M80.0324 80.5871C80.0324 80.5871 79.9562 80.5109 79.9127 80.4674L56.4394 84.5265L77.2138 78.8133C77.1377 78.7806 77.0724 78.748 76.9962 78.7153L56.2327 84.4286L72.9371 77.355C72.8391 77.3333 72.7412 77.3006 72.6324 77.2789L55.9497 84.3415L67.6047 76.2668C67.485 76.245 67.3544 76.2341 67.2347 76.2124L55.5906 84.2762L61.5759 75.5921C61.4453 75.5921 61.3147 75.5703 61.1841 75.5594L55.1988 84.2436V75.3418C55.0574 75.3418 54.9268 75.3418 54.7853 75.3418V84.2327L48.7891 75.5268C48.6585 75.5268 48.5171 75.5486 48.3865 75.5486L54.3827 84.2544L42.7059 76.158C42.5862 76.1797 42.4556 76.1906 42.3359 76.2124L54.0235 84.3089L37.2756 77.2244C37.1777 77.2462 37.0688 77.2789 36.9709 77.3006L53.7297 84.3959L32.9444 78.6827C32.8683 78.7153 32.7921 78.748 32.7268 78.7806L53.5338 84.5047L30.0933 80.4565C30.0933 80.4565 30.0171 80.5327 29.9844 80.5762L53.4359 84.6244L29.0703 82.4153C29.0703 82.4153 29.0703 82.4915 29.0703 82.535L53.4359 84.7441L30.0497 84.4068C30.0497 84.4068 30.1259 84.483 30.1694 84.5265L53.5338 84.8639L32.9335 86.2241C33.0097 86.2568 33.0968 86.2894 33.173 86.3221L53.7406 84.9618L37.3518 87.7042C37.4606 87.7259 37.5585 87.7586 37.6674 87.7912L54.0453 85.0489L42.7494 88.7815C42.8691 88.8033 42.9997 88.8142 43.1303 88.8359L54.4044 85.1033L48.6694 89.4236C48.8 89.4236 48.9306 89.4453 49.0612 89.4562L54.8071 85.125V89.6521C54.9485 89.6521 55.0791 89.6521 55.2206 89.6521V85.125L60.9883 89.478C61.1188 89.478 61.2603 89.4671 61.3909 89.4562L55.6124 85.1033L67.0171 88.8794C67.1477 88.8577 67.2674 88.8468 67.398 88.825L55.9715 85.038L72.5671 87.8239C72.6759 87.8021 72.7847 87.7694 72.8935 87.7477L56.2544 84.9618L77.0941 86.3439C77.1703 86.3112 77.2465 86.2786 77.3227 86.235L56.4612 84.853L80.0541 84.5156C80.0541 84.5156 80.1303 84.4394 80.163 84.3959L56.57 84.7333L81.0662 82.5133C81.0662 82.5133 81.0662 82.4371 81.0662 82.3936L56.5809 84.6136L80.065 80.5544L80.0324 80.5871Z" fill="#15A05A"/>
<path d="M70.0643 82.7649C74.1343 85.0719 70.7064 87.8469 62.414 88.9678C54.1217 90.0778 44.0991 89.1093 40.0399 86.8022C35.9699 84.4952 39.3979 81.7202 47.6902 80.5993C55.9826 79.4784 66.0052 80.4578 70.0643 82.7649Z" fill="#10A055"/>
<path d="M64.7318 83.6234C67.3545 85.1142 65.1454 86.9098 59.7913 87.6281C54.4371 88.3463 47.973 87.726 45.3504 86.2351C42.7277 84.7443 44.9368 82.9487 50.291 82.2304C55.6451 81.5122 62.1092 82.1325 64.7318 83.6234Z" fill="#25D27F"/>
<path d="M59.0623 40.1173C60.1832 41.2382 63.2193 40.0085 65.8529 37.3858C68.4864 34.7632 69.7052 31.7161 68.5843 30.5952L67.0282 29.0391L57.5061 38.5611L59.0623 40.1173Z" fill="#313638" stroke="black" stroke-width="0.35" stroke-linecap="round" stroke-linejoin="round"/>
<path d="M64.3071 35.8291C66.9377 33.1984 68.1608 30.1563 67.0388 29.0344C65.9169 27.9124 62.8748 29.1355 60.2442 31.7661C57.6135 34.3967 56.3905 37.4388 57.5124 38.5608C58.6344 39.6827 61.6765 38.4597 64.3071 35.8291Z" fill="#4C5154" stroke="black" stroke-width="0.35" stroke-linecap="round" stroke-linejoin="round"/>
<path d="M63.453 34.9731C64.9829 33.4432 65.6961 31.6758 65.0458 31.0256C64.3956 30.3754 62.6283 31.0885 61.0983 32.6185C59.5684 34.1484 58.8552 35.9158 59.5055 36.566C60.1557 37.2162 61.923 36.5031 63.453 34.9731Z" fill="#1D2022"/>
<path d="M56.0804 69.5749C55.3513 70.9787 57.4407 73.5034 60.749 75.212C64.0572 76.9205 67.3219 77.1599 68.051 75.7452L69.0631 73.7972L57.0925 67.627L56.0804 69.5749Z" fill="#313638" stroke="black" stroke-width="0.35" stroke-linecap="round" stroke-linejoin="round"/>
<path d="M69.0612 73.7895C69.7884 72.3793 67.6975 69.8538 64.391 68.1486C61.0845 66.4435 57.8145 66.2044 57.0873 67.6146C56.3601 69.0248 58.451 71.5503 61.7575 73.2554C65.064 74.9606 68.334 75.1997 69.0612 73.7895Z" fill="#4C5154" stroke="black" stroke-width="0.35" stroke-linecap="round" stroke-linejoin="round"/>
<path d="M67.0979 72.7758C67.5855 71.8303 66.1793 70.1349 63.9572 68.9889C61.7351 67.843 59.5384 67.6805 59.0508 68.6259C58.5632 69.5714 59.9694 71.2669 62.1915 72.4128C64.4137 73.5588 66.6103 73.7213 67.0979 72.7758Z" fill="#1D2022"/>
<path d="M39.7896 70.0217C40.5078 71.4364 43.7726 71.2188 47.0917 69.532C50.4108 67.8452 52.5111 65.3423 51.7928 63.9276L50.8026 61.9688L38.7993 68.0629L39.7896 70.0217Z" fill="#313638" stroke="black" stroke-width="0.35" stroke-linecap="round" stroke-linejoin="round"/>
<path d="M46.0974 67.5754C49.4146 65.8911 51.5213 63.3788 50.8029 61.964C50.0846 60.5493 46.8131 60.7678 43.496 62.4522C40.1788 64.1365 38.0721 66.6488 38.7905 68.0636C39.5088 69.4783 42.7803 69.2598 46.0974 67.5754Z" fill="#4C5154" stroke="black" stroke-width="0.35" stroke-linecap="round" stroke-linejoin="round"/>
<path d="M45.6293 66.6528C47.7514 65.5753 49.099 63.9676 48.6391 63.0619C48.1793 62.1563 46.0861 62.2956 43.964 63.3732C41.8419 64.4507 40.4944 66.0584 40.9542 66.964C41.4141 67.8697 43.5072 67.7304 45.6293 66.6528Z" fill="#1D2022"/>
<path d="M43.1085 32.5961C42.6188 33.6517 44.2403 35.4364 46.7214 36.579C49.2026 37.7217 51.6076 37.787 52.0973 36.7314L52.772 35.2622L43.7832 31.127L43.1085 32.5961Z" fill="#313638" stroke="black" stroke-width="0.35" stroke-linecap="round" stroke-linejoin="round"/>
<path d="M52.7751 35.2622C53.262 34.2028 51.6467 32.4203 49.1674 31.281C46.688 30.1416 44.2834 30.0769 43.7966 31.1364C43.3097 32.1958 44.925 33.9783 47.4043 35.1176C49.8837 36.257 52.2883 36.3217 52.7751 35.2622Z" fill="#4C5154" stroke="black" stroke-width="0.35" stroke-linecap="round" stroke-linejoin="round"/>
<path d="M51.0447 34.4682C51.3434 33.8183 50.3503 32.7239 48.8266 32.0237C47.303 31.3236 45.8257 31.2828 45.5271 31.9327C45.2284 32.5825 46.2215 33.677 47.7452 34.3771C49.2688 35.0773 50.7461 35.1181 51.0447 34.4682Z" fill="#1D2022"/>
<path d="M44.3928 52.1748C38.1246 54.9933 28.8311 64.1019 28.8311 76.0289C28.8311 77.3675 28.8528 82.5366 28.8746 82.5257C28.9181 83.5704 29.7778 84.6369 31.5516 85.6381C37.9178 89.251 53.5884 90.7636 66.5602 89.0225C75.8863 87.771 81.2731 85.1701 81.2078 82.4713C81.2078 82.4713 81.2078 82.4713 81.2078 82.4495V76.1051C81.2078 64.1889 72.1211 54.9933 65.8528 52.1748C64.2966 51.4783 61.1408 50.2051 61.1408 48.0069C61.1408 45.8086 64.1334 44.9816 65.6896 44.2851C71.9578 41.4666 80.5331 32.3581 80.5331 22.2592V17.2969H29.7234V22.2592C29.7234 32.3689 38.2987 41.4666 44.5669 44.2851C46.1231 44.9816 49.1158 45.8522 49.1158 48.0069C49.1158 50.1616 45.9599 51.4675 44.4037 52.1748H44.3928Z" fill="url(#paint0_linear_3824_16817)" stroke="#25D27F" stroke-width="0.35" stroke-linecap="round" stroke-linejoin="round"/>
<path opacity="0.4" d="M65.7332 52.1748C64.177 51.4783 61.0211 50.2051 61.0211 48.0069C61.0211 45.8086 64.0138 44.9816 65.5699 44.2851C71.8382 41.4666 80.4135 32.3581 80.4135 22.2592V17.2969H75.7232V18.6572C75.7232 20.3657 75.6143 21.9981 75.4185 23.5542C75.1899 25.2845 74.8526 26.9278 74.4064 28.4731C73.8188 30.5298 73.0352 32.4233 72.1102 34.1754C70.097 37.9516 67.3764 41.0313 64.2641 43.4689C63.1323 44.3504 60.8035 45.6889 60.8035 48.1592C60.8035 50.6295 63.3391 52.0007 64.4382 52.9257C69.4005 57.0936 74.6132 64.3413 75.9408 75.0604C76.1476 76.7363 76.2564 78.4883 76.2564 80.3275V86.6283C78.9661 85.5945 80.5223 84.3975 80.9902 83.1242C80.9902 83.0807 81.0991 82.9066 81.0991 82.4278V76.0833C81.0991 64.1672 72.0123 54.9716 65.7441 52.153L65.7332 52.1748Z" fill="#25D27F"/>
<g opacity="0.6">
<path d="M41.6398 31.4206C41.1283 29.6903 40.7148 27.8403 40.421 25.8488C38.8648 25.6529 37.3848 25.4135 35.981 25.1523C36.1986 27.1003 36.6339 28.9829 37.1998 30.7676C38.6145 31.0179 40.0945 31.2356 41.6507 31.4206H41.6398Z" fill="#25D27F"/>
<path d="M46.1343 52.1739C41.727 54.9924 35.1758 64.1009 35.1758 76.028V87.0409C36.3837 87.4109 37.9073 87.8789 39.4199 88.1401V80.2395C39.4199 66.593 44.034 57.2451 47.8537 52.9248C48.6481 52.0324 50.4111 50.6721 50.4111 48.1583C50.4111 45.6445 48.7678 44.3277 47.9952 43.4027C45.7425 40.7148 43.7184 37.3848 42.2602 33.2821C40.7367 33.1189 39.2675 32.9121 37.8746 32.6836C40.0184 38.1792 43.4573 42.4886 46.254 44.2842C47.3531 44.9807 49.4643 45.8512 49.4643 48.0059C49.4643 50.1607 47.2443 51.4665 46.1452 52.1739H46.1343Z" fill="#25D27F"/>
</g>
<path d="M35.7853 2.06055H32.1941V4.78114H35.7853V2.06055Z" fill="#4C5154" stroke="black" stroke-width="0.35" stroke-linecap="round" stroke-linejoin="round"/>
<path d="M78.2267 2.07227V5.36962L74.1023 3.51962L78.2267 2.07227Z" fill="#313638" stroke="black" stroke-width="0.35" stroke-linecap="round" stroke-linejoin="round"/>
<path d="M75.97 15.2301C75.9761 12.0448 66.6752 9.44464 55.1958 9.4226C43.7165 9.40056 34.4056 11.965 34.3995 15.1503C34.3934 18.3357 43.6943 20.9358 55.1737 20.9579C66.6531 20.9799 75.9639 18.4155 75.97 15.2301Z" fill="#25D27F" stroke="black" stroke-width="0.35" stroke-linecap="round" stroke-linejoin="round"/>
<path d="M55.2103 7.91602C50.4112 7.91602 21.1812 11.3222 21.1812 11.3222V17.2748C21.1812 17.3401 21.1812 17.3837 21.2356 17.4381C21.5947 17.8516 22.0626 18.2543 22.6176 18.6569C22.9332 18.8854 23.7059 19.0269 24.5764 19.0269C24.7723 19.0269 24.9791 19.0269 25.175 19.0051L28.9076 18.7004C33.0647 21.0619 41.1829 22.7813 50.8464 23.1948L50.9553 24.2831C50.9879 24.5878 51.8367 24.8381 52.925 24.849C53.7956 24.8598 54.5247 24.8707 55.2103 24.8707C55.8959 24.8707 56.625 24.8707 57.4956 24.849C58.5838 24.8272 59.4326 24.5878 59.4653 24.2831L59.5741 23.1948C69.2376 22.7922 77.3559 21.0728 81.5129 18.7004L85.2456 19.0051C85.4414 19.016 85.6373 19.0269 85.8441 19.0269C86.7147 19.0269 87.4873 18.8745 87.8029 18.6569C88.3579 18.2543 88.8259 17.8516 89.185 17.4381C89.2285 17.3945 89.2503 17.3401 89.2503 17.2966V11.3222C89.2503 11.3222 60.0203 7.91602 55.2103 7.91602Z" fill="#4C5154" stroke="black" stroke-width="0.35" stroke-linecap="round" stroke-linejoin="round"/>
<path d="M58.8018 24.6844C59.1935 24.5756 59.4438 24.4341 59.4656 24.2709L59.5744 23.1826C69.2379 22.78 77.3562 21.0606 81.5132 18.6882H81.5241V11.582L58.8018 13.9109" fill="#313638"/>
<path d="M58.8018 24.6844C59.1935 24.5756 59.4438 24.4341 59.4656 24.2709L59.5744 23.1826C69.2379 22.78 77.3562 21.0606 81.5132 18.6882H81.5241V11.582L58.8018 13.9109" stroke="black" stroke-width="0.35" stroke-linecap="round" stroke-linejoin="round"/>
<path d="M87.2151 18.8738C87.4654 18.8085 87.6721 18.7432 87.8027 18.6453C88.3577 18.2426 88.8257 17.84 89.1848 17.4264C89.2283 17.3829 89.2501 17.3285 89.2501 17.285V11.3105L87.2151 11.3867" fill="#313638"/>
<path d="M87.2151 18.8738C87.4654 18.8085 87.6721 18.7432 87.8027 18.6453C88.3577 18.2426 88.8257 17.84 89.1848 17.4264C89.2283 17.3829 89.2501 17.3285 89.2501 17.285V11.3105L87.2151 11.3867" stroke="black" stroke-width="0.35" stroke-linecap="round" stroke-linejoin="round"/>
<path d="M50.8467 23.1829V16.3379" stroke="black" stroke-width="0.35" stroke-linecap="round" stroke-linejoin="round"/>
<path d="M59.6067 23.1606V16.3047" stroke="black" stroke-width="0.35" stroke-linecap="round" stroke-linejoin="round"/>
<path d="M23.9346 18.994C24.1413 19.0158 24.359 19.0267 24.5875 19.0267C24.7834 19.0267 24.9902 19.0267 25.186 19.0049L28.8425 18.7002V12.0076L23.9346 11.5723" fill="#313638"/>
<path d="M23.9346 18.994C24.1413 19.0158 24.359 19.0267 24.5875 19.0267C24.7834 19.0267 24.9902 19.0267 25.186 19.0049L28.8425 18.7002V12.0076L23.9346 11.5723" stroke="black" stroke-width="0.35" stroke-linecap="round" stroke-linejoin="round"/>
<path d="M87.8464 10.7665L84.1355 10.3965C84.364 9.98298 84.4837 9.55857 84.4837 9.13415C84.4837 6.83798 81.0993 4.77033 75.6472 3.29033L77.8564 2.3871C78.4767 2.1368 78.3025 1.79945 77.4537 1.60357C76.3002 1.34239 75.0487 1.08121 73.7102 0.852684C73.3728 0.798272 72.992 0.765625 72.5893 0.765625C71.9255 0.765625 71.327 0.852684 70.9243 0.994154L68.5302 1.86474C64.5364 1.29886 60.0093 0.97239 55.2102 0.97239C50.4111 0.97239 45.884 1.29886 41.8902 1.86474L39.4961 0.994154C39.0934 0.852684 38.484 0.765625 37.8311 0.765625C37.4393 0.765625 37.0475 0.798272 36.7102 0.852684C35.3825 1.08121 34.1202 1.33151 32.9667 1.60357C32.1178 1.79945 31.9437 2.1368 32.564 2.3871L34.7731 3.29033C29.3211 4.77033 25.9367 6.84886 25.9367 9.13415C25.9367 9.55857 26.0564 9.98298 26.2849 10.3965L22.574 10.7665C21.5511 10.8644 20.9743 11.1692 21.2355 11.463C21.5946 11.8765 22.0625 12.2792 22.6175 12.6818C22.9331 12.9103 23.7058 13.0518 24.5764 13.0518C24.7722 13.0518 24.979 13.0518 25.1749 13.03L28.9075 12.7253C33.0537 15.0868 41.1828 16.8062 50.8464 17.2197L50.9552 18.308C50.9878 18.6127 51.8367 18.863 52.9249 18.8739C53.7955 18.8847 54.5246 18.8956 55.2102 18.8956C55.8958 18.8956 56.6249 18.8956 57.4955 18.8739C58.5837 18.8521 59.4325 18.6127 59.4652 18.308L59.574 17.2197C69.2375 16.8171 77.3558 15.0977 81.5128 12.7253L85.2455 13.03C85.4414 13.0409 85.6372 13.0518 85.844 13.0518C86.7146 13.0518 87.4872 12.8994 87.8028 12.6818C88.3578 12.2792 88.8258 11.8765 89.1849 11.463C89.2284 11.4194 89.2502 11.365 89.2502 11.3215C89.2502 11.0712 88.6843 10.8536 87.8572 10.7665H87.8464Z" fill="#4C5154" stroke="black" stroke-width="0.35" stroke-linecap="round" stroke-linejoin="round"/>
<path d="M77.9729 9.18367C77.9796 5.68576 67.7827 2.83056 55.1974 2.8064C42.6122 2.78224 32.4044 5.59826 32.3977 9.09617C32.3909 12.5941 42.5879 15.4493 55.1731 15.4734C67.7583 15.4976 77.9662 12.6816 77.9729 9.18367Z" fill="#1D2022"/>
<path d="M75.6476 9.41694C70.1085 6.27194 56.4512 4.94429 45.1444 6.46782C38.8435 7.31664 34.5994 8.87282 33.0432 10.6249C33.4241 11.0602 33.9791 11.4846 34.7082 11.8981C40.2473 15.0431 53.9047 16.3708 65.2115 14.8472C71.5123 13.9984 75.7564 12.4422 77.3126 10.6902C76.9317 10.2549 76.3767 9.83047 75.6476 9.41694Z" fill="#4C5154" stroke="black" stroke-width="0.35" stroke-linecap="round" stroke-linejoin="round"/>
<path d="M68.7374 10.5379C65.07 8.44844 56.0268 7.57786 48.5397 8.58991C41.0527 9.59109 37.9621 12.1049 41.6295 14.1834C41.6621 14.2052 41.7056 14.2161 41.7383 14.2379C48.3547 15.5873 57.3545 15.9137 65.2224 14.8581C66.4303 14.6949 67.5621 14.5099 68.6068 14.2923C70.6962 13.1605 70.903 11.7784 68.7374 10.5379Z" fill="#25D27F"/>
<path d="M66.7568 5.2832C70.4677 5.89261 73.6127 6.80673 75.6477 7.97114C76.6271 8.52614 77.3345 9.10291 77.7589 9.91909" stroke="#4C5154" stroke-width="0.35" stroke-linecap="round" stroke-linejoin="round"/>
<path d="M32.575 9.91865C32.7273 9.49424 33.1844 8.99365 33.5108 8.7216C35.35 7.15454 39.3873 5.79424 45.1441 5.0216C50.7267 4.27071 56.8861 4.2163 62.3491 4.72777V3.19336" stroke="#4C5154" stroke-width="0.35" stroke-linecap="round" stroke-linejoin="round"/>
<path d="M64.5256 5.34798C64.724 5.34798 64.8847 5.17258 64.8847 4.95622C64.8847 4.73985 64.724 4.56445 64.5256 4.56445C64.3273 4.56445 64.1665 4.73985 64.1665 4.95622C64.1665 5.17258 64.3273 5.34798 64.5256 5.34798Z" fill="#4C5154"/>
<path d="M111.548 22.3555C113.986 27.6443 91.1543 43.3911 60.5314 57.5272C29.9085 71.6634 3.127 78.8458 0.678467 73.5569" stroke="#969696" stroke-width="0.35" stroke-linecap="round" stroke-linejoin="round"/>
<path d="M100.383 37.5918C101.807 37.5918 102.962 36.4371 102.962 35.0127C102.962 33.5883 101.807 32.4336 100.383 32.4336C98.9582 32.4336 97.8035 33.5883 97.8035 35.0127C97.8035 36.4371 98.9582 37.5918 100.383 37.5918Z" fill="#25D27F"/>
<path d="M77.9721 9.18367C77.9789 5.68576 67.7819 2.83056 55.1967 2.8064C42.6114 2.78224 32.4036 5.59826 32.3969 9.09617C32.3902 12.5941 42.5871 15.4493 55.1724 15.4734C67.7576 15.4976 77.9654 12.6816 77.9721 9.18367Z" stroke="black" stroke-width="0.35" stroke-linecap="round" stroke-linejoin="round"/>
<defs>
<linearGradient id="paint0_linear_3824_16817" x1="28.8419" y1="53.5242" x2="81.2187" y2="53.5242" gradientUnits="userSpaceOnUse">
<stop stop-color="#25D27F" stop-opacity="0.4"/>
<stop offset="0.37" stop-color="#25D27F" stop-opacity="0.2"/>
<stop offset="1" stop-color="#25D27F" stop-opacity="0.7"/>
</linearGradient>
</defs>
</svg>
