<svg width="97" height="92" viewBox="0 0 97 92" fill="none" xmlns="http://www.w3.org/2000/svg">
<rect width="96.9174" height="91.8165" rx="3.40061" fill="white"/>
<path d="M20.1996 73.9472L20.1316 74.2464L19.9276 74.3281L19.982 74.3417C19.8188 74.4595 19.6419 74.5321 19.4515 74.5593L19.3155 74.5457C19.2157 74.6182 19.116 74.6545 19.0162 74.6545C18.9709 74.6545 18.9391 74.65 18.921 74.6409C18.9029 74.6409 18.8802 74.6454 18.853 74.6545C18.8167 74.6545 18.7895 74.6545 18.7714 74.6545C18.7623 74.6545 18.7487 74.6545 18.7306 74.6545C18.7124 74.6454 18.6988 74.6409 18.6898 74.6409L18.5537 74.6001H18.3633L18.1321 74.5049L17.996 74.5865L17.8872 74.5321L17.6696 74.5729C17.6152 74.5185 17.588 74.4686 17.588 74.4233C17.5517 74.4323 17.5018 74.4369 17.4383 74.4369C17.3295 74.4369 17.2388 74.4051 17.1663 74.3417H17.1119C17.0575 74.3417 17.003 74.3281 16.9486 74.3008L16.8806 74.3281L16.8398 74.3417C16.7491 74.2782 16.5904 74.1966 16.3637 74.0968C16.2368 74.0968 16.0871 74.0605 15.9149 73.988H15.6292L15.5884 73.8928L15.2347 73.92C15.1168 73.8565 15.0579 73.8202 15.0579 73.8112V73.784L15.0171 73.8656L14.8539 73.92L14.8267 73.9064C14.736 73.9971 14.6136 74.0515 14.4594 74.0696H14.4322L14.337 74.192H14.2418C14.142 74.192 14.0513 74.2056 13.9697 74.2328L13.9561 74.3417L13.6296 74.3553C13.548 74.4369 13.4619 74.4777 13.3712 74.4777C13.3168 74.4777 13.2624 74.4641 13.208 74.4369L13.0583 74.4913L12.6911 74.4777L12.1198 74.26L11.9293 74.0832L11.8477 73.8384C11.8387 73.784 11.8341 73.7205 11.8341 73.6479C11.8341 73.6298 11.8341 73.6117 11.8341 73.5935C11.8432 73.5663 11.8477 73.5482 11.8477 73.5391L11.8885 73.2535L11.8069 73.131C12.1152 72.8499 12.3147 72.7048 12.4054 72.6958L12.5959 72.5597L12.7591 72.5869L12.8407 72.5325C13.0765 72.4963 13.208 72.4781 13.2352 72.4781C13.217 72.4781 13.2397 72.4827 13.3032 72.4917C13.4392 72.4645 13.5571 72.4509 13.6568 72.4509C13.7747 72.4509 13.8518 72.46 13.8881 72.4781L14.2145 72.6005L14.5682 72.655L15.0035 72.8318C15.0851 72.7864 15.1803 72.7592 15.2891 72.7502L15.2755 72.7094C15.4478 72.6187 15.5839 72.5643 15.6836 72.5461H15.7244L15.806 72.3693L16.1461 72.1925L16.3637 72.0973C16.3819 71.9975 16.4272 71.925 16.4998 71.8796L16.5134 71.7708C16.6403 71.7345 16.7174 71.7164 16.7446 71.7164C16.7809 71.7164 16.8035 71.7209 16.8126 71.73L16.9622 71.5668V71.4579L17.0711 71.5123L17.1255 71.1859L17.4247 71.1451C17.4701 71.0363 17.5607 70.9592 17.6968 70.9138L17.86 70.805L17.9144 70.6418C17.9235 70.5964 17.9371 70.5511 17.9552 70.5058C17.9824 70.4604 17.996 70.4332 17.996 70.4242V70.4105C17.996 70.3017 18.0232 70.2246 18.0776 70.1793L18.0368 69.9481L18.1457 69.812V69.608L17.9416 69.2951C17.8781 69.1501 17.6605 69.0095 17.2887 68.8735L17.1799 68.8871L16.935 68.7238H16.6902L16.6222 68.6286L16.5406 68.6422L16.2821 68.5742L16.1733 68.6014L16.0101 68.5606L15.6972 68.6014L15.6428 68.5606L15.534 68.6286L15.4116 68.5606C15.3027 68.5697 15.2075 68.5742 15.1259 68.5742C15.0352 68.6286 14.94 68.6558 14.8403 68.6558L14.6226 68.7783L14.3234 68.8327L14.2826 68.8871L14.1329 68.9551L14.0785 68.9279C14.0604 68.946 14.0196 68.9959 13.9561 69.0775H13.9017V69.1727L13.7113 69.1999V69.3632L13.3848 69.4584C13.3485 69.4856 13.3077 69.5219 13.2624 69.5672C13.2624 69.6307 13.208 69.7032 13.0991 69.7848L12.5687 69.8392L12.3238 69.608L12.1878 69.2679V69.1455C12.1878 68.9732 12.2558 68.8372 12.3918 68.7374C12.4462 68.5833 12.555 68.4835 12.7183 68.4382L12.7455 68.3566H12.9223L12.9359 68.3158L13.6432 67.9893L13.7385 68.0029L13.8065 67.9621V67.9349C14.0241 67.817 14.2554 67.7581 14.5002 67.7581C14.5183 67.7581 14.5455 67.7581 14.5818 67.7581C14.6181 67.7671 14.6453 67.7717 14.6634 67.7717C14.872 67.6447 15.0851 67.5812 15.3027 67.5812H15.4252L15.8332 67.622L16.2005 67.5948L16.5814 67.6765C16.6448 67.6855 16.7491 67.7082 16.8942 67.7445L16.9758 67.7717H16.9486L17.1255 67.8669C17.2706 67.885 17.3975 67.9168 17.5063 67.9621C17.5245 67.9893 17.5607 68.0301 17.6152 68.0845L17.724 68.0709L17.9008 68.2614L18.2681 68.3974L18.7986 68.9415L18.8802 69.2135L19.0978 69.2951L19.0298 69.4992C19.0479 69.608 19.057 69.6851 19.057 69.7304C19.057 69.7486 19.057 69.7712 19.057 69.7984C19.0479 69.8347 19.0434 69.8574 19.0434 69.8665L19.125 70.0841L19.0298 70.2609L19.057 70.4105C19.0479 70.5194 19.0117 70.6191 18.9482 70.7098C18.8938 70.8005 18.8348 70.8866 18.7714 70.9682L18.6217 71.2131C18.5311 71.3582 18.4177 71.4625 18.2817 71.5259L18.1457 71.8252L18.0096 71.866L17.9688 71.934C17.8963 72.0519 17.7512 72.1426 17.5335 72.2061C17.4066 72.3058 17.3386 72.392 17.3295 72.4645L17.0847 72.6277C17.0665 72.6096 17.0393 72.6005 17.003 72.6005C16.9849 72.6005 16.9577 72.6051 16.9214 72.6141C16.8852 72.6232 16.8534 72.6277 16.8262 72.6277C16.8171 72.6277 16.8081 72.6232 16.799 72.6141C16.7809 72.6141 16.7673 72.6141 16.7582 72.6141L16.4453 72.859L16.5134 72.8998C16.5043 72.9179 16.4091 72.9769 16.2277 73.0766C16.1008 73.131 15.9965 73.1718 15.9149 73.1991L16.4045 73.2399L16.663 73.3623H16.9214L16.9758 73.4439L17.2343 73.4575C17.2524 73.53 17.2978 73.5663 17.3703 73.5663C17.3975 73.5663 17.4383 73.5572 17.4927 73.5391C17.5109 73.5663 17.5199 73.6071 17.5199 73.6615L17.5063 73.6751C17.5063 73.6661 17.5562 73.6887 17.656 73.7431L17.86 73.6207L17.9824 73.6887L18.2681 73.7023L18.5401 73.6615L18.717 73.7568L19.057 73.8248L19.2611 73.7431H19.4515C19.5422 73.6978 19.6465 73.6751 19.7643 73.6751C19.8822 73.6751 19.982 73.6933 20.0636 73.7295L20.1996 73.9472ZM14.2826 73.3623L14.0921 73.2807L13.6704 73.1854L13.4528 73.2263H13.0583L12.7999 73.2943L12.5959 73.4983L12.7047 73.6207L12.6775 73.7295L12.9223 73.7976L13.3032 73.7568L13.7113 73.6887L14.0105 73.5527L14.2826 73.3623ZM27.3283 71.2947L27.2058 71.4171L27.3147 71.5532L27.029 71.8524L26.8658 72.2605L26.6073 72.4781L26.5257 72.6413L26.3897 72.7502L26.2673 72.927L26.1312 72.9678V73.0902L25.8456 73.1854L25.6824 73.3623L25.4647 73.4575L25.3423 73.6343H25.1927C25.102 73.6615 25.0113 73.6842 24.9206 73.7023L24.703 73.9064L24.2677 74.056L23.9685 74.2328L23.7236 74.2736L23.5468 74.3689L23.1251 74.4233L22.9755 74.5729L22.5402 74.5049L22.4314 74.5457L22.2001 74.5049L22.0641 74.5321L21.8465 74.4369H21.7105C21.5926 74.4369 21.4656 74.3643 21.3296 74.2192C21.1664 74.1467 21.0575 74.0605 21.0031 73.9608L20.9487 73.8792L20.7855 73.7295L20.5951 73.2807L20.6223 73.1854L20.5406 73.0902L20.6223 72.7638C20.5951 72.6912 20.5814 72.6232 20.5814 72.5597C20.5814 72.46 20.6132 72.3784 20.6767 72.3149V72.2333C20.6767 72.1335 20.6721 72.0519 20.6631 71.9884L20.8535 71.594L20.9079 71.2675L21.0439 71.0907L21.1255 70.7778L21.2344 70.533C21.2616 70.3516 21.3477 70.1702 21.4928 69.9889L21.6016 69.8801L21.5744 69.8256L21.7105 69.608L21.7241 69.3088L21.9825 69.2271L22.0913 69.0639C22.2001 69.0458 22.2545 68.9687 22.2545 68.8327L22.6082 68.479L22.6762 68.5062L22.7442 68.2614H22.9619L22.9891 68.1389H23.0707V67.9893H23.2067C23.3881 67.9893 23.4878 67.944 23.506 67.8533L24.0501 67.7037L24.3629 67.5812H24.4853L24.771 67.5268L24.8526 67.5676C24.9433 67.5314 25.0113 67.5132 25.0567 67.5132H25.1111C25.3015 67.5676 25.4466 67.6991 25.5463 67.9077L25.7232 68.0165L25.9136 68.1797L26.1448 68.2478L26.3761 68.6422L26.5937 68.7783L26.6889 68.9959C26.698 69.0231 26.7343 69.0503 26.7978 69.0775C26.9429 69.1954 27.0154 69.3722 27.0154 69.608L27.2058 69.812L27.1514 69.9209L27.1922 69.9617C27.2648 70.4967 27.3011 70.8232 27.3011 70.941C27.3011 71.0227 27.2784 71.0997 27.233 71.1723L27.3283 71.2947ZM26.3897 70.669L26.3489 70.5466L26.3625 70.3561L26.2265 70.1113L26.2537 69.9209L26.1721 69.8256L26.1448 69.6352L26.0632 69.4584C25.8728 69.3586 25.7458 69.2181 25.6824 69.0367L25.6008 68.9959L25.4511 68.8871L25.1519 68.8735L24.9342 68.6014L24.8934 68.5606C24.7846 68.5788 24.703 68.5878 24.6486 68.5878H24.567L24.4445 68.6694L24.2541 68.7102L24.1725 68.8191L23.8052 69.0095L23.5604 69.1047L23.3427 69.2679L23.0571 69.5672L22.8667 69.6896L22.7306 69.9617L22.4314 70.2473L22.4586 70.4242L22.2001 70.6418L22.2137 70.8322L22.0097 70.9682C21.9734 71.2675 21.8827 71.4534 21.7377 71.5259C21.7558 71.5622 21.7649 71.5849 21.7649 71.594C21.7649 71.6393 21.7377 71.6846 21.6832 71.73L21.6968 71.8388L21.6288 71.9884L21.656 72.2333L21.5064 72.3285L21.656 72.4237L21.5472 72.5869L21.6424 72.7502L21.5336 72.8998L21.5472 72.9542L21.5064 73.1038C21.6062 73.2399 21.6606 73.3351 21.6696 73.3895C21.7422 73.5164 21.8147 73.5935 21.8873 73.6207L22.0505 73.5935C22.0324 73.5935 22.055 73.589 22.1185 73.5799C22.2001 73.5799 22.2863 73.6162 22.377 73.6887C22.5311 73.6615 22.6173 73.6479 22.6354 73.6479H22.6218L22.6898 73.6615L22.7442 73.6207L23.1251 73.6071L23.3019 73.5663L23.4924 73.4167L23.6012 73.4303L23.7372 73.2263L23.9549 73.2671L24.0637 73.1582L24.2133 73.1991C24.2586 73.1537 24.3131 73.1129 24.3765 73.0766C24.4763 73.0585 24.5624 73.0268 24.635 72.9814C24.6622 72.9361 24.703 72.8907 24.7574 72.8454V72.7094C25.0022 72.7094 25.1473 72.6595 25.1927 72.5597L25.5327 72.3557C25.5781 72.2741 25.6506 72.2061 25.7504 72.1517C25.8501 72.0973 25.9 72.0202 25.9 71.9204C25.9 71.866 25.8955 71.8252 25.8864 71.798L26.1176 71.7028C26.1448 71.6574 26.1766 71.6076 26.2129 71.5532C26.2038 71.535 26.1993 71.5078 26.1993 71.4715C26.1993 71.3899 26.2537 71.263 26.3625 71.0907L26.3217 70.941L26.3897 70.669ZM36.0736 73.9472L36.0056 74.2464L35.8015 74.3281L35.8559 74.3417C35.6927 74.4595 35.5159 74.5321 35.3254 74.5593L35.1894 74.5457C35.0897 74.6182 34.9899 74.6545 34.8902 74.6545C34.8448 74.6545 34.8131 74.65 34.7949 74.6409C34.7768 74.6409 34.7541 74.6454 34.7269 74.6545C34.6907 74.6545 34.6635 74.6545 34.6453 74.6545C34.6362 74.6545 34.6226 74.6545 34.6045 74.6545C34.5864 74.6454 34.5728 74.6409 34.5637 74.6409L34.4277 74.6001H34.2372L34.006 74.5049L33.87 74.5865L33.7612 74.5321L33.5435 74.5729C33.4891 74.5185 33.4619 74.4686 33.4619 74.4233C33.4256 74.4323 33.3758 74.4369 33.3123 74.4369C33.2035 74.4369 33.1128 74.4051 33.0402 74.3417H32.9858C32.9314 74.3417 32.877 74.3281 32.8226 74.3008L32.7546 74.3281L32.7138 74.3417C32.6231 74.2782 32.4644 74.1966 32.2377 74.0968C32.1107 74.0968 31.9611 74.0605 31.7888 73.988H31.5031L31.4623 73.8928L31.1087 73.92C30.9908 73.8565 30.9318 73.8202 30.9318 73.8112V73.784L30.891 73.8656L30.7278 73.92L30.7006 73.9064C30.6099 73.9971 30.4875 74.0515 30.3333 74.0696H30.3061L30.2109 74.192H30.1157C30.0159 74.192 29.9253 74.2056 29.8437 74.2328L29.83 74.3417L29.5036 74.3553C29.422 74.4369 29.3358 74.4777 29.2451 74.4777C29.1907 74.4777 29.1363 74.4641 29.0819 74.4369L28.9323 74.4913L28.565 74.4777L27.9937 74.26L27.8033 74.0832L27.7217 73.8384C27.7126 73.784 27.7081 73.7205 27.7081 73.6479C27.7081 73.6298 27.7081 73.6117 27.7081 73.5935C27.7171 73.5663 27.7217 73.5482 27.7217 73.5391L27.7625 73.2535L27.6809 73.131C27.9892 72.8499 28.1887 72.7048 28.2794 72.6958L28.4698 72.5597L28.633 72.5869L28.7146 72.5325C28.9504 72.4963 29.0819 72.4781 29.1091 72.4781C29.091 72.4781 29.1137 72.4827 29.1771 72.4917C29.3132 72.4645 29.431 72.4509 29.5308 72.4509C29.6487 72.4509 29.7258 72.46 29.762 72.4781L30.0885 72.6005L30.4422 72.655L30.8774 72.8318C30.9591 72.7864 31.0543 72.7592 31.1631 72.7502L31.1495 72.7094C31.3218 72.6187 31.4578 72.5643 31.5576 72.5461H31.5984L31.68 72.3693L32.02 72.1925L32.2377 72.0973C32.2558 71.9975 32.3012 71.925 32.3737 71.8796L32.3873 71.7708C32.5143 71.7345 32.5913 71.7164 32.6186 71.7164C32.6548 71.7164 32.6775 71.7209 32.6866 71.73L32.8362 71.5668V71.4579L32.945 71.5123L32.9994 71.1859L33.2987 71.1451C33.344 71.0363 33.4347 70.9592 33.5707 70.9138L33.734 70.805L33.7884 70.6418C33.7974 70.5964 33.811 70.5511 33.8292 70.5058C33.8564 70.4604 33.87 70.4332 33.87 70.4242V70.4105C33.87 70.3017 33.8972 70.2246 33.9516 70.1793L33.9108 69.9481L34.0196 69.812V69.608L33.8156 69.2951C33.7521 69.1501 33.5344 69.0095 33.1626 68.8735L33.0538 68.8871L32.809 68.7238H32.5641L32.4961 68.6286L32.4145 68.6422L32.1561 68.5742L32.0472 68.6014L31.884 68.5606L31.5712 68.6014L31.5168 68.5606L31.4079 68.6286L31.2855 68.5606C31.1767 68.5697 31.0815 68.5742 30.9999 68.5742C30.9092 68.6286 30.814 68.6558 30.7142 68.6558L30.4966 68.7783L30.1973 68.8327L30.1565 68.8871L30.0069 68.9551L29.9525 68.9279C29.9343 68.946 29.8935 68.9959 29.83 69.0775H29.7756V69.1727L29.5852 69.1999V69.3632L29.2587 69.4584C29.2225 69.4856 29.1817 69.5219 29.1363 69.5672C29.1363 69.6307 29.0819 69.7032 28.9731 69.7848L28.4426 69.8392L28.1978 69.608L28.0617 69.2679V69.1455C28.0617 68.9732 28.1297 68.8372 28.2658 68.7374C28.3202 68.5833 28.429 68.4835 28.5922 68.4382L28.6194 68.3566H28.7963L28.8099 68.3158L29.5172 67.9893L29.6124 68.0029L29.6804 67.9621V67.9349C29.8981 67.817 30.1293 67.7581 30.3741 67.7581C30.3923 67.7581 30.4195 67.7581 30.4558 67.7581C30.492 67.7671 30.5192 67.7717 30.5374 67.7717C30.7459 67.6447 30.9591 67.5812 31.1767 67.5812H31.2991L31.7072 67.622L32.0745 67.5948L32.4553 67.6765C32.5188 67.6855 32.6231 67.7082 32.7682 67.7445L32.8498 67.7717H32.8226L32.9994 67.8669C33.1445 67.885 33.2715 67.9168 33.3803 67.9621C33.3984 67.9893 33.4347 68.0301 33.4891 68.0845L33.5979 68.0709L33.7748 68.2614L34.142 68.3974L34.6725 68.9415L34.7541 69.2135L34.9718 69.2951L34.9038 69.4992C34.9219 69.608 34.931 69.6851 34.931 69.7304C34.931 69.7486 34.931 69.7712 34.931 69.7984C34.9219 69.8347 34.9174 69.8574 34.9174 69.8665L34.999 70.0841L34.9038 70.2609L34.931 70.4105C34.9219 70.5194 34.8856 70.6191 34.8221 70.7098C34.7677 70.8005 34.7088 70.8866 34.6453 70.9682L34.4957 71.2131C34.405 71.3582 34.2917 71.4625 34.1556 71.5259L34.0196 71.8252L33.8836 71.866L33.8428 71.934C33.7702 72.0519 33.6251 72.1426 33.4075 72.2061C33.2805 72.3058 33.2125 72.392 33.2035 72.4645L32.9586 72.6277C32.9405 72.6096 32.9133 72.6005 32.877 72.6005C32.8589 72.6005 32.8317 72.6051 32.7954 72.6141C32.7591 72.6232 32.7274 72.6277 32.7002 72.6277C32.6911 72.6277 32.682 72.6232 32.673 72.6141C32.6548 72.6141 32.6412 72.6141 32.6322 72.6141L32.3193 72.859L32.3873 72.8998C32.3782 72.9179 32.283 72.9769 32.1017 73.0766C31.9747 73.131 31.8704 73.1718 31.7888 73.1991L32.2785 73.2399L32.5369 73.3623H32.7954L32.8498 73.4439L33.1082 73.4575C33.1264 73.53 33.1717 73.5663 33.2443 73.5663C33.2715 73.5663 33.3123 73.5572 33.3667 73.5391C33.3848 73.5663 33.3939 73.6071 33.3939 73.6615L33.3803 73.6751C33.3803 73.6661 33.4302 73.6887 33.5299 73.7431L33.734 73.6207L33.8564 73.6887L34.142 73.7023L34.4141 73.6615L34.5909 73.7568L34.931 73.8248L35.135 73.7431H35.3254C35.4161 73.6978 35.5204 73.6751 35.6383 73.6751C35.7562 73.6751 35.8559 73.6933 35.9375 73.7295L36.0736 73.9472ZM30.1565 73.3623L29.9661 73.2807L29.5444 73.1854L29.3268 73.2263H28.9323L28.6738 73.2943L28.4698 73.4983L28.5786 73.6207L28.5514 73.7295L28.7963 73.7976L29.1771 73.7568L29.5852 73.6887L29.8845 73.5527L30.1565 73.3623ZM43.0254 74.0424C43.0254 74.1875 42.9347 74.3008 42.7533 74.3825L42.1548 74.3961L41.5971 74.5049L41.189 74.4233L40.9986 74.3961L41.0666 74.3281L40.8218 74.4369C40.6948 74.4187 40.5951 74.4097 40.5225 74.4097C40.4953 74.3825 40.4727 74.3235 40.4545 74.2328L40.2233 74.4369L39.9512 74.4097C39.915 74.4097 39.8696 74.4142 39.8152 74.4233C39.7608 74.4233 39.72 74.4233 39.6928 74.4233C39.6021 74.4233 39.4842 74.4142 39.3391 74.3961L38.9855 74.4505L38.9582 74.3825L38.8086 74.4097L38.5774 74.4233L38.3053 74.5593L38.2373 74.4913C38.1738 74.5185 38.0968 74.5321 38.0061 74.5321H37.9109L37.8701 74.4777C37.8066 74.5049 37.7431 74.5185 37.6796 74.5185C37.6161 74.5185 37.5481 74.5049 37.4756 74.4777C37.4574 74.4867 37.4302 74.4958 37.394 74.5049C37.3668 74.523 37.3486 74.5321 37.3396 74.5321C37.0494 74.5321 36.868 74.4595 36.7955 74.3145C36.6866 74.2872 36.605 74.2555 36.5506 74.2192V73.988C36.5143 73.9154 36.4962 73.861 36.4962 73.8248C36.4962 73.6706 36.5642 73.5754 36.7002 73.5391L37.0947 73.4439C37.131 73.4348 37.1718 73.4303 37.2171 73.4303C37.3169 73.4303 37.3985 73.462 37.462 73.5255C37.4892 73.5164 37.5345 73.4938 37.598 73.4575L37.8428 73.4303L38.1149 73.3487L38.523 73.3759C38.7043 73.4303 38.8676 73.4711 39.0127 73.4983L39.0399 73.4575L38.9038 73.2263L38.931 73.0222C38.9038 72.9497 38.8902 72.8907 38.8902 72.8454C38.8902 72.791 38.9084 72.7456 38.9446 72.7094C38.9084 72.5552 38.8902 72.4237 38.8902 72.3149C38.8902 72.2061 38.9401 72.1109 39.0399 72.0292L39.0127 71.7708C39.0399 71.7436 39.0535 71.7209 39.0535 71.7028C39.0535 71.6846 39.0172 71.6484 38.9446 71.594L38.8902 71.1451L38.931 71.1315L39.0399 70.9274L38.9446 70.669L39.1079 70.4922L39.1623 70.2065V70.1385C39.1623 70.0387 39.185 69.9481 39.2303 69.8665C39.2031 69.8211 39.1895 69.7758 39.1895 69.7304C39.1895 69.7214 39.194 69.7032 39.2031 69.676C39.2031 69.6579 39.2031 69.6397 39.2031 69.6216L39.1487 69.6488C39.1215 69.6669 39.0535 69.6851 38.9446 69.7032L38.659 69.812H38.6046C38.5048 69.8846 38.3915 69.9209 38.2645 69.9209H38.1965C38.133 69.9934 38.0469 70.0841 37.9381 70.1929L37.7068 70.0705L37.5708 70.0977C37.4166 70.1249 37.2534 70.2156 37.0811 70.3697C36.9814 70.2519 36.8635 70.1793 36.7274 70.1521L36.3194 70.0161L36.1697 69.676C36.2967 69.4312 36.4373 69.3088 36.5914 69.3088C36.664 69.3088 36.7547 69.3269 36.8635 69.3632L37.0267 69.4992C37.1174 69.4176 37.2126 69.3768 37.3124 69.3768C37.3849 69.2951 37.6025 69.2317 37.9653 69.1863H38.0333C38.1149 69.1863 38.1965 69.1546 38.2781 69.0911C38.3688 69.0186 38.4368 68.9778 38.4822 68.9687L38.4142 68.9279L38.8494 68.8327L38.9174 68.7374C38.8902 68.7102 38.8449 68.6649 38.7814 68.6014L39.2167 68.3974H39.3799L39.4343 68.4654C39.4706 68.4745 39.4933 68.4926 39.5023 68.5198C39.4842 68.4654 39.4751 68.3883 39.4751 68.2886C39.4751 68.1435 39.5296 68.0165 39.6384 67.9077L40.1417 67.7853H40.6722C40.9261 68.0211 41.053 68.207 41.053 68.343C41.053 68.4337 41.0031 68.5198 40.9034 68.6014L40.5633 68.8735C40.5633 68.8825 40.5633 68.8961 40.5633 68.9143C40.5543 68.9324 40.5497 68.946 40.5497 68.9551C40.5497 68.9642 40.5543 68.9778 40.5633 68.9959C40.5633 69.014 40.5633 69.0276 40.5633 69.0367L40.5089 69.0639L40.4137 69.0367L40.4409 69.4312L40.3593 69.4856C40.3502 69.5219 40.3321 69.5627 40.3049 69.608L40.2641 69.6488C40.255 69.6579 40.2505 69.6715 40.2505 69.6896C40.2505 69.735 40.2686 69.7758 40.3049 69.812C40.2323 69.9481 40.1779 70.1068 40.1417 70.2881C40.1145 70.4695 40.0873 70.5828 40.06 70.6282L40.1145 70.7234L39.9648 71.0091L39.992 71.1859L39.924 71.4715L39.9784 71.5804L39.8968 71.8116C39.924 71.9023 39.9376 71.9839 39.9376 72.0564C39.9376 72.0927 39.9331 72.1245 39.924 72.1517C39.9512 72.2242 39.983 72.3285 40.0192 72.4645L39.8696 72.5325V72.5597C39.8877 72.6051 39.8968 72.6776 39.8968 72.7774C39.8968 72.8771 39.8877 72.9542 39.8696 73.0086L40.0192 73.1038C39.983 73.1582 39.9512 73.2399 39.924 73.3487L39.8968 73.3079L39.9104 73.5663L39.992 73.4439L40.2233 73.5119L40.6177 73.4439L40.6313 73.5119L41.2163 73.3487L41.1074 73.6343C41.1528 73.6253 41.2027 73.6207 41.2571 73.6207C41.3568 73.6207 41.4611 73.6434 41.5699 73.6887H41.6107C41.8374 73.6434 42.0007 73.6207 42.1004 73.6207C42.2002 73.6207 42.3589 73.6479 42.5765 73.7023L42.6581 73.6207C42.903 73.7295 43.0254 73.8701 43.0254 74.0424ZM47.8868 71.6212L47.5875 71.8388L47.2066 71.798L47.0298 71.8252L46.6625 71.866L46.2001 71.8388C46.1275 71.8569 46.0232 71.866 45.8872 71.866H45.7104L45.3839 71.9068L45.2887 71.8796L44.7854 71.934C44.731 71.8977 44.6857 71.8796 44.6494 71.8796C44.595 71.8796 44.5315 71.9023 44.4589 71.9476L44.2277 71.9068H43.9693L43.738 71.6076V71.3355L43.9149 71.3219L44.0509 71.1451L44.3909 71.2811L44.5134 71.2403C44.5587 71.2494 44.6222 71.2539 44.7038 71.2539H44.7718L44.8534 71.2267V71.2811L44.9894 71.3219L45.0847 71.2539L45.2615 71.2811H45.5471L46.1729 71.2539L46.2001 71.3219L46.2545 71.3083L46.3089 71.3491L46.4857 71.2947C46.5583 71.331 46.6489 71.3491 46.7578 71.3491C46.8303 71.3491 46.9074 71.3355 46.989 71.3083L47.2066 71.3627H47.3699C47.6782 71.3627 47.8505 71.4489 47.8868 71.6212ZM55.2239 71.2947L55.1015 71.4171L55.2103 71.5532L54.9247 71.8524L54.7614 72.2605L54.503 72.4781L54.4214 72.6413L54.2853 72.7502L54.1629 72.927L54.0269 72.9678V73.0902L53.7412 73.1854L53.578 73.3623L53.3604 73.4575L53.2379 73.6343H53.0883C52.9976 73.6615 52.907 73.6842 52.8163 73.7023L52.5986 73.9064L52.1634 74.056L51.8641 74.2328L51.6193 74.2736L51.4424 74.3689L51.0207 74.4233L50.8711 74.5729L50.4358 74.5049L50.327 74.5457L50.0958 74.5049L49.9598 74.5321L49.7421 74.4369H49.6061C49.4882 74.4369 49.3613 74.3643 49.2252 74.2192C49.062 74.1467 48.9532 74.0605 48.8988 73.9608L48.8444 73.8792L48.6811 73.7295L48.4907 73.2807L48.5179 73.1854L48.4363 73.0902L48.5179 72.7638C48.4907 72.6912 48.4771 72.6232 48.4771 72.5597C48.4771 72.46 48.5088 72.3784 48.5723 72.3149V72.2333C48.5723 72.1335 48.5678 72.0519 48.5587 71.9884L48.7491 71.594L48.8036 71.2675L48.9396 71.0907L49.0212 70.7778L49.13 70.533C49.1572 70.3516 49.2434 70.1702 49.3885 69.9889L49.4973 69.8801L49.4701 69.8256L49.6061 69.608L49.6197 69.3088L49.8781 69.2271L49.987 69.0639C50.0958 69.0458 50.1502 68.9687 50.1502 68.8327L50.5039 68.479L50.5719 68.5062L50.6399 68.2614H50.8575L50.8847 68.1389H50.9663V67.9893H51.1024C51.2837 67.9893 51.3835 67.944 51.4016 67.8533L51.9457 67.7037L52.2586 67.5812H52.381L52.6666 67.5268L52.7483 67.5676C52.8389 67.5314 52.907 67.5132 52.9523 67.5132H53.0067C53.1971 67.5676 53.3422 67.6991 53.442 67.9077L53.6188 68.0165L53.8093 68.1797L54.0405 68.2478L54.2717 68.6422L54.4894 68.7783L54.5846 68.9959C54.5937 69.0231 54.6299 69.0503 54.6934 69.0775C54.8385 69.1954 54.911 69.3722 54.911 69.608L55.1015 69.812L55.0471 69.9209L55.0879 69.9617C55.1604 70.4967 55.1967 70.8232 55.1967 70.941C55.1967 71.0227 55.174 71.0997 55.1287 71.1723L55.2239 71.2947ZM54.2853 70.669L54.2445 70.5466L54.2581 70.3561L54.1221 70.1113L54.1493 69.9209L54.0677 69.8256L54.0405 69.6352L53.9589 69.4584C53.7684 69.3586 53.6415 69.2181 53.578 69.0367L53.4964 68.9959L53.3468 68.8871L53.0475 68.8735L52.8299 68.6014L52.7891 68.5606C52.6802 68.5788 52.5986 68.5878 52.5442 68.5878H52.4626L52.3402 68.6694L52.1498 68.7102L52.0681 68.8191L51.7009 69.0095L51.456 69.1047L51.2384 69.2679L50.9527 69.5672L50.7623 69.6896L50.6263 69.9617L50.327 70.2473L50.3542 70.4242L50.0958 70.6418L50.1094 70.8322L49.9053 70.9682C49.8691 71.2675 49.7784 71.4534 49.6333 71.5259C49.6514 71.5622 49.6605 71.5849 49.6605 71.594C49.6605 71.6393 49.6333 71.6846 49.5789 71.73L49.5925 71.8388L49.5245 71.9884L49.5517 72.2333L49.4021 72.3285L49.5517 72.4237L49.4429 72.5869L49.5381 72.7502L49.4293 72.8998L49.4429 72.9542L49.4021 73.1038C49.5018 73.2399 49.5562 73.3351 49.5653 73.3895C49.6378 73.5164 49.7104 73.5935 49.7829 73.6207L49.9462 73.5935C49.928 73.5935 49.9507 73.589 50.0142 73.5799C50.0958 73.5799 50.1819 73.6162 50.2726 73.6887C50.4268 73.6615 50.5129 73.6479 50.5311 73.6479H50.5175L50.5855 73.6615L50.6399 73.6207L51.0207 73.6071L51.1976 73.5663L51.388 73.4167L51.4968 73.4303L51.6329 73.2263L51.8505 73.2671L51.9593 73.1582L52.1089 73.1991C52.1543 73.1537 52.2087 73.1129 52.2722 73.0766C52.3719 73.0585 52.4581 73.0268 52.5306 72.9814C52.5578 72.9361 52.5986 72.8907 52.653 72.8454V72.7094C52.8979 72.7094 53.043 72.6595 53.0883 72.5597L53.4284 72.3557C53.4737 72.2741 53.5463 72.2061 53.646 72.1517C53.7458 72.0973 53.7956 72.0202 53.7956 71.9204C53.7956 71.866 53.7911 71.8252 53.782 71.798L54.0133 71.7028C54.0405 71.6574 54.0722 71.6076 54.1085 71.5532C54.0994 71.535 54.0949 71.5078 54.0949 71.4715C54.0949 71.3899 54.1493 71.263 54.2581 71.0907L54.2173 70.941L54.2853 70.669ZM62.0105 71.3491L61.9697 71.7164L61.9561 71.7708C61.9561 71.925 61.9152 72.0519 61.8336 72.1517L61.7928 72.2605L61.8472 72.4101C61.7384 72.528 61.684 72.6595 61.684 72.8046C61.684 72.8409 61.6931 72.9043 61.7112 72.995L61.5752 73.0358L61.4528 73.4167V73.7295H61.3711L61.2079 73.8656L61.1399 74.1104L60.9903 74.2192L60.9767 74.4233L60.8543 74.5049L60.9087 74.6137L60.5822 74.913L60.419 75.253H60.3782V75.2938L60.2285 75.4026C60.1197 75.5296 60.0154 75.6203 59.9157 75.6747L59.4532 76.314L59.1539 76.4908L58.501 77.0077L58.3242 77.0757L58.2154 77.2118L58.0113 77.2662L57.8753 77.4158L57.304 77.6743L57.168 77.6879C56.9957 77.7785 56.8506 77.833 56.7327 77.8511L56.6103 77.9735L56.2294 78.0007C56.039 78.0823 55.8531 78.1231 55.6717 78.1231L55.4949 78.2864L55.0732 78.2728C54.8918 78.3544 54.7105 78.3952 54.5291 78.3952C54.511 78.3952 54.4883 78.3952 54.4611 78.3952C54.4248 78.3861 54.4022 78.3816 54.3931 78.3816L54.3659 78.3952C54.3387 78.4043 54.2933 78.4088 54.2299 78.4088L53.9442 78.4632L53.7538 78.4088L53.5089 78.4224L53.3321 78.3816L53.0737 78.368L52.8288 78.232L52.6384 78.2592L52.0399 77.9055L51.8902 77.6471C51.854 77.5836 51.8358 77.511 51.8358 77.4294C51.8358 77.2299 51.9356 77.1302 52.1351 77.1302C52.2711 77.1302 52.3935 77.2027 52.5024 77.3478L52.6928 77.3614L52.8288 77.4702L53.0192 77.443L53.3185 77.579C53.4817 77.579 53.6495 77.6153 53.8218 77.6879C53.9941 77.6879 54.1755 77.6743 54.3659 77.6471C54.6107 77.5836 54.8284 77.5518 55.0188 77.5518H55.114C55.2682 77.4702 55.5448 77.4067 55.9438 77.3614C55.9891 77.3433 56.0571 77.307 56.1478 77.2526C56.2566 77.2254 56.4017 77.1846 56.5831 77.1302V77.171L56.6919 77.0485C56.9186 77.0213 57.1 76.9125 57.236 76.7221L57.5081 76.6949L58.0522 76.2868C58.1882 76.2596 58.2834 76.1871 58.3378 76.0692L58.5146 75.9467C58.5962 75.8923 58.6869 75.8515 58.7867 75.8243L58.9227 75.5931C59.0406 75.4933 59.1222 75.3754 59.1676 75.2394L59.4532 74.913L59.5756 74.8585L59.6844 74.6817L59.8205 74.5321C59.8567 74.4777 59.8794 74.4369 59.8885 74.4097C59.8975 74.3825 59.9202 74.319 59.9565 74.2192C60.1379 74.0379 60.2285 73.8384 60.2285 73.6207L60.5006 73.3215L60.4326 73.063L60.6638 72.9678L60.8407 72.3965C60.8769 72.2786 60.8951 72.2151 60.8951 72.2061V72.0973L61.0039 71.4579L61.0447 71.3627L60.9903 70.9682L61.0447 70.8322L60.9903 70.6418V70.3697L60.9359 70.2065L60.8543 70.4105L60.623 70.601L60.5686 70.8458L60.2966 70.9546L60.1197 71.0635L59.7933 71.2131L59.698 71.3763L59.222 71.4987L59.1812 71.594L58.8275 71.662L58.3106 71.7844L57.6169 71.8252L57.3448 71.7844H57.2768C57.0501 71.7844 56.8551 71.7209 56.6919 71.594L56.6783 71.4579C56.6058 71.4126 56.5105 71.3491 56.3927 71.2675C56.3201 71.1496 56.2838 71.0136 56.2838 70.8594C56.2838 70.7778 56.2974 70.6917 56.3246 70.601L56.2566 70.3833L56.3518 70.0297V69.8256L56.4607 69.6216L56.4879 69.2951L56.6511 69.1183L56.7327 68.8871L56.9095 68.7783L56.9504 68.5606L57.1136 68.5062C57.168 68.3883 57.2451 68.2795 57.3448 68.1797C57.3539 68.1707 57.3811 68.148 57.4264 68.1117C57.4808 68.0755 57.5398 68.0256 57.6033 67.9621L57.8345 67.6901H57.9977C58.0884 67.5359 58.2199 67.4452 58.3922 67.418L58.4194 67.3364C58.5645 67.3092 58.7141 67.282 58.8683 67.2548L58.8955 67.2412C58.9499 67.1868 59.0134 67.1142 59.0859 67.0235L59.3308 67.0916L59.7525 67.0643L59.7933 67.0235L60.0517 66.9419L60.3238 67.0235L60.827 67.5268L61.0991 68.0573L61.3711 68.3974L61.4256 68.6014L61.616 68.7511L61.5616 68.9415L61.616 69.0367L61.6432 69.1999L61.7928 69.3768C61.7838 69.413 61.7702 69.4584 61.752 69.5128C61.7339 69.5581 61.7248 69.5899 61.7248 69.608C61.8427 69.6896 61.9016 69.812 61.9016 69.9753L61.9425 70.2473L61.9152 70.3425L61.9288 70.533L61.9833 70.669L61.9561 70.8186L62.0105 71.3491ZM60.4326 69.3088L60.3782 69.0639L60.4054 68.8599C60.2875 68.751 60.2149 68.6286 60.1877 68.4926L59.7389 68.2886C59.6844 68.1797 59.6572 68.0981 59.6572 68.0437L59.6436 68.0029C59.3444 68.0936 59.1676 68.148 59.1131 68.1661C59.0043 68.1933 58.9182 68.2659 58.8547 68.3838L58.5554 68.4246L58.3514 68.615L58.229 68.6694L57.9705 69.0639L57.8481 69.0911L57.7393 69.2679L57.6033 69.3768L57.6305 69.5128L57.3856 69.744L57.3448 69.9073L57.2632 69.9889L57.3448 70.0705L57.2224 70.5194L57.2632 70.6554L57.236 70.8322V70.873L57.2904 70.941C57.4899 70.9773 57.6033 70.9955 57.6305 70.9955C57.7121 70.9592 57.9252 70.9365 58.2698 70.9274C58.3605 70.8912 58.5101 70.864 58.7187 70.8458L58.7731 70.805L59.0043 70.7234L59.1131 70.533H59.2356L59.358 70.3969H59.562C59.6074 70.3516 59.6844 70.3017 59.7933 70.2473C59.8658 70.075 59.961 69.9843 60.0789 69.9753L60.283 69.7712L60.3374 69.5672L60.4326 69.3088ZM67.5864 71.6212L67.2871 71.8388L66.9063 71.798L66.7294 71.8252L66.3622 71.866L65.8997 71.8388C65.8272 71.8569 65.7229 71.866 65.5868 71.866H65.41L65.0836 71.9068L64.9883 71.8796L64.485 71.934C64.4306 71.8977 64.3853 71.8796 64.349 71.8796C64.2946 71.8796 64.2311 71.9023 64.1586 71.9476L63.9273 71.9068H63.6689L63.4377 71.6076V71.3355L63.6145 71.3219L63.7505 71.1451L64.0906 71.2811L64.213 71.2403C64.2583 71.2494 64.3218 71.2539 64.4034 71.2539H64.4714L64.5531 71.2267V71.2811L64.6891 71.3219L64.7843 71.2539L64.9611 71.2811H65.2468L65.8725 71.2539L65.8997 71.3219L65.9541 71.3083L66.0085 71.3491L66.1854 71.2947C66.2579 71.331 66.3486 71.3491 66.4574 71.3491C66.5299 71.3491 66.607 71.3355 66.6886 71.3083L66.9063 71.3627H67.0695C67.3778 71.3627 67.5501 71.4489 67.5864 71.6212ZM76.2566 73.9472L76.1886 74.2464L75.9845 74.3281L76.0389 74.3417C75.8757 74.4595 75.6989 74.5321 75.5084 74.5593L75.3724 74.5457C75.2727 74.6182 75.1729 74.6545 75.0732 74.6545C75.0278 74.6545 74.9961 74.65 74.978 74.6409C74.9598 74.6409 74.9371 74.6454 74.9099 74.6545C74.8737 74.6545 74.8465 74.6545 74.8283 74.6545C74.8193 74.6545 74.8057 74.6545 74.7875 74.6545C74.7694 74.6454 74.7558 74.6409 74.7467 74.6409L74.6107 74.6001H74.4202L74.189 74.5049L74.053 74.5865L73.9442 74.5321L73.7265 74.5729C73.6721 74.5185 73.6449 74.4686 73.6449 74.4233C73.6086 74.4323 73.5588 74.4369 73.4953 74.4369C73.3865 74.4369 73.2958 74.4051 73.2232 74.3417H73.1688C73.1144 74.3417 73.06 74.3281 73.0056 74.3008L72.9376 74.3281L72.8968 74.3417C72.8061 74.2782 72.6474 74.1966 72.4207 74.0968C72.2937 74.0968 72.1441 74.0605 71.9718 73.988H71.6862L71.6454 73.8928L71.2917 73.92C71.1738 73.8565 71.1149 73.8202 71.1149 73.8112V73.784L71.074 73.8656L70.9108 73.92L70.8836 73.9064C70.7929 73.9971 70.6705 74.0515 70.5163 74.0696H70.4891L70.3939 74.192H70.2987C70.199 74.192 70.1083 74.2056 70.0267 74.2328L70.0131 74.3417L69.6866 74.3553C69.605 74.4369 69.5188 74.4777 69.4282 74.4777C69.3737 74.4777 69.3193 74.4641 69.2649 74.4369L69.1153 74.4913L68.748 74.4777L68.1767 74.26L67.9863 74.0832L67.9047 73.8384C67.8956 73.784 67.8911 73.7205 67.8911 73.6479C67.8911 73.6298 67.8911 73.6117 67.8911 73.5935C67.9001 73.5663 67.9047 73.5482 67.9047 73.5391L67.9455 73.2535L67.8639 73.131C68.1722 72.8499 68.3717 72.7048 68.4624 72.6958L68.6528 72.5597L68.816 72.5869L68.8977 72.5325C69.1334 72.4963 69.2649 72.4781 69.2921 72.4781C69.274 72.4781 69.2967 72.4827 69.3601 72.4917C69.4962 72.4645 69.6141 72.4509 69.7138 72.4509C69.8317 72.4509 69.9088 72.46 69.945 72.4781L70.2715 72.6005L70.6252 72.655L71.0604 72.8318C71.1421 72.7864 71.2373 72.7592 71.3461 72.7502L71.3325 72.7094C71.5048 72.6187 71.6408 72.5643 71.7406 72.5461H71.7814L71.863 72.3693L72.2031 72.1925L72.4207 72.0973C72.4388 71.9975 72.4842 71.925 72.5567 71.8796L72.5703 71.7708C72.6973 71.7345 72.7744 71.7164 72.8016 71.7164C72.8378 71.7164 72.8605 71.7209 72.8696 71.73L73.0192 71.5668V71.4579L73.128 71.5123L73.1824 71.1859L73.4817 71.1451C73.527 71.0363 73.6177 70.9592 73.7537 70.9138L73.917 70.805L73.9714 70.6418C73.9804 70.5964 73.994 70.5511 74.0122 70.5058C74.0394 70.4604 74.053 70.4332 74.053 70.4242V70.4105C74.053 70.3017 74.0802 70.2246 74.1346 70.1793L74.0938 69.9481L74.2026 69.812V69.608L73.9986 69.2951C73.9351 69.1501 73.7175 69.0095 73.3457 68.8735L73.2368 68.8871L72.992 68.7238H72.7471L72.6791 68.6286L72.5975 68.6422L72.3391 68.5742L72.2303 68.6014L72.067 68.5606L71.7542 68.6014L71.6998 68.5606L71.5909 68.6286L71.4685 68.5606C71.3597 68.5697 71.2645 68.5742 71.1829 68.5742C71.0922 68.6286 70.997 68.6558 70.8972 68.6558L70.6796 68.7783L70.3803 68.8327L70.3395 68.8871L70.1899 68.9551L70.1355 68.9279C70.1173 68.946 70.0765 68.9959 70.0131 69.0775H69.9586V69.1727L69.7682 69.1999V69.3632L69.4418 69.4584C69.4055 69.4856 69.3647 69.5219 69.3193 69.5672C69.3193 69.6307 69.2649 69.7032 69.1561 69.7848L68.6256 69.8392L68.3808 69.608L68.2447 69.2679V69.1455C68.2447 68.9732 68.3128 68.8372 68.4488 68.7374C68.5032 68.5833 68.612 68.4835 68.7752 68.4382L68.8024 68.3566H68.9793L68.9929 68.3158L69.7002 67.9893L69.7954 68.0029L69.8634 67.9621V67.9349C70.0811 67.817 70.3123 67.7581 70.5572 67.7581C70.5753 67.7581 70.6025 67.7581 70.6388 67.7581C70.675 67.7671 70.7022 67.7717 70.7204 67.7717C70.929 67.6447 71.1421 67.5812 71.3597 67.5812H71.4821L71.8902 67.622L72.2575 67.5948L72.6383 67.6765C72.7018 67.6855 72.8061 67.7082 72.9512 67.7445L73.0328 67.7717H73.0056L73.1824 67.8669C73.3275 67.885 73.4545 67.9168 73.5633 67.9621C73.5814 67.9893 73.6177 68.0301 73.6721 68.0845L73.7809 68.0709L73.9578 68.2614L74.325 68.3974L74.8555 68.9415L74.9371 69.2135L75.1548 69.2951L75.0868 69.4992C75.1049 69.608 75.114 69.6851 75.114 69.7304C75.114 69.7486 75.114 69.7712 75.114 69.7984C75.1049 69.8347 75.1004 69.8574 75.1004 69.8665L75.182 70.0841L75.0868 70.2609L75.114 70.4105C75.1049 70.5194 75.0686 70.6191 75.0052 70.7098C74.9507 70.8005 74.8918 70.8866 74.8283 70.9682L74.6787 71.2131C74.588 71.3582 74.4747 71.4625 74.3386 71.5259L74.2026 71.8252L74.0666 71.866L74.0258 71.934C73.9532 72.0519 73.8081 72.1426 73.5905 72.2061C73.4635 72.3058 73.3955 72.392 73.3865 72.4645L73.1416 72.6277C73.1235 72.6096 73.0963 72.6005 73.06 72.6005C73.0419 72.6005 73.0147 72.6051 72.9784 72.6141C72.9421 72.6232 72.9104 72.6277 72.8832 72.6277C72.8741 72.6277 72.865 72.6232 72.856 72.6141C72.8378 72.6141 72.8242 72.6141 72.8152 72.6141L72.5023 72.859L72.5703 72.8998C72.5612 72.9179 72.466 72.9769 72.2847 73.0766C72.1577 73.131 72.0534 73.1718 71.9718 73.1991L72.4615 73.2399L72.7199 73.3623H72.9784L73.0328 73.4439L73.2912 73.4575C73.3094 73.53 73.3547 73.5663 73.4273 73.5663C73.4545 73.5663 73.4953 73.5572 73.5497 73.5391C73.5678 73.5663 73.5769 73.6071 73.5769 73.6615L73.5633 73.6751C73.5633 73.6661 73.6132 73.6887 73.7129 73.7431L73.917 73.6207L74.0394 73.6887L74.325 73.7023L74.5971 73.6615L74.7739 73.7568L75.114 73.8248L75.318 73.7431H75.5084C75.5991 73.6978 75.7034 73.6751 75.8213 73.6751C75.9392 73.6751 76.0389 73.6933 76.1206 73.7295L76.2566 73.9472ZM70.3395 73.3623L70.1491 73.2807L69.7274 73.1854L69.5098 73.2263H69.1153L68.8568 73.2943L68.6528 73.4983L68.7616 73.6207L68.7344 73.7295L68.9793 73.7976L69.3601 73.7568L69.7682 73.6887L70.0675 73.5527L70.3395 73.3623ZM84.0245 72.859L83.8069 73.0902L83.7253 73.3351L83.4396 73.4711V73.5799L83.1948 73.6207L83.0452 73.8112C82.891 73.8656 82.6552 73.9336 82.3378 74.0152C82.2199 74.0968 82.0749 74.1467 81.9026 74.1648C81.7303 74.2555 81.5126 74.3281 81.2496 74.3825L81.0864 74.3417L80.4879 74.5049L80.1886 74.4913L79.9438 74.4369C79.8713 74.455 79.8078 74.4731 79.7534 74.4913L79.3997 74.5321L79.1821 74.5049L79.046 74.5457C79.0279 74.5457 78.969 74.5276 78.8692 74.4913L78.8284 74.4777C78.7921 74.4958 78.7423 74.514 78.6788 74.5321C78.6062 74.5321 78.5291 74.5185 78.4475 74.4913L78.3251 74.5185C78.2707 74.5185 78.2299 74.514 78.2027 74.5049C78.1846 74.514 78.1573 74.5185 78.1211 74.5185C78.0576 74.5185 77.9851 74.5004 77.9034 74.4641L77.6722 74.5457L77.5226 74.3961L77.4273 74.4505L77.2641 74.3825C77.1825 74.4369 77.11 74.4641 77.0465 74.4641C76.9739 74.4641 76.9059 74.4187 76.8424 74.3281C76.5885 74.2918 76.4616 74.0515 76.4616 73.6071C76.4616 73.3079 76.5976 73.1446 76.8696 73.1174C76.9694 73.063 77.0828 73.0358 77.2097 73.0358H77.3049L77.6994 72.995C78.0077 73.0948 78.1619 73.2263 78.1619 73.3895C78.1619 73.462 78.1211 73.5346 78.0395 73.6071C78.0939 73.6071 78.1528 73.6207 78.2163 73.6479L78.4747 73.5935C78.5926 73.5935 78.6969 73.6343 78.7876 73.7159C78.9327 73.6706 79.0959 73.6479 79.2773 73.6479H79.5357C79.6355 73.5845 79.708 73.5527 79.7534 73.5527C79.8168 73.5527 79.8849 73.5754 79.9574 73.6207C80.0481 73.5572 80.1388 73.521 80.2295 73.5119L80.4879 73.6615L80.5151 73.6207C80.5877 73.6117 80.6874 73.5935 80.8144 73.5663H80.9776L81.236 73.3895C81.3993 73.4076 81.4945 73.4167 81.5217 73.4167C81.5761 73.4167 81.6804 73.3713 81.8345 73.2807H81.9706L82.0114 73.2127L82.3106 72.9814L82.5011 73.0086C82.764 72.8817 82.9273 72.7819 82.9908 72.7094C83.0089 72.655 83.018 72.5915 83.018 72.5189C83.018 72.4645 82.9454 72.4237 82.8003 72.3965L82.5555 72.2197L82.2698 72.1653L81.8617 72.2469L81.7529 72.1109L81.6441 72.1381L81.4809 71.9884L81.4265 72.0292C81.2904 72.002 81.2088 71.9884 81.1816 71.9884C81.0728 72.0066 80.9867 72.0247 80.9232 72.0428C80.8869 72.0247 80.837 71.9839 80.7736 71.9204L80.7055 71.9476C80.5695 71.9839 80.4108 72.0111 80.2295 72.0292L80.1342 71.934L79.8214 71.9068L79.5629 71.798L79.2637 71.8116L78.9644 71.662L78.7196 71.4579L78.6244 71.1587L78.7604 70.8458L79.0732 70.7506C79.2818 70.6418 79.4768 70.5692 79.6582 70.533L79.9846 70.4105L80.7463 70.2745L80.8824 70.1793H81.1272L81.2496 70.0297C81.2768 70.0387 81.3086 70.0569 81.3449 70.0841C81.5262 69.9118 81.7257 69.8256 81.9434 69.8256C81.9524 69.8166 81.9932 69.7939 82.0658 69.7576L82.093 69.7304C82.1746 69.6669 82.2925 69.5944 82.4467 69.5128V69.4312C82.3741 69.3224 82.1202 69.2226 81.6849 69.1319L81.3449 69.1591C81.1816 69.1229 81.0592 69.1047 80.9776 69.1047C80.8778 69.1047 80.7781 69.1183 80.6783 69.1455H80.5287L80.2703 69.2135L80.039 69.1455L79.9302 69.2679L79.3997 69.3088L79.0732 69.4176C78.9916 69.4992 78.9055 69.54 78.8148 69.54C78.7604 69.54 78.6878 69.5173 78.5972 69.472C78.579 69.5355 78.5564 69.5808 78.5291 69.608H78.4475C78.3206 69.608 78.1891 69.7168 78.0531 69.9345C77.9896 69.9345 77.9442 69.9299 77.917 69.9209L77.8218 70.1521L77.3049 69.9209L77.1689 69.7712L77.2233 69.676L77.1281 69.6896C77.0737 69.608 77.0465 69.5355 77.0465 69.472C77.0465 69.4266 77.051 69.3949 77.0601 69.3768L77.1417 69.1047L77.2233 69.0367C77.2959 68.9642 77.3865 68.9279 77.4954 68.9279H77.5362L77.645 68.7919L77.8626 68.8327C77.9805 68.742 78.1075 68.6966 78.2435 68.6966H78.3115C78.3115 68.6422 78.3387 68.5878 78.3931 68.5334H78.6652L78.7876 68.4654L79.0052 68.4382L79.1957 68.5878L79.1821 68.4654H79.3861L79.5765 68.411C79.6491 68.3929 79.8032 68.3611 80.039 68.3158L80.2022 68.3294C80.3655 68.284 80.5559 68.2614 80.7736 68.2614H80.9504L80.896 68.3022H80.964C81.0365 68.3022 81.1045 68.3203 81.168 68.3566L81.3176 68.3022L81.6033 68.3294C81.6668 68.3294 81.7575 68.3248 81.8754 68.3158C81.9932 68.3158 82.0749 68.3158 82.1202 68.3158V68.4246L82.4331 68.5334L82.8139 68.6014L82.9908 68.8599L83.2492 69.0503L83.3716 69.3496L83.3036 69.6488V69.676C83.2855 69.7304 83.2356 69.8256 83.154 69.9617C83.0361 70.1612 82.8593 70.3017 82.6235 70.3833L82.5147 70.5194L82.161 70.6826L81.8481 70.737L81.6577 70.873L81.3585 70.9546L81.1408 71.0499L80.8688 71.0091L80.5423 71.1179L80.8824 71.2267H81.2496L81.4401 71.2131H81.5897C81.7257 71.2131 81.83 71.2448 81.9026 71.3083C82.0658 71.3627 82.2562 71.3899 82.4739 71.3899C82.5011 71.4171 82.5328 71.4443 82.5691 71.4715C82.5781 71.4715 82.5872 71.467 82.5963 71.4579C82.6053 71.4579 82.6552 71.467 82.7459 71.4851L83.0588 71.5123L83.2628 71.662H83.426L83.7525 71.9884L83.8341 72.3149L84.0245 72.5053L83.9701 72.6686L84.0245 72.859Z" fill="black"/>
<path d="M35.6214 23.1765L35.3833 23.2106L35.3663 23.3296L35.4173 23.6696L35.3323 23.7376V23.8057C35.3323 23.885 35.304 23.9814 35.2473 24.0947C35.1906 24.2081 35.1623 24.2931 35.1623 24.3498L35.2133 24.6898V24.7918L35.2813 25.0979L35.1283 25.421V25.489L35.0943 25.727V26.0841L34.9583 26.2541L35.0603 26.3901L34.8222 26.6282V26.9682L34.7202 27.0702L34.7712 27.3083L34.6012 27.3763V27.4273L34.4652 27.6143L34.2951 27.6484V28.1074L34.0061 28.2775C33.8134 28.6289 33.6717 28.8839 33.581 29.0426L32.7649 29.5867L32.4418 29.7567L32.1358 29.9778L31.9827 29.9438L31.4726 30.1308L30.9625 30.0798L30.3504 30.3348L29.7723 30.1648L29.3813 30.2158L29.3132 30.1988L28.9562 30.4709L28.7011 30.1478L28.5651 30.1648L28.123 30.0288L27.4769 30.1988L27.3579 29.8758L26.7798 29.9268L26.5758 29.6717L26.1167 29.6547V29.5867L25.8616 29.4677H25.6746C25.4366 29.3543 25.3175 29.1276 25.3175 28.7876C25.3175 28.6402 25.4876 28.5665 25.8276 28.5665C26.1677 28.5665 26.5531 28.6685 26.9838 28.8726C27.2672 28.8726 27.5449 28.9236 27.817 29.0256L27.953 29.0426H28.2421L28.3611 29.1446L28.7862 29.0936L29.1602 29.1786L29.2792 29.1446L29.5683 29.2296L29.7723 29.1616C30.2711 29.1616 30.5828 29.1446 30.7075 29.1106H31.2856L31.3706 28.9066H31.6767L31.7787 28.7706H31.9827L32.1188 28.6685L32.2038 28.6515L32.3228 28.5665L32.5608 28.3455L32.6458 28.0224L32.9009 27.9204L32.9689 27.5803L33.2069 27.4103C33.2069 27.2856 33.2126 27.1949 33.224 27.1383L33.275 27.0873L33.1559 26.9172L33.377 26.6962L33.36 26.5262C33.4053 26.4695 33.4847 26.3788 33.598 26.2541L33.666 25.931V25.2849H33.8361L33.8531 25.0469V24.9789L33.9381 24.9449L33.768 24.4348L33.8701 24.4008L34.0231 24.0097L33.9891 23.7717L34.1081 22.3944L34.1931 22.1054L34.0911 21.5273L34.1931 21.3232L34.0741 21.1532L34.1931 20.6771L34.0061 20.014V19.2658L33.8531 18.8408V18.7558L33.683 18.7217C33.7851 17.5542 34.0968 16.9704 34.6182 16.9704C34.8789 16.9704 35.0433 17.0668 35.1113 17.2595L35.1623 17.3615L35.4854 17.5655L35.2983 17.8716L35.4173 18.0416L35.3833 18.2627L35.4854 18.3137V18.6707L35.5874 18.9428L35.4854 19.5209L35.5534 20.371L35.5194 20.6261V21.3742L35.4854 21.7483L35.5534 22.2754L35.5024 22.3944L35.5364 22.7345L35.4003 22.8705L35.4173 22.9215L35.6214 23.1765ZM44.57 19.2148L44.4 19.4359L44.536 19.8439L44.315 20.099L44.23 20.4561L44.179 20.5411L44.213 20.6261C44.213 20.7848 44.1733 20.9038 44.094 20.9832L44.0599 21.0342V21.1022C44.094 21.1815 44.111 21.2552 44.111 21.3232C44.111 21.3799 44.1053 21.4196 44.094 21.4422L44.111 21.5102L44.0429 21.6973L44.094 21.9013L43.9579 22.0373L44.0089 22.2754L44.111 22.3944L43.9579 22.5304V22.8025L43.8389 23.0745L43.9239 23.3466L43.8219 23.4826L43.9919 23.6016L43.7539 23.9927L43.7369 24.0437L43.9069 24.0777L43.7879 24.4688V24.5368C43.7879 24.6161 43.7822 24.6785 43.7709 24.7238L43.7879 24.7748L44.0599 24.8088L44.281 25.1489L44.162 25.4039L44.349 25.3869C44.417 25.523 44.4567 25.642 44.468 25.744L44.213 25.9991C44.1336 26.0784 44.0203 26.1578 43.8729 26.2371L43.5839 26.3901L43.4988 26.3051L43.3288 26.4071L42.8017 25.795V25.506C42.7337 25.2793 42.6997 25.0696 42.6997 24.8769V24.7748L42.5977 23.7717L42.7337 23.0575L42.6317 22.6495L42.3426 23.1255L42.1896 23.5676L42.0536 23.6356L41.8155 24.0097L41.3905 24.4008L41.2714 24.6048L40.8974 24.9279L40.8124 25.1489L40.2683 25.489L39.6902 26.1351L39.3671 26.2031L39.1461 26.3731C38.8627 26.3618 38.6473 26.2541 38.4999 26.0501C37.9899 25.8007 37.7235 25.4436 37.7008 24.9789L37.7858 24.9279L37.7688 24.8258L37.7518 24.6218L37.6498 24.4008L37.7518 24.1627L37.7858 23.8057L37.9048 23.2446C37.9048 23.2332 37.9048 23.2106 37.9048 23.1765C37.8935 23.1539 37.8878 23.1312 37.8878 23.1085C37.8878 23.0632 37.8992 23.0065 37.9218 22.9385C37.9105 22.9158 37.9048 22.8705 37.9048 22.8025C37.9048 22.7231 37.9388 22.5928 38.0069 22.4114L38.1259 22.3604C38.0579 22.3037 38.0239 22.2414 38.0239 22.1734C38.0239 22.128 38.0295 22.094 38.0409 22.0713C38.0295 22.0373 38.0239 21.9977 38.0239 21.9523C38.0239 21.8163 38.0919 21.7143 38.2279 21.6463C38.2619 21.5329 38.3242 21.4196 38.4149 21.3062L38.3299 21.1702L38.534 20.9151V20.8471C38.534 20.6318 38.6076 20.4334 38.755 20.252L38.738 19.946L38.806 19.878C38.806 19.8666 38.806 19.8496 38.806 19.8269C38.7947 19.8043 38.789 19.7873 38.789 19.7759C38.789 19.7079 38.8117 19.6512 38.857 19.6059V19.5039C38.9024 19.3905 39.0214 19.2205 39.2141 18.9938C39.4068 18.7671 39.5485 18.5687 39.6392 18.3987L39.7242 18.4837L39.9112 18.3987L39.9962 18.3647L40.5573 18.1096L41.8666 18.1776V18.2967L42.2746 18.3817C42.5353 18.3817 42.7054 18.4667 42.7847 18.6367C42.7847 18.6027 42.7904 18.5631 42.8017 18.5177C42.8017 18.4837 42.8017 18.461 42.8017 18.4497L43.1588 18.7728L43.4818 18.8408L44.094 18.6877L44.315 19.1128L44.57 19.2148ZM42.9547 20.099L42.8867 19.98L42.7507 19.946L42.2236 19.5209L41.8836 19.4699H41.6115L41.5775 19.4359L41.4415 19.4869L41.2884 19.4019H40.8464L40.8974 19.4699L40.5063 19.6059L40.4383 19.6909L40.3873 19.7079C40.1832 19.878 40.0416 20.0196 39.9622 20.133L39.8432 20.5411L39.7752 20.6941L39.9452 20.9321L39.6562 21.1532L39.6902 21.2212C39.5655 21.4366 39.5031 21.6463 39.5031 21.8503L39.3671 22.0203V22.3264L39.2311 22.4794L39.1971 22.6325L39.1461 22.6665V22.9045L39.0951 22.9895C39.0951 23.1255 39.0837 23.2332 39.061 23.3126L39.0951 23.3976L38.942 23.7206L39.01 23.8227L38.891 23.9927L39.01 24.3158L38.823 24.5538L38.857 24.8769V24.9279L38.925 24.9619L39.01 24.9449C39.0667 24.8882 39.1234 24.8372 39.1801 24.7918L39.1461 24.6558L39.3841 24.6218L39.4351 24.5028L40.4383 23.6866L40.5403 23.6526L40.6593 23.3636C40.7273 23.3409 40.8237 23.2956 40.9484 23.2276L41.0504 22.9555H41.1864L41.1354 22.6665L41.3735 22.6325C41.3961 22.5871 41.4301 22.5304 41.4755 22.4624C41.5322 22.3944 41.5888 22.3321 41.6455 22.2754L42.5127 21.1192L42.6487 20.8641L42.6317 20.7961L42.7507 20.6091L42.7847 20.4221L42.9377 20.286L42.9547 20.099ZM52.8616 23.4486L52.5385 23.7547L52.5215 23.8567C52.4875 24.0607 52.3911 24.2251 52.2324 24.3498C51.9604 24.8599 51.5807 25.2339 51.0932 25.472L50.8382 25.676L50.6172 25.71L50.3451 25.914L50.1581 25.931L49.733 26.2031L49.4609 26.1691L49.1549 26.3051L48.9168 26.2371L48.7978 26.3391L48.4748 26.2881L48.1517 26.3391L48.0327 26.2371L47.6926 26.1691L47.1995 25.795L46.9275 25.455C46.7575 25.2396 46.6724 25.0582 46.6724 24.9109V24.8599L46.5024 24.6048V24.3838C46.4684 24.2477 46.4514 24.1231 46.4514 24.0097V23.8907L46.3664 23.6016L46.4514 23.3976L46.3834 23.2616L46.5874 22.9385L46.5364 22.6665L46.6724 22.2244L46.7405 22.1224L46.8085 21.7143L46.7745 21.6463L46.9785 21.4252L47.0125 21.2552L47.1485 20.8641L47.3696 20.388L47.6756 20.116L47.7436 19.963L47.8457 19.7759L47.8797 19.6059L48.1517 19.2828C48.2197 19.2602 48.2991 19.2375 48.3897 19.2148C48.4351 18.9995 48.7185 18.8748 49.2399 18.8408C49.682 18.9315 49.9654 19.0505 50.0901 19.1978C50.2147 19.2205 50.3111 19.2715 50.3791 19.3509L50.7362 19.3679L50.9742 19.6739C51.0309 19.7873 51.0706 19.9006 51.0932 20.014L51.2293 20.15L51.1783 20.405C51.1896 20.4844 51.1953 20.6091 51.1953 20.7791L51.2803 20.8471V21.1022L51.3483 21.6293C51.1102 21.8673 50.8382 22.0033 50.5321 22.0373C50.3734 21.7426 50.1751 21.5216 49.937 21.3742L49.903 20.8131L49.801 20.6261V20.4901L49.631 20.286L49.546 20.218L49.3929 20.269H49.1719C49.0245 20.303 48.8828 20.4107 48.7468 20.5921C48.6108 20.7734 48.4748 20.9662 48.3387 21.1702L48.3217 21.3402L48.2197 21.4252V21.7313L47.9987 21.9693L47.7266 22.7175L47.7436 22.9215L47.6076 23.2276L47.6586 23.6016L47.5566 23.6526L47.5226 24.1287L47.5396 24.2137L47.7436 24.4178L47.8286 24.7748L48.0667 24.8428L48.0837 24.9789L48.3727 25.0299L48.5938 25.0809C48.6731 25.0355 48.7695 25.0129 48.8828 25.0129H49.0019C49.1379 24.9562 49.2626 24.9279 49.3759 24.9279C49.4553 24.8939 49.5573 24.8599 49.682 24.8258C49.818 24.6445 50.0107 24.5538 50.2601 24.5538H50.3621C50.4188 24.5538 50.4585 24.5255 50.4811 24.4688C50.6058 24.2761 50.8042 24.1514 51.0762 24.0947C51.3936 23.8113 51.575 23.5846 51.6203 23.4146C51.779 23.3239 51.881 23.1822 51.9264 22.9895L52.0284 22.9215L52.0794 22.5304C52.6008 22.6098 52.8616 22.8705 52.8616 23.3126V23.4486ZM63.8738 24.8428L63.7718 25.0299C63.7718 25.3586 63.6585 25.6137 63.4317 25.795C63.4317 25.9084 63.3921 25.9991 63.3127 26.0671L63.2277 26.2541L63.0067 26.4071L62.9046 26.5942L62.2245 26.9512L61.9015 27.0362L61.4084 27.0702L61.1363 26.9512L60.9153 26.9682L60.6943 26.8152L60.5242 26.7982L59.8441 26.4411L59.232 25.931C59.0506 25.7723 58.7786 25.5456 58.4158 25.2509L58.0418 24.7408L57.7357 24.4858L57.6847 24.3668L57.5317 24.1797C57.3843 23.9984 57.2086 23.8057 57.0046 23.6016L56.7155 23.4996L56.3925 22.8535L56.4435 22.5984C56.5115 22.2357 56.6929 22.0317 56.9876 21.9863L57.3106 22.0884L57.5827 22.3604L57.8717 22.5474H58.1438L58.2118 22.5984C58.3025 22.5984 58.3762 22.6041 58.4328 22.6154C58.5462 22.5588 58.7446 22.4964 59.028 22.4284L59.181 22.3944L59.283 22.1734H59.6911C59.8158 22.0713 59.9461 22.0147 60.0821 22.0033H60.1161C60.1502 21.924 60.1955 21.8276 60.2522 21.7143L60.5752 21.5613L60.7113 21.4252L60.9663 21.0002H61.0853C61.1307 20.8868 61.176 20.7281 61.2213 20.5241L61.3744 20.4221L61.2554 20.354L61.3234 20.065C61.3007 20.0196 61.2383 19.98 61.1363 19.946L60.9323 20.014L60.8643 19.878L60.6943 19.8099L60.6432 19.7419C60.4732 19.7193 60.2295 19.6966 59.9121 19.6739V19.6059L59.8101 19.6739C59.7194 19.6512 59.6514 19.6399 59.6061 19.6399C59.4587 19.6399 59.2433 19.7193 58.9599 19.878H58.7219C58.2912 20.0253 58.0474 20.133 57.9908 20.201L57.6167 20.32L57.0896 20.7451L56.5965 21.2382V21.3062L56.2735 21.8673L56.1714 22.1904L56.1034 22.2244V22.2924C56.0694 22.3604 56.0411 22.4227 56.0184 22.4794L55.9164 22.5304L55.9504 22.5814L55.8994 22.6665C55.8881 22.6891 55.8824 22.7175 55.8824 22.7515C55.8824 22.8081 55.9051 22.8592 55.9504 22.9045C55.9504 23.1425 55.8937 23.2956 55.7804 23.3636C55.7577 23.4089 55.7464 23.4543 55.7464 23.4996C55.7464 23.5336 55.752 23.562 55.7634 23.5846C55.7634 23.7773 55.7237 23.936 55.6443 24.0607C55.5877 24.1174 55.5537 24.1571 55.5423 24.1797L55.5933 24.4348L55.5423 24.7748L55.5593 25.0469C55.4686 25.2509 55.4233 25.4153 55.4233 25.54C55.446 25.6533 55.4573 25.7157 55.4573 25.727C55.4573 25.8517 55.3836 25.9821 55.2363 26.1181C55.1002 26.2541 54.9699 26.3221 54.8452 26.3221C54.6865 26.3221 54.5221 26.2258 54.3521 26.0331L54.1651 25.506L54.2161 25.1999L54.1651 24.5368L54.2161 24.3668V23.8227L54.2501 23.6016V23.4146C54.2501 23.1879 54.2614 22.9612 54.2841 22.7345C54.3068 22.4964 54.3181 22.3717 54.3181 22.3604V22.0713L54.3351 21.9183V21.4422L54.3861 21.3062L54.3351 21.1022L54.4031 20.5411V19.946L54.3351 19.6059L54.4201 19.4699L54.4031 19.4019L54.3351 18.4837L54.2161 17.9226V17.7696L54.3181 17.1915L54.2501 16.9704L54.2161 16.5624C54.1934 16.2903 54.1821 16.1713 54.1821 16.2053C54.1821 15.8086 54.4938 15.5989 55.1172 15.5762L55.4913 15.3721L55.4233 16.2053L55.4913 16.6814L55.3723 17.1745L55.4063 17.7186L55.4913 18.0246L55.4403 18.3137L55.4743 18.7217L55.4233 19.0618L55.5083 19.4189L55.4743 19.5039L55.5423 19.6739L55.4573 20.15V20.252L55.5423 20.5751C55.4856 20.5978 55.4573 20.6828 55.4573 20.8301L55.4063 21.2382L55.4403 21.3912L55.6443 21.0342L55.7464 20.6431C55.7464 20.6431 55.8257 20.5127 55.9844 20.252C55.9844 20.1387 56.0241 20.0367 56.1034 19.946H56.2905L56.4265 19.6569L56.8176 19.4699C56.9762 19.3112 57.1576 19.1978 57.3617 19.1298L57.4637 19.0448L57.7357 18.9088L57.9568 18.8578C58.1948 18.6537 58.7106 18.5177 59.504 18.4497L60.8303 18.5517L61.1023 18.7047L61.2383 18.7217L61.5274 19.0278L61.5444 18.9258C61.6918 18.9938 61.7994 19.1015 61.8675 19.2488C61.9241 19.2375 61.9468 19.2318 61.9355 19.2318C61.9808 19.2318 62.0262 19.2488 62.0715 19.2828L62.4286 20.014L62.4116 20.099C62.4682 20.2123 62.4966 20.3144 62.4966 20.405C62.4966 20.5637 62.4342 20.7224 62.3095 20.8811V20.9832L62.0715 21.6123L61.7144 22.1054L61.6124 22.1224C61.6124 22.1224 61.5444 22.213 61.4084 22.3944C61.2837 22.3944 61.1873 22.3604 61.1193 22.2924V22.5644L60.9833 22.6495L60.8813 22.8365L60.5752 22.9215C60.5299 22.9328 60.4789 22.9838 60.4222 23.0745C59.6401 23.3806 59.2036 23.5336 59.113 23.5336C59.079 23.5336 59.0109 23.5279 58.9089 23.5166C58.8182 23.4939 58.7389 23.4826 58.6709 23.4826C58.6255 23.4826 58.5915 23.4883 58.5689 23.4996C58.5802 23.5336 58.6425 23.6583 58.7559 23.8737L58.9769 24.0097L59.283 24.5538L59.7421 24.8258L59.7761 24.8939L59.9291 24.9789L60.1502 25.2339L60.5582 25.557L61.1023 25.778L61.4084 25.863L61.6294 25.846L61.7484 25.795C61.9751 25.761 62.1905 25.6703 62.3946 25.523L62.6836 24.9959L62.8536 24.7918L62.9557 24.4858C63.1257 24.4291 63.2617 24.4008 63.3637 24.4008C63.6244 24.4008 63.7945 24.5481 63.8738 24.8428Z" fill="black"/>
<path d="M23.1072 49.6671L22.8351 49.9562L22.7331 50.2622L22.376 50.4323V50.5683L22.07 50.6193L21.8829 50.8573C21.6902 50.9253 21.3955 51.0104 20.9988 51.1124C20.8514 51.2144 20.6701 51.2767 20.4547 51.2994C20.2393 51.4128 19.9673 51.5035 19.6385 51.5715L19.4345 51.5205L18.6864 51.7245L18.3123 51.7075L18.0062 51.6395C17.9156 51.6621 17.8362 51.6848 17.7682 51.7075L17.3261 51.7585L17.0541 51.7245L16.884 51.7755C16.8614 51.7755 16.7877 51.7528 16.663 51.7075L16.612 51.6905C16.5666 51.7132 16.5043 51.7358 16.425 51.7585C16.3343 51.7585 16.2379 51.7415 16.1359 51.7075L15.9829 51.7415C15.9149 51.7415 15.8639 51.7358 15.8298 51.7245C15.8072 51.7358 15.7732 51.7415 15.7278 51.7415C15.6485 51.7415 15.5578 51.7188 15.4558 51.6735L15.1667 51.7755L14.9797 51.5885L14.8607 51.6565L14.6566 51.5715C14.5546 51.6395 14.4639 51.6735 14.3846 51.6735C14.2939 51.6735 14.2089 51.6168 14.1295 51.5035C13.8122 51.4581 13.6535 51.1577 13.6535 50.6023C13.6535 50.2282 13.8235 50.0242 14.1635 49.9902C14.2882 49.9222 14.4299 49.8882 14.5886 49.8882H14.7076L15.2007 49.8372C15.5861 49.9618 15.7788 50.1262 15.7788 50.3302C15.7788 50.4209 15.7278 50.5116 15.6258 50.6023C15.6938 50.6023 15.7675 50.6193 15.8469 50.6533L16.1699 50.5853C16.3173 50.5853 16.4476 50.6363 16.561 50.7383C16.7423 50.6816 16.9464 50.6533 17.1731 50.6533H17.4961C17.6208 50.5739 17.7115 50.5343 17.7682 50.5343C17.8475 50.5343 17.9326 50.5626 18.0232 50.6193C18.1366 50.5399 18.25 50.4946 18.3633 50.4833L18.6864 50.6703L18.7204 50.6193C18.8111 50.608 18.9357 50.5853 19.0944 50.5513H19.2985L19.6215 50.3302C19.8256 50.3529 19.9446 50.3642 19.9786 50.3642C20.0466 50.3642 20.177 50.3076 20.3697 50.1942H20.5397L20.5907 50.1092L20.9648 49.8201L21.2028 49.8542C21.5315 49.6955 21.7356 49.5708 21.8149 49.4801C21.8376 49.4121 21.8489 49.3327 21.8489 49.242C21.8489 49.174 21.7582 49.123 21.5769 49.089L21.2708 48.868L20.9138 48.8L20.4037 48.902L20.2676 48.732L20.1316 48.766L19.9276 48.5789L19.8596 48.6299C19.6895 48.5959 19.5875 48.5789 19.5535 48.5789C19.4175 48.6016 19.3098 48.6243 19.2305 48.6469C19.1851 48.6243 19.1228 48.5733 19.0434 48.4939L18.9584 48.5279C18.7884 48.5733 18.59 48.6073 18.3633 48.6299L18.2443 48.5109L17.8532 48.4769L17.5302 48.3409L17.1561 48.3579L16.782 48.1709L16.476 47.9158L16.3569 47.5417L16.527 47.1507L16.918 47.0316C17.1788 46.8956 17.4225 46.8049 17.6492 46.7596L18.0572 46.6066L19.0094 46.4365L19.1795 46.3175H19.4855L19.6385 46.1305C19.6725 46.1418 19.7122 46.1645 19.7576 46.1985C19.9843 45.9831 20.2336 45.8754 20.5057 45.8754C20.517 45.8641 20.568 45.8358 20.6587 45.7904L20.6927 45.7564C20.7947 45.6771 20.9421 45.5864 21.1348 45.4844V45.3823C21.0441 45.2463 20.7267 45.1216 20.1826 45.0083L19.7576 45.0423C19.5535 44.9969 19.4005 44.9743 19.2985 44.9743C19.1738 44.9743 19.0491 44.9913 18.9244 45.0253H18.7374L18.4143 45.1103L18.1253 45.0253L17.9892 45.1783L17.3261 45.2293L16.918 45.3653C16.816 45.4674 16.7083 45.5184 16.595 45.5184C16.527 45.5184 16.4363 45.49 16.3229 45.4334C16.3003 45.5127 16.2719 45.5694 16.2379 45.6034H16.1359C15.9772 45.6034 15.8128 45.7394 15.6428 46.0115C15.5635 46.0115 15.5068 46.0058 15.4728 45.9945L15.3538 46.2835L14.7076 45.9945L14.5376 45.8074L14.6056 45.6884L14.4866 45.7054C14.4186 45.6034 14.3846 45.5127 14.3846 45.4334C14.3846 45.3767 14.3903 45.337 14.4016 45.3143L14.5036 44.9743L14.6056 44.8893C14.6963 44.7986 14.8097 44.7532 14.9457 44.7532H14.9967L15.1327 44.5832L15.4048 44.6342C15.5521 44.5209 15.7108 44.4642 15.8809 44.4642H15.9659C15.9659 44.3962 15.9999 44.3282 16.0679 44.2601H16.408L16.561 44.1751L16.833 44.1411L17.0711 44.3282L17.0541 44.1751H17.3091L17.5472 44.1071C17.6378 44.0844 17.8305 44.0448 18.1253 43.9881L18.3293 44.0051C18.5333 43.9484 18.7714 43.9201 19.0434 43.9201H19.2645L19.1965 43.9711H19.2815C19.3722 43.9711 19.4572 43.9938 19.5365 44.0391L19.7235 43.9711L20.0806 44.0051C20.16 44.0051 20.2733 43.9994 20.4207 43.9881C20.568 43.9881 20.6701 43.9881 20.7267 43.9881V44.1241L21.1178 44.2601L21.5939 44.3452L21.8149 44.6682L22.138 44.9063L22.291 45.2803L22.206 45.6544V45.6884C22.1833 45.7564 22.121 45.8754 22.019 46.0455C21.8716 46.2948 21.6506 46.4705 21.3558 46.5726L21.2198 46.7426L20.7777 46.9466L20.3867 47.0146L20.1486 47.1847L19.7746 47.2867L19.5025 47.4057L19.1624 47.3547L18.7544 47.4907L19.1795 47.6268H19.6385L19.8766 47.6097H20.0636C20.2336 47.6097 20.364 47.6494 20.4547 47.7288C20.6587 47.7968 20.8968 47.8308 21.1688 47.8308C21.2028 47.8648 21.2425 47.8988 21.2878 47.9328C21.2992 47.9328 21.3105 47.9271 21.3218 47.9158C21.3332 47.9158 21.3955 47.9271 21.5089 47.9498L21.8999 47.9838L22.155 48.1709H22.359L22.7671 48.5789L22.8691 48.987L23.1072 49.225L23.0391 49.4291L23.1072 49.6671ZM35.1715 48.8L35.1035 49.004L35.0355 49.3441L34.7294 49.5991L34.6614 49.8201L34.4574 49.8712L34.2363 50.1942L33.8453 50.2792L33.5052 50.5173L33.0121 50.5683L32.7571 50.8403L32.315 50.8063L32.1279 50.9594L31.8899 50.9253C31.6632 51.084 31.3968 51.1917 31.0908 51.2484L30.9717 51.1804L30.4786 51.5375L30.2916 51.4354L30.1726 51.5205L29.8665 51.4524L29.7475 51.5205L29.4415 51.5545L29.2034 51.5035L28.8974 51.7585L28.5403 51.6055V51.6225C28.5176 51.6451 28.4553 51.6735 28.3533 51.7075L28.2512 51.5885C28.0926 51.7132 27.9055 51.7755 27.6901 51.7755C27.6675 51.7755 27.6391 51.7755 27.6051 51.7755C27.5598 51.7642 27.5258 51.7585 27.5031 51.7585L27.2311 52.0475L26.908 52.1496L26.636 51.9965L26.5679 51.6905L26.1939 51.8095C26.2165 51.7868 26.2279 51.7698 26.2279 51.7585C26.2279 51.7472 26.2279 51.7302 26.2279 51.7075C26.2165 51.6848 26.2109 51.6621 26.2109 51.6395C26.2109 51.6055 26.2335 51.5828 26.2789 51.5715L26.0068 51.0274L26.0238 50.7213L25.9898 50.3472L26.0749 50.0752L26.0238 49.7011L26.1429 49.4291L26.0749 49.208L26.1259 48.834C26.0919 48.7093 26.0522 48.5733 26.0068 48.4259L25.9898 48.1879C25.6158 47.9952 25.4061 47.8138 25.3607 47.6438C25.4174 47.3717 25.5818 47.1563 25.8538 46.9976C25.8652 46.9863 25.9275 46.9466 26.0408 46.8786L25.9218 46.5046L26.0579 46.4535L25.9898 46.1985L26.0408 46.1305L25.9388 45.8754L25.9898 45.7394L25.9728 45.3483L25.7688 44.9403L25.8028 44.7702L25.7008 44.7022L25.7348 44.3112L25.6498 44.1751L25.5308 43.7671L25.5138 43.7501L25.3267 43.9031L25.1567 43.7841L24.9697 43.9031L24.9016 43.8181L24.6126 44.0051L24.4426 43.7501L24.1025 43.9541C23.5357 43.6254 23.2523 43.3363 23.2523 43.0869C23.2523 42.8602 23.3714 42.7242 23.6094 42.6789C23.7228 42.4975 23.8871 42.4068 24.1025 42.4068H24.1705L24.3575 42.4918L24.3916 42.4748C24.8903 42.4748 25.253 42.4975 25.4797 42.5428C25.6724 42.4975 25.8425 42.4748 25.9898 42.4748L26.0749 42.5428L26.1939 42.5088L26.67 42.6789L27.6561 42.7979C27.7128 42.7865 27.7978 42.7809 27.9112 42.7809C28.0585 42.7809 28.1662 42.7922 28.2342 42.8149L28.4213 42.7809C28.614 42.8036 28.767 42.8546 28.8804 42.9339L29.0164 43.0019C29.2431 43.0473 29.3961 43.0699 29.4755 43.0699L29.8835 43.0019L29.9686 43.1039C30.1159 43.1039 30.2463 43.1606 30.3596 43.274L30.8527 43.291L31.0568 43.478C31.2041 43.5347 31.3288 43.563 31.4308 43.563L31.7709 43.665L31.9069 43.8011H32.298L32.4 44.0391L32.7571 44.2601L32.8761 44.7872L32.604 45.2803C32.3547 45.5637 32.1053 45.7281 31.8559 45.7734L31.5838 45.9264L31.4478 45.8924L31.0908 46.1305C31.0114 46.1191 30.9434 46.1135 30.8867 46.1135L30.5297 46.2325L30.4957 46.2155L30.2746 46.5046L29.9516 46.5556C29.6568 46.7029 29.3621 46.7766 29.0674 46.7766L28.7273 46.9636H28.3703L28.0812 47.1337L27.8602 47.1677L28.4553 47.3547L28.7953 47.3037L29.3564 47.3717L30.0026 47.2697L30.0366 47.3377C30.1159 47.3264 30.2293 47.3207 30.3766 47.3207C30.6487 47.3207 30.8244 47.3774 30.9037 47.4907C30.9831 47.4341 31.0738 47.4057 31.1758 47.4057C31.3685 47.4737 31.4988 47.5077 31.5668 47.5077C31.6462 47.5077 31.7539 47.4794 31.8899 47.4227C32.0373 47.5021 32.315 47.5417 32.7231 47.5417L32.8761 47.6268C33.1821 47.6721 33.4315 47.7401 33.6242 47.8308H33.8963C34.0323 47.9668 34.1853 48.0348 34.3553 48.0348C34.4234 48.1028 34.6104 48.2332 34.9164 48.4259C35.0865 48.5393 35.1715 48.6639 35.1715 48.8ZM31.2438 44.9233V44.7872L31.1928 44.7702L31.0738 44.6342H30.8867L30.7167 44.5492C30.626 44.5265 30.5467 44.5039 30.4786 44.4812L30.2916 44.6172L29.9516 44.3622L29.6625 44.2772L29.5435 44.3452L29.2204 44.1751H29.1354C29.0221 44.1751 28.835 44.1581 28.5743 44.1241L28.1832 44.1751L27.9792 43.9881L27.7922 44.0221L27.7242 44.0051L27.6221 44.0901L27.2991 43.9711L27.2311 44.0051V44.4132L27.3501 44.7362L27.2481 44.9913L27.3501 45.3823L27.3161 45.7394L27.4181 46.0115L27.3331 46.3005V46.3345L27.6051 46.3175C27.6618 46.2948 27.7468 46.2722 27.8602 46.2495L27.8432 46.3005L28.0472 46.1475L28.0812 46.0115L28.5063 45.9945C28.8577 45.9038 29.0844 45.7961 29.1864 45.6714L29.3905 45.6884L29.4755 45.6204C29.6568 45.439 29.8495 45.3483 30.0536 45.3483H30.1216C30.1783 45.3483 30.2293 45.32 30.2746 45.2633L30.7337 45.1273H30.7847C30.9094 45.0253 31.0624 44.9573 31.2438 44.9233ZM33.6752 49.004L33.6242 48.97L33.3522 48.936L33.2842 48.851H33.1991L32.8081 48.6809L32.485 48.7149L32.332 48.5789L31.9919 48.6129C31.9239 48.5563 31.8502 48.5166 31.7709 48.4939C31.6689 48.5506 31.5725 48.5789 31.4818 48.5789C31.4025 48.5676 31.3118 48.5336 31.2098 48.4769C31.0171 48.4769 30.8074 48.4599 30.5807 48.4259L30.0026 48.4089C29.8099 48.3522 29.6342 48.3239 29.4755 48.3239C29.4075 48.3239 29.3224 48.3352 29.2204 48.3579L28.8464 48.4429L28.5913 48.2729L28.5743 48.3749L27.8262 48.3069C27.7242 48.2389 27.6618 48.1935 27.6391 48.1709C27.4464 48.1709 27.3501 48.2672 27.3501 48.4599V48.5619L27.3331 48.7149L27.4351 48.953L27.3501 49.208L27.3841 49.3271L27.3501 49.5651L27.4691 49.7691L27.5031 50.0922L27.3841 50.3642L27.4011 50.4493L27.4521 50.4833L27.4861 50.7383L27.9622 50.7213L28.2512 50.6193L28.7443 50.6363L28.8634 50.6873C28.8974 50.6533 28.954 50.625 29.0334 50.6023L29.3224 50.4663L29.7985 50.4833L30.2746 50.3302L30.6827 50.1602L30.9207 50.1772L31.3288 49.9902L31.9069 49.9562C32.1903 49.9448 32.4 49.8485 32.536 49.6671L32.7741 49.6841L32.9611 49.5991L33.0971 49.4121L33.4712 49.3101L33.5902 49.106L33.6752 49.004ZM45.9441 47.5077C45.8988 47.8705 45.7401 48.1085 45.468 48.2219L45.417 48.4429C45.2017 48.6243 45.009 48.7149 44.8389 48.7149C44.7709 48.8056 44.6122 48.868 44.3628 48.902L44.2268 48.97L43.5467 49.123L43.3427 49.038L43.1046 49.004L42.8496 49.055L42.5265 48.936V48.97L42.4075 49.106L42.4245 49.2931L42.3905 49.4801L42.4075 49.5991L42.2715 49.8712L42.3565 49.9392L42.2715 50.0412L42.3735 50.3642L42.2205 50.5343L42.3055 50.7723L42.2035 51.0784C42.2488 51.1351 42.2715 51.2031 42.2715 51.2824C42.2715 51.3391 42.2488 51.3901 42.2035 51.4354L42.2375 51.6055V51.6905C42.3621 51.8719 42.4925 52.0986 42.6285 52.3706L42.4245 52.5406C42.2998 52.6427 42.1524 52.6937 41.9824 52.6937C41.801 52.6937 41.6253 52.654 41.4553 52.5746L41.4213 52.1666L41.2683 51.9625V51.7585L41.0472 51.5715L41.1323 51.4184L41.0472 51.3334L41.1153 51.1634L41.0472 50.8403L40.9792 50.7043L41.1153 50.4493L41.0642 50.2622L41.1663 49.8201C41.1209 49.7635 41.0983 49.6898 41.0983 49.5991C41.0983 49.5424 41.1153 49.4801 41.1493 49.4121L41.1833 49.276C41.2059 49.1854 41.2173 49.106 41.2173 49.038C41.2173 49.0153 41.2173 48.9813 41.2173 48.936C41.2059 48.8906 41.2003 48.8566 41.2003 48.834L40.9452 48.6979C40.6278 48.6979 40.3445 48.6583 40.0951 48.5789H39.67L39.568 48.5109L39.2449 48.5959L39.0409 48.4429L38.6838 48.4769L38.5478 48.3749H38.3948C38.2474 48.4089 38.1227 48.4259 38.0207 48.4259C37.7146 48.5393 37.5559 48.5959 37.5446 48.5959C37.5333 48.5959 37.4709 48.6243 37.3576 48.6809L37.3066 48.817L37.1195 48.851C37.0175 48.8963 36.8758 48.919 36.6945 48.919H36.5414C36.4621 48.9643 36.3714 48.987 36.2694 48.987C36.156 48.987 36.054 48.9643 35.9633 48.919L35.9293 48.834L35.8103 48.8L35.6063 48.3069C35.6969 48.0802 35.8613 47.8931 36.0994 47.7458L36.1164 47.6778L36.2864 47.5077L36.6945 47.3207L37.2896 47.2867V47.3717L37.6636 47.0997L37.9357 47.1507L38.0377 46.9466L38.1907 46.8276L38.1567 46.6576L38.5988 46.5386C38.6555 46.4139 38.7348 46.3005 38.8368 46.1985L38.8709 46.1815C38.9502 46.0681 39.0182 45.9888 39.0749 45.9435L39.1429 45.9094C39.1996 45.8754 39.2336 45.8358 39.2449 45.7904L39.415 45.6204L39.534 45.3994L39.721 45.3143C39.8004 45.1216 39.8627 45.0083 39.908 44.9743C39.942 44.8836 40.0101 44.7872 40.1121 44.6852C40.0781 44.6852 40.0611 44.6739 40.0611 44.6512C40.0611 44.6059 40.1064 44.5379 40.1971 44.4472C40.2198 44.4245 40.3274 44.3565 40.5201 44.2431C40.5088 44.1751 40.5031 44.0731 40.5031 43.9371L40.8092 43.7501C40.9452 43.2966 41.1209 43.0699 41.3363 43.0699C41.3816 43.0699 41.5007 43.0983 41.6934 43.1549L41.7954 43.359L41.8804 43.41C41.9257 43.4327 41.9484 43.4893 41.9484 43.58V44.0561L41.7444 44.4302L41.6934 44.4642L41.6424 44.7532L41.4383 44.8212L41.3703 44.9743C41.359 45.1216 41.1663 45.3994 40.7922 45.8074C40.7922 46.0115 40.6788 46.1702 40.4521 46.2835L40.4011 46.3175C40.2878 46.4649 40.2084 46.5612 40.1631 46.6066C40.0837 46.7313 39.9534 46.8333 39.772 46.9126L39.67 46.9806L39.636 47.0997L39.3979 47.2357L39.3299 47.3037L39.415 47.3207L39.687 47.3037L39.942 47.4057C40.0667 47.4851 40.1744 47.5247 40.2651 47.5247H40.3161C40.8375 47.6041 41.0642 47.6438 40.9962 47.6438C41.0642 47.6438 41.1379 47.6268 41.2173 47.5927L41.4723 47.6608L41.5403 47.5247V47.3717L41.7104 47.1847C41.7104 47.1507 41.7274 47.0657 41.7614 46.9296L41.7104 46.5726L41.8464 46.5386L41.7954 46.4025C41.9087 46.3005 41.9654 46.2268 41.9654 46.1815C41.9654 46.1702 41.9314 46.0851 41.8634 45.9264C41.9201 45.8584 42.0051 45.7904 42.1184 45.7224L42.1354 45.1613L42.2035 45.1443L42.1864 45.0593C42.2545 44.9573 42.3111 44.8836 42.3565 44.8383C42.2998 44.7476 42.2715 44.6512 42.2715 44.5492C42.2715 44.4925 42.2771 44.4472 42.2885 44.4132L42.4075 44.2261L42.3735 44.0221L42.4415 43.648L42.4245 43.41C42.5378 43.0926 42.7589 42.9339 43.0876 42.9339C43.3257 43.0359 43.5297 43.2286 43.6997 43.512C43.7451 43.648 43.7677 43.8237 43.7677 44.0391L43.6147 44.2261L43.6317 44.6682L43.5807 44.8042L43.5297 44.9573L43.4107 45.1783L43.4617 45.4844L43.3427 45.5524L43.3257 45.7054L43.1726 46.0115L43.2066 46.2835L43.0196 46.9976L42.6795 47.7458L42.6965 47.8138L42.7816 47.8478L43.1896 47.9838L43.4107 47.9498C43.4333 47.9498 43.4673 47.9555 43.5127 47.9668C43.558 47.9668 43.592 47.9725 43.6147 47.9838L44.3968 47.7118L44.5669 47.5927L44.992 47.4907C45.1393 47.3094 45.315 47.2187 45.519 47.2187H45.6211L45.9441 47.5077ZM60.4295 51.5715C60.3615 51.7642 60.1461 51.9172 59.7834 52.0305L59.2393 51.6905L58.7122 51.0954L58.5422 50.7043L58.4912 50.3812L58.4232 50.2112C58.2758 49.8485 58.2021 49.5198 58.2021 49.225C58.2021 49.157 58.2191 49.072 58.2531 48.97L58.2871 48.936L58.3212 48.6129L58.1171 48.2389L58.1851 48.0348L58.1511 47.7628L58.1681 47.5247C58.1341 47.3887 58.1171 47.2697 58.1171 47.1677V47.0827C58.1171 46.8786 58.0888 46.6746 58.0321 46.4705V45.9945L57.9131 45.6884L57.8791 45.4504L57.709 45.5354L57.1649 46.2155L56.6889 46.7426L56.5018 47.0827L55.9747 47.6608L55.3966 48.0518L55.3286 48.3749L54.9886 48.4939L54.9205 48.6809L54.5125 48.868L54.3764 49.191L54.0704 49.2931L53.7303 49.8372L53.5263 49.9562C53.515 50.0128 53.4923 50.1205 53.4583 50.2792C53.2882 50.3699 53.1069 50.4153 52.9142 50.4153H52.8122L52.6421 50.0922L52.3871 49.7521L52.4211 49.5651L52.2511 49.3271L52.3361 49.208L52.3191 49.191L52.2341 48.919L52.098 48.817C51.8827 48.6016 51.7126 48.4032 51.5879 48.2219L51.4859 47.8988L51.3159 47.7118L50.9928 47.1167L50.6528 46.7426L50.5338 46.5386L50.2107 46.1985L49.8536 45.7054C49.831 45.6147 49.7743 45.524 49.6836 45.4334C49.6496 45.8414 49.5759 46.1418 49.4626 46.3345L49.1565 46.8446L49.2415 47.2187L49.0885 47.5927L48.7484 48.6469L48.6124 48.987L48.5784 49.208L48.3064 49.7691L48.0683 50.1432L48.1023 50.4833C48.0343 50.6646 47.938 50.863 47.8133 51.0784L47.9153 51.4864C47.5866 51.8152 47.3372 51.9795 47.1671 51.9795C46.9858 51.9795 46.8498 51.8945 46.7591 51.7245C46.6797 51.6338 46.6287 51.5318 46.606 51.4184V51.3504C46.8101 50.5116 46.9461 50.0922 47.0141 50.0922C47.0255 50.0922 47.0311 50.0979 47.0311 50.1092V49.8201C47.0311 49.5254 47.1445 49.3044 47.3712 49.157V49.055L47.4732 48.7149L47.4562 48.5959C47.4562 48.5393 47.5072 48.3806 47.6092 48.1198L47.6772 48.0518L47.6942 47.5927L47.8643 47.3037L48.1193 46.4535L48.0343 45.9264L48.2553 45.7394V45.6884L48.2893 45.0253L48.3404 44.7362C48.3744 44.6456 48.3914 44.5662 48.3914 44.4982V44.4302L48.1023 43.8861L48.1873 43.563L48.3234 43.529L48.4424 43.359L48.4254 43.223L48.6464 43.0189L48.7994 43.0869L49.0035 42.9169L49.2415 42.9509L49.6666 43.24V43.359L49.8196 43.461L49.8876 43.8521L50.0067 43.9541L50.1087 44.2772L50.0747 44.3452L50.2277 44.4642C50.2957 44.4302 50.3581 44.4132 50.4147 44.4132C50.4827 44.4472 50.5734 44.5209 50.6868 44.6342L50.7208 44.8723L50.8738 45.0423L50.9928 45.3994L51.775 46.1475L51.911 46.5726L52.166 46.7426L52.4381 47.4227L52.9652 48.3409C52.9765 48.3522 53.0105 48.3919 53.0672 48.4599L53.1012 48.5109H53.2712L53.4073 48.2219L53.8153 47.9668C54.0761 47.6834 54.2064 47.5304 54.2064 47.5077C54.2064 47.4964 54.1951 47.4907 54.1724 47.4907H54.1554C54.2121 47.4454 54.2858 47.4057 54.3764 47.3717C54.3991 47.3377 54.4785 47.2867 54.6145 47.2187C54.6938 47.0486 54.8299 46.9183 55.0226 46.8276L55.0906 46.7256V46.5726C55.3626 46.2325 55.5837 46.0341 55.7537 45.9775C55.7537 45.7961 55.9294 45.6317 56.2808 45.4844L56.5868 45.0593L56.6889 44.7702H56.8759C57.0119 44.5435 57.1083 44.3735 57.1649 44.2601L57.403 44.1581L57.522 44.1751L57.488 43.8351L57.335 43.495L57.573 43.1379L57.709 42.7129C57.8111 42.7129 57.9074 42.7072 57.9981 42.6959C58.0888 42.6845 58.1285 42.6789 58.1171 42.6789C58.1851 42.6789 58.3438 42.7355 58.5932 42.8489L58.6272 42.9849L58.8142 43.1379L58.8312 43.274L59.0013 43.41L58.9163 43.495C59.0863 43.563 59.1713 43.6594 59.1713 43.7841C59.1713 43.8294 59.16 43.8861 59.1373 43.9541V44.2261C59.16 44.2601 59.228 44.3622 59.3413 44.5322L59.2393 44.6172L59.2223 44.7022L59.2563 44.7192L59.3073 44.9913L59.5454 45.1783L59.3583 45.4164L59.2733 45.7904L59.3923 46.0625L59.3583 46.4535L59.5114 46.9636C59.5794 47.1903 59.6134 47.3717 59.6134 47.5077C59.6134 47.5871 59.5624 47.6948 59.4604 47.8308C59.5397 47.8761 59.5794 47.9441 59.5794 48.0348C59.5794 48.1142 59.5454 48.2162 59.4774 48.3409L59.5454 48.4089L59.4944 49.3611L59.6814 49.8882V50.4493C59.7494 50.5513 59.8061 50.6646 59.8514 50.7893C59.8741 50.8233 59.9988 50.9594 60.2255 51.1974C60.3502 51.3334 60.4182 51.4581 60.4295 51.5715ZM70.4771 44.5832L70.3921 44.6852L70.4431 44.9063C70.2731 45.2123 70.1201 45.4164 69.9841 45.5184C69.9047 45.6317 69.8027 45.7507 69.678 45.8754C69.5533 46.0001 69.4286 46.1021 69.3039 46.1815L68.7428 46.5386L68.4198 46.8616L67.9437 47.0316L67.0425 47.5247L66.8385 47.7458L66.6685 47.7798C66.6458 47.8025 66.6004 47.8421 66.5324 47.8988V48.0688C66.4191 48.0915 66.3624 48.1028 66.3624 48.1028L66.7025 48.3239L67.5186 48.953L68.1307 49.3101V49.4631L68.1987 49.5311L68.4198 49.6841L68.5728 49.9732C68.7768 50.1545 68.8789 50.3756 68.8789 50.6363L68.8278 50.9594C68.7938 51.2087 68.6805 51.4128 68.4878 51.5715C68.3064 51.7302 68.1081 51.8095 67.8927 51.8095C67.7793 51.8775 67.598 51.9455 67.3486 52.0135C67.1105 52.0022 66.9178 51.9852 66.7705 51.9625C66.6571 52.0079 66.4984 52.0532 66.2944 52.0986L66.2264 52.0305L65.8523 51.9625L65.5463 52.0646L65.2912 51.9795L65.1382 52.0135L64.5941 51.9795L64.4241 51.8945C64.186 51.8832 63.8403 51.8492 63.3869 51.7925L63.1318 51.5545L62.8768 51.5035L62.6387 51.5715L62.5367 51.3164L62.2987 51.2824V50.9934L62.1627 50.8573C62.072 50.7667 62.0266 50.6703 62.0266 50.5683C62.0266 50.4889 62.0606 50.3983 62.1286 50.2962C62.14 50.2736 62.1456 50.2282 62.1456 50.1602C62.3043 49.9335 62.3837 49.7465 62.3837 49.5991L62.5027 49.5141L62.5367 49.3101L62.7748 49.191C62.8654 49.089 62.9278 49.0267 62.9618 49.004L62.9958 48.97C63.0411 48.9473 63.1318 48.9077 63.2678 48.851L63.1488 48.885L63.4039 48.6469C63.4492 48.5563 63.5286 48.4939 63.6419 48.4599C63.7553 48.3465 63.8913 48.2785 64.05 48.2559C64.2087 48.2219 64.305 48.1765 64.339 48.1198L63.999 47.9838L63.7609 47.7798C63.6022 47.7231 63.4549 47.5984 63.3189 47.4057L63.1658 47.3887L63.1148 47.2187H63.0468L62.8938 46.9466L62.7067 46.8106L62.4007 46.1645L62.2647 45.9945C62.0833 45.8584 61.9926 45.7167 61.9926 45.5694C61.9926 45.4787 62.0663 45.3994 62.2137 45.3313L62.3497 44.9913L62.2987 45.0253C62.31 44.9346 62.3497 44.8269 62.4177 44.7022L62.5537 44.5832L62.5877 44.3962L62.9278 44.0051C62.9958 43.8917 63.0808 43.8067 63.1828 43.7501C63.2055 43.7274 63.3359 43.614 63.5739 43.41L63.948 43.308L64.5431 42.8489L64.8831 42.8149L65.2742 42.6789L65.5293 42.5768L65.4272 42.5938L65.4952 42.5768C65.9033 42.4748 66.2264 42.4238 66.4644 42.4238L66.7535 42.3898L67.1956 42.4408C67.2636 42.4748 67.3429 42.4918 67.4336 42.4918C67.4903 42.4918 67.5356 42.4862 67.5696 42.4748L68.5388 42.6279C68.6748 42.6619 68.7882 42.7185 68.8789 42.7979L69.1679 42.8319L69.2869 43.0189C69.525 43.0643 69.712 43.189 69.848 43.393L70.0861 43.7331L70.3751 44.0561L70.3241 44.2261L70.4771 44.5832ZM69.3209 44.4812C69.1849 44.3452 69.0942 44.2261 69.0489 44.1241C68.9469 44.0221 68.8222 43.8917 68.6748 43.7331C68.4481 43.6877 68.3291 43.665 68.3178 43.665C68.2497 43.665 68.1817 43.682 68.1137 43.716L67.5186 43.478H67.4846L67.5696 43.546L67.4846 43.7671L67.5866 43.9541C67.5299 44.3282 67.2976 44.5152 66.8895 44.5152C66.7875 44.5152 66.6571 44.4699 66.4984 44.3792L66.3794 44.1921L66.2434 44.2261L66.1074 44.0901L65.9883 44.1071L65.7503 44.2942L65.6143 44.2261C65.5123 44.2148 65.4102 44.1921 65.3082 44.1581C65.2175 44.1241 65.1665 44.1071 65.1552 44.1071C65.0305 44.2658 64.7358 44.3792 64.271 44.4472C64.1803 44.5832 64.0387 44.6626 63.846 44.6852C63.7893 44.7872 63.7213 44.8609 63.6419 44.9063L63.5229 45.2293L63.3869 45.2973L63.3359 45.4334L63.5399 45.6544L63.7609 46.3855L64.033 46.5046L64.067 46.6916L64.203 46.8276L64.271 46.9466L64.5091 47.0146L64.7811 47.2357L65.0872 47.3037L65.3082 47.4057L65.9203 47.1167L66.1754 46.8106L66.5494 46.7426C66.6741 46.6179 66.7705 46.5442 66.8385 46.5216C66.9065 46.4082 67.0255 46.3345 67.1956 46.3005L67.4676 46.2155L67.7907 45.9094L67.9437 45.8924V45.8244L68.1647 45.7054C68.2327 45.6034 68.3291 45.5354 68.4538 45.5014L68.4878 45.3823H68.6748C68.7655 45.1783 68.8449 45.0536 68.9129 45.0083L69.0149 44.8553C69.1622 44.6852 69.2643 44.5605 69.3209 44.4812ZM67.7397 50.5853C67.7397 50.4606 67.6546 50.3076 67.4846 50.1262L67.1956 49.9902L66.9745 49.7011L66.4474 49.4291L66.1074 49.089L65.5463 48.834L65.3762 48.6809C65.2175 48.6923 65.0702 48.7433 64.9341 48.834C64.8888 48.8453 64.7641 48.953 64.5601 49.157L64.5941 49.14L63.88 49.4801L63.999 49.6841L63.5059 49.9392C63.4492 50.1545 63.3302 50.2849 63.1488 50.3302C63.2282 50.3642 63.2792 50.4266 63.3019 50.5173C63.3359 50.608 63.3585 50.659 63.3699 50.6703L63.4549 50.7383L63.7779 50.8743H64.169L64.305 50.9764L64.6111 50.9083L64.9682 50.9934L65.2232 50.9764L65.5463 51.0274L66.0393 50.9764L66.2774 50.9934L66.6175 50.9764L66.9575 51.0954L67.2636 50.9253C67.2749 50.9367 67.3032 50.9423 67.3486 50.9423C67.4393 50.9423 67.564 50.863 67.7227 50.7043C67.734 50.6816 67.7397 50.642 67.7397 50.5853ZM81.7235 50.8403C81.7235 51.2711 81.3607 51.5375 80.6353 51.6395L80.2952 51.5375C80.2385 51.5601 80.1649 51.5715 80.0742 51.5715C79.9948 51.5715 79.9041 51.5488 79.8021 51.5035C79.7001 51.4581 79.6151 51.4354 79.5471 51.4354C79.207 51.4241 78.9406 51.3051 78.7479 51.0784L78.7139 51.0614C78.4986 50.9934 78.2945 50.8687 78.1018 50.6873L77.8468 50.5343L77.5577 50.2622L77.2177 49.8712L76.4525 49.055L76.0615 48.4259L76.0274 48.3409C75.9594 48.4429 75.8914 48.5619 75.8234 48.6979L75.5854 48.732L74.9903 49.208L74.6842 49.4291L74.4802 49.8031L73.2559 50.7043L73.0179 51.0954L72.5078 51.2824L72.3208 51.4864L72.1167 51.5035L71.7427 51.8945L71.5046 51.9795L71.2496 52.1326L71.1476 52.1666L71.0796 52.2516C70.9209 52.4443 70.7678 52.5406 70.6205 52.5406C70.3144 52.5406 70.1614 52.3536 70.1614 51.9795C70.4788 51.7415 70.6772 51.5261 70.7565 51.3334L70.8925 51.2994C70.8925 51.2881 70.9039 51.2257 70.9265 51.1124C71.2779 51.0104 71.5046 50.8233 71.6067 50.5513L71.9807 50.3812L72.1337 50.2622C72.2244 50.2056 72.3548 50.0639 72.5248 49.8372L72.8989 49.6331L73.1029 49.3951C73.2389 49.3497 73.3126 49.2534 73.324 49.106L73.613 49.038L73.9361 48.6809V48.5109L74.2251 48.3579L74.3782 48.0008L74.5992 47.9838L74.8032 47.6778L74.9903 47.6268L75.0073 47.4907L75.2623 47.3207C75.1376 47.06 74.9959 46.8559 74.8372 46.7086L74.6842 46.5386C74.6275 46.4819 74.5482 46.3799 74.4462 46.2325L74.3611 46.0795L74.1061 45.8754L73.46 45.1953L73.324 44.9913L73.1369 44.8042L72.7629 44.6342C72.1734 44.2601 71.8787 43.8861 71.8787 43.512C71.8787 43.4553 71.89 43.393 71.9127 43.325L72.0487 43.274L72.0997 43.0529L72.5078 42.8829L73.0689 42.9509L73.307 43.189L73.681 43.206L73.8 43.427L73.9871 43.512L74.0891 43.7671L74.3101 43.8521L74.4802 44.1071L74.8372 44.2772V44.6342L75.3813 45.1443L75.4493 45.3143H75.5174L75.8404 45.7564L76.0104 46.1815L76.1465 46.2835C76.2825 46.1475 76.4185 46.0455 76.5545 45.9775L76.6396 45.8244V45.7224L77.1496 45.2803L77.4217 44.9403L77.5067 44.7872L77.7278 44.4982L78.0848 44.1411L78.1528 43.9541C78.1755 43.9314 78.2378 43.8634 78.3399 43.7501C78.3512 43.6934 78.3682 43.6027 78.3909 43.478L78.7479 43.0019L79.003 42.7639L79.4111 42.6789C79.8418 42.7922 80.0572 43.0586 80.0572 43.478C80.0572 43.546 79.9778 43.7274 79.8191 44.0221C79.7398 44.1015 79.6434 44.2261 79.5301 44.3962V44.4982L79.4791 44.6002H79.3941L79.275 44.8212L79.173 44.8893L78.918 45.1443L78.7819 45.3143L78.7139 45.5354L78.5609 45.6034L78.4929 45.7904L78.3059 45.9094C78.2378 45.9548 78.1698 46.0398 78.1018 46.1645C78.0338 46.2892 77.9715 46.3799 77.9148 46.4365L77.8128 46.4705L77.5917 46.7936L77.3197 47.0316L77.1326 47.3037L76.9966 47.3887L77.1667 47.6268L77.3027 47.9498C77.484 48.1538 77.6087 48.2955 77.6767 48.3749L78.1018 48.902L78.1528 49.106L78.5779 49.4121L78.918 49.7521L79.241 49.8882L79.5641 50.1772C79.7114 50.2226 79.9098 50.2906 80.1592 50.3812H80.3632L80.4482 50.2792L80.6183 49.9562C80.8563 50.0015 81.1227 50.1262 81.4174 50.3302C81.6215 50.5116 81.7235 50.6816 81.7235 50.8403Z" fill="black"/>
</svg>
