<svg width="159" height="119" viewBox="0 0 159 119" fill="none" xmlns="http://www.w3.org/2000/svg">
<g filter="url(#filter0_d_3366_13206)">
<path d="M12 20C12 18.8954 12.8954 18 14 18H145C146.105 18 147 18.8954 147 20V126C147 127.105 146.105 128 145 128H14C12.8954 128 12 127.105 12 126V20Z" fill="white"/>
</g>
<path d="M47.3001 46.0484C46.9045 44.9604 45.8957 43.833 44.7287 43.3187C44.0957 43.0418 43.2254 42.6066 42.177 42.3099C41.8407 42.211 41.7023 42.211 41.3858 42.211C40.6144 42.211 40.2188 42.7055 40.2583 43.4374C40.2781 43.9319 40.3572 46.9385 40.3572 47.4527V53.3077C40.3572 54.0791 40.6144 54.4352 41.3462 54.4352C41.6034 54.4352 41.8803 54.3363 42.2759 54.1582C43.0276 53.822 43.977 53.3275 45.144 52.378C46.7858 51.0132 47.5572 49.6088 47.5572 47.6703C47.5572 47.0967 47.4781 46.5429 47.3001 46.0484ZM43.4825 51.4681C43.1462 51.7055 42.6122 52.0022 42.1177 52.2593C42.1375 51.844 42.1375 51.4088 42.1177 50.7165C42.0979 50.2615 42.0979 48.7187 42.0979 47.9077C42.0979 47.3538 42.1375 46.7802 42.1375 46.3055C42.1375 45.9297 42.1375 45.6527 42.1177 45.2374C42.0979 45.0198 42.0979 44.5253 42.0979 44.0505C42.9484 44.2879 43.7199 44.5846 44.2144 44.9011C45.3023 45.633 45.6583 46.5231 45.6583 47.6308C45.6583 49.2527 44.9858 50.4396 43.4825 51.4681ZM54.6716 52.2C54.6321 51.8835 54.6321 51.3692 54.6716 50.8945C54.731 50.1033 54.9288 48.8769 54.8892 48.4022C54.8496 48.0066 54.5925 47.8681 54.276 47.7495C54.098 47.6901 54.0584 47.5912 53.9595 47.3736C53.6628 46.622 53.2474 46.2066 52.3573 46.2066C51.2101 46.2066 50.0431 47.2154 49.0936 48.8176C48.4013 49.9648 47.9068 51.5077 47.9068 52.2791C47.9068 53.5055 48.7969 54.3165 50.0628 54.3165C50.9134 54.3165 51.6255 53.7429 52.298 52.8132C52.6145 52.378 52.8716 51.9824 53.1683 51.4088V51.6462C53.1683 53.2681 53.0496 54.2176 53.9793 54.2176C54.4936 54.2176 55.0079 53.9209 55.0079 53.5055C55.0079 53.2484 54.731 52.6747 54.6716 52.2ZM49.9046 52.7341C49.7068 52.7341 49.6672 52.5956 49.6672 52.4374C49.6672 52.022 49.8255 51.4879 49.9837 51.0527C50.3398 50.0637 51.8628 47.7099 52.4167 47.7099C52.5749 47.7099 52.6738 47.8286 52.6738 48.0264C52.6738 48.1846 52.6145 48.3626 52.5156 48.5604C52.4365 48.7385 52.3771 48.956 52.3771 49.1143C52.3771 49.3319 52.4167 49.4901 52.5551 49.6286C51.8826 51.0132 50.6958 52.7341 49.9046 52.7341ZM61.4039 46.2659C60.85 46.2659 60.5929 46.5429 60.3951 47.1165C60.0984 47.967 59.7424 49.0747 59.4259 50.2022C59.2676 50.7758 59.0896 51.4088 58.9314 52.0418C58.8918 51.9429 58.8325 51.8242 58.7731 51.7055C58.4369 51.0132 57.9424 49.7275 57.6061 48.7187C57.3094 47.8681 57.1907 47.3736 57.1314 46.8593C57.072 46.4637 56.7753 46.2462 56.3797 46.2462C55.7863 46.2462 55.272 46.5626 55.272 47.1165C55.272 47.5714 55.4698 48.1451 55.7665 48.9758C56.3204 50.4791 56.9929 52.1209 57.9424 53.8418C58.1204 54.1582 58.4369 54.356 58.8127 54.356C59.1094 54.356 59.327 54.4352 59.6039 54.4352C60.138 54.4352 60.3753 54.0791 60.4742 53.5648C60.5533 53.0308 60.6325 52.5758 60.7511 52.0615C60.9885 51.033 61.305 50.044 61.661 48.9758C61.7797 48.6198 61.9182 48.244 62.0764 47.9077C62.2149 47.611 62.294 47.3143 62.294 47.0967C62.294 46.6418 61.8588 46.2659 61.4039 46.2659ZM64.2284 45.178C64.8218 45.178 65.4152 44.6637 65.435 44.0308C65.4548 43.4374 65.1581 43.022 64.4855 42.9626C63.7735 42.8835 63.1207 43.2396 62.9823 43.8527C62.8438 44.5451 63.5361 45.178 64.2284 45.178ZM64.4064 54.356C64.9998 54.356 65.435 54.1978 65.435 53.6835C65.435 53.4857 65.3954 53.1692 65.3559 52.9121C65.2768 52.4374 65.1779 51.9626 65.1779 51.4484C65.1581 50.5582 65.0987 49.7868 65.0987 49.0747C65.0987 48.6791 65.1581 48.4022 65.1581 47.4923C65.1581 46.7802 64.9405 46.2857 64.1097 46.2857C63.5954 46.2857 63.3976 46.622 63.3976 47.0769C63.3976 48.4813 63.457 49.5495 63.4965 50.6769C63.5163 51.389 63.5361 53.367 63.5559 53.5451C63.5954 54.0396 63.9119 54.356 64.4064 54.356ZM74.1441 53.2088C74.0649 52.6549 74.0451 52.2396 73.9858 51.567C73.9265 50.8352 73.9265 49.9253 73.9265 48.9758C73.9265 48.6 73.9858 48.2242 73.9858 47.433V44.2088C73.9858 43.4769 74.0649 42.4879 74.0649 41.9934C74.0649 41.5385 73.5902 41.2022 73.0561 41.2022C72.5221 41.2022 72.1265 41.5385 72.1265 42.0527C72.1265 42.3494 72.1462 43.9121 72.1462 44.9011V46.3846C71.7902 46.1473 71.4144 46.0286 70.999 46.0286C69.0012 46.0286 66.6276 49.589 66.6276 52.3978C66.6276 53.4857 67.6166 54.3363 68.843 54.3363C70.1484 54.3363 71.4144 53.4462 72.3045 52.5165V52.9121C72.3045 53.3275 72.3441 53.822 72.4232 54.0198C72.5616 54.3758 72.977 54.5736 73.3528 54.5538C73.788 54.5143 74.1243 54.2374 74.1638 53.822C74.1836 53.644 74.1836 53.4659 74.1441 53.2088ZM68.9419 52.7538C68.5858 52.7538 68.5067 52.5956 68.5067 52.2396C68.5067 50.5187 70.3462 47.5912 71.1968 47.5912C71.5331 47.5912 71.6715 47.9868 71.6913 48.2835C71.7506 49.0549 72.2649 48.956 72.2649 49.4901C72.2649 50.7956 69.8715 52.7538 68.9419 52.7538ZM84.4682 54.2374C85.1605 54.2374 85.8924 54.0989 86.5847 53.8813C88.0682 53.3868 88.9979 52.2791 88.9979 50.9736C88.9979 48.956 87.5341 48.2044 85.5561 48.1451C84.1517 48.0857 83.4001 48.0659 83.0836 48.0066C82.7671 47.967 82.7275 47.8879 82.7275 47.7099C82.7275 47.3143 83.044 46.5429 83.4594 45.8901C83.9144 45.1582 85.121 43.7143 85.833 43.7143C86.3275 43.7143 86.5451 44.0703 86.5451 44.5451C86.5451 44.8418 86.5056 45.1187 86.3869 45.3363C86.1693 45.7912 86.0308 45.989 86.0308 46.2659C86.0308 46.7011 86.4264 46.9582 86.9012 46.9582C87.91 46.9582 88.3253 46.0879 88.3253 45.0791C88.3253 43.7538 87.6726 42.7451 86.5056 42.3692C86.1891 42.2703 85.9122 42.2308 85.5957 42.2308C84.5869 42.2308 83.6968 42.8242 82.6682 43.9912C81.7583 45.0593 80.7693 46.8593 80.7693 48.2044C80.7693 48.8571 81.1649 49.411 81.8968 49.6088C82.688 49.8264 83.5781 49.8659 85.2396 49.9253C86.4462 49.9846 87.1781 50.2615 87.1781 50.9538C87.1781 51.6264 86.5056 52.0813 85.7935 52.378C85.3979 52.5165 84.844 52.5956 84.2902 52.5956C83.3407 52.5956 82.1539 52.1011 81.8374 51.4484C81.6199 50.9934 81.4616 50.7956 80.9078 50.7956C80.3737 50.7956 80.0177 51.211 80.0177 51.6659C80.0177 52.5165 81.0858 53.4857 82.3517 53.9011C82.9451 54.0989 83.8748 54.2374 84.4682 54.2374ZM100.593 47.4923C100.415 46.8 99.5252 46.2066 98.6747 46.2066C97.7648 46.2066 96.7362 47.0967 96.0043 48.244C95.7274 47.1363 94.9955 46.2857 93.9867 46.2857C93.1362 46.2857 92.4241 46.8198 91.8703 47.6901C91.89 47.3538 91.9098 47.0967 91.9098 46.978C91.9098 46.6418 91.534 46.2857 91.1582 46.2462C90.9999 46.2066 90.901 46.2066 90.7823 46.2066C90.3076 46.2066 90.0307 46.5626 90.0307 46.978C90.0307 47.5516 90.2087 48.8374 90.2087 49.3714V52.6352C90.1889 53.1692 90.1889 53.3868 90.1889 53.6835C90.1889 54.1187 90.5252 54.4154 91.0197 54.4154C91.5142 54.4154 92.0087 54.0198 92.0087 53.5451C92.0087 53.1297 91.9494 52.8132 91.9494 52.5165C91.9494 52.1407 91.9494 51.9033 91.9692 51.3297C91.9889 50.9341 91.9889 50.2022 92.0878 49.8462C92.2659 49.2132 93.3538 47.8088 94.0065 47.8088C94.1252 47.8088 94.2043 47.9077 94.2439 48.1253C94.323 48.4418 94.4021 48.956 94.501 49.767C94.5604 50.3802 94.6988 52.378 94.6988 52.9714C94.6988 53.1495 94.679 53.2484 94.679 53.4066C94.679 53.8418 94.9955 54.0989 95.5098 54.0989C96.0439 54.0989 96.4197 53.7626 96.4197 53.1495C96.4197 52.2791 96.3999 51.6857 96.3801 51.1319C96.7164 50.0835 97.3296 49.1143 97.6659 48.6396C98.0219 48.1451 98.4373 47.789 98.6944 47.789C98.7736 47.789 98.8329 47.8286 98.8725 47.9275C98.9318 48.0659 99.0307 48.6396 99.0307 49.4901C99.0307 50.044 98.9318 52.022 98.7736 53.189C98.7538 53.3275 98.734 53.5055 98.734 53.6835C98.734 54.1582 99.0307 54.4945 99.5845 54.4945C100.079 54.4945 100.574 54.1187 100.613 53.644C100.633 53.3473 100.633 53.0703 100.633 52.8923C100.633 52.7143 100.752 49.9648 100.752 49.0747C100.752 48.422 100.712 47.9473 100.593 47.4923ZM103.823 45.1582C104.357 45.1582 104.812 44.5253 104.812 43.8923C104.812 43.2396 104.1 42.7846 103.428 42.7846C102.716 42.7846 102.261 43.1802 102.261 43.7341C102.261 44.4857 102.953 45.1582 103.823 45.1582ZM103.803 54.2967C104.298 54.2967 104.674 53.9011 104.674 53.4659C104.674 52.9319 104.555 52.4571 104.535 52.1209C104.476 51.0527 104.436 49.9451 104.436 49.0549C104.436 48.4022 104.476 47.7692 104.476 47.0967C104.476 46.5429 104.16 46.2462 103.586 46.2462C103.072 46.2462 102.676 46.5231 102.656 46.9978C102.617 47.611 102.617 48.2044 102.617 48.8374C102.617 49.589 102.676 50.5385 102.676 51.4681V53.3473C102.676 53.9407 103.111 54.2967 103.803 54.2967ZM111.02 51.1121C110.644 51.1121 110.407 51.3495 110.229 51.7451C109.893 52.4967 109.576 52.7736 109.299 52.7736C108.627 52.7736 108.567 52.2791 108.449 51.2308C108.35 50.4791 108.35 49.7868 108.35 48.7978V48.3824C108.508 48.3626 108.666 48.3231 108.825 48.3033C109.636 48.1846 110.288 48.0462 110.901 48.0066C111.416 47.967 111.752 47.611 111.752 47.0374C111.752 46.622 111.534 46.3451 111.119 46.3451C110.803 46.3451 109.497 46.5429 108.904 46.622C108.765 46.6418 108.587 46.6615 108.389 46.7011C108.409 45.6725 108.449 44.644 108.488 44.2879C108.548 43.6945 108.567 43.3187 108.567 43.1407C108.567 42.6462 108.251 42.3099 107.737 42.3099C106.787 42.3099 106.688 42.9231 106.629 44.7231C106.609 45.3165 106.609 46.2462 106.609 46.6813V46.9582C106.095 47.0769 105.818 47.3341 105.818 47.8088C105.818 48.1055 106.016 48.3824 106.372 48.5604C106.471 48.6198 106.51 48.6791 106.51 48.7582C106.51 48.8967 106.53 49.233 106.53 49.7275C106.53 50.3604 106.57 50.8549 106.688 51.8242C106.866 53.2484 107.836 54.2571 109.161 54.2571C109.675 54.2571 110.071 54.178 110.644 53.8813C111.317 53.5253 111.93 52.6747 111.93 51.9824C111.93 51.4879 111.534 51.1121 111.02 51.1121ZM120.06 49.5692C119.922 47.6703 119.665 46.2264 117.983 46.2264C116.975 46.2264 115.768 46.8 114.898 47.9275C114.878 47.4923 114.878 46.978 114.878 46.2659C114.858 45.4352 114.878 43.6549 114.937 42.8044C114.997 41.6769 114.898 41.1824 113.889 41.1824C113.137 41.1824 113.078 41.9341 113.078 43.0615V45.0396C113.078 45.7714 113.177 46.9582 113.177 47.789C113.177 48.6396 113.256 49.9253 113.295 50.9143C113.335 52.1407 113.295 52.7538 113.315 53.367C113.335 54.0791 113.651 54.4747 114.205 54.4747C114.779 54.4747 115.254 54.0396 115.254 53.5253C115.254 52.8923 115.135 52.1407 115.155 51.5473C115.194 50.3209 115.412 49.4505 116.124 48.6989C116.717 48.0857 117.192 47.8681 117.588 47.8681C118.3 47.8681 118.3 49.2923 118.3 50.9538C118.3 51.6264 118.161 53.2088 118.161 53.5846C118.161 54.1978 118.478 54.5341 119.091 54.5341C119.783 54.5341 120.1 54.0593 120.1 53.4066V51.4088C120.1 50.7956 120.1 50.2022 120.06 49.5692Z" fill="black"/>
<path d="M61.8507 74.4462C62.4969 73.8923 62.943 72.9385 62.943 72.0154C62.943 71.1231 62.3892 70.6923 61.6507 70.6923C60.2353 70.6923 59.1738 71.4769 58.5123 72.3077C58.3892 72.4615 58.2969 72.6308 58.2969 72.8154C58.2969 73.1231 58.4969 73.2462 58.6815 73.2462C58.8507 73.2462 58.9738 73.1846 59.1584 72.9077C59.7123 72.0923 60.5738 71.4154 61.4969 71.4154C61.9738 71.4154 62.0815 71.8154 62.0815 72.2154C62.0815 73.4308 60.9276 74.4154 59.7123 74.7846C59.3123 74.9077 59.2353 74.9846 59.2353 75.2C59.2353 75.5077 59.4969 75.7385 59.743 75.7385C60.0046 75.7385 60.1584 75.5846 60.4353 75.4769C60.8815 75.3077 61.3123 75.2 61.7584 75.2C62.7584 75.2 63.4046 75.6308 63.4046 76.6C63.4046 78.0154 61.6353 79.2923 60.2815 79.2923C59.4661 79.2923 58.5276 78.7692 58.5276 78.1077C58.5276 77.8615 58.6815 77.8 58.6815 77.5538C58.6815 77.3846 58.5276 77.1538 58.2661 77.1538C57.9276 77.1538 57.6046 77.4154 57.6046 77.8923C57.6046 78.3077 57.82 78.7692 58.0661 79.0769C58.743 79.9231 59.6815 80.1077 60.4046 80.1077C62.2353 80.1077 64.3584 78.4 64.3584 76.6C64.3584 75.3077 63.3892 74.4154 61.8507 74.4462ZM68.4335 74.4615H68.2643C68.6181 74.3231 68.8951 74.2154 68.9874 74.1692C69.9874 73.6923 70.9566 73.0308 71.0181 72.2308C71.0181 72.0308 71.0028 71.8923 70.9105 71.7692C70.6643 71.3846 69.9412 71.0769 69.5566 71.0154C69.2028 70.9538 68.8489 70.9231 68.5105 70.9538C68.0028 71 67.6181 71.0462 67.1412 71.2C67.0181 71.2462 66.6951 71.3538 66.6335 71.3538C66.5105 71.3538 66.3412 71.2769 66.2181 71.2769C66.0181 71.2769 65.9105 71.4 65.8643 71.6769C65.7258 72.5077 65.6489 73.3846 65.6489 74.2308V74.6923C65.4797 74.8 65.4335 74.9231 65.4335 75.0462C65.4335 75.2923 65.4951 75.4308 65.6335 75.4923C65.6181 76.1692 65.6181 76.9077 65.6028 77.1846C65.5874 77.5692 65.5874 77.9385 65.5412 78.3231C65.5258 78.4769 65.4797 78.7846 65.4797 78.9385C65.4797 79.1846 65.5566 79.4154 65.8797 79.4154H66.0181C65.9874 79.4769 65.972 79.5538 65.972 79.6308C65.972 80.2 66.8797 80.3231 67.9874 80.3231C69.5105 80.3231 71.0951 79.7385 71.8489 78.4308C72.0951 78.0154 72.2181 77.5692 72.2181 77.1077C72.2181 75.2769 70.4489 74.4615 68.4335 74.4615ZM66.572 72.4308C66.5874 72.2769 66.6797 72.1538 66.8181 72.0923C67.4797 71.8 68.1105 71.6615 68.7258 71.6615C69.2335 71.6615 70.1566 71.7538 70.1566 72.2C70.1566 72.6615 69.2028 73.2769 68.5258 73.6154C67.6797 74.0308 67.2181 74.2154 66.4797 74.4308C66.4951 74.1231 66.4951 73.9077 66.4951 73.8615C66.4951 73.4 66.5258 72.8923 66.572 72.4308ZM70.4181 78.8769C69.5412 79.4154 68.6643 79.5538 67.572 79.5538C66.7258 79.5538 66.8951 79.1538 66.4028 79.1538H66.3874C66.4028 79.0769 66.4181 78.9692 66.4181 78.8462V77.4308C66.4181 77.1385 66.4489 76.1231 66.4643 75.2462C66.6028 75.1846 66.7874 75.1385 67.0335 75.1077C67.7258 75.0462 68.9258 75.1385 69.6951 75.3538C70.6489 75.6308 71.1412 76.0154 71.3105 76.5538C71.372 76.7231 71.3874 76.9077 71.3874 77.0769C71.3874 77.8308 71.0335 78.4923 70.4181 78.8769ZM79.4162 76.2154C79.2162 76.2154 79.0008 76.2923 78.8008 76.2923C78.7239 76.2923 78.4931 76.3077 78.1547 76.3385C78.1393 75.7692 78.1393 75.1385 78.1239 74.9077C78.0931 74.1077 78.0624 72.3538 78.0624 71.1077C78.0624 70.8 77.8624 70.6615 77.6162 70.6615C77.447 70.6615 77.3701 70.7077 77.3239 70.8154C77.2778 70.7846 77.2162 70.7692 77.1547 70.7692C76.9547 70.7692 76.847 70.8 76.6624 71.0462C76.4778 71.2769 76.3085 71.5385 76.1547 71.7846C75.8008 72.3385 75.4778 72.8615 74.8778 73.8923C74.1547 75.1385 73.447 76.3231 72.8316 77.0462C72.7547 77.1385 72.7239 77.2462 72.7239 77.3538C72.7239 77.6615 73.047 77.8769 73.3085 77.8769C73.3855 77.8769 73.4778 77.8615 73.5547 77.8308C74.2778 77.5385 75.4008 77.4154 76.0778 77.3385C76.4008 77.3077 76.8624 77.2615 77.4008 77.2308C77.4008 77.6154 77.4162 77.9538 77.4162 78.1692C77.4162 78.5385 77.4008 79 77.3701 79.6C77.3547 79.9385 77.6008 80.1385 77.8931 80.1385C78.247 80.1385 78.3239 80.0462 78.3085 79.6154C78.2778 78.7077 78.2316 78.1538 78.1701 77.4V77.1692C78.2624 77.1692 78.3547 77.1538 78.447 77.1538C78.7085 77.1385 78.9701 77.1385 79.2316 77.1077C79.5085 77.0769 79.8162 76.9692 79.8162 76.6308C79.8162 76.3385 79.6931 76.2154 79.4162 76.2154ZM74.047 76.8769C74.8931 75.6462 76.6624 72.5385 77.2778 71.6154C77.2624 72.2308 77.247 73 77.2778 74.0923C77.2931 74.6769 77.3393 75.5846 77.3701 76.4154C76.3701 76.5231 75.047 76.6923 74.047 76.8769ZM86.7648 71C86.2417 71 85.8417 71.9692 85.3648 72.9077L84.4725 74.7077C84.3956 74.8615 84.3187 75.0154 84.2571 75.1538C84.011 74.7538 83.7187 74.2 83.4264 73.5538C82.9802 72.5846 82.7802 72.1077 82.5802 71.6154C82.4725 71.3385 82.3494 71.1846 82.0879 71.1846C82.0417 71.1846 81.9956 71.1846 81.9494 71.2C81.8879 71.1077 81.7494 71.0615 81.6417 71.0615C81.3802 71.0615 81.134 71.1846 81.134 71.5538C81.134 71.8 81.1494 71.9846 81.1494 72.3846C81.1494 72.8154 81.1494 73.7538 81.134 74.8769C81.1187 75.7846 81.1033 76.7077 81.1033 77.6154C81.1033 78.2462 81.0725 78.9538 81.0725 79.5846C81.0725 79.8923 81.134 80.0769 81.4725 80.0769C81.8725 80.0769 81.9802 79.9692 81.9802 79.6308C81.9802 79.3231 81.9802 78.9385 81.9648 78.6154C81.934 78.0154 81.8879 77.4154 81.8879 76.8154V74.7846C81.8879 74.2308 81.9187 73.3077 81.9648 72.5846C81.9648 72.4769 81.9648 72.3231 81.9802 72.1692L82.3033 72.9385C82.4879 73.3692 82.934 74.2769 83.2725 74.9231L83.8417 76C83.7033 76.2923 83.6264 76.4615 83.6264 76.5231C83.6264 76.7231 83.9033 76.8769 84.211 76.8769C84.3648 76.8615 84.5494 76.7846 84.6264 76.5231C84.6725 76.3538 84.7494 76.1231 84.8725 75.7538C85.011 75.3692 85.3033 74.8 85.5494 74.3231C86.1494 73.1538 86.4725 72.5538 86.811 72.0769C86.7802 72.4 86.7494 72.9692 86.6725 74.1846C86.5802 75.6923 86.5648 77.0769 86.5648 78.4462C86.5648 78.9385 86.534 79.3692 86.534 79.7231C86.534 80 86.611 80.1231 86.9956 80.1231C87.2264 80.1231 87.4417 79.9538 87.4417 79.7538V75.9538C87.4417 74.7538 87.4879 73.5692 87.534 72.3846C87.5494 72.0308 87.5956 71.7692 87.5956 71.4154C87.5956 71.0923 87.1802 71 86.7648 71ZM92.3081 75.8C92.5081 75.6 92.7081 75.3692 92.9543 75.0769C93.4312 74.4769 93.8312 73.5846 93.8312 72.9231C93.8312 72.5385 93.6466 72.0615 93.3543 71.7231C93.4004 71.6615 93.4158 71.6 93.4158 71.5385C93.4158 71.0769 93.0158 70.7385 92.185 70.7385C90.8004 70.7385 89.2312 71.6615 89.2312 72.8615C89.2312 73.7692 90.062 74.7077 91.1389 75.6923C91.0004 75.8 90.862 75.9077 90.7235 76C89.7389 76.6769 88.785 77.4615 88.785 78.0308C88.785 79.2923 90.0927 80.0923 91.5543 80.0923C92.7543 80.0923 94.1389 79.4923 94.1389 78.3385C94.1389 77.4308 93.2466 76.6154 92.3081 75.8ZM90.2004 73.0615C90.2004 72.3077 91.0773 71.6 91.8312 71.6C92.1543 71.6 92.3235 71.6462 92.462 71.7077C92.5543 71.7538 92.662 71.8154 92.7389 71.9231C92.8927 72.1385 92.9697 72.4462 92.9697 72.7231C92.9697 73.7692 92.4312 74.5692 91.6927 75.2462C90.9389 74.5385 90.2004 73.7385 90.2004 73.0615ZM91.1543 79.3385C90.4312 79.3385 89.7081 78.7538 89.7081 78.1846C89.7081 77.7231 90.1235 77.4154 90.7389 77C91.185 76.6923 91.5081 76.4769 91.785 76.2615C92.4773 76.8462 93.1235 77.4154 93.1235 78.0615C93.1235 78.9692 92.1543 79.3385 91.1543 79.3385ZM100.987 71.8462C101.048 71.7385 101.11 71.6308 101.11 71.5385C101.11 71.4769 101.11 71.3846 100.987 71.2923C100.848 71.1692 100.695 71.1231 100.587 71.1231C100.156 71.1231 100.11 71.2615 100.048 71.5538C100.002 71.7538 99.8791 71.9846 99.7715 72.1846C99.6484 72.4 99.2638 73.0923 99.0022 73.5692L98.4176 74.6308C98.1099 74.0462 97.7715 73.3538 97.4945 72.8308C97.2176 72.2923 96.9407 71.7538 96.833 71.5077C96.7407 71.2923 96.633 71.1385 96.4791 71.1077C96.3868 71.0923 96.1715 71.0769 96.0791 71.0769C95.8945 71.0769 95.7715 71.1846 95.7715 71.3692C95.7715 71.5231 95.9407 71.8154 96.1561 72.1846C96.433 72.6769 96.8176 73.3846 97.2022 74.1077C97.5407 74.7538 97.7099 75.0769 97.9253 75.5077C97.6945 75.9231 97.4945 76.2923 97.2945 76.6769L96.4638 78.2615C96.2484 78.6769 95.9868 79.1692 95.7253 79.6308C95.6638 79.7538 95.6638 79.8615 95.6945 79.9385C95.7407 80.0615 96.0791 80.1385 96.2022 80.1385C96.4638 80.1385 96.5868 80.0308 96.6945 79.8308C96.7868 79.6615 96.8638 79.5077 96.9561 79.3077L97.8484 77.4154C98.0022 77.0923 98.1868 76.7231 98.3561 76.4154C98.4791 76.6615 98.6022 76.9385 98.6791 77.0923L99.2638 78.3385C99.4176 78.6769 99.5715 79.0154 99.6484 79.2154C99.7407 79.4769 99.8022 79.6308 99.8945 79.8154C99.9715 79.9692 100.079 80.1231 100.356 80.0462C100.664 79.9538 100.925 79.6308 100.833 79.4308C100.741 79.2308 100.295 78.4615 99.9407 77.7385C99.6638 77.1692 99.3099 76.4154 98.8638 75.5077C99.2484 74.8308 99.633 74.1692 99.9407 73.6462C100.295 73.0462 100.648 72.4462 100.987 71.8462Z" fill="black"/>
<path d="M71.2618 102.831C70.4156 102.831 68.4156 103.031 67.0002 103.231C67.5541 102.754 67.9695 102.2 68.8156 101.092C69.6618 99.9692 70.8156 98.1846 70.8156 96.6923C70.8156 95.8 70.0002 94.9692 69.0156 94.9692C67.4464 94.9692 66.1848 96.1538 66.1848 97.8308C66.1848 98.1538 66.3079 98.4154 66.7541 98.4154C66.9541 98.4154 67.0464 98.3385 67.0464 98.0308C67.0464 96.8154 67.9695 95.7385 69.1541 95.7385C69.6925 95.7385 69.9079 96.1231 69.9079 96.5846C69.9079 97.1231 69.7387 97.7692 69.4618 98.3692C68.9695 99.4308 68.3695 100.215 67.8618 100.954C67.1541 101.985 66.431 102.769 65.6925 103.323C65.5387 103.446 65.4618 103.508 65.4618 103.615C65.4618 103.815 65.831 104.185 66.0618 104.185C66.231 104.185 66.3233 104.154 66.6618 104.077C67.7848 103.846 69.1387 103.785 71.4156 103.785C71.6618 103.785 71.8618 103.646 71.8618 103.4C71.8618 103.123 71.6771 102.831 71.2618 102.831ZM77.4892 96.4154C77.3353 96 76.9199 95.5077 76.5046 95.2769C76.3815 95.0462 76.0892 94.8 75.7046 94.8C75.5046 94.8 75.243 94.8615 74.7815 95.2154C73.8738 95.9231 73.0892 96.9077 72.643 98.5538C72.4584 99.2154 72.3507 100.031 72.3507 100.831C72.3507 101.554 72.4276 102.385 72.6276 102.938C72.9353 103.769 73.4122 104.2 74.2738 104.2C75.6122 104.2 76.7199 103.277 77.3815 101.708C77.7507 100.815 77.9353 99.8769 77.9353 98.9231C77.9353 98.0769 77.7815 97.2308 77.4892 96.4154ZM76.2738 102.062C75.8122 102.862 75.0122 103.415 74.4738 103.415C73.9199 103.415 73.7815 103.246 73.5661 102.815C73.2892 102.308 73.1969 101.615 73.1969 100.969C73.1969 99.3846 73.6122 98.1385 74.3046 96.9385C74.4738 96.6615 75.3046 95.7846 75.5199 95.7846C75.7199 95.7846 75.843 96 76.2276 96H76.2892C76.4122 96.1077 76.4892 96.2462 76.6122 96.4769C76.9815 97.2 77.0584 97.8923 77.0584 98.7538C77.0584 99.7538 76.7969 101.123 76.2738 102.062ZM84.0431 102.985C83.5354 102.985 83.0277 103.062 82.52 103.062C81.8277 103.062 81.2123 103.108 80.3046 103.262C81.2431 101.969 82.0123 100.769 82.1662 100.554C82.8277 99.6 83.4123 98.2615 83.4123 97.0923C83.4123 96.6769 83.3508 96.1846 83.0123 95.8C82.6277 95.3538 82.2277 95.0769 81.4893 95.0769C80.997 95.0769 80.4739 95.2769 80.1508 95.6462C79.6585 96.2 79.2893 97.0462 79.2893 97.6769C79.2893 98.0462 79.5354 98.1846 79.7508 98.1846C79.9662 98.1846 80.12 98.0923 80.1508 97.8308C80.2123 97.2769 80.3508 96.8615 80.597 96.4923C80.8123 96.1538 81.0277 95.9231 81.5662 95.9231C82.0277 95.9231 82.5354 96.1846 82.5354 97.1385C82.5354 98.0769 81.8431 99.5538 81.1508 100.538C80.6277 101.277 80.1046 102.031 79.6277 102.8C79.5046 103 79.3662 103.185 79.2739 103.246C79.0585 103.4 79.0123 103.446 79.0123 103.662C79.0123 103.877 79.3816 104.123 79.797 104.123C80.2277 104.123 80.7662 103.862 81.797 103.862C82.2123 103.862 83.597 103.892 84.0585 103.892C84.3816 103.892 84.5354 103.677 84.5354 103.477C84.5354 103.169 84.32 102.985 84.0431 102.985ZM89.4604 95.4462C89.522 95.4 89.5527 95.3385 89.5527 95.2462C89.5527 94.8923 89.3527 94.7231 89.122 94.7231C88.6143 94.7231 87.8143 95.5538 87.2296 96.3231C86.2143 97.6615 85.4296 99.1385 85.1681 100.831C85.122 101.138 85.0912 101.446 85.0912 101.754C85.0912 103.138 85.6296 104.108 86.8604 104.108C88.645 104.108 90.0758 102.138 90.9373 100.185C91.2604 99.4462 91.445 98.7846 91.445 98.0308C91.445 96.7077 90.7066 95.7077 89.4604 95.4462ZM90.4912 99.0308C90.0143 100.646 88.4758 103.277 86.845 103.277C86.245 103.277 85.9527 102.523 85.9527 101.815C85.9527 100.754 86.1989 99.7692 86.645 98.8308C87.0758 97.9846 87.9989 96.6308 88.3527 96.2923L88.3681 96.2769C88.5066 96.2462 88.6296 96.2154 88.7373 96.2154C89.3527 96.1692 89.8912 96.3077 90.245 96.8308C90.4912 97.1692 90.6604 97.5385 90.6604 98.0462C90.6604 98.3231 90.6143 98.6462 90.4912 99.0308ZM96.6945 99.8308C97.1253 99.8308 97.433 99.5846 97.433 99.3231C97.433 99.0769 97.1869 98.8769 96.9407 98.8769C96.6638 98.8769 96.4022 98.9231 96.1561 98.9231H94.7407C94.1099 98.9231 93.6638 98.9077 93.3253 98.8615C92.9715 98.8154 92.9253 98.8154 92.8638 98.8154C92.5715 98.8154 92.4484 99.0615 92.4484 99.2308C92.4484 99.5077 92.7253 99.7077 93.1253 99.7385C93.4484 99.7692 93.7715 99.7692 94.2484 99.7692H95.3099C95.6638 99.7692 95.9407 99.8308 96.6945 99.8308ZM103.223 96.4615C102.9 96.1846 102.669 95.9846 102.469 95.8615C102.484 95.8308 102.484 95.8154 102.484 95.7846C102.484 95.5077 102.038 95.1385 101.454 95.1385C101.054 95.1385 100.746 95.2923 100.192 95.7846C99.4076 96.4923 99.0076 97.2923 98.7922 98.2308C98.5614 99.2154 98.4383 99.8923 98.4383 100.662C98.4383 101.354 98.5306 102.015 98.7922 102.662C99.1152 103.477 99.7768 104.154 100.577 104.154C101.438 104.154 101.946 103.708 102.531 103.031C102.823 102.692 103.146 102.215 103.408 101.677C103.761 100.954 104.1 99.8462 104.1 99.0154C104.1 98.2 103.823 96.9846 103.223 96.4615ZM102.808 101.046C102.469 101.938 101.531 103.431 100.684 103.431C100.331 103.431 99.946 103.092 99.7306 102.708C99.3768 102.077 99.2691 101.4 99.2691 100.692C99.2691 99.7538 99.4845 98.6462 99.8229 97.7385C100.054 97.1538 100.9 96.0308 101.269 96.0308C101.377 96.0308 101.438 96.0769 101.546 96.1231C101.623 96.2 101.731 96.2615 101.869 96.3385C102.838 96.8615 103.269 97.6308 103.269 98.8923C103.269 99.5231 103.084 100.338 102.808 101.046ZM108.68 99.6308C109.71 98.8 111.126 97.3538 111.126 96.4615C111.126 95.2769 109.833 94.6615 108.603 94.6615C107.11 94.6615 104.941 95.8308 104.941 97C104.941 97.6615 105.956 98.5231 107.341 99.6C105.956 100.723 105.203 101.462 105.203 102.231C105.203 103.4 106.449 104.108 107.864 104.108C109.28 104.108 110.695 103.415 110.695 102.231C110.695 101.215 110.31 100.862 108.68 99.6308ZM105.91 97C105.91 96.7077 106.095 96.4462 106.433 96.3385C106.618 96.2769 106.726 96.2308 106.864 96.0923C107.11 95.8462 107.972 95.4615 108.726 95.4615C109.356 95.4615 110.218 95.7385 110.218 96.3231C110.218 96.9231 109.541 97.8769 108.403 98.7692L107.987 99.0923C106.695 98.1231 105.91 97.5385 105.91 97ZM107.88 103.385C107.095 103.385 106.218 103.123 106.218 102.262C106.218 101.569 107.033 100.877 108.018 100.123C108.91 100.785 109.741 101.277 109.741 102.031C109.741 103.015 108.88 103.385 107.88 103.385ZM116.286 99.8308C116.717 99.8308 117.025 99.5846 117.025 99.3231C117.025 99.0769 116.779 98.8769 116.532 98.8769C116.256 98.8769 115.994 98.9231 115.748 98.9231H114.332C113.702 98.9231 113.256 98.9077 112.917 98.8615C112.563 98.8154 112.517 98.8154 112.456 98.8154C112.163 98.8154 112.04 99.0615 112.04 99.2308C112.04 99.5077 112.317 99.7077 112.717 99.7385C113.04 99.7692 113.363 99.7692 113.84 99.7692H114.902C115.256 99.7692 115.532 99.8308 116.286 99.8308ZM123.199 102.985C122.692 102.985 122.184 103.062 121.676 103.062C120.984 103.062 120.369 103.108 119.461 103.262C120.399 101.969 121.169 100.769 121.322 100.554C121.984 99.6 122.569 98.2615 122.569 97.0923C122.569 96.6769 122.507 96.1846 122.169 95.8C121.784 95.3538 121.384 95.0769 120.646 95.0769C120.153 95.0769 119.63 95.2769 119.307 95.6462C118.815 96.2 118.446 97.0462 118.446 97.6769C118.446 98.0462 118.692 98.1846 118.907 98.1846C119.122 98.1846 119.276 98.0923 119.307 97.8308C119.369 97.2769 119.507 96.8615 119.753 96.4923C119.969 96.1538 120.184 95.9231 120.722 95.9231C121.184 95.9231 121.692 96.1846 121.692 97.1385C121.692 98.0769 120.999 99.5538 120.307 100.538C119.784 101.277 119.261 102.031 118.784 102.8C118.661 103 118.522 103.185 118.43 103.246C118.215 103.4 118.169 103.446 118.169 103.662C118.169 103.877 118.538 104.123 118.953 104.123C119.384 104.123 119.922 103.862 120.953 103.862C121.369 103.862 122.753 103.892 123.215 103.892C123.538 103.892 123.692 103.677 123.692 103.477C123.692 103.169 123.476 102.985 123.199 102.985ZM129.34 103.169C128.986 103.169 128.555 103.2 127.971 103.231C127.924 103.231 127.801 103.246 127.617 103.246C127.617 102.877 127.617 102.492 127.632 101.492C127.647 100.723 127.678 100.538 127.709 99.2923V97.2923C127.709 96.9077 127.724 96.5077 127.755 96C127.755 95.8 127.801 95.7077 127.801 95.3385C127.801 95.0769 127.663 94.8769 127.355 94.8769C127.017 94.8769 126.894 95 126.586 95.4615C126.094 96.1846 125.447 97.0615 124.355 98.0462C124.247 98.1385 124.201 98.2308 124.201 98.3231C124.201 98.5077 124.463 98.7385 124.755 98.7385C124.909 98.7385 125.109 98.6769 125.247 98.5385C125.847 97.9385 126.463 97.1846 126.847 96.4769C126.801 97.0308 126.801 97.2462 126.801 97.4308C126.801 99.1692 126.786 100.262 126.74 101.985C126.724 102.585 126.74 102.892 126.724 103.262C126.309 103.277 125.909 103.277 125.771 103.277C125.447 103.277 125.217 103.277 125.047 103.262C124.863 103.246 124.724 103.215 124.571 103.215C124.355 103.215 124.186 103.338 124.186 103.538C124.186 103.846 124.34 104.046 124.771 104.046L127.663 104C128.217 103.985 128.555 104.031 129.263 104.031C129.571 104.031 129.755 103.862 129.755 103.554C129.755 103.323 129.617 103.169 129.34 103.169Z" fill="black"/>
<defs>
<filter id="filter0_d_3366_13206" x="0" y="0" width="159" height="134" filterUnits="userSpaceOnUse" color-interpolation-filters="sRGB">
<feFlood flood-opacity="0" result="BackgroundImageFix"/>
<feColorMatrix in="SourceAlpha" type="matrix" values="0 0 0 0 0 0 0 0 0 0 0 0 0 0 0 0 0 0 127 0" result="hardAlpha"/>
<feOffset dy="-6"/>
<feGaussianBlur stdDeviation="6"/>
<feComposite in2="hardAlpha" operator="out"/>
<feColorMatrix type="matrix" values="0 0 0 0 0 0 0 0 0 0 0 0 0 0 0 0 0 0 0.05 0"/>
<feBlend mode="normal" in2="BackgroundImageFix" result="effect1_dropShadow_3366_13206"/>
<feBlend mode="normal" in="SourceGraphic" in2="effect1_dropShadow_3366_13206" result="shape"/>
</filter>
</defs>
</svg>
