<svg width="208" height="140" viewBox="0 0 208 140" fill="none" xmlns="http://www.w3.org/2000/svg">
<g clip-path="url(#clip0_2749_55015)">
<rect width="208" height="140" fill="#000D1D" fill-opacity="0.04"/>
<path d="M74.748 46.7601C74.748 30.8763 87.6244 18 103.508 18C119.392 18 132.268 30.8763 132.268 46.7601V56.4784C132.268 61.2009 128.44 65.0292 123.718 65.0292H83.2988C78.5764 65.0292 74.748 61.2008 74.748 56.4784V46.7601Z" fill="#242C36"/>
<path d="M104 121C132.167 121 155 98.1665 155 70C155 41.8335 132.167 19 104 19C75.8335 19 53 41.8335 53 70C53 98.1665 75.8335 121 104 121Z" fill="#000D1D" fill-opacity="0.04"/>
<path d="M61 121.078C61 104.51 74.4315 91.0781 91 91.0781H116.376C132.945 91.0781 146.376 104.51 146.376 121.078V123.999V141H61V123.999V121.078Z" fill="#01BC8D"/>
<path d="M94.0837 81.1914H113.293V91.8453C113.293 97.1499 108.993 101.45 103.689 101.45C98.384 101.45 94.0837 97.1499 94.0837 91.8453V81.1914Z" fill="#FFDED3"/>
<path d="M94.1055 80.9961H113.301V86.9961C113.301 86.9961 109.5 89 104 89C98.5003 89 94.1055 86.9961 94.1055 86.9961V80.9961Z" fill="#F5CABC" fill-opacity="0.6"/>
<path fill-rule="evenodd" clip-rule="evenodd" d="M78.075 57.4941H81.2764C82.8638 52.0979 87.7735 48.3591 93.3975 48.2637L100.943 48.1358C106.635 48.0394 111.589 44.86 114.18 40.1758L114.589 42.3532C115.099 45.0763 117.15 47.2525 119.837 47.9245C122.378 48.5595 124.361 50.5429 124.996 53.083L126.099 57.4938H128.233L128.233 59.6282L128.722 59.1395V60.9152C128.722 74.9009 117.384 86.2385 103.398 86.2385C89.4126 86.2385 78.075 74.9009 78.075 60.9152V57.4941Z" fill="#FFEAE3"/>
<path d="M80.2104 57.4883H78.6096C75.9574 57.4883 73.8072 59.6384 73.8072 62.2907C73.8072 64.943 75.9574 67.0931 78.6096 67.0931H80.2104V57.4883Z" fill="#FFEAE3"/>
<path d="M126.1 57.4883H127.701C130.353 57.4883 132.503 59.6384 132.503 62.2907C132.503 64.943 130.353 67.0931 127.701 67.0931H126.1V57.4883Z" fill="#FFEAE3"/>
<g filter="url(#filter0_d_2749_55015)">
<path d="M28 59C28 57.8954 28.8954 57 30 57H65C66.1046 57 67 57.8954 67 59V95C67 96.1046 66.1046 97 65 97H30C28.8954 97 28 96.1046 28 95V59Z" fill="url(#paint0_linear_2749_55015)"/>
</g>
<path d="M34.8928 64.5422C34.7705 64.206 34.4587 63.8575 34.098 63.6985C33.9023 63.6129 33.6333 63.4784 33.3093 63.3867C33.2053 63.3561 33.1625 63.3561 33.0647 63.3561C32.8263 63.3561 32.704 63.509 32.7162 63.7352C32.7223 63.888 32.7468 64.8173 32.7468 64.9763V66.786C32.7468 67.0245 32.8263 67.1345 33.0525 67.1345C33.132 67.1345 33.2176 67.1039 33.3398 67.0489C33.5722 66.945 33.8656 66.7921 34.2263 66.4987C34.7338 66.0768 34.9722 65.6427 34.9722 65.0436C34.9722 64.8663 34.9478 64.6951 34.8928 64.5422ZM33.7128 66.2174C33.6088 66.2908 33.4438 66.3825 33.2909 66.462C33.297 66.3336 33.297 66.1991 33.2909 65.9851C33.2848 65.8445 33.2848 65.3676 33.2848 65.1169C33.2848 64.9457 33.297 64.7684 33.297 64.6217C33.297 64.5055 33.297 64.4199 33.2909 64.2915C33.2848 64.2243 33.2848 64.0714 33.2848 63.9247C33.5477 63.9981 33.7861 64.0898 33.939 64.1876C34.2753 64.4138 34.3853 64.689 34.3853 65.0313C34.3853 65.5327 34.1774 65.8995 33.7128 66.2174ZM37.1712 66.4436C37.159 66.3458 37.159 66.1869 37.1712 66.0401C37.1896 65.7956 37.2507 65.4165 37.2385 65.2698C37.2263 65.1475 37.1468 65.1047 37.049 65.068C36.9939 65.0497 36.9817 65.0191 36.9511 64.9518C36.8594 64.7195 36.731 64.5911 36.4559 64.5911C36.1013 64.5911 35.7406 64.9029 35.4471 65.3982C35.2331 65.7528 35.0803 66.2297 35.0803 66.4681C35.0803 66.8472 35.3554 67.0978 35.7467 67.0978C36.0096 67.0978 36.2297 66.9205 36.4376 66.6332C36.5354 66.4987 36.6149 66.3764 36.7066 66.1991V66.2724C36.7066 66.7738 36.6699 67.0673 36.9572 67.0673C37.1162 67.0673 37.2752 66.9755 37.2752 66.8472C37.2752 66.7677 37.1896 66.5904 37.1712 66.4436ZM35.6978 66.6087C35.6366 66.6087 35.6244 66.5659 35.6244 66.517C35.6244 66.3886 35.6733 66.2235 35.7222 66.089C35.8323 65.7833 36.3031 65.0558 36.4742 65.0558C36.5232 65.0558 36.5537 65.0925 36.5537 65.1536C36.5537 65.2025 36.5354 65.2575 36.5048 65.3187C36.4804 65.3737 36.462 65.441 36.462 65.4899C36.462 65.5571 36.4742 65.606 36.517 65.6488C36.3092 66.0768 35.9423 66.6087 35.6978 66.6087ZM39.2521 64.6095C39.0809 64.6095 39.0014 64.6951 38.9403 64.8724C38.8486 65.1353 38.7385 65.4776 38.6407 65.8261C38.5918 66.0034 38.5368 66.1991 38.4879 66.3947C38.4756 66.3642 38.4573 66.3275 38.439 66.2908C38.335 66.0768 38.1822 65.6794 38.0782 65.3676C37.9865 65.1047 37.9499 64.9518 37.9315 64.7929C37.9132 64.6706 37.8215 64.6034 37.6992 64.6034C37.5158 64.6034 37.3568 64.7012 37.3568 64.8724C37.3568 65.013 37.4179 65.1903 37.5097 65.4471C37.6808 65.9117 37.8887 66.4192 38.1822 66.9511C38.2372 67.0489 38.335 67.11 38.4512 67.11C38.5429 67.11 38.6102 67.1345 38.6957 67.1345C38.8608 67.1345 38.9342 67.0245 38.9648 66.8655C38.9892 66.7004 39.0137 66.5598 39.0504 66.4008C39.1237 66.0829 39.2215 65.7772 39.3316 65.4471C39.3683 65.337 39.4111 65.2209 39.46 65.1169C39.5028 65.0252 39.5272 64.9335 39.5272 64.8663C39.5272 64.7256 39.3927 64.6095 39.2521 64.6095ZM40.1251 64.2732C40.3086 64.2732 40.492 64.1142 40.4981 63.9186C40.5042 63.7352 40.4125 63.6068 40.2046 63.5885C39.9845 63.564 39.7828 63.674 39.74 63.8636C39.6972 64.0776 39.9112 64.2732 40.1251 64.2732ZM40.1802 67.11C40.3636 67.11 40.4981 67.0611 40.4981 66.9022C40.4981 66.841 40.4859 66.7432 40.4736 66.6637C40.4492 66.517 40.4186 66.3703 40.4186 66.2113C40.4125 65.9362 40.3942 65.6977 40.3942 65.4776C40.3942 65.3554 40.4125 65.2698 40.4125 64.9885C40.4125 64.7684 40.3452 64.6156 40.0885 64.6156C39.9295 64.6156 39.8684 64.7195 39.8684 64.8601C39.8684 65.2942 39.8867 65.6244 39.8989 65.9729C39.905 66.193 39.9112 66.8044 39.9173 66.8594C39.9295 67.0122 40.0273 67.11 40.1802 67.11ZM43.19 66.7554C43.1655 66.5843 43.1594 66.4559 43.1411 66.248C43.1227 66.0218 43.1227 65.7405 43.1227 65.4471C43.1227 65.3309 43.1411 65.2147 43.1411 64.9702V63.9736C43.1411 63.7474 43.1655 63.4417 43.1655 63.2889C43.1655 63.1483 43.0188 63.0443 42.8537 63.0443C42.6886 63.0443 42.5664 63.1483 42.5664 63.3072C42.5664 63.3989 42.5725 63.8819 42.5725 64.1876V64.6462C42.4624 64.5728 42.3463 64.5361 42.2179 64.5361C41.6004 64.5361 40.8667 65.6366 40.8667 66.5048C40.8667 66.841 41.1724 67.1039 41.5515 67.1039C41.955 67.1039 42.3463 66.8288 42.6214 66.5415V66.6637C42.6214 66.7921 42.6336 66.945 42.6581 67.0061C42.7009 67.1162 42.8293 67.1773 42.9454 67.1712C43.0799 67.159 43.1839 67.0734 43.1961 66.945C43.2022 66.89 43.2022 66.8349 43.19 66.7554ZM41.582 66.6148C41.472 66.6148 41.4475 66.5659 41.4475 66.4559C41.4475 65.924 42.0161 65.0191 42.279 65.0191C42.3829 65.0191 42.4257 65.1414 42.4319 65.2331C42.4502 65.4715 42.6092 65.441 42.6092 65.606C42.6092 66.0096 41.8694 66.6148 41.582 66.6148ZM46.3811 67.0734C46.5951 67.0734 46.8213 67.0306 47.0353 66.9633C47.4938 66.8105 47.7812 66.4681 47.7812 66.0646C47.7812 65.441 47.3287 65.2086 46.7173 65.1903C46.2833 65.1719 46.0509 65.1658 45.9531 65.1475C45.8553 65.1353 45.8431 65.1108 45.8431 65.0558C45.8431 64.9335 45.9409 64.6951 46.0693 64.4933C46.2099 64.2671 46.5828 63.8208 46.8029 63.8208C46.9558 63.8208 47.023 63.9308 47.023 64.0776C47.023 64.1693 47.0108 64.2549 46.9741 64.3221C46.9069 64.4627 46.8641 64.5239 46.8641 64.6095C46.8641 64.744 46.9864 64.8235 47.1331 64.8235C47.4449 64.8235 47.5733 64.5544 47.5733 64.2426C47.5733 63.833 47.3715 63.5212 47.0108 63.405C46.913 63.3745 46.8274 63.3622 46.7296 63.3622C46.4178 63.3622 46.1426 63.5457 45.8247 63.9064C45.5435 64.2365 45.2378 64.7929 45.2378 65.2086C45.2378 65.4104 45.3601 65.5816 45.5863 65.6427C45.8308 65.71 46.106 65.7222 46.6195 65.7405C46.9925 65.7589 47.2187 65.8445 47.2187 66.0585C47.2187 66.2663 47.0108 66.407 46.7907 66.4987C46.6684 66.5415 46.4972 66.5659 46.3261 66.5659C46.0326 66.5659 45.6658 66.4131 45.5679 66.2113C45.5007 66.0707 45.4518 66.0096 45.2806 66.0096C45.1155 66.0096 45.0055 66.1379 45.0055 66.2786C45.0055 66.5415 45.3356 66.841 45.7269 66.9694C45.9103 67.0306 46.1977 67.0734 46.3811 67.0734ZM51.3652 64.9885C51.3102 64.7745 51.0351 64.5911 50.7722 64.5911C50.4909 64.5911 50.173 64.8663 49.9468 65.2209C49.8612 64.8785 49.635 64.6156 49.3232 64.6156C49.0603 64.6156 48.8402 64.7807 48.669 65.0497C48.6751 64.9457 48.6812 64.8663 48.6812 64.8296C48.6812 64.7256 48.5651 64.6156 48.4489 64.6034C48.4 64.5911 48.3694 64.5911 48.3327 64.5911C48.186 64.5911 48.1004 64.7012 48.1004 64.8296C48.1004 65.0069 48.1554 65.4043 48.1554 65.5694V66.5781C48.1493 66.7432 48.1493 66.8105 48.1493 66.9022C48.1493 67.0367 48.2532 67.1284 48.4061 67.1284C48.5589 67.1284 48.7118 67.0061 48.7118 66.8594C48.7118 66.731 48.6934 66.6332 48.6934 66.5415C48.6934 66.4253 48.6934 66.3519 48.6996 66.1746C48.7057 66.0523 48.7057 65.8261 48.7362 65.7161C48.7913 65.5204 49.1275 65.0864 49.3293 65.0864C49.366 65.0864 49.3904 65.1169 49.4027 65.1842C49.4271 65.282 49.4516 65.441 49.4821 65.6916C49.5005 65.8812 49.5433 66.4987 49.5433 66.6821C49.5433 66.7371 49.5372 66.7677 49.5372 66.8166C49.5372 66.9511 49.635 67.0306 49.7939 67.0306C49.959 67.0306 50.0752 66.9266 50.0752 66.7371C50.0752 66.4681 50.0691 66.2847 50.063 66.1135C50.1669 65.7895 50.3564 65.4899 50.4604 65.3431C50.5704 65.1903 50.6988 65.0802 50.7783 65.0802C50.8027 65.0802 50.8211 65.0925 50.8333 65.123C50.8516 65.1658 50.8822 65.3431 50.8822 65.606C50.8822 65.7772 50.8516 66.3886 50.8027 66.7493C50.7966 66.7921 50.7905 66.8472 50.7905 66.9022C50.7905 67.0489 50.8822 67.1528 51.0534 67.1528C51.2063 67.1528 51.3591 67.0367 51.3713 66.89C51.3774 66.7982 51.3774 66.7126 51.3774 66.6576C51.3774 66.6026 51.4141 65.7528 51.4141 65.4776C51.4141 65.2759 51.4019 65.1292 51.3652 64.9885ZM52.3636 64.2671C52.5286 64.2671 52.6693 64.0714 52.6693 63.8758C52.6693 63.674 52.4492 63.5334 52.2413 63.5334C52.0212 63.5334 51.8806 63.6557 51.8806 63.8269C51.8806 64.0592 52.0945 64.2671 52.3636 64.2671ZM52.3574 67.0917C52.5103 67.0917 52.6265 66.9694 52.6265 66.8349C52.6265 66.6699 52.5898 66.5231 52.5837 66.4192C52.5653 66.089 52.5531 65.7467 52.5531 65.4715C52.5531 65.2698 52.5653 65.0741 52.5653 64.8663C52.5653 64.6951 52.4675 64.6034 52.2902 64.6034C52.1312 64.6034 52.009 64.689 52.0028 64.8357C51.9906 65.0252 51.9906 65.2086 51.9906 65.4043C51.9906 65.6366 52.009 65.9301 52.009 66.2174V66.7982C52.009 66.9817 52.1435 67.0917 52.3574 67.0917ZM54.5881 66.1074C54.4719 66.1074 54.3985 66.1807 54.3435 66.303C54.2396 66.5353 54.1417 66.6209 54.0561 66.6209C53.8483 66.6209 53.8299 66.4681 53.7932 66.1441C53.7627 65.9117 53.7627 65.6977 53.7627 65.392V65.2637C53.8116 65.2575 53.8605 65.2453 53.9094 65.2392C54.1601 65.2025 54.3618 65.1597 54.5514 65.1475C54.7103 65.1353 54.8143 65.0252 54.8143 64.8479C54.8143 64.7195 54.747 64.6339 54.6186 64.6339C54.5208 64.6339 54.1173 64.6951 53.9339 64.7195C53.8911 64.7256 53.836 64.7317 53.7749 64.744C53.781 64.4261 53.7932 64.1081 53.8055 63.9981C53.8238 63.8147 53.8299 63.6985 53.8299 63.6435C53.8299 63.4906 53.7321 63.3867 53.5731 63.3867C53.2797 63.3867 53.2491 63.5762 53.2308 64.1326C53.2247 64.316 53.2247 64.6034 53.2247 64.7379V64.8235C53.0657 64.8601 52.9801 64.9396 52.9801 65.0864C52.9801 65.1781 53.0412 65.2637 53.1513 65.3187C53.1819 65.337 53.1941 65.3554 53.1941 65.3798C53.1941 65.4226 53.2002 65.5266 53.2002 65.6794C53.2002 65.875 53.2124 66.0279 53.2491 66.3275C53.3041 66.7677 53.6037 67.0795 54.0133 67.0795C54.1723 67.0795 54.2946 67.055 54.4719 66.9633C54.6798 66.8533 54.8693 66.5904 54.8693 66.3764C54.8693 66.2235 54.747 66.1074 54.5881 66.1074ZM57.3823 65.6305C57.3395 65.0436 57.26 64.5972 56.7403 64.5972C56.4285 64.5972 56.0555 64.7745 55.7865 65.123C55.7804 64.9885 55.7804 64.8296 55.7804 64.6095C55.7743 64.3527 55.7804 63.8024 55.7988 63.5395C55.8171 63.191 55.7865 63.0382 55.4747 63.0382C55.2424 63.0382 55.2241 63.2705 55.2241 63.619V64.2304C55.2241 64.4566 55.2546 64.8235 55.2546 65.0802C55.2546 65.3431 55.2791 65.7405 55.2913 66.0462C55.3035 66.4253 55.2913 66.6148 55.2974 66.8044C55.3035 67.0245 55.4014 67.1467 55.5725 67.1467C55.7498 67.1467 55.8966 67.0122 55.8966 66.8533C55.8966 66.6576 55.8599 66.4253 55.866 66.2419C55.8782 65.8628 55.9455 65.5938 56.1656 65.3615C56.349 65.1719 56.4957 65.1047 56.618 65.1047C56.8381 65.1047 56.8381 65.5449 56.8381 66.0585C56.8381 66.2663 56.7953 66.7554 56.7953 66.8716C56.7953 67.0611 56.8931 67.1651 57.0827 67.1651C57.2967 67.1651 57.3945 67.0183 57.3945 66.8166V66.1991C57.3945 66.0096 57.3945 65.8261 57.3823 65.6305Z" fill="black"/>
<path d="M42.5448 72.8654C42.7445 72.6942 42.8824 72.3994 42.8824 72.1141C42.8824 71.8383 42.7112 71.7051 42.4829 71.7051C42.0455 71.7051 41.7174 71.9476 41.5129 72.2044C41.4748 72.252 41.4463 72.3043 41.4463 72.3613C41.4463 72.4564 41.5081 72.4945 41.5652 72.4945C41.6175 72.4945 41.6555 72.4755 41.7126 72.3899C41.8838 72.1378 42.1501 71.9286 42.4354 71.9286C42.5828 71.9286 42.6161 72.0522 42.6161 72.1759C42.6161 72.5515 42.2595 72.8559 41.8838 72.97C41.7602 73.008 41.7364 73.0318 41.7364 73.0984C41.7364 73.1935 41.8172 73.2648 41.8933 73.2648C41.9741 73.2648 42.0217 73.2173 42.1073 73.184C42.2452 73.1317 42.3783 73.0984 42.5162 73.0984C42.8253 73.0984 43.025 73.2315 43.025 73.5311C43.025 73.9686 42.4782 74.3633 42.0597 74.3633C41.8077 74.3633 41.5176 74.2016 41.5176 73.9971C41.5176 73.9211 41.5652 73.902 41.5652 73.8259C41.5652 73.7736 41.5176 73.7023 41.4368 73.7023C41.3322 73.7023 41.2323 73.7832 41.2323 73.9306C41.2323 74.059 41.2989 74.2016 41.375 74.2967C41.5842 74.5583 41.8743 74.6153 42.0978 74.6153C42.6636 74.6153 43.3199 74.0875 43.3199 73.5311C43.3199 73.1317 43.0203 72.8559 42.5448 72.8654ZM44.5795 72.8701H44.5271C44.6365 72.8273 44.7221 72.7941 44.7506 72.7798C45.0597 72.6324 45.3593 72.4279 45.3783 72.1806C45.3783 72.1188 45.3736 72.076 45.3451 72.038C45.269 71.9191 45.0455 71.824 44.9266 71.805C44.8172 71.7859 44.7078 71.7764 44.6032 71.7859C44.4463 71.8002 44.3274 71.8145 44.18 71.862C44.142 71.8763 44.0421 71.9096 44.0231 71.9096C43.9851 71.9096 43.9327 71.8858 43.8947 71.8858C43.8329 71.8858 43.7996 71.9238 43.7853 72.0094C43.7425 72.2662 43.7188 72.5373 43.7188 72.7988V72.9415C43.6664 72.9748 43.6522 73.0128 43.6522 73.0508C43.6522 73.1269 43.6712 73.1697 43.714 73.1887C43.7092 73.398 43.7092 73.6262 43.7045 73.7118C43.6997 73.8307 43.6997 73.9448 43.6855 74.0637C43.6807 74.1113 43.6664 74.2064 43.6664 74.2539C43.6664 74.33 43.6902 74.4013 43.7901 74.4013H43.8329C43.8234 74.4204 43.8186 74.4441 43.8186 74.4679C43.8186 74.6438 44.0992 74.6819 44.4416 74.6819C44.9123 74.6819 45.4021 74.5012 45.6351 74.097C45.7112 73.9686 45.7492 73.8307 45.7492 73.688C45.7492 73.1222 45.2024 72.8701 44.5795 72.8701ZM44.0041 72.2425C44.0088 72.1949 44.0374 72.1569 44.0802 72.1378C44.2846 72.0475 44.4796 72.0047 44.6698 72.0047C44.8267 72.0047 45.112 72.0332 45.112 72.1711C45.112 72.3138 44.8172 72.504 44.608 72.6086C44.3464 72.737 44.2038 72.7941 43.9755 72.8606C43.9803 72.7655 43.9803 72.699 43.9803 72.6847C43.9803 72.542 43.9898 72.3851 44.0041 72.2425ZM45.1929 74.2349C44.9218 74.4013 44.6508 74.4441 44.3132 74.4441C44.0516 74.4441 44.1039 74.3205 43.9518 74.3205H43.947C43.9518 74.2967 43.9565 74.2634 43.9565 74.2254V73.7879C43.9565 73.6976 43.966 73.3837 43.9708 73.1127C44.0136 73.0936 44.0706 73.0794 44.1467 73.0699C44.3607 73.0508 44.7316 73.0794 44.9694 73.1459C45.2642 73.2315 45.4164 73.3504 45.4687 73.5169C45.4877 73.5692 45.4925 73.6262 45.4925 73.6785C45.4925 73.9115 45.3831 74.116 45.1929 74.2349ZM47.9741 73.4122C47.9123 73.4122 47.8457 73.436 47.7839 73.436C47.7601 73.436 47.6888 73.4408 47.5842 73.4503C47.5794 73.2743 47.5794 73.0794 47.5747 73.008C47.5652 72.7608 47.5556 72.2187 47.5556 71.8335C47.5556 71.7384 47.4938 71.6956 47.4177 71.6956C47.3654 71.6956 47.3417 71.7099 47.3274 71.7431C47.3131 71.7336 47.2941 71.7289 47.2751 71.7289C47.2133 71.7289 47.18 71.7384 47.1229 71.8145C47.0659 71.8858 47.0135 71.9666 46.966 72.0427C46.8566 72.2139 46.7568 72.3756 46.5713 72.6942C46.3478 73.0794 46.1291 73.4455 45.9389 73.669C45.9151 73.6976 45.9056 73.7308 45.9056 73.7641C45.9056 73.8592 46.0054 73.9258 46.0863 73.9258C46.11 73.9258 46.1386 73.9211 46.1624 73.9115C46.3859 73.8212 46.733 73.7832 46.9422 73.7594C47.0421 73.7499 47.1847 73.7356 47.3512 73.7261C47.3512 73.845 47.3559 73.9496 47.3559 74.0162C47.3559 74.1303 47.3512 74.2729 47.3417 74.4584C47.3369 74.563 47.413 74.6248 47.5033 74.6248C47.6127 74.6248 47.6365 74.5963 47.6317 74.4632C47.6222 74.1826 47.608 74.0114 47.5889 73.7784V73.7071C47.6175 73.7071 47.646 73.7023 47.6745 73.7023C47.7554 73.6976 47.8362 73.6976 47.917 73.688C48.0026 73.6785 48.0977 73.6452 48.0977 73.5406C48.0977 73.4503 48.0597 73.4122 47.9741 73.4122ZM46.3145 73.6167C46.5761 73.2363 47.1229 72.2757 47.3131 71.9904C47.3084 72.1806 47.3036 72.4184 47.3131 72.756C47.3179 72.9367 47.3321 73.2173 47.3417 73.4741C47.0326 73.5073 46.6236 73.5597 46.3145 73.6167ZM50.2455 71.8002C50.0838 71.8002 49.9602 72.0998 49.8128 72.3899L49.537 72.9462C49.5132 72.9938 49.4894 73.0413 49.4704 73.0841C49.3943 72.9605 49.3039 72.7893 49.2136 72.5896C49.0757 72.29 49.0139 72.1426 48.9521 71.9904C48.9188 71.9048 48.8807 71.8573 48.7999 71.8573C48.7856 71.8573 48.7714 71.8573 48.7571 71.862C48.7381 71.8335 48.6953 71.8192 48.662 71.8192C48.5812 71.8192 48.5051 71.8573 48.5051 71.9714C48.5051 72.0475 48.5098 72.1045 48.5098 72.2282C48.5098 72.3613 48.5098 72.6514 48.5051 72.9985C48.5003 73.2791 48.4956 73.5644 48.4956 73.845C48.4956 74.0399 48.486 74.2587 48.486 74.4536C48.486 74.5487 48.5051 74.6058 48.6097 74.6058C48.7333 74.6058 48.7666 74.5725 48.7666 74.4679C48.7666 74.3728 48.7666 74.2539 48.7619 74.1541C48.7523 73.9686 48.7381 73.7832 48.7381 73.5977V72.97C48.7381 72.7988 48.7476 72.5135 48.7619 72.29C48.7619 72.2567 48.7619 72.2092 48.7666 72.1616L48.8665 72.3994C48.9235 72.5325 49.0614 72.8131 49.166 73.0128L49.342 73.3457C49.2992 73.436 49.2754 73.4883 49.2754 73.5073C49.2754 73.5692 49.361 73.6167 49.4561 73.6167C49.5037 73.612 49.5607 73.5882 49.5845 73.5073C49.5988 73.455 49.6226 73.3837 49.6606 73.2696C49.7034 73.1507 49.7937 72.9748 49.8698 72.8273C50.0553 72.4659 50.1551 72.2805 50.2598 72.1331C50.2502 72.2329 50.2407 72.4089 50.217 72.7845C50.1884 73.2506 50.1837 73.6785 50.1837 74.1018C50.1837 74.2539 50.1742 74.3871 50.1742 74.4964C50.1742 74.582 50.1979 74.6201 50.3168 74.6201C50.3881 74.6201 50.4547 74.5678 50.4547 74.5059V73.3314C50.4547 72.9605 50.469 72.5943 50.4833 72.2282C50.488 72.1188 50.5023 72.038 50.5023 71.9286C50.5023 71.8287 50.3739 71.8002 50.2455 71.8002ZM51.9589 73.2838C52.0207 73.222 52.0825 73.1507 52.1586 73.0604C52.306 72.8749 52.4296 72.5991 52.4296 72.3946C52.4296 72.2757 52.3726 72.1283 52.2822 72.0237C52.2965 72.0047 52.3012 71.9857 52.3012 71.9666C52.3012 71.824 52.1776 71.7194 51.9208 71.7194C51.4929 71.7194 51.0078 72.0047 51.0078 72.3756C51.0078 72.6562 51.2646 72.9462 51.5975 73.2506C51.5547 73.2838 51.5119 73.3171 51.4691 73.3457C51.1647 73.5549 50.8699 73.7974 50.8699 73.9734C50.8699 74.3633 51.2741 74.6106 51.7259 74.6106C52.0968 74.6106 52.5247 74.4251 52.5247 74.0685C52.5247 73.7879 52.2489 73.5359 51.9589 73.2838ZM51.3074 72.4374C51.3074 72.2044 51.5785 71.9857 51.8115 71.9857C51.9113 71.9857 51.9636 71.9999 52.0064 72.019C52.035 72.0332 52.0682 72.0522 52.092 72.0855C52.1396 72.1521 52.1633 72.2472 52.1633 72.3328C52.1633 72.6562 51.9969 72.9034 51.7687 73.1127C51.5357 72.8939 51.3074 72.6466 51.3074 72.4374ZM51.6022 74.3776C51.3787 74.3776 51.1552 74.1969 51.1552 74.0209C51.1552 73.8783 51.2836 73.7832 51.4738 73.6548C51.6117 73.5597 51.7116 73.4931 51.7972 73.4265C52.0112 73.6072 52.2109 73.7832 52.2109 73.9829C52.2109 74.2634 51.9113 74.3776 51.6022 74.3776ZM54.6414 72.0618C54.6604 72.0285 54.6794 71.9952 54.6794 71.9666C54.6794 71.9476 54.6794 71.9191 54.6414 71.8906C54.5986 71.8525 54.551 71.8383 54.5178 71.8383C54.3846 71.8383 54.3703 71.8811 54.3513 71.9714C54.3371 72.0332 54.299 72.1045 54.2657 72.1664C54.2277 72.2329 54.1088 72.4469 54.028 72.5943L53.8473 72.9225C53.7522 72.7418 53.6475 72.5278 53.5619 72.3661C53.4764 72.1997 53.3908 72.0332 53.3575 71.9571C53.3289 71.8906 53.2957 71.843 53.2481 71.8335C53.2196 71.8287 53.153 71.824 53.1245 71.824C53.0674 71.824 53.0294 71.8573 53.0294 71.9143C53.0294 71.9619 53.0817 72.0522 53.1482 72.1664C53.2338 72.3185 53.3527 72.5373 53.4716 72.7608C53.5762 72.9605 53.6285 73.0604 53.6951 73.1935C53.6238 73.3219 53.5619 73.436 53.5001 73.5549L53.2433 74.0447C53.1768 74.1731 53.0959 74.3252 53.0151 74.4679C52.9961 74.5059 52.9961 74.5392 53.0056 74.563C53.0198 74.6011 53.1245 74.6248 53.1625 74.6248C53.2433 74.6248 53.2814 74.5915 53.3147 74.5297C53.3432 74.4774 53.367 74.4299 53.3955 74.368L53.6713 73.7832C53.7189 73.6833 53.7759 73.5692 53.8282 73.4741C53.8663 73.5501 53.9043 73.6357 53.9281 73.6833L54.1088 74.0685C54.1564 74.1731 54.2039 74.2777 54.2277 74.3395C54.2562 74.4204 54.2752 74.4679 54.3038 74.525C54.3275 74.5725 54.3608 74.6201 54.4464 74.5963C54.5415 74.5678 54.6224 74.4679 54.5938 74.4061C54.5653 74.3443 54.4274 74.1065 54.318 73.883C54.2324 73.7071 54.1231 73.4741 53.9852 73.1935C54.104 72.9843 54.2229 72.7798 54.318 72.6181C54.4274 72.4327 54.5368 72.2472 54.6414 72.0618Z" fill="black"/>
<path d="M45.517 81.6386C45.2554 81.6386 44.6372 81.7004 44.1997 81.7622C44.3709 81.6148 44.4993 81.4436 44.7609 81.1013C45.0224 80.7541 45.3791 80.2025 45.3791 79.7413C45.3791 79.4655 45.127 79.2087 44.8227 79.2087C44.3377 79.2087 43.9477 79.5748 43.9477 80.0931C43.9477 80.193 43.9858 80.2738 44.1237 80.2738C44.1855 80.2738 44.214 80.2501 44.214 80.155C44.214 79.7793 44.4993 79.4464 44.8655 79.4464C45.0319 79.4464 45.0985 79.5653 45.0985 79.708C45.0985 79.8744 45.0462 80.0741 44.9606 80.2596C44.8084 80.5877 44.623 80.8302 44.466 81.0585C44.2473 81.3771 44.0238 81.6196 43.7956 81.7908C43.748 81.8288 43.7242 81.8478 43.7242 81.8811C43.7242 81.9429 43.8384 82.0571 43.9097 82.0571C43.962 82.0571 43.9905 82.0476 44.0951 82.0238C44.4423 81.9524 44.8607 81.9334 45.5645 81.9334C45.6406 81.9334 45.7024 81.8906 45.7024 81.8145C45.7024 81.729 45.6453 81.6386 45.517 81.6386ZM47.4418 79.6557C47.3942 79.5273 47.2658 79.3751 47.1375 79.3038C47.0994 79.2324 47.0091 79.1564 46.8902 79.1564C46.8284 79.1564 46.7475 79.1754 46.6049 79.2848C46.3243 79.5035 46.0818 79.8078 45.9439 80.3166C45.8868 80.5211 45.8535 80.7731 45.8535 81.0204C45.8535 81.2439 45.8773 81.5007 45.9391 81.6719C46.0342 81.9287 46.1816 82.0618 46.4479 82.0618C46.8616 82.0618 47.204 81.7765 47.4085 81.2915C47.5226 81.0157 47.5797 80.7256 47.5797 80.4308C47.5797 80.1692 47.5321 79.9077 47.4418 79.6557ZM47.0661 81.4008C46.9235 81.6481 46.6762 81.8193 46.5098 81.8193C46.3386 81.8193 46.2958 81.767 46.2292 81.6338C46.1436 81.4769 46.1151 81.2629 46.1151 81.0632C46.1151 80.5734 46.2435 80.1883 46.4575 79.8173C46.5098 79.7317 46.7665 79.4607 46.8331 79.4607C46.8949 79.4607 46.933 79.5273 47.0519 79.5273H47.0709C47.1089 79.5606 47.1327 79.6034 47.1707 79.6747C47.2849 79.8982 47.3086 80.1122 47.3086 80.3785C47.3086 80.6876 47.2278 81.1108 47.0661 81.4008ZM49.4675 81.6862C49.3106 81.6862 49.1537 81.7099 48.9968 81.7099C48.7828 81.7099 48.5926 81.7242 48.312 81.7717C48.6021 81.3723 48.8399 81.0014 48.8874 80.9348C49.0919 80.64 49.2726 80.2263 49.2726 79.8649C49.2726 79.7365 49.2536 79.5843 49.1489 79.4655C49.0301 79.3276 48.9064 79.242 48.6782 79.242C48.526 79.242 48.3643 79.3038 48.2645 79.4179C48.1123 79.5891 47.9982 79.8506 47.9982 80.0456C47.9982 80.1597 48.0743 80.2025 48.1408 80.2025C48.2074 80.2025 48.255 80.174 48.2645 80.0931C48.2835 79.922 48.3263 79.7936 48.4024 79.6794C48.4689 79.5748 48.5355 79.5035 48.702 79.5035C48.8446 79.5035 49.0015 79.5843 49.0015 79.8792C49.0015 80.1692 48.7875 80.6257 48.5736 80.9301C48.4119 81.1583 48.2502 81.3913 48.1028 81.6291C48.0648 81.6909 48.022 81.748 47.9934 81.767C47.9268 81.8145 47.9126 81.8288 47.9126 81.8954C47.9126 81.962 48.0267 82.038 48.1551 82.038C48.2882 82.038 48.4547 81.9572 48.7733 81.9572C48.9017 81.9572 49.3296 81.9667 49.4723 81.9667C49.5722 81.9667 49.6197 81.9001 49.6197 81.8383C49.6197 81.7432 49.5531 81.6862 49.4675 81.6862ZM51.142 79.3561C51.161 79.3418 51.1705 79.3228 51.1705 79.2943C51.1705 79.1849 51.1087 79.1326 51.0374 79.1326C50.8805 79.1326 50.6332 79.3894 50.4525 79.6271C50.1386 80.0408 49.8961 80.4973 49.8153 81.0204C49.801 81.1155 49.7915 81.2106 49.7915 81.3057C49.7915 81.7337 49.9579 82.0333 50.3384 82.0333C50.89 82.0333 51.3322 81.4246 51.5985 80.8207C51.6984 80.5924 51.7554 80.388 51.7554 80.155C51.7554 79.746 51.5272 79.4369 51.142 79.3561ZM51.4606 80.4641C51.3132 80.9634 50.8377 81.7765 50.3336 81.7765C50.1481 81.7765 50.0578 81.5435 50.0578 81.3248C50.0578 80.9966 50.1339 80.6923 50.2718 80.4022C50.4049 80.1407 50.6902 79.7222 50.7996 79.6176L50.8044 79.6129C50.8472 79.6034 50.8852 79.5938 50.9185 79.5938C51.1087 79.5796 51.2751 79.6224 51.3845 79.7841C51.4606 79.8887 51.5129 80.0028 51.5129 80.1597C51.5129 80.2453 51.4986 80.3452 51.4606 80.4641ZM53.378 80.7113C53.5111 80.7113 53.6062 80.6352 53.6062 80.5544C53.6062 80.4783 53.5302 80.4165 53.4541 80.4165C53.3685 80.4165 53.2876 80.4308 53.2116 80.4308H52.7741C52.5791 80.4308 52.4412 80.426 52.3366 80.4117C52.2272 80.3975 52.213 80.3975 52.1939 80.3975C52.1036 80.3975 52.0655 80.4736 52.0655 80.5259C52.0655 80.6115 52.1511 80.6733 52.2748 80.6828C52.3746 80.6923 52.4745 80.6923 52.6219 80.6923H52.95C53.0594 80.6923 53.145 80.7113 53.378 80.7113ZM55.3959 79.6699C55.296 79.5843 55.2247 79.5225 55.1629 79.4845C55.1676 79.475 55.1676 79.4702 55.1676 79.4607C55.1676 79.3751 55.0297 79.261 54.849 79.261C54.7254 79.261 54.6303 79.3085 54.4591 79.4607C54.2166 79.6794 54.0929 79.9267 54.0264 80.2168C53.955 80.5211 53.917 80.7303 53.917 80.9681C53.917 81.1821 53.9455 81.3866 54.0264 81.5863C54.1262 81.8383 54.3307 82.0476 54.578 82.0476C54.8443 82.0476 55.0012 81.9097 55.1819 81.7004C55.2722 81.5958 55.3721 81.4484 55.4529 81.282C55.5623 81.0585 55.6669 80.7161 55.6669 80.4593C55.6669 80.2073 55.5813 79.8316 55.3959 79.6699ZM55.2675 81.087C55.1629 81.3628 54.8728 81.8241 54.6112 81.8241C54.5019 81.8241 54.383 81.7194 54.3164 81.6006C54.2071 81.4056 54.1738 81.1964 54.1738 80.9776C54.1738 80.6876 54.2403 80.3452 54.345 80.0646C54.4163 79.8839 54.6778 79.5368 54.7919 79.5368C54.8252 79.5368 54.8443 79.551 54.8775 79.5653C54.9013 79.5891 54.9346 79.6081 54.9774 79.6319C55.277 79.7936 55.4101 80.0313 55.4101 80.4213C55.4101 80.6162 55.3531 80.8683 55.2675 81.087ZM57.0824 80.6495C57.401 80.3927 57.8385 79.9457 57.8385 79.6699C57.8385 79.3038 57.4391 79.1136 57.0587 79.1136C56.5974 79.1136 55.9269 79.475 55.9269 79.8364C55.9269 80.0408 56.2408 80.3071 56.6687 80.64C56.2408 80.9871 56.0078 81.2154 56.0078 81.4531C56.0078 81.8145 56.3929 82.0333 56.8304 82.0333C57.2679 82.0333 57.7054 81.8193 57.7054 81.4531C57.7054 81.1393 57.5865 81.0299 57.0824 80.6495ZM56.2265 79.8364C56.2265 79.746 56.2836 79.6652 56.3882 79.6319C56.4452 79.6129 56.4785 79.5986 56.5213 79.5558C56.5974 79.4797 56.8637 79.3608 57.0967 79.3608C57.2917 79.3608 57.558 79.4464 57.558 79.6271C57.558 79.8126 57.3487 80.1074 56.9968 80.3832L56.8685 80.4831C56.469 80.1835 56.2265 80.0028 56.2265 79.8364ZM56.8352 81.8098C56.5927 81.8098 56.3216 81.729 56.3216 81.4627C56.3216 81.2487 56.5736 81.0347 56.878 80.8017C57.1538 81.0062 57.4106 81.1583 57.4106 81.3913C57.4106 81.6957 57.1443 81.8098 56.8352 81.8098ZM59.4336 80.7113C59.5668 80.7113 59.6619 80.6352 59.6619 80.5544C59.6619 80.4783 59.5858 80.4165 59.5097 80.4165C59.4241 80.4165 59.3433 80.4308 59.2672 80.4308H58.8297C58.6348 80.4308 58.4969 80.426 58.3922 80.4117C58.2829 80.3975 58.2686 80.3975 58.2496 80.3975C58.1592 80.3975 58.1212 80.4736 58.1212 80.5259C58.1212 80.6115 58.2068 80.6733 58.3304 80.6828C58.4303 80.6923 58.5301 80.6923 58.6776 80.6923H59.0057C59.115 80.6923 59.2006 80.7113 59.4336 80.7113ZM61.5704 81.6862C61.4135 81.6862 61.2565 81.7099 61.0996 81.7099C60.8856 81.7099 60.6954 81.7242 60.4149 81.7717C60.7049 81.3723 60.9427 81.0014 60.9903 80.9348C61.1947 80.64 61.3754 80.2263 61.3754 79.8649C61.3754 79.7365 61.3564 79.5843 61.2518 79.4655C61.1329 79.3276 61.0093 79.242 60.781 79.242C60.6289 79.242 60.4672 79.3038 60.3673 79.4179C60.2151 79.5891 60.101 79.8506 60.101 80.0456C60.101 80.1597 60.1771 80.2025 60.2437 80.2025C60.3103 80.2025 60.3578 80.174 60.3673 80.0931C60.3863 79.922 60.4291 79.7936 60.5052 79.6794C60.5718 79.5748 60.6384 79.5035 60.8048 79.5035C60.9475 79.5035 61.1044 79.5843 61.1044 79.8792C61.1044 80.1692 60.8904 80.6257 60.6764 80.9301C60.5147 81.1583 60.353 81.3913 60.2056 81.6291C60.1676 81.6909 60.1248 81.748 60.0963 81.767C60.0297 81.8145 60.0154 81.8288 60.0154 81.8954C60.0154 81.962 60.1296 82.038 60.2579 82.038C60.3911 82.038 60.5575 81.9572 60.8761 81.9572C61.0045 81.9572 61.4325 81.9667 61.5751 81.9667C61.675 81.9667 61.7226 81.9001 61.7226 81.8383C61.7226 81.7432 61.656 81.6862 61.5704 81.6862ZM63.4683 81.7432C63.359 81.7432 63.2258 81.7527 63.0451 81.7622C63.0308 81.7622 62.9928 81.767 62.9357 81.767C62.9357 81.6529 62.9357 81.534 62.9405 81.2249C62.9453 80.9871 62.9548 80.9301 62.9643 80.5449V79.9267C62.9643 79.8078 62.969 79.6842 62.9785 79.5273C62.9785 79.4655 62.9928 79.4369 62.9928 79.3228C62.9928 79.242 62.95 79.1801 62.8549 79.1801C62.7503 79.1801 62.7122 79.2182 62.6171 79.3608C62.465 79.5843 62.2653 79.8554 61.9276 80.1597C61.8943 80.1883 61.8801 80.2168 61.8801 80.2453C61.8801 80.3024 61.9609 80.3737 62.0513 80.3737C62.0988 80.3737 62.1606 80.3547 62.2034 80.3119C62.3889 80.1264 62.5791 79.8934 62.698 79.6747C62.6837 79.8459 62.6837 79.9124 62.6837 79.9695C62.6837 80.5069 62.679 80.8445 62.6647 81.3771C62.6599 81.5625 62.6647 81.6576 62.6599 81.7717C62.5315 81.7765 62.4079 81.7765 62.3651 81.7765C62.2653 81.7765 62.1939 81.7765 62.1416 81.7717C62.0846 81.767 62.0418 81.7575 61.9942 81.7575C61.9276 81.7575 61.8753 81.7955 61.8753 81.8573C61.8753 81.9524 61.9229 82.0143 62.056 82.0143L62.95 82C63.1212 81.9952 63.2258 82.0095 63.4446 82.0095C63.5397 82.0095 63.5967 81.9572 63.5967 81.8621C63.5967 81.7908 63.5539 81.7432 63.4683 81.7432Z" fill="black"/>
<path fill-rule="evenodd" clip-rule="evenodd" d="M51.5563 113.587C34.1223 118.822 39.9277 132.957 39.9277 132.957C39.9277 132.957 60.7554 158.881 68.8267 147.475C78.4112 136.578 80.5 105.001 80.5 105.001C80.5 85 55.5327 116.336 55.5327 116.336L51.5563 113.587Z" fill="#01BC8D"/>
<path fill-rule="evenodd" clip-rule="evenodd" d="M156.944 116.259C174.378 121.494 168.572 135.629 168.572 135.629C168.572 135.629 147.745 161.553 139.673 150.147C130.089 139.25 128 107.673 128 107.673C128 87.6719 152.967 119.008 152.967 119.008L156.944 116.259Z" fill="#01BC8D"/>
<mask id="mask0_2749_55015" style="mask-type:alpha" maskUnits="userSpaceOnUse" x="28" y="86" width="26" height="42">
<path fill-rule="evenodd" clip-rule="evenodd" d="M53.1124 117.501C53.1124 117.501 53.5819 126.542 43.3662 127.012C43.3662 127.012 29.2752 114.565 28.2184 111.16C26.1543 104.509 39.3737 87.9096 40.4305 86.8528C41.4873 85.796 43.8358 87.3223 42.5441 90.6104C42.5441 90.6104 45.2449 85.5612 46.067 86.0308C46.889 86.5005 49.2374 87.0873 48.298 90.0233C48.298 90.0233 53.9343 89.0843 50.6465 96.0119C50.6465 96.0119 58.0442 92.8415 50.1769 111.16L53.1124 117.501Z" fill="white"/>
</mask>
<g mask="url(#mask0_2749_55015)">
<path fill-rule="evenodd" clip-rule="evenodd" d="M53.1124 117.501C53.1124 117.501 53.5819 126.542 43.3662 127.012C43.3662 127.012 29.2752 114.565 28.2184 111.16C26.1543 104.509 39.3737 87.9096 40.4305 86.8528C41.4873 85.796 43.8358 87.3223 42.5441 90.6104C42.5441 90.6104 45.2449 85.5612 46.067 86.0308C46.889 86.5005 49.2374 87.0873 48.298 90.0233C48.298 90.0233 53.9343 89.0843 50.6465 96.0119C50.6465 96.0119 58.0442 92.8415 50.1769 111.16L53.1124 117.501Z" fill="#FFEAE3"/>
<path d="M43 90C40.5 92.5 37.5 97.5 36.5 100" stroke="#FFD5C7" stroke-linecap="round"/>
<path d="M48.5 90C46.5 91.5 41.5 99.5 40.5 103.5" stroke="#FFD5C7" stroke-linecap="round"/>
<path d="M51 95.5C48.5 98 45.5 102.5 44.5 107" stroke="#FFD5C7" stroke-linecap="round"/>
<path d="M34.5195 121.334C53.8421 128.278 53.1124 117.5 53.1124 117.5L53.8421 128.278L36.5718 128.634" fill="black"/>
</g>
<g filter="url(#filter1_dd_2749_55015)">
<path d="M135 74.697C135 73.7598 135.76 73 136.697 73H179.97C180.907 73 181.667 73.7598 181.667 74.697V99.303C181.667 100.24 180.907 101 179.97 101H136.697C135.76 101 135 100.24 135 99.303V74.697Z" fill="white" shape-rendering="crispEdges"/>
<path d="M136.697 72.9167C135.714 72.9167 134.917 73.7137 134.917 74.697V99.303C134.917 100.286 135.714 101.083 136.697 101.083H179.97C180.953 101.083 181.75 100.286 181.75 99.303V74.697C181.75 73.7137 180.953 72.9167 179.97 72.9167H136.697Z" stroke="#000D1D" stroke-opacity="0.08" stroke-width="0.166667" shape-rendering="crispEdges"/>
</g>
<rect opacity="0.08" x="169.576" y="95.5898" width="8.27273" height="1.06061" fill="black"/>
<path opacity="0.16" d="M135 79.7879H181.667V74.697C181.667 73.7598 180.907 73 179.97 73H136.697C135.76 73 135 73.7598 135 74.697V79.7879Z" fill="#737E8D"/>
<path d="M143.649 75.5483H143.192V77.6687H143.649V75.5483Z" fill="#737E8D"/>
<path d="M144.865 75.5483H144.126V77.6687H144.865C145.442 77.6746 145.7 77.4133 145.685 76.8401V76.3768C145.7 75.8037 145.439 75.5394 144.865 75.5483ZM144.583 77.3064V75.9106H144.782C145.127 75.9076 145.222 76.0116 145.228 76.4125V76.8045C145.222 77.2054 145.127 77.3093 144.782 77.3064H144.583Z" fill="#737E8D"/>
<path d="M147.446 75.5483H146.107V77.6687H147.458V77.2974H146.558V76.7837H147.31V76.4125H146.558V75.9195H147.446V75.5483Z" fill="#737E8D"/>
<path d="M148.275 75.5483H147.832V77.6687H148.275V76.3115L149.026 77.6687H149.469V75.5483H149.026V76.9054L148.275 75.5483Z" fill="#737E8D"/>
<path d="M149.788 75.9195H150.352V77.6687H150.81V75.9195H151.371V75.5483H149.788V75.9195Z" fill="#737E8D"/>
<path d="M152.147 75.5483H151.689V77.6687H152.147V75.5483Z" fill="#737E8D"/>
<path d="M153.945 75.5483H152.626V77.6687H153.084V76.7985H153.802V76.4273H153.084V75.9195H153.945V75.5483Z" fill="#737E8D"/>
<path d="M154.705 75.5483H154.247V77.6687H154.705V75.5483Z" fill="#737E8D"/>
<path d="M156.672 77.0925L156.244 77.042C156.221 77.241 156.117 77.3331 155.915 77.3331C155.668 77.3331 155.591 77.2084 155.591 76.8074V76.4154C155.591 76.0175 155.668 75.8898 155.912 75.8898C156.102 75.8898 156.197 75.9789 156.221 76.1808L156.639 76.1511C156.618 75.7205 156.387 75.5216 155.906 75.5216C155.621 75.5216 155.442 75.5869 155.303 75.7413C155.178 75.8809 155.134 76.0531 155.134 76.3798V76.8431C155.134 77.146 155.172 77.3093 155.273 77.4459C155.407 77.6241 155.6 77.7013 155.906 77.7013C156.191 77.7013 156.393 77.636 156.52 77.5024C156.621 77.3954 156.663 77.2856 156.672 77.0925Z" fill="#737E8D"/>
<path d="M157.303 77.6687L157.428 77.2707H158.17L158.292 77.6687H158.788L158.018 75.5483H157.576L156.81 77.6687H157.303ZM157.537 76.9084L157.802 76.0828L158.06 76.9084H157.537Z" fill="#737E8D"/>
<path d="M158.674 75.9195H159.238V77.6687H159.695V75.9195H160.257V75.5483H158.674V75.9195Z" fill="#737E8D"/>
<path d="M161.033 75.5483H160.575V77.6687H161.033V75.5483Z" fill="#737E8D"/>
<path d="M161.462 76.359V76.8579C161.462 77.149 161.503 77.3182 161.607 77.4489C161.747 77.6271 161.946 77.7013 162.263 77.7013C162.566 77.7013 162.747 77.639 162.89 77.4845C163.021 77.3479 163.068 77.1757 163.068 76.8579V76.359C163.068 76.065 163.027 75.9017 162.923 75.768C162.783 75.5899 162.584 75.5156 162.263 75.5156C161.963 75.5156 161.782 75.578 161.64 75.7324C161.509 75.869 161.462 76.0413 161.462 76.359ZM161.919 76.8193V76.3976C161.919 76.0116 162.005 75.8839 162.266 75.8839C162.525 75.8839 162.611 76.0116 162.611 76.3976V76.8193C162.611 77.2054 162.525 77.3331 162.263 77.3331C162.005 77.3331 161.919 77.2054 161.919 76.8193Z" fill="#737E8D"/>
<path d="M163.935 75.5483H163.493V77.6687H163.935V76.3115L164.687 77.6687H165.129V75.5483H164.687V76.9054L163.935 75.5483Z" fill="#737E8D"/>
<path d="M167.689 77.0925L167.262 77.042C167.238 77.241 167.134 77.3331 166.932 77.3331C166.686 77.3331 166.608 77.2084 166.608 76.8074V76.4154C166.608 76.0175 166.686 75.8898 166.929 75.8898C167.119 75.8898 167.214 75.9789 167.238 76.1808L167.657 76.1511C167.636 75.7205 167.404 75.5216 166.923 75.5216C166.638 75.5216 166.46 75.5869 166.32 75.7413C166.196 75.8809 166.151 76.0531 166.151 76.3798V76.8431C166.151 77.146 166.19 77.3093 166.291 77.4459C166.424 77.6241 166.617 77.7013 166.923 77.7013C167.208 77.7013 167.41 77.636 167.538 77.5024C167.639 77.3954 167.68 77.2856 167.689 77.0925Z" fill="#737E8D"/>
<path d="M168.32 77.6687L168.445 77.2707H169.187L169.309 77.6687H169.805L169.036 75.5483H168.593L167.827 77.6687H168.32ZM168.555 76.9084L168.819 76.0828L169.078 76.9084H168.555Z" fill="#737E8D"/>
<path d="M169.977 77.6687H170.435V76.8253H170.658L171.055 77.6687H171.56L171.103 76.7896C171.376 76.7124 171.486 76.5372 171.486 76.1719C171.486 75.9522 171.439 75.8096 171.332 75.7027C171.219 75.5899 171.067 75.5483 170.782 75.5483H169.977V77.6687ZM170.426 76.4748V75.9106H170.738C170.955 75.9106 171.035 75.9878 171.035 76.1927C171.035 76.3976 170.955 76.4748 170.744 76.4748H170.426Z" fill="#737E8D"/>
<path d="M172.64 75.5483H171.9V77.6687H172.64C173.216 77.6746 173.474 77.4133 173.459 76.8401V76.3768C173.474 75.8037 173.213 75.5394 172.64 75.5483ZM172.358 77.3064V75.9106H172.556C172.901 75.9076 172.996 76.0116 173.002 76.4125V76.8045C172.996 77.2054 172.901 77.3093 172.556 77.3064H172.358Z" fill="#737E8D"/>
<rect opacity="0.08" x="172.015" y="84.5625" width="5.83333" height="6.89394" fill="black"/>
<rect opacity="0.16" x="138.818" y="83.7109" width="11.0303" height="12.9394" fill="#C9C9C9"/>
<path d="M141.563 89.0106C141.563 87.432 142.842 86.1523 144.421 86.1523C146 86.1523 147.279 87.432 147.279 89.0106V89.9764C147.279 90.4457 146.899 90.8262 146.429 90.8262H142.413C141.943 90.8262 141.563 90.4457 141.563 89.9764V89.0106Z" fill="#242C36"/>
<path d="M140.197 96.6858C140.197 94.8789 141.661 93.4141 143.468 93.4141H145.41C147.217 93.4141 148.681 94.8789 148.681 96.6858H140.197Z" fill="#01BC8D"/>
<path d="M143.484 92.4336H145.393V93.4924C145.393 94.0196 144.966 94.4469 144.439 94.4469C143.912 94.4469 143.484 94.0196 143.484 93.4924V92.4336Z" fill="#FFDED3"/>
<path fill-rule="evenodd" clip-rule="evenodd" d="M141.893 90.0765H142.211C142.369 89.5402 142.857 89.1686 143.416 89.1592L144.166 89.1465C144.732 89.1369 145.224 88.8209 145.481 88.3555L145.522 88.5719C145.573 88.8425 145.777 89.0588 146.044 89.1256C146.296 89.1887 146.493 89.3858 146.556 89.6383L146.666 90.0766H146.878L146.878 90.2887L146.927 90.2401V90.4164C146.927 91.8063 145.8 92.9331 144.41 92.9331C143.02 92.9331 141.893 91.8063 141.893 90.4164V90.0765Z" fill="#FFEAE3"/>
<path d="M142.106 90.0781H141.947C141.683 90.0781 141.469 90.2918 141.469 90.5554C141.469 90.819 141.683 91.0327 141.947 91.0327H142.106V90.0781Z" fill="#FFEAE3"/>
<path d="M146.666 90.0781H146.825C147.089 90.0781 147.303 90.2918 147.303 90.5554C147.303 90.819 147.089 91.0327 146.825 91.0327H146.666V90.0781Z" fill="#FFEAE3"/>
<rect opacity="0.08" x="151.546" y="85.1992" width="6.36364" height="0.424243" fill="black"/>
<rect opacity="0.08" x="151.546" y="87.3203" width="5.09091" height="0.424243" fill="black"/>
<rect opacity="0.08" x="151.546" y="90.9258" width="9.33333" height="0.424243" fill="black"/>
<rect opacity="0.08" x="151.546" y="94.7461" width="9.33333" height="0.424243" fill="black"/>
<rect opacity="0.08" x="172.864" y="94.7461" width="4.98485" height="0.424243" fill="black"/>
<rect opacity="0.08" x="151.546" y="83.7148" width="10.6061" height="1.06061" fill="black"/>
<rect opacity="0.08" x="151.546" y="88.168" width="8.48485" height="1.06061" fill="black"/>
<rect opacity="0.08" x="151.546" y="91.7734" width="12.7273" height="1.06061" fill="black"/>
<rect opacity="0.08" x="151.546" y="95.5938" width="11.4545" height="1.06061" fill="black"/>
<path fill-rule="evenodd" clip-rule="evenodd" d="M186.503 94.7692C186.74 97.2956 182.571 108.067 181.751 109.036C180.931 110.004 165.203 117.35 165.203 117.35L165.203 124.5C165.212 123.832 152 125.499 152 125.499C152 125.499 147.981 122.117 148 121.998L150.444 112.019C153.098 104.39 162.587 102.519 162.587 102.519C162.587 102.519 162.788 97.3719 166.739 96.5808C166.739 96.5808 167.223 92.1722 170.477 91.6103C170.477 91.6103 168.725 88.8556 167.898 87.3992C167.186 86.1461 171.018 82.4514 175.725 90.3866L179.439 97.4349C179.439 97.4349 181.223 94.8547 181.108 93.1775C180.993 91.5003 177.992 88.0767 180.165 85.421C181.606 83.6585 186.267 92.2428 186.503 94.7692Z" fill="#FFEAE3"/>
<path d="M171 92C172.5 93 176.5 97.5 177 101" stroke="#FFD5C7" stroke-linecap="round"/>
<path d="M167 97C168.5 98 172 101 172.5 104.5" stroke="#FFD5C7" stroke-linecap="round"/>
<path d="M165.5 122.5C153.305 128.381 147.5 121.5 147.5 121.5C147.5 121.5 149.249 127.305 155.5 128C161.751 128.695 165.5 124.5 165.5 124.5" fill="black"/>
<rect x="190" y="8" width="10" height="2" fill="#A5ACB5"/>
<rect x="198" y="18" width="10" height="2" transform="rotate(-90 198 18)" fill="#A5ACB5"/>
<rect width="10" height="2" transform="matrix(1 0 0 -1 190 132)" fill="#A5ACB5"/>
<rect width="10" height="2" transform="matrix(0 1 1 0 198 122)" fill="#A5ACB5"/>
<rect x="18" y="132" width="10" height="2" transform="rotate(-180 18 132)" fill="#A5ACB5"/>
<rect x="10" y="122" width="10" height="2" transform="rotate(90 10 122)" fill="#A5ACB5"/>
<rect width="10" height="2" transform="matrix(-1 0 0 1 18 8)" fill="#A5ACB5"/>
<rect width="10" height="2" transform="matrix(0 -1 -1 0 10 18)" fill="#A5ACB5"/>
</g>
<defs>
<filter id="filter0_d_2749_55015" x="26" y="57" width="43" height="44" filterUnits="userSpaceOnUse" color-interpolation-filters="sRGB">
<feFlood flood-opacity="0" result="BackgroundImageFix"/>
<feColorMatrix in="SourceAlpha" type="matrix" values="0 0 0 0 0 0 0 0 0 0 0 0 0 0 0 0 0 0 127 0" result="hardAlpha"/>
<feOffset dy="2"/>
<feGaussianBlur stdDeviation="1"/>
<feComposite in2="hardAlpha" operator="out"/>
<feColorMatrix type="matrix" values="0 0 0 0 0 0 0 0 0 0 0 0 0 0 0 0 0 0 0.05 0"/>
<feBlend mode="normal" in2="BackgroundImageFix" result="effect1_dropShadow_2749_55015"/>
<feBlend mode="normal" in="SourceGraphic" in2="effect1_dropShadow_2749_55015" result="shape"/>
</filter>
<filter id="filter1_dd_2749_55015" x="118.833" y="64.832" width="79" height="60.3359" filterUnits="userSpaceOnUse" color-interpolation-filters="sRGB">
<feFlood flood-opacity="0" result="BackgroundImageFix"/>
<feColorMatrix in="SourceAlpha" type="matrix" values="0 0 0 0 0 0 0 0 0 0 0 0 0 0 0 0 0 0 127 0" result="hardAlpha"/>
<feOffset dy="8"/>
<feGaussianBlur stdDeviation="8"/>
<feColorMatrix type="matrix" values="0 0 0 0 0 0 0 0 0 0 0 0 0 0 0 0 0 0 0.05 0"/>
<feBlend mode="normal" in2="BackgroundImageFix" result="effect1_dropShadow_2749_55015"/>
<feColorMatrix in="SourceAlpha" type="matrix" values="0 0 0 0 0 0 0 0 0 0 0 0 0 0 0 0 0 0 127 0" result="hardAlpha"/>
<feOffset/>
<feGaussianBlur stdDeviation="0.5"/>
<feComposite in2="hardAlpha" operator="out"/>
<feColorMatrix type="matrix" values="0 0 0 0 0 0 0 0 0 0 0 0 0 0 0 0 0 0 0.1 0"/>
<feBlend mode="normal" in2="effect1_dropShadow_2749_55015" result="effect2_dropShadow_2749_55015"/>
<feBlend mode="normal" in="SourceGraphic" in2="effect2_dropShadow_2749_55015" result="shape"/>
</filter>
<linearGradient id="paint0_linear_2749_55015" x1="47.5" y1="57" x2="47.5" y2="97" gradientUnits="userSpaceOnUse">
<stop stop-color="#F4F4F4"/>
<stop offset="1" stop-color="white"/>
</linearGradient>
<clipPath id="clip0_2749_55015">
<rect width="208" height="140" fill="white"/>
</clipPath>
</defs>
</svg>
