<svg xmlns="http://www.w3.org/2000/svg" width="16" height="16" viewBox="0 0 16 16" fill="none">
<path fill-rule="evenodd" clip-rule="evenodd" d="M4.31774 3.66659C3.97609 3.66659 3.79169 4.06723 4.0139 4.32674L7.30656 8.17226C7.40999 8.29305 7.46683 8.44683 7.46683 8.60585V12.4004L8.5335 12.9272V8.60585C8.5335 8.44683 8.59034 8.29305 8.69377 8.17226L11.9864 4.32674C12.2086 4.06723 12.0242 3.66659 11.6826 3.66659H4.31774ZM3.0011 5.19393C2.03822 4.06939 2.83728 2.33325 4.31774 2.33325H11.6826C13.163 2.33325 13.9621 4.06939 12.9992 5.19393L9.86683 8.85227V13.9999C9.86683 14.2304 9.7478 14.4445 9.55205 14.5662C9.35631 14.6878 9.11162 14.6997 8.90497 14.5977L6.50497 13.4125C6.2775 13.3001 6.1335 13.0684 6.1335 12.8147V8.85227L3.0011 5.19393Z" fill="#8C8C8C" fill-opacity="0.6"/>
</svg>
