<svg width="32" height="32" viewBox="0 0 32 32" fill="none" xmlns="http://www.w3.org/2000/svg">
<circle opacity="0.2" cx="16" cy="16" r="7.5" fill="#01BC8D"/>
<path d="M10.624 17.792L14.208 14.208L17.792 17.792L21.376 14.208" stroke="black" stroke-width="1.8" stroke-linecap="round" stroke-linejoin="round"/>
<path fill-rule="evenodd" clip-rule="evenodd" d="M25.1216 19C25.4318 18.0562 25.5996 17.0477 25.5996 16.0001C25.5996 10.6982 21.3015 6.4001 15.9996 6.4001C10.6977 6.4001 6.39961 10.6982 6.39961 16.0001C6.39961 20.9645 10.1678 25.0487 15 25.5487V27.3569C9.17209 26.8506 4.59961 21.9593 4.59961 16.0001C4.59961 9.70405 9.70356 4.6001 15.9996 4.6001C22.2957 4.6001 27.3996 9.70405 27.3996 16.0001C27.3996 17.0383 27.2608 18.0441 27.0008 19H25.1216Z" fill="#000D1D"/>
<path d="M27.2408 21V28.4688H25.707V21H27.2408Z" fill="#01BC8D"/>
<path d="M21.5827 22.2773L19.5514 28.4688H17.915L20.6902 21H21.7315L21.5827 22.2773ZM23.2704 28.4688L21.2339 22.2773L21.0698 21H22.1213L24.9119 28.4688H23.2704ZM23.178 25.6885V26.894H19.2334V25.6885H23.178Z" fill="#01BC8D"/>
</svg>
