<?xml version="1.0" encoding="UTF-8"?>
<svg width="600px" height="600px" viewBox="0 0 600 600" version="1.1" xmlns="http://www.w3.org/2000/svg" xmlns:xlink="http://www.w3.org/1999/xlink">
    <!-- Generator: Sketch 52.2 (67145) - http://www.bohemiancoding.com/sketch -->
    <title>Artboard Copy 2</title>
    <desc>Created with Sketch.</desc>
    <g id="Artboard-Copy-2" stroke="none" stroke-width="1" fill="none" fill-rule="evenodd">
        <rect fill="#95C6FF" x="0" y="0" width="600" height="600"></rect>
        <g id="Group" transform="translate(170.000000, 190.000000)" fill-rule="nonzero">
            <path d="M232.727273,5.68434189e-14 C244.363636,5.68434189e-14 256,11.6666667 256,23.3333333 L256,186.666667 C256,198.333333 244.363636,210 232.727273,210 L23.2727273,210 C10.4727273,210 -2.84217094e-14,199.5 -2.84217094e-14,186.666667 L-2.84217094e-14,23.3333333 C-2.84217094e-14,11.6666667 11.6363636,5.68434189e-14 23.2727273,5.68434189e-14 L232.727273,5.68434189e-14 Z M46.5454545,163.333333 L209.454545,163.333333 L157.090909,93.3333333 L116.363636,145.95 L87.2727273,110.833333 L46.5454545,163.333333 Z M62,84 C71.3888407,84 79,76.3888407 79,67 C79,57.6111593 71.3888407,50 62,50 C52.6111593,50 45,57.6111593 45,67 C45,76.3888407 52.6111593,84 62,84 Z" id="Combined-Shape" fill="#FFFFFF"></path>
            <g id="ic-check-circle-48-px" transform="translate(168.000000, 129.000000)" fill="#0AB985">
                <path d="M51.5,0 C23.04625,0 0,23.04625 0,51.5 C0,79.928 23.04625,103 51.5,103 C79.928,103 103,79.928 103,51.5 C103,23.04625 79.928,0 51.5,0 Z M41.2,77.25 L15.45,51.5 L22.73725,44.21275 L41.2,62.6755 L80.26275,23.61275 L87.55,30.9 L41.2,77.25 Z" id="Shape"></path>
            </g>
        </g>
    </g>
</svg>