<svg width="240" height="240" viewBox="0 0 240 240" fill="none" xmlns="http://www.w3.org/2000/svg">
<rect width="240" height="240" rx="56.6667" fill="#15B795"/>
<path d="M94.1115 118.67L139.205 163.763L167.701 135.268C172.695 130.274 180.921 130.274 185.915 135.268C190.909 140.262 190.909 148.487 185.915 153.482L148.312 191.084C143.318 196.078 135.092 196.078 130.098 191.084L76.0447 136.884V169.198C76.0447 176.249 70.3162 182.124 63.1188 182.124C55.9214 182.124 50.1929 176.396 50.1929 169.198V68.435C50.1929 61.2376 55.9214 55.5091 63.1188 55.5091C70.3162 55.5091 76.0447 61.2376 76.0447 68.435V100.456L130.245 46.2553C135.239 41.2612 143.465 41.2612 148.459 46.2553L186.062 83.8579C191.056 88.852 191.056 97.0776 186.062 102.072C181.067 107.066 172.842 107.066 167.848 102.072L139.352 73.576L94.1115 118.67ZM139.352 105.744C132.155 105.744 126.426 111.472 126.426 118.67C126.426 125.867 132.155 131.596 139.352 131.596C146.549 131.596 152.278 125.867 152.278 118.67C152.131 111.472 146.403 105.744 139.352 105.744Z" fill="white"/>
</svg>
