<svg width="76" height="62" viewBox="0 0 76 62" fill="none" xmlns="http://www.w3.org/2000/svg">
<rect width="76" height="56" rx="8.19512" fill="#F3F3F3" fill-opacity="0.04"/>
<g clip-path="url(#clip0_4269_4493)">
<path d="M38.4632 50.9926C41.2291 50.9926 43.4719 53.2344 43.472 56.0004C43.472 58.7663 41.2292 61.0082 38.4632 61.0082C35.6973 61.0081 33.4554 58.7663 33.4554 56.0004C33.4555 53.2345 35.6974 50.9927 38.4632 50.9926ZM40.0726 54.391C39.8948 54.2132 39.6068 54.2132 39.429 54.391L38.4632 55.3568L37.4974 54.391C37.3196 54.2132 37.0316 54.2132 36.8538 54.391C36.6762 54.5688 36.6761 54.8568 36.8538 55.0345L37.8196 56.0004L36.8538 56.9662C36.676 57.144 36.676 57.4319 36.8538 57.6097C37.0316 57.7875 37.3196 57.7875 37.4974 57.6097L38.4632 56.6439L39.429 57.6097C39.6068 57.7875 39.8948 57.7874 40.0726 57.6097C40.2504 57.4319 40.2504 57.144 40.0726 56.9662L39.1068 56.0004L40.0726 55.0345C40.2504 54.8567 40.2504 54.5688 40.0726 54.391Z" fill="#F65454"/>
</g>
<rect x="13.2" y="11.5335" width="49.6" height="32.9333" rx="2.65714" fill="#1D1D1D" stroke="#F3F3F3" stroke-width="0.4"/>
<g filter="url(#filter0_f_4269_4493)">
<rect x="16.5339" y="23.2002" width="16.2667" height="17.9333" rx="1.8" stroke="#F3F3F3" stroke-width="0.4"/>
<rect x="18.5213" y="25.1582" width="12.2917" height="14.018" rx="2" fill="#F3F3F3" fill-opacity="0.08"/>
<rect width="7.5" height="5.83333" rx="1" transform="matrix(-1 0 0 1 42.9994 35.5004)" fill="#F3F3F3" fill-opacity="0.08"/>
<rect width="5" height="1.66667" rx="0.833333" transform="matrix(-1 0 0 1 49.6663 39.6666)" fill="#F3F3F3" fill-opacity="0.08"/>
<rect width="9.16667" height="1.66667" rx="0.833333" transform="matrix(-1 0 0 1 53.833 36.969)" fill="#F3F3F3" fill-opacity="0.08"/>
<rect width="10.0787" height="2.5" rx="1" transform="matrix(-1 0 0 1 59.688 22.1671)" fill="#F3F3F3" fill-opacity="0.08"/>
<rect width="12.0944" height="2.5" rx="1" transform="matrix(-1 0 0 1 47.5939 22.1671)" fill="#F3F3F3" fill-opacity="0.08"/>
<rect width="5.37528" height="2.5" rx="1" transform="matrix(-1 0 0 1 40.8756 26.3337)" fill="#F3F3F3" fill-opacity="0.08"/>
<rect width="16.7978" height="2.5" rx="1" transform="matrix(-1 0 0 1 59.8076 26.3337)" fill="#F3F3F3" fill-opacity="0.08"/>
<rect width="24.1888" height="2.5" rx="1" transform="matrix(-1 0 0 1 59.6879 30.5005)" fill="#F3F3F3" fill-opacity="0.08"/>
<rect width="45" height="5" rx="1" transform="matrix(-1 0 0 1 60.4995 14.6669)" fill="#F3F3F3" fill-opacity="0.08"/>
</g>
<defs>
<filter id="filter0_f_4269_4493" x="13.4995" y="12.6669" width="49" height="30.6669" filterUnits="userSpaceOnUse" color-interpolation-filters="sRGB">
<feFlood flood-opacity="0" result="BackgroundImageFix"/>
<feBlend mode="normal" in="SourceGraphic" in2="BackgroundImageFix" result="shape"/>
<feGaussianBlur stdDeviation="1" result="effect1_foregroundBlur_4269_4493"/>
</filter>
<clipPath id="clip0_4269_4493">
<rect width="10.9268" height="10.9268" fill="white" transform="translate(33 50.5371)"/>
</clipPath>
</defs>
</svg>
