<svg width="52" height="52" viewBox="0 0 52 52" fill="none" xmlns="http://www.w3.org/2000/svg">
<circle cx="26" cy="26" r="26" fill="#1D1D1D" fill-opacity="0.04"/>
<rect x="0.293247" y="0.225668" width="31.111" height="23.0789" rx="3.01197" transform="matrix(0.978148 -0.207912 0.0495471 0.998772 10.5011 17.8855)" fill="#1D1D1D" stroke="#1D1D1D" stroke-width="0.57069"/>
<rect x="0.293247" y="0.225668" width="31.111" height="23.0789" rx="3.01197" transform="matrix(0.978148 -0.207912 0.0495471 0.998772 9.32921 17.2058)" fill="white" stroke="#1D1D1D" stroke-width="0.57069"/>
<path d="M12.5497 21.0029C12.5028 20.0585 13.2146 19.1336 14.1395 18.937L35.5755 14.3806C36.5004 14.1841 37.2882 14.7903 37.335 15.7347L37.851 26.1368C37.8979 27.0812 37.1861 28.0062 36.2612 28.2028L14.8252 32.7591C13.9003 32.9557 13.1126 32.3495 13.0657 31.4051L12.5497 21.0029Z" fill="#66DD8C"/>
<path d="M24.5105 18.4185C21.5918 19.079 19.3506 22.0341 19.4988 25.0229C19.6471 28.0117 22.1285 29.8981 25.0472 29.2377C27.9659 28.5773 30.2125 25.621 30.0642 22.6322C29.9159 19.6434 27.4292 17.7581 24.5105 18.4185ZM28.3298 20.8365L26.7714 21.1891C26.5662 20.5518 26.2936 19.957 25.9469 19.4283C26.9358 19.5491 27.7782 20.056 28.3298 20.8365ZM24.5678 19.5188C25.0411 20.0681 25.4203 20.7126 25.6832 21.4354L23.6652 21.892C23.8513 21.0676 24.1589 20.2677 24.5678 19.5188ZM20.7464 25.8346C20.642 25.5081 20.5739 25.1571 20.5554 24.7838C20.5368 24.4105 20.5691 24.0367 20.639 23.6708L22.4219 23.2674C22.3973 23.6313 22.3861 23.9976 22.4043 24.3654C22.4226 24.7333 22.4694 25.0865 22.5319 25.4306L20.7464 25.8346ZM21.2306 26.8191L22.789 26.4665C22.9942 27.1039 23.2668 27.6986 23.6137 28.2301C22.6248 28.1092 21.7821 27.5997 21.2306 26.8191ZM22.5743 22.1388L21.0159 22.4915C21.4786 21.4814 22.2525 20.6061 23.2076 20.0454C22.9206 20.7203 22.7124 21.4238 22.5743 22.1388ZM24.9953 28.1363C24.5246 27.5863 24.1454 26.9418 23.8799 26.2197L25.8979 25.7631C25.7091 26.588 25.4015 27.3879 24.9953 28.1363ZM26.0713 24.6297L23.599 25.1891C23.5313 24.8462 23.4791 24.4942 23.4608 24.1264C23.4426 23.7585 23.4591 23.391 23.4917 23.0253L25.964 22.4659C26.0318 22.8089 26.0839 23.1608 26.1022 23.5287C26.1204 23.8965 26.1039 24.264 26.0713 24.6297ZM26.3553 27.607C26.6423 26.9321 26.8506 26.2313 26.9887 25.5162L28.5471 25.1636C28.0818 26.1742 27.3077 27.0468 26.3553 27.607ZM27.1384 24.3883C27.1631 24.0244 27.177 23.6575 27.1587 23.2896C27.1405 22.9218 27.0936 22.5686 27.0311 22.2244L28.814 21.821C28.9183 22.1475 28.9891 22.498 29.0077 22.8712C29.0262 23.2445 28.994 23.6183 28.9213 23.9848L27.1384 24.3883Z" fill="#1D1D1D"/>
<path d="M17.0449 35.4518L33.7478 32.0391" stroke="#E7E7E7" stroke-width="2.28276" stroke-linecap="round"/>
</svg>
