<svg width="20" height="20" viewBox="0 0 20 20" fill="none" xmlns="http://www.w3.org/2000/svg">
<path fill-rule="evenodd" clip-rule="evenodd" d="M1.66602 3.33268C1.66602 2.41221 2.41221 1.66602 3.33268 1.66602H6.66602C7.12625 1.66602 7.49935 2.03911 7.49935 2.49935C7.49935 2.95959 7.12625 3.33268 6.66602 3.33268H3.33268V6.66602C3.33268 7.12625 2.95959 7.49935 2.49935 7.49935C2.03911 7.49935 1.66602 7.12625 1.66602 6.66602V3.33268Z" fill="#1D1D1D"/>
<path d="M9.99915 9.69948C10.9975 9.69948 11.8069 8.89012 11.8069 7.89173C11.8069 6.89334 10.9975 6.08398 9.99915 6.08398C9.00076 6.08398 8.19141 6.89334 8.19141 7.89173C8.19141 8.89012 9.00076 9.69948 9.99915 9.69948Z" stroke="#01BC8D" stroke-width="1.67" stroke-linecap="round" stroke-linejoin="round"/>
<path d="M14 13.9163C14 11.9195 12.2091 10.3008 10 10.3008C7.79087 10.3008 6 11.9195 6 13.9163" stroke="#01BC8D" stroke-width="1.67" stroke-linecap="round" stroke-linejoin="round"/>
<path fill-rule="evenodd" clip-rule="evenodd" d="M2.49935 12.5C2.95959 12.5 3.33268 12.8731 3.33268 13.3333V16.6667H6.66602C7.12625 16.6667 7.49935 17.0398 7.49935 17.5C7.49935 17.9602 7.12625 18.3333 6.66602 18.3333H3.33268C2.41222 18.3333 1.66602 17.5872 1.66602 16.6667V13.3333C1.66602 12.8731 2.03911 12.5 2.49935 12.5Z" fill="#1D1D1D"/>
<path fill-rule="evenodd" clip-rule="evenodd" d="M17.5 12.5C17.9602 12.5 18.3333 12.8731 18.3333 13.3333V16.6667C18.3333 17.5872 17.5872 18.3333 16.6667 18.3333H13.3333C12.8731 18.3333 12.5 17.9602 12.5 17.5C12.5 17.0398 12.8731 16.6667 13.3333 16.6667H16.6667V13.3333C16.6667 12.8731 17.0398 12.5 17.5 12.5Z" fill="#1D1D1D"/>
<path fill-rule="evenodd" clip-rule="evenodd" d="M12.5 2.49935C12.5 2.03911 12.8731 1.66602 13.3333 1.66602H16.6667C17.5872 1.66602 18.3333 2.41222 18.3333 3.33268V6.66602C18.3333 7.12625 17.9602 7.49935 17.5 7.49935C17.0398 7.49935 16.6667 7.12625 16.6667 6.66602V3.33268H13.3333C12.8731 3.33268 12.5 2.95959 12.5 2.49935Z" fill="#1D1D1D"/>
</svg>
