<svg width="16" height="17" viewBox="0 0 16 17" fill="none" xmlns="http://www.w3.org/2000/svg">
<path d="M8.89673 2.40559C8.52815 1.66283 7.46772 1.66553 7.10293 2.41015L5.5175 5.64636L1.90464 6.16985C1.08485 6.28863 0.756654 7.29551 1.34897 7.87457L3.9682 10.4352L3.34589 13.974C3.20155 14.7948 4.06565 15.4217 4.80111 15.0297L7.99936 13.3251L11.1983 15.0302C11.9332 15.4219 12.7969 14.7963 12.6538 13.9759L12.0364 10.4356L14.6518 7.87385C15.2429 7.2948 14.9151 6.28927 14.0963 6.16991L10.5049 5.64638L8.89673 2.40559Z" fill="currentColor"/>
<ellipse cx="6.21818" cy="7.57601" rx="1.18341" ry="0.786738" transform="rotate(-33.475 6.21818 7.57601)" fill="var(--item-bg)"/>
</svg>
