<svg width="16" height="17" viewBox="0 0 16 17" fill="none" xmlns="http://www.w3.org/2000/svg">
<g clip-path="url(#clip0_7032_1944)">
<path d="M7.06848 1.41187C7.67856 1.23383 8.32759 1.23368 8.93762 1.41187L12.7482 2.52515C13.8851 2.85746 14.667 3.90019 14.6671 5.08472V7.17749C14.6671 10.9194 12.4613 14.2744 9.10168 15.7849C8.40194 16.0995 7.60029 16.0994 6.90051 15.7849C3.54004 14.2744 1.33326 10.9192 1.33313 7.17651V5.08472C1.33334 3.89988 2.11563 2.85709 3.25305 2.52515L7.06848 1.41187ZM8.00012 10.1667C7.63195 10.1668 7.33313 10.4656 7.33313 10.8337V11.1667C7.33313 11.5349 7.63195 11.8337 8.00012 11.8337C8.36831 11.8337 8.66711 11.5349 8.66711 11.1667V10.8337C8.66711 10.4656 8.36831 10.1667 8.00012 10.1667ZM7.99915 4.83374C7.63125 4.83429 7.33297 5.13281 7.33313 5.50073L7.33606 8.83374C7.33637 9.20179 7.63505 9.49984 8.00305 9.49976C8.3712 9.49945 8.67028 9.20089 8.67004 8.83276L8.66711 5.49976C8.66667 5.13169 8.36725 4.83343 7.99915 4.83374Z" fill="currentColor"/>
</g>
<defs>
<clipPath id="clip0_7032_1944">
<rect width="16" height="16" fill="white" transform="translate(0 0.5)"/>
</clipPath>
</defs>
</svg>
