<svg width="16" height="16" viewBox="0 0 16 16" fill="none" xmlns="http://www.w3.org/2000/svg">
<path d="M6.50049 4L5.00049 5.5L3.50049 4L5.00049 2.5L6.50049 4Z" fill="#8C8C8C"/>
<path fill-rule="evenodd" clip-rule="evenodd" d="M5.00049 8C7.20963 8 9.00049 6.20914 9.00049 4C9.00049 1.79086 7.20963 0 5.00049 0C2.79135 0 1.00049 1.79086 1.00049 4C1.00049 6.20914 2.79135 8 5.00049 8ZM5.00049 6.8C6.54689 6.8 7.80049 5.5464 7.80049 4C7.80049 2.4536 6.54689 1.2 5.00049 1.2C3.45409 1.2 2.20049 2.4536 2.20049 4C2.20049 5.5464 3.45409 6.8 5.00049 6.8Z" fill="#8C8C8C"/>
<path d="M14.3623 9.80474C14.063 9.50551 13.6094 9.12776 13.0862 8.82883C12.5576 8.52676 12.0075 8.33333 11.5003 8.33333C11.257 8.33333 10.8774 8.39787 10.4037 8.5282C9.94146 8.65539 9.4303 8.83368 8.93976 9.0339C8.44855 9.23439 7.9905 9.45178 7.63241 9.65365C7.45312 9.75473 7.30707 9.84734 7.19767 9.92737C7.15193 9.96083 7.11567 9.98987 7.0878 10.0142C7.12236 10.0817 7.19011 10.1777 7.29918 10.294C7.40203 10.4037 7.51754 10.5063 7.62069 10.5905L9.28951 10.0342C9.6388 9.91778 10.0163 10.1066 10.1328 10.4558C10.2492 10.8051 10.0604 11.1827 9.71114 11.2991L7.71766 11.9636C7.60207 12.0034 7.4764 12.0112 7.35514 11.9842L7.15462 11.9443C7.01704 11.9171 6.81965 11.8781 6.58065 11.8313C6.10253 11.7378 5.45852 11.6132 4.79413 11.4886C4.12904 11.3639 3.44666 11.2398 2.89073 11.1472C2.58723 11.0966 2.3414 11.059 2.16114 11.0345C2.20072 11.0846 2.24836 11.1386 2.30506 11.1953C2.61038 11.5006 3.32292 12.1348 4.19158 12.6876C5.07882 13.2522 6.02857 13.6667 6.83366 13.6667C7.72077 13.6667 8.46899 13.4466 9.20617 13.2009C9.28072 13.176 9.35633 13.1504 9.43291 13.1245C10.0743 12.9071 10.7837 12.6667 11.5003 12.6667H14.8336C15.2018 12.6667 15.5003 12.9651 15.5003 13.3333C15.5003 13.7015 15.2015 14 14.8333 14H11.5003C11.0167 14 10.5254 14.1648 9.83654 14.3959L9.83581 14.3962C9.76843 14.4188 9.69915 14.442 9.62781 14.4658C8.865 14.7201 7.94655 15 6.83366 15C5.63875 15 4.42183 14.4145 3.47574 13.8124C2.51107 13.1986 1.7236 12.4994 1.36225 12.1381C0.977722 11.7535 0.666992 11.2593 0.666992 10.75C0.666992 10.47 0.765804 10.1683 1.01966 9.9462C1.26185 9.73427 1.5632 9.66667 1.83366 9.66667C2.06915 9.66667 2.57267 9.74244 3.10992 9.83199C3.679 9.92683 4.37161 10.0528 5.03985 10.1781C5.29261 10.2255 5.54233 10.2729 5.78113 10.3185C5.69432 10.0044 5.70289 9.6188 5.96699 9.26667C6.08814 9.10513 6.25428 8.96549 6.4104 8.85127C6.5751 8.73079 6.76889 8.60985 6.97762 8.49218C7.39557 8.25655 7.90626 8.01561 8.43589 7.79943C8.96618 7.58299 9.52794 7.38628 10.05 7.24264C10.5607 7.10213 11.077 7 11.5003 7C12.3265 7 13.1097 7.30657 13.7478 7.67117C14.3913 8.03891 14.9376 8.49449 15.3051 8.86193C15.5654 9.12228 15.5654 9.54439 15.3051 9.80474C15.0447 10.0651 14.6226 10.0651 14.3623 9.80474Z" fill="#8C8C8C"/>
</svg>
