<svg width="20" height="20" viewBox="0 0 20 20" fill="none" xmlns="http://www.w3.org/2000/svg">
<path fill-rule="evenodd" clip-rule="evenodd" d="M1 17.5C1 16.9477 1.44772 16.5 2 16.5H18C18.5523 16.5 19 16.9477 19 17.5C19 18.0523 18.5523 18.5 18 18.5H2C1.44772 18.5 1 18.0523 1 17.5Z" fill="#F3F3F3"/>
<path fill-rule="evenodd" clip-rule="evenodd" d="M13.133 2.71422C12.9784 2.34022 12.6888 1.94584 12.1984 1.76173C11.7086 1.57784 11.2314 1.68371 10.8693 1.86228C10.5115 2.03875 10.1904 2.31848 9.90775 2.63929L3.5994 9.80594L3.59482 9.81121C3.13494 10.3411 2.69549 11.1696 3.07673 12.0107C3.45898 12.8541 4.37371 13.0667 5.07504 13.0667H6.65004V16.5H8.65004V12.0667C8.65004 11.5144 8.20233 11.0667 7.65004 11.0667H5.15412L11.3417 4.03719V9.93335C11.3417 10.4856 11.7894 10.9333 12.3417 10.9333H14.8376L9.93768 16.5H12.6021L16.3903 12.1964L16.3913 12.1952C16.8578 11.668 17.3036 10.8391 16.9218 9.99364C16.5402 9.14851 15.623 8.93335 14.9167 8.93335H13.3417V3.93335C13.3417 3.50554 13.2855 3.08338 13.133 2.71422Z" fill="#F3F3F3"/>
</svg>
