<svg width="60" height="17" viewBox="0 0 60 17" fill="none" xmlns="http://www.w3.org/2000/svg">
<g clip-path="url(#clip0_2340_85847)">
<path fill-rule="evenodd" clip-rule="evenodd" d="M7.53112 0.5C5.51382 0.5 3.81222 2.00215 3.56201 4.00386L3.37414 5.50679L3.38208 5.41152L0 7.9999L2.66776 11.1578L2.56201 12.0039C2.26358 14.3913 4.12513 16.5 6.53112 16.5H54.4689C56.4862 16.5 58.1878 14.9979 58.438 12.9961L59.438 4.99614C59.7364 2.60873 57.8749 0.5 55.4689 0.5H7.53112Z" fill="url(#paint0_linear_2340_85847)"/>
<path d="M12.3789 2.60352L12.0977 4.35547H11.2129L11.4941 2.60352H12.3789ZM10.7734 12.1719L10.5273 13.7422H9.64844L9.90039 12.1719H10.7734ZM11.9277 10.2383C11.959 9.98438 11.9258 9.76953 11.8281 9.59375C11.7344 9.41797 11.5977 9.26953 11.418 9.14844C11.2422 9.02344 11.0508 8.91797 10.8438 8.83203C10.4492 8.66406 10.0879 8.4707 9.75977 8.25195C9.43555 8.0332 9.18164 7.76367 8.99805 7.44336C8.81836 7.12305 8.74414 6.72266 8.77539 6.24219C8.80664 5.73828 8.95508 5.30664 9.2207 4.94727C9.48633 4.58398 9.82617 4.30664 10.2402 4.11523C10.6582 3.92383 11.1113 3.83398 11.5996 3.8457C12.0059 3.85352 12.3555 3.92969 12.6484 4.07422C12.9414 4.21875 13.1797 4.41602 13.3633 4.66602C13.5508 4.91602 13.6836 5.20703 13.7617 5.53906C13.8438 5.87109 13.875 6.22461 13.8555 6.59961H12.4844C12.4922 6.42383 12.4863 6.24414 12.4668 6.06055C12.4473 5.87305 12.4043 5.70117 12.3379 5.54492C12.2715 5.38477 12.1699 5.25586 12.0332 5.1582C11.9004 5.05664 11.7246 5.00391 11.5059 5C11.252 4.99219 11.0273 5.04102 10.832 5.14648C10.6406 5.24805 10.4844 5.39258 10.3633 5.58008C10.2461 5.76758 10.1738 5.98438 10.1465 6.23047C10.1152 6.49219 10.1465 6.70898 10.2402 6.88086C10.3379 7.05273 10.4766 7.19922 10.6562 7.32031C10.8398 7.4375 11.0371 7.54297 11.248 7.63672C11.6387 7.80469 11.9941 8 12.3145 8.22266C12.6387 8.44531 12.8906 8.7168 13.0703 9.03711C13.2539 9.35742 13.3301 9.75391 13.2988 10.2266C13.2598 10.7578 13.0996 11.2031 12.8184 11.5625C12.5371 11.9219 12.1777 12.1914 11.7402 12.3711C11.3066 12.5508 10.8379 12.6367 10.334 12.6289C9.92383 12.6211 9.56055 12.5508 9.24414 12.418C8.93164 12.2852 8.66992 12.0977 8.45898 11.8555C8.24805 11.6133 8.0918 11.3281 7.99023 11C7.88867 10.668 7.84766 10.3027 7.86719 9.9043H9.25C9.23828 10.1074 9.24805 10.3027 9.2793 10.4902C9.31445 10.6777 9.375 10.8457 9.46094 10.9941C9.55078 11.1387 9.67383 11.2539 9.83008 11.3398C9.98633 11.4219 10.1777 11.4648 10.4043 11.4688C10.666 11.4727 10.9062 11.4277 11.125 11.334C11.3438 11.2363 11.5234 11.0957 11.6641 10.9121C11.8086 10.7246 11.8965 10.5 11.9277 10.2383ZM19.2871 3.93945L17.8398 12.5H16.4629L17.6582 5.64453L15.4902 6.35352L15.707 5.12891L19.0879 3.93945H19.2871ZM26.9629 7.51953L26.7461 8.9082C26.6758 9.37305 26.5684 9.82812 26.4238 10.2734C26.2793 10.7188 26.0801 11.1211 25.8262 11.4805C25.5762 11.8359 25.2598 12.1191 24.877 12.3301C24.4941 12.5371 24.0312 12.6328 23.4883 12.6172C23.0742 12.6094 22.7266 12.5312 22.4453 12.3828C22.168 12.2344 21.9434 12.0352 21.7715 11.7852C21.5996 11.5352 21.4746 11.2539 21.3965 10.9414C21.3184 10.625 21.2754 10.293 21.2676 9.94531C21.2598 9.59766 21.2773 9.25391 21.3203 8.91406L21.5254 7.51953C21.5957 7.05469 21.7051 6.60156 21.8535 6.16016C22.002 5.71875 22.2012 5.32227 22.4512 4.9707C22.7051 4.61523 23.0234 4.33594 23.4062 4.13281C23.7891 3.92969 24.248 3.83594 24.7832 3.85156C25.1973 3.85937 25.5449 3.93555 25.8262 4.08008C26.1113 4.22461 26.3379 4.41992 26.5059 4.66602C26.6777 4.9082 26.8027 5.18555 26.8809 5.49805C26.9629 5.81055 27.0078 6.14062 27.0156 6.48828C27.0234 6.83203 27.0059 7.17578 26.9629 7.51953ZM25.3457 9.11328L25.6152 7.29688C25.6348 7.13281 25.6523 6.94922 25.668 6.74609C25.6875 6.54297 25.6895 6.33984 25.6738 6.13672C25.6621 5.93359 25.623 5.74609 25.5566 5.57422C25.4941 5.39844 25.3945 5.25586 25.2578 5.14648C25.1211 5.0332 24.9375 4.97266 24.707 4.96484C24.3867 4.94922 24.1211 5.01562 23.9102 5.16406C23.6992 5.30859 23.5273 5.50195 23.3945 5.74414C23.2656 5.98242 23.166 6.24023 23.0957 6.51758C23.0293 6.79492 22.9766 7.05859 22.9375 7.30859L22.6738 9.11914C22.6543 9.2793 22.6348 9.46289 22.6152 9.66992C22.5996 9.87305 22.5977 10.0801 22.6094 10.291C22.6211 10.502 22.6582 10.6973 22.7207 10.877C22.7832 11.0527 22.8828 11.1992 23.0195 11.3164C23.1562 11.4297 23.3418 11.4922 23.5762 11.5039C23.8965 11.5156 24.1621 11.4473 24.373 11.2988C24.5879 11.1504 24.7578 10.9531 24.8828 10.707C25.0117 10.4609 25.1113 10.1973 25.1816 9.91602C25.252 9.63086 25.3066 9.36328 25.3457 9.11328ZM33.584 7.51953L33.3672 8.9082C33.2969 9.37305 33.1895 9.82812 33.0449 10.2734C32.9004 10.7188 32.7012 11.1211 32.4473 11.4805C32.1973 11.8359 31.8809 12.1191 31.498 12.3301C31.1152 12.5371 30.6523 12.6328 30.1094 12.6172C29.6953 12.6094 29.3477 12.5312 29.0664 12.3828C28.7891 12.2344 28.5645 12.0352 28.3926 11.7852C28.2207 11.5352 28.0957 11.2539 28.0176 10.9414C27.9395 10.625 27.8965 10.293 27.8887 9.94531C27.8809 9.59766 27.8984 9.25391 27.9414 8.91406L28.1465 7.51953C28.2168 7.05469 28.3262 6.60156 28.4746 6.16016C28.623 5.71875 28.8223 5.32227 29.0723 4.9707C29.3262 4.61523 29.6445 4.33594 30.0273 4.13281C30.4102 3.92969 30.8691 3.83594 31.4043 3.85156C31.8184 3.85937 32.166 3.93555 32.4473 4.08008C32.7324 4.22461 32.959 4.41992 33.127 4.66602C33.2988 4.9082 33.4238 5.18555 33.502 5.49805C33.584 5.81055 33.6289 6.14062 33.6367 6.48828C33.6445 6.83203 33.627 7.17578 33.584 7.51953ZM31.9668 9.11328L32.2363 7.29688C32.2559 7.13281 32.2734 6.94922 32.2891 6.74609C32.3086 6.54297 32.3105 6.33984 32.2949 6.13672C32.2832 5.93359 32.2441 5.74609 32.1777 5.57422C32.1152 5.39844 32.0156 5.25586 31.8789 5.14648C31.7422 5.0332 31.5586 4.97266 31.3281 4.96484C31.0078 4.94922 30.7422 5.01562 30.5312 5.16406C30.3203 5.30859 30.1484 5.50195 30.0156 5.74414C29.8867 5.98242 29.7871 6.24023 29.7168 6.51758C29.6504 6.79492 29.5977 7.05859 29.5586 7.30859L29.2949 9.11914C29.2754 9.2793 29.2559 9.46289 29.2363 9.66992C29.2207 9.87305 29.2188 10.0801 29.2305 10.291C29.2422 10.502 29.2793 10.6973 29.3418 10.877C29.4043 11.0527 29.5039 11.1992 29.6406 11.3164C29.7773 11.4297 29.9629 11.4922 30.1973 11.5039C30.5176 11.5156 30.7832 11.4473 30.9941 11.2988C31.209 11.1504 31.3789 10.9531 31.5039 10.707C31.6328 10.4609 31.7324 10.1973 31.8027 9.91602C31.873 9.63086 31.9277 9.36328 31.9668 9.11328ZM40.2051 7.51953L39.9883 8.9082C39.918 9.37305 39.8105 9.82812 39.666 10.2734C39.5215 10.7188 39.3223 11.1211 39.0684 11.4805C38.8184 11.8359 38.502 12.1191 38.1191 12.3301C37.7363 12.5371 37.2734 12.6328 36.7305 12.6172C36.3164 12.6094 35.9688 12.5312 35.6875 12.3828C35.4102 12.2344 35.1855 12.0352 35.0137 11.7852C34.8418 11.5352 34.7168 11.2539 34.6387 10.9414C34.5605 10.625 34.5176 10.293 34.5098 9.94531C34.502 9.59766 34.5195 9.25391 34.5625 8.91406L34.7676 7.51953C34.8379 7.05469 34.9473 6.60156 35.0957 6.16016C35.2441 5.71875 35.4434 5.32227 35.6934 4.9707C35.9473 4.61523 36.2656 4.33594 36.6484 4.13281C37.0312 3.92969 37.4902 3.83594 38.0254 3.85156C38.4395 3.85937 38.7871 3.93555 39.0684 4.08008C39.3535 4.22461 39.5801 4.41992 39.748 4.66602C39.9199 4.9082 40.0449 5.18555 40.123 5.49805C40.2051 5.81055 40.25 6.14062 40.2578 6.48828C40.2656 6.83203 40.248 7.17578 40.2051 7.51953ZM38.5879 9.11328L38.8574 7.29688C38.877 7.13281 38.8945 6.94922 38.9102 6.74609C38.9297 6.54297 38.9316 6.33984 38.916 6.13672C38.9043 5.93359 38.8652 5.74609 38.7988 5.57422C38.7363 5.39844 38.6367 5.25586 38.5 5.14648C38.3633 5.0332 38.1797 4.97266 37.9492 4.96484C37.6289 4.94922 37.3633 5.01562 37.1523 5.16406C36.9414 5.30859 36.7695 5.50195 36.6367 5.74414C36.5078 5.98242 36.4082 6.24023 36.3379 6.51758C36.2715 6.79492 36.2188 7.05859 36.1797 7.30859L35.916 9.11914C35.8965 9.2793 35.877 9.46289 35.8574 9.66992C35.8418 9.87305 35.8398 10.0801 35.8516 10.291C35.8633 10.502 35.9004 10.6973 35.9629 10.877C36.0254 11.0527 36.125 11.1992 36.2617 11.3164C36.3984 11.4297 36.584 11.4922 36.8184 11.5039C37.1387 11.5156 37.4043 11.4473 37.6152 11.2988C37.8301 11.1504 38 10.9531 38.125 10.707C38.2539 10.4609 38.3535 10.1973 38.4238 9.91602C38.4941 9.63086 38.5488 9.36328 38.5879 9.11328ZM46.8262 7.51953L46.6094 8.9082C46.5391 9.37305 46.4316 9.82812 46.2871 10.2734C46.1426 10.7188 45.9434 11.1211 45.6895 11.4805C45.4395 11.8359 45.123 12.1191 44.7402 12.3301C44.3574 12.5371 43.8945 12.6328 43.3516 12.6172C42.9375 12.6094 42.5898 12.5312 42.3086 12.3828C42.0312 12.2344 41.8066 12.0352 41.6348 11.7852C41.4629 11.5352 41.3379 11.2539 41.2598 10.9414C41.1816 10.625 41.1387 10.293 41.1309 9.94531C41.123 9.59766 41.1406 9.25391 41.1836 8.91406L41.3887 7.51953C41.459 7.05469 41.5684 6.60156 41.7168 6.16016C41.8652 5.71875 42.0645 5.32227 42.3145 4.9707C42.5684 4.61523 42.8867 4.33594 43.2695 4.13281C43.6523 3.92969 44.1113 3.83594 44.6465 3.85156C45.0605 3.85937 45.4082 3.93555 45.6895 4.08008C45.9746 4.22461 46.2012 4.41992 46.3691 4.66602C46.541 4.9082 46.666 5.18555 46.7441 5.49805C46.8262 5.81055 46.8711 6.14062 46.8789 6.48828C46.8867 6.83203 46.8691 7.17578 46.8262 7.51953ZM45.209 9.11328L45.4785 7.29688C45.498 7.13281 45.5156 6.94922 45.5312 6.74609C45.5508 6.54297 45.5527 6.33984 45.5371 6.13672C45.5254 5.93359 45.4863 5.74609 45.4199 5.57422C45.3574 5.39844 45.2578 5.25586 45.1211 5.14648C44.9844 5.0332 44.8008 4.97266 44.5703 4.96484C44.25 4.94922 43.9844 5.01562 43.7734 5.16406C43.5625 5.30859 43.3906 5.50195 43.2578 5.74414C43.1289 5.98242 43.0293 6.24023 42.959 6.51758C42.8926 6.79492 42.8398 7.05859 42.8008 7.30859L42.5371 9.11914C42.5176 9.2793 42.498 9.46289 42.4785 9.66992C42.4629 9.87305 42.4609 10.0801 42.4727 10.291C42.4844 10.502 42.5215 10.6973 42.584 10.877C42.6465 11.0527 42.7461 11.1992 42.8828 11.3164C43.0195 11.4297 43.2051 11.4922 43.4395 11.5039C43.7598 11.5156 44.0254 11.4473 44.2363 11.2988C44.4512 11.1504 44.6211 10.9531 44.7461 10.707C44.875 10.4609 44.9746 10.1973 45.0449 9.91602C45.1152 9.63086 45.1699 9.36328 45.209 9.11328ZM50.3301 3.96875L48.8477 12.5H47.4062L48.8887 3.96875H50.3301ZM55.3516 3.96875L51.2676 8.09961L48.9648 10.2031L48.9707 8.63281L50.6113 6.92773L53.5059 3.96875H55.3516ZM52.3281 12.5L50.2656 8.39844L51.373 7.44922L53.9395 12.5H52.3281Z" fill="#1D1D1D"/>
</g>
<defs>
<linearGradient id="paint0_linear_2340_85847" x1="-0.552449" y1="0.500001" x2="49.2794" y2="25.6277" gradientUnits="userSpaceOnUse">
<stop stop-color="#67CBB0"/>
<stop offset="1" stop-color="#20AE87"/>
</linearGradient>
<clipPath id="clip0_2340_85847">
<rect width="60" height="16" fill="white" transform="translate(0 0.5)"/>
</clipPath>
</defs>
</svg>
