<svg width="60" height="17" viewBox="0 0 60 17" fill="none" xmlns="http://www.w3.org/2000/svg">
<g clip-path="url(#clip0_2966_103186)">
<path fill-rule="evenodd" clip-rule="evenodd" d="M51.9384 0.5C53.9557 0.5 55.6573 2.00215 55.9075 4.00386L56.0953 5.50679L56.0874 5.41152L59.4695 7.9999L56.8017 11.1578L56.9075 12.0039C57.2059 14.3913 55.3444 16.5 52.9384 16.5H5.00062C2.98333 16.5 1.28173 14.9979 1.03151 12.9961L0.0315094 4.99614C-0.266914 2.60873 1.59463 0.5 4.00062 0.5H51.9384Z" fill="url(#paint0_linear_2966_103186)"/>
<path d="M7.47617 2.59483L7.63526 4.33954H6.73291L6.57383 2.59483H7.47617ZM8.23371 12.1237L8.3763 13.6875H7.47982L7.33722 12.1237H8.23371ZM8.94662 10.2389C8.92604 10.0133 8.86126 9.81682 8.75225 9.64954C8.6468 9.47838 8.48435 9.32472 8.26491 9.18856C8.04511 9.04852 7.75588 8.9182 7.39723 8.79761C6.88126 8.62255 6.42585 8.4261 6.03099 8.20826C5.63968 7.98652 5.32578 7.71421 5.08931 7.39133C4.85639 7.06456 4.71776 6.65805 4.67342 6.17178C4.62979 5.6933 4.70139 5.279 4.88822 4.92889C5.07895 4.57878 5.36289 4.30842 5.74004 4.1178C6.11719 3.92719 6.56944 3.83188 7.09678 3.83188C7.50303 3.83188 7.87376 3.89218 8.20898 4.01277C8.5481 4.13336 8.84353 4.31036 9.09529 4.54377C9.34704 4.77718 9.54907 5.06505 9.70138 5.40738C9.85724 5.74582 9.95521 6.13483 9.99529 6.57441H8.58904C8.56634 6.32544 8.51682 6.10371 8.44049 5.9092C8.36772 5.7108 8.27043 5.54353 8.14864 5.40738C8.0265 5.26733 7.88393 5.16035 7.72094 5.08644C7.56186 5.01253 7.38466 4.97557 7.18935 4.97557C6.912 4.97557 6.68828 5.02809 6.51817 5.13312C6.3477 5.23427 6.22766 5.37431 6.15804 5.55325C6.09232 5.7322 6.06993 5.93643 6.09086 6.16595C6.11108 6.38768 6.17178 6.58219 6.27297 6.74946C6.37416 6.91674 6.53448 7.06845 6.75393 7.20461C6.97692 7.33687 7.27822 7.47108 7.65783 7.60723C8.17805 7.78618 8.63186 7.98652 9.01927 8.20826C9.41023 8.4261 9.72004 8.69647 9.9487 9.01934C10.1809 9.33833 10.3192 9.74096 10.3635 10.2272C10.4093 10.729 10.3309 11.155 10.1285 11.5051C9.92994 11.8552 9.63002 12.1217 9.22872 12.3045C8.83097 12.4835 8.35671 12.573 7.80593 12.573C7.45827 12.573 7.10849 12.5282 6.75658 12.4388C6.40822 12.3454 6.0858 12.1937 5.7893 11.9836C5.4928 11.7735 5.24674 11.4954 5.0511 11.1492C4.85512 10.7991 4.73407 10.3712 4.68795 9.86544H6.10592C6.13359 10.1689 6.19766 10.4217 6.29814 10.624C6.39862 10.8263 6.52449 10.9858 6.67575 11.1025C6.82702 11.2192 6.9909 11.3028 7.16738 11.3534C7.34777 11.404 7.52586 11.4293 7.70164 11.4293C7.99461 11.4293 8.23627 11.3806 8.42662 11.2834C8.62052 11.1822 8.7601 11.0422 8.84534 10.8633C8.93414 10.6804 8.9679 10.4723 8.94662 10.2389ZM14.8807 3.92524L15.658 12.4504H14.2459L13.6207 5.5941L11.5933 6.30016L11.4874 5.13896L14.7108 3.92524H14.8807ZM23.7312 7.49053L23.8578 8.8793C23.9185 9.54451 23.9038 10.1125 23.8139 10.5832C23.7276 11.05 23.5747 11.4293 23.3552 11.721C23.1357 12.0128 22.8603 12.2267 22.529 12.3629C22.2015 12.499 21.8269 12.5671 21.405 12.5671C21.0691 12.5671 20.7527 12.5243 20.4558 12.4388C20.1628 12.3532 19.8928 12.219 19.6456 12.0361C19.3985 11.8533 19.1798 11.6179 18.9895 11.3301C18.8027 11.0383 18.646 10.6901 18.5192 10.2856C18.3964 9.881 18.3107 9.41225 18.2621 8.8793L18.1355 7.49053C18.0745 6.82143 18.0894 6.25737 18.1804 5.79833C18.271 5.33541 18.4262 4.96001 18.6461 4.67214C18.8655 4.38039 19.1392 4.16838 19.467 4.03611C19.7987 3.90385 20.1754 3.83772 20.5973 3.83772C20.9372 3.83772 21.2536 3.88051 21.5465 3.96609C21.843 4.04778 22.1127 4.1781 22.3556 4.35705C22.6024 4.53599 22.819 4.7694 23.0054 5.05727C23.1953 5.34124 23.3517 5.68552 23.4746 6.09009C23.597 6.49077 23.6826 6.95759 23.7312 7.49053ZM22.4638 9.0777L22.2999 7.28046C22.269 6.94202 22.2224 6.64443 22.1599 6.38768C22.0971 6.12705 22.0184 5.90726 21.924 5.72831C21.8331 5.54547 21.7259 5.39765 21.6023 5.28484C21.4784 5.16813 21.3419 5.0845 21.1927 5.03393C21.0432 4.97946 20.8786 4.95223 20.6989 4.95223C20.4802 4.95223 20.2888 4.99502 20.1247 5.08061C19.9603 5.1623 19.8278 5.29456 19.7273 5.4774C19.6268 5.66023 19.5589 5.90142 19.5237 6.20096C19.4921 6.49661 19.4956 6.85644 19.5343 7.28046L19.6982 9.0777C19.7294 9.42003 19.7764 9.72151 19.8392 9.98215C19.902 10.2428 19.981 10.4665 20.0762 10.6532C20.171 10.836 20.2786 10.9877 20.3989 11.1083C20.5229 11.225 20.6596 11.3106 20.8091 11.3651C20.9625 11.4195 21.1271 11.4468 21.3028 11.4468C21.5255 11.4468 21.7189 11.404 21.8829 11.3184C22.047 11.2328 22.1791 11.0967 22.2793 10.9099C22.3791 10.7193 22.4445 10.4723 22.4754 10.1689C22.5063 9.86544 22.5024 9.50172 22.4638 9.0777ZM30.5515 7.49053L30.6781 8.8793C30.7388 9.54451 30.7242 10.1125 30.6343 10.5832C30.5479 11.05 30.395 11.4293 30.1755 11.721C29.956 12.0128 29.6806 12.2267 29.3493 12.3629C29.0218 12.499 28.6472 12.5671 28.2253 12.5671C27.8894 12.5671 27.573 12.5243 27.2761 12.4388C26.9832 12.3532 26.7131 12.219 26.466 12.0361C26.2188 11.8533 26.0001 11.6179 25.8098 11.3301C25.623 11.0383 25.4663 10.6901 25.3395 10.2856C25.2167 9.881 25.131 9.41225 25.0824 8.8793L24.9558 7.49053C24.8948 6.82143 24.9097 6.25737 25.0007 5.79833C25.0913 5.33541 25.2465 4.96001 25.4664 4.67214C25.6859 4.38039 25.9595 4.16838 26.2873 4.03611C26.619 3.90385 26.9957 3.83772 27.4176 3.83772C27.7575 3.83772 28.0739 3.88051 28.3668 3.96609C28.6633 4.04778 28.933 4.1781 29.1759 4.35705C29.4227 4.53599 29.6393 4.7694 29.8257 5.05727C30.0157 5.34124 30.1721 5.68552 30.2949 6.09009C30.4174 6.49077 30.5029 6.95759 30.5515 7.49053ZM29.2841 9.0777L29.1202 7.28046C29.0894 6.94202 29.0427 6.64443 28.9802 6.38768C28.9174 6.12705 28.8388 5.90726 28.7443 5.72831C28.6534 5.54547 28.5462 5.39765 28.4226 5.28484C28.2987 5.16813 28.1622 5.0845 28.013 5.03393C27.8635 4.97946 27.6989 4.95223 27.5192 4.95223C27.3005 4.95223 27.1091 4.99502 26.945 5.08061C26.7806 5.1623 26.6481 5.29456 26.5476 5.4774C26.4471 5.66023 26.3792 5.90142 26.344 6.20096C26.3124 6.49661 26.3159 6.85644 26.3546 7.28046L26.5185 9.0777C26.5497 9.42003 26.5967 9.72151 26.6595 9.98215C26.7224 10.2428 26.8014 10.4665 26.8965 10.6532C26.9913 10.836 27.0989 10.9877 27.2193 11.1083C27.3432 11.225 27.4799 11.3106 27.6294 11.3651C27.7828 11.4195 27.9474 11.4468 28.1232 11.4468C28.3458 11.4468 28.5392 11.404 28.7033 11.3184C28.8673 11.2328 28.9994 11.0967 29.0996 10.9099C29.1994 10.7193 29.2648 10.4723 29.2957 10.1689C29.3266 9.86544 29.3228 9.50172 29.2841 9.0777ZM37.3718 7.49053L37.4984 8.8793C37.5591 9.54451 37.5445 10.1125 37.4546 10.5832C37.3682 11.05 37.2153 11.4293 36.9958 11.721C36.7763 12.0128 36.5009 12.2267 36.1696 12.3629C35.8422 12.499 35.4675 12.5671 35.0456 12.5671C34.7097 12.5671 34.3933 12.5243 34.0964 12.4388C33.8035 12.3532 33.5334 12.219 33.2863 12.0361C33.0391 11.8533 32.8204 11.6179 32.6301 11.3301C32.4433 11.0383 32.2866 10.6901 32.1599 10.2856C32.037 9.881 31.9513 9.41225 31.9027 8.8793L31.7761 7.49053C31.7151 6.82143 31.7301 6.25737 31.821 5.79833C31.9116 5.33541 32.0668 4.96001 32.2867 4.67214C32.5062 4.38039 32.7798 4.16838 33.1076 4.03611C33.4393 3.90385 33.8161 3.83772 34.2379 3.83772C34.5778 3.83772 34.8942 3.88051 35.1871 3.96609C35.4837 4.04778 35.7533 4.1781 35.9962 4.35705C36.243 4.53599 36.4596 4.7694 36.646 5.05727C36.836 5.34124 36.9924 5.68552 37.1152 6.09009C37.2377 6.49077 37.3232 6.95759 37.3718 7.49053ZM36.1044 9.0777L35.9405 7.28046C35.9097 6.94202 35.863 6.64443 35.8005 6.38768C35.7377 6.12705 35.6591 5.90726 35.5646 5.72831C35.4737 5.54547 35.3665 5.39765 35.2429 5.28484C35.119 5.16813 34.9825 5.0845 34.8333 5.03393C34.6838 4.97946 34.5192 4.95223 34.3396 4.95223C34.1208 4.95223 33.9294 4.99502 33.7653 5.08061C33.6009 5.1623 33.4684 5.29456 33.3679 5.4774C33.2674 5.66023 33.1995 5.90142 33.1644 6.20096C33.1327 6.49661 33.1362 6.85644 33.1749 7.28046L33.3388 9.0777C33.37 9.42003 33.417 9.72151 33.4798 9.98215C33.5427 10.2428 33.6217 10.4665 33.7168 10.6532C33.8116 10.836 33.9192 10.9877 34.0396 11.1083C34.1635 11.225 34.3002 11.3106 34.4497 11.3651C34.6031 11.4195 34.7677 11.4468 34.9435 11.4468C35.1661 11.4468 35.3595 11.404 35.5236 11.3184C35.6876 11.2328 35.8198 11.0967 35.9199 10.9099C36.0197 10.7193 36.0851 10.4723 36.116 10.1689C36.1469 9.86544 36.1431 9.50172 36.1044 9.0777ZM44.1921 7.49053L44.3187 8.8793C44.3794 9.54451 44.3648 10.1125 44.2749 10.5832C44.1885 11.05 44.0356 11.4293 43.8161 11.721C43.5966 12.0128 43.3212 12.2267 42.9899 12.3629C42.6625 12.499 42.2878 12.5671 41.8659 12.5671C41.53 12.5671 41.2136 12.5243 40.9167 12.4388C40.6238 12.3532 40.3537 12.219 40.1066 12.0361C39.8594 11.8533 39.6407 11.6179 39.4504 11.3301C39.2637 11.0383 39.1069 10.6901 38.9802 10.2856C38.8573 9.881 38.7716 9.41225 38.723 8.8793L38.5964 7.49053C38.5354 6.82143 38.5504 6.25737 38.6413 5.79833C38.7319 5.33541 38.8871 4.96001 39.107 4.67214C39.3265 4.38039 39.6001 4.16838 39.9279 4.03611C40.2596 3.90385 40.6364 3.83772 41.0582 3.83772C41.3981 3.83772 41.7145 3.88051 42.0075 3.96609C42.304 4.04778 42.5737 4.1781 42.8165 4.35705C43.0633 4.53599 43.2799 4.7694 43.4663 5.05727C43.6563 5.34124 43.8127 5.68552 43.9355 6.09009C44.058 6.49077 44.1435 6.95759 44.1921 7.49053ZM42.9247 9.0777L42.7608 7.28046C42.73 6.94202 42.6833 6.64443 42.6208 6.38768C42.558 6.12705 42.4794 5.90726 42.3849 5.72831C42.294 5.54547 42.1868 5.39765 42.0632 5.28484C41.9393 5.16813 41.8028 5.0845 41.6537 5.03393C41.5042 4.97946 41.3396 4.95223 41.1599 4.95223C40.9411 4.95223 40.7497 4.99502 40.5856 5.08061C40.4212 5.1623 40.2887 5.29456 40.1882 5.4774C40.0877 5.66023 40.0199 5.90142 39.9847 6.20096C39.953 6.49661 39.9566 6.85644 39.9952 7.28046L40.1591 9.0777C40.1903 9.42003 40.2373 9.72151 40.3002 9.98215C40.363 10.2428 40.442 10.4665 40.5371 10.6532C40.6319 10.836 40.7395 10.9877 40.8599 11.1083C40.9838 11.225 41.1205 11.3106 41.27 11.3651C41.4234 11.4195 41.588 11.4468 41.7638 11.4468C41.9864 11.4468 42.1798 11.404 42.3439 11.3184C42.5079 11.2328 42.6401 11.0967 42.7402 10.9099C42.84 10.7193 42.9054 10.4723 42.9363 10.1689C42.9673 9.86544 42.9634 9.50172 42.9247 9.0777ZM46.8228 3.95442L47.5975 12.4504H46.1268L45.3521 3.95442H46.8228ZM51.9498 3.95442L48.8657 8.04487L47.0864 10.1222L46.6961 8.66923L47.9448 6.94202L50.1568 3.95442H51.9498ZM51.1424 12.4504L47.9686 8.42416L48.8913 7.42634L52.8885 12.4504H51.1424Z" fill="white"/>
</g>
<defs>
<linearGradient id="paint0_linear_2966_103186" x1="60.0219" y1="0.500001" x2="10.19" y2="25.6277" gradientUnits="userSpaceOnUse">
<stop stop-color="#67CBB0"/>
<stop offset="1" stop-color="#20AE87"/>
</linearGradient>
<clipPath id="clip0_2966_103186">
<rect width="60" height="16" fill="white" transform="translate(0 0.5)"/>
</clipPath>
</defs>
</svg>
