<svg width="60" height="16" viewBox="0 0 60 16" fill="none" xmlns="http://www.w3.org/2000/svg">
<g clip-path="url(#clip0_2966_103171)">
<path fill-rule="evenodd" clip-rule="evenodd" d="M7.53112 0C5.51382 0 3.81222 1.50215 3.56201 3.50386L3.37414 5.00679L3.38208 4.91152L0 7.4999L2.66776 10.6578L2.56201 11.5039C2.26358 13.8913 4.12513 16 6.53112 16H54.4689C56.4862 16 58.1878 14.4979 58.438 12.4961L59.438 4.49614C59.7364 2.10873 57.8749 0 55.4689 0H7.53112Z" fill="url(#paint0_linear_2966_103171)"/>
<path d="M12.3789 2.10352L12.0977 3.85547H11.2129L11.4941 2.10352H12.3789ZM10.7734 11.6719L10.5273 13.2422H9.64844L9.90039 11.6719H10.7734ZM11.9277 9.73828C11.959 9.48438 11.9258 9.26953 11.8281 9.09375C11.7344 8.91797 11.5977 8.76953 11.418 8.64844C11.2422 8.52344 11.0508 8.41797 10.8438 8.33203C10.4492 8.16406 10.0879 7.9707 9.75977 7.75195C9.43555 7.5332 9.18164 7.26367 8.99805 6.94336C8.81836 6.62305 8.74414 6.22266 8.77539 5.74219C8.80664 5.23828 8.95508 4.80664 9.2207 4.44727C9.48633 4.08398 9.82617 3.80664 10.2402 3.61523C10.6582 3.42383 11.1113 3.33398 11.5996 3.3457C12.0059 3.35352 12.3555 3.42969 12.6484 3.57422C12.9414 3.71875 13.1797 3.91602 13.3633 4.16602C13.5508 4.41602 13.6836 4.70703 13.7617 5.03906C13.8438 5.37109 13.875 5.72461 13.8555 6.09961H12.4844C12.4922 5.92383 12.4863 5.74414 12.4668 5.56055C12.4473 5.37305 12.4043 5.20117 12.3379 5.04492C12.2715 4.88477 12.1699 4.75586 12.0332 4.6582C11.9004 4.55664 11.7246 4.50391 11.5059 4.5C11.252 4.49219 11.0273 4.54102 10.832 4.64648C10.6406 4.74805 10.4844 4.89258 10.3633 5.08008C10.2461 5.26758 10.1738 5.48438 10.1465 5.73047C10.1152 5.99219 10.1465 6.20898 10.2402 6.38086C10.3379 6.55273 10.4766 6.69922 10.6562 6.82031C10.8398 6.9375 11.0371 7.04297 11.248 7.13672C11.6387 7.30469 11.9941 7.5 12.3145 7.72266C12.6387 7.94531 12.8906 8.2168 13.0703 8.53711C13.2539 8.85742 13.3301 9.25391 13.2988 9.72656C13.2598 10.2578 13.0996 10.7031 12.8184 11.0625C12.5371 11.4219 12.1777 11.6914 11.7402 11.8711C11.3066 12.0508 10.8379 12.1367 10.334 12.1289C9.92383 12.1211 9.56055 12.0508 9.24414 11.918C8.93164 11.7852 8.66992 11.5977 8.45898 11.3555C8.24805 11.1133 8.0918 10.8281 7.99023 10.5C7.88867 10.168 7.84766 9.80273 7.86719 9.4043H9.25C9.23828 9.60742 9.24805 9.80273 9.2793 9.99023C9.31445 10.1777 9.375 10.3457 9.46094 10.4941C9.55078 10.6387 9.67383 10.7539 9.83008 10.8398C9.98633 10.9219 10.1777 10.9648 10.4043 10.9688C10.666 10.9727 10.9062 10.9277 11.125 10.834C11.3438 10.7363 11.5234 10.5957 11.6641 10.4121C11.8086 10.2246 11.8965 10 11.9277 9.73828ZM19.2871 3.43945L17.8398 12H16.4629L17.6582 5.14453L15.4902 5.85352L15.707 4.62891L19.0879 3.43945H19.2871ZM26.9629 7.01953L26.7461 8.4082C26.6758 8.87305 26.5684 9.32812 26.4238 9.77344C26.2793 10.2188 26.0801 10.6211 25.8262 10.9805C25.5762 11.3359 25.2598 11.6191 24.877 11.8301C24.4941 12.0371 24.0312 12.1328 23.4883 12.1172C23.0742 12.1094 22.7266 12.0312 22.4453 11.8828C22.168 11.7344 21.9434 11.5352 21.7715 11.2852C21.5996 11.0352 21.4746 10.7539 21.3965 10.4414C21.3184 10.125 21.2754 9.79297 21.2676 9.44531C21.2598 9.09766 21.2773 8.75391 21.3203 8.41406L21.5254 7.01953C21.5957 6.55469 21.7051 6.10156 21.8535 5.66016C22.002 5.21875 22.2012 4.82227 22.4512 4.4707C22.7051 4.11523 23.0234 3.83594 23.4062 3.63281C23.7891 3.42969 24.248 3.33594 24.7832 3.35156C25.1973 3.35937 25.5449 3.43555 25.8262 3.58008C26.1113 3.72461 26.3379 3.91992 26.5059 4.16602C26.6777 4.4082 26.8027 4.68555 26.8809 4.99805C26.9629 5.31055 27.0078 5.64062 27.0156 5.98828C27.0234 6.33203 27.0059 6.67578 26.9629 7.01953ZM25.3457 8.61328L25.6152 6.79688C25.6348 6.63281 25.6523 6.44922 25.668 6.24609C25.6875 6.04297 25.6895 5.83984 25.6738 5.63672C25.6621 5.43359 25.623 5.24609 25.5566 5.07422C25.4941 4.89844 25.3945 4.75586 25.2578 4.64648C25.1211 4.5332 24.9375 4.47266 24.707 4.46484C24.3867 4.44922 24.1211 4.51562 23.9102 4.66406C23.6992 4.80859 23.5273 5.00195 23.3945 5.24414C23.2656 5.48242 23.166 5.74023 23.0957 6.01758C23.0293 6.29492 22.9766 6.55859 22.9375 6.80859L22.6738 8.61914C22.6543 8.7793 22.6348 8.96289 22.6152 9.16992C22.5996 9.37305 22.5977 9.58008 22.6094 9.79102C22.6211 10.002 22.6582 10.1973 22.7207 10.377C22.7832 10.5527 22.8828 10.6992 23.0195 10.8164C23.1562 10.9297 23.3418 10.9922 23.5762 11.0039C23.8965 11.0156 24.1621 10.9473 24.373 10.7988C24.5879 10.6504 24.7578 10.4531 24.8828 10.207C25.0117 9.96094 25.1113 9.69727 25.1816 9.41602C25.252 9.13086 25.3066 8.86328 25.3457 8.61328ZM33.584 7.01953L33.3672 8.4082C33.2969 8.87305 33.1895 9.32812 33.0449 9.77344C32.9004 10.2188 32.7012 10.6211 32.4473 10.9805C32.1973 11.3359 31.8809 11.6191 31.498 11.8301C31.1152 12.0371 30.6523 12.1328 30.1094 12.1172C29.6953 12.1094 29.3477 12.0312 29.0664 11.8828C28.7891 11.7344 28.5645 11.5352 28.3926 11.2852C28.2207 11.0352 28.0957 10.7539 28.0176 10.4414C27.9395 10.125 27.8965 9.79297 27.8887 9.44531C27.8809 9.09766 27.8984 8.75391 27.9414 8.41406L28.1465 7.01953C28.2168 6.55469 28.3262 6.10156 28.4746 5.66016C28.623 5.21875 28.8223 4.82227 29.0723 4.4707C29.3262 4.11523 29.6445 3.83594 30.0273 3.63281C30.4102 3.42969 30.8691 3.33594 31.4043 3.35156C31.8184 3.35937 32.166 3.43555 32.4473 3.58008C32.7324 3.72461 32.959 3.91992 33.127 4.16602C33.2988 4.4082 33.4238 4.68555 33.502 4.99805C33.584 5.31055 33.6289 5.64062 33.6367 5.98828C33.6445 6.33203 33.627 6.67578 33.584 7.01953ZM31.9668 8.61328L32.2363 6.79688C32.2559 6.63281 32.2734 6.44922 32.2891 6.24609C32.3086 6.04297 32.3105 5.83984 32.2949 5.63672C32.2832 5.43359 32.2441 5.24609 32.1777 5.07422C32.1152 4.89844 32.0156 4.75586 31.8789 4.64648C31.7422 4.5332 31.5586 4.47266 31.3281 4.46484C31.0078 4.44922 30.7422 4.51562 30.5312 4.66406C30.3203 4.80859 30.1484 5.00195 30.0156 5.24414C29.8867 5.48242 29.7871 5.74023 29.7168 6.01758C29.6504 6.29492 29.5977 6.55859 29.5586 6.80859L29.2949 8.61914C29.2754 8.7793 29.2559 8.96289 29.2363 9.16992C29.2207 9.37305 29.2188 9.58008 29.2305 9.79102C29.2422 10.002 29.2793 10.1973 29.3418 10.377C29.4043 10.5527 29.5039 10.6992 29.6406 10.8164C29.7773 10.9297 29.9629 10.9922 30.1973 11.0039C30.5176 11.0156 30.7832 10.9473 30.9941 10.7988C31.209 10.6504 31.3789 10.4531 31.5039 10.207C31.6328 9.96094 31.7324 9.69727 31.8027 9.41602C31.873 9.13086 31.9277 8.86328 31.9668 8.61328ZM40.2051 7.01953L39.9883 8.4082C39.918 8.87305 39.8105 9.32812 39.666 9.77344C39.5215 10.2188 39.3223 10.6211 39.0684 10.9805C38.8184 11.3359 38.502 11.6191 38.1191 11.8301C37.7363 12.0371 37.2734 12.1328 36.7305 12.1172C36.3164 12.1094 35.9688 12.0312 35.6875 11.8828C35.4102 11.7344 35.1855 11.5352 35.0137 11.2852C34.8418 11.0352 34.7168 10.7539 34.6387 10.4414C34.5605 10.125 34.5176 9.79297 34.5098 9.44531C34.502 9.09766 34.5195 8.75391 34.5625 8.41406L34.7676 7.01953C34.8379 6.55469 34.9473 6.10156 35.0957 5.66016C35.2441 5.21875 35.4434 4.82227 35.6934 4.4707C35.9473 4.11523 36.2656 3.83594 36.6484 3.63281C37.0312 3.42969 37.4902 3.33594 38.0254 3.35156C38.4395 3.35937 38.7871 3.43555 39.0684 3.58008C39.3535 3.72461 39.5801 3.91992 39.748 4.16602C39.9199 4.4082 40.0449 4.68555 40.123 4.99805C40.2051 5.31055 40.25 5.64062 40.2578 5.98828C40.2656 6.33203 40.248 6.67578 40.2051 7.01953ZM38.5879 8.61328L38.8574 6.79688C38.877 6.63281 38.8945 6.44922 38.9102 6.24609C38.9297 6.04297 38.9316 5.83984 38.916 5.63672C38.9043 5.43359 38.8652 5.24609 38.7988 5.07422C38.7363 4.89844 38.6367 4.75586 38.5 4.64648C38.3633 4.5332 38.1797 4.47266 37.9492 4.46484C37.6289 4.44922 37.3633 4.51562 37.1523 4.66406C36.9414 4.80859 36.7695 5.00195 36.6367 5.24414C36.5078 5.48242 36.4082 5.74023 36.3379 6.01758C36.2715 6.29492 36.2188 6.55859 36.1797 6.80859L35.916 8.61914C35.8965 8.7793 35.877 8.96289 35.8574 9.16992C35.8418 9.37305 35.8398 9.58008 35.8516 9.79102C35.8633 10.002 35.9004 10.1973 35.9629 10.377C36.0254 10.5527 36.125 10.6992 36.2617 10.8164C36.3984 10.9297 36.584 10.9922 36.8184 11.0039C37.1387 11.0156 37.4043 10.9473 37.6152 10.7988C37.8301 10.6504 38 10.4531 38.125 10.207C38.2539 9.96094 38.3535 9.69727 38.4238 9.41602C38.4941 9.13086 38.5488 8.86328 38.5879 8.61328ZM46.8262 7.01953L46.6094 8.4082C46.5391 8.87305 46.4316 9.32812 46.2871 9.77344C46.1426 10.2188 45.9434 10.6211 45.6895 10.9805C45.4395 11.3359 45.123 11.6191 44.7402 11.8301C44.3574 12.0371 43.8945 12.1328 43.3516 12.1172C42.9375 12.1094 42.5898 12.0312 42.3086 11.8828C42.0312 11.7344 41.8066 11.5352 41.6348 11.2852C41.4629 11.0352 41.3379 10.7539 41.2598 10.4414C41.1816 10.125 41.1387 9.79297 41.1309 9.44531C41.123 9.09766 41.1406 8.75391 41.1836 8.41406L41.3887 7.01953C41.459 6.55469 41.5684 6.10156 41.7168 5.66016C41.8652 5.21875 42.0645 4.82227 42.3145 4.4707C42.5684 4.11523 42.8867 3.83594 43.2695 3.63281C43.6523 3.42969 44.1113 3.33594 44.6465 3.35156C45.0605 3.35937 45.4082 3.43555 45.6895 3.58008C45.9746 3.72461 46.2012 3.91992 46.3691 4.16602C46.541 4.4082 46.666 4.68555 46.7441 4.99805C46.8262 5.31055 46.8711 5.64062 46.8789 5.98828C46.8867 6.33203 46.8691 6.67578 46.8262 7.01953ZM45.209 8.61328L45.4785 6.79688C45.498 6.63281 45.5156 6.44922 45.5312 6.24609C45.5508 6.04297 45.5527 5.83984 45.5371 5.63672C45.5254 5.43359 45.4863 5.24609 45.4199 5.07422C45.3574 4.89844 45.2578 4.75586 45.1211 4.64648C44.9844 4.5332 44.8008 4.47266 44.5703 4.46484C44.25 4.44922 43.9844 4.51562 43.7734 4.66406C43.5625 4.80859 43.3906 5.00195 43.2578 5.24414C43.1289 5.48242 43.0293 5.74023 42.959 6.01758C42.8926 6.29492 42.8398 6.55859 42.8008 6.80859L42.5371 8.61914C42.5176 8.7793 42.498 8.96289 42.4785 9.16992C42.4629 9.37305 42.4609 9.58008 42.4727 9.79102C42.4844 10.002 42.5215 10.1973 42.584 10.377C42.6465 10.5527 42.7461 10.6992 42.8828 10.8164C43.0195 10.9297 43.2051 10.9922 43.4395 11.0039C43.7598 11.0156 44.0254 10.9473 44.2363 10.7988C44.4512 10.6504 44.6211 10.4531 44.7461 10.207C44.875 9.96094 44.9746 9.69727 45.0449 9.41602C45.1152 9.13086 45.1699 8.86328 45.209 8.61328ZM50.3301 3.46875L48.8477 12H47.4062L48.8887 3.46875H50.3301ZM55.3516 3.46875L51.2676 7.59961L48.9648 9.70312L48.9707 8.13281L50.6113 6.42773L53.5059 3.46875H55.3516ZM52.3281 12L50.2656 7.89844L51.373 6.94922L53.9395 12H52.3281Z" fill="white"/>
</g>
<defs>
<linearGradient id="paint0_linear_2966_103171" x1="-0.552449" y1="1.24873e-06" x2="49.2794" y2="25.1277" gradientUnits="userSpaceOnUse">
<stop stop-color="#67CBB0"/>
<stop offset="1" stop-color="#20AE87"/>
</linearGradient>
<clipPath id="clip0_2966_103171">
<rect width="60" height="16" fill="white"/>
</clipPath>
</defs>
</svg>
