<svg width="14" height="14" viewBox="0 0 14 14" fill="none" xmlns="http://www.w3.org/2000/svg">
<g clip-path="url(#clip0_5581_75826)">
<path d="M7.99646 3.55C7.76866 3.32219 7.39931 3.32219 7.17151 3.55C6.9437 3.7778 6.9437 4.14715 7.17151 4.37495L8.21736 5.42081H4.37565C4.05349 5.42081 3.79232 5.68198 3.79232 6.00414C3.79232 6.32631 4.05349 6.58748 4.37565 6.58748H8.92151C9.70105 6.58748 10.0914 5.64498 9.54023 5.09376L7.99646 3.55Z" fill="#01BC8D"/>
<path d="M5.0798 7.33193C4.30026 7.33193 3.90986 8.27442 4.46108 8.82564L6.00484 10.3694C6.23265 10.5972 6.60199 10.5972 6.8298 10.3694C7.0576 10.1416 7.0576 9.77225 6.8298 9.54445L5.78394 8.49859H9.62565C9.94782 8.49859 10.209 8.23742 10.209 7.91526C10.209 7.59309 9.94782 7.33193 9.62565 7.33193H5.0798Z" fill="#01BC8D"/>
<path fill-rule="evenodd" clip-rule="evenodd" d="M7.00065 0.583313C3.45682 0.583313 0.583984 3.45615 0.583984 6.99998C0.583984 10.5438 3.45682 13.4166 7.00065 13.4166C10.5445 13.4166 13.4173 10.5438 13.4173 6.99998C13.4173 3.45615 10.5445 0.583313 7.00065 0.583313ZM1.75065 6.99998C1.75065 4.10048 4.10116 1.74998 7.00065 1.74998C9.90015 1.74998 12.2507 4.10048 12.2507 6.99998C12.2507 9.89948 9.90015 12.25 7.00065 12.25C4.10116 12.25 1.75065 9.89948 1.75065 6.99998Z" fill="#01BC8D"/>
</g>
<defs>
<clipPath id="clip0_5581_75826">
<rect width="14" height="14" fill="white"/>
</clipPath>
</defs>
</svg>
