<svg width="18" height="18" viewBox="0 0 18 18" fill="none" xmlns="http://www.w3.org/2000/svg">
<path fill-rule="evenodd" clip-rule="evenodd" d="M2.25 1.5C1.83579 1.5 1.5 1.83579 1.5 2.25V6.75C1.5 7.16421 1.83579 7.5 2.25 7.5H6.75C7.16421 7.5 7.5 7.16421 7.5 6.75V5.25H10.5V5.96223L5.96223 10.5H2.25C1.83579 10.5 1.5 10.8358 1.5 11.25V15.75C1.5 16.1642 1.83579 16.5 2.25 16.5H6.75C7.16421 16.5 7.5 16.1642 7.5 15.75V14.25H10.5V15.75C10.5 16.1642 10.8358 16.5 11.25 16.5H15.75C16.1642 16.5 16.5 16.1642 16.5 15.75V11.25C16.5 10.8358 16.1642 10.5 15.75 10.5H11.25C10.8358 10.5 10.5 10.8358 10.5 11.25V12.75H7.5V11.25C7.5 11.1982 7.49475 11.1476 7.48475 11.0988L11.0988 7.48475C11.1476 7.49475 11.1982 7.5 11.25 7.5H15.75C16.1642 7.5 16.5 7.16421 16.5 6.75V2.25C16.5 1.83579 16.1642 1.5 15.75 1.5H11.25C10.8358 1.5 10.5 1.83579 10.5 2.25V3.75H7.5V2.25C7.5 1.83579 7.16421 1.5 6.75 1.5H2.25ZM3 12H6V15H3V12ZM15 15H12V12H15V15ZM3 3H6V6H3V3ZM12 3H15V6H12V3Z" fill="#8C8C8C"/>
</svg>
