<svg width="24" height="24" viewBox="0 0 24 24" fill="none" xmlns="http://www.w3.org/2000/svg">
<path fill-rule="evenodd" clip-rule="evenodd" d="M5.06306 1C2.8191 1 1 2.81909 1 5.06306V18.9369C1 21.1806 2.81816 23 5.06243 23H8.6967C9.29874 23 9.78679 22.5119 9.78679 21.9099C9.78679 21.3079 9.29874 20.8198 8.6967 20.8198H5.06243C4.02285 20.8198 3.18018 19.9771 3.18018 18.9369V5.06306C3.18018 4.02318 4.02318 3.18018 5.06306 3.18018H18.9369C19.9768 3.18018 20.8198 4.02318 20.8198 5.06306V8.6967C20.8198 9.29874 21.3079 9.78679 21.9099 9.78679C22.5119 9.78679 23 9.29874 23 8.6967V5.06306C23 2.8191 21.1809 1 18.9369 1H5.06306ZM12.7186 11.1789C12.2929 10.7532 11.6027 10.7532 11.177 11.1789L8.72486 13.631C8.29915 14.0567 8.29915 14.7469 8.72486 15.1727L11.177 17.6248C11.6027 18.0505 12.2929 18.0505 12.7186 17.6248C13.1443 17.1991 13.1443 16.5089 12.7186 16.0832L12.1274 15.4919H18.1807C19.5239 15.4919 20.6667 16.6226 20.6667 18.0801C20.6667 19.5376 19.5239 20.6682 18.1807 20.6682H15.2177C14.6156 20.6682 14.1276 21.1563 14.1276 21.7583C14.1276 22.3604 14.6156 22.8484 15.2177 22.8484H18.1807C20.7855 22.8484 22.8468 20.6834 22.8468 18.0801C22.8468 15.4768 20.7855 13.3118 18.1807 13.3118H12.1274L12.7186 12.7205C13.1443 12.2948 13.1443 11.6046 12.7186 11.1789Z" fill="#8C8C8C" fill-opacity="0.6"/>
</svg>
