<svg width="20" height="20" viewBox="0 0 20 20" fill="none" xmlns="http://www.w3.org/2000/svg">
<path fill-rule="evenodd" clip-rule="evenodd" d="M9.99976 1.75C11.6713 1.75 13.1718 2.42605 14.254 3.38363C15.1081 4.13934 15.7577 5.12409 15.9828 6.1628C16.8245 6.27752 17.6086 6.59026 18.2347 7.10819C19.0589 7.79012 19.5591 8.78966 19.5591 10.0002C19.5591 11.2107 19.0589 12.2102 18.2347 12.8922C17.6171 13.4031 16.8457 13.7143 16.0169 13.8328C15.8353 15.1647 15.184 16.2308 14.2101 16.9805C13.079 17.8512 11.5749 18.2507 9.99976 18.2507C9.53951 18.2507 9.16643 17.8776 9.16643 17.4173C9.16643 16.9571 9.53951 16.584 9.99976 16.584C11.316 16.584 12.4297 16.2477 13.1935 15.6598C13.8854 15.1272 14.3421 14.3517 14.3965 13.274L14.4019 13.0544V6.94627C14.4019 6.2448 13.9777 5.36459 13.1496 4.63179C12.3368 3.91262 11.2196 3.41667 9.99976 3.41667C8.77984 3.41667 7.66262 3.91262 6.84989 4.63179C6.07696 5.31574 5.65589 6.12809 5.60318 6.80369L5.59753 6.94627V13.0544C5.59753 13.4818 5.27583 13.834 4.86138 13.8821L4.7642 13.8877L4.74718 13.8876C3.63426 13.8842 2.56929 13.5575 1.7651 12.8922C0.940835 12.2102 0.440674 11.2107 0.440674 10.0002C0.440674 8.78966 0.940835 7.79012 1.7651 7.10819C2.39108 6.59032 3.17505 6.27758 4.01666 6.16284C4.24176 5.12412 4.89137 4.13935 5.74542 3.38363C6.82758 2.42605 8.32814 1.75 9.99976 1.75ZM3.93087 7.87072C3.48984 7.97246 3.11504 8.15447 2.82751 8.39232C2.38852 8.75557 2.10734 9.28299 2.10734 10.0002C2.10734 10.7173 2.38852 11.2448 2.82751 11.608C3.11504 11.8459 3.48984 12.0279 3.93087 12.1297V7.87072ZM16.0686 7.87065V12.1297C16.5098 12.028 16.8847 11.8459 17.1723 11.608C17.6113 11.2448 17.8924 10.7173 17.8924 10.0002C17.8924 9.28299 17.6113 8.75557 17.1723 8.39232C16.8847 8.15442 16.5098 7.97237 16.0686 7.87065Z" fill="#8C8C8C"/>
</svg>
