<svg width="18" height="18" viewBox="0 0 18 18" fill="none" xmlns="http://www.w3.org/2000/svg">
<path d="M16.5197 5.6064C16.7071 6.0217 16.4708 6.49165 16.0388 6.63668C15.6069 6.7817 15.1438 6.54607 14.946 6.13558C14.5659 5.34644 14.0311 4.63828 13.3707 4.05458C12.5034 3.28812 11.4499 2.7632 10.3157 2.53247C9.18155 2.30175 8.00665 2.37333 6.90888 2.74003C5.81111 3.10674 4.82908 3.75567 4.0613 4.62174C3.29351 5.4878 2.76697 6.54055 2.5345 7.67436C2.30203 8.80817 2.37181 9.98317 2.73683 11.0815C3.10184 12.1798 3.74927 13.1629 4.61416 13.932C5.27283 14.5177 6.03998 14.9637 6.869 15.2465C7.30023 15.3936 7.58968 15.8252 7.49748 16.2714C7.40528 16.7176 6.96705 17.0086 6.53227 16.8723C5.42088 16.5239 4.39271 15.9431 3.5177 15.165C2.43659 14.2036 1.62731 12.9748 1.17103 11.6019C0.71476 10.229 0.627542 8.76021 0.918128 7.34295C1.20871 5.92568 1.86689 4.60976 2.82662 3.52717C3.78635 2.44459 5.01389 1.63342 6.3861 1.17504C7.75831 0.716658 9.22693 0.627184 10.6446 0.915592C12.0623 1.204 13.3793 1.86015 14.4633 2.81822C15.3407 3.59365 16.0406 4.54478 16.5197 5.6064Z" fill="#8C8C8C"/>
<path fill-rule="evenodd" clip-rule="evenodd" d="M8.99008 6.71549C7.97337 6.71549 7.14917 7.53969 7.14917 8.55639V9.37458C7.14917 10.3913 7.97337 11.2155 8.99008 11.2155C10.0068 11.2155 10.831 10.3913 10.831 9.37458V8.55639C10.831 7.53969 10.0068 6.71549 8.99008 6.71549ZM8.99008 7.94276C9.32898 7.94276 9.60372 8.21749 9.60372 8.55639V9.37458C9.60372 9.71348 9.32898 9.98821 8.99008 9.98821C8.65118 9.98821 8.37644 9.71348 8.37644 9.37458V8.55639C8.37644 8.21749 8.65118 7.94276 8.99008 7.94276Z" fill="#8C8C8C"/>
<path fill-rule="evenodd" clip-rule="evenodd" d="M14.5808 11.5905C13.5641 11.5905 12.7399 12.4147 12.7399 13.4314V14.2496C12.7399 15.2663 13.5641 16.0905 14.5808 16.0905C15.5975 16.0905 16.4217 15.2663 16.4217 14.2496V13.4314C16.4217 12.4147 15.5975 11.5905 14.5808 11.5905ZM14.5808 12.8178C14.9197 12.8178 15.1945 13.0925 15.1945 13.4314V14.2496C15.1945 14.5885 14.9197 14.8632 14.5808 14.8632C14.2419 14.8632 13.9672 14.5885 13.9672 14.2496V13.4314C13.9672 13.0925 14.2419 12.8178 14.5808 12.8178Z" fill="#8C8C8C"/>
<path d="M14.6791 7.60753C15.0149 7.85005 15.0905 8.31887 14.848 8.65466L9.97289 15.4046C9.73036 15.7404 9.26155 15.816 8.92576 15.5735C8.58996 15.331 8.51435 14.8621 8.75688 14.5263L13.6319 7.77641C13.8745 7.44062 14.3433 7.36501 14.6791 7.60753Z" fill="#8C8C8C"/>
</svg>
