<svg width="18" height="18" viewBox="0 0 18 18" fill="none" xmlns="http://www.w3.org/2000/svg">
<g clip-path="url(#clip0_1016_94577)">
<path d="M13.2803 7.28006C13.5732 6.98717 13.5732 6.5123 13.2803 6.2194C12.9874 5.92651 12.5126 5.92651 12.2197 6.2194L8.25 10.1891L6.15533 8.0944C5.86244 7.80151 5.38756 7.80151 5.09467 8.0944C4.80178 8.3873 4.80178 8.86217 5.09467 9.15506L7.71967 11.7801C8.01256 12.073 8.48744 12.073 8.78033 11.7801L13.2803 7.28006Z" fill="#8C8C8C"/>
<path fill-rule="evenodd" clip-rule="evenodd" d="M10.0543 1.02544C9.36799 0.824946 8.63864 0.824852 7.95225 1.02517L3.65954 2.27795C2.37977 2.65144 1.5 3.82466 1.5 5.15782V7.5105C1.5 11.7212 3.98175 15.4964 7.76245 17.1958C8.54978 17.5497 9.45223 17.5497 10.2395 17.1957C14.0191 15.4964 16.5 11.722 16.5 7.51237V5.15737C16.5 3.8245 15.6206 2.65146 14.3412 2.27772L10.0543 1.02544ZM8.37248 2.4651C8.78431 2.34491 9.22192 2.34497 9.63372 2.46526L13.9206 3.71754C14.5603 3.90441 15 4.49093 15 5.15737V7.51237C15 11.1271 12.8696 14.3685 9.62442 15.8276C9.2283 16.0057 8.77358 16.0058 8.37742 15.8277C5.13116 14.3685 3 11.1262 3 7.5105V5.15782C3 4.49124 3.43988 3.90463 4.07977 3.71789L8.37248 2.4651Z" fill="#8C8C8C"/>
</g>
<defs>
<clipPath id="clip0_1016_94577">
<rect width="18" height="18" fill="white"/>
</clipPath>
</defs>
</svg>
