<svg width="18" height="18" viewBox="0 0 18 18" fill="none" xmlns="http://www.w3.org/2000/svg">
<g clip-path="url(#clip0_1204_65385)">
<path fill-rule="evenodd" clip-rule="evenodd" d="M0.916504 3.66406C0.916504 2.14528 2.14772 0.914062 3.6665 0.914062H14.3332C15.852 0.914062 17.0832 2.14528 17.0832 3.66406V14.3307C17.0832 15.8495 15.852 17.0807 14.3332 17.0807H3.66651C2.14772 17.0807 0.916504 15.8495 0.916504 14.3307V3.66406ZM3.6665 2.41406C2.97615 2.41406 2.4165 2.97371 2.4165 3.66406V14.3307C2.4165 15.0211 2.97615 15.5807 3.66651 15.5807H14.3332C15.0235 15.5807 15.5832 15.0211 15.5832 14.3307V3.66406C15.5832 2.97371 15.0235 2.41406 14.3332 2.41406H3.6665Z" fill="#8C8C8C"/>
<path fill-rule="evenodd" clip-rule="evenodd" d="M16.6998 7L1.2998 7L1.2998 5.5L16.6998 5.5L16.6998 7Z" fill="#8C8C8C"/>
<path fill-rule="evenodd" clip-rule="evenodd" d="M11 16.6969L11 6.79687L12.5 6.79687L12.5 16.6969L11 16.6969Z" fill="#8C8C8C"/>
</g>
<defs>
<clipPath id="clip0_1204_65385">
<rect width="18" height="18" fill="white"/>
</clipPath>
</defs>
</svg>
