<svg width="16" height="16" viewBox="0 0 16 16" fill="none" xmlns="http://www.w3.org/2000/svg">
<g id="ic2_net_asset_value">
<path id="Rectangle 19038 (Stroke)" fill-rule="evenodd" clip-rule="evenodd" d="M11.3335 2.77782H4.66683C3.62363 2.77782 2.77794 3.6235 2.77794 4.66671V11.3334C2.77794 12.3766 3.62363 13.2223 4.66683 13.2223H11.3335C12.3767 13.2223 13.2224 12.3766 13.2224 11.3334V4.66671C13.2224 3.6235 12.3767 2.77782 11.3335 2.77782ZM4.66683 1.33337C2.82588 1.33337 1.3335 2.82576 1.3335 4.66671V11.3334C1.3335 13.1743 2.82588 14.6667 4.66683 14.6667H11.3335C13.1744 14.6667 14.6668 13.1743 14.6668 11.3334V4.66671C14.6668 2.82576 13.1744 1.33337 11.3335 1.33337H4.66683Z" fill="#8C8C8C"/>
<path id="Vector (Stroke)" fill-rule="evenodd" clip-rule="evenodd" d="M11.0367 6.04586C11.352 6.29023 11.4094 6.74389 11.1651 7.05914L9.87747 8.72019C9.44314 9.26949 8.64357 9.36901 8.08598 8.93815L8.08095 8.93426L7.19802 8.23946L5.97754 9.82404C5.73414 10.14 5.28066 10.1989 4.96466 9.95551C4.64866 9.71211 4.58979 9.25863 4.83319 8.94263L6.1561 7.22506C6.5895 6.6642 7.39325 6.56302 7.95252 6.99518L7.95755 6.99907L8.84356 7.69629L10.0234 6.17419C10.2678 5.85894 10.7215 5.80149 11.0367 6.04586Z" fill="#8C8C8C"/>
</g>
</svg>
