<svg width="20" height="20" viewBox="0 0 20 20" fill="none" xmlns="http://www.w3.org/2000/svg">
<path d="M10.0001 6.57471L9.10838 8.12471C8.90838 8.46637 9.07505 8.74971 9.46672 8.74971H10.5251C10.9251 8.74971 11.0834 9.03304 10.8834 9.37471L10.0001 10.9247" stroke="black" stroke-opacity="0.88" stroke-width="1.25" stroke-linecap="round" stroke-linejoin="round"/>
<path d="M6.91672 15.0336V14.067C5.00005 12.9086 3.42505 10.6503 3.42505 8.25031C3.42505 4.12531 7.21672 0.891976 11.5 1.82531C13.3834 2.24198 15.0334 3.49198 15.8917 5.21698C17.6334 8.71698 15.8 12.4336 13.1084 14.0586V15.0253C13.1084 15.267 13.2 15.8253 12.3084 15.8253H7.71672C6.80005 15.8336 6.91672 15.4753 6.91672 15.0336Z" stroke="black" stroke-opacity="0.88" stroke-width="1.25" stroke-linecap="round" stroke-linejoin="round"/>
<path d="M7.08337 18.3335C8.99171 17.7918 11.0084 17.7918 12.9167 18.3335" stroke="black" stroke-opacity="0.88" stroke-width="1.25" stroke-linecap="round" stroke-linejoin="round"/>
</svg>
