<svg width="16" height="16" viewBox="0 0 16 16" fill="none" xmlns="http://www.w3.org/2000/svg">
<g clip-path="url(#clip0_612_55809)">
<path d="M11.8048 6.47073C12.0651 6.21038 12.0651 5.78827 11.8048 5.52792C11.5444 5.26757 11.1223 5.26757 10.862 5.52792L7.33337 9.05652L5.47145 7.19459C5.2111 6.93424 4.78899 6.93424 4.52864 7.19459C4.26829 7.45494 4.26829 7.87705 4.52864 8.1374L6.86197 10.4707C7.12232 10.7311 7.54443 10.7311 7.80478 10.4707L11.8048 6.47073Z" fill="#8C8C8C"/>
<path fill-rule="evenodd" clip-rule="evenodd" d="M8.93722 0.911067C8.32714 0.732851 7.67883 0.732768 7.0687 0.910827L3.25296 2.02441C2.11539 2.3564 1.33337 3.39927 1.33337 4.58429V6.67557C1.33337 10.4185 3.53937 13.7742 6.9 15.2847C7.59984 15.5993 8.40202 15.5993 9.10185 15.2846C12.4615 13.7741 14.6667 10.4192 14.6667 6.67723V4.58389C14.6667 3.39912 13.885 2.35642 12.7478 2.02421L8.93722 0.911067ZM7.44224 2.19077C7.80832 2.08393 8.1973 2.08398 8.56335 2.19091L12.3739 3.30405C12.9425 3.47015 13.3334 3.99151 13.3334 4.58389V6.67723C13.3334 9.8903 11.4397 12.7716 8.55508 14.0686C8.20297 14.2269 7.79878 14.2269 7.44664 14.0686C4.56107 12.7716 2.66671 9.88954 2.66671 6.67557V4.58429C2.66671 3.99178 3.05772 3.47035 3.6265 3.30435L7.44224 2.19077Z" fill="#8C8C8C"/>
</g>
<defs>
<clipPath id="clip0_612_55809">
<rect width="16" height="16" fill="white"/>
</clipPath>
</defs>
</svg>
