<svg width="20" height="20" viewBox="0 0 20 20" fill="none" xmlns="http://www.w3.org/2000/svg">
<g id="sound-open">
<path id="Vector (Stroke)" fill-rule="evenodd" clip-rule="evenodd" d="M11.6356 3.14381C12.6039 3.67882 13.0833 4.80662 13.0833 6.17419V13.8242C13.0833 15.1884 12.6034 16.3152 11.6362 16.8511C10.6688 17.3871 9.45891 17.1961 8.30143 16.4704C8.3014 16.4704 8.30147 16.4705 8.30143 16.4704L5.87512 14.9499C5.69793 14.846 5.50111 14.7909 5.31667 14.7909H4.125C3.19533 14.7909 2.38327 14.558 1.80806 13.9828C1.23284 13.4076 1 12.5955 1 11.6659V8.33252C1 7.40285 1.23284 6.5908 1.80806 6.01558C2.38327 5.44037 3.19533 5.20753 4.125 5.20753H5.31667C5.50111 5.20753 5.69793 5.15242 5.87512 5.04853L8.30133 3.528C8.30129 3.52802 8.30136 3.52798 8.30133 3.528C9.45783 2.80293 10.6677 2.60899 11.6356 3.14381ZM11.0311 4.2379C10.6115 4.00607 9.90881 3.99551 8.96534 4.58705L6.52554 6.1161L6.51909 6.11993C6.16444 6.3305 5.74688 6.45753 5.31667 6.45753H4.125C3.38801 6.45753 2.95006 6.64135 2.69194 6.89947C2.43382 7.15758 2.25 7.59553 2.25 8.33252V11.6659C2.25 12.4029 2.43382 12.8408 2.69194 13.0989C2.95006 13.357 3.38801 13.5409 4.125 13.5409H5.31667C5.74688 13.5409 6.16444 13.6679 6.51909 13.8784L6.52554 13.8823L8.96523 15.4113C9.90772 16.0022 10.6104 15.9904 11.0304 15.7577C11.4508 15.5248 11.8333 14.935 11.8333 13.8242V6.17419C11.8333 5.05843 11.4503 4.46956 11.0311 4.2379Z" fill="#8C8C8C" fill-opacity="0.6"/>
<path id="Vector (Stroke)_2" fill-rule="evenodd" clip-rule="evenodd" d="M15.7331 6.16631C16.0091 5.95901 16.4009 6.01471 16.6082 6.29071C18.2585 8.48807 18.2585 11.5107 16.6082 13.7081C16.4009 13.9841 16.0091 14.0398 15.7331 13.8325C15.4571 13.6252 15.4014 13.2334 15.6087 12.9574C16.925 11.2047 16.925 8.79403 15.6087 7.04139C15.4014 6.76539 15.4571 6.3736 15.7331 6.16631Z" fill="#8C8C8C" fill-opacity="0.6"/>
</g>
</svg>
