<svg width="24" height="24" viewBox="0 0 24 24" fill="none" xmlns="http://www.w3.org/2000/svg">
<path fill-rule="evenodd" clip-rule="evenodd" d="M9.02703 1C6.44203 1 4.34896 1.51032 2.92964 2.92964C1.51032 4.34896 1 6.44203 1 9.02703V14.973C1 17.558 1.51032 19.651 2.92964 21.0704C4.34896 22.4897 6.44203 23 9.02703 23H14.973C17.558 23 19.651 22.4897 21.0704 21.0704C22.4897 19.651 23 17.558 23 14.973V9.02703C23 6.44203 22.4897 4.34896 21.0704 2.92964C19.651 1.51032 17.558 1 14.973 1H9.02703ZM3.18018 9.02703C3.18018 6.65706 3.66085 5.28167 4.47126 4.47126C5.28167 3.66085 6.65706 3.18018 9.02703 3.18018H14.973C17.3429 3.18018 18.7183 3.66085 19.5287 4.47126C20.3392 5.28167 20.8198 6.65706 20.8198 9.02703V14.973C20.8198 17.3429 20.3392 18.7183 19.5287 19.5287C18.7183 20.3392 17.3429 20.8198 14.973 20.8198H9.02703C6.65706 20.8198 5.28167 20.3392 4.47126 19.5287C3.66085 18.7183 3.18018 17.3429 3.18018 14.973V9.02703ZM13.09 9.02896C13.09 8.42692 12.602 7.93887 11.9999 7.93887C11.3979 7.93887 10.9099 8.42692 10.9099 9.02896V15.6488C10.9099 16.2508 11.3979 16.7389 11.9999 16.7389C12.602 16.7389 13.09 16.2508 13.09 15.6488V9.02896ZM8.13501 10.7535C8.13501 10.1515 7.64697 9.66343 7.04492 9.66343C6.44288 9.66343 5.95483 10.1515 5.95483 10.7535V13.9247C5.95483 14.5267 6.44288 15.0148 7.04492 15.0148C7.64697 15.0148 8.13501 14.5267 8.13501 13.9247V10.7535ZM16.955 9.66343C17.557 9.66343 18.045 10.1515 18.045 10.7535V13.9247C18.045 14.5267 17.557 15.0148 16.955 15.0148C16.3529 15.0148 15.8649 14.5267 15.8649 13.9247V10.7535C15.8649 10.1515 16.3529 9.66343 16.955 9.66343Z" fill="#8C8C8C" fill-opacity="0.6"/>
</svg>
