<svg width="16" height="16" viewBox="0 0 16 16" fill="none" xmlns="http://www.w3.org/2000/svg">
<path fill-rule="evenodd" clip-rule="evenodd" d="M2.0333 7.99948C2.0333 4.70418 4.70467 2.03281 7.99997 2.03281C11.2953 2.03281 13.9666 4.70418 13.9666 7.99948C13.9666 11.2948 11.2953 13.9661 7.99997 13.9661C4.70467 13.9661 2.0333 11.2948 2.0333 7.99948ZM7.99997 0.632812C3.93147 0.632812 0.633301 3.93098 0.633301 7.99948C0.633301 12.068 3.93147 15.3661 7.99997 15.3661C12.0685 15.3661 15.3666 12.068 15.3666 7.99948C15.3666 3.93098 12.0685 0.632812 7.99997 0.632812ZM5.66663 6.09344C5.66663 5.91671 5.8099 5.77344 5.98663 5.77344C6.16335 5.77344 6.30662 5.9167 6.30662 6.09344C6.30662 6.27018 6.16336 6.41343 5.98663 6.41343C5.80989 6.41343 5.66663 6.27016 5.66663 6.09344ZM5.98663 4.77344C5.25762 4.77344 4.66663 5.36443 4.66663 6.09344C4.66663 6.82248 5.25763 7.41343 5.98663 7.41343C6.71565 7.41343 7.30662 6.82246 7.30662 6.09344C7.30662 5.36445 6.71567 4.77344 5.98663 4.77344ZM10.5684 6.31607C10.8418 6.0427 10.8418 5.59949 10.5684 5.32612C10.295 5.05275 9.8518 5.05275 9.57844 5.32612L5.21845 9.6861C4.94509 9.95947 4.94509 10.4027 5.21845 10.6761C5.49182 10.9494 5.93504 10.9494 6.2084 10.6761L10.5684 6.31607ZM10.3467 9.58594C10.17 9.58594 10.0267 9.72919 10.0267 9.90592C10.0267 10.0827 10.17 10.2259 10.3467 10.2259C10.5235 10.2259 10.6667 10.0827 10.6667 9.90592C10.6667 9.72921 10.5235 9.58594 10.3467 9.58594ZM9.02673 9.90592C9.02673 9.17691 9.6177 8.58594 10.3467 8.58594C11.0757 8.58594 11.6667 9.17689 11.6667 9.90592C11.6667 10.6349 11.0757 11.2259 10.3467 11.2259C9.61769 11.2259 9.02673 10.6349 9.02673 9.90592Z" fill="#8C8C8C"/>
</svg>
