<svg width="136" height="137" viewBox="0 0 136 137" fill="none" xmlns="http://www.w3.org/2000/svg">
<path d="M59.2327 121.264L58.0657 121.953C57.5878 121.825 57.257 121.42 57.0549 121.044C56.8711 120.713 56.7608 120.355 56.7057 119.987C54.6473 106.396 51.1278 105.9 51.1278 105.9C48.7111 105.339 46.083 114.078 46.083 114.078C41.9938 123.258 36.4343 117.515 36.4343 117.515C33.7603 115.025 31.5273 107.076 30.0846 100.607C27.5116 89.0654 24.8192 77.5329 21.9338 66.0464L21.5938 64.7048C17.5781 49.8091 12.5516 43.9189 10.6587 42.127C10.0981 41.6032 9.4273 41.1713 8.64622 40.9232C4.69487 39.6367 3.60136 44.2956 3.60136 44.2956C0.973249 56.0302 9.66622 65.2929 9.66622 65.2929H7.47001C7.47001 65.2929 -3.17107 52.3913 2.89379 40.8405C2.89379 40.8405 5.20947 35.7681 10.8792 39.1129C10.8792 39.1129 19.0024 43.1654 25.2419 70.4664C25.2419 70.4664 32.9884 108.05 35.2305 112.433C35.3041 112.58 35.3868 112.728 35.4511 112.884C36.076 114.244 39.3932 120.612 43.8133 113.628C44.1716 113.058 44.4381 112.433 44.6035 111.799C45.256 109.392 47.4154 102.665 50.8797 103.097C50.8797 103.097 56.3289 103.676 58.5068 117.736L59.2235 121.273L59.2327 121.264Z" fill="white" stroke="black" stroke-width="0.35" stroke-linecap="round" stroke-linejoin="round"/>
<path d="M51.1192 105.974C48.7024 105.413 46.0743 114.152 46.0743 114.152C44.4937 117.69 42.7019 119.004 41.0938 119.298L56.2927 117.653C54.2159 106.406 51.1192 105.974 51.1192 105.974Z" fill="black"/>
<path d="M10.6578 42.1364C10.0972 41.6127 9.42641 41.1808 8.64533 40.9327C4.69398 39.6462 3.60047 44.3051 3.60047 44.3051C0.97236 56.0397 9.66533 65.3024 9.66533 65.3024H21.6664L21.7124 65.2381L21.5837 64.7235C17.568 49.8278 12.5415 43.9375 10.6486 42.1456L10.6578 42.1364Z" fill="black" stroke="black" stroke-width="0.35" stroke-miterlimit="10"/>
<path d="M10.8785 39.1131C10.8785 39.1131 19.0018 43.1655 25.2412 70.4666C25.2412 70.4666 32.9877 108.05 35.2299 112.434C35.3034 112.581 35.3861 112.728 35.4504 112.884C36.0753 114.244 39.4018 120.621 43.8218 113.601C44.171 113.04 44.4283 112.434 44.5937 111.818C45.1818 109.649 47.0104 103.878 49.9418 103.153C50.1439 103.097 50.3553 103.079 50.5758 103.079L89.538 98.4752C84.245 66.1109 76.5169 49.1385 72.0234 41.5023C70.1488 38.3136 66.2894 36.3471 62.1175 36.4666L7.07422 37.9736C8.12179 37.9368 9.38071 38.2309 10.8694 39.1131H10.8785Z" fill="white" stroke="black" stroke-width="0.35" stroke-linecap="round" stroke-linejoin="round"/>
<path d="M112.632 99.7801C111.125 97.5379 108.157 96.3157 105.152 96.6649L50.5957 103.079C50.6968 103.079 50.7979 103.079 50.8989 103.097C50.8989 103.097 56.3481 103.676 58.526 117.736L59.2427 121.274L117.649 115.255C116.648 107.352 114.507 102.574 112.632 99.7893V99.7801Z" fill="white" stroke="black" stroke-width="0.35" stroke-linecap="round" stroke-linejoin="round"/>
<path d="M58.0664 121.954L116.822 116.018L117.64 115.246L59.2334 121.265L58.0664 121.954Z" fill="white" stroke="black" stroke-width="0.35" stroke-linecap="round" stroke-linejoin="round"/>
<path d="M30.1309 44.507L63.8552 43.248" stroke="#E5E5E5" stroke-width="2" stroke-linecap="round" stroke-linejoin="round"/>
<path d="M61.7773 106.81L106.51 102.298" stroke="#E5E5E5" stroke-width="2" stroke-linecap="round" stroke-linejoin="round"/>
<path d="M63.5508 111.726L85.9173 109.475" stroke="#E5E5E5" stroke-width="2" stroke-linecap="round" stroke-linejoin="round"/>
<path d="M89.5566 109.061L99.8853 108.014" stroke="#E5E5E5" stroke-width="2" stroke-linecap="round" stroke-linejoin="round"/>
<path d="M50.5957 53.6229L63.8557 52.7407" stroke="#E5E5E5" stroke-width="2" stroke-linecap="round" stroke-linejoin="round"/>
<path d="M51.4219 57.5652L70.37 56.3154" stroke="#E5E5E5" stroke-width="2" stroke-linecap="round" stroke-linejoin="round"/>
<path d="M54.2988 69.7037L74.9102 68.3345" stroke="#E5E5E5" stroke-width="2" stroke-linecap="round" stroke-linejoin="round"/>
<path d="M55.8242 74.6845L65.8772 74.0137" stroke="#E5E5E5" stroke-width="2" stroke-linecap="round" stroke-linejoin="round"/>
<path d="M59.2324 88.0177L79.8438 86.6577" stroke="#E5E5E5" stroke-width="2" stroke-linecap="round" stroke-linejoin="round"/>
<path d="M60.7578 92.9985L70.8108 92.3369" stroke="#E5E5E5" stroke-width="2" stroke-linecap="round" stroke-linejoin="round"/>
<path d="M69.8926 73.6275L73.5683 73.3794" stroke="#E5E5E5" stroke-width="2" stroke-linecap="round" stroke-linejoin="round"/>
<path d="M31.7117 50.4621C32.4928 50.1221 33.3842 49.9291 34.3674 49.9383C38.3188 49.9383 42.1599 53.0902 42.9409 56.968C43.5199 59.881 42.1966 62.3713 39.8166 63.4188C39.0355 63.7588 38.1534 63.9518 37.1793 63.9426C33.2096 63.9334 29.3777 60.7815 28.6058 56.9129C28.0177 53.9999 29.3409 51.5005 31.7209 50.4621H31.7117Z" fill="#00C288"/>
<path d="M40.9839 49.9473C41.1401 49.9198 41.3055 49.9473 41.4709 50.0301L42.6472 50.6641C42.9688 50.8387 43.1158 51.2063 42.978 51.4728L38.3742 60.3771C38.3007 60.5149 38.1812 60.6068 38.025 60.6344C37.8688 60.6619 37.6942 60.6344 37.538 60.5517L31.7028 57.363C31.3812 57.1884 31.2342 56.8209 31.372 56.5544L31.8774 55.5711C31.9509 55.4333 32.0796 55.3506 32.2266 55.3138C32.3736 55.2771 32.5482 55.3138 32.7136 55.3965L36.8028 57.6295L40.6347 50.2138C40.7082 50.076 40.8369 49.9933 40.9839 49.9565V49.9473Z" fill="white" stroke="black" stroke-width="0.35" stroke-linecap="round" stroke-linejoin="round"/>
<path d="M37.3348 68.2062C38.1159 67.8662 39.0072 67.6733 39.9905 67.6824C43.9418 67.6824 47.7829 70.8343 48.564 74.7122C49.1429 77.6251 47.8197 80.1154 45.4397 81.163C44.6586 81.503 43.7764 81.696 42.8024 81.6868C38.8326 81.6776 35.0007 78.5257 34.2288 74.657C33.6407 71.7441 34.964 69.2446 37.344 68.2062H37.3348Z" fill="#00C288"/>
<path d="M46.5972 67.6915C46.7534 67.6639 46.9188 67.6915 47.0842 67.7742L48.2604 68.4082C48.5821 68.5828 48.7291 68.9504 48.5912 69.2169L43.9875 78.1212C43.9139 78.2591 43.7945 78.3509 43.6383 78.3785C43.4821 78.4061 43.3075 78.3785 43.1512 78.2958L37.3161 75.1072C36.9945 74.9326 36.8475 74.565 36.9853 74.2985L37.4907 73.3153C37.5642 73.1774 37.6929 73.0947 37.8399 73.058C37.9869 73.0212 38.1615 73.058 38.3269 73.1407L42.4161 75.3737L46.248 67.958C46.3215 67.8201 46.4502 67.7374 46.5972 67.7007V67.6915Z" fill="white" stroke="black" stroke-width="0.35" stroke-linecap="round" stroke-linejoin="round"/>
<path d="M42.9403 85.9504C43.7213 85.6104 44.6127 85.4174 45.5959 85.4266C49.5473 85.4266 53.3884 88.5785 54.1695 92.4563C54.7484 95.3693 53.4251 97.8596 51.0451 98.9071C50.264 99.2471 49.3819 99.4401 48.4078 99.4309C44.4381 99.4217 40.6062 96.2698 39.8343 92.4012C39.2462 89.4882 40.5695 86.9887 42.9495 85.9504H42.9403Z" fill="#00C288"/>
<path d="M52.2124 85.4356C52.3686 85.4081 52.534 85.4356 52.6994 85.5183L53.8757 86.1524C54.1973 86.327 54.3443 86.6946 54.2065 86.961L49.6027 95.8654C49.5292 96.0032 49.4097 96.0951 49.2535 96.1227C49.0973 96.1502 48.9227 96.1227 48.7665 96.04L42.9313 92.8513C42.6097 92.6767 42.4627 92.3091 42.6005 92.0427L43.1059 91.0594C43.1795 90.9216 43.3081 90.8389 43.4551 90.8021C43.6022 90.7654 43.7767 90.8021 43.9422 90.8848L48.0313 93.1178L51.8632 85.7021C51.9367 85.5643 52.0654 85.4816 52.2124 85.4448V85.4356Z" fill="white" stroke="black" stroke-width="0.35" stroke-linecap="round" stroke-linejoin="round"/>
<path d="M93.2337 40.2978C93.2797 41.7865 94.5294 42.9627 96.018 42.9168C97.5067 42.8708 98.6829 41.6303 98.637 40.1324C98.591 38.6346 97.3413 37.4676 95.8526 37.5135C94.364 37.5595 93.1878 38.8 93.2337 40.2978Z" fill="white" stroke="#121212" stroke-width="0.35" stroke-linecap="round" stroke-linejoin="round"/>
<path d="M82.5838 15.8089C82.6022 16.5532 83.2271 17.1413 83.9714 17.1229C84.7157 17.1046 85.3038 16.4797 85.2855 15.7354C85.2671 14.991 84.6422 14.4029 83.8887 14.4213C83.1352 14.4397 82.5563 15.0646 82.5746 15.8181L82.5838 15.8089Z" fill="white" stroke="#121212" stroke-width="0.35" stroke-linecap="round" stroke-linejoin="round"/>
<path d="M72.8699 29.6017L73.2375 30.4747L72.7229 29.6753C70.8575 26.7531 67.145 25.5953 63.9472 26.9461L63.0742 27.3136L63.8737 26.799C66.7958 24.9336 67.9537 21.2212 66.6029 18.0234L66.2353 17.1504L66.7499 17.9499C68.6153 20.872 72.3277 22.0299 75.5256 20.679L76.3985 20.3115L75.5991 20.8261C72.6769 22.6915 71.5191 26.4039 72.8699 29.6017Z" fill="white" stroke="#121212" stroke-width="0.35" stroke-linecap="round" stroke-linejoin="round"/>
<path d="M79.8457 87.6135L84.4771 78.5254L87.6473 83.5978L79.8457 87.6135Z" fill="white" stroke="black" stroke-width="0.25" stroke-linecap="round" stroke-linejoin="round"/>
<path d="M92.3522 85.2241L87.6473 83.5977L79.8457 87.6133L92.3522 85.2241Z" fill="black" stroke="black" stroke-width="0.25" stroke-linecap="round" stroke-linejoin="round"/>
<path d="M84.4771 78.5254L85.9657 75.1162L79.8457 87.6135L84.4771 78.5254Z" fill="white" stroke="black" stroke-width="0.25" stroke-linecap="round" stroke-linejoin="round"/>
<path d="M87.6468 83.5974L128.778 48.5958L125.663 43.5142L84.4766 78.525L87.6468 83.5974Z" fill="white" stroke="black" stroke-width="0.25" stroke-linecap="round" stroke-linejoin="round"/>
<path d="M92.3514 85.2243L87.6465 83.5978L128.777 48.5962L133.308 50.3238L92.3514 85.2243Z" fill="white" stroke="black" stroke-width="0.25" stroke-linecap="round" stroke-linejoin="round"/>
<path opacity="0.3" d="M92.3514 85.2243L87.6465 83.5978L128.777 48.5962L133.308 50.3238L92.3514 85.2243Z" fill="black"/>
<path d="M84.4766 78.5252L85.9652 75.116L127.142 40.2798L125.663 43.5144L84.4766 78.5252Z" fill="white" stroke="black" stroke-width="0.25" stroke-linecap="round" stroke-linejoin="round"/>
<path d="M131.791 41.7409L134.971 47.043L133.308 50.3236L128.777 48.596L125.662 43.5144L127.142 40.2798L131.791 41.7409Z" fill="white" stroke="black" stroke-width="0.25" stroke-linecap="round" stroke-linejoin="round"/>
<path d="M123.089 43.7075L121.711 46.8778L124.762 52.0054L129.43 53.6227" stroke="black" stroke-width="0.25" stroke-linecap="round" stroke-linejoin="round"/>
<path d="M119.286 46.9238L117.861 50.1492L120.949 55.2492L125.58 56.9033" stroke="black" stroke-width="0.25" stroke-linecap="round" stroke-linejoin="round"/>
</svg>
