<svg xmlns="http://www.w3.org/2000/svg" width="26" height="19" viewBox="0 0 26 19">
  <g fill="none" fill-rule="evenodd" stroke="#3CD0A4" stroke-width="1.043" transform="translate(1 1)">
    <path stroke-linecap="round" stroke-linejoin="round" d="M8.12347826 12.2090858L8.12347853 12.2090855C10.2259255 10.0965985 13.6647133 10.0669361 15.804209 12.1428385 15.8267689 12.1647278 15.8491347 12.1868112 15.8713036 12.209086M3.82956583 8.68543909L3.82956522 8.68543971C8.28057913 4.22858577 15.5480348 4.17829153 20.0618609 8.57310165 20.1000507 8.61028436 20.1379763 8.64773113 20.1756344 8.68543868"/>
    <path stroke-linecap="round" stroke-linejoin="round" d="M-1.31619653e-07,5.15154091 L-5.21739131e-07,5.1515413 C6.51819078,-1.39217082 17.1748169,-1.47964355 23.8022603,4.95627466 C23.8687278,5.02082109 23.9346511,5.08591203 24.000023,5.15154027"/>
    <path d="M12.737833,14.8990365 C13.1453369,15.3054184 13.1453369,15.9642925 12.737833,16.3706749 C12.3303292,16.7770568 11.6696348,16.7770568 11.2621304,16.3706749 C10.8546266,15.964293 10.8546266,15.3054189 11.2621304,14.8990365 C11.6696343,14.4926545 12.3303287,14.4926545 12.737833,14.8990365"/>
  </g>
</svg>
