<svg width="180" height="100" viewBox="0 0 180 100" fill="none" xmlns="http://www.w3.org/2000/svg">
<g clip-path="url(#clip0_372_7370)">
<path d="M167.6 91.3795C167.6 70.8762 159.455 51.2127 144.957 36.7147C130.459 22.2167 110.795 14.0718 90.2921 14.0718C69.7888 14.0718 50.1253 22.2167 35.6273 36.7147C21.1293 51.2127 12.9844 70.8762 12.9844 91.3795L68.0374 91.3795C68.0374 85.4772 70.3821 79.8167 74.5557 75.6431C78.7292 71.4695 84.3898 69.1249 90.2921 69.1249C96.1944 69.1249 101.855 71.4695 106.029 75.6431C110.202 79.8167 112.547 85.4772 112.547 91.3795H167.6Z" fill="#01BC8D" fill-opacity="0.08"/>
<mask id="path-2-inside-1_372_7370" fill="white">
<path d="M171.064 91.5257C171.366 75.1121 166.66 58.9961 157.572 45.3246L147.435 52.0631C155.153 63.6742 159.15 77.3614 158.893 91.3014L171.064 91.5257Z"/>
</mask>
<path d="M171.064 91.5257C171.366 75.1121 166.66 58.9961 157.572 45.3246L147.435 52.0631C155.153 63.6742 159.15 77.3614 158.893 91.3014L171.064 91.5257Z" fill="url(#paint0_linear_372_7370)" stroke="black" mask="url(#path-2-inside-1_372_7370)"/>
<mask id="path-3-inside-2_372_7370" fill="white">
<path d="M155.686 42.609C146.07 29.3547 132.654 19.336 117.214 13.8813L113.159 25.3585C126.272 29.9912 137.667 38.5 145.833 49.7567L155.686 42.609Z"/>
</mask>
<path d="M155.686 42.609C146.07 29.3547 132.654 19.336 117.214 13.8813L113.159 25.3585C126.272 29.9912 137.667 38.5 145.833 49.7567L155.686 42.609Z" fill="url(#paint1_linear_372_7370)" stroke="black" mask="url(#path-3-inside-2_372_7370)"/>
<mask id="path-4-inside-3_372_7370" fill="white">
<path d="M114.499 12.9757C98.8569 8.0656 82.0914 8.03167 66.43 12.8784L70.0286 24.5068C83.3297 20.3905 97.5685 20.4193 110.853 24.5894L114.499 12.9757Z"/>
</mask>
<path d="M114.499 12.9757C98.8569 8.0656 82.0914 8.03167 66.43 12.8784L70.0286 24.5068C83.3297 20.3905 97.5685 20.4193 110.853 24.5894L114.499 12.9757Z" fill="#FFDA33" stroke="black" mask="url(#path-4-inside-3_372_7370)"/>
<mask id="path-5-inside-4_372_7370" fill="white">
<path d="M63.2573 13.9326C47.9165 19.3854 34.5818 29.3471 25.0017 42.5113L34.8439 49.6738C42.9801 38.4935 54.3053 30.0332 67.3341 25.4022L63.2573 13.9326Z"/>
</mask>
<path d="M63.2573 13.9326C47.9165 19.3854 34.5818 29.3471 25.0017 42.5113L34.8439 49.6738C42.9801 38.4935 54.3053 30.0332 67.3341 25.4022L63.2573 13.9326Z" fill="#FF9633" stroke="black" mask="url(#path-5-inside-4_372_7370)"/>
<mask id="path-6-inside-5_372_7370" fill="white">
<path d="M22.9333 45.492C13.924 59.1186 9.25834 75.1568 9.55213 91.4898L21.7226 91.2709C21.4731 77.3994 25.4357 63.7783 33.0872 52.2053L22.9333 45.492Z"/>
</mask>
<path d="M22.9333 45.492C13.924 59.1186 9.25834 75.1568 9.55213 91.4898L21.7226 91.2709C21.4731 77.3994 25.4357 63.7783 33.0872 52.2053L22.9333 45.492Z" fill="#F65454" stroke="black" mask="url(#path-6-inside-5_372_7370)"/>
<path d="M180.282 91.6962C180.502 79.7419 178.338 67.8636 173.917 56.7549C169.495 45.6462 162.904 35.5299 154.53 26.9967C146.155 18.4635 136.164 11.6846 125.14 7.0558C114.116 2.42702 102.28 0.0411709 90.3237 0.0376017C78.3675 0.0340325 66.5303 2.41281 55.5036 7.03502C44.4769 11.6572 34.4817 18.4302 26.1018 26.9583C17.7219 35.4865 11.1252 45.5989 6.69702 56.705C2.26886 67.811 0.0979868 79.688 0.311184 91.6424L1.10401 91.6283C0.892693 79.7792 3.04444 68.0068 7.43359 56.9986C11.8227 45.9904 18.3613 35.9671 26.6674 27.5141C34.9735 19.0611 44.8806 12.3478 55.8102 7.76632C66.7397 3.18484 78.4726 0.827017 90.3235 0.830555C102.174 0.834093 113.906 3.19892 124.833 7.78692C135.76 12.3749 145.663 19.0941 153.964 27.5521C162.265 36.0101 168.797 46.0373 173.18 57.0481C177.562 68.0589 179.707 79.8326 179.489 91.6815L180.282 91.6962Z" fill="#1D1D1D"/>
</g>
<defs>
<linearGradient id="paint0_linear_372_7370" x1="15.4285" y1="90.0372" x2="166.029" y2="90.0372" gradientUnits="userSpaceOnUse">
<stop offset="1" stop-color="#00C27C"/>
</linearGradient>
<linearGradient id="paint1_linear_372_7370" x1="15.4285" y1="90.0372" x2="166.029" y2="90.0372" gradientUnits="userSpaceOnUse">
<stop offset="0.705" stop-color="#65B0FA"/>
</linearGradient>
<clipPath id="clip0_372_7370">
<rect width="180" height="100" fill="white"/>
</clipPath>
</defs>
</svg>
