<?xml version="1.0" encoding="UTF-8"?>
<svg width="20px" height="14px" viewBox="0 0 20 14" version="1.1" xmlns="http://www.w3.org/2000/svg" xmlns:xlink="http://www.w3.org/1999/xlink">
    <!-- Generator: Sketch 52.2 (67145) - http://www.bohemiancoding.com/sketch -->
    <title>Group 23</title>
    <desc>Created with Sketch.</desc>
    <g id="通知栏" stroke="none" stroke-width="1" fill="none" fill-rule="evenodd">
        <g id="弱通知" transform="translate(-1167.000000, -202.000000)" fill="currentColor" fill-rule="nonzero">
            <g id="Group-21" transform="translate(1144.000000, 177.000000)">
                <g id="Group-23" transform="translate(23.000000, 25.000000)">
                    <g id="喇叭-(1)" transform="translate(13.000000, 1.000000)">
                        <path d="M3.78970917,10.9474553 C3.48322148,10.6459422 3.48322148,10.1551582 3.78970917,9.85364512 C4.8344519,8.8258597 5.40939597,7.45914718 5.40939597,6.00440165 C5.40939597,4.54965612 4.8344519,3.1829436 3.78970917,2.15515818 C3.48322148,1.85364512 3.48322148,1.36286107 3.78970917,1.06134801 C4.09619687,0.759834938 4.5950783,0.759834938 4.901566,1.06134801 C6.24384787,2.38184319 6.98210291,4.13590096 6.98210291,6.00440165 C6.98210291,7.87290234 6.24384787,9.62696011 4.901566,10.9474553 C4.74944072,11.0993122 4.54809843,11.1741403 4.34675615,11.1741403 C4.14541387,11.1741403 3.94407159,11.0993122 3.78970917,10.9474553 Z" id="Shape"></path>
                        <path d="M1.69574944,9.38707015 C1.49440716,9.38707015 1.29306488,9.31224209 1.13870246,9.16038514 C0.832214765,8.85887208 0.832214765,8.36808803 1.13870246,8.06657497 C2.29530201,6.92874828 2.29530201,5.0778542 1.13870246,3.94002751 C0.832214765,3.63851444 0.832214765,3.1477304 1.13870246,2.84621733 C1.44519016,2.54470426 1.94407159,2.54470426 2.25055928,2.84621733 C4.02013423,4.58707015 4.02013423,7.41953232 2.25055928,9.16038514 C2.098434,9.31224209 1.89709172,9.38707015 1.69574944,9.38707015 Z" id="Shape"></path>
                    </g>
                    <path d="M5.90909091,2.83493392 L11.2603573,0.140650051 C11.852304,-0.15738638 12.5737778,0.0808749365 12.8718142,0.672821595 C12.9560988,0.840223831 13,1.02504125 13,1.21246429 L13,12.7877964 C13,13.4505381 12.4627417,13.9877964 11.8,13.9877964 C11.612577,13.9877964 11.4277595,13.9438952 11.2603573,13.8596106 L5.90909091,11.1653268 L1.2,11.1653268 C0.5372583,11.1653268 3.03207055e-16,10.6280685 2.22044605e-16,9.96532677 L0,4.03493392 C-8.11624501e-17,3.37219222 0.5372583,2.83493392 1.2,2.83493392 L5.90909091,2.83493392 Z" id="Combined-Shape"></path>
                </g>
            </g>
        </g>
    </g>
</svg>
