<!-- Generated by IcoMoon.io -->
<svg version="1.1" xmlns="http://www.w3.org/2000/svg" width="32" height="32" viewBox="0 0 32 32">
<title>monetization</title>
<path d="M16 2.667c-7.36 0-13.333 5.973-13.333 13.333s5.973 13.333 13.333 13.333c7.36 0 13.333-5.973 13.333-13.333s-5.973-13.333-13.333-13.333zM17.88 24.12v2.547h-3.56v-2.573c-2.28-0.48-4.213-1.947-4.36-4.533h2.613c0.133 1.4 1.093 2.493 3.533 2.493 2.613 0 3.2-1.307 3.2-2.12 0-1.107-0.587-2.147-3.56-2.853-3.307-0.8-5.573-2.16-5.573-4.893 0-2.293 1.853-3.787 4.147-4.28v-2.573h3.56v2.6c2.48 0.6 3.72 2.48 3.8 4.52h-2.613c-0.067-1.48-0.853-2.493-2.96-2.493-2 0-3.2 0.907-3.2 2.187 0 1.12 0.867 1.853 3.56 2.547s5.573 1.853 5.573 5.213c-0.013 2.44-1.84 3.773-4.16 4.213z"></path>
</svg>
