<svg width="16" height="16" viewBox="0 0 16 16" fill="none" xmlns="http://www.w3.org/2000/svg">
<path fill-rule="evenodd" clip-rule="evenodd" d="M8.00001 9.39282L13.4148 14.8052C13.7988 15.1889 14.4211 15.1889 14.805 14.805C15.1889 14.4211 15.1889 13.7988 14.8052 13.4148L9.39282 8.00001L14.8052 2.58516C15.1889 2.20121 15.1889 1.57886 14.805 1.195C14.4211 0.811137 13.7988 0.811066 13.4148 1.19484L8.00001 6.6072L2.58516 1.19484C2.20121 0.811065 1.57886 0.811136 1.195 1.195C0.811136 1.57886 0.811064 2.20121 1.19484 2.58516L6.6072 8.00001L1.19484 13.4148C0.811066 13.7988 0.811137 14.4211 1.195 14.805C1.57886 15.1889 2.20121 15.1889 2.58516 14.8052L8.00001 9.39282Z" fill="#737E8D"/>
</svg>
