<svg width="12" height="12" viewBox="0 0 12 12" fill="none" xmlns="http://www.w3.org/2000/svg">
<path fill-rule="evenodd" clip-rule="evenodd" d="M2.7001 1.64922C2.50048 1.64922 2.3001 1.81125 2.3001 2.09922V3.24922C2.3001 3.28463 2.31737 3.38539 2.37885 3.52254C2.43801 3.6545 2.51289 3.76348 2.57436 3.82495L2.5851 3.83597L4.4851 5.83597C4.49681 5.8483 4.50799 5.86112 4.51862 5.8744C4.66152 6.05303 4.78922 6.28147 4.88218 6.51388C4.97386 6.74307 5.0501 7.02174 5.0501 7.29922V9.94922C5.0501 10.1038 5.13092 10.2244 5.26258 10.2942C5.39863 10.3664 5.55621 10.3659 5.68172 10.2906L6.37564 9.84451L6.3914 9.83472C6.39039 9.83533 6.3899 9.83565 6.38989 9.83564C6.38984 9.83557 6.40072 9.82785 6.41913 9.80623C6.44043 9.78123 6.46432 9.74634 6.48652 9.70366C6.53528 9.60988 6.5501 9.52987 6.5501 9.49922V7.34922C6.5501 7.05694 6.62125 6.75235 6.73525 6.48364C6.84698 6.22028 7.01886 5.94693 7.25848 5.74459L9.38624 3.86424C9.44843 3.79839 9.53035 3.68019 9.59763 3.53219C9.66946 3.37416 9.7001 3.236 9.7001 3.14922V2.04922C9.7001 1.83059 9.51873 1.64922 9.3001 1.64922H2.7001ZM1.1001 2.09922C1.1001 1.18718 1.79972 0.449219 2.7001 0.449219H9.3001C10.1815 0.449219 10.9001 1.16785 10.9001 2.04922V3.14922C10.9001 3.46243 10.8057 3.77428 10.6901 4.02875C10.5737 4.28484 10.4111 4.53672 10.2244 4.72348C10.2156 4.7322 10.2067 4.74065 10.1974 4.74882L8.04742 6.64882L8.03421 6.66015C7.97775 6.7072 7.90205 6.8059 7.83995 6.9523C7.77895 7.09608 7.7501 7.2415 7.7501 7.34922V9.49922C7.7501 9.76856 7.66491 10.0386 7.55118 10.2573C7.44075 10.4696 7.26541 10.7064 7.01819 10.858L6.31462 11.3103C5.29539 11.9375 3.8501 11.254 3.8501 9.94922V7.29922C3.8501 7.2267 3.82634 7.10537 3.76801 6.95955C3.71529 6.82775 3.64953 6.71393 3.59479 6.64109L1.71981 4.66743C1.53411 4.47981 1.38608 4.24147 1.28384 4.0134C1.18282 3.78805 1.1001 3.51381 1.1001 3.24922V2.09922Z" fill="#8C8C8C"/>
</svg>
