<svg width="9" height="9" viewBox="0 0 9 9" fill="none" xmlns="http://www.w3.org/2000/svg">
<g clip-path="url(#clip0_443_2935)">
<path fill-rule="evenodd" clip-rule="evenodd" d="M0.833984 4.50016C0.833984 2.47507 2.47556 0.833496 4.50065 0.833496C6.52575 0.833496 8.16732 2.47507 8.16732 4.50016C8.16732 6.52526 6.52575 8.16683 4.50065 8.16683C2.47556 8.16683 0.833984 6.52526 0.833984 4.50016ZM3.79365 3.32143C3.66347 3.19125 3.45242 3.19125 3.32224 3.32143C3.19207 3.4516 3.19207 3.66266 3.32224 3.79283L4.02937 4.49996L3.32224 5.20709C3.19207 5.33727 3.19207 5.54832 3.32224 5.6785C3.45242 5.80867 3.66347 5.80867 3.79365 5.6785L4.50078 4.97137L5.20791 5.6785C5.33808 5.80867 5.54914 5.80867 5.67931 5.6785C5.80949 5.54832 5.80949 5.33727 5.67931 5.20709L4.97218 4.49996L5.67931 3.79283C5.80949 3.66266 5.80949 3.4516 5.67931 3.32143C5.54914 3.19125 5.33808 3.19125 5.20791 3.32143L4.50078 4.02856L3.79365 3.32143Z" fill="#8C8C8C" fill-opacity="0.6"/>
</g>
<defs>
<clipPath id="clip0_443_2935">
<rect width="8" height="8" fill="white" transform="translate(0.5 0.5)"/>
</clipPath>
</defs>
</svg>
