<svg width="56" height="56" viewBox="0 0 56 56" fill="none" xmlns="http://www.w3.org/2000/svg">
<rect x="0.5" y="0.5" width="55" height="55" rx="11.5" fill="white"/>
<path fill-rule="evenodd" clip-rule="evenodd" d="M19.3555 36.2774L19.823 35.3977C21.3176 32.8919 24.1014 31.3379 27.5979 31.0987V35.4034C27.5979 35.534 27.6353 35.6618 27.7057 35.7718C27.7762 35.8818 27.8766 35.9693 27.9953 36.024C28.1139 36.0786 28.2457 36.0981 28.375 36.0801C28.5044 36.0622 28.626 36.0074 28.7252 35.9225L37.6922 28.2475C37.7671 28.1834 37.8272 28.1038 37.8684 28.0142C37.9097 27.9246 37.931 27.8272 37.931 27.7286C37.931 27.63 37.9097 27.5326 37.8684 27.443C37.8272 27.3535 37.7671 27.2739 37.6922 27.2097L28.7252 19.524C28.6259 19.4391 28.5044 19.3844 28.375 19.3665C28.2457 19.3485 28.1139 19.368 27.9953 19.4226C27.8766 19.4773 27.7762 19.5648 27.7057 19.6748C27.6353 19.7848 27.5979 19.9126 27.5979 20.0432V24.4197C22.2933 24.8435 18.1405 29.2737 18.069 34.6827V35.957C18.069 36.1095 18.1201 36.2575 18.2139 36.3776C18.3078 36.4976 18.4391 36.5829 18.5871 36.6197C18.735 36.6566 18.8909 36.6429 19.0302 36.5809C19.1694 36.5188 19.2839 36.412 19.3555 36.2774ZM29.4749 32.8641V29.1788H28.536C25.5966 29.059 22.7285 30.0287 20.462 31.8719C21.6944 28.532 24.8884 26.2414 28.528 26.2674H29.4749V22.4967L35.4476 27.6852L29.4749 32.8641Z" fill="#01BC8D"/>
<rect x="0.5" y="0.5" width="55" height="55" rx="11.5" stroke="#01BC8D"/>
</svg>
