<svg width="71" height="66" viewBox="0 0 71 66" fill="none" xmlns="http://www.w3.org/2000/svg">
<g opacity="0.06">
<path fill-rule="evenodd" clip-rule="evenodd" d="M14 -4C10.134 -4 7 -0.865993 7 3L7 45C7 48.866 10.134 52 14 52H70C73.866 52 77 48.866 77 45V3C77 -0.865993 73.866 -4 70 -4L14 -4ZM29.75 13.5C26.8505 13.5 24.5 15.8505 24.5 18.75C24.5 21.6495 26.8505 24 29.75 24C32.6495 24 35 21.6495 35 18.75C35 15.8505 32.6495 13.5 29.75 13.5ZM49 18.75C49 15.8505 51.3505 13.5 54.25 13.5C57.1495 13.5 59.5 15.8505 59.5 18.75C59.5 21.6495 57.1495 24 54.25 24C51.3505 24 49 21.6495 49 18.75ZM51.511 26.5521C46.2356 31.8275 37.6824 31.8275 32.4069 26.5521L27.9983 30.9607C35.7086 38.671 48.2094 38.671 55.9197 30.9607L51.511 26.5521Z" fill="#7A78E4"/>
<rect y="10" width="7" height="21" fill="#7A78E4"/>
</g>
</svg>
