<svg width="32" height="32" viewBox="0 0 32 32" fill="none" xmlns="http://www.w3.org/2000/svg">
<rect width="32" height="32" rx="16" fill="#1D1D1D" fill-opacity="0.02"/>
<rect x="0.5" y="0.5" width="31" height="31" rx="15.5" stroke="#1D1D1D" stroke-opacity="0.08"/>
<path fill-rule="evenodd" clip-rule="evenodd" d="M13.4781 16.5168L17.9267 20.9653L20.7347 18.1578C21.2368 17.7058 22.005 17.7259 22.4828 18.2036C22.9605 18.6813 22.9806 19.4493 22.5285 19.9513L18.8229 23.6569C18.3252 24.1464 17.5269 24.1464 17.0291 23.6569L11.6829 18.3103V21.4882C11.6829 22.1896 11.1142 22.7581 10.4127 22.7581C9.71125 22.7581 9.14258 22.1896 9.14258 21.4882V11.5413C9.14258 10.8399 9.71125 10.2714 10.4127 10.2714C11.1142 10.2714 11.6829 10.8399 11.6829 11.5413V14.7192L17.0284 9.37394C17.526 8.88414 18.3247 8.88414 18.8223 9.37394L22.5306 13.0789C22.9827 13.5809 22.9626 14.3489 22.4848 14.8266C22.0071 15.3042 21.2389 15.3244 20.7368 14.8723L17.9288 12.0648L13.4781 16.5168ZM17.9288 15.2455C17.4144 15.2452 16.9506 15.5548 16.7536 16.0298C16.5565 16.5049 16.6651 17.0518 17.0288 17.4155C17.3924 17.7792 17.9393 17.8881 18.4145 17.6914C18.8898 17.4947 19.1996 17.0311 19.1996 16.5168C19.1998 16.1796 19.066 15.8562 18.8277 15.6177C18.5894 15.3791 18.266 15.245 17.9288 15.2448V15.2455Z" fill="#1D1D1D" fill-opacity="0.08"/>
</svg>
