<svg width="24" height="25" viewBox="0 0 24 25" fill="none" xmlns="http://www.w3.org/2000/svg">
<path fill-rule="evenodd" clip-rule="evenodd" d="M6 5.62441H16.5C16.9971 5.62441 17.4 6.02736 17.4 6.52441V14.7808H18.75V6.52441C18.75 5.28177 17.7426 4.27441 16.5 4.27441H6C4.75736 4.27441 3.75 5.28177 3.75 6.52441V18.5244C3.75 19.7671 4.75736 20.7744 6 20.7744H9V19.4244H6C5.50294 19.4244 5.1 19.0215 5.1 18.5244V6.52441C5.1 6.02736 5.50294 5.62441 6 5.62441Z" fill="#000D1D"/>
<rect opacity="0.2" x="6.75" y="7.28125" width="9" height="7.5" fill="#01BC8D"/>
<rect x="8.25" y="8.78125" width="6" height="1.2" fill="#01BC8D"/>
<rect x="8.25" y="11.3779" width="3.75" height="1.2" fill="#01BC8D"/>
<path d="M10.501 20.6959H11.5887V15.6166H10.8799L9.51709 16.2569L9.8532 17.2172L10.501 16.9184V20.6959Z" fill="#01BC8D"/>
<path d="M12.8112 18.7396C12.8112 19.4652 12.8845 19.8565 13.0678 20.1766C13.3184 20.6034 13.6667 20.7812 14.2595 20.7812C14.8156 20.7812 15.1395 20.6319 15.3961 20.2619C15.6223 19.9347 15.7078 19.5221 15.7078 18.7396V17.5729C15.7078 16.8473 15.6345 16.456 15.4511 16.1359C15.2006 15.7091 14.8523 15.5312 14.2595 15.5312C13.7034 15.5312 13.3795 15.6806 13.1228 16.0506C12.8967 16.3778 12.8112 16.7904 12.8112 17.5729V18.7396ZM14.6384 18.64C14.6384 19.5292 14.5589 19.764 14.2595 19.764C13.9601 19.764 13.8806 19.5292 13.8806 18.64V17.6725C13.8806 16.7833 13.9601 16.5485 14.2595 16.5485C14.5589 16.5485 14.6384 16.7833 14.6384 17.6725V18.64Z" fill="#01BC8D"/>
<path d="M18.1821 17.9926L16.8621 20.6959H17.9988L18.7382 19.0668L19.5754 20.6959H20.7671L19.4532 18.1563L20.6876 15.6166H19.551L18.8971 17.0821L18.1393 15.6166H16.9538L18.1821 17.9926Z" fill="#01BC8D"/>
</svg>
