<svg width="37" height="37" viewBox="0 0 37 37" fill="none" xmlns="http://www.w3.org/2000/svg">
<circle cx="18.5" cy="18.5" r="17.5" fill="#F8B200" stroke="white" stroke-width="2"/>
<path d="M12.7031 19.9453H9.80469V18.1172H12.7031C13.151 18.1172 13.5156 18.0443 13.7969 17.8984C14.0781 17.7474 14.2839 17.5391 14.4141 17.2734C14.5443 17.0078 14.6094 16.7083 14.6094 16.375C14.6094 16.0365 14.5443 15.7214 14.4141 15.4297C14.2839 15.138 14.0781 14.9036 13.7969 14.7266C13.5156 14.5495 13.151 14.4609 12.7031 14.4609H10.6172V24H8.27344V12.625H12.7031C13.5938 12.625 14.3568 12.7865 14.9922 13.1094C15.6328 13.4271 16.1224 13.8672 16.4609 14.4297C16.7995 14.9922 16.9688 15.6354 16.9688 16.3594C16.9688 17.0938 16.7995 17.7292 16.4609 18.2656C16.1224 18.8021 15.6328 19.2161 14.9922 19.5078C14.3568 19.7995 13.5938 19.9453 12.7031 19.9453ZM20.9297 12.625V24H18.5859V12.625H20.9297ZM27.7422 12.625L23.2344 18.2422L20.6328 21.0391L20.2109 18.8203L21.9688 16.4141L24.8672 12.625H27.7422ZM25.0781 24L21.7266 18.7422L23.4609 17.2891L27.8516 24H25.0781Z" fill="white"/>
</svg>
