<svg width="24" height="24" viewBox="0 0 24 24" fill="none" xmlns="http://www.w3.org/2000/svg">
<path fill-rule="evenodd" clip-rule="evenodd" d="M10.6062 3.0283C11.3271 3.1785 11.7898 3.88474 11.6396 4.60572L11.3947 5.78125H15.3364L15.6946 4.06178C15.8448 3.3408 16.551 2.87809 17.272 3.0283C17.993 3.1785 18.4557 3.88474 18.3055 4.60572L18.0606 5.78125H18.6664C19.4029 5.78125 19.9999 6.37827 19.9999 7.11473C19.9999 7.85119 19.4029 8.44821 18.6664 8.44821H17.505L16.5567 13H17.5535C18.29 13 18.887 13.597 18.887 14.3335C18.887 15.0699 18.29 15.667 17.5535 15.667H16.0011L15.5274 17.9405C15.3772 18.6615 14.671 19.1242 13.95 18.974C13.229 18.8238 12.7663 18.1175 12.9165 17.3966L14.7808 8.44821H10.8391L9.89082 13H10.8896C11.6261 13 12.2231 13.597 12.2231 14.3335C12.2231 15.0699 11.6261 15.667 10.8896 15.667H9.33521L8.86155 17.9405C8.71135 18.6615 8.00511 19.1242 7.28413 18.974C6.56315 18.8238 6.10045 18.1175 6.25065 17.3966L6.61099 15.667H5.33348C4.59702 15.667 4 15.0699 4 14.3335C4 13.597 4.59702 13 5.33348 13H7.1666L8.11489 8.44821H6.44285C5.70639 8.44821 5.10938 7.85119 5.10938 7.11473C5.10938 6.37827 5.70639 5.78125 6.44285 5.78125H8.67051L9.02873 4.06178C9.17894 3.3408 9.88517 2.87809 10.6062 3.0283Z" fill="url(#paint0_linear_8253_18016)"/>
<path d="M20.1982 6.19434V19H17.4473V9.32324L14.4766 10.2285V8.10156L19.9258 6.19434H20.1982Z" fill="#F95A50"/>
<defs>
<linearGradient id="paint0_linear_8253_18016" x1="4.33699" y1="19.6424" x2="16.9015" y2="0.789797" gradientUnits="userSpaceOnUse">
<stop stop-color="#FF3C34" stop-opacity="0.3"/>
<stop offset="1" stop-color="#FF3C34" stop-opacity="0"/>
</linearGradient>
</defs>
</svg>
