<svg width="24" height="24" viewBox="0 0 24 24" fill="none" xmlns="http://www.w3.org/2000/svg">
<path fill-rule="evenodd" clip-rule="evenodd" d="M10.6062 3.0283C11.3271 3.1785 11.7898 3.88474 11.6396 4.60572L11.3947 5.78125H15.3364L15.6946 4.06178C15.8448 3.3408 16.551 2.87809 17.272 3.0283C17.993 3.1785 18.4557 3.88474 18.3055 4.60572L18.0606 5.78125H18.6664C19.4029 5.78125 19.9999 6.37827 19.9999 7.11473C19.9999 7.85119 19.4029 8.44821 18.6664 8.44821H17.505L16.5567 13H17.5535C18.29 13 18.887 13.597 18.887 14.3335C18.887 15.0699 18.29 15.667 17.5535 15.667H16.0011L15.5274 17.9405C15.3772 18.6615 14.671 19.1242 13.95 18.974C13.229 18.8238 12.7663 18.1175 12.9165 17.3966L14.7808 8.44821H10.8391L9.89082 13H10.8896C11.6261 13 12.2231 13.597 12.2231 14.3335C12.2231 15.0699 11.6261 15.667 10.8896 15.667H9.33521L8.86155 17.9405C8.71135 18.6615 8.00511 19.1242 7.28413 18.974C6.56315 18.8238 6.10045 18.1175 6.25065 17.3966L6.61099 15.667H5.33348C4.59702 15.667 4 15.0699 4 14.3335C4 13.597 4.59702 13 5.33348 13H7.1666L8.11489 8.44821H6.44285C5.70639 8.44821 5.10938 7.85119 5.10938 7.11473C5.10938 6.37827 5.70639 5.78125 6.44285 5.78125H8.67051L9.02873 4.06178C9.17894 3.3408 9.88517 2.87809 10.6062 3.0283Z" fill="url(#paint0_linear_8253_18000)"/>
<path d="M16.4805 11.4326H17.8779C18.2764 11.4326 18.6045 11.3623 18.8623 11.2217C19.126 11.0811 19.3193 10.8818 19.4424 10.624C19.5713 10.3662 19.6357 10.0645 19.6357 9.71875C19.6357 9.41992 19.5771 9.15332 19.46 8.91895C19.3428 8.68457 19.1641 8.5 18.9238 8.36523C18.6895 8.22461 18.3848 8.1543 18.0098 8.1543C17.7402 8.1543 17.4824 8.20996 17.2363 8.32129C16.9961 8.42676 16.7998 8.58203 16.6475 8.78711C16.4951 8.98633 16.4189 9.22656 16.4189 9.50781H13.668C13.668 8.79297 13.8613 8.1748 14.248 7.65332C14.6406 7.13184 15.1592 6.73047 15.8037 6.44922C16.4541 6.16211 17.1631 6.01855 17.9307 6.01855C18.8154 6.01855 19.5918 6.15918 20.2598 6.44043C20.9336 6.71582 21.4551 7.12598 21.8242 7.6709C22.1992 8.20996 22.3867 8.87793 22.3867 9.6748C22.3867 10.0908 22.2871 10.4922 22.0879 10.8789C21.8945 11.2598 21.6162 11.5996 21.2529 11.8984C20.8955 12.1914 20.4678 12.4258 19.9697 12.6016C19.4775 12.7715 18.9297 12.8564 18.3262 12.8564H16.4805V11.4326ZM16.4805 13.498V12.1006H18.3262C18.9941 12.1006 19.5918 12.1768 20.1191 12.3291C20.6465 12.4814 21.0947 12.7012 21.4639 12.9883C21.833 13.2754 22.1143 13.624 22.3076 14.0342C22.501 14.4443 22.5977 14.9014 22.5977 15.4053C22.5977 16.0029 22.4805 16.5361 22.2461 17.0049C22.0117 17.4736 21.6836 17.8691 21.2617 18.1914C20.8398 18.5137 20.3447 18.7598 19.7764 18.9297C19.208 19.0938 18.5928 19.1758 17.9307 19.1758C17.3975 19.1758 16.8672 19.1025 16.3398 18.9561C15.8125 18.8096 15.335 18.5869 14.9072 18.2881C14.4795 17.9834 14.1367 17.5996 13.8789 17.1367C13.6211 16.668 13.4922 16.1113 13.4922 15.4668H16.2432C16.2432 15.7656 16.3193 16.0352 16.4717 16.2754C16.6299 16.5098 16.8438 16.6973 17.1133 16.8379C17.3887 16.9727 17.6875 17.04 18.0098 17.04C18.3965 17.04 18.7246 16.9697 18.9941 16.8291C19.2695 16.6826 19.4775 16.4834 19.6182 16.2314C19.7646 15.9795 19.8379 15.6895 19.8379 15.3613C19.8379 14.916 19.7588 14.5586 19.6006 14.2891C19.4482 14.0137 19.2256 13.8145 18.9326 13.6914C18.6396 13.5625 18.2881 13.498 17.8779 13.498H16.4805Z" fill="#FFB72D"/>
<defs>
<linearGradient id="paint0_linear_8253_18000" x1="15.4578" y1="1.76906" x2="4.47741" y2="19.3181" gradientUnits="userSpaceOnUse">
<stop stop-color="#FFB72D" stop-opacity="0"/>
<stop offset="1" stop-color="#FFB72D" stop-opacity="0.3"/>
</linearGradient>
</defs>
</svg>
