<svg height="79" viewBox="0 0 344 79" width="344" xmlns="http://www.w3.org/2000/svg" xmlns:xlink="http://www.w3.org/1999/xlink"><mask id="a" fill="#fff"><path d="m0 .843h50.0993v59.9998h-50.0993z" fill="#fff" fill-rule="evenodd"/></mask><g fill="none" fill-rule="evenodd" transform="translate(1 1)"><path d="m89.9268081 25.3849597 7.716735-25.3849597h-75.3297733l-22.3137698 77.3849597h54.9774312l4.5562527-4.5946886 3.0066831 4.5946886h269l10.439697-52z" fill="#58ccb6" fill-opacity=".10973" stroke="#58ccb6" stroke-opacity=".240958"/><g transform="translate(11.540367 7.38496)"><path d="m22.2918 22.6521 8.56-9.511h-16.02l.955-4.838h25.918l-12.913 14.349zm-17.245 29.128 3.39-3.766 1.421.369c3.559.924 7.71.624 11.605-.599 3.94-1.237 7.555-3.401 9.973-6.183.968-1.114 1.642-2.233 2.008-3.302.326-.948.399-1.848.209-2.647-.074-.311-.192-.614-.352-.904h5.105c.345 1.631.209 3.36-.388 5.101-.566 1.653-1.552 3.317-2.934 4.908-3.021 3.476-7.434 6.147-12.185 7.639-5.902 1.853-12.16 1.868-17.852-.616z" fill="#d8b35c"/><g fill="#58ccb6"><path d="m32.7781 29.5774c-.007.193-.025.386-.054.577-.023.125-.062.247-.115.362-.048.092-.107.177-.178.254-.104.124-.236.221-.384.285-.168.072-.349.109-.531.107-.185.002-.369-.035-.539-.107-.152-.061-.287-.16-.392-.285-.071-.077-.13-.162-.178-.254-.05-.116-.086-.237-.107-.362-.029-.191-.047-.384-.054-.577-.008-.231-.015-.523-.015-.877s.007-.647.015-.878c.007-.193.025-.386.054-.577.021-.125.057-.246.107-.361.048-.093.107-.178.178-.255.105-.125.24-.223.392-.284.17-.073.354-.11.539-.108.182-.002.363.035.531.108.148.063.28.161.384.284.071.077.13.162.178.255.053.115.092.236.115.361.029.191.047.384.054.577.015.231.023.524.023.878s-.008.646-.023.877m1.37-2.547c-.04-.235-.113-.463-.216-.678-.109-.22-.255-.421-.431-.592-.247-.256-.542-.46-.869-.6-.354-.144-.734-.214-1.116-.208-.385-.006-.767.064-1.124.208-.328.142-.626.345-.877.6-.174.172-.317.372-.424.592-.102.215-.175.443-.215.678-.046.256-.072.516-.077.776-.008.278-.008.578-.008.894 0 .315 0 .615.008.893.005.26.031.52.077.776.04.235.113.463.215.678.107.22.25.42.424.593.251.254.549.458.877.6.357.143.739.213 1.124.208.382.005.762-.065 1.116-.208.327-.141.622-.345.869-.6.176-.172.322-.373.431-.593.103-.215.176-.443.216-.678.046-.256.071-.516.077-.776.008-.278.015-.578.015-.893 0-.316-.007-.616-.015-.894-.005-.26-.031-.52-.077-.776"/><path d="m45.5921 25.0139c-.003 0-.005 0-.008 0h-1.193c-.069.004-.123.061-.123.13v4.387l-2.894-4.479c-.018-.028-.051-.043-.084-.038h-1.101c-.068 0-.123.055-.123.123v7.127c0 .067.055.123.123.123h1.185c.07 0 .127-.055.131-.123v-4.403l2.894 4.487c.018.029.051.044.085.039h1.1c.068 0 .123-.056.123-.123v-7.12c.004-.068-.047-.126-.115-.13"/><path d="m37.6184 25.0134h-1.185c-.069.004-.123.062-.123.131v7.111c0 .07.054.127.123.131h1.185c.073 0 .131-.059.131-.131v-7.111c0-.072-.058-.131-.131-.131"/><path d="m23.6121 27.2454c.107-.639.592-1.008 1.216-1.008.4 0 .769.154 1 .492.112.158.191.335.231.524.008.015.015.031.039.031h1.401c.023 0 .03-.016.023-.039-.155-.862-.616-1.639-1.424-2.024-.403-.183-.842-.275-1.285-.269-.745-.017-1.464.276-1.986.808-.308.3-.517.686-.6 1.108-.077.416-.124 1.023-.124 1.832 0 .808.047 1.416.124 1.831.083.422.292.808.6 1.109.522.531 1.241.824 1.986.808.443.005.882-.087 1.285-.27.808-.385 1.269-1.162 1.424-2.024.007-.023 0-.038-.023-.038h-1.401c-.024 0-.031.015-.039.03-.04.189-.119.367-.231.524-.231.339-.6.492-1 .492-.624 0-1.109-.369-1.216-1.008-.03-.188-.048-.379-.054-.569-.015-.239-.015-.531-.015-.885s0-.647.015-.885c.006-.191.024-.382.054-.57"/><path d="m10.6985 27.9456 2.347-2.816c.046-.062.031-.116-.046-.116h-1.578c-.018-.001-.036.008-.046.023l-2.586 3.101v-3.001c0-.068-.055-.123-.123-.123h-1.185c-.07 0-.127.054-.131.123v7.127c.004.069.061.123.131.123h1.185c.068 0 .123-.055.123-.123v-2.094l.954-1.139 1.955 3.317c.016.024.042.038.069.039h1.447c.062 0 .077-.046.039-.1z"/><path d="m20.0179 25.0134h-1.185c-.068 0-.123.055-.123.124v4.671c0 .739-.608 1.354-1.277 1.354-.663 0-1.27-.615-1.27-1.354v-4.671c0-.069-.056-.124-.124-.124h-1.192c-.068 0-.123.055-.123.124v4.655c0 1.624 1.215 2.656 2.709 2.656 1.492 0 2.716-1.032 2.716-2.656v-4.655c-.004-.07-.062-.124-.131-.124"/></g><path d="m45.7073 34.5908c.307 2.807-.127 5.747-1.313 8.619-.874 2.113-2.152 4.183-3.84 6.125-4.122 4.743-10.132 8.306-16.579 10.129-3.118.881-6.415 1.379-9.703 1.379-3.512 0-7.014-.569-10.273-1.849-1.353-.531-2.672-1.17-4-1.762l3.203-3.558c3.686 1.517 7.476 2.293 11.322 2.293 2.694 0 5.414-.38 8.147-1.153 5.58-1.577 10.743-4.616 14.236-8.636 1.344-1.546 2.351-3.169 3.026-4.801.948-2.294 1.247-4.619.906-6.786zm4.392-33.748-2.01 10.175-10.329 11.477h-6.5l12.344-13.716.613-3.098h-27.943l.956-4.838z" fill="#24ae8f" mask="url(#a)" transform="translate(0 .157)"/><path d="m68.5774 9.4236c0 .172-.015.367-.038.585-.027.222-.062.448-.1.681-.038.23-.076.451-.114.662-.107.547-.226 1.04-.36 1.48-.138.44-.302.815-.497 1.129-.199.314-.444.55-.735.719-.29.168-.65.252-1.071.252-.306-.004-.554-.057-.746-.156-.187-.104-.333-.238-.432-.402-.095-.165-.164-.345-.195-.536-.034-.191-.054-.378-.05-.558 0-.172.016-.368.038-.585.027-.222.058-.448.1-.682.038-.229.076-.451.115-.661.107-.547.225-1.041.359-1.477.138-.436.303-.811.497-1.12.199-.31.444-.548.735-.712s.65-.249 1.071-.249c.306.004.555.054.746.153.188.1.333.234.428.394.1.165.165.337.199.528.035.187.054.375.05.555zm4.66-8.423h-2.847l-1.101 5.531c-.203-.306-.444-.551-.727-.742-.283-.188-.597-.325-.934-.413-.336-.088-.684-.13-1.048-.13-.359-.004-.715.03-1.059.099-.348.069-.689.187-1.018.36-.329.172-.646.409-.952.711-.303.302-.57.685-.796 1.14-.226.459-.428.998-.604 1.626-.18.631-.348 1.35-.505 2.169-.108.528-.192 1.025-.26 1.492-.069.466-.104.895-.108 1.285-.003.382.047.773.15 1.163s.279.75.524 1.079c.241.332.573.596.99.799.421.199.946.302 1.573.3101154.566.0038846 1.098-.0961154 1.599-.2991154.505-.202.956-.531 1.361-.986l-.252 1.147h2.754z" fill="#58ccb6"/><path d="m61.0174 6.3709c-.314-.379-.677-.662-1.083-.845-.409-.188-.895-.28-1.465-.28-.417 0-.811.054-1.19.161-.375.107-.719.256-1.033.451-.313.196-.581.429-.807.697l.253-1.171h-2.755l-2.386 11.958h2.846l1.446-7.23c.095-.463.26-.865.497-1.209.237-.34.52-.608.849-.799.329-.188.685-.283 1.064-.287.244.004.451.05.619.134s.31.183.421.298c.111.111.199.214.268.302z" fill="#58ccb6"/></g><path d="m74.220367 65.7049597 4.84-22.68h24.92l.56-3.8h-11.36l.32-2.28h-9.12l1.28 1.52-.12.76h-14.04l1.24 1.4-5.36 25.08zm18.84-.04.48-3.68h7.8l.48-3.6h-7.76l.32-2.24h6.84l.48-3.28h-6.88l.4-2.8h-7l-.4 2.8h-2.12l2.64-4h13.84l.44-3.32h-12.08l1.04-1.56h-7.36l-1.04 1.56h-3.76l-.44 3.32h2.04l-2.6 4-.48 3.28h9.44l-.32 2.24h-9.48l-.48 3.6h9.44l-.48 3.68zm31.28.04 2.32-16.56h4.56l-1.64 11.52-1.76 2.08h5.6c.773333 0 1.46-.26 2.06-.78s.953333-1.1666666 1.06-1.94l2.08-14.72h-11.4l.52-3.68 11.4-.28.56-3.96-30.64.76-.56 3.96 11.6-.28-.48 3.48h-12.84l1.2 1.56-2.24 15.84h6.8l1.92-13.56h4.6l-2.32 16.56zm52.04-23.6.56-4.08h-29.48l-.56 4.08zm-2.76 10.56.56-4.08h-27.32l-.56 4.08zm.56 12.16.56-4.08h-32.04l-.56 4.08zm10.68.92 4.72-24.24h17.68l-2.88 20.56-3.52 3.68h7.12c.773333 0 1.453333-.2466666 2.04-.74.586667-.4933333.933333-1.1266666 1.04-1.9l3.56-25.4h-32.68l1.24 1.44-5.16 26.6zm19.4-13.6.4-3.04h-4.16l.24-1.52h4.16l.4-3.04h-4.16l.24-1.52h-6.84l-.24 1.52h-4.2l-.4 3.04h4.2l-.24 1.52h-4.2l-.4 3.04zm-1.48 10.28 1.24-8.76h-15.2l-1.24 8.76zm-4.88-3.04h-4.56l.4-2.68h4.56zm39.56 6.36 1.16-8.28h10.68l.52-3.8h-10.64l.52-3.8h8.36l.56-3.8h-8.36l.52-3.8h9.12l.52-3.8h-21l.72-1.52h-9.12l.96 1.16-4.84 10.24h3.8l-.76 5.32h-3.8l-.52 3.8h15.16l-1.16 8.28zm-4.8-19.68h-6.84l1.8-3.8h5.56zm-1.08 7.6h-3.84l.56-3.8h3.8zm26.96 12.08 4.52-22.72h24.52l.56-3.8h-10.64l.32-2.28h-9.12l1.28 1.52-.12.76h-14.4l1.24 1.44-5 25.08zm26.56-.04-6.04-12.88h6.4l.56-4.12h-9.64l2.32-4.28h-6.96l-2.4 4.28h-5.88l-.56 4.12h4.12l-7.24 12.84h7.52l5.72-10.68 4.56 10.72zm37.88-6.84.52-3.88h-1.6l2.16-15.4h-7.96l.4-2.6h-7.16l.96.72-.28 1.88h-2.08l.4-2.6h-7.16l.96.72-.28 1.88h-8l-2.16 15.4h-1.56l-.52 3.88zm-22.16-11.96h-2.08l.52-3.6h2.08zm8.16 0h-2.08l.52-3.6h2.08zm8.12 0h-2.04l.52-3.6h2.04zm-9.24 8.08h-2.08l.56-4.12h2.08zm-8.16 0h-2.08l.6-4.12h2.04zm16.28 0h-2.04l.56-4.12h2.04zm4.6 10.72-3.6-6.16h-8.04l3.64 6.16zm-23.32 0 4.76-6.16h-7.96l-4.64 6.16z" fill="#58ccb6" fill-rule="nonzero"/></g></svg>