<svg height="75" viewBox="0 0 86 75" width="86" xmlns="http://www.w3.org/2000/svg" xmlns:xlink="http://www.w3.org/1999/xlink"><mask id="a" fill="#fff"><path d="m.38273874 3.140625c9.90084686 1.1234375 3.4492973 15.671875 15.07324326 24.1625 13.6484324 9.9671875 28.6341261-7.7632813 29.5072973-10.9789063.6562342-4.0085937-2.7946126-2.7031249-3.7336397-1.4281249-.4625405.6296875-2.2166306 4.1179687-6.6987027 4.4851562-8.7526306.715625-8.5186486-4.8375-12.7822342-11.23046875-3.1083964-4.66171875-8.0824504-7.76640625-13.27963964-7.76640625-2.71248648 0-5.4854054.84609375-8.08632432 2.75625" fill="#fff" fill-rule="evenodd"/></mask><mask id="b" fill="#fff"><path d="m.38273874 3.140625c9.90084686 1.1234375 3.4492973 15.671875 15.07324326 24.1625 13.6484324 9.9671875 28.6341261-7.7632813 29.5072973-10.9789063.6562342-4.0085937-2.7946126-2.7031249-3.7336397-1.4281249-.4625405.6296875-2.2166306 4.1179687-6.6987027 4.4851562-8.7526306.715625-8.5186486-4.8375-12.7822342-11.23046875-3.1083964-4.66171875-8.0824504-7.76640625-13.27963964-7.76640625-2.71248648 0-5.4854054.84609375-8.08632432 2.75625" fill="#fff" fill-rule="evenodd"/></mask><mask id="c" fill="#fff"><path d="m.38273874 3.140625c9.90084686 1.1234375 3.4492973 15.671875 15.07324326 24.1625 13.6484324 9.9671875 28.6341261-7.7632813 29.5072973-10.9789063.6562342-4.0085937-2.7946126-2.7031249-3.7336397-1.4281249-.4625405.6296875-2.2166306 4.1179687-6.6987027 4.4851562-8.7526306.715625-8.5186486-4.8375-12.7822342-11.23046875-3.1083964-4.66171875-8.0824504-7.76640625-13.27963964-7.76640625-2.71248648 0-5.4854054.84609375-8.08632432 2.75625" fill="#fff" fill-rule="evenodd"/></mask><mask id="d" fill="#fff"><path d="m.38273874 3.140625c9.90084686 1.1234375 3.4492973 15.671875 15.07324326 24.1625 13.6484324 9.9671875 28.6341261-7.7632813 29.5072973-10.9789063.6562342-4.0085937-2.7946126-2.7031249-3.7336397-1.4281249-.4625405.6296875-2.2166306 4.1179687-6.6987027 4.4851562-8.7526306.715625-8.5186486-4.8375-12.7822342-11.23046875-3.1083964-4.66171875-8.0824504-7.76640625-13.27963964-7.76640625-2.71248648 0-5.4854054.84609375-8.08632432 2.75625" fill="#fff" fill-rule="evenodd"/></mask><mask id="e" fill="#fff"><path d="m.38273874 3.140625c9.90084686 1.1234375 3.4492973 15.671875 15.07324326 24.1625 13.6484324 9.9671875 28.6341261-7.7632813 29.5072973-10.9789063.6562342-4.0085937-2.7946126-2.7031249-3.7336397-1.4281249-.4625405.6296875-2.2166306 4.1179687-6.6987027 4.4851562-8.7526306.715625-8.5186486-4.8375-12.7822342-11.23046875-3.1083964-4.66171875-8.0824504-7.76640625-13.27963964-7.76640625-2.71248648 0-5.4854054.84609375-8.08632432 2.75625" fill="#fff" fill-rule="evenodd"/></mask><mask id="f" fill="#fff"><path d="m.38273874 3.140625c9.90084686 1.1234375 3.4492973 15.671875 15.07324326 24.1625 13.6484324 9.9671875 28.6341261-7.7632813 29.5072973-10.9789063.6562342-4.0085937-2.7946126-2.7031249-3.7336397-1.4281249-.4625405.6296875-2.2166306 4.1179687-6.6987027 4.4851562-8.7526306.715625-8.5186486-4.8375-12.7822342-11.23046875-3.1083964-4.66171875-8.0824504-7.76640625-13.27963964-7.76640625-2.71248648 0-5.4854054.84609375-8.08632432 2.75625" fill="#fff" fill-rule="evenodd"/></mask><mask id="g" fill="#fff"><path d="m.38273874 3.140625c9.90084686 1.1234375 3.4492973 15.671875 15.07324326 24.1625 13.6484324 9.9671875 28.6341261-7.7632813 29.5072973-10.9789063.6562342-4.0085937-2.7946126-2.7031249-3.7336397-1.4281249-.4625405.6296875-2.2166306 4.1179687-6.6987027 4.4851562-8.7526306.715625-8.5186486-4.8375-12.7822342-11.23046875-3.1083964-4.66171875-8.0824504-7.76640625-13.27963964-7.76640625-2.71248648 0-5.4854054.84609375-8.08632432 2.75625" fill="#fff" fill-rule="evenodd"/></mask><mask id="h" fill="#fff"><path d="m.12628829 6.82734375c4.00558558-1.2171875 11.43954951.13046875 13.67167571 3.93750005.7275135-4.2882813-5.44201805-9.9929688-8.46828832-10.71093755z" fill="#fff" fill-rule="evenodd"/></mask><mask id="i" fill="#fff"><path d="m.12628829 6.82734375c4.00558558-1.2171875 11.43954951.13046875 13.67167571 3.93750005.7275135-4.2882813-5.44201805-9.9929688-8.46828832-10.71093755z" fill="#fff" fill-rule="evenodd"/></mask><mask id="j" fill="#fff"><path d="m.72983784 4.10390625c4.04664865 3.28046875 13.79021626 4.79140625 14.23881076 4.43984375.2851172-.22265625-5.29790986-6.53125-7.15427022-8.37578125z" fill="#fff" fill-rule="evenodd"/></mask><mask id="k" fill="#fff"><path d="m.38118919 15.3765625c-1.1241982 9.4117188 5.77904504 18.0367188 15.36843241 19.2015625 9.5886126 1.1640625 18.3265225-5.5617187 19.449946-14.971875 1.1241982-9.4109375-5.7790451-18.03671875-15.3684325-19.2015625-.7244144-.08828125-1.4465045-.13125-2.1592973-.13125-8.70846843-.00078125-16.25167564 6.40390625-17.29064861 15.103125z" fill="#fff" fill-rule="evenodd"/></mask><mask id="l" fill="#fff"><path d="m.38118919 15.3765625c-1.1241982 9.4117188 5.77904504 18.0367188 15.36843241 19.2015625 9.5886126 1.1640625 18.3265225-5.5617187 19.449946-14.971875 1.1241982-9.4109375-5.7790451-18.03671875-15.3684325-19.2015625-.7244144-.08828125-1.4465045-.13125-2.1592973-.13125-8.70846843-.00078125-16.25167564 6.40390625-17.29064861 15.103125" fill="#fff" fill-rule="evenodd"/></mask><mask id="m" fill="#fff"><path d="m.44007207 10.0984375c-.73758558 6.1734375 3.11072072 11.7476563 8.56513514 12.4101563 5.45441439.6625 10.50517119-3.83125 11.24275679-10.0039063.7368108-6.1734375-3.1107208-11.746875-8.5651352-12.409375-.3587207-.04296875-.7158919-.06484375-1.0699639-.06484375-5.03061265 0-9.48401805 4.3015625-10.17279283 10.06796875" fill="#fff" fill-rule="evenodd"/></mask><mask id="n" fill="#fff"><path d="m.44007207 10.0984375c-.73758558 6.1734375 3.11072072 11.7476563 8.56513514 12.4101563 5.45441439.6625 10.50517119-3.83125 11.24275679-10.0039063.7368108-6.1734375-3.1107208-11.746875-8.5651352-12.409375-.3587207-.04296875-.7158919-.06484375-1.0699639-.06484375-5.03061265 0-9.48401805 4.3015625-10.17279283 10.06796875" fill="#fff" fill-rule="evenodd"/></mask><mask id="o" fill="#fff"><path d="m2.98210811 21.1046875c-1.80987388 2.675-2.0701982 4.1296875-2.44131532 7.23125-.90648648 7.5921875 4.3983964 14.5625 11.84708111 15.6929688 4.1961802.6328125 8.7363603 3.4460937 9.0726126 7.7992187 1.9981441.2429688 3.5469189.43125 5.5442883.6742188 1.3535315-4.1484375 6.4252072-5.7929688 10.6508288-5.4046876 7.5005946.6890626 14.2961441-4.8148437 15.2034054-12.4054687.3703424-3.1023437.4586667-4.5765625-.6678558-7.6109375 2.9596396-4.9835938 5.4001801-15.840625 3.3842162-20.203125-6.3547027-.16953125-13.7793694 4.6414063-17.8221442 10.7125l-18.5109189-2.2484375c-2.4978739-6.865625-8.5767568-13.3171875-14.79045044-14.67421875-2.98520721 3.7546875-3.17192793 14.88593745-1.46974775 20.43671875z" fill="#fff" fill-rule="evenodd"/></mask><mask id="p" fill="#fff"><path d="m2.98210811 21.1046875c-1.80987388 2.675-2.0701982 4.1296875-2.44131532 7.23125-.90648648 7.5921875 4.3983964 14.5625 11.84708111 15.6929688 4.1961802.6328125 8.7363603 3.4460937 9.0726126 7.7992187 1.9981441.2429688 3.5469189.43125 5.5442883.6742188 1.3535315-4.1484375 6.4252072-5.7929688 10.6508288-5.4046876 7.5005946.6890626 14.2961441-4.8148437 15.2034054-12.4054687.3703424-3.1023437.4586667-4.5765625-.6678558-7.6109375 2.9596396-4.9835938 5.4001801-15.840625 3.3842162-20.203125-6.3547027-.16953125-13.7793694 4.6414063-17.8221442 10.7125l-18.5109189-2.2484375c-2.4978739-6.865625-8.5767568-13.3171875-14.79045044-14.67421875-2.98520721 3.7546875-3.17192793 14.88593745-1.46974775 20.43671875z" fill="#fff" fill-rule="evenodd"/></mask><mask id="q" fill="#fff"><path d="m2.76052252.8546875c-.01859459.02578125-.03641441.05234375-.05500901.0796875-.02711711.03828125-.05423423.0765625-.08135135.1171875-.01936937.0296875-.03951351.06015625-.05888288.090625-.02556757.040625-.05113514.0796875-.07592793.1203125-.02014414.03203125-.03873874.065625-.05888288.0984375-.02246847.0390625-.04571171.07890625-.06895496.11953125-.02014414.03515625-.03951351.071875-.05888288.1078125-.02246847.040625-.04493694.08203125-.0674054.12421875-.01936937.03671875-.03796397.0734375-.05578379.1109375-.02169369.0421875-.04261261.084375-.06353153.12734375-.01859459.03828125-.03718919.0765625-.05500901.115625-.02091892.04375-.04106306.0890625-.06275676.13515625l-.05423423.12265625c-.01859459.04453125-.03718919.08828125-.05655856.13359375l-.05345946.1296875c-.01859459.04453125-.03641441.08984375-.05345946.134375l-.05345946.140625-.04958558.13203125c-.01781982.0484375-.03563964.09765625-.05345946.1484375-.0154955.0453125-.03099099.0921875-.04726126.1390625l-.04958559.14609375c-.01549549.046875-.03021622.09609375-.04571171.14375-.01627027.05078125-.03254054.1015625-.04803604.153125-.01394594.04609375-.02789189.09296875-.04183783.140625-.01627027.0546875-.03331532.10859375-.04803604.1640625-.01394595.04609375-.02634234.09296875-.03951351.13984375-.01472072.05625-.030991.11171875-.04571172.16796875-.01394594.05234375-.02789189.10625-.04183783.1609375l-.03951352.15234375c-.01239639.053125-.02479279.10625-.03718919.15859375-.05965765.24609375-.11544144.49921875-.16735135.7546875l-.01317117.0625-.03486486.18125c-.01162162.05546875-.0216937.11171875-.03254054.1671875l-.03021622.17421875-.03021622.16484375c-.01084684.0671875-.02246846.13515625-.03409009.20390625l-.02246846.140625c-.0123964.071875-.02324325.1453125-.03331532.2171875l-.02091892.1390625c-.01007207.0671875-.02014414.13671875-.03021622.20625l-.02014414.15078125c-.01007207.0734375-.01936937.146875-.02866667.22109375l-.01627027.134375-.02711711.2234375-.01704505.14921875-.02169369.20625-.01704505.16640625-.02246847.21875-.01084684.12578125-.02246847.25234375-.0092973.1203125-.01936937.25078125-.00774775.11328125-.01859459.2734375-.0030991.07421875c-.00697297.0984375-.01317117.1976562-.01781982.296875l-.00387387.0703125c-.06043244 1.2054687-.06740541 2.4304687-.02401802 3.63125l.00232432.0453125c.0030991.1125.00852253.2242187.01394595.3359375l.00154955.0242187c.00464865.1148438.01007207.2273438.01704504.340625l.00154955.0289063c.01936937.3585937.04493694.7148437.07282883 1.065625l.00077478.0070312c.1689009 2.0164063.48810811 3.8835938.9398018 5.35625v.0007813c.10072072.33125.20918919.64375.32385585.9320312l16.99236039-2.4476562c-.1812973-1.40625-.5431171-2.8367188-1.0575676-4.25-.0224685-.0617188-.0457117-.1234375-.0689549-.1851563l-.0627568-.1664062c-.024018-.0632813-.048036-.1257813-.0736036-.1890625-.0216937-.0570313-.0441622-.1140625-.0674054-.1703125l-.0728288-.1804688-.0720541-.1742187c-.0255676-.0609375-.0519099-.1210938-.0782522-.1828125l-.0728289-.16875c-.0348648-.0773438-.0697297-.1554688-.1045946-.2328125-.0418378-.0914063-.0821261-.1828125-.1255135-.2742188l-.0728288-.1546875c-.030991-.0648437-.0612072-.1296875-.092973-.19375-.0278919-.0585937-.0565585-.1171875-.0852252-.1757812l-.0813514-.1640625-.0952973-.1859375-.0844504-.1632813c-.030991-.0601562-.0627568-.1210937-.0945225-.1796875-.0348649-.0671875-.0705045-.1328125-.106919-.1984375l-.0743783-.1367187c-.0581081-.1070313-.1185406-.2132813-.1797478-.3203125l-.0914234-.1585938-.1069189-.184375-.0937478-.1562499c-.0356396-.0609376-.072054-.1218751-.1092432-.1820313l-.0968469-.1585938-.1138919-.1828125-.0929729-.1476562c-.0457117-.071875-.092973-.14375-.1394595-.215625l-.1262883-.1921875c-.0519099-.078125-.1045946-.15625-.158054-.234375l-.0883244-.1296875c-.0457117-.065625-.0906486-.1328125-.1363603-.1984375l-.0976216-.13671875-.1332613-.1875-.0983964-.13515625c-.048036-.065625-.0960721-.13125-.1448829-.1953125l-.0914234-.12265625c-.0767027-.10234375-.154955-.20546875-.233982-.30625l-.0015495-.00234375-.0085226-.0109375c-.0751531-.096875-.1503063-.1921875-.2254594-.28671875-.0364144-.0453125-.0736036-.090625-.1107928-.13671875-.0464865-.0578125-.0937478-.115625-.141009-.1734375l-.1076937-.12890625-.1503063-.17890625-.1045946-.1234375c-.0519099-.0609375-.1038198-.11953125-.1565045-.1796875l-.1038198-.11796875c-.0829009-.0953125-.1681262-.1890625-.2525766-.2828125l-.0519099-.05625c-.0697297-.075-.1394595-.15078125-.209964-.22578125l-.1053694-.1125c-.0573333-.05859375-.1131171-.11796875-.1689009-.1765625l-.1038198-.10546875c-.0557838-.05703125-.1123423-.11328125-.1681261-.16953125l-.1146667-.11484375c-.0604324-.059375-.1200901-.11875-.1812973-.178125l-.0898738-.08671875c-.092973-.0890625-.1851712-.1765625-.2781442-.26328125l-.0519099-.046875c-.0774775-.071875-.1557297-.14375-.233982-.2140625l-.0937477-.08359375c-.0635316-.0578125-.1286126-.1140625-.1921442-.1703125l-.1076937-.09296875c-.0643063-.05546875-.1278378-.109375-.1929189-.16328125l-.09994592-.084375c-.07205406-.0609375-.14410811-.11953125-.21771171-.17890625l-.07670271-.0625c-.09684684-.078125-.19446846-.1546875-.29209009-.23125l-.07825225-.059375c-.07437838-.0578125-.14875676-.11484375-.22468468-.171875l-.09917117-.0734375c-.06740541-.04921875-.13481082-.1-.202991-.1484375l-.11389189-.08125c-.06353153-.0453125-.12706306-.0890625-.19059459-.134375l-.11544144-.0796875c-.07825226-.05390625-.15727928-.10703125-.23630631-.15859375l-.06663063-.04609375c-.10304505-.0671875-.20454054-.1328125-.30758559-.19765625l-.08212612-.05c-.07515315-.04765625-.15185586-.09453125-.22855856-.140625l-.11234234-.06796875c-.06740541-.03984375-.13403604-.07890625-.20221622-.11875l-.11621622-.06640625c-.0705045-.03984375-.141009-.078125-.21228828-.11875l-.10304505-.05546875c-.0890991-.0484375-.17897297-.096875-.26962162-.14296875l-.04493694-.025c-.10691892-.05390625-.21306306-.10703125-.31998198-.15859375l-.08057658-.03984375c-.0798018-.0375-.15882882-.075-.2394054-.11171875l-.10846847-.05c-.0705045-.03125-.14100901-.0625-.21151351-.09296875l-.12009009-.0515625c-.07282883-.03125-.14643244-.06171875-.21926126-.090625l-.09917118-.040625c-.09839639-.0390625-.19756756-.0765625-.29673873-.1140625l-.0278919-.0109375c-.10614414-.0390625-.21383783-.0765625-.32075675-.1125l-.10381982-.03515625c-.07360361-.025-.14720721-.0484375-.22081081-.071875-.04028829-.01328125-.08057658-.025-.12086487-.0375-.0674054-.01953125-.13481081-.03984375-.20221621-.059375l-.13171172-.03671875c-.07127928-.01953125-.1441081-.0390625-.21616216-.05703125l-.10304504-.0265625c-.1076937-.02734375-.21771172-.053125-.32618018-.0765625-.04726126.06015625-.0952973.12265625-.14178379.18671875z" fill="#fff" fill-rule="evenodd"/></mask><mask id="r" fill="#fff"><path d="m19.6157477.5-.1069189.00078125c-.0736036 0-.147982.0015625-.2223603.00390625l-.1363604.00390625c-.0705045.003125-.1402342.00625-.2107387.009375-.0418379.003125-.0836757.0046875-.1262883.0078125-.0774775.0046875-.1534054.01015625-.2316577.0171875l-.110018.0078125c-.1115676.01015625-.2246847.02109375-.3378018.034375l-.0294414.003125c-.1045946.0125-.2091892.025-.3137838.03984375l-.1061442.01484375c-.0782522.0125-.1565045.0234375-.2355315.0359375l-.1278378.021875c-.0751532.01171875-.1518559.02578125-.2277838.03984375l-.116991.021875c-.086.01640625-.1727748.03359375-.2587748.05234375l-.0883243.01796875c-.1154415.025-.2308829.05078125-.3470991.07890625l-.0503604.0125c-.0976216.0234375-.1967928.0484375-.2959639.07421875l-.1131171.0296875c-.0782523.021875-.1557298.0421875-.2332073.0640625l-.1286126.0375c-.0751531.021875-.1495315.04375-.2246847.06640625l-.1255135.03828125c-.0852252.0265625-.1704504.05390625-.2549009.08203125l-.0906486.03046875c-.1162162.03828125-.2301081.07734375-.3455496.11796875l-.0767027.02734375c-.0883243.0328125-.1774234.06484375-.2657477.09765625l-.130937.05c-.0728288.02890625-.1456576.05625-.2177117.08515625l-.1286126.05234375c-.0774775.03046875-.1557297.06328125-.2324324.09453125l-.1131171.0484375c-.0875496.03671875-.1743244.07421875-.2595496.1125l-.0906486.03984375c-.1123424.05-.2254595.1015625-.3378018.15390625l-.0890991.04296875c-.0844505.0390625-.1696757.0796875-.2533514.12109375l-.1177657.0578125c-.0751532.0375-.1495316.075-.2262343.1125l-.1247387.06484375c-.0759279.03984375-.1518559.07890625-.227009.11953125l-.1115676.05859375c-.092973.05-.1851712.1-.2773694.1515625l-.0612072.03359375c-.1107928.0625-.2215856.125-.3316036.1890625l-.1084684.0640625c-.0736036.0421875-.1456577.084375-.2184865.128125l-.1379099.08359375c-.0681802.0421875-.1363604.08359375-.2037658.12578125l-.12396397.07734375c-.06895495.04296875-.13790991.08671875-.20763964.13125l-.12861261.0828125c-.08677478.05703125-.17122523.11328125-.25722523.1703125l-.06353153.0421875c-.10459459.0703125-.20841441.14140625-.31223423.2140625l-.12861261.08984375c-.06508109.04453125-.12861262.090625-.19291892.1359375l-.13171171.09609375-.1874955.13671875-.13636036.1c-.05810811.04453125-.11776577.0890625-.17742342.134375-.04648649.0359375-.09297298.07109375-.13868469.10703125-.09684685.0734375-.19136937.14765625-.28589189.2234375l-.01317117.009375-.00077478.00078125c-.10072072.08046875-.20066666.16171875-.29983783.2421875l-.11854055.09765625c-.06198198.0515625-.12396396.103125-.18594594.1546875l-.12706306.10859375-.17432433.1484375-.12551351.1109375c-.06120721.05234375-.12009009.10703125-.18052252.16015625l-.11621622.10390625c-.06972973.06328125-.13945946.1265625-.20918919.190625l-.16657658.15625c-.06198198.05859375-.12551351.1171875-.18749549.1765625l-.12473874.12109375-.15340541.14921875-.13171171.13125-.14875675.14921875-.12783784.13046875-.14798198.153125-.12551352.1328125c-.08445045.0890625-.16735135.17890625-.25102702.26875l-.10304505.11484375c-.05036036.05546875-.10072072.11015625-.15030631.165625-.04571171.0515625-.08987387.10234375-.13481081.153125l-.12086486.1390625-.13481081.15703125-.11776577.13984375c-.04261261.05-.08445045.1-.12473874.14921875-.04648648.05625-.09142342.11171875-.13713513.16640625l-.10691892.13359375c-.06275676.078125-.12473874.15625-.18672072.2359375-.05190991.0671875-.10381982.134375-.15495496.2015625l-.11156756.1460938c-.04028829.0539062-.07980181.1062499-.11776577.1601562l-.11156757.1507812-.11311712.1578125c-.03563963.0500001-.07127927.1-.10614414.1492188-.03951351.0554687-.07825225.1109375-.11621622.1664062l-.10072072.146875c-.03641441.0539063-.0736036.109375-.11001801.1640626-.83288289 1.2484375-1.52088289 2.5515624-2.02758559 3.8742187l15.92859463 6.4476562c.1797477-.2531249.3587207-.53125.5353693-.828125v-.0015625c.7848469-1.321875 1.5348289-3.059375 2.1740181-4.978125l.0015495-.0054687c.1107928-.3359375.2184865-.6742187.3223063-1.01875l.0092973-.028125c.0325405-.1078125.0650811-.2171875.0968469-.3257813l.0069729-.0234375c.030991-.1070312.061982-.2148437.0921982-.3226562l.0131712-.0453125c.3246306-1.1539062.6074234-2.346875.8313333-3.5320313l.0131712-.0695312c.0178198-.0976563.0364144-.1945312.0534595-.2921875l.0123964-.07265625.0472612-.2703125.0185946-.11171875.0410631-.24765625.0178198-.1203125.0387387-.25.0178199-.125.0317657-.21796875.0224685-.16484375.0278919-.20546875.0185946-.15.0263423-.2234375.0147207-.134375c.0085226-.0734375.0170451-.14765625.0247928-.2203125l.0147207-.15234375.0201442-.20859375.0123964-.13828125c.006973-.0734375.0131712-.14609375.0193694-.21953125l.010072-.1421875c.0054235-.06875.0108469-.13828125.0147208-.20703125l.0116216-.16640625.010072-.1765625c.0030991-.0578125.0054235-.1140625.0085226-.1703125l.0085225-.18359375.0015495-.0640625c.0100721-.2625.0147208-.51953125.0154955-.7734375 0-.05390625.0007748-.109375 0-.16328125l-.0015495-.1578125c-.0007748-.05625-.0015496-.11171875-.0030991-.16640625-.0007748-.05859375-.0030991-.115625-.0046487-.1734375-.0023243-.04921875-.0030991-.096875-.0054234-.1453125-.0015495-.05703125-.0054234-.1140625-.0077477-.171875-.0023244-.0484375-.0046487-.09765625-.0077478-.14609375-.0030991-.05390625-.006973-.10625-.0108468-.16015625-.0023244-.04921875-.006973-.1-.0100721-.15078125l-.0139459-.15390625c-.0038739-.0484375-.0085226-.09765625-.0131712-.14609375-.0061982-.053125-.0108469-.10546875-.0170451-.1578125l-.0162702-.13828125-.0193694-.15c-.0061982-.04765625-.0131712-.0953125-.0193694-.14296875l-.0224684-.13984375c-.0077478-.0484375-.0162703-.09609375-.0232433-.14296875l-.024018-.1328125c-.0092973-.0484375-.0185946-.09765625-.0286667-.1453125-.0085225-.0421875-.017045-.084375-.0255675-.12578125-.0108469-.046875-.0216937-.09296875-.0325406-.13828125-.0085225-.040625-.0185946-.08203125-.0286666-.121875-.0108469-.046875-.0232433-.0921875-.0356397-.13671875-.0108468-.040625-.0201441-.0796875-.0325405-.11953125-.0123964-.04453125-.0255676-.08828125-.0387388-.1328125-.0108468-.0359375-.0224684-.07265625-.0333153-.1078125-.0139459-.046875-.0302162-.090625-.0457117-.1359375-.0116216-.034375-.0232432-.06875-.0356396-.1015625-.0162703-.04609375-.0340901-.08984375-.0511352-.134375-.0116216-.03046875-.0232432-.06171875-.0356396-.090625-.0294414-.07265625-.0612072-.14453125-.092973-.21484375-.0929729-.003125-.1859459-.0046875-.2796937-.0046875-.0185946 0-.0371892 0-.0557838.00078125z" fill="#fff" fill-rule="evenodd"/></mask><mask id="s" fill="#fff"><path d="m1.17610811 10.571875 8.0623063-1.1625c-.50205405-3.91171875-3.96452252-8.2015625-7.51918918-8.978125-1.50073874 1.88828125-1.51003604 7.7078125-.54311712 10.140625z" fill="#fff" fill-rule="evenodd"/></mask><mask id="t" fill="#fff"><path d="m2.99063063 6.92734375-.04261261.0625c-1.04672072 1.5703125-1.79360361 3.37109375-2.1469009 5.32734375-.08754955.5523438-.16425226 1.153125-.24482883 1.8328125-.20686487 1.7296875-.08987388 3.428125.29983784 5.03125 4.71992792-11.10625 17.44250447-10.678125 24.18614417-2.0570312.8096396 1.0359374 2.3134774 1.21875 3.3439279.4078124 8.5821802-6.7609374 21.0421081-4.1304687 23.0108108 7.7882813.7561802-1.4640625 1.2690811-3.0851563 1.475946-4.815625.0813513-.6796875.1487567-1.28125.1936936-1.8390625.1177658-1.9859375-.1843963-3.915625-.8328828-5.6929688l-.0224685-.0624999c-1.7812072-4.8101563-6.1013514-8.49375005-11.4806126-9.14687505l-2.9627388-.36015625-18.5101441-2.24765625-2.9642883-.36015625c-.5632612-.06875-1.1226486-.10234375-1.6766126-.10234375-4.73697297 0-9.06331531 2.43515625-11.62627027 6.234375" fill="#fff" fill-rule="evenodd"/></mask><mask id="u" fill="#fff"><path d="m.54339884.75352171h10.64512366v14.33189039h-10.64512366z" fill="#fff" fill-rule="evenodd"/></mask><g fill="none" fill-rule="evenodd"><path d="m44.9632793 48.5476563c-.8731712 3.2148437-15.8588649 20.9460937-29.5072973 10.978125-11.62394596-8.4898438-5.1731712-23.0390625-15.07324326-24.1617188 7.58504504-5.5726562 16.63518916-2.084375 21.36596396 5.009375 4.2635856 6.3929688 4.0296036 11.9460938 12.7822342 11.2304688 4.4820721-.3671875 6.2361622-3.8546875 6.6994775-4.484375.9382523-1.2757813 4.3890991-2.58125 3.7328649 1.428125" fill="#f05a22"/><path d="m38.9822505 18.8257031c-6.8265406 8.046875-16.7707748 11.2835938-24.9740901 3.5914063-7.99954959-7.5015625-4.51771175-17.22578128-11.21176581-19.04218753 8.24670271 1.97734375 4.17913514 9.09843753 13.15412611 17.02187503 7.7764144 6.8640625 16.3678919 5.2796875 23.0317298-1.5710938" fill="#f26f31" mask="url(#a)" transform="translate(0 32.222813)"/><path d="m.76555496 3.0740625c7.26506306-5.25 15.89837834-1.9 20.42151354 4.88203125 4.0954594 6.13984375 3.8707747 11.47499995 12.277081 10.78671875 1.1823064-.096875 2.1670451-.4195313 2.9828829-.85-.9878378.7859375-2.3382702 1.46875-4.1558919 1.6171875-8.4063063.6875-8.1816216-4.6460938-12.277081-10.78671875-4.282955-6.4203125-12.24841445-9.76484375-19.24850454-5.64921875" fill="#e13d21" mask="url(#b)" transform="translate(0 32.222813)"/><path d="m.91005045-5.45101562c5.95724324-4.28203125 14.23338735-2.88359376 18.48070275 3.12343749 4.2465405 6.0078125 2.8596936 14.35156253-3.0983244 18.63515623-5.9572432 4.2820313-14.23338736 2.8835938-18.4799279-3.1234375-4.24654054-6.00781248-2.85969369-14.35312497 3.09754955-18.63515622" fill="#fddab3" mask="url(#c)" transform="translate(0 32.222813)"/><path d="m21.5066631 8.44820312c-.1402343.61015625-.3223063 1.21171876-.546991 1.79843748-.2897658-.49999998-.602-1.00859372-.9452253-1.52265623-4.2829549-6.42109375-12.24763959-9.76484375-19.24927923-5.64999999 7.26506306-5.25000001 15.89837833-1.90078126 20.42228833 4.88203124.1092432.16484376.2153873.32890625.3192072.4921875" fill="#fbc69a" mask="url(#d)" transform="translate(0 32.222813)"/><path d="m10.9019333 18.5876562c-4.0226306-6.6523437-2.51027024-13.6945312-8.10569366-15.2132812 7.35416216 1.7640625 4.91594595 7.6179687 10.66787386 14.4835937-.835982.3335938-1.6944324.5765625-2.5621802.7296875" fill="#fee4c1" mask="url(#e)" transform="translate(0 32.222813)"/><path d="m26.9747135 22.3634375c-3.7747027.8429688-6.5499459 6.4320312-4.7602162 12.30625l4.0985586 4.9460937 1.7292973-9.234375c-1.0761622-1.3632812-.3866127-6.3085937-1.0676397-8.0179687" fill="#ce2a1e" mask="url(#f)" transform="translate(0 32.222813)"/><path d="m28.9222649 17.1709375c-3.1122703 1.1109375-5.228955 6.5992187-3.5368469 11.9695312l3.5786847 4.3039063 1.1210991-8.8273438c-.9413513-1.1898437-.5384685-5.896875-1.1629369-7.4460937" fill="#ce2a1e" mask="url(#g)" transform="translate(0 32.222813)"/><path d="m61.8880018 50.2451563-5.2033874 6.7742187c4.0055856-1.2179688 11.4395496.1296875 13.6724505 3.9367187.7267387-4.2875-5.4427928-9.9929687-8.4690631-10.7109374" fill="#f05a22"/><path d="m5.89843784 6.8971875c3.24553153.3875 6.62664866 1.81796875 7.98018016 4.2640625.0635315-.3984375.0712793-.809375.0302162-1.2265625-1.7525405-2.01875-5.00814411-3.15-8.01039636-3.36875z" fill="#d83b1f" mask="url(#h)" transform="translate(56.558559 50.191563)"/><path d="m5.5088036.80890625c1.35120721 1.425 2.03610811 4.6 1.36282883 6.61171875l-3.38266666-.35 1.00488288-4.4z" fill="#d83b1f" mask="url(#i)" transform="translate(56.558559 50.191563)"/><path d="m54.3007099 65.9846094c1.8563604 1.8445312 7.4401622 8.153125 7.1542703 8.3757812-.4485946.3515625-10.1921622-1.159375-14.2388108-4.4398437z" fill="#f05a22"/><path d="m8.69111351 1.07367187 3.40436039 2.9875c-2.74425228-1.25078125-8.00884687.796875-8.8618739 2.69765625l-1.88347748-1.1765625z" fill="#ce2a1e" mask="url(#j)" transform="translate(46.486486 65.816563)"/><path d="m42.8667387 71.4884375c9.5886127 1.1640625 18.3257478-5.5609375 19.449946-14.971875 1.124973-9.4109375-5.7782703-18.0367187-15.3676577-19.2015625-9.5886126-1.1640625-18.3272973 5.5609375-19.4507207 14.971875-1.1241982 9.4117188 5.7790451 18.0367188 15.3684324 19.2015625" fill="#f05a22"/><path d="m1.51081081 9.61554687c3.95445045-1.40546875 9.73039639.56953123 12.44830629 3.61328123.4098559.5632813.7352613 1.1460938.9576216 1.7304688l.1874955-3.140625-4.072991-4.96718753-7.75936933-1.07578125z" fill="#d83b1f" mask="url(#k)" transform="translate(27.117117 36.910313)"/><path d="m15.7496216 34.578125c8.1072433.984375 15.6055135-3.6703125 18.4086487-10.8210937-3.0851532 6.58125-10.2564685 10.7632812-17.9794235 9.825-9.58938734-1.1648438-16.49263058-9.790625-15.36843239-19.2015625.17277478-1.4539063.52917118-2.8437501 1.04207208-4.15-.74455856 1.5882812-1.25281081 3.3164062-1.4712973 5.1460937-1.1241982 9.4117188 5.77904504 18.0367188 15.36843241 19.2015625" fill="#e13d21" mask="url(#l)" transform="translate(27.117117 36.910313)"/><path d="m43.0952198 69.575c5.4544144.6632813 10.5051712-3.83125 11.2427568-10.0039062.7368108-6.1726563-3.1107207-11.746875-8.5651352-12.4085938-5.4551891-.6632812-10.5059459 3.8304688-11.2427567 10.0023438-.7375856 6.1734375 3.1107207 11.7476562 8.5651351 12.4101562" fill="#ffefd7"/><path d="m11.9006955 6.59734375c-.774-.5765625-1.5627207-1.02578125-2.33672073-1.603125l-2.07562162-5.2796875-2.39018018 1.5c-1.47827027-.03671875-7.26506306-.00546875-3.11381982 3.534375 1.52243244.47578125 4.4107928-.16875 5.33122523-.5828125.24018018.42734375.29596396.7109375.39823423 1.128125.45634234 1.86640625 3.73363969 1.66015625 4.18688289 1.303125" fill="#fddab3" mask="url(#m)" transform="translate(34.09009 47.066563)"/><path d="m8.86133153 22.4908594c1.51778377.184375 3.00380177-.0304688 4.37437837-.5695313-1.2318919.4070313-2.5474594.5554688-3.88704504.3929688-5.45441441-.6617188-9.30272072-6.2367188-8.56513513-12.40937502.53227027-4.4546875 3.31138739-8.03515626 6.8676036-9.43359375-3.78787387 1.253125-6.79942342 4.953125-7.35571171 9.60937497-.73681081 6.1734375 3.11072072 11.7476563 8.56590991 12.4101563" fill="#fefefe" mask="url(#n)" transform="translate(34.09009 47.066563)"/><path d="m40.1610703 15.5336719 18.5116937 2.2484375c4.042-6.0710938 11.4666666-10.88281252 17.8221441-10.71250003 2.0151892 4.36250003-.4245766 15.21875003-3.384991 20.20312503 1.1265225 3.0335937 1.0381982 4.5085937.6678559 7.6109375-.9072613 7.590625-7.7028108 13.0945312-15.2026307 12.4054687-4.2263964-.3882812-9.298072 1.25625-10.6508288 5.4039063-1.9981441-.2421875-3.5469189-.4304688-5.545063-.6734375-.3362523-4.353125-4.8764325-7.1671875-9.0726127-7.7992188-7.4486846-1.13125-12.7535675-8.1007812-11.847081-15.6921875.3711171-3.1023437.6322162-4.55625 2.4413153-7.2320312-1.7021802-5.5507813-1.5146847-16.68203128 1.4697477-20.43671877 6.2136937 1.35703125 12.2925766 7.80859375 14.7904505 14.67421877" fill="#fddab3"/><path d="m3.75347387 28.473125c.95684685 6.6351563 4.42861262 12.9125 11.12266663 14.5289063 4.1706127 1.00625 7.107009 5.6171875 6.9187388 8.8664062l-1.124973 3.0179688-21.54261261-9.9382813.05190991-10.4859375z" fill="#fbc69a" mask="url(#o)" transform="translate(20.918919 .191562)"/><path d="m12.2925766 48.4003125 2.8287027-.5007813 1.898973-.6070312 5.2328288-3.2882813 1.1327207-1.0828125c1.3651532 3.675-1.572018 8.6078125-4.6904865 10.2039063z" fill="#fbc69a" mask="url(#p)" transform="translate(20.918919 .191562)"/><path d="m41.2170883 19.7805469c-.1805225-1.40625-.5431171-2.8367188-1.0575676-4.25-.0216937-.0617188-.0457117-.1234375-.0689549-.184375l-.0627568-.1671875c-.0232432-.0632813-.048036-.1257813-.0736036-.1890625-.0216937-.0570313-.0441622-.1140625-.0674054-.1703125l-.0728288-.18125-.0720541-.1726563c-.0255676-.0609375-.0511351-.121875-.0782522-.1835937l-.0728289-.1679688c-.0340901-.078125-.0689549-.1570312-.1038198-.2335937-.0418378-.0914063-.0829009-.1835938-.1255135-.2742188l-.0736036-.1546875c-.0302162-.0648437-.0612072-.1296875-.0921982-.19375-.0278919-.0585937-.0573333-.1171875-.086-.1757812l-.0813514-.1640625-.0952972-.1859375-.0836757-.1632813c-.0317658-.0601562-.0627568-.1203125-.0952973-.1796875-.0348649-.0664062-.0705045-.1328125-.1069189-.1984375l-.0736036-.1359375c-.0588829-.1078125-.1193154-.2148437-.1797478-.3210937l-.0914234-.1585938-.1076937-.184375-.092973-.15625c-.0356396-.0609375-.0728288-.1210937-.110018-.1820312l-.0968468-.1578125-.1131172-.1835938-.0929729-.146875c-.0464865-.0726562-.0937478-.1445312-.1402343-.2164062l-.1262883-.1921875c-.0519099-.0773438-.1045946-.15625003-.1572792-.23515628l-.0890991-.12890624c-.044937-.06640626-.0906487-.1328125-.1363604-.1984375l-.0968468-.13671875-.1340361-.18750001-.0983964-.13515625c-.048036-.06484375-.096072-.13046874-.1448829-.1953125l-.0906486-.12265625c-.0774775-.10234375-.1557297-.2046875-.2347568-.30624999l-.0015495-.00234375-.0085225-.01171875c-.0751532-.09609376-.1503063-.19140626-.2254595-.2859375-.0364144-.04609375-.0736036-.090625-.1107928-.13671875-.0464865-.0578125-.0937477-.11562501-.1402342-.17265625l-.1076937-.13046876-.1503063-.17812499-.1053694-.1234375c-.0519099-.06015625-.1038198-.1203125-.1557297-.17968751l-.1038198-.11796874c-.0836757-.0953125-.1681262-.18906251-.2533514-.28203126l-.0519099-.05703124c-.0697297-.075-.1386847-.15078125-.2091892-.22578125l-.1061441-.11171875c-.0565586-.05937501-.1123424-.11875-.1696757-.17734376l-.1030451-.10546874c-.0557837-.05703125-.1115675-.11328126-.1673513-.16953126l-.1154415-.11484374c-.0596576-.05937501-.12009-.11875-.1812972-.17734376l-.0898739-.08828124c-.0921982-.08828125-.1851712-.17578125-.2781442-.2625l-.0519099-.04687501c-.0774775-.07187499-.1549549-.14374999-.233982-.2140625l-.0937477-.08359375c-.0635315-.05703124-.1278378-.1140625-.1921441-.1703125l-.1076937-.09296875c-.0643063-.05468749-.1278379-.109375-.192919-.16328125l-.0999459-.08437499c-.0720541-.06093751-.1441081-.1203125-.2177117-.17890625l-.0767027-.0625c-.0968469-.07812501-.1936937-.15468751-.2913153-.23125001l-.0782523-.05937499c-.0751531-.05781251-.1495315-.11484376-.2254594-.171875l-.0991712-.07343751c-.0674054-.04921875-.1348108-.09921874-.202991-.1484375l-.1131171-.08124999c-.0635316-.04531251-.1270631-.08984375-.1913694-.134375l-.1154414-.07968751c-.0782523-.05390625-.1572793-.10703125-.2355316-.15859375l-.0674054-.04609375c-.1022702-.06718749-.2045405-.13203124-.3075856-.19765625l-.0813513-.05c-.0759279-.04765625-.1526306-.09453125-.2285586-.14140625l-.1131171-.0671875c-.0674054-.03984374-.1348108-.07890625-.2022162-.11875l-.1162162-.06640624c-.0705045-.03984376-.1402343-.078125-.2115135-.11796876l-.1030451-.05624999c-.0890991-.0484375-.1797477-.09687501-.2703964-.14296876l-.0449369-.02421874c-.1069189-.05468751-.2130631-.10781251-.3192072-.15937501l-.0813514-.0390625c-.079027-.03828125-.1588288-.07578124-.2394054-.1125l-.1084684-.04921874c-.0705046-.03203125-.1410091-.06328125-.2115136-.09375001l-.12009-.0515625c-.0728289-.03124999-.1456577-.06171874-.2192613-.090625l-.0991712-.040625c-.0983964-.0390625-.1975675-.07656249-.2967387-.11406249l-.0271171-.01015626c-.106919-.03984375-.2138379-.07734375-.3207568-.1140625l-.1045946-.03437499c-.0736036-.02500001-.1472072-.0484375-.2208108-.071875-.0402883-.01328126-.0805766-.02421876-.1208649-.0375-.0674054-.01953126-.1348108-.03984376-.2022162-.05859376l-.1317117-.0375c-.072054-.02031249-.1433333-.03906249-.2153874-.05703124l-.1038198-.02734375c-.1084685-.02734375-.2169369-.05234375-.3261802-.07578125-.0472612.06015625-.0952973.12265625-.141009.18671875-.0193694.02578125-.0371892.05234374-.0557838.07968749-.0271171.03828125-.0542342.07656251-.0813513.1171875-.0201442.0296875-.0387388.06015625-.0581081.090625-.0263424.04062501-.0519099.07968751-.0767027.12109375-.0193694.03203125-.0387388.06484375-.0581081.09765625-.0232433.0390625-.0464865.07890625-.068955.11953126-.0201441.03515624-.0402883.071875-.0596577.10781249-.0224684.04062501-.0449369.08203125-.0666306.12421876-.0201441.03671874-.0387387.07343749-.0565585.11093749-.0216937.0421875-.0426127.08515626-.0635316.12734375-.0185946.03828126-.0364144.0765625-.055009.11562501-.0209189.04375-.0418378.08906249-.061982.13515625l-.0542342.12265625c-.0193694.04453125-.037964.08828125-.0565586.13359374l-.0542342.13046875c-.0185946.04375-.0364144.08906251-.0534595.13437501l-.0534594.13984374-.0488108.13125001c-.0178198.04921875-.0364144.09843749-.0534595.14921875-.0162703.04531249-.0317657.0921875-.048036.13828124l-.0488108.14687501c-.0162703.04765625-.030991.09609375-.0464865.14453125-.0154955.04999999-.0325406.10078124-.0472613.15234374-.0147207.04609375-.0286666.09375-.0426126.14062501-.0162703.05468749-.0325405.10859374-.0488108.16484375-.0123964.04531249-.0255676.09296875-.037964.13906249-.0154955.05625001-.030991.11171875-.0464865.16796876-.0139459.05234374-.0278918.10703125-.0418378.1609375l-.0387387.15234374c-.0131712.053125-.0255676.10625-.037964.15937501-.0588829.24609375-.1154414.49765625-.1673513.75390624l-.0131712.0625-.0348649.18125c-.0108468.05546876-.0216937.11093751-.0325405.16718751l-.030991.17421875-.0294415.16406249c-.0108468.06796876-.0224684.13593751-.03409.2046875l-.0224685.14140625c-.0123964.071875-.0224685.14453125-.0333153.21640625l-.0209189.1390625c-.0100721.06796875-.0201442.1375-.0294415.20546876l-.0209189.1515625c-.0092973.07343749-.0193694.146875-.0286667.22109375l-.0162702.134375-.0263424.2234375-.0178198.14921875-.0216937.20625-.017045.16640624-.0216937.21875-.0116217.12578125-.0216937.25234376-.010072.1203125-.0185946.25078125-.0085225.11328124-.0178199.27343748-.0038738.0742188c-.006973.0984375-.0123964.1976562-.0178199.296875l-.0038738.0703125c-.0612072 1.2054687-.0674054 2.4304687-.024018 3.6304687l.0023243.0460938c.0038739.1125.0085225.2242187.0139459.3367187l.0015496.0234375c.0046486.1140625.010072.2273438.017045.3398438l.0015496.0296875c.0193693.3585937.0449369.7148437.0736036 1.065625l.0007747.0070312c.1689009 2.0171875.4873334 3.8835938.9390271 5.35625v.0007813c.1014955.33125.2091892.64375.3246306.9320312z" fill="#f05a22"/><path d="m-2.89417117.58992188 5.4210991.6125c-2.26234234 5.88046875-1.66111712 15.63671872 1.09398198 21.31015622l-3.05803604 1.484375-3.27497297-10.6390625z" fill="#d83b1f" mask="url(#q)" transform="translate(22.468468 .191562)"/><path d="m56.6607514 21.5303906c.5067027-1.3226562 1.1954774-2.625 2.0275855-3.8742187.0364145-.0546875.0743784-.1101563.1107928-.1640625l.099946-.1460938c.0379639-.05625.0774775-.1117187.1162162-.1664062.0348649-.05.0705045-.1.1061441-.15l.1131172-.1578125.1115675-.1507813c.037964-.0539062.0774775-.10625.1177658-.159375l.1107928-.146875c.0519099-.0671875.1038198-.134375.1565045-.2015625.0612072-.0789062.1231892-.1578125.1859459-.2359375l.1076937-.1328125c.044937-.0554687.0906487-.1109375.1355856-.1664062.0410631-.05.0829009-.0992188.1247387-.15l.1185406-.1390625.1355856-.1578125.1200901-.1382813c.0449369-.0515625.0890991-.1023437.1348108-.153125.0495856-.05625.1007207-.1109375.1503063-.1664062l.103045-.1148438c.0829009-.0898437.1665766-.1796875.2510271-.26875l.1255135-.1328125.1487567-.153125.1270631-.1296875.1487567-.15.1317118-.1304687.1534054-.15.1247387-.1210938c.061982-.0585937.1247387-.1171875.1874955-.1757812l.1665766-.1570313c.0697297-.0640625.1394594-.1273437.2091892-.190625l.1162162-.1039062c.0596576-.053125.1200901-.1070313.1805225-.1601563l.1262883-.1101562.1727748-.1492188.1278378-.1078125c.0627568-.0523437.1247387-.1039062.1867207-.1554687l.1177658-.0976563c.0991712-.0804687.1991171-.1617187.2998378-.2414062l.0015496-.0015625.0116216-.009375c.0952973-.0757813.1898198-.1492188.2858919-.2234375.0464865-.0359375.0937477-.0710938.1394594-.1070313.0596577-.0445312.1193154-.0898437.1781982-.134375l.1348109-.1.1882702-.1367187.1317117-.0953125c.0643063-.0460938.1286127-.0921875.1936937-.1367188l.1278379-.0898437c.1038198-.0726563.2076396-.14375.3122342-.2140625l.0635315-.0421875c.0852253-.0570313.1712253-.1132813.2572253-.1695313l.1293873-.0835937c.068955-.04375.13791-.0875.2068649-.13125l.123964-.0773438c.0681802-.04218747.1355856-.08359373.202991-.12578122l.1386847-.08281251c.0728288-.04453125.1456576-.08671875.2177117-.12890625l.1092432-.0640625c.1107928-.06406249.2208108-.1265625.3316036-.18828124l.0612072-.03359375c.0921982-.05234375.1843964-.10234375.2773694-.15234376l.1115676-.05859375c.0751531-.04062499.151081-.0796875.227009-.11875l.1255135-.06484375c.0759279-.03828124.1503063-.07578124.2254594-.11328124l.1177658-.0578125c.0844505-.04140625.1689009-.08125.2533514-.12109375l.0898738-.04296876c.1115676-.05156249.2246847-.10390624.3370271-.15390624l.0898738-.03984375c.0867748-.03828126.1727748-.07578126.2595496-.11171875l.1138919-.0484375c.0767027-.03203126.1549549-.0640625.2324324-.09531251l.1293874-.05156249c.0712793-.0296875.1441081-.05703126.2169369-.08515626l.130937-.04999999c.0883243-.0328125.1774234-.065625.2665225-.09765625l.0759279-.02734375c.1154415-.04062501.2293333-.08046876.3455496-.11875l.0906486-.02968751c.0844505-.028125.1696757-.05546875.2549009-.08203124l.1255135-.03828126c.0751532-.02265624.1495316-.04531249.2246847-.0671875l.1286126-.03671874c.0774775-.02187501.154955-.04296876.2332072-.06406251l.1131171-.03046874c.0991712-.02500001.1975676-.05078126.295964-.07421875l.0511351-.01171876c.1154415-.02890624.2308829-.05468749.3470991-.07890625l.0875496-.01796875c.086-.01875.1727748-.03593749.2587748-.05312499l.116991-.02109376c.0759279-.01484375.1526306-.028125.2277837-.04062499l.1278379-.02109375c.079027-.01328126.158054-.02500001.2355315-.03593751l.1061442-.01562499c.1045946-.0140625.2091891-.02734376.3137837-.03984375l.0294415-.00312501c.1131171-.01249999.2262342-.02421874.3385766-.03359374l.1092432-.00859376c.0782523-.00625.154955-.01249999.2316577-.01718749.0426126-.00312501.0852252-.0046875.1262883-.00703125.0705045-.00312501.1402342-.00703125.2107387-.009375l.1363603-.0046875c.0743784-.00234375.1487568-.00312501.2231352-.00390625l.1061441-.00078125c.1123424-.00078126.2239099.00078125.3354775.00390624.0325405.07031251.0635315.14218751.092973.21484376.0123964.0296875.024018.0609375.0356396.090625.0170451.04453125.0348649.08828125.0511352.134375.0123964.03359375.024018.06718749.0356396.10156249.0154955.04531251.030991.08984376.0457117.13593751.0108469.03515625.0224685.07265625.0333153.10859374.0131712.04453125.0263424.08750001.0395135.1328125.0108469.0390625.020919.07812501.0325406.11875001.0116216.04531249.024018.08984374.0348648.13671874.0100721.04062501.0201442.08203126.0294415.12187501.0100721.04609375.0209189.09140625.0317657.13828124.0085226.0421875.0170451.08359375.0255676.12578125.0092973.0484375.0193694.09687501.0286667.14609375l.0232432.13203126c.0085225.046875.0170451.0953125.024018.14296874l.0224685.14062501c.006973.046875.0131712.09453125.0193694.14296874l.0201441.14921876.0154955.13906249c.0061982.05156251.0116216.10390626.0170451.15703126.0046486.0484375.0092973.09765625.0131711.14609375l.013946.15468749c.0038739.05000003.006973.10078123.0100721.15078123.0038738.053125.0077477.10625.0108468.159375.0030991.0492188.0054234.0976563.0077477.146875.0030991.0570313.0061982.1140625.0085226.1710938.0015495.0484375.0023243.0960937.0038738.1453125.0023244.0578125.0046487.1148437.0054235.1734375.0015495.0554687.0023243.1109375.0030991.1664062l.0015495.1585938c.0007748.0539062 0 .1085937 0 .1632812-.0007748.253125-.0054234.5109375-.0147207.7726563l-.0023243.0640625-.0085226.1835937c-.003099.05625-.0054234.1132813-.0085225.1710938l-.0108468.1757812-.0100721.1664063c-.0046486.06875-.0100721.1382812-.0154955.2070312l-.0100721.1429688c-.0061982.0726562-.0123964.1453125-.0193693.21875l-.0116217.1390625-.0209189.2078125-.0147207.1523437c-.0077477.0726563-.0162703.146875-.0247928.2210938l-.0147207.134375-.0263423.2226562-.0193694.15-.0271171.2054688-.0224685.165625-.030991.2179687-.0185946.1242188-.037964.2507812-.0185945.1195313-.0410631.2476562-.0185946.1117188-.0472613.2710937-.0123964.071875c-.0178198.0976563-.0356396.1945313-.0542342.2921875l-.0123964.0695313c-.2239099 1.1859375-.5059279 2.378125-.8313333 3.5328125l-.0131712.0445312c-.0302162.1078125-.0612072.2164063-.0921982.3226563l-.006973.0234375c-.0317657.1085937-.0643063.2179687-.0968468.3265625l-.0092973.028125c-.1030451.34375-.2107387.6828125-.3223063 1.0179687l-.0023243.0054688c-.6384145 1.91875-1.3883964 3.65625-2.1732433 4.978125v.0007812c-.1766486.2976563-.3548468.5757813-.5353694.8289063z" fill="#f05a22"/><path d="m19.1876847.5075c-7.3293694 1.30703125-13.31527929 6.4171875-16.10524326 12.121875l-7.61836036-.9726562 5.67445045-10.65312505 11.03124327-4.1296875z" fill="#d83b1f" mask="url(#r)" transform="translate(56.558559 6.441562)"/><g transform="translate(27.117117 8.785312)"><path d="m34.6241423 12.4925781c1.4093154-3.67890623 5.7836937-7.01718748 9.418937-6.91953123 1.0134054 2.19296876-.3478739 7.84843753-1.8594595 9.97968753z" fill="#9e3833"/><path d="m34.6241423 12.4932812c1.2683063-3.31093745 4.9368649-6.34531245 8.3086847-6.84999995-2.8922342 1.0296875-5.706991 3.64609375-6.7854775 6.46171875l6.5197298 2.6390625c-.1572793.3046875-.319982.5773438-.4834595.8085937z" fill="#862c30"/><path d="m9.23887928 9.40953125c-.50282883-3.91171875-3.96452252-8.2015625-7.51996396-8.978125-1.50073874 1.88828125-1.51003604 7.7078125-.54311712 10.13984375z" fill="#9e3833"/></g><path d="m9.55816396 9.84289063c-.05190991-.40703125-.27272072-1.640625-.38583783-2.05156251l-7.18371172 1.03515625c-.69032432-1.94062499-.91888288-6.16953124-.1441081-8.69453124-2.24064865 1.87656249-2.55443244 7.38125-1.12032433 10.79765627z" fill="#862c30" mask="url(#s)" transform="translate(27.117117 8.785312)"/><path d="m61.6496811 18.0178125-2.9627388-.3601563-18.5109189-2.2484375-2.9635135-.3601562c-5.3769369-.653125-10.4408649 1.8890625-13.3028829 6.1328125l-.0426126.0617187c-1.0467207 1.5710938-1.7936036 3.3710938-2.1469009 5.3273438-.0875495.5523437-.1642522 1.153125-.2456036 1.8335937-.2060901 1.7296875-.0898739 3.4273438.3006126 5.0304688 4.719928-11.1054688 17.4425045-10.678125 24.1861442-2.05625.8096396 1.0351562 2.3134774 1.2179688 3.3439279.4070313 8.5821802-6.7609376 21.0421081-4.1304688 23.0108108 7.7882812.7561802-1.4640625 1.2690811-3.084375 1.475946-4.8148437.0813513-.6796875.1487567-1.2820313.1936936-1.8398438.1177658-1.9859375-.1836216-3.9148438-.8321081-5.6921875l-.024018-.0632813c-1.7804324-4.809375-6.1013513-8.4929687-11.4798378-9.1460937" fill="#f05a22"/><path d="m3.94639279 15.5633594c-.50592793-2.8375.01781982-5.95937503 1.45735135-8.50781253 3.57868469-6.33593749 11.38066666-6.03125 17.65479276-5.4390625.2153874-2.71015625-18.17389185-3.53515625-18.65735131-6.65390625-.30990991-2 .19524324-4.23593749.43774774-6.26875002.38661262-3.2390625.11544144-2.165625-.73138738.5390625-1.50383784 4.80312502-1.9872973 9.32109377-2.5923964 14.25625002l-1.8121982 14.79843748c-.30913513 2.5226563-.2456036 4.4765625 2.08724324 2.6304688 1.58673874-1.25625 1.95320721-3.4515625 2.1561982-5.3546875" fill="#e13d21" mask="url(#t)" transform="translate(20.918919 14.254062)"/><g transform="translate(22.468468 18.941562)"><path d="m2.99001081 18.0383594 5.13908108.625c1.27372973.1539062 2.19106311 1.3328125 2.03765761 2.6171875-.1534054 1.2859375-1.32176572 2.2101562-2.59627022 2.0554687l-5.13830631-.6242187c-1.2745045-.1546875-2.19183783-1.3328125-2.03843243-2.6179688.15418018-1.2851562 1.32176577-2.2101562 2.59627027-2.0554687" fill="#ec1d24"/><path d="m40.2957261 22.5702344 5.1390811.6242187c1.2737297.1546875 2.1910631 1.3328125 2.0376577 2.6179688-.1541802 1.2851562-1.3225406 2.2101562-2.5962703 2.0554687l-5.1390811-.6242187c-1.2737297-.1546875-2.1918378-1.3335938-2.0384324-2.6179688.1541802-1.2859375 1.3225405-2.2101562 2.597045-2.0554687" fill="#ec1d24"/><path d="m10.4858018 2.13796875c2.3444685-1.71171875 6.8187928-.4328125 7.8934054 2.0421875-.079027-3.78359375-5.8766667-5.39453125-7.8934054-2.0421875" fill="#fefefe"/><path d="m43.1193928 6.1021875c-1.8741802-2.225-6.5205045-2.053125-8.1475315.09375.9676937-3.65703125 6.9791711-3.83359375 8.1475315-.09375" fill="#fefefe"/><path d="m12.0285333 20.8589844c3.4562703.4203125 6.6072793-2.0210938 7.0155856-5.4335938.4075316-3.4125-2.0794955-6.53828122-5.5357657-6.95781248-3.4562703-.41953124-6.6080541 2.02109378-7.01558563 5.43359378s2.07872072 6.5382812 5.53576573 6.9578125" fill="#f9b282"/><path d="m11.9914991 21.1686719c3.3834414.4109375 6.4763423-2.0367188 6.8846486-5.45.4075316-3.4125-2.0206126-6.53125002-5.4048288-6.94218753-3.3842162-.41171874-6.47634232 2.03671873-6.88464863 5.44921873-.40753153 3.4125 2.01983784 6.5320313 5.40482883 6.9429688" fill="#fefefe"/><path d="m12.5702559 16.3179688c.7352612.0890625 1.4062162-.4414063 1.4953153-1.1835938.0883243-.740625-.4385226-1.4179687-1.1737838-1.5070312-.7344865-.0898438-1.4054415.4421875-1.4953153 1.1828125-.0883244.7421875.4392973 1.41875 1.1737838 1.5078125" fill="#520000"/><path d="m35.9936342 23.7703125c3.4562703.4195313 6.6080541-2.0210937 7.0155856-5.4335937.4075316-3.4125-2.0787207-6.5382813-5.534991-6.9578126-3.457045-.4203124-6.608054 2.0203126-7.0163603 5.4335938-.4075316 3.4125 2.0794955 6.5382813 5.5357657 6.9578125" fill="#f9b282"/><path d="m35.9565225 24.0792969c3.3842162.4109375 6.4771171-2.0367188 6.8854234-5.45.4067568-3.4125-2.0213873-6.53125-5.4056036-6.9414063-3.3834414-.4117187-6.4763423 2.0367188-6.8846486 5.4492188-.4075315 3.4125 2.0206126 6.53125 5.4048288 6.9421875" fill="#fefefe"/><path d="m22.5213081 34.7689063c1.5356036.1867187 2.8643424-.2960938 2.9573153-1.0742188.0937478-.778125-1.0839099-1.565625-2.6195135-1.7523438-1.5363784-.1859375-2.8651171.296875-2.9580901 1.0750001-.092973.778125 1.0846847 1.565625 2.6202883 1.7515625" fill="#231f20"/><path d="m24.8365676 33.5077344c-.0302162.2546875-.3773153.4210937-.7755496.3734375-.399009-.0484375-.6965225-.29375-.6663063-.5492188.0302162-.2539062.3780901-.4210937.7763243-.3726562.3974595.0484375.6965226.2945312.6655316.5484375" fill="#58585b"/><path d="m36.5361315 19.2285156c.7344865.0890625 1.4062162-.4414062 1.4953153-1.1828125.0883244-.7414062-.4392973-1.4179687-1.1737837-1.5070312-.7352613-.0898438-1.4062163.4414062-1.4953154 1.1828125-.0883243.7414062.4392973 1.41875 1.1737838 1.5070312" fill="#520000"/><path d="m3.32517838 36.4259375c-3.27884685 3.5664062-.70194595 13.4320312 5.1538018 15.9640625 1.99504502.8617187 5.72248652-1.3085937 5.97971172-3.48125.7546306-6.3796875-6.43063064-13.5632813-11.13351352-12.4828125" fill="#e24a21"/><g fill="#fefefe"><path d="m6.97436757 42.7995313c1.70837838-.99375 4.07376573-.0875 5.28241443 2.0234375 1.2094234 2.1117187.8042162 4.6304687-.9033874 5.6242187-1.70837838.9945313-4.072991.0882813-5.28241442-2.0234375-1.20864865-2.1109375-.80421622-4.6304687.90338739-5.6242187"/><path d="m5.24847928 40.0026563c.41682883-.2429688.9490991-.0984376 1.19005405.3218749.24018018.4195313.09762162.9570313-.3192072 1.1992188-.41682883.2429687-.94987388.0984375-1.19005406-.3210938-.24018018-.4203124-.09762162-.9570312.31920721-1.1999999"/><path d="m3.71031892 42.4035937c.41682883-.2421875.94987387-.0984375 1.19005405.321875.24095496.4195313.09762162.9570313-.3192072 1.1992188-.41605406.2429687-.9490991.0992187-1.18927928-.3210938-.24095496-.4203125-.09762163-.9570312.31843243-1.2"/><path d="m8.26669189 39.7516406c.41682883-.2429687.94987388-.0992187 1.19005406.3210938.24095495.4203125.09762162.9578125-.31843244 1.1992187-.41682883.2429688-.94987387.0992188-1.19005405-.3210937-.24095496-.4195313-.09762162-.9570313.31843243-1.1992188"/></g><path d="m9.26537658 26.9441406 2.86821622.1539063 1.9857477-.1609375 3.5352973-.8945313 2.297982-1.121875 1.3442343-.796875.12009.8898438-.6329909 1.9523437-1.1815316 2.1078125-1.916018 2.1375-1.486018.9921875-2.1724685.6226563z" fill="#f05a22"/><path d="m21.5150306 23.671875c.2897658.1046875.4083063.6195312.3316036 1.1929687-.1843964 1.3671875-.9119099 2.8718751-1.6843603 4.0007813-1.5294054 2.2335937-4.1434955 4.2273437-6.7289189 3.9960937 2.6404324-.4523437 4.6858378-2.0453125 6.130018-4.2460937.7197657-1.0945313 1.4387567-2.4601562 1.6169549-3.7828125.0402883-.2976563.0534595-.4765625.0333153-.484375-.0061982-.0023438-.0178198.0265625-.0821261.0757813-3.237009 2.4789062-8.2064144 3.6140624-12.39329728 2.415625 4.15744148.3570312 8.51787388-.2875001 11.85482878-2.759375.2417298-.1796876.6004505-.5218751.921982-.4085938" fill="#fefefe"/><path d="m1.74990631 1.8884375c-.30138739-.1046875-.46176577-.43671875-.35794595-.73984375.10381982-.30390625.4330991-.465625.73371171-.3609375.38893694.1359375.89099099.19375 1.40621622.19375v-.0015625c.60354955 0 1.2101982-.08046875 1.67971171-.20625.30836036-.08359375.62601802.1015625.70814414.41328125.06663063.25-.03873873.5046875-.2425045.6390625v.00078125c-.99016216.65234375-1.52630631 1.1859375-1.72232432 1.62109375-.11156757.24453125-.07825226.4484375.05578378.61640625.20531531.2578125.59425225.4828125 1.08778378.67421875 1.58286487.6140625 4.0543964.80703125 5.48695492.73984375.3184325-.0140625.5888289.23515625.6027748.55703125.0123964.3015625-.2045405.56015625-.4958558.6015625-1.39846851.225-2.59394599.678125-3.50430635 1.30625-.69652252.47890625-1.22259459 1.0609375-1.54025225 1.71953125-.31068469.64374995-.4238018 1.36874995-.30061261 2.14843745.11544144.7375.44084684 1.5304688 1.0041081 2.3625.18052253.2648438.11234235.628125-.15185585.8101563-.19911712.1367187-.4516937.1320312-.64151352.0070312-.56326126-.34375-1.2776036-.5960937-2.01906306-.7523437-.82048649-.1742188-1.66266667-.2289063-2.36306306-.1609375-.31765766.0304687-.59967568-.2046875-.62989189-.525-.02944144-.3203125.20376576-.6054688.52142342-.6359375.81273874-.078125 1.77733333-.0164063 2.70628829.1796875.26962162.0570312.53691892.1257812.79801802.2046875-.1781982-.44375-.29906307-.88125-.36646847-1.30625-.16192793-1.0296875-.01162162-1.9882813.40133333-2.84375.40598198-.84140625 1.06531532-1.5765625 1.92918919-2.17109375.26652252-.184375.55241441-.3546875.85612613-.51015625-.9645946-.13359375-1.92763964-.34296875-2.70551352-.64375-.6787027-.26328125-1.23654054-.6015625-1.57744144-1.03046875-.41218018-.51875-.52452252-1.12734375-.20531531-1.83203125.11776576-.259375.30061261-.5328125.55861261-.81796875-.60897297-.00546875-1.21407207-.0828125-1.71225225-.25703125" fill="#520000" mask="url(#u)" transform="translate(51.90991 5.46875)"/></g></g></svg>