<svg height="60" viewBox="0 0 60 60" width="60" xmlns="http://www.w3.org/2000/svg"><g fill="#49ffa1" fill-rule="nonzero"><rect height="60" opacity=".08" rx="14" width="60"/><path d="m39.8758172 40.9120138c-.3714874.4863117-.9212888.7851516-1.5402422.9066207l-3.3267529.1741492-.4879237-3.3959091c0-.4862681.2695556-1.1691506.6410431-1.5337755l8.9275852-12.132669c.0185411-.0233795.0377476-.0458448.0567766-.0684406v-9.122631c0-.9606069-.7729156-1.7393585-1.7263186-1.7393585h-23.6936661c-.953403 0-1.7263186.7787516-1.7263186 1.7393585v28.5213265c0 .9606069.7729156 1.739315 1.7263186 1.739315h23.6936661c.953403 0 1.7263186-.7787081 1.7263186-1.739315v-9.1525411zm-18.1527596-20.33958h13.5731516c.7349019 0 1.3307012.584793 1.3307012 1.3061189 0 .721326-.5957993 1.3061189-1.3307012 1.3061189h-13.5731516c-.7349019 0-1.3307012-.5847929-1.3307012-1.3061189 0-.7213259.5957993-1.3061189 1.3307012-1.3061189zm10.2063003 17.5336448c-1.1809972.5350298-1.816895.8025666-2.3618171.356614-.4543014-.356614-.3633258-.8914697-.2725276-1.2483013.0907982-.356614-.0125973-1.8195978-.3759674-1.3736888l-1.2591982 2.0870909c-.3635032.356614-.9994009 1.0698855-1.7260968.8023924-.7266515-.2675367-.8174497-1.0698855-.8174497-2.1399452 0-.5348557-.0909756-1.0698855-.1817737-1.6940362-.726696.6241506-1.9984914 2.4074818-3.1794887 4.4581756-.1817294.1783723-.3633257.2674932-.6358977.2674932-.0907538 0-.2725276 0-.3633257-.0891209-.3634129-.1783723-.4543014-.6241507-.272572-.9807647 3.1794886-5.6173126 4.451284-5.4391145 4.905408-5.3499936.272572.089295.8176715.2675367.9994453 1.1591805.181552.7134457.181552 1.5157945.2723501 2.1399452v.445909l.5450996-.6241507c1.0901991-1.2483014 1.816895-2.39712 2.6345665-2.2187041.7266959.1782417.9992234 1.4161376.9992234 1.6836743.0907982.4457348.0907982.8023924.0907982 1.1591805.0907982-.089295.272572-.089295.3633258-.1784158.3633257-.1784158.8176715 0 .9992235.356614.1817737.356701.0000443.80261-.3633258.9808517zm.261882-9.6098568h-10.4681823c-.7349019 0-1.3307012-.584793-1.3307012-1.3061189s.5957993-1.3061189 1.3307012-1.3061189h10.4681823c.7349019 0 1.3307011.584793 1.3307011 1.3061189s-.5957549 1.3061189-1.3307011 1.3061189zm12.1777341-2.2996836c.6427286-.7407871 1.6912324-.8924275 2.4838424-.3737677l.7266959.5348558c.8124817.5316339.996562 1.6794512.3749028 2.4811905zm3.5896994 2.6726676-.0175653-.0129741-3.6043371-2.6561669.0153031-.0176326c.3789837-.4367662.917962-.6872798 1.4787638-.6872798.3671848 0 .7248329.1070147 1.0342653.3095067l.7276717.5355522c.3895406.2548674.6489386.6546704.7292686 1.1251344.0832132.4870517-.0443567.9924327-.3500631 1.3866629zm-3.5574521-2.6760635 3.5487582 2.6151984c.2887178-.3820833.4083034-.8676113.3283283-1.3357678-.078334-.4584477-.3308567-.847976-.7111267-1.0967916l-.7276717-.5355523c-.3011377-.1970062-.6502693-.3014958-1.0086715-.3014958-.5402203-.0000435-1.0599478.2381926-1.4296166.6544091zm2.7829397 3.6602241-7.2140858 9.5013184c-.272572.3567881-.5450995.5350298-.9992235.6241506l-2.9070941.8025666-.0907981-2.9423376c0-.3567446.0907981-.8025665.3633257-1.0700597l7.2590635-9.5603114zm-11.1417389 10.9565089-.091641-2.9702014c0-.2178606.036062-.7584632.3698462-1.0860814l7.2702857-9.5754624.0177427.0131048 3.6065106 2.6577342-.013174.0173714-7.2141301 9.5013619c-.2805118.3672371-.564439.544521-1.0127079.6324663zm7.557451-13.5707059-7.2458008 9.5428094c-.2255539.221692-.3589788.6159657-.3589788 1.057042l.089911 2.9138642 2.8797704-.7950345c.4436557-.0871182.7108162-.2540402.9875133-.6162269l7.2009118-9.4839035z"/></g></svg>