<svg height="60" viewBox="0 0 60 60" width="60" xmlns="http://www.w3.org/2000/svg"><g fill="#49ffa1" fill-rule="nonzero"><rect height="60" opacity=".08" rx="14" width="60"/><path d="m31.3541947 30.7470979c3.8499787-.4250451 6.9664369-3.5433815 7.391445-7.3936953.2718235-2.3786947-.4842486-4.7603548-2.0782648-6.5466247-1.5940162-1.7862698-3.8744742-2.8073746-6.2684441-2.8067776-4.6381317 0-8.3989311 3.7579129-8.3989311 8.3980553v.0040174c0 4.9559131 4.2870381 8.9042524 9.354195 8.3450249zm-1.3517958 1.6529022c-5.3415996 0-16.0023989 3.0368125-16.0023989 9.0680518v3.3991688c0 .6283061.5128 1.1327793 1.1415999 1.1327793h29.7167979c.632 0 1.1416022-.5086287 1.1416022-1.1319482v-3.3999999c.0039977-6.0270838-10.6576015-9.0672207-15.9984011-9.0672207z"/></g></svg>