<svg height="39" viewBox="0 0 150 39" width="150" xmlns="http://www.w3.org/2000/svg"><path d="m122.111284 8.919183v-6.72412c0-1.2035413-.991631-2.19492-2.195473-2.19492-1.204105 0-2.195603.9912513-2.195603 2.19492v26.47398c0 1.2062713.98851 2.19466 2.195603 2.19466 1.199553 0 2.195603-.9955413 2.195603-2.19466v-15.35963l3.656781-.0013c2.084035-.00078 3.77381 1.6965 3.77381 3.78118l.00013 11.579633c0 1.2036713.991501 2.19479 2.195603 2.19479 1.203845 0 2.195473-.9913813 2.195473-2.19479l-.00026-11.579893c0-4.4824-3.61413-8.169863-8.087139-8.169863h-3.734541zm19.605298-8.919183c-1.199424 0-2.195733.9960613-2.195733 2.19466l-.00026 6.72412h-.761474c-1.202284 0-2.195342.9926813-2.195342 2.19479 0 1.2043213.99124 2.19505 2.195342 2.19505h.761474v11.762803c0 3.28133 2.522765 5.79228 5.756809 5.79228h2.387012c1.201894 0 2.195212-.9930713 2.195212-2.19479 0-1.1992513-.997742-2.19531-2.195212-2.19531h-2.275183c-.949111 0-1.477563-.46852-1.477563-1.34784l.000391-22.93109c0-1.2015913-.993322-2.19466-2.195473-2.19466zm3.06071 11.113583c0 1.2043213.991892 2.19505 2.195213 2.19505h.691775c1.203194 0 2.195342-.9911213 2.195342-2.19505 0-1.2034113-.991631-2.19479-2.195342-2.19479h-.691775c-1.202154 0-2.195213.9926813-2.195213 2.19479zm-102.7850362 5.97532c0-4.49592 3.6364959-8.170123 8.1264097-8.170383l.5466577.00039c4.4735166.00377 8.0871397 3.68758 8.0871397 8.169993v5.60482c0 4.48305-3.6137401 8.166483-8.0871397 8.170253l-.5466577.00026c-4.4912011.00403-8.1264097-3.67432-8.1264097-8.170513zm12.3692482.00013c0-2.08533-1.6897755-3.78118-3.7738104-3.78118h-.4311886c-2.0840349 0-3.7732903 1.69637-3.7732903 3.78118v5.60469c0 2.08455 1.6891254 3.78118 3.7732903 3.78118h.4311886c2.084555 0 3.7738104-1.69598 3.7738104-3.78118zm-50.52838562-1.90788c-2.4045656-1.1208613-3.83492584-3.70851-3.83310538-6.54953l.0003901-.54652c.00299075-4.47226 3.68850896-8.084713 8.17205115-8.084973l8.76773115-.00013c1.2022841 0 2.1953429.9913813 2.1953429 2.19479 0 1.2039313-.991371 2.19505-2.1953429 2.19505l-8.76760112.00026c-2.08572529 0-3.78213254 1.68935-3.78213254 3.77273v.43095c0 1.2300613.60920343 2.28683 1.64712483 2.77043l9.26484633 4.31886c2.4050858 1.1209913 3.8347958 3.70877 3.8331054 6.54953l-.0003901.54652c-.0027307 4.472-3.688639 8.084973-8.1719211 8.084973l-8.76773116.00013c-1.2022841 0-2.19547294-.9912513-2.19547294-2.19479 0-1.2039313.99150102-2.19505 2.19547294-2.19505l8.76747106-.00013c2.0857253 0 3.7821326-1.68948 3.7821326-3.77273v-.43108c0-1.2303213-.6093335-2.28657-1.6471249-2.77043zm62.70283182-15.18114c-1.1995534 0-2.195863.9960613-2.195863 2.19466l-.0001301 6.72412h-.7616031c-1.2022841 0-2.1952128.9926813-2.1952128 2.19479 0 1.2043213.9912409 2.19505 2.1952128 2.19505h.7616031v11.762803c0 3.28133 2.5226354 5.79228 5.7566799 5.79228h2.3871412c1.201894 0 2.1952128-.9930713 2.1952128-2.19479 0-1.1992513-.9978726-2.19531-2.1952128-2.19531h-2.275183c-.9491104 0-1.4776922-.46852-1.4776922-1.34784l.0003901-22.93109c0-1.2015913-.9933215-2.19466-2.1953429-2.19466zm3.0605808 11.113583c0 1.2043213.9920212 2.19505 2.1952129 2.19505h.6917742c1.2033244 0 2.1954729-.9911213 2.1954729-2.19505 0-1.2034113-.991631-2.19479-2.1954729-2.19479h-.6917742c-1.202024 0-2.1952129.9926813-2.1952129 2.19479zm-44.6658592-2.19427c-1.1955224 0-2.1950828.9984013-2.1950828 2.19466l-.00013 25.6906c0 1.2066613.9883802 2.19466 2.1956029 2.19466 1.1994234 0 2.195603-.9955413 2.195603-2.19466v-23.49516l3.656781-.00156c2.0840348-.00273 3.7739404 1.69624 3.7739404 3.78118v5.60495c0 2.08494-1.6900356 3.78378-3.7739404 3.78118l-.5958101-.00078c-1.2039745-.00156-2.1954729.9913813-2.1954729 2.19505 0 1.2035413.991631 2.19479 2.1954729 2.19479l.6735697-.00013c4.4735166-.00377 8.0871397-3.68758 8.0871397-8.169993v-5.60521c0-4.4824-3.6140002-8.170123-8.0871397-8.169993l-5.9305337.00039zm67.4267916-8.918923c-1.2043646 0-2.195603.9909913-2.195603 2.19505 0 1.2040613.991501 2.19505 2.195603 2.19505 1.2042346 0 2.1954729-.9912513 2.1954729-2.19505 0-1.2036713-.9912409-2.19505-2.1954729-2.19505zm0 8.919703c-1.2043646 0-2.195603.9907313-2.195603 2.19466v17.55481c0 1.2039313.9916311 2.19492 2.195603 2.19492 1.2038445 0 2.1954729-.9913813 2.1954729-2.19492v-17.55481c0-1.2018513-.9931914-2.19466-2.1954729-2.19466zm-12.1813509-8.920093c-1.1994234 0-2.195733.9959313-2.195733 2.19466l-.0006502 22.87675c0 3.2825 2.5227654 5.79228 5.7568099 5.79228h.9298655c1.201894 0 2.1952129-.9930713 2.1952129-2.19479 0-1.1992513-.9968324-2.19531-2.1952129-2.19531h-.8180373c-.9500206 0-1.4775622-.46852-1.4775622-1.34784l.0007802-22.93109c0-1.2015913-.9933214-2.19466-2.1954729-2.19466zm21.6003905 39c-1.202415 0-2.1952133-.9908613-2.1952133-2.19505 0-1.2021113.9929313-2.19479 2.1952133-2.19479l4.318257.00013c2.084035 0 3.773811-1.69611 3.773811-3.78118l-.00013-17.51971-3.656911-.00156c-2.083775-.00091-3.773811 1.69637-3.773811 3.78118v5.60495c0 2.08494 1.690036 3.78378 3.773811 3.78118l.59594-.00078c1.203974-.00156 2.195343.9913813 2.195343 2.19505 0 1.2035413-.991631 2.19479-2.195343 2.19479l-.67357-.00013c-4.473647-.00377-8.0872698-3.68758-8.0872698-8.169993v-5.60521c0-4.4824 3.6139998-8.170123 8.0872698-8.169993l5.930534.00039c1.195522 0 2.194952.9985313 2.194952 2.19466l.000261 19.71528c0 4.48188-3.614781 8.169473-8.08727 8.169993l-4.395887.00078z" fill="#68b92e" fill-rule="evenodd"/></svg>