<svg fill="none" height="96" viewBox="0 0 96 96" width="96" xmlns="http://www.w3.org/2000/svg" xmlns:xlink="http://www.w3.org/1999/xlink"><filter id="a" color-interpolation-filters="sRGB" filterUnits="userSpaceOnUse" height="92" width="92" x="2.5" y="6"><feFlood flood-opacity="0" result="BackgroundImageFix"/><feColorMatrix in="SourceAlpha" result="hardAlpha" type="matrix" values="0 0 0 0 0 0 0 0 0 0 0 0 0 0 0 0 0 0 127 0"/><feOffset dy="4"/><feGaussianBlur stdDeviation="8"/><feComposite in2="hardAlpha" operator="out"/><feColorMatrix type="matrix" values="0 0 0 0 0 0 0 0 0 0 0 0 0 0 0 0 0 0 0.12 0"/><feBlend in2="BackgroundImageFix" mode="normal" result="effect1_dropShadow"/><feBlend in="SourceGraphic" in2="effect1_dropShadow" mode="normal" result="shape"/></filter><linearGradient id="b" gradientUnits="userSpaceOnUse" x1="48.5" x2="48.5" y1="18" y2="78"><stop offset="0" stop-color="#fff" stop-opacity=".83"/><stop offset="1" stop-color="#fff" stop-opacity=".36"/></linearGradient><linearGradient id="c" gradientUnits="userSpaceOnUse" x1="34.5" x2="58.5" y1="18.5" y2="81.5"><stop offset="0" stop-color="#fff" stop-opacity=".61"/><stop offset=".480861" stop-color="#fff" stop-opacity="0"/><stop offset="1" stop-color="#fff" stop-opacity=".54"/></linearGradient><linearGradient id="d" gradientUnits="userSpaceOnUse" x1="39.5" x2="49.0098" y1="38.5" y2="59.1988"><stop offset="0" stop-color="#fff"/><stop offset="1" stop-color="#fff" stop-opacity="0"/></linearGradient><clipPath id="e"><path d="m0 0h96v96h-96z"/></clipPath><g clip-path="url(#e)"><g filter="url(#a)"><circle cx="48.5" cy="48" fill="url(#b)" r="29.5" stroke="url(#c)"/><path clip-rule="evenodd" d="m36.5802 44.2833 8.2864 8.2864 16.5728-16.5728 3.3146 3.3146-19.8874 19.8873-11.601-11.6009z" fill="#29cd97" fill-rule="evenodd" stroke="url(#d)"/></g><g clip-rule="evenodd" fill="#fff" fill-rule="evenodd"><path d="m75.2383 14.4896-3.5814-1.4185 3.5814-1.4186 1.4186-3.58143 1.4185 3.58143 3.5815 1.4186-3.5815 1.4185-1.4185 3.5815z"/><path d="m87.4476 25.2803-1.7907-.7092 1.7907-.7093.7093-1.7907.7092 1.7907 1.7908.7093-1.7908.7092-.7092 1.7908z" fill-opacity=".6"/><path d="m8.52202 71.2059-2.86516-1.1349 2.86516-1.1348 1.13484-2.8652 1.13484 2.8652 2.8652 1.1348-2.8652 1.1349-1.13484 2.8651z" fill-opacity=".74"/></g></g></svg>