<svg fill="none" height="40" viewBox="0 0 40 40" width="40" xmlns="http://www.w3.org/2000/svg"><path d="m.497967 26.2176.335663-.7283 11.02047-16.44492c.4661-.69613 1.8132-1.0411 2.9989-.77049l9.5097 1.6569 15.0455 1.57191v2.7826h-.002c0 .1652-.0491.3326-.1574.4937l-13.3714 19.9503c-.466.6961-1.8112 1.0411-2.9988.7705l-20.91288-5.2397c-.90968-.2066-1.46572-.7189-1.46572-1.2601h-.002033z" fill="#fff"/><path d="m26 35c-.4824.0888-1.4951.6157-2 .5l-22.43878-5.2504c-.909683-.2066-1.4657095-.7189-1.4657095-1.2601h-.0020466v-2.7824l1.6476561-1.7208 24.83508 3.7188-.5742 6.7928z" fill="#ebe9e9"/><path d="m.239719 26.1484 1.660291-.8952 10.10499-16.26936c.4661-.69614 1.8133-1.04111 2.9989-.7705l9.5098 1.59124 14.7695 1.53782v3.2498h-.002c0 .1653-.0491.3326-.1574.4937l-13.1004 19.6937c-.4661.6962-1.8061.8646-2.9938.594l-21.32213-5.1827c-.909679-.2066-1.465717-.7189-1.465717-1.2601h-.002034z" stroke="#000" stroke-miterlimit="10" stroke-width=".321703"/><path d="m.392853 25.8851c-.4660837.6961.120601 1.4831 1.308297 1.7537l21.08695 5.0729c1.1877.2706 2.5328-.0743 2.9989-.7705l13.3713-19.9503c.4661-.6962-.1206-1.4833-1.3083-1.7539l-21.368-4.28147c-1.1877-.27061-2.5328.07436-2.9988.77049z" fill="#fff" stroke="#000" stroke-miterlimit="10" stroke-width=".321703"/><path d="m3.88079 24.1527c-.5042.7461.12947 1.5875 1.4172 1.877l15.95021 3.5975c1.2878.2896 2.7424-.0816 3.2466-.8277l10.2304-15.1055c.5042-.7461-.1295-1.5874-1.4172-1.877l-15.9502-3.59751c-1.2844-.28957-2.7424.08182-3.2466.82789z" fill="#01bc8d"/><g stroke-miterlimit="10" stroke-width=".468006"><path d="m17.2361 20.7836c-.2181.3203-.0613.6576.3475.7496.4088.0919.9198-.0955 1.1344-.4157l1.1413-1.6829.7767-1.1481c.218-.3203.0613-.6574-.3475-.7494s-.9198.0953-1.1344.4155l-.9812 1.4514" stroke="#fff"/><path d="m22.0956 18.653c.6507-.9607.1806-1.969-1.0424-2.245-.419-.0953-.8721-.0919-1.315-.0068-.8517.1601-1.6591.62-2.0883 1.2503l-.4599.678-1.4172 2.0916" stroke="#fff"/><path d="m16.8174 22.6676c1.223.276 2.756-.2829 3.4033-1.2436l1.0391-1.5363" stroke="#fff"/><path d="m23.7676 16.6001c-.3441-.6098-1.0186-1.0834-1.9623-1.298-1.3661-.3066-2.9604.0102-4.1936.7324-.6064.3577-1.1243.8109-1.482 1.3389l-1.7953 2.6504c-.5417.8006-.6166 1.6216-.3032 2.2995" stroke="#fff"/><path d="m21.7437 21.6997 1.7954-2.6538" stroke="#fff"/><path d="m16.0675 23.7711c1.3524.3066 2.9366-.0034 4.163-.7154" stroke="#fff"/><path d="m16.709 15.1797c-.8483.4974-1.5705 1.1344-2.0713 1.8737l-.8994 1.3286-2.1053 3.1103" stroke="#fff"/><path d="m25.0104 19.3965c.9471-1.4001.8755-2.8446-.0068-3.8904-.5314-.6269-1.3525-1.1107-2.4222-1.3526-1.0697-.2418-2.2416-.2078-3.3658.0443" stroke="#fff"/><path d="m22.0025 23.8352 1.9487-2.8752" stroke="#fff"/><path d="m28.8153 12.2734 2.9264.6609c.7835.1772 1.1685.6882.8619 1.1413l-1.8737 2.7696" stroke="#000"/><path d="m25.1934 25.0146-1.8737 2.7663c-.3066.4531-1.1924.678-1.9759.5042l-2.9264-.6609" stroke="#000"/><path d="m13.2455 12.9005 1.8737-2.7663c.3066-.45312 1.1958-.67795 1.9759-.50421l2.9264.66091" stroke="#000"/><path d="m9.625 25.6417-2.92638-.6609c-.78014-.1771-1.16849-.6882-.86189-1.1413l1.8737-2.7663" stroke="#000"/></g></svg>