<svg fill="none" height="24" viewBox="0 0 24 24" width="24" xmlns="http://www.w3.org/2000/svg" xmlns:xlink="http://www.w3.org/1999/xlink"><mask id="a" height="22" maskUnits="userSpaceOnUse" width="18" x="3" y="0"><path d="m3 .135742h18v21.736158h-18z" fill="#737e8d"/></mask><g mask="url(#a)"><path clip-rule="evenodd" d="m16.6244 13.1682c0 1.1082-.8984 2.0066-2.0066 2.0066h-4.71473-.16488l-1.27489 1.2436c-.28249.2756-.75728.0755-.75728-.3192v-1.5932-6.24292c0-1.10822.89842-2.00664 2.00664-2.00664h4.90514c1.1082 0 2.0066.89842 2.0066 2.00664zm2.81-1.9308c-.0817-.0739-.1283-.1791-.1283-.2893s.0466-.2154.1283-.2893c.9949-.90066 1.5656-2.18012 1.5656-3.51052 0-2.61253-2.1254-4.7379-4.7379-4.7379h-1.1486v-1.828718c0-.245256-.2006-.44592-.4459-.44592h-.5865c-.2452 0-.4459.200664-.4459.44592v1.828718h-2.9751v-1.828718c0-.245256-.2006-.44592-.4459-.44592h-.58649c-.24526 0-.44592.200664-.44592.44592v1.828718h-1.95168-.27658-2.24242c-.94502 0-1.71111.76609-1.71111 1.71111 0 .69073.41002 1.28436.99931 1.55459v10.54402c-.58929.2702-.99931.8638-.99931 1.5546 0 .945.76609 1.7111 1.71111 1.7111h2.24242.27658 1.94287v1.9402c0 .2452.20067.4459.44592.4459h.5865c.2453 0 .4459-.2007.4459-.4459v-1.9402h2.9751v1.9402c0 .2452.2007.4459.4459.4459h.5866c.2452 0 .4459-.2007.4459-.4459v-1.9402h1.1573c2.6125 0 4.7379-2.1255 4.7379-4.7379 0-1.3305-.5707-2.61-1.5656-3.5105z" fill="#58ccb6" fill-rule="evenodd"/></g><g clip-rule="evenodd" fill="#58ccb6" fill-rule="evenodd"><path d="m10.5731 11.4422c-.4082 0-.73912-.331-.73912-.7392 0-.4083.33092-.73913.73912-.73913s.7392.33083.7392.73913c0 .4082-.331.7392-.7392.7392z"/><path d="m13.87 11.4422c-.4083 0-.7391-.331-.7391-.7392 0-.4083.3308-.73913.7391-.73913.4082 0 .7392.33083.7392.73913 0 .4082-.331.7392-.7392.7392z"/></g></svg>