<svg fill="none" height="40" viewBox="0 0 40 40" width="40" xmlns="http://www.w3.org/2000/svg" xmlns:xlink="http://www.w3.org/1999/xlink"><clipPath id="a"><path d="m0 0h40v40h-40z"/></clipPath><mask id="b" height="33" maskUnits="userSpaceOnUse" width="31" x="6" y="4"><path d="m30.9438 5.86198 1.3977 1.30022-.0049.00555.0996.08427c2.6316 2.22694 4.0094 5.95668 3.4368 10.54698-.5348 4.2879-2.6701 8.5039-5.6944 11.8517-3.0245 3.348-6.9303 5.819-10.9967 6.6278-3.929.7815-7.2815-.1321-9.57628-2.2364l-.02952-.0271-.00536-.0051-.00097-.0009c-.04629-.0429-.09215-.0863-.13758-.1302l-.00096-.0009-1.90714-1.8047.22857.0117.2371.012-.12095-.2043c-1.27235-2.149-1.82852-4.9422-1.42749-8.1574.53484-4.2878 2.67012-8.5038 5.69448-11.8516 3.0245-3.34803 6.9303-5.81902 10.9966-6.62787 2.9497-.58673 5.5741-.2177 7.6689.89162l.2652.14048-.0831-.28843z" fill="#d9d9d9" stroke="#000" stroke-width=".254926"/></mask><mask id="c" height="25" maskUnits="userSpaceOnUse" width="23" x="7" y="6"><path d="m29.3078 16.144c-.7847 6.2906-6.2589 12.3438-12.2179 13.5291-5.959 1.1854-10.16332-2.9427-9.37868-9.2332.78465-6.2906 6.25888-12.34384 12.21788-13.52916s10.1633 2.94275 9.3787 9.23326z" fill="#66dd8c" stroke="#000" stroke-width=".254926"/></mask><g clip-path="url(#a)"><g mask="url(#b)"><path d="m19.2068 36.4035c8.1972-1.6305 15.7156-9.953 16.7927-18.5887.5768-4.6237-.8099-8.39972-3.481-10.66008l.001-.00108-1.8255-1.69814.1669.57921c-2.1243-1.12496-4.7792-1.49559-7.7533-.90399-8.1972 1.63052-15.71559 9.95298-16.79276 18.58868-.40393 3.2384.15526 6.0609 1.44429 8.2382-.20924-.0107-.40418-.0206-.57357-.0292l2.15806 2.0421c.04606.0445.09257.0885.13951.132l.03601.0341.00034-.0006c2.32932 2.136 5.72502 3.0557 9.68732 2.2675z" fill="#c2c8cf"/><g fill="#000"><path clip-rule="evenodd" d="m32.1973 7.16912-1.0511-.97781.0869.3016-.4802-.25429c-2.0708-1.09665-4.6705-1.46439-7.6003-.8816-4.0403.80366-7.9273 3.26066-10.9402 6.59578-3.01255 3.3347-5.1368 7.5317-5.6686 11.7952-.39869 3.1963.15503 5.9658 1.41388 8.092l.21894.3698-.37825-.0192 1.70558 1.6139c.04491.0435.09025.0864.13602.1288l.00175.0016.00474.0045.02896.0266c2.26678 2.0786 5.58428 2.9874 9.48638 2.2112 4.0402-.8036 7.9273-3.2606 10.9402-6.5958 3.0125-3.3347 5.1368-7.5317 5.6686-11.7952.5692-4.5633-.8016-8.25549-3.4011-10.45535l-.1803-.15255zm-22.67826 26.96738-.03591-.034c-.04579-.0424-.09117-.0853-.13612-.1287-.00113-.0011-.00226-.0022-.00339-.0033l-2.15806-2.0421.57357.0292c-.04647-.0785-.092-.1579-.13656-.238-1.19154-2.1433-1.6971-4.8786-1.30773-8.0002 1.07717-8.6357 8.59556-16.95816 16.79276-18.58868 2.8442-.56576 5.3965-.25151 7.472.76092.0947.04624.1885.09393.2813.14307l-.1669-.57921 1.8254 1.69812-.0009.0011c.0191.01614.0381.03235.057.04864.0394.03387.0785.06807.1173.1026 2.5568 2.27553 3.8708 5.98684 3.3067 10.50884-1.0771 8.6357-8.5955 16.9582-16.7927 18.5887-3.8639.7686-7.1889-.0869-9.51175-2.1105-.0584-.0509-.11616-.1025-.17328-.1549-.00073-.0006-.00146-.0013-.00218-.002-.00004 0 .00003.0001 0 0z" fill-rule="evenodd"/><path d="m22.7516 29.2334 4.8063 4.6011-14.8267 5.2266-7.36011-8.7467z"/><path d="m25.3945 28.4143 3.4574 3.5182 1.7219-1.539-3.5982-3.8408z"/><path clip-rule="evenodd" d="m32.1973 7.16912-1.0511-.97781.0869.3016-.4802-.25429c-2.0708-1.09665-4.6705-1.46439-7.6003-.8816-4.0403.80366-7.9273 3.26066-10.9402 6.59578-3.01255 3.3347-5.1368 7.5317-5.6686 11.7952-.39869 3.1963.15503 5.9658 1.41388 8.092l.21894.3698-.37825-.0192 1.70558 1.6139c.04491.0435.09025.0864.13602.1288l.00175.0016.00474.0045.02896.0266c2.26678 2.0786 5.58428 2.9874 9.48638 2.2112 4.0402-.8036 7.9273-3.2606 10.9402-6.5958 3.0125-3.3347 5.1368-7.5317 5.6686-11.7952.5692-4.5633-.8016-8.25549-3.4011-10.45535l-.1803-.15255zm-22.67826 26.96738-.03591-.034c-.04579-.0424-.09117-.0853-.13612-.1287-.00113-.0011-.00226-.0022-.00339-.0033l-2.15806-2.0421.57357.0292c-.04647-.0785-.092-.1579-.13656-.238-1.19154-2.1433-1.6971-4.8786-1.30773-8.0002 1.07717-8.6357 8.59556-16.95816 16.79276-18.58868 2.8442-.56576 5.3965-.25151 7.472.76092.0947.04624.1885.09393.2813.14307l-.1669-.57921 1.8254 1.69812-.0009.0011c.0191.01614.0381.03235.057.04864.0394.03387.0785.06807.1173.1026 2.5568 2.27553 3.8708 5.98684 3.3067 10.50884-1.0771 8.6357-8.5955 16.9582-16.7927 18.5887-3.8639.7686-7.1889-.0869-9.51175-2.1105-.0584-.0509-.11616-.1025-.17328-.1549-.00073-.0006-.00146-.0013-.00218-.002-.00004 0 .00003.0001 0 0z" fill-rule="evenodd"/></g></g><path d="m33.2245 15.3543c-1.069 8.5707-8.5285 16.8215-16.6519 18.4373-8.12346 1.6159-13.8518-4.0117-12.78274-12.5824 1.06906-8.5708 8.52854-16.82153 16.65194-18.43739 8.1234-1.61585 13.8518 4.0117 12.7827 12.58249z" fill="#fff" stroke="#000" stroke-width=".254926"/><g mask="url(#c)"><path d="m29.3078 16.144c-.7847 6.2906-6.2589 12.3438-12.2179 13.5291-5.959 1.1854-10.16332-2.9427-9.37868-9.2332.78465-6.2906 6.25888-12.34384 12.21788-13.52916s10.1633 2.94275 9.3787 9.23326z" fill="#01bc8d" stroke="#000" stroke-width=".254926"/><path d="m29.9144 16.8209c-.744 5.9644-5.9319 11.6943-11.5693 12.8157-5.6374 1.1213-9.62354-2.7838-8.87957-8.7482s5.93197-11.69427 11.56927-12.81561c5.6374-1.12135 9.6236 2.78371 8.8796 8.74811z" stroke="#fff" stroke-width=".509853"/><path d="m29.3078 16.144c-.7847 6.2906-6.2589 12.3438-12.2179 13.5291-5.959 1.1854-10.16332-2.9427-9.37868-9.2332.78465-6.2906 6.25888-12.34384 12.21788-13.52916s10.1633 2.94275 9.3787 9.23326z" stroke="#000" stroke-width=".254926"/></g><path d="m16.1507 14.3883 2.3213-.1217.6312-1.8897.3764-.5776.95.5081-.6312 1.8897.9949-.0521 1.0079-2.4677.9497.5084-.6312 1.8898c3.3155-.1738 2.5746 2.9328.8786 3.6967-.1007.0453.044.1793.044.1793 1.959.4313.7189 4.7025-3.8682 4.9429l-.6312 1.8898-1.3265.0695-.8083-.5063 1.4395-1.3835-.9948.0521-.6312 1.8898-1.3265.0695-.9376-.52 1.5689-1.3697-2.3213.1216-.9377-.5219 1.6901-.7553.6632-.0348c.3648-.0191.7579-.3182.8736-.6647l1.6833-5.0393c.1157-.3465-.0881-.6143-.4529-.5952l-.9948.0521-.9533-.5038zm3.2269 1.0687-.8416 2.5197s2.9319.001 3.4053-1.4163-2.5637-1.1034-2.5637-1.1034zm-1.1572 3.4645-.9468 2.8347s3.6477-.1912 4.1211-1.6085-3.1743-1.2262-3.1743-1.2262z" fill="#000"/><path d="m18.0969 22.3947-.5908 1.7689-1.0719.0562.5908-1.7689.0404-.1209-.1273.0067-.9948.0521-.1273.0067-.0404.1209-.5908 1.7689-1.0719.0561.5909-1.7688.0403-.1209-.1273.0066-2.1582.1131.608-1.0321.5638-.0295c.4351-.0228.9033-.379 1.0413-.7923l1.6833-5.0393c.138-.4133-.1047-.7322-.5398-.7094l-.8675.0454.34-1.018 2.194-.115.1273-.0067.0404-.1209.5908-1.7688 1.0719-.0562-.5908 1.7689-.0404.1209.1273-.0067.9948-.0522.1273-.0066.0404-.1209.5908-1.7689 1.0719-.0562-.5909 1.7689-.0403.1209.1272-.0067c1.7684-.0926 2.3206.7715 2.2129 1.6651-.0545.452-.2772.9127-.5997 1.2718-.3201.3566-.7378.6132-1.2001.6724l-.062.2402c.6278-.0688 1.0394.1682 1.2334.5725.1952.4066.1689.9823-.0884 1.5779-.2565.5938-.7411 1.2036-1.4588 1.6814-.7178.4779-1.6813.8319-2.9021.8959l-.1273.0066zm.3308-7.4441.0333-.1203-.1223.0126-.0382.1144-.8417 2.5197-.0382.1144h.1182l.0473-.1211-.0473.1211h.0002.0005.0019.0068l.0257-.0003c.0223-.0004.0548-.0011.0962-.0025.0828-.0028.2012-.0084.3447-.0196.2863-.0223.6752-.0673 1.0811-.1579.4037-.0902.836-.2281 1.2032-.4423.3729-.2176.6851-.5186.8196-.9214.1346-.4028.0159-.6812-.2223-.8668-.2347-.1827-.5885-.2794-.9453-.3297-.3588-.0506-.731-.0556-1.0123-.0482-.141.0037-.2598.0105-.3436.0165-.042.0029-.0752.0057-.0981.0077l-.0264.0024-.007.0007-.0019.0002-.0005.0001h-.0002zm-1.1572 3.4646.0404-.1209-.1273.0067-.0404.1209-.9468 2.8346-.0404.1209.1273-.0066.0404-.1209-.0403.1209.0002-.0001h.0006l.0022-.0001.0083-.0005.0315-.0019c.0274-.0018.0675-.0046.1185-.0087.1021-.0081.2481-.0212.4247-.0415.3528-.0404.8298-.1094 1.3233-.2238.4913-.1138 1.0098-.2749 1.4407-.504.4322-.2298.8008-.5424.9387-.9555.138-.4131-.0312-.6975-.3225-.8894-.2905-.1913-.7179-.3028-1.1493-.3683-.4334-.0657-.8805-.0863-1.2183-.0906-.1691-.0021-.3114-.0002-.4116.0023-.0501.0013-.0897.0027-.1169.0037l-.0313.0014-.0082.0004-.0022.0001h-.0006-.0002z" fill="#fff" stroke="#000" stroke-width=".254926"/></g></svg>