<svg fill="none" height="24" viewBox="0 0 24 24" width="24" xmlns="http://www.w3.org/2000/svg"><circle cx="12" cy="12" fill="#58ccb6" r="10"/><g fill="#181e29"><path d="m5.56379 15.4482c.03556-.8533.39111-1.6355 1.03111-2.2755l1.03112-1.0311c.32-.32.85333-.32 1.17333 0s.32.8533 0 1.1733l-1.03111 1.0311c-.32.32-.53334.7467-.53334 1.1734 0 .2844.03556.7111.39112 1.0666.32.32.71111.3911.99555.3911.42667 0 .88889-.2133 1.24445-.5333l2.59558-2.5956c.64-.64.7111-1.6355.1422-2.2044-.32-.32-.32-.8533 0-1.1733s.8533-.32 1.1733 0c.6045.6044.8889 1.3511.8889 2.1689 0 .8533-.3555 1.7422-1.0311 2.4177l-2.5956 2.5956c-.64.64-1.52884 1.0311-2.41773 1.0311-.81778 0-1.6-.32-2.16889-.8889-.64-.64-.96-1.4933-.88889-2.3467z"/><path d="m15.1653 11.0759c.0355 0 .0355 0 0 0l.7111-.7111.3555-.3555c.32-.32005.5334-.71116.5689-1.13782 0-.28445-.0355-.71112-.3911-1.06667-.32-.32-.7111-.39111-.9955-.39111-.4267 0-.8889.17778-1.2445.53333l-2.5955 2.59557c-.64.64-.7112 1.6355-.1423 2.2044.32.32.32.8534 0 1.1734s-.8533.32-1.1733 0c-.60444-.6045-.88889-1.3511-.88889-2.1689 0-.8534.35556-1.7422 1.03109-2.4178l2.5956-2.59556c.64-.64 1.5289-1.03111 2.4178-1.03111.8177 0 1.6.32 2.1688.88889.6045.60444.9245 1.45778.8889 2.31111-.0355.85333-.3911 1.63557-1.0311 2.27557l-.3555.3555-.6756.7112c-.32.32-.8533.32-1.1733 0-.3556-.32-.3911-.8534-.0711-1.1734z"/></g></svg>