<svg fill="none" height="24" viewBox="0 0 24 24" width="24" xmlns="http://www.w3.org/2000/svg"><path d="m19.3957 13.9574c-.3542.2131-.7675.2519-1.0823.0775-.3936-.2326-.6297-.7558-.6297-1.4729v-2.1899c0-1.04652-.4133-1.80233-1.1217-1.99613-1.2004-.34884-2.1056 1.10465-2.4401 1.64733l-2.1253 3.3527v-4.12794c-.0197-.94961-.3345-1.51162-.9249-1.68604-.3935-.11628-.9839-.05814-1.55456.79457l-4.74249 7.48061c-.62971-1.1822-.96424-2.5-.96424-3.8372 0-4.5155 3.67985-8.1783 8.18619-8.1783 4.5064 0 8.1862 3.6628 8.1862 8.1783v.0194.0194c.0394.8721-.2361 1.5697-.7871 1.9186zm2.5975-1.9574v-.0194-.0194c-.0197-5.48446-4.5063-9.9612-9.9966-9.9612-5.50993 0-9.9966 4.47674-9.9966 10 0 5.5039 4.48667 10 9.9966 10 2.5385 0 4.9393-.9496 6.789-2.6744.3739-.3489.3936-.9109.0394-1.2791-.3345-.3682-.9052-.3876-1.2791-.0581 0 0 0 0-.0197.0194-1.4955 1.3953-3.5027 2.1899-5.5689 2.1899-2.42048 0-4.58511-1.0465-6.08066-2.7132l4.27016-6.7442v3.1202c0 1.4922.5904 1.9767 1.0824 2.1124.4919.1356 1.2397.0387 2.0465-1.221l2.3417-3.7403c.0787-.1163.1378-.2325.2165-.3101v1.8993c0 1.3953.5707 2.5194 1.5546 3.062.8855.5039 2.0072.4457 2.9321-.1163 1.1413-.7364 1.7513-2.0155 1.6726-3.5465z" fill="#58ccb6"/></svg>