<svg fill="none" height="100" viewBox="0 0 101 100" width="101" xmlns="http://www.w3.org/2000/svg" xmlns:xlink="http://www.w3.org/1999/xlink"><mask id="a" height="26" maskUnits="userSpaceOnUse" width="68" x="18" y="69"><path d="m20.66 83.9621c-1.752-.6381-2.4201-1.5275-2.0042-2.3566.2564-.511 5.6629-5.2677 6.7427-5.66l21.5149-5.2853c2.8319-1.0313 7.4667-1.0313 10.2888 0l21.666 5.3573c1.0807.3923 6.3343 5.077 6.5909 5.588.4163.8291-.2524 1.7185-2.006 2.3566l-26.2509 9.5538c-2.8319 1.0313-7.4667 1.0313-10.2888 0z" fill="#fff" stroke="#000" stroke-linecap="round" stroke-miterlimit="10" stroke-width=".240622"/></mask><mask id="b" height="67" maskUnits="userSpaceOnUse" width="75" x="20" y="6"><path d="m94.7373 17.6834c0-1.5778-1.548-3.0632-4.0748-3.6718l-31.3544-7.5689c-3.29-.79341-6.994.20286-8.2747 2.22469l-29.94 47.25721c-.2756.4188-.4257.9139-.4312 1.4223l-.0216 3.9242c0 1.5778 1.5437 3.0699 4.0748 3.6807l31.3544 7.5667c3.2879.7934 6.994-.2028 8.2746-2.2224l29.9423-47.2572c.2753-.4182.4254-.9125.4312-1.4201l.0215-3.9242s-.0021-.0067-.0021-.0112z" fill="#fff" stroke="#000" stroke-linecap="round" stroke-miterlimit="10" stroke-width=".240622"/></mask><mask id="c" height="67" maskUnits="userSpaceOnUse" width="75" x="20" y="6"><path d="m94.7373 17.6834c0-1.5778-1.548-3.0632-4.0748-3.6718l-31.3544-7.5689c-3.29-.79341-6.994.20286-8.2747 2.22469l-29.94 47.25721c-.2756.4188-.4257.9139-.4312 1.4223l-.0216 3.9242c0 1.5778 1.5437 3.0699 4.0748 3.6807l31.3544 7.5667c3.2879.7934 6.994-.2029 8.2746-2.2224l29.9423-47.2573c.2753-.4181.4254-.9124.4312-1.42l.0215-3.9242s-.0021-.0067-.0021-.0112z" fill="#fff" stroke="#000" stroke-linecap="round" stroke-miterlimit="10" stroke-width=".3"/></mask><mask id="d" height="31" maskUnits="userSpaceOnUse" width="47" x="0" y="21"><path d="m20.8246 49.0622c-9.0224-2.9062-17.09551-9.5755-19.75929-22.9581 1.34223-.1455 2.80193-.2636 4.35525-.3892 6.26074-.5064 14.04244-1.1358 21.78324-4.1776 1.707 9.7518 6.3719 20.0787 18.893 27.9279-6.4683 1.6621-16.3375 2.4748-25.2722-.403z" fill="#fff" stroke="#000" stroke-linecap="round" stroke-width=".240622"/></mask><mask id="e" height="20" maskUnits="userSpaceOnUse" width="21" x="80" y="47"><path d="m85.5853 66.655-4.5076-9.176 4.5146-8.1928 10.6864-1.4502 4.5073 9.1753-4.5136 8.1914z" fill="#fff" stroke="#000" stroke-width=".240622"/></mask><path d="m20.66 83.9621c-1.752-.6381-2.4201-1.5275-2.0042-2.3566.2564-.511 5.6629-5.2677 6.7427-5.66l21.5149-5.2853c2.8319-1.0313 7.4667-1.0313 10.2888 0l21.666 5.3573c1.0807.3923 6.3343 5.077 6.5909 5.588.4163.8291-.2524 1.7185-2.006 2.3566l-26.2509 9.5538c-2.8319 1.0313-7.4667 1.0313-10.2888 0z" fill="#fff" stroke="#000" stroke-linecap="round" stroke-miterlimit="10" stroke-width=".240622"/><g mask="url(#a)"><path d="m52.2404 98.0746c1.5353 0 3.0686-.2012 4.2256-.6338l28.4357-10.4953c1.163-.4226 1.7445-.982 1.7445-1.5394v-9.3029s-8.6736-.9025-6.9502.2269c2.2941 1.5033-1.594 3.0141-1.594 3.0141l-22.7789 8.3349c-1.6983.6197-3.0887 2.6058-3.0887 4.4127z" fill="#ebe9e9"/><path d="m39.0429 89.2036-9.9244-3.5052c-1.1495-.406-2.4267-.1989-3.389.5496l14.9853 5.3192c0-1.0626-.67-2.0097-1.6719-2.3636z" fill="#f66754"/><path d="m20.66 83.9621c-1.752-.6381-2.4201-1.5275-2.0042-2.3566.2564-.511 5.6629-5.2677 6.7427-5.66l21.5149-5.2853c2.8319-1.0313 7.4667-1.0313 10.2888 0l21.666 5.3573c1.0807.3923 6.3343 5.077 6.5909 5.588.4162.8291-.2524 1.7185-2.006 2.3566l-26.2509 9.5538c-2.8319 1.0313-7.4667 1.0313-10.2888 0z" stroke="#000" stroke-linecap="round" stroke-miterlimit="10" stroke-width=".3"/></g><path d="m26.396 78.4764c-2.3145-.8429-2.3145-2.2224 0-3.0633l21.4568-7.8083c2.3145-.8429 6.1025-.8429 8.409 0l21.4548 7.8083c2.3164.8409 2.3164 2.2204 0 3.0633l-21.4548 7.8083c-2.3145.8429-6.1025.8429-8.409 0z" fill="#fff" stroke="#000" stroke-linecap="round" stroke-miterlimit="10" stroke-width=".3"/><path d="m31.2082 78.1885c-1.8805-.6849-1.8805-1.8057 0-2.4889l17.4335-6.3442c1.8805-.6848 4.9582-.6848 6.8322 0l17.4319 6.3442c1.8821.6832 1.8821 1.804 0 2.4889l-17.4319 6.3442c-1.8805.6848-4.9582.6848-6.8322 0z" stroke="#ebe9e9" stroke-linecap="round" stroke-miterlimit="10" stroke-width=".481244"/><path d="m94.7373 17.6834c0-1.5778-1.548-3.0632-4.0748-3.6718l-31.3544-7.5689c-3.29-.79341-6.994.20286-8.2747 2.22469l-29.94 47.25721c-.2756.4188-.4257.9139-.4312 1.4223l-.0216 3.9242c0 1.5778 1.5437 3.0699 4.0748 3.6807l31.3544 7.5667c3.2879.7934 6.994-.2028 8.2746-2.2224l29.9423-47.2572c.2753-.4182.4254-.9125.4312-1.4201l.0215-3.9242s-.0021-.0067-.0021-.0112z" fill="#fff" stroke="#000" stroke-linecap="round" stroke-miterlimit="10" stroke-width=".240622"/><g mask="url(#b)"><path d="m94.7373 17.6834c0-1.5778-1.548-3.0632-4.0748-3.6718l-31.3544-7.5689c-3.29-.79341-6.994.20286-8.2747 2.22469l-29.94 47.25721c-.2756.4188-.4257.9139-.4312 1.4223l-.0216 3.9242c0 1.5778 1.5437 3.0699 4.0748 3.6807l31.3544 7.5667c3.2879.7934 6.994-.2028 8.2746-2.2224l29.9423-47.2572c.2753-.4182.4254-.9125.4312-1.4201l.0215-3.9242s-.0021-.0067-.0021-.0112z" fill="#b8a9a9"/><path d="m21.0934 55.9239c-.2756.4188-.4257.9139-.4312 1.4222l-.0216 3.9243c0 1.5778 1.5437 3.0699 4.0748 3.6807l31.3544 7.5667c1.1579.2746 2.3518.3432 3.5315.2029v-5.9213l-37.2208-12.8951z" fill="#ebe9e9"/><path d="m90.6623 14.0222c3.29.7934 4.9178 3.0767 3.6372 5.0986l-29.9401 47.2572c-1.2785 2.0286-4.9846 3.0181-8.2746 2.2247l-31.3544-7.569c-3.2879-.7934-4.9178-3.0767-3.6371-5.0985l29.94-47.2572c1.2807-2.02859 4.9846-3.01809 8.2746-2.22469z" fill="#fff"/><g fill="#000"><path d="m47.6932 69.0948c.2572 0 .4657-.2179.4657-.4868s-.2085-.4869-.4657-.4869-.4657.218-.4657.4869.2085.4868.4657.4868z"/><path d="m49.2958 69.4835c.2571 0 .4656-.218.4656-.4869s-.2085-.4868-.4656-.4868c-.2572 0-.4657.2179-.4657.4868s.2085.4869.4657.4869z"/><path d="m50.8973 69.8682c.2572 0 .4657-.2179.4657-.4868s-.2085-.4869-.4657-.4869-.4657.218-.4657.4869.2085.4868.4657.4868z"/><path d="m52.4969 70.255c.2572 0 .4657-.218.4657-.4869s-.2085-.4869-.4657-.4869c-.2571 0-.4657.218-.4657.4869s.2086.4869.4657.4869z"/><path d="m25.5819 63.7237c.2572 0 .4657-.2179.4657-.4868s-.2085-.4869-.4657-.4869-.4657.218-.4657.4869.2085.4868.4657.4868z"/><path d="m27.1835 64.1105c.2572 0 .4657-.218.4657-.4869s-.2085-.4869-.4657-.4869-.4657.218-.4657.4869.2085.4869.4657.4869z"/><path d="m28.7831 64.4972c.2572 0 .4657-.218.4657-.4869s-.2085-.4869-.4657-.4869-.4657.218-.4657.4869.2085.4869.4657.4869z"/><path d="m30.3856 64.8839c.2572 0 .4657-.218.4657-.4869s-.2085-.4868-.4657-.4868-.4657.2179-.4657.4868.2085.4869.4657.4869z"/></g></g><path d="m26.7368 59.4277h.0001l29.5247 7.1345c1.3154.3167 2.7124.2761 3.9081-.0456 1.1984-.3224 2.1788-.9224 2.6817-1.7089l28.7874-45.4407c.4906-.7766.4258-1.5973-.0818-2.3097-.5122-.7186-1.4802-1.3311-2.797-1.6493l-29.5247-7.13441zm0 0c-1.3167-.3171-2.2848-.9295-2.7971-1.6484m2.7971 1.6484-2.7971-1.6484m0 0c-.508-.7127-.5732-1.5341-.0836-2.3107m.0836 2.3107-.0836-2.3107m0 0 28.7894-45.4405zm31.4711-47.14943c-1.1982.32237-2.1784.92217-2.6814 1.70853zm0 0c1.1957-.32171 2.5926-.36235 3.908-.0456z" stroke="#b8a9a9" stroke-width=".240622"/><path d="m55.828 12.3945 14.7561 3.2565-1.121 1.7565-14.7561-3.2564z" fill="#ebe9e9"/><path d="m52.871 16.9062 30.6234 7.2679-1.1211 1.7566-30.6233-7.2679z" fill="#ebe9e9"/><path d="m49.7431 21.5605 25.6121 5.9252-1.121 1.7565-25.6121-5.9251z" fill="#ebe9e9"/><path d="m46.4941 26.2617 30.6233 7.2679-1.121 1.7565-30.6234-7.2678z" fill="#ebe9e9"/><path d="m43.2372 31.2402 20.4246 4.6065-1.121 1.7565-20.4246-4.6064z" fill="#ebe9e9"/><path d="m37.8271 41.084 30.6233 7.2679-1.121 1.7565-30.6233-7.2679z" fill="#ebe9e9"/><path d="m34.5116 46.1816 30.6234 7.2679-1.121 1.7566-30.6234-7.2679z" fill="#ebe9e9"/><path d="m30.1962 50.9961 20.4246 4.6065-1.121 1.7565-20.4246-4.6065z" fill="#ebe9e9"/><path d="m94.7373 17.6834c0-1.5778-1.548-3.0632-4.0748-3.6718l-31.3544-7.5689c-3.29-.79341-6.994.20286-8.2747 2.22469l-29.94 47.25721c-.2756.4188-.4257.9139-.4312 1.4223l-.0216 3.9242c0 1.5778 1.5437 3.0699 4.0748 3.6807l31.3544 7.5667c3.2879.7934 6.994-.2029 8.2746-2.2224l29.9423-47.2573c.2753-.4181.4254-.9124.4312-1.42l.0215-3.9242s-.0021-.0067-.0021-.0112z" stroke="#000" stroke-linecap="round" stroke-miterlimit="10" stroke-width=".240622"/><g mask="url(#c)"><path d="m24.608 47.5879-2.0025 3.1924s6.1126 1.7766 12.1649.9798c6.0524-.7969 11.6073-2.2465 11.6073-2.2465z" fill="#000"/></g><g stroke-linecap="round"><path d="m20.8246 49.0622c-9.0224-2.9062-17.09551-9.5755-19.75929-22.9581 1.34223-.1455 2.80193-.2636 4.35525-.3892 6.26074-.5064 14.04244-1.1358 21.78324-4.1776 1.707 9.7518 6.3719 20.0787 18.893 27.9279-6.4683 1.6621-16.3375 2.4748-25.2722-.403z" fill="#fff" stroke="#000" stroke-width=".240622"/><path d="m6.48438 29.214c4.75052-.2406 14.15962-1.8884 17.66482-2.839" stroke="#ebe9e9" stroke-width=".962489"/><path d="m7.38965 31.7089c4.45475-.3041 8.70325-.9799 12.42105-1.748" stroke="#ebe9e9" stroke-width=".962489"/><path d="m9.7041 36.6524c5.5404 0 14.0636-1.9362 17.5687-2.8868" stroke="#ebe9e9" stroke-width=".962489"/><path d="m11.7393 39.0338c5.8708-.2827 13.272-1.9329 16.7772-2.8834" stroke="#ebe9e9" stroke-width=".962489"/><path d="m14.0674 41.3623c5.5574-.2676 12.5635-1.8297 15.8815-2.7295" stroke="#ebe9e9" stroke-width=".962489"/><path d="m16.4492 43.6089c2.6994-.1676 6.0402-.6332 9.162-1.3999" stroke="#ebe9e9" stroke-width=".962489"/><path d="m23.2529 47.1093c4.4547-.3041 8.7033-.9799 12.421-1.748" stroke="#ebe9e9" stroke-width=".962489"/><path d="m27.3857 48.8203c1.3356 0 2.4161-.2056 4.9791-.6327" stroke="#ebe9e9" stroke-width=".962489"/></g><g mask="url(#d)"><path d="m32.409 51.3359c-4.2084-.2532-12.1529-1.3252-18.2655-4.1232.9156-.0891 2.1595-.3204 3.4457-.7714 1.53-.5365 3.1319-1.3882 4.3095-2.6935 1.4922 1.9617 5.3925 5.8304 10.5103 7.5881z" fill="#ebe9e9" stroke="#000" stroke-linecap="round" stroke-width=".3"/></g><path d="m20.8337 49.0339c-9.0061-2.9009-17.06502-9.5541-19.73293-22.9038 1.33212-.1437 2.77997-.2608 4.3202-.3854 6.25183-.5056 14.02563-1.1343 21.75983-4.1665 1.7106 9.7326 6.3714 20.035 18.8417 27.8754-6.4657 1.6495-16.2917 2.4461-25.1888-.4197z" stroke="#000" stroke-linecap="round" stroke-width=".3"/><path d="m85.5853 66.655-4.5076-9.176 4.5146-8.1928 10.6864-1.4502 4.5073 9.1753-4.5136 8.1914z" fill="#fff" stroke="#000" stroke-width=".240622"/><g mask="url(#e)"><path d="m91.8887 56.1333 4.402-8.2993 4.4863 9.1685-4.4863 8.2152z" fill="#ebe9e9"/><path d="m96.3358 47.7656-4.4195 8.3578m0 0-10.8587 1.3944m10.8587-1.3944 4.3072 9.0454" stroke="#000" stroke-width=".3"/></g><path d="m83.4521 58.7137 7.2655-.9305 1.2488 2.6806-7.2655.9306z" fill="#000"/><path d="m85.1914 62.4696 7.2655-.9305 1.2488 2.6806-7.2655.9305z" fill="#000"/><path d="m84.9922 59.6441 1.0823-.1304" stroke="#66dd8c" stroke-linecap="round" stroke-width=".721866"/><path d="m87.5234 59.2742 2.4354-.2781" stroke="#66dd8c" stroke-linecap="round" stroke-width=".721866"/><path d="m88.0732 63.2027 1.0823-.1305" stroke="#66dd8c" stroke-linecap="round" stroke-width=".721866"/><path d="m90.5488 62.8394 1.0823-.1304" stroke="#66dd8c" stroke-linecap="round" stroke-width=".721866"/><path d="m85.6025 66.6227-4.4913-9.1429 4.4998-8.1662 10.6505-1.4453 4.4915 9.1422-4.4994 8.1648z" stroke="#000" stroke-width=".3"/></svg>