<svg fill="none" height="19" viewBox="0 0 20 19" width="20" xmlns="http://www.w3.org/2000/svg"><path clip-rule="evenodd" d="m11.8334 3.0464v2.82863c0 .50626-.4104.91667-.9167.91667-3.04859 0-4.98558 1.05231-6.22757 2.83047-.94574 1.35403-1.53749 3.19763-1.82135 5.49073 1.58319-1.9854 4.20589-4.1962 8.04892-4.1962.5063 0 .9167.4104.9167.9167v2.915l6.0182-5.68382zm-1.8334-1.77043c0-.979993 1.1849-1.470777 1.8779-.777815l7.6702 7.670245c.5113.51132.4994 1.34394-.0263 1.8405l-7.6665 7.2405c-.7015.6626-1.8553.1652-1.8553-.7997v-3.6455c-3.87752.4645-6.13491 3.7979-7.02894 5.4778-.29972.5632-.89441.6424-1.25974.5551-.3676-.0879-.88273-.4411-.865693-1.1059.094499-3.6876.745273-6.8749 2.340503-9.15883 1.49616-2.14206 3.74524-3.38186 6.81387-3.58445z" fill="#fff" fill-rule="evenodd"/></svg>