<svg fill="none" height="16" viewBox="0 0 16 16" width="16" xmlns="http://www.w3.org/2000/svg"><path d="m10.7824 8.53247c.7353-.5785 1.272-1.37181 1.5354-2.26954.2634-.89774.2405-1.85526-.0656-2.73936s-.8801-1.6508-1.6423-2.19346c-.76211-.542649-1.67444-.83426-2.61002-.83426-.93559 0-1.84792.291611-2.61006.83426-.76214.54266-1.33619 1.30936-1.64229 2.19346-.30609.8841-.32902 1.84162-.06558 2.73936.26343.89773.80013 1.69104 1.53543 2.26954-1.25995.50478-2.35929 1.34201-3.18084 2.42243-.82154 1.0804-1.334492 2.3636-1.484165 3.7126-.010834.0985-.002162.1981.02552.2933.027681.0951.073831.1839.135814.2612.125181.1561.307251.2561.506171.278.19891.0219.39837-.0362.55449-.1614.15612-.1251.25613-.3072.27801-.5061.16468-1.4661.86376-2.8202 1.96366-3.8034 1.0999-.9833 2.52351-1.52686 3.99884-1.52686 1.47532 0 2.89892.54356 3.99882 1.52686 1.0999.9832 1.799 2.3373 1.9637 3.8034.0204.1843.1083.3545.2468.4777.1385.1233.3178.1909.5032.1898h.0825c.1966-.0227.3763-.1221.4999-.2766s.1812-.3517.1601-.5484c-.1504-1.3529-.6661-2.6393-1.4919-3.7214-.8258-1.08206-1.9304-1.91902-3.1956-2.42113zm-2.78252-.5325c-.59335 0-1.17337-.17595-1.66671-.50559-.49335-.32964-.87787-.79818-1.10493-1.34636-.22707-.54818-.28648-1.15138-.17072-1.73332.11575-.58194.40148-1.11649.82103-1.53605.41956-.41956.95411-.70528 1.53606-.82103.58194-.11576 1.18514-.05635 1.73332.17071.54818.22707 1.01667.61158 1.34637 1.10493.3296.49335.5056 1.07337.5056 1.66671 0 .79565-.3161 1.55871-.8787 2.12132-.56261.56261-1.32567.87868-2.12132.87868z" fill="#737e8d"/></svg>