<svg fill="none" height="24" viewBox="0 0 24 24" width="24" xmlns="http://www.w3.org/2000/svg"><path d="m14.763 3h-5.526c-5.043 0-6.237 1.194-6.237 6.237v5.526c0 5.043 1.194 6.237 6.237 6.237h5.526c5.043 0 6.237-1.194 6.237-6.237v-5.526c0-5.043-1.2067-6.237-6.237-6.237zm2.769 12.8423h-1.308c-.495 0-.648-.3938-1.5375-1.2953-.7748-.75-1.1175-.8512-1.308-.8512-.267 0-.3435.0765-.3435.4447v1.1812c0 .318-.1013.5085-.9398.5085-1.3845 0-2.92195-.8384-4.0012-2.4014-1.626-2.286-2.0715-4.0013-2.0715-4.3568 0-.1905.0765-.36825.44475-.36825h1.308c.33 0 .4575.15225.585.50775.64725 1.8675 1.72725 3.5062 2.17205 3.5062.165 0 .2414-.0765.2414-.495v-1.9319c-.051-.88955-.5212-.9653-.5212-1.28255 0-.153.1275-.30525.33-.30525h2.058c.2797 0 .381.15225.381.48225v2.60475c0 .279.1275.381.2033.381.165 0 .3052-.102.6097-.4065.9405-1.0545 1.6133-2.6805 1.6133-2.6805.0892-.1905.2415-.36825.5722-.36825h1.308c.3938 0 .483.2025.3938.48225-.165.76275-1.7656 3.0232-1.7656 3.0233-.1395.2287-.1905.3299 0 .5849.1395.1905.597.5843.9023.9398.5587.6353.99 1.1685 1.1048 1.5375.1274.3675-.0638.558-.4321.558z" fill="#58ccb6"/></svg>