<svg width="17" height="16" viewBox="0 0 17 16" fill="none" xmlns="http://www.w3.org/2000/svg">
<g clip-path="url(#clip0_6935_3852)">
<path d="M7.96021 0.761108C8.27102 0.503221 8.72947 0.503216 9.04028 0.761108C10.6398 2.08823 13.066 2.2165 14.6526 1.5199C15.0664 1.33822 15.6181 1.50607 15.7727 1.98767L16.0022 2.70544C16.1196 3.07155 15.9359 3.43666 15.7405 3.65759C15.5262 3.90003 15.2411 4.40474 15.2981 5.37537C15.5511 9.68061 14.1934 12.061 12.5793 13.4603C11.7791 14.1541 10.9262 14.5973 10.2053 14.9164C9.84707 15.0749 9.51434 15.2054 9.24536 15.3168C8.96768 15.4318 8.76668 15.5226 8.63892 15.6078L8.50024 15.7006L8.36157 15.6078C8.23382 15.5226 8.03281 15.4318 7.75513 15.3168C7.48614 15.2054 7.15343 15.0749 6.79517 14.9164C6.07428 14.5974 5.22146 14.1541 4.42114 13.4603C2.8071 12.0612 1.44943 9.68137 1.70239 5.37634C1.75959 4.40525 1.47343 3.8999 1.25903 3.65759C1.06371 3.43662 0.879965 3.07136 0.997314 2.70544L1.22778 1.98767C1.38242 1.50616 1.93414 1.33825 2.3479 1.5199C3.93457 2.21637 6.36075 2.08815 7.96021 0.761108Z" stroke="currentColor" stroke-width="0.5"/>
<path fill-rule="evenodd" clip-rule="evenodd" d="M8.13831 2.40126C8.34705 2.23474 8.65233 2.23474 8.86107 2.40126C10.1784 3.45223 12.1111 3.56421 13.4238 3.02839C13.7125 2.91073 14.0677 3.03601 14.1631 3.33275L14.3001 3.75942C14.3736 3.989 14.2604 4.24886 14.1098 4.43712C13.9107 4.68615 13.7003 5.1364 13.7457 5.90931C14.1446 12.6994 9.46972 13.281 8.49969 13.9277C7.52915 13.2811 2.85468 12.6991 3.25371 5.90931C3.29918 5.13653 3.08962 4.68612 2.89049 4.43712C2.73981 4.24877 2.62557 3.98911 2.69923 3.75942L2.83624 3.33275C2.93166 3.03589 3.28771 2.91053 3.57647 3.02839C4.88918 3.56403 6.82102 3.45193 8.13831 2.40126ZM11.5581 6.10517C11.2989 5.84632 10.8783 5.84613 10.6192 6.10517L8.2367 8.48678L7.04314 7.29321C6.78399 7.03436 6.36424 7.03418 6.10521 7.29321C5.8463 7.55226 5.8464 7.97204 6.10521 8.23114L7.76773 9.89459C8.02682 10.1537 8.44745 10.1536 8.70658 9.89459L11.5581 7.0431C11.8169 6.78408 11.8168 6.36426 11.5581 6.10517Z" fill="currentColor"/>
</g>
<defs>
<clipPath id="clip0_6935_3852">
<rect width="16" height="16" fill="white" transform="translate(0.5)"/>
</clipPath>
</defs>
</svg>
