<svg height="50" viewBox="0 0 50 50" width="50" xmlns="http://www.w3.org/2000/svg"><g fill="none"><path d="m25 0c-13.8104839 0-25 11.1895161-25 25s11.1895161 25 25 25 25-11.1895161 25-25-11.1895161-25-25-25z" fill="#c0414c"/><path d="m15.9989893 12c0-2.20299412-1.7969952-3.99998933-3.9999893-3.99998933-2.20299411 0-3.99998934 1.79699521-3.99998934 3.99998933 0 2.2029941 1.7969952 3.9999893 3.99998934 3.9999893 2.2029942 0 3.9999893-1.7969952 3.9999893-3.9999893zm2.1559943 0c0 3.4059909-2.7499927 6.1559836-6.1559836 6.1559836-3.40599089 0-6.1559836-2.7499927-6.1559836-6.1559836 0-3.40599093 2.74999269-6.15598358 6.1559836-6.15598358 3.4059909 0 6.1559836 2.74999268 6.1559836 6.15598358zm1.6879955-6.40598291c0 .79699788-.6409983 1.43699614-1.4369962 1.43699614s-1.4369961-.64099827-1.4369961-1.43699614c0-.79599788.6409983-1.43699618 1.4369961-1.43699618.7959979 0 1.4369962.6409983 1.4369962 1.43699618zm-7.8439791-3.43799085c-1.7499953 0-5.49998532-.14099962-7.07798113.48399872-.54699853.21899942-.95299745.4839987-1.37499633.90599758s-.68799817.8279978-.90599758 1.37499633c-.62499834 1.57799578-.4839987 5.32798583-.48399872 7.07798113-.00000003 1.7499954-.14099962 5.4999853.48399872 7.0779811.21899942.5469986.4839987.9529975.90599758 1.3749964.42199888.4219988.8279978.6879981 1.37499633.9059976 1.57799578.6249983 5.32798583.4839987 7.07798113.4839987 1.7499954 0 5.4999853.1409996 7.0779811-.4839987.5469986-.2189995.9529975-.4839987 1.3749964-.9059976.4219988-.4219989.6879981-.8279978.9059976-1.3749964.6249983-1.5779958.4839987-5.3279858.4839987-7.0779811s.1409996-5.49998532-.4839987-7.07798113c-.2189995-.54699853-.4839987-.95299745-.9059976-1.37499633s-.8279978-.68799817-1.3749964-.90599758c-1.5779958-.62499834-5.3279858-.48399872-7.0779811-.48399872zm11.999968 9.84397376c0 1.6559956.016 3.2969912-.0779998 4.9529868-.0939997 1.9219949-.5309986 3.6249904-1.9369948 5.0309866s-3.1089917 1.8439951-5.0309866 1.9369948c-1.6559956.0939998-3.2969912.0779998-4.9529868.0779998s-3.29699121.016-4.95298681-.0779998c-1.92199488-.0939997-3.62499034-.5309986-5.03098658-1.9369948s-1.84399508-3.1089917-1.93699483-5.0309866c-.09399975-1.6559956-.07799978-3.2969912-.07799978-4.9529868s-.01599997-3.29699121.07799978-4.95298681c.09399974-1.92199488.53099859-3.62499034 1.93699483-5.03098658s3.1089917-1.84399508 5.03098658-1.93699483c1.6559956-.09399975 3.29699121-.07799978 4.95298681-.07799978s3.2969912-.01599997 4.9529868.07799978c1.9219949.09399974 3.6249904.53099859 5.0309866 1.93699483s1.8439951 3.1089917 1.9369948 5.03098658c.0939998 1.6559956.0779998 3.29699121.0779998 4.95298681z" fill="#fff" transform="translate(13 13)"/></g></svg>