<svg height="50" viewBox="0 0 50 50" width="50" xmlns="http://www.w3.org/2000/svg"><g fill="none"><path d="m25 0c-13.8104839 0-25 11.1895161-25 25s11.1895161 25 25 25 25-11.1895161 25-25-11.1895161-25-25-25z" fill="#00c300"/><path d="m25.0003298 15c-6.6278309 0-12.0003298 4.1944731-12.0003298 9.3682481 0 4.8058918 4.6375814 8.7640789 10.6093953 9.3033054.199667.0336808.3762885.1480739.4877125.3158786.2650656.4328512.0766681 1.3550639-.1291332 2.3891393-.205852 1.0339495.9134461.4973912 1.1610825.3775743.1971501-.0948718 5.2707146-2.9315373 8.2912135-5.7132029 2.2087865-1.6995123 3.5797294-4.0611642 3.5797294-6.6723926.0007611-5.1740771-5.3721691-9.3685502-11.9996702-9.3685502zm-3.9834165 11.8052386c-.0031712.3505652-.2928964.6323615-.6472643.6295632h-2.2011754c-.3885159 0-.9063172-.1328516-.9063172-.755522v-4.6561458c.0015053-.1685015.0705547-.329477.1918986-.4473752.1214947-.1181434.2852557-.1836552.4553657-.1821918h.1295899c.1701167-.0014591.3338839.0640516.4553911.1821918.1213251.1179088.1903634.2788797.1918731.4473752v4.0267043h1.6830444c.3544694-.0030206.6443975.2787757.6475941.6294415zm1.8012685-.1344668c0 .3525034-.2896998.638151-.6469344.638151-.3573362 0-.6469345-.2856476-.6469345-.638151v-4.513171c0-.352453.2895983-.6381509.6469345-.6381509.3572346 0 .6469344.2856979.6469344.6381509zm5.6557294-.0005286c-.0362537.3350091-.3060634.5981533-.6442706.628334-.3044999.0516146-.6087414-.0927217-.759425-.3602814l-2.0759492-2.8882925v2.6195099c-.0083721.3469405-.2942157.6238283-.644093.6238283-.3497252 0-.6356956-.2768878-.6440423-.6238283v-4.522132c.001437-.1679983.0701038-.3285437.1908837-.4462929.1207462-.1177604.2837006-.183099.4530063-.1816624.3121835.0018962.595842.1805879.730351.4601109.1997632.2925697 2.1063679 2.9296746 2.1063679 2.9296746v-2.7618302c.0086511-.3469405.2946469-.6237276.6444989-.6237276s.6358224.2767871.6444736.6237527v4.5220818l-.0017759.0007551zm3.8926681-2.8855236c.2270359 0 .4367949.1199931.5503256.3147208.1135385.194711.1135385.4347808 0 .6294919-.1136841.1948378-.3234193.3147813-.5503256.3147208h-1.6811163v1.0065627h1.6810148c.2304053-.0053998.4457099.1133536.5627061.3103661.1169158.19683.1169158.4411196 0 .6379496-.117039.1969505-.3323336.3156406-.5627061.3102151h-2.5213446c-.1531183.0018179-.3006732-.0568875-.4101057-.1631625-.1093784-.1060314-.1716016-.2509775-.1728711-.4026956v-4.6570016c.0011928-.1518021.06338-.2968583.1727696-.4029977.1094612-.1063059.2570462-.1650449.4102072-.1632631h2.5214461c.2303658-.0053986.4456476.1132844.5627061.3102151.1168171.1968656.1168171.441109 0 .6379747-.1170574.1969473-.3323248.3156705-.5627061.3103409h-1.6811163v1.0069655h1.6810148z" fill="#fff"/></g></svg>