<svg height="50" viewBox="0 0 50 50" width="50" xmlns="http://www.w3.org/2000/svg" xmlns:xlink="http://www.w3.org/1999/xlink"><linearGradient id="a" x1="14.644614%" x2="85.355186%" y1="14.644643%" y2="85.355357%"><stop offset="0" stop-color="#2489be"/><stop offset="1" stop-color="#0575b3"/></linearGradient><g fill="none"><path d="m25 0c-13.8104839 0-25 11.1895161-25 25s11.1895161 25 25 25 25-11.1895161 25-25-11.1895161-25-25-25z" fill="#fff"/><path d="m25.0024601.00251029c-13.8071818 0-24.99994981 11.19276801-24.99994981 24.99994981s11.19276801 24.9999498 24.99994981 24.9999498 25.0000502-11.192768 25.0000502-24.9999498-11.1930692-24.99994981-25.0000502-24.99994981zm-6.6700338 37.08627961h-5.4889939v-17.7333714h5.4889939zm-2.7706542-20.0556882c-1.7926462 0-3.2459017-1.465104-3.2459017-3.2721092 0-1.8072059 1.4534563-3.2722095 3.2459017-3.2722095 1.7924455 0 3.2457009 1.4650036 3.2457009 3.2722095.0001004 1.8071056-1.453155 3.2721092-3.2457009 3.2721092zm23.3407504 20.0556882h-5.4624852v-9.3085465c0-2.5530624-.9697742-3.9782026-2.9885471-3.9782026-2.1971037 0-3.3449074 1.4842826-3.3449074 3.9782026v9.3085465h-5.2645742v-17.7333714h5.2645742v2.3883876s1.5835895-2.9293043 5.3437989-2.9293043c3.7603097 0 6.4521408 2.2960091 6.4521408 7.0457736z" fill="url(#a)"/></g></svg>