<svg height="50" viewBox="0 0 50 50" width="50" xmlns="http://www.w3.org/2000/svg"><g fill="none"><path d="m25 0c-13.8104839 0-25 11.1895161-25 25s11.1895161 25 25 25 25-11.1895161 25-25-11.1895161-25-25-25z" fill="#3a465c"/><g fill="#fff" transform="translate(14 23)"><path d="m.00000001 2.00000001c0 .71453118.38119782 1.37478523 1 1.73205083.61880214.35726559 1.38119784.35726559 2 0 .61880216-.3572656 1-1.01751965 1-1.73205083 0-1.1045695-.89543051-2-2-2-1.1045695 0-2 .8954305-2 2z"/><path d="m9.00000001 1.99999995c0 1.10456955.89543049 2 1.99999999 2s2-.89543045 2-2c0-.71453114-.3811978-1.3747852-1-1.7320508-.6188021-.3572656-1.3811979-.3572656-2 0-.61880217.3572656-.99999999 1.01751966-.99999999 1.7320508z"/><path d="m18 2.00000001c0 1.10456949.8954305 2 2 2s2-.89543051 2-2c0-1.1045695-.8954305-2-2-2s-2 .8954305-2 2z"/></g></g></svg>