<svg height="50" viewBox="0 0 50 50" width="50" xmlns="http://www.w3.org/2000/svg"><g fill="none" fill-rule="evenodd"><path d="m25 0c-13.8104839 0-25 11.1895161-25 25s11.1895161 25 25 25 25-11.1895161 25-25-11.1895161-25-25-25z" fill="#11b5f2" fill-rule="nonzero"/><path d="m32.7516604 32.4378612c-.4620993-.118094-1.6515027-2.3154859-1.6515027-2.3154859s.0964381 2.7330325-2.0010908 4.4411778c1.1652938.3247585 1.498809.7971345 1.498809 1.0459754 0 .413329-1.4184439.3880232-3.15433.3880232-.5746104 0-1.1251113-.012653-1.6032836-.0379588-.4540628.0548293-.7393589.0379588-.7393589.0379588h-.237077s-.4138803.0210882-1.0326915-.0885705c-.5746104.0674822-1.3420971.0885705-2.1618211.0885705-1.687667 0-3.0699466.0253058-3.0699466-.3922408 0-.354282.4460263-.9152285 2.129675-1.2104635-1.9207257-1.7123629-1.8323241-4.297778-1.8323241-4.297778s-1.1894034 2.1973919-1.6515027 2.3154859c-.2370771.059047-.3375334-.9236638-.1406389-2.1805213.1968944-1.2568575.5183548-2.1552154.5183548-2.1552154s.4500445-1.5099162.7072128-2.2606566c.2210041-.6410817.7232859-1.9148098.7232859-1.9148098s-.4620993-5.9426586 3.1663847-8.1780093c2.0452917-1.0670636 3.801269-.767611 4.9223621-.2825821.2129675.0801352.4219168.189794.646939.3036703 3.6284841 2.231133 3.1663848 8.1780093 3.1663848 8.1780093s.5022818 1.2737281.7232858 1.9148098c.2571683.7507405.7072129 2.2606566.7072129 2.2606566s.3214603.8983579.5183548 2.1552154c.1848397 1.2610752.0843834 2.2480036-.1526937 2.184739z" fill="#fff"/></g></svg>