<svg height="50" viewBox="0 0 50 50" width="50" xmlns="http://www.w3.org/2000/svg"><g fill="none" fill-rule="evenodd"><path d="m25 0c-13.8104839 0-25 11.1895161-25 25s11.1895161 25 25 25 25-11.1895161 25-25-11.1895161-25-25-25z" fill="#2c72f5" fill-rule="nonzero"/><path d="m38.2555921 17.0142036-3.9746094 18.7304687c-.2929687 1.328125-1.0839843 1.6503907-2.1875 1.0253907l-6.0546875-4.4628907-2.9199218 2.8125c-.3222657.3222657-.5957032.5957032-1.2207032.5957032l.4296875-6.1621094 11.2207032-10.1367188c.4882812-.4296875-.1074219-.6738281-.7519532-.2441406l-13.8671875 8.7304688-5.9765625-1.8652344c-1.2988281-.4101563-1.328125-1.2988281.2734375-1.9238281l23.3496094-9.0039063c1.0839844-.390625 2.03125.2636719 1.6796875 1.9042969z" fill="#fff"/></g></svg>