<svg height="50" viewBox="0 0 50 50" width="50" xmlns="http://www.w3.org/2000/svg"><g fill="none"><path d="m25 0c-13.8104839 0-25 11.1895161-25 25s11.1895161 25 25 25 25-11.1895161 25-25-11.1895161-25-25-25z" fill="#2dc100"/><path d="m30.0639732 21.2346339c-2.4129223.1238953-4.5115315.8417617-6.2154908 2.463981-1.7216869 1.6383955-2.5074695 3.647328-2.2923934 6.1368141-.942939-.1158072-1.8020238-.2408513-2.6657984-.3126334-.3001497-.0231614-.6546547.0115807-.9063114.1505033-.8389654.4631367-1.6424755.9888185-2.5972799 1.5747476.1748841-.7757701.2883313-1.4589404.4891972-2.1108152.1453381-.4817026.077992-.749162-.373405-1.0617953-2.8974296-2.0077836-4.1180541-5.0113248-3.2046141-8.105214.846047-2.8599771 2.9222389-4.5968087 5.7428019-5.4999666 3.8521871-1.2343113 8.1770161.0254592 10.519028 3.0255538.858053 1.0777418 1.3792817 2.3759308 1.5007016 3.7376758zm5.4214072 14.7653661c-.7645376-.3334511-1.4652465-.8336737-2.2096647-.911246-.7444181-.0764236-1.5266833.3450317-2.3042118.4226501-2.3692129.2373587-4.4902865-.4098746-6.2414724-1.9985006-3.3275348-3.0220612-2.8525009-7.653612.9985136-10.1315175 3.4232544-2.1999682 8.442883-1.4658796 10.8558053 1.5862823 2.1056909 2.6654487 1.8575515 6.2028058-.7125273 8.4410088-.7444182.6484281-1.012677 1.1810491-.5352982 2.0343916.0874655.1574885.0980645.3566125.1489024.5557824zm-16.5277437-15.7287254c.0236367-.5673631-.4773788-1.0768227-1.0705965-1.0930448-.5966414-.0239427-1.1000956.4306004-1.1245296 1.0152427-.0001408.0035385-.0002814.007123-.0003752.0106616-.0234961.5776112.4353109 1.0645986 1.0247767 1.0876222.0109273.0004136.0218547.0006893.032782.0007812.600487.0216449 1.1073648-.4332658 1.1379426-1.0212629zm5.7948122-1.0930448c-.5955627.0115807-1.0989231.5094595-1.0871047 1.0768226.0128501.5881809.5098793 1.0548102 1.1101318 1.0422185.0017822-.000046.0035643-.0000919.0053464-.0001379.5892783.0046874 1.0708779-.4595981 1.0756616-1.0370255.0000938-.0124998 0-.0249996-.0003753-.0374994-.0050181-.581931-.4905103-1.0496632-1.0843377-1.044746-.006425.0000919-.012897.0001838-.0193221.0003677zm2.0348274 8.5567699c.4868523 0 .886239-.3739836.905139-.8452544.0176338-.4901583-.3735926-.9015494-.8738108-.9188286-.0080666-.0002757-.0161331-.0004596-.0242465-.0005055-.5057523.003125-.9132055.407393-.9100164.9029741.0000469.0039062.0000938.0078583.0001407.0117645.0214326.4738443.4186619.8478279.902794.8498499zm5.6068904-1.7634396c-.4787857.0038602-.8708094.3742133-.8921481.8429566-.0261224.4789453.348924.8879007.8376991.9134978.0142102.0007353.0284204.0011489.0426306.0012408.4880247 0 .8744205-.3624028.8921481-.839464.0241996-.4834949-.3561933-.8947021-.8496113-.918415-.0102238-.0005056-.0204946-.0008272-.0307184-.0009651z" fill="#fff"/></g></svg>