<svg fill="none" height="32" viewBox="0 0 32 32" width="32" xmlns="http://www.w3.org/2000/svg" xmlns:xlink="http://www.w3.org/1999/xlink"><filter id="a" color-interpolation-filters="sRGB" filterUnits="userSpaceOnUse" height="19.9212" width="17.9991" x="7.00049" y="5.59668"><feFlood flood-opacity="0" result="BackgroundImageFix"/><feBlend in="SourceGraphic" in2="BackgroundImageFix" mode="normal" result="shape"/><feColorMatrix in="SourceAlpha" result="hardAlpha" type="matrix" values="0 0 0 0 0 0 0 0 0 0 0 0 0 0 0 0 0 0 127 0"/><feOffset dy="1"/><feGaussianBlur stdDeviation=".5"/><feComposite in2="hardAlpha" k2="-1" k3="1" operator="arithmetic"/><feColorMatrix type="matrix" values="0 0 0 0 0.913725 0 0 0 0 0.321569 0 0 0 0 0 0 0 0 1 0"/><feBlend in2="shape" mode="normal" result="effect1_innerShadow"/><feColorMatrix in="SourceAlpha" result="hardAlpha" type="matrix" values="0 0 0 0 0 0 0 0 0 0 0 0 0 0 0 0 0 0 127 0"/><feOffset dy="-1"/><feGaussianBlur stdDeviation=".5"/><feComposite in2="hardAlpha" k2="-1" k3="1" operator="arithmetic"/><feColorMatrix type="matrix" values="0 0 0 0 0.913725 0 0 0 0 0.321569 0 0 0 0 0 0 0 0 0.25 0"/><feBlend in2="effect1_innerShadow" mode="normal" result="effect2_innerShadow"/></filter><filter id="b" color-interpolation-filters="sRGB" filterUnits="userSpaceOnUse" height="10.2206" width="15.2542" x="7.69067" y="11.8242"><feFlood flood-opacity="0" result="BackgroundImageFix"/><feColorMatrix in="SourceAlpha" result="hardAlpha" type="matrix" values="0 0 0 0 0 0 0 0 0 0 0 0 0 0 0 0 0 0 127 0"/><feOffset dy="1"/><feGaussianBlur stdDeviation=".5"/><feComposite in2="hardAlpha" operator="out"/><feColorMatrix type="matrix" values="0 0 0 0 0.901961 0 0 0 0 0.298039 0 0 0 0 0 0 0 0 0.6 0"/><feBlend in2="BackgroundImageFix" mode="normal" result="effect1_dropShadow"/><feBlend in="SourceGraphic" in2="effect1_dropShadow" mode="normal" result="shape"/></filter><radialGradient id="c" cx="0" cy="0" gradientTransform="matrix(.00089822 4.80971992 -4.83061992 .00090212 15.9991 23.4429)" gradientUnits="userSpaceOnUse" r="1"><stop offset="0" stop-color="#f87809"/><stop offset="1" stop-color="#f37c00"/></radialGradient><linearGradient id="d" gradientUnits="userSpaceOnUse" x1="15.9996" x2="15.9996" y1="4.17041" y2="26.9447"><stop offset="0" stop-color="#ffe27a"/><stop offset="1" stop-color="#ffc818"/></linearGradient><linearGradient id="e" gradientUnits="userSpaceOnUse" x1="16" x2="16" y1="6.59668" y2="24.5179"><stop offset="0" stop-color="#fe9815"/><stop offset="1" stop-color="#fe9512"/></linearGradient><mask id="f" height="23" maskUnits="userSpaceOnUse" width="24" x="4" y="4"><path d="m4.75049 15.5577c0 6.1864 5.03615 11.2008 11.24941 11.2008 6.2133 0 11.2495-5.0144 11.2495-11.2008s-5.0362-11.20077-11.2495-11.20077c-6.21326 0-11.24941 5.01437-11.24941 11.20077z" fill="#ffc818"/></mask><path d="m7.00047 4.79407 1.06015 1.05556-1.06015 1.05556-1.06015-1.05556c-.29878-.28674-.30598-.75986-.018-1.05556.28799-.2975.76316-.30466 1.06015-.01792.0054.00537.0108.01254.018.01792zm18.10893 0c.2934-.29212.7685-.29212 1.0601 0 .2916.29211.2934.76523 0 1.05556l-1.0619 1.05556-1.0602-1.05556z" fill="#f04365"/><path d="m6.57195 5.05569c1.15914-.96775 3.43065-1.73657 4.80035-.11112 1.3697 1.62546.6426 3.36203-.9449 4.6882-1.58576 1.32613-3.43067 1.73653-4.8004.1129-1.36974-1.62366-.21419-3.72224.94495-4.68998zm18.85585 0c1.1592.96774 2.3129 3.06273.945 4.68819-1.3698 1.62542-3.2147 1.21322-4.8004-.1129-1.5875-1.32617-2.3129-3.06274-.945-4.6882 1.368-1.62366 3.6395-.85663 4.8004.11291z" fill="#ffc818"/><path d="m10.7175 4.37628.0558.03405c.2124.13799.4139.31362.5993.53226 1.368 1.62545.6426 3.36202-.9449 4.68819-1.58574 1.32622-3.43065 1.73662-4.80038.11291-.41938-.48388-.64077-1.10574-.62097-1.74553.28258-.69714.74696-1.39786 1.37153-2.01972 1.35893-1.35127 3.08505-1.94087 4.33962-1.60216zm14.9032 1.60216c.6246.62186 1.089 1.32079 1.3716 2.01793.0216.63979-.2016 1.26344-.621 1.74732-1.3697 1.62541-3.2147 1.21331-4.8004-.11111-1.5875-1.32618-2.3129-3.06274-.9449-4.6882.2016-.23835.423-.42652.6551-.5681 1.2546-.34051 2.9807.2491 4.3396 1.60216z" fill="#ff8413"/><path d="m11.1584 4.71481.1008.10215c.0378.03943.0756.08244.1134.12725.4517.53584.6749 1.08244.7145 1.62545-.3078.80646-1.0169 1.75091-2.0069 2.57708-1.06013.88706-2.19767 1.43366-3.07783 1.55016-.48957-.1469-.95395-.4534-1.37513-.95339-.04679-.05376-.08999-.11111-.13139-.16846.0558-.91219.87296-2.20072 2.17429-3.28854 1.23474-1.03227 2.57566-1.60575 3.48826-1.5717zm13.1717 1.5717c1.2995 1.08602 2.1167 2.37456 2.1743 3.28854-.0414.05735-.0864.1147-.1332.16846-.4194.49999-.8873.80649-1.3769.95339-.8784-.1165-2.0159-.6649-3.0761-1.55016-.9899-.82617-1.6991-1.77062-2.0069-2.57708.0396-.54122.2646-1.08961.7146-1.62545.0684-.08244.1404-.15771.2142-.2276.9143-.03405 2.2535.53763 3.49 1.5699z" fill="#e95200"/><path d="m4 16.3045c0 6.5986 5.37273 11.9481 12 11.9481 6.6273 0 12-5.3495 12-11.9481 0-6.59856-5.3709-11.94805-11.9982-11.94805-6.62727-.0018-12.0018 5.3459-12.0018 11.94455z" fill="url(#c)"/><path d="m4.75049 15.5572c0 6.1864 5.03615 11.2008 11.24941 11.2008 6.2133 0 11.2495-5.0144 11.2495-11.2008 0-6.18639-5.0362-11.20075-11.2495-11.20075-6.21326 0-11.24941 5.01436-11.24941 11.20075z" fill="#ffc818"/><g fill="#ffe279" mask="url(#f)"><path d="m22 4-4 6.4167 4 4.5833 6-4.5833z"/><path d="m19.6875 2-5.6875 9h2.1875l4.8125-7.65z"/></g><path d="m15.9996 4.17041c-6.31587 0-11.43661 5.09859-11.43661 11.38719 0 6.2885 5.12074 11.3871 11.43661 11.3871 6.3159 0 11.4366-5.0986 11.4366-11.3871 0-6.2886-5.1207-11.38719-11.4366-11.38719zm0 .37276c6.1089 0 11.0623 4.93193 11.0623 11.01443 0 6.0824-4.9534 11.0144-11.0623 11.0144-6.10888 0-11.06223-4.932-11.06223-11.0144 0-6.0825 4.95155-11.01443 11.06223-11.01443z" fill="url(#d)"/><g filter="url(#a)"><path d="m7.00049 15.5573c0 4.9481 4.03001 8.9606 8.99951 8.9606 4.9696 0 8.9996-4.0125 8.9996-8.9606s-4.03-8.96062-8.9996-8.96062c-4.9695 0-8.99951 4.01082-8.99951 8.96062z" fill="url(#e)"/></g><g filter="url(#b)"><path d="m16.0001 16.3027c0 .2007-.1638.3638-.3636.3638-.0036 0-.0072 0-.009 0l-6.74964-.1738c-.10439 0-.18719-.0842-.18719-.1864 0-.1021.0846-.1864.18719-.1864l6.74964-.1774c.2016-.0054.369.1523.3744.3531-.0018 0-.0018.0035-.0018.0071z" fill="#ffe040"/><g fill="#ffe043"><path d="m15.9998 11.8242c.5004 0 .7506.2491.7506.7473v3.733c0 .4982-.2502.7473-.7506.7473-.5003 0-.7505-.2491-.7505-.7473v-3.7348c0-.4982.2502-.7455.7505-.7455z"/><path d="m21.8442 19.6722c-.207.3566-.6659.4785-1.0241.2724l-5.1964-2.9875c-.3581-.2079-.4769-.6667-.2682-1.0215.207-.3531.6606-.4731 1.017-.2706l5.1963 2.9874c.36.2043.4824.6613.2754 1.0198z"/></g></g><path d="m8.49967 24.5178c.29158.2599.63537.5197 1.03135.785.39778.2634.80278.5 1.21858.7097l-2.73411 2.7222c-.16919.1685-.39958.2652-.64077.2634-.14939 0-.26998-.12-.26998-.2688 0-.0287.0054-.0573.0144-.086zm14.99863 0 1.3823 4.1273c.0468.1416-.0287.2939-.1709.3405-.027.009-.0558.0143-.0864.0143-.2394 0-.4698-.095-.6408-.2634l-2.7341-2.7223c.8046-.4157 1.5588-.9175 2.2499-1.4964z" fill="#f85600"/><path d="m9.53131 25.3007c.39778.2635.80279.5 1.21859.7097l-2.73411 2.7223c-.0918.0913-.20339.1612-.32219.206l1.67212-3.7509c0 .0018.16559.1129.16559.1129zm13.09799-.12 1.6775 3.758c-.0882-.0322-.1728-.0806-.2466-.1397l-.0774-.0663-2.7341-2.7241c.405-.2079.7956-.4373 1.1754-.6899z" fill="#f32f08"/><path d="m16.0001 15.9299c-.207 0-.3744.1667-.3744.3728s.1674.3728.3744.3728.3744-.1667.3744-.3728-.1674-.3728-.3744-.3728z" fill="#ff962a"/></svg>