<svg fill="none" height="93" viewBox="0 0 93 93" width="93" xmlns="http://www.w3.org/2000/svg" xmlns:xlink="http://www.w3.org/1999/xlink"><linearGradient id="a" gradientUnits="userSpaceOnUse" x1=".000001" x2="93" y1="60.3333" y2="60.3333"><stop offset="0" stop-color="#61627e"/><stop offset="1" stop-color="#4c4d71"/></linearGradient><linearGradient id="b" gradientUnits="userSpaceOnUse" x1="2.325" x2="89.9" y1="35" y2="35"><stop offset="0" stop-color="#80819e"/><stop offset="1" stop-color="#61627e"/></linearGradient><linearGradient id="c" gradientUnits="userSpaceOnUse" x1="5.33036" x2="90" y1="35" y2="35"><stop offset="0" stop-color="#24243f"/><stop offset="1" stop-color="#171836"/></linearGradient><linearGradient id="d" gradientUnits="userSpaceOnUse" x1="46.5" x2="46.5" y1="40" y2="-.000001"><stop offset="0" stop-color="#a3d9d2"/><stop offset="1" stop-color="#d5fdf8"/></linearGradient><path d="m0 37h93v46c0 5.5229-4.4771 10-10 10h-73c-5.52285 0-10-4.4772-10-10z" fill="url(#a)"/><rect fill="url(#b)" height="16" rx="8" width="93" y="27"/><rect fill="url(#c)" height="10" rx="5" width="87" x="3" y="30"/><path d="m9 4c0-2.20914 1.7909-4 4-4h67c2.2091 0 4 1.79086 4 4v36h-75z" fill="url(#d)"/><path d="m78 40v-31c0-1.65685-1.3431-3-3-3h-57c-1.6569 0-3 1.34315-3 3v31" stroke="#fff" stroke-opacity=".3" stroke-width=".5"/></svg>