<svg fill="none" height="24" viewBox="0 0 24 24" width="24" xmlns="http://www.w3.org/2000/svg"><g fill="#fff"><path d="m2 12.5784c0-5.38323 4.28607-9.76544 9.6319-9.92023l.2926-.00423v2.20544c-4.26312 0-7.71906 3.45594-7.71906 7.71902 0 4.2631 3.45594 7.7191 7.71906 7.7191 4.2631 0 7.719-3.456 7.719-7.7191 0-1.9375-.7157-3.75952-1.982-5.16455l-.2292-.24355 1.5735-1.54528c1.8099 1.84295 2.8432 4.31802 2.8432 6.95338 0 5.4812-4.4434 9.9245-9.9245 9.9245-5.48115 0-9.9245-4.4433-9.9245-9.9245z"/><path clip-rule="evenodd" d="m11.9243 6.51367v-5.51361l3.3082 2.75681z" fill-rule="evenodd"/></g></svg>