<svg fill="none" height="148" viewBox="0 0 351 148" width="351" xmlns="http://www.w3.org/2000/svg" xmlns:xlink="http://www.w3.org/1999/xlink"><filter id="a" color-interpolation-filters="sRGB" filterUnits="userSpaceOnUse" height="147.584" width="351" x="0" y=".416016"><feFlood flood-opacity="0" result="BackgroundImageFix"/><feColorMatrix in="SourceAlpha" result="hardAlpha" type="matrix" values="0 0 0 0 0 0 0 0 0 0 0 0 0 0 0 0 0 0 127 0"/><feOffset dy="-4"/><feGaussianBlur stdDeviation="2"/><feComposite in2="hardAlpha" operator="out"/><feColorMatrix type="matrix" values="0 0 0 0 0.027451 0 0 0 0 0.0352941 0 0 0 0 0.0588235 0 0 0 0.1 0"/><feBlend in2="BackgroundImageFix" mode="normal" result="effect1_dropShadow"/><feBlend in="SourceGraphic" in2="effect1_dropShadow" mode="normal" result="shape"/></filter><linearGradient id="b" gradientUnits="userSpaceOnUse" x1="175.5" x2="175.5" y1="8.90638" y2="148"><stop offset="0" stop-color="#f56f45"/><stop offset="1" stop-color="#d9263c"/></linearGradient><g filter="url(#a)"><path clip-rule="evenodd" d="m62.3394 21.5965c19.1305 8.155 39.8806 17.0002 113.1606 17.0002s94.03-8.8452 113.161-17.0002c7.628-3.2516 14.998-6.3936 25.339-8.8213 25.424-5.96886 33-4.07312 33-4.07312v135.29792c0 2.209-1.791 4-4 4h-167.5-167.49999c-2.20914 0-4.00001-1.791-4.00001-4v-135.29792s7.5759-1.89574 33 4.07312c10.3407 2.4277 17.7113 5.5697 25.3394 8.8213z" fill="url(#b)" fill-rule="evenodd"/></g></svg>