<svg fill="none" height="148" viewBox="0 0 1208 148" width="1208" xmlns="http://www.w3.org/2000/svg" xmlns:xlink="http://www.w3.org/1999/xlink"><filter id="a" color-interpolation-filters="sRGB" filterUnits="userSpaceOnUse" height="147.584" width="1208" x="0" y=".416016"><feFlood flood-opacity="0" result="BackgroundImageFix"/><feColorMatrix in="SourceAlpha" result="hardAlpha" type="matrix" values="0 0 0 0 0 0 0 0 0 0 0 0 0 0 0 0 0 0 127 0"/><feOffset dy="-4"/><feGaussianBlur stdDeviation="2"/><feComposite in2="hardAlpha" operator="out"/><feColorMatrix type="matrix" values="0 0 0 0 0.027451 0 0 0 0 0.0352941 0 0 0 0 0.0588235 0 0 0 0.1 0"/><feBlend in2="BackgroundImageFix" mode="normal" result="effect1_dropShadow"/><feBlend in="SourceGraphic" in2="effect1_dropShadow" mode="normal" result="shape"/></filter><linearGradient id="b" gradientUnits="userSpaceOnUse" x1="604" x2="604" y1="8.90638" y2="148"><stop offset="0" stop-color="#f56f45"/><stop offset="1" stop-color="#d9263c"/></linearGradient><g filter="url(#a)"><path clip-rule="evenodd" d="m198.459 21.4075c70.271 8.2067 147.184 17.1892 405.541 17.1892s335.27-8.9825 405.54-17.1892c27.27-3.1842 53.53-6.2517 89.01-8.6323 88.95-5.96886 105.45-4.07312 105.45-4.07312v135.29792c0 2.209-1.79 4-4 4h-596-596c-2.20914 0-4-1.791-4-4v-135.29792s16.5044-1.89574 105.452 4.07312c35.476 2.3806 61.741 5.4481 89.007 8.6323z" fill="url(#b)" fill-rule="evenodd"/></g></svg>