<svg fill="none" height="100" viewBox="0 0 60 100" width="60" xmlns="http://www.w3.org/2000/svg" xmlns:xlink="http://www.w3.org/1999/xlink"><filter id="a" color-interpolation-filters="sRGB" filterUnits="userSpaceOnUse" height="21.3562" width="19.1255" x="18.1884" y="32.3048"><feFlood flood-opacity="0" result="BackgroundImageFix"/><feBlend in="SourceGraphic" in2="BackgroundImageFix" mode="normal" result="shape"/><feColorMatrix in="SourceAlpha" result="hardAlpha" type="matrix" values="0 0 0 0 0 0 0 0 0 0 0 0 0 0 0 0 0 0 127 0"/><feOffset dy="1"/><feGaussianBlur stdDeviation=".5"/><feComposite in2="hardAlpha" k2="-1" k3="1" operator="arithmetic"/><feColorMatrix type="matrix" values="0 0 0 0 0.913725 0 0 0 0 0.321569 0 0 0 0 0 0 0 0 1 0"/><feBlend in2="shape" mode="normal" result="effect1_innerShadow"/><feColorMatrix in="SourceAlpha" result="hardAlpha" type="matrix" values="0 0 0 0 0 0 0 0 0 0 0 0 0 0 0 0 0 0 127 0"/><feOffset dy="-1"/><feGaussianBlur stdDeviation=".5"/><feComposite in2="hardAlpha" k2="-1" k3="1" operator="arithmetic"/><feColorMatrix type="matrix" values="0 0 0 0 0.913725 0 0 0 0 0.321569 0 0 0 0 0 0 0 0 0.25 0"/><feBlend in2="effect1_innerShadow" mode="normal" result="effect2_innerShadow"/></filter><filter id="b" color-interpolation-filters="sRGB" filterUnits="userSpaceOnUse" height="10.879" width="16.0836" x="18.9841" y="38.9509"><feFlood flood-opacity="0" result="BackgroundImageFix"/><feColorMatrix in="SourceAlpha" result="hardAlpha" type="matrix" values="0 0 0 0 0 0 0 0 0 0 0 0 0 0 0 0 0 0 127 0"/><feOffset dy="1"/><feGaussianBlur stdDeviation=".5"/><feComposite in2="hardAlpha" operator="out"/><feColorMatrix type="matrix" values="0 0 0 0 0.901961 0 0 0 0 0.298039 0 0 0 0 0 0 0 0 0.6 0"/><feBlend in2="BackgroundImageFix" mode="normal" result="effect1_dropShadow"/><feBlend in="SourceGraphic" in2="effect1_dropShadow" mode="normal" result="shape"/></filter><linearGradient id="c" gradientUnits="userSpaceOnUse" x1="18" x2="18" y1="60.5002" y2="89.0002"><stop offset="0" stop-color="#383959"/><stop offset="1" stop-color="#252641" stop-opacity="0"/></linearGradient><linearGradient id="d" gradientUnits="userSpaceOnUse" x1="37.8752" x2="37.8752" y1="60.5002" y2="89.0002"><stop offset="0" stop-color="#2c2d53"/><stop offset="1" stop-color="#181937" stop-opacity="0"/></linearGradient><linearGradient id="e" gradientUnits="userSpaceOnUse" x1="7.47803" x2="47.978" y1="60.5002" y2="60.5002"><stop offset="0" stop-color="#60617d"/><stop offset="1" stop-color="#4d4f72"/></linearGradient><linearGradient id="f" gradientUnits="userSpaceOnUse" x1="7.5" x2="48" y1="60.5002" y2="60.5002"><stop offset="0" stop-color="#505177"/><stop offset="1" stop-color="#434569"/></linearGradient><radialGradient id="g" cx="0" cy="0" gradientTransform="matrix(.00095201 5.19484991 -5.13291991 .00094066 27.75 51.4999)" gradientUnits="userSpaceOnUse" r="1"><stop offset="0" stop-color="#f87809"/><stop offset="1" stop-color="#f37c00"/></radialGradient><linearGradient id="h" gradientUnits="userSpaceOnUse" x1="27.7507" x2="27.7507" y1="30.684" y2="55.2819"><stop offset="0" stop-color="#ffe27a"/><stop offset="1" stop-color="#ffc818"/></linearGradient><linearGradient id="i" gradientUnits="userSpaceOnUse" x1="27.7511" x2="27.7511" y1="33.3048" y2="52.661"><stop offset="0" stop-color="#fe9815"/><stop offset="1" stop-color="#fe9512"/></linearGradient><linearGradient id="j" gradientUnits="userSpaceOnUse" x1="27.75" x2="27.75" y1="33.5004" y2="66.5004"><stop offset="0" stop-color="#ffb547" stop-opacity="0"/><stop offset="1" stop-color="#ffb547" stop-opacity=".3"/></linearGradient><clipPath id="k"><path d="m15 30.5002h25.5v27h-25.5z"/></clipPath><mask id="l" height="100" maskUnits="userSpaceOnUse" width="60" x="0" y="0"><path d="m0 0h56c2.2091 0 4 1.79086 4 4v92c0 2.2091-1.7909 4-4 4h-56z" fill="#c4c4c4"/></mask><mask id="m" height="26" maskUnits="userSpaceOnUse" width="25" x="15" y="30"><path d="m15.7976 42.9831c0 6.6817 5.3513 12.0976 11.9534 12.0976s11.9535-5.4159 11.9535-12.0976c0-6.6818-5.3514-12.0977-11.9535-12.0977s-11.9534 5.4159-11.9534 12.0977z" fill="#ffc818"/></mask><g mask="url(#l)"><path d="m0 60.5002 27.75 8.25v20.25h-27.75z" fill="url(#c)"/><path d="m55.5002 60.5002-27.75 8.25v20.25h27.75z" fill="url(#d)"/><path d="m0 60.5002 27.7279-8.2279 27.7279 8.2279-27.7279 8.2279z" fill="url(#e)"/><path d="m7.5 60.5002 20.2279-5.9779 20.2279 5.9779-20.2279 5.9779z" fill="url(#f)"/><path clip-rule="evenodd" d="m27.7279 54.5225-20.2279 5.9779 2.5388.7503 17.6891-5.2277 17.6892 5.2277 2.5387-.7503z" fill="#323352" fill-rule="evenodd"/></g><g clip-path="url(#k)"><path d="m18.1882 31.3575 1.1265 1.1401-1.1265 1.1401-1.1265-1.1401c-.3175-.3097-.3251-.8207-.0191-1.1401.306-.3213.8109-.329 1.1265-.0193.0057.0058.0115.0135.0191.0193zm19.2421 0c.3118-.3155.8167-.3155 1.1265 0 .3099.3155.3118.8265 0 1.1401l-1.1284 1.1401-1.1265-1.1401z" fill="#f04365"/><path d="m17.7331 31.6404c1.2317-1.0452 3.6453-1.8756 5.1008-.12 1.4554 1.7556.6828 3.6312-1.0041 5.0636-1.685 1.4323-3.6453 1.8756-5.1008.1219-1.4554-1.7537-.2276-4.0203 1.0041-5.0655zm20.0359 0c1.2316 1.0452 2.4576 3.308 1.004 5.0636-1.4554 1.7556-3.4158 1.3104-5.1007-.122-1.6869-1.4323-2.4576-3.3079-1.0041-5.0635 1.4535-1.7537 3.8672-.9253 5.1008.1219z" fill="#ffc818"/><path d="m22.1377 30.9067.0593.0368c.2257.1491.4399.3387.6369.5749 1.4535 1.7556.6827 3.6312-1.0041 5.0636-1.685 1.4323-3.6454 1.8756-5.1008.1219-.4456-.5226-.6809-1.1943-.6598-1.8853.3002-.7529.7937-1.5098 1.4573-2.1814 1.444-1.4595 3.2781-2.0963 4.6112-1.7305zm15.8359 1.7305c.6636.6716 1.1571 1.4265 1.4573 2.1795.023.691-.2142 1.3646-.6598 1.8872-1.4554 1.7556-3.4158 1.3104-5.1007-.12-1.6869-1.4323-2.4577-3.308-1.0041-5.0636.2142-.2574.4494-.4607.6961-.6136 1.3331-.3677 3.1672.2691 4.6112 1.7305z" fill="#ff8413"/><path d="m22.6065 31.2723.1071.1103c.0401.0426.0803.089.1205.1374.48.5788.7172 1.1691.7592 1.7556-.327.8711-1.0805 1.8911-2.1324 2.7835-1.1265.9581-2.3353 1.5485-3.2705 1.6743-.5202-.1587-1.0136-.4897-1.4612-1.0298-.0497-.058-.0956-.12-.1396-.1819.0593-.9853.9276-2.377 2.3104-3.5519 1.312-1.1149 2.7368-1.7343 3.7065-1.6975zm13.996 1.6975c1.3809 1.173 2.2492 2.5647 2.3104 3.5519-.044.0619-.0918.1239-.1416.1819-.4456.5401-.9429.8711-1.4631 1.0298-.9333-.1258-2.142-.7181-3.2685-1.6743-1.0519-.8924-1.8055-1.9124-2.1325-2.7835.0421-.5845.2811-1.1768.7593-1.7556.0727-.089.1492-.1703.2276-.2458.9715-.0368 2.3945.5807 3.7084 1.6956z" fill="#e95200"/><path d="m15 43.79c0 7.127 5.709 12.9048 12.751 12.9048s12.7509-5.7778 12.7509-12.9048-5.707-12.9048-12.749-12.9048c-7.042-.0019-12.7529 5.774-12.7529 12.9009z" fill="url(#g)"/><path d="m15.7976 42.9828c0 6.6818 5.3513 12.0977 11.9534 12.0977s11.9535-5.4159 11.9535-12.0977c0-6.6817-5.3514-12.0976-11.9535-12.0976s-11.9534 5.4159-11.9534 12.0976z" fill="#ffc818"/><g fill="#ffe279" mask="url(#m)"><path d="m42.5 32.0002-4 7 4 5 6-5z"/><path d="m40 29.5002-6.5 10h2.5l5.5-8.5z"/></g><path d="m27.7507 30.684c-6.7111 0-12.1523 5.5069-12.1523 12.299s5.4412 12.2989 12.1523 12.2989 12.1523-5.5068 12.1523-12.2989-5.4412-12.299-12.1523-12.299zm0 .4026c6.4912 0 11.7545 5.3269 11.7545 11.8964s-5.2633 11.8963-11.7545 11.8963-11.7545-5.3268-11.7545-11.8963 5.2614-11.8964 11.7545-11.8964z" fill="url(#h)"/><g filter="url(#a)"><path d="m18.1884 42.9829c0 5.3443 4.2821 9.6781 9.5627 9.6781 5.2805 0 9.5627-4.3338 9.5627-9.6781 0-5.3442-4.2822-9.6781-9.5627-9.6781-5.2806 0-9.5627 4.3319-9.5627 9.6781z" fill="url(#i)"/></g><g filter="url(#b)"><path d="m27.751 43.7881c0 .2168-.1741.393-.3863.393-.0039 0-.0077 0-.0096 0l-7.1721-.1878c-.1109 0-.1989-.091-.1989-.2013s.0899-.2013.1989-.2013l7.1721-.1916c.2142-.0058.3921.1645.3978.3813-.0019 0-.0019.0039-.0019.0077z" fill="#ffe040"/><g fill="#ffe043"><path d="m27.7507 38.9509c.5316 0 .7975.269.7975.8072v4.0319c0 .5381-.2659.8071-.7975.8071-.5317 0-.7976-.269-.7976-.8071v-4.0339c0-.5381.2659-.8052.7976-.8052z"/><path d="m33.9608 47.4274c-.2199.3852-.7076.5168-1.0882.2942l-5.5215-3.2267c-.3806-.2245-.5069-.72-.285-1.1033.2199-.3813.7019-.511 1.0806-.2923l5.5215 3.2267c.3825.2207.5126.7143.2926 1.1014z"/></g></g><path d="m19.7814 52.661c.3099.2807.6751.5613 1.0959.8478.4227.2846.853.5401 1.2948.7665l-2.9052 2.9402c-.1797.182-.4245.2865-.6808.2846-.1588 0-.2869-.1297-.2869-.2904 0-.0309.0057-.0619.0153-.0929zm15.9373 0 1.4688 4.4578c.0497.1529-.0306.3174-.1817.3677-.0287.0097-.0593.0155-.0918.0155-.2543 0-.4992-.1026-.6808-.2845l-2.9052-2.9402c.8549-.4491 1.6563-.9911 2.3907-1.6163z" fill="#f85600"/><path d="m20.8774 53.5067c.4227.2845.853.54 1.2948.7665l-2.9052 2.9402c-.0975.0987-.2161.1742-.3423.2226l1.7767-4.0512c0 .0019.176.1219.176.1219zm13.9176-.1297 1.7825 4.059c-.0937-.0348-.1836-.0871-.262-.151l-.0823-.0716-2.9051-2.9421c.4303-.2246.8453-.4723 1.2489-.7452z" fill="#f32f08"/><path d="m27.7511 43.3855c-.22 0-.3978.18-.3978.4026s.1778.4026.3978.4026c.2199 0 .3978-.18.3978-.4026s-.1779-.4026-.3978-.4026z" fill="#ff962a"/></g><path d="m7.5 60.5004-7.5-27h55.5l-7.875 27-20.25 6z" fill="url(#j)"/><g fill="#ffc919"><circle cx="46.8748" cy="52.6246" r="1.125"/><circle cx="25.8752" cy="26.3754" r=".375"/><circle cx="8.25" cy="46.2502" r=".75"/><circle cx="13.8754" cy="57.1252" r=".375"/><circle cx="33.0004" cy="58.9998" r=".75"/><circle cx="38.25" cy="42.5002" r=".75"/></g></svg>