<svg fill="none" height="50" viewBox="0 0 343 50" width="343" xmlns="http://www.w3.org/2000/svg" xmlns:xlink="http://www.w3.org/1999/xlink"><linearGradient id="a" gradientUnits="userSpaceOnUse" x1="349.214" x2="-4.60856" y1="47.5" y2="-15.8951"><stop offset="0" stop-color="#5357a5"/><stop offset="1" stop-color="#4f1e76"/></linearGradient><linearGradient id="b" gradientUnits="userSpaceOnUse" x1="-.000001" x2="343" y1="25" y2="25"><stop offset="0" stop-color="#7a195e"/><stop offset="1" stop-color="#15234e"/></linearGradient><linearGradient id="c" gradientUnits="userSpaceOnUse" x1="209.5" x2="368.5" y1=".500005" y2="80.5"><stop offset="0" stop-color="#fff"/><stop offset="1" stop-color="#fff" stop-opacity="0"/></linearGradient><mask id="d" height="50" maskUnits="userSpaceOnUse" width="343" x="0" y="0"><path d="m0 4c0-2.20914 1.79086-4 4-4h335c2.209 0 4 1.79086 4 4v46h-343z" fill="url(#b)" fill-opacity=".4"/></mask><path d="m0 8c0-3.77124 0-5.65685 1.17157-6.82843 1.17158-1.17157 3.05719-1.17157 6.82843-1.17157h327c3.771 0 5.657 0 6.828 1.17157 1.172 1.17158 1.172 3.05719 1.172 6.82843v42h-343z" fill="url(#a)"/><g clip-rule="evenodd" fill-opacity=".2" fill-rule="evenodd" mask="url(#d)"><path d="m85.9903-49.715c-16.5257-17.3924-49.949-29.285-88.4903-29.285-54.9523 0-99.5 24.1766-99.5 54 0 9.7184 4.7304 18.83711 13.0098 26.71507.6414.67507 1.3083 1.34186 2 2 .6414.67507 1.3083 1.34186 2 2 .6414.67505 1.3083 1.34183 1.9999 1.99994.6415.6751 1.3084 1.34191 2.0001 2.00006.6414.67503 1.3083 1.34183 1.9999 1.99993.6415.6751 1.3084 1.3419 2.0001 2.0001 16.5257 17.3923 49.9489 29.2849 88.4902 29.2849 54.9523 0 99.5-24.1766 99.5-54 0-9.7184-4.73-18.8371-13.0097-26.715-.6415-.6752-1.3084-1.3419-2.0001-2.0001-.6414-.6751-1.3083-1.3418-1.9999-1.9999-.6415-.6751-1.3084-1.3419-2-2-.6415-.6752-1.3084-1.3419-2.0001-2.0001-.6414-.6751-1.3083-1.3418-1.9999-1.9999-.6415-.6751-1.3084-1.3419-2-2zm10.5097 24.715c0 14.6416-10.9424 28.0086-28.8814 37.7443-17.9195 9.7252-42.7092 15.7557-70.1186 15.7557s-52.1991-6.0305-70.1186-15.7557c-3.258-1.7681-6.2852-3.65605-9.058-5.64963-3.7758-5.66586-5.8234-11.76102-5.8234-18.09467 0-14.6416 10.9424-28.0086 28.8814-37.7443 17.9195-9.7252 42.7092-15.7557 70.1186-15.7557s52.1991 6.0305 70.1186 15.7557c3.258 1.7681 6.2853 3.6561 9.0581 5.6497 3.7757 5.6658 5.8233 11.761 5.8233 18.0946zm-4.6956-17.2675c3.3692 5.4218 5.1956 11.2289 5.1956 17.2675 0 29.82338-44.5477 54-99.5 54-31.23 0-59.0995-7.8085-77.3415-20.02427 2.8175 2.03747 5.9002 3.96527 9.2229 5.76857 17.9195 9.7252 42.7092 15.7557 70.1186 15.7557s52.1991-6.0305 70.1186-15.7557c17.939-9.7357 28.8814-23.10265 28.8814-37.7443 0-6.7355-2.3157-13.2013-6.5629-19.1679-.0441-.0332-.0884-.0664-.1327-.0996zm-14.9628-14.7082c-18.2421-12.2158-46.1116-20.0243-77.3416-20.0243-54.9523 0-99.5 24.1766-99.5 54 0 6.279 1.9747 12.3078 5.6054 17.91328-4.5921-6.17208-7.1054-12.89628-7.1054-19.91328 0-14.6416 10.9424-28.0086 28.8814-37.7443 17.9195-9.7252 42.7092-15.7557 70.1186-15.7557s52.1991 6.0305 70.1186 15.7557c3.3227 1.8033 6.4054 3.7311 9.223 5.7686zm-159.6459 63.24322c-3.3693-5.421779-5.1957-11.22892-5.1957-17.26752 0-29.8234 44.5477-54 99.5-54 31.2299 0 59.0995 7.8085 77.3416 20.0243-2.8176-2.0375-5.9003-3.9653-9.223-5.7686-17.9195-9.7252-42.7092-15.7557-70.1186-15.7557s-52.1991 6.0305-70.1186 15.7557c-17.939 9.7357-28.8814 23.1027-28.8814 37.7443 0 6.73554 2.3157 13.201317 6.5629 19.16793.0442.03323.0884.06642.1328.09959zm181.8043-29.26752c0-6.279-1.9747-12.3078-5.6054-17.9132 4.5922 6.172 7.1054 12.8962 7.1054 19.9132 0 14.64165-10.9424 28.0086-28.8814 37.7443-17.9195 9.7252-42.7092 15.7557-70.1186 15.7557s-52.1991-6.0305-70.1186-15.7557c-3.3228-1.8033-6.4054-3.7311-9.223-5.7686 18.2421 12.2158 46.1116 20.0243 77.3416 20.0243 54.9523 0 99.5-24.17662 99.5-54zm-97.5-52c31.23 0 59.0996 7.8085 77.3416 20.0243-2.8176-2.0375-5.9003-3.9653-9.223-5.7686-17.9195-9.7252-42.7092-15.7557-70.1186-15.7557s-52.1991 6.0305-70.1186 15.7557c-17.939 9.7357-28.8814 23.1027-28.8814 37.7443 0 7.017 2.5133 13.74123 7.1054 19.91328-3.6307-5.60549-5.6054-11.63428-5.6054-17.91328 0-29.8234 44.5477-54 99.5-54zm93.8946 36.0867c3.6307 5.6055 5.6054 11.6343 5.6054 17.9133 0 29.82338-44.5477 54-99.5 54-31.23 0-59.0995-7.8085-77.3416-20.0243 2.8176 2.0375 5.9002 3.9653 9.223 5.7686 17.9195 9.7252 42.7092 15.7557 70.1186 15.7557s52.1991-6.0305 70.1186-15.7557c17.939-9.73569 28.8814-23.10265 28.8814-37.7443 0-7.017-2.5132-13.7412-7.1054-19.9133zm-14.5531-14.0625c-18.2421-12.2157-46.1116-20.0242-77.3415-20.0242-54.9523 0-99.5 24.1766-99.5 54 0 6.2791 1.9747 12.3078 5.6054 17.9133-4.5921-6.17207-7.1054-12.8963-7.1054-19.9133 0-14.6416 10.9424-28.0086 28.8814-37.7443 17.9195-9.7252 42.7092-15.7557 70.1186-15.7557s52.1991 6.0305 70.1186 15.7557c3.3227 1.8033 6.4054 3.7311 9.2229 5.7685zm22.1585 33.9758c0-6.279-1.975-12.3077-5.6054-17.9132 4.5924 6.172 7.1054 12.8962 7.1054 19.9132 0 14.64165-10.9424 28.0086-28.8814 37.7443-17.9195 9.7252-42.7092 15.7557-70.1186 15.7557s-52.1991-6.0305-70.1186-15.7557c-3.3227-1.8033-6.4054-3.7311-9.223-5.7686 18.2421 12.2158 46.1116 20.0243 77.3416 20.0243 54.9523 0 99.5-24.1766 99.5-54zm-97.5-52c31.23 0 59.0995 7.8085 77.3416 20.0243-2.8176-2.0375-5.9003-3.9653-9.223-5.7686-17.9195-9.7252-42.7092-15.7557-70.1186-15.7557s-52.1991 6.0305-70.1186 15.7557c-17.939 9.7357-28.8814 23.1027-28.8814 37.7443 0 7.017 2.5132 13.7412 7.1054 19.913261-3.6307-5.605491-5.6054-11.634261-5.6054-17.913261 0-29.8234 44.5477-54 99.5-54zm93.8947 36.0868c3.6303 5.6055 5.6053 11.6342 5.6053 17.9132 0 29.8234-44.5477 54-99.5 54-31.23 0-59.0995-7.8085-77.3416-20.0243 2.8176 2.0375 5.9002 3.9653 9.223 5.7686 17.9195 9.7252 42.7092 15.7557 70.1186 15.7557s52.1991-6.0305 70.1186-15.7557c17.939-9.7357 28.8814-23.102653 28.8814-37.7443 0-7.017-2.513-13.7411-7.1053-19.9132zm-14.5531-14.0625c-18.2421-12.2158-46.1116-20.0243-77.3416-20.0243-54.9523 0-99.5 24.1766-99.5 54 0 6.27905 1.9747 12.30779 5.6054 17.91329-4.5921-6.17206-7.1054-12.89629-7.1054-19.91329 0-14.6416 10.9424-28.0086 28.8814-37.7443 17.9195-9.7252 42.7092-15.7557 70.1186-15.7557s52.1991 6.0305 70.1186 15.7557c3.3227 1.8033 6.4054 3.7311 9.223 5.7686zm22.1584 33.9757c0-6.279-1.975-12.3077-5.605-17.9132 4.592 6.172 7.105 12.8962 7.105 19.9132 0 14.64165-10.9424 28.0086-28.8814 37.7443-17.9195 9.7252-42.7092 15.7557-70.1186 15.7557s-52.1991-6.0305-70.1186-15.7557c-3.3228-1.8033-6.4054-3.7311-9.223-5.7686 18.2421 12.2158 46.1116 20.0243 77.3416 20.0243 54.9523 0 99.5-24.1766 99.5-54zm-97.5-52c31.2299 0 59.0994 7.8085 77.3415 20.0242-2.8175-2.0374-5.9002-3.9653-9.2229-5.7685-17.9195-9.7252-42.7092-15.7557-70.1186-15.7557s-52.1991 6.0305-70.1186 15.7557c-17.939 9.7357-28.8814 23.1027-28.8814 37.7443 0 7.01699 2.5132 13.74122 7.1054 19.91328-3.6307-5.605503-5.6054-11.63424-5.6054-17.91328 0-29.8234 44.5477-54 99.5-54zm93.895 36.0867c3.63 5.6055 5.605 11.6343 5.605 17.9133 0 29.8234-44.5477 54-99.5 54-31.23 0-59.0995-7.8085-77.3416-20.0243 2.8176 2.0375 5.9002 3.9653 9.223 5.7686 17.9195 9.7252 42.7092 15.7557 70.1186 15.7557s52.1991-6.0305 70.1186-15.7557c17.939-9.7357 28.8814-23.10265 28.8814-37.7443 0-7.017-2.513-13.7412-7.105-19.9133z" fill="#fff"/><path d="m69.9903-65.715c-16.5257-17.3924-49.949-29.285-88.4903-29.285-54.9523 0-99.5 24.1766-99.5 54 0 9.7184 4.73 18.8371 13.01 26.7151.641.675 1.308 1.3418 2 2 .641.675 1.308 1.3418 2 2 .641.67502 1.3081 1.3418 1.9997 1.99991.6415.6751 1.3084 1.34191 2.0001 2.00006.6414.67507 1.3083 1.34184 1.9999 1.99996.6415.67509 1.3084 1.3419 2.0001 2.00004 16.5257 17.39233 49.9489 29.28493 88.4902 29.28493 54.9523 0 99.5-24.17662 99.5-54 0-9.7184-4.7304-18.8371-13.0097-26.715-.6415-.6751-1.3084-1.3419-2.0001-2.0001-.6414-.6751-1.3083-1.3418-1.9999-1.9999-.6415-.6751-1.3084-1.3419-2-2-.6415-.6751-1.3084-1.3419-2.0001-2.0001-.6414-.6751-1.3083-1.3418-1.9999-1.9999-.6415-.6751-1.3084-1.3419-2-2zm10.5097 24.715c0 14.6416-10.9424 28.0086-28.8814 37.74432-17.9195 9.72514-42.70921 15.75568-70.1186 15.75568-27.4094 0-52.1991-6.03054-70.1186-15.75568-3.258-1.76815-6.2852-3.65607-9.058-5.64965-3.7754-5.66587-5.8234-11.76107-5.8234-18.09467 0-14.6416 10.9424-28.0086 28.8814-37.7443 17.9195-9.7252 42.7092-15.7557 70.1186-15.7557s52.1991 6.0305 70.1186 15.7557c3.258 1.7681 6.2853 3.6561 9.0581 5.6497 3.7757 5.6659 5.8233 11.761 5.8233 18.0946zm-4.6956-17.2675c3.3692 5.4218 5.1956 11.2289 5.1956 17.2675 0 29.8234-44.5477 54-99.5 54-31.23 0-59.0995-7.80848-77.3415-20.02427 2.8175 2.03747 5.9002 3.9653 9.2229 5.76859 17.9195 9.72514 42.7092 15.75568 70.1186 15.75568s52.1991-6.03054 70.1186-15.75568c17.939-9.73572 28.8814-23.10272 28.8814-37.74432 0-6.7355-2.3157-13.2013-6.5629-19.1679-.0441-.0332-.0884-.0664-.1327-.0996zm-14.9628-14.7082c-18.2421-12.2158-46.1116-20.0243-77.3416-20.0243-54.9523 0-99.5 24.1766-99.5 54 0 6.279 1.975 12.3078 5.605 17.9133-4.592-6.1721-7.105-12.8963-7.105-19.9133 0-14.6416 10.942-28.0086 28.8814-37.7443 17.9195-9.7252 42.7092-15.7557 70.1186-15.7557 27.40939 0 52.1991 6.0305 70.1186 15.7557 3.3227 1.8033 6.4054 3.7311 9.223 5.7686zm-159.6459 63.24322c-3.3697-5.42182-5.1957-11.22892-5.1957-17.26752 0-29.8234 44.5477-54 99.5-54 31.2299 0 59.0995 7.8085 77.3416 20.0243-2.8176-2.0375-5.9003-3.9653-9.223-5.7686-17.9195-9.7252-42.7092-15.7557-70.1186-15.7557s-52.1991 6.0305-70.1186 15.7557c-17.939 9.7357-28.8814 23.1027-28.8814 37.7443 0 6.7355 2.316 13.2013 6.5629 19.16793.0442.03323.0884.06642.1328.09959zm181.8043-29.26752c0-6.279-1.9747-12.3078-5.6054-17.9132 4.5922 6.172 7.1054 12.8962 7.1054 19.9132 0 14.6416-10.9424 28.0086-28.8814 37.744316-17.9195 9.725184-42.7092 15.755684-70.1186 15.755684s-52.1991-6.0305-70.1186-15.755684c-3.3228-1.803286-6.4054-3.731126-9.223-5.768596 18.2421 12.21579 46.1116 20.02428 77.3416 20.02428 54.9523 0 99.5-24.17662 99.5-54zm-97.5-52c31.23 0 59.0996 7.8085 77.3416 20.0243-2.8176-2.0375-5.9003-3.9653-9.223-5.7686-17.9195-9.7252-42.7092-15.7557-70.1186-15.7557s-52.1991 6.0305-70.1186 15.7557c-17.9394 9.7357-28.8814 23.1027-28.8814 37.7443 0 7.017 2.513 13.7412 7.105 19.9133-3.63-5.6055-5.605-11.6343-5.605-17.9133 0-29.8234 44.5477-54 99.5-54zm93.8946 36.0867c3.6307 5.6055 5.6054 11.6343 5.6054 17.9133 0 29.82338-44.5477 54-99.5 54-31.23 0-59.0995-7.80849-77.3416-20.02428 2.8176 2.037471 5.9002 3.965305 9.223 5.7686 17.9195 9.72518 42.7092 15.75568 70.1186 15.75568s52.1991-6.0305 70.1186-15.75568c17.939-9.73572 28.8814-23.10272 28.8814-37.74432 0-7.017-2.5132-13.7412-7.1054-19.9133zm-14.5531-14.0625c-18.2421-12.2157-46.1116-20.0242-77.3415-20.0242-54.9523 0-99.5 24.1766-99.5 54 0 6.2791 1.975 12.3078 5.605 17.9133-4.592-6.1721-7.105-12.8963-7.105-19.9133 0-14.6416 10.942-28.0086 28.8814-37.7443 17.9195-9.7252 42.7092-15.7557 70.1186-15.7557s52.1991 6.0305 70.1186 15.7557c3.3227 1.8033 6.4054 3.7311 9.2229 5.7685zm22.1585 33.9758c0-6.279-1.9747-12.3077-5.6054-17.9132 4.5922 6.172 7.1054 12.8962 7.1054 19.9132 0 14.6416-10.9424 28.0086-28.8814 37.74432-17.9195 9.72518-42.7092 15.75568-70.1186 15.75568s-52.1991-6.0305-70.1186-15.75568c-3.3227-1.80329-6.4054-3.73114-9.223-5.7686 18.2421 12.21578 46.1116 20.02428 77.3416 20.02428 54.9523 0 99.5-24.17662 99.5-54zm-97.5-52c31.23 0 59.0995 7.8085 77.3416 20.0243-2.8176-2.0375-5.9003-3.9653-9.223-5.7686-17.9195-9.7252-42.7092-15.7557-70.1186-15.7557s-52.1991 6.0305-70.1186 15.7557c-17.9394 9.7357-28.8814 23.1027-28.8814 37.7443 0 7.017 2.513 13.7412 7.105 19.9133-3.63-5.6055-5.605-11.6343-5.605-17.9133 0-29.8234 44.5477-54 99.5-54zm93.8947 36.0868c3.6306 5.6055 5.6053 11.6342 5.6053 17.9132 0 29.82338-44.5477 54-99.5 54-31.23 0-59.0995-7.8085-77.3416-20.024307 2.8176 2.037477 5.9002 3.965327 9.223 5.768627 17.9195 9.72518 42.7092 15.75568 70.1186 15.75568s52.1991-6.0305 70.1186-15.75568c17.939-9.73572 28.8814-23.10272 28.8814-37.74432 0-7.017-2.5132-13.7411-7.1053-19.9132zm-14.5531-14.0625c-18.2421-12.2158-46.1116-20.0243-77.3416-20.0243-54.9523 0-99.5 24.1766-99.5 54 0 6.2791 1.975 12.3078 5.605 17.9133-4.592-6.1721-7.105-12.8963-7.105-19.9133 0-14.6416 10.9424-28.0086 28.8814-37.7443 17.9195-9.7252 42.7092-15.7557 70.1186-15.7557s52.1991 6.0305 70.1186 15.7557c3.3227 1.8033 6.4054 3.7311 9.223 5.7686zm22.1584 33.9757c0-6.279-1.9747-12.3077-5.6054-17.9132 4.5922 6.172 7.1054 12.8962 7.1054 19.9132 0 14.6416-10.9424 28.008598-28.8814 37.74432-17.9195 9.72518-42.7092 15.75568-70.1186 15.75568s-52.1991-6.0305-70.1186-15.75568c-3.3228-1.8033-6.4054-3.73114-9.223-5.76862 18.2421 12.2158 46.1116 20.0243 77.3416 20.0243 54.9523 0 99.5-24.17662 99.5-54zm-97.5-52c31.2299 0 59.0994 7.8085 77.3415 20.0242-2.8175-2.0374-5.9002-3.9653-9.2229-5.7685-17.9195-9.7252-42.7092-15.7557-70.1186-15.7557s-52.1991 6.0305-70.1186 15.7557c-17.939 9.7357-28.8814 23.1027-28.8814 37.7443 0 7.017 2.513 13.7412 7.105 19.9133-3.63-5.6055-5.605-11.6343-5.605-17.9133 0-29.8234 44.5477-54 99.5-54zm93.8946 36.0867c3.6307 5.6055 5.6054 11.6343 5.6054 17.9133 0 29.82338-44.5477 54-99.5 54-31.23 0-59.0995-7.8085-77.3416-20.02428 2.8176 2.03747 5.9002 3.9653 9.223 5.76858 17.9195 9.7252 42.7092 15.7557 70.1186 15.7557s52.1991-6.0305 70.1186-15.7557c17.939-9.7357 28.8814-23.1027 28.8814-37.7443 0-7.017-2.5132-13.7412-7.1054-19.9133z" fill="#fff"/><path d="m53.9903-81.715c-16.5257-17.3924-49.94896-29.285-88.4903-29.285-54.9523 0-99.5 24.1766-99.5 54 0 9.7184 4.73 18.8371 13.01 26.7151.641.675 1.308 1.3418 2 2 .641.675 1.308 1.3418 2 2 .641.675 1.308 1.3418 2 1.9999.641.6751 1.308 1.3419 2 2.0001.641.675 1.308 1.3418 2 1.9999.641.6751 1.308 1.3419 2 2.0001 16.5255 17.39233 49.9487 29.2849 88.49 29.2849 54.9523 0 99.5-24.1766 99.5-54 0-9.7184-4.7304-18.8371-13.0097-26.715-.6415-.6751-1.3084-1.3419-2.0001-2.0001-.6414-.6751-1.3083-1.3418-1.9999-1.9999-.6415-.6751-1.3084-1.3419-2-2-.6415-.6751-1.3084-1.3419-2.0001-2.0001-.6414-.6751-1.3083-1.3418-1.9999-1.9999-.6415-.6751-1.3084-1.3419-2-2zm10.5097 24.715c0 14.6416-10.9424 28.0086-28.8814 37.7443-17.9195 9.72516-42.70921 15.7557-70.1186 15.7557-27.4094 0-52.1991-6.03054-70.119-15.7557-3.258-1.7681-6.285-3.6561-9.058-5.6496-3.775-5.6659-5.823-11.7611-5.823-18.0947 0-14.6416 10.942-28.0086 28.8814-37.7443 17.9195-9.7252 42.7092-15.7557 70.1186-15.7557 27.40939 0 52.1991 6.0305 70.1186 15.7557 3.258 1.7681 6.2853 3.6561 9.0581 5.6497 3.7757 5.6659 5.8233 11.761 5.8233 18.0946zm-4.6956-17.2675c3.3692 5.4218 5.1956 11.2289 5.1956 17.2675 0 29.8234-44.5477 54-99.5 54-31.23 0-59.0995-7.8085-77.342-20.0243 2.818 2.0375 5.901 3.9653 9.223 5.7686 17.9199 9.72516 42.7096 15.7557 70.119 15.7557 27.40939 0 52.1991-6.03054 70.1186-15.7557 17.939-9.7357 28.8814-23.1027 28.8814-37.7443 0-6.7355-2.3157-13.2013-6.5629-19.1679-.0441-.0332-.0884-.0664-.1327-.0996zm-14.9628-14.7082c-18.2421-12.2153-46.11162-20.0243-77.3416-20.0243-54.9523 0-99.5 24.1766-99.5 54 0 6.279 1.975 12.3078 5.605 17.9133-4.592-6.1721-7.105-12.8963-7.105-19.9133 0-14.6416 10.942-28.0086 28.881-37.7443 17.9199-9.7247 42.7096-15.7557 70.119-15.7557 27.40939 0 52.1991 6.031 70.1186 15.7557 3.3227 1.8033 6.4054 3.7311 9.223 5.7686zm-159.6456 63.2432c-3.37-5.4218-5.196-11.2289-5.196-17.2675 0-29.8234 44.5477-54 99.5-54 31.2299 0 59.0995 7.8085 77.3416 20.0243-2.8176-2.0375-5.9003-3.9653-9.223-5.7686-17.9195-9.7252-42.70921-15.7557-70.1186-15.7557-27.4094 0-52.1991 6.0305-70.1186 15.7557-17.9394 9.7357-28.8814 23.1027-28.8814 37.7443 0 6.7355 2.316 13.2013 6.563 19.1679.044.0333.088.0665.133.0996zm181.804-29.2675c0-6.279-1.9747-12.3078-5.6054-17.9132 4.5922 6.172 7.1054 12.8962 7.1054 19.9132 0 14.6416-10.9424 28.0086-28.8814 37.7443-17.9195 9.72516-42.70921 15.7557-70.1186 15.7557-27.4094 0-52.1991-6.03054-70.119-15.7557-3.322-1.8033-6.405-3.7311-9.223-5.7686 18.2425 12.21581 46.112 20.0243 77.342 20.0243 54.9523 0 99.5-24.1766 99.5-54zm-97.5-52c31.229996 0 59.0996 7.8085 77.3416 20.0243-2.8176-2.0375-5.9003-3.9653-9.223-5.7686-17.9195-9.7247-42.70921-15.7557-70.1186-15.7557-27.4094 0-52.1991 6.031-70.119 15.7557-17.939 9.7357-28.881 23.1027-28.881 37.7443 0 7.017 2.513 13.7412 7.105 19.9133-3.63-5.6055-5.605-11.6343-5.605-17.9133 0-29.8234 44.5477-54 99.5-54zm93.8946 36.0867c3.6307 5.6055 5.6054 11.6343 5.6054 17.9133 0 29.8234-44.5477 54-99.5 54-31.23 0-59.0995-7.80849-77.342-20.0243 2.818 2.0375 5.901 3.9653 9.2234 5.7686 17.9195 9.72516 42.7092 15.7557 70.1186 15.7557 27.40939 0 52.1991-6.03054 70.1186-15.7557 17.939-9.7357 28.8814-23.1027 28.8814-37.7443 0-7.017-2.5132-13.7412-7.1054-19.9133zm-14.5531-14.0625c-18.2421-12.2157-46.11158-20.0242-77.3415-20.0242-54.9523 0-99.5 24.1766-99.5 54 0 6.2791 1.975 12.3078 5.605 17.9133-4.592-6.1721-7.105-12.8963-7.105-19.9133 0-14.6416 10.942-28.0086 28.881-37.7443 17.9199-9.7247 42.7096-15.7557 70.119-15.7557 27.40939 0 52.1991 6.031 70.1186 15.7557 3.3227 1.8033 6.4054 3.7311 9.2229 5.7685zm22.1585 33.9758c0-6.279-1.9747-12.3077-5.6054-17.9132 4.5922 6.172 7.1054 12.8962 7.1054 19.9132 0 14.6416-10.9424 28.0086-28.8814 37.7443-17.9195 9.72516-42.709207 15.7557-70.1186 15.7557-27.4094 0-52.1991-6.03054-70.1186-15.7557-3.3227-1.8033-6.4054-3.7311-9.2234-5.7686 18.2425 12.21581 46.112 20.0243 77.342 20.0243 54.9523 0 99.5-24.1766 99.5-54zm-97.5-52c31.22998 0 59.0995 7.8085 77.3416 20.0243-2.8176-2.0375-5.9003-3.9653-9.223-5.7686-17.9195-9.7252-42.70921-15.7557-70.1186-15.7557-27.4094 0-52.1991 6.0305-70.1186 15.7557-17.9394 9.7357-28.8814 23.1027-28.8814 37.7443 0 7.017 2.513 13.7412 7.105 19.9133-3.63-5.6055-5.605-11.6343-5.605-17.9133 0-29.8234 44.5477-54 99.5-54zm93.8947 36.0868c3.6306 5.6055 5.6053 11.6342 5.6053 17.9132 0 29.8234-44.5477 54-99.5 54-31.23 0-59.0995-7.80849-77.342-20.0243 2.818 2.0375 5.9006 3.9653 9.2234 5.76862 17.9195 9.72514 42.7092 15.75568 70.1186 15.75568 27.40939 0 52.1991-6.03054 70.1186-15.75568 17.939-9.73572 28.8814-23.10272 28.8814-37.74432 0-7.017-2.5132-13.7411-7.1053-19.9132zm-14.5531-14.0625c-18.2421-12.2158-46.1116-20.0243-77.3416-20.0243-54.9523 0-99.5 24.1766-99.5 54 0 6.2791 1.975 12.3078 5.605 17.9133-4.592-6.1721-7.105-12.8963-7.105-19.9133 0-14.6416 10.942-28.0086 28.8814-37.7443 17.9195-9.7252 42.7092-15.7557 70.1186-15.7557 27.409393 0 52.1991 6.0305 70.1186 15.7557 3.3227 1.8033 6.4054 3.7311 9.223 5.7686zm22.1584 33.9757c0-6.279-1.9747-12.3077-5.6054-17.9132 4.5922 6.172 7.1054 12.8962 7.1054 19.9132 0 14.6416-10.9424 28.0086-28.8814 37.74432-17.9195 9.72514-42.70921 15.75568-70.1186 15.75568-27.4094 0-52.1991-6.03054-70.1186-15.75568-3.3228-1.8033-6.4054-3.73112-9.2234-5.76862 18.2425 12.215805 46.112 20.0243 77.342 20.0243 54.9523 0 99.5-24.1766 99.5-54zm-97.5-52c31.22992 0 59.0994 7.8085 77.3415 20.0242-2.8175-2.0374-5.9002-3.9653-9.2229-5.7685-17.9195-9.7252-42.70921-15.7557-70.1186-15.7557-27.4094 0-52.1991 6.0305-70.1186 15.7557-17.9394 9.7357-28.8814 23.1027-28.8814 37.7443 0 7.017 2.513 13.7412 7.105 19.9133-3.63-5.6055-5.605-11.6343-5.605-17.9133 0-29.8234 44.5477-54 99.5-54zm93.8946 36.0867c3.6307 5.6055 5.6054 11.6343 5.6054 17.9133 0 29.8234-44.5477 54-99.5 54-31.23 0-59.0995-7.80849-77.3416-20.0243 2.8176 2.03749 5.9002 3.96532 9.223 5.76862 17.9195 9.72514 42.7092 15.75568 70.1186 15.75568 27.40939 0 52.1991-6.03054 70.1186-15.75568 17.939-9.73572 28.8814-23.10272 28.8814-37.74432 0-7.017-2.5132-13.7412-7.1054-19.9133z" fill="#fff"/><g fill="url(#c)"><path d="m466.99 30.285c-16.525-17.3924-49.949-29.285-88.49-29.285-54.952 0-99.5 24.1766-99.5 54 0 9.7184 4.73 18.8371 13.01 26.7151.641.675 1.308 1.3418 2 2 .641.675 1.308 1.3418 2 2 .641.675 1.308 1.3418 2 1.9999.641.6751 1.308 1.3419 2 2.0001.641.675 1.308 1.3418 2 1.9999.641.6751 1.308 1.3419 2 2.0001 16.525 17.3919 49.949 29.2849 88.49 29.2849 54.952 0 99.5-24.1766 99.5-54 0-9.7184-4.73-18.8371-13.01-26.715-.641-.6752-1.308-1.3419-2-2.0001-.641-.6751-1.308-1.3418-2-1.9999-.641-.6751-1.308-1.3419-2-2-.641-.6752-1.308-1.3419-2-2.0001-.641-.6751-1.308-1.3418-2-1.9999-.641-.6751-1.308-1.3419-2-2zm10.51 24.715c0 14.6416-10.942 28.0086-28.881 37.7443-17.92 9.7247-42.71 15.7557-70.119 15.7557s-52.199-6.031-70.119-15.7557c-3.258-1.7681-6.285-3.6561-9.058-5.6496-3.775-5.6659-5.823-11.7611-5.823-18.0947 0-14.6416 10.942-28.0086 28.881-37.7443 17.92-9.7252 42.71-15.7557 70.119-15.7557s52.199 6.0305 70.119 15.7557c3.258 1.7681 6.285 3.6561 9.058 5.6497 3.775 5.6658 5.823 11.761 5.823 18.0946zm-4.696-17.2675c3.37 5.4218 5.196 11.2289 5.196 17.2675 0 29.8234-44.548 54-99.5 54-31.23 0-59.099-7.808-77.342-20.0243 2.818 2.0375 5.901 3.9653 9.223 5.7686 17.92 9.7247 42.71 15.7557 70.119 15.7557s52.199-6.031 70.119-15.7557c17.939-9.7357 28.881-23.1027 28.881-37.7443 0-6.7355-2.316-13.2013-6.563-19.1679-.044-.0332-.088-.0664-.133-.0996zm-14.962-14.7082c-18.242-12.2158-46.112-20.0243-77.342-20.0243-54.952 0-99.5 24.1766-99.5 54 0 6.2791 1.975 12.3078 5.605 17.9133-4.592-6.1721-7.105-12.8963-7.105-19.9133 0-14.6416 10.942-28.0086 28.881-37.7443 17.92-9.72515 42.71-15.7557 70.119-15.7557s52.199 6.03055 70.119 15.7557c3.322 1.8033 6.405 3.7311 9.223 5.7686zm-159.646 63.2432c-3.37-5.4218-5.196-11.2289-5.196-17.2675 0-29.8234 44.548-54 99.5-54 31.23 0 59.099 7.8085 77.342 20.0243-2.818-2.0375-5.901-3.9653-9.223-5.7686-17.92-9.7252-42.71-15.7557-70.119-15.7557s-52.199 6.0305-70.119 15.7557c-17.939 9.7357-28.881 23.1027-28.881 37.7443 0 6.7355 2.316 13.2013 6.563 19.1679.044.0333.088.0664.133.0996zm181.804-29.2675c0-6.279-1.975-12.3078-5.605-17.9132 4.592 6.172 7.105 12.8962 7.105 19.9132 0 14.6416-10.942 28.0086-28.881 37.7443-17.92 9.7247-42.71 15.7557-70.119 15.7557s-52.199-6.031-70.119-15.7557c-3.322-1.8033-6.405-3.7311-9.223-5.7686 18.242 12.2153 46.112 20.0243 77.342 20.0243 54.952 0 99.5-24.1766 99.5-54zm-97.5-52c31.23 0 59.1 7.8085 77.342 20.0243-2.818-2.0375-5.901-3.9653-9.223-5.7686-17.92-9.72515-42.71-15.7557-70.119-15.7557s-52.199 6.03055-70.119 15.7557c-17.939 9.7357-28.881 23.1027-28.881 37.7443 0 7.017 2.513 13.7412 7.105 19.9133-3.63-5.6055-5.605-11.6342-5.605-17.9133 0-29.8234 44.548-54 99.5-54zm93.895 36.0867c3.63 5.6055 5.605 11.6342 5.605 17.9133 0 29.8234-44.548 54-99.5 54-31.23 0-59.1-7.809-77.342-20.0243 2.818 2.0375 5.901 3.9653 9.223 5.7686 17.92 9.7247 42.71 15.7557 70.119 15.7557s52.199-6.031 70.119-15.7557c17.939-9.7357 28.881-23.1027 28.881-37.7443 0-7.017-2.513-13.7412-7.105-19.9133zm-14.554-14.0625c-18.242-12.2157-46.111-20.0242-77.341-20.0242-54.952 0-99.5 24.1766-99.5 54 0 6.2791 1.975 12.3078 5.605 17.9133-4.592-6.1721-7.105-12.8963-7.105-19.9133 0-14.6416 10.942-28.0086 28.881-37.7443 17.92-9.7252 42.71-15.7557 70.119-15.7557s52.199 6.0305 70.119 15.7557c3.322 1.8033 6.405 3.7311 9.222 5.7685zm22.159 33.9758c0-6.279-1.975-12.3077-5.605-17.9132 4.592 6.172 7.105 12.8962 7.105 19.9132 0 14.6416-10.942 28.0086-28.881 37.744-17.92 9.725-42.71 15.756-70.119 15.756s-52.199-6.031-70.119-15.756c-3.322-1.803-6.405-3.7308-9.223-5.7683 18.243 12.2153 46.112 20.0243 77.342 20.0243 54.952 0 99.5-24.1766 99.5-54zm-97.5-52c31.23 0 59.1 7.8085 77.342 20.0243-2.818-2.0375-5.901-3.9653-9.223-5.7686-17.92-9.7252-42.71-15.7557-70.119-15.7557s-52.199 6.0305-70.119 15.7557c-17.939 9.7357-28.881 23.1027-28.881 37.7443 0 7.017 2.513 13.7412 7.105 19.9133-3.63-5.6055-5.605-11.6343-5.605-17.9133 0-29.8234 44.548-54 99.5-54zm93.895 36.0868c3.63 5.6055 5.605 11.6342 5.605 17.9132 0 29.8234-44.548 54-99.5 54-31.23 0-59.1-7.809-77.342-20.0243 2.818 2.0375 5.901 3.9653 9.223 5.7683 17.92 9.725 42.71 15.756 70.119 15.756s52.199-6.031 70.119-15.756c17.939-9.7354 28.881-23.1024 28.881-37.744 0-7.017-2.513-13.7411-7.105-19.9132zm-14.553-14.0625c-18.242-12.2158-46.112-20.0243-77.342-20.0243-54.952 0-99.5 24.1766-99.5 54 0 6.2791 1.975 12.3078 5.605 17.9133-4.592-6.1721-7.105-12.8963-7.105-19.9133 0-14.6416 10.942-28.0086 28.881-37.7443 17.92-9.7252 42.71-15.7557 70.119-15.7557s52.199 6.0305 70.119 15.7557c3.322 1.8033 6.405 3.7311 9.223 5.7686zm22.158 33.9757c0-6.279-1.975-12.3077-5.605-17.9132 4.592 6.1721 7.105 12.8962 7.105 19.9132 0 14.6416-10.942 28.0086-28.881 37.744-17.92 9.725-42.71 15.756-70.119 15.756s-52.199-6.031-70.119-15.756c-3.322-1.803-6.405-3.731-9.223-5.7683 18.242 12.2163 46.112 20.0243 77.342 20.0243 54.952 0 99.5-24.1766 99.5-54zm-97.5-52c31.23 0 59.099 7.8085 77.341 20.0242-2.817-2.0374-5.9-3.9652-9.222-5.7685-17.92-9.7252-42.71-15.7557-70.119-15.7557s-52.199 6.0305-70.119 15.7557c-17.939 9.7357-28.881 23.1027-28.881 37.7443 0 7.017 2.513 13.7412 7.105 19.9133-3.63-5.6055-5.605-11.6343-5.605-17.9133 0-29.8234 44.548-54 99.5-54zm93.895 36.0867c3.63 5.6055 5.605 11.6343 5.605 17.9133 0 29.8234-44.548 54-99.5 54-31.23 0-59.1-7.809-77.342-20.024 2.818 2.037 5.901 3.965 9.223 5.768 17.92 9.725 42.71 15.756 70.119 15.756s52.199-6.031 70.119-15.756c17.939-9.7354 28.881-23.1024 28.881-37.744 0-7.017-2.513-13.7412-7.105-19.9133z"/><path d="m450.99 14.285c-16.525-17.3924-49.949-29.285-88.49-29.285-54.952 0-99.5 24.17662-99.5 54 0 9.7184 4.73 18.8371 13.01 26.7151.641.675 1.308 1.3418 2 2 .641.675 1.308 1.3418 2 2 .641.675 1.308 1.3418 2 1.9999.641.6751 1.308 1.3419 2 2.0001.641.675 1.308 1.3418 2 1.9999.641.6751 1.308 1.3419 2 2.0001 16.525 17.3923 49.949 29.2849 88.49 29.2849 54.952 0 99.5-24.1766 99.5-54 0-9.7184-4.73-18.8371-13.01-26.715-.641-.6752-1.308-1.3419-2-2.0001-.641-.6751-1.308-1.3418-2-1.9999-.641-.6751-1.308-1.3419-2-2-.641-.6752-1.308-1.3419-2-2.0001-.641-.6751-1.308-1.3418-2-1.9999-.641-.6751-1.308-1.3419-2-2zm10.51 24.715c0 14.6416-10.942 28.0086-28.881 37.7443-17.92 9.7252-42.71 15.7557-70.119 15.7557s-52.199-6.0305-70.119-15.7557c-3.258-1.7681-6.285-3.6561-9.058-5.6496-3.775-5.6659-5.823-11.7611-5.823-18.0947 0-14.6416 10.942-28.0086 28.881-37.7443 17.92-9.72515 42.71-15.7557 70.119-15.7557s52.199 6.03055 70.119 15.7557c3.258 1.7681 6.285 3.6561 9.058 5.6497 3.775 5.6658 5.823 11.761 5.823 18.0946zm-4.696-17.2675c3.37 5.4218 5.196 11.2289 5.196 17.2675 0 29.8234-44.548 54-99.5 54-31.23 0-59.099-7.8085-77.342-20.0243 2.818 2.0375 5.901 3.9653 9.223 5.7686 17.92 9.7252 42.71 15.7557 70.119 15.7557s52.199-6.0305 70.119-15.7557c17.939-9.7357 28.881-23.1027 28.881-37.7443 0-6.7355-2.316-13.2013-6.563-19.1679-.044-.0332-.088-.0664-.133-.0996zm-14.962-14.7082c-18.242-12.2158-46.112-20.0243-77.342-20.0243-54.952 0-99.5 24.1766-99.5 54 0 6.279 1.975 12.3078 5.605 17.9133-4.592-6.1721-7.105-12.8963-7.105-19.9133 0-14.6416 10.942-28.0086 28.881-37.74431 17.92-9.72514 42.71-15.75569 70.119-15.75569s52.199 6.03055 70.119 15.75569c3.322 1.80329 6.405 3.73114 9.223 5.76861zm-159.646 63.2432c-3.37-5.4218-5.196-11.2289-5.196-17.2675 0-29.8234 44.548-54 99.5-54 31.23 0 59.1 7.8085 77.342 20.0243-2.818-2.0375-5.901-3.9653-9.223-5.7686-17.92-9.72515-42.71-15.7557-70.119-15.7557s-52.199 6.03055-70.119 15.7557c-17.939 9.7357-28.881 23.1027-28.881 37.7443 0 6.7355 2.316 13.2013 6.563 19.1679.044.0333.088.0664.133.0996zm181.804-29.2675c0-6.279-1.975-12.3078-5.605-17.9132 4.592 6.172 7.105 12.8962 7.105 19.9132 0 14.6416-10.942 28.0086-28.881 37.7443-17.92 9.7252-42.71 15.7557-70.119 15.7557s-52.199-6.0305-70.119-15.7557c-3.322-1.8033-6.405-3.7311-9.223-5.7686 18.242 12.2158 46.112 20.0243 77.342 20.0243 54.952 0 99.5-24.1766 99.5-54zm-97.5-52c31.23 0 59.1 7.80852 77.342 20.02432-2.818-2.03747-5.901-3.96534-9.223-5.76863-17.92-9.72514-42.71-15.75569-70.119-15.75569s-52.199 6.03055-70.119 15.75569c-17.939 9.73571-28.881 23.10271-28.881 37.74431 0 7.017 2.513 13.7412 7.105 19.9133-3.63-5.6055-5.605-11.6342-5.605-17.9133 0-29.8234 44.548-54 99.5-54zm93.895 36.0867c3.63 5.6055 5.605 11.6343 5.605 17.9133 0 29.8234-44.548 54-99.5 54-31.23 0-59.1-7.8085-77.342-20.0243 2.818 2.0375 5.901 3.9653 9.223 5.7686 17.92 9.7252 42.71 15.7557 70.119 15.7557s52.199-6.0305 70.119-15.7557c17.939-9.7357 28.881-23.1027 28.881-37.7443 0-7.017-2.513-13.7412-7.105-19.9133zm-14.553-14.0625c-18.243-12.21573-46.112-20.0242-77.342-20.0242-54.952 0-99.5 24.1766-99.5 54 0 6.2791 1.975 12.3078 5.605 17.9133-4.592-6.1721-7.105-12.8963-7.105-19.9133 0-14.6416 10.942-28.0086 28.881-37.74431 17.92-9.72514 42.71-15.75569 70.119-15.75569s52.199 6.03055 70.119 15.75569c3.322 1.80326 6.405 3.7311 9.223 5.76851zm22.158 33.9758c0-6.279-1.975-12.3077-5.605-17.9132 4.592 6.172 7.105 12.8962 7.105 19.9132 0 14.6416-10.942 28.0086-28.881 37.7443-17.92 9.7252-42.71 15.7557-70.119 15.7557s-52.199-6.0305-70.119-15.7557c-3.322-1.8033-6.405-3.7311-9.223-5.7686 18.243 12.2158 46.112 20.0243 77.342 20.0243 54.952 0 99.5-24.1766 99.5-54zm-97.5-52c31.23 0 59.1 7.80851 77.342 20.0243-2.818-2.0375-5.901-3.96532-9.223-5.76861-17.92-9.72514-42.71-15.75569-70.119-15.75569s-52.199 6.03055-70.119 15.75569c-17.939 9.73571-28.881 23.10271-28.881 37.74431 0 7.017 2.513 13.7412 7.105 19.9133-3.63-5.6055-5.605-11.6343-5.605-17.9133 0-29.8234 44.548-54 99.5-54zm93.895 36.0868c3.63 5.6055 5.605 11.6342 5.605 17.9132 0 29.8234-44.548 54-99.5 54-31.23 0-59.1-7.8085-77.342-20.0243 2.818 2.0375 5.901 3.9653 9.223 5.7686 17.92 9.7252 42.71 15.7557 70.119 15.7557s52.199-6.0305 70.119-15.7557c17.939-9.7357 28.881-23.1027 28.881-37.7443 0-7.017-2.513-13.7411-7.105-19.9132zm-14.553-14.0625c-18.242-12.21579-46.112-20.0243-77.342-20.0243-54.952 0-99.5 24.1766-99.5 54 0 6.2791 1.975 12.3078 5.605 17.9133-4.592-6.1721-7.105-12.8963-7.105-19.9133 0-14.6416 10.942-28.0086 28.881-37.74431 17.92-9.725142 42.71-15.75569 70.119-15.75569s52.199 6.030548 70.119 15.75569c3.322 1.80331 6.405 3.73111 9.223 5.76861zm22.158 33.9757c0-6.279-1.975-12.3077-5.605-17.9132 4.592 6.172 7.105 12.8962 7.105 19.9132 0 14.6416-10.942 28.0086-28.881 37.7443-17.92 9.7252-42.71 15.7557-70.119 15.7557s-52.199-6.0305-70.119-15.7557c-3.322-1.8033-6.405-3.7311-9.223-5.7686 18.242 12.2158 46.112 20.0243 77.342 20.0243 54.952 0 99.5-24.1766 99.5-54zm-97.5-52c31.23 0 59.099 7.80847 77.341 20.0242-2.817-2.0374-5.9-3.9652-9.222-5.7685-17.92-9.72515-42.71-15.7557-70.119-15.7557s-52.199 6.03055-70.119 15.7557c-17.939 9.7357-28.881 23.1027-28.881 37.7443 0 7.017 2.513 13.7412 7.105 19.9133-3.63-5.6055-5.605-11.6343-5.605-17.9133 0-29.8234 44.548-54 99.5-54zm93.895 36.0867c3.63 5.6055 5.605 11.6343 5.605 17.9133 0 29.8234-44.548 54-99.5 54-31.23 0-59.1-7.8085-77.342-20.0243 2.818 2.0375 5.901 3.9653 9.223 5.7686 17.92 9.7247 42.71 15.7557 70.119 15.7557s52.199-6.031 70.119-15.7557c17.939-9.7357 28.881-23.1027 28.881-37.7443 0-7.017-2.513-13.7412-7.105-19.9133z"/><path d="m434.99-1.71504c-16.525-17.39236-49.949-29.28496-88.49-29.28496-54.952 0-99.5 24.17662-99.5 54 0 9.7184 4.73 18.8371 13.01 26.7151.641.675 1.308 1.3418 2 2 .641.675 1.308 1.3418 2 2 .641.675 1.308 1.3418 2 1.9999.641.6751 1.308 1.3419 2 2.0001.641.675 1.308 1.3418 2 1.9999.641.6751 1.308 1.3419 2 2.0001 16.525 17.3923 49.949 29.2849 88.49 29.2849 54.952 0 99.5-24.1766 99.5-54 0-9.7184-4.73-18.8371-13.01-26.715-.641-.67515-1.308-1.34195-2-2.00011-.641-.67506-1.308-1.34181-2-1.99992-.641-.67508-1.308-1.34187-2-2.00001-.641-.67511-1.308-1.34191-2-2.00007-.641-.67506-1.308-1.341805-2-1.999917-.641-.675087-1.308-1.341873-2-2.000013zm10.51 24.71504c0 14.6416-10.942 28.0086-28.881 37.7443-17.92 9.7252-42.71 15.7557-70.119 15.7557s-52.199-6.0305-70.119-15.7557c-3.258-1.7681-6.285-3.6561-9.058-5.6496-3.775-5.6659-5.823-11.7611-5.823-18.0947 0-14.6416 10.942-28.00859 28.881-37.744308 17.92-9.725192 42.71-15.755692 70.119-15.755692s52.199 6.0305 70.119 15.755692c3.258 1.768158 6.285 3.656108 9.058 5.649718 3.775 5.66579 5.823 11.76099 5.823 18.09459zm-4.696-17.26746c3.37 5.42176 5.196 11.22886 5.196 17.26746 0 29.8234-44.548 54-99.5 54-31.23 0-59.099-7.8085-77.342-20.0243 2.818 2.0375 5.901 3.9653 9.223 5.7686 17.92 9.7252 42.71 15.7557 70.119 15.7557s52.199-6.0305 70.119-15.7557c17.939-9.7357 28.881-23.1027 28.881-37.7443 0-6.7355-2.316-13.2013-6.563-19.16786-.044-.03323-.088-.06642-.133-.0996zm-14.962-14.70824c-18.242-12.2158-46.112-20.0243-77.342-20.0243-54.952 0-99.5 24.17662-99.5 54 0 6.279 1.975 12.3078 5.605 17.9133-4.592-6.1721-7.105-12.8963-7.105-19.9133 0-14.64165 10.942-28.0086 28.881-37.7443 17.92-9.7252 42.71-15.7557 70.119-15.7557s52.199 6.0305 70.119 15.7557c3.322 1.8033 6.405 3.7311 9.223 5.7686zm-159.646 63.2432c-3.37-5.4218-5.196-11.2289-5.196-17.2675 0-29.82338 44.548-54 99.5-54 31.23 0 59.1 7.8085 77.342 20.02428-2.818-2.037456-5.901-3.965312-9.223-5.76859-17.92-9.72519-42.71-15.75569-70.119-15.75569s-52.199 6.0305-70.119 15.75569c-17.939 9.73572-28.881 23.10271-28.881 37.74431 0 6.7355 2.316 13.2013 6.563 19.1679.044.0333.088.0664.133.0996zm181.804-29.2675c0-6.279-1.975-12.3078-5.605-17.91324 4.592 6.17204 7.105 12.89624 7.105 19.91324 0 14.6416-10.942 28.0086-28.881 37.7443-17.92 9.7252-42.71 15.7557-70.119 15.7557s-52.199-6.0305-70.119-15.7557c-3.322-1.8033-6.405-3.7311-9.223-5.7686 18.242 12.2158 46.112 20.0243 77.342 20.0243 54.952 0 99.5-24.1766 99.5-54zm-97.5-52c31.23 0 59.1 7.8085 77.342 20.02432-2.818-2.03747-5.901-3.96532-9.223-5.76862-17.92-9.7252-42.71-15.7557-70.119-15.7557s-52.199 6.0305-70.119 15.7557c-17.939 9.7357-28.881 23.1027-28.881 37.7443 0 7.017 2.513 13.7412 7.105 19.9133-3.63-5.6055-5.605-11.6343-5.605-17.9133 0-29.82338 44.548-54 99.5-54zm93.895 36.08672c3.63 5.60548 5.605 11.63428 5.605 17.91328 0 29.8234-44.548 54-99.5 54-31.23 0-59.1-7.8085-77.342-20.0243 2.818 2.0375 5.901 3.9653 9.223 5.7686 17.92 9.7252 42.71 15.7557 70.119 15.7557s52.199-6.0305 70.119-15.7557c17.939-9.7357 28.881-23.1027 28.881-37.7443 0-7.017-2.513-13.7412-7.105-19.91328zm-14.553-14.06249c-18.243-12.21573-46.112-20.02423-77.342-20.02423-54.952 0-99.5 24.17662-99.5 54 0 6.2791 1.975 12.3078 5.605 17.9133-4.592-6.1721-7.105-12.8963-7.105-19.9133 0-14.6416 10.942-28.0086 28.881-37.7443 17.92-9.7252 42.71-15.7557 70.119-15.7557s52.199 6.0305 70.119 15.7557c3.322 1.80325 6.405 3.73109 9.223 5.76853zm22.158 33.97577c0-6.279-1.975-12.3077-5.605-17.9132 4.592 6.172 7.105 12.8962 7.105 19.9132 0 14.6416-10.942 28.0086-28.881 37.7443-17.92 9.7252-42.71 15.7557-70.119 15.7557s-52.199-6.0305-70.119-15.7557c-3.322-1.8033-6.405-3.7311-9.223-5.7686 18.243 12.2158 46.112 20.0243 77.342 20.0243 54.952 0 99.5-24.1766 99.5-54zm-97.5-52c31.23 0 59.1 7.8085 77.342 20.02431-2.818-2.03747-5.901-3.96533-9.223-5.76862-17.92-9.72519-42.71-15.75569-70.119-15.75569s-52.199 6.0305-70.119 15.75569c-17.939 9.735712-28.881 23.10271-28.881 37.74431 0 7.017 2.513 13.7412 7.105 19.9133-3.63-5.6055-5.605-11.6343-5.605-17.9133 0-29.82338 44.548-54 99.5-54zm93.895 36.0868c3.63 5.6055 5.605 11.6342 5.605 17.9132 0 29.8234-44.548 54-99.5 54-31.23 0-59.1-7.8085-77.342-20.0243 2.818 2.0375 5.901 3.9653 9.223 5.7686 17.92 9.7252 42.71 15.7557 70.119 15.7557s52.199-6.0305 70.119-15.7557c17.939-9.7357 28.881-23.1027 28.881-37.7443 0-7.017-2.513-13.7411-7.105-19.9132zm-14.553-14.062485c-18.242-12.215815-46.112-20.024315-77.342-20.024315-54.952 0-99.5 24.17662-99.5 54 0 6.2791 1.975 12.3078 5.605 17.9133-4.592-6.1721-7.105-12.8963-7.105-19.9133 0-14.6416 10.942-28.00859 28.881-37.74431 17.92-9.72519 42.71-15.75569 70.119-15.75569s52.199 6.0305 70.119 15.75569c3.322 1.80329 6.405 3.73115 9.223 5.768625zm22.158 33.975685c0-6.279-1.975-12.3077-5.605-17.9132 4.592 6.172 7.105 12.8962 7.105 19.9132 0 14.6416-10.942 28.0086-28.881 37.7443-17.92 9.7252-42.71 15.7557-70.119 15.7557s-52.199-6.0305-70.119-15.7557c-3.322-1.8033-6.405-3.7311-9.223-5.7686 18.242 12.2158 46.112 20.0243 77.342 20.0243 54.952 0 99.5-24.1766 99.5-54zm-97.5-52c31.23 0 59.099 7.8085 77.341 20.02422-2.817-2.03743-5.9-3.96527-9.222-5.76853-17.92-9.72519-42.71-15.75569-70.119-15.75569s-52.199 6.0305-70.119 15.75569c-17.939 9.73572-28.881 23.10271-28.881 37.74431 0 7.017 2.513 13.7412 7.105 19.9133-3.63-5.6055-5.605-11.6343-5.605-17.9133 0-29.82338 44.548-54 99.5-54zm93.895 36.0867c3.63 5.6055 5.605 11.6343 5.605 17.9133 0 29.8234-44.548 54-99.5 54-31.23 0-59.1-7.8085-77.342-20.0243 2.818 2.0375 5.901 3.9653 9.223 5.7686 17.92 9.7252 42.71 15.7557 70.119 15.7557s52.199-6.0305 70.119-15.7557c17.939-9.7357 28.881-23.1027 28.881-37.7443 0-7.017-2.513-13.7412-7.105-19.9133z"/><path d="m418.99-17.715c-16.525-17.3924-49.949-29.285-88.49-29.285-54.952 0-99.5 24.1766-99.5 54 0 9.7184 4.73 18.8371 13.01 26.7151.641.675 1.308 1.3418 2 2 .641.675 1.308 1.3418 2 2 .641.675 1.308 1.3418 2 1.9999.641.6751 1.308 1.3419 2 2.0001.641.675 1.308 1.3418 2 1.9999.641.6751 1.308 1.3419 2 2.0001 16.525 17.3923 49.949 29.2849 88.49 29.2849 54.952 0 99.5-24.1766 99.5-54 0-9.7184-4.73-18.83709-13.01-26.71504-.641-.67511-1.308-1.34191-2-2.00007-.641-.67506-1.308-1.34181-2-1.99992-.641-.67507-1.308-1.34187-2-1.99997-.641-.6752-1.308-1.3419-2-2.0001-.641-.6751-1.308-1.3418-2-1.9999-.641-.6751-1.308-1.3419-2-2zm10.51 24.715c0 14.6416-10.942 28.0086-28.881 37.7443-17.92 9.7252-42.71 15.7557-70.119 15.7557s-52.199-6.0305-70.119-15.7557c-3.258-1.7681-6.285-3.6561-9.058-5.6496-3.775-5.6659-5.823-11.7611-5.823-18.0947 0-14.64165 10.942-28.0086 28.881-37.7443 17.92-9.7252 42.71-15.7557 70.119-15.7557s52.199 6.0305 70.119 15.7557c3.258 1.7681 6.285 3.6561 9.058 5.6497 3.775 5.66584 5.823 11.760967 5.823 18.0946zm-4.696-17.2675c3.37 5.42181 5.196 11.228911 5.196 17.2675 0 29.8234-44.548 54-99.5 54-31.23 0-59.099-7.8085-77.342-20.0243 2.818 2.0375 5.901 3.9653 9.223 5.7686 17.92 9.7252 42.71 15.7557 70.119 15.7557s52.199-6.0305 70.119-15.7557c17.939-9.7357 28.881-23.1027 28.881-37.7443 0-6.73551-2.316-13.20126-6.563-19.1679-.044-.0332-.088-.0664-.133-.0996zm-14.962-14.7082c-18.242-12.2158-46.112-20.0243-77.342-20.0243-54.952 0-99.5 24.1766-99.5 54 0 6.279 1.975 12.3078 5.605 17.9133-4.592-6.1721-7.105-12.8963-7.105-19.9133 0-14.64165 10.942-28.0086 28.881-37.7443 17.92-9.7252 42.71-15.7557 70.119-15.7557s52.199 6.0305 70.119 15.7557c3.322 1.8033 6.405 3.7311 9.223 5.7686zm-159.646 63.2432c-3.37-5.4218-5.196-11.2289-5.196-17.2675 0-29.82338 44.548-54 99.5-54 31.23 0 59.1 7.8085 77.342 20.0243-2.818-2.0375-5.901-3.9653-9.223-5.7686-17.92-9.7252-42.71-15.7557-70.119-15.7557s-52.199 6.0305-70.119 15.7557c-17.939 9.7357-28.881 23.10265-28.881 37.7443 0 6.7355 2.316 13.2013 6.563 19.1679.044.0333.088.0665.133.0996zm181.804-29.2675c0-6.27903-1.975-12.30775-5.605-17.91324 4.592 6.17206 7.105 12.89625 7.105 19.91324 0 14.6416-10.942 28.0086-28.881 37.7443-17.92 9.7252-42.71 15.7557-70.119 15.7557s-52.199-6.0305-70.119-15.7557c-3.322-1.8033-6.405-3.7311-9.223-5.7686 18.242 12.2158 46.112 20.0243 77.342 20.0243 54.952 0 99.5-24.1766 99.5-54zm-97.5-52c31.23 0 59.1 7.8085 77.342 20.0243-2.818-2.0375-5.901-3.9653-9.223-5.7686-17.92-9.7252-42.71-15.7557-70.119-15.7557s-52.199 6.0305-70.119 15.7557c-17.939 9.7357-28.881 23.10265-28.881 37.7443 0 7.017 2.513 13.7412 7.105 19.9133-3.63-5.6055-5.605-11.6343-5.605-17.9133 0-29.8234 44.548-54 99.5-54zm93.895 36.08672c3.63 5.60549 5.605 11.63423 5.605 17.91328 0 29.8234-44.548 54-99.5 54-31.23 0-59.1-7.8085-77.342-20.0243 2.818 2.0375 5.901 3.9653 9.223 5.7686 17.92 9.7252 42.71 15.7557 70.119 15.7557s52.199-6.0305 70.119-15.7557c17.939-9.7357 28.881-23.1027 28.881-37.7443 0-7.01701-2.513-13.741211-7.105-19.91328zm-14.553-14.06252c-18.243-12.2157-46.112-20.0242-77.342-20.0242-54.952 0-99.5 24.1766-99.5 54 0 6.2791 1.975 12.3078 5.605 17.9133-4.592-6.1721-7.105-12.8963-7.105-19.9133 0-14.64165 10.942-28.0086 28.881-37.7443 17.92-9.7252 42.71-15.7557 70.119-15.7557s52.199 6.0305 70.119 15.7557c3.322 1.8033 6.405 3.7311 9.223 5.7685zm22.158 33.9758c0-6.27902-1.975-12.307747-5.605-17.91323 4.592 6.17205 7.105 12.89625 7.105 19.91323 0 14.6416-10.942 28.0086-28.881 37.7443-17.92 9.7252-42.71 15.7557-70.119 15.7557s-52.199-6.0305-70.119-15.7557c-3.322-1.8033-6.405-3.7311-9.223-5.7686 18.243 12.2158 46.112 20.0243 77.342 20.0243 54.952 0 99.5-24.1766 99.5-54zm-97.5-52c31.23 0 59.1 7.8085 77.342 20.0243-2.818-2.0375-5.901-3.9653-9.223-5.7686-17.92-9.7252-42.71-15.7557-70.119-15.7557s-52.199 6.0305-70.119 15.7557c-17.939 9.7357-28.881 23.10265-28.881 37.7443 0 7.017 2.513 13.7412 7.105 19.9133-3.63-5.6055-5.605-11.6343-5.605-17.9133 0-29.8234 44.548-54 99.5-54zm93.895 36.08684c3.63 5.60547 5.605 11.63416 5.605 17.91316 0 29.8234-44.548 54-99.5 54-31.23 0-59.1-7.8085-77.342-20.0243 2.818 2.0375 5.901 3.9653 9.223 5.7686 17.92 9.7252 42.71 15.7557 70.119 15.7557s52.199-6.0305 70.119-15.7557c17.939-9.7357 28.881-23.1027 28.881-37.7443 0-7.01697-2.513-13.74112-7.105-19.91316zm-14.553-14.06254c-18.242-12.2158-46.112-20.0243-77.342-20.0243-54.952 0-99.5 24.1766-99.5 54 0 6.2791 1.975 12.3078 5.605 17.9133-4.592-6.1721-7.105-12.8963-7.105-19.9133 0-14.641647 10.942-28.0086 28.881-37.7443 17.92-9.7252 42.71-15.7557 70.119-15.7557s52.199 6.0305 70.119 15.7557c3.322 1.8033 6.405 3.7311 9.223 5.7686zm22.158 33.9757c0-6.279-1.975-12.30773-5.605-17.913208 4.592 6.172048 7.105 12.896208 7.105 19.913208 0 14.6416-10.942 28.0086-28.881 37.7443-17.92 9.7252-42.71 15.7557-70.119 15.7557s-52.199-6.0305-70.119-15.7557c-3.322-1.8033-6.405-3.7311-9.223-5.7686 18.242 12.2158 46.112 20.0243 77.342 20.0243 54.952 0 99.5-24.1766 99.5-54zm-97.5-52c31.23 0 59.099 7.8085 77.341 20.0242-2.817-2.0374-5.9-3.9653-9.222-5.7685-17.92-9.7252-42.71-15.7557-70.119-15.7557s-52.199 6.0305-70.119 15.7557c-17.939 9.7357-28.881 23.10265-28.881 37.7443 0 7.017 2.513 13.7412 7.105 19.9133-3.63-5.6055-5.605-11.6343-5.605-17.9133 0-29.8234 44.548-54 99.5-54zm93.895 36.08673c3.63 5.60549 5.605 11.63427 5.605 17.91327 0 29.8234-44.548 54-99.5 54-31.23 0-59.1-7.8085-77.342-20.0243 2.818 2.0375 5.901 3.9653 9.223 5.7686 17.92 9.7252 42.71 15.7557 70.119 15.7557s52.199-6.0305 70.119-15.7557c17.939-9.7357 28.881-23.1027 28.881-37.7443 0-7.017-2.513-13.7412-7.105-19.91327z"/><path d="m402.99-33.715c-16.525-17.3924-49.949-29.285-88.49-29.285-54.952 0-99.5 24.1766-99.5 54 0 9.718369 4.73 18.83711 13.01 26.7151.641.675 1.308 1.3418 2 2 .641.675 1.308 1.3418 2 2 .641.675 1.308 1.3418 2 1.9999.641.6751 1.308 1.3419 2 2.0001.641.675 1.308 1.3418 2 1.9999.641.6751 1.308 1.3419 2 2.0001 16.525 17.3923 49.949 29.2849 88.49 29.2849 54.952 0 99.5-24.1766 99.5-54 0-9.71837-4.73-18.8371-13.01-26.715-.641-.6751-1.308-1.3419-2-2.0001-.641-.6751-1.308-1.3418-2-1.9999-.641-.6751-1.308-1.3419-2-2-.641-.6751-1.308-1.3419-2-2.0001-.641-.6751-1.308-1.3418-2-1.9999-.641-.6751-1.308-1.3419-2-2zm10.51 24.715c0 14.64165-10.942 28.0086-28.881 37.7443-17.92 9.7252-42.71 15.7557-70.119 15.7557s-52.199-6.0305-70.119-15.7557c-3.258-1.7681-6.285-3.6561-9.058-5.6496-3.775-5.6659-5.823-11.7611-5.823-18.0947 0-14.64165 10.942-28.0086 28.881-37.7443 17.92-9.7252 42.71-15.7557 70.119-15.7557s52.199 6.0305 70.119 15.7557c3.258 1.7681 6.285 3.6561 9.058 5.6497 3.775 5.6659 5.823 11.761 5.823 18.0946zm-4.696-17.2675c3.37 5.4218 5.196 11.2289 5.196 17.2675 0 29.8234-44.548 54-99.5 54-31.23 0-59.099-7.8085-77.342-20.0243 2.818 2.0375 5.901 3.9653 9.223 5.7686 17.92 9.7252 42.71 15.7557 70.119 15.7557s52.199-6.0305 70.119-15.7557c17.939-9.7357 28.881-23.10265 28.881-37.7443 0-6.7355-2.316-13.2013-6.563-19.1679-.044-.0332-.088-.0664-.133-.0996zm-14.962-14.7082c-18.242-12.2158-46.112-20.0243-77.342-20.0243-54.952 0-99.5 24.1766-99.5 54 0 6.279045 1.975 12.30779 5.605 17.9133-4.592-6.17207-7.105-12.8963-7.105-19.9133 0-14.6416 10.942-28.0086 28.881-37.7443 17.92-9.7252 42.71-15.7557 70.119-15.7557s52.199 6.0305 70.119 15.7557c3.322 1.8033 6.405 3.7311 9.223 5.7686zm-159.646 63.2432c-3.37-5.4218-5.196-11.2289-5.196-17.2675 0-29.8234 44.548-54 99.5-54 31.23 0 59.1 7.8085 77.342 20.0243-2.818-2.0375-5.901-3.9653-9.223-5.7686-17.92-9.7252-42.71-15.7557-70.119-15.7557s-52.199 6.0305-70.119 15.7557c-17.939 9.7357-28.881 23.1027-28.881 37.7443 0 6.73554 2.316 13.2013 6.563 19.1679.044.0333.088.0665.133.0996zm181.804-29.2675c0-6.279-1.975-12.3078-5.605-17.9132 4.592 6.172 7.105 12.8962 7.105 19.9132 0 14.64165-10.942 28.0086-28.881 37.7443-17.92 9.7252-42.71 15.7557-70.119 15.7557s-52.199-6.0305-70.119-15.7557c-3.322-1.8033-6.405-3.7311-9.223-5.7686 18.242 12.2158 46.112 20.0243 77.342 20.0243 54.952 0 99.5-24.1766 99.5-54zm-97.5-52c31.23 0 59.1 7.8085 77.342 20.0243-2.818-2.0375-5.901-3.9653-9.223-5.7686-17.92-9.7252-42.71-15.7557-70.119-15.7557s-52.199 6.0305-70.119 15.7557c-17.939 9.7357-28.881 23.1027-28.881 37.7443 0 7.0169983 2.513 13.74123 7.105 19.9133-3.63-5.60551-5.605-11.63425-5.605-17.9133 0-29.8234 44.548-54 99.5-54zm93.895 36.0867c3.63 5.6055 5.605 11.6343 5.605 17.9133 0 29.8234-44.548 54-99.5 54-31.23 0-59.099-7.8085-77.342-20.0243 2.818 2.0375 5.901 3.9653 9.223 5.7686 17.92 9.7252 42.71 15.7557 70.119 15.7557s52.199-6.0305 70.119-15.7557c17.939-9.7357 28.881-23.1027 28.881-37.7443 0-7.017-2.513-13.7412-7.105-19.9133zm-14.553-14.0625c-18.243-12.2157-46.112-20.0242-77.342-20.0242-54.952 0-99.5 24.1766-99.5 54 0 6.27905 1.975 12.3078 5.605 17.9133-4.592-6.17207-7.105-12.89629-7.105-19.9133 0-14.6416 10.942-28.0086 28.881-37.7443 17.92-9.7252 42.71-15.7557 70.119-15.7557s52.199 6.0305 70.119 15.7557c3.322 1.8033 6.405 3.7311 9.223 5.7685zm22.158 33.9758c0-6.27902-1.975-12.3077-5.605-17.9132 4.592 6.172 7.105 12.89622 7.105 19.9132 0 14.6416-10.942 28.0086-28.881 37.7443-17.92 9.7252-42.71 15.7557-70.119 15.7557s-52.199-6.0305-70.119-15.7557c-3.322-1.8033-6.405-3.7311-9.223-5.7686 18.243 12.2158 46.112 20.0243 77.342 20.0243 54.952 0 99.5-24.1766 99.5-54zm-97.5-52c31.23 0 59.1 7.8085 77.342 20.0243-2.818-2.0375-5.901-3.9653-9.223-5.7686-17.92-9.7252-42.71-15.7557-70.119-15.7557s-52.199 6.0305-70.119 15.7557c-17.939 9.7357-28.881 23.1027-28.881 37.7443 0 7.01699 2.513 13.7412 7.105 19.9133-3.63-5.6055-5.605-11.63426-5.605-17.9133 0-29.8234 44.548-54 99.5-54zm93.895 36.0868c3.63 5.6055 5.605 11.6342 5.605 17.9132 0 29.8234-44.548 54-99.5 54-31.23 0-59.1-7.8085-77.342-20.0243 2.818 2.0375 5.901 3.9653 9.223 5.7686 17.92 9.7252 42.71 15.7557 70.119 15.7557s52.199-6.0305 70.119-15.7557c17.939-9.7357 28.881-23.1027 28.881-37.7443 0-7.01697-2.513-13.7411-7.105-19.9132zm-14.553-14.0625c-18.242-12.2158-46.112-20.0243-77.342-20.0243-54.952 0-99.5 24.1766-99.5 54 0 6.27905 1.975 12.3078 5.605 17.9133-4.592-6.1721-7.105-12.8963-7.105-19.9133 0-14.6416 10.942-28.0086 28.881-37.7443 17.92-9.7252 42.71-15.7557 70.119-15.7557s52.199 6.0305 70.119 15.7557c3.322 1.8033 6.405 3.7311 9.223 5.7686zm22.158 33.9757c0-6.27902-1.975-12.3077-5.605-17.9132 4.592 6.172 7.105 12.89622 7.105 19.9132 0 14.6416-10.942 28.0086-28.881 37.7443-17.92 9.7252-42.71 15.7557-70.119 15.7557s-52.199-6.0305-70.119-15.7557c-3.322-1.8033-6.405-3.7311-9.223-5.7686 18.242 12.2158 46.112 20.0243 77.342 20.0243 54.952 0 99.5-24.1766 99.5-54zm-97.5-52c31.23 0 59.099 7.8085 77.341 20.0242-2.817-2.0374-5.9-3.9653-9.222-5.7685-17.92-9.7252-42.71-15.7557-70.119-15.7557s-52.199 6.0305-70.119 15.7557c-17.939 9.7357-28.881 23.1027-28.881 37.7443 0 7.01699 2.513 13.7412 7.105 19.9133-3.63-5.6055-5.605-11.63426-5.605-17.9133 0-29.8234 44.548-54 99.5-54zm93.895 36.0867c3.63 5.60552 5.605 11.63426 5.605 17.9133 0 29.8234-44.548 54-99.5 54-31.23 0-59.1-7.8085-77.342-20.0243 2.818 2.0375 5.901 3.9653 9.223 5.7686 17.92 9.7252 42.71 15.7557 70.119 15.7557s52.199-6.0305 70.119-15.7557c17.939-9.7357 28.881-23.1027 28.881-37.7443 0-7.01701-2.513-13.7412-7.105-19.9133z"/><path d="m386.99-49.715c-16.525-17.3924-49.949-29.285-88.49-29.285-54.952 0-99.5 24.1766-99.5 54 0 9.7184 4.73 18.83711 13.01 26.71507.641.67507 1.308 1.34186 2 2 .641.67507 1.308 1.34186 2 2 .641.67505 1.308 1.34183 2 1.99994.641.6751 1.308 1.34191 2 2.00006.641.67503 1.308 1.34183 2 1.99993.641.6751 1.308 1.3419 2 2.0001 16.525 17.3923 49.949 29.2849 88.49 29.2849 54.952 0 99.5-24.1766 99.5-54 0-9.7184-4.73-18.8371-13.01-26.715-.641-.6751-1.308-1.3419-2-2.0001-.641-.6751-1.308-1.3418-2-1.9999-.641-.6751-1.308-1.3419-2-2-.641-.6751-1.308-1.3419-2-2.0001-.641-.6751-1.308-1.3418-2-1.9999-.641-.6751-1.308-1.3419-2-2zm10.51 24.715c0 14.6416-10.942 28.0086-28.881 37.7443-17.92 9.7252-42.71 15.7557-70.119 15.7557s-52.199-6.0305-70.119-15.7557c-3.258-1.7681-6.285-3.65605-9.058-5.64963-3.775-5.66586-5.823-11.76102-5.823-18.09467 0-14.6416 10.942-28.0086 28.881-37.7443 17.92-9.7252 42.71-15.7557 70.119-15.7557s52.199 6.0305 70.119 15.7557c3.258 1.7681 6.285 3.6561 9.058 5.6497 3.775 5.6659 5.823 11.761 5.823 18.0946zm-4.696-17.2675c3.37 5.4218 5.196 11.2289 5.196 17.2675 0 29.82338-44.548 54-99.5 54-31.23 0-59.099-7.8085-77.342-20.02427 2.818 2.03747 5.901 3.96527 9.223 5.76857 17.92 9.7252 42.71 15.7557 70.119 15.7557s52.199-6.0305 70.119-15.7557c17.939-9.7357 28.881-23.10265 28.881-37.7443 0-6.7355-2.316-13.2013-6.563-19.1679-.044-.0332-.088-.0664-.133-.0996zm-14.962-14.7082c-18.242-12.2158-46.112-20.0243-77.342-20.0243-54.952 0-99.5 24.1766-99.5 54 0 6.279 1.975 12.3078 5.605 17.91328-4.592-6.17208-7.105-12.89628-7.105-19.91328 0-14.6416 10.942-28.0086 28.881-37.7443 17.92-9.7252 42.71-15.7557 70.119-15.7557s52.199 6.0305 70.119 15.7557c3.322 1.8033 6.405 3.7311 9.223 5.7686zm-159.646 63.24322c-3.37-5.421779-5.196-11.22892-5.196-17.26752 0-29.8234 44.548-54 99.5-54 31.23 0 59.1 7.8085 77.342 20.0243-2.818-2.0375-5.901-3.9653-9.223-5.7686-17.92-9.7252-42.71-15.7557-70.119-15.7557s-52.199 6.0305-70.119 15.7557c-17.939 9.7357-28.881 23.1027-28.881 37.7443 0 6.73554 2.316 13.201317 6.563 19.16793.044.03323.088.06642.133.09959zm181.804-29.26752c0-6.279-1.975-12.3078-5.605-17.9132 4.592 6.172 7.105 12.8962 7.105 19.9132 0 14.64165-10.942 28.0086-28.881 37.7443-17.92 9.7252-42.71 15.7557-70.119 15.7557s-52.199-6.0305-70.119-15.7557c-3.322-1.8033-6.405-3.7311-9.223-5.7686 18.242 12.2158 46.112 20.0243 77.342 20.0243 54.952 0 99.5-24.17662 99.5-54zm-97.5-52c31.23 0 59.1 7.8085 77.342 20.0243-2.818-2.0375-5.901-3.9653-9.223-5.7686-17.92-9.7252-42.71-15.7557-70.119-15.7557s-52.199 6.0305-70.119 15.7557c-17.939 9.7357-28.881 23.1027-28.881 37.7443 0 7.017 2.513 13.74123 7.105 19.91328-3.63-5.60549-5.605-11.63428-5.605-17.91328 0-29.8234 44.548-54 99.5-54zm93.895 36.0867c3.63 5.6055 5.605 11.6343 5.605 17.9133 0 29.82338-44.548 54-99.5 54-31.23 0-59.099-7.8085-77.342-20.0243 2.818 2.0375 5.901 3.9653 9.223 5.7686 17.92 9.7252 42.71 15.7557 70.119 15.7557s52.199-6.0305 70.119-15.7557c17.939-9.7357 28.881-23.10265 28.881-37.7443 0-7.017-2.513-13.7412-7.105-19.9133zm-14.553-14.0625c-18.243-12.2157-46.112-20.0242-77.342-20.0242-54.952 0-99.5 24.1766-99.5 54 0 6.2791 1.975 12.3078 5.605 17.9133-4.592-6.17207-7.105-12.8963-7.105-19.9133 0-14.6416 10.942-28.0086 28.881-37.7443 17.92-9.7252 42.71-15.7557 70.119-15.7557s52.199 6.0305 70.119 15.7557c3.322 1.8033 6.405 3.7311 9.223 5.7685zm22.158 33.9758c0-6.279-1.975-12.3077-5.605-17.9132 4.592 6.172 7.105 12.8962 7.105 19.9132 0 14.64165-10.942 28.0086-28.881 37.7443-17.92 9.7252-42.71 15.7557-70.119 15.7557s-52.199-6.0305-70.119-15.7557c-3.322-1.8033-6.405-3.7311-9.223-5.7686 18.243 12.2158 46.112 20.0243 77.342 20.0243 54.952 0 99.5-24.1766 99.5-54zm-97.5-52c31.23 0 59.1 7.8085 77.342 20.0243-2.818-2.0375-5.901-3.9653-9.223-5.7686-17.92-9.7252-42.71-15.7557-70.119-15.7557s-52.199 6.0305-70.119 15.7557c-17.939 9.7357-28.881 23.1027-28.881 37.7443 0 7.017 2.513 13.7412 7.105 19.913261-3.63-5.605491-5.605-11.634261-5.605-17.913261 0-29.8234 44.548-54 99.5-54zm93.895 36.0868c3.63 5.6055 5.605 11.6342 5.605 17.9132 0 29.8234-44.548 54-99.5 54-31.23 0-59.1-7.8085-77.342-20.0243 2.818 2.0375 5.901 3.9653 9.223 5.7686 17.92 9.7252 42.71 15.7557 70.119 15.7557s52.199-6.0305 70.119-15.7557c17.939-9.7357 28.881-23.102653 28.881-37.7443 0-7.017-2.513-13.7411-7.105-19.9132zm-14.553-14.0625c-18.242-12.2158-46.112-20.0243-77.342-20.0243-54.952 0-99.5 24.1766-99.5 54 0 6.27905 1.975 12.30779 5.605 17.91329-4.592-6.17206-7.105-12.89629-7.105-19.91329 0-14.6416 10.942-28.0086 28.881-37.7443 17.92-9.7252 42.71-15.7557 70.119-15.7557s52.199 6.0305 70.119 15.7557c3.322 1.8033 6.405 3.7311 9.223 5.7686zm22.158 33.9757c0-6.279-1.975-12.3077-5.605-17.9132 4.592 6.172 7.105 12.8962 7.105 19.9132 0 14.64165-10.942 28.0086-28.881 37.7443-17.92 9.7252-42.71 15.7557-70.119 15.7557s-52.199-6.0305-70.119-15.7557c-3.322-1.8033-6.405-3.7311-9.223-5.7686 18.242 12.2158 46.112 20.0243 77.342 20.0243 54.952 0 99.5-24.1766 99.5-54zm-97.5-52c31.23 0 59.099 7.8085 77.341 20.0242-2.817-2.0374-5.9-3.9653-9.222-5.7685-17.92-9.7252-42.71-15.7557-70.119-15.7557s-52.199 6.0305-70.119 15.7557c-17.939 9.7357-28.881 23.1027-28.881 37.7443 0 7.01699 2.513 13.74122 7.105 19.91328-3.63-5.605503-5.605-11.63424-5.605-17.91328 0-29.8234 44.548-54 99.5-54zm93.895 36.0867c3.63 5.6055 5.605 11.6343 5.605 17.9133 0 29.8234-44.548 54-99.5 54-31.23 0-59.1-7.8085-77.342-20.0243 2.818 2.0375 5.901 3.9653 9.223 5.7686 17.92 9.7252 42.71 15.7557 70.119 15.7557s52.199-6.0305 70.119-15.7557c17.939-9.7357 28.881-23.10265 28.881-37.7443 0-7.017-2.513-13.7412-7.105-19.9133z"/></g></g></svg>