<svg fill="none" height="80" viewBox="0 0 1200 80" width="1200" xmlns="http://www.w3.org/2000/svg" xmlns:xlink="http://www.w3.org/1999/xlink"><linearGradient id="a" gradientUnits="userSpaceOnUse" x1="1221.74" x2="114.141" y1="76" y2="-357.93"><stop offset="0" stop-color="#5357a5"/><stop offset="1" stop-color="#4f1e76"/></linearGradient><linearGradient id="b" gradientUnits="userSpaceOnUse" x1="-.000004" x2="1200" y1="40" y2="39.9999"><stop offset="0" stop-color="#7a195e"/><stop offset="1" stop-color="#15234e"/></linearGradient><linearGradient id="c" gradientUnits="userSpaceOnUse" x1="1351.83" x2="431" y1="41.4473" y2="72"><stop offset="0" stop-color="#fff"/><stop offset="1" stop-color="#fff" stop-opacity="0"/></linearGradient><mask id="d" height="80" maskUnits="userSpaceOnUse" width="1200" x="0" y="0"><path d="m0 4c0-2.20914 1.79086-4 4-4h1192c2.21 0 4 1.79086 4 4v76h-1200z" fill="url(#b)" fill-opacity=".4"/></mask><path d="m0 8c0-3.77124 0-5.65685 1.17157-6.82843 1.17158-1.17157 3.05719-1.17157 6.82843-1.17157h1184c3.77 0 5.66 0 6.83 1.17157 1.17 1.17158 1.17 3.05719 1.17 6.82843v72h-1200z" fill="url(#a)"/><g clip-rule="evenodd" fill-opacity=".2" fill-rule="evenodd" mask="url(#d)"><g fill="#fff"><path d="m240.037-167.981c-40.943-43.143-123.751-72.642-219.2391-72.642-136.1469 0-246.5159 59.97-246.5159 133.948 0 24.1063 11.719 46.7255 32.232 66.2669 1.589 1.6746 3.241 3.3285 4.955 4.961 1.589 1.6746 3.242 3.3286 4.955 4.9611 1.589 1.6745 3.242 3.3284 4.955 4.9609 1.589 1.6746 3.242 3.3286 4.955 4.9612 1.59 1.6745 3.242 3.3285 4.955 4.9609 1.59 1.6746 3.242 3.3286 4.956 4.9612 40.943 43.142 123.7505 72.6418 219.2387 72.6418 136.1473 0 246.5163-59.97058 246.5163-133.948 0-24.1066-11.72-46.726-32.232-66.267-1.59-1.675-3.242-3.329-4.956-4.961-1.589-1.675-3.241-3.329-4.954-4.961-1.59-1.675-3.242-3.329-4.956-4.961-1.589-1.675-3.241-3.329-4.955-4.962-1.589-1.674-3.241-3.328-4.955-4.96-1.589-1.675-3.241-3.329-4.955-4.961zm26.039 61.306c0 36.3186-27.111 69.4756-71.556 93.6252-44.396 24.1234-105.8139 39.0823-173.7221 39.0823-67.9081 0-129.3259-14.9589-173.7229-39.0823-8.071-4.3859-15.571-9.0689-22.441-14.014-9.355-14.0543-14.428-29.1735-14.428-44.8842 0-36.319 27.111-69.476 71.555-93.626 44.3966-24.123 105.8145-39.082 173.7227-39.082 67.9083 0 129.3263 14.959 173.7223 39.082 8.072 4.386 15.572 9.07 22.442 14.015 9.355 14.054 14.428 29.173 14.428 44.884zm-11.634-42.833c8.347 13.449 12.872 27.854 12.872 42.833 0 73.9772-110.369 133.9477-246.5161 133.9477-77.3738 0-146.4219-19.36904-191.6179-49.6706 6.981 5.054 14.618 9.836 22.851 14.30912 44.396 24.12338 105.8139 39.08228 173.7221 39.08228 67.9081 0 129.3259-14.9589 173.7229-39.08228 44.444-24.14962 71.555-57.30662 71.555-93.62522 0-16.708-5.738-32.746-16.26-47.547-.11-.082-.219-.164-.329-.247zm-37.071-36.484c-45.196-30.301-114.244-49.67-191.6179-49.67-136.1471 0-246.5161 59.97-246.5161 133.948 0 15.575 4.892 30.5294 13.887 44.434-11.377-15.3099-17.604-31.9895-17.604-49.395 0-36.319 27.111-69.476 71.555-93.626 44.397-24.123 105.8148-39.082 173.7229-39.082 67.9082 0 129.3261 14.959 173.7221 39.082 8.233 4.473 15.87 9.255 22.851 14.309zm-395.531 156.8764c-8.348-13.4489-12.873-27.8536-12.873-42.8324 0-73.978 110.3695-133.948 246.5167-133.948 77.3733 0 146.4223 19.369 191.6173 49.671-6.98-5.054-14.618-9.837-22.85-14.31-44.396-24.123-105.814-39.082-173.7224-39.082-67.9082 0-129.3261 14.959-173.7226 39.082-44.445 24.15-71.555 57.307-71.555 93.6259 0 16.7077 5.737 32.7461 16.26 47.5464.109.0825.219.1648.329.2471zm450.429-72.5984c0-15.576-4.892-30.53-13.887-44.434 11.377 15.309 17.604 31.989 17.604 49.3948 0 36.3188-27.111 69.4758-71.555 93.62548-44.397 24.12342-105.8147 39.08232-173.7228 39.08232-67.9082 0-129.3261-14.9589-173.7222-39.08232-8.233-4.47308-15.87-9.25508-22.851-14.30918 45.196 30.3016 114.2442 49.6707 191.6181 49.6707 136.1469 0 246.5159-59.9706 246.5159-133.9478zm-241.5608-128.987c77.3738 0 146.4218 19.369 191.6178 49.67-6.981-5.054-14.618-9.836-22.85-14.309-44.397-24.123-105.8148-39.082-173.7229-39.082-67.9082 0-129.3261 14.959-173.7221 39.082-44.445 24.15-71.555 57.307-71.555 93.626 0 17.4055 6.226 34.0851 17.604 49.395-8.996-13.9045-13.888-28.8589-13.888-44.4342 0-73.9778 110.369-133.9478 246.5162-133.9478zm232.6288 89.513c8.995 13.905 13.887 28.859 13.887 44.4348 0 73.9774-110.369 133.948-246.5158 133.948-77.3739 0-146.4222-19.3691-191.6182-49.6706 6.981 5.05399 14.619 9.83603 22.851 14.30914 44.3962 24.12336 105.8141 39.08226 173.7223 39.08226 67.9077 0 129.3257-14.9589 173.7227-39.08226 44.444-24.14964 71.555-57.30664 71.555-93.62554 0-17.4058-6.227-34.0858-17.604-49.3958zm-36.056-34.882c-45.196-30.301-114.244-49.67-191.6177-49.67-136.1473 0-246.5163 59.97-246.5163 133.9478 0 15.5753 4.892 30.5297 13.888 44.4343-11.378-15.3099-17.604-31.9895-17.604-49.3953 0-36.3188 27.11-69.4758 71.555-93.6258 44.3961-24.123 105.814-39.082 173.7222-39.082 67.9081 0 129.3258 14.959 173.7228 39.082 8.232 4.473 15.869 9.255 22.85 14.309zm54.899 84.2778c0-15.5748-4.893-30.5298-13.888-44.4338 11.377 15.31 17.604 31.989 17.604 49.3948 0 36.3189-27.11 69.4759-71.555 93.62557-44.397 24.12343-105.814 39.08223-173.7227 39.08223-67.9081 0-129.326-14.9588-173.7223-39.08223-8.232-4.47308-15.87-9.25515-22.85-14.30914 45.195 30.30147 114.2434 49.67067 191.6173 49.67067 136.1467 0 246.5167-59.9706 246.5167-133.9481zm-241.5617-128.9868c77.3737 0 146.4217 19.369 191.6177 49.67-6.981-5.054-14.618-9.836-22.85-14.309-44.397-24.123-105.815-39.082-173.7227-39.082-67.9082 0-129.3261 14.959-173.7223 39.082-44.445 24.15-71.555 57.307-71.555 93.6258 0 17.4058 6.226 34.0853 17.604 49.3952-8.996-13.9045-13.888-28.8589-13.888-44.4342 0-73.9778 110.3692-133.9478 246.5163-133.9478zm232.6287 89.514c8.995 13.904 13.888 28.859 13.888 44.4338 0 73.9775-110.369 133.9481-246.5167 133.9481-77.3739 0-146.4223-19.3691-191.6173-49.6707 6.98 5.05401 14.618 9.83612 22.85 14.3092 44.3964 24.1234 105.8143 39.0823 173.7225 39.0823 67.9085 0 129.3265-14.9589 173.7225-39.0823 44.445-24.1496 71.555-57.3066 71.555-93.6255 0-17.4057-6.227-34.0849-17.604-49.3949zm-36.056-34.882c-45.195-30.302-114.244-49.671-191.6175-49.671-136.1472 0-246.5165 59.97-246.5165 133.9479 0 15.5753 4.893 30.5297 13.888 44.4342-11.377-15.3099-17.604-31.9895-17.604-49.3953 0-36.3188 27.11-69.4758 71.555-93.6258 44.3963-24.123 105.8142-39.082 173.7223-39.082 67.9087 0 129.3257 14.959 173.7227 39.082 8.232 4.473 15.87 9.256 22.85 14.31zm54.899 84.2769c0-15.5753-4.893-30.5299-13.888-44.4339 11.377 15.31 17.604 31.9892 17.604 49.3949 0 36.3189-27.11 69.4759-71.555 93.6256-44.396 24.1233-105.814 39.0822-173.7224 39.0822-67.9082 0-129.3261-14.9589-173.7226-39.0822-8.232-4.4732-15.87-9.25523-22.85-14.30921 45.195 30.30151 114.2435 49.67061 191.6175 49.67061 136.1475 0 246.5165-59.97054 246.5165-133.948zm-241.5614-128.9869c77.3734 0 146.4214 19.369 191.6174 49.67-6.981-5.054-14.618-9.836-22.85-14.309-44.396-24.123-105.814-39.082-173.7225-39.082-67.9082 0-129.3261 14.959-173.7225 39.082-44.445 24.15-71.555 57.307-71.555 93.6259 0 17.4058 6.227 34.0853 17.604 49.3952-8.995-13.9045-13.888-28.8589-13.888-44.4342 0-73.9779 110.3694-133.9479 246.5166-133.9479zm232.6284 89.514c8.996 13.904 13.888 28.8586 13.888 44.4339 0 73.97749-110.369 133.9481-246.5164 133.9481-77.3739 0-146.4221-19.3691-191.6176-49.67068 6.981 5.05398 14.618 9.83608 22.85 14.30918 44.3966 24.1234 105.8145 39.0822 173.7227 39.0822 67.9083 0 129.3263-14.9588 173.7223-39.0822 44.445-24.14964 71.555-57.3067 71.555-93.6255 0-17.4059-6.226-34.085-17.604-49.395z"/><path d="m200.396-207.67c-40.943-43.142-123.7507-72.642-219.2389-72.642-136.1471 0-246.5161 59.971-246.5161 133.948 0 24.107 11.72 46.7262 32.232 66.2676 1.589 1.6746 3.242 3.3285 4.955 4.9611 1.589 1.6745 3.242 3.3285 4.955 4.961 1.589 1.6745 3.242 3.3284 4.955 4.9609 1.59 1.6746 3.242 3.3286 4.956 4.9612 1.589 1.6745 3.241 3.3284 4.955 4.9609 1.589 1.6746 3.241 3.3286 4.955 4.9612 40.943 43.14205 123.7507 72.6418 219.2389 72.6418 136.1471 0 246.5161-59.9706 246.5161-133.9477 0-24.107-11.72-46.726-32.232-66.268-1.589-1.674-3.242-3.328-4.955-4.961-1.589-1.674-3.242-3.328-4.955-4.961-1.589-1.674-3.242-3.328-4.955-4.961-1.59-1.674-3.242-3.328-4.956-4.961-1.589-1.674-3.241-3.328-4.955-4.961-1.589-1.674-3.241-3.328-4.955-4.961zm26.039 61.306c0 36.319-27.111 69.4762-71.555 93.6259-44.397 24.1234-105.8147 39.0823-173.7229 39.0823-67.9081 0-129.3261-14.9589-173.7221-39.0823-8.072-4.386-15.572-9.069-22.442-14.0141-9.355-14.0543-14.428-29.1734-14.428-44.8838 0-36.319 27.111-69.476 71.555-93.626 44.397-24.123 105.8147-39.082 173.7229-39.082 67.9081 0 129.3261 14.959 173.7221 39.082 8.072 4.386 15.572 9.069 22.442 14.014 9.355 14.055 14.428 29.174 14.428 44.884zm-11.634-42.832c8.348 13.449 12.872 27.854 12.872 42.832 0 73.9778-110.369 133.9484-246.5159 133.9484-77.3738 0-146.4221-19.3691-191.6171-49.6706 6.98 5.054 14.618 9.836 22.85 14.3091 44.396 24.1234 105.8141 39.08231 173.7222 39.08231 67.9082 0 129.3258-14.95891 173.7228-39.08231 44.444-24.1496 71.555-57.3069 71.555-93.6259 0-16.707-5.737-32.746-16.26-47.546-.109-.082-.219-.165-.329-.247zm-37.071-36.484c-45.196-30.302-114.2439-49.671-191.6178-49.671-136.1472 0-246.5162 59.971-246.5162 133.948 0 15.576 4.892 30.53 13.888 44.4347-11.378-15.3097-17.604-31.9897-17.604-49.3957 0-36.319 27.11-69.476 71.555-93.625 44.396-24.124 105.814-39.082 173.7221-39.082 67.9082 0 129.3259 14.958 173.7229 39.082 8.232 4.473 15.869 9.255 22.85 14.309zm-395.531 156.8761c-8.348-13.4489-12.872-27.8536-12.872-42.8321 0-73.978 110.369-133.948 246.5159-133.948 77.3737 0 146.4221 19.369 191.6181 49.67-6.981-5.054-14.619-9.836-22.851-14.309-44.396-24.123-105.8141-39.082-173.7222-39.082-67.9082 0-129.3258 14.959-173.7228 39.082-44.444 24.15-71.555 57.307-71.555 93.626 0 16.7072 5.737 32.7457 16.26 47.546.11.0824.219.1648.329.2471zm450.43-72.5991c0-15.575-4.893-30.529-13.888-44.434 11.377 15.31 17.604 31.99 17.604 49.395 0 36.319-27.111 69.4763-71.555 93.626-44.397 24.1234-105.8145 39.08224-173.72265 39.08224s-129.32635-14.95884-173.72235-39.08224c-8.232-4.4731-15.87-9.2552-22.85-14.3092 45.195 30.3016 114.2434 49.67067 191.6172 49.67067 136.1468 0 246.5168-59.97057 246.5168-133.94847zm-241.56165-128.987c77.37395 0 146.42265 19.37 191.61765 49.671-6.981-5.054-14.618-9.836-22.85-14.309-44.397-24.124-105.8146-39.082-173.7228-39.082-67.9081 0-129.3262 14.958-173.7222 39.082-44.445 24.15-71.555 57.307-71.555 93.625 0 17.406 6.226 34.086 17.604 49.3957-8.996-13.9047-13.888-28.8587-13.888-44.4347 0-73.977 110.369-133.948 246.51635-133.948zm232.62865 89.514c8.995 13.905 13.888 28.859 13.888 44.434 0 73.9779-110.369 133.9485-246.51665 133.9485-77.37385 0-146.42235-19.3691-191.61735-49.6706 6.98 5.054 14.618 9.836 22.85 14.3091 44.396 24.1234 105.8143 39.08226 173.72243 39.08226 67.90817 0 129.32557-14.95886 173.72257-39.08226 44.445-24.1496 71.555-57.3066 71.555-93.626 0-17.405-6.227-34.085-17.604-49.395zm-36.056-34.882c-45.196-30.301-114.2439-49.671-191.61757-49.671-136.14743 0-246.51643 59.971-246.51643 133.948 0 15.576 4.893 30.53 13.888 44.4348-11.377-15.3098-17.604-31.9898-17.604-49.3958 0-36.318 27.11-69.475 71.555-93.625 44.396-24.123 105.8142-39.082 173.72235-39.082s129.32565 14.959 173.72265 39.082c8.232 4.473 15.869 9.255 22.85 14.309zm54.899 84.277c0-15.575-4.893-30.529-13.888-44.434 11.377 15.31 17.604 31.99 17.604 49.396 0 36.3184-27.11 69.4754-71.555 93.625-44.396 24.12343-105.8143 39.08232-173.722461 39.08232-67.908139 0-129.325539-14.95889-173.722539-39.08232-8.232-4.473-15.87-9.2551-22.85-14.3091 45.195 30.3015 114.2436 49.67063 191.61743 49.67063 136.14757 0 246.51657-59.97063 246.51657-133.94853zm-241.561461-128.987c77.373861 0 146.422461 19.37 191.617461 49.671-6.98-5.054-14.618-9.836-22.85-14.309-44.397-24.123-105.8144-39.082-173.72257-39.082-67.90813 0-129.32643 14.959-173.72243 39.082-44.445 24.15-71.555 57.307-71.555 93.625 0 17.406 6.227 34.0858 17.604 49.3957-8.995-13.9045-13.888-28.8587-13.888-44.4337 0-73.978 110.369-133.949 246.516539-133.949zm232.628461 89.515c8.996 13.904 13.888 28.858 13.888 44.434 0 73.977-110.369 133.94759-246.516461 133.94759-77.373939 0-146.422539-19.36919-191.617539-49.67069 6.98 5.054 14.618 9.8361 22.85 14.3092 44.397 24.12339 105.8145 39.0823 173.72265 39.0823s129.32635-14.95891 173.72235-39.0823c44.445-24.1497 71.555-57.3066 71.555-93.6251 0-17.406-6.226-34.086-17.604-49.395zm-36.056-34.883c-45.195-30.301-114.2435-49.67-191.61735-49.67-136.14765 0-246.51665 59.97-246.51665 133.948 0 15.575 4.893 30.5293 13.888 44.4338-11.377-15.3099-17.604-31.9898-17.604-49.3948 0-36.319 27.11-69.476 71.555-93.626 44.397-24.123 105.8144-39.082 173.722539-39.082 67.908161 0 129.326461 14.959 173.722461 39.082 8.232 4.473 15.87 9.255 22.85 14.309zm54.899 84.278c0-15.576-4.892-30.53-13.888-44.435 11.378 15.31 17.604 31.99 17.604 49.396 0 36.3185-27.11 69.4755-71.555 93.6251-44.396 24.12342-105.8141 39.0823-173.7222 39.0823-67.9082 0-129.3258-14.95888-173.7228-39.0823-8.232-4.4731-15.869-9.2552-22.85-14.3091 45.196 30.30151 114.2437 49.6706 191.61765 49.6706 136.14735 0 246.51635-59.9706 246.51635-133.9476zm-241.5612-128.987c77.3737 0 146.4222 19.369 191.6172 49.67-6.98-5.054-14.618-9.836-22.85-14.309-44.396-24.123-105.8142-39.082-173.72235-39.082s-129.32565 14.959-173.72265 39.082c-44.445 24.15-71.555 57.307-71.555 93.626 0 17.405 6.227 34.0849 17.604 49.3948-8.995-13.9045-13.888-28.8588-13.888-44.4338 0-73.978 110.37-133.948 246.5168-133.948zm232.6282 89.513c8.996 13.905 13.888 28.859 13.888 44.435 0 73.9771-110.369 133.9476-246.5162 133.9476-77.3739 0-146.4218-19.36903-191.6178-49.6706 6.981 5.054 14.618 9.8361 22.85 14.3092 44.397 24.12335 105.8147 39.0822 173.7229 39.0822 67.9081 0 129.3261-14.95885 173.7221-39.0822 44.445-24.1497 71.555-57.3067 71.555-93.6252 0-17.406-6.226-34.086-17.604-49.396z"/><path d="m160.755-247.358c-40.943-43.142-123.7505-72.642-219.2387-72.642-136.1473 0-246.5163 59.971-246.5163 133.948 0 24.107 11.72 46.726 32.232 66.267 1.59 1.675 3.242 3.329 4.955 4.961 1.59 1.675 3.242 3.329 4.956 4.961 1.589 1.675 3.241 3.329 4.954 4.961 1.59 1.675 3.242 3.329 4.956 4.9615 1.589 1.6745 3.241 3.3284 4.955 4.9609 1.589 1.6746 3.241 3.3286 4.955 4.9612 40.943 43.142 123.751 72.6418 219.239 72.6418 136.147 0 246.516-59.9706 246.516-133.9484 0-24.106-11.719-46.725-32.232-66.267-1.589-1.674-3.241-3.328-4.955-4.961-1.589-1.675-3.242-3.328-4.955-4.961-1.589-1.674-3.242-3.328-4.955-4.961-1.589-1.675-3.242-3.329-4.955-4.961-1.59-1.675-3.242-3.329-4.955-4.961-1.59-1.675-3.242-3.329-4.956-4.961zm26.039 61.306c0 36.319-27.111 69.476-71.555 93.6256-44.3967 24.1234-105.81453 39.0823-173.7227 39.0823-67.9083 0-129.3263-14.9589-173.7223-39.0823-8.072-4.386-15.572-9.0686-22.442-14.0136-9.354-14.055-14.428-29.174-14.428-44.885 0-36.319 27.111-69.476 71.556-93.625 44.396-24.124 105.8139-39.082 173.722-39.082 67.9082 0 129.326 14.958 173.722 39.082 8.072 4.386 15.573 9.069 22.442 14.014 9.355 14.054 14.428 29.173 14.428 44.884zm-11.634-42.832c8.348 13.449 12.873 27.853 12.873 42.832 0 73.978-110.3695 133.9481-246.5167 133.9481-77.3743 0-146.4223-19.3691-191.6173-49.6701 6.98 5.0535 14.618 9.8355 22.85 14.3086 44.396 24.1234 105.814 39.0823 173.7224 39.0823 67.9082 0 129.3261-14.9589 173.7226-39.0823 44.445-24.1496 71.555-57.3066 71.555-93.6256 0-16.707-5.737-32.746-16.26-47.546-.109-.083-.219-.165-.329-.247zm-37.071-36.484c-45.1955-30.302-114.2437-49.671-191.6176-49.671-136.1474 0-246.5164 59.971-246.5164 133.948 0 15.575 4.892 30.53 13.888 44.434-11.378-15.31-17.604-31.989-17.604-49.395 0-36.319 27.11-69.476 71.555-93.625 44.396-24.124 105.814-39.083 173.7223-39.083 67.90817 0 129.326 14.959 173.7227 39.083 8.232 4.473 15.87 9.255 22.85 14.309zm-395.531 156.876c-8.347-13.449-12.872-27.854-12.872-42.833 0-73.977 110.369-133.948 246.516-133.948 77.3738 0 146.422 19.369 191.618 49.671-6.981-5.054-14.618-9.836-22.851-14.309-44.396-24.124-105.8139-39.083-173.7221-39.083-67.9081 0-129.3259 14.959-173.7229 39.083-44.444 24.149-71.555 57.306-71.555 93.625 0 16.708 5.738 32.746 16.26 47.547.11.082.219.164.329.247zm450.43-72.599c0-15.575-4.893-30.53-13.888-44.434 11.377 15.31 17.604 31.989 17.604 49.395 0 36.319-27.11 69.476-71.555 93.6257-44.3964 24.1233-105.8143 39.0822-173.7225 39.0822-67.9085 0-129.3265-14.9589-173.7225-39.0822-8.232-4.4731-15.87-9.2552-22.85-14.3092 45.195 30.3015 114.244 49.6706 191.6174 49.6706 136.1472 0 246.5166-59.9701 246.5166-133.9481zm-241.5615-128.987c77.3739 0 146.4222 19.369 191.6175 49.671-6.98-5.054-14.618-9.836-22.85-14.309-44.3965-24.124-105.8144-39.083-173.7226-39.083-67.9084 0-129.3264 14.959-173.7224 39.083-44.445 24.149-71.555 57.306-71.555 93.625 0 17.406 6.227 34.085 17.604 49.395-8.995-13.904-13.888-28.859-13.888-44.434 0-73.977 110.369-133.948 246.5165-133.948zm232.6285 89.514c8.995 13.904 13.888 28.859 13.888 44.434 0 73.978-110.3693 133.9482-246.5165 133.9482-77.3735 0-146.4215-19.3691-191.6175-49.6706 6.981 5.054 14.618 9.836 22.85 14.3091 44.397 24.1234 105.814 39.0823 173.7226 39.0823 67.9082 0 129.3261-14.9589 173.7224-39.0823 44.445-24.1497 71.555-57.3067 71.555-93.6257 0-17.406-6.227-34.085-17.604-49.395zm-36.056-34.882c-45.196-30.302-114.2437-49.671-191.6174-49.671-136.1476 0-246.5166 59.971-246.5166 133.948 0 15.575 4.893 30.53 13.888 44.434-11.377-15.309-17.604-31.989-17.604-49.395 0-36.319 27.11-69.476 71.555-93.625 44.396-24.124 105.814-39.083 173.7225-39.083 67.9082 0 129.3261 14.959 173.7225 39.083 8.232 4.473 15.87 9.255 22.85 14.309zm54.899 84.277c0-15.575-4.892-30.529-13.888-44.434 11.378 15.31 17.604 31.989 17.604 49.395 0 36.319-27.11 69.4761-71.555 93.6257-44.3962 24.1234-105.8141 39.0823-173.7223 39.0823-67.9077 0-129.3257-14.9589-173.7227-39.0823-8.232-4.4731-15.869-9.2551-22.85-14.3091 45.196 30.3015 114.244 49.6706 191.6176 49.6706 136.1472 0 246.5164-59.9705 246.5164-133.9482zm-241.5613-128.987c77.3739 0 146.4223 19.369 191.6173 49.671-6.98-5.054-14.618-9.836-22.85-14.309-44.3963-24.124-105.8142-39.083-173.7224-39.083-67.9086 0-129.3256 14.959-173.7226 39.083-44.445 24.149-71.555 57.306-71.555 93.625 0 17.406 6.227 34.085 17.604 49.395-8.995-13.904-13.888-28.859-13.888-44.434 0-73.977 110.37-133.948 246.5167-133.948zm232.6293 89.514c8.995 13.905 13.887 28.859 13.887 44.434 0 73.9777-110.3691 133.9483-246.5163 133.9483-77.3737 0-146.4217-19.3691-191.6177-49.6707 6.981 5.054 14.618 9.8361 22.85 14.3092 44.397 24.1234 105.815 39.0823 173.7228 39.0823 67.9082 0 129.3261-14.9589 173.7222-39.0823 44.445-24.1497 71.555-57.3068 71.555-93.6258 0-17.405-6.226-34.085-17.603-49.395zm-36.056-34.882c-45.196-30.302-114.2443-49.671-191.6182-49.671-136.1468 0-246.5158 59.971-246.5158 133.948 0 15.576 4.892 30.53 13.887 44.435-11.377-15.31-17.604-31.99-17.604-49.396 0-36.319 27.111-69.476 71.555-93.625 44.397-24.124 105.815-39.083 173.7227-39.083 67.9082 0 129.3261 14.959 173.7223 39.083 8.232 4.473 15.87 9.255 22.851 14.309zm54.898 84.277c0-15.575-4.892-30.529-13.887-44.434 11.377 15.31 17.603 31.99 17.603 49.395 0 36.319-27.11 69.4762-71.555 93.6258-44.396 24.1234-105.8139 39.0823-173.7221 39.0823-67.9081 0-129.3259-14.9589-173.7229-39.0823-8.232-4.4731-15.869-9.2552-22.85-14.3092 45.196 30.3016 114.244 49.6707 191.6178 49.6707 136.1472 0 246.5162-59.9706 246.5162-133.9483zm-241.5611-128.987c77.3738 0 146.4221 19.369 191.6171 49.671-6.98-5.054-14.618-9.836-22.85-14.309-44.3961-24.124-105.814-39.083-173.7222-39.083-67.9078 0-129.3258 14.959-173.7228 39.083-44.444 24.149-71.555 57.306-71.555 93.625 0 17.406 6.227 34.086 17.604 49.396-8.995-13.905-13.887-28.859-13.887-44.435 0-73.977 110.369-133.948 246.5159-133.948zm232.6291 89.514c8.995 13.905 13.887 28.859 13.887 44.434 0 73.9778-110.369 133.9484-246.5161 133.9484-77.3739 0-146.4219-19.3692-191.6179-49.6707 6.981 5.054 14.618 9.836 22.851 14.3091 44.396 24.1235 105.8139 39.0823 173.722 39.0823 67.9082 0 129.326-14.9588 173.722-39.0823 44.445-24.1496 71.556-57.3068 71.556-93.6258 0-17.405-6.227-34.085-17.604-49.395z"/><path d="m797.937 167.682c-37.706-39.641-113.965-66.747-201.902-66.747-125.381 0-227.023 55.104-227.023 123.078 0 22.15 10.793 42.934 29.684 60.89 1.463 1.538 2.985 3.058 4.563 4.558 1.464 1.539 2.985 3.058 4.563 4.558 1.464 1.539 2.985 3.059 4.563 4.559 1.464 1.538 2.986 3.058 4.564 4.558 1.463 1.539 2.985 3.059 4.563 4.559 1.464 1.538 2.985 3.058 4.563 4.558 37.706 39.641 113.965 66.747 201.903 66.747 125.381 0 227.022-55.104 227.022-123.078 0-22.15-10.793-42.934-29.683-60.889-1.464-1.539-2.986-3.059-4.564-4.559-1.463-1.539-2.985-3.058-4.563-4.558-1.463-1.539-2.985-3.059-4.563-4.559-1.464-1.538-2.985-3.058-4.564-4.558-1.463-1.539-2.985-3.059-4.563-4.559-1.463-1.538-2.985-3.058-4.563-4.558zm23.979 56.331c0 33.372-24.966 63.838-65.896 86.028-40.886 22.165-97.447 35.91-159.985 35.91s-119.1-13.745-159.985-35.91c-7.434-4.03-14.341-8.333-20.667-12.877-8.615-12.914-13.287-26.806-13.287-41.242 0-33.371 24.966-63.838 65.897-86.028 40.885-22.165 97.446-35.91 159.985-35.91 62.538 0 119.099 13.745 159.984 35.91 7.434 4.03 14.341 8.334 20.668 12.877 8.615 12.914 13.286 26.806 13.286 41.242zm-10.713-39.356c7.687 12.357 11.854 25.593 11.854 39.356 0 67.974-101.641 123.078-227.022 123.078-71.256 0-134.844-17.797-176.465-45.64 6.428 4.644 13.462 9.038 21.043 13.148 40.886 22.166 97.447 35.911 159.985 35.911s119.099-13.745 159.985-35.911c40.93-22.19 65.897-52.656 65.897-86.028 0-15.351-5.284-30.088-14.974-43.687-.101-.076-.202-.152-.303-.227zm-34.14-33.524c-41.622-27.842-105.21-45.639-176.465-45.639-125.381 0-227.022 55.103-227.022 123.077 0 14.312 4.505 28.053 12.789 40.829-10.478-14.068-16.212-29.394-16.212-45.387 0-33.372 24.967-63.838 65.897-86.028 40.885-22.165 97.447-35.91 159.985-35.91s119.099 13.745 159.985 35.91c7.581 4.11 14.614 8.504 21.043 13.148zm-364.253 144.146c-7.688-12.358-11.855-25.594-11.855-39.357 0-67.974 101.642-123.078 227.023-123.078 71.255 0 134.843 17.797 176.465 45.64-6.429-4.644-13.463-9.038-21.044-13.148-40.885-22.166-97.447-35.911-159.985-35.911s-119.099 13.745-159.985 35.911c-40.93 22.19-65.896 52.656-65.896 86.028 0 15.351 5.283 30.088 14.974 43.688.101.075.202.151.303.227zm414.81-66.708c0-14.311-4.505-28.052-12.789-40.828 10.478 14.068 16.212 29.394 16.212 45.387 0 33.371-24.967 63.838-65.897 86.028-40.886 22.165-97.447 35.91-159.985 35.91s-119.099-13.745-159.985-35.91c-7.581-4.111-14.614-8.505-21.043-13.148 41.622 27.842 105.21 45.639 176.465 45.639 125.381 0 227.022-55.103 227.022-123.078zm-222.459-118.519c71.256 0 134.844 17.797 176.465 45.64-6.428-4.644-13.462-9.038-21.043-13.148-40.886-22.166-97.447-35.911-159.985-35.911s-119.099 13.745-159.985 35.911c-40.93 22.19-65.897 52.656-65.897 86.027 0 15.994 5.735 31.32 16.212 45.387-8.284-12.776-12.789-26.517-12.789-40.828 0-67.974 101.641-123.078 227.022-123.078zm214.233 82.25c8.284 12.776 12.79 26.517 12.79 40.828 0 67.974-101.642 123.078-227.023 123.078-71.255 0-134.843-17.797-176.465-45.64 6.429 4.644 13.462 9.038 21.044 13.148 40.885 22.166 97.446 35.911 159.984 35.911 62.539 0 119.1-13.745 159.985-35.911 40.931-22.19 65.897-52.656 65.897-86.028 0-15.993-5.734-31.319-16.212-45.386zm-33.205-32.052c-41.621-27.842-105.209-45.64-176.465-45.64-125.381 0-227.022 55.104-227.022 123.078 0 14.312 4.506 28.053 12.79 40.829-10.478-14.068-16.212-29.394-16.212-45.387 0-33.372 24.966-63.838 65.896-86.028 40.886-22.166 97.447-35.91 159.985-35.91s119.099 13.744 159.985 35.91c7.581 4.11 14.615 8.504 21.043 13.148zm50.558 77.438c0-14.311-4.506-28.052-12.789-40.828 10.477 14.068 16.211 29.394 16.211 45.387 0 33.371-24.966 63.838-65.896 86.027-40.886 22.166-97.447 35.911-159.985 35.911s-119.1-13.745-159.985-35.911c-7.581-4.11-14.615-8.504-21.044-13.148 41.622 27.843 105.21 45.64 176.465 45.64 125.382 0 227.023-55.104 227.023-123.078zm-222.459-118.519c71.255 0 134.843 17.797 176.465 45.64-6.429-4.644-13.462-9.038-21.044-13.148-40.885-22.166-97.446-35.911-159.985-35.911-62.538 0-119.099 13.745-159.984 35.911-40.931 22.19-65.897 52.656-65.897 86.027 0 15.994 5.734 31.32 16.212 45.387-8.284-12.776-12.79-26.517-12.79-40.828 0-67.974 101.642-123.078 227.023-123.078zm214.233 82.25c8.284 12.776 12.789 26.517 12.789 40.828 0 67.974-101.641 123.078-227.022 123.078-71.256 0-134.844-17.798-176.465-45.64 6.428 4.644 13.462 9.038 21.043 13.148 40.886 22.166 97.447 35.91 159.985 35.91s119.099-13.744 159.985-35.91c40.93-22.19 65.897-52.656 65.897-86.028 0-15.993-5.735-31.319-16.212-45.386zm-33.205-32.052c-41.622-27.842-105.21-45.64-176.465-45.64-125.381 0-227.022 55.104-227.022 123.078 0 14.312 4.505 28.052 12.789 40.829-10.478-14.068-16.212-29.394-16.212-45.387 0-33.372 24.967-63.838 65.897-86.028 40.885-22.166 97.447-35.911 159.985-35.911s119.099 13.745 159.985 35.911c7.581 4.11 14.614 8.504 21.043 13.148zm50.557 77.438c0-14.311-4.505-28.052-12.789-40.828 10.478 14.068 16.212 29.393 16.212 45.387 0 33.371-24.967 63.837-65.897 86.027-40.885 22.166-97.447 35.911-159.985 35.911s-119.099-13.745-159.985-35.911c-7.581-4.11-14.614-8.504-21.043-13.148 41.622 27.843 105.21 45.64 176.465 45.64 125.381 0 227.022-55.104 227.022-123.078zm-222.459-118.519c71.255 0 134.843 17.797 176.465 45.639-6.428-4.643-13.462-9.037-21.043-13.147-40.886-22.166-97.447-35.911-159.985-35.911s-119.099 13.745-159.985 35.911c-40.93 22.189-65.897 52.656-65.897 86.027 0 15.993 5.735 31.319 16.212 45.387-8.284-12.776-12.789-26.517-12.789-40.828 0-67.974 101.641-123.078 227.022-123.078zm214.233 82.249c8.284 12.776 12.79 26.517 12.79 40.829 0 67.974-101.642 123.078-227.023 123.078-71.255 0-134.843-17.798-176.465-45.64 6.429 4.644 13.462 9.038 21.044 13.148 40.885 22.165 97.446 35.91 159.985 35.91 62.538 0 119.099-13.745 159.984-35.91 40.931-22.19 65.897-52.656 65.897-86.028 0-15.993-5.734-31.319-16.212-45.387z"/><path d="m761.431 131.214c-37.706-39.6406-113.965-66.7465-201.902-66.7465-125.381 0-227.023 55.1035-227.023 123.0775 0 22.151 10.793 42.934 29.684 60.89 1.463 1.539 2.985 3.058 4.563 4.558 1.463 1.539 2.985 3.059 4.563 4.559 1.464 1.538 2.985 3.058 4.563 4.558 1.464 1.539 2.985 3.059 4.564 4.559 1.463 1.538 2.985 3.058 4.563 4.558 1.463 1.539 2.985 3.059 4.563 4.559 37.706 39.641 113.965 66.746 201.902 66.746 125.381 0 227.023-55.103 227.023-123.077 0-22.151-10.793-42.934-29.684-60.89-1.463-1.539-2.985-3.058-4.563-4.559-1.463-1.538-2.985-3.058-4.563-4.558-1.464-1.538-2.985-3.058-4.563-4.558-1.464-1.539-2.986-3.059-4.564-4.559-1.463-1.538-2.985-3.058-4.563-4.558-1.463-1.539-2.985-3.059-4.563-4.559zm23.979 56.331c0 33.372-24.966 63.838-65.896 86.028-40.886 22.166-97.447 35.911-159.985 35.911-62.539 0-119.1-13.745-159.985-35.911-7.434-4.03-14.341-8.333-20.667-12.877-8.615-12.913-13.287-26.806-13.287-41.241 0-33.372 24.966-63.838 65.896-86.028 40.886-22.166 97.447-35.9108 159.985-35.9108 62.539 0 119.1 13.7448 159.985 35.9108 7.434 4.03 14.341 8.333 20.668 12.877 8.614 12.914 13.286 26.806 13.286 41.241zm-10.713-39.356c7.687 12.358 11.854 25.593 11.854 39.356 0 67.975-101.641 123.078-227.022 123.078-71.256 0-134.844-17.797-176.465-45.639 6.428 4.643 13.462 9.037 21.043 13.148 40.886 22.165 97.447 35.91 159.985 35.91s119.099-13.745 159.985-35.91c40.93-22.19 65.896-52.657 65.896-86.028 0-15.352-5.283-30.089-14.974-43.688-.1-.076-.201-.151-.302-.227zm-34.14-33.523c-41.622-27.8427-105.21-45.64-176.465-45.64-125.381 0-227.023 55.104-227.023 123.078 0 14.311 4.506 28.052 12.79 40.828-10.478-14.067-16.212-29.393-16.212-45.387 0-33.371 24.967-63.837 65.897-86.027 40.885-22.1659 97.446-35.9109 159.985-35.9109 62.538 0 119.099 13.745 159.985 35.9109 7.581 4.11 14.614 8.504 21.043 13.148zm-364.253 144.145c-7.688-12.357-11.855-25.593-11.855-39.356 0-67.975 101.641-123.0784 227.022-123.0784 71.256 0 134.844 17.7974 176.465 45.6394-6.428-4.643-13.462-9.037-21.043-13.148-40.886-22.165-97.447-35.9102-159.985-35.9102s-119.099 13.7452-159.985 35.9102c-40.93 22.19-65.896 52.657-65.896 86.028 0 15.352 5.283 30.089 14.974 43.688.1.076.201.151.303.227zm414.81-66.707c0-14.311-4.505-28.052-12.789-40.828 10.477 14.067 16.212 29.393 16.212 45.386 0 33.372-24.967 63.838-65.897 86.028-40.886 22.166-97.447 35.911-159.985 35.911s-119.099-13.745-159.985-35.911c-7.581-4.11-14.615-8.504-21.043-13.148 41.621 27.843 105.209 45.64 176.465 45.64 125.381 0 227.022-55.104 227.022-123.078zm-222.459-118.5196c71.255 0 134.844 17.7973 176.465 45.6396-6.428-4.644-13.462-9.038-21.043-13.148-40.886-22.1655-97.447-35.9104-159.985-35.9104s-119.099 13.7449-159.985 35.9104c-40.93 22.19-65.897 52.656-65.897 86.028 0 15.993 5.735 31.319 16.212 45.387-8.284-12.776-12.789-26.517-12.789-40.829 0-67.974 101.641-123.0776 227.022-123.0776zm214.233 82.2496c8.284 12.776 12.79 26.517 12.79 40.828 0 67.974-101.642 123.078-227.023 123.078-71.255 0-134.843-17.797-176.465-45.64 6.429 4.644 13.462 9.038 21.043 13.148 40.886 22.166 97.447 35.911 159.985 35.911 62.539 0 119.1-13.745 159.985-35.911 40.93-22.189 65.897-52.656 65.897-86.027 0-15.994-5.734-31.319-16.212-45.387zm-33.205-32.051c-41.621-27.8429-105.209-45.6401-176.465-45.6401-125.381 0-227.022 55.1041-227.022 123.0781 0 14.311 4.505 28.052 12.789 40.828-10.477-14.067-16.212-29.393-16.212-45.387 0-33.371 24.967-63.837 65.897-86.027 40.886-22.166 97.447-35.911 159.985-35.911s119.099 13.745 159.985 35.911c7.581 4.11 14.615 8.504 21.043 13.148zm50.558 77.438c0-14.311-4.506-28.052-12.79-40.828 10.478 14.067 16.212 29.393 16.212 45.386 0 33.372-24.966 63.838-65.896 86.028-40.886 22.166-97.447 35.911-159.985 35.911-62.539 0-119.1-13.745-159.985-35.911-7.582-4.11-14.615-8.504-21.044-13.148 41.622 27.842 105.21 45.64 176.465 45.64 125.381 0 227.023-55.104 227.023-123.078zm-222.459-118.5197c71.255 0 134.843 17.7977 176.465 45.6397-6.429-4.644-13.462-9.038-21.044-13.148-40.885-22.1656-97.446-35.9105-159.985-35.9105-62.538 0-119.099 13.7449-159.985 35.9105-40.93 22.19-65.896 52.656-65.896 86.028 0 15.993 5.734 31.319 16.212 45.386-8.284-12.776-12.79-26.516-12.79-40.828 0-67.974 101.642-123.0777 227.023-123.0777zm214.233 82.2497c8.284 12.776 12.789 26.517 12.789 40.828 0 67.974-101.641 123.078-227.022 123.078-71.256 0-134.844-17.797-176.466-45.64 6.429 4.644 13.463 9.038 21.044 13.148 40.886 22.166 97.447 35.911 159.985 35.911s119.099-13.745 159.985-35.911c40.93-22.19 65.897-52.656 65.897-86.027 0-15.994-5.735-31.319-16.212-45.387zm-33.205-32.051c-41.622-27.843-105.21-45.6403-176.465-45.6403-125.381 0-227.023 55.1043-227.023 123.0783 0 14.311 4.506 28.052 12.79 40.828-10.478-14.067-16.212-29.393-16.212-45.387 0-33.371 24.967-63.838 65.897-86.027 40.885-22.1662 97.446-35.9111 159.985-35.9111 62.538 0 119.099 13.7449 159.985 35.9111 7.581 4.11 14.614 8.504 21.043 13.148zm50.557 77.438c0-14.312-4.505-28.052-12.789-40.828 10.478 14.067 16.212 29.393 16.212 45.386 0 33.372-24.967 63.838-65.897 86.028-40.886 22.165-97.447 35.91-159.985 35.91s-119.099-13.745-159.985-35.91c-7.581-4.11-14.615-8.504-21.043-13.148 41.621 27.842 105.21 45.64 176.465 45.64 125.381 0 227.022-55.104 227.022-123.078zm-222.459-118.5198c71.255 0 134.843 17.7968 176.465 45.6398-6.429-4.644-13.462-9.038-21.043-13.148-40.886-22.166-97.447-35.9106-159.985-35.9106s-119.099 13.7446-159.985 35.9106c-40.93 22.19-65.897 52.656-65.897 86.028 0 15.993 5.735 31.319 16.212 45.386-8.284-12.776-12.789-26.517-12.789-40.828 0-67.974 101.641-123.0778 227.022-123.0778zm214.233 82.2498c8.284 12.776 12.79 26.517 12.79 40.828 0 67.974-101.642 123.078-227.023 123.078-71.255 0-134.843-17.797-176.465-45.64 6.429 4.644 13.462 9.038 21.043 13.148 40.886 22.166 97.447 35.911 159.985 35.911 62.539 0 119.1-13.745 159.985-35.911 40.931-22.19 65.897-52.656 65.897-86.027 0-15.994-5.734-31.32-16.212-45.387z"/><path d="m724.925 94.7469c-37.706-39.641-113.965-66.7469-201.903-66.7469-125.381 0-227.022 55.1039-227.022 123.078 0 22.15 10.793 42.934 29.683 60.889 1.464 1.539 2.986 3.059 4.564 4.559 1.463 1.539 2.985 3.058 4.563 4.558 1.463 1.539 2.985 3.059 4.563 4.559 1.464 1.538 2.985 3.058 4.564 4.558 1.463 1.539 2.985 3.059 4.563 4.559 1.463 1.538 2.985 3.058 4.563 4.558 37.706 39.641 113.965 66.747 201.902 66.747 125.381 0 227.023-55.104 227.023-123.078 0-22.15-10.793-42.934-29.684-60.889-1.463-1.539-2.985-3.059-4.563-4.559-1.464-1.539-2.985-3.058-4.563-4.558-1.464-1.539-2.985-3.059-4.563-4.559-1.464-1.538-2.986-3.058-4.564-4.558-1.463-1.539-2.985-3.059-4.563-4.5586-1.464-1.5387-2.985-3.0585-4.563-4.5585zm23.979 56.3311c0 33.371-24.966 63.838-65.897 86.028-40.885 22.165-97.446 35.91-159.985 35.91-62.538 0-119.099-13.745-159.985-35.91-7.433-4.03-14.34-8.333-20.666-12.877-8.615-12.914-13.287-26.806-13.287-41.242 0-33.372 24.966-63.838 65.896-86.0276 40.886-22.1658 97.447-35.9107 159.985-35.9107s119.1 13.7449 159.985 35.9107c7.434 4.0296 14.341 8.3326 20.667 12.8766 8.615 12.914 13.287 26.806 13.287 41.242zm-10.714-39.356c7.688 12.357 11.855 25.593 11.855 39.356 0 67.974-101.642 123.078-227.023 123.078-71.255 0-134.843-17.797-176.465-45.64 6.429 4.644 13.463 9.038 21.044 13.148 40.885 22.166 97.447 35.911 159.985 35.911s119.099-13.745 159.985-35.911c40.93-22.19 65.896-52.656 65.896-86.028 0-15.351-5.283-30.088-14.974-43.687-.1-.076-.201-.152-.303-.227zm-34.139-33.5238c-41.622-27.8425-105.21-45.6398-176.465-45.6398-125.381 0-227.023 55.1039-227.023 123.0776 0 14.312 4.506 28.053 12.79 40.829-10.478-14.068-16.212-29.394-16.212-45.387 0-33.372 24.966-63.8379 65.896-86.0277 40.886-22.1658 97.447-35.9107 159.985-35.9107 62.539 0 119.1 13.7449 159.985 35.9107 7.582 4.1101 14.615 8.5041 21.044 13.1479zm-364.254 144.1458c-7.687-12.358-11.854-25.594-11.854-39.357 0-67.974 101.641-123.0779 227.022-123.0779 71.256 0 134.844 17.7973 176.465 45.6399-6.428-4.644-13.462-9.038-21.043-13.148-40.886-22.1658-97.447-35.9107-159.985-35.9107s-119.099 13.7449-159.985 35.9107c-40.93 22.19-65.897 52.656-65.897 86.028 0 15.351 5.284 30.088 14.975 43.688.1.075.201.151.302.227zm414.811-66.708c0-14.311-4.505-28.052-12.789-40.828 10.477 14.068 16.212 29.394 16.212 45.387 0 33.371-24.967 63.838-65.897 86.027-40.886 22.166-97.447 35.911-159.985 35.911s-119.099-13.745-159.985-35.911c-7.581-4.11-14.615-8.504-21.043-13.147 41.621 27.842 105.209 45.639 176.465 45.639 125.381 0 227.022-55.104 227.022-123.078zm-222.459-118.5191c71.255 0 134.843 17.7973 176.465 45.6398-6.429-4.6438-13.462-9.0379-21.043-13.148-40.886-22.1657-97.447-35.9106-159.985-35.9106s-119.1 13.7449-159.985 35.9106c-40.93 22.1899-65.897 52.6563-65.897 86.0273 0 15.994 5.734 31.32 16.212 45.387-8.284-12.776-12.789-26.517-12.789-40.828 0-67.9743 101.641-123.0781 227.022-123.0781zm214.233 82.2491c8.284 12.777 12.789 26.517 12.789 40.829 0 67.974-101.641 123.078-227.022 123.078-71.255 0-134.843-17.798-176.465-45.64 6.429 4.644 13.462 9.038 21.043 13.148 40.886 22.166 97.447 35.911 159.985 35.911s119.1-13.745 159.985-35.911c40.93-22.19 65.897-52.656 65.897-86.028 0-15.993-5.734-31.319-16.212-45.387zm-33.205-32.051c-41.622-27.8424-105.21-45.6397-176.465-45.6397-125.381 0-227.022 55.1039-227.022 123.0777 0 14.312 4.505 28.052 12.789 40.829-10.477-14.068-16.212-29.394-16.212-45.387 0-33.372 24.967-63.838 65.897-86.0278 40.886-22.1658 97.447-35.9107 159.985-35.9107s119.099 13.7449 159.985 35.9107c7.581 4.11 14.615 8.504 21.043 13.1478zm50.558 77.438c0-14.311-4.506-28.052-12.79-40.828 10.478 14.068 16.212 29.393 16.212 45.387 0 33.371-24.966 63.837-65.897 86.027-40.885 22.166-97.446 35.911-159.984 35.911-62.539 0-119.1-13.745-159.985-35.911-7.582-4.11-14.615-8.504-21.044-13.148 41.622 27.843 105.21 45.64 176.465 45.64 125.381 0 227.023-55.104 227.023-123.078zm-222.459-118.5192c71.255 0 134.843 17.7973 176.465 45.6398-6.429-4.6439-13.463-9.0379-21.044-13.148-40.885-22.1657-97.447-35.9107-159.985-35.9107s-119.099 13.745-159.985 35.9107c-40.93 22.1894-65.896 52.6564-65.896 86.0274 0 15.994 5.734 31.319 16.212 45.387-8.284-12.776-12.79-26.517-12.79-40.828 0-67.974 101.641-123.0782 227.023-123.0782zm214.233 82.2502c8.283 12.776 12.789 26.516 12.789 40.828 0 67.974-101.641 123.078-227.022 123.078-71.256 0-134.844-17.798-176.466-45.64 6.429 4.644 13.463 9.038 21.044 13.148 40.886 22.166 97.447 35.91 159.985 35.91s119.099-13.744 159.985-35.91c40.93-22.19 65.896-52.656 65.896-86.028 0-15.993-5.734-31.319-16.211-45.386zm-33.205-32.052c-41.622-27.8425-105.21-45.6398-176.465-45.6398-125.381 0-227.023 55.1038-227.023 123.0778 0 14.311 4.506 28.052 12.79 40.828-10.478-14.067-16.212-29.393-16.212-45.386 0-33.372 24.966-63.838 65.897-86.0279 40.885-22.1658 97.446-35.9107 159.985-35.9107 62.538 0 119.099 13.7449 159.984 35.9107 7.582 4.1101 14.615 8.5041 21.044 13.1479zm50.557 77.438c0-14.311-4.505-28.052-12.789-40.828 10.477 14.067 16.212 29.393 16.212 45.387 0 33.371-24.967 63.837-65.897 86.027-40.886 22.166-97.447 35.911-159.985 35.911s-119.099-13.745-159.985-35.911c-7.581-4.11-14.615-8.504-21.043-13.148 41.621 27.843 105.209 45.64 176.465 45.64 125.381 0 227.022-55.104 227.022-123.078zm-222.459-118.5193c71.255 0 134.843 17.7972 176.465 45.6393-6.429-4.6435-13.462-9.0375-21.043-13.1475-40.886-22.1657-97.447-35.9107-159.985-35.9107s-119.099 13.745-159.985 35.9107c-40.93 22.1895-65.897 52.6565-65.897 86.0275 0 15.993 5.734 31.319 16.212 45.387-8.284-12.776-12.789-26.517-12.789-40.828 0-67.974 101.641-123.0783 227.022-123.0783zm214.233 82.2493c8.284 12.776 12.789 26.517 12.789 40.829 0 67.974-101.641 123.078-227.022 123.078-71.255 0-134.843-17.798-176.465-45.64 6.429 4.644 13.462 9.038 21.043 13.148 40.886 22.165 97.447 35.91 159.985 35.91s119.1-13.745 159.985-35.91c40.93-22.19 65.897-52.656 65.897-86.028 0-15.993-5.734-31.319-16.212-45.387z"/></g><path d="m795.17 253.522c52.129 17.959 132.89 6.799 211.49-34.036 112.06-58.223 177.3-154.7257 145.7-215.54512-10.3-19.81888-29.61-33.40288-54.84-40.69648-2.02-.6971-4.09-1.3503-6.2-1.9596-2.02-.6971-4.09-1.3503-6.19-1.9596-2.03-.697-4.09-1.3503-6.2-1.9596-2.03-.6971-4.09-1.3503-6.2-1.9596-2.02-.6971-4.09-1.3503-6.2-1.9596-2.02-.6971-4.09-1.3503-6.2-1.9596-52.12-17.9593-132.885-6.7996-211.483 34.0356-112.066 58.223-177.297 154.7256-145.699 215.5456 10.297 19.819 29.605 33.403 54.836 40.696 2.024.697 4.09 1.35 6.198 1.96 2.024.697 4.09 1.35 6.198 1.959 2.023.697 4.089 1.351 6.197 1.96 2.024.697 4.09 1.35 6.198 1.96 2.024.697 4.09 1.35 6.198 1.959 2.023.697 4.09 1.35 6.197 1.96zm-47.618-39.267c-15.513-29.859-7.361-68.712 18.907-107.573 26.24-38.8186 70.405-77.382 126.301-106.42271 55.897-29.04069 112.84-43.00769 159.69-42.16109 8.52.154 16.69.7967 24.46 1.9244 13.7 7.554 24.33 17.8145 31.04 30.73084 15.52 29.85896 7.36 68.71216-18.9 107.57306-26.24 38.8185-70.41 77.3825-126.305 106.4225-55.897 29.041-112.84 43.008-159.688 42.161-8.517-.154-16.691-.796-24.458-1.924-13.703-7.554-24.337-17.815-31.047-30.731zm27.871 30.239c-12.616-7.487-22.493-17.394-28.891-29.709-31.598-60.82 33.633-157.3224 145.698-215.545382 63.688-33.088718 128.8-46.693018 178.94-41.108818-7.9-1.1698-16.23-1.8352-24.92-1.9922-46.847-.8466-103.791 13.1204-159.688 42.16109-55.896 29.04071-100.061 67.60411-126.3 106.42231-26.269 38.861-34.421 77.715-18.908 107.574 7.136 13.735 18.709 24.468 33.692 32.135.126.021.251.042.377.063zm46.097 14.141c50.144 5.585 115.253-8.02 178.94-41.108 112.07-58.223 177.3-154.7263 145.7-215.54572-6.65-12.80498-17.07-23.00728-30.41-30.59188 15.9 7.7214 28.15 18.77134 35.59 33.08124 15.51 29.85896 7.36 68.71216-18.91 107.57336-26.24 38.818-70.4 77.382-126.3 106.422-55.898 29.041-112.842 43.008-159.689 42.162-8.687-.157-17.016-.823-24.921-1.993zm258.56-298.1204c12.62 7.4869 22.49 17.3944 28.89 29.70908 31.6 60.81942-33.63 157.32232-145.695 215.54532-63.688 33.089-128.796 46.693-178.941 41.109 7.905 1.169 16.234 1.835 24.921 1.992 46.847.847 103.791-13.12 159.687-42.161 55.898-29.041 100.058-67.604 126.298-106.423 26.27-38.8608 34.42-77.714 18.91-107.57297-7.14-13.73593-18.71-24.46823-33.69-32.13603-.13-.021-.25-.0417-.38-.0624zm-339.746 252.3104c6.653 12.805 17.068 23.007 30.411 30.592-15.904-7.721-28.154-18.771-35.589-33.081-15.513-29.859-7.36-68.712 18.908-107.573 26.239-38.8188 70.404-77.3822 126.301-106.42291 55.896-29.04069 112.84-43.00769 159.685-42.16109 8.69.157 17.02.8224 24.92 1.9922-50.14-5.5841-115.249 8.0201-178.937 41.10882-112.066 58.22298-177.297 154.72598-145.699 215.54498zm253.929 2.742c-63.688 33.089-128.796 46.693-178.94 41.109 7.904 1.17 16.233 1.835 24.92 1.992 46.848.847 103.791-13.12 159.688-42.161 55.899-29.041 100.059-67.604 126.299-106.423 26.27-38.8608 34.42-77.714 18.91-107.57295-7.44-14.30995-19.69-25.35985-35.59-33.08125 13.34 7.5846 23.76 17.7869 30.41 30.5918867 31.6 60.8194133-33.63 157.3223133-145.697 215.5453133zm-229.716 25.891c-13.343-7.585-23.758-17.787-30.41-30.592-31.599-60.82 33.633-157.3226 145.698-215.54558 63.688-33.08872 128.795-46.69292 178.945-41.10882-7.91-1.1698-16.24-1.8352-24.93-1.9922-46.843-.8467-103.786 13.1204-159.683 42.16107-55.896 29.04073-100.061 67.60413-126.301 106.42253-26.268 38.861-34.42 77.714-18.907 107.573 7.434 14.31 19.684 25.36 35.588 33.082zm44.578 13.258c50.144 5.584 115.252-8.02 178.94-41.109 112.065-58.223 177.295-154.7255 145.695-215.54493-6.65-12.80497-17.06-23.00727-30.41-30.59187 15.91 7.7213 28.16 18.7713 35.59 33.081245 15.51 29.858955 7.36 68.712155-18.91 107.572555-26.24 38.819-70.4 77.383-126.297 106.423-55.896 29.041-112.84 43.008-159.688 42.161-8.686-.157-17.015-.822-24.92-1.992zm-81.186-45.81c6.653 12.805 17.067 23.007 30.411 30.592-15.905-7.721-28.154-18.771-35.589-33.081-15.513-29.859-7.361-68.712 18.908-107.5734 26.239-38.8186 70.404-77.382 126.3-106.42273 55.897-29.04067 112.841-43.00777 159.691-42.16107 8.68.157 17.01.8224 24.92 1.9922-50.15-5.5841-115.255 8.0201-178.943 41.10883-112.065 58.22297-177.296 154.72617-145.698 215.54517zm253.929 2.742c-63.688 33.088-128.796 46.693-178.941 41.109 7.905 1.169 16.234 1.835 24.921 1.992 46.847.846 103.791-13.121 159.687-42.161 55.895-29.041 100.065-67.604 126.305-106.423 26.26-38.861 34.42-77.7142 18.9-107.57318-7.43-14.30992-19.68-25.35982-35.58-33.08122 13.34 7.5846 23.75 17.7869 30.41 30.59187 31.59 60.81943-33.64 157.32253-145.702 215.54553zm-229.716 25.89c-13.343-7.584-23.758-17.787-30.411-30.592-31.598-60.819 33.633-157.3218 145.699-215.54477 63.688-33.08873 128.796-46.69303 178.94-41.10883-7.9-1.1698-16.23-1.8352-24.92-1.9922-46.848-.8467-103.792 13.1204-159.688 42.16107-55.897 29.04073-100.062 67.60413-126.301 106.42273-26.268 38.861-34.421 77.714-18.908 107.573 7.435 14.31 19.684 25.36 35.589 33.081zm44.577 13.259c50.145 5.584 115.253-8.02 178.941-41.109 112.07-58.223 177.3-154.7257 145.7-215.54514-6.65-12.80496-17.07-23.00726-30.41-30.59186 15.9 7.7213 28.15 18.7713 35.59 33.08122 15.51 29.85898 7.36 68.71218-18.91 107.57278-26.24 38.819-70.41 77.382-126.302 106.423-55.897 29.041-112.84 43.008-159.688 42.161-8.687-.157-17.016-.822-24.921-1.992zm-81.185-45.81c6.652 12.805 17.067 23.007 30.41 30.592-15.904-7.722-28.154-18.772-35.588-33.081-15.513-29.859-7.361-68.713 18.907-107.5735 26.24-38.8187 70.405-77.3821 126.301-106.4228 55.897-29.0408 112.84-43.0078 159.686-42.1611 8.69.157 17.02.8224 24.92 1.9921-50.142-5.5841-115.25 8.0202-178.938 41.1089-112.065 58.223-177.297 154.7254-145.698 215.5454zm253.928 2.742c-63.688 33.088-128.796 46.692-178.94 41.108 7.905 1.17 16.234 1.835 24.92 1.992 46.848.847 103.792-13.12 159.688-42.161 55.9-29.04 100.06-67.604 126.3-106.422 26.27-38.8612 34.42-77.7144 18.91-107.57337-7.44-14.30983-19.69-25.35993-35.59-33.08123 13.34 7.5846 23.76 17.7869 30.41 30.59187 31.6 60.81943-33.63 157.32273-145.698 215.54573zm-229.715 25.89c-13.344-7.584-23.758-17.787-30.411-30.592-31.598-60.819 33.633-157.322 145.698-215.545 63.688-33.0887 128.796-46.6929 178.936-41.1088-7.9-1.1698-16.23-1.8352-24.92-1.9922-46.843-.8467-103.787 13.1203-159.684 42.1611-55.896 29.0407-100.061 67.6041-126.3 106.4227-26.269 38.8612-34.421 77.7142-18.908 107.5732 7.435 14.31 19.684 25.36 35.589 33.081z" fill="url(#c)"/><path d="m844.752 269.199c52.128 17.959 132.89 6.799 211.488-34.036 112.07-58.223 177.3-154.7259 145.7-215.5453-10.3-19.818848-29.61-33.4029-54.84-40.6964-2.02-.6971-4.09-1.3504-6.2-1.9597-2.02-.6971-4.09-1.3503-6.19-1.9596-2.03-.697-4.09-1.3503-6.2-1.9595-2.02-.6971-4.09-1.3504-6.2-1.9597-2.02-.6971-4.09-1.3502-6.2-1.9595-2.02-.6971-4.09-1.3504-6.19-1.9597-52.13-17.9593-132.894-6.7996-211.492 34.03565-112.065 58.22295-177.297 154.72575-145.698 215.54575 10.296 19.818 29.605 33.402 54.836 40.696 2.023.697 4.09 1.35 6.198 1.96 2.023.697 4.089 1.35 6.197 1.959 2.023.697 4.09 1.35 6.198 1.96 2.023.697 4.09 1.35 6.198 1.959 2.023.698 4.089 1.351 6.197 1.96 2.023.697 4.09 1.35 6.198 1.96zm-47.619-39.267c-15.513-29.859-7.36-68.712 18.908-107.573 26.239-38.8188 70.404-77.3822 126.301-106.4229 55.896-29.0407 112.838-43.0077 159.688-42.161 8.52.1539 16.69.7966 24.46 1.9243 13.7 7.554 24.33 17.81454 31.04 30.73087 15.52 29.85903 7.37 68.71213-18.9 107.57273-26.24 38.819-70.41 77.382-126.3 106.423-55.9 29.041-112.844 43.008-159.692 42.161-8.517-.154-16.691-.797-24.458-1.924-13.703-7.554-24.336-17.815-31.047-30.731zm27.871 30.239c-12.615-7.487-22.493-17.395-28.891-29.709-31.598-60.82 33.633-157.3226 145.699-215.5455 63.688-33.0888 128.798-46.693 178.938-41.1089-7.9-1.1698-16.23-1.8352-24.92-1.9921-46.85-.8467-103.79 13.1203-159.686 42.161-55.897 29.0408-100.061 67.6041-126.301 106.4225-26.268 38.861-34.421 77.714-18.908 107.573 7.137 13.736 18.71 24.468 33.693 32.136.125.021.251.042.376.063zm46.098 14.141c50.144 5.584 115.252-8.02 178.938-41.109 112.07-58.223 177.3-154.7255 145.7-215.5449-6.65-12.80496-17.07-23.00726-30.41-30.5918 15.9 7.72128 28.15 18.77127 35.59 33.0812 15.51 29.859 7.36 68.7121-18.91 107.5735-26.24 38.818-70.4 77.382-126.3 106.422-55.897 29.041-112.84 43.008-159.688 42.161-8.687-.157-17.016-.822-24.92-1.992zm258.558-298.1206c12.62 7.4869 22.5 17.39446 28.89 29.70911 31.6 60.81939-33.63 157.32249-145.69 215.54549-63.692 33.088-128.8 46.693-178.944 41.109 7.904 1.169 16.233 1.835 24.92 1.992 46.848.846 103.791-13.121 159.684-42.161 55.9-29.041 100.07-67.604 126.3-106.423 26.27-38.861 34.43-77.7141 18.91-107.57314-7.13-13.73593-18.71-24.46826-33.69-32.13606-.13-.0209-.25-.0417-.38-.0624zm-339.744 252.3106c6.652 12.805 17.067 23.007 30.41 30.592-15.904-7.721-28.154-18.771-35.588-33.081-15.513-29.859-7.361-68.712 18.907-107.573 26.24-38.819 70.405-77.3823 126.301-106.4231 55.897-29.0407 112.844-43.0077 159.684-42.161 8.69.1569 17.02.8223 24.92 1.9921-50.14-5.5841-115.248 8.0201-178.936 41.1088-112.065 58.223-177.297 154.7262-145.698 215.5452zm253.924 2.742c-63.684 33.088-128.792 46.693-178.936 41.109 7.905 1.169 16.234 1.835 24.921 1.992 46.847.846 103.791-13.121 159.685-42.161 55.9-29.041 100.06-67.604 126.3-106.423 26.27-38.861 34.42-77.7141 18.91-107.5731-7.43-14.30993-19.68-25.35992-35.59-33.0812 13.35 7.58454 23.76 17.78685 30.41 30.5918 31.6 60.8194-33.63 157.3225-145.7 215.5455zm-229.711 25.89c-13.344-7.584-23.758-17.787-30.411-30.591-31.598-60.82 33.633-157.3228 145.698-215.5458 63.688-33.0887 128.794-46.6929 178.944-41.1088-7.91-1.1697-16.24-1.8352-24.92-1.9922-46.85-.8466-103.795 13.1204-159.692 42.1611-55.896 29.0407-100.061 67.6041-126.3 106.4227-26.268 38.861-34.421 77.714-18.908 107.573 7.435 14.31 19.684 25.36 35.589 33.081zm44.578 13.259c50.144 5.584 115.252-8.02 178.943-41.109 112.06-58.223 177.29-154.7257 145.69-215.5451-6.65-12.805002-17.06-23.00731-30.41-30.5919 15.91 7.72133 28.16 18.77135 35.59 33.0813 15.52 29.859 7.36 68.7121-18.9 107.5727-26.24 38.819-70.41 77.382-126.31 106.423-55.892 29.041-112.836 43.008-159.683 42.161-8.687-.157-17.016-.822-24.92-1.992zm-81.187-45.81c6.653 12.805 17.068 23.007 30.411 30.592-15.904-7.722-28.154-18.772-35.589-33.081-15.513-29.859-7.36-68.713 18.908-107.574 26.24-38.8182 70.404-77.3816 126.301-106.42229 55.896-29.04071 112.839-43.00771 159.689-42.16111 8.69.1571 17.01.8224 24.92 1.9922-50.15-5.5841-115.253 8.0202-178.941 41.10886-112.066 58.22294-177.297 154.72534-145.699 215.54534zm253.93 2.742c-63.689 33.088-128.797 46.693-178.941 41.108 7.904 1.17 16.233 1.836 24.92 1.993 46.848.846 103.791-13.121 159.691-42.161 55.89-29.041 100.06-67.605 126.3-106.423 26.27-38.8612 34.42-77.7143 18.91-107.5733-7.44-14.3099211-19.69-25.3599-35.59-33.0813 13.34 7.5846 23.75 17.78692 30.41 30.5919 31.6 60.8194-33.64 157.3227-145.7 215.5457zm-229.717 25.89c-13.343-7.585-23.758-17.787-30.41-30.592-31.599-60.819 33.633-157.322 145.698-215.54494 63.688-33.08876 128.799-46.69306 178.939-41.10886-7.9-1.1698-16.23-1.8352-24.92-1.9922-46.85-.8466-103.79 13.1204-159.687 42.16111-55.896 29.04069-100.061 67.60409-126.301 106.42289-26.268 38.861-34.42 77.714-18.907 107.573 7.434 14.31 19.684 25.36 35.588 33.081zm44.578 13.259c50.144 5.584 115.252-8.02 178.939-41.109 112.07-58.223 177.3-154.7259 145.7-215.5453-6.65-12.805-17.07-23.0073-30.41-30.5919 15.9 7.7213 28.15 18.77135 35.59 33.0813 15.51 29.859 7.36 68.7121-18.91 107.5729-26.24 38.819-70.4 77.382-126.3 106.423-55.897 29.041-112.841 43.008-159.688 42.161-8.687-.157-17.016-.822-24.921-1.992zm-81.186-45.81c6.653 12.805 17.067 23.007 30.411 30.591-15.905-7.721-28.154-18.771-35.589-33.081-15.513-29.859-7.361-68.712 18.908-107.573 26.239-38.8184 70.404-77.3818 126.3-106.4225 55.897-29.0407 112.845-43.0077 159.685-42.1611 8.69.157 17.02.8224 24.92 1.9922-50.14-5.5842-115.249 8.0201-178.937 41.10883-112.065 58.22297-177.296 154.72557-145.698 215.54557zm253.925 2.741c-63.684 33.089-128.792 46.693-178.936 41.109 7.904 1.17 16.233 1.835 24.92 1.992 46.847.847 103.791-13.12 159.686-42.161 55.9-29.04 100.06-67.604 126.3-106.423 26.27-38.8604 34.42-77.7135 18.91-107.5725-7.43-14.30992-19.68-25.3599-35.59-33.0812 13.34 7.5845 23.76 17.78683 30.41 30.5918 31.6 60.8194-33.63 157.3219-145.7 215.5449zm-229.712 25.891c-13.343-7.585-23.758-17.787-30.411-30.592-31.598-60.819 33.633-157.3222 145.699-215.54517 63.688-33.08873 128.794-46.69293 178.944-41.10883-7.91-1.1698-16.24-1.8352-24.92-1.9922-46.85-.8466-103.796 13.1204-159.692 42.16109-55.897 29.04071-100.062 67.60411-126.301 106.42311-26.268 38.861-34.421 77.714-18.908 107.573 7.435 14.31 19.685 25.36 35.589 33.081z" fill="url(#c)"/><path d="m894.333 284.875c52.129 17.96 132.887 6.8 211.487-34.035 112.07-58.223 177.3-154.7261 145.7-215.5455-10.3-19.8188-29.61-33.40288-54.84-40.69641-2.02-.69709-4.09-1.35031-6.19-1.95963-2.03-.69709-4.09-1.35028-6.2-1.9596-2.03-.69706-4.09-1.35026-6.2-1.95956-2.02-.6971-4.09-1.3504-6.2-1.9597-2.02-.6971-4.09-1.3502-6.19-1.9595-2.03-.6971-4.09-1.3504-6.2-1.9597-52.13-17.9593-132.89-6.7995-211.491 34.0357-112.065 58.2229-177.296 154.7259-145.698 215.5449 10.297 19.819 29.605 33.403 54.836 40.697 2.024.697 4.09 1.35 6.198 1.959 2.023.698 4.09 1.351 6.197 1.96 2.024.697 4.09 1.35 6.198 1.96 2.024.697 4.09 1.35 6.198 1.959 2.023.697 4.09 1.351 6.197 1.96 2.024.697 4.09 1.35 6.198 1.959zm-47.619-39.266c-15.513-29.859-7.36-68.712 18.908-107.573 26.24-38.819 70.404-77.3823 126.301-106.423 55.897-29.04077 112.837-43.0078 159.687-42.1611 8.52.1539 16.69.79666 24.46 1.92436 13.7 7.55402 24.34 17.81451 31.05 30.73084 15.51 29.859 7.36 68.7121-18.91 107.5729-26.24 38.819-70.41 77.382-126.3 106.423-55.9 29.041-112.843 43.008-159.69 42.161-8.518-.154-16.692-.797-24.458-1.924-13.703-7.554-24.337-17.815-31.048-30.731zm27.871 30.239c-12.615-7.487-22.492-17.395-28.89-29.709-31.599-60.82 33.633-157.3228 145.698-215.5457 63.687-33.08872 128.797-46.693 178.937-41.1089-7.9-1.1698-16.23-1.8351-24.92-1.9921-46.84-.8467-103.79 13.12033-159.685 42.1611-55.896 29.0407-100.061 67.604-126.301 106.4226-26.268 38.861-34.42 77.714-18.907 107.573 7.136 13.736 18.709 24.468 33.692 32.136.126.021.251.042.376.063zm46.098 14.141c50.144 5.584 115.257-8.02 178.937-41.109 112.07-58.223 177.3-154.7257 145.7-215.5451-6.65-12.8049-17.07-23.0072-30.41-30.59182 15.91 7.72132 28.16 18.77132 35.59 33.08122 15.51 29.859 7.36 68.7117-18.91 107.5727-26.24 38.819-70.4 77.382-126.3 106.423s-112.839 43.008-159.686 42.161c-8.687-.157-17.016-.822-24.921-1.992zm258.557-298.12076c12.62 7.486934 22.5 17.39445 28.9 29.70906 31.59 60.8194-33.64 157.3227-145.7 215.5457-63.691 33.088-128.799 46.692-178.943 41.108 7.905 1.17 16.234 1.836 24.921 1.993 46.847.846 103.792-13.121 159.692-42.161 55.89-29.041 100.06-67.605 126.3-106.423 26.26-38.8611 34.42-77.7143 18.9-107.5733-7.13-13.7359-18.71-24.468221-33.69-32.13607-.12-.02094-.25-.04171-.38-.06239zm-339.743 252.31076c6.653 12.805 17.067 23.007 30.411 30.592-15.905-7.722-28.154-18.772-35.589-33.081-15.513-29.859-7.36-68.713 18.908-107.573 26.239-38.8192 70.404-77.3825 126.301-106.4232 55.892-29.04077 112.842-43.0078 159.692-42.1611 8.68.157 17.01.8224 24.92 1.9922-50.15-5.5842-115.26 8.02006-178.945 41.1088-112.065 58.2229-177.296 154.7263-145.698 215.5453zm253.933 2.742c-63.69 33.088-128.8 46.693-178.945 41.108 7.905 1.17 16.234 1.836 24.921 1.993 46.847.846 103.794-13.121 159.684-42.161 55.9-29.041 100.06-67.605 126.3-106.423 26.27-38.861 34.43-77.7143 18.91-107.5733-7.43-14.3099-19.68-25.35989-35.59-33.081215 13.35 7.584585 23.76 17.786915 30.41 30.591915 31.6 60.8193-33.63 157.3226-145.69 215.5456zm-229.72 25.89c-13.343-7.584-23.758-17.787-30.411-30.592-31.598-60.819 33.633-157.322 145.699-215.5449 63.692-33.08874 128.792-46.693 178.942-41.1088-7.91-1.1698-16.24-1.8352-24.92-1.9922-46.85-.8467-103.79 13.12032-159.69 42.161-55.897 29.0408-100.061 67.6041-126.301 106.4229-26.268 38.861-34.421 77.714-18.908 107.573 7.435 14.31 19.685 25.36 35.589 33.081zm44.578 13.259c50.144 5.584 115.252-8.02 178.942-41.109 112.06-58.223 177.29-154.7259 145.7-215.5453-6.66-12.8049-17.07-23.00728-30.41-30.59186 15.9 7.72132 28.15 18.77136 35.58 33.08126 15.52 29.859 7.36 68.7119-18.9 107.5729-26.24 38.819-70.41 77.382-126.3 106.423-55.9 29.041-112.844 43.008-159.692 42.161-8.686-.157-17.015-.822-24.92-1.992zm-81.186-45.81c6.653 12.805 17.067 23.007 30.41 30.592-15.904-7.722-28.154-18.772-35.588-33.082-15.513-29.859-7.361-68.712 18.907-107.573 26.24-38.8184 70.405-77.3817 126.301-106.4225 55.898-29.04069 112.838-43.0077 159.688-42.161 8.69.157 17.02.8224 24.92 1.9922-50.14-5.5841-115.25 8.02009-178.94 41.1088-112.065 58.223-177.297 154.7255-145.698 215.5455zm253.928 2.741c-63.69 33.089-128.796 46.693-178.94 41.109 7.905 1.17 16.234 1.835 24.921 1.992 46.847.847 103.789-13.12 159.689-42.161 55.89-29.04 100.06-67.604 126.3-106.422 26.27-38.8613 34.42-77.7145 18.91-107.5735-7.44-14.3099-19.69-25.35987-35.59-33.0812 13.34 7.58457 23.76 17.7869 30.41 30.5918 31.6 60.8194-33.63 157.3219-145.7 215.5449zm-229.715 25.891c-13.344-7.585-23.758-17.787-30.411-30.592-31.598-60.819 33.633-157.3221 145.698-215.5451 63.688-33.0887 128.798-46.693 178.938-41.1089-7.9-1.1697-16.23-1.8351-24.92-1.9921-46.85-.8467-103.79 13.12031-159.685 42.161-55.897 29.0408-100.062 67.6041-126.301 106.4231-26.268 38.861-34.421 77.714-18.908 107.573 7.435 14.31 19.684 25.36 35.589 33.081zm44.577 13.259c50.145 5.584 115.248-8.02 178.938-41.109 112.07-58.223 177.3-154.7261 145.7-215.5455-6.65-12.805-17.07-23.00728-30.41-30.59186 15.9 7.72133 28.15 18.77136 35.59 33.08126 15.51 29.859 7.36 68.7122-18.91 107.5731-26.24 38.819-70.4 77.382-126.3 106.423-55.9 29.04-112.84 43.007-159.687 42.161-8.687-.157-17.016-.823-24.921-1.992zm-81.186-45.81c6.653 12.804 17.068 23.007 30.411 30.591-15.904-7.721-28.154-18.771-35.589-33.081-15.513-29.859-7.36-68.712 18.908-107.573 26.24-38.8186 70.404-77.3819 126.301-106.4227 55.893-29.04069 112.843-43.0077 159.683-42.161 8.69.157 17.02.8223 24.93 1.9921-50.15-5.5841-115.26 8.0201-178.945 41.1089-112.066 58.2229-177.297 154.7257-145.699 215.5457zm253.934 2.741c-63.69 33.089-128.801 46.693-178.945 41.109 7.905 1.17 16.234 1.835 24.92 1.992 46.848.847 103.795-13.12 159.685-42.161 55.9-29.041 100.06-67.604 126.3-106.423 26.27-38.8605 34.42-77.7137 18.91-107.5727-7.43-14.3099-19.68-25.359887-35.59-33.08122 13.35 7.584597 23.76 17.78692 30.41 30.59182 31.6 60.8194-33.63 157.3221-145.69 215.5451zm-229.721 25.891c-13.343-7.585-23.758-17.787-30.41-30.592-31.599-60.819 33.633-157.3224 145.698-215.5453 63.693-33.0888 128.793-46.693 178.943-41.1089-7.91-1.1697-16.24-1.8352-24.92-1.9921-46.85-.8467-103.79 13.1203-159.691 42.161-55.896 29.0408-100.061 67.6041-126.301 106.4223-26.268 38.861-34.42 77.715-18.907 107.574 7.434 14.31 19.684 25.359 35.588 33.081z" fill="url(#c)"/><path d="m943.915 300.552c52.128 17.96 132.885 6.8 211.485-34.035 112.07-58.223 177.3-154.726 145.7-215.5456-10.3-19.8189-29.6-33.403-54.84-40.6965-2.02-.6971-4.09-1.35029-6.19-1.95961-2.03-.69709-4.09-1.3503-6.2-1.95962-2.02-.69705-4.09-1.35027-6.2-1.95955-2.02-.6971-4.09-1.35035-6.2-1.95967-2.02-.69707-4.09-1.35023-6.19-1.959533-2.03-.6971-4.09-1.350354-6.2-1.959657-52.13-17.95926-132.89-6.79957-211.489 34.03564-112.066 58.223-177.297 154.7261-145.699 215.5451 10.297 19.819 29.605 33.403 54.836 40.697 2.024.697 4.09 1.35 6.198 1.959 2.024.697 4.09 1.351 6.198 1.96 2.023.697 4.09 1.35 6.198 1.959 2.023.698 4.09 1.351 6.197 1.96 2.024.697 4.09 1.35 6.198 1.96 2.023.697 4.09 1.35 6.198 1.959zm-47.619-39.266c-15.513-29.859-7.361-68.713 18.907-107.573 26.24-38.819 70.405-77.3825 126.297-106.4232 55.9-29.0407 112.84-43.00772 159.69-42.16105 8.52.15395 16.69.79664 24.46 1.92434 13.7 7.55401 24.34 17.81451 31.05 30.73081 15.51 29.859 7.36 68.7121-18.91 107.5731-26.24 38.819-70.4 77.382-126.3 106.423-55.9 29.04-112.841 43.007-159.689 42.161-8.517-.154-16.691-.797-24.458-1.925-13.703-7.554-24.337-17.814-31.047-30.73zm27.871 30.238c-12.616-7.487-22.493-17.394-28.891-29.709-31.598-60.819 33.633-157.322 145.694-215.5449 63.69-33.0887 128.8-46.692931 178.94-41.10881-7.9-1.16979-16.23-1.83513-24.92-1.99214-46.84-.84667-103.79 13.12035-159.68 42.16105-55.9 29.0407-100.065 67.6038-126.304 106.4228-26.268 38.861-34.421 77.714-18.908 107.573 7.137 13.736 18.71 24.468 33.693 32.136.125.021.25.042.376.062zm46.097 14.142c50.146 5.584 115.256-8.02 178.936-41.109 112.07-58.223 177.3-154.726 145.7-215.5452-6.65-12.805-17.06-23.0073-30.41-30.5919 15.91 7.7213 28.16 18.7713 35.59 33.0812 15.51 29.859 7.36 68.7119-18.91 107.5729-26.24 38.819-70.4 77.382-126.3 106.423-55.89 29.041-112.84 43.008-159.685 42.161-8.687-.157-17.016-.822-24.921-1.992zm258.566-298.12096c12.61 7.48696 22.49 17.39446 28.89 29.70916 31.6 60.8193-33.64 157.3218-145.7 215.5448-63.69 33.089-128.797 46.693-178.942 41.109 7.905 1.17 16.234 1.835 24.921 1.992 46.851.847 103.791-13.12 159.691-42.161 55.89-29.04 100.06-67.604 126.3-106.422 26.27-38.861 34.42-77.7145 18.91-107.5735-7.14-13.7359-18.71-24.4682-33.7-32.13603-.12-.02094-.25-.04175-.37-.06243zm-339.751 252.31096c6.652 12.805 17.067 23.007 30.41 30.592-15.904-7.722-28.154-18.772-35.588-33.082-15.514-29.859-7.361-68.712 18.907-107.573 26.24-38.818 70.404-77.3817 126.302-106.4224 55.9-29.0407 112.84-43.00773 159.69-42.16107 8.68.15696 17.01.82235 24.92 1.99213-50.15-5.58411-115.26 8.02014-178.94 41.10884-112.068 58.2225-177.3 154.7255-145.701 215.5455zm253.931 2.741c-63.69 33.089-128.8 46.693-178.943 41.109 7.904 1.17 16.234 1.835 24.92 1.992 46.843.847 103.793-13.12 159.693-42.161 55.89-29.04 100.06-67.604 126.3-106.422 26.26-38.861 34.42-77.7145 18.9-107.5735-7.43-14.3099-19.68-25.3599-35.59-33.0812 13.35 7.5846 23.76 17.7869 30.42 30.5919 31.59 60.8198-33.64 157.3218-145.7 215.5448zm-229.718 25.891c-13.344-7.585-23.758-17.787-30.411-30.592-31.599-60.819 33.633-157.322 145.699-215.5451 63.69-33.0887 128.8-46.69295 178.94-41.10882-7.91-1.1697863-16.23-1.835179-24.92-1.992182-46.85-.846658-103.79 13.120302-159.69 42.161102-55.895 29.0407-100.06 67.604-126.3 106.423-26.268 38.861-34.42 77.714-18.907 107.573 7.434 14.31 19.684 25.36 35.589 33.081zm44.577 13.259c50.141 5.584 115.251-8.021 178.941-41.109 112.06-58.223 177.3-154.726 145.7-215.5454-6.65-12.805-17.07-23.0074-30.41-30.5919 15.9 7.7213 28.15 18.7713 35.59 33.0812 15.51 29.859 7.36 68.7121-18.91 107.5731-26.24 38.819-70.41 77.382-126.3 106.423-55.9 29.041-112.84 43.007-159.69 42.161-8.687-.157-17.016-.823-24.921-1.992zm-81.186-45.81c6.653 12.805 17.067 23.007 30.411 30.591-15.904-7.721-28.154-18.771-35.589-33.081-15.513-29.859-7.36-68.712 18.908-107.573 26.239-38.819 70.404-77.3819 126.297-106.4226 55.9-29.0408 112.84-43.00776 159.69-42.1611 8.69.15701 17.02.82239 24.92 1.992175-50.14-5.584115-115.25 8.020135-178.94 41.108825-112.064 58.223-177.295 154.7257-145.697 215.5457zm253.927 2.741c-63.69 33.089-128.79 46.693-178.939 41.109 7.905 1.17 16.234 1.835 24.921 1.992 46.848.847 103.788-13.12 159.688-42.161s100.06-67.604 126.3-106.423c26.27-38.86 34.42-77.7137 18.91-107.5727-7.44-14.3099-19.69-25.3598-35.59-33.0812 13.34 7.5846 23.76 17.7869 30.41 30.5919 31.6 60.819-33.63 157.322-145.7 215.545zm-229.714 25.891c-13.343-7.585-23.758-17.787-30.41-30.592-31.599-60.819 33.633-157.3223 145.694-215.5453 63.69-33.08871 128.8-46.69299 178.94-41.10884-7.9-1.16978-16.23-1.83516-24.92-1.99216-46.84-.84666-103.79 13.12035-159.68 42.1611-55.901 29.0407-100.065 67.6042-126.305 106.4232-26.268 38.86-34.421 77.714-18.907 107.573 7.434 14.309 19.684 25.359 35.588 33.081zm44.578 13.258c50.144 5.585 115.256-8.02 178.936-41.108 112.07-58.223 177.3-154.726 145.7-215.5456-6.65-12.805-17.06-23.0073-30.41-30.5919 15.91 7.7213 28.16 18.7713 35.59 33.0812 15.51 29.859 7.36 68.7123-18.91 107.5733-26.24 38.818-70.4 77.382-126.3 106.423-55.89 29.04-112.84 43.007-159.686 42.161-8.686-.157-17.016-.823-24.92-1.993zm-81.186-45.81c6.653 12.805 17.067 23.008 30.41 30.592-15.904-7.721-28.154-18.771-35.588-33.081-15.513-29.859-7.361-68.712 18.907-107.573 26.24-38.819 70.405-77.3821 126.303-106.4228 55.89-29.04076 112.84-43.00775 159.69-42.16109 8.68.157 17.01.82237 24.92 1.99214-50.15-5.58415-115.26 8.02011-178.94 41.10885-112.069 58.223-177.301 154.7259-145.702 215.5449zm253.932 2.742c-63.69 33.089-128.799 46.693-178.944 41.109 7.905 1.17 16.234 1.835 24.921 1.992 46.843.847 103.793-13.12 159.683-42.161 55.9-29.041 100.07-67.604 126.31-106.423 26.26-38.861 34.42-77.7139 18.9-107.5729-7.43-14.3099-19.68-25.3599-35.59-33.08121 13.35 7.58461 23.76 17.78691 30.41 30.59191 31.6 60.8192-33.63 157.3222-145.69 215.5452zm-229.719 25.891c-13.344-7.585-23.758-17.787-30.411-30.592-31.598-60.82 33.633-157.3225 145.7-215.5455 63.69-33.08872 128.79-46.6929 178.94-41.10882-7.91-1.16978-16.23-1.8352-24.92-1.9922-46.85-.84665-103.79 13.12035-159.689 42.16112-55.897 29.0407-100.062 67.6044-126.301 106.4224-26.268 38.861-34.421 77.714-18.908 107.573 7.435 14.31 19.684 25.36 35.589 33.082z" fill="url(#c)"/><path d="m993.496 316.229c52.124 17.959 132.894 6.8 211.484-34.036 112.07-58.222 177.3-154.725 145.7-215.5448-10.29-19.8188-29.6-33.4029-54.83-40.6965-2.03-.6971-4.09-1.3503-6.2-1.9596-2.02-.6971-4.09-1.3503-6.2-1.9596-2.02-.697-4.09-1.3503-6.2-1.9595-2.02-.6971-4.09-1.3504-6.19-1.9597-2.03-.6971-4.09-1.3503-6.2-1.9596-2.03-.6971-4.09-1.3503-6.2-1.9596-52.13-17.95931-132.89-6.79958-211.49 34.0356-112.063 58.2233-177.295 154.7263-145.696 215.5453 10.297 19.819 29.605 33.403 54.836 40.696 2.023.698 4.09 1.351 6.198 1.96 2.023.697 4.089 1.35 6.197 1.96 2.024.697 4.09 1.35 6.198 1.959 2.023.697 4.09 1.351 6.198 1.96 2.023.697 4.09 1.35 6.197 1.959 2.024.698 4.09 1.351 6.198 1.96zm-47.619-39.267c-15.513-29.859-7.36-68.712 18.908-107.573 26.239-38.818 70.405-77.3817 126.305-106.4224 55.89-29.0407 112.84-43.0077 159.68-42.161 8.52.1539 16.69.7966 24.46 1.9243 13.7 7.554 24.34 17.8145 31.05 30.7308 15.51 29.859 7.36 68.7123-18.91 107.5733-26.24 38.818-70.4 77.382-126.3 106.423-55.9 29.04-112.84 43.007-159.69 42.161-8.515-.154-16.689-.797-24.456-1.925-13.703-7.554-24.336-17.814-31.047-30.731zm27.871 30.239c-12.615-7.487-22.492-17.394-28.89-29.709-31.599-60.819 33.633-157.322 145.702-215.5451 63.68-33.0887 128.79-46.6929 178.94-41.1088-7.91-1.1698-16.24-1.8351-24.92-1.9921-46.85-.8467-103.8 13.1203-159.69 42.161-55.9 29.0408-100.063 67.604-126.303 106.423-26.268 38.861-34.421 77.714-18.907 107.573 7.136 13.736 18.709 24.468 33.692 32.136.125.021.251.042.376.062zm46.102 14.142c50.14 5.584 115.25-8.02 178.94-41.109 112.06-58.223 177.29-154.726 145.69-215.5454-6.65-12.805-17.06-23.0073-30.41-30.5919 15.91 7.7214 28.16 18.7714 35.59 33.0813 15.52 29.859 7.36 68.712-18.91 107.573-26.23 38.819-70.4 77.382-126.3 106.423-55.89 29.041-112.84 43.008-159.68 42.161-8.69-.157-17.02-.823-24.92-1.992zm258.56-298.1211c12.61 7.4869 22.49 17.3944 28.89 29.7091 31.6 60.819-33.63 157.322-145.7 215.545-63.69 33.089-128.8 46.693-178.94 41.109 7.905 1.17 16.234 1.835 24.92 1.992 46.85.847 103.79-13.12 159.69-42.161 55.89-29.041 100.06-67.604 126.3-106.423 26.27-38.86 34.42-77.7136 18.91-107.5726-7.14-13.736-18.71-24.4683-33.7-32.1361-.12-.0209-.25-.0417-.37-.0624zm-339.75 252.3111c6.653 12.805 17.067 23.007 30.411 30.591-15.905-7.721-28.154-18.771-35.589-33.081-15.513-29.859-7.361-68.712 18.908-107.573 26.239-38.818 70.4-77.3818 126.3-106.4226 55.9-29.0407 112.84-43.0077 159.69-42.161 8.68.1569 17.01.8223 24.92 1.9921-50.15-5.5841-115.25 8.0201-178.94 41.1088-112.067 58.2227-177.298 154.7257-145.7 215.5457zm253.93 2.741c-63.69 33.089-128.8 46.693-178.94 41.109 7.9 1.17 16.23 1.835 24.92 1.992 46.85.847 103.79-13.12 159.69-42.161 55.89-29.041 100.06-67.604 126.3-106.423 26.27-38.86 34.42-77.7136 18.9-107.5726-7.43-14.3099-19.68-25.36-35.58-33.0813 13.34 7.5846 23.75 17.7869 30.41 30.5919 31.6 60.819-33.64 157.322-145.7 215.545zm-229.717 25.891c-13.343-7.585-23.758-17.787-30.411-30.592-31.598-60.819 33.633-157.322 145.698-215.5453 63.69-33.0887 128.8-46.6929 178.94-41.1088-7.9-1.1698-16.23-1.8351-24.92-1.9921-46.85-.8467-103.79 13.1203-159.69 42.161-55.89 29.0407-100.059 67.6042-126.298 106.4232-26.268 38.86-34.421 77.714-18.908 107.573 7.435 14.31 19.685 25.36 35.589 33.081zm44.577 13.259c50.14 5.584 115.25-8.021 178.94-41.109 112.07-58.223 177.3-154.726 145.7-215.5456-6.65-12.805-17.07-23.0073-30.41-30.5919 15.9 7.7213 28.15 18.7714 35.59 33.0813 15.51 29.859 7.36 68.7122-18.91 107.5732-26.24 38.818-70.4 77.382-126.3 106.423-55.9 29.04-112.84 43.007-159.69 42.161-8.69-.157-17.01-.823-24.92-1.992zm-81.185-45.811c6.652 12.805 17.067 23.008 30.41 30.592-15.904-7.721-28.154-18.771-35.588-33.081-15.514-29.859-7.361-68.712 18.907-107.573 26.24-38.819 70.406-77.3821 126.306-106.4228 55.89-29.0407 112.84-43.0077 159.68-42.161 8.69.1569 17.02.8223 24.92 1.9921-50.14-5.5841-115.25 8.0201-178.94 41.1089-112.062 58.2228-177.294 154.7258-145.695 215.5448zm253.925 2.742c-63.68 33.089-128.79 46.693-178.94 41.109 7.91 1.17 16.24 1.835 24.92 1.992 46.85.847 103.79-13.12 159.69-42.161s100.06-67.604 126.3-106.423c26.27-38.861 34.42-77.7139 18.91-107.5728-7.44-14.3099-19.68-25.3599-35.59-33.0812 13.34 7.5845 23.76 17.7868 30.41 30.5918 31.6 60.8192-33.63 157.3222-145.7 215.5452zm-229.713 25.89c-13.343-7.584-23.757-17.786-30.41-30.591-31.598-60.82 33.633-157.322 145.703-215.5454 63.68-33.0888 128.79-46.69306 178.94-41.1089-7.91-1.1698-16.24-1.8351-24.92-1.9921-46.85-.8467-103.8 13.1203-159.69 42.161-55.9 29.0407-100.064 67.6044-126.304 106.4224-26.268 38.861-34.42 77.714-18.907 107.573 7.435 14.31 19.684 25.36 35.588 33.081zm44.578 13.259c50.145 5.584 115.255-8.02 178.945-41.109 112.06-58.223 177.29-154.725 145.69-215.5448-6.65-12.805-17.06-23.0073-30.41-30.5919 15.91 7.7213 28.16 18.7713 35.59 33.0812 15.51 29.859 7.36 68.7125-18.91 107.5735-26.24 38.818-70.4 77.382-126.3 106.422-55.89 29.041-112.84 43.008-159.68 42.161-8.69-.157-17.02-.822-24.925-1.992zm-81.186-45.81c6.653 12.805 17.067 23.007 30.411 30.592-15.905-7.721-28.154-18.771-35.589-33.081-15.513-29.859-7.36-68.712 18.908-107.573 26.239-38.819 70.404-77.3823 126.301-106.423 55.9-29.0407 112.84-43.00771 159.69-42.16106 8.68.157 17.01.82239 24.92 1.99216-50.15-5.58414-115.25 8.0201-178.94 41.1088-112.068 58.2231-177.299 154.7261-145.701 215.5451zm253.931 2.742c-63.69 33.088-128.8 46.693-178.942 41.109 7.904 1.169 16.232 1.835 24.922 1.992 46.85.847 103.79-13.12 159.69-42.161 55.89-29.041 100.06-67.604 126.3-106.423 26.26-38.861 34.42-77.7141 18.9-107.573-7.43-14.3099-19.68-25.36-35.58-33.0813 13.34 7.5846 23.75 17.7869 30.41 30.5919 31.59 60.8194-33.64 157.3224-145.7 215.5454zm-229.718 25.89c-13.343-7.584-23.758-17.786-30.41-30.591-31.599-60.82 33.633-157.323 145.698-215.5457 63.69-33.0887 128.8-46.69293 178.94-41.10882-7.9-1.16978-16.23-1.83514-24.92-1.99214-46.85-.84665-103.79 13.12036-159.69 42.16106-55.895 29.0407-100.059 67.6036-126.299 106.4226-26.268 38.861-34.421 77.714-18.907 107.573 7.434 14.31 19.684 25.36 35.588 33.081z" fill="url(#c)"/><path d="m1043.08 331.906c52.13 17.959 132.89 6.8 211.49-34.036 112.06-58.223 177.29-154.726 145.69-215.545-10.29-19.8188-29.6-33.4029-54.83-40.6964-2.03-.6971-4.09-1.3503-6.2-1.9597-2.02-.697-4.09-1.3502-6.2-1.9596-2.02-.697-4.09-1.3502-6.2-1.9595-2.02-.6971-4.09-1.3504-6.19-1.9597-2.03-.697-4.09-1.3502-6.2-1.9595-2.02-.6971-4.09-1.3504-6.2-1.9597-52.13-17.9593-132.89-6.7995-211.49 34.0357-112.062 58.2234-177.293 154.7254-145.695 215.5454 10.297 19.819 29.605 33.403 54.835 40.696 2.02.697 4.09 1.351 6.2 1.96 2.02.697 4.09 1.35 6.2 1.959 2.02.698 4.09 1.351 6.19 1.96 2.03.697 4.09 1.35 6.2 1.96 2.03.697 4.09 1.35 6.2 1.959 2.02.697 4.09 1.351 6.2 1.96zm-47.621-39.267c-15.513-29.859-7.361-68.712 18.911-107.573 26.24-38.818 70.4-77.382 126.3-106.4226 55.89-29.0407 112.84-43.0077 159.68-42.161 8.52.154 16.7.7966 24.46 1.9244 13.71 7.554 24.34 17.8144 31.05 30.7308 15.51 29.859 7.36 68.7124-18.91 107.5734-26.24 38.818-70.4 77.382-126.3 106.422-55.89 29.041-112.84 43.008-159.69 42.161-8.51-.153-16.69-.796-24.45-1.924-13.71-7.554-24.34-17.814-31.051-30.731zm27.871 30.239c-12.62-7.487-22.49-17.394-28.891-29.709-31.598-60.819 33.631-157.322 145.701-215.5452 63.69-33.0887 128.79-46.693 178.94-41.1089-7.91-1.1698-16.24-1.8351-24.92-1.9921-46.85-.8467-103.79 13.1203-159.69 42.161-55.9 29.0412-100.06 67.6042-126.3 106.4232-26.27 38.861-34.422 77.714-18.909 107.573 7.136 13.736 18.709 24.468 33.689 32.136.13.021.25.041.38.062zm46.1 14.142c50.14 5.584 115.25-8.021 178.94-41.109 112.06-58.223 177.29-154.726 145.7-215.5456-6.66-12.8049-17.07-23.0072-30.41-30.5918 15.9 7.7213 28.15 18.7713 35.58 33.0812 15.52 29.8592 7.36 68.7122-18.9 107.5732-26.24 38.819-70.41 77.382-126.3 106.423-55.9 29.04-112.84 43.007-159.69 42.161-8.69-.157-17.02-.823-24.92-1.992zm258.56-298.1213c12.61 7.4869 22.49 17.3945 28.89 29.7091 31.6 60.8192-33.63 157.3222-145.7 215.5452-63.69 33.089-128.79 46.693-178.94 41.109 7.91 1.17 16.24 1.835 24.92 1.992 46.85.847 103.79-13.12 159.69-42.161s100.06-67.604 126.3-106.423c26.27-38.861 34.42-77.714 18.91-107.5728-7.14-13.7359-18.71-24.4682-33.69-32.1361-.13-.0209-.26-.0417-.38-.0624zm-339.749 252.3103c6.653 12.805 17.069 23.008 30.409 30.592-15.9-7.721-28.152-18.771-35.587-33.081-15.513-29.859-7.36-68.712 18.907-107.573 26.24-38.819 70.41-77.382 126.3-106.4227 55.9-29.0408 112.84-43.0078 159.69-42.1611 8.69.157 17.02.8223 24.92 1.9921-50.14-5.5841-115.25 8.0202-178.94 41.1089-112.07 58.2228-177.297 154.7258-145.699 215.5448zm253.929 2.742c-63.69 33.089-128.8 46.693-178.94 41.109 7.9 1.17 16.23 1.835 24.92 1.992 46.85.847 103.79-13.12 159.69-42.161 55.89-29.041 100.06-67.604 126.3-106.423 26.27-38.861 34.42-77.714 18.91-107.5728-7.44-14.3099-19.69-25.3599-35.59-33.0812 13.34 7.5846 23.76 17.7869 30.41 30.5918 31.6 60.8192-33.63 157.3222-145.7 215.5452zm-229.72 25.891c-13.339-7.585-23.754-17.787-30.406-30.592-31.599-60.82 33.636-157.322 145.696-215.5454 63.69-33.0887 128.8-46.693 178.94-41.1089-7.9-1.1698-16.23-1.8351-24.92-1.9921-46.85-.8467-103.79 13.1203-159.69 42.161-55.89 29.0404-100.06 67.6044-126.297 106.4224-26.268 38.861-34.42 77.714-18.907 107.573 7.434 14.31 19.684 25.36 35.584 33.082zm44.58 13.258c50.15 5.584 115.25-8.02 178.94-41.109 112.07-58.222 177.3-154.725 145.7-215.5448-6.65-12.805-17.07-23.0073-30.41-30.5919 15.9 7.7214 28.15 18.7714 35.59 33.0813 15.51 29.8594 7.36 68.7124-18.91 107.5734-26.24 38.818-70.4 77.382-126.3 106.422-55.9 29.041-112.84 43.008-159.69 42.161-8.68-.157-17.01-.822-24.92-1.992zm-81.184-45.81c6.653 12.805 17.067 23.007 30.414 30.592-15.908-7.721-28.157-18.771-35.592-33.081-15.513-29.859-7.361-68.712 18.908-107.573 26.244-38.819 70.404-77.3822 126.304-106.423 55.89-29.0407 112.84-43.0077 159.68-42.161 8.69.157 17.02.8223 24.92 1.9921-50.14-5.5841-115.25 8.0202-178.94 41.1089-112.06 58.223-177.292 154.726-145.694 215.545zm253.924 2.742c-63.68 33.089-128.79 46.693-178.94 41.109 7.91 1.169 16.24 1.835 24.92 1.992 46.85.847 103.8-13.12 159.69-42.161 55.9-29.041 100.06-67.604 126.3-106.423 26.27-38.861 34.42-77.714 18.91-107.573-7.43-14.3099-19.68-25.3599-35.59-33.0812 13.35 7.5846 23.76 17.7869 30.41 30.5918 31.6 60.8194-33.63 157.3224-145.7 215.5454zm-229.71 25.89c-13.345-7.584-23.759-17.786-30.412-30.591-31.598-60.82 33.632-157.323 145.702-215.5456 63.68-33.0887 128.79-46.693 178.94-41.1089-7.91-1.1698-16.24-1.8351-24.92-1.9921-46.85-.8467-103.79 13.1203-159.69 42.161-55.9 29.0408-100.06 67.6046-126.302 106.4226-26.268 38.861-34.421 77.714-18.908 107.573 7.435 14.31 19.684 25.36 35.59 33.081zm44.58 13.259c50.14 5.584 115.25-8.02 178.94-41.109 112.06-58.223 177.29-154.726 145.7-215.545-6.66-12.805-17.07-23.0073-30.42-30.5918 15.91 7.7213 28.16 18.7713 35.59 33.0812 15.52 29.8586 7.36 68.7126-18.9 107.5726-26.24 38.819-70.41 77.383-126.31 106.423-55.89 29.041-112.84 43.008-159.68 42.161-8.69-.157-17.02-.822-24.92-1.992zm-81.189-45.81c6.652 12.805 17.067 23.007 30.41 30.592-15.904-7.722-28.154-18.771-35.588-33.081-15.513-29.859-7.361-68.712 18.907-107.573 26.24-38.819 70.4-77.3824 126.3-106.4232 55.9-29.0407 112.84-43.0077 159.69-42.161 8.69.157 17.01.8223 24.92 1.9921-50.14-5.5841-115.25 8.0201-178.94 41.1089-112.066 58.2232-177.298 154.7262-145.699 215.5452zm253.929 2.742c-63.69 33.088-128.8 46.693-178.94 41.109 7.9 1.169 16.23 1.835 24.92 1.992 46.85.846 103.79-13.121 159.69-42.161 55.89-29.041 100.06-67.604 126.3-106.423 26.27-38.861 34.42-77.714 18.91-107.5732-7.44-14.3099-19.69-25.3599-35.59-33.0812 13.34 7.5845 23.75 17.7869 30.41 30.5918 31.6 60.8196-33.64 157.3226-145.7 215.5456zm-229.716 25.89c-13.344-7.584-23.758-17.787-30.411-30.592-31.598-60.819 33.633-157.322 145.697-215.5448 63.69-33.0888 128.8-46.693 178.94-41.1089-7.9-1.1698-16.23-1.8351-24.92-1.9921-46.85-.8467-103.79 13.1203-159.69 42.161-55.89 29.0408-100.058 67.6038-126.297 106.4228-26.269 38.861-34.421 77.714-18.908 107.573 7.435 14.31 19.684 25.36 35.589 33.081z" fill="url(#c)"/></g></svg>