<svg fill="none" height="14" viewBox="0 0 14 14" width="14" xmlns="http://www.w3.org/2000/svg"><path d="m6.23915 1.34164c.23949-.737047 1.28221-.737048 1.5217 0l1.08016 3.32442c.1071.32962.41427.55279.76085.55279h3.49554c.7749 0 1.0972.99169.4702 1.44721l-2.8279 2.0546c-.2804.20372-.3977.56481-.2906.89443l1.0801 3.32441c.2395.7371-.6041 1.35-1.2311.8944l-2.82787-2.0546c-.28039-.2037-.66007-.2037-.94046 0l-2.82792 2.0546c-.62697.4556-1.47055-.1573-1.23107-.8944l1.08017-3.32441c.1071-.32962-.01023-.69071-.29062-.89443l-2.827919-2.0546c-.626971-.45552-.304751-1.44721.470228-1.44721h3.495501c.34658 0 .65375-.22317.76085-.55279z" fill="#fff"/></svg>