<?xml version="1.0" encoding="UTF-8"?>
<svg width="148px" height="48px" viewBox="0 0 148 48" version="1.1" xmlns="http://www.w3.org/2000/svg" xmlns:xlink="http://www.w3.org/1999/xlink">
    <!-- Generator: Sketch 61 (89581) - https://sketch.com -->
    <title>appstore</title>
    <desc>Created with Sketch.</desc>
    <g id="appstore" stroke="none" stroke-width="1" fill="none" fill-rule="evenodd">
        <g id="Group">
            <rect id="Rectangle" fill-rule="nonzero" x="0" y="0" width="148" height="48" rx="4"></rect>
            <path d="M57.875,31.26861 L53.1416,31.26861 L52.00488,34.62506 L50,34.62506 L54.4834,22.20706 L56.5664,22.20706 L61.0498,34.62506 L59.01073,34.62506 L57.875,31.26861 Z M53.63183,29.71978 L57.38383,29.71978 L55.53422,24.27251 L55.48246,24.27251 L53.63183,29.71978 Z M70.73242,30.09869 C70.73242,32.91217 69.22656,34.71978 66.9541,34.71978 C65.7794853,34.7812246 64.6730624,34.1659907 64.10547,33.13578 L64.06247,33.13578 L64.06247,37.62016 L62.20407,37.62016 L62.20407,25.57134 L64.00293,25.57134 L64.00293,27.0772 L64.03711,27.0772 C64.6299183,26.0534479 65.7375343,25.4384788 66.91992,25.47661 C69.21773,25.47662 70.73242,27.29302 70.73242,30.09869 Z M68.82226,30.09869 C68.82226,28.26569 67.87499,27.0606 66.42968,27.0606 C65.00976,27.0606 64.05468,28.29107 64.05468,30.09869 C64.05468,31.92291 65.00976,33.14459 66.42968,33.14459 C67.875,33.14459 68.82226,31.9483 68.82226,30.09869 Z M80.69726,30.09869 C80.69726,32.91217 79.1914,34.71978 76.91894,34.71978 C75.7443253,34.7812246 74.6379024,34.1659907 74.07031,33.13578 L74.02731,33.13578 L74.02731,37.62016 L72.16891,37.62016 L72.16891,25.57134 L73.96773,25.57134 L73.96773,27.0772 L74.00191,27.0772 C74.5947226,26.0534485 75.7023428,25.4384831 76.88473,25.47662 C79.18261,25.47662 80.69726,27.29302 80.69726,30.09869 Z M78.78711,30.09869 C78.78711,28.26569 77.83983,27.0606 76.39452,27.0606 C74.9746,27.0606 74.01952,28.29107 74.01952,30.09869 C74.01952,31.92291 74.9746,33.14459 76.39452,33.14459 C77.83984,33.14459 78.78711,31.9483 78.78711,30.09869 L78.78711,30.09869 Z M87.2832,31.16509 C87.4209,32.39654 88.6172,33.20509 90.25195,33.20509 C91.81836,33.20509 92.94531,32.3965 92.94531,31.28614 C92.94531,30.32227 92.26562,29.74514 90.65625,29.34962 L89.04688,28.96192 C86.76661,28.41114 85.70801,27.34473 85.70801,25.61426 C85.70801,23.47168 87.5752,22 90.22656,22 C92.85056,22 94.64941,23.47168 94.70996,25.61426 L92.83396,25.61426 C92.72166,24.375 91.69724,23.62696 90.20017,23.62696 C88.7031,23.62696 87.67869,24.3838 87.67869,25.48536 C87.67869,26.36329 88.33299,26.87989 89.93357,27.27536 L91.30173,27.6113 C93.84958,28.21384 94.90818,29.2373 94.90818,31.05368 C94.90818,33.37692 93.05759,34.832 90.11423,34.832 C87.36032,34.832 85.50095,33.4111 85.38083,31.165 L87.2832,31.16509 Z M98.91894,23.42876 L98.91894,25.57134 L100.64062,25.57134 L100.64062,27.04302 L98.91894,27.04302 L98.91894,32.03423 C98.91894,32.80962 99.26367,33.17095 100.0205,33.17095 C100.224891,33.1673859 100.428952,33.1530326 100.63183,33.12795 L100.63183,34.59084 C100.291558,34.6544196 99.9457008,34.6832145 99.5996,34.67678 C97.7666,34.67678 97.05175,33.9883 97.05175,32.23244 L97.05175,27.04302 L95.73535,27.04302 L95.73535,25.57134 L97.05173,25.57134 L97.05173,23.42876 L98.91894,23.42876 Z M101.63773,30.09869 C101.63773,27.25006 103.31546,25.46002 105.93168,25.46002 C108.55668,25.46002 110.2266,27.25002 110.2266,30.09869 C110.2266,32.95514 108.56547,34.73736 105.93168,34.73736 C103.29882,34.73736 101.63773,32.95513 101.63773,30.09869 Z M108.33304,30.09869 C108.33304,28.14459 107.43753,26.99127 105.93167,26.99127 C104.42581,26.99127 103.53128,28.15338 103.53128,30.09869 C103.53128,32.0606 104.42581,33.20514 105.93167,33.20514 C107.43753,33.20514 108.33304,32.0606 108.33304,30.09869 L108.33304,30.09869 Z M111.75878,25.57134 L113.53125,25.57134 L113.53125,27.11234 L113.57425,27.11234 C113.821426,26.1203284 114.730383,25.4375916 115.75198,25.4766 C115.966144,25.4758522 116.179717,25.4991107 116.3887,25.54594 L116.3887,27.28422 C116.118331,27.2016033 115.83629,27.1636713 115.5537,27.17192 C115.007348,27.1497554 114.478601,27.3674947 114.106291,27.767966 C113.733982,28.1684372 113.555307,28.7116307 113.61718,29.25492 L113.61718,34.62504 L111.75878,34.62504 L111.75878,25.57134 Z M124.95703,31.96587 C124.70703,33.60942 123.10644,34.73735 121.05859,34.73735 C118.4248,34.73735 116.79004,32.9727 116.79004,30.14165 C116.79004,27.30181 118.43359,25.46001 120.98047,25.46001 C123.48535,25.46001 125.06055,27.18071 125.06055,29.92583 L125.06055,30.56255 L118.66602,30.56255 L118.66602,30.67485 C118.606317,31.3488816 118.839062,32.0160794 119.30505,32.5067299 C119.771038,32.9973804 120.425357,33.2641933 121.10157,33.2393 C122.003412,33.3237996 122.853673,32.8059377 123.19239,31.96586 L124.95703,31.96587 Z M118.674792,29.26373 L123.20117,29.26373 C123.234895,28.6580575 123.014427,28.0657831 122.59288,27.6295915 C122.171334,27.1934 121.586931,26.9528404 120.98047,26.96587 C120.369212,26.9622222 119.781821,27.2028946 119.348856,27.6343932 C118.91589,28.0658919 118.673226,28.6524629 118.674792,29.26373 L118.674792,29.26373 Z" id="App-Store" fill="#01081E"></path>
            <path d="M52.15527,11.294 C52.9442166,11.2373842 53.7169723,11.5375474 54.2608413,12.1118718 C54.8047103,12.6861962 55.0623659,13.4741448 54.96289,14.25884 C54.96289,16.16509 53.93262,17.26084 52.15527,17.26084 L50,17.26084 L50,11.294 L52.15527,11.294 Z M50.92675,16.417 L52.05175,16.417 C52.6155719,16.450702 53.1645665,16.228559 53.5462985,15.8122518 C53.9280305,15.3959446 54.1018596,14.8297944 54.01952,14.271 C54.095869,13.7145245 53.9195366,13.1530462 53.5387511,12.740134 C53.1579656,12.3272217 52.6125757,12.1060863 52.05175,12.13721 L50.92675,12.13721 L50.92675,16.417 Z M56.00976,15.00734 C55.9325471,14.2002251 56.3195637,13.4191119 57.0084959,12.9915974 C57.6974282,12.5640828 58.5691618,12.5640828 59.2580941,12.9915974 C59.9470263,13.4191119 60.3340429,14.2002251 60.25683,15.00734 C60.3355119,15.8153223 59.9488487,16.5979504 59.2593055,17.0263853 C58.5697624,17.4548202 57.6968276,17.4548202 57.0072845,17.0263853 C56.3177413,16.5979504 55.9310781,15.8153223 56.00976,15.00734 Z M59.34277,15.00734 C59.34277,14.03127 58.90428,13.46047 58.13476,13.46047 C57.3623,13.46047 56.92776,14.03127 56.92776,15.00735 C56.92776,15.99124 57.36233,16.55764 58.13476,16.55764 C58.9043,16.55764 59.34277,15.98732 59.34277,15.00734 L59.34277,15.00734 Z M65.90234,17.26075 L64.98047,17.26075 L64.04981,13.94434 L63.9795,13.94434 L63.05274,17.26075 L62.13965,17.26075 L60.89844,12.75782 L61.79981,12.75782 L62.60645,16.19382 L62.67286,16.19382 L63.59864,12.75782 L64.45118,12.75782 L65.37696,16.19382 L65.44727,16.19382 L66.25,12.75782 L67.13867,12.75782 L65.90234,17.26075 Z M68.18261,12.75782 L69.03808,12.75782 L69.03808,13.47315 L69.10449,13.47315 C69.3354249,12.9464779 69.8750529,12.6243075 70.44824,12.6709 C70.8920568,12.6375318 71.3269659,12.8077899 71.6301708,13.1336021 C71.9333757,13.4594142 72.0719731,13.9054238 72.00683,14.3457 L72.00683,17.2607 L71.11816,17.2607 L71.11816,14.56886 C71.11816,13.84523 70.80371,13.48536 70.14648,13.48536 C69.8454458,13.4713391 69.5533002,13.5894826 69.3466346,13.8088168 C69.139969,14.028151 69.039395,14.326801 69.07128,14.62647 L69.07128,17.26075 L68.18261,17.26075 L68.18261,12.75782 Z M73.42285,11 L74.31152,11 L74.31152,17.26074 L73.42285,17.26074 L73.42285,11 Z M75.54687,15.00734 C75.4697164,14.2001722 75.856794,13.4190394 76.5457774,12.9915182 C77.2347608,12.563997 78.1065392,12.563997 78.7955226,12.9915182 C79.484506,13.4190394 79.8715836,14.2001722 79.79443,15.00734 C79.873012,15.8153512 79.4862779,16.5979572 78.7967005,17.0263732 C78.1071232,17.4547893 77.2341768,17.4547893 76.5445995,17.0263732 C75.8550221,16.5979572 75.468288,15.8153512 75.54687,15.00734 L75.54687,15.00734 Z M78.87988,15.00734 C78.87988,14.03127 78.44139,13.46047 77.67187,13.46047 C76.89941,13.46047 76.46487,14.03127 76.46487,15.00735 C76.46487,15.99124 76.89944,16.55764 77.67187,16.55764 C78.4414,16.55764 78.87988,15.98732 78.87988,15.00734 L78.87988,15.00734 Z M80.72998,15.98732 C80.72998,15.17677 81.3335,14.70949 82.40478,14.64308 L83.62451,14.57277 L83.62451,14.1841 C83.62451,13.70851 83.31006,13.43996 82.70264,13.43996 C82.20655,13.43996 81.8628,13.62209 81.76416,13.94045 L80.90381,13.94045 C80.99463,13.16701 81.72217,12.67092 82.74365,12.67092 C83.87256,12.67092 84.50928,13.23292 84.50928,14.1841 L84.50928,17.26076 L83.65381,17.26076 L83.65381,16.62795 L83.5835,16.62795 C83.2929486,17.0900763 82.7762536,17.3601632 82.23096,17.33495 C81.8486961,17.3747118 81.4674511,17.2509107 81.1814758,16.9941524 C80.8955005,16.7373942 80.7314861,16.3716433 80.72998,15.98732 L80.72998,15.98732 Z M83.62451,15.60255 L83.62451,15.22609 L82.5249,15.2964 C81.90478,15.3379 81.62353,15.54884 81.62353,15.94581 C81.62353,16.35108 81.97509,16.58692 82.45853,16.58692 C82.7447161,16.6158899 83.0304064,16.5274751 83.2502004,16.3419156 C83.4699944,16.1563561 83.6050716,15.8895411 83.62451,15.60255 Z M85.67724,15.00734 C85.67724,13.58449 86.40869,12.68312 87.54638,12.68312 C88.1208568,12.6566501 88.6589075,12.9644729 88.92724,13.47312 L88.99365,13.47312 L88.99365,11 L89.88232,11 L89.88232,17.26074 L89.03076,17.26074 L89.03076,16.54931 L88.96045,16.54931 C88.6718342,17.053737 88.1271545,17.3563565 87.54639,17.33495 C86.40088,17.335 85.67724,16.43361 85.67724,15.00734 Z M86.59524,15.00734 C86.59524,15.96242 87.04544,16.53713 87.79837,16.53713 C88.54737,16.53713 89.01028,15.95413 89.01028,15.01125 C89.01028,14.07277 88.54251,13.48146 87.79837,13.48146 C87.05029,13.48146 86.59521,14.06007 86.59521,15.00734 L86.59524,15.00734 Z M93.55908,15.00734 C93.4818671,14.2002251 93.8688837,13.4191119 94.5578159,12.9915974 C95.2467482,12.5640828 96.1184818,12.5640828 96.8074141,12.9915974 C97.4963463,13.4191119 97.8833629,14.2002251 97.80615,15.00734 C97.8848319,15.8153223 97.4981687,16.5979504 96.8086255,17.0263853 C96.1190824,17.4548202 95.2461476,17.4548202 94.5566045,17.0263853 C93.8670613,16.5979504 93.4803981,15.8153223 93.55908,15.00734 L93.55908,15.00734 Z M96.89208,15.00734 C96.89208,14.03127 96.4536,13.46047 95.68408,13.46047 C94.91162,13.46047 94.47708,14.03127 94.47708,15.00735 C94.47708,15.99124 94.91165,16.55764 95.68408,16.55764 C96.45361,16.55764 96.89208,15.98732 96.89208,15.00734 Z M98.99853,12.75782 L99.854,12.75782 L99.854,13.47315 L99.92041,13.47315 C100.151345,12.9464779 100.690973,12.6243075 101.26416,12.6709 C101.707977,12.6375318 102.142886,12.8077899 102.446091,13.1336021 C102.749296,13.4594142 102.887893,13.9054238 102.82275,14.3457 L102.82275,17.2607 L101.93408,17.2607 L101.93408,14.56886 C101.93408,13.84523 101.61963,13.48536 100.9624,13.48536 C100.661366,13.4713391 100.36922,13.5894826 100.162555,13.8088168 C99.955889,14.028151 99.855315,14.326801 99.8872,14.62647 L99.8872,17.26075 L98.99853,17.26075 L98.99853,12.75782 Z M107.84424,11.63673 L107.84424,12.77833 L108.81983,12.77833 L108.81983,13.52687 L107.84424,13.52687 L107.84424,15.8423 C107.84424,16.31398 108.03858,16.52052 108.48096,16.52052 C108.594216,16.5201575 108.707357,16.5133097 108.81983,16.50001 L108.81983,17.24024 C108.66024,17.2687907 108.498546,17.28398 108.33643,17.28565 C107.34815,17.28565 106.95459,16.93799 106.95459,16.06983 L106.95459,13.52683 L106.23975,13.52683 L106.23975,12.77829 L106.95459,12.77829 L106.95459,11.63673 L107.84424,11.63673 Z M110.03369,11 L110.91455,11 L110.91455,13.48145 L110.98486,13.48145 C111.226888,12.9501686 111.77596,12.6275875 112.35786,12.67481 C112.799157,12.6507973 113.228178,12.8248037 113.528069,13.1494339 C113.82796,13.474064 113.967485,13.9155056 113.90864,14.35352 L113.90864,17.26075 L113.01908,17.26075 L113.01908,14.57275 C113.01908,13.85351 112.68408,13.48925 112.05619,13.48925 C111.747019,13.4638937 111.442419,13.576291 111.223822,13.7963935 C111.005226,14.016496 110.894922,14.3218603 110.9224,14.63085 L110.9224,17.26075 L110.03373,17.26075 L110.03369,11 Z M119.09033,16.04493 C118.841137,16.8943095 118.019179,17.443103 117.13916,17.34766 C116.538724,17.3635102 115.961671,17.1146307 115.561108,16.6670552 C115.160545,16.2194796 114.976966,15.6184559 115.05908,15.02345 C114.979147,14.4267905 115.162038,13.8248037 115.560371,13.373447 C115.958703,12.9220902 116.533282,12.6657768 117.13525,12.67091 C118.38818,12.67091 119.14404,13.52691 119.14404,14.94091 L119.14404,15.251 L115.96435,15.251 L115.96435,15.3008 C115.936212,15.6349401 116.050331,15.9654478 116.278641,16.2110407 C116.506951,16.4566336 116.828268,16.5945239 117.16357,16.5908 C117.598342,16.6429947 118.021563,16.427333 118.23486,16.0449 L119.09033,16.04493 Z M115.96433,14.59376 L118.23874,14.59376 C118.261393,14.2881604 118.153938,13.9872051 117.942857,13.7650591 C117.731775,13.5429131 117.436697,13.4202362 117.13034,13.42726 C116.819832,13.4233589 116.520908,13.5450212 116.301376,13.7646489 C116.081845,13.9842765 115.960313,14.2832537 115.96435,14.59376 L115.96433,14.59376 Z" id="Download-on-the" fill="#01081E"></path>
            <path d="M35.7973126,24.58041 C35.8191696,22.8839391 36.7085555,21.3169161 38.1538726,20.42835 C37.2379452,19.1202428 35.7588246,18.3206084 34.1627126,18.27067 C32.4834726,18.09441 30.8555226,19.2755 29.9998126,19.2755 C29.1275426,19.2755 27.8100426,18.28817 26.3913126,18.31736 C24.5246338,18.3776684 22.8265697,19.4132555 21.9183926,21.04523 C19.9843926,24.39365 21.4269826,29.3147 23.2795926,32.02131 C24.2064926,33.34666 25.2897726,34.82711 26.7072226,34.77461 C28.0942826,34.71708 28.6123226,33.89013 30.2866226,33.89013 C31.9453826,33.89013 32.4314126,34.77461 33.8776226,34.74123 C35.3660026,34.71707 36.3037526,33.40999 37.1981326,32.07209 C37.8641087,31.1277297 38.3765762,30.0840059 38.7165526,28.97958 C36.9488091,28.2319113 35.7993758,26.4997643 35.7973126,24.58041 L35.7973126,24.58041 Z M33.0656826,16.49062 C33.8772092,15.5164119 34.2770175,14.2642325 34.1802026,13 C32.9403704,13.1302205 31.7951128,13.7227797 30.9726226,14.65961 C30.1604513,15.583919 29.7490072,16.7931627 29.8289126,18.021 C31.0853694,18.0339368 32.2783487,17.4698832 33.0656826,16.49062 L33.0656826,16.49062 Z" id="Icon" fill="#01081E"></path>
        </g>
    </g>
</svg>