<?xml version="1.0" encoding="UTF-8"?>
<svg width="13px" height="15px" viewBox="0 0 13 15" version="1.1" xmlns="http://www.w3.org/2000/svg" xmlns:xlink="http://www.w3.org/1999/xlink">
    <!-- Generator: Sketch 49.2 (51160) - http://www.bohemiancoding.com/sketch -->
    <title>apple black.1 copy 2</title>
    <desc>Created with Sketch.</desc>
    <defs></defs>
    <g id="账户中心" stroke="none" stroke-width="1" fill="none" fill-rule="evenodd">
        <g id="账号概览" transform="translate(-586.000000, -774.000000)" fill="#0B0B0A" fill-rule="nonzero">
            <g id="Group-19" transform="translate(303.000000, 600.000000)">
                <g id="Group-18" transform="translate(282.000000, 78.000000)">
                    <g id="apple-black.1-copy-2" transform="translate(1.000000, 96.000000)">
                        <path d="M8.61637939,2.43515594 C9.11273905,1.80365594 9.48901168,0.91108875 9.3529131,0 C8.54165856,0.055565 7.59341605,0.567115312 7.04012622,1.23389469 C6.53576078,1.83805312 6.12123834,2.73679438 6.28313337,3.60907562 C7.16999812,3.63641719 8.08532812,3.11251906 8.61637939,2.43515594 Z M13,11.0053878 C12.6450762,11.7850609 12.4742857,12.1334444 12.0170656,12.8240375 C11.37927,13.7880453 10.4799519,14.9884244 9.36447707,14.9972444 C8.37442624,15.0078281 8.11913034,14.3578062 6.77504544,14.3657444 C5.43096054,14.3728 5.15075727,15.0095922 4.15892766,14.9998903 C3.04434222,14.9901884 2.19216939,13.9071128 1.55437385,12.9431053 C-0.230030244,10.2495281 -0.417721708,7.08761781 0.682631268,5.40567563 C1.46542056,4.21147031 2.70009302,3.51293969 3.86004434,3.51293969 C5.04045512,3.51293969 5.78321551,4.15502344 6.76081266,4.15502344 C7.70905549,4.15502344 8.28636266,3.51117563 9.65179641,3.51117563 C10.685434,3.51117563 11.7804497,4.06947094 12.5596811,5.03259688 C10.0049411,6.42083844 10.4185741,10.0378522 13,11.0053878 Z" id="Apple"></path>
                    </g>
                </g>
            </g>
        </g>
    </g>
</svg>