<!-- Generated by IcoMoon.io -->
<svg version="1.1" xmlns="http://www.w3.org/2000/svg" width="32" height="32" viewBox="0 0 32 32">
<title>CagoIcon-13</title>
<path d="M13.867 12.8h-12.8v-12.8h12.8v12.8zM3.2 10.667h8.533v-8.533h-8.533v8.533z"></path>
<path d="M13.867 32h-12.8v-12.8h12.8v12.8zM3.2 29.867h8.533v-8.533h-8.533v8.533z"></path>
<path d="M30.933 12.8h-12.8v-12.8h12.8v12.8zM20.267 10.667h8.533v-8.533h-8.533v8.533z"></path>
<path d="M20.001 23.467h-1.868v-4.267h6.4v1.683h-4.532z"></path>
<path d="M30.933 23.467h-4.267v-1.954h2.628v-4.446h1.638z"></path>
<path d="M28.8 32h-2.133v-2.050h0.832v-4.35h1.301z"></path>
<path d="M24.533 32h-6.4v-4.675h1.545v2.678h3.31v-4.403h1.545z"></path>
</svg>
