<svg width="14" height="14" viewBox="0 0 14 14" fill="none" xmlns="http://www.w3.org/2000/svg">
<path fill-rule="evenodd" clip-rule="evenodd" d="M3.00005 0.300781C1.50888 0.300781 0.300049 1.50961 0.300049 3.00078V11.0008C0.300049 12.4918 1.50852 13.7008 2.9998 13.7008H5.00005C5.38665 13.7008 5.70005 13.3874 5.70005 13.0008C5.70005 12.6142 5.38665 12.3008 5.00005 12.3008H2.9998C2.28194 12.3008 1.70005 11.7189 1.70005 11.0008V3.00078C1.70005 2.28281 2.28208 1.70078 3.00005 1.70078H11C11.718 1.70078 12.3 2.28281 12.3 3.00078V5.00078C12.3 5.38738 12.6134 5.70078 13 5.70078C13.3866 5.70078 13.7 5.38738 13.7 5.00078V3.00078C13.7 1.50961 12.4912 0.300781 11 0.300781H3.00005ZM7.4949 6.50581C7.22153 6.23244 6.77832 6.23244 6.50495 6.50581L5.00495 8.00581C4.73159 8.27917 4.73159 8.72239 5.00495 8.99576L6.50495 10.4958C6.77832 10.7691 7.22153 10.7691 7.4949 10.4958C7.76827 10.2224 7.76827 9.77917 7.4949 9.50581L7.1891 9.2H10.8125C11.6149 9.2 12.3 9.87588 12.3 10.75C12.3 11.6241 11.6149 12.3 10.8125 12.3H9C8.6134 12.3 8.3 12.6134 8.3 13C8.3 13.3866 8.6134 13.7 9 13.7H10.8125C12.4251 13.7 13.7 12.3599 13.7 10.75C13.7 9.14012 12.4251 7.8 10.8125 7.8H7.19066L7.4949 7.49576C7.76827 7.22239 7.76827 6.77917 7.4949 6.50581Z" fill="#8C8C8C" fill-opacity="0.6"/>
</svg>
