<svg width="94" height="105" viewBox="0 0 94 105" fill="none" xmlns="http://www.w3.org/2000/svg">
<g clip-path="url(#clip0_25_7949)">
<ellipse cx="47.0006" cy="41.1264" rx="32.0006" ry="32" fill="#111721" fill-opacity="0.5"/>
<g filter="url(#filter0_d_25_7949)">
<path d="M16.1335 24.8032C15.8924 24.233 16.1596 23.5753 16.7301 23.3349L55.9234 6.81558C56.4929 6.57553 57.1492 6.84221 57.39 7.41145L78.2601 56.7672C78.5012 57.3374 78.234 57.995 77.6636 58.2355L38.4702 74.7548C37.9007 74.9948 37.2444 74.7282 37.0037 74.1589L16.1335 24.8032Z" fill="#282F3A"/>
</g>
<path fill-rule="evenodd" clip-rule="evenodd" d="M49.2455 26.135L54.0083 28.0345L55.2484 25.0588C55.4739 24.5178 56.0528 24.271 56.535 24.5103C57.0814 24.7223 57.3489 25.3497 57.1235 25.8908L55.5344 29.8308C55.3089 30.3719 54.73 30.6187 54.1835 30.4068L48.4832 28.0913L49.4997 30.4757C49.7137 30.9776 49.4506 31.6088 48.936 31.8282C48.4214 32.0476 47.7838 31.8004 47.5698 31.2984L44.3598 23.7689C44.1458 23.2669 44.4089 22.6357 44.9235 22.4163C45.4381 22.1969 46.0757 22.4442 46.2897 22.9461L47.3062 25.3305L49.5825 19.6144C49.8079 19.0734 50.3869 18.8266 50.9333 19.0385L54.8764 20.6201C55.4229 20.832 55.6904 21.4595 55.4649 22.0005C55.2395 22.5415 54.6605 22.7883 54.1784 22.549L51.1461 21.3206L49.2455 26.135ZM52.1893 23.7677C52.704 23.5483 53.3415 23.7956 53.5555 24.2976C53.7695 24.7995 53.5065 25.4307 52.9918 25.6501C52.4772 25.8695 51.8397 25.6223 51.6257 25.1203C51.4117 24.6183 51.6747 23.9871 52.1893 23.7677Z" fill="#01BC8D"/>
<rect width="15.9967" height="3.2" transform="matrix(0.921244 -0.388985 -0.387725 -0.921775 26.6587 33.284)" fill="#181E29"/>
<rect width="15.9967" height="3.2" transform="matrix(0.921244 -0.388985 -0.387725 -0.921775 29.7715 40.6539)" fill="#181E29"/>
<rect width="31.9923" height="3.2" transform="matrix(0.921244 -0.388985 -0.386679 -0.922214 32.8838 48.0244)" fill="#181E29"/>
<rect width="31.9923" height="3.2" transform="matrix(0.921244 -0.388985 -0.386679 -0.922214 35.9966 55.3939)" fill="#181E29"/>
<rect width="31.9923" height="3.2" transform="matrix(0.921244 -0.388985 -0.386679 -0.922214 39.106 62.7639)" fill="#181E29"/>
</g>
<path d="M8.048 100.5H6.86L2.912 94.488V100.5H1.616V91.956H2.804L6.752 97.956V91.956H8.048V100.5ZM14.9202 97.452C14.9202 98.012 14.8682 98.48 14.7642 98.856C14.6602 99.232 14.4722 99.564 14.2002 99.852C13.7362 100.332 13.1282 100.572 12.3762 100.572C11.6322 100.572 11.0282 100.332 10.5642 99.852C10.2922 99.564 10.1042 99.232 10.0002 98.856C9.89616 98.48 9.84416 98.012 9.84416 97.452C9.84416 96.9 9.89616 96.436 10.0002 96.06C10.1042 95.676 10.2922 95.344 10.5642 95.064C11.0282 94.584 11.6322 94.344 12.3762 94.344C13.1282 94.344 13.7362 94.584 14.2002 95.064C14.4722 95.344 14.6602 95.676 14.7642 96.06C14.8682 96.436 14.9202 96.9 14.9202 97.452ZM13.2762 99.12C13.5562 98.84 13.6962 98.284 13.6962 97.452C13.6962 96.62 13.5562 96.064 13.2762 95.784C13.0442 95.552 12.7442 95.436 12.3762 95.436C12.0162 95.436 11.7202 95.552 11.4882 95.784C11.2082 96.064 11.0682 96.62 11.0682 97.452C11.0682 98.284 11.2082 98.84 11.4882 99.12C11.7282 99.36 12.0242 99.48 12.3762 99.48C12.7362 99.48 13.0362 99.36 13.2762 99.12ZM22.8083 95.844C22.5363 95.572 22.2323 95.436 21.8963 95.436C21.5523 95.436 21.2643 95.564 21.0323 95.82C20.8003 96.068 20.6843 96.396 20.6843 96.804V100.5H19.4603V94.416H20.6603V95.076C20.8203 94.86 21.0443 94.684 21.3323 94.548C21.6283 94.412 21.9443 94.344 22.2803 94.344C22.8643 94.344 23.3483 94.536 23.7323 94.92L22.8083 95.844ZM29.2184 97.812H25.2704C25.2704 98.348 25.4024 98.768 25.6664 99.072C25.9384 99.368 26.3224 99.516 26.8184 99.516C27.1464 99.516 27.4184 99.468 27.6344 99.372C27.8504 99.276 28.0704 99.116 28.2944 98.892L29.0744 99.624C28.7464 99.952 28.4104 100.192 28.0664 100.344C27.7304 100.496 27.3064 100.572 26.7944 100.572C25.9624 100.572 25.2984 100.324 24.8024 99.828C24.3064 99.332 24.0584 98.54 24.0584 97.452C24.0584 96.476 24.2904 95.716 24.7544 95.172C25.2184 94.62 25.8464 94.344 26.6384 94.344C27.4464 94.344 28.0784 94.612 28.5344 95.148C28.9904 95.684 29.2184 96.4 29.2184 97.296V97.812ZM28.0064 96.96C27.9824 96.6 27.9264 96.324 27.8384 96.132C27.6064 95.62 27.2064 95.364 26.6384 95.364C26.0624 95.364 25.6584 95.62 25.4264 96.132C25.3304 96.34 25.2784 96.616 25.2704 96.96H28.0064ZM35.2432 99.708C34.6992 100.284 34.0312 100.572 33.2392 100.572C32.8792 100.572 32.5432 100.516 32.2312 100.404C31.9192 100.284 31.6312 100.108 31.3672 99.876C31.1112 99.636 30.9072 99.312 30.7552 98.904C30.6032 98.488 30.5272 98.004 30.5272 97.452C30.5272 96.9 30.6032 96.42 30.7552 96.012C30.9072 95.596 31.1112 95.272 31.3672 95.04C31.6312 94.8 31.9192 94.624 32.2312 94.512C32.5432 94.4 32.8792 94.344 33.2392 94.344C34.0392 94.344 34.7072 94.628 35.2432 95.196L34.4032 96.012C34.2112 95.804 34.0272 95.656 33.8512 95.568C33.6832 95.48 33.4792 95.436 33.2392 95.436C32.7592 95.436 32.3832 95.616 32.1112 95.976C31.8712 96.28 31.7512 96.772 31.7512 97.452C31.7512 98.14 31.8712 98.636 32.1112 98.94C32.3832 99.3 32.7592 99.48 33.2392 99.48C33.4792 99.48 33.6832 99.436 33.8512 99.348C34.0272 99.26 34.2112 99.112 34.4032 98.904L35.2432 99.708ZM41.2756 97.452C41.2756 98.012 41.2236 98.48 41.1196 98.856C41.0156 99.232 40.8276 99.564 40.5556 99.852C40.0916 100.332 39.4836 100.572 38.7316 100.572C37.9876 100.572 37.3836 100.332 36.9196 99.852C36.6476 99.564 36.4596 99.232 36.3556 98.856C36.2516 98.48 36.1996 98.012 36.1996 97.452C36.1996 96.9 36.2516 96.436 36.3556 96.06C36.4596 95.676 36.6476 95.344 36.9196 95.064C37.3836 94.584 37.9876 94.344 38.7316 94.344C39.4836 94.344 40.0916 94.584 40.5556 95.064C40.8276 95.344 41.0156 95.676 41.1196 96.06C41.2236 96.436 41.2756 96.9 41.2756 97.452ZM39.6316 99.12C39.9116 98.84 40.0516 98.284 40.0516 97.452C40.0516 96.62 39.9116 96.064 39.6316 95.784C39.3996 95.552 39.0996 95.436 38.7316 95.436C38.3716 95.436 38.0756 95.552 37.8436 95.784C37.5636 96.064 37.4236 96.62 37.4236 97.452C37.4236 98.284 37.5636 98.84 37.8436 99.12C38.0836 99.36 38.3796 99.48 38.7316 99.48C39.0916 99.48 39.3916 99.36 39.6316 99.12ZM46.2809 95.844C46.0089 95.572 45.7049 95.436 45.3689 95.436C45.0249 95.436 44.7369 95.564 44.5049 95.82C44.2729 96.068 44.1569 96.396 44.1569 96.804V100.5H42.9329V94.416H44.1329V95.076C44.2929 94.86 44.5169 94.684 44.8049 94.548C45.1009 94.412 45.4169 94.344 45.7529 94.344C46.3369 94.344 46.8209 94.536 47.2049 94.92L46.2809 95.844ZM52.5351 100.5H51.3351V99.852C50.9351 100.332 50.3991 100.572 49.7271 100.572C49.0951 100.572 48.5991 100.392 48.2391 100.032C47.7831 99.568 47.5551 98.708 47.5551 97.452C47.5551 96.204 47.7831 95.348 48.2391 94.884C48.5991 94.524 49.0911 94.344 49.7151 94.344C50.3951 94.344 50.9271 94.572 51.3111 95.028V91.956H52.5351V100.5ZM50.0511 95.436C49.7791 95.436 49.5551 95.488 49.3791 95.592C49.2031 95.696 49.0711 95.848 48.9831 96.048C48.9031 96.248 48.8471 96.456 48.8151 96.672C48.7911 96.888 48.7791 97.148 48.7791 97.452C48.7791 97.756 48.7911 98.016 48.8151 98.232C48.8471 98.448 48.9031 98.66 48.9831 98.868C49.0711 99.068 49.2031 99.22 49.3791 99.324C49.5631 99.428 49.7871 99.48 50.0511 99.48C50.3151 99.48 50.5351 99.428 50.7111 99.324C50.8871 99.22 51.0151 99.068 51.0951 98.868C51.1831 98.66 51.2391 98.448 51.2631 98.232C51.2951 98.016 51.3111 97.756 51.3111 97.452C51.3111 97.148 51.2951 96.888 51.2631 96.672C51.2391 96.456 51.1831 96.248 51.0951 96.048C51.0151 95.848 50.8871 95.696 50.7111 95.592C50.5351 95.488 50.3151 95.436 50.0511 95.436ZM58.9759 98.64C58.9759 99.256 58.7399 99.732 58.2679 100.068C57.8039 100.404 57.1959 100.572 56.4439 100.572C55.3319 100.572 54.4799 100.28 53.8879 99.696L54.6919 98.892C55.1079 99.316 55.6919 99.528 56.4439 99.528C56.8439 99.528 57.1639 99.46 57.4039 99.324C57.6519 99.18 57.7759 98.968 57.7759 98.688C57.7759 98.264 57.5039 98.024 56.9599 97.968L55.9879 97.884C54.7879 97.772 54.1879 97.212 54.1879 96.204C54.1879 95.62 54.4039 95.164 54.8359 94.836C55.2679 94.508 55.8159 94.344 56.4799 94.344C57.4639 94.344 58.2159 94.572 58.7359 95.028L57.9679 95.808C57.6159 95.512 57.1159 95.364 56.4679 95.364C56.1079 95.364 55.8319 95.436 55.6399 95.58C55.4559 95.716 55.3639 95.904 55.3639 96.144C55.3639 96.36 55.4279 96.524 55.5559 96.636C55.6919 96.74 55.9079 96.808 56.2039 96.84L57.0559 96.912C58.3359 97.024 58.9759 97.6 58.9759 98.64ZM65.975 95.352H64.763V100.5H63.539V95.352H62.843V94.416H63.539V93.588C63.539 93.116 63.683 92.716 63.971 92.388C64.259 92.06 64.671 91.896 65.207 91.896H65.975V92.94H65.435C64.987 92.94 64.763 93.176 64.763 93.648V94.416H65.975V95.352ZM71.8967 97.452C71.8967 98.012 71.8447 98.48 71.7407 98.856C71.6367 99.232 71.4487 99.564 71.1767 99.852C70.7127 100.332 70.1047 100.572 69.3527 100.572C68.6087 100.572 68.0047 100.332 67.5407 99.852C67.2687 99.564 67.0807 99.232 66.9767 98.856C66.8727 98.48 66.8207 98.012 66.8207 97.452C66.8207 96.9 66.8727 96.436 66.9767 96.06C67.0807 95.676 67.2687 95.344 67.5407 95.064C68.0047 94.584 68.6087 94.344 69.3527 94.344C70.1047 94.344 70.7127 94.584 71.1767 95.064C71.4487 95.344 71.6367 95.676 71.7407 96.06C71.8447 96.436 71.8967 96.9 71.8967 97.452ZM70.2527 99.12C70.5327 98.84 70.6727 98.284 70.6727 97.452C70.6727 96.62 70.5327 96.064 70.2527 95.784C70.0207 95.552 69.7207 95.436 69.3527 95.436C68.9927 95.436 68.6967 95.552 68.4647 95.784C68.1847 96.064 68.0447 96.62 68.0447 97.452C68.0447 98.284 68.1847 98.84 68.4647 99.12C68.7047 99.36 69.0007 99.48 69.3527 99.48C69.7127 99.48 70.0127 99.36 70.2527 99.12ZM78.426 100.5H77.226V99.888C76.802 100.344 76.262 100.572 75.606 100.572C74.99 100.572 74.49 100.388 74.106 100.02C73.698 99.62 73.494 99.048 73.494 98.304V94.416H74.718V98.124C74.718 98.572 74.83 98.912 75.054 99.144C75.278 99.368 75.574 99.48 75.942 99.48C76.31 99.48 76.61 99.368 76.842 99.144C77.082 98.912 77.202 98.572 77.202 98.124V94.416H78.426V100.5ZM85.3063 100.5H84.0823V96.792C84.0823 96.336 83.9703 95.996 83.7463 95.772C83.5223 95.548 83.2263 95.436 82.8583 95.436C82.4903 95.436 82.1863 95.552 81.9463 95.784C81.7143 96.008 81.5983 96.344 81.5983 96.792V100.5H80.3743V94.416H81.5743V95.028C81.9983 94.572 82.5383 94.344 83.1943 94.344C83.8103 94.344 84.3103 94.528 84.6943 94.896C85.1023 95.296 85.3063 95.868 85.3063 96.612V100.5ZM91.8867 100.5H90.6867V99.852C90.2867 100.332 89.7507 100.572 89.0787 100.572C88.4467 100.572 87.9507 100.392 87.5907 100.032C87.1347 99.568 86.9067 98.708 86.9067 97.452C86.9067 96.204 87.1347 95.348 87.5907 94.884C87.9507 94.524 88.4427 94.344 89.0667 94.344C89.7467 94.344 90.2787 94.572 90.6627 95.028V91.956H91.8867V100.5ZM89.4027 95.436C89.1307 95.436 88.9067 95.488 88.7307 95.592C88.5547 95.696 88.4227 95.848 88.3347 96.048C88.2547 96.248 88.1987 96.456 88.1667 96.672C88.1427 96.888 88.1307 97.148 88.1307 97.452C88.1307 97.756 88.1427 98.016 88.1667 98.232C88.1987 98.448 88.2547 98.66 88.3347 98.868C88.4227 99.068 88.5547 99.22 88.7307 99.324C88.9147 99.428 89.1387 99.48 89.4027 99.48C89.6667 99.48 89.8867 99.428 90.0627 99.324C90.2387 99.22 90.3667 99.068 90.4467 98.868C90.5347 98.66 90.5907 98.448 90.6147 98.232C90.6467 98.016 90.6627 97.756 90.6627 97.452C90.6627 97.148 90.6467 96.888 90.6147 96.672C90.5907 96.456 90.5347 96.248 90.4467 96.048C90.3667 95.848 90.2387 95.696 90.0627 95.592C89.8867 95.488 89.6667 95.436 89.4027 95.436Z" fill="#E1E8F5" fill-opacity="0.3"/>
<defs>
<filter id="filter0_d_25_7949" x="3.24492" y="-2.87264" width="87.9037" height="93.7157" filterUnits="userSpaceOnUse" color-interpolation-filters="sRGB">
<feFlood flood-opacity="0" result="BackgroundImageFix"/>
<feColorMatrix in="SourceAlpha" type="matrix" values="0 0 0 0 0 0 0 0 0 0 0 0 0 0 0 0 0 0 127 0" result="hardAlpha"/>
<feOffset dy="3.2"/>
<feGaussianBlur stdDeviation="6.4"/>
<feColorMatrix type="matrix" values="0 0 0 0 0.0941176 0 0 0 0 0.117647 0 0 0 0 0.160784 0 0 0 1 0"/>
<feBlend mode="normal" in2="BackgroundImageFix" result="effect1_dropShadow_25_7949"/>
<feBlend mode="normal" in="SourceGraphic" in2="effect1_dropShadow_25_7949" result="shape"/>
</filter>
<clipPath id="clip0_25_7949">
<rect width="80" height="80" fill="white" transform="translate(7 0.5)"/>
</clipPath>
</defs>
</svg>
