<svg width="100" height="100" viewBox="0 0 100 100" fill="none" xmlns="http://www.w3.org/2000/svg">
<g clip-path="url(#clip0_425_5756)">
<mask id="path-1-inside-1_425_5756" fill="white">
<path fill-rule="evenodd" clip-rule="evenodd" d="M88 10C93.5229 10 98 5.52285 98 0H544C548.418 0 552 3.58172 552 8V92C552 96.4183 548.418 100 544 100H98C98 94.4771 93.5229 90 88 90C82.4771 90 78 94.4771 78 100H8C3.58172 100 0 96.4183 0 92V8C0 3.58172 3.58172 0 8 0H78C78 5.52285 82.4771 10 88 10Z"/>
</mask>
<path fill-rule="evenodd" clip-rule="evenodd" d="M88 10C93.5229 10 98 5.52285 98 0H544C548.418 0 552 3.58172 552 8V92C552 96.4183 548.418 100 544 100H98C98 94.4771 93.5229 90 88 90C82.4771 90 78 94.4771 78 100H8C3.58172 100 0 96.4183 0 92V8C0 3.58172 3.58172 0 8 0H78C78 5.52285 82.4771 10 88 10Z" fill="#1C222F"/>
<path d="M98 0V-0.5H97.5V0H98ZM98 100H97.5V100.5H98V100ZM78 100V100.5H78.5V100H78ZM78 0H78.5V-0.5H78V0ZM97.5 0C97.5 5.24671 93.2467 9.5 88 9.5V10.5C93.799 10.5 98.5 5.79899 98.5 0H97.5ZM544 -0.5H98V0.5H544V-0.5ZM552.5 8C552.5 3.30558 548.694 -0.5 544 -0.5V0.5C548.142 0.5 551.5 3.85786 551.5 8H552.5ZM552.5 92V8H551.5V92H552.5ZM544 100.5C548.694 100.5 552.5 96.6944 552.5 92H551.5C551.5 96.1421 548.142 99.5 544 99.5V100.5ZM98 100.5H544V99.5H98V100.5ZM88 90.5C93.2467 90.5 97.5 94.7533 97.5 100H98.5C98.5 94.201 93.799 89.5 88 89.5V90.5ZM78.5 100C78.5 94.7533 82.7533 90.5 88 90.5V89.5C82.201 89.5 77.5 94.201 77.5 100H78.5ZM8 100.5H78V99.5H8V100.5ZM-0.5 92C-0.5 96.6944 3.30558 100.5 8 100.5V99.5C3.85786 99.5 0.5 96.1421 0.5 92H-0.5ZM-0.5 8V92H0.5V8H-0.5ZM8 -0.5C3.30558 -0.5 -0.5 3.30558 -0.5 8H0.5C0.5 3.85786 3.85786 0.5 8 0.5V-0.5ZM78 -0.5H8V0.5H78V-0.5ZM88 9.5C82.7533 9.5 78.5 5.24671 78.5 0H77.5C77.5 5.79899 82.201 10.5 88 10.5V9.5Z" fill="#BCC8E0" fill-opacity="0.12" mask="url(#path-1-inside-1_425_5756)"/>
<g clip-path="url(#clip1_425_5756)">
<mask id="path-3-inside-2_425_5756" fill="white">
<path fill-rule="evenodd" clip-rule="evenodd" d="M88 16V10C82.4771 10 78 5.52285 78 0H8C3.58172 0 0 3.58172 0 8V92C0 96.4183 3.58172 100 8 100H78C78 94.4771 82.4771 90 88 90V84C85.7909 84 84 82.2091 84 80C84 77.7909 85.7909 76 88 76V72C85.7909 72 84 70.2091 84 68C84 65.7909 85.7909 64 88 64V60C85.7909 60 84 58.2091 84 56C84 53.7909 85.7909 52 88 52V48C85.7909 48 84 46.2091 84 44C84 41.7909 85.7909 40 88 40V36C85.7909 36 84 34.2091 84 32C84 29.7909 85.7909 28 88 28V24C85.7909 24 84 22.2091 84 20C84 17.7909 85.7909 16 88 16Z"/>
</mask>
<path fill-rule="evenodd" clip-rule="evenodd" d="M88 16V10C82.4771 10 78 5.52285 78 0H8C3.58172 0 0 3.58172 0 8V92C0 96.4183 3.58172 100 8 100H78C78 94.4771 82.4771 90 88 90V84C85.7909 84 84 82.2091 84 80C84 77.7909 85.7909 76 88 76V72C85.7909 72 84 70.2091 84 68C84 65.7909 85.7909 64 88 64V60C85.7909 60 84 58.2091 84 56C84 53.7909 85.7909 52 88 52V48C85.7909 48 84 46.2091 84 44C84 41.7909 85.7909 40 88 40V36C85.7909 36 84 34.2091 84 32C84 29.7909 85.7909 28 88 28V24C85.7909 24 84 22.2091 84 20C84 17.7909 85.7909 16 88 16Z" fill="url(#paint0_linear_425_5756)"/>
<path d="M88 10H88.5V9.5H88V10ZM88 16V16.5H88.5V16H88ZM78 0H78.5V-0.5H78V0ZM78 100V100.5H78.5V100H78ZM88 90V90.5H88.5V90H88ZM88 84H88.5V83.5H88V84ZM88 76V76.5H88.5V76H88ZM88 72H88.5V71.5H88V72ZM88 64V64.5H88.5V64H88ZM88 60H88.5V59.5H88V60ZM88 52V52.5H88.5V52H88ZM88 48H88.5V47.5H88V48ZM88 40V40.5H88.5V40H88ZM88 36H88.5V35.5H88V36ZM88 28V28.5H88.5V28H88ZM88 24H88.5V23.5H88V24ZM87.5 10V16H88.5V10H87.5ZM77.5 0C77.5 5.79899 82.201 10.5 88 10.5V9.5C82.7533 9.5 78.5 5.24671 78.5 0H77.5ZM8 0.5H78V-0.5H8V0.5ZM0.5 8C0.5 3.85786 3.85786 0.5 8 0.5V-0.5C3.30558 -0.5 -0.5 3.30558 -0.5 8H0.5ZM0.5 92V8H-0.5V92H0.5ZM8 99.5C3.85786 99.5 0.5 96.1421 0.5 92H-0.5C-0.5 96.6944 3.30558 100.5 8 100.5V99.5ZM78 99.5H8V100.5H78V99.5ZM78.5 100C78.5 94.7533 82.7533 90.5 88 90.5V89.5C82.201 89.5 77.5 94.201 77.5 100H78.5ZM87.5 84V90H88.5V84H87.5ZM83.5 80C83.5 82.4853 85.5147 84.5 88 84.5V83.5C86.067 83.5 84.5 81.933 84.5 80H83.5ZM88 75.5C85.5147 75.5 83.5 77.5147 83.5 80H84.5C84.5 78.067 86.067 76.5 88 76.5V75.5ZM87.5 72V76H88.5V72H87.5ZM83.5 68C83.5 70.4853 85.5147 72.5 88 72.5V71.5C86.067 71.5 84.5 69.933 84.5 68H83.5ZM88 63.5C85.5147 63.5 83.5 65.5147 83.5 68H84.5C84.5 66.067 86.067 64.5 88 64.5V63.5ZM87.5 60V64H88.5V60H87.5ZM83.5 56C83.5 58.4853 85.5147 60.5 88 60.5V59.5C86.067 59.5 84.5 57.933 84.5 56H83.5ZM88 51.5C85.5147 51.5 83.5 53.5147 83.5 56H84.5C84.5 54.067 86.067 52.5 88 52.5V51.5ZM87.5 48V52H88.5V48H87.5ZM83.5 44C83.5 46.4853 85.5147 48.5 88 48.5V47.5C86.067 47.5 84.5 45.933 84.5 44H83.5ZM88 39.5C85.5147 39.5 83.5 41.5147 83.5 44H84.5C84.5 42.067 86.067 40.5 88 40.5V39.5ZM87.5 36V40H88.5V36H87.5ZM83.5 32C83.5 34.4853 85.5147 36.5 88 36.5V35.5C86.067 35.5 84.5 33.933 84.5 32H83.5ZM88 27.5C85.5147 27.5 83.5 29.5147 83.5 32H84.5C84.5 30.067 86.067 28.5 88 28.5V27.5ZM87.5 24V28H88.5V24H87.5ZM83.5 20C83.5 22.4853 85.5147 24.5 88 24.5V23.5C86.067 23.5 84.5 21.933 84.5 20H83.5ZM88 15.5C85.5147 15.5 83.5 17.5147 83.5 20H84.5C84.5 18.067 86.067 16.5 88 16.5V15.5Z" fill="url(#paint1_linear_425_5756)" mask="url(#path-3-inside-2_425_5756)"/>
<g clip-path="url(#clip2_425_5756)">
<path fill-rule="evenodd" clip-rule="evenodd" d="M61.7336 48.6983V46L53.5208 52.119L61.7336 58.2381V55.5398V54.1577H65.7921C66.935 54.1577 67.8938 55.024 67.8938 56.1237L67.8936 62.3164H72V56.149C72 52.8497 69.2207 50.0784 65.7921 50.0784H61.7336V48.6983Z" fill="#6971C8" fill-opacity="0.05"/>
<path fill-rule="evenodd" clip-rule="evenodd" d="M26.2656 95.2926L22.0388 95.2926C20.9716 95.2926 20.1064 94.3794 20.1064 93.2529L20.1064 87.1339L16 87.1339V93.2529C16 96.6324 18.8371 99.372 22.0388 99.372L26.2656 99.372V100L27.4856 100L28.7221 100L31.0475 100L34.4784 97.3324L26.2656 90.9461V93.7622V95.2926Z" fill="#6971C8" fill-opacity="0.05"/>
<path fill-rule="evenodd" clip-rule="evenodd" d="M64.1289 79.7516C64.199 76.3907 63.1255 73.2724 61.2591 70.7608C61.4901 69.9874 61.8794 68.8274 62.2686 68.054L62.8887 65.0554C66.8637 68.7365 69.3096 74.0276 69.1881 79.8557C68.9616 90.7173 59.9145 99.34 48.9808 99.115C43.9869 99.0122 39.4578 97.078 36.0392 93.975L39.3028 93.1886C40.4706 93.1886 41.2491 92.8019 42.5328 92.4152C44.4936 93.4408 46.7175 94.0404 49.0856 94.0891C57.2252 94.2566 63.9603 87.8375 64.1289 79.7516Z" fill="#6971C8" fill-opacity="0.05"/>
<path fill-rule="evenodd" clip-rule="evenodd" d="M38.1063 85.426C46.6511 85.426 53.5781 78.5447 53.5781 70.0562C53.5781 61.5677 46.6511 54.6863 38.1063 54.6863C29.5614 54.6863 22.6345 61.5677 22.6345 70.0562C22.6345 78.5447 29.5614 85.426 38.1063 85.426ZM38.1063 90.4529C49.4458 90.4529 58.6384 81.321 58.6384 70.0562C58.6384 58.7914 49.4458 49.6594 38.1063 49.6594C26.7667 49.6594 17.5742 58.7914 17.5742 70.0562C17.5742 81.321 26.7667 90.4529 38.1063 90.4529Z" fill="#6971C8" fill-opacity="0.05"/>
<rect width="7.73765" height="7.73765" transform="matrix(0.709441 -0.704765 0.709441 0.704765 32.6174 70.0552)" fill="#6971C8" fill-opacity="0.05"/>
<rect x="2.00929" width="4.90544" height="4.90544" transform="matrix(0.709441 -0.704765 0.709441 0.704765 33.2012 71.4713)" stroke="#6971C8" stroke-opacity="0.05" stroke-width="2.83222"/>
</g>
</g>
</g>
<defs>
<linearGradient id="paint0_linear_425_5756" x1="0" y1="0" x2="45.5974" y2="116.584" gradientUnits="userSpaceOnUse">
<stop stop-color="#323A56"/>
<stop offset="1" stop-color="#1F2633"/>
</linearGradient>
<linearGradient id="paint1_linear_425_5756" x1="6.55651e-07" y1="50" x2="88" y2="50" gradientUnits="userSpaceOnUse">
<stop stop-color="#5F68BA"/>
<stop offset="1" stop-color="#323948"/>
</linearGradient>
<clipPath id="clip0_425_5756">
<rect width="100" height="100" fill="white"/>
</clipPath>
<clipPath id="clip1_425_5756">
<rect width="88" height="100" fill="white"/>
</clipPath>
<clipPath id="clip2_425_5756">
<rect width="56" height="54" fill="white" transform="translate(16 46)"/>
</clipPath>
</defs>
</svg>
