<svg width="93" height="108" viewBox="0 0 93 108" fill="none" xmlns="http://www.w3.org/2000/svg">
<ellipse cx="46.5006" cy="44.6265" rx="32.0006" ry="32" fill="#000D1D" fill-opacity="0.04"/>
<g filter="url(#filter0_d_808_5820)">
<path d="M15.6335 28.3032C15.3924 27.733 15.6596 27.0753 16.2301 26.8349L55.4234 10.3156C55.9929 10.0755 56.6492 10.3422 56.89 10.9115L77.7601 60.2672C78.0012 60.8374 77.734 61.495 77.1636 61.7355L37.9702 78.2548C37.4007 78.4948 36.7444 78.2282 36.5037 77.6589L15.6335 28.3032Z" fill="white"/>
</g>
<path fill-rule="evenodd" clip-rule="evenodd" d="M48.7455 29.635L53.5083 31.5345L54.7484 28.5588C54.9739 28.0178 55.5528 27.771 56.035 28.0103C56.5814 28.2223 56.8489 28.8497 56.6235 29.3908L55.0344 33.3308C54.8089 33.8719 54.23 34.1187 53.6835 33.9068L47.9832 31.5913L48.9997 33.9757C49.2137 34.4776 48.9506 35.1088 48.436 35.3282C47.9214 35.5476 47.2838 35.3004 47.0698 34.7984L43.8598 27.2689C43.6458 26.7669 43.9089 26.1357 44.4235 25.9163C44.9381 25.6969 45.5757 25.9442 45.7897 26.4461L46.8062 28.8305L49.0825 23.1144C49.3079 22.5734 49.8869 22.3266 50.4333 22.5385L54.3764 24.1201C54.9229 24.332 55.1904 24.9595 54.9649 25.5005C54.7395 26.0415 54.1605 26.2883 53.6784 26.049L50.6461 24.8206L48.7455 29.635ZM51.6893 27.2677C52.204 27.0483 52.8415 27.2956 53.0555 27.7976C53.2695 28.2995 53.0065 28.9307 52.4918 29.1501C51.9772 29.3695 51.3397 29.1223 51.1257 28.6203C50.9117 28.1183 51.1747 27.4871 51.6893 27.2677Z" fill="#21C397"/>
<rect width="15.9967" height="3.2" transform="matrix(0.921244 -0.388985 -0.387725 -0.921775 26.1587 36.7839)" fill="#000D1D" fill-opacity="0.04"/>
<rect width="15.9967" height="3.2" transform="matrix(0.921244 -0.388985 -0.387725 -0.921775 29.2715 44.1539)" fill="#000D1D" fill-opacity="0.04"/>
<rect width="31.9923" height="3.2" transform="matrix(0.921244 -0.388985 -0.386679 -0.922214 32.3838 51.5244)" fill="#000D1D" fill-opacity="0.04"/>
<rect width="31.9923" height="3.2" transform="matrix(0.921244 -0.388985 -0.386679 -0.922214 35.4966 58.8938)" fill="#000D1D" fill-opacity="0.04"/>
<rect width="31.9923" height="3.2" transform="matrix(0.921244 -0.388985 -0.386679 -0.922214 38.606 66.2639)" fill="#000D1D" fill-opacity="0.04"/>
<path d="M7.548 104H6.36L2.412 97.988V104H1.116V95.456H2.304L6.252 101.456V95.456H7.548V104ZM14.4202 100.952C14.4202 101.512 14.3682 101.98 14.2642 102.356C14.1602 102.732 13.9722 103.064 13.7002 103.352C13.2362 103.832 12.6282 104.072 11.8762 104.072C11.1322 104.072 10.5282 103.832 10.0642 103.352C9.79216 103.064 9.60416 102.732 9.50016 102.356C9.39616 101.98 9.34416 101.512 9.34416 100.952C9.34416 100.4 9.39616 99.936 9.50016 99.56C9.60416 99.176 9.79216 98.844 10.0642 98.564C10.5282 98.084 11.1322 97.844 11.8762 97.844C12.6282 97.844 13.2362 98.084 13.7002 98.564C13.9722 98.844 14.1602 99.176 14.2642 99.56C14.3682 99.936 14.4202 100.4 14.4202 100.952ZM12.7762 102.62C13.0562 102.34 13.1962 101.784 13.1962 100.952C13.1962 100.12 13.0562 99.564 12.7762 99.284C12.5442 99.052 12.2442 98.936 11.8762 98.936C11.5162 98.936 11.2202 99.052 10.9882 99.284C10.7082 99.564 10.5682 100.12 10.5682 100.952C10.5682 101.784 10.7082 102.34 10.9882 102.62C11.2282 102.86 11.5242 102.98 11.8762 102.98C12.2362 102.98 12.5362 102.86 12.7762 102.62ZM22.3083 99.344C22.0363 99.072 21.7323 98.936 21.3963 98.936C21.0523 98.936 20.7643 99.064 20.5323 99.32C20.3003 99.568 20.1843 99.896 20.1843 100.304V104H18.9603V97.916H20.1603V98.576C20.3203 98.36 20.5443 98.184 20.8323 98.048C21.1283 97.912 21.4443 97.844 21.7803 97.844C22.3643 97.844 22.8483 98.036 23.2323 98.42L22.3083 99.344ZM28.7184 101.312H24.7704C24.7704 101.848 24.9024 102.268 25.1664 102.572C25.4384 102.868 25.8224 103.016 26.3184 103.016C26.6464 103.016 26.9184 102.968 27.1344 102.872C27.3504 102.776 27.5704 102.616 27.7944 102.392L28.5744 103.124C28.2464 103.452 27.9104 103.692 27.5664 103.844C27.2304 103.996 26.8064 104.072 26.2944 104.072C25.4624 104.072 24.7984 103.824 24.3024 103.328C23.8064 102.832 23.5584 102.04 23.5584 100.952C23.5584 99.976 23.7904 99.216 24.2544 98.672C24.7184 98.12 25.3464 97.844 26.1384 97.844C26.9464 97.844 27.5784 98.112 28.0344 98.648C28.4904 99.184 28.7184 99.9 28.7184 100.796V101.312ZM27.5064 100.46C27.4824 100.1 27.4264 99.824 27.3384 99.632C27.1064 99.12 26.7064 98.864 26.1384 98.864C25.5624 98.864 25.1584 99.12 24.9264 99.632C24.8304 99.84 24.7784 100.116 24.7704 100.46H27.5064ZM34.7432 103.208C34.1992 103.784 33.5312 104.072 32.7392 104.072C32.3792 104.072 32.0432 104.016 31.7312 103.904C31.4192 103.784 31.1312 103.608 30.8672 103.376C30.6112 103.136 30.4072 102.812 30.2552 102.404C30.1032 101.988 30.0272 101.504 30.0272 100.952C30.0272 100.4 30.1032 99.92 30.2552 99.512C30.4072 99.096 30.6112 98.772 30.8672 98.54C31.1312 98.3 31.4192 98.124 31.7312 98.012C32.0432 97.9 32.3792 97.844 32.7392 97.844C33.5392 97.844 34.2072 98.128 34.7432 98.696L33.9032 99.512C33.7112 99.304 33.5272 99.156 33.3512 99.068C33.1832 98.98 32.9792 98.936 32.7392 98.936C32.2592 98.936 31.8832 99.116 31.6112 99.476C31.3712 99.78 31.2512 100.272 31.2512 100.952C31.2512 101.64 31.3712 102.136 31.6112 102.44C31.8832 102.8 32.2592 102.98 32.7392 102.98C32.9792 102.98 33.1832 102.936 33.3512 102.848C33.5272 102.76 33.7112 102.612 33.9032 102.404L34.7432 103.208ZM40.7756 100.952C40.7756 101.512 40.7236 101.98 40.6196 102.356C40.5156 102.732 40.3276 103.064 40.0556 103.352C39.5916 103.832 38.9836 104.072 38.2316 104.072C37.4876 104.072 36.8836 103.832 36.4196 103.352C36.1476 103.064 35.9596 102.732 35.8556 102.356C35.7516 101.98 35.6996 101.512 35.6996 100.952C35.6996 100.4 35.7516 99.936 35.8556 99.56C35.9596 99.176 36.1476 98.844 36.4196 98.564C36.8836 98.084 37.4876 97.844 38.2316 97.844C38.9836 97.844 39.5916 98.084 40.0556 98.564C40.3276 98.844 40.5156 99.176 40.6196 99.56C40.7236 99.936 40.7756 100.4 40.7756 100.952ZM39.1316 102.62C39.4116 102.34 39.5516 101.784 39.5516 100.952C39.5516 100.12 39.4116 99.564 39.1316 99.284C38.8996 99.052 38.5996 98.936 38.2316 98.936C37.8716 98.936 37.5756 99.052 37.3436 99.284C37.0636 99.564 36.9236 100.12 36.9236 100.952C36.9236 101.784 37.0636 102.34 37.3436 102.62C37.5836 102.86 37.8796 102.98 38.2316 102.98C38.5916 102.98 38.8916 102.86 39.1316 102.62ZM45.7809 99.344C45.5089 99.072 45.2049 98.936 44.8689 98.936C44.5249 98.936 44.2369 99.064 44.0049 99.32C43.7729 99.568 43.6569 99.896 43.6569 100.304V104H42.4329V97.916H43.6329V98.576C43.7929 98.36 44.0169 98.184 44.3049 98.048C44.6009 97.912 44.9169 97.844 45.2529 97.844C45.8369 97.844 46.3209 98.036 46.7049 98.42L45.7809 99.344ZM52.0351 104H50.8351V103.352C50.4351 103.832 49.8991 104.072 49.2271 104.072C48.5951 104.072 48.0991 103.892 47.7391 103.532C47.2831 103.068 47.0551 102.208 47.0551 100.952C47.0551 99.704 47.2831 98.848 47.7391 98.384C48.0991 98.024 48.5911 97.844 49.2151 97.844C49.8951 97.844 50.4271 98.072 50.8111 98.528V95.456H52.0351V104ZM49.5511 98.936C49.2791 98.936 49.0551 98.988 48.8791 99.092C48.7031 99.196 48.5711 99.348 48.4831 99.548C48.4031 99.748 48.3471 99.956 48.3151 100.172C48.2911 100.388 48.2791 100.648 48.2791 100.952C48.2791 101.256 48.2911 101.516 48.3151 101.732C48.3471 101.948 48.4031 102.16 48.4831 102.368C48.5711 102.568 48.7031 102.72 48.8791 102.824C49.0631 102.928 49.2871 102.98 49.5511 102.98C49.8151 102.98 50.0351 102.928 50.2111 102.824C50.3871 102.72 50.5151 102.568 50.5951 102.368C50.6831 102.16 50.7391 101.948 50.7631 101.732C50.7951 101.516 50.8111 101.256 50.8111 100.952C50.8111 100.648 50.7951 100.388 50.7631 100.172C50.7391 99.956 50.6831 99.748 50.5951 99.548C50.5151 99.348 50.3871 99.196 50.2111 99.092C50.0351 98.988 49.8151 98.936 49.5511 98.936ZM58.4759 102.14C58.4759 102.756 58.2399 103.232 57.7679 103.568C57.3039 103.904 56.6959 104.072 55.9439 104.072C54.8319 104.072 53.9799 103.78 53.3879 103.196L54.1919 102.392C54.6079 102.816 55.1919 103.028 55.9439 103.028C56.3439 103.028 56.6639 102.96 56.9039 102.824C57.1519 102.68 57.2759 102.468 57.2759 102.188C57.2759 101.764 57.0039 101.524 56.4599 101.468L55.4879 101.384C54.2879 101.272 53.6879 100.712 53.6879 99.704C53.6879 99.12 53.9039 98.664 54.3359 98.336C54.7679 98.008 55.3159 97.844 55.9799 97.844C56.9639 97.844 57.7159 98.072 58.2359 98.528L57.4679 99.308C57.1159 99.012 56.6159 98.864 55.9679 98.864C55.6079 98.864 55.3319 98.936 55.1399 99.08C54.9559 99.216 54.8639 99.404 54.8639 99.644C54.8639 99.86 54.9279 100.024 55.0559 100.136C55.1919 100.24 55.4079 100.308 55.7039 100.34L56.5559 100.412C57.8359 100.524 58.4759 101.1 58.4759 102.14ZM65.475 98.852H64.263V104H63.039V98.852H62.343V97.916H63.039V97.088C63.039 96.616 63.183 96.216 63.471 95.888C63.759 95.56 64.171 95.396 64.707 95.396H65.475V96.44H64.935C64.487 96.44 64.263 96.676 64.263 97.148V97.916H65.475V98.852ZM71.3967 100.952C71.3967 101.512 71.3447 101.98 71.2407 102.356C71.1367 102.732 70.9487 103.064 70.6767 103.352C70.2127 103.832 69.6047 104.072 68.8527 104.072C68.1087 104.072 67.5047 103.832 67.0407 103.352C66.7687 103.064 66.5807 102.732 66.4767 102.356C66.3727 101.98 66.3207 101.512 66.3207 100.952C66.3207 100.4 66.3727 99.936 66.4767 99.56C66.5807 99.176 66.7687 98.844 67.0407 98.564C67.5047 98.084 68.1087 97.844 68.8527 97.844C69.6047 97.844 70.2127 98.084 70.6767 98.564C70.9487 98.844 71.1367 99.176 71.2407 99.56C71.3447 99.936 71.3967 100.4 71.3967 100.952ZM69.7527 102.62C70.0327 102.34 70.1727 101.784 70.1727 100.952C70.1727 100.12 70.0327 99.564 69.7527 99.284C69.5207 99.052 69.2207 98.936 68.8527 98.936C68.4927 98.936 68.1967 99.052 67.9647 99.284C67.6847 99.564 67.5447 100.12 67.5447 100.952C67.5447 101.784 67.6847 102.34 67.9647 102.62C68.2047 102.86 68.5007 102.98 68.8527 102.98C69.2127 102.98 69.5127 102.86 69.7527 102.62ZM77.926 104H76.726V103.388C76.302 103.844 75.762 104.072 75.106 104.072C74.49 104.072 73.99 103.888 73.606 103.52C73.198 103.12 72.994 102.548 72.994 101.804V97.916H74.218V101.624C74.218 102.072 74.33 102.412 74.554 102.644C74.778 102.868 75.074 102.98 75.442 102.98C75.81 102.98 76.11 102.868 76.342 102.644C76.582 102.412 76.702 102.072 76.702 101.624V97.916H77.926V104ZM84.8063 104H83.5823V100.292C83.5823 99.836 83.4703 99.496 83.2463 99.272C83.0223 99.048 82.7263 98.936 82.3583 98.936C81.9903 98.936 81.6863 99.052 81.4463 99.284C81.2143 99.508 81.0983 99.844 81.0983 100.292V104H79.8743V97.916H81.0743V98.528C81.4983 98.072 82.0383 97.844 82.6943 97.844C83.3103 97.844 83.8103 98.028 84.1943 98.396C84.6023 98.796 84.8063 99.368 84.8063 100.112V104ZM91.3867 104H90.1867V103.352C89.7867 103.832 89.2507 104.072 88.5787 104.072C87.9467 104.072 87.4507 103.892 87.0907 103.532C86.6347 103.068 86.4067 102.208 86.4067 100.952C86.4067 99.704 86.6347 98.848 87.0907 98.384C87.4507 98.024 87.9427 97.844 88.5667 97.844C89.2467 97.844 89.7787 98.072 90.1627 98.528V95.456H91.3867V104ZM88.9027 98.936C88.6307 98.936 88.4067 98.988 88.2307 99.092C88.0547 99.196 87.9227 99.348 87.8347 99.548C87.7547 99.748 87.6987 99.956 87.6667 100.172C87.6427 100.388 87.6307 100.648 87.6307 100.952C87.6307 101.256 87.6427 101.516 87.6667 101.732C87.6987 101.948 87.7547 102.16 87.8347 102.368C87.9227 102.568 88.0547 102.72 88.2307 102.824C88.4147 102.928 88.6387 102.98 88.9027 102.98C89.1667 102.98 89.3867 102.928 89.5627 102.824C89.7387 102.72 89.8667 102.568 89.9467 102.368C90.0347 102.16 90.0907 101.948 90.1147 101.732C90.1467 101.516 90.1627 101.256 90.1627 100.952C90.1627 100.648 90.1467 100.388 90.1147 100.172C90.0907 99.956 90.0347 99.748 89.9467 99.548C89.8667 99.348 89.7387 99.196 89.5627 99.092C89.3867 98.988 89.1667 98.936 88.9027 98.936Z" fill="#000D1D" fill-opacity="0.3"/>
<defs>
<filter id="filter0_d_808_5820" x="2.74492" y="0.627417" width="87.9037" height="93.7156" filterUnits="userSpaceOnUse" color-interpolation-filters="sRGB">
<feFlood flood-opacity="0" result="BackgroundImageFix"/>
<feColorMatrix in="SourceAlpha" type="matrix" values="0 0 0 0 0 0 0 0 0 0 0 0 0 0 0 0 0 0 127 0" result="hardAlpha"/>
<feOffset dy="3.2"/>
<feGaussianBlur stdDeviation="6.4"/>
<feColorMatrix type="matrix" values="0 0 0 0 0.905729 0 0 0 0 0.925 0 0 0 0 0.925 0 0 0 1 0"/>
<feBlend mode="normal" in2="BackgroundImageFix" result="effect1_dropShadow_808_5820"/>
<feBlend mode="normal" in="SourceGraphic" in2="effect1_dropShadow_808_5820" result="shape"/>
</filter>
</defs>
</svg>
