<!-- Generated by IcoMoon.io -->
<svg version="1.1" xmlns="http://www.w3.org/2000/svg" width="1078" height="1024" viewBox="0 0 1078 1024">
<title></title>
<g id="icomoon-ignore">
</g>
<path fill="#5e6f7d" d="M538.947 73.143c62.167 0.417 123.489 14.698 179.649 41.838v67.877h205.375c-95.413-115.969-236.414-182.934-385.024-182.857-148.635-0.099-289.667 66.868-385.096 182.857h100.532c78.508-70.717 179.729-109.743 284.564-109.714zM538.947 950.857c-62.167-0.417-123.489-14.698-179.649-41.838v-67.877h-205.447c95.429 115.989 236.461 182.956 385.096 182.857 148.61 0.077 289.611-66.888 385.024-182.857h-100.532c-78.469 70.736-179.674 109.766-284.492 109.714zM682.667 475.429c19.843 0 35.93-16.374 35.93-36.571s-16.086-36.571-35.93-36.571h-89.465l-1.15-1.243 114.975-117.029c13.647-15.091 13.172-38.453-1.077-52.956s-37.201-14.987-52.027-1.096l-114.975 117.102-114.975-117.029c-14.827-13.891-37.778-13.407-52.027 1.096s-14.724 37.865-1.077 52.956l114.975 117.029-1.15 1.17h-89.465c-19.843 0-35.93 16.374-35.93 36.571s16.086 36.571 35.93 36.571h107.789v73.143h-107.789c-19.843 0-35.93 16.374-35.93 36.571s16.086 36.571 35.93 36.571h107.789v146.286c0 20.198 16.086 36.571 35.93 36.571s35.93-16.374 35.93-36.571v-146.286h107.789c19.843 0 35.93-16.374 35.93-36.571s-16.086-36.571-35.93-36.571h-107.789v-73.143h107.789zM1077.895 621.714c0-68.096-45.918-124.782-107.789-141.093v-140.215c9.917 6.29 18.18 14.994 24.289 25.307h78.471c-13.159-51.194-52.454-91.163-102.759-104.521v-5.193c0-20.198-16.086-36.571-35.93-36.571s-35.93 16.374-35.93 36.571v5.193c-61.871 16.311-107.789 73.070-107.789 141.093s45.918 124.782 107.789 141.093v140.215c-9.945-6.367-18.268-15.039-24.289-25.307h-78.471c13.078 51.2 52.529 91.209 102.759 104.594v5.12c0 20.198 16.086 36.571 35.93 36.571s35.93-16.374 35.93-36.571v-5.12c63.331-16.564 107.653-74.61 107.789-141.166zM862.891 402.286c0-26.405 14.588-48.567 35.355-61.221v122.514c-21.608-12.627-35.052-35.935-35.355-61.294zM970.105 683.008v-122.514c20.767 12.654 35.355 34.816 35.355 61.221s-14.588 48.567-35.355 61.294zM179.649 768c48.793 0 91.765-43.52 117.706-109.714h-74.95c-12.001 22.747-26.66 36.571-42.756 36.571-23.426 0-44.050-28.965-57.128-73.143h57.128c19.843 0 35.93-16.374 35.93-36.571s-16.086-36.571-35.93-36.571h-70.422c-1.918-24.342-1.918-48.801 0-73.143h70.422c19.843 0 35.93-16.374 35.93-36.571s-16.086-36.571-35.93-36.571h-57.128c13.15-44.178 33.702-73.143 57.128-73.143 16.097 0 30.756 13.897 42.756 36.571h74.95c-26.013-66.194-68.913-109.714-117.706-109.714-57.2 0-106.28 60.050-129.347 146.286h-14.372c-19.843 0-35.93 16.374-35.93 36.571s16.086 36.571 35.93 36.571h2.084c-1.006 12.069-2.084 24.064-2.084 36.571s1.078 24.503 2.084 36.571h-2.084c-19.843 0-35.93 16.374-35.93 36.571s16.086 36.571 35.93 36.571h14.372c23.067 86.309 72.147 146.286 129.347 146.286z"></path>
</svg>
