<!-- Generated by IcoMoon.io -->
<svg version="1.1" xmlns="http://www.w3.org/2000/svg" width="1024" height="1024" viewBox="0 0 1024 1024">
<title></title>
<g id="icomoon-ignore">
</g>
<path d="M640 128h-384c-35.413 0-65.707 21.547-78.507 52.053l-128.64 300.8c-3.84 9.813-6.187 20.267-6.187 31.147v81.707l0.427 0.427-0.427 3.2c0 47.147 38.187 85.333 85.333 85.333h269.44l-40.747 194.987c-0.853 4.267-1.493 8.747-1.493 13.44 0 17.707 7.253 33.707 18.773 45.227l45.44 45.013 280.96-280.96c15.36-15.573 24.96-36.907 24.96-60.373v-426.667c0-47.147-38.187-85.333-85.333-85.333zM810.667 128v512h170.667v-512h-170.667z"></path>
</svg>
