<?xml version="1.0" encoding="UTF-8"?>
<svg width="13px" height="16px" viewBox="0 0 13 16" version="1.1" xmlns="http://www.w3.org/2000/svg" xmlns:xlink="http://www.w3.org/1999/xlink">
    <!-- Generator: Sketch 49.2 (51160) - http://www.bohemiancoding.com/sketch -->
    <title>010-ghost</title>
    <desc>Created with Sketch.</desc>
    <defs></defs>
    <g id="账户中心" stroke="none" stroke-width="1" fill="none" fill-rule="evenodd">
        <g id="账号概览" transform="translate(-496.000000, -1022.000000)" fill-rule="nonzero">
            <g id="Group-19" transform="translate(303.000000, 600.000000)">
                <g id="010-ghost" transform="translate(193.000000, 422.000000)">
                    <path d="M6.5,0 C2.93179817,0 0.0286536697,2.90302523 0.0286536697,6.47137615 L0.0286536697,14.768 C0.0286536697,14.9822317 0.16575,15.1724908 0.368949541,15.2402041 C0.572477064,15.3086032 0.796100917,15.2382362 0.924759174,15.066672 L2.01986009,13.6064679 L3.11496101,15.0666422 C3.30292431,15.3174885 3.7236055,15.3174885 3.91156881,15.0666422 L5.00666972,13.6064679 L6.10177064,15.0666422 C6.28973394,15.3174885 6.71041514,15.3174885 6.89837844,15.0666422 L7.99347936,13.6064679 L9.08858028,15.0666422 C9.27654358,15.3174885 9.69722477,15.3174885 9.88518807,15.0666422 L10.980289,13.6064679 L12.0753899,15.0666422 C12.2052408,15.2397569 12.4303257,15.3073807 12.6311995,15.2401743 C12.8343991,15.1724312 12.9714954,14.9822018 12.9714954,14.7679702 L12.9714954,6.47137615 C12.9713761,2.90302523 10.0682317,0 6.5,0 Z M4.0110367,8.96036927 C2.91301376,8.96036927 2.01986009,8.06718578 2.01986009,6.96919266 C2.01986009,5.87116972 2.91304358,4.97801606 4.0110367,4.97801606 C5.10902982,4.97801606 6.0022133,5.87119954 6.0022133,6.96919266 C6.0022133,8.06718578 5.10902982,8.96036927 4.0110367,8.96036927 Z M8.98899312,8.96036927 C7.89097018,8.96036927 6.99781651,8.06718578 6.99781651,6.96919266 C6.99781651,5.87116972 7.891,4.97801606 8.98899312,4.97801606 C10.0869862,4.97801606 10.9801697,5.87119954 10.9801697,6.96919266 C10.9801995,8.06718578 10.0870161,8.96036927 8.98899312,8.96036927 Z" id="Shape" fill="#DFE1E5"></path>
                    <path d="M8.98899312,5.97355963 C8.43998165,5.97355963 7.99338991,6.42015138 7.99338991,6.96916284 C7.99338991,7.51817431 8.43998165,7.96476606 8.98899312,7.96476606 C9.08995183,7.96476606 9.18545413,7.94517661 9.27734862,7.91714908 C9.10742431,7.83789679 8.98899312,7.66677982 8.98899312,7.46697936 C8.98899312,7.1920711 9.21187156,6.96919266 9.48677982,6.96919266 C9.68658028,6.96919266 9.85769725,7.0877133 9.93691972,7.25757798 C9.96500688,7.16568349 9.98456651,7.07015138 9.98456651,6.96919266 C9.98459633,6.42015138 9.53800459,5.97355963 8.98899312,5.97355963 Z" id="Shape" fill="#000000"></path>
                    <path d="M4.0110367,5.97355963 C3.46202523,5.97355963 3.01543349,6.42015138 3.01543349,6.96916284 C3.01543349,7.51817431 3.46202523,7.96476606 4.0110367,7.96476606 C4.11199541,7.96476606 4.20749771,7.94517661 4.2993922,7.91714908 C4.12946789,7.83789679 4.0110367,7.66677982 4.0110367,7.46697936 C4.0110367,7.1920711 4.23391514,6.96919266 4.50882339,6.96919266 C4.70862385,6.96919266 4.87974083,7.0877133 4.9589633,7.25757798 C4.98705046,7.16568349 5.00661009,7.07015138 5.00661009,6.96919266 C5.00661009,6.42015138 4.56001835,5.97355963 4.0110367,5.97355963 Z" id="Shape" fill="#000000"></path>
                </g>
            </g>
        </g>
    </g>
</svg>