<!-- Generated by IcoMoon.io -->
<svg version="1.1" xmlns="http://www.w3.org/2000/svg" width="32" height="32" viewBox="0 0 32 32">
<title>info</title>
<path d="M21.486 17.067h-10.971c-0.505 0-0.914 0.478-0.914 1.067 0 0.59 0.41 1.067 0.914 1.067h10.971c0.505 0 0.914-0.477 0.914-1.067 0-0.589-0.41-1.067-0.914-1.067zM21.486 21.333h-10.971c-0.505 0-0.914 0.477-0.914 1.067s0.41 1.067 0.914 1.067h10.971c0.505 0 0.914-0.477 0.914-1.067s-0.41-1.067-0.914-1.067zM22.4 8.533c-1.178 0-2.133-0.956-2.133-2.133v-4.267l6.4 6.4h-4.267zM26.667 27.886c0 1.093-0.869 1.981-1.939 1.981h-17.455c-1.071 0-1.939-0.887-1.939-1.981v-23.772c0-1.093 0.869-1.981 1.939-1.981h11.609c-0.017 2.372 0.027 3.962 0.027 3.962 0 2.188 1.737 3.962 3.879 3.962h3.879v17.829zM20.923 0.005v0.028c-0.126 0-0.652-0.049-1.969-0.028h-11.815c-2.175 0-3.938 1.791-3.938 3.999v23.996c0 2.209 1.763 3.999 3.938 3.999h17.723c2.175 0 3.938-1.791 3.938-3.999v-19.997l-7.877-7.999z"></path>
</svg>
