<?xml version="1.0" encoding="UTF-8"?>
<svg width="18px" height="18px" viewBox="0 0 18 18" version="1.1" xmlns="http://www.w3.org/2000/svg" xmlns:xlink="http://www.w3.org/1999/xlink">
    <!-- Generator: Sketch 52.2 (67145) - http://www.bohemiancoding.com/sketch -->
    <title>icon/trade/news</title>
    <desc>Created with Sketch.</desc>
    <g id="icon/trade/news" stroke="none" stroke-width="1" fill="none" fill-rule="evenodd">
        <path d="M13.5,9 C12.879,9 12.375,8.496 12.375,7.875 C12.375,7.254 12.879,6.75 13.5,6.75 C14.121,6.75 14.625,7.254 14.625,7.875 C14.625,8.496 14.121,9 13.5,9 Z M9,9 C8.379,9 7.875,8.496 7.875,7.875 C7.875,7.254 8.379,6.75 9,6.75 C9.621,6.75 10.125,7.254 10.125,7.875 C10.125,8.496 9.621,9 9,9 Z M4.5,9 C3.879,9 3.375,8.496 3.375,7.875 C3.375,7.254 3.879,6.75 4.5,6.75 C5.121,6.75 5.625,7.254 5.625,7.875 C5.625,8.496 5.121,9 4.5,9 Z M9,0 C4.02975,0 0,3.5263125 0,7.875 C0,10.3606875 1.3190625,12.574125 3.375,14.0169375 L3.375,18 L7.3175625,15.6076875 C7.8631875,15.6976875 8.4245625,15.75 9,15.75 C13.97025,15.75 18,12.22425 18,7.875 C18,3.5263125 13.97025,0 9,0 Z" id="Shape" fill="#5B6C7B"></path>
    </g>
</svg>