<?xml version="1.0" encoding="UTF-8"?>
<svg width="12px" height="12px" viewBox="0 0 12 12" version="1.1" xmlns="http://www.w3.org/2000/svg" xmlns:xlink="http://www.w3.org/1999/xlink">
    <!-- Generator: Sketch 52.2 (67145) - http://www.bohemiancoding.com/sketch -->
    <title>申诉中</title>
    <desc>Created with Sketch.</desc>
    <g id="Symbols" stroke="none" stroke-width="1" fill="none" fill-rule="evenodd">
        <g id="line1-copy-15" transform="translate(-194.000000, -29.000000)" fill="#E65E6F" fill-rule="nonzero">
            <g id="申诉中" transform="translate(194.000000, 29.000000)">
                <path d="M5.99999988,0.0106849724 C2.68927789,0.0106849724 0.00538634646,2.69457652 0.00538634646,6.00529851 C0.00538634646,9.31602048 2.68927789,11.999912 5.99999988,11.999912 C9.31072186,11.999912 11.9946134,9.31602048 11.9946134,6.00529851 C11.9946134,2.69457652 9.31072186,0.0106849724 5.99999988,0.0106849724 Z M8.08782072,8.4160554 L7.91121014,8.59266591 C7.7648846,8.73896434 7.52764982,8.73896434 7.38133785,8.59266591 L5.54318863,6.75450313 C5.38308363,6.71188983 5.26453404,6.56732743 5.26453404,6.39382267 L5.26453404,2.64718925 C5.26453404,2.44025302 5.43226116,2.2725259 5.63919739,2.2725259 L5.88897748,2.2725259 C6.09588659,2.2725259 6.26364081,2.44025302 6.26364081,2.64718925 L6.26364081,6.06200321 L8.08782072,7.8861831 C8.23411909,8.03249507 8.23411909,8.26974344 8.08782072,8.4160554 Z" id="Shape"></path>
            </g>
        </g>
    </g>
</svg>