
<svg width="40px" height="40px" viewBox="0 0 40 40" version="1.1" xmlns="http://www.w3.org/2000/svg" xmlns:xlink="http://www.w3.org/1999/xlink">
    <defs>
        <linearGradient x1="50%" y1="0%" x2="50%" y2="100%" id="linearGradient-1">
            <stop stop-color="#22B4FF" offset="0%"></stop>
            <stop stop-color="#0F7DFF" offset="100%"></stop>
        </linearGradient>
        <path d="M50.6507695,37.1899082 L50.3270373,36.7355364 C49.9770566,36.2406761 49.968307,35.5703654 50.313913,35.0665076 L50.6288957,34.6076371 C51.1101192,33.9058352 50.8870065,32.9296108 50.1476722,32.5202264 L49.6664486,32.2548013 C49.1414775,31.9668826 48.8527434,31.3640528 48.9533629,30.7567242 L49.0452328,30.2033804 C49.1852251,29.3576191 48.568384,28.5748401 47.732805,28.5388503 L47.1859601,28.5163566 C46.5909928,28.4893642 46.0747712,28.0754811 45.9085303,27.4861474 L45.7554138,26.9462998 C45.5235515,26.1185335 44.6398501,25.6911541 43.8698925,26.0330576 L43.3667951,26.2534954 C42.8199502,26.4964268 42.1812354,26.3524675 41.7831323,25.893597 L41.4200272,25.4752151 C40.8644328,24.8363954 39.8888614,24.8408942 39.3376418,25.49321 L38.9789115,25.9160906 C38.5851831,26.3794598 37.950843,26.5324167 37.3996234,26.2984827 L36.8921513,26.0825437 C36.1178189,25.7541364 35.242867,26.1995106 35.0197543,27.027277 L34.8753872,27.5716233 C34.7178959,28.1654557 34.2104238,28.5883363 33.6154565,28.6198274 L33.0686116,28.6513185 C32.2330325,28.7008046 31.6293157,29.492581 31.7824323,30.3383423 L31.8830518,30.8916861 C31.9924208,31.4945159 31.7124362,32.1018445 31.1918398,32.3987607 L30.714991,32.6731832 C29.9844062,33.0915651 29.7744178,34.0722882 30.2687656,34.7650927 L30.5924978,35.2194644 C30.9424785,35.7143247 30.951228,36.3846355 30.605622,36.8884933 L30.2906394,37.3473637 C29.8094158,38.0491656 30.0325286,39.02539 30.7718629,39.4347745 L31.2530864,39.7001996 C31.7780576,39.9881183 32.0667917,40.5909481 31.9661722,41.1982767 L31.8743023,41.7516205 C31.73431,42.5973817 32.351151,43.3801607 33.1867301,43.4161506 L33.733575,43.4386442 C34.3285423,43.4656366 34.8447639,43.8795198 35.0110047,44.4688534 L35.1641213,45.008701 C35.3959836,45.8364674 36.279685,46.2638467 37.0496426,45.9219432 L37.5527399,45.7015055 C38.0995849,45.458574 38.7382997,45.6025334 39.1364028,46.0614039 L39.4995079,46.4797858 C40.0594771,47.1186054 41.0350484,47.1141067 41.5818933,46.4617908 L41.9406236,46.0389102 C42.3343519,45.575541 42.968692,45.4225842 43.5199117,45.6565182 L44.0273838,45.8724572 C44.8017162,46.2008645 45.6766681,45.7554902 45.8997808,44.9277239 L46.0441479,44.3833775 C46.2016392,43.7895452 46.7091113,43.3666646 47.3040786,43.3351734 L47.8509235,43.3036823 C48.6865025,43.2541963 49.2902193,42.4624198 49.1371028,41.6166586 L49.0364833,41.0633148 C48.9271143,40.4604849 49.2070989,39.8531564 49.7276953,39.5562402 L50.204544,39.2818177 C50.9351289,38.8679345 51.1451173,37.8872113 50.6507695,37.1899082 Z M35.4659797,34.1127768 C35.4659797,32.8891222 36.4284268,31.8994016 37.6183613,31.8994016 C38.8082959,31.8994016 39.7707429,32.8891222 39.7707429,34.1127768 C39.7707429,35.3364314 38.8082959,36.326152 37.6183613,36.326152 C36.4284268,36.326152 35.4659797,35.3319327 35.4659797,34.1127768 Z M38.0339635,39.8216653 C37.8502236,40.0511005 37.5177419,40.0825916 37.2946291,39.8936449 C37.0715164,39.7046983 37.0408931,39.3627948 37.224633,39.1333596 L42.8724473,32.1378343 C43.0561872,31.9083991 43.3886689,31.876908 43.6117817,32.0658546 C43.8348944,32.2548013 43.8655177,32.5967048 43.6817778,32.82614 L38.0339635,39.8216653 Z M43.2924242,40.0511005 C42.1024897,40.0511005 41.1400426,39.0613799 41.1400426,37.8377253 C41.1400426,36.6140707 42.1024897,35.6243501 43.2924242,35.6243501 C44.4823588,35.6243501 45.4448058,36.6140707 45.4448058,37.8377253 C45.4448058,39.0613799 44.4823588,40.0511005 43.2924242,40.0511005 Z" id="path-2"></path>
        <filter x="-33.5%" y="-22.8%" width="166.9%" height="163.8%" filterUnits="objectBoundingBox" id="filter-3">
            <feOffset dx="0" dy="2" in="SourceAlpha" result="shadowOffsetOuter1"></feOffset>
            <feGaussianBlur stdDeviation="2" in="shadowOffsetOuter1" result="shadowBlurOuter1"></feGaussianBlur>
            <feColorMatrix values="0 0 0 0 0   0 0 0 0 0   0 0 0 0 0  0 0 0 0.08 0" type="matrix" in="shadowBlurOuter1"></feColorMatrix>
        </filter>
    </defs>
    <g id="账户中心" stroke="none" stroke-width="1" fill="none" fill-rule="evenodd">
        <g id="账号概览-copy" transform="translate(-1011.000000, -391.000000)" fill-rule="nonzero">
            <g id="Group-10" transform="translate(327.000000, 293.000000)">
                <g id="Group-13-Copy-5" transform="translate(664.000000, 82.000000)">
                    <circle id="Oval-Copy-10" fill="url(#linearGradient-1)" opacity="0.502139137" cx="40" cy="36" r="20"></circle>
                    <g id="Shape">
                        <use fill="black" fill-opacity="1" filter="url(#filter-3)" xlink:href="#path-2"></use>
                        <use fill="#FFFFFF" xlink:href="#path-2"></use>
                    </g>
                </g>
            </g>
        </g>
    </g>
</svg>