<?xml version="1.0" encoding="UTF-8"?>
<svg width="15px" height="14px" viewBox="0 0 15 14" version="1.1" xmlns="http://www.w3.org/2000/svg" xmlns:xlink="http://www.w3.org/1999/xlink">
    <!-- Generator: Sketch 52.2 (67145) - http://www.bohemiancoding.com/sketch -->
    <title>Equalization</title>
    <desc>Created with Sketch.</desc>
    <g id="行情中心" stroke="none" stroke-width="1" fill="none" fill-rule="evenodd">
        <g id="交易中心2.0-copy" transform="translate(-1137.000000, -338.000000)" fill="#97989B" fill-rule="nonzero">
            <g id="Group-6" transform="translate(1130.000000, 331.000000)">
                <g id="Equalization" transform="translate(7.000000, 7.000000)">
                    <path d="M3,6.05184266 L3,0.509090909 C3,0.233472028 2.7760049,0.00979020979 2.5,0.00979020979 C2.2239951,0.00979020979 2,0.233496503 2,0.509090909 L2,6.05181818 C0.858995098,6.28301399 0,7.29013287 0,8.49792657 C0,9.70572028 0.858995098,10.7128147 2,10.943986 L2,13.4909336 C2,13.766528 2.2239951,13.9901853 2.5,13.9901853 C2.7760049,13.9901853 3,13.7665035 3,13.4909336 L3,10.9440105 C4.1410049,10.7128392 5,9.70574476 5,8.49795105 C5,7.29015734 4.1410049,6.28301399 3,6.05184266 Z M2.5,9.9958042 C1.6714951,9.9958042 1,9.32527273 1,8.49792657 C1,7.67058042 1.6714951,7 2.5,7 C3.3285049,7 4,7.67058042 4,8.49792657 C4,9.32527273 3.3285049,9.9958042 2.5,9.9958042 Z M8,1.05883566 L8,0.509090909 C8,0.233472028 7.77598039,0.00979020979 7.5,0.00979020979 C7.22401961,0.00979020979 7,0.233472028 7,0.509090909 L7,1.05881119 C5.8589951,1.28998252 5,2.29707692 5,3.5048951 C5,4.71271329 5.8589951,5.71978322 7,5.95095455 L7,13.4909091 C7,13.7665035 7.2239951,13.9901608 7.5,13.9901608 C7.7760049,13.9901608 8,13.766479 8,13.4909091 L8,5.95097902 C9.1410049,5.71980769 10,4.71271329 10,3.50491958 C10,2.29712587 9.1410049,1.29000699 8,1.05883566 Z M7.5,5.0027972 C6.6714951,5.0027972 6,4.33224126 6,3.5048951 C6,2.67754895 6.6714951,2.00699301 7.5,2.00699301 C8.3285049,2.00699301 9,2.67754895 9,3.5048951 C9,4.33224126 8.3285049,5.0027972 7.5,5.0027972 Z M13,8.04904545 L13,0.509090909 C13,0.233472028 12.7759804,0.00979020979 12.5,0.00979020979 C12.2240196,0.00979020979 12,0.233472028 12,0.509090909 L12,8.04904545 C10.8589951,8.28021678 10,9.28731119 10,10.4951049 C10,11.7028986 10.8589951,12.709993 12,12.9411643 L12,13.4909091 C12,13.7665035 12.2240196,13.9901608 12.5,13.9901608 C12.7759804,13.9901608 13,13.766479 13,13.4909091 L13,12.9411888 C14.1410049,12.7100175 15,11.7029231 15,10.4951294 C15,9.28733566 14.1410049,8.28024126 13,8.04904545 Z M12.5,11.993007 C11.6714951,11.993007 11,11.3224755 11,10.4951294 C11,9.66778322 11.6714951,8.9972028 12.5,8.9972028 C13.3285049,8.9972028 14,9.66778322 14,10.4951294 C14,11.3224755 13.3285049,11.993007 12.5,11.993007 Z" id="Shape"></path>
                </g>
            </g>
        </g>
    </g>
</svg>