<?xml version="1.0" encoding="UTF-8"?>
<svg width="28px" height="29px" viewBox="0 0 28 29" version="1.1" xmlns="http://www.w3.org/2000/svg" xmlns:xlink="http://www.w3.org/1999/xlink">
    <!-- Generator: Sketch 52.2 (67145) - http://www.bohemiancoding.com/sketch -->
    <title>3</title>
    <desc>Created with Sketch.</desc>
    <g id="Page-1" stroke="none" stroke-width="1" fill="none" fill-rule="evenodd">
        <g id="spotlight-立即登录" transform="translate(-113.000000, -35.000000)" fill="#3C5C96">
            <g id="基本信息" transform="translate(29.000000, 35.000000)">
                <g id="icon">
                    <g id="LinkedIn-color" transform="translate(86.000000, 3.000000)">
                        <path d="M23.2142857,21.2307462 L18.6992894,21.2307415 L18.6992894,14.7407804 C18.6992894,13.0420441 17.9930323,11.8823609 16.4399927,11.8823609 C15.2520904,11.8823609 14.5914771,12.6649399 14.2839901,13.4191436 C14.168683,13.6898545 14.1867,14.0669582 14.1867,14.4440623 L14.1867,21.2307462 L9.71375037,21.2307462 C9.71375037,21.2307462 9.77140395,9.73439129 9.71375037,8.68937722 L14.1867,8.68937722 L14.1867,10.6576424 C14.4509453,9.79704045 15.8802696,8.56879583 18.1611881,8.56879583 C20.9910128,8.56879583 23.2142857,10.3727443 23.2142857,14.2572503 L23.2142857,21.2307462 Z M5.19034589,7.12069764 L5.16151887,7.12069764 C3.7201817,7.12069764 2.78571429,6.16198191 2.78571429,4.94673882 C2.78571429,3.70785113 3.74780668,2.76923077 5.21797134,2.76923077 C6.6869335,2.76923077 7.59017306,3.70548806 7.61900055,4.94318959 C7.61900055,6.15843269 6.6869335,7.12069302 5.19034635,7.12069302 L5.19034589,7.12069764 Z M3.30099179,8.68940029 L7.2826856,8.68940029 L7.2826856,21.2307692 L3.30099179,21.2307692 L3.30099179,8.68940029 Z" id="Shape"></path>
                    </g>
                </g>
            </g>
        </g>
    </g>
</svg>