<?xml version="1.0" encoding="UTF-8"?>
<svg width="60px" height="60px" viewBox="0 0 60 60" version="1.1" xmlns="http://www.w3.org/2000/svg" xmlns:xlink="http://www.w3.org/1999/xlink">
    <title>2@2x</title>
    <g id="2" stroke="none" stroke-width="1" fill="none" fill-rule="evenodd">
        <rect id="矩形" fill="#49FFA1" fill-rule="nonzero" opacity="0.0799999982" x="0" y="0" width="60" height="60" rx="14"></rect>
        <path d="M22.8704579,28.9075866 L22.9626988,28.9381102 C22.9923774,29.0749877 23.0697582,29.0140237 23.1440587,28.9685922 C23.1440587,29.1210855 22.7797156,29.1664754 22.8704579,28.9075866 Z M26.0528221,29.976847 C26.0380036,30.0535101 26.0380036,30.0535101 25.9471779,30.0535101 L25.9784799,29.9464899 L26.0528221,29.976847 Z M24.0840408,30.0463745 L23.9159592,30.0767732 C23.9308193,29.9548035 24.0527388,29.817926 24.0840408,30.0463745 Z M24.1001494,30.0816497 C24.0079086,30.0816497 23.8414088,30.1270396 23.9172494,29.9142902 C24.0391689,29.9448138 24.1150096,29.9901204 24.1001494,30.0816497 Z M24.4112083,29.5482411 C24.2955604,29.5482411 24.0641941,29.3496248 24,29.1499171 C24.1157535,29.1499171 24.2314015,29.249771 24.2955252,29 C24.5922469,29.0743447 24.6174107,29.4484555 24.850044,29.4484555 C24.8890039,29.5983726 25.1329345,29.9480656 24.9016034,29.9979925 C24.7205296,30.0222739 24.4891985,29.8235894 24.4112083,29.5482411 Z M25.42361,30.1073646 C25.3795626,30.1981444 25.0425843,30.1833198 25,30.0769243 C25.1264824,30.0769243 25.2255121,30.1371804 25.35211,30.0769243 C25.35211,30.0003028 25.2957031,29.9392972 25.2530802,29.8634253 C25.3796011,29.8634253 25.5350377,29.9697792 25.7180425,29.9697792 C25.7180425,29.8477679 25.6767673,30.0003028 25.7180425,29.8329433 C25.8033267,29.8634253 25.9862544,30.0464006 26,30.1371804 C25.7180425,30.1073646 25.7180425,30.1073646 25.42361,30.1073646 Z M26.9375205,29.945867 C27.0118627,29.945867 27.0742584,29.9763907 27.0742584,30.0366468 C26.9970025,30.0366468 26.8899016,30.1132266 26.9375205,29.945867 Z M33.2500415,20 L31.7500692,20 C31.3244097,20 31,19.7702568 31,19.4996859 C31,19.2297063 31.3244097,19 31.7500692,19 L33.2500415,19 C33.6557613,19 34,19.2297063 34,19.4996859 C34,19.7702568 33.6557613,20 33.2500415,20 Z M35.0766315,22.95 C35.0766315,23.0290273 34.9397271,23.1081086 34.9233685,22.9895676 C34.9397271,22.9895676 34.9546288,22.9895676 34.9397271,22.95 L35.0766315,22.95 Z M34.5499546,20 C34.879957,20 34.5983989,20.1997118 34.5014457,20.1997118 C34.575404,20.2183463 34.5014457,20.3640429 34.5014457,20.4181077 C34.8107786,20.4181077 34.8107786,20.2725601 35.0462177,20.2183463 C34.9999696,20.4367919 34.6907014,20.4909064 34.9999696,20.6728285 C35.1660365,20.7634665 35.329972,20.8725899 35.2584036,21.0368217 C35.6600389,21.0368217 35.7086124,21.3270225 35.6369794,21.6724309 C35.8491653,21.6724309 35.8491653,21.6724309 35.8491653,21.5090439 C36.0616742,21.5632081 36.0385501,21.7087557 35.8491653,21.7087557 C35.6369794,22 35.1177215,22 34.7622051,22 C34.7392102,21.7638144 34.6907014,21.7452793 34.4092724,21.8179785 C34.0308258,21.9094613 34.3376395,21.5818426 34.3376395,21.4185053 C34.3860838,21.4185053 35.2123493,21.4362453 34.7160862,21.3092824 C34.6906368,20.9640231 34.5753394,20.8725403 34.1714434,20.8725403 C34.1714434,20.636454 34.0537561,20.654194 34.0076371,20.3816836 C33.9361334,20 34.3860838,20.418058 34.5499546,20 Z M34.1264546,21.5154695 C33.7426692,21.4379277 34.512342,21.3405237 34.533245,21.2439672 C34.4248182,21.2439672 34.3204785,21.1276015 34.383129,21.0310979 C34.4248182,20.9147852 34.533245,21.1664253 34.6605312,21.1086397 C34.8106472,21.1086397 35.1091275,20.8948171 34.9588364,21.3016998 C34.8106472,21.7095889 34.6605312,22 34.0847655,22 C33.8907416,21.8249483 34.0847655,21.7283917 34.1264546,21.5154695 Z M36.8862677,24.9089079 C37.0082288,24.9691224 37.0691677,24.9393483 37.0543076,24.8478606 C37.2060305,24.9089079 37.0230472,25.030128 36.9917869,25.1521394 C36.9174031,25.0606101 36.9324297,25.0457438 36.8862677,24.9089079 Z M37.0553918,24 C37.1609943,24 37.1921713,25.188948 36.8873102,24.9740125 C36.8873102,24.68523 36.8115528,24.1445392 36.9795927,24.1445392 C37.0241314,24.5759876 37.0553918,24.3961517 37.0553918,24 Z M38,25.9625896 C38.0862222,25.8100963 38.2642966,25.9321492 38.442532,25.9625896 C38.8218451,26.0235952 38.7069895,25.9625896 39,25.8867593 C39,26.3286235 38.5000402,25.9931549 38,25.9625896 Z M43.9126224,30.9366804 C43.9426355,30.9523762 44.2029163,30.9366804 44.2029163,30.8910578 C44.4480859,30.8910578 44.7547467,30.8604196 45,30.7834054 C45,31.1356198 44.693381,31.3352707 44.7547467,31.6716637 C44.5558316,31.6716637 44.6336479,31.8863408 44.6336479,31.9476591 C44.5110003,32.0239199 44.4945078,32.1772368 44.3419727,32.2534557 C44.3419727,32.4067307 43.9889318,32.6669466 43.8829442,32.8052792 C43.7751985,32.9428165 43.4072139,33.2187283 43.3623408,33.4018881 C43.3772845,33.3563074 42.7192572,34.0913326 42.8717504,34.0913326 C42.8717504,34.2288699 42.6878209,35.3011252 42.9316092,35.3011252 C42.9316092,35.4080661 43.1320731,36.3119784 43.0094674,36.3119784 C43.0094674,36.6029163 42.8254123,36.7867877 42.8254123,37.0162398 C42.7342428,37.0777256 42.5966515,37.1082801 42.5487645,37.1995671 C42.3813275,37.1995671 42.3051019,37.552493 42.2287087,37.552493 C42.2287087,37.9352201 42.106103,38.210504 42.106103,38.6396489 C42.1361161,38.6396489 41.8906953,39.2519955 41.8906953,39.297618 C41.6917802,39.4202966 41.1877949,39.9099646 41.1877949,40.1552799 L40.7735977,40.7220458 C40.682219,40.7220458 39.8537826,40.875279 39.8537826,40.9365974 C39.6862201,40.9365974 39.225601,41.0892027 39.1193622,40.9209015 C39.1193622,40.7369046 39.0282346,40.5231902 39.0116584,40.2927754 C38.9354745,40.2927754 38.9205727,39.9406447 38.8277707,39.9406447 C38.8277707,39.8644258 38.3072929,38.8228506 38.3850673,38.8228506 C38.3850673,38.715826 38.292391,38.3637371 38.2774472,38.3637371 C38.2774472,37.9958269 38.0022646,37.6900722 38.0022646,37.3378159 C37.9245319,37.3378159 37.757095,36.5872205 37.8482225,36.5872205 C37.8482225,36.1894254 37.9858976,35.9292095 38.0471377,35.4849966 C38.1084615,34.9944915 38.0171664,34.7036374 37.9244901,34.3672025 C37.8796588,34.3672025 37.725575,34.1070284 37.7106731,34.0299724 C37.4968142,33.8924351 37.4041378,33.6016228 37.4041378,33.3255855 C37.5565892,33.1723105 37.6029274,32.5599639 37.5715748,32.3611082 C37.2963503,32.2227756 37.1886883,32.2691516 36.8985619,32.2691516 C36.7145486,31.9169372 35.5360853,32.1315305 35.1995789,32.1315305 C35.1995789,32.3304699 34.3875514,32.1008923 34.311242,31.9476591 C34.1108618,31.9476591 33.7130315,31.5184306 33.7130315,31.3195749 C33.482722,31.1819538 33.1476806,30.4469287 33.1476806,30.2174347 C32.9473004,30.1253944 33.0087079,29.7575679 33.116328,29.7575679 C33.1312717,29.6506688 33.0399767,29.3291764 33.0087079,29.1759014 C32.9623278,29.0689605 33.116328,28.9463656 33.116328,28.8079912 C33.116328,28.4251804 33.116328,28.256963 33.330145,27.843472 C33.3915525,27.7207935 33.482722,27.5989101 33.5455108,27.4456351 C33.6681584,27.1697652 33.6980878,27.4299393 33.8506647,27.1855029 C33.9881305,27.1084469 34.0808487,26.8632152 34.2334675,26.74129 C34.2963401,26.6642758 34.2963401,26.6186533 34.2334675,26.5573768 C34.2649456,26.5573768 34.4174389,26.143844 34.4174389,26.0369868 C34.6312978,25.7453374 34.4788045,25.88367 34.6940866,25.8985705 C34.770396,25.8223516 34.8915785,25.6077582 35.0141424,25.6077582 C35.0619875,25.5008592 35.1995789,25.4395408 35.3221846,25.4395408 C35.3221846,25.6077582 35.7499861,25.3931649 35.8113099,25.3931649 C35.8726755,25.2406014 36.3630984,25.0716306 36.4857041,25.0716306 C36.4857041,24.8884707 37.4504341,25.1180484 37.6028855,25.0873264 L37.6028855,25.0103541 C37.8018006,25.0566882 38.1846034,25.88367 38.139814,26.0675414 C38.292391,26.0675414 38.4449679,26.0369868 38.5525462,26.0675414 C38.5525462,26.2507431 38.8741089,26.281465 39.0281928,26.2971609 C39.2420517,26.3121033 39.8537408,26.281465 39.8537408,25.9906109 C40.0227266,25.9906109 40.160276,26.0975518 40.1303467,26.2815069 C40.3143181,26.3121452 41.4000631,26.3277991 41.3253025,26.5573768 C41.4779213,26.5573768 41.5227107,26.8332467 41.6767527,26.8332467 C41.6454002,27.0163647 41.860766,27.5069116 42.0282448,27.5069116 C42.0282448,27.6752128 42.1359905,27.9660251 42.2734563,28.0729241 C42.3513145,28.3031715 42.6114278,28.792965 42.8402723,28.94624 C42.7490191,29.1301533 42.9943143,29.2983707 43.0706237,29.4823677 C43.0541312,29.4823677 43.1169619,29.77318 43.1932294,29.8038601 C43.1932294,30.0027158 43.6059197,30.7833217 43.8198623,30.7833217 C43.8364804,30.8754039 43.6225797,30.9217798 43.9126224,30.9366804 Z M46.2515242,23.922363 L45.459428,23.922363 L45.4395854,23.902258 C45.3999002,23.902258 45.2375568,23.5497507 45.2970846,23.4511558 L45.4199091,23.4712608 L45.2178251,23 C45.0554817,23.0987021 44.9128145,23.235684 44.6890589,23.2548776 C44.6890589,23.3141739 44.3663674,23.902258 44.6890589,23.902258 L44.6890589,23.9414493 C44.3030152,23.9806943 44,24.2748168 44,24.6483405 C44,25.0601442 44.3445294,25.3732994 44.7504711,25.3732994 L45.0554817,25.3732994 C45.075158,25.5111928 45.1347412,25.6290884 45.3999002,25.6874197 C45.4791597,26.0207871 46.1088017,26.1384683 46.1901674,25.7851031 C45.9465137,25.7851031 46.0277131,25.5504913 46.0494402,25.3732458 L46.2515242,25.3732458 C46.6773639,25.3732458 47,25.0600906 47,24.6482869 C47,24.2555696 46.6773639,23.922363 46.2515242,23.922363 Z M43.1192777,30.5495981 C43.1341898,30.4414812 43.0724774,30.3945529 43.0108494,30.3016696 C43.1644351,30.3016696 42.5171509,29.094441 42.5171509,28.8933138 C42.4253196,28.8464702 42.2869829,28.5062508 42.2703859,28.3823077 C42.1319228,28.2892975 41.9935862,27.9952871 41.9483024,27.8252197 C41.8098393,27.7322095 41.4697687,27.3292781 41.4246113,27.1441039 C41.6232702,27.1592107 41.9167091,27.205335 41.9167091,26.9581258 C41.778246,26.9581258 41.7616068,26.7879738 41.8851578,26.7879738 C41.8400426,26.6171448 41.9783792,26.4932017 42.0085825,26.3700203 C42.0400916,26.2150597 42.1018881,25.9670465 42.1018881,25.7811107 C41.9167091,25.7811107 41.8700773,25.8120859 41.7166179,25.8589296 C41.7166179,25.9670465 41.393018,25.828039 41.3463441,25.828039 C41.2695512,25.6881005 40.7459022,26.0139325 40.6059648,25.719118 C40.3605478,25.5029264 40.4372564,25.3479658 40.3605478,25.0380023 C40.3139582,24.883084 40.1138249,24.883084 39.9752776,24.8528282 C39.6200422,24.7750093 39.8834885,25.2860154 39.8669757,25.3940901 C40.0821473,25.3940901 39.7283863,25.6571676 39.7283863,25.7969792 C39.3582388,25.7191603 39.4816213,25.3169483 39.2664075,25.2089583 C39.1881824,25.0849305 39.2514533,25.0070694 39.0963511,25.0070694 C39.0963511,24.8679349 39.1730597,24.5890312 39.0195161,24.5428646 C39.0195161,24.4658075 38.7110809,24.4499814 38.664407,24.3569711 C38.4642317,24.3569711 38.0021686,23.6138627 37.8637477,23.8617912 C37.7855226,24.0167941 37.9404984,24.0629184 37.9720918,24.1869038 C38.2640984,24.1249111 38.2340216,24.6509816 38.5726179,24.604942 C38.5726179,24.6669347 38.5876563,24.7439918 38.6041691,24.8218953 C38.866141,24.7598603 38.8344634,25.0070694 38.9578459,25.0070694 C38.866141,25.1310548 38.5726179,24.8059845 38.6493265,25.0848882 C38.6960846,25.2398488 38.664407,25.3789833 38.4642317,25.5339016 C38.4642317,25.3630726 38.4491932,24.8989524 38.279179,24.8989524 C38.1556701,24.6509816 37.8019511,24.7130166 37.6469753,24.4960633 C37.5236349,24.4960633 37.4784775,24.1090426 37.2617051,24.0787868 C37.216632,24.1400178 37.0780847,24.1869038 37.014898,24.1869038 C36.9080283,24.4189215 36.2443998,24.217879 36.2443998,24.2488542 C36.2443998,24.2488542 35.8906387,25.1159057 35.8591296,25.2240227 C35.8290949,25.4719089 35.6288353,25.4719089 35.567123,25.703969 C35.5369619,25.828039 34.8266173,25.766004 34.8266173,25.8589296 C34.5195723,25.7500932 34.2577267,25.5339016 34.2577267,25.2089159 C34.2260913,25.2089159 34.302842,24.3418221 34.3660708,24.217879 C34.4262245,24.2329857 34.441305,24.2488542 34.4728984,24.3259113 C34.6580774,24.2488542 35.1050178,24.3727973 35.1050178,24.1558016 C35.2901969,24.1709507 35.33527,24.2329434 35.2600779,24.3727973 C35.4436983,24.4188792 35.7371793,24.449939 35.7371793,24.2178367 C35.6288353,24.2178367 35.6288353,24.2019682 35.6288353,24.1090003 C35.9524353,23.7687386 35.3819439,23.4588597 35.3819439,23.2887924 C35.2600779,23.2426681 35.0283092,22.9946973 35.1969333,23.0877075 C35.33527,23.164807 35.8591296,23.3349167 35.6453059,22.9788712 L35.6755092,22.947896 C35.7372215,22.9947396 35.9825121,23.2427104 35.9825121,23.0098887 C36.0457409,23.0098887 36.3075443,22.839779 36.0908141,22.839779 C36.1058525,22.7157936 36.1058525,22.622868 36.1058525,22.5457262 C36.4610458,22.7317467 36.2608283,22.4217408 36.4460916,22.2977977 C36.4460916,22.5305772 36.6295857,22.1896808 36.7380562,22.1896808 C36.876435,21.9885536 37.1864709,22.1435988 37.2617473,21.9107347 C37.0931231,21.8646105 37.1232842,21.4307038 37.1232842,21.2916117 C37.3250182,21.3225869 37.5552704,21.012708 37.586948,21.2145122 C37.60186,21.3074801 37.60186,21.5237141 37.6470596,21.5546469 C37.9405827,21.7096922 37.863832,21.4617637 37.863832,21.3075224 C37.7704842,21.3075224 37.6320211,20.966626 37.6169827,20.7965587 C37.5403162,20.7965587 37.4002946,20.8425983 37.370302,20.9046756 C37.0781689,20.9046756 36.8765192,20.7965587 36.6297121,20.7965587 C36.6147158,20.7496727 36.3377476,20.4404709 36.3528702,20.4404709 C36.1993266,20.1464604 36.5228845,20.2235176 36.5845968,20.2235176 C36.5845968,19.9446139 37.7104147,19.9914998 37.75553,19.5575509 C37.3852561,19.5575509 38.1408002,18.9233634 38.1408002,18.9233634 C38.3876073,18.7064524 38.5260704,18.5204319 38.8346319,18.5053252 C38.973095,18.4894567 40.4374249,18.0873716 40.4374249,18.2733074 L40.8995722,18.2883296 C38.0490531,15.6252245 34.2578952,14 30.0649543,14 C26.0133831,14 22.3140986,15.5330183 19.5087369,18.0404434 C19.5387295,18.0873293 19.5553687,18.149322 19.5553687,18.1802972 C19.6938317,18.1802972 19.9090034,18.0873716 19.9556773,18.2733074 C19.893965,18.2733074 19.8172142,18.257439 19.7404635,18.2422476 C19.8006172,18.6602858 19.5553266,18.412315 19.3551512,18.412315 C19.3551512,18.3964465 19.2769261,18.365556 19.1850948,18.3344961 L19,18.5053252 L19,18.5514494 C19.0617123,18.5514494 19.0300769,18.6444174 19.2167303,18.7064524 C19.4318598,18.7684451 19.6622384,18.814527 19.8789265,18.8455022 C20.0625049,18.8764774 20.1558526,18.814527 20.309312,18.814527 C20.309312,18.799378 20.6946243,18.6292683 20.4328209,18.6292683 C20.4644142,18.4743923 20.4026598,18.4433748 20.2341199,18.4433748 C20.2491583,18.2733074 20.6344285,18.3813821 20.7879721,18.3813821 C20.8963161,18.1802972 20.7879721,18.2112724 20.8963161,18.0252943 C21.0197408,17.7932342 21.1582038,17.9943614 21.2499509,17.7774081 C21.3734597,17.8242941 21.4818038,17.8862868 21.5284777,18.0563541 C21.6202669,18.1334113 22.1289195,18.8765197 22.1289195,18.3504069 C22.2990602,18.4123573 22.3908072,18.7525766 22.3908072,18.923448 C22.7294035,18.876562 22.7445262,18.6293529 22.7445262,18.3814244 C22.8227091,18.3814244 22.7294035,18.2574813 22.7294035,18.2113147 C22.8528702,18.1644711 22.9913333,18.3345385 22.9913333,18.1644711 C23.0530035,18.1644711 23.0530035,18.2113147 23.0530035,18.2733497 C23.2230599,18.3035633 23.3314461,18.2574813 23.4382736,18.2883719 C23.5150665,18.3194317 23.469867,18.6906262 23.4382736,18.8145693 C23.3915576,18.9853984 23.0846389,18.9853984 23.0846389,19.0624555 C22.7143229,19.3414016 23.4999438,19.480536 23.6234106,19.6354966 C23.5466177,19.6354966 23.2681751,19.6044791 23.2681751,19.5886107 C23.0996352,19.5886107 22.6676912,19.7745465 22.5141476,19.6354966 C22.7293614,19.6354966 22.8076707,19.3724191 22.8377054,19.1244482 C22.6376143,19.0473911 22.3907651,19.1705725 22.3290528,19.3724191 C22.2357471,19.7125961 22.0204912,19.3565506 21.8971087,19.5886107 C21.8670318,19.6044791 21.4652068,19.7904149 21.4652068,19.7284645 C21.0196986,19.7904149 21.1431654,20.1616095 21.1431654,20.5644986 C21.3117053,20.6725733 21.6818949,20.9825368 21.6518181,21.1526041 C22.0520845,21.2145968 22.2056703,21.2607211 22.5608636,21.3075647 C22.5909404,21.3695575 22.7143229,21.4307885 22.7760352,21.4466146 C22.7760352,21.678717 22.9912912,21.6477418 23.192983,21.6477418 C23.192983,21.3384976 23.5300628,21.8957126 23.5782532,21.9886382 C23.5300628,21.9886382 23.6534453,22.2978824 23.6851229,22.4067187 C23.6234106,22.3908079 23.6082879,22.4067187 23.6234106,22.4687114 C23.8085475,22.5306618 24.0703931,22.5148357 24.117067,22.3288152 C23.9469684,22.3288152 24.0087229,22.127815 24.0087229,22.019698 C23.840183,21.9108194 23.8702177,21.6946277 24.0387997,21.6477418 C24.0387997,21.8027024 24.5941263,21.5396248 24.285649,21.4156817 C24.3638741,21.245572 24.4090315,20.9824945 24.285649,20.8275339 C24.2088561,20.7346083 24.1020285,20.8275339 24.0704352,20.6877646 C24.285649,20.6257719 24.1171091,20.2235599 24.1171091,20.0225173 C24.1938177,19.9915421 24.3638741,20.0685993 24.3638741,20.0225173 C24.57913,20.0225173 24.9327226,20.2855103 25.0562315,19.9756314 C25.3963863,20.1306343 25.1194602,20.2855103 25.4880913,20.1616095 C25.4880913,20.2546197 25.9049969,20.6567471 25.9501964,20.6567471 C25.9501964,20.6726156 25.9501964,20.7966433 26.0435021,20.7966433 C26.0435021,20.8737004 25.9818319,20.7346506 25.9818319,20.9047603 C26.0284215,20.9047603 26.3053476,20.9515193 26.3053476,20.8426829 C26.4905267,20.8426829 26.6123927,20.6258142 26.6123927,20.4556623 C26.7207368,20.3937119 26.9224286,21.0596362 27.0458532,21.0596362 C27.1527651,21.2146392 27.4612003,21.4466569 27.4612003,21.5858337 C27.5229547,21.6478264 27.5997054,21.6326773 27.5997054,21.8337199 C27.6764141,21.8337199 27.8464704,21.5087343 27.8464704,21.8027447 C27.9233054,21.8027447 28.1385192,21.9728544 28.1700704,22.1126659 C27.9699372,22.1126659 28.1535155,22.2979247 28.0617264,22.2979247 C28.0617264,22.4838605 27.6297823,22.3288576 27.5379931,22.3288576 C27.4145685,22.9177671 26.6123927,22.4838605 26.1518883,22.6388634 C25.8900427,22.7318736 25.4113405,23.2738549 25.3813479,23.5519546 C25.6883088,23.5679077 25.8116912,23.2889616 26.0886174,23.1959514 C26.3053476,23.1959514 26.3505471,23.0720083 26.552239,23.0100156 C26.552239,23.0720083 26.6123927,23.0409908 26.6123927,23.0878768 C26.2271225,23.0878768 26.4588912,23.350912 26.5672353,23.5210217 C26.643986,23.6450071 26.7207368,23.6918931 26.8140424,23.7380173 C26.7839234,23.7999677 26.7523722,23.8619181 26.7207368,23.9390176 C26.643986,23.9699928 26.505523,24.0168787 26.4738875,24.0788714 C26.0284215,24.1249957 26.2436353,24.0939782 26.2753129,23.9858612 C26.2902671,24.0319432 26.4588912,24.0010103 26.4438528,24.0010103 C26.4136917,23.8618758 26.3821405,23.8769826 26.4136917,23.7999254 C26.181923,23.7999254 26.0585405,23.9080424 25.8734036,23.9080424 C25.8418102,23.9858612 25.6732703,24.1401025 25.5965196,24.1401025 C25.5498878,24.2950631 25.4113405,24.6050266 25.2729617,24.7131436 C25.2729617,24.6670193 24.8876494,24.9610721 24.9177263,24.9610721 C24.8259371,25.1001642 24.7341901,25.0850152 24.7025546,25.3170752 C24.6709613,25.3170752 24.5641337,25.6882275 24.5641337,25.7502202 C24.3940352,25.8590565 24.3322807,26.3232613 24.0388419,26.3232613 C23.8552635,26.6793068 23.5466598,26.6331825 23.5466598,27.0973449 C23.6535296,27.2054619 23.7016778,27.6854082 23.7318389,27.8404111 C23.7619158,28.041496 23.840183,28.2433002 23.5782953,28.2433002 C23.5616561,28.212325 23.3765613,27.9334213 23.4082389,27.9334213 C23.4082389,27.8253043 23.2682173,27.4692165 23.1930251,27.3452735 C23.0846811,27.2054619 22.8829471,27.376291 22.7294035,27.3142983 C22.6526949,27.1752061 22.2057124,27.1442309 22.0371725,27.1442309 C22.0672072,27.2522632 22.1440422,27.2833231 22.1440422,27.3913977 C22.0205333,27.4533904 21.9438247,27.5153831 21.8054038,27.4844079 C21.5585124,27.4533904 21.5886735,27.2674546 21.3267858,27.2983875 C20.9113967,27.3452311 20.6194322,27.6854082 20.6194322,28.1034464 C20.5712418,28.1034464 20.5712418,28.9243737 20.6194322,28.9243737 C20.6194322,29.1564337 20.8030105,29.3265434 20.8030105,29.4974148 C21.0047023,29.4974148 21.2034033,29.914649 21.3900146,29.914649 C21.4050109,30.0544605 21.2966247,30.0855203 21.6037119,30.0695672 C21.6037119,30.0544605 21.7752848,29.9766417 21.7903654,29.8534602 C21.573593,29.8065743 21.7903654,29.5276706 21.9288284,29.4664396 C21.9288284,29.6674821 22.2057545,29.4044046 22.2057545,29.3885784 L22.5142318,29.2804191 C22.5142318,29.0635081 22.7144072,29.311479 22.5609478,29.3885784 C22.4058877,29.3885784 22.4224848,29.6365069 22.3441754,29.6365069 C22.3141407,29.8224427 22.2358314,29.9616195 22.190674,30.1316446 C22.1440422,30.3485979 22.3140986,30.3637046 22.2674247,30.5655089 C22.4826385,30.6115908 22.6993266,30.5655089 22.9146247,30.5655089 C22.9146247,30.5345337 22.9146247,30.4876477 22.8829892,30.4566725 C23.2080636,30.4566725 22.9146247,31.0606042 23.1147579,31.0606042 C23.1147579,31.2927489 23.223102,31.4628163 23.223102,31.6177769 C23.361565,31.7107025 23.4548707,31.8346456 23.408281,32.0207083 C23.5933337,32.0515566 23.978646,32.0977655 23.978646,31.849837 C24.2555721,31.849837 24.2856911,32.0515989 24.2555721,32.2368576 C24.8094243,32.2368576 24.4723024,31.6955957 24.7025967,31.6955957 C24.7175509,31.6025432 24.7492285,31.5866747 24.8094665,31.6487521 C24.9178105,31.7107025 25.0111583,31.5247667 25.0878669,31.4786424 C25.1195024,31.462774 25.22633,31.4015429 25.2428849,31.4015429 C25.3181191,31.4476249 25.3181191,31.4324758 25.364793,31.4786424 C25.5048147,31.4786424 25.6583161,31.4015429 25.7967371,31.308575 C25.9819161,31.3395079 25.9201196,31.7575461 26.2903513,31.7886482 C26.443937,31.7886482 26.7840077,31.8346032 26.9059158,31.7418046 C26.9375513,31.7265709 27.0609338,31.8195388 27.0760143,31.8657054 C27.1994811,31.8657054 27.1843584,31.9738224 27.2445542,31.9738224 C27.2445542,31.9896908 27.2761897,32.0047129 27.2912703,31.9896908 C27.3078252,32.0357728 27.4146528,32.0515989 27.4612845,32.1907334 C27.4612845,32.2988503 27.7081338,32.3298255 27.7081338,32.407729 C27.8767158,32.5006546 27.6464215,32.515846 27.9083091,32.5935802 C28.0618106,32.6397891 28.201748,32.7168462 28.3552495,32.7327993 C28.4169618,32.5317144 28.5870182,32.7636898 28.6622524,32.7636898 C28.7104007,32.8567424 28.7254391,32.7787966 28.7706386,32.8718068 C29.0174458,33.0888024 28.8639864,32.9958345 28.9556913,33.2279369 C29.0792002,33.3057134 29.125832,33.5839824 29.1558667,33.7388584 C29.0641196,33.7388584 29.1257898,34.125879 29.1257898,34.1568966 C29.0023231,34.1568966 29.4327507,34.3889989 29.4327507,34.1108146 C29.602807,34.1258367 29.7111511,34.3270062 29.8347021,34.3270062 C29.7729056,34.4818399 30.0347932,34.6059523 30.0347932,34.3428747 C30.2966809,34.3737652 30.2199723,34.7608282 30.1883368,34.8999627 C30.3900287,34.8999627 30.4351018,34.7919304 30.6052425,34.7760196 C30.7903373,34.6519496 30.9739156,34.5748501 31.2057264,34.5748501 C31.8378458,34.5748501 32.3464985,35.0858562 32.3464985,35.7201283 C32.3464985,36.2931271 31.9145123,36.7420982 31.3758249,36.8200863 L31.2358454,36.9741582 C31.2358454,37.0363202 31.2208491,37.5780899 31.2057264,37.5780899 C31.2057264,37.6862069 31.1289336,38.2902655 31.0371023,38.2902655 C31.0371023,38.6002714 30.8354526,38.6621794 30.775341,38.9561899 C30.6052425,39.0802599 30.1582179,39.2812602 30.0799506,39.420437 C29.9580425,39.420437 29.8662533,39.5292733 29.7263159,39.5292733 C29.7111511,39.5602062 29.4327085,39.8232838 29.480941,39.8232838 C29.4643861,40.024284 29.4959795,40.4732974 29.3875933,40.6125165 C29.3259231,40.6903353 29.2174948,40.6903353 29.2642108,40.8135167 C29.110625,40.8135167 29.2792071,40.9223954 29.0324421,40.9223954 C28.8788985,40.9223954 28.6019724,41.138587 28.6019724,41.3246075 C28.5869339,41.5565829 28.5237894,41.7115435 28.3400847,41.851482 C28.3400847,41.9284122 27.9849335,41.9595566 27.9849335,42.1606415 C28.0149682,42.1606415 27.9849335,42.5324708 27.9849335,42.5635306 C27.8765894,42.5635306 27.6146596,42.6716899 27.5695022,42.7645732 C27.214351,42.7645732 27.2610249,42.7956753 27.0141335,42.9505936 C27.0141335,42.9966756 26.9826244,43.1666583 26.9374249,43.1666583 C26.9374249,43.4456889 26.7357331,43.1976758 26.5822316,43.337572 C26.6439439,43.337572 26.7206946,43.6005226 26.6905757,43.6005226 C26.6905757,43.8478587 26.5371163,43.8637271 26.3986533,44.049536 C26.3204703,44.0957449 26.2586316,44.2967874 26.1969193,44.2967874 C26.1969193,44.451875 26.1202107,44.6067933 26.1202107,44.7617116 C26.1518461,44.7617116 26.1202107,44.8237043 26.1518461,44.9008037 C26.2270804,44.8697439 26.2270804,44.7926868 26.2586316,44.7926868 C26.2586316,44.6528329 26.4738454,44.8697016 26.3354666,44.8697016 C26.2270804,45.0398113 26.1051723,45.0398113 26.0434599,45.2727177 C25.9651927,45.2727177 25.9049548,45.3498171 25.858323,45.4268743 C27.1993126,45.7988728 28.6019724,46 30.0649122,46 C35.6755934,46 40.5909685,43.0896011 43.4264492,38.6931123 C43.4430041,38.2901809 43.5197127,37.9030756 43.5499159,37.7791748 C43.6732563,37.856909 43.7516499,38.0119965 43.82819,37.7791748 C43.6280568,37.7329659 43.6732142,37.6710578 43.7516499,37.5009481 C43.82819,37.5470724 43.9818178,37.5939584 44.090204,37.5939584 L44.1969895,37.3769204 C44.090204,37.2840371 44.2436213,37.0669992 44.2903373,37.1759625 L44.383685,37.0051334 L44.3519653,37.0051334 C44.3519653,36.9120809 44.3670459,36.9120809 44.4287582,36.865872 L44.4287582,36.881148 C45.4311515,34.8067832 46,32.4694255 46,30.0074053 L45.9849616,29.7602384 C45.9548426,29.8683131 45.9082108,29.9922562 45.8315022,30.0233583 C45.8315022,30.1004155 45.0142037,30.4413119 45.0608355,30.5963148 C44.9224988,30.5963148 44.4137198,30.7354493 44.320372,30.9213851 C44.2285407,30.9213851 43.8117193,31.0756263 43.7815161,31.1376614 C43.2726949,31.1377883 43.3660427,30.5495981 43.1192777,30.5495981 Z M42.8820509,24.6350329 C42.9185443,23.950452 42.3951322,24.0569827 42.2273647,23.6724544 C42.0596993,23.6724544 42.0050358,23.5219894 41.7605557,23.5219894 C41.6110604,23.479108 41.4997939,23.5219894 41.4068506,23.650575 C41.0511549,23.8000455 41.2754234,23.4582231 40.994705,23.4582231 C41.0147126,23.0726418 40.8834895,22.9661111 40.5095217,23.008817 C40.2871928,23.5648122 39.9498204,23.8856912 40.0062703,24.5064473 C40.1559187,24.5492116 40.1376975,24.5921515 40.0993156,24.7854979 C40.3236351,24.7854979 41.5929413,24.6997352 41.5929413,24.5492116 C41.6492891,24.5492116 41.8555405,25.063437 41.8555405,24.6350329 C42.0414271,24.6350329 42.1344214,25.1063184 42.5628997,24.9777913 C42.5628997,25.063437 43.2741889,24.6350329 42.8820509,24.6350329 Z M41.9241593,19.9006628 C41.9687813,19.9773259 41.9984183,20.0531561 41.9836414,20.0993372 C42.0297618,20.0993372 42.0460372,20.0836798 42.0758407,20.0687719 L41.9241593,19.9006628 Z M40.9742486,19.95 L40.95,19.982844 L41.05,20.05 L40.9742486,19.95 Z M19.3979883,27.854121 C19.3979883,27.6900457 19.0253196,27.4063943 18.9219453,27.4063943 C18.9219453,27.3765105 18.7719977,27.0475435 18.7123039,27.0475435 C18.7123039,26.9279266 18.3104606,26.4056945 18.2492998,26.6296599 C18.2056195,26.7791606 18.5491951,26.9731605 18.5491951,27.1525451 C18.6074628,27.1525451 18.8913039,27.6601619 18.9364104,27.7498134 C19.531841,28.7650061 18.5026217,28.0779639 18.5026217,27.6448117 C18.3686468,27.5850441 18.1459256,27.0774682 18.1459256,26.9279266 C18.071726,26.8681589 17.847538,26.3759331 17.8620846,26.3759331 C17.8620846,26.0615814 17.6845107,25.8975062 17.3263478,25.8975062 L17.011906,25.4496571 C17.011906,25.3300401 16.7745568,24.9121565 16.6392372,24.8523888 C16.6392372,24.5680026 16.5052623,24.2397296 16.5664637,23.9560782 C16.5664637,23.6570359 16.5504096,23.313576 16.4470353,23 C15.5371222,24.9865803 15,27.1818166 15,29.5118567 C15,36.1732142 19.2188661,41.834076 25.1221167,44 C25.1382116,43.4473126 25.1817697,42.7900317 25.3012389,42.7900317 C25.3012389,42.7157712 25.3769054,42.3722706 25.4350916,42.3722706 C25.4350916,42.1629205 25.4495974,41.9091529 25.4350916,41.6553446 C25.3463047,41.4905753 25.5398919,41.2964529 25.5836131,41.042767 C25.8980956,40.8932254 25.6738669,39.3551066 25.9126014,39.3551066 C25.9126014,38.5930691 26.0756695,38.1451792 25.9563226,37.4283348 C26.0174425,37.4283348 25.6142138,36.9951827 25.6142138,37.0097572 C25.2269985,37.0097572 24.9576225,36.3825234 24.9576225,36.1141406 C24.9139421,35.9792551 24.823729,35.7998297 24.823729,35.6511046 C24.9139013,35.6511046 24.273405,34.7095192 24.273405,34.7248285 C23.9298701,34.5454848 24.288033,34.2763262 24.3171261,33.9627502 C24.0201239,33.8737519 24.3171261,33.0671745 24.451101,33.0671745 C24.4656068,32.9621728 24.512221,32.8877082 24.6155952,32.8578244 C24.675289,33.1115919 24.9883047,32.7236329 24.7495294,32.7236329 C24.7495294,32.5442075 24.7204363,32.1707822 24.7495294,32.0957869 C24.7495294,31.8273632 24.5122617,31.2891277 24.3171668,31.8571654 C24.1234981,31.7522045 23.6169359,31.7675547 23.5718294,31.4539787 C23.6169359,31.3044371 23.2893737,30.9755109 23.1845733,30.9310118 C23.2893737,30.6472787 22.6488773,30.2884279 22.410102,30.2884279 C22.410102,30.2287011 22.2907143,30.2586257 22.2601136,30.1842428 C22.0228459,30.1842428 21.961726,29.8706259 21.6938168,29.8706259 C21.3953885,29.8706259 21.0823321,29.6612758 20.7999579,29.6612758 C20.7097041,29.4673576 20.2627949,29.5416997 20.1594207,29.3331253 C19.9352735,29.3331253 19.8449789,28.8999732 19.8449789,28.7351631 C19.8303509,28.5411632 19.6673236,27.854121 19.3979883,27.854121 Z M45,28.6666788 C45.0269473,28.6529757 45.0397913,28.6262983 45.0539306,28.5865739 C45.0668106,28.7063304 45.1182587,28.8000656 45.1978773,28.8665403 L45.1978773,28.8932177 L45.2236733,28.880207 C45.3033999,28.9466088 45.3958626,29 45.5141572,29 C45.6851232,29 45.8303652,28.8932177 45.9215686,28.759758 L45.9485519,28.7864354 L45.9357798,28.7330807 C45.9743119,28.6666788 46,28.5865374 46,28.5064689 C46,28.2265389 45.7905738,28.0130107 45.5141572,28.0130107 C45.34186,28.0130107 45.1978773,28.1067459 45.1182587,28.2395495 C45.1053787,28.2395495 45.1182587,28.2265024 45.1053787,28.2265024 C45.1182587,28.1868508 45.0797266,28.0930792 45.0269473,28 L45.0269473,28.5064325 C45.0269473,28.5598236 45.0128081,28.6132877 45,28.6666788 Z M29.9992924,48 C20.0560503,48 12,39.9406323 12,30.0074123 C12,20.0593261 20.0560503,12 29.9992924,12 C39.9440329,12 48,20.0593261 48,30.0074123 C48,39.9406323 39.9440329,48 29.9992924,48 Z" id="形状" fill="#49FFA1" fill-rule="nonzero"></path>
    </g>
</svg>