<!-- Generated by IcoMoon.io -->
<svg version="1.1" xmlns="http://www.w3.org/2000/svg" width="32" height="32" viewBox="0 0 32 32">
<title>middle_icon_14px7</title>
<path d="M16 29.333c-7.364 0-13.333-5.97-13.333-13.333s5.97-13.333 13.333-13.333c7.364 0 13.333 5.97 13.333 13.333s-5.97 13.333-13.333 13.333zM16.133 9.333c-0.8 0-1.467 0.667-1.467 1.467s0.667 1.467 1.467 1.467c0.8 0 1.467-0.667 1.467-1.467s-0.667-1.467-1.467-1.467zM12.668 13.415l-0.001 0.985c0 0 2.001-0.138 2.001 1.681v2c0 2-2.001 2.319-2.001 2.319l0.001 1.015h6.933l-0.001-1.015c0 0-1.6 0-1.6-2l0.001-3.652c0 0 0-1.333-1.333-1.333h-4z"></path>
</svg>
