<?xml version="1.0" encoding="UTF-8"?>
<svg width="12px" height="14px" viewBox="0 0 12 14" version="1.1" xmlns="http://www.w3.org/2000/svg" xmlns:xlink="http://www.w3.org/1999/xlink">
    <!-- Generator: Sketch 52.2 (67145) - http://www.bohemiancoding.com/sketch -->
    <title>Play Download Copy</title>
    <desc>Created with Sketch.</desc>
    <g id="扶뒬못" stroke="none" stroke-width="1" fill="none" fill-rule="evenodd">
        <g id="扶뒬못2.0-copy" transform="translate(-1141.000000, -329.000000)" fill="#5F6367" fill-rule="nonzero">
            <g id="Group-24" transform="translate(1123.000000, 87.000000)">
                <g id="Play-Download-Copy" transform="translate(18.000000, 242.000000)">
                    <path d="M10.8,2.94736842 L8.4,2.94736842 L8.4,1.47368421 L7.2,0 L4.8,0 L3.6,1.47368421 L3.6,2.94736842 L1.2,2.94736842 C0.537,2.94736842 0.006,3.60684211 0.006,4.42105263 L0,12.5263158 C0,13.3405263 0.537,14 1.2,14 L10.8,14 C11.463,14 12,13.3405263 12,12.5263158 L12,4.42105263 C12,3.60684211 11.463,2.94736842 10.8,2.94736842 Z M4.8,1.47368421 L7.2,1.47368421 L7.2,2.94736842 L4.8,2.94736842 L4.8,1.47368421 Z M6,12.5263158 L3,8.84210526 L4.8,8.84210526 L4.8,5.89473684 L7.2,5.89473684 L7.2,8.84210526 L9,8.84210526 L6,12.5263158 Z" id="Shape"></path>
                </g>
            </g>
        </g>
    </g>
</svg>