<!-- Generated by IcoMoon.io -->
<svg version="1.1" xmlns="http://www.w3.org/2000/svg" width="32" height="32" viewBox="0 0 32 32">
<title>min_icon_12px13</title>
<path d="M25.536 20.964h-12.346c-0.599 0-1.083-0.523-1.083-1.162s0.485-1.162 1.083-1.162h12.346c0.599 0 1.083 0.523 1.083 1.162s-0.485 1.162-1.083 1.162zM25.536 15.545h-12.346c-0.599 0-1.083-0.523-1.083-1.162s0.485-1.162 1.083-1.162h12.346c0.599 0 1.083 0.523 1.083 1.162s-0.485 1.162-1.083 1.162zM25.458 10.321h-18.905c-0.639 0-1.2-0.485-1.219-1.121-0.019-0.658 0.504-1.2 1.162-1.2h18.905c0.639 0 1.2 0.485 1.219 1.121 0.019 0.658-0.504 1.2-1.162 1.2zM5.334 20.945v-7.702l5.4 3.851-5.4 3.851c0 0.019 0 0.019 0 0zM6.496 23.867h18.905c0.639 0 1.2 0.485 1.219 1.121 0.019 0.658-0.504 1.2-1.162 1.2h-18.905c-0.639 0-1.2-0.485-1.219-1.121-0.019-0.658 0.504-1.2 1.162-1.2z"></path>
</svg>
