<!-- Generated by IcoMoon.io -->
<svg version="1.1" xmlns="http://www.w3.org/2000/svg" width="32" height="32" viewBox="0 0 32 32">
<title>middle_icon_14px4</title>
<path d="M28.723 22.26c-1.18-1.423-2.796-3.437-2.796-5.492v-6.543c0-5.638-4.254-10.224-9.691-10.224s-9.657 4.587-9.657 10.224v6.543c0 2.020-1.754 3.93-2.866 5.412-1 1.331-1.789 2.383-1.257 3.434 0.469 0.925 1.643 1.044 2.611 1.044h5.794c0 2.95 2.416 5.342 5.393 5.342s5.392-2.391 5.393-5.342h5.93c0.616 0 2.058 0 2.554-1.041 0.501-1.053-0.301-2.020-1.412-3.358l0.001 0.001zM16.255 29.901c-1.808 0-3.274-1.452-3.277-3.242h6.553c-0 1.791-1.469 3.242-3.276 3.242h0zM27.579 24.524h-22.51c-0.155 0-0.283-0.004-0.391-0.011 0.207-0.32 0.514-0.73 0.763-1.060 1.232-1.642 3.29-3.958 3.29-6.685v-6.543c0-4.462 3.255-8.090 7.505-8.090s7.538 3.629 7.538 8.090v6.543c0 2.819 1.899 5.175 3.285 6.846 0.233 0.282 0.513 0.62 0.731 0.906-0.064 0-0.134 0-0.211 0l-0.001 0.003z"></path>
</svg>
