<!-- Generated by IcoMoon.io -->
<svg version="1.1" xmlns="http://www.w3.org/2000/svg" width="32" height="32" viewBox="0 0 32 32">
<title>middle_icon_14px1</title>
<path d="M23.18 30.762c-0.271 0-0.518-0.163-0.623-0.416l-4.876-11.751-16.988 0.242c-0.314 0.006-0.591-0.21-0.665-0.516s0.074-0.623 0.356-0.763l30.634-15.198c0.241-0.119 0.529-0.085 0.734 0.089s0.288 0.452 0.211 0.709l-8.137 27.122c-0.082 0.273-0.327 0.465-0.611 0.48-0.012 0.001-0.023 0.001-0.034 0.001zM18.129 17.24c0.272 0 0.518 0.164 0.623 0.416l4.326 10.426 7.147-23.822-26.58 13.187 14.474-0.206c0.003-0 0.006-0 0.010-0z"></path>
</svg>
