<svg fill="none" height="22" viewBox="0 0 22 22" width="22" xmlns="http://www.w3.org/2000/svg"><path d="m7.14507 1.86967c.00962-.1986.07895-.38965.19891-.54802.11997-.15837.28494-.27664.47324-.339305.18829-.062662.39106-.066782.58173-.011784.19066.054999.36028.166539.48653.319929l4.30452 5.19273c.0875.10336.1951.18792.3161.24855.121.06064.2529.09611.388.10429l6.7225.38614c.1974.01274.3865.08447.5428.20597.1564.12149.2728.28715.3343.47561s.0652.39107.0107.58166c-.0545.1906-.1648.36046-.3166.48764l-5.1746 4.31392c-.1041.087-.189.1946-.2496.316-.0606.1215-.0955.2541-.1025.3897l-.3919 6.7373c-.0127.1978-.0844.3873-.2056.544s-.2865.2734-.4745.335c-.1881.0617-.3903.0654-.5804.0108-.1902-.0547-.3597-.1652-.4866-.3173l-4.30448-5.1861c-.08121-.1007-.18197-.1839-.29614-.2446-.11417-.0606-.23938-.0974-.36814-.1082l-6.72249-.3928c-.19798-.0115-.388-.0824-.54532-.2034-.15731-.1211-.27472-.2866-.337-.4753-.062285-.1887-.066594-.3918-.012325-.583.054268-.1912.164585-.3616.316655-.4892l5.18139-4.31395c.10354-.08595.18828-.19241.24886-.31269.06058-.12029.09572-.25181.10323-.38634z" fill="#ffd056"/></svg>