<svg fill="none" height="14" viewBox="0 0 14 14" width="14" xmlns="http://www.w3.org/2000/svg"><path d="m8.29665 1.17506c.17096-.176543.39104-.297406.63152-.346847.24047-.04944.49022-.025167.71674.069661.22651.094827.41929.255816.55319.461996s.2028.448.1977.69397l-.0664 3.32867c-.0019.16823.03.33511.094.49068.0639.15556.1584.29661.2779.41473l2.3914 2.32341c.1751.17228.2947.39315.3435.63416.0488.24102.0244.49114-.0699.71816-.0943.22705-.2543.42055-.4594.55565-.205.1351-.4456.2056-.691.2024l-3.32138-.0666c-.16808-.0034-.33507.0279-.49051.0921-.15544.0641-.29599.1597-.4129.2808l-2.31832 2.3899c-.17191.1755-.39233.2954-.63282.3443-.24048.0488-.49006.0244-.71658-.0701s-.41959-.2548-.5544-.4603-.20517-.4467-.20199-.6926l.06641-3.3287c.00467-.16861-.02601-.33632-.09009-.49228s-.16008-.29671-.28186-.41312l-2.384819-2.33008c-.176161-.17134-.296754-.39187-.346086-.63287-.049332-.24101-.025127-.49131.069493-.71832.09462-.22702.25526-.42021.460992-.55444.20573-.13422.44706-.20325.69249-.19809l3.32139.06657c.16802.00306.33487-.02844.49026-.09256.15539-.06413.296-.15951.41315-.28026z" fill="#ffd056"/></svg>