<svg fill="none" height="27" viewBox="0 0 27 27" width="27" xmlns="http://www.w3.org/2000/svg"><path d="m8.10438 1.51308c.01222-.24862.09933-.4877.24984-.685718.1505-.198021.35732-.34569.59324-.423541s.48989-.082224.72834-.012556c.23845.069669.4502.210106.6074.402818l5.3807 6.484267c.109.12873.2429.23402.3936.30953s.3151.11969.4833.12986l8.3964.48598c.2479.01416.4858.10283.6826.25446.1969.15163.3436.35918.421.5956.0775.23642.0821.49075.0132.72981-.0689.23901-.2081.45181-.3994.61041l-6.4634 5.3858c-.1305.1079-.2375.2416-.314.3928-.0766.1512-.1213.3167-.1311.486l-.4849 8.4215c-.0141.2485-.1026.4869-.2539.6842s-.3584.3443-.5943.4219-.4896.0822-.7281.0131c-.2386-.069-.4509-.2085-.6092-.4002l-5.374-6.4842c-.1076-.1309-.2411-.238-.392-.3148-.1508-.0767-.31586-.1214-.48478-.1313l-8.40313-.486c-.24634-.0155-.482411-.1047-.677735-.2559-.195323-.1513-.340977-.3577-.418173-.5926-.077196-.235-.082375-.4877-.014921-.7257.067454-.2379.204433-.4502.393361-.6094l6.470138-5.3924c.13055-.1079.23747-.2417.31406-.3929.07658-.1512.12113-.3166.13095-.48592z" fill="#ffd056"/></svg>