<svg fill="none" height="17" viewBox="0 0 16 17" width="16" xmlns="http://www.w3.org/2000/svg"><g fill="#8c8c8c"><path d="m5.33335 6.70822c0-1.47275 1.19391-2.66667 2.66667-2.66667s2.66668 1.19392 2.66668 2.66667c0 1.24256-.84986 2.28663-2.00001 2.58266v.75072c0 .3681-.29848.6666-.66667.6666s-.66667-.2985-.66667-.6666v-1.33338c0-.36819.29848-.66667.66667-.66667.73638 0 1.33333-.59695 1.33333-1.33333s-.59695-1.33333-1.33333-1.33333-1.33333.59695-1.33333 1.33333c0 .36819-.29848.66667-.66667.66667s-.66667-.29848-.66667-.66667z"/><path d="m8.83335 12.2082c0 .4603-.3731.8334-.83333.8334s-.83333-.3731-.83333-.8334c0-.4602.3731-.8333.83333-.8333s.83333.3731.83333.8333z"/><path clip-rule="evenodd" d="m2.81457 3.3145c1.32636-1.32633 3.1606-2.14787 5.18545-2.14787 2.02488 0 3.85908.82154 5.18548 2.14788 1.3263 1.32635 2.1479 3.1606 2.1479 5.18545 0 2.02484-.8216 3.85914-2.1479 5.18544-1.3264 1.3263-3.1606 2.1479-5.18548 2.1479-2.02485 0-3.85909-.8216-5.18545-2.1479-1.32634-1.3263-2.147883-3.1606-2.147883-5.18544 0-2.02485.821553-3.8591 2.147883-5.18546zm5.18545-.81454c-1.65702 0-3.15611.67084-4.24265 1.75736-1.08651 1.08654-1.75735 2.58562-1.75735 4.24264 0 1.65704.67084 3.15614 1.75736 4.24264 1.08653 1.0865 2.58562 1.7574 4.24264 1.7574s3.15608-.6709 4.24258-1.7574c1.0866-1.0865 1.7574-2.5856 1.7574-4.24264 0-1.65702-.6708-3.15611-1.7573-4.24264-1.0866-1.08652-2.58566-1.75736-4.24268-1.75736z" fill-rule="evenodd"/></g></svg>