<svg fill="none" height="129" viewBox="0 0 150 129" width="150" xmlns="http://www.w3.org/2000/svg" xmlns:xlink="http://www.w3.org/1999/xlink"><linearGradient id="a" gradientUnits="userSpaceOnUse" x1="74.535" x2="74.1406" y1="18.5775" y2="120.324"><stop offset="0" stop-color="#fff" stop-opacity="0"/><stop offset="1" stop-color="#66de8c" stop-opacity=".38"/></linearGradient><mask id="b" height="52" maskUnits="userSpaceOnUse" width="67" x="43" y="74"><path clip-rule="evenodd" d="m109.465 74.4148h-65.9893v41.5392c-.0001.01-.0002.02-.0002.031 0 .01.0001.02.0002.03v.156h.0066c.3586 4.959 14.9906 8.948 32.9881 8.948s32.6296-3.989 32.9886-8.948h.006z" fill="#00c27c" fill-rule="evenodd"/><path d="m43.4757 74.4148v-.1864h-.1864v.1864zm65.9893 0h.187v-.1864h-.187zm-65.9893 41.5392.1864.002v-.002zm0 .061h.1864v-.002zm0 .156h-.1864v.186h.1864zm.0066 0 .1859-.013-.0125-.173h-.1734zm65.9767 0v-.186h-.174l-.012.173zm.006 0v.186h.187v-.186zm-65.9893-41.5698h65.9893v-.3728h-65.9893zm.1864 41.3528v-41.5392h-.3728v41.5392zm-.0002.031c0-.01.0001-.019.0002-.029l-.3728-.004c-.0001.011-.0002.022-.0002.033zm.0002.028c-.0001-.009-.0002-.019-.0002-.028h-.3728c0 .011.0001.021.0002.032zm0 .158v-.156h-.3728v.156zm-.1798-.186h-.0066v.372h.0066zm32.9881 8.947c-8.987 0-17.1272-.996-23.0598-2.608-2.9674-.806-5.3728-1.763-7.0543-2.821-1.6897-1.062-2.6051-2.198-2.6881-3.345l-.3719.026c.0963 1.332 1.1444 2.555 2.8615 3.635 1.7253 1.085 4.17 2.054 7.1551 2.865 5.9724 1.623 14.1469 2.621 23.1575 2.621zm32.8026-8.774c-.083 1.147-.999 2.283-2.689 3.345-1.681 1.058-4.086 2.015-7.0538 2.821-5.9326 1.612-14.0728 2.608-23.0598 2.608v.373c9.0106 0 17.1851-.998 23.1575-2.621 2.9851-.811 5.4301-1.78 7.1551-2.865 1.717-1.08 2.765-2.303 2.861-3.635zm.192-.173h-.006v.372h.006zm-.186-41.5702v41.7562h.373v-41.7562z" fill="#000"/></mask><mask id="c" height="17" maskUnits="userSpaceOnUse" width="30" x="80" y="30"><path d="m88.9605 33.0314c-3.1318 1.6404-7.1458 4.0389-8.7614 5.0331l8.2021 4.8467c1.802-1.802 5.9279-5.7787 8.0157-7.27s3.9771-2.1127 4.6601-2.237c.311 1.1185.597 3.9147-.745 6.1516-1.3426 2.237-4.1636 3.9147-5.4064 4.4739-.7456 1.1185-.932 3.2436 4.2875 2.7962 6.5249-.5593 10.4159-4.8467 10.4389-7.6429s-.186-5.0331-2.237-6.1516c-2.05-1.1185-8.3883-2.4233-10.8117-2.6098-2.4233-.1864-3.7282.5593-7.6428 2.6098z" fill="#d9d9d9"/></mask><mask id="d" height="24" maskUnits="userSpaceOnUse" width="20" x="71" y="17"><path d="m79.0807 27.6255c.3699 2.9595 2.6097 8.3264 3.9146 10.6254l-7.4565-2.9826c-1.3048-1.3048-4.0264-5.2568-4.4738-10.6254-.4474-5.3687 2.7961-7.3322 4.4738-7.6429l7.4565 1.8641c2.0505.3107 6.338 2.5725 7.0837 9.1342.7456 6.5617.3106 10.8119 0 12.1167l-7.8293-4.2874c.0621-1.367.1491-4.9213 0-8.2021-.1492-3.2809-2.0506-6.1516-2.0506-6.1516s-1.6777 1.6777-1.1184 6.1516z" fill="#d0f500"/></mask><mask id="e" height="54" maskUnits="userSpaceOnUse" width="96" x="19" y="30"><path d="m109.465 74.6011c0 5.0447-14.7719 9.1342-32.9944 9.1342-18.2226 0-32.9949-4.0895-32.9949-9.1342s-47.34855-37.4326-10.2527-41.9426c108.864-13.2352 76.242 36.8979 76.242 41.9426z" fill="#000"/></mask><mask id="f" height="19" maskUnits="userSpaceOnUse" width="18" x="63" y="40"><circle cx="8.55859" cy="8.55859" fill="#000" r="8.46538" stroke="#000" stroke-width=".186412" transform="matrix(.978148 -.207912 .0495471 .998772 63.539 42.7106)"/></mask><mask id="g" height="13" maskUnits="userSpaceOnUse" width="13" x="65" y="42"><circle cx="6.15428" cy="6.15428" fill="#66dd8c" r="6.15428" transform="matrix(.978148 -.207912 .0495471 .998772 64.8166 43.5829)"/></mask><mask id="h" fill="#000" height="8.60304" maskUnits="userSpaceOnUse" width="7.69805" x="67.6342" y="44.934"><path d="m67.6342 44.934h7.69805v8.60304h-7.69805z" fill="#fff"/><path clip-rule="evenodd" d="m72.4593 48.7564c-.274-.0265-.5176.1741-.544.4481-.0266.2739.174.5175.4479.544.274.0265.5176-.1741.5441-.4481l.0005-.0054c.0234-.2721-.1767-.5123-.4485-.5386zm-1.7752.3357 1.5725 1.8882 1.1897-.9908c.2101-.1757.5229-.1477.6985.0624.1757.2101.1477.5229-.0623.6985l-1.5716 1.3087c-.2116.1732-.523.1447-.6997-.0639l-1.8879-2.267-.1126 1.234c-.0249.2726-.266.4734-.5386.4485-.2726-.0248-.4735-.266-.4486-.5386l.3529-3.8674c.0249-.2726.2661-.4735.5387-.4486s.4734.2661.4485.5387l-.1128 1.2367 2.267-1.8879c.2116-.1732.523-.1448.6997.0638l1.3087 1.5716c.1748.2108.1457.5234-.0651.6982-.2107.1748-.5234.1457-.6982-.065l-.9908-1.1898z" fill="#000" fill-rule="evenodd"/></mask><mask id="i" fill="#000" height="8.60304" maskUnits="userSpaceOnUse" width="7.69805" x="67.3756" y="44.4744"><path d="m67.3756 44.4744h7.69805v8.60304h-7.69805z" fill="#fff"/><path clip-rule="evenodd" d="m72.2004 48.2968c-.274-.0265-.5176.1741-.544.448-.0266.274.174.5176.448.5441.2739.0265.5175-.1741.544-.4481l.0005-.0054c.0234-.2721-.1767-.5123-.4485-.5386zm-1.7749.3357 1.5725 1.8882 1.1897-.9908c.2101-.1756.5229-.1477.6985.0624.1757.2101.1477.5229-.0623.6985l-1.5716 1.3087c-.2116.1732-.523.1447-.6997-.0639l-1.8879-2.267-.1126 1.234c-.0249.2726-.266.4734-.5386.4486-.2726-.0249-.4735-.2661-.4486-.5387l.3529-3.8674c.0249-.2726.2661-.4735.5387-.4486s.4734.2661.4485.5387l-.1128 1.2367 2.267-1.8879c.2116-.1732.523-.1448.6997.0639l1.3087 1.5715c.1748.2108.1457.5234-.0651.6982-.2107.1748-.5234.1457-.6982-.065l-.9908-1.1898z" fill="#000" fill-rule="evenodd"/></mask><mask id="j" height="20" maskUnits="userSpaceOnUse" width="19" x="50" y="58"><path d="m52.9418 59.6135.0035.004-.0728.0616c-1.6112 1.3634-2.4561 3.648-2.1051 6.4625.328 2.6292 1.6375 5.2151 3.4927 7.2687 1.8553 2.0538 4.2508 3.569 6.7437 4.0648 2.4085.4791 4.4619-.0812 5.8668-1.3695l.0181-.0166.0032-.0029.0007-.0007c.0283-.0263.0564-.0529.0842-.0797l.0007-.0007 1.1416-1.0802-.0999.0051-.1734.0088.0884-.1494c.7793-1.3162 1.1204-3.0278.8745-4.9992-.3279-2.6292-1.6374-5.215-3.4926-7.2687-1.8553-2.0538-4.2508-3.5689-6.7437-4.0648-1.8082-.3597-3.416-.1333-4.6987.546l-.194.1027.0608-.2109.0094-.0326z" fill="#d9d9d9" stroke="#000" stroke-width=".186412"/></mask><mask id="k" height="15" maskUnits="userSpaceOnUse" width="15" x="54" y="59"><path d="m54.7989 65.1256c.4808 3.8547 3.835 7.563 7.4852 8.2891 3.6502.726 6.2265-1.8026 5.7457-5.6573-.4809-3.8548-3.8351-7.563-7.4853-8.2891-3.6501-.7261-6.2265 1.8026-5.7456 5.6573z" fill="#66dd8c" stroke="#000" stroke-width=".186412"/></mask><mask id="l" height="27" maskUnits="userSpaceOnUse" width="25" x="76" y="63"><path d="m97.5525 65.7944-.0037.0041.0728.0617c2.1291 1.8017 3.2434 4.8185 2.7804 8.5296-.4327 3.4665-2.1588 6.8744-4.6033 9.5804-2.4447 2.7061-5.6019 4.7037-8.8897 5.3577-3.1768.6319-5.8886-.1067-7.7452-1.8092l-.0238-.0219-.0045-.0042-.0007-.0007c-.0375-.0347-.0746-.0698-.1113-.1053l-.0007-.0007-1.56-1.4762.2111.0108.1733.0088-.0884-.1494c-1.0292-1.7384-1.4788-3.9973-1.1546-6.5966.4324-3.4665 2.1586-6.8744 4.6031-9.5804 2.4446-2.7061 5.6019-4.7037 8.8896-5.3577 2.3849-.4744 4.5075-.1761 6.2021.7213l.194.1027-.0608-.2109-.0417-.1449z" fill="#d9d9d9" stroke="#000" stroke-width=".186412"/></mask><mask id="m" height="20" maskUnits="userSpaceOnUse" width="19" x="77" y="65"><path d="m95.0951 73.0421c-.6345 5.0871-5.0617 9.9831-9.8817 10.9418-4.82.9588-8.22-2.3803-7.5855-7.4674.6346-5.0872 5.0618-9.9831 9.8817-10.9419 4.82-.9587 8.22 2.3803 7.5855 7.4675z" fill="#66dd8c" stroke="#000" stroke-width=".186412"/></mask><mask id="n" height="44" maskUnits="userSpaceOnUse" width="86" x="32" y="27"><path clip-rule="evenodd" d="m112.323 70.1788-.005-.0021c1.395-3.5012-11.372-13.3088-28.7556-22.0534-17.3833-8.7446-32.8685-13.1494-34.8484-9.9428l-.0048-.0024-15.8041 31.4165-.0001-.0001 20.2491-40.2527.0011.0005c.0078-.0169.0159-.0338.0243-.0504 1.8043-3.5869 17.5075.669 35.0739 9.5058 17.5666 8.8368 30.3446 18.9081 28.5396 22.495-.008.0167-.017.0332-.026.0495l.001.0004z" fill="#00c27c" fill-rule="evenodd"/><path d="m112.318 70.1767-.173-.069-.063.1587.153.0768zm.005.0021-.084.1666.167.0837.083-.1665zm-63.609-31.9983-.0837.1666.1526.0767.0897-.1453zm-.0048-.0024.0837-.1665-.1665-.0838-.0838.1665zm-15.8041 31.4165-.0837.1665.1665.0838.0838-.1666zm-.0001-.0001-.1665-.0838-.0838.1666.1666.0837zm20.2491-40.2527.0838-.1666-.1665-.0837-.0838.1665zm.0011.0005-.0837.1665.1727.087.0805-.1759zm63.6118 31.9999-.163-.0898-.093.1694.172.0869zm.001.0004.166.0837.084-.1665-.166-.0838zm-4.533 9.0006.004.0022.168-.3331-.005-.0021zm-28.7564-22.0534c8.6844 4.3687 16.2113 9.0008 21.3904 12.9744 2.59 1.9876 4.586 3.8051 5.845 5.3377.63.7666 1.07 1.4544 1.309 2.0502.241.597.272 1.0799.122 1.4556l.347.138c.199-.4996.136-1.0891-.123-1.7328-.259-.6448-.724-1.366-1.367-2.1477-1.285-1.5644-3.306-3.4018-5.906-5.3968-5.2026-3.9916-12.7509-8.6356-21.4499-13.0116zm-34.606-10.0113c.2125-.3442.619-.6067 1.2415-.7697.6213-.1627 1.4355-.2199 2.4266-.171 1.9812.0976 4.6301.6166 7.7701 1.5117 6.2775 1.7893 14.4834 5.0717 23.1678 9.4403l.1675-.333c-8.6989-4.376-16.9271-7.6684-23.2331-9.4659-3.1516-.8984-5.8317-1.4259-7.854-1.5255-1.0107-.0498-1.8669.0066-2.5393.1827-.6712.1757-1.1818.477-1.4643.9345zm-.2472.0661.0049.0025.1675-.3331-.0049-.0024zm-15.5537 31.3337 15.804-31.4164-.3331-.1676-15.804 31.4165zm-.0828-.2503h-.0001l-.1675.333.0001.0001zm.0827.2503 20.2491-40.2528-.3331-.1675-20.2491 40.2527zm19.9988-40.17.0011.0005.1675-.333-.0011-.0006zm.2543-.0884c.0068-.0149.0139-.0296.0213-.0443l-.3331-.1675c-.0094.0187-.0185.0376-.0272.0566zm.0213-.0443c.1957-.389.5882-.6901 1.1964-.8905.6089-.2006 1.4158-.2936 2.4053-.2775 1.9779.0323 4.6418.4998 7.8092 1.3582 6.3318 1.7161 14.6372 4.9839 23.4127 9.3984l.1676-.3331c-8.7909-4.4222-17.1203-7.7007-23.4828-9.4251-3.1797-.8618-5.8778-1.3381-7.9007-1.3711-1.0109-.0165-1.864.0774-2.5279.2961-.6646.2189-1.1575.5694-1.4129 1.0771zm34.8236 9.5886c8.7756 4.4145 16.3504 9.1351 21.5024 13.1961 2.577 2.0314 4.541 3.8917 5.746 5.4605.602.7848 1.009 1.4882 1.21 2.0966.202.6078.194 1.1024-.001 1.4915l.333.1675c.255-.5076.243-1.1123.022-1.7764-.22-.6634-.653-1.4044-1.269-2.2063-1.232-1.6044-3.223-3.4869-5.81-5.5262-5.177-4.0806-12.7749-8.8141-21.5658-13.2364zm28.4574 22.2447c-.008.0146-.015.0291-.023.0435l.326.1796c.011-.0183.02-.0368.03-.0556zm.056.2998.001.0004.168-.3331-.001-.0003zm-.082-.2499-4.445 8.8363.333.1675 4.445-8.8363z" fill="#000"/></mask><path d="m127.632 120.324h-101.8731l-25.75911362-101.7465h149.07021362z" fill="url(#a)"/><ellipse cx="76.5071" cy="120.324" fill="#121212" rx="50.4789" ry="8.67606"/><path clip-rule="evenodd" d="m109.465 74.4148h-65.9893v41.5392c-.0001.01-.0002.02-.0002.031 0 .01.0001.02.0002.03v.156h.0066c.3586 4.959 14.9906 8.948 32.9881 8.948s32.6296-3.989 32.9886-8.948h.006z" fill="#66de8c" fill-rule="evenodd"/><path d="m43.4757 74.4148v-.1864h-.1864v.1864zm65.9893 0h.187v-.1864h-.187zm-65.9893 41.5392.1864.002v-.002zm0 .061h.1864v-.002zm0 .156h-.1864v.186h.1864zm.0066 0 .1859-.013-.0125-.173h-.1734zm65.9767 0v-.186h-.174l-.012.173zm.006 0v.186h.187v-.186zm-65.9893-41.5698h65.9893v-.3728h-65.9893zm.1864 41.3528v-41.5392h-.3728v41.5392zm-.0002.031c0-.01.0001-.019.0002-.029l-.3728-.004c-.0001.011-.0002.022-.0002.033zm.0002.028c-.0001-.009-.0002-.019-.0002-.028h-.3728c0 .011.0001.021.0002.032zm0 .158v-.156h-.3728v.156zm-.1798-.186h-.0066v.372h.0066zm32.9881 8.947c-8.987 0-17.1272-.996-23.0598-2.608-2.9674-.806-5.3728-1.763-7.0543-2.821-1.6897-1.062-2.6051-2.198-2.6881-3.345l-.3719.026c.0963 1.332 1.1444 2.555 2.8615 3.635 1.7253 1.085 4.17 2.054 7.1551 2.865 5.9724 1.623 14.1469 2.621 23.1575 2.621zm32.8026-8.774c-.083 1.147-.999 2.283-2.689 3.345-1.681 1.058-4.086 2.015-7.0538 2.821-5.9326 1.612-14.0728 2.608-23.0598 2.608v.373c9.0106 0 17.1851-.998 23.1575-2.621 2.9851-.811 5.4301-1.78 7.1551-2.865 1.717-1.08 2.765-2.303 2.861-3.635zm.192-.173h-.006v.372h.006zm-.186-41.5702v41.7562h.373v-41.7562z" fill="#000"/><g mask="url(#b)"><g fill="#c9f67e"><path d="m48.1355 78.7022h9.69341v47.3486h-9.69341z" stroke="#000" stroke-width=".372823"/><path d="m87.282 78.7022h9.69341v47.3486h-9.69341z" stroke="#000" stroke-width=".372823"/><path clip-rule="evenodd" d="m43.4755 84.8538v9.1033l-.0002.0307.0002.0306v.1559h.0066c.3587 4.9585 14.9907 8.9477 32.9881 8.9477 17.9975 0 32.6298-3.9892 32.9878-8.9477h.007v-9.3205h-.007c-.358 4.9585-14.9903 8.9477-32.9878 8.9477s-32.6295-3.9892-32.9881-8.9477z" fill-rule="evenodd"/></g><path d="m43.4755 84.8538v-.1865h-.1864v.1865zm0 9.1033.1864.0011v-.0011zm-.0002.0307-.1864-.0011v.0022zm.0002.0306h.1864v-.0011zm0 .1559h-.1864v.1864h.1864zm.0066 0 .1859-.0135-.0125-.1729h-.1734zm65.9759 0v-.1864h-.173l-.013.1729zm.007 0v.1864h.187v-.1864zm0-9.3205h.187v-.1865h-.187zm-.007 0v-.1865h-.173l-.013.173zm-65.9759 0 .1859-.0135-.0125-.173h-.1734zm-.193 0v9.1033h.3728v-9.1033zm0 9.1022-.0002.0307.3729.0022.0001-.0307zm-.0002.0329.0002.0306.3728-.0022-.0001-.0306zm.0002.0295v.1559h.3728v-.1559zm.1864.3423h.0066v-.3728h-.0066zm-.1793-.173c.0963 1.3316 1.1444 2.5544 2.8615 3.6343 1.7253 1.0851 4.17 2.0545 7.1551 2.865 5.9724 1.623 14.1469 2.621 23.1574 2.621v-.372c-8.9869 0-17.1271-.997-23.0597-2.608-2.9674-.8065-5.3728-1.7641-7.0543-2.8216-1.6897-1.0626-2.6052-2.1979-2.6882-3.3456zm33.174 9.1203c9.0105 0 17.185-.998 23.1575-2.621 2.9853-.8105 5.4293-1.7799 7.1553-2.865 1.717-1.0799 2.765-2.3027 2.861-3.6343l-.372-.0269c-.083 1.1477-.998 2.283-2.688 3.3456-1.681 1.0575-4.087 2.0151-7.0541 2.8216-5.9326 1.611-14.0728 2.608-23.0597 2.608zm32.9878-8.9473h.007v-.3728h-.007zm.194-.1864v-9.3205h-.373v9.3205zm-.194-9.1341h.007v-.3729h-.007zm-32.9878 8.9477c9.0106 0 17.1851-.9984 23.1575-2.6209 2.9853-.811 5.4293-1.7804 7.1553-2.8655 1.717-1.0799 2.765-2.3027 2.861-3.6343l-.372-.0269c-.083 1.1477-.998 2.283-2.688 3.3456-1.681 1.0576-4.087 2.0151-7.054 2.8213-5.9326 1.6117-14.0728 2.6079-23.0598 2.6079zm-33.174-9.1207c.0963 1.3316 1.1443 2.5544 2.8614 3.6343 1.7253 1.0851 4.17 2.0545 7.1551 2.8655 5.9724 1.6225 14.147 2.6209 23.1575 2.6209v-.3728c-8.987 0-17.1272-.9962-23.0598-2.6079-2.9674-.8062-5.3728-1.7637-7.0543-2.8213-1.6896-1.0626-2.6051-2.1979-2.6881-3.3456zm.1793.173h.0066v-.3729h-.0066z" fill="#000"/></g><g stroke="#000" stroke-width=".372823"><ellipse cx="76.4706" cy="74.6012" fill="#000" rx="32.9949" ry="9.13417"/><path d="m88.9605 33.0314c-3.1318 1.6404-7.1458 4.0389-8.7614 5.0331l8.2021 4.8467c1.802-1.802 5.9279-5.7787 8.0157-7.27s3.9771-2.1127 4.6601-2.237c.311 1.1185.597 3.9147-.745 6.1516-1.3426 2.237-4.1636 3.9147-5.4064 4.4739-.7456 1.1185-.932 3.2436 4.2875 2.7962 6.5249-.5593 10.4159-4.8467 10.4389-7.6429s-.186-5.0331-2.237-6.1516c-2.05-1.1185-8.3883-2.4233-10.8117-2.6098-2.4233-.1864-3.7282.5593-7.6428 2.6098z" fill="#9ee605"/><g mask="url(#c)"><path d="m105.179 33.0314c-2.088-.1491-3.915.2486-4.474.5593l-4.6606 6.338-7.6429 5.5923-10.8118-4.101 9.6934-13.0489 13.4219-.7456 9.507 6.5244c-.87-.435-2.946-.9693-5.033-1.1185z" fill="#c9f67e"/><path d="m105.179 33.0314c-2.088-.1491-3.915.2486-4.474.5593l-4.6606 6.338-7.6429 5.5923-10.8118-4.101 9.6934-13.0489 13.4219-.7456 9.507 6.5244c-.87-.435-2.946-.9693-5.033-1.1185z"/><path d="m88.9605 33.0314c-3.1318 1.6404-7.1458 4.0389-8.7614 5.0331l8.2021 4.8467c1.802-1.802 5.9279-5.7787 8.0157-7.27s3.9771-2.1127 4.6601-2.237c.311 1.1185.597 3.9147-.745 6.1516-1.3426 2.237-4.1636 3.9147-5.4064 4.4739-.7456 1.1185-.932 3.2436 4.2875 2.7962 6.5249-.5593 10.4159-4.8467 10.4389-7.6429s-.186-5.0331-2.237-6.1516c-2.05-1.1185-8.3883-2.4233-10.8117-2.6098-2.4233-.1864-3.7282.5593-7.6428 2.6098z"/></g><path d="m79.0807 27.6255c.3699 2.9595 2.6097 8.3264 3.9146 10.6254l-7.4565-2.9826c-1.3048-1.3048-4.0264-5.2568-4.4738-10.6254-.4474-5.3687 2.7961-7.3322 4.4738-7.6429l7.4565 1.8641c2.0505.3107 6.338 2.5725 7.0837 9.1342.7456 6.5617.3106 10.8119 0 12.1167l-7.8293-4.2874c.0621-1.367.1491-4.9213 0-8.2021-.1492-3.2809-2.0506-6.1516-2.0506-6.1516s-1.6777 1.6777-1.1184 6.1516z" fill="#9ee705"/></g><g mask="url(#d)"><path d="m81.6908 19.9826c-1.0439.5965-1.6777 1.7398-1.8641 2.2369l1.4913 11.3711 1.6777 3.3554 1.1184 2.7962-10.8118-.1864-8.0157-18.6412 6.338-7.8293 15.4721 6.8973c-1.367-.2486-4.362-.5966-5.4059 0z" fill="#c9f67e" stroke="#000" stroke-width=".372823"/><path d="m68.6415 16.8136 12.4896 3.3554" stroke="#fff" stroke-width="1.11847"/><g stroke="#000" stroke-width=".372823"><path d="m81.6908 19.9826c-1.0439.5965-1.6777 1.7398-1.8641 2.2369l1.4913 11.3711 1.6777 3.3554 1.1184 2.7962-10.8118-.1864-8.0157-18.6412 6.338-7.8293 15.4721 6.8973c-1.367-.2486-4.362-.5966-5.4059 0z"/><path d="m79.0807 27.6255c.3699 2.9595 2.6097 8.3264 3.9146 10.6254l-7.4565-2.9826c-1.3048-1.3048-4.0264-5.2568-4.4738-10.6254-.4474-5.3687 2.7961-7.3322 4.4738-7.6429l7.4565 1.8641c2.0505.3107 6.338 2.5725 7.0837 9.1342.7456 6.5617.3106 10.8119 0 12.1167l-7.8293-4.2874c.0621-1.367.1491-4.9213 0-8.2021-.1492-3.2809-2.0506-6.1516-2.0506-6.1516s-1.6777 1.6777-1.1184 6.1516z"/></g></g><ellipse cx="80.6312" cy="53.9517" fill="#000" rx="35.6046" ry="7.27006" stroke="#000" stroke-width=".372823" transform="matrix(.89333531 .44939072 -.44939072 .89333531 32.845895 -30.480172)"/><g mask="url(#e)"><g stroke="#000"><circle cx="8.55859" cy="8.55859" fill="#000" r="8.46538" stroke-width=".186412" transform="matrix(.978148 -.207912 .0495471 .998772 63.539 42.7106)"/><g mask="url(#f)"><path d="m79.2665 57.0786-4.6603-3.7283 3.9147-10.6254 6.8972 1.3048z" fill="#ebe9e9" stroke-width=".372823"/><path d="m79.6391 54.4687-4.6602-3.7282 3.9146-10.6254 6.8972 1.3048z" fill="#ebe9e9" stroke-width="1.11847"/><circle cx="8.55859" cy="8.55859" r="8.46538" stroke-width=".186412" transform="matrix(.978148 -.207912 .0495471 .998772 63.539 42.7106)"/></g><circle cx="8.55859" cy="8.55859" fill="#fff" r="8.46538" stroke-width=".186412" transform="matrix(.978148 -.207912 .0495471 .998772 62.3458 41.681)"/><circle cx="6.15428" cy="6.15428" fill="#66de8c" r="6.06108" stroke-width=".186412" transform="matrix(.978148 -.207912 .0495471 .998772 64.8166 43.5829)"/></g><g mask="url(#g)"><circle cx="6.15428" cy="6.15428" r="5.96787" stroke="#fff" stroke-width=".372823" transform="matrix(.978148 -.207912 .0495471 .998772 65.4247 44.1907)"/><circle cx="6.15428" cy="6.15428" r="6.06108" stroke="#000" stroke-width=".186412" transform="matrix(.978148 -.207912 .0495471 .998772 64.8166 43.5829)"/><path clip-rule="evenodd" d="m72.4593 48.7564c-.274-.0265-.5176.1741-.544.4481-.0266.2739.174.5175.4479.544.274.0265.5176-.1741.5441-.4481l.0005-.0054c.0234-.2721-.1767-.5123-.4485-.5386zm-1.7752.3357 1.5725 1.8882 1.1897-.9908c.2101-.1757.5229-.1477.6985.0624.1757.2101.1477.5229-.0623.6985l-1.5716 1.3087c-.2116.1732-.523.1447-.6997-.0639l-1.8879-2.267-.1126 1.234c-.0249.2726-.266.4734-.5386.4485-.2726-.0248-.4735-.266-.4486-.5386l.3529-3.8674c.0249-.2726.2661-.4735.5387-.4486s.4734.2661.4485.5387l-.1128 1.2367 2.267-1.8879c.2116-.1732.523-.1448.6997.0638l1.3087 1.5716c.1748.2108.1457.5234-.0651.6982-.2107.1748-.5234.1457-.6982-.065l-.9908-1.1898z" fill="#000" fill-rule="evenodd"/><path d="m71.9153 49.2045.1855.0179zm.4479.544-.0179.1856zm.5441-.4481.1856.018.0001-.001zm.0005-.0054.1857.017.0001-.001zm-2.2237-.2029-.1191-.1434-.1435.1193.1194.1434zm1.5725 1.8882-.1432.1193.1192.1432.1433-.1193zm1.1897-.9908.1193.1433.0003-.0003zm.6985.0624.143-.1196zm-.0623.6985.1192.1432.0003-.0002zm-1.5716 1.3087.1181.1442.0012-.001zm-.6997-.0639-.1433.1193.001.0012zm-1.8879-2.267.1433-.1193-.288-.3458-.0409.4481zm.2403-2.6334-.1856-.017zm-.1128 1.2367-.1857-.017-.0409.4482.3459-.288zm2.267-1.8879-.1181-.1443-.0012.001zm.6997.0638.1433-.1192-.001-.0013zm1.3087 1.5716.1435-.119-.0002-.0003zm-.0651.6982.119.1435zm-.6982-.065.1434-.1191-.0002-.0002zm-.9908-1.1898.1433-.1193-.1192-.1431-.1432.1191zm-.0949 1.0485c-.3764-.0364-.7111.2392-.7475.6156l.3711.0359c.0166-.1714.169-.297.3405-.2804zm-.7475.6156c-.0365.3765.2392.7111.6156.7476l.0359-.3711c-.1715-.0166-.297-.1691-.2804-.3406zm.6156.7476c.3765.0363.7111-.2392.7476-.6157l-.3711-.0359c-.0166.1715-.1691.297-.3406.2805zm.7477-.6167.0005-.0054-.3713-.0339-.0005.0054zm.0006-.0064c.032-.374-.2429-.704-.6164-.7401l-.0359.3711c.1702.0164.2954.1668.2808.3371zm-2.5527-.0996 1.5725 1.8882.2864-.2386-1.5724-1.8882zm1.835 1.9121 1.1897-.9907-.2386-.2865-1.1897.9908zm1.19-.991c.1311-.1096.3263-.0921.4359.0389l.286-.2391c-.2416-.2891-.672-.3275-.9611-.0858zm.4359.0389c.1096.1312.0922.3264-.0389.436l.2391.286c.2891-.2417.3275-.672.0858-.9611zm-.0386.4357-1.5716 1.3087.2386.2865 1.5715-1.3087zm-1.5703 1.3077c-.1329.1088-.3285.0909-.4395-.0401l-.2845.241c.2426.2862.6698.3252.9601.0876zm-.4385-.0389-1.8878-2.267-.2865.2386 1.8878 2.267zm-2.2167-2.1647-.1126 1.234.3713.0339.1126-1.234zm-.1126 1.234c-.0155.1701-.166.2954-.3361.2799l-.0338.3713c.3751.0342.7069-.2421.7412-.6173zm-.3361.2799c-.1701-.0155-.2954-.166-.2798-.3361l-.3713-.0339c-.0342.3752.2421.7071.6173.7413zm-.2798-.3361.3529-3.8674-.3713-.0338-.3529 3.8673zm.3529-3.8674c.0155-.17.166-.2954.3361-.2798l.0339-.3713c-.3752-.0343-.7071.2422-.7413.6173zm.3361-.2798c.17.0155.2953.166.2798.336l.3713.0339c.0342-.3751-.2421-.707-.6172-.7412zm.2798.336-.1129 1.2367.3713.0339.1129-1.2367zm.1921 1.3969 2.267-1.8879-.2386-.2865-2.267 1.8879zm2.2657-1.8869c.1329-.1087.3285-.0909.4395.0402l.2845-.2411c-.2426-.2862-.6698-.3252-.9601-.0876zm.4385.0389 1.3087 1.5716.2865-.2386-1.3087-1.5715zm1.3084 1.5713c.1091.1315.091.3266-.0406.4358l.238.2869c.2901-.2406.3301-.6707.0896-.9607zm-.0406.4358c-.1315.109-.3266.0909-.4358-.0407l-.2869.2381c.2406.29.6708.33.9607.0895zm-.436-.0409-.9907-1.1898-.2865.2386.9907 1.1898zm-1.2531-1.2138-1.888 1.5696.2383.2867 1.888-1.5696z" fill="#000" mask="url(#h)"/><path clip-rule="evenodd" d="m72.2004 48.2968c-.274-.0265-.5176.1741-.544.448-.0266.274.174.5176.448.5441.2739.0265.5175-.1741.544-.4481l.0005-.0054c.0234-.2721-.1767-.5123-.4485-.5386zm-1.7749.3357 1.5725 1.8882 1.1897-.9908c.2101-.1756.5229-.1477.6985.0624.1757.2101.1477.5229-.0623.6985l-1.5716 1.3087c-.2116.1732-.523.1447-.6997-.0639l-1.8879-2.267-.1126 1.234c-.0249.2726-.266.4734-.5386.4486-.2726-.0249-.4735-.2661-.4486-.5387l.3529-3.8674c.0249-.2726.2661-.4735.5387-.4486s.4734.2661.4485.5387l-.1128 1.2367 2.267-1.8879c.2116-.1732.523-.1448.6997.0639l1.3087 1.5715c.1748.2108.1457.5234-.0651.6982-.2107.1748-.5234.1457-.6982-.065l-.9908-1.1898z" fill="#fff" fill-rule="evenodd"/><path d="m71.6564 48.7448.1855.018v-.0001zm.448.5441-.018.1855v.0001zm.544-.4481.1856.018.0001-.001zm.0005-.0054.1857.0169.0001-.001zm-2.2234-.2029-.1191-.1434-.1435.1193.1194.1434zm1.5725 1.8882-.1433.1193.1193.1432.1433-.1193zm1.1897-.9908.1193.1433.0003-.0003zm.6985.0624.143-.1196zm-.0623.6985.1192.1432.0003-.0002zm-1.5716 1.3087.1181.1442.0012-.001zm-.6997-.0639-.1433.1193.001.0012zm-1.8879-2.267.1433-.1193-.288-.3458-.0409.4481zm.2403-2.6334-.1856-.0169zm-.1128 1.2367-.1857-.017-.0409.4482.3459-.288zm2.267-1.8879-.1181-.1443-.0012.001zm.6997.0639.1433-.1193-.001-.0013zm1.3087 1.5715.1435-.119-.0002-.0003zm-.0651.6982.119.1435zm-.6982-.065.1434-.1191-.0002-.0002zm-.9908-1.1898.1433-.1193-.1192-.1431-.1432.1191zm-.0951 1.0484c-.3765-.0364-.7112.2392-.7476.6157l.3711.0358c.0166-.1714.169-.297.3406-.2804zm-.7476.6156c-.0365.3765.2392.7112.6156.7476l.0359-.371c-.1715-.0167-.297-.1691-.2804-.3406zm.6156.7477c.3765.0363.7111-.2393.7476-.6157l-.3711-.036c-.0166.1716-.1691.2971-.3406.2806zm.7477-.6167.0005-.0055-.3713-.0338-.0005.0054zm.0006-.0065c.032-.3739-.2429-.7039-.6163-.7401l-.036.3711c.1702.0165.2954.1668.2808.3372zm-2.5524-.0995 1.5724 1.8882.2865-.2386-1.5724-1.8882zm1.835 1.9121 1.1897-.9907-.2386-.2865-1.1897.9908zm1.19-.991c.1311-.1096.3263-.0921.4359.0389l.286-.2391c-.2416-.289-.672-.3275-.9611-.0858zm.4359.0389c.1096.1312.0922.3264-.0389.436l.2391.286c.2891-.2417.3275-.672.0858-.9611zm-.0386.4357-1.5716 1.3087.2386.2865 1.5715-1.3087zm-1.5703 1.3077c-.1329.1088-.3285.0909-.4395-.0401l-.2845.241c.2426.2863.6698.3252.9601.0876zm-.4385-.0389-1.8878-2.267-.2865.2386 1.8878 2.267zm-2.2167-2.1647-.1126 1.234.3713.0339.1126-1.234zm-.1126 1.234c-.0155.1701-.166.2954-.3361.2799l-.0338.3713c.3751.0342.7069-.2421.7412-.6173zm-.3361.2799c-.1701-.0155-.2954-.166-.2798-.3361l-.3713-.0339c-.0343.3752.2421.7071.6173.7413zm-.2798-.3361.3529-3.8674-.3713-.0338-.3529 3.8673zm.3529-3.8674c.0155-.17.166-.2954.3361-.2798l.0339-.3713c-.3752-.0343-.7071.2422-.7413.6173zm.3361-.2798c.17.0155.2953.166.2798.3361l.3713.0338c.0342-.375-.2421-.707-.6172-.7412zm.2798.3361-.1129 1.2366.3713.0339.1129-1.2367zm.1921 1.3968 2.267-1.8879-.2386-.2865-2.267 1.8879zm2.2657-1.8868c.1329-.1088.3285-.091.4395.0401l.2845-.2411c-.2426-.2862-.6698-.3252-.9601-.0876zm.4385.0388 1.3087 1.5716.2865-.2386-1.3087-1.5715zm1.3084 1.5713c.1091.1315.091.3266-.0406.4358l.238.2869c.2901-.2406.3301-.6707.0896-.9607zm-.0406.4358c-.1315.109-.3266.0909-.4358-.0407l-.2869.2381c.2406.29.6707.3301.9607.0895zm-.436-.0409-.9907-1.1898-.2865.2386.9907 1.1898zm-1.2531-1.2138-1.888 1.5696.2383.2867 1.888-1.5696z" fill="#000" mask="url(#i)"/></g><g mask="url(#j)"><path d="m52.9418 59.6135.0035.004-.0728.0616c-1.6112 1.3634-2.4561 3.648-2.1051 6.4625.328 2.6292 1.6375 5.2151 3.4927 7.2687 1.8553 2.0538 4.2508 3.569 6.7437 4.0648 2.4085.4791 4.4619-.0812 5.8668-1.3695l.0181-.0166.0032-.0029.0007-.0007c.0283-.0263.0564-.0529.0842-.0797l.0007-.0007 1.1416-1.0802-.0999.0051-.1734.0088.0884-.1494c.7793-1.3162 1.1204-3.0278.8745-4.9992-.3279-2.6292-1.6374-5.215-3.4926-7.2687-1.8553-2.0538-4.2508-3.5689-6.7437-4.0648-1.8082-.3597-3.416-.1333-4.6987.546l-.194.1027.0608-.2109.0094-.0326z" fill="#ebe9e9" stroke="#000" stroke-width=".186412"/><path d="m58.8084 73.1631-2.9511 2.8251 9.1036 3.209 4.519-5.3704z" fill="#000"/><path d="m57.1864 72.6607-2.1229 2.1602-1.0572-.945 2.2093-2.3582z" fill="#000"/><path d="m52.9418 59.6135.0035.004-.0728.0616c-1.6112 1.3634-2.4561 3.648-2.1051 6.4625.328 2.6292 1.6375 5.2151 3.4927 7.2687 1.8553 2.0538 4.2508 3.569 6.7437 4.0648 2.4085.4791 4.4619-.0812 5.8668-1.3695l.0181-.0166.0032-.0029.0007-.0007c.0283-.0263.0564-.0529.0842-.0797l.0007-.0007 1.1416-1.0802-.0999.0051-.1734.0088.0884-.1494c.7793-1.3162 1.1204-3.0278.8745-4.9992-.3279-2.6292-1.6374-5.215-3.4926-7.2687-1.8553-2.0538-4.2508-3.5689-6.7437-4.0648-1.8082-.3597-3.416-.1333-4.6987.546l-.194.1027.0608-.2109.0094-.0326z" stroke="#000" stroke-width=".186412"/></g><path d="m52.3927 64.6471c.6555 5.2548 5.2286 10.3123 10.2077 11.3027 4.9792.9904 8.4912-2.4589 7.8358-7.7137-.6555-5.2548-5.2286-10.3123-10.2077-11.3027-4.9792-.9904-8.4912 2.4589-7.8358 7.7137z" fill="#fff" stroke="#000" stroke-width=".186412"/><g mask="url(#k)"><path d="m54.7989 65.1256c.4808 3.8547 3.835 7.563 7.4852 8.2891 3.6502.726 6.2265-1.8026 5.7457-5.6573-.4809-3.8548-3.8351-7.563-7.4853-8.2891-3.6501-.7261-6.2265 1.8026-5.7456 5.6573z" fill="#66de8c" stroke="#000" stroke-width=".186412"/><path d="m54.4412 65.5449c.4549 3.6469 3.6265 7.1483 7.0705 7.8333 3.4441.6851 5.8813-1.7006 5.4264-5.3475-.4548-3.6468-3.6264-7.1482-7.0705-7.8332-3.444-.6851-5.8813 1.7006-5.4264 5.3474z" stroke="#fff" stroke-width=".372823"/><path d="m54.7989 65.1256c.4808 3.8547 3.835 7.563 7.4852 8.2891 3.6502.726 6.2265-1.8026 5.7457-5.6573-.4809-3.8548-3.8351-7.563-7.4853-8.2891-3.6501-.7261-6.2265 1.8026-5.7456 5.6573z" stroke="#000" stroke-width=".186412"/></g><path d="m58.8845 66.621-.3142-.1607 1.1023-3.8925.7114-.4891 2.8695 4.4072 1.2922.1778-.6959.9297-.4338 2.8646-.7102.4933-4.0065-4.1343.0068.0037c-.0008-.0005-.0016-.001-.0024-.0015z" fill="#000"/><path d="m60.4458 62.2476 3.9641 4.36-2.0836.8375-2.9284-1.4973zm2.1718 5.8852 1.8711-.9033-1.1297 3.07-3.5753-3.6895 2.7446 1.511.0531.0292z" fill="#fff" stroke="#000" stroke-width=".186412"/><g mask="url(#l)"><path d="m97.5525 65.7944-.0037.0041.0728.0617c2.1291 1.8017 3.2434 4.8185 2.7804 8.5296-.4327 3.4665-2.1588 6.8744-4.6033 9.5804-2.4447 2.7061-5.6019 4.7037-8.8897 5.3577-3.1768.6319-5.8886-.1067-7.7452-1.8092l-.0238-.0219-.0045-.0042-.0007-.0007c-.0375-.0347-.0746-.0698-.1113-.1053l-.0007-.0007-1.56-1.4762.2111.0108.1733.0088-.0884-.1494c-1.0292-1.7384-1.4788-3.9973-1.1546-6.5966.4324-3.4665 2.1586-6.8744 4.6031-9.5804 2.4446-2.7061 5.6019-4.7037 8.8896-5.3577 2.3849-.4744 4.5075-.1761 6.2021.7213l.194.1027-.0608-.2109-.0417-.1449z" fill="#ebe9e9" stroke="#000" stroke-width=".186412"/><path d="m89.7917 83.6262 3.883 3.7173-11.9786 4.2226-5.9462-7.0665z" fill="#000"/><path d="m91.9258 82.9647 2.7933 2.8424 1.391-1.2434-2.9069-3.1029z" fill="#000"/><path d="m97.5525 65.7944-.0037.0041.0728.0617c2.1291 1.8017 3.2434 4.8185 2.7804 8.5296-.4327 3.4665-2.1588 6.8744-4.6033 9.5804-2.4447 2.7061-5.6019 4.7037-8.8897 5.3577-3.1768.6319-5.8886-.1067-7.7452-1.8092l-.0238-.0219-.0045-.0042-.0007-.0007c-.0375-.0347-.0746-.0698-.1113-.1053l-.0007-.0007-1.56-1.4762.2111.0108.1733.0088-.0884-.1494c-1.0292-1.7384-1.4788-3.9973-1.1546-6.5966.4324-3.4665 2.1586-6.8744 4.6031-9.5804 2.4446-2.7061 5.6019-4.7037 8.8896-5.3577 2.3849-.4744 4.5075-.1761 6.2021.7213l.194.1027-.0608-.2109-.0417-.1449z" stroke="#000" stroke-width=".186412"/></g><path d="m98.2614 72.412c-.8643 6.9294-6.8953 13.6007-13.464 14.9073-6.5686 1.3066-11.1999-3.2439-10.3356-10.1733.8644-6.9293 6.8954-13.6006 13.464-14.9072 6.5687-1.3066 11.2 3.2439 10.3356 10.1732z" fill="#fff" stroke="#000" stroke-width=".186412"/><g mask="url(#m)"><path d="m95.0951 73.0421c-.6345 5.0871-5.0617 9.9831-9.8817 10.9418-4.82.9588-8.22-2.3803-7.5855-7.4674.6346-5.0872 5.0618-9.9831 9.8817-10.9419 4.82-.9587 8.22 2.3803 7.5855 7.4675z" fill="#66de8c" stroke="#000" stroke-width=".186412"/><path d="m95.5955 73.5872c-.6023 4.8286-4.8027 9.4689-9.3685 10.377-4.5658.9082-7.7929-2.2545-7.1906-7.0832.6023-4.8286 4.8027-9.4688 9.3685-10.377s7.7929 2.2546 7.1906 7.0832z" stroke="#fff" stroke-width=".372823"/><path d="m95.0951 73.0421c-.6345 5.0871-5.0617 9.9831-9.8817 10.9418-4.82.9588-8.22-2.3803-7.5855-7.4674.6346-5.0872 5.0618-9.9831 9.8817-10.9419 4.82-.9587 8.22 2.3803 7.5855 7.4675z" stroke="#000" stroke-width=".186412"/></g><path d="m84.4427 71.6258 1.8754-.0983.5099-1.5267.3042-.4667.7675.4105-.51 1.5268.8037-.0421.8143-1.9937.7673.4107-.5099 1.5268c2.6786-.1404 2.08 2.3694.7098 2.9866-.0813.0366.0356.1449.0356.1449 1.5826.3484.5807 3.7991-3.1252 3.9933l-.51 1.5268-1.0716.0562-.653-.4091 1.1629-1.1177-.8037.0421-.5099 1.5268-1.0717.0561-.7575-.4201 1.2675-1.1066-1.8754.0983-.7576-.4217 1.3655-.6102.5358-.0281c.2947-.0154.6123-.2571.7058-.537l1.3599-4.0713c.0935-.2799-.0711-.4963-.3658-.4809l-.8038.0422-.7702-.4071zm2.607.8634-.6799 2.0357s2.3687.0008 2.7512-1.1442c.3824-1.1451-2.0713-.8915-2.0713-.8915zm-.9349 2.7991-.7649 2.2901s2.947-.1545 3.3295-1.2995c.3824-1.1451-2.5646-.9906-2.5646-.9906z" fill="#000"/><path d="m86.026 78.0938-.4804 1.4383-.8855.0464.4804-1.4383.0295-.0884-.0931.0048-.8037.0422-.0931.0048-.0295.0884-.4804 1.4384-.8855.0464.4804-1.4383.0296-.0885-.0931.0049-1.7562.0921.5023-.8527.4631-.0242c.3462-.0182.7187-.3016.8285-.6303l1.3598-4.0714c.1098-.3287-.0832-.5825-.4293-.5643l-.7107.0372.2809-.841 1.7823-.0934.0931-.0049.0295-.0884.4804-1.4384.8855-.0464-.4804 1.4384-.0295.0884.0931-.0049.8037-.0421.0931-.0049.0295-.0884.4804-1.4383.8855-.0464-.4804 1.4383-.0295.0884.093-.0049c1.433-.0751 1.8824.6256 1.7949 1.3521-.0442.3671-.2251.7417-.4877 1.034-.2608.2905-.6016.5-.9788.5484l-.0454.1756c.5109-.056.846.137 1.0037.4657.1586.3304.1371.7979-.0717 1.2812-.2082.482-.6016.977-1.1841 1.3648-.5826.3879-1.3635.6745-2.3516.7263l-.0931.0049zm.2575-6.0137.0243-.088-.0894.0093-.028.0836-.6799 2.0357-.0279.0836.0863.0001.0347-.0886-.0346.0886h.0001.0004.0015l.0055-.0001.0206-.0002c.018-.0003.0442-.0009.0776-.002.0668-.0022.1623-.0068.278-.0158.231-.018.5447-.0543.8718-.1273.3256-.0727.6732-.1838.9679-.3557.2988-.1744.548-.4148.6554-.7366.1075-.3217.013-.5441-.178-.6928-.1883-.1467-.4728-.2246-.7605-.2651-.2891-.0408-.5893-.0449-.8163-.0389-.1137.003-.2095.0085-.2771.0133-.0338.0024-.0606.0046-.079.0062l-.0213.002-.0056.0005-.0015.0002h-.0005-.0001zm-.9349 2.7991.0295-.0884-.0931.0049-.0295.0884-.7649 2.2901-.0295.0884.093-.0049.0296-.0884-.0295.0884h.0001.0005l.0018-.0001.0066-.0004.0254-.0016c.0221-.0014.0545-.0036.0956-.0069.0824-.0066.2002-.0172.3428-.0335.2847-.0327.6696-.0884 1.0677-.1806.3965-.0918.814-.2217 1.1604-.4059.3473-.1847.6412-.4345.7511-.7638.11-.3292-.0244-.5566-.2586-.7108-.2335-.1538-.5775-.2438-.9257-.2966-.3496-.053-.7104-.0696-.983-.0731-.1365-.0017-.2513-.0001-.3322.0019-.0404.001-.0724.0021-.0943.003l-.0252.0011-.0066.0003-.0018.0001h-.0005-.0001z" fill="#fff" stroke="#000" stroke-width=".186412"/><path d="m109.465 74.6011c0 5.0447-14.772 9.1342-32.9946 9.1342s-32.9949-4.0895-32.9949-9.1342" stroke="#000" stroke-width=".372823"/></g><path d="m112.317 70.1765c1.395-3.5011-11.373-13.3087-28.756-22.0533-17.3832-8.7447-32.8684-13.1495-34.8483-9.9428l4.4401-8.8388.0011.0006c.0078-.017.0158-.0338.0242-.0505 1.8044-3.5869 17.5075.669 35.074 9.5058 17.5669 8.8368 30.3439 18.9082 28.5399 22.495-.009.0167-.017.0332-.026.0495z" fill="#66de8c"/><path d="m48.7127 38.1804c1.9799-3.2067 17.4651 1.1981 34.8483 9.9428 17.383 8.7446 30.151 18.5522 28.756 22.0533l4.449-8.8345c.009-.0163.017-.0328.026-.0495 1.804-3.5868-10.973-13.6582-28.5399-22.495-17.5665-8.8368-33.2696-13.0927-35.074-9.5058-.0084.0167-.0164.0335-.0242.0505l-.0011-.0006zm0 0-.0049-.0025" stroke="#000" stroke-width=".372823"/><g mask="url(#n)"><path d="m70.4747 16.4145h9.69341v47.3486h-9.69341z" fill="#c9f67e" stroke="#000" stroke-width=".372823" transform="matrix(.89337139 .449319 -.449319 .89337139 14.889966 -29.915366)"/><path d="m106.638 27.5993h9.69341v47.3486h-9.69341z" fill="#c9f67e" stroke="#000" stroke-width=".372823" transform="matrix(.89337139 .449319 -.449319 .89337139 23.771552 -44.971604)"/><path d="m112.318 70.1767-.173-.069-.063.1586.153.0768zm.005.0021-.084.1665.166.084.084-.1667zm-63.5734-32.053-.0839.1665.1456.0734.0921-.1346zm-.0114-.0057-.1665-.0838-.0837.1664.1663.0838zm4.4159-8.7783.0838-.1666-.1665-.0837-.0838.1665zm.0011.0005-.0837.1665.1727.087.0805-.1759zm63.6118 31.9999-.163-.0898-.093.1694.172.0869zm.001.0004.166.0837.084-.1665-.166-.0838zm-4.533 9.0005.004.0022.168-.3329-.005-.0022zm-28.7564-22.0533c8.6844 4.3687 16.2113 9.0008 21.3904 12.9744 2.59 1.9876 4.586 3.8051 5.845 5.3377.63.7666 1.07 1.4544 1.309 2.0502.24.597.272 1.0799.122 1.4556l.347.138c.199-.4996.136-1.0891-.123-1.7328-.259-.6448-.724-1.366-1.367-2.1477-1.285-1.5644-3.306-3.4018-5.906-5.3968-5.2026-3.9916-12.751-8.6356-21.4499-13.0116zm-34.5752-10.0587c.229-.3344.6512-.5876 1.2866-.7414.6336-.1535 1.4569-.2023 2.4539-.1465 1.9929.1115 4.6427.6389 7.7756 1.5373 6.2634 1.7962 14.4248 5.0659 23.0591 9.4093l.1675-.333c-8.6487-4.3508-16.8323-7.6304-23.1238-9.4346-3.1445-.9018-5.8247-1.4375-7.8576-1.5513-1.0161-.0568-1.8797-.0089-2.5625.1564-.681.1649-1.2046.4524-1.5064.8932zm-.2491.0554.0114.0058.1678-.3329-.0114-.0058zm.2504-.0826 4.416-8.7784-.3331-.1675-4.4159 8.7783zm4.1657-8.6956.0011.0005.1675-.333-.0011-.0006zm.2543-.0884c.0068-.0149.0139-.0296.0213-.0443l-.3331-.1675c-.0094.0187-.0185.0376-.0272.0566zm.0213-.0443c.1957-.389.5882-.6901 1.1964-.8905.6089-.2006 1.4158-.2936 2.4053-.2775 1.9779.0323 4.6418.4998 7.8092 1.3582 6.3318 1.7161 14.6372 4.9839 23.4127 9.3984l.1676-.3331c-8.7909-4.4222-17.1203-7.7007-23.4828-9.4251-3.1797-.8618-5.8778-1.3381-7.9007-1.3711-1.0109-.0165-1.864.0774-2.5279.2961-.6646.2189-1.1575.5694-1.4129 1.0771zm34.8236 9.5886c8.7756 4.4145 16.3504 9.1351 21.5024 13.1961 2.577 2.0314 4.541 3.8917 5.746 5.4605.602.7848 1.009 1.4882 1.21 2.0966.202.6078.194 1.1024-.001 1.4915l.333.1675c.255-.5076.243-1.1123.022-1.7764-.22-.6634-.653-1.4044-1.269-2.2063-1.232-1.6044-3.223-3.4869-5.81-5.5262-5.177-4.0806-12.7749-8.8141-21.5658-13.2364zm28.4574 22.2447c-.008.0146-.015.0291-.023.0435l.326.1796c.011-.0183.02-.0368.03-.0556zm.056.2998.001.0004.168-.3331-.001-.0003zm-.082-.2499-4.445 8.8363.333.1675 4.445-8.8363z" fill="#000"/></g><path d="m22.3509 64.3624c.039-.6755.8852-.9539 1.3178-.4336l3.2493 3.9085c.1321.1589.3241.2558.5304.2678l5.0743.2934c.6755.0391.9539.8852.4336 1.3178l-3.9085 3.2493c-.1589.1321-.2558.3242-.2677.5304l-.2935 5.0743c-.0391.6755-.8852.954-1.3178.4337l-3.2493-3.9086c-.1321-.1588-.3241-.2558-.5304-.2677l-5.0743-.2935c-.6755-.039-.954-.8852-.4337-1.3177l3.9086-3.2494c.1589-.1321.2558-.3241.2677-.5303z" fill="#ffd056"/><path d="m133.384 57.4977c.471-.4852 1.293-.1419 1.28.5346l-.041 2.028c-.004.2065.078.4055.226.5495l1.454 1.4139c.485.4717.142 1.2937-.534 1.2801l-2.028-.0405c-.207-.0041-.406.0776-.55.2258l-1.414 1.4543c-.471.4851-1.293.1418-1.28-.5347l.041-2.0279c.004-.2066-.078-.4055-.226-.5495l-1.455-1.414c-.485-.4716-.141-1.2936.535-1.2801l2.028.0405c.207.0042.406-.0776.55-.2257z" fill="#ffd056"/></svg>