<svg fill="none" height="24" viewBox="0 0 24 24" width="24" xmlns="http://www.w3.org/2000/svg"><g fill="#737e8d"><path d="m9 9h6v1.96h-6z"/><path d="m15 13h-6v1.96h6z"/><path clip-rule="evenodd" d="m21 10.0012v-4.5012c0-.82843-.6716-1.5-1.5-1.5h-15c-.82843 0-1.5.67157-1.5 1.5v4.5011c1.11294.0354 2.00391.9168 2.00391 1.9989s-.89097 1.9635-2.00391 1.9989v4.5011c0 .8284.67157 1.5 1.5 1.5h15c.8284 0 1.5-.6716 1.5-1.5v-4.5012c-1.1111-.0373-2-.9179-2-1.9988s.8889-1.9615 2-1.9988zm-16.04-4.0412v2.61937c1.18212.67605 2.00391 1.92903 2.00391 3.42063s-.82179 2.7446-2.00391 3.4206v2.6194h14.08v-2.6216c-1.18-.6766-2-1.9284-2-3.4184s.82-2.74181 2-3.4184v-2.6216z" fill-rule="evenodd"/></g></svg>