<svg fill="none" height="24" viewBox="0 0 24 24" width="24" xmlns="http://www.w3.org/2000/svg"><g fill="#737e8d"><path d="m4.96364 19.0364v-14.07276h12.07276v3.63715c.6955.15201 1.355.40054 1.9636.73085v-4.89164c0-.79529-.6447-1.44-1.44-1.44h-13.12c-.79529 0-1.44.64471-1.44 1.44v15.12c0 .7953.64471 1.44 1.44 1.44h5.46282c-.53115-.5783-.9727-1.2401-1.30264-1.9636z"/><path d="m14.5 6.92484h-8v1.96363h8z"/><path d="m6.5 10.4218h3.9984v1.9637h-3.9984z"/><path d="m14.5456 13.4248h1.5909v2.1894l1.7733 1.8017-1.2143 1.1193-2.1499-2.2997z"/><path clip-rule="evenodd" d="m21.5 16c0 3.3137-2.6863 6-6 6s-6-2.6863-6-6 2.6863-6 6-6 6 2.6863 6 6zm-1.9636 0c0 2.2292-1.8072 4.0364-4.0364 4.0364s-4.0364-1.8072-4.0364-4.0364 1.8072-4.0364 4.0364-4.0364 4.0364 1.8072 4.0364 4.0364z" fill-rule="evenodd"/></g></svg>