<svg fill="none" height="42" viewBox="0 0 42 42" width="42" xmlns="http://www.w3.org/2000/svg" xmlns:xlink="http://www.w3.org/1999/xlink"><clipPath id="a"><path d="m10.75 11h20v20h-20z"/></clipPath><path d="m20.5.563477c-11.04839 0-20 8.951613-20 20.000023 0 11.0484 8.95161 20 20 20 11.0484 0 20-8.9516 20-20 0-11.04841-8.9516-20.000023-20-20.000023z" stroke="#bcc8e0" stroke-opacity=".12"/><g clip-path="url(#a)" fill="#737e8d" stroke="#737e8d" stroke-width=".3"><path d="m22.4431 24.5309c-.6751-.0011-1.3564-.166-1.9795-.4258-.6232-.2597-1.1889-.6399-1.6648-1.1186l-.6738-.6738 1.2381-1.2381.6738.6738c.6098.6126 1.4302.9699 2.2941.9992.864.0292 1.7066-.2718 2.3565-.8417l.0394-.035c.0384-.033.0749-.068.1094-.105l2.7693-2.7694c.317-.3155.5685-.6904.7401-1.1034.1716-.4129.2599-.8557.2599-1.3029 0-.4471-.0883-.8899-.2599-1.3028-.1716-.413-.4231-.788-.7401-1.1034l-.0525-.0525c-.3154-.317-.6904-.5685-1.1033-.7401-.413-.1716-.8557-.2599-1.3029-.2599s-.89.0883-1.3029.2599-.7879.4231-1.1034.7401l-1.4131 1.4131c-.037.0345-.0721.071-.105.1094l-.5469.6825-1.365-1.0938.5644-.6868c.0737-.0892.1526-.1739.2363-.2538l1.4131-1.4131c.478-.4803 1.0463-.8615 1.6721-1.1215.6258-.2601 1.2968-.394 1.9744-.394.6777 0 1.3487.1339 1.9745.394.6258.26 1.194.6412 1.6721 1.1215l.0525.0525c.4803.4781.8614 1.0463 1.1215 1.6721s.394 1.2968.394 1.9745c0 .6776-.1339 1.3486-.394 1.9744s-.6412 1.194-1.1215 1.6721l-2.7694 2.7694c-.0735.0754-.1509.1469-.2318.2144-.9447.8389-2.1623 1.3055-3.4257 1.3125z"/><path d="m16.3393 30.6249c-.6774.0011-1.3483-.1321-1.9738-.3919-.6256-.2598-1.1934-.6411-1.6706-1.1218l-.0525-.0526c-.4803-.478-.8614-1.0463-1.1215-1.6721-.2601-.6257-.3939-1.2967-.3939-1.9744s.1338-1.3487.3939-1.9745.6412-1.194 1.1215-1.6721l2.7694-2.7694c.0735-.0753.1509-.1469.2319-.2143.9821-.8701 2.2594-1.3324 3.5709-1.2926s2.5584.5788 3.4859 1.5069l.6738.6913-1.2381 1.2381-.6738-.6737c-.6098-.6127-1.4302-.97-2.2941-.9992-.864-.0293-1.7066.2717-2.3565.8417l-.0394.035c-.0384.0329-.0749.068-.1094.105l-2.7693 2.7694c-.317.3154-.5685.6904-.7401 1.1033-.1716.413-.26.8557-.26 1.3029s.0884.8899.26 1.3029c.1716.4129.4231.7879.7401 1.1034l.0525.0525c.3154.3169.6904.5684 1.1033.74.413.1716.8557.26 1.3029.26s.89-.0884 1.3029-.26.7879-.4231 1.1034-.74l1.4131-1.4132c.037-.0344.0721-.071.105-.1093l.5469-.6826 1.3693 1.0938-.5687.6869c-.0737.0891-.1526.1738-.2363.2537l-1.4131 1.4132c-.4762.4796-1.0426.8603-1.6665 1.1201-.624.2598-1.2932.3936-1.9691.3936z"/></g></svg>