<svg fill="none" height="40" viewBox="0 0 40 40" width="40" xmlns="http://www.w3.org/2000/svg"><path d="m20 0c-11.04839 0-20 8.95161-20 20 0 11.0484 8.95161 20 20 20 11.0484 0 20-8.9516 20-20 0-11.04839-8.9516-20-20-20z" fill="#2c72f5"/><path clip-rule="evenodd" d="m29.8053 13.6114-3.1797 14.9843c-.2344 1.0625-.8672 1.3203-1.75.8203l-4.8438-3.5703-2.3359 2.25c-.2578.2579-.4766.4766-.9766.4766l.3438-4.9297 8.9765-8.1094c.3907-.3437-.0859-.539-.6015-.1953l-11.0938 6.9844-4.78123-1.4922c-1.03907-.3281-1.0625-1.039.21875-1.539l18.67968-7.2032c.8672-.3125 1.625.211 1.3438 1.5235z" fill="#fff" fill-rule="evenodd"/></svg>