<svg fill="none" height="40" viewBox="0 0 40 40" width="40" xmlns="http://www.w3.org/2000/svg"><path d="m20 0c-11.04839 0-20 8.95161-20 20 0 11.0484 8.95161 20 20 20 11.0484 0 20-8.9516 20-20 0-11.04839-8.9516-20-20-20z" fill="#5bbdff"/><path d="m29.6746 14.5978c-.7016.3048-1.456.5112-2.2479.6038.8082-.4745 1.429-1.226 1.7209-2.1215-.7563.4397-1.5936.7586-2.4852.9305-.7135-.7454-1.7308-1.2108-2.8566-1.2108-2.1612 0-3.9133 1.7165-3.9133 3.8343 0 .3005.0344.5933.1014.8739-3.2527-.1599-6.136-1.6865-8.0663-4.0062-.3367.5663-.5297 1.2249-.5297 1.9277 0 1.33.6909 2.5037 1.7408 3.1913-.6415-.02-1.245-.1924-1.7724-.4796-.0004.016-.0004.032-.0004.0484 0 1.8578 1.3487 3.4075 3.1391 3.7597-.3284.0876-.6742.1347-1.0309.1347-.2525 0-.4974-.024-.7363-.069.4978 1.5235 1.943 2.632 3.6555 2.6629-1.3391 1.0287-3.0265 1.6416-4.8603 1.6416-.3159 0-.6275-.018-.9334-.0536 1.732 1.0877 3.7888 1.7228 5.9991 1.7228 7.1979 0 11.1343-5.8428 11.1343-10.9099 0-.1665-.0036-.3318-.0111-.4964.7648-.5404 1.4281-1.2154 1.9527-1.9846z" fill="#fff"/></svg>