<svg width="103" height="20" viewBox="0 0 103 20" fill="none" xmlns="http://www.w3.org/2000/svg">
<path fill-rule="evenodd" clip-rule="evenodd" d="M5.75568 9.99956L11.6656 15.925L15.3916 12.1892C16.0492 11.5299 17.115 11.5299 17.7727 12.1892C18.4303 12.8486 18.4303 13.9172 17.7727 14.5765L12.8623 19.512C12.1959 20.1627 11.1345 20.1627 10.469 19.512L3.37461 12.3869V16.6176C3.45398 17.5497 2.76495 18.3709 1.83433 18.4504C0.904576 18.53 0.0855922 17.8392 0.00622318 16.9061C-0.0016265 16.8099 -0.0016265 16.7129 0.00622318 16.6167V3.38158C-0.0731458 2.44939 0.615882 1.62826 1.54651 1.54869C2.47626 1.46911 3.29524 2.15994 3.37461 3.093C3.38246 3.18919 3.38246 3.28626 3.37461 3.38245V7.61313L10.469 0.487954C11.1353 -0.162651 12.1968 -0.162651 12.8623 0.487954L17.7727 5.42346C18.4303 6.08281 18.4303 7.15141 17.7727 7.81076C17.115 8.47011 16.0492 8.47011 15.3916 7.81076L11.6656 4.07503L5.75568 10.0004V9.99956ZM12.6477 9.01491C12.7053 8.98868 12.7497 8.95282 12.8117 8.93358C12.9957 8.87674 13.1728 8.91435 13.3193 9.03677L14.2735 10.0039L13.3193 10.9632C13.1728 11.0857 12.9957 11.1233 12.8117 11.0664C12.7497 11.0472 12.7044 11.0113 12.6477 10.9851C12.6739 11.0428 12.7096 11.0874 12.7288 11.1495C12.7855 11.334 12.748 11.5115 12.6259 11.6584L11.6691 12.6151L10.7045 11.6584C10.5824 11.5115 10.5449 11.334 10.6015 11.1495C10.6207 11.0874 10.6565 11.0419 10.6827 10.9851C10.6251 11.0113 10.5806 11.0472 10.5187 11.0664C10.3347 11.1233 10.1576 11.0857 10.0111 10.9632L9.0569 10.0039L10.0111 9.03677C10.1576 8.91435 10.3347 8.87674 10.5187 8.93358C10.5806 8.95282 10.626 8.98868 10.6827 9.01491C10.6565 8.95719 10.6207 8.9126 10.6015 8.85051C10.5449 8.666 10.5824 8.48848 10.7045 8.34157L11.6613 7.3849L12.6259 8.34157C12.748 8.48848 12.7855 8.666 12.7288 8.85051C12.7096 8.9126 12.6739 8.95807 12.6477 9.01491ZM11.554 9.21429C11.2156 9.25277 10.9103 9.5667 10.8798 9.90687C10.8074 10.7166 11.8104 11.1136 12.2927 10.4805C12.7244 9.91387 12.2596 9.13471 11.5548 9.21516L11.554 9.21429Z" fill="#00B48D"/>
<path d="M69.3868 10.0102C69.3868 9.50209 69.3868 9.01428 69.3661 8.56713C69.3454 8.11997 69.3041 7.71347 69.242 7.32729C69.1799 6.94111 69.0558 6.57526 68.8903 6.22973C68.7248 5.8842 68.4972 5.57932 68.1869 5.27445C67.7732 4.84762 67.2973 4.54274 66.7595 4.31916C66.2216 4.09558 65.6216 3.99396 64.9389 3.97363C64.2562 3.97363 63.6563 4.09558 63.0977 4.31916C62.5598 4.54274 62.084 4.86794 61.6703 5.27445C61.3599 5.57932 61.1324 5.8842 60.9669 6.22973C60.8014 6.57526 60.6772 6.94111 60.6152 7.32729C60.5531 7.71347 60.5117 8.1403 60.4911 8.56713C60.4704 9.01428 60.4704 9.48176 60.4704 10.0102C60.4704 10.5183 60.4704 11.0062 60.4911 11.4533C60.5117 11.9005 60.5531 12.307 60.6152 12.6931C60.6772 13.0793 60.8014 13.4452 60.9669 13.7704C61.1324 14.1159 61.3599 14.4208 61.6703 14.7257C62.084 15.1525 62.5805 15.4574 63.0977 15.6809C63.6356 15.9045 64.2562 16.0265 64.9389 16.0265C65.6216 16.0265 66.2216 15.9045 66.7595 15.6809C67.2973 15.4574 67.7732 15.1322 68.1869 14.7257C68.4972 14.4208 68.7248 14.1159 68.8903 13.7704C69.0558 13.4249 69.1799 13.059 69.242 12.6931C69.3041 12.307 69.3454 11.8801 69.3661 11.4533C69.3868 11.0062 69.3868 10.5183 69.3868 10.0102ZM67.0284 10.0102C67.0284 10.5793 67.0284 11.0468 67.0077 11.4127C66.987 11.7785 66.9663 12.1037 66.9043 12.3273C66.8629 12.5712 66.8008 12.7541 66.7181 12.9167C66.6353 13.0793 66.5526 13.2013 66.4285 13.3232C66.2629 13.5265 66.0354 13.6688 65.7871 13.7907C65.5389 13.8923 65.2492 13.9533 64.9182 13.9533C64.5872 13.9533 64.2976 13.8923 64.0494 13.7907C63.7804 13.6688 63.5735 13.5265 63.408 13.3232C63.3046 13.2013 63.2012 13.059 63.1184 12.9167C63.0357 12.7541 62.9736 12.5712 62.9322 12.3273C62.8908 12.0834 62.8495 11.7785 62.8495 11.4127C62.8288 11.0468 62.8288 10.559 62.8288 10.0102C62.8288 9.44111 62.8288 8.97363 62.8495 8.60778C62.8701 8.24193 62.8908 7.91672 62.9322 7.69314C62.9736 7.44924 63.0357 7.26632 63.1184 7.10371C63.2012 6.96144 63.2839 6.81916 63.408 6.69721C63.5735 6.49396 63.8011 6.35168 64.0494 6.22973C64.3183 6.10778 64.6079 6.06713 64.9182 6.06713C65.2492 6.06713 65.5389 6.1281 65.7871 6.22973C66.0354 6.35168 66.2629 6.49396 66.4285 6.69721C66.5319 6.81916 66.6353 6.96144 66.7181 7.10371C66.8008 7.26632 66.8629 7.44924 66.9043 7.69314C66.9456 7.93705 66.987 8.24193 67.0077 8.60778C67.0284 8.97363 67.0284 9.44111 67.0284 10.0102Z" fill="#00B48D"/>
<path d="M88.1506 4.27845C88.1506 4.17682 88.0472 4.0752 87.9437 4.0752H85.9991C85.8956 4.0752 85.7922 4.17682 85.7922 4.27845V11.3313L81.0547 4.13617C81.0133 4.09552 80.9926 4.0752 80.9306 4.0752H79.1307C79.0273 4.0752 78.9239 4.17682 78.9239 4.27845C78.9239 8.09959 78.9239 11.9004 78.9239 15.7215C78.9239 15.8232 79.0273 15.9248 79.1307 15.9248H81.0754C81.1788 15.9248 81.2823 15.8435 81.2823 15.7215V8.64837L86.0198 15.8638C86.0611 15.9045 86.0818 15.9248 86.1439 15.9248H87.9437C88.0472 15.9248 88.1506 15.8232 88.1506 15.7215V4.27845Z" fill="#00B48D"/>
<path d="M75.138 4.27845C75.138 4.17682 75.0346 4.0752 74.9311 4.0752H72.9865C72.883 4.0752 72.7796 4.17682 72.7796 4.27845V15.7215C72.7796 15.8232 72.883 15.9248 72.9865 15.9248H74.9311C75.0346 15.9248 75.138 15.8435 75.138 15.7215V4.27845Z" fill="#00B48D"/>
<path d="M51.8849 9.99996C51.8849 9.43086 51.8849 8.96338 51.9056 8.5772C51.9263 8.21135 51.947 7.88614 51.9884 7.66257C52.1746 6.64631 52.9607 6.03655 53.9744 6.03655C54.6364 6.03655 55.2363 6.28045 55.6294 6.82923C55.7949 7.07313 55.919 7.33736 56.0018 7.66257C56.0018 7.70322 56.0225 7.70322 56.0639 7.70322H58.3602C58.4016 7.70322 58.4016 7.68289 58.4016 7.64224C58.1533 6.26013 57.3879 4.99996 56.0639 4.39021C55.4432 4.10566 54.7398 3.96338 53.9744 3.96338C52.6918 3.96338 51.5953 4.39021 50.7264 5.26419C50.2299 5.752 49.8782 6.36175 49.7541 7.05281C49.63 7.72354 49.5472 8.69915 49.5472 9.99996C49.5472 11.3008 49.6093 12.2764 49.7541 12.9471C49.8989 13.6382 50.2299 14.2276 50.7264 14.7357C51.616 15.6097 52.6918 16.0366 53.9744 16.0366C54.7605 16.0366 55.4432 15.8943 56.0639 15.6097C57.3879 15 58.1533 13.7398 58.4016 12.3577C58.4016 12.317 58.4016 12.2967 58.3602 12.2967H56.0639C56.0225 12.2967 56.0018 12.317 56.0018 12.3374C55.919 12.6626 55.7949 12.9268 55.6294 13.1707C55.2363 13.7195 54.6364 13.9634 53.9744 13.9634C52.9607 13.9634 52.1746 13.3536 51.9884 12.3374C51.947 12.0935 51.9056 11.7886 51.9056 11.4227C51.8849 11.0366 51.8849 10.5691 51.8849 9.99996Z" fill="#00B48D"/>
<path d="M27.7423 4.27845C27.7423 4.17682 27.6389 4.0752 27.5354 4.0752H25.5908C25.4874 4.0752 25.3839 4.1565 25.3839 4.27845V15.7215C25.3839 15.8232 25.4874 15.9248 25.5908 15.9248H27.5354C27.6389 15.9248 27.7423 15.8435 27.7423 15.7215V12.3679L29.2939 10.5386L32.5005 15.8638C32.5212 15.9045 32.5626 15.9248 32.6246 15.9248H34.983C35.0865 15.9248 35.1072 15.8638 35.0658 15.7622L30.8662 8.79064L34.7141 4.25812C34.7969 4.17682 34.7555 4.0752 34.6313 4.0752H32.0454C32.004 4.0752 31.9833 4.0752 31.9626 4.11585L27.7423 9.09552V4.27845Z" fill="#00B48D"/>
<path d="M41.8928 13.9025C40.7963 13.9025 39.8033 12.9065 39.8033 11.7277V4.22767C39.8033 4.12604 39.6999 4.02441 39.5964 4.02441H37.6518C37.5483 4.02441 37.4449 4.10571 37.4449 4.22767V11.7073C37.4449 14.3293 39.4309 15.9756 41.8928 15.9756C44.3339 15.9756 46.3406 14.309 46.3406 11.7073V4.22767C46.3406 4.12604 46.2372 4.02441 46.1338 4.02441H44.1891C44.0857 4.02441 43.9822 4.10571 43.9822 4.22767V11.7277C43.9822 12.9065 42.9892 13.9025 41.8928 13.9025Z" fill="#00B48D"/>
<path d="M96.1687 4.21253C96.1687 4.13642 96.0928 4.07935 96.0359 4.07935H91.1591C91.0832 4.07935 91.0262 4.15545 91.0262 4.21253V5.20186C91.0262 5.27796 91.1022 5.33503 91.1591 5.33503H92.9049C92.9049 7.27564 92.9049 9.19722 92.9049 11.1378C92.9049 11.2139 92.9808 11.271 93.0377 11.271H94.1762C94.2521 11.271 94.3091 11.1949 94.3091 11.1378V5.33503H96.0549C96.1308 5.33503 96.1877 5.25893 96.1877 5.20186V4.21253H96.1687ZM101.596 11.1378C101.596 11.2139 101.672 11.271 101.729 11.271H102.867C102.943 11.271 103 11.1949 103 11.1378V4.23155C103 4.15545 102.924 4.09837 102.867 4.09837H101.729C101.653 4.09837 101.596 4.17447 101.596 4.23155V7.02831H99.1669V4.23155C99.1669 4.15545 99.091 4.09837 99.0341 4.09837H97.8955C97.8196 4.09837 97.7627 4.17447 97.7627 4.23155C97.7627 6.53364 97.7627 8.83574 97.7627 11.1378C97.7627 11.2139 97.8386 11.271 97.8955 11.271H99.0341C99.11 11.271 99.1669 11.1949 99.1669 11.1378V8.26497H101.596V11.1378Z" fill="#EEAA00"/>
</svg>
