<svg width="24" height="24" viewBox="0 0 24 24" fill="none" xmlns="http://www.w3.org/2000/svg">
  <path
    d="M9 1.5C8.44772 1.5 8 1.94772 8 2.5C8 3.05228 8.44772 3.5 9 3.5H15C15.5523 3.5 16 3.05228 16 2.5C16 1.94772 15.5523 1.5 15 1.5H9Z"
    fill="#1D1D1D" />
  <path
    d="M4 4.5C3.44772 4.5 3 4.94772 3 5.5C3 6.05228 3.44772 6.5 4 6.5H20C20.5523 6.5 21 6.05228 21 5.5C21 4.94772 20.5523 4.5 20 4.5H4Z"
    fill="#1D1D1D" />
  <path
    d="M10 12C10.5523 12 11 12.4477 11 13V17.5C11 18.0523 10.5523 18.5 10 18.5C9.44772 18.5 9 18.0523 9 17.5V13C9 12.4477 9.44772 12 10 12Z"
    fill="#1D1D1D" />
  <path
    d="M14 12C14.5523 12 15 12.4477 15 13V17.5C15 18.0523 14.5523 18.5 14 18.5C13.4477 18.5 13 18.0523 13 17.5V13C13 12.4477 13.4477 12 14 12Z"
    fill="#1D1D1D" />
  <path fill-rule="evenodd" clip-rule="evenodd"
    d="M6 7.5C4.89543 7.5 4 8.39543 4 9.5V19.5C4 21.1569 5.34315 22.5 7 22.5H16C18.6569 22.5 20 21.1569 20 19.5V9.5C20 8.39543 19.1046 7.5 18 7.5H6ZM6 9.5H18V19.5C18 20.0523 17.5523 20.5 16 20.5H7C6.44772 20.5 6 20.0523 6 19.5V9.5Z"
    fill="#1D1D1D" />
</svg>
