<svg width="24" height="24" viewBox="0 0 24 24" fill="none" xmlns="http://www.w3.org/2000/svg">
<path d="M11.5 21.5H20.1C20.8732 21.5 21.5 20.8732 21.5 20.1V3.9C21.5 3.1268 20.8732 2.5 20.1 2.5H8.4C7.6268 2.5 7 3.1268 7 3.9V7.5" stroke="#F3F3F3" stroke-width="2" stroke-linejoin="round"/>
<path d="M2.5 8.9C2.5 8.1268 3.1268 7.5 3.9 7.5H10.1C10.8732 7.5 11.5 8.1268 11.5 8.9V20.1C11.5 20.8732 10.8732 21.5 10.1 21.5H3.9C3.1268 21.5 2.5 20.8732 2.5 20.1V8.9Z" stroke="#F3F3F3" stroke-width="2" stroke-linejoin="round"/>
<path d="M6.5 18.5H7.5" stroke="#F3F3F3" stroke-width="2" stroke-linecap="round" stroke-linejoin="round"/>
<path d="M14 18.5H15" stroke="#F3F3F3" stroke-width="2" stroke-linecap="round" stroke-linejoin="round"/>
</svg>
