<?xml version="1.0" encoding="UTF-8"?>
<svg width="23px" height="21px" viewBox="0 0 23 21" version="1.1" xmlns="http://www.w3.org/2000/svg" xmlns:xlink="http://www.w3.org/1999/xlink">
    <!-- Generator: Sketch 52.2 (67145) - http://www.bohemiancoding.com/sketch -->
    <title>Group 22</title>
    <desc>Created with Sketch.</desc>
    <g id="通知栏" stroke="none" stroke-width="1" fill="none" fill-rule="evenodd">
        <g id="弱通知" transform="translate(-1165.000000, -271.000000)" fill="currentColor" fill-rule="nonzero">
            <g id="Group-19" transform="translate(1144.000000, 249.000000)">
                <g id="Group-12-Copy-3">
                    <g id="Group-9-Copy-3">
                        <g id="Group-22" transform="translate(21.000000, 22.000000)">
                            <path d="M18,19.7445335 C18,20.4366973 17.4096463,21 16.6881029,21 L1.31189713,21 C0.590353722,21 0,20.4403831 0,19.7482193 L0,18.7909619 C0,17.8116181 0.478456595,16.8764613 1.27717038,16.2837006 C3.13697745,14.9030447 5.03151128,13.9458015 5.69517686,13.6254918 L5.69517686,12.7381936 C5.45209005,12.3111094 5.27073957,11.8287949 5.16270096,11.2986359 C4.79614149,11.0445855 4.58006426,10.4812828 4.41800649,9.92902326 C4.1826367,9.1300849 4.19421223,8.60359759 4.46045011,8.26855892 C4.51446942,8.20228551 4.57620575,8.14706948 4.6456591,8.09919669 C4.51446942,7.53589396 4.52604495,6.96154803 4.68424436,6.39087372 C4.8501608,5.70239577 5.23601282,5.05809063 5.81864952,4.48741632 C6.11575564,4.18552145 6.45916404,3.91307039 6.83344053,3.68480634 C7.16141474,3.47125711 7.50096463,3.30558067 7.84823154,3.19144864 C7.85209005,3.19144864 7.85594856,3.18776285 7.85980707,3.18776285 C8.17620575,3.08835982 8.49646308,3.029458 8.82057878,3.014729 C8.93633441,3.00735741 9.0675241,3 9.19871378,3 C9.9241157,3 10.5839228,3.16567644 11.170418,3.49702931 C11.7376206,3.79525257 12.0733119,4.16710665 12.2392283,4.38801329 C12.4707396,4.4579725 12.8180065,4.61627735 13.1151125,4.98813143 C13.6784566,5.69870997 13.8135048,6.8511018 13.5125402,8.41583474 C13.7980707,8.73245861 13.8250803,9.30313292 13.5819935,10.1168003 C13.400643,10.7279616 13.1305466,11.4201254 12.636656,11.5894876 C12.5517685,11.9282121 12.4398713,12.2411502 12.3048231,12.5283302 L12.3048231,13.621806 C12.9684887,13.9421157 14.8630226,14.9030447 16.7228296,16.2800148 C17.5215434,16.8727755 18,17.8116181 18,18.7872761 L18,19.7445335 Z" id="Shape"></path>
                            <path d="M23,16.7445335 C23,17.4366973 22.4096463,18 21.6881029,18 L6.31189713,18 C5.59035372,18 5,17.4403831 5,16.7482193 L5,15.7909619 C5,14.8116181 5.4784566,13.8764613 6.27717038,13.2837006 C8.13697745,11.9030447 10.0315113,10.9458015 10.6951769,10.6254918 L10.6951769,9.73819365 C10.4520901,9.31110936 10.2707396,8.82879487 10.162701,8.29863594 C9.79614149,8.04458551 9.58006426,7.48128278 9.41800649,6.92902326 C9.1826367,6.1300849 9.19421223,5.60359759 9.46045011,5.26855892 C9.51446942,5.20228551 9.57620575,5.14706948 9.6456591,5.09919669 C9.51446942,4.53589396 9.52604495,3.96154803 9.68424436,3.39087372 C9.8501608,2.70239577 10.2360128,2.05809063 10.8186495,1.48741632 C11.1157556,1.18552145 11.459164,0.913070392 11.8334405,0.684806338 C12.1614147,0.471257108 12.5009646,0.30558067 12.8482315,0.191448643 C12.8520901,0.191448643 12.8559486,0.187762849 12.8598071,0.187762849 C13.1762057,0.0883598217 13.4964631,0.0294579993 13.8205788,0.0147289996 C13.9363344,0.00735741175 14.0675241,0 14.1987138,0 C14.9241157,0 15.5839228,0.165676438 16.170418,0.497029313 C16.7376206,0.795252571 17.0733119,1.16710665 17.2392283,1.38801329 C17.4707396,1.4579725 17.8180065,1.61627735 18.1151125,1.98813143 C18.6784566,2.69870997 18.8135048,3.8511018 18.5125402,5.41583474 C18.7980707,5.73245861 18.8250803,6.30313292 18.5819935,7.11680029 C18.400643,7.72796163 18.1305466,8.42012538 17.636656,8.58948761 C17.5517685,8.92821207 17.4398713,9.24115016 17.3048231,9.52833021 L17.3048231,10.621806 C17.9684887,10.9421157 19.8630226,11.9030447 21.7228296,13.2800148 C22.5215434,13.8727755 23,14.8116181 23,15.7872761 L23,16.7445335 Z M5.94147915,16.7445335 C5.94147915,16.939668 6.10739558,17.0979728 6.31189713,17.0943012 L21.6881029,17.0943012 C21.8887459,17.0943012 22.0546623,16.9359822 22.0546623,16.7445335 L22.0546623,15.7872761 C22.0546623,15.087755 21.7151125,14.4176776 21.1440514,13.9942791 C19.1414791,12.5142202 17.1003216,11.5311906 16.7106109,11.3507852 C16.4945337,11.2476964 16.3594855,11.0452045 16.3594855,10.8132547 L16.3594855,9.42892718 C16.3594855,9.36265377 16.3749197,9.29638036 16.4057878,9.23379274 C16.5755627,8.89506828 16.7067524,8.497442 16.7877813,8.05564289 C16.814791,7.90836707 16.9228296,7.77950604 17.0694534,7.72060422 C17.1543408,7.68377463 17.2469453,7.67641722 17.3356914,7.69114622 C17.4051447,7.59174319 17.5247589,7.36715076 17.6713826,6.87379306 C17.837299,6.31417613 17.8064308,6.08958369 17.7871382,6.02332446 C17.5903537,5.93495046 17.4784566,5.728787 17.5247589,5.52260935 C17.9299035,3.66701057 17.6057878,2.871758 17.378135,2.56249153 C17.1620579,2.27162569 16.9112539,2.23481028 16.8996784,2.23481028 C16.7299035,2.22376707 16.5987138,2.13909304 16.5254019,1.99550302 C16.5254019,1.99550302 16.2861736,1.59050514 15.6996784,1.28123868 C15.163344,0.983029597 14.5575562,0.861525982 13.8823151,0.916756186 C13.6353698,0.927799392 13.4,0.968300597 13.1723472,1.04193142 C13.1723472,1.04193142 13.1684887,1.04561721 13.1646302,1.04561721 C12.8983923,1.13397703 12.6282958,1.26283806 12.3697749,1.43587191 C12.3659164,1.4395577 12.3581994,1.4432435 12.3543409,1.44691512 C12.0456591,1.63469214 11.7562702,1.8592704 11.5054662,2.11699246 C11.0385853,2.57353474 10.7376206,3.07424985 10.6064308,3.61178036 C10.4520901,4.17141147 10.4752411,4.71998519 10.6758843,5.25382992 C10.7299036,5.39741994 10.7028939,5.55942476 10.6025723,5.6809142 C10.5061094,5.79504623 10.355627,5.86131964 10.2051447,5.85396223 C10.1897107,5.93863626 10.178135,6.1742719 10.3286174,6.68234442 C10.5099679,7.29720573 10.6527331,7.49601178 10.7028939,7.55124199 C10.8842444,7.59541481 11.0231511,7.73900484 11.0540193,7.91941027 C11.1427652,8.482713 11.3202572,8.97607069 11.5749197,9.38842598 C11.6173633,9.45837101 11.6405145,9.53568762 11.6405145,9.61669003 L11.6405145,10.8132547 C11.6405145,11.0452045 11.5054662,11.2513822 11.2893891,11.3507852 C10.8996784,11.5311906 8.85852085,12.5105344 6.85209005,13.9942791 C6.28102889,14.4176776 5.94147915,15.087755 5.94147915,15.7872761 L5.94147915,16.7445335 Z" id="Shape"></path>
                        </g>
                    </g>
                </g>
            </g>
        </g>
    </g>
</svg>
