<?xml version="1.0" encoding="UTF-8"?>
<svg width="480px" height="200px" viewBox="0 0 480 200" version="1.1" xmlns="http://www.w3.org/2000/svg" xmlns:xlink="http://www.w3.org/1999/xlink">
    <title>插图1</title>
    <defs>
        <linearGradient x1="50.6321263%" y1="0%" x2="50.6321263%" y2="98.1773949%" id="linearGradient-1">
            <stop stop-color="#20895A" offset="0%"></stop>
            <stop stop-color="#67CCAE" offset="100%"></stop>
        </linearGradient>
        <rect id="path-2" x="0" y="0" width="480" height="200"></rect>
        <linearGradient x1="18.2339068%" y1="50%" x2="89.1337265%" y2="47.3448852%" id="linearGradient-4">
            <stop stop-color="#FFFFFF" stop-opacity="0" offset="0%"></stop>
            <stop stop-color="#FFFFFF" stop-opacity="0.209393268" offset="100%"></stop>
        </linearGradient>
        <linearGradient x1="95.9617913%" y1="18.2193211%" x2="39.9592101%" y2="72.8770131%" id="linearGradient-5">
            <stop stop-color="#FFFFFF" stop-opacity="0" offset="0%"></stop>
            <stop stop-color="#FFFFFF" stop-opacity="0.209393268" offset="100%"></stop>
        </linearGradient>
        <linearGradient x1="50%" y1="17.2178624%" x2="55.0788445%" y2="80.6201364%" id="linearGradient-6">
            <stop stop-color="#FFFFFF" stop-opacity="0" offset="0%"></stop>
            <stop stop-color="#FFFFFF" stop-opacity="0.209393268" offset="100%"></stop>
        </linearGradient>
        <linearGradient x1="62.694118%" y1="18.2193211%" x2="47.2268493%" y2="72.8770131%" id="linearGradient-7">
            <stop stop-color="#FFFFFF" stop-opacity="0" offset="0%"></stop>
            <stop stop-color="#FFFFFF" stop-opacity="0.209393268" offset="100%"></stop>
        </linearGradient>
        <path d="M304.897959,70.2857143 C304.897959,79.9862842 312.748509,87.8501499 322.432653,87.8501499 C332.116797,87.8501499 339.967347,79.9862842 339.967347,70.2857143 L392.571429,70.2857143 L392.571429,75.4672228 L392.571429,75.4672228 C390.370487,75.4672228 388.586271,77.2759119 388.586271,79.507043 C388.586271,81.738174 390.370487,83.5468631 392.571429,83.5468631 L392.571429,90.1335265 L392.571429,90.1335265 C390.370487,90.1335265 388.586271,91.9422156 388.586271,94.1733467 C388.586271,96.4044777 390.370487,98.2131668 392.571429,98.2131668 L392.571429,104.79983 L392.571429,104.79983 C390.370487,104.79983 388.586271,106.608519 388.586271,108.83965 C388.586271,111.070781 390.370487,112.879471 392.571429,112.879471 L392.571429,119.466134 L392.571429,119.466134 C390.370487,119.466134 388.586271,121.274823 388.586271,123.505954 C388.586271,125.737085 390.370487,127.545774 392.571429,127.545774 L392.571429,134.132438 L392.571429,134.132438 C390.370487,134.132438 388.586271,135.941127 388.586271,138.172258 C388.586271,140.403389 390.370487,142.212078 392.571429,142.212078 L392.571429,148.798741 L392.571429,148.798741 C390.370487,148.798741 388.586271,150.60743 388.586271,152.838561 C388.586271,155.069693 390.370487,156.878382 392.571429,156.878382 L392.571429,163.465045 L392.571429,163.465045 C390.370487,163.465045 388.586271,165.273734 388.586271,167.504865 C388.586271,169.735996 390.370487,171.544685 392.571429,171.544685 L392.571429,178.131349 L392.571429,178.131349 C390.370487,178.131349 388.586271,179.940038 388.586271,182.171169 C388.586271,184.4023 390.370487,186.210989 392.571429,186.210989 L392.571429,192.797652 L392.571429,192.797652 C390.370487,192.797652 388.586271,194.606341 388.586271,196.837473 C388.586271,199.068604 390.370487,200.877293 392.571429,200.877293 L392.571429,207.463956 L392.571429,207.463956 C390.370487,207.463956 388.586271,209.272645 388.586271,211.503776 C388.586271,213.734907 390.370487,215.543596 392.571429,215.543596 L392.571429,222.13026 L392.571429,222.13026 C390.370487,222.13026 388.586271,223.938949 388.586271,226.17008 C388.586271,228.401211 390.370487,230.2099 392.571429,230.2099 L392.571429,236.796563 L392.571429,236.796563 C390.370487,236.796563 388.586271,238.605253 388.586271,240.836384 C388.586271,243.067515 390.370487,244.876204 392.571429,244.876204 L392.571429,251.462867 L392.571429,251.462867 C390.370487,251.462867 388.586271,253.271556 388.586271,255.502687 C388.586271,257.733818 390.370487,259.542507 392.571429,259.542507 L392.571429,263.494505 L339.967347,263.494505 C339.967347,253.793936 332.116797,245.93007 322.432653,245.93007 C312.748509,245.93007 304.897959,253.793936 304.897959,263.494505 L95.8518857,263.494505 C90.2530438,263.494505 85.7142857,258.955747 85.7142857,253.356905 L85.7142857,70.2857143 L304.897959,70.2857143 Z" id="path-8"></path>
        <filter x="-1.8%" y="-2.8%" width="103.6%" height="105.7%" filterUnits="objectBoundingBox" id="filter-9">
            <feGaussianBlur stdDeviation="5" in="SourceAlpha" result="shadowBlurInner1"></feGaussianBlur>
            <feOffset dx="0" dy="1" in="shadowBlurInner1" result="shadowOffsetInner1"></feOffset>
            <feComposite in="shadowOffsetInner1" in2="SourceAlpha" operator="arithmetic" k2="-1" k3="1" result="shadowInnerInner1"></feComposite>
            <feColorMatrix values="0 0 0 0 1   0 0 0 0 0.924510305   0 0 0 0 0.806421494  0 0 0 0.5 0" type="matrix" in="shadowInnerInner1"></feColorMatrix>
        </filter>
        <linearGradient x1="50%" y1="10.4703967%" x2="68.2738575%" y2="73.9132875%" id="linearGradient-10">
            <stop stop-color="#EEDBCF" stop-opacity="0" offset="0%"></stop>
            <stop stop-color="#EDC3AD" offset="100%"></stop>
        </linearGradient>
        <linearGradient x1="36.0309463%" y1="0%" x2="63.7577699%" y2="82.2323793%" id="linearGradient-11">
            <stop stop-color="#EEDBCF" stop-opacity="0" offset="0%"></stop>
            <stop stop-color="#F2C4AA" offset="100%"></stop>
        </linearGradient>
        <linearGradient x1="50%" y1="0%" x2="50%" y2="95.8150907%" id="linearGradient-12">
            <stop stop-color="#000000" stop-opacity="0" offset="0%"></stop>
            <stop stop-color="#000000" stop-opacity="0.1" offset="100%"></stop>
        </linearGradient>
        <linearGradient x1="100%" y1="38.4146099%" x2="13.6438927%" y2="50%" id="linearGradient-13">
            <stop stop-color="#D27628" offset="0%"></stop>
            <stop stop-color="#834827" offset="100%"></stop>
        </linearGradient>
        <path d="M15.8287884,75.3010989 L15.8287884,46.7410989 L11.7887884,46.7410989 L3.34878843,50.2210989 L5.26878843,54.9010989 L9.66878843,53.1010989 L9.66878843,75.3010989 L15.8287884,75.3010989 Z M33.7887884,75.7410989 C37.2687884,75.7410989 39.3087884,74.9010989 40.9487884,72.8610989 C42.3487884,71.0610989 42.9087884,68.7810989 42.9087884,64.5410989 L42.9087884,57.5010989 C42.9087884,53.6210989 42.4687884,51.3810989 41.3087884,49.6610989 C39.7087884,47.3010989 37.4687884,46.3010989 33.7887884,46.3010989 C30.3087884,46.3010989 28.2687884,47.1410989 26.6287884,49.1810989 C25.2287884,50.9410989 24.6687884,53.3010989 24.6687884,57.5010989 L24.6687884,64.5410989 C24.6687884,68.4210989 25.1487884,70.6610989 26.2687884,72.3810989 C27.8687884,74.7410989 30.1087884,75.7410989 33.7887884,75.7410989 Z M33.7887884,70.7810989 C31.4687884,70.7810989 30.7087884,69.1410989 30.7087884,64.0210989 L30.7087884,58.0210989 C30.7087884,52.9010989 31.4687884,51.2610989 33.7887884,51.2610989 C36.1487884,51.2610989 36.8687884,52.8610989 36.8687884,58.0210989 L36.8687884,64.0210989 C36.8687884,69.1810989 36.1487884,70.7810989 33.7887884,70.7810989 Z M55.3887884,75.7410989 C58.8687884,75.7410989 60.9087884,74.9010989 62.5487884,72.8610989 C63.9487884,71.0610989 64.5087884,68.7810989 64.5087884,64.5410989 L64.5087884,57.5010989 C64.5087884,53.6210989 64.0687884,51.3810989 62.9087884,49.6610989 C61.3087884,47.3010989 59.0687884,46.3010989 55.3887884,46.3010989 C51.9087884,46.3010989 49.8687884,47.1410989 48.2287884,49.1810989 C46.8287884,50.9410989 46.2687884,53.3010989 46.2687884,57.5010989 L46.2687884,64.5410989 C46.2687884,68.4210989 46.7487884,70.6610989 47.8687884,72.3810989 C49.4687884,74.7410989 51.7087884,75.7410989 55.3887884,75.7410989 Z M55.3887884,70.7810989 C53.0687884,70.7810989 52.3087884,69.1410989 52.3087884,64.0210989 L52.3087884,58.0210989 C52.3087884,52.9010989 53.0687884,51.2610989 55.3887884,51.2610989 C57.7487884,51.2610989 58.4687884,52.8610989 58.4687884,58.0210989 L58.4687884,64.0210989 C58.4687884,69.1810989 57.7487884,70.7810989 55.3887884,70.7810989 Z" id="path-14"></path>
    </defs>
    <g id="Page-1" stroke="none" stroke-width="1" fill="none" fill-rule="evenodd">
        <g id="杠杆新手红包">
            <mask id="mask-3" fill="white">
                <use xlink:href="#path-2"></use>
            </mask>
            <g id="蒙版">
                <use fill="#10141C" xlink:href="#path-2"></use>
                <use fill="url(#linearGradient-1)" xlink:href="#path-2"></use>
            </g>
            <polygon id="路径-3" fill="url(#linearGradient-4)" mask="url(#mask-3)" transform="translate(71.073321, 111.781521) rotate(52.000000) translate(-71.073321, -111.781521) " points="194.888396 122.348014 214.146642 63.4285714 -72 82.929256 -11.5934952 160.134471"></polygon>
            <polygon id="路径-3" fill="url(#linearGradient-5)" mask="url(#mask-3)" points="350.571429 211.714286 277.714286 208.337953 480 -7.71428571 480 90"></polygon>
            <polygon id="路径-3" fill="url(#linearGradient-6)" mask="url(#mask-3)" points="195.381404 229.227182 245.526419 219.167007 183.428571 -61.7142857 104.571429 -61.7142857"></polygon>
            <polygon id="路径-3" fill="url(#linearGradient-7)" mask="url(#mask-3)" points="295.287872 229.227182 245.142857 219.167007 307.240704 -61.7142857 386.097847 -61.7142857"></polygon>
            <g id="形状结合" mask="url(#mask-3)">
                <use fill="#EEDBCF" fill-rule="evenodd" xlink:href="#path-8"></use>
                <use fill="black" fill-opacity="1" filter="url(#filter-9)" xlink:href="#path-8"></use>
            </g>
            <path d="M304.897959,70.2857143 C304.897959,79.9862842 312.748509,87.8501499 322.432653,87.8501499 C332.116797,87.8501499 339.967347,79.9862842 339.967347,70.2857143 L392.571429,70.2857143 L392.571429,75.4672228 L392.571429,75.4672228 C390.370487,75.4672228 388.586271,77.2759119 388.586271,79.507043 C388.586271,81.738174 390.370487,83.5468631 392.571429,83.5468631 L392.571429,90.1335265 L392.571429,90.1335265 C390.370487,90.1335265 388.586271,91.9422156 388.586271,94.1733467 C388.586271,96.4044777 390.370487,98.2131668 392.571429,98.2131668 L392.571429,104.79983 L392.571429,104.79983 C390.370487,104.79983 388.586271,106.608519 388.586271,108.83965 C388.586271,111.070781 390.370487,112.879471 392.571429,112.879471 L392.571429,119.466134 L392.571429,119.466134 C390.370487,119.466134 388.586271,121.274823 388.586271,123.505954 C388.586271,125.737085 390.370487,127.545774 392.571429,127.545774 L392.571429,134.132438 L392.571429,134.132438 C390.370487,134.132438 388.586271,135.941127 388.586271,138.172258 C388.586271,140.403389 390.370487,142.212078 392.571429,142.212078 L392.571429,148.798741 L392.571429,148.798741 C390.370487,148.798741 388.586271,150.60743 388.586271,152.838561 C388.586271,155.069693 390.370487,156.878382 392.571429,156.878382 L392.571429,163.465045 L392.571429,163.465045 C390.370487,163.465045 388.586271,165.273734 388.586271,167.504865 C388.586271,169.735996 390.370487,171.544685 392.571429,171.544685 L392.571429,178.131349 L392.571429,178.131349 C390.370487,178.131349 388.586271,179.940038 388.586271,182.171169 C388.586271,184.4023 390.370487,186.210989 392.571429,186.210989 L392.571429,192.797652 L392.571429,192.797652 C390.370487,192.797652 388.586271,194.606341 388.586271,196.837473 C388.586271,199.068604 390.370487,200.877293 392.571429,200.877293 L392.571429,207.463956 L392.571429,207.463956 C390.370487,207.463956 388.586271,209.272645 388.586271,211.503776 C388.586271,213.734907 390.370487,215.543596 392.571429,215.543596 L392.571429,222.13026 L392.571429,222.13026 C390.370487,222.13026 388.586271,223.938949 388.586271,226.17008 C388.586271,228.401211 390.370487,230.2099 392.571429,230.2099 L392.571429,236.796563 L392.571429,236.796563 C390.370487,236.796563 388.586271,238.605253 388.586271,240.836384 C388.586271,243.067515 390.370487,244.876204 392.571429,244.876204 L392.571429,251.462867 L392.571429,251.462867 C390.370487,251.462867 388.586271,253.271556 388.586271,255.502687 C388.586271,257.733818 390.370487,259.542507 392.571429,259.542507 L392.571429,263.494505 L339.526568,259.563695 C337.744512,251.75558 330.767741,245.93007 322.432653,245.93007 C315.005798,245.93007 308.65737,250.555195 306.101356,257.086854 L284.706979,255.502687 L247.614484,70.2857143 L304.897959,70.2857143 Z" id="形状结合" fill="url(#linearGradient-10)" mask="url(#mask-3)"></path>
            <path d="M230.256124,272.571429 L98.8400029,263.494505 C91.5908695,263.494505 85.7142857,257.609083 85.7142857,250.349046 L85.7142857,83.4311736 C85.7142857,76.1711369 91.5908695,70.2857143 98.8400029,70.2857143 L187.48767,70.2857143 L230.256124,272.571429 Z" id="路径" fill="url(#linearGradient-11)" fill-rule="nonzero" mask="url(#mask-3)"></path>
            <line x1="322.432653" y1="99.613017" x2="322.432653" y2="231.60975" id="路径" stroke="#D2A480" stroke-dasharray="4" mask="url(#mask-3)"></line>
            <rect id="矩形" fill="url(#linearGradient-12)" opacity="0.560000002" mask="url(#mask-3)" x="0" y="180.428571" width="480" height="20"></rect>
            <g id="编组" mask="url(#mask-3)">
                <g transform="translate(115.877034, 98.984615)">
                    <path d="M4.20839421,10.6087912 L4.20839421,6.64679121 L7.41439421,6.64679121 L7.41439421,4.63079121 L4.20839421,4.63079121 L4.20839421,2.62879121 L8.07239421,2.62879121 L8.07239421,0.612791209 L1.71639421,0.612791209 L1.71639421,10.6087912 L4.20839421,10.6087912 Z M13.1123942,10.7767912 C14.6803942,10.7767912 15.6043942,10.4407912 16.2623942,9.62879121 C16.7383942,9.04079121 16.8923942,8.38279121 16.8923942,6.84279121 L16.8923942,0.612791209 L14.4003942,0.612791209 L14.4003942,6.84279121 C14.4003942,8.41079121 14.1623942,8.77479121 13.1123942,8.77479121 C12.0483942,8.77479121 11.8103942,8.42479121 11.8103942,6.84279121 L11.8103942,0.612791209 L9.31839421,0.612791209 L9.31839421,6.84279121 C9.31839421,8.25679121 9.44439421,8.88679121 9.80839421,9.44679121 C10.4383942,10.3707912 11.4323942,10.7767912 13.1123942,10.7767912 Z M22.9963942,10.6087912 L22.9963942,2.62879121 L25.5723942,2.62879121 L25.5723942,0.612791209 L17.9283942,0.612791209 L17.9283942,2.62879121 L20.5043942,2.62879121 L20.5043942,10.6087912 L22.9963942,10.6087912 Z M30.4023942,10.7767912 C31.9703942,10.7767912 32.8943942,10.4407912 33.5523942,9.62879121 C34.0283942,9.04079121 34.1823942,8.38279121 34.1823942,6.84279121 L34.1823942,0.612791209 L31.6903942,0.612791209 L31.6903942,6.84279121 C31.6903942,8.41079121 31.4523942,8.77479121 30.4023942,8.77479121 C29.3383942,8.77479121 29.1003942,8.42479121 29.1003942,6.84279121 L29.1003942,0.612791209 L26.6083942,0.612791209 L26.6083942,6.84279121 C26.6083942,8.25679121 26.7343942,8.88679121 27.0983942,9.44679121 C27.7283942,10.3707912 28.7223942,10.7767912 30.4023942,10.7767912 Z M38.6623942,10.6087912 L38.6623942,6.74479121 L39.3343942,6.74479121 L41.1543942,10.6087912 L43.9123942,10.6087912 L41.7563942,6.54879121 C43.0023942,6.17079121 43.4783942,5.35879121 43.4783942,3.63679121 C43.4783942,2.53079121 43.2683942,1.85879121 42.7503942,1.34079121 C42.2183942,0.808791209 41.4903942,0.612791209 40.0903942,0.612791209 L36.1703942,0.612791209 L36.1703942,10.6087912 L38.6623942,10.6087912 Z M39.8383942,4.85479121 L38.6203942,4.85479121 L38.6203942,2.58679121 L39.8383942,2.58679121 C40.7203942,2.58679121 41.0143942,2.86679121 41.0143942,3.72079121 C41.0143942,4.57479121 40.7203942,4.85479121 39.8383942,4.85479121 Z M51.6823942,10.6087912 L51.6823942,8.59279121 L47.5943942,8.59279121 L47.5943942,6.57679121 L50.9683942,6.57679121 L50.9683942,4.56079121 L47.5943942,4.56079121 L47.5943942,2.62879121 L51.5983942,2.62879121 L51.5983942,0.612791209 L45.1303942,0.612791209 L45.1303942,10.6087912 L51.6823942,10.6087912 Z M56.2183942,10.7907912 C57.4643942,10.7907912 58.4583942,10.5107912 59.0883942,9.97879121 C59.6623942,9.48879121 59.9283942,8.77479121 59.9283942,7.68279121 C59.9283942,6.56279121 59.6063942,5.83479121 58.9203942,5.38679121 C58.4163942,5.06479121 58.1083942,4.95279121 56.8343942,4.63079121 C55.4903942,4.29479121 55.1123942,4.01479121 55.1123942,3.34279121 C55.1123942,2.75479121 55.4903942,2.43279121 56.1903942,2.43279121 C56.9463942,2.43279121 57.4083942,2.68479121 57.8983942,3.37079121 L59.7323942,2.20879121 C59.0463942,1.00479121 57.9543942,0.444791209 56.2323942,0.444791209 C53.9503942,0.444791209 52.7323942,1.50879121 52.7323942,3.51079121 C52.7323942,4.64479121 53.0963942,5.38679121 53.8943942,5.90479121 C54.4263942,6.24079121 54.7903942,6.36679121 56.5403942,6.80079121 C57.2683942,6.98279121 57.5483942,7.26279121 57.5483942,7.79479121 C57.5483942,8.46679121 57.1283942,8.78879121 56.2463942,8.78879121 C55.1823942,8.78879121 54.5943942,8.49479121 54.1463942,7.72479121 L52.2563942,8.92879121 C52.5643942,9.48879121 52.8443942,9.78279121 53.3063942,10.0767912 C54.0063942,10.5387912 55.0703942,10.7907912 56.2183942,10.7907912 Z" id="FUTURES" fill="#A77B5E" fill-rule="nonzero"></path>
                    <rect id="矩形" fill="#C66F28" fill-rule="evenodd" x="0.694394213" y="24.4659341" width="23.3056058" height="2.59340659"></rect>
                    <path d="M75.6672514,74.9985275 C76.9972514,74.9985275 77.8652514,74.6485275 78.4812514,73.8365275 C78.9432514,73.2485275 79.0832514,72.6185275 79.0832514,71.2045275 L79.0832514,64.8765275 L77.9212514,64.8765275 L77.9212514,71.2045275 C77.9212514,72.1145275 77.8372514,72.6045275 77.6412514,72.9965275 C77.2632514,73.7105275 76.6612514,74.0185275 75.6672514,74.0185275 C74.7292514,74.0185275 74.1832514,73.7525275 73.7772514,73.1365275 C73.5112514,72.7025275 73.4132514,72.2125275 73.4132514,71.2045275 L73.4132514,64.8765275 L72.2512514,64.8765275 L72.2512514,71.2045275 C72.2512514,72.5065275 72.3632514,73.1085275 72.7272514,73.6685275 C73.3152514,74.5785275 74.2532514,74.9985275 75.6672514,74.9985275 Z M84.5012514,74.9985275 C86.7132514,74.9985275 87.9312514,73.9905275 87.9312514,72.1705275 C87.9312514,71.2325275 87.6092514,70.5325275 86.9932514,70.1125275 C86.5032514,69.7765275 86.2652514,69.6785275 84.9212514,69.3565275 C83.2132514,68.9225275 82.6252514,68.4185275 82.6252514,67.3965275 C82.6252514,66.3465275 83.3392514,65.7165275 84.5152514,65.7165275 C85.4392514,65.7165275 86.1532514,66.0245275 86.5592514,66.5845275 L87.4412514,66.0105275 C86.9092514,65.1985275 85.9012514,64.7505275 84.5572514,64.7505275 C82.6392514,64.7505275 81.4912514,65.7585275 81.4912514,67.4665275 C81.4912514,68.9925275 82.2892514,69.7905275 84.3472514,70.3085275 C85.8172514,70.6725275 85.8172514,70.6725275 86.1952514,70.9385275 C86.5732514,71.2045275 86.7972514,71.6805275 86.7972514,72.2265275 C86.7972514,73.3605275 85.9572514,74.0185275 84.5012514,74.0185275 C83.3252514,74.0185275 82.4572514,73.6405275 82.0372514,72.9405275 L81.1272514,73.5285275 C81.7432514,74.5085275 82.8772514,74.9985275 84.5012514,74.9985275 Z M93.2512514,74.8725275 C95.6872514,74.9005275 96.9472514,73.5845275 96.8772514,71.0645275 L96.8772514,68.6845275 C96.9472514,66.1645275 95.6872514,64.8345275 93.2512514,64.8765275 L90.0592514,64.8765275 L90.0592514,74.8725275 L93.2512514,74.8725275 Z M93.0552514,73.9065275 L91.2212514,73.9065275 L91.2212514,65.8425275 L93.0552514,65.8425275 C94.8892514,65.8005275 95.7152514,66.7245275 95.7152514,68.7965275 L95.7152514,70.9525275 C95.7152514,73.0245275 94.8892514,73.9485275 93.0552514,73.9065275 Z M102.575251,74.8725275 L102.575251,65.8565275 L105.431251,65.8565275 L105.431251,64.8765275 L98.5292514,64.8765275 L98.5292514,65.8565275 L101.413251,65.8565275 L101.413251,74.8725275 L102.575251,74.8725275 Z" id="USDT" fill="#804B2E" fill-rule="nonzero"></path>
                    <g id="100" fill="none" opacity="0.688964844" fill-rule="nonzero">
                        <use fill="#804B2E" xlink:href="#path-14"></use>
                        <use fill="url(#linearGradient-13)" xlink:href="#path-14"></use>
                    </g>
                </g>
            </g>
        </g>
    </g>
</svg>