<svg fill="none" height="10" viewBox="0 0 10 10" width="10" xmlns="http://www.w3.org/2000/svg"><path d="m8.60855 1.34384c.1808-.0499.37239-.04432.55001.01593s.33308.17243.44621.32203.17873.3297.18832.51702c.00959.18731-.03725.37318-.13451.53356l-1.32454 2.17178c-.06745.10898-.11154.23085-.12944.35776-.0179.1269-.00922.25609.02546.37947l.68292 2.44837c.0499.1808.04436.37242-.01589.55004s-.17247.33305-.32207.44618-.32971.17873-.51702.18832c-.18732.0096-.37319-.03725-.53356-.13451l-2.1718-1.3246c-.10879-.06789-.23061-.11219-.35759-.1301-.12698-.0179-.25628-.00901-.37961.02614l-2.45161.68103c-.18065.0507-.37238.04576-.55017-.0142s-.33334-.17216-.44638-.32191-.178341-.33008-.187291-.5175c-.008951-.18741.038841-.37318.137101-.53302l1.32454-2.17177c.06618-.10951.1095-.2313.12737-.358s.00993-.2557-.02339-.37924l-.68105-2.45158c-.0507-.18065-.04576-.37238.01419-.55017.05996-.177787.17213-.333357.32188-.446401.14975-.113045.33012-.178317.51753-.187268.18742-.008951.37318.038841.53302.137099l2.1718 1.3245c.10968.06578.23147.10888.35811.12673.12663.01786.25554.01013.37913-.02275z" fill="#ffd056"/></svg>