<svg fill="none" height="32" viewBox="0 0 32 32" width="32" xmlns="http://www.w3.org/2000/svg"><path clip-rule="evenodd" d="m10.1953 10.1953c.2603-.26039.6824-.26039.9428 0l4.8619 4.8619 4.8619-4.8619c.2604-.26039.6825-.26039.9428 0 .2604.2603.2604.6824 0 .9428l-4.8619 4.8619 4.8619 4.8619c.2604.2604.2604.6825 0 .9428-.2603.2604-.6824.2604-.9428 0l-4.8619-4.8619-4.8619 4.8619c-.2604.2604-.6825.2604-.9428 0-.26039-.2603-.26039-.6824 0-.9428l4.8619-4.8619-4.8619-4.8619c-.26039-.2604-.26039-.6825 0-.9428z" fill="#1d1d1d" fill-rule="evenodd"/><rect height="30" rx="15" stroke="#1d1d1d" stroke-opacity=".08" stroke-width="2" width="30" x="1" y="1"/></svg>