<svg fill="none" height="120" viewBox="0 0 121 120" width="121" xmlns="http://www.w3.org/2000/svg" xmlns:xlink="http://www.w3.org/1999/xlink"><mask id="a" height="43" maskUnits="userSpaceOnUse" width="116" x="2" y="67"><path d="m116.553 85.7247-1.864-4.8467h-1.693c-8.442-7.6393-28.9853-13.0313-52.9909-13.0313-24.0057 0-44.5494 5.392-52.99366 13.0313h-1.69346l-1.86078 4.8467c-.36283.9259-.55161 1.9108-.55681 2.9052 0 11.4761 25.56351 20.7711 57.10181 20.7711s57.1018-9.306 57.1018-20.7711c-.002-.9942-.189-1.9793-.551-2.9052z" fill="#fff"/></mask><mask id="b" height="19" maskUnits="userSpaceOnUse" width="18" x="97" y="78"><path d="m105.86 96.0001c4.639 0 8.4-3.8683 8.4-8.64s-3.761-8.64-8.4-8.64-8.4 3.8683-8.4 8.64 3.761 8.64 8.4 8.64z" fill="#66dd8c" stroke="#000" stroke-miterlimit="10" stroke-width=".428571"/></mask><mask id="c" height="12" maskUnits="userSpaceOnUse" width="12" x="14" y="40"><path d="m14.5223 44.2551c-.738 2.7743.9769 5.6388 3.8305 6.3979s5.7652-.8745 6.5032-3.6488c.7381-2.7743-.9769-5.6388-3.8305-6.3979s-5.7652.8745-6.5032 3.6488z" fill="#66dd8c" stroke="#000" stroke-miterlimit="10" stroke-width=".428571"/></mask><path d="m114.889 82.7211-.053-.1373h-.147-1.611c-4.267-3.8304-11.528-7.0789-20.6889-9.374-9.211-2.3078-20.3661-3.6574-32.384-3.6574s-23.173 1.3496-32.3844 3.6574c-9.1612 2.2951-16.4225 5.5436-20.69155 9.374h-1.61117-.14727l-.05278.1374-1.86024 4.8454c-.0001.0002-.0002.0005-.00031.0007-.37225.9502-.56594 1.961-.57128 2.9815v.0011c0 2.955 1.64624 5.7419 4.56164 8.2496 2.91606 2.5085 7.12326 4.7575 12.30346 6.6415 10.3622 3.769 24.6636 6.095 40.451 6.095s30.0888-2.329 40.4508-6.1c5.18-1.884 9.388-4.134 12.304-6.6413 2.915-2.5072 4.561-5.2926 4.561-8.2448v-.0004c-.002-1.0207-.194-2.0321-.565-2.9827v-.0001z" fill="#000" stroke="#000" stroke-width=".428571"/><path d="m114.889 80.8011-.053-.1374h-.147-1.611c-4.267-3.8304-11.528-7.0788-20.6889-9.374-9.211-2.3077-20.3661-3.6573-32.384-3.6573s-23.173 1.3496-32.3844 3.6573c-9.1612 2.2952-16.4225 5.5436-20.69155 9.374h-1.61117-.14727l-.05278.1375-1.86024 4.8453c-.0001.0003-.0002.0005-.00031.0008-.37225.9502-.56594 1.9609-.57128 2.9814v.0012c0 2.9549 1.64624 5.7419 4.56164 8.2496 2.91606 2.5082 7.12326 4.7575 12.30346 6.6415 10.3622 3.769 24.6636 6.095 40.451 6.095s30.0888-2.329 40.4508-6.1c5.18-1.885 9.388-4.1337 12.304-6.6414 2.915-2.5071 4.561-5.2926 4.561-8.2447v-.0005c-.002-1.0206-.194-2.0321-.565-2.9826 0-.0001 0-.0001 0-.0002z" fill="#ebe9e9" stroke="#000" stroke-width=".428571"/><g fill="#fff" mask="url(#a)"><path d="m63.0033 101.43h-1.6762v7.331h1.6762z"/><path d="m68.715 101.151h-.8078v7.33h.8078z"/><path d="m60.1321 108.224v-41.563h-.1212c-24.0085 0-44.5494 5.392-52.9936 13.0284h-1.69346l-1.86078 4.8496c-.36283.9259-.55161 1.9108-.55681 2.9052 0 11.4763 25.56355 20.7718 57.10185 20.7718z"/></g><path d="m60.0099 102.599c30.4976 0 55.2211-8.9991 55.2211-20.0997s-24.7235-20.0994-55.2211-20.0994-55.22084 8.9988-55.22084 20.0994 24.72324 20.0997 55.22084 20.0997z" fill="#fff" stroke="#000" stroke-width=".428571"/><path d="m60.01 101.151c28.3036 0 51.248-8.3509 51.248-18.6517s-22.9444-18.6512-51.248-18.6512c-28.3037 0-51.24828 8.3504-51.24828 18.6512s22.94458 18.6517 51.24828 18.6517z" fill="#fff" stroke="#000" stroke-width=".428571"/><path d="m60.0099 102.598c-30.4968 0-55.22084-8.9977-55.22084-20.099" stroke="#000" stroke-miterlimit="10" stroke-width=".428571"/><path d="m60.0094 91.5375c13.7168 0 24.8365-4.0467 24.8365-9.0385 0-4.9919-11.1197-9.0386-24.8365-9.0386s-24.8365 4.0467-24.8365 9.0386c0 4.9918 11.1197 9.0385 24.8365 9.0385z" stroke="#ebe9e9" stroke-miterlimit="10" stroke-width=".857143"/><path d="m60.0098 89.5123c10.6402 0 19.2657-3.1399 19.2657-7.0133 0-3.8733-8.6255-7.0133-19.2657-7.0133-10.6401 0-19.2657 3.14-19.2657 7.0133 0 3.8734 8.6256 7.0133 19.2657 7.0133z" fill="#000"/><path d="m60.0103 83.2433c1.1297 0 2.0454-.3333 2.0454-.7444 0-.411-.9157-.7443-2.0454-.7443s-2.0455.3333-2.0455.7443c0 .4111.9158.7444 2.0455.7444z" stroke="#fff" stroke-width=".428571"/><path d="m63.5513 83.1597v-5.3037h-6.9287v5.3037c0 .0993.0545.2214.2145.3592.1594.1372.4025.2705.7217.3866.6365.2318 1.5302.3792 2.5282.3792s1.8917-.1469 2.5282-.3783c.3192-.116.5622-.2492.7216-.3865.1598-.1377.2145-.2601.2145-.3602z" fill="#000" stroke="#fff" stroke-width=".428571"/><path d="m64.957 78.0923v3.54c0 .9779-2.1809 1.77-4.8694 1.77-2.6884 0-4.8669-.7921-4.8669-1.77v-3.54z" fill="#fff" stroke="#000" stroke-miterlimit="10" stroke-width=".428571"/><path d="m59.3945 78.0328v5.3522" stroke="#ebe9e9" stroke-miterlimit="10" stroke-width=".428571"/><path d="m64.957 78.0923v3.54c0 .9779-2.1809 1.77-4.8694 1.77v-5.31z" fill="#ebe9e9"/><path d="m64.957 78.0923v3.54c0 .9779-2.1809 1.77-4.8694 1.77-2.6884 0-4.8669-.7921-4.8669-1.77v-3.54z" stroke="#000" stroke-linecap="round" stroke-miterlimit="10" stroke-width=".428571"/><path d="m60.0872 79.8648c-2.688 0-4.867-.7936-4.867-1.7725s2.179-1.7725 4.867-1.7725c2.6879 0 4.8669.7936 4.8669 1.7725s-2.179 1.7725-4.8669 1.7725z" fill="#fff" stroke="#000" stroke-linecap="round" stroke-miterlimit="10" stroke-width=".428571"/><path d="m60.0871 78.7831c-1.0473 0-1.8963-.3092-1.8963-.6907 0-.3814.849-.6907 1.8963-.6907s1.8963.3093 1.8963.6907c0 .3815-.849.6907-1.8963.6907z" fill="#000"/><g stroke="#000"><path d="m68.2733 10.72 1.8691.6165c11.2007 3.6964 18.3424 16.105 16.5542 30.38-2.0812 16.6211-15.4774 29.4816-29.9197 28.7256-2.0365-.106-3.9865-.4798-5.8277-1.0852l-1.8691-.6165c1.8412.6082 3.7912.9792 5.8277 1.0852 14.4395.756 27.8357-12.1018 29.9196-28.7257 1.7883-14.2749-5.3534-26.6836-16.5541-30.3799z" fill="#999" stroke-miterlimit="10" stroke-width=".857143"/><path d="m62.4481 9.63191c-14.4423-.75601-27.8385 12.10739-29.9196 28.72569-2.0812 16.6211 7.9367 30.7091 22.379 31.4651 14.4396.7561 27.8358-12.1017 29.9197-28.7256 2.0811-16.6183-7.9395-30.7064-22.3791-31.46519zm17.7928 31.27829c-1.6989 13.5803-12.6569 24.1003-24.4546 23.4782-11.8005-.6138-19.9967-12.1381-18.2922-25.7184 1.699-13.5775 12.657-24.1003 24.4547-23.4782 11.7977.6137 19.9966 12.1408 18.2921 25.7184z" fill="#b8a9a9" stroke-miterlimit="10" stroke-width=".428571"/><path d="m67.3836 13.2645 1.3965.4653c-1.6747-.5578-3.4496-.8998-5.3051-.9951-13.1528-.6951-25.3542 11.1052-27.2487 26.3532-1.6274 13.0981 4.8739 24.4808 15.0751 27.8723l-1.3965-.4653c-10.2012-3.3887-16.7053-14.7714-15.0751-27.8695 1.8944-15.2507 14.0959-27.0511 27.2487-26.356 1.8555.0981 3.6304.4401 5.3051.9951z" fill="#000" stroke-miterlimit="10" stroke-width=".428571"/><path d="m65.3556 15.6327 1.3558.4463c9.1531 3.0213 14.9947 13.1703 13.5329 24.8313-1.6989 13.5803-12.6569 24.1003-24.4546 23.4782-1.6654-.0865-3.2584-.3906-4.762-.8871l-1.3558-.4464c1.5036.4966 3.0966.8007 4.762.8871 11.7977.6221 22.7557-9.8979 24.4546-23.4782 1.4646-11.661-4.377-21.81-13.5329-24.8312z" fill="#000" stroke-miterlimit="10" stroke-width=".428571"/><path d="m60.593 14.7455c11.7977.6137 19.9966 12.1408 18.2921 25.7183-1.6989 13.5803-12.6569 24.1003-24.4546 23.4782-11.8005-.6137-19.9967-12.138-18.2922-25.7183 1.699-13.5775 12.657-24.1003 24.4547-23.4782z" fill="#66dd8c" stroke-miterlimit="10" stroke-width=".428571"/><path d="m62.5271 9.70775c14.5127.75985 24.5814 14.92215 22.4897 31.62475-2.0916 16.7026-15.5558 29.6313-30.0686 28.8714-14.5156-.7598-24.5843-14.9222-22.4926-31.6248s15.5559-29.63119 30.0715-28.87135zm-7.248 57.86895c13.2538.6953 25.5488-11.1089 27.461-26.3647 1.9122-15.2531-7.2872-28.1845-20.5411-28.8798-13.2539-.6954-25.5488 11.1089-27.461 26.3647-1.9123 15.2558 7.2844 28.1844 20.5411 28.8798z" fill="#fff" stroke-miterlimit="10" stroke-width=".428571"/><path d="m68.3814 10.7983 4.2226 1.3936c11.2575 3.7151 18.4326 16.1867 16.6353 30.534-2.0917 16.7026-15.5558 29.6313-30.0686 28.8714-2.0468-.1065-4.0067-.4823-5.8573-1.0907l-4.2226-1.3935c1.8506.6112 3.8077.9841 5.8573 1.0907 14.5128.7598 27.9769-12.166 30.0686-28.8714 1.7973-14.3474-5.3778-26.8189-16.6353-30.5341z" fill="#000" stroke-miterlimit="10" stroke-width=".428571"/></g><path d="m18.7637 86.8562c-2.3989 0-4.3437-.7079-4.3437-1.5813 0-.8733 1.9448-1.5813 4.3437-1.5813 2.399 0 4.3437.708 4.3437 1.5813 0 .8734-1.9447 1.5813-4.3437 1.5813z" fill="#000"/><path d="m21.1826 78.6394v6.6354c0 .4876-1.0824.8823-2.4185.8823s-2.4185-.3947-2.4185-.8823v-6.6354z" fill="#fff"/><path d="m18.5439 79.0594v7.0949" stroke="#ebe9e9" stroke-miterlimit="10" stroke-width=".428571"/><path d="m21.1826 78.6282v6.6466c0 .4257-.9471.8823-2.1169.8823v-7.5289z" fill="#ebe9e9"/><path d="m21.1826 78.6394v6.6354c0 .4876-1.0824.8823-2.4185.8823s-2.4185-.3947-2.4185-.8823v-6.6354z" stroke="#000" stroke-linecap="round" stroke-miterlimit="10" stroke-width=".428571"/><path d="m18.7641 79.5188c-1.3357 0-2.4185-.3937-2.4185-.8795 0-.4857 1.0828-.8794 2.4185-.8794s2.4185.3937 2.4185.8794c0 .4858-1.0828.8795-2.4185.8795z" fill="#fff" stroke="#000" stroke-linecap="round" stroke-miterlimit="10" stroke-width=".428571"/><path d="m43.6982 35.4811 1.1272.3729c.4626.1514.8804.4542 1.1972.9l-1.1271-.3729c-.3196-.4486-.7374-.7486-1.1973-.9z" fill="#000"/><path d="m44.8955 36.3839.3991-.1463.7252.5164 6.09 8.563-1.1243-.3729z" fill="#000"/><path d="m50.4836 52.6183-1.1272-.3729c.2356.0785.4935.1233.7683.1374.6954.0364 1.4272-.23 2.0328-.8104l1.1272.373c-.6057.5832-1.3375.8467-2.0328.8103-.2776-.0141-.5328-.0617-.7683-.1374z" fill="#000"/><path d="m70.8116 33.6698.8393-.3762.285.7491-18.6484 17.9027-.9832.2743-.144-.6473z" fill="#000"/><path d="m70.1639 28.3593 1.1272.3729c.4626.1514.8804.4542 1.1972.9.9028 1.273.6561 3.2469-.5524 4.4105l-.5654-.0481-.5617-.3248c1.2085-1.1636 1.4552-3.1376.5524-4.4105-.3197-.4486-.7375-.7486-1.1973-.9z" fill="#000"/><path d="m71.9359 34.0427-18.6484 17.9027-.9832.2743-.144-.6473 18.6513-17.9026.8393-.3762zm0 0c1.2085-1.1636 1.4552-3.1375.5524-4.4105-.3168-.4458-.7346-.7486-1.1972-.9l-1.1272-.3729c.4598.1514.8776.4514 1.1972.9.9029 1.2729.6562 3.2469-.5523 4.4105l.5617.3248zm-28.2377 1.4384 1.1272.3729c.4626.1514.8804.4542 1.1972.9l-1.1271-.3729c-.3196-.4486-.7374-.7486-1.1973-.9zm1.1973.9028 6.09 8.5602 1.1243.3729-6.09-8.563-.7252-.5164zm5.5881 16.2344-1.1272-.3729c.2356.0785.4935.1233.7683.1374.6954.0364 1.4272-.23 2.0328-.8104l1.1272.373c-.6057.5832-1.3375.8467-2.0328.8103-.2776-.0141-.5328-.0617-.7683-.1374z" stroke="#000" stroke-miterlimit="10" stroke-width=".428571"/><path d="m69.5616 28.2472c.6925.0364 1.3486.3785 1.8029 1.015.9028 1.2729.6561 3.2468-.5524 4.4104l-18.6485 17.9027c-.6056.5832-1.3374.8468-2.0328.8103-.844-.0448-1.5001-.3813-1.9543-1.0206l-7.6629-10.7724c-.9057-1.273-.6589-3.2469.5523-4.4077.6057-.5804 1.3375-.8496 2.03-.8131.6926.0364 1.3487.3785 1.8029 1.015l6.09 8.563 16.5456-15.8867c.6056-.5804 1.3374-.8496 2.03-.8131z" fill="#fff" stroke="#000" stroke-miterlimit="10" stroke-width=".428571"/><path d="m18.7398 78.96c.7953 0 1.44-.2149 1.44-.48s-.6447-.48-1.44-.48-1.44.2149-1.44.48.6447.48 1.44.48z" fill="#000"/><path clip-rule="evenodd" d="m18.0205 67.5601c0-2.5847 2.0953-4.68 4.68-4.68s4.68 2.0953 4.68 4.68v11.32c0 2.2797 1.868 4.1171 4.1474 4.0795l24.1607-.3994c.3976-.0065.7252.3104.7318.708s-.3104.7253-.708.7318l-24.1607.3994c-3.0838.0509-5.6112-2.435-5.6112-5.5193v-11.32c0-1.7894-1.4506-3.24-3.24-3.24s-3.24 1.4506-3.24 3.24v10.68c0 .3977-.3223.72-.72.72-.3976 0-.72-.3223-.72-.72z" fill="#000" fill-rule="evenodd"/><path clip-rule="evenodd" d="m18.7399 68.0399c.1988 0 .36.1612.36.36v.48c0 .1988-.1612.36-.36.36s-.36-.1612-.36-.36v-.48c0-.1988.1612-.36.36-.36zm0 2.4c.1988 0 .36.1612.36.36v4.8c0 .1988-.1612.36-.36.36s-.36-.1612-.36-.36v-4.8c0-.1988.1612-.36.36-.36zm23.4 13.08c0-.1988.1612-.36.36-.36h4.32c.1988 0 .36.1612.36.36s-.1612.36-.36.36h-4.32c-.1988 0-.36-.1612-.36-.36zm6.24 0c0-.1988.1612-.36.36-.36h.96c.1988 0 .36.1612.36.36s-.1612.36-.36.36h-.96c-.1988 0-.36-.1612-.36-.36z" fill="#66dd8c" fill-rule="evenodd"/><path d="m105.86 96.0001c4.639 0 8.4-3.8683 8.4-8.64s-3.761-8.64-8.4-8.64-8.4 3.8683-8.4 8.64 3.761 8.64 8.4 8.64z" fill="#66dd8c" stroke="#000" stroke-miterlimit="10" stroke-width=".428571"/><g mask="url(#b)"><path clip-rule="evenodd" d="m101.127 68.7644c.033-.1136.152-.179.265-.1459l26.271 7.6432c.114.0331.179.152.146.2656-.033.1137-.152.179-.266.1459l-26.27-7.6432c-.114-.0331-.179-.152-.146-.2656zm-3.7575 13.6808c-.1136-.0331-.2325.0322-.2656.1458-.033.1137.0323.2326.1459.2657l26.2712 7.6432c.113.033.232-.0323.265-.1459.033-.1137-.032-.2326-.146-.2656zm-.6704 2.3046c-.1137-.0331-.2326.0322-.2657.1459-.033.1136.0323.2325.1459.2656l26.2707 7.6432c.114.0331.233-.0323.266-.1459s-.033-.2326-.146-.2656zm-.9353 2.4503c.0331-.1137.152-.179.2656-.1459l26.2706 7.6432c.114.0331.179.152.146.2656s-.152.179-.266.1459l-26.2703-7.6432c-.1136-.0331-.179-.152-.1459-.2656zm-.4049 2.1585c-.1136-.0331-.2325.0322-.2656.1459-.033.1136.0323.2325.1459.2656l26.2708 7.6432c.114.0331.232-.0323.266-.1459.033-.1136-.033-.2325-.146-.2656zm-.9361 2.4503c.0331-.1136.152-.179.2657-.1459l26.2705 7.6432c.114.0331.179.152.146.2656-.033.1137-.152.179-.266.1459l-26.2703-7.6432c-.1136-.0331-.1789-.152-.1459-.2656zm-.4048 2.1585c-.1137-.0331-.2326.0323-.2656.1459-.0331.1136.0322.2326.1458.2656l26.2708 7.6431c.114.033.233-.032.266-.146.033-.113-.033-.232-.146-.265zm6.704-23.0443c-.114-.033-.233.0323-.266.1459s.033.2326.146.2656l26.271 7.6432c.114.0331.232-.0322.266-.1459.033-.1136-.033-.2325-.146-.2656zm-.9362 2.4503c.0331-.1136.152-.1789.2652-.1459l26.271 7.6432c.114.0331.179.152.146.2656-.033.1137-.152.179-.266.1459l-26.2703-7.6432c-.1136-.033-.1789-.152-.1459-.2656zm-.4048 2.1585c-.1137-.033-.2326.0323-.2656.1459-.0331.1137.0322.2326.1458.2656l26.2708 7.6433c.114.033.233-.0323.266-.1459.033-.1137-.033-.2326-.146-.2657zm-.9361 2.4503c.033-.1136.152-.1789.2656-.1459l26.2705 7.6432c.114.0331.179.152.146.2657-.033.1136-.152.1789-.265.1459l-26.2712-7.6433c-.1137-.033-.179-.1519-.1459-.2656zm-.4049 2.1585c-.1136-.033-.2325.0323-.2656.1459-.0331.1137.0323.2326.1459.2657l26.2707 7.6432c.114.033.233-.0323.266-.1459.033-.1137-.033-.2326-.146-.2656z" fill="#000" fill-rule="evenodd"/></g><path d="m97.63 89.2637c.2338 1.2099.716 2.3582 1.4089 3.3713 3.2131.1087 6.2361-1.5417 7.9221-4.3287 1.776-2.8017 2.032-6.3287.678-9.3653-1.152-.279-2.35-.2937-3.507-.0441-4.5099.9721-7.423 5.6121-6.502 10.3668z" fill="#fff" stroke="#000" stroke-miterlimit="10" stroke-width=".428571"/><path d="m14.5223 44.2551c-.738 2.7743.9769 5.6388 3.8305 6.3979s5.7652-.8745 6.5032-3.6488c.7381-2.7743-.9769-5.6388-3.8305-6.3979s-5.7652.8745-6.5032 3.6488z" fill="#66dd8c" stroke="#000" stroke-miterlimit="10" stroke-width=".428571"/><g mask="url(#c)"><path clip-rule="evenodd" d="m31.6056 45.6875c.1013.0611.1339.1929.0727.2942l-8.7501 14.4944c-.0612.1013-.1929.1338-.2942.0727-.1013-.0612-.1339-.1929-.0727-.2942l8.7501-14.4944c.0612-.1013.1929-.1339.2942-.0727zm-7.5562-4.3111c.0612-.1013.0286-.233-.0727-.2942s-.233-.0286-.2942.0727l-8.7501 14.4944c-.0612.1013-.0287.233.0727.2942.1013.0612.233.0286.2942-.0727zm-1.2715-.7676c.0612-.1013.0286-.233-.0727-.2942-.1013-.0611-.233-.0286-.2942.0727l-8.7501 14.4944c-.0612.1013-.0286.2331.0727.2942.1013.0612.233.0286.2942-.0727zm-1.3442-1.0617c.1014.0611.1339.1928.0727.2942l-8.7501 14.4943c-.0612.1013-.1929.1339-.2942.0727-.1013-.0611-.1339-.1928-.0727-.2942l8.7501-14.4943c.0612-.1014.1929-.1339.2942-.0727zm-1.1987-.4734c.0611-.1013.0286-.2331-.0727-.2942-.1014-.0612-.2331-.0286-.2942.0727l-8.7502 14.4944c-.0612.1013-.0286.233.0727.2942.1013.0611.233.0286.2942-.0727zm-1.3442-1.0616c.1013.0612.1338.1929.0727.2942l-8.7502 14.4944c-.0611.1013-.1929.1339-.29417.0727-.10132-.0612-.13387-.1929-.07271-.2942l8.75018-14.4944c.0611-.1013.1929-.1339.2942-.0727zm-1.1988-.4734c.0611-.1013.0286-.233-.0727-.2942-.1013-.0611-.233-.0286-.2942.0727l-8.75016 14.4944c-.06117.1013-.02862.233.0727.2942s.23303.0286.2942-.0727zm12.714 7.6754c.0612-.1013.0286-.233-.0727-.2942s-.233-.0286-.2942.0727l-8.7502 14.4944c-.0611.1013-.0286.233.0727.2942.1014.0611.2331.0286.2942-.0727zm-1.3434-1.0616c.1014.0612.1339.1929.0727.2942l-8.7501 14.4944c-.0612.1013-.1929.1339-.2942.0727s-.1339-.1929-.0727-.2942l8.7501-14.4944c.0612-.1013.1929-.1338.2942-.0727zm-1.1987-.4734c.0611-.1013.0286-.233-.0727-.2942-.1014-.0611-.2331-.0286-.2942.0727l-8.7502 14.4944c-.0611.1013-.0286.2331.0727.2942.1013.0612.233.0286.2942-.0727zm-1.3442-1.0617c.1013.0611.1338.1928.0727.2942l-8.7502 14.4943c-.0611.1014-.1929.1339-.2942.0727-.1013-.0611-.1338-.1928-.0727-.2942l8.7502-14.4943c.0611-.1013.1929-.1339.2942-.0727zm-1.1988-.4734c.0612-.1013.0286-.233-.0727-.2942s-.233-.0286-.2942.0727l-8.7502 14.4944c-.0611.1013-.0286.233.0727.2942.1014.0611.2331.0286.2942-.0727z" fill="#000" fill-rule="evenodd"/></g><path d="m19.8601 40.4051c-.7608-.0526-1.5241.0531-2.2403.3062-.5762 1.9044-.07 3.9746 1.3284 5.4262 1.393 1.5076 3.4613 2.2223 5.4927 1.8957.3501-.6445.5494-1.3587.5843-2.0907.1362-2.8515-2.1752-5.3317-5.1651-5.5374z" fill="#fff" stroke="#000" stroke-miterlimit="10" stroke-width=".428571"/></svg>