<svg fill="none" height="12" viewBox="0 0 12 12" width="12" xmlns="http://www.w3.org/2000/svg"><g fill="#737e8d"><path d="m6.66197 7.13742c.00231.06299.0047.12818.0047.19591h-1.33334v-.33333c-.00854-.78972.05983-1.00918.70086-1.5877.43589-.41322.65812-.6336.65812-.99173 0-.37649-.3077-.61524-.69231-.61524-.44445 0-.62925.26607-.81729 1.02824l-1.18271-.22016c.23932-1.32232.82051-1.94674 2-1.94674 1.22222 0 2 .66115 2 1.83654 0 .46832-.11966.81727-.41026 1.17539-.15384.18366-.24786.28467-.65812.6428-.29051.24709-.28106.50477-.26965.81602z"/><path d="m6.66667 8v1.33333h-1.33334v-1.33333z"/><path clip-rule="evenodd" d="m12 6c0 3.31371-2.68629 6-6 6s-6-2.68629-6-6 2.68629-6 6-6 6 2.68629 6 6zm-1.3067 0c0 2.59206-2.10124 4.6933-4.6933 4.6933s-4.69333-2.10124-4.69333-4.6933 2.10127-4.69333 4.69333-4.69333 4.6933 2.10127 4.6933 4.69333z" fill-rule="evenodd"/></g></svg>