<svg width="16" height="16" viewBox="0 0 16 16" fill="none" xmlns="http://www.w3.org/2000/svg">
<rect width="16" height="16" rx="2" fill="#FFB547"/>
<path d="M13.332 3.48828H2.66797C2.4411 3.48828 2.25781 3.67157 2.25781 3.89844V12.1016C2.25781 12.3284 2.4411 12.5117 2.66797 12.5117H13.332C13.5589 12.5117 13.7422 12.3284 13.7422 12.1016V3.89844C13.7422 3.67157 13.5589 3.48828 13.332 3.48828ZM12.2964 4.88409L8.2525 8.03076C8.15253 8.10895 8.01282 8.10895 7.91284 8.03076L3.86768 4.88409C3.85243 4.87233 3.84124 4.85608 3.83569 4.83764C3.83014 4.81919 3.8305 4.79947 3.83671 4.78124C3.84293 4.76301 3.8547 4.74718 3.87036 4.73598C3.88603 4.72477 3.90481 4.71875 3.92407 4.71875H12.24C12.2593 4.71875 12.278 4.72477 12.2937 4.73598C12.3094 4.74718 12.3211 4.76301 12.3273 4.78124C12.3336 4.79947 12.3339 4.81919 12.3284 4.83764C12.3228 4.85608 12.3116 4.87233 12.2964 4.88409V4.88409Z" fill="white"/>
</svg>
