<?xml version="1.0" encoding="UTF-8"?>
<svg width="17px" height="10px" viewBox="0 0 17 10" version="1.1" xmlns="http://www.w3.org/2000/svg" xmlns:xlink="http://www.w3.org/1999/xlink">
    <!-- Generator: Sketch 56.3 (81716) - https://sketch.com -->
    <title>Icon/arrowright</title>
    <desc>Created with Sketch.</desc>
    <g id="页面-1" stroke="none" stroke-width="1" fill="none" fill-rule="evenodd">
        <g id="导航栏下拉最小宽度备份-4" transform="translate(-898.000000, -407.000000)">
            <g id="Icon/arrowright" transform="translate(895.000000, 400.000000)">
                <g>
                    <rect id="矩形" x="0" y="0" width="24" height="24"></rect>
                    <path d="M17.7928932,11.5 L14.6464466,8.35355339 C14.4511845,8.15829124 14.4511845,7.84170876 14.6464466,7.64644661 C14.8417088,7.45118446 15.1582912,7.45118446 15.3535534,7.64644661 L19,11.2928932 C19.3905243,11.6834175 19.3905243,12.3165825 19,12.7071068 L15.3535534,16.3535534 C15.1582912,16.5488155 14.8417088,16.5488155 14.6464466,16.3535534 C14.4511845,16.1582912 14.4511845,15.8417088 14.6464466,15.6464466 L17.7928932,12.5 L3.5,12.5 C3.22385763,12.5 3,12.2761424 3,12 C3,11.7238576 3.22385763,11.5 3.5,11.5 L17.7928932,11.5 Z" id="形状结合" fill="#FFFFFF" fill-rule="nonzero" opacity="0.25"></path>
                </g>
            </g>
        </g>
    </g>
</svg>