<svg width="16" height="16" viewBox="0 0 16 16" fill="none" xmlns="http://www.w3.org/2000/svg">
<g id="ic2_warning" clip-path="url(#clip0_428_1352)">
<g id="Union">
<path d="M8.00008 3.66628C8.36827 3.66628 8.66675 3.96476 8.66675 4.33295V8.99961C8.66675 9.3678 8.36827 9.66628 8.00008 9.66628C7.63189 9.66628 7.33342 9.3678 7.33342 8.99961V4.33295C7.33342 3.96476 7.63189 3.66628 8.00008 3.66628Z" fill="#F65454"/>
<path d="M8.00008 11.9996C8.2211 11.9996 8.43306 11.9118 8.58934 11.7555C8.74562 11.5993 8.83342 11.3873 8.83342 11.1663C8.83342 10.9453 8.74562 10.7333 8.58934 10.577C8.43306 10.4207 8.2211 10.3329 8.00008 10.3329C7.77907 10.3329 7.56711 10.4207 7.41083 10.577C7.25455 10.7333 7.16675 10.9453 7.16675 11.1663C7.16675 11.3873 7.25455 11.5993 7.41083 11.7555C7.56711 11.9118 7.77907 11.9996 8.00008 11.9996Z" fill="#F65454"/>
<path fill-rule="evenodd" clip-rule="evenodd" d="M0.666748 8C0.666748 3.94991 3.94999 0.666664 8.00008 0.666664C12.0502 0.666664 15.3334 3.94991 15.3334 8C15.3334 12.0501 12.0502 15.3333 8.00008 15.3333C3.94999 15.3333 0.666748 12.0501 0.666748 8ZM8.00008 2C4.68637 2 2.00008 4.68629 2.00008 8C2.00008 11.3137 4.68637 14 8.00008 14C11.3138 14 14.0001 11.3137 14.0001 8C14.0001 4.68629 11.3138 2 8.00008 2Z" fill="#F65454"/>
</g>
</g>
<defs>
<clipPath id="clip0_428_1352">
<rect width="16" height="16" fill="white"/>
</clipPath>
</defs>
</svg>
