<svg width="21" height="20" viewBox="0 0 21 20" fill="none" xmlns="http://www.w3.org/2000/svg">
<path d="M10.9023 7.00391V6.00391" stroke="#F3F3F3" stroke-width="1.6" stroke-linecap="round" stroke-linejoin="round"/>
<path d="M10.9023 13.0039V14.0039" stroke="#F3F3F3" stroke-width="1.6" stroke-linecap="round" stroke-linejoin="round"/>
<path d="M9.16755 12.2868C9.42378 12.7274 9.89334 13.0002 10.403 13.0046H11.499C12.2079 13.004 12.8053 12.4752 12.8919 11.7716C12.9785 11.068 12.5272 10.4102 11.8396 10.2377L9.96527 9.76686C9.27766 9.59439 8.82636 8.93655 8.91296 8.23294C8.99957 7.52934 9.59693 7.00057 10.3058 7H11.4018C11.9105 7.00353 12.3796 7.27501 12.6361 7.71428" stroke="#F3F3F3" stroke-width="1.6" stroke-linecap="round" stroke-linejoin="round"/>
<path d="M10.9004 1C15.871 1 19.9004 5.02944 19.9004 10C19.9004 14.9706 15.871 19 10.9004 19C5.92983 19 1.90039 14.9706 1.90039 10C1.90039 5.02944 5.92983 1 10.9004 1" stroke="#F3F3F3" stroke-width="1.6" stroke-linecap="round" stroke-linejoin="round"/>
<path d="M10.9004 1C15.871 1 19.9004 5.02944 19.9004 10C19.9004 14.9706 15.871 19 10.9004 19C5.92983 19 1.90039 14.9706 1.90039 10C1.90039 5.02944 5.92983 1 10.9004 1" stroke="#F3F3F3" stroke-width="1.6" stroke-linecap="round" stroke-linejoin="round"/>
</svg>
