<svg width="148" height="148" viewBox="0 0 148 148" fill="none" xmlns="http://www.w3.org/2000/svg">
<path d="M25.1534 111.838V106.69C25.1534 108.66 26.7313 110.662 30.0613 112.545C41.6946 119.162 70.3695 121.926 94.104 118.737C111.048 116.463 120.896 111.751 120.907 106.843V111.99C120.885 116.898 111.048 121.599 94.0931 123.885C70.3587 127.073 41.6837 124.298 30.0504 117.692C26.7204 115.799 25.1425 113.797 25.1534 111.838Z" fill="#D5DFE2" stroke="black" stroke-width="0.35" stroke-linecap="round" stroke-linejoin="round"/>
<path d="M112.343 98.7898C101.7 92.7392 75.4843 90.2036 53.774 93.131C32.0746 96.0475 23.1076 103.317 33.7505 109.367C44.3934 115.418 70.609 117.954 92.3193 115.026C114.019 112.11 122.986 104.84 112.343 98.7898Z" fill="white"/>
<path d="M59.8352 115.647L61.2717 114.134C61.4784 113.916 61.337 113.557 61.0431 113.524C52.4243 112.665 44.9373 110.913 40.5952 108.442C40.4428 108.355 40.3014 108.268 40.1599 108.181C39.6049 107.844 38.952 107.735 38.3099 107.844L32.8252 108.812" stroke="#D5DFE2" stroke-width="0.35" stroke-linecap="round" stroke-linejoin="round"/>
<path d="M29.7127 101.032L33.4236 98.8442C27.9824 102.055 27.6559 105.907 33.7391 109.367C44.3821 115.418 70.5977 117.954 92.308 115.026C113.768 112.142 122.768 105.004 112.691 98.9966C113.92 99.7366 115.161 100.466 116.391 101.206C127.414 107.768 117.566 115.57 94.1036 118.726C70.3691 121.915 41.6941 119.14 30.0609 112.534C23.4118 108.758 23.76 104.547 29.7127 101.032Z" fill="white" stroke="#91A5AA" stroke-width="0.35" stroke-linecap="round" stroke-linejoin="round"/>
<path d="M120.907 110.009V109.443C120.885 111.37 119.351 113.252 116.478 114.972C116.238 115.113 116.032 115.32 115.89 115.559C115.596 116.071 115.324 116.528 115.031 117.028C114.867 117.311 114.617 117.54 114.323 117.681C109.6 119.912 102.461 121.784 93.3202 122.959C93.0699 122.992 92.8196 122.916 92.6347 122.753L91.7967 122.013C91.5138 121.762 91.1438 121.643 90.7738 121.686C78.9991 122.97 66.2994 122.872 55.2102 121.621C54.9055 121.588 54.6008 121.686 54.3614 121.893L53.5452 122.622C53.3058 122.84 52.9794 122.938 52.6638 122.894C44.1211 121.762 36.7102 119.934 31.6826 117.518C31.4323 117.398 31.2364 117.213 31.1058 116.974C30.812 116.473 30.4747 115.875 30.2352 115.483C30.1699 115.363 30.0611 115.189 29.9088 115.048C29.7129 114.874 29.4735 114.743 29.4191 114.71C27.7214 113.666 26.557 112.588 25.8714 111.511C25.5776 111.032 25.3708 110.564 25.262 110.085C25.1967 109.803 25.1641 109.52 25.1641 109.248V112.512C25.1641 112.73 25.1967 112.991 25.2511 113.209C25.2511 113.22 25.2511 113.241 25.262 113.252C25.3164 113.481 25.3817 113.709 25.4797 113.938C25.4797 113.938 25.4905 113.96 25.4905 113.97C25.5885 114.199 25.7082 114.438 25.8497 114.667C25.8497 114.678 25.8714 114.7 25.8823 114.71C26.0238 114.939 26.187 115.168 26.3829 115.396C26.4155 115.429 26.4482 115.461 26.4808 115.494C26.6658 115.701 26.8508 115.908 27.0685 116.114C27.1338 116.18 27.2099 116.234 27.2861 116.299C27.482 116.473 27.6779 116.658 27.9064 116.833C28.0479 116.941 28.2111 117.05 28.3635 117.159C28.5376 117.29 28.7008 117.42 28.8967 117.54C29.2558 117.779 29.6367 118.008 30.0502 118.247C35.1214 121.131 43.4355 123.275 53.1535 124.526C54.6661 124.722 56.2114 124.896 57.7894 125.038C57.8329 125.038 57.8764 125.038 57.9199 125.049C59.4435 125.19 60.9888 125.31 62.5558 125.419C62.6538 125.419 62.7517 125.43 62.8388 125.44C64.3732 125.538 65.9294 125.615 67.4964 125.669C67.5944 125.669 67.6814 125.669 67.7794 125.669C69.3899 125.723 71.0114 125.756 72.6329 125.756C72.6655 125.756 72.6982 125.756 72.7308 125.756C79.9023 125.778 87.2044 125.364 94.082 124.439C103.136 123.22 110.166 121.316 114.748 119.053C115.727 118.563 116.598 118.062 117.348 117.551C117.37 117.54 117.381 117.529 117.403 117.518C117.751 117.279 118.078 117.028 118.382 116.778C118.415 116.756 118.448 116.724 118.469 116.702C118.752 116.463 119.013 116.212 119.253 115.973C119.286 115.94 119.318 115.908 119.34 115.875C119.568 115.635 119.764 115.385 119.949 115.146C119.971 115.113 119.993 115.08 120.026 115.037C120.2 114.787 120.341 114.536 120.461 114.297C120.472 114.264 120.493 114.232 120.504 114.199C120.624 113.949 120.711 113.688 120.776 113.426C120.776 113.405 120.776 113.383 120.787 113.361C120.842 113.089 120.885 112.828 120.885 112.556V111.663V110.009H120.907Z" fill="#2E4247" stroke="black" stroke-width="0.35" stroke-linecap="round" stroke-linejoin="round"/>
<path d="M116.401 101.206C115.172 100.466 113.931 99.7366 112.701 98.9966C112.81 99.0619 112.897 99.1272 112.995 99.1816C112.789 99.051 112.571 98.9204 112.342 98.7898C101.699 92.7392 75.4839 90.2036 53.7736 93.131C44.3821 94.3933 37.3847 96.4719 33.3147 98.9095C33.3474 98.8878 33.38 98.866 33.4236 98.8442L29.7127 101.032C23.76 104.547 23.4118 108.758 30.0609 112.534C41.6941 119.151 70.3691 121.915 94.1036 118.726C117.566 115.57 127.414 107.768 116.391 101.206H116.401Z" stroke="black" stroke-width="0.35" stroke-linecap="round" stroke-linejoin="round"/>
<path d="M110.156 99.0838C109.655 98.8009 109.1 98.5179 108.523 98.2459C108.414 98.1914 108.284 98.1697 108.153 98.1914L105.128 98.5397C104.965 98.5614 104.845 98.7791 105.019 98.8662C105.52 99.0947 105.988 99.345 106.423 99.5844C110.362 101.826 111.135 104.253 109.242 106.495C109.046 106.734 109.176 107.093 109.481 107.137L112.18 107.507C112.387 107.539 112.593 107.463 112.746 107.322C115.488 104.688 114.846 101.761 110.145 99.0947L110.156 99.0838Z" fill="#D5DFE2"/>
<path d="M56.0808 94.5894C55.7 94.4153 54.5682 93.9147 54.5682 93.9147C54.4267 93.8494 54.2744 93.8385 54.1329 93.8494C39.9858 95.8517 31.7806 99.8347 31.7588 103.992C31.7588 104.307 32.0091 104.568 32.3247 104.547L35.2738 104.373C35.535 104.362 35.7635 104.155 35.7744 103.894C35.9267 100.172 43.2941 96.6244 55.9503 94.8397C56.1353 94.8179 56.342 94.6982 56.0808 94.5785V94.5894Z" fill="#D5DFE2"/>
<path d="M100.535 100.509C97.1072 98.5615 91.3504 97.1359 84.6687 96.3633L73.3184 102.229L86.116 111.305C86.5839 111.642 87.1716 111.784 87.7484 111.697C102.048 109.553 107.783 104.634 100.546 100.52L100.535 100.509Z" stroke="#D5DFE2" stroke-width="0.35" stroke-linecap="round" stroke-linejoin="round"/>
<path d="M51.2929 99.3123C52.6206 98.8662 53.132 98.7138 54.057 98.4526C52.6097 98.9859 50.9882 99.4212 49.987 100.651C49.3015 101.489 49.2144 102.501 49.8565 103.393C50.357 104.079 51.0862 104.579 51.8153 104.993C57.5612 108.258 71.7191 109.629 83.4503 108.051C95.1706 106.473 100.013 102.544 94.2673 99.2797C94.2673 99.2797 96.7376 100.216 97.5429 100.607C99.5779 101.565 100.47 102.86 100.416 104.014C100.296 106.789 94.6809 109.444 85.0826 110.728C71.5015 112.556 55.1017 110.967 48.4417 107.18C47.3644 106.571 46.0912 105.7 45.732 104.438C45.4273 103.382 45.9606 102.381 46.7441 101.706C47.6582 100.912 49.7041 99.8456 51.282 99.3123H51.2929Z" fill="#2E4247" stroke="black" stroke-width="0.35" stroke-linecap="round" stroke-linejoin="round"/>
<path d="M96.5307 100.313C102.897 103.926 97.5319 108.268 84.5601 110.02C71.5883 111.761 55.9177 110.249 49.5516 106.636C43.1854 103.023 48.5504 98.6807 61.5221 96.9287C74.4939 95.1875 90.1645 96.7002 96.5307 100.313Z" fill="white" stroke="black" stroke-width="0.35" stroke-linecap="round" stroke-linejoin="round"/>
<path d="M96.5307 100.313C102.897 103.926 97.5319 108.268 84.5601 110.02C71.5883 111.761 55.9177 110.249 49.5516 106.636C43.1854 103.023 48.5504 98.6807 61.5221 96.9287C74.4939 95.1875 90.1645 96.7002 96.5307 100.313Z" fill="#D5DFE2" stroke="black" stroke-width="0.35" stroke-linecap="round" stroke-linejoin="round"/>
<path d="M98.0324 101.587C98.0324 101.587 97.9562 101.51 97.9127 101.467L74.4394 105.526L95.2138 99.8128C95.1377 99.7801 95.0724 99.7475 94.9962 99.7148L74.2327 105.428L90.9371 98.3545C90.8391 98.3328 90.7412 98.3001 90.6324 98.2784L73.9497 105.341L85.6047 97.2663C85.485 97.2445 85.3544 97.2337 85.2347 97.2119L73.5906 105.276L79.5759 96.5916C79.4453 96.5916 79.3147 96.5698 79.1841 96.559L73.1988 105.243V96.3413C73.0574 96.3413 72.9268 96.3413 72.7853 96.3413V105.232L66.7891 96.5263C66.6585 96.5263 66.5171 96.5481 66.3865 96.5481L72.3827 105.254L60.7059 97.1575C60.5862 97.1792 60.4556 97.1901 60.3359 97.2119L72.0235 105.308L55.2756 98.224C55.1777 98.2457 55.0688 98.2784 54.9709 98.3001L71.7297 105.395L50.9444 99.6822C50.8683 99.7148 50.7921 99.7475 50.7268 99.7801L71.5338 105.504L48.0933 101.456C48.0933 101.456 48.0171 101.532 47.9844 101.576L71.4359 105.624L47.0703 103.415C47.0703 103.415 47.0703 103.491 47.0703 103.535L71.4359 105.744L48.0497 105.406C48.0497 105.406 48.1259 105.482 48.1694 105.526L71.5338 105.863L50.9335 107.224C51.0097 107.256 51.0968 107.289 51.173 107.322L71.7406 105.961L55.3518 108.704C55.4606 108.725 55.5585 108.758 55.6674 108.791L72.0453 106.048L60.7494 109.781C60.8691 109.803 60.9997 109.814 61.1303 109.835L72.4044 106.103L66.6694 110.423C66.8 110.423 66.9306 110.445 67.0612 110.456L72.8071 106.125V110.652C72.9485 110.652 73.0791 110.652 73.2206 110.652V106.125L78.9883 110.477C79.1188 110.477 79.2603 110.467 79.3909 110.456L73.6124 106.103L85.0171 109.879C85.1477 109.857 85.2674 109.846 85.398 109.825L73.9715 106.037L90.5671 108.823C90.6759 108.802 90.7847 108.769 90.8935 108.747L74.2544 105.961L95.0941 107.343C95.1703 107.311 95.2465 107.278 95.3227 107.235L74.4612 105.852L98.0541 105.515C98.0541 105.515 98.1303 105.439 98.163 105.395L74.57 105.733L99.0662 103.513C99.0662 103.513 99.0662 103.437 99.0662 103.393L74.5809 105.613L98.065 101.554L98.0324 101.587Z" fill="white"/>
<path d="M88.0643 103.763C92.1343 106.07 88.7064 108.845 80.414 109.966C72.1217 111.076 62.0991 110.107 58.0399 107.8C53.9699 105.493 57.3979 102.718 65.6902 101.597C73.9826 100.476 84.0052 101.456 88.0643 103.763Z" fill="white"/>
<path d="M82.7316 104.623C85.3542 106.114 83.1451 107.909 77.791 108.628C72.4369 109.346 65.9728 108.726 63.3501 107.235C60.7275 105.744 62.9366 103.948 68.2907 103.23C73.6448 102.512 80.1089 103.132 82.7316 104.623Z" fill="#F7B100"/>
<path d="M18.6784 94.5568C16.2407 89.268 39.0719 73.5212 69.6948 59.3851C100.307 45.2489 127.11 38.0774 129.548 43.3662" stroke="black" stroke-width="0.35" stroke-linecap="round" stroke-linejoin="round"/>
<path d="M35.1434 79.8873C36.0569 79.8873 36.7975 79.1468 36.7975 78.2332C36.7975 77.3197 36.0569 76.5791 35.1434 76.5791C34.2298 76.5791 33.4893 77.3197 33.4893 78.2332C33.4893 79.1468 34.2298 79.8873 35.1434 79.8873Z" fill="#F7B100"/>
<path d="M45.2376 14.8756C46.6408 14.8756 47.7784 13.738 47.7784 12.3348C47.7784 10.9315 46.6408 9.79395 45.2376 9.79395C43.8343 9.79395 42.6968 10.9315 42.6968 12.3348C42.6968 13.738 43.8343 14.8756 45.2376 14.8756Z" fill="white" stroke="#121212" stroke-width="0.35" stroke-miterlimit="10" stroke-linecap="round" stroke-linejoin="round"/>
<path d="M21.9467 24.1922C22.6483 24.1922 23.2171 23.6234 23.2171 22.9218C23.2171 22.2201 22.6483 21.6514 21.9467 21.6514C21.2451 21.6514 20.6763 22.2201 20.6763 22.9218C20.6763 23.6234 21.2451 24.1922 21.9467 24.1922Z" fill="white" stroke="#121212" stroke-width="0.35" stroke-miterlimit="10" stroke-linecap="round" stroke-linejoin="round"/>
<path d="M29.1798 31.8143L24.9116 36.0825L29.1798 40.3507L33.448 36.0825L29.1798 31.8143Z" fill="white" stroke="#121212" stroke-width="0.35" stroke-miterlimit="9.9998" stroke-linecap="round" stroke-linejoin="round"/>
<path d="M64.6928 97.0185L64.7068 97.0233L64.7214 97.0258C67.4063 97.4732 70.4575 97.4457 73.2172 97.4208C73.8324 97.4152 74.4332 97.4098 75.0121 97.4098C92.0053 97.4098 105.734 81.1652 105.734 61.1896C105.734 41.214 92.0053 24.9694 75.0121 24.9694C74.5859 24.9694 74.1206 24.9671 73.6281 24.9648C72.3578 24.9586 70.9067 24.9517 69.4789 24.98C67.4995 25.0193 65.5488 25.1267 64.1717 25.4021L64.1594 25.4046L64.1476 25.4088C51.4654 29.9022 44.2903 44.8563 44.2903 61.1896C44.2903 77.5997 51.9257 92.5901 64.6928 97.0185Z" fill="#D8E2E5" stroke="black" stroke-width="0.35"/>
<mask id="mask0_43_34516" style="mask-type:alpha" maskUnits="userSpaceOnUse" x="44" y="25" width="62" height="73">
<ellipse cx="75.0121" cy="61.1897" rx="30.5468" ry="36.0452" fill="#D8E2E5"/>
</mask>
<g mask="url(#mask0_43_34516)">
<rect x="89.6279" y="37.0776" width="15.9192" height="4.97476" transform="rotate(-13.2032 89.6279 37.0776)" fill="white"/>
<rect x="90.6973" y="43.4756" width="15.9192" height="2.06161" transform="rotate(-13.2032 90.6973 43.4756)" fill="white"/>
</g>
<ellipse cx="68.6352" cy="61.1897" rx="30.5468" ry="36.0452" fill="white" stroke="black" stroke-width="0.35"/>
<path d="M68.6356 87.5177C80.7394 87.5177 90.4985 75.6981 90.4985 61.1897C90.4985 46.6812 80.7394 34.8616 68.6356 34.8616C56.5319 34.8616 46.7728 46.6812 46.7728 61.1897C46.7728 75.6981 56.5319 87.5177 68.6356 87.5177Z" fill="url(#paint0_linear_43_34516)" stroke="black" stroke-width="0.35"/>
<g opacity="0.8">
<mask id="mask1_43_34516" style="mask-type:alpha" maskUnits="userSpaceOnUse" x="47" y="35" width="44" height="53">
<ellipse cx="68.6879" cy="61.153" rx="21.6879" ry="26.153" fill="url(#paint1_linear_43_34516)"/>
</mask>
<g mask="url(#mask1_43_34516)">
<line y1="-0.175" x2="55.0797" y2="-0.175" transform="matrix(0.997859 0.0654031 -0.0165799 0.999863 40.667 32.6499)" stroke="white" stroke-width="0.35"/>
<line y1="-0.175" x2="55.0797" y2="-0.175" transform="matrix(0.997859 0.0654031 -0.0165799 0.999863 40.667 47.959)" stroke="white" stroke-width="0.35"/>
<line y1="-0.175" x2="55.0797" y2="-0.175" transform="matrix(0.997859 0.0654031 -0.0165799 0.999863 40.667 63.2681)" stroke="white" stroke-width="0.35"/>
<line y1="-0.175" x2="55.0797" y2="-0.175" transform="matrix(0.997859 0.0654031 -0.0165799 0.999863 40.667 78.5771)" stroke="white" stroke-width="0.35"/>
<line y1="-0.175" x2="88.0516" y2="-0.175" transform="matrix(0.00354803 0.999994 -0.975806 -0.21864 84.9824 18.5581)" stroke="white" stroke-width="0.35"/>
<line y1="-0.175" x2="88.0516" y2="-0.175" transform="matrix(0.00354803 0.999994 -0.975806 -0.21864 69.8428 20.8296)" stroke="white" stroke-width="0.35"/>
<line y1="-0.175" x2="88.0516" y2="-0.175" transform="matrix(0.00354803 0.999994 -0.975806 -0.21864 54.7031 23.1016)" stroke="white" stroke-width="0.35"/>
</g>
</g>
<path d="M67.7161 48.1652C69.0777 48.0658 70.1849 49.2827 70.1872 50.8821L70.2176 63.6817C70.222 65.2828 69.1204 66.6589 67.7588 66.7582C66.3972 66.8576 65.29 65.6407 65.2858 64.0416L65.2552 51.24C65.2529 49.6406 66.3523 48.2629 67.7161 48.1652Z" fill="black" stroke="black" stroke-width="0.307312" stroke-miterlimit="10"/>
<path d="M70.654 72.7496C71.0182 70.8529 70.0219 69.0581 68.4286 68.7409C66.8353 68.4237 65.2484 69.7041 64.8842 71.6008C64.5199 73.4976 65.5162 75.2923 67.1095 75.6095C68.7028 75.9268 70.2897 74.6463 70.654 72.7496Z" fill="black" stroke="black" stroke-width="0.307312" stroke-miterlimit="10"/>
<path d="M129.548 43.355C131.986 48.6438 109.155 64.3906 78.5317 78.5267C47.9196 92.6629 21.1272 99.8453 18.6787 94.5565" stroke="black" stroke-width="0.35" stroke-linecap="round" stroke-linejoin="round"/>
<path d="M118.383 58.5909C119.807 58.5909 120.962 57.4361 120.962 56.0117C120.962 54.5873 119.807 53.4326 118.383 53.4326C116.958 53.4326 115.804 54.5873 115.804 56.0117C115.804 57.4361 116.958 58.5909 118.383 58.5909Z" fill="#F7B100"/>
<defs>
<linearGradient id="paint0_linear_43_34516" x1="68.6356" y1="35.0366" x2="68.6356" y2="87.3427" gradientUnits="userSpaceOnUse">
<stop stop-color="#F7B100"/>
<stop offset="1" stop-color="#F7B100" stop-opacity="0.6"/>
</linearGradient>
<linearGradient id="paint1_linear_43_34516" x1="68.6879" y1="35" x2="68.6879" y2="87.3061" gradientUnits="userSpaceOnUse">
<stop stop-color="white"/>
<stop offset="1" stop-color="white" stop-opacity="0"/>
</linearGradient>
</defs>
</svg>
