<svg width="18" height="19" viewBox="0 0 18 19" fill="none" xmlns="http://www.w3.org/2000/svg">
<path d="M0.75 3.5C0.75 2.25736 1.75736 1.25 3 1.25H5.25C5.66421 1.25 6 1.58579 6 2C6 2.41421 5.66421 2.75 5.25 2.75H3C2.58579 2.75 2.25 3.08579 2.25 3.5V5.75C2.25 6.16421 1.91421 6.5 1.5 6.5C1.08579 6.5 0.75 6.16421 0.75 5.75V3.5Z" fill="#1D1D1D"/>
<path d="M17.25 13.25V15.5C17.25 16.7426 16.2426 17.75 15 17.75H12.75C12.3358 17.75 12 17.4142 12 17C12 16.5858 12.3358 16.25 12.75 16.25H15C15.4142 16.25 15.75 15.9142 15.75 15.5V13.25C15.75 12.8358 16.0858 12.5 16.5 12.5C16.9142 12.5 17.25 12.8358 17.25 13.25Z" fill="#1D1D1D"/>
<path d="M6 5.75C6 5.33579 5.66421 5 5.25 5C4.83579 5 4.5 5.33579 4.5 5.75V6.5C4.5 6.91421 4.83579 7.25 5.25 7.25C5.66421 7.25 6 6.91421 6 6.5V5.75Z" fill="#1D1D1D"/>
<path d="M9.75 5.75C9.75 5.33579 9.41421 5 9 5C8.58579 5 8.25 5.33579 8.25 5.75V9.125C8.25 9.25608 8.17691 9.44993 8.00092 9.62592C7.82493 9.80191 7.63108 9.875 7.5 9.875H7.125C6.71079 9.875 6.375 10.2108 6.375 10.625C6.375 11.0392 6.71079 11.375 7.125 11.375H7.5C8.11892 11.375 8.67507 11.0731 9.06158 10.6866C9.44809 10.3001 9.75 9.74392 9.75 9.125V5.75Z" fill="#1D1D1D"/>
<path d="M6.53426 12.719C6.24731 12.4235 5.77523 12.4147 5.47741 12.7001C5.17835 12.9867 5.16825 13.4615 5.45485 13.7605L5.45578 13.7615L5.45681 13.7625L5.45918 13.765L5.4652 13.7712L5.48229 13.7882C5.49592 13.8017 5.51402 13.8192 5.53654 13.8401C5.58154 13.8819 5.64438 13.9377 5.72449 14.0026C5.8844 14.1323 6.11523 14.3002 6.41249 14.4669C7.00735 14.8004 7.87775 15.1339 8.97594 15.1339C10.0732 15.1339 10.953 14.801 11.556 14.4703C11.8577 14.3048 12.0932 14.1382 12.2567 14.0099C12.3385 13.9456 12.4028 13.8904 12.4488 13.8492C12.4718 13.8286 12.4903 13.8114 12.5041 13.7983L12.5215 13.7816L12.5275 13.7757L12.5299 13.7733L12.5309 13.7723L12.5318 13.7714C12.8244 13.4782 12.824 13.0034 12.5308 12.7107C12.2387 12.4192 11.7663 12.4186 11.4734 12.7085L11.4728 12.7091L11.4717 12.7102C11.4679 12.7138 11.4596 12.7215 11.4478 12.7321C11.4241 12.7534 11.3846 12.7875 11.3301 12.8302C11.2208 12.9161 11.0536 13.0351 10.8346 13.1551C10.3963 13.3956 9.76362 13.6339 8.97594 13.6339C8.18923 13.6339 7.56984 13.3961 7.14612 13.1585C6.93409 13.0397 6.77344 12.922 6.66918 12.8375C6.61722 12.7954 6.57981 12.7619 6.55758 12.7412C6.54648 12.7309 6.53923 12.7239 6.5359 12.7206L6.53426 12.719Z" fill="#1D1D1D"/>
<path d="M13.5 5.75C13.5 5.33579 13.1642 5 12.75 5C12.3358 5 12 5.33579 12 5.75V6.5C12 6.91421 12.3358 7.25 12.75 7.25C13.1642 7.25 13.5 6.91421 13.5 6.5V5.75Z" fill="#1D1D1D"/>
<path d="M3 17.75C1.75736 17.75 0.75 16.7426 0.75 15.5V13.25C0.75 12.8358 1.08579 12.5 1.5 12.5C1.91421 12.5 2.25 12.8358 2.25 13.25V15.5C2.25 15.9142 2.58579 16.25 3 16.25H5.25C5.66421 16.25 6 16.5858 6 17C6 17.4142 5.66421 17.75 5.25 17.75H3Z" fill="#1D1D1D"/>
<path d="M17.25 3.5V5.75C17.25 6.16421 16.9142 6.5 16.5 6.5C16.0858 6.5 15.75 6.16421 15.75 5.75V3.5C15.75 3.08579 15.4142 2.75 15 2.75H12.75C12.3358 2.75 12 2.41421 12 2C12 1.58579 12.3358 1.25 12.75 1.25H15C16.2426 1.25 17.25 2.25736 17.25 3.5Z" fill="#1D1D1D"/>
</svg>
