<svg width="160" height="160" viewBox="0 0 160 160" fill="none" xmlns="http://www.w3.org/2000/svg">
<path d="M154.965 114.355L86.0698 154.39C82.6611 156.373 77.1045 156.373 73.6698 154.39L4.33063 114.364C2.60019 113.364 1.73932 112.051 1.73932 110.747V113.042C1.73063 114.347 2.5915 115.66 4.32193 116.66L73.6611 156.694C77.0958 158.677 82.6437 158.677 86.0611 156.694L154.957 116.66C156.652 115.677 157.505 114.381 157.505 113.094V110.799C157.505 112.094 156.661 113.381 154.965 114.364V114.355Z" fill="#1D1D1D" stroke="#1D1D1D" stroke-width="0.26087" stroke-miterlimit="10"/>
<path d="M154.922 107.182C158.356 109.165 158.374 112.382 154.965 114.365L86.0694 154.399C82.6607 156.382 77.1042 156.382 73.6694 154.399L4.33028 114.365C0.895499 112.382 0.878108 109.165 4.2868 107.182L73.1825 67.1471C76.5912 65.1645 82.1477 65.1645 85.5825 67.1471L154.922 107.182Z" fill="#313638" stroke="#1D1D1D" stroke-width="0.26087" stroke-miterlimit="10"/>
<path d="M76.3134 137.783C75.7134 137.783 75.1221 137.626 74.583 137.322L27.0961 109.904C26.7743 109.722 26.583 109.391 26.583 109.026C26.583 108.661 26.7743 108.33 27.0961 108.148L76.3134 79.7305L127.061 109.026L78.0439 137.322C77.5134 137.626 76.9134 137.783 76.3134 137.783ZM74.7743 137C75.7221 137.548 76.9047 137.548 77.8613 137L126.313 109.026L76.3134 80.1566L27.2874 108.461C27.0874 108.574 26.9656 108.783 26.9656 109.017C26.9656 109.252 27.0874 109.461 27.2874 109.574L74.7743 136.991V137Z" fill="#7F8B91"/>
<path d="M75.8959 112.078L112.696 132.974L146.713 114.104C148.922 112.921 148.896 109.739 146.67 108.591L116.548 91.5562C115.635 91.0866 114.539 91.0953 113.635 91.591L75.8872 112.087L75.8959 112.078Z" fill="#212526"/>
<path d="M113.896 124.165L119.114 121.13L69.7657 92.6431L64.5483 95.6778L113.896 124.165Z" fill="#575D60" stroke="#1D1D1D" stroke-width="0.26087" stroke-linejoin="round"/>
<path d="M119.348 37.5653L114.131 40.6001L113.896 119.287L113.878 130.383C113.878 131.652 113.426 132.548 112.696 132.974C114.435 131.965 116.174 130.948 117.913 129.939C118.644 129.513 119.087 128.618 119.096 127.348L119.113 117.131L119.348 37.5566V37.5653Z" fill="#303536" stroke="#1D1D1D" stroke-width="0.26087" stroke-miterlimit="10"/>
<path d="M114.131 40.5906L119.349 37.5645L70.0094 9.06885L64.792 12.1036L114.131 40.5906Z" fill="#575D60" stroke="#1D1D1D" stroke-width="0.26087" stroke-linejoin="round"/>
<path d="M64.7917 12.104L64.5569 91.6692L64.5396 101.887C64.5396 104.452 66.3396 107.582 68.5743 108.869L109.818 132.687C112.053 133.974 113.87 132.947 113.879 130.374L113.896 120.156L114.131 40.5823L64.7917 12.104Z" fill="#575D60" stroke="#1D1D1D" stroke-width="0.26087" stroke-linejoin="round"/>
<path d="M83.548 13.1299C83.548 12.8169 83.661 12.5995 83.8349 12.4951L78.6175 15.5299C78.4436 15.6342 78.3306 15.8516 78.3306 16.1647C78.4436 16.1038 78.5914 16.0169 78.7045 15.9473C78.7653 15.9125 78.8436 15.869 78.9045 15.8342C79.3132 15.5908 79.7219 15.356 80.1306 15.1212C80.7132 14.7821 81.2958 14.4429 81.8784 14.1038C82.4349 13.7821 82.9914 13.4603 83.548 13.1299C81.8088 14.1386 80.0697 15.156 78.3306 16.1647C78.3306 16.7995 78.7654 17.556 79.3132 17.869L84.5306 14.8342C83.9914 14.5212 83.548 13.756 83.548 13.1299Z" fill="#575D60"/>
<mask id="mask0_4346_28061" style="mask-type:luminance" maskUnits="userSpaceOnUse" x="78" y="12" width="7" height="6">
<path d="M83.548 13.1299C83.548 12.8169 83.661 12.5995 83.8349 12.4951L78.6175 15.5299C78.4436 15.6342 78.3306 15.8516 78.3306 16.1647C78.4436 16.1038 78.5914 16.0169 78.7045 15.9473C78.7653 15.9125 78.8436 15.869 78.9045 15.8342C79.3132 15.5908 79.7219 15.356 80.1306 15.1212C80.7132 14.7821 81.2958 14.4429 81.8784 14.1038C82.4349 13.7821 82.9914 13.4603 83.548 13.1299C81.8088 14.1386 80.0697 15.156 78.3306 16.1647C78.3306 16.7995 78.7654 17.556 79.3132 17.869L84.5306 14.8342C83.9914 14.5212 83.548 13.756 83.548 13.1299Z" fill="white"/>
</mask>
<g mask="url(#mask0_4346_28061)">
<path d="M79.3133 17.8695L84.5307 14.8347C84.4177 14.7651 84.3046 14.6782 84.2003 14.5825L78.9829 17.6173C79.0873 17.7216 79.1916 17.8086 79.3133 17.8695Z" fill="#575D60" stroke="#1D1D1D" stroke-width="0.26087" stroke-linejoin="round"/>
<path d="M78.9828 17.6083L84.2001 14.5735C84.2001 14.5735 84.1306 14.4952 84.0958 14.4604L78.8784 17.4952C78.8784 17.4952 78.948 17.5735 78.9828 17.6083Z" fill="#575D60" stroke="#1D1D1D" stroke-width="0.26087" stroke-linejoin="round"/>
<path d="M78.8786 17.4957L84.0959 14.4609C84.0959 14.4609 84.0438 14.4 84.0177 14.3652L78.8003 17.4C78.8003 17.4 78.8525 17.4696 78.8786 17.4957Z" fill="#575D60" stroke="#1D1D1D" stroke-width="0.26087" stroke-linejoin="round"/>
<path d="M78.7912 17.3996L84.0086 14.3648C84.0086 14.3648 83.9652 14.3039 83.9391 14.2778L78.7217 17.3126C78.7217 17.3126 78.7652 17.3735 78.7912 17.3996Z" fill="#575D60" stroke="#1D1D1D" stroke-width="0.26087" stroke-linejoin="round"/>
<path d="M78.7309 17.3127L83.9483 14.2779C83.9483 14.2779 83.9135 14.217 83.8961 14.1909L78.6787 17.2257C78.6787 17.2257 78.7135 17.2779 78.7396 17.3127H78.7309Z" fill="#575D60" stroke="#1D1D1D" stroke-width="0.26087" stroke-linejoin="round"/>
<path d="M78.6694 17.2258L83.8868 14.1911C83.8868 14.1911 83.852 14.1389 83.8346 14.1128L78.6172 17.1476C78.6172 17.1476 78.652 17.1998 78.6694 17.2258Z" fill="#575D60" stroke="#1D1D1D" stroke-width="0.26087" stroke-linejoin="round"/>
<path d="M78.6177 17.1472L83.8351 14.1124C83.8351 14.1124 83.809 14.0516 83.7916 14.0342L78.5742 17.069C78.5742 17.069 78.609 17.1211 78.6177 17.1472Z" fill="#575D60" stroke="#1D1D1D" stroke-width="0.26087" stroke-linejoin="round"/>
<path d="M78.5742 17.0603L83.7916 14.0255C83.7916 14.0255 83.7655 13.9647 83.7482 13.9473L78.5308 16.9734C78.5308 16.9734 78.5568 17.0342 78.5742 17.0603Z" fill="#575D60" stroke="#1D1D1D" stroke-width="0.26087" stroke-linejoin="round"/>
<path d="M78.5396 16.9822L83.757 13.9561C83.757 13.9561 83.7309 13.8952 83.7135 13.8691L78.4961 16.9039C78.4961 16.9039 78.5222 16.9648 78.5396 16.9909V16.9822Z" fill="#575D60" stroke="#1D1D1D" stroke-width="0.26087" stroke-linejoin="round"/>
<path d="M78.4962 16.8947L83.7136 13.8599C83.7136 13.8599 83.6875 13.799 83.6788 13.7729L78.4614 16.8077C78.4614 16.8077 78.4875 16.8686 78.4962 16.8947Z" fill="#575D60" stroke="#1D1D1D" stroke-width="0.26087" stroke-linejoin="round"/>
<path d="M78.4611 16.8087L83.6784 13.7739C83.6784 13.7739 83.6524 13.713 83.6437 13.6782L78.4263 16.713C78.4263 16.713 78.4524 16.7739 78.4611 16.8087Z" fill="#575D60" stroke="#1D1D1D" stroke-width="0.26087" stroke-linejoin="round"/>
<path d="M78.4264 16.7125L83.6438 13.6777C83.6438 13.6777 83.6264 13.6168 83.609 13.582L78.3916 16.6168C78.3916 16.6168 78.409 16.6864 78.4177 16.7212L78.4264 16.7125Z" fill="#575D60" stroke="#1D1D1D" stroke-width="0.26087" stroke-linejoin="round"/>
<path d="M78.3918 16.6171L83.6092 13.5823C83.6092 13.5823 83.5918 13.504 83.5831 13.4692L78.3657 16.504C78.3657 16.504 78.3831 16.5823 78.3918 16.6171Z" fill="#575D60" stroke="#1D1D1D" stroke-width="0.26087" stroke-linejoin="round"/>
<path d="M78.3654 16.504L83.5828 13.4692C83.5741 13.4257 83.5654 13.3823 83.5567 13.3301L78.3394 16.3649C78.3394 16.4083 78.3567 16.4605 78.3654 16.504Z" fill="#575D60" stroke="#1D1D1D" stroke-width="0.26087" stroke-linejoin="round"/>
<path d="M78.3481 16.3647L83.5654 13.3299C83.5567 13.2603 83.5567 13.1995 83.5567 13.1299C83.5567 12.8169 83.6698 12.5995 83.8437 12.4951L78.6263 15.5299C78.4524 15.6342 78.3394 15.8516 78.3394 16.1647C78.3394 16.2256 78.3394 16.2951 78.3481 16.356V16.3647Z" fill="#575D60" stroke="#1D1D1D" stroke-width="0.26087" stroke-linejoin="round"/>
</g>
<path d="M83.548 13.1299C83.548 12.8169 83.661 12.5995 83.8349 12.4951L78.6175 15.5299C78.4436 15.6342 78.3306 15.8516 78.3306 16.1647M83.548 13.1299C82.9914 13.4603 82.4349 13.7821 81.8784 14.1038C81.2958 14.4429 80.7132 14.7821 80.1306 15.1212C79.7219 15.356 79.3132 15.5908 78.9045 15.8342C78.8436 15.869 78.7653 15.9125 78.7045 15.9473C78.5914 16.0169 78.4436 16.1038 78.3306 16.1647M83.548 13.1299C81.8088 14.1386 80.0697 15.156 78.3306 16.1647M83.548 13.1299C83.548 13.756 83.9914 14.5212 84.5306 14.8342L79.3132 17.869C78.7654 17.556 78.3306 16.7995 78.3306 16.1647" stroke="#1D1D1D" stroke-width="0.26087" stroke-linejoin="round"/>
<path d="M83.8351 12.5037C83.7568 12.5471 83.6525 12.608 83.5742 12.6515C81.922 13.608 80.2699 14.5732 78.6177 15.5298C78.8003 15.4254 79.0438 15.4428 79.322 15.5993L84.5394 12.5645C84.2612 12.408 84.0177 12.3906 83.8351 12.495V12.5037Z" fill="#575D60"/>
<mask id="mask1_4346_28061" style="mask-type:luminance" maskUnits="userSpaceOnUse" x="78" y="12" width="7" height="4">
<path d="M83.8351 12.5037C83.7568 12.5471 83.6525 12.608 83.5742 12.6515C81.922 13.608 80.2699 14.5732 78.6177 15.5298C78.8003 15.4254 79.0438 15.4428 79.322 15.5993L84.5394 12.5645C84.2612 12.408 84.0177 12.3906 83.8351 12.495V12.5037Z" fill="white"/>
</mask>
<g mask="url(#mask1_4346_28061)">
<path d="M79.3134 15.5995L84.5308 12.5647C84.4874 12.5386 84.4352 12.5125 84.3917 12.4951L79.1743 15.5299C79.2178 15.5473 79.27 15.5734 79.3134 15.5995Z" fill="#575D60" stroke="#1D1D1D" stroke-width="0.26087" stroke-linejoin="round"/>
<path d="M79.1741 15.53L84.3915 12.4952C84.3915 12.4952 84.3132 12.4604 84.2784 12.4604L79.061 15.4952C79.061 15.4952 79.1393 15.5213 79.1741 15.53Z" fill="#575D60" stroke="#1D1D1D" stroke-width="0.26087" stroke-linejoin="round"/>
<path d="M79.0611 15.4946L84.2785 12.4598C84.2785 12.4598 84.2176 12.4424 84.1915 12.4424L78.9741 15.4685C78.9741 15.4685 79.035 15.4772 79.0611 15.4859V15.4946Z" fill="#575D60" stroke="#1D1D1D" stroke-width="0.26087" stroke-linejoin="round"/>
<path d="M78.9743 15.4772L84.1917 12.4511C84.1917 12.4511 84.1396 12.4511 84.1222 12.4424L78.9048 15.4772C78.9048 15.4772 78.957 15.4772 78.9743 15.4772Z" fill="#575D60" stroke="#1D1D1D" stroke-width="0.26087" stroke-linejoin="round"/>
<path d="M78.9046 15.4684L84.122 12.4336C84.122 12.4336 84.0785 12.4336 84.0611 12.4336L78.8438 15.4684C78.8438 15.4684 78.8872 15.4684 78.9046 15.4684Z" fill="#575D60" stroke="#1D1D1D" stroke-width="0.26087" stroke-linejoin="round"/>
<path d="M78.8353 15.4684L84.0527 12.4336C84.0527 12.4336 84.0092 12.4336 83.9918 12.4336L78.7744 15.4597C78.7744 15.4597 78.8179 15.4597 78.8353 15.4597V15.4684Z" fill="#575D60" stroke="#1D1D1D" stroke-width="0.26087" stroke-linejoin="round"/>
<path d="M78.7743 15.4768L83.9917 12.4507C83.9917 12.4507 83.957 12.4507 83.9396 12.4594L78.7222 15.4942C78.7222 15.4942 78.7569 15.4942 78.7743 15.4855V15.4768Z" fill="#575D60" stroke="#1D1D1D" stroke-width="0.26087" stroke-linejoin="round"/>
<path d="M78.7221 15.4855L83.9395 12.4507C83.9395 12.4507 83.9047 12.4594 83.8873 12.4681L78.6699 15.5029C78.6699 15.5029 78.7047 15.4942 78.7221 15.4855Z" fill="#575D60" stroke="#1D1D1D" stroke-width="0.26087" stroke-linejoin="round"/>
<path d="M78.6698 15.5035L83.8872 12.4688C83.8872 12.4688 83.8525 12.4774 83.8351 12.4948L78.6177 15.5296C78.6177 15.5296 78.6525 15.5122 78.6698 15.5035Z" fill="#575D60" stroke="#1D1D1D" stroke-width="0.26087" stroke-linejoin="round"/>
<path d="M78.6177 15.5299L83.8438 12.4951L83.8351 12.5038L78.6177 15.5299Z" fill="#575D60" stroke="#1D1D1D" stroke-width="0.26087" stroke-linejoin="round"/>
</g>
<path d="M83.8351 12.5037C83.7568 12.5471 83.6525 12.608 83.5742 12.6515C81.922 13.608 80.2699 14.5732 78.6177 15.5298C78.8003 15.4254 79.0438 15.4428 79.322 15.5993L84.5394 12.5645C84.2612 12.408 84.0177 12.3906 83.8351 12.495V12.5037Z" stroke="#1D1D1D" stroke-width="0.26087" stroke-linejoin="round"/>
<path d="M100.584 30.147L105.801 27.1122L84.5314 14.834L79.314 17.8688L100.584 30.147Z" fill="#575D60" stroke="#1D1D1D" stroke-width="0.26087" stroke-linejoin="round"/>
<path d="M106.496 27.1819C106.313 27.2862 106.07 27.2688 105.792 27.1123L100.574 30.1384C100.852 30.3036 101.096 30.3123 101.279 30.208C102.844 29.2949 104.931 28.0862 106.496 27.1732V27.1819Z" fill="#575D60"/>
<mask id="mask2_4346_28061" style="mask-type:luminance" maskUnits="userSpaceOnUse" x="100" y="27" width="7" height="4">
<path d="M106.496 27.1819C106.313 27.2862 106.07 27.2688 105.792 27.1123L100.574 30.1384C100.852 30.3036 101.096 30.3123 101.279 30.208C102.844 29.2949 104.931 28.0862 106.496 27.1732V27.1819Z" fill="white"/>
</mask>
<g mask="url(#mask2_4346_28061)">
<path d="M101.278 30.2164L106.496 27.1816V27.1903L101.278 30.2164Z" fill="#575D60" stroke="#1D1D1D" stroke-width="0.26087" stroke-linejoin="round"/>
<path d="M101.279 30.2164L106.496 27.1816C106.496 27.1816 106.461 27.199 106.444 27.2077L101.227 30.2425C101.227 30.2425 101.261 30.2251 101.279 30.2164Z" fill="#575D60" stroke="#1D1D1D" stroke-width="0.26087" stroke-linejoin="round"/>
<path d="M101.226 30.2428L106.444 27.208C106.444 27.208 106.409 27.2167 106.392 27.2254L101.174 30.2602C101.174 30.2602 101.209 30.2515 101.226 30.2428Z" fill="#575D60" stroke="#1D1D1D" stroke-width="0.26087" stroke-linejoin="round"/>
<path d="M101.174 30.2599L106.392 27.2251C106.392 27.2251 106.357 27.2251 106.339 27.2338L101.122 30.2686C101.122 30.2686 101.157 30.2686 101.174 30.2599Z" fill="#575D60" stroke="#1D1D1D" stroke-width="0.26087" stroke-linejoin="round"/>
<path d="M101.122 30.2779L106.339 27.2432C106.339 27.2432 106.296 27.2432 106.278 27.2432L101.061 30.2779C101.061 30.2779 101.105 30.2779 101.122 30.2779Z" fill="#575D60" stroke="#1D1D1D" stroke-width="0.26087" stroke-linejoin="round"/>
<path d="M101.061 30.2862L106.279 27.2515C106.279 27.2515 106.235 27.2515 106.209 27.2515L100.992 30.2862H101.061Z" fill="#575D60" stroke="#1D1D1D" stroke-width="0.26087" stroke-linejoin="round"/>
<path d="M101 30.2862L106.218 27.2515C106.218 27.2515 106.165 27.2515 106.148 27.2515L100.931 30.2862C100.931 30.2862 100.983 30.2862 101 30.2862Z" fill="#575D60" stroke="#1D1D1D" stroke-width="0.26087" stroke-linejoin="round"/>
<path d="M100.922 30.2773L106.14 27.2425C106.14 27.2425 106.079 27.2338 106.053 27.2251L100.835 30.2512C100.835 30.2512 100.896 30.2686 100.922 30.2686V30.2773Z" fill="#575D60" stroke="#1D1D1D" stroke-width="0.26087" stroke-linejoin="round"/>
<path d="M100.835 30.2512L106.053 27.2251C106.053 27.2251 105.974 27.199 105.94 27.1816L100.722 30.2164C100.722 30.2164 100.8 30.2512 100.835 30.2512Z" fill="#575D60" stroke="#1D1D1D" stroke-width="0.26087" stroke-linejoin="round"/>
<path d="M100.722 30.2167L105.94 27.1819C105.896 27.1645 105.844 27.1384 105.8 27.1123L100.583 30.1384C100.626 30.1732 100.679 30.1906 100.722 30.208V30.2167Z" fill="#575D60" stroke="#1D1D1D" stroke-width="0.26087" stroke-linejoin="round"/>
</g>
<path d="M106.496 27.1819C106.313 27.2862 106.07 27.2688 105.792 27.1123L100.574 30.1384C100.852 30.3036 101.096 30.3123 101.279 30.208C102.844 29.2949 104.931 28.0862 106.496 27.1732V27.1819Z" stroke="#1D1D1D" stroke-width="0.26087" stroke-linejoin="round"/>
<path d="M100.583 27.8863L105.8 24.8515L84.5396 12.5732L79.3135 15.5993L100.583 27.8863Z" fill="#575D60" stroke="#1D1D1D" stroke-width="0.26087" stroke-linejoin="round"/>
<path d="M101.279 30.2172C103.018 29.2085 104.757 28.1911 106.497 27.1824C106.67 27.078 106.783 26.8607 106.783 26.5476C106.783 25.9215 106.349 25.165 105.801 24.8433L100.583 27.878C101.131 28.1911 101.575 28.9563 101.566 29.5737C101.566 29.8867 101.453 30.1041 101.279 30.2085V30.2172Z" fill="#575D60"/>
<mask id="mask3_4346_28061" style="mask-type:luminance" maskUnits="userSpaceOnUse" x="100" y="24" width="7" height="7">
<path d="M101.279 30.2172C103.018 29.2085 104.757 28.1911 106.497 27.1824C106.67 27.078 106.783 26.8607 106.783 26.5476C106.783 25.9215 106.349 25.165 105.801 24.8433L100.583 27.878C101.131 28.1911 101.575 28.9563 101.566 29.5737C101.566 29.8867 101.453 30.1041 101.279 30.2085V30.2172Z" fill="white"/>
</mask>
<g mask="url(#mask3_4346_28061)">
<path d="M101.279 30.2173L106.496 27.1825C106.67 27.0782 106.783 26.8608 106.783 26.5477C106.783 26.4869 106.783 26.4173 106.774 26.3564L101.557 29.3825C101.557 29.4521 101.566 29.513 101.566 29.5738C101.566 29.8869 101.453 30.1043 101.279 30.2086V30.2173Z" fill="#575D60" stroke="#1D1D1D" stroke-width="0.26087" stroke-linejoin="round"/>
<path d="M101.557 29.3908L106.775 26.3647C106.775 26.3212 106.757 26.2691 106.749 26.2256L101.531 29.2604C101.54 29.3038 101.549 29.3473 101.557 29.3908Z" fill="#575D60" stroke="#1D1D1D" stroke-width="0.26087" stroke-linejoin="round"/>
<path d="M101.531 29.2523L106.748 26.2175C106.748 26.2175 106.731 26.1393 106.722 26.1045L101.505 29.1393C101.505 29.1393 101.522 29.2175 101.531 29.2523Z" fill="#575D60" stroke="#1D1D1D" stroke-width="0.26087" stroke-linejoin="round"/>
<path d="M101.505 29.1391L106.722 26.1043C106.722 26.1043 106.705 26.0348 106.696 26L101.479 29.0348C101.479 29.0348 101.496 29.1043 101.514 29.1391H101.505Z" fill="#575D60" stroke="#1D1D1D" stroke-width="0.26087" stroke-linejoin="round"/>
<path d="M101.479 29.043L106.697 26.0082C106.697 26.0082 106.679 25.9474 106.662 25.9126L101.444 28.9474C101.444 28.9474 101.47 29.0082 101.479 29.0343V29.043Z" fill="#575D60" stroke="#1D1D1D" stroke-width="0.26087" stroke-linejoin="round"/>
<path d="M101.444 28.9474L106.661 25.9126C106.661 25.9126 106.635 25.8518 106.627 25.8257L101.409 28.8605C101.409 28.8605 101.435 28.9213 101.444 28.9474Z" fill="#575D60" stroke="#1D1D1D" stroke-width="0.26087" stroke-linejoin="round"/>
<path d="M101.409 28.86L106.627 25.8252C106.627 25.8252 106.601 25.7644 106.592 25.7383L101.375 28.7731C101.375 28.7731 101.401 28.8339 101.409 28.86Z" fill="#575D60" stroke="#1D1D1D" stroke-width="0.26087" stroke-linejoin="round"/>
<path d="M101.366 28.7732L106.583 25.7384C106.583 25.7384 106.548 25.6775 106.54 25.6602L101.322 28.6949C101.322 28.6949 101.348 28.7471 101.366 28.7732Z" fill="#575D60" stroke="#1D1D1D" stroke-width="0.26087" stroke-linejoin="round"/>
<path d="M101.322 28.6956L106.54 25.6608C106.54 25.6608 106.505 25.5999 106.496 25.5825L101.279 28.6173C101.279 28.6173 101.314 28.6782 101.322 28.6956Z" fill="#575D60" stroke="#1D1D1D" stroke-width="0.26087" stroke-linejoin="round"/>
<path d="M101.279 28.6086L106.496 25.5739C106.496 25.5739 106.461 25.513 106.444 25.4956L101.227 28.5304C101.227 28.5304 101.261 28.5826 101.279 28.6086Z" fill="#575D60" stroke="#1D1D1D" stroke-width="0.26087" stroke-linejoin="round"/>
<path d="M101.227 28.5299L106.444 25.4952C106.444 25.4952 106.409 25.4343 106.383 25.4082L101.166 28.443C101.166 28.443 101.201 28.5039 101.227 28.5299Z" fill="#575D60" stroke="#1D1D1D" stroke-width="0.26087" stroke-linejoin="round"/>
<path d="M101.175 28.4435L106.392 25.4087C106.392 25.4087 106.348 25.3479 106.322 25.3218L101.105 28.3566C101.105 28.3566 101.148 28.4174 101.166 28.4435H101.175Z" fill="#575D60" stroke="#1D1D1D" stroke-width="0.26087" stroke-linejoin="round"/>
<path d="M101.105 28.356L106.323 25.3212C106.323 25.3212 106.27 25.2604 106.244 25.2256L101.027 28.2604C101.027 28.2604 101.079 28.3212 101.105 28.356Z" fill="#575D60" stroke="#1D1D1D" stroke-width="0.26087" stroke-linejoin="round"/>
<path d="M101.027 28.2605L106.244 25.2257C106.244 25.2257 106.175 25.1475 106.14 25.104L100.922 28.1388C100.922 28.1388 100.992 28.217 101.027 28.2518V28.2605Z" fill="#575D60" stroke="#1D1D1D" stroke-width="0.26087" stroke-linejoin="round"/>
<path d="M100.922 28.139L106.14 25.1042C106.035 24.9999 105.922 24.9129 105.809 24.8521L100.592 27.8868C100.705 27.9564 100.818 28.0434 100.922 28.1477V28.139Z" fill="#575D60" stroke="#1D1D1D" stroke-width="0.26087" stroke-linejoin="round"/>
</g>
<path d="M101.279 30.2172C103.018 29.2085 104.757 28.1911 106.497 27.1824C106.67 27.078 106.783 26.8607 106.783 26.5476C106.783 25.9215 106.349 25.165 105.801 24.8433L100.583 27.878C101.131 28.1911 101.575 28.9563 101.566 29.5737C101.566 29.8867 101.453 30.1041 101.279 30.2085V30.2172Z" stroke="#1D1D1D" stroke-width="0.26087" stroke-linejoin="round"/>
<path d="M79.3132 15.5993C78.7654 15.2862 78.3306 15.5384 78.3306 16.1645C78.3306 16.7993 78.7654 17.5558 79.3132 17.8688L100.583 30.1471C101.131 30.4688 101.574 30.2166 101.574 29.5819C101.574 28.9558 101.139 28.1993 100.591 27.8862L79.3219 15.608L79.3132 15.5993Z" fill="#575D60" stroke="#1D1D1D" stroke-width="0.26087" stroke-linejoin="round"/>
<path d="M110.105 29.9909C112.34 31.2778 114.149 34.417 114.14 36.9822V40.5909L64.792 12.1039V8.49522C64.8094 5.93 66.6268 4.88652 68.8616 6.17348L110.105 29.9909Z" fill="#575D60" stroke="#1D1D1D" stroke-width="0.26087" stroke-linejoin="round"/>
<path d="M68.1916 5.86057C68.096 5.82579 68.0003 5.79101 67.9046 5.75622C67.8438 5.73883 67.7829 5.72144 67.7307 5.70405C67.6699 5.68666 67.6177 5.67796 67.5568 5.66927C67.4873 5.66057 67.4177 5.64318 67.3481 5.63449C67.3046 5.63449 67.2699 5.62579 67.2264 5.62579C67.1394 5.62579 67.0525 5.62579 66.9655 5.62579C66.9481 5.62579 66.9307 5.62579 66.9046 5.62579C66.8003 5.62579 66.7047 5.64318 66.609 5.66057C66.5829 5.66057 66.5568 5.66057 66.5307 5.67796C66.4525 5.69536 66.3829 5.71275 66.3133 5.73883C66.2873 5.73883 66.2699 5.75622 66.2438 5.76492C66.1568 5.7997 66.0612 5.84318 65.9829 5.89536C67.722 4.88666 69.4612 3.86927 71.2003 2.86057C71.2003 2.86057 71.2177 2.85188 71.2264 2.85188C71.296 2.81709 71.3568 2.78231 71.4351 2.75622C71.4438 2.75622 71.4612 2.74753 71.4699 2.73883C71.496 2.73014 71.5133 2.72144 71.5394 2.71275C71.5742 2.70405 71.609 2.68666 71.6438 2.67796C71.6786 2.66927 71.722 2.66057 71.7568 2.65188C71.7829 2.65188 71.809 2.64318 71.8351 2.63449C71.8438 2.63449 71.8612 2.63449 71.8699 2.63449C71.9481 2.61709 72.0351 2.6084 72.1133 2.6084H72.122C72.122 2.6084 72.1655 2.6084 72.1829 2.6084C72.2438 2.6084 72.3133 2.6084 72.3742 2.6084C72.3916 2.6084 72.4177 2.6084 72.4438 2.6084C72.4786 2.6084 72.522 2.6084 72.5655 2.61709C72.6003 2.61709 72.6438 2.61709 72.6786 2.61709C72.7133 2.61709 72.7481 2.63449 72.7829 2.64318C72.8351 2.65188 72.8873 2.66057 72.9481 2.67796C72.9829 2.67796 73.009 2.67796 73.0438 2.69535C73.0699 2.69535 73.1047 2.71275 73.1307 2.73014C73.2264 2.75622 73.322 2.79101 73.4177 2.82579C73.4525 2.83449 73.4786 2.84318 73.5133 2.86057C73.5307 2.86057 73.5481 2.87796 73.5742 2.88666C73.7394 2.96492 73.9046 3.04318 74.0786 3.13883L115.322 26.9475C115.539 27.0693 115.748 27.2171 115.957 27.3736C115.992 27.3997 116.026 27.4258 116.061 27.4519C116.261 27.6084 116.444 27.7736 116.635 27.9562C116.652 27.9736 116.67 27.9823 116.679 27.9997C116.705 28.0258 116.731 28.0606 116.766 28.0867C116.861 28.1823 116.948 28.278 117.044 28.3736C117.07 28.4084 117.105 28.4345 117.131 28.4606C117.157 28.4867 117.174 28.5127 117.2 28.5388C117.252 28.5997 117.305 28.6693 117.366 28.7388C117.4 28.7823 117.435 28.8171 117.47 28.8606C117.496 28.8954 117.522 28.9301 117.548 28.9649C117.583 29.0171 117.618 29.0606 117.661 29.1127C117.687 29.1475 117.713 29.1823 117.739 29.2171C117.783 29.278 117.826 29.3475 117.87 29.4084C117.896 29.4432 117.922 29.4867 117.948 29.5214C117.957 29.5388 117.974 29.5562 117.983 29.5649C118.052 29.678 118.122 29.791 118.192 29.9041C118.192 29.9127 118.2 29.9214 118.209 29.9301C118.218 29.9475 118.226 29.9649 118.244 29.991C118.296 30.078 118.339 30.1649 118.392 30.2519C118.409 30.2867 118.426 30.3301 118.452 30.3649C118.47 30.3997 118.487 30.4432 118.513 30.4867C118.531 30.5214 118.548 30.5562 118.566 30.591C118.609 30.6867 118.652 30.7736 118.696 30.8693C118.696 30.8867 118.713 30.9041 118.722 30.9301C118.722 30.9301 118.722 30.9301 118.722 30.9388C118.774 31.0606 118.826 31.1823 118.87 31.3041C118.879 31.3301 118.887 31.3475 118.896 31.3736C118.913 31.4171 118.922 31.4606 118.939 31.5041C118.957 31.5649 118.983 31.6258 119 31.6867C119.018 31.7301 119.026 31.7823 119.044 31.8258C119.061 31.8867 119.079 31.9388 119.096 31.991C119.105 32.0258 119.122 32.0606 119.131 32.0954C119.148 32.1562 119.166 32.2171 119.174 32.278C119.192 32.3475 119.209 32.4171 119.226 32.4867C119.226 32.5127 119.235 32.5388 119.244 32.5562C119.252 32.6084 119.261 32.6519 119.27 32.7041C119.287 32.8084 119.305 32.9214 119.322 33.0258C119.322 33.0606 119.331 33.0867 119.339 33.1127C119.339 33.1388 119.339 33.1649 119.339 33.191C119.366 33.4345 119.383 33.6693 119.383 33.8954V37.504L114.157 40.5388V36.9301C114.166 36.6954 114.157 36.4606 114.122 36.2258C114.122 36.1649 114.113 36.1127 114.096 36.0519C114.079 35.9475 114.061 35.8345 114.044 35.7301C114.026 35.6606 114.018 35.5823 114 35.5127C113.983 35.4432 113.966 35.3736 113.948 35.3041C113.922 35.2084 113.896 35.1127 113.87 35.0171C113.852 34.9562 113.835 34.9041 113.818 34.8432C113.783 34.7388 113.748 34.6345 113.713 34.5301C113.696 34.4867 113.679 34.4432 113.67 34.3997C113.609 34.2519 113.557 34.1041 113.487 33.9562C113.479 33.9301 113.47 33.9127 113.461 33.8867C113.409 33.7649 113.348 33.6432 113.287 33.5127C113.261 33.4693 113.244 33.4258 113.218 33.3823C113.157 33.2693 113.096 33.1475 113.035 33.0345C113.018 32.9997 113 32.9736 112.983 32.9475C112.905 32.8084 112.818 32.6693 112.731 32.5388C112.705 32.4954 112.679 32.4606 112.652 32.4171C112.583 32.3214 112.522 32.2258 112.452 32.1301C112.418 32.078 112.374 32.0258 112.339 31.9823C112.279 31.9041 112.218 31.8258 112.157 31.7475C112.105 31.6867 112.052 31.6171 112 31.5562C111.948 31.4954 111.896 31.4345 111.844 31.3823C111.757 31.278 111.67 31.1823 111.574 31.0954C111.531 31.0519 111.487 31.0084 111.444 30.9649C111.261 30.7823 111.07 30.6171 110.879 30.4693C110.844 30.4432 110.809 30.4171 110.774 30.391C110.566 30.2345 110.357 30.0867 110.148 29.9649L68.8525 6.17362C68.6786 6.07796 68.5133 5.99101 68.3481 5.92144C68.296 5.89536 68.2438 5.87796 68.1916 5.86057Z" fill="url(#paint0_linear_4346_28061)" stroke="#1D1D1D" stroke-width="0.26087" stroke-miterlimit="10"/>
<path d="M116.827 63.817C117.357 63.6952 117.792 63.1039 117.792 62.5126V55.1561C117.792 54.5648 117.357 54.1822 116.827 54.3126C116.296 54.4344 115.861 55.0257 115.861 55.617V62.9735C115.861 63.5648 116.296 63.9474 116.827 63.817Z" fill="#25D17F" stroke="#1D1D1D" stroke-width="0.26087" stroke-miterlimit="10"/>
<path d="M91.9919 23.6689C91.9919 24.0428 91.7223 24.1993 91.4006 24.008L83.1919 19.2689C82.8615 19.0775 82.6006 18.6167 82.6006 18.2428C82.6006 17.8689 82.8702 17.7123 83.1919 17.9036L91.4006 22.6428C91.731 22.8341 91.9919 23.2949 92.0006 23.6689H91.9919ZM94.5484 24.4602C94.218 24.2689 93.9571 24.4254 93.9571 24.7993C93.9571 25.1819 94.218 25.6341 94.5484 25.8254C94.8788 26.0167 95.1397 25.8602 95.1397 25.4862C95.1397 25.1036 94.8701 24.6515 94.5484 24.4602ZM96.7136 25.7123C96.3832 25.521 96.1223 25.6776 96.1223 26.0515C96.1223 26.4254 96.3832 26.8862 96.7136 27.0776C97.0441 27.2689 97.3049 27.1123 97.3049 26.7384C97.3049 26.3645 97.0441 25.9036 96.7136 25.7123Z" fill="#25D17F" stroke="#1D1D1D" stroke-width="0.26087" stroke-miterlimit="10"/>
<path d="M102.574 42.2081L68.8523 22.7385C68.0349 22.2689 67.2958 22.2255 66.7654 22.5385L65.8001 23.095C65.261 23.3994 64.9219 24.0602 64.9219 25.0081V80.3733C64.9219 82.2515 66.2436 84.5298 67.8697 85.4689L101.591 104.939C103.218 105.878 104.539 105.121 104.539 103.243C104.539 104.182 104.209 104.843 103.678 105.147L104.635 104.591C105.183 104.286 105.531 103.625 105.531 102.669V47.3037C105.531 45.4255 104.209 43.1472 102.583 42.2081H102.574Z" fill="#212526"/>
<path d="M96.1654 43.5211L62.4436 24.0515C61.6262 23.5819 60.8871 23.5384 60.3567 23.8515L59.3914 24.408C58.8523 24.7124 58.5132 25.3732 58.5132 26.3211V81.6863C58.5132 83.5645 59.8349 85.8428 61.461 86.7819L95.1828 106.251C96.8088 107.191 98.1306 106.434 98.1306 104.556C98.1306 105.495 97.8001 106.156 97.2697 106.46L98.2262 105.904C98.7741 105.599 99.1219 104.938 99.1219 103.982V48.6167C99.1219 46.7385 97.8001 44.4602 96.1741 43.5211H96.1654Z" fill="#7F8B91" stroke="#1D1D1D" stroke-width="0.26087" stroke-linejoin="round"/>
<path d="M98.1306 104.548C98.1306 106.426 96.8088 107.182 95.1828 106.243L61.461 86.7736C59.8349 85.8345 58.5132 83.5475 58.5132 81.678V26.3128C58.5132 24.4345 59.8349 23.678 61.461 24.6171L95.1828 44.0867C96.8088 45.0258 98.1306 47.3041 98.1306 49.1823V104.539V104.548Z" fill="#575D60"/>
<path d="M92.5568 93.1027C92.5568 94.981 91.2351 95.7375 89.609 94.7984L66.793 82.3956C65.167 81.4565 63.8452 79.1695 63.8452 77.2999V38.2166C63.8452 36.3383 65.167 35.5818 66.793 36.5209L89.609 48.9236C91.2351 49.8627 92.5568 52.141 92.5568 54.0192V93.094V93.1027Z" fill="#25D17F"/>
<path d="M98.1306 104.548C98.1306 106.426 96.8088 107.182 95.1828 106.243L61.461 86.7736C59.8349 85.8345 58.5132 83.5475 58.5132 81.678V26.3128C58.5132 24.4345 59.8349 23.678 61.461 24.6171L95.1828 44.0867C96.8088 45.0258 98.1306 47.3041 98.1306 49.1823V104.539V104.548Z" stroke="#1D1D1D" stroke-width="0.26087" stroke-linecap="round" stroke-linejoin="round"/>
<path d="M76.2349 64.577C74.3165 62.5626 72.9598 59.6163 72.9598 57.0675C72.9598 53.7239 75.3168 52.3672 78.2082 54.039C81.1134 55.7109 83.4566 59.7808 83.4566 63.1381C83.4566 65.6732 82.1 67.071 80.1815 66.8654C84.6625 70.4831 88.061 76.8963 88.2665 82.4325L68.1362 70.812C68.3418 65.5225 71.7539 63.0285 76.2212 64.5907L76.2349 64.577Z" fill="#1D1D1D"/>
<path d="M145.478 76.4867C145.522 76.478 145.565 76.4693 145.609 76.4606C145.661 76.4519 145.704 76.4345 145.757 76.4171C145.791 76.4084 145.826 76.3997 145.852 76.391C145.887 76.3823 145.913 76.3649 145.948 76.3562C145.991 76.3388 146.035 76.3215 146.078 76.3041C146.104 76.2954 146.13 76.2867 146.157 76.2693C146.209 76.2519 146.252 76.2258 146.304 76.1997C146.322 76.191 146.348 76.1823 146.365 76.1736C146.435 76.1389 146.496 76.1041 146.565 76.0693C146.565 76.0693 146.583 76.0606 146.591 76.0519C146.652 76.0171 146.704 75.9823 146.765 75.9475C146.783 75.9388 146.8 75.9215 146.817 75.9128C146.87 75.878 146.922 75.8432 146.974 75.8084C146.983 75.8084 146.991 75.791 147.009 75.791C147.07 75.7475 147.13 75.7041 147.191 75.6519C147.209 75.6345 147.226 75.6258 147.243 75.6084C147.287 75.5736 147.33 75.5389 147.365 75.5041C147.391 75.4867 147.409 75.4606 147.426 75.4432C147.461 75.4084 147.496 75.3823 147.522 75.3475C147.548 75.3215 147.574 75.2954 147.6 75.2693C147.626 75.2432 147.652 75.2171 147.67 75.191C147.713 75.1475 147.748 75.1041 147.791 75.0519C147.817 75.0258 147.844 74.991 147.861 74.9649C147.878 74.9389 147.896 74.9215 147.913 74.8954C147.939 74.8606 147.965 74.8171 147.991 74.7823C148.009 74.7562 148.026 74.7389 148.035 74.7128C148.061 74.6693 148.087 74.6258 148.113 74.5823C148.122 74.5649 148.139 74.5388 148.148 74.5215C148.183 74.4606 148.217 74.3997 148.243 74.3302C148.27 74.2693 148.296 74.2084 148.313 74.1475C148.313 74.1302 148.322 74.1128 148.33 74.1041C148.339 74.0693 148.348 74.0432 148.357 74.0084C148.365 73.9649 148.383 73.9128 148.391 73.8693C148.391 73.8432 148.4 73.8084 148.409 73.7823C148.409 73.7562 148.409 73.7302 148.409 73.7041C148.409 73.6693 148.409 73.6345 148.409 73.5997C148.409 73.5823 148.409 73.5649 148.409 73.5389C148.409 73.4954 148.409 73.4606 148.4 73.4171C148.4 73.4084 148.4 73.3997 148.4 73.391C148.4 73.3475 148.383 73.2954 148.365 73.2519C148.365 73.2432 148.365 73.2345 148.357 73.2171C148.348 73.1823 148.33 73.1475 148.313 73.1215C148.313 73.1128 148.304 73.1041 148.296 73.0867C148.278 73.0432 148.252 73.0084 148.226 72.9736L154.957 82.2867C154.957 82.2867 154.957 82.2867 154.957 82.2954C154.974 82.3215 154.991 82.3562 155.009 82.3823C155.009 82.3823 155.009 82.391 155.009 82.3997C155.009 82.4084 155.017 82.4171 155.026 82.4345C155.026 82.4519 155.043 82.4693 155.052 82.478C155.052 82.4954 155.061 82.5128 155.07 82.5302C155.07 82.5388 155.07 82.5475 155.078 82.5649C155.078 82.5649 155.078 82.5736 155.078 82.5823C155.087 82.6171 155.096 82.6519 155.104 82.6954C155.104 82.7041 155.104 82.7128 155.104 82.7215C155.104 82.7475 155.104 82.7823 155.113 82.8084C155.113 82.8171 155.113 82.8258 155.113 82.8432C155.113 82.8606 155.113 82.878 155.113 82.9041C155.113 82.9215 155.113 82.9389 155.113 82.9562C155.113 82.9736 155.113 82.991 155.113 82.9997C155.113 83.0258 155.113 83.0519 155.113 83.078C155.113 83.0954 155.113 83.1041 155.113 83.1215C155.113 83.1388 155.113 83.1475 155.104 83.1649C155.104 83.2084 155.087 83.2519 155.07 83.3041C155.07 83.3215 155.07 83.3389 155.061 83.3562C155.061 83.3736 155.052 83.391 155.044 83.4084C155.044 83.4258 155.035 83.4432 155.026 83.4519C155.009 83.5128 154.983 83.5736 154.957 83.6345C154.93 83.6954 154.896 83.7649 154.861 83.8258C154.852 83.8432 154.835 83.8693 154.826 83.8867C154.8 83.9302 154.774 83.9736 154.748 84.0171C154.73 84.0432 154.713 84.0606 154.704 84.0867C154.678 84.1215 154.652 84.1649 154.626 84.1997C154.609 84.2258 154.591 84.2432 154.574 84.2693C154.565 84.2867 154.557 84.2954 154.539 84.3128C154.53 84.3302 154.513 84.3389 154.504 84.3562C154.47 84.3997 154.426 84.4519 154.383 84.4954C154.365 84.5128 154.357 84.5215 154.348 84.5389C154.339 84.5475 154.322 84.5649 154.313 84.5736C154.287 84.5997 154.261 84.6258 154.235 84.6519C154.217 84.6693 154.2 84.6867 154.183 84.7041C154.165 84.7215 154.148 84.7302 154.139 84.7475C154.122 84.7649 154.096 84.791 154.078 84.8084C154.061 84.8258 154.052 84.8345 154.035 84.8519C154.009 84.878 153.983 84.8954 153.957 84.9128C153.939 84.9302 153.922 84.9388 153.904 84.9562C153.904 84.9562 153.887 84.9649 153.887 84.9736C153.835 85.0084 153.791 85.0519 153.739 85.0867C153.739 85.0867 153.739 85.0867 153.73 85.0867C153.722 85.0867 153.713 85.1041 153.696 85.1128C153.661 85.1388 153.626 85.1649 153.591 85.191C153.574 85.1997 153.557 85.2171 153.539 85.2258C153.522 85.2345 153.504 85.2519 153.487 85.2606C153.47 85.2693 153.452 85.278 153.444 85.2867C153.4 85.3128 153.357 85.3389 153.322 85.3649C153.322 85.3649 153.304 85.3736 153.296 85.3823C153.244 85.4084 153.191 85.4432 153.139 85.4693C153.13 85.4693 153.122 85.478 153.113 85.4867C153.096 85.4954 153.07 85.5041 153.052 85.5128C153.026 85.5215 153 85.5388 152.974 85.5475C152.957 85.5562 152.93 85.5649 152.913 85.5736C152.887 85.5823 152.861 85.591 152.835 85.6084C152.817 85.6084 152.809 85.6258 152.791 85.6258C152.765 85.6345 152.739 85.6432 152.704 85.6519C152.67 85.6606 152.644 85.678 152.609 85.6867C152.6 85.6867 152.591 85.6867 152.574 85.6954C152.548 85.6954 152.53 85.7041 152.504 85.7128C152.452 85.7302 152.409 85.7388 152.357 85.7562C152.339 85.7562 152.33 85.7562 152.313 85.7649C152.278 85.7649 152.252 85.7736 152.217 85.7823C152.191 85.7823 152.174 85.791 152.148 85.7997C152.078 85.8084 152.009 85.8258 151.939 85.8258C151.348 85.8867 150.913 85.7215 150.687 85.4084L143.957 76.0954C144.183 76.4084 144.617 76.5736 145.209 76.5128C145.278 76.5128 145.348 76.4954 145.417 76.4867C145.435 76.4867 145.461 76.478 145.487 76.4693L145.478 76.4867Z" fill="#575D60" stroke="#1D1D1D" stroke-width="0.26087" stroke-miterlimit="10"/>
<path d="M148.235 74.3385C148.722 73.2515 148.166 72.4602 146.974 72.5733C145.792 72.695 144.435 73.6689 143.948 74.7646C143.461 75.8515 144.027 76.6428 145.209 76.5298C146.392 76.408 147.748 75.4341 148.235 74.3385Z" fill="#25D17F" stroke="#1D1D1D" stroke-width="0.26087" stroke-miterlimit="10"/>
<path d="M141.479 69.9132C141.479 69.9132 141.531 69.9045 141.557 69.8958C141.583 69.8958 141.618 69.8784 141.644 69.8697C141.662 69.8697 141.688 69.861 141.705 69.8523C141.722 69.8523 141.74 69.8436 141.757 69.8349C141.783 69.8262 141.809 69.8175 141.835 69.8089C141.853 69.8089 141.862 69.8002 141.879 69.7915C141.905 69.7828 141.94 69.7654 141.966 69.7567C141.975 69.7567 141.992 69.748 142.001 69.7393C142.035 69.7219 142.079 69.6958 142.114 69.6784C142.114 69.6784 142.122 69.6784 142.131 69.6784C142.166 69.661 142.201 69.6349 142.235 69.6175C142.244 69.6175 142.253 69.6002 142.27 69.6002C142.305 69.5828 142.331 69.5567 142.366 69.5393C142.366 69.5393 142.375 69.5393 142.383 69.5306C142.418 69.5045 142.453 69.4784 142.488 69.4523C142.496 69.4523 142.505 69.4349 142.514 69.4262C142.54 69.4089 142.566 69.3828 142.583 69.3654C142.592 69.3567 142.609 69.3393 142.618 69.3306C142.635 69.3132 142.662 69.2958 142.679 69.2784C142.696 69.261 142.714 69.2436 142.731 69.2262C142.749 69.2089 142.757 69.1915 142.775 69.1828C142.801 69.1567 142.827 69.1306 142.844 69.1045C142.862 69.0871 142.87 69.0697 142.888 69.0523C142.896 69.0349 142.905 69.0262 142.922 69.0089C142.94 68.9828 142.957 68.9654 142.975 68.9393C142.983 68.9219 142.992 68.9132 143.001 68.8958C143.018 68.8697 143.035 68.8436 143.044 68.8175C143.044 68.8089 143.062 68.7915 143.062 68.7828C143.079 68.748 143.105 68.7045 143.114 68.6697C143.131 68.6349 143.14 68.6002 143.157 68.5654C143.157 68.5567 143.157 68.548 143.166 68.5393C143.166 68.5219 143.175 68.5045 143.183 68.4784C143.183 68.4523 143.201 68.4262 143.201 68.4002C143.201 68.3828 143.201 68.3654 143.209 68.348C143.209 68.3306 143.209 68.3132 143.209 68.3045C143.209 68.2871 143.209 68.261 143.209 68.2436C143.209 68.2349 143.209 68.2176 143.209 68.2089C143.209 68.1828 143.209 68.1567 143.209 68.1393C143.209 68.1393 143.209 68.1306 143.209 68.1219C143.209 68.0958 143.201 68.0697 143.192 68.0436C143.192 68.0436 143.192 68.0349 143.192 68.0262C143.192 68.0089 143.175 67.9828 143.166 67.9654C143.166 67.9654 143.166 67.9567 143.166 67.948C143.157 67.9219 143.14 67.9045 143.122 67.8784L147.122 73.4089C147.131 73.4262 147.149 73.4436 147.157 73.461C147.157 73.461 147.157 73.461 147.157 73.4697C147.157 73.4697 147.157 73.4784 147.157 73.4871C147.157 73.4958 147.166 73.5045 147.175 73.5132C147.175 73.5219 147.175 73.5306 147.183 73.548C147.183 73.548 147.183 73.5567 147.183 73.5654C147.183 73.5654 147.183 73.5654 147.183 73.5741C147.183 73.5915 147.192 73.6176 147.201 73.6436C147.201 73.6436 147.201 73.6523 147.201 73.661C147.201 73.6784 147.201 73.6958 147.201 73.7132C147.201 73.7132 147.201 73.7219 147.201 73.7306C147.201 73.7393 147.201 73.7567 147.201 73.7654C147.201 73.7741 147.201 73.7828 147.201 73.8002C147.201 73.8089 147.201 73.8176 147.201 73.8262C147.201 73.8436 147.201 73.861 147.201 73.8697C147.201 73.8697 147.201 73.8871 147.201 73.8958C147.201 73.8958 147.201 73.9132 147.201 73.9219C147.201 73.948 147.192 73.9741 147.183 74.0002C147.183 74.0089 147.183 74.0175 147.183 74.0262C147.183 74.0349 147.183 74.0436 147.175 74.0523C147.175 74.061 147.175 74.0697 147.166 74.0784C147.157 74.1132 147.14 74.148 147.122 74.1828C147.105 74.2175 147.088 74.261 147.07 74.2958C147.07 74.3045 147.053 74.3219 147.053 74.3306C147.035 74.3567 147.027 74.3828 147.009 74.4089C147.001 74.4262 146.992 74.4349 146.983 74.4523C146.966 74.4784 146.949 74.4958 146.931 74.5219C146.922 74.5393 146.914 74.548 146.896 74.5654C146.896 74.5654 146.888 74.5828 146.879 74.5915C146.879 74.6002 146.862 74.6089 146.853 74.6175C146.827 74.6436 146.809 74.6697 146.783 74.6958C146.783 74.6958 146.766 74.7132 146.757 74.7219L146.74 74.7393C146.722 74.7567 146.705 74.7741 146.688 74.7915C146.679 74.8002 146.67 74.8089 146.653 74.8262C146.644 74.8262 146.635 74.8436 146.627 74.8523C146.618 74.861 146.601 74.8784 146.592 74.8871C146.583 74.8871 146.575 74.9045 146.566 74.9132C146.549 74.9306 146.531 74.9393 146.522 74.948C146.514 74.948 146.505 74.9654 146.496 74.9741C146.496 74.9741 146.496 74.9741 146.488 74.9828C146.462 75.0089 146.427 75.0262 146.401 75.0523C146.401 75.0523 146.392 75.0523 146.383 75.061C146.366 75.0784 146.34 75.0871 146.322 75.1045C146.314 75.1045 146.305 75.1132 146.288 75.1219C146.279 75.1219 146.27 75.1393 146.253 75.1393C146.244 75.1393 146.235 75.148 146.227 75.1567C146.201 75.1741 146.175 75.1828 146.149 75.2002C146.149 75.2002 146.14 75.2002 146.131 75.2002C146.096 75.2175 146.07 75.2349 146.035 75.2523C146.035 75.2523 146.027 75.2523 146.018 75.2523C146.009 75.2523 145.992 75.261 145.983 75.2697C145.966 75.2697 145.949 75.2871 145.94 75.2958C145.931 75.2958 145.914 75.3045 145.905 75.3132C145.888 75.3132 145.879 75.3219 145.862 75.3306C145.853 75.3306 145.844 75.3306 145.835 75.3393C145.818 75.3393 145.801 75.348 145.783 75.3567C145.766 75.3567 145.749 75.3741 145.731 75.3741C145.731 75.3741 145.722 75.3741 145.714 75.3741C145.696 75.3741 145.688 75.3741 145.67 75.3828C145.644 75.3828 145.609 75.4002 145.583 75.4089C145.583 75.4089 145.566 75.4089 145.557 75.4089C145.54 75.4089 145.522 75.4089 145.505 75.4175C145.496 75.4175 145.479 75.4175 145.47 75.4175C145.427 75.4175 145.392 75.4349 145.349 75.4349C145.001 75.4697 144.74 75.3741 144.609 75.1828L140.609 69.6523C140.749 69.8349 141.001 69.9393 141.349 69.9045C141.392 69.9045 141.427 69.8958 141.47 69.8871C141.479 69.8871 141.496 69.8871 141.505 69.8871L141.479 69.9132Z" fill="#575D60" stroke="#1D1D1D" stroke-width="0.26087" stroke-miterlimit="10"/>
<path d="M142.836 68.3135C143.123 67.67 142.792 67.2005 142.088 67.27C141.384 67.3396 140.584 67.9222 140.288 68.5657C140.001 69.2091 140.331 69.6787 141.036 69.6091C141.74 69.5396 142.54 68.957 142.836 68.3135Z" fill="#575D60" stroke="#1D1D1D" stroke-width="0.26087" stroke-miterlimit="10"/>
<path d="M129.687 69.609C134.122 73.0351 140.313 71.783 143.513 66.8177C146.713 61.8525 145.705 55.0525 141.261 51.6264C136.826 48.2003 130.635 49.4525 127.435 54.4177C124.235 59.383 125.244 66.183 129.687 69.609ZM128.766 55.4438C131.435 51.296 136.6 50.2612 140.305 53.1134C144.009 55.9743 144.853 61.6438 142.183 65.7916C139.513 69.9395 134.348 70.9743 130.644 68.1221C126.939 65.2612 126.096 59.5917 128.766 55.4438Z" fill="#444A4C" stroke="#1D1D1D" stroke-width="0.26087" stroke-miterlimit="10"/>
<path d="M131.226 69.5475C135.661 72.9736 141.852 71.7214 145.052 66.7562C148.252 61.791 147.244 54.991 142.8 51.5649C138.366 48.1388 132.174 49.391 128.974 54.3562C125.774 59.3214 126.783 66.1214 131.226 69.5475ZM134 69.1127C133.374 68.8519 132.757 68.504 132.183 68.0606C128.479 65.1997 127.635 59.5301 130.305 55.3823C132.409 52.1127 136.07 50.7736 139.348 51.7562C140.218 52.0171 141.061 52.4432 141.844 53.0519C145.548 55.9127 146.392 61.5823 143.722 65.7301C141.47 69.2258 137.435 70.5214 134 69.1127Z" fill="#575D60" stroke="#1D1D1D" stroke-width="0.26087" stroke-miterlimit="10"/>
<path d="M49.6453 103.811L55.9569 109.287C55.9569 109.652 55.7221 110.017 55.2439 110.295L35.1308 121.904C34.1743 122.452 32.6178 122.452 31.67 121.904L11.07 109.93C10.6178 109.669 10.383 109.322 10.3569 108.974V92.7129L49.6453 103.811Z" fill="#313638" stroke="#1D1D1D" stroke-width="0.26087" stroke-miterlimit="10"/>
<path d="M33.2455 121.056C34.1933 121.613 35.7498 121.613 36.7063 121.056L55.6909 110.173C56.6474 109.625 57.4235 108.273 56.5293 106.875L34.6351 79.8691C33.6872 79.3125 32.1307 79.3125 31.1742 79.8691L11.0611 91.4777C10.1046 92.0256 10.1046 92.9299 11.0611 93.4864L33.2455 121.056Z" fill="#575D60" stroke="#1D1D1D" stroke-width="0.26087" stroke-miterlimit="10"/>
<path d="M35.1889 116.458C35.8585 116.85 36.9628 116.85 37.6324 116.458L51.3749 108.567C52.0444 108.175 52.1339 107.027 51.5349 106.422L33.9849 84.4673C33.3153 84.076 32.2109 84.076 31.5414 84.4673L17.3414 92.6673C16.6718 93.0586 16.6631 93.6934 17.3414 94.0847L35.1889 116.458Z" stroke="#212526" stroke-width="0.652174" stroke-miterlimit="10"/>
<path d="M63.5828 136.295C61.9654 137.225 61.9567 138.756 63.5654 139.686L79.3219 148.843C80.9219 149.773 83.5567 149.773 85.1741 148.843L101.035 139.686C102.652 138.756 102.661 137.225 101.052 136.295L85.2958 127.138C83.6958 126.208 81.061 126.208 79.4436 127.138L63.5828 136.295Z" fill="#212526" stroke="#1D1D1D" stroke-width="0.26087" stroke-miterlimit="10"/>
<path d="M79.4432 127.138C81.0606 126.208 83.6954 126.208 85.2954 127.138L101.052 136.295C102.652 137.225 102.643 138.756 101.035 139.686L98.7302 141.017L77.0693 128.512L79.4432 127.147V127.138Z" fill="#212526" stroke="#1D1D1D" stroke-width="0.26087" stroke-miterlimit="10"/>
<path d="M76.8262 133.573L89.0783 140.651L90.9131 139.59L78.661 132.521L76.8262 133.573Z" fill="#7F8B91"/>
<path d="M72.9824 136.242L84.852 143.094L86.6868 142.033L74.8172 135.181L72.9824 136.242Z" fill="#7F8B91"/>
<path d="M69.7827 139.277L80.6175 145.538L82.4523 144.477L71.6175 138.225L69.7827 139.277Z" fill="#7F8B91"/>
<path d="M14.2265 105.401L15.0265 104.94C15.296 104.784 15.6699 104.81 16.0873 105.053C16.9221 105.532 17.6004 106.706 17.6004 107.671C17.6004 108.149 17.4352 108.488 17.1569 108.645L16.4178 109.071L16.2873 108.845C16.1482 108.81 16.0091 108.766 15.8526 108.679C15.0178 108.201 14.3395 107.027 14.3395 106.062C14.3395 105.923 14.3569 105.792 14.383 105.679L14.2178 105.41L14.2265 105.401Z" fill="#1D1D1D" stroke="#1D1D1D" stroke-width="0.26087" stroke-linejoin="round"/>
<path d="M15.3226 105.48C16.1574 105.958 16.8357 107.132 16.8357 108.097C16.8357 109.062 16.1574 109.454 15.3226 108.967C14.4878 108.488 13.8096 107.314 13.8096 106.349C13.8096 105.384 14.4878 105.001 15.3226 105.48Z" fill="#575D60" stroke="#1D1D1D" stroke-width="0.26087" stroke-linejoin="round"/>
<path d="M15.3226 105.48C16.1574 105.958 16.8357 107.132 16.8357 108.097C16.8357 109.062 16.1574 109.454 15.3226 108.967C14.4878 108.488 13.8096 107.314 13.8096 106.349C13.8096 105.384 14.4878 105.001 15.3226 105.48Z" fill="#25D17F" stroke="#1D1D1D" stroke-width="0.26087" stroke-miterlimit="10"/>
<path d="M38.5276 96.2002L37.0741 104.473C36.966 105.088 36.3014 105.483 35.5919 105.355L30.6344 104.484C29.9196 104.358 29.4296 103.76 29.5415 103.149C29.6496 102.534 30.3142 102.139 31.0237 102.268L34.6984 102.913L35.9565 95.7526C36.0646 95.1374 36.7292 94.742 37.4387 94.8708C38.1534 94.9964 38.6434 95.5946 38.5315 96.205L38.5276 96.2002Z" fill="#25D17F"/>
<defs>
<linearGradient id="paint0_linear_4346_28061" x1="65.9829" y1="21.591" x2="119.357" y2="21.591" gradientUnits="userSpaceOnUse">
<stop stop-color="#575D60"/>
<stop offset="1" stop-color="#2A2E30"/>
</linearGradient>
</defs>
</svg>
