<svg width="100" height="100" viewBox="0 0 100 100" fill="none" xmlns="http://www.w3.org/2000/svg">
<g clip-path="url(#clip0_692_4778)">
<circle cx="50" cy="50" r="50" fill="#000D1D" fill-opacity="0.04"/>
<mask id="mask0_692_4778" style="mask-type:alpha" maskUnits="userSpaceOnUse" x="30" y="16" width="40" height="70">
<path d="M64.4283 19.8516L64.4396 19.8595L64.4513 19.8667C65.5335 20.5372 66.2786 21.742 66.3552 23.2866L68.8464 73.5041C68.9858 76.3132 66.8506 79.0878 64.0994 79.6726L39.2421 84.9562C37.9528 85.2303 36.7792 84.971 35.8904 84.3511L35.4146 84.0192L35.4116 84.0247L31.5042 81.3068L34.2205 67.9283L34.2397 67.8337L34.2237 67.7384C34.1922 67.5509 34.1711 67.3571 34.1612 67.1573L34.1613 67.1573L34.1606 67.1475L31.6698 30.8239C31.5331 28.0164 33.6674 25.2446 36.417 24.6601L59.6278 19.7265L59.5964 19.0674L59.7401 19.0315C59.7578 19.1023 59.7547 19.1582 59.7542 19.1678L59.7542 19.1686C59.7537 19.1779 59.753 19.1848 59.7526 19.1886L59.7517 19.1955L59.7517 19.1956C59.7517 19.1956 59.7521 19.1927 59.7535 19.1862C59.7549 19.1791 59.757 19.1697 59.7599 19.1575C59.772 19.1066 59.7927 19.0306 59.822 18.9305C59.8802 18.7322 59.9649 18.4647 60.062 18.1676C60.1774 17.8143 60.3085 17.425 60.4294 17.0711L64.4283 19.8516ZM59.7401 19.0315L59.5964 19.0674L59.5823 18.7717C59.5964 18.7842 59.6116 18.7989 59.6268 18.8161C59.6645 18.8587 59.7148 18.9301 59.7401 19.0315Z" fill="black" stroke="black" stroke-width="1.04167"/>
</mask>
<g mask="url(#mask0_692_4778)">
<path d="M64.4283 19.8516L64.4396 19.8595L64.4513 19.8667C65.5335 20.5372 66.2786 21.742 66.3552 23.2866L68.8464 73.5041C68.9858 76.3132 66.8506 79.0878 64.0994 79.6726L39.2421 84.9562C37.9528 85.2303 36.7792 84.971 35.8904 84.3511L35.4146 84.0192L35.4116 84.0247L31.5042 81.3068L34.2205 67.9283L34.2397 67.8337L34.2237 67.7384C34.1922 67.5509 34.1711 67.3571 34.1612 67.1573L34.1613 67.1573L34.1606 67.1475L31.6698 30.8239C31.5331 28.0164 33.6674 25.2446 36.417 24.6601L59.6278 19.7265L59.5964 19.0674L59.7401 19.0315C59.7578 19.1023 59.7547 19.1582 59.7542 19.1678L59.7542 19.1686C59.7537 19.1779 59.753 19.1848 59.7526 19.1886L59.7517 19.1955L59.7517 19.1956C59.7517 19.1956 59.7521 19.1927 59.7535 19.1862C59.7549 19.1791 59.757 19.1697 59.7599 19.1575C59.772 19.1066 59.7927 19.0306 59.822 18.9305C59.8802 18.7322 59.9649 18.4647 60.062 18.1676C60.1774 17.8143 60.3085 17.425 60.4294 17.0711L64.4283 19.8516ZM59.7401 19.0315L59.5964 19.0674L59.5823 18.7717C59.5964 18.7842 59.6116 18.7989 59.6268 18.8161C59.6645 18.8587 59.7148 18.9301 59.7401 19.0315Z" fill="black" stroke="black" stroke-width="1.04167"/>
<path d="M58.2869 73.0161L66.6894 78.6984L65.0067 79.5618L55.9072 73.304L58.2869 73.0161Z" fill="#B8A9A9"/>
<path d="M71.339 70.9048L63.577 65.6494L60.7209 71.4943L69.1913 77.237L71.339 70.9048Z" fill="#B8A9A9"/>
<path d="M34.6764 80.5601L43.0302 86.0414L37.2925 88.0623L27.9608 82.0402L34.6764 80.5601Z" fill="#B8A9A9"/>
<path d="M40.9512 83.5913L48.9799 81.7849" stroke="#66DD8C" stroke-width="1.04167" stroke-linecap="round"/>
<path d="M64.3117 20.7072C64.7877 21.0836 65.4541 21.823 65.6401 24.4268C65.6401 24.8785 66.094 33.5155 66.3043 37.4454" stroke="#66DD8C" stroke-width="1.04167" stroke-linecap="round"/>
<path d="M64.4283 19.8516L64.4396 19.8595L64.4513 19.8667C65.5335 20.5372 66.2786 21.742 66.3552 23.2866L68.8464 73.5041C68.9858 76.3132 66.8506 79.0879 64.0994 79.6726L39.2421 84.9562C37.9528 85.2303 36.7792 84.971 35.8904 84.3511L35.4146 84.0193L35.4116 84.0247L31.5042 81.3068L34.2205 67.9283L34.2397 67.8337L34.2237 67.7385C34.1922 67.5509 34.1711 67.3571 34.1612 67.1573L34.1613 67.1573L34.1606 67.1475L31.6698 30.8239C31.5331 28.0164 33.6674 25.2446 36.417 24.6601L59.6278 19.7265L59.5964 19.0674L59.7401 19.0315C59.7578 19.1023 59.7547 19.1582 59.7542 19.1678L59.7542 19.1686C59.7537 19.1779 59.753 19.1848 59.7526 19.1886L59.7517 19.1955C59.7516 19.1962 59.752 19.1935 59.7535 19.1862C59.7549 19.1791 59.757 19.1697 59.7599 19.1575C59.772 19.1066 59.7927 19.0306 59.822 18.9305C59.8802 18.7322 59.9649 18.4647 60.062 18.1676C60.1774 17.8143 60.3085 17.425 60.4294 17.0711L64.4283 19.8516ZM59.7401 19.0315L59.5964 19.0674L59.5823 18.7717C59.5964 18.7842 59.6116 18.7989 59.6268 18.8161C59.6645 18.8587 59.7148 18.9301 59.7401 19.0315Z" stroke="black" stroke-width="1.04167"/>
</g>
<rect x="0.535258" y="0.411906" width="35.4821" height="60.3487" rx="5.03472" transform="matrix(0.978148 -0.207912 0.0495471 0.998772 26.1325 22.1172)" fill="white" stroke="black" stroke-width="1.04167"/>
<mask id="mask1_692_4778" style="mask-type:alpha" maskUnits="userSpaceOnUse" x="28" y="18" width="35" height="62">
<rect x="0.535258" y="0.411906" width="30.6615" height="54.902" rx="3.64583" transform="matrix(0.978148 -0.207912 0.0495471 0.998772 28.6251 24.3359)" fill="white" stroke="#B8A9A9" stroke-width="1.04167"/>
</mask>
<g mask="url(#mask1_692_4778)">
<rect x="-0.535258" y="-0.411906" width="32.7449" height="56.9853" rx="4.6875" transform="matrix(0.978148 -0.207912 0.0495471 0.998772 28.6425 24.1123)" fill="white" stroke="#B8A9A9" stroke-width="1.04167"/>
<path d="M34.5993 21.6079L35.1626 34.9726L40.548 40.293" stroke="#EBE9E9" stroke-width="2.77778" stroke-linecap="round"/>
<path d="M49.53 39.5393L42.1351 32.368L43.3943 29.3799L53.7703 27.2477L53.3683 17.2263" stroke="#EBE9E9" stroke-width="2.77778" stroke-linecap="round"/>
<path d="M26.3362 65.928C26.7648 65.8669 31.1072 64.984 33.2248 64.5503L42.027 70.0614L42.6568 82.6647" stroke="#EBE9E9" stroke-width="2.77778" stroke-linecap="round"/>
<path d="M56.0712 45.3628L56.819 61.5732L49.1373 67.6936L50.091 86.2957" stroke="#EBE9E9" stroke-width="2.77778" stroke-linecap="round"/>
<rect x="0.535258" y="0.411906" width="30.6615" height="54.902" rx="3.64583" transform="matrix(0.978148 -0.207912 0.0495471 0.998772 28.6251 24.3359)" stroke="#B8A9A9" stroke-width="1.04167"/>
</g>
<path d="M55.7523 37.0091C56.5942 36.9925 57.248 37.5341 57.369 38.3483C57.369 38.3483 57.6153 41.3599 57.5497 46.4889C56.8049 55.316 50.1193 61.4828 46.0632 62.4006C42.0056 63.3187 33.6225 58.6179 33.3429 51.8633C33.1885 48.1321 33.0626 44.7379 33.065 43.8812C33.0675 43.0246 33.6774 42.1744 34.5249 41.8459C36.1912 41.3151 37.8146 40.5459 39.3407 39.564C40.9961 38.6764 42.499 37.4568 43.7385 35.995C44.4312 35.3289 45.3932 35.1113 46.1273 35.4545C47.5316 36.2029 49.0718 36.7264 50.703 37.0098C52.3618 37.1309 54.0491 37.1307 55.7523 37.0091Z" fill="#66DD8C"/>
<path d="M44.5644 53.96C44.0768 54.5795 43.2436 54.7566 42.7054 54.3551L38.3123 51.0626C37.7741 50.6611 37.7325 49.8233 38.2201 49.2038C38.7076 48.5844 39.5408 48.4072 40.079 48.8087L43.4966 51.3694L49.4605 43.7589C49.9481 43.1394 50.7813 42.9623 51.3195 43.3638C51.8576 43.7653 51.8992 44.6031 51.4117 45.2225L44.5645 53.96L44.5644 53.96Z" fill="black"/>
</g>
<defs>
<clipPath id="clip0_692_4778">
<rect width="100" height="100" rx="50" fill="white"/>
</clipPath>
</defs>
</svg>
