<svg fill="none" height="189" viewBox="0 0 139 189" width="139" xmlns="http://www.w3.org/2000/svg" xmlns:xlink="http://www.w3.org/1999/xlink"><linearGradient id="a" gradientUnits="userSpaceOnUse" x1="27.6478" x2="25.3416" y1="174.633" y2="155.3"><stop offset=".17573" stop-color="#fff280"/><stop offset="1" stop-color="#ffd25e"/></linearGradient><linearGradient id="b" gradientUnits="userSpaceOnUse" x1="32.4541" x2="10.4317" y1="159.691" y2="176.304"><stop offset="0" stop-color="#fffddc"/><stop offset="1" stop-color="#fff997"/></linearGradient><linearGradient id="c"><stop offset="0" stop-color="#000d1d"/><stop offset="1" stop-color="#2f3032"/></linearGradient><linearGradient id="d" gradientUnits="userSpaceOnUse" x1="21.4661" x2="17.2458" xlink:href="#c" y1="160.196" y2="169.516"/><linearGradient id="e"><stop offset=".17573" stop-color="#90edcc"/><stop offset="1" stop-color="#57d9aa"/></linearGradient><linearGradient id="f" gradientUnits="userSpaceOnUse" x1="27.6478" x2="25.3416" xlink:href="#e" y1="174.633" y2="155.3"/><linearGradient id="g"><stop offset="0" stop-color="#dbfdf1"/><stop offset="1" stop-color="#91efcd"/></linearGradient><linearGradient id="h" gradientUnits="userSpaceOnUse" x1="32.4541" x2="10.4317" xlink:href="#g" y1="159.691" y2="176.304"/><linearGradient id="i" gradientUnits="userSpaceOnUse" x1="73.7996" x2="76.9526" xlink:href="#c" y1="121.783" y2="135.948"/><linearGradient id="j" gradientUnits="userSpaceOnUse" x1="39.2402" x2="42.3241" xlink:href="#c" y1="90.7462" y2="109.165"/><linearGradient id="k" gradientUnits="userSpaceOnUse" x1="72.6947" x2="110.82" xlink:href="#e" y1="93.081" y2="61.4537"/><linearGradient id="l" gradientUnits="userSpaceOnUse" x1="109.371" x2="45.2569" xlink:href="#g" y1="66.6779" y2="52.617"/><linearGradient id="m" gradientUnits="userSpaceOnUse" x1="109.371" x2="45.2565" xlink:href="#g" y1="66.6769" y2="52.6159"/><mask id="n" height="21" maskUnits="userSpaceOnUse" width="28" x="5" y="156"><path d="m31.9421 162.695-.0117.003.0656.23c.7067 2.482.012 5.391-2.284 8.034-2.1455 2.47-5.2716 4.224-8.5959 5.056-3.3247.831-6.8266.734-9.7206-.472-2.79406-1.164-4.49842-3.142-5.04691-5.407l-.00694-.028-.00101-.005-.00056-.002c-.01089-.046-.0213-.092-.03124-.139l-.00053-.002-.3603-1.597.19276.144.02465-.436c.10596-1.871.92826-3.854 2.53652-5.705 2.14546-2.47 5.27166-4.224 8.59586-5.056 3.3248-.831 6.8267-.734 9.7207.472 2.0981.874 3.5809 2.207 4.4213 3.772l.2608.486.0512-.159z" fill="#d9d9d9" stroke="#000" stroke-width=".468401"/></mask><mask id="o" height="22" maskUnits="userSpaceOnUse" width="27" x="5" y="153"><path d="m29.0489 168.319c-4.285 4.933-12.4417 6.964-18.2136 4.559-5.77188-2.404-7.00271-8.347-2.71771-13.28 4.28501-4.933 12.44181-6.964 18.21361-4.56 5.7719 2.405 7.0027 8.347 2.7177 13.281z" fill="#fff" stroke="#000" stroke-width=".468401"/></mask><mask id="p" height="21" maskUnits="userSpaceOnUse" width="28" x="5" y="156"><path d="m31.9421 162.695-.0117.003.0656.23c.7067 2.482.012 5.391-2.284 8.034-2.1455 2.47-5.2716 4.224-8.5959 5.056-3.3247.831-6.8266.734-9.7206-.472-2.79406-1.164-4.49842-3.142-5.04691-5.407l-.00694-.028-.00101-.005-.00056-.002c-.01089-.046-.0213-.092-.03124-.139l-.00053-.002-.3603-1.597.19276.144.02465-.436c.10596-1.871.92826-3.854 2.53652-5.705 2.14546-2.47 5.27166-4.224 8.59586-5.056 3.3248-.831 6.8267-.734 9.7207.472 2.0981.874 3.5809 2.207 4.4213 3.772l.2608.486.0512-.159z" fill="#d9d9d9" stroke="#000" stroke-width=".468401"/></mask><mask id="q" height="22" maskUnits="userSpaceOnUse" width="27" x="5" y="153"><path d="m29.0489 168.319c-4.285 4.933-12.4417 6.964-18.2136 4.559-5.77188-2.404-7.00271-8.347-2.71771-13.28 4.28501-4.933 12.44181-6.964 18.21361-4.56 5.7719 2.405 7.0027 8.347 2.7177 13.281z" fill="#fff" stroke="#000" stroke-width=".468401"/></mask><mask id="r" height="91" maskUnits="userSpaceOnUse" width="110" x="11" y="97"><path d="m12.5796 133.825-.2645.099.0809.271 10.2666 34.312c.9085 3.036 3.387 5.344 6.4802 6.034l57.8094 12.904c3.8264.854 7.7541-.939 9.6141-4.391l23.0217-42.719c1.078-1.998 1.336-4.338.721-6.523l-9.613-34.1819c-.335-1.1902-1.615-1.8401-2.774-1.4076z" fill="#d9d9d9" stroke="#000" stroke-width=".603782"/></mask><mask id="s" height="64" maskUnits="userSpaceOnUse" width="99" x="12" y="86"><path d="m79.1568 149.061-63.9014-12.836c-2.1057-.423-3.1087-2.847-1.9174-4.634l29.036-43.5543c.6506-.9758 1.8075-1.4866 2.9669-1.3098l62.2881 9.4969c2.108.3214 3.228 2.6677 2.151 4.5082l-27.4226 46.893c-.6509 1.113-1.9366 1.69-3.2006 1.436z" fill="#e7e7e7" stroke="#000" stroke-width=".603782"/></mask><mask id="t" height="37" maskUnits="userSpaceOnUse" width="40" x="55" y="114"><path clip-rule="evenodd" d="m89.6921 145.895c-5.537 5.817-16.3275 5.559-24.9196-.849-9.1068-6.792-12.2954-17.921-7.1221-24.857.066-.089.1331-.176.2012-.263l2.7698-4.446 1.4296 1.044c5.8929-2.97 14.4128-1.849 21.4556 3.403 6.894 5.142 10.3964 12.769 9.4472 19.181l1.5559 1.137-4.7338 5.713z" fill="#8decca" fill-rule="evenodd"/><path d="m64.7725 145.046.4782-.641zm24.9196.849-.5795-.551.4914-.517.5693.429zm-32.0417-25.706-.6413-.479zm.2012-.263.679.423-.0234.038-.0275.035zm2.7698-4.446-.679-.423.4555-.731.6956.508zm1.4296 1.044.3601.715-.437.22-.3951-.289zm21.4556 3.403.4783-.641zm9.4472 19.181-.4721.646-.3901-.285.0708-.478zm1.5559 1.137.4721-.646.6864.502-.5425.655zm-4.7338 5.713.616.511-.4873.588-.61-.46zm-24.5252-1.553c8.4081 6.271 18.71 6.351 23.8619.939l1.1589 1.103c-5.922 6.221-17.2011 5.786-25.9773-.76zm-6.959-23.738c-2.4056 3.225-2.9024 7.47-1.6662 11.784 1.2364 4.315 4.1996 8.653 8.6252 11.954l-.9565 1.282c-4.6811-3.491-7.8656-8.114-9.2068-12.795-1.3415-4.682-.8461-9.471 1.9217-13.182zm.188-.245c-.0637.081-.1263.162-.188.245l-1.2826-.957c.0704-.094.1419-.187.2145-.279zm-1.3071-.919 2.7698-4.446 1.3581.846-2.7699 4.446zm3.9209-4.669 1.4295 1.045-.944 1.291-1.4296-1.044zm21.9348 5.735c-6.8661-5.121-15.0617-6.13-20.6172-3.33l-.7202-1.429c6.2304-3.14 15.0744-1.908 22.294 3.476zm9.1341 18.422c.896-6.053-2.415-13.411-9.1341-18.422l.9566-1.283c7.0688 5.272 10.7627 13.168 9.7602 19.939zm1.2634-.529 1.556 1.137-.9441 1.292-1.556-1.137zm1.6999 2.294-4.7338 5.713-1.232-1.021 4.7338-5.713zm-5.8311 5.841-.0838-.063.9625-1.278.0839.063z" fill="#fff" mask="url(#u)"/></mask><mask id="u" fill="#fff"><path clip-rule="evenodd" d="m89.6921 145.895c-5.537 5.817-16.3275 5.559-24.9196-.849-9.1068-6.792-12.2954-17.921-7.1221-24.857.066-.089.1331-.176.2012-.263l2.7698-4.446 1.4296 1.044c5.8929-2.97 14.4128-1.849 21.4556 3.403 6.894 5.142 10.3964 12.769 9.4472 19.181l1.5559 1.137-4.7338 5.713z" fill="#fff" fill-rule="evenodd"/></mask><mask id="v" fill="#fff"><path clip-rule="evenodd" d="m89.6921 145.895c-5.537 5.817-16.3275 5.559-24.9196-.849-9.1068-6.792-12.2954-17.921-7.1221-24.857.066-.089.1331-.176.2012-.263l2.7698-4.446 1.4296 1.044c5.8929-2.97 14.4128-1.849 21.4556 3.403 6.894 5.142 10.3964 12.769 9.4472 19.181l1.5559 1.137-4.7338 5.713z" fill="#fff" fill-rule="evenodd"/></mask><mask id="w" fill="#fff"><path clip-rule="evenodd" d="m89.6921 145.895c-5.537 5.817-16.3275 5.559-24.9196-.849-9.1068-6.792-12.2954-17.921-7.1221-24.857.066-.089.1331-.176.2012-.263l2.7698-4.446 1.4296 1.044c5.8929-2.97 14.4128-1.849 21.4556 3.403 6.894 5.142 10.3964 12.769 9.4472 19.181l1.5559 1.137-4.7338 5.713z" fill="#fff" fill-rule="evenodd"/></mask><mask id="x" height="37" maskUnits="userSpaceOnUse" width="39" x="58" y="109"><path d="m67.9865 140.533c9.1808 6.847 20.7635 6.539 25.9331-.392 5.1695-6.931 2.1616-18.121-7.0192-24.968s-20.7635-6.54-25.9331.391c-5.1695 6.932-2.1616 18.121 7.0192 24.969z" fill="#fff" stroke="#000" stroke-width=".8"/></mask><mask id="y" height="53" maskUnits="userSpaceOnUse" width="46" x="21" y="76"><path clip-rule="evenodd" d="m31.9356 127.184c9.4147 4.263 22.1601-1.258 29.3117-13.053 7.5799-12.501 6.0058-27.3155-3.516-33.0889-.1214-.0736-.2436-.1455-.3664-.2155l-5.4525-3.9654-1.2003 1.9369c-8.4637-.6954-18.084 4.7576-23.946 14.4255-5.7381 9.4634-6.2303 20.2524-1.9999 27.4414l-1.3065 2.108 8.4065 4.527z" fill="#8decca" fill-rule="evenodd"/><path d="m61.2473 114.131.6841.415zm-29.3117 13.053.33-.729-.6493-.293-.3667.611zm25.7957-46.1419-.4147.6841zm-.3664-.2155-.4706.647.0359.0261.0386.022zm-5.4525-3.9654.4705-.647-.6967-.5067-.4538.7323zm-1.2003 1.9369-.0655.7973.4877.0401.2578-.416zm-23.946 14.4255-.6841-.4148zm-1.9999 27.4414.68.422.2545-.411-.2451-.416zm-1.3065 2.108-.68-.421-.4479.723.7486.403zm8.4065 4.527-.3793.704.6724.362.3929-.654zm28.697-13.584c-7.0326 11.599-19.3917 16.772-28.2976 12.739l-.6599 1.458c9.9234 4.493 23.055-1.376 30.3257-13.367zm-3.2466-31.9898c4.5018 2.7296 7.1743 7.6242 7.7903 13.422.6162 5.7988-.8363 12.4538-4.5437 18.5678l1.3682.83c3.8725-6.387 5.4229-13.39 4.7666-19.5668-.6565-6.178-3.5319-11.5774-8.5519-14.6212zm-.3478-.2045c.1166.0664.2325.1346.3478.2045l.8295-1.3682c-.1276-.0774-.256-.1529-.3852-.2264zm.8666-1.342-5.4525-3.9655-.941 1.294 5.4524 3.9654zm-6.603-3.7399-1.2003 1.9369 1.36.8428 1.2003-1.9369zm-23.7822 17.1986c5.7477-9.4794 15.1093-14.7074 23.1964-14.043l.131-1.5946c-8.8403-.7263-18.7192 4.9516-24.6956 14.808zm-1.9946 26.6216c-4.046-6.876-3.6304-17.345 1.9946-26.6216l-1.3682-.8296c-5.8512 9.6502-6.42 20.7602-2.0053 28.2622zm-1.3695-.016-1.3064 2.108 1.36.843 1.3065-2.108zm-1.0057 3.234 8.4065 4.526.7586-1.408-8.4065-4.527zm9.4718 4.234.0694-.116-1.372-.823-.0694.115z" fill="#000" mask="url(#z)"/></mask><mask id="z" fill="#fff"><path clip-rule="evenodd" d="m31.9356 127.184c9.4147 4.263 22.1601-1.258 29.3117-13.053 7.5799-12.501 6.0058-27.3155-3.516-33.0889-.1214-.0736-.2436-.1455-.3664-.2155l-5.4525-3.9654-1.2003 1.9369c-8.4637-.6954-18.084 4.7576-23.946 14.4255-5.7381 9.4634-6.2303 20.2524-1.9999 27.4414l-1.3065 2.108 8.4065 4.527z" fill="#fff" fill-rule="evenodd"/></mask><mask id="A" fill="#fff"><path clip-rule="evenodd" d="m31.9356 127.184c9.4147 4.263 22.1601-1.258 29.3117-13.053 7.5799-12.501 6.0058-27.3155-3.516-33.0889-.1214-.0736-.2436-.1455-.3664-.2155l-5.4525-3.9654-1.2003 1.9369c-8.4637-.6954-18.084 4.7576-23.946 14.4255-5.7381 9.4634-6.2303 20.2524-1.9999 27.4414l-1.3065 2.108 8.4065 4.527z" fill="#fff" fill-rule="evenodd"/></mask><mask id="B" height="52" maskUnits="userSpaceOnUse" width="46" x="15" y="74"><path d="m55.3311 110.36c-7.6593 12.632-21.6865 17.917-31.2774 12.102-9.591-5.816-11.3902-20.697-3.7309-33.3291 7.6593-12.632 21.6865-17.9172 31.2774-12.1018s11.3902 20.6968 3.7309 33.3289z" fill="#fff" stroke="#000" stroke-width=".8"/></mask><mask id="C" height="55" maskUnits="userSpaceOnUse" width="68" x="46" y="39"><path d="m111.74 54.8136-2.52-6.8322-1.267.4646c-7.514-8.6501-22.1918-11.5702-36.3873-6.3385s-23.4562 16.9905-23.5472 28.4516l-1.2671.4646 2.5193 6.8323c4.9318 13.3748 22.9246 19.0613 40.1748 12.6944 17.2505-6.3669 27.2385-22.3727 22.2945-35.7484z" fill="#ebe9e9"/></mask><mask id="D" height="54" maskUnits="userSpaceOnUse" width="66" x="45" y="32"><path d="m46.5594 70.6217c4.9338 13.3756 22.9195 19.0597 40.1721 12.6957 17.2525-6.3639 27.2385-22.3661 22.3055-35.7417-4.934-13.3756-22.9199-19.0596-40.1725-12.6957-17.2527 6.364-27.239 22.366-22.3051 35.7417z" fill="url(#m)"/></mask><g mask="url(#n)"><path d="m11.3054 175.762c5.8995 2.458 14.2195.378 18.5834-4.646 2.3365-2.69 3.0652-5.679 2.3325-8.252h.001l-.4354-1.856-.1408.439c-.8694-1.62-2.3971-2.987-4.5376-3.878-5.8994-2.458-14.2195-.378-18.58337 4.646-1.63644 1.884-2.48418 3.915-2.59354 5.846-.12831-.096-.24785-.185-.35173-.263l.49999 2.216c.01028.048.02106.096.03232.144l.00835.037.00045-.001c.56876 2.349 2.33283 4.38 5.18443 5.568z" fill="url(#a)"/><path d="m23.759 171.51 1.0909 4.97-8.0435 1.524-10.74466-3.314-.94585-8.69z" fill="#000"/><path d="m25.761 170.47.6959 3.707 2.0497-.614-.6479-3.972z" fill="#000"/><path d="m31.9421 162.695-.0117.003.0656.23c.7067 2.482.012 5.391-2.284 8.034-2.1455 2.47-5.2716 4.224-8.5959 5.056-3.3247.831-6.8266.734-9.7206-.472-2.79406-1.164-4.49842-3.142-5.04691-5.407l-.00694-.028-.00101-.005-.00056-.002c-.01089-.046-.0213-.092-.03124-.139l-.00053-.002-.3603-1.597.19276.144.02465-.436c.10596-1.871.92826-3.854 2.53652-5.705 2.14546-2.47 5.27166-4.224 8.59586-5.056 3.3248-.831 6.8267-.734 9.7207.472 2.0981.874 3.5809 2.207 4.4213 3.772l.2608.486.0512-.159z" stroke="#000" stroke-width=".468401"/></g><g mask="url(#o)"><path d="m29.0489 168.319c-4.285 4.933-12.4417 6.964-18.2136 4.559-5.77188-2.404-7.00271-8.347-2.71771-13.28 4.28501-4.933 12.44181-6.964 18.21361-4.56 5.7719 2.405 7.0027 8.347 2.7177 13.281z" fill="url(#b)" stroke="#000" stroke-width=".468401"/><path d="m16.4683 149.783 21.7234 10.12-8.0944 10.852-23.75991-10.811z" fill="#fff"/><path d="m29.0489 168.319c-4.285 4.933-12.4417 6.964-18.2136 4.559-5.77188-2.404-7.00271-8.347-2.71771-13.28 4.28501-4.933 12.44181-6.964 18.21361-4.56 5.7719 2.405 7.0027 8.347 2.7177 13.281z" stroke="#000" stroke-width=".468401"/><path d="m26.6434 167.317c-3.3024 3.802-9.5857 5.365-14.0292 3.513-4.44347-1.851-5.39401-6.427-2.0916-10.229 3.3023-3.802 9.5856-5.365 14.0291-3.514s5.394 6.428 2.0917 10.23z" stroke="#ffdd85" stroke-width=".468401"/><path clip-rule="evenodd" d="m25.1589 161.868-1.482 1.609-2.7168-1.23-.9691 1.053c2.1171 1.086 3.4136 2.224 2.9849 2.689-.429.466-2.4411.105-4.7243-.801l-3.1083 3.375-1.9353-.876 3.1075-3.374c-2.1265-1.089-3.4309-2.231-3.0007-2.698.4301-.468 2.4513-.104 4.7416.807l.9682-1.051-2.7167-1.23 1.4821-1.61zm-6.5347 2.918c1.8024.714 3.3255 1.039 3.6083.732h.0002c.2829-.307-.7658-1.148-2.4379-2.006l-.8956.973c-.3217-.125-.6577-.266-.9972-.42-.3343-.151-.6491-.305-.9391-.456l.899-.976c-1.8105-.719-3.3422-1.048-3.6266-.739-.2841.309.7718 1.153 2.4521 2.014l.1107.057h.0015c.1119.056.226.113.3426.169l.0112.005.0985.047.0293.014.083.039.5378.243.0861.038.0303.013.1093.047.005.002c.0817.035.1628.069.2432.102l.0114.005.1084.044.0125.006z" fill="url(#d)" fill-rule="evenodd"/></g><g mask="url(#p)"><path d="m11.3054 175.762c5.8995 2.458 14.2195.378 18.5834-4.646 2.3365-2.69 3.0652-5.679 2.3325-8.252h.001l-.4354-1.856-.1408.439c-.8694-1.62-2.3971-2.987-4.5376-3.878-5.8994-2.458-14.2195-.378-18.58337 4.646-1.63644 1.884-2.48418 3.915-2.59354 5.846-.12831-.096-.24785-.185-.35173-.263l.49999 2.216c.01028.048.02106.096.03232.144l.00835.037.00045-.001c.56876 2.349 2.33283 4.38 5.18443 5.568z" fill="url(#f)"/><path d="m23.759 171.51 1.0909 4.97-8.0435 1.524-10.74466-3.314-.94585-8.69z" fill="#000"/><path d="m25.761 170.47.6959 3.707 2.0497-.614-.6479-3.972z" fill="#000"/><path d="m31.9421 162.695-.0117.003.0656.23c.7067 2.482.012 5.391-2.284 8.034-2.1455 2.47-5.2716 4.224-8.5959 5.056-3.3247.831-6.8266.734-9.7206-.472-2.79406-1.164-4.49842-3.142-5.04691-5.407l-.00694-.028-.00101-.005-.00056-.002c-.01089-.046-.0213-.092-.03124-.139l-.00053-.002-.3603-1.597.19276.144.02465-.436c.10596-1.871.92826-3.854 2.53652-5.705 2.14546-2.47 5.27166-4.224 8.59586-5.056 3.3248-.831 6.8267-.734 9.7207.472 2.0981.874 3.5809 2.207 4.4213 3.772l.2608.486.0512-.159z" stroke="#000" stroke-width=".468401"/></g><g mask="url(#q)"><path d="m29.0489 168.319c-4.285 4.933-12.4417 6.964-18.2136 4.559-5.77188-2.404-7.00271-8.347-2.71771-13.28 4.28501-4.933 12.44181-6.964 18.21361-4.56 5.7719 2.405 7.0027 8.347 2.7177 13.281z" fill="url(#h)" stroke="#000" stroke-width=".468401"/><path d="m16.4683 149.783 21.7234 10.12-8.0944 10.852-23.75991-10.811z" fill="#fff"/><g stroke-width=".468401"><path d="m29.0489 168.319c-4.285 4.933-12.4417 6.964-18.2136 4.559-5.77188-2.404-7.00271-8.347-2.71771-13.28 4.28501-4.933 12.44181-6.964 18.21361-4.56 5.7719 2.405 7.0027 8.347 2.7177 13.281z" stroke="#000"/><path d="m26.6434 167.317c-3.3024 3.802-9.5857 5.365-14.0292 3.513-4.44347-1.851-5.39401-6.427-2.0916-10.229 3.3023-3.802 9.5856-5.365 14.0291-3.514s5.394 6.428 2.0917 10.23z" stroke="#61daae"/></g></g><g mask="url(#r)"><path d="m23.6581 169.34-10.3579-34.617 96.8798-36.2912 10.194 35.9652c.562 1.983.322 4.107-.668 5.914l-23.626 43.097c-1.6703 3.047-5.1452 4.633-8.5415 3.899l-58.0194-12.545c-2.7956-.604-5.0411-2.681-5.861-5.422z" fill="#fff" stroke="#000" stroke-width=".603782"/><path d="m51.4367 192.543-17.5305-66.124 15.9928 1.846 18.4532 69.199z" fill="#b0f5dc" stroke="#000" stroke-width=".603782"/><path d="m81.2697 148.871-17.8382-36.599 47.9785-26.4499c7.074 10.6618 21.344 32.3549 21.836 33.8309s-25.219 50.644-38.1364 75.043z" fill="#000"/><g stroke="#000" stroke-width=".603782"><path d="m107.412 173.475-19.3761-55.667 7.9964-12.302 18.1457 54.129z" fill="#b0f5dc"/><path d="m23.6581 169.34-10.3579-34.617 91.9678-34.451c2.645-.9911 5.572.488 6.342 3.206l8.764 30.919c.562 1.983.322 4.107-.668 5.914l-23.626 43.097c-1.6703 3.047-5.1452 4.633-8.5415 3.899l-58.0194-12.545c-2.7956-.604-5.0411-2.681-5.861-5.422z"/></g></g><g mask="url(#s)"><path d="m79.1568 149.061-63.9014-12.836c-2.1057-.423-3.1087-2.847-1.9174-4.634l29.036-43.5543c.6506-.9758 1.8075-1.4866 2.9669-1.3098l62.2881 9.4969c2.108.3214 3.228 2.6677 2.151 4.5082l-27.4226 46.893c-.6509 1.113-1.9366 1.69-3.2006 1.436z" fill="#e7e7e7" stroke="#000" stroke-width=".603782"/><path d="m78.6335 149.339-33.917-6.906c-2.0934-.426-3.0939-2.832-1.92-4.617l15.1918-23.098c.6495-.987 1.8153-1.505 2.9833-1.324l33.0857 5.113c2.0973.324 3.2144 2.654 2.1538 4.492l-14.3604 24.891c-.649 1.124-1.9446 1.708-3.2172 1.449z" fill="#000" stroke="#000" stroke-width=".603782"/><g mask="url(#t)"><path clip-rule="evenodd" d="m89.6921 145.895c-5.537 5.817-16.3275 5.559-24.9196-.849-9.1068-6.792-12.2954-17.921-7.1221-24.857.066-.089.1331-.176.2012-.263l2.7698-4.446 1.4296 1.044c5.8929-2.97 14.4128-1.849 21.4556 3.403 6.894 5.142 10.3964 12.769 9.4472 19.181l1.5559 1.137-4.7338 5.713z" fill="#8decca" fill-rule="evenodd"/><path d="m64.7725 145.046.4782-.641zm24.9196.849-.5795-.551.4914-.517.5693.429zm-32.0417-25.706-.6413-.479zm.2012-.263.679.423-.0234.038-.0275.035zm2.7698-4.446-.679-.423.4555-.731.6956.508zm1.4296 1.044.3601.715-.437.22-.3951-.289zm21.4556 3.403.4783-.641zm9.4472 19.181-.4721.646-.3901-.285.0708-.478zm1.5559 1.137.4721-.646.6864.502-.5425.655zm-4.7338 5.713.616.511-.4873.588-.61-.46zm-24.5252-1.553c8.4081 6.271 18.71 6.351 23.8619.939l1.1589 1.103c-5.922 6.221-17.2011 5.786-25.9773-.76zm-6.959-23.738c-2.4056 3.225-2.9024 7.47-1.6662 11.784 1.2364 4.315 4.1996 8.653 8.6252 11.954l-.9565 1.282c-4.6811-3.491-7.8656-8.114-9.2068-12.795-1.3415-4.682-.8461-9.471 1.9217-13.182zm.188-.245c-.0637.081-.1263.162-.188.245l-1.2826-.957c.0704-.094.1419-.187.2145-.279zm-1.3071-.919 2.7698-4.446 1.3581.846-2.7699 4.446zm3.9209-4.669 1.4295 1.045-.944 1.291-1.4296-1.044zm21.9348 5.735c-6.8661-5.121-15.0617-6.13-20.6172-3.33l-.7202-1.429c6.2304-3.14 15.0744-1.908 22.294 3.476zm9.1341 18.422c.896-6.053-2.415-13.411-9.1341-18.422l.9566-1.283c7.0688 5.272 10.7627 13.168 9.7602 19.939zm1.2634-.529 1.556 1.137-.9441 1.292-1.556-1.137zm1.6999 2.294-4.7338 5.713-1.232-1.021 4.7338-5.713zm-5.8311 5.841-.0838-.063.9625-1.278.0839.063z" fill="#fff" mask="url(#v)"/><path d="m51.3136 142.022 17.8629-12.116 33.9935 6.289 2.011 11.655-24.1826 17.929z" fill="#000"/><path d="m66.0047 130.106-1.6981-4.191-11.7199 8.543 1.3207 3.26z" fill="#000"/><path d="m64.7725 145.046.4782-.641zm24.9196.849-.5795-.551.4914-.517.5693.429zm-32.0417-25.706-.6413-.479zm.2012-.263.679.423-.0234.038-.0275.035zm2.7698-4.446-.679-.423.4555-.731.6956.508zm1.4296 1.044.3601.715-.437.22-.3951-.289zm21.4556 3.403.4783-.641zm9.4472 19.181-.4721.646-.3901-.285.0708-.478zm1.5559 1.137.4721-.646.6864.502-.5425.655zm-4.7338 5.713.616.511-.4873.588-.61-.46zm-24.5252-1.553c8.4081 6.271 18.71 6.351 23.8619.939l1.1589 1.103c-5.922 6.221-17.2011 5.786-25.9773-.76zm-6.959-23.738c-2.4056 3.225-2.9024 7.47-1.6662 11.784 1.2364 4.315 4.1996 8.653 8.6252 11.954l-.9565 1.282c-4.6811-3.491-7.8656-8.114-9.2068-12.795-1.3415-4.682-.8461-9.471 1.9217-13.182zm.188-.245c-.0637.081-.1263.162-.188.245l-1.2826-.957c.0704-.094.1419-.187.2145-.279zm-1.3071-.919 2.7698-4.446 1.3581.846-2.7699 4.446zm3.9209-4.669 1.4295 1.045-.944 1.291-1.4296-1.044zm21.9348 5.735c-6.8661-5.121-15.0617-6.13-20.6172-3.33l-.7202-1.429c6.2304-3.14 15.0744-1.908 22.294 3.476zm9.1341 18.422c.896-6.053-2.415-13.411-9.1341-18.422l.9566-1.283c7.0688 5.272 10.7627 13.168 9.7602 19.939zm1.2634-.529 1.556 1.137-.9441 1.292-1.556-1.137zm1.6999 2.294-4.7338 5.713-1.232-1.021 4.7338-5.713zm-5.8311 5.841-.0838-.063.9625-1.278.0839.063z" fill="#fff" mask="url(#w)"/></g><g mask="url(#x)"><path d="m67.9865 140.533c9.1808 6.847 20.7635 6.539 25.9331-.392 5.1695-6.931 2.1616-18.121-7.0192-24.968s-20.7635-6.54-25.9331.391c-5.1695 6.932-2.1616 18.121 7.0192 24.969z" fill="#fff" stroke="#000" stroke-width=".8"/><path d="m99.7502 122.4-41.3979 7.553-2.4816 8.596 22.6749 21.176 28.9404-18.23z" fill="#baf7e1"/><path d="m69.6463 136.875c6.3673 5.337 14.8413 5.46 18.9658.539 4.1245-4.92 2.5241-13.242-3.8432-18.58-6.3673-5.337-14.8413-5.459-18.9658-.539s-2.524 13.243 3.8432 18.58z" stroke="#61daae" stroke-width=".8"/><path clip-rule="evenodd" d="m68.1866 123.032 1.5904 2.665 4.1294-.919 1.0399 1.742c-3.2549.894-5.3856 2.097-4.9255 2.868.4603.771 3.3588.855 6.7921.26l3.3355 5.589 2.9417-.655-3.3347-5.587c3.2689-.895 5.4117-2.102 4.9501-2.875-.4616-.774-3.3737-.856-6.8182-.256l-1.039-1.741 4.1294-.919-1.5905-2.665zm8.2259 5.948c-2.7103.469-4.9192.478-5.2226-.031h-.0004c-.3036-.509 1.3965-1.371 3.9675-2.077l.9611 1.611c.4829-.08.9903-.178 1.5063-.293.5082-.113.9899-.235 1.4365-.361l-.9647-1.616c2.7227-.473 4.9447-.484 5.2498.027.305.511-1.4064 1.377-3.9895 2.084l-.17.047h-.0023c-.1718.046-.3465.091-.5249.135l-.017.004-.1504.037-.0445.01-.1266.03-.8175.182-.1303.027-.0461.01-.1654.033-.0075.002c-.1235.025-.246.048-.3673.071l-.0173.003-.1633.03-.019.005z" fill="url(#i)" fill-rule="evenodd"/><path d="m67.9865 140.533c9.1808 6.847 20.7635 6.539 25.9331-.392 5.1695-6.931 2.1616-18.121-7.0192-24.968s-20.7635-6.54-25.9331.391c-5.1695 6.932-2.1616 18.121 7.0192 24.969z" stroke="#000" stroke-width=".8"/></g></g><path d="m91.0001 139.181c0-.276.2238-.5.5-.5.2761 0 .5.224.5.5v5c0 .276-.2239.5-.5.5-.2762 0-.5-.224-.5-.5z" fill="#20ca9f"/><rect fill="#00c593" height="8" rx=".5" width="1" x="112.182" y="58.6807"/><g mask="url(#y)"><path clip-rule="evenodd" d="m31.9356 127.184c9.4147 4.263 22.1601-1.258 29.3117-13.053 7.5799-12.501 6.0058-27.3155-3.516-33.0889-.1214-.0736-.2436-.1455-.3664-.2155l-5.4525-3.9654-1.2003 1.9369c-8.4637-.6954-18.084 4.7576-23.946 14.4255-5.7381 9.4634-6.2303 20.2524-1.9999 27.4414l-1.3065 2.108 8.4065 4.527z" fill="#8decca" fill-rule="evenodd"/><g fill="#000"><path d="m61.2473 114.131.6841.415zm-29.3117 13.053.33-.729-.6493-.293-.3667.611zm25.7957-46.1419-.4147.6841zm-.3664-.2155-.4706.647.0359.0261.0386.022zm-5.4525-3.9654.4705-.647-.6967-.5067-.4538.7323zm-1.2003 1.9369-.0655.7973.4877.0401.2578-.416zm-23.946 14.4255-.6841-.4148zm-1.9999 27.4414.68.422.2545-.411-.2451-.416zm-1.3065 2.108-.68-.421-.4479.723.7486.403zm8.4065 4.527-.3793.704.6724.362.3929-.654zm28.697-13.584c-7.0326 11.599-19.3917 16.772-28.2976 12.739l-.6599 1.458c9.9234 4.493 23.055-1.376 30.3257-13.367zm-3.2466-31.9898c4.5018 2.7296 7.1743 7.6242 7.7903 13.422.6162 5.7988-.8363 12.4538-4.5437 18.5678l1.3682.83c3.8725-6.387 5.4229-13.39 4.7666-19.5668-.6565-6.178-3.5319-11.5774-8.5519-14.6212zm-.3478-.2045c.1166.0664.2325.1346.3478.2045l.8295-1.3682c-.1276-.0774-.256-.1529-.3852-.2264zm.8666-1.342-5.4525-3.9655-.941 1.294 5.4524 3.9654zm-6.603-3.7399-1.2003 1.9369 1.36.8428 1.2003-1.9369zm-23.7822 17.1986c5.7477-9.4794 15.1093-14.7074 23.1964-14.043l.131-1.5946c-8.8403-.7263-18.7192 4.9516-24.6956 14.808zm-1.9946 26.6216c-4.046-6.876-3.6304-17.345 1.9946-26.6216l-1.3682-.8296c-5.8512 9.6502-6.42 20.7602-2.0053 28.2622zm-1.3695-.016-1.3064 2.108 1.36.843 1.3065-2.108zm-1.0057 3.234 8.4065 4.526.7586-1.408-8.4065-4.527zm9.4718 4.234.0694-.116-1.372-.823-.0694.115z" mask="url(#A)"/><path d="m75.8384 104.021-27.1593-5.8203-37.5058 23.9263 3.2333 14.873 37.5057 9.7z"/><path d="m52.5591 96.9074v-5.8199l18.1062 4.5266v4.5269z"/></g></g><g mask="url(#B)"><path d="m55.3311 110.36c-7.6593 12.632-21.6865 17.917-31.2774 12.102-9.591-5.816-11.3902-20.697-3.7309-33.3291 7.6593-12.632 21.6865-17.9172 31.2774-12.1018s11.3902 20.6968 3.7309 33.3289z" fill="#fff" stroke="#000" stroke-width=".8"/><path d="m8.58667 104.021 53.02543-10.9935 7.1132 9.0535-16.813 36.212-43.32563-7.76z" fill="#baf7e1"/><path d="m51.5875 106.794c-5.0331 9.476-15.1422 13.771-22.5152 9.855-7.373-3.917-9.4743-14.697-4.4412-24.173 5.0331-9.4757 15.1422-13.7709 22.5152-9.8546s9.4743 14.6971 4.4412 24.1726z" stroke="#61daae" stroke-width=".8"/><path clip-rule="evenodd" d="m46.5385 89.5242-.6092 3.9468-5.3693.899-.3984 2.5808c4.3139-.5071 7.4365-.1015 7.2603 1.0403-.1764 1.1423-3.5931 2.6419-7.9753 3.5919l-1.2778 8.278-3.825.64 1.2775-8.276c-4.3309.513-7.4699.109-7.293-1.037.1768-1.145 3.6104-2.6499 8.0086-3.5986l.3981-2.5785-5.3693.899.6093-3.9473zm-6.9369 11.0698c3.4592-.7506 6.0977-1.8083 6.214-2.5613l.0004-.0001c.1163-.7535-2.3279-.9602-5.7355-.5602l-.3682 2.3851c-.6145.1383-1.2671.2665-1.9381.3785-.6607.111-1.2943.198-1.8876.264l.3695-2.3941c-3.4756.752-6.1311 1.8125-6.248 2.5701-.1169.756 2.3428.962 5.7652.558l.2253-.027.003-.001c.2269-.028.457-.059.6911-.092l.0221-.004.1975-.029.0578-.009.1654-.026 1.063-.178.1684-.031.06-.01.2133-.04.0098-.002c.1591-.03.3164-.061.472-.093l.0226-.004.2092-.043.0247-.004z" fill="url(#j)" fill-rule="evenodd"/><path d="m55.3311 110.36c-7.6593 12.632-21.6865 17.917-31.2774 12.102-9.591-5.816-11.3902-20.697-3.7309-33.3291 7.6593-12.632 21.6865-17.9172 31.2774-12.1018s11.3902 20.6968 3.7309 33.3289z" stroke="#000" stroke-width=".8"/></g><g mask="url(#C)"><path d="m111.74 54.8136-2.52-6.8322-1.267.4646c-7.514-8.6501-22.1918-11.5702-36.3873-6.3385s-23.4562 16.9905-23.5472 28.4516l-1.2671.4646 2.5193 6.8323c4.9318 13.3748 22.9246 19.0613 40.1748 12.6944 17.2505-6.3669 27.2385-22.3727 22.2945-35.7484z" fill="url(#k)"/><path d="m57.9953 50.3186c-6.2379 5.743-9.9118 13.045-9.977 20.2398l-1.267.4646 2.5192 6.8323c3.324 9.0054 12.561 14.4939 23.4936 15.2007l-14.7798-42.75z" fill="#000" stroke="#000" stroke-miterlimit="10" stroke-width=".8"/><path d="m77.2936 92.9263-2.1073-7.47 4.0869-.8558 2.2014 7.8334z" fill="#000"/><path d="m111.364 54.952.155.4184c4.468 12.9999-5.262 28.5486-22.212 34.8048-17.1373 6.3252-34.8363.6267-39.661-12.4576l-2.3806-6.4563.8908-.3267.26-.0954.0022-.277c.0894-11.2507 9.2006-22.8883 23.2856-28.0794 14.0855-5.1911 28.571-2.2657 35.947 6.2255l.181.2082.259-.095.892-.3271z" stroke="#000" stroke-miterlimit="10" stroke-width=".8"/></g><path d="m46.5598 70.6227c4.9338 13.3756 22.9195 19.0597 40.1721 12.6958 17.2531-6.364 27.2391-22.3661 22.3051-35.7417-4.934-13.3757-22.9195-19.0597-40.1722-12.6957-17.2526 6.3639-27.2389 22.366-22.305 35.7416z" fill="url(#l)"/><g mask="url(#D)"><path d="m110.403 12.1929 11.671 67.9587-42.4904 5.3813-15.2995-61.9504z" fill="#fff"/><path d="m89.0551 61.3992 3.8493-3.2376-13.7468-16.3444-3.8493 3.2375 5.068 6.0257-2.5148 2.1152c-4.3321-4.7196-8.3654-7.6249-9.4825-6.6853-1.1171.9395 1.0541 5.4109 4.9614 10.4878l-8.0709 6.7882 3.6108 4.2931 8.0728-6.7898c4.3195 4.698 8.3353 7.586 9.449 6.6493 1.1138-.9368-1.043-5.3884-4.9315-10.4488l2.5166-2.1166 5.068 6.0256zm-3.9777 4.5031c-.7347.6179-3.7497-1.7158-7.1603-5.4235l-.2195-.2403-.0231-.0275-.2046-.2264-.0213-.0253c-.1517-.1688-.3044-.3403-.4579-.515l-.0093-.011-.2055-.2347-.0567-.0674-.1609-.1863-1.0031-1.1927-.1543-.1884-.0545-.0648-.1828-.2264-.0205-.0245c-.2163-.2687-.4271-.5352-.633-.7994l-.0028-.0033-.2038-.2639c-3.0871-4.0125-4.8829-7.403-4.1447-8.0239.7384-.6211 3.7696 1.7313 7.1951 5.4583l-2.3347 1.9636c.5314.7003 1.114 1.4306 1.7374 2.1719.6334.753 1.2655 1.4663 1.8754 2.1198l2.3259-1.9562c3.0716 3.9985 4.8541 7.3694 4.1195 7.9873z" fill="#04101f"/></g><g stroke-width=".8"><path d="m84.6889 77.5859c-13.7638 5.077-27.9362.4931-31.7975-9.9746-3.8612-10.4677 3.9398-23.1569 17.7036-28.2339 13.7638-5.0771 27.9362-.4932 31.797 9.9745 3.862 10.4677-3.9393 23.1569-17.7031 28.234z" stroke="#61daae"/><path d="m86.5935 82.9432c-17.1398 6.3223-34.8318.6262-39.6584-12.4589-4.8267-13.0851 4.9284-28.9056 22.0682-35.228 17.1398-6.3223 34.8317-.6262 39.6587 12.4589 4.826 13.0851-4.929 28.9056-22.0685 35.228z" stroke="#000"/></g></svg>