<svg width="41" height="40" viewBox="0 0 41 40" fill="none" xmlns="http://www.w3.org/2000/svg">
<path d="M0.666687 20C0.666687 31.0457 9.62099 40 20.6667 40C31.7124 40 40.6667 31.0457 40.6667 20C40.6667 8.9543 31.7124 0 20.6667 0C9.62099 0 0.666687 8.9543 0.666687 20Z" fill="#1B76F2"/>
<path d="M17.6323 13.6342V16.6827H15.322V20.4105H17.6323V31.4874H22.3783V20.4105H25.563C25.563 20.4105 25.8614 18.6227 26.0058 16.6686H22.3964V14.1195C22.3964 13.7389 22.9136 13.2265 23.4252 13.2265H26.0111V9.3457H22.4953C17.5148 9.34547 17.6323 13.0768 17.6323 13.6342Z" fill="white"/>
</svg>
