<svg width="12" height="12" viewBox="0 0 12 12" fill="none" xmlns="http://www.w3.org/2000/svg">
<path fill-rule="evenodd" clip-rule="evenodd" d="M7.00001 2.20702V3.74992C7.00001 4.02606 6.77615 4.24992 6.50001 4.24992C4.83714 4.24992 3.7806 4.82391 3.10315 5.79381C2.58729 6.53237 2.26452 7.53799 2.10969 8.78875C2.97324 7.70582 4.40381 6.49992 6.50001 6.49992C6.77615 6.49992 7.00001 6.72378 7.00001 6.99992V8.58995L10.2827 5.48967L7.00001 2.20702ZM6.00001 1.24134C6.00001 0.706797 6.6463 0.439096 7.02427 0.817076L11.208 5.00084C11.4869 5.27975 11.4805 5.7339 11.1937 6.00473L7.01198 9.95413C6.62934 10.3155 6.00001 10.0442 6.00001 9.51792V7.52948C3.88498 7.78283 2.65367 9.60104 2.16602 10.5174C2.00254 10.8245 1.67816 10.8677 1.47889 10.8201C1.27838 10.7722 0.997402 10.5795 1.00669 10.2169C1.05824 8.20549 1.41321 6.46695 2.28333 5.22119C3.09942 4.0528 4.32619 3.37654 6.00001 3.26604V1.24134Z" fill="currentColor"/>
</svg>
