<svg fill="none" height="27" viewBox="0 0 118 27" width="118" xmlns="http://www.w3.org/2000/svg"><g fill="#29cd97"><path d="m93 13.0067c0-.678 0-1.3157-.0208-1.9046-.0141-.5556-.0662-1.10938-.1558-1.65706-.0837-.5001-.2316-.98579-.4396-1.44367-.2195-.4721-.5129-.90164-.8677-1.27054-.5033-.54488-1.1022-.98098-1.7632-1.28394-.7151-.3061-1.481-.45784-2.2525-.44628-.7743-.01057-1.543.14111-2.2616.44628-.6649.29882-1.2675.73303-1.7736 1.27785-.3542.36867-.6464.79831-.8643 1.27053-.2062.45798-.3518.94376-.4327 1.44368-.0876.54783-.1377 1.10165-.15 1.65705-.0139.5889-.0208 1.2266-.0173 1.9046.0034.6779 0 1.3108.0173 1.9033.0123.5555.0624 1.1093.15 1.6571.0809.4999.2265.9857.4327 1.4437.2187.4717.5109.9012.8643 1.2705.5053.5453 1.1082.9788 1.7736 1.2754.7181.3072 1.487.4597 2.2616.4487.7718.0121 1.5379-.1406 2.2525-.4487.6611-.2989 1.2602-.7323 1.7632-1.2754.354-.3696.6473-.799.8677-1.2705.208-.4579.3559-.9436.4396-1.4437.0886-.5461.1399-1.0983.1535-1.6522.0173-.5926.0254-1.2266.0208-1.9033zm-2.9079 0c0 .7511-.0104 1.3766-.0346 1.8741-.0136.4086-.0521.8159-.1154 1.2193-.0432.2688-.1209.5301-.2308.7767-.0892.1988-.2058.3825-.3461.5451-.2166.262-.4854.4702-.787.6096-.3394.1535-.7051.2315-1.0743.2293-.371.0017-.7385-.0763-1.0801-.2293-.309-.1368-.585-.3452-.8077-.6096-.1412-.1619-.258-.3457-.3462-.5451-.1068-.2469-.1806-.5083-.2192-.7767-.0616-.4036-.1002-.8108-.1154-1.2193-.0208-.4975-.0312-1.1222-.0312-1.8741 0-.7511.0104-1.3779.0312-1.8753.0153-.4086.0538-.8157.1154-1.21936.0386-.26839.1124-.5298.2192-.7767.0885-.19922.2052-.38302.3462-.54504.223-.2641.499-.47237.8077-.60966.3411-.15471.7089-.23277 1.0801-.22923.3694-.00406.7354.07404 1.0743.22923.3014.13987.5701.348.787.60966.14.16276.2567.34641.3461.54504.1099.24665.1876.50794.2308.7767.0632.40346.1017.81066.1154 1.21936.0254.4962.0346 1.123.0346 1.8753z"/><g clip-rule="evenodd" fill-rule="evenodd"><path d="m118 5.27404c-.001-.15078-.131-.27269-.291-.27404h-2.736c-.16.00068-.29.12298-.29.27404v9.52336l-6.672-9.72052c-.045-.06572-.084-.07688-.183-.07688h-2.537c-.16.002-.289.12353-.291.27404v15.45316c.002.1503.131.2715.291.2728h2.734c.16-.0007.289-.1224.29-.2728v-9.5482l6.673 9.7429c.046.0657.083.0769.183.0769h2.536c.159-.0007.289-.1223.29-.2728z"/><path d="m101 5.27404c-.001-.15106-.118-.27336-.263-.27404h-2.4738c-.1451.00068-.2625.12298-.2632.27404v15.45196c.0007.151.1181.2733.2632.274h2.4738c.145-.0007.262-.123.263-.274z"/><path d="m69.9185 13c0-.7561.0081-1.3854.029-1.8867.0142-.4087.0529-.816.1159-1.21958.2226-1.35374 1.2078-2.15257 2.4653-2.15257.8207.00732 1.5648.32685 2.04 1.05372.2152.33935.3721.71582.4636 1.11227.0071.04176.0433.07089.0835.06707h2.8339c.0405 0 .0556-.02927.0487-.07073-.3095-1.84524-1.2449-3.50266-2.8977-4.32344-.8123-.39574-1.6989-.59375-2.594-.5793-1.5956 0-2.9398.57483-4.0324 1.72449-.6238.63971-1.0496 1.46263-1.2216 2.36112-.1669.88461-.2511 2.18875-.2527 3.91245-.0015 1.7237.0827 3.0274.2527 3.9112.1706.8997.5952 1.7242 1.2182 2.366 1.0918 1.1489 2.4359 1.7233 4.0323 1.7233.8949.0142 1.7814-.1833 2.594-.5781 1.6528-.8208 2.5882-2.4782 2.8977-4.3234.0069-.0427-.0081-.0708-.0487-.0708h-2.8351c-.0403-.0044-.0769.025-.0834.0671-.0917.396-.2486.772-.4636 1.111-.4753.7318-1.2194 1.0477-2.04 1.0538-1.2576 0-2.2428-.7976-2.4653-2.1514-.063-.4035-.1017-.8109-.1159-1.2196-.0163-.5037-.0244-1.1342-.0244-1.8879z"/><path d="m37.1584 5.27404c-.0007-.15107-.1243-.27336-.2771-.27404h-2.6042c-.1528.00068-.2764.12297-.2771.27404v15.45306c.0014.1505.1248.2721.2771.2729h2.6042c.1523-.0008.2757-.1224.2771-.2729v-4.536l2.0902-2.4713 4.2931 7.1982c.033.0531.0925.0844.1555.082h3.1646c.1455 0 .1718-.0894.0991-.2122l-5.6209-9.4241 5.157-6.11818c.104-.124.0602-.2418-.1028-.2418h-3.4594c-.0421-.00245-.0826.01619-.1078.0496l-5.6686 6.72338z"/><path d="m56.5 18.237c-1.3541 0-2.582-1.3305-2.582-2.9191v-10.04615c-.0007-.1498-.1149-.27108-.256-.27175h-2.406c-.1411.00067-.2554.12195-.256.27175v10.00675c0 3.4983 2.465 5.7215 5.5 5.7215s5.5-2.2232 5.5-5.7215v-10.00675c-.0013-.14953-.1151-.27041-.256-.27175h-2.4071c-.1407.00134-.2542.12242-.2549.27175v10.04615c0 1.5874-1.229 2.9191-2.582 2.9191z"/><path d="m7.90326 13.5027 8.10954 7.9981 5.1187-5.0476c.9153-.8127 2.3156-.7766 3.1866.0822.8709.8589.9075 2.2397.0834 3.1423l-6.755 6.6623c-.9074.88-2.3626.88-3.27 0l-9.74573-9.6127v5.7136c0 1.2609-1.03663 2.2832-2.31538 2.2832-1.27876 0-2.31539-1.0223-2.31539-2.2832v-17.88373c0-1.26098 1.03663-2.28321 2.31539-2.28321 1.27875 0 2.31538 1.02223 2.31538 2.28321v5.71363l9.74453-9.610341c.907-.880612 2.3629-.880612 3.2699 0l6.7601 6.661111c.8241.90258.7875 2.28344-.0835 3.14223-.8709.8588-2.2712.895-3.1865.0823l-5.1188-5.04762zm8.11324-2.2857c-.9376-.0005-1.7832.5561-2.1423 1.4102-.3592.854-.1612 1.8374.5016 2.4913.6629.654 1.6599.8498 2.5262.496.8663-.3537 1.4312-1.1872 1.4312-2.1118.0003-.6062-.2436-1.1877-.678-1.6166-.4345-.4288-1.0239-.67-1.6387-.6703z"/></g></g></svg>