<svg width="181" height="181" viewBox="0 0 181 181" fill="none" xmlns="http://www.w3.org/2000/svg">
<g clip-path="url(#clip0_4064_105471)">
<path d="M92.214 40.4415C95.5829 39.8213 100.046 41.3902 102.187 43.9685L155.628 108.233C157.768 110.812 156.771 113.402 153.402 114.023L69.3126 129.651C65.9559 130.271 61.4924 128.702 59.3518 126.124L5.89912 61.8591C3.75858 59.2807 4.75588 56.6902 8.1248 56.0699L92.214 40.4415Z" fill="white" stroke="black" stroke-width="0.35" stroke-linecap="round" stroke-linejoin="round"/>
<path d="M65.2756 125.09C64.1323 124.689 63.135 124.057 62.5999 123.412L12.6985 63.3917C11.458 61.8958 12.285 59.6093 14.1945 59.2566L92.9931 44.6133C93.881 44.4552 95.0972 44.6012 96.2526 45.0025C97.408 45.4039 98.3931 46.0241 98.9283 46.6809L148.83 106.701C150.07 108.197 149.243 110.484 147.334 110.836L68.535 125.48C67.6593 125.638 66.4431 125.492 65.2877 125.09H65.2756Z" fill="black"/>
<path d="M13.4524 61.3362L92.2511 46.6929C93.1389 46.5348 94.3552 46.6808 95.5106 47.0821C96.666 47.4835 97.6511 48.1037 98.1862 48.7605L148.088 108.781C148.428 109.194 148.598 109.656 148.647 110.131C149.523 109.255 149.705 107.783 148.817 106.701L98.916 46.6808C98.3808 46.0362 97.3835 45.4159 96.2403 45.0024C95.097 44.5889 93.8687 44.4429 92.9808 44.6132L14.1822 59.2564C12.7957 59.5118 11.993 60.7889 12.1268 62.0416C12.4673 61.701 12.9173 61.4335 13.4524 61.3362Z" fill="white" stroke="black" stroke-width="0.35" stroke-linecap="round" stroke-linejoin="round"/>
<path d="M152.539 123.655C152.575 123.595 152.6 123.522 152.624 123.449C152.648 123.388 152.685 123.327 152.709 123.266C152.709 123.266 152.709 123.266 152.709 123.254L156.589 111.773C156.564 111.846 156.528 111.907 156.504 111.98C156.479 112.041 156.455 112.114 156.418 112.174C156.382 112.247 156.333 112.308 156.285 112.381C156.248 112.442 156.212 112.491 156.175 112.551C156.139 112.6 156.09 112.637 156.054 112.685C155.993 112.758 155.932 112.831 155.859 112.892C155.823 112.928 155.786 112.953 155.75 112.977C155.652 113.062 155.567 113.135 155.458 113.208C155.421 113.233 155.373 113.257 155.336 113.281C155.202 113.366 155.068 113.439 154.923 113.512C154.85 113.549 154.764 113.585 154.691 113.622C154.618 113.658 154.533 113.695 154.448 113.719C154.351 113.755 154.254 113.792 154.156 113.816C154.071 113.841 153.986 113.877 153.889 113.901C153.718 113.95 153.548 113.987 153.366 114.023L69.2766 129.651C69.0333 129.7 68.7901 129.724 68.5347 129.749C68.4617 129.749 68.3766 129.749 68.3036 129.761C68.1212 129.761 67.9509 129.773 67.7685 129.785C67.6955 129.785 67.6225 129.785 67.5495 129.785C67.1482 129.785 66.7468 129.749 66.3455 129.688C66.2725 129.688 66.1995 129.664 66.1387 129.664C65.9077 129.627 65.6766 129.591 65.4576 129.542C65.3968 129.53 65.336 129.518 65.2874 129.505C65.032 129.445 64.7887 129.384 64.5333 129.311C64.4968 129.311 64.4604 129.287 64.4239 129.274C64.2293 129.214 64.0347 129.153 63.8401 129.08C63.7428 129.043 63.6455 129.007 63.5482 128.97C63.4144 128.922 63.2928 128.873 63.159 128.824C63.0617 128.788 62.9644 128.739 62.8671 128.691C62.7455 128.63 62.6239 128.581 62.5022 128.52C62.4171 128.472 62.332 128.435 62.2468 128.387C62.1131 128.314 61.9914 128.253 61.8577 128.18C61.7847 128.131 61.7117 128.095 61.6387 128.046C61.4928 127.961 61.3468 127.864 61.2131 127.778C61.1401 127.73 61.0793 127.681 61.0063 127.633C60.8239 127.499 60.6414 127.365 60.459 127.219C60.4104 127.17 60.3495 127.134 60.3009 127.097C60.1793 127 60.0698 126.891 59.9604 126.781C59.8995 126.733 59.8509 126.684 59.7901 126.623C59.632 126.465 59.4739 126.295 59.3401 126.124L5.89954 61.8595C4.86576 60.6068 4.5617 59.3663 4.91441 58.3325L1.02251 69.8136C0.669812 70.8474 0.973866 72.0879 2.00765 73.3406L55.4482 137.605C55.5941 137.776 55.7401 137.946 55.8982 138.104C55.9468 138.153 56.0076 138.214 56.0685 138.262C56.1779 138.372 56.2874 138.469 56.409 138.578C56.4212 138.591 56.4455 138.603 56.4576 138.627C56.4941 138.651 56.5306 138.676 56.5671 138.712C56.7374 138.858 56.9198 138.992 57.1144 139.126C57.1509 139.15 57.1874 139.187 57.2239 139.211C57.2603 139.235 57.2847 139.247 57.3212 139.272C57.4671 139.369 57.6009 139.454 57.7468 139.539C57.8076 139.576 57.8563 139.612 57.9049 139.637C57.9293 139.637 57.9414 139.661 57.9658 139.673C58.0874 139.746 58.2212 139.807 58.3549 139.88C58.4279 139.916 58.5009 139.965 58.5739 140.001C58.586 140.001 58.5982 140.014 58.6225 140.026C58.7441 140.087 58.8658 140.135 58.9874 140.196C59.0725 140.233 59.1576 140.281 59.2428 140.318C59.2428 140.318 59.2671 140.318 59.2793 140.33C59.4009 140.378 59.5347 140.427 59.6685 140.476C59.7536 140.512 59.8387 140.549 59.9239 140.573C59.9239 140.573 59.936 140.573 59.9482 140.573C60.1428 140.646 60.3374 140.707 60.532 140.768C60.5685 140.768 60.6049 140.792 60.6414 140.804C60.8847 140.877 61.1401 140.938 61.3955 140.999C61.4076 140.999 61.4198 140.999 61.4441 140.999C61.4928 140.999 61.5293 141.011 61.5779 141.023C61.809 141.072 62.0401 141.108 62.259 141.145C62.2955 141.145 62.3441 141.157 62.3806 141.169C62.4049 141.169 62.4414 141.169 62.4658 141.169C62.8671 141.218 63.2806 141.254 63.6698 141.266C63.6941 141.266 63.7306 141.266 63.7549 141.266C63.8036 141.266 63.8401 141.266 63.8887 141.266C64.0712 141.266 64.2536 141.266 64.4239 141.242C64.4968 141.242 64.582 141.242 64.6549 141.23C64.9104 141.205 65.1536 141.181 65.3968 141.133L149.486 125.504C149.632 125.48 149.766 125.443 149.9 125.419C149.936 125.419 149.973 125.395 150.009 125.383C150.106 125.358 150.191 125.334 150.277 125.297C150.374 125.261 150.471 125.237 150.568 125.2C150.654 125.164 150.727 125.139 150.812 125.103C150.86 125.078 150.921 125.066 150.97 125.042C150.994 125.03 151.018 125.005 151.055 124.993C151.201 124.92 151.335 124.835 151.468 124.762C151.505 124.738 151.541 124.726 151.566 124.701C151.566 124.701 151.578 124.689 151.59 124.677C151.7 124.604 151.785 124.519 151.882 124.446C151.918 124.422 151.955 124.397 151.979 124.373C152.052 124.3 152.113 124.239 152.174 124.166C152.21 124.118 152.259 124.081 152.295 124.033C152.332 123.984 152.368 123.923 152.405 123.862C152.454 123.801 152.502 123.728 152.539 123.668V123.655Z" fill="white" stroke="black" stroke-width="0.35" stroke-linecap="round" stroke-linejoin="round"/>
<path opacity="0.3" d="M3.01666 64.1821C2.66395 65.2159 2.96801 66.4565 4.00179 67.7092L57.4423 131.974C57.5883 132.144 57.7342 132.315 57.8923 132.473C57.941 132.521 58.0018 132.582 58.0626 132.631C58.1721 132.74 58.2815 132.838 58.4031 132.947C58.4153 132.959 58.4396 132.971 58.4518 132.996C58.4883 133.02 58.5248 133.044 58.5612 133.081C58.7315 133.227 58.914 133.361 59.1085 133.494C59.145 133.519 59.1815 133.555 59.218 133.579C59.2545 133.604 59.2788 133.616 59.3153 133.64C59.4613 133.738 59.595 133.823 59.741 133.908C59.8018 133.944 59.8504 133.981 59.8991 134.005C59.9234 134.005 59.9356 134.029 59.9599 134.042C60.0815 134.115 60.2153 134.175 60.3491 134.248C60.4221 134.285 60.495 134.333 60.568 134.37C60.5802 134.37 60.5923 134.382 60.6167 134.394C60.7383 134.455 60.8599 134.504 60.9815 134.565C61.0667 134.601 61.1518 134.65 61.2369 134.686C61.2369 134.686 61.2613 134.686 61.2734 134.698C61.395 134.747 61.5288 134.796 61.6626 134.844C61.7477 134.881 61.8329 134.917 61.918 134.942C61.918 134.942 61.9302 134.942 61.9423 134.942C62.1369 135.015 62.3315 135.075 62.5261 135.136C62.5626 135.136 62.5991 135.161 62.6356 135.173C62.8788 135.246 63.1342 135.306 63.3896 135.367C63.4018 135.367 63.414 135.367 63.4383 135.367C63.4869 135.367 63.5234 135.379 63.5721 135.392C63.8031 135.44 64.0342 135.477 64.2531 135.513C64.2896 135.513 64.3383 135.525 64.3748 135.538C64.3991 135.538 64.4356 135.538 64.4599 135.538C64.8613 135.586 65.2748 135.623 65.664 135.635C65.6883 135.635 65.7248 135.635 65.7491 135.635C65.7977 135.635 65.8342 135.635 65.8829 135.635C66.0653 135.635 66.2477 135.635 66.418 135.611C66.491 135.611 66.5761 135.611 66.6491 135.598C66.9045 135.574 67.1477 135.55 67.391 135.501L151.48 119.873C151.626 119.848 151.76 119.812 151.894 119.788C151.93 119.788 151.967 119.763 152.003 119.751C152.1 119.727 152.186 119.702 152.271 119.666C152.368 119.629 152.465 119.605 152.563 119.569C152.648 119.532 152.721 119.508 152.806 119.471C152.854 119.447 152.915 119.435 152.964 119.411C152.988 119.398 153.013 119.374 153.049 119.362C153.195 119.289 153.329 119.204 153.463 119.131C153.499 119.106 153.536 119.094 153.56 119.07C153.56 119.07 153.572 119.058 153.584 119.046C153.694 118.973 153.779 118.888 153.876 118.815C153.913 118.79 153.949 118.766 153.973 118.742C154.046 118.669 154.107 118.608 154.168 118.535C154.204 118.486 154.253 118.45 154.29 118.401C154.326 118.352 154.363 118.292 154.399 118.231C154.448 118.17 154.496 118.097 154.533 118.036C154.569 117.975 154.594 117.902 154.618 117.829C154.642 117.769 154.679 117.708 154.703 117.647C154.703 117.647 154.703 117.647 154.703 117.635" stroke="black" stroke-width="0.35" stroke-linecap="round" stroke-linejoin="round"/>
<g opacity="0.9">
<path d="M87.9702 51.6188C91.3391 50.9985 95.7905 52.5674 97.931 55.1458L114.386 74.9336C116.527 77.512 115.542 80.1025 112.173 80.7228L86.2796 85.539C82.9107 86.1593 78.4472 84.5904 76.3067 82.012L59.8513 62.2242C57.7107 59.6458 58.708 57.0553 62.0769 56.435L87.9702 51.6188Z" fill="white" stroke="black" stroke-width="0.35" stroke-linecap="round" stroke-linejoin="round"/>
<path d="M113.839 82.8999C113.875 82.8391 113.9 82.7661 113.924 82.6932C113.948 82.6324 113.985 82.5715 114.009 82.5107C114.009 82.5107 114.009 82.5107 114.009 82.4986L115.371 78.4851C115.347 78.558 115.311 78.6188 115.286 78.6918C115.262 78.7648 115.225 78.8256 115.201 78.8986C115.165 78.9715 115.116 79.0324 115.067 79.0932C115.031 79.154 114.994 79.2026 114.958 79.2634C114.921 79.3121 114.873 79.3486 114.836 79.3972C114.775 79.4702 114.715 79.5432 114.642 79.604C114.605 79.6405 114.569 79.6648 114.532 79.6891C114.435 79.7742 114.35 79.8472 114.24 79.9202C114.204 79.9445 114.155 79.9688 114.119 79.9932C113.985 80.0783 113.851 80.1513 113.705 80.2242C113.632 80.2607 113.547 80.2972 113.474 80.3337C113.401 80.3702 113.316 80.4067 113.231 80.431C113.134 80.4675 113.036 80.504 112.939 80.5283C112.854 80.5526 112.769 80.5769 112.671 80.6013C112.501 80.6499 112.331 80.6864 112.161 80.7229L86.2674 85.5391C86.0241 85.5878 85.7809 85.6121 85.5255 85.6364C85.4525 85.6364 85.3674 85.6364 85.2822 85.6486C85.0998 85.6486 84.9295 85.6607 84.7471 85.6729C84.6741 85.6729 84.6012 85.6729 84.5282 85.6729C84.1268 85.6729 83.7255 85.6364 83.3241 85.5756C83.2512 85.5756 83.1782 85.5513 83.1052 85.5513C82.8741 85.5148 82.6431 85.4783 82.4241 85.4297C82.3633 85.4175 82.3025 85.4053 82.2539 85.3932C81.9985 85.3324 81.7552 85.2715 81.4998 85.1986C81.4633 85.1986 81.439 85.1742 81.4025 85.1621C81.1958 85.1013 80.989 85.0405 80.7944 84.9675C80.6971 84.931 80.5998 84.8945 80.5025 84.858C80.3687 84.8094 80.2471 84.7607 80.1133 84.6999C80.016 84.6634 79.9187 84.6148 79.8214 84.5661C79.6998 84.5053 79.5782 84.4567 79.4566 84.3959C79.3714 84.3472 79.2863 84.3107 79.2012 84.2621C79.0674 84.1891 78.9336 84.1283 78.812 84.0553C78.739 84.0188 78.666 83.9702 78.5931 83.9215C78.4471 83.8364 78.3012 83.7391 78.1552 83.654C78.0822 83.6053 78.0214 83.5567 77.9485 83.508C77.766 83.3742 77.5836 83.2405 77.4012 83.0945C77.3525 83.0459 77.2917 83.0094 77.2431 82.9729C77.1214 82.8756 77.012 82.7661 76.9025 82.6567C76.8417 82.608 76.7931 82.5594 76.7323 82.4986C76.5741 82.3405 76.416 82.1702 76.2823 81.9999L59.8268 62.2121C58.7931 60.9715 58.489 59.7188 58.8417 58.6851L57.4795 62.6986C57.1268 63.7324 57.4309 64.9729 58.4647 66.2256L74.9201 86.0134C75.066 86.1837 75.212 86.354 75.3701 86.5121C75.4187 86.5607 75.4795 86.6215 75.5404 86.6702C75.6498 86.7797 75.7593 86.8769 75.8809 86.9864C75.8931 86.9986 75.9174 87.0107 75.9295 87.0351C75.966 87.0594 76.0025 87.0837 76.039 87.1202C76.2093 87.2661 76.3917 87.3999 76.5863 87.5337C76.6228 87.558 76.6593 87.5945 76.6958 87.6188C76.7323 87.6432 76.7566 87.6553 76.7931 87.6796C76.939 87.7769 77.085 87.8621 77.2309 87.9472C77.2795 87.9837 77.3404 88.0202 77.389 88.0445C77.4133 88.0445 77.4255 88.0688 77.4498 88.081C77.5714 88.154 77.7052 88.2269 77.839 88.2878C77.912 88.3242 77.985 88.3607 78.0579 88.3972C78.0701 88.3972 78.0822 88.4094 78.0944 88.4215C78.216 88.4824 78.3377 88.531 78.4593 88.5918C78.5444 88.6283 78.6295 88.677 78.7147 88.7134C78.7147 88.7134 78.739 88.7134 78.7512 88.7256C78.8728 88.7742 79.0066 88.8229 79.1404 88.8715C79.2255 88.908 79.3228 88.9445 79.4079 88.981C79.4079 88.981 79.4201 88.981 79.4323 88.981C79.6268 89.054 79.8336 89.1148 80.0404 89.1756C80.0768 89.1756 80.1012 89.1999 80.1377 89.2121C80.3809 89.2851 80.6363 89.3459 80.8917 89.4067C80.9039 89.4067 80.916 89.4067 80.9404 89.4067C80.989 89.4067 81.0255 89.4188 81.0741 89.431C81.3052 89.4797 81.5241 89.5161 81.7552 89.5526C81.8039 89.5526 81.8404 89.5648 81.889 89.577C81.9133 89.577 81.9498 89.577 81.9741 89.577C82.3755 89.6256 82.789 89.6621 83.1782 89.6742C83.2025 89.6742 83.239 89.6742 83.2633 89.6742C83.312 89.6742 83.3485 89.6742 83.3971 89.6742C83.5795 89.6742 83.762 89.6742 83.9322 89.6499C84.0174 89.6499 84.0904 89.6499 84.1755 89.6378C84.4309 89.6134 84.6741 89.5891 84.9174 89.5405L110.811 84.7242C110.957 84.6999 111.09 84.6634 111.224 84.6391C111.261 84.6391 111.297 84.6148 111.334 84.6026C111.419 84.5783 111.516 84.554 111.601 84.5297C111.698 84.4932 111.796 84.4688 111.893 84.4324C111.978 84.3959 112.051 84.3715 112.136 84.3351C112.185 84.3107 112.246 84.2986 112.294 84.2742C112.319 84.2621 112.343 84.2378 112.38 84.2256C112.525 84.1526 112.659 84.0797 112.793 83.9945C112.83 83.9702 112.866 83.958 112.89 83.9337C112.89 83.9337 112.903 83.9215 112.915 83.9094C113.024 83.8364 113.109 83.7513 113.207 83.6783C113.243 83.654 113.28 83.6297 113.304 83.6053C113.377 83.5324 113.438 83.4715 113.498 83.3986C113.535 83.3499 113.584 83.3134 113.62 83.277C113.657 83.2283 113.693 83.1675 113.73 83.1067C113.766 83.0459 113.815 82.9851 113.851 82.9121L113.839 82.8999Z" fill="white" stroke="black" stroke-width="0.35" stroke-linecap="round" stroke-linejoin="round"/>
<g opacity="0.5">
<path d="M73.789 61.6037C73.789 61.6037 73.8742 61.5916 73.9106 61.5916C74.312 61.5551 74.8228 61.6524 75.4431 61.8713L76.6228 62.2848C77.2066 62.4916 77.9242 62.747 78.7877 63.0388C79.6512 63.3307 80.612 63.6713 81.6823 64.0361C82.7647 64.401 83.8715 64.7902 85.039 65.1916C85.2579 64.6321 85.4647 64.0848 85.6836 63.5497C85.8904 63.0145 86.085 62.5159 86.2674 62.0415C86.4498 61.5794 86.6201 61.1537 86.7661 60.7888C86.912 60.4118 87.0336 60.1078 87.1309 59.8524C87.2769 59.5118 87.5323 59.2443 87.8971 59.0861C87.9944 59.0375 88.1039 59.001 88.2255 58.9888C88.5417 58.928 88.9066 58.9645 89.3444 59.0861C89.3688 59.0861 89.4417 59.1105 89.5755 59.147C89.7093 59.1834 89.8309 59.2199 89.9647 59.2564C90.0985 59.3051 90.2323 59.3416 90.3539 59.378C90.4755 59.4145 90.5606 59.4388 90.5971 59.451C91.2782 59.6821 91.7647 59.9861 92.0566 60.351C92.3485 60.7159 92.4215 61.0929 92.2755 61.4821C92.1782 61.7497 92.0444 62.078 91.8985 62.4794C91.7525 62.8807 91.5823 63.3186 91.3998 63.7929C91.2052 64.2672 91.0107 64.778 90.8161 65.301L90.1715 66.9915C91.108 67.3078 92.0201 67.624 92.9201 67.9402C93.8079 68.2443 94.6471 68.5361 95.4255 68.8037C96.1917 69.0713 96.8971 69.3267 97.5296 69.5456C98.162 69.7767 98.685 69.9591 99.0863 70.1051C99.8404 70.3848 100.436 70.6402 100.898 70.9078C101.361 71.1632 101.604 71.5159 101.64 71.9415C101.64 72.0267 101.628 72.124 101.604 72.2456C101.58 72.3672 101.543 72.4888 101.507 72.6105C101.47 72.7321 101.421 72.8415 101.373 72.9388C101.312 73.0361 101.263 73.1091 101.215 73.1578C101.044 73.328 100.801 73.4497 100.473 73.5105C100.315 73.5348 100.144 73.5591 99.9498 73.5591C99.3417 73.5713 98.7093 73.4618 98.0161 73.2186L96.4106 72.647L94.2701 71.8929L91.7404 71.0051L88.9796 70.0321L87.885 72.878C87.5444 73.7537 87.289 74.4713 87.0823 75.0307C86.8634 75.5902 86.5106 75.9794 86.012 76.1983C85.8782 76.2591 85.7444 76.2956 85.6107 76.3199C85.1971 76.3929 84.735 76.3564 84.1998 76.1861L83.9323 76.0888L83.5066 75.9429L83.0931 75.797C82.935 75.7483 82.8498 75.7118 82.8134 75.6875C82.5093 75.5537 82.2539 75.3956 82.0836 75.2375C81.9134 75.0672 81.7917 74.897 81.7188 74.7145C81.6579 74.5321 81.6215 74.3497 81.6336 74.1672C81.6458 73.9848 81.6823 73.8145 81.7431 73.6564C81.8039 73.5348 81.9012 73.3159 82.0471 72.9875L82.485 71.747C82.6796 71.2726 82.8863 70.7375 83.1296 70.1415C83.3607 69.5456 83.6039 68.9253 83.8593 68.2686C82.6309 67.8429 81.4755 67.4294 80.3688 67.0402C79.262 66.651 78.2769 66.3105 77.4012 66.0064C76.5255 65.7024 75.8079 65.447 75.2607 65.2645C74.7012 65.0699 74.3606 64.9483 74.2269 64.9118C73.5579 64.6807 73.0958 64.4132 72.8404 64.1091C72.5728 63.8051 72.4633 63.4767 72.4877 63.1118C72.512 62.9659 72.5728 62.7956 72.6701 62.5888C72.7674 62.3821 72.8525 62.2483 72.9012 62.1875C73.1444 61.8956 73.4242 61.7253 73.7769 61.6524L73.789 61.6037Z" fill="white" stroke="black" stroke-width="0.35" stroke-linecap="round" stroke-linejoin="round"/>
</g>
</g>
<path d="M48.6987 53.3092C52.0676 52.6889 56.519 54.2578 58.6595 56.8362L75.1149 76.6241C77.2555 79.2024 76.2703 81.793 72.9014 82.4133L47.0082 87.2295C43.6392 87.8497 39.1757 86.2808 37.0352 83.7024L20.5798 63.9146C18.4392 61.3362 19.4365 58.7457 22.8055 58.1254L48.6987 53.3092Z" fill="white" stroke="black" stroke-width="0.35" stroke-linecap="round" stroke-linejoin="round"/>
<path d="M74.5675 84.5781C74.604 84.5173 74.6283 84.4444 74.6527 84.3714C74.677 84.3106 74.7135 84.2498 74.7378 84.189C74.7378 84.189 74.7378 84.189 74.7378 84.1768L76.1 80.1633C76.0756 80.2363 76.0391 80.2971 76.0148 80.37C75.9905 80.443 75.954 80.5038 75.9297 80.5768C75.8932 80.6498 75.8445 80.7106 75.7959 80.7714C75.7594 80.8322 75.7229 80.8808 75.6864 80.9417C75.65 80.9903 75.6013 81.0268 75.5648 81.0754C75.504 81.1484 75.4432 81.2214 75.3702 81.2822C75.3337 81.3187 75.2972 81.343 75.2608 81.3673C75.1635 81.4525 75.0783 81.5254 74.9689 81.5984C74.9324 81.6227 74.8837 81.6471 74.8473 81.6714C74.7135 81.7565 74.5797 81.8295 74.4337 81.9025C74.3608 81.939 74.2756 81.9754 74.2027 82.0119C74.1297 82.0484 74.0445 82.0849 73.9594 82.1092C73.8621 82.1457 73.7648 82.1822 73.6675 82.2065C73.5824 82.2308 73.4972 82.2552 73.3999 82.2795C73.2297 82.3282 73.0594 82.3646 72.8891 82.4011L46.9959 87.2173C46.7527 87.266 46.5094 87.2903 46.254 87.3146C46.181 87.3146 46.0959 87.3146 46.0108 87.3268C45.8283 87.3268 45.6581 87.339 45.4756 87.3511C45.4027 87.3511 45.3297 87.3511 45.2567 87.3511C44.8554 87.3511 44.454 87.3146 44.0527 87.2538C43.9797 87.2538 43.9067 87.2295 43.8337 87.2295C43.6027 87.193 43.3716 87.1565 43.1527 87.1079C43.0918 87.0957 43.031 87.0835 42.9824 87.0714C42.727 87.0106 42.4837 86.9498 42.2283 86.8768C42.1918 86.8768 42.1675 86.8525 42.131 86.8403C41.9243 86.7795 41.7175 86.7187 41.5229 86.6457C41.4256 86.6092 41.3283 86.5727 41.231 86.5363C41.0972 86.4876 40.9756 86.439 40.8418 86.3781C40.7445 86.3417 40.6473 86.293 40.55 86.2444C40.4283 86.1835 40.3067 86.1349 40.1851 86.0741C40.1 86.0254 40.0148 85.989 39.9297 85.9403C39.7959 85.8673 39.6621 85.8065 39.5405 85.7336C39.4675 85.6971 39.3945 85.6484 39.3216 85.5998C39.1756 85.5146 39.0297 85.4173 38.8837 85.3322C38.8108 85.2836 38.75 85.2349 38.677 85.1863C38.4945 85.0525 38.3121 84.9187 38.1297 84.7727C38.081 84.7241 38.0202 84.6876 37.9716 84.6511C37.85 84.5538 37.7405 84.4444 37.631 84.3349C37.5702 84.2863 37.5216 84.2376 37.4608 84.1768C37.3027 84.0187 37.1445 83.8484 37.0108 83.6781L20.5554 63.8903C19.5216 62.6498 19.2175 61.3971 19.5702 60.3633L18.2081 64.3768C17.8554 65.4106 18.1594 66.6511 19.1932 67.9038L35.6486 87.6917C35.7945 87.8619 35.9405 88.0322 36.0986 88.1903C36.1473 88.239 36.2081 88.2998 36.2689 88.3484C36.3783 88.4579 36.4878 88.5552 36.6094 88.6646C36.6216 88.6768 36.6459 88.689 36.6581 88.7133C36.6945 88.7376 36.731 88.7619 36.7675 88.7984C36.9378 88.9444 37.1202 89.0781 37.3148 89.2119C37.3513 89.2363 37.3878 89.2727 37.4243 89.2971C37.4608 89.3214 37.4851 89.3336 37.5216 89.3579C37.6675 89.4552 37.8135 89.5403 37.9594 89.6255C38.0081 89.6619 38.0689 89.6984 38.1175 89.7227C38.1418 89.7227 38.154 89.7471 38.1783 89.7592C38.3 89.8322 38.4337 89.9052 38.5675 89.966C38.6405 90.0025 38.7135 90.039 38.7864 90.0754C38.7986 90.0754 38.8108 90.0876 38.8229 90.0998C38.9445 90.1606 39.0662 90.2092 39.1878 90.27C39.2729 90.3065 39.3581 90.3552 39.4432 90.3917C39.4432 90.3917 39.4675 90.3917 39.4797 90.4038C39.6013 90.4525 39.7351 90.5011 39.8689 90.5498C39.954 90.5863 40.0513 90.6227 40.1364 90.6592C40.1364 90.6592 40.1486 90.6592 40.1608 90.6592C40.3554 90.7322 40.5621 90.793 40.7689 90.8538C40.8054 90.8538 40.8297 90.8781 40.8662 90.8903C41.1094 90.9633 41.3648 91.0241 41.6202 91.0849C41.6324 91.0849 41.6445 91.0849 41.6689 91.0849C41.7175 91.0849 41.754 91.0971 41.8027 91.1092C42.0337 91.1579 42.2527 91.1944 42.4837 91.2309C42.5324 91.2309 42.5689 91.243 42.6175 91.2552C42.6418 91.2552 42.6783 91.2552 42.7027 91.2552C43.104 91.3038 43.5175 91.3403 43.9067 91.3525C43.931 91.3525 43.9675 91.3525 43.9918 91.3525C44.0405 91.3525 44.077 91.3525 44.1256 91.3525C44.3081 91.3525 44.4905 91.3525 44.6608 91.3281C44.7459 91.3281 44.8189 91.3282 44.904 91.316C45.1594 91.2917 45.4027 91.2673 45.6459 91.2187L71.5391 86.4025C71.6851 86.3782 71.8189 86.3417 71.9527 86.3173C71.9891 86.3173 72.0256 86.293 72.0621 86.2809C72.1472 86.2565 72.2445 86.2322 72.3297 86.2079C72.427 86.1714 72.5243 86.1471 72.6216 86.1106C72.7067 86.0741 72.7797 86.0498 72.8648 86.0133C72.9135 85.989 72.9743 85.9768 73.0229 85.9525C73.0472 85.9403 73.0716 85.916 73.1081 85.9038C73.254 85.8308 73.3878 85.7579 73.5216 85.6727C73.5581 85.6484 73.5945 85.6363 73.6189 85.6119C73.6189 85.6119 73.631 85.5998 73.6432 85.5876C73.7527 85.5146 73.8378 85.4295 73.9351 85.3565C73.9716 85.3322 74.0081 85.3079 74.0324 85.2835C74.1054 85.2106 74.1662 85.1498 74.227 85.0768C74.2635 85.0281 74.3121 84.9917 74.3486 84.9552C74.3851 84.9065 74.4216 84.8457 74.4581 84.7849C74.4945 84.7241 74.5432 84.6633 74.5797 84.5903L74.5675 84.5781Z" fill="white" stroke="black" stroke-width="0.35" stroke-linecap="round" stroke-linejoin="round"/>
<path d="M51.3261 61.2145C51.6301 61.1537 52.0193 61.1902 52.3964 61.324L55.1693 62.297C55.9355 62.5767 56.422 63.1483 56.2518 63.5983L50.6815 78.1199C50.5964 78.3389 50.3653 78.497 50.0612 78.5456C49.7572 78.5943 49.368 78.5699 48.991 78.4362L35.1018 73.5226C34.3355 73.2551 33.8491 72.6713 34.0193 72.2213L34.6396 70.6159C34.7247 70.397 34.9558 70.2389 35.2599 70.1902C35.5639 70.1416 35.9531 70.1659 36.3301 70.2997L46.0477 73.7294L50.6937 61.6281C50.7788 61.4091 51.0099 61.251 51.3261 61.2024V61.2145Z" fill="#00C288" stroke="black" stroke-width="0.35" stroke-linecap="round" stroke-linejoin="round"/>
<path d="M116.868 77.4147C120.237 76.7944 124.688 78.3633 126.828 80.9417L143.284 100.73C145.424 103.308 144.439 105.898 141.07 106.519L115.177 111.335C111.808 111.955 107.345 110.386 105.204 107.808L88.7487 88.0201C86.6082 85.4417 87.6055 82.8512 90.9744 82.2309L116.868 77.4147Z" fill="white" stroke="black" stroke-width="0.35" stroke-linecap="round" stroke-linejoin="round"/>
<path d="M142.736 108.684C142.773 108.623 142.797 108.55 142.822 108.477C142.846 108.416 142.882 108.355 142.907 108.294C142.907 108.294 142.907 108.294 142.907 108.282L144.269 104.269C144.245 104.342 144.208 104.403 144.184 104.476C144.159 104.548 144.123 104.609 144.099 104.682C144.062 104.755 144.013 104.816 143.965 104.877C143.928 104.938 143.892 104.986 143.855 105.047C143.819 105.096 143.77 105.132 143.734 105.181C143.673 105.254 143.612 105.327 143.539 105.388C143.503 105.424 143.466 105.448 143.43 105.473C143.332 105.558 143.247 105.631 143.138 105.704C143.101 105.728 143.053 105.753 143.016 105.777C142.882 105.862 142.749 105.935 142.603 106.008C142.53 106.044 142.445 106.081 142.372 106.117C142.299 106.154 142.213 106.19 142.128 106.215C142.031 106.251 141.934 106.288 141.836 106.312C141.751 106.336 141.666 106.361 141.569 106.385C141.399 106.434 141.228 106.47 141.058 106.507L115.165 111.323C114.922 111.371 114.678 111.396 114.423 111.42C114.35 111.42 114.265 111.42 114.18 111.432C113.997 111.432 113.827 111.444 113.645 111.457C113.572 111.457 113.499 111.457 113.426 111.457C113.024 111.457 112.623 111.42 112.222 111.359C112.149 111.359 112.076 111.335 112.003 111.335C111.772 111.298 111.541 111.262 111.322 111.213C111.261 111.201 111.2 111.189 111.151 111.177C110.896 111.116 110.653 111.055 110.397 110.982C110.361 110.982 110.336 110.958 110.3 110.946C110.093 110.885 109.886 110.824 109.692 110.751C109.595 110.715 109.497 110.678 109.4 110.642C109.266 110.593 109.145 110.544 109.011 110.484C108.913 110.447 108.816 110.398 108.719 110.35C108.597 110.289 108.476 110.24 108.354 110.18C108.269 110.131 108.184 110.094 108.099 110.046C107.965 109.973 107.831 109.912 107.709 109.839C107.636 109.803 107.563 109.754 107.491 109.705C107.345 109.62 107.199 109.523 107.053 109.438C106.98 109.389 106.919 109.34 106.846 109.292C106.663 109.158 106.481 109.024 106.299 108.878C106.25 108.83 106.189 108.793 106.141 108.757C106.019 108.659 105.909 108.55 105.8 108.44C105.739 108.392 105.691 108.343 105.63 108.282C105.472 108.124 105.313 107.954 105.18 107.784L88.7243 87.9958C87.6905 86.7552 87.3865 85.5025 87.7392 84.4688L86.377 88.4823C86.0243 89.5161 86.3284 90.7566 87.3621 92.0093L103.818 111.797C103.963 111.967 104.109 112.138 104.268 112.296C104.316 112.344 104.377 112.405 104.438 112.454C104.547 112.563 104.657 112.661 104.778 112.77C104.791 112.782 104.815 112.794 104.827 112.819C104.863 112.843 104.9 112.867 104.936 112.904C105.107 113.05 105.289 113.184 105.484 113.317C105.52 113.342 105.557 113.378 105.593 113.403C105.63 113.427 105.654 113.439 105.691 113.463C105.836 113.561 105.982 113.646 106.128 113.731C106.177 113.767 106.238 113.804 106.286 113.828C106.311 113.828 106.323 113.853 106.347 113.865C106.469 113.938 106.603 114.011 106.736 114.071C106.809 114.108 106.882 114.144 106.955 114.181C106.968 114.181 106.98 114.193 106.992 114.205C107.113 114.266 107.235 114.315 107.357 114.376C107.442 114.412 107.527 114.461 107.612 114.497C107.612 114.497 107.636 114.497 107.649 114.509C107.77 114.558 107.904 114.607 108.038 114.655C108.123 114.692 108.22 114.728 108.305 114.765C108.305 114.765 108.318 114.765 108.33 114.765C108.524 114.838 108.731 114.898 108.938 114.959C108.974 114.959 108.999 114.984 109.035 114.996C109.278 115.069 109.534 115.13 109.789 115.19C109.801 115.19 109.813 115.19 109.838 115.19C109.886 115.19 109.923 115.203 109.972 115.215C110.203 115.263 110.422 115.3 110.653 115.336C110.701 115.336 110.738 115.348 110.786 115.361C110.811 115.361 110.847 115.361 110.872 115.361C111.273 115.409 111.686 115.446 112.076 115.458C112.1 115.458 112.136 115.458 112.161 115.458C112.209 115.458 112.246 115.458 112.295 115.458C112.477 115.458 112.659 115.458 112.83 115.434C112.915 115.434 112.988 115.434 113.073 115.421C113.328 115.397 113.572 115.373 113.815 115.324L139.708 110.508C139.854 110.484 139.988 110.447 140.122 110.423C140.158 110.423 140.195 110.398 140.231 110.386C140.316 110.362 140.413 110.338 140.499 110.313C140.596 110.277 140.693 110.253 140.791 110.216C140.876 110.18 140.949 110.155 141.034 110.119C141.082 110.094 141.143 110.082 141.192 110.058C141.216 110.046 141.241 110.021 141.277 110.009C141.423 109.936 141.557 109.863 141.691 109.778C141.727 109.754 141.763 109.742 141.788 109.717C141.788 109.717 141.8 109.705 141.812 109.693C141.922 109.62 142.007 109.535 142.104 109.462C142.141 109.438 142.177 109.413 142.201 109.389C142.274 109.316 142.335 109.255 142.396 109.182C142.432 109.134 142.481 109.097 142.518 109.061C142.554 109.012 142.591 108.951 142.627 108.89C142.663 108.83 142.712 108.769 142.749 108.696L142.736 108.684Z" fill="white" stroke="black" stroke-width="0.35" stroke-linecap="round" stroke-linejoin="round"/>
<path d="M75.2114 85.15C78.5803 84.5297 83.0317 86.0987 85.1722 88.677L101.628 108.465C103.768 111.043 102.783 113.634 99.4141 114.254L73.5209 119.07C70.1519 119.691 65.6884 118.122 63.5479 115.543L47.0925 95.7554C44.9519 93.177 45.9492 90.5865 49.3182 89.9662L75.2114 85.15Z" fill="white" stroke="black" stroke-width="0.35" stroke-linecap="round" stroke-linejoin="round"/>
<path d="M101.08 116.419C101.117 116.358 101.141 116.285 101.165 116.212C101.19 116.151 101.226 116.091 101.25 116.03C101.25 116.03 101.25 116.03 101.25 116.018L102.613 112.004C102.588 112.077 102.552 112.138 102.528 112.211C102.503 112.284 102.467 112.345 102.442 112.418C102.406 112.491 102.357 112.551 102.309 112.612C102.272 112.673 102.236 112.722 102.199 112.782C102.163 112.831 102.114 112.868 102.078 112.916C102.017 112.989 101.956 113.062 101.883 113.123C101.846 113.16 101.81 113.184 101.773 113.208C101.676 113.293 101.591 113.366 101.482 113.439C101.445 113.464 101.396 113.488 101.36 113.512C101.226 113.597 101.092 113.67 100.946 113.743C100.873 113.78 100.788 113.816 100.715 113.853C100.642 113.889 100.557 113.926 100.472 113.95C100.375 113.987 100.278 114.023 100.18 114.047C100.095 114.072 100.01 114.096 99.9126 114.12C99.7424 114.169 99.5721 114.205 99.4018 114.242L73.5086 119.058C73.2653 119.107 73.0221 119.131 72.7667 119.155C72.6937 119.155 72.6086 119.155 72.5235 119.168C72.341 119.168 72.1708 119.18 71.9883 119.192C71.9153 119.192 71.8424 119.192 71.7694 119.192C71.3681 119.192 70.9667 119.155 70.5654 119.095C70.4924 119.095 70.4194 119.07 70.3464 119.07C70.1154 119.034 69.8843 118.997 69.6653 118.949C69.6045 118.937 69.5437 118.924 69.4951 118.912C69.2397 118.851 68.9964 118.791 68.741 118.718C68.7045 118.718 68.6802 118.693 68.6437 118.681C68.437 118.62 68.2302 118.56 68.0356 118.487C67.9383 118.45 67.841 118.414 67.7437 118.377C67.6099 118.328 67.4883 118.28 67.3545 118.219C67.2572 118.182 67.1599 118.134 67.0626 118.085C66.941 118.024 66.8194 117.976 66.6978 117.915C66.6126 117.866 66.5275 117.83 66.4424 117.781C66.3086 117.708 66.1748 117.647 66.0532 117.574C65.9802 117.538 65.9072 117.489 65.8343 117.441C65.6883 117.355 65.5424 117.258 65.3964 117.173C65.3235 117.124 65.2626 117.076 65.1897 117.027C65.0072 116.893 64.8248 116.76 64.6424 116.614C64.5937 116.565 64.5329 116.528 64.4843 116.492C64.3626 116.395 64.2532 116.285 64.1437 116.176C64.0829 116.127 64.0343 116.078 63.9735 116.018C63.8153 115.86 63.6572 115.689 63.5235 115.519L47.0681 95.7311C46.0343 94.4906 45.7302 93.2379 46.0829 92.2041L44.7208 96.2176C44.3681 97.2514 44.6721 98.4919 45.7059 99.7446L62.1613 119.532C62.3072 119.703 62.4532 119.873 62.6113 120.031C62.6599 120.08 62.7208 120.141 62.7816 120.189C62.891 120.299 63.0005 120.396 63.1221 120.505C63.1343 120.518 63.1586 120.53 63.1708 120.554C63.2072 120.578 63.2437 120.603 63.2802 120.639C63.4505 120.785 63.6329 120.919 63.8275 121.053C63.864 121.077 63.9005 121.114 63.937 121.138C63.9735 121.162 63.9978 121.174 64.0343 121.199C64.1802 121.296 64.3262 121.381 64.4721 121.466C64.5208 121.503 64.5816 121.539 64.6302 121.564C64.6545 121.564 64.6667 121.588 64.691 121.6C64.8126 121.673 64.9464 121.746 65.0802 121.807C65.1532 121.843 65.2262 121.88 65.2991 121.916C65.3113 121.916 65.3235 121.928 65.3356 121.941C65.4572 122.001 65.5789 122.05 65.7005 122.111C65.7856 122.147 65.8708 122.196 65.9559 122.232C65.9559 122.232 65.9802 122.232 65.9924 122.245C66.114 122.293 66.2478 122.342 66.3816 122.391C66.4667 122.427 66.564 122.464 66.6491 122.5C66.6491 122.5 66.6613 122.5 66.6735 122.5C66.8681 122.573 67.0748 122.634 67.2816 122.695C67.3181 122.695 67.3424 122.719 67.3789 122.731C67.6221 122.804 67.8775 122.865 68.1329 122.926C68.1451 122.926 68.1572 122.926 68.1816 122.926C68.2302 122.926 68.2667 122.938 68.3153 122.95C68.5464 122.999 68.7654 123.035 68.9964 123.072C69.0451 123.072 69.0816 123.084 69.1302 123.096C69.1545 123.096 69.191 123.096 69.2154 123.096C69.6167 123.145 70.0302 123.181 70.4194 123.193C70.4437 123.193 70.4802 123.193 70.5045 123.193C70.5532 123.193 70.5897 123.193 70.6383 123.193C70.8208 123.193 71.0032 123.193 71.1735 123.169C71.2586 123.169 71.3316 123.169 71.4167 123.157C71.6721 123.132 71.9153 123.108 72.1586 123.06L98.0518 118.243C98.1978 118.219 98.3316 118.182 98.4654 118.158C98.5018 118.158 98.5383 118.134 98.5748 118.122C98.6599 118.097 98.7572 118.073 98.8424 118.049C98.9397 118.012 99.037 117.988 99.1343 117.951C99.2194 117.915 99.2924 117.891 99.3775 117.854C99.4262 117.83 99.487 117.818 99.5356 117.793C99.5599 117.781 99.5843 117.757 99.6208 117.745C99.7667 117.672 99.9005 117.599 100.034 117.514C100.071 117.489 100.107 117.477 100.132 117.453C100.132 117.453 100.144 117.441 100.156 117.428C100.265 117.355 100.35 117.27 100.448 117.197C100.484 117.173 100.521 117.149 100.545 117.124C100.618 117.051 100.679 116.991 100.74 116.918C100.776 116.869 100.825 116.832 100.861 116.796C100.898 116.747 100.934 116.687 100.971 116.626C101.007 116.565 101.056 116.504 101.092 116.431L101.08 116.419Z" fill="white" stroke="black" stroke-width="0.35" stroke-linecap="round" stroke-linejoin="round"/>
<path d="M77.8388 93.0554C78.1428 92.9946 78.532 93.031 78.9091 93.1648L81.682 94.1378C82.4482 94.4175 82.9347 94.9891 82.7645 95.4391L77.1942 109.961C77.1091 110.18 76.878 110.338 76.5739 110.386C76.2699 110.435 75.8807 110.411 75.5036 110.277L61.6145 105.363C60.8482 105.096 60.3618 104.512 60.532 104.062L61.1523 102.457C61.2374 102.238 61.4685 102.08 61.7726 102.031C62.0766 101.982 62.4658 102.007 62.8428 102.14L72.5604 105.57L77.2063 93.4689C77.2915 93.25 77.5226 93.0918 77.8388 93.0432V93.0554Z" fill="#00C288" stroke="black" stroke-width="0.35" stroke-linecap="round" stroke-linejoin="round"/>
<path d="M111.941 98.0055L117.731 86.646L121.708 92.9946L111.941 98.0055Z" fill="white" stroke="black" stroke-width="0.35" stroke-linecap="round" stroke-linejoin="round"/>
<path d="M127.582 95.0135L121.708 92.9946L111.941 98.0054L127.582 95.0135Z" fill="black" stroke="black" stroke-width="0.35" stroke-linecap="round" stroke-linejoin="round"/>
<path d="M117.731 86.6459L119.604 82.377L111.941 98.0053L117.731 86.6459Z" fill="white" stroke="black" stroke-width="0.35" stroke-linecap="round" stroke-linejoin="round"/>
<path d="M121.707 92.9943L173.141 49.2105L169.249 42.8618L117.73 86.6456L121.707 92.9943Z" fill="white" stroke="black" stroke-width="0.35" stroke-linecap="round" stroke-linejoin="round"/>
<path d="M127.582 95.0131L121.708 92.9942L173.142 49.2104L178.809 51.3753L127.582 95.0131Z" fill="white" stroke="black" stroke-width="0.35" stroke-linecap="round" stroke-linejoin="round"/>
<path opacity="0.3" d="M127.582 95.0131L121.708 92.9942L173.142 49.2104L178.809 51.3753L127.582 95.0131Z" fill="black"/>
<path d="M117.73 86.6458L119.603 82.3769L171.098 38.812L169.249 42.862L117.73 86.6458Z" fill="white" stroke="black" stroke-width="0.35" stroke-linecap="round" stroke-linejoin="round"/>
<path d="M176.911 40.6485L180.888 47.2769L178.808 51.3755L173.141 49.2107L169.249 42.862L171.098 38.812L176.911 40.6485Z" fill="white" stroke="black" stroke-width="0.35" stroke-linecap="round" stroke-linejoin="round"/>
<path d="M166.027 43.0933L164.3 47.0703L168.119 53.4797L173.957 55.4987" stroke="black" stroke-width="0.35" stroke-linecap="round" stroke-linejoin="round"/>
<path d="M161.271 47.1191L159.483 51.157L163.351 57.5421L169.14 59.5975" stroke="black" stroke-width="0.35" stroke-linecap="round" stroke-linejoin="round"/>
<path d="M73.789 61.6037C73.789 61.6037 73.8742 61.5916 73.9106 61.5916C74.312 61.5551 74.8228 61.6524 75.4431 61.8713L76.6228 62.2848C77.2066 62.4916 77.9242 62.747 78.7877 63.0388C79.6512 63.3307 80.612 63.6713 81.6823 64.0361C82.7647 64.401 83.8715 64.7902 85.039 65.1916C85.2579 64.6321 85.4647 64.0848 85.6836 63.5497C85.8904 63.0145 86.085 62.5159 86.2674 62.0415C86.4498 61.5794 86.6201 61.1537 86.7661 60.7888C86.912 60.4118 87.0336 60.1078 87.1309 59.8524C87.2769 59.5118 87.5323 59.2443 87.8971 59.0861C87.9944 59.0375 88.1039 59.001 88.2255 58.9888C88.5417 58.928 88.9066 58.9645 89.3444 59.0861C89.3688 59.0861 89.4417 59.1105 89.5755 59.147C89.7093 59.1834 89.8309 59.2199 89.9647 59.2564C90.0985 59.3051 90.2323 59.3416 90.3539 59.378C90.4755 59.4145 90.5606 59.4388 90.5971 59.451C91.2782 59.6821 91.7647 59.9861 92.0566 60.351C92.3485 60.7159 92.4215 61.0929 92.2755 61.4821C92.1782 61.7497 92.0444 62.078 91.8985 62.4794C91.7525 62.8807 91.5823 63.3186 91.3998 63.7929C91.2052 64.2672 91.0107 64.778 90.8161 65.301L90.1715 66.9915C91.108 67.3078 92.0201 67.624 92.9201 67.9402C93.8079 68.2443 94.6471 68.5361 95.4255 68.8037C96.1917 69.0713 96.8971 69.3267 97.5296 69.5456C98.162 69.7767 98.685 69.9591 99.0863 70.1051C99.8404 70.3848 100.436 70.6402 100.898 70.9078C101.361 71.1632 101.604 71.5159 101.64 71.9415C101.64 72.0267 101.628 72.124 101.604 72.2456C101.58 72.3672 101.543 72.4888 101.507 72.6105C101.47 72.7321 101.421 72.8415 101.373 72.9388C101.312 73.0361 101.263 73.1091 101.215 73.1578C101.044 73.328 100.801 73.4497 100.473 73.5105C100.315 73.5348 100.144 73.5591 99.9498 73.5591C99.3417 73.5713 98.7093 73.4618 98.0161 73.2186L96.4106 72.647L94.2701 71.8929L91.7404 71.0051L88.9796 70.0321L87.885 72.878C87.5444 73.7537 87.289 74.4713 87.0823 75.0307C86.8634 75.5902 86.5106 75.9794 86.012 76.1983C85.8782 76.2591 85.7444 76.2956 85.6107 76.3199C85.1971 76.3929 84.735 76.3564 84.1998 76.1861L83.9323 76.0888L83.5066 75.9429L83.0931 75.797C82.935 75.7483 82.8498 75.7118 82.8134 75.6875C82.5093 75.5537 82.2539 75.3956 82.0836 75.2375C81.9134 75.0672 81.7917 74.897 81.7188 74.7145C81.6579 74.5321 81.6215 74.3497 81.6336 74.1672C81.6458 73.9848 81.6823 73.8145 81.7431 73.6564C81.8039 73.5348 81.9012 73.3159 82.0471 72.9875L82.485 71.747C82.6796 71.2726 82.8863 70.7375 83.1296 70.1415C83.3607 69.5456 83.6039 68.9253 83.8593 68.2686C82.6309 67.8429 81.4755 67.4294 80.3688 67.0402C79.262 66.651 78.2769 66.3105 77.4012 66.0064C76.5255 65.7024 75.8079 65.447 75.2607 65.2645C74.7012 65.0699 74.3606 64.9483 74.2269 64.9118C73.5579 64.6807 73.0958 64.4132 72.8404 64.1091C72.5728 63.8051 72.4633 63.4767 72.4877 63.1118C72.512 62.9659 72.5728 62.7956 72.6701 62.5888C72.7674 62.3821 72.8525 62.2483 72.9012 62.1875C73.1444 61.8956 73.4242 61.7253 73.7769 61.6524L73.789 61.6037Z" fill="white" stroke="black" stroke-width="0.35" stroke-linecap="round" stroke-linejoin="round"/>
</g>
<defs>
<clipPath id="clip0_4064_105471">
<rect width="180" height="180" fill="white" transform="translate(0.888672 0.0390625)"/>
</clipPath>
</defs>
</svg>
