<?xml version="1.0" encoding="UTF-8"?>
<svg width="287px" height="228px" viewBox="0 0 287 228" version="1.1" xmlns="http://www.w3.org/2000/svg" xmlns:xlink="http://www.w3.org/1999/xlink">
    <!-- Generator: Sketch 59.1 (86144) - https://sketch.com -->
    <title>Group 3</title>
    <desc>Created with Sketch.</desc>
    <defs>
        <linearGradient x1="31.8995559%" y1="36.498918%" x2="58.0087206%" y2="220.148223%" id="linearGradient-1">
            <stop stop-color="#298F87" offset="0%"></stop>
            <stop stop-color="#0C544D" offset="100%"></stop>
        </linearGradient>
        <path d="M134.635574,87.303688 C143.535877,79.8867689 156.464123,79.8867689 165.364426,87.303688 L240,149.5 L240,254 C240,258.418278 236.418278,262 232,262 L68,262 C63.581722,262 60,258.418278 60,254 L60,149.5 L134.635574,87.303688 Z" id="path-2"></path>
        <linearGradient x1="110.07332%" y1="106.215553%" x2="0%" y2="0%" id="linearGradient-4">
            <stop stop-color="#E58A3B" offset="0%"></stop>
            <stop stop-color="#FFD689" offset="100%"></stop>
        </linearGradient>
    </defs>
    <g id="简约交易" stroke="none" stroke-width="1" fill="none" fill-rule="evenodd">
        <g id="注册成功" transform="translate(-96.000000, -177.000000)">
            <g id="Group-3" transform="translate(90.000000, 143.000000)">
                <g id="Group-3-Copy-2">
                    <g id="Group-3-Copy">
                        <rect id="Rectangle" x="0" y="0" width="300" height="300"></rect>
                        <mask id="mask-3" fill="white">
                            <use xlink:href="#path-2"></use>
                        </mask>
                        <use id="Combined-Shape" fill-opacity="0.95" fill="url(#linearGradient-1)" xlink:href="#path-2"></use>
                        <g id="积分" mask="url(#mask-3)">
                            <g transform="translate(93.750000, 112.000000)" id="编组-3备份">
                                <g transform="translate(0.000000, 0.187500)">
                                    <circle id="椭圆形" fill="#FFD689" fill-rule="nonzero" cx="56.25" cy="56.25" r="56.25"></circle>
                                    <circle id="椭圆形" fill="url(#linearGradient-4)" fill-rule="nonzero" cx="56.25" cy="56.25" r="45"></circle>
                                    <path d="M53.56,73.192 C50.018649,73.0639994 46.8613472,72.7440026 44.088,72.232 L44.088,65.448 C48.1840205,65.789335 51.8746502,65.96 55.16,65.96 L55.9010028,65.9555 C57.5670069,65.9345002 58.7919961,65.8400008 59.576,65.672 C60.4720045,65.479999 61.0479987,65.1706688 61.304,64.744 C61.5600013,64.3173312 61.688,63.6346714 61.688,62.696 C61.688,61.7999955 61.6133341,61.1706685 61.464,60.808 C61.3146659,60.4453315 61.0266688,60.1893341 60.6,60.04 C60.1733312,59.8906659 59.4053389,59.7520006 58.296,59.624 L50.744,58.6 C47.6719846,58.1733312 45.6133386,57.1280083 44.568,55.464 C43.5226614,53.7999917 43,51.3893491 43,48.232 C43,44.690649 43.895991,42.1733408 45.688,40.68 C47.480009,39.1866592 50.1039827,38.3120013 53.56,38.056 L53.56,33 L59.768,33 L59.768,37.992 C61.1333402,38.0346669 62.615992,38.1626656 64.216,38.376 L65.1414426,38.5040003 C66.3292835,38.674667 67.3327959,38.8453325 68.152,39.016 L68.152,45.8 L66.7621542,45.6724424 C63.579125,45.3934103 60.8157046,45.244595 58.4718359,45.2259931 L57.976,45.224 C56.0986573,45.224 54.722671,45.2879994 53.848,45.416 C52.973329,45.5440006 52.3333354,45.8213312 51.928,46.248 C51.5226646,46.6746688 51.32,47.3573286 51.32,48.296 C51.32,49.1920045 51.3839994,49.8213315 51.512,50.184 C51.6400006,50.5466685 51.9066646,50.8026659 52.312,50.952 C52.7173354,51.1013341 53.453328,51.2399994 54.52,51.368 L62.84,52.328 C64.5893421,52.5840013 65.9653283,53.0106637 66.968,53.608 C67.9706717,54.2053363 68.7279974,55.1973264 69.24,56.584 C69.7520026,57.9706736 70.008,59.9226541 70.008,62.44 C70.008,66.4080198 69.1546752,69.1493258 67.448,70.664 C65.7413248,72.1786742 63.1813504,73.0213325 59.768,73.192 L59.768,78.056 L53.56,78.056 L53.56,73.192 Z" id="$" fill="#FFE4B0" fill-rule="nonzero"></path>
                                </g>
                            </g>
                        </g>
                        <polygon id="Rectangle" fill-opacity="0.04" fill="#01081E" mask="url(#mask-3)" transform="translate(150.000000, 206.000000) scale(-1, 1) translate(-150.000000, -206.000000) " points="60 150 240 245.858802 240 262 60 262"></polygon>
                        <polygon id="Rectangle" fill-opacity="0.04" fill="#01081E" mask="url(#mask-3)" points="60 150 240 245.858802 240 262 60 262"></polygon>
                        <polygon id="Rectangle" fill="#16BC9C" mask="url(#mask-3)" points="60 149.5 240 262 60 262"></polygon>
                        <polygon id="Rectangle-Copy" fill="#16BC9C" mask="url(#mask-3)" transform="translate(150.000000, 205.750000) scale(-1, 1) translate(-150.000000, -205.750000) " points="60 149.5 240 262 60 262"></polygon>
                        <path d="M165.888832,196.535135 L240,262 L240,262 L60,262 L134.111168,196.535135 C143.186855,188.518278 156.813145,188.518278 165.888832,196.535135 Z" id="Rectangle-Copy-2" fill="#55DBC1" mask="url(#mask-3)"></path>
                    </g>
                </g>
                <g id="彩带" transform="translate(6.000000, 34.000000)">
                    <path d="M132.947269,16.693032 L126.016949,22.4180791 C126.016949,22.4180791 122.340866,21.5141243 117.700565,15.5480226 C113.361582,10.0037665 113,5.72504708 113,5.72504708 L119.93032,1.17239551e-13 C119.93032,1.17239551e-13 120.59322,4.64030132 124.630885,9.82297552 C128.186441,14.4030132 132.947269,16.693032 132.947269,16.693032" id="Fill-141" fill="#58CCB6"></path>
                    <path d="M283.066687,79.1230953 L275.533731,83.8839239 C275.533731,83.8839239 278.486047,97.1419277 273.243712,103.108029 C273.243712,103.108029 277.401904,104.915939 281.49923,102.565054 C285.296442,99.6127375 289.093053,93.0439992 283.066687,79.1230953" id="Fill-163" fill="#ED6E72"></path>
                    <path d="M8,81.6158192 C8,81.6158192 15.9548023,81.7966102 21.4387947,78 C21.4387947,78 24.6327684,84.3276836 31.6233522,83.7250471 C31.6233522,83.6647834 21.1374765,94.9340866 8,81.6158192" id="Fill-194" fill="#58CCB6"></path>
                    <path d="M225.150834,28 C225.150834,28 219.365523,33.6045198 212.676258,34.5687382 C212.676258,34.5687382 214.664958,41.4387947 209.000175,45.8380414 C208.939911,45.7777778 224.487934,46.9830508 225.150834,28" id="Fill-196" fill="#EDB66E"></path>
                    <path d="M16.8820093,29.766922 C16.8820093,29.766922 11.6390714,25.7292572 9.77089819,20.546583 C9.77089819,20.546583 4.8292786,22.7763382 0.550559207,18.7386734 C0.490295553,18.6784098 2.2379415,31.0927224 16.8820093,29.766922" id="Fill-233" fill="#ED6E72"></path>
                    <path d="M85.4274953,44.0460098 C85.4274953,44.0460098 80.5461394,48.3247292 79.0998117,53.6881943 C79.0998117,53.6881943 73.9774011,51.5789665 70,55.8576859 C70,55.8576859 70.6629002,43.142055 85.4274953,44.0460098" id="Fill-235" fill="#EDB66E"></path>
                    <path d="M267.943503,8 L272.222825,12.0979284 C272.222825,12.0979284 271.921507,14.5687382 268.365348,18.0640301 C265.050847,21.3182674 262.279322,21.920904 262.279322,21.920904 L258,17.8229755 C258,17.8229755 261.013183,17.039548 264.087232,13.9661017 C266.799096,11.3145009 267.943503,8 267.943503,8" id="Fill-274" fill="#58CCB6"></path>
                </g>
            </g>
        </g>
    </g>
</svg>