<svg width="136" height="137" viewBox="0 0 136 137" fill="none" xmlns="http://www.w3.org/2000/svg">
<path d="M7.74006 106.37C5.09006 100.62 29.9101 83.4999 63.2001 68.1399C96.4801 52.7699 125.61 44.9799 128.26 50.7299" stroke="#1D1D1D" stroke-width="0.4" stroke-linecap="round" stroke-linejoin="round"/>
<path d="M25.6401 90.4299C26.6301 90.4299 27.4401 89.6299 27.4401 88.6299C27.4401 87.6299 26.6401 86.8299 25.6401 86.8299C24.6401 86.8299 23.8401 87.6399 23.8401 88.6299C23.8401 89.6199 24.6501 90.4299 25.6401 90.4299Z" fill="#01BC8D"/>
<path d="M58.9701 31.1999H58.9601H58.9701Z" fill="white"/>
<path d="M58.9701 31.1999H58.9601" stroke="#1D1D1D" stroke-width="0.4" stroke-linecap="round" stroke-linejoin="round"/>
<path d="M66.9033 109.728L66.923 109.724L66.9427 109.721C69.9034 109.696 73.1677 109.09 76.117 108.54C76.7768 108.423 77.4152 108.301 78.0356 108.191C96.225 104.984 107.862 84.9997 104.092 63.6195C100.322 42.2393 82.5618 27.4384 64.3625 30.6475C63.8997 30.7291 63.4073 30.8159 62.8853 30.9079C59.76 31.4387 55.8469 32.1084 53.416 33.065L53.4062 33.0668L53.3964 33.0685C40.6731 40.2672 35.2225 57.729 38.3065 75.2192C41.3905 92.7094 52.407 107.389 66.9131 109.726L66.9033 109.728Z" fill="white" stroke="#1D1D1D" stroke-width="0.4" stroke-linecap="round" stroke-linejoin="round"/>
<path d="M38.2968 75.2212C41.3946 92.7901 52.3973 107.391 66.9034 109.728L66.9231 109.724L66.9428 109.721C69.9035 109.696 73.1679 109.09 76.1171 108.54C76.7769 108.424 77.4153 108.301 78.0357 108.191C88.5535 106.337 96.8748 98.8786 101.29 88.7887L92.472 91.7041" fill="#1D1D1D"/>
<path d="M38.2968 75.2212C41.3946 92.7901 52.3973 107.391 66.9034 109.728L66.9231 109.724L66.9428 109.721C69.9035 109.696 73.1679 109.09 76.1171 108.54C76.7769 108.424 77.4153 108.301 78.0357 108.191C88.5535 106.337 96.8748 98.8786 101.29 88.7887L92.472 91.7041" stroke="#1D1D1D" stroke-width="0.4" stroke-miterlimit="10"/>
<path d="M70.0945 109.399C88.1572 106.214 99.7539 86.3567 95.9964 65.047C92.239 43.7372 74.5502 29.0441 56.4874 32.229C38.4247 35.414 26.828 55.2709 30.5855 76.5807C34.343 97.8904 52.0318 112.584 70.0945 109.399Z" fill="white" stroke="#1D1D1D" stroke-width="0.4"/>
<path d="M68.7026 101.216C82.8444 98.7225 91.8122 82.8948 88.8237 65.9462C85.8352 48.9977 71.9949 37.1917 57.853 39.6853C43.7112 42.1789 34.7434 58.0065 37.7319 74.9551C40.7204 91.9036 54.5607 103.71 68.7026 101.216Z" fill="#01BC8D" fill-opacity="0.2"/>
<path d="M72.6597 58.6419C73.2755 58.5638 73.9104 58.7666 74.4033 59.2585C75.3989 60.2405 75.4896 62.0219 74.6066 63.2336L60.9439 81.92C60.5024 82.5259 59.8941 82.8768 59.2783 82.9549C58.5229 83.0475 57.8996 82.8528 57.3969 82.3626L48.9654 74.0505C47.9698 73.0685 47.8791 71.2871 48.7621 70.0754C49.2036 69.4695 49.8118 69.1186 50.4276 69.0405C51.0434 68.9623 51.6783 69.1652 52.181 69.6553L58.8801 76.2624L71.004 59.6751C71.4455 59.0693 72.0538 58.7183 72.6696 58.6402L72.6597 58.6419Z" fill="#1D1D1D" stroke="#1D1D1D" stroke-width="0.4" stroke-miterlimit="10"/>
<path d="M128.26 50.7199C130.91 56.4699 106.09 73.5899 72.8001 88.9499C39.5201 104.32 10.4001 112.12 7.74011 106.38" stroke="#1D1D1D" stroke-width="0.4" stroke-linecap="round" stroke-linejoin="round"/>
<path d="M116.12 67.2799C117.67 67.2799 118.92 66.0199 118.92 64.4799C118.92 62.9399 117.66 61.6799 116.12 61.6799C114.58 61.6799 113.32 62.9399 113.32 64.4799C113.32 66.0199 114.58 67.2799 116.12 67.2799Z" fill="#01BC8D"/>
<path d="M36.4101 23.02C37.9401 23.02 39.1701 21.78 39.1701 20.26C39.1701 18.74 37.9301 17.5 36.4101 17.5C34.8901 17.5 33.6501 18.74 33.6501 20.26C33.6501 21.78 34.8901 23.02 36.4101 23.02Z" fill="white" stroke="#1D1D1D" stroke-width="0.4" stroke-linecap="round" stroke-linejoin="round"/>
<path d="M11.0901 33.15C11.8501 33.15 12.4701 32.53 12.4701 31.77C12.4701 31.01 11.8501 30.39 11.0901 30.39C10.3301 30.39 9.71008 31.01 9.71008 31.77C9.71008 32.53 10.3301 33.15 11.0901 33.15Z" fill="white" stroke="#1D1D1D" stroke-width="0.4" stroke-linecap="round" stroke-linejoin="round"/>
<path d="M25.2401 43.35L25.7701 43.14L25.2801 43.43C22.0401 45.37 20.6601 49.36 22.0301 52.89L22.2401 53.42L21.9501 52.93C20.0101 49.69 16.0201 48.31 12.4901 49.68L11.9601 49.89L12.4501 49.6C15.6901 47.66 17.0701 43.67 15.7001 40.14L15.4901 39.61L15.7801 40.1C17.7201 43.34 21.7101 44.72 25.2401 43.35Z" fill="white" stroke="#1D1D1D" stroke-width="0.4" stroke-linecap="round" stroke-linejoin="round"/>
</svg>
