<svg width="20" height="21" viewBox="0 0 20 21" fill="none" xmlns="http://www.w3.org/2000/svg">
<path fill-rule="evenodd" clip-rule="evenodd" d="M10.0003 1.33301C7.69914 1.33301 5.83366 3.19849 5.83366 5.49967C5.83366 7.80086 7.69914 9.66634 10.0003 9.66634C12.3015 9.66634 14.167 7.80086 14.167 5.49967C14.167 3.19849 12.3015 1.33301 10.0003 1.33301ZM7.50033 5.49967C7.50033 4.11896 8.61961 2.99967 10.0003 2.99967C11.381 2.99967 12.5003 4.11896 12.5003 5.49967C12.5003 6.88039 11.381 7.99967 10.0003 7.99967C8.61961 7.99967 7.50033 6.88039 7.50033 5.49967Z" fill="#1D1D1D"/>
<path d="M10.0003 10.4997C5.39796 10.4997 1.66699 14.2306 1.66699 18.833C1.66699 19.2932 2.04009 19.6663 2.50033 19.6663C2.96056 19.6663 3.33366 19.2932 3.33366 18.833C3.33366 15.1511 6.31844 12.1663 10.0003 12.1663C13.6822 12.1663 16.667 15.1511 16.667 18.833C16.667 19.2932 17.0401 19.6663 17.5003 19.6663C17.9606 19.6663 18.3337 19.2932 18.3337 18.833C18.3337 14.2306 14.6027 10.4997 10.0003 10.4997Z" fill="#1D1D1D"/>
<path d="M7.08366 16.7497C7.08366 16.2894 7.45676 15.9163 7.91699 15.9163H9.16699V14.6663C9.16699 14.2061 9.54009 13.833 10.0003 13.833C10.4606 13.833 10.8337 14.2061 10.8337 14.6663V15.9163H12.0837C12.5439 15.9163 12.917 16.2894 12.917 16.7497C12.917 17.2099 12.5439 17.583 12.0837 17.583H10.8337V18.833C10.8337 19.2932 10.4606 19.6663 10.0003 19.6663C9.54009 19.6663 9.16699 19.2932 9.16699 18.833V17.583H7.91699C7.45676 17.583 7.08366 17.2099 7.08366 16.7497Z" fill="#1D1D1D"/>
</svg>
