<svg width="20" height="20" viewBox="0 0 20 20" xmlns="http://www.w3.org/2000/svg">
<path fill-rule="evenodd" clip-rule="evenodd" d="M16.6667 7.91667V14.4167H17.83C18.2902 14.4167 18.6633 14.7898 18.6633 15.25C18.6633 15.7102 18.2902 16.0833 17.83 16.0833H12.8872C12.6853 17.4971 11.4696 18.584 10 18.584C8.53042 18.584 7.31468 17.4971 7.11278 16.0833H2.17C1.70977 16.0833 1.33667 15.7102 1.33667 15.25C1.33667 14.7898 1.70977 14.4167 2.17 14.4167H3.33334V7.91667C3.33334 4.23476 6.3181 1.25 10 1.25C13.6819 1.25 16.6667 4.23476 16.6667 7.91667ZM5.00001 7.91667C5.00001 5.15524 7.23858 2.91667 10 2.91667C12.7614 2.91667 15 5.15524 15 7.91667V14.4167H5.00001V7.91667ZM10 16.9173C9.45575 16.9173 8.99273 16.5695 8.82113 16.084H11.1789C11.0073 16.5695 10.5442 16.9173 10 16.9173Z" />
</svg>
