<svg width="16" height="17" viewBox="0 0 16 17" fill="none" xmlns="http://www.w3.org/2000/svg">
<g id="ic2_info">
<g id="Union">
<path d="M7.99999 4.16667C8.221 4.16667 8.43297 4.25447 8.58925 4.41075C8.74553 4.56703 8.83332 4.77899 8.83332 5.00001C8.83332 5.22102 8.74553 5.43298 8.58925 5.58926C8.43297 5.74554 8.221 5.83334 7.99999 5.83334C7.77898 5.83334 7.56701 5.74554 7.41073 5.58926C7.25445 5.43298 7.16666 5.22102 7.16666 5.00001C7.16666 4.77899 7.25445 4.56703 7.41073 4.41075C7.56701 4.25447 7.77898 4.16667 7.99999 4.16667Z" fill="#8C8C8C" fill-opacity="0.4"/>
<path d="M6.83332 7.16667C6.83332 6.79848 7.1318 6.50001 7.49999 6.50001H8.16666C8.53485 6.50001 8.83332 6.79848 8.83332 7.16667V11.1667H9.33332C9.70151 11.1667 9.99999 11.4651 9.99999 11.8333C9.99999 12.2015 9.70151 12.5 9.33332 12.5H6.99999C6.6318 12.5 6.33332 12.2015 6.33332 11.8333C6.33332 11.4651 6.6318 11.1667 6.99999 11.1667H7.49999V7.83334C7.1318 7.83334 6.83332 7.53486 6.83332 7.16667Z" fill="#8C8C8C" fill-opacity="0.4"/>
<path fill-rule="evenodd" clip-rule="evenodd" d="M0.666656 8.50001C0.666656 4.44992 3.9499 1.16667 7.99999 1.16667C12.0501 1.16667 15.3333 4.44992 15.3333 8.50001C15.3333 12.5501 12.0501 15.8333 7.99999 15.8333C3.9499 15.8333 0.666656 12.5501 0.666656 8.50001ZM7.99999 2.50001C4.68628 2.50001 1.99999 5.1863 1.99999 8.50001C1.99999 11.8137 4.68628 14.5 7.99999 14.5C11.3137 14.5 14 11.8137 14 8.50001C14 5.1863 11.3137 2.50001 7.99999 2.50001Z" fill="#8C8C8C" fill-opacity="0.4"/>
</g>
</g>
</svg>
