<svg width="48" height="48" viewBox="0 0 48 48" fill="none" xmlns="http://www.w3.org/2000/svg">
<g clip-path="url(#clip0_4235_35232)">
<circle cx="24" cy="24" r="24" fill="#F3F3F3" fill-opacity="0.04"/>
<mask id="mask0_4235_35232" style="mask-type:alpha" maskUnits="userSpaceOnUse" x="11" y="10" width="27" height="27">
<path d="M12.1611 34.946C11.9228 34.7889 11.7833 34.5028 11.8319 34.1555C12.4876 29.471 15.7395 25.2089 20.0558 23.314C17.859 22.7446 16.2649 20.8282 16.1583 18.2524C16.0129 14.7395 18.6793 11.3383 22.114 10.6551C23.3536 10.4085 24.5237 10.5497 25.52 10.9957C25.52 10.9917 25.5201 10.9877 25.5201 10.9837L28.8763 12.5969L28.866 12.5987C30.4517 13.4504 31.5267 15.1157 31.6136 17.217C31.7074 19.4826 30.6273 21.7006 28.927 23.1729C29.1214 23.2625 29.312 23.3586 29.4988 23.4608L31.7327 24.5198C34.4271 25.6823 36.4432 28.0518 37.176 31.1564C37.3074 31.7132 36.8723 32.3117 36.2946 32.4266L15.8206 36.4992C15.5754 36.5479 15.3484 36.5009 15.1746 36.3848L15.1727 36.3876L12.3361 35.0317C12.2781 35.0118 12.2236 34.9857 12.1733 34.9539L12.16 34.9475L12.1611 34.946Z" fill="black"/>
</mask>
<g mask="url(#mask0_4235_35232)">
<path d="M12.1611 34.946C11.9228 34.7889 11.7833 34.5028 11.8319 34.1555C12.4876 29.471 15.7395 25.2089 20.0558 23.314C17.859 22.7446 16.2649 20.8282 16.1583 18.2524C16.0129 14.7395 18.6793 11.3383 22.114 10.6551C23.3536 10.4085 24.5237 10.5497 25.52 10.9957C25.52 10.9917 25.5201 10.9877 25.5201 10.9837L28.8763 12.5969L28.866 12.5987C30.4517 13.4504 31.5267 15.1157 31.6136 17.217C31.7074 19.4826 30.6273 21.7006 28.927 23.1729C29.1214 23.2625 29.312 23.3586 29.4988 23.4608L31.7327 24.5198C34.4271 25.6823 36.4432 28.0518 37.176 31.1564C37.3074 31.7132 36.8723 32.3117 36.2946 32.4266L15.8206 36.4992C15.5754 36.5479 15.3484 36.5009 15.1746 36.3848L15.1727 36.3876L12.3361 35.0317C12.2781 35.0118 12.2236 34.9857 12.1733 34.9539L12.16 34.9475L12.1611 34.946Z" fill="black"/>
<path d="M27.4201 23.301C29.0838 22.1781 30.2959 20.3574 30.6303 18.3759C30.7058 17.9282 30.7366 17.4724 30.7176 17.0145C30.6847 16.2185 30.3458 15.1722 29.8832 14.5791" stroke="#25D17F" stroke-width="0.5" stroke-linecap="round"/>
<path d="M17.8457 35.0908L22.2339 34.2216" stroke="#25D17F" stroke-width="0.5" stroke-linecap="round"/>
<path d="M13.5812 33.3784L18.808 36.4488L15.8429 37.2356C14.3723 36.3559 11.3523 34.5728 11.0372 34.4783C10.7221 34.3837 12.5964 33.7062 13.5812 33.3784Z" fill="#44494F"/>
<path d="M12.3027 34.7399L12.2987 34.7372C12.1455 34.6363 12.0435 34.4473 12.0795 34.1901C12.7231 29.5922 15.9188 25.4032 20.1563 23.5429L20.8168 23.2529L20.1185 23.072C18.0332 22.5315 16.5104 20.7131 16.4081 18.2421C16.2678 14.8515 18.8496 11.5593 22.1628 10.9003C23.354 10.6633 24.4712 10.8001 25.4178 11.2239L25.7657 11.3797L25.7657 11.3791L28.6354 12.7586L28.7477 12.8189C30.2512 13.6265 31.2803 15.2093 31.3638 17.2273C31.4541 19.4082 30.4129 21.5555 28.7633 22.9839L28.4703 23.2376L28.8223 23.3999C29.0115 23.4872 29.197 23.5806 29.3787 23.6801L29.3851 23.6836L29.3917 23.6867L31.6256 24.7457L31.6255 24.7458L31.6336 24.7493C34.2534 25.8796 36.2175 28.184 36.9326 31.2139C37.027 31.6135 36.705 32.0901 36.2458 32.1814L15.7718 36.254C15.5842 36.2913 15.4242 36.255 15.3116 36.1798L15.2967 36.1698L15.2805 36.1621L12.4439 34.8061L12.4309 34.7999L12.4172 34.7952C12.3774 34.7816 12.3405 34.7638 12.3069 34.7425L12.3027 34.7399Z" stroke="black" stroke-width="0.5" stroke-linecap="round"/>
</g>
<mask id="mask1_4235_35232" style="mask-type:alpha" maskUnits="userSpaceOnUse" x="11" y="10" width="24" height="26">
<path d="M25.0676 22.0868L24.4226 22.5221L25.1331 22.5483C29.4422 22.7077 32.915 25.5529 33.92 29.8111C34.0128 30.2041 33.7079 30.6494 33.2674 30.7371L12.7933 34.8096C12.3526 34.8973 12.016 34.5793 12.0753 34.1559C12.7169 29.5723 15.8991 25.4018 20.1218 23.548L20.8191 23.2419L20.1485 23.068C18.0376 22.5209 16.5065 20.6795 16.4041 18.2053C16.2644 14.8294 18.8266 11.5626 22.125 10.9065C25.4234 10.2504 28.2119 12.453 28.3515 15.826C28.4539 18.3002 27.0991 20.7157 25.0676 22.0868Z" fill="white" stroke="black" stroke-width="0.5" stroke-linecap="round"/>
</mask>
<g mask="url(#mask1_4235_35232)">
<path d="M25.0676 22.0858L24.4226 22.5211L25.1331 22.5474C29.4422 22.7068 32.915 25.552 33.92 29.8101C34.0128 30.2032 33.7079 30.6485 33.2674 30.7361L12.7933 34.8087C12.3526 34.8963 12.016 34.5784 12.0753 34.1549C12.7169 29.5714 15.8991 25.4008 20.1218 23.547L20.8191 23.2409L20.1485 23.0671C18.0376 22.52 16.5065 20.6786 16.4041 18.2044C16.2644 14.8285 18.8266 11.5617 22.125 10.9056C25.4234 10.2495 28.2119 12.4521 28.3515 15.8251C28.4539 18.2993 27.0991 20.7148 25.0676 22.0858Z" fill="#777E87" stroke="black" stroke-width="0.5" stroke-linecap="round"/>
<path d="M20.4381 24.8313C21.8904 27.2502 25.7182 25.148 25.2966 22.4129C28.2099 22.6432 30.2056 24.3112 30.9245 27.1415C31.0225 27.5273 30.7207 27.9729 30.2783 28.0609L15.4963 31.0012C15.057 31.0886 14.7152 30.7718 14.7668 30.3429C14.9643 28.7019 15.4255 27.2145 16.2087 25.9753C16.9572 24.7909 18.0077 23.8207 19.4317 23.1553L20.4381 24.8313Z" fill="#777E87" stroke="black" stroke-width="0.5" stroke-linecap="round"/>
<path d="M27.2784 22.5274C31.6779 22.6901 33.4245 25.3896 34.1894 29.7038C34.2901 30.2718 33.8562 30.8697 33.2786 30.9846L12.8045 35.0572C12.2267 35.1721 11.7512 34.755 11.7954 34.1568C12.1332 29.5835 13.2079 26.0488 17.5208 24.1554L19.1148 26.4694C21.5609 30.02 27.5057 27.1494 27.2784 22.5274Z" fill="#25D17F"/>
<path fill-rule="evenodd" clip-rule="evenodd" d="M15.7073 29.2856C15.922 29.1178 16.1905 29.131 16.3037 29.3206L17.4598 31.2335C17.5731 31.4201 17.4918 31.7122 17.2771 31.88C17.0624 32.0477 16.7939 32.0346 16.6806 31.8449L15.5215 29.9357C15.4082 29.7461 15.4924 29.4564 15.7073 29.2856ZM18.8468 28.5908C18.8084 28.5776 18.7667 28.5742 18.7276 28.5825L17.3945 28.8659C17.3523 28.8749 17.3098 28.8961 17.273 28.9253C17.1564 29.0173 17.1123 29.1762 17.1716 29.2796L17.7978 30.3159C17.8177 30.3484 17.8465 30.3789 17.8849 30.3921C17.9971 30.4354 18.1458 30.3641 18.2159 30.2332L18.923 28.9074C18.9931 28.7765 18.9589 28.6341 18.8468 28.5908Z" fill="#777E87"/>
<path d="M20.2266 20.0957L24.1869 19.2988" stroke="black" stroke-linecap="round"/>
<path d="M25.0676 22.0858L24.4226 22.5211L25.1331 22.5474C29.4422 22.7068 32.915 25.552 33.92 29.8101C34.0128 30.2032 33.7079 30.6485 33.2674 30.7361L12.7933 34.8087C12.3526 34.8963 12.016 34.5784 12.0753 34.1549C12.7169 29.5714 15.8991 25.4008 20.1218 23.547L20.8191 23.2409L20.1485 23.0671C18.0376 22.52 16.5065 20.6786 16.4041 18.2044C16.2644 14.8285 18.8266 11.5617 22.125 10.9056C25.4234 10.2495 28.2119 12.4521 28.3515 15.8251C28.4539 18.2993 27.0991 20.7148 25.0676 22.0858Z" stroke="black" stroke-width="0.5" stroke-linecap="round"/>
</g>
<circle cx="5.74585" cy="5.74585" r="5.49585" transform="matrix(0.978148 -0.207912 0.0495471 0.998772 27.1484 25.0415)" fill="black" stroke="black" stroke-width="0.5"/>
<circle cx="5.74585" cy="5.74585" r="5.49585" transform="matrix(0.978148 -0.207912 0.0495471 0.998772 25.9395 24.1471)" fill="#777E87" stroke="black" stroke-width="0.5"/>
<circle cx="4.00247" cy="4.00247" r="4.00247" transform="matrix(0.978148 -0.207912 0.0495471 0.998772 27.7305 25.5288)" fill="#F66754"/>
<path d="M30.0293 29.0483L33.4139 28.3384" stroke="#777E87" stroke-width="1.5" stroke-linecap="round"/>
</g>
<defs>
<clipPath id="clip0_4235_35232">
<rect width="48" height="48" rx="24" fill="white"/>
</clipPath>
</defs>
</svg>
