<svg width="36" height="36" viewBox="0 0 36 36" fill="none" xmlns="http://www.w3.org/2000/svg">
<mask id="mask0_1495_27184" style="mask-type:alpha" maskUnits="userSpaceOnUse" x="8" y="1" width="20" height="35">
<path d="M22.6057 3.15291L22.6747 3.13567C22.6832 3.16965 22.6817 3.19647 22.6815 3.20107L22.6815 3.20146C22.6813 3.20391 22.6812 3.20602 22.681 3.20772C22.6809 3.20913 22.6808 3.21025 22.6807 3.21107L22.6803 3.21436L22.6803 3.21443C22.6803 3.21443 22.6805 3.21303 22.6811 3.20991L22.6842 3.19615C22.69 3.17174 22.6999 3.13525 22.714 3.0872C22.7419 2.99198 22.7826 2.86359 22.8292 2.72099C22.8846 2.55142 22.9475 2.36457 23.0056 2.19468L24.925 3.52931L24.9248 3.5296L24.9361 3.53657C25.4555 3.8584 25.8132 4.43669 25.85 5.17809L27.0457 29.2825C27.1126 30.6309 26.0877 31.9627 24.7672 32.2434L12.8357 34.7795C12.2168 34.9111 11.6535 34.7866 11.2269 34.4891L10.9984 34.3297L10.997 34.3323L9.12146 33.0278L10.4253 26.6061L10.4345 26.5607L10.4268 26.515C10.4117 26.425 10.4016 26.3319 10.3968 26.236L10.3969 26.236L10.3966 26.2313L9.20096 8.796C9.13535 7.4484 10.1598 6.11794 11.4796 5.8374L22.6208 3.46927L22.6057 3.15291ZM22.6057 3.15291L22.6747 3.13566C22.6625 3.08699 22.6384 3.05271 22.6203 3.0323C22.613 3.02402 22.6057 3.01695 22.599 3.01099L22.6057 3.15291Z" fill="black" stroke="black" stroke-width="0.5"/>
</mask>
<g mask="url(#mask0_1495_27184)">
<path d="M22.6057 3.15291L22.6747 3.13567C22.6832 3.16965 22.6817 3.19647 22.6815 3.20107L22.6815 3.20146C22.6813 3.20391 22.6812 3.20602 22.681 3.20772C22.6809 3.20913 22.6808 3.21025 22.6807 3.21107L22.6803 3.21436L22.6803 3.21443C22.6803 3.21443 22.6805 3.21303 22.6811 3.20991L22.6842 3.19615C22.69 3.17174 22.6999 3.13525 22.714 3.0872C22.7419 2.99198 22.7826 2.86359 22.8292 2.72099C22.8846 2.55142 22.9475 2.36457 23.0056 2.19468L24.925 3.52931L24.9248 3.5296L24.9361 3.53657C25.4555 3.8584 25.8132 4.43669 25.85 5.17809L27.0457 29.2825C27.1126 30.6309 26.0877 31.9627 24.7672 32.2434L12.8357 34.7795C12.2168 34.9111 11.6535 34.7866 11.2269 34.4891L10.9984 34.3297L10.997 34.3323L9.12146 33.0278L10.4253 26.6061L10.4345 26.5607L10.4268 26.515C10.4117 26.425 10.4016 26.3319 10.3968 26.236L10.3969 26.236L10.3966 26.2313L9.20096 8.796C9.13535 7.4484 10.1598 6.11794 11.4796 5.8374L22.6208 3.46927L22.6057 3.15291ZM22.6057 3.15291L22.6747 3.13566C22.6625 3.08699 22.6384 3.05271 22.6203 3.0323C22.613 3.02402 22.6057 3.01695 22.599 3.01099L22.6057 3.15291Z" fill="black" stroke="black" stroke-width="0.5"/>
<path d="M21.9763 29.0483L26.0095 31.7758L25.2018 32.1903L20.834 29.1865L21.9763 29.0483Z" fill="#B8A9A9"/>
<path d="M28.2412 28.0348L24.5154 25.5122L23.1445 28.3178L27.2103 31.0742L28.2412 28.0348Z" fill="#B8A9A9"/>
<path d="M10.6434 32.6694L14.6532 35.3005L11.8991 36.2705L7.41992 33.3799L10.6434 32.6694Z" fill="#B8A9A9"/>
<path d="M13.6562 34.1243L17.51 33.2572" stroke="#25D17F" stroke-width="0.5" stroke-linecap="round"/>
<path d="M24.8691 3.94004C25.0976 4.12068 25.4175 4.47563 25.5068 5.72543C25.5068 5.94226 25.7246 10.088 25.8256 11.9744" stroke="#25D17F" stroke-width="0.5" stroke-linecap="round"/>
<path d="M22.6057 3.15291L22.6747 3.13567C22.6832 3.16965 22.6817 3.19647 22.6815 3.20107L22.6815 3.20146C22.6813 3.20391 22.6812 3.20602 22.681 3.20772C22.6809 3.20913 22.6808 3.21025 22.6807 3.21107L22.6803 3.21436L22.6803 3.21443C22.6803 3.21443 22.6805 3.21303 22.6811 3.20991L22.6842 3.19615C22.69 3.17174 22.6999 3.13525 22.714 3.0872C22.7419 2.99198 22.7826 2.86359 22.8292 2.72099C22.8846 2.55142 22.9475 2.36457 23.0056 2.19468L24.925 3.52931L24.9248 3.5296L24.9361 3.53657C25.4555 3.85841 25.8132 4.43669 25.85 5.17809L27.0458 29.2825C27.1126 30.6309 26.0877 31.9627 24.7672 32.2434L12.8357 34.7795C12.2168 34.9111 11.6535 34.7866 11.2269 34.4891L10.9986 34.3299L10.9971 34.3325L9.12146 33.0278L10.4253 26.6061L10.4345 26.5607L10.4268 26.515C10.4117 26.425 10.4016 26.3319 10.3968 26.2361L10.3969 26.236L10.3966 26.2313L9.20096 8.796C9.13535 7.4484 10.1598 6.11794 11.4796 5.8374L22.6208 3.46927L22.6057 3.15291ZM22.6057 3.15291L22.6747 3.13566C22.6625 3.08699 22.6384 3.05271 22.6203 3.0323C22.613 3.02402 22.6057 3.01695 22.599 3.01099L22.6057 3.15291Z" stroke="black" stroke-width="0.5"/>
</g>
<rect x="0.256924" y="0.197715" width="17.0314" height="28.9674" rx="2.41667" transform="matrix(0.978148 -0.207912 0.0495471 0.998772 6.54269 4.61665)" fill="white" stroke="black" stroke-width="0.5"/>
<mask id="mask1_1495_27184" style="mask-type:alpha" maskUnits="userSpaceOnUse" x="7" y="2" width="17" height="31">
<rect x="0.256924" y="0.197715" width="14.7175" height="26.353" rx="1.75" transform="matrix(0.978148 -0.207912 0.0495471 0.998772 7.73996 5.68159)" fill="white" stroke="#B8A9A9" stroke-width="0.5"/>
</mask>
<g mask="url(#mask1_1495_27184)">
<rect x="-0.256924" y="-0.197715" width="15.7175" height="27.353" rx="2.25" transform="matrix(0.978148 -0.207912 0.0495471 0.998772 7.74832 5.57427)" fill="white" stroke="#B8A9A9" stroke-width="0.5"/>
<path d="M10.6074 4.37207L10.8778 10.7871L12.9324 12.8122" stroke="#EBE9E9" stroke-width="1.33333" stroke-linecap="round"/>
<path d="M20.8465 16.1305L14.2246 9.53698L14.829 8.10272L19.8095 7.07926L19.6165 2.26904" stroke="#EBE9E9" stroke-width="1.33333" stroke-linecap="round"/>
<path d="M6.64062 25.6457C6.84635 25.6163 8.93072 25.1926 9.94718 24.9844L14.1722 27.6297L14.4745 33.6793" stroke="#EBE9E9" stroke-width="1.33333" stroke-linecap="round"/>
<path d="M20.9182 16.2129L21.2732 23.5554L17.5859 26.4932L18.0437 35.4222" stroke="#EBE9E9" stroke-width="1.33333" stroke-linecap="round"/>
<rect x="0.256924" y="0.197715" width="14.7175" height="26.353" rx="1.75" transform="matrix(0.978148 -0.207912 0.0495471 0.998772 7.73996 5.68159)" stroke="#B8A9A9" stroke-width="0.5"/>
</g>
<circle cx="6.48944" cy="6.48944" r="6.23944" transform="matrix(0.978148 -0.207912 0.0495471 0.998772 9.18164 11.9521)" fill="white" stroke="#EBE9E9" stroke-width="0.5"/>
<path d="M12.9786 15.6612C11.9677 17.456 12.4337 19.548 14.0188 20.3342C15.2417 20.9404 16.8241 20.604 17.9619 19.4961L12.9786 15.6612ZM13.738 14.6732L18.7213 18.5081C19.7323 16.7133 19.2673 14.6211 17.6811 13.8351C16.4583 13.2289 14.8758 13.5653 13.738 14.6732ZM16.0797 21.7151C13.5748 22.2476 11.4425 20.6056 11.3157 18.049C11.1888 15.4925 13.1154 12.9866 15.6203 12.4542C18.1251 11.9217 20.2574 13.5637 20.3843 16.1214C20.5112 18.6791 18.5845 21.1827 16.0797 21.7151Z" fill="#F66754" stroke="#F66754" stroke-width="0.3"/>
</svg>
