<svg width="48" height="48" viewBox="0 0 48 48" fill="none" xmlns="http://www.w3.org/2000/svg">
<g clip-path="url(#clip0_4235_35231)">
<circle cx="24" cy="24" r="24" fill="#F3F3F3" fill-opacity="0.04"/>
<mask id="mask0_4235_35231" style="mask-type:alpha" maskUnits="userSpaceOnUse" x="14" y="7" width="20" height="35">
<path d="M28.6057 9.15291L28.6747 9.13567C28.6832 9.16965 28.6817 9.19647 28.6815 9.20107L28.6815 9.20146C28.6813 9.20391 28.6812 9.20602 28.681 9.20772C28.6809 9.20913 28.6808 9.21025 28.6807 9.21107L28.6803 9.21436L28.6803 9.21443C28.6803 9.21443 28.6805 9.21303 28.6811 9.20991L28.6842 9.19615C28.69 9.17174 28.6999 9.13525 28.714 9.0872C28.7419 8.99198 28.7826 8.86359 28.8292 8.72099C28.8846 8.55142 28.9475 8.36457 29.0056 8.19468L30.925 9.52931L30.9248 9.5296L30.9361 9.53657C31.4555 9.8584 31.8132 10.4367 31.85 11.1781L33.0457 35.2825C33.1126 36.6309 32.0877 37.9627 30.7672 38.2434L18.8357 40.7795C18.2168 40.9111 17.6535 40.7866 17.2269 40.4891L16.9984 40.3297L16.997 40.3323L15.1215 39.0278L16.4253 32.6061L16.4345 32.5607L16.4268 32.515C16.4117 32.425 16.4016 32.3319 16.3968 32.236L16.3969 32.236L16.3966 32.2313L15.201 14.796C15.1353 13.4484 16.1598 12.1179 17.4796 11.8374L28.6208 9.46927L28.6057 9.15291ZM28.6057 9.15291L28.6747 9.13566C28.6625 9.08699 28.6384 9.05271 28.6203 9.0323C28.613 9.02402 28.6057 9.01695 28.599 9.01099L28.6057 9.15291Z" fill="black" stroke="black" stroke-width="0.5"/>
</mask>
<g mask="url(#mask0_4235_35231)">
<path d="M28.6057 9.15291L28.6747 9.13567C28.6832 9.16965 28.6817 9.19647 28.6815 9.20107L28.6815 9.20146C28.6813 9.20391 28.6812 9.20602 28.681 9.20772C28.6809 9.20913 28.6808 9.21025 28.6807 9.21107L28.6803 9.21436L28.6803 9.21443C28.6803 9.21443 28.6805 9.21303 28.6811 9.20991L28.6842 9.19615C28.69 9.17174 28.6999 9.13525 28.714 9.0872C28.7419 8.99198 28.7826 8.86359 28.8292 8.72099C28.8846 8.55142 28.9475 8.36457 29.0056 8.19468L30.925 9.52931L30.9248 9.5296L30.9361 9.53657C31.4555 9.8584 31.8132 10.4367 31.85 11.1781L33.0457 35.2825C33.1126 36.6309 32.0877 37.9627 30.7672 38.2434L18.8357 40.7795C18.2168 40.9111 17.6535 40.7866 17.2269 40.4891L16.9984 40.3297L16.997 40.3323L15.1215 39.0278L16.4253 32.6061L16.4345 32.5607L16.4268 32.515C16.4117 32.425 16.4016 32.3319 16.3968 32.236L16.3969 32.236L16.3966 32.2313L15.201 14.796C15.1353 13.4484 16.1598 12.1179 17.4796 11.8374L28.6208 9.46927L28.6057 9.15291ZM28.6057 9.15291L28.6747 9.13566C28.6625 9.08699 28.6384 9.05271 28.6203 9.0323C28.613 9.02402 28.6057 9.01695 28.599 9.01099L28.6057 9.15291Z" fill="black" stroke="black" stroke-width="0.5"/>
<path d="M27.9764 35.0486L32.0096 37.7761L31.2019 38.1905L26.8342 35.1867L27.9764 35.0486Z" fill="#44494F"/>
<path d="M34.2414 34.0348L30.5157 31.5122L29.1447 34.3178L33.2106 37.0742L34.2414 34.0348Z" fill="#44494F"/>
<path d="M16.6434 38.6697L20.6532 41.3007L17.8991 42.2707L13.4199 39.3801L16.6434 38.6697Z" fill="#44494F"/>
<path d="M19.656 40.1243L23.5098 39.2573" stroke="#25D17F" stroke-width="0.5" stroke-linecap="round"/>
<path d="M30.8691 9.93986C31.0976 10.1205 31.4175 10.4754 31.5067 11.7252C31.5067 11.9421 31.7246 16.0878 31.8255 17.9742" stroke="#25D17F" stroke-width="0.5" stroke-linecap="round"/>
<path d="M28.6057 9.15291L28.6747 9.13567C28.6832 9.16965 28.6817 9.19647 28.6815 9.20107L28.6815 9.20146C28.6813 9.20391 28.6812 9.20602 28.681 9.20772C28.6809 9.20913 28.6808 9.21025 28.6807 9.21107L28.6803 9.21436L28.6803 9.21443C28.6803 9.21443 28.6805 9.21303 28.6811 9.20991L28.6842 9.19615C28.69 9.17174 28.6999 9.13525 28.714 9.0872C28.7419 8.99198 28.7826 8.86359 28.8292 8.72099C28.8846 8.55142 28.9475 8.36457 29.0056 8.19468L30.925 9.52931L30.9248 9.5296L30.9361 9.53657C31.4555 9.85841 31.8132 10.4367 31.85 11.1781L33.0458 35.2825C33.1126 36.6309 32.0877 37.9627 30.7672 38.2434L18.8357 40.7795C18.2168 40.9111 17.6535 40.7866 17.2269 40.4891L16.9986 40.3299L16.9971 40.3325L15.1215 39.0278L16.4253 32.6061L16.4345 32.5607L16.4268 32.515C16.4117 32.425 16.4016 32.3319 16.3968 32.2361L16.3969 32.236L16.3966 32.2313L15.201 14.796C15.1353 13.4484 16.1598 12.1179 17.4796 11.8374L28.6208 9.46927L28.6057 9.15291ZM28.6057 9.15291L28.6747 9.13566C28.6625 9.08699 28.6384 9.05271 28.6203 9.0323C28.613 9.02402 28.6057 9.01695 28.599 9.01099L28.6057 9.15291Z" stroke="black" stroke-width="0.5"/>
</g>
<rect x="0.256924" y="0.197715" width="17.0314" height="28.9674" rx="2.41667" transform="matrix(0.978148 -0.207912 0.0495471 0.998772 12.5427 10.6166)" fill="#777E87" stroke="black" stroke-width="0.5"/>
<mask id="mask1_4235_35231" style="mask-type:alpha" maskUnits="userSpaceOnUse" x="13" y="8" width="17" height="31">
<rect x="0.256924" y="0.197715" width="14.7175" height="26.353" rx="1.75" transform="matrix(0.978148 -0.207912 0.0495471 0.998772 13.74 11.6818)" fill="white" stroke="#B8A9A9" stroke-width="0.5"/>
</mask>
<g mask="url(#mask1_4235_35231)">
<rect x="-0.256924" y="-0.197715" width="15.7175" height="27.353" rx="2.25" transform="matrix(0.978148 -0.207912 0.0495471 0.998772 13.7483 11.5745)" fill="#777E87" stroke="#44494F" stroke-width="0.5"/>
<path d="M16.6074 10.3721L16.8778 16.7871L18.9324 18.8122" stroke="#44494F" stroke-width="1.33333" stroke-linecap="round"/>
<path d="M26.8465 22.1305L20.2246 15.537L20.829 14.1027L25.8095 13.0793L25.6165 8.26904" stroke="#44494F" stroke-width="1.33333" stroke-linecap="round"/>
<path d="M12.6406 31.6458C12.8464 31.6164 14.9307 31.1927 15.9472 30.9845L20.1722 33.6298L20.4745 39.6794" stroke="#44494F" stroke-width="1.33333" stroke-linecap="round"/>
<path d="M26.9182 22.2129L27.2732 29.5554L23.5859 32.4932L24.0437 41.4222" stroke="#44494F" stroke-width="1.33333" stroke-linecap="round"/>
<rect x="0.256924" y="0.197715" width="14.7175" height="26.353" rx="1.75" transform="matrix(0.978148 -0.207912 0.0495471 0.998772 13.74 11.6818)" stroke="#44494F" stroke-width="0.5"/>
</g>
<circle cx="6.48944" cy="6.48944" r="6.23944" transform="matrix(0.978148 -0.207912 0.0495471 0.998772 15.1818 17.9524)" fill="#777E87" stroke="#44494F" stroke-width="0.5"/>
<path d="M18.9788 21.6613C17.9678 23.456 18.4339 25.5481 20.019 26.3343C21.2418 26.9404 22.8243 26.6041 23.9621 25.4962L18.9788 21.6613ZM19.7382 20.6733L24.7215 24.5082C25.7325 22.7134 25.2675 20.6211 23.6813 19.8351C22.4585 19.229 20.876 19.5654 19.7382 20.6733ZM22.0799 27.7152C19.575 28.2476 17.4427 26.6056 17.3159 24.0491C17.189 21.4925 19.1156 18.9867 21.6204 18.4542C24.1253 17.9218 26.2576 19.5638 26.3845 22.1215C26.5114 24.6791 24.5847 27.1828 22.0799 27.7152Z" fill="#F66754" stroke="#F66754" stroke-width="0.3"/>
</g>
<defs>
<clipPath id="clip0_4235_35231">
<rect width="48" height="48" rx="24" fill="white"/>
</clipPath>
</defs>
</svg>
