<svg width="148" height="148" viewBox="0 0 148 148" fill="none" xmlns="http://www.w3.org/2000/svg">
<path d="M25.1524 111.838V106.691C25.1524 108.66 26.7303 110.663 30.0603 112.545C41.6936 119.162 70.3686 121.926 94.103 118.737C111.047 116.463 120.895 111.751 120.906 106.843V111.99C120.884 116.898 111.047 121.599 94.0921 123.885C70.3577 127.073 41.6827 124.298 30.0495 117.693C26.7195 115.799 25.1415 113.797 25.1524 111.838Z" fill="#D5DFE2" stroke="#1D1D1D" stroke-width="0.35" stroke-linecap="round" stroke-linejoin="round"/>
<path d="M112.342 98.7901C101.699 92.7395 75.4838 90.2039 53.7735 93.1312C32.0741 96.0477 23.1071 103.317 33.75 109.368C44.393 115.418 70.6085 117.954 92.3188 115.027C114.018 112.11 122.985 104.841 112.342 98.7901Z" fill="white"/>
<path d="M59.8342 115.647L61.2707 114.134C61.4775 113.916 61.336 113.557 61.0422 113.525C52.4233 112.665 44.9363 110.913 40.5942 108.443C40.4419 108.356 40.3004 108.269 40.1589 108.181C39.6039 107.844 38.951 107.735 38.3089 107.844L32.8242 108.813" stroke="#D5DFE2" stroke-width="0.35" stroke-linecap="round" stroke-linejoin="round"/>
<path d="M29.7117 101.032L33.4226 98.8442C27.9814 102.055 27.6549 105.907 33.7382 109.367C44.3811 115.418 70.5967 117.954 92.307 115.026C113.767 112.142 122.767 105.004 112.69 98.9966C113.919 99.7366 115.16 100.466 116.39 101.206C127.413 107.768 117.565 115.57 94.1026 118.726C70.3682 121.915 41.6932 119.14 30.0599 112.534C23.4108 108.758 23.7591 104.547 29.7117 101.032Z" fill="white" stroke="#91A5AA" stroke-width="0.35" stroke-linecap="round" stroke-linejoin="round"/>
<path d="M120.907 110.01V109.444C120.885 111.37 119.351 113.253 116.478 114.972C116.238 115.114 116.032 115.32 115.89 115.56C115.596 116.071 115.324 116.528 115.031 117.029C114.867 117.312 114.617 117.54 114.323 117.682C109.6 119.913 102.461 121.785 93.3202 122.96C93.0699 122.992 92.8196 122.916 92.6347 122.753L91.7967 122.013C91.5138 121.763 91.1438 121.643 90.7738 121.687C78.9991 122.971 66.2994 122.873 55.2102 121.621C54.9055 121.589 54.6008 121.687 54.3614 121.893L53.5452 122.622C53.3058 122.84 52.9794 122.938 52.6638 122.895C44.1211 121.763 36.7102 119.935 31.6826 117.519C31.4323 117.399 31.2364 117.214 31.1058 116.975C30.812 116.474 30.4747 115.875 30.2352 115.484C30.1699 115.364 30.0611 115.19 29.9088 115.048C29.7129 114.874 29.4735 114.744 29.4191 114.711C27.7214 113.666 26.557 112.589 25.8714 111.512C25.5776 111.033 25.3708 110.565 25.262 110.086C25.1967 109.803 25.1641 109.52 25.1641 109.248V112.513C25.1641 112.73 25.1967 112.992 25.2511 113.209C25.2511 113.22 25.2511 113.242 25.262 113.253C25.3164 113.481 25.3817 113.71 25.4797 113.938C25.4797 113.938 25.4905 113.96 25.4905 113.971C25.5885 114.2 25.7082 114.439 25.8497 114.667C25.8497 114.678 25.8714 114.7 25.8823 114.711C26.0238 114.94 26.187 115.168 26.3829 115.397C26.4155 115.429 26.4482 115.462 26.4808 115.495C26.6658 115.701 26.8508 115.908 27.0685 116.115C27.1338 116.18 27.2099 116.235 27.2861 116.3C27.482 116.474 27.6779 116.659 27.9064 116.833C28.0479 116.942 28.2111 117.051 28.3635 117.16C28.5376 117.29 28.7008 117.421 28.8967 117.54C29.2558 117.78 29.6367 118.008 30.0502 118.248C35.1214 121.132 43.4355 123.275 53.1535 124.527C54.6661 124.723 56.2114 124.897 57.7894 125.038C57.8329 125.038 57.8764 125.038 57.9199 125.049C59.4435 125.191 60.9888 125.31 62.5558 125.419C62.6538 125.419 62.7517 125.43 62.8388 125.441C64.3732 125.539 65.9294 125.615 67.4964 125.67C67.5944 125.67 67.6814 125.67 67.7794 125.67C69.3899 125.724 71.0114 125.757 72.6329 125.757C72.6655 125.757 72.6982 125.757 72.7308 125.757C79.9023 125.778 87.2044 125.365 94.082 124.44C103.136 123.221 110.166 121.317 114.748 119.053C115.727 118.563 116.598 118.063 117.348 117.551C117.37 117.54 117.381 117.53 117.403 117.519C117.751 117.279 118.078 117.029 118.382 116.779C118.415 116.757 118.448 116.724 118.469 116.702C118.752 116.463 119.013 116.213 119.253 115.973C119.286 115.941 119.318 115.908 119.34 115.875C119.568 115.636 119.764 115.386 119.949 115.146C119.971 115.114 119.993 115.081 120.026 115.037C120.2 114.787 120.341 114.537 120.461 114.297C120.472 114.265 120.493 114.232 120.504 114.2C120.624 113.949 120.711 113.688 120.776 113.427C120.776 113.405 120.776 113.383 120.787 113.362C120.842 113.09 120.885 112.828 120.885 112.556V111.664V110.01H120.907Z" fill="#2E4247" stroke="#1D1D1D" stroke-width="0.35" stroke-linecap="round" stroke-linejoin="round"/>
<path d="M116.401 101.206C115.171 100.466 113.93 99.7368 112.701 98.9968C112.809 99.0621 112.896 99.1274 112.994 99.1818C112.788 99.0512 112.57 98.9206 112.341 98.7901C101.698 92.7395 75.4829 90.2039 53.7726 93.1312C44.3811 94.3936 37.3838 96.4721 33.3138 98.9098C33.3464 98.888 33.3791 98.8662 33.4226 98.8445L29.7117 101.032C23.7591 104.547 23.4108 108.758 30.0599 112.534C41.6932 119.151 70.3682 121.915 94.1026 118.727C117.565 115.571 127.413 107.768 116.39 101.206H116.401Z" stroke="#1D1D1D" stroke-width="0.35" stroke-linecap="round" stroke-linejoin="round"/>
<path d="M110.156 99.0838C109.655 98.8009 109.1 98.5179 108.523 98.2459C108.414 98.1914 108.284 98.1697 108.153 98.1914L105.128 98.5397C104.965 98.5614 104.845 98.7791 105.019 98.8662C105.52 99.0947 105.988 99.345 106.423 99.5844C110.362 101.826 111.135 104.253 109.242 106.495C109.046 106.734 109.176 107.093 109.481 107.137L112.18 107.507C112.387 107.539 112.593 107.463 112.746 107.322C115.488 104.688 114.846 101.761 110.145 99.0947L110.156 99.0838Z" fill="#D5DFE2"/>
<path d="M56.0799 94.5894C55.699 94.4153 54.5672 93.9147 54.5672 93.9147C54.4258 93.8494 54.2734 93.8385 54.1319 93.8494C39.9849 95.8517 31.7796 99.8347 31.7578 103.992C31.7578 104.307 32.0081 104.568 32.3237 104.547L35.2728 104.373C35.534 104.362 35.7625 104.155 35.7734 103.894C35.9258 100.172 43.2931 96.6244 55.9493 94.8397C56.1343 94.8179 56.341 94.6982 56.0799 94.5785V94.5894Z" fill="#D5DFE2"/>
<path d="M100.533 100.509C97.1052 98.5615 91.3485 97.1359 84.6667 96.3633L73.3164 102.229L86.1141 111.305C86.582 111.642 87.1696 111.784 87.7464 111.697C102.046 109.553 107.781 104.634 100.544 100.52L100.533 100.509Z" stroke="#D5DFE2" stroke-width="0.35" stroke-linecap="round" stroke-linejoin="round"/>
<path d="M51.2924 99.3123C52.6201 98.8662 53.1316 98.7138 54.0566 98.4526C52.6092 98.9859 50.9877 99.4212 49.9866 100.651C49.301 101.489 49.2139 102.501 49.856 103.393C50.3566 104.079 51.0857 104.579 51.8148 104.993C57.5607 108.258 71.7186 109.629 83.4498 108.051C95.1701 106.473 100.013 102.544 94.2668 99.2797C94.2668 99.2797 96.7371 100.216 97.5424 100.607C99.5774 101.565 100.47 102.86 100.415 104.014C100.296 106.789 94.6804 109.444 85.0821 110.728C71.501 112.556 55.1013 110.967 48.4413 107.18C47.3639 106.571 46.0907 105.7 45.7316 104.438C45.4268 103.382 45.9601 102.381 46.7436 101.706C47.6577 100.912 49.7036 99.8456 51.2816 99.3123H51.2924Z" fill="#2E4247" stroke="#1D1D1D" stroke-width="0.35" stroke-linecap="round" stroke-linejoin="round"/>
<path d="M96.5302 100.314C102.896 103.927 97.5314 108.269 84.5596 110.021C71.5878 111.762 55.9172 110.249 49.5511 106.636C43.1849 103.023 48.5499 98.6812 61.5217 96.9292C74.4934 95.188 90.164 96.7006 96.5302 100.314Z" fill="white" stroke="#1D1D1D" stroke-width="0.35" stroke-linecap="round" stroke-linejoin="round"/>
<path d="M96.5302 100.314C102.896 103.927 97.5314 108.269 84.5596 110.021C71.5878 111.762 55.9172 110.249 49.5511 106.636C43.1849 103.023 48.5499 98.6812 61.5217 96.9292C74.4934 95.188 90.164 96.7006 96.5302 100.314Z" fill="#D5DFE2" stroke="#1D1D1D" stroke-width="0.35" stroke-linecap="round" stroke-linejoin="round"/>
<path d="M98.0324 101.587C98.0324 101.587 97.9562 101.511 97.9127 101.467L74.4394 105.526L95.2138 99.813C95.1377 99.7804 95.0724 99.7477 94.9962 99.7151L74.2327 105.428L90.9371 98.3548C90.8391 98.333 90.7412 98.3004 90.6324 98.2786L73.9497 105.341L85.6047 97.2666C85.485 97.2448 85.3544 97.2339 85.2347 97.2121L73.5906 105.276L79.5759 96.5918C79.4453 96.5918 79.3147 96.5701 79.1841 96.5592L73.1988 105.243V96.3416C73.0574 96.3416 72.9268 96.3416 72.7853 96.3416V105.232L66.7891 96.5266C66.6585 96.5266 66.5171 96.5483 66.3865 96.5483L72.3827 105.254L60.7059 97.1577C60.5862 97.1795 60.4556 97.1904 60.3359 97.2121L72.0235 105.309L55.2756 98.2242C55.1777 98.246 55.0688 98.2786 54.9709 98.3004L71.7297 105.396L50.9444 99.6824C50.8683 99.7151 50.7921 99.7477 50.7268 99.7804L71.5338 105.504L48.0933 101.456C48.0933 101.456 48.0171 101.532 47.9844 101.576L71.4359 105.624L47.0703 103.415C47.0703 103.415 47.0703 103.491 47.0703 103.535L71.4359 105.744L48.0497 105.407C48.0497 105.407 48.1259 105.483 48.1694 105.526L71.5338 105.864L50.9335 107.224C51.0097 107.257 51.0968 107.289 51.173 107.322L71.7406 105.962L55.3518 108.704C55.4606 108.726 55.5585 108.758 55.6674 108.791L72.0453 106.049L60.7494 109.781C60.8691 109.803 60.9997 109.814 61.1303 109.836L72.4044 106.103L66.6694 110.423C66.8 110.423 66.9306 110.445 67.0612 110.456L72.8071 106.125V110.652C72.9485 110.652 73.0791 110.652 73.2206 110.652V106.125L78.9883 110.478C79.1188 110.478 79.2603 110.467 79.3909 110.456L73.6124 106.103L85.0171 109.879C85.1477 109.857 85.2674 109.847 85.398 109.825L73.9715 106.038L90.5671 108.824C90.6759 108.802 90.7847 108.769 90.8935 108.747L74.2544 105.962L95.0941 107.344C95.1703 107.311 95.2465 107.278 95.3227 107.235L74.4612 105.853L98.0541 105.515C98.0541 105.515 98.1303 105.439 98.163 105.396L74.57 105.733L99.0662 103.513C99.0662 103.513 99.0662 103.437 99.0662 103.393L74.5809 105.613L98.065 101.554L98.0324 101.587Z" fill="white"/>
<path d="M88.0624 103.763C92.1324 106.07 88.7044 108.845 80.4121 109.966C72.1197 111.076 62.0971 110.108 58.038 107.801C53.968 105.493 57.3959 102.718 65.6883 101.598C73.9806 100.477 84.0033 101.456 88.0624 103.763Z" fill="white"/>
<path d="M82.7316 104.623C85.3542 106.114 83.1451 107.909 77.791 108.628C72.4369 109.346 65.9728 108.726 63.3501 107.235C60.7275 105.744 62.9366 103.948 68.2907 103.23C73.6448 102.512 80.1089 103.132 82.7316 104.623Z" fill="#F55454"/>
<path d="M18.6784 94.5568C16.2407 89.268 39.0719 73.5212 69.6948 59.3851C100.307 45.2489 127.11 38.0774 129.548 43.3662" stroke="#1D1D1D" stroke-width="0.35" stroke-linecap="round" stroke-linejoin="round"/>
<path d="M35.1424 79.8873C36.0559 79.8873 36.7965 79.1468 36.7965 78.2332C36.7965 77.3197 36.0559 76.5791 35.1424 76.5791C34.2289 76.5791 33.4883 77.3197 33.4883 78.2332C33.4883 79.1468 34.2289 79.8873 35.1424 79.8873Z" fill="#F55454"/>
<path d="M45.2361 14.8758C46.6394 14.8758 47.7769 13.7382 47.7769 12.335C47.7769 10.9318 46.6394 9.79419 45.2361 9.79419C43.8329 9.79419 42.6953 10.9318 42.6953 12.335C42.6953 13.7382 43.8329 14.8758 45.2361 14.8758Z" fill="white" stroke="#121212" stroke-width="0.35" stroke-miterlimit="10" stroke-linecap="round" stroke-linejoin="round"/>
<path d="M21.9462 24.1922C22.6478 24.1922 23.2166 23.6234 23.2166 22.9218C23.2166 22.2201 22.6478 21.6514 21.9462 21.6514C21.2446 21.6514 20.6758 22.2201 20.6758 22.9218C20.6758 23.6234 21.2446 24.1922 21.9462 24.1922Z" fill="white" stroke="#121212" stroke-width="0.35" stroke-miterlimit="10" stroke-linecap="round" stroke-linejoin="round"/>
<path d="M29.1783 31.8143L24.9102 36.0825L29.1783 40.3507L33.4465 36.0825L29.1783 31.8143Z" fill="white" stroke="#121212" stroke-width="0.35" stroke-miterlimit="9.9998" stroke-linecap="round" stroke-linejoin="round"/>
<path d="M64.6924 97.0182L64.7063 97.0231L64.7209 97.0255C67.4058 97.473 70.457 97.4454 73.2168 97.4205C73.832 97.415 74.4327 97.4096 75.0116 97.4096C92.0048 97.4096 105.733 81.1649 105.733 61.1893C105.733 41.2137 92.0048 24.9691 75.0116 24.9691C74.5794 24.9691 74.1176 24.9668 73.6356 24.9644C70.7223 24.9496 67.0687 24.9312 64.7154 25.4019L64.7031 25.4043L64.6913 25.4085C52.0127 29.9007 44.2898 44.8505 44.2898 61.1893C44.2898 77.5995 51.9252 92.5899 64.6924 97.0182Z" fill="#D8E2E5" stroke="#1D1D1D" stroke-width="0.35"/>
<mask id="mask0_3378_10368" style="mask-type:alpha" maskUnits="userSpaceOnUse" x="44" y="25" width="62" height="73">
<ellipse cx="75.0116" cy="61.1893" rx="30.5468" ry="36.0452" fill="#D8E2E5"/>
</mask>
<g mask="url(#mask0_3378_10368)">
<rect x="89.6289" y="37.0771" width="15.9192" height="4.97476" transform="rotate(-13.2032 89.6289 37.0771)" fill="white"/>
<rect x="90.6953" y="43.4751" width="15.9192" height="2.06161" transform="rotate(-13.2032 90.6953 43.4751)" fill="white"/>
</g>
<ellipse cx="68.6366" cy="61.1893" rx="30.5468" ry="36.0452" fill="white" stroke="#1D1D1D" stroke-width="0.35"/>
<path d="M68.6371 87.5175C80.7409 87.5175 90.5 75.6979 90.5 61.1894C90.5 46.6809 80.7409 34.8614 68.6371 34.8614C56.5333 34.8614 46.7742 46.6809 46.7742 61.1894C46.7742 75.6979 56.5333 87.5175 68.6371 87.5175Z" fill="url(#paint0_linear_3378_10368)" stroke="#1D1D1D" stroke-width="0.35"/>
<g opacity="0.8">
<mask id="mask1_3378_10368" style="mask-type:alpha" maskUnits="userSpaceOnUse" x="47" y="35" width="44" height="53">
<ellipse cx="68.6879" cy="61.153" rx="21.6879" ry="26.153" fill="url(#paint1_linear_3378_10368)"/>
</mask>
<g mask="url(#mask1_3378_10368)">
<line y1="-0.175" x2="55.0797" y2="-0.175" transform="matrix(0.997859 0.0654031 -0.0165799 0.999863 40.668 32.6499)" stroke="white" stroke-width="0.35"/>
<line y1="-0.175" x2="55.0797" y2="-0.175" transform="matrix(0.997859 0.0654031 -0.0165799 0.999863 40.668 47.959)" stroke="white" stroke-width="0.35"/>
<line y1="-0.175" x2="55.0797" y2="-0.175" transform="matrix(0.997859 0.0654031 -0.0165799 0.999863 40.668 63.2681)" stroke="white" stroke-width="0.35"/>
<line y1="-0.175" x2="55.0797" y2="-0.175" transform="matrix(0.997859 0.0654031 -0.0165799 0.999863 40.668 78.5771)" stroke="white" stroke-width="0.35"/>
<line y1="-0.175" x2="88.0516" y2="-0.175" transform="matrix(0.00354803 0.999994 -0.975806 -0.21864 84.9805 18.5576)" stroke="white" stroke-width="0.35"/>
<line y1="-0.175" x2="88.0516" y2="-0.175" transform="matrix(0.00354803 0.999994 -0.975806 -0.21864 69.8398 20.8296)" stroke="white" stroke-width="0.35"/>
<line y1="-0.175" x2="88.0516" y2="-0.175" transform="matrix(0.00354803 0.999994 -0.975806 -0.21864 54.7031 23.1013)" stroke="white" stroke-width="0.35"/>
</g>
</g>
<path d="M67.719 48.1654C69.0806 48.0661 70.1878 49.2829 70.1901 50.8823L70.2205 63.6819C70.2249 65.283 69.1233 66.6591 67.7617 66.7585C66.4001 66.8578 65.2929 65.641 65.2887 64.0418L65.2581 51.2403C65.2558 49.6409 66.3552 48.2631 67.719 48.1654Z" fill="#1D1D1D" stroke="#1D1D1D" stroke-width="0.307312" stroke-miterlimit="10"/>
<path d="M70.6559 72.7494C71.0202 70.8527 70.0239 69.0579 68.4306 68.7407C66.8373 68.4235 65.2504 69.7039 64.8861 71.6006C64.5219 73.4973 65.5182 75.2921 67.1115 75.6093C68.7047 75.9265 70.2917 74.6461 70.6559 72.7494Z" fill="#1D1D1D" stroke="#1D1D1D" stroke-width="0.307312" stroke-miterlimit="10"/>
<path d="M129.549 43.3552C131.987 48.644 109.156 64.3908 78.5326 78.527C47.9206 92.6632 21.1282 99.8455 18.6797 94.5567" stroke="#1D1D1D" stroke-width="0.35" stroke-linecap="round" stroke-linejoin="round"/>
<path d="M118.384 58.5906C119.808 58.5906 120.963 57.4359 120.963 56.0115C120.963 54.5871 119.808 53.4324 118.384 53.4324C116.959 53.4324 115.805 54.5871 115.805 56.0115C115.805 57.4359 116.959 58.5906 118.384 58.5906Z" fill="#F55454"/>
<defs>
<linearGradient id="paint0_linear_3378_10368" x1="68.6371" y1="35.0364" x2="68.6371" y2="87.3425" gradientUnits="userSpaceOnUse">
<stop stop-color="#F55454"/>
<stop offset="1" stop-color="#F55454" stop-opacity="0.6"/>
</linearGradient>
<linearGradient id="paint1_linear_3378_10368" x1="68.6879" y1="35" x2="68.6879" y2="87.3061" gradientUnits="userSpaceOnUse">
<stop stop-color="white"/>
<stop offset="1" stop-color="white" stop-opacity="0"/>
</linearGradient>
</defs>
</svg>
