<svg width="48" height="48" viewBox="0 0 48 48" fill="none" xmlns="http://www.w3.org/2000/svg">
<g clip-path="url(#clip0_4286_23256)">
<circle cx="24" cy="24" r="24" fill="#F3F3F3" fill-opacity="0.04"/>
<g clip-path="url(#clip1_4286_23256)">
<mask id="mask0_4286_23256" style="mask-type:alpha" maskUnits="userSpaceOnUse" x="9" y="9" width="29" height="32">
<path d="M37.9617 22.7641C38.356 30.7112 32.3843 38.5772 24.6236 40.3333C19.5205 41.488 13.5073 38.9004 10.8391 35.29C10.4088 34.7078 11.4361 34.8909 11.1126 34.2177C10.7957 33.5581 11.7401 32.7174 11.5372 31.9793C10.6592 31.0013 10.1882 28.7567 10.1882 27.4358C10.1882 24.6226 10.5037 23.0772 11.2587 21.7761C10.9272 21.5874 9.89387 20.9412 9.68372 20.4158C9.95842 19.8284 12.0293 20.1972 12.3656 19.6411C14.768 15.6681 18.6789 12.5762 23.1959 11.5542C25.4216 11.0505 26.0531 9.39462 27.9701 9.91475C29.8322 10.4199 32.992 13.0748 34.3405 14.377C36.4446 16.409 37.7904 19.3099 37.9617 22.7641Z" fill="black"/>
</mask>
<g mask="url(#mask0_4286_23256)">
<path d="M37.9618 22.7641C38.356 30.7112 32.3843 38.5772 24.6236 40.3333C19.5205 41.488 13.5073 38.9004 10.8391 35.29C10.4088 34.7078 11.4362 34.8909 11.1127 34.2177C10.7957 33.5581 11.7401 32.7174 11.5372 31.9793C10.6592 31.0013 10.1883 28.7567 10.1883 27.4358C10.1883 24.6226 10.5038 23.0772 11.2588 21.7761C10.9273 21.5874 9.89393 20.9412 9.68378 20.4158C9.95848 19.8284 12.0293 20.1972 12.3656 19.6411C14.7681 15.6681 18.679 12.5762 23.1959 11.5542C25.4217 11.0505 26.0531 9.39462 27.9702 9.91475C29.8322 10.4199 32.992 13.0748 34.3406 14.377C36.4447 16.409 37.7904 19.3099 37.9618 22.7641Z" fill="black"/>
<path d="M34.0005 22.5001C34.3948 30.4472 30.2613 33.744 22.5005 35.5001C17.3975 36.6548 15.1688 38.1104 12.5005 34.5001C12.0702 33.9179 11.4361 34.891 11.1126 34.2178C10.7957 33.5583 11.7401 32.7175 11.5372 31.9794C10.6591 31.0014 10.1882 28.7568 10.1882 27.4359C10.1882 24.6227 10.5037 23.0774 11.2587 21.7763C10.9272 21.5875 9.89386 20.9413 9.68371 20.4159C9.9584 19.8285 12.0293 20.1973 12.3655 19.6412C14.768 15.6682 16.9836 12.5223 21.5006 11.5002C23.7263 10.9966 25.583 11.4801 27.5 12.0002C29.3621 12.5054 30.652 14.1979 32.0006 15.5002C34.1047 17.5321 33.8292 19.0459 34.0005 22.5001Z" fill="#777E87"/>
<path d="M16.0226 36.9143L21.2086 40.8202L15.3495 39.939L11.0807 35.8394L16.0226 36.9143Z" fill="#44494F"/>
<path d="M36.0396 18.5427C36.6683 19.381 37.0401 21.3795 37.1065 22.7175C37.1948 24.498 37.1065 27.1111 35.6967 29.5356" stroke="#25D17F" stroke-width="0.5" stroke-linecap="round"/>
<path d="M25.4499 37.8649C24.5129 38.4228 23.1769 38.7553 22.1967 38.9555" stroke="#25D17F" stroke-width="0.5" stroke-linecap="round"/>
<path d="M26.6603 37.5925L25.953 36.6248L34.3848 26.5538L35.4114 27.3741C33.7722 32.1501 29.9554 36.2247 26.6603 37.5925Z" fill="#44494F"/>
<path d="M11.2224 29.6121L21.8975 27.3103L21.1798 28.2439L21.1797 28.2438L21.1714 28.2551C20.8287 28.7215 20.6535 29.2811 20.6833 29.8144C20.713 30.3476 20.9453 30.8123 21.3306 31.1093C21.7159 31.4063 22.2237 31.5121 22.7456 31.4041C23.2674 31.296 23.7621 30.9827 24.1239 30.5311L24.1241 30.5312L24.1328 30.5197L27.429 26.211C27.429 26.2109 27.4291 26.2108 27.4291 26.2108C27.6972 25.8613 27.9044 25.4704 28.0387 25.0608C28.1731 24.6511 28.2319 24.2309 28.2117 23.8245C28.1916 23.418 28.0928 23.0335 27.9213 22.693C27.7497 22.3526 27.5087 22.0631 27.2122 21.8413L27.2122 21.8413L23.5506 19.1024L23.5507 19.1023L23.5414 19.0957C23.1432 18.816 22.6288 18.7311 22.1079 18.859C21.5871 18.9869 21.1009 19.3176 20.7533 19.7804C20.4057 20.2433 20.2242 20.8016 20.2474 21.3363C20.2707 21.8711 20.4969 22.3398 20.8777 22.6425L20.883 22.6467L20.8883 22.6506L21.6634 23.2237L11.027 25.5171L11.027 25.5171L11.022 25.5182C10.4919 25.6381 9.99424 25.9688 9.63846 26.4374C9.28268 26.9061 9.09794 27.4743 9.12487 28.0171C9.15179 28.5599 9.38819 29.0328 9.78205 29.3318C10.1752 29.6303 10.6932 29.7311 11.2224 29.6121Z" fill="black" stroke="#2B2B2B"/>
<path d="M11.7729 31.8723L11.7596 31.8239L11.7277 31.7884C11.3202 31.3346 10.9938 30.567 10.7695 29.7306C10.5464 28.8984 10.4324 28.0283 10.4324 27.3934C10.4324 24.5931 10.7482 23.1106 11.4619 21.8807L11.5926 21.6556L11.4014 21.5467C11.2408 21.4552 10.9075 21.2513 10.5904 21.0074C10.4319 20.8854 10.2807 20.756 10.1581 20.628C10.0925 20.5594 10.0383 20.4946 9.99617 20.4349C10.0442 20.4138 10.1071 20.3931 10.1866 20.3742C10.403 20.3226 10.6788 20.2974 10.9808 20.2716C10.9931 20.2705 11.0055 20.2695 11.0179 20.2684C11.2988 20.2445 11.5998 20.2189 11.853 20.1644C11.9859 20.1359 12.1194 20.0967 12.2377 20.0381C12.3552 19.9798 12.4811 19.8907 12.5658 19.7506C14.927 15.8459 18.7699 12.8082 23.2083 11.8038C24.1915 11.5814 24.8886 11.1386 25.4751 10.7661C25.5848 10.6965 25.6906 10.6292 25.7937 10.5664C26.1236 10.3653 26.4224 10.2092 26.7458 10.1292C27.0655 10.05 27.4255 10.0415 27.8736 10.1631C28.7643 10.4048 29.9936 11.1734 31.1855 12.0635C32.3698 12.948 33.4908 13.9319 34.1597 14.5778C36.2273 16.5746 37.5496 19.4248 37.718 22.8192C38.1054 30.6285 32.2373 38.358 24.6112 40.0836C22.1168 40.648 19.3824 40.3001 16.9345 39.3566C14.4871 38.4132 12.3493 36.8833 11.0414 35.1136C11.0152 35.0782 10.9994 35.0516 10.99 35.0328C11.0035 35.023 11.0208 35.0111 11.0439 34.9953C11.0477 34.9927 11.0517 34.99 11.0561 34.987C11.1279 34.9384 11.2747 34.839 11.3574 34.6767C11.4589 34.4774 11.43 34.2726 11.3347 34.0741C11.232 33.8605 11.3196 33.6098 11.5008 33.2023C11.5098 33.1821 11.519 33.1614 11.5285 33.1404C11.6856 32.7897 11.896 32.3201 11.7729 31.8723ZM10.9763 34.9967C10.9764 34.9967 10.9765 34.9972 10.9765 34.9983L10.9763 34.9967Z" stroke="black" stroke-width="0.5"/>
</g>
<mask id="mask1_4286_23256" style="mask-type:alpha" maskUnits="userSpaceOnUse" x="9" y="9" width="27" height="30">
<path d="M22.8623 9.61422C20.3773 9.80323 17.8753 10.7019 15.6271 12.213C13.379 13.7241 11.4704 15.79 10.108 18.187C9.98544 18.4029 9.90119 18.6352 9.86005 18.8705C9.81892 19.1059 9.82171 19.3398 9.86826 19.5588C9.91482 19.7778 10.0042 19.9776 10.1314 20.1469C10.2585 20.3163 10.4209 20.4517 10.6093 20.5455C10.9898 20.735 11.453 20.7436 11.8971 20.5693C12.117 20.483 12.3255 20.3544 12.5108 20.1909C12.6962 20.0273 12.8546 19.8321 12.9772 19.6162C14.1599 17.5346 15.8874 15.7933 17.912 14.642C19.9365 13.4906 22.1542 12.9883 24.247 13.2071C26.3398 13.4258 28.2003 14.3544 29.5618 15.8597C30.9233 17.365 31.7158 19.3696 31.8258 21.5863C31.9357 23.803 31.3575 26.1178 30.1739 28.199C28.9904 30.2802 27.2623 32.0208 25.2374 33.1713C23.2125 34.3217 20.9948 34.8231 18.9022 34.6033C16.8097 34.3836 14.9497 33.454 13.5889 31.948C13.4471 31.7925 13.2723 31.6734 13.0745 31.5974C12.8768 31.5214 12.6599 31.4901 12.4363 31.5052C11.9847 31.5356 11.5331 31.7533 11.1809 32.1104C10.8287 32.4675 10.6047 32.9347 10.5581 33.4092C10.5116 33.8837 10.6464 34.3267 10.9329 34.6407C12.7827 36.6918 15.3253 37.9417 18.1817 38.2041C21.0381 38.4665 24.0555 37.7273 26.7841 36.0966C29.5128 34.466 31.8066 32.0312 33.3238 29.1552C34.8411 26.2792 35.5004 23.1158 35.2036 20.1366C34.5872 13.979 28.9357 9.12878 22.8623 9.61422Z" fill="white"/>
</mask>
<g mask="url(#mask1_4286_23256)">
<path d="M9.90334 18.0851L9.90342 18.085C11.2901 15.6451 13.2328 13.5424 15.521 12.0043C17.8091 10.4664 20.3556 9.55166 22.8849 9.35921C25.9879 9.11132 28.9698 10.2261 31.2516 12.1756C33.5335 14.1252 35.1317 16.9236 35.4465 20.0688L35.4465 20.069C35.7486 23.1014 35.0775 26.3212 33.5332 29.2485C31.9889 32.1759 29.6542 34.6541 26.8768 36.3138C24.0995 37.9735 21.0283 38.7259 18.1209 38.4589C15.2136 38.1919 12.6258 36.9198 10.743 34.8323C10.416 34.4735 10.2622 33.9675 10.3153 33.4255C10.3684 32.8833 10.6244 32.3495 11.0268 31.9415C11.4293 31.5335 11.9453 31.2848 12.4613 31.25C12.7168 31.2328 12.9646 31.2686 13.1906 31.3554C13.4166 31.4422 13.6163 31.5783 13.7784 31.756L13.779 31.7567C15.1073 33.2269 16.9231 34.1343 18.9659 34.3488C21.0086 34.5633 23.1736 34.0739 25.1503 32.9508C27.127 31.8277 28.814 30.1285 29.9694 28.0969C31.1248 26.0652 31.6893 23.8054 31.5819 21.6415C31.4746 19.4775 30.7009 17.5206 29.3718 16.0511C28.0427 14.5816 26.2265 13.6751 24.1835 13.4616C22.1404 13.2481 19.9756 13.7384 17.9992 14.8624C16.0228 15.9863 14.3365 17.6861 13.1818 19.7181L9.90334 18.0851ZM9.90334 18.0851C9.7633 18.3318 9.66703 18.5972 9.62003 18.8661M9.90334 18.0851L9.62003 18.8661M9.62003 18.8661C9.57303 19.135 9.57621 19.4023 9.62941 19.6525M9.62003 18.8661L9.62941 19.6525M9.62941 19.6525C9.6826 19.9028 9.78476 20.1311 9.93005 20.3246M9.62941 19.6525L9.93005 20.3246M9.93005 20.3246C10.0753 20.5181 10.2609 20.6728 10.4762 20.7801M9.93005 20.3246L10.4762 20.7801M10.4762 20.7801C10.9109 20.9966 11.4402 21.0064 11.9477 20.8072M10.4762 20.7801L11.9477 20.8072M11.9477 20.8072C12.1989 20.7086 12.4372 20.5617 12.649 20.3748M11.9477 20.8072L12.649 20.3748M12.649 20.3748C12.8607 20.188 13.0417 19.9649 13.1818 19.7182L12.649 20.3748Z" fill="#777E87" stroke="black" stroke-width="0.5"/>
<path d="M12.9772 19.6162C14.1599 17.5346 15.8874 15.7933 17.912 14.642C19.9365 13.4906 22.1542 12.9883 24.247 13.2071C26.3398 13.4258 28.2003 14.3544 29.5618 15.8597C30.9233 17.365 31.7158 19.3696 31.8258 21.5863C31.9357 23.803 31.3575 26.1178 30.1739 28.199C28.9903 30.2802 27.2622 32.0208 25.2374 33.1713C23.2125 34.3218 20.9948 34.8231 18.9022 34.6033C16.8096 34.3836 14.9497 33.4541 13.5889 31.948" stroke="#25D17F" stroke-width="2" stroke-linecap="round"/>
</g>
<path d="M9.90334 18.0851L9.90342 18.085C11.2901 15.6451 13.2328 13.5424 15.521 12.0043C17.8091 10.4664 20.3556 9.55166 22.8849 9.35921C25.9879 9.11132 28.9698 10.2261 31.2516 12.1756C33.5335 14.1252 35.1317 16.9236 35.4465 20.0688L35.4465 20.069C35.7486 23.1014 35.0775 26.3212 33.5332 29.2485C31.9889 32.1759 29.6542 34.6541 26.8768 36.3138C24.0995 37.9735 21.0283 38.7259 18.1209 38.4589C15.2136 38.1919 12.6258 36.9198 10.743 34.8322C10.416 34.4735 10.2622 33.9675 10.3153 33.4256C10.3684 32.8834 10.6244 32.3495 11.0268 31.9415C11.4293 31.5335 11.9453 31.2848 12.4613 31.25C12.7168 31.2328 12.9646 31.2686 13.1906 31.3554L13.0745 31.5974L13.1906 31.3554C13.4166 31.4422 13.6163 31.5783 13.7784 31.756L13.779 31.7567C15.1073 33.2269 16.9231 34.1343 18.9659 34.3488C21.0086 34.5633 23.1736 34.0739 25.1503 32.9508C27.127 31.8277 28.814 30.1285 29.9694 28.0969C31.1248 26.0652 31.6893 23.8054 31.5819 21.6415C31.4746 19.4775 30.7009 17.5206 29.3718 16.0511C28.0427 14.5816 26.2265 13.6751 24.1835 13.4616C22.1404 13.2481 19.9756 13.7384 17.9992 14.8624C16.0228 15.9863 14.3365 17.6861 13.1818 19.7181L9.90334 18.0851ZM9.90334 18.0851C9.7633 18.3318 9.66703 18.5972 9.62003 18.8661M9.90334 18.0851L9.62003 18.8661M9.62003 18.8661C9.57303 19.135 9.57621 19.4023 9.62941 19.6525M9.62003 18.8661L9.62941 19.6525M9.62941 19.6525C9.6826 19.9028 9.78476 20.1311 9.93005 20.3246M9.62941 19.6525L9.93005 20.3246M9.93005 20.3246C10.0753 20.5181 10.2609 20.6728 10.4762 20.7801M9.93005 20.3246L10.4762 20.7801M10.4762 20.7801C10.9109 20.9966 11.4402 21.0064 11.9477 20.8072M10.4762 20.7801L11.9477 20.8072M11.9477 20.8072C12.1989 20.7086 12.4372 20.5617 12.649 20.3748M11.9477 20.8072L12.649 20.3748M12.649 20.3748C12.8607 20.188 13.0417 19.9649 13.1818 19.7182L12.649 20.3748Z" stroke="black" stroke-width="0.5"/>
<mask id="mask2_4286_23256" style="mask-type:alpha" maskUnits="userSpaceOnUse" x="8" y="17" width="20" height="14">
<path d="M8.76101 26.8096C8.78402 27.2735 8.98606 27.6777 9.32268 27.9333C9.65929 28.1888 10.1029 28.2748 10.5559 28.1723L21.8298 25.6213L20.122 27.8429C19.8291 28.2415 19.6794 28.7197 19.7048 29.1755C19.7302 29.6313 19.9288 30.0284 20.2581 30.2823C20.5874 30.5361 21.0213 30.6265 21.4674 30.5342C21.9134 30.4418 22.3362 30.1741 22.6454 29.788L26.3723 24.9162C26.6262 24.5853 26.8224 24.2152 26.9496 23.8273C27.0768 23.4395 27.1325 23.0417 27.1134 22.6569C27.0943 22.2721 27.0008 21.908 26.8384 21.5857C26.676 21.2634 26.4478 20.9894 26.1671 20.7794L22.0277 17.6831C21.6874 17.444 21.2477 17.3714 20.8025 17.4807C20.3574 17.5901 19.9419 17.8727 19.6448 18.2682C19.3477 18.6638 19.1926 19.141 19.2124 19.598C19.2323 20.055 19.4256 20.4557 19.7511 20.7144L21.6563 22.1229L10.3824 24.6739C9.92937 24.7764 9.50403 25.059 9.19996 25.4595C8.89589 25.86 8.73799 26.3457 8.76101 26.8096Z" fill="white"/>
</mask>
<g mask="url(#mask2_4286_23256)">
<path d="M8.76101 26.8096C8.78402 27.2735 8.98606 27.6777 9.32268 27.9333C9.65929 28.1888 10.1029 28.2748 10.5559 28.1723L21.8298 25.6213L20.122 27.8429C19.8291 28.2415 19.6794 28.7197 19.7048 29.1755C19.7302 29.6313 19.9288 30.0284 20.2581 30.2823C20.5874 30.5361 21.0213 30.6265 21.4674 30.5342C21.9134 30.4418 22.3362 30.1741 22.6454 29.788L26.3723 24.9162C26.6262 24.5853 26.8224 24.2152 26.9496 23.8273C27.0768 23.4395 27.1325 23.0417 27.1134 22.6569C27.0943 22.2721 27.0008 21.908 26.8384 21.5857C26.676 21.2634 26.4478 20.9894 26.1671 20.7794L22.0277 17.6831C21.6874 17.444 21.2477 17.3714 20.8025 17.4807C20.3574 17.5901 19.9419 17.8727 19.6448 18.2682C19.3477 18.6638 19.1926 19.141 19.2124 19.598C19.2323 20.055 19.4256 20.4557 19.7511 20.7144L21.6563 22.1229L10.3824 24.6739C9.92937 24.7764 9.50403 25.059 9.19996 25.4595C8.89589 25.86 8.73799 26.3457 8.76101 26.8096Z" fill="black"/>
<path d="M12.6942 25.9246C12.7172 26.3885 12.9192 26.7927 13.2559 27.0482C13.5925 27.3038 14.0361 27.3897 14.4891 27.2872L21.83 25.5826L20.1222 27.8042C19.8292 28.2028 19.6795 28.6811 19.7049 29.1368C19.7304 29.5926 19.9289 29.9898 20.2582 30.2436C20.5875 30.4974 21.0215 30.5878 21.4675 30.4955C21.9135 30.4032 22.3363 30.1354 22.6456 29.7494L26.3724 24.8775C26.6263 24.5466 26.8225 24.1765 26.9497 23.7887C27.0769 23.4008 27.1326 23.003 27.1135 22.6182C27.0944 22.2334 27.001 21.8693 26.8385 21.547C26.6761 21.2248 26.4479 20.9507 26.1672 20.7407L22.0278 17.6444C21.6875 17.4053 21.2479 17.3327 20.8027 17.4421C20.3575 17.5514 19.942 17.834 19.6449 18.2296C19.3479 18.6251 19.1927 19.1024 19.2125 19.5594C19.2324 20.0164 19.4257 20.417 19.7512 20.6757L21.6564 22.0842L14.3156 23.7888C13.8625 23.8913 13.4372 24.1739 13.1331 24.5745C12.8291 24.975 12.6712 25.4606 12.6942 25.9246Z" fill="#25D17F"/>
<path d="M22.0098 25.7603L22.4122 25.237L21.8175 25.3716L10.5436 27.9226C10.1552 28.0105 9.7749 27.9368 9.48634 27.7177C9.19777 27.4986 9.02457 27.1521 9.00484 26.7544C8.98512 26.3567 9.12047 25.9404 9.38114 25.5971C9.6418 25.2537 10.0064 25.0115 10.3948 24.9236L21.6687 22.3726L22.2664 22.2373L21.818 21.9058L19.9156 20.4994C19.6381 20.2776 19.4733 19.935 19.4563 19.5444C19.4393 19.1526 19.5723 18.7436 19.827 18.4044C20.0817 18.0653 20.4378 17.8231 20.8195 17.7294C21.2001 17.6359 21.5761 17.6976 21.8675 17.9013L26.0045 20.9957C26.0045 20.9957 26.0045 20.9958 26.0045 20.9958C26.2611 21.1877 26.4697 21.4383 26.6182 21.7329C26.7667 22.0275 26.8521 22.3603 26.8695 22.7121C26.887 23.0638 26.8361 23.4275 26.7198 23.782C26.6035 24.1365 26.4242 24.4749 26.1921 24.7774L26.1919 24.7777L22.4673 29.6466C22.2023 29.976 21.8409 30.2046 21.4595 30.2835C21.0772 30.3627 20.7051 30.2852 20.4229 30.0676C20.1406 29.8499 19.9704 29.5095 19.9486 29.1188C19.9268 28.7291 20.0545 28.3203 20.3042 27.9791L22.0098 25.7603Z" stroke="#777E87" stroke-width="0.5"/>
</g>
<path d="M21.0462 22.0084L19.5894 20.9314L19.584 20.9274L19.5841 20.9273C19.2121 20.6317 18.9912 20.1739 18.9685 19.6517C18.9458 19.1294 19.1231 18.5841 19.4626 18.132C19.8021 17.68 20.2769 17.357 20.7856 17.2321C21.2944 17.1072 21.7968 17.1902 22.1856 17.4633L22.1903 17.4666L22.1902 17.4667L26.3297 20.563L26.3297 20.563C26.6345 20.791 26.8822 21.0886 27.0586 21.4386C27.235 21.7885 27.3365 22.1839 27.3572 22.6017C27.3779 23.0195 27.3175 23.4515 27.1794 23.8727C27.0413 24.2937 26.8282 24.6955 26.5527 25.0548L26.5528 25.0547L26.3723 24.9162L26.5525 25.055L21.0462 22.0084ZM21.0462 22.0084L10.37 24.4242C9.85231 24.5413 9.36626 24.8643 9.01878 25.322C8.67131 25.7797 8.49087 26.3346 8.51717 26.8648C8.54347 27.3949 8.77435 27.8568 9.15902 28.1488C9.54369 28.4409 10.0506 28.5391 10.5683 28.422L21.2475 26.0055L21.0462 22.0084Z" stroke="black" stroke-width="0.5"/>
</g>
</g>
<defs>
<clipPath id="clip0_4286_23256">
<rect width="48" height="48" rx="24" fill="white"/>
</clipPath>
<clipPath id="clip1_4286_23256">
<rect width="36" height="36" fill="white" transform="translate(6 6)"/>
</clipPath>
</defs>
</svg>
