<svg fill="none" height="47" viewBox="0 0 103 47" width="103" xmlns="http://www.w3.org/2000/svg" xmlns:xlink="http://www.w3.org/1999/xlink"><linearGradient id="a" gradientUnits="userSpaceOnUse" x1=".646259" x2="104.646" y1="30" y2="30"><stop offset="0" stop-color="#3eaeff"/><stop offset="1" stop-color="#90f33a"/></linearGradient><path d="m.77225 33.77c1.68 3.216 5.04 5.184 9.88805 5.808v6.912h7.2v-7.056c5.808-1.008 8.448-4.032 8.448-9.696 0-3.504-1.104-6-3.408-7.44-1.68-1.104-2.88-1.536-7.152-2.544-4.944-1.2-6.43205-2.304-6.43205-4.704 0-2.064 1.58405-3.264 4.36805-3.264 2.832 0 4.656.912 6.24 3.168l5.4719-3.456c-1.4879-2.73603-4.0319-4.51203-7.5359-5.18403v-5.423995h-7.2v5.231995c-5.66405.96-8.40005 4.08003-8.40005 9.50403 0 5.52 2.832 8.448 9.79205 10.128 4.8 1.104 4.8 1.104 5.76 1.728.864.528 1.44 1.632 1.44 2.832 0 2.352-1.776 3.504-5.28 3.504-3.792 0-6.09605-1.104-7.58405-3.6zm36.24185 6.192h7.392v-34.27203h-4.848l-10.128 4.176 2.304 5.61603 5.28-2.16zm18.0019-12.912c0 4.656.576 7.344 1.92 9.408 1.92 2.832 4.608 4.032 9.024 4.032 4.176 0 6.624-1.008 8.592-3.456 1.68-2.16 2.352-4.896 2.352-9.984v-8.448c0-4.656-.528-7.344-1.92-9.40803-1.92-2.832-4.608-4.032-9.024-4.032-4.176 0-6.624 1.008-8.592 3.456-1.68 2.11203-2.352 4.94403-2.352 9.98403zm14.64-.624c0 6.192-.864 8.112-3.696 8.112-2.784 0-3.696-1.968-3.696-8.112v-7.2c0-6.144.912-8.112 3.696-8.112 2.832 0 3.696 1.92 3.696 8.112zm11.2819.624c0 4.656.576 7.344 1.92 9.408 1.92 2.832 4.608 4.032 9.024 4.032 4.176 0 6.624-1.008 8.5921-3.456 1.68-2.16 2.352-4.896 2.352-9.984v-8.448c0-4.656-.528-7.344-1.92-9.40803-1.9201-2.832-4.6081-4.032-9.0241-4.032-4.176 0-6.624 1.008-8.592 3.456-1.68 2.11203-2.352 4.94403-2.352 9.98403zm14.64-.624c0 6.192-.864 8.112-3.696 8.112-2.784 0-3.696-1.968-3.696-8.112v-7.2c0-6.144.912-8.112 3.696-8.112 2.832 0 3.696 1.92 3.696 8.112z" fill="url(#a)"/><path d="m.77225 33.77-.160361-.2536-.233429.1477.127885.2448zm9.88805 5.808h.3v-.2639l-.2618-.0337zm0 6.912h-.3v.3h.3zm7.2 0v.3h.3v-.3zm0-7.056-.0513-.2956-.2487.0432v.2524zm5.04-17.136-.1648.2508.0058.0036zm-7.152-2.544-.0708.2915.0019.0005zm4.176-4.8-.2456.1724.1642.2338.2415-.1526zm5.4719-3.456.1602.2536.2377-.1501-.1343-.2469zm-7.5359-5.18403h-.3v.24794l.2434.04669zm0-5.423995h.3v-.3h-.3zm-7.2 0v-.3h-.3v.3zm0 5.231995.0501.29578.2499-.04235v-.25343zm1.392 19.63203-.0704.2916.0031.0007zm5.76 1.728-.1636.2516.0071.0044zm-11.42405 2.736.25768-.1536-.15772-.2646-.26032.1646zm-5.881905 3.6909c1.740435 3.3317 5.207815 5.3349 10.115655 5.9666l.0765-.5951c-4.78816-.6163-8.04078-2.549-9.66035-5.6493zm9.853955 5.6691v6.912h.6v-6.912zm.3 7.212h7.2v-.6h-7.2zm7.5-.3v-7.056h-.6v7.056zm-.2487-6.7604c2.9431-.5108 5.1295-1.5402 6.5768-3.2005 1.4489-1.6621 2.1199-3.9139 2.1199-6.7911h-.6c0 2.7867-.6491 4.879-1.9722 6.3968-1.3247 1.5198-3.3623 2.5064-6.2271 3.0036zm8.6967-9.9916c0-3.5684-1.1286-6.1817-3.549-7.6944l-.318.5088c2.1875 1.3672 3.267 3.7459 3.267 7.1856zm-3.5433-7.6907c-1.7271-1.135-2.9717-1.5763-7.2479-2.5853l-.1377.584c4.2678 1.007 5.4232 1.4297 7.0561 2.5027zm-7.246-2.5849c-2.4716-.5999-4.0263-1.1652-4.9633-1.8523-.4615-.3385-.7662-.7018-.95834-1.1093-.19291-.4092-.28111-.8817-.28111-1.4508h-.6c0 .6308.0978 1.1963.33839 1.7067.24141.512.61767.9496 1.14616 1.3372 1.043.7648 2.7043 1.3515 5.1767 1.9516zm-6.20275-4.4124c0-.9462.35814-1.6696 1.02005-2.166.6737-.5053 1.6934-.798 3.048-.798v-.6c-1.4295 0-2.5938.3073-3.408.918-.82619.6196-1.26005 1.5281-1.26005 2.646zm4.06805-2.964c1.3837 0 2.498.2227 3.4525.7057.9537.4825 1.7707 1.2363 2.5419 2.3347l.4911-.3448c-.8128-1.1576-1.6998-1.9878-2.7621-2.5253-1.0615-.5371-2.2752-.7703-3.7234-.7703zm6.4001 3.1216 5.472-3.456-.3203-.5073-5.472 3.456zm5.5754-3.853c-1.5364-2.82494-4.1628-4.64864-7.743-5.33526l-.1131.58926c3.4278.65739 5.8894 2.38569 7.329 5.0327zm-7.4995-5.04063v-5.423995h-.6v5.423995zm-.3-5.723995h-7.2v.599995h7.2zm-7.5.3v5.231995h.6v-5.231995zm.2498 4.936215c-2.87482.48726-5.04713 1.52966-6.49883 3.17533-1.45344 1.64768-2.15102 3.86198-2.15102 6.62448h.6c0-2.6615.67043-4.7192 2.00098-6.22757 1.3323-1.51033 3.36-2.50794 6.14917-2.98068zm-8.64985 9.79981c0 2.815.72421 5.0101 2.37033 6.7125 1.63585 1.6918 4.14878 2.8617 7.65132 3.7071l.1407-.5832c-3.45746-.8346-5.84053-1.9688-7.36068-3.541-1.50988-1.5615-2.20167-3.5904-2.20167-6.2954zm10.02475 10.4203c2.4065.5535 3.5931.8267 4.301 1.039.6824.2047.8956.3445 1.3628.6482l.3269-.5031c-.4928-.3203-.7596-.4925-1.5172-.7198-.7321-.2196-1.9455-.4985-4.339-1.049zm5.6708 1.6917c.7606.4647 1.2965 1.4626 1.2965 2.576h.6c0-1.2866-.6162-2.4968-1.5836-3.088zm1.2965 2.576c0 1.0876-.4033 1.8636-1.1913 2.3836-.81.5345-2.06.8204-3.7887.8204v.6c1.7752 0 3.1652-.2901 4.1192-.9196.976-.6441 1.4608-1.62 1.4608-2.8844zm-4.98 3.204c-1.8691 0-3.3448-.2724-4.52717-.8349-1.17695-.5599-2.08233-1.4163-2.7992-2.6187l-.51536.3072c.77113 1.2935 1.76175 2.2372 3.0568 2.8533 1.28963.6135 2.86193.8931 4.78493.8931zm-7.74441-3.5536-5.616001 3.552.320722.5071 5.615999-3.552zm30.78621 9.9976h-.3v.3h.3zm7.392 0v.3h.3v-.3zm0-34.27203h.3v-.3h-.3zm-4.848 0v-.3h-.0594l-.0549.02265zm-10.128 4.176-.1143-.27735-.2769.11416.1137.27706zm2.304 5.61603-.2775.1138.1137.2773.2774-.1135zm5.28-2.16h.3v-.4469l-.4136.1692zm0 26.94h7.392v-.6h-7.392zm7.692-.3v-34.27203h-.6v34.27203zm-.3-34.57203h-4.848v.6h4.848zm-4.9623.02265-10.128 4.176.2287.55468 10.128-4.17598zm-10.2912 4.56722 2.304 5.61596.5551-.2277-2.304-5.61599zm2.6951 5.77976 5.28-2.16-.2272-.5553-5.28 2.16zm4.8664-2.4376v26.64h.6v-26.64zm20.2219 23.136-.2514.1637.0031.0046zm17.616.576.2338.188.003-.0038zm.432-27.84003.2487-.16774-.0004-.0006zm-17.616-.576-.2338-.18797-.001.00122zm-2.652 18.43203c0 4.6735.5763 7.4335 1.9686 9.5717l.5028-.3274c-1.2957-1.9899-1.8714-4.6059-1.8714-9.2443zm1.9717 9.5763c.9877 1.4569 2.1814 2.5043 3.7019 3.1836 1.5155.677 3.3372.9801 5.5704.9801v-.6c-2.1828 0-3.9131-.2969-5.3256-.9279-1.4075-.6288-2.5178-1.5974-3.4501-2.9725zm9.2723 4.1637c2.1102 0 3.8082-.2544 5.2365-.8319 1.4333-.5796 2.5774-1.4775 3.5893-2.7362l-.4676-.3759c-.9561 1.1893-2.02 2.0194-3.3467 2.5559-1.3317.5384-2.9457.7881-5.0115.7881zm8.8288-3.5718c1.7426-2.2405 2.4152-5.0603 2.4152-10.1682h-.6c0 5.0681-.6714 7.7202-2.2888 9.7998zm2.4152-10.1682v-8.448h-.6v8.448zm0-8.448c0-4.6689-.5268-7.434-1.9713-9.57577l-.4974.33549c1.3395 1.98618 1.8687 4.59708 1.8687 9.24028zm-1.9717-9.57637c-.9877-1.45689-2.1814-2.50429-3.7019-3.18357-1.5155-.677-3.3372-.98009-5.5704-.98009v.6c2.1828 0 3.9131.29691 5.3256.92792 1.4075.62872 2.5178 1.59731 3.4501 2.97243zm-9.2723-4.16366c-2.1102 0-3.8082.25435-5.2365.83188-1.4333.57957-2.5774 1.47748-3.5893 2.73616l.4676.37593c.9561-1.18932 2.02-2.01941 3.3467-2.55584 1.3317-.53847 2.9457-.78813 5.0115-.78813zm-8.8268 3.56925c-1.7456 2.19448-2.4172 5.11358-2.4172 10.17078h.6c0-5.0229.6724-7.7677 2.2868-9.79727zm-2.4172 10.17078v8.448h.6v-8.448zm14.64 7.824c0 3.1003-.2193 5.0663-.7591 6.2538-.2647.5823-.6001.9622-1.0147 1.2016-.4185.2417-.9462.3566-1.6222.3566v.6c.74 0 1.3823-.1252 1.9223-.437.5439-.3141.9555-.8011 1.2608-1.4729.6002-1.3205.8129-3.4105.8129-6.5021zm-3.396 7.812c-.6621 0-1.1834-.1172-1.5999-.3621-.4135-.2431-.7512-.6283-1.0193-1.2147-.5457-1.1938-.7768-3.1607-.7768-6.2352h-.6c0 3.0695.2249 5.1586.8312 6.4847.3079.6737.7202 1.1645 1.2607 1.4824.5375.316 1.1742.4449 1.9041.4449zm-3.396-7.812v-7.2h-.6v7.2zm0-7.2c0-3.0745.2311-5.0414.7768-6.2353.2681-.5863.6058-.9715 1.0193-1.2146.4165-.245.9378-.3621 1.5999-.3621v-.6c-.7299 0-1.3666.1288-1.9041.4449-.5405.3179-.9528.8087-1.2607 1.4823-.6063 1.3262-.8312 3.4153-.8312 6.4848zm3.396-7.812c.676 0 1.2037.1148 1.6222.3565.4146.2394.75.6194 1.0147 1.2016.5398 1.1875.7591 3.1535.7591 6.2539h.6c0-3.0917-.2127-5.1817-.8129-6.5022-.3053-.6717-.7169-1.1588-1.2608-1.4729-.54-.3118-1.1823-.4369-1.9223-.4369zm3.396 7.812v7.2h.6v-7.2zm13.5019 17.232-.2515.1637.0032.0046zm17.6161.576.234.188.003-.0038zm.432-27.84003.249-.16774-.001-.0006zm-17.6161-.576-.2338-.18797-.001.00122zm-2.652 18.43203c0 4.6735.5763 7.4335 1.9686 9.5717l.5028-.3274c-1.2957-1.9899-1.8714-4.6059-1.8714-9.2443zm1.9717 9.5763c.9877 1.4569 2.1813 2.5043 3.7019 3.1836 1.5155.677 3.3372.9801 5.5704.9801v-.6c-2.1829 0-3.9131-.2969-5.3257-.9279-1.4074-.6288-2.5177-1.5974-3.45-2.9725zm9.2723 4.1637c2.1101 0 3.8081-.2544 5.2364-.8319 1.4334-.5796 2.5775-1.4775 3.5897-2.7362l-.468-.3759c-.9561 1.1893-2.0199 2.0194-3.3466 2.5559-1.3317.5384-2.9457.7881-5.0115.7881zm8.8291-3.5718c1.742-2.2405 2.415-5.0603 2.415-10.1682h-.6c0 5.0681-.671 7.7202-2.289 9.7998zm2.415-10.1682v-8.448h-.6v8.448zm0-8.448c0-4.6689-.527-7.434-1.971-9.57577l-.498.33549c1.34 1.98618 1.869 4.59708 1.869 9.24028zm-1.972-9.57637c-.988-1.45689-2.1812-2.50429-3.7018-3.18357-1.5154-.677-3.3372-.98009-5.5703-.98009v.6c2.1828 0 3.9131.29691 5.3256.92792 1.4074.62872 2.5178 1.59731 3.4505 2.97243zm-9.2721-4.16366c-2.1102 0-3.8082.25435-5.2365.83188-1.4333.57957-2.5775 1.47748-3.5893 2.73616l.4676.37593c.9561-1.18932 2.02-2.01941 3.3466-2.55584 1.3317-.53847 2.9457-.78813 5.0116-.78813zm-8.8268 3.56925c-1.7456 2.19448-2.4172 5.11358-2.4172 10.17078h.6c0-5.0229.6723-7.7677 2.2868-9.79727zm-2.4172 10.17078v8.448h.6v-8.448zm14.64 7.824c0 3.1003-.2194 5.0663-.7591 6.2538-.2647.5823-.6001.9622-1.0147 1.2016-.4185.2417-.9462.3566-1.6222.3566v.6c.7399 0 1.3823-.1252 1.9222-.437.544-.3141.9555-.8011 1.2609-1.4729.6002-1.3205.8129-3.4105.8129-6.5021zm-3.396 7.812c-.6621 0-1.1834-.1172-1.6-.3621-.4134-.2431-.7512-.6283-1.0192-1.2147-.5458-1.1938-.7768-3.1607-.7768-6.2352h-.6c0 3.0695.2249 5.1586.8311 6.4847.308.6737.7202 1.1645 1.2608 1.4824.5374.316 1.1741.4449 1.9041.4449zm-3.396-7.812v-7.2h-.6v7.2zm0-7.2c0-3.0745.231-5.0414.7768-6.2353.268-.5863.6058-.9715 1.0192-1.2146.4166-.245.9379-.3621 1.6-.3621v-.6c-.73 0-1.3667.1288-1.9041.4449-.5406.3179-.9528.8087-1.2608 1.4823-.6062 1.3262-.8311 3.4153-.8311 6.4848zm3.396-7.812c.676 0 1.2037.1148 1.6222.3565.4146.2394.75.6194 1.0147 1.2016.5397 1.1875.7591 3.1535.7591 6.2539h.6c0-3.0917-.2127-5.1817-.8129-6.5022-.3054-.6717-.7169-1.1588-1.2609-1.4729-.5399-.3118-1.1823-.4369-1.9222-.4369zm3.396 7.812v7.2h.6v-7.2z" fill="#00142a"/></svg>