<svg fill="none" height="49" viewBox="0 0 195 49" width="195" xmlns="http://www.w3.org/2000/svg" xmlns:xlink="http://www.w3.org/1999/xlink"><linearGradient id="a" gradientUnits="userSpaceOnUse" x1="-.166666" x2="195.833" y1="29.8004" y2="29.8004"><stop offset="0" stop-color="#3eaeff"/><stop offset="1" stop-color="#90f33a"/></linearGradient><path d="m.311312 33.5704c1.679998 3.216 5.039998 5.184 9.887988 5.808v6.912h7.2v-7.056c5.808-1.008 8.448-4.032 8.448-9.696 0-3.504-1.104-6-3.408-7.44-1.68-1.104-2.88-1.536-7.152-2.544-4.944-1.2-6.43199-2.304-6.43199-4.704 0-2.064 1.58399-3.264 4.36799-3.264 2.832 0 4.656.912 6.24 3.168l5.472-3.456c-1.488-2.73601-4.032-4.51201-7.536-5.18401v-5.424h-7.2v5.232c-5.66399.96-8.39999 4.08001-8.39999 9.50401 0 5.52 2.832 8.448 9.79199 10.128 4.8 1.104 4.8 1.104 5.76 1.728.864.528 1.44 1.632 1.44 2.832 0 2.352-1.776 3.504-5.28 3.504-3.79199 0-6.09599-1.104-7.58399-3.6zm36.241888 6.192h7.392v-34.27201h-4.848l-10.128 4.176 2.304 5.61601 5.28-2.16zm18.0019-12.912c0 4.656.576 7.344 1.92 9.408 1.92 2.832 4.608 4.032 9.024 4.032 4.176 0 6.624-1.008 8.592-3.456 1.68-2.16 2.352-4.896 2.352-9.984v-8.448c0-4.656-.528-7.344-1.92-9.40801-1.92-2.832-4.608-4.032-9.024-4.032-4.176 0-6.624 1.008-8.592 3.456-1.68 2.11201-2.352 4.94401-2.352 9.98401zm14.64-.624c0 6.192-.864 8.112-3.696 8.112-2.784 0-3.696-1.968-3.696-8.112v-7.2c0-6.144.912-8.112 3.696-8.112 2.832 0 3.696 1.92 3.696 8.112zm11.2818.624c0 4.656.576 7.344 1.92 9.408 1.92 2.832 4.608 4.032 9.024 4.032 4.176 0 6.624-1.008 8.5921-3.456 1.68-2.16 2.352-4.896 2.352-9.984v-8.448c0-4.656-.528-7.344-1.92-9.40801-1.9201-2.832-4.6081-4.032-9.0241-4.032-4.176 0-6.624 1.008-8.592 3.456-1.68 2.11201-2.352 4.94401-2.352 9.98401zm14.64-.624c0 6.192-.864 8.112-3.696 8.112-2.784 0-3.696-1.968-3.696-8.112v-7.2c0-6.144.912-8.112 3.696-8.112 2.832 0 3.696 1.92 3.696 8.112zm10.8981 22.56h6.336l3.696-15.648h-7.728zm14.54-21.936c0 4.656.576 7.344 1.92 9.408 1.92 2.832 4.608 4.032 9.024 4.032 4.176 0 6.624-1.008 8.592-3.456 1.68-2.16 2.352-4.896 2.352-9.984v-8.448c0-4.656-.528-7.344-1.92-9.40801-1.92-2.832-4.608-4.032-9.024-4.032-4.176 0-6.624 1.008-8.592 3.456-1.68 2.11201-2.352 4.94401-2.352 9.98401zm14.64-.624c0 6.192-.864 8.112-3.696 8.112-2.784 0-3.696-1.968-3.696-8.112v-7.2c0-6.144.912-8.112 3.696-8.112 2.832 0 3.696 1.92 3.696 8.112zm11.282.624c0 4.656.576 7.344 1.92 9.408 1.92 2.832 4.608 4.032 9.024 4.032 4.176 0 6.624-1.008 8.592-3.456 1.68-2.16 2.352-4.896 2.352-9.984v-8.448c0-4.656-.528-7.344-1.92-9.40801-1.92-2.832-4.608-4.032-9.024-4.032-4.176 0-6.624 1.008-8.592 3.456-1.68 2.11201-2.352 4.94401-2.352 9.98401zm14.64-.624c0 6.192-.864 8.112-3.696 8.112-2.784 0-3.696-1.968-3.696-8.112v-7.2c0-6.144.912-8.112 3.696-8.112 2.832 0 3.696 1.92 3.696 8.112zm11.282.624c0 4.656.576 7.344 1.92 9.408 1.92 2.832 4.608 4.032 9.024 4.032 4.176 0 6.624-1.008 8.592-3.456 1.68-2.16 2.352-4.896 2.352-9.984v-8.448c0-4.656-.528-7.344-1.92-9.40801-1.92-2.832-4.608-4.032-9.024-4.032-4.176 0-6.624 1.008-8.592 3.456-1.68 2.11201-2.352 4.94401-2.352 9.98401zm14.64-.624c0 6.192-.864 8.112-3.696 8.112-2.784 0-3.696-1.968-3.696-8.112v-7.2c0-6.144.912-8.112 3.696-8.112 2.832 0 3.696 1.92 3.696 8.112z" fill="url(#a)"/><path d="m.311312 33.5704-.16036-.2536-.2334299.1477.1278857.2448zm9.887988 5.808h.3v-.2639l-.2617-.0337zm0 6.912h-.29999v.3h.29999zm7.2 0v.3h.3v-.3zm0-7.056-.0513-.2956-.2487.0432v.2524zm5.04-17.136-.1648.2508.0058.0036zm-7.152-2.544-.0707.2915.0018.0005zm4.176-4.8-.2455.1724.1642.2338.2415-.1526zm5.472-3.456.1602.2536.2376-.15-.1342-.2469zm-7.536-5.18401h-.3v.24793l.2435.0467zm0-5.424h.3v-.3h-.3zm-7.2 0v-.3h-.29999v.3zm0 5.232.0501.29578.2499-.04235v-.25343zm1.392 19.63201-.0704.2916.0032.0008zm5.76 1.728-.1635.2516.0071.0044zm-11.42399 2.736.25769-.1536-.15773-.2646-.26032.1646zm-5.8819022 3.6909c1.7404422 3.3317 5.2078122 5.3349 10.1155922 5.9666l.0766-.5951c-4.78819-.6163-8.04082-2.549-9.660383-5.6493zm9.8539022 5.6691v6.912h.59999v-6.912zm.29999 7.212h7.2v-.6h-7.2zm7.5-.3v-7.056h-.6v7.056zm-.2487-6.7604c2.9432-.5108 5.1296-1.5402 6.5769-3.2005 1.4488-1.6621 2.1198-3.9138 2.1198-6.7911h-.6c0 2.7867-.649 4.879-1.9721 6.3969-1.3248 1.5197-3.3623 2.5063-6.2272 3.0035zm8.6967-9.9916c0-3.5683-1.1286-6.1817-3.549-7.6944l-.318.5088c2.1876 1.3672 3.267 3.7459 3.267 7.1856zm-3.5432-7.6907c-1.7272-1.135-2.9718-1.5763-7.2479-2.5853l-.1378.584c4.2679 1.007 5.4233 1.4297 7.0562 2.5027zm-7.246-2.5848c-2.4716-.6-4.0264-1.1653-4.9634-1.8524-.46145-.3384-.76618-.7018-.95828-1.1093-.19291-.4092-.28111-.8817-.28111-1.4508h-.6c0 .6308.0978 1.1963.3384 1.7067.2414.512.61767.9496 1.14619 1.3372 1.043.7649 2.7043 1.3515 5.1767 1.9516zm-6.20279-4.4125c0-.9461.35814-1.6696 1.01999-2.166.6737-.5053 1.6934-.798 3.048-.798v-.6c-1.4294 0-2.5937.3073-3.40799.918-.82614.6196-1.26 1.5281-1.26 2.646zm4.06799-2.964c1.3838 0 2.498.2227 3.4526.7057.9536.4825 1.7707 1.2363 2.5419 2.3347l.491-.3448c-.8127-1.1576-1.6997-1.9878-2.762-2.5253-1.0615-.537-2.2752-.7703-3.7235-.7703zm6.4002 3.1216 5.472-3.456-.3204-.5073-5.472 3.456zm5.5754-3.8529c-1.5364-2.82503-4.1629-4.64873-7.7431-5.33534l-.113.58926c3.4278.65738 5.8894 2.38568 7.329 5.03268zm-7.4996-5.04071v-5.424h-.6v5.424zm-.3-5.724h-7.2v.6h7.2zm-7.49999.3v5.232h.59999v-5.232zm.24989 4.93622c-2.87486.48726-5.04717 1.52965-6.49886 3.17532-1.45345 1.64767-2.15103 3.86197-2.15103 6.62447h.6c0-2.6615.67043-4.7192 2.00098-6.22755 1.33231-1.51034 3.36-2.50794 6.14911-2.98068zm-8.64989 9.79979c0 2.815.72422 5.0101 2.37033 6.7125 1.63585 1.6918 4.14878 2.8617 7.65126 3.7071l.1408-.5832c-3.45749-.8346-5.84056-1.9688-7.36072-3.5409-1.50988-1.5616-2.20167-3.5905-2.20167-6.2955zm10.02479 10.4204c2.4064.5534 3.5931.8266 4.301 1.0389.6824.2047.8955.3446 1.3627.6482l.327-.503c-.4928-.3204-.7596-.4926-1.5173-.7199-.7321-.2196-1.9454-.4985-4.3389-1.049zm5.6708 1.6916c.7605.4648 1.2964 1.4626 1.2964 2.576h.6c0-1.2866-.6161-2.4968-1.5836-3.088zm1.2964 2.576c0 1.0876-.4032 1.8636-1.1912 2.3836-.81.5345-2.0601.8204-3.7888.8204v.6c1.7753 0 3.1652-.2901 4.1192-.9196.9761-.644 1.4608-1.62 1.4608-2.8844zm-4.98 3.204c-1.8691 0-3.3447-.2724-4.52711-.8349-1.17695-.5599-2.08233-1.4162-2.79919-2.6187l-.51537.3072c.77114 1.2935 1.76175 2.2372 3.0568 2.8533 1.28967.6135 2.86197.8931 4.78487.8931zm-7.74435-3.5536-5.615998 3.552.320721.5071 5.615997-3.552zm30.78625 9.9976h-.3v.3h.3zm7.392 0v.3h.3v-.3zm0-34.27201h.3v-.3h-.3zm-4.848 0v-.3h-.0594l-.055.02265zm-10.128 4.176-.1144-.27735-.2768.11415.1136.27707zm2.304 5.61601-.2776.1139.1138.2772.2774-.1134zm5.28-2.16h.3v-.4469l-.4136.1692zm0 26.94h7.392v-.6h-7.392zm7.692-.3v-34.27201h-.6v34.27201zm-.3-34.57201h-4.848v.6h4.848zm-4.9624.02265-10.128 4.176.2287.5547 10.128-4.176zm-10.2912 4.56722 2.304 5.61604.5551-.2278-2.304-5.61598zm2.6952 5.77984 5.28-2.16-.2272-.5554-5.28 2.16zm4.8664-2.4377v26.64h.6v-26.64zm20.2219 23.136-.2515.1637.0032.0046zm17.616.576.2338.188.003-.0038zm.432-27.84001.2487-.16774-.0004-.00061zm-17.616-.576-.2339-.18797-.0009.00121zm-2.652 18.43201c0 4.6736.5763 7.4335 1.9686 9.5717l.5028-.3274c-1.2957-1.9898-1.8714-4.6059-1.8714-9.2443zm1.9717 9.5763c.9877 1.4569 2.1813 2.5043 3.7019 3.1836 1.5155.677 3.3372.9801 5.5704.9801v-.6c-2.1829 0-3.9132-.2969-5.3257-.9279-1.4074-.6287-2.5177-1.5973-3.45-2.9725zm9.2723 4.1637c2.1101 0 3.8081-.2544 5.2364-.8319 1.4334-.5796 2.5775-1.4775 3.5894-2.7361l-.4676-.376c-.9562 1.1893-2.02 2.0194-3.3467 2.5559-1.3317.5384-2.9457.7881-5.0115.7881zm8.8288-3.5718c1.7425-2.2405 2.4152-5.0603 2.4152-10.1682h-.6c0 5.0681-.6714 7.7203-2.2888 9.7998zm2.4152-10.1682v-8.448h-.6v8.448zm0-8.448c0-4.6689-.5268-7.4339-1.9713-9.57575l-.4975.33548c1.3396 1.98617 1.8688 4.59707 1.8688 9.24027zm-1.9717-9.57636c-.9877-1.45688-2.1814-2.50429-3.702-3.18356-1.5155-.677-3.3372-.98009-5.5703-.98009v.6c2.1828 0 3.9131.29691 5.3256.92791 1.4074.62872 2.5178 1.59732 3.4501 2.97244zm-9.2723-4.16365c-2.1102 0-3.8082.25434-5.2365.83187-1.4333.57958-2.5775 1.47748-3.5893 2.73616l.4676.37593c.9561-1.18932 2.02-2.01941 3.3466-2.55584 1.3317-.53847 2.9457-.78812 5.0116-.78812zm-8.8268 3.56924c-1.7456 2.19447-2.4172 5.11357-2.4172 10.17077h.6c0-5.0229.6723-7.7677 2.2867-9.79726zm-2.4172 10.17077v8.448h.6v-8.448zm14.64 7.824c0 3.1003-.2194 5.0664-.7591 6.2538-.2647.5823-.6002.9623-1.0147 1.2016-.4186.2417-.9462.3566-1.6222.3566v.6c.7399 0 1.3823-.1252 1.9222-.437.544-.3141.9555-.8011 1.2609-1.4729.6002-1.3205.8129-3.4104.8129-6.5021zm-3.396 7.812c-.6621 0-1.1834-.1172-1.6-.3621-.4134-.2431-.7512-.6283-1.0192-1.2146-.5458-1.1939-.7768-3.1608-.7768-6.2353h-.6c0 3.0695.2249 5.1586.8311 6.4847.308.6737.7202 1.1645 1.2608 1.4824.5374.316 1.1741.4449 1.9041.4449zm-3.396-7.812v-7.2h-.6v7.2zm0-7.2c0-3.0745.231-5.0414.7768-6.2353.268-.5863.6058-.9715 1.0192-1.2146.4166-.245.9379-.3621 1.6-.3621v-.6c-.73 0-1.3667.1288-1.9041.4449-.5406.3179-.9528.8087-1.2608 1.4824-.6062 1.3261-.8311 3.4152-.8311 6.4847zm3.396-7.812c.676 0 1.2036.1148 1.6222.3565.4145.2394.75.6194 1.0147 1.2016.5397 1.1875.7591 3.1536.7591 6.2539h.6c0-3.0917-.2127-5.1816-.8129-6.5022-.3054-.6717-.7169-1.1587-1.2609-1.4729-.5399-.3118-1.1823-.4369-1.9222-.4369zm3.396 7.812v7.2h.6v-7.2zm13.5018 17.232-.2514.1637.0031.0046zm17.6161.576.234.188.003-.0038zm.432-27.84001.249-.16774-.001-.00061zm-17.6161-.576-.2338-.18797-.0009.00121zm-2.652 18.43201c0 4.6736.5763 7.4335 1.9686 9.5717l.5028-.3274c-1.2957-1.9898-1.8714-4.6059-1.8714-9.2443zm1.9717 9.5763c.9877 1.4569 2.1814 2.5043 3.702 3.1836 1.5155.677 3.3372.9801 5.5703.9801v-.6c-2.1828 0-3.9131-.2969-5.3256-.9279-1.4074-.6287-2.5178-1.5973-3.45-2.9725zm9.2723 4.1637c2.1102 0 3.8082-.2544 5.2365-.8319 1.4333-.5796 2.5775-1.4775 3.5896-2.7361l-.4679-.376c-.9561 1.1893-2.02 2.0194-3.3466 2.5559-1.3317.5384-2.9457.7881-5.0116.7881zm8.8291-3.5718c1.742-2.2405 2.415-5.0603 2.415-10.1682h-.6c0 5.0681-.671 7.7203-2.2889 9.7998zm2.415-10.1682v-8.448h-.6v8.448zm0-8.448c0-4.6689-.527-7.4339-1.971-9.57575l-.498.33548c1.34 1.98617 1.869 4.59707 1.869 9.24027zm-1.972-9.57636c-.9875-1.45688-2.1811-2.50429-3.7017-3.18356-1.5155-.677-3.3372-.98009-5.5704-.98009v.6c2.1829 0 3.9132.29691 5.3257.92791 1.4074.62872 2.5177 1.59732 3.4504 2.97244zm-9.2721-4.16365c-2.1101 0-3.8081.25434-5.2364.83187-1.4334.57958-2.5775 1.47748-3.5894 2.73616l.4677.37593c.9561-1.18932 2.0199-2.01941 3.3466-2.55584 1.3317-.53847 2.9457-.78812 5.0115-.78812zm-8.8267 3.56924c-1.7456 2.19447-2.4173 5.11357-2.4173 10.17077h.6c0-5.0229.6724-7.7677 2.2868-9.79726zm-2.4173 10.17077v8.448h.6v-8.448zm14.64 7.824c0 3.1003-.2193 5.0664-.7591 6.2538-.2646.5823-.6001.9623-1.0146 1.2016-.4186.2417-.9462.3566-1.6223.3566v.6c.74 0 1.3824-.1252 1.9223-.437.544-.3141.9555-.8011 1.2608-1.4729.6003-1.3205.8129-3.4104.8129-6.5021zm-3.396 7.812c-.662 0-1.1833-.1172-1.5999-.3621-.4134-.2431-.7512-.6283-1.0192-1.2146-.5458-1.1939-.7769-3.1608-.7769-6.2353h-.6c0 3.0695.225 5.1586.8312 6.4847.308.6737.7202 1.1645 1.2608 1.4824.5374.316 1.1741.4449 1.904.4449zm-3.396-7.812v-7.2h-.6v7.2zm0-7.2c0-3.0745.2311-5.0414.7769-6.2353.268-.5863.6058-.9715 1.0192-1.2146.4166-.245.9379-.3621 1.5999-.3621v-.6c-.7299 0-1.3666.1288-1.904.4449-.5406.3179-.9528.8087-1.2608 1.4824-.6062 1.3261-.8312 3.4152-.8312 6.4847zm3.396-7.812c.6761 0 1.2037.1148 1.6223.3565.4145.2394.75.6194 1.0146 1.2016.5398 1.1875.7591 3.1536.7591 6.2539h.6c0-3.0917-.2126-5.1816-.8129-6.5022-.3053-.6717-.7168-1.1587-1.2608-1.4729-.5399-.3118-1.1823-.4369-1.9223-.4369zm3.396 7.812v7.2h.6v-7.2zm11.1981 29.76-.297-.0437-.051.3437h.348zm6.336 0v.3h.237l.055-.231zm3.696-15.648.292.069.087-.369h-.379zm-7.728 0v-.3h-.259l-.038.2563zm-2.304 15.948h6.336v-.6h-6.336zm6.628-.231 3.696-15.648-.584-.138-3.696 15.648zm3.404-16.017h-7.728v.6h7.728zm-8.025.2563-2.304 15.648.594.0874 2.304-15.648zm14.453 3.1637-.251.1637.003.0046zm17.616.576.234.188.003-.0038zm.432-27.84001.249-.16774-.001-.00061zm-17.616-.576-.234-.18797-.001.00121zm-2.652 18.43201c0 4.6736.576 7.4335 1.969 9.5717l.502-.3274c-1.295-1.9898-1.871-4.6059-1.871-9.2443zm1.972 9.5763c.987 1.4569 2.181 2.5043 3.702 3.1836 1.515.677 3.337.9801 5.57.9801v-.6c-2.183 0-3.913-.2969-5.326-.9279-1.407-.6287-2.517-1.5973-3.45-2.9725zm9.272 4.1637c2.11 0 3.808-.2544 5.237-.8319 1.433-.5796 2.577-1.4775 3.589-2.7361l-.468-.376c-.956 1.1893-2.02 2.0194-3.346 2.5559-1.332.5384-2.946.7881-5.012.7881zm8.829-3.5718c1.742-2.2405 2.415-5.0603 2.415-10.1682h-.6c0 5.0681-.671 7.7203-2.289 9.7998zm2.415-10.1682v-8.448h-.6v8.448zm0-8.448c0-4.6689-.527-7.4339-1.971-9.57575l-.498.33548c1.34 1.98617 1.869 4.59707 1.869 9.24027zm-1.972-9.57636c-.987-1.45688-2.181-2.50429-3.702-3.18356-1.515-.677-3.337-.98009-5.57-.98009v.6c2.183 0 3.913.29691 5.326.92791 1.407.62872 2.517 1.59732 3.45 2.97244zm-9.272-4.16365c-2.11 0-3.808.25434-5.236.83187-1.434.57958-2.578 1.47748-3.59 2.73616l.468.37593c.956-1.18932 2.02-2.01941 3.347-2.55584 1.331-.53847 2.945-.78812 5.011-.78812zm-8.827 3.56924c-1.745 2.19447-2.417 5.11357-2.417 10.17077h.6c0-5.0229.672-7.7677 2.287-9.79726zm-2.417 10.17077v8.448h.6v-8.448zm14.64 7.824c0 3.1003-.219 5.0664-.759 6.2538-.265.5823-.6.9623-1.015 1.2016-.418.2417-.946.3566-1.622.3566v.6c.74 0 1.382-.1252 1.922-.437.544-.3141.956-.8011 1.261-1.4729.6-1.3205.813-3.4104.813-6.5021zm-3.396 7.812c-.662 0-1.183-.1172-1.6-.3621-.413-.2431-.751-.6283-1.019-1.2146-.546-1.1939-.777-3.1608-.777-6.2353h-.6c0 3.0695.225 5.1586.831 6.4847.308.6737.72 1.1645 1.261 1.4824.537.316 1.174.4449 1.904.4449zm-3.396-7.812v-7.2h-.6v7.2zm0-7.2c0-3.0745.231-5.0414.777-6.2353.268-.5863.606-.9715 1.019-1.2146.417-.245.938-.3621 1.6-.3621v-.6c-.73 0-1.367.1288-1.904.4449-.541.3179-.953.8087-1.261 1.4824-.606 1.3261-.831 3.4152-.831 6.4847zm3.396-7.812c.676 0 1.204.1148 1.622.3565.415.2394.75.6194 1.015 1.2016.54 1.1875.759 3.1536.759 6.2539h.6c0-3.0917-.213-5.1816-.813-6.5022-.305-.6717-.717-1.1587-1.261-1.4729-.54-.3118-1.182-.4369-1.922-.4369zm3.396 7.812v7.2h.6v-7.2zm13.502 17.232-.252.1637.004.0046zm17.616.576.234.188.003-.0038zm.432-27.84001.249-.16774-.001-.00061zm-17.616-.576-.234-.18797-.001.00121zm-2.652 18.43201c0 4.6736.576 7.4335 1.969 9.5717l.502-.3274c-1.295-1.9898-1.871-4.6059-1.871-9.2443zm1.972 9.5763c.987 1.4569 2.181 2.5043 3.702 3.1836 1.515.677 3.337.9801 5.57.9801v-.6c-2.183 0-3.913-.2969-5.326-.9279-1.407-.6287-2.517-1.5973-3.45-2.9725zm9.272 4.1637c2.11 0 3.808-.2544 5.236-.8319 1.434-.5796 2.578-1.4775 3.59-2.7361l-.468-.376c-.956 1.1893-2.02 2.0194-3.347 2.5559-1.331.5384-2.945.7881-5.011.7881zm8.829-3.5718c1.742-2.2405 2.415-5.0603 2.415-10.1682h-.6c0 5.0681-.671 7.7203-2.289 9.7998zm2.415-10.1682v-8.448h-.6v8.448zm0-8.448c0-4.6689-.527-7.4339-1.971-9.57575l-.498.33548c1.34 1.98617 1.869 4.59707 1.869 9.24027zm-1.972-9.57636c-.987-1.45688-2.181-2.50429-3.702-3.18356-1.515-.677-3.337-.98009-5.57-.98009v.6c2.183 0 3.913.29691 5.326.92791 1.407.62872 2.517 1.59732 3.45 2.97244zm-9.272-4.16365c-2.11 0-3.808.25434-5.237.83187-1.433.57958-2.577 1.47748-3.589 2.73616l.468.37593c.956-1.18932 2.02-2.01941 3.346-2.55584 1.332-.53847 2.946-.78812 5.012-.78812zm-8.827 3.56924c-1.745 2.19447-2.417 5.11357-2.417 10.17077h.6c0-5.0229.672-7.7677 2.287-9.79726zm-2.417 10.17077v8.448h.6v-8.448zm14.64 7.824c0 3.1003-.219 5.0664-.759 6.2538-.265.5823-.6.9623-1.015 1.2016-.418.2417-.946.3566-1.622.3566v.6c.74 0 1.382-.1252 1.922-.437.544-.3141.956-.8011 1.261-1.4729.6-1.3205.813-3.4104.813-6.5021zm-3.396 7.812c-.662 0-1.183-.1172-1.6-.3621-.413-.2431-.751-.6283-1.019-1.2146-.546-1.1939-.777-3.1608-.777-6.2353h-.6c0 3.0695.225 5.1586.831 6.4847.308.6737.72 1.1645 1.261 1.4824.537.316 1.174.4449 1.904.4449zm-3.396-7.812v-7.2h-.6v7.2zm0-7.2c0-3.0745.231-5.0414.777-6.2353.268-.5863.606-.9715 1.019-1.2146.417-.245.938-.3621 1.6-.3621v-.6c-.73 0-1.367.1288-1.904.4449-.541.3179-.953.8087-1.261 1.4824-.606 1.3261-.831 3.4152-.831 6.4847zm3.396-7.812c.676 0 1.204.1148 1.622.3565.415.2394.75.6194 1.015 1.2016.54 1.1875.759 3.1536.759 6.2539h.6c0-3.0917-.213-5.1816-.813-6.5022-.305-.6717-.717-1.1587-1.261-1.4729-.54-.3118-1.182-.4369-1.922-.4369zm3.396 7.812v7.2h.6v-7.2zm13.502 17.232-.252.1637.004.0046zm17.616.576.234.188.003-.0038zm.432-27.84001.249-.16774-.001-.00061zm-17.616-.576-.234-.18797-.001.00121zm-2.652 18.43201c0 4.6736.576 7.4335 1.968 9.5717l.503-.3274c-1.295-1.9898-1.871-4.6059-1.871-9.2443zm1.972 9.5763c.987 1.4569 2.181 2.5043 3.701 3.1836 1.516.677 3.338.9801 5.571.9801v-.6c-2.183 0-3.913-.2969-5.326-.9279-1.407-.6287-2.518-1.5973-3.45-2.9725zm9.272 4.1637c2.11 0 3.808-.2544 5.236-.8319 1.434-.5796 2.578-1.4775 3.59-2.7361l-.468-.376c-.956 1.1893-2.02 2.0194-3.347 2.5559-1.331.5384-2.945.7881-5.011.7881zm8.829-3.5718c1.742-2.2405 2.415-5.0603 2.415-10.1682h-.6c0 5.0681-.672 7.7203-2.289 9.7998zm2.415-10.1682v-8.448h-.6v8.448zm0-8.448c0-4.6689-.527-7.4339-1.971-9.57575l-.498.33548c1.34 1.98617 1.869 4.59707 1.869 9.24027zm-1.972-9.57636c-.988-1.45688-2.181-2.50429-3.702-3.18356-1.515-.677-3.337-.98009-5.57-.98009v.6c2.183 0 3.913.29691 5.325.92791 1.408.62872 2.518 1.59732 3.451 2.97244zm-9.272-4.16365c-2.11 0-3.808.25434-5.237.83187-1.433.57958-2.577 1.47748-3.589 2.73616l.468.37593c.956-1.18932 2.02-2.01941 3.346-2.55584 1.332-.53847 2.946-.78812 5.012-.78812zm-8.827 3.56924c-1.746 2.19447-2.417 5.11357-2.417 10.17077h.6c0-5.0229.672-7.7677 2.287-9.79726zm-2.417 10.17077v8.448h.6v-8.448zm14.64 7.824c0 3.1003-.22 5.0664-.759 6.2538-.265.5823-.6.9623-1.015 1.2016-.419.2417-.946.3566-1.622.3566v.6c.74 0 1.382-.1252 1.922-.437.544-.3141.956-.8011 1.261-1.4729.6-1.3205.813-3.4104.813-6.5021zm-3.396 7.812c-.662 0-1.184-.1172-1.6-.3621-.414-.2431-.751-.6283-1.019-1.2146-.546-1.1939-.777-3.1608-.777-6.2353h-.6c0 3.0695.225 5.1586.831 6.4847.308.6737.72 1.1645 1.261 1.4824.537.316 1.174.4449 1.904.4449zm-3.396-7.812v-7.2h-.6v7.2zm0-7.2c0-3.0745.231-5.0414.777-6.2353.268-.5863.605-.9715 1.019-1.2146.416-.245.938-.3621 1.6-.3621v-.6c-.73 0-1.367.1288-1.904.4449-.541.3179-.953.8087-1.261 1.4824-.606 1.3261-.831 3.4152-.831 6.4847zm3.396-7.812c.676 0 1.203.1148 1.622.3565.415.2394.75.6194 1.015 1.2016.539 1.1875.759 3.1536.759 6.2539h.6c0-3.0917-.213-5.1816-.813-6.5022-.305-.6717-.717-1.1587-1.261-1.4729-.54-.3118-1.182-.4369-1.922-.4369zm3.396 7.812v7.2h.6v-7.2z" fill="#00142a"/></svg>