<svg width="132" height="108" viewBox="0 0 132 108" fill="none" xmlns="http://www.w3.org/2000/svg">
<rect width="132" height="96" rx="4" fill="#000D1D" fill-opacity="0.04"/>
<rect x="16.299" y="15.3688" width="99.8671" height="66.3787" rx="4.48505" fill="white" stroke="black" stroke-width="0.598007"/>
<rect x="84.6511" y="46.8839" width="26.7907" height="30.1395" rx="1.67442" fill="#01BC8D"/>
<path d="M103.491 57.4048C103.509 59.6322 102.201 61.5479 100.31 62.411C104.094 63.287 107.078 66.2968 107.912 70.1109C108.044 70.7153 107.56 71.2486 106.942 71.2486H89.3104C88.6925 71.2486 88.1995 70.7149 88.3222 70.1103C89.0956 66.2982 92.0297 63.2871 95.7971 62.4134C93.8911 61.5503 92.5519 59.6346 92.5336 57.4072C92.5087 54.3694 94.9413 51.9071 97.9672 51.9071C100.993 51.9071 103.466 54.3694 103.491 57.4048Z" fill="#1D1D1D"/>
<path d="M96.0702 59.1832C96.2621 59.6238 96.9287 60.5051 98.0595 60.5051C99.1902 60.5051 99.8394 59.6238 100.023 59.1832" stroke="#01BC8D" stroke-width="1.0487" stroke-linecap="round"/>
<rect x="84.6511" y="33.4885" width="26.7907" height="8.37209" rx="1.67442" fill="#1D1D1D" fill-opacity="0.08"/>
<rect x="21.0233" y="61.9536" width="28.4651" height="8.37209" rx="1.67442" fill="#1D1D1D" fill-opacity="0.08"/>
<rect x="21.0233" y="73.6746" width="11.7209" height="3.34884" rx="1.67442" fill="#1D1D1D" fill-opacity="0.08"/>
<rect x="21.0233" y="33.4885" width="23.7209" height="5.02326" rx="1.67442" fill="#1D1D1D" fill-opacity="0.08"/>
<rect x="49.4884" y="33.4884" width="28.4651" height="5.02326" rx="1.67442" fill="#1D1D1D" fill-opacity="0.08"/>
<rect x="21.0233" y="41.8605" width="12.6512" height="5.02326" rx="1.67442" fill="#1D1D1D" fill-opacity="0.08"/>
<rect x="38.4187" y="41.8605" width="39.5349" height="5.02326" rx="1.67442" fill="#1D1D1D" fill-opacity="0.08"/>
<rect x="21.0233" y="50.2322" width="56.9302" height="5.02326" rx="1.67442" fill="#1D1D1D" fill-opacity="0.08"/>
<rect x="21.0233" y="20.0931" width="90.4186" height="10.0465" rx="1.67442" fill="#1D1D1D" fill-opacity="0.08"/>
<g clip-path="url(#clip0_11_5635)">
<path d="M66.0001 84.9994C59.9248 84.9994 55.0001 89.9241 55.0001 95.9994C55.0001 102.075 59.9248 106.999 66.0001 106.999C72.0754 106.999 77.0001 102.075 77.0001 95.9994C77.0001 89.9241 72.0754 84.9994 66.0001 84.9994Z" fill="white"/>
<path fill-rule="evenodd" clip-rule="evenodd" d="M58.2218 88.2218C60.2114 86.2323 62.9627 85 66 85C69.0373 85 71.7886 86.2323 73.7782 88.2218C75.7677 90.2114 77 92.9627 77 96C77 99.0373 75.7677 101.789 73.7782 103.778C71.7886 105.768 69.0373 107 66 107C62.9627 107 60.2114 105.768 58.2218 103.778C56.2323 101.789 55 99.0373 55 96C55 92.9627 56.2323 90.2114 58.2218 88.2218ZM71.7071 93.7071C72.0976 93.3166 72.0976 92.6834 71.7071 92.2929C71.3166 91.9024 70.6834 91.9024 70.2929 92.2929L65 97.5858L62.7071 95.2929C62.3166 94.9024 61.6834 94.9024 61.2929 95.2929C60.9024 95.6834 60.9024 96.3166 61.2929 96.7071L64.2929 99.7071C64.6834 100.098 65.3166 100.098 65.7071 99.7071L71.7071 93.7071Z" fill="#01BC8D"/>
</g>
<defs>
<clipPath id="clip0_11_5635">
<rect width="24" height="24" fill="white" transform="translate(54 84)"/>
</clipPath>
</defs>
</svg>
