<svg width="132" height="108" viewBox="0 0 132 108" fill="none" xmlns="http://www.w3.org/2000/svg">
<rect width="132" height="96" rx="4" fill="#000D1D" fill-opacity="0.04"/>
<rect x="18.6479" y="15.3689" width="95.083" height="66.3787" rx="4.48505" fill="white" stroke="black" stroke-width="0.598007"/>
<rect x="15.299" y="15.3688" width="99.8671" height="66.3787" rx="4.48505" fill="white" stroke="black" stroke-width="0.598007"/>
<rect x="83.6511" y="46.8839" width="26.7907" height="30.1395" rx="1.67442" fill="#01BC8D"/>
<path d="M102.491 57.4048C102.509 59.6322 101.201 61.5479 99.3096 62.411C103.094 63.287 106.078 66.2968 106.912 70.1109C107.044 70.7153 106.56 71.2486 105.942 71.2486H88.3104C87.6925 71.2486 87.1995 70.7149 87.3222 70.1103C88.0956 66.2982 91.0297 63.2871 94.7971 62.4134C92.8911 61.5503 91.5519 59.6346 91.5336 57.4072C91.5087 54.3694 93.9413 51.9071 96.9672 51.9071C99.9931 51.9071 102.466 54.3694 102.491 57.4048Z" fill="#1D1D1D"/>
<path d="M95.0702 59.1832C95.2621 59.6238 95.9287 60.5051 97.0595 60.5051C98.1902 60.5051 98.8394 59.6238 99.0226 59.1832" stroke="#01BC8D" stroke-width="1.0487" stroke-linecap="round"/>
<rect x="83.6511" y="33.4885" width="26.7907" height="8.37209" rx="1.67442" fill="#1D1D1D" fill-opacity="0.08"/>
<rect x="20.0233" y="61.9536" width="28.4651" height="8.37209" rx="1.67442" fill="#1D1D1D" fill-opacity="0.08"/>
<rect x="20.0233" y="73.6746" width="11.7209" height="3.34884" rx="1.67442" fill="#1D1D1D" fill-opacity="0.08"/>
<rect x="20.0233" y="33.4885" width="23.7209" height="5.02326" rx="1.67442" fill="#1D1D1D" fill-opacity="0.08"/>
<rect x="48.4884" y="33.4884" width="28.4651" height="5.02326" rx="1.67442" fill="#1D1D1D" fill-opacity="0.08"/>
<rect x="20.0233" y="41.8605" width="12.6512" height="5.02326" rx="1.67442" fill="#1D1D1D" fill-opacity="0.08"/>
<rect x="37.4187" y="41.8605" width="39.5349" height="5.02326" rx="1.67442" fill="#1D1D1D" fill-opacity="0.08"/>
<rect x="20.0233" y="50.2322" width="56.9302" height="5.02326" rx="1.67442" fill="#1D1D1D" fill-opacity="0.08"/>
<rect x="20.0233" y="20.0931" width="90.4186" height="10.0465" rx="1.67442" fill="#1D1D1D" fill-opacity="0.08"/>
<mask id="mask0_11_5661" style="mask-type:alpha" maskUnits="userSpaceOnUse" x="18" y="15" width="97" height="68">
<rect x="18.6479" y="15.3689" width="95.083" height="66.3787" rx="4.48505" fill="white" stroke="black" stroke-width="0.598007"/>
</mask>
<g mask="url(#mask0_11_5661)">
<path d="M36.8103 89.2365L65.8332 10.6286L74.2126 7.75062L46.0459 90.9622L36.8103 89.2365Z" fill="white" stroke="#EAE9E9" stroke-width="0.598007" stroke-linecap="round"/>
<path d="M23.4149 89.2365L52.4378 10.6286L60.8172 7.75062L32.6505 90.9622L23.4149 89.2365Z" fill="white" stroke="#EAE9E9" stroke-width="0.598007" stroke-linecap="round"/>
<path d="M51.2987 90.134L79.52 10.6815L106.421 14.2411L81.9915 90.7398L51.2987 90.134Z" fill="white" stroke="#EAE9E9" stroke-width="0.598007" stroke-linecap="round"/>
</g>
<rect x="15.299" y="15.3688" width="99.8671" height="66.3787" rx="4.48505" stroke="black" stroke-width="0.598007"/>
<path d="M65.0001 84.9994C58.9248 84.9994 54.0001 89.9241 54.0001 95.9994C54.0001 102.075 58.9248 106.999 65.0001 106.999C71.0754 106.999 76.0001 102.075 76.0001 95.9994C76.0001 89.9241 71.0754 84.9994 65.0001 84.9994Z" fill="white"/>
<path fill-rule="evenodd" clip-rule="evenodd" d="M54.0001 95.9994C54.0001 89.9241 58.9248 84.9994 65.0001 84.9994C71.0754 84.9994 76.0001 89.9241 76.0001 95.9994C76.0001 102.075 71.0754 106.999 65.0001 106.999C58.9248 106.999 54.0001 102.075 54.0001 95.9994ZM62.8787 92.4634C62.4882 92.0729 61.855 92.0729 61.4645 92.4634C61.0739 92.854 61.0739 93.4871 61.4645 93.8776L63.5859 95.999L61.4645 98.1204C61.0739 98.511 61.0739 99.1441 61.4645 99.5346C61.855 99.9252 62.4882 99.9252 62.8787 99.5346L65.0001 97.4132L67.1215 99.5346C67.512 99.9252 68.1452 99.9252 68.5357 99.5346C68.9262 99.1441 68.9262 98.511 68.5357 98.1204L66.4143 95.999L68.5357 93.8776C68.9262 93.4871 68.9262 92.854 68.5357 92.4634C68.1452 92.0729 67.512 92.0729 67.1215 92.4634L65.0001 94.5848L62.8787 92.4634Z" fill="#F65454"/>
</svg>
