<svg fill="none" height="38" viewBox="0 0 38 38" width="38" xmlns="http://www.w3.org/2000/svg" xmlns:xlink="http://www.w3.org/1999/xlink"><mask id="a" height="38" maskUnits="userSpaceOnUse" width="38" x="0" y="0"><rect fill="#fff" height="37.7517" rx="8" width="37.7517"/></mask><rect fill="#01bc8d" height="37.7517" rx="8.80872" width="37.7517"/><g mask="url(#a)"><path clip-rule="evenodd" d="m22.0444 26.1389-7.338-7.3339 7.338-7.3339 4.6358 4.6332c.818.8177 2.1484.8177 2.9665 0 .8181-.8176.8181-2.1473 0-2.9649l-6.1149-6.11155c-.8181-.81763-2.1568-.80937-2.9666 0l-8.8171 8.82045v-5.2444c0-1.1562-.942-2.09771-2.09889-2.09771s-2.09892.94151-2.09892 2.09771v16.4104c0 1.1562.94203 2.0978 2.09892 2.0978s2.09889-.9498 2.09889-2.0978v-5.2444l8.8171 8.8122c.8098.8094 2.1485.8177 2.9666 0l6.1149-6.1115c.8181-.8177.8181-2.1473 0-2.965-.8181-.8176-2.1485-.8176-2.9665 0zm-2.0907-7.3256c0-1.1563.942-2.0978 2.0989-2.0978s2.0989.9333 2.0989 2.0978c0 1.1562-.942 2.0977-2.0989 2.0977s-2.0989-.9415-2.0989-2.0977z" fill="#fff" fill-rule="evenodd"/></g></svg>