<svg height="23" viewBox="0 0 28 23" width="28" xmlns="http://www.w3.org/2000/svg"><g fill="#1abb97" fill-rule="evenodd"><path d="m26 0c1.1045695 0 2 .8954305 2 2v19c0 1.1045695-.8954305 2-2 2h-13.0827556-8.91254266-2.00470174c-1.1045695 0-2-.8954305-2-2v-19c0-1.1045695.8954305-2 2-2zm0 1h-24c-.55228475 0-1 .44771525-1 1v19c0 .5522847.44771525 1 1 1h24c.5522847 0 1-.4477153 1-1v-19c0-.55228475-.4477153-1-1-1z" fill-rule="nonzero"/><path d="m25 2c.5522847 0 1 .44771525 1 1l-.0004283 1.939-11.988585 6.3379314-12.01141504-6.3499314.00042834-1.927c0-.55228475.44771525-1 1-1z"/></g></svg>