<svg height="29" viewBox="0 0 56 29" width="56" xmlns="http://www.w3.org/2000/svg"><g fill="none" fill-rule="evenodd"><g fill="#1abb97" transform="translate(0 6)"><path d="m26 0c1.1045695 0 2 .8954305 2 2v19c0 1.1045695-.8954305 2-2 2h-13.0827556-8.91254266-2.00470174c-1.1045695 0-2-.8954305-2-2v-19c0-1.1045695.8954305-2 2-2zm0 1h-24c-.55228475 0-1 .44771525-1 1v19c0 .5522847.44771525 1 1 1h24c.5522847 0 1-.4477153 1-1v-19c0-.55228475-.4477153-1-1-1z" fill-rule="nonzero"/><path d="m25 2c.5522847 0 1 .44771525 1 1l-.0004283 1.939-11.988585 6.3379314-12.01141504-6.3499314.00042834-1.927c0-.55228475.44771525-1 1-1z"/></g><path d="m55 0c.5522847 0 1 .44771525 1 1v10c0 .5522847-.4477153 1-1 1h-16l-3.9966643 3.0033542v-3.0033542h-2.0033357c-.5522847 0-1-.4477153-1-1v-10c0-.55228475.4477153-1 1-1zm-16.6210938 4h-.8408203v1.36035156l-1.1210937-.64941406-.4169922.64941406 1.1621094.7109375-1.1621094.7109375.4169922.64941407 1.1210937-.64941407v1.36035157h.8408203v-1.36035157l1.1210938.64941407.4169922-.64941407-1.1621094-.7109375 1.1621094-.7109375-.4169922-.64941406-1.1210938.64941406zm6 0h-.8408203v1.36035156l-1.1210937-.64941406-.4169922.64941406 1.1621094.7109375-1.1621094.7109375.4169922.64941407 1.1210937-.64941407v1.36035157h.8408203v-1.36035157l1.1210938.64941407.4169922-.64941407-1.1621094-.7109375 1.1621094-.7109375-.4169922-.64941406-1.1210938.64941406zm6 0h-.8408203v1.36035156l-1.1210937-.64941406-.4169922.64941406 1.1621094.7109375-1.1621094.7109375.4169922.64941407 1.1210937-.64941407v1.36035157h.8408203v-1.36035157l1.1210938.64941407.4169922-.64941407-1.1621094-.7109375 1.1621094-.7109375-.4169922-.64941406-1.1210938.64941406z" fill="#23af91"/></g></svg>