<svg height="30" viewBox="0 0 118 30" width="118" xmlns="http://www.w3.org/2000/svg"><g fill="none" fill-rule="evenodd"><g fill="#23af91"><path d="m95.7155963 14.9889909c0-.6121102 0-1.18789-.0198165-1.7196331-.0134924-.5016411-.0631626-1.0016549-.1486239-1.4961468-.0799335-.4515374-.2210493-.8900703-.4194495-1.3034862-.2094429-.4262489-.4893387-.81408324-.8278899-1.14715599-.480153-.49197104-1.0515226-.88572253-1.6822018-1.15926606-.6822653-.27636914-1.4129495-.41337244-2.1489908-.40293578-.7388214-.00954721-1.4722114.12740215-2.1577982.40293578-.6342913.26980763-1.2092605.66184907-1.6921101 1.15376147-.3379076.33287403-.6167451.72078948-.8245872 1.14715598-.196741.4135064-.3356581.8521139-.412844 1.3034862-.0835252.4946379-.131355.9946443-.1431192 1.4961468-.0132111.5317431-.0198166 1.1075229-.0165138 1.719633.0033027.6121101 0 1.1834863.0165138 1.7185322.0117642.5015024.059594 1.0015087.1431192 1.4961468.0771859.4513723.216103.8899797.412844 1.3034862.208661.4258768.4874046.8136618.8245872 1.1471559.4820561.4923078 1.0572635.8837632 1.6921101 1.1515597.6851272.2773337 1.4187348.4150723 2.1577982.4051376.7362864.0108475 1.467195-.1269468 2.1489908-.4051376.6307796-.2699067 1.2023496-.6611777 1.6822018-1.1515597.3378063-.3337115.6176061-.7214128.8278899-1.1471559.1984002-.413416.339516-.8519489.4194495-1.3034862.0845128-.4930937.1334464-.9916278.1464221-1.4917432.0165138-.5350459.0242202-1.1075229.0198165-1.7185321zm-2.7743119 0c0 .678165-.0099083 1.2429357-.0330275 1.69211-.0129933.3689575-.0497669.7366931-.1100917 1.1009175-.0412639.2426621-.1153371.4785853-.2201836.7012843-.0851029.1794938-.1964106.3453424-.3302752.4921102-.2066541.2365726-.463045.4245425-.7508257.5504587-.3238355.1385719-.672722.2090238-1.0249541.2070577-.3539637.0014753-.7045497-.0689416-1.0304587-.2070577-.2948005-.1235696-.5581412-.31167-.7706422-.5504587-.1347037-.1461077-.2461012-.31209-.3302752-.4921102-.1019166-.2229271-.1723165-.4589519-.2091744-.7012843-.0587812-.3644275-.0955451-.7320665-.1100917-1.1009175-.0198165-.4491743-.0297248-1.013211-.0297248-1.69211 0-.6781652.0099083-1.2440368.0297248-1.6932111.0146024-.3688471.051366-.7364827.1100917-1.1009175.0368579-.2423323.1072578-.4783572.2091744-.7012843.0844314-.1798746.1958038-.3458194.3302752-.4921101.2128007-.238455.4760602-.4264975.7706422-.5504587.3254233-.1396824.6763383-.2101653 1.0304587-.2069725.3523863-.0036591.7016004.0668589 1.0249541.2069725.2875631.1262935.5438771.314207.7508257.5504587.1336227.1469574.2449053.3127683.3302752.4921101.1048465.222699.1789197.4586222.2201836.7012843.0602553.3642336.0970285.7319647.1100917 1.1009175.0242202.4480734.0330275 1.013945.0330275 1.6932111z"/><path d="m117.822018 8.12807339c-.001195-.13387412-.109429-.24210737-.243302-.24330275h-2.288807c-.134123.0006028-.2427.10918083-.243304.24330275v8.45504591l-5.581651-8.63009178c-.037431-.05834862-.070459-.06825688-.153027-.06825688h-2.12257c-.133628.00177801-.241524.10967376-.243302.24330275v13.71963301c.00179.133444.109852.2410169.243302.2422018h2.287707c.133514-.0006027.241599-.1086879.242202-.2422018v-8.4770642l5.582752 8.6499083c.038532.0583486.069359.0682568.153028.0682568h2.121468c.133696-.0005968.2421-.10851.243302-.2422018z"/><path d="m102.479633 8.12807339c-.000603-.13412192-.109181-.24269995-.243303-.24330275h-2.2866051c-.1341223.0006028-.2427.10918083-.2433029.24330275v13.71853211c.0006029.1341219.1091806.2427.2433029.2433027h2.2866051c.134122-.0006027.2427-.1091808.243303-.2433027z"/><path d="m75.106422 14.9889909c0-.6825689.0077064-1.2506423.027523-1.7031193.0134656-.3689255.0502362-.736631.1100917-1.1009175.2113762-1.2220183 1.147156-1.9431192 2.3416514-1.9431192.7794496.0066055 1.4862385.2950458 1.9376146.9511926.2044163.3063287.3534675.6461656.440367 1.0040368.006702.0376972.0411333.0639989.079266.0605504h2.6917432c.0385321 0 .052844-.026422.0462386-.0638533-.293945-1.665688-1.1823854-3.16183479-2.7522936-3.90275222-.7715565-.35723545-1.6137083-.53597633-2.4638532-.52293579-1.5155964 0-2.7922937.51889909-3.8300918 1.55669725-.5925142.57745999-.996939 1.32031236-1.160367 2.13137616-.1585321.7985321-.2385321 1.9757798-.2400391 3.5317431-.0014288 1.5559633.0785712 2.732844.2400391 3.5306422.1620698.8121076.5653192 1.55645 1.1570642 2.1357798 1.0370643 1.0370642 2.3137615 1.5555963 3.8300918 1.5555963.8500093.0128572 1.6920412-.165482 2.4638532-.5218348 1.5699082-.7409175 2.4583486-2.2370643 2.7522936-3.9027523.0066055-.0385321-.0077065-.0638532-.0462386-.0638532h-2.692844c-.038291-.0040038-.0730582.0225545-.079266.0605505-.0871073.3574584-.2361479.6968985-.440367 1.0029357-.4513762.6605505-1.1581652.9456881-1.9376147.9511927-1.1944954 0-2.1302753-.72-2.3416514-1.9420184-.0598004-.3642937-.0965705-.7319957-.1100917-1.1009174-.0154129-.4546789-.0231193-1.0238532-.0231193-1.7042201z"/><path d="m46.6763303 8.12807339c-.0006029-.13412192-.1091808-.24269995-.2433028-.24330275h-2.2866055c-.1341219.0006028-.2427.10918083-.2433027.24330275v13.71963301c.0012031.1336918.1096069.241605.2433027.2424416h2.2866055c.1336959-.0008366.2420996-.1087498.2433028-.2424416v-4.0271559l1.8352293-2.1941285 3.7695413 6.3908257c.0290185.0471229.0812182.0749067.1365138.0729003h2.7787156c.1277064 0 .1508256-.0795058.0869724-.1884966l-4.9354128-8.3669725 4.5280734-5.43192661c.0913762-.11009174.052844-.2146789-.0902752-.2146789h-3.0374312c-.0369564-.00217342-.0725307.01437278-.0946789.0440367l-4.9772477 5.96917431z"/><path d="m63.3354129 19.7361468c-1.2869725 0-2.453945-1.1911927-2.453945-2.613578v-8.99449541c-.0006028-.13412192-.1091809-.24269995-.2433027-.24330275h-2.2866056c-.1341219.0006028-.2426999.10918083-.2433027.24330275v8.95926611c0 3.13211 2.3427522 5.1225687 5.227156 5.1225687 2.8844036 0 5.2271559-1.9904587 5.2271559-5.1225687v-8.95926611c-.0011953-.13387412-.1094286-.24210737-.2433027-.24330275h-2.2877065c-.1336917.00120315-.241605.10960689-.2422018.24330275v8.99449541c0 1.4212844-1.1680734 2.613578-2.4539449 2.613578z"/></g><path d="m30 0v21c0 4.9705627-4.0294373 9-9 9h-12c-4.97056275 0-9-4.0294373-9-9v-12c-0-4.97056275 4.02943725-9 9-9zm-11.2954273 5.48223237c-.6530949-.64297649-1.7012806-.64297649-2.3543756 0l-7.0160391 7.01694473v-4.17177242c0-.92070231-.74637669-1.667079-1.667079-1.667079s-1.667079.74637669-1.667079 1.667079v13.05772902c0 .9207023.74637669 1.6670791 1.667079 1.6670791s1.667079-.7463768 1.667079-1.6670791v-4.1717724l7.0169447 7.0187558c.6532941.64249 1.7010814.64249 2.3543756 0l4.8635965-4.8645021c.5933899-.6590172.566992-1.6672423-.0600706-2.2943049-.6270627-.6270626-1.6352878-.6534605-2.2943049-.0600707l-3.6855033 3.6855033-5.8388514-5.8397569 5.841568-5.84428456 3.6855033 3.68550326c.6590171.5933899 1.6672422.566992 2.2943049-.0600707.6270626-.6270626.6534605-1.6352877.0600706-2.2943048zm-1.1726601 7.70695783v.0009055c-.6750853-.0003663-1.2839011.4060135-1.5424989 1.0296058-.2585978.6235924-.1160382 1.3415603.3611897 1.8190473s1.1951182.6204361 1.8188509.3621768c.6237326-.2582593 1.0304433-.8668544 1.0304433-1.5419398.0002397-.4426172-.1753589-.8672013-.4881667-1.1803488-.3128078-.3131474-.7372011-.4892067-1.1798183-.4894468z" fill="#1abb97"/></g></svg>