<svg height="35" viewBox="0 0 48 35" width="48" xmlns="http://www.w3.org/2000/svg"><g fill="none" fill-rule="evenodd"><path d="m47 0c.5522847 0 1 .44771525 1 1v10c0 .5522847-.4477153 1-1 1h-16l-3.9966643 3.0033542v-3.0033542h-2.0033357c-.5522847 0-1-.4477153-1-1v-10c0-.55228475.4477153-1 1-1zm-16.6210938 4h-.8408203v1.36035156l-1.1210937-.64941406-.4169922.64941406 1.1621094.7109375-1.1621094.7109375.4169922.64941407 1.1210937-.64941407v1.36035157h.8408203v-1.36035157l1.1210938.64941407.4169922-.64941407-1.1621094-.7109375 1.1621094-.7109375-.4169922-.64941406-1.1210938.64941406zm6 0h-.8408203v1.36035156l-1.1210937-.64941406-.4169922.64941406 1.1621094.7109375-1.1621094.7109375.4169922.64941407 1.1210937-.64941407v1.36035157h.8408203v-1.36035157l1.1210938.64941407.4169922-.64941407-1.1621094-.7109375 1.1621094-.7109375-.4169922-.64941406-1.1210938.64941406zm6 0h-.8408203v1.36035156l-1.1210937-.64941406-.4169922.64941406 1.1621094.7109375-1.1621094.7109375.4169922.64941407 1.1210937-.64941407v1.36035157h.8408203v-1.36035157l1.1210938.64941407.4169922-.64941407-1.1621094-.7109375 1.1621094-.7109375-.4169922-.64941406-1.1210938.64941406z" fill="#23af91" fill-rule="evenodd"/><path d="m17 0c1.6568542 0 3 1.34314575 3 3v29c0 1.6568542-1.3431458 3-3 3h-14c-1.65685425 0-3-1.3431458-3-3v-29c0-1.65685425 1.34314575-3 3-3zm0 1h-14c-1.1045695 0-2 .8954305-2 2v29c0 1.1045695.8954305 2 2 2h14c1.1045695 0 2-.8954305 2-2v-29c0-1.1045695-.8954305-2-2-2zm-11 1v1c0 .51283584.38604019.93550716.88337887.99327227l.11662113.00672773h6c.5128358 0 .9355072-.38604019.9932723-.88337887l.0067277-.11662113v-1h3c.5522847 0 1 .44771525 1 1v29c0 .5522847-.4477153 1-1 1h-14c-.55228475 0-1-.4477153-1-1v-29c0-.55228475.44771525-1 1-1zm8 29h-8v1h8z" fill="#1abb97" fill-rule="nonzero"/></g></svg>