<svg width="24" height="24" viewBox="0 0 24 24" fill="none" xmlns="http://www.w3.org/2000/svg">
<path fill-rule="evenodd" clip-rule="evenodd" d="M12 1C5.92472 1 1 5.92472 1 12C1 18.0753 5.92472 23 12 23C18.0753 23 23 18.0753 23 12C23 5.92472 18.0753 1 12 1ZM3 12C3 7.02928 7.02928 3 12 3C16.9707 3 21 7.02928 21 12C21 16.9707 16.9707 21 12 21C7.02928 21 3 16.9707 3 12Z" fill="#F3F3F3" fill-opacity="0.08"/>
<path d="M12.8 8.8C12.8 8.35817 12.4418 8 12 8C11.5582 8 11.2 8.35817 11.2 8.8V11.2H8.8C8.35817 11.2 8 11.5582 8 12C8 12.4418 8.35817 12.8 8.8 12.8H11.2V15.2C11.2 15.6418 11.5582 16 12 16C12.4418 16 12.8 15.6418 12.8 15.2V12.8H15.2C15.6418 12.8 16 12.4418 16 12C16 11.5582 15.6418 11.2 15.2 11.2H12.8V8.8Z" fill="#F3F3F3" fill-opacity="0.6"/>
</svg>
