<svg width="12" height="12" viewBox="0 0 12 12" fill="none" xmlns="http://www.w3.org/2000/svg">
<path fill-rule="evenodd" clip-rule="evenodd" d="M4.95165 1.92983L4.95161 1.93004L4.91532 2.14613C5.10686 2.14246 5.2984 2.14062 5.48995 2.14062C6.02214 2.14062 6.55477 2.14915 7.08737 2.16605L7.04836 1.93551L7.04775 1.93194L7.04776 1.93194C7.0278 1.80951 7.01517 1.73895 6.99836 1.68269C6.99246 1.66297 6.98752 1.65045 6.98423 1.64312C6.95477 1.6292 6.86596 1.60039 6.65495 1.60039H5.34495C5.1383 1.60039 5.0473 1.6264 5.01481 1.63996C5.01186 1.64715 5.00794 1.65784 5.00338 1.67301C4.98618 1.73024 4.97313 1.8023 4.95166 1.92976L4.95165 1.92983ZM3.76823 1.73102L3.69038 2.19459C3.2804 2.21919 2.87045 2.25218 2.46053 2.29357L1.4414 2.39349C1.11161 2.42582 0.870476 2.71938 0.902809 3.04917C0.935141 3.37896 1.2287 3.62009 1.55849 3.58776L2.57849 3.48776L2.57849 3.48776L2.58025 3.48759C3.55031 3.3896 4.52019 3.34062 5.48995 3.34062C7.13964 3.34062 8.79489 3.42459 10.4408 3.5877C10.7705 3.62038 11.0643 3.37955 11.097 3.04979C11.1297 2.72004 10.8889 2.42623 10.5591 2.39355C9.81223 2.31953 9.06326 2.26142 8.31351 2.21967L8.23185 1.73715L8.22632 1.70246C8.19485 1.5036 8.13689 1.1374 7.88936 0.852147C7.59112 0.50846 7.14956 0.400391 6.65495 0.400391H5.34495C4.85932 0.400391 4.41643 0.499234 4.11556 0.840418C3.86735 1.12188 3.80773 1.48855 3.77495 1.69019L3.76828 1.73074L3.76823 1.73102ZM4.99972 1.64797C4.99954 1.64785 5.00108 1.64661 5.00484 1.64461C5.00177 1.64708 4.99989 1.64809 4.99972 1.64797ZM6.9964 1.65047C6.99617 1.65062 6.99402 1.64942 6.99061 1.64639C6.99491 1.6488 6.99662 1.65031 6.9964 1.65047ZM3.17365 4.53157C3.15231 4.20088 2.86693 3.95012 2.53625 3.97146C2.20557 3.99281 1.9548 4.27818 1.97614 4.60886L2.30114 9.64386L2.30113 9.64386L2.30136 9.64715L2.30242 9.66222C2.31531 9.84646 2.33066 10.0659 2.37233 10.2728C2.4164 10.4916 2.49713 10.7387 2.66906 10.9626C3.0345 11.4384 3.63695 11.6002 4.3949 11.6002H7.6049C8.36285 11.6002 8.9653 11.4384 9.33074 10.9626C9.50267 10.7387 9.5834 10.4916 9.62746 10.2728C9.66914 10.0659 9.68449 9.84646 9.69738 9.66221L9.69843 9.64715H9.69844L9.69865 9.64386L10.0237 4.60886C10.045 4.27818 9.79423 3.99281 9.46355 3.97146C9.13286 3.95012 8.84749 4.20088 8.82614 4.53157L8.50125 9.56492C8.48693 9.76928 8.4757 9.91367 8.45108 10.0359C8.42765 10.1523 8.39963 10.2048 8.37906 10.2316C8.3595 10.2571 8.24195 10.4002 7.6049 10.4002H4.3949C3.75785 10.4002 3.6403 10.2571 3.62074 10.2316C3.60017 10.2048 3.57215 10.1523 3.54871 10.0359C3.5241 9.91367 3.51287 9.76927 3.49855 9.56492L3.17365 4.53157ZM4.56498 8.25039C4.56498 7.91902 4.83361 7.65039 5.16498 7.65039H6.82998C7.16136 7.65039 7.42998 7.91902 7.42998 8.25039C7.42998 8.58176 7.16136 8.85039 6.82998 8.85039H5.16498C4.83361 8.85039 4.56498 8.58176 4.56498 8.25039ZM4.74995 5.65039C4.41858 5.65039 4.14995 5.91902 4.14995 6.25039C4.14995 6.58176 4.41858 6.85039 4.74995 6.85039H7.24995C7.58132 6.85039 7.84995 6.58176 7.84995 6.25039C7.84995 5.91902 7.58132 5.65039 7.24995 5.65039H4.74995Z" fill="#8C8C8C"/>
</svg>
