<svg fill="none" height="50" viewBox="0 0 50 50" width="50" xmlns="http://www.w3.org/2000/svg" xmlns:xlink="http://www.w3.org/1999/xlink"><filter id="a" color-interpolation-filters="sRGB" filterUnits="userSpaceOnUse" height="23.1156" width="34.27" x="4.50732" y="15.3741"><feFlood flood-opacity="0" result="BackgroundImageFix"/><feBlend in="SourceGraphic" in2="BackgroundImageFix" mode="normal" result="shape"/><feGaussianBlur result="effect1_foregroundBlur_71_12541" stdDeviation=".5"/></filter><filter id="b" color-interpolation-filters="sRGB" filterUnits="userSpaceOnUse" height="14.5013" width="22.4229" x="11.4507" y="15.475"><feFlood flood-opacity="0" result="BackgroundImageFix"/><feBlend in="SourceGraphic" in2="BackgroundImageFix" mode="normal" result="shape"/><feGaussianBlur result="effect1_foregroundBlur_71_12541" stdDeviation="1"/></filter><linearGradient id="c"><stop offset="0" stop-color="#d5ffe9"/><stop offset="1" stop-color="#8af2d9"/></linearGradient><linearGradient id="d" gradientUnits="userSpaceOnUse" x1="42.4139" x2="8.65558" xlink:href="#c" y1="19.1739" y2="27.6874"/><linearGradient id="e" gradientUnits="userSpaceOnUse" x1="40.1244" x2="9.02324" y1="19.5893" y2="39.4022"><stop offset="0" stop-color="#20b085"/><stop offset="1" stop-color="#13b7a3"/></linearGradient><linearGradient id="f" gradientUnits="userSpaceOnUse" x1="38.9791" x2="7.28624" xlink:href="#c" y1="19.1417" y2="35.5602"/><linearGradient id="g" gradientUnits="userSpaceOnUse" x1="38.9791" x2="7.28624" y1="19.1417" y2="35.5602"><stop offset="0" stop-color="#a4f9da"/><stop offset="1" stop-color="#95f4dd"/></linearGradient><linearGradient id="h" gradientUnits="userSpaceOnUse" x1="37.0497" x2="7.27918" y1="22.9447" y2="32.4721"><stop offset="0" stop-color="#2cc59c"/><stop offset=".307292" stop-color="#159199"/><stop offset="1" stop-color="#3ed8bc" stop-opacity=".5"/></linearGradient><linearGradient id="i" gradientUnits="userSpaceOnUse" x1="24.4217" x2="11.9993" y1="23.4439" y2="34.9247"><stop offset=".119802" stop-color="#93f1d9" stop-opacity="0"/><stop offset="1" stop-color="#9afde4"/></linearGradient><linearGradient id="j" gradientUnits="userSpaceOnUse" x1="43.4008" x2="9.44653" y1="19.8543" y2="31.7229"><stop offset="0" stop-color="#22b78b"/><stop offset="1" stop-color="#30c5b3"/></linearGradient><linearGradient id="k" gradientUnits="userSpaceOnUse" x1="42.4139" x2="8.65559" xlink:href="#c" y1="19.1745" y2="27.6881"/><linearGradient id="l" gradientUnits="userSpaceOnUse" x1="37.3406" x2="12.5015" y1="15.7792" y2="28.5957"><stop offset="0" stop-color="#3abd96"/><stop offset="1" stop-color="#21a4ac"/></linearGradient><linearGradient id="m" gradientUnits="userSpaceOnUse" x1="37.2645" x2="12.6706" y1="19.3139" y2="28.9404"><stop offset="0" stop-color="#9afcda"/><stop offset="1" stop-color="#36cbb9"/></linearGradient><linearGradient id="n" gradientUnits="userSpaceOnUse" x1="30.825" x2="14.0343" y1="19.7403" y2="27.9312"><stop offset="0" stop-color="#3dc5b4" stop-opacity=".42"/><stop offset="1" stop-color="#1da393"/></linearGradient><linearGradient id="o" gradientUnits="userSpaceOnUse" x1="24.0226" x2="24.8381" y1="18.2775" y2="27.0574"><stop offset="0" stop-color="#3dc5b4"/><stop offset="1" stop-color="#23ab9a"/></linearGradient><linearGradient id="p" gradientUnits="userSpaceOnUse" x1="24.3961" x2="25.2116" y1="17.5771" y2="26.357"><stop offset="0" stop-color="#fff"/><stop offset="1" stop-color="#d0ffe9"/></linearGradient><mask id="q" height="27" maskUnits="userSpaceOnUse" width="38" x="6" y="13"><path d="m42.0777 30.2225c-1.1043.1772-1.7501-.9147-2.5674-.7736-1.984.3426-.9254 1.5636-2.7095 2.1064-2.0399.6206-16.6604 6.0975-20.7402 7.3387-4.0798 1.2413-5.2666-.9692-5.6623-1.7061-.3956-.7368-3.32813-11.5025-3.55314-12.8056-.22501-1.303-.84564-3.3429 1.36487-4.5298 3.67327-2.352 15.39357-4.6263 20.79457-5.4695 1.3031-.225 1.3575 1.6443 3.3974 1.0237.6419-.2984.2076-1.3778 1.078-1.5281 1.0425-.18 1.9443.38 2.265.6824 2.3555 3.798 7.2249 11.6885 7.8579 12.8675.7019 1.3072-.1171 2.5679-1.5252 2.794z" fill="url(#f)"/></mask><mask id="r" height="19" maskUnits="userSpaceOnUse" width="28" x="11" y="13"><path d="m14.1295 13.9911c7.2488-1.6418 18.1196-.5129 18.8874-.4809 1.0525.0439 2.0216 1.1755 2.4273 2.1655.2153.5253 2.7776 9.3618 3.1238 10.9532.1554.7146-.018 1.8872-1.5523 2.4784-1.5342.5911-16.5643 2.1153-20.2389 2.3796s-3.9356-1.4109-4.2885-2.1916c-.3529-.7808-.8705-11.7844-.6403-12.6059.1131-.4041-.1452-2.1486 2.2815-2.6983z" fill="#f0f0f0"/></mask><path d="m40.6023 14.0225-.0104-.0309-.0179-.0272c-.2623-.3971-1.0556-1.1972-2.1919-1.2654-.3057-.0184-.533.0811-.7031.2484-.1495.147-.2462.3405-.3212.4906l-.0075.0151c-.1408.2813-.225.4176-.3834.4574-.5371.0315-.869-.0776-1.1023-.2306-.2447-.1605-.4062-.3835-.5868-.6377l-.0139-.0195c-.259-.3647-.5699-.8026-1.2417-.8438-2.6635-.203-6.9074-.4189-10.9896-.4072-2.0415.0058-4.0458.0686-5.7935.2189-1.7375.1495-3.2397.3868-4.2738.7493-1.1935.3224-1.8105 1.0022-2.1245 1.7814-.7438.8621-.7942 2.0272-.8308 2.8736l-.0014.0309c-.0053.1235-.01037.24-.01698.3501l.24958.015-.24958-.015c-.01024.1705-.01531.4896-.01654.9125-.7442.3087-1.38776.6253-1.89252.9475-1.11507.6016-1.56995 1.4243-1.69963 2.2748-.53895 1.0329-.31617 2.2056-.15401 3.0593l.00578.0304c.02364.1245.04595.2421.06519.3536.11469.6641.85238 3.6439 1.58755 6.5189.36857 1.4414.73792 2.8619 1.03071 3.9615.14637.5497.27378 1.0199.37247 1.3726.09653.3449.17002.5941.207.6875.31198.788.99928 1.7921 2.11438 2.4268 1.1249.6402 2.6605.89 4.6299.201 1.7809-.6231 5.8683-2.1814 9.9275-3.7289l.0063-.0024c4.664-1.778 9.2775-3.5366 10.3559-3.8647.4576-.1393.7607-.3265.9777-.5479.2101-.2145.3251-.4483.4211-.6435l.0048-.0096c.0655-.1331.1212-.2451.1927-.3471.1407-.0983.2509-.2078.3452-.3139.1632-.0935.3945-.178.7377-.2372.273-.0472.5323.092.9221.32l.0203.0119c.4134.2421.9417.5513 1.6221.4421.0528-.0084.1048-.0182.1561-.0294.1113.0321.2295.0539.3553.0629 1.146.0824 2.1437-.5371 2.3692-1.5681.5268-.4817.7637-1.2195.5393-2.0569-.3405-1.2706-3.2065-9.8617-4.5929-13.9871z" fill="url(#d)" stroke="#000" stroke-width=".5"/><path d="m41.7363 31.3555c-1.1044.1773-1.7502-.9147-2.5674-.7735-1.984.3426-.9255 1.5636-2.7095 2.1063-2.0399.6207-16.4849 6.2647-20.2995 7.5993-3.8145 1.3346-5.839-.9929-6.42924-2.4838-.24771-.6257-2.95881-11.1881-3.18383-12.4911-.22501-1.3031-.84564-3.343 1.36487-4.5298 3.6733-2.352 15.3505-4.4236 20.7515-5.2668 1.303-.225 1.3575 1.6443 3.3974 1.0237.6418-.2984.2076-1.3778 1.078-1.5281 1.0425-.18 1.9443.3799 2.2649.6824 2.3556 3.7979 7.225 11.6885 7.858 12.8674.7019 1.3072-.1172 2.568-1.5252 2.794z" fill="url(#e)"/><g mask="url(#q)"><path d="m42.0777 30.2225c-1.1043.1772-1.7501-.9147-2.5674-.7736-1.984.3426-.9254 1.5636-2.7095 2.1064-2.0399.6206-16.6604 6.0975-20.7402 7.3387-4.0798 1.2413-5.2666-.9692-5.6623-1.7061-.3956-.7368-3.32813-11.5025-3.55314-12.8056-.22501-1.303-.84564-3.3429 1.36487-4.5298 3.67327-2.352 15.39357-4.6263 20.79457-5.4695 1.3031-.225 1.3575 1.6443 3.3974 1.0237.6419-.2984.2076-1.3778 1.078-1.5281 1.0425-.18 1.9443.38 2.265.6824 2.3555 3.798 7.2249 11.6885 7.8579 12.8675.7019 1.3072-.1171 2.5679-1.5252 2.794z" fill="url(#g)"/><g filter="url(#a)"><path d="m36.113 31.163c-.9757.0928-1.479-.8985-2.2016-.8212-1.7543.1879-.8974 1.3153-2.4881 1.6894-1.8189.4278-14.913 4.3935-18.5507 5.2491-3.63772.8556-4.55107-1.1443-4.85552-1.811-.30445-.6666-2.26237-10.2464-2.38572-11.3986s-.55116-2.9711 1.44879-3.8844c3.34485-1.8498 13.72235-3.1784 18.49295-3.6114 1.1522-.1233 1.0945 1.5144 2.9133 1.0866.5781-.2247.2592-1.1932 1.0288-1.2756.9218-.0986 1.6789.4419 1.9423.7244 1.8459 3.454 5.6596 10.6286 6.1467 11.6953.5401 1.1827-.2471 2.2391-1.4912 2.3574z" fill="url(#h)"/></g><path d="m42.1364 31.5809c-1.0882-.0783-1.4576-1.2593-2.2651-1.3077-1.9603-.1177-1.2278 1.278-3.043 1.395-2.0754.1339-17.0512 2.2678-20.9711 2.6834s-5.5011-2.4798-5.5322-4.1537c-.0122-.6563-.32938-10.9239-.2521-12.2114.0773-1.2875-.0566-3.3629 2.3073-3.9963 4.0129-1.4131 15.563-.773 20.8796-.3677 1.2875.0772.9218 1.8643 2.9973 1.7304.676-.1399.5047-1.2618 1.3647-1.2102 1.03.0618 1.7613.7949 1.9982 1.1537 1.3887 4.132 4.2506 12.7114 4.5884 13.9721.3746 1.3979-.6846 2.4122-2.072 2.3124z" fill="url(#i)"/></g><path d="m42.3044 31.3863c-1.0882-.0783-1.4576-1.2593-2.2651-1.3078-1.9603-.1176-1.2278 1.2781-3.043 1.3951-2.0755.1339-17.0512 2.2678-20.9711 2.6834-3.9199.4155-5.3225-2.2464-5.5501-3.7939-.0955-.6493-.3115-11.2837-.2342-12.5712.0772-1.2875-.0566-3.3629 2.3073-3.9963 4.0129-1.4131 15.563-.773 20.8795-.3678 1.2876.0773.9219 1.8644 2.9973 1.7305.6761-.1399.5048-1.2618 1.3648-1.2102 1.03.0618 1.7613.7949 1.9982 1.1536 1.3887 4.1321 4.2505 12.7114 4.5884 13.9722.3745 1.3979-.6846 2.4121-2.072 2.3124z" fill="url(#j)"/><path d="m42.8821 30.3876c-1.0882-.0782-1.4576-1.2592-2.2651-1.3077-1.9603-.1177-1.2278 1.278-3.0429 1.3951-2.0755.1338-17.1806 2.0699-21.3315 2.3376s-4.7843-2.0962-4.9955-2.8841c-.2111-.788-.592-11.6649-.5147-12.9524s-.0565-3.3629 2.3073-3.9963c4.013-1.4131 15.6493-.9559 20.9658-.5506 1.2875.0773.9218 1.8643 2.9973 1.7305.6761-.14.5047-1.2619 1.3648-1.2103 1.03.0619 1.7613.7949 1.9981 1.1537 1.3887 4.1321 4.2506 12.7114 4.5884 13.9721.3746 1.3979-.6846 2.4122-2.072 2.3124z" fill="url(#k)"/><g mask="url(#r)"><path d="m14.1295 13.9911c7.2488-1.6418 18.1196-.5129 18.8874-.4809 1.0525.0439 2.0216 1.1755 2.4273 2.1655.2153.5253 2.7776 9.3618 3.1238 10.9532.1554.7146-.018 1.8872-1.5523 2.4784-1.5342.5911-16.5643 2.1153-20.2389 2.3796s-3.9356-1.4109-4.2885-2.1916c-.3529-.7808-.8705-11.7844-.6403-12.6059.1131-.4041-.1452-2.1486 2.2815-2.6983z" fill="url(#l)"/><path d="m13.8502 14.4742c7.2488-1.6418 18.1196-.5129 18.8874-.4809 1.0525.0439 2.0216 1.1755 2.4273 2.1655.2153.5253 2.7776 9.3618 3.1238 10.9532.1554.7146-.018 1.8872-1.5523 2.4784-1.5342.5911-16.5643 2.1153-20.2389 2.3796s-3.9356-1.4109-4.2885-2.1917c-.3529-.7807-.8705-11.7843-.6403-12.6058.1131-.4041-.1452-2.1486 2.2815-2.6983z" fill="url(#m)"/></g><rect fill="#92e6cb" height="2.12578" rx=".261088" transform="matrix(.960106 -.27963631 .27963631 .960106 -3.003512 11.299936)" width=".522176" x="38.1016" y="16.1765"/><rect fill="#31c699" height="2.00872" rx=".200874" transform="matrix(.960106 -.27963631 .27963631 .960106 -3.033562 11.314096)" width=".401748" x="38.1362" y="16.2889"/><rect fill="#92e6cb" height="2.12578" rx=".261088" transform="matrix(.960106 -.27963631 .27963631 .960106 -3.785452 11.672138)" width=".522176" x="39.0151" y="19.1031"/><rect fill="#31c699" height="2.00872" rx=".200874" transform="matrix(.960106 -.27963631 .27963631 .960106 -3.815567 11.68605)" width=".401748" x="39.0488" y="19.2156"/><rect fill="#92e6cb" height="2.12578" rx=".261088" transform="matrix(.960106 -.27963631 .27963631 .960106 -4.541661 12.013106)" width=".522176" x="39.832" y="21.9239"/><rect fill="#31c699" height="2.00872" rx=".200874" transform="matrix(.960106 -.27963631 .27963631 .960106 -4.571775 12.027018)" width=".401748" x="39.8657" y="22.0364"/><rect fill="#92e6cb" height="2.12578" rx=".261088" transform="matrix(.960106 -.27963631 .27963631 .960106 -5.30615 12.374629)" width=".522176" x="40.7168" y="24.784"/><rect fill="#31c699" height="2.00872" rx=".200874" transform="matrix(.960106 -.27963631 .27963631 .960106 -5.336285 12.388401)" width=".401748" x="40.75" y="24.8965"/><g filter="url(#b)"><path d="m15.9106 18.9576-.1322 8.868-1.6233.1507.1074-7.2052-.8117.0754.0248-1.6627zm3.5172-.3267c.8965-.0832 1.6122.5937 1.5985 1.512l-.0825 5.5425c-.0137.9183-.7516 1.7302-1.6481 1.8135l-1.0823.1005c-.8965.0833-1.6122-.5937-1.5985-1.512l.0826-5.5424c.0137-.9183.7515-1.7303 1.6481-1.8135zm5.4111-.5025c.8965-.0833 1.6122.5936 1.5985 1.5119l-.0825 5.5425c-.0137.9183-.7516 1.7302-1.6481 1.8135l-1.0823.1005c-.8965.0833-1.6122-.5936-1.5985-1.5119l.0826-5.5425c.0137-.9183.7515-1.7302 1.6481-1.8135zm3.7878-.3518.7786 2.1416.8447-2.2924 1.6233-.1508-1.6894 4.5848 1.5573 4.2832-1.6233.1507-.7787-2.1416-.8447 2.2924-1.6233.1508 1.6894-4.5848-1.5573-4.2832zm-9.2237 2.5171-1.0822.1005-.0826 5.5425 1.0822-.1006zm5.4111-.5026-1.0822.1005-.0826 5.5425 1.0822-.1005z" fill="url(#n)"/></g><path d="m17.2587 18.9057-.1321 8.8679-1.6233.1508.1073-7.2052-.8116.0754.0247-1.6627zm3.5172-.3267c.8966-.0832 1.6123.5937 1.5986 1.512l-.0826 5.5425c-.0137.9183-.7516 1.7302-1.6481 1.8135l-1.0822.1005c-.8966.0833-1.6123-.5937-1.5986-1.512l.0826-5.5424c.0137-.9183.7516-1.7303 1.6481-1.8136zm5.4111-.5025c.8966-.0833 1.6123.5936 1.5986 1.5119l-.0826 5.5425c-.0137.9183-.7516 1.7302-1.6481 1.8135l-1.0822.1005c-.8966.0833-1.6123-.5937-1.5986-1.512l.0826-5.5424c.0137-.9183.7516-1.7303 1.6481-1.8135zm3.7878-.3518.7786 2.1416.8447-2.2924 1.6234-.1508-1.6894 4.5848 1.5572 4.2831-1.6233.1508-.7786-2.1416-.8447 2.2924-1.6234.1508 1.6894-4.5848-1.5572-4.2832zm-9.2236 2.5171-1.0823.1005-.0825 5.5424 1.0822-.1005zm5.4111-.5026-1.0823.1005-.0825 5.5425 1.0822-.1005z" fill="url(#o)"/><path d="m17.6323 18.2053-.1322 8.8679-1.6233.1508.1074-7.2052-.8117.0754.0248-1.6627zm3.5172-.3267c.8965-.0832 1.6122.5937 1.5985 1.512l-.0826 5.5425c-.0136.9183-.7515 1.7302-1.6481 1.8135l-1.0822.1005c-.8965.0832-1.6122-.5937-1.5985-1.512l.0825-5.5424c.0137-.9184.7516-1.7303 1.6482-1.8136zm5.4111-.5025c.8965-.0833 1.6122.5936 1.5985 1.5119l-.0826 5.5425c-.0136.9183-.7515 1.7302-1.6481 1.8135l-1.0822.1005c-.8965.0833-1.6122-.5937-1.5985-1.512l.0825-5.5424c.0137-.9183.7516-1.7303 1.6482-1.8135zm3.7877-.3519.7787 2.1416.8447-2.2923 1.6233-.1508-1.6894 4.5847 1.5573 4.2832-1.6234.1508-.7786-2.1416-.8447 2.2924-1.6233.1508 1.6894-4.5848-1.5573-4.2832zm-9.2236 2.5172-1.0822.1005-.0826 5.5424 1.0822-.1005zm5.4111-.5026-1.0822.1005-.0826 5.5425 1.0822-.1006z" fill="url(#p)"/></svg>