<svg fill="none" height="50" viewBox="0 0 50 50" width="50" xmlns="http://www.w3.org/2000/svg" xmlns:xlink="http://www.w3.org/1999/xlink"><linearGradient id="a" gradientUnits="userSpaceOnUse" x1="17.1799" x2="17.1799" y1="0" y2="37.5722"><stop offset="0" stop-color="#3ec099"/><stop offset="1" stop-color="#25b087" stop-opacity=".11"/></linearGradient><linearGradient id="b" gradientUnits="userSpaceOnUse" x1="17.1799" x2="17.1799" y1="0" y2="37.5722"><stop offset="0" stop-color="#d9ffeb"/><stop offset="1" stop-color="#9afcc9"/></linearGradient><linearGradient id="c" gradientUnits="userSpaceOnUse" x1="12.8904" x2="12.8904" y1="0" y2="28.1911"><stop offset="0" stop-color="#4ac8a2"/><stop offset="1" stop-color="#12a278"/></linearGradient><linearGradient id="d" gradientUnits="userSpaceOnUse" x1="12.8904" x2="12.8904" y1="0" y2="28.1911"><stop offset="0" stop-color="#2e694b"/><stop offset="1" stop-color="#214e37"/></linearGradient><linearGradient id="e" gradientUnits="userSpaceOnUse" x1="12.8904" x2="12.8904" y1="0" y2="28.1911"><stop offset="0" stop-color="#a3ffde"/><stop offset="1" stop-color="#26c49c"/></linearGradient><linearGradient id="f" gradientUnits="userSpaceOnUse" x1="24.6957" x2="24.6957" y1="19.8324" y2="27.3936"><stop offset="0" stop-color="#49c8a1"/><stop offset="1" stop-color="#1da37f"/></linearGradient><linearGradient id="g" gradientUnits="userSpaceOnUse" x1="24.0199" x2="24.0199" y1="19.1581" y2="26.7193"><stop offset="0" stop-color="#fff"/><stop offset="1" stop-color="#bfffe0"/></linearGradient><mask id="h" height="28" maskUnits="userSpaceOnUse" width="28" x="9" y="9"><ellipse cx="12.8904" cy="14.0955" fill="url(#d)" rx="12.8904" ry="14.0955" transform="matrix(1 0 -.247372 .968921 13.6841 9.54382)"/></mask><ellipse cx="17.1799" cy="18.7861" fill="url(#a)" rx="17.1799" ry="18.7861" transform="matrix(1 0 -.247372 .968921 14.3643 8.78772)"/><ellipse cx="17.1799" cy="18.7861" fill="url(#b)" rx="17.1799" ry="18.7861" transform="matrix(1 0 -.247372 .968921 10.5439 5)"/><ellipse cx="12.8904" cy="14.0955" fill="url(#c)" rx="12.8904" ry="14.0955" transform="matrix(1 0 -.247372 .968921 13.6768 9.54407)"/><g mask="url(#h)"><ellipse cx="12.8904" cy="14.0955" fill="url(#e)" rx="12.8904" ry="14.0955" transform="matrix(1 0 -.247372 .968921 14.4478 10.3011)"/></g><path d="m18.4989 19.8324-2.8783 7.5612h-1.4872l2.3386-6.1435h-.7436l.5397-1.4177zm3.2223 0c.8214 0 1.2456.6347.9476 1.4177l-1.7989 4.7258c-.2981.783-1.2056 1.4177-2.0269 1.4177h-.9915c-.8214 0-1.2456-.6347-.9476-1.4177l1.7989-4.7258c.2981-.783 1.2056-1.4177 2.027-1.4177zm4.9575 0c.8213 0 1.2456.6347.9475 1.4177l-1.7989 4.7258c-.2981.783-1.2055 1.4177-2.0269 1.4177h-.9915c-.8214 0-1.2456-.6347-.9475-1.4177l1.7989-4.7258c.298-.783 1.2055-1.4177 2.0269-1.4177zm3.4702 0 .024 1.8903 1.4632-1.8903h1.4872l-2.9263 3.7806.0481 3.7806h-1.4873l-.024-1.8903-1.4632 1.8903h-1.4872l2.9263-3.7806-.0481-3.7806zm-8.9673 1.4177h-.9915l-1.7989 4.7258h.9914zm4.9574 0h-.9915l-1.7989 4.7258h.9915z" fill="url(#f)"/><path d="m17.8231 19.1581-2.8783 7.5612h-1.4872l2.3386-6.1435h-.7436l.5397-1.4177zm3.2224 0c.8213 0 1.2456.6347.9475 1.4177l-1.7989 4.7258c-.2981.783-1.2055 1.4177-2.0269 1.4177h-.9915c-.8214 0-1.2456-.6347-.9476-1.4177l1.799-4.7258c.298-.783 1.2055-1.4177 2.0269-1.4177zm4.9574 0c.8214 0 1.2456.6347.9475 1.4177l-1.7989 4.7258c-.298.783-1.2055 1.4177-2.0269 1.4177h-.9915c-.8214 0-1.2456-.6347-.9475-1.4177l1.7989-4.7258c.2981-.783 1.2055-1.4177 2.0269-1.4177zm3.4702 0 .024 1.8903 1.4632-1.8903h1.4873l-2.9264 3.7806.0481 3.7806h-1.4873l-.024-1.8903-1.4632 1.8903h-1.4872l2.9264-3.7806-.0481-3.7806zm-8.9673 1.4177h-.9915l-1.7989 4.7258h.9915zm4.9574 0h-.9915l-1.7989 4.7258h.9915z" fill="url(#g)"/></svg>