<svg fill="none" height="50" viewBox="0 0 50 50" width="50" xmlns="http://www.w3.org/2000/svg" xmlns:xlink="http://www.w3.org/1999/xlink"><linearGradient id="a" gradientUnits="userSpaceOnUse" x1="41.7075" x2="22.5952" y1="27.6192" y2="7.90385"><stop offset=".17573" stop-color="#90edcc"/><stop offset="1" stop-color="#57d9aa"/></linearGradient><linearGradient id="b"><stop offset="0" stop-color="#dbfdf1"/><stop offset="1" stop-color="#91efcd"/></linearGradient><linearGradient id="c" gradientUnits="userSpaceOnUse" x1="25.5443" x2="20.5202" xlink:href="#b" y1="8.48096" y2="44.5165"/><linearGradient id="d" gradientUnits="userSpaceOnUse" x1="25.5439" x2="20.5197" xlink:href="#b" y1="8.4812" y2="44.5167"/><linearGradient id="e" gradientUnits="userSpaceOnUse" x1="21.7854" x2="17.9204" y1="20.5701" y2="33.6182"><stop offset="0" stop-color="#000d1d"/><stop offset="1" stop-color="#2f3032"/></linearGradient><mask id="f" height="37" maskUnits="userSpaceOnUse" width="31" x="11" y="6"><path d="m18.8862 7.68024-3.6679 1.68499.311.68037c-4.4586 4.5233-5.4436 12.7602-1.9441 20.3812 3.4994 7.6211 10.3947 12.2353 16.7326 11.7947l.311.6803 3.668-1.685c7.1804-3.2986 9.5523-13.486 5.2946-22.7466-4.2577-9.26063-13.5313-14.09501-20.7117-10.78996z" fill="#ebe9e9"/></mask><mask id="g" height="37" maskUnits="userSpaceOnUse" width="31" x="7" y="8"><path d="m30.4148 43.0253c7.1807-3.2997 9.5516-13.4831 5.2954-22.7452s-13.5276-14.09553-20.7084-10.7958c-7.18069 3.2997-9.55149 13.4831-5.29532 22.7452 4.25622 9.2621 13.52762 14.0956 20.70832 10.7958z" fill="url(#d)"/></mask><g mask="url(#f)"><path d="m18.8862 7.68024-3.6679 1.68499.311.68037c-4.4586 4.5233-5.4436 12.7602-1.9441 20.3812 3.4994 7.6211 10.3947 12.2353 16.7326 11.7947l.311.6803 3.668-1.685c7.1804-3.2986 9.5523-13.486 5.2946-22.7466-4.2577-9.26063-13.5313-14.09501-20.7117-10.78996z" fill="url(#a)"/><path d="m18.7042 37.5748c3.4412 3.2013 7.634 4.9189 11.6131 4.6468l.311.6803 3.668-1.685c4.8345-2.2228 7.472-7.5628 7.3942-13.635l-22.9927 9.9995z" fill="#000" stroke="#000" stroke-miterlimit="10" stroke-width=".372024"/><path d="m41.4244 25.0841-4.0381 1.4846-.648-2.222 4.2349-1.5522z" fill="#000"/><path d="m18.9906 7.90741.2242-.10302c6.9734-3.0178 15.9693 1.67835 20.1494 10.77021 4.2263 9.1924 1.8327 19.1973-5.1717 22.415l-3.4404 1.5805-.2069-.4526-.072-.1574-.1727.012c-6.2068.4315-13.0194-4.0954-16.4882-11.6496-3.4688-7.5544-2.4712-15.6717 1.895-20.1014l.121-.1228-.0716-.1567-.2073-.45337z" stroke="#000" stroke-miterlimit="10" stroke-width=".5"/></g><path d="m30.4153 43.0251c7.1807-3.2998 9.5516-13.4831 5.2954-22.7452s-13.5276-14.09557-20.7084-10.79584c-7.1807 3.29974-9.55151 13.48304-5.29533 22.74524 4.25613 9.2621 13.52763 14.0955 20.70833 10.7958z" fill="url(#c)"/><g mask="url(#g)"><path d="m6.84766 4.93768h36.39934l-1.9158 29.21522-34.48354-9.5787z" fill="#fff"/></g><path d="m32.6043 21.6663c3.392 7.3814 1.4634 15.3896-4.1364 17.9628-5.5997 2.5733-12.9326-1.1791-16.3245-8.5605-3.39195-7.3814-1.4634-15.3896 4.1364-17.9628 5.5997-2.5732 12.9326 1.1791 16.3245 8.5605z" stroke="#61daae" stroke-width=".5"/><path d="m35.4835 20.3843c4.2248 9.1938 1.8323 19.1947-5.1726 22.4136s-16.152-1.4792-20.37677-10.673c-4.2248-9.1939-1.83229-19.1948 5.17257-22.41368 7.0049-3.21892 16.152 1.47918 20.3768 10.67308z" stroke="#000" stroke-width=".5"/><path clip-rule="evenodd" d="m26.9055 22.0868v2.8818l-3.7668-1.1157v1.8845c3.0503 1.0647 5.3442 2.4401 5.3442 3.2738 0 .8341-2.2939.8502-5.3442.1086v6.0441l-2.6834-.7948v-6.0428c-3.0619-1.0661-5.3674-2.446-5.3674-3.2825s2.3055-.8505 5.3674-.1027v-1.8828l-3.7668-1.1157v-2.8822zm-3.7652 6.3112c2.4078.5851 4.1904.6515 4.1904.1016l.0003.0001c0-.5502-1.7832-1.54-4.1927-2.3816v1.7415c-.4272-.1-.883-.2208-1.3537-.3603-.4635-.1373-.9101-.2837-1.33-.4332v-1.7481c-2.4195-.5892-4.214-.6591-4.214-.1062 0 .5526 1.7942 1.5471 4.214 2.39l.1592.0554.0021.0007c.1602.0543.3225.1082.4874.1616l.0155.0045.139.0447.0406.012.1163.0362.7458.2209.1178.0328.0421.0125.1491.0407.0069.002c.1112.0302.221.0589.3296.087l.0158.0047.1458.037.0173.0051z" fill="url(#e)" fill-rule="evenodd"/></svg>