<svg fill="none" height="135" viewBox="0 0 106 135" width="106" xmlns="http://www.w3.org/2000/svg" xmlns:xlink="http://www.w3.org/1999/xlink"><filter id="a" color-interpolation-filters="sRGB" filterUnits="userSpaceOnUse" height="135" width="106" x="0" y="0"><feFlood flood-opacity="0" result="BackgroundImageFix"/><feColorMatrix in="SourceAlpha" result="hardAlpha" type="matrix" values="0 0 0 0 0 0 0 0 0 0 0 0 0 0 0 0 0 0 127 0"/><feOffset dy="3"/><feComposite in2="hardAlpha" operator="out"/><feColorMatrix type="matrix" values="0 0 0 0 0 0 0 0 0 0 0 0 0 0 0 0 0 0 0.1 0"/><feBlend in2="BackgroundImageFix" mode="normal" result="effect1_dropShadow_14552_51464"/><feBlend in="SourceGraphic" in2="effect1_dropShadow_14552_51464" mode="normal" result="shape"/></filter><filter id="b" color-interpolation-filters="sRGB" filterUnits="userSpaceOnUse" height="125" width="98" x="4" y="5"><feFlood flood-opacity="0" result="BackgroundImageFix"/><feColorMatrix in="SourceAlpha" result="hardAlpha" type="matrix" values="0 0 0 0 0 0 0 0 0 0 0 0 0 0 0 0 0 0 127 0"/><feOffset dy="2"/><feGaussianBlur stdDeviation=".5"/><feComposite in2="hardAlpha" operator="out"/><feColorMatrix type="matrix" values="0 0 0 0 0 0 0 0 0 0 0 0 0 0 0 0 0 0 0.25 0"/><feBlend in2="BackgroundImageFix" mode="normal" result="effect1_dropShadow_14552_51464"/><feBlend in="SourceGraphic" in2="effect1_dropShadow_14552_51464" mode="normal" result="shape"/></filter><g filter="url(#a)"><path clip-rule="evenodd" d="m1 9c0-4.41828 3.58172-8 8-8h88c4.418 0 8 3.58172 8 8v114c0 4.418-3.582 8-8 8h-88c-4.41828 0-8-3.582-8-8z" fill="#27c89c" fill-rule="evenodd"/><path d="m9 .5c-4.69442 0-8.5 3.80558-8.5 8.5v114c0 4.694 3.80558 8.5 8.5 8.5h88c4.694 0 8.5-3.806 8.5-8.5v-114c0-4.69442-3.806-8.5-8.5-8.5z" stroke="#000"/></g><g filter="url(#b)"><path clip-rule="evenodd" d="m5 11c0-3.31371 2.68629-6 6-6h84c3.3137 0 6 2.68629 6 6v110c0 3.314-2.6863 6-6 6h-84c-3.31371 0-6-2.686-6-6z" fill="#fff" fill-rule="evenodd"/></g></svg>