<svg fill="none" height="16" viewBox="0 0 16 16" width="16" xmlns="http://www.w3.org/2000/svg"><path clip-rule="evenodd" d="m15.2426 5.99974h-1.5842c-.8238-2.33025-3.0462-3.99974-5.65853-3.99974-2.61244 0-4.83492 1.66962-5.65859 4h1.62635c.73635-1.48172 2.26538-2.5 4.03224-2.5 1.76675 0 3.29573 1.01816 4.03213 2.49974h-1.032l2.1213 2.50026zm-11.27497 4.00026c.73635 1.4817 2.26538 2.5 4.03224 2.5s3.29593-1.0183 4.03223-2.5h1.6264c-.8237 2.3304-3.0462 4-5.65863 4-2.61244 0-4.83492-1.6696-5.65859-4zm-2.967643-.00023h2.121323 2.12132l-2.12132-2.49977z" fill="#21c397" fill-rule="evenodd"/></svg>