<svg fill="none" height="32" viewBox="0 0 34 32" width="34" xmlns="http://www.w3.org/2000/svg" xmlns:xlink="http://www.w3.org/1999/xlink"><filter id="a" color-interpolation-filters="sRGB" filterUnits="userSpaceOnUse" height="11.96" width="29.103" x="2.39868" y="17.5488"><feFlood flood-opacity="0" result="BackgroundImageFix"/><feBlend in="SourceGraphic" in2="BackgroundImageFix" mode="normal" result="shape"/><feColorMatrix in="SourceAlpha" result="hardAlpha" type="matrix" values="0 0 0 0 0 0 0 0 0 0 0 0 0 0 0 0 0 0 127 0"/><feOffset dy="-1"/><feComposite in2="hardAlpha" k2="-1" k3="1" operator="arithmetic"/><feColorMatrix type="matrix" values="0 0 0 0 0.409497 0 0 0 0 0.427593 0 0 0 0 0.448837 0 0 0 0.425563 0"/><feBlend in2="shape" mode="normal" result="effect1_innerShadow_14381_43726"/></filter><filter id="b" color-interpolation-filters="sRGB" filterUnits="userSpaceOnUse" height="4.78418" width="5.18262" x="26.7175" y="25.123"><feFlood flood-opacity="0" result="BackgroundImageFix"/><feBlend in="SourceGraphic" in2="BackgroundImageFix" mode="normal" result="shape"/><feColorMatrix in="SourceAlpha" result="hardAlpha" type="matrix" values="0 0 0 0 0 0 0 0 0 0 0 0 0 0 0 0 0 0 127 0"/><feOffset dy="-2"/><feComposite in2="hardAlpha" k2="-1" k3="1" operator="arithmetic"/><feColorMatrix type="matrix" values="0 0 0 0 0.634132 0 0 0 0 0.661472 0 0 0 0 0.682535 0 0 0 1 0"/><feBlend in2="shape" mode="normal" result="effect1_innerShadow_14381_43726"/><feColorMatrix in="SourceAlpha" result="hardAlpha" type="matrix" values="0 0 0 0 0 0 0 0 0 0 0 0 0 0 0 0 0 0 127 0"/><feOffset dy="1"/><feComposite in2="hardAlpha" k2="-1" k3="1" operator="arithmetic"/><feColorMatrix type="matrix" values="0 0 0 0 0.862424 0 0 0 0 0.922613 0 0 0 0 1 0 0 0 1 0"/><feBlend in2="effect1_innerShadow_14381_43726" mode="normal" result="effect2_innerShadow_14381_43726"/><feColorMatrix in="SourceAlpha" result="hardAlpha" type="matrix" values="0 0 0 0 0 0 0 0 0 0 0 0 0 0 0 0 0 0 127 0"/><feOffset dx="1"/><feComposite in2="hardAlpha" k2="-1" k3="1" operator="arithmetic"/><feColorMatrix type="matrix" values="0 0 0 0 0.921569 0 0 0 0 0.94902 0 0 0 0 0.968627 0 0 0 1 0"/><feBlend in2="effect2_innerShadow_14381_43726" mode="normal" result="effect3_innerShadow_14381_43726"/></filter><filter id="c" color-interpolation-filters="sRGB" filterUnits="userSpaceOnUse" height="4.78418" width="5.18262" x="2" y="25.123"><feFlood flood-opacity="0" result="BackgroundImageFix"/><feBlend in="SourceGraphic" in2="BackgroundImageFix" mode="normal" result="shape"/><feColorMatrix in="SourceAlpha" result="hardAlpha" type="matrix" values="0 0 0 0 0 0 0 0 0 0 0 0 0 0 0 0 0 0 127 0"/><feOffset dy="-2"/><feComposite in2="hardAlpha" k2="-1" k3="1" operator="arithmetic"/><feColorMatrix type="matrix" values="0 0 0 0 0.634132 0 0 0 0 0.661472 0 0 0 0 0.682535 0 0 0 1 0"/><feBlend in2="shape" mode="normal" result="effect1_innerShadow_14381_43726"/><feColorMatrix in="SourceAlpha" result="hardAlpha" type="matrix" values="0 0 0 0 0 0 0 0 0 0 0 0 0 0 0 0 0 0 127 0"/><feOffset dy="1"/><feComposite in2="hardAlpha" k2="-1" k3="1" operator="arithmetic"/><feColorMatrix type="matrix" values="0 0 0 0 0.862424 0 0 0 0 0.922613 0 0 0 0 1 0 0 0 1 0"/><feBlend in2="effect1_innerShadow_14381_43726" mode="normal" result="effect2_innerShadow_14381_43726"/><feColorMatrix in="SourceAlpha" result="hardAlpha" type="matrix" values="0 0 0 0 0 0 0 0 0 0 0 0 0 0 0 0 0 0 127 0"/><feOffset dx="1"/><feComposite in2="hardAlpha" k2="-1" k3="1" operator="arithmetic"/><feColorMatrix type="matrix" values="0 0 0 0 0.921569 0 0 0 0 0.94902 0 0 0 0 0.968627 0 0 0 1 0"/><feBlend in2="effect2_innerShadow_14381_43726" mode="normal" result="effect3_innerShadow_14381_43726"/></filter><filter id="d" color-interpolation-filters="sRGB" filterUnits="userSpaceOnUse" height="13.2842" width="29.1033" x="2.39868" y="10.3721"><feFlood flood-opacity="0" result="BackgroundImageFix"/><feColorMatrix in="SourceAlpha" result="hardAlpha" type="matrix" values="0 0 0 0 0 0 0 0 0 0 0 0 0 0 0 0 0 0 127 0"/><feOffset dy="2"/><feColorMatrix type="matrix" values="0 0 0 0 0 0 0 0 0 0.142748 0 0 0 0 0.435405 0 0 0 0.184686 0"/><feBlend in2="BackgroundImageFix" mode="normal" result="effect1_dropShadow_14381_43726"/><feBlend in="SourceGraphic" in2="effect1_dropShadow_14381_43726" mode="normal" result="shape"/><feColorMatrix in="SourceAlpha" result="hardAlpha" type="matrix" values="0 0 0 0 0 0 0 0 0 0 0 0 0 0 0 0 0 0 127 0"/><feOffset dx="1"/><feComposite in2="hardAlpha" k2="-1" k3="1" operator="arithmetic"/><feColorMatrix type="matrix" values="0 0 0 0 0.47451 0 0 0 0 0.545098 0 0 0 0 0.623529 0 0 0 0.8 0"/><feBlend in2="shape" mode="normal" result="effect2_innerShadow_14381_43726"/><feColorMatrix in="SourceAlpha" result="hardAlpha" type="matrix" values="0 0 0 0 0 0 0 0 0 0 0 0 0 0 0 0 0 0 127 0"/><feOffset dx="-1"/><feComposite in2="hardAlpha" k2="-1" k3="1" operator="arithmetic"/><feColorMatrix type="matrix" values="0 0 0 0 0.533333 0 0 0 0 0.596078 0 0 0 0 0.658824 0 0 0 0.7 0"/><feBlend in2="effect2_innerShadow_14381_43726" mode="normal" result="effect3_innerShadow_14381_43726"/></filter><filter id="e" color-interpolation-filters="sRGB" filterUnits="userSpaceOnUse" height="6.97656" width="30" x="2" y="2"><feFlood flood-opacity="0" result="BackgroundImageFix"/><feBlend in="SourceGraphic" in2="BackgroundImageFix" mode="normal" result="shape"/><feColorMatrix in="SourceAlpha" result="hardAlpha" type="matrix" values="0 0 0 0 0 0 0 0 0 0 0 0 0 0 0 0 0 0 127 0"/><feOffset dy="3"/><feComposite in2="hardAlpha" k2="-1" k3="1" operator="arithmetic"/><feColorMatrix type="matrix" values="0 0 0 0 0.86 0 0 0 0 0.9112 0 0 0 0 0.94 0 0 0 0.719706 0"/><feBlend in2="shape" mode="normal" result="effect1_innerShadow_14381_43726"/></filter><filter id="f" color-interpolation-filters="sRGB" filterUnits="userSpaceOnUse" height="6.35645" width="29.9004" x="2" y="4.09277"><feFlood flood-opacity="0" result="BackgroundImageFix"/><feBlend in="SourceGraphic" in2="BackgroundImageFix" mode="normal" result="shape"/><feColorMatrix in="SourceAlpha" result="hardAlpha" type="matrix" values="0 0 0 0 0 0 0 0 0 0 0 0 0 0 0 0 0 0 127 0"/><feOffset dy="5"/><feComposite in2="hardAlpha" k2="-1" k3="1" operator="arithmetic"/><feColorMatrix type="matrix" values="0 0 0 0 0.625938 0 0 0 0 0.649815 0 0 0 0 0.699063 0 0 0 1 0"/><feBlend in2="shape" mode="normal" result="effect1_innerShadow_14381_43726"/><feColorMatrix in="SourceAlpha" result="hardAlpha" type="matrix" values="0 0 0 0 0 0 0 0 0 0 0 0 0 0 0 0 0 0 127 0"/><feOffset dy=".5"/><feComposite in2="hardAlpha" k2="-1" k3="1" operator="arithmetic"/><feColorMatrix type="matrix" values="0 0 0 0 1 0 0 0 0 1 0 0 0 0 1 0 0 0 0.890652 0"/><feBlend in2="effect1_innerShadow_14381_43726" mode="normal" result="effect2_innerShadow_14381_43726"/></filter><filter id="g" color-interpolation-filters="sRGB" filterUnits="userSpaceOnUse" height="7.69531" width="10.6047" x="11.6223" y="4.62207"><feFlood flood-opacity="0" result="BackgroundImageFix"/><feBlend in="SourceGraphic" in2="BackgroundImageFix" mode="normal" result="shape"/><feColorMatrix in="SourceAlpha" result="hardAlpha" type="matrix" values="0 0 0 0 0 0 0 0 0 0 0 0 0 0 0 0 0 0 127 0"/><feOffset dx="-.5" dy="-1"/><feComposite in2="hardAlpha" k2="-1" k3="1" operator="arithmetic"/><feColorMatrix type="matrix" values="0 0 0 0 1 0 0 0 0 1 0 0 0 0 1 0 0 0 0.194411 0"/><feBlend in2="shape" mode="normal" result="effect1_innerShadow_14381_43726"/></filter><linearGradient id="h" gradientUnits="userSpaceOnUse" x1="31.6374" x2="31.6374" y1="29.4976" y2="2.26515"><stop offset="0" stop-color="#6ebeff"/><stop offset="1" stop-color="#5873e3"/></linearGradient><linearGradient id="i" gradientUnits="userSpaceOnUse" x1="31.15" x2="31.15" y1="29.3335" y2="17.6625"><stop offset="0" stop-color="#bcbcbc"/><stop offset="1" stop-color="#c1c1c1"/></linearGradient><linearGradient id="j" gradientUnits="userSpaceOnUse" x1="22.9302" x2="22.9302" y1="29.9076" y2="15.9542"><stop offset="0" stop-color="#99a3bd"/><stop offset="1" stop-color="#a5b0cd" stop-opacity=".01"/></linearGradient><linearGradient id="k" gradientUnits="userSpaceOnUse" x1="2.39868" x2="2.39868" y1="7.58137" y2="21.6559"><stop offset="0" stop-color="#394882"/><stop offset=".0001" stop-color="#202227"/><stop offset=".463542" stop-color="#42444f"/><stop offset="1" stop-color="#1e1f24" stop-opacity=".98"/></linearGradient><linearGradient id="l" gradientUnits="userSpaceOnUse" x1="31.6374" x2="31.6374" y1="8.8744" y2="2.06629"><stop offset="0" stop-color="#adc3d8"/><stop offset="1" stop-color="#fafdff"/></linearGradient><linearGradient id="m" gradientUnits="userSpaceOnUse" x1="2.14752" x2="29.4554" y1="8.75737" y2="8.75737"><stop offset="0" stop-color="#abb3c4"/><stop offset="1" stop-color="#ced4d9" stop-opacity=".01"/></linearGradient><linearGradient id="n" gradientUnits="userSpaceOnUse" x1="22.1807" x2="21.5416" y1="13.0999" y2="3.20138"><stop offset="0" stop-color="#8fa1bc"/><stop offset="1" stop-color="#a2afbb"/></linearGradient><linearGradient id="o" gradientUnits="userSpaceOnUse" x1="16.6511" x2="16.5227" y1="3.90423" y2="12.5574"><stop offset="0" stop-color="#a9b5c0"/><stop offset="1" stop-color="#485e70" stop-opacity=".01"/></linearGradient><g opacity=".5"><path clip-rule="evenodd" d="m2.00011 7.07876c0-1.81047 1.21481-3.39037 2.98915-3.75029 2.87336-.58283 7.44214-1.32847 12.01084-1.32847 4.5688 0 9.1375.74564 12.0109 1.32847 1.7743.35992 2.9891 1.93982 2.9891 3.75029v1.89773.00025h-.1981l-.3002 1.47286h-.0001l.0001 5.9026v1.196h-8.8939l-.0004.0007h8.8943v7.5743l.3986.3985v3.9868l-.3987.3986h-4.7841v-.3981h-19.53488v.3981h-4.78405l-.39867-.3986v-3.9868l.39867-.3986h.00012v-7.5742h8.89441l-.0004-.0007h-8.89395v-.7974l-.00017-6.3016-.30012-1.47246h-.09845v-.00025-.4828z" fill="url(#h)" fill-rule="evenodd"/><path d="m4.98926 3.32847.29819 1.47007zm24.02174 0 .2981-1.47006zm2.9891 5.64827v1.49996h1.5v-1.49996zm-.1981 0v-1.5h-1.2251l-.2447 1.20043zm-.3002 1.47286v1.5h1.2251l.2446-1.2004zm-.0001 0v-1.49995h-1.5001l.0001 1.50005zm.0001 5.9026h1.5v-.0001zm0 1.196v1.5h1.5v-1.5zm-8.8939 0v-1.5h-.8668l-.4328.751zm-.0004.0007-1.2996-.749-1.2962 2.249h2.5958zm8.8943 0h1.5v-1.5h-1.5zm0 7.5743h-1.5v.6213l.4393.4393zm.3986.3985h1.5v-.6213l-.4394-.4393zm0 3.9868 1.0606 1.0606.4394-.4393v-.6213zm-.3987.3986v1.5h.6213l.4394-.4393zm-4.7841 0h-1.5v1.5h1.5zm0-.3981h1.5v-1.5h-1.5zm-19.53488 0v-1.5h-1.5v1.5zm0 .3981v1.5h1.5v-1.5zm-4.78405 0-1.06066 1.0607.43934.4393h.62132zm-.39867-.3986h-1.5v.6213l.439338.4393zm0-3.9868-1.060659-1.0606-.439341.4393v.6213zm.39867-.3986v-1.5h-.62132l-.43934.4393zm.00012 0v1.5h1.5v-1.5zm0-7.5742v-1.5h-1.500002v1.5zm8.89441 0v1.5h2.599l-1.3002-2.2504zm-.0004-.0007 1.2988-.7504-.4331-.7496h-.8657zm-8.89395 0h-1.499999v1.5h1.499999zm0-.7974h1.5zm-.00017-6.3016 1.5-.0001v-.1512l-.03022-.1483zm-.30012-1.47246 1.46979-.29957-.24468-1.20043h-1.22511zm-.09845 0h-1.500003v1.49996h1.500003zm2.69096-7.11833c-2.51745.51065-4.190963 2.74213-4.190963 5.22035h3.000003c0-1.14272.75611-2.07105 1.78734-2.28022zm12.30903-1.35841c-4.712 0-9.3914.76659-12.30903 1.35841l.59638 2.94013c2.82909-.57386 7.28715-1.29854 11.71265-1.29854zm12.309 1.35841c-2.9176-.59182-7.597-1.35841-12.309-1.35841v3c4.4255 0 8.8836.72468 11.7127 1.29854zm4.191 5.22035c0-2.47822-1.6735-4.7097-4.191-5.22035l-.5963 2.94013c1.0312.20917 1.7873 1.1375 1.7873 2.28022zm0 1.89773v-1.89773h-3v1.89773zm0 .00025v-.00025h-3v.00025zm-1.6981 1.49996h.1981v-2.99996h-.1981zm1.1695.2725.3003-1.47288-2.9396-.59915-.3002 1.47293zm-1.4698 1.2004h.0001v-2.99995h-.0001zm1.5001 4.4025-.0001-5.9025-3 .0001.0001 5.9025zm0 1.1961v-1.196h-3v1.196zm-10.3939 1.5h8.8939v-3h-8.8939zm1.2992-.7504.0004-.0006-2.5992-1.498-.0004.0007zm7.5947-2.2489h-8.8943v3h8.8943zm1.5 9.0743v-7.5743h-3v7.5743zm-.0408-.6621-.3986-.3986-2.1213 2.1213.3986.3986zm.4394 5.0474v-3.9868h-3v3.9868zm-.838 1.4593.3986-.3987-2.1213-2.1213-.3987.3987zm-5.8448.4393h4.7841v-3h-4.7841zm-1.5-1.8981v.3981h3v-.3981zm-18.03488 1.5h19.53488v-3h-19.53488zm1.5-1.1019v-.3981h-3v.3981zm-6.28405 1.5h4.78405v-3h-4.78405zm-1.459332-.838.398672.3987 2.12132-2.1213-.39867-.3987zm-.439338-5.0474v3.9868h3v-3.9868zm.83801-1.4593-.398669.3987 2.121319 2.1213.39867-.3987zm1.06078-.4393h-.00012v3h.00012zm-1.500002-6.0742v7.5742h3.000002v-7.5742zm10.394412-1.5h-8.89441v3h8.89441zm-1.29921 2.2497.00038.0006 2.59763-1.5007-.0004-.0007zm-7.59514.7496h8.89395v-3h-8.89395zm-1.499999-2.2974v.7974h2.999999v-.7974zm-.000168-6.3016.000168 6.3017 2.999999-.0001-.00017-6.3017zm-.269898-1.17288.300117 1.47248 2.939558-.5992-.30011-1.47243zm1.371325 1.20038h.09845v-2.99996h-.09845zm-1.500003-1.50021v.00025h3.000003v-.00025zm0-.4828v.4828h3.000003v-.4828zm0-1.41493v1.41493h3.000003v-1.41493z" fill="#000" fill-opacity=".804114"/><g clip-rule="evenodd" fill-rule="evenodd" filter="url(#a)"><path d="m2.39868 17.5488h9.16942l1.1361 2.045c.5291.9524 1.533 1.5431 2.6225 1.5431h3.247c1.0895 0 2.0933-.5907 2.6224-1.5431l1.1361-2.045h9.1695v8.9602c0 1.6568-1.3432 3-3 3h-23.10302c-1.65685 0-3-1.3432-3-3z" fill="url(#i)"/><path d="m2.39868 17.5488h9.16942l1.1361 2.045c.5291.9524 1.533 1.5431 2.6225 1.5431h3.247c1.0895 0 2.0933-.5907 2.6224-1.5431l1.1361-2.045h9.1695v8.9602c0 1.6568-1.3432 3-3 3h-23.10302c-1.65685 0-3-1.3432-3-3z" fill="url(#j)"/><path d="m2.39868 17.5488h9.16942l1.1361 2.045c.5291.9524 1.533 1.5431 2.6225 1.5431h3.247c1.0895 0 2.0933-.5907 2.6224-1.5431l1.1361-2.045h9.1695v8.9602c0 1.6568-1.3432 3-3 3h-23.10302c-1.65685 0-3-1.3432-3-3z" stroke="#625d6f" stroke-opacity=".12"/></g><g filter="url(#b)"><path clip-rule="evenodd" d="m29.9069 25.123h1.5947l.3987.3987v3.9867l-.3987.3987h-4.7841v-1.9934z" fill="#bfc6ce" fill-rule="evenodd"/></g><g filter="url(#c)"><path clip-rule="evenodd" d="m3.99325 25.123h-1.59469l-.39867.3987v3.9867l.39867.3987h4.78406v-1.9934z" fill="#bfc6ce" fill-rule="evenodd"/></g><g filter="url(#d)"><path clip-rule="evenodd" d="m31.5018 16.3521v1.196h-8.8939l-2.3685 4.1021-3.2891.0057-3.289-.0057-2.3685-4.1021h-8.89395v-.7973l-.00017-6.3787h11.26242 6.5781 11.2625z" fill="url(#k)" fill-rule="evenodd"/></g><g filter="url(#e)"><path clip-rule="evenodd" d="m2 7.07876c0-1.81047 1.21481-3.39037 2.98915-3.75029 2.87336-.58283 7.44215-1.32847 12.01085-1.32847s9.1375.74564 12.0109 1.32847c1.7743.35992 2.9891 1.93982 2.9891 3.75029v1.89798h-30z" fill="url(#l)" fill-rule="evenodd"/></g><path clip-rule="evenodd" d="m2 8.97649c0-1.72579 1.16524-3.2292 2.85782-3.56615 2.8642-.5702 7.50318-1.31757 12.14218-1.31757s9.278.74737 12.1422 1.31757c1.6926.33695 2.8578 1.84036 2.8578 3.56615z" fill="url(#m)" fill-rule="evenodd"/><g filter="url(#f)"><path clip-rule="evenodd" d="m2.39867 10.4497-.39867-1.95601 9.3839-.00039 2.6759-4.40053h5.7807l2.6755 4.40053 9.3843.00039-.3986 1.95601z" fill="#000" fill-opacity=".01" fill-rule="evenodd"/></g><g clip-rule="evenodd" fill-rule="evenodd"><path d="m22.227 8.4698v.31735l-2.6511 3.84775h-5.3024l-2.6511-3.84775v-.31735l2.6511-3.84771h5.3024z" fill="#df8d17" stroke="#0f141c" stroke-opacity=".8"/><g filter="url(#g)"><path d="m19.5759 4.62209 2.6511 3.84771-2.6511 3.8477h-5.3024l-2.6511-3.8477 2.6511-3.84771z" fill="url(#n)"/><path d="m19.5759 4.62209 2.6511 3.84771-2.6511 3.8477h-5.3024l-2.6511-3.8477 2.6511-3.84771z" fill="url(#o)"/></g><path d="m17.4736 9.49758-1.2238-1.03339 1.2238-1.03339.7731.65285c.1364.11521.3583.11521.4947 0 .1365-.1152.1365-.30256 0-.41777l-1.0197-.86116c-.1365-.11521-.3597-.11404-.4948 0l-1.4704 1.24286v-.73897c0-.16292-.1571-.29558-.3501-.29558-.1929 0-.35.13266-.35.29558v2.31233c0 .16292.1571.29558.35.29558.193 0 .3501-.13383.3501-.29558v-.73897l1.4704 1.24173c.1351.114.3583.1152.4948 0l1.0197-.86119c.1365-.11521.1365-.30257 0-.41778-.1364-.11521-.3583-.11521-.4947 0zm-.3487-1.03203c0-.16292.1571-.29558.35-.29558.193 0 .3501.1315.3501.29558 0 .16293-.1571.29559-.3501.29559-.1929 0-.35-.13266-.35-.29559z" fill="#e3e3e3" opacity=".6"/></g></g></svg>