<svg fill="none" height="20" viewBox="0 0 20 20" width="20" xmlns="http://www.w3.org/2000/svg" xmlns:xlink="http://www.w3.org/1999/xlink"><mask id="a" fill="#000" height="20" maskUnits="userSpaceOnUse" width="20" x="0" y="0"><path d="m0 0h20v20h-20z" fill="#fff"/><path clip-rule="evenodd" d="m17 10c0 3.866-3.134 7-7 7-3.86599 0-7-3.134-7-7 0-3.86599 3.13401-7 7-7 3.866 0 7 3.13401 7 7zm2 0c0 4.9706-4.0294 9-9 9-4.97056 0-9-4.0294-9-9 0-4.97056 4.02944-9 9-9 4.9706 0 9 4.02944 9 9zm-9-5c1.6569 0 3 1.34315 3 3 0 1.15178-.6491 2.152-1.6014 2.6547-.2319.1224-.3978.3464-.398.6086l-.0006.7367h-2v-1c0-.7405.40242-1.38698 1.0005-1.73272l.1001-.06179c.6964-.3684.9291-.73205.8994-1.20549-.0346-.5512-.4477-1-1-1-.51284 0-.93551.38604-.99327.88338l-.00673.11662h-2c0-1.65685 1.34315-3 3-3zm1 8v2h-2v-2z" fill="#000" fill-rule="evenodd"/></mask><path clip-rule="evenodd" d="m17 10c0 3.866-3.134 7-7 7-3.86599 0-7-3.134-7-7 0-3.86599 3.13401-7 7-7 3.866 0 7 3.13401 7 7zm2 0c0 4.9706-4.0294 9-9 9-4.97056 0-9-4.0294-9-9 0-4.97056 4.02944-9 9-9 4.9706 0 9 4.02944 9 9zm-9-5c1.6569 0 3 1.34315 3 3 0 1.15178-.6491 2.152-1.6014 2.6547-.2319.1224-.3978.3464-.398.6086l-.0006.7367h-2v-1c0-.7405.40242-1.38698 1.0005-1.73272l.1001-.06179c.6964-.3684.9291-.73205.8994-1.20549-.0346-.5512-.4477-1-1-1-.51284 0-.93551.38604-.99327.88338l-.00673.11662h-2c0-1.65685 1.34315-3 3-3zm1 8v2h-2v-2z" fill="#fff" fill-rule="evenodd"/><path d="m11.3986 10.6547-.4669-.88431zm-.398.6086-1-.0008zm-.0006.7367v1h.9992l.0008-.9992zm-2 0h-1v1h1zm1.0005-2.73272.5005.86572.0125-.0072.0123-.0076zm.1001-.06179-.46763-.88394-.02943.01557-.02832.01748zm.8994-1.20549.998-.06268zm-1.99327-.11662-.99332-.11538-.00335.02882-.00167.02897zm-.00673.11662v1h.94398l.05436-.94241zm-2 0h-1v1h1zm4 7v1h1v-1zm0-2h1v-1h-1zm-2 2h-1v1h1zm0-2v-1h-1v1zm1 5c4.4183 0 8-3.5817 8-8h-2c0 3.3137-2.6863 6-6 6zm-8-8c0 4.4183 3.58172 8 8 8v-2c-3.31371 0-6-2.6863-6-6zm8-8c-4.41828 0-8 3.58172-8 8h2c0-3.31371 2.68629-6 6-6zm8 8c0-4.41828-3.5817-8-8-8v2c3.3137 0 6 2.68629 6 6zm-8 10c5.5228 0 10-4.4772 10-10h-2c0 4.4183-3.5817 8-8 8zm-10-10c0 5.5228 4.47715 10 10 10v-2c-4.41828 0-8-3.5817-8-8zm10-10c-5.52285 0-10 4.47715-10 10h2c0-4.41828 3.58172-8 8-8zm10 10c0-5.52285-4.4772-10-10-10v2c4.4183 0 8 3.58172 8 8zm-6-2c0-2.20914-1.7909-4-4-4v2c1.1046 0 2 .89543 2 2zm-2.1346 3.5391c1.2673-.669 2.1346-2.00199 2.1346-3.5391h-2c0 .76646-.4309 1.43389-1.0683 1.77039zm.1352-.275c-.0001.0861-.0287.1572-.06.2033-.0289.0427-.0582.0627-.0752.0717l-.9337-1.76871c-.4842.25561-.9306.78131-.9311 1.49211zm-.0006.7367.0006-.7367-2-.0016-.0006.7367zm-3 .9992h2v-2h-2zm-1-2v1h2v-1zm1.50002-2.59847c-.89451.5171-1.50002 1.48648-1.50002 2.59847h2c0-.369.1993-.6926.501-.867zm.0752-.04693-.10007.06179 1.05065 1.70181.1001-.0618zm.42678-.29192c.0017.0278-.0018.02887.002.01475.0043-.01604.0106-.0245.0076-.02042-.01425.0198-.09577.11491-.37863.26454l.93523 1.76785c.4135-.21873.7966-.48966 1.0653-.86214.2926-.40549.3922-.85017.3645-1.28994zm-.002-.06268c.0007 0-.00528-.00026-.01334-.00375-.00717-.00311-.00967-.00601-.00841-.00472.00361.0037.02086.02565.02375.07115l1.996-.12536c-.0625-.99624-.8395-1.93732-1.998-1.93732zm0-.00125c.0001-.00002 0 .00034-.00016.00088-.00016.0005-.00032.00086-.00041.00103-.00011.0002.00013-.00028.00077-.00089.0007-.00056.0008-.00044-.0001-.00011-.00133.00053-.00193.00034-.0001.00034v-2c-1.02638 0-1.87094.77228-1.98659 1.768zm-.00166.05884.00676-.11662-1.99671-.11518-.00673.11662zm-2.99834.94241h2v-2h-2zm3-5c-2.20914 0-4 1.79086-4 4h2c0-1.10457.89543-2 2-2zm2 11v-2h-2v2zm-3 1h2v-2h-2zm-1-3v2h2v-2zm3-1h-2v2h2z" fill="#000" fill-opacity=".2" mask="url(#a)"/></svg>