<svg fill="none" height="375" viewBox="0 0 375 375" width="375" xmlns="http://www.w3.org/2000/svg" xmlns:xlink="http://www.w3.org/1999/xlink"><linearGradient id="a"><stop offset="0" stop-color="#ffe598" stop-opacity=".17"/><stop offset="1" stop-color="#ffe598" stop-opacity="0"/></linearGradient><linearGradient id="b" gradientUnits="userSpaceOnUse" x1="187.795" x2="187.795" xlink:href="#a" y1="187.38" y2="374.759"/><linearGradient id="c" gradientUnits="userSpaceOnUse" x1="220.598" x2="220.598" xlink:href="#a" y1="187.38" y2="374.759"/><linearGradient id="d" gradientUnits="userSpaceOnUse" x1="204.197" x2="204.197" xlink:href="#a" y1="170.979" y2="358.358"/><linearGradient id="e" gradientUnits="userSpaceOnUse" x1="204.197" x2="204.197" xlink:href="#a" y1="203.781" y2="391.16"/><linearGradient id="f" gradientUnits="userSpaceOnUse" x1="189.992" x2="189.992" xlink:href="#a" y1="179.179" y2="366.558"/><linearGradient id="g" gradientUnits="userSpaceOnUse" x1="218.401" x2="218.401" xlink:href="#a" y1="195.58" y2="382.959"/><linearGradient id="h" gradientUnits="userSpaceOnUse" x1="212.397" x2="212.397" xlink:href="#a" y1="173.176" y2="360.555"/><linearGradient id="i" gradientUnits="userSpaceOnUse" x1="195.996" x2="195.996" xlink:href="#a" y1="201.584" y2="388.963"/><linearGradient id="j" gradientUnits="userSpaceOnUse" x1="195.996" x2="195.996" xlink:href="#a" y1="173.176" y2="360.555"/><linearGradient id="k" gradientUnits="userSpaceOnUse" x1="212.398" x2="212.398" xlink:href="#a" y1="201.584" y2="388.963"/><linearGradient id="l" gradientUnits="userSpaceOnUse" x1="218.401" x2="218.401" xlink:href="#a" y1="179.179" y2="366.558"/><linearGradient id="m" gradientUnits="userSpaceOnUse" x1="189.993" x2="189.993" xlink:href="#a" y1="195.58" y2="382.959"/><path d="m171.219 187.38h33.1517v187.379h-33.1517z" fill="url(#b)"/><path d="m204.022 187.38h33.1517v187.379h-33.1517z" fill="url(#c)" transform="matrix(-1 -0 0 -1 408.044 374.76)"/><path d="m187.621 170.979h33.1517v187.379h-33.1517z" fill="url(#d)" transform="matrix(0 1 -1 0 358.6 -16.642)"/><path d="m187.621 203.781h33.1517v187.379h-33.1517z" fill="url(#e)" transform="matrix(0 -1 1 0 -16.16 391.402)"/><path d="m173.417 179.179h33.1517v187.379h-33.1517z" fill="url(#f)" transform="matrix(.8660254 .5 -.5 .8660254 112.822973 -62.703066)"/><path d="m201.825 195.58h33.1517v187.379h-33.1517z" fill="url(#g)" transform="matrix(-.8660254 -.5 .5 -.8660254 278.820577 465.869748)"/><path d="m195.822 173.176h33.1517v187.379h-33.1517z" fill="url(#h)" transform="matrix(-.5 .8660254 -.8660254 -.5 443.707815 90.177173)"/><path d="m179.42 201.584h33.1517v187.379h-33.1517z" fill="url(#i)" transform="matrix(.5 -.8660254 .8660254 .5 -84.866865 256.174278)"/><path d="m179.42 173.176h33.1517v187.379h-33.1517z" fill="url(#j)" transform="matrix(.5 .8660254 -.8660254 .5 239.684815 -68.794278)"/><path d="m195.822 201.584h33.1517v187.379h-33.1517z" fill="url(#k)" transform="matrix(-.5 -.8660254 .8660254 -.5 119.156135 471.962827)"/><path d="m201.825 179.179h33.1517v187.379h-33.1517z" fill="url(#l)" transform="matrix(-.8660254 .5 -.5 -.8660254 466.200077 233.440066)"/><path d="m173.417 195.58h33.1517v187.379h-33.1517z" fill="url(#m)" transform="matrix(.8660254 -.5 .5 .8660254 -74.556527 112.911252)"/></svg>