<svg fill="none" height="20" viewBox="0 0 20 20" width="20" xmlns="http://www.w3.org/2000/svg" xmlns:xlink="http://www.w3.org/1999/xlink"><mask id="a" fill="#000" height="20" maskUnits="userSpaceOnUse" width="20" x="0" y="0"><path d="m0 0h20v20h-20z" fill="#fff"/><path clip-rule="evenodd" d="m11.3931 15.4695c-.708 1.4161-1.3161 1.5305-1.3931 1.5305-.07698 0-.68509-.1144-1.39313-1.5305-.54966-1.0993-.96301-2.6549-1.07601-4.4695h4.93824c-.113 1.8146-.5263 3.3702-1.076 4.4695zm1.076-6.4695h-4.93824c.113-1.81464.52635-3.37021 1.07601-4.46953.70804-1.41607 1.31615-1.53047 1.39313-1.53047.077 0 .6851.1144 1.3931 1.53047.5497 1.09932.963 2.65489 1.076 4.46953zm2.0034 2c-.1107 2.0027-.5499 3.8073-1.2075 5.1935 1.9405-1.0251 3.3411-2.9355 3.6641-5.1935zm2.4566-2h-2.4566c-.1107-2.00267-.5499-3.8073-1.2075-5.19351 1.9405 1.0251 3.3411 2.9355 3.6641 5.19351zm-11.40164 0c.1107-2.00267.54994-3.8073 1.20754-5.1935-1.94053 1.0251-3.34113 2.93549-3.66411 5.1935zm-2.45657 2c.32298 2.258 1.72358 4.1684 3.66411 5.1935-.6576-1.3862-1.09684-3.1908-1.20754-5.1935zm15.92911-1c0-4.97056-4.0294-9-9-9-4.97056 0-9 4.02944-9 9 0 4.9706 4.02944 9 9 9 4.9706 0 9-4.0294 9-9z" fill="#000" fill-rule="evenodd"/></mask><path clip-rule="evenodd" d="m11.3931 15.4695c-.708 1.4161-1.3161 1.5305-1.3931 1.5305-.07698 0-.68509-.1144-1.39313-1.5305-.54966-1.0993-.96301-2.6549-1.07601-4.4695h4.93824c-.113 1.8146-.5263 3.3702-1.076 4.4695zm1.076-6.4695h-4.93824c.113-1.81464.52635-3.37021 1.07601-4.46953.70804-1.41607 1.31615-1.53047 1.39313-1.53047.077 0 .6851.1144 1.3931 1.53047.5497 1.09932.963 2.65489 1.076 4.46953zm2.0034 2c-.1107 2.0027-.5499 3.8073-1.2075 5.1935 1.9405-1.0251 3.3411-2.9355 3.6641-5.1935zm2.4566-2h-2.4566c-.1107-2.00267-.5499-3.8073-1.2075-5.19351 1.9405 1.0251 3.3411 2.9355 3.6641 5.19351zm-11.40164 0c.1107-2.00267.54994-3.8073 1.20754-5.1935-1.94053 1.0251-3.34113 2.93549-3.66411 5.1935zm-2.45657 2c.32298 2.258 1.72358 4.1684 3.66411 5.1935-.6576-1.3862-1.09684-3.1908-1.20754-5.1935zm15.92911-1c0-4.97056-4.0294-9-9-9-4.97056 0-9 4.02944-9 9 0 4.9706 4.02944 9 9 9 4.9706 0 9-4.0294 9-9z" fill="#fff" fill-rule="evenodd"/><path d="m11.3931 15.4695-.8944-.4472zm-2.78623 0-.89442.4472zm-1.07601-4.4695v-1h-1.0642l.06614 1.0621zm4.93824 0 .9981.0621.0661-1.0621h-1.0642zm-4.93824-2-.99806-.06215-.06614 1.06215h1.0642zm4.93824 0v1h1.0642l-.0661-1.06215zm-3.86223-4.46953-.89442-.44722zm2.78623 0-.8944.44721zm3.0794 6.46953v-1h-.9462l-.0522.9448zm-1.2075 5.1935-.9035-.4286-1.2894 2.718 2.66-1.4052zm3.6641-5.1935.9899.1416.1633-1.1416h-1.1532zm-2.4566-2-.9984.05519.0522.94481h.9462zm2.4566 0v1h1.1532l-.1633-1.1416zm-3.6641-5.19351.4671-.88421-2.66-1.40513 1.2894 2.71795zm-6.53.00001.90349.4286 1.28938-2.71795-2.65996 1.40514zm-1.20754 5.1935v1h.94626l.05222-.94481zm-2.45657 0-.98993-.1416-.16329 1.1416h1.15322zm3.66411 7.1935-.46709.8842 2.65996 1.4052-1.28938-2.718zm-3.66411-5.1935v-1h-1.15322l.16329 1.1416zm2.45657 0 .99848-.0552-.05222-.9448h-.94626zm4.47254 7c.6429 0 1.5143-.5367 2.2876-2.0833l-1.7889-.8944c-.3099.6198-.55999.8775-.67375.971-.0559.0459-.07777.0514-.05874.0435.00109-.0004.08231-.0368.23379-.0368zm-2.28755-2.0833c.77327 1.5466 1.64464 2.0833 2.28755 2.0833v-2c.1515 0 .2327.0364.2338.0368.019.0079-.0029.0024-.0588-.0435-.1137-.0935-.36382-.3512-.6737-.971zm-1.17965-4.8546c.1195 1.9193.55805 3.6114 1.17965 4.8546l1.78885-.8944c-.47772-.9554-.86589-2.3745-.97237-4.0844zm5.9363-1.0621h-4.93824v2h4.93824zm-.1815 5.9167c.6216-1.2432 1.0601-2.9353 1.1796-4.8546l-1.9961-.1242c-.1065 1.7099-.4947 3.129-.9724 4.0844zm-4.75674-5.9167h4.93824v-2h-4.93824zm.18159-5.91675c-.6216 1.2432-1.06015 2.93531-1.17965 4.8546l1.99613.1243c.10648-1.70999.49465-3.12902.97237-4.08447zm2.28755-2.08325c-.64291 0-1.51428.5367-2.28755 2.08325l1.78885.89443c.30988-.61976.56-.87744.6737-.97093.0559-.04595.0778-.0515.0588-.04357-.0011.00045-.0823.03682-.2338.03682zm2.2876 2.08325c-.7733-1.54655-1.6447-2.08325-2.2876-2.08325v2c-.15148 0-.2327-.03637-.23379-.03682-.01903-.00793.00284-.00238.05874.04356.11376.0935.36385.35118.67375.97094zm1.1796 4.8546c-.1195-1.91929-.558-3.6114-1.1796-4.8546l-1.7889.89443c.4777.95545.8659 2.37448.9724 4.08447zm.0069 2.00695c-.105 1.8987-.5205 3.5721-1.1126 4.8201l1.807.8572c.7231-1.5244 1.1861-3.4603 1.3025-5.5669zm.258 6.1329c2.2158-1.1705 3.8174-3.3524 4.1869-5.9361l-1.9798-.2832c-.2764 1.9323-1.476 3.5712-3.1413 4.4509zm3.197-7.0777h-2.4566v2h2.4566zm-2.4566 0h2.4566v-2h-2.4566zm-2.111-5.7649c.5921 1.24802 1.0076 2.92137 1.1126 4.82009l1.9969-.11038c-.1164-2.10663-.5794-4.04253-1.3025-5.56692zm5.5575 4.6233c-.3695-2.58371-1.9711-4.76562-4.1869-5.93612l-.9342 1.76842c1.6653.87971 2.8649 2.51858 3.1413 4.4509zm-12.08749-5.48051c-.72316 1.52439-1.18608 3.46029-1.30252 5.56692l1.99695.11038c.10495-1.89872.52051-3.57207 1.11255-4.82009zm-1.7707 5.76371c.2764-1.93232 1.47598-3.57119 3.14128-4.45089l-.93418-1.76842c-2.21576 1.17049-3.81738 3.35241-4.18695 5.93611zm-.98992.8584h2.45657v-2h-2.45657zm4.1312 5.3093c-1.6653-.8797-2.86488-2.5186-3.14128-4.4509l-1.97985.2832c.36957 2.5837 1.97119 4.7656 4.18695 5.9361zm-2.6731-4.2541c.11644 2.1066.57937 4.0425 1.30252 5.5669l1.80698-.8572c-.59204-1.248-1.0076-2.9214-1.11255-4.8201zm.99847-1.0552h-2.45657v2h2.45657zm4.47254-8c4.4183 0 8 3.58172 8 8h2c0-5.52285-4.4772-10-10-10zm-8 8c0-4.41828 3.58172-8 8-8v-2c-5.52285 0-10 4.47715-10 10zm8 8c-4.41828 0-8-3.5817-8-8h-2c0 5.5228 4.47715 10 10 10zm8-8c0 4.4183-3.5817 8-8 8v2c5.5228 0 10-4.4772 10-10z" fill="#000" fill-opacity=".2" mask="url(#a)"/></svg>