<svg fill="none" height="16" viewBox="0 0 16 16" width="16" xmlns="http://www.w3.org/2000/svg"><path clip-rule="evenodd" d="m10.4999 7.00016v-1.00016c0-1.38071-1.11931-2.5-2.50002-2.5s-2.5 1.11929-2.5 2.5v1.00016zm1.5 0v-1.00016c0-2.20914-1.7909-4-4.00002-4-2.20914 0-4 1.79086-4 4v1.00016c-.55223.00007-.99988.44776-.99988 1v4.00004c0 1.1045.89543 2 2 2h6c1.1046 0 2-.8955 2-2v-4.00004c0-.55228-.4477-1-1-1zm-3.4999 3.86624c.2989-.1729.5-.4961.5-.8662 0-.55232-.44772-1.00004-1-1.00004s-1 .44772-1 1.00004c0 .3701.2011.6933.5.8662v1.1338h1z" fill="#737e8d" fill-rule="evenodd"/></svg>