<svg width="24" height="24" viewBox="0 0 24 24" fill="none" xmlns="http://www.w3.org/2000/svg">
<path fill-rule="evenodd" clip-rule="evenodd" d="M16.6569 5.34315C19.2763 7.9626 19.6995 11.9466 17.9264 15.007C17.6111 15.5512 17.6422 16.228 18.0869 16.6728L21.0511 19.6368L19.6368 21.0511L15.9052 17.3208C15.9052 17.3208 15.0562 17.8981 14.9963 17.9326C11.9373 19.6985 7.95955 19.2733 5.34315 16.6569C2.21895 13.5327 2.21895 8.46734 5.34315 5.34315C8.46734 2.21895 13.5327 2.21895 16.6569 5.34315ZM15.2426 6.75736C12.8995 4.41421 9.1005 4.41421 6.75736 6.75736C4.41421 9.1005 4.41421 12.8995 6.75736 15.2426C9.1005 17.5858 12.8995 17.5858 15.2426 15.2426C17.5858 12.8995 17.5858 9.1005 15.2426 6.75736Z" fill="currentColor"/>
</svg>
