<svg fill="none" height="36" viewBox="0 0 40 36" width="40" xmlns="http://www.w3.org/2000/svg"><path d="m3.76837 5.42302c-1.86713.50029-2.975173 2.41947-2.47488 4.2866l6.0347 22.52178c.50029 1.8671 2.41947 2.9752 4.28661 2.4749l14.6558-3.9271c1.8672-.5002 2.9752-2.4194 2.4749-4.2866l-6.0347-22.52173c-.5003-1.86713-2.4195-2.975173-4.2866-2.47488z" fill="#fff" stroke="#000"/><path d="m2.74238 9.32139c-.28588-1.06693.34728-2.1636 1.41422-2.44949l14.6558-3.92702c1.067-.28588 2.1637.34728 2.4495 1.41422l6.0347 22.5218c.2859 1.0669-.3473 2.1636-1.4142 2.4495l-14.6558 3.927c-1.067.2859-2.16364-.3473-2.44953-1.4142z" stroke="#5c95e8" stroke-width="2"/><path d="m11.6801 2.94148c-1.93304 0-3.50005 1.567-3.50005 3.5v23.31622c0 1.933 1.56701 3.5 3.50005 3.5h15.1728c1.933 0 3.5-1.567 3.5-3.5v-23.31622c0-1.93299-1.567-3.5-3.5-3.5z" fill="#fff" stroke="#000"/><path d="m9.68005 6.44148c0-1.10457.89545-2 2.00005-2h15.1728c1.1046 0 2 .89543 2 2v23.31622c0 1.1046-.8954 2-2 2h-15.1728c-1.1046 0-2.00005-.8954-2.00005-2z" stroke="#5c95e8" stroke-width="2"/><path d="m21.5625 1.29349c-1.8672-.500292-3.7863.60774-4.2866 2.47488l-6.0347 22.52173c-.5003 1.8672.6077 3.7864 2.4748 4.2867l14.6559 3.927c1.8671.5003 3.7863-.6078 4.2866-2.4749l6.0347-22.52178c.5003-1.86713-.6078-3.78631-2.4749-4.2866z" fill="#fff" stroke="#000"/><circle cx="25.0001" cy="18" fill="#5c95e8" r="5"/><path d="m18.7247 4.15659c.2859-1.06693 1.3826-1.70009 2.4495-1.41421l14.6559 3.92703c1.0669.28588 1.7001 1.38255 1.4142 2.44949l-6.0347 22.5218c-.2859 1.0669-1.3825 1.7001-2.4495 1.4142l-14.6558-3.927c-1.067-.2859-1.7001-1.3826-1.4142-2.4495z" stroke="#5c95e8" stroke-width="2"/></svg>