<svg fill="none" height="16" viewBox="0 0 16 16" width="16" xmlns="http://www.w3.org/2000/svg"><path d="m16 8.04801c.0003-1.52891-.4375-3.02591-1.2615-4.31372-.8241-1.28782-2-2.31252-3.3884-2.952776-1.38837-.640257-2.93117-.8692519-4.44568-.659872-1.51451.209381-2.9373.848367-4.09991 1.841298-1.16261.99293-2.016345 2.29823-2.460114 3.76132-.4437693 1.4631-.458987 3.02272-.043852 4.49424.415136 1.4714 1.243236 2.7931 2.386246 3.8086 1.14302 1.0154 2.55307 1.682 4.06321 1.9209v-5.588h-2.031v-2.31199h2.031v-1.763c-.04373-.41155.0036-.82769.13863-1.21891s.35446-.74795.64273-1.04491c.28828-.29696.63834-.52687 1.02538-.67345.38705-.14658.80159-.20623 1.21426-.17473.6.00788 1.1986.06002 1.791.156v1.971h-1.008c-.1717-.02245-.3463-.00601-.5108.04812-.16446.05412-.31467.14454-.4395.26457-.12483.12002-.22107.26658-.2816.42883-.06053.16224-.08381.33602-.0681.50848v1.5h2.219l-.355 2.31199h-1.868v5.591c1.8822-.2977 3.5964-1.2576 4.8338-2.7068 1.2375-1.4492 1.917-3.29255 1.9162-5.19819z" fill="#6e757c"/></svg>