<svg fill="none" height="16" viewBox="0 0 71 16" width="71" xmlns="http://www.w3.org/2000/svg"><g fill="#6e757c"><path clip-rule="evenodd" d="m55.4365 6.84625c.0132.35449.0132.73835.0132 1.14642l-.0015-.00073c.003.40733-.0022.78899-.0132 1.14568-.0086.33341-.0412.66577-.0976.99448-.0532.301-.1473.5934-.2795.869-.1401.2838-.3266.5423-.5517.7648-.3197.3269-.7006.5877-1.1209.7677-.4544.1854-.9414.2773-1.4321.2701-.4925.0066-.9813-.0852-1.4379-.2701-.423-.1785-.8064-.4395-1.1276-.7677-.2247-.2223-.4104-.4809-.5495-.7648-.1311-.2757-.2237-.5681-.2751-.869-.0556-.32974-.0875-.66308-.0954-.99741-.0083-.26902-.009-.55181-.0099-.84964-.0002-.09707-.0005-.19574-.0011-.29605-.0022-.40807.0022-.79193.011-1.14642.0079-.33434.0398-.66767.0954-.99743.0514-.30092.144-.59332.2751-.86899.1385-.28425.3243-.54286.5495-.76477.3218-.32795.7049-.58931 1.1276-.76918.4569-.18369.9456-.27499 1.4379-.26862.4905-.00696.9774.08438 1.4321.26862.4202.18236.801.44486 1.1209.77285.2256.22204.4122.4806.5517.76477.1322.27561.2263.56796.2795.86899.057.32966.0901.663.0991.99743zm-1.8576 2.27449c.0154-.29945.022-.67596.022-1.12807 0-.45284-.0058-.83009-.022-1.12881-.0087-.24597-.0332-.49112-.0733-.73394-.0275-.16178-.0769-.31906-.1468-.46753-.0568-.11956-.131-.2301-.22-.32807-.1379-.1575-.3088-.28278-.5004-.36697-.2155-.09341-.4482-.14042-.683-.13798-.236-.00213-.4698.04486-.6867.13798-.1963.08264-.3717.208-.5135.36697-.0896.09753-.1638.20816-.2201.32807-.0679.14862-.1148.30597-.1394.46753-.0391.24295-.0636.48804-.0733.73394-.0132.29945-.0199.6767-.0199 1.12881 0 .4526.0067.82862.0199 1.12807.0096.2459.0341.491.0733.73395.0246.16151.0715.31891.1394.46751.0561.12.1303.2307.2201.3281.1416.1592.3171.2846.5135.367.2172.092.4508.139.6867.1379.2347.0014.4672-.0456.683-.1379.1918-.084.3626-.2093.5004-.367.0892-.0979.1633-.2084.22-.3281.0699-.1485.1193-.3057.1468-.46751.0402-.24282.0647-.48798.0733-.73395z" fill-rule="evenodd"/><path d="m70.181 3.41879c-.0008-.08925-.0729-.1614-.1621-.1622h-1.5253c-.0893.0004-.1617.07279-.1621.1622v5.6367l-3.7195-5.75339c-.0249-.0389-.0469-.04551-.102-.04551h-1.4144c-.089.00119-.1609.07312-.1621.1622v9.14641c.0012.089.0732.1607.1621.1615h1.5245c.089-.0004.161-.0725.1614-.1615v-5.65136l3.7202 5.76656c.0257.0389.0462.0456.102.0456h1.4137c.0891-.0004.1613-.0724.1621-.1615z"/><path d="m59.9571 3.41879c-.0004-.08941-.0727-.1618-.1621-.1622h-1.5237c-.0894.0004-.1618.07279-.1622.1622v9.14571c.0004.0894.0728.1618.1622.1622h1.5237c.0894-.0004.1617-.0728.1621-.1622z"/><path d="m41.7162 7.99273c0-.45504.0051-.83376.0183-1.13541.009-.24595.0335-.49109.0734-.73394.1409-.81468.7644-1.29542 1.5604-1.29542.5194.00441.9904.1967 1.2912.63413.1362.20422.2356.43078.2935.66936.0044.02513.0274.04266.0528.04037h1.7937c.0257 0 .0352-.01762.0308-.04257-.1959-1.11046-.7879-2.10789-1.8341-2.60184-.5141-.23815-1.0753-.35732-1.6418-.34862-1.01 0-1.8607.34593-2.5523 1.0378-.3949.38497-.6644.8802-.7733 1.42091-.1056.53236-.1589 1.31719-.1599 2.3545s.0523 1.8219.1599 2.3538c.108.5414.3768 1.0376.7711 1.4238.6911.6914 1.5418 1.0371 2.5523 1.0371.5664.0085 1.1275-.1103 1.6418-.3479 1.0462-.494 1.6382-1.4914 1.8341-2.60185.0044-.02568-.0051-.04257-.0308-.04257h-1.7944c-.0256-.00266-.0487.01504-.0529.04037-.058.23835-.1573.46465-.2934.66865-.3008.4403-.7718.6304-1.2912.6341-.796 0-1.4196-.48-1.5604-1.29468-.0399-.24286-.0644-.48799-.0734-.73394-.0103-.30312-.0154-.68257-.0154-1.13615z"/><path d="m22.771 3.41879c-.0004-.08941-.0728-.1618-.1621-.1622h-1.5238c-.0894.0004-.1617.07279-.1621.1622v9.14641c.0008.0891.073.1611.1621.1615h1.5238c.089-.0004.1613-.0724.1621-.1615v-2.68475l1.2229-1.46276 2.512 4.26051c.0193.0315.0541.05.091.0485h1.8516c.0851 0 .1005-.0529.058-.1255l-3.2889-5.578 3.0175-3.62129c.0608-.07339.0352-.14312-.0602-.14312h-2.0241c-.0246-.00145-.0483.00959-.0631.02936l-3.3167 3.97945z"/><path d="m33.8722 11.1575c-.8576 0-1.6353-.7941-1.6353-1.74238v-5.99633c-.0004-.08941-.0727-.1618-.1621-.1622h-1.5238c-.0893.0004-.1617.07279-.1621.1622v5.97285c0 2.08806 1.5612 3.41506 3.4833 3.41506s3.4833-1.327 3.4833-3.41506v-5.97285c-.0008-.08925-.073-.1614-.1622-.1622h-1.5245c-.089.0008-.161.07307-.1614.1622v5.99633c0 .94748-.7783 1.74238-1.6352 1.74238z"/><path clip-rule="evenodd" d="m5.60622 7.99269 4.73048 4.73321 2.9858-2.98716c.5339-.48095 1.3508-.45955 1.8588.04869.508.50827.5294 1.32547.0487 1.85957l-3.9404 3.9428c-.5292.5207-1.37811.5207-1.90739 0l-5.68489-5.68886v3.38126c0 .7463-.60469 1.3512-1.35061 1.3512-.74593 0-1.350616-.6049-1.350616-1.3512v-10.58346c0-.74624.604686-1.35119 1.350616-1.35119.74592 0 1.35061.60495 1.35061 1.35119v3.38129l5.68416-5.687342c.52911-.521142 1.37832-.521142 1.90742 0l3.9433 3.942022c.4807.53414.4593 1.35132-.0487 1.85956-.508.50825-1.3249.52964-1.8588.04869l-2.9858-2.98715zm4.73268-1.35266c-.54697-.0003-1.04021.32908-1.24972.83451s-.09401 1.08735.29263 1.47436c.38663.38701.96819.50288 1.47359.29355.5053-.20932.8348-.7026.8348-1.24976.0002-.35875-.1421-.70288-.3955-.95669s-.5972-.39651-.9558-.39671z" fill-rule="evenodd"/></g></svg>