<svg fill="none" height="14" viewBox="0 0 15 14" width="15" xmlns="http://www.w3.org/2000/svg"><path d="m15 2c-.5625.3-1.125.4-1.7812.5.6562-.4 1.125-1 1.3124-1.8-.5624.4-1.2187.6-1.9687.8-.5625-.6-1.4063-1-2.25-1-1.59375 0-3 1.5-3 3.3 0 .3 0 .5.09375.7-2.53125-.1-4.875-1.4-6.375-3.4-.28125.5-.375 1-.375 1.7 0 1.1.5625 2.1 1.40625 2.7-.46875 0-.9375-.2-1.40625-.4 0 1.6 1.03125 2.9 2.4375 3.2-.28125.1-.5625.1-.84375.1-.1875 0-.375 0-.5625-.1.375 1.3 1.5 2.3 2.90625 2.3-1.03125.9-2.34375 1.4-3.84375 1.4-.28125 0-.46875 0-.75 0 1.40625.9 3 1.5 4.6875 1.5 5.625 0 8.7187-5 8.7187-9.3 0-.1 0-.3 0-.4.6563-.5 1.2188-1.1 1.5938-1.8z" fill="#6e757c"/></svg>