<svg fill="none" height="11" viewBox="0 0 16 11" width="16" xmlns="http://www.w3.org/2000/svg"><path d="m15.6657 1.72113c-.184-.67748-.7262-1.211034-1.4146-1.392104-1.2478-.329026-6.2511-.329026-6.2511-.329026s-5.00331 0-6.2511.329026c-.68838.181099-1.230551.714624-1.414564 1.392104-.334336 1.22796-.334336 3.78998-.334336 3.78998s0 2.56203.334336 3.78999c.184013.67748.726184 1.1888 1.414564 1.3699 1.24779.329 6.2511.329 6.2511.329s5.0033 0 6.2511-.329c.6884-.1811 1.2306-.69242 1.4146-1.3699.3343-1.22796.3343-3.78999.3343-3.78999s0-2.56202-.3343-3.78998zm-9.30207 6.11611v-4.65225l4.18177 2.32618z" fill="#6e757c"/></svg>