<svg fill="none" height="16" viewBox="0 0 16 16" width="16" xmlns="http://www.w3.org/2000/svg" xmlns:xlink="http://www.w3.org/1999/xlink"><clipPath id="a"><path d="m0 0h16v16h-16z"/></clipPath><g clip-path="url(#a)" fill="#8c8c8c"><path d="m8.00008 3.66669c.22102 0 .43298.08779.58926.24407s.24408.36825.24408.58926-.0878.43298-.24408.58926-.36824.24407-.58926.24407c-.22101 0-.43297-.08779-.58925-.24407s-.24408-.36825-.24408-.58926.0878-.43298.24408-.58926.36824-.24407.58925-.24407z"/><path d="m6.83342 6.66669c0-.36819.29847-.66667.66666-.66667h.66667c.36819 0 .66667.29848.66667.66667v4.00001h.5c.36818 0 .66668.2985.66668.6667 0 .3681-.2985.6666-.66668.6666h-2.33334c-.36819 0-.66666-.2985-.66666-.6666 0-.3682.29847-.6667.66666-.6667h.5v-3.33335c-.36819 0-.66666-.29847-.66666-.66666z"/><path clip-rule="evenodd" d="m.666748 8.00002c0-4.05009 3.283242-7.333333 7.333332-7.333333 4.05012 0 7.33332 3.283243 7.33332 7.333333 0 4.05008-3.2832 7.33338-7.33332 7.33338-4.05009 0-7.333332-3.2833-7.333332-7.33338zm7.333332-6c-3.31371 0-6 2.68629-6 6 0 3.31368 2.68629 5.99998 6 5.99998 3.31372 0 6.00002-2.6863 6.00002-5.99998 0-3.31371-2.6863-6-6.00002-6z" fill-rule="evenodd"/></g></svg>