<svg fill="none" height="16" viewBox="0 0 16 16" width="16" xmlns="http://www.w3.org/2000/svg" xmlns:xlink="http://www.w3.org/1999/xlink"><clipPath id="a"><path d="m0 0h16v16h-16z"/></clipPath><g clip-path="url(#a)"><path clip-rule="evenodd" d="m8.00008.666687c4.05022 0 7.33332 3.283143 7.33332 7.333333 0 4.05018-3.2831 7.33338-7.33332 7.33338-4.05019 0-7.333332-3.2832-7.333332-7.33338 0-4.05019 3.283142-7.333333 7.333332-7.333333zm.16293 5.348223h-.66666c-.3682 0-.66667.29848-.66667.66664 0 .3682.29847.66667.66667.66667v3.33338h-.50387c-.36821 0-.66669.2985-.66669.6666 0 .3682.29848.6667.66669.6667h2.34407c.3682 0 .66665-.2985.66665-.6667 0-.3681-.29845-.6666-.66665-.6666h-.50687v-4.00005c0-.36816-.29847-.66664-.66667-.66664zm-.15853-2.34927c-.46326 0-.8388.37553-.8388.83881s.37554.83881.8388.83881c.46327 0 .8388-.37553.8388-.83881s-.37553-.83881-.8388-.83881z" fill="#8c8c8c" fill-rule="evenodd"/></g></svg>