<svg fill="none" height="74" viewBox="0 0 79 74" width="79" xmlns="http://www.w3.org/2000/svg" xmlns:xlink="http://www.w3.org/1999/xlink"><clipPath id="a"><path d="m0 0h79v74h-79z"/></clipPath><mask id="b" height="150" maskUnits="userSpaceOnUse" width="343" x="-264" y="-76"><path d="m-176-66c5.523 0 10-4.4772 10-10h237c4.4183 0 8 3.5817 8 8v134c0 4.4183-3.5817 8-8 8h-237c0-5.5228-4.477-10-10-10s-10 4.4772-10 10h-70c-4.418 0-8-3.5817-8-8v-134c0-4.4183 3.582-8 8-8h70c0 5.5228 4.477 10 10 10z" fill="#fff"/><path d="m-176-65.75c5.577 0 10.114-4.4546 10.247-10h236.753c4.2802 0 7.75 3.4698 7.75 7.75v134c0 4.2802-3.4698 7.75-7.75 7.75h-236.753c-.133-5.5454-4.67-10-10.247-10s-10.114 4.4546-10.247 10h-69.753c-4.28 0-7.75-3.4698-7.75-7.75v-134c0-4.2802 3.47-7.75 7.75-7.75h69.753c.133 5.5454 4.67 10 10.247 10z" fill="none" stroke="#000d1d" stroke-opacity=".08" stroke-width=".5"/></mask><g clip-path="url(#a)"><g mask="url(#b)"><path d="m29.9466 7.63924.1609-.00087.1302-.0946 8.0606-5.85608-.2933-.40373.2933.40372c2.1797-1.583574 5.1312-1.583574 7.3108 0l.2939-.40451-.2938.40452 7.883 5.72704.1326.09636.1639-.00089 9.7452-.05249h.0001c2.6942-.01414 5.0913 1.70764 5.9376 4.26539l.4747-.1571-.4747.1571 3.1303 9.4594.0505.1528.1302.0946 8.0609 5.8567c2.1796 1.5835 3.0917 4.3909 2.2591 6.9532l.4755.1546-.4755-.1545-3.0112 9.2674-.0506.156.0515.1556 3.0613 9.2511c.8463 2.5578-.0505 5.3697-2.2217 6.9654l-8.0292 5.9004-.1297.0953-.0498.1531-3.0789 9.4758c-.8326 2.5624-3.2203 4.2973-5.9145 4.2973h-9.7449-.1639l-.1321.0971-7.8525 5.7702c-2.1711 1.5952-5.1225 1.6114-7.3106.0395l-.2917.4061.2917-.4061-8.0923-5.8129-.1307-.0939h-.161-9.9641c-2.6942 0-5.082-1.7349-5.9145-4.2973l-3.0113-9.268-.0506-.156-.1332-.0956-7.91445-5.6849c-2.188257-1.572-3.1154105-4.3737-2.296673-6.9406l3.027693-9.4928.04891-.1534-.04974-.153-3.078953-9.4759-.475528.1546.475524-.1546c-.8326558-2.5623.079466-5.3697 2.259077-6.9532l7.88374-5.7276.1326-.0964.0498-.1562 2.9613-9.2844c.8186-2.56643 3.197-4.31445 5.8911-4.32862h.0001z" stroke="#737e8d" stroke-opacity=".4"/><circle cx="41.9845" cy="43.7663" r="32.3847" stroke="#737e8d" stroke-dasharray="4 4" stroke-opacity=".4"/><path d="m30.3141 46.5711c.3375.9164.3062 1.7775-.0939 2.5836-.4031.7977-1.0671 1.3668-1.9918 1.7073-.9247.3406-1.7992.3381-2.6234-.0076-.8189-.3571-1.397-.9938-1.7345-1.9102l-2.192-5.9518 1.3619-.5015 2.1687 5.8887c.2198.5969.5629 1.01 1.0292 1.2392.4632.2208.9764.2275 1.5397.0201.5632-.2074.9495-.5454 1.1588-1.0139.2146-.48.212-1.0185-.0078-1.6153l-2.1687-5.8888 1.3618-.5016z" fill="#737e8d" fill-opacity=".4"/><path d="m40.4032 43.3853c.3003.8154.2387 1.5685-.1847 2.259-.4235.6906-1.1145 1.2124-2.0728 1.5653-.6893.2539-1.3187.3855-1.8881.3947-.5641-.0023-1.1395-.1389-1.7261-.4097l.5656-1.225c.7936.3664 1.6696.3732 2.628.0202.5884-.2167.9991-.5016 1.2318-.8546.2381-.3646.2751-.7696.111-1.2152-.1548-.4203-.3871-.688-.6967-.803-.2898-.1129-.6641-.1183-1.1229-.0161l-1.115.2388c-.7915.1578-1.443.1257-1.9544-.0965-.5942-.2394-1.029-.7332-1.3046-1.4814-.291-.7902-.2557-1.524.1058-2.2013.3616-.6773 1.0047-1.1863 1.9294-1.5268.5969-.2198 1.1433-.3304 1.6393-.3317.4959-.0012 1.0038.1077 1.5237.3267l-.5417 1.1733c-.6579-.2828-1.4029-.2709-2.2352.0356-.5212.1919-.8767.4708-1.0666.8367-.1845.3544-.1994.7417-.0446 1.162.1363.3699.3477.6071.6344.7116.3013.1181.6787.1319 1.1322.0412l1.1322-.2308c.7831-.1547 1.42-.1363 1.9106.0553.6517.266 1.1215.7899 1.4094 1.5717z" fill="#737e8d" fill-opacity=".4"/><path d="m51.0115 42.3854-5.7375 2.113-3.3065-8.9782 5.7375-2.113.4504 1.2232-4.3756 1.6114.966 2.6229 3.7325-1.3747.4458 1.2106-3.7325 1.3746.9938 2.6985 4.3757-1.6115z" fill="#737e8d" fill-opacity=".4"/><path d="m60.2553 37.6922c-.3351.9826-1.0448 1.6736-2.1292 2.073l-3.1525 1.161-3.3066-8.9782 3.1525-1.161c1.0845-.3994 2.0728-.3338 2.9652.1968.4273.2531.7717.6179 1.0331 1.0945.2668.465.5611 1.1347.8831 2.0089.322.8743.5338 1.5791.6355 2.1145.107.5238.08 1.0207-.0811 1.4905zm-3.3753-5.5876c-.5048-.2819-1.0935-.299-1.766-.0513l-1.6393.6037 2.4149 6.5571 1.6393-.6037c.6725-.2477 1.1095-.6425 1.3109-1.1845.1181-.3012.1354-.6561.0518-1.0644-.0866-.4168-.2708-1.0077-.5526-1.7727-.2817-.765-.5232-1.33-.7245-1.6951-.2043-.3734-.4492-.6364-.7345-.7891z" fill="#737e8d" fill-opacity=".4"/><g stroke="#737e8d" stroke-opacity=".4"><path d="m25.0601 58.0535 6.9315-2.5528"/><path d="m33.7246 54.863 6.9316-2.5528"/><path d="m49.3206 49.1184 6.9315-2.5528"/><path d="m57.9849 45.928 6.9315-2.5528"/><circle cx="44.9883" cy="50.7141" r="2.27001" transform="matrix(.93838389 -.34559466 .34559466 .93838389 -14.754518 18.672521)"/></g></g></g></svg>