
<svg width="22px" height="26px" viewBox="0 0 22 26" version="1.1" xmlns="http://www.w3.org/2000/svg" xmlns:xlink="http://www.w3.org/1999/xlink">
    <!-- Generator: Sketch 49 (51002) - http://www.bohemiancoding.com/sketch -->
    <desc>Created with Sketch.</desc>
    <defs></defs>
    <g id="官网首页-new" stroke="none" stroke-width="1" fill="none" fill-rule="evenodd" opacity="0.243149909">
        <g id="kucoin_home-copy" transform="translate(-925.000000, -4159.000000)" fill="#FFFFFF">
            <g id="bottom" transform="translate(-278.000000, 3987.000000)">
                <g id="Group-52" transform="translate(1188.000000, 58.000000)">
                    <g id="appstore" transform="translate(0.000000, 107.000000)">
                        <g id="Apple-black" transform="translate(15.540264, 7.467057)">
                            <path d="M13.9740489,4.10732398 C14.7790453,3.04218695 15.3892874,1.53671106 15.1685592,0 C13.8528654,0.0937202518 12.3150037,0.956541333 11.4176772,2.08118119 C10.5996965,3.10020339 9.92742286,4.61608925 10.1899836,6.08734667 C11.6283007,6.13346308 13.1127854,5.24981627 13.9740489,4.10732398 Z M21.0834348,18.5625217 C20.507821,19.8775769 20.2308309,20.4651891 19.4893111,21.6299982 C18.454932,23.2559714 16.996416,25.2806226 15.1873338,25.295497 C13.5816656,25.3133483 13.1676281,24.2169719 10.987786,24.2303599 C8.80794386,24.2422605 8.35351355,25.3163222 6.74496056,25.2999614 C4.93732336,25.2835974 3.55526817,23.4567968 2.52088912,21.8308288 C-0.373064375,17.2876304 -0.677462902,11.954487 1.10709564,9.11760037 C2.37662699,7.10335921 4.37901857,5.92516206 6.26024723,5.92516206 C8.1746386,5.92516206 9.37925354,7.00815152 10.9647227,7.00815152 C12.5025845,7.00815152 13.4388639,5.92218929 15.6533291,5.92218929 C17.3296834,5.92218929 19.1055874,6.86385096 20.369344,8.48833778 C16.2260581,10.8298524 16.8968919,16.9305818 21.0834553,18.5624953 L21.0834348,18.5625217 Z" id="Shape"></path>
                        </g>
                    </g>
                </g>
            </g>
        </g>
    </g>
</svg>