<svg width="24" height="24" viewBox="0 0 24 24" fill="none" xmlns="http://www.w3.org/2000/svg">
<g opacity="0.6">
<path fill-rule="evenodd" clip-rule="evenodd" d="M8.02441 13C8.12814 15.1112 8.55642 17.0023 9.1945 18.4151C7.01747 17.4617 5.41884 15.4326 5.07089 13H8.02441ZM10.0271 13C10.1278 14.846 10.5012 16.4312 10.9992 17.5517C11.2932 18.2133 11.5916 18.6248 11.8218 18.8439C11.9037 18.9219 11.9629 18.9634 12 18.9848C12.0371 18.9634 12.0963 18.9219 12.1782 18.8439C12.4084 18.6248 12.7068 18.2133 13.0008 17.5517C13.4988 16.4312 13.8722 14.846 13.9729 13H10.0271ZM13.9729 11H10.0271C10.1278 9.15396 10.5012 7.56881 10.9992 6.44832C11.2932 5.78673 11.5916 5.37516 11.8218 5.15605C11.9037 5.07812 11.9629 5.03659 12 5.01516C12.0371 5.03659 12.0963 5.07812 12.1782 5.15605C12.4084 5.37516 12.7068 5.78673 13.0008 6.44832C13.4988 7.56881 13.8722 9.15396 13.9729 11ZM15.9756 13C15.8719 15.1112 15.4436 17.0023 14.8055 18.4151C16.9825 17.4617 18.5812 15.4326 18.9291 13H15.9756ZM18.9291 11H15.9756C15.8719 8.88881 15.4436 6.9977 14.8055 5.58487C16.9825 6.53829 18.5812 8.56742 18.9291 11ZM8.02441 11H5.07089C5.41884 8.56742 7.01746 6.53829 9.1945 5.58487C8.55642 6.9977 8.12814 8.88881 8.02441 11ZM21 12C21 7.02944 16.9706 3 12 3C7.02944 3 3 7.02944 3 12C3 16.9706 7.02944 21 12 21C16.9706 21 21 16.9706 21 12Z" fill="#737E8D"/>
</g>
</svg>
