<svg width="25" height="25" viewBox="0 0 25 25" fill="none" xmlns="http://www.w3.org/2000/svg">
<path fill-rule="evenodd" clip-rule="evenodd" d="M12.7002 22C17.9469 22 22.2002 17.7467 22.2002 12.5C22.2002 7.25329 17.9469 3 12.7002 3C7.45349 3 3.2002 7.25329 3.2002 12.5C3.2002 17.7467 7.45349 22 12.7002 22ZM12.7002 23.5C18.7753 23.5 23.7002 18.5751 23.7002 12.5C23.7002 6.42487 18.7753 1.5 12.7002 1.5C6.62506 1.5 1.7002 6.42487 1.7002 12.5C1.7002 18.5751 6.62506 23.5 12.7002 23.5Z" fill="#8C8C8C" fill-opacity="0.2"/>
<path d="M16.7002 12.5H8.7002M8.7002 12.5L11.7002 9.5M8.7002 12.5L11.7002 15.5" stroke="#8C8C8C" stroke-opacity="0.6" stroke-width="1.5" stroke-linecap="round" stroke-linejoin="round"/>
</svg>
