<?xml version="1.0" encoding="UTF-8"?>
<svg width="59px" height="55px" viewBox="0 0 59 55" version="1.1" xmlns="http://www.w3.org/2000/svg" xmlns:xlink="http://www.w3.org/1999/xlink">
    <!-- Generator: Sketch 52.2 (67145) - http://www.bohemiancoding.com/sketch -->
    <title>自动出借logo</title>
    <desc>Created with Sketch.</desc>
    <defs>
        <linearGradient x1="122.960034%" y1="136.489364%" x2="17.1056895%" y2="0%" id="linearGradient-1">
            <stop stop-color="#01AA78" offset="0%"></stop>
            <stop stop-color="#3AD65B" offset="100%"></stop>
        </linearGradient>
    </defs>
    <g id="页面1" stroke="none" stroke-width="1" fill="none" fill-rule="evenodd">
        <g id="出借页面-已结算" transform="translate(-418.000000, -181.000000)">
            <g id="自动出借logo" transform="translate(412.000000, 172.000000)">
                <rect id="矩形" x="0" y="0" width="72" height="72"></rect>
                <path d="M57.0731584,17.0158353 C62.1838241,22.1837417 65.0001468,29.0579437 65.0001468,36.3618026 C65.0001468,43.6656614 62.1838241,50.5398248 57.085301,55.7077698 C51.9746353,60.8756763 45.1766425,63.7235743 37.9537348,63.7235743 C30.730827,63.7235743 23.9328343,60.8756917 18.8221686,55.7077698 C13.7115029,50.5398634 10.8951802,43.6656614 10.8951802,36.3618026 L10.8951802,36.0549191 L8.49159561,38.4854383 C7.92104931,39.0623825 6.99845887,39.0623825 6.42791258,38.4854383 C5.85736247,37.908498 5.85736247,36.9755695 6.42791258,36.3986292 L11.3200495,31.4516594 C11.8905958,30.8747191 12.8131862,30.8747191 13.3837325,31.4516594 L18.2637268,36.3986292 C18.8342731,36.9755695 18.8342731,37.908498 18.2637268,38.4854383 C17.9723831,38.7677733 17.6082052,38.9150759 17.2318834,38.9150759 C16.8555647,38.9150759 16.4792476,38.7677733 16.20004,38.4854383 L13.8085942,36.0549191 L13.8085942,36.3618026 C13.8085942,49.8278793 24.6247229,60.7774822 37.9415427,60.7774822 C51.2583625,60.7774822 62.0866338,49.8278793 62.0866338,36.3618026 C62.0866338,22.8957259 51.2583625,11.9461229 37.9415427,11.9583779 C31.3741833,11.9583779 25.2438053,14.5730264 20.6551574,19.3235888 C20.0846111,19.9005291 19.1620206,19.9128033 18.5914744,19.3481373 C18.0209281,18.771197 18.0087855,17.8382685 18.5671956,17.2613282 C23.7021085,11.9338371 30.5851375,9 37.9415377,9 C45.1644455,9 51.9624382,11.8478826 57.0731039,17.0158044 L57.0731584,17.0158353 Z M37.9415922,19.2499509 C38.7549258,19.2499509 39.3983087,19.9128187 39.3983087,20.7229931 L39.3983087,24.2951225 L43.9627095,24.2951225 C44.7639044,24.2951225 45.4194261,24.9579903 45.4194261,25.7681647 C45.4194261,26.578339 44.7639044,27.2412068 43.9627095,27.2412068 L35.5623118,27.2412068 C33.48649,27.2412068 31.7991249,28.9474831 31.7991249,31.0465703 C31.7991249,33.1456537 33.48649,34.8519299 35.5623118,34.8519299 L40.3209182,34.8519299 C43.9991297,34.8519299 46.997561,37.8839418 46.997561,41.6033893 C46.997561,45.298269 44.0477078,48.3057516 40.4059164,48.3548486 L40.3694985,48.3548486 L39.3983529,48.3548486 L39.3983529,51.9760789 C39.3983529,52.7862533 38.7428312,53.449125 37.9416363,53.449125 C37.1404415,53.449125 36.4849198,52.7862533 36.4849198,51.9760789 L36.4849198,48.3548486 L31.7627413,48.3548486 C30.9615464,48.3548486 30.3060247,47.6919808 30.3060247,46.8818065 C30.3060247,46.0716321 30.9615464,45.4087643 31.7627413,45.4087643 L40.3209547,45.4087643 C42.3967766,45.4087643 44.0841417,43.7024881 44.0841417,41.6034047 C44.0841417,39.5043175 42.3967766,37.7980412 40.3209547,37.7980412 L35.5623484,37.7980412 C31.8841368,37.7980412 28.8857055,34.7660294 28.8857055,31.0465819 C28.8857055,27.3271459 31.8841178,24.2951225 35.5623484,24.2951225 L36.484935,24.2951225 L36.484935,20.7229931 C36.484935,19.9128187 37.1404567,19.2499509 37.9416516,19.2499509 L37.9415922,19.2499509 Z" id="Shape" fill="url(#linearGradient-1)"></path>
            </g>
        </g>
    </g>
</svg>