<svg height="32" viewBox="0 0 32 32" width="32" xmlns="http://www.w3.org/2000/svg"><g fill="none" fill-rule="evenodd"><path d="m0 0h32v32h-32z" fill="#d8d8d8" opacity="0"/><path d="m29.5454546 2.77731395c-1.0705746.4725795-2.2211242.78975314-3.4289286.93425346 1.2323422-.73340714 2.1784102-1.89577121 2.6246345-3.27715771-1.1523673.67796995-2.4310585 1.16963449-3.7897248 1.43773253-1.0887507-1.15236716-2.6400842-1.87214223-4.3559115-1.87214223-3.2962428 0-5.9690438 2.65189856-5.9690438 5.92451223 0 .46076509.0527108.91607741.1544971 1.34957822-4.95935932-.24901309-9.35707587-2.60645822-12.30161025-6.18806619-.5125671.87427224-.80792935 1.89031842-.80792935 2.97543383 0 2.05662996 1.05421601 3.86788214 2.65553379 4.93027746-.97787624-.0299906-1.89849764-.29808873-2.70279175-.7415865-.00090881.02453781-.00090881.04907563-.00090881.07543104 0 2.87001221 2.05753885 5.26290081 4.7875948 5.80727621-.50075261.1354122-1.02786062.2062991-1.57223595.2062991-.38442533 0-.75885378-.0354435-1.12328534-.1054217.75885376 2.35381 2.96361931 4.0660022 5.57553031 4.1123513-2.04299781 1.5885945-4.61673902 2.5364801-7.41222908 2.5364801-.48257647 0-.95697366-.028173-1.42410042-.0845191 2.64099288 1.6812929 5.77819432 2.6618955 9.1489591 2.6618955 10.97747865 0 16.98014825-9.0244526 16.98014825-16.85018891 0-.25628345-.0054528-.51256704-.0163585-.76612418 1.1669081-.83610232 2.1775013-1.87850386 2.9781603-3.06631446z" fill="#01081e" fill-rule="nonzero" opacity=".6" transform="translate(1 4)"/></g></svg>