<svg height="32" viewBox="0 0 32 32" width="32" xmlns="http://www.w3.org/2000/svg"><g fill="none" fill-rule="evenodd"><path d="m0 0h32v32h-32z" fill="#d8d8d8" opacity="0"/><g fill="#01081e" fill-rule="nonzero" opacity=".6" transform="translate(2 4)"><path d="m19.9759386 7.15799175c.1408325 0 .2808016.00313388.4200992.00834634-.8871106-4.06204593-5.0739359-7.13784853-10.1057564-7.13784853-5.67733474 0-10.27968634 3.91536138-10.27968634 8.74514278 0 2.82183086 1.57144657 5.33100956 4.00998522 6.93005346l-1.02704766 3.029434 3.40089419-1.8649116c1.20158532.41898 2.5168216.6505669 3.89582259.6505669.2658358 0 .5293052-.0085702.7900244-.0254547-.287677-.7618835-.4435393-1.573781-.4435393-2.4166016.000064-4.3733548 4.1813251-7.91872705 9.3392041-7.91872705zm-6.1381104-2.80641725c.8383756 0 1.5180428.67963522 1.5180428 1.51804278 0 .83837559-.6796353 1.51804278-1.5180428 1.51804278-.8384076 0-1.5180428-.67963522-1.5180428-1.51804278.000032-.83840756.6796672-1.51804278 1.5180428-1.51804278zm-7.06212389 3.03605356c-.83837559 0-1.51804278-.67963522-1.51804278-1.51804278 0-.83837559.67963522-1.51804278 1.51804278-1.51804278.83840757 0 1.51804278.67963522 1.51804278 1.51804278 0 .83837559-.67963521 1.51804278-1.51804278 1.51804278z"/><path d="m28.6551101 15.0767508c0-4.0643483-3.8857814-7.35913846-8.6791715-7.35913846s-8.6791396 3.29479016-8.6791396 7.35913846c0 4.0643484 3.8857815 7.3591385 8.6791716 7.3591385 1.0064536 0 1.9726145-.1457571 2.8714931-.412872l2.967492 1.6272167-.8624552-2.5439712c2.2387061-1.3309376 3.7026096-3.5351391 3.7026096-6.029512zm-11.390805-1.05602c-.6712569 0-1.2154-.5441431-1.2154-1.2154 0-.6712568.5441431-1.2153999 1.2154-1.2153999.6712568 0 1.2153999.544143 1.2153999 1.2153999 0 .671257-.5441431 1.2154-1.2153999 1.2154zm5.6543103 0c-.6712568 0-1.2153999-.5441431-1.2153999-1.2154 0-.6712568.544143-1.2153999 1.2153999-1.2153999s1.2154.544143 1.2154 1.2153999c0 .671257-.5441751 1.2154-1.2154 1.2154z"/></g></g></svg>