<svg width="18" height="18" viewBox="0 0 18 18" fill="none" xmlns="http://www.w3.org/2000/svg">
<path d="M0.667969 9.00166C0.668938 13.1012 3.64997 16.5917 7.6988 17.2342V11.41H5.58464V9.00166H7.7013V7.16833C7.60668 6.29961 7.9034 5.43382 8.511 4.80577C9.1186 4.17772 9.9741 3.85251 10.8455 3.91833C11.4709 3.92843 12.0948 3.98414 12.7121 4.085V6.13416H11.6588C11.2962 6.08667 10.9316 6.20643 10.6678 6.45972C10.404 6.71301 10.2694 7.0724 10.3021 7.43666V9.00166H12.6113L12.2421 11.4108H10.3021V17.2342C14.6809 16.5422 17.7514 12.5431 17.2892 8.13423C16.8271 3.72531 12.994 0.449938 8.56699 0.68098C4.13994 0.912021 0.668672 4.56859 0.667969 9.00166Z" fill="#8C8C8C"/>
</svg>
