<svg width="24" height="24" viewBox="0 0 24 24" fill="none" xmlns="http://www.w3.org/2000/svg">
<path fill-rule="evenodd" clip-rule="evenodd" d="M22 12C22 17.5228 17.5228 22 12 22C6.47715 22 2 17.5228 2 12C2 6.47715 6.47715 2 12 2C17.5228 2 22 6.47715 22 12ZM8.4938 11.0251C7.48727 11.4611 6.45307 11.9091 5.50739 12.4258L5.50733 12.4259C5.01353 12.7846 5.66989 13.0383 6.2856 13.2763C6.38349 13.3141 6.48035 13.3516 6.57139 13.389C6.64715 13.4121 6.7242 13.4364 6.80228 13.4611C7.48706 13.6775 8.25065 13.9189 8.91547 13.5558C10.0076 12.9334 11.0382 12.2139 12.068 11.4948C12.4054 11.2592 12.7428 11.0237 13.0821 10.7917C13.098 10.7816 13.116 10.7701 13.1356 10.7575C13.4247 10.5715 14.0749 10.1534 13.8344 10.7296C13.2657 11.3466 12.6565 11.8928 12.044 12.442C11.6312 12.8122 11.2169 13.1837 10.8125 13.5791C10.4603 13.863 10.0945 14.434 10.4889 14.8316C11.3974 15.4626 12.32 16.0782 13.2421 16.6935C13.5422 16.8938 13.8422 17.094 14.1416 17.2946C14.6491 17.6966 15.4423 17.3715 15.5539 16.7433C15.6035 16.4543 15.6533 16.1654 15.7031 15.8764C15.9784 14.2795 16.2538 12.682 16.4971 11.0799C16.5302 10.8286 16.5677 10.5773 16.6052 10.3258C16.696 9.71647 16.7871 9.10635 16.8155 8.49369C16.7422 7.88231 15.995 8.01673 15.5792 8.15421C13.4418 8.96108 11.3258 9.82777 9.21822 10.7097C8.97947 10.8147 8.73745 10.9195 8.4938 11.0251Z" fill="currentColor"/>
</svg>
