<svg width="18" height="18" viewBox="0 0 18 18" fill="none" xmlns="http://www.w3.org/2000/svg">
<path fill-rule="evenodd" clip-rule="evenodd" d="M17.3327 9C17.3327 13.6024 13.6017 17.3333 8.99935 17.3333C4.39698 17.3333 0.666016 13.6024 0.666016 9C0.666016 4.39763 4.39698 0.666668 8.99935 0.666668C13.6017 0.666668 17.3327 4.39763 17.3327 9ZM6.07752 8.18756C5.23874 8.55089 4.37691 8.92421 3.58884 9.35487L3.58879 9.35493C3.17729 9.65384 3.72426 9.86525 4.23735 10.0636C4.31892 10.0951 4.39964 10.1263 4.47551 10.1575C4.53865 10.1767 4.60285 10.197 4.66792 10.2176C5.23857 10.398 5.87489 10.5991 6.4289 10.2965C7.33899 9.77786 8.19785 9.1782 9.05606 8.57901C9.33723 8.3827 9.61832 8.18644 9.90112 7.99309C9.91437 7.98468 9.92933 7.97506 9.94566 7.96456C10.1866 7.80961 10.7284 7.46116 10.528 7.9413C10.0541 8.45551 9.54642 8.9107 9.03602 9.36837C8.69204 9.67682 8.3468 9.98638 8.00978 10.3159C7.71623 10.5525 7.41144 11.0284 7.74012 11.3597C8.49719 11.8855 9.2661 12.3986 10.0346 12.9114C10.2846 13.0782 10.5346 13.245 10.7841 13.4122C11.207 13.7472 11.8679 13.4762 11.9609 12.9527C12.0023 12.712 12.0438 12.4712 12.0853 12.2304C12.3147 10.8996 12.5442 9.56836 12.7469 8.23323C12.7745 8.02382 12.8057 7.8144 12.837 7.60488C12.9127 7.09706 12.9886 6.58863 13.0122 6.07808C12.9512 5.56859 12.3285 5.68061 11.982 5.79518C10.2009 6.46757 8.43755 7.18981 6.6812 7.92479C6.48224 8.01224 6.28055 8.0996 6.07752 8.18756Z" fill="#8C8C8C"/>
</svg>
