<svg width="136" height="136" viewBox="0 0 136 136" fill="none" xmlns="http://www.w3.org/2000/svg">
<path d="M7.74 105.87C5.09 100.12 29.91 82.9999 63.2 67.6399C96.48 52.2699 125.61 44.4799 128.26 50.2299" stroke="#1D1D1D" stroke-width="0.4" stroke-linecap="round" stroke-linejoin="round"/>
<path d="M25.64 89.9299C26.63 89.9299 27.44 89.1299 27.44 88.1299C27.44 87.1299 26.64 86.3299 25.64 86.3299C24.64 86.3299 23.84 87.1399 23.84 88.1299C23.84 89.1199 24.65 89.9299 25.64 89.9299Z" fill="#01BC8D"/>
<path d="M58.97 30.6999H58.96H58.97Z" fill="white"/>
<path d="M58.97 30.6999H58.96" stroke="#1D1D1D" stroke-width="0.4" stroke-linecap="round" stroke-linejoin="round"/>
<path d="M66.9032 109.228L66.9229 109.224L66.9426 109.221C69.9033 109.196 73.1677 108.59 76.1169 108.04C76.7767 107.923 77.4151 107.801 78.0356 107.691C96.225 104.484 107.862 84.4997 104.092 63.1195C100.322 41.7393 82.5617 26.9384 64.3625 30.1475C63.8996 30.2291 63.4072 30.3159 62.8853 30.4079C59.76 30.9387 55.8468 31.6084 53.416 32.565L53.4061 32.5668L53.3963 32.5685C40.6731 39.7672 35.2225 57.229 38.3064 74.7192C41.3904 92.2094 52.407 106.889 66.9131 109.226L66.9032 109.228Z" fill="white" stroke="#1D1D1D" stroke-width="0.4" stroke-linecap="round" stroke-linejoin="round"/>
<path d="M38.2966 74.7212C41.3945 92.2901 52.3971 106.891 66.9033 109.228L66.923 109.224L66.9426 109.221C69.9034 109.196 73.1677 108.59 76.1169 108.04C76.7768 107.924 77.4152 107.801 78.0356 107.691C88.5533 105.837 96.8746 98.3786 101.29 88.2887L92.4719 91.2041" fill="#1D1D1D"/>
<path d="M38.2966 74.7212C41.3945 92.2901 52.3971 106.891 66.9033 109.228L66.923 109.224L66.9426 109.221C69.9034 109.196 73.1677 108.59 76.1169 108.04C76.7768 107.924 77.4152 107.801 78.0356 107.691C88.5533 105.837 96.8746 98.3786 101.29 88.2887L92.4719 91.2041" stroke="#1D1D1D" stroke-width="0.4" stroke-miterlimit="10"/>
<path d="M70.0945 108.899C88.1572 105.714 99.7539 85.8567 95.9964 64.547C92.2389 43.2372 74.5501 28.5441 56.4874 31.729C38.4247 34.914 26.828 54.7709 30.5855 76.0807C34.343 97.3904 52.0317 112.084 70.0945 108.899Z" fill="white" stroke="#1D1D1D" stroke-width="0.4"/>
<path d="M68.7025 100.716C82.8444 98.2225 91.8121 82.3948 88.8237 65.4462C85.8352 48.4977 71.9948 36.6917 57.853 39.1853C43.7111 41.6789 34.7433 57.5065 37.7318 74.4551C40.7203 91.4036 54.5607 103.21 68.7025 100.716Z" fill="#01BC8D" fill-opacity="0.2"/>
<path d="M60.5285 63.0609L62.9037 63.4053C64.2155 63.5955 65.261 64.824 65.2391 66.1492L65.0003 80.5473L66.8062 80.8091C68.118 80.9993 69.1635 82.2281 69.1415 83.5531C69.1196 84.8785 68.0384 85.7986 66.7266 85.6084L58.3753 84.3976C57.0634 84.2073 56.0178 82.9788 56.0398 81.6535C56.0618 80.3284 57.143 79.408 58.4548 79.5982L60.25 79.8585L60.449 67.8601C59.1371 67.6699 58.0916 66.4414 58.1136 65.1161C58.1356 63.7909 59.2167 62.8707 60.5285 63.0609Z" fill="#1D1D1D"/>
<path d="M59.4406 57.4532C59.4683 55.7856 60.8286 54.6279 62.4791 54.8672C64.1296 55.1065 65.4451 56.6522 65.4175 58.3198C65.3898 59.9873 64.0295 61.1451 62.379 60.9058C60.7285 60.6665 59.413 59.1207 59.4406 57.4532Z" fill="#1D1D1D"/>
<path d="M128.26 50.2199C130.91 55.9699 106.09 73.0899 72.8 88.4499C39.52 103.82 10.4 111.62 7.74 105.88" stroke="#1D1D1D" stroke-width="0.4" stroke-linecap="round" stroke-linejoin="round"/>
<path d="M116.12 66.7799C117.67 66.7799 118.92 65.5199 118.92 63.9799C118.92 62.4399 117.66 61.1799 116.12 61.1799C114.58 61.1799 113.32 62.4399 113.32 63.9799C113.32 65.5199 114.58 66.7799 116.12 66.7799Z" fill="#01BC8D"/>
<path d="M36.41 22.52C37.94 22.52 39.17 21.28 39.17 19.76C39.17 18.24 37.93 17 36.41 17C34.89 17 33.65 18.24 33.65 19.76C33.65 21.28 34.89 22.52 36.41 22.52Z" fill="white" stroke="#1D1D1D" stroke-width="0.4" stroke-linecap="round" stroke-linejoin="round"/>
<path d="M11.09 32.65C11.85 32.65 12.47 32.03 12.47 31.27C12.47 30.51 11.85 29.89 11.09 29.89C10.33 29.89 9.71002 30.51 9.71002 31.27C9.71002 32.03 10.33 32.65 11.09 32.65Z" fill="white" stroke="#1D1D1D" stroke-width="0.4" stroke-linecap="round" stroke-linejoin="round"/>
<path d="M25.24 42.85L25.77 42.64L25.28 42.93C22.04 44.87 20.66 48.86 22.03 52.39L22.24 52.92L21.95 52.43C20.01 49.19 16.02 47.81 12.49 49.18L11.96 49.39L12.45 49.1C15.69 47.16 17.07 43.17 15.7 39.64L15.49 39.11L15.78 39.6C17.72 42.84 21.71 44.22 25.24 42.85Z" fill="white" stroke="#1D1D1D" stroke-width="0.4" stroke-linecap="round" stroke-linejoin="round"/>
</svg>
