<svg fill="none" height="21" viewBox="0 0 21 21" width="21" xmlns="http://www.w3.org/2000/svg" xmlns:xlink="http://www.w3.org/1999/xlink"><filter id="a" color-interpolation-filters="sRGB" filterUnits="userSpaceOnUse" height="14.7966" width="16.0288" x="2.00476" y="3.48657"><feFlood flood-opacity="0" result="BackgroundImageFix"/><feBlend in="SourceGraphic" in2="BackgroundImageFix" mode="normal" result="shape"/><feColorMatrix in="SourceAlpha" result="hardAlpha" type="matrix" values="0 0 0 0 0 0 0 0 0 0 0 0 0 0 0 0 0 0 127 0"/><feOffset dy="1.67748"/><feGaussianBlur stdDeviation="1.34198"/><feComposite in2="hardAlpha" k2="-1" k3="1" operator="arithmetic"/><feColorMatrix type="matrix" values="0 0 0 0 1 0 0 0 0 1 0 0 0 0 1 0 0 0 0.3 0"/><feBlend in2="shape" mode="normal" result="effect1_innerShadow_451_255892"/></filter><g filter="url(#a)"><path clip-rule="evenodd" d="m10.0241 11.8448c-1.85448 3.7791-1.8552 3.7787-1.85594 3.7783l-.00494-.0026-.00789-.0042-.02018-.0108c-.01537-.0082-.03456-.0186-.05734-.031-.0455-.0248-.10551-.0579-.17799-.0989-.14449-.0816-.34103-.1956-.57277-.3379-.45509-.2795-1.08571-.6923-1.73824-1.2056-.62918-.4949-1.41523-1.189-2.08003-2.0558-.61769-.8054-1.50173-2.24046-1.50398-4.13517-.00279-2.34191 1.82565-4.24258 4.08392-4.24526 1.85945-.00221 3.43055 1.28307 3.92898 3.04447.4943-1.76258 2.0624-3.0516 3.9218-3.05381 2.2583-.00269 4.0912 1.89362 4.094 4.23553.0023 1.89471-.8783 3.33184-1.4941 4.13874-.6628.8684-1.4471 1.5643-2.0751 2.0607-.6514.5149-1.281.9292-1.7354 1.2097-.2314.1429-.4277.2574-.572.3394-.0724.0411-.1323.0743-.1777.0992-.0228.0125-.0419.0229-.0573.0312l-.0202.0108-.0078.0042-.005.0027c-.0007.0003-.0014.0007-1.8648-3.7739zm-.13768-5.27954c.00077.00009.00872.0105.02158.03098-.01592-.02083-.02234-.03107-.02158-.03098zm.26268-.00031c.0008-.00009-.0056.01016-.0215.03103.0128-.02051.0208-.03094.0215-.03103zm-1.97948 9.05895 1.85448-3.7791 1.8634 3.7746-1.8578.9862z" fill="#8ae6bc" fill-rule="evenodd"/></g></svg>