<svg fill="none" height="118" viewBox="0 0 111 118" width="111" xmlns="http://www.w3.org/2000/svg" xmlns:xlink="http://www.w3.org/1999/xlink"><filter id="a" color-interpolation-filters="sRGB" filterUnits="userSpaceOnUse" height="117.145" width="109.88" x=".306091" y=".78418"><feFlood flood-opacity="0" result="BackgroundImageFix"/><feColorMatrix in="SourceAlpha" result="hardAlpha" type="matrix" values="0 0 0 0 0 0 0 0 0 0 0 0 0 0 0 0 0 0 127 0"/><feOffset dy="4"/><feGaussianBlur stdDeviation="8"/><feColorMatrix type="matrix" values="0 0 0 0 0.905729 0 0 0 0 0.925 0 0 0 0 0.925 0 0 0 1 0"/><feBlend in2="BackgroundImageFix" mode="normal" result="effect1_dropShadow_603_59"/><feBlend in="SourceGraphic" in2="effect1_dropShadow_603_59" mode="normal" result="shape"/></filter><mask height="81" maskUnits="userSpaceOnUse" width="81" x="15" y="15"><ellipse cx="55.0007" cy="55.7831" fill="#fff" rx="40.0007" ry="40"/></mask><ellipse cx="55.0007" cy="55.7831" fill="#f4f6f7" rx="40.0007" ry="40"/><g filter="url(#a)"><path d="m16.417 35.379c-.3014-.7128.0326-1.5348.7457-1.8354l48.9917-20.6491c.7119-.3001 1.5323.0333 1.8332.7448l26.0877 61.6947c.3014.7128-.0326 1.5348-.7457 1.8354l-48.9917 20.6491c-.7119.3001-1.5323-.0333-1.8332-.7448z" fill="#fff"/></g><path clip-rule="evenodd" d="m57.8067 37.0437 5.9535 2.3743 1.5501-3.7195c.2818-.6763 1.0055-.9848 1.6081-.6856.6831.2649 1.0175 1.0492.7357 1.7255l-1.9864 4.9251c-.2818.6763-1.0055.9848-1.6886.7199l-7.1254-2.8943 1.2706 2.9805c.2675.6274-.0613 1.4164-.7045 1.6906-.6433.2743-1.4402-.0348-1.7077-.6622l-4.0126-9.412c-.2675-.6274.0613-1.4164.7046-1.6907.6433-.2742 1.4402.0349 1.7077.6623l1.2707 2.9805 2.8453-7.1451c.2819-.6763 1.0056-.9848 1.6886-.7199l4.9289 1.977c.6831.2649 1.0175 1.0492.7356 1.7255-.2818.6763-1.0055.9848-1.6082.6856l-3.7903-1.5354zm3.6797-2.9591c.6433-.2742 1.4402.0348 1.7077.6623s-.0613 1.4165-.7045 1.6907c-.6433.2742-1.4403-.0348-1.7078-.6623-.2675-.6274.0613-1.4164.7046-1.6907z" fill="#e1e5e8" fill-rule="evenodd"/><g fill="#00142a" fill-opacity=".04"><path d="m0 0h19.9959v4h-19.9959z" transform="matrix(.921244 -.388985 -.387725 -.921775 29.5742 45.98)"/><path d="m0 0h19.9959v4h-19.9959z" transform="matrix(.921244 -.388985 -.387725 -.921775 33.4648 55.1924)"/><path d="m0 0h39.9904v4h-39.9904z" transform="matrix(.921244 -.388985 -.386679 -.922214 37.3555 64.4055)"/><path d="m0 0h39.9904v4h-39.9904z" transform="matrix(.921244 -.388985 -.386679 -.922214 41.2461 73.6173)"/><path d="m0 0h39.9904v4h-39.9904z" transform="matrix(.921244 -.388985 -.386679 -.922214 45.1328 82.8298)"/></g></svg>