<svg fill="none" height="106" viewBox="0 0 343 106" width="343" xmlns="http://www.w3.org/2000/svg" xmlns:xlink="http://www.w3.org/1999/xlink"><linearGradient id="a"><stop offset=".0190885" stop-color="#ffeea0"/><stop offset="1" stop-color="#ffd551"/></linearGradient><linearGradient id="b" gradientUnits="userSpaceOnUse" x1="314.116" x2="243.952" xlink:href="#a" y1="-.000002" y2="209.909"/><linearGradient id="c" gradientUnits="userSpaceOnUse" x1="314.191" x2="243.881" xlink:href="#a" y1=".500013" y2="210.299"/><linearGradient id="d"><stop offset="0" stop-color="#fff" stop-opacity=".7"/><stop offset="1" stop-color="#fff" stop-opacity=".12"/></linearGradient><linearGradient id="e" gradientUnits="userSpaceOnUse" x1="184.727" x2="203.167" xlink:href="#d" y1="34.9631" y2="96.1957"/><linearGradient id="f" gradientUnits="userSpaceOnUse" x1="-0" x2="175.5" y1="45.5" y2="43.5"><stop offset="0" stop-color="#00a2f2"/><stop offset=".844913" stop-color="#09d1f1"/><stop offset="1" stop-color="#1ef2da"/></linearGradient><linearGradient id="g" gradientUnits="userSpaceOnUse" x1="95.5" x2="95.5" y1="0" y2="105.5"><stop offset="0" stop-color="#a4fcd1"/><stop offset="1" stop-color="#10d989"/></linearGradient><linearGradient id="h" gradientUnits="userSpaceOnUse" x1="164.743" x2="181.469" xlink:href="#d" y1="6.04662" y2="67.7783"/><clipPath id="i"><path d="m0 0h343v106h-343z"/></clipPath><mask id="j" height="107" maskUnits="userSpaceOnUse" width="187" x="156" y="0"><path d="m191 0 152 .5v106h-187z" fill="url(#c)"/></mask><mask id="k" height="106" maskUnits="userSpaceOnUse" width="191" x="0" y="0"><path d="m0 0h191l-35 105.5h-156z" fill="url(#g)"/></mask><g clip-path="url(#i)"><path d="m0 0h343v106h-343z" fill="#fff"/><path d="m191 0h152v106h-187.5z" fill="url(#b)"/><g mask="url(#j)"><path d="m343 0h-61l-35 106h96z" fill="#fff" fill-opacity=".14"/><path d="m343 0h-30l-36 106h66z" fill="#fff" fill-opacity=".14"/><path d="m201.664 75.7124c1.335-4.9283 1.01-8.6424-.903-11.1423-1.694-2.2142-4.73-3.5712-9.218-4.214l-6.132-.8571c-1.496-.2143-2.618-.7143-3.219-1.5-.492-.6428-.649-1.4285-.398-2.357.677-2.4998 3.497-4.714 7.641-4.714 4.736 0 7.265.5 9.178 2.9998l10.268-7.8567c-3.115-4.0712-8.493-6.0711-16.115-6.0711-11.766 0-21.039 6.6425-23.594 16.0706-1.2 4.4283-.945 7.8567.859 10.2137 1.729 2.357 4.875 3.8569 9.362 4.4998l6.132.8571c1.496.2142 2.564.6428 3.111 1.357.472.7143.571 1.7142.223 2.9999-.832 3.0712-3.755 4.5712-8.787 4.5712-5.402 0-8.995-1.2143-10.798-3.5713l-10.456 7.9996c3.658 5.0712 9.503 6.7139 18.161 6.7139 11.618 0 21.976-5.9997 24.685-15.9991z" fill="url(#e)"/></g><path d="m0 0h191l-35.083 106h-155.917z" fill="url(#f)"/><path d="m0 0h103l-38 106h-65z" fill="#fff" fill-opacity=".14"/><path d="m0 0h72l-41 106h-31z" fill="#fff" fill-opacity=".14"/><g mask="url(#k)"><path d="m194.253 11h-13.468l-16.434 28.4271-1.178-28.4271h-13.394l3.611 50.8544h9.62z" fill="url(#h)"/></g></g></svg>