<svg fill="none" height="31" viewBox="0 0 167 31" width="167" xmlns="http://www.w3.org/2000/svg" xmlns:xlink="http://www.w3.org/1999/xlink"><mask id="a" height="31" maskUnits="userSpaceOnUse" width="167" x="0" y="0"><path d="m0 15.1697c0-8.28429 6.71573-15.000022 15-15.000022h137c8.284 0 15 6.715732 15 15.000022 0 8.2842-6.716 15-15 15h-137c-8.28427 0-15-6.7158-15-15z" fill="#75fbaf"/></mask><g mask="url(#a)"><path d="m118.582-1.97266h8.48637v8.48637h-8.48637z" fill="#75fbaf"/><path d="m135.555-1.9729h8.48637v8.48637h-8.48637z" fill="#75fbaf"/><path d="m127.068-1.9729h8.48637v8.48637h-8.48637z" fill="#fff" fill-opacity=".24"/><path d="m144.041-1.9729h8.48637v8.48637h-8.48637z" fill="#fff" fill-opacity=".24"/><path d="m152.527-1.9729h8.48637v8.48637h-8.48637z" fill="#75fbaf"/><path d="m161.014-1.9729h8.48637v8.48637h-8.48637z" fill="#fff" fill-opacity=".24"/><path d="m118.582 15h8.48637v8.48637h-8.48637z" fill="#75fbaf"/><path d="m135.555 15h8.48637v8.48637h-8.48637z" fill="#75fbaf"/><path d="m127.068 15h8.48637v8.48637h-8.48637z" fill="#fff" fill-opacity=".24"/><path d="m144.041 15h8.48637v8.48637h-8.48637z" fill="#fff" fill-opacity=".24"/><path d="m152.527 15h8.48637v8.48637h-8.48637z" fill="#75fbaf"/><path d="m161.014 15h8.48637v8.48637h-8.48637z" fill="#fff" fill-opacity=".24"/><path d="m127.068 6.51367h8.48637v8.48637h-8.48637z" fill="#75fbaf"/><path d="m144.041 6.51367h8.48637v8.48637h-8.48637z" fill="#75fbaf"/><path d="m135.555 6.51367h8.48637v8.48637h-8.48637z" fill="#fff" fill-opacity=".24"/><path d="m152.527 6.51367h8.48637v8.48637h-8.48637z" fill="#fff" fill-opacity=".24"/><path d="m161.014 6.51367h8.48637v8.48637h-8.48637z" fill="#75fbaf"/><path d="m118.582 6.51367h8.48637v8.48637h-8.48637z" fill="#fff" fill-opacity=".24"/><path d="m127.068 23.4863h8.48637v8.48637h-8.48637z" fill="#75fbaf"/><path d="m144.041 23.4863h8.48637v8.48637h-8.48637z" fill="#75fbaf"/><path d="m135.555 23.4863h8.48637v8.48637h-8.48637z" fill="#fff" fill-opacity=".24"/><path d="m152.527 23.4863h8.48637v8.48637h-8.48637z" fill="#fff" fill-opacity=".24"/><path d="m161.014 23.4863h8.48637v8.48637h-8.48637z" fill="#75fbaf"/><path d="m118.582 23.4863h8.48637v8.48637h-8.48637z" fill="#fff" fill-opacity=".24"/><path d="m67.582-1.97266h8.48637v8.48637h-8.48637z" fill="#75fbaf"/><path d="m84.5547-1.9729h8.48637v8.48637h-8.48637z" fill="#75fbaf"/><path d="m93.041-1.9729h8.48637v8.48637h-8.48637z" fill="#fff" fill-opacity=".24"/><path d="m101.527-1.9729h8.48637v8.48637h-8.48637z" fill="#75fbaf"/><path d="m110.014-1.9729h8.48637v8.48637h-8.48637z" fill="#fff" fill-opacity=".24"/><path d="m67.582 15h8.48637v8.48637h-8.48637z" fill="#75fbaf"/><path d="m84.5547 15h8.48637v8.48637h-8.48637z" fill="#75fbaf"/><path d="m93.041 15h8.48637v8.48637h-8.48637z" fill="#fff" fill-opacity=".24"/><path d="m101.527 15h8.48637v8.48637h-8.48637z" fill="#75fbaf"/><path d="m110.014 15h8.48637v8.48637h-8.48637z" fill="#fff" fill-opacity=".24"/><path d="m76.0684 6.51367h8.48637v8.48637h-8.48637z" fill="#75fbaf"/><path d="m93.041 6.51367h8.48637v8.48637h-8.48637z" fill="#75fbaf"/><path d="m84.5547 6.51367h8.48637v8.48637h-8.48637z" fill="#fff" fill-opacity=".24"/><path d="m101.527 6.51367h8.48637v8.48637h-8.48637z" fill="#fff" fill-opacity=".24"/><g fill="#75fbaf"><path d="m110.014 6.51367h8.48637v8.48637h-8.48637z"/><path d="m76.0684 23.4863h8.48637v8.48637h-8.48637z"/><path d="m93.041 23.4863h8.48637v8.48637h-8.48637z"/><path d="m110.014 23.4863h8.48637v8.48637h-8.48637z"/></g></g></svg>