<svg fill="none" height="26" viewBox="0 0 26 26" width="26" xmlns="http://www.w3.org/2000/svg" xmlns:xlink="http://www.w3.org/1999/xlink"><mask id="a" height="20" maskUnits="userSpaceOnUse" width="20" x="3" y="3"><ellipse fill="#fff" rx="9.63911" ry="9.30924" transform="matrix(.855024 -.518589 .51114 .859497 13 13)"/></mask><ellipse cx="13.0529" cy="14.573" fill="#e1a948" rx="9.83076" ry="9.17587"/><ellipse fill="#ffcf52" rx="9.63911" ry="9.30924" transform="matrix(.855024 -.518589 .51114 .859497 13 13)"/><g mask="url(#a)"><path clip-rule="evenodd" d="m7.91075 5.18884 14.56825 10.12006c-.1702.6099-.4061 1.195-.7004 1.7483l-15.46084-10.7401c.48717-.4244 1.0208-.80293 1.59299-1.12826zm-3.31488 3.11398 15.63543 10.86128c-.799.8157-1.7543 1.4958-2.8218 1.9989l-14.05452-9.7632c.21097-1.1151.63861-2.16056 1.24089-3.09698z" fill="#fff595" fill-rule="evenodd"/><ellipse fill="#ffea81" rx="7.36526" ry="7.11321" transform="matrix(.855024 -.518589 .511141 .859497 12.9997 12.9998)"/><path d="m14.0866 18.2455v-8.58461h-.9697l-2.218.99791.457 1.2023 1.2706-.5771v6.9615z" fill="#9e6b2e"/><path clip-rule="evenodd" d="m19.856 10.1986c-.1101-.2338-.2349-.4643-.3748-.69053-2.0667-3.34029-6.6438-4.48476-10.22333-2.55624-3.57951 1.92851-4.80595 6.19977-2.73931 9.53997.14012.2265.2918.4429.45391.6489-1.51483-3.2176-.22288-7.0516 3.11423-8.84947 3.3368-1.79775 7.5405-.92513 9.7693 1.90737z" fill="#e1a948" fill-rule="evenodd"/></g></svg>