<svg fill="none" height="40" viewBox="0 0 40 40" width="40" xmlns="http://www.w3.org/2000/svg" xmlns:xlink="http://www.w3.org/1999/xlink"><linearGradient id="a" gradientUnits="userSpaceOnUse" x1="13.7439" x2="13.7439" y1="0" y2="30.0577"><stop offset="0" stop-color="#3ec099"/><stop offset="1" stop-color="#25b087" stop-opacity=".11"/></linearGradient><linearGradient id="b" gradientUnits="userSpaceOnUse" x1="13.7439" x2="13.7439" y1="0" y2="30.0577"><stop offset="0" stop-color="#d9ffeb"/><stop offset="1" stop-color="#9afcc9"/></linearGradient><linearGradient id="c" gradientUnits="userSpaceOnUse" x1="10.3123" x2="10.3123" y1="0" y2="22.5529"><stop offset="0" stop-color="#4ac8a2"/><stop offset="1" stop-color="#12a278"/></linearGradient><linearGradient id="d" gradientUnits="userSpaceOnUse" x1="10.3123" x2="10.3123" y1="0" y2="22.5529"><stop offset="0" stop-color="#2e694b"/><stop offset="1" stop-color="#214e37"/></linearGradient><linearGradient id="e" gradientUnits="userSpaceOnUse" x1="10.3123" x2="10.3123" y1="0" y2="22.5529"><stop offset="0" stop-color="#a3ffde"/><stop offset="1" stop-color="#26c49c"/></linearGradient><linearGradient id="f" gradientUnits="userSpaceOnUse" x1="19.7565" x2="19.7565" y1="15.8665" y2="21.9154"><stop offset="0" stop-color="#49c8a1"/><stop offset="1" stop-color="#1da37f"/></linearGradient><linearGradient id="g" gradientUnits="userSpaceOnUse" x1="19.2162" x2="19.2162" y1="15.3269" y2="21.3759"><stop offset="0" stop-color="#fff"/><stop offset="1" stop-color="#bfffe0"/></linearGradient><mask id="h" height="23" maskUnits="userSpaceOnUse" width="23" x="7" y="7"><ellipse fill="url(#d)" rx="10.3123" ry="11.2764" transform="matrix(1 0 -.247372 .968921 18.4701 18.5612)"/></mask><ellipse fill="url(#a)" rx="13.7439" ry="15.0289" transform="matrix(1 0 -.247372 .968921 21.5177 21.5918)"/><ellipse fill="url(#b)" rx="13.7439" ry="15.0289" transform="matrix(1 0 -.247372 .968921 18.4615 18.5618)"/><ellipse fill="url(#c)" rx="10.3123" ry="11.2764" transform="matrix(1 0 -.247372 .968921 18.4643 18.5612)"/><g mask="url(#h)"><ellipse fill="url(#e)" rx="10.3123" ry="11.2764" transform="matrix(1 0 -.247372 .968921 19.081 19.1674)"/></g><path d="m14.7991 15.8665-2.3026 6.0489h-1.1898l1.8709-4.9148h-.5949l.4317-1.1341zm2.5778 0c.6571 0 .9965.5077.7581 1.1341l-1.4392 3.7807c-.2384.6263-.9644 1.1341-1.6215 1.1341h-.7932c-.6571 0-.9965-.5078-.758-1.1341l1.4391-3.7807c.2385-.6264.9645-1.1341 1.6216-1.1341zm3.966 0c.6571 0 .9965.5077.758 1.1341l-1.4391 3.7807c-.2385.6263-.9644 1.1341-1.6215 1.1341h-.7932c-.6571 0-.9965-.5078-.7581-1.1341l1.4392-3.7807c.2384-.6264.9644-1.1341 1.6215-1.1341zm2.7762 0 .0192 1.5122 1.1705-1.5122h1.1898l-2.3411 3.0244.0385 3.0245h-1.1898l-.0192-1.5122-1.1706 1.5122h-1.1898l2.3411-3.0245-.0384-3.0244zm-7.1739 1.1341h-.7932l-1.4391 3.7807h.7932zm3.9659 0h-.7931l-1.4392 3.7807h.7932z" fill="url(#f)"/><path d="m14.2588 15.3269-2.3026 6.049h-1.1898l1.8709-4.9148h-.5949l.4317-1.1342zm2.5779 0c.6571 0 .9964.5078.758 1.1342l-1.4391 3.7806c-.2385.6264-.9645 1.1342-1.6216 1.1342h-.7932c-.6571 0-.9964-.5078-.758-1.1342l1.4391-3.7806c.2385-.6264.9645-1.1342 1.6216-1.1342zm3.9659 0c.6571 0 .9965.5078.758 1.1342l-1.4391 3.7806c-.2384.6264-.9644 1.1342-1.6215 1.1342h-.7932c-.6571 0-.9965-.5078-.758-1.1342l1.4391-3.7806c.2384-.6264.9644-1.1342 1.6215-1.1342zm2.7762 0 .0192 1.5122 1.1706-1.5122h1.1897l-2.3411 3.0245.0385 3.0245h-1.1898l-.0192-1.5123-1.1706 1.5123h-1.1897l2.3411-3.0245-.0385-3.0245zm-7.1739 1.1342h-.7932l-1.4391 3.7806h.7932zm3.966 0h-.7932l-1.4392 3.7806h.7932z" fill="url(#g)"/></svg>