<svg fill="none" height="40" viewBox="0 0 40 40" width="40" xmlns="http://www.w3.org/2000/svg" xmlns:xlink="http://www.w3.org/1999/xlink"><linearGradient id="a" gradientUnits="userSpaceOnUse" x1="13.7439" x2="13.7439" y1="0" y2="30.0577"><stop offset="0" stop-color="#3ec099"/><stop offset="1" stop-color="#25b087" stop-opacity=".11"/></linearGradient><linearGradient id="b" gradientUnits="userSpaceOnUse" x1="13.7439" x2="13.7439" y1="0" y2="30.0577"><stop offset="0" stop-color="#d9ffeb"/><stop offset="1" stop-color="#9afcc9"/></linearGradient><linearGradient id="c" gradientUnits="userSpaceOnUse" x1="10.3123" x2="10.3123" y1="0" y2="22.5529"><stop offset="0" stop-color="#4ac8a2"/><stop offset="1" stop-color="#12a278"/></linearGradient><linearGradient id="d" gradientUnits="userSpaceOnUse" x1="10.3123" x2="10.3123" y1="0" y2="22.5529"><stop offset="0" stop-color="#2e694b"/><stop offset="1" stop-color="#214e37"/></linearGradient><linearGradient id="e" gradientUnits="userSpaceOnUse" x1="10.3123" x2="10.3123" y1="0" y2="22.5529"><stop offset="0" stop-color="#a3ffde"/><stop offset="1" stop-color="#26c49c"/></linearGradient><linearGradient id="f" gradientUnits="userSpaceOnUse" x1="21.335" x2="21.335" y1="14.8179" y2="25.0002"><stop offset="0" stop-color="#49c8a1"/><stop offset="1" stop-color="#1da37f"/></linearGradient><linearGradient id="g" gradientUnits="userSpaceOnUse" x1="20.9898" x2="20.9898" y1="14" y2="24.1823"><stop offset="0" stop-color="#fff"/><stop offset="1" stop-color="#bfffe0"/></linearGradient><mask id="h" height="23" maskUnits="userSpaceOnUse" width="23" x="7" y="7"><ellipse fill="url(#d)" rx="10.3123" ry="11.2764" transform="matrix(1 0 -.247372 .968921 18.4701 18.5612)"/></mask><ellipse fill="url(#a)" rx="13.7439" ry="15.0289" transform="matrix(1 0 -.247372 .968921 21.5177 21.5918)"/><ellipse fill="url(#b)" rx="13.7439" ry="15.0289" transform="matrix(1 0 -.247372 .968921 18.4615 18.5618)"/><ellipse fill="url(#c)" rx="10.3123" ry="11.2764" transform="matrix(1 0 -.247372 .968921 18.4643 18.5612)"/><g mask="url(#h)"><ellipse fill="url(#e)" rx="10.3123" ry="11.2764" transform="matrix(1 0 -.247372 .968921 19.081 19.1674)"/></g><g clip-rule="evenodd" fill-rule="evenodd"><path d="m26.1201 14.8179-1.1635 2.0675h-3.5204l-.7608 1.3519c2.7856.1157 4.6484.615 4.3118 1.2131-.3368.5984-2.7614 1.0974-5.6775 1.2136l-2.4403 4.3362h-2.5079l2.4398-4.3352c-2.7973-.1142-4.6706-.6142-4.3329-1.2143.3378-.6001 2.7738-1.1002 5.6997-1.2143l.7601-1.3508h-3.5203l1.1637-2.0677zm-6.5191 5.3283c2.302-.0919 4.1544-.4231 4.3764-.8176h.0002c.2222-.3947-1.2579-.7259-3.4583-.8176l-.7031 1.2494c-.4099.0191-.8416.0292-1.2815.0292-.4332 0-.8448-.0101-1.2272-.0282l.7058-1.2541c-2.3126.0915-4.1761.4227-4.3994.8194-.2231.3964 1.2668.7286 3.4773.819l.1455.006h.002c.1469.0049.2962.0091.4486.0123h.0144l.1286.0025h.0379l.108.0012h.6969l.111-.0014h.0393l.1408-.0025h.0064c.1051-.002.2092-.0047.3123-.0077h.0148l.1388-.0044h.0162z" fill="url(#f)"/><path d="m25.7749 14-1.1635 2.0675h-3.5204l-.7608 1.352c2.7856.1156 4.6484.6149 4.3118 1.213-.3368.5984-2.7614 1.0974-5.6775 1.2136l-2.4403 4.3362h-2.5079l2.4398-4.3352c-2.7974-.1142-4.6706-.6142-4.3329-1.2143.3378-.6001 2.7738-1.1001 5.6997-1.2143l.7601-1.3507h-3.5203l1.1637-2.0678zm-6.5191 5.3284c2.302-.0919 4.1543-.4231 4.3763-.8176h.0003c.2221-.3947-1.258-.7259-3.4583-.8176l-.7031 1.2494c-.41.019-.8416.0292-1.2815.0292-.4332 0-.8449-.0102-1.2272-.0282l.7058-1.2541c-2.3126.0914-4.1761.4226-4.3994.8193-.2231.3965 1.2668.7287 3.4773.8191l.1455.006h.002c.1469.0049.2962.0091.4485.0123h.0145l.1285.0025h.0379l.1081.0012h.6969l.111-.0015h.0393l.1407-.0024h.0065c.105-.002.2092-.0047.3123-.0077h.0148l.1388-.0044h.0162z" fill="url(#g)"/></g></svg>