<svg fill="none" height="40" viewBox="0 0 40 40" width="40" xmlns="http://www.w3.org/2000/svg" xmlns:xlink="http://www.w3.org/1999/xlink"><linearGradient id="a" gradientUnits="userSpaceOnUse" x1="13.7439" x2="13.7439" y1="0" y2="30.0577"><stop offset="0" stop-color="#acc2e5"/><stop offset="1" stop-color="#bfb5e0" stop-opacity=".15"/></linearGradient><linearGradient id="b" gradientUnits="userSpaceOnUse" x1="13.7439" x2="13.7439" y1="0" y2="30.0577"><stop offset="0" stop-color="#e7eefc"/><stop offset="1" stop-color="#d5dff5"/></linearGradient><linearGradient id="c" gradientUnits="userSpaceOnUse" x1="10.3123" x2="10.3123" y1="0" y2="22.5529"><stop offset="0" stop-color="#b4bfd9"/><stop offset="1" stop-color="#9090c6"/></linearGradient><linearGradient id="d" gradientUnits="userSpaceOnUse" x1="19.8535" x2="19.8535" y1="14" y2="22.6466"><stop offset="0" stop-color="#fff"/><stop offset=".0001" stop-color="#f7faff"/><stop offset="1" stop-color="#d7e2ff"/></linearGradient><mask id="e" height="23" maskUnits="userSpaceOnUse" width="23" x="7" y="7"><ellipse fill="#a53838" rx="10.3123" ry="11.2764" transform="matrix(1 0 -.247372 .968921 18.4701 18.5612)"/></mask><ellipse fill="url(#a)" rx="13.7439" ry="15.0289" transform="matrix(1 0 -.247372 .968921 21.5177 21.5918)"/><ellipse fill="url(#b)" rx="13.7439" ry="15.0289" transform="matrix(1 0 -.247372 .968921 18.4615 18.5618)"/><ellipse fill="#5c779b" rx="10.3123" ry="11.2764" transform="matrix(1 0 -.247372 .968921 18.4643 18.5612)"/><g mask="url(#e)"><ellipse fill="url(#c)" rx="10.3123" ry="11.2764" transform="matrix(1 0 -.247372 .968921 19.081 19.1674)"/><g clip-rule="evenodd" fill-rule="evenodd"><path d="m16.64 14.5367c.048-.036.1047-.0562.1577-.0562h8.4343c.1782 0 .2077.2069.0467.328l-2.044 1.5372c-.0479.036-.1046.0562-.1576.0562h-8.4343c-.1782 0-.2077-.2069-.0467-.328zm-1.9423 6.7252c.0479-.0361.1046-.0563.1576-.0563h8.4344c.1781 0 .2076.207.0466.328l-2.0439 1.5372c-.048.036-.1047.0562-.1577.0562h-8.4343c-.1782 0-.2077-.2069-.0467-.328zm-.4712-3.4189c-.1782 0-.3272.207-.2361.328l1.156 1.5372c.0271.036.0721.0563.1252.0563h8.4343c.1782 0 .3272-.207.2361-.328l-1.156-1.5372c-.0271-.036-.0721-.0563-.1252-.0563z" fill="#5c779b"/><path d="m16.2787 14.0563c.0479-.0361.1046-.0563.1577-.0563h8.4343c.1782 0 .2076.207.0467.328l-2.044 1.5372c-.0479.036-.1046.0563-.1577.0563h-8.4343c-.1782 0-.2076-.207-.0467-.3281zm-1.9424 6.7251c.048-.036.1047-.0563.1577-.0563h8.4343c.1782 0 .2077.207.0467.328l-2.044 1.5372c-.0479.036-.1046.0563-.1576.0563h-8.4344c-.1781 0-.2076-.207-.0466-.328zm-.4711-3.4188c-.1782 0-.3272.2069-.2362.328l1.1561 1.5371c.0271.0361.0721.0563.1251.0563h8.4343c.1782 0 .3272-.2069.2362-.328l-1.156-1.5372c-.0271-.036-.0721-.0562-.1252-.0562z" fill="url(#d)"/></g></g></svg>