<svg fill="none" height="38" viewBox="0 0 85 38" width="85" xmlns="http://www.w3.org/2000/svg" xmlns:xlink="http://www.w3.org/1999/xlink"><filter id="a" color-interpolation-filters="sRGB" filterUnits="userSpaceOnUse" height="38" width="83.4406" x="1.09167" y="0"><feFlood flood-opacity="0" result="BackgroundImageFix"/><feColorMatrix in="SourceAlpha" result="hardAlpha" type="matrix" values="0 0 0 0 0 0 0 0 0 0 0 0 0 0 0 0 0 0 127 0"/><feOffset dy="4"/><feComposite in2="hardAlpha" operator="out"/><feColorMatrix type="matrix" values="0 0 0 0 0.883493 0 0 0 0 0.661973 0 0 0 0 0.283863 0 0 0 1 0"/><feBlend in2="BackgroundImageFix" mode="normal" result="effect1_dropShadow_536_152779"/><feBlend in="SourceGraphic" in2="effect1_dropShadow_536_152779" mode="normal" result="shape"/><feColorMatrix in="SourceAlpha" result="hardAlpha" type="matrix" values="0 0 0 0 0 0 0 0 0 0 0 0 0 0 0 0 0 0 127 0"/><feOffset dy="3"/><feGaussianBlur stdDeviation="5"/><feComposite in2="hardAlpha" k2="-1" k3="1" operator="arithmetic"/><feColorMatrix type="matrix" values="0 0 0 0 1 0 0 0 0 0.991962 0 0 0 0 0.939352 0 0 0 1 0"/><feBlend in2="shape" mode="normal" result="effect2_innerShadow_536_152779"/></filter><linearGradient id="b" gradientUnits="userSpaceOnUse" x1="42.4851" x2="42.4851" y1="0" y2="38"><stop offset="0" stop-color="#fdffaa"/><stop offset="1" stop-color="#ffde69"/></linearGradient><clipPath id="c"><path d="m0 0h85v38h-85z"/></clipPath><g clip-path="url(#c)"><g filter="url(#a)"><path d="m72.1074 0h-68.90604c-1.47833 0-2.445733 1.5485-1.79742 2.87709l6.14692 12.59691c.26061.534.27023 1.1563.02624 1.6982l-6.30682 14.0067c-.595945 1.3235.37215 2.8211 1.82366 2.8211h68.96546c.6672 0 1.2905-.3327 1.6617-.8871l10.4729-15.6371c.4664-.6963.4491-1.6095-.0431-2.2877l-10.4249-14.362904c-.3763-.518389-.9781-.825196-1.6186-.825196z" fill="url(#b)"/></g></g></svg>