<svg fill="none" height="30" viewBox="0 0 78 30" width="78" xmlns="http://www.w3.org/2000/svg" xmlns:xlink="http://www.w3.org/1999/xlink"><mask id="a" height="30" maskUnits="userSpaceOnUse" width="78" x="0" y="0"><path d="m0 15c0-8.28427 6.71573-15 15-15h48c8.2843 0 15 6.71573 15 15 0 8.2843-6.7157 15-15 15h-48c-8.28427 0-15-6.7157-15-15z" fill="#75fbaf"/></mask><g mask="url(#a)"><path d="m24.582-1.97266h8.48637v8.48637h-8.48637z" fill="#75fbaf"/><path d="m41.5547-1.9729h8.48637v8.48637h-8.48637z" fill="#75fbaf"/><path d="m50.041-1.9729h8.48637v8.48637h-8.48637z" fill="#fff" fill-opacity=".24"/><path d="m58.5273-1.9729h8.48637v8.48637h-8.48637z" fill="#75fbaf"/><path d="m67.0137-1.9729h8.48637v8.48637h-8.48637z" fill="#fff" fill-opacity=".24"/><path d="m41.5547 15h8.48637v8.48637h-8.48637z" fill="#75fbaf"/><path d="m50.041 15h8.48637v8.48637h-8.48637z" fill="#fff" fill-opacity=".24"/><path d="m58.5273 15h8.48637v8.48637h-8.48637z" fill="#75fbaf"/><path d="m67.0137 15h8.48637v8.48637h-8.48637z" fill="#fff" fill-opacity=".24"/><path d="m50.041 6.51367h8.48637v8.48637h-8.48637z" fill="#75fbaf"/><path d="m41.5547 6.51367h8.48637v8.48637h-8.48637z" fill="#fff" fill-opacity=".24"/><path d="m58.5273 6.51367h8.48637v8.48637h-8.48637z" fill="#fff" fill-opacity=".24"/><path d="m67.0137 6.51367h8.48637v8.48637h-8.48637z" fill="#75fbaf"/><path d="m75.0137 7.0271h8.48637v8.48637h-8.48637z" fill="#fff" fill-opacity=".24"/><path d="m75.0137 24h8.48637v8.48637h-8.48637z" fill="#fff" fill-opacity=".24"/><g fill="#75fbaf"><path d="m75.0137 15.5137h8.48637v8.48637h-8.48637z"/><path d="m33.0684 23.4863h8.48637v8.48637h-8.48637z"/><path d="m50.041 23.4863h8.48637v8.48637h-8.48637z"/><path d="m67.0137 23.4863h8.48637v8.48637h-8.48637z"/></g></g></svg>