<svg fill="none" height="38" viewBox="0 0 343 38" width="343" xmlns="http://www.w3.org/2000/svg" xmlns:xlink="http://www.w3.org/1999/xlink"><linearGradient id="a" gradientUnits="userSpaceOnUse" x1="171" x2="171" y1="-4" y2="37"><stop offset="0" stop-color="#dfffd9"/><stop offset="1" stop-color="#d4ffcb" stop-opacity="0"/></linearGradient><g opacity=".6"><path d="m-61.05 26.35c-.3 3.85-1.7 5.5-4.7 5.5-3.45 0-4.5-1.95-4.5-8.3v-8.7c0-6.35 1.05-8.3 4.45-8.3 2.8 0 4 1.45 4.35 5.15l6.45-.2c-.25-7.25-3.75-10.650002-10.9-10.650002-4.15 0-6.9 1.050002-8.9 3.400002-1.8 2.1-2.5 4.9-2.5 10.1v9.7c0 4.75.6 7.45 2.05 9.5 1.9 2.7 4.95 4 9.4 4 4.25 0 7.4-1.25 9.3-3.75 1.3-1.7 1.85-3.6 2-7.05zm11.6473 10.65h7.05v-15.15h8.7v15.15h7.05v-35.7h-7.05v14.8h-8.7v-14.8h-7.05zm28.9386-12.45c0 4.3.55 6.85 1.95 8.9 2 2.85 5 4.1 9.95004 4.1 4.55 0 7.4-1.05 9.399998-3.5 1.750002-2.1 2.450002-4.8 2.450002-9.5v-10.8c0-4.3-.55-6.85-2-8.9-1.950002-2.85-4.95-4.100001-9.85-4.100001-4.60004 0-7.45004 1.050001-9.45004 3.500001-1.75 2.1-2.45 4.8-2.45 9.5zm16.70004-.6c0 6-1.15 7.9-4.8 7.9-3.70004 0-4.85004-1.9-4.85004-7.9v-9.6c0-6 1.15-7.9 4.85004-7.9 3.65 0 4.8 1.9 4.8 7.9zm12.49922.6c0 4.3.55 6.85 1.95004 8.9 2 2.85 5 4.1 9.95 4.1 4.55 0 7.4-1.05 9.4-3.5 1.75-2.1 2.45-4.8 2.45-9.5v-10.8c0-4.3-.55-6.85-2-8.9-1.95-2.85-4.95-4.100001-9.85-4.100001-4.6 0-7.45 1.050001-9.45 3.500001-1.75004 2.1-2.45004 4.8-2.45004 9.5zm16.70004-.6c0 6-1.15 7.9-4.8 7.9-3.7 0-4.85-1.9-4.85-7.9v-9.6c0-6 1.15-7.9 4.85-7.9 3.65 0 4.8 1.9 4.8 7.9zm11.0781 4.8c.6 2.55 1.25 4 2.2 5.25 1.9 2.35 5.1 3.55 9.55 3.55 7.8 0 11.65-3.6 11.65-10.85 0-3.75-1-6.25-3.1-7.8-1.5-1.15-2.45-1.55-6.5-2.7-4.3-1.25-5.65-2.55-5.65-5.35s1.4-4.4 3.95-4.4c2.4 0 3.4.95 4.5 4.35l5.9-1.7c-1.35-5.85-4.4-8.300002-10.4-8.300002-6.85 0-10.7 3.750002-10.7 10.450002 0 5.7 2.45 8.6 8.85 10.5 4.3 1.2 4.3 1.2 5.15 1.95.8.65 1.25 1.8 1.25 3.35 0 3.3-1.55 4.8-5 4.8-3.2 0-4.7-1.3-5.65-4.85zm28.2941 8.25h20v-5.75h-13v-9.4h10.8v-5.75h-10.8v-9.05h12.8v-5.75h-19.8zm39.0286 0h7.05v-29.95h7.8v-5.75h-22.7001v5.75h7.8501zm18.62-12.45c0 4.3.55 6.85 1.95 8.9 2 2.85 5 4.1 9.95 4.1 4.55 0 7.4-1.05 9.4-3.5 1.75-2.1 2.45-4.8 2.45-9.5v-10.8c0-4.3-.55-6.85-2-8.9-1.95-2.85-4.95-4.100001-9.85-4.100001-4.6 0-7.45 1.050001-9.45 3.500001-1.75 2.1-2.45 4.8-2.45 9.5zm16.7-.6c0 6-1.15 7.9-4.8 7.9-3.7 0-4.85-1.9-4.85-7.9v-9.6c0-6 1.15-7.9 4.85-7.9 3.65 0 4.8 1.9 4.8 7.9zm29.533-22.65v22.65c0 2.85-.1 4.15-.3 5.2-.4 1.85-1.25 2.7-2.75 2.7-1.6 0-3.15-.9-5-2.9l-3.95 4.55c3.15 2.95 5.75 4.05 9.65 4.05 4.1 0 6.8-1.4 8.25-4.2.9-1.8 1.15-3.75 1.15-9.5v-22.55zm12.947 23.25c0 4.3.55 6.85 1.95 8.9 2 2.85 5 4.1 9.95 4.1 4.55 0 7.4-1.05 9.4-3.5 1.75-2.1 2.45-4.8 2.45-9.5v-10.8c0-4.3-.55-6.85-2-8.9-1.95-2.85-4.95-4.100001-9.85-4.100001-4.6 0-7.45 1.050001-9.45 3.500001-1.75 2.1-2.45 4.8-2.45 9.5zm16.7-.6c0 6-1.15 7.9-4.8 7.9-3.7 0-4.85-1.9-4.85-7.9v-9.6c0-6 1.15-7.9 4.85-7.9 3.65 0 4.8 1.9 4.8 7.9zm13.199 13.05h7.05v-35.7h-7.05zm13.916 0h6.7v-22.95l10.75 22.95h6.75v-35.7h-6.7v22.8l-10.6-22.8h-6.9zm55.49-6.9 1.8 6.9h7.6l-11.45-35.7h-6.4l-11.45 35.7h7.6l1.8-6.9zm-1.45-5.6h-7.55l3.75-14.35zm35.966 12.5h7.05v-29.95h7.8v-5.75h-22.7v5.75h7.85zm19.419 0h20v-5.75h-13v-9.4h10.8v-5.75h-10.8v-9.05h12.8v-5.75h-19.8zm42.94-6.9 1.8 6.9h7.6l-11.45-35.7h-6.4l-11.45 35.7h7.6l1.8-6.9zm-1.45-5.6h-7.55l3.75-14.35zm13.147 12.5h6.75v-21.4l5.4 13.7h4.5l5.4-13.7v21.4h6.75v-35.7h-6.55l-7.85 19.3-7.85-19.3h-6.55z" fill="url(#a)"/><path d="m-61.05 26.35.0246-.3992-.3928-.0242-.0306.3923zm-.4-14.65-.3982.0377.0353.3737.3753-.0116zm6.45-.2.0124.3998.4012-.0124-.0138-.4012zm-19.8-7.25.3037.26032.0009-.00107zm-.45 29.3.3271-.2302-.0005-.0008zm18.7.25-.3177-.243-.0008.001zm2-7.05.3996.0174.0171-.3925-.3921-.0241zm-6.8988-.4311c-.1476 1.8948-.5623 3.1674-1.243 3.9652-.6636.7779-1.6347 1.1659-3.0582 1.1659v.8c1.5765 0 2.8054-.437 3.6668-1.4466.8443-.9897 1.2796-2.4671 1.432-4.4223zm-4.3012 5.1311c-.8286 0-1.4748-.1177-1.9845-.3641-.5011-.2421-.8968-.6212-1.2075-1.1951-.64-1.1819-.908-3.1608-.908-6.3408h-.8c0 3.17.257 5.3411 1.0045 6.7217.383.7074.8968 1.2126 1.5629 1.5345.6574.3178 1.4362.4438 2.3326.4438zm-4.1-7.9v-8.7h-.8v8.7zm0-8.7c0-3.1797.2679-5.15956.9025-6.34212.3082-.57443.6997-.95308 1.1936-1.19466.5023-.2457 1.1385-.36322 1.9539-.36322v-.8c-.8846 0-1.6546.12622-2.3054.44459-.6593.32248-1.1678.82821-1.5471 1.53503-.7404 1.37993-.9975 3.55008-.9975 6.72038zm4.05-7.9c1.3288 0 2.1956.34091 2.7876 1.04494.613.72891.9912 1.91405 1.1642 3.74276l.7964-.0754c-.177-1.87129-.5738-3.26116-1.3483-4.18224-.7955-.94597-1.9287-1.33006-3.3999-1.33006zm4.3624 5.1498 6.45-.2-.0248-.7996-6.45.2zm6.8374-.6136c-.127-3.68087-1.0813-6.46079-2.983-8.31625-1.9024-1.85621-4.6839-2.719953-8.3168-2.719953v.800003c3.5171 0 6.0606.83626 7.7582 2.49255 1.6983 1.65704 2.619 4.20212 2.742 7.77125zm-11.2998-11.036203c-4.2244 0-7.1047 1.073303-9.2046 3.540753l.6092.5185c1.9001-2.23255 4.5198-3.25925 8.5954-3.25925zm-9.2037 3.539683c-1.897 2.21319-2.5963 5.1374-2.5963 10.36032h.8c0-5.17709.7007-7.85287 2.4037-9.83969zm-2.5963 10.36032v9.7h.8v-9.7zm0 9.7c0 4.7725.5998 7.5769 2.1234 9.731l.6532-.462c-1.3764-1.9459-1.9766-4.5415-1.9766-9.269zm2.1229 9.7302c1.9993 2.8412 5.1961 4.1698 9.7271 4.1698v-.8c-4.369 0-7.2722-1.2714-9.0729-3.8302zm9.7271 4.1698c4.3246 0 7.6168-1.2742 9.6185-3.908l-.637-.484c-1.7983 2.3662-4.8061 3.592-8.9815 3.592zm9.6177-3.907c1.3711-1.7929 1.9303-3.7876 2.0819-7.2756l-.7992-.0348c-.1484 3.412-.6891 5.2173-1.9181 6.8244zm1.7069-7.6922-6.5-.4-.0492.7984 6.5.4zm5.1227 10.6492h-.4v.4h.4zm7.05 0v.4h.4v-.4zm0-15.15v-.4h-.4v.4zm8.7 0h.4v-.4h-.4zm0 15.15h-.4v.4h.4zm7.05 0v.4h.4v-.4zm0-35.7h.4v-.400002h-.4zm-7.05 0v-.400002h-.4v.400002zm0 14.8v.4h.4v-.4zm-8.7 0h-.4v.4h.4zm0-14.8h.4v-.400002h-.4zm-7.05 0v-.400002h-.4v.400002zm0 36.1h7.05v-.8h-7.05zm7.45-.4v-15.15h-.8v15.15zm-.4-14.75h8.7v-.8h-8.7zm8.3-.4v15.15h.8v-15.15zm.4 15.55h7.05v-.8h-7.05zm7.45-.4v-35.7h-.8v35.7zm-.4-36.100002h-7.05v.800002h7.05zm-7.45.400002v14.8h.8v-14.8zm.4 14.4h-8.7v.8h8.7zm-8.3.4v-14.8h-.8v14.8zm-.4-15.200002h-7.05v.800002h7.05zm-7.45.400002v35.7h.8v-35.7zm31.2886 32.15-.3303.2256.0029.0042zm19.350038.6-.307305-.2561-.002556.0032zm.450002-29.2-.330168.2259.003601.00509zm-19.30004-.6.3073.25609.0026-.00314zm-2.85 20.3c0 4.3268.5514 6.9755 2.0197 9.1256l.6607-.4512c-1.3317-1.9499-1.8804-4.4012-1.8804-8.6744zm2.0226 9.1298c2.1026 2.9961 5.2542 4.2702 10.27744 4.2702v-.8c-4.87674 0-7.72514-1.2259-9.62254-3.9298zm10.27744 4.2702c4.61381 0 7.604297-1.0677 9.70987-3.647l-.619733-.5059c-1.894437 2.3206-4.603947 3.3529-9.090137 3.3529zm9.70729-3.6439c1.83974-2.2077 2.54271-5.0232 2.54271-9.7561h-.8c0 4.6671-.69704 7.2516-2.357292 9.2439zm2.54271-9.7561v-10.8h-.8v10.8zm0-10.8c0-4.32626-.55103-6.97862-2.07344-9.13099l-.653127.46198c1.377597 1.94763 1.926567 4.39527 1.926567 8.66901zm-2.06988-9.12587c-2.052789-3.00024-5.20751-4.274131-10.18012-4.274131v.800001c4.82739 0 7.672664 1.2261 9.519878 3.92587zm-10.18012-4.274131c-4.66294 0-7.65394 1.067231-9.75984 3.647051l.6197.5059c1.894-2.32019 4.603-3.35295 9.14014-3.35295zm-9.75734 3.643921c-1.8397 2.2077-2.5427 5.02315-2.5427 9.75608h.8c0-4.66707.6971-7.25162 2.3573-9.24393zm-2.5427 9.75608v10.8h.8v-10.8zm16.70004 10.2c0 3.0018-.29325 4.8725-.97317 5.9924-.33041.5442-.75389.9126-1.29739 1.1505-.55221.2418-1.24788.3571-2.12944.3571v.8c.94344 0 1.76027-.1222 2.45024-.4242.69869-.3058 1.24708-.7874 1.66042-1.4682.80759-1.3301 1.08934-3.4094 1.08934-6.4076zm-4.4 7.5c-1.77884 0-2.82364-.4509-3.47134-1.5089-.6853-1.1192-.9787-2.989-.9787-5.9911h-.8c0 2.9979.2817 5.0781 1.0964 6.4089.8523 1.392 2.2325 1.8911 4.15364 1.8911zm-4.45004-7.5v-9.6h-.8v9.6zm0-9.6c0-3.0021.2934-4.87188.9787-5.99114.6477-1.05791 1.6925-1.50886 3.47134-1.50886v-.8c-1.92114 0-3.30134.49905-4.15364 1.89114-.8147 1.33074-1.0964 3.41096-1.0964 6.40886zm4.45004-7.5c.88156 0 1.57723.11533 2.12944.35706.5435.2379.96698.60632 1.29739 1.15053.67992 1.11986.97317 2.99061.97317 5.99241h.8c0-2.9982-.28175-5.07746-1.08934-6.40759-.41334-.68079-.96173-1.16237-1.66042-1.46822-.68997-.30202-1.5068-.42419-2.45024-.42419zm4.4 7.5v9.6h.8v-9.6zm14.84926 19.1-.3304.2256.0029.0042zm19.35.6-.3073-.2561-.0026.0032zm.45-29.2-.3302.2259.0036.00509zm-19.3-.6.3073.25609.0025-.00314zm-2.85004 20.3c0 4.3268.55132 6.9755 2.01964 9.1256l.6607-.4512c-1.33167-1.9499-1.88035-4.4012-1.88035-8.6744zm2.02254 9.1298c2.1026 2.9961 5.2542 4.2702 10.2775 4.2702v-.8c-4.8768 0-7.7252-1.2259-9.6226-3.9298zm10.2775 4.2702c4.6138 0 7.6043-1.0677 9.7098-3.647l-.6197-.5059c-1.8944 2.3206-4.604 3.3529-9.0901 3.3529zm9.7072-3.6439c1.8398-2.2077 2.5428-5.0232 2.5428-9.7561h-.8c0 4.6671-.6971 7.2516-2.3573 9.2439zm2.5428-9.7561v-10.8h-.8v10.8zm0-10.8c0-4.32626-.5511-6.97862-2.0735-9.13099l-.6531.46198c1.3776 1.94763 1.9266 4.39527 1.9266 8.66901zm-2.0699-9.12587c-2.0528-3.00024-5.2075-4.274131-10.1801-4.274131v.800001c4.8273 0 7.6726 1.2261 9.5198 3.92587zm-10.1801-4.274131c-4.6629 0-7.6539 1.067231-9.7599 3.647051l.6197.5059c1.8941-2.32019 4.603-3.35295 9.1402-3.35295zm-9.7573 3.643921c-1.83978 2.2077-2.54274 5.02315-2.54274 9.75608h.79999c0-4.66707.69704-7.25162 2.35725-9.24393zm-2.54274 9.75608v10.8h.79999v-10.8zm16.70004 10.2c0 3.0018-.2933 4.8725-.9732 5.9924-.3304.5442-.7539.9126-1.2974 1.1505-.5522.2418-1.2479.3571-2.1294.3571v.8c.9434 0 1.7602-.1222 2.4502-.4242.6987-.3058 1.2471-.7874 1.6604-1.4682.8076-1.3301 1.0894-3.4094 1.0894-6.4076zm-4.4 7.5c-1.7789 0-2.8237-.4509-3.4714-1.5089-.6853-1.1192-.9786-2.989-.9786-5.9911h-.8c0 2.9979.2816 5.0781 1.0963 6.4089.8523 1.392 2.2325 1.8911 4.1537 1.8911zm-4.45-7.5v-9.6h-.8v9.6zm0-9.6c0-3.0021.2933-4.87188.9786-5.99114.6477-1.05791 1.6925-1.50886 3.4714-1.50886v-.8c-1.9212 0-3.3014.49905-4.1537 1.89114-.8147 1.33074-1.0963 3.41096-1.0963 6.40886zm4.45-7.5c.8815 0 1.5772.11533 2.1294.35706.5435.2379.967.60632 1.2974 1.15053.6799 1.11986.9732 2.99061.9732 5.99241h.8c0-2.9982-.2818-5.07746-1.0894-6.40759-.4133-.68079-.9617-1.16237-1.6604-1.46822-.69-.30202-1.5068-.42419-2.4502-.42419zm4.4 7.5v9.6h.8v-9.6zm11.4781 14.4-.112-.384-.3643.1062.0869.3694zm2.2 5.25-.3186.2421.0075.0094zm18.1-15.1-.2434.3175.0058.0043zm-6.5-2.7-.1117.3841.0024.0007zm2.8-5.4-.3806.1231.1192.3685.3721-.1072zm5.9-1.7.1107.38436.3643-.10495-.0853-.36936zm-12.25 12.65-.1139.3835.0064.0018zm5.15 1.95-.2647.2999.0061.0054.0063.0051zm-9.4 3.3.3864-.1034-.1058-.3951-.3926.1145zm-6.3894 1.8416c.6076 2.5824 1.2755 4.0907 2.2709 5.4004l.6369-.484c-.9045-1.1903-1.5367-2.582-2.1291-5.0996zm2.2783 5.4099c2.0059 2.4809 5.3476 3.6985 9.8611 3.6985v-.8c-4.3865 0-7.4448-1.1824-9.239-3.4015zm9.8611 3.6985c3.954 0 6.9827-.9118 9.0227-2.8137 2.0455-1.9069 3.0273-4.7432 3.0273-8.4363h-.8c0 3.5569-.9432 6.1456-2.7728 7.8512-1.8349 1.7106-4.6312 2.5988-8.4772 2.5988zm12.05-11.25c0-3.8194-1.0215-6.4678-3.2625-8.1218l-.4751.6436c1.9591 1.446 2.9376 3.7976 2.9376 7.4782zm-3.2566-8.1174c-1.565-1.1998-2.5796-1.6161-6.6342-2.7674l-.2185.7696c4.0455 1.1487 4.9309 1.5324 6.3659 2.6326zm-6.6318-2.7667c-2.1409-.6224-3.4727-1.2388-4.2736-1.9997-.7727-.734-1.088-1.6398-1.088-2.9662h-.8c0 1.4736.3597 2.6178 1.337 3.5462.949.9017 2.4422 1.5603 4.6013 2.1879zm-5.3616-4.9659c0-1.33825.3346-2.33034.9173-2.98379.5763-.64639 1.4443-1.01621 2.6327-1.01621v-.8c-1.3617 0-2.4687.43017-3.2298 1.28379-.7549.84654-1.1202 2.05445-1.1202 3.51621zm3.55-4c1.1445 0 1.8756.22494 2.4599.78803.6106.58836 1.1115 1.5912 1.6595 3.28507l.7612-.2462c-.552-1.70613-1.1011-2.87829-1.8656-3.61493-.7906-.76191-1.7595-1.01197-3.015-1.01197zm4.6107 4.3344 5.9-1.70004-.2215-.76872-5.9 1.69996zm6.179-2.17435c-.6861-2.97336-1.8184-5.14531-3.5962-6.56626-1.7782-1.42123-4.1429-2.043792-7.1935-2.043792v.800002c2.9494 0 5.1097.60243 6.694 1.86871 1.5847 1.26654 2.6524 3.2446 3.3162 6.12123zm-10.7897-8.610052c-3.4958 0-6.2836.957772-8.1981 2.826232-1.916 1.86989-2.9019 4.59774-2.9019 8.02377h.8c0-3.27398.9391-5.77112 2.6606-7.45124 1.723-1.68153 4.2851-2.59876 7.6394-2.59876zm-11.1 10.850002c0 2.9076.6257 5.1619 2.1192 6.9329 1.4855 1.7616 3.785 2.9911 7.0169 3.9506l.2277-.767c-3.1681-.9405-5.2936-2.111-6.633-3.6994-1.3316-1.579-1.9308-3.6247-1.9308-6.4171zm9.1425 10.8853c2.1616.6032 3.2125.897 3.8346 1.1325.3027.1146.4879.2099.6427.3129.16.1064.2988.228.5155.4192l.5293-.5998c-.2082-.1838-.3882-.3435-.6017-.4855-.2185-.1454-.4615-.2658-.8025-.3949-.6654-.252-1.7645-.5582-3.9029-1.155zm5.0052 1.8751c.6719.5459 1.1023 1.5568 1.1023 3.0396h.8c0-1.6172-.4696-2.9063-1.3978-3.6604zm1.1023 3.0396c0 1.5948-.3749 2.6676-1.0836 3.3492-.712.6849-1.8394 1.0508-3.5164 1.0508v.8c1.7729 0 3.1456-.3841 4.071-1.2742.9288-.8934 1.329-2.2206 1.329-3.9258zm-4.6 4.4c-1.548 0-2.6142-.3142-3.4079-.997-.8034-.691-1.3885-1.8106-1.8557-3.5564l-.7728.2068c.4828 1.8042 1.1226 3.1096 2.1068 3.9561.9937.8547 2.2776 1.1905 3.9296 1.1905zm-5.762-4.834-6 1.75.224.768 6-1.75zm22.4061 10.384h-.4v.4h.4zm20 0v.4h.4v-.4zm0-5.75h.4v-.4h-.4zm-13 0h-.4v.4h.4zm0-9.4v-.4h-.4v.4zm10.8 0v.4h.4v-.4zm0-5.75h.4v-.4h-.4zm-10.8 0h-.4v.4h.4zm0-9.05v-.4h-.4v.4zm12.8 0v.4h.4v-.4zm0-5.75h.4v-.400002h-.4zm-19.8 0v-.400002h-.4v.400002zm0 36.1h20v-.8h-20zm20.4-.4v-5.75h-.8v5.75zm-.4-6.15h-13v.8h13zm-12.6.4v-9.4h-.8v9.4zm-.4-9h10.8v-.8h-10.8zm11.2-.4v-5.75h-.8v5.75zm-.4-6.15h-10.8v.8h10.8zm-10.4.4v-9.05h-.8v9.05zm-.4-8.65h12.8v-.8h-12.8zm13.2-.4v-5.75h-.8v5.75zm-.4-6.150002h-19.8v.800002h19.8zm-20.2.400002v35.7h.8v-35.7zm39.4286 35.7h-.4v.4h.4zm7.05 0v.4h.4v-.4zm0-29.95v-.4h-.4v.4zm7.8 0v.4h.4v-.4zm0-5.75h.4v-.400002h-.4zm-22.7001 0v-.400002h-.4v.400002zm0 5.75h-.4v.4h.4zm7.8501 0h.4v-.4h-.4zm0 30.35h7.05v-.8h-7.05zm7.45-.4v-29.95h-.8v29.95zm-.4-29.55h7.8v-.8h-7.8zm8.2-.4v-5.75h-.8v5.75zm-.4-6.150002h-22.7001v.800002h22.7001zm-23.1001.400002v5.75h.8v-5.75zm.4 6.15h7.8501v-.8h-7.8501zm7.4501-.4v29.95h.8v-29.95zm20.97 26.4-.33.2256.002.0042zm19.35.6-.307-.2561-.003.0032zm.45-29.2-.33.2259.003.00509zm-19.3-.6.307.25609.003-.00314zm-2.85 20.3c0 4.3268.551 6.9755 2.02 9.1256l.66-.4512c-1.331-1.9499-1.88-4.4012-1.88-8.6744zm2.022 9.1298c2.103 2.9961 5.255 4.2702 10.278 4.2702v-.8c-4.877 0-7.725-1.2259-9.623-3.9298zm10.278 4.2702c4.614 0 7.604-1.0677 9.71-3.647l-.62-.5059c-1.894 2.3206-4.604 3.3529-9.09 3.3529zm9.707-3.6439c1.84-2.2077 2.543-5.0232 2.543-9.7561h-.8c0 4.6671-.697 7.2516-2.357 9.2439zm2.543-9.7561v-10.8h-.8v10.8zm0-10.8c0-4.32626-.551-6.97862-2.074-9.13099l-.653.46198c1.378 1.94763 1.927 4.39527 1.927 8.66901zm-2.07-9.12587c-2.053-3.00024-5.208-4.274131-10.18-4.274131v.800001c4.827 0 7.673 1.2261 9.52 3.92587zm-10.18-4.274131c-4.663 0-7.654 1.067231-9.76 3.647051l.62.5059c1.894-2.32019 4.603-3.35295 9.14-3.35295zm-9.757 3.643921c-1.84 2.2077-2.543 5.02315-2.543 9.75608h.8c0-4.66707.697-7.25162 2.357-9.24393zm-2.543 9.75608v10.8h.8v-10.8zm16.7 10.2c0 3.0018-.293 4.8725-.973 5.9924-.331.5442-.754.9126-1.298 1.1505-.552.2418-1.248.3571-2.129.3571v.8c.943 0 1.76-.1222 2.45-.4242.699-.3058 1.247-.7874 1.661-1.4682.807-1.3301 1.089-3.4094 1.089-6.4076zm-4.4 7.5c-1.779 0-2.824-.4509-3.471-1.5089-.686-1.1192-.979-2.989-.979-5.9911h-.8c0 2.9979.281 5.0781 1.096 6.4089.853 1.392 2.233 1.8911 4.154 1.8911zm-4.45-7.5v-9.6h-.8v9.6zm0-9.6c0-3.0021.293-4.87188.979-5.99114.647-1.05791 1.692-1.50886 3.471-1.50886v-.8c-1.921 0-3.301.49905-4.154 1.89114-.815 1.33074-1.096 3.41096-1.096 6.40886zm4.45-7.5c.881 0 1.577.11533 2.129.35706.544.2379.967.60632 1.298 1.15053.68 1.11986.973 2.99061.973 5.99241h.8c0-2.9982-.282-5.07746-1.089-6.40759-.414-.68079-.962-1.16237-1.661-1.46822-.69-.30202-1.507-.42419-2.45-.42419zm4.4 7.5v9.6h.8v-9.6zm29.933-13.05v-.400002h-.4v.400002zm-.3 27.85.392.0846.001-.0098zm-7.75-.2.294-.2716-.303-.3277-.293.3371zm-3.95 4.55-.302-.2622-.252.2909.281.2633zm17.9-.15.356.184.002-.0051zm1.15-32.05h.4v-.400002h-.4zm-7.45 0v22.65h.8v-22.65zm0 22.65c0 2.8454-.1 4.114-.292 5.1252l.785.1496c.208-1.0888.307-2.4202.307-5.2748zm-.291 5.1155c-.191.8875-.48 1.4767-.852 1.8434-.36.3551-.838.5411-1.507.5411v.8c.832 0 1.529-.239 2.069-.7714.528-.5208.864-1.2816 1.072-2.2441zm-2.359 2.3845c-1.431 0-2.881-.7988-4.706-2.7716l-.587.5432c1.875 2.0272 3.525 3.0284 5.293 3.0284zm-5.302-2.7622-3.95 4.55.605.5244 3.95-4.55zm-3.921 5.1042c1.597 1.4951 3.073 2.54 4.662 3.208 1.592.669 3.272.95 5.261.95v-.8c-1.91 0-3.48-.269-4.951-.8875-1.473-.6195-2.872-1.5996-4.425-3.0545zm9.923 4.158c4.201 0 7.067-1.445 8.606-4.4161l-.711-.3678c-1.361 2.6289-3.895 3.9839-7.895 3.9839zm8.608-4.4211c.949-1.8969 1.192-3.9411 1.192-9.6789h-.8c0 5.7622-.256 7.618-1.107 9.3211zm1.192-9.6789v-22.55h-.8v22.55zm-.4-22.950002h-7.05v.800002h7.05zm7.847 32.550002-.331.2256.003.0042zm19.35.6-.308-.2561-.002.0032zm.45-29.2-.331.2259.004.00509zm-19.3-.6.307.25609.002-.00314zm-2.85 20.3c0 4.3268.551 6.9755 2.019 9.1256l.661-.4512c-1.332-1.9499-1.88-4.4012-1.88-8.6744zm2.022 9.1298c2.103 2.9961 5.254 4.2702 10.278 4.2702v-.8c-4.877 0-7.726-1.2259-9.623-3.9298zm10.278 4.2702c4.613 0 7.604-1.0677 9.709-3.647l-.619-.5059c-1.895 2.3206-4.604 3.3529-9.09 3.3529zm9.707-3.6439c1.84-2.2077 2.543-5.0232 2.543-9.7561h-.8c0 4.6671-.697 7.2516-2.358 9.2439zm2.543-9.7561v-10.8h-.8v10.8zm0-10.8c0-4.32626-.551-6.97862-2.074-9.13099l-.653.46198c1.378 1.94763 1.927 4.39527 1.927 8.66901zm-2.07-9.12587c-2.053-3.00024-5.208-4.274131-10.18-4.274131v.800001c4.827 0 7.672 1.2261 9.519 3.92587zm-10.18-4.274131c-4.663 0-7.654 1.067231-9.76 3.647051l.619.5059c1.894-2.32019 4.603-3.35295 9.141-3.35295zm-9.758 3.643921c-1.839 2.2077-2.542 5.02315-2.542 9.75608h.8c0-4.66707.697-7.25162 2.357-9.24393zm-2.542 9.75608v10.8h.8v-10.8zm16.7 10.2c0 3.0018-.294 4.8725-.974 5.9924-.33.5442-.754.9126-1.297 1.1505-.552.2418-1.248.3571-2.129.3571v.8c.943 0 1.76-.1222 2.45-.4242.698-.3058 1.247-.7874 1.66-1.4682.808-1.3301 1.09-3.4094 1.09-6.4076zm-4.4 7.5c-1.779 0-2.824-.4509-3.472-1.5089-.685-1.1192-.978-2.989-.978-5.9911h-.8c0 2.9979.281 5.0781 1.096 6.4089.852 1.392 2.232 1.8911 4.154 1.8911zm-4.45-7.5v-9.6h-.8v9.6zm0-9.6c0-3.0021.293-4.87188.978-5.99114.648-1.05791 1.693-1.50886 3.472-1.50886v-.8c-1.922 0-3.302.49905-4.154 1.89114-.815 1.33074-1.096 3.41096-1.096 6.40886zm4.45-7.5c.881 0 1.577.11533 2.129.35706.543.2379.967.60632 1.297 1.15053.68 1.11986.974 2.99061.974 5.99241h.8c0-2.9982-.282-5.07746-1.09-6.40759-.413-.68079-.962-1.16237-1.66-1.46822-.69-.30202-1.507-.42419-2.45-.42419zm4.4 7.5v9.6h.8v-9.6zm13.599 22.65h-.4v.4h.4zm7.05 0v.4h.4v-.4zm0-35.7h.4v-.400002h-.4zm-7.05 0v-.400002h-.4v.400002zm0 36.1h7.05v-.8h-7.05zm7.45-.4v-35.7h-.8v35.7zm-.4-36.100002h-7.05v.800002h7.05zm-7.45.400002v35.7h.8v-35.7zm14.316 35.7h-.4v.4h.4zm6.7 0v.4h.4v-.4zm0-22.95.362-.1697-.762.1697zm10.75 22.95-.362.1697.107.2303h.255zm6.75 0v.4h.4v-.4zm0-35.7h.4v-.400002h-.4zm-6.7 0v-.400002h-.4v.400002zm0 22.8-.363.1686.763-.1686zm-10.6-22.8.363-.16863-.108-.231372h-.255zm-6.9 0v-.400002h-.4v.400002zm0 36.1h6.7v-.8h-6.7zm7.1-.4v-22.95h-.8v22.95zm-.762-22.7803 10.75 22.95.724-.3394-10.75-22.95zm11.112 23.1803h6.75v-.8h-6.75zm7.15-.4v-35.7h-.8v35.7zm-.4-36.100002h-6.7v.800002h6.7zm-7.1.400002v22.8h.8v-22.8zm.763 22.6314-10.6-22.80003-.726.33726 10.6 22.79997zm-10.963-23.031402h-6.9v.800002h6.9zm-7.3.400002v35.7h.8v-35.7zm55.89 28.8.387-.101-.078-.299h-.309zm1.8 6.9-.387.101.078.299h.309zm7.6 0v.4h.548l-.167-.5222zm-11.45-35.7.381-.12216-.089-.277842h-.292zm-6.4 0v-.400002h-.292l-.089.277842zm-11.45 35.7-.381-.1222-.167.5222h.548zm7.6 0v.4h.309l.078-.299zm1.8-6.9v-.4h-.309l-.078.299zm9.05-5.6v.4h.52l-.133-.5024zm-7.55 0-.387-.1011-.131.5011h.518zm3.75-14.35.387-.1024-.39-1.46987-.384 1.47117zm4.863 20.051 1.8 6.9.774-.202-1.8-6.9zm2.187 7.199h7.6v-.8h-7.6zm7.981-.5222-11.45-35.69996-.762.24432 11.45 35.70004zm-11.831-35.977802h-6.4v.800002h6.4zm-6.781.277842-11.45 35.69996.762.2444 11.45-35.70004zm-11.069 36.22216h7.6v-.8h-7.6zm7.987-.299 1.8-6.9-.774-.202-1.8 6.9zm1.413-6.601h10.5v-.8h-10.5zm9.05-6.4h-7.55v.8h7.55zm-7.163.5011 3.75-14.35-.774-.2022-3.75 14.35zm2.976-14.3487 3.8 14.35.774-.2048-3.8-14.35zm40.153 26.7476h-.4v.4h.4zm7.05 0v.4h.4v-.4zm0-29.95v-.4h-.4v.4zm7.8 0v.4h.4v-.4zm0-5.75h.4v-.400002h-.4zm-22.7 0v-.400002h-.4v.400002zm0 5.75h-.4v.4h.4zm7.85 0h.4v-.4h-.4zm0 30.35h7.05v-.8h-7.05zm7.45-.4v-29.95h-.8v29.95zm-.4-29.55h7.8v-.8h-7.8zm8.2-.4v-5.75h-.8v5.75zm-.4-6.150002h-22.7v.800002h22.7zm-23.1.400002v5.75h.8v-5.75zm.4 6.15h7.85v-.8h-7.85zm7.45-.4v29.95h.8v-29.95zm19.819 29.95h-.4v.4h.4zm20 0v.4h.4v-.4zm0-5.75h.4v-.4h-.4zm-13 0h-.4v.4h.4zm0-9.4v-.4h-.4v.4zm10.8 0v.4h.4v-.4zm0-5.75h.4v-.4h-.4zm-10.8 0h-.4v.4h.4zm0-9.05v-.4h-.4v.4zm12.8 0v.4h.4v-.4zm0-5.75h.4v-.400002h-.4zm-19.8 0v-.400002h-.4v.400002zm0 36.1h20v-.8h-20zm20.4-.4v-5.75h-.8v5.75zm-.4-6.15h-13v.8h13zm-12.6.4v-9.4h-.8v9.4zm-.4-9h10.8v-.8h-10.8zm11.2-.4v-5.75h-.8v5.75zm-.4-6.15h-10.8v.8h10.8zm-10.4.4v-9.05h-.8v9.05zm-.4-8.65h12.8v-.8h-12.8zm13.2-.4v-5.75h-.8v5.75zm-.4-6.150002h-19.8v.800002h19.8zm-20.2.400002v35.7h.8v-35.7zm43.34 28.8.387-.101-.078-.299h-.309zm1.8 6.9-.387.101.078.299h.309zm7.6 0v.4h.548l-.167-.5222zm-11.45-35.7.381-.12216-.089-.277842h-.292zm-6.4 0v-.400002h-.292l-.089.277842zm-11.45 35.7-.381-.1222-.167.5222h.548zm7.6 0v.4h.309l.078-.299zm1.8-6.9v-.4h-.309l-.078.299zm9.05-5.6v.4h.52l-.133-.5024zm-7.55 0-.387-.1011-.131.5011h.518zm3.75-14.35.387-.1024-.39-1.46987-.384 1.47117zm4.863 20.051 1.8 6.9.774-.202-1.8-6.9zm2.187 7.199h7.6v-.8h-7.6zm7.981-.5222-11.45-35.69996-.762.24432 11.45 35.70004zm-11.831-35.977802h-6.4v.800002h6.4zm-6.781.277842-11.45 35.69996.762.2444 11.45-35.70004zm-11.069 36.22216h7.6v-.8h-7.6zm7.987-.299 1.8-6.9-.774-.202-1.8 6.9zm1.413-6.601h10.5v-.8h-10.5zm9.05-6.4h-7.55v.8h7.55zm-7.163.5011 3.75-14.35-.774-.2022-3.75 14.35zm2.976-14.3487 3.8 14.35.774-.2048-3.8-14.35zm17.334 26.7476h-.4v.4h.4zm6.75 0v.4h.4v-.4zm0-21.4.372-.1467-.772.1467zm5.4 13.7-.372.1467.1.2533h.272zm4.5 0v.4h.273l.099-.2533zm5.4-13.7h.4l-.772-.1467zm0 21.4h-.4v.4h.4zm6.75 0v.4h.4v-.4zm0-35.7h.4v-.400002h-.4zm-6.55 0v-.400002h-.269l-.101.249292zm-7.85 19.3-.37.1507.37.911.371-.911zm-7.85-19.3.371-.15071-.102-.249292h-.269zm-6.55 0v-.400002h-.4v.400002zm0 36.1h6.75v-.8h-6.75zm7.15-.4v-21.4h-.8v21.4zm-.772-21.2533 5.4 13.7.744-.2934-5.4-13.7zm5.772 13.9533h4.5v-.8h-4.5zm4.872-.2533 5.4-13.7-.744-.2934-5.4 13.7zm4.628-13.8467v21.4h.8v-21.4zm.4 21.8h6.75v-.8h-6.75zm7.15-.4v-35.7h-.8v35.7zm-.4-36.100002h-6.55v.800002h6.55zm-6.92.249292-7.85 19.30001.741.3014 7.85-19.3zm-7.109 19.30001-7.85-19.30001-.741.30141 7.85 19.3zm-8.221-19.549302h-6.55v.800002h6.55zm-6.95.400002v35.7h.8v-35.7z" fill="#d0f4e3"/></g></svg>