<svg fill="none" height="42" viewBox="0 0 129 42" width="129" xmlns="http://www.w3.org/2000/svg" xmlns:xlink="http://www.w3.org/1999/xlink"><linearGradient id="a" gradientUnits="userSpaceOnUse" x1="64" x2="64" y1="4.03846" y2="37.2857"><stop offset="0" stop-color="#2dc985"/><stop offset="1" stop-color="#76edc2"/></linearGradient><path d="m3.21875 34 3.10937-17.6719-2.48437 1.25-1.51563-3.5312 6.57813-2.8907h3.07815l-4.03128 22.8438zm10.93745-8.4219 1.3438-7.6562c.2604-1.4688.5312-2.5469.8125-3.2344.6042-1.4896 1.474-2.5469 2.6094-3.1719.875-.4791 2.0156-.7187 3.4219-.7187 2.0208 0 3.4427.5 4.2656 1.5.6979.8437 1.0468 2.0416 1.0468 3.5937 0 .8854-.1406 2.1146-.4218 3.6875l-1.3438 7.6563c-.2604 1.4687-.5312 2.5468-.8125 3.2344-.6041 1.4791-1.4739 2.5364-2.6093 3.1718-.875.4792-2.0157.7188-3.4219.7188-2.0104 0-3.4323-.5-4.2657-1.5-.6874-.8438-1.0312-2.0313-1.0312-3.5625 0-.9688.1354-2.2084.4062-3.7188zm7.3438.4375 1.2031-6.875c.2917-1.6354.4375-2.6979.4375-3.1875 0-.9166-.3437-1.375-1.0312-1.375-.5729 0-1.0052.2969-1.2969.8907-.2813.5833-.5885 1.8072-.9219 3.6718l-1.2031 6.875c-.2813 1.5729-.4219 2.6302-.4219 3.1719 0 .9271.3386 1.3906 1.0156 1.3906.5834 0 1.0157-.2916 1.2969-.875.2813-.5937.5886-1.8229.9219-3.6875zm6.0938-.4375 1.3437-7.6562c.2604-1.4688.5313-2.5469.8125-3.2344.6042-1.4896 1.474-2.5469 2.6094-3.1719.875-.4791 2.0156-.7187 3.4218-.7187 2.0209 0 3.4428.5 4.2657 1.5.6979.8437 1.0469 2.0416 1.0469 3.5937 0 .8854-.1407 2.1146-.4219 3.6875l-1.3438 7.6563c-.2604 1.4687-.5312 2.5468-.8125 3.2344-.6041 1.4791-1.4739 2.5364-2.6094 3.1718-.875.4792-2.0156.7188-3.4218.7188-2.0104 0-3.4323-.5-4.2656-1.5-.6876-.8438-1.0313-2.0313-1.0313-3.5625 0-.9688.1354-2.2084.4063-3.7188zm7.3437.4375 1.2031-6.875c.2917-1.6354.4375-2.6979.4375-3.1875 0-.9166-.3437-1.375-1.0312-1.375-.5729 0-1.0052.2969-1.2969.8907-.2812.5833-.5885 1.8072-.9219 3.6718l-1.2031 6.875c-.2812 1.5729-.4219 2.6302-.4219 3.1719 0 .9271.3386 1.3906 1.0157 1.3906.5833 0 1.0156-.2916 1.2968-.875.2813-.5937.5886-1.8229.9219-3.6875zm3.3906 14 3.0313-10.3281h4.9062l-3.8437 10.3281zm10.2344-14.4375 1.3437-7.6562c.2605-1.4688.5313-2.5469.8126-3.2344.6041-1.4896 1.4739-2.5469 2.6093-3.1719.875-.4791 2.0157-.7187 3.4219-.7187 2.0208 0 3.4427.5 4.2656 1.5.6979.8437 1.0469 2.0416 1.0469 3.5937 0 .8854-.1406 2.1146-.4219 3.6875l-1.3437 7.6563c-.2604 1.4687-.5313 2.5468-.8125 3.2344-.6042 1.4791-1.474 2.5364-2.6094 3.1718-.875.4792-2.0156.7188-3.4219.7188-2.0104 0-3.4323-.5-4.2656-1.5-.6875-.8438-1.0313-2.0313-1.0313-3.5625 0-.9688.1355-2.2084.4063-3.7188zm7.3437.4375 1.2032-6.875c.2916-1.6354.4375-2.6979.4375-3.1875 0-.9166-.3438-1.375-1.0313-1.375-.5729 0-1.0052.2969-1.2968.8907-.2813.5833-.5886 1.8072-.9219 3.6718l-1.2031 6.875c-.2813 1.5729-.4219 2.6302-.4219 3.1719 0 .9271.3385 1.3906 1.0156 1.3906.5833 0 1.0156-.2916 1.2969-.875.2812-.5937.5885-1.8229.9218-3.6875zm6.0938-.4375 1.3438-7.6562c.2604-1.4688.5312-2.5469.8124-3.2344.6042-1.4896 1.474-2.5469 2.6094-3.1719.875-.4791 2.0156-.7187 3.4219-.7187 2.0208 0 3.4427.5 4.2656 1.5.6979.8437 1.0469 2.0416 1.0469 3.5937 0 .8854-.1406 2.1146-.4219 3.6875l-1.3437 7.6563c-.2604 1.4687-.5313 2.5468-.8125 3.2344-.6042 1.4791-1.474 2.5364-2.6094 3.1718-.875.4792-2.0156.7188-3.4219.7188-2.0104 0-3.4323-.5-4.2656-1.5-.6875-.8438-1.0312-2.0313-1.0312-3.5625 0-.9688.1354-2.2084.4062-3.7188zm7.3438.4375 1.2031-6.875c.2916-1.6354.4375-2.6979.4375-3.1875 0-.9166-.3438-1.375-1.0313-1.375-.5729 0-1.0052.2969-1.2969.8907-.2812.5833-.5885 1.8072-.9218 3.6718l-1.2032 6.875c-.2812 1.5729-.4218 2.6302-.4218 3.1719 0 .9271.3385 1.3906 1.0156 1.3906.5833 0 1.0156-.2916 1.2969-.875.2812-.5937.5885-1.8229.9219-3.6875zm6.0937-.4375 1.3437-7.6562c.2605-1.4688.5313-2.5469.8126-3.2344.6041-1.4896 1.4739-2.5469 2.6093-3.1719.875-.4791 2.0157-.7187 3.4219-.7187 2.0208 0 3.4427.5 4.2656 1.5.6979.8437 1.0469 2.0416 1.0469 3.5937 0 .8854-.1406 2.1146-.4219 3.6875l-1.3437 7.6563c-.2604 1.4687-.5313 2.5468-.8125 3.2344-.6042 1.4791-1.474 2.5364-2.6094 3.1718-.875.4792-2.0156.7188-3.4219.7188-2.0104 0-3.4323-.5-4.2656-1.5-.6875-.8438-1.0313-2.0313-1.0313-3.5625 0-.9688.1355-2.2084.4063-3.7188zm7.3437.4375 1.2032-6.875c.2916-1.6354.4375-2.6979.4375-3.1875 0-.9166-.3438-1.375-1.0313-1.375-.5729 0-1.0052.2969-1.2968.8907-.2813.5833-.5886 1.8072-.9219 3.6718l-1.2031 6.875c-.2813 1.5729-.4219 2.6302-.4219 3.1719 0 .9271.3385 1.3906 1.0156 1.3906.5833 0 1.0156-.2916 1.2969-.875.2812-.5937.5885-1.8229.9218-3.6875zm12.8731-4.8652h2.6631l-1.5205 8.6572c-.1231.6856-.1846 1.1221-.1846 1.3096 0 .3398.0732.5859.2197.7383.1524.1465.3985.2197.7383.2197.3223 0 .5713-.0586.7471-.1758.1816-.1172.3398-.3281.4746-.6328.1113-.2461.2314-.7324.3603-1.459l1.5297-8.6572h2.663l-1.609 9.1318c-.152.8438-.287 1.4151-.404 1.7139-.287.7441-.741 1.2978-1.3623 1.6611-.6152.3633-1.4092.5449-2.3818.5449-.791 0-1.4209-.0791-1.8897-.2373-.4628-.1582-.8466-.4218-1.1513-.791-.3809-.4629-.5713-1.0634-.5713-1.8017 0-.4629.0791-1.1397.2373-2.0303zm7.3477 8.8857h2.435c-.041.3164-.062.5918-.062.8262 0 .4277.082.7383.246.9316.164.1875.431.2813.8.2813.609 0 1.034-.2783 1.274-.835.182-.4277.273-.8847.273-1.3711 0-.2695-.076-.4834-.229-.6416-.152-.164-.41-.3046-.773-.4218-.99-.3223-1.702-.7061-2.136-1.1514-.527-.5449-.791-1.2773-.791-2.1973 0-.5449.082-1.0986.246-1.6611s.384-1.04.659-1.4326c.639-.9141 1.6-1.3711 2.883-1.3711 1.201 0 2.083.3135 2.646.9404.486.5508.729 1.2569.729 2.1182 0 .2812-.032.5742-.097.8789h-2.443c.024-.3633.035-.6475.035-.8526 0-.6386-.263-.958-.791-.958-.439 0-.761.2461-.967.7383-.181.4278-.272.8496-.272 1.2656 0 .3165.097.5684.29.7559s.554.3779 1.081.5713c.902.3398 1.547.7178 1.934 1.1338.416.4336.624 1.0752.624 1.9248 0 .6328-.091 1.251-.273 1.8545-.176.5976-.413 1.084-.712 1.459-.334.4218-.712.7382-1.133.9492-.563.2871-1.278.4306-2.145.4306-1.16 0-2.039-.2783-2.637-.8349-.55-.5156-.826-1.2217-.826-2.1182 0-.3398.044-.7441.132-1.2129zm8.165 3.9639 2.268-12.8496h2.918c1.546 0 2.601.2139 3.164.6416.627.4687.94 1.1894.94 2.1621 0 .4277-.061.9961-.185 1.7051l-.843 4.7637c-.141.7851-.311 1.3798-.51 1.7841-.193.4043-.481.753-.861 1.0459-.358.2754-.774.4688-1.248.5801-.475.1113-1.12.167-1.934.167zm3.041-2.127h.8c.644 0 1.081-.1406 1.309-.4218.229-.2813.431-.9317.607-1.9512l.685-3.8496c.018-.1113.044-.3633.079-.7559.041-.3925.062-.6357.062-.7295 0-.5918-.407-.8877-1.222-.8877h-.808zm7.365 2.127 1.881-10.6348h-2.285l.387-2.2148h7.233l-.387 2.2148h-2.285l-1.881 10.6348z" fill="url(#a)"/></svg>