<svg width="27" height="26" viewBox="0 0 27 26" fill="none" xmlns="http://www.w3.org/2000/svg">
<g clip-path="url(#clip0_2054_3474)">
<circle cx="13.5" cy="13" r="13" fill="#F3F3F3" fill-opacity="0.12"/>
<path d="M17.3331 6.12605C17.3731 6.19813 17.4029 6.27544 17.4216 6.35574L17.8094 8.0133C17.8532 8.20082 17.8352 8.3974 17.758 8.57332C17.6809 8.74924 17.5488 8.89495 17.3818 8.9884L13.5624 11.124L14.7599 16.2426C14.9432 17.026 14.8171 17.8496 14.4081 18.5395C13.9991 19.2294 13.3393 19.7318 12.5678 19.9406L12.4653 19.9664C11.9942 20.0766 11.5035 20.0736 11.0331 19.9577C10.5626 19.8417 10.1256 19.6161 9.75735 19.299C9.38909 18.9819 9.09994 18.5823 8.91331 18.1324C8.72667 17.6826 8.64779 17.1952 8.68304 16.7097C8.7183 16.2241 8.8667 15.7541 9.11624 15.3376C9.36578 14.9211 9.70944 14.5699 10.1194 14.3123C10.5294 14.0547 10.9942 13.898 11.4762 13.8549C11.9582 13.8117 12.4439 13.8834 12.8939 14.064L11.6557 8.77371L11.6836 8.76719C11.6876 8.61341 11.7314 8.46344 11.8105 8.33205C11.8897 8.20065 12.0016 8.09235 12.1351 8.01779L16.1344 5.78094C16.3383 5.66695 16.5792 5.63927 16.804 5.70399C17.0288 5.76871 17.2191 5.92053 17.3331 6.12605Z" fill="white"/>
</g>
<defs>
<clipPath id="clip0_2054_3474">
<rect width="26" height="26" fill="white" transform="translate(0.5)"/>
</clipPath>
</defs>
</svg>
