<svg width="148" height="148" viewBox="0 0 148 148" fill="none" xmlns="http://www.w3.org/2000/svg">
<path d="M25.1534 111.838V106.69C25.1534 108.66 26.7313 110.662 30.0613 112.545C41.6946 119.162 70.3695 121.926 94.104 118.737C111.048 116.463 120.896 111.751 120.907 106.843V111.99C120.885 116.898 111.048 121.599 94.0931 123.885C70.3587 127.073 41.6837 124.298 30.0504 117.692C26.7204 115.799 25.1425 113.797 25.1534 111.838Z" fill="#313638" stroke="black" stroke-width="0.35" stroke-linecap="round" stroke-linejoin="round"/>
<path d="M112.343 98.7898C101.7 92.7392 75.4843 90.2036 53.774 93.131C32.0746 96.0475 23.1076 103.317 33.7505 109.367C44.3934 115.418 70.609 117.954 92.3193 115.026C114.019 112.11 122.986 104.84 112.343 98.7898Z" fill="#4C5154" stroke="black" stroke-width="0.35" stroke-linecap="round" stroke-linejoin="round"/>
<path d="M29.7132 101.032L33.424 98.8447C27.9829 102.055 27.6564 105.907 33.7396 109.368C44.3826 115.419 70.5982 117.954 92.3085 115.027C113.768 112.143 122.768 105.004 112.691 98.9971C113.921 99.7371 115.161 100.466 116.391 101.206C127.415 107.768 117.566 115.571 94.104 118.727C70.3696 121.915 41.6946 119.14 30.0614 112.535C23.4123 108.759 23.7605 104.547 29.7132 101.032Z" fill="#4C5154" stroke="black" stroke-width="0.35" stroke-linecap="round" stroke-linejoin="round"/>
<path d="M120.907 110.01V109.444C120.885 111.37 119.351 113.253 116.478 114.972C116.239 115.114 116.032 115.32 115.89 115.56C115.597 116.071 115.325 116.528 115.031 117.029C114.868 117.312 114.617 117.54 114.323 117.682C109.6 119.913 102.462 121.785 93.3205 122.96C93.0702 122.992 92.8199 122.916 92.6349 122.753L91.797 122.013C91.514 121.763 91.144 121.643 90.774 121.687C78.9993 122.971 66.2996 122.873 55.2105 121.621C54.9058 121.589 54.6011 121.687 54.3617 121.893L53.5455 122.622C53.3061 122.84 52.9796 122.938 52.664 122.895C44.1214 121.763 36.7105 119.935 31.6828 117.519C31.4325 117.399 31.2367 117.214 31.1061 116.975C30.8122 116.474 30.4749 115.875 30.2355 115.484C30.1702 115.364 30.0614 115.19 29.909 115.048C29.7131 114.874 29.4737 114.744 29.4193 114.711C27.7217 113.666 26.5572 112.589 25.8717 111.512C25.5778 111.033 25.3711 110.565 25.2622 110.086C25.197 109.803 25.1643 109.52 25.1643 109.248V112.513C25.1643 112.73 25.197 112.992 25.2514 113.209C25.2514 113.22 25.2514 113.242 25.2622 113.253C25.3167 113.481 25.382 113.71 25.4799 113.938C25.4799 113.938 25.4908 113.96 25.4908 113.971C25.5887 114.2 25.7084 114.439 25.8499 114.667C25.8499 114.678 25.8717 114.7 25.8825 114.711C26.024 114.94 26.1872 115.168 26.3831 115.397C26.4158 115.429 26.4484 115.462 26.4811 115.495C26.6661 115.701 26.8511 115.908 27.0687 116.115C27.134 116.18 27.2102 116.235 27.2864 116.3C27.4822 116.474 27.6781 116.659 27.9067 116.833C28.0481 116.942 28.2114 117.051 28.3637 117.16C28.5378 117.29 28.7011 117.421 28.897 117.54C29.2561 117.78 29.637 118.008 30.0505 118.248C35.1217 121.132 43.4358 123.275 53.1537 124.527C54.6664 124.723 56.2117 124.897 57.7896 125.038C57.8331 125.038 57.8767 125.038 57.9202 125.049C59.4437 125.191 60.989 125.31 62.5561 125.419C62.654 125.419 62.752 125.43 62.839 125.441C64.3734 125.539 65.9296 125.615 67.4967 125.67C67.5946 125.67 67.6817 125.67 67.7796 125.67C69.3902 125.724 71.0117 125.757 72.6331 125.757C72.6658 125.757 72.6984 125.757 72.7311 125.757C79.9025 125.778 87.2046 125.365 94.0822 124.44C103.136 123.221 110.166 121.317 114.748 119.053C115.727 118.563 116.598 118.063 117.349 117.551C117.37 117.54 117.381 117.53 117.403 117.519C117.751 117.279 118.078 117.029 118.383 116.779C118.415 116.757 118.448 116.724 118.47 116.702C118.753 116.463 119.014 116.213 119.253 115.973C119.286 115.941 119.318 115.908 119.34 115.875C119.569 115.636 119.765 115.386 119.95 115.146C119.971 115.114 119.993 115.081 120.026 115.037C120.2 114.787 120.341 114.537 120.461 114.297C120.472 114.265 120.494 114.232 120.505 114.2C120.624 113.949 120.711 113.688 120.777 113.427C120.777 113.405 120.777 113.383 120.788 113.362C120.842 113.09 120.885 112.828 120.885 112.556V111.664V110.01H120.907Z" fill="#1D2022" stroke="black" stroke-width="0.35" stroke-linecap="round" stroke-linejoin="round"/>
<path d="M18.6784 94.5568C16.2407 89.268 39.0719 73.5212 69.6948 59.3851C100.307 45.2489 127.11 38.0774 129.548 43.3662" stroke="#969696" stroke-width="0.35" stroke-linecap="round" stroke-linejoin="round"/>
<path d="M35.1434 79.8873C36.0569 79.8873 36.7975 79.1468 36.7975 78.2332C36.7975 77.3197 36.0569 76.5791 35.1434 76.5791C34.2298 76.5791 33.4893 77.3197 33.4893 78.2332C33.4893 79.1468 34.2298 79.8873 35.1434 79.8873Z" fill="#25D27F"/>
<g opacity="0.66">
<path d="M59.8357 115.647L61.2722 114.134C61.4789 113.917 61.3374 113.558 61.0436 113.525C52.4248 112.665 44.9377 110.913 40.5957 108.443C40.4433 108.356 40.3019 108.269 40.1604 108.182C39.6054 107.844 38.9524 107.736 38.3104 107.844L32.8257 108.813" stroke="#313638" stroke-width="0.35" stroke-linecap="round" stroke-linejoin="round"/>
<path d="M110.156 99.0833C109.655 98.8004 109.1 98.5174 108.523 98.2454C108.414 98.191 108.284 98.1692 108.153 98.191L105.128 98.5392C104.965 98.561 104.845 98.7786 105.019 98.8657C105.52 99.0942 105.988 99.3445 106.423 99.5839C110.362 101.826 111.135 104.252 109.242 106.494C109.046 106.734 109.176 107.093 109.481 107.136L112.18 107.506C112.387 107.539 112.593 107.463 112.746 107.321C115.488 104.688 114.846 101.76 110.145 99.0942L110.156 99.0833Z" fill="#313638"/>
<path d="M56.0813 94.5894C55.7005 94.4153 54.5687 93.9147 54.5687 93.9147C54.4272 93.8494 54.2749 93.8385 54.1334 93.8494C39.9863 95.8517 31.781 99.8347 31.7593 103.992C31.7593 104.307 32.0096 104.568 32.3252 104.547L35.2743 104.373C35.5355 104.362 35.764 104.155 35.7749 103.894C35.9272 100.172 43.2946 96.6244 55.9507 94.8397C56.1357 94.8179 56.3425 94.6982 56.0813 94.5785V94.5894Z" fill="#313638"/>
<path d="M100.536 100.509C97.1079 98.5615 91.3511 97.1359 84.6694 96.3633L73.3191 102.229L86.1167 111.305C86.5847 111.642 87.1723 111.784 87.7491 111.697C102.049 109.553 107.784 104.634 100.547 100.52L100.536 100.509Z" stroke="#313638" stroke-width="0.35" stroke-linecap="round" stroke-linejoin="round"/>
</g>
<path d="M51.2927 99.3119C52.6203 98.8657 53.1318 98.7133 54.0568 98.4521C52.6094 98.9854 50.988 99.4207 49.9868 100.65C49.3012 101.488 49.2142 102.5 49.8562 103.393C50.3568 104.078 51.0859 104.579 51.815 104.992C57.5609 108.257 71.7189 109.628 83.45 108.05C95.1703 106.472 100.013 102.544 94.2671 99.2792C94.2671 99.2792 96.7374 100.215 97.5427 100.607C99.5777 101.565 100.47 102.86 100.416 104.013C100.296 106.788 94.6806 109.443 85.0824 110.727C71.5012 112.556 55.1015 110.967 48.4415 107.18C47.3642 106.57 46.0909 105.7 45.7318 104.437C45.4271 103.382 45.9603 102.381 46.7439 101.706C47.658 100.912 49.7039 99.8451 51.2818 99.3119H51.2927Z" fill="#1D2022" stroke="black" stroke-width="0.35" stroke-linecap="round" stroke-linejoin="round"/>
<path d="M96.5307 100.313C102.897 103.926 97.5319 108.268 84.5601 110.02C71.5883 111.761 55.9177 110.249 49.5516 106.636C43.1854 103.023 48.5504 98.6807 61.5221 96.9287C74.4939 95.1875 90.1645 96.7002 96.5307 100.313Z" fill="#4C5154" stroke="black" stroke-width="0.35" stroke-linecap="round" stroke-linejoin="round"/>
<path opacity="0.4" d="M62.3928 73.1729C56.1246 75.9914 46.8311 85.0999 46.8311 97.027C46.8311 98.3655 46.8528 103.535 46.8746 103.524C46.9181 104.568 47.7778 105.635 49.5516 106.636C55.9178 110.249 71.5884 111.762 84.5602 110.021C93.8863 108.769 99.2731 106.168 99.2078 103.469C99.2078 103.469 99.2078 103.469 99.2078 103.448V97.1032C99.2078 85.187 90.1211 75.9914 83.8528 73.1729C82.2966 72.4764 79.1408 71.2032 79.1408 69.0049C79.1408 66.8067 82.1334 65.9796 83.6896 65.2832C89.9578 62.4646 98.5331 53.3561 98.5331 43.2573V38.2949H47.7234V43.2573C47.7234 53.367 56.2987 62.4646 62.5669 65.2832C64.1231 65.9796 67.1158 66.8502 67.1158 69.0049C67.1158 71.1596 63.9599 72.4655 62.4037 73.1729H62.3928Z" fill="#121212"/>
<path d="M96.5307 100.313C102.897 103.926 97.5319 108.268 84.5601 110.02C71.5883 111.761 55.9177 110.249 49.5516 106.636C43.1854 103.023 48.5504 98.6807 61.5221 96.9287C74.4939 95.1875 90.1645 96.7002 96.5307 100.313Z" fill="#25D27F"/>
<path d="M98.0324 101.587C98.0324 101.587 97.9562 101.511 97.9127 101.467L74.4394 105.526L95.2138 99.8133C95.1377 99.7806 95.0724 99.748 94.9962 99.7153L74.2327 105.429L90.9371 98.355C90.8391 98.3333 90.7412 98.3006 90.6324 98.2789L73.9497 105.341L85.6047 97.2668C85.485 97.245 85.3544 97.2341 85.2347 97.2124L73.5906 105.276L79.5759 96.5921C79.4453 96.5921 79.3147 96.5703 79.1841 96.5594L73.1988 105.244V96.3418C73.0574 96.3418 72.9268 96.3418 72.7853 96.3418V105.233L66.7891 96.5268C66.6585 96.5268 66.5171 96.5486 66.3865 96.5486L72.3827 105.254L60.7059 97.158C60.5862 97.1797 60.4556 97.1906 60.3359 97.2124L72.0235 105.309L55.2756 98.2244C55.1777 98.2462 55.0688 98.2789 54.9709 98.3006L71.7297 105.396L50.9444 99.6827C50.8683 99.7153 50.7921 99.748 50.7268 99.7806L71.5338 105.505L48.0933 101.456C48.0933 101.456 48.0171 101.533 47.9844 101.576L71.4359 105.624L47.0703 103.415C47.0703 103.415 47.0703 103.492 47.0703 103.535L71.4359 105.744L48.0497 105.407C48.0497 105.407 48.1259 105.483 48.1694 105.526L71.5338 105.864L50.9335 107.224C51.0097 107.257 51.0968 107.289 51.173 107.322L71.7406 105.962L55.3518 108.704C55.4606 108.726 55.5585 108.759 55.6674 108.791L72.0453 106.049L60.7494 109.782C60.8691 109.803 60.9997 109.814 61.1303 109.836L72.4044 106.103L66.6694 110.424C66.8 110.424 66.9306 110.445 67.0612 110.456L72.8071 106.125V110.652C72.9485 110.652 73.0791 110.652 73.2206 110.652V106.125L78.9883 110.478C79.1188 110.478 79.2603 110.467 79.3909 110.456L73.6124 106.103L85.0171 109.879C85.1477 109.858 85.2674 109.847 85.398 109.825L73.9715 106.038L90.5671 108.824C90.6759 108.802 90.7847 108.769 90.8935 108.748L74.2544 105.962L95.0941 107.344C95.1703 107.311 95.2465 107.279 95.3227 107.235L74.4612 105.853L98.0541 105.516C98.0541 105.516 98.1303 105.439 98.163 105.396L74.57 105.733L99.0662 103.513C99.0662 103.513 99.0662 103.437 99.0662 103.394L74.5809 105.614L98.065 101.554L98.0324 101.587Z" fill="#15A05A"/>
<path d="M88.0643 103.763C92.1343 106.07 88.7064 108.845 80.414 109.966C72.1217 111.076 62.0991 110.107 58.0399 107.8C53.9699 105.493 57.3979 102.718 65.6902 101.597C73.9826 100.476 84.0052 101.456 88.0643 103.763Z" fill="#10A055"/>
<path d="M82.7318 104.623C85.3545 106.114 83.1454 107.91 77.7913 108.628C72.4371 109.346 65.973 108.726 63.3504 107.235C60.7277 105.744 62.9368 103.949 68.291 103.23C73.6451 102.512 80.1092 103.132 82.7318 104.623Z" fill="#25D27F"/>
<path d="M77.0623 61.1153C78.1832 62.2362 81.2193 61.0065 83.8529 58.3839C86.4864 55.7612 87.7052 52.7142 86.5843 51.5933L85.0282 50.0371L75.5061 59.5592L77.0623 61.1153Z" fill="#313638" stroke="black" stroke-width="0.35" stroke-linecap="round" stroke-linejoin="round"/>
<path d="M82.3071 56.8271C84.9377 54.1965 86.1608 51.1544 85.0388 50.0324C83.9169 48.9105 80.8748 50.1335 78.2442 52.7641C75.6135 55.3948 74.3905 58.4369 75.5124 59.5588C76.6344 60.6808 79.6765 59.4577 82.3071 56.8271Z" fill="#4C5154" stroke="black" stroke-width="0.35" stroke-linecap="round" stroke-linejoin="round"/>
<path d="M81.453 55.9731C82.9829 54.4432 83.6961 52.6758 83.0458 52.0256C82.3956 51.3754 80.6283 52.0885 79.0983 53.6185C77.5684 55.1484 76.8552 56.9158 77.5055 57.566C78.1557 58.2162 79.923 57.5031 81.453 55.9731Z" fill="#1D2022"/>
<path d="M74.0804 90.5739C73.3513 91.9777 75.4407 94.5024 78.749 96.211C82.0572 97.9195 85.3219 98.1589 86.051 96.7442L87.0631 94.7963L75.0925 88.626L74.0804 90.5739Z" fill="#313638" stroke="black" stroke-width="0.35" stroke-linecap="round" stroke-linejoin="round"/>
<path d="M87.0612 94.7885C87.7884 93.3783 85.6975 90.8528 82.391 89.1476C79.0845 87.4425 75.8145 87.2034 75.0873 88.6136C74.3601 90.0238 76.451 92.5493 79.7575 94.2544C83.064 95.9596 86.334 96.1987 87.0612 94.7885Z" fill="#4C5154" stroke="black" stroke-width="0.35" stroke-linecap="round" stroke-linejoin="round"/>
<path d="M85.0979 93.7768C85.5855 92.8313 84.1793 91.1359 81.9572 89.9899C79.7351 88.844 77.5384 88.6814 77.0508 89.6269C76.5632 90.5724 77.9694 92.2678 80.1915 93.4138C82.4137 94.5597 84.6103 94.7223 85.0979 93.7768Z" fill="#1D2022"/>
<path d="M57.7896 91.0207C58.5078 92.4354 61.7726 92.2178 65.0917 90.531C68.4108 88.8442 70.5111 86.3413 69.7928 84.9266L68.8026 82.9678L56.7993 89.0619L57.7896 91.0207Z" fill="#313638" stroke="black" stroke-width="0.35" stroke-linecap="round" stroke-linejoin="round"/>
<path d="M64.0974 88.5745C67.4146 86.8901 69.5213 84.3778 68.8029 82.9631C68.0846 81.5483 64.8131 81.7669 61.496 83.4512C58.1788 85.1355 56.0721 87.6479 56.7905 89.0626C57.5088 90.4774 60.7803 90.2588 64.0974 88.5745Z" fill="#4C5154" stroke="black" stroke-width="0.35" stroke-linecap="round" stroke-linejoin="round"/>
<path d="M63.6293 87.6528C65.7514 86.5753 67.099 84.9676 66.6391 84.0619C66.1793 83.1563 64.0861 83.2956 61.964 84.3732C59.8419 85.4507 58.4944 87.0584 58.9542 87.964C59.4141 88.8697 61.5072 88.7304 63.6293 87.6528Z" fill="#1D2022"/>
<path d="M61.1085 53.5961C60.6188 54.6517 62.2403 56.4364 64.7214 57.579C67.2026 58.7217 69.6076 58.787 70.0973 57.7314L70.772 56.2622L61.7832 52.127L61.1085 53.5961Z" fill="#313638" stroke="black" stroke-width="0.35" stroke-linecap="round" stroke-linejoin="round"/>
<path d="M70.7751 56.2622C71.262 55.2028 69.6467 53.4203 67.1674 52.281C64.688 51.1416 62.2834 51.0769 61.7966 52.1364C61.3097 53.1958 62.925 54.9783 65.4043 56.1176C67.8837 57.257 70.2883 57.3217 70.7751 56.2622Z" fill="#4C5154" stroke="black" stroke-width="0.35" stroke-linecap="round" stroke-linejoin="round"/>
<path d="M69.0447 55.4672C69.3434 54.8173 68.3503 53.7229 66.8266 53.0227C65.303 52.3226 63.8257 52.2818 63.5271 52.9317C63.2284 53.5816 64.2215 54.676 65.7452 55.3762C67.2688 56.0763 68.7461 56.1171 69.0447 55.4672Z" fill="#1D2022"/>
<path d="M62.3928 73.1729C56.1246 75.9914 46.8311 85.0999 46.8311 97.027C46.8311 98.3655 46.8528 103.535 46.8746 103.524C46.9181 104.568 47.7778 105.635 49.5516 106.636C55.9178 110.249 71.5884 111.762 84.5602 110.021C93.8863 108.769 99.2731 106.168 99.2078 103.469C99.2078 103.469 99.2078 103.469 99.2078 103.448V97.1032C99.2078 85.187 90.1211 75.9914 83.8528 73.1729C82.2966 72.4764 79.1408 71.2032 79.1408 69.0049C79.1408 66.8067 82.1334 65.9796 83.6896 65.2832C89.9578 62.4646 98.5331 53.3561 98.5331 43.2573V38.2949H47.7234V43.2573C47.7234 53.367 56.2987 62.4646 62.5669 65.2832C64.1231 65.9796 67.1158 66.8502 67.1158 69.0049C67.1158 71.1596 63.9599 72.4655 62.4037 73.1729H62.3928Z" fill="url(#paint0_linear_1878_24668)" stroke="#25D27F" stroke-width="0.35" stroke-linecap="round" stroke-linejoin="round"/>
<path opacity="0.4" d="M83.7332 73.1729C82.177 72.4764 79.0211 71.2032 79.0211 69.0049C79.0211 66.8067 82.0138 65.9796 83.5699 65.2832C89.8382 62.4646 98.4135 53.3561 98.4135 43.2573V38.2949H93.7232V39.6552C93.7232 41.3637 93.6143 42.9961 93.4185 44.5523C93.1899 46.2826 92.8526 47.9258 92.4064 49.4711C91.8188 51.5279 91.0352 53.4214 90.1102 55.1735C88.097 58.9496 85.3764 62.0293 82.2641 64.467C81.1323 65.3484 78.8035 66.687 78.8035 69.1573C78.8035 71.6276 81.3391 72.9987 82.4382 73.9237C87.4005 78.0917 92.6132 85.3393 93.9408 96.0584C94.1476 97.7343 94.2564 99.4864 94.2564 101.326V107.626C96.9661 106.593 98.5223 105.396 98.9902 104.122C98.9902 104.079 99.0991 103.905 99.0991 103.426V97.0814C99.0991 85.1652 90.0123 75.9696 83.7441 73.1511L83.7332 73.1729Z" fill="#25D27F"/>
<g opacity="0.6">
<path d="M59.6398 52.4206C59.1283 50.6903 58.7148 48.8403 58.421 46.8488C56.8648 46.6529 55.3848 46.4135 53.981 46.1523C54.1986 48.1003 54.6339 49.9829 55.1998 51.7676C56.6145 52.0179 58.0945 52.2356 59.6507 52.4206H59.6398Z" fill="#25D27F"/>
<path d="M64.1343 73.1729C59.727 75.9914 53.1758 85.1 53.1758 97.027V108.04C54.3837 108.41 55.9073 108.878 57.4199 109.139V101.238C57.4199 87.592 62.034 78.2441 65.8537 73.9238C66.6481 73.0314 68.4111 71.6711 68.4111 69.1573C68.4111 66.6435 66.7678 65.3267 65.9952 64.4017C63.7425 61.7138 61.7184 58.3838 60.2602 54.2811C58.7367 54.1179 57.2675 53.9111 55.8746 53.6826C58.0184 59.1782 61.4573 63.4876 64.254 65.2832C65.3531 65.9797 67.4643 66.8503 67.4643 69.005C67.4643 71.1597 65.2443 72.4656 64.1452 73.1729H64.1343Z" fill="#25D27F"/>
</g>
<path d="M53.7853 23.0596H50.1941V25.7802H53.7853V23.0596Z" fill="#4C5154" stroke="black" stroke-width="0.35" stroke-linecap="round" stroke-linejoin="round"/>
<path d="M96.2267 23.0703V26.3677L92.1023 24.5177L96.2267 23.0703Z" fill="#313638" stroke="black" stroke-width="0.35" stroke-linecap="round" stroke-linejoin="round"/>
<path d="M93.97 36.2301C93.9761 33.0448 84.6752 30.4446 73.1958 30.4226C61.7165 30.4006 52.4056 32.965 52.3995 36.1503C52.3934 39.3357 61.6943 41.9358 73.1737 41.9579C84.6531 41.9799 93.9639 39.4155 93.97 36.2301Z" fill="#25D27F" stroke="black" stroke-width="0.35" stroke-linecap="round" stroke-linejoin="round"/>
<path d="M73.2103 28.9141C68.4112 28.9141 39.1812 32.3202 39.1812 32.3202V38.2729C39.1812 38.3382 39.1812 38.3817 39.2356 38.4361C39.5947 38.8497 40.0626 39.2523 40.6176 39.6549C40.9332 39.8835 41.7059 40.0249 42.5764 40.0249C42.7723 40.0249 42.9791 40.0249 43.175 40.0032L46.9076 39.6985C51.0647 42.0599 59.1829 43.7794 68.8464 44.1929L68.9553 45.2811C68.9879 45.5858 69.8367 45.8361 70.925 45.847C71.7956 45.8579 72.5247 45.8688 73.2103 45.8688C73.8959 45.8688 74.625 45.8688 75.4956 45.847C76.5838 45.8252 77.4326 45.5858 77.4653 45.2811L77.5741 44.1929C87.2376 43.7902 95.3559 42.0708 99.5129 39.6985L103.246 40.0032C103.441 40.0141 103.637 40.0249 103.844 40.0249C104.715 40.0249 105.487 39.8726 105.803 39.6549C106.358 39.2523 106.826 38.8497 107.185 38.4361C107.229 38.3926 107.25 38.3382 107.25 38.2947V32.3202C107.25 32.3202 78.0203 28.9141 73.2103 28.9141Z" fill="#4C5154" stroke="black" stroke-width="0.35" stroke-linecap="round" stroke-linejoin="round"/>
<path d="M76.8018 45.6844C77.1935 45.5756 77.4438 45.4341 77.4656 45.2709L77.5744 44.1826C87.2379 43.78 95.3562 42.0606 99.5132 39.6882H99.5241V32.582L76.8018 34.9109" fill="#313638"/>
<path d="M76.8018 45.6844C77.1935 45.5756 77.4438 45.4341 77.4656 45.2709L77.5744 44.1826C87.2379 43.78 95.3562 42.0606 99.5132 39.6882H99.5241V32.582L76.8018 34.9109" stroke="black" stroke-width="0.35" stroke-linecap="round" stroke-linejoin="round"/>
<path d="M105.215 39.8728C105.465 39.8075 105.672 39.7422 105.803 39.6443C106.358 39.2416 106.826 38.839 107.185 38.4255C107.228 38.3819 107.25 38.3275 107.25 38.284V32.3096L105.215 32.3857" fill="#313638"/>
<path d="M105.215 39.8728C105.465 39.8075 105.672 39.7422 105.803 39.6443C106.358 39.2416 106.826 38.839 107.185 38.4255C107.228 38.3819 107.25 38.3275 107.25 38.284V32.3096L105.215 32.3857" stroke="black" stroke-width="0.35" stroke-linecap="round" stroke-linejoin="round"/>
<path d="M68.8467 44.1819V37.3369" stroke="black" stroke-width="0.35" stroke-linecap="round" stroke-linejoin="round"/>
<path d="M77.6067 44.1606V37.3047" stroke="black" stroke-width="0.35" stroke-linecap="round" stroke-linejoin="round"/>
<path d="M41.9346 39.9921C42.1413 40.0138 42.359 40.0247 42.5875 40.0247C42.7834 40.0247 42.9902 40.0247 43.186 40.003L46.8425 39.6983V33.0056L41.9346 32.5703" fill="#313638"/>
<path d="M41.9346 39.9921C42.1413 40.0138 42.359 40.0247 42.5875 40.0247C42.7834 40.0247 42.9902 40.0247 43.186 40.003L46.8425 39.6983V33.0056L41.9346 32.5703" stroke="black" stroke-width="0.35" stroke-linecap="round" stroke-linejoin="round"/>
<path d="M105.846 31.7655L102.135 31.3955C102.364 30.982 102.484 30.5576 102.484 30.1332C102.484 27.837 99.0993 25.7694 93.6472 24.2894L95.8564 23.3861C96.4767 23.1358 96.3025 22.7985 95.4537 22.6026C94.3002 22.3414 93.0487 22.0802 91.7102 21.8517C91.3728 21.7973 90.992 21.7646 90.5893 21.7646C89.9255 21.7646 89.327 21.8517 88.9243 21.9932L86.5302 22.8638C82.5364 22.2979 78.0093 21.9714 73.2102 21.9714C68.4111 21.9714 63.884 22.2979 59.8902 22.8638L57.4961 21.9932C57.0934 21.8517 56.484 21.7646 55.8311 21.7646C55.4393 21.7646 55.0475 21.7973 54.7102 21.8517C53.3825 22.0802 52.1202 22.3305 50.9667 22.6026C50.1178 22.7985 49.9437 23.1358 50.564 23.3861L52.7731 24.2894C47.3211 25.7694 43.9367 27.8479 43.9367 30.1332C43.9367 30.5576 44.0564 30.982 44.2849 31.3955L40.574 31.7655C39.5511 31.8635 38.9743 32.1682 39.2355 32.462C39.5946 32.8755 40.0625 33.2782 40.6175 33.6808C40.9331 33.9094 41.7058 34.0508 42.5764 34.0508C42.7722 34.0508 42.979 34.0508 43.1749 34.0291L46.9075 33.7244C51.0537 36.0858 59.1828 37.8052 68.8464 38.2188L68.9552 39.307C68.9878 39.6117 69.8367 39.862 70.9249 39.8729C71.7955 39.8838 72.5246 39.8946 73.2102 39.8946C73.8958 39.8946 74.6249 39.8946 75.4955 39.8729C76.5837 39.8511 77.4325 39.6117 77.4652 39.307L77.574 38.2188C87.2375 37.8161 95.3558 36.0967 99.5128 33.7244L103.245 34.0291C103.441 34.0399 103.637 34.0508 103.844 34.0508C104.715 34.0508 105.487 33.8985 105.803 33.6808C106.358 33.2782 106.826 32.8755 107.185 32.462C107.228 32.4185 107.25 32.3641 107.25 32.3205C107.25 32.0702 106.684 31.8526 105.857 31.7655H105.846Z" fill="#4C5154" stroke="black" stroke-width="0.35" stroke-linecap="round" stroke-linejoin="round"/>
<path d="M95.9729 30.1827C95.9796 26.6848 85.7827 23.8296 73.1974 23.8054C60.6122 23.7813 50.4044 26.5973 50.3977 30.0952C50.3909 33.5931 60.5879 36.4483 73.1731 36.4725C85.7583 36.4966 95.9662 33.6806 95.9729 30.1827Z" fill="#1D2022"/>
<path d="M93.6476 30.416C88.1085 27.271 74.4512 25.9433 63.1444 27.4668C56.8435 28.3157 52.5994 29.8718 51.0432 31.6239C51.4241 32.0592 51.9791 32.4836 52.7082 32.8971C58.2473 36.0421 71.9047 37.3698 83.2115 35.8463C89.5123 34.9974 93.7564 33.4413 95.3126 31.6892C94.9317 31.2539 94.3767 30.8295 93.6476 30.416Z" fill="#4C5154" stroke="black" stroke-width="0.35" stroke-linecap="round" stroke-linejoin="round"/>
<path d="M86.7374 31.5369C83.07 29.4475 74.0268 28.5769 66.5397 29.5889C59.0527 30.5901 55.9621 33.1039 59.6295 35.1825C59.6621 35.2042 59.7056 35.2151 59.7383 35.2369C66.3547 36.5863 75.3545 36.9128 83.2224 35.8572C84.4303 35.6939 85.5621 35.5089 86.6068 35.2913C88.6962 34.1595 88.903 32.7775 86.7374 31.5369Z" fill="#25D27F"/>
<path d="M84.7568 26.2803C88.4677 26.8897 91.6127 27.8038 93.6477 28.9682C94.6271 29.5232 95.3345 30.1 95.7589 30.9162" stroke="#4C5154" stroke-width="0.35" stroke-linecap="round" stroke-linejoin="round"/>
<path d="M50.575 30.9167C50.7273 30.4923 51.1844 29.9917 51.5108 29.7196C53.35 28.1526 57.3873 26.7923 63.1441 26.0196C68.7267 25.2688 74.8861 25.2143 80.3491 25.7258V24.1914" stroke="#4C5154" stroke-width="0.35" stroke-linecap="round" stroke-linejoin="round"/>
<path d="M82.5256 26.346C82.724 26.346 82.8847 26.1706 82.8847 25.9543C82.8847 25.7379 82.724 25.5625 82.5256 25.5625C82.3273 25.5625 82.1665 25.7379 82.1665 25.9543C82.1665 26.1706 82.3273 26.346 82.5256 26.346Z" fill="#4C5154"/>
<path d="M129.548 43.3555C131.986 48.6443 109.154 64.3911 78.5314 78.5272C47.9085 92.6634 21.127 99.8458 18.6785 94.5569" stroke="#969696" stroke-width="0.35" stroke-linecap="round" stroke-linejoin="round"/>
<path d="M118.383 58.5909C119.807 58.5909 120.962 57.4361 120.962 56.0117C120.962 54.5873 119.807 53.4326 118.383 53.4326C116.958 53.4326 115.803 54.5873 115.803 56.0117C115.803 57.4361 116.958 58.5909 118.383 58.5909Z" fill="#25D27F"/>
<path d="M95.9721 30.1827C95.9789 26.6848 85.7819 23.8296 73.1967 23.8054C60.6114 23.7813 50.4036 26.5973 50.3969 30.0952C50.3902 33.5931 60.5871 36.4483 73.1724 36.4725C85.7576 36.4966 95.9654 33.6806 95.9721 30.1827Z" stroke="black" stroke-width="0.35" stroke-linecap="round" stroke-linejoin="round"/>
<defs>
<linearGradient id="paint0_linear_1878_24668" x1="46.8419" y1="74.5223" x2="99.2187" y2="74.5223" gradientUnits="userSpaceOnUse">
<stop stop-color="#25D27F" stop-opacity="0.4"/>
<stop offset="0.37" stop-color="#25D27F" stop-opacity="0.2"/>
<stop offset="1" stop-color="#25D27F" stop-opacity="0.7"/>
</linearGradient>
</defs>
</svg>
