<svg width="20" height="20" viewBox="0 0 20 20" fill="none" xmlns="http://www.w3.org/2000/svg">
<path d="M7.90938 4.15332C7.90938 3.49058 8.44663 2.95332 9.10938 2.95332H10.8906C11.5534 2.95332 12.0906 3.49058 12.0906 4.15332V5.63359H7.90938V4.15332Z" stroke="black" stroke-width="1.6"/>
<path d="M1.63496 6.84082C1.63496 6.17808 2.17222 5.64082 2.83496 5.64082H17.165C17.8278 5.64082 18.365 6.17808 18.365 6.84082V15.8467C18.365 16.5094 17.8278 17.0467 17.165 17.0467H2.83496C2.17222 17.0467 1.63496 16.5094 1.63496 15.8467V6.84082Z" stroke="black" stroke-width="1.6"/>
<path d="M7.29862 11.7183C8.18977 11.7183 8.91218 10.9959 8.91218 10.1048C8.91218 9.21363 8.18977 8.49121 7.29862 8.49121C6.40747 8.49121 5.68506 9.21363 5.68506 10.1048C5.68506 10.9959 6.40747 11.7183 7.29862 11.7183Z" stroke="#01BC8D" stroke-width="1.5" stroke-linecap="round" stroke-linejoin="round"/>
<path d="M10.2095 14.1969C10.2095 12.8277 8.90633 11.7178 7.29883 11.7178C5.69133 11.7178 4.38818 12.8277 4.38818 14.1969" stroke="#01BC8D" stroke-width="1.5" stroke-linecap="round" stroke-linejoin="round"/>
<path d="M11.7856 9.37012L15.7483 9.37012" stroke="black" stroke-width="1.5" stroke-linecap="round" stroke-linejoin="round"/>
<path d="M13.0283 12.5498L15.7483 12.5498" stroke="black" stroke-width="1.5" stroke-linecap="round" stroke-linejoin="round"/>
</svg>
