<svg width="80" height="80" viewBox="0 0 80 80" fill="none" xmlns="http://www.w3.org/2000/svg">
<circle cx="40" cy="40" r="40" fill="#8C8C8C" fill-opacity="0.08"/>
<path d="M44.9432 31.057L40.9432 27.057C40.6932 26.8071 40.3541 26.6667 40.0005 26.6667C39.647 26.6667 39.3079 26.8071 39.0579 27.057L35.0579 31.057C34.815 31.3085 34.6806 31.6453 34.6836 31.9949C34.6867 32.3445 34.8269 32.6789 35.0741 32.9261C35.3213 33.1733 35.6557 33.3136 36.0053 33.3166C36.3549 33.3196 36.6917 33.1853 36.9432 32.9424L38.6672 31.2184V46.6664C38.6672 47.02 38.8077 47.3591 39.0577 47.6092C39.3078 47.8592 39.6469 47.9997 40.0005 47.9997C40.3542 47.9997 40.6933 47.8592 40.9434 47.6092C41.1934 47.3591 41.3339 47.02 41.3339 46.6664V31.2184L43.0579 32.9424C43.3093 33.1853 43.6461 33.3196 43.9957 33.3166C44.3453 33.3136 44.6798 33.1733 44.927 32.9261C45.1742 32.6789 45.3144 32.3445 45.3174 31.9949C45.3205 31.6453 45.1861 31.3085 44.9432 31.057Z" fill="#8C8C8C"/>
<path d="M48 36H41.3333V46.6667C41.3333 47.0203 41.1929 47.3594 40.9428 47.6095C40.6928 47.8595 40.3536 48 40 48C39.6464 48 39.3072 47.8595 39.0572 47.6095C38.8071 47.3594 38.6667 47.0203 38.6667 46.6667V36H32C30.9395 36.0011 29.9227 36.4228 29.1727 37.1727C28.4228 37.9227 28.0011 38.9395 28 40V49.3333C28.0011 50.3939 28.4228 51.4107 29.1727 52.1606C29.9227 52.9105 30.9395 53.3323 32 53.3333H48C49.0605 53.3323 50.0773 52.9105 50.8273 52.1606C51.5772 51.4107 51.9989 50.3939 52 49.3333V40C51.9989 38.9395 51.5772 37.9227 50.8273 37.1727C50.0773 36.4228 49.0605 36.0011 48 36Z" fill="#8C8C8C" fill-opacity="0.2"/>
</svg>
