<svg height="168" viewBox="0 0 161 168" width="161" xmlns="http://www.w3.org/2000/svg" xmlns:xlink="http://www.w3.org/1999/xlink"><linearGradient id="a" x1="50%" x2="50%" y1="0%" y2="100%"><stop offset="0" stop-color="#10141c"/><stop offset="1" stop-color="#db5e5e"/></linearGradient><linearGradient id="b" x1="50%" x2="50%" y1="0%" y2="100%"><stop offset="0" stop-color="#10141c"/><stop offset="1" stop-color="#24ae8f"/></linearGradient><linearGradient id="c" x1="50%" x2="50%" y1="0%" y2="100%"><stop offset="0" stop-color="#1b675a"/><stop offset="1" stop-color="#24ae8f"/></linearGradient><linearGradient id="d" x1="50%" x2="50%" y1="0%" y2="100%"><stop offset="0" stop-color="#914346"/><stop offset="1" stop-color="#db5e5e"/></linearGradient><filter id="e" height="115.4%" width="117.6%" x="-8.8%" y="-7.7%"><feOffset dx="0" dy="2" in="SourceAlpha" result="shadowOffsetOuter1"/><feGaussianBlur in="shadowOffsetOuter1" result="shadowBlurOuter1" stdDeviation="1"/><feColorMatrix in="shadowBlurOuter1" result="shadowMatrixOuter1" type="matrix" values="0 0 0 0 0   0 0 0 0 0   0 0 0 0 0  0 0 0 0.5 0"/><feMerge><feMergeNode in="shadowMatrixOuter1"/><feMergeNode in="SourceGraphic"/></feMerge></filter><g fill="none" fill-rule="evenodd"><ellipse cx="80.5" cy="87.5" fill="#161b23" rx="80.5" ry="80"/><circle cx="133" cy="48" fill="#db5e5e" opacity=".5" r="2"/><circle cx="72" cy="17" fill="#db5e5e" r="1"/><circle cx="3" cy="108" fill="#24ae8f" opacity=".5" r="2"/><circle cx="152" cy="77" fill="#24ae8f" r="1"/><g transform="translate(17)"><path d="m34.8735632 58v-26.1038306h-24.8735632c-5.5228475 0-10-4.4771525-10-10v-19.8961694" stroke="url(#a)" stroke-dasharray="2"/><g transform="matrix(-1 0 0 1 102 2)"><path d="m34.8735632 56v-26.1038306h-24.8735632c-5.5228475 0-10-4.4771525-10-10v-19.8961694" stroke="url(#b)" stroke-dasharray="2"/><path d="m34.5 55.5v-17" stroke="url(#c)" stroke-linecap="square" stroke-width="2"/></g><path d="m34.5 57.5v-17" stroke="url(#d)" stroke-linecap="square" stroke-width="2"/><path d="m50.5 57.5v-57" stroke="url(#b)" stroke-dasharray="2"/><g transform="translate(44 70)"><path d="m3 2h74v88h-74z" fill="#1e242d"/><rect fill="#1e242d" height="24" rx="4" width="75" x="4" y="3"/><rect fill="#1e242d" height="24" rx="4" width="75" x="4" y="31"/><rect fill="#1e242d" height="24" rx="4" width="75" x="4" y="61"/><rect fill="#0b0f15" height="24.266667" rx="4" width="75.126437" x=".873563" y="1.733333"/><rect fill="#2a303a" height="24.266667" rx="4" width="75.126437"/><ellipse cx="10.482759" cy="9.533333" fill="#0b0f15" rx="4.367816" ry="4.333333"/><ellipse cx="26.643678" cy="7.366667" fill="#10141c" rx="1" ry="1"/><ellipse cx="26.643678" cy="12.566667" fill="#10141c" opacity=".5" rx="1" ry="1"/><ellipse cx="31.011494" cy="9.1" fill="#10141c" rx="1" ry="1"/><ellipse cx="31.011494" cy="14.3" fill="#10141c" rx="1" ry="1"/><ellipse cx="36.689655" cy="7.8" fill="#db5e5e" rx="1" ry="1"/><ellipse cx="36.689655" cy="13" fill="#10141c" opacity=".5" rx="1" ry="1"/><ellipse cx="42.804598" cy="9.533333" fill="#10141c" rx="1" ry="1"/><ellipse cx="42.804598" cy="14.733333" fill="#10141c" rx="1" ry="1"/><ellipse cx="48.91954" cy="7.8" fill="#10141c" opacity=".5" rx="1" ry="1"/><ellipse cx="48.91954" cy="13" fill="#10141c" opacity=".5" rx="1" ry="1"/><ellipse cx="35.37931" cy="16.033333" fill="#10141c" opacity=".5" rx="1" ry="1"/><ellipse cx="55.471264" cy="4.766667" fill="#10141c" opacity=".5" rx="1" ry="1"/><ellipse cx="41.494253" cy="5.633333" fill="#10141c" opacity=".5" rx="1" ry="1"/><ellipse cx="31.885058" cy="5.633333" fill="#10141c" opacity=".5" rx="1" ry="1"/><ellipse cx="25.770115" cy="17.766667" fill="#10141c" opacity=".5" rx="1" ry="1"/><ellipse cx="48.045977" cy="18.2" fill="#10141c" opacity=".5" rx="1" ry="1"/><ellipse cx="64.206897" cy="8.233333" fill="#10141c" opacity=".5" rx="1" ry="1"/><ellipse cx="62.45977" cy="17.766667" fill="#10141c" opacity=".5" rx="1" ry="1"/><ellipse cx="55.034483" cy="10.4" fill="#10141c" rx="1" ry="1"/><ellipse cx="54.597701" cy="15.166667" fill="#10141c" opacity=".5" rx="1" ry="1"/><ellipse cx="59.839081" cy="11.7" fill="#10141c" opacity=".5" rx="1" ry="1"/><ellipse cx="64.643678" cy="14.733333" fill="#10141c" rx="1" ry="1"/><rect fill="#0b0f15" height="24.266667" rx="4" width="75.126437" x=".873563" y="30.733333"/><rect fill="#2a303a" height="24.266667" rx="4" width="75.126437" y="29"/><ellipse cx="10.482759" cy="38.533333" fill="#0b0f15" rx="4.367816" ry="4.333333"/><ellipse cx="26.643678" cy="36.366667" fill="#10141c" rx="1" ry="1"/><ellipse cx="26.643678" cy="41.566667" fill="#10141c" opacity=".5" rx="1" ry="1"/><ellipse cx="31.011494" cy="38.1" fill="#db5e5e" rx="1" ry="1"/><g fill="#10141c"><ellipse cx="31.011494" cy="43.3" rx="1" ry="1"/><ellipse cx="36.689655" cy="36.8" rx="1" ry="1"/><ellipse cx="36.689655" cy="42" opacity=".5" rx="1" ry="1"/><ellipse cx="42.804598" cy="38.533333" rx="1" ry="1"/><ellipse cx="42.804598" cy="43.733333" rx="1" ry="1"/><ellipse cx="48.91954" cy="36.8" opacity=".5" rx="1" ry="1"/><ellipse cx="48.91954" cy="42" opacity=".5" rx="1" ry="1"/><ellipse cx="35.37931" cy="45.033333" opacity=".5" rx="1" ry="1"/><ellipse cx="55.471264" cy="33.766667" opacity=".5" rx="1" ry="1"/><ellipse cx="41.494253" cy="34.633333" opacity=".5" rx="1" ry="1"/><ellipse cx="31.885058" cy="34.633333" opacity=".5" rx="1" ry="1"/><ellipse cx="25.770115" cy="46.766667" opacity=".5" rx="1" ry="1"/><ellipse cx="48.045977" cy="47.2" opacity=".5" rx="1" ry="1"/><ellipse cx="64.206897" cy="37.233333" opacity=".5" rx="1" ry="1"/><ellipse cx="62.45977" cy="46.766667" opacity=".5" rx="1" ry="1"/><ellipse cx="55.034483" cy="39.4" rx="1" ry="1"/><ellipse cx="54.597701" cy="44.166667" opacity=".5" rx="1" ry="1"/><ellipse cx="59.839081" cy="40.7" opacity=".5" rx="1" ry="1"/><ellipse cx="64.643678" cy="43.733333" rx="1" ry="1"/></g><rect fill="#0b0f15" height="24.266667" rx="4" width="75.126437" x=".873563" y="60.733333"/><rect fill="#2a303a" height="24.266667" rx="4" width="75.126437" y="59"/><ellipse cx="10.482759" cy="68.533333" fill="#0b0f15" rx="4.367816" ry="4.333333"/><ellipse cx="26.643678" cy="66.366667" fill="#10141c" rx="1" ry="1"/><ellipse cx="26.643678" cy="71.566667" fill="#10141c" opacity=".5" rx="1" ry="1"/><ellipse cx="31.011494" cy="68.1" fill="#db5e5e" rx="1" ry="1"/><ellipse cx="31.011494" cy="73.3" fill="#10141c" rx="1" ry="1"/><ellipse cx="36.689655" cy="66.8" fill="#10141c" rx="1" ry="1"/><ellipse cx="36.689655" cy="72" fill="#10141c" opacity=".5" rx="1" ry="1"/><ellipse cx="42.804598" cy="68.533333" fill="#10141c" rx="1" ry="1"/><ellipse cx="42.804598" cy="73.733333" fill="#10141c" rx="1" ry="1"/><ellipse cx="48.91954" cy="66.8" fill="#10141c" opacity=".5" rx="1" ry="1"/><ellipse cx="48.91954" cy="72" fill="#db5e5e" opacity=".5" rx="1" ry="1"/><ellipse cx="35.37931" cy="75.033333" fill="#10141c" opacity=".5" rx="1" ry="1"/><ellipse cx="55.471264" cy="63.766667" fill="#10141c" opacity=".5" rx="1" ry="1"/><ellipse cx="41.494253" cy="64.633333" fill="#10141c" opacity=".5" rx="1" ry="1"/><ellipse cx="31.885058" cy="64.633333" fill="#10141c" opacity=".5" rx="1" ry="1"/><ellipse cx="25.770115" cy="76.766667" fill="#10141c" opacity=".5" rx="1" ry="1"/><ellipse cx="48.045977" cy="77.2" fill="#10141c" opacity=".5" rx="1" ry="1"/><ellipse cx="64.206897" cy="67.233333" fill="#10141c" opacity=".5" rx="1" ry="1"/><ellipse cx="62.45977" cy="76.766667" fill="#10141c" opacity=".5" rx="1" ry="1"/><ellipse cx="55.034483" cy="69.4" fill="#10141c" rx="1" ry="1"/><ellipse cx="54.597701" cy="74.166667" fill="#10141c" opacity=".5" rx="1" ry="1"/><ellipse cx="59.839081" cy="70.7" fill="#10141c" opacity=".5" rx="1" ry="1"/><ellipse cx="64.643678" cy="73.733333" fill="#10141c" rx="1" ry="1"/><path d="m42 14c-6.4774958 5.6056917-8.4594968 13.2723584-5.9460029 23" stroke="#24ae8f" stroke-linecap="round"/><path d="m37 67c6.2556922-2.2133587 9.9223589-8.546692 11-19" stroke="#24ae8f" stroke-linecap="round"/><path d="m42.5281016 45c-3.3496677 9.0784839-1.1923683 16.4118172 6.4718984 22" stroke="#24ae8f"/></g><g filter="url(#e)" transform="translate(5 58)"><path d="m3 2h85v102h-85z" fill="#1e242d"/><rect fill="#1e242d" height="28" rx="4" width="86" x="5" y="3"/><rect fill="#1e242d" height="28" rx="4" width="86" x="5" y="36"/><rect fill="#1e242d" height="28" rx="4" width="86" x="5" y="70"/><rect fill="#0b0f15" height="28" rx="4" width="86" x="1" y="2"/><rect fill="#2a303a" height="28" rx="4" width="86"/><circle cx="12" cy="11" fill="#0b0f15" r="5"/><circle cx="30.5" cy="8.5" fill="#10141c" r="1"/><circle cx="30.5" cy="14.5" fill="#10141c" opacity=".5" r="1"/><circle cx="35.5" cy="10.5" fill="#10141c" r="1"/><circle cx="35.5" cy="16.5" fill="#10141c" r="1"/><circle cx="42" cy="9" fill="#db5e5e" r="1"/><g fill="#10141c"><circle cx="42" cy="15" opacity=".5" r="1"/><circle cx="49" cy="11" r="1"/><circle cx="49" cy="17" r="1"/><circle cx="56" cy="9" opacity=".5" r="1"/><circle cx="56" cy="15" opacity=".5" r="1"/><circle cx="40.5" cy="18.5" opacity=".5" r="1"/><circle cx="63.5" cy="5.5" opacity=".5" r="1"/><circle cx="47.5" cy="6.5" opacity=".5" r="1"/><circle cx="36.5" cy="6.5" opacity=".5" r="1"/><circle cx="29.5" cy="20.5" opacity=".5" r="1"/><circle cx="55" cy="21" opacity=".5" r="1"/><circle cx="73.5" cy="9.5" opacity=".5" r="1"/><circle cx="71.5" cy="20.5" opacity=".5" r="1"/><circle cx="63" cy="12" r="1"/><circle cx="62.5" cy="17.5" opacity=".5" r="1"/><circle cx="68.5" cy="13.5" opacity=".5" r="1"/><circle cx="74" cy="17" r="1"/></g><g transform="translate(0 34)"><rect fill="#0b0f15" height="28" rx="4" width="86" x="1" y="2"/><rect fill="#2a303a" height="28" rx="4" width="86"/><circle cx="12" cy="11" fill="#0b0f15" r="5"/><circle cx="30.5" cy="8.5" fill="#10141c" r="1"/><circle cx="30.5" cy="14.5" fill="#10141c" opacity=".5" r="1"/><circle cx="35.5" cy="10.5" fill="#db5e5e" r="1"/><g fill="#10141c"><circle cx="35.5" cy="16.5" r="1"/><circle cx="42" cy="9" r="1"/><circle cx="42" cy="15" opacity=".5" r="1"/><circle cx="49" cy="11" r="1"/><circle cx="49" cy="17" r="1"/><circle cx="56" cy="9" opacity=".5" r="1"/><circle cx="56" cy="15" opacity=".5" r="1"/><circle cx="40.5" cy="18.5" opacity=".5" r="1"/><circle cx="63.5" cy="5.5" opacity=".5" r="1"/><circle cx="47.5" cy="6.5" opacity=".5" r="1"/><circle cx="36.5" cy="6.5" opacity=".5" r="1"/><circle cx="29.5" cy="20.5" opacity=".5" r="1"/><circle cx="55" cy="21" opacity=".5" r="1"/><circle cx="73.5" cy="9.5" opacity=".5" r="1"/><circle cx="71.5" cy="20.5" opacity=".5" r="1"/></g><circle cx="63" cy="12" fill="#db5e5e" r="1"/><circle cx="62.5" cy="17.5" fill="#10141c" opacity=".5" r="1"/><circle cx="68.5" cy="13.5" fill="#10141c" opacity=".5" r="1"/><circle cx="74" cy="17" fill="#10141c" r="1"/></g><g transform="translate(0 68)"><rect fill="#0b0f15" height="28" rx="4" width="86" x="1" y="2"/><rect fill="#2a303a" height="28" rx="4" width="86"/><circle cx="12" cy="11" fill="#0b0f15" r="5"/><circle cx="30.5" cy="8.5" fill="#10141c" r="1"/><circle cx="30.5" cy="14.5" fill="#10141c" opacity=".5" r="1"/><circle cx="35.5" cy="10.5" fill="#db5e5e" r="1"/><circle cx="35.5" cy="16.5" fill="#10141c" r="1"/><circle cx="42" cy="9" fill="#10141c" r="1"/><circle cx="42" cy="15" fill="#10141c" opacity=".5" r="1"/><circle cx="49" cy="11" fill="#10141c" r="1"/><circle cx="49" cy="17" fill="#10141c" r="1"/><circle cx="56" cy="9" fill="#10141c" opacity=".5" r="1"/><circle cx="56" cy="15" fill="#db5e5e" opacity=".5" r="1"/><g fill="#10141c"><circle cx="40.5" cy="18.5" opacity=".5" r="1"/><circle cx="63.5" cy="5.5" opacity=".5" r="1"/><circle cx="47.5" cy="6.5" opacity=".5" r="1"/><circle cx="36.5" cy="6.5" opacity=".5" r="1"/><circle cx="29.5" cy="20.5" opacity=".5" r="1"/><circle cx="55" cy="21" opacity=".5" r="1"/><circle cx="73.5" cy="9.5" opacity=".5" r="1"/><circle cx="71.5" cy="20.5" opacity=".5" r="1"/><circle cx="63" cy="12" r="1"/><circle cx="62.5" cy="17.5" opacity=".5" r="1"/><circle cx="68.5" cy="13.5" opacity=".5" r="1"/><circle cx="74" cy="17" r="1"/></g></g><path d="m49 17c-7.6257062 6.3368689-9.9590395 15.0035355-7 26" stroke="#24ae8f" stroke-linecap="round"/><path d="m42 77.5c7.3930908-2.6210826 11.7264242-10.1210826 13-22.5" stroke="#24ae8f" stroke-linecap="round"/><path d="m49 51.5c-3.6229979 10.5227881-1.2896645 19.0227881 7 25.5" stroke="#24ae8f"/><path d="m63.5 5.5c-1.4575482 1.84341927-1.6242149 4.01008594-.5 6.5" stroke="#24ae8f" stroke-linecap="round"/></g><rect fill="#2a303a" height="3" rx="1.5" width="105" x="4" y="161"/></g></g></svg>