<svg width="152" height="142" viewBox="0 0 152 142" fill="none" xmlns="http://www.w3.org/2000/svg">
<g id="Group">
<g id="Group_2">
<path id="Vector" d="M9.99165 122.133V115.177C9.99165 117.838 12.124 120.544 16.624 123.088C32.3446 132.03 71.0946 135.765 103.168 131.456C126.065 128.383 139.374 122.015 139.389 115.383V122.338C139.359 128.971 126.065 135.324 103.153 138.412C71.0799 142.721 32.3299 138.971 16.6093 130.044C12.1093 127.485 9.97695 124.78 9.99165 122.133Z" fill="#D5DFE2" stroke="black" stroke-width="0.472973" stroke-linecap="round" stroke-linejoin="round"/>
<path id="Vector_2" d="M127.814 104.5C113.432 96.3236 78.0054 92.8971 48.6671 96.853C19.3436 100.794 7.22594 110.618 21.6083 118.794C35.9906 126.971 71.4171 130.397 100.755 126.441C130.079 122.5 142.197 112.677 127.814 104.5Z" fill="white"/>
<path id="Vector_3" d="M56.8589 127.28L58.8001 125.236C59.0795 124.941 58.8883 124.456 58.4912 124.412C46.8442 123.25 36.7265 120.883 30.8589 117.544C30.653 117.427 30.4618 117.309 30.2707 117.191C29.5207 116.736 28.6383 116.589 27.7707 116.736L20.3589 118.044" stroke="#D5DFE2" stroke-width="0.472973" stroke-linecap="round" stroke-linejoin="round"/>
<path id="Vector_4" d="M16.1523 107.53L21.167 104.574C13.8141 108.912 13.3729 114.118 21.5935 118.794C35.9759 126.971 71.4023 130.397 100.741 126.441C129.741 122.544 141.902 112.897 128.285 104.78C129.946 105.78 131.623 106.765 133.285 107.765C148.182 116.633 134.873 127.177 103.167 131.441C71.0935 135.75 32.3435 132 16.6229 123.074C7.63762 117.971 8.10821 112.28 16.1523 107.53Z" fill="white" stroke="#91A5AA" stroke-width="0.472973" stroke-linecap="round" stroke-linejoin="round"/>
<path id="Vector_5" d="M139.388 119.662V118.897C139.359 121.5 137.285 124.044 133.403 126.368C133.079 126.559 132.8 126.838 132.609 127.162C132.212 127.853 131.844 128.471 131.447 129.147C131.227 129.529 130.888 129.838 130.491 130.029C124.109 133.044 114.462 135.573 102.109 137.162C101.771 137.206 101.432 137.103 101.182 136.882L100.05 135.882C99.6677 135.544 99.1677 135.382 98.6677 135.441C82.756 137.176 65.5942 137.044 50.6089 135.353C50.1971 135.309 49.7854 135.441 49.4619 135.721L48.3589 136.706C48.0354 137 47.5942 137.132 47.1677 137.074C35.6236 135.544 25.6089 133.073 18.8148 129.809C18.4766 129.647 18.2119 129.397 18.0354 129.073C17.6383 128.397 17.1825 127.588 16.8589 127.059C16.7707 126.897 16.6236 126.662 16.4177 126.471C16.153 126.235 15.8295 126.059 15.756 126.015C13.4619 124.603 11.8883 123.147 10.9619 121.691C10.5648 121.044 10.2854 120.412 10.1383 119.765C10.0501 119.382 10.006 119 10.006 118.632V123.044C10.006 123.338 10.0501 123.691 10.1236 123.985C10.1236 124 10.1236 124.029 10.1383 124.044C10.2119 124.353 10.3001 124.662 10.4325 124.971C10.4325 124.971 10.4472 125 10.4472 125.015C10.5795 125.323 10.7413 125.647 10.9325 125.956C10.9325 125.971 10.9619 126 10.9766 126.015C11.1677 126.323 11.3883 126.632 11.653 126.941C11.6972 126.985 11.7413 127.029 11.7854 127.073C12.0354 127.353 12.2854 127.632 12.5795 127.912C12.6677 128 12.7707 128.073 12.8736 128.162C13.1383 128.397 13.403 128.647 13.7119 128.882C13.903 129.029 14.1236 129.176 14.3295 129.323C14.5648 129.5 14.7854 129.676 15.0501 129.838C15.5354 130.162 16.0501 130.471 16.6089 130.794C23.4619 134.691 34.6972 137.588 47.8295 139.279C49.8736 139.544 51.9619 139.779 54.0942 139.971C54.153 139.971 54.2119 139.971 54.2707 139.985C56.3295 140.176 58.4177 140.338 60.5354 140.485C60.6677 140.485 60.8001 140.5 60.9177 140.515C62.9913 140.647 65.0942 140.75 67.2119 140.823C67.3442 140.823 67.4619 140.823 67.5942 140.823C69.7707 140.897 71.9619 140.941 74.153 140.941C74.1972 140.941 74.2413 140.941 74.2854 140.941C83.9766 140.971 93.8442 140.412 103.138 139.162C115.374 137.515 124.874 134.941 131.065 131.882C132.388 131.221 133.565 130.544 134.579 129.853C134.609 129.838 134.624 129.823 134.653 129.809C135.124 129.485 135.565 129.147 135.977 128.809C136.021 128.779 136.065 128.735 136.094 128.706C136.477 128.382 136.829 128.044 137.153 127.721C137.197 127.676 137.241 127.632 137.271 127.588C137.579 127.265 137.844 126.926 138.094 126.603C138.124 126.559 138.153 126.515 138.197 126.456C138.432 126.118 138.624 125.779 138.785 125.456C138.8 125.412 138.829 125.368 138.844 125.323C139.006 124.985 139.124 124.632 139.212 124.279C139.212 124.25 139.212 124.221 139.227 124.191C139.3 123.823 139.359 123.471 139.359 123.103V121.897V119.662H139.388Z" fill="#2E4247" stroke="black" stroke-width="0.472973" stroke-linecap="round" stroke-linejoin="round"/>
<path id="Vector_6" d="M133.299 107.765C131.638 106.765 129.961 105.779 128.299 104.779C128.446 104.868 128.564 104.956 128.696 105.029C128.417 104.853 128.123 104.677 127.814 104.5C113.432 96.3236 78.0053 92.8971 48.667 96.853C35.9759 98.5589 26.52 101.368 21.02 104.662C21.0641 104.632 21.1082 104.603 21.167 104.574L16.1523 107.529C8.10821 112.279 7.63762 117.971 16.6229 123.074C32.3435 132.015 71.0935 135.75 103.167 131.441C134.873 127.177 148.182 116.632 133.285 107.765H133.299Z" stroke="black" stroke-width="0.472973" stroke-linecap="round" stroke-linejoin="round"/>
<path id="Vector_7" d="M124.858 104.897C124.181 104.515 123.431 104.133 122.652 103.765C122.505 103.691 122.329 103.662 122.152 103.691L118.064 104.162C117.843 104.191 117.681 104.486 117.917 104.603C118.593 104.912 119.226 105.25 119.814 105.574C125.137 108.603 126.181 111.883 123.623 114.912C123.358 115.236 123.534 115.721 123.946 115.78L127.593 116.28C127.873 116.324 128.152 116.221 128.358 116.03C132.064 112.471 131.196 108.515 124.843 104.912L124.858 104.897Z" fill="#D5DFE2"/>
<path id="Vector_8" d="M1.24105 98.7794C-2.05306 91.6323 28.7999 70.3529 70.1822 51.25C111.55 32.147 147.77 22.4559 151.065 29.6029" stroke="black" stroke-width="0.472973" stroke-linecap="round" stroke-linejoin="round"/>
<path id="Vector_9" d="M23.4904 78.9562C24.7249 78.9562 25.7257 77.9554 25.7257 76.7209C25.7257 75.4864 24.7249 74.4856 23.4904 74.4856C22.2559 74.4856 21.2551 75.4864 21.2551 76.7209C21.2551 77.9554 22.2559 78.9562 23.4904 78.9562Z" fill="#25D27F"/>
<path id="Vector_10" d="M51.7848 98.8236C51.2701 98.5883 49.7406 97.9119 49.7406 97.9119C49.5495 97.8236 49.3436 97.8089 49.1524 97.8236C30.0348 100.53 18.9465 105.912 18.9171 111.53C18.9171 111.956 19.2553 112.309 19.6818 112.28L23.6671 112.044C24.0201 112.03 24.3289 111.75 24.3436 111.397C24.5495 106.368 34.5053 101.574 51.6083 99.1619C51.8583 99.1325 52.1377 98.9707 51.7848 98.8089V98.8236Z" fill="#D5DFE2"/>
<path id="Vector_11" d="M111.859 106.824C107.227 104.191 99.4471 102.265 90.4177 101.221L75.0795 109.147L92.3736 121.412C93.0059 121.868 93.8001 122.059 94.5795 121.941C113.903 119.044 121.653 112.397 111.874 106.838L111.859 106.824Z" stroke="#D5DFE2" stroke-width="0.472973" stroke-linecap="round" stroke-linejoin="round"/>
<path id="Vector_12" d="M45.315 105.206C47.1092 104.603 47.8003 104.397 49.0503 104.044C47.0945 104.765 44.9033 105.353 43.5503 107.015C42.6239 108.147 42.5062 109.515 43.3739 110.721C44.0503 111.647 45.0356 112.324 46.0209 112.882C53.7856 117.294 72.918 119.147 88.7709 117.015C104.609 114.882 111.153 109.574 103.389 105.162C103.389 105.162 106.727 106.427 107.815 106.956C110.565 108.25 111.771 110 111.697 111.559C111.536 115.309 103.947 118.897 90.9768 120.632C72.6239 123.103 50.4621 120.956 41.4621 115.838C40.0062 115.015 38.2856 113.838 37.8003 112.132C37.3886 110.706 38.1092 109.353 39.168 108.441C40.4033 107.368 43.168 105.927 45.3003 105.206H45.315Z" fill="#2E4247" stroke="black" stroke-width="0.472973" stroke-linecap="round" stroke-linejoin="round"/>
<path id="Vector_13" d="M106.447 106.559C115.05 111.441 107.8 117.309 90.2705 119.677C72.7411 122.03 51.5646 119.986 42.9617 115.103C34.3587 110.221 41.6087 104.353 59.1381 101.986C76.6676 99.6326 97.844 101.677 106.447 106.559Z" fill="white" stroke="black" stroke-width="0.472973" stroke-linecap="round" stroke-linejoin="round"/>
<path id="Vector_14" opacity="0.6" d="M60.3149 69.8824C51.8443 73.6912 39.2855 86.0001 39.2855 102.118C39.2855 103.927 39.3149 110.912 39.3443 110.897C39.4032 112.309 40.5649 113.75 42.962 115.103C51.5649 119.985 72.7414 122.029 90.2708 119.677C102.874 117.985 110.153 114.471 110.065 110.824C110.065 110.824 110.065 110.824 110.065 110.794V102.221C110.065 86.1177 97.7855 73.6912 89.3149 69.8824C87.212 68.9412 82.9473 67.2206 82.9473 64.2501C82.9473 61.2795 86.9914 60.1618 89.0943 59.2206C97.5649 55.4118 109.153 43.103 109.153 29.4559V22.7501H40.4914V29.4559C40.4914 43.1177 52.0796 55.4118 60.5502 59.2206C62.6532 60.1618 66.6973 61.3383 66.6973 64.2501C66.6973 67.1618 62.4326 68.9265 60.3296 69.8824H60.3149Z" fill="white"/>
<path id="Vector_15" d="M106.447 106.559C115.05 111.441 107.8 117.309 90.2705 119.677C72.7411 122.03 51.5646 119.986 42.9617 115.103C34.3587 110.221 41.6087 104.353 59.1381 101.986C76.6676 99.6326 97.844 101.677 106.447 106.559Z" fill="#D5DFE2" stroke="black" stroke-width="0.472973" stroke-linecap="round" stroke-linejoin="round"/>
<path id="Vector_16" d="M108.476 108.28C108.476 108.28 108.373 108.177 108.315 108.118L76.5939 113.603L104.667 105.883C104.565 105.838 104.476 105.794 104.373 105.75L76.3145 113.471L98.8881 103.912C98.7557 103.883 98.6233 103.838 98.4763 103.809L75.9322 113.353L91.6822 102.441C91.5204 102.412 91.3439 102.397 91.1822 102.368L75.4469 113.265L83.5351 101.53C83.3586 101.53 83.1822 101.5 83.0057 101.485L74.9175 113.221V101.191C74.7263 101.191 74.5498 101.191 74.3586 101.191V113.206L66.2557 101.441C66.0792 101.441 65.8881 101.471 65.7116 101.471L73.8145 113.235L58.0351 102.294C57.8733 102.324 57.6969 102.338 57.5351 102.368L73.3292 113.309L50.6969 103.735C50.5645 103.765 50.4175 103.809 50.2851 103.838L72.9322 113.427L44.8439 105.706C44.741 105.75 44.6381 105.794 44.5498 105.838L72.6675 113.574L40.991 108.103C40.991 108.103 40.8881 108.206 40.8439 108.265L72.5351 113.735L39.6086 110.75C39.6086 110.75 39.6086 110.853 39.6086 110.912L72.5351 113.897L40.9322 113.441C40.9322 113.441 41.0351 113.544 41.0939 113.603L72.6675 114.059L44.8292 115.897C44.9322 115.941 45.0498 115.985 45.1528 116.03L72.9469 114.191L50.7998 117.897C50.9469 117.927 51.0792 117.971 51.2263 118.015L73.3586 114.309L58.0939 119.353C58.2557 119.383 58.4322 119.397 58.6086 119.427L73.8439 114.383L66.0939 120.221C66.2704 120.221 66.4469 120.25 66.6233 120.265L74.3881 114.412V120.53C74.5792 120.53 74.7557 120.53 74.9469 120.53V114.412L82.741 120.294C82.9175 120.294 83.1086 120.28 83.2851 120.265L75.4763 114.383L90.8881 119.485C91.0645 119.456 91.2263 119.441 91.4028 119.412L75.9616 114.294L98.388 118.059C98.5351 118.03 98.6822 117.985 98.8292 117.956L76.3439 114.191L104.506 116.059C104.609 116.015 104.712 115.971 104.815 115.912L76.6233 114.044L108.506 113.588C108.506 113.588 108.609 113.485 108.653 113.427L76.7704 113.883L109.873 110.883C109.873 110.883 109.873 110.78 109.873 110.721L76.7851 113.721L108.52 108.235L108.476 108.28Z" fill="white"/>
<path id="Vector_17" d="M95.0052 111.221C100.505 114.338 95.8728 118.088 84.6669 119.603C73.461 121.103 59.9169 119.794 54.4316 116.677C48.9316 113.559 53.564 109.809 64.7699 108.294C75.9757 106.779 89.5199 108.103 95.0052 111.221Z" fill="white"/>
<path id="Vector_18" d="M87.7996 112.382C91.3437 114.397 88.3584 116.824 81.1231 117.794C73.8878 118.765 65.1525 117.927 61.6084 115.912C58.0643 113.897 61.0496 111.471 68.2849 110.5C75.5202 109.53 84.2554 110.368 87.7996 112.382Z" fill="#25D27F"/>
<g id="Group_3">
<g id="Group_4">
<path id="Vector_19" d="M80.1379 53.5881C81.6526 55.1028 85.7555 53.4411 89.3143 49.897C92.8731 46.3528 94.5202 42.2352 93.0055 40.7205L90.9026 38.6176L78.0349 51.4852L80.1379 53.5881Z" fill="#D5DFE2" stroke="#91A5AA" stroke-width="0.472973" stroke-linecap="round" stroke-linejoin="round"/>
<path id="Vector_20" d="M87.225 47.7927C90.7799 44.2378 92.4326 40.1269 90.9165 38.6107C89.4003 37.0946 85.2894 38.7473 81.7345 42.3023C78.1796 45.8572 76.5268 49.9681 78.043 51.4843C79.5591 53.0004 83.67 51.3477 87.225 47.7927Z" fill="white" stroke="#91A5AA" stroke-width="0.472973" stroke-linecap="round" stroke-linejoin="round"/>
<path id="Vector_21" d="M86.0706 46.6387C88.1381 44.5712 89.1018 42.1829 88.2231 41.3042C87.3445 40.4256 84.9561 41.3893 82.8887 43.4567C80.8212 45.5242 79.8575 47.9126 80.7361 48.7912C81.6148 49.6699 84.0031 48.7062 86.0706 46.6387Z" fill="#D5DFE2"/>
</g>
<g id="Group_5">
<path id="Vector_22" d="M76.1088 93.397C75.1235 95.2941 77.9471 98.7058 82.4177 101.015C86.8883 103.323 91.3 103.647 92.2853 101.735L93.653 99.1029L77.4765 90.7646L76.1088 93.397Z" fill="#D5DFE2" stroke="#91A5AA" stroke-width="0.472973" stroke-linecap="round" stroke-linejoin="round"/>
<path id="Vector_23" d="M93.6506 99.0924C94.6333 97.1867 91.8078 93.7739 87.3395 91.4696C82.8713 89.1654 78.4524 88.8423 77.4696 90.7479C76.4869 92.6536 79.3124 96.0665 83.7807 98.3707C88.2489 100.675 92.6678 100.998 93.6506 99.0924Z" fill="white" stroke="#91A5AA" stroke-width="0.472973" stroke-linecap="round" stroke-linejoin="round"/>
<path id="Vector_24" d="M90.9975 97.7241C91.6564 96.4464 89.7562 94.1553 86.7533 92.6067C83.7504 91.0581 80.782 90.8385 80.1231 92.1162C79.4642 93.3939 81.3644 95.685 84.3673 97.2336C87.3702 98.7822 90.3386 99.0018 90.9975 97.7241Z" fill="#D5DFE2"/>
</g>
<g id="Group_6">
<path id="Vector_25" d="M54.093 94C55.0636 95.9118 59.4753 95.6177 63.9606 93.3383C68.4459 91.0589 71.2842 87.6765 70.3136 85.7647L68.9753 83.1177L52.7548 91.353L54.093 94Z" fill="#D5DFE2" stroke="#91A5AA" stroke-width="0.472973" stroke-linecap="round" stroke-linejoin="round"/>
<path id="Vector_26" d="M62.6176 90.6944C67.1002 88.4183 69.9472 85.0232 68.9764 83.1114C68.0056 81.1996 63.5848 81.4949 59.1021 83.7711C54.6195 86.0472 51.7726 89.4422 52.7433 91.3541C53.7141 93.2659 58.1349 92.9705 62.6176 90.6944Z" fill="white" stroke="#91A5AA" stroke-width="0.472973" stroke-linecap="round" stroke-linejoin="round"/>
<path id="Vector_27" d="M61.9857 89.4487C64.8535 87.9926 66.6745 85.82 66.053 84.5961C65.4316 83.3723 62.6031 83.5606 59.7353 85.0167C56.8676 86.4729 55.0466 88.6454 55.6681 89.8693C56.2895 91.0932 59.118 90.9049 61.9857 89.4487Z" fill="#D5DFE2"/>
</g>
<g id="Group_7">
<path id="Vector_28" d="M58.5791 43.4267C57.9173 44.8532 60.1085 47.2649 63.4614 48.8091C66.8144 50.3532 70.0644 50.4414 70.7261 49.0149L71.6379 47.0296L59.4909 41.4414L58.5791 43.4267Z" fill="#D5DFE2" stroke="#91A5AA" stroke-width="0.472973" stroke-linecap="round" stroke-linejoin="round"/>
<path id="Vector_29" d="M71.642 47.0294C72.2999 45.5977 70.1171 43.1889 66.7666 41.6493C63.4161 40.1097 60.1667 40.0222 59.5087 41.4539C58.8508 42.8856 61.0336 45.2943 64.3841 46.834C67.7346 48.3736 70.984 48.4611 71.642 47.0294Z" fill="white" stroke="#91A5AA" stroke-width="0.472973" stroke-linecap="round" stroke-linejoin="round"/>
<path id="Vector_30" d="M69.3035 45.9546C69.707 45.0764 68.365 43.5975 66.306 42.6513C64.247 41.7051 62.2507 41.6501 61.8472 42.5283C61.4436 43.4065 62.7856 44.8854 64.8446 45.8316C66.9036 46.7778 68.8999 46.8328 69.3035 45.9546Z" fill="#D5DFE2"/>
</g>
</g>
<path id="Vector_31" d="M60.3149 69.8824C51.8443 73.6912 39.2855 86.0001 39.2855 102.118C39.2855 103.927 39.3149 110.912 39.3443 110.897C39.4032 112.309 40.5649 113.75 42.962 115.103C51.5649 119.985 72.7414 122.029 90.2708 119.677C102.874 117.985 110.153 114.471 110.065 110.824C110.065 110.824 110.065 110.824 110.065 110.794V102.221C110.065 86.1177 97.7855 73.6912 89.3149 69.8824C87.212 68.9412 82.9473 67.2206 82.9473 64.2501C82.9473 61.2795 86.9914 60.1618 89.0943 59.2206C97.5649 55.4118 109.153 43.103 109.153 29.4559V22.7501H40.4914V29.4559C40.4914 43.1177 52.0796 55.4118 60.5502 59.2206C62.6532 60.1618 66.6973 61.3383 66.6973 64.2501C66.6973 67.1618 62.4326 68.9265 60.3296 69.8824H60.3149Z" fill="url(#paint0_linear_388_236)" stroke="black" stroke-width="0.472973" stroke-linecap="round" stroke-linejoin="round"/>
<path id="Vector_32" opacity="0.7" d="M89.1531 69.8824C87.0502 68.9412 82.7855 67.2206 82.7855 64.2501C82.7855 61.2795 86.8296 60.1618 88.9325 59.2206C97.4031 55.4118 108.991 43.103 108.991 29.4559V22.7501H102.653V24.5883C102.653 26.8971 102.506 29.103 102.241 31.2059C101.933 33.5442 101.477 35.7648 100.874 37.853C100.08 40.6324 99.0207 43.1912 97.7707 45.5589C95.0502 50.6618 91.3737 54.8236 87.1678 58.1177C85.6384 59.3089 82.4913 61.1177 82.4913 64.4559C82.4913 67.7942 85.9178 69.6471 87.4031 70.8971C94.109 76.5295 101.153 86.3236 102.947 100.809C103.227 103.074 103.374 105.441 103.374 107.927V116.441C107.035 115.044 109.138 113.427 109.771 111.706C109.771 111.647 109.918 111.412 109.918 110.765V102.191C109.918 86.0883 97.6384 73.6618 89.1678 69.853L89.1531 69.8824Z" fill="white"/>
<g id="Group_8">
<path id="Vector_33" d="M56.5952 41.8384C55.904 39.5002 55.3452 37.0001 54.9481 34.309C52.8452 34.0443 50.8452 33.7207 48.9481 33.3678C49.2422 36.0002 49.8305 38.5443 50.5952 40.956C52.5069 41.2943 54.5069 41.5884 56.6099 41.8384H56.5952Z" fill="white"/>
<path id="Vector_34" d="M62.6677 69.8822C56.7118 73.6911 47.8589 85.9999 47.8589 102.118V117C49.4912 117.5 51.5501 118.132 53.5942 118.485V107.809C53.5942 89.3675 59.8295 76.7352 64.9912 70.8969C66.0648 69.6911 68.4471 67.8528 68.4471 64.4558C68.4471 61.0587 66.2265 59.2793 65.1824 58.0293C62.1383 54.3969 59.403 49.8969 57.4324 44.3528C55.3736 44.1322 53.3883 43.8528 51.5059 43.544C54.403 50.9705 59.0501 56.794 62.8295 59.2205C64.3148 60.1617 67.1677 61.3381 67.1677 64.2499C67.1677 67.1616 64.1677 68.9264 62.6824 69.8822H62.6677Z" fill="white"/>
</g>
<g id="Group_9">
<path id="Vector_35" d="M48.6822 2.1618H43.8292V5.83827H48.6822V2.1618Z" fill="white" stroke="#91A5AA" stroke-width="0.472973" stroke-linecap="round" stroke-linejoin="round"/>
<path id="Vector_36" d="M106.035 2.1767V6.63258L100.462 4.13258L106.035 2.1767Z" fill="#D8E2E5" stroke="#91A5AA" stroke-width="0.472973" stroke-linecap="round" stroke-linejoin="round"/>
<path id="Vector_37" d="M102.986 19.9593C102.995 15.6548 90.4259 12.1411 74.9133 12.1113C59.4006 12.0815 46.8184 15.5469 46.8101 19.8515C46.8019 24.156 59.3707 27.6697 74.8833 27.6995C90.396 27.7293 102.978 24.2639 102.986 19.9593Z" fill="#25D27F" stroke="black" stroke-width="0.472973" stroke-linecap="round" stroke-linejoin="round"/>
<path id="Vector_38" d="M74.9324 10.074C68.4471 10.074 28.9471 14.6769 28.9471 14.6769V22.721C28.9471 22.8093 28.9471 22.8681 29.0207 22.9416C29.506 23.5004 30.1383 24.0446 30.8883 24.5887C31.3148 24.8975 32.3589 25.0887 33.5354 25.0887C33.8001 25.0887 34.0795 25.0887 34.3442 25.0593L39.3883 24.6475C45.006 27.8387 55.9766 30.1622 69.0354 30.721L69.1824 32.1916C69.2266 32.6034 70.3736 32.9416 71.8442 32.9563C73.0207 32.971 74.006 32.9857 74.9324 32.9857C75.8589 32.9857 76.8442 32.9857 78.0207 32.9563C79.4913 32.9269 80.6383 32.6034 80.6824 32.1916L80.8295 30.721C93.8883 30.1769 104.859 27.8534 110.477 24.6475L115.521 25.0593C115.785 25.074 116.05 25.0887 116.329 25.0887C117.506 25.0887 118.55 24.8828 118.977 24.5887C119.727 24.0446 120.359 23.5004 120.844 22.9416C120.903 22.8828 120.932 22.8093 120.932 22.7504V14.6769C120.932 14.6769 81.4324 10.074 74.9324 10.074Z" fill="white" stroke="#91A5AA" stroke-width="0.472973" stroke-linecap="round" stroke-linejoin="round"/>
<g id="Vector_39">
<path d="M79.7843 32.7355C80.3137 32.5884 80.6519 32.3972 80.6814 32.1767L80.8284 30.7061C93.8872 30.162 104.858 27.8384 110.475 24.6325H110.49V15.0296L79.7843 18.1767" fill="#D8E2E5"/>
<path d="M79.7843 32.7355C80.3137 32.5884 80.6519 32.3972 80.6814 32.1767L80.8284 30.7061C93.8872 30.162 104.858 27.8384 110.475 24.6325H110.49V15.0296L79.7843 18.1767" stroke="#91A5AA" stroke-width="0.472973" stroke-miterlimit="10"/>
</g>
<g id="Vector_40">
<path d="M118.182 24.8826C118.52 24.7943 118.8 24.7061 118.976 24.5738C119.726 24.0296 120.358 23.4855 120.844 22.9267C120.902 22.8679 120.932 22.7943 120.932 22.7355V14.662L118.182 14.7649" fill="#D8E2E5"/>
<path d="M118.182 24.8826C118.52 24.7943 118.8 24.7061 118.976 24.5738C119.726 24.0296 120.358 23.4855 120.844 22.9267C120.902 22.8679 120.932 22.7943 120.932 22.7355V14.662L118.182 14.7649" stroke="#91A5AA" stroke-width="0.472973" stroke-miterlimit="10"/>
</g>
<path id="Vector_41" d="M69.035 30.7059V21.4559" stroke="#91A5AA" stroke-width="0.472973" stroke-miterlimit="10"/>
<path id="Vector_42" d="M80.8729 30.6769V21.4122" stroke="#91A5AA" stroke-width="0.472973" stroke-miterlimit="10"/>
<g id="Vector_43">
<path d="M32.6666 25.0443C32.946 25.0737 33.2402 25.0884 33.549 25.0884C33.8137 25.0884 34.0931 25.0884 34.3578 25.059L39.299 24.6472V15.6031L32.6666 15.0149" fill="#D8E2E5"/>
<path d="M32.6666 25.0443C32.946 25.0737 33.2402 25.0884 33.549 25.0884C33.8137 25.0884 34.0931 25.0884 34.3578 25.059L39.299 24.6472V15.6031L32.6666 15.0149" stroke="#91A5AA" stroke-width="0.472973" stroke-miterlimit="10"/>
</g>
<path id="Vector_44" d="M119.035 13.9266L114.02 13.4266C114.329 12.8678 114.491 12.2943 114.491 11.7207C114.491 8.61781 109.917 5.82369 102.549 3.82369L105.535 2.6031C106.373 2.26487 106.138 1.80898 104.991 1.54428C103.432 1.19134 101.741 0.838397 99.9318 0.529573C99.4759 0.456044 98.9612 0.411926 98.4171 0.411926C97.5201 0.411926 96.7112 0.529573 96.1671 0.72075L92.9318 1.89722C87.5348 1.13251 81.4171 0.691338 74.9318 0.691338C68.4465 0.691338 62.3289 1.13251 56.9318 1.89722L53.6965 0.72075C53.1524 0.529573 52.3289 0.411926 51.4465 0.411926C50.9171 0.411926 50.3877 0.456044 49.9318 0.529573C48.1377 0.838397 46.4318 1.17663 44.873 1.54428C43.7259 1.80898 43.4906 2.26487 44.3289 2.6031L47.3142 3.82369C39.9465 5.82369 35.373 8.63251 35.373 11.7207C35.373 12.2943 35.5348 12.8678 35.8436 13.4266L30.8289 13.9266C29.4465 14.059 28.6671 14.4707 29.0201 14.8678C29.5053 15.4266 30.1377 15.9707 30.8877 16.5149C31.3142 16.8237 32.3583 17.0149 33.5348 17.0149C33.7995 17.0149 34.0789 17.0149 34.3436 16.9855L39.3877 16.5737C44.9906 19.7649 55.9759 22.0884 69.0348 22.6472L69.1818 24.1178C69.2259 24.5296 70.373 24.8678 71.8436 24.8825C73.0201 24.8972 74.0053 24.9119 74.9318 24.9119C75.8583 24.9119 76.8436 24.9119 78.0201 24.8825C79.4906 24.8531 80.6377 24.5296 80.6818 24.1178L80.8289 22.6472C93.8877 22.1031 104.858 19.7796 110.476 16.5737L115.52 16.9855C115.785 17.0002 116.049 17.0149 116.329 17.0149C117.505 17.0149 118.549 16.809 118.976 16.5149C119.726 15.9707 120.358 15.4266 120.844 14.8678C120.902 14.809 120.932 14.7355 120.932 14.6766C120.932 14.3384 120.167 14.0443 119.049 13.9266H119.035Z" fill="white" stroke="#91A5AA" stroke-width="0.472973" stroke-linecap="round" stroke-linejoin="round"/>
<path id="Vector_45" d="M105.691 11.7875C105.7 7.06062 91.9207 3.20225 74.9136 3.1696C57.9065 3.13694 44.1122 6.94238 44.1031 11.6693C44.094 16.3962 57.8736 20.2546 74.8807 20.2872C91.8878 20.3199 105.682 16.5144 105.691 11.7875Z" fill="#2E4247"/>
<path id="Vector_46" d="M102.549 12.1034C95.0639 7.85341 76.6081 6.05929 61.3286 8.11811C52.8139 9.26517 47.0786 11.3681 44.9757 13.7358C45.4904 14.324 46.2404 14.8975 47.2257 15.4564C54.711 19.7064 73.1669 21.5005 88.4463 19.4416C96.961 18.2946 102.696 16.1916 104.799 13.824C104.285 13.2358 103.535 12.6622 102.549 12.1034Z" fill="white"/>
<path id="Vector_47" d="M93.211 13.6179C88.2551 10.7944 76.0345 9.61789 65.9169 10.9855C55.7992 12.3385 51.6228 15.7355 56.5786 18.5444C56.6228 18.5738 56.6816 18.5885 56.7257 18.6179C65.6669 20.4414 77.8286 20.8826 88.461 19.4561C90.0933 19.2355 91.6227 18.9855 93.0345 18.6914C95.858 17.162 96.1375 15.2944 93.211 13.6179Z" fill="#25D27F"/>
<g id="Group_10">
<g id="Group_11">
<path id="Vector_48" d="M90.5349 6.51453C95.5496 7.33806 99.7996 8.57335 102.55 10.1469C103.873 10.8969 104.829 11.6763 105.403 12.7792" stroke="#91A5AA" stroke-width="0.472973" stroke-linecap="round" stroke-linejoin="round"/>
<path id="Vector_49" d="M44.3434 12.7794C44.5493 12.2059 45.1669 11.5294 45.6081 11.1618C48.0934 9.04411 53.5493 7.20587 61.3287 6.16175C68.8728 5.14705 77.1963 5.07352 84.5787 5.7647V3.95587" stroke="#91A5AA" stroke-width="0.472973" stroke-linecap="round" stroke-linejoin="round"/>
</g>
<path id="Vector_50" d="M87.5205 6.60289C87.7885 6.60289 88.0057 6.36587 88.0057 6.07348C88.0057 5.78109 87.7885 5.54407 87.5205 5.54407C87.2524 5.54407 87.0352 5.78109 87.0352 6.07348C87.0352 6.36587 87.2524 6.60289 87.5205 6.60289Z" fill="#91A5AA"/>
</g>
</g>
<path id="Vector_51" d="M151.065 29.5886C154.359 36.7356 123.506 58.015 82.1237 77.118C40.756 96.2209 4.55016 105.927 1.24133 98.7797" stroke="black" stroke-width="0.472973" stroke-linecap="round" stroke-linejoin="round"/>
<path id="Vector_52" d="M135.977 50.1768C137.902 50.1768 139.462 48.6163 139.462 46.6915C139.462 44.7666 137.902 43.2062 135.977 43.2062C134.052 43.2062 132.491 44.7666 132.491 46.6915C132.491 48.6163 134.052 50.1768 135.977 50.1768Z" fill="#25D27F"/>
<path id="Vector_53" d="M120.932 14.6766C120.932 14.3384 120.167 14.0443 119.049 13.9266L114.035 13.4266C114.343 12.8678 114.505 12.2943 114.505 11.7207C114.505 9.14722 111.329 6.77957 106.035 4.89722V2.19134C106.079 1.95604 105.726 1.70604 105.005 1.54428C103.446 1.19134 101.755 0.838397 99.9463 0.529573C99.4904 0.456044 98.9757 0.411926 98.4316 0.411926C97.5345 0.411926 96.7257 0.529573 96.1816 0.72075L92.9463 1.89722C87.5492 1.13251 81.4316 0.691338 74.9463 0.691338C68.461 0.691338 62.3434 1.13251 56.9463 1.89722L53.711 0.72075C53.1669 0.529573 52.3434 0.411926 51.461 0.411926C50.9316 0.411926 50.4022 0.456044 49.9463 0.529573C48.1522 0.838397 46.4463 1.17663 44.8875 1.54428C44.211 1.70604 43.8581 1.92663 43.8581 2.16193V2.19134V4.91193C38.5639 6.79428 35.3875 9.16193 35.3875 11.7355C35.3875 12.309 35.5492 12.8825 35.8581 13.4413L30.8581 13.9413C29.6963 14.059 28.9757 14.3531 28.9757 14.6913C28.9757 14.6913 28.9757 14.706 28.9757 14.7208C28.9757 14.7208 28.9757 14.7355 28.9757 14.7502V22.7502C28.9757 22.8384 28.9757 22.8972 29.0492 22.9707C29.5345 23.5296 30.1669 24.0737 30.9169 24.6178C31.3434 24.9266 32.3875 25.1178 33.5639 25.1178C33.8287 25.1178 34.1081 25.1178 34.3728 25.0884L39.4169 24.6766C45.0345 27.8678 56.0051 30.1913 69.0639 30.7502L69.211 32.2207C69.2551 32.6325 70.4022 32.9707 71.8728 32.9855C73.0492 33.0002 74.0345 33.0149 74.961 33.0149C75.8875 33.0149 76.8728 33.0149 78.0492 32.9855C79.1228 32.9707 80.0051 32.7796 80.4316 32.5296C80.4316 32.5296 80.4316 32.5296 80.4463 32.5296C80.5051 32.4855 80.5639 32.4413 80.5934 32.4119C80.5934 32.4119 80.6081 32.3972 80.6228 32.3825C80.6669 32.3384 80.6963 32.2796 80.6963 32.2207L80.8434 30.7502C82.3581 30.6913 83.8581 30.6031 85.3139 30.4855C87.2845 30.3384 89.1963 30.1472 91.0345 29.9119C91.961 29.7943 92.8728 29.6766 93.7551 29.5443C100.285 28.559 105.711 27.0737 109.373 25.2796C109.77 25.0884 110.137 24.8972 110.49 24.6913L115.535 25.1031C115.799 25.1178 116.064 25.1325 116.343 25.1325C117.049 25.1325 117.696 25.059 118.196 24.9266C118.358 24.8825 118.505 24.8384 118.637 24.7943C118.785 24.7355 118.902 24.6913 118.99 24.6178C119.74 24.0737 120.373 23.5296 120.858 22.9707C120.917 22.9119 120.946 22.8384 120.946 22.7796V14.706L120.932 14.6766Z" stroke="black" stroke-width="0.472973" stroke-linecap="round" stroke-linejoin="round"/>
</g>
<path id="Vector_54" d="M105.693 11.7873C105.702 7.06044 91.922 3.20206 74.9149 3.16941C57.9078 3.13676 44.1135 6.9422 44.1044 11.6691C44.0954 16.396 57.875 20.2544 74.8821 20.287C91.8892 20.3197 105.683 16.5142 105.693 11.7873Z" stroke="black" stroke-width="0.472973" stroke-linecap="round" stroke-linejoin="round"/>
</g>
<defs>
<linearGradient id="paint0_linear_388_236" x1="39.3002" y1="71.7059" x2="110.08" y2="71.7059" gradientUnits="userSpaceOnUse">
<stop stop-color="#25D27F" stop-opacity="0"/>
<stop offset="1" stop-color="#25D27F" stop-opacity="0.7"/>
</linearGradient>
</defs>
</svg>
