<svg width="24" height="24" viewBox="0 0 24 24" fill="none" xmlns="http://www.w3.org/2000/svg">
<path d="M12.0004 3.00002C16.971 3.00002 21.0004 7.02946 21.0004 12C21.0004 16.9706 16.971 21 12.0004 21C7.02983 21 3.00039 16.9706 3.00039 12C3.00039 7.02946 7.02983 3.00002 12.0004 3.00002Z" stroke="#01BC8D" stroke-width="1.2"/>
<path d="M12.0004 2.40002C17.3023 2.40002 21.6004 6.69809 21.6004 12C21.6004 17.302 17.3023 21.6 12.0004 21.6C6.69846 21.6 2.40039 17.302 2.40039 12C2.40039 6.69809 6.69846 2.40002 12.0004 2.40002Z" fill="#01BC8D"/>
<path fill-rule="evenodd" clip-rule="evenodd" d="M8.29667 10.6592L6.59961 12.3563L9.14519 14.9018L10.8422 16.5989L12.5393 14.9018L17.6305 9.81068L15.9334 8.11362L10.8423 13.2048L8.29667 10.6592Z" fill="white"/>
</svg>
