<svg width="24" height="23" viewBox="0 0 24 23" fill="none" xmlns="http://www.w3.org/2000/svg">
<rect x="0.188124" y="0.144772" width="19.9588" height="14.8051" rx="1.93223" transform="matrix(0.97815 -0.207902 0.0495495 0.998772 0.748402 4.7014)" fill="black" stroke="black" stroke-width="0.366108"/>
<rect x="0.188124" y="0.144772" width="19.9588" height="14.8051" rx="1.93223" transform="matrix(0.97815 -0.207902 0.0495495 0.998772 -0.00306279 4.26488)" fill="white" stroke="black" stroke-width="0.366108"/>
<path d="M3.9585 10.9967L6.90457 10.376" stroke="#EBE9E9" stroke-width="1.46443" stroke-linecap="round"/>
<path d="M4.13428 14.1347L7.0232 13.5588" stroke="#EBE9E9" stroke-width="1.46443" stroke-linecap="round"/>
<path d="M3.68262 7.81326L16.9868 4.73736" stroke="#EBE9E9" stroke-width="1.46443" stroke-linecap="round"/>
<path d="M9.45711 9.42806C9.43206 8.92319 9.81258 8.42872 10.307 8.32363L22.2552 5.7841C22.7496 5.67901 23.1707 6.00309 23.1958 6.50796L23.7666 18.0139C23.7916 18.5187 23.4111 19.0132 22.9167 19.1183L10.9685 21.6578C10.4741 21.7629 10.053 21.4388 10.0279 20.934L9.45711 9.42806Z" fill="white" stroke="black" stroke-width="0.366108"/>
<path d="M11.3205 10.7382C11.3004 10.3343 11.6048 9.93868 12.0004 9.85461L20.6644 8.0131C21.06 7.92902 21.3969 8.18829 21.4169 8.59219L21.8252 16.8213C21.8452 17.2252 21.5408 17.6208 21.1453 17.7049L12.4812 19.5464C12.0857 19.6305 11.7487 19.3712 11.7287 18.9673L11.3205 10.7382Z" fill="#66DD8C"/>
<path d="M19.4805 11.9846L19.0544 12.0752L18.729 11.2484C18.5619 10.8276 18.1363 10.6028 17.6699 10.7019L15.2095 11.2248C14.7432 11.324 14.3482 11.7149 14.2262 12.2054L13.9888 13.1518L13.5626 13.2424C13.3777 13.2817 13.2327 13.4702 13.242 13.659L13.2518 13.856C13.2612 14.0448 13.4217 14.1684 13.6066 14.1291L13.7272 14.1034C13.6784 14.4291 13.6545 14.766 13.6708 15.0944L13.7535 16.761C13.7628 16.9498 13.9233 17.0733 14.1083 17.034L14.6711 16.9144C14.856 16.8751 15.0011 16.6866 14.9917 16.4978L14.9652 15.9642L18.3664 15.2413L18.3928 15.7749C18.4022 15.9637 18.5627 16.0872 18.7477 16.0479L19.3105 15.9283C19.4954 15.889 19.6404 15.7005 19.6311 15.5117L19.5485 13.8451C19.5322 13.5168 19.4761 13.2051 19.3959 12.8986L19.5164 12.873C19.7014 12.8337 19.8464 12.6452 19.837 12.4564L19.8273 12.2594C19.826 12.0688 19.6655 11.9453 19.4805 11.9846L19.4805 11.9846ZM14.6094 13.3767L14.8796 12.2739C14.9278 12.0978 15.0748 11.9504 15.2437 11.9145L17.7041 11.3916C17.873 11.3557 18.0314 11.4381 18.0959 11.5904L18.4688 12.5564C18.4873 12.6022 18.4576 12.6583 18.4093 12.6686L14.6785 13.4615C14.6303 13.4718 14.5957 13.4294 14.6094 13.3767L14.6094 13.3767ZM15.4089 14.9158L14.7254 15.0611C14.6128 15.085 14.5115 15.007 14.5058 14.8921L14.4895 14.5637C14.483 14.4323 14.5906 14.3099 14.7201 14.299L15.3606 14.2707C15.4499 14.2684 15.5175 14.3204 15.5376 14.399L15.5969 14.6104C15.6279 14.7448 15.5375 14.8885 15.4089 14.9158L15.4089 14.9158ZM18.719 13.9966C18.7247 14.1115 18.6332 14.2305 18.5206 14.2544L17.8371 14.3997C17.7085 14.427 17.5979 14.3261 17.6235 14.1879L17.6607 13.956C17.6727 13.8705 17.7418 13.7895 17.8215 13.7559L18.4513 13.5142C18.5788 13.4622 18.6966 13.545 18.7032 13.6763L18.719 13.9966Z" fill="black"/>
</svg>
