<svg width="89" height="90" viewBox="0 0 89 90" fill="none" xmlns="http://www.w3.org/2000/svg">
<path d="M0.666016 8C0.666016 3.58172 4.24774 0 8.66602 0H80.666C85.0843 0 88.666 3.58172 88.666 8V74C88.666 78.4183 85.0843 82 80.666 82H8.66601C4.24774 82 0.666016 78.4183 0.666016 74V8Z" fill="#1D1D1D" fill-opacity="0.02"/>
<path d="M44.6816 12.7607C59.6889 12.7607 71.8544 24.9263 71.8545 39.9336C71.8545 54.9409 59.689 67.1064 44.6816 67.1064C29.6744 67.1064 17.5088 54.9409 17.5088 39.9336C17.5089 24.9264 29.6744 12.7608 44.6816 12.7607Z" fill="#1D1D1D" fill-opacity="0.02" stroke="#B5B5B5" stroke-width="0.4"/>
<mask id="mask0_561_41285" style="mask-type:alpha" maskUnits="userSpaceOnUse" x="17" y="12" width="55" height="56">
<path d="M44.666 67.1875C59.6813 67.1875 71.8535 55.0152 71.8535 40C71.8535 24.9848 59.6813 12.8125 44.666 12.8125C29.6508 12.8125 17.4785 24.9848 17.4785 40C17.4785 55.0152 29.6508 67.1875 44.666 67.1875Z" fill="black"/>
</mask>
<g mask="url(#mask0_561_41285)">
<mask id="mask1_561_41285" style="mask-type:alpha" maskUnits="userSpaceOnUse" x="39" y="45" width="13" height="13">
<path d="M39.5862 45.3442C40.0158 47.098 40.6171 50.9655 39.5862 52.4055C38.3267 54.1647 40.704 56.8495 45.0775 56.9705V56.9747C45.129 56.9747 45.1803 56.9743 45.2314 56.9736C45.2824 56.9743 45.3337 56.9747 45.3853 56.9747V56.9705C49.7588 56.8495 52.136 54.1647 50.8765 52.4055C49.8456 50.9655 50.447 47.098 50.8765 45.3442L45.2314 46.4225L39.5862 45.3442Z" fill="#FBEBE4" stroke="black" stroke-width="0.329268" stroke-linecap="round"/>
</mask>
<g mask="url(#mask1_561_41285)">
<path d="M39.5862 45.3442C40.0158 47.098 40.6171 50.9655 39.5862 52.4055C38.3267 54.1647 40.704 56.8495 45.0775 56.9705V56.9747C45.129 56.9747 45.1803 56.9743 45.2314 56.9736C45.2824 56.9743 45.3337 56.9747 45.3853 56.9747V56.9705C49.7588 56.8495 52.136 54.1647 50.8765 52.4055C49.8456 50.9655 50.447 47.098 50.8765 45.3442L45.2314 46.4225L39.5862 45.3442Z" fill="#FBEBE4" stroke="#1D1D1D" stroke-width="0.329268" stroke-linecap="round"/>
<path d="M39.3839 50.9788C44.0337 52.8916 48.0543 49.11 49.4833 46.9801L39.1777 45.5786L39.3839 50.9788Z" fill="#1D1D1D"/>
<path d="M39.5862 45.3442C40.0158 47.098 40.6171 50.9655 39.5862 52.4055C38.3267 54.1647 40.704 56.8495 45.0775 56.9705V56.9747C45.129 56.9747 45.1803 56.9743 45.2314 56.9736C45.2824 56.9743 45.3337 56.9747 45.3853 56.9747V56.9705C49.7588 56.8495 52.136 54.1647 50.8765 52.4055C49.8456 50.9655 50.447 47.098 50.8765 45.3442L45.2314 46.4225L39.5862 45.3442Z" stroke="#1D1D1D" stroke-width="0.329268" stroke-linecap="round"/>
</g>
<mask id="mask2_561_41285" style="mask-type:alpha" maskUnits="userSpaceOnUse" x="21" y="52" width="48" height="23">
<path d="M38.3768 53.1045C37.8047 53.7223 35.9329 54.9854 33.0222 55.0953C29.3837 55.2327 22.4502 57.6354 21.7637 69.5804L45.2679 74.2287L68.772 69.5804C68.0855 57.6354 61.152 55.2327 57.5135 55.0953C54.6028 54.9854 52.731 53.7223 52.1589 53.1045L45.2679 57.5274L38.3768 53.1045Z" fill="#86D993" stroke="black" stroke-width="0.2"/>
</mask>
<g mask="url(#mask2_561_41285)">
<path d="M46.991 53.1045C46.1223 54.0427 43.2799 55.9607 38.8599 56.1276C33.3349 56.3361 22.8061 59.9847 21.7637 78.1234L57.4552 85.7376L93.1467 78.1234C92.1042 59.9847 81.5755 56.3361 76.0505 56.1276C71.6305 55.9607 68.788 54.0427 67.9193 53.1045L59.0756 58.7806C58.0883 59.4144 56.8221 59.4144 55.8347 58.7806L46.991 53.1045Z" fill="#EFEFEF" stroke="#1D1D1D" stroke-width="0.3"/>
<path d="M38.3768 53.1045C37.8047 53.7223 35.9329 54.9854 33.0222 55.0953C29.3837 55.2327 22.4502 57.6354 21.7637 69.5804L45.2679 73.3141L68.772 69.5804C68.0855 57.6354 61.152 55.2327 57.5135 55.0953C54.6028 54.9854 52.731 53.7223 52.1589 53.1045L45.2679 57.5274L38.3768 53.1045Z" stroke="#1D1D1D" stroke-width="0.329268"/>
</g>
<path d="M49.9512 53.4229C50.1416 52.7464 50.8403 52.3448 51.5225 52.5244C52.2117 52.7061 52.6229 53.4123 52.4414 54.1016C52.4276 54.1519 52.3913 54.2745 52.3555 54.3662V54.3672C52.3051 54.5024 52.2296 54.6812 52.1221 54.8887C51.9072 55.3034 51.5597 55.8395 51.0156 56.3691C49.8996 57.4555 48.0726 58.4053 45.209 58.4053C42.3457 58.4052 40.5193 57.4554 39.4033 56.3691C38.8593 55.8395 38.5108 55.3034 38.2959 54.8887C38.1885 54.6813 38.1139 54.5024 38.0635 54.3672L38.0625 54.3662L37.9766 54.1016C37.7952 53.4124 38.2073 52.7061 38.8965 52.5244C39.5786 52.3449 40.2774 52.7464 40.4678 53.4229L40.4688 53.4268C40.4709 53.4333 40.4753 53.4466 40.4824 53.4658C40.5001 53.5133 40.5341 53.5954 40.5889 53.7012C40.6986 53.913 40.8901 54.2128 41.2041 54.5186C41.8043 55.1029 42.9696 55.8241 45.209 55.8242C47.4486 55.8242 48.6146 55.103 49.2148 54.5186C49.5288 54.2128 49.7203 53.913 49.8301 53.7012C49.8848 53.5955 49.9188 53.5133 49.9365 53.4658C49.9437 53.4466 49.9481 53.4333 49.9502 53.4268L49.9512 53.4229Z" fill="#EFEFEF" stroke="#1D1D1D" stroke-width="0.2" stroke-linecap="round"/>
<path d="M35.5473 35.0941C35.8969 34.5813 36.8779 35.0164 37.3247 35.2981L37.9658 40.6012C37.0333 41.3297 36.0426 38.9112 35.5473 38.1536C35.0519 37.396 35.1102 35.7351 35.5473 35.0941Z" fill="#FBEBE4" stroke="#1D1D1D" stroke-width="0.2"/>
<path d="M37.3976 36.3947C37.1182 36.1001 36.4913 35.5472 36.2194 35.6923C35.8795 35.8736 35.6982 36.44 35.7888 36.8479" stroke="#1D1D1D" stroke-width="0.2" stroke-linecap="round"/>
<path d="M36.6367 37.5054C36.6367 36.8629 36.9935 36.6629 37.15 36.7083C37.4478 36.793 37.5918 38.7451 37.6242 39.4859C37.0067 38.5522 36.6367 37.9925 36.6367 37.5054Z" stroke="#1D1D1D" stroke-width="0.2" stroke-linecap="round"/>
<path d="M54.8199 35.1253C54.4702 34.6125 53.4893 35.0477 53.0425 35.3293L52.4014 40.6325C53.3339 41.3609 54.3246 38.9424 54.8199 38.1848C55.3153 37.4272 55.257 35.7664 54.8199 35.1253Z" fill="#FBEBE4" stroke="#1D1D1D" stroke-width="0.2"/>
<path d="M52.9676 36.4254C53.2471 36.1309 53.874 35.578 54.1459 35.723C54.4858 35.9043 54.667 36.4708 54.5764 36.8786" stroke="#1D1D1D" stroke-width="0.2" stroke-linecap="round"/>
<path d="M53.7305 37.5352C53.7305 36.8927 53.3737 36.6927 53.2172 36.7381C52.9194 36.8228 52.7753 38.7749 52.743 39.5157C53.3605 38.582 53.7305 38.0223 53.7305 37.5352Z" stroke="#1D1D1D" stroke-width="0.2" stroke-linecap="round"/>
<path d="M44.8554 26.0783C41.607 26.0599 37.9215 27.9911 37.2796 32.0261C36.5897 36.3628 37.9641 44.3387 40.0213 46.6225C41.7823 48.5777 44.1338 49.0961 45.7327 49.1265H45.9302C47.3703 49.0992 49.2986 48.7116 50.9628 46.2829C52.7861 43.6217 53.6089 35.994 52.919 31.6573C52.2771 27.6223 48.1038 26.0599 44.8554 26.0783Z" fill="#FBEBE4" stroke="#1D1D1D" stroke-width="0.2"/>
<path d="M42.6426 44.2085C42.6426 44.2085 44.3093 44.7322 45.382 44.7322C46.4547 44.7322 48.1362 44.2085 48.1362 44.2085" stroke="#1D1D1D" stroke-width="0.2" stroke-linecap="round"/>
<path d="M44.1367 45.2246C44.1367 45.2246 44.9161 45.4798 45.4046 45.4798C45.8931 45.4798 46.6384 45.2246 46.6384 45.2246" stroke="#1D1D1D" stroke-width="0.2" stroke-linecap="round"/>
<path d="M43.3008 34.3774L44.5258 36.3721V41.7117C44.6439 41.8771 44.9936 42.1937 45.4472 42.137" stroke="#1D1D1D" stroke-width="0.329268" stroke-linecap="round"/>
<path d="M39.7695 36.774C40.1627 36.5832 41.1425 36.2378 41.9159 36.3827C42.6893 36.5277 43.0304 36.704 43.1042 36.774" stroke="#1D1D1D" stroke-width="0.2" stroke-linecap="round"/>
<path d="M43.2901 36.411C42.8107 36.1346 41.6264 35.6647 40.7246 35.9964" stroke="#1D1D1D" stroke-width="0.131707" stroke-linecap="round"/>
<path d="M42.5488 36.9562C42.5488 37.2731 42.2593 37.53 41.9022 37.53C41.5451 37.53 41.2973 37.2753 41.2556 36.9562C41.2276 36.7428 41.2765 36.4877 41.4202 36.3825C41.5319 36.3006 41.9272 36.4155 42.0834 36.4155C42.4405 36.4155 42.5488 36.6393 42.5488 36.9562Z" fill="#1D1D1D"/>
<path d="M50.6523 36.7745C50.2591 36.5837 49.2794 36.2383 48.506 36.3832C47.7325 36.5282 47.3915 36.7045 47.3176 36.7745" stroke="#1D1D1D" stroke-width="0.2" stroke-linecap="round"/>
<path d="M47.1318 36.4115C47.6112 36.1351 48.7955 35.6652 49.6973 35.9969" stroke="#1D1D1D" stroke-width="0.131707" stroke-linecap="round"/>
<path d="M47.877 36.9567C47.877 37.2736 48.1665 37.5305 48.5236 37.5305C48.8807 37.5305 49.1285 37.2758 49.1702 36.9567C49.1982 36.7432 49.1493 36.4882 49.0056 36.3829C48.8939 36.3011 48.4986 36.416 48.3424 36.416C47.9852 36.416 47.877 36.6398 47.877 36.9567Z" fill="#1D1D1D"/>
<path d="M40.2088 33.7445C39.5517 33.6999 39.0744 34.7492 38.918 35.2794C39.27 34.8049 39.7687 34.8051 40.2088 34.6655C40.5609 34.5539 42.6438 34.8795 43.6413 35.0562L43.4652 34.219C42.6536 34.0795 40.866 33.7892 40.2088 33.7445Z" fill="#1D1D1D"/>
<path d="M50.2261 33.7445C50.8697 33.6999 51.337 34.7492 51.4902 35.2794C51.1455 34.8049 50.6571 34.8051 50.2261 34.6655C49.8814 34.5539 47.8416 34.8795 46.8647 35.0562L47.0371 34.219C47.832 34.0795 49.5826 33.7892 50.2261 33.7445Z" fill="#1D1D1D"/>
<path d="M50.3106 24.3418C47.6322 21.9419 43.0224 22.4164 40.9667 24.1139C39.6964 25.1629 39.0587 28.1611 40.056 29.117C41.0533 30.0729 42.555 26.7683 44.2171 29.5298C45.8792 32.2913 49.5115 31.9847 51.3953 32.3034C52.9022 32.5583 53.1183 34.2306 53.038 35.0349C53.0302 35.9676 53.1692 37.043 53.7873 33.8833C54.5599 29.9336 53.6585 27.3416 50.3106 24.3418Z" fill="#1D1D1D" stroke="#1D1D1D" stroke-width="0.329268"/>
<path d="M48.7744 31.2035C46.638 30.9284 45.4295 29.6767 45.0586 28.9619C45.4227 29.6093 46.7837 30.7059 49.5836 30.9001C52.3835 31.0943 53.043 32.1948 53.0227 32.7208C52.9418 31.6082 51.4448 31.5475 48.7744 31.2035Z" fill="white"/>
<path d="M41.3418 24.9276C42.3566 24.0451 44.0401 22.9182 47.1454 23.4858" stroke="white" stroke-width="0.329268" stroke-linecap="round"/>
<path d="M37.7692 34.057C38.0864 32.4095 39.9992 32.3933 40.5589 31.4378C41.6672 29.637 41.2365 26.8347 40.8825 25.6586C40.6323 24.1027 36.946 25.1708 36.442 26.8015C35.8966 28.5664 36.442 28.7496 35.9359 30.1416C35.2693 31.9753 36.1436 33.9659 36.442 34.661C36.7405 35.3562 37.452 35.7044 37.7692 34.057Z" fill="#1D1D1D" stroke="#1D1D1D" stroke-width="0.329268"/>
<path d="M40.4558 25.6871C40.0671 25.4227 38.9855 25.2481 38.2476 25.9471" stroke="white" stroke-width="0.329268" stroke-linecap="round"/>
<g filter="url(#filter0_f_561_41285)">
<circle cx="40.3297" cy="43.7252" r="13.1735" fill="url(#paint0_radial_561_41285)"/>
</g>
</g>
<circle opacity="0.8" cx="44.666" cy="40" r="29.8" stroke="#1D1D1D" stroke-width="0.4"/>
<path d="M45.665 74.667C49.7152 74.667 52.998 77.9498 52.998 82C52.998 86.0502 49.7152 89.333 45.665 89.333C41.6148 89.333 38.332 86.0502 38.332 82C38.332 77.9498 41.6148 74.667 45.665 74.667ZM48.0225 79.6426C47.7621 79.3822 47.3395 79.3822 47.0791 79.6426L45.665 81.0566L44.251 79.6426C43.9906 79.3822 43.568 79.3822 43.3076 79.6426C43.0475 79.9028 43.0476 80.3246 43.3076 80.585L44.7217 82L43.3076 83.4141C43.0476 83.6743 43.0476 84.0962 43.3076 84.3564C43.568 84.6168 43.9906 84.6168 44.251 84.3564L45.665 82.9424L47.0791 84.3564C47.3395 84.6168 47.7621 84.6168 48.0225 84.3564C48.2824 84.0962 48.2824 83.6743 48.0225 83.4141L46.6074 82L48.0225 80.585C48.2823 80.3247 48.2824 79.9028 48.0225 79.6426Z" fill="#F65454"/>
<defs>
<filter id="filter0_f_561_41285" x="23.1562" y="26.5518" width="34.3477" height="34.3467" filterUnits="userSpaceOnUse" color-interpolation-filters="sRGB">
<feFlood flood-opacity="0" result="BackgroundImageFix"/>
<feBlend mode="normal" in="SourceGraphic" in2="BackgroundImageFix" result="shape"/>
<feGaussianBlur stdDeviation="2" result="effect1_foregroundBlur_561_41285"/>
</filter>
<radialGradient id="paint0_radial_561_41285" cx="0" cy="0" r="1" gradientUnits="userSpaceOnUse" gradientTransform="translate(40.3297 43.7252) rotate(90) scale(13.1735)">
<stop stop-color="white"/>
<stop offset="1" stop-color="white" stop-opacity="0.6"/>
</radialGradient>
</defs>
</svg>
