<svg width="23" height="20" viewBox="0 0 23 20" fill="none" xmlns="http://www.w3.org/2000/svg">
<path fill-rule="evenodd" clip-rule="evenodd" d="M10.9225 0.0754395C16.3058 0.0754395 20.688 4.36151 20.8428 9.70731L20.847 9.99993H18.6416C18.6416 5.73682 15.1857 2.28088 10.9225 2.28088C6.65943 2.28088 3.20349 5.73682 3.20349 9.99993C3.20349 14.263 6.65943 17.719 10.9225 17.719C12.8601 17.719 14.6821 17.0033 16.0871 15.7369L16.3307 15.5077L17.876 17.0813C16.033 18.8911 13.5579 19.9244 10.9225 19.9244C5.44139 19.9244 0.998047 15.4811 0.998047 9.99993C0.998047 4.51879 5.44139 0.0754395 10.9225 0.0754395ZM22.5009 9.99994L19.7441 13.3081L16.9873 9.99994H22.5009ZM11.7764 9.73466V5.64966H9.77637V10.5639L12.5693 13.3568L13.9835 11.9426L11.7764 9.73466Z" fill="#7A78E4"/>
</svg>
