<svg width="21" height="20" viewBox="0 0 21 20" fill="none" xmlns="http://www.w3.org/2000/svg">
<rect x="0.680054" width="20" height="20" rx="10" fill="#8C8C8C" fill-opacity="0.08"/>
<path fill-rule="evenodd" clip-rule="evenodd" d="M8.959 10.0011L11.9952 12.987L13.9117 11.1026C14.2544 10.7991 14.7787 10.8126 15.1047 11.1333C15.4308 11.4539 15.4445 11.9694 15.136 12.3064L12.6069 14.7937C12.2672 15.1222 11.7223 15.1222 11.3826 14.7937L7.73377 11.2049V13.338C7.73377 13.8087 7.34565 14.1904 6.86689 14.1904C6.38812 14.1904 6 13.8087 6 13.338V6.66137C6 6.1906 6.38812 5.80897 6.86689 5.80897C7.34565 5.80897 7.73377 6.1906 7.73377 6.66137V8.79445L11.3821 5.20659C11.7217 4.87783 12.2668 4.87783 12.6064 5.20659L15.1374 7.69342C15.446 8.03038 15.4322 8.5459 15.1062 8.86653C14.7801 9.18715 14.2558 9.20065 13.9131 8.89724L11.9966 7.01279L8.959 10.0011ZM11.9966 9.14773C11.6456 9.14754 11.329 9.35533 11.1945 9.67418C11.0601 9.99303 11.1342 10.3601 11.3823 10.6043C11.6305 10.8484 12.0038 10.9215 12.3282 10.7895C12.6525 10.6574 12.864 10.3462 12.864 10.0011C12.8641 9.77474 12.7728 9.55764 12.6101 9.39753C12.4475 9.23741 12.2268 9.14739 11.9966 9.14727V9.14773Z" fill="#8C8C8C" fill-opacity="0.4"/>
</svg>
