<svg width="32" height="33" viewBox="0 0 32 33" fill="none" xmlns="http://www.w3.org/2000/svg">
<path d="M15.999 9.16602C19.1334 9.16602 21.807 11.133 22.8564 13.8994C22.4258 14.0076 22.019 14.2098 21.6484 14.4912C21.3939 13.8009 21.0218 13.1411 20.5723 12.6104C19.837 11.7424 18.7284 11.0772 17.6387 10.751C18.3621 12.2855 18.6828 14.1243 18.7744 15.8184H20.4883C20.2448 16.2256 20.0436 16.682 19.8926 17.1748H18.7754C18.6838 18.869 18.3622 20.7163 17.6387 22.251C18.3948 22.0246 19.1596 21.63 19.8027 21.1201C19.9228 21.5936 20.0877 22.0379 20.292 22.4424C19.085 23.3157 17.6028 23.833 15.999 23.833C11.949 23.8328 8.66602 20.5491 8.66602 16.499C8.66619 12.4491 11.9491 9.16619 15.999 9.16602ZM9.99902 17.1748C10.1417 18.3033 10.6964 19.5139 11.4316 20.3818C12.1669 21.2497 13.2727 21.9247 14.3623 22.251C13.6388 20.7163 13.2976 18.869 13.2061 17.1748H9.99902ZM14.5547 17.1748C14.6654 18.9634 15.1762 20.7018 15.999 22.1846C16.8441 20.6626 17.3383 18.9124 17.4443 17.1748H14.5547ZM14.3633 10.751C13.2737 11.0772 12.1669 11.7465 11.4316 12.6143C10.6964 13.4821 10.1418 14.6899 9.99902 15.8184H13.2061C13.2976 14.1243 13.6398 12.2855 14.3633 10.751ZM15.999 10.8145C15.154 12.3364 14.6597 14.0808 14.5537 15.8184H17.4424C17.3366 14.0809 16.8438 12.3364 15.999 10.8145Z" fill="#1D1D1D"/>
<path d="M24.2083 18.758C25.3603 18.9692 26.3779 19.3148 26.3683 20.6684C26.3587 21.782 25.5523 22.5788 24.2755 22.7516V23.7596H23.0851V22.742C21.7699 22.5308 20.9731 21.7052 20.9635 20.5244L22.3747 20.5436C22.4227 21.1964 22.9411 21.6476 23.7667 21.6476C24.4291 21.6476 24.9187 21.3596 24.9187 20.8316C24.9187 20.2652 24.3715 20.15 23.2483 19.9292C22.1155 19.718 21.1171 19.3532 21.1171 17.99C21.1171 16.9436 21.8755 16.166 23.0851 15.9932V14.9756H24.2755V16.0028C25.4755 16.2044 26.2147 16.9628 26.2339 18.0668H24.8227C24.7555 17.5004 24.3235 17.1068 23.6227 17.1068C23.0083 17.1068 22.5667 17.366 22.5667 17.8844C22.5667 18.4316 23.0947 18.5468 24.2083 18.758Z" fill="#1D1D1D"/>
</svg>
