<?xml version="1.0" encoding="UTF-8"?>
<svg width="48px" height="48px" viewBox="0 0 48 48" version="1.1" xmlns="http://www.w3.org/2000/svg" xmlns:xlink="http://www.w3.org/1999/xlink">
    <!-- Generator: Sketch 61 (89581) - https://sketch.com -->
    <title>Icon/shandui</title>
    <desc>Created with Sketch.</desc>
    <g id="Icon/shandui" stroke="none" stroke-width="1" fill="none" fill-rule="evenodd">
        <g id="icon_duihuan" transform="translate(5.044340, 3.375172)">
            <path d="M10.6248127,9.6248277 L32.5592346,9.6248277 C33.6638041,9.6248277 34.5592346,10.5202582 34.5592346,11.6248277 C34.5592346,11.7448109 34.5484377,11.8645507 34.5269744,11.9825986 L31.2542471,29.9825986 C31.0813414,30.93358 30.2530796,31.6248277 29.2865073,31.6248277 L7.35208546,31.6248277 C6.24751596,31.6248277 5.35208546,30.7293972 5.35208546,29.6248277 C5.35208546,29.5048445 5.36288239,29.3851047 5.38434564,29.2670568 L8.65707291,11.2670568 C8.82997862,10.3160754 9.65824044,9.6248277 10.6248127,9.6248277 Z" id="矩形" fill-opacity="0.32" fill="#0AC7A9"></path>
            <rect id="矩形备份-2" fill="#FFFFFF" x="10.95566" y="21.6248277" width="15" height="2" rx="1"></rect>
            <path d="M4.84040835,14.7550536 C5.33974877,14.8719285 5.66331913,15.3441364 5.60622105,15.8415521 L5.58619388,15.9566376 L2.07894581,30.9411301 C2.02648954,31.1652461 2,31.3946546 2,31.6248277 C2,33.2225086 3.24891996,34.5284886 4.82372721,34.619735 L5,34.6248277 L34.053,34.624 L32.1559618,32.7272663 C31.7954778,32.3667823 31.7677483,31.7995512 32.0727732,31.40726 L32.1559618,31.3130527 C32.5464861,30.9225284 33.179651,30.9225284 33.5701753,31.3130527 L33.5701753,31.3130527 L37.1057092,34.8485866 C37.4962335,35.2391109 37.4962335,35.8722759 37.1057092,36.2628002 L37.1057092,36.2628002 L37.0821707,36.2854384 L33.5466368,39.8209723 C33.1561125,40.2114966 32.5229476,40.2114966 32.1324233,39.8209723 C31.741899,39.430448 31.741899,38.7972831 32.1324233,38.4067588 L32.1324233,38.4067588 L33.915,36.624 L5,36.6248277 C2.23857625,36.6248277 -3.55271368e-15,34.3862515 -3.55271368e-15,31.6248277 C-3.55271368e-15,31.3371113 0.0248339452,31.0501118 0.0741342311,30.7670127 L0.131576349,30.4853317 L3.63882442,15.5008392 C3.76468967,14.9630879 4.30265712,14.6291884 4.84040835,14.7550536 Z M8.15122262,0.292893219 C8.54174691,0.683417511 8.54174691,1.31658249 8.15122262,1.70710678 L6.233,3.624 L33.9113201,3.6248277 C36.6727438,3.6248277 38.9113201,5.86340395 38.9113201,8.6248277 C38.9113201,8.91254409 38.8864861,9.19954361 38.8371858,9.48264269 L38.7797437,9.76432371 L35.214752,24.9955224 C35.0888867,25.5332736 34.5509193,25.8671732 34.013168,25.7413079 C33.5138276,25.6244331 33.1902572,25.1522252 33.2473553,24.6548095 L33.2673825,24.539724 L36.8323742,9.30852531 C36.8848305,9.08440927 36.9113201,8.85500081 36.9113201,8.6248277 C36.9113201,7.02714682 35.6624001,5.72116682 34.0875928,5.6299204 L33.9113201,5.6248277 L6.411,5.624 L8.17476112,7.38659929 C8.56528541,7.77712358 8.56528541,8.41028856 8.17476112,8.80081285 C7.78423683,9.19133714 7.15107185,9.19133714 6.76054756,8.80081285 L3.22501365,5.26527894 L3.21381836,5.25477631 L3.20147515,5.24264069 L3.20147515,5.24264069 C2.81095086,4.8521164 2.81095086,4.21895142 3.20147515,3.82842712 L6.73700905,0.292893219 C7.12753335,-0.0976310729 7.76069833,-0.0976310729 8.15122262,0.292893219 Z" id="形状结合" fill="#0AC7A9" fill-rule="nonzero"></path>
        </g>
        <rect id="矩形" fill="#FFFFFF" x="19" y="19" width="15" height="2" rx="1"></rect>
    </g>
</svg>