<?xml version="1.0" encoding="UTF-8"?>
<svg width="40px" height="40px" viewBox="0 0 40 40" version="1.1" xmlns="http://www.w3.org/2000/svg" xmlns:xlink="http://www.w3.org/1999/xlink">
    <!-- Generator: Sketch 59.1 (86144) - https://sketch.com -->
    <title>Icon/exchange</title>
    <desc>Created with Sketch.</desc>
    <g id="组件" stroke="none" stroke-width="1" fill="none" fill-rule="evenodd">
        <g id="Icon/exchange" fill-rule="nonzero">
            <g id="币币交易" transform="translate(4.000000, 6.000000)">
                <path d="M8.33268763,8 L26.3565668,8 C27.2642099,8 28,8.73262495 28,9.63636364 C28,9.73453171 27.991128,9.83250064 27.9734913,9.92908528 L25.7577281,20.5854433 C25.6156486,21.363519 24.9350521,21.9290853 24.1408036,21.9290853 L6.11692452,21.9290853 C5.2092814,21.9290853 4.47349127,21.1964603 4.47349127,20.2927216 C4.47349127,20.1945536 4.48236329,20.0965846 4.5,20 L6.71576313,9.34364199 C6.85784263,8.5655663 7.53843913,8 8.33268763,8 Z" id="矩形" fill-opacity="0.32" fill="#58CCB6"></path>
                <rect id="矩形备份-2" fill="#FFFFFF" x="9" y="16" width="12" height="2" rx="1"></rect>
                <path d="M7.24264069,0.292893219 C7.63316498,0.683417511 7.63316498,1.31658249 7.24264069,1.70710678 L5.32441807,3.624 L27.0027382,3.6248277 C29.7641619,3.6248277 32.0027382,5.86340395 32.0027382,8.6248277 C32.0027382,8.91254409 31.9779042,9.19954361 31.9286039,9.48264269 L31.8711618,9.76432371 L30.3061701,18.9955224 C30.1803048,19.5332736 29.6423374,19.8671732 29.1045861,19.7413079 C28.6052457,19.6244331 28.2816753,19.1522252 28.3387734,18.6548095 L28.3588006,18.539724 L29.9237923,9.30852531 C29.9762486,9.08440927 30.0027382,8.85500081 30.0027382,8.6248277 C30.0027382,7.02714682 28.7538182,5.72116682 27.1790109,5.6299204 L27.0027382,5.6248277 L5.50241807,5.624 L7.26617919,7.38659929 C7.65670348,7.77712358 7.65670348,8.41028856 7.26617919,8.80081285 C6.8756549,9.19133714 6.24248992,9.19133714 5.85196563,8.80081285 L2.31643172,5.26527894 L2.30523643,5.25477631 L2.29289322,5.24264069 C1.90236893,4.8521164 1.90236893,4.21895142 2.29289322,3.82842712 L5.82842712,0.292893219 C6.21895142,-0.097631073 6.8521164,-0.097631073 7.24264069,0.292893219 Z" id="形状结合" fill="#58CCB6"></path>
                <path d="M5.24264069,10.2928932 C5.63316498,10.6834175 5.63316498,11.3165825 5.24264069,11.7071068 L3.32441807,13.624 L25.0027382,13.6248277 C27.7641619,13.6248277 30.0027382,15.8634039 30.0027382,18.6248277 C30.0027382,18.9125441 29.9779042,19.1995436 29.9286039,19.4826427 L29.8711618,19.7643237 L28.3061701,28.9955224 C28.1803048,29.5332736 27.6423374,29.8671732 27.1045861,29.7413079 C26.6052457,29.6244331 26.2816753,29.1522252 26.3387734,28.6548095 L26.3588006,28.539724 L27.9237923,19.3085253 C27.9762486,19.0844093 28.0027382,18.8550008 28.0027382,18.6248277 C28.0027382,17.0271468 26.7538182,15.7211668 25.1790109,15.6299204 L25.0027382,15.6248277 L3.50241807,15.624 L5.26617919,17.3865993 C5.65670348,17.7771236 5.65670348,18.4102886 5.26617919,18.8008128 C4.8756549,19.1913371 4.24248992,19.1913371 3.85196563,18.8008128 L0.316431717,15.2652789 L0.305236427,15.2547763 L0.292893218,15.2426407 C-0.0976310725,14.8521164 -0.0976310725,14.2189514 0.292893218,13.8284271 L3.82842712,10.2928932 C4.21895142,9.90236893 4.8521164,9.90236893 5.24264069,10.2928932 Z" id="形状结合-copy" fill="#58CCB6" transform="translate(15.001369, 19.883924) scale(-1, -1) translate(-15.001369, -19.883924) "></path>
                <rect id="矩形" fill="#FFFFFF" x="11" y="12" width="12" height="2" rx="1"></rect>
            </g>
        </g>
    </g>
</svg>