<?xml version="1.0" encoding="UTF-8"?>
<svg width="48px" height="48px" viewBox="0 0 48 48" version="1.1" xmlns="http://www.w3.org/2000/svg" xmlns:xlink="http://www.w3.org/1999/xlink">
    <!-- Generator: Sketch 52.2 (67145) - http://www.bohemiancoding.com/sketch -->
    <title>Icon/OTC</title>
    <desc>Created with Sketch.</desc>
    <g id="Icon/OTC" stroke="none" stroke-width="1" fill="none" fill-rule="evenodd">
        <g id="Group-11" transform="translate(3.000000, 6.000000)">
            <g id="Group-10" transform="translate(0.000000, 17.181818)" fill-rule="nonzero">
                <path d="M1.42108547e-13,4.06013712 L1.42108547e-13,12.0586592 C0.552448423,12.684786 1.31077911,12.9978493 2.27499206,12.9978493 L6.67628102,11.8318786 C7.99357698,11.543781 9.17034655,11.543781 10.2065897,11.8318786 L19.8392296,17.1554284 C21.6722834,17.8586166 23.2815702,17.8586166 24.6670901,17.1554284 C26.0526099,16.4522402 31.4403977,13.5734883 40.8304534,8.51917264 C41.6785247,7.77733044 41.9326958,6.89403487 41.5929667,5.86928595 L40.6649919,4.6664226 C39.9212031,4.23575924 39.0121382,4.09602075 37.9377972,4.24720713 C36.8634561,4.39839352 33.7925464,5.18352453 28.725068,6.60260017 L28.1280731,6.75699772 C27.8013433,5.37307885 27.0953036,4.53648199 26.0099537,4.24720713 C23.6199498,4.26446222 22.4249479,4.27308977 22.4249479,4.27308977 C21.4434654,4.20674861 20.9058993,4.1069056 20.8122496,3.97356076 L13.6742538,0.402346873 C12.9099944,0.134115624 11.7541064,1.77635684e-14 10.2065897,1.77635684e-14 C8.65907305,1.77635684e-14 5.76034001,0.321479262 1.51039059,0.964437786 C0.50346353,1.4340994 1.42159217e-13,1.8442183 1.42108547e-13,2.19479448 C1.42108547e-13,2.54537067 1.42108547e-13,3.16715155 1.42108547e-13,4.06013712 Z" id="Path-5" stroke="#0AC7A9" stroke-width="1.6"></path>
                <rect id="Rectangle" fill="#0AC7A9" x="2.24" y="2.98666667" width="2.98666667" height="1.49333333"></rect>
                <rect id="Rectangle-Copy-18" fill="#0AC7A9" x="2.24" y="5.97333333" width="2.98666667" height="1.49333333"></rect>
                <rect id="Rectangle-Copy-19" fill="#0AC7A9" x="2.24" y="8.96" width="2.98666667" height="1.49333333"></rect>
                <path d="M15.7246724,8.24197667 L19.6970017,9.99460212 C20.5412173,10.2861808 21.1610817,10.4319701 21.556595,10.4319701 C22.149865,10.4319701 22.3092299,10.5346964 23.6664643,10.2508466 C25.0236986,9.96699676 25.309691,9.71228489 25.8308308,9.4279335 C26.3519705,9.1435821 27.3345771,8.37216268 28.0781689,6.79019943" id="Path-6" stroke="#0AC7A9" stroke-width="1.6"></path>
            </g>
            <g id="Group-2" transform="translate(14.318182, 0.000000)">
                <path d="M8.59090909,17.1818182 C3.84628101,17.1818182 0,13.3355372 0,8.59090909 C0,3.84628101 3.84628101,0 8.59090909,0 C13.3355372,0 17.1818182,3.84628101 17.1818182,8.59090909 C17.1818182,13.3355372 13.3355372,17.1818182 8.59090909,17.1818182 Z M8.59090909,15.9545455 C12.6577332,15.9545455 15.9545455,12.6577332 15.9545455,8.59090909 C15.9545455,4.52408502 12.6577332,1.22727273 8.59090909,1.22727273 C4.52408502,1.22727273 1.22727273,4.52408502 1.22727273,8.59090909 C1.22727273,12.6577332 4.52408502,15.9545455 8.59090909,15.9545455 Z" id="形状结合" fill="#0AC7A9"></path>
                <circle id="椭圆形" fill="#0AC7A9" opacity="0.315894717" cx="8.59090909" cy="8.59090909" r="5.72727273"></circle>
                <path d="M8.63147727,8.06590909 C7.54806818,7.78431818 7.19965909,7.49556818 7.19965909,7.04215909 C7.19965909,6.52193182 7.67931818,6.15681818 8.48829545,6.15681818 C9.33784091,6.15681818 9.65284091,6.5625 9.68147727,7.15909091 L10.73625,7.15909091 C10.7052273,6.33579545 10.2017045,5.58647727 9.20420455,5.34068182 L9.20420455,4.29545455 L7.77238636,4.29545455 L7.77238636,5.32636364 C6.84647727,5.52920455 6.10193182,6.12579545 6.10193182,7.04931818 C6.10193182,8.15181818 7.01590909,8.70068182 8.34511364,9.02045455 C9.54068182,9.30681818 9.77693182,9.72443182 9.77693182,10.1730682 C9.77693182,10.5 9.54545455,11.025 8.48829545,11.025 C7.50511364,11.025 7.11613636,10.5835227 7.06602273,10.0227273 L6.01363636,10.0227273 C6.07329545,11.0679545 6.85363636,11.6526136 7.77238636,11.8506818 L7.77238636,12.8863636 L9.20420455,12.8863636 L9.20420455,11.8602273 C10.1325,11.68125 10.8746591,11.1443182 10.8746591,10.1635227 C10.8746591,8.81284091 9.71488636,8.34988636 8.63147727,8.06590909 Z" id="路径" fill="#FFFFFF" fill-rule="nonzero"></path>
            </g>
        </g>
    </g>
</svg>