<svg width="12" height="12" viewBox="0 0 12 12" fill="none" xmlns="http://www.w3.org/2000/svg">
<path fill-rule="evenodd" clip-rule="evenodd" d="M5.73668 2.70834H6.25907L7.54065 1.42676L8.31204 2.19815L7.80185 2.70834L9.95213 2.70252C10.2534 2.70252 10.4976 2.94673 10.4976 3.24797V4.73168C10.4976 5.03293 10.2534 5.27714 9.95213 5.27714L2.04787 5.28295C1.74662 5.28295 1.50241 5.03875 1.50241 4.7375V3.25379C1.50241 2.95255 1.74662 2.70834 2.04787 2.70834H4.1939L3.6837 2.19815L4.45509 1.42676L5.73668 2.70834ZM2.48423 4.30114V3.69016L9.51577 3.68434V4.29532L2.48423 4.30114Z" fill="white"/>
<path d="M2.23722 9.40901V5.77228H3.21904V9.40901C3.21904 9.46926 3.26788 9.5181 3.32813 9.5181H8.66965C8.7299 9.5181 8.77874 9.46926 8.77874 9.40901V5.77228H9.76056V9.40901C9.76056 10.0115 9.27214 10.4999 8.66965 10.4999H3.32813C2.72564 10.4999 2.23722 10.0115 2.23722 9.40901Z" fill="white"/>
<path d="M5.50995 5.99476H6.49176V8.47181H5.50995V5.99476Z" fill="white"/>
</svg>
