<svg width="24" height="24" viewBox="0 0 24 24" fill="none" xmlns="http://www.w3.org/2000/svg">
<path d="M15.3921 3.61279C17.1991 4.33879 18.7851 5.64979 19.8341 7.46779C20.8621 9.24779 21.2071 11.2298 20.9631 13.1218" stroke="#8C8C8C" stroke-width="1.5" stroke-linecap="round" stroke-linejoin="round"/>
<path d="M17.5601 19.1187C16.0281 20.3207 14.0991 21.0387 12.0001 21.0387C9.94506 21.0387 8.05506 20.3467 6.53906 19.1897" stroke="#8C8C8C" stroke-width="1.5" stroke-linecap="round" stroke-linejoin="round"/>
<path d="M8.60693 3.61279C6.80093 4.33879 5.21493 5.64979 4.16493 7.46779C3.13693 9.24779 2.79193 11.2298 3.03593 13.1218" stroke="#8C8C8C" stroke-width="1.5" stroke-linecap="round" stroke-linejoin="round"/>
<path d="M7.51648 7.55701C9.99158 5.08191 14.0043 5.08191 16.4794 7.55701C18.9545 10.0321 18.9545 14.0448 16.4794 16.5199C14.0043 18.995 9.99158 18.995 7.51648 16.5199C5.04138 14.0448 5.04138 10.0321 7.51648 7.55701ZM9.89832 12.0385L11.9979 14.1381L14.0975 12.0385L11.9979 9.93884L9.89832 12.0385Z" fill="#01BC8D"/>
</svg>
