<svg width="39" height="12" viewBox="0 0 39 12" fill="none" xmlns="http://www.w3.org/2000/svg">
<path fill-rule="evenodd" clip-rule="evenodd" d="M11.8014 11.6753L15.4535 0.250692H18.7121L15.0598 11.6753H11.8014ZM10.3448 0.253811L7.41354 5.09673C6.66735 6.36512 6.23119 7.00578 6.02145 7.80732H5.97682C6.02873 6.79118 5.87935 5.54374 5.86526 4.83868L5.5416 0.253811H0.0563698L0 0.561103C1.40924 0.561103 2.24492 1.23273 2.47486 2.60653L3.544 11.6753H6.91984L13.7457 0.253811H10.3448ZM35.6855 11.6753L35.5955 9.97619L31.5266 9.97307L30.6944 11.6751H27.1568L33.5714 0.272307H37.9137L39 11.6751L35.6855 11.6753ZM35.3118 4.93629C35.2756 4.09196 35.2453 2.94591 35.3059 2.25244H35.2578C35.0595 2.81956 34.2076 4.5227 33.833 5.36035L32.6206 7.86459H35.4776L35.3118 4.93629ZM22.133 12C19.8325 12 18.3058 11.3076 17.2157 10.6904L18.768 8.44129C19.7465 8.9605 20.5148 9.55971 22.2824 9.55971C22.8508 9.55971 23.3985 9.41955 23.7095 8.90858C24.1628 8.16542 23.605 7.76565 22.332 7.08199L21.7035 6.69425C19.8165 5.47087 19.0003 4.309 19.8886 2.28074C20.457 0.98338 21.9562 0 24.4294 0C26.1351 0 27.7341 0.699931 28.6658 1.38382L26.8812 3.36952C25.972 2.67182 25.2183 2.31884 24.3559 2.31884C23.6682 2.31884 23.1458 2.57043 22.9654 2.90981C22.626 3.54779 23.0751 3.98277 24.0668 4.56682L24.8141 5.01785C27.1051 6.38874 27.6509 7.82626 27.0767 9.17019C26.0893 11.4835 24.1558 12 22.133 12Z" fill="#0043D2"/>
</svg>
