<svg width="136" height="112" viewBox="0 0 136 112" fill="none" xmlns="http://www.w3.org/2000/svg">
<path d="M133.739 15.041C133.739 14.8617 133.739 14.6825 133.707 14.5033C133.707 14.4757 133.707 14.4343 133.707 14.4068C133.66 14.0069 133.596 13.6209 133.502 13.2487C133.486 13.1659 133.454 13.0832 133.423 13.0005C133.359 12.7523 133.296 12.4904 133.201 12.2422C133.185 12.1871 133.154 12.1319 133.122 12.063C133.043 11.8424 132.948 11.6356 132.853 11.4288C132.79 11.2771 132.727 11.1255 132.663 10.9738C132.632 10.9049 132.584 10.8497 132.553 10.7946C132.49 10.6705 132.41 10.5464 132.331 10.4223C132.252 10.2983 132.189 10.1604 132.094 10.0225C132.015 9.91222 131.936 9.80192 131.857 9.69163C131.778 9.59512 131.715 9.49861 131.636 9.4021C131.588 9.34695 131.541 9.27802 131.493 9.20908C131.288 8.96092 131.082 8.74033 130.845 8.50595C130.845 8.49216 130.813 8.47837 130.797 8.46459C130.592 8.27157 130.386 8.07855 130.165 7.89932C130.038 7.80281 129.912 7.69251 129.785 7.596L123.507 2.88086C123.871 3.1566 124.203 3.44613 124.519 3.74944C124.519 3.76323 124.551 3.77702 124.567 3.7908C124.851 4.08033 125.12 4.38364 125.357 4.68695C125.437 4.78346 125.5 4.87997 125.579 4.97648C125.753 5.21086 125.911 5.44524 126.053 5.6934C126.132 5.81749 126.211 5.94157 126.275 6.06565C126.385 6.27246 126.48 6.47926 126.575 6.69985C126.67 6.90666 126.765 7.11346 126.844 7.33405C126.955 7.63737 127.05 7.94068 127.144 8.25778C127.16 8.3405 127.192 8.42323 127.223 8.50595C127.318 8.91956 127.382 9.33317 127.429 9.76056C127.445 9.93979 127.445 10.119 127.461 10.2983C127.461 10.5878 127.492 10.8635 127.476 11.1668C127.476 11.3598 127.445 11.5667 127.429 11.7735C127.397 12.1181 127.382 12.4628 127.318 12.8213L116.802 72.4224C116.691 73.029 116.533 73.608 116.328 74.2009C116.28 74.3388 116.233 74.4904 116.185 74.6283C116.09 74.8902 115.964 75.166 115.853 75.4279C115.774 75.5934 115.711 75.7726 115.616 75.938C115.521 76.1173 115.426 76.2827 115.331 76.4619C115.221 76.6688 115.11 76.8755 114.983 77.0686C114.904 77.2064 114.81 77.3443 114.715 77.4822C114.572 77.7028 114.414 77.9096 114.272 78.1164C114.177 78.2405 114.098 78.3508 114.003 78.4748C113.829 78.6954 113.639 78.916 113.45 79.1228C113.37 79.2193 113.291 79.3021 113.212 79.3986C112.928 79.7019 112.643 79.9914 112.343 80.2671C112.311 80.2947 112.279 80.3223 112.248 80.3499C111.979 80.598 111.694 80.8324 111.394 81.0668C111.283 81.1633 111.157 81.246 111.046 81.3287C110.824 81.4942 110.603 81.6458 110.382 81.8113C110.223 81.9078 110.081 82.0181 109.923 82.1146C109.717 82.2387 109.512 82.3628 109.306 82.4868C109.101 82.6109 108.895 82.7212 108.69 82.8315C108.5 82.928 108.326 83.0245 108.136 83.1073C107.788 83.2727 107.44 83.4244 107.092 83.5622C106.95 83.6174 106.792 83.6863 106.65 83.7415C106.396 83.838 106.128 83.9207 105.875 83.9896C105.685 84.0448 105.495 84.1137 105.29 84.1689C105.021 84.2378 104.736 84.3067 104.451 84.3619C104.262 84.4032 104.072 84.4584 103.898 84.486C103.582 84.5411 103.265 84.5825 102.965 84.6238C102.807 84.6376 102.649 84.679 102.49 84.6928C102.016 84.7341 101.526 84.7617 101.051 84.7617H10.7221C8.84026 84.7617 7.11654 84.417 5.58259 83.7966C4.66538 83.4244 3.82724 82.9418 3.08398 82.3903L9.36212 87.1055C11.3547 88.5945 13.9798 89.4768 16.9844 89.4768H107.282C107.772 89.4768 108.247 89.4493 108.721 89.4079C108.879 89.3941 109.037 89.3666 109.196 89.339C109.512 89.2976 109.828 89.2563 110.129 89.2011C110.318 89.1597 110.508 89.1184 110.682 89.077C110.967 89.0219 111.236 88.9529 111.52 88.884C111.71 88.8289 111.916 88.7599 112.105 88.7048C112.358 88.6221 112.627 88.5393 112.88 88.4566C112.928 88.4428 112.975 88.429 113.007 88.4153C113.117 88.3739 113.212 88.3187 113.323 88.2774C113.671 88.1395 114.019 87.9879 114.367 87.8224C114.446 87.7811 114.525 87.7535 114.604 87.7259C114.715 87.6708 114.81 87.6018 114.92 87.5467C115.126 87.4364 115.331 87.3261 115.537 87.202C115.632 87.1469 115.727 87.1055 115.822 87.0503C115.932 86.9814 116.043 86.8987 116.154 86.8297C116.312 86.7332 116.454 86.6367 116.612 86.5264C116.691 86.4713 116.77 86.4299 116.85 86.3748C116.992 86.2645 117.134 86.1542 117.277 86.0439C117.387 85.9612 117.514 85.8647 117.624 85.7819C117.672 85.7544 117.719 85.713 117.751 85.6854C118.004 85.4924 118.241 85.2718 118.463 85.065C118.494 85.0374 118.526 85.0099 118.557 84.9823C118.826 84.7341 119.079 84.486 119.316 84.2378C119.348 84.2102 119.38 84.1689 119.411 84.1413C119.49 84.0586 119.57 83.9621 119.649 83.8655C119.775 83.7277 119.902 83.5898 120.028 83.4381C120.091 83.3692 120.139 83.2865 120.202 83.2038C120.297 83.0935 120.392 82.9694 120.471 82.8453C120.534 82.7488 120.613 82.6661 120.676 82.5696C120.756 82.4593 120.835 82.3352 120.914 82.2111C121.009 82.0732 121.103 81.9354 121.183 81.7975C121.23 81.7286 121.262 81.6734 121.309 81.6045C121.388 81.4666 121.451 81.3288 121.53 81.1909C121.625 81.0117 121.72 80.8462 121.815 80.667C121.847 80.6118 121.878 80.5567 121.91 80.5015C121.957 80.3912 122.005 80.2672 122.052 80.1569C122.179 79.8949 122.29 79.6329 122.384 79.3572C122.416 79.2883 122.448 79.2056 122.479 79.1366C122.511 79.0677 122.511 78.9988 122.543 78.9298C122.732 78.3508 122.906 77.7579 123.017 77.1513L133.533 17.564C133.565 17.4261 133.581 17.2882 133.596 17.1504C133.628 16.9298 133.628 16.723 133.644 16.5162C133.66 16.3094 133.691 16.1164 133.691 15.9096C133.691 15.62 133.691 15.3305 133.676 15.041H133.739Z" fill="#1D1D1D"/>
<path d="M117.467 0.523438C124.994 0.523438 130.102 6.03823 128.901 12.8352L118.384 72.4225C117.182 79.2195 110.129 84.7343 102.602 84.7343H12.3043C4.77682 84.7343 -0.346899 79.2195 0.854961 72.4225L11.3712 12.8352C12.5731 6.03823 19.6419 0.523438 27.1694 0.523438H117.467Z" fill="white" stroke="#1D1D1D" stroke-width="0.4" stroke-linecap="round" stroke-linejoin="round"/>
<path d="M116.334 16.5777C117.915 16.5443 119.014 17.6933 118.791 19.1184C118.568 20.5435 117.107 21.7464 115.526 21.7798L79.9366 22.5302C78.3555 22.5636 77.256 21.4284 77.4787 19.9895C77.7015 18.5507 79.1632 17.3615 80.7443 17.3281L116.334 16.5777Z" fill="#1D1D1D" fill-opacity="0.12"/>
<path d="M98.9452 29.1075C100.526 29.0742 101.626 30.2231 101.403 31.6482C101.18 33.0733 99.703 34.2904 98.1378 34.3234L79.3392 34.7198C77.7582 34.7531 76.6583 33.6042 76.8811 32.1653C77.1038 30.7264 78.5656 29.5373 80.1466 29.5039L98.9452 29.1075Z" fill="#1D1D1D" fill-opacity="0.12"/>
<path d="M93.4178 55.2509C95.0011 55.2175 96.1025 56.3664 95.8791 57.7915C95.6557 59.2166 94.1765 60.4337 92.609 60.4668L73.7832 60.8638C72.1998 60.8971 71.0985 59.7482 71.3216 58.3093C71.5447 56.8705 73.0086 55.6812 74.5919 55.6479L93.4178 55.2509Z" fill="#1D1D1D" fill-opacity="0.12"/>
<path d="M63.6734 11.9888C68.0155 11.9888 70.9781 15.0633 70.2884 18.8503L61.5259 66.7885C60.8362 70.5887 56.7606 73.6632 52.4028 73.6632H18.5911C14.2491 73.6632 11.2864 70.5887 11.9762 66.7885L20.7387 18.8503C21.4284 15.0501 25.504 11.9888 29.8617 11.9888H63.6734Z" stroke="#1D1D1D" stroke-width="0.4" stroke-linecap="round" stroke-linejoin="round"/>
<path d="M52.5308 51.4271C53.0405 53.0027 53.1254 54.6745 52.7978 56.3942L52.5308 57.7585C52.3488 58.6808 51.293 59.4302 50.1644 59.4302H23.1022C21.9736 59.4302 21.209 58.6808 21.3911 57.7585L21.658 56.3942C21.9857 54.6841 22.7381 53.0027 23.8546 51.4271C24.9346 49.9187 26.3302 48.5449 27.9928 47.3727C29.6553 46.191 31.4878 45.2687 33.478 44.625C35.5289 43.9621 37.6284 43.6162 39.7278 43.6162C41.8273 43.6162 43.7932 43.9621 45.5771 44.625C47.3004 45.2687 48.7809 46.191 49.9823 47.3727C51.1959 48.5449 52.0575 49.9091 52.5429 51.4271H52.5308Z" fill="white" stroke="#1D1D1D" stroke-width="0.4" stroke-miterlimit="10"/>
<path d="M40.7257 40.5841C35.8667 40.5841 32.538 37.0038 33.316 32.6119C34.0939 28.2199 38.6852 24.6396 43.5443 24.6396C48.4033 24.6396 51.732 28.2199 50.954 32.6119C50.1761 37.0038 45.5976 40.5841 40.7257 40.5841Z" fill="white" stroke="#1D1D1D" stroke-width="0.4" stroke-miterlimit="10"/>
<path d="M121.818 54.9968C126.538 55.0652 130.054 58.9796 129.688 63.7653L127.672 89.6967C127.304 94.4704 123.183 98.2834 118.463 98.2151L92.8536 97.8509C88.1339 97.7826 84.604 93.8583 84.9843 89.0824L87.0001 63.151C87.3684 58.3774 91.5014 54.5622 96.2211 54.6305L121.83 54.9947L121.818 54.9968Z" fill="white" stroke="black" stroke-width="0.4" stroke-linecap="round" stroke-linejoin="round"/>
<path d="M131.884 63.4564C131.832 63.1684 131.756 62.8847 131.669 62.6032C131.635 62.4853 131.59 62.3696 131.544 62.254C131.451 62.0106 131.355 61.7552 131.24 61.5281C131.197 61.4244 131.153 61.3208 131.1 61.2312C130.932 60.9146 130.739 60.6023 130.537 60.3042C130.372 60.0738 130.199 59.8695 130.011 59.6554C129.951 59.592 129.904 59.5385 129.843 59.4751C129.766 59.3899 129.69 59.3167 129.613 59.2315C129.51 59.1386 129.404 59.0337 129.301 58.9407L126.942 56.912C127.132 57.0759 127.313 57.2541 127.484 57.4463C127.545 57.5097 127.603 57.5611 127.652 57.6266C127.837 57.8287 128.012 58.045 128.178 58.2754C128.392 58.5714 128.572 58.8859 128.741 59.2024C128.796 59.304 128.838 59.3957 128.881 59.4994C128.998 59.7384 129.092 59.9818 129.185 60.2252C129.23 60.3409 129.264 60.4587 129.31 60.5744C129.397 60.8559 129.461 61.1418 129.525 61.4276C129.54 61.5116 129.555 61.5957 129.57 61.6797C129.637 62.0517 129.67 62.4421 129.679 62.8369C129.685 63.1456 129.679 63.4564 129.661 63.7693L127.645 89.7007C127.626 89.9395 127.595 90.1804 127.552 90.4236C127.502 90.767 127.426 91.1027 127.336 91.4286C127.244 91.7425 127.138 92.0466 127.017 92.3408C126.972 92.4356 126.927 92.5303 126.885 92.6371C126.795 92.8267 126.717 93.0141 126.615 93.2059C126.56 93.3148 126.504 93.4117 126.447 93.5087C126.343 93.6884 126.239 93.8682 126.121 94.038C126.064 94.135 125.993 94.2221 125.936 94.319C125.766 94.5477 125.597 94.7764 125.411 94.9832C125.369 95.0279 125.34 95.0703 125.298 95.115C125.03 95.411 124.735 95.6995 124.435 95.9639C124.35 96.0411 124.253 96.1205 124.165 96.1858C124.068 96.2652 123.971 96.3446 123.872 96.412C123.753 96.5078 123.631 96.5915 123.498 96.6774C123.399 96.7448 123.287 96.8144 123.188 96.8818C123.055 96.9677 122.931 97.0394 122.796 97.1133C122.694 97.1687 122.581 97.2263 122.467 97.2838C122.332 97.3577 122.183 97.4218 122.043 97.4717C121.927 97.5172 121.826 97.5727 121.71 97.6182C121.558 97.6703 121.407 97.7223 121.255 97.7744C121.137 97.8079 121.033 97.8513 120.916 97.8849C120.75 97.9271 120.596 97.9671 120.428 97.9973C120.32 98.0168 120.214 98.0482 120.106 98.0676C119.926 98.0999 119.746 98.1323 119.55 98.1428C119.454 98.1601 119.37 98.1752 119.271 98.1804C118.991 98.206 118.709 98.2197 118.422 98.2093L92.8126 97.8451C90.8257 97.8182 89.0485 97.0971 87.6865 95.9296L90.0457 97.9584C91.4098 99.1378 93.1848 99.847 95.1717 99.8738L120.781 100.238C121.066 100.236 121.35 100.235 121.631 100.209C121.727 100.192 121.811 100.177 121.909 100.172C122.089 100.139 122.285 100.129 122.465 100.096C122.573 100.077 122.681 100.058 122.787 100.026C122.955 99.9959 123.109 99.9559 123.275 99.9137C123.395 99.8921 123.496 99.8367 123.614 99.8031C123.766 99.7511 123.917 99.699 124.069 99.647C124.185 99.6014 124.288 99.558 124.402 99.5004C124.54 99.4386 124.689 99.3745 124.827 99.3126C124.94 99.2551 125.042 99.1996 125.155 99.1421C125.291 99.0682 125.426 98.9943 125.547 98.9106C125.647 98.8431 125.758 98.7736 125.857 98.7062C125.978 98.6224 126.112 98.5365 126.231 98.4408C126.328 98.3614 126.427 98.294 126.525 98.2146C126.578 98.1678 126.646 98.1308 126.699 98.084C126.731 98.0536 126.763 98.0231 126.794 97.9926C127.094 97.7282 127.391 97.4518 127.658 97.1437C127.658 97.1437 127.67 97.1416 127.679 97.1274C127.711 97.0969 127.741 97.0545 127.77 97.012C127.954 96.7932 128.125 96.5765 128.295 96.3478C128.324 96.3053 128.356 96.2749 128.386 96.2324C128.425 96.1758 128.452 96.1213 128.492 96.0647C128.61 95.8948 128.714 95.715 128.818 95.5353C128.857 95.4787 128.894 95.41 128.934 95.3534C128.951 95.3131 128.969 95.2728 128.998 95.2303C129.088 95.0407 129.178 94.8512 129.268 94.6616C129.303 94.581 129.34 94.5123 129.377 94.4437C129.385 94.4175 129.393 94.3914 129.402 94.3772C129.523 94.083 129.629 93.779 129.722 93.4651C129.812 93.1392 129.888 92.8034 129.937 92.46C129.943 92.4219 129.96 92.3815 129.966 92.3434C129.991 92.1406 130.017 91.9378 130.03 91.7372L132.046 65.8058C132.069 65.5168 132.077 65.218 132.075 64.9334C132.071 64.9094 132.067 64.8854 132.064 64.8734C132.055 64.4786 132.012 64.1023 131.955 63.7161C131.94 63.6321 131.925 63.5481 131.91 63.4641L131.884 63.4564Z" fill="#1D1D1D" stroke="black" stroke-width="0.4" stroke-miterlimit="10"/>
<path d="M120.135 98.0877C119.955 98.12 119.775 98.1524 119.578 98.1629C119.482 98.1802 119.398 98.1952 119.3 98.2005C119.02 98.2261 118.738 98.2397 118.451 98.2293L92.8414 97.8651C90.8545 97.8383 89.0773 97.1171 87.7153 95.9497L90.0745 97.9785C91.4386 99.1579 93.2136 99.8671 95.2005 99.8939L120.81 100.258C121.094 100.257 121.379 100.255 121.659 100.229" fill="black"/>
<path d="M120.135 98.0877C119.955 98.12 119.775 98.1524 119.578 98.1629C119.482 98.1802 119.398 98.1952 119.3 98.2005C119.02 98.2261 118.738 98.2397 118.451 98.2293L92.8414 97.8651C90.8545 97.8383 89.0773 97.1171 87.7153 95.9497L90.0745 97.9785C91.4386 99.1579 93.2136 99.8671 95.2005 99.8939L120.81 100.258C121.094 100.257 121.379 100.255 121.659 100.229" stroke="black" stroke-width="0.5" stroke-miterlimit="10"/>
<path d="M108.808 61.6673C110.186 61.6692 111.201 62.9795 111.081 64.5783L110.145 77.431C110.024 79.0383 108.82 80.3342 107.442 80.3324C106.064 80.3305 105.048 79.0202 105.169 77.4214L106.105 64.5687C106.226 62.9614 107.43 61.6655 108.808 61.6673Z" fill="#F8B200" stroke="white" stroke-width="0.4" stroke-miterlimit="10"/>
<path d="M109.958 86.3065C110.294 84.3924 109.266 82.6006 107.658 82.3023C106.05 82.004 104.475 83.3173 104.13 85.2315C103.794 87.1456 104.822 88.9374 106.43 89.2357C108.038 89.534 109.613 88.2207 109.958 86.3065Z" fill="#F8B200" stroke="white" stroke-width="0.4" stroke-miterlimit="10"/>
</svg>
