<svg width="12" height="12" viewBox="0 0 12 12" fill="none" xmlns="http://www.w3.org/2000/svg">
<g id="ic_arrow_left2">
<path id="Vector (Stroke)" fill-rule="evenodd" clip-rule="evenodd" d="M6.14645 8.85355C5.95118 8.65829 5.95118 8.34171 6.14645 8.14645L7.79289 6.5H3C2.72386 6.5 2.5 6.27614 2.5 6C2.5 5.72386 2.72386 5.5 3 5.5H7.79289L6.14645 3.85355C5.95118 3.65829 5.95118 3.34171 6.14645 3.14645C6.34171 2.95118 6.65829 2.95118 6.85355 3.14645L9.35337 5.64626L9.35461 5.64751C9.40202 5.6952 9.43784 5.75007 9.46206 5.80861C9.48651 5.86756 9.5 5.9322 9.5 6C9.5 6.13753 9.44447 6.26209 9.35461 6.35249L9.35355 6.35355L6.85355 8.85355C6.65829 9.04882 6.34171 9.04882 6.14645 8.85355Z" fill="#F65454"/>
</g>
</svg>
