<svg height="72" viewBox="0 0 72 72" width="72" xmlns="http://www.w3.org/2000/svg"><g fill="none" fill-rule="evenodd" transform="matrix(-1 0 0 1 72 0)"><circle cx="36" cy="36" r="35.5" stroke="#353c50"/><path d="m50.6347826 35.6701031-11.2-10.314433c-.4869565-.4742268-1.2173913-.4742268-1.7043478 0s-.4869565 1.185567 0 1.6597938l9.0086956 8.2989691h-22.5217391c-.7304348 0-1.2173913.4742268-1.2173913 1.185567s.4869565 1.185567 1.2173913 1.185567h22.5217391l-9.0086956 8.2989691c-.4869565.4742268-.4869565 1.185567 0 1.6597938.2434782.2371134.6086956.3556701.8521739.3556701s.6086956-.1185567.8521739-.3556701l11.2-10.314433c.2434783-.2371134.3652174-.5927835.3652174-.8298969s-.1217391-.5927835-.3652174-.8298969z" fill="#00142a" fill-rule="nonzero"/></g></svg>