<svg fill="none" height="380" viewBox="0 0 351 380" width="351" xmlns="http://www.w3.org/2000/svg" xmlns:xlink="http://www.w3.org/1999/xlink"><linearGradient id="a" gradientUnits="userSpaceOnUse" x1="159.521" x2="159.521" y1="253.011" y2="283.306"><stop offset="0" stop-color="#ffe3ff"/><stop offset="1" stop-color="#ffc3ff"/></linearGradient><linearGradient id="b" gradientUnits="userSpaceOnUse" x1="286.095" x2="279.718" y1="258.349" y2="270.905"><stop offset="0" stop-color="#ff6ecd"/><stop offset="1" stop-color="#fff"/></linearGradient><mask id="c" height="380" maskUnits="userSpaceOnUse" width="351" x="0" y="0"><path d="m341 0h-331c-5.52285 0-10 4.47715-10 10v360c0 5.523 4.47715 10 10 10h331c5.523 0 10-4.477 10-10v-360c0-5.52285-4.477-10-10-10z" fill="#fff"/></mask><mask id="d" height="122" maskUnits="userSpaceOnUse" width="66" x="182" y="135"><path d="m182.667 246.677.149-80.732c.002-1.424.762-2.74 1.995-3.454l46.719-27.053c1.308-.758 2.983-.312 3.74.997.031.052.059.105.086.16l-.359-.045c-1.074-.134-2.163.084-3.102.621l-45.857 26.224c-.48.274-.646.885-.372 1.364.044.077.098.148.161.211 1.221 1.223 2.309 2.115 3.261 2.675.728.428 1.802.852 3.223 1.27 1.857.547 3.857.301 5.526-.68l44.966-26.437c1.4-.824 3.202-.356 4.026 1.044.148.252.258.525.325.81-1.537-.364-3.155-.126-4.522.665l-43.624 25.236c-1.84 1.064-2.979 3.022-2.996 5.147l-.629 80.029c-.009 1.104-.912 1.993-2.016 1.984-.19-.001-.379-.03-.561-.085-2.338-.703-4.04-1.379-5.106-2.025-.846-.513-1.782-1.305-2.809-2.377-1.43-1.493-2.227-3.482-2.224-5.549z" fill="#fff"/></mask><mask id="e" fill="#000" height="69.2689" maskUnits="userSpaceOnUse" width="86.006" x="238.282" y="191.503"><path d="m238.282 191.503h86.006v69.2689h-86.006z" fill="#fff"/><path d="m239.16 204.759c.533 1.414 1.568 2.638 3.092 3.681v2.394l1.524.908v-2.427c1.879.833 2.811.293 2.811-1.612 0-1.129-.34-2.141-1.021-3.07-.533-.705-.814-.99-2.219-2.216-1.716-1.495-2.293-2.345-2.293-3.407 0-1.011.68-1.213 1.805-.542.932.555 1.642 1.333 2.101 2.314l1.183-.154c-.429-1.132-1.228-2.131-2.367-2.979v-1.871l-1.524-.909v1.838c-.607-.277-1.065-.416-1.405-.416-.844.019-1.317.732-1.317 1.946 0 1.82.902 3.353 3.048 5.222.769.661 1.228 1.069 1.39 1.216.163.148.326.346.518.613.385.515.577 1.068.577 1.658 0 1.13-.769 1.278-2.145.458-1.228-.732-2.086-1.682-2.545-2.815z" fill="#000"/><path d="m248.969 206.207c-.872.036-1.213.676-1.213 2.21 0 2.495.992 4.199 3.196 5.513s3.196.792 3.196-1.703c0-1.534-.341-2.58-1.214-3.656.666-.261.918-.785.918-1.982 0-2.242-.932-3.86-2.9-5.033s-2.9-.667-2.9 1.575c0 1.214.222 1.987.917 3.076zm1.998-3.26c.961.573 1.39 1.419 1.39 2.751 0 1.365-.414 1.692-1.405 1.101s-1.406-1.411-1.406-2.777c0-1.365.415-1.675 1.421-1.075zm.015 5.252c1.109.661 1.597 1.61 1.597 3.093 0 1.501-.488 1.85-1.627 1.171s-1.627-1.577-1.627-3.111c0-1.5.488-1.85 1.657-1.153z" fill="#000"/><path d="m255.835 212.339c0 1.45.177 2.601.547 3.445.533 1.245 1.361 2.194 2.501 2.873 1.198.715 1.938.801 2.485.302.459-.401.681-1.382.681-2.916v-3.371c0-1.433-.178-2.567-.548-3.445-.547-1.254-1.42-2.229-2.618-2.944-1.051-.626-1.835-.705-2.368-.231-.458.384-.68 1.365-.68 2.916zm4.66 2.61c0 2.343-.429 2.947-1.568 2.268-1.11-.661-1.539-1.811-1.539-4.12v-3.035c0-2.309.429-2.947 1.539-2.286 1.139.68 1.568 1.795 1.568 4.138z" fill="#000"/><path d="m263.825 217.102c0 1.45.177 2.601.547 3.445.533 1.245 1.361 2.194 2.5 2.873 1.199.714 1.938.801 2.486.301.458-.4.68-1.381.68-2.915v-3.371c0-1.433-.177-2.568-.547-3.445-.547-1.254-1.42-2.229-2.619-2.944-1.05-.626-1.834-.706-2.367-.231-.458.384-.68 1.365-.68 2.915zm4.66 2.61c0 2.343-.429 2.947-1.568 2.268-1.11-.662-1.539-1.811-1.539-4.121v-3.034c0-2.309.429-2.947 1.539-2.286 1.139.679 1.568 1.795 1.568 4.138z" fill="#000"/><path d="m274.256 222.275v3.22l1.316.785v-3.22l2.767 1.649v-1.382l-2.767-1.65v-3.236l-1.316-.785v3.236l-2.767-1.649v1.383z" fill="#000"/><path d="m287.471 235.53c.991.591 1.716.804 2.175.656.636-.177.946-.885.946-2.099 0-.826-.133-1.58-.414-2.27-.133-.366-.399-.811-.769-1.318l-.148-.19c.754-.106 1.139-.737 1.139-1.9 0-1.062-.281-2.039-.828-2.938-.489-.78-1.258-1.475-2.294-2.092l-3.979-2.372v12.036zm-2.604-12.139 2.293 1.367c1.11.662 1.672 1.604 1.672 2.834 0 .675-.163 1.066-.474 1.185-.266.094-.665-.009-1.198-.327l-2.293-1.367zm0 5.142 2.5 1.49c1.11.662 1.657 1.662 1.657 2.994s-.547 1.663-1.657 1.002l-2.5-1.491z" fill="#000"/><path d="m294.02 229.269v-1.955l-1.509-.9v1.956zm-1.509 9.266 1.509.899v-8.563l-1.509-.9z" fill="#000"/><path d="m296.397 237.648c0 2.563.548 3.53 2.737 4.835l.385.229v-1.399l-.325-.194c-.992-.591-1.288-1.138-1.288-2.402v-9.003l-1.509-.899z" fill="#000"/><path d="m300.819 240.284c0 2.562.547 3.529 2.737 4.835l.384.229v-1.399l-.325-.194c-.992-.591-1.287-1.139-1.287-2.403v-9.002l-1.509-.9z" fill="#000"/><path d="m306.763 236.865v-1.955l-1.509-.9v1.956zm-1.509 9.266 1.509.9v-8.564l-1.509-.9z" fill="#000"/><path d="m308.919 244.691c0 2.63.976 4.375 3.181 5.689 2.189 1.306 3.166.724 3.166-1.905v-1.315c0-2.63-.977-4.376-3.166-5.681-2.205-1.314-3.181-.733-3.181 1.897zm4.838 2.766c0 1.753-.503 2.229-1.672 1.532-1.139-.679-1.657-1.763-1.657-3.516v-1.079c0-1.754.518-2.22 1.657-1.541 1.169.696 1.672 1.772 1.672 3.525z" fill="#000"/><path d="m318.914 254.274v-4.383c0-2.09.429-2.627 1.569-1.948 1.065.635 1.479 1.607 1.479 3.428v4.72l1.509.899v-4.905c0-.961-.074-1.73-.222-2.307-.355-1.308-1.198-2.367-2.515-3.152-.932-.555-1.613-.624-2.056-.197l-.119-.931-1.154-.687v8.563z" fill="#000"/></mask><g mask="url(#c)"><path d="m341 0h-331c-5.52285 0-10 4.47715-10 10v360c0 5.523 4.47715 10 10 10h331c5.523 0 10-4.477 10-10v-360c0-5.52285-4.477-10-10-10z" fill="#ff6ecd" opacity=".4"/><path clip-rule="evenodd" d="m216.745 222.123c2.056.035 4.103.621 5.91 1.754l155.778 97.641c1.053.66 1.739 1.684 1.996 2.806.258 1.123.087 2.343-.573 3.396-.393.627-.934 1.148-1.577 1.516l-104.993 60.115c-1.981 1.134-4.192 1.683-6.394 1.65-2.203-.032-4.397-.645-6.343-1.837l-156.588-95.847c-1.06-.649-1.756-1.666-2.026-2.785-.269-1.12-.111-2.343.538-3.403.39-.637.933-1.168 1.58-1.543l106.724-61.912c1.845-1.07 3.911-1.586 5.968-1.551z" fill="#b92887" fill-rule="evenodd" stroke="#353c50"/><path clip-rule="evenodd" d="m216.745 219.793c2.056.035 4.103.621 5.91 1.754l155.778 97.64c1.053.66 1.739 1.684 1.996 2.807.258 1.122.087 2.343-.573 3.396-.393.627-.934 1.148-1.577 1.515l-104.993 60.115c-1.981 1.134-4.192 1.683-6.394 1.651-2.203-.032-4.397-.646-6.343-1.837l-156.588-95.847c-1.06-.649-1.756-1.666-2.026-2.786-.269-1.12-.111-2.342.538-3.402.39-.638.933-1.168 1.58-1.543l106.724-61.912c1.845-1.071 3.911-1.586 5.968-1.551z" fill="#ff82e1" fill-rule="evenodd" stroke="#353c50"/><path clip-rule="evenodd" d="m163.472 255.31c6.841-.814 13.165.43 16.532 3.134 2.442 1.961 3.256 3.898 3.1 5.635-.224 2.498-2.371 4.513-4.098 5.471-1.389.772-4.691 2.605-8.074 4.494l-1.128.631c-3.889 2.174-7.617 4.275-8.404 4.774-1.519.961-8.017 5.016-15.702 4.908-2.491-.034-4.549-.606-6.166-1.736-1.601-1.12-2.763-2.785-3.5-4.983-.393-1.96.238-4.159 1.824-6.605 1.664-2.566 4.375-5.387 8.125-8.471 5.197-4.274 11.545-6.545 17.491-7.252z" fill="#b92887" fill-rule="evenodd" stroke="#353c50"/><path clip-rule="evenodd" d="m135.549 276.216c1.549 4.652 4.929 7.015 10.142 7.088 7.818.109 14.43-4.008 15.976-4.987 1.546-.978 14.443-8.141 17.582-9.883 3.139-1.743 7.475-6.788 1.068-11.933-6.407-5.146-23.257-5.252-34.654 4.121-7.597 6.249-10.969 11.447-10.114 15.594z" fill="url(#a)" fill-rule="evenodd" stroke="#353c50"/><path clip-rule="evenodd" d="m234.743 136.617 12.394 8.057 7.908 4.406-47.995 28.203c-3.257-.099-5.561-.459-6.909-1.082-1.348-.622-3.011-2.092-4.987-4.409-3.498-.868-5.978-1.683-7.441-2.445-1.462-.763-3.12-2.106-4.974-4.029 31.282-18.224 47.558-27.565 48.829-28.022s2.329-.851 3.175-1.182" fill="#fff" fill-rule="evenodd"/><path d="m234.743 136.617 12.394 8.057 7.908 4.406-47.995 28.203c-3.257-.099-5.561-.459-6.909-1.082-1.348-.622-3.011-2.092-4.987-4.409-3.498-.868-5.978-1.683-7.441-2.445-1.462-.763-3.12-2.106-4.974-4.029 31.282-18.224 47.558-27.565 48.829-28.022s2.329-.851 3.175-1.182" stroke="#353c50"/><g clip-rule="evenodd" fill-rule="evenodd" mask="url(#d)" stroke="#353c50"><path d="m231.28 135.005c.773-.448 1.655-.54 2.456-.327.8.214 1.519.732 1.967 1.506.147.254.256.52.328.791-.245-.024-.501-.037-.768-.041-1.243-.017-2.252.174-3.12.671l-45.857 26.224c1.107 1.995 2.143 2.849 3.055 3.385.703.413 1.741.818 3.112 1.222 1.724.507 3.581.279 5.131-.632l44.965-26.437c.82-.482 1.756-.586 2.609-.365.852.221 1.62.768 2.102 1.587.13.221.235.456.312.7.078.244.128.495.15.75-.226-.044-.453-.077-.678-.101-1.377-.142-2.887.074-4.162.812l-43.624 25.236c-1.686.975-2.73 2.77-2.746 4.717l-.629 80.03c-.006.69-.291 1.313-.747 1.762-.455.449-1.083.724-1.773.718-.237-.002-.473-.037-.701-.106-2.392-.72-4.131-1.415-5.222-2.077-.875-.531-1.847-1.348-2.91-2.458-1.52-1.586-2.367-3.699-2.363-5.896l.149-80.732c.003-1.602.858-3.082 2.245-3.886z"/><path d="m183.074 164.921c1.249 3.533 5.823 5.76 13.722 6.681 7.898.92 25.86-8.288 53.885-27.625v-10.005l-21.894-7.781-48.294 30.238z" fill="#f05fbe" stroke-linejoin="round"/></g><path d="m182.246 170.298v.257zm0 0v-1.955zm.499.803.001-.545v-.001-.257-1.955-.001c-.001-.551-.003-.907-.005-1.065-.016-.97.029-1.676.103-2.155.022-.146.047-.266.072-.363.985 2.419 2.445 4.036 4.48 5.036 2.812 1.384 5.82 2.166 9.017 2.348-.292.297-.445.73-.536 1.168-.118.57-.159 1.297-.159 2.134-.383 52.75-.596 79.643-.638 80.707-.022.567-.214.888-.479 1.081-.249.182-.661.306-1.315.256-2.191-.691-4.474-1.839-6.928-3.476-2.418-1.612-3.718-4.036-3.858-7.361.152-41.228.234-66.407.245-75.551z" fill="#ff82e1" stroke="#353c50" stroke-linejoin="round"/><path clip-rule="evenodd" d="m182.449 172.225.531.37c3.796 2.647 8.185 4.32 12.78 4.873v3.302l-.811-.113c-4.519-.633-8.812-2.369-12.5-5.056z" fill="#d241a0" fill-rule="evenodd" stroke="#353c50" stroke-linejoin="round"/><path clip-rule="evenodd" d="m195.285 256.861c1.452 1.903 3.044 3.239 4.774 4.006 1.731.766 4.51 1.255 8.337 1.466l48.869-32.475c.557-.37.892-.994.893-1.663l.098-78.125c.002-1.105-.893-2.001-1.997-2.003-.354 0-.701.093-1.006.27l-46.753 27.133c-5.606.46-9.361-1.038-11.267-4.493-.773.776-1.211 1.823-1.22 2.918z" fill="#d241a0" fill-rule="evenodd" stroke="#353c50" stroke-linejoin="round"/><path clip-rule="evenodd" d="m196.078 174.033c2.735 2.944 6.618 4.16 11.647 3.648v84.652c-3.403-.204-5.852-.632-7.349-1.285-1.496-.653-3.193-2.035-5.091-4.144z" fill="#ff82e1" fill-rule="evenodd" stroke="#353c50"/><path clip-rule="evenodd" d="m195.936 179.261c3.173 2.503 7.184 3.696 11.209 3.334l.589-.053v3.023l-1.786.208c-3.562.414-7.144-.589-9.973-2.792z" fill="#d241a0" fill-rule="evenodd" stroke="#353c50" stroke-linejoin="round"/><path clip-rule="evenodd" d="m195.936 185.475c3.173 2.503 7.184 3.696 11.209 3.334l.589-.053v3.023l-1.786.208c-3.562.414-7.144-.589-9.973-2.792z" fill="#d241a0" fill-rule="evenodd" stroke="#353c50" stroke-linejoin="round"/><path clip-rule="evenodd" d="m348.214 234.343-115.721-66.958c-.777-.453-1.479-.491-1.987-.195l-2.722 1.584c.508-.297 1.212-.256 1.986.194l115.722 66.959c1.544.891 2.79 3.058 2.785 4.834l-.225 78.171c0 .882-.314 1.504-.815 1.796l2.722-1.583c.501-.294.813-.905.815-1.796l.226-78.172c.005-1.776-1.242-3.94-2.786-4.834z" fill="#ffafff" fill-rule="evenodd" stroke="#353c50"/><path clip-rule="evenodd" d="m345.599 235.691c1.541.892 2.784 3.06 2.779 4.837l-.225 78.216c0 1.779-1.257 2.49-2.797 1.602l-115.451-66.996c-1.538-.894-2.783-3.06-2.777-4.837l.226-78.215c0-1.777 1.256-2.49 2.795-1.603z" fill="#f05fbe" fill-rule="evenodd" stroke="#353c50"/><path clip-rule="evenodd" d="m345.561 312.845.196-69.089-116.469-67.559-.193 69.087z" fill="#fff" fill-rule="evenodd" stroke="#353c50"/><path clip-rule="evenodd" d="m347.243 325.381-67.569 39.684c-1.535.915-4.034.915-5.581 0l-115.928-67.656c-.778-.457-1.167-1.051-1.165-1.645v4.249c0 .596.387 1.191 1.165 1.645l115.928 67.656c1.545.915 4.046.915 5.581 0l67.558-39.677c.762-.457 1.144-1.035 1.146-1.622v-4.25c.009.581-.364 1.168-1.135 1.616z" fill="#b92887" fill-rule="evenodd" stroke="#353c50"/><path clip-rule="evenodd" d="m347.213 322.129c1.547.896 1.554 2.346.019 3.241l-67.565 39.351c-1.535.907-4.034.907-5.581 0l-115.921-67.088c-1.547-.895-1.554-2.346-.018-3.239l67.564-39.344c1.536-.893 4.035-.906 5.581 0z" fill="#ff82e1" fill-rule="evenodd" stroke="#353c50"/><path clip-rule="evenodd" d="m255.635 320.925c.441.254.443.668 0 .915l-19.205 11.18c-.498.254-1.088.254-1.586 0l-32.945-19.051c-.441-.254-.443-.666 0-.915l19.212-11.187c.498-.254 1.088-.254 1.586 0z" fill="#ffafff" fill-rule="evenodd"/><path d="m229.319 269.709-3.572-2.09 3.551-2.075 3.577 2.089zm2.511 1.466 3.575 2.087 3.563-2.074-3.575-2.089zm6.093 3.553 3.565 2.094 3.552-2.076-3.574-2.087zm6.093 3.555 3.574 2.087 3.552-2.073-3.599-2.09zm13.192 3.562-3.572-2.082-3.555 2.082 3.575 2.087zm6.092 3.555-3.572-2.084-3.552 2.075 3.575 2.09zm6.093 3.553-3.592-2.084-3.552 2.075 3.572 2.09zm6.093 3.556-3.575-2.09-3.551 2.076 3.554 2.094zm6.093 3.553-3.575-2.087-3.552 2.075 3.575 2.087zm-1.043 3.541 3.574 2.09 3.552-2.076-3.574-2.087zm6.093 3.556 3.574 2.087 3.552-2.074-3.574-2.089zm13.165 3.576-3.575-2.088-3.545 2.069 3.575 2.09zm6.092 3.555-3.574-2.09-3.552 2.076 3.574 2.089zm6.093 3.553-3.592-2.085-3.552 2.076 3.574 2.087zm-85.154-42.678-3.574-2.089-3.552 2.076 3.574 2.089zm-1.042 3.542 3.574 2.087 3.552-2.075-3.574-2.088zm6.092 3.553 3.575 2.089 3.552-2.075-3.575-2.09zm6.093 3.555 3.557 2.085 3.551-2.073-3.572-2.089zm13.185 3.567-3.574-2.087-3.552 2.073 3.572 2.09zm6.093 3.555-3.574-2.089-3.552 2.076 3.574 2.087zm6.093 3.553-3.575-2.087-3.551 2.076 3.574 2.087zm6.093 3.556-3.593-2.099-3.552 2.076 3.575 2.089zm6.092 3.553-3.61-2.087-3.543 2.075 3.574 2.087zm-1.042 3.541 3.574 2.09 3.552-2.076-3.602-2.089zm6.092 3.556 3.539 2.094 3.552-2.076-3.566-2.094zm13.21 3.566-3.574-2.087-3.552 2.074 3.534 2.089zm6.093 3.556-3.574-2.09-3.597 2.085 3.579 2.078zm2.509 1.466-3.551 2.073 6.092 3.555 3.575 2.09 3.551-2.076-3.628-2.089zm-77.31-38.077-7.87-4.598-3.552 2.075 7.871 4.599zm.745 4.586 3.575 2.089 3.551-2.076-3.574-2.089zm6.093 3.555 3.574 2.087 3.552-2.076-3.574-2.087zm13.201 3.576-3.575-2.09-3.551 2.076 3.574 2.089zm6.092 3.553-3.574-2.087-3.552 2.075 3.575 2.087zm6.093 3.555-3.592-2.085-3.552 2.055 3.574 2.09zm6.093 3.555-3.572-2.089-3.554 2.076 3.574 2.087zm6.093 3.553-3.575-2.087-3.552 2.074 3.573 2.089zm-1.043 3.542 3.575 2.089 3.551-2.075-3.574-2.09zm6.093 3.555 3.574 2.087 3.507-2.084-3.574-2.087zm13.174 3.558-3.575-2.089-3.552 2.075 3.568 2.087zm6.092 3.553-3.574-2.087-3.552 2.075 3.575 2.088zm2.51 1.468-3.568 2.076 6.093 3.555 3.574 2.087 3.552-2.073-3.586-2.092zm-85.152-42.679-3.558 2.08 6.092 3.553 3.575 2.089 3.552-2.076-3.575-2.087zm8.627 9.188 3.574 2.087 3.552-2.073-3.574-2.09zm6.093 3.555 3.554 2.099 3.552-2.076-3.575-2.087zm13.21 3.567-3.575-2.089-3.552 2.075 3.575 2.09zm6.092 3.553-3.574-2.087-3.552 2.076 3.575 2.087zm6.093 3.555-3.574-2.089-3.552 2.076 3.574 2.089zm6.093 3.553-3.622-2.082-3.552 2.076 3.575 2.087zm6.093 3.556-3.575-2.087-3.552 2.073 3.575 2.089zm-1.043 3.541 3.574 2.087 3.552-2.073-3.574-2.089zm6.093 3.553 3.574 2.09 3.552-2.076-3.574-2.087zm13.21 3.569-3.572-2.089-3.554 2.076 3.574 2.089zm2.511 1.466-3.552 2.076 6.093 3.553 3.575 2.089 3.551-2.075-3.574-2.09zm-79.113-39.119-3.551 2.075 6.092 3.553 3.552 2.09 3.552-2.076-3.574-2.089zm8.616 9.184 3.57 2.087 3.552-2.076-3.575-2.087zm6.093 3.553 3.57 2.089 3.551-2.076-3.574-2.087zm6.092 3.555 33.993 19.866 3.552-2.076-33.993-19.866zm36.503 21.325 3.574 2.089 3.552-2.075-3.575-2.088zm9.635 1.479-3.574 2.076 6.092 3.553 3.575 2.089 3.552-2.075-3.575-2.087zm8.616 9.184 3.574 2.09 3.529-2.074-3.574-2.089zm30.267-10.574 3.574 2.089 3.552-2.075-3.574-2.09zm-18.159 10.59 3.575 2.087 3.552-2.075-3.575-2.087zm-6.047 3.533 3.574 2.087 3.552-2.076-3.574-2.087zm33.819-12.65-3.552 2.075 3.575 2.087 3.551-2.075zm-9.602 5.615 3.575 2.087 3.552-2.076-3.575-2.087zm-6.045 3.53 3.574 2.089 3.552-2.075-3.563-2.097zm-6.045 3.532 3.574 2.09 3.552-2.076-3.575-2.087zm-6.048 3.533 3.574 2.089 3.552-2.076-3.567-2.082z" fill="#ffc3ff"/><path clip-rule="evenodd" d="m235.527 240.023c8.864-2.251 15.022-.971 18.473 3.841 5.176 7.218 14.63-2.733 20.452.914 5.823 3.646 4.71 5.992 15.74 4.278 11.029-1.715 7.203 6.36 18.215 8.166 7.341 1.204 16.803-1.518 28.384-8.166v51.997l-101.392-57.189z" fill="url(#b)" fill-rule="evenodd"/><g stroke="#ff6ecd"><path d="m235.527 240.023c8.864-2.251 15.022-.971 18.473 3.841 5.176 7.218 14.63-2.733 20.452.914 5.823 3.646 4.71 5.992 15.74 4.278 11.029-1.715 7.203 6.36 18.215 8.166 7.341 1.204 16.803-1.518 28.384-8.166"/><path d="m235.764 194.611v49" opacity=".2" stroke-linecap="square"/><path d="m242.97 198.5v49" opacity=".1" stroke-linecap="square"/><path d="m250.175 202.389v49" opacity=".1" stroke-linecap="square"/><path d="m257.381 206.278v49" opacity=".1" stroke-linecap="square"/><path d="m264.587 210.944v49" opacity=".1" stroke-linecap="square"/><path d="m271.793 214.833v49" opacity=".1" stroke-linecap="square"/><path d="m278.998 218.722v49" opacity=".1" stroke-linecap="square"/><path d="m286.204 223.389v49" opacity=".1" stroke-linecap="square"/><path d="m293.41 227.278v49" opacity=".1" stroke-linecap="square"/><path d="m300.615 231.167v49" opacity=".1" stroke-linecap="square"/><path d="m307.821 235.056v49" opacity=".1" stroke-linecap="square"/><path d="m315.027 239.722v49" opacity=".1" stroke-linecap="square"/><path d="m322.233 243.611v49" opacity=".1" stroke-linecap="square"/><path d="m329.438 247.5v49" opacity=".1" stroke-linecap="square"/><path d="m336.644 252.167v49" opacity=".2" stroke-linecap="square"/><path d="m336.644 301.167-100.88-57.556" opacity=".2" stroke-linecap="square"/></g></g><g fill="#db7926"><path d="m240.159 204.786c.533 1.413 1.568 2.637 3.092 3.68v2.394l1.524.909v-2.428c1.879.833 2.811.293 2.811-1.612 0-1.129-.34-2.141-1.021-3.069-.533-.706-.814-.991-2.219-2.217-1.716-1.495-2.293-2.345-2.293-3.407 0-1.011.68-1.212 1.805-.542.932.556 1.642 1.333 2.1 2.314l1.184-.154c-.429-1.132-1.228-2.131-2.367-2.979v-1.871l-1.524-.908v1.837c-.607-.277-1.065-.416-1.405-.416-.844.02-1.317.732-1.317 1.946 0 1.82.902 3.353 3.048 5.222.769.661 1.227 1.069 1.39 1.217.163.147.326.345.518.612.385.516.577 1.069.577 1.659 0 1.129-.769 1.277-2.145.457-1.228-.732-2.086-1.682-2.545-2.815z"/><path d="m249.968 206.233c-.872.036-1.213.676-1.213 2.21 0 2.495.992 4.199 3.196 5.513s3.196.792 3.196-1.703c0-1.534-.341-2.58-1.214-3.656.666-.261.918-.785.918-1.982 0-2.242-.932-3.86-2.9-5.033s-2.9-.666-2.9 1.576c0 1.213.222 1.986.917 3.075zm1.998-3.26c.961.573 1.39 1.419 1.39 2.751 0 1.366-.414 1.692-1.405 1.101s-1.406-1.411-1.406-2.777c0-1.365.415-1.674 1.421-1.075zm.015 5.252c1.109.661 1.597 1.61 1.597 3.093 0 1.501-.488 1.85-1.627 1.171s-1.627-1.577-1.627-3.111c0-1.5.488-1.85 1.657-1.153z"/><path d="m256.834 212.365c0 1.45.177 2.601.547 3.445.533 1.245 1.361 2.194 2.501 2.873 1.198.715 1.938.802 2.485.302.459-.401.681-1.381.681-2.915v-3.372c0-1.433-.178-2.567-.548-3.445-.547-1.254-1.42-2.229-2.618-2.943-1.051-.627-1.835-.706-2.368-.231-.458.384-.68 1.364-.68 2.915zm4.66 2.61c0 2.343-.429 2.947-1.568 2.268-1.11-.661-1.539-1.811-1.539-4.12v-3.035c0-2.309.429-2.947 1.539-2.285 1.139.679 1.568 1.794 1.568 4.138z"/><path d="m264.824 217.128c0 1.45.177 2.601.547 3.445.533 1.245 1.361 2.194 2.5 2.873 1.199.714 1.938.801 2.486.302.458-.401.68-1.382.68-2.916v-3.371c0-1.433-.177-2.567-.547-3.445-.547-1.254-1.42-2.229-2.619-2.944-1.05-.626-1.834-.706-2.367-.231-.458.384-.68 1.365-.68 2.916zm4.66 2.61c0 2.343-.429 2.947-1.568 2.268-1.11-.662-1.539-1.811-1.539-4.12v-3.035c0-2.309.429-2.947 1.539-2.286 1.139.679 1.568 1.795 1.568 4.138z"/><path d="m275.254 222.301v3.22l1.317.785v-3.22l2.767 1.649v-1.382l-2.767-1.649v-3.237l-1.317-.785v3.237l-2.766-1.65v1.383z"/><path d="m288.47 235.556c.991.591 1.716.804 2.175.656.636-.177.946-.885.946-2.099 0-.826-.133-1.58-.414-2.27-.133-.366-.399-.811-.769-1.318l-.148-.19c.754-.106 1.139-.737 1.139-1.9 0-1.062-.281-2.039-.828-2.938-.489-.78-1.258-1.475-2.294-2.092l-3.979-2.372v12.036zm-2.604-12.139 2.293 1.367c1.11.662 1.672 1.604 1.672 2.834 0 .675-.163 1.067-.474 1.185-.266.094-.665-.009-1.198-.327l-2.293-1.367zm0 5.142 2.5 1.491c1.11.661 1.657 1.662 1.657 2.993 0 1.332-.547 1.663-1.657 1.002l-2.5-1.491z"/><path d="m295.019 229.295v-1.955l-1.509-.9v1.956zm-1.509 9.266 1.509.9v-8.564l-1.509-.9z"/><path d="m297.396 237.675c0 2.562.548 3.529 2.737 4.834l.385.23v-1.4l-.325-.194c-.992-.591-1.288-1.138-1.288-2.402v-9.002l-1.509-.9z"/><path d="m301.818 240.31c0 2.563.547 3.529 2.737 4.835l.384.229v-1.399l-.325-.194c-.992-.591-1.287-1.138-1.287-2.403v-9.002l-1.509-.899z"/><path d="m307.762 236.892v-1.956l-1.509-.9v1.956zm-1.509 9.265 1.509.9v-8.564l-1.509-.899z"/><path d="m309.918 244.717c0 2.63.976 4.375 3.181 5.689 2.189 1.306 3.166.725 3.166-1.905v-1.315c0-2.63-.977-4.375-3.166-5.681-2.205-1.314-3.181-.733-3.181 1.897zm4.838 2.766c0 1.753-.503 2.229-1.672 1.532-1.139-.679-1.657-1.763-1.657-3.516v-1.079c0-1.753.518-2.22 1.657-1.541 1.169.697 1.672 1.772 1.672 3.525z"/><path d="m319.913 254.3v-4.383c0-2.09.429-2.627 1.569-1.948 1.065.635 1.479 1.607 1.479 3.428v4.72l1.509.9v-4.906c0-.961-.074-1.73-.222-2.307-.355-1.308-1.198-2.367-2.515-3.152-.932-.555-1.613-.624-2.056-.197l-.119-.93-1.154-.688v8.564z"/></g><path d="m240.159 204.786c.533 1.413 1.568 2.637 3.092 3.68v2.394l1.524.909v-2.428c1.879.833 2.811.293 2.811-1.612 0-1.129-.34-2.141-1.021-3.069-.533-.706-.814-.991-2.219-2.217-1.716-1.495-2.293-2.345-2.293-3.407 0-1.011.68-1.212 1.805-.542.932.556 1.642 1.333 2.1 2.314l1.184-.154c-.429-1.132-1.228-2.131-2.367-2.979v-1.871l-1.524-.908v1.837c-.607-.277-1.065-.416-1.405-.416-.844.02-1.317.732-1.317 1.946 0 1.82.902 3.353 3.048 5.222.769.661 1.227 1.069 1.39 1.217.163.147.326.345.518.612.385.516.577 1.069.577 1.659 0 1.129-.769 1.277-2.145.457-1.228-.732-2.086-1.682-2.545-2.815z" stroke="#353c50" stroke-width=".5"/><path d="m249.968 206.233c-.872.036-1.213.676-1.213 2.21 0 2.495.992 4.199 3.196 5.513s3.196.792 3.196-1.703c0-1.534-.341-2.58-1.214-3.656.666-.261.918-.785.918-1.982 0-2.242-.932-3.86-2.9-5.033s-2.9-.666-2.9 1.576c0 1.213.222 1.986.917 3.075zm1.998-3.26c.961.573 1.39 1.419 1.39 2.751 0 1.366-.414 1.692-1.405 1.101s-1.406-1.411-1.406-2.777c0-1.365.415-1.674 1.421-1.075zm.015 5.252c1.109.661 1.597 1.61 1.597 3.093 0 1.501-.488 1.85-1.627 1.171s-1.627-1.577-1.627-3.111c0-1.5.488-1.85 1.657-1.153z" stroke="#353c50" stroke-width=".5"/><path d="m256.834 212.365c0 1.45.177 2.601.547 3.445.533 1.245 1.361 2.194 2.501 2.873 1.198.715 1.938.802 2.485.302.459-.401.681-1.381.681-2.915v-3.372c0-1.433-.178-2.567-.548-3.445-.547-1.254-1.42-2.229-2.618-2.943-1.051-.627-1.835-.706-2.368-.231-.458.384-.68 1.364-.68 2.915zm4.66 2.61c0 2.343-.429 2.947-1.568 2.268-1.11-.661-1.539-1.811-1.539-4.12v-3.035c0-2.309.429-2.947 1.539-2.285 1.139.679 1.568 1.794 1.568 4.138z" stroke="#353c50" stroke-width=".5"/><path d="m264.824 217.128c0 1.45.177 2.601.547 3.445.533 1.245 1.361 2.194 2.5 2.873 1.199.714 1.938.801 2.486.302.458-.401.68-1.382.68-2.916v-3.371c0-1.433-.177-2.567-.547-3.445-.547-1.254-1.42-2.229-2.619-2.944-1.05-.626-1.834-.706-2.367-.231-.458.384-.68 1.365-.68 2.916zm4.66 2.61c0 2.343-.429 2.947-1.568 2.268-1.11-.662-1.539-1.811-1.539-4.12v-3.035c0-2.309.429-2.947 1.539-2.286 1.139.679 1.568 1.795 1.568 4.138z" stroke="#353c50" stroke-width=".5"/><path d="m275.254 222.301v3.22l1.317.785v-3.22l2.767 1.649v-1.382l-2.767-1.649v-3.237l-1.317-.785v3.237l-2.766-1.65v1.383z" stroke="#353c50" stroke-width=".5"/><path d="m288.47 235.556c.991.591 1.716.804 2.175.656.636-.177.946-.885.946-2.099 0-.826-.133-1.58-.414-2.27-.133-.366-.399-.811-.769-1.318l-.148-.19c.754-.106 1.139-.737 1.139-1.9 0-1.062-.281-2.039-.828-2.938-.489-.78-1.258-1.475-2.294-2.092l-3.979-2.372v12.036zm-2.604-12.139 2.293 1.367c1.11.662 1.672 1.604 1.672 2.834 0 .675-.163 1.067-.474 1.185-.266.094-.665-.009-1.198-.327l-2.293-1.367zm0 5.142 2.5 1.491c1.11.661 1.657 1.662 1.657 2.993 0 1.332-.547 1.663-1.657 1.002l-2.5-1.491z" stroke="#353c50" stroke-width=".5"/><path d="m295.019 229.295v-1.955l-1.509-.9v1.956zm-1.509 9.266 1.509.9v-8.564l-1.509-.9z" stroke="#353c50" stroke-width=".5"/><path d="m297.396 237.675c0 2.562.548 3.529 2.737 4.834l.385.23v-1.4l-.325-.194c-.992-.591-1.288-1.138-1.288-2.402v-9.002l-1.509-.9z" stroke="#353c50" stroke-width=".5"/><path d="m301.818 240.31c0 2.563.547 3.529 2.737 4.835l.384.229v-1.399l-.325-.194c-.992-.591-1.287-1.138-1.287-2.403v-9.002l-1.509-.899z" stroke="#353c50" stroke-width=".5"/><path d="m307.762 236.892v-1.956l-1.509-.9v1.956zm-1.509 9.265 1.509.9v-8.564l-1.509-.899z" stroke="#353c50" stroke-width=".5"/><path d="m309.918 244.717c0 2.63.976 4.375 3.181 5.689 2.189 1.306 3.166.725 3.166-1.905v-1.315c0-2.63-.977-4.375-3.166-5.681-2.205-1.314-3.181-.733-3.181 1.897zm4.838 2.766c0 1.753-.503 2.229-1.672 1.532-1.139-.679-1.657-1.763-1.657-3.516v-1.079c0-1.753.518-2.22 1.657-1.541 1.169.697 1.672 1.772 1.672 3.525z" stroke="#353c50" stroke-width=".5"/><path d="m319.913 254.3v-4.383c0-2.09.429-2.627 1.569-1.948 1.065.635 1.479 1.607 1.479 3.428v4.72l1.509.9v-4.906c0-.961-.074-1.73-.222-2.307-.355-1.308-1.198-2.367-2.515-3.152-.932-.555-1.613-.624-2.056-.197l-.119-.93-1.154-.688v8.564z" stroke="#353c50" stroke-width=".5"/><path d="m239.16 204.759c.533 1.414 1.568 2.638 3.092 3.681v2.394l1.524.908v-2.427c1.879.833 2.811.293 2.811-1.612 0-1.129-.34-2.141-1.021-3.07-.533-.705-.814-.99-2.219-2.216-1.716-1.495-2.293-2.345-2.293-3.407 0-1.011.68-1.213 1.805-.542.932.555 1.642 1.333 2.101 2.314l1.183-.154c-.429-1.132-1.228-2.131-2.367-2.979v-1.871l-1.524-.909v1.838c-.607-.277-1.065-.416-1.405-.416-.844.019-1.317.732-1.317 1.946 0 1.82.902 3.353 3.048 5.222.769.661 1.228 1.069 1.39 1.216.163.148.326.346.518.613.385.515.577 1.068.577 1.658 0 1.13-.769 1.278-2.145.458-1.228-.732-2.086-1.682-2.545-2.815z" fill="#ffeb96"/><path d="m248.969 206.207c-.872.036-1.213.676-1.213 2.21 0 2.495.992 4.199 3.196 5.513s3.196.792 3.196-1.703c0-1.534-.341-2.58-1.214-3.656.666-.261.918-.785.918-1.982 0-2.242-.932-3.86-2.9-5.033s-2.9-.667-2.9 1.575c0 1.214.222 1.987.917 3.076zm1.998-3.26c.961.573 1.39 1.419 1.39 2.751 0 1.365-.414 1.692-1.405 1.101s-1.406-1.411-1.406-2.777c0-1.365.415-1.675 1.421-1.075zm.015 5.252c1.109.661 1.597 1.61 1.597 3.093 0 1.501-.488 1.85-1.627 1.171s-1.627-1.577-1.627-3.111c0-1.5.488-1.85 1.657-1.153z" fill="#ffeb96"/><path d="m255.835 212.339c0 1.45.177 2.601.547 3.445.533 1.245 1.361 2.194 2.501 2.873 1.198.715 1.938.801 2.485.302.459-.401.681-1.382.681-2.916v-3.371c0-1.433-.178-2.567-.548-3.445-.547-1.254-1.42-2.229-2.618-2.944-1.051-.626-1.835-.705-2.368-.231-.458.384-.68 1.365-.68 2.916zm4.66 2.61c0 2.343-.429 2.947-1.568 2.268-1.11-.661-1.539-1.811-1.539-4.12v-3.035c0-2.309.429-2.947 1.539-2.286 1.139.68 1.568 1.795 1.568 4.138z" fill="#ffeb96"/><path d="m263.825 217.102c0 1.45.177 2.601.547 3.445.533 1.245 1.361 2.194 2.5 2.873 1.199.714 1.938.801 2.486.301.458-.4.68-1.381.68-2.915v-3.371c0-1.433-.177-2.568-.547-3.445-.547-1.254-1.42-2.229-2.619-2.944-1.05-.626-1.834-.706-2.367-.231-.458.384-.68 1.365-.68 2.915zm4.66 2.61c0 2.343-.429 2.947-1.568 2.268-1.11-.662-1.539-1.811-1.539-4.121v-3.034c0-2.309.429-2.947 1.539-2.286 1.139.679 1.568 1.795 1.568 4.138z" fill="#ffeb96"/><path d="m274.256 222.275v3.22l1.316.785v-3.22l2.767 1.649v-1.382l-2.767-1.65v-3.236l-1.316-.785v3.236l-2.767-1.649v1.383z" fill="#ffeb96"/><path d="m287.471 235.53c.991.591 1.716.804 2.175.656.636-.177.946-.885.946-2.099 0-.826-.133-1.58-.414-2.27-.133-.366-.399-.811-.769-1.318l-.148-.19c.754-.106 1.139-.737 1.139-1.9 0-1.062-.281-2.039-.828-2.938-.489-.78-1.258-1.475-2.294-2.092l-3.979-2.372v12.036zm-2.604-12.139 2.293 1.367c1.11.662 1.672 1.604 1.672 2.834 0 .675-.163 1.066-.474 1.185-.266.094-.665-.009-1.198-.327l-2.293-1.367zm0 5.142 2.5 1.49c1.11.662 1.657 1.662 1.657 2.994s-.547 1.663-1.657 1.002l-2.5-1.491z" fill="#ffeb96"/><path d="m294.02 229.269v-1.955l-1.509-.9v1.956zm-1.509 9.266 1.509.899v-8.563l-1.509-.9z" fill="#ffeb96"/><path d="m296.397 237.648c0 2.563.548 3.53 2.737 4.835l.385.229v-1.399l-.325-.194c-.992-.591-1.288-1.138-1.288-2.402v-9.003l-1.509-.899z" fill="#ffeb96"/><path d="m300.819 240.284c0 2.562.547 3.529 2.737 4.835l.384.229v-1.399l-.325-.194c-.992-.591-1.287-1.139-1.287-2.403v-9.002l-1.509-.9z" fill="#ffeb96"/><path d="m306.763 236.865v-1.955l-1.509-.9v1.956zm-1.509 9.266 1.509.9v-8.564l-1.509-.9z" fill="#ffeb96"/><path d="m308.919 244.691c0 2.63.976 4.375 3.181 5.689 2.189 1.306 3.166.724 3.166-1.905v-1.315c0-2.63-.977-4.376-3.166-5.681-2.205-1.314-3.181-.733-3.181 1.897zm4.838 2.766c0 1.753-.503 2.229-1.672 1.532-1.139-.679-1.657-1.763-1.657-3.516v-1.079c0-1.754.518-2.22 1.657-1.541 1.169.696 1.672 1.772 1.672 3.525z" fill="#ffeb96"/><path d="m318.914 254.274v-4.383c0-2.09.429-2.627 1.569-1.948 1.065.635 1.479 1.607 1.479 3.428v4.72l1.509.899v-4.905c0-.961-.074-1.73-.222-2.307-.355-1.308-1.198-2.367-2.515-3.152-.932-.555-1.613-.624-2.056-.197l-.119-.931-1.154-.687v8.563z" fill="#ffeb96"/><path d="m239.16 204.759c.533 1.414 1.568 2.638 3.092 3.681v2.394l1.524.908v-2.427c1.879.833 2.811.293 2.811-1.612 0-1.129-.34-2.141-1.021-3.07-.533-.705-.814-.99-2.219-2.216-1.716-1.495-2.293-2.345-2.293-3.407 0-1.011.68-1.213 1.805-.542.932.555 1.642 1.333 2.101 2.314l1.183-.154c-.429-1.132-1.228-2.131-2.367-2.979v-1.871l-1.524-.909v1.838c-.607-.277-1.065-.416-1.405-.416-.844.019-1.317.732-1.317 1.946 0 1.82.902 3.353 3.048 5.222.769.661 1.228 1.069 1.39 1.216.163.148.326.346.518.613.385.515.577 1.068.577 1.658 0 1.13-.769 1.278-2.145.458-1.228-.732-2.086-1.682-2.545-2.815z" mask="url(#e)" stroke="#353c50"/><path d="m248.969 206.207c-.872.036-1.213.676-1.213 2.21 0 2.495.992 4.199 3.196 5.513s3.196.792 3.196-1.703c0-1.534-.341-2.58-1.214-3.656.666-.261.918-.785.918-1.982 0-2.242-.932-3.86-2.9-5.033s-2.9-.667-2.9 1.575c0 1.214.222 1.987.917 3.076zm1.998-3.26c.961.573 1.39 1.419 1.39 2.751 0 1.365-.414 1.692-1.405 1.101s-1.406-1.411-1.406-2.777c0-1.365.415-1.675 1.421-1.075zm.015 5.252c1.109.661 1.597 1.61 1.597 3.093 0 1.501-.488 1.85-1.627 1.171s-1.627-1.577-1.627-3.111c0-1.5.488-1.85 1.657-1.153z" mask="url(#e)" stroke="#353c50"/><path d="m255.835 212.339c0 1.45.177 2.601.547 3.445.533 1.245 1.361 2.194 2.501 2.873 1.198.715 1.938.801 2.485.302.459-.401.681-1.382.681-2.916v-3.371c0-1.433-.178-2.567-.548-3.445-.547-1.254-1.42-2.229-2.618-2.944-1.051-.626-1.835-.705-2.368-.231-.458.384-.68 1.365-.68 2.916zm4.66 2.61c0 2.343-.429 2.947-1.568 2.268-1.11-.661-1.539-1.811-1.539-4.12v-3.035c0-2.309.429-2.947 1.539-2.286 1.139.68 1.568 1.795 1.568 4.138z" mask="url(#e)" stroke="#353c50"/><path d="m263.825 217.102c0 1.45.177 2.601.547 3.445.533 1.245 1.361 2.194 2.5 2.873 1.199.714 1.938.801 2.486.301.458-.4.68-1.381.68-2.915v-3.371c0-1.433-.177-2.568-.547-3.445-.547-1.254-1.42-2.229-2.619-2.944-1.05-.626-1.834-.706-2.367-.231-.458.384-.68 1.365-.68 2.915zm4.66 2.61c0 2.343-.429 2.947-1.568 2.268-1.11-.662-1.539-1.811-1.539-4.121v-3.034c0-2.309.429-2.947 1.539-2.286 1.139.679 1.568 1.795 1.568 4.138z" mask="url(#e)" stroke="#353c50"/><path d="m274.256 222.275v3.22l1.316.785v-3.22l2.767 1.649v-1.382l-2.767-1.65v-3.236l-1.316-.785v3.236l-2.767-1.649v1.383z" mask="url(#e)" stroke="#353c50"/><path d="m287.471 235.53c.991.591 1.716.804 2.175.656.636-.177.946-.885.946-2.099 0-.826-.133-1.58-.414-2.27-.133-.366-.399-.811-.769-1.318l-.148-.19c.754-.106 1.139-.737 1.139-1.9 0-1.062-.281-2.039-.828-2.938-.489-.78-1.258-1.475-2.294-2.092l-3.979-2.372v12.036zm-2.604-12.139 2.293 1.367c1.11.662 1.672 1.604 1.672 2.834 0 .675-.163 1.066-.474 1.185-.266.094-.665-.009-1.198-.327l-2.293-1.367zm0 5.142 2.5 1.49c1.11.662 1.657 1.662 1.657 2.994s-.547 1.663-1.657 1.002l-2.5-1.491z" mask="url(#e)" stroke="#353c50"/><path d="m294.02 229.269v-1.955l-1.509-.9v1.956zm-1.509 9.266 1.509.899v-8.563l-1.509-.9z" mask="url(#e)" stroke="#353c50"/><path d="m296.397 237.648c0 2.563.548 3.53 2.737 4.835l.385.229v-1.399l-.325-.194c-.992-.591-1.288-1.138-1.288-2.402v-9.003l-1.509-.899z" mask="url(#e)" stroke="#353c50"/><path d="m300.819 240.284c0 2.562.547 3.529 2.737 4.835l.384.229v-1.399l-.325-.194c-.992-.591-1.287-1.139-1.287-2.403v-9.002l-1.509-.9z" mask="url(#e)" stroke="#353c50"/><path d="m306.763 236.865v-1.955l-1.509-.9v1.956zm-1.509 9.266 1.509.9v-8.564l-1.509-.9z" mask="url(#e)" stroke="#353c50"/><path d="m308.919 244.691c0 2.63.976 4.375 3.181 5.689 2.189 1.306 3.166.724 3.166-1.905v-1.315c0-2.63-.977-4.376-3.166-5.681-2.205-1.314-3.181-.733-3.181 1.897zm4.838 2.766c0 1.753-.503 2.229-1.672 1.532-1.139-.679-1.657-1.763-1.657-3.516v-1.079c0-1.754.518-2.22 1.657-1.541 1.169.696 1.672 1.772 1.672 3.525z" mask="url(#e)" stroke="#353c50"/><path d="m318.914 254.274v-4.383c0-2.09.429-2.627 1.569-1.948 1.065.635 1.479 1.607 1.479 3.428v4.72l1.509.899v-4.905c0-.961-.074-1.73-.222-2.307-.355-1.308-1.198-2.367-2.515-3.152-.932-.555-1.613-.624-2.056-.197l-.119-.931-1.154-.687v8.563z" mask="url(#e)" stroke="#353c50"/><path d="m242.528 144.48-.223-.447-.015.007-.014.008zm3.972-.48c.276 0 .5-.224.5-.5s-.224-.5-.5-.5zm-49.248 27.432 45.527-26.52-.503-.864-45.528 26.52zm45.498-26.504c1.459-.726 3.19-.928 3.75-.928v-1c-.675 0-2.567.222-4.195 1.033z" fill="#353c50"/><path d="m235.5 137c-.776-.783-3.17-.108-5 1-1.704 1.032-29.787 16.956-44.009 25.048-.517.261-1.241 1.096 0 2.349 1.551 1.566 6.509 4.103 10.085 3.524 1.651-.268 31.418-18.532 46.157-27.407 1.164-.522 3.646-.783 4.267 2.349" stroke="#353c50" stroke-linecap="round"/><path d="m183 163.831c0-.261.707-1.265 3.5-2.831s30.183-17.17 43.5-25c.646-.392 3.948-1.349 5.5 1" stroke="#353c50" stroke-linecap="round"/></svg>