<svg fill="none" height="562" viewBox="0 0 372 562" width="372" xmlns="http://www.w3.org/2000/svg" xmlns:xlink="http://www.w3.org/1999/xlink"><linearGradient id="a" gradientUnits="userSpaceOnUse" x1="118" x2="118" y1="385" y2="424"><stop offset="0" stop-color="#ffe3ff"/><stop offset="1" stop-color="#ffc3ff"/></linearGradient><linearGradient id="b" gradientUnits="userSpaceOnUse" x1="280.36" x2="272.156" y1="392.517" y2="408.632"><stop offset="0" stop-color="#ff6ecd"/><stop offset="1" stop-color="#fff"/></linearGradient><mask id="c" height="562" maskUnits="userSpaceOnUse" width="372" x="0" y="0"><path d="m362 0h-352c-5.52285 0-10 4.47715-10 10v542c0 5.523 4.47715 10 10 10h352c5.523 0 10-4.477 10-10v-542c0-5.52285-4.477-10-10-10z" fill="#fff"/></mask><mask id="d" height="157" maskUnits="userSpaceOnUse" width="84" x="147" y="233"><path d="m147.77 377.75.193-105.497c.003-1.424.762-2.739 1.995-3.454l60.659-35.157c1.682-.975 3.836-.402 4.811 1.28.04.068.077.138.112.209l-.934-.117c-1.075-.135-2.165.083-3.105.622l-59.719 34.182c-.48.274-.646.885-.372 1.364.043.074.094.143.154.204 1.682 1.716 3.171 2.955 4.465 3.717 1.1.647 2.813 1.286 5.14 1.916 1.817.492 3.756.231 5.379-.724l58.567-34.465c1.801-1.06 4.12-.459 5.18 1.342.191.325.333.677.42 1.044-1.977-.469-4.058-.162-5.817.856l-56.961 32.981c-1.839 1.064-2.977 3.021-2.994 5.145l-.823 104.775c-.009 1.105-.911 1.993-2.016 1.985-.183-.002-.366-.029-.542-.08-3.395-.986-5.835-1.929-7.318-2.829-1.309-.794-2.785-2.109-4.43-3.943-1.32-1.472-2.048-3.38-2.044-5.356z" fill="#fff"/></mask><mask id="e" fill="#000" height="80.6394" maskUnits="userSpaceOnUse" width="100.048" x="219.122" y="307.507"><path d="m219.122 307.507h100.048v80.6394h-100.048z" fill="#fff"/><path d="m220 322.688c.62 1.644 1.825 3.069 3.599 4.284v2.786l1.774 1.057v-2.825c2.187.97 3.272.341 3.272-1.876 0-1.315-.396-2.493-1.188-3.573-.62-.821-.948-1.153-2.584-2.58-1.997-1.74-2.669-2.729-2.669-3.965 0-1.178.792-1.412 2.101-.632 1.085.647 1.912 1.552 2.445 2.694l1.378-.179c-.499-1.318-1.429-2.481-2.755-3.468v-2.178l-1.774-1.057v2.139c-.706-.323-1.24-.484-1.636-.485-.981.023-1.532.852-1.532 2.265 0 2.119 1.05 3.903 3.547 6.079.895.769 1.429 1.244 1.619 1.416.189.172.379.402.602.712.448.601.672 1.244.672 1.931 0 1.315-.895 1.488-2.497.533-1.429-.852-2.428-1.958-2.962-3.277z" fill="#000"/><path d="m231.418 324.372c-1.016.042-1.412.787-1.412 2.573 0 2.904 1.154 4.887 3.72 6.416 2.565 1.53 3.719.923 3.719-1.981 0-1.786-.396-3.003-1.412-4.256.775-.304 1.068-.914 1.068-2.307 0-2.61-1.085-4.493-3.375-5.858-2.291-1.366-3.376-.776-3.376 1.834 0 1.412.259 2.312 1.068 3.579zm2.325-3.794c1.119.667 1.618 1.652 1.618 3.202 0 1.589-.482 1.969-1.635 1.281-1.154-.688-1.636-1.642-1.636-3.232 0-1.589.482-1.949 1.653-1.251zm.017 6.113c1.292.77 1.86 1.874 1.86 3.6 0 1.747-.568 2.154-1.894 1.363-1.326-.79-1.895-1.835-1.895-3.621 0-1.746.569-2.153 1.929-1.342z" fill="#000"/><path d="m239.409 331.51c0 1.688.207 3.028.637 4.01.62 1.449 1.584 2.554 2.91 3.344 1.395.832 2.256.933 2.894.351.533-.467.792-1.608.792-3.393v-3.925c0-1.668-.207-2.988-.638-4.01-.637-1.459-1.653-2.594-3.048-3.426-1.222-.728-2.135-.821-2.755-.269-.534.448-.792 1.589-.792 3.394zm5.424 3.038c0 2.727-.499 3.43-1.825 2.64-1.291-.77-1.791-2.108-1.791-4.796v-3.532c0-2.688.5-3.431 1.791-2.661 1.326.791 1.825 2.089 1.825 4.817z" fill="#000"/><path d="m248.709 337.054c0 1.687.206 3.027.637 4.01.62 1.449 1.584 2.553 2.91 3.344 1.395.831 2.256.932 2.893.351.534-.467.792-1.608.792-3.394v-3.924c0-1.668-.206-2.988-.637-4.01-.637-1.459-1.653-2.594-3.048-3.426-1.222-.729-2.135-.821-2.755-.269-.534.447-.792 1.588-.792 3.394zm5.424 3.037c0 2.728-.499 3.431-1.825 2.64-1.292-.769-1.791-2.107-1.791-4.795v-3.532c0-2.689.499-3.431 1.791-2.661 1.326.79 1.825 2.089 1.825 4.816z" fill="#000"/><path d="m260.85 343.075v3.748l1.533.913v-3.747l3.22 1.919v-1.609l-3.22-1.92v-3.767l-1.533-.914v3.768l-3.22-1.92v1.609z" fill="#000"/><path d="m276.232 358.504c1.154.687 1.998.935 2.532.763.74-.206 1.102-1.03 1.102-2.443 0-.962-.155-1.839-.483-2.642-.155-.426-.465-.945-.895-1.535l-.172-.22c.878-.124 1.326-.858 1.326-2.212 0-1.236-.327-2.373-.965-3.42-.568-.908-1.463-1.716-2.669-2.435l-4.632-2.761v14.01zm-3.031-14.13 2.669 1.591c1.292.77 1.946 1.867 1.946 3.299 0 .785-.189 1.241-.551 1.379-.31.109-.775-.011-1.395-.38l-2.669-1.591zm0 5.985 2.911 1.735c1.291.77 1.928 1.935 1.928 3.485s-.637 1.935-1.928 1.165l-2.911-1.734z" fill="#000"/><path d="m283.856 351.216v-2.276l-1.757-1.047v2.276zm-1.757 10.785 1.757 1.047v-9.968l-1.757-1.047z" fill="#000"/><path d="m286.622 360.969c0 2.983.638 4.108 3.186 5.628l.448.266v-1.628l-.379-.226c-1.154-.688-1.498-1.325-1.498-2.796v-10.479l-1.757-1.047z" fill="#000"/><path d="m291.768 364.037c0 2.982.638 4.108 3.186 5.627l.448.267v-1.629l-.379-.225c-1.154-.688-1.498-1.325-1.498-2.797v-10.478l-1.757-1.047z" fill="#000"/><path d="m298.688 360.058v-2.276l-1.756-1.047v2.276zm-1.756 10.785 1.756 1.047v-9.968l-1.756-1.047z" fill="#000"/><path d="m301.197 369.167c0 3.061 1.136 5.092 3.702 6.622 2.549 1.519 3.685.843 3.685-2.219v-1.53c0-3.061-1.136-5.093-3.685-6.612-2.566-1.529-3.702-.853-3.702 2.208zm5.631 3.219c0 2.041-.586 2.594-1.946 1.783-1.326-.79-1.929-2.052-1.929-4.093v-1.255c0-2.041.603-2.585 1.929-1.794 1.36.811 1.946 2.063 1.946 4.103z" fill="#000"/><path d="m312.831 380.321v-5.102c0-2.433.5-3.058 1.826-2.267 1.24.739 1.722 1.87 1.722 3.989v5.494l1.756 1.048v-5.71c0-1.119-.086-2.014-.258-2.686-.413-1.522-1.395-2.754-2.928-3.668-1.084-.647-1.877-.726-2.393-.23l-.138-1.083-1.343-.8v9.968z" fill="#000"/></mask><g mask="url(#c)"><path d="m362 0h-352c-5.52285 0-10 4.47715-10 10v542c0 5.523 4.47715 10 10 10h352c5.523 0 10-4.477 10-10v-542c0-5.52285-4.477-10-10-10z" fill="#ff6ecd" opacity=".4"/><path clip-rule="evenodd" d="m191.614 344.517c2.058.035 4.106.622 5.914 1.757l204.146 128.071c1.052.66 1.738 1.684 1.995 2.807s.086 2.343-.575 3.396c-.392.626-.933 1.145-1.574 1.513l-139.032 79.674c-1.981 1.136-4.194 1.686-6.398 1.653-2.204-.032-4.399-.646-6.347-1.839l-205.3346-125.798c-1.0596-.649-1.7558-1.667-2.0247-2.786-.269-1.12-.1108-2.343.5384-3.402.3899-.637.932-1.166 1.5776-1.541l141.1423-81.952c1.847-1.072 3.914-1.588 5.972-1.553z" fill="#b92887" fill-rule="evenodd" stroke="#353c50"/><path clip-rule="evenodd" d="m191.614 341.517c2.058.035 4.106.622 5.914 1.757l204.146 128.071c1.052.66 1.738 1.684 1.995 2.807s.086 2.343-.575 3.396c-.392.626-.933 1.145-1.574 1.513l-139.032 79.674c-1.981 1.136-4.194 1.686-6.398 1.653-2.204-.032-4.399-.646-6.347-1.839l-205.3346-125.798c-1.0596-.649-1.7558-1.667-2.0247-2.786-.269-1.12-.1108-2.343.5384-3.402.3899-.637.932-1.166 1.5776-1.541l141.1423-81.952c1.847-1.072 3.914-1.588 5.972-1.553z" fill="#ff82e1" fill-rule="evenodd" stroke="#353c50"/><path clip-rule="evenodd" d="m123.065 387.816c8.847-1.053 17.018.567 21.37 4.066 3.196 2.568 4.244 5.108 4.041 7.378-.293 3.265-3.088 5.904-5.344 7.157-1.707.948-5.654 3.142-9.794 5.455l-.83.464c-.112.063-.225.126-.338.189l-1.014.567c-3.149 1.763-6.202 3.48-8.265 4.66l-.426.244c-.958.551-1.653.958-1.972 1.16-1.962 1.242-10.351 6.48-20.275 6.341-3.2359-.045-5.9083-.792-8.009-2.261-2.0858-1.459-3.6003-3.628-4.5588-6.495-.5152-2.556.2953-5.427 2.3642-8.619 2.1467-3.312 5.6428-6.956 10.4796-10.938 6.706-5.52 14.899-8.454 22.571-9.368z" fill="#b92887" fill-rule="evenodd" stroke="#353c50"/><path clip-rule="evenodd" d="m87.1667 414.872c1.9927 5.99 6.3409 9.032 13.0443 9.125 10.056.141 18.561-5.159 20.549-6.419 1.988-1.259 18.577-10.48 22.614-12.724 4.038-2.243 9.615-8.737 1.375-15.362-8.241-6.624-29.914-6.76-44.573 5.306-9.7718 8.045-14.1084 14.736-13.0093 20.074z" fill="url(#a)" fill-rule="evenodd" stroke="#353c50"/><path clip-rule="evenodd" d="m214.751 235.159 15.942 10.373 10.171 5.671-61.731 36.308c-4.19-.127-7.153-.591-8.887-1.393-1.734-.801-3.873-2.693-6.415-5.676-4.499-1.117-7.689-2.167-9.569-3.148-1.881-.982-4.014-2.711-6.398-5.186 40.235-23.461 61.169-35.486 62.804-36.074 1.634-.588 2.995-1.096 4.083-1.523" fill="#fff" fill-rule="evenodd"/><path d="m214.751 235.159 15.942 10.373 10.171 5.671-61.731 36.308c-4.19-.127-7.153-.591-8.887-1.393-1.734-.801-3.873-2.693-6.415-5.676-4.499-1.117-7.689-2.167-9.569-3.148-1.881-.982-4.014-2.711-6.398-5.186 40.235-23.461 61.169-35.486 62.804-36.074 1.634-.588 2.995-1.096 4.083-1.523" stroke="#353c50"/><g clip-rule="evenodd" fill-rule="evenodd" mask="url(#d)" stroke="#353c50"><path d="m209.367 235.209c.96-.557 2.055-.671 3.05-.407 1.21.323 2.271 1.207 2.757 2.54l-1.573.175c-.986-.136-1.989.059-2.852.553l-59.719 34.182c1.563 2.483 2.999 3.682 4.253 4.42 1.073.632 2.746 1.25 5.016 1.864 1.688.457 3.488.215 4.995-.672l58.568-34.465c1.019-.6 2.185-.73 3.246-.455s2.018.955 2.618 1.974c.173.295.31.609.409.935.074.248.127.502.155.759-.232-.049-.466-.088-.699-.119-1.812-.236-3.78.049-5.442 1.011l-56.962 32.982c-1.685.975-2.728 2.769-2.744 4.716l-.823 104.775c-.006.691-.29 1.313-.746 1.762s-1.084.724-1.774.719c-.229-.002-.457-.036-.677-.1-3.453-1.002-5.931-1.967-7.439-2.882-1.34-.814-2.857-2.156-4.543-4.036-1.402-1.564-2.175-3.591-2.171-5.691l.193-105.497c.003-1.602.858-3.082 2.244-3.885z" stroke-width="3"/><path d="m148.294 271.597c1.607 4.548 7.49 7.415 17.649 8.6s33.261-10.669 69.308-35.563v-12.88l-28.16-10.017-62.117 38.927z" fill="#f05fbe" stroke-linejoin="round"/></g><path d="m147.496 278.988.001-.703v-.332-2.522-.001c-.001-.711-.003-1.17-.007-1.373-.021-1.254.039-2.175.137-2.802.05-.315.107-.543.163-.698.036-.099.064-.148.076-.168.003-.001.005-.002.008-.003 1.283 3.301 3.222 5.468 5.955 6.79 3.786 1.83 7.843 2.84 12.164 3.032-.538.322-.803.962-.95 1.659-.152.722-.206 1.648-.206 2.726-.503 68.051-.782 102.75-.837 104.126-.03.763-.296 1.222-.69 1.504-.371.265-.96.429-1.854.358-2.898-.897-5.915-2.387-9.152-4.508-3.22-2.111-4.945-5.285-5.13-9.613.2-53.19.307-85.674.322-97.472z" fill="#ff82e1" stroke="#353c50" stroke-linejoin="round"/><path clip-rule="evenodd" d="m147.49 280.999.685.478c4.881 3.407 10.526 5.561 16.436 6.272v4.251l-1.04-.146c-5.814-.814-11.337-3.05-16.081-6.509z" fill="#d241a0" fill-rule="evenodd" stroke="#353c50" stroke-linejoin="round"/><path clip-rule="evenodd" d="m164 389.956c1.868 2.45 3.915 4.169 6.141 5.157 2.225.987 5.8 1.616 10.723 1.887l63.111-41.976c.557-.37.892-.994.892-1.663l.129-101.881c.001-1.105-.893-2.001-1.998-2.003-.354 0-.701.093-1.007.271l-60.993 35.429c-7.211.592-12.041-1.336-14.492-5.785-.994.999-1.558 2.348-1.57 3.757z" fill="#d241a0" fill-rule="evenodd" stroke="#353c50" stroke-linejoin="round"/><path clip-rule="evenodd" d="m165.02 283.327c3.518 3.791 8.512 5.356 14.98 4.696v108.977c-4.377-.262-7.527-.814-9.451-1.654-1.924-.841-4.107-2.619-6.549-5.335z" fill="#ff82e1" fill-rule="evenodd" stroke="#353c50"/><path clip-rule="evenodd" d="m164.837 290.057c4.081 3.222 9.242 4.758 14.421 4.292l.754-.068v3.892l-2.294.267c-4.583.533-9.192-.758-12.831-3.594z" fill="#d241a0" fill-rule="evenodd" stroke="#353c50" stroke-linejoin="round"/><path clip-rule="evenodd" d="m164.837 298.057c4.081 3.222 9.242 4.758 14.421 4.292l.754-.068v3.892l-2.294.267c-4.583.533-9.192-.758-12.831-3.594z" fill="#d241a0" fill-rule="evenodd" stroke="#353c50" stroke-linejoin="round"/><path clip-rule="evenodd" d="m360.41 361.584-149.125-86.089c-1.001-.582-1.906-.631-2.56-.25l-3.509 2.036c.655-.381 1.562-.329 2.56.25l149.126 86.089c1.99 1.146 3.595 3.932 3.59 6.215l-.291 100.506c0 1.134-.405 1.934-1.05 2.309l3.508-2.035c.646-.379 1.047-1.164 1.05-2.31l.291-100.506c.006-2.283-1.6-5.066-3.59-6.215z" fill="#ffafff" fill-rule="evenodd" stroke="#353c50"/><path clip-rule="evenodd" d="m357.04 363.317c1.985 1.147 3.587 3.935 3.582 6.219l-.291 100.563c0 2.288-1.619 3.202-3.604 2.061l-148.777-86.138c-1.982-1.15-3.587-3.935-3.578-6.219l.29-100.563c0-2.285 1.619-3.201 3.602-2.06z" fill="#f05fbe" fill-rule="evenodd" stroke="#353c50"/><path clip-rule="evenodd" d="m356.991 462.515.252-88.829-150.088-86.861-.25 88.826z" fill="#fff" fill-rule="evenodd" stroke="#353c50"/><path clip-rule="evenodd" d="m359.158 478.633-87.073 51.022c-1.978 1.176-5.199 1.176-7.192 0l-149.392-86.986c-1.003-.587-1.504-1.352-1.501-2.116v5.463c0 .767.498 1.532 1.501 2.116l149.392 86.986c1.99 1.176 5.214 1.176 7.192 0l87.059-51.013c.982-.588 1.474-1.331 1.478-2.086v-5.463c.011.746-.47 1.501-1.464 2.077z" fill="#b92887" fill-rule="evenodd" stroke="#353c50"/><path clip-rule="evenodd" d="m359.12 474.452c1.994 1.151 2.002 3.016.024 4.167l-87.068 50.594c-1.979 1.166-5.199 1.166-7.192 0l-149.383-86.256c-1.993-1.151-2.002-3.016-.023-4.164l87.068-50.586c1.978-1.148 5.198-1.165 7.192 0z" fill="#ff82e1" fill-rule="evenodd" stroke="#353c50"/><path clip-rule="evenodd" d="m241.107 472.904c.568.326.571.858 0 1.176l-24.749 14.374c-.642.327-1.402.327-2.044 0l-42.455-24.494c-.567-.327-.57-.856 0-1.177l24.758-14.383c.642-.326 1.402-.326 2.044 0z" fill="#ffafff" fill-rule="evenodd"/><path d="m207.194 407.054-4.603-2.686 4.577-2.669 4.609 2.686zm3.237 1.885 4.606 2.683 4.592-2.666-4.606-2.686zm7.851 4.568 4.595 2.692 4.577-2.669-4.606-2.683zm7.852 4.571 4.606 2.683 4.577-2.665-4.638-2.687zm17 4.58-4.604-2.677-4.58 2.677 4.607 2.683zm7.851 4.571-4.603-2.68-4.577 2.668 4.606 2.687zm7.852 4.568-4.63-2.68-4.577 2.669 4.603 2.686zm7.851 4.571-4.606-2.686-4.577 2.669 4.58 2.692zm7.851 4.569-4.606-2.684-4.577 2.669 4.606 2.683zm-1.343 4.553 4.606 2.686 4.577-2.668-4.606-2.684zm7.851 4.571 4.607 2.683 4.577-2.665-4.606-2.687zm16.965 4.598-4.606-2.684-4.568 2.66 4.606 2.686zm7.852 4.571-4.606-2.687-4.577 2.669 4.606 2.686zm7.851 4.568-4.629-2.68-4.577 2.668 4.606 2.684zm-109.734-54.871-4.606-2.686-4.577 2.668 4.606 2.687zm-1.343 4.554 4.606 2.683 4.577-2.669-4.606-2.683zm7.851 4.568 4.606 2.686 4.577-2.669-4.606-2.686zm7.851 4.571 4.583 2.68 4.578-2.665-4.604-2.687zm16.992 4.586-4.607-2.684-4.577 2.666 4.604 2.686zm7.851 4.571-4.606-2.687-4.577 2.669 4.606 2.683zm7.852 4.568-4.607-2.683-4.577 2.668 4.606 2.684zm7.851 4.571-4.629-2.698-4.578 2.669 4.607 2.686zm7.851 4.568-4.652-2.683-4.566 2.668 4.606 2.684zm-1.343 4.554 4.606 2.686 4.577-2.669-4.641-2.686zm7.851 4.571 4.56 2.692 4.577-2.669-4.594-2.692zm17.023 4.586-4.606-2.684-4.577 2.666 4.554 2.686zm7.852 4.571-4.606-2.687-4.636 2.681 4.612 2.671zm3.234 1.884-4.578 2.666 7.852 4.571 4.606 2.687 4.577-2.669-4.676-2.686zm-99.627-48.955-10.143-5.912-4.577 2.668 10.143 5.913zm.96 5.895 4.606 2.687 4.577-2.669-4.606-2.686zm7.851 4.572 4.607 2.683 4.577-2.669-4.606-2.683zm17.012 4.597-4.606-2.686-4.577 2.668 4.606 2.687zm7.851 4.568-4.606-2.683-4.577 2.669 4.606 2.683zm7.852 4.571-4.63-2.68-4.577 2.642 4.606 2.687zm7.851 4.571-4.603-2.686-4.58 2.669 4.606 2.683zm7.852 4.569-4.606-2.684-4.578 2.666 4.604 2.686zm-1.344 4.553 4.606 2.686 4.578-2.668-4.607-2.687zm7.852 4.571 4.606 2.684 4.519-2.681-4.606-2.683zm16.976 4.574-4.606-2.686-4.577 2.669 4.597 2.683zm7.852 4.568-4.606-2.683-4.578 2.669 4.607 2.683zm3.233 1.888-4.597 2.669 7.851 4.571 4.607 2.683 4.577-2.665-4.621-2.69zm-109.731-54.874-4.586 2.675 7.852 4.568 4.606 2.686 4.577-2.668-4.606-2.684zm11.117 11.814 4.606 2.684 4.577-2.666-4.606-2.686zm7.852 4.571 4.58 2.698 4.577-2.668-4.606-2.684zm17.023 4.586-4.606-2.686-4.578 2.668 4.607 2.687zm7.851 4.568-4.606-2.683-4.577 2.669 4.606 2.683zm7.852 4.571-4.607-2.686-4.577 2.669 4.607 2.686zm7.851 4.569-4.667-2.678-4.577 2.669 4.606 2.683zm7.852 4.571-4.607-2.684-4.577 2.666 4.606 2.686zm-1.344 4.553 4.606 2.683 4.577-2.665-4.606-2.687zm7.852 4.568 4.606 2.687 4.577-2.669-4.606-2.683zm17.023 4.589-4.604-2.686-4.58 2.668 4.607 2.687zm3.236 1.885-4.577 2.669 7.852 4.568 4.606 2.686 4.577-2.669-4.606-2.686zm-101.949-50.297-4.578 2.669 7.852 4.568 4.577 2.686 4.577-2.669-4.606-2.686zm11.102 11.808 4.6 2.683 4.578-2.668-4.607-2.684zm7.852 4.568 4.6 2.686 4.577-2.668-4.606-2.684zm7.851 4.571 43.805 25.542 4.577-2.669-43.805-25.541zm47.039 27.418 4.606 2.686 4.577-2.668-4.606-2.684zm12.417 1.902-4.606 2.669 7.851 4.568 4.606 2.687 4.577-2.669-4.606-2.683zm11.102 11.808 4.607 2.687 4.548-2.666-4.607-2.686zm39.005-13.595 4.606 2.686 4.577-2.669-4.606-2.686zm-23.401 13.616 4.607 2.683 4.577-2.668-4.607-2.684zm-7.793 4.542 4.606 2.683 4.577-2.669-4.606-2.683zm43.581-16.265-4.577 2.669 4.607 2.683 4.577-2.668zm-12.373 7.219 4.606 2.684 4.577-2.669-4.606-2.683zm-7.79 4.539 4.606 2.687 4.577-2.669-4.592-2.695zm-7.791 4.542 4.607 2.686 4.577-2.668-4.607-2.684zm-7.793 4.542 4.606 2.686 4.577-2.669-4.597-2.677z" fill="#ffc3ff"/><path clip-rule="evenodd" d="m215.194 368.887c11.424-2.894 19.359-1.248 23.806 4.938 6.671 9.28 18.853-3.513 26.356 1.175s6.07 7.704 20.283 5.5 9.282 8.178 23.473 10.5c9.461 1.548 21.653-1.952 36.578-10.5v66.854l-130.66-73.529z" fill="url(#b)" fill-rule="evenodd"/><g stroke="#ff6ecd"><path d="m215.194 368.887c11.424-2.894 19.359-1.248 23.806 4.938 6.671 9.28 18.853-3.513 26.356 1.175s6.07 7.704 20.283 5.5 9.282 8.178 23.473 10.5c9.461 1.548 21.653-1.952 36.578-10.5"/><path d="m215.5 310.5v63" opacity=".2" stroke-linecap="square"/><path d="m224.786 315.5v63" opacity=".1" stroke-linecap="square"/><path d="m234.071 320.5v63" opacity=".1" stroke-linecap="square"/><path d="m243.357 325.5v63" opacity=".1" stroke-linecap="square"/><path d="m252.643 331.5v63" opacity=".1" stroke-linecap="square"/><path d="m261.929 336.5v63" opacity=".1" stroke-linecap="square"/><path d="m271.214 341.5v63" opacity=".1" stroke-linecap="square"/><path d="m280.5 347.5v63" opacity=".1" stroke-linecap="square"/><path d="m289.786 352.5v63" opacity=".1" stroke-linecap="square"/><path d="m299.071 357.5v63" opacity=".1" stroke-linecap="square"/><path d="m308.357 362.5v63" opacity=".1" stroke-linecap="square"/><path d="m317.643 368.5v63" opacity=".1" stroke-linecap="square"/><path d="m326.929 373.5v63" opacity=".1" stroke-linecap="square"/><path d="m336.214 378.5v63" opacity=".1" stroke-linecap="square"/><path d="m345.5 384.5v63" opacity=".2" stroke-linecap="square"/><path d="m345.5 447.5-130-74" opacity=".2" stroke-linecap="square"/></g></g><path d="m225.5 245-.224-.447-.014.007-.014.008zm4.5 0c.276 0 .5-.224.5-.5s-.224-.5-.5-.5zm-63.248 34.932 59-34.5-.504-.864-59 34.5zm58.972-34.485c1.859-.929 3.319-.447 4.276-.447v-1c-.643 0-2.583-.518-4.724.553z" fill="#353c50"/><path d="m216 236c-1-1-3.641-.915-6 .5-2.196 1.318-39.167 22.667-57.5 33-.667.333-1.6 1.4 0 3 2 2 10.5 5.5 13 4.5 2-.8 40.5-23.667 59.5-35 1.5-.667 4.7-1 5.5 3" stroke="#353c50" stroke-linecap="round"/><path d="m148 270.5c0-.333.9-1.5 4.5-3.5s38.833-22.5 56-32.5c.833-.5 5-2 7 1" stroke="#353c50" stroke-linecap="round"/><path d="m221.163 322.718c.62 1.645 1.825 3.07 3.599 4.284v2.787l1.774 1.057v-2.826c2.187.97 3.272.342 3.272-1.876 0-1.314-.397-2.492-1.189-3.573-.62-.821-.947-1.153-2.583-2.58-1.997-1.74-2.669-2.729-2.669-3.965 0-1.177.792-1.411 2.101-.631 1.085.646 1.911 1.551 2.445 2.694l1.378-.18c-.499-1.318-1.429-2.481-2.755-3.467v-2.178l-1.774-1.058v2.139c-.706-.323-1.24-.484-1.636-.484-.982.023-1.533.852-1.533 2.265 0 2.119 1.051 3.903 3.548 6.078.895.769 1.429 1.245 1.618 1.416.19.172.379.403.603.713.448.6.672 1.244.672 1.931 0 1.314-.896 1.487-2.497.532-1.429-.852-2.428-1.957-2.962-3.276z" fill="#db7926"/><path d="m232.581 324.403c-1.016.042-1.412.787-1.412 2.572 0 2.904 1.153 4.887 3.719 6.417 2.566 1.529 3.72.922 3.72-1.982 0-1.786-.396-3.003-1.412-4.256.775-.303 1.068-.914 1.068-2.307 0-2.61-1.085-4.492-3.376-5.858-2.29-1.365-3.375-.776-3.375 1.834 0 1.413.258 2.313 1.068 3.58zm2.325-3.795c1.119.668 1.618 1.652 1.618 3.202 0 1.59-.482 1.969-1.636 1.282-1.153-.688-1.636-1.643-1.636-3.232s.483-1.95 1.654-1.252zm.017 6.113c1.291.77 1.86 1.874 1.86 3.601 0 1.746-.569 2.153-1.895 1.363-1.326-.791-1.894-1.836-1.894-3.621 0-1.747.568-2.154 1.929-1.343z" fill="#db7926"/><path d="m240.572 331.541c0 1.687.206 3.027.637 4.01.62 1.448 1.584 2.553 2.91 3.343 1.395.832 2.256.933 2.893.352.534-.467.792-1.608.792-3.394v-3.924c0-1.668-.206-2.988-.637-4.01-.637-1.459-1.653-2.595-3.048-3.426-1.222-.729-2.135-.822-2.755-.269-.534.447-.792 1.588-.792 3.393zm5.424 3.037c0 2.728-.499 3.431-1.825 2.64-1.292-.77-1.791-2.107-1.791-4.796v-3.532c0-2.688.499-3.43 1.791-2.66 1.326.79 1.825 2.089 1.825 4.816z" fill="#db7926"/><path d="m249.872 337.084c0 1.688.206 3.028.637 4.01.62 1.449 1.584 2.554 2.91 3.344 1.395.832 2.256.933 2.893.351.534-.466.792-1.608.792-3.393v-3.925c0-1.667-.206-2.988-.637-4.009-.637-1.46-1.653-2.595-3.048-3.426-1.223-.729-2.135-.822-2.755-.269-.534.447-.792 1.588-.792 3.393zm5.424 3.038c0 2.727-.499 3.43-1.825 2.64-1.292-.77-1.791-2.108-1.791-4.796v-3.532c0-2.688.499-3.43 1.791-2.661 1.326.791 1.825 2.089 1.825 4.817z" fill="#db7926"/><path d="m262.013 343.105v3.748l1.532.914v-3.748l3.221 1.92v-1.609l-3.221-1.92v-3.768l-1.532-.913v3.767l-3.22-1.919v1.609z" fill="#db7926"/><path d="m277.395 358.534c1.154.688 1.997.936 2.531.764.741-.207 1.102-1.031 1.102-2.444 0-.961-.155-1.839-.482-2.642-.155-.426-.465-.944-.895-1.534l-.172-.221c.878-.124 1.326-.858 1.326-2.212 0-1.236-.328-2.373-.965-3.42-.568-.907-1.464-1.716-2.669-2.434l-4.632-2.762v14.01zm-3.031-14.129 2.669 1.591c1.292.77 1.946 1.866 1.946 3.299 0 .785-.189 1.241-.551 1.378-.31.11-.775-.01-1.395-.38l-2.669-1.591zm0 5.985 2.91 1.734c1.292.77 1.929 1.935 1.929 3.485s-.637 1.936-1.929 1.166l-2.91-1.735z" fill="#db7926"/><path d="m285.018 351.246v-2.276l-1.756-1.047v2.276zm-1.756 10.786 1.756 1.047v-9.968l-1.756-1.048z" fill="#db7926"/><path d="m287.785 361c0 2.982.637 4.108 3.186 5.627l.448.267v-1.629l-.379-.226c-1.154-.687-1.498-1.324-1.498-2.796v-10.478l-1.757-1.047z" fill="#db7926"/><path d="m292.931 364.067c0 2.983.637 4.108 3.186 5.628l.448.267v-1.629l-.379-.226c-1.154-.688-1.498-1.325-1.498-2.796v-10.479l-1.757-1.047z" fill="#db7926"/><path d="m299.851 360.088v-2.276l-1.757-1.047v2.276zm-1.757 10.785 1.757 1.047v-9.968l-1.757-1.047z" fill="#db7926"/><path d="m302.36 369.197c0 3.061 1.136 5.093 3.702 6.622 2.549 1.519 3.685.843 3.685-2.218v-1.531c0-3.061-1.136-5.092-3.685-6.611-2.566-1.53-3.702-.854-3.702 2.208zm5.631 3.219c0 2.041-.586 2.595-1.946 1.784-1.326-.791-1.929-2.053-1.929-4.093v-1.256c0-2.041.603-2.584 1.929-1.794 1.36.811 1.946 2.063 1.946 4.104z" fill="#db7926"/><path d="m313.994 380.351v-5.101c0-2.434.499-3.058 1.825-2.268 1.24.739 1.723 1.871 1.723 3.99v5.494l1.756 1.047v-5.71c0-1.118-.086-2.014-.258-2.685-.414-1.522-1.395-2.755-2.928-3.668-1.085-.647-1.877-.727-2.393-.23l-.138-1.083-1.343-.801v9.968z" fill="#db7926"/><g stroke="#353c50"><path d="m221.163 322.718c.62 1.645 1.825 3.07 3.599 4.284v2.787l1.774 1.057v-2.826c2.187.97 3.272.342 3.272-1.876 0-1.314-.397-2.492-1.189-3.573-.62-.821-.947-1.153-2.583-2.58-1.997-1.74-2.669-2.729-2.669-3.965 0-1.177.792-1.411 2.101-.631 1.085.646 1.911 1.551 2.445 2.694l1.378-.18c-.499-1.318-1.429-2.481-2.755-3.467v-2.178l-1.774-1.058v2.139c-.706-.323-1.24-.484-1.636-.484-.982.023-1.533.852-1.533 2.265 0 2.119 1.051 3.903 3.548 6.078.895.769 1.429 1.245 1.618 1.416.19.172.379.403.603.713.448.6.672 1.244.672 1.931 0 1.314-.896 1.487-2.497.532-1.429-.852-2.428-1.957-2.962-3.276z" stroke-width=".5"/><path d="m232.581 324.403c-1.016.042-1.412.787-1.412 2.572 0 2.904 1.153 4.887 3.719 6.417 2.566 1.529 3.72.922 3.72-1.982 0-1.786-.396-3.003-1.412-4.256.775-.303 1.068-.914 1.068-2.307 0-2.61-1.085-4.492-3.376-5.858-2.29-1.365-3.375-.776-3.375 1.834 0 1.413.258 2.313 1.068 3.58zm2.325-3.795c1.119.668 1.618 1.652 1.618 3.202 0 1.59-.482 1.969-1.636 1.282-1.153-.688-1.636-1.643-1.636-3.232s.483-1.95 1.654-1.252zm.017 6.113c1.291.77 1.86 1.874 1.86 3.601 0 1.746-.569 2.153-1.895 1.363-1.326-.791-1.894-1.836-1.894-3.621 0-1.747.568-2.154 1.929-1.343z" stroke-width=".5"/><path d="m240.572 331.541c0 1.687.206 3.027.637 4.01.62 1.448 1.584 2.553 2.91 3.343 1.395.832 2.256.933 2.893.352.534-.467.792-1.608.792-3.394v-3.924c0-1.668-.206-2.988-.637-4.01-.637-1.459-1.653-2.595-3.048-3.426-1.222-.729-2.135-.822-2.755-.269-.534.447-.792 1.588-.792 3.393zm5.424 3.037c0 2.728-.499 3.431-1.825 2.64-1.292-.77-1.791-2.107-1.791-4.796v-3.532c0-2.688.499-3.43 1.791-2.66 1.326.79 1.825 2.089 1.825 4.816z" stroke-width=".5"/><path d="m249.872 337.084c0 1.688.206 3.028.637 4.01.62 1.449 1.584 2.554 2.91 3.344 1.395.832 2.256.933 2.893.351.534-.466.792-1.608.792-3.393v-3.925c0-1.667-.206-2.988-.637-4.009-.637-1.46-1.653-2.595-3.048-3.426-1.223-.729-2.135-.822-2.755-.269-.534.447-.792 1.588-.792 3.393zm5.424 3.038c0 2.727-.499 3.43-1.825 2.64-1.292-.77-1.791-2.108-1.791-4.796v-3.532c0-2.688.499-3.43 1.791-2.661 1.326.791 1.825 2.089 1.825 4.817z" stroke-width=".5"/><path d="m262.013 343.105v3.748l1.532.914v-3.748l3.221 1.92v-1.609l-3.221-1.92v-3.768l-1.532-.913v3.767l-3.22-1.919v1.609z" stroke-width=".5"/><path d="m277.395 358.534c1.154.688 1.997.936 2.531.764.741-.207 1.102-1.031 1.102-2.444 0-.961-.155-1.839-.482-2.642-.155-.426-.465-.944-.895-1.534l-.172-.221c.878-.124 1.326-.858 1.326-2.212 0-1.236-.328-2.373-.965-3.42-.568-.907-1.464-1.716-2.669-2.434l-4.632-2.762v14.01zm-3.031-14.129 2.669 1.591c1.292.77 1.946 1.866 1.946 3.299 0 .785-.189 1.241-.551 1.378-.31.11-.775-.01-1.395-.38l-2.669-1.591zm0 5.985 2.91 1.734c1.292.77 1.929 1.935 1.929 3.485s-.637 1.936-1.929 1.166l-2.91-1.735z" stroke-width=".5"/><path d="m285.018 351.246v-2.276l-1.756-1.047v2.276zm-1.756 10.786 1.756 1.047v-9.968l-1.756-1.048z" stroke-width=".5"/><path d="m287.785 361c0 2.982.637 4.108 3.186 5.627l.448.267v-1.629l-.379-.226c-1.154-.687-1.498-1.324-1.498-2.796v-10.478l-1.757-1.047z" stroke-width=".5"/><path d="m292.931 364.067c0 2.983.637 4.108 3.186 5.628l.448.267v-1.629l-.379-.226c-1.154-.688-1.498-1.325-1.498-2.796v-10.479l-1.757-1.047z" stroke-width=".5"/><path d="m299.851 360.088v-2.276l-1.757-1.047v2.276zm-1.757 10.785 1.757 1.047v-9.968l-1.757-1.047z" stroke-width=".5"/><path d="m302.36 369.197c0 3.061 1.136 5.093 3.702 6.622 2.549 1.519 3.685.843 3.685-2.218v-1.531c0-3.061-1.136-5.092-3.685-6.611-2.566-1.53-3.702-.854-3.702 2.208zm5.631 3.219c0 2.041-.586 2.595-1.946 1.784-1.326-.791-1.929-2.053-1.929-4.093v-1.256c0-2.041.603-2.584 1.929-1.794 1.36.811 1.946 2.063 1.946 4.104z" stroke-width=".5"/><path d="m313.994 380.351v-5.101c0-2.434.499-3.058 1.825-2.268 1.24.739 1.723 1.871 1.723 3.99v5.494l1.756 1.047v-5.71c0-1.118-.086-2.014-.258-2.685-.414-1.522-1.395-2.755-2.928-3.668-1.085-.647-1.877-.727-2.393-.23l-.138-1.083-1.343-.801v9.968z" stroke-width=".5"/></g><path d="m220 322.688c.62 1.644 1.825 3.069 3.599 4.284v2.786l1.774 1.057v-2.825c2.187.97 3.272.341 3.272-1.876 0-1.315-.396-2.493-1.188-3.573-.62-.821-.948-1.153-2.584-2.58-1.997-1.74-2.669-2.729-2.669-3.965 0-1.178.792-1.412 2.101-.632 1.085.647 1.912 1.552 2.445 2.694l1.378-.179c-.499-1.318-1.429-2.481-2.755-3.468v-2.178l-1.774-1.057v2.139c-.706-.323-1.24-.484-1.636-.485-.981.023-1.532.852-1.532 2.265 0 2.119 1.05 3.903 3.547 6.079.895.769 1.429 1.244 1.619 1.416.189.172.379.402.602.712.448.601.672 1.244.672 1.931 0 1.315-.895 1.488-2.497.533-1.429-.852-2.428-1.958-2.962-3.277z" fill="#ffeb96"/><path d="m231.418 324.372c-1.016.042-1.412.787-1.412 2.573 0 2.904 1.154 4.887 3.72 6.416 2.565 1.53 3.719.923 3.719-1.981 0-1.786-.396-3.003-1.412-4.256.775-.304 1.068-.914 1.068-2.307 0-2.61-1.085-4.493-3.375-5.858-2.291-1.366-3.376-.776-3.376 1.834 0 1.412.259 2.312 1.068 3.579zm2.325-3.794c1.119.667 1.618 1.652 1.618 3.202 0 1.589-.482 1.969-1.635 1.281-1.154-.688-1.636-1.642-1.636-3.232 0-1.589.482-1.949 1.653-1.251zm.017 6.113c1.292.77 1.86 1.874 1.86 3.6 0 1.747-.568 2.154-1.894 1.363-1.326-.79-1.895-1.835-1.895-3.621 0-1.746.569-2.153 1.929-1.342z" fill="#ffeb96"/><path d="m239.409 331.51c0 1.688.207 3.028.637 4.01.62 1.449 1.584 2.554 2.91 3.344 1.395.832 2.256.933 2.894.351.533-.467.792-1.608.792-3.393v-3.925c0-1.668-.207-2.988-.638-4.01-.637-1.459-1.653-2.594-3.048-3.426-1.222-.728-2.135-.821-2.755-.269-.534.448-.792 1.589-.792 3.394zm5.424 3.038c0 2.727-.499 3.43-1.825 2.64-1.291-.77-1.791-2.108-1.791-4.796v-3.532c0-2.688.5-3.431 1.791-2.661 1.326.791 1.825 2.089 1.825 4.817z" fill="#ffeb96"/><path d="m248.709 337.054c0 1.687.206 3.027.637 4.01.62 1.449 1.584 2.553 2.91 3.344 1.395.831 2.256.932 2.893.351.534-.467.792-1.608.792-3.394v-3.924c0-1.668-.206-2.988-.637-4.01-.637-1.459-1.653-2.594-3.048-3.426-1.222-.729-2.135-.821-2.755-.269-.534.447-.792 1.588-.792 3.394zm5.424 3.037c0 2.728-.499 3.431-1.825 2.64-1.292-.769-1.791-2.107-1.791-4.795v-3.532c0-2.689.499-3.431 1.791-2.661 1.326.79 1.825 2.089 1.825 4.816z" fill="#ffeb96"/><path d="m260.85 343.075v3.748l1.533.913v-3.747l3.22 1.919v-1.609l-3.22-1.92v-3.767l-1.533-.914v3.768l-3.22-1.92v1.609z" fill="#ffeb96"/><path d="m276.232 358.504c1.154.687 1.998.935 2.532.763.74-.206 1.102-1.03 1.102-2.443 0-.962-.155-1.839-.483-2.642-.155-.426-.465-.945-.895-1.535l-.172-.22c.878-.124 1.326-.858 1.326-2.212 0-1.236-.327-2.373-.965-3.42-.568-.908-1.463-1.716-2.669-2.435l-4.632-2.761v14.01zm-3.031-14.13 2.669 1.591c1.292.77 1.946 1.867 1.946 3.299 0 .785-.189 1.241-.551 1.379-.31.109-.775-.011-1.395-.38l-2.669-1.591zm0 5.985 2.911 1.735c1.291.77 1.928 1.935 1.928 3.485s-.637 1.935-1.928 1.165l-2.911-1.734z" fill="#ffeb96"/><path d="m283.856 351.216v-2.276l-1.757-1.047v2.276zm-1.757 10.785 1.757 1.047v-9.968l-1.757-1.047z" fill="#ffeb96"/><path d="m286.622 360.969c0 2.983.638 4.108 3.186 5.628l.448.266v-1.628l-.379-.226c-1.154-.688-1.498-1.325-1.498-2.796v-10.479l-1.757-1.047z" fill="#ffeb96"/><path d="m291.768 364.037c0 2.982.638 4.108 3.186 5.627l.448.267v-1.629l-.379-.225c-1.154-.688-1.498-1.325-1.498-2.797v-10.478l-1.757-1.047z" fill="#ffeb96"/><path d="m298.688 360.058v-2.276l-1.756-1.047v2.276zm-1.756 10.785 1.756 1.047v-9.968l-1.756-1.047z" fill="#ffeb96"/><path d="m301.197 369.167c0 3.061 1.136 5.092 3.702 6.622 2.549 1.519 3.685.843 3.685-2.219v-1.53c0-3.061-1.136-5.093-3.685-6.612-2.566-1.529-3.702-.853-3.702 2.208zm5.631 3.219c0 2.041-.586 2.594-1.946 1.783-1.326-.79-1.929-2.052-1.929-4.093v-1.255c0-2.041.603-2.585 1.929-1.794 1.36.811 1.946 2.063 1.946 4.103z" fill="#ffeb96"/><path d="m312.831 380.321v-5.102c0-2.433.5-3.058 1.826-2.267 1.24.739 1.722 1.87 1.722 3.989v5.494l1.756 1.048v-5.71c0-1.119-.086-2.014-.258-2.686-.413-1.522-1.395-2.754-2.928-3.668-1.084-.647-1.877-.726-2.393-.23l-.138-1.083-1.343-.8v9.968z" fill="#ffeb96"/><path d="m220 322.688c.62 1.644 1.825 3.069 3.599 4.284v2.786l1.774 1.057v-2.825c2.187.97 3.272.341 3.272-1.876 0-1.315-.396-2.493-1.188-3.573-.62-.821-.948-1.153-2.584-2.58-1.997-1.74-2.669-2.729-2.669-3.965 0-1.178.792-1.412 2.101-.632 1.085.647 1.912 1.552 2.445 2.694l1.378-.179c-.499-1.318-1.429-2.481-2.755-3.468v-2.178l-1.774-1.057v2.139c-.706-.323-1.24-.484-1.636-.485-.981.023-1.532.852-1.532 2.265 0 2.119 1.05 3.903 3.547 6.079.895.769 1.429 1.244 1.619 1.416.189.172.379.402.602.712.448.601.672 1.244.672 1.931 0 1.315-.895 1.488-2.497.533-1.429-.852-2.428-1.958-2.962-3.277z" mask="url(#e)" stroke="#353c50"/><path d="m231.418 324.372c-1.016.042-1.412.787-1.412 2.573 0 2.904 1.154 4.887 3.72 6.416 2.565 1.53 3.719.923 3.719-1.981 0-1.786-.396-3.003-1.412-4.256.775-.304 1.068-.914 1.068-2.307 0-2.61-1.085-4.493-3.375-5.858-2.291-1.366-3.376-.776-3.376 1.834 0 1.412.259 2.312 1.068 3.579zm2.325-3.794c1.119.667 1.618 1.652 1.618 3.202 0 1.589-.482 1.969-1.635 1.281-1.154-.688-1.636-1.642-1.636-3.232 0-1.589.482-1.949 1.653-1.251zm.017 6.113c1.292.77 1.86 1.874 1.86 3.6 0 1.747-.568 2.154-1.894 1.363-1.326-.79-1.895-1.835-1.895-3.621 0-1.746.569-2.153 1.929-1.342z" mask="url(#e)" stroke="#353c50"/><path d="m239.409 331.51c0 1.688.207 3.028.637 4.01.62 1.449 1.584 2.554 2.91 3.344 1.395.832 2.256.933 2.894.351.533-.467.792-1.608.792-3.393v-3.925c0-1.668-.207-2.988-.638-4.01-.637-1.459-1.653-2.594-3.048-3.426-1.222-.728-2.135-.821-2.755-.269-.534.448-.792 1.589-.792 3.394zm5.424 3.038c0 2.727-.499 3.43-1.825 2.64-1.291-.77-1.791-2.108-1.791-4.796v-3.532c0-2.688.5-3.431 1.791-2.661 1.326.791 1.825 2.089 1.825 4.817z" mask="url(#e)" stroke="#353c50"/><path d="m248.709 337.054c0 1.687.206 3.027.637 4.01.62 1.449 1.584 2.553 2.91 3.344 1.395.831 2.256.932 2.893.351.534-.467.792-1.608.792-3.394v-3.924c0-1.668-.206-2.988-.637-4.01-.637-1.459-1.653-2.594-3.048-3.426-1.222-.729-2.135-.821-2.755-.269-.534.447-.792 1.588-.792 3.394zm5.424 3.037c0 2.728-.499 3.431-1.825 2.64-1.292-.769-1.791-2.107-1.791-4.795v-3.532c0-2.689.499-3.431 1.791-2.661 1.326.79 1.825 2.089 1.825 4.816z" mask="url(#e)" stroke="#353c50"/><path d="m260.85 343.075v3.748l1.533.913v-3.747l3.22 1.919v-1.609l-3.22-1.92v-3.767l-1.533-.914v3.768l-3.22-1.92v1.609z" mask="url(#e)" stroke="#353c50"/><path d="m276.232 358.504c1.154.687 1.998.935 2.532.763.74-.206 1.102-1.03 1.102-2.443 0-.962-.155-1.839-.483-2.642-.155-.426-.465-.945-.895-1.535l-.172-.22c.878-.124 1.326-.858 1.326-2.212 0-1.236-.327-2.373-.965-3.42-.568-.908-1.463-1.716-2.669-2.435l-4.632-2.761v14.01zm-3.031-14.13 2.669 1.591c1.292.77 1.946 1.867 1.946 3.299 0 .785-.189 1.241-.551 1.379-.31.109-.775-.011-1.395-.38l-2.669-1.591zm0 5.985 2.911 1.735c1.291.77 1.928 1.935 1.928 3.485s-.637 1.935-1.928 1.165l-2.911-1.734z" mask="url(#e)" stroke="#353c50"/><path d="m283.856 351.216v-2.276l-1.757-1.047v2.276zm-1.757 10.785 1.757 1.047v-9.968l-1.757-1.047z" mask="url(#e)" stroke="#353c50"/><path d="m286.622 360.969c0 2.983.638 4.108 3.186 5.628l.448.266v-1.628l-.379-.226c-1.154-.688-1.498-1.325-1.498-2.796v-10.479l-1.757-1.047z" mask="url(#e)" stroke="#353c50"/><path d="m291.768 364.037c0 2.982.638 4.108 3.186 5.627l.448.267v-1.629l-.379-.225c-1.154-.688-1.498-1.325-1.498-2.797v-10.478l-1.757-1.047z" mask="url(#e)" stroke="#353c50"/><path d="m298.688 360.058v-2.276l-1.756-1.047v2.276zm-1.756 10.785 1.756 1.047v-9.968l-1.756-1.047z" mask="url(#e)" stroke="#353c50"/><path d="m301.197 369.167c0 3.061 1.136 5.092 3.702 6.622 2.549 1.519 3.685.843 3.685-2.219v-1.53c0-3.061-1.136-5.093-3.685-6.612-2.566-1.529-3.702-.853-3.702 2.208zm5.631 3.219c0 2.041-.586 2.594-1.946 1.783-1.326-.79-1.929-2.052-1.929-4.093v-1.255c0-2.041.603-2.585 1.929-1.794 1.36.811 1.946 2.063 1.946 4.103z" mask="url(#e)" stroke="#353c50"/><path d="m312.831 380.321v-5.102c0-2.433.5-3.058 1.826-2.267 1.24.739 1.722 1.87 1.722 3.989v5.494l1.756 1.048v-5.71c0-1.119-.086-2.014-.258-2.686-.413-1.522-1.395-2.754-2.928-3.668-1.084-.647-1.877-.726-2.393-.23l-.138-1.083-1.343-.8v9.968z" mask="url(#e)" stroke="#353c50"/></svg>