<svg height="132" viewBox="0 0 144 132" width="144" xmlns="http://www.w3.org/2000/svg" xmlns:xlink="http://www.w3.org/1999/xlink"><linearGradient id="a" x1="100%" x2="0%" y1="0%" y2="100%"><stop offset="0" stop-color="#ffe6ab"/><stop offset="1" stop-color="#ffc873"/></linearGradient><mask id="b" fill="#fff"><ellipse cx="72" cy="8" fill="#fff" fill-rule="evenodd" rx="72" ry="8"/></mask><mask id="c" fill="#fff"><ellipse cx="14.60589" cy="15" fill="#fff" fill-rule="evenodd" rx="14.60589" ry="15"/></mask><mask id="d" fill="#fff"><ellipse cx="22.726257" cy="22.900016" fill="#fff" fill-rule="evenodd" rx="22.726257" ry="22.900016"/></mask><g fill="none" fill-rule="evenodd" opacity=".5"><path d="m108.5 88.5h7v2h-7z" fill="#724835" stroke="#353c50"/><ellipse cx="72" cy="8" rx="71.5" ry="7.5" stroke="#353c50"/><ellipse cx="72" cy="3.8" fill="#724835" mask="url(#b)" rx="71.5" ry="7.7" stroke="#353c50"/><path d="m4.50049635 115.500865 136.99950365.23664v8.466387c-.399014.661139-.688446.874574-1.063616 1.088637-.859244.490263-2.139557.959302-3.793194 1.410373-3.479699.949174-8.579404 1.801674-14.908958 2.516832-12.472178 1.409195-29.7023542 2.280266-48.734232 2.280266l-1.063707-.000908c-18.4042872-.031444-35.0596297-.877489-47.2637214-2.233773-6.3205247-.702422-11.443052-1.540607-14.98881508-2.47478-1.69237606-.445876-3.01896191-.91052-3.93394612-1.395668-.68229261-.361768-1.16278321-.703468-1.240607-1.103324z" fill="#ffc873" stroke="#353c50"/><ellipse cx="73" cy="115" fill="#fffaa5" rx="68.5" ry="7.5" stroke="#353c50"/><ellipse cx="72.5" cy="113.5" fill="#ffe9a5" rx="45.5" ry="5.5"/><path d="m55.9080813 2c-.3914153 1.1106708-.809336 1.87884677-1.2537622 2.3045279s-1.3291992.90525376-2.6543191 1.43871789c1.2470654.29054757 2.1071434.62784714 2.5802339 1.01189872.4730904.38405159.9502802 1.13233675 1.4315693 2.24485549.364315-1.12951235.7760255-1.89623618 1.2351316-2.30017147s1.3767945-.80685654 2.7530652-1.20876375c-1.2755721-.370658-2.1524578-.75997741-2.6306569-1.16795822-.4781992-.40798081-.9652865-1.18234966-1.4612618-2.32310656z" fill="#fff"/><path d="m103.908081 2c-.391415 1.1106708-.809336 1.87884677-1.253762 2.3045279s-1.329199.90525376-2.654319 1.43871789c1.247065.29054757 2.107143.62784714 2.580234 1.01189872.47309.38405159.95028 1.13233675 1.431569 2.24485549.364315-1.12951235.776026-1.89623618 1.235132-2.30017147s1.376794-.80685654 2.753065-1.20876375c-1.275572-.370658-2.152458-.75997741-2.630657-1.16795822s-.965286-1.18234966-1.461262-2.32310656z" fill="#fff"/><path d="m27 6h2v2h-2z" fill="#fff"/><path d="m81 7h2v2h-2z" fill="#fff"/><path d="m82.4364008 71.4564822 8.0652423 7.5435178h7.4983569v-2.8539473h-6.5515621l-10.4484379-10.1460527c.6452478.5743385 1.0518265 1.3259741 1.2197358 2.2549068.1679094.9289327.2401311 1.9961245.216665 3.2015754z" fill="#f0ffff" stroke="#353c50"/><path d="m65.6120594 63-14.6120594 13.7594391v4.2003438l10.2503375-10.2712268v20.2363492c.0746547 1.6786837.9605629 2.6750357 2.6577247 2.989056v17.0860387h3.1232489v-17.0860387h8.7056919v17.0860387h2.9006939v-17.0860387c2.2370909.1468739 3.3578586-.8494781 3.3623031-2.989056v-21.8284083c-.5891166-3.0070463-1.8820433-4.6367903-3.8787801-4.8892321v-1.2072649z" fill="#f0ffff" stroke="#353c50"/><text fill="#353c50" font-family="Roboto" font-size="22" font-weight="800"><tspan x="66" y="89">1</tspan></text><path d="m49 70h2v11c0 .5522847-.4477153 1-1 1s-1-.4477153-1-1z" fill="#f0ffff" stroke="#353c50"/><path d="m67.5 111.5v1.957554c-1.9396306-.069631-3.5427112-.062348-4.8092657.020851.6082259-.613854 1.3180964-1.230693 1.9354639-1.978405z" fill="#ffc873" stroke="#353c50"/><path d="m81.5 111.5v1.957554c-1.9396306-.069631-3.5427112-.062348-4.8092657.020851.6082259-.613854 1.3180964-1.230693 1.9354639-1.978405z" fill="#ffc873" stroke="#353c50" transform="matrix(-1 0 0 1 157 0)"/><path d="m64 65h14c-1.8360941 3.5420019-4.3714824 5.2021372-7.6061648 4.9804058-3.2346823-.2217313-5.3659608-1.8818666-6.3938352-4.9804058z" fill="#fff"/><g stroke="#353c50"><path d="m49.1506525 70c-.7313732-.6920807-1.0970599-1.8181079-1.0970599-3.3780816 0-2.3399604-.3069946-3.5751549.54853-3.6063306.5703497-.0207837 1.3763971-.0207837 2.4181422 0 .8487361.129532 1.2070743.5721527 1.0750145 1.3278623-.1320597.7557096-.1320597 1.5151991 0 2.2784683 1.5657891-1.060596 2.1662022-1.1012354 1.8012393-.1219184-.3649628.979317-1.1744285 2.1459837-2.4283969 3.5z" fill="#ffc873"/><path d="m50 68c1.1860394-.441066 1.8527061-.7743993 2-1"/><path d="m91.9989115 76c.0227207 1.079838-.3102498 1.7465047-.9989115 2"/><rect fill="#ffc873" height="5" rx="1" width="5" x="97.5" y="74.5"/><path d="m98.5 75.5c.2761424 0 .5261424.1119288.7071068.2928932s.2928932.4309644.2928932.7071068v1h-1c-.2761424 0-.5261424-.1119288-.7071068-.2928932s-.2928932-.4309644-.2928932-.7071068.1119288-.5261424.2928932-.7071068.4309644-.2928932.7071068-.2928932z" fill="#ffb964" transform="matrix(-1 0 0 1 197 0)"/><path d="m34.5 87.5v25h-7.7321138c.4724499-.434327 1.1852661-.883439 2.1829785-1.408002v-23.591998z" fill="#ffc873"/><path d="m20.9105644 96.5c-.106356 4.737382 2.3949766 9.199959 7.5894356 13.358248v1.096563c-3.1274456-2.552724-5.2111937-4.644777-6.237528-6.286912-1.0546279-1.687405-1.934829-4.412959-2.6595902-8.167899z" fill="#ffc873"/><circle cx="20" cy="95" fill="url(#a)" r="2.5"/><path d="m27.5 89.5h8v1h-8z" fill="#724835"/></g><g transform="translate(17.200081 59)"><ellipse cx="14.60589" cy="15" rx="15.10589" ry="15.5" stroke="#353c50"/><ellipse cx="14.60589" cy="17.727273" fill="#fff" mask="url(#c)" rx="14.60589" ry="15"/><g stroke="#353c50"><ellipse cx="9.442191" cy="11.212121" fill="#000" mask="url(#c)" rx="1" ry="1"/><ellipse cx="19.474519" cy="11.212121" fill="#000" mask="url(#c)" rx="1" ry="1"/><rect fill="#ed6666" height="3.242424" mask="url(#c)" rx="1.621212" width="13.753424" x="7.581643" y="14.136364"/><path d="m9.442191 15.909091h10.032328" mask="url(#c)" stroke-linecap="square"/></g></g><path d="m98.5 112.514046 3.162766.087631c.654707.329461 1.180964.620581 1.500087.898323h-4.662853z" fill="#ffc873" stroke="#353c50"/><path d="m114.920129 93.8751472v17.1145548c1.007596.596941 1.762152 1.090625 2.192181 1.510298h-6.60386l.271241-16.1841436z" fill="#ffc873" stroke="#353c50"/><path d="m27 90c.0401822 6.4286035 1.5288803 10.393213 4.4660942 11.89383v9.612309c-1.7078034 1.011664-2.6344386 1.842951-2.7799055 2.493861h7.2911131v-12.614548c1.3020193 3.63046 3.178126 5.997168 5.6283203 7.100123.8751952 1.54254 2.0603039 2.549394 3.5553262 3.020564-1.8846247.907952-2.845607 1.636675-2.8829468 2.186169h9.9545934c2.484183-1.149395 3.2959062-3.13866 2.4351694-5.967795l-18.6904625-17.724513z" fill="#f0ffff" stroke="#353c50"/><text fill="#353c50" font-family="Roboto" font-size="12" font-weight="800"><tspan x="30" y="101">2</tspan></text><path d="m46.8688638 101c-2.1776084.147839-3.6979848 1.234407-4.5611292 3.259703-1.2947166 3.037945 1.7672032 6.810218 4.1387998 6.739312 1.5810644-.04727 3.0988863-.04727 4.5534656 0" stroke="#353c50"/><path d="m104.480624 105.905023c.079419.903414-.090531 1.705603-.525552 2.403314-.564736.905753-1.557308 1.627098-2.951838 2.191663h-2.5271163z" fill="#ffc873" stroke="#353c50"/><path d="m87.2954432 109.095316v.550272c-.1968067.054987-.3669458.161176-.5129241.311908-.219318.226461-.390205.585341-.4672443 1.103635.8643897 1.360108 1.4380187 1.408235 2.1567242 1.2427l1.36612 1.01918c-.8724685.168481-1.6304762.218364-2.274221.143656-.782658-.09083-1.384919-.368439-1.7865706-.865984-.1679073-.207994-.2622679-.435129-.2756078-.684173-.0148648-.277512.0651075-.57528.2223301-.896284.2855599-.583033.8126585-1.222376 1.5713935-1.92491z" fill="#ffc873" stroke="#353c50"/><path d="m107.434442 90-19.1076749 17.949118c-.9043628 3.412704.0684648 5.429665 2.9184829 6.050882h9.663114c.031213-1.282944-1.0564666-2.011667-3.2630388-2.186169 5.3707418-3.117602 8.6337808-6.603168 9.7891168-10.456697v12.642866h7.059717c.006011-.774321-.395123-1.278857-1.203403-1.513609-.808279-.234752-1.332804-.458939-1.573575-.67256v-9.967677c2.800754-1.375346 4.228361-5.3240638 4.282819-11.846154z" fill="#f0ffff" stroke="#353c50"/><text fill="#353c50" font-family="Roboto" font-size="12" font-weight="800"><tspan x="107" y="101">3</tspan></text><path d="m96.3289124 101c3.0613321.730647 4.6174896 2.135787 4.6684736 4.215421.076475 3.11945-1.5306884 4.612088-4.0744284 5.784579h-4.9229576" stroke="#353c50"/><path d="m111.5 101v-3" stroke="#353c50"/><path d="m123.526151 97.5711845.874864.1215676c-1.321496 6.0427939-4.277442 10.2264199-8.901015 12.5215469v-.604789c5.082982-3.129354 7.741358-7.150818 8.026151-12.0383255z" fill="#ffc873" stroke="#353c50"/><circle cx="124" cy="95" fill="url(#a)" r="2.5" stroke="#353c50"/><g transform="matrix(.99939083 -.0348995 .0348995 .99939083 49.091734 18.94283)"><ellipse cx="22.726257" cy="22.900016" rx="23.226257" ry="23.400016" stroke="#353c50"/><ellipse cx="23.128492" cy="25.737186" fill="#ffc873" mask="url(#d)" rx="22.726257" ry="22.900016"/><path d="m45.7281337 23.3054725c.0836978.7990355.1266149 1.6103241.1266149 2.4317132 0 12.6473294-10.1748918 22.9000156-22.726257 22.9000156-12.5513651 0-22.72625696-10.2526862-22.72625696-22.9000156 0-.8213891.04291706-1.6326777.1266149-2.4317132 1.20532185 11.5040746 10.86360546 20.4680086 22.59964206 20.4680086 11.6727696 0 21.2901274-8.8675483 22.579361-20.281973z" fill="#ffb964" mask="url(#d)"/><ellipse cx="25.340782" cy="4.45841" fill="#fff" mask="url(#d)" rx="9.252766" ry="4.05249" transform="matrix(.99026807 .1391731 -.1391731 .99026807 .867105 -3.483366)"/><g stroke="#353c50"><ellipse cx="16.692737" cy="21.684086" fill="#000" mask="url(#d)" rx="1.310056" ry="1.323895"/><ellipse cx="29.96648" cy="22.900016" fill="#000" mask="url(#d)" rx="1.310056" ry="1.323895"/><path d="m12.5386715 23.9339777.1365223.0116305 5.3630047 3.011738c3.2670635 1.8945153 7.2449328 2.1057435 10.6942587.5678741l2.7754018-1.2374028c.4195855-.1870706.8752742-.1863607 1.2728342-.0339868.3836803.1470543.7132199.4353676.9039.8325709.1723444.8134582.0953848 1.5337112-.1831122 2.1061819-.2868294.5895987-.7872844 1.0134235-1.4148508 1.2118911l-4.5557058 1.4407402c-3.7894387 1.1984085-7.9147103.6619263-11.2715869-1.4658443l-3.3988216-2.1543576c-.5535246-.3508539-.9783621-.847774-1.2415323-1.4191557s-.3646732-1.2172251-.2715289-1.8659255c.0460351-.3206099.2176649-.5922083.4579384-.7721455.2402736-.1799372.5491908-.2682131.8698007-.222178z" fill="#ed6666"/><path d="m13.1307332 25.7371857c5.808812 5.1149648 11.8765707 5.985737 18.2032759 2.6123165"/></g><ellipse cx="8.446927" cy="24.723911" fill="#fff" rx="2.011173" ry="2.02655"/><ellipse cx="37.005587" cy="28.371701" fill="#fff" rx="2.011173" ry="2.02655"/></g><g transform="translate(102 58)"><path d="m12.5490821 3.62457245c-.2271548 1.92671561-.3028702 3.38438412-.2317688 4.37303434.0997895 1.38755364.5305799 2.57424581 1.2805017 3.56397081l2.8426206-3.4163681c2.725049 4.3285681 3.984236 8.5426989 3.75462 12.6476308-.0123658 2.6999119-1.118415 5.1200065-2.8986394 6.8713848-1.7811378 1.7522768-4.2370359 2.8353385-6.9485901 2.8353385-2.72004581 0-5.18283031-1.0898666-6.96544249-2.8526994-1.78058176-1.760825-2.88238361-4.1932463-2.88238361-6.8803103 0-1.0039155.15367179-1.9723349.43919415-2.88345 1.13477075-4.4604377 5.02335328-9.19413314 11.60988795-14.25853145z" fill="#ffeb96" stroke="#353c50"/><path d="m17.3566964.98368067c.0044431 1.00505967-.0791437 1.72444931-.2748467 2.15082927-.2527362.55063881-.7798358 1.18964713-1.5675881 1.92539209.0017852-.91476099.1566914-1.71782311.4732261-2.40746026.3057023-.66603666.7632482-1.22135476 1.3692087-1.6687611z" fill="#ffeb96" stroke="#353c50"/><path d="m10.5159355 29.6295191c4.0310728 0 6.8612668-3.0154248 7.298903-7.4536085.4376361-4.4381837-2.7649264-9.9133869-6.1991397-10.1924848-3.43421332-.279098-8.97589851 4.8643577-8.76951516 10.2035968.20638334 5.3392391 3.63867901 7.4424965 7.66975186 7.4424965z" fill="#ffb964"/><g stroke="#353c50"><path d="m6.00416365 19.7633176-.72880133 1.1978007 4.61211837 3.2164388 5.53280921-1.4397527-.2313986-1.2253563-5.30141061 1.2253563z" fill="#353c50"/><ellipse cx="6.898551" cy="23.374968" fill="#fff" rx="1.373188" ry="1.355178" stroke-width=".5"/><ellipse cx="12.985507" cy="24.177557" fill="#fff" rx="1.373188" ry="1.355178" stroke-width=".5"/><ellipse cx="6.898551" cy="23.374968" fill="#000" rx="1" ry="1"/><ellipse cx="12.985507" cy="24.177557" fill="#000" rx="1" ry="1"/><path d="m6.89855072 26.0420783 2.7619706-1.0619322 2.10759458 1.605178"/><path d="m8.369565 26.936893 1.775363.049726"/></g></g></g></svg>