<svg height="22" viewBox="0 0 22 22" width="22" xmlns="http://www.w3.org/2000/svg"><g fill="none" fill-rule="evenodd" transform="translate(-5 -5)"><path d="m0 0h32v32h-32z"/><path d="m16.7281578 26.6666667h-10.21738802c-.65047067 0-1.17743645-.5272925-1.17743645-1.1775098v-18.97839646c0-.65038266.52704845-1.17742711 1.17743645-1.17742711h18.97854352c.6502223 0 1.1773534.52704445 1.1773534 1.17742711v18.97839646c0 .6503-.5272138 1.1775098-1.1773534 1.1775098h-5.4362889v-8.2614423h2.7729849l.4152151-3.2196306h-3.1882v-2.0555311c0-.9321574.2588476-1.5673916 1.5955489-1.5673916l1.7048983-.0007453v-2.87966313c-.2948556-.03923689-1.3069009-.12689823-2.4843374-.12689823-2.4580969 0-4.1409764 1.50042486-4.1409764 4.25583956v2.3743898h-2.7801036v3.2196306h2.7801036z" fill="#fff" fill-rule="nonzero" opacity=".65"/></g></svg>