<svg height="57" viewBox="0 0 57 57" width="57" xmlns="http://www.w3.org/2000/svg"><g fill="none" fill-rule="evenodd"><circle cx="28.5" cy="28.5" fill="#00142a" r="28.5"/><path d="m24.3128765 19.4705098c-.0470632.0666572-.1035392.1285532-.1694277.1761655l-8.2831325 6.1991197c-.3435618.2571064-.8283133.1856879-1.0824549-.1618817-.0988328-.1333144-.1506024-.2999575-.1506024-.4666005v-3.9899096h-6.76769575c-4.82398343.0285674-7.4407003-2.3853756-7.85956325-7.2370676.41886295.4427942 2.24962349 3.06147 7.85956325 3.06147 3.73682225 0 5.99585845-.042851 6.76769575-.1285532v-3.8280278c0-.4332718.3482681-.7808415.7718374-.7808415.160015 0 .3153238.0523735.4471009.1428368l8.2784262 5.9182073c.3529744.2523451.4329819.7427517.188253 1.0950826zm-7.1677334-10.53183788c-3.7368223 0-5.9958585.04285106-6.7676958.12855317v3.82802791c0 .4332718-.3482681.7808415-.77183736.7808415-.16001506 0-.3153238-.0523735-.4471009-.1428369l-8.28313253-5.91344603c-.34826808-.24758389-.43298193-.73799045-.18354669-1.09032137.04706325-.0666572.10353916-.12855318.16942771-.17616546l8.2784262-6.19911977c.34356175-.25710635.82831326-.18568792 1.08245487.16188178.0988328.1333144.1506024.2999574.1506024.46660041v3.98990965h6.7676957c4.8239835-.02856737 7.4407003 2.38537558 7.8595633 7.23706759-.418863-.4523167-2.2496235-3.07099248-7.8548569-3.07099248z" fill="#fff" fill-rule="nonzero" transform="translate(16 16)"/></g></svg>