<svg height="32" viewBox="0 0 139 32" width="139" xmlns="http://www.w3.org/2000/svg"><g fill="#23af91" fill-rule="evenodd"><g fill-rule="nonzero"><path d="m109.293167 15.9853211c0-.8161468 0-1.5838532-.026504-2.292844-.018046-.6688548-.084479-1.3355399-.198782-1.9948624-.106909-.6020498-.295649-1.1867604-.561006-1.73798167-.280126-.56833184-.654482-1.08544429-1.107288-1.52954129-.642196-.65596137-1.406393-1.18096336-2.249915-1.54568807-.912518-.36849219-1.889795-.55116326-2.874238-.53724771-.98816-.01272961-1.969056.16986954-2.8860166.53724771-.8483534.35974351-1.6173645.88246543-2.2631674 1.53834862-.4519455.44383204-.8248857.96105262-1.1028708 1.52954129-.2631376.55134192-.4489367 1.13615192-.5521716 1.73798162-.1117134.6595173-.1756851 1.3261924-.1914195 1.9948624-.0176695.7089908-.0265042 1.4766973-.0220868 2.2928441.0044173.8161467 0 1.5779816.0220868 2.2913761.0157344.66867.0797061 1.3353451.1914195 1.9948624.1032349.6018297.289034 1.1866397.5521716 1.7379816.2790803.5678358.6518951 1.0848824 1.1028708 1.5295413.6447416.6564104 1.4140713 1.1783509 2.2631674 1.5354129.9163456.3697783 1.8975326.5534298 2.8860166.5401834.984771.0144633 1.962348-.1692623 2.874238-.5401834.843656-.3598755 1.608121-.8815703 2.249915-1.5354129.45181-.4449487.826037-.9618838 1.107288-1.5295413.265357-.5512212.454097-1.1359318.561006-1.7379816.113035-.6574582.178482-1.3221704.195837-1.9889908.022087-.7133945.032394-1.4766973.026504-2.2913762zm-3.710593 0c0 .9042202-.013252 1.6572477-.044174 2.2561468-.017378.4919433-.066562.9822574-.147245 1.4678899-.05519.3235495-.154262.6381139-.294492.9350459-.113823.239325-.262696.4604564-.441737.6561468-.276396.3154302-.619315.5660567-1.004216.7339449-.433125.1847627-.899754.2786985-1.370858.2760214-.47342.0020227-.942323-.0918665-1.378221-.2760214-.39429-.1647593-.746504-.41556-1.03072-.7339449-.1801637-.1948102-.329156-.41612-.4417373-.6561468-.1363116-.2972362-.2304702-.611936-.2797669-.9350459-.0786189-.4859033-.1277899-.9760886-.1472458-1.4678899-.0265042-.5988991-.0397563-1.350948-.0397563-2.2561468 0-.9042202.0132521-1.6587156.0397563-2.2576147.0195305-.4917961.0687011-.9819769.1472458-1.4678899.0492967-.3231099.1434553-.6378096.2797669-.9350459.1129256-.2398327.2618842-.4610925.4417373-.6561467.284617-.31794.636722-.5686634 1.03072-.733945.435248-.1862431.904591-.28022032 1.378221-.2759633.47131-.00487881.938378.08914518 1.370858.2759633.38461.1683913.727426.4189427 1.004216.733945.178718.1959432.327556.4170244.441737.6561467.14023.296932.239302.6114964.294492.9350459.08059.4856448.129774.9759529.147245 1.4678899.032394.5974312.044174 1.3519266.044174 2.2576147z"/><path d="m138.860117 6.83743119c-.001599-.17849884-.146359-.32280983-.325414-.32440367h-3.061239c-.179386.00080374-.324607.14557445-.325413.32440367v11.27339451l-7.46536-11.506789c-.050064-.07779817-.094238-.09100918-.204672-.09100918h-2.838898c-.178727.00237068-.323035.14623168-.325413.32440367v18.29284401c.002394.1779254.146925.3213559.325413.3229358h3.059767c.178572-.0008037.323134-.1449172.32394-.3229358v-11.3027523l7.466833 11.533211c.051536.0777982.092765.0910092.204672.0910092h2.837425c.178816-.0007957.323804-.14468.325414-.3229358z"/><path d="m118.339947 6.83743119c-.000806-.17882922-.146027-.32359993-.325413-.32440367h-3.058295c-.179385.00080374-.324606.14557445-.325413.32440367v18.29137611c.000807.1788293.146028.3236.325413.3244037h3.058295c.179386-.0008037.324607-.1455744.325413-.3244037z"/><path d="m81.7287606 15.9853211c0-.9100917.0103072-1.6675229.0368114-2.2708257.0180101-.4919006.06719-.9821746.1472458-1.4678899.2827119-1.6293578 1.5343008-2.59082568 3.1319174-2.59082568 1.0425.00880734 1.9878178.39339448 2.5915254 1.26825688.2734031.4084382.4727565.8615541.588983 1.3387156.0089639.050263.0550151.0853319.106017.0807339h3.6001589c.051536 0 .070678-.0352293.0618432-.0851376-.3931462-2.2209174-1.5814195-4.21577979-3.6811441-5.2036697-1.0319431-.47631392-2.1583062-.7146351-3.2953601-.69724771-2.0270834 0-3.7346434.69186545-5.1226801 2.07559633-.7924773.76994665-1.3333883 1.76041648-1.5519703 2.84183488-.2120339 1.0647095-.3190325 2.6343731-.3210223 4.7089908-.0019368 2.0746177.1050618 3.6437921.3210223 4.7075229.2167654 1.0828102.7561043 2.0752666 1.5475529 2.8477065 1.3870551 1.3827523 3.0946151 2.0741284 5.1226801 2.0741284 1.1368725.0171428 2.2630751-.2206428 3.2953602-.6957798 2.0997245-.9878899 3.2879979-2.9827523 3.681144-5.2036697.0088348-.0513762-.0103072-.0851376-.0618432-.0851376h-3.6016313c-.0512135-.0053384-.0977141.0300727-.106017.0807339-.1165044.4766113-.3158436.929198-.588983 1.3372477-.6037077.8807339-1.5490255 1.2609174-2.5915255 1.2682569-1.5976165 0-2.8492055-.96-3.1319173-2.5893578-.079982-.485725-.1291615-.9759944-.1472458-1.4678899-.0206144-.6062386-.0309216-1.3651376-.0309216-2.2722936z"/><path d="m43.7040148 6.83743119c-.0008062-.17882922-.1460274-.32359993-.3254131-.32440367h-3.0582945c-.1793857.00080374-.3246069.14557445-.3254131.32440367v18.29284401c.0016092.1782557.1465972.32214.3254131.3231046h3.0582945c.1788159-.0009646.3238039-.1448489.3254131-.3231046v-5.3695413l2.4545869-2.9255045 5.0416949 8.5211009c.0388117.0628305.108628.0998756.1825848.0970495h3.716483c.1708051 0 .2017267-.1058569.1163242-.251178l-6.6010276-11.1559633 6.0562182-7.24256878c.122214-.14678899.070678-.28623853-.1207415-.28623853h-4.0625106c-.0494284-.0028979-.0970084.0191637-.1266313.0587156l-6.656981 7.95889911z"/><path d="m65.9852436 22.3148624c-1.7213029 0-3.282108-1.5882569-3.282108-3.4847707v-11.99266051c-.0008062-.17882922-.1460274-.32359993-.3254131-.32440367h-3.0582945c-.1793857.00080374-.3246069.14557445-.3254132.32440367v11.94568811c0 4.1761468 3.1333899 6.8300917 6.9912288 6.8300917 3.857839 0 6.9912289-2.6539449 6.9912289-6.8300917v-11.94568811c-.0015988-.17849884-.1463589-.32280983-.3254132-.32440367h-3.0597669c-.1788104.0016042-.3231425.14614251-.3239407.32440367v11.99266051c0 1.8950459-1.5622775 3.4847707-3.2821081 3.4847707z"/></g><path d="m9.25292373 15.9817132 9.49440677 9.466422 5.9929026-5.9743119c1.0716109-.9619028 2.7110599-.9191111 3.7307104.0973763 1.0196506 1.0164875 1.0625754 2.6508508.0976794 3.7191375l-7.9085699 7.8855046c-1.0623049 1.0414956-2.766085 1.0414956-3.8283899 0l-11.41007412-11.3776147v6.7625688c0 1.4924862-1.21366403 2.7023853-2.71079449 2.7023853s-2.71079449-1.2098991-2.71079449-2.7023853v-21.1669725c0-1.4924862 1.21366403-2.70238532 2.71079449-2.70238532s2.71079449 1.20989912 2.71079449 2.70238532v6.7625688l11.40860172-11.37467889c1.0619809-1.04228428 2.7664089-1.04228428 3.8283898 0l7.9144598 7.8840367c.964896 1.06828668.9219711 2.70264999-.0976794 3.71913739-1.0196505 1.0164875-2.6590995 1.0592792-3.7307105.0973764l-5.9929025-5.97431196zm9.49882417-2.7053211c-1.097739-.0005938-2.0877186.65816-2.5082179 1.669022-.4204993 1.0108621-.1886869 2.1747096.5873212 2.9487304s1.9433513 1.0057458 2.957587.5870996c1.0142357-.4186461 1.675577-1.4051971 1.675577-2.4995309.0003903-.7174958-.2851462-1.4057595-.7937949-1.9133809-.5086488-.5076215-1.1987439-.7930189-1.9184724-.7934081z"/></g></svg>