<svg fill="none" height="31" viewBox="0 0 115 31" width="115" xmlns="http://www.w3.org/2000/svg"><path d="m101.053 1.16431h-84.4519c-7.42671 0-13.44726 6.02055-13.44726 13.44729 0 7.4267 6.02055 13.4473 13.44726 13.4473h84.4519c7.426 0 13.447-6.0206 13.447-13.4473 0-7.42674-6.021-13.44729-13.447-13.44729z" fill="#d9a75a" stroke="#353c50"/><path d="m98.3989 3.15674h-84.4516c-7.42674 0-13.4473 6.02055-13.4473 13.44726 0 7.4268 6.02056 13.4473 13.4473 13.4473h84.4516c7.4271 0 13.4471-6.0205 13.4471-13.4473 0-7.42671-6.02-13.44726-13.4471-13.44726z" fill="#ffc873" stroke="#353c50"/><path d="m7.116 17.4286c0 1.152.108 1.668.408 2.148.504.756 1.368 1.14 2.604 1.14 1.14 0 1.956-.336 2.472-.996.396-.492.528-1.044.528-2.292v-5.4h-1.284v5.4c0 .66-.072 1.14-.204 1.44-.264.54-.768.804-1.512.804-.696 0-1.188-.228-1.464-.696-.18-.312-.264-.828-.264-1.548v-5.4h-1.284zm9.2834 5.868v-3.06c.408.324.912.48 1.524.48 1.596 0 2.292-.828 2.292-2.712v-.912c0-1.884-.696-2.712-2.292-2.712-.684 0-1.248.192-1.68.576l-.12-.456h-.948v8.796zm2.604-5.376c0 1.236-.42 1.812-1.296 1.812s-1.308-.54-1.308-1.632v-1.104c0-1.092.432-1.632 1.308-1.632s1.296.576 1.296 1.812zm5.5392.396c0 1.86.408 2.28 2.232 2.28h.216v-1.008h-.192c-.78.012-1.032-.252-1.032-1.152v-2.952h1.2v-.984h-1.2v-1.86h-1.164l-.06 1.86h-.708v.984h.708zm3.7062-.3c0 1.872.792 2.7 2.58 2.7 1.776 0 2.568-.828 2.568-2.7v-.936c0-1.872-.792-2.7-2.568-2.7-1.788 0-2.58.828-2.58 2.7zm3.924-.084c0 1.248-.408 1.8-1.356 1.8-.924 0-1.344-.552-1.344-1.8v-.768c0-1.248.42-1.8 1.344-1.8.948 0 1.356.552 1.356 1.8zm4.5457 1.26c.432.78 1.272 1.212 2.508 1.308v1.704h1.236v-1.728c1.524-.204 2.28-.984 2.28-2.34 0-.804-.276-1.38-.828-1.752-.432-.276-.66-.36-1.8-.636-1.392-.336-1.86-.696-1.86-1.452 0-.72.552-1.152 1.464-1.152.756 0 1.332.252 1.704.756l.96-.612c-.348-.624-.996-.996-1.92-1.116v-1.332h-1.236v1.308c-.492.06-.864.156-1.14.3-.684.372-1.068 1.08-1.068 1.944 0 1.296.732 2.004 2.472 2.424.624.144.996.24 1.128.276s.264.108.42.216c.312.204.468.516.468.936 0 .804-.624 1.236-1.74 1.236-.996 0-1.692-.312-2.064-.924zm8.2325-2.46c.336-.348.744-.528 1.236-.528.9 0 1.296.54 1.296 1.8 0 1.104-.444 1.656-1.332 1.656-.744 0-1.176-.372-1.284-1.116l-1.212.156c.132 1.332.96 2.004 2.46 2.004.924 0 1.62-.252 2.064-.768.384-.42.576-1.08.576-2.004 0-.876-.168-1.536-.492-1.956-.42-.528-1.056-.792-1.884-.792-.372 0-.756.084-1.14.264l.24-2.364h3.012v-1.056h-4.08l-.396 4.512zm5.2924.78c0 1.032.144 1.776.444 2.22.432.66 1.104.984 2.028.984.972 0 1.572-.252 2.016-.84.372-.48.552-1.272.552-2.364v-2.4c0-1.02-.144-1.752-.444-2.22-.444-.66-1.152-.984-2.124-.984-.852 0-1.488.276-1.92.84-.372.468-.552 1.26-.552 2.364zm3.78-.12c0 1.668-.348 2.28-1.272 2.28-.9 0-1.248-.636-1.248-2.28v-2.16c0-1.644.348-2.28 1.248-2.28.924 0 1.272.612 1.272 2.28zm2.7005.12c0 1.032.144 1.776.444 2.22.432.66 1.104.984 2.028.984.972 0 1.572-.252 2.016-.84.372-.48.552-1.272.552-2.364v-2.4c0-1.02-.144-1.752-.444-2.22-.444-.66-1.152-.984-2.124-.984-.852 0-1.488.276-1.92.84-.372.468-.552 1.26-.552 2.364zm3.78-.12c0 1.668-.348 2.28-1.272 2.28-.9 0-1.248-.636-1.248-2.28v-2.16c0-1.644.348-2.28 1.248-2.28.924 0 1.272.612 1.272 2.28zm8.3548 3.204v-7.512h2.4v-1.056h-6.084v1.056h2.4v7.512zm2.644-2.58c0 1.872.792 2.7 2.58 2.7 1.776 0 2.568-.828 2.568-2.7v-.936c0-1.872-.792-2.7-2.568-2.7-1.788 0-2.58.828-2.58 2.7zm3.924-.084c0 1.248-.408 1.8-1.356 1.8-.924 0-1.344-.552-1.344-1.8v-.768c0-1.248.42-1.8 1.344-1.8.948 0 1.356.552 1.356 1.8zm10.2217-.936v.66c0 1.344-.6 2.016-1.8 2.016-1.308 0-1.8-.696-1.8-2.532v-1.632c0-1.836.492-2.532 1.788-2.532.972 0 1.512.444 1.632 1.332l1.188-.084c-.084-1.5-1.08-2.292-2.868-2.292-1.044 0-1.824.3-2.352.912-.492.564-.672 1.248-.672 2.58v1.788c0 1.236.156 1.896.552 2.436.516.708 1.368 1.068 2.556 1.068 1.08 0 1.884-.324 2.424-.96.468-.564.624-1.188.624-2.376v-1.38h-2.88v.996zm4.2976 3.6v-2.964c0-1.548.324-2.196 1.104-2.196.264 0 .54.108.828.312l.528-1.02c-.42-.228-.828-.348-1.236-.348-.624 0-.984.168-1.368.636l-.132-.516h-.948v6.096zm5.4996-3.624c-1.728 0-2.304.48-2.304 1.884 0 1.356.564 1.86 2.1 1.86.9 0 1.332-.132 1.716-.516l.084.396h.972v-3.768c0-.696-.084-1.188-.24-1.488-.336-.636-1.02-.96-2.052-.96-1.008 0-1.776.324-2.304.972l.84.624c.348-.408.804-.612 1.344-.612.828 0 1.188.36 1.188 1.26v.348zm1.344 1.656c0 .372-.048.636-.144.768-.18.24-.552.36-1.104.36-.924 0-1.236-.24-1.236-.924 0-.72.348-.996 1.272-.996h1.212zm4.0834 1.968.084-.468c.204.156.312.252.348.276.324.204.78.312 1.344.312 1.62 0 2.316-.804 2.316-2.712v-.912c0-1.884-.696-2.712-2.292-2.712-.588 0-1.104.168-1.524.504v-2.856h-1.2236v8.568zm2.88-2.676c0 1.236-.42 1.812-1.296 1.812s-1.308-.54-1.308-1.632v-1.104c0-1.092.432-1.632 1.308-1.632s1.296.576 1.296 1.812z" fill="#00142a"/></svg>