<svg height="121" viewBox="0 0 114 121" width="114" xmlns="http://www.w3.org/2000/svg" xmlns:xlink="http://www.w3.org/1999/xlink"><defs><path id="a" d="m48.3284617.3512713c12.5351443 2.724387 13.825812 16.537781 4.9312978 24.7870992-5.9296762 5.4995456-13.42584 8.0673805-22.4884915 7.7035048h-5.8195268c-16.80452408-2.4882228-25.12090218-8.8354492-24.94913425-19.0416792.25765189-15.30934499 19.60130585-15.07561853 23.74886085-7.72211757 2.7650366 4.90233397 4.561069 8.22039947 5.3880974 9.95419647 4.4358347-12.27026046 10.8321335-17.4972617 19.1888965-15.6810037zm-36.333781 22.1310389c2.8081441 1.9306945 7.3794702 4.6923701 13.7139782 8.2850267-6.7346004-13.4045176-11.3012224-20.1675288-13.699866-20.2890336-3.59796547-.1822571-4.22632838 9.107965-.0141122 12.0040069zm34.6789205-12.0076259-.1283968.0009747c-2.383212.0703273-7.0785758 6.8342199-14.0860912 20.2916779 4.0866711-1.3886364 8.3406245-4.0619109 12.7618601-8.0198236 6.6318534-5.9368691 4.8990492-12.3773453 1.3242311-12.2718543z"/><mask id="b" fill="#fff"><use fill="#fff" fill-rule="evenodd" xlink:href="#a"/></mask></defs><g fill="none" fill-rule="evenodd" transform="matrix(.99254615 -.12186934 .12186934 .99254615 .993382 13.057622)"><g stroke="#353c50"><path d="m0 50.6299685v-18.5145994l46.5941555-6.8673615 53.4058445 10.1276614v19.5145476l-53.4058445 8.2147126z" fill="#ff5a88"/><path d="m46.929113 40.997628 53-5.977409"/><path d="m47.3979224 62.9493988v-21.8276299l-47-9.0556483v18.4511016z" fill="#ff8cba"/><path d="m6.44592647 52.6030645 7.26490463 45.1483415 33.7350954 9.644571v-44.4223213z" fill="#ff8cba"/><path d="m46.5519537 107.661444 44.2149948-11.6851648 2.7850052-40.1190435-47 6.8758478z" fill="#ff5f8d"/></g><path d="m5.97797506 52.2059369 1.27943824 8.2756594 39.2513255 8.6603319 46.003058-6.1776175.4661783-7.0526129-46.4692363 7.0526129z" fill="#c84166" opacity=".3"/><path d="m21.8164475 100.485261 11.4899139 3.682644v-65.2418881l15.561001-5.490781-30 2.2176624z" fill="#ffd782" stroke="#353c50"/><path d="m66.2781701 102.869887 11.6743382-3.0166892 2.3615201-64.7684638-32-3.9437506 17.9641417 7.4097699z" fill="#ffd782" stroke="#353c50"/><g transform="translate(19.384949)"><use fill="#ffd782" stroke="#353c50" xlink:href="#a"/><g fill="#fa5"><path d="m11.5202148 10.4743802c-4.43354537-1.1484407-7.44587843-.3138188-9.03699924 2.5038657-2.38668122 4.2265267 1.44563463 12.3274294 23.22544334 17.789091-9.9161638-4.4786661-15.3300292-8.4694498-16.24159618-11.972351-.93869219-3.6071359-.25430818-6.3806711 2.05315208-8.3206057z" mask="url(#b)"/><path d="m46.5452044 10.475659c5.8677722-3.24792828 9.0677841-2.1620328 9.6000359 3.2576864.7983776 8.1295788-9.7621362 15.3901628-23.6861271 17.0341498 8.5702244-4.1799118 13.6658474-7.7853881 15.2868691-10.8164288 2.9168925-5.4541031 2.5166332-8.6125723-1.2007779-9.4754074z" mask="url(#b)"/></g></g></g></svg>