<svg height="22" viewBox="0 0 22 22" width="22" xmlns="http://www.w3.org/2000/svg"><g fill="none" fill-rule="evenodd" transform="translate(-5 -5)"><path d="m0 0h32v32h-32z"/><path d="m16 5.33333333c5.8933333 0 10.6666667 4.77333337 10.6666667 10.66666667s-4.7733334 10.6666667-10.6666667 10.6666667-10.66666667-4.7733334-10.66666667-10.6666667 4.77333337-10.66666667 10.66666667-10.66666667zm4.4977778 6.47999997-10.2755556 3.9644445c-.7022222.2844444-.69333331.6755555-.1244444.8444444l2.64.8266667 6.1066666-3.8488889c.2844445-.1777778.5511112-.08.3377778.1155556l-4.96 4.4533333 4.3022222 3.1733333c.4888889.2666667.8444445.1333334.9688889-.4533333l1.7511111-8.2488889c.1777778-.72-.2755555-1.04-.7466666-.8266667z" fill="#fff" fill-rule="nonzero" opacity=".65"/></g></svg>