<svg height="17" viewBox="0 0 15 17" width="15" xmlns="http://www.w3.org/2000/svg" xmlns:xlink="http://www.w3.org/1999/xlink"><defs><path id="a" d="m.93528821 13.7774057c-.20834435 0-.40153639-.1066354-.51328472-.2837263-.11174834-.177091-.12311257-.3979787-.03409271-.5883991l1.3125694-2.764904v-4.05976272c0-1.41101509.54927147-2.74205361 1.54932435-3.74556906 1.00005288-1.00351546 2.32209249-1.55763879 3.72557579-1.55763879s2.72741695.55221913 3.72557578 1.55763879c.9981588 1.00541966 1.5493244 2.33455397 1.5493244 3.74556906v4.08642152l1.0398277 2.7858503c.0700794.186612.0435629.3960745-.0700795.5617402-.1117483.1637615-.2973642.2627801-.4962384.2627801z"/><mask id="b" fill="#fff"><use fill="#fff" fill-rule="evenodd" xlink:href="#a"/></mask></defs><g fill="none" fill-rule="nonzero" transform="matrix(.90630779 -.42261826 .42261826 .90630779 -7.28926 4.163105)"><path d="m.587081.351847h19v19h-19z" fill="#000" opacity="0"/><path d="m11.6215003 3.90686053c-.3156206 0-.5706134-.25952813-.5706134-.58076225 0-.42286752-.3370186-.76588022-.7524965-.76588022-.41547787 0-.75249642.3430127-.75249642.76588022 0 .32123412-.25499286.58076225-.57061341.58076225-.31562054 0-.57061341-.25952813-.57061341-.58076225 0-1.06352088.85057062-1.92740472 1.89372324-1.92740472 1.0431527 0 1.8937233.86569873 1.8937233 1.92740472 0 .32123412-.2549929.58076225-.5706134.58076225zm-1.3231099 13.49183307c-1.378388 0-2.49999998-1.1415608-2.49999998-2.5444647 0-.3212341.25499286-.5807622.57061341-.5807622.31562054 0 .57061341.2595281.57061341.5807622 0 .7622505.60984308 1.3829402 1.35877316 1.3829402.7489301 0 1.3587732-.6206897 1.3587732-1.3829402 0-.3212341.2549929-.5807622.5706134-.5807622s.5706134.2595281.5706134.5807622c0 1.4029039-1.121612 2.5444647-2.5 2.5444647z" fill="#ff507e"/><g transform="translate(3.680995 1.668134)"><use fill="#ff8cba" xlink:href="#a"/><path d="m5.74697488.57875952-.30689628 9.19006919.91221068 4.96763859-7.71073319-.7947012-.54786388-10.73756334 5.45806059-4.62682102z" fill="#ff3765" mask="url(#b)" opacity=".5"/></g></g></svg>