<svg width="96" height="148" viewBox="0 0 96 148" fill="none" xmlns="http://www.w3.org/2000/svg">
<g clip-path="url(#clip0_3279_62429)">
<mask id="path-1-inside-1_3279_62429" fill="white">
<path fill-rule="evenodd" clip-rule="evenodd" d="M95 0C95 3.86599 91.866 7 88 7C84.134 7 81 3.86599 81 0H8C3.58172 0 0 3.58173 0 8V140C0 144.418 3.58172 148 8 148H81C81 144.134 84.134 141 88 141C91.866 141 95 144.134 95 148H448C452.418 148 456 144.418 456 140V8C456 3.58172 452.418 0 448 0H95Z"/>
</mask>
<path fill-rule="evenodd" clip-rule="evenodd" d="M95 0C95 3.86599 91.866 7 88 7C84.134 7 81 3.86599 81 0H8C3.58172 0 0 3.58173 0 8V140C0 144.418 3.58172 148 8 148H81C81 144.134 84.134 141 88 141C91.866 141 95 144.134 95 148H448C452.418 148 456 144.418 456 140V8C456 3.58172 452.418 0 448 0H95Z" fill="#16181D"/>
<path d="M95 0V-0.5H94.5V0H95ZM81 0H81.5V-0.5H81V0ZM81 148V148.5H81.5V148H81ZM95 148H94.5V148.5H95V148ZM88 7.5C92.1421 7.5 95.5 4.14214 95.5 0H94.5C94.5 3.58985 91.5898 6.5 88 6.5V7.5ZM80.5 0C80.5 4.14214 83.8579 7.5 88 7.5V6.5C84.4102 6.5 81.5 3.58985 81.5 0H80.5ZM8 0.5H81V-0.5H8V0.5ZM0.5 8C0.5 3.85787 3.85786 0.5 8 0.5V-0.5C3.30558 -0.5 -0.5 3.30558 -0.5 8H0.5ZM0.5 140V8H-0.5V140H0.5ZM8 147.5C3.85786 147.5 0.5 144.142 0.5 140H-0.5C-0.5 144.694 3.30558 148.5 8 148.5V147.5ZM81 147.5H8V148.5H81V147.5ZM81.5 148C81.5 144.41 84.4101 141.5 88 141.5V140.5C83.8579 140.5 80.5 143.858 80.5 148H81.5ZM88 141.5C91.5899 141.5 94.5 144.41 94.5 148H95.5C95.5 143.858 92.1421 140.5 88 140.5V141.5ZM448 147.5H95V148.5H448V147.5ZM455.5 140C455.5 144.142 452.142 147.5 448 147.5V148.5C452.694 148.5 456.5 144.694 456.5 140H455.5ZM455.5 8V140H456.5V8H455.5ZM448 0.5C452.142 0.5 455.5 3.85786 455.5 8H456.5C456.5 3.30558 452.694 -0.5 448 -0.5V0.5ZM95 0.5H448V-0.5H95V0.5Z" fill="#1D1D1D" fill-opacity="0.08" mask="url(#path-1-inside-1_3279_62429)"/>
<g clip-path="url(#clip1_3279_62429)">
<mask id="path-3-inside-2_3279_62429" fill="white">
<path fill-rule="evenodd" clip-rule="evenodd" d="M8 0H81C81 3.86599 84.134 7 88 7V15C85.7909 15 84 16.7909 84 19C84 21.2091 85.7909 23 88 23V26C85.7909 26 84 27.7909 84 30C84 32.2091 85.7909 34 88 34V37C85.7909 37 84 38.7909 84 41C84 43.2091 85.7909 45 88 45V48C85.7909 48 84 49.7909 84 52C84 54.2091 85.7909 56 88 56V59C85.7909 59 84 60.7909 84 63C84 65.2091 85.7909 67 88 67V70C85.7909 70 84 71.7909 84 74C84 76.2091 85.7909 78 88 78V81C85.7909 81 84 82.7909 84 85C84 87.2091 85.7909 89 88 89V92C85.7909 92 84 93.7909 84 96C84 98.2091 85.7909 100 88 100V103C85.7909 103 84 104.791 84 107C84 109.209 85.7909 111 88 111V114C85.7909 114 84 115.791 84 118C84 120.209 85.7909 122 88 122V125C85.7909 125 84 126.791 84 129C84 131.209 85.7909 133 88 133V141C84.134 141 81 144.134 81 148H8C3.58172 148 0 144.418 0 140V8C0 3.58173 3.58172 0 8 0Z"/>
</mask>
<path fill-rule="evenodd" clip-rule="evenodd" d="M8 0H81C81 3.86599 84.134 7 88 7V15C85.7909 15 84 16.7909 84 19C84 21.2091 85.7909 23 88 23V26C85.7909 26 84 27.7909 84 30C84 32.2091 85.7909 34 88 34V37C85.7909 37 84 38.7909 84 41C84 43.2091 85.7909 45 88 45V48C85.7909 48 84 49.7909 84 52C84 54.2091 85.7909 56 88 56V59C85.7909 59 84 60.7909 84 63C84 65.2091 85.7909 67 88 67V70C85.7909 70 84 71.7909 84 74C84 76.2091 85.7909 78 88 78V81C85.7909 81 84 82.7909 84 85C84 87.2091 85.7909 89 88 89V92C85.7909 92 84 93.7909 84 96C84 98.2091 85.7909 100 88 100V103C85.7909 103 84 104.791 84 107C84 109.209 85.7909 111 88 111V114C85.7909 114 84 115.791 84 118C84 120.209 85.7909 122 88 122V125C85.7909 125 84 126.791 84 129C84 131.209 85.7909 133 88 133V141C84.134 141 81 144.134 81 148H8C3.58172 148 0 144.418 0 140V8C0 3.58173 3.58172 0 8 0Z" fill="url(#paint0_linear_3279_62429)"/>
<path d="M81 0H81.5V-0.5H81V0ZM88 7H88.5V6.5H88V7ZM88 15V15.5H88.5V15H88ZM88 23H88.5V22.5H88V23ZM88 26V26.5H88.5V26H88ZM88 34H88.5V33.5H88V34ZM88 37V37.5H88.5V37H88ZM88 45H88.5V44.5H88V45ZM88 48V48.5H88.5V48H88ZM88 56H88.5V55.5H88V56ZM88 59V59.5H88.5V59H88ZM88 67H88.5V66.5H88V67ZM88 70V70.5H88.5V70H88ZM88 78H88.5V77.5H88V78ZM88 81V81.5H88.5V81H88ZM88 89H88.5V88.5H88V89ZM88 92V92.5H88.5V92H88ZM88 100H88.5V99.5H88V100ZM88 103V103.5H88.5V103H88ZM88 111H88.5V110.5H88V111ZM88 114V114.5H88.5V114H88ZM88 122H88.5V121.5H88V122ZM88 125V125.5H88.5V125H88ZM88 133H88.5V132.5H88V133ZM88 141V141.5H88.5V141H88ZM81 148V148.5H81.5V148H81ZM81 -0.5H8V0.5H81V-0.5ZM88 6.5C84.4102 6.5 81.5 3.58985 81.5 0H80.5C80.5 4.14214 83.8579 7.5 88 7.5V6.5ZM88.5 15V7H87.5V15H88.5ZM84.5 19C84.5 17.067 86.067 15.5 88 15.5V14.5C85.5147 14.5 83.5 16.5147 83.5 19H84.5ZM88 22.5C86.067 22.5 84.5 20.933 84.5 19H83.5C83.5 21.4853 85.5147 23.5 88 23.5V22.5ZM88.5 26V23H87.5V26H88.5ZM84.5 30C84.5 28.067 86.067 26.5 88 26.5V25.5C85.5147 25.5 83.5 27.5147 83.5 30H84.5ZM88 33.5C86.067 33.5 84.5 31.933 84.5 30H83.5C83.5 32.4853 85.5147 34.5 88 34.5V33.5ZM88.5 37V34H87.5V37H88.5ZM84.5 41C84.5 39.067 86.067 37.5 88 37.5V36.5C85.5147 36.5 83.5 38.5147 83.5 41H84.5ZM88 44.5C86.067 44.5 84.5 42.933 84.5 41H83.5C83.5 43.4853 85.5147 45.5 88 45.5V44.5ZM88.5 48V45H87.5V48H88.5ZM84.5 52C84.5 50.067 86.067 48.5 88 48.5V47.5C85.5147 47.5 83.5 49.5147 83.5 52H84.5ZM88 55.5C86.067 55.5 84.5 53.933 84.5 52H83.5C83.5 54.4853 85.5147 56.5 88 56.5V55.5ZM88.5 59V56H87.5V59H88.5ZM84.5 63C84.5 61.067 86.067 59.5 88 59.5V58.5C85.5147 58.5 83.5 60.5147 83.5 63H84.5ZM88 66.5C86.067 66.5 84.5 64.933 84.5 63H83.5C83.5 65.4853 85.5147 67.5 88 67.5V66.5ZM88.5 70V67H87.5V70H88.5ZM84.5 74C84.5 72.067 86.067 70.5 88 70.5V69.5C85.5147 69.5 83.5 71.5147 83.5 74H84.5ZM88 77.5C86.067 77.5 84.5 75.933 84.5 74H83.5C83.5 76.4853 85.5147 78.5 88 78.5V77.5ZM88.5 81V78H87.5V81H88.5ZM84.5 85C84.5 83.067 86.067 81.5 88 81.5V80.5C85.5147 80.5 83.5 82.5147 83.5 85H84.5ZM88 88.5C86.067 88.5 84.5 86.933 84.5 85H83.5C83.5 87.4853 85.5147 89.5 88 89.5V88.5ZM88.5 92V89H87.5V92H88.5ZM84.5 96C84.5 94.067 86.067 92.5 88 92.5V91.5C85.5147 91.5 83.5 93.5147 83.5 96H84.5ZM88 99.5C86.067 99.5 84.5 97.933 84.5 96H83.5C83.5 98.4853 85.5147 100.5 88 100.5V99.5ZM88.5 103V100H87.5V103H88.5ZM84.5 107C84.5 105.067 86.067 103.5 88 103.5V102.5C85.5147 102.5 83.5 104.515 83.5 107H84.5ZM88 110.5C86.067 110.5 84.5 108.933 84.5 107H83.5C83.5 109.485 85.5147 111.5 88 111.5V110.5ZM88.5 114V111H87.5V114H88.5ZM84.5 118C84.5 116.067 86.067 114.5 88 114.5V113.5C85.5147 113.5 83.5 115.515 83.5 118H84.5ZM88 121.5C86.067 121.5 84.5 119.933 84.5 118H83.5C83.5 120.485 85.5147 122.5 88 122.5V121.5ZM88.5 125V122H87.5V125H88.5ZM84.5 129C84.5 127.067 86.067 125.5 88 125.5V124.5C85.5147 124.5 83.5 126.515 83.5 129H84.5ZM88 132.5C86.067 132.5 84.5 130.933 84.5 129H83.5C83.5 131.485 85.5147 133.5 88 133.5V132.5ZM88.5 141V133H87.5V141H88.5ZM81.5 148C81.5 144.41 84.4101 141.5 88 141.5V140.5C83.8579 140.5 80.5 143.858 80.5 148H81.5ZM8 148.5H81V147.5H8V148.5ZM-0.5 140C-0.5 144.694 3.30558 148.5 8 148.5V147.5C3.85786 147.5 0.5 144.142 0.5 140H-0.5ZM-0.5 8V140H0.5V8H-0.5ZM8 -0.5C3.30558 -0.5 -0.5 3.30558 -0.5 8H0.5C0.5 3.85787 3.85786 0.5 8 0.5V-0.5Z" fill="url(#paint1_linear_3279_62429)" mask="url(#path-3-inside-2_3279_62429)"/>
<g clip-path="url(#clip2_3279_62429)">
<path fill-rule="evenodd" clip-rule="evenodd" d="M65.4789 -9.70505V-13L55.516 -5.52783L65.4789 1.94434V-1.3506V-3.03816H70.4023C71.7886 -3.03816 72.9518 -1.98036 72.9518 -0.637398L72.9516 6.92473H77.933V-0.606513C77.933 -4.6354 74.5614 -8.01961 70.4023 -8.01961H65.4789V-9.70505ZM22.453 47.1943L17.3257 47.1943C16.031 47.1943 14.9814 46.0792 14.9814 44.7036L14.9814 37.2314H10L10 44.7036C10 48.8304 13.4416 52.1758 17.3257 52.1758H22.453V52.9414L23.933 52.9414L25.433 52.9414L28.254 52.9414L32.4159 49.6836L22.453 41.885V45.3239V47.1943ZM64.9034 17.2358C67.1675 20.3028 68.4698 24.1106 68.3848 28.2148C68.1802 38.0888 60.0099 45.9274 50.1359 45.7228C47.2632 45.6633 44.5653 44.9312 42.1867 43.6788C41.8037 43.7949 41.4577 43.9111 41.1327 44.0202C40.1363 44.3547 39.3366 44.6232 38.2685 44.6232L34.3094 45.5835C38.4565 49.3727 43.9507 51.7346 50.0088 51.8601C63.2723 52.1348 74.2472 41.6054 74.522 28.3419C74.6694 21.225 71.7023 14.7638 66.8803 10.2687L66.1281 13.9304C65.6559 14.8748 65.1837 16.2914 64.9034 17.2358ZM36.817 35.1447C47.1827 35.1447 55.5857 26.7416 55.5857 16.376C55.5857 6.01033 47.1827 -2.39269 36.817 -2.39269C26.4514 -2.39269 18.0484 6.01033 18.0484 16.376C18.0484 26.7416 26.4514 35.1447 36.817 35.1447ZM36.817 41.2832C50.5729 41.2832 61.7243 30.1319 61.7243 16.376C61.7243 2.6201 50.5729 -8.53125 36.817 -8.53125C23.0611 -8.53125 11.9098 2.6201 11.9098 16.376C11.9098 30.1319 23.0611 41.2832 36.817 41.2832ZM36.8176 9.71586L30.1585 16.375L36.8176 23.0341L43.4767 16.375L36.8176 9.71586Z" fill="#7780DF" fill-opacity="0.05"/>
</g>
</g>
</g>
<defs>
<linearGradient id="paint0_linear_3279_62429" x1="0" y1="0" x2="86.254" y2="149.011" gradientUnits="userSpaceOnUse">
<stop stop-color="#323A56"/>
<stop offset="1" stop-color="#1F2633"/>
</linearGradient>
<linearGradient id="paint1_linear_3279_62429" x1="6.55651e-07" y1="74" x2="88" y2="74" gradientUnits="userSpaceOnUse">
<stop stop-color="#5F68BA"/>
<stop offset="1" stop-color="#323948"/>
</linearGradient>
<clipPath id="clip0_3279_62429">
<rect width="96" height="148" fill="white"/>
</clipPath>
<clipPath id="clip1_3279_62429">
<rect width="88" height="148" fill="white"/>
</clipPath>
<clipPath id="clip2_3279_62429">
<rect width="80" height="52" fill="white" transform="translate(4 0.5)"/>
</clipPath>
</defs>
</svg>
