<svg width="20" height="20" viewBox="0 0 20 20" fill="none" xmlns="http://www.w3.org/2000/svg">
<path d="M3.14246 17.7419C2.89838 17.9858 2.50174 17.9859 2.2577 17.7419C2.014 17.4979 2.01407 17.1021 2.2577 16.8581L3.14246 17.7419Z" fill="#8C8C8C" fill-opacity="0.6"/>
<path fill-rule="evenodd" clip-rule="evenodd" d="M7.93641 8.34049C8.18052 8.0972 8.57637 8.09674 8.8202 8.34049C9.06416 8.58445 9.06392 8.98115 8.8202 9.22526L7.63953 10.4059L9.59364 12.36L10.7753 11.1794C11.0194 10.9361 11.4152 10.9356 11.6591 11.1794C11.903 11.4233 11.9028 11.82 11.6591 12.0641L10.4784 13.2448L10.8475 13.6139C11.0912 13.858 11.0914 14.2538 10.8475 14.4977L9.63074 15.7145C9.22235 16.1228 8.38534 16.5817 7.43153 16.7262C6.60057 16.8521 5.63522 16.7421 4.76453 16.1188L3.14246 17.7419L2.70008 17.2995L2.2577 16.8581L3.87977 15.235C3.25673 14.3644 3.14751 13.3988 3.27332 12.568C3.41784 11.6142 3.87681 10.7772 4.28504 10.3688L5.50184 9.15201L5.59754 9.07487C5.69945 9.00688 5.81991 8.96942 5.94422 8.9694C6.10974 8.96943 6.26848 9.0351 6.38563 9.15201L6.75477 9.52116L7.93641 8.34049ZM5.16981 11.2526C4.96974 11.4528 4.61758 12.0368 4.50867 12.7555C4.40515 13.4398 4.52866 14.1864 5.16492 14.8258C5.1664 14.8273 5.16834 14.8283 5.16981 14.8297L5.17274 14.8337C5.81266 15.4714 6.56009 15.5946 7.245 15.4909C7.96351 15.3819 8.54678 15.0308 8.74696 14.8307L9.52137 14.0553L5.94324 10.4782L5.16981 11.2526Z" fill="#8C8C8C" fill-opacity="0.6"/>
<path fill-rule="evenodd" clip-rule="evenodd" d="M16.8583 2.25748C17.1023 2.01377 17.4981 2.01379 17.7421 2.25748C17.9861 2.50156 17.9861 2.89817 17.7421 3.14225L16.119 4.76432C16.7423 5.63492 16.8522 6.6004 16.7264 7.43131C16.582 8.38494 16.1229 9.22205 15.7147 9.63053L14.4979 10.8473C14.254 11.0912 13.8582 11.091 13.6141 10.8473L9.15223 6.38541C9.03535 6.26827 8.96963 6.10951 8.96961 5.94401C8.96973 5.77843 9.03515 5.61873 9.15223 5.50162L10.369 4.28483C10.7775 3.87662 11.6146 3.41759 12.5682 3.27311C13.399 3.14736 14.3648 3.25659 15.2352 3.87955L16.8583 2.25748ZM14.7079 5.05631C14.0954 4.51522 13.3979 4.4111 12.7548 4.50846C12.0365 4.61739 11.4532 4.96953 11.2528 5.16959L10.4784 5.94303L14.0555 9.52116L14.83 8.74674L14.912 8.65397C15.1147 8.39836 15.3958 7.87324 15.4911 7.24479C15.5949 6.55892 15.4701 5.81006 14.83 5.16959L14.7079 5.05631Z" fill="#8C8C8C" fill-opacity="0.6"/>
</svg>
