<svg width="20" height="20" viewBox="0 0 20 20" fill="none" xmlns="http://www.w3.org/2000/svg">
<path d="M15 3.50024C16.7489 3.50024 18.1665 4.91785 18.1665 6.66675V9.62004C18.1665 9.98823 17.8682 10.2874 17.5 10.2874C17.1318 10.2874 16.8335 9.98823 16.8335 9.62004V6.66675C16.8335 5.65423 16.0125 4.83325 15 4.83325H5C3.98748 4.83325 3.1665 5.65423 3.1665 6.66675V13.3334C3.1665 14.3459 3.98748 15.1669 5 15.1669H7.0752C7.44339 15.1669 7.74251 15.4652 7.74251 15.8334C7.74251 16.2016 7.44339 16.4999 7.0752 16.4999H5C3.2511 16.4999 1.8335 15.0823 1.8335 13.3334V6.66675C1.8335 4.91785 3.2511 3.50024 5 3.50024H15Z" fill="#8C8C8C" fill-opacity="0.6"/>
<path fill-rule="evenodd" clip-rule="evenodd" d="M14.5085 12.6661C15.8382 12.6699 16.9152 13.7469 16.9189 15.0766V15.4167C16.9188 16.0151 16.4341 16.4999 15.8358 16.4999H10.4167C9.81841 16.4998 9.33361 16.015 9.3335 15.4167V15.0766C9.33729 13.7469 10.4143 12.6699 11.744 12.6661H14.5085ZM11.7472 13.9991C11.1513 14.001 10.6684 14.4839 10.6665 15.0798V15.1669H15.5859V15.0798C15.5841 14.5209 15.1595 14.0613 14.6151 14.0048L14.5052 13.9991H11.7472Z" fill="#8C8C8C" fill-opacity="0.6"/>
<path fill-rule="evenodd" clip-rule="evenodd" d="M13.1331 7.60425C14.4207 7.608 15.4623 8.65385 15.4606 9.94149C15.4587 11.229 14.4142 12.2721 13.1266 12.2722C13.1031 12.2722 13.0796 12.2705 13.0566 12.2681C12.4616 12.2503 11.8944 12.0083 11.473 11.5854C11.035 11.1457 10.7902 10.549 10.7926 9.92847C10.798 8.6408 11.8454 7.60083 13.1331 7.60425ZM13.1291 8.93726C12.577 8.93586 12.1279 9.38205 12.1257 9.93416C12.1247 10.2002 12.2301 10.4561 12.4178 10.6446C12.6055 10.8328 12.8608 10.9392 13.1266 10.9392C13.6786 10.9391 14.1268 10.491 14.1276 9.93905C14.1281 9.38715 13.681 8.93883 13.1291 8.93726Z" fill="#8C8C8C" fill-opacity="0.6"/>
<path d="M7.15088 10.1669C7.51882 10.1671 7.81729 10.4654 7.81738 10.8334C7.81738 11.2015 7.51887 11.4997 7.15088 11.4999H5.4834C5.11521 11.4999 4.81689 11.2016 4.81689 10.8334C4.81699 10.4653 5.11527 10.1669 5.4834 10.1669H7.15088Z" fill="#8C8C8C" fill-opacity="0.6"/>
<path d="M8.91927 7.25024C9.28718 7.25057 9.58577 7.54876 9.58577 7.91675C9.58577 8.28473 9.28718 8.58292 8.91927 8.58325H5.4834C5.11521 8.58325 4.81689 8.28494 4.81689 7.91675C4.81689 7.54856 5.11521 7.25024 5.4834 7.25024H8.91927Z" fill="#8C8C8C" fill-opacity="0.6"/>
</svg>
