<svg width="20" height="20" viewBox="0 0 20 20" fill="none" xmlns="http://www.w3.org/2000/svg">
<path d="M7.50859 5.90086C8.25368 6.64596 8.25368 7.76361 7.50859 8.50871C6.76349 9.25381 5.64584 9.25381 4.90074 8.50871C4.15564 7.76361 4.15564 6.64596 4.90074 5.90086C5.64584 5.15577 6.76349 5.15577 7.50859 5.90086" stroke="#8C8C8C" stroke-opacity="0.6" stroke-width="1.33333" stroke-linecap="round" stroke-linejoin="round"/>
<path d="M15.0061 5.06251C15.9375 5.99389 15.9375 7.48408 15.0061 8.32232C14.0748 9.16055 12.5846 9.25369 11.7463 8.32232C10.9081 7.39095 10.815 5.90075 11.7463 5.06251C12.5846 4.22428 14.0748 4.22428 15.0061 5.06251" stroke="#8C8C8C" stroke-opacity="0.6" stroke-width="1.33333" stroke-linecap="round" stroke-linejoin="round"/>
<path d="M17.5208 15.5871V14.6557C17.5208 13.0724 16.31 11.8616 14.7267 11.8616H11.9325C10.3492 11.8616 9.13843 13.0724 9.13843 14.6557V15.5871" stroke="#8C8C8C" stroke-opacity="0.6" stroke-width="1.33333" stroke-linecap="round" stroke-linejoin="round"/>
<path d="M7.13599 11.8616H5.27324C3.68991 11.8616 2.47913 13.0724 2.47913 14.6557V15.5871" stroke="#8C8C8C" stroke-opacity="0.6" stroke-width="1.33333" stroke-linecap="round" stroke-linejoin="round"/>
</svg>
