<svg width="20" height="20" viewBox="0 0 20 20" fill="none" xmlns="http://www.w3.org/2000/svg">
<path d="M8.56971 8.35227V11.7143C8.56971 11.8721 8.69762 12 8.85542 12H9.64458C9.80238 12 9.93029 11.8721 9.93029 11.7143V8.35227H10.8313C11.0828 8.35227 11.2116 8.05081 11.0378 7.86907L9.45647 6.21585C9.34395 6.09822 9.15605 6.09822 9.04353 6.21585L7.4622 7.86907C7.28836 8.05081 7.41717 8.35227 7.66867 8.35227H8.56971Z" fill="#8C8C8C" fill-opacity="0.6"/>
<path d="M12.3837 11.6477V8.28571C12.3837 8.12792 12.5116 8 12.6694 8H13.4706C13.6284 8 13.7563 8.12792 13.7563 8.28571V11.6477H14.6672C14.9193 11.6477 15.0479 11.9504 14.8728 12.1318L13.2756 13.787C13.1633 13.9034 12.9768 13.9034 12.8644 13.787L11.2672 12.1318C11.0921 11.9504 11.2207 11.6477 11.4728 11.6477H12.3837Z" fill="#8C8C8C" fill-opacity="0.6"/>
<path fill-rule="evenodd" clip-rule="evenodd" d="M4.32422 4.28569C4.32422 3.0825 5.2996 2.10712 6.50279 2.10712H15.7885C16.9917 2.10712 17.9671 3.0825 17.9671 4.28569V13.5714C17.9671 15.9581 16.0323 17.8928 13.6456 17.8928H4.32422V17.89H3.75595C3.71868 17.8919 3.68116 17.8929 3.64342 17.8929C2.44022 17.8929 1.46484 16.9175 1.46484 15.7143V11.4286C1.46484 10.2254 2.44022 9.25 3.64342 9.25C3.88117 9.25 4.11002 9.28808 4.32422 9.35849V4.28569ZM6.50279 3.60712C6.12803 3.60712 5.82422 3.91092 5.82422 4.28569V16.3928H13.6456C15.2039 16.3928 16.4671 15.1296 16.4671 13.5714V4.28569C16.4671 3.91092 16.1633 3.60712 15.7885 3.60712H6.50279ZM3.64342 10.75C3.26865 10.75 2.96484 11.0538 2.96484 11.4286V15.7143C2.96484 16.0891 3.26865 16.3929 3.64342 16.3929C4.01818 16.3929 4.32199 16.0891 4.32199 15.7143V11.4286C4.32199 11.0538 4.01818 10.75 3.64342 10.75Z" fill="#8C8C8C" fill-opacity="0.6"/>
</svg>
