<svg width="576" height="220" viewBox="0 0 576 220" fill="none" xmlns="http://www.w3.org/2000/svg">
<rect width="576" height="220" rx="8" fill="#000D1D" fill-opacity="0.02"/>
<rect x="168.699" y="33.6989" width="238.602" height="153.602" rx="10.4831" fill="white" stroke="#1D1D1D" stroke-width="1.39775"/>
<rect x="185.997" y="82.8228" width="81.6206" height="88.3383" rx="8.38651" fill="#86D993"/>
<rect x="192.047" y="88.8787" width="70.4143" height="75.6857" rx="7.77974" fill="#86D993" stroke="#65BA5D" stroke-width="1.21355"/>
<path d="M241.388 116.808C241.437 122.725 237.943 127.815 232.888 130.108C242.995 132.435 250.965 140.426 253.196 150.554C253.551 152.166 252.26 153.588 250.613 153.588H203.496C201.848 153.588 200.534 152.164 200.863 150.553C202.933 140.43 210.77 132.435 220.832 130.115C215.739 127.821 212.161 122.732 212.113 116.814C212.046 108.743 218.545 102.201 226.63 102.201C234.714 102.201 241.321 108.743 241.388 116.808Z" fill="#1D1D1D"/>
<path d="M221.562 121.529C222.074 122.7 223.855 125.041 226.876 125.041C229.897 125.041 231.632 122.7 232.121 121.529" stroke="#86D993" stroke-width="2.7955" stroke-linecap="round"/>
<rect opacity="0.8" x="282.004" y="143.715" width="30" height="27.6786" rx="2.7955" fill="#86D993" fill-opacity="0.12"/>
<rect x="318.007" y="156.392" width="27" height="5.53571" rx="2.76786" fill="#EBE9E9"/>
<rect x="318.007" y="165.857" width="18" height="5.53571" rx="2.76786" fill="#EBE9E9"/>
<rect x="282.004" y="85.5903" width="45" height="8.30357" rx="2.7955" fill="#EBE9E9"/>
<rect x="336.006" y="85.5903" width="54" height="8.30357" rx="2.7955" fill="#EBE9E9"/>
<rect x="282.004" y="104.965" width="24" height="8.30357" rx="2.7955" fill="#EBE9E9"/>
<rect x="315.005" y="104.965" width="75" height="8.30357" rx="2.7955" fill="#EBE9E9"/>
<rect x="282.004" y="124.34" width="108" height="8.30357" rx="2.7955" fill="#EBE9E9"/>
<rect x="185.997" y="46.8394" width="204" height="24.9107" rx="5.59101" fill="#EBE9E9"/>
</svg>
