<svg width="576" height="220" viewBox="0 0 576 220" fill="none" xmlns="http://www.w3.org/2000/svg">
<rect width="576" height="220" rx="8" fill="#000D1D" fill-opacity="0.02"/>
<mask id="mask0_8_99754" style="mask-type:alpha" maskUnits="userSpaceOnUse" x="112" y="0" width="352" height="203">
<rect x="112.081" width="351" height="203" fill="#D9D9D9"/>
</mask>
<g mask="url(#mask0_8_99754)">
<path d="M179.122 -5.71439H391.928V175.692C391.928 181.238 387.433 185.733 381.887 185.733H189.162C183.617 185.733 179.122 181.238 179.122 175.692V-5.71439Z" fill="white" stroke="#1D1D1D" stroke-width="1.33879"/>
<rect x="194.515" y="87.3311" width="72.8279" height="85.4572" rx="8.03276" fill="#66DD8C"/>
<path d="M231.101 107.818C218.816 107.818 208.795 117.771 208.695 130.059C208.594 142.347 218.451 152.299 230.736 152.299C243.02 152.299 253.063 142.347 253.164 130.059C253.265 117.771 243.385 107.818 231.101 107.818ZM246.389 121.163H239.829C239.13 118.383 238.14 115.714 236.826 113.245C240.906 114.646 244.284 117.482 246.389 121.163ZM231.075 112.344C232.909 115.013 234.33 117.982 235.249 121.163H226.755C227.726 117.982 229.196 115.013 231.075 112.344ZM213.683 134.507C213.328 133.083 213.129 131.593 213.141 130.059C213.154 128.524 213.378 127.034 213.756 125.611H221.26C221.07 127.067 220.936 128.546 220.924 130.059C220.911 131.571 221.021 133.05 221.198 134.507H213.683ZM215.459 138.955H222.018C222.718 141.735 223.708 144.404 225.021 146.884C220.942 145.482 217.563 142.636 215.459 138.955ZM222.164 121.163H215.605C217.769 117.482 221.195 114.635 225.297 113.234C223.943 115.714 222.909 118.383 222.164 121.163ZM230.784 147.773C228.96 145.104 227.54 142.135 226.61 138.955H235.103C234.121 142.135 232.651 145.104 230.784 147.773ZM236.096 134.507H225.69C225.491 133.05 225.358 131.571 225.371 130.059C225.383 128.546 225.54 127.067 225.763 125.611H236.169C236.368 127.067 236.5 128.546 236.488 130.059C236.476 131.571 236.319 133.05 236.096 134.507ZM236.561 146.872C237.916 144.393 238.949 141.735 239.695 138.955H246.254C244.078 142.636 240.653 145.471 236.561 146.872ZM240.587 134.507C240.777 133.05 240.922 131.571 240.935 130.059C240.947 128.546 240.837 127.067 240.66 125.611H248.164C248.519 127.034 248.73 128.524 248.717 130.059C248.704 131.593 248.481 133.083 248.091 134.507H240.587Z" fill="#1D1D1D"/>
<rect opacity="0.8" x="280.172" y="146.242" width="26.7682" height="26.7759" rx="2.67759" fill="#86D993" fill-opacity="0.12"/>
<rect x="312.295" y="158.504" width="24.0914" height="5.35517" rx="2.67759" fill="#EBE9E9"/>
<rect x="312.295" y="167.662" width="16.0609" height="5.35517" rx="2.67759" fill="#EBE9E9"/>
<rect x="280.172" y="90.0107" width="40.1523" height="8.03276" rx="2.67759" fill="#EBE9E9"/>
<rect x="328.355" y="90.0107" width="48.1827" height="8.03276" rx="2.67759" fill="#EBE9E9"/>
<rect x="280.172" y="108.755" width="21.4145" height="8.03276" rx="2.67759" fill="#EBE9E9"/>
<rect x="309.617" y="108.755" width="66.9205" height="8.03276" rx="2.67759" fill="#EBE9E9"/>
<rect x="280.172" y="127.497" width="96.3655" height="8.03276" rx="2.67759" fill="#EBE9E9"/>
<rect x="194.515" y="49.8462" width="182.024" height="24.0983" rx="5.35517" fill="#EBE9E9"/>
<mask id="mask1_8_99754" style="mask-type:alpha" maskUnits="userSpaceOnUse" x="178" y="-7" width="215" height="194">
<path d="M179.231 -5.60351H391.815V175.692C391.815 181.176 387.369 185.621 381.885 185.621H189.161C183.677 185.621 179.231 181.176 179.231 175.692V-5.60351Z" fill="white" stroke="black" stroke-width="1.56154"/>
</mask>
<g mask="url(#mask1_8_99754)">
<rect x="179.331" y="-3.58154" width="212.339" height="41.3065" fill="#F5F5F6"/>
<path d="M177.111 37.7949L393.934 37.7949" stroke="#B8A9A9" stroke-width="1.33879" stroke-linecap="round"/>
<rect x="210.573" y="-6.38477" width="13.3841" height="26.7759" rx="2.67759" fill="#EBE9E9"/>
<rect x="245.372" y="-6.38477" width="8.03045" height="26.7759" rx="2.67759" fill="#EBE9E9"/>
<rect x="261.433" y="-6.38477" width="8.03045" height="26.7759" rx="2.67759" fill="#EBE9E9"/>
<rect x="290.879" y="-6.38477" width="8.03045" height="26.7759" rx="2.67759" fill="#EBE9E9"/>
<rect x="306.938" y="-6.38477" width="8.03045" height="26.7759" rx="2.67759" fill="#EBE9E9"/>
<rect x="336.385" y="-6.38477" width="8.03045" height="26.7759" rx="2.67759" fill="#EBE9E9"/>
<rect x="352.444" y="-6.38477" width="8.03045" height="26.7759" rx="2.67759" fill="#EBE9E9"/>
</g>
<path d="M179.122 -5.71439H391.928V175.692C391.928 181.238 387.433 185.733 381.887 185.733H189.162C183.617 185.733 179.122 181.238 179.122 175.692V-5.71439Z" stroke="#1D1D1D" stroke-width="1.33879"/>
</g>
</svg>
