<svg fill="none" height="16" viewBox="0 0 16 16" width="16" xmlns="http://www.w3.org/2000/svg"><path clip-rule="evenodd" d="m7.99984 14.6669c3.68196 0 6.66686-2.9849 6.66686-6.66688 0-3.68199-2.9849-6.66683-6.66686-6.66683-3.68199 0-6.66683 2.98484-6.66683 6.66683 0 3.68198 2.98484 6.66688 6.66683 6.66688zm1.76803-9.02397c.16272-.16272.42653-.16272.58923 0 .1628.16272.1628.42655 0 .58927l-1.76774 1.76778 1.76784 1.76785c.1627.16273.1627.42657 0 .58927s-.42653.1627-.58925 0l-1.76786-1.76785-1.76785 1.76785c-.16272.1627-.42654.1627-.58927 0-.16272-.1627-.16272-.42656 0-.58928l1.76785-1.76784-1.76776-1.76777c-.16272-.16272-.16272-.42654 0-.58927.16272-.16272.42655-.16272.58927 0l1.76776 1.76777z" fill="#00142a" fill-opacity=".4" fill-rule="evenodd"/></svg>