<svg fill="none" height="44" viewBox="0 0 72 44" width="72" xmlns="http://www.w3.org/2000/svg" xmlns:xlink="http://www.w3.org/1999/xlink"><clipPath id="a"><path d="m3 7h30v30h-30z"/></clipPath><path d="m68.9732 21.9948c0 8.2433-6.6821 14.9254-14.9254 14.9254-8.243 0-14.9254-6.6821-14.9254-14.9254 0-8.2431 6.6824-14.92534 14.9254-14.92534 8.2433 0 14.9254 6.68224 14.9254 14.92534z" fill="#babec3"/><g fill="#fff"><circle cx="48.5" cy="22.5" r="1.5"/><circle cx="54.5" cy="22.5" r="1.5"/><circle cx="60.5" cy="22.5" r="1.5"/></g><path d="m50.9732 21.9948c0 8.2433-6.6821 14.9254-14.9254 14.9254-8.243 0-14.9254-6.6821-14.9254-14.9254 0-8.2431 6.6824-14.92534 14.9254-14.92534 8.2433 0 14.9254 6.68224 14.9254 14.92534z" fill="#1ba27a"/><path d="m43.0528 14.5957h-14.1329v3.4119h5.3605v5.015h3.4119v-5.015h5.3605z" fill="#fff"/><path d="m36.0188 23.5567c-4.4344 0-8.0295-.7018-8.0295-1.5676 0-.8656 3.595-1.5676 8.0295-1.5676 4.4343 0 8.0292.702 8.0292 1.5676 0 .8658-3.5949 1.5676-8.0292 1.5676zm9.0156-1.3062c0-1.1164-4.0364-2.0214-9.0156-2.0214s-9.0159.905-9.0159 2.0214c0 .9831 3.13 1.8022 7.2776 1.9837v7.1991h3.4117v-7.1963c4.1795-.1758 7.3422-.9983 7.3422-1.9865z" fill="#fff"/><g clip-path="url(#a)"><path d="m32.5286 25.6505c-2.0034 8.0358-10.1424 12.9263-18.1791 10.9224-8.03337-2.0034-12.9238-10.1428-10.91956-18.178 2.00248-8.0366 10.14146-12.92743 18.17566-10.92408 8.0362 2.00336 12.9263 10.14368 10.9227 18.17988l.0002-.0002z" fill="#f7931a"/><path d="m24.6144 19.8629c.2986-1.9962-1.2212-3.0692-3.2993-3.785l.6741-2.704-1.646-.4101-.6562 2.6328c-.4328-.1079-.8772-.2096-1.3188-.3105l.661-2.6501-1.645-.4102-.6745 2.7031c-.3581-.0815-.7098-.1621-1.051-.247l.0019-.0085-2.2699-.5668-.4378 1.758s1.2212.28 1.1954.2972c.6666.1664.7871.6076.7671.9573l-.768 3.0805c.0459.0117.1055.0285.1712.0549-.0549-.0136-.1134-.0285-.174-.043l-1.0764 4.3153c-.0815.2025-.2882.5064-.7542.391.0165.0239-1.1964-.2986-1.1964-.2986l-.8172 1.8842 2.142.534c.3985.0999.789.2044 1.1736.3028l-.6812 2.735 1.6441.4101.6746-2.7059c.4491.1219.885.2343 1.3117.3404l-.6723 2.6932 1.6461.4101.6811-2.7298c2.8068.5311 4.9172.317 5.8056-2.2217.7158-2.044-.0357-3.223-1.5123-3.9918 1.0755-.248 1.8856-.9554 2.1016-2.4167l-.0005-.0003zm-3.7607 5.2735c-.5087 2.044-3.9501.9391-5.0659.662l.9039-3.6234c1.1157.2786 4.6936.8298 4.1621 2.9614zm.509-5.3031c-.464 1.8592-3.3283.9146-4.2575.683l.8195-3.2862c.9291.2316 3.9214.6639 3.4382 2.6032z" fill="#fff"/></g></svg>