<svg fill="none" height="24" viewBox="0 0 24 24" width="24" xmlns="http://www.w3.org/2000/svg"><path d="m23.9785 11.9958c0 6.5946-5.3457 11.9403-11.9403 11.9403-6.59439 0-11.9402996-5.3457-11.9402996-11.9403 0-6.59449 5.3459096-11.9402809 11.9402996-11.9402809 6.5946 0 11.9403 5.3457909 11.9403 11.9402809z" fill="#1ba27a"/><g fill="#fff"><path d="m17.6422 6.07653h-11.30626v2.72956h4.28836v4.01191h2.7295v-4.01191h4.2884z"/><path d="m12.0149 13.2454c-3.54746 0-6.42352-.5615-6.42352-1.2541s2.87594-1.2541 6.42352-1.2541c3.5475 0 6.4234.5615 6.4234 1.2541s-2.8759 1.2541-6.4234 1.2541zm7.2125-1.045c0-.8932-3.2291-1.6171-7.2125-1.6171-3.98328 0-7.21265.7239-7.21265 1.6171 0 .7865 2.504 1.4417 5.82205 1.5869v5.7593h2.7293v-5.757c3.3437-.1406 5.8738-.7987 5.8738-1.5892z"/></g></svg>