<svg fill="none" height="32" viewBox="0 0 44 32" width="44" xmlns="http://www.w3.org/2000/svg" xmlns:xlink="http://www.w3.org/1999/xlink"><linearGradient id="a" gradientUnits="userSpaceOnUse" x1="30.3636" x2=".818183" y1="12.5" y2="12.5"><stop offset="0" stop-color="#495369"/><stop offset="1" stop-color="#383f4f"/></linearGradient><clipPath id="b"><path d="m16 11h26v16.5455h-26z"/></clipPath><path d="m3.60138 6c-.88692 0-1.60138.62873-1.60138 1.40636v13.73274c0 .7776.71446 1.4064 1.60138 1.4064h22.69032c.9444 0 1.7164-.6288 1.7164-1.4064v-13.73274c0-.77763-.7638-1.40636-1.7164-1.40636z" fill="url(#a)"/><g clip-path="url(#b)"><path d="m17.6014 11c-.8869 0-1.6014.6287-1.6014 1.4064v13.7327c0 .7776.7145 1.4064 1.6014 1.4064h22.6903c.9444 0 1.7164-.6288 1.7164-1.4064v-13.7327c0-.7777-.7638-1.4064-1.7164-1.4064z" fill="#1556b8"/><path d="m25.9614 21.9861.9526-5.6089h1.5193l-.9526 5.6006c0 .0083-1.5193.0083-1.5193.0083zm6.9968-5.4848c-.3038-.1158-.7719-.2317-1.355-.2317-1.4946 0-2.554.7611-2.5622 1.8531-.0082.8025.7555 1.2575 1.3304 1.5222.5913.273.7884.4467.7884.6949 0 .3723-.4681.546-.9034.546-.6077 0-.928-.0827-1.4289-.2978l-.1971-.091-.2135 1.2575c.3531.1571 1.0101.2895 1.6917.2978 1.5932 0 2.6279-.7528 2.6361-1.911.0082-.637-.3942-1.1251-1.2729-1.5222-.5338-.2565-.854-.4302-.854-.6949 0-.2317.271-.4798.8704-.4798.4928-.0083.8541.0992 1.1333.2151l.1396.0661zm3.9008-.1241h-1.1743c-.3613 0-.6323.0993-.7966.4633l-2.2501 5.1373h1.5931s.2628-.6866.3203-.8438h1.9381c.0493.1985.1807.8355.1807.8355h1.4042c.0083.0083-1.2154-5.5923-1.2154-5.5923zm-1.8641 3.6234c.1231-.3226.6077-1.5635.6077-1.5635-.0082.0165.1232-.3226.1971-.5377l.0985.4798s.2874 1.3402.3531 1.6214zm-10.3228-3.6234-1.4864 3.822-.156-.7777c-.271-.8934-1.1333-1.8613-2.0942-2.3494l1.3551 4.8974h1.6013l2.3898-5.5923z" fill="#fff"/><path d="m21.806 16.3774h-2.4473l-.0164.1158c1.9052.4633 3.1617 1.5884 3.6791 2.9286l-.5338-2.5729c-.0822-.3474-.3532-.455-.6816-.4715z" fill="#f2ae14"/></g><circle cx="7.31814" cy="18.409" fill="#eb1832" r="1.77273"/><g fill="#686e78"><circle cx="6.13632" cy="8.95468" r=".590909"/><circle cx="8.50009" cy="8.95468" r=".590909"/><circle cx="10.8636" cy="8.95468" r=".590909"/></g><circle cx="9.68191" cy="18.409" fill="#fb931c" r="1.77273"/></svg>