<svg width="18" height="18" viewBox="0 0 18 18" fill="none" xmlns="http://www.w3.org/2000/svg">
<g clip-path="url(#clip0_177_699)">
<path fill-rule="evenodd" clip-rule="evenodd" d="M9.71819 0.833127C9.96799 0.96168 10.125 1.21906 10.125 1.5V4.48912L15.0609 8.01476C15.258 8.15554 15.375 8.38284 15.375 8.62506V15.75H16.5C16.9142 15.75 17.25 16.0858 17.25 16.5C17.25 16.9142 16.9142 17.25 16.5 17.25H14.6344C14.6313 17.25 14.6281 17.2501 14.625 17.2501C14.6218 17.2501 14.6186 17.25 14.6155 17.25H9.37709L9.375 17.25H4.125L4.12291 17.25H1.5C1.08579 17.25 0.75 16.9142 0.75 16.5C0.75 16.0858 1.08579 15.75 1.5 15.75H3.375V5.25C3.375 5.00779 3.49197 4.78049 3.68907 4.6397L8.93907 0.889703C9.16768 0.726409 9.46838 0.704574 9.71819 0.833127ZM4.875 15.75H8.625V4.88615C8.62488 4.87834 8.62488 4.87052 8.625 4.8627V2.95739L4.875 5.63597V15.75ZM10.125 15.75H13.875V9.01102L10.125 6.33247V15.75Z" fill="currentColor"/>
</g>
<defs>
<clipPath id="clip0_177_699">
<rect width="18" height="18" fill="white"/>
</clipPath>
</defs>
</svg>
