<svg width="18" height="19" viewBox="0 0 18 19" fill="none" xmlns="http://www.w3.org/2000/svg">
<path d="M0.75 5C0.75 4.17155 1.42158 3.5 2.25 3.5H7.5C7.91421 3.5 8.25 3.83579 8.25 4.25C8.25 4.66421 7.91421 5 7.5 5H2.25V14.75H15.75V13.8125C15.75 13.3983 16.0858 13.0625 16.5 13.0625C16.9142 13.0625 17.25 13.3983 17.25 13.8125V14.75C17.25 15.5784 16.5784 16.25 15.75 16.25H2.25C1.42158 16.25 0.75 15.5784 0.75 14.75V5Z" fill="currentColor"/>
<path d="M3 9.125C3 8.71079 3.33579 8.375 3.75 8.375H6.75C7.16421 8.375 7.5 8.71079 7.5 9.125C7.5 9.53921 7.16421 9.875 6.75 9.875H3.75C3.33579 9.875 3 9.53921 3 9.125Z" fill="currentColor"/>
<path d="M12.75 12.875C13.1642 12.875 13.5 12.5392 13.5 12.125C13.5 11.7108 13.1642 11.375 12.75 11.375H3.75C3.33579 11.375 3 11.7108 3 12.125C3 12.5392 3.33579 12.875 3.75 12.875H12.75Z" fill="currentColor"/>
<path fill-rule="evenodd" clip-rule="evenodd" d="M9.75 6.5C9.75 4.84315 11.0931 3.5 12.75 3.5C14.4069 3.5 15.75 4.84315 15.75 6.5C15.75 7.29756 15.4388 8.02242 14.9311 8.55977C15.8716 9.0561 16.674 9.85091 17.1676 10.8153C17.3563 11.184 17.2104 11.6359 16.8417 11.8247C16.4729 12.0134 16.021 11.8674 15.8323 11.4987C15.2162 10.2948 13.9431 9.5 12.7499 9.5C12.0723 9.5 11.612 9.59567 11.2528 9.7435C10.8932 9.89149 10.5872 10.111 10.2354 10.4303C9.92868 10.7087 9.45436 10.6858 9.17596 10.3791C8.89756 10.0724 8.92051 9.59807 9.22721 9.31967C9.59457 8.9862 9.98777 8.68179 10.4705 8.45045C10.0213 7.92598 9.75 7.24468 9.75 6.5ZM12.75 5C11.9216 5 11.25 5.67157 11.25 6.5C11.25 7.32843 11.9216 8 12.75 8C13.5784 8 14.25 7.32843 14.25 6.5C14.25 5.67157 13.5784 5 12.75 5Z" fill="currentColor"/>
</svg>
