<svg width="18" height="19" viewBox="0 0 18 19" fill="none" xmlns="http://www.w3.org/2000/svg">
<path fill-rule="evenodd" clip-rule="evenodd" d="M13.9421 2.75H4.5C4.08579 2.75 3.75 3.08579 3.75 3.5V15.5C3.75 15.9142 4.08579 16.25 4.5 16.25H13.9421C14.3564 16.25 14.6921 15.9142 14.6921 15.5V3.5C14.6921 3.08579 14.3564 2.75 13.9421 2.75ZM4.5 1.25C3.25736 1.25 2.25 2.25736 2.25 3.5V15.5C2.25 16.7426 3.25736 17.75 4.5 17.75H13.9421C15.1848 17.75 16.1921 16.7426 16.1921 15.5V3.5C16.1921 2.25736 15.1848 1.25 13.9421 1.25H4.5Z" fill="currentColor"/>
<path fill-rule="evenodd" clip-rule="evenodd" d="M5.92582 11.6489C5.92582 11.2347 6.26161 10.8989 6.67582 10.8989H11.9258C12.34 10.8989 12.6758 11.2347 12.6758 11.6489C12.6758 12.0631 12.34 12.3989 11.9258 12.3989H6.67582C6.26161 12.3989 5.92582 12.0631 5.92582 11.6489Z" fill="currentColor"/>
<path d="M9.83115 4.55523C9.53826 4.26233 9.06338 4.26233 8.77049 4.55523L7.27049 6.05523C6.9776 6.34812 6.9776 6.82299 7.27049 7.11589C7.56338 7.40878 8.03826 7.40878 8.33115 7.11589L8.55082 6.89622V9.007C8.55082 9.32654 8.88661 9.58558 9.30082 9.58558C9.71503 9.58558 10.0508 9.32654 10.0508 9.007V6.89622L10.2705 7.11589C10.5634 7.40878 11.0383 7.40878 11.3311 7.11589C11.624 6.82299 11.624 6.34812 11.3311 6.05523L9.83115 4.55523Z" fill="currentColor"/>
<path fill-rule="evenodd" clip-rule="evenodd" d="M5.92582 13.8989C5.92582 13.4847 6.26161 13.1489 6.67582 13.1489H9.30082C9.71503 13.1489 10.0508 13.4847 10.0508 13.8989C10.0508 14.3131 9.71503 14.6489 9.30082 14.6489H6.67582C6.26161 14.6489 5.92582 14.3131 5.92582 13.8989Z" fill="currentColor"/>
</svg>
