<svg width="16" height="16" viewBox="0 0 16 16" fill="none" xmlns="http://www.w3.org/2000/svg">
<path d="M10.4716 3.52856L8.4716 1.52856C8.34659 1.40358 8.17705 1.33337 8.00027 1.33337C7.8235 1.33337 7.65396 1.40358 7.52894 1.52856L5.52894 3.52856C5.4075 3.6543 5.3403 3.8227 5.34182 3.9975C5.34334 4.1723 5.41345 4.3395 5.53706 4.46311C5.66066 4.58672 5.82787 4.65683 6.00267 4.65835C6.17747 4.65987 6.34587 4.59267 6.4716 4.47123L7.3336 3.60923V11.3332C7.3336 11.51 7.40384 11.6796 7.52887 11.8046C7.65389 11.9297 7.82346 11.9999 8.00027 11.9999C8.17708 11.9999 8.34665 11.9297 8.47168 11.8046C8.5967 11.6796 8.66694 11.51 8.66694 11.3332V3.60923L9.52894 4.47123C9.65467 4.59267 9.82307 4.65987 9.99787 4.65835C10.1727 4.65683 10.3399 4.58672 10.4635 4.46311C10.5871 4.3395 10.6572 4.1723 10.6587 3.9975C10.6602 3.8227 10.593 3.6543 10.4716 3.52856Z" fill="#8C8C8C"/>
<path opacity="0.4" d="M12 6H8.66667V11.3333C8.66667 11.5101 8.59643 11.6797 8.4714 11.8047C8.34638 11.9298 8.17681 12 8 12C7.82319 12 7.65362 11.9298 7.5286 11.8047C7.40357 11.6797 7.33333 11.5101 7.33333 11.3333V6H4C3.46973 6.00053 2.96133 6.21141 2.58637 6.58637C2.21141 6.96133 2.00053 7.46973 2 8V12.6667C2.00053 13.1969 2.21141 13.7053 2.58637 14.0803C2.96133 14.4553 3.46973 14.6661 4 14.6667H12C12.5303 14.6661 13.0387 14.4553 13.4136 14.0803C13.7886 13.7053 13.9995 13.1969 14 12.6667V8C13.9995 7.46973 13.7886 6.96133 13.4136 6.58637C13.0387 6.21141 12.5303 6.00053 12 6Z" fill="#1D1D1D" fill-opacity="0.3"/>
</svg>
