<svg fill="none" height="50" viewBox="0 0 72 50" width="72" xmlns="http://www.w3.org/2000/svg" xmlns:xlink="http://www.w3.org/1999/xlink"><mask id="a" height="40" maskUnits="userSpaceOnUse" width="35" x="2" y="6"><path d="m19.3744 7.17188-16.29242 9.40642c-.68679.3965-.92224 1.2745-.5259 1.961l15.06752 26.0976c.3963.6865 1.2744.9216 1.9612.5251l16.2924-9.4064c.6868-.3966.9222-1.2745.5259-1.961l-15.0675-26.09768c-.3964-.68649-1.2744-.92156-1.9612-.52504z" fill="#fff"/></mask><mask id="b" height="34" maskUnits="userSpaceOnUse" width="22" x="25" y="5"><path d="m45.3288 5.26575h-18.8128c-.793 0-1.4359.6426-1.4359 1.43528v30.13497c0 .7927.6429 1.4353 1.4359 1.4353h18.8128c.7931 0 1.436-.6426 1.436-1.4353v-30.13497c0-.79268-.6429-1.43528-1.436-1.43528z" fill="#fff"/></mask><mask id="c" height="39" maskUnits="userSpaceOnUse" width="36" x="34" y="7"><path d="m68.4803 16.6598-16.2924-9.40644c-.6868-.39652-1.5649-.16145-1.9612.52503l-15.0675 26.09771c-.3964.6865-.1609 1.5644.5259 1.9609l16.2924 9.4065c.6868.3965 1.5648.1614 1.9612-.5251l15.0675-26.0977c.3963-.6865.1609-1.5644-.5259-1.9609z" fill="#fff"/></mask><path d="m19.8126 5.45765-18.43332 10.64255c-.686787.3965-.922238 1.2744-.525895 1.9609l16.334115 28.2916c.3964.6865 1.2744.9215 1.9612.525l18.4334-10.6425c.6868-.3965.9222-1.2745.5259-1.9609l-16.3342-28.29161c-.1992-.34506-.5201-.57607-.8773-.67014-.3534-.09309-.7423-.05211-1.0839.1451z" fill="#66de8c" stroke="#0f1830" stroke-linecap="round" stroke-linejoin="round" stroke-width=".223997"/><g mask="url(#a)" stroke-linecap="round" stroke-linejoin="round" stroke-width=".223997"><path d="m.543767 6.04885-3.864937 2.23142 2.23045 3.86323 3.86493-2.2314z" fill="#c9f67e" stroke="#0f1830"/><path d="m4.40955 3.81716-3.864933 2.23142 2.230443 3.86325 3.86494-2.23142z" fill="#fff" stroke="#000"/><path d="m8.2743 1.58596-3.86494 2.23142 2.23045 3.86325 3.86489-2.23142z" fill="#c9f67e" stroke="#0f1830"/><path d="m2.77387 9.91201-3.86493 2.23139 2.23044 3.8633 3.86493-2.2314z" fill="#fff" stroke="#000"/><path d="m14.3691 3.21755-3.8649 2.23142 2.2305 3.86325 3.8649-2.23142z" fill="#c9f67e" stroke="#0f1830"/><path d="m18.2344.986231-3.865 2.231419 2.2305 3.86325 3.8649-2.23142z" fill="#fff" stroke="#000"/><path d="m6.63971 7.6802-3.86493 2.23142 2.23045 3.86328 3.86493-2.2315z" fill="#c9f67e" stroke="#0f1830"/><path d="m10.5044 5.449-3.86493 2.23142 2.23044 3.86328 3.86489-2.23146z" fill="#fff" stroke="#000"/><path d="m1.14203 16.0052-3.86493 2.2314 2.230445 3.8632 3.864935-2.2314z" fill="#fff" stroke="#000"/><path d="m5.00458 13.7753-3.86493 2.2314 2.23044 3.8633 3.86494-2.2315z" fill="#c9f67e" stroke="#0f1830"/><path d="m16.6003 7.08084-3.8649 2.23142 2.2305 3.86324 3.8649-2.2314z" fill="#fff" stroke="#000"/><path d="m20.4645 4.84963-3.865 2.23142 2.2305 3.86325 3.8649-2.23142z" fill="#c9f67e" stroke="#0f1830"/><path d="m24.3276 2.61929-3.865 2.23142 2.2305 3.86324 3.8649-2.23142z" fill="#fff" stroke="#000"/><path d="m8.86982 11.5436-3.86494 2.2314 2.23045 3.8633 3.86497-2.2315z" fill="#fff" stroke="#000"/><path d="m12.7351 9.3124-3.86498 2.2314 2.23048 3.8633 3.8649-2.2315z" fill="#c9f67e" stroke="#0f1830"/><path d="m3.37159 19.8664-3.864937 2.2314 2.230447 3.8632 3.86493-2.2314z" fill="#c9f67e" stroke="#0f1830"/><path d="m7.23359 17.6367-3.86494 2.2315 2.23045 3.8632 3.86493-2.2314z" fill="#fff" stroke="#000"/><path d="m18.8294 10.942-3.865 2.2315 2.2305 3.8632 3.8649-2.2314z" fill="#c9f67e" stroke="#0f1830"/><path d="m22.6941 8.71084-3.8649 2.23146 2.2304 3.8632 3.8649-2.2314z" fill="#fff" stroke="#000"/><path d="m26.5571 6.48037-3.8649 2.23142 2.2304 3.86321 3.865-2.2314z" fill="#c9f67e" stroke="#0f1830"/><path d="m34.2866 2.01797-3.865 2.23142 2.2305 3.86324 3.8649-2.23142z" fill="#c9f67e" stroke="#0f1830"/><path d="m30.4219 4.24892-3.865 2.23143 2.2305 3.86325 3.8649-2.23143z" fill="#fff" stroke="#000"/><path d="m11.0994 15.4051-3.86496 2.2314 2.23044 3.8632 3.86492-2.2314z" fill="#c9f67e" stroke="#0f1830"/><path d="m14.9641 13.1735-3.8649 2.2314 2.2304 3.8633 3.865-2.2315z" fill="#fff" stroke="#000"/><path d="m5.6023 23.7296-3.86493 2.2315 2.23044 3.8632 3.86494-2.2314z" fill="#fff" stroke="#000"/><path d="m9.46424 21.4998-3.86494 2.2314 2.23045 3.8632 3.86495-2.2314z" fill="#c9f67e" stroke="#0f1830"/><path d="m1.737 25.9612-3.86493 2.2314 2.230446 3.8633 3.864934-2.2314z" fill="#c9f67e" stroke="#0f1830"/><path d="m21.0595 14.8053-3.8649 2.2314 2.2304 3.8633 3.865-2.2314z" fill="#fff" stroke="#000"/><path d="m24.9242 12.5739-3.8649 2.2314 2.2304 3.8632 3.8649-2.2314z" fill="#c9f67e" stroke="#0f1830"/><path d="m28.7873 10.3438-3.8649 2.2314 2.2304 3.8632 3.8649-2.2314z" fill="#fff" stroke="#000"/><path d="m36.5167 5.88101-3.8649 2.23142 2.2304 3.86327 3.865-2.23145z" fill="#fff" stroke="#000"/><path d="m32.6525 8.11221-3.8649 2.23139 2.2304 3.8633 3.865-2.2314z" fill="#c9f67e" stroke="#0f1830"/><path d="m13.3301 19.2681-3.86495 2.2314 2.23045 3.8633 3.8649-2.2315z" fill="#fff" stroke="#000"/><path d="m17.1948 17.0369-3.865 2.2314 2.2305 3.8633 3.8649-2.2315z" fill="#c9f67e" stroke="#0f1830"/><path d="m7.8324 27.5928-3.86493 2.2314 2.23044 3.8633 3.86489-2.2315z" fill="#c9f67e" stroke="#0f1830"/><path d="m11.6944 25.3632-3.86493 2.2314 2.23043 3.8633 3.8649-2.2315z" fill="#fff" stroke="#000"/><path d="m.102422 32.0557-3.864932 2.2314 2.23044 3.8633 3.86494-2.2315z" fill="#c9f67e" stroke="#0f1830"/><path d="m3.96772 29.8242-3.864937 2.2315 2.230447 3.8632 3.86493-2.2314z" fill="#fff" stroke="#000"/><path d="m23.2902 18.6685-3.865 2.2314 2.2305 3.8632 3.8649-2.2314z" fill="#c9f67e" stroke="#0f1830"/><path d="m27.1543 16.4372-3.8649 2.2314 2.2304 3.8632 3.8649-2.2314z" fill="#fff" stroke="#000"/><path d="m31.0179 14.2068-3.8649 2.2314 2.2305 3.8633 3.8649-2.2314z" fill="#c9f67e" stroke="#0f1830"/><path d="m38.7474 9.74441-3.865 2.23139 2.2305 3.8633 3.8649-2.2314z" fill="#c9f67e" stroke="#0f1830"/><path d="m34.8826 11.9754-3.8649 2.2314 2.2304 3.8632 3.865-2.2314z" fill="#fff" stroke="#000"/><path d="m15.5602 23.1314-3.8649 2.2314 2.2304 3.8632 3.8649-2.2314z" fill="#c9f67e" stroke="#0f1830"/><path d="m19.4249 20.8999-3.8649 2.2314 2.2304 3.8633 3.865-2.2314z" fill="#fff" stroke="#000"/><path d="m10.0631 31.4561-3.86498 2.2314 2.23044 3.8632 3.86494-2.2314z" fill="#fff" stroke="#000"/><path d="m13.9251 29.2262-3.865 2.2314 2.2305 3.8633 3.8649-2.2314z" fill="#c9f67e" stroke="#0f1830"/><path d="m2.33313 35.9188-3.86493 2.2315 2.230445 3.8632 3.864935-2.2314z" fill="#fff" stroke="#000"/><path d="m6.19782 33.6876-3.86493 2.2315 2.23044 3.8632 3.86493-2.2314z" fill="#c9f67e" stroke="#0f1830"/><path d="m25.5203 22.5318-3.865 2.2314 2.2305 3.8632 3.8649-2.2314z" fill="#fff" stroke="#000"/><path d="m29.385 20.3003-3.8649 2.2314 2.2304 3.8633 3.865-2.2314z" fill="#c9f67e" stroke="#0f1830"/><path d="m33.2481 18.0698-3.865 2.2315 2.2305 3.8632 3.8649-2.2314z" fill="#fff" stroke="#000"/><path d="m37.1133 15.8384-3.8649 2.2314 2.2305 3.8633 3.8649-2.2315z" fill="#c9f67e" stroke="#0f1830"/><path d="m17.7908 26.9945-3.8649 2.2315 2.2304 3.8632 3.865-2.2314z" fill="#fff" stroke="#000"/><path d="m21.6556 24.7632-3.865 2.2314 2.2305 3.8633 3.8649-2.2314z" fill="#c9f67e" stroke="#0f1830"/><path d="m12.2932 35.3195-3.86492 2.2314 2.23042 3.8632 3.865-2.2314z" fill="#c9f67e" stroke="#0f1830"/><path d="m16.1557 33.0896-3.8649 2.2314 2.2304 3.8633 3.865-2.2314z" fill="#fff" stroke="#000"/><path d="m4.56379 39.7821-3.864937 2.2314 2.230447 3.8633 3.86493-2.2314z" fill="#c9f67e" stroke="#0f1830"/><path d="m8.42847 37.5509-3.86493 2.2314 2.23044 3.8633 3.86492-2.2314z" fill="#fff" stroke="#000"/><path d="m27.751 26.3948-3.865 2.2314 2.2305 3.8633 3.8649-2.2315z" fill="#c9f67e" stroke="#0f1830"/><path d="m31.6157 24.1636-3.865 2.2314 2.2305 3.8633 3.8649-2.2315z" fill="#fff" stroke="#000"/><path d="m35.4788 21.9333-3.865 2.2314 2.2305 3.8632 3.8649-2.2314z" fill="#c9f67e" stroke="#0f1830"/><path d="m39.344 19.7017-3.8649 2.2314 2.2304 3.8633 3.8649-2.2315z" fill="#fff" stroke="#000"/><path d="m20.021 30.8578-3.8649 2.2314 2.2304 3.8633 3.8649-2.2314z" fill="#c9f67e" stroke="#0f1830"/><path d="m23.8862 28.6264-3.8649 2.2314 2.2304 3.8632 3.865-2.2314z" fill="#fff" stroke="#000"/><path d="m14.5222 39.1803-3.8649 2.2314 2.2304 3.8633 3.865-2.2314z" fill="#fff" stroke="#000"/><path d="m18.3848 36.9505-3.865 2.2314 2.2305 3.8632 3.8649-2.2314z" fill="#c9f67e" stroke="#0f1830"/><path d="m6.79279 43.6431-3.86493 2.2314 2.23044 3.8633 3.86493-2.2315z" fill="#fff" stroke="#000"/><path d="m10.6575 41.4118-3.8649 2.2314 2.23045 3.8632 3.86495-2.2314z" fill="#c9f67e" stroke="#0f1830"/><path d="m29.98 30.256-3.8649 2.2314 2.2304 3.8633 3.8649-2.2315z" fill="#fff" stroke="#000"/><path d="m33.8442 28.0248-3.865 2.2314 2.2305 3.8633 3.8649-2.2315z" fill="#c9f67e" stroke="#0f1830"/><path d="m37.7078 25.7941-3.865 2.2314 2.2305 3.8633 3.8649-2.2315z" fill="#fff" stroke="#000"/><path d="m22.2506 34.7188-3.865 2.2314 2.2305 3.8632 3.8649-2.2314z" fill="#fff" stroke="#000"/><path d="m26.1153 32.4875-3.8649 2.2314 2.2304 3.8632 3.8649-2.2314z" fill="#c9f67e" stroke="#0f1830"/><path d="m16.7529 43.0437-3.8649 2.2314 2.2304 3.8633 3.865-2.2314z" fill="#c9f67e" stroke="#0f1830"/><path d="m20.6149 40.8139-3.865 2.2314 2.2305 3.8632 3.8649-2.2314z" fill="#fff" stroke="#000"/><path d="m12.8882 45.2752-3.86495 2.2314 2.23045 3.8632 3.8649-2.2314z" fill="#fff" stroke="#000"/><path d="m32.2107 34.1194-3.8649 2.2314 2.2304 3.8633 3.8649-2.2314z" fill="#c9f67e" stroke="#0f1830"/><path d="m36.0754 31.8878-3.865 2.2315 2.2305 3.8632 3.8649-2.2314z" fill="#fff" stroke="#000"/><path d="m39.9379 29.6575-3.8649 2.2314 2.2304 3.8633 3.865-2.2315z" fill="#c9f67e" stroke="#0f1830"/><path d="m24.4807 38.5821-3.8649 2.2314 2.2304 3.8632 3.865-2.2314z" fill="#c9f67e" stroke="#0f1830"/><path d="m28.3454 36.3509-3.8649 2.2314 2.2304 3.8632 3.8649-2.2314z" fill="#fff" stroke="#000"/><path d="m22.8456 44.6771-3.8649 2.2315 2.2304 3.8632 3.8649-2.2314z" fill="#c9f67e" stroke="#0f1830"/><path d="m34.4414 37.9824-3.865 2.2315 2.2305 3.8632 3.8649-2.2314z" fill="#fff" stroke="#000"/><path d="m38.3055 35.7512-3.8649 2.2315 2.2304 3.8632 3.8649-2.2314z" fill="#c9f67e" stroke="#0f1830"/><path d="m26.7114 42.4451-3.865 2.2314 2.2305 3.8633 3.8649-2.2315z" fill="#fff" stroke="#000"/><path d="m30.5761 40.2139-3.865 2.2314 2.2305 3.8633 3.8649-2.2315z" fill="#c9f67e" stroke="#0f1830"/><path d="m36.6715 41.8457-3.865 2.2314 2.2305 3.8633 3.8649-2.2314z" fill="#c9f67e" stroke="#0f1830"/><g fill="#fff" stroke="#000"><path d="m40.5362 39.6145-3.8649 2.2314 2.2304 3.8633 3.8649-2.2314z"/><path d="m32.8062 44.0773-3.8649 2.2314 2.2304 3.8633 3.865-2.2315z"/></g></g><path d="m13.1421 15.1895c-.9615.5551-1.8042 1.2941-2.4802 2.1747-.67589.8806-1.17176 1.8856-1.45926 2.9577-.28751 1.072-.36104 2.1901-.21636 3.2904.14469 1.1003.50473 2.1613 1.05962 3.1223l4.2257 7.3192c1.1205 1.9409 2.9666 3.3569 5.132 3.9366s4.4727.2756 6.4144-.8455c1.9418-1.121 3.3588-2.9672 3.9395-5.1323.5806-2.1651.2773-4.4719-.8433-6.4128l-4.2257-7.3191c-.5548-.961-1.2936-1.8033-2.1742-2.4788-.8805-.6754-1.8856-1.1708-2.9578-1.4579-1.0721-.287-2.1904-.3601-3.291-.215s-2.162.5054-3.1234 1.0605z" fill="#66de8c"/><path d="m19.951 22.7194c-.5978-1.0353-1.909-1.3994-2.9259-.8123s-1.3571 1.9049-.7696 2.9407l-2.466 1.4238c-1.3992-2.4235-.599-5.5088 1.7774-6.8808 2.3802-1.3742 5.4506-.5184 6.8476 1.9012 1.1473 1.9871.819 4.4137-.6477 5.9851l.9321 1.6144-2.4661 1.4238-2.2763-3.9428 1.2351-.713c1.0168-.5871 1.3571-1.9047.7594-2.9401z" fill="#fff"/><path d="m23.4102 32.9338-1.2348.7129-1.3285-2.2288 2.4813-1.4694 1.3011 2.2446z" fill="#fff"/><g stroke-linecap="round" stroke-linejoin="round" stroke-width=".223997"><path d="m19.3738 7.17212-16.29237 9.40648c-.68679.3965-.92224 1.2744-.5259 1.9609l15.06747 26.0977c.3964.6865 1.2744.9215 1.9612.525l16.2924-9.4064c.6868-.3965.9223-1.2745.5259-1.961l-15.0675-26.09764c-.3963-.68649-1.2744-.92155-1.9612-.52504z" stroke="#0f1830"/><path d="m13.1421 15.1895c-.9615.5551-1.8042 1.2941-2.4802 2.1747-.67589.8806-1.17176 1.8856-1.45926 2.9577-.28751 1.072-.36104 2.1901-.21636 3.2904.14469 1.1003.50473 2.1613 1.05962 3.1223l4.2257 7.3192c1.1205 1.9409 2.9666 3.3569 5.132 3.9366s4.4727.2756 6.4144-.8455c1.9418-1.121 3.3588-2.9672 3.9395-5.1323.5806-2.1651.2773-4.4719-.8433-6.4128l-4.2257-7.3191c-.5548-.961-1.2936-1.8033-2.1742-2.4788-.8805-.6754-1.8856-1.1708-2.9578-1.4579-1.0721-.287-2.1904-.3601-3.291-.215s-2.162.5054-3.1234 1.0605z" stroke="#0f1830"/><path d="m46.5651 4h-21.285c-.793 0-1.4359.6426-1.4359 1.43529v32.66831c0 .7927.6429 1.4353 1.4359 1.4353h21.285c.793 0 1.4359-.6426 1.4359-1.4353v-32.66831c0-.39844-.1624-.75896-.4247-1.01901-.2595-.25732-.6168-.41628-1.0112-.41628z" fill="#66de8c" stroke="#0f1830"/><g mask="url(#b)"><path d="m25.1232 3.79968h-4.4629v4.46089h4.4629z" fill="#fff" stroke="#000"/><path d="m29.5829 3.79968h-4.4628v4.46089h4.4628z" fill="#c9f67e" stroke="#0f1830"/><path d="m42.9718 3.79968h-4.4628v4.46089h4.4628z" fill="#fff" stroke="#000"/><path d="m47.4348 3.79968h-4.4628v4.46089h4.4628z" fill="#c9f67e" stroke="#0f1830"/><path d="m34.0464 3.79968h-4.4628v4.46089h4.4628z" fill="#fff" stroke="#000"/><path d="m38.5089 3.79968h-4.4629v4.46089h4.4629z" fill="#c9f67e" stroke="#0f1830"/><path d="m25.1226 8.25806h-4.4628v4.46084h4.4628z" fill="#c9f67e" stroke="#0f1830"/><path d="m29.5823 8.2583h-4.4628v4.4609h4.4628z" fill="#fff" stroke="#000"/><path d="m42.9718 8.2583h-4.4628v4.4609h4.4628z" fill="#c9f67e" stroke="#0f1830"/><path d="m47.4343 8.2583h-4.4629v4.4609h4.4629z" fill="#fff" stroke="#000"/><path d="m34.0464 8.2583h-4.4628v4.4609h4.4628z" fill="#c9f67e" stroke="#0f1830"/><path d="m38.5089 8.2583h-4.4629v4.4609h4.4629z" fill="#fff" stroke="#000"/><path d="m25.1232 12.7191h-4.4629v4.4609h4.4629z" fill="#fff" stroke="#000"/><path d="m29.5829 12.7191h-4.4628v4.4609h4.4628z" fill="#c9f67e" stroke="#0f1830"/><path d="m42.9718 12.7191h-4.4628v4.4609h4.4628z" fill="#fff" stroke="#000"/><path d="m47.4343 12.7191h-4.4629v4.4609h4.4629z" fill="#c9f67e" stroke="#0f1830"/><path d="m34.0464 12.7194h-4.4628v4.4609h4.4628z" fill="#fff" stroke="#000"/><path d="m38.5094 12.7191h-4.4628v4.4609h4.4628z" fill="#c9f67e" stroke="#0f1830"/><path d="m25.1232 17.1799h-4.4629v4.4609h4.4629z" fill="#c9f67e" stroke="#0f1830"/><path d="m29.5829 17.1799h-4.4628v4.4609h4.4628z" fill="#fff" stroke="#000"/><path d="m42.9718 17.1799h-4.4628v4.4609h4.4628z" fill="#c9f67e" stroke="#0f1830"/><path d="m47.4343 17.1797h-4.4629v4.4609h4.4629z" fill="#fff" stroke="#000"/><path d="m34.0464 17.1802h-4.4628v4.4609h4.4628z" fill="#c9f67e" stroke="#0f1830"/><path d="m38.5089 17.1799h-4.4629v4.4609h4.4629z" fill="#fff" stroke="#000"/><path d="m25.1232 21.641h-4.4629v4.4609h4.4629z" fill="#fff" stroke="#000"/><path d="m29.5823 21.6407h-4.4628v4.4609h4.4628z" fill="#c9f67e" stroke="#0f1830"/><path d="m42.9718 21.6407h-4.4628v4.4609h4.4628z" fill="#fff" stroke="#000"/><path d="m47.4343 21.6407h-4.4629v4.4609h4.4629z" fill="#c9f67e" stroke="#0f1830"/><path d="m34.0464 21.6407h-4.4628v4.4609h4.4628z" fill="#fff" stroke="#000"/><path d="m38.5089 21.6407h-4.4629v4.4609h4.4629z" fill="#c9f67e" stroke="#0f1830"/><path d="m25.1232 26.1018h-4.4629v4.4609h4.4629z" fill="#c9f67e" stroke="#0f1830"/><path d="m29.5829 26.1018h-4.4628v4.4609h4.4628z" fill="#fff" stroke="#000"/><path d="m42.9718 26.1018h-4.4628v4.4609h4.4628z" fill="#c9f67e" stroke="#0f1830"/><path d="m47.4348 26.1018h-4.4628v4.4609h4.4628z" fill="#fff" stroke="#000"/><path d="m34.0464 26.1016h-4.4628v4.4609h4.4628z" fill="#c9f67e" stroke="#0f1830"/><path d="m38.5089 26.1018h-4.4629v4.4609h4.4629z" fill="#fff" stroke="#000"/><path d="m25.1232 30.5598h-4.4629v4.4609h4.4629z" fill="#fff" stroke="#000"/><path d="m29.5829 30.5598h-4.4628v4.4609h4.4628z" fill="#c9f67e" stroke="#0f1830"/><path d="m42.9718 30.5598h-4.4628v4.4609h4.4628z" fill="#fff" stroke="#000"/><path d="m47.4343 30.5598h-4.4629v4.4609h4.4629z" fill="#c9f67e" stroke="#0f1830"/><path d="m34.0464 30.5601h-4.4628v4.4608h4.4628z" fill="#fff" stroke="#000"/><path d="m38.5089 30.5601h-4.4629v4.4608h4.4629z" fill="#c9f67e" stroke="#0f1830"/><path d="m25.1226 35.0206h-4.4628v4.4609h4.4628z" fill="#c9f67e" stroke="#0f1830"/><path d="m29.5823 35.0209h-4.4628v4.4609h4.4628z" fill="#fff" stroke="#000"/><path d="m42.9718 35.0209h-4.4628v4.4609h4.4628z" fill="#c9f67e" stroke="#0f1830"/><path d="m47.4343 35.0209h-4.4629v4.4609h4.4629z" fill="#fff" stroke="#000"/><path d="m34.0464 35.0209h-4.4628v4.4609h4.4628z" fill="#c9f67e" stroke="#0f1830"/><path d="m38.5089 35.0209h-4.4629v4.4609h4.4629z" fill="#fff" stroke="#000"/></g></g><path d="m35.9222 9.09265c-1.1102 0-2.2096.21858-3.2352.64324-1.0257.42471-1.9577 1.04711-2.7427 1.83181-.785.7846-1.4077 1.7162-1.8326 2.7414-.4248 1.0253-.6435 2.1241-.6435 3.2338v8.4514c0 2.2412.8907 4.3905 2.4761 5.9753 1.5854 1.5847 3.7357 2.475 5.9779 2.475 2.2421 0 4.3924-.8903 5.9778-2.475 1.5854-1.5848 2.4761-3.7341 2.4761-5.9753v-8.4514c0-1.1097-.2187-2.2085-.6435-3.2338-.4249-1.0252-1.0476-1.9568-1.8326-2.7414-.785-.7847-1.717-1.4071-2.7427-1.83181-1.0256-.42466-2.125-.64324-3.2351-.64324z" fill="#66de8c"/><path d="m38.054 19.0185c0-1.1955-.9535-2.1664-2.1277-2.1664s-2.1277.9711-2.1368 2.1619h-2.8475c0-2.7984 2.2356-5.0703 4.9796-5.0703 2.7484 0 4.9796 2.2764 4.9796 5.0703 0 2.2946-1.4976 4.2319-3.5535 4.8594v1.8642h-2.8475v-4.5527h1.4261c1.1742 0 2.1277-.9709 2.1277-2.1664z" fill="#fff"/><path d="m35.9426 29.594h-1.4258l-.0361-2.5945 2.8836-.0319.0044 2.5944z" fill="#fff"/><path d="m45.3277 5.26575h-18.8128c-.793 0-1.4359.6426-1.4359 1.43528v30.13497c0 .7927.6429 1.4353 1.4359 1.4353h18.8128c.7931 0 1.436-.6426 1.436-1.4353v-30.13497c0-.79268-.6429-1.43528-1.436-1.43528z" stroke="#0f1830" stroke-linecap="round" stroke-linejoin="round" stroke-width=".223997"/><path d="m35.9222 9.09265c-1.1102 0-2.2096.21858-3.2352.64324-1.0257.42471-1.9577 1.04711-2.7427 1.83181-.785.7846-1.4077 1.7162-1.8326 2.7414-.4248 1.0253-.6435 2.1241-.6435 3.2338v8.4514c0 2.2412.8907 4.3905 2.4761 5.9753 1.5854 1.5847 3.7357 2.475 5.9779 2.475 2.2421 0 4.3924-.8903 5.9778-2.475 1.5854-1.5848 2.4761-3.7341 2.4761-5.9753v-8.4514c0-1.1097-.2187-2.2085-.6435-3.2338-.4249-1.0252-1.0476-1.9568-1.8326-2.7414-.785-.7847-1.717-1.4071-2.7427-1.83181-1.0256-.42466-2.125-.64324-3.2351-.64324z" stroke="#0f1830" stroke-linecap="round" stroke-linejoin="round" stroke-width=".223997"/><path d="m70.1837 16.1818-18.4333-10.64255c-.6868-.39652-1.5649-.16145-1.9612.52503l-16.3342 28.29162c-.3963.6864-.1608 1.5644.5259 1.9609l18.4334 10.6425c.6868.3965 1.5648.1615 1.9612-.525l16.3341-28.2916c.1993-.345.2389-.7385.1417-1.0948-.096-.3526-.326-.6689-.6676-.8661z" fill="#66de8c" stroke="#0f1830" stroke-linecap="round" stroke-linejoin="round" stroke-width=".223997"/><g mask="url(#c)" stroke-linecap="round" stroke-linejoin="round" stroke-width=".223997"><path d="m71.6327 6.48508-3.8649-2.23142-2.2305 3.86325 3.8649 2.23139z" fill="#fff" stroke="#000"/><path d="m67.768 4.25352-3.8649-2.23143-2.2305 3.86325 3.865 2.23142z" fill="#c9f67e" stroke="#0f1830"/><path d="m57.8068 3.65342-3.8649-2.23142-2.2305 3.86324 3.865 2.23142z" fill="#fff" stroke="#000"/><path d="m69.4026 10.3481-3.8649-2.2314-2.2305 3.8632 3.8649 2.2315z" fill="#c9f67e" stroke="#0f1830"/><path d="m73.2673 12.5799-3.865-2.2314-2.2304 3.8633 3.8649 2.2314z" fill="#fff" stroke="#000"/><path d="m61.6726 5.88535-3.8649-2.23142-2.2305 3.86325 3.865 2.23142z" fill="#c9f67e" stroke="#0f1830"/><path d="m65.5373 8.11667-3.8649-2.23142-2.2305 3.86325 3.865 2.2314z" fill="#fff" stroke="#000"/><path d="m51.7142 5.28708-3.865-2.23142-2.2304 3.86325 3.8649 2.23142z" fill="#fff" stroke="#000"/><path d="m55.5767 7.51694-3.865-2.23142-2.2304 3.86325 3.8649 2.23143z" fill="#c9f67e" stroke="#0f1830"/><path d="m47.8494 3.05564-3.8649-2.231421-2.2304 3.863241 3.8649 2.23142z" fill="#c9f67e" stroke="#0f1830"/><path d="m67.1719 14.2118-3.8649-2.2315-2.2304 3.8633 3.8649 2.2314z" fill="#fff" stroke="#000"/><path d="m71.0366 16.443-3.8649-2.2315-2.2305 3.8633 3.865 2.2314z" fill="#c9f67e" stroke="#0f1830"/><path d="m74.8997 18.6733-3.8649-2.2314-2.2305 3.8632 3.865 2.2315z" fill="#fff" stroke="#000"/><path d="m59.442 9.74851-3.865-2.23142-2.2304 3.86321 3.8649 2.2315z" fill="#fff" stroke="#000"/><path d="m63.3072 11.9802-3.8649-2.23142-2.2305 3.86322 3.8649 2.2314z" fill="#c9f67e" stroke="#0f1830"/><path d="m49.4851 9.14805-3.8649-2.23142-2.2305 3.86327 3.865 2.2314z" fill="#c9f67e" stroke="#0f1830"/><path d="m53.3471 11.3779-3.8649-2.23142-2.2305 3.86322 3.865 2.2314z" fill="#fff" stroke="#000"/><path d="m41.7551 4.68528-3.8649-2.23142-2.2304 3.86324 3.8649 2.23142z" fill="#c9f67e" stroke="#0f1830"/><path d="m45.6199 6.91648-3.865-2.23142-2.2304 3.86324 3.8649 2.2314z" fill="#fff" stroke="#000"/><path d="m64.9429 18.0726-3.865-2.2314-2.2304 3.8632 3.8649 2.2315z" fill="#c9f67e" stroke="#0f1830"/><path d="m68.8076 20.3042-3.8649-2.2314-2.2305 3.8632 3.865 2.2314z" fill="#fff" stroke="#000"/><path d="m72.6707 22.5345-3.865-2.2314-2.2304 3.8632 3.8649 2.2315z" fill="#c9f67e" stroke="#0f1830"/><path d="m57.2129 13.61-3.8649-2.2315-2.2305 3.8633 3.865 2.2314z" fill="#c9f67e" stroke="#0f1830"/><path d="m61.0776 15.8412-3.8649-2.2315-2.2304 3.8633 3.8649 2.2314z" fill="#fff" stroke="#000"/><path d="m47.255 13.0117-3.8649-2.2314-2.2305 3.8632 3.865 2.2314z" fill="#fff" stroke="#000"/><path d="m51.1169 15.2414-3.8649-2.2314-2.2304 3.8633 3.8649 2.2314z" fill="#c9f67e" stroke="#0f1830"/><path d="m39.525 8.54893-3.8649-2.23143-2.2305 3.8632 3.865 2.2315z" fill="#fff" stroke="#000"/><path d="m43.3897 10.7801-3.8649-2.23139-2.2305 3.86329 3.865 2.2314z" fill="#c9f67e" stroke="#0f1830"/><path d="m62.7122 21.936-3.8649-2.2314-2.2305 3.8632 3.865 2.2315z" fill="#fff" stroke="#000"/><path d="m66.5769 24.1672-3.8649-2.2314-2.2305 3.8632 3.865 2.2315z" fill="#c9f67e" stroke="#0f1830"/><path d="m70.44 26.3976-3.8649-2.2315-2.2305 3.8633 3.865 2.2314z" fill="#fff" stroke="#000"/><path d="m74.3052 28.6291-3.8649-2.2314-2.2304 3.8632 3.8649 2.2315z" fill="#c9f67e" stroke="#0f1830"/><path d="m54.9828 17.4735-3.8649-2.2314-2.2305 3.8632 3.8649 2.2314z" fill="#fff" stroke="#000"/><path d="m58.8475 19.7047-3.865-2.2314-2.2304 3.8632 3.8649 2.2314z" fill="#c9f67e" stroke="#0f1830"/><path d="m45.0243 16.8747-3.8649-2.2314-2.2305 3.8633 3.865 2.2314z" fill="#c9f67e" stroke="#0f1830"/><path d="m48.8863 19.1046-3.8649-2.2314-2.2305 3.8632 3.865 2.2314z" fill="#fff" stroke="#000"/><path d="m37.2944 12.4117-3.865-2.2314-2.2304 3.8632 3.8649 2.2315z" fill="#c9f67e" stroke="#0f1830"/><path d="m41.1596 14.6435-3.8649-2.2314-2.2305 3.8633 3.865 2.2314z" fill="#fff" stroke="#000"/><path d="m60.4821 25.7993-3.865-2.2314-2.2304 3.8632 3.8649 2.2314z" fill="#c9f67e" stroke="#0f1830"/><path d="m64.3463 28.03-3.865-2.2314-2.2304 3.8632 3.8649 2.2315z" fill="#fff" stroke="#000"/><path d="m68.2098 30.2607-3.8649-2.2314-2.2304 3.8632 3.8649 2.2315z" fill="#c9f67e" stroke="#0f1830"/><path d="m72.0746 32.4922-3.8649-2.2315-2.2305 3.8633 3.8649 2.2314z" fill="#fff" stroke="#000"/><path d="m52.7521 21.3366-3.865-2.2314-2.2304 3.8633 3.8649 2.2314z" fill="#c9f67e" stroke="#0f1830"/><path d="m56.6168 23.5678-3.8649-2.2314-2.2305 3.8633 3.865 2.2314z" fill="#fff" stroke="#000"/><path d="m42.7942 20.738-3.8649-2.2314-2.2305 3.8632 3.8649 2.2315z" fill="#fff" stroke="#000"/><path d="m46.6562 22.9676-3.8649-2.2314-2.2305 3.8632 3.8649 2.2315z" fill="#c9f67e" stroke="#0f1830"/><path d="m35.0642 16.2754-3.8649-2.2315-2.2305 3.8633 3.865 2.2314z" fill="#fff" stroke="#000"/><path d="m38.929 18.5066-3.865-2.2315-2.2304 3.8633 3.8649 2.2314z" fill="#c9f67e" stroke="#0f1830"/><path d="m58.2514 29.6623-3.8649-2.2314-2.2305 3.8633 3.865 2.2314z" fill="#fff" stroke="#000"/><path d="m62.1161 31.8937-3.8649-2.2315-2.2305 3.8633 3.8649 2.2314z" fill="#c9f67e" stroke="#0f1830"/><path d="m65.9792 34.124-3.8649-2.2314-2.2305 3.8632 3.8649 2.2314z" fill="#fff" stroke="#000"/><path d="m73.7086 38.5868-3.8649-2.2315-2.2305 3.8633 3.865 2.2314z" fill="#fff" stroke="#000"/><path d="m69.8445 36.3554-3.8649-2.2314-2.2305 3.8633 3.8649 2.2314z" fill="#c9f67e" stroke="#0f1830"/><path d="m50.522 25.1997-3.865-2.2314-2.2304 3.8632 3.8649 2.2314z" fill="#fff" stroke="#000"/><path d="m54.3862 27.4309-3.865-2.2314-2.2304 3.8632 3.8649 2.2314z" fill="#c9f67e" stroke="#0f1830"/><path d="m40.5635 24.6012-3.8649-2.2314-2.2304 3.8632 3.8649 2.2314z" fill="#c9f67e" stroke="#0f1830"/><path d="m44.4255 26.831-3.865-2.2314-2.2304 3.8633 3.8649 2.2314z" fill="#fff" stroke="#000"/><path d="m36.6982 22.3696-3.8649-2.2314-2.2304 3.8632 3.8649 2.2315z" fill="#fff" stroke="#000"/><path d="m56.0213 33.5257-3.8649-2.2314-2.2305 3.8633 3.865 2.2314z" fill="#c9f67e" stroke="#0f1830"/><path d="m59.886 35.7569-3.8649-2.2314-2.2305 3.8633 3.8649 2.2314z" fill="#fff" stroke="#000"/><path d="m63.7491 37.9874-3.8649-2.2314-2.2305 3.8632 3.8649 2.2314z" fill="#c9f67e" stroke="#0f1830"/><path d="m71.4785 42.4498-3.8649-2.2314-2.2305 3.8632 3.865 2.2315z" fill="#c9f67e" stroke="#0f1830"/><path d="m67.6138 40.2188-3.865-2.2314-2.2304 3.8633 3.8649 2.2314z" fill="#fff" stroke="#000"/><path d="m48.2913 29.0627-3.8649-2.2314-2.2305 3.8632 3.865 2.2315z" fill="#c9f67e" stroke="#0f1830"/><path d="m52.156 31.2943-3.8649-2.2314-2.2305 3.8632 3.865 2.2314z" fill="#fff" stroke="#000"/><path d="m38.3345 28.462-3.865-2.2314-2.2304 3.8632 3.8649 2.2315z" fill="#fff" stroke="#000"/><path d="m42.1965 30.6919-3.865-2.2315-2.2304 3.8633 3.8649 2.2314z" fill="#c9f67e" stroke="#0f1830"/><path d="m53.7917 37.3863-3.8649-2.2314-2.2305 3.8633 3.8649 2.2314z" fill="#fff" stroke="#000"/><path d="m57.6564 39.6175-3.8649-2.2314-2.2304 3.8633 3.8649 2.2314z" fill="#c9f67e" stroke="#0f1830"/><path d="m61.52 41.8482-3.8649-2.2314-2.2305 3.8633 3.865 2.2314z" fill="#fff" stroke="#000"/><path d="m69.2495 46.3109-3.865-2.2314-2.2304 3.8632 3.8649 2.2314z" fill="#fff" stroke="#000"/><path d="m65.3848 44.0797-3.865-2.2314-2.2304 3.8632 3.8649 2.2314z" fill="#c9f67e" stroke="#0f1830"/><path d="m46.0623 32.9239-3.865-2.2314-2.2304 3.8632 3.8649 2.2315z" fill="#fff" stroke="#000"/><path d="m49.927 35.1551-3.8649-2.2314-2.2305 3.8632 3.865 2.2315z" fill="#c9f67e" stroke="#0f1830"/><path d="m36.1038 32.325-3.8649-2.2314-2.2305 3.8633 3.865 2.2314z" fill="#c9f67e" stroke="#0f1830"/><path d="m39.9658 34.5552-3.8649-2.2315-2.2305 3.8633 3.865 2.2314z" fill="#fff" stroke="#000"/><path d="m51.5616 41.25-3.8649-2.2314-2.2305 3.8632 3.8649 2.2314z" fill="#c9f67e" stroke="#0f1830"/><path d="m55.4263 43.4812-3.865-2.2314-2.2304 3.8632 3.8649 2.2314z" fill="#fff" stroke="#000"/><path d="m59.2894 45.7113-3.865-2.2314-2.2304 3.8632 3.8649 2.2314z" fill="#c9f67e" stroke="#0f1830"/><path d="m43.8316 36.7872-3.8649-2.2314-2.2305 3.8632 3.865 2.2315z" fill="#c9f67e" stroke="#0f1830"/><path d="m47.6963 39.0184-3.8649-2.2314-2.2305 3.8632 3.8649 2.2315z" fill="#fff" stroke="#000"/><path d="m37.7357 38.4186-3.865-2.2315-2.2304 3.8633 3.8649 2.2314z" fill="#c9f67e" stroke="#0f1830"/><path d="m49.3309 45.1133-3.865-2.2315-2.2304 3.8633 3.8649 2.2314z" fill="#fff" stroke="#000"/><path d="m53.1956 47.3442-3.8649-2.2314-2.2305 3.8632 3.865 2.2315z" fill="#c9f67e" stroke="#0f1830"/><path d="m41.6015 40.6506-3.8649-2.2314-2.2305 3.8632 3.865 2.2315z" fill="#fff" stroke="#000"/><path d="m45.4662 42.8818-3.8649-2.2314-2.2305 3.8632 3.8649 2.2315z" fill="#c9f67e" stroke="#0f1830"/><path d="m35.505 42.2816-3.8649-2.2314-2.2305 3.8632 3.865 2.2314z" fill="#fff" stroke="#000"/><path d="m39.3708 44.5136-3.8649-2.2314-2.2305 3.8633 3.8649 2.2314z" fill="#c9f67e" stroke="#0f1830"/><path d="m43.2355 46.7448-3.8649-2.2314-2.2304 3.8633 3.8649 2.2314z" fill="#fff" stroke="#000"/></g><path d="m58.4205 15.2708c-.9615-.5551-2.0228-.9155-3.1234-1.0605-1.1006-.1451-2.2189-.072-3.2911.215-1.0722.2871-2.0773.7824-2.9578 1.4579-.8806.6754-1.6194 1.5177-2.1742 2.4788l-4.2257 7.3191c-1.1206 1.9409-1.4239 4.2476-.8432 6.4128.5806 2.1651 1.9977 4.0112 3.9394 5.1323s4.2491 1.4252 6.4145.8455c2.1653-.5797 4.0114-1.9958 5.1319-3.9367l4.2258-7.3191c.5548-.961.9149-2.022 1.0595-3.1223.1447-1.1003.0712-2.2184-.2163-3.2905-.2875-1.072-.7834-2.077-1.4593-2.9576-.6759-.8807-1.5187-1.6196-2.4801-2.1747z" fill="#66de8c"/><path d="m55.3039 24.9326c.5978-1.0354.2574-2.353-.7594-2.94-1.0169-.5872-2.3283-.2229-2.9315.8038l-2.4661-1.4237c1.3992-2.4235 4.4713-3.2732 6.8477-1.9012 2.3801 1.3742 3.1743 4.4612 1.7773 6.8808-1.1473 1.9871-3.4129 2.9161-5.5071 2.4316l-.9321 1.6144-2.466-1.4237 2.2763-3.9428 1.2351.7131c1.0168.5871 2.3281.223 2.9258-.8123z" fill="#fff"/><path d="m48.1876 33.0355-1.2348-.7129 1.266-2.2649 2.5132 1.4141-1.2933 2.2491z" fill="#fff"/><path d="m68.4792 16.6591-16.2924-9.40648c-.6868-.39651-1.5649-.16144-1.9612.52504l-15.0675 26.09764c-.3964.6865-.1609 1.5645.5259 1.961l16.2924 9.4064c.6868.3965 1.5648.1615 1.9612-.525l15.0675-26.0977c.3963-.6865.1609-1.5644-.5259-1.9609z" stroke="#0f1830" stroke-linecap="round" stroke-linejoin="round" stroke-width=".223997"/><path d="m58.4205 15.2708c-.9615-.5551-2.0228-.9155-3.1234-1.0605-1.1006-.1451-2.2189-.072-3.2911.215-1.0722.2871-2.0773.7824-2.9578 1.4579-.8806.6754-1.6194 1.5177-2.1742 2.4788l-4.2257 7.3191c-1.1206 1.9409-1.4239 4.2476-.8432 6.4128.5806 2.1651 1.9977 4.0112 3.9394 5.1323s4.2491 1.4252 6.4145.8455c2.1653-.5797 4.0114-1.9958 5.1319-3.9367l4.2258-7.3191c.5548-.961.9149-2.022 1.0595-3.1223.1447-1.1003.0712-2.2184-.2163-3.2905-.2875-1.072-.7834-2.077-1.4593-2.9576-.6759-.8807-1.5187-1.6196-2.4801-2.1747z" stroke="#0f1830" stroke-linecap="round" stroke-linejoin="round" stroke-width=".223997"/></svg>