<svg fill="none" height="50" viewBox="0 0 51 50" width="51" xmlns="http://www.w3.org/2000/svg" xmlns:xlink="http://www.w3.org/1999/xlink"><mask id="a" fill="#fff"><path d="m9.04889 11.8585-.12923 27.734c-.00133.4583.27571.926.86545 1.386 2.90169 2.2678 12.23529 3.5177 20.84649 2.7888 6.8632-.5797 11.1962-2.2418 11.2036-4.0407l.1292-27.7327c-.0094 1.7984-4.342 3.4577-11.2036 4.0394-8.6133.7267-17.9448-.521-20.84645-2.7888-.58974-.46-.86679-.9277-.86546-1.386z" fill="#fff"/></mask><path d="m9.04889 11.8585-.12923 27.734c-.00133.4583.27571.926.86545 1.386 2.90169 2.2678 12.23529 3.5177 20.84649 2.7888 6.8632-.5797 11.1962-2.2418 11.2036-4.0407l.1292-27.7327c-.0094 1.7984-4.342 3.4577-11.2036 4.0394-8.6133.7267-17.9448-.521-20.84645-2.7888-.58974-.46-.86679-.9277-.86546-1.386z" fill="#edffb9"/><path d="m41.8144 11.9917v.0013l.3.0017v-.0012zm-32.89474 27.6008-.3-.0013v.0005zm.12923-27.734.3.0009-.59999-.0023zm.73622 29.12.18474-.2364-.00023-.0001zm20.84649 2.7888-.0253-.2989zm-20.71725-30.5228.18475-.2364-.0002-.0001zm20.84645 2.7888.0252.299h.0002zm11.2036-4.0394.3.0013-.6-.0029zm-.1292 27.7327-.3-.0014v.0002zm-32.61555-.1327.12924-27.734-.59999-.0028-.12924 27.7341zm.74997 1.1481c-.5551-.433-.75091-.8228-.74997-1.1486l-.59999-.0017c-.00172.5908.35657 1.1363.98094 1.6234zm20.63668 2.7264c-4.2843.3626-8.7486.2328-12.4992-.2691-1.8753-.2509-3.5669-.5942-4.9654-1.0132-1.4043-.4207-2.4899-.911-3.17185-1.444l-.36948.4728c.76893.6009 1.93813 1.1173 3.36913 1.546 1.4367.4304 3.1607.7792 5.058 1.0331 3.7944.5078 8.3024.6385 12.6294.2723zm-20.87669-29.9875c.76889.6009 1.93799 1.1171 3.36879 1.5457 1.4366.4302 3.1604.7788 5.0575 1.0326 3.7941.5075 8.3021.6382 12.6301.2731l-.0504-.5979c-4.2854.3615-8.7498.2317-12.5001-.2699-1.8752-.2508-3.5666-.5939-4.9649-1.0127-1.4042-.4206-2.4896-.9107-3.1715-1.4437zm-.98072-1.6232c-.00171.5908.35658 1.1363.98094 1.6234l.36907-.4731c-.55515-.433-.75095-.8228-.75001-1.1486zm32.91551.1348-.1292 27.7327.6.0028.1292-27.7328zm-10.8782 4.3398c3.4455-.2922 6.273-.8559 8.2493-1.5808.9867-.3619 1.7777-.7699 2.3283-1.2166.5472-.4439.8976-.961.9006-1.5395l-.6-.0031c-.0016.3207-.1963.6854-.6786 1.0766-.4788.3885-1.2016.7689-2.1569 1.1193-1.9078.6998-4.6774 1.2566-8.0934 1.5462zm10.749 23.3931c-.0013.3207-.1957.6856-.6777 1.0771-.4785.3886-1.2012.7694-2.1565 1.12-1.9078.7003-4.6779 1.2573-8.0947 1.5459l.0505.5979c3.4465-.2911 6.2745-.8551 8.2509-1.5805.9868-.3622 1.7777-.7706 2.3281-1.2176.547-.4442.897-.9617.8994-1.5404z" fill="#1d1d1d" mask="url(#a)"/><path d="m10.3117 11.7521-.1237 26.6983c-.0012.4142.255.8369.8001 1.2527 2.6823 2.0499 11.3099 3.1802 19.2696 2.522 6.344-.5236 10.3491-2.0257 10.3558-3.6516l.1236-26.6973c-.0083 1.6255-4.0131 3.1252-10.3558 3.6506-7.9617.6563-16.5873-.4721-19.2696-2.522-.5451-.4158-.8012-.8385-.8-1.2527z" fill="#fff"/><path d="m10.3187 38.6767.1186-25.4584 29.6434.6092c.1935-.1551.356-.3174.4821-.4863l-.1186 25.4578v.0001c-.0014.3455-.2132.7101-.6727 1.0788-.4576.3672-1.1401.7207-2.0299 1.0434-1.7782.6448-4.3511 1.1549-7.5158 1.4189-3.9693.3318-8.1054.2129-11.5817-.2469-1.7381-.2298-3.3087-.5446-4.6097-.9297-1.3038-.386-2.3251-.8393-2.974-1.3403l-.0001-.0001c-.528-.4069-.7425-.795-.7416-1.1464 0-.0001 0-.0001 0-.0001z" stroke="#121212" stroke-width=".3"/><g stroke="#1d1d1d"><path d="m8.57797 12.4298-.05426 6.5529c-.00137.4714.28359.9524.89017 1.4255 2.98452 2.3325 12.58462 3.6181 21.44162 2.8685 7.0592-.5963 11.516-2.3059 11.5235-4.1561l.0542-6.5433c-.023 1.8465-4.4765 3.549-11.5234 4.1465-8.8593.7474-18.4572-.536-21.44167-2.8685-.60657-.4731-.89153-.9541-.89016-1.4255z" fill="#d3f475" stroke-width=".3"/><path d="m30.9098 16.7237c-8.8571.7497-18.4572-.5359-21.4417-2.8684-2.98452-2.3326 1.7784-4.83203 10.6355-5.58169 8.857-.74966 18.4549.53594 21.4394 2.86849 2.9845 2.3325-1.7784 4.832-10.6332 5.5816z" fill="#d3f475" stroke-width=".3"/><path d="m12.3783 15.4859c-.0004-.3136.1959-.5938.4908-.7004l8.6902-3.1422 4.8338.014-9.729 4.2377c-.2717.1183-.4471.3866-.4467.6829l.0375 26.5089s-1.1152-.1272-2.106-.378c-.7147-.1809-1.7334-.6247-1.7334-.6247z" fill="#49d691" stroke-linejoin="round" stroke-width=".3"/><path d="m38.407 15.5563c-.0006-.3112-.1948-.5891-.4868-.6966l-8.6763-3.1943-4.8339-.014 9.7086 4.2959c.2688.119.4423.385.4428.6789l.0448 26.4665s1.0183-.1083 2.0106-.3533c.7158-.1768 1.8346-.6271 1.8346-.6271z" fill="#49d691" stroke-linejoin="round" stroke-width=".3"/><path d="m25.278 11.5474-.0025.8676 14.4813 1.4786c.3079.0314.5642.2503.6434.5494l2.4025 9.0715 2.4957-1.5584-2.3106-8.7242c-.1535-.5799-.4788-1.0997-.9331-1.4914l-.1391-.12c-.5745-.4953-1.3165-.7524-2.0742-.7188z" fill="#49d691" stroke-linejoin="round" stroke-width=".3"/><path d="m25.5258 11.5479-.0025.8676-14.3312 1.3793c-.3806.0366-.6713.3558-.6725.7381l-.0232 8.0026-2.65443-1.4225-.08443-7.8198c-.0084-.7785.32932-1.5205.92187-2.0254.51613-.4398 1.18249-.6627 1.85939-.622z" fill="#49d691" stroke-linejoin="round" stroke-width=".3"/><path d="m28.2472 7.15806c-1.4128.83081-2.9122 1.67852-3.3452 2.46691l-.0078 2.69193c1.504.0315 2.2598.4926 4.8436.6601 2.7762.18 5.4414-.094 6.2472-.6279 1.6183-1.0721 1.5777-5.6246-.6498-6.96984-1.2838-.77533-4.4627.23496-7.088 1.7788z" fill="#49d691" stroke-linejoin="round" stroke-width=".3"/><path d="m32.7475 9.44446c-2.1866.12228-6.3406 1.15404-6.9876 1.47524l-.0022.7538c1.1289.1014 2.9246.4496 4.6289.4441 2.0335-.0066 2.8677-.0366 4.2834-.4183 1.4158-.3817 1.2892-1.0881 1.2896-1.2167.0009-.3019-.0492-1.21503-3.2121-1.03814z" fill="#121212" stroke-linejoin="round" stroke-width=".167939"/><path d="m22.1407 7.14015c1.408.839 2.9024 1.69539 3.3309 2.48628l-.0078 2.69197c-1.5042.0227-2.2627.4795-4.8474.632-2.7772.1638-5.4407-.1256-6.2435-.6642-1.612-1.0815-1.545-5.63365.6903-6.96594 1.2882-.76787 4.4613.26085 7.0775 1.81989z" fill="#49d691" stroke-linejoin="round" stroke-width=".3"/><path d="m17.6274 9.40052c2.1859.13497 6.3338 1.19088 6.9789 1.51578l-.0022.7537c-1.1295.095-2.9272.4327-4.6314.4173-2.0334-.0184-2.8674-.0532-4.2809-.4431s-1.2829-1.0956-1.2825-1.2242c.0009-.3019.0562-1.21472 3.2181-1.01948z" fill="#121212" stroke-linejoin="round" stroke-width=".167939"/><path d="m22.9303 9.5446c.1002-.87849.845-1.54117 1.7291-1.5386l1.2664.00367c.8841.00257 1.625.66955 1.7201 1.54861l.1254 1.15962c.1113 1.0283-.6959 1.9249-1.7302 1.9219l-1.5239-.0044c-1.0342-.003-1.8362-.9043-1.719-1.9319z" fill="#49d691" stroke-linejoin="round" stroke-width=".3"/></g></svg>