<svg fill="none" height="32" viewBox="0 0 31 32" width="31" xmlns="http://www.w3.org/2000/svg"><g stroke="#0f1830" stroke-linecap="round" stroke-linejoin="round" stroke-width=".5"><path d="m22.543 29.2477c-3.4804 1.8618-7.5579 2.265-11.3356 1.1209-3.77765-1.1441-6.94624-3.7419-8.80881-7.2219-.57173-1.0617-1.00897-2.1904-1.30167-3.3601 2.22316 2.4719 5.21043 4.1278 8.48486 4.7033 3.27442.5755 6.64722.0373 9.58002-1.5285 2.9311-1.568 5.2529-4.072 6.5955-7.1129 1.3425-3.0409 1.6286-6.44375.8125-9.66613.8094.89387 1.506 1.88375 2.0742 2.94735 1.8521 3.47818 2.2499 7.54868 1.1063 11.31958s-3.7353 6.9348-7.2073 8.7984z" fill="#66de8c"/><path d="m19.1615 22.9347c-2.9328 1.5658-6.3056 2.1038-9.58003 1.5283-3.27443-.5754-6.2617-2.2312-8.48486-4.7032-.819653-3.2239-.535401-6.6296.80741-9.673 1.34281-3.04334 3.66672-5.54898 6.60056-7.11674 2.93522-1.56704 6.31072-2.105769 9.58782-1.53032 3.2772.57544 6.2672 2.2319 8.4929 4.70516.8174 3.22567.5303 6.6323-.8154 9.6757s-3.6723 5.5481-6.6084 7.1141z" fill="#8bfcab"/></g></svg>