<svg fill="none" height="42" viewBox="0 0 42 42" width="42" xmlns="http://www.w3.org/2000/svg"><g stroke="#0f1830" stroke-linecap="round" stroke-linejoin="round" stroke-width=".5"><path d="m30.1954 38.6235c-4.7346 2.5307-10.2803 3.0777-15.4181 1.5209-5.13784-1.5568-9.44714-5.0901-11.98077-9.8231-.78012-1.4436-1.37565-2.9796-1.7726-4.5718 3.02974 3.3566 7.09597 5.6025 11.55057 6.3792 4.4545.7768 9.0409.0399 13.028-2.0931 3.9824-2.1378 7.1354-5.5461 8.9572-9.6826 1.8218-4.1364 2.2078-8.7634 1.0965-13.1445 1.1018 1.21559 2.0491 2.56269 2.8203 4.0108 2.5325 4.7328 3.0829 10.2774 1.5301 15.4157-1.5527 5.1384-5.0815 9.4502-9.8112 11.9885z" fill="#9ee705"/><path d="m25.6025 30.0358c-3.987 2.1331-8.5734 2.87-13.028 2.0932-4.45455-.7768-8.52078-3.0226-11.55052-6.3793-1.1158391-4.3826-.732093-9.0127 1.09006-13.1519 1.82215-4.13915 4.97776-7.54895 8.96356-9.68574 3.9894-2.134481 8.5786-2.8710662 13.0356-2.092281 4.4569.778791 8.5245 3.028111 11.5536 6.388961 1.1104 4.38236.7229 9.01016-1.1009 13.14676s-4.979 7.5442-8.9634 9.6803z" fill="#c9f67e"/></g></svg>