<svg fill="none" height="402" viewBox="0 0 375 402" width="375" xmlns="http://www.w3.org/2000/svg" xmlns:xlink="http://www.w3.org/1999/xlink"><linearGradient id="a" gradientUnits="userSpaceOnUse" x1="187.5" x2="187.5" y1="0" y2="402"><stop offset="0" stop-color="#eefffb"/><stop offset=".151042" stop-color="#fff"/><stop offset="1" stop-color="#fff"/></linearGradient><linearGradient id="b" gradientUnits="userSpaceOnUse" x1="187.5" x2="187.5" y1="0" y2="402"><stop offset="0" stop-color="#ebfaf6"/><stop offset=".380208" stop-color="#fff" stop-opacity="0"/></linearGradient><linearGradient id="c" gradientUnits="userSpaceOnUse" x1="188.5" x2="188.5" y1="-3" y2="58"><stop offset="0" stop-color="#dafdf5"/><stop offset=".638085" stop-color="#dafdf5" stop-opacity="0"/></linearGradient><mask id="d" height="402" maskUnits="userSpaceOnUse" width="375" x="0" y="0"><path d="m0 20c0-11.0457 8.95431-20 20-20h335c11.046 0 20 8.95431 20 20v382h-375z" fill="#d9d9d9"/></mask><g mask="url(#d)"><path d="m0 20c0-11.0457 8.95431-20 20-20h335c11.046 0 20 8.95431 20 20v382h-375z" fill="url(#a)"/><path d="m.5 20c0-10.76956 8.73045-19.5 19.5-19.5h335c10.77 0 19.5 8.73045 19.5 19.5v381.5h-374z" stroke="url(#b)"/><g fill="url(#c)"><path d="m54.7774-2.08832h-12.7774v59.17662h12.7774v-20.3057l4.5394-5.8845 14.1224 26.1902h15.0471l-20.7633-34.8098 19.8386-24.36682h-15.1312l-17.653 23.86952z"/><path d="m108.624 34.9592v-37.04752h-12.9458v37.04752c0 8.1223.7565 11.8519 2.9421 15.1672 3.6987 5.4701 9.5827 7.8736 19.2507 7.8736 9.162 0 14.542-1.9891 18.493-6.7962 2.858-3.481 3.699-7.3764 3.699-16.2446v-37.04752h-12.946v37.04752c0 4.2269-.252 6.5476-1.008 8.2881-1.345 3.2323-3.531 4.4755-8.238 4.4755-4.372 0-6.557-1.0774-7.986-3.8125-.925-1.8233-1.261-4.144-1.261-8.9511z"/><path d="m195.43 41.0095-12.105-1.409c-.673 5.553-3.615 8.1223-9.331 8.1223-6.977 0-9.163-3.481-9.163-14.6698v-10.9402c0-11.106 2.186-14.66987 9.079-14.66987 5.38 0 8.07 2.48642 8.742 8.12227l11.853-.8288c-.589-12.01765-7.145-17.57064-20.763-17.57064-8.07 0-13.114 1.82337-17.065 6.13315-3.531 3.89538-4.792 8.70249-4.792 17.81929v12.9294c0 8.4538 1.093 13.0122 3.951 16.8247 3.783 4.9728 9.247 7.1277 17.906 7.1277 8.069 0 13.786-1.8234 17.4-5.553 2.858-2.9837 4.035-6.0503 4.288-11.4375z"/><path d="m204.753 20.538v13.924c0 8.1222 1.176 12.8464 4.119 16.4932 3.95 4.9728 9.583 7.0448 18.577 7.0448 8.575 0 13.702-1.7405 17.737-6.0503 3.699-3.8125 5.044-8.6195 5.044-17.4877v-13.924c0-8.2051-1.177-12.76354-4.119-16.49317-3.951-4.972822-9.583-7.04483-18.662-7.04483-8.49 0-13.618 1.74049-17.653 6.05027-3.698 3.8125-5.043 8.61953-5.043 17.48773zm12.945 12.8465v-11.769c0-10.7745 2.438-14.33833 9.835-14.33833 7.314 0 9.752 3.56383 9.752 14.33833v11.769c0 10.7745-2.438 14.3383-9.836 14.3383-7.313 0-9.751-3.5638-9.751-14.3383z"/><path d="m275.194-2.08832h-12.946v59.17662h12.946z"/><path d="m301.207-2.08832h-12.525v59.17662h12.525v-37.8763l21.268 37.8763h12.525v-59.17662h-12.525v37.87632z"/></g></g></svg>