<svg fill="none" height="21" viewBox="0 0 20 21" width="20" xmlns="http://www.w3.org/2000/svg"><g clip-rule="evenodd" fill="#01bc8d" fill-rule="evenodd"><path d="m3.15453 6.68027c0-2.34494 1.90101-4.24594 4.24595-4.24594 2.34493 0 4.24592 1.901 4.24592 4.24594s-1.90099 4.24593-4.24592 4.24593c-2.34494 0-4.24595-1.90099-4.24595-4.24593zm4.24595-2.57928c-1.42447 0-2.57928 1.15482-2.57928 2.57928s1.15481 2.57928 2.57928 2.57928c1.42446 0 2.57927-1.15482 2.57927-2.57928s-1.15481-2.57928-2.57927-2.57928z"/><path d="m1.44824 17.7316c0-3.3485 2.70522-5.6473 5.92888-5.6473 3.21338 0 5.97558 2.2894 5.97558 5.6473 0 .4603-.3731.8333-.8333.8333s-.8333-.373-.8333-.8333c0-2.2962-1.86817-3.9806-4.30898-3.9806-2.43051 0-4.26221 1.6749-4.26221 3.9806 0 .4603-.3731.8333-.83333.8333-.46024 0-.83334-.373-.83334-.8333z"/><path d="m13.0811 8.83325c0-.46024.3731-.83333.8334-.83333h4.9321c.4603 0 .8334.37309.8334.83333s-.3731.83334-.8334.83334h-4.9321c-.4603 0-.8334-.3731-.8334-.83334z"/><path d="m14.0235 12.1666c0-.4603.3731-.8333.8334-.8333h3.0467c.4603 0 .8334.373.8334.8333 0 .4602-.3731.8333-.8334.8333h-3.0467c-.4603 0-.8334-.3731-.8334-.8333z"/></g></svg>