<svg fill="none" height="51" viewBox="0 0 51 51" width="51" xmlns="http://www.w3.org/2000/svg" xmlns:xlink="http://www.w3.org/1999/xlink"><linearGradient id="a" gradientUnits="userSpaceOnUse" x1="26.4012" x2="21.1561" y1="8.21057" y2="45.8308"><stop offset="0" stop-color="#dbfdf1"/><stop offset="1" stop-color="#91efcd"/></linearGradient><linearGradient id="b" gradientUnits="userSpaceOnUse" x1="22.4774" x2="18.4424" y1="20.8311" y2="34.453"><stop offset="0" stop-color="#000d1d"/><stop offset="1" stop-color="#2f3032"/></linearGradient><mask id="c" height="39" maskUnits="userSpaceOnUse" width="33" x="11" y="6"><path d="m19.451 7.37441-3.8293 1.75909.3248.71024c-4.6547 4.72226-5.683 13.32136-2.0297 21.27756 3.6534 7.9562 10.8519 12.7734 17.4685 12.3133l.3247.7103 3.8293-1.7591c7.4962-3.4437 9.9723-14.0791 5.5274-23.7469-4.4449-9.6679-14.1263-14.71488-21.6225-11.26449z" fill="#ebe9e9"/></mask><mask id="d" height="38" maskUnits="userSpaceOnUse" width="33" x="7" y="8"><path d="m31.4864 44.2738c7.4965-3.4448 9.9716-14.076 5.5283-23.7454-4.4434-9.6695-14.1226-14.71545-21.6191-11.27061-7.49648 3.44481-9.97154 14.07601-5.5282 23.74541 4.4433 9.6694 14.1225 14.7154 21.619 11.2706z" fill="url(#a)"/></mask><g mask="url(#c)"><path d="m19.451 7.37441-3.8293 1.75909.3248.71024c-4.6547 4.72226-5.683 13.32136-2.0297 21.27756 3.6534 7.9562 10.8519 12.7734 17.4685 12.3133l.3247.7103 3.8293-1.7591c7.4962-3.4437 9.9723-14.0791 5.5274-23.7469-4.4449-9.6679-14.1263-14.71488-21.6225-11.26449z" fill="#66de8c"/><path d="m19.2612 38.5836c3.5924 3.3421 7.9697 5.1352 12.1237 4.8511l.3247.7102 3.8293-1.7591c5.0471-2.3205 7.8006-7.8953 7.7194-14.2346l-24.0039 10.4393z" fill="#000" stroke="#000" stroke-miterlimit="10" stroke-width=".372024"/><path d="m42.9806 25.5436-4.2157 1.5499-.6765-2.3197 4.4211-1.6205z" fill="#000"/><path d="m19.4927 7.46528.2362-.10849c7.3916-3.20047 16.8627 1.78803 21.2469 11.32381 4.4324 9.6406 1.9475 20.203-5.4782 23.6143l-3.7383 1.7173-.2831-.6192-.0288-.063-.069.0049c-6.5642.4564-13.7296-4.3259-17.3707-12.2553-3.6411-7.9296-2.6077-16.4808 2.01-21.16566l.0484-.04909-.0287-.06269-.2832-.61946z" stroke="#000" stroke-miterlimit="10" stroke-width=".2"/></g><path d="m31.4871 44.2736c7.4965-3.4449 9.9716-14.0761 5.5283-23.7455-4.4434-9.6694-14.1225-14.7154-21.619-11.27056-7.49655 3.44486-9.97161 14.07606-5.52827 23.74546 4.44337 9.6694 14.12247 14.7154 21.61897 11.2706z" fill="#c9f67e"/><g mask="url(#d)"><path d="m6.88281 4.51123h37.99999l-2 30.49997-35.99999-10z" fill="#fff"/></g><path d="m33.9188 21.9083c3.5613 7.75 1.5619 16.2278-4.3974 18.9663-5.9592 2.7384-13.6946-1.2661-17.2559-9.0161-3.56129-7.7499-1.5619-16.2278 4.3974-18.9662 5.9592-2.7384 13.6946 1.266 17.2559 9.016z" stroke="#61daae" stroke-width=".2"/><path d="m36.9245 20.5699c4.4308 9.6421 1.947 20.2003-5.4791 23.6128-7.4262 3.4125-17.0556-1.5794-21.4864-11.2215-4.43079-9.6421-1.94705-20.2003 5.4791-23.61279 7.4262-3.41252 17.0556 1.57939 21.4864 11.22149z" stroke="#000" stroke-width=".2"/><path clip-rule="evenodd" d="m27.8227 22.4145v3.0086l-3.9325-1.1649v1.9674c3.1845 1.1116 5.5792 2.5475 5.5792 3.4179 0 .8707-2.3947.8875-5.5792.1133v6.3099l-2.8014-.8298v-6.3085c-3.1966-1.113-5.6034-2.5536-5.6034-3.4268 0-.8733 2.4068-.888 5.6034-.1073v-1.9655l-3.9324-1.1649v-3.0089zm-3.9308 6.5888c2.5137.6108 4.3747.6801 4.3747.106l.0003.0001c0-.5744-1.8616-1.6077-4.3771-2.4863v1.8181c-.446-.1044-.9218-.2306-1.4132-.3762-.4839-.1433-.9501-.2961-1.3886-.4523v-1.8249c-2.5258-.6151-4.3992-.6881-4.3992-.1108 0 .5769 1.8731 1.6151 4.3992 2.495l.1663.0579.0022.0006c.1672.0568.3366.1131.5088.1687l.0162.0048.1451.0466.0424.0126.1214.0377.7786.2306.123.0343.0439.013.1557.0426.0071.0021c.1162.0315.2308.0615.3441.0908l.0166.0048.1522.0387.0181.0053z" fill="url(#b)" fill-rule="evenodd"/></svg>