<svg width="183" height="124" viewBox="0 0 183 124" fill="none" xmlns="http://www.w3.org/2000/svg">
<path d="M93.1825 111.052C93.1825 109.96 93.1825 108.919 93.1329 107.976C93.0833 107.033 93.0337 106.14 92.8849 105.347C92.7856 104.503 92.5376 103.759 92.1407 103.015C91.7934 102.271 91.2973 101.626 90.6524 100.931C89.8091 100.038 88.8168 99.3439 87.6262 98.8478C86.5348 98.3517 85.2449 98.1532 83.8063 98.1036C82.3676 98.1036 81.1273 98.3517 79.9367 98.8478C78.8453 99.3439 77.8035 99.9888 76.9105 100.931C76.2656 101.576 75.8191 102.271 75.4222 103.015C75.0749 103.759 74.7773 104.553 74.678 105.347C74.5788 106.19 74.4796 107.083 74.43 107.976C74.3804 108.919 74.3804 109.911 74.3804 111.052C74.3804 112.143 74.3804 113.185 74.43 114.128C74.4796 115.07 74.5292 115.963 74.678 116.757C74.7773 117.6 75.0253 118.344 75.4222 119.089C75.7695 119.833 76.2656 120.478 76.9105 121.172C77.7538 122.065 78.7956 122.76 79.9367 123.256C81.0281 123.752 82.3676 124 83.8063 124C85.2449 124 86.4852 123.752 87.6262 123.256C88.7176 122.76 89.7594 122.115 90.6524 121.172C91.2973 120.527 91.7438 119.833 92.1407 119.089C92.488 118.344 92.7856 117.551 92.8849 116.757C92.9841 115.914 93.0833 115.021 93.1329 114.128C93.1825 113.185 93.1825 112.143 93.1825 111.052ZM88.2215 111.052C88.2215 112.292 88.2215 113.284 88.1719 114.078C88.1223 114.872 88.0727 115.566 87.9735 116.013C87.8743 116.559 87.775 116.906 87.6262 117.303C87.4774 117.65 87.2789 117.948 86.9813 118.146C86.634 118.593 86.1379 118.89 85.6418 119.138C85.0961 119.337 84.5504 119.486 83.8063 119.486C83.1117 119.486 82.4668 119.386 81.9707 119.138C81.3754 118.89 80.9785 118.543 80.6312 118.146C80.4328 117.898 80.1847 117.551 79.9863 117.303C79.8375 116.955 79.6886 116.559 79.639 116.013C79.5398 115.467 79.4902 114.872 79.4902 114.078C79.4406 113.284 79.4406 112.242 79.4406 111.052C79.4406 109.812 79.4406 108.819 79.4902 108.026C79.5398 107.232 79.5894 106.537 79.639 106.091C79.7382 105.545 79.8375 105.198 79.9863 104.801C80.1351 104.503 80.3336 104.156 80.6312 103.958C80.9785 103.511 81.4746 103.213 81.9707 102.965C82.566 102.717 83.1117 102.618 83.8063 102.618C84.5008 102.618 85.1457 102.717 85.6418 102.965C86.1875 103.213 86.634 103.561 86.9813 103.958C87.1797 104.206 87.4278 104.553 87.6262 104.801C87.775 105.148 87.9239 105.545 87.9735 106.091C88.0727 106.637 88.1223 107.232 88.1719 108.026C88.2215 108.869 88.2215 109.812 88.2215 111.052Z" fill="#00B48D"/>
<path d="M132.622 98.8478C132.622 98.6494 132.424 98.4013 132.176 98.4013H128.108C127.909 98.4013 127.661 98.5998 127.661 98.8478V113.929L117.69 98.5501C117.591 98.4509 117.591 98.4509 117.442 98.4509H113.622C113.423 98.4509 113.175 98.6494 113.175 98.8974C113.175 107.083 113.175 115.169 113.175 123.355C113.175 123.554 113.374 123.802 113.622 123.802H117.69C117.888 123.802 118.136 123.653 118.136 123.355V108.174L128.058 123.603C128.157 123.702 128.157 123.702 128.306 123.702H132.126C132.325 123.702 132.573 123.504 132.573 123.256V98.7982H132.622V98.8478Z" fill="#00B48D"/>
<path d="M105.287 98.8478C105.287 98.6494 105.089 98.4013 104.841 98.4013H100.773C100.574 98.4013 100.326 98.5998 100.326 98.8478V123.305C100.326 123.504 100.525 123.752 100.773 123.752H104.841C105.039 123.752 105.287 123.603 105.287 123.305V98.8478Z" fill="#00B48D"/>
<path d="M56.4217 111.052C56.4217 109.812 56.4217 108.819 56.4713 107.976C56.5209 107.182 56.5705 106.488 56.6201 106.041C56.9674 103.858 58.7038 102.569 60.7874 102.569C62.1764 102.569 63.4167 103.114 64.2601 104.255C64.6073 104.801 64.905 105.347 65.0538 106.041C65.0538 106.14 65.1034 106.14 65.153 106.14H69.9652C70.0644 106.14 70.0644 106.091 70.0644 106.041C69.5187 103.065 67.9312 100.386 65.153 99.0462C63.8136 98.4013 62.3749 98.1533 60.7874 98.1533C58.1084 98.1533 55.7768 99.0462 53.9908 100.931C52.949 101.973 52.2048 103.263 51.9072 104.751C51.6591 106.19 51.4607 108.274 51.4607 111.052C51.4607 113.83 51.5599 115.914 51.9072 117.352C52.2048 118.841 52.8994 120.081 53.9908 121.172C55.8264 123.008 58.1084 123.95 60.7874 123.95C62.4245 123.95 63.8632 123.653 65.153 123.057C67.9312 121.718 69.5187 119.039 70.0644 116.062C70.0644 115.963 70.0644 115.963 69.9652 115.963H65.153C65.0538 115.963 65.0538 116.013 65.0538 116.062C64.905 116.757 64.6073 117.352 64.2601 117.848C63.4167 118.989 62.1764 119.535 60.7874 119.535C58.6541 119.535 56.9674 118.196 56.6201 116.062C56.5209 115.517 56.4713 114.921 56.4713 114.128C56.4217 113.284 56.4217 112.242 56.4217 111.052Z" fill="#00B48D"/>
<path d="M5.72027 98.8478C5.72027 98.6494 5.52183 98.4013 5.27378 98.4013H1.20577C1.00733 98.4013 0.759277 98.5501 0.759277 98.8478V123.305C0.759277 123.504 0.957722 123.752 1.20577 123.752H5.27378C5.47222 123.752 5.72027 123.603 5.72027 123.305V116.112L8.99453 112.193L15.6919 123.554C15.7415 123.653 15.7911 123.653 15.9399 123.653H20.9009C21.0993 123.653 21.149 123.554 21.0497 123.305L12.2192 108.423L20.3056 98.7486C20.4544 98.5998 20.4048 98.4013 20.1568 98.4013H14.6997C14.6004 98.4013 14.6004 98.4013 14.5508 98.5005L5.67066 109.117V98.8478H5.72027Z" fill="#00B48D"/>
<path d="M35.4365 119.535C33.1049 119.535 31.0709 117.402 31.0709 114.872V98.8478C31.0709 98.6494 30.8724 98.4013 30.6244 98.4013H26.5564C26.3579 98.4013 26.1099 98.5501 26.1099 98.8478V114.872C26.1099 120.478 30.2771 124 35.4862 124C40.596 124 44.8624 120.478 44.8624 114.872V98.8478C44.8624 98.6494 44.664 98.4013 44.4159 98.4013H40.3479C40.1495 98.4013 39.9014 98.5501 39.9014 98.8478V114.872C39.8022 117.452 37.7186 119.535 35.4365 119.535Z" fill="#00B48D"/>
<path d="M159.065 98.3517H139.617C139.369 98.3517 139.072 98.5997 139.072 98.8974V101.924C139.072 102.172 139.32 102.469 139.617 102.469H146.712V123.305C146.712 123.554 146.96 123.851 147.257 123.851H151.276C151.524 123.851 151.822 123.603 151.822 123.305V102.469H159.164C159.412 102.469 159.709 102.221 159.709 101.924V98.8974C159.511 98.5501 159.263 98.3517 159.065 98.3517Z" fill="#EEAA00"/>
<path d="M182.084 123.206L176.726 112.639C178.462 111.994 179.901 110.804 180.744 109.117C181.29 108.125 181.538 107.133 181.538 105.595C181.538 103.809 181.29 102.569 180.546 101.576C178.561 98.9471 175.386 98.3021 172.211 98.3021H163.381C163.133 98.3021 162.835 98.5502 162.835 98.8478V123.256C162.835 123.504 163.083 123.802 163.381 123.802H167.399C167.647 123.802 167.945 123.554 167.945 123.256V114.277H172.211L176.775 123.454C176.924 123.702 177.023 123.702 177.321 123.702H182.084C182.133 123.702 182.183 123.504 182.084 123.206ZM171.914 109.96H167.895V102.37H171.914C174.196 102.37 175.982 103.759 175.982 106.19C175.982 108.671 174.196 109.96 171.914 109.96Z" fill="#EEAA00"/>
<path fill-rule="evenodd" clip-rule="evenodd" d="M78.5476 38.1748L101.07 60.6977L115.358 46.4101C117.839 43.9296 121.956 43.9296 124.486 46.4101C126.967 48.8906 126.967 53.0082 124.486 55.5383L105.684 74.3405C103.204 76.821 99.0364 76.821 96.556 74.3405L69.4193 47.2038V63.3271C69.4193 66.8494 66.542 69.7764 62.97 69.7764C59.3981 69.7764 56.5208 66.899 56.5208 63.3271V12.8738C56.5208 9.35147 59.3981 6.42448 62.97 6.42448C66.542 6.42448 69.4193 9.30186 69.4193 12.8738V28.997L96.556 1.86037C99.0364 -0.620124 103.154 -0.620124 105.684 1.86037L124.486 20.6625C126.967 23.143 126.967 27.2607 124.486 29.7908C122.006 32.2713 117.888 32.2713 115.358 29.7908L101.07 15.5031L78.5476 38.1748ZM101.07 31.8248C97.5482 31.8248 94.6212 34.7021 94.6212 38.2741C94.6212 41.7964 97.4985 44.7234 101.07 44.7234C104.593 44.7234 107.52 41.846 107.52 38.2741C107.619 34.6525 104.642 31.8248 101.07 31.8248Z" fill="#00B48D"/>
</svg>
