<svg width="104" height="20" viewBox="0 0 104 20" fill="none" xmlns="http://www.w3.org/2000/svg">
<g opacity="0.6" clip-path="url(#clip0_2951_3808)">
<path d="M69.7631 9.99996C69.7631 9.49183 69.7631 9.00403 69.7423 8.55687C69.7215 8.10972 69.6799 7.70322 69.6175 7.31704C69.5551 6.93086 69.4303 6.56501 69.2639 6.21948C69.0975 5.87395 68.8687 5.56907 68.5567 5.26419C68.1407 4.83736 67.6623 4.53248 67.1215 4.30891C66.5807 4.08533 65.9775 3.9837 65.2911 3.96338C64.6047 3.96338 64.0015 4.08533 63.4399 4.30891C62.8991 4.53248 62.4207 4.85769 62.0047 5.26419C61.6927 5.56907 61.4639 5.87395 61.2975 6.21948C61.1311 6.56501 61.0063 6.93086 60.9439 7.31704C60.8815 7.70322 60.8399 8.13005 60.8191 8.55687C60.7983 9.00403 60.7983 9.47151 60.7983 9.99996C60.7983 10.5081 60.7983 10.9959 60.8191 11.4431C60.8399 11.8902 60.8815 12.2967 60.9439 12.6829C61.0063 13.0691 61.1311 13.4349 61.2975 13.7601C61.4639 14.1057 61.6927 14.4105 62.0047 14.7154C62.4207 15.1422 62.9199 15.4471 63.4399 15.6707C63.9807 15.8943 64.6047 16.0162 65.2911 16.0162C65.9775 16.0162 66.5807 15.8943 67.1215 15.6707C67.6623 15.4471 68.1407 15.1219 68.5567 14.7154C68.8687 14.4105 69.0975 14.1057 69.2639 13.7601C69.4303 13.4146 69.5551 13.0487 69.6175 12.6829C69.6799 12.2967 69.7215 11.8699 69.7423 11.4431C69.7631 10.9959 69.7631 10.5081 69.7631 9.99996ZM67.3919 9.99996C67.3919 10.5691 67.3919 11.0365 67.3711 11.4024C67.3503 11.7683 67.3295 12.0935 67.2671 12.317C67.2255 12.5609 67.1631 12.7439 67.0799 12.9065C66.9967 13.0691 66.9135 13.191 66.7887 13.313C66.6223 13.5162 66.3935 13.6585 66.1439 13.7805C65.8943 13.8821 65.6031 13.9431 65.2703 13.9431C64.9375 13.9431 64.6463 13.8821 64.3967 13.7805C64.1263 13.6585 63.9183 13.5162 63.7519 13.313C63.6479 13.191 63.5439 13.0487 63.4607 12.9065C63.3775 12.7439 63.3151 12.5609 63.2735 12.317C63.2319 12.0731 63.1903 11.7683 63.1903 11.4024C63.1695 11.0365 63.1695 10.5487 63.1695 9.99996C63.1695 9.43086 63.1695 8.96338 63.1903 8.59753C63.2111 8.23167 63.2319 7.90647 63.2735 7.68289C63.3151 7.43899 63.3775 7.25606 63.4607 7.09346C63.5439 6.95118 63.6271 6.80891 63.7519 6.68696C63.9183 6.4837 64.1471 6.34143 64.3967 6.21948C64.6671 6.09753 64.9583 6.05687 65.2703 6.05687C65.6031 6.05687 65.8943 6.11785 66.1439 6.21948C66.3935 6.34143 66.6223 6.4837 66.7887 6.68696C66.8927 6.80891 66.9967 6.95118 67.0799 7.09346C67.1631 7.25606 67.2255 7.43899 67.2671 7.68289C67.3087 7.92679 67.3503 8.23167 67.3711 8.59753C67.3919 8.96338 67.3919 9.43086 67.3919 9.99996Z" fill="#8C8C8C" fill-opacity="0.4"/>
<path d="M88.6289 4.26819C88.6289 4.16657 88.5249 4.06494 88.4209 4.06494H86.4657C86.3617 4.06494 86.2577 4.16657 86.2577 4.26819V11.321L81.4944 4.12592C81.4528 4.08527 81.4321 4.06494 81.3697 4.06494H79.5601C79.4561 4.06494 79.3521 4.16657 79.3521 4.26819C79.3521 8.08933 79.3521 11.8901 79.3521 15.7113C79.3521 15.8129 79.4561 15.9145 79.5601 15.9145H81.5152C81.6192 15.9145 81.7232 15.8332 81.7232 15.7113V8.63811L86.4864 15.8536C86.528 15.8942 86.5488 15.9145 86.6112 15.9145H88.4209C88.5249 15.9145 88.6289 15.8129 88.6289 15.7113V4.26819Z" fill="#8C8C8C" fill-opacity="0.4"/>
<path d="M75.5456 4.26819C75.5456 4.16657 75.4416 4.06494 75.3376 4.06494H73.3824C73.2784 4.06494 73.1744 4.16657 73.1744 4.26819V15.7113C73.1744 15.8129 73.2784 15.9145 73.3824 15.9145H75.3376C75.4416 15.9145 75.5456 15.8332 75.5456 15.7113V4.26819Z" fill="#8C8C8C" fill-opacity="0.4"/>
<path d="M52.1664 9.99996C52.1664 9.43086 52.1664 8.96338 52.1872 8.5772C52.208 8.21135 52.2288 7.88614 52.2704 7.66257C52.4576 6.64631 53.248 6.03655 54.2672 6.03655C54.9328 6.03655 55.536 6.28045 55.9312 6.82923C56.0976 7.07313 56.2224 7.33736 56.3056 7.66257C56.3056 7.70322 56.3264 7.70322 56.368 7.70322H58.6768C58.7184 7.70322 58.7184 7.68289 58.7184 7.64224C58.4688 6.26013 57.6992 4.99996 56.368 4.39021C55.744 4.10566 55.0368 3.96338 54.2672 3.96338C52.9776 3.96338 51.8752 4.39021 51.0016 5.26419C50.5024 5.752 50.1488 6.36175 50.024 7.05281C49.8992 7.72354 49.816 8.69915 49.816 9.99996C49.816 11.3008 49.8784 12.2764 50.024 12.9471C50.1696 13.6382 50.5024 14.2276 51.0016 14.7357C51.896 15.6097 52.9776 16.0366 54.2672 16.0366C55.0576 16.0366 55.744 15.8943 56.368 15.6097C57.6992 15 58.4688 13.7398 58.7184 12.3577C58.7184 12.317 58.7184 12.2967 58.6768 12.2967H56.368C56.3264 12.2967 56.3056 12.317 56.3056 12.3374C56.2224 12.6626 56.0976 12.9268 55.9312 13.1707C55.536 13.7195 54.9328 13.9634 54.2672 13.9634C53.248 13.9634 52.4576 13.3536 52.2704 12.3374C52.2288 12.0935 52.1872 11.7886 52.1872 11.4227C52.1664 11.0366 52.1664 10.5691 52.1664 9.99996Z" fill="#8C8C8C" fill-opacity="0.4"/>
<path d="M27.8928 4.26819C27.8928 4.16657 27.7888 4.06494 27.6848 4.06494H25.7296C25.6256 4.06494 25.5216 4.14624 25.5216 4.26819V15.7113C25.5216 15.8129 25.6256 15.9145 25.7296 15.9145H27.6848C27.7888 15.9145 27.8928 15.8332 27.8928 15.7113V12.3576L29.4528 10.5284L32.6768 15.8536C32.6976 15.8942 32.7392 15.9145 32.8016 15.9145H35.1728C35.2768 15.9145 35.2976 15.8536 35.256 15.7519L31.0336 8.78039L34.9024 4.24787C34.9856 4.16657 34.944 4.06494 34.8192 4.06494H32.2192C32.1776 4.06494 32.1568 4.06494 32.136 4.10559L27.8928 9.08527V4.26819Z" fill="#8C8C8C" fill-opacity="0.4"/>
<path d="M42.1199 13.9635C41.0175 13.9635 40.0191 12.9676 40.0191 11.7887V4.2887C40.0191 4.18708 39.9151 4.08545 39.8111 4.08545H37.8559C37.7519 4.08545 37.6479 4.16675 37.6479 4.2887V11.7684C37.6479 14.3903 39.6447 16.0367 42.1199 16.0367C44.5743 16.0367 46.5919 14.37 46.5919 11.7684V4.2887C46.5919 4.18708 46.4879 4.08545 46.3839 4.08545H44.4288C44.3247 4.08545 44.2208 4.16675 44.2208 4.2887V11.7887C44.2208 12.9676 43.2223 13.9635 42.1199 13.9635Z" fill="#8C8C8C" fill-opacity="0.4"/>
<path fill-rule="evenodd" clip-rule="evenodd" d="M5.9072 10L11.96 15.9146L15.7872 12.1748C16.4528 11.5244 17.5552 11.5244 18.2416 12.1748C18.9072 12.8252 18.9072 13.9024 18.2416 14.5732L13.1872 19.5122C12.5216 20.1626 11.3984 20.1626 10.7328 19.5122L3.4528 12.3984V16.626C3.4528 17.561 2.6832 18.313 1.7264 18.313C0.7696 18.313 0 17.561 0 16.626V3.37398C0 2.43902 0.7696 1.68699 1.7264 1.68699C2.6832 1.68699 3.4528 2.43902 3.4528 3.37398V7.60163L10.7328 0.487805C11.3984 -0.162602 12.5008 -0.162602 13.1872 0.487805L18.2416 5.42683C18.9072 6.07724 18.9072 7.15447 18.2416 7.8252C17.576 8.47561 16.4736 8.47561 15.7872 7.8252L11.96 4.08537L5.9072 10ZM11.96 8.31301C11.0032 8.31301 10.2336 9.06504 10.2336 10C10.2336 10.935 11.0032 11.687 11.96 11.687C12.9168 11.687 13.6864 10.935 13.6864 10C13.7072 9.06504 12.9168 8.31301 11.96 8.31301Z" fill="#8C8C8C" fill-opacity="0.4"/>
<path d="M97.3024 3.98364H91.6656C91.5824 3.98364 91.52 4.06494 91.52 4.12592V4.97958C91.52 5.06088 91.6032 5.12185 91.6656 5.12185H93.7248V11.0162C93.7248 11.0975 93.808 11.1584 93.8704 11.1584H95.0352C95.1184 11.1584 95.1808 11.0771 95.1808 11.0162V5.12185H97.3024C97.3856 5.12185 97.448 5.04055 97.448 4.97958V4.12592C97.448 4.04462 97.3648 3.98364 97.3024 3.98364Z" fill="#8C8C8C" fill-opacity="0.4"/>
<path d="M103.979 11.0162L102.419 8.02842C102.918 7.84549 103.334 7.49996 103.584 7.03248C103.73 6.74793 103.813 6.46338 103.813 6.03655C103.813 5.52842 103.73 5.18289 103.522 4.89834C102.939 4.14631 102.024 3.96338 101.109 3.96338H98.5504C98.4672 3.96338 98.4048 4.04468 98.4048 4.10566V11.0162C98.4048 11.0975 98.488 11.1585 98.5504 11.1585H99.7152C99.7984 11.1585 99.8608 11.0772 99.8608 11.0162V8.47557H101.109L102.419 11.0772C102.461 11.1585 102.502 11.1585 102.565 11.1585H103.938C104 11.1585 104.021 11.0975 103.979 11.0162ZM101.026 7.27639H99.8608V5.12192H101.026C101.691 5.12192 102.211 5.50809 102.211 6.19915C102.211 6.89021 101.691 7.27639 101.026 7.27639Z" fill="#8C8C8C" fill-opacity="0.4"/>
</g>
<defs>
<clipPath id="clip0_2951_3808">
<rect width="104" height="20" fill="white"/>
</clipPath>
</defs>
</svg>
