<svg width="125" height="24" viewBox="0 0 125 24" fill="none" xmlns="http://www.w3.org/2000/svg">
<g clip-path="url(#clip0_2981_86)">
<path d="M83.4821 12C83.4821 11.3902 83.4821 10.8049 83.4572 10.2683C83.4324 9.73171 83.3826 9.24391 83.3079 8.78049C83.2332 8.31708 83.0839 7.87805 82.8848 7.46342C82.6857 7.04879 82.4119 6.68293 82.0385 6.31708C81.5407 5.80488 80.9682 5.43903 80.3211 5.17074C79.6739 4.90245 78.9521 4.78049 78.1307 4.7561C77.3093 4.7561 76.5875 4.90245 75.9155 5.17074C75.2683 5.43903 74.6959 5.82927 74.1981 6.31708C73.8247 6.68293 73.5509 7.04879 73.3518 7.46342C73.1527 7.87805 73.0033 8.31708 72.9286 8.78049C72.854 9.24391 72.8042 9.7561 72.7793 10.2683C72.7544 10.8049 72.7544 11.3659 72.7544 12C72.7544 12.6098 72.7544 13.1951 72.7793 13.7317C72.8042 14.2683 72.854 14.7561 72.9286 15.2195C73.0033 15.6829 73.1527 16.122 73.3518 16.5122C73.5509 16.9268 73.8247 17.2927 74.1981 17.6585C74.6959 18.1707 75.2932 18.5366 75.9155 18.8049C76.5626 19.0732 77.3093 19.2195 78.1307 19.2195C78.9521 19.2195 79.6739 19.0732 80.3211 18.8049C80.9682 18.5366 81.5407 18.1463 82.0385 17.6585C82.4119 17.2927 82.6857 16.9268 82.8848 16.5122C83.0839 16.0976 83.2332 15.6585 83.3079 15.2195C83.3826 14.7561 83.4324 14.2439 83.4572 13.7317C83.4821 13.1951 83.4821 12.6098 83.4821 12ZM80.6446 12C80.6446 12.6829 80.6446 13.2439 80.6198 13.6829C80.5949 14.122 80.57 14.5122 80.4953 14.7805C80.4455 15.0732 80.3709 15.2927 80.2713 15.4878C80.1717 15.6829 80.0722 15.8293 79.9228 15.9756C79.7237 16.2195 79.4499 16.3903 79.1512 16.5366C78.8525 16.6585 78.5041 16.7317 78.1058 16.7317C77.7076 16.7317 77.3591 16.6585 77.0604 16.5366C76.7369 16.3903 76.488 16.2195 76.2888 15.9756C76.1644 15.8293 76.0399 15.6585 75.9404 15.4878C75.8408 15.2927 75.7661 15.0732 75.7164 14.7805C75.6666 14.4878 75.6168 14.122 75.6168 13.6829C75.5919 13.2439 75.5919 12.6585 75.5919 12C75.5919 11.3171 75.5919 10.7561 75.6168 10.3171C75.6417 9.87805 75.6666 9.48781 75.7164 9.21952C75.7661 8.92684 75.8408 8.70732 75.9404 8.5122C76.0399 8.34147 76.1395 8.17074 76.2888 8.0244C76.488 7.78049 76.7618 7.60976 77.0604 7.46342C77.384 7.31708 77.7325 7.2683 78.1058 7.2683C78.5041 7.2683 78.8525 7.34147 79.1512 7.46342C79.4499 7.60976 79.7237 7.78049 79.9228 8.0244C80.0473 8.17074 80.1717 8.34147 80.2713 8.5122C80.3709 8.70732 80.4455 8.92684 80.4953 9.21952C80.5451 9.5122 80.5949 9.87805 80.6198 10.3171C80.6446 10.7561 80.6446 11.3171 80.6446 12Z" fill="white"/>
<path d="M106.058 5.12195C106.058 5 105.933 4.87805 105.809 4.87805H103.469C103.345 4.87805 103.22 5 103.22 5.12195V13.5854L97.5203 4.95122C97.4705 4.90244 97.4456 4.87805 97.3709 4.87805H95.2055C95.081 4.87805 94.9566 5 94.9566 5.12195C94.9566 9.70732 94.9566 14.2683 94.9566 18.8537C94.9566 18.9756 95.081 19.0976 95.2055 19.0976H97.5452C97.6696 19.0976 97.7941 19 97.7941 18.8537V10.3659L103.494 19.0244C103.544 19.0732 103.569 19.0976 103.643 19.0976H105.809C105.933 19.0976 106.058 18.9756 106.058 18.8537V5.12195Z" fill="white"/>
<path d="M90.4017 5.12195C90.4017 5 90.2772 4.87805 90.1528 4.87805H87.8131C87.6886 4.87805 87.5642 5 87.5642 5.12195V18.8537C87.5642 18.9756 87.6886 19.0976 87.8131 19.0976H90.1528C90.2772 19.0976 90.4017 19 90.4017 18.8537V5.12195Z" fill="white"/>
<path d="M62.4249 12C62.4249 11.3171 62.4249 10.7561 62.4498 10.2927C62.4747 9.85366 62.4996 9.46342 62.5494 9.19513C62.7734 7.97562 63.7192 7.24391 64.9388 7.24391C65.7353 7.24391 66.4572 7.53659 66.9301 8.19513C67.1292 8.48781 67.2785 8.80488 67.3781 9.19513C67.3781 9.24391 67.403 9.24391 67.4528 9.24391H70.2156C70.2654 9.24391 70.2654 9.21952 70.2654 9.17074C69.9667 7.5122 69.0458 6.00001 67.4528 5.2683C66.7061 4.92684 65.8598 4.7561 64.9388 4.7561C63.3956 4.7561 62.0765 5.2683 61.0311 6.31708C60.4337 6.90245 60.0106 7.63415 59.8612 8.46342C59.7119 9.2683 59.6123 10.439 59.6123 12C59.6123 13.561 59.687 14.7317 59.8612 15.5366C60.0355 16.3659 60.4337 17.0732 61.0311 17.6829C62.1014 18.7317 63.3956 19.2439 64.9388 19.2439C65.8847 19.2439 66.7061 19.0732 67.4528 18.7317C69.0458 18 69.9667 16.4878 70.2654 14.8293C70.2654 14.7805 70.2654 14.7561 70.2156 14.7561H67.4528C67.403 14.7561 67.3781 14.7805 67.3781 14.8049C67.2785 15.1951 67.1292 15.5122 66.9301 15.8049C66.4572 16.4634 65.7353 16.7561 64.9388 16.7561C63.7192 16.7561 62.7734 16.0244 62.5494 14.8049C62.4996 14.5122 62.4498 14.1463 62.4498 13.7073C62.4249 13.2439 62.4249 12.6829 62.4249 12Z" fill="white"/>
<path d="M33.3779 5.12195C33.3779 5 33.2535 4.87805 33.129 4.87805H30.7893C30.6649 4.87805 30.5404 4.97561 30.5404 5.12195V18.8537C30.5404 18.9756 30.6649 19.0976 30.7893 19.0976H33.129C33.2535 19.0976 33.3779 19 33.3779 18.8537V14.8293L35.2447 12.6341L39.1027 19.0244C39.1276 19.0732 39.1774 19.0976 39.252 19.0976H42.0895C42.214 19.0976 42.2389 19.0244 42.1891 18.9024L37.1364 10.5366L41.766 5.09756C41.8655 5 41.8157 4.87805 41.6664 4.87805H38.5551C38.5053 4.87805 38.4804 4.87805 38.4555 4.92683L33.3779 10.9024V5.12195Z" fill="white"/>
<path d="M50.4029 16.7561C49.0837 16.7561 47.889 15.561 47.889 14.1464V5.14635C47.889 5.0244 47.7645 4.90245 47.6401 4.90245H45.3004C45.1759 4.90245 45.0515 5.00001 45.0515 5.14635V14.122C45.0515 17.2683 47.441 19.2439 50.4029 19.2439C53.34 19.2439 55.7543 17.2439 55.7543 14.122V5.14635C55.7543 5.0244 55.6299 4.90245 55.5054 4.90245H53.1657C53.0413 4.90245 52.9168 5.00001 52.9168 5.14635V14.1464C52.9168 15.561 51.7221 16.7561 50.4029 16.7561Z" fill="white"/>
<path fill-rule="evenodd" clip-rule="evenodd" d="M7.06885 12L14.3119 19.0976L18.8918 14.6098C19.6882 13.8293 21.0074 13.8293 21.8288 14.6098C22.6253 15.3902 22.6253 16.6829 21.8288 17.4878L15.7805 23.4146C14.984 24.1951 13.6399 24.1951 12.8434 23.4146L4.13179 14.878V19.9512C4.13179 21.0732 3.21085 21.9756 2.0659 21.9756C0.920942 21.9756 0 21.0732 0 19.9512V4.04878C0 2.92683 0.920942 2.02439 2.0659 2.02439C3.21085 2.02439 4.13179 2.92683 4.13179 4.04878V9.12195L12.8434 0.585366C13.6399 -0.195122 14.9591 -0.195122 15.7805 0.585366L21.8288 6.5122C22.6253 7.29268 22.6253 8.58537 21.8288 9.39024C21.0323 10.1707 19.7131 10.1707 18.8918 9.39024L14.3119 4.90244L7.06885 12ZM14.3119 9.97561C13.167 9.97561 12.246 10.878 12.246 12C12.246 13.122 13.167 14.0244 14.3119 14.0244C15.4569 14.0244 16.3778 13.122 16.3778 12C16.4027 10.878 15.4569 9.97561 14.3119 9.97561Z" fill="white"/>
<path d="M116.437 4.78049H109.692C109.592 4.78049 109.517 4.87805 109.517 4.95122V5.97561C109.517 6.07317 109.617 6.14634 109.692 6.14634H112.156V13.2195C112.156 13.3171 112.255 13.3902 112.33 13.3902H113.724C113.823 13.3902 113.898 13.2927 113.898 13.2195V6.14634H116.437C116.537 6.14634 116.611 6.04878 116.611 5.97561V4.95122C116.611 4.85366 116.512 4.78049 116.437 4.78049Z" fill="#EEAA00"/>
<path d="M124.427 13.2195L122.56 9.63415C123.157 9.41464 123.655 9.00001 123.954 8.43903C124.128 8.09757 124.228 7.7561 124.228 7.24391C124.228 6.63415 124.128 6.21952 123.879 5.87805C123.182 4.97562 122.087 4.7561 120.992 4.7561H117.93C117.831 4.7561 117.756 4.85366 117.756 4.92684V13.2195C117.756 13.3171 117.856 13.3903 117.93 13.3903H119.324C119.424 13.3903 119.498 13.2927 119.498 13.2195V10.1707H120.992L122.56 13.2927C122.61 13.3903 122.66 13.3903 122.734 13.3903H124.377C124.452 13.3903 124.477 13.3171 124.427 13.2195ZM120.892 8.73171H119.498V6.14635H120.892C121.689 6.14635 122.311 6.60976 122.311 7.43903C122.311 8.2683 121.689 8.73171 120.892 8.73171Z" fill="#EEAA00"/>
</g>
<defs>
<clipPath id="clip0_2981_86">
<rect width="124.452" height="24" fill="white"/>
</clipPath>
</defs>
</svg>
