<svg width="34" height="34" viewBox="0 0 34 34" fill="none" xmlns="http://www.w3.org/2000/svg">
<g clip-path="url(#clip0_15460_25999)">
<path fill-rule="evenodd" clip-rule="evenodd" d="M17 2C8.71573 2 2 8.71573 2 17C2 25.2843 8.71573 32 17 32C25.2843 32 32 25.2843 32 17C32 8.71573 25.2843 2 17 2ZM0 17C0 7.61116 7.61116 0 17 0C26.3888 0 34 7.61116 34 17C34 26.3888 26.3888 34 17 34C7.61116 34 0 26.3888 0 17Z" fill="#F3F3F3" fill-opacity="0.08"/>
<path fill-rule="evenodd" clip-rule="evenodd" d="M16.7071 11.2929C17.0976 11.6834 17.0976 12.3166 16.7071 12.7071L13.4142 16H23C23.5523 16 24 16.4477 24 17C24 17.5523 23.5523 18 23 18H13.4142L16.7071 21.2929C17.0976 21.6834 17.0976 22.3166 16.7071 22.7071C16.3166 23.0976 15.6834 23.0976 15.2929 22.7071L10.2933 17.7075L10.2908 17.705C10.196 17.6096 10.1243 17.4999 10.0759 17.3828C10.027 17.2649 10 17.1356 10 17C10 16.7249 10.1111 16.4758 10.2908 16.295L10.2929 16.2929L15.2929 11.2929C15.6834 10.9024 16.3166 10.9024 16.7071 11.2929Z" fill="#F3F3F3"/>
</g>
<defs>
<clipPath id="clip0_15460_25999">
<rect width="34" height="34" fill="white"/>
</clipPath>
</defs>
</svg>
