<svg width="902" height="471" viewBox="0 0 902 471" fill="none" xmlns="http://www.w3.org/2000/svg">
<g clip-path="url(#clip0_3510_3312)">
<rect width="902" height="471" fill="#263D36"/>
<g clip-path="url(#clip1_3510_3312)">
<path d="M532.042 235.516C532.042 233.894 532.042 232.368 531.993 230.959C531.959 229.629 531.834 228.304 531.619 226.994C531.418 225.797 531.063 224.635 530.565 223.539C530.038 222.41 529.335 221.382 528.484 220.499C527.277 219.195 525.84 218.152 524.255 217.427C522.54 216.694 520.703 216.331 518.853 216.359C516.996 216.334 515.152 216.697 513.429 217.427C511.834 218.142 510.389 219.181 509.175 220.484C508.326 221.367 507.625 222.395 507.102 223.525C506.608 224.621 506.259 225.783 506.065 226.979C505.855 228.29 505.734 229.615 505.705 230.944C505.672 232.354 505.655 233.879 505.663 235.502C505.672 237.124 505.663 238.638 505.705 240.056C505.734 241.385 505.855 242.71 506.065 244.021C506.259 245.217 506.608 246.38 507.102 247.476C507.627 248.604 508.328 249.632 509.175 250.516C510.387 251.821 511.833 252.858 513.429 253.568C515.151 254.303 516.995 254.668 518.853 254.642C520.704 254.67 522.541 254.305 524.255 253.568C525.841 252.853 527.277 251.816 528.484 250.516C529.333 249.632 530.036 248.604 530.565 247.476C531.063 246.38 531.418 245.218 531.619 244.021C531.832 242.714 531.955 241.393 531.987 240.068C532.029 238.65 532.048 237.133 532.037 235.513L532.042 235.516ZM525.069 235.516C525.069 237.314 525.044 238.81 524.986 240.001C524.953 240.979 524.86 241.953 524.709 242.918C524.605 243.561 524.419 244.187 524.155 244.777C523.941 245.253 523.662 245.692 523.325 246.081C522.806 246.708 522.161 247.206 521.438 247.54C520.624 247.907 519.747 248.094 518.861 248.089C517.971 248.093 517.09 247.906 516.271 247.54C515.53 247.212 514.868 246.714 514.334 246.081C513.995 245.694 513.715 245.254 513.503 244.777C513.247 244.186 513.07 243.561 512.978 242.918C512.83 241.953 512.737 240.978 512.701 240.001C512.651 238.81 512.626 237.315 512.626 235.516C512.626 233.719 512.651 232.219 512.701 231.029C512.738 230.051 512.83 229.077 512.978 228.111C513.07 227.469 513.247 226.843 513.503 226.253C513.716 225.776 513.996 225.336 514.334 224.948C514.869 224.317 515.53 223.818 516.271 223.49C517.089 223.119 517.971 222.933 518.861 222.941C519.747 222.931 520.625 223.118 521.438 223.49C522.161 223.824 522.805 224.322 523.325 224.948C523.661 225.338 523.941 225.777 524.155 226.253C524.419 226.843 524.605 227.468 524.709 228.111C524.86 229.077 524.953 230.051 524.986 231.029C525.046 232.216 525.069 233.716 525.069 235.516Z" fill="#00C288"/>
<path fill-rule="evenodd" clip-rule="evenodd" d="M592 217.013C591.997 216.652 591.687 216.361 591.303 216.357H584.741C584.357 216.359 584.046 216.652 584.044 217.013V239.801L568.043 216.541C567.936 216.384 567.841 216.357 567.604 216.357H561.52C561.137 216.362 560.827 216.653 560.822 217.013V253.99C560.827 254.35 561.137 254.64 561.52 254.643H568.078C568.461 254.642 568.77 254.35 568.772 253.99V231.143L584.776 254.456C584.887 254.613 584.975 254.64 585.215 254.64H591.296C591.68 254.639 591.99 254.348 591.994 253.987L592 217.013Z" fill="#00C288"/>
<path fill-rule="evenodd" clip-rule="evenodd" d="M551.229 217.013C551.227 216.652 550.945 216.359 550.597 216.357H544.665C544.317 216.359 544.035 216.652 544.034 217.013V253.987C544.035 254.349 544.317 254.642 544.665 254.643H550.597C550.945 254.642 551.227 254.349 551.229 253.987V217.013Z" fill="#00C288"/>
<path fill-rule="evenodd" clip-rule="evenodd" d="M476.686 235.5C476.686 233.691 476.705 232.185 476.755 230.986C476.789 230.008 476.882 229.033 477.033 228.067C477.567 224.828 479.93 222.917 482.946 222.917C484.914 222.934 486.698 223.699 487.838 225.438C488.354 226.25 488.731 227.151 488.95 228.099C488.967 228.199 489.054 228.269 489.15 228.26H495.947C496.044 228.26 496.08 228.19 496.064 228.091C495.321 223.675 493.078 219.709 489.114 217.745C487.166 216.798 485.039 216.325 482.893 216.359C479.066 216.359 475.842 217.735 473.222 220.486C471.726 222.016 470.705 223.986 470.292 226.135C469.892 228.252 469.69 231.373 469.686 235.497C469.682 239.622 469.884 242.742 470.292 244.856C470.701 247.009 471.72 248.982 473.214 250.518C475.832 253.267 479.056 254.641 482.885 254.641C485.031 254.675 487.157 254.203 489.106 253.258C493.07 251.294 495.313 247.328 496.055 242.913C496.072 242.811 496.036 242.744 495.938 242.744H489.139C489.042 242.733 488.955 242.803 488.939 242.904C488.719 243.852 488.343 244.751 487.827 245.563C486.687 247.314 484.903 248.069 482.935 248.084C479.919 248.084 477.556 246.175 477.022 242.936C476.871 241.97 476.778 240.996 476.744 240.018C476.705 238.813 476.686 237.304 476.686 235.5Z" fill="#00C288"/>
<path fill-rule="evenodd" clip-rule="evenodd" d="M398.117 217.013C398.116 216.652 397.819 216.359 397.453 216.357H391.207C390.841 216.359 390.544 216.652 390.542 217.013V253.99C390.546 254.35 390.842 254.641 391.207 254.643H397.453C397.818 254.641 398.114 254.35 398.117 253.99V243.136L403.13 237.223L413.426 254.447C413.506 254.574 413.648 254.649 413.799 254.643H421.389C421.738 254.643 421.801 254.429 421.627 254.135L408.146 231.585L420.514 216.945C420.764 216.648 420.658 216.366 420.267 216.366H411.971C411.87 216.36 411.773 216.405 411.712 216.485L398.117 232.573V217.013Z" fill="#00C288"/>
<path fill-rule="evenodd" clip-rule="evenodd" d="M444.504 248.032C441.256 248.032 438.312 244.848 438.312 241.047V217.008C438.31 216.649 438.036 216.359 437.698 216.357H431.927C431.589 216.359 431.315 216.649 431.313 217.008V240.952C431.313 249.323 437.225 254.643 444.504 254.643C451.783 254.643 457.695 249.323 457.695 240.952V217.008C457.692 216.65 457.419 216.361 457.081 216.357H451.308C450.97 216.361 450.698 216.65 450.697 217.008V241.047C450.697 244.845 447.749 248.032 444.504 248.032Z" fill="#00C288"/>
<path fill-rule="evenodd" clip-rule="evenodd" d="M328.713 235.507L348.94 255.354L361.707 242.828C363.99 240.812 367.483 240.901 369.655 243.032C371.827 245.164 371.919 248.59 369.863 250.83L353.015 267.362C350.751 269.546 347.122 269.546 344.858 267.362L320.55 243.508V257.687C320.55 260.816 317.965 263.352 314.775 263.352C311.586 263.352 309 260.816 309 257.687V213.309C309 210.179 311.586 207.643 314.775 207.643C317.965 207.643 320.55 210.179 320.55 213.309V227.487L344.855 203.639C347.118 201.454 350.749 201.454 353.011 203.639L369.873 220.168C371.928 222.408 371.837 225.835 369.664 227.966C367.492 230.097 363.999 230.187 361.716 228.17L348.949 215.644L328.713 235.507ZM348.949 229.835C346.61 229.834 344.501 231.215 343.606 233.334C342.71 235.453 343.204 237.894 344.857 239.516C346.51 241.139 348.997 241.625 351.158 240.747C353.318 239.869 354.727 237.801 354.727 235.507C354.728 234.002 354.12 232.56 353.036 231.495C351.953 230.431 350.482 229.833 348.949 229.832V229.835Z" fill="#00C288"/>
</g>
</g>
<defs>
<clipPath id="clip0_3510_3312">
<rect width="902" height="471" fill="white"/>
</clipPath>
<clipPath id="clip1_3510_3312">
<rect width="283" height="67" fill="white" transform="translate(309 202)"/>
</clipPath>
</defs>
</svg>
