<svg width="32" height="32" viewBox="0 0 32 32" fill="none" xmlns="http://www.w3.org/2000/svg">
<g clip-path="url(#clip0_51_11268)">
<circle cx="16" cy="16" r="16" fill="#1D1D1D" fill-opacity="0.04"/>
<mask id="mask0_51_11268" style="mask-type:alpha" maskUnits="userSpaceOnUse" x="8" y="8" width="17" height="16">
<path d="M8.63395 22.6732L8.80284 22.4641C8.82945 22.481 8.85932 22.5005 8.89156 22.5216C8.89915 22.5265 8.90688 22.5316 8.91472 22.5367C8.98068 22.5798 9.0565 22.6288 9.11656 22.6599C9.14235 22.6732 9.18497 22.694 9.22918 22.7009C9.24827 22.7038 9.30496 22.7106 9.36104 22.6749C9.43277 22.6291 9.44529 22.555 9.44319 22.5128L9.02002 13.9826C8.9789 13.1536 9.60928 12.3343 10.421 12.1615C10.4212 12.1614 10.4214 12.1614 10.4215 12.1613L21.7171 9.83992L21.9184 9.79854L21.8603 9.66513C21.8649 9.65978 21.8704 9.65364 21.877 9.64671C21.9249 9.59622 21.9959 9.53619 22.0779 9.46708L22.0803 9.46507C22.1566 9.40072 22.2432 9.32769 22.3063 9.26037C22.3377 9.22675 22.3716 9.18603 22.395 9.14127C22.407 9.11817 22.4219 9.08292 22.426 9.04107L23.4954 9.61459L23.4951 9.615L23.5066 9.62009C23.9001 9.79442 24.1803 10.1827 24.206 10.7005L24.6291 19.2307C24.6703 20.0598 24.0396 20.8794 23.2276 21.052L10.939 23.664C10.5827 23.7397 10.2571 23.6772 10.0028 23.5194L10.0026 23.5193L8.63395 22.6732Z" fill="black" stroke="black" stroke-width="0.333333"/>
</mask>
<g mask="url(#mask0_51_11268)">
<path d="M8.63395 22.6732L8.80284 22.4641C8.82945 22.481 8.85932 22.5005 8.89156 22.5216C8.89915 22.5265 8.90688 22.5316 8.91472 22.5367C8.98068 22.5798 9.0565 22.6288 9.11656 22.6599C9.14235 22.6732 9.18497 22.694 9.22918 22.7009C9.24827 22.7038 9.30496 22.7106 9.36104 22.6749C9.43277 22.6291 9.44529 22.555 9.44319 22.5128L9.02002 13.9826C8.9789 13.1536 9.60928 12.3343 10.421 12.1615C10.4212 12.1614 10.4214 12.1614 10.4215 12.1613L21.7171 9.83992L21.9184 9.79854L21.8603 9.66513C21.8649 9.65978 21.8704 9.65364 21.877 9.64671C21.9249 9.59622 21.9959 9.53619 22.0779 9.46708L22.0803 9.46507C22.1566 9.40072 22.2432 9.32769 22.3063 9.26037C22.3377 9.22675 22.3716 9.18603 22.395 9.14127C22.407 9.11817 22.4219 9.08292 22.426 9.04107L23.4954 9.61459L23.4951 9.615L23.5066 9.62009C23.9001 9.79442 24.1803 10.1827 24.206 10.7005L24.6291 19.2307C24.6703 20.0598 24.0396 20.8794 23.2276 21.052L10.939 23.664C10.5827 23.7397 10.2571 23.6772 10.0028 23.5194L10.0026 23.5193L8.63395 22.6732Z" fill="black" stroke="black" stroke-width="0.333333"/>
<path d="M21.229 19.2006L23.9178 21.0189L23.3794 21.2952L20.4675 19.2927L21.229 19.2006Z" fill="#B8A9A9"/>
<path d="M25.4056 18.5249L22.9217 16.8431L22.0078 18.7135L24.7183 20.5512L25.4056 18.5249Z" fill="#B8A9A9"/>
<path d="M9.69073 22.3276L12.364 24.0817L10.5279 24.7283L7.54175 22.8013L9.69073 22.3276Z" fill="#B8A9A9"/>
<path d="M11.9062 23.0383L14.4754 22.4603" stroke="#25D17F" stroke-width="0.333333" stroke-linecap="round"/>
<path d="M23.4036 10.0282C23.5559 10.1486 23.7691 10.3853 23.8287 11.2185C23.8287 11.363 23.9147 12.4959 23.9821 13.7535" stroke="#25D17F" stroke-width="0.333333" stroke-linecap="round"/>
<path d="M8.63395 22.6729L8.80284 22.4638C8.82945 22.4807 8.85932 22.5002 8.89156 22.5213C8.89915 22.5263 8.90688 22.5313 8.91472 22.5365C8.98068 22.5795 9.0565 22.6286 9.11656 22.6597C9.14235 22.673 9.18497 22.6938 9.22918 22.7006C9.24827 22.7036 9.30496 22.7104 9.36104 22.6746C9.43277 22.6288 9.44529 22.5548 9.44319 22.5126L9.02002 13.9823C8.9789 13.1534 9.60928 12.334 10.421 12.1612C10.4212 12.1612 10.4214 12.1611 10.4215 12.1611L21.7171 9.83967L21.9184 9.7983L21.8603 9.66489C21.8649 9.65953 21.8704 9.6534 21.877 9.64646C21.9249 9.59598 21.9959 9.53595 22.0779 9.46684L22.0803 9.46483C22.1566 9.40047 22.2432 9.32744 22.3063 9.26012C22.3377 9.22651 22.3716 9.18579 22.395 9.14103C22.407 9.11792 22.4219 9.08267 22.426 9.04083L23.4954 9.61434L23.4951 9.61476L23.5066 9.61984C23.9001 9.79418 24.1803 10.1824 24.206 10.7002L24.6291 19.2305C24.6703 20.0596 24.0396 20.8791 23.2276 21.0517L10.939 23.6637C10.5827 23.7395 10.2571 23.6769 10.0028 23.5192L10.0026 23.519L8.63395 22.6729Z" stroke="black" stroke-width="0.333333"/>
</g>
<mask id="mask1_51_11268" style="mask-type:alpha" maskUnits="userSpaceOnUse" x="7" y="8" width="17" height="15">
<rect x="0.171282" y="0.13181" width="15.5322" height="11.5099" rx="1.61111" transform="matrix(0.978148 -0.207912 0.0495471 0.998772 7.19912 11.4718)" fill="white" stroke="black" stroke-width="0.333333"/>
</mask>
<g mask="url(#mask1_51_11268)">
<rect x="0.171282" y="0.13181" width="15.5322" height="11.5099" rx="1.61111" transform="matrix(0.978148 -0.207912 0.0495471 0.998772 7.19912 11.4718)" fill="#EBE9E9" stroke="black" stroke-width="0.333333"/>
<rect width="15.8656" height="11.8432" rx="1.2" transform="matrix(0.978148 -0.207912 0.0495471 0.998772 6.23169 10.7002)" fill="white"/>
<path d="M8.35034 22.8055L13.0524 15.3623" stroke="#DCDCDC"/>
<path d="M22.6719 19.4284L16.3567 14.4945" stroke="#DCDCDC"/>
<mask id="mask2_51_11268" style="mask-type:alpha" maskUnits="userSpaceOnUse" x="6" y="7" width="17" height="11">
<path d="M13.8606 17.2204L6.86449 11.2813L7.6144 10.0227L20.6178 7.5459L22.4458 8.27882L15.7836 17.0126C15.3205 17.6198 14.4429 17.7146 13.8606 17.2204Z" fill="#66DD8C" stroke="black" stroke-width="0.333333"/>
</mask>
<g mask="url(#mask2_51_11268)">
<path d="M13.8606 17.2204L6.86449 11.2813L7.6144 10.0227L20.6178 7.5459L22.4458 8.27882L15.7836 17.0126C15.3205 17.6198 14.4429 17.7146 13.8606 17.2204Z" fill="#25D17F" stroke="black" stroke-width="0.333333"/>
<path d="M9.91406 10.443L19.1589 8.47794C19.2047 9.58342 18.3644 10.6661 17.2822 10.8961L11.9565 12.0281C10.8742 12.2582 9.95982 11.5485 9.91406 10.443Z" fill="white"/>
<path d="M13.8606 17.2204L6.86449 11.2813L7.6144 10.0227L20.6178 7.5459L22.4458 8.27882L15.7836 17.0126C15.3205 17.6198 14.4429 17.7146 13.8606 17.2204Z" stroke="black" stroke-width="0.333333"/>
</g>
<rect x="0.171282" y="0.13181" width="15.5322" height="11.5099" rx="1.61111" transform="matrix(0.978148 -0.207912 0.0495471 0.998772 7.19912 11.4718)" stroke="black" stroke-width="0.333333"/>
</g>
</g>
<defs>
<clipPath id="clip0_51_11268">
<rect width="32" height="32" rx="16" fill="white"/>
</clipPath>
</defs>
</svg>
