<svg width="32" height="32" viewBox="0 0 32 32" fill="none" xmlns="http://www.w3.org/2000/svg">
<g clip-path="url(#clip0_252_25648)">
<circle cx="16" cy="16" r="16" fill="#1D1D1D" fill-opacity="0.04"/>
<path d="M12.6496 8.58569L14.299 9.68421C14.4182 9.77763 14.5212 9.88716 14.6114 10.0128L16.5959 12.8316L14.9465 11.7331L12.9621 8.91428C12.8719 8.78864 12.7688 8.67911 12.6496 8.58569ZM12.1148 17.8989L8.53256 18.5593C8.02679 18.6527 7.55646 18.5271 7.20532 18.2533L8.85471 19.3518C9.20584 19.6288 9.6794 19.7513 10.1819 19.6578L13.7642 18.9974L12.1148 17.8989ZM18.2324 13.0087L19.8817 14.1073L21.4796 10.6281C21.8565 9.80662 21.6568 8.91428 21.0511 8.43751L19.4017 7.33899C20.0074 7.81254 20.2071 8.70489 19.8302 9.52958L18.2324 13.0087ZM13.8061 22.6473C13.5129 23.282 12.9298 23.7491 12.2759 23.8715C11.957 23.9295 11.6348 23.9005 11.3481 23.791C11.1999 23.733 11.0646 23.6589 10.9454 23.5655L12.5948 24.664C12.714 24.7574 12.8493 24.8347 12.9975 24.8895C13.2842 25.0022 13.6064 25.028 13.9253 24.97C14.5792 24.8508 15.1655 24.3805 15.4555 23.7459L17.0533 20.2699L15.4039 19.1714L13.8061 22.6473ZM25.413 14.9674C25.3808 14.4552 25.1488 14.0267 24.7945 13.7529L23.1451 12.6544C23.4962 12.9314 23.7314 13.3567 23.7636 13.8689C23.828 14.8933 23.0549 15.8791 22.0466 16.0659L18.4643 16.7263L20.4487 19.5451C21.006 20.3376 20.7773 21.5327 19.9333 22.2092C19.6659 22.4218 19.3534 22.57 19.0345 22.628C18.5416 22.7182 18.0648 22.6022 17.7008 22.3188L19.3502 23.4173C19.711 23.7008 20.1878 23.8167 20.6839 23.7265C21.0028 23.6685 21.3153 23.5236 21.5827 23.3077C22.4267 22.6345 22.6554 21.4393 22.0981 20.6436L20.1137 17.8248L23.6959 17.1644C24.7075 16.9776 25.4774 15.9918 25.413 14.9674Z" fill="black" stroke="black" stroke-width="0.343857" stroke-miterlimit="10"/>
<path d="M20.6322 21.2197C20.5001 21.5902 20.265 21.9381 19.9332 22.2055C19.6658 22.4181 19.3533 22.5663 19.0344 22.6243C18.6671 22.6919 18.3096 22.6436 18.0035 22.4986L17.9971 22.5115L19.3533 23.4135C19.7141 23.697 20.1909 23.813 20.687 23.7228C21.0059 23.6648 21.3184 23.5198 21.5858 23.304C21.9176 23.0366 22.156 22.6887 22.2848 22.3182L20.6354 21.2197H20.6322Z" fill="#B8A9A9"/>
<path d="M11.1357 23.6937L10.9424 23.5648C11.0036 23.6131 11.068 23.655 11.1357 23.6937Z" fill="#B8A9A9"/>
<path d="M13.4036 23.2369C13.0976 23.5622 12.7014 23.791 12.2729 23.8715C11.954 23.9295 11.6318 23.9005 11.3451 23.791C11.271 23.762 11.2034 23.7297 11.1357 23.6911L12.5918 24.6607C12.711 24.7542 12.8463 24.8315 12.9945 24.8863C13.2812 24.999 13.6034 25.0248 13.9223 24.9668C14.3508 24.8863 14.747 24.6575 15.053 24.3322L13.4036 23.2336V23.2369Z" fill="#B8A9A9"/>
<path d="M13.8448 22.5636L13.8062 22.6474C13.7707 22.7214 13.7321 22.7923 13.6902 22.8632L15.3396 23.9617C15.3814 23.8908 15.4201 23.82 15.4555 23.7459L15.4942 23.6621L13.8448 22.5636Z" fill="#B8A9A9"/>
<path d="M10.1852 19.6582L10.5846 19.5841L8.93526 18.4856L8.5358 18.5597C8.11057 18.637 7.71111 18.5597 7.38574 18.3696L8.85795 19.349C9.20909 19.626 9.68264 19.7484 10.1852 19.655V19.6582Z" fill="#B8A9A9"/>
<path d="M7.3825 18.3691L7.20532 18.2499C7.26009 18.295 7.32129 18.3336 7.3825 18.3691Z" fill="black" stroke="black" stroke-width="0.138252" stroke-miterlimit="10"/>
<path d="M12.1148 17.8986L8.53256 18.559C8.02679 18.6524 7.55646 18.5268 7.20532 18.2529L8.85471 19.3515C9.20584 19.6285 9.6794 19.7509 10.1819 19.6575L13.7642 18.9971L12.1148 17.8986ZM13.8061 22.647C13.5129 23.2816 12.9298 23.7487 12.2759 23.8712C11.957 23.9291 11.6348 23.9001 11.3481 23.7906C11.1999 23.7326 11.0646 23.6585 10.9454 23.5651L12.5948 24.6636C12.714 24.7571 12.8493 24.8344 12.9975 24.8891C13.2842 25.0019 13.6064 25.0277 13.9253 24.9697C14.5792 24.8505 15.1655 24.3801 15.4555 23.7455L17.0533 20.2696L15.4039 19.1711L13.8061 22.647ZM25.413 14.9671C25.3808 14.4548 25.1488 14.0264 24.7945 13.7526L23.1451 12.6541C23.4962 12.9311 23.7314 13.3563 23.7636 13.8685C23.828 14.893 23.0549 15.8787 22.0466 16.0656L18.4643 16.726L20.4487 19.5447C21.006 20.3372 20.7773 21.5324 19.9333 22.2089C19.6659 22.4215 19.3534 22.5697 19.0345 22.6277C18.5416 22.7179 18.0648 22.6019 17.7008 22.3184L19.3502 23.4169C19.711 23.7004 20.1878 23.8164 20.6839 23.7262C21.0028 23.6682 21.3153 23.5232 21.5827 23.3074C22.4267 22.6341 22.6554 21.439 22.0981 20.6433L20.1137 17.8245L23.6959 17.1641C24.7075 16.9772 25.4774 15.9915 25.413 14.9671Z" stroke="black" stroke-width="0.343857" stroke-miterlimit="10"/>
<path d="M21.8146 12.3451C22.8261 12.1583 23.6991 12.8412 23.7603 13.8657C23.8215 14.8901 23.0516 15.8758 22.0433 16.0627L18.461 16.7231L20.4455 19.5419C21.0028 20.3343 20.774 21.5295 19.93 22.206C19.6626 22.4186 19.3502 22.5668 19.0312 22.6248C18.3773 22.744 17.7491 22.4992 17.3851 21.9869L15.4007 19.1714L13.8028 22.6473C13.5097 23.282 12.9266 23.7491 12.2726 23.8715C11.9537 23.9295 11.6316 23.9005 11.3448 23.791C10.9035 23.6234 10.5781 23.2755 10.4203 22.8181C10.2624 22.3639 10.2979 21.8516 10.5169 21.3716L12.1148 17.8957L8.53252 18.5561C7.52098 18.7429 6.64797 18.06 6.58676 17.0356C6.52233 16.0079 7.29548 15.0254 8.30379 14.8385L11.8861 14.1781L9.90164 11.3594C9.62781 10.976 9.53439 10.4864 9.63103 9.98058C9.72768 9.47804 10.0079 9.02059 10.4171 8.69522C10.6844 8.48261 10.9969 8.33442 11.3159 8.27643C11.9698 8.15402 12.598 8.39885 12.962 8.91106L14.9464 11.7298L16.5443 8.25066C16.8374 7.61604 17.4205 7.14893 18.0745 7.02973C18.3934 6.97175 18.7155 6.99752 19.0022 7.11027C19.9107 7.46141 20.2779 8.54381 19.8302 9.52636L18.2323 13.0055L21.8146 12.3451Z" fill="white" stroke="black" stroke-width="0.343857" stroke-miterlimit="10"/>
<path d="M11.3612 8.98422C11.7671 8.91013 12.1601 9.06154 12.3824 9.38046L15.0336 13.1463L14.4473 14.422L13.133 14.6636L10.4849 10.901C10.3174 10.6594 10.2562 10.3566 10.3174 10.0473C10.3786 9.73482 10.5493 9.45133 10.8038 9.24838C10.9714 9.1163 11.1646 9.0261 11.3612 8.99067V8.98422Z" fill="#FBBC04"/>
<path d="M14.4472 14.4191L13.2746 16.9705L8.49074 17.8531C7.86256 17.9691 7.32136 17.5471 7.2827 16.9093C7.24404 16.2714 7.72404 15.6593 8.349 15.5434L13.1329 14.6607L14.4472 14.4191Z" fill="#34A853"/>
<path d="M15.0336 13.1434L17.2145 16.2425L13.2747 16.9673L15.0336 13.1434Z" fill="#185DB7"/>
<path d="M18.1196 7.73751C18.3161 7.70207 18.5158 7.7214 18.6962 7.78583C19.2567 8.00489 19.4887 8.67817 19.2084 9.28703L17.0758 13.9324L21.8597 13.0497C22.4878 12.9337 23.029 13.3589 23.0677 13.9968C23.1064 14.6346 22.6296 15.2435 22.0014 15.3595L17.2175 16.2421L15.0366 13.1431L17.1724 8.49455C17.3528 8.10153 17.7169 7.8116 18.1228 7.73429L18.1196 7.73751Z" fill="#1A73E8"/>
<path d="M17.2144 16.2423L19.8624 20.0082C20.2103 20.5011 20.0654 21.242 19.5435 21.6608C19.376 21.7929 19.1827 21.8831 18.9862 21.9185C18.5803 21.9926 18.1873 21.8444 17.965 21.5255L15.3137 17.7596L13.1779 22.4082C12.9975 22.8012 12.6335 23.0911 12.2276 23.1652C12.0311 23.2006 11.8313 23.1845 11.6509 23.1169C11.3803 23.0106 11.1774 22.798 11.0775 22.5145C10.9809 22.231 11.0034 21.9121 11.1387 21.6189L13.2713 16.9704L17.2112 16.2423H17.2144Z" fill="#EA4335"/>
<path d="M20.2878 17.2836L23.039 16.7617C24.0054 16.5845 24.7399 15.6407 24.6787 14.6646" stroke="#25D17F" stroke-width="0.326133" stroke-linecap="round"/>
</g>
<defs>
<clipPath id="clip0_252_25648">
<rect width="32" height="32" rx="16" fill="white"/>
</clipPath>
</defs>
</svg>
