<svg width="32" height="32" viewBox="0 0 32 32" fill="none" xmlns="http://www.w3.org/2000/svg">
<g clip-path="url(#clip0_264_8151)">
<circle cx="16" cy="16" r="16" fill="#F3F3F3" fill-opacity="0.04"/>
<g clip-path="url(#clip1_264_8151)">
<mask id="mask0_264_8151" style="mask-type:alpha" maskUnits="userSpaceOnUse" x="7" y="7" width="18" height="18">
<path d="M8.10745 23.2962C7.94861 23.1915 7.8556 23.0007 7.88801 22.7692C8.32516 19.6462 10.4931 16.8048 13.3706 15.5415C11.9061 15.1619 10.8434 13.8843 10.7723 12.1671C10.6754 9.82523 12.453 7.55771 14.7428 7.10224C15.5691 6.93787 16.3492 7.03196 17.0134 7.32935C17.0134 7.32665 17.0135 7.32397 17.0135 7.3213L19.2509 8.39683L19.2441 8.39796C20.3012 8.96579 21.0179 10.076 21.0758 11.4769C21.1383 12.9873 20.4183 14.4659 19.2847 15.4475C19.4143 15.5072 19.5414 15.5712 19.6659 15.6394L21.1552 16.3454C22.9515 17.1204 24.2955 18.7001 24.784 20.7698C24.8717 21.141 24.5816 21.54 24.1965 21.6166L10.5471 24.3316C10.3837 24.3641 10.2323 24.3328 10.1165 24.2554L10.1152 24.2573L8.22413 23.3533C8.18551 23.3401 8.14917 23.3226 8.11563 23.3015L8.10675 23.2972L8.10745 23.2962Z" fill="black"/>
</mask>
<g mask="url(#mask0_264_8151)">
<path d="M8.10745 23.2962C7.94861 23.1915 7.8556 23.0007 7.88801 22.7692C8.32516 19.6462 10.4931 16.8048 13.3706 15.5415C11.9061 15.1619 10.8434 13.8843 10.7723 12.1671C10.6754 9.82523 12.453 7.55771 14.7428 7.10224C15.5691 6.93787 16.3492 7.03196 17.0134 7.32935C17.0134 7.32665 17.0135 7.32397 17.0135 7.3213L19.2509 8.39683L19.2441 8.39796C20.3012 8.96579 21.0179 10.076 21.0758 11.4769C21.1383 12.9873 20.4183 14.4659 19.2847 15.4475C19.4143 15.5072 19.5414 15.5712 19.6659 15.6394L21.1552 16.3454C22.9515 17.1204 23.1782 18.9301 23.6667 20.9998C23.7544 21.371 23.0975 21.8318 23.0975 21.8318L10.5471 24.3316C10.3837 24.3641 10.2323 24.3328 10.1165 24.2554L10.1152 24.2573L8.22413 23.3533C8.18551 23.3401 8.14917 23.3226 8.11563 23.3015L8.10675 23.2972L8.10745 23.2962Z" fill="black"/>
<path d="M18.2802 15.533C19.3893 14.7845 20.1974 13.5706 20.4203 12.2496C20.4707 11.9512 20.4912 11.6473 20.4785 11.342C20.4566 10.8114 20.2306 10.1138 19.9222 9.71841" stroke="#25D17F" stroke-width="0.333333" stroke-linecap="round"/>
<path d="M11.8972 23.3931L14.8227 22.8136" stroke="#25D17F" stroke-width="0.333333" stroke-linecap="round"/>
<path d="M9.05419 22.2515L12.5388 24.2984L10.562 24.8229C9.58161 24.2364 7.56831 23.0477 7.35822 22.9847C7.14814 22.9217 8.39767 22.47 9.05419 22.2515Z" fill="#B8A9A9"/>
<path d="M14.7751 7.26611C15.5693 7.10815 16.314 7.19937 16.9451 7.48193L17.1775 7.58545V7.58447L19.0984 8.5083L19.1648 8.54443C20.1671 9.08281 20.8533 10.1385 20.9089 11.4839C20.9691 12.9378 20.2752 14.3695 19.1755 15.3218L18.9802 15.4907L19.2146 15.5991L19.5857 15.7856L19.5945 15.7896L21.0837 16.4956L21.0896 16.4985C22.8055 17.239 23.3502 18.6396 23.8376 20.7046C23.8354 20.6948 23.8421 20.7055 23.8191 20.7495C23.7974 20.791 23.7586 20.8438 23.7019 20.9058C23.5891 21.0291 23.4267 21.1666 23.2546 21.2974C23.0838 21.4272 22.9091 21.5465 22.7771 21.6333C22.7114 21.6765 22.6563 21.7117 22.6179 21.7358C22.6042 21.7445 22.592 21.7506 22.5828 21.7563L10.5144 24.1685C10.3894 24.1933 10.2828 24.1688 10.2078 24.1187L10.198 24.1118L10.1873 24.1069L8.29565 23.2026L8.28687 23.1987L8.27808 23.1958L8.20483 23.1606L8.19897 23.1567C8.09703 23.0894 8.02954 22.9637 8.05347 22.7925C8.48253 19.7273 10.6124 16.9341 13.4373 15.6938L13.8777 15.5005L13.4128 15.3804C12.0228 15.0201 11.0075 13.8078 10.9392 12.1606C10.8457 9.90036 12.5665 7.70557 14.7751 7.26611Z" stroke="black" stroke-width="0.333333" stroke-linecap="round"/>
</g>
<mask id="mask1_264_8151" style="mask-type:alpha" maskUnits="userSpaceOnUse" x="7" y="7" width="16" height="17">
<path d="M14.0835 7.26955C16.2824 6.8322 18.1415 8.30045 18.2345 10.5491C18.3027 12.1985 17.3995 13.8088 16.0452 14.7229L15.615 15.0131L16.0889 15.0309C18.9615 15.1373 21.2772 17.0338 21.9472 19.8725C22.0088 20.1343 21.8054 20.4307 21.5121 20.4893L7.86252 23.2044C7.56872 23.2628 7.34432 23.0506 7.38384 22.7683C7.81172 19.7128 9.93317 16.9322 12.7481 15.6964L13.2129 15.4928L12.7658 15.3771C11.3586 15.0124 10.338 13.7847 10.2696 12.1354C10.1764 9.88482 11.8846 7.70694 14.0835 7.26955Z" fill="white" stroke="black" stroke-width="0.333333" stroke-linecap="round"/>
</mask>
<g mask="url(#mask1_264_8151)">
<path d="M14.0835 7.26955C16.2824 6.8322 18.1415 8.30045 18.2345 10.5491C18.3027 12.1985 17.3995 13.8088 16.0452 14.7229L15.615 15.0131L16.0889 15.0309C18.9615 15.1373 21.2772 17.0338 21.9472 19.8725C22.0088 20.1343 21.8054 20.4307 21.5121 20.4893L7.86252 23.2044C7.56872 23.2628 7.34432 23.0506 7.38384 22.7683C7.81172 19.7128 9.93317 16.9322 12.7481 15.6964L13.2129 15.4928L12.7658 15.3771C11.3586 15.0124 10.338 13.7847 10.2696 12.1354C10.1764 9.88482 11.8846 7.70694 14.0835 7.26955Z" fill="white" stroke="black" stroke-width="0.333333" stroke-linecap="round"/>
<path d="M12.9591 16.5522C13.927 18.1641 16.4747 16.7655 16.1961 14.9432C18.1388 15.0965 19.4703 16.2054 19.9497 18.0923C20.015 18.3494 19.814 18.6464 19.5193 18.7052L9.66449 20.6654C9.37166 20.7237 9.14362 20.5129 9.17799 20.2271C9.30966 19.1331 9.6169 18.1409 10.139 17.3148C10.6381 16.5253 11.3387 15.8788 12.2881 15.4353L12.9591 16.5522Z" fill="white" stroke="black" stroke-width="0.333333" stroke-linecap="round"/>
<path d="M17.5189 15.0169C20.4519 15.1254 21.6164 16.9251 22.1263 19.8012C22.1934 20.1799 21.9041 20.5785 21.519 20.6551L7.86969 23.3702C7.48443 23.4468 7.1675 23.1687 7.19695 22.7699C7.42211 19.7211 8.13861 17.3646 11.0139 16.1023L12.0766 17.6449C13.7073 20.012 17.6705 18.0983 17.5189 15.0169Z" fill="#25D17F"/>
<path fill-rule="evenodd" clip-rule="evenodd" d="M9.805 19.5226C9.94814 19.4107 10.1271 19.4195 10.2026 19.5459L10.9733 20.8212C11.0489 20.9456 10.9947 21.1403 10.8515 21.2522C10.7084 21.364 10.5294 21.3552 10.4539 21.2288L9.68113 19.956C9.60562 19.8296 9.66179 19.6365 9.805 19.5226ZM11.898 19.0594C11.8724 19.0506 11.8446 19.0483 11.8185 19.0539L10.9298 19.2428C10.9017 19.2488 10.8734 19.2629 10.8488 19.2824C10.7711 19.3437 10.7417 19.4497 10.7813 19.5186L11.1987 20.2095C11.2119 20.2311 11.2312 20.2514 11.2568 20.2602C11.3315 20.2891 11.4307 20.2416 11.4774 20.1543L11.9488 19.2704C11.9955 19.1832 11.9728 19.0883 11.898 19.0594Z" fill="white"/>
<path d="M12.8086 12.7305C12.9552 13.0103 13.4417 13.5289 14.2152 13.3645C14.9887 13.2001 15.4022 12.4902 15.5123 12.1558" stroke="black" stroke-width="0.666667" stroke-linecap="round"/>
<path d="M14.0835 7.26955C16.2824 6.8322 18.1415 8.30045 18.2345 10.5491C18.3027 12.1985 17.3995 13.8088 16.0452 14.7229L15.615 15.0131L16.0889 15.0309C18.9615 15.1373 21.2772 17.0338 21.9472 19.8725C22.0088 20.1343 21.8054 20.4307 21.5121 20.4893L7.86252 23.2044C7.56872 23.2628 7.34432 23.0506 7.38384 22.7683C7.81172 19.7128 9.93317 16.9322 12.7481 15.6964L13.2129 15.4928L12.7658 15.3771C11.3586 15.0124 10.338 13.7847 10.2696 12.1354C10.1764 9.88482 11.8846 7.70694 14.0835 7.26955Z" stroke="black" stroke-width="0.333333" stroke-linecap="round"/>
</g>
<g clip-path="url(#clip2_264_8151)">
<mask id="mask2_264_8151" style="mask-type:alpha" maskUnits="userSpaceOnUse" x="18" y="8" width="9" height="15">
<path d="M23.7783 8.9585V8.95947L23.79 8.96143C25.0898 9.22989 26.0432 10.3241 26.1064 11.8481C26.1078 11.8801 26.1088 11.9129 26.1094 11.9448V12.0405C26.0966 13.6099 25.1393 15.1443 23.7744 15.9302L23.7207 15.9614L23.7236 16.0229L23.9639 20.8901L22.9277 21.9644C22.8121 22.0841 22.6635 22.1029 22.5684 22.0513L22.5586 22.0464L22.5488 22.0435L21.666 21.7778L21.4297 20.9106L21.1914 16.4731L21.1875 16.3979L21.1133 16.3794C21.0198 16.3565 20.9282 16.3297 20.8389 16.2983L20.7803 16.2778L20.7783 16.2788L20.334 16.1392C20.3351 16.0974 20.3178 16.0547 20.2764 16.0288C19.4812 15.5324 18.9491 14.6428 18.9023 13.5171C18.9002 13.4642 18.8985 13.4107 18.8984 13.3579C18.8977 11.3656 20.4245 9.42803 22.3701 8.98779C22.6074 8.93411 22.8399 8.90489 23.0654 8.89893L23.2881 8.90088L23.2988 8.8999C23.3451 8.8968 23.381 8.86947 23.4014 8.8335L23.7783 8.9585Z" fill="black" stroke="black" stroke-width="0.203704"/>
</mask>
<g mask="url(#mask2_264_8151)">
<path d="M23.7783 8.9585V8.95947L23.79 8.96143C25.0898 9.22989 26.0432 10.3241 26.1064 11.8481C26.1078 11.8801 26.1088 11.9129 26.1094 11.9448V12.0405C26.0966 13.6099 25.1393 15.1443 23.7744 15.9302L23.7207 15.9614L23.7236 16.0229L23.9639 20.8901L22.9277 21.9644C22.8121 22.0841 22.6635 22.1029 22.5684 22.0513L22.5586 22.0464L22.5488 22.0435L21.666 21.7778L21.4297 20.9106L21.1914 16.4731L21.1875 16.3979L21.1133 16.3794C21.0198 16.3565 20.9282 16.3297 20.8389 16.2983L20.7803 16.2778L20.7783 16.2788L20.334 16.1392C20.3351 16.0974 20.3178 16.0547 20.2764 16.0288C19.4812 15.5324 18.9491 14.6428 18.9023 13.5171C18.9002 13.4642 18.8985 13.4107 18.8984 13.3579C18.8977 11.3656 20.4245 9.42803 22.3701 8.98779C22.6074 8.93411 22.8399 8.90489 23.0654 8.89893L23.2881 8.90088L23.2988 8.8999C23.3451 8.8968 23.381 8.86947 23.4014 8.8335L23.7783 8.9585Z" fill="black" stroke="black" stroke-width="0.203704"/>
<path d="M24.905 9.7915C25.1965 9.9898 25.6749 10.6342 25.8248 11.4585C25.9747 12.2828 25.7312 12.978 25.5854 13.3118" stroke="#25D17F" stroke-width="0.203704" stroke-linecap="round"/>
<path d="M23.7011 20.6038L23.582 18.3726" stroke="#25D17F" stroke-width="0.203704" stroke-linecap="round"/>
<path d="M23.7783 8.9585V8.95947L23.79 8.96143C25.0898 9.22989 26.0432 10.3241 26.1064 11.8481C26.1078 11.8801 26.1088 11.9129 26.1094 11.9448V12.0405C26.0966 13.6099 25.1393 15.1443 23.7744 15.9302L23.7207 15.9614L23.7236 16.0229L23.9639 20.8901L22.9277 21.9644C22.8121 22.0841 22.6635 22.1029 22.5684 22.0513L22.5586 22.0464L22.5488 22.0435L21.666 21.7778L21.4297 20.9106L21.1914 16.4731L21.1875 16.3979L21.1133 16.3794C21.0198 16.3565 20.9282 16.3297 20.8389 16.2983L20.7803 16.2778L20.7783 16.2788L20.334 16.1392C20.3351 16.0974 20.3178 16.0547 20.2764 16.0288C19.4812 15.5324 18.9491 14.6428 18.9023 13.5171C18.9002 13.4642 18.8985 13.4107 18.8984 13.3579C18.8977 11.3656 20.4245 9.42803 22.3701 8.98779C22.6074 8.93411 22.8399 8.90489 23.0654 8.89893L23.2881 8.90088L23.2988 8.8999C23.3451 8.8968 23.381 8.86947 23.4014 8.8335L23.7783 8.9585Z" stroke="black" stroke-width="0.203704"/>
</g>
<mask id="mask3_264_8151" style="mask-type:alpha" maskUnits="userSpaceOnUse" x="17" y="8" width="9" height="14">
<path d="M21.3623 8.67725C22.3575 8.45217 23.2695 8.66226 23.9424 9.17725C24.6153 9.69251 25.0564 10.5187 25.0986 11.5386C25.1663 13.1732 24.1873 14.8015 22.7666 15.6196L22.7129 15.6509L22.7158 15.7134L22.9561 20.5796L21.9199 21.6548C21.7804 21.7991 21.599 21.7961 21.5088 21.7026L20.4199 20.5747L20.1836 16.1636L20.1787 16.0874L20.1055 16.0698L19.876 16.0034C18.7502 15.629 17.9521 14.5969 17.8945 13.2065C17.8098 11.1601 19.3646 9.12928 21.3623 8.67725Z" fill="white" stroke="black" stroke-width="0.203704"/>
</mask>
<g mask="url(#mask3_264_8151)">
<path d="M21.3623 8.67725C22.3575 8.45217 23.2695 8.66226 23.9424 9.17725C24.6153 9.69251 25.0564 10.5187 25.0986 11.5386C25.1663 13.1732 24.1873 14.8015 22.7666 15.6196L22.7129 15.6509L22.7158 15.7134L22.9561 20.5796L21.9199 21.6548C21.7804 21.7991 21.599 21.7961 21.5088 21.7026L20.4199 20.5747L20.1836 16.1636L20.1787 16.0874L20.1055 16.0698L19.876 16.0034C18.7502 15.629 17.9521 14.5969 17.8945 13.2065C17.8098 11.1601 19.3646 9.12928 21.3623 8.67725Z" fill="white" stroke="black" stroke-width="0.203704"/>
<path d="M21.4753 21.0962L22.3243 20.2265L22.1794 17.2344" stroke="#25D17F" stroke-width="0.203704" stroke-linecap="round"/>
<path d="M20.9414 16.2515L21.2294 16.6621L21.552 22.6947L21.2903 22.7536L20.9414 16.2515Z" fill="black"/>
<path d="M21.3623 8.67725C22.3575 8.45217 23.2695 8.66226 23.9424 9.17725C24.6153 9.69251 25.0564 10.5187 25.0986 11.5386C25.1663 13.1732 24.1873 14.8015 22.7666 15.6196L22.7129 15.6509L22.7158 15.7134L22.9561 20.5796L21.9199 21.6548C21.7804 21.7991 21.599 21.7961 21.5088 21.7026L20.4199 20.5747L20.1836 16.1636L20.1787 16.0874L20.1055 16.0698L19.876 16.0034C18.7502 15.629 17.9521 14.5969 17.8945 13.2065C17.8098 11.1601 19.3646 9.12928 21.3623 8.67725Z" stroke="black" stroke-width="0.203704"/>
</g>
<circle cx="3.1935" cy="3.1935" r="2.9898" transform="matrix(0.975342 -0.220697 0.0413525 0.999145 18.2109 9.90771)" stroke="#25D17F" stroke-width="0.407407"/>
<mask id="mask4_264_8151" style="mask-type:alpha" maskUnits="userSpaceOnUse" x="19" y="10" width="5" height="5">
<circle cx="1.84751" cy="1.84751" r="1.84751" transform="matrix(0.975342 -0.220697 0.0413525 0.999145 19.5793 10.9556)" fill="black"/>
</mask>
<g mask="url(#mask4_264_8151)">
<circle cx="1.84751" cy="1.84751" r="1.84751" transform="matrix(0.975342 -0.220697 0.0413525 0.999145 19.5793 10.9556)" fill="black"/>
<path d="M19.5794 11.5008L20.0994 11.4062L20.1479 12.6918L19.6278 12.7864L19.5794 11.5008Z" fill="#25D17F"/>
<path d="M20.5415 11.9305L21.0616 11.8359L21.0885 12.8124L20.5684 12.907L20.5415 11.9305Z" fill="#25D17F"/>
<path d="M22.4946 12.743L23.0147 12.6484L23.0416 13.6249L22.5216 13.7195L22.4946 12.743Z" fill="#25D17F"/>
<path d="M21.5012 11.4501L22.0213 11.3555L22.0786 13.4291L21.5585 13.5237L21.5012 11.4501Z" fill="#25D17F"/>
<path d="M19.6484 13.1244L20.1685 13.0298L20.1941 13.6934L19.674 13.788L19.6484 13.1244Z" fill="#25D17F"/>
<path d="M21.4661 10.4305L21.9861 10.3359L22.0117 10.9996L21.4916 11.0942L21.4661 10.4305Z" fill="#25D17F"/>
<path d="M22.4519 11.7289L22.972 11.6343L22.9976 12.2979L22.4775 12.3925L22.4519 11.7289Z" fill="#25D17F"/>
</g>
</g>
</g>
<g clip-path="url(#clip3_264_8151)">
<mask id="mask5_264_8151" style="mask-type:luminance" maskUnits="userSpaceOnUse" x="0" y="0" width="32" height="32">
<path d="M32 16C32 7.16344 24.8366 0 16 0C7.16344 0 0 7.16344 0 16C0 24.8366 7.16344 32 16 32C24.8366 32 32 24.8366 32 16Z" fill="white"/>
</mask>
<g mask="url(#mask5_264_8151)">
<path d="M16 32C24.8366 32 32 24.8366 32 16C32 7.16344 24.8366 0 16 0C7.16344 0 0 7.16344 0 16C0 24.8366 7.16344 32 16 32Z" fill="#F3F3F3" fill-opacity="0.04"/>
<mask id="mask6_264_8151" style="mask-type:luminance" maskUnits="userSpaceOnUse" x="4" y="4" width="24" height="24">
<path d="M28 4H4V28H28V4Z" fill="white"/>
</mask>
<g mask="url(#mask6_264_8151)">
<mask id="mask7_264_8151" style="mask-type:alpha" maskUnits="userSpaceOnUse" x="7" y="7" width="18" height="18">
<path d="M8.10601 23.2962C7.94714 23.1914 7.85414 23.0007 7.88654 22.7692C8.32374 19.6462 10.4917 16.8048 13.3692 15.5415C11.9046 15.162 10.8419 13.8843 10.7709 12.1672C10.6739 9.82522 12.4515 7.55769 14.7413 7.10222C15.5677 6.93789 16.3478 7.03196 17.0119 7.32936C17.012 7.32662 17.012 7.32396 17.0121 7.32129L19.2495 8.39682L19.2427 8.39796C20.2998 8.96576 21.0164 10.076 21.0744 11.4768C21.1369 12.9873 20.4168 14.4659 19.2833 15.4474C19.4129 15.5072 19.54 15.5712 19.6645 15.6394L21.1537 16.3454C22.95 17.1204 24.2941 18.7 24.7826 20.7698C24.8702 21.141 24.5801 21.54 24.1951 21.6166L10.5457 24.3316C10.3823 24.3642 10.2309 24.3328 10.1151 24.2554L10.1137 24.2573L8.22267 23.3533C8.18407 23.34 8.14774 23.3226 8.11421 23.3014L8.10534 23.2972L8.10601 23.2962Z" fill="black"/>
</mask>
<g mask="url(#mask7_264_8151)">
<path d="M8.10601 23.2962C7.94714 23.1914 7.85414 23.0007 7.88654 22.7692C8.32374 19.6462 10.4917 16.8048 13.3692 15.5415C11.9046 15.162 10.8419 13.8843 10.7709 12.1672C10.6739 9.82522 12.4515 7.55769 14.7413 7.10222C15.5677 6.93789 16.3478 7.03196 17.0119 7.32936C17.012 7.32662 17.012 7.32396 17.0121 7.32129L19.2495 8.39682L19.2427 8.39796C20.2998 8.96576 21.0164 10.076 21.0744 11.4768C21.1369 12.9873 20.4168 14.4659 19.2833 15.4474C19.4129 15.5072 19.54 15.5712 19.6645 15.6394L21.1537 16.3454C22.95 17.1204 23.1768 18.9301 23.6653 20.9998C23.7529 21.371 23.0961 21.8318 23.0961 21.8318L10.5457 24.3316C10.3823 24.3642 10.2309 24.3328 10.1151 24.2554L10.1137 24.2573L8.22267 23.3533C8.18407 23.34 8.14774 23.3226 8.11421 23.3014L8.10534 23.2972L8.10601 23.2962Z" fill="black"/>
<path d="M18.2798 15.5329C19.3889 14.7843 20.1969 13.5705 20.4199 12.2495C20.4702 11.9511 20.4907 11.6471 20.4781 11.3419C20.4561 10.8113 20.2302 10.1137 19.9218 9.71826" stroke="#25D17F" stroke-width="0.5" stroke-linecap="round"/>
<path d="M11.8958 23.3929L14.8212 22.8135" stroke="#25D17F" stroke-width="0.4" stroke-linecap="round"/>
<path d="M9.0527 22.251L12.5373 24.2979L10.5605 24.8224C9.5801 24.2359 7.56684 23.0472 7.35677 22.9842C7.14664 22.9212 8.39617 22.4695 9.0527 22.251Z" fill="#44494F"/>
<path d="M8.20033 23.1587L8.1976 23.1569C8.09546 23.0895 8.02746 22.9636 8.05146 22.7921C8.48053 19.7268 10.6111 16.9341 13.4361 15.6939L13.8763 15.5007L13.4109 15.38C12.0207 15.0197 11.0054 13.8074 10.9373 12.1601C10.8437 9.89973 12.5649 7.70487 14.7737 7.26553C15.5679 7.1076 16.3127 7.19873 16.9437 7.48127L17.1757 7.58513L19.0888 8.5044L19.1637 8.5446C20.166 9.083 20.8521 10.1382 20.9077 11.4836C20.9679 12.9375 20.2737 14.369 19.1741 15.3213L18.9787 15.4904L19.2133 15.5986C19.3395 15.6568 19.4632 15.7191 19.5843 15.7854L19.5886 15.7877L19.5929 15.7898L21.0822 16.4958L21.0876 16.4983C22.8031 17.2383 23.3483 18.638 23.8356 20.7015C23.8353 20.7044 23.8336 20.7189 23.8177 20.7495C23.796 20.791 23.7574 20.8436 23.7007 20.9056C23.5879 21.029 23.4251 21.1663 23.253 21.2972C23.0822 21.427 22.9079 21.546 22.7759 21.6329C22.7101 21.6762 22.655 21.7113 22.6165 21.7355C22.6081 21.7408 22.6005 21.7455 22.5938 21.7498C22.5893 21.7526 22.5852 21.7551 22.5815 21.7574L10.513 24.168C10.3879 24.1929 10.2813 24.1687 10.2062 24.1185L10.1963 24.1119L10.1855 24.1067L8.2944 23.2028L8.28573 23.1986L8.27666 23.1955C8.25013 23.1864 8.22546 23.1745 8.20306 23.1604L8.20033 23.1587Z" stroke="black" stroke-width="0.5" stroke-linecap="round"/>
</g>
<mask id="mask8_264_8151" style="mask-type:alpha" maskUnits="userSpaceOnUse" x="7" y="6" width="16" height="18">
<path d="M16.045 14.7225L15.615 15.0127L16.0886 15.0302C18.9614 15.1365 21.2766 17.0332 21.9466 19.872C22.0084 20.1341 21.8052 20.431 21.5115 20.4894L7.8621 23.2044C7.5683 23.2628 7.3439 23.0508 7.38343 22.7686C7.81117 19.7128 9.93263 16.9325 12.7478 15.6966L13.2126 15.4926L12.7656 15.3767C11.3583 15.012 10.3376 13.7843 10.2693 12.1348C10.1762 9.88431 11.8843 7.70638 14.0832 7.26898C16.2822 6.83158 18.1412 8.29998 18.2342 10.5486C18.3025 12.1982 17.3993 13.8084 16.045 14.7225Z" fill="white" stroke="black" stroke-width="0.5" stroke-linecap="round"/>
</mask>
<g mask="url(#mask8_264_8151)">
<path d="M16.045 14.7225L15.615 15.0127L16.0886 15.0302C18.9614 15.1365 21.2766 17.0332 21.9466 19.872C22.0084 20.1341 21.8052 20.431 21.5115 20.4894L7.8621 23.2044C7.5683 23.2628 7.3439 23.0508 7.38343 22.7686C7.81117 19.7128 9.93263 16.9325 12.7478 15.6966L13.2126 15.4926L12.7656 15.3767C11.3583 15.012 10.3376 13.7843 10.2693 12.1348C10.1762 9.88431 11.8843 7.70638 14.0832 7.26898C16.2822 6.83158 18.1412 8.29998 18.2342 10.5486C18.3025 12.1982 17.3993 13.8084 16.045 14.7225Z" fill="#777E87" stroke="black" stroke-width="0.5" stroke-linecap="round"/>
<path d="M12.9586 16.5527C13.9268 18.1653 16.4787 16.7638 16.1976 14.9404C18.1398 15.094 19.4703 16.206 19.9496 18.0928C20.0149 18.35 19.8137 18.6471 19.5188 18.7058L9.66409 20.666C9.37122 20.7242 9.14336 20.513 9.17776 20.2271C9.30942 19.1331 9.61689 18.1415 10.139 17.3154C10.638 16.5258 11.3384 15.8789 12.2877 15.4354L12.9586 16.5527Z" fill="#777E87" stroke="black" stroke-width="0.5" stroke-linecap="round"/>
<path d="M17.5201 15.0166C20.4532 15.1251 21.6176 16.9247 22.1275 19.8009C22.1947 20.1796 21.9054 20.5782 21.5203 20.6548L7.87092 23.3698C7.48566 23.4465 7.16872 23.1684 7.19819 22.7696C7.42332 19.7207 8.13986 17.3643 11.0151 16.102L12.0778 17.6446C13.7085 20.0117 17.6717 18.098 17.5201 15.0166Z" fill="#25D17F"/>
<path fill-rule="evenodd" clip-rule="evenodd" d="M9.80348 19.5225C9.94662 19.4107 10.1256 19.4194 10.2012 19.5459L10.9718 20.8211C11.0474 20.9455 10.9932 21.1402 10.85 21.2521C10.7069 21.3639 10.5279 21.3551 10.4524 21.2287L9.67962 19.9559C9.60408 19.8295 9.66028 19.6364 9.80348 19.5225ZM11.8966 19.0593C11.8709 19.0505 11.8431 19.0483 11.817 19.0538L10.9283 19.2427C10.9002 19.2487 10.8718 19.2629 10.8473 19.2823C10.7696 19.3436 10.7402 19.4496 10.7798 19.5185L11.1972 20.2094C11.2104 20.231 11.2297 20.2513 11.2553 20.2601C11.33 20.2891 11.4292 20.2415 11.4759 20.1542L11.9474 19.2703C11.994 19.1831 11.9713 19.0882 11.8966 19.0593Z" fill="#777E87"/>
<path d="M12.8071 12.7304C12.9537 13.0103 13.4403 13.5289 14.2138 13.3645C14.9873 13.2 15.4008 12.4902 15.5109 12.1558" stroke="black" stroke-width="0.6" stroke-linecap="round"/>
<path d="M16.045 14.7225L15.615 15.0127L16.0886 15.0302C18.9614 15.1365 21.2766 17.0332 21.9466 19.872C22.0084 20.1341 21.8052 20.431 21.5115 20.4894L7.8621 23.2044C7.5683 23.2628 7.3439 23.0508 7.38343 22.7686C7.81117 19.7128 9.93263 16.9325 12.7478 15.6966L13.2126 15.4926L12.7656 15.3767C11.3583 15.012 10.3376 13.7843 10.2693 12.1348C10.1762 9.88431 11.8843 7.70638 14.0832 7.26898C16.2822 6.83158 18.1412 8.29998 18.2342 10.5486C18.3025 12.1982 17.3993 13.8084 16.045 14.7225Z" stroke="black" stroke-width="0.5" stroke-linecap="round"/>
</g>
<mask id="mask9_264_8151" style="mask-type:alpha" maskUnits="userSpaceOnUse" x="18" y="8" width="9" height="15">
<path d="M26.2111 11.9428C26.2106 11.91 26.2097 11.8772 26.2083 11.8444C26.1434 10.2763 25.1591 9.14049 23.8107 8.86196L23.3304 8.70316C23.3017 8.69363 23.2821 8.73196 23.3066 8.74963C23.3273 8.76463 23.3167 8.79703 23.2924 8.79869C22.9889 8.78616 22.6721 8.81463 22.3473 8.88809C20.3545 9.33903 18.796 11.3188 18.7969 13.3582C18.7969 13.4124 18.798 13.4666 18.8003 13.5208C18.8481 14.678 19.3967 15.5998 20.2228 16.1154C20.2429 16.1279 20.2342 16.1598 20.2105 16.1598C20.1839 16.1598 20.1781 16.1972 20.2035 16.2052L20.8047 16.3948C20.8973 16.4273 20.9925 16.4552 21.0894 16.4788L21.3291 20.9294L21.5832 21.86L22.5194 22.1412C22.6629 22.2192 22.8605 22.1806 23.001 22.0352L24.0688 20.9294L23.8252 16.0181C25.2191 15.2156 26.1987 13.6492 26.2115 12.0409C26.2118 12.0082 26.2117 11.9755 26.2111 11.9428Z" fill="black"/>
<mask id="mask10_264_8151" style="mask-type:alpha" maskUnits="userSpaceOnUse" x="18" y="8" width="9" height="15">
<path d="M26.2111 11.9428C26.2106 11.91 26.2097 11.8772 26.2083 11.8444C26.1434 10.2763 25.1591 9.14049 23.8107 8.86196L23.3304 8.70316C23.3017 8.69363 23.2821 8.73196 23.3066 8.74963C23.3273 8.76463 23.3167 8.79703 23.2924 8.79869C22.9889 8.78616 22.6721 8.81463 22.3473 8.88809C20.3545 9.33903 18.796 11.3188 18.7969 13.3582C18.7969 13.4124 18.798 13.4666 18.8003 13.5208C18.8481 14.678 19.3967 15.5998 20.2228 16.1154C20.2429 16.1279 20.2342 16.1598 20.2105 16.1598C20.1839 16.1598 20.1781 16.1972 20.2035 16.2052L20.8047 16.3948C20.8973 16.4273 20.9925 16.4552 21.0894 16.4788L21.3291 20.9294L21.5832 21.86L22.5194 22.1412C22.6629 22.2192 22.8605 22.1806 23.001 22.0352L24.0688 20.9294L23.8252 16.0181C25.2191 15.2156 26.1987 13.6492 26.2115 12.0409C26.2118 12.0082 26.2117 11.9755 26.2111 11.9428Z" fill="white"/>
</mask>
<g mask="url(#mask10_264_8151)">
<path d="M23.8107 8.86174L23.7468 9.05514L23.758 9.05887L23.7695 9.06127L23.8107 8.86174ZM23.2925 8.79847L23.2841 9.002L23.2951 9.00247L23.3061 9.00174L23.2925 8.79847ZM20.8047 16.3946L20.7435 16.5889L20.8577 16.6249L20.9448 16.5426L20.8047 16.3946ZM20.8047 16.3946L20.8726 16.2021L20.7553 16.1609L20.6651 16.2463L20.8047 16.3946ZM21.0895 16.4786L21.2929 16.4676L21.2847 16.3166L21.1378 16.2807L21.0895 16.4786ZM21.3291 20.9291L21.1257 20.9401L21.1269 20.9619L21.1327 20.9828L21.3291 20.9291ZM21.5833 21.8598L21.3867 21.9135L21.4165 22.0224L21.5247 22.0549L21.5833 21.8598ZM24.0689 20.9291L24.2154 21.0707L24.2767 21.0072L24.2723 20.9191L24.0689 20.9291ZM23.8253 16.0179L23.7236 15.8413L23.6156 15.9035L23.6218 16.028L23.8253 16.0179ZM22.5195 22.141L22.6167 21.962L22.5982 21.952L22.5781 21.9459L22.5195 22.141ZM26.4149 11.9392C26.4143 11.9047 26.4133 11.8703 26.4119 11.8357L26.0049 11.8526C26.0061 11.8837 26.007 11.9148 26.0075 11.9459L26.4149 11.9392ZM26.4119 11.8357C26.3434 10.1801 25.2975 8.96087 23.8519 8.66227L23.7695 9.06127C25.0209 9.31974 25.9435 10.3721 26.0049 11.8526L26.4119 11.8357ZM23.8747 8.66834L23.3945 8.50954L23.2665 8.89634L23.7468 9.05514L23.8747 8.66834ZM23.3945 8.50954C23.1447 8.42694 22.9741 8.76034 23.1873 8.91447L23.4261 8.58434C23.5903 8.70307 23.4589 8.95994 23.2665 8.89634L23.3945 8.50954ZM23.1873 8.91447C23.1177 8.86407 23.1029 8.781 23.1215 8.71967C23.1394 8.66094 23.1946 8.60087 23.2788 8.5952L23.3061 9.00174C23.5081 8.98814 23.6114 8.71834 23.4261 8.58434L23.1873 8.91447ZM23.3009 8.59494C22.9787 8.58167 22.644 8.61194 22.3023 8.6892L22.3923 9.0866C22.7003 9.01687 22.9991 8.99027 23.2841 9.002L23.3009 8.59494ZM22.3023 8.6892C20.2153 9.16147 18.5923 11.2249 18.5933 13.358L19.0007 13.3578C18.9998 11.4123 20.4937 9.5162 22.3923 9.0866L22.3023 8.6892ZM18.5933 13.358C18.5933 13.4149 18.5945 13.472 18.5968 13.529L19.0039 13.5122C19.0017 13.4607 19.0007 13.4093 19.0007 13.3578L18.5933 13.358ZM18.5968 13.529C18.6473 14.7484 19.2277 15.7341 20.1151 16.2879L20.3307 15.9423C19.5659 15.4649 19.0492 14.6072 19.0039 13.5122L18.5968 13.529ZM20.1151 16.2879C19.9689 16.1967 20.0209 15.9559 20.2105 15.9559V16.3633C20.4477 16.3633 20.5172 16.0587 20.3307 15.9423L20.1151 16.2879ZM20.2105 15.9559C19.9509 15.9559 19.8947 16.3211 20.1423 16.3992L20.2648 16.0107C20.4617 16.0728 20.4169 16.3633 20.2105 16.3633V15.9559ZM20.1423 16.3992L20.7435 16.5889L20.8661 16.2003L20.2648 16.0107L20.1423 16.3992ZM20.7377 16.5865C20.8366 16.6212 20.9378 16.6512 21.0411 16.6765L21.1378 16.2807C21.0473 16.2586 20.9589 16.2323 20.8726 16.2021L20.7377 16.5865ZM20.8861 16.4895L21.1257 20.9401L21.5326 20.9182L21.2929 16.4676L20.8861 16.4895ZM21.1327 20.9828L21.3867 21.9135L21.7797 21.8061L21.5257 20.8755L21.1327 20.9828ZM23.1476 22.1765L24.2154 21.0707L23.9223 20.7877L22.8545 21.8935L23.1476 22.1765ZM24.2723 20.9191L24.0287 16.0078L23.6218 16.028L23.8654 20.9393L24.2723 20.9191ZM23.9269 16.1944C25.3786 15.3585 26.4018 13.7283 26.4153 12.0423L26.0079 12.0391C25.9957 13.5697 25.0597 15.0721 23.7236 15.8413L23.9269 16.1944ZM26.4153 12.0423C26.4156 12.0079 26.4155 11.9736 26.4149 11.9392L26.0075 11.9459C26.0081 11.977 26.0082 12.008 26.0079 12.0391L26.4153 12.0423ZM21.5247 22.0549L22.4609 22.3361L22.5781 21.9459L21.6418 21.6647L21.5247 22.0549ZM22.4223 22.3201C22.6627 22.4506 22.9575 22.3733 23.1476 22.1765L22.8545 21.8935C22.7637 21.9876 22.6633 21.9873 22.6167 21.962L22.4223 22.3201Z" fill="black"/>
</g>
</mask>
<g mask="url(#mask9_264_8151)">
<path d="M26.2111 11.9428C26.2106 11.91 26.2097 11.8772 26.2083 11.8444C26.1434 10.2763 25.1591 9.14049 23.8107 8.86196L23.3304 8.70316C23.3017 8.69363 23.2821 8.73196 23.3066 8.74963C23.3273 8.76463 23.3167 8.79703 23.2924 8.79869C22.9889 8.78616 22.6721 8.81463 22.3473 8.88809C20.3545 9.33903 18.796 11.3188 18.7969 13.3582C18.7969 13.4124 18.798 13.4666 18.8003 13.5208C18.8481 14.678 19.3967 15.5998 20.2228 16.1154C20.2429 16.1279 20.2342 16.1598 20.2105 16.1598C20.1839 16.1598 20.1781 16.1972 20.2035 16.2052L20.8047 16.3948C20.8973 16.4273 20.9925 16.4552 21.0894 16.4788L21.3291 20.9294L21.5832 21.86L22.5194 22.1412C22.6629 22.2192 22.8605 22.1806 23.001 22.0352L24.0688 20.9294L23.8252 16.0181C25.2191 15.2156 26.1987 13.6492 26.2115 12.0409C26.2118 12.0082 26.2117 11.9755 26.2111 11.9428Z" fill="black"/>
<mask id="mask11_264_8151" style="mask-type:luminance" maskUnits="userSpaceOnUse" x="18" y="8" width="9" height="15">
<path d="M26.2111 11.9428C26.2106 11.91 26.2097 11.8772 26.2083 11.8444C26.1434 10.2763 25.1591 9.14049 23.8107 8.86196L23.3304 8.70316C23.3017 8.69363 23.2821 8.73196 23.3066 8.74963C23.3273 8.76463 23.3167 8.79703 23.2924 8.79869C22.9889 8.78616 22.6721 8.81463 22.3473 8.88809C20.3545 9.33903 18.796 11.3188 18.7969 13.3582C18.7969 13.4124 18.798 13.4666 18.8003 13.5208C18.8481 14.678 19.3967 15.5998 20.2228 16.1154C20.2429 16.1279 20.2342 16.1598 20.2105 16.1598C20.1839 16.1598 20.1781 16.1972 20.2035 16.2052L20.8047 16.3948C20.8973 16.4273 20.9925 16.4552 21.0894 16.4788L21.3291 20.9294L21.5832 21.86L22.5194 22.1412C22.6629 22.2192 22.8605 22.1806 23.001 22.0352L24.0688 20.9294L23.8252 16.0181C25.2191 15.2156 26.1987 13.6492 26.2115 12.0409C26.2118 12.0082 26.2117 11.9755 26.2111 11.9428Z" fill="white"/>
</mask>
<g mask="url(#mask11_264_8151)">
<path d="M23.8107 8.86174L23.7468 9.05514L23.758 9.05887L23.7695 9.06127L23.8107 8.86174ZM23.2925 8.79847L23.2841 9.002L23.2951 9.00247L23.3061 9.00174L23.2925 8.79847ZM20.8047 16.3946L20.7435 16.5889L20.8577 16.6249L20.9448 16.5426L20.8047 16.3946ZM20.8047 16.3946L20.8726 16.2021L20.7553 16.1609L20.6651 16.2463L20.8047 16.3946ZM21.0895 16.4786L21.2929 16.4676L21.2847 16.3166L21.1378 16.2807L21.0895 16.4786ZM21.3291 20.9291L21.1257 20.9401L21.1269 20.9619L21.1327 20.9828L21.3291 20.9291ZM21.5833 21.8598L21.3867 21.9135L21.4165 22.0224L21.5247 22.0549L21.5833 21.8598ZM24.0689 20.9291L24.2154 21.0707L24.2767 21.0072L24.2723 20.9191L24.0689 20.9291ZM23.8253 16.0179L23.7236 15.8413L23.6156 15.9035L23.6218 16.028L23.8253 16.0179ZM22.5195 22.141L22.6167 21.962L22.5982 21.952L22.5781 21.9459L22.5195 22.141ZM26.4149 11.9392C26.4143 11.9047 26.4133 11.8703 26.4119 11.8357L26.0049 11.8526C26.0061 11.8837 26.007 11.9148 26.0075 11.9459L26.4149 11.9392ZM26.4119 11.8357C26.3434 10.1801 25.2975 8.96087 23.8519 8.66227L23.7695 9.06127C25.0209 9.31974 25.9435 10.3721 26.0049 11.8526L26.4119 11.8357ZM23.8747 8.66834L23.3945 8.50954L23.2665 8.89634L23.7468 9.05514L23.8747 8.66834ZM23.3945 8.50954C23.1447 8.42694 22.9741 8.76034 23.1873 8.91447L23.4261 8.58434C23.5903 8.70307 23.4589 8.95994 23.2665 8.89634L23.3945 8.50954ZM23.1873 8.91447C23.1177 8.86407 23.1029 8.781 23.1215 8.71967C23.1394 8.66094 23.1946 8.60087 23.2788 8.5952L23.3061 9.00174C23.5081 8.98814 23.6114 8.71834 23.4261 8.58434L23.1873 8.91447ZM23.3009 8.59494C22.9787 8.58167 22.644 8.61194 22.3023 8.6892L22.3923 9.0866C22.7003 9.01687 22.9991 8.99027 23.2841 9.002L23.3009 8.59494ZM22.3023 8.6892C20.2153 9.16147 18.5923 11.2249 18.5933 13.358L19.0007 13.3578C18.9998 11.4123 20.4937 9.5162 22.3923 9.0866L22.3023 8.6892ZM18.5933 13.358C18.5933 13.4149 18.5945 13.472 18.5968 13.529L19.0039 13.5122C19.0017 13.4607 19.0007 13.4093 19.0007 13.3578L18.5933 13.358ZM18.5968 13.529C18.6473 14.7484 19.2277 15.7341 20.1151 16.2879L20.3307 15.9423C19.5659 15.4649 19.0492 14.6072 19.0039 13.5122L18.5968 13.529ZM20.1151 16.2879C19.9689 16.1967 20.0209 15.9559 20.2105 15.9559V16.3633C20.4477 16.3633 20.5172 16.0587 20.3307 15.9423L20.1151 16.2879ZM20.2105 15.9559C19.9509 15.9559 19.8947 16.3211 20.1423 16.3992L20.2648 16.0107C20.4617 16.0728 20.4169 16.3633 20.2105 16.3633V15.9559ZM20.1423 16.3992L20.7435 16.5889L20.8661 16.2003L20.2648 16.0107L20.1423 16.3992ZM20.7377 16.5865C20.8366 16.6212 20.9378 16.6512 21.0411 16.6765L21.1378 16.2807C21.0473 16.2586 20.9589 16.2323 20.8726 16.2021L20.7377 16.5865ZM20.8861 16.4895L21.1257 20.9401L21.5326 20.9182L21.2929 16.4676L20.8861 16.4895ZM21.1327 20.9828L21.3867 21.9135L21.7797 21.8061L21.5257 20.8755L21.1327 20.9828ZM23.1476 22.1765L24.2154 21.0707L23.9223 20.7877L22.8545 21.8935L23.1476 22.1765ZM24.2723 20.9191L24.0287 16.0078L23.6218 16.028L23.8654 20.9393L24.2723 20.9191ZM23.9269 16.1944C25.3786 15.3585 26.4018 13.7283 26.4153 12.0423L26.0079 12.0391C25.9957 13.5697 25.0597 15.0721 23.7236 15.8413L23.9269 16.1944ZM26.4153 12.0423C26.4156 12.0079 26.4155 11.9736 26.4149 11.9392L26.0075 11.9459C26.0081 11.977 26.0082 12.008 26.0079 12.0391L26.4153 12.0423ZM21.5247 22.0549L22.4609 22.3361L22.5781 21.9459L21.6418 21.6647L21.5247 22.0549ZM22.4223 22.3201C22.6627 22.4506 22.9575 22.3733 23.1476 22.1765L22.8545 21.8935C22.7637 21.9876 22.6633 21.9873 22.6167 21.962L22.4223 22.3201Z" fill="black"/>
</g>
<path d="M24.9036 9.7915C25.195 9.98977 25.6734 10.6342 25.8233 11.4584C25.9732 12.2828 25.7297 12.978 25.584 13.3118" stroke="#25D17F" stroke-width="0.305556" stroke-linecap="round"/>
<path d="M23.7023 20.6033L23.5833 18.3721" stroke="#25D17F" stroke-width="0.305556" stroke-linecap="round"/>
<mask id="mask12_264_8151" style="mask-type:luminance" maskUnits="userSpaceOnUse" x="18" y="8" width="9" height="15">
<path d="M26.2111 11.9428C26.2106 11.91 26.2097 11.8772 26.2083 11.8444C26.1434 10.2763 25.1591 9.14049 23.8107 8.86196L23.3304 8.70316C23.3017 8.69363 23.2821 8.73196 23.3066 8.74963C23.3273 8.76463 23.3167 8.79703 23.2924 8.79869C22.9889 8.78616 22.6721 8.81463 22.3473 8.88809C20.3545 9.33903 18.796 11.3188 18.7969 13.3582C18.7969 13.4124 18.798 13.4666 18.8003 13.5208C18.8481 14.678 19.3967 15.5998 20.2228 16.1154C20.2429 16.1279 20.2342 16.1598 20.2105 16.1598C20.1839 16.1598 20.1781 16.1972 20.2035 16.2052L20.8047 16.3948C20.8973 16.4273 20.9925 16.4552 21.0894 16.4788L21.3291 20.9294L21.5832 21.86L22.5194 22.1412C22.6629 22.2192 22.8605 22.1806 23.001 22.0352L24.0688 20.9294L23.8252 16.0181C25.2191 15.2156 26.1987 13.6492 26.2115 12.0409C26.2118 12.0082 26.2117 11.9755 26.2111 11.9428Z" fill="white"/>
</mask>
<g mask="url(#mask12_264_8151)">
<path d="M23.8107 8.86174L23.7468 9.05514L23.758 9.05887L23.7695 9.06127L23.8107 8.86174ZM23.2925 8.79847L23.2841 9.002L23.2951 9.00247L23.3061 9.00174L23.2925 8.79847ZM20.8047 16.3946L20.7435 16.5889L20.8577 16.6249L20.9448 16.5426L20.8047 16.3946ZM20.8047 16.3946L20.8726 16.2021L20.7553 16.1609L20.6651 16.2463L20.8047 16.3946ZM21.0895 16.4786L21.2929 16.4676L21.2847 16.3166L21.1378 16.2807L21.0895 16.4786ZM21.3291 20.9291L21.1257 20.9401L21.1269 20.9619L21.1327 20.9828L21.3291 20.9291ZM21.5833 21.8598L21.3867 21.9135L21.4165 22.0224L21.5247 22.0549L21.5833 21.8598ZM24.0689 20.9291L24.2154 21.0707L24.2767 21.0072L24.2723 20.9191L24.0689 20.9291ZM23.8253 16.0179L23.7236 15.8413L23.6156 15.9035L23.6218 16.028L23.8253 16.0179ZM22.5195 22.141L22.6167 21.962L22.5982 21.952L22.5781 21.9459L22.5195 22.141ZM26.4149 11.9392C26.4143 11.9047 26.4133 11.8703 26.4119 11.8357L26.0049 11.8526C26.0061 11.8837 26.007 11.9148 26.0075 11.9459L26.4149 11.9392ZM26.4119 11.8357C26.3434 10.1801 25.2975 8.96087 23.8519 8.66227L23.7695 9.06127C25.0209 9.31974 25.9435 10.3721 26.0049 11.8526L26.4119 11.8357ZM23.8747 8.66834L23.3945 8.50954L23.2665 8.89634L23.7468 9.05514L23.8747 8.66834ZM23.3945 8.50954C23.1447 8.42694 22.9741 8.76034 23.1873 8.91447L23.4261 8.58434C23.5903 8.70307 23.4589 8.95994 23.2665 8.89634L23.3945 8.50954ZM23.1873 8.91447C23.1177 8.86407 23.1029 8.781 23.1215 8.71967C23.1394 8.66094 23.1946 8.60087 23.2788 8.5952L23.3061 9.00174C23.5081 8.98814 23.6114 8.71834 23.4261 8.58434L23.1873 8.91447ZM23.3009 8.59494C22.9787 8.58167 22.644 8.61194 22.3023 8.6892L22.3923 9.0866C22.7003 9.01687 22.9991 8.99027 23.2841 9.002L23.3009 8.59494ZM22.3023 8.6892C20.2153 9.16147 18.5923 11.2249 18.5933 13.358L19.0007 13.3578C18.9998 11.4123 20.4937 9.5162 22.3923 9.0866L22.3023 8.6892ZM18.5933 13.358C18.5933 13.4149 18.5945 13.472 18.5968 13.529L19.0039 13.5122C19.0017 13.4607 19.0007 13.4093 19.0007 13.3578L18.5933 13.358ZM18.5968 13.529C18.6473 14.7484 19.2277 15.7341 20.1151 16.2879L20.3307 15.9423C19.5659 15.4649 19.0492 14.6072 19.0039 13.5122L18.5968 13.529ZM20.1151 16.2879C19.9689 16.1967 20.0209 15.9559 20.2105 15.9559V16.3633C20.4477 16.3633 20.5172 16.0587 20.3307 15.9423L20.1151 16.2879ZM20.2105 15.9559C19.9509 15.9559 19.8947 16.3211 20.1423 16.3992L20.2648 16.0107C20.4617 16.0728 20.4169 16.3633 20.2105 16.3633V15.9559ZM20.1423 16.3992L20.7435 16.5889L20.8661 16.2003L20.2648 16.0107L20.1423 16.3992ZM20.7377 16.5865C20.8366 16.6212 20.9378 16.6512 21.0411 16.6765L21.1378 16.2807C21.0473 16.2586 20.9589 16.2323 20.8726 16.2021L20.7377 16.5865ZM20.8861 16.4895L21.1257 20.9401L21.5326 20.9182L21.2929 16.4676L20.8861 16.4895ZM21.1327 20.9828L21.3867 21.9135L21.7797 21.8061L21.5257 20.8755L21.1327 20.9828ZM23.1476 22.1765L24.2154 21.0707L23.9223 20.7877L22.8545 21.8935L23.1476 22.1765ZM24.2723 20.9191L24.0287 16.0078L23.6218 16.028L23.8654 20.9393L24.2723 20.9191ZM23.9269 16.1944C25.3786 15.3585 26.4018 13.7283 26.4153 12.0423L26.0079 12.0391C25.9957 13.5697 25.0597 15.0721 23.7236 15.8413L23.9269 16.1944ZM26.4153 12.0423C26.4156 12.0079 26.4155 11.9736 26.4149 11.9392L26.0075 11.9459C26.0081 11.977 26.0082 12.008 26.0079 12.0391L26.4153 12.0423ZM21.5247 22.0549L22.4609 22.3361L22.5781 21.9459L21.6418 21.6647L21.5247 22.0549ZM22.4223 22.3201C22.6627 22.4506 22.9575 22.3733 23.1476 22.1765L22.8545 21.8935C22.7637 21.9876 22.6633 21.9873 22.6167 21.962L22.4223 22.3201Z" fill="black"/>
</g>
</g>
<mask id="mask13_264_8151" style="mask-type:alpha" maskUnits="userSpaceOnUse" x="17" y="8" width="9" height="14">
<path d="M22.7665 15.6194L22.7125 15.6505L22.7156 15.7127L22.957 20.5801L21.9198 21.6542C21.7804 21.7987 21.5992 21.7959 21.509 21.7024L20.4209 20.5757L20.1832 16.1629L20.1792 16.0873L20.1057 16.0694C18.8601 15.7651 17.9556 14.6895 17.8942 13.2061C17.8095 11.1597 19.3642 9.1292 21.3619 8.6772C22.3574 8.45193 23.2696 8.66213 23.9426 9.1774C24.6156 9.69267 25.0565 10.5185 25.0987 11.5383C25.1664 13.173 24.1873 14.8013 22.7665 15.6194Z" fill="white" stroke="black" stroke-width="0.305556"/>
</mask>
<g mask="url(#mask13_264_8151)">
<path d="M22.7665 15.6194L22.7125 15.6505L22.7156 15.7127L22.957 20.5801L21.9198 21.6542C21.7804 21.7987 21.5992 21.7959 21.509 21.7024L20.4209 20.5757L20.1832 16.1629L20.1792 16.0873L20.1057 16.0694C18.8601 15.7651 17.9556 14.6895 17.8942 13.2061C17.8095 11.1597 19.3642 9.1292 21.3619 8.6772C22.3574 8.45193 23.2696 8.66213 23.9426 9.1774C24.6156 9.69267 25.0565 10.5185 25.0987 11.5383C25.1664 13.173 24.1873 14.8013 22.7665 15.6194Z" fill="#777E87" stroke="black" stroke-width="0.305556"/>
<path d="M21.4739 21.0962L22.3229 20.2265L22.1779 17.2344" stroke="#25D17F" stroke-width="0.203704" stroke-linecap="round"/>
<path d="M20.9426 16.251L21.2306 16.6616L21.5532 22.6941L21.2915 22.7531L20.9426 16.251Z" fill="black"/>
<path d="M22.7665 15.6194L22.7125 15.6505L22.7156 15.7127L22.957 20.5801L21.9198 21.6542C21.7804 21.7987 21.5992 21.7959 21.509 21.7024L20.4209 20.5757L20.1832 16.1629L20.1792 16.0873L20.1057 16.0694C18.8601 15.7651 17.9556 14.6895 17.8942 13.2061C17.8095 11.1597 19.3642 9.1292 21.3619 8.6772C22.3574 8.45193 23.2696 8.66213 23.9426 9.1774C24.6156 9.69267 25.0565 10.5185 25.0987 11.5383C25.1664 13.173 24.1873 14.8013 22.7665 15.6194Z" stroke="black" stroke-width="0.305556"/>
</g>
<path d="M21.5813 15.3806C23.1918 15.0161 24.442 13.3833 24.3737 11.7335C24.3055 10.0837 22.9445 9.04166 21.334 9.40608C19.7235 9.7705 18.4733 11.4033 18.5416 13.0532C18.6099 14.703 19.9708 15.745 21.5813 15.3806Z" stroke="#25D17F" stroke-width="0.41"/>
<mask id="mask14_264_8151" style="mask-type:alpha" maskUnits="userSpaceOnUse" x="19" y="10" width="5" height="5">
<path d="M21.5353 14.2397C22.5305 14.0145 23.3031 13.0055 23.2609 11.986C23.2187 10.9665 22.3777 10.3226 21.3825 10.5478C20.3873 10.773 19.6148 11.782 19.657 12.8015C19.6992 13.821 20.5401 14.4649 21.5353 14.2397Z" fill="black"/>
</mask>
<g mask="url(#mask14_264_8151)">
<path d="M21.5353 14.2397C22.5305 14.0145 23.3031 13.0055 23.2609 11.986C23.2187 10.9665 22.3777 10.3226 21.3825 10.5478C20.3873 10.773 19.6148 11.782 19.657 12.8015C19.6992 13.821 20.5401 14.4649 21.5353 14.2397Z" fill="black"/>
<path d="M19.5781 11.5009L20.0982 11.4062L20.1467 12.6918L19.6266 12.7864L19.5781 11.5009Z" fill="#25D17F"/>
<path d="M20.5415 11.9305L21.0616 11.8359L21.0885 12.8124L20.5684 12.907L20.5415 11.9305Z" fill="#25D17F"/>
<path d="M22.4946 12.743L23.0147 12.6484L23.0416 13.6248L22.5216 13.7194L22.4946 12.743Z" fill="#25D17F"/>
<path d="M21.5 11.4501L22.0201 11.3555L22.0773 13.4291L21.5573 13.5237L21.5 11.4501Z" fill="#25D17F"/>
<path d="M19.6484 13.1244L20.1685 13.0298L20.194 13.6935L19.674 13.7881L19.6484 13.1244Z" fill="#25D17F"/>
<path d="M21.4661 10.4305L21.9861 10.3359L22.0117 10.9996L21.4917 11.0942L21.4661 10.4305Z" fill="#25D17F"/>
<path d="M22.4531 11.7289L22.9732 11.6343L22.9988 12.2979L22.4787 12.3925L22.4531 11.7289Z" fill="#25D17F"/>
</g>
</g>
</g>
</g>
</g>
<defs>
<clipPath id="clip0_264_8151">
<rect width="32" height="32" rx="16" fill="white"/>
</clipPath>
<clipPath id="clip1_264_8151">
<rect width="24" height="24" fill="white" transform="translate(4 4)"/>
</clipPath>
<clipPath id="clip2_264_8151">
<rect width="14.6667" height="14.6667" fill="white" transform="translate(14.6667 8)"/>
</clipPath>
<clipPath id="clip3_264_8151">
<rect width="32" height="32" fill="white"/>
</clipPath>
</defs>
</svg>
