<svg xmlns="http://www.w3.org/2000/svg" width="254" height="152" viewBox="0 0 254 152" fill="none">
  <path d="M38.6699 98.4302H55.5899C56.1399 98.4302 56.6699 98.6502 57.0599 99.0402L59.8599 101.84C60.2499 102.23 60.4699 102.76 60.4699 103.31V116.35C60.4699 116.9 60.2499 117.43 59.8599 117.82L58.9599 118.72C58.8899 118.79 58.8099 118.86 58.7299 118.92C58.3699 119.18 57.0699 120.05 57.0699 120.05L32.6799 117.99C32.2899 117.6 32.0699 117.07 32.0699 116.52V110.07C32.0699 109.52 32.2899 108.99 32.6799 108.6L33.5999 107.68C33.9899 107.29 34.2099 106.76 34.2099 106.21V102.9C34.2099 102.35 34.4299 101.82 34.8199 101.43L35.9799 99.8302C35.9799 99.8302 37.4499 98.8302 37.5799 98.7502C37.9099 98.5402 38.2899 98.4302 38.6899 98.4302H38.6699Z" fill="#5C6C70"/>
  <path d="M37.09 99.5H54.01C54.56 99.5 55.09 99.72 55.48 100.11L58.28 102.91C58.67 103.3 58.89 103.83 58.89 104.38V117.42C58.89 117.97 58.67 118.5 58.28 118.89L57.38 119.79C56.99 120.18 56.46 120.4 55.91 120.4H50.56C50.01 120.4 49.48 120.62 49.09 121.01L48.64 121.46C48.25 121.85 47.72 122.07 47.17 122.07H34.95C34.4 122.07 33.87 121.85 33.48 121.46L31.09 119.07C30.7 118.68 30.48 118.15 30.48 117.6V111.15C30.48 110.6 30.7 110.07 31.09 109.68L32.01 108.76C32.4 108.37 32.62 107.84 32.62 107.29V103.98C32.62 103.43 32.84 102.9 33.23 102.51L35.62 100.12C36.01 99.73 36.54 99.51 37.09 99.51V99.5Z" fill="white"/>
  <path opacity="0.8" d="M30.47 112.09V117.6C30.47 118.15 30.69 118.68 31.08 119.07L33.47 121.46C33.86 121.85 34.39 122.07 34.94 122.07H47.16C47.71 122.07 48.24 121.85 48.63 121.46L49.08 121.01C49.47 120.62 50 120.4 50.55 120.4H55.9C56.45 120.4 56.98 120.18 57.37 119.79L58.27 118.89C58.66 118.5 58.88 117.97 58.88 117.42V112.09H30.48H30.47Z" fill="url(#paint0_linear_206_2950)"/>
  <path d="M59.85 101.84L57.05 99.0402C56.66 98.6502 56.13 98.4302 55.58 98.4302H38.66C38.27 98.4302 37.88 98.5402 37.55 98.7502C37.42 98.8302 35.95 99.8302 35.95 99.8302C35.83 99.9202 35.71 100.01 35.61 100.11L33.22 102.5C32.83 102.89 32.61 103.42 32.61 103.97V107.28C32.61 107.83 32.39 108.36 32 108.75L31.08 109.67C30.69 110.06 30.47 110.59 30.47 111.14V117.59C30.47 118.14 30.69 118.67 31.08 119.06L33.47 121.45C33.86 121.84 34.39 122.06 34.94 122.06H47.16C47.71 122.06 48.24 121.84 48.63 121.45L49.08 121C49.56 120.51 50.08 120.39 50.55 120.39H55.9C56.32 120.39 56.72 120.26 57.06 120.04C57.06 120.04 58.37 119.18 58.72 118.91C58.8 118.85 58.88 118.78 58.95 118.71L59.85 117.81C60.24 117.42 60.46 116.89 60.46 116.34V103.3C60.46 102.75 60.24 102.22 59.85 101.83V101.84Z" stroke="black" stroke-width="0.3" stroke-linecap="round" stroke-linejoin="round"/>
  <path d="M203.96 39.4802L203.34 38.8602C202.93 38.4502 202.37 38.2202 201.78 38.2202H185.11C184.67 38.2202 184.25 38.3502 183.89 38.5902C183.77 38.6702 182.13 39.7402 182.13 39.7402L180.12 42.3002C179.71 42.7102 179.48 43.2702 179.48 43.8602V65.4602C179.48 66.0402 179.71 66.6002 180.12 67.0202L181.55 68.4502C181.96 68.8602 182.52 69.0902 183.11 69.0902H190.81C191.39 69.0902 191.95 69.3202 192.37 69.7302L194.01 71.3702C194.42 71.7802 194.98 72.0102 195.57 72.0102L216.71 72.9602C216.71 72.9602 218.42 71.8802 218.78 71.6402C218.9 71.5602 219.01 71.4702 219.12 71.3702L222.91 67.5802C223.32 67.1702 223.55 66.6102 223.55 66.0202V47.0402C223.55 46.4602 223.32 45.9002 222.91 45.4802L218.19 40.7602C217.78 40.3502 217.22 40.1202 216.63 40.1202H205.55C204.97 40.1202 204.41 39.8902 203.99 39.4802H203.96Z" fill="#5C6C70"/>
  <path d="M148.5 140.99H92.62C90.75 140.99 90.86 139.74 92.87 138.2L95.56 136.17C97.57 134.63 100.71 133.38 102.58 133.38H158.46C160.33 133.38 160.22 134.63 158.21 136.17L155.52 138.2C153.51 139.74 150.37 140.99 148.5 140.99Z" fill="#EAEAEB"/>
  <path d="M41 55.51C47.23 40.19 89.67 42.96 135.79 61.72C181.91 80.47 214.25 108.1 208.02 123.42" stroke="#839195" stroke-width="0.3" stroke-linecap="round" stroke-linejoin="round"/>
  <path d="M179.3 86.5702C180.432 86.5702 181.35 85.6524 181.35 84.5202C181.35 83.388 180.432 82.4702 179.3 82.4702C178.168 82.4702 177.25 83.388 177.25 84.5202C177.25 85.6524 178.168 86.5702 179.3 86.5702Z" fill="#223236" stroke="black" stroke-width="0.3" stroke-linecap="round" stroke-linejoin="round"/>
  <path d="M202.36 40.8701L201.31 39.8201C201.03 39.5401 200.66 39.3901 200.27 39.3901H182.99C182.6 39.3901 182.23 39.5401 181.95 39.8201L178.08 43.6901C177.8 43.9701 177.65 44.3401 177.65 44.7301V66.9401C177.65 67.3301 177.8 67.7001 178.08 67.9801L179.94 69.8401C180.22 70.1201 180.59 70.2701 180.98 70.2701H189.28C189.67 70.2701 190.04 70.4201 190.32 70.7001L192.39 72.7701C192.67 73.0501 193.04 73.2001 193.43 73.2001H216.03C216.42 73.2001 216.79 73.0501 217.07 72.7701L221.29 68.5501C221.57 68.2701 221.72 67.9001 221.72 67.5101V47.9201C221.72 47.5301 221.57 47.1601 221.29 46.8801L216.14 41.7301C215.86 41.4501 215.49 41.3001 215.1 41.3001H203.41C203.02 41.3001 202.65 41.1501 202.37 40.8701H202.36Z" fill="white"/>
  <path opacity="0.8" d="M178.09 67.9802L179.95 69.8402C180.23 70.1202 180.6 70.2702 180.99 70.2702H189.29C189.68 70.2702 190.05 70.4202 190.33 70.7002L192.4 72.7702C192.68 73.0502 193.05 73.2002 193.44 73.2002H216.04C216.43 73.2002 216.8 73.0502 217.08 72.7702L221.3 68.5502C221.58 68.2702 221.73 67.9002 221.73 67.5102V56.9902H177.68V66.9402C177.68 67.3302 177.83 67.7002 178.11 67.9802H178.09Z" fill="url(#paint1_linear_206_2950)"/>
  <g opacity="0.41">
    <mask id="mask0_206_2950" style="mask-type:luminance" maskUnits="userSpaceOnUse" x="177" y="39" width="45" height="35">
      <path d="M202.36 40.8701L201.31 39.8201C201.03 39.5401 200.66 39.3901 200.27 39.3901H182.99C182.6 39.3901 182.23 39.5401 181.95 39.8201L178.08 43.6901C177.8 43.9701 177.65 44.3401 177.65 44.7301V66.9401C177.65 67.3301 177.8 67.7001 178.08 67.9801L179.94 69.8401C180.22 70.1201 180.59 70.2701 180.98 70.2701H189.28C189.67 70.2701 190.04 70.4201 190.32 70.7001L192.39 72.7701C192.67 73.0501 193.04 73.2001 193.43 73.2001H216.03C216.42 73.2001 216.79 73.0501 217.07 72.7701L221.29 68.5501C221.57 68.2701 221.72 67.9001 221.72 67.5101V47.9201C221.72 47.5301 221.57 47.1601 221.29 46.8801L216.14 41.7301C215.86 41.4501 215.49 41.3001 215.1 41.3001H203.41C203.02 41.3001 202.65 41.1501 202.37 40.8701H202.36Z" fill="white"/>
    </mask>
    <g mask="url(#mask0_206_2950)">
      <path d="M168.39 59.2202H235.54" stroke="white" stroke-width="0.3" stroke-linecap="round" stroke-linejoin="round"/>
      <path d="M168.39 62.3604H235.54" stroke="white" stroke-width="0.3" stroke-linecap="round" stroke-linejoin="round"/>
      <path d="M168.39 65.5H235.54" stroke="white" stroke-width="0.3" stroke-linecap="round" stroke-linejoin="round"/>
      <path d="M168.39 68.6401H235.54" stroke="white" stroke-width="0.3" stroke-linecap="round" stroke-linejoin="round"/>
      <path d="M168.39 71.7803H235.54" stroke="white" stroke-width="0.3" stroke-linecap="round" stroke-linejoin="round"/>
    </g>
  </g>
  <path d="M155.12 133.38L160.56 129.42C162.44 128.14 163.31 125.63 163.31 123.35V76.3701C163.31 71.8101 159.61 68.1201 155.06 68.1201H100.7C99.2399 68.1201 97.8699 68.5001 96.6799 69.1601C96.0099 69.5301 91.1299 72.8401 91.1299 72.8401L155.12 133.38Z" fill="#D4E1E4" stroke="black" stroke-width="0.3" stroke-linecap="round" stroke-linejoin="round"/>
  <path d="M163.17 123.24V76.4802C163.17 75.1102 162.88 73.8202 162.28 72.6802L154.06 78.3802L152.97 128.91L153.22 131.57L155.02 133.27L160.46 129.31C162.34 128.03 163.17 125.52 163.17 123.24Z" fill="#5C6C70"/>
  <path d="M136.59 130.33H111.68H108.56L104.75 134.15H140.41L136.59 130.33Z" fill="#223236" stroke="black" stroke-width="0.3" stroke-linecap="round" stroke-linejoin="round"/>
  <path d="M139.55 134.84C138.97 134.84 138.42 134.61 138 134.2L135.39 131.59C135.03 131.23 134.54 131.03 134.03 131.03H112.53C112.02 131.03 111.53 131.24 111.17 131.59L108.56 134.2C108.15 134.61 107.6 134.84 107.01 134.84H96.01C91.38 134.84 87.61 131.07 87.61 126.43V79.3802C87.61 74.7502 91.38 70.9702 96.01 70.9702H150.57C155.2 70.9702 158.97 74.7402 158.97 79.3802V126.36C158.97 130.99 155.2 134.77 150.57 134.77L139.54 134.84H139.55Z" fill="white"/>
  <path d="M150.58 71.1301C155.14 71.1301 158.83 74.8301 158.83 79.3801V126.36C158.83 130.92 155.13 134.61 150.58 134.61L139.55 134.68C139.01 134.68 138.49 134.47 138.11 134.08L135.5 131.47C135.11 131.08 134.58 130.86 134.03 130.86H112.53C111.98 130.86 111.45 131.08 111.06 131.47L108.45 134.08C108.07 134.46 107.55 134.68 107.01 134.68H96.01C91.45 134.68 87.76 130.98 87.76 126.43V79.3801C87.76 74.8201 91.46 71.1301 96.01 71.1301H150.57M150.58 70.8301H96.02C91.3 70.8301 87.47 74.6701 87.47 79.3801V126.43C87.47 131.15 91.31 134.98 96.02 134.98H107.02C107.64 134.98 108.23 134.74 108.67 134.3L111.28 131.69C111.62 131.35 112.06 131.17 112.54 131.17H134.04C134.51 131.17 134.96 131.35 135.3 131.69L137.91 134.3C138.35 134.74 138.94 134.98 139.56 134.98L150.59 134.91C155.3 134.91 159.14 131.07 159.14 126.36V79.3801C159.14 74.6601 155.3 70.8301 150.59 70.8301H150.58Z" fill="black"/>
  <g style="mix-blend-mode:multiply" opacity="0.4">
    <path d="M158.83 126.44V111.25L87.8199 127.41C88.2999 131.51 91.7799 134.69 96.0099 134.69H107.01C107.55 134.69 108.07 134.48 108.45 134.09L111.06 131.48C111.45 131.09 111.98 130.87 112.53 130.87H134.03C134.58 130.87 135.11 131.09 135.5 131.48L138.11 134.09C138.49 134.47 139.01 134.69 139.55 134.69H150.58C155.14 134.69 158.83 130.99 158.83 126.44Z" fill="#D4E1E4"/>
  </g>
  <path d="M119.23 101.9C124.968 101.9 129.62 97.2484 129.62 91.5101C129.62 85.7719 124.968 81.1201 119.23 81.1201C113.492 81.1201 108.84 85.7719 108.84 91.5101C108.84 97.2484 113.492 101.9 119.23 101.9Z" fill="#5C6C70" stroke="black" stroke-width="0.3" stroke-linecap="round" stroke-linejoin="round"/>
  <path d="M146.91 97.7702C146.91 92.7602 142.36 88.8102 137.16 89.8402C134.06 90.4502 131.55 92.9302 130.9 96.0202C130.07 99.9802 132.13 103.58 135.37 105.1C135.6 105.21 135.75 105.42 135.75 105.68C135.75 107.56 135.75 115.32 135.75 116.86C135.75 117.03 135.82 117.2 135.94 117.32L137.88 119.26C138 119.38 138.17 119.45 138.34 119.45H139.79C139.96 119.45 140.13 119.38 140.25 119.26L142.33 117.18C142.45 117.06 142.52 116.89 142.52 116.72V115.17C142.52 115 142.45 114.83 142.33 114.71L141.48 113.86C141.36 113.74 141.29 113.57 141.29 113.4V111.06C141.29 110.89 141.36 110.72 141.48 110.6L142.84 109.24C142.96 109.12 143.03 108.95 143.03 108.78V107.29C143.03 107.13 142.97 106.97 142.85 106.86L142.06 106.07V105.2C144.91 103.95 146.9 101.1 146.9 97.7902L146.91 97.7702ZM138.14 94.4002C140.56 93.9402 142.63 96.0202 142.18 98.4402C141.93 99.7802 140.83 100.88 139.49 101.13C137.07 101.59 135 99.5102 135.45 97.0902C135.7 95.7502 136.8 94.6502 138.14 94.4002Z" fill="#5C6C70" stroke="black" stroke-width="0.3" stroke-linecap="round" stroke-linejoin="round"/>
  <path d="M133.54 119.34L132.62 118.42V110.25C132.62 109.4 132.25 108.59 131.61 108.02C128.31 105.1 123.98 103.32 119.23 103.32C111.15 103.32 104.28 108.44 101.65 115.6C100.9 117.65 101.96 119.89 104.01 120.63C108.77 122.32 113.89 123.25 119.22 123.25C124.55 123.25 129.39 122.37 134.03 120.77C134.16 120.72 134.44 120.26 134.12 119.93C133.97 119.78 133.52 119.33 133.52 119.33L133.54 119.34Z" fill="#5C6C70" stroke="black" stroke-width="0.3" stroke-linecap="round" stroke-linejoin="round"/>
  <path d="M138.81 89.6699V91.1399C138.81 91.4399 138.57 91.6699 138.27 91.6999C135.16 91.9699 132.71 94.5899 132.71 97.7699" stroke="black" stroke-width="0.3" stroke-linecap="round" stroke-linejoin="round"/>
  <path d="M138.81 116.85V104.4C138.81 104.1 139.05 103.87 139.35 103.84C142.46 103.57 144.91 100.95 144.91 97.77" stroke="black" stroke-width="0.3" stroke-linecap="round" stroke-linejoin="round"/>
  <path fill-rule="evenodd" clip-rule="evenodd" d="M113.61 91.5103C113.61 91.8903 113.92 92.2003 114.3 92.2003H124.15C124.53 92.2003 124.84 91.8903 124.84 91.5103C124.84 91.1303 124.53 90.8203 124.15 90.8203H114.3C113.92 90.8203 113.61 91.1303 113.61 91.5103Z" fill="#D4E1E4"/>
  <path d="M144.91 97.7702C145.142 97.7702 145.33 97.5821 145.33 97.3502C145.33 97.1182 145.142 96.9302 144.91 96.9302C144.678 96.9302 144.49 97.1182 144.49 97.3502C144.49 97.5821 144.678 97.7702 144.91 97.7702Z" stroke="black" stroke-width="0.3" stroke-linecap="round" stroke-linejoin="round"/>
  <path d="M132.72 98.61C132.952 98.61 133.14 98.422 133.14 98.19C133.14 97.9581 132.952 97.77 132.72 97.77C132.488 97.77 132.3 97.9581 132.3 98.19C132.3 98.422 132.488 98.61 132.72 98.61Z" stroke="black" stroke-width="0.3" stroke-linecap="round" stroke-linejoin="round"/>
  <path d="M147.83 70.3302C151.287 70.3302 154.09 69.7929 154.09 69.1302C154.09 68.4674 151.287 67.9302 147.83 67.9302C144.373 67.9302 141.57 68.4674 141.57 69.1302C141.57 69.7929 144.373 70.3302 147.83 70.3302Z" fill="black" stroke="black" stroke-width="0.3" stroke-linecap="round" stroke-linejoin="round"/>
  <path d="M103.88 70.3102C107.299 70.3102 110.07 69.7819 110.07 69.1302C110.07 68.4785 107.299 67.9502 103.88 67.9502C100.461 67.9502 97.6899 68.4785 97.6899 69.1302C97.6899 69.7819 100.461 70.3102 103.88 70.3102Z" fill="black" stroke="black" stroke-width="0.3" stroke-linecap="round" stroke-linejoin="round"/>
  <path d="M125.85 21.0498C110.53 21.0498 98.1199 33.4698 98.1199 48.7798V69.1198C98.1199 69.7698 100.7 70.1998 103.87 70.1998C107.04 70.1998 109.62 69.7598 109.62 69.1198V48.7798C109.62 39.8298 116.9 32.5598 125.84 32.5598C134.78 32.5598 142.06 39.8398 142.06 48.7798V69.1198C142.06 69.7698 144.64 70.1998 147.81 70.1998C150.98 70.1998 153.56 69.7598 153.56 69.1198V48.7798C153.56 33.4598 141.14 21.0498 125.83 21.0498H125.85Z" fill="white"/>
  <g style="mix-blend-mode:multiply">
    <path d="M106.01 51.6198V70.2098C108.12 70.0398 109.62 69.6198 109.62 69.1298V48.7898C109.62 44.4398 111.35 40.4998 114.14 37.5898C109.29 40.3998 106.01 45.6298 106.01 51.6298V51.6198Z" fill="#D4E1E4"/>
    <path d="M125.85 21.05C125.39 21.05 124.92 21.06 124.47 21.08C124.26 21.09 124.05 21.11 123.84 21.13C123.6 21.15 123.36 21.16 123.12 21.18C122.83 21.21 122.55 21.25 122.26 21.28C122.11 21.3 121.95 21.32 121.8 21.34C121.45 21.39 121.11 21.45 120.77 21.52C120.69 21.54 120.6 21.55 120.52 21.56C120.12 21.64 119.72 21.73 119.33 21.82C119.31 21.82 119.3 21.82 119.28 21.83C114.65 22.97 110.48 25.27 107.09 28.4C111.45 25.54 116.65 23.38 122.25 23.38C137.57 23.38 149.65 33.99 149.65 50.04V70.15C151.94 70.02 153.59 69.63 153.59 69.12V48.78C153.59 45.43 153 42.22 151.91 39.24C148.02 28.62 137.83 21.04 125.86 21.04L125.85 21.05Z" fill="#D4E1E4"/>
    <path d="M150.84 36.7598C150.65 36.3598 150.44 35.9598 150.23 35.5598C149.68 34.5398 149.06 33.5698 148.39 32.6398C148.17 32.3298 147.94 32.0298 147.71 31.7298C147.01 30.8298 146.26 29.9798 145.46 29.1698C145.45 29.1598 145.43 29.1398 145.42 29.1298C144.85 28.5598 144.25 28.0198 143.63 27.4998C143.51 27.3998 143.39 27.2998 143.27 27.2098C142.75 26.7898 142.22 26.3898 141.67 26.0098C141.04 25.5698 140.4 25.1698 139.74 24.7798C138.81 24.2398 137.85 23.7498 136.86 23.3298C133.48 21.8698 129.76 21.0498 125.85 21.0498C125.84 21.0498 125.82 21.0498 125.81 21.0498C125.69 21.0498 125.56 21.0498 125.44 21.0498C140.57 21.2698 152.31 33.9198 152.31 49.0998V69.8098C153.11 69.6298 153.58 69.3898 153.58 69.1098V48.7698C153.58 44.4598 152.6 40.3798 150.85 36.7498L150.84 36.7598Z" fill="#223236"/>
  </g>
  <path d="M142.07 53.2002C142.07 53.2002 142.31 54.3602 144.5 55.1602C145.12 55.3802 145.48 55.8702 145.48 56.3802V69.9402" stroke="#839195" stroke-width="0.3" stroke-linecap="round" stroke-linejoin="round"/>
  <path d="M123.45 21.3198C123.23 21.9398 123.23 22.9298 123.22 23.6698C123.22 24.3098 122.7 24.8098 122.06 24.8498C111.55 25.5298 102.42 35.7998 101.8 46.6898" stroke="#839195" stroke-width="0.3" stroke-linecap="round" stroke-linejoin="round"/>
  <path d="M101.8 48.9399C101.993 48.9399 102.15 48.7026 102.15 48.4099C102.15 48.1172 101.993 47.8799 101.8 47.8799C101.607 47.8799 101.45 48.1172 101.45 48.4099C101.45 48.7026 101.607 48.9399 101.8 48.9399Z" fill="#839195" stroke="#839195" stroke-width="0.3" stroke-linecap="round" stroke-linejoin="round"/>
  <path d="M125.85 21.0498C110.53 21.0498 98.1199 33.4698 98.1199 48.7798V69.1198C98.1199 69.7698 100.7 70.1998 103.87 70.1998C107.04 70.1998 109.62 69.7598 109.62 69.1198V48.7798C109.62 39.8298 116.9 32.5598 125.84 32.5598C134.78 32.5598 142.06 39.8398 142.06 48.7798V69.1198C142.06 69.7698 144.64 70.1998 147.81 70.1998C150.98 70.1998 153.56 69.7598 153.56 69.1198V48.7798C153.56 33.4598 141.14 21.0498 125.83 21.0498H125.85Z" stroke="black" stroke-width="0.3" stroke-linecap="round" stroke-linejoin="round"/>
  <path d="M162.52 89.3701C162.52 89.7101 162.35 90.0901 162.15 90.2001C161.95 90.3101 161.78 90.1301 161.78 89.7801C161.78 89.4301 161.95 89.0601 162.15 88.9501C162.35 88.8401 162.52 89.0201 162.52 89.3701ZM162.14 91.7701C161.93 91.8801 161.77 92.2601 161.77 92.6001C161.77 92.9401 161.94 93.1301 162.14 93.0201C162.34 92.9101 162.51 92.5301 162.51 92.1901C162.51 91.8501 162.34 91.6601 162.14 91.7701ZM162.14 94.5901C161.93 94.7001 161.77 95.0801 161.77 95.4201C161.77 95.7601 161.94 95.9501 162.14 95.8401C162.34 95.7301 162.51 95.3501 162.51 95.0101C162.51 94.6701 162.34 94.4801 162.14 94.5901Z" fill="#D4E1E4"/>
  <path d="M204.98 62.7999C202.39 62.7999 200.29 60.6899 200.29 58.1099C200.29 57.7399 199.99 57.4399 199.62 57.4399C199.25 57.4399 198.95 57.7399 198.95 58.1099C198.95 61.4399 201.66 64.1499 204.99 64.1499C205.36 64.1499 205.66 63.8499 205.66 63.4799C205.66 63.1099 205.36 62.8099 204.99 62.8099L204.98 62.7999Z" fill="#5C6C70"/>
  <path d="M194.99 58.2297C195.02 55.6697 197.11 53.5897 199.68 53.5897C202.25 53.5897 204.37 55.6997 204.37 58.2797C204.37 58.6497 204.67 58.9497 205.04 58.9497C205.41 58.9497 205.71 58.6497 205.71 58.2797C205.71 54.9497 203 52.2397 199.67 52.2397C196.34 52.2397 193.78 54.8197 193.65 58.0297C193.65 58.0497 193.64 58.0697 193.64 58.0897C193.64 58.1197 193.64 58.1497 193.64 58.1897C193.64 58.2197 193.64 58.2497 193.64 58.2797C193.64 58.2997 193.64 58.3197 193.65 58.3297C193.71 61.0997 194.75 63.7397 196.63 65.7897C196.76 65.9297 196.94 66.0097 197.12 66.0097C197.28 66.0097 197.44 65.9497 197.57 65.8297C197.84 65.5797 197.86 65.1597 197.61 64.8797C195.94 63.0497 195.01 60.6897 194.98 58.2197L194.99 58.2297Z" fill="#5C6C70"/>
  <path d="M199.68 49.5698C194.96 49.5698 191.1 53.3498 190.97 58.0398C190.97 58.0598 190.96 58.0798 190.96 58.0998C190.96 58.1298 190.96 58.1698 190.96 58.1998C190.96 58.2298 190.96 58.2498 190.96 58.2798C190.96 58.2998 190.96 58.3098 190.96 58.3298C190.98 59.7798 191.22 61.2098 191.68 62.5698C191.77 62.8498 192.04 63.0298 192.32 63.0298C192.39 63.0298 192.46 63.0198 192.53 62.9998C192.88 62.8798 193.07 62.4998 192.95 62.1498C192.53 60.8798 192.31 59.5498 192.3 58.2098C192.34 54.1798 195.63 50.9098 199.67 50.9098C203.71 50.9098 207.05 54.2198 207.05 58.2898C207.05 59.3998 206.15 60.2998 205.04 60.2998C203.93 60.2998 203.03 59.3998 203.03 58.2898C203.03 56.4398 201.53 54.9398 199.68 54.9398C197.83 54.9398 196.33 56.4398 196.33 58.2898C196.33 61.7498 198.38 64.8898 201.55 66.2798C201.64 66.3198 201.73 66.3398 201.82 66.3398C202.08 66.3398 202.32 66.1898 202.43 65.9398C202.58 65.5998 202.43 65.2098 202.09 65.0598C199.41 63.8798 197.67 61.2298 197.67 58.2998C197.67 57.1898 198.57 56.2898 199.68 56.2898C200.79 56.2898 201.69 57.1898 201.69 58.2998C201.69 60.1498 203.19 61.6498 205.04 61.6498C206.89 61.6498 208.39 60.1498 208.39 58.2998C208.39 53.4898 204.48 49.5798 199.67 49.5798L199.68 49.5698Z" fill="#5C6C70"/>
  <path d="M193.66 50.2299C195.41 48.9199 197.49 48.2299 199.68 48.2299C201.87 48.2299 203.95 48.9199 205.7 50.2299C205.82 50.3199 205.96 50.3599 206.1 50.3599C206.3 50.3599 206.51 50.2699 206.64 50.0899C206.86 49.7899 206.8 49.3699 206.5 49.1499C204.52 47.6699 202.16 46.8799 199.68 46.8799C197.2 46.8799 194.84 47.6599 192.86 49.1499C192.56 49.3699 192.5 49.7899 192.72 50.0899C192.94 50.3899 193.36 50.4499 193.66 50.2199V50.2299Z" fill="#5C6C70"/>
  <path d="M208.02 123.42C201.79 138.74 159.35 135.97 113.23 117.21C67.11 98.4603 34.7699 70.8303 40.9999 55.5103" stroke="#839195" stroke-width="0.3" stroke-linecap="round" stroke-linejoin="round"/>
  <path d="M66.3 96.18C68.5588 96.18 70.39 94.3488 70.39 92.09C70.39 89.8312 68.5588 88 66.3 88C64.0411 88 62.21 89.8312 62.21 92.09C62.21 94.3488 64.0411 96.18 66.3 96.18Z" fill="#24D17F" stroke="black" stroke-width="0.3" stroke-linecap="round" stroke-linejoin="round"/>
  <path d="M40.32 111.89C40.97 111.89 41.5 111.36 41.5 110.71C41.5 110.06 40.97 109.53 40.32 109.53C39.67 109.53 39.14 110.06 39.14 110.71C39.14 111.36 39.67 111.89 40.32 111.89Z" fill="#5C6C70"/>
  <path d="M40.32 107.23C40.97 107.23 41.5 106.7 41.5 106.05C41.5 105.4 40.97 104.87 40.32 104.87C39.67 104.87 39.14 105.4 39.14 106.05C39.14 106.7 39.67 107.23 40.32 107.23Z" fill="#5C6C70"/>
  <path d="M50.4 109.53C49.75 109.53 49.22 110.06 49.22 110.71C49.22 111.36 49.75 111.89 50.4 111.89C51.05 111.89 51.58 111.36 51.58 110.71C51.58 110.06 51.05 109.53 50.4 109.53Z" fill="#5C6C70"/>
  <path d="M50.4 114.19C49.8 114.19 49.33 114.64 49.25 115.22H46.5C46.42 114.64 45.95 114.19 45.35 114.19C44.75 114.19 44.28 114.64 44.2 115.22H41.45C41.42 115.03 41.35 114.86 41.25 114.7L44.61 111.6C44.81 111.77 45.07 111.89 45.35 111.89C46 111.89 46.53 111.36 46.53 110.71C46.53 110.46 46.43 110.24 46.3 110.04L49.65 106.94C49.85 107.11 50.11 107.23 50.4 107.23C51.05 107.23 51.58 106.7 51.58 106.05C51.58 105.4 51.05 104.87 50.4 104.87C49.75 104.87 49.22 105.4 49.22 106.05C49.22 106.3 49.32 106.53 49.45 106.72L46.09 109.82C45.89 109.65 45.63 109.53 45.34 109.53C44.69 109.53 44.16 110.06 44.16 110.71C44.16 110.96 44.26 111.19 44.39 111.38L41.03 114.48C40.83 114.31 40.57 114.19 40.28 114.19C39.63 114.19 39.1 114.72 39.1 115.37C39.1 116.02 39.63 116.55 40.28 116.55C40.88 116.55 41.35 116.1 41.43 115.52H44.18C44.26 116.1 44.73 116.55 45.33 116.55C45.93 116.55 46.4 116.1 46.48 115.52H49.23C49.31 116.1 49.78 116.55 50.38 116.55C51.03 116.55 51.56 116.02 51.56 115.37C51.56 114.72 51.03 114.19 50.38 114.19H50.4Z" fill="#5C6C70"/>
  <path d="M45.36 107.23C46.01 107.23 46.54 106.7 46.54 106.05C46.54 105.4 46.01 104.87 45.36 104.87C44.71 104.87 44.18 105.4 44.18 106.05C44.18 106.7 44.71 107.23 45.36 107.23Z" fill="#5C6C70"/>
  <path d="M222.88 45.49L218.16 40.77C217.75 40.36 217.19 40.13 216.6 40.13H205.52C204.94 40.13 204.38 39.9 203.96 39.49L203.34 38.87C202.93 38.46 202.37 38.23 201.78 38.23H185.11C184.67 38.23 184.25 38.36 183.89 38.6C183.77 38.68 182.26 39.67 182.15 39.74C182 39.83 181.86 39.93 181.74 40.06L178.3 43.5C177.89 43.91 177.66 44.47 177.66 45.06V66.66C177.66 67.24 177.89 67.8 178.3 68.22L179.73 69.65C180.14 70.06 180.7 70.29 181.29 70.29H188.99C189.57 70.29 190.13 70.52 190.55 70.94L192.19 72.58C192.6 72.99 193.16 73.22 193.75 73.22H215.74C216.08 73.22 216.41 73.13 216.71 72.99H216.72C216.85 72.93 216.97 72.85 217.08 72.76C217.6 72.43 218.53 71.85 218.78 71.68C218.9 71.6 219.01 71.51 219.12 71.41L222.91 67.62C223.32 67.21 223.56 66.65 223.56 66.06V47.08C223.56 46.5 223.33 45.94 222.91 45.52L222.88 45.49Z" stroke="black" stroke-width="0.3" stroke-linecap="round" stroke-linejoin="round"/>
  <defs>
    <linearGradient id="paint0_linear_206_2950" x1="44.68" y1="122.07" x2="44.68" y2="112.09" gradientUnits="userSpaceOnUse">
      <stop stop-color="#D0E0E4" stop-opacity="0"/>
      <stop offset="0.1" stop-color="#D0E0E4" stop-opacity="0.03"/>
      <stop offset="0.23" stop-color="#D0E0E4" stop-opacity="0.1"/>
      <stop offset="0.39" stop-color="#D0E0E4" stop-opacity="0.23"/>
      <stop offset="0.56" stop-color="#D0E0E4" stop-opacity="0.41"/>
      <stop offset="0.74" stop-color="#D0E0E4" stop-opacity="0.63"/>
      <stop offset="0.94" stop-color="#D0E0E4" stop-opacity="0.9"/>
      <stop offset="1" stop-color="#D0E0E4"/>
    </linearGradient>
    <linearGradient id="paint1_linear_206_2950" x1="199.68" y1="73.1902" x2="199.68" y2="56.9902" gradientUnits="userSpaceOnUse">
      <stop stop-color="#D0E0E4" stop-opacity="0"/>
      <stop offset="0.1" stop-color="#D0E0E4" stop-opacity="0.03"/>
      <stop offset="0.23" stop-color="#D0E0E4" stop-opacity="0.1"/>
      <stop offset="0.39" stop-color="#D0E0E4" stop-opacity="0.23"/>
      <stop offset="0.56" stop-color="#D0E0E4" stop-opacity="0.41"/>
      <stop offset="0.74" stop-color="#D0E0E4" stop-opacity="0.63"/>
      <stop offset="0.94" stop-color="#D0E0E4" stop-opacity="0.9"/>
      <stop offset="1" stop-color="#D0E0E4"/>
    </linearGradient>
  </defs>
</svg>