<svg xmlns="http://www.w3.org/2000/svg" width="254" height="152" viewBox="0 0 254 152" fill="none">
  <path d="M38.6703 93.4297H55.5903C56.1403 93.4297 56.6703 93.6497 57.0603 94.0397L59.8603 96.8397C60.2503 97.2297 60.4703 97.7597 60.4703 98.3097V111.35C60.4703 111.9 60.2503 112.43 59.8603 112.82L58.9603 113.72C58.8903 113.79 58.8103 113.86 58.7303 113.92C58.3703 114.18 57.0703 115.05 57.0703 115.05L32.6803 112.99C32.2903 112.6 32.0703 112.07 32.0703 111.52V105.07C32.0703 104.52 32.2903 103.99 32.6803 103.6L33.6003 102.68C33.9903 102.29 34.2103 101.76 34.2103 101.21V97.8997C34.2103 97.3497 34.4303 96.8197 34.8203 96.4297L35.9803 94.8297C35.9803 94.8297 37.4503 93.8297 37.5803 93.7497C37.9103 93.5397 38.2903 93.4297 38.6903 93.4297H38.6703Z" fill="#223236"/>
  <path d="M37.0907 94.5H54.0107C54.5607 94.5 55.0907 94.72 55.4807 95.11L58.2807 97.91C58.6707 98.3 58.8907 98.83 58.8907 99.38V112.42C58.8907 112.97 58.6707 113.5 58.2807 113.89L57.3807 114.79C56.9907 115.18 56.4607 115.4 55.9107 115.4H50.5607C50.0107 115.4 49.4807 115.62 49.0907 116.01L48.6407 116.46C48.2507 116.85 47.7207 117.07 47.1707 117.07H34.9507C34.4007 117.07 33.8707 116.85 33.4807 116.46L31.0907 114.07C30.7007 113.68 30.4807 113.15 30.4807 112.6V106.15C30.4807 105.6 30.7007 105.07 31.0907 104.68L32.0107 103.76C32.4007 103.37 32.6207 102.84 32.6207 102.29V98.98C32.6207 98.43 32.8407 97.9 33.2307 97.51L35.6207 95.12C36.0107 94.73 36.5407 94.51 37.0907 94.51V94.5Z" fill="white"/>
  <path opacity="0.8" d="M30.4707 107.09V112.6C30.4707 113.15 30.6907 113.68 31.0807 114.07L33.4707 116.46C33.8607 116.85 34.3907 117.07 34.9407 117.07H47.1607C47.7107 117.07 48.2407 116.85 48.6307 116.46L49.0807 116.01C49.4707 115.62 50.0007 115.4 50.5507 115.4H55.9007C56.4507 115.4 56.9807 115.18 57.3707 114.79L58.2707 113.89C58.6607 113.5 58.8807 112.97 58.8807 112.42V107.09H30.4807H30.4707Z" fill="url(#paint0_linear_206_2871)"/>
  <path d="M59.8507 96.8397L57.0507 94.0397C56.6607 93.6497 56.1307 93.4297 55.5807 93.4297H38.6607C38.2707 93.4297 37.8807 93.5397 37.5507 93.7497C37.4207 93.8297 35.9507 94.8297 35.9507 94.8297C35.8307 94.9197 35.7107 95.0097 35.6107 95.1097L33.2207 97.4997C32.8307 97.8897 32.6107 98.4197 32.6107 98.9697V102.28C32.6107 102.83 32.3907 103.36 32.0007 103.75L31.0807 104.67C30.6907 105.06 30.4707 105.59 30.4707 106.14V112.59C30.4707 113.14 30.6907 113.67 31.0807 114.06L33.4707 116.45C33.8607 116.84 34.3907 117.06 34.9407 117.06H47.1607C47.7107 117.06 48.2407 116.84 48.6307 116.45L49.0807 116C49.5607 115.51 50.0807 115.39 50.5507 115.39H55.9007C56.3207 115.39 56.7207 115.26 57.0607 115.04C57.0607 115.04 58.3707 114.18 58.7207 113.91C58.8007 113.85 58.8807 113.78 58.9507 113.71L59.8507 112.81C60.2407 112.42 60.4607 111.89 60.4607 111.34V98.2997C60.4607 97.7497 60.2407 97.2197 59.8507 96.8297V96.8397Z" stroke="black" stroke-width="0.3" stroke-linecap="round" stroke-linejoin="round"/>
  <path d="M40.3207 104.53C39.6707 104.53 39.1407 105.06 39.1407 105.71C39.1407 106.36 39.6707 106.89 40.3207 106.89C40.9707 106.89 41.5007 106.36 41.5007 105.71C41.5007 105.06 40.9707 104.53 40.3207 104.53Z" fill="#24D17F"/>
  <path d="M40.3207 109.19C39.6707 109.19 39.1407 109.72 39.1407 110.37C39.1407 111.02 39.6707 111.55 40.3207 111.55C40.9707 111.55 41.5007 111.02 41.5007 110.37C41.5007 109.72 40.9707 109.19 40.3207 109.19Z" fill="#24D17F"/>
  <path d="M50.4007 102.23C51.0507 102.23 51.5807 101.7 51.5807 101.05C51.5807 100.4 51.0507 99.8701 50.4007 99.8701C49.7507 99.8701 49.2207 100.4 49.2207 101.05C49.2207 101.7 49.7507 102.23 50.4007 102.23Z" fill="#24D17F"/>
  <path d="M40.3207 99.8799C39.6707 99.8799 39.1407 100.41 39.1407 101.06C39.1407 101.71 39.6707 102.24 40.3207 102.24C40.9707 102.24 41.5007 101.71 41.5007 101.06C41.5007 100.41 40.9707 99.8799 40.3207 99.8799Z" fill="#24D17F"/>
  <path d="M45.3598 104.53C44.7098 104.53 44.1798 105.06 44.1798 105.71C44.1798 106.36 44.7098 106.89 45.3598 106.89C46.0098 106.89 46.5398 106.36 46.5398 105.71C46.5398 105.06 46.0098 104.53 45.3598 104.53Z" fill="#24D17F"/>
  <path d="M50.4007 104.53C49.7507 104.53 49.2207 105.06 49.2207 105.71C49.2207 106.36 49.7507 106.89 50.4007 106.89C51.0507 106.89 51.5807 106.36 51.5807 105.71C51.5807 105.06 51.0507 104.53 50.4007 104.53Z" fill="#24D17F"/>
  <path d="M45.3598 109.19C44.7098 109.19 44.1798 109.72 44.1798 110.37C44.1798 111.02 44.7098 111.55 45.3598 111.55C46.0098 111.55 46.5398 111.02 46.5398 110.37C46.5398 109.72 46.0098 109.19 45.3598 109.19Z" fill="#24D17F"/>
  <path d="M50.4008 109.19C49.7508 109.19 49.2208 109.72 49.2208 110.37C49.2208 111.02 49.7508 111.55 50.4008 111.55C51.0508 111.55 51.5808 111.02 51.5808 110.37C51.5808 109.72 51.0508 109.19 50.4008 109.19Z" fill="#24D17F"/>
  <path d="M45.3598 99.8799C44.7098 99.8799 44.1798 100.41 44.1798 101.06C44.1798 101.71 44.7098 102.24 45.3598 102.24C46.0098 102.24 46.5398 101.71 46.5398 101.06C46.5398 100.41 46.0098 99.8799 45.3598 99.8799Z" fill="#24D17F"/>
  <path d="M203.96 34.4797L203.34 33.8597C202.93 33.4497 202.37 33.2197 201.78 33.2197H185.11C184.67 33.2197 184.25 33.3497 183.89 33.5897C183.77 33.6697 182.13 34.7397 182.13 34.7397L180.12 37.2997C179.71 37.7097 179.48 38.2697 179.48 38.8597V60.4597C179.48 61.0397 179.71 61.5997 180.12 62.0197L181.55 63.4497C181.96 63.8597 182.52 64.0897 183.11 64.0897H190.81C191.39 64.0897 191.95 64.3197 192.37 64.7297L194.01 66.3697C194.42 66.7797 194.98 67.0097 195.57 67.0097L216.71 67.9597C216.71 67.9597 218.42 66.8797 218.78 66.6397C218.9 66.5597 219.01 66.4697 219.12 66.3697L222.91 62.5797C223.32 62.1697 223.55 61.6097 223.55 61.0197V42.0397C223.55 41.4597 223.32 40.8997 222.91 40.4797L218.19 35.7597C217.78 35.3497 217.22 35.1197 216.63 35.1197H205.55C204.97 35.1197 204.41 34.8897 203.99 34.4797H203.96Z" fill="#223236"/>
  <path d="M148.5 135.99H92.6202C90.7502 135.99 90.8602 134.74 92.8702 133.2L95.5602 131.17C97.5702 129.63 100.71 128.38 102.58 128.38H158.46C160.33 128.38 160.22 129.63 158.21 131.17L155.52 133.2C153.51 134.74 150.37 135.99 148.5 135.99Z" fill="#EAEAEB"/>
  <path d="M41 50.5105C47.23 35.1905 89.67 37.9605 135.79 56.7205C181.91 75.4705 214.25 103.1 208.02 118.42" stroke="#839195" stroke-width="0.3" stroke-linecap="round" stroke-linejoin="round"/>
  <path d="M179.3 81.5697C180.432 81.5697 181.35 80.6519 181.35 79.5197C181.35 78.3875 180.432 77.4697 179.3 77.4697C178.168 77.4697 177.25 78.3875 177.25 79.5197C177.25 80.6519 178.168 81.5697 179.3 81.5697Z" fill="#223236" stroke="black" stroke-width="0.3" stroke-linecap="round" stroke-linejoin="round"/>
  <path d="M202.36 35.8696L201.31 34.8196C201.03 34.5396 200.66 34.3896 200.27 34.3896H182.99C182.6 34.3896 182.23 34.5396 181.95 34.8196L178.08 38.6896C177.8 38.9696 177.65 39.3396 177.65 39.7296V61.9397C177.65 62.3297 177.8 62.6997 178.08 62.9797L179.94 64.8396C180.22 65.1196 180.59 65.2696 180.98 65.2696H189.28C189.67 65.2696 190.04 65.4196 190.32 65.6996L192.39 67.7696C192.67 68.0496 193.04 68.1996 193.43 68.1996H216.03C216.42 68.1996 216.79 68.0496 217.07 67.7696L221.29 63.5497C221.57 63.2697 221.72 62.8997 221.72 62.5097V42.9196C221.72 42.5296 221.57 42.1597 221.29 41.8797L216.14 36.7296C215.86 36.4496 215.49 36.2996 215.1 36.2996H203.41C203.02 36.2996 202.65 36.1496 202.37 35.8696H202.36Z" fill="white"/>
  <path opacity="0.8" d="M178.092 62.9802L179.952 64.8402C180.232 65.1202 180.602 65.2702 180.992 65.2702H189.292C189.682 65.2702 190.052 65.4202 190.332 65.7002L192.402 67.7702C192.682 68.0502 193.052 68.2002 193.442 68.2002H216.042C216.432 68.2002 216.802 68.0502 217.082 67.7702L221.302 63.5502C221.582 63.2702 221.732 62.9002 221.732 62.5102V51.9902H177.682V61.9402C177.682 62.3302 177.832 62.7002 178.112 62.9802H178.092Z" fill="url(#paint1_linear_206_2871)"/>
  <g opacity="0.41">
    <mask id="mask0_206_2871" style="mask-type:luminance" maskUnits="userSpaceOnUse" x="177" y="34" width="45" height="35">
      <path d="M202.36 35.8696L201.31 34.8196C201.03 34.5396 200.66 34.3896 200.27 34.3896H182.99C182.6 34.3896 182.23 34.5396 181.95 34.8196L178.08 38.6896C177.8 38.9696 177.65 39.3396 177.65 39.7296V61.9397C177.65 62.3297 177.8 62.6997 178.08 62.9797L179.94 64.8396C180.22 65.1196 180.59 65.2696 180.98 65.2696H189.28C189.67 65.2696 190.04 65.4196 190.32 65.6996L192.39 67.7696C192.67 68.0496 193.04 68.1996 193.43 68.1996H216.03C216.42 68.1996 216.79 68.0496 217.07 67.7696L221.29 63.5497C221.57 63.2697 221.72 62.8997 221.72 62.5097V42.9196C221.72 42.5296 221.57 42.1597 221.29 41.8797L216.14 36.7296C215.86 36.4496 215.49 36.2996 215.1 36.2996H203.41C203.02 36.2996 202.65 36.1496 202.37 35.8696H202.36Z" fill="white"/>
    </mask>
    <g mask="url(#mask0_206_2871)">
      <path d="M168.39 54.2197H235.54" stroke="white" stroke-width="0.3" stroke-linecap="round" stroke-linejoin="round"/>
      <path d="M168.39 57.3594H235.54" stroke="white" stroke-width="0.3" stroke-linecap="round" stroke-linejoin="round"/>
      <path d="M168.39 60.5H235.54" stroke="white" stroke-width="0.3" stroke-linecap="round" stroke-linejoin="round"/>
      <path d="M168.39 63.6396H235.54" stroke="white" stroke-width="0.3" stroke-linecap="round" stroke-linejoin="round"/>
      <path d="M168.39 66.7793H235.54" stroke="white" stroke-width="0.3" stroke-linecap="round" stroke-linejoin="round"/>
    </g>
  </g>
  <path d="M155.121 128.38L160.561 124.42C162.441 123.14 163.311 120.63 163.311 118.35V71.3701C163.311 66.8101 159.611 63.1201 155.061 63.1201H100.701C99.2407 63.1201 97.8707 63.5001 96.6807 64.1601C96.0107 64.5301 91.1307 67.8401 91.1307 67.8401L155.121 128.38Z" fill="#24D17F" stroke="black" stroke-width="0.3" stroke-linecap="round" stroke-linejoin="round"/>
  <path d="M163.31 118.341V71.3605C163.31 69.9906 162.97 68.7005 162.38 67.5605L154.16 73.2606L153.07 124.011L153.32 126.671L155.12 128.371L160.56 124.411C162.44 123.131 163.31 120.621 163.31 118.341Z" fill="#223236"/>
  <path d="M136.59 125.33H111.68H108.56L104.75 129.15H140.41L136.59 125.33Z" fill="#223236" stroke="black" stroke-width="0.3" stroke-linecap="round" stroke-linejoin="round"/>
  <path d="M139.551 129.84C138.971 129.84 138.421 129.61 138.001 129.2L135.391 126.59C135.031 126.23 134.541 126.03 134.031 126.03H112.531C112.021 126.03 111.531 126.24 111.171 126.59L108.561 129.2C108.151 129.61 107.601 129.84 107.011 129.84H96.0113C91.3813 129.84 87.6113 126.07 87.6113 121.43V74.3797C87.6113 69.7497 91.3813 65.9697 96.0113 65.9697H150.571C155.201 65.9697 158.971 69.7397 158.971 74.3797V121.36C158.971 125.99 155.201 129.77 150.571 129.77L139.541 129.84H139.551Z" fill="white"/>
  <path d="M150.581 66.1301C155.141 66.1301 158.831 69.8301 158.831 74.3801V121.36C158.831 125.92 155.131 129.61 150.581 129.61L139.551 129.68C139.011 129.68 138.491 129.47 138.111 129.08L135.501 126.47C135.111 126.08 134.581 125.86 134.031 125.86H112.531C111.981 125.86 111.451 126.08 111.061 126.47L108.451 129.08C108.071 129.46 107.551 129.68 107.011 129.68H96.0107C91.4507 129.68 87.7607 125.98 87.7607 121.43V74.3801C87.7607 69.8201 91.4607 66.1301 96.0107 66.1301H150.571M150.581 65.8301H96.0207C91.3007 65.8301 87.4707 69.6701 87.4707 74.3801V121.43C87.4707 126.15 91.3107 129.98 96.0207 129.98H107.021C107.641 129.98 108.231 129.74 108.671 129.3L111.281 126.69C111.621 126.35 112.061 126.17 112.541 126.17H134.041C134.511 126.17 134.961 126.35 135.301 126.69L137.911 129.3C138.351 129.74 138.941 129.98 139.561 129.98L150.591 129.91C155.301 129.91 159.141 126.07 159.141 121.36V74.3801C159.141 69.6601 155.301 65.8301 150.591 65.8301H150.581Z" fill="black"/>
  <g style="mix-blend-mode:multiply" opacity="0.4">
    <path d="M158.83 121.44V106.25L87.8203 122.41C88.3003 126.51 91.7803 129.69 96.0103 129.69H107.01C107.55 129.69 108.07 129.48 108.45 129.09L111.06 126.48C111.45 126.09 111.98 125.87 112.53 125.87H134.03C134.58 125.87 135.11 126.09 135.5 126.48L138.11 129.09C138.49 129.47 139.01 129.69 139.55 129.69H150.58C155.14 129.69 158.83 125.99 158.83 121.44Z" fill="#D4E1E4"/>
  </g>
  <path d="M119.232 96.9001C124.97 96.9001 129.622 92.2484 129.622 86.5101C129.622 80.7719 124.97 76.1201 119.232 76.1201C113.494 76.1201 108.842 80.7719 108.842 86.5101C108.842 92.2484 113.494 96.9001 119.232 96.9001Z" fill="#223236" stroke="black" stroke-width="0.3" stroke-linecap="round" stroke-linejoin="round"/>
  <path d="M146.911 92.7702C146.911 87.7602 142.361 83.8102 137.161 84.8402C134.061 85.4502 131.551 87.9302 130.901 91.0202C130.071 94.9802 132.131 98.5802 135.371 100.1C135.601 100.21 135.751 100.42 135.751 100.68C135.751 102.56 135.751 110.32 135.751 111.86C135.751 112.03 135.821 112.2 135.941 112.32L137.881 114.26C138.001 114.38 138.171 114.45 138.341 114.45H139.791C139.961 114.45 140.131 114.38 140.251 114.26L142.331 112.18C142.451 112.06 142.521 111.89 142.521 111.72V110.17C142.521 110 142.451 109.83 142.331 109.71L141.481 108.86C141.361 108.74 141.291 108.57 141.291 108.4V106.06C141.291 105.89 141.361 105.72 141.481 105.6L142.841 104.24C142.961 104.12 143.031 103.95 143.031 103.78V102.29C143.031 102.13 142.971 101.97 142.851 101.86L142.061 101.07V100.2C144.911 98.9502 146.901 96.1002 146.901 92.7902L146.911 92.7702ZM138.141 89.4002C140.561 88.9402 142.631 91.0202 142.181 93.4402C141.931 94.7802 140.831 95.8802 139.491 96.1302C137.071 96.5902 135.001 94.5102 135.451 92.0902C135.701 90.7502 136.801 89.6502 138.141 89.4002Z" fill="#24D17F" stroke="black" stroke-width="0.3" stroke-linecap="round" stroke-linejoin="round"/>
  <path d="M133.541 114.34L132.621 113.42V105.25C132.621 104.4 132.251 103.59 131.611 103.02C128.311 100.1 123.981 98.3203 119.231 98.3203C111.151 98.3203 104.281 103.44 101.651 110.6C100.901 112.65 101.961 114.89 104.011 115.63C108.771 117.32 113.891 118.25 119.221 118.25C124.551 118.25 129.391 117.37 134.031 115.77C134.161 115.72 134.441 115.26 134.121 114.93C133.971 114.78 133.521 114.33 133.521 114.33L133.541 114.34Z" fill="#223236" stroke="black" stroke-width="0.3" stroke-linecap="round" stroke-linejoin="round"/>
  <path d="M138.811 84.6699V86.1399C138.811 86.4399 138.571 86.6699 138.271 86.6999C135.161 86.9699 132.711 89.5899 132.711 92.7699" stroke="black" stroke-width="0.3" stroke-linecap="round" stroke-linejoin="round"/>
  <path d="M138.811 111.851V99.4005C138.811 99.1005 139.051 98.8705 139.351 98.8405C142.461 98.5705 144.911 95.9505 144.911 92.7705" stroke="black" stroke-width="0.3" stroke-linecap="round" stroke-linejoin="round"/>
  <path fill-rule="evenodd" clip-rule="evenodd" d="M113.68 89.8902C113.3 89.8902 112.99 89.5801 112.99 89.2001V85.3502C112.99 84.9702 113.3 84.6602 113.68 84.6602C114.06 84.6602 114.37 84.9702 114.37 85.3502V89.2001C114.37 89.5801 114.06 89.8902 113.68 89.8902ZM116.48 86.0901C116.1 86.0901 115.79 86.4002 115.79 86.7802V87.7802C115.79 88.1602 116.1 88.4702 116.48 88.4702C116.86 88.4702 117.17 88.1602 117.17 87.7802V86.7802C117.17 86.4002 116.86 86.0901 116.48 86.0901ZM119.29 84.6702C118.91 84.6702 118.6 84.9802 118.6 85.3602V89.2102C118.6 89.5902 118.91 89.9002 119.29 89.9002C119.67 89.9002 119.98 89.5902 119.98 89.2102V85.3602C119.98 84.9802 119.67 84.6702 119.29 84.6702ZM124.89 85.2302C124.51 85.2302 124.2 85.5402 124.2 85.9202V88.6402C124.2 89.0202 124.51 89.3302 124.89 89.3302C125.27 89.3302 125.58 89.0202 125.58 88.6402V85.9202C125.58 85.5402 125.27 85.2302 124.89 85.2302ZM122.09 85.6602C121.71 85.6602 121.4 85.9702 121.4 86.3502V88.2102C121.4 88.5902 121.71 88.9002 122.09 88.9002C122.47 88.9002 122.78 88.5902 122.78 88.2102V86.3502C122.78 85.9702 122.47 85.6602 122.09 85.6602Z" fill="white"/>
  <path d="M144.91 92.7697C145.142 92.7697 145.33 92.5816 145.33 92.3497C145.33 92.1177 145.142 91.9297 144.91 91.9297C144.678 91.9297 144.49 92.1177 144.49 92.3497C144.49 92.5816 144.678 92.7697 144.91 92.7697Z" stroke="black" stroke-width="0.3" stroke-linecap="round" stroke-linejoin="round"/>
  <path d="M132.721 93.6105C132.953 93.6105 133.141 93.4225 133.141 93.1905C133.141 92.9586 132.953 92.7705 132.721 92.7705C132.489 92.7705 132.301 92.9586 132.301 93.1905C132.301 93.4225 132.489 93.6105 132.721 93.6105Z" stroke="black" stroke-width="0.3" stroke-linecap="round" stroke-linejoin="round"/>
  <path d="M147.832 65.3297C151.29 65.3297 154.092 64.7924 154.092 64.1297C154.092 63.4669 151.29 62.9297 147.832 62.9297C144.375 62.9297 141.572 63.4669 141.572 64.1297C141.572 64.7924 144.375 65.3297 147.832 65.3297Z" fill="black" stroke="black" stroke-width="0.3" stroke-linecap="round" stroke-linejoin="round"/>
  <path d="M103.881 65.3102C107.3 65.3102 110.071 64.7819 110.071 64.1302C110.071 63.4785 107.3 62.9502 103.881 62.9502C100.463 62.9502 97.6914 63.4785 97.6914 64.1302C97.6914 64.7819 100.463 65.3102 103.881 65.3102Z" fill="black" stroke="black" stroke-width="0.3" stroke-linecap="round" stroke-linejoin="round"/>
  <path d="M125.851 16.0498C110.531 16.0498 98.1211 28.4698 98.1211 43.7798V64.1198C98.1211 64.7698 100.701 65.1998 103.871 65.1998C107.041 65.1998 109.621 64.7598 109.621 64.1198V43.7798C109.621 34.8298 116.901 27.5598 125.841 27.5598C134.781 27.5598 142.061 34.8398 142.061 43.7798V64.1198C142.061 64.7698 144.641 65.1998 147.811 65.1998C150.981 65.1998 153.561 64.7598 153.561 64.1198V43.7798C153.561 28.4598 141.141 16.0498 125.831 16.0498H125.851Z" fill="white"/>
  <g style="mix-blend-mode:multiply">
    <path d="M106.012 46.6198V65.2098C108.122 65.0398 109.622 64.6198 109.622 64.1298V43.7898C109.622 39.4398 111.352 35.4998 114.142 32.5898C109.292 35.3998 106.012 40.6298 106.012 46.6298V46.6198Z" fill="#D4E1E4"/>
    <path d="M125.852 16.05C125.392 16.05 124.922 16.06 124.472 16.08C124.262 16.09 124.052 16.11 123.842 16.13C123.602 16.15 123.362 16.16 123.122 16.18C122.832 16.21 122.552 16.25 122.262 16.28C122.112 16.3 121.952 16.32 121.802 16.34C121.452 16.39 121.112 16.45 120.772 16.52C120.692 16.54 120.602 16.55 120.522 16.56C120.122 16.64 119.722 16.73 119.332 16.82C119.312 16.82 119.302 16.82 119.282 16.83C114.652 17.97 110.482 20.27 107.092 23.4C111.452 20.54 116.652 18.38 122.252 18.38C137.572 18.38 149.652 28.99 149.652 45.04V65.15C151.942 65.02 153.592 64.63 153.592 64.12V43.78C153.592 40.43 153.002 37.22 151.912 34.24C148.022 23.62 137.832 16.04 125.862 16.04L125.852 16.05Z" fill="#D4E1E4"/>
    <path d="M150.841 31.7598C150.651 31.3598 150.441 30.9598 150.231 30.5598C149.681 29.5398 149.061 28.5698 148.391 27.6398C148.171 27.3298 147.941 27.0298 147.711 26.7298C147.011 25.8298 146.261 24.9798 145.461 24.1698C145.451 24.1598 145.431 24.1398 145.421 24.1298C144.851 23.5598 144.251 23.0198 143.631 22.4998C143.511 22.3998 143.391 22.2998 143.271 22.2098C142.751 21.7898 142.221 21.3898 141.671 21.0098C141.041 20.5698 140.401 20.1698 139.741 19.7798C138.811 19.2398 137.851 18.7498 136.861 18.3298C133.481 16.8698 129.761 16.0498 125.851 16.0498C125.841 16.0498 125.821 16.0498 125.811 16.0498C125.691 16.0498 125.561 16.0498 125.441 16.0498C140.571 16.2698 152.311 28.9198 152.311 44.0998V64.8098C153.111 64.6298 153.581 64.3898 153.581 64.1098V43.7698C153.581 39.4598 152.601 35.3798 150.851 31.7498L150.841 31.7598Z" fill="#223236"/>
  </g>
  <path d="M142.072 48.2002C142.072 48.2002 142.312 49.3602 144.502 50.1602C145.122 50.3802 145.482 50.8702 145.482 51.3802V64.9402" stroke="#839195" stroke-width="0.3" stroke-linecap="round" stroke-linejoin="round"/>
  <path d="M123.451 16.3203C123.231 16.9403 123.231 17.9303 123.221 18.6703C123.221 19.3103 122.701 19.8103 122.061 19.8503C111.551 20.5303 102.421 30.8003 101.801 41.6903" stroke="#839195" stroke-width="0.3" stroke-linecap="round" stroke-linejoin="round"/>
  <path d="M101.801 43.9399C101.995 43.9399 102.151 43.7026 102.151 43.4099C102.151 43.1172 101.995 42.8799 101.801 42.8799C101.608 42.8799 101.451 43.1172 101.451 43.4099C101.451 43.7026 101.608 43.9399 101.801 43.9399Z" fill="#839195" stroke="#839195" stroke-width="0.3" stroke-linecap="round" stroke-linejoin="round"/>
  <path d="M125.851 16.0498C110.531 16.0498 98.1211 28.4698 98.1211 43.7798V64.1198C98.1211 64.7698 100.701 65.1998 103.871 65.1998C107.041 65.1998 109.621 64.7598 109.621 64.1198V43.7798C109.621 34.8298 116.901 27.5598 125.841 27.5598C134.781 27.5598 142.061 34.8398 142.061 43.7798V64.1198C142.061 64.7698 144.641 65.1998 147.811 65.1998C150.981 65.1998 153.561 64.7598 153.561 64.1198V43.7798C153.561 28.4598 141.141 16.0498 125.831 16.0498H125.851Z" stroke="black" stroke-width="0.3" stroke-linecap="round" stroke-linejoin="round"/>
  <path d="M162.521 84.3701C162.521 84.7101 162.351 85.0901 162.151 85.2001C161.951 85.3101 161.781 85.1301 161.781 84.7801C161.781 84.4301 161.951 84.0601 162.151 83.9501C162.351 83.8401 162.521 84.0201 162.521 84.3701ZM162.141 86.7701C161.931 86.8801 161.771 87.2601 161.771 87.6001C161.771 87.9401 161.941 88.1301 162.141 88.0201C162.341 87.9101 162.511 87.5301 162.511 87.1901C162.511 86.8501 162.341 86.6601 162.141 86.7701ZM162.141 89.5901C161.931 89.7001 161.771 90.0801 161.771 90.4201C161.771 90.7601 161.941 90.9501 162.141 90.8401C162.341 90.7301 162.511 90.3501 162.511 90.0101C162.511 89.6701 162.341 89.4801 162.141 89.5901Z" fill="white"/>
  <path d="M204.981 57.7995C202.391 57.7995 200.291 55.6895 200.291 53.1095C200.291 52.7395 199.991 52.4395 199.621 52.4395C199.251 52.4395 198.951 52.7395 198.951 53.1095C198.951 56.4395 201.661 59.1495 204.991 59.1495C205.361 59.1495 205.661 58.8495 205.661 58.4795C205.661 58.1095 205.361 57.8095 204.991 57.8095L204.981 57.7995Z" fill="#24D17F"/>
  <path d="M194.99 53.2302C195.02 50.6702 197.11 48.5902 199.68 48.5902C202.25 48.5902 204.37 50.7002 204.37 53.2802C204.37 53.6502 204.67 53.9502 205.04 53.9502C205.41 53.9502 205.71 53.6502 205.71 53.2802C205.71 49.9502 203 47.2402 199.67 47.2402C196.34 47.2402 193.78 49.8202 193.65 53.0302C193.65 53.0502 193.64 53.0702 193.64 53.0902C193.64 53.1202 193.64 53.1502 193.64 53.1902C193.64 53.2202 193.64 53.2502 193.64 53.2802C193.64 53.3002 193.64 53.3202 193.65 53.3302C193.71 56.1002 194.75 58.7402 196.63 60.7902C196.76 60.9302 196.94 61.0102 197.12 61.0102C197.28 61.0102 197.44 60.9502 197.57 60.8302C197.84 60.5802 197.86 60.1602 197.61 59.8802C195.94 58.0502 195.01 55.6902 194.98 53.2202L194.99 53.2302Z" fill="#24D17F"/>
  <path d="M199.681 44.5703C194.961 44.5703 191.101 48.3503 190.971 53.0403C190.971 53.0603 190.961 53.0803 190.961 53.1003C190.961 53.1303 190.961 53.1703 190.961 53.2003C190.961 53.2303 190.961 53.2503 190.961 53.2803C190.961 53.3003 190.961 53.3103 190.961 53.3303C190.981 54.7803 191.221 56.2103 191.681 57.5703C191.771 57.8503 192.041 58.0303 192.321 58.0303C192.391 58.0303 192.461 58.0203 192.531 58.0003C192.881 57.8803 193.071 57.5003 192.951 57.1503C192.531 55.8803 192.311 54.5503 192.301 53.2103C192.341 49.1803 195.631 45.9103 199.671 45.9103C203.711 45.9103 207.051 49.2203 207.051 53.2903C207.051 54.4003 206.151 55.3003 205.041 55.3003C203.931 55.3003 203.031 54.4003 203.031 53.2903C203.031 51.4403 201.531 49.9403 199.681 49.9403C197.831 49.9403 196.331 51.4403 196.331 53.2903C196.331 56.7503 198.381 59.8903 201.551 61.2803C201.641 61.3203 201.731 61.3403 201.821 61.3403C202.081 61.3403 202.321 61.1903 202.431 60.9403C202.581 60.6003 202.431 60.2103 202.091 60.0603C199.411 58.8803 197.671 56.2303 197.671 53.3003C197.671 52.1903 198.571 51.2903 199.681 51.2903C200.791 51.2903 201.691 52.1903 201.691 53.3003C201.691 55.1503 203.191 56.6503 205.041 56.6503C206.891 56.6503 208.391 55.1503 208.391 53.3003C208.391 48.4903 204.481 44.5803 199.671 44.5803L199.681 44.5703Z" fill="#24D17F"/>
  <path d="M193.66 45.2299C195.41 43.9199 197.49 43.2299 199.68 43.2299C201.87 43.2299 203.95 43.9199 205.7 45.2299C205.82 45.3199 205.96 45.3599 206.1 45.3599C206.3 45.3599 206.51 45.2699 206.64 45.0899C206.86 44.7899 206.8 44.3699 206.5 44.1499C204.52 42.6699 202.16 41.8799 199.68 41.8799C197.2 41.8799 194.84 42.6599 192.86 44.1499C192.56 44.3699 192.5 44.7899 192.72 45.0899C192.94 45.3899 193.36 45.4499 193.66 45.2199V45.2299Z" fill="#24D17F"/>
  <path d="M208.021 118.42C201.791 133.74 159.351 130.97 113.231 112.21C67.1107 93.4598 34.7707 65.8298 41.0007 50.5098" stroke="#839195" stroke-width="0.3" stroke-linecap="round" stroke-linejoin="round"/>
  <path d="M66.3007 91.18C68.5595 91.18 70.3907 89.3488 70.3907 87.09C70.3907 84.8312 68.5595 83 66.3007 83C64.0419 83 62.2107 84.8312 62.2107 87.09C62.2107 89.3488 64.0419 91.18 66.3007 91.18Z" fill="#24D17F" stroke="black" stroke-width="0.3" stroke-linecap="round" stroke-linejoin="round"/>
  <path d="M50.4003 101.05L40.3203 110.37H50.4003" stroke="#24D17F" stroke-width="0.3" stroke-linecap="round" stroke-linejoin="round"/>
  <path d="M222.88 40.4905L218.16 35.7705C217.75 35.3605 217.19 35.1305 216.6 35.1305H205.52C204.94 35.1305 204.38 34.9005 203.96 34.4905L203.34 33.8705C202.93 33.4605 202.37 33.2305 201.78 33.2305H185.11C184.67 33.2305 184.25 33.3605 183.89 33.6005C183.77 33.6805 182.26 34.6705 182.15 34.7405C182 34.8305 181.86 34.9305 181.74 35.0605L178.3 38.5005C177.89 38.9105 177.66 39.4705 177.66 40.0605V61.6605C177.66 62.2405 177.89 62.8005 178.3 63.2205L179.73 64.6505C180.14 65.0605 180.7 65.2905 181.29 65.2905H188.99C189.57 65.2905 190.13 65.5205 190.55 65.9405L192.19 67.5805C192.6 67.9905 193.16 68.2205 193.75 68.2205H215.74C216.08 68.2205 216.41 68.1305 216.71 67.9905H216.72C216.85 67.9305 216.97 67.8505 217.08 67.7605C217.6 67.4305 218.53 66.8505 218.78 66.6805C218.9 66.6005 219.01 66.5105 219.12 66.4105L222.91 62.6205C223.32 62.2105 223.56 61.6505 223.56 61.0605V42.0805C223.56 41.5005 223.33 40.9405 222.91 40.5205L222.88 40.4905Z" stroke="black" stroke-width="0.3" stroke-linecap="round" stroke-linejoin="round"/>
  <defs>
    <linearGradient id="paint0_linear_206_2871" x1="44.6807" y1="117.07" x2="44.6807" y2="107.09" gradientUnits="userSpaceOnUse">
      <stop stop-color="#D0E0E4" stop-opacity="0"/>
      <stop offset="0.1" stop-color="#D0E0E4" stop-opacity="0.03"/>
      <stop offset="0.23" stop-color="#D0E0E4" stop-opacity="0.1"/>
      <stop offset="0.39" stop-color="#D0E0E4" stop-opacity="0.23"/>
      <stop offset="0.56" stop-color="#D0E0E4" stop-opacity="0.41"/>
      <stop offset="0.74" stop-color="#D0E0E4" stop-opacity="0.63"/>
      <stop offset="0.94" stop-color="#D0E0E4" stop-opacity="0.9"/>
      <stop offset="1" stop-color="#D0E0E4"/>
    </linearGradient>
    <linearGradient id="paint1_linear_206_2871" x1="199.682" y1="68.1902" x2="199.682" y2="51.9902" gradientUnits="userSpaceOnUse">
      <stop stop-color="#D0E0E4" stop-opacity="0"/>
      <stop offset="0.1" stop-color="#D0E0E4" stop-opacity="0.03"/>
      <stop offset="0.23" stop-color="#D0E0E4" stop-opacity="0.1"/>
      <stop offset="0.39" stop-color="#D0E0E4" stop-opacity="0.23"/>
      <stop offset="0.56" stop-color="#D0E0E4" stop-opacity="0.41"/>
      <stop offset="0.74" stop-color="#D0E0E4" stop-opacity="0.63"/>
      <stop offset="0.94" stop-color="#D0E0E4" stop-opacity="0.9"/>
      <stop offset="1" stop-color="#D0E0E4"/>
    </linearGradient>
  </defs>
</svg>