<svg width="34" height="34" viewBox="0 0 34 34" fill="none" xmlns="http://www.w3.org/2000/svg">
<rect width="34" height="34" rx="7" fill="#2DBD96"/>
<path fill-rule="evenodd" clip-rule="evenodd" d="M13.0065 16.5021L19.1697 22.7228L23.06 18.7969C23.7556 18.1648 24.8198 18.1929 25.4817 18.8609C26.1436 19.5289 26.1715 20.6029 25.5451 21.3049L20.4113 26.4867C19.7218 27.1711 18.6158 27.1711 17.9262 26.4867L10.5194 19.0101V23.454C10.5194 24.4348 9.73155 25.2298 8.75969 25.2298C7.78784 25.2298 7 24.4348 7 23.454V9.54446C7 8.5637 7.78784 7.76863 8.75969 7.76863C9.73155 7.76863 10.5194 8.5637 10.5194 9.54446V13.9884L17.9252 6.51369C18.6146 5.82877 19.721 5.82877 20.4104 6.51369L25.548 11.6946C26.1744 12.3966 26.1465 13.4706 25.4846 14.1385C24.8227 14.8065 23.7585 14.8346 23.0628 14.2025L19.1726 10.2766L13.0065 16.5021ZM19.1726 14.7244C18.46 14.724 17.8173 15.1569 17.5444 15.8211C17.2714 16.4854 17.4219 17.2502 17.9256 17.7588C18.4294 18.2675 19.1872 18.4198 19.8455 18.1446C20.5039 17.8695 20.9332 17.2212 20.9332 16.5021C20.9335 16.0306 20.7481 15.5784 20.4179 15.2448C20.0878 14.9112 19.6398 14.7237 19.1726 14.7234V14.7244Z" fill="white"/>
</svg>
