<svg height="106" viewBox="0 0 64 106" width="64" xmlns="http://www.w3.org/2000/svg" xmlns:xlink="http://www.w3.org/1999/xlink"><linearGradient id="a" x1="61.932094%" x2="77.88277%" y1="32.319461%" y2="47.50391%"><stop offset="0" stop-color="#58ccb6" stop-opacity=".08"/><stop offset="1" stop-color="#58ccb6" stop-opacity="0"/></linearGradient><g fill="none" fill-rule="evenodd" transform="translate(-27.324324 -9)"><path d="m0 0h120v120h-120z"/><g fill="#58ccb6"><path d="m27.7240541 102.390811 4.865027 3.243243-.1566487-55.5227026 9.1688108-15.8821622 36.8172973-21.2562162-4.865027-3.24324327-36.8172973 21.25621617-9.1686486 15.8821622z" fill-opacity=".08"/><path d="m73.5535135 9.72972973.0160541 6.04199997-1.153.666-.0127838-4.7207027-35.0845946 20.2548649-8.6010811 14.8986486.1524324 53.5362165 3.6970271-2.1350273.004 1.32-4.8475135 2.7990813-.1548649-54.857838-.0016216-.6648649 9.1686486-15.8821622.5805406-.3348648z" fill-opacity=".24"/><g transform="translate(32.432432 12.972973)"><path d="m39.1498378 28.4412973.0040541 1.3208108-32.21027028 18.595946-.00405405-1.32z" opacity=".32"/><path d="m39.1307838 21.8324595.004054 1.3208108-32.21027023 18.5959459-.00405406-1.32z" opacity=".32"/><path d="m39.2075676 48.9281351.004054 1.32-23.0051351 13.2827027-.0040541-1.3208108z" opacity=".32"/><path d="m39.225 54.8765676.0032432 1.32-9.2043243 5.3148648-.004054-1.3208108z" opacity=".32"/><g fill-opacity=".24"><path d="m6.95635135 52.9857568 32.21027025-18.595946.0283784 9.9105406-32.21027027 18.5959459z"/><path d="m45.9861081 0-36.23675675 20.9213514-.58054054.3348648-9.16864865 15.8821622.00162162.6648648.15486487 54.8578379 46.01675675-26.567027zm-44.8354054 37.1408108 8.62945946-4.9824324-.02837838-9.9162162 35.08459462-20.2548649.1791892 63.4524324-43.71243246 25.2372973zm7.45135135-13.0248649.02027027 7.3824325-6.42405405 3.7086486z"/></g></g></g><path d="m32.5890811 105.634054 46.0167567-26.567027 14.6374054 9.7167568-46.2162162 26.3513512z" fill="url(#a)"/></g></svg>