<?xml version="1.0" encoding="UTF-8"?>
<svg width="200px" height="249px" viewBox="0 0 200 249" version="1.1" xmlns="http://www.w3.org/2000/svg" xmlns:xlink="http://www.w3.org/1999/xlink">
    <!-- Generator: Sketch 52.5 (67469) - http://www.bohemiancoding.com/sketch -->
    <title>pop404</title>
    <desc>Created with Sketch.</desc>
    <defs>
        <linearGradient x1="-28.9663014%" y1="57.7432849%" x2="75.5194591%" y2="19.6535962%" id="linearGradient-1">
            <stop stop-color="#8FD7FF" stop-opacity="0" offset="0%"></stop>
            <stop stop-color="#A0FFF0" offset="100%"></stop>
        </linearGradient>
        <linearGradient x1="6.79959309%" y1="50%" x2="257.01318%" y2="55.3302628%" id="linearGradient-2">
            <stop stop-color="#B0EEF2" offset="0%"></stop>
            <stop stop-color="#E7FBFF" offset="100%"></stop>
        </linearGradient>
        <path d="M199.381699,121.258824 L199.342484,135.822222 L0,20.7333333 L0.0431372549,6.16862745 C0.0535947712,1.03006536 3.70196078,-1.04836601 8.17385621,1.53333333 L191.301961,107.261438 C195.764916,109.839774 199.366098,116.067365 199.381699,121.192066 L199.381699,121.258824 Z" id="path-3"></path>
        <linearGradient x1="12.6394599%" y1="0%" x2="106.391757%" y2="100%" id="linearGradient-5">
            <stop stop-color="#52B7A0" offset="0%"></stop>
            <stop stop-color="#0D765F" offset="100%"></stop>
        </linearGradient>
    </defs>
    <g id="Page-1" stroke="none" stroke-width="1" fill="none" fill-rule="evenodd">
        <g id="404-copy" transform="translate(-803.000000, -224.000000)">
            <g id="pop404" transform="translate(803.000000, 223.000000)">
                <g id="Group-3" transform="translate(0.000000, 21.491503)" fill-rule="nonzero">
                    <path d="M-3.52441059e-05,0.125490196 L199.342484,115.214379 L199.342484,222.00915 C199.326797,227.14902 195.691503,229.235294 191.20915,226.644444 L8.08104575,120.918954 C3.61176471,118.335948 -0.0130718954,112.058824 4.14715395e-14,106.922876 L-3.52441059e-05,0.125490196 Z" id="Fill-1" fill="url(#linearGradient-1)" opacity="0.200000003"></path>
                    <path d="M52.6093634,60 L60.4662436,64.5280333 L43.710327,95.4913115 L56.6070091,102.934877 L56.6558602,86.6877072 L63.7148396,90.7678235 L63.6741304,107.014993 L67.5740741,109.270866 L67.5496485,116.983182 L63.6497049,114.727309 L63.6334212,123.148148 L56.5581581,119.068032 L56.5825836,110.647193 L36,98.7570334 L36.0162837,91.0447177 L52.6093634,60 Z M100.969082,91.298481 C103.754804,95.7805442 105.168331,100.623139 105.259259,105.973756 L105.184863,131.104447 C105.069136,136.332155 103.630811,139.544164 100.828556,140.765055 C98.1254965,142.059691 94.7942029,141.592639 90.8925389,139.421255 C87.1479334,137.217096 83.8745035,133.898567 81.138379,129.498442 C78.2451959,125.016379 76.7820719,120.141009 76.7407407,114.823168 L76.8151369,89.7006705 C76.8812668,84.4319928 78.3691895,81.2527597 81.278905,80.0318686 C84.031562,78.7782019 87.3132582,79.2698359 91.0578637,81.4084438 C94.9595276,83.6453784 98.282555,86.9311323 100.969082,91.298481 Z M98.0097692,126.57322 L98.0841653,102.343858 C97.9353731,96.5425769 95.6208266,92.3309124 91.0330649,89.5859559 C86.4453033,87.0786225 84.1142244,88.6354635 83.9902308,94.2892545 L83.9158347,118.510423 C84.0067633,124.278928 86.3213097,128.556144 90.9173376,131.243743 C95.5050993,133.808434 97.8361782,132.194236 98.0097692,126.57322 Z M138.941021,109.382979 L122.136253,140.309693 L135.032935,147.752298 L135.073644,131.507224 L142.148907,135.586814 L142.100056,151.831889 L146,154.08747 L145.975574,161.798792 L142.075631,159.54321 L142.051205,167.962963 L134.984084,163.883373 L135.00851,155.46362 L114.425926,143.574993 L114.44221,135.863672 L131.035289,104.814815 L138.941021,109.382979 Z" id="Combined-Shape" fill="url(#linearGradient-2)" opacity="0.5"></path>
                </g>
                <g id="Group-6" transform="translate(0.000000, 0.883660)">
                    <mask id="mask-4" fill="white">
                        <use xlink:href="#path-3"></use>
                    </mask>
                    <g id="Clip-5"></g>
                    <path d="M0.0431372549,6.16862745 C0.0535947712,1.03006536 3.70196078,-1.04836601 8.17385621,1.53333333 L191.301961,107.261438 C195.784314,109.85098 199.397386,116.121569 199.381699,121.258824 L199.342484,135.822222 L0,20.7333333 L0.0431372549,6.16862745 Z" id="Fill-4" fill="url(#linearGradient-5)" fill-rule="nonzero" mask="url(#mask-4)"></path>
                </g>
                <path d="M188.050327,116.208627 C189.113072,116.823007 189.978431,118.319739 189.975817,119.543268 C189.971895,120.775948 189.102614,121.262222 188.037255,120.647843 C186.971895,120.032157 186.10915,118.54719 186.111765,117.31451 C186.116993,116.088366 186.986275,115.595556 188.050327,116.208627" id="Fill-7" fill="#FFFFFF" opacity="0.5"></path>
                <path d="M180.873464,112.06549 C181.936209,112.679869 182.801569,114.175294 182.797647,115.400131 C182.795033,116.63281 181.924444,117.117778 180.860392,116.504706 C179.795033,115.88902 178.932288,114.402745 178.936209,113.168758 C178.940131,111.945229 179.808105,111.451111 180.873464,112.06549" id="Fill-9" fill="#000000" opacity="0.200000003"></path>
                <path d="M173.696732,107.92183 C174.760784,108.536209 175.626144,110.031634 175.620915,111.255163 C175.618301,112.48915 174.747712,112.974118 173.68366,112.361046 C172.618301,111.745359 171.754248,110.259085 171.75817,109.026405 C171.762092,107.801569 172.631373,107.306144 173.696732,107.92183" id="Fill-11" fill="#000000" opacity="0.200000003"></path>
            </g>
        </g>
    </g>
</svg>