<?xml version="1.0" encoding="UTF-8"?>
<svg width="153px" height="250px" viewBox="0 0 153 250" version="1.1" xmlns="http://www.w3.org/2000/svg" xmlns:xlink="http://www.w3.org/1999/xlink">
    <!-- Generator: Sketch 52.5 (67469) - http://www.bohemiancoding.com/sketch -->
    <title>pop2</title>
    <desc>Created with Sketch.</desc>
    <defs>
        <linearGradient x1="-28.9663014%" y1="57.7432849%" x2="75.5194591%" y2="19.6535962%" id="linearGradient-1">
            <stop stop-color="#8FD7FF" stop-opacity="0" offset="0%"></stop>
            <stop stop-color="#A0FFF0" offset="100%"></stop>
        </linearGradient>
        <path d="M1.051,4.783 C0.601,4.523 0.231,3.889 0.232,3.366 L0.24,0.69 C0.242,0.166 0.614,-0.039 1.064,0.221 L26.734,15.041 C27.19,15.305 27.554,15.934 27.552,16.458 L27.544,19.135 C27.544,19.658 27.177,19.867 26.722,19.603" id="path-2"></path>
        <path d="M1.667,4.882 C1.212,4.618 0.848,3.989 0.849,3.465 L0.856,0.789 C0.858,0.264 1.225,0.056 1.681,0.32 L27.351,15.14 C27.8,15.4 28.17,16.033 28.168,16.557 L28.161,19.233 C28.16,19.757 27.788,19.962 27.338,19.702" id="path-4"></path>
        <linearGradient x1="-0.00146214851%" y1="50.0007539%" x2="99.9996326%" y2="50.0007539%" id="linearGradient-6">
            <stop stop-color="#FFFFFF" offset="0%"></stop>
            <stop stop-color="#FFFFFF" offset="100%"></stop>
        </linearGradient>
        <path d="M0.876,5.272 C0.427,5.012 0.058,4.372 0.059,3.855 L0.066,1.178 C0.067,0.654 0.44,0.449 0.89,0.709 L42.928,24.98 C43.384,25.242 43.746,25.873 43.746,26.396 L43.737,29.072 C43.736,29.589 43.371,29.805 42.915,29.54" id="path-7"></path>
        <linearGradient x1="-0.00113894805%" y1="50.0003225%" x2="100.000001%" y2="50.0003225%" id="linearGradient-9">
            <stop stop-color="#FFFFFF" offset="0%"></stop>
            <stop stop-color="#FFFFFF" offset="100%"></stop>
        </linearGradient>
        <path d="M0.849,5.521 C0.398,5.26 0.028,4.62 0.03,4.103 L0.037,1.421 C0.039,0.904 0.411,0.7 0.86,0.958 L59.606,34.876 C60.057,35.135 60.42,35.765 60.419,36.283 L60.412,38.964 C60.41,39.482 60.044,39.698 59.594,39.437" id="path-10"></path>
        <linearGradient x1="0.000335773309%" y1="49.9992975%" x2="99.9998325%" y2="49.9992975%" id="linearGradient-12">
            <stop stop-color="#FFFFFF" offset="0%"></stop>
            <stop stop-color="#FFFFFF" offset="100%"></stop>
        </linearGradient>
        <path d="M0,3.353 L0.008,0.669 C0.01,0.153 0.382,-0.059 0.832,0.201 L70.576,40.469 C71.032,40.731 71.396,41.367 71.395,41.884 L71.388,44.569 C71.386,45.085 71.02,45.293 70.563,45.03 L0.818,4.763 C0.369217064,4.50370319 0.000996576704,3.87342128 -6.46560494e-11,3.35719735 L0,3.353" id="path-13"></path>
        <linearGradient x1="2.84017181e-06%" y1="49.9996471%" x2="99.9993086%" y2="49.9996471%" id="linearGradient-15">
            <stop stop-color="#FFFFFF" offset="0%"></stop>
            <stop stop-color="#FFFFFF" offset="100%"></stop>
        </linearGradient>
        <path d="M0.935,4.773 C0.485,4.513 0.115,3.88 0.117,3.355 L0.125,0.68 C0.126,0.156 0.498,-0.049 0.948,0.21 L39.538,22.492 C39.988,22.75 40.357,23.384 40.355,23.909 L40.349,26.583 C40.348,27.108 39.976,27.312 39.525,27.054" id="path-16"></path>
        <linearGradient x1="0.000285476791%" y1="50.0002512%" x2="100.001001%" y2="50.0002512%" id="linearGradient-18">
            <stop stop-color="#FFFFFF" offset="0%"></stop>
            <stop stop-color="#FFFFFF" offset="100%"></stop>
        </linearGradient>
        <path d="M16.412,9.344 C16.869,9.607 17.232,10.242 17.23,10.759 L17.224,13.444 C17.222,13.96 16.856,14.169 16.399,13.905 L1.163,5.109 C0.707,4.845 0.344,4.216 0.345,3.7 L0.353,1.015 C0.354,0.498 0.72,0.283 1.177,0.546" id="path-19"></path>
        <path d="M0.906,5.022 C0.456,4.762 0.086,4.128 0.088,3.605 L0.095,0.929 C0.097,0.405 0.469,0.2 0.919,0.46 L70.664,40.728 C71.12,40.99 71.483,41.62 71.482,42.145 L71.475,44.82 C71.473,45.344 71.106,45.552 70.651,45.29" id="path-21"></path>
        <linearGradient x1="-0.000276255392%" y1="50.0000167%" x2="100.00056%" y2="50.0000167%" id="linearGradient-23">
            <stop stop-color="#FFFFFF" offset="0%"></stop>
            <stop stop-color="#FFFFFF" offset="100%"></stop>
        </linearGradient>
        <path d="M0.964,5.523 C0.514,5.264 0.145,4.631 0.145,4.114 L0.153,1.43 C0.154,0.913 0.526,0.701 0.977,0.962 L59.309,34.641 C59.766,34.903 60.129,35.541 60.128,36.058 L60.12,38.74 C60.119,39.257 59.753,39.466 59.296,39.201" id="path-24"></path>
        <linearGradient x1="0.000833569483%" y1="50.000307%" x2="99.9998345%" y2="50.000307%" id="linearGradient-26">
            <stop stop-color="#FFFFFF" offset="0%"></stop>
            <stop stop-color="#FFFFFF" offset="100%"></stop>
        </linearGradient>
        <path d="M0.142,1.515 C0.143,0.991 0.509,0.783 0.959,1.043 L39.549,23.324 C39.999,23.582 40.368,24.216 40.367,24.741 L40.36,27.415 C40.358,27.94 39.986,28.145 39.536,27.886 L0.945,5.606 C0.495,5.345 0.133,4.717 0.134,4.192" id="path-27"></path>
        <linearGradient x1="-0.000746733116%" y1="49.9996185%" x2="100.000281%" y2="49.9996185%" id="linearGradient-29">
            <stop stop-color="#FFFFFF" offset="0%"></stop>
            <stop stop-color="#FFFFFF" offset="100%"></stop>
        </linearGradient>
        <path d="M1.022,5.032 C0.572,4.772 0.203,4.132 0.204,3.615 L0.212,0.939 C0.213,0.415 0.585,0.21 1.034,0.47 L67.77,39 C68.227,39.263 68.59,39.892 68.588,40.416 L68.581,43.093 C68.579,43.61 68.214,43.825 67.758,43.561" id="path-30"></path>
        <linearGradient x1="0.000167038669%" y1="49.9998222%" x2="99.9997097%" y2="49.9998222%" id="linearGradient-32">
            <stop stop-color="#FFFFFF" offset="0%"></stop>
            <stop stop-color="#FFFFFF" offset="100%"></stop>
        </linearGradient>
        <path d="M60.347,34.832 C60.803,35.094 61.165,35.725 61.164,36.249 L61.157,38.924 C61.156,39.441 60.789,39.657 60.334,39.395 L0.875,5.065 C0.426,4.807 0.062,4.17 0.063,3.654 L0.071,0.977 C0.073,0.452 0.438,0.244 0.889,0.504" id="path-33"></path>
        <linearGradient x1="0.000658508842%" y1="49.9999914%" x2="99.9999991%" y2="49.9999914%" id="linearGradient-35">
            <stop stop-color="#FFFFFF" offset="0%"></stop>
            <stop stop-color="#FFFFFF" offset="100%"></stop>
        </linearGradient>
        <path d="M48.376,27.581 C48.831,27.846 49.195,28.476 49.193,29.001 L49.186,31.675 C49.184,32.2 48.818,32.409 48.362,32.144 L1.035,4.82 C0.585,4.561 0.215,3.927 0.217,3.402 L0.224,0.728 C0.226,0.203 0.598,-0.002 1.047,0.257" id="path-36"></path>
        <linearGradient x1="-0.000616280836%" y1="49.9998597%" x2="100.000608%" y2="49.9998597%" id="linearGradient-38">
            <stop stop-color="#FFFFFF" offset="0%"></stop>
            <stop stop-color="#FFFFFF" offset="100%"></stop>
        </linearGradient>
        <path d="M0.993,5.282 C0.543,5.021 0.173,4.381 0.175,3.864 L0.183,1.182 C0.185,0.665 0.557,0.46 1.007,0.719 L105.353,60.964 C105.803,61.224 106.167,61.853 106.165,62.37 L106.157,65.054 C106.156,65.571 105.789,65.786 105.34,65.527" id="path-39"></path>
        <linearGradient x1="-0.000186743818%" y1="49.9999074%" x2="99.9999975%" y2="49.9999074%" id="linearGradient-41">
            <stop stop-color="#FFFFFF" offset="0%"></stop>
            <stop stop-color="#FFFFFF" offset="100%"></stop>
        </linearGradient>
        <path d="M59.434,34.085 C59.89,34.347 60.253,34.985 60.252,35.502 L60.243,38.184 C60.242,38.701 59.877,38.909 59.421,38.648 L1.088,4.969 C0.639,4.709 0.274,4.078 0.275,3.561 L0.283,0.879 C0.284,0.362 0.651,0.146 1.102,0.407" id="path-42"></path>
        <path d="M13.462,7.842 C13.918,8.106 14.282,8.735 14.28,9.252 L14.273,11.936 C14.271,12.452 13.905,12.667 13.449,12.405 L1.028,5.233 C0.571,4.968 0.208,4.332 0.21,3.816 L0.218,1.133 C0.219,0.617 0.585,0.408 1.041,0.67" id="path-44"></path>
        <linearGradient x1="-0.000707001594%" y1="49.9993377%" x2="100.001418%" y2="49.9993377%" id="linearGradient-46">
            <stop stop-color="#FFFFFF" offset="0%"></stop>
            <stop stop-color="#FFFFFF" offset="100%"></stop>
        </linearGradient>
        <path d="M51.492,29.594 C51.947,29.856 52.311,30.487 52.311,31.009 L52.302,33.686 C52.301,34.202 51.935,34.418 51.478,34.155 L1.001,5.012 C0.546,4.749 0.181,4.112 0.183,3.595 L0.19,0.919 C0.192,0.394 0.559,0.187 1.015,0.45" id="path-47"></path>
        <linearGradient x1="-0.000762584289%" y1="50.0001246%" x2="99.9990502%" y2="50.0001246%" id="linearGradient-49">
            <stop stop-color="#FFFFFF" offset="0%"></stop>
            <stop stop-color="#FFFFFF" offset="100%"></stop>
        </linearGradient>
        <path d="M64.338,37.761 L64.331,40.437 C64.33,40.96 63.964,41.168 63.508,40.906 L1.611,5.17 C1.163,4.91 0.798,4.281 0.8,3.756 L0.808,1.081 C0.81,0.557 1.176,0.348 1.625,0.608 L63.52,36.344 C63.9744926,36.6065515 64.3360139,37.2291197 64.338,37.7523493 L64.338,37.761" id="path-50"></path>
        <linearGradient x1="-0.00031260003%" y1="50.0001283%" x2="99.9996828%" y2="50.0001283%" id="linearGradient-52">
            <stop stop-color="#FFFFFF" offset="0%"></stop>
            <stop stop-color="#FFFFFF" offset="100%"></stop>
        </linearGradient>
        <path d="M30.6339872,22 C30.5255975,21.99735 30.4038519,21.9605985 30.275,21.886 L1.523,5.285 C1.066,5.022 0.703,4.393 0.704,3.875 L0.712,1.192 C0.713,0.675 1.079,0.46 1.536,0.723 L30.288,17.324 C30.744,17.587 31.107,18.223 31.105,18.741 L31.099,21.422 C31.0983046,21.7822222 30.9206136,21.9934972 30.6590811,22 L30.6339847,22" id="path-53"></path>
        <linearGradient x1="0.000365978429%" y1="49.999991%" x2="100.001302%" y2="49.999991%" id="linearGradient-55">
            <stop stop-color="#FFFFFF" offset="0%"></stop>
            <stop stop-color="#FFFFFF" offset="100%"></stop>
        </linearGradient>
        <path d="M60.317,34.08 C60.772,34.344 61.138,34.975 61.136,35.492 L61.128,38.174 C61.126,38.691 60.76,38.907 60.304,38.643 L1.564,4.73 C1.114,4.47 0.744,3.829 0.746,3.313 L0.754,0.631 C0.756,0.114 1.127,-0.092 1.577,0.167" id="path-56"></path>
        <linearGradient x1="4.42158742e-06%" y1="49.9993911%" x2="99.9995028%" y2="49.9993911%" id="linearGradient-58">
            <stop stop-color="#FFFFFF" offset="0%"></stop>
            <stop stop-color="#FFFFFF" offset="100%"></stop>
        </linearGradient>
        <path d="M36.404,20.333 C36.86,20.596 37.224,21.226 37.223,21.75 L37.216,24.425 C37.214,24.951 36.848,25.159 36.392,24.896 L1.747,4.894 C1.298,4.633 0.928,4.001 0.93,3.477 L0.936,0.802 C0.937,0.278 1.31,0.071 1.76,0.331" id="path-59"></path>
        <linearGradient x1="-0.00109120126%" y1="50.0003122%" x2="99.9988999%" y2="50.0003122%" id="linearGradient-61">
            <stop stop-color="#FFFFFF" offset="0%"></stop>
            <stop stop-color="#FFFFFF" offset="100%"></stop>
        </linearGradient>
        <path d="M1.32,0.939 L14.223,8.388 C14.678,8.65 15.042,9.281 15.041,9.805 L15.033,12.48 C15.032,12.996 14.665,13.212 14.209,12.949 L1.308,5.501 C0.857,5.241 0.494,4.605 0.495,4.087 L0.502,1.411 C0.504,0.887 0.871,0.678 1.32,0.939 Z" id="path-62"></path>
        <path d="M152.527,92.763 L152.497,103.904 L0,15.861 L0.033,4.719 C0.041,0.788 2.832,-0.802 6.253,1.173 L146.346,82.055 C149.760161,84.0274272 152.515065,88.7915346 152.527,92.7119302 L152.527,92.763 Z" id="path-64"></path>
        <linearGradient x1="12.6394599%" y1="0%" x2="106.391757%" y2="100%" id="linearGradient-66">
            <stop stop-color="#52B7A0" offset="0%"></stop>
            <stop stop-color="#0D765F" offset="100%"></stop>
        </linearGradient>
    </defs>
    <g id="Page-1" stroke="none" stroke-width="1" fill="none" fill-rule="evenodd">
        <g id="404-copy" transform="translate(-1022.000000, -213.000000)">
            <g id="pop2" transform="translate(1022.000000, 212.000000)">
                <g id="Group-3" transform="translate(0.000000, 15.676000)">
                    <path d="M-2.69617416e-05,0.861 L152.497,88.904 L152.497,230.602 C152.485,234.534 149.704,236.13 146.275,234.148 L6.182,153.268 C2.763,151.292 -0.01,146.49 -4.89995407e-13,142.561 L-2.69617416e-05,0.861 Z" id="Fill-1" fill="url(#linearGradient-1)" fill-rule="nonzero" opacity="0.200000003"></path>
                    <g id="Group-67" opacity="0.100000001" transform="translate(16.000000, 34.324000)">
                        <g id="Group-3" transform="translate(0.000000, 0.892000)">
                            <mask id="mask-3" fill="white">
                                <use xlink:href="#path-2"></use>
                            </mask>
                            <g id="Clip-2"></g>
                            <path d="M1.051,4.783 L26.722,19.603 C27.177,19.867 27.544,19.658 27.544,19.135 L27.552,16.458 C27.554,15.934 27.19,15.305 26.734,15.041 L1.064,0.221 C0.614,-0.039 0.242,0.166 0.24,0.69 L0.232,3.366 C0.231,3.889 0.601,4.523 1.051,4.783" id="Fill-1" fill="#FFFFFF" mask="url(#mask-3)"></path>
                        </g>
                        <g id="Group-6" transform="translate(29.000000, 17.892000)">
                            <mask id="mask-5" fill="white">
                                <use xlink:href="#path-4"></use>
                            </mask>
                            <g id="Clip-5"></g>
                            <path d="M1.667,4.882 L27.338,19.702 C27.788,19.962 28.16,19.757 28.161,19.233 L28.168,16.557 C28.17,16.033 27.8,15.4 27.351,15.14 L1.681,0.32 C1.225,0.056 0.858,0.264 0.856,0.789 L0.849,3.465 C0.848,3.989 1.212,4.618 1.667,4.882" id="Fill-4" fill="url(#linearGradient-6)" mask="url(#mask-5)"></path>
                        </g>
                        <g id="Group-9" transform="translate(0.000000, 61.892000)">
                            <mask id="mask-8" fill="white">
                                <use xlink:href="#path-7"></use>
                            </mask>
                            <g id="Clip-8"></g>
                            <path d="M0.876,5.272 L42.915,29.54 C43.371,29.805 43.736,29.589 43.737,29.072 L43.746,26.396 C43.746,25.873 43.384,25.242 42.928,24.98 L0.89,0.709 C0.44,0.449 0.067,0.654 0.066,1.178 L0.059,3.855 C0.058,4.372 0.427,5.012 0.876,5.272" id="Fill-7" fill="url(#linearGradient-9)" mask="url(#mask-8)"></path>
                        </g>
                        <g id="Group-12" transform="translate(0.000000, 71.892000)">
                            <mask id="mask-11" fill="white">
                                <use xlink:href="#path-10"></use>
                            </mask>
                            <g id="Clip-11"></g>
                            <path d="M0.849,5.521 L59.594,39.437 C60.044,39.698 60.41,39.482 60.412,38.964 L60.419,36.283 C60.42,35.765 60.057,35.135 59.606,34.876 L0.86,0.958 C0.411,0.7 0.039,0.904 0.037,1.421 L0.03,4.103 C0.028,4.62 0.398,5.26 0.849,5.521" id="Fill-10" fill="url(#linearGradient-12)" mask="url(#mask-11)"></path>
                        </g>
                        <g id="Group-15" transform="translate(0.000000, 82.892000)">
                            <mask id="mask-14" fill="white">
                                <use xlink:href="#path-13"></use>
                            </mask>
                            <g id="Clip-14"></g>
                            <path d="M70.576,40.469 L0.832,0.201 C0.382,-0.059 0.01,0.153 0.008,0.669 L0,3.353 C-0.001,3.87 0.368,4.503 0.818,4.763 L70.563,45.03 C71.02,45.293 71.386,45.085 71.388,44.569 L71.395,41.884 C71.396,41.367 71.032,40.731 70.576,40.469" id="Fill-13" fill="url(#linearGradient-15)" mask="url(#mask-14)"></path>
                        </g>
                        <g id="Group-18" transform="translate(0.000000, 41.892000)">
                            <mask id="mask-17" fill="white">
                                <use xlink:href="#path-16"></use>
                            </mask>
                            <g id="Clip-17"></g>
                            <path d="M0.935,4.773 L39.525,27.054 C39.976,27.312 40.348,27.108 40.349,26.583 L40.355,23.909 C40.357,23.384 39.988,22.75 39.538,22.492 L0.948,0.21 C0.498,-0.049 0.126,0.156 0.125,0.68 L0.117,3.355 C0.115,3.88 0.485,4.513 0.935,4.773" id="Fill-16" fill="url(#linearGradient-18)" mask="url(#mask-17)"></path>
                        </g>
                        <g id="Group-21" transform="translate(73.000000, 124.892000)">
                            <mask id="mask-20" fill="white">
                                <use xlink:href="#path-19"></use>
                            </mask>
                            <g id="Clip-20"></g>
                            <path d="M16.412,9.344 L1.177,0.546 C0.72,0.283 0.354,0.498 0.353,1.015 L0.345,3.7 C0.344,4.216 0.707,4.845 1.163,5.109 L16.399,13.905 C16.856,14.169 17.222,13.96 17.224,13.444 L17.23,10.759 C17.232,10.242 16.869,9.607 16.412,9.344" id="Fill-19" fill="#FFFFFF" mask="url(#mask-20)"></path>
                        </g>
                        <g id="Group-24" transform="translate(0.000000, 51.892000)">
                            <mask id="mask-22" fill="white">
                                <use xlink:href="#path-21"></use>
                            </mask>
                            <g id="Clip-23"></g>
                            <path d="M0.906,5.022 L70.651,45.29 C71.106,45.552 71.473,45.344 71.475,44.82 L71.482,42.145 C71.483,41.62 71.12,40.99 70.664,40.728 L0.919,0.46 C0.469,0.2 0.097,0.405 0.095,0.929 L0.088,3.605 C0.086,4.128 0.456,4.762 0.906,5.022" id="Fill-22" fill="url(#linearGradient-23)" mask="url(#mask-22)"></path>
                        </g>
                        <g id="Group-27" transform="translate(0.000000, 30.892000)">
                            <mask id="mask-25" fill="white">
                                <use xlink:href="#path-24"></use>
                            </mask>
                            <g id="Clip-26"></g>
                            <path d="M0.964,5.523 L59.296,39.201 C59.753,39.466 60.119,39.257 60.12,38.74 L60.128,36.058 C60.129,35.541 59.766,34.903 59.309,34.641 L0.977,0.962 C0.526,0.701 0.154,0.913 0.153,1.43 L0.145,4.114 C0.145,4.631 0.514,5.264 0.964,5.523" id="Fill-25" fill="url(#linearGradient-26)" mask="url(#mask-25)"></path>
                        </g>
                        <g id="Group-30" transform="translate(43.000000, 65.892000)">
                            <mask id="mask-28" fill="white">
                                <use xlink:href="#path-27"></use>
                            </mask>
                            <g id="Clip-29"></g>
                            <path d="M0.142,1.515 L0.134,4.192 C0.133,4.717 0.495,5.345 0.945,5.606 L39.536,27.886 C39.986,28.145 40.358,27.94 40.36,27.415 L40.367,24.741 C40.368,24.216 39.999,23.582 39.549,23.324 L0.959,1.043 C0.509,0.783 0.143,0.991 0.142,1.515" id="Fill-28" fill="url(#linearGradient-29)" mask="url(#mask-28)"></path>
                        </g>
                        <g id="Group-33" transform="translate(0.000000, 10.892000)">
                            <mask id="mask-31" fill="white">
                                <use xlink:href="#path-30"></use>
                            </mask>
                            <g id="Clip-32"></g>
                            <path d="M0.818002028,4.6744531 L67.554002,43.2034531 C68.010002,43.4674531 68.375002,43.2524531 68.377002,42.7354531 L68.384002,40.0584531 C68.386002,39.5344531 68.023002,38.9054531 67.566002,38.6424531 L0.830002028,0.112453097 C0.381002028,-0.147546903 0.00900202774,0.057453097 0.00800202774,0.581453097 L2.02774078e-06,3.2574531 C-0.000997972259,3.7744531 0.368002028,4.4144531 0.818002028,4.6744531" id="Fill-31" fill="url(#linearGradient-32)" mask="url(#mask-31)"></path>
                        </g>
                        <g id="Group-36" transform="translate(62.000000, 97.892000)">
                            <mask id="mask-34" fill="white">
                                <use xlink:href="#path-33"></use>
                            </mask>
                            <g id="Clip-35"></g>
                            <path d="M60.347,34.832 L0.889,0.504 C0.438,0.244 0.073,0.452 0.071,0.977 L0.063,3.654 C0.062,4.17 0.426,4.807 0.875,5.065 L60.334,39.395 C60.789,39.657 61.156,39.441 61.157,38.924 L61.164,36.249 C61.165,35.725 60.803,35.094 60.347,34.832" id="Fill-34" fill="url(#linearGradient-35)" mask="url(#mask-34)"></path>
                        </g>
                        <g id="Group-39" transform="translate(74.000000, 94.892000)">
                            <mask id="mask-37" fill="white">
                                <use xlink:href="#path-36"></use>
                            </mask>
                            <g id="Clip-38"></g>
                            <path d="M48.376,27.581 L1.047,0.257 C0.598,-0.002 0.226,0.203 0.224,0.728 L0.217,3.402 C0.215,3.927 0.585,4.561 1.035,4.82 L48.362,32.144 C48.818,32.409 49.184,32.2 49.186,31.675 L49.193,29.001 C49.195,28.476 48.831,27.846 48.376,27.581" id="Fill-37" fill="url(#linearGradient-38)" mask="url(#mask-37)"></path>
                        </g>
                        <g id="Group-42" transform="translate(0.000000, 20.892000)">
                            <mask id="mask-40" fill="white">
                                <use xlink:href="#path-39"></use>
                            </mask>
                            <g id="Clip-41"></g>
                            <path d="M0.993,5.282 L105.34,65.527 C105.789,65.786 106.156,65.571 106.157,65.054 L106.165,62.37 C106.167,61.853 105.803,61.224 105.353,60.964 L1.007,0.719 C0.557,0.46 0.185,0.665 0.183,1.182 L0.175,3.864 C0.173,4.381 0.543,5.021 0.993,5.282" id="Fill-40" fill="url(#linearGradient-41)" mask="url(#mask-40)"></path>
                        </g>
                        <g id="Group-45" transform="translate(63.000000, 67.892000)">
                            <mask id="mask-43" fill="white">
                                <use xlink:href="#path-42"></use>
                            </mask>
                            <g id="Clip-44"></g>
                            <path d="M59.434,34.085 L1.102,0.407 C0.651,0.146 0.284,0.362 0.283,0.879 L0.275,3.561 C0.274,4.078 0.639,4.709 1.088,4.969 L59.421,38.648 C59.877,38.909 60.242,38.701 60.243,38.184 L60.252,35.502 C60.253,34.985 59.89,34.347 59.434,34.085" id="Fill-43" fill="#FFFFFF" mask="url(#mask-43)"></path>
                        </g>
                        <g id="Group-48" transform="translate(109.000000, 83.892000)">
                            <mask id="mask-45" fill="white">
                                <use xlink:href="#path-44"></use>
                            </mask>
                            <g id="Clip-47"></g>
                            <path d="M13.462,7.842 L1.041,0.67 C0.585,0.408 0.219,0.617 0.218,1.133 L0.21,3.816 C0.208,4.332 0.571,4.968 1.028,5.233 L13.449,12.405 C13.905,12.667 14.271,12.452 14.273,11.936 L14.28,9.252 C14.282,8.735 13.918,8.106 13.462,7.842" id="Fill-46" fill="url(#linearGradient-46)" mask="url(#mask-45)"></path>
                        </g>
                        <g id="Group-51" transform="translate(71.000000, 51.892000)">
                            <mask id="mask-48" fill="white">
                                <use xlink:href="#path-47"></use>
                            </mask>
                            <g id="Clip-50"></g>
                            <path d="M51.3090082,29.257954 L0.83200818,0.113953979 C0.37600818,-0.149046021 0.00900818,0.0579539787 0.00700818,0.582953979 L8.17999937e-06,3.25895398 C-0.00199182,3.77595398 0.36300818,4.41295398 0.81800818,4.67595398 L51.2950082,33.818954 C51.7520082,34.081954 52.1180082,33.865954 52.1190082,33.349954 L52.1280082,30.672954 C52.1280082,30.150954 51.7640082,29.519954 51.3090082,29.257954" id="Fill-49" fill="url(#linearGradient-49)" mask="url(#mask-48)"></path>
                        </g>
                        <g id="Group-54" transform="translate(59.000000, 34.892000)">
                            <mask id="mask-51" fill="white">
                                <use xlink:href="#path-50"></use>
                            </mask>
                            <g id="Clip-53"></g>
                            <path d="M63.52,36.344 L1.625,0.608 C1.176,0.348 0.81,0.557 0.808,1.081 L0.8,3.756 C0.798,4.281 1.163,4.91 1.611,5.17 L63.508,40.906 C63.964,41.168 64.33,40.96 64.331,40.437 L64.338,37.761 C64.34,37.236 63.977,36.608 63.52,36.344" id="Fill-52" fill="url(#linearGradient-52)" mask="url(#mask-51)"></path>
                        </g>
                        <g id="Group-57" transform="translate(92.000000, 135.892000)">
                            <mask id="mask-54" fill="white">
                                <use xlink:href="#path-53"></use>
                            </mask>
                            <g id="Clip-56"></g>
                            <path d="M30.288,17.324 L1.536,0.723 C1.079,0.46 0.713,0.675 0.712,1.192 L0.704,3.875 C0.703,4.393 1.066,5.022 1.523,5.285 L30.275,21.886 C30.731,22.15 31.098,21.94 31.099,21.422 L31.105,18.741 C31.107,18.223 30.744,17.587 30.288,17.324" id="Fill-55" fill="url(#linearGradient-55)" mask="url(#mask-54)"></path>
                        </g>
                        <g id="Group-60" transform="translate(62.000000, 108.892000)">
                            <mask id="mask-57" fill="white">
                                <use xlink:href="#path-56"></use>
                            </mask>
                            <g id="Clip-59"></g>
                            <path d="M60.317,34.08 L1.577,0.167 C1.127,-0.092 0.756,0.114 0.754,0.631 L0.746,3.313 C0.744,3.829 1.114,4.47 1.564,4.73 L60.304,38.643 C60.76,38.907 61.126,38.691 61.128,38.174 L61.136,35.492 C61.138,34.975 60.772,34.344 60.317,34.08" id="Fill-58" fill="url(#linearGradient-58)" mask="url(#mask-57)"></path>
                        </g>
                        <g id="Group-63" transform="translate(86.000000, 91.892000)">
                            <mask id="mask-60" fill="white">
                                <use xlink:href="#path-59"></use>
                            </mask>
                            <g id="Clip-62"></g>
                            <path d="M36.404,20.333 L1.76,0.331 C1.31,0.071 0.937,0.278 0.936,0.802 L0.93,3.477 C0.928,4.001 1.298,4.633 1.747,4.894 L36.392,24.896 C36.848,25.159 37.214,24.951 37.216,24.425 L37.223,21.75 C37.224,21.226 36.86,20.596 36.404,20.333" id="Fill-61" fill="url(#linearGradient-61)" mask="url(#mask-60)"></path>
                        </g>
                        <g id="Group-66" transform="translate(45.000000, 87.892000)">
                            <mask id="mask-63" fill="white">
                                <use xlink:href="#path-62"></use>
                            </mask>
                            <g id="Clip-65"></g>
                            <path d="M1.32,0.939 C0.871,0.678 0.504,0.887 0.502,1.411 L0.495,4.087 C0.494,4.605 0.857,5.241 1.308,5.501 L14.209,12.949 C14.665,13.212 15.032,12.996 15.033,12.48 L15.041,9.805 C15.042,9.281 14.678,8.65 14.223,8.388 L1.32,0.939 Z" id="Fill-64" fill="#FFFFFF" mask="url(#mask-63)"></path>
                        </g>
                        <path d="M0.818002028,98.5664531 L67.554002,137.095453 C68.010002,137.359453 68.375002,137.144453 68.377002,136.627453 L68.384002,133.950453 C68.386002,133.426453 68.023002,132.797453 67.566002,132.534453 L0.830002028,94.0044531 C0.381002028,93.7444531 0.00900202774,93.9494531 0.00800202774,94.4734531 L2.02774078e-06,97.1494531 C-0.000997972259,97.6664531 0.368002028,98.3064531 0.818002028,98.5664531" id="Fill-31-Copy" fill="url(#linearGradient-32)"></path>
                        <path d="M122.309008,164.149954 L71.8320082,135.005954 C71.3760082,134.742954 71.0090082,134.949954 71.0070082,135.474954 L71.0000082,138.150954 C70.9980082,138.667954 71.3630082,139.304954 71.8180082,139.567954 L122.295008,168.710954 C122.752008,168.973954 123.118008,168.757954 123.119008,168.241954 L123.128008,165.564954 C123.128008,165.042954 122.764008,164.411954 122.309008,164.149954" id="Fill-49-Copy" fill="url(#linearGradient-49)"></path>
                    </g>
                </g>
                <g id="Group-6" transform="translate(0.000000, 0.676000)">
                    <mask id="mask-65" fill="white">
                        <use xlink:href="#path-64"></use>
                    </mask>
                    <g id="Clip-5"></g>
                    <path d="M0.033,4.719 C0.041,0.788 2.832,-0.802 6.253,1.173 L146.346,82.055 C149.775,84.036 152.539,88.833 152.527,92.763 L152.497,103.904 L0,15.861 L0.033,4.719 Z" id="Fill-4" fill="url(#linearGradient-66)" fill-rule="nonzero" mask="url(#mask-65)"></path>
                </g>
                <path d="M143.8585,88.8996 C144.6715,89.3696 145.3335,90.5146 145.3315,91.4506 C145.3285,92.3936 144.6635,92.7656 143.8485,92.2956 C143.0335,91.8246 142.3735,90.6886 142.3755,89.7456 C142.3795,88.8076 143.0445,88.4306 143.8585,88.8996" id="Fill-7" fill="#FFFFFF" opacity="0.5"></path>
                <path d="M138.3682,85.7301 C139.1812,86.2001 139.8432,87.3441 139.8402,88.2811 C139.8382,89.2241 139.1722,89.5951 138.3582,89.1261 C137.5432,88.6551 136.8832,87.5181 136.8862,86.5741 C136.8892,85.6381 137.5532,85.2601 138.3682,85.7301" id="Fill-9" fill="#000000" opacity="0.300000012"></path>
                <path d="M132.878,82.5602 C133.692,83.0302 134.354,84.1742 134.35,85.1102 C134.348,86.0542 133.682,86.4252 132.868,85.9562 C132.053,85.4852 131.392,84.3482 131.395,83.4052 C131.398,82.4682 132.063,82.0892 132.878,82.5602" id="Fill-11" fill="#000000" opacity="0.300000012"></path>
            </g>
        </g>
    </g>
</svg>