<svg fill="none" height="26" viewBox="0 0 114 26" width="114" xmlns="http://www.w3.org/2000/svg" xmlns:xlink="http://www.w3.org/1999/xlink"><clipPath id="a"><path d="m0 0h113.63v26h-113.63z"/></clipPath><g clip-path="url(#a)" fill="#000d1d"><path d="m89.5556 12.5251c0-.6529 0-1.2669-.02-1.8341-.0136-.535-.0638-1.06826-.15-1.59565-.0807-.48157-.2231-.94928-.4234-1.3902-.2114-.45461-.4939-.86825-.8356-1.22348-.4846-.5247-1.0613-.94465-1.6978-1.23639-.6887-.29476-1.4262-.44088-2.1691-.42975-.7457-.01018-1.4859.13588-2.1779.42975-.6402.28775-1.2205.70588-1.7079 1.23052-.341.35502-.6224.76874-.8322 1.22348-.1986.44101-.3388.9088-.4167 1.3902-.0843.52755-.1326 1.06082-.1445 1.59572-.0133.5671-.02 1.1812-.0166 1.834.0033.6528 0 1.2622.0166 1.8329.0119.5348.0602 1.0681.1445 1.5957.0779.4814.2181.9492.4167 1.3902.2106.4542.4919.8678.8322 1.2234.4866.5251 1.0672.9426 1.7079 1.2282.6915.2958 1.432.4427 2.1779.4321.7432.0116 1.4809-.1354 2.1691-.4321.6366-.2878 1.2135-.7051 1.6978-1.2282.341-.3559.6234-.7694.8356-1.2234.2003-.4409.3427-.9087.4234-1.3902.0853-.5259.1347-1.0576.1478-1.591.0166-.5707.0244-1.1812.02-1.8329zm-2.8002 0c0 .7233-.01 1.3256-.0333 1.8047-.0131.3935-.0502.7857-.1111 1.1741-.0417.2588-.1164.5105-.2223.748-.0858.1914-.1982.3683-.3333.5248-.2086.2523-.4674.4528-.7578.5871-.3269.1478-.679.2229-1.0345.2208-.3573.0016-.7112-.0735-1.0401-.2208-.2975-.1318-.5633-.3324-.7778-.5871-.136-.1558-.2484-.3328-.3334-.5248-.1028-.2378-.1739-.4895-.2111-.748-.0593-.3886-.0964-.7807-.1111-1.1741-.02-.4791-.03-1.0807-.03-1.8047 0-.7233.01-1.3268.03-1.8059.0147-.3934.0518-.78546.1111-1.17414.0372-.25846.1083-.51019.2111-.74794.0852-.19185.1977-.36883.3334-.52485.2148-.25432.4805-.45488.7778-.58709.3285-.14897.6826-.22414 1.0401-.22074.3556-.0039.7081.07131 1.0345.22074.2902.1347.5489.33512.7578.58709.1349.15673.2472.33357.3333.52485.1059.23751.1806.48913.2223.74794.0608.38846.0979.78064.1111 1.17414.0244.4779.0333 1.0814.0333 1.8059z"/><g clip-rule="evenodd" fill-rule="evenodd"><path d="m113.63 5.07884c-.002-.14521-.126-.2626-.28-.2639h-2.635c-.154.00066-.279.11842-.28.2639v9.17066l-6.425-9.36052c-.043-.06329-.081-.07404-.176-.07404h-2.443c-.154.00193-.278.11896-.28.2639v14.88076c.002.1448.127.2615.28.2627h2.633c.154-.0006.278-.1178.279-.2627v-9.1945l6.426 9.382c.044.0633.08.0741.176.0741h2.442c.154-.0007.279-.1177.28-.2627z"/><path d="m97.2593 5.07884c-.0007-.14548-.1138-.26324-.2535-.2639h-2.382c-.1397.00066-.2528.11842-.2534.2639v14.87966c.0006.1454.1137.2632.2534.2638h2.382c.1397-.0006.2528-.1184.2535-.2638z"/><path d="m67.329 12.5186c0-.7281.0078-1.3341.0279-1.8168.0137-.3935.051-.78578.1116-1.17439.2143-1.3036 1.163-2.07284 2.3741-2.07284.7902.00704 1.5067.31474 1.9644 1.01469.2072.32678.3583.68931.4464 1.07107.0068.04021.0417.06827.0804.06459h2.7289c.0391 0 .0536-.02818.0469-.06811-.298-1.77689-1.1987-3.37293-2.7903-4.16331-.7823-.38109-1.6361-.57176-2.4979-.55785-1.5366 0-2.8309.55354-3.8831 1.66063-.6007.61601-1.0107 1.40846-1.1764 2.27367-.1607.85184-.2418 2.10765-.2433 3.76755-.0015 1.6598.0796 2.9153.2433 3.7663.1643.8664.5731 1.6604 1.1731 2.2784 1.0514 1.1063 2.3457 1.6595 3.883 1.6595.8618.0137 1.7154-.1766 2.4979-.5567 1.5916-.7904 2.4923-2.3864 2.7903-4.1633.0067-.0411-.0078-.0681-.0468-.0681h-2.7301c-.0388-.0043-.0741.024-.0804.0645-.0883.3814-.2394.7435-.4464 1.0699-.4576.7047-1.1742 1.0089-1.9644 1.0147-1.211 0-2.1597-.768-2.374-2.0716-.0607-.3886-.0979-.7809-.1116-1.1744-.0157-.4851-.0235-1.0923-.0235-1.8181z"/><path d="m35.7822 5.07883c-.0007-.14547-.1198-.26323-.2669-.26389h-2.5077c-.1471.00066-.2662.11842-.2669.26389v14.88067c.0013.145.1202.2621.2669.2628h2.5077c.1466-.0007.2655-.1178.2669-.2628v-4.3679l2.0127-2.3799 4.1341 6.9317c.0318.0511.0891.0812.1497.0789h3.0475c.1401 0 .1654-.0861.0954-.2043l-5.4128-9.075 4.966-5.89163c.1003-.11941.058-.23285-.099-.23285h-3.3312c-.0405-.00235-.0795.01559-.1038.04777l-5.4586 6.47431z"/><path d="m54.4074 17.5617c-1.304 0-2.4864-1.2812-2.4864-2.811v-9.67407c-.0006-.14426-.1106-.26104-.2465-.26169h-2.3169c-.1359.00065-.2459.11743-.2465.26169v9.63617c0 3.3687 2.3737 5.5095 5.2963 5.5095 2.9225 0 5.2963-2.1408 5.2963-5.5095v-9.63617c-.0012-.14399-.1109-.2604-.2465-.26169h-2.318c-.1355.0013-.2448.11789-.2454.26169v9.67407c0 1.5286-1.1835 2.811-2.4864 2.811z"/><path d="m7.61054 13.0026 7.80916 7.7019 4.9292-4.8607c.8814-.7826 2.2298-.7478 3.0685.0792s.874 2.1567.0803 3.0259l-6.5048 6.4156c-.8737.8473-2.2751.8473-3.1488 0l-9.38484-9.2568v5.502c0 1.2143-.99824 2.1987-2.22963 2.1987s-2.22963-.9844-2.22963-2.1987v-17.22132c0-1.21427.99824-2.19864 2.22963-2.19864s2.22963.98437 2.22963 2.19864v5.50199l9.38364-9.254373c.8734-.847996 2.2753-.847996 3.1488 0l6.5097 6.414403c.7936.86916.7583 2.19886-.0804 3.0259-.8386.827-2.1871.8618-3.0685.0792l-4.9292-4.86067zm7.81276-2.201c-.9029-.0005-1.7171.5355-2.063 1.3579-.3458.8224-.1552 1.7693.4831 2.3991.6383.6297 1.5984.8182 2.4326.4776s1.3782-1.1432 1.3782-2.0336c.0003-.5837-.2346-1.1437-.6529-1.5567-.4184-.413-.986-.6452-1.578-.6455z"/></g></g></svg>