<svg width="24" height="24" viewBox="0 0 24 24" fill="none" xmlns="http://www.w3.org/2000/svg">
<rect x="0.999939" y="10" width="2" height="4" fill="#737E8D"/>
<rect x="21" y="10" width="2" height="4" fill="#737E8D"/>
<path fill-rule="evenodd" clip-rule="evenodd" d="M6.00003 5C4.89546 5 4.00003 5.89543 4.00003 7V17C4.00003 18.1046 4.89546 19 6.00003 19H18C19.1046 19 20 18.1046 20 17V7C20 5.89543 19.1046 5 18 5H6.00003ZM9.99994 8H7.99994V11H9.99994V8ZM14.3997 13.2004C13.7311 13.7027 12.9019 14 12.0003 14C11.0985 14 10.269 13.7027 9.60053 13.2005L8.39918 14.7995C9.40217 15.553 10.6505 16 12.0003 16C13.3502 16 14.5982 15.5528 15.601 14.7995L14.3997 13.2004ZM13.9998 8H15.9998V11H13.9998V8Z" fill="#21C397"/>
</svg>
