<svg width="24" height="24" viewBox="0 0 24 24" fill="none" xmlns="http://www.w3.org/2000/svg">
<path fill-rule="evenodd" clip-rule="evenodd" d="M12 17.6363C15.0125 17.6363 17.4546 15.1943 17.4546 12.1818C17.4546 9.16935 15.0125 6.72726 12 6.72726C8.98758 6.72726 6.5455 9.16935 6.5455 12.1818C6.5455 15.1943 8.98758 17.6363 12 17.6363ZM12.0002 10.3636L10.182 12.1818L12.0002 14L13.8184 12.1818L12.0002 10.3636Z" fill="#01BC8D"/>
<path d="M4.1698 9.80079C5.18942 6.44343 8.30924 4 11.9998 4C16.5184 4 20.1816 7.66312 20.1816 12.1818L22 9.45454" stroke="#737E8D" stroke-width="1.36364" stroke-linejoin="round"/>
<path d="M19.8304 14.5628C18.8108 17.9202 15.691 20.3636 12.0005 20.3636C7.48177 20.3636 3.81865 16.7005 3.81865 12.1818L2.00018 14.9091" stroke="#737E8D" stroke-width="1.36364" stroke-linejoin="round"/>
</svg>
