<svg width="24" height="24" viewBox="0 0 24 24" fill="none" xmlns="http://www.w3.org/2000/svg">
<path fill-rule="evenodd" clip-rule="evenodd" d="M8.86076 5.1084L3.39464 6.573C2.39118 6.84187 1.79568 7.8733 2.06456 8.87677L5.04486 19.9991C5.31374 21.0025 6.34519 21.598 7.34865 21.3292L12.0958 20.0572L7.8178 18.911C6.44944 18.5443 5.6374 17.1378 6.00406 15.7695L8.86076 5.1084Z" fill="#8C8C8C"/>
<path fill-rule="evenodd" clip-rule="evenodd" d="M12.6455 3.06456C11.6421 2.79569 10.6106 3.39119 10.3417 4.39466L7.36144 15.517C7.09256 16.5204 7.68805 17.5519 8.69152 17.8207L16.3577 19.8748C17.3612 20.1437 18.3926 19.5482 18.6615 18.5447L21.6418 7.42242C21.9107 6.41896 21.3152 5.38753 20.3118 5.11866L12.6455 3.06456ZM12.4927 7.14492C12.1164 7.04409 11.7296 7.2674 11.6287 7.6437C11.5279 8.01999 11.7512 8.40678 12.1275 8.5076L18.2154 10.1388C18.5917 10.2396 18.9785 10.0163 19.0793 9.64002C19.1802 9.26373 18.9568 8.87695 18.5805 8.77612L12.4927 7.14492ZM11.641 10.3243C11.2647 10.2234 10.8779 10.4468 10.7771 10.8231C10.6762 11.1993 10.8996 11.5861 11.2759 11.687L17.3637 13.3182C17.74 13.419 18.1268 13.1957 18.2277 12.8194C18.3285 12.4431 18.1052 12.0563 17.7289 11.9555L11.641 10.3243ZM9.92493 14.0024C10.0258 13.6261 10.4126 13.4028 10.7889 13.5036L14.2555 14.4325C14.6318 14.5333 14.8552 14.9201 14.7543 15.2964C14.6535 15.6727 14.2667 15.896 13.8904 15.7952L10.4237 14.8663C10.0474 14.7655 9.8241 14.3787 9.92493 14.0024Z" fill="#01BC8D"/>
</svg>
