<svg width="16" height="16" viewBox="0 0 16 16" fill="none" xmlns="http://www.w3.org/2000/svg">
<circle cx="8" cy="8" r="5.34667" stroke="#737E8D" stroke-width="1.30667"/>
<path d="M8.66667 9.33317C8.66667 9.26543 8.66428 9.20025 8.66197 9.13726C8.65056 8.826 8.64111 8.56833 8.93162 8.32123C9.34188 7.96311 9.4359 7.8621 9.58974 7.67844C9.88034 7.32031 10 6.97137 10 6.50305C10 5.32766 9.22222 4.6665 8 4.6665C6.82051 4.6665 6.23932 5.29093 6 6.61324L7.18271 6.83341C7.37075 6.07124 7.55555 5.80516 8 5.80516C8.38461 5.80516 8.69231 6.04391 8.69231 6.42041C8.69231 6.77853 8.47008 6.99892 8.03419 7.41214C7.39316 7.99065 7.32479 8.21012 7.33333 8.99984V9.33317H8.66667Z" fill="#737E8D"/>
<path d="M8.66667 11.3332V9.99984H7.33333V11.3332H8.66667Z" fill="#737E8D"/>
</svg>
