<?xml version="1.0" encoding="UTF-8"?>
<svg width="48px" height="48px" viewBox="0 0 48 48" version="1.1" xmlns="http://www.w3.org/2000/svg" xmlns:xlink="http://www.w3.org/1999/xlink">
    <title>乱斗icon 2</title>
    <g id="页面-1" stroke="none" stroke-width="1" fill="none" fill-rule="evenodd">
        <g id="导航栏下拉最小宽度备份-4" transform="translate(-720.000000, -444.000000)">
            <g id="乱斗icon-2" transform="translate(720.000000, 444.000000)">
                <g id="乱斗icon">
                    <rect id="矩形" opacity="0.100000001" x="0" y="0" width="48" height="48"></rect>
                    <path d="M32,41 L32,43 L16,43 L16,41 L32,41 Z M37,7 L37,11 L42,11 L42,16 C42,19.0905 39.6634125,21.6352608 36.6604559,21.9640641 C35.3921834,27.4016075 30.7122784,31.527319 25.0005699,31.962067 L25,37 L28,37 L28,39 L20,39 L20,37 L23,37 L23.0004329,31.9621433 C17.2882694,31.5278018 12.6078908,27.4019256 11.3396064,21.9648239 C8.33658746,21.6352608 6,19.0905 6,16 L6,16 L6,11 L11,11 L11,7 L37,7 Z M35,9 L13,9 L13,19 C13,24.9787016 17.7697636,29.8433652 23.7115925,29.9962926 L23.7115925,29.9962926 L24,30 C30.0751322,30 35,25.0751322 35,19 L35,19 L35,9 Z M11,13 L8,13 L8,16 L8.00489531,16.1996403 C8.09266709,17.9853454 9.35143618,19.4632027 11.0294272,19.8814367 L11.0141497,19.6119698 C11.0047513,19.409159 11,19.2051343 11,19 L11,19 L11,13 Z M37,19 C37,19.2051343 36.9952487,19.409159 36.9858503,19.6119698 L36.9705728,19.8814367 C38.6485638,19.4632027 39.9073329,17.9853454 39.9951047,16.1996403 L40,16 L40,13 L37,13 Z" id="形状结合" fill="#0AC7A9" fill-rule="nonzero"></path>
                    <path d="M15,11 L33,11 L33,19 C33,23.9705627 28.9705627,28 24,28 C19.0294373,28 15,23.9705627 15,19 L15,11 L15,11 Z" id="矩形" fill="#0AC7A9" fill-rule="evenodd" opacity="0.315894717"></path>
                    <polygon id="星形" fill="#FFFFFF" fill-rule="evenodd" points="24 22 20.4732885 23.854102 21.1468305 19.927051 18.2936609 17.145898 22.2366442 16.572949 24 13 25.7633558 16.572949 29.7063391 17.145898 26.8531695 19.927051 27.5267115 23.854102"></polygon>
                </g>
            </g>
        </g>
    </g>
</svg>