<?xml version="1.0" encoding="UTF-8"?>
<svg width="39px" height="37px" viewBox="0 0 39 37" version="1.1" xmlns="http://www.w3.org/2000/svg" xmlns:xlink="http://www.w3.org/1999/xlink">
    <!-- Generator: Sketch 56.3 (81716) - https://sketch.com -->
    <title>币币交易</title>
    <desc>Created with Sketch.</desc>
    <g id="页面-1" stroke="none" stroke-width="1" fill="none" fill-rule="evenodd">
        <g id="导航栏下拉最小宽度备份-4" transform="translate(-811.000000, -450.000000)">
            <g id="Icon/spot" transform="translate(807.000000, 444.000000)">
                <rect id="矩形备份-3" x="0" y="0" width="32" height="32"></rect>
                <rect id="矩形" x="4" y="4" width="40" height="40"></rect>
                <g id="编组-3" stroke-width="1" fill-rule="evenodd" transform="translate(3.000000, 4.000000)">
                    <g id="编组-2" transform="translate(3.000000, 2.000000)">
                        <path d="M14,36 C6.2680135,36 0,29.7319865 0,22 C0,14.2680135 6.2680135,8 14,8 C21.7319865,8 28,14.2680135 28,22 C28,29.7319865 21.7319865,36 14,36 Z M14,34 C20.627417,34 26,28.627417 26,22 C26,15.372583 20.627417,10 14,10 C7.372583,10 2,15.372583 2,22 C2,28.627417 7.372583,34 14,34 Z" id="形状结合" fill="#0AC7A9"></path>
                        <circle id="椭圆形" fill="#0AC7A9" opacity="0.315894717" cx="14" cy="22" r="10"></circle>
                        <g id="ic-attach-money-48-px" transform="translate(10.000000, 15.000000)" fill="#FFFFFF" fill-rule="nonzero">
                            <path d="M4.388,6.32 C2.572,5.848 1.988,5.364 1.988,4.604 C1.988,3.732 2.792,3.12 4.148,3.12 C5.572,3.12 6.1,3.8 6.148,4.8 L7.916,4.8 C7.864,3.42 7.02,2.164 5.348,1.752 L5.348,0 L2.948,0 L2.948,1.728 C1.396,2.068 0.148,3.068 0.148,4.616 C0.148,6.464 1.68,7.384 3.908,7.92 C5.912,8.4 6.308,9.1 6.308,9.852 C6.308,10.4 5.92,11.28 4.148,11.28 C2.5,11.28 1.848,10.54 1.764,9.6 L4.69069228e-14,9.6 C0.1,11.352 1.408,12.332 2.948,12.664 L2.948,14.4 L5.348,14.4 L5.348,12.68 C6.904,12.38 8.148,11.48 8.148,9.836 C8.148,7.572 6.204,6.796 4.388,6.32 Z" id="路径"></path>
                        </g>
                        <path d="M13.6025886,6.00483906 C15.6767555,2.41536241 19.5563087,7.10542736e-15 24,7.10542736e-15 C30.627417,7.10542736e-15 36,5.372583 36,12 C36,16.4436913 33.5846376,20.3232445 29.9951609,22.3974114 C29.9983808,22.2653316 30,22.1328549 30,22 C30,21.351846 29.96146,20.7126936 29.8865465,20.0847093 C32.3798574,18.2661936 34,15.3222991 34,12 C34,6.4771525 29.5228475,2 24,2 C20.6777009,2 17.7338064,3.6201426 15.9152907,6.1134535 C15.2873064,6.03854004 14.648154,6 14,6 C13.8671451,6 13.7346684,6.00161924 13.6025886,6.00483906 Z" id="形状结合" fill="#0AC7A9"></path>
                    </g>
                    <g id="编组" transform="translate(8.465101, 8.499391) rotate(2.000000) translate(-8.465101, -8.499391) translate(0.965101, 0.999391)" fill="#0AC7A9">
                        <path d="M5.79927887,0.996155018 L8.62227887,2.35315502 C8.62227887,2.35315502 7.40527887,3.04115502 6.20227887,3.97915502 C4.99327887,4.92215502 3.71727887,6.13815502 2.95727887,7.38215502 C1.44427887,9.86515502 1.14327887,12.171155 1.04227887,14.422155 C1.04227887,14.422155 1.98827887,12.239155 2.68027887,11.256155 C3.81727887,9.63915502 3.88427887,9.45315502 5.32927887,7.89915502 C6.71527887,6.40915502 7.72927887,5.53115502 9.47427887,4.31215502 C11.4072789,2.96115502 14.2202789,1.69015502 14.2202789,1.69015502" id="Fill-1" transform="translate(7.631279, 7.709155) rotate(-1.000000) translate(-7.631279, -7.709155) "></path>
                    </g>
                    <g id="编组备份" transform="translate(34.121869, 30.992546) rotate(-187.000000) translate(-34.121869, -30.992546) translate(27.121869, 23.992546)" fill="#0AC7A9">
                        <path d="M5.372348,0.0333159688 L8.195348,1.39031597 C8.195348,1.39031597 6.978348,2.07831597 5.775348,3.01631597 C4.566348,3.95931597 3.290348,5.17531597 2.530348,6.41931597 C1.017348,8.90231597 0.716347999,11.208316 0.615347999,13.459316 C0.615347999,13.459316 1.561348,11.276316 2.253348,10.293316 C3.390348,8.67631597 3.457348,8.49031597 4.902348,6.93631597 C6.288348,5.44631597 7.302348,4.56831597 9.047348,3.34931597 C10.980348,1.99831597 13.793348,0.727315969 13.793348,0.727315969" id="Fill-1"></path>
                    </g>
                </g>
            </g>
        </g>
    </g>
</svg>