<svg width="24" height="24" viewBox="0 0 24 24" fill="none" xmlns="http://www.w3.org/2000/svg">
<path fill-rule="evenodd" clip-rule="evenodd" d="M9.99993 20.0302C13.3136 20.0302 15.9999 17.3439 15.9999 14.0302C15.9999 10.7166 13.3136 8.03029 9.99993 8.03029C6.68624 8.03029 3.99997 10.7166 3.99997 14.0302C3.99997 17.3439 6.68624 20.0302 9.99993 20.0302ZM10.0001 12.0303L8.00007 14.0302L10.0001 16.0302L12 14.0302L10.0001 12.0303Z" fill="#01BC8D"/>
<path fill-rule="evenodd" clip-rule="evenodd" d="M17.9432 13.0726C19.1898 12.1633 19.9998 10.6914 19.9998 9.03028C19.9998 6.26887 17.7613 4.03031 14.9999 4.03031C13.3387 4.03031 11.8668 4.84038 10.9576 6.08702C14.6103 6.52275 17.5074 9.4198 17.9432 13.0726Z" fill="#737E8D"/>
<path fill-rule="evenodd" clip-rule="evenodd" d="M18.8108 19.7802L20.5304 21.4999L19.4698 22.5605L16.5052 19.5959C16.1927 19.2835 16.1927 18.7769 16.5052 18.4645L19.4698 15.4999L20.5304 16.5606L18.8108 18.2802H23.0001V19.7802H18.8108Z" fill="#737E8D"/>
<path fill-rule="evenodd" clip-rule="evenodd" d="M5.18921 5.7803L3.46956 7.49996L4.53021 8.56061L7.49483 5.59599C7.80725 5.28357 7.80725 4.77704 7.49484 4.46463L4.53021 1.5L3.46956 2.56065L5.18921 4.28031H0.999902V5.7803H5.18921Z" fill="#737E8D"/>
</svg>
