<svg width="148" height="148" viewBox="0 0 148 148" fill="none" xmlns="http://www.w3.org/2000/svg">
<path d="M25.1539 111.838V106.691C25.1539 108.66 26.7318 110.663 30.0618 112.545C41.695 119.162 70.37 121.926 94.1045 118.737C111.048 116.463 120.897 111.751 120.908 106.843V111.99C120.886 116.898 111.048 121.599 94.0936 123.885C70.3592 127.073 41.6842 124.298 30.0509 117.693C26.7209 115.799 25.143 113.797 25.1539 111.838Z" fill="#D5DFE2" stroke="black" stroke-width="0.35" stroke-linecap="round" stroke-linejoin="round"/>
<path d="M112.342 98.7901C101.699 92.7395 75.4838 90.2039 53.7735 93.1312C32.0741 96.0477 23.1071 103.317 33.75 109.368C44.393 115.418 70.6085 117.954 92.3188 115.027C114.018 112.11 122.985 104.841 112.342 98.7901Z" fill="white"/>
<path d="M59.8357 115.647L61.2722 114.134C61.4789 113.917 61.3375 113.558 61.0436 113.525C52.4248 112.665 44.9377 110.913 40.5957 108.443C40.4433 108.356 40.3019 108.269 40.1604 108.182C39.6054 107.844 38.9524 107.736 38.3104 107.844L32.8257 108.813" stroke="#D5DFE2" stroke-width="0.35" stroke-linecap="round" stroke-linejoin="round"/>
<path d="M29.7127 101.032L33.4236 98.8445C27.9824 102.055 27.6559 105.907 33.7391 109.368C44.3821 115.418 70.5977 117.954 92.308 115.027C113.768 112.143 122.768 105.004 112.691 98.9968C113.92 99.7368 115.161 100.466 116.391 101.206C127.414 107.768 117.566 115.571 94.1036 118.727C70.3691 121.915 41.6941 119.14 30.0609 112.534C23.4118 108.758 23.76 104.547 29.7127 101.032Z" fill="white" stroke="#91A5AA" stroke-width="0.35" stroke-linecap="round" stroke-linejoin="round"/>
<path d="M120.907 110.01V109.444C120.886 111.37 119.351 113.253 116.478 114.972C116.239 115.113 116.032 115.32 115.891 115.56C115.597 116.071 115.325 116.528 115.031 117.029C114.868 117.312 114.617 117.54 114.324 117.682C109.601 119.913 102.462 121.784 93.3207 122.96C93.0704 122.992 92.8201 122.916 92.6351 122.753L91.7972 122.013C91.5143 121.763 91.1443 121.643 90.7743 121.686C78.9995 122.97 66.2998 122.873 55.2107 121.621C54.906 121.588 54.6013 121.686 54.3619 121.893L53.5457 122.622C53.3063 122.84 52.9798 122.938 52.6643 122.894C44.1216 121.763 36.7107 119.934 31.6831 117.518C31.4328 117.399 31.2369 117.214 31.1063 116.974C30.8125 116.474 30.4751 115.875 30.2357 115.483C30.1704 115.364 30.0616 115.19 29.9093 115.048C29.7134 114.874 29.474 114.743 29.4196 114.711C27.7219 113.666 26.5575 112.589 25.8719 111.511C25.5781 111.033 25.3713 110.565 25.2625 110.086C25.1972 109.803 25.1646 109.52 25.1646 109.248V112.513C25.1646 112.73 25.1972 112.991 25.2516 113.209C25.2516 113.22 25.2516 113.242 25.2625 113.253C25.3169 113.481 25.3822 113.71 25.4801 113.938C25.4801 113.938 25.491 113.96 25.491 113.971C25.589 114.199 25.7087 114.439 25.8501 114.667C25.8501 114.678 25.8719 114.7 25.8828 114.711C26.0243 114.939 26.1875 115.168 26.3834 115.396C26.416 115.429 26.4487 115.462 26.4813 115.494C26.6663 115.701 26.8513 115.908 27.069 116.115C27.1343 116.18 27.2104 116.234 27.2866 116.3C27.4825 116.474 27.6784 116.659 27.9069 116.833C28.0484 116.942 28.2116 117.05 28.364 117.159C28.5381 117.29 28.7013 117.42 28.8972 117.54C29.2563 117.78 29.6372 118.008 30.0507 118.248C35.1219 121.131 43.436 123.275 53.154 124.527C54.6666 124.723 56.2119 124.897 57.7898 125.038C57.8334 125.038 57.8769 125.038 57.9204 125.049C59.444 125.19 60.9893 125.31 62.5563 125.419C62.6543 125.419 62.7522 125.43 62.8393 125.441C64.3737 125.539 65.9298 125.615 67.4969 125.669C67.5948 125.669 67.6819 125.669 67.7798 125.669C69.3904 125.724 71.0119 125.756 72.6334 125.756C72.666 125.756 72.6987 125.756 72.7313 125.756C79.9028 125.778 87.2048 125.365 94.0825 124.44C103.137 123.221 110.167 121.316 114.748 119.053C115.727 118.563 116.598 118.063 117.349 117.551C117.371 117.54 117.382 117.529 117.403 117.518C117.752 117.279 118.078 117.029 118.383 116.778C118.415 116.757 118.448 116.724 118.47 116.702C118.753 116.463 119.014 116.213 119.253 115.973C119.286 115.94 119.319 115.908 119.34 115.875C119.569 115.636 119.765 115.385 119.95 115.146C119.972 115.113 119.993 115.081 120.026 115.037C120.2 114.787 120.342 114.537 120.461 114.297C120.472 114.265 120.494 114.232 120.505 114.199C120.625 113.949 120.712 113.688 120.777 113.427C120.777 113.405 120.777 113.383 120.788 113.361C120.842 113.089 120.886 112.828 120.886 112.556V111.664V110.01H120.907Z" fill="#2E4247" stroke="black" stroke-width="0.35" stroke-linecap="round" stroke-linejoin="round"/>
<path d="M116.401 101.206C115.172 100.466 113.931 99.7368 112.701 98.9968C112.81 99.0621 112.897 99.1274 112.995 99.1818C112.789 99.0512 112.571 98.9206 112.342 98.7901C101.699 92.7395 75.4839 90.2039 53.7736 93.1312C44.3821 94.3936 37.3847 96.4721 33.3147 98.9098C33.3474 98.888 33.38 98.8662 33.4236 98.8445L29.7127 101.032C23.76 104.547 23.4118 108.758 30.0609 112.534C41.6941 119.151 70.3691 121.915 94.1036 118.727C117.566 115.571 127.414 107.768 116.391 101.206H116.401Z" stroke="black" stroke-width="0.35" stroke-linecap="round" stroke-linejoin="round"/>
<path d="M110.155 99.084C109.655 98.8011 109.1 98.5182 108.523 98.2461C108.414 98.1917 108.283 98.1699 108.153 98.1917L105.128 98.5399C104.964 98.5617 104.845 98.7793 105.019 98.8664C105.519 99.0949 105.987 99.3452 106.423 99.5846C110.362 101.826 111.135 104.253 109.241 106.495C109.045 106.734 109.176 107.093 109.48 107.137L112.179 107.507C112.386 107.54 112.593 107.463 112.745 107.322C115.488 104.688 114.845 101.761 110.144 99.0949L110.155 99.084Z" fill="#D5DFE2"/>
<path d="M18.6784 94.5566C16.2407 89.2678 39.0719 73.521 69.6949 59.3848C100.307 45.2486 127.11 38.0772 129.548 43.366" stroke="black" stroke-width="0.35" stroke-linecap="round" stroke-linejoin="round"/>
<path d="M35.1429 79.8876C36.0564 79.8876 36.797 79.147 36.797 78.2335C36.797 77.3199 36.0564 76.5793 35.1429 76.5793C34.2293 76.5793 33.4888 77.3199 33.4888 78.2335C33.4888 79.147 34.2293 79.8876 35.1429 79.8876Z" fill="#25D27F"/>
<path d="M56.0809 94.5894C55.7 94.4153 54.5682 93.9147 54.5682 93.9147C54.4267 93.8494 54.2744 93.8385 54.1329 93.8494C39.9859 95.8517 31.7806 99.8347 31.7588 103.992C31.7588 104.307 32.0091 104.568 32.3247 104.547L35.2738 104.373C35.535 104.362 35.7635 104.155 35.7744 103.894C35.9267 100.172 43.2941 96.6244 55.9503 94.8397C56.1353 94.8179 56.342 94.6982 56.0809 94.5785V94.5894Z" fill="#D5DFE2"/>
<path d="M100.536 100.509C97.1077 98.5615 91.3509 97.1359 84.6691 96.3633L73.3188 102.229L86.1165 111.305C86.5844 111.642 87.1721 111.784 87.7488 111.697C102.048 109.553 107.783 104.634 100.546 100.52L100.536 100.509Z" stroke="#D5DFE2" stroke-width="0.35" stroke-linecap="round" stroke-linejoin="round"/>
<path d="M51.2934 99.3123C52.6211 98.8662 53.1325 98.7138 54.0575 98.4526C52.6102 98.9859 50.9887 99.4212 49.9875 100.651C49.3019 101.489 49.2149 102.501 49.8569 103.393C50.3575 104.079 51.0866 104.579 51.8158 104.993C57.5616 108.258 71.7196 109.629 83.4508 108.051C95.1711 106.473 100.014 102.544 94.2678 99.2797C94.2678 99.2797 96.7381 100.216 97.5434 100.607C99.5784 101.565 100.471 102.86 100.416 104.014C100.297 106.789 94.6814 109.444 85.0831 110.728C71.5019 112.556 55.1022 110.967 48.4422 107.18C47.3649 106.571 46.0916 105.7 45.7325 104.438C45.4278 103.382 45.9611 102.381 46.7446 101.706C47.6587 100.912 49.7046 99.8456 51.2825 99.3123H51.2934Z" fill="#2E4247" stroke="black" stroke-width="0.35" stroke-linecap="round" stroke-linejoin="round"/>
<path d="M96.5307 100.314C102.897 103.927 97.5319 108.269 84.5601 110.021C71.5883 111.762 55.9177 110.249 49.5516 106.636C43.1854 103.023 48.5504 98.6812 61.5221 96.9292C74.4939 95.188 90.1645 96.7006 96.5307 100.314Z" fill="white" stroke="black" stroke-width="0.35" stroke-linecap="round" stroke-linejoin="round"/>
<path opacity="0.6" d="M62.3933 73.1729C56.1251 75.9914 46.8315 85.0999 46.8315 97.027C46.8315 98.3655 46.8533 103.535 46.8751 103.524C46.9186 104.568 47.7783 105.635 49.5521 106.636C55.9183 110.249 71.5889 111.762 84.5607 110.021C93.8868 108.769 99.2736 106.168 99.2083 103.469C99.2083 103.469 99.2083 103.469 99.2083 103.448V97.1032C99.2083 85.187 90.1215 75.9914 83.8533 73.1729C82.2971 72.4764 79.1412 71.2032 79.1412 69.0049C79.1412 66.8067 82.1339 65.9796 83.6901 65.2832C89.9583 62.4646 98.5336 53.3561 98.5336 43.2573V38.2949H47.7239V43.2573C47.7239 53.367 56.2992 62.4646 62.5674 65.2832C64.1236 65.9796 67.1162 66.8502 67.1162 69.0049C67.1162 71.1596 63.9604 72.4655 62.4042 73.1729H62.3933Z" fill="white"/>
<path d="M96.5307 100.314C102.897 103.927 97.5319 108.269 84.5601 110.021C71.5883 111.762 55.9177 110.249 49.5516 106.636C43.1854 103.023 48.5504 98.6812 61.5221 96.9292C74.4939 95.188 90.1645 96.7006 96.5307 100.314Z" fill="#D5DFE2" stroke="black" stroke-width="0.35" stroke-linecap="round" stroke-linejoin="round"/>
<path d="M98.0324 101.587C98.0324 101.587 97.9562 101.511 97.9127 101.467L74.4394 105.526L95.2138 99.813C95.1377 99.7804 95.0724 99.7477 94.9962 99.7151L74.2327 105.428L90.9371 98.3548C90.8391 98.333 90.7412 98.3004 90.6324 98.2786L73.9497 105.341L85.6047 97.2666C85.485 97.2448 85.3544 97.2339 85.2347 97.2121L73.5906 105.276L79.5759 96.5918C79.4453 96.5918 79.3147 96.5701 79.1841 96.5592L73.1988 105.243V96.3416C73.0574 96.3416 72.9268 96.3416 72.7853 96.3416V105.232L66.7891 96.5266C66.6586 96.5266 66.5171 96.5483 66.3865 96.5483L72.3827 105.254L60.7059 97.1577C60.5862 97.1795 60.4556 97.1904 60.3359 97.2121L72.0235 105.309L55.2756 98.2242C55.1777 98.246 55.0688 98.2786 54.9709 98.3004L71.7297 105.396L50.9444 99.6824C50.8683 99.7151 50.7921 99.7477 50.7268 99.7804L71.5338 105.504L48.0933 101.456C48.0933 101.456 48.0171 101.532 47.9844 101.576L71.4359 105.624L47.0703 103.415C47.0703 103.415 47.0703 103.491 47.0703 103.535L71.4359 105.744L48.0497 105.407C48.0497 105.407 48.1259 105.483 48.1694 105.526L71.5338 105.864L50.9335 107.224C51.0097 107.257 51.0968 107.289 51.173 107.322L71.7406 105.962L55.3518 108.704C55.4606 108.726 55.5585 108.758 55.6674 108.791L72.0453 106.049L60.7494 109.781C60.8691 109.803 60.9997 109.814 61.1303 109.836L72.4044 106.103L66.6694 110.423C66.8 110.423 66.9306 110.445 67.0612 110.456L72.8071 106.125V110.652C72.9485 110.652 73.0791 110.652 73.2206 110.652V106.125L78.9883 110.478C79.1188 110.478 79.2603 110.467 79.3909 110.456L73.6124 106.103L85.0171 109.879C85.1477 109.857 85.2674 109.847 85.398 109.825L73.9715 106.038L90.5671 108.824C90.6759 108.802 90.7847 108.769 90.8935 108.747L74.2544 105.962L95.0941 107.344C95.1703 107.311 95.2465 107.278 95.3227 107.235L74.4612 105.853L98.0541 105.515C98.0541 105.515 98.1303 105.439 98.163 105.396L74.57 105.733L99.0662 103.513C99.0662 103.513 99.0662 103.437 99.0662 103.393L74.5809 105.613L98.065 101.554L98.0324 101.587Z" fill="white"/>
<path d="M88.0639 103.763C92.1339 106.07 88.7059 108.845 80.4136 109.966C72.1212 111.076 62.0986 110.108 58.0394 107.801C53.9694 105.493 57.3974 102.718 65.6897 101.598C73.9821 100.477 84.0047 101.456 88.0639 103.763Z" fill="white"/>
<path d="M82.7316 104.623C85.3542 106.114 83.1451 107.91 77.791 108.628C72.4369 109.346 65.9728 108.726 63.3501 107.235C60.7275 105.744 62.9366 103.948 68.2907 103.23C73.6448 102.512 80.1089 103.132 82.7316 104.623Z" fill="#25D27F"/>
<path d="M77.062 61.1153C78.1829 62.2362 81.2191 61.0065 83.8526 58.3839C86.4862 55.7612 87.705 52.7142 86.5841 51.5933L85.0279 50.0371L75.5059 59.5592L77.062 61.1153Z" fill="#D5DFE2" stroke="#91A5AA" stroke-width="0.35" stroke-linecap="round" stroke-linejoin="round"/>
<path d="M82.3061 56.8269C84.9368 54.1962 86.1598 51.1541 85.0378 50.0322C83.9159 48.9102 80.8738 50.1333 78.2432 52.7639C75.6125 55.3945 74.3895 58.4366 75.5115 59.5586C76.6334 60.6805 79.6755 59.4575 82.3061 56.8269Z" fill="white" stroke="#91A5AA" stroke-width="0.35" stroke-linecap="round" stroke-linejoin="round"/>
<path d="M81.452 55.9727C82.9819 54.4427 83.6951 52.6753 83.0449 52.0251C82.3946 51.3749 80.6273 52.0881 79.0973 53.618C77.5674 55.1479 76.8543 56.9153 77.5045 57.5655C78.1547 58.2157 79.9221 57.5026 81.452 55.9727Z" fill="#D5DFE2"/>
<path d="M74.0802 90.5739C73.3511 91.9777 75.4405 94.5024 78.7487 96.211C82.057 97.9195 85.3217 98.1589 86.0508 96.7442L87.0628 94.7963L75.0922 88.626L74.0802 90.5739Z" fill="#D5DFE2" stroke="#91A5AA" stroke-width="0.35" stroke-linecap="round" stroke-linejoin="round"/>
<path d="M87.0612 94.7883C87.7884 93.378 85.6975 90.8525 82.391 89.1474C79.0845 87.4422 75.8145 87.2031 75.0873 88.6133C74.3601 90.0236 76.451 92.549 79.7575 94.2542C83.064 95.9594 86.334 96.1985 87.0612 94.7883Z" fill="white" stroke="#91A5AA" stroke-width="0.35" stroke-linecap="round" stroke-linejoin="round"/>
<path d="M85.0979 93.7758C85.5855 92.8303 84.1793 91.1349 81.9572 89.9889C79.7351 88.843 77.5384 88.6805 77.0508 89.6259C76.5632 90.5714 77.9694 92.2669 80.1915 93.4128C82.4137 94.5588 84.6103 94.7213 85.0979 93.7758Z" fill="#D5DFE2"/>
<path d="M57.7891 91.02C58.5074 92.4347 61.7721 92.217 65.0912 90.5303C68.4103 88.8435 70.5106 86.3406 69.7924 84.9259L68.8021 82.967L56.7988 89.0612L57.7891 91.02Z" fill="#D5DFE2" stroke="#91A5AA" stroke-width="0.35" stroke-linecap="round" stroke-linejoin="round"/>
<path d="M64.0969 88.5737C67.4141 86.8894 69.5208 84.3771 68.8024 82.9623C68.0841 81.5476 64.8127 81.7661 61.4955 83.4505C58.1783 85.1348 56.0716 87.6471 56.79 89.0619C57.5083 90.4766 60.7798 90.2581 64.0969 88.5737Z" fill="white" stroke="#91A5AA" stroke-width="0.35" stroke-linecap="round" stroke-linejoin="round"/>
<path d="M63.6298 87.6521C65.7519 86.5745 67.0995 84.9668 66.6396 84.0612C66.1797 83.1555 64.0866 83.2949 61.9645 84.3724C59.8424 85.45 58.4949 87.0577 58.9547 87.9633C59.4146 88.869 61.5077 88.7296 63.6298 87.6521Z" fill="#D5DFE2"/>
<path d="M61.1083 53.5958C60.6185 54.6514 62.24 56.4361 64.7212 57.5788C67.2024 58.7214 69.6074 58.7867 70.0971 57.7311L70.7718 56.262L61.783 52.1267L61.1083 53.5958Z" fill="#D5DFE2" stroke="#91A5AA" stroke-width="0.35" stroke-linecap="round" stroke-linejoin="round"/>
<path d="M70.7746 56.2618C71.2615 55.2023 69.6462 53.4198 67.1669 52.2805C64.6875 51.1412 62.2829 51.0764 61.7961 52.1359C61.3092 53.1953 62.9245 54.9778 65.4038 56.1171C67.8832 57.2565 70.2878 57.3212 70.7746 56.2618Z" fill="white" stroke="#91A5AA" stroke-width="0.35" stroke-linecap="round" stroke-linejoin="round"/>
<path d="M69.0442 55.4665C69.3429 54.8166 68.3498 53.7222 66.8261 53.022C65.3025 52.3218 63.8252 52.2811 63.5266 52.931C63.2279 53.5808 64.221 54.6753 65.7447 55.3754C67.2683 56.0756 68.7456 56.1163 69.0442 55.4665Z" fill="#D5DFE2"/>
<path d="M62.3933 73.1729C56.1251 75.9914 46.8315 85.0999 46.8315 97.027C46.8315 98.3655 46.8533 103.535 46.8751 103.524C46.9186 104.568 47.7783 105.635 49.5521 106.636C55.9183 110.249 71.5889 111.762 84.5607 110.021C93.8868 108.769 99.2736 106.168 99.2083 103.469C99.2083 103.469 99.2083 103.469 99.2083 103.448V97.1032C99.2083 85.187 90.1215 75.9914 83.8533 73.1729C82.2971 72.4764 79.1412 71.2032 79.1412 69.0049C79.1412 66.8067 82.1339 65.9796 83.6901 65.2832C89.9583 62.4646 98.5336 53.3561 98.5336 43.2573V38.2949H47.7239V43.2573C47.7239 53.367 56.2992 62.4646 62.5674 65.2832C64.1236 65.9796 67.1162 66.8502 67.1162 69.0049C67.1162 71.1596 63.9604 72.4655 62.4042 73.1729H62.3933Z" fill="url(#paint0_linear_3082_4670)" stroke="black" stroke-width="0.35" stroke-linecap="round" stroke-linejoin="round"/>
<path opacity="0.7" d="M83.7334 73.1729C82.1772 72.4764 79.0214 71.2032 79.0214 69.0049C79.0214 66.8067 82.014 65.9796 83.5702 65.2832C89.8384 62.4646 98.4137 53.3561 98.4137 43.2573V38.2949H93.7234V39.6552C93.7234 41.3637 93.6146 42.9961 93.4187 44.5523C93.1902 46.2826 92.8528 47.9258 92.4067 49.4711C91.819 51.5279 91.0355 53.4214 90.1105 55.1735C88.0972 58.9496 85.3767 62.0293 82.2643 64.467C81.1325 65.3485 78.8037 66.687 78.8037 69.1573C78.8037 71.6276 81.3393 72.9987 82.4384 73.9237C87.4008 78.0917 92.6134 85.3393 93.9411 96.0585C94.1478 97.7343 94.2567 99.4864 94.2567 101.326V107.626C96.9664 106.593 98.5225 105.396 98.9905 104.122C98.9905 104.079 99.0993 103.905 99.0993 103.426V97.0814C99.0993 85.1652 90.0125 75.9696 83.7443 73.1511L83.7334 73.1729Z" fill="white"/>
<path d="M59.6403 52.4203C59.1288 50.69 58.7153 48.84 58.4214 46.8486C56.8653 46.6527 55.3853 46.4133 53.9814 46.1521C54.1991 48.1 54.6344 49.9827 55.2003 51.7674C56.615 52.0177 58.095 52.2353 59.6512 52.4203H59.6403Z" fill="white"/>
<path d="M64.1343 73.1729C59.727 75.9914 53.1758 85.1 53.1758 97.027V108.04C54.3837 108.41 55.9073 108.878 57.4199 109.139V101.238C57.4199 87.592 62.034 78.2441 65.8537 73.9238C66.6481 73.0314 68.4111 71.6711 68.4111 69.1573C68.4111 66.6435 66.7678 65.3267 65.9952 64.4017C63.7425 61.7138 61.7184 58.3838 60.2602 54.2811C58.7367 54.1179 57.2675 53.9111 55.8746 53.6826C58.0184 59.1782 61.4573 63.4876 64.254 65.2832C65.3531 65.9797 67.4643 66.8503 67.4643 69.005C67.4643 71.1597 65.2443 72.4656 64.1452 73.1729H64.1343Z" fill="white"/>
<path d="M53.785 23.0596H50.1938V25.7802H53.785V23.0596Z" fill="white" stroke="#91A5AA" stroke-width="0.35" stroke-linecap="round" stroke-linejoin="round"/>
<path d="M96.226 23.0706V26.3679L92.1016 24.5179L96.226 23.0706Z" fill="#D8E2E5" stroke="#91A5AA" stroke-width="0.35" stroke-linecap="round" stroke-linejoin="round"/>
<path d="M93.9703 36.2297C93.9764 33.0443 84.6755 30.4442 73.1961 30.4221C61.7167 30.4001 52.4059 32.9645 52.3997 36.1498C52.3936 39.3352 61.6945 41.9353 73.1739 41.9574C84.6533 41.9794 93.9641 39.415 93.9703 36.2297Z" fill="#25D27F" stroke="black" stroke-width="0.35" stroke-linecap="round" stroke-linejoin="round"/>
<path d="M73.2103 28.9146C68.4112 28.9146 39.1812 32.3207 39.1812 32.3207V38.2734C39.1812 38.3387 39.1812 38.3822 39.2356 38.4366C39.5947 38.8501 40.0626 39.2528 40.6176 39.6554C40.9332 39.884 41.7059 40.0254 42.5764 40.0254C42.7723 40.0254 42.9791 40.0254 43.175 40.0037L46.9076 39.699C51.0647 42.0604 59.1829 43.7798 68.8464 44.1934L68.9553 45.2816C68.9879 45.5863 69.8367 45.8366 70.925 45.8475C71.7956 45.8584 72.5247 45.8693 73.2103 45.8693C73.8959 45.8693 74.625 45.8693 75.4956 45.8475C76.5838 45.8257 77.4326 45.5863 77.4653 45.2816L77.5741 44.1934C87.2376 43.7907 95.3559 42.0713 99.5129 39.699L103.246 40.0037C103.441 40.0146 103.637 40.0254 103.844 40.0254C104.715 40.0254 105.487 39.8731 105.803 39.6554C106.358 39.2528 106.826 38.8501 107.185 38.4366C107.229 38.3931 107.25 38.3387 107.25 38.2951V32.3207C107.25 32.3207 78.0203 28.9146 73.2103 28.9146Z" fill="white" stroke="#91A5AA" stroke-width="0.35" stroke-linecap="round" stroke-linejoin="round"/>
<path d="M76.8008 45.6841C77.1925 45.5753 77.4428 45.4338 77.4646 45.2706L77.5734 44.1824C87.237 43.7797 95.3552 42.0603 99.5123 39.688H99.5231V32.5818L76.8008 34.9106" fill="#D8E2E5"/>
<path d="M76.8008 45.6841C77.1925 45.5753 77.4428 45.4338 77.4646 45.2706L77.5734 44.1824C87.237 43.7797 95.3552 42.0603 99.5123 39.688H99.5231V32.5818L76.8008 34.9106" stroke="#91A5AA" stroke-width="0.35" stroke-miterlimit="10"/>
<path d="M105.215 39.8728C105.465 39.8075 105.672 39.7422 105.802 39.6443C106.357 39.2416 106.825 38.839 107.185 38.4255C107.228 38.3819 107.25 38.3275 107.25 38.284V32.3096L105.215 32.3857" fill="#D8E2E5"/>
<path d="M105.215 39.8728C105.465 39.8075 105.672 39.7422 105.802 39.6443C106.357 39.2416 106.825 38.839 107.185 38.4255C107.228 38.3819 107.25 38.3275 107.25 38.284V32.3096L105.215 32.3857" stroke="#91A5AA" stroke-width="0.35" stroke-miterlimit="10"/>
<path d="M68.8462 44.1822V37.3372" stroke="#91A5AA" stroke-width="0.35" stroke-miterlimit="10"/>
<path d="M77.606 44.1606V37.3047" stroke="#91A5AA" stroke-width="0.35" stroke-miterlimit="10"/>
<path d="M41.9336 39.9926C42.1404 40.0143 42.358 40.0252 42.5865 40.0252C42.7824 40.0252 42.9892 40.0252 43.1851 40.0034L46.8415 39.6987V33.0061L41.9336 32.5708" fill="#D8E2E5"/>
<path d="M41.9336 39.9926C42.1404 40.0143 42.358 40.0252 42.5865 40.0252C42.7824 40.0252 42.9892 40.0252 43.1851 40.0034L46.8415 39.6987V33.0061L41.9336 32.5708" stroke="#91A5AA" stroke-width="0.35" stroke-miterlimit="10"/>
<path d="M105.846 31.7655L102.135 31.3955C102.364 30.982 102.483 30.5576 102.483 30.1332C102.483 27.837 99.0988 25.7694 93.6468 24.2894L95.8559 23.3861C96.4762 23.1358 96.3021 22.7985 95.4532 22.6026C94.2997 22.3414 93.0482 22.0802 91.7097 21.8517C91.3723 21.7973 90.9915 21.7646 90.5888 21.7646C89.925 21.7646 89.3265 21.8517 88.9238 21.9932L86.5297 22.8638C82.5359 22.2979 78.0088 21.9714 73.2097 21.9714C68.4106 21.9714 63.8835 22.2979 59.8897 22.8638L57.4956 21.9932C57.0929 21.8517 56.4835 21.7646 55.8306 21.7646C55.4388 21.7646 55.047 21.7973 54.7097 21.8517C53.382 22.0802 52.1197 22.3305 50.9662 22.6026C50.1173 22.7985 49.9432 23.1358 50.5635 23.3861L52.7726 24.2894C47.3206 25.7694 43.9362 27.8479 43.9362 30.1332C43.9362 30.5576 44.0559 30.982 44.2844 31.3955L40.5735 31.7655C39.5506 31.8635 38.9738 32.1682 39.235 32.462C39.5941 32.8755 40.062 33.2782 40.617 33.6808C40.9326 33.9094 41.7053 34.0508 42.5759 34.0508C42.7718 34.0508 42.9785 34.0508 43.1744 34.0291L46.907 33.7244C51.0532 36.0858 59.1823 37.8052 68.8459 38.2188L68.9547 39.307C68.9873 39.6117 69.8362 39.862 70.9244 39.8729C71.795 39.8838 72.5241 39.8946 73.2097 39.8946C73.8953 39.8946 74.6244 39.8946 75.495 39.8729C76.5832 39.8511 77.432 39.6117 77.4647 39.307L77.5735 38.2188C87.2371 37.8161 95.3553 36.0967 99.5123 33.7244L103.245 34.0291C103.441 34.0399 103.637 34.0508 103.844 34.0508C104.714 34.0508 105.487 33.8985 105.802 33.6808C106.357 33.2782 106.825 32.8755 107.184 32.462C107.228 32.4185 107.25 32.3641 107.25 32.3205C107.25 32.0702 106.684 31.8526 105.857 31.7655H105.846Z" fill="white" stroke="#91A5AA" stroke-width="0.35" stroke-linecap="round" stroke-linejoin="round"/>
<path d="M95.9716 30.1824C95.9784 26.6845 85.7814 23.8293 73.1962 23.8052C60.611 23.781 50.4032 26.597 50.3964 30.0949C50.3897 33.5929 60.5866 36.4481 73.1719 36.4722C85.7571 36.4964 95.9649 33.6804 95.9716 30.1824Z" fill="#2E4247"/>
<path d="M93.6464 30.4162C88.1073 27.2712 74.4499 25.9436 63.1432 27.4671C56.8423 28.3159 52.5982 29.8721 51.042 31.6241C51.4229 32.0594 51.9779 32.4839 52.707 32.8974C58.2461 36.0424 71.9035 37.37 83.2102 35.8465C89.5111 34.9977 93.7552 33.4415 95.3114 31.6894C94.9305 31.2541 94.3755 30.8297 93.6464 30.4162Z" fill="white"/>
<path d="M86.7364 31.5371C83.0691 29.4477 74.0258 28.5771 66.5388 29.5892C59.0517 30.5904 55.9611 33.1042 59.6285 35.1827C59.6611 35.2045 59.7047 35.2154 59.7373 35.2371C66.3538 36.5865 75.3535 36.913 83.2214 35.8574C84.4294 35.6942 85.5611 35.5092 86.6058 35.2915C88.6952 34.1598 88.902 32.7777 86.7364 31.5371Z" fill="#25D27F"/>
<path d="M84.7559 26.2808C88.4667 26.8902 91.6117 27.8043 93.6467 28.9687C94.6262 29.5237 95.3335 30.1005 95.7579 30.9166" stroke="#91A5AA" stroke-width="0.35" stroke-linecap="round" stroke-linejoin="round"/>
<path d="M50.5742 30.9166C50.7266 30.4922 51.1836 29.9916 51.5101 29.7196C53.3492 28.1525 57.3866 26.7922 63.1433 26.0196C68.726 25.2687 74.8854 25.2143 80.3483 25.7257V24.3872" stroke="#91A5AA" stroke-width="0.35" stroke-linecap="round" stroke-linejoin="round"/>
<path d="M82.5251 26.346C82.7235 26.346 82.8843 26.1706 82.8843 25.9543C82.8843 25.7379 82.7235 25.5625 82.5251 25.5625C82.3268 25.5625 82.166 25.7379 82.166 25.9543C82.166 26.1706 82.3268 26.346 82.5251 26.346Z" fill="#91A5AA"/>
<path d="M129.548 43.3555C131.986 48.6443 109.155 64.3911 78.5317 78.5272C47.9196 92.6634 21.1272 99.8458 18.6787 94.5569" stroke="black" stroke-width="0.35" stroke-linecap="round" stroke-linejoin="round"/>
<path d="M118.383 58.5909C119.807 58.5909 120.962 57.4361 120.962 56.0117C120.962 54.5873 119.807 53.4326 118.383 53.4326C116.958 53.4326 115.804 54.5873 115.804 56.0117C115.804 57.4361 116.958 58.5909 118.383 58.5909Z" fill="#25D27F"/>
<path d="M107.25 32.3205C107.25 32.0702 106.684 31.8526 105.857 31.7655L102.146 31.3955C102.374 30.982 102.494 30.5576 102.494 30.1332C102.494 28.2288 100.143 26.4767 96.2257 25.0838V23.0814C96.2583 22.9073 95.9971 22.7223 95.4639 22.6026C94.3104 22.3414 93.0589 22.0802 91.7204 21.8517C91.383 21.7973 91.0022 21.7646 90.5995 21.7646C89.9357 21.7646 89.3371 21.8517 88.9345 21.9932L86.5404 22.8638C82.5466 22.2979 78.0195 21.9714 73.2204 21.9714C68.4213 21.9714 63.8942 22.2979 59.9004 22.8638L57.5063 21.9932C57.1036 21.8517 56.4942 21.7646 55.8413 21.7646C55.4495 21.7646 55.0577 21.7973 54.7204 21.8517C53.3927 22.0802 52.1304 22.3305 50.9769 22.6026C50.4763 22.7223 50.2151 22.8855 50.2151 23.0596V23.0814V25.0946C46.2974 26.4876 43.9469 28.2396 43.9469 30.1441C43.9469 30.5685 44.0666 30.9929 44.2951 31.4064L40.5951 31.7764C39.7354 31.8635 39.2021 32.0811 39.2021 32.3314C39.2021 32.3314 39.2021 32.3423 39.2021 32.3532C39.2021 32.3532 39.2021 32.3641 39.2021 32.3749V38.2949C39.2021 38.3602 39.2021 38.4038 39.2566 38.4582C39.6157 38.8717 40.0836 39.2744 40.6386 39.677C40.9542 39.9055 41.7269 40.047 42.5974 40.047C42.7933 40.047 43.0001 40.047 43.196 40.0252L46.9286 39.7205C51.0857 42.082 59.2039 43.8014 68.8674 44.2149L68.9763 45.3032C69.0089 45.6079 69.8577 45.8582 70.946 45.8691C71.8166 45.8799 72.5457 45.8908 73.2313 45.8908C73.9169 45.8908 74.646 45.8908 75.5166 45.8691C76.311 45.8582 76.9639 45.7167 77.2795 45.5317C77.2795 45.5317 77.2795 45.5317 77.2904 45.5317C77.3339 45.4991 77.3774 45.4664 77.3992 45.4446C77.3992 45.4446 77.4101 45.4338 77.421 45.4229C77.4536 45.3902 77.4754 45.3467 77.4754 45.3032L77.5842 44.2149C78.7051 44.1714 79.8151 44.1061 80.8924 44.0191C82.3507 43.9102 83.7654 43.7688 85.1257 43.5946C85.8113 43.5076 86.486 43.4205 87.1389 43.3226C91.9707 42.5935 95.9863 41.4944 98.696 40.1667C98.9898 40.0252 99.2619 39.8838 99.523 39.7314L103.256 40.0361C103.452 40.047 103.647 40.0579 103.854 40.0579C104.377 40.0579 104.855 40.0035 105.225 39.9055C105.345 39.8729 105.454 39.8402 105.552 39.8076C105.661 39.7641 105.748 39.7314 105.813 39.677C106.368 39.2744 106.836 38.8717 107.195 38.4582C107.239 38.4146 107.26 38.3602 107.26 38.3167V32.3423L107.25 32.3205Z" stroke="black" stroke-width="0.35" stroke-linecap="round" stroke-linejoin="round"/>
<path d="M95.9726 30.1824C95.9793 26.6845 85.7824 23.8293 73.1972 23.8052C60.6119 23.781 50.4041 26.597 50.3974 30.0949C50.3907 33.5929 60.5876 36.4481 73.1729 36.4722C85.7581 36.4964 95.9659 33.6804 95.9726 30.1824Z" stroke="black" stroke-width="0.35" stroke-linecap="round" stroke-linejoin="round"/>
<defs>
<linearGradient id="paint0_linear_3082_4670" x1="46.8424" y1="74.5223" x2="99.2192" y2="74.5223" gradientUnits="userSpaceOnUse">
<stop stop-color="#25D27F" stop-opacity="0"/>
<stop offset="1" stop-color="#25D27F" stop-opacity="0.7"/>
</linearGradient>
</defs>
</svg>
