<svg width="148" height="148" viewBox="0 0 148 148" fill="none" xmlns="http://www.w3.org/2000/svg">
<path d="M25.1534 111.838V106.69C25.1534 108.66 26.7313 110.662 30.0613 112.545C41.6946 119.162 70.3696 121.926 94.104 118.737C111.048 116.463 120.896 111.751 120.907 106.843V111.99C120.885 116.898 111.048 121.599 94.0931 123.885C70.3587 127.073 41.6837 124.298 30.0504 117.692C26.7204 115.799 25.1425 113.797 25.1534 111.838Z" fill="#D5DFE2" stroke="black" stroke-width="0.35" stroke-linecap="round" stroke-linejoin="round"/>
<path d="M112.343 98.7903C101.7 92.7397 75.4848 90.2041 53.7745 93.1315C32.0751 96.0479 23.1081 103.317 33.751 109.368C44.3939 115.419 70.6095 117.954 92.3198 115.027C114.019 112.11 122.986 104.841 112.343 98.7903Z" fill="white"/>
<path d="M59.8362 115.647L61.2726 114.135C61.4794 113.917 61.3379 113.558 61.0441 113.525C52.4253 112.666 44.9382 110.914 40.5962 108.443C40.4438 108.356 40.3023 108.269 40.1609 108.182C39.6059 107.845 38.9529 107.736 38.3109 107.845L32.8262 108.813" stroke="#D5DFE2" stroke-width="0.35" stroke-linecap="round" stroke-linejoin="round"/>
<path d="M29.7146 101.032L33.4255 98.8447C27.9843 102.055 27.6579 105.907 33.7411 109.368C44.384 115.419 70.5996 117.954 92.3099 115.027C113.77 112.143 122.77 105.004 112.693 98.9971C113.922 99.7371 115.163 100.466 116.393 101.206C127.416 107.768 117.568 115.571 94.1055 118.727C70.3711 121.915 41.6961 119.14 30.0629 112.535C23.4137 108.759 23.762 104.547 29.7146 101.032Z" fill="white" stroke="#91A5AA" stroke-width="0.35" stroke-linecap="round" stroke-linejoin="round"/>
<path d="M120.909 110.011V109.445C120.887 111.371 119.353 113.254 116.48 114.973C116.24 115.115 116.034 115.321 115.892 115.561C115.598 116.072 115.326 116.529 115.032 117.03C114.869 117.313 114.619 117.541 114.325 117.683C109.602 119.914 102.463 121.785 93.3222 122.961C93.0719 122.993 92.8216 122.917 92.6366 122.754L91.7987 122.014C91.5157 121.764 91.1457 121.644 90.7757 121.688C79.001 122.972 66.3013 122.874 55.2122 121.622C54.9075 121.59 54.6028 121.688 54.3634 121.894L53.5472 122.623C53.3078 122.841 52.9813 122.939 52.6657 122.895C44.1231 121.764 36.7122 119.935 31.6845 117.52C31.4343 117.4 31.2384 117.215 31.1078 116.975C30.814 116.475 30.4766 115.876 30.2372 115.485C30.1719 115.365 30.0631 115.191 29.9107 115.049C29.7148 114.875 29.4754 114.745 29.421 114.712C27.7234 113.667 26.559 112.59 25.8734 111.513C25.5795 111.034 25.3728 110.566 25.264 110.087C25.1987 109.804 25.166 109.521 25.166 109.249V112.514C25.166 112.731 25.1987 112.993 25.2531 113.21C25.2531 113.221 25.2531 113.243 25.264 113.254C25.3184 113.482 25.3837 113.711 25.4816 113.939C25.4816 113.939 25.4925 113.961 25.4925 113.972C25.5904 114.2 25.7101 114.44 25.8516 114.668C25.8516 114.679 25.8734 114.701 25.8843 114.712C26.0257 114.94 26.189 115.169 26.3848 115.398C26.4175 115.43 26.4501 115.463 26.4828 115.495C26.6678 115.702 26.8528 115.909 27.0704 116.116C27.1357 116.181 27.2119 116.235 27.2881 116.301C27.484 116.475 27.6798 116.66 27.9084 116.834C28.0498 116.943 28.2131 117.052 28.3654 117.16C28.5395 117.291 28.7028 117.422 28.8987 117.541C29.2578 117.781 29.6387 118.009 30.0522 118.249C35.1234 121.133 43.4375 123.276 53.1554 124.528C54.6681 124.724 56.2134 124.898 57.7913 125.039C57.8348 125.039 57.8784 125.039 57.9219 125.05C59.4454 125.192 60.9907 125.311 62.5578 125.42C62.6557 125.42 62.7537 125.431 62.8407 125.442C64.3751 125.54 65.9313 125.616 67.4984 125.67C67.5963 125.67 67.6834 125.67 67.7813 125.67C69.3919 125.725 71.0134 125.758 72.6348 125.758C72.6675 125.758 72.7001 125.758 72.7328 125.758C79.9042 125.779 87.2063 125.366 94.084 124.441C103.138 123.222 110.168 121.318 114.75 119.054C115.729 118.564 116.6 118.064 117.35 117.552C117.372 117.541 117.383 117.53 117.405 117.52C117.753 117.28 118.08 117.03 118.384 116.78C118.417 116.758 118.45 116.725 118.471 116.703C118.754 116.464 119.015 116.214 119.255 115.974C119.287 115.942 119.32 115.909 119.342 115.876C119.57 115.637 119.766 115.387 119.951 115.147C119.973 115.115 119.995 115.082 120.027 115.038C120.202 114.788 120.343 114.538 120.463 114.298C120.474 114.266 120.495 114.233 120.506 114.2C120.626 113.95 120.713 113.689 120.778 113.428C120.778 113.406 120.778 113.384 120.789 113.363C120.844 113.09 120.887 112.829 120.887 112.557V111.665V110.011H120.909Z" fill="#2E4247" stroke="black" stroke-width="0.35" stroke-linecap="round" stroke-linejoin="round"/>
<path d="M116.4 101.206C115.171 100.466 113.93 99.7371 112.7 98.9971C112.809 99.0624 112.896 99.1277 112.994 99.1821C112.788 99.0515 112.57 98.9209 112.341 98.7903C101.698 92.7397 75.4829 90.2041 53.7726 93.1315C44.3811 94.3938 37.3838 96.4724 33.3138 98.91C33.3464 98.8882 33.3791 98.8665 33.4226 98.8447L29.7117 101.032C23.7591 104.547 23.4108 108.759 30.0599 112.535C41.6932 119.151 70.3682 121.915 94.1026 118.727C117.565 115.571 127.413 107.768 116.39 101.206H116.4Z" stroke="black" stroke-width="0.35" stroke-linecap="round" stroke-linejoin="round"/>
<path d="M110.156 99.0838C109.655 98.8009 109.1 98.5179 108.523 98.2459C108.414 98.1914 108.284 98.1697 108.153 98.1914L105.128 98.5397C104.965 98.5614 104.845 98.7791 105.019 98.8662C105.52 99.0947 105.988 99.345 106.423 99.5844C110.362 101.826 111.135 104.253 109.242 106.495C109.046 106.734 109.176 107.093 109.481 107.137L112.18 107.507C112.387 107.539 112.593 107.463 112.746 107.322C115.488 104.688 114.846 101.761 110.145 99.0947L110.156 99.0838Z" fill="#D5DFE2"/>
<path d="M56.0828 94.5904C55.7019 94.4162 54.5702 93.9156 54.5702 93.9156C54.4287 93.8504 54.2763 93.8395 54.1349 93.8504C39.9878 95.8527 31.7825 99.8357 31.7607 103.993C31.7607 104.308 32.011 104.569 32.3266 104.548L35.2757 104.374C35.5369 104.363 35.7654 104.156 35.7763 103.895C35.9287 100.173 43.296 96.6254 55.9522 94.8406C56.1372 94.8189 56.344 94.6992 56.0828 94.5795V94.5904Z" fill="#D5DFE2"/>
<path d="M100.536 100.51C97.1082 98.562 91.3514 97.1364 84.6696 96.3638L73.3193 102.229L86.117 111.305C86.5849 111.643 87.1726 111.784 87.7493 111.697C102.049 109.553 107.784 104.634 100.547 100.521L100.536 100.51Z" stroke="#D5DFE2" stroke-width="0.35" stroke-linecap="round" stroke-linejoin="round"/>
<path d="M51.2934 99.3128C52.6211 98.8667 53.1325 98.7143 54.0575 98.4531C52.6102 98.9864 50.9887 99.4217 49.9875 100.651C49.3019 101.489 49.2149 102.501 49.8569 103.394C50.3575 104.079 51.0866 104.58 51.8158 104.993C57.5617 108.258 71.7196 109.629 83.4508 108.051C95.1711 106.473 100.014 102.545 94.2678 99.2802C94.2678 99.2802 96.7381 100.216 97.5434 100.608C99.5784 101.565 100.471 102.86 100.416 104.014C100.297 106.789 94.6814 109.444 85.0831 110.728C71.502 112.557 55.1022 110.968 48.4422 107.181C47.3649 106.571 46.0916 105.701 45.7325 104.438C45.4278 103.383 45.9611 102.382 46.7446 101.707C47.6587 100.913 49.7046 99.8461 51.2825 99.3128H51.2934Z" fill="#2E4247" stroke="black" stroke-width="0.35" stroke-linecap="round" stroke-linejoin="round"/>
<path d="M96.5302 100.314C102.896 103.927 97.5314 108.269 84.5596 110.021C71.5878 111.762 55.9172 110.25 49.5511 106.637C43.1849 103.024 48.5499 98.6817 61.5217 96.9297C74.4934 95.1885 90.164 96.7011 96.5302 100.314Z" fill="white" stroke="black" stroke-width="0.35" stroke-linecap="round" stroke-linejoin="round"/>
<path d="M96.5302 100.314C102.896 103.927 97.5314 108.269 84.5596 110.021C71.5878 111.762 55.9172 110.25 49.5511 106.637C43.1849 103.024 48.5499 98.6817 61.5217 96.9297C74.4934 95.1885 90.164 96.7011 96.5302 100.314Z" fill="#D5DFE2" stroke="black" stroke-width="0.35" stroke-linecap="round" stroke-linejoin="round"/>
<path d="M98.0333 101.588C98.0333 101.588 97.9571 101.511 97.9136 101.468L74.4404 105.527L95.2148 99.8138C95.1386 99.7811 95.0733 99.7485 94.9972 99.7158L74.2336 105.429L90.938 98.3555C90.8401 98.3338 90.7422 98.3011 90.6333 98.2793L73.9507 105.342L85.6057 97.2673C85.486 97.2455 85.3554 97.2346 85.2357 97.2129L73.5916 105.277L79.5769 96.5926C79.4463 96.5926 79.3157 96.5708 79.1851 96.5599L73.1998 105.244V96.3423C73.0583 96.3423 72.9277 96.3423 72.7863 96.3423V105.233L66.7901 96.5273C66.6595 96.5273 66.518 96.549 66.3875 96.549L72.3836 105.255L60.7069 97.1585C60.5872 97.1802 60.4566 97.1911 60.3369 97.2129L72.0245 105.309L55.2766 98.2249C55.1786 98.2467 55.0698 98.2793 54.9719 98.3011L71.7307 105.396L50.9454 99.6832C50.8692 99.7158 50.7931 99.7485 50.7278 99.7811L71.5348 105.505L48.0942 101.457C48.0942 101.457 48.0181 101.533 47.9854 101.577L71.4369 105.625L47.0713 103.416C47.0713 103.416 47.0713 103.492 47.0713 103.536L71.4369 105.745L48.0507 105.407C48.0507 105.407 48.1269 105.483 48.1704 105.527L71.5348 105.864L50.9345 107.225C51.0107 107.257 51.0978 107.29 51.1739 107.323L71.7416 105.962L55.3528 108.705C55.4616 108.726 55.5595 108.759 55.6683 108.792L72.0463 106.049L60.7504 109.782C60.8701 109.804 61.0007 109.815 61.1313 109.836L72.4054 106.104L66.6704 110.424C66.801 110.424 66.9316 110.446 67.0622 110.457L72.808 106.126V110.653C72.9495 110.653 73.0801 110.653 73.2216 110.653V106.126L78.9892 110.478C79.1198 110.478 79.2613 110.468 79.3919 110.457L73.6133 106.104L85.018 109.88C85.1486 109.858 85.2683 109.847 85.3989 109.826L73.9725 106.038L90.568 108.824C90.6769 108.803 90.7857 108.77 90.8945 108.748L74.2554 105.962L95.0951 107.344C95.1713 107.312 95.2474 107.279 95.3236 107.236L74.4622 105.853L98.0551 105.516C98.0551 105.516 98.1313 105.44 98.1639 105.396L74.571 105.734L99.0672 103.514C99.0672 103.514 99.0672 103.438 99.0672 103.394L74.5819 105.614L98.066 101.555L98.0333 101.588Z" fill="white"/>
<path d="M88.0663 103.765C92.1363 106.072 88.7084 108.847 80.416 109.968C72.1237 111.078 62.101 110.109 58.0419 107.802C53.9719 105.495 57.3998 102.72 65.6922 101.599C73.9845 100.478 84.0072 101.458 88.0663 103.765Z" fill="white"/>
<path d="M82.7326 104.625C85.3552 106.116 83.1461 107.911 77.792 108.63C72.4379 109.348 65.9738 108.727 63.3511 107.237C60.7285 105.746 62.9376 103.95 68.2917 103.232C73.6458 102.514 80.1099 103.134 82.7326 104.625Z" fill="#25D27F"/>
<path d="M18.6784 94.5568C16.2407 89.268 39.0719 73.5212 69.6948 59.385C100.307 45.2489 127.11 38.0774 129.548 43.3662" stroke="black" stroke-width="0.35" stroke-linecap="round" stroke-linejoin="round"/>
<path d="M35.1434 79.8873C36.0569 79.8873 36.7975 79.1468 36.7975 78.2332C36.7975 77.3197 36.0569 76.5791 35.1434 76.5791C34.2298 76.5791 33.4893 77.3197 33.4893 78.2332C33.4893 79.1468 34.2298 79.8873 35.1434 79.8873Z" fill="#25D27F"/>
<path d="M45.2381 14.8756C46.6413 14.8756 47.7789 13.738 47.7789 12.3348C47.7789 10.9315 46.6413 9.79395 45.2381 9.79395C43.8348 9.79395 42.6973 10.9315 42.6973 12.3348C42.6973 13.738 43.8348 14.8756 45.2381 14.8756Z" fill="white" stroke="#121212" stroke-width="0.35" stroke-miterlimit="10" stroke-linecap="round" stroke-linejoin="round"/>
<path d="M21.9472 24.1922C22.6488 24.1922 23.2176 23.6234 23.2176 22.9218C23.2176 22.2201 22.6488 21.6514 21.9472 21.6514C21.2455 21.6514 20.6768 22.2201 20.6768 22.9218C20.6768 23.6234 21.2455 24.1922 21.9472 24.1922Z" fill="white" stroke="#121212" stroke-width="0.35" stroke-miterlimit="10" stroke-linecap="round" stroke-linejoin="round"/>
<path d="M29.1793 31.8143L24.9111 36.0825L29.1793 40.3507L33.4475 36.0825L29.1793 31.8143Z" fill="white" stroke="#121212" stroke-width="0.35" stroke-miterlimit="9.9998" stroke-linecap="round" stroke-linejoin="round"/>
<path d="M65.7812 97.018L65.7952 97.0228L65.8098 97.0253C68.4947 97.4728 71.5459 97.4452 74.3056 97.4203C74.9208 97.4147 75.5215 97.4093 76.1005 97.4093C93.0937 97.4093 106.822 81.1647 106.822 61.1891C106.822 41.2135 93.0937 24.9689 76.1005 24.9689C75.6682 24.9689 75.2065 24.9666 74.7244 24.9641C71.8111 24.9494 68.1576 24.9309 65.8042 25.4016L65.792 25.4041L65.7801 25.4083C53.1016 29.9004 45.3787 44.8503 45.3787 61.1891C45.3787 77.5993 53.0141 92.5897 65.7812 97.018Z" fill="#D8E2E5" stroke="black" stroke-width="0.35"/>
<mask id="mask0_3320_3764" style="mask-type:alpha" maskUnits="userSpaceOnUse" x="45" y="25" width="62" height="73">
<ellipse cx="76.1005" cy="61.1893" rx="30.5468" ry="36.0452" fill="#D8E2E5"/>
</mask>
<g mask="url(#mask0_3320_3764)">
<rect x="90.7158" y="37.0771" width="15.9192" height="4.97476" transform="rotate(-13.2032 90.7158 37.0771)" fill="white"/>
<rect x="91.7861" y="43.4751" width="15.9192" height="2.06161" transform="rotate(-13.2032 91.7861 43.4751)" fill="white"/>
</g>
<ellipse cx="69.7236" cy="61.1883" rx="30.5468" ry="36.0452" fill="white" stroke="black" stroke-width="0.35"/>
<path d="M69.723 87.5172C81.8268 87.5172 91.5859 75.6977 91.5859 61.1892C91.5859 46.6807 81.8268 34.8611 69.723 34.8611C57.6193 34.8611 47.8602 46.6807 47.8602 61.1892C47.8602 75.6977 57.6193 87.5172 69.723 87.5172Z" fill="#3AD68B" stroke="black" stroke-width="0.35"/>
<g opacity="0.8">
<mask id="mask1_3320_3764" style="mask-type:alpha" maskUnits="userSpaceOnUse" x="48" y="35" width="44" height="53">
<ellipse cx="69.6879" cy="61.153" rx="21.6879" ry="26.153" fill="url(#paint0_linear_3320_3764)"/>
</mask>
<g mask="url(#mask1_3320_3764)">
<line y1="-0.175" x2="55.0797" y2="-0.175" transform="matrix(0.997859 0.0654031 -0.0165799 0.999863 41.667 32.6499)" stroke="white" stroke-width="0.35"/>
<line y1="-0.175" x2="55.0797" y2="-0.175" transform="matrix(0.997859 0.0654031 -0.0165799 0.999863 41.667 47.959)" stroke="white" stroke-width="0.35"/>
<line y1="-0.175" x2="55.0797" y2="-0.175" transform="matrix(0.997859 0.0654031 -0.0165799 0.999863 41.667 63.2681)" stroke="white" stroke-width="0.35"/>
<line y1="-0.175" x2="55.0797" y2="-0.175" transform="matrix(0.997859 0.0654031 -0.0165799 0.999863 41.667 78.5771)" stroke="white" stroke-width="0.35"/>
<line y1="-0.175" x2="88.0516" y2="-0.175" transform="matrix(0.00354803 0.999994 -0.975806 -0.21864 85.9824 18.5581)" stroke="white" stroke-width="0.35"/>
<line y1="-0.175" x2="88.0516" y2="-0.175" transform="matrix(0.00354803 0.999994 -0.975806 -0.21864 70.8428 20.8296)" stroke="white" stroke-width="0.35"/>
<line y1="-0.175" x2="88.0516" y2="-0.175" transform="matrix(0.00354803 0.999994 -0.975806 -0.21864 55.7031 23.1016)" stroke="white" stroke-width="0.35"/>
</g>
</g>
<path d="M79.2295 52.764C79.7521 52.7915 80.2472 53.0496 80.5899 53.5299C81.2712 54.4905 81.085 55.98 80.1731 56.858L66.1012 70.3671C65.6442 70.8072 65.092 71.0061 64.5673 70.9785C63.9305 70.9447 63.4354 70.6908 63.0926 70.2084L57.3103 62.0797C56.6269 61.1191 56.8131 59.6296 57.7271 58.7537C58.1841 58.3158 58.7363 58.1126 59.2589 58.1401C59.7815 58.1677 60.2766 58.4258 60.6193 58.9061L65.2147 65.3676L77.6998 53.3797C78.1568 52.9417 78.709 52.7386 79.2316 52.7661L79.2295 52.764Z" fill="black" stroke="black" stroke-width="0.305949" stroke-miterlimit="10"/>
<path d="M129.548 43.355C131.986 48.6438 109.155 64.3906 78.5316 78.5267C47.9196 92.6629 21.1272 99.8453 18.6787 94.5564" stroke="black" stroke-width="0.35" stroke-linecap="round" stroke-linejoin="round"/>
<path d="M118.383 58.5909C119.807 58.5909 120.962 57.4361 120.962 56.0117C120.962 54.5873 119.807 53.4326 118.383 53.4326C116.958 53.4326 115.804 54.5873 115.804 56.0117C115.804 57.4361 116.958 58.5909 118.383 58.5909Z" fill="#25D27F"/>
<defs>
<linearGradient id="paint0_linear_3320_3764" x1="69.6879" y1="35" x2="69.6879" y2="87.3061" gradientUnits="userSpaceOnUse">
<stop stop-color="white"/>
<stop offset="1" stop-color="white" stop-opacity="0"/>
</linearGradient>
</defs>
</svg>
