<!-- Generated by IcoMoon.io -->
<svg version="1.1" xmlns="http://www.w3.org/2000/svg" width="32" height="32" viewBox="0 0 32 32">
<title>BGN</title>
<path d="M16 32c-8.834-0.003-15.994-7.165-15.994-16 0-1.373 0.173-2.706 0.498-3.977l-0.024 0.111c1.798-7.015 8.064-12.117 15.522-12.117 5.786 0 10.855 3.072 13.665 7.673l0.040 0.070c1.441 2.345 2.295 5.184 2.295 8.224 0 1.379-0.176 2.717-0.506 3.993l0.024-0.11c-1.792 7.021-8.059 12.131-15.52 12.133h-0zM16 0.8c-8.393 0.003-15.195 6.807-15.195 15.2 0 7.086 4.849 13.040 11.41 14.724l0.105 0.023c1.105 0.287 2.373 0.452 3.679 0.452 7.087 0 13.042-4.851 14.725-11.413l0.023-0.105c0.287-1.105 0.452-2.373 0.452-3.679 0-7.087-4.851-13.042-11.413-14.725l-0.105-0.023c-1.104-0.287-2.373-0.452-3.679-0.453h-0.001z"></path>
<path d="M13.333 21.333v-8.92h-3.2v3.133c0 4.587-1.347 5.787-3.467 5.787h-1.013v-1.92h0.347c0.933 0 2.053-0.213 2.053-4.4v-4.507h7.4v10.827z"></path>
<path d="M22.96 21.333h-5.333v-10.827h5.187c0.108-0.014 0.233-0.022 0.36-0.022 1.605 0 2.907 1.301 2.907 2.907 0 0.008-0 0.016-0 0.024v-0.001c0.001 0.030 0.002 0.065 0.002 0.1 0 1.009-0.623 1.873-1.506 2.228l-0.016 0.006c0.991 0.377 1.682 1.32 1.682 2.423 0 0.039-0.001 0.077-0.003 0.115l0-0.005c0.002 0.042 0.003 0.091 0.003 0.141 0 1.62-1.313 2.933-2.933 2.933-0.123 0-0.245-0.008-0.364-0.022l0.014 0.001zM22.32 12.227h-2.56v2.667h2.56c1.040 0 1.6-0.493 1.6-1.333s-0.573-1.333-1.6-1.333zM22.453 16.64h-2.667v2.987h2.667c0.060 0.009 0.129 0.013 0.2 0.013 0.832 0 1.507-0.675 1.507-1.507s-0.675-1.507-1.507-1.507c-0.071 0-0.14 0.005-0.208 0.014l0.008-0.001z"></path>
</svg>
