<!-- Generated by IcoMoon.io -->
<svg version="1.1" xmlns="http://www.w3.org/2000/svg" width="32" height="32" viewBox="0 0 32 32">
<title>BRL</title>
<path d="M16 32c-8.834-0.003-15.994-7.165-15.994-16 0-1.373 0.173-2.706 0.498-3.977l-0.024 0.111c1.798-7.015 8.064-12.117 15.522-12.117 5.786 0 10.855 3.072 13.665 7.673l0.040 0.070c1.441 2.345 2.295 5.184 2.295 8.224 0 1.379-0.176 2.717-0.506 3.993l0.024-0.11c-1.792 7.021-8.059 12.131-15.52 12.133h-0zM16 0.8c-8.393 0.003-15.195 6.807-15.195 15.2 0 7.086 4.849 13.040 11.41 14.724l0.105 0.023c1.105 0.287 2.373 0.452 3.679 0.452 7.087 0 13.042-4.851 14.725-11.413l0.023-0.105c0.287-1.105 0.452-2.373 0.452-3.679 0-7.087-4.851-13.042-11.413-14.725l-0.105-0.023c-1.104-0.287-2.373-0.452-3.679-0.453h-0.001z"></path>
<path d="M14.413 22.667l-2.8-5.6h-2.52v5.6h-2.027v-13.333h5.16c0.1-0.009 0.217-0.015 0.335-0.015 2.099 0 3.8 1.701 3.8 3.8 0 0.033-0 0.067-0.001 0.1l0-0.005c0.002 0.041 0.003 0.090 0.003 0.139 0 1.637-1.126 3.011-2.645 3.39l-0.024 0.005 3.067 5.92zM12.080 11.187h-2.987v4.16h2.987c0.071 0.008 0.153 0.013 0.236 0.013 1.156 0 2.093-0.937 2.093-2.093s-0.937-2.093-2.093-2.093c-0.083 0-0.165 0.005-0.246 0.014l0.010-0.001z"></path>
<path d="M22.587 22.667v2.133h-1.533v-2.027c-0.024 0-0.052 0.001-0.080 0.001-1.636 0-3.114-0.674-4.172-1.759l-0.001-0.001 1.333-1.333c0.779 0.813 1.869 1.321 3.078 1.333l0.002 0v-4.187h-0.48c-0.966-0.099-1.828-0.485-2.513-1.072l0.006 0.005c-0.612-0.603-0.992-1.44-0.992-2.367 0-0.063 0.002-0.126 0.005-0.189l-0 0.009c-0.001-0.024-0.001-0.052-0.001-0.080 0-2.099 1.701-3.8 3.8-3.8 0.005 0 0.010 0 0.015 0h-0.001v-1.72h1.533v1.72c1.387 0.038 2.636 0.601 3.562 1.495l-0.002-0.002-1.333 1.333c-0.646-0.589-1.495-0.966-2.431-1.013l-0.009-0v4l0.64 0.093c0.95 0.069 1.805 0.43 2.488 0.993l-0.008-0.006c0.668 0.635 1.083 1.531 1.083 2.523 0 0.051-0.001 0.101-0.003 0.151l0-0.007c0.093 2.2-1.573 3.6-3.987 3.773zM21.253 11c-0.012-0-0.027-0-0.041-0-1.112 0-2.013 0.901-2.013 2.013 0 0.024 0 0.047 0.001 0.070l-0-0.003c-0.001 0.019-0.001 0.041-0.001 0.063 0 0.459 0.195 0.873 0.507 1.163l0.001 0.001c0.411 0.338 0.929 0.561 1.496 0.613l0.011 0.001zM24.133 17.507c-0.424-0.332-0.959-0.54-1.542-0.56l-0.005-0h-0.133v4c1.333-0.133 2.2-0.84 2.2-2 0.002-0.029 0.003-0.064 0.003-0.098 0-0.513-0.216-0.975-0.562-1.301l-0.001-0.001z"></path>
</svg>
