<!-- Generated by IcoMoon.io -->
<svg version="1.1" xmlns="http://www.w3.org/2000/svg" width="32" height="32" viewBox="0 0 32 32">
<title>HKD</title>
<path d="M16 32c-1.333 0-2.667-0.133-3.867-0.533-8.533-2.133-13.733-10.8-11.6-19.333 0.933-4.133 3.6-7.6 7.2-9.867s8-2.8 12.133-1.867c4.133 1.067 7.6 3.6 9.867 7.333s2.8 8 1.867 12.133v0c-1.067 4.133-3.6 7.6-7.333 9.867-2.533 1.467-5.333 2.267-8.267 2.267zM16 0.8c-2.667 0-5.467 0.8-7.733 2.133-3.467 2.133-6 5.467-6.933 9.333-2 8.133 2.933 16.4 11.067 18.4 4 0.933 8 0.4 11.467-1.733s6-5.467 6.933-9.333v0c0.933-4 0.4-8-1.733-11.467s-5.467-6-9.333-6.933c-1.333-0.267-2.533-0.4-3.733-0.4z"></path>
<path d="M16.533 24v2.4h-1.733v-2.267c-2-0.133-3.467-0.667-4.8-2l1.6-1.467c1.067 1.067 2.133 1.333 3.467 1.467v-4.8h-0.533c-1.2-0.133-2.267-0.667-2.8-1.2-0.8-0.667-1.067-1.6-1.067-2.933 0-2.4 1.6-4.133 4.4-4.4v-2h1.733v1.867c1.733 0.133 2.933 0.667 4.133 1.733l-1.467 1.467c-0.8-0.667-1.733-1.067-2.8-1.2v4.667l0.667 0.133c1.467 0.267 2.133 0.533 2.8 1.067 0.8 0.667 1.2 1.867 1.2 3.067-0.133 2.667-2 4.267-4.8 4.4zM15.067 10.667c-1.467 0.133-2.267 1.067-2.267 2.267 0 0.533 0.133 1.067 0.533 1.467s1.067 0.667 1.733 0.667v-4.4zM18.267 18.133c-0.533-0.533-1.067-0.533-1.733-0.667h-0.133v4.533c1.6-0.133 2.533-0.933 2.533-2.267 0-0.667-0.267-1.2-0.667-1.6z"></path>
</svg>
