<!-- Generated by IcoMoon.io -->
<svg version="1.1" xmlns="http://www.w3.org/2000/svg" width="32" height="32" viewBox="0 0 32 32">
<title>HRK</title>
<path d="M16 32c-8.834-0.003-15.994-7.165-15.994-16 0-1.373 0.173-2.706 0.498-3.977l-0.024 0.111c1.798-7.015 8.064-12.117 15.522-12.117 5.786 0 10.855 3.072 13.665 7.673l0.040 0.070c1.441 2.345 2.295 5.184 2.295 8.224 0 1.379-0.176 2.717-0.506 3.993l0.024-0.11c-1.792 7.021-8.059 12.131-15.52 12.133h-0zM16 0.8c-8.393 0.003-15.195 6.807-15.195 15.2 0 7.086 4.849 13.040 11.41 14.724l0.105 0.023c1.105 0.287 2.373 0.452 3.679 0.452 7.087 0 13.042-4.851 14.725-11.413l0.023-0.105c0.287-1.105 0.452-2.373 0.452-3.679 0-7.087-4.851-13.042-11.413-14.725l-0.105-0.023c-1.104-0.287-2.373-0.452-3.679-0.453h-0.001z"></path>
<path d="M13.867 22.667l-3.027-5-1.6 1.813v3.187h-2.173v-15.2h2.173v9.333l4.2-5h2.667l-3.773 4.293 4.227 6.573z"></path>
<path d="M23.84 22.667v-6.6c0.014-0.093 0.023-0.2 0.023-0.309 0-1.163-0.943-2.107-2.107-2.107-0.031 0-0.063 0.001-0.094 0.002l0.004-0c-0.028-0.001-0.062-0.002-0.095-0.002-1.193 0-2.16 0.967-2.16 2.16 0 0.090 0.006 0.179 0.016 0.266l-0.001-0.010v6.6h-2.187v-10.827h2.133v1.093c0.707-0.748 1.706-1.214 2.813-1.214 0.023 0 0.047 0 0.070 0.001l-0.003-0c0.039-0.001 0.085-0.002 0.13-0.002 0.98 0 1.871 0.376 2.539 0.991l-0.003-0.002c0.684 0.716 1.104 1.689 1.104 2.759 0 0.103-0.004 0.206-0.012 0.307l0.001-0.014v6.907z"></path>
</svg>
