
<svg width="84px" height="84px" viewBox="0 0 84 84" version="1.1" xmlns="http://www.w3.org/2000/svg" xmlns:xlink="http://www.w3.org/1999/xlink">
    <!-- Generator: Sketch 59.1 (86144) - https://sketch.com -->
    <title>Rp</title>
        <path d="M42,2 C64.09139,2 82,19.90861 82,42 C82,64.09139 64.09139,82 42,82 C19.90861,82 2,64.09139 2,42 C2,19.90861 19.90861,2 42,2 Z M42,5 C21.5654643,5 5,21.5654643 5,42 C5,62.4345357 21.5654643,79 42,79 C62.4345357,79 79,62.4345357 79,42 C79,21.5654643 62.4345357,5 42,5 Z" id="Oval" fill="#FFFFFF" fill-rule="nonzero"></path>
        <path d="M23.776,38.984 L31.784,38.984 L39.428,55 L44.212,55 L36.048,38.516 C41.248,37.528 43.692,34.304 43.692,28.22 C43.692,24.84 42.86,22.448 41.04,20.576 C39.116,18.652 36.62,17.872 32.2,17.872 L19.46,17.872 L19.46,55 L23.776,55 L23.776,38.984 Z M23.724,35.396 L23.724,21.46 L31.784,21.46 C36.984,21.46 39.376,23.644 39.376,28.428 C39.376,33.16 37.088,35.396 32.252,35.396 L23.724,35.396 Z" id="R" fill="#FFFFFF" fill-rule="nonzero"></path>
        <path d="M48.628,67.7 L52.736,67.7 L52.736,54.076 C54.608,55.74 56.792,56.468 59.86,56.468 C66.62,56.468 69.688,52.828 69.688,44.924 L69.688,40.972 C69.688,33.016 66.62,29.376 59.86,29.376 C56.428,29.376 54.036,30.208 52.268,32.08 L51.852,29.896 L48.628,29.896 L48.628,67.7 Z M65.58,44.664 C65.58,50.332 63.5,53.036 59.236,53.036 C54.92,53.036 52.736,50.384 52.736,45.08 L52.736,40.816 C52.736,35.46 54.92,32.808 59.236,32.808 C63.5,32.808 65.58,35.512 65.58,41.232 L65.58,44.664 Z" id="p" fill="#FFFFFF" fill-rule="nonzero"></path>
</svg>
