<!-- Generated by IcoMoon.io -->
<svg version="1.1" xmlns="http://www.w3.org/2000/svg" width="32" height="32" viewBox="0 0 32 32">
<title>ILS</title>
<path d="M16 32c-8.834-0.003-15.994-7.165-15.994-16 0-1.373 0.173-2.706 0.498-3.977l-0.024 0.111c1.798-7.015 8.064-12.117 15.522-12.117 5.786 0 10.855 3.072 13.665 7.673l0.040 0.070c1.441 2.345 2.295 5.184 2.295 8.224 0 1.379-0.176 2.717-0.506 3.993l0.024-0.11c-1.792 7.021-8.059 12.131-15.52 12.133h-0zM16 0.8c-8.393 0.003-15.195 6.807-15.195 15.2 0 7.086 4.849 13.040 11.41 14.724l0.105 0.023c1.105 0.287 2.373 0.452 3.679 0.452 7.087 0 13.042-4.851 14.725-11.413l0.023-0.105c0.287-1.105 0.452-2.373 0.452-3.679 0-7.087-4.851-13.042-11.413-14.725l-0.105-0.023c-1.104-0.287-2.373-0.452-3.679-0.453h-0.001z"></path>
<path d="M10.92 12.507v10.16h-2.32v-12.467h5.973c0.222-0.026 0.478-0.041 0.738-0.041 1.274 0 2.465 0.357 3.477 0.978l-0.029-0.017c0.402 0.338 0.695 0.795 0.823 1.316l0.004 0.017c0.132 0.7 0.208 1.505 0.208 2.327 0 0.157-0.003 0.313-0.008 0.469l0.001-0.023v3.347h-2.32v-2.667c0.025-0.199 0.039-0.43 0.039-0.664 0-0.801-0.166-1.562-0.467-2.253l0.014 0.037q-0.413-0.467-2.547-0.467zM13.027 22.667v-8.36h2.307v6.040h3.6q2.133 0 2.547-0.453c0.279-0.65 0.44-1.407 0.44-2.201 0-0.239-0.015-0.475-0.043-0.707l0.003 0.028v-6.813h2.307v7.453c0.005 0.144 0.009 0.313 0.009 0.483 0 0.809-0.071 1.602-0.207 2.372l0.012-0.082c-0.13 0.537-0.417 0.993-0.81 1.331l-0.003 0.003c-0.988 0.594-2.181 0.946-3.456 0.946-0.257 0-0.511-0.014-0.761-0.042l0.031 0.003z"></path>
</svg>
