<!-- Generated by IcoMoon.io -->
<svg version="1.1" xmlns="http://www.w3.org/2000/svg" width="32" height="32" viewBox="0 0 32 32">
<title>IRR</title>
<path d="M16 32c-8.834-0.003-15.994-7.165-15.994-16 0-1.373 0.173-2.706 0.498-3.977l-0.024 0.111c1.798-7.015 8.064-12.117 15.522-12.117 5.786 0 10.855 3.072 13.665 7.673l0.040 0.070c1.441 2.345 2.295 5.184 2.295 8.224 0 1.379-0.176 2.717-0.506 3.993l0.024-0.11c-1.792 7.021-8.059 12.131-15.52 12.133h-0zM16 0.8c-8.393 0.003-15.195 6.807-15.195 15.2 0 7.086 4.849 13.040 11.41 14.724l0.105 0.023c1.105 0.287 2.373 0.452 3.679 0.452 7.087 0 13.042-4.851 14.725-11.413l0.023-0.105c0.287-1.105 0.452-2.373 0.452-3.679 0-7.087-4.851-13.042-11.413-14.725l-0.105-0.023c-1.104-0.287-2.373-0.452-3.679-0.453h-0.001z"></path>
<path d="M14.667 9.427l-0.52 1.4v8.493c-0.085 0.965-0.588 1.798-1.324 2.327l-0.010 0.007c-0.658 0.633-1.547 1.030-2.529 1.053l-0.005 0c-0.007 0-0.014 0-0.022 0-0.421 0-0.817-0.104-1.165-0.287l0.014 0.007c-0.366-0.191-0.672-0.446-0.915-0.754l-0.005-0.006c-0.255-0.33-0.455-0.716-0.58-1.135l-0.006-0.025c-0.127-0.421-0.201-0.905-0.201-1.406 0-0.026 0-0.052 0.001-0.078l-0 0.004c0.002-0.834 0.133-1.636 0.375-2.389l-0.015 0.056c0.103-0.269 0.215-0.497 0.345-0.714l-0.011 0.020c0.080-0.147 0.147-0.227 0.2-0.227s0 0.267 0 0.48 0 0.44-0.080 0.667 0 0.453-0.080 0.667 0 0.373 0 0.493c-0.008 0.086-0.013 0.185-0.013 0.286 0 0.825 0.314 1.577 0.829 2.143l-0.002-0.003c0.434 0.469 1.037 0.777 1.712 0.826l0.008 0c0.264-0.007 0.511-0.076 0.729-0.191l-0.009 0.004c0.275-0.133 0.511-0.289 0.725-0.471l-0.005 0.004c0.229-0.197 0.431-0.416 0.606-0.656l0.008-0.011c0.167-0.223 0.31-0.478 0.419-0.751l0.008-0.023v-9.16l-0.267-1.787 1.133-1.44 0.107 1.733zM21.333 17.707q0 1.467-0.333 1.453h-3.387c-0.034 0.002-0.074 0.002-0.114 0.002-0.362 0-0.708-0.069-1.025-0.196l0.019 0.007c-0.277-0.12-0.496-0.33-0.623-0.593l-0.003-0.007c-0.132-0.362-0.208-0.78-0.208-1.216 0-0.083 0.003-0.166 0.008-0.248l-0.001 0.011v-8.667l1.027-1.587v10.253q0 0.613 0.453 0.613h3.12s0.093-0.067 0.093-0.227c-0.009-0.175-0.038-0.339-0.084-0.495l0.004 0.015q-0.080-0.32-0.2-0.627c-0.079-0.213-0.164-0.393-0.263-0.565l0.009 0.018c-0.093-0.16-0.16-0.227-0.227-0.227l0.587-1.76q0.413 0.227 0.773 1.84c0.189 0.645 0.322 1.396 0.372 2.169l0.002 0.031zM17.213 25.827l0.48-1.24 1.333 1.053-0.533 1.213zM18.267 21.333v0zM24.64 18.267c0.001 0.041 0.002 0.089 0.002 0.137 0 1.356-0.506 2.594-1.34 3.535l0.005-0.006c-0.523 0.728-1.328 1.225-2.252 1.332l-0.015 0.001q-1.333 0-2.667-2.293c0.079 0.14 0.177 0.259 0.292 0.359l0.002 0.001c0.18 0.093 0.401 0.188 0.628 0.268l0.039 0.012c0.172 0.064 0.382 0.124 0.598 0.168l0.029 0.005c0.082 0.008 0.177 0.012 0.273 0.012s0.191-0.005 0.285-0.013l-0.012 0.001q2.187 0 3.44-2.947c0.047-0.127 0.077-0.273 0.080-0.425l0-0.002c-0.089-0.972-0.59-1.813-1.324-2.354l-0.009-0.006 0.627-1.587c0.235 0.187 0.435 0.408 0.594 0.656l0.006 0.011c0.175 0.268 0.332 0.576 0.455 0.9l0.011 0.034c0.119 0.309 0.221 0.677 0.288 1.056l0.006 0.037c0.009 0.129 0.015 0.28 0.015 0.432 0 0.256-0.015 0.509-0.044 0.758l0.003-0.030zM20.36 26.667l-1.333-1.067 0.507-1.133 1.333 1.013z"></path>
</svg>
