<!-- Generated by IcoMoon.io -->
<svg version="1.1" xmlns="http://www.w3.org/2000/svg" width="32" height="32" viewBox="0 0 32 32">
<title>JPY</title>
<path d="M16 32c-8.834-0.003-15.994-7.165-15.994-16 0-1.373 0.173-2.706 0.498-3.977l-0.024 0.111c1.798-7.015 8.064-12.117 15.522-12.117 5.786 0 10.855 3.072 13.665 7.673l0.040 0.070c1.441 2.345 2.295 5.184 2.295 8.224 0 1.379-0.176 2.717-0.506 3.993l0.024-0.11c-1.792 7.021-8.059 12.131-15.52 12.133h-0zM16 0.8c-8.393 0.003-15.195 6.807-15.195 15.2 0 7.086 4.849 13.040 11.41 14.724l0.105 0.023c1.105 0.287 2.373 0.452 3.679 0.452 7.087 0 13.042-4.851 14.725-11.413l0.023-0.105c0.287-1.105 0.452-2.373 0.452-3.679 0-7.087-4.851-13.042-11.413-14.725l-0.105-0.023c-1.104-0.287-2.373-0.452-3.679-0.453h-0.001z"></path>
<path d="M19.027 15h1.853v1.667h-2.667l-0.56 1.093v1.107h3.267v1.667h-3.293v3.467h-2.307v-3.48h-3.32v-1.667h3.267v-1.107l-0.56-1.093h-2.707v-1.653h1.853l-3.080-6.2h2.56l3.2 6.667 3.16-6.667h2.493z"></path>
</svg>
