<!-- Generated by IcoMoon.io -->
<svg version="1.1" xmlns="http://www.w3.org/2000/svg" width="32" height="32" viewBox="0 0 32 32">
<title>KRW</title>
<path d="M16 32c-8.834-0.003-15.994-7.165-15.994-16 0-1.373 0.173-2.706 0.498-3.977l-0.024 0.111c1.798-7.015 8.064-12.117 15.522-12.117 5.786 0 10.855 3.072 13.665 7.673l0.040 0.070c1.441 2.345 2.295 5.184 2.295 8.224 0 1.379-0.176 2.717-0.506 3.993l0.024-0.11c-1.792 7.021-8.059 12.131-15.52 12.133h-0zM16 0.8c-8.393 0.003-15.195 6.807-15.195 15.2 0 7.086 4.849 13.040 11.41 14.724l0.105 0.023c1.105 0.287 2.373 0.452 3.679 0.452 7.087 0 13.042-4.851 14.725-11.413l0.023-0.105c0.287-1.105 0.452-2.373 0.452-3.679 0-7.087-4.851-13.042-11.413-14.725l-0.105-0.023c-1.104-0.287-2.373-0.452-3.679-0.453h-0.001z"></path>
<path d="M20.387 24h-1.933l-1.6-8h-1.493l-1.84 8h-1.973l-1.013-8h-1.2v-1.16h1.067l-0.28-2.147h-0.787v-1.16h0.64l-0.387-2.947h1.987l0.427 2.947h2.893l0.68-2.947h1.76l0.613 2.947h2.893l0.44-2.947h1.533l-0.453 2.947h0.52v1.16h-0.747l-0.333 2.187h1.027v1.12h-1.213zM14.053 14.88l0.52-2.187h-2.48l0.267 2.187zM12.507 16l0.453 3.64 0.827-3.64zM16.64 14.84l-0.453-2.267-0.533 2.267zM18.12 12.653l0.44 2.187h1.707l0.333-2.187zM18.787 16l0.733 3.72 0.573-3.72z"></path>
</svg>
