<!-- Generated by IcoMoon.io -->
<svg version="1.1" xmlns="http://www.w3.org/2000/svg" width="32" height="32" viewBox="0 0 32 32">
<title>MYR</title>
<path d="M16 32c-8.834-0.003-15.994-7.165-15.994-16 0-1.373 0.173-2.706 0.498-3.977l-0.024 0.111c1.798-7.015 8.064-12.117 15.522-12.117 5.786 0 10.855 3.072 13.665 7.673l0.040 0.070c1.441 2.345 2.295 5.184 2.295 8.224 0 1.379-0.176 2.717-0.506 3.993l0.024-0.11c-1.792 7.021-8.059 12.131-15.52 12.133h-0zM16 0.8c-8.393 0.003-15.195 6.807-15.195 15.2 0 7.086 4.849 13.040 11.41 14.724l0.105 0.023c1.105 0.287 2.373 0.452 3.679 0.452 7.087 0 13.042-4.851 14.725-11.413l0.023-0.105c0.287-1.105 0.452-2.373 0.452-3.679 0-7.087-4.851-13.042-11.413-14.725l-0.105-0.023c-1.104-0.287-2.373-0.452-3.679-0.453h-0.001z"></path>
<path d="M13.080 22.667l-2.8-5.6h-2.52v5.6h-2.027v-13.333h5.16c0.1-0.009 0.217-0.015 0.335-0.015 2.099 0 3.8 1.701 3.8 3.8 0 0.033-0 0.067-0.001 0.1l0-0.005c0.002 0.041 0.003 0.090 0.003 0.139 0 1.637-1.126 3.011-2.645 3.39l-0.024 0.005 3.067 5.92zM10.747 11.187h-2.987v4.16h2.987c0.071 0.008 0.153 0.013 0.236 0.013 1.156 0 2.093-0.937 2.093-2.093s-0.937-2.093-2.093-2.093c-0.083 0-0.165 0.005-0.246 0.014l0.010-0.001z"></path>
<path d="M26.347 22.667v-8.893l-3.067 6.48h-1.493l-3.12-6.48v8.893h-2.027v-13.333h2.027l3.88 8.28 3.8-8.28h2.013v13.333z"></path>
</svg>
