<!-- Generated by IcoMoon.io -->
<svg version="1.1" xmlns="http://www.w3.org/2000/svg" width="32" height="32" viewBox="0 0 32 32">
<title>PLN</title>
<path d="M16 32c-8.834-0.003-15.994-7.165-15.994-16 0-1.373 0.173-2.706 0.498-3.977l-0.024 0.111c1.798-7.015 8.064-12.117 15.522-12.117 5.786 0 10.855 3.072 13.665 7.673l0.040 0.070c1.441 2.345 2.295 5.184 2.295 8.224 0 1.379-0.176 2.717-0.506 3.993l0.024-0.11c-1.792 7.021-8.059 12.131-15.52 12.133h-0zM16 0.8c-8.393 0.003-15.195 6.807-15.195 15.2 0 7.086 4.849 13.040 11.41 14.724l0.105 0.023c1.105 0.287 2.373 0.452 3.679 0.452 7.087 0 13.042-4.851 14.725-11.413l0.023-0.105c0.287-1.105 0.452-2.373 0.452-3.679 0-7.087-4.851-13.042-11.413-14.725l-0.105-0.023c-1.104-0.287-2.373-0.452-3.679-0.453h-0.001z"></path>
<path d="M7.587 22.667v-1.733l5.333-7.147h-5.040v-1.947h7.773v1.733l-5.427 7.147h5.427v1.947z"></path>
<path d="M21.6 22.667c-0.055 0.004-0.119 0.006-0.183 0.006-1.524 0-2.76-1.236-2.76-2.76 0-0.082 0.004-0.163 0.011-0.243l-0.001 0.010v-3.867l-1.253 0.773v-1.92l1.253-0.773v-6.427h2.173v5.173l1.493-0.92v1.84l-1.493 0.933v5.053c0 0.827 0.293 1.253 1.173 1.253h0.96v1.867z"></path>
</svg>
