<!-- Generated by IcoMoon.io -->
<svg version="1.1" xmlns="http://www.w3.org/2000/svg" width="32" height="32" viewBox="0 0 32 32">
<title>RUB</title>
<path d="M16 32c-8.834-0.004-15.994-7.166-15.994-16 0-1.372 0.173-2.704 0.498-3.975l-0.024 0.111c1.798-7.016 8.064-12.119 15.522-12.119 5.789 0 10.86 3.074 13.669 7.679l0.040 0.070c1.44 2.343 2.293 5.182 2.293 8.22 0 1.382-0.177 2.723-0.509 4.001l0.024-0.11c-1.796 7.017-8.062 12.122-15.52 12.123h-0zM16 0.8c-0.030-0-0.065-0-0.101-0-8.395 0-15.2 6.805-15.2 15.2 0 7.12 4.895 13.096 11.504 14.747l0.105 0.022c1.116 0.294 2.398 0.462 3.719 0.462 7.092 0 13.049-4.862 14.72-11.434l0.023-0.105c0.294-1.116 0.462-2.398 0.462-3.719 0-7.092-4.862-13.049-11.434-14.72l-0.105-0.023c-1.082-0.274-2.324-0.431-3.603-0.431-0.031 0-0.063 0-0.094 0l0.005-0z"></path>
<path d="M14.769 24v-3.077h3.495v-1.415h-3.495v-2.178h2.191c0.019 0 0.041 0 0.063 0 0.678 0 1.335-0.094 1.957-0.271l-0.050 0.012c0.608-0.167 1.138-0.438 1.598-0.795l-0.010 0.008c0.444-0.355 0.802-0.799 1.049-1.307l0.010-0.022c0.249-0.526 0.395-1.143 0.395-1.793 0-0.032-0-0.063-0.001-0.094l0 0.005c0.001-0.031 0.001-0.068 0.001-0.105 0-0.635-0.136-1.237-0.382-1.78l0.011 0.027c-0.25-0.493-0.595-0.905-1.013-1.225l-0.009-0.006c-0.442-0.342-0.965-0.605-1.533-0.756l-0.030-0.007c-0.578-0.157-1.241-0.247-1.925-0.247-0.033 0-0.066 0-0.099 0.001l0.005-0h-3.988v6.917h-1.538v1.514h1.538v2.191h-1.538v1.329h1.538v3.077zM16.997 15.803h-2.228v-5.391h2.228c0.043-0.002 0.093-0.003 0.144-0.003 0.814 0 1.57 0.249 2.196 0.676l-0.013-0.009c0.532 0.432 0.87 1.087 0.87 1.82 0 0.070-0.003 0.139-0.009 0.207l0.001-0.009c0.005 0.057 0.007 0.124 0.007 0.191 0 0.751-0.336 1.423-0.866 1.874l-0.003 0.003c-0.595 0.427-1.337 0.683-2.139 0.683-0.074 0-0.148-0.002-0.221-0.007l0.010 0z"></path>
<path d="M14.769 24v-3.077h3.495v-1.415h-3.495v-2.178h2.191c0.019 0 0.041 0 0.063 0 0.678 0 1.335-0.094 1.957-0.271l-0.050 0.012c0.608-0.167 1.138-0.438 1.598-0.795l-0.010 0.008c0.444-0.355 0.802-0.799 1.049-1.307l0.010-0.022c0.249-0.526 0.395-1.143 0.395-1.793 0-0.032-0-0.063-0.001-0.094l0 0.005c0.001-0.031 0.001-0.068 0.001-0.105 0-0.635-0.136-1.237-0.382-1.78l0.011 0.027c-0.25-0.493-0.595-0.905-1.013-1.225l-0.009-0.006c-0.442-0.342-0.965-0.605-1.533-0.756l-0.030-0.007c-0.578-0.157-1.241-0.247-1.925-0.247-0.033 0-0.066 0-0.099 0.001l0.005-0h-3.988v6.917h-1.538v1.514h1.538v2.191h-1.538v1.329h1.538v3.077zM16.997 15.803h-2.228v-5.391h2.228c0.043-0.002 0.093-0.003 0.144-0.003 0.814 0 1.57 0.249 2.196 0.676l-0.013-0.009c0.532 0.432 0.87 1.087 0.87 1.82 0 0.070-0.003 0.139-0.009 0.207l0.001-0.009c0.005 0.057 0.007 0.124 0.007 0.191 0 0.751-0.336 1.423-0.866 1.874l-0.003 0.003c-0.595 0.427-1.337 0.683-2.139 0.683-0.074 0-0.148-0.002-0.221-0.007l0.010 0z"></path>
</svg>
