<?xml version="1.0" standalone="no"?><!DOCTYPE svg PUBLIC "-//W3C//DTD SVG 1.1//EN" "http://www.w3.org/Graphics/SVG/1.1/DTD/svg11.dtd"><svg class="icon" width="200px" height="200.00px" viewBox="0 0 1024 1024" version="1.1" xmlns="http://www.w3.org/2000/svg"><path d="M635.818667 15.36c274.261333 68.437333 441.258667 346.197333 372.821333 620.544-68.352 274.261333-346.197333 441.173333-620.544 372.736C113.749333 940.202667-53.077333 662.442667 15.36 388.181333 83.797333 113.877333 361.514667-53.12 635.818667 15.36z m-10.325334 41.386667C374.101333-5.973333 119.466667 147.029333 56.746667 398.506667c-62.72 251.434667 90.197333 505.984 341.674666 568.746666 251.477333 62.72 506.154667-90.282667 568.832-341.674666C1029.973333 374.144 876.928 119.466667 625.493333 56.746667zM779.946667 681.770667c25.6 0 51.413333-18.389333 77.354666-55.168 19.2-27.52 28.757333-62.250667 28.757334-104.192 0-8.832-0.682667-18.688-2.048-29.482667a86.4 86.4 0 0 0-24.362667-51.114667c-6.314667-6.4-13.397333-13.525333-21.248-21.205333l-26.24 55.552c31.018667 27.221333 46.634667 48.64 46.890667 64.213333 0 7.082667-9.301333 22.229333-27.861334 45.525334-18.602667 23.253333-40.746667 35.541333-66.474666 36.821333a129.621333 129.621333 0 0 1-18.773334-0.853333 87.850667 87.850667 0 0 1-15.914666-3.584c-5.162667-1.664-10.453333-3.84-15.914667-6.528-5.461333-2.730667-11.733333-5.973333-18.816-9.813334l-10.410667-6.4c6.656 19.541333 19.370667 38.826667 38.101334 57.770667 18.688 18.944 37.674667 28.458667 56.96 28.458667z m-152.746667-119.594667c17.365333 0 26.026667-8.746667 26.026667-26.24a25.941333 25.941333 0 0 0-6.912-18.432 23.466667 23.466667 0 0 0-17.92-7.424c-18.176 0-27.221333 8.832-27.221334 26.453333 0 7.68 2.389333 13.909333 7.253334 18.602667 4.778667 4.693333 11.093333 7.04 18.773333 7.04z m-415.488 99.541333c40.533333-0.426667 83.328-15.573333 128.469333-45.525333 12.842667-9.642667 21.333333-27.648 25.472-54.016 22.229333 0 36.650667-1.493333 43.178667-4.437333 14.933333-5.546667 25.813333-11.093333 32.597333-16.810667 9.813333 4.394667 22.058667 8.96 36.864 13.824 14.805333 4.821333 34.389333 7.808 58.837334 8.96 7.210667 0 14.037333-0.426667 20.522666-1.28 6.485333-0.810667 10.922667-3.114667 13.226667-6.826667 3.456-6.698667 5.12-31.36 4.992-74.069333 0.128-27.52-2.858667-50.602667-9.045333-69.248l-38.4 38.954667c6.442667 10.410667 10.88 25.6 13.312 45.525333 0 2.432-1.621333 4.949333-4.906667 7.552-3.285333 2.56-9.301333 4.096-18.048 4.608-22.357333 0-41.728-6.613333-58.026667-19.882667 7.168-15.274667 11.477333-27.392 12.8-36.352 1.365333-8.96 2.048-16.64 2.048-23.253333a39.253333 39.253333 0 0 0-1.365333-9.813333l-40.106667 42.24c1.152 2.048 1.664 7.082667 1.536 15.061333-0.64 9.386667-2.389333 15.616-5.205333 18.688-3.242667 3.584-8.704 5.418667-16.384 5.418667H368.170667c-2.090667-36.266667-10.666667-64.170667-25.685334-83.712l-32.768 48.768c3.328 4.010667 7.68 12.885333 13.098667 26.624 5.418667 13.781333 9.045333 25.856 10.922667 36.266666 1.834667 10.410667 2.773333 18.602667 2.773333 24.490667 0 6.570667-0.512 12.416-1.536 17.578667-1.408 3.2-9.642667 7.850667-24.704 13.866666-36.906667 13.909333-68.096 20.821333-93.525333 20.821334-24.192 0-41.642667-6.016-52.394667-18.090667-10.709333-12.117333-15.957333-27.776-15.701333-47.104-0.256-13.610667 4.48-32.426667 14.165333-56.405333 9.728-23.978667 16.426667-39.296 20.181333-45.994667-5.546667 1.792-12.970667 9.045333-22.314666 21.674667-9.301333 12.672-17.024 28.245333-23.125334 46.72a190.122667 190.122667 0 0 0-9.173333 60.074666c0 19.541333 1.450667 35.413333 4.352 47.744 2.901333 12.245333 7.637333 21.930667 14.165333 29.013334 6.570667 7.082667 15.146667 11.904 25.770667 14.506666 10.581333 2.56 23.637333 3.84 39.04 3.84z" /></svg>