<!-- Generated by IcoMoon.io -->
<svg version="1.1" xmlns="http://www.w3.org/2000/svg" width="32" height="32" viewBox="0 0 32 32">
<title>THB</title>
<path d="M16 32c-8.834-0.003-15.994-7.165-15.994-16 0-1.373 0.173-2.706 0.498-3.977l-0.024 0.111c1.798-7.015 8.064-12.117 15.522-12.117 5.786 0 10.855 3.072 13.665 7.673l0.040 0.070c1.441 2.345 2.295 5.184 2.295 8.224 0 1.379-0.176 2.717-0.506 3.993l0.024-0.11c-1.792 7.021-8.059 12.131-15.52 12.133h-0zM16 0.8c-8.393 0.003-15.195 6.807-15.195 15.2 0 7.086 4.849 13.040 11.41 14.724l0.105 0.023c1.105 0.287 2.373 0.452 3.679 0.452 7.087 0 13.042-4.851 14.725-11.413l0.023-0.105c0.287-1.105 0.452-2.373 0.452-3.679 0-7.087-4.851-13.042-11.413-14.725l-0.105-0.023c-1.104-0.287-2.373-0.452-3.679-0.453h-0.001z"></path>
<path d="M15.92 24v2.667h-1.333v-2.667h-3.8v-16.16h3.747v-3.107h1.333v3.147c0.072-0.003 0.156-0.004 0.24-0.004 0.924 0 1.804 0.188 2.603 0.527l-0.044-0.016c0.522 0.259 0.931 0.681 1.167 1.198l0.006 0.015c0.267 0.503 0.425 1.1 0.427 1.733v0.001c0.001 0.035 0.002 0.076 0.002 0.117 0 1.252-0.557 2.374-1.436 3.132l-0.005 0.005c-0.391 0.337-0.827 0.642-1.294 0.9l-0.040 0.020c1.155 0.265 2.126 0.919 2.791 1.814l0.009 0.013c0.379 0.577 0.604 1.284 0.604 2.044 0 0.060-0.001 0.119-0.004 0.178l0-0.008c0 0.014 0 0.030 0 0.047 0 0.8-0.208 1.551-0.572 2.203l0.012-0.023c-0.362 0.662-0.883 1.196-1.514 1.563l-0.019 0.010c-0.763 0.415-1.67 0.659-2.635 0.659-0.086 0-0.172-0.002-0.257-0.006l0.012 0zM14.587 9.467h-1.853v5.333h1.813zM12.733 16.467v5.907h1.813v-5.907zM15.92 14.747c0.428-0.083 0.808-0.236 1.147-0.448l-0.014 0.008c0.423-0.282 0.75-0.677 0.941-1.143l0.006-0.017c0.23-0.438 0.371-0.954 0.387-1.502l0-0.005c0-0.010 0-0.022 0-0.034 0-0.61-0.273-1.157-0.704-1.523l-0.003-0.002c-0.473-0.382-1.082-0.613-1.744-0.613-0.006 0-0.011 0-0.017 0h0.001zM15.92 16.533v5.84c0.021 0 0.047 0.001 0.072 0.001 0.451 0 0.885-0.073 1.29-0.209l-0.029 0.008c0.364-0.129 0.675-0.324 0.934-0.574l-0.001 0.001c0.446-0.476 0.72-1.117 0.72-1.823 0-0.015-0-0.031-0-0.046l0 0.002c0-0.004 0-0.010 0-0.015 0-0.581-0.164-1.124-0.448-1.585l0.008 0.013c-0.329-0.49-0.782-0.874-1.314-1.112l-0.020-0.008c-0.348-0.191-0.751-0.355-1.174-0.471l-0.040-0.009z"></path>
</svg>
