<!-- Generated by IcoMoon.io -->
<svg version="1.1" xmlns="http://www.w3.org/2000/svg" width="32" height="32" viewBox="0 0 32 32">
<title>TRY</title>
<path d="M16 32c-8.834-0.003-15.994-7.165-15.994-16 0-1.373 0.173-2.706 0.498-3.977l-0.024 0.111c1.798-7.015 8.064-12.117 15.522-12.117 5.786 0 10.855 3.072 13.665 7.673l0.040 0.070c1.441 2.345 2.295 5.184 2.295 8.224 0 1.379-0.176 2.717-0.506 3.993l0.024-0.11c-1.792 7.021-8.059 12.131-15.52 12.133h-0zM16 0.8c-8.393 0.003-15.195 6.807-15.195 15.2 0 7.086 4.849 13.040 11.41 14.724l0.105 0.023c1.105 0.287 2.373 0.452 3.679 0.452 7.087 0 13.042-4.851 14.725-11.413l0.023-0.105c0.287-1.105 0.452-2.373 0.452-3.679 0-7.087-4.851-13.042-11.413-14.725l-0.105-0.023c-1.104-0.287-2.373-0.452-3.679-0.453h-0.001z"></path>
<path d="M20.547 8.507v1.733c-0.736-0.311-1.592-0.496-2.489-0.507l-0.004-0c-0.037-0.003-0.081-0.005-0.125-0.005-0.525 0-0.996 0.233-1.313 0.602l-0.002 0.002c-0.305 0.446-0.488 0.997-0.488 1.591 0 0.073 0.003 0.146 0.008 0.218l-0.001-0.010v1.48h2.267v1.333h-2.253v1.787h2.253v1.333h-2.253v0.173c0 0.026 0.001 0.057 0.001 0.088 0 0.793-0.167 1.546-0.468 2.228l0.014-0.035c-0.318 0.699-0.769 1.287-1.326 1.754l-0.008 0.006h6.36v1.72h-8.813v-1.8c0.682-0.191 1.249-0.602 1.634-1.151l0.006-0.009c0.345-0.559 0.55-1.236 0.55-1.962 0-0.056-0.001-0.111-0.004-0.166l0 0.008v-0.92h-2.093v-1.333h2.067v-1.76h-2.067v-1.333h2.067v-0.813c-0.008-0.103-0.012-0.224-0.012-0.345 0-1.172 0.412-2.248 1.099-3.090l-0.007 0.009c0.706-0.729 1.694-1.182 2.788-1.182 0.089 0 0.177 0.003 0.264 0.009l-0.012-0.001c0.849 0.023 1.659 0.148 2.431 0.363l-0.071-0.017z"></path>
</svg>
