<!-- Generated by IcoMoon.io -->
<svg version="1.1" xmlns="http://www.w3.org/2000/svg" width="32" height="32" viewBox="0 0 32 32">
<title>UAH</title>
<path d="M16 32c-8.834-0.003-15.994-7.165-15.994-16 0-1.373 0.173-2.706 0.498-3.977l-0.024 0.111c1.798-7.015 8.064-12.117 15.522-12.117 5.786 0 10.855 3.072 13.665 7.673l0.040 0.070c1.441 2.345 2.295 5.184 2.295 8.224 0 1.379-0.176 2.717-0.506 3.993l0.024-0.11c-1.792 7.021-8.059 12.131-15.52 12.133h-0zM16 0.8c-8.393 0.003-15.195 6.807-15.195 15.2 0 7.086 4.849 13.040 11.41 14.724l0.105 0.023c1.105 0.287 2.373 0.452 3.679 0.452 7.087 0 13.042-4.851 14.725-11.413l0.023-0.105c0.287-1.105 0.452-2.373 0.452-3.679 0-7.087-4.851-13.042-11.413-14.725l-0.105-0.023c-1.104-0.287-2.373-0.452-3.679-0.453h-0.001z"></path>
<path d="M22.667 14.013v1.427h-1.64c-0.14 0.23-0.303 0.427-0.491 0.598l-0.002 0.002c-0.78 0.666-1.77 1.106-2.859 1.212l-0.021 0.002h5.013v1.413h-8.867c-0.119 0.286-0.187 0.618-0.187 0.967 0 0.021 0 0.042 0.001 0.063l-0-0.003c0 1.467 1.147 2.32 3.133 2.32 0.101 0.007 0.219 0.011 0.339 0.011 1.383 0 2.634-0.56 3.541-1.465l-0 0 1.533 1.52c-1.245 1.245-2.965 2.016-4.866 2.016-0.165 0-0.328-0.006-0.489-0.017l0.022 0.001c-3.187 0-5.467-1.667-5.467-4.453-0.011-0.144-0.017-0.311-0.017-0.48s0.006-0.336 0.018-0.502l-0.001 0.022h-1.107v-1.333h1.747c0.175-0.275 0.378-0.512 0.61-0.717l0.004-0.003c0.725-0.608 1.641-1.010 2.647-1.105l0.019-0.001h-5.027v-1.493h8.92c0.151-0.275 0.24-0.602 0.24-0.95 0-0.004 0-0.007-0-0.011v0.001c0-1.333-0.987-2.373-2.773-2.373-0.085-0.006-0.184-0.009-0.285-0.009-1.168 0-2.231 0.45-3.025 1.185l0.003-0.003-1.48-1.453c1.134-1.079 2.671-1.743 4.364-1.743 0.125 0 0.25 0.004 0.373 0.011l-0.017-0.001c3.16 0 5.080 1.813 5.080 4.453 0.011 0.132 0.017 0.285 0.017 0.44s-0.006 0.308-0.019 0.46l0.001-0.020z"></path>
</svg>
