<!-- Generated by IcoMoon.io -->
<svg version="1.1" xmlns="http://www.w3.org/2000/svg" width="32" height="32" viewBox="0 0 32 32">
<title>ZAR</title>
<path d="M16 32c-8.834-0.003-15.994-7.165-15.994-16 0-1.373 0.173-2.706 0.498-3.977l-0.024 0.111c1.798-7.015 8.064-12.117 15.522-12.117 5.786 0 10.855 3.072 13.665 7.673l0.040 0.070c1.441 2.345 2.295 5.184 2.295 8.224 0 1.379-0.176 2.717-0.506 3.993l0.024-0.11c-1.792 7.021-8.059 12.131-15.52 12.133h-0zM16 0.8c-8.393 0.003-15.195 6.807-15.195 15.2 0 7.086 4.849 13.040 11.41 14.724l0.105 0.023c1.105 0.287 2.373 0.452 3.679 0.452 7.087 0 13.042-4.851 14.725-11.413l0.023-0.105c0.287-1.105 0.452-2.373 0.452-3.679 0-7.087-4.851-13.042-11.413-14.725l-0.105-0.023c-1.104-0.287-2.373-0.452-3.679-0.453h-0.001z"></path>
<path d="M19.707 24l-3.2-6.4h-2.88v6.4h-2.307v-15.2h5.893c0.112-0.010 0.243-0.016 0.375-0.016 2.401 0 4.347 1.946 4.347 4.347 0 0.039-0 0.077-0.002 0.115l0-0.006c0.001 0.036 0.002 0.078 0.002 0.12 0 1.864-1.275 3.43-3.001 3.874l-0.028 0.006 3.493 6.667zM17.040 10.88h-3.413v4.76h3.413c0.085 0.011 0.182 0.017 0.282 0.017 1.274 0 2.307-1.033 2.307-2.307 0-0.030-0.001-0.059-0.002-0.088l0 0.004c0.001-0.020 0.001-0.044 0.001-0.067 0-1.289-1.045-2.333-2.333-2.333-0.090 0-0.178 0.005-0.265 0.015l0.011-0.001z"></path>
</svg>
