<svg width="24" height="24" viewBox="0 0 24 24" fill="none" xmlns="http://www.w3.org/2000/svg">
<path d="M8.64154 14.2982C8.34865 14.591 8.34865 15.0659 8.64154 15.3588C8.93444 15.6517 9.40931 15.6517 9.70221 15.3588L12.0003 13.0607L14.2984 15.3588C14.5913 15.6517 15.0662 15.6517 15.3591 15.3588C15.652 15.0659 15.652 14.591 15.3591 14.2982L13.061 12.0001L15.3591 9.70196C15.652 9.40907 15.652 8.93419 15.3591 8.6413C15.0662 8.34841 14.5913 8.34841 14.2984 8.6413L12.0003 10.9394L9.70221 8.6413C9.40932 8.34841 8.93445 8.34841 8.64155 8.6413C8.34866 8.93419 8.34866 9.40907 8.64155 9.70196L10.9396 12.0001L8.64154 14.2982Z" fill="#8C8C8C" fill-opacity="0.6"/>
<path fill-rule="evenodd" clip-rule="evenodd" d="M12 21.5C17.2467 21.5 21.5 17.2467 21.5 12C21.5 6.75329 17.2467 2.5 12 2.5C6.75329 2.5 2.5 6.75329 2.5 12C2.5 17.2467 6.75329 21.5 12 21.5ZM12 23C18.0751 23 23 18.0751 23 12C23 5.92487 18.0751 1 12 1C5.92487 1 1 5.92487 1 12C1 18.0751 5.92487 23 12 23Z" fill="#8C8C8C" fill-opacity="0.2"/>
</svg>
