<svg width="136" height="112" viewBox="0 0 136 112" fill="none" xmlns="http://www.w3.org/2000/svg">
<path d="M68.3886 101.213C86.1258 101.213 100.505 86.8342 100.505 69.097C100.505 51.3598 86.1258 36.981 68.3886 36.981C50.6514 36.981 36.2726 51.3598 36.2726 69.097C36.2726 86.8342 50.6514 101.213 68.3886 101.213Z" fill="white" stroke="#1D1D1D" stroke-width="0.4" stroke-linecap="round" stroke-linejoin="round"/>
<g opacity="0.3">
<path d="M68.3886 55.8183C77.81 55.8183 85.4476 51.5999 85.4476 46.3963C85.4476 41.1926 77.81 36.9743 68.3886 36.9743C58.9672 36.9743 51.3296 41.1926 51.3296 46.3963C51.3296 51.5999 58.9672 55.8183 68.3886 55.8183Z" stroke="#1D1D1D" stroke-width="0.4"/>
<path d="M96.1365 52.9061C96.5565 53.9841 96.7805 55.0971 96.7805 56.2451C96.7805 64.9041 84.0685 71.9251 68.3885 71.9251C52.7085 71.9251 39.9965 64.9041 39.9965 56.2451C39.9965 55.1601 40.1925 54.1031 40.5705 53.0881" stroke="#1D1D1D" stroke-width="0.4"/>
<path d="M100.358 72.2122C98.1876 80.8922 84.7056 87.5772 68.3886 87.5772C52.0716 87.5772 38.5896 80.8922 36.4196 72.2122" stroke="#1D1D1D" stroke-width="0.4"/>
<path d="M89.6334 93.1843C84.2924 96.2853 76.7464 98.2103 68.3884 98.2103C60.0304 98.2103 52.4844 96.2783 47.1434 93.1773" stroke="#1D1D1D" stroke-width="0.4"/>
<path d="M37.0775 76.2653C37.0775 76.2653 35.4885 58.4433 51.9245 48.8603C51.9245 48.8603 64.6505 40.1593 83.1655 40.5653" stroke="#1D1D1D" stroke-width="0.4"/>
<path d="M99.7135 76.2653C99.7135 76.2653 101.302 58.4433 84.8665 48.8603C84.8665 48.8603 72.1405 40.1593 53.6255 40.5653" stroke="#1D1D1D" stroke-width="0.4"/>
<path d="M68.8715 42.2662C68.8715 42.2662 86.4275 40.9642 94.8695 50.9182" stroke="#1D1D1D" stroke-width="0.4"/>
<path d="M67.8985 42.2662C67.8985 42.2662 50.3425 40.9642 41.9005 50.9182" stroke="#1D1D1D" stroke-width="0.4"/>
<path d="M71.5805 36.9811C71.5805 36.9811 62.1305 51.8491 61.0455 77.5111C61.0455 77.5111 59.6805 94.8151 62.7535 100.723" stroke="#1D1D1D" stroke-width="0.4"/>
<path d="M65.7075 36.9811C65.7075 36.9811 75.1575 51.8491 76.2425 77.5111C76.2425 77.5111 77.6075 94.8151 74.5345 100.723" stroke="#1D1D1D" stroke-width="0.4"/>
<path d="M55.8516 39.5223C55.8516 39.5223 72.9386 37.8213 85.0416 60.6273C85.0416 60.6273 97.8026 81.6693 86.3996 95.6973" stroke="#1D1D1D" stroke-width="0.4"/>
<path d="M81.3736 39.7954C81.3736 39.7954 64.2866 38.0944 52.1836 60.9004C52.1836 60.9004 39.4226 81.9424 50.8256 95.9704" stroke="#1D1D1D" stroke-width="0.4"/>
</g>
<path d="M90.3405 45.6539C93.3295 48.4539 95.7865 51.8279 97.5365 55.5869C101.015 58.6389 103.038 62.2859 103.038 66.2129C103.038 69.0339 101.988 71.7079 100.112 74.1299C94.8484 80.8989 83.0325 85.6169 69.3055 85.6169C53.0795 85.6169 39.5275 79.0229 36.3005 70.2449C35.8245 68.9429 35.5725 67.5989 35.5725 66.2129C35.5725 63.7489 36.3705 61.3969 37.8265 59.2269C39.3805 54.4039 42.0405 50.0849 45.5125 46.5569C32.6395 51.1419 24.0645 59.3459 24.0645 68.6909C24.0645 78.0359 32.1425 85.7499 44.3785 90.4119C51.5255 93.1349 60.0935 94.7169 69.3055 94.7169C77.3835 94.7169 84.9645 93.4989 91.5305 91.3639C105.271 86.8979 114.553 78.4209 114.553 68.6909C114.553 58.9609 104.739 50.0009 90.3475 45.6469L90.3405 45.6539Z" fill="white" stroke="#1D1D1D" stroke-width="0.4" stroke-linecap="round" stroke-linejoin="round"/>
<path opacity="0.1" d="M90.3405 45.6539C93.3295 48.4539 95.7865 51.8279 97.5365 55.5869C101.015 58.6389 103.038 62.2859 103.038 66.2129C103.038 69.0339 101.988 71.7079 100.112 74.1299C94.8484 80.8989 83.0325 85.6169 69.3055 85.6169C53.0795 85.6169 39.5275 79.0229 36.3005 70.2449C35.8245 68.9429 35.5725 67.5989 35.5725 66.2129C35.5725 63.7489 36.3705 61.3969 37.8265 59.2269C39.3805 54.4039 42.0405 50.0849 45.5125 46.5569C32.6395 51.1419 24.0645 59.3459 24.0645 68.6909C24.0645 78.0359 32.1425 85.7499 44.3785 90.4119C51.5255 93.1349 60.0935 94.7169 69.3055 94.7169C77.3835 94.7169 84.9645 93.4989 91.5305 91.3639C105.271 86.8979 114.553 78.4209 114.553 68.6909C114.553 58.9609 104.739 50.0009 90.3475 45.6469L90.3405 45.6539Z" fill="#F65454"/>
<path d="M72.018 50.9713L52.8537 41.2726C50.5559 40.1076 49.795 37.1961 51.2367 35.056L60.2847 21.6357C61.7137 19.5175 64.899 19.7492 65.9997 22.0498L77.372 45.7268C79.0064 49.1367 75.3885 52.6782 72.018 50.9713Z" fill="white" stroke="#1D1D1D" stroke-width="0.4" stroke-linecap="round" stroke-linejoin="round"/>
<path d="M82.702 42.9158L71.3296 19.2388C70.95 18.4563 70.3328 17.9065 69.6268 17.6149C68.6761 17.2266 67.5917 17.3799 66.7138 17.9129L61.9018 20.3752C63.4041 19.8445 65.2161 20.4304 66.0002 22.0568L77.3726 45.7338C78.2377 47.5304 77.6392 49.3642 76.3826 50.4474L81.2841 47.9583C82.8189 46.9485 83.6639 44.9096 82.702 42.9158Z" fill="white" stroke="#1D1D1D" stroke-width="0.4" stroke-linecap="round" stroke-linejoin="round"/>
<path d="M64.1187 39.404L63.927 39.3672C62.964 39.2252 62.2385 40.0571 62.3129 41.2237C62.3882 42.4043 63.2354 43.4795 64.1988 43.6285C65.1697 43.784 65.8957 42.9591 65.8226 41.8135C65.8162 41.2738 65.6339 40.7243 65.3106 40.2749C64.9864 39.8116 64.5673 39.5087 64.1122 39.4115L64.1187 39.404Z" fill="#F65454"/>
<path d="M62.5424 36.3562C62.6246 36.7648 62.8303 37.1304 63.121 37.3995C63.3448 37.6097 63.5843 37.7347 63.8393 37.7745L64.0642 37.7812C64.5602 37.7496 64.9265 37.3334 64.9833 36.6845L65.0225 28.8321C64.9476 27.6584 64.1004 26.5832 63.1291 26.4207C62.6483 26.3602 62.2175 26.535 61.9185 26.9047C61.619 27.2676 61.4773 27.7956 61.5208 28.368L62.5458 36.2999L62.5494 36.3558L62.5424 36.3562Z" fill="#F65454"/>
<path d="M32.6605 78.8974C24.9605 72.7304 20.6275 62.8254 25.8005 53.6414C27.3055 50.8974 29.4265 48.5664 31.7855 46.5924C29.5455 48.6994 27.5855 51.1354 26.2835 53.8864C21.9015 62.8534 26.3885 71.7994 33.9835 77.1964C35.1455 78.0784 33.8015 79.8144 32.6605 78.8974Z" fill="#F65454"/>
<path d="M106.931 78.0996C96.3115 86.2756 82.4165 88.9216 69.3055 88.6696C79.0985 88.3476 88.9055 86.3456 97.5995 81.8306C100.463 80.3326 103.165 78.5476 105.552 76.4406C106.658 75.5026 108.058 77.1686 106.931 78.0996Z" fill="#F65454"/>
<path d="M86.3716 35.5742C98.7686 38.9832 114.351 47.0542 114.547 61.6842C114.099 51.1282 104.481 44.1002 95.4436 40.5512C92.3356 39.3192 89.1226 38.3742 85.8606 37.6672C84.4536 37.3382 84.9576 35.2172 86.3716 35.5742Z" fill="#F65454"/>
<path d="M88.5859 68.0809C88.9966 67.8489 89.0951 67.246 88.806 66.7344C88.5169 66.2228 87.9497 65.9962 87.539 66.2282C87.1284 66.4603 87.0299 67.0631 87.319 67.5747C87.6081 68.0863 88.1753 68.3129 88.5859 68.0809Z" fill="#F65454"/>
<path opacity="0.5" d="M89.1404 69.0621C89.9852 68.5847 90.1875 67.3436 89.5922 66.2902C88.9969 65.2367 87.8294 64.7696 86.9846 65.247C86.1398 65.7244 85.9375 66.9654 86.5329 68.0189C87.1282 69.0724 88.2956 69.5394 89.1404 69.0621Z" stroke="#F65454" stroke-width="0.4" stroke-linecap="round" stroke-linejoin="round"/>
<path opacity="0.2" d="M89.8395 70.2993C91.2329 69.5119 91.5669 67.4656 90.5855 65.7289C89.6041 63.9921 87.6789 63.2225 86.2855 64.0099C84.8921 64.7973 84.558 66.8436 85.5394 68.5803C86.5208 70.3171 88.446 71.0867 89.8395 70.2993Z" stroke="#F65454" stroke-width="0.4" stroke-linecap="round" stroke-linejoin="round"/>
<path d="M62.0188 78.0945C62.0393 77.6232 61.58 77.2206 60.9929 77.195C60.4058 77.1695 59.9133 77.5308 59.8928 78.002C59.8723 78.4732 60.3316 78.8759 60.9187 78.9014C61.5058 78.9269 61.9983 78.5657 62.0188 78.0945Z" fill="#F65454"/>
<path opacity="0.5" d="M63.1446 78.1433C63.1868 77.1739 62.2409 76.3454 61.032 76.2928C59.8231 76.2402 58.8089 76.9835 58.7668 77.953C58.7246 78.9224 59.6705 79.7509 60.8794 79.8035C62.0883 79.8561 63.1025 79.1128 63.1446 78.1433Z" stroke="#F65454" stroke-width="0.4" stroke-linecap="round" stroke-linejoin="round"/>
<path opacity="0.2" d="M64.5644 78.2049C64.6339 76.6059 63.0747 75.2394 61.0817 75.1527C59.0887 75.0661 57.4168 76.2921 57.3472 77.8911C57.2777 79.4901 58.8369 80.8566 60.8299 80.9433C62.8229 81.0299 64.4949 79.8039 64.5644 78.2049Z" stroke="#F65454" stroke-width="0.4" stroke-linecap="round" stroke-linejoin="round"/>
<path d="M46.0929 54.2331C46.5565 53.8721 46.6974 53.2777 46.4076 52.9056C46.1178 52.5335 45.5071 52.5245 45.0435 52.8856C44.5798 53.2466 44.4389 53.841 44.7287 54.2131C45.0185 54.5852 45.6293 54.5942 46.0929 54.2331Z" fill="#F65454"/>
<path opacity="0.5" d="M46.6476 54.9454C47.6023 54.2019 47.8929 52.9786 47.2967 52.213C46.7005 51.4474 45.4432 51.4295 44.4885 52.173C43.5338 52.9165 43.2432 54.1398 43.8394 54.9054C44.4356 55.671 45.6929 55.6889 46.6476 54.9454Z" stroke="#F65454" stroke-width="0.4" stroke-linecap="round" stroke-linejoin="round"/>
<path opacity="0.2" d="M47.3487 55.8458C48.9226 54.6201 49.4013 52.6028 48.4179 51.34C47.4345 50.0772 45.3614 50.0472 43.7875 51.2729C42.2136 52.4985 41.7349 54.5158 42.7183 55.7786C43.7017 57.0414 45.7748 57.0715 47.3487 55.8458Z" stroke="#F65454" stroke-width="0.4" stroke-linecap="round" stroke-linejoin="round"/>
</svg>
