<svg width="136" height="113" viewBox="0 0 136 113" fill="none" xmlns="http://www.w3.org/2000/svg">
<path d="M68.3886 101.713C86.1258 101.713 100.505 87.3342 100.505 69.597C100.505 51.8598 86.1258 37.481 68.3886 37.481C50.6514 37.481 36.2726 51.8598 36.2726 69.597C36.2726 87.3342 50.6514 101.713 68.3886 101.713Z" fill="#1D1D1D" stroke="#F3F3F3" stroke-width="0.4" stroke-linecap="round" stroke-linejoin="round"/>
<g opacity="0.3">
<path d="M68.3886 56.3183C77.81 56.3183 85.4476 52.0999 85.4476 46.8963C85.4476 41.6927 77.81 37.4743 68.3886 37.4743C58.9672 37.4743 51.3296 41.6927 51.3296 46.8963C51.3296 52.0999 58.9672 56.3183 68.3886 56.3183Z" stroke="#F3F3F3" stroke-width="0.4"/>
<path d="M96.1365 53.4061C96.5565 54.4841 96.7805 55.5971 96.7805 56.7451C96.7805 65.4041 84.0685 72.4251 68.3885 72.4251C52.7085 72.4251 39.9965 65.4041 39.9965 56.7451C39.9965 55.6601 40.1925 54.6031 40.5705 53.5881" stroke="#F3F3F3" stroke-width="0.4"/>
<path d="M100.358 72.7122C98.1876 81.3922 84.7056 88.0772 68.3886 88.0772C52.0716 88.0772 38.5896 81.3922 36.4196 72.7122" stroke="#F3F3F3" stroke-width="0.4"/>
<path d="M89.6334 93.6844C84.2924 96.7854 76.7464 98.7104 68.3884 98.7104C60.0304 98.7104 52.4844 96.7784 47.1434 93.6774" stroke="#F3F3F3" stroke-width="0.4"/>
<path d="M37.0775 76.7654C37.0775 76.7654 35.4885 58.9434 51.9245 49.3604C51.9245 49.3604 64.6505 40.6594 83.1655 41.0654" stroke="#F3F3F3" stroke-width="0.4"/>
<path d="M99.7135 76.7654C99.7135 76.7654 101.302 58.9434 84.8665 49.3604C84.8665 49.3604 72.1405 40.6594 53.6255 41.0654" stroke="#F3F3F3" stroke-width="0.4"/>
<path d="M68.8715 42.7663C68.8715 42.7663 86.4275 41.4643 94.8695 51.4183" stroke="#F3F3F3" stroke-width="0.4"/>
<path d="M67.8985 42.7663C67.8985 42.7663 50.3425 41.4643 41.9005 51.4183" stroke="#F3F3F3" stroke-width="0.4"/>
<path d="M71.5805 37.4811C71.5805 37.4811 62.1305 52.3491 61.0455 78.0111C61.0455 78.0111 59.6805 95.3151 62.7535 101.223" stroke="#F3F3F3" stroke-width="0.4"/>
<path d="M65.7075 37.4811C65.7075 37.4811 75.1575 52.3491 76.2425 78.0111C76.2425 78.0111 77.6075 95.3151 74.5345 101.223" stroke="#F3F3F3" stroke-width="0.4"/>
<path d="M55.8516 40.0224C55.8516 40.0224 72.9386 38.3214 85.0416 61.1274C85.0416 61.1274 97.8026 82.1694 86.3996 96.1974" stroke="#F3F3F3" stroke-width="0.4"/>
<path d="M81.3736 40.2954C81.3736 40.2954 64.2866 38.5944 52.1836 61.4004C52.1836 61.4004 39.4226 82.4424 50.8256 96.4704" stroke="#F3F3F3" stroke-width="0.4"/>
</g>
<path d="M90.3405 46.154C93.3295 48.954 95.7865 52.328 97.5365 56.087C101.015 59.139 103.038 62.786 103.038 66.713C103.038 69.534 101.988 72.208 100.112 74.63C94.8484 81.399 83.0325 86.117 69.3055 86.117C53.0795 86.117 39.5275 79.523 36.3005 70.745C35.8245 69.443 35.5725 68.099 35.5725 66.713C35.5725 64.249 36.3705 61.897 37.8265 59.727C39.3805 54.904 42.0405 50.585 45.5125 47.057C32.6395 51.642 24.0645 59.846 24.0645 69.191C24.0645 78.536 32.1425 86.25 44.3785 90.912C51.5255 93.635 60.0935 95.217 69.3055 95.217C77.3835 95.217 84.9645 93.999 91.5305 91.864C105.271 87.398 114.553 78.921 114.553 69.191C114.553 59.461 104.739 50.501 90.3475 46.147L90.3405 46.154Z" fill="#1D1D1D" stroke="#F3F3F3" stroke-width="0.4" stroke-linecap="round" stroke-linejoin="round"/>
<path opacity="0.1" d="M90.3405 46.154C93.3295 48.954 95.7865 52.328 97.5365 56.087C101.015 59.139 103.038 62.786 103.038 66.713C103.038 69.534 101.988 72.208 100.112 74.63C94.8484 81.399 83.0325 86.117 69.3055 86.117C53.0795 86.117 39.5275 79.523 36.3005 70.745C35.8245 69.443 35.5725 68.099 35.5725 66.713C35.5725 64.249 36.3705 61.897 37.8265 59.727C39.3805 54.904 42.0405 50.585 45.5125 47.057C32.6395 51.642 24.0645 59.846 24.0645 69.191C24.0645 78.536 32.1425 86.25 44.3785 90.912C51.5255 93.635 60.0935 95.217 69.3055 95.217C77.3835 95.217 84.9645 93.999 91.5305 91.864C105.271 87.398 114.553 78.921 114.553 69.191C114.553 59.461 104.739 50.501 90.3475 46.147L90.3405 46.154Z" fill="#F65454"/>
<path d="M72.018 51.4713L52.8537 41.7726C50.5559 40.6075 49.795 37.6961 51.2367 35.5559L60.2847 22.1357C61.7137 20.0174 64.899 20.2491 65.9997 22.5497L77.372 46.2268C79.0064 49.6366 75.3885 53.1781 72.018 51.4713Z" fill="#1D1D1D" stroke="#F3F3F3" stroke-width="0.4" stroke-linecap="round" stroke-linejoin="round"/>
<path d="M82.702 43.4158L71.3296 19.7388C70.95 18.9563 70.3328 18.4065 69.6268 18.1149C68.6761 17.7266 67.5917 17.8799 66.7138 18.4129L61.9018 20.8752C63.4041 20.3445 65.2161 20.9304 66.0002 22.5568L77.3726 46.2338C78.2377 48.0304 77.6392 49.8642 76.3826 50.9474L81.2841 48.4583C82.8189 47.4485 83.6639 45.4096 82.702 43.4158Z" fill="#1D1D1D" stroke="#F3F3F3" stroke-width="0.4" stroke-linecap="round" stroke-linejoin="round"/>
<path d="M64.1187 39.904L63.927 39.8672C62.964 39.7252 62.2385 40.5571 62.3129 41.7237C62.3882 42.9043 63.2354 43.9795 64.1988 44.1285C65.1697 44.284 65.8957 43.4591 65.8226 42.3135C65.8162 41.7738 65.6339 41.2243 65.3106 40.7749C64.9864 40.3116 64.5673 40.0087 64.1122 39.9115L64.1187 39.904Z" fill="#F65454"/>
<path d="M62.5424 36.8562C62.6246 37.2648 62.8303 37.6304 63.121 37.8994C63.3448 38.1096 63.5843 38.2346 63.8393 38.2745L64.0642 38.2812C64.5602 38.2495 64.9265 37.8334 64.9833 37.1844L65.0225 29.332C64.9476 28.1584 64.1004 27.0832 63.1291 26.9207C62.6483 26.8602 62.2175 27.0349 61.9185 27.4047C61.619 27.7675 61.4773 28.2956 61.5208 28.868L62.5458 36.7998L62.5494 36.8557L62.5424 36.8562Z" fill="#F65454"/>
<path d="M32.6605 79.3975C24.9605 73.2305 20.6275 63.3255 25.8005 54.1415C27.3055 51.3975 29.4265 49.0665 31.7855 47.0925C29.5455 49.1995 27.5855 51.6355 26.2835 54.3865C21.9015 63.3535 26.3885 72.2995 33.9835 77.6965C35.1455 78.5785 33.8015 80.3145 32.6605 79.3975Z" fill="#F65454"/>
<path d="M106.931 78.5997C96.3115 86.7757 82.4165 89.4217 69.3055 89.1697C79.0985 88.8477 88.9055 86.8456 97.5995 82.3306C100.463 80.8326 103.165 79.0477 105.552 76.9407C106.658 76.0027 108.058 77.6687 106.931 78.5997Z" fill="#F65454"/>
<path d="M86.3716 36.0742C98.7686 39.4832 114.351 47.5542 114.547 62.1842C114.099 51.6282 104.481 44.6002 95.4436 41.0512C92.3356 39.8192 89.1226 38.8742 85.8606 38.1672C84.4536 37.8382 84.9576 35.7172 86.3716 36.0742Z" fill="#F65454"/>
<path d="M88.5859 68.5809C88.9966 68.3489 89.0951 67.746 88.806 67.2344C88.5169 66.7228 87.9497 66.4962 87.539 66.7282C87.1284 66.9603 87.0299 67.5631 87.319 68.0747C87.6081 68.5863 88.1753 68.8129 88.5859 68.5809Z" fill="#F65454"/>
<path opacity="0.5" d="M89.1404 69.562C89.9852 69.0846 90.1875 67.8436 89.5922 66.7901C88.9969 65.7366 87.8294 65.2696 86.9846 65.747C86.1398 66.2244 85.9375 67.4654 86.5329 68.5189C87.1282 69.5724 88.2956 70.0394 89.1404 69.562Z" stroke="#F65454" stroke-width="0.4" stroke-linecap="round" stroke-linejoin="round"/>
<path opacity="0.2" d="M89.8395 70.7993C91.2329 70.0119 91.5669 67.9656 90.5855 66.2289C89.6041 64.4921 87.6789 63.7225 86.2855 64.5099C84.8921 65.2973 84.558 67.3436 85.5394 69.0803C86.5208 70.8171 88.446 71.5867 89.8395 70.7993Z" stroke="#F65454" stroke-width="0.4" stroke-linecap="round" stroke-linejoin="round"/>
<path d="M62.0188 78.5945C62.0393 78.1233 61.58 77.7206 60.9929 77.6951C60.4058 77.6695 59.9133 78.0308 59.8928 78.502C59.8723 78.9732 60.3316 79.3759 60.9187 79.4015C61.5058 79.427 61.9983 79.0657 62.0188 78.5945Z" fill="#F65454"/>
<path opacity="0.5" d="M63.1446 78.6434C63.1868 77.674 62.2409 76.8455 61.032 76.7929C59.8231 76.7403 58.8089 77.4836 58.7668 78.453C58.7246 79.4225 59.6705 80.251 60.8794 80.3036C62.0883 80.3561 63.1025 79.6129 63.1446 78.6434Z" stroke="#F65454" stroke-width="0.4" stroke-linecap="round" stroke-linejoin="round"/>
<path opacity="0.2" d="M64.5644 78.705C64.6339 77.106 63.0747 75.7394 61.0817 75.6528C59.0887 75.5661 57.4168 76.7921 57.3472 78.3911C57.2777 79.9901 58.8369 81.3566 60.8299 81.4433C62.8229 81.53 64.4949 80.304 64.5644 78.705Z" stroke="#F65454" stroke-width="0.4" stroke-linecap="round" stroke-linejoin="round"/>
<path d="M46.0929 54.7332C46.5565 54.3721 46.6974 53.7778 46.4076 53.4057C46.1178 53.0335 45.5071 53.0246 45.0435 53.3856C44.5798 53.7467 44.4389 54.341 44.7287 54.7132C45.0185 55.0853 45.6293 55.0942 46.0929 54.7332Z" fill="#F65454"/>
<path opacity="0.5" d="M46.6476 55.4455C47.6023 54.702 47.8929 53.4787 47.2967 52.7131C46.7005 51.9475 45.4432 51.9295 44.4885 52.673C43.5338 53.4165 43.2432 54.6399 43.8394 55.4055C44.4356 56.1711 45.6929 56.189 46.6476 55.4455Z" stroke="#F65454" stroke-width="0.4" stroke-linecap="round" stroke-linejoin="round"/>
<path opacity="0.2" d="M47.3487 56.3458C48.9226 55.1201 49.4013 53.1028 48.4179 51.8401C47.4345 50.5773 45.3614 50.5472 43.7875 51.7729C42.2136 52.9986 41.7349 55.0159 42.7183 56.2786C43.7017 57.5414 45.7748 57.5715 47.3487 56.3458Z" stroke="#F65454" stroke-width="0.4" stroke-linecap="round" stroke-linejoin="round"/>
</svg>
