<svg width="136" height="112" viewBox="0 0 136 112" fill="none" xmlns="http://www.w3.org/2000/svg">
<path d="M52.4697 17.9977H96.5207C98.3967 17.9977 99.8597 19.6287 99.6497 21.4907L91.3687 91.5307C91.2147 92.9307 90.0317 93.9947 88.6177 93.9947H40.2547L49.3407 20.7837C49.5227 19.1947 50.8667 17.9977 52.4697 17.9977Z" fill="white" stroke="#1D1D1D" stroke-width="0.4" stroke-linecap="round" stroke-linejoin="round"/>
<path d="M88.6248 94.0019C88.6248 94.0019 85.8388 94.1559 86.3848 89.7949L87.3018 79.2109C87.3928 78.1819 86.5808 77.2999 85.5518 77.2999H84.2568L35.6558 91.5099C35.4668 92.8259 36.4818 94.0019 37.8117 94.0019H88.6248Z" fill="#E5E5E5" stroke="#1D1D1D" stroke-width="0.4" stroke-linecap="round" stroke-linejoin="round"/>
<path d="M80.4137 91.5096H34.2207C32.8767 91.5096 31.8267 90.3406 31.9737 89.0036L33.0377 79.3086C33.1637 78.1606 34.1297 77.2926 35.2847 77.2926H84.2637L82.6537 89.5426C82.5067 90.6696 81.5477 91.5096 80.4137 91.5096Z" fill="white" stroke="#1D1D1D" stroke-width="0.4" stroke-linecap="round" stroke-linejoin="round"/>
<path d="M56.3033 28.8844H80.6283C81.2373 28.8844 81.7483 28.4294 81.8113 27.8204C81.8883 27.1134 81.3353 26.4974 80.6283 26.4974H56.3103C55.6873 26.4974 55.1693 26.9804 55.1203 27.6034C55.0713 28.2964 55.6173 28.8844 56.3103 28.8844H56.3033Z" fill="#E5E5E5"/>
<path d="M55.5958 34.5395H79.9138C80.5228 34.5395 81.0338 34.0845 81.0968 33.4755C81.1738 32.7685 80.6208 32.1525 79.9138 32.1525H55.5958C54.9728 32.1525 54.4548 32.6355 54.4058 33.2585C54.3568 33.9515 54.9028 34.5395 55.5958 34.5395Z" fill="#E5E5E5"/>
<path d="M54.2625 49.4493H84.0849C84.8316 49.4493 85.458 48.9943 85.5353 48.3853C85.6297 47.6783 84.9517 47.0623 84.0849 47.0623H54.2711C53.5073 47.0623 52.8722 47.5453 52.8122 48.1683C52.7521 48.8613 53.4215 49.4493 54.2711 49.4493H54.2625Z" fill="#E5E5E5"/>
<path d="M62.4516 55.1046H86.7766C87.3856 55.1046 87.8966 54.6496 87.9596 54.0406C88.0366 53.3336 87.4836 52.7176 86.7766 52.7176H62.4586C61.8356 52.7176 61.3176 53.2006 61.2686 53.8236C61.2196 54.5166 61.7656 55.1046 62.4586 55.1046H62.4516Z" fill="#E5E5E5"/>
<path d="M67.6807 67.5086H51.5527C50.9297 67.5086 50.4117 67.9916 50.3627 68.6146C50.3137 69.3076 50.8597 69.8956 51.5527 69.8956H67.6807C68.3387 69.8956 68.8777 69.3636 68.8777 68.6986C68.8777 68.0406 68.3457 67.5016 67.6807 67.5016V67.5086Z" fill="#E5E5E5"/>
<path d="M53.1487 55.1046H57.2507C57.8597 55.1046 58.3707 54.6496 58.4337 54.0406C58.5107 53.3336 57.9577 52.7176 57.2507 52.7176H53.1487C52.5117 52.7176 51.9867 53.2216 51.9587 53.8586C51.9307 54.5376 52.4697 55.1046 53.1487 55.1046Z" fill="#E5E5E5"/>
<path d="M52.4255 59.6969H61.5535C62.2675 59.6969 62.8205 60.3129 62.7365 61.0199C62.6665 61.6219 62.1555 62.0839 61.5535 62.0839H52.4255C51.7675 62.0839 51.2285 61.5519 51.2285 60.8869C51.2285 60.2289 51.7605 59.6899 52.4255 59.6899V59.6969Z" fill="#E5E5E5"/>
<path opacity="0.5" d="M105.247 60.648C110.473 53.8198 108.687 43.6743 101.257 37.9875C93.8268 32.3007 83.5669 33.2259 78.3406 40.0542C73.1144 46.8824 74.9009 57.0279 82.3309 62.7147C89.7609 68.4015 100.021 67.4763 105.247 60.648Z" fill="white" stroke="#1D1D1D" stroke-width="0.4" stroke-miterlimit="10"/>
<path d="M80.2938 65.3739C71.3171 58.5039 69.1226 46.2841 75.3273 37.9911C74.8329 38.4947 74.3617 39.0353 73.9182 39.6082C67.5657 47.9057 69.7371 60.2365 78.7692 67.148C87.8013 74.0595 100.271 72.9368 106.623 64.6393C106.665 64.5885 106.697 64.533 106.739 64.4822C100.081 71.2782 88.6976 71.8096 80.2938 65.3739Z" fill="white" stroke="#1D1D1D" stroke-width="0.4" stroke-linecap="round" stroke-linejoin="round"/>
<path d="M78.7738 67.1479C87.8059 74.0594 100.275 72.9367 106.628 64.6392C106.669 64.5884 106.702 64.5329 106.743 64.4821C100.086 71.2781 88.7022 71.8094 80.2984 65.3738" fill="#1D1D1D"/>
<path d="M78.7738 67.1479C87.8059 74.0594 100.275 72.9367 106.628 64.6392C106.669 64.5884 106.702 64.5329 106.743 64.4821C100.086 71.2781 88.7022 71.8094 80.2984 65.3738" stroke="#1D1D1D" stroke-width="0.4" stroke-linecap="round" stroke-linejoin="round"/>
<path fill-rule="evenodd" clip-rule="evenodd" d="M75.4382 37.8291C81.7907 29.5316 94.2601 28.4089 103.292 35.3204C112.324 42.232 114.496 54.5627 108.143 62.8603C101.791 71.1578 89.3213 72.2804 80.2892 65.3689C71.2571 58.4574 69.0857 46.1266 75.4382 37.8291ZM103.681 59.4493C99.0638 65.4831 89.9967 66.2996 83.4321 61.2741C76.8676 56.2486 75.2877 47.2836 79.9049 41.2498C84.5221 35.2159 93.5892 34.3995 100.154 39.4249C106.718 44.4504 108.298 53.4154 103.681 59.4493Z" fill="white" stroke="#1D1D1D" stroke-width="0.4" stroke-miterlimit="10"/>
<path fill-rule="evenodd" clip-rule="evenodd" d="M81.3065 39.6982C86.2156 36.3986 93.2052 36.6236 98.5413 40.7086C105.106 45.7341 106.686 54.6991 102.069 60.7329C101.638 61.2955 101.169 61.8126 100.667 62.284C101.797 61.5243 102.817 60.5779 103.681 59.4488C108.298 53.4149 106.718 44.4499 100.154 39.4244C94.2011 34.8675 86.1909 35.114 81.3065 39.6982Z" fill="#1D1D1D"/>
<path d="M101.356 74.5725L105.279 72.378L111.46 82.8978C112.098 83.9835 111.719 85.3787 110.62 85.9978C109.552 86.5938 108.203 86.2288 107.584 85.1754L101.356 74.5771V74.5725Z" fill="white" stroke="#1D1D1D" stroke-width="0.4" stroke-linecap="round" stroke-linejoin="round"/>
<path d="M109.109 84.3158L102.881 73.7175L101.356 74.5722L107.584 85.1705C108.203 86.2239 109.552 86.5889 110.62 85.9929C110.892 85.8404 111.119 85.6417 111.299 85.4107C110.444 85.5078 109.571 85.1058 109.109 84.3158Z" fill="#1D1D1D" stroke="#1D1D1D" stroke-width="0.4" stroke-linecap="round" stroke-linejoin="round"/>
<path d="M102.063 74.1793L99.6793 70.0768L102.401 68.5891L104.715 72.6963L102.063 74.1793Z" fill="white" stroke="#1D1D1D" stroke-width="0.4" stroke-linecap="round" stroke-linejoin="round"/>
<path d="M31.5111 44.8688C32.4291 44.8688 33.1671 44.1248 33.1671 43.2128C33.1671 42.3008 32.4231 41.5568 31.5111 41.5568C30.5991 41.5568 29.8551 42.3008 29.8551 43.2128C29.8551 44.1248 30.5991 44.8688 31.5111 44.8688Z" fill="white" stroke="#8C8C8C" stroke-width="0.4" stroke-linecap="round" stroke-linejoin="round"/>
<path d="M22.4219 55.6614C23.0453 55.6614 23.5538 55.1529 23.5538 54.5295C23.5538 53.9061 23.0453 53.3976 22.4219 53.3976C21.7986 53.3976 21.29 53.9061 21.29 54.5295C21.29 55.1529 21.7986 55.6614 22.4219 55.6614Z" fill="white" stroke="#8C8C8C" stroke-width="0.4" stroke-linecap="round" stroke-linejoin="round"/>
<path d="M36.992 61.4594L37.31 61.3334L37.016 61.5074C35.072 62.6714 34.244 65.0654 35.066 67.1834L35.192 67.5014L35.018 67.2074C33.854 65.2634 31.46 64.4354 29.342 65.2574L29.024 65.3834L29.318 65.2094C31.262 64.0454 32.09 61.6514 31.268 59.5334L31.142 59.2154L31.316 59.5094C32.48 61.4534 34.874 62.2814 36.992 61.4594Z" fill="white" stroke="#8C8C8C" stroke-width="0.4" stroke-linecap="round" stroke-linejoin="round"/>
</svg>
