<svg width="136" height="113" viewBox="0 0 136 113" fill="none" xmlns="http://www.w3.org/2000/svg">
<path d="M52.4697 18.4977H96.5207C98.3967 18.4977 99.8597 20.1287 99.6497 21.9907L91.3687 92.0307C91.2147 93.4307 90.0317 94.4947 88.6177 94.4947H40.2547L49.3407 21.2837C49.5227 19.6947 50.8667 18.4977 52.4697 18.4977Z" fill="#1D1D1D" stroke="#F3F3F3" stroke-width="0.4" stroke-linecap="round" stroke-linejoin="round"/>
<path d="M88.6248 94.5019C88.6248 94.5019 85.8388 94.6559 86.3848 90.2949L87.3018 79.7109C87.3928 78.6819 86.5808 77.7999 85.5518 77.7999H84.2568L35.6558 92.0099C35.4668 93.3259 36.4818 94.5019 37.8117 94.5019H88.6248Z" fill="#4C4C4C" stroke="#F3F3F3" stroke-width="0.4" stroke-linecap="round" stroke-linejoin="round"/>
<path d="M80.4137 92.0096H34.2207C32.8767 92.0096 31.8267 90.8406 31.9737 89.5036L33.0377 79.8086C33.1637 78.6606 34.1297 77.7926 35.2847 77.7926H84.2637L82.6537 90.0426C82.5067 91.1696 81.5477 92.0096 80.4137 92.0096Z" fill="#1D1D1D" stroke="#F3F3F3" stroke-width="0.4" stroke-linecap="round" stroke-linejoin="round"/>
<path d="M56.3033 29.3844H80.6283C81.2373 29.3844 81.7483 28.9294 81.8113 28.3204C81.8883 27.6134 81.3353 26.9974 80.6283 26.9974H56.3103C55.6873 26.9974 55.1693 27.4804 55.1203 28.1034C55.0713 28.7964 55.6173 29.3844 56.3103 29.3844H56.3033Z" fill="#4C4C4C"/>
<path d="M55.5958 35.0395H79.9138C80.5228 35.0395 81.0338 34.5845 81.0968 33.9755C81.1738 33.2685 80.6208 32.6525 79.9138 32.6525H55.5958C54.9728 32.6525 54.4548 33.1355 54.4058 33.7585C54.3568 34.4515 54.9028 35.0395 55.5958 35.0395Z" fill="#4C4C4C"/>
<path d="M54.2625 49.9493H84.0849C84.8316 49.9493 85.458 49.4943 85.5353 48.8853C85.6297 48.1783 84.9517 47.5623 84.0849 47.5623H54.2711C53.5073 47.5623 52.8722 48.0453 52.8122 48.6683C52.7521 49.3613 53.4215 49.9493 54.2711 49.9493H54.2625Z" fill="#4C4C4C"/>
<path d="M62.4516 55.6046H86.7766C87.3856 55.6046 87.8966 55.1496 87.9596 54.5406C88.0366 53.8336 87.4836 53.2176 86.7766 53.2176H62.4586C61.8356 53.2176 61.3176 53.7006 61.2686 54.3236C61.2196 55.0166 61.7656 55.6046 62.4586 55.6046H62.4516Z" fill="#4C4C4C"/>
<path d="M67.6807 68.0086H51.5527C50.9297 68.0086 50.4117 68.4916 50.3627 69.1146C50.3137 69.8076 50.8597 70.3956 51.5527 70.3956H67.6807C68.3387 70.3956 68.8777 69.8636 68.8777 69.1986C68.8777 68.5406 68.3457 68.0016 67.6807 68.0016V68.0086Z" fill="#4C4C4C"/>
<path d="M53.1487 55.6046H57.2507C57.8597 55.6046 58.3707 55.1496 58.4337 54.5406C58.5107 53.8336 57.9577 53.2176 57.2507 53.2176H53.1487C52.5117 53.2176 51.9867 53.7216 51.9587 54.3586C51.9307 55.0376 52.4697 55.6046 53.1487 55.6046Z" fill="#4C4C4C"/>
<path d="M52.4255 60.1969H61.5535C62.2675 60.1969 62.8205 60.8129 62.7365 61.5199C62.6665 62.1219 62.1555 62.5839 61.5535 62.5839H52.4255C51.7675 62.5839 51.2285 62.0519 51.2285 61.3869C51.2285 60.7289 51.7605 60.1899 52.4255 60.1899V60.1969Z" fill="#4C4C4C"/>
<path opacity="0.5" d="M105.247 61.148C110.473 54.3197 108.687 44.1743 101.257 38.4874C93.8268 32.8006 83.5669 33.7259 78.3406 40.5541C73.1144 47.3823 74.9009 57.5278 82.3309 63.2147C89.7609 68.9015 100.021 67.9762 105.247 61.148Z" fill="#1D1D1D" stroke="#F3F3F3" stroke-width="0.4" stroke-miterlimit="10"/>
<path d="M80.2938 65.8738C71.3171 59.0039 69.1226 46.784 75.3273 38.4911C74.8329 38.9947 74.3617 39.5352 73.9182 40.1081C67.5657 48.4056 69.7371 60.7364 78.7692 67.6479C87.8013 74.5594 100.271 73.4368 106.623 65.1392C106.665 65.0884 106.697 65.033 106.739 64.9822C100.081 71.7782 88.6976 72.3095 80.2938 65.8738Z" fill="#1D1D1D" stroke="#F3F3F3" stroke-width="0.4" stroke-linecap="round" stroke-linejoin="round"/>
<path d="M78.7738 67.6478C87.8059 74.5593 100.275 73.4367 106.628 65.1391C106.669 65.0883 106.702 65.0329 106.743 64.9821C100.086 71.7781 88.7022 72.3094 80.2984 65.8737" fill="#F3F3F3"/>
<path d="M78.7738 67.6478C87.8059 74.5593 100.275 73.4367 106.628 65.1391C106.669 65.0883 106.702 65.0329 106.743 64.9821C100.086 71.7781 88.7022 72.3094 80.2984 65.8737" stroke="#F3F3F3" stroke-width="0.4" stroke-linecap="round" stroke-linejoin="round"/>
<path fill-rule="evenodd" clip-rule="evenodd" d="M75.4382 38.329C81.7907 30.0315 94.2601 28.9089 103.292 35.8204C112.324 42.7319 114.496 55.0627 108.143 63.3602C101.791 71.6577 89.3213 72.7804 80.2892 65.8689C71.2571 58.9573 69.0857 46.6266 75.4382 38.329ZM103.681 59.9492C99.0638 65.9831 89.9967 66.7995 83.4321 61.7741C76.8676 56.7486 75.2877 47.7836 79.9049 41.7497C84.5221 35.7159 93.5892 34.8994 100.154 39.9249C106.718 44.9503 108.298 53.9154 103.681 59.9492Z" fill="#1D1D1D" stroke="#F3F3F3" stroke-width="0.4" stroke-miterlimit="10"/>
<path fill-rule="evenodd" clip-rule="evenodd" d="M81.3065 40.1981C86.2156 36.8985 93.2052 37.1235 98.5413 41.2085C105.106 46.234 106.686 55.199 102.069 61.2328C101.638 61.7954 101.169 62.3125 100.667 62.7839C101.797 62.0242 102.817 61.0778 103.681 59.9487C108.298 53.9148 106.718 44.9498 100.154 39.9243C94.2011 35.3674 86.1909 35.6139 81.3065 40.1981Z" fill="#F3F3F3"/>
<path d="M101.356 75.0724L105.279 72.8779L111.46 83.3977C112.098 84.4834 111.719 85.8786 110.62 86.4977C109.552 87.0937 108.203 86.7287 107.584 85.6753L101.356 75.0771V75.0724Z" fill="#1D1D1D" stroke="#F3F3F3" stroke-width="0.4" stroke-linecap="round" stroke-linejoin="round"/>
<path d="M109.109 84.8157L102.881 74.2174L101.356 75.0721L107.584 85.6704C108.203 86.7237 109.552 87.0887 110.62 86.4927C110.892 86.3403 111.119 86.1416 111.299 85.9106C110.444 86.0076 109.571 85.6057 109.109 84.8157Z" fill="#F3F3F3" stroke="#F3F3F3" stroke-width="0.4" stroke-linecap="round" stroke-linejoin="round"/>
<path d="M102.063 74.6793L99.6793 70.5767L102.401 69.0891L104.715 73.1962L102.063 74.6793Z" fill="#1D1D1D" stroke="#F3F3F3" stroke-width="0.4" stroke-linecap="round" stroke-linejoin="round"/>
<path d="M31.5111 45.3688C32.4291 45.3688 33.1671 44.6248 33.1671 43.7128C33.1671 42.8008 32.4231 42.0568 31.5111 42.0568C30.5991 42.0568 29.8551 42.8008 29.8551 43.7128C29.8551 44.6248 30.5991 45.3688 31.5111 45.3688Z" fill="#1D1D1D" stroke="#8C8C8C" stroke-width="0.4" stroke-linecap="round" stroke-linejoin="round"/>
<path d="M22.4219 56.1614C23.0453 56.1614 23.5538 55.6529 23.5538 55.0295C23.5538 54.4062 23.0453 53.8976 22.4219 53.8976C21.7986 53.8976 21.29 54.4062 21.29 55.0295C21.29 55.6529 21.7986 56.1614 22.4219 56.1614Z" fill="#1D1D1D" stroke="#8C8C8C" stroke-width="0.4" stroke-linecap="round" stroke-linejoin="round"/>
<path d="M36.992 61.9594L37.31 61.8334L37.016 62.0074C35.072 63.1714 34.244 65.5654 35.066 67.6834L35.192 68.0014L35.018 67.7074C33.854 65.7634 31.46 64.9354 29.342 65.7574L29.024 65.8834L29.318 65.7094C31.262 64.5454 32.09 62.1514 31.268 60.0334L31.142 59.7154L31.316 60.0094C32.48 61.9534 34.874 62.7814 36.992 61.9594Z" fill="#1D1D1D" stroke="#8C8C8C" stroke-width="0.4" stroke-linecap="round" stroke-linejoin="round"/>
</svg>
