<svg width="136" height="137" viewBox="0 0 136 137" fill="none" xmlns="http://www.w3.org/2000/svg">
<path d="M7.70026 104.281C5.04694 98.5238 29.8823 81.3957 63.1909 66.0207C96.4916 50.6456 125.646 42.8436 128.292 48.5925" stroke="#1D1D1D" stroke-width="0.189523" stroke-linecap="round" stroke-linejoin="round"/>
<path d="M91.1296 44.1389C85.0333 41.3908 79.3002 36.787 74.5938 30.8249C73.8988 29.9168 73.1486 29.0639 72.3669 28.2663C71.8852 27.7925 71.3482 27.4609 70.7954 27.3108C70.2426 27.145 69.8399 27.2082 69.2082 27.3345C67.4472 27.6978 62.0221 28.906 61.2798 29.4903C58.0105 31.7409 59.811 32.3569 55.8073 32.7359C54.0543 32.9018 52.2696 32.8781 50.4296 32.6806C48.0132 32.4358 45.5731 31.962 43.1409 31.2829C42.7619 31.1645 42.3986 31.1408 42.0512 31.2039C41.8142 31.2513 33.8701 33.3203 33.6727 33.4624C33.1752 33.802 36.4681 36.0289 36.3813 36.7554C36.3181 37.2529 39.6584 37.3713 39.6505 37.8925C39.6505 40.0483 40.3455 38.9823 40.3218 41.1381C40.2586 46.6342 40.2033 52.1225 40.5903 57.745C40.8351 61.7566 41.3562 65.8155 42.1617 69.8902C43.8042 78.0476 46.7576 85.7549 51.4878 92.8541C56.6523 100.569 61.4456 104.265 68.3948 109.035C68.9239 109.398 63.7515 113.757 64.2727 113.686C68.4027 113.212 79.6477 110.014 83.3197 108.276C88.9106 105.647 93.4197 100.996 96.3415 94.844C99.4528 88.2897 100.606 80.6141 101.056 72.5751C101.23 69.5665 101.23 66.5025 101.19 63.4386C101.166 61.875 101.174 60.3351 101.174 58.7953C101.19 55.8735 101.198 52.9754 101.008 50.0141C100.969 49.3428 100.724 48.6558 100.314 48.0951C99.9029 47.5266 99.3659 47.1238 98.7974 46.9738C96.2309 46.2631 93.6566 45.3155 91.1296 44.1547V44.1389Z" fill="white" stroke="#1D1D1D" stroke-width="0.315871"/>
<path d="M25.6102 88.3291C26.6051 88.3291 27.4106 87.5236 27.4106 86.5286C27.4106 85.5336 26.6051 84.7281 25.6102 84.7281C24.6152 84.7281 23.8097 85.5336 23.8097 86.5286C23.8097 87.5236 24.6152 88.3291 25.6102 88.3291Z" fill="#01BC8D"/>
<path d="M82.9643 46.326C76.868 43.578 71.1429 38.9741 66.4285 33.0121C65.7336 32.104 64.9992 31.2511 64.2016 30.4535C63.7278 29.9955 63.1829 29.6638 62.6381 29.498C62.0853 29.3322 61.5404 29.348 61.0508 29.5217C60.1979 29.9008 59.3925 30.3825 58.6502 30.951C53.9753 34.1808 48.3054 35.5311 42.2802 34.8599C39.8638 34.6151 37.4237 34.1413 34.9914 33.4622C34.3439 33.249 33.7122 33.328 33.2147 33.6754C32.733 34.015 32.4013 34.5993 32.3144 35.3179C32.2513 35.8154 32.2197 36.3366 32.2118 36.8578C32.2276 39.0136 32.196 41.1537 32.1723 43.3095C32.1091 48.8056 32.0538 54.3097 32.4329 59.9164C32.6935 63.928 33.2147 68.0027 34.0201 72.0616C35.6627 80.219 38.6161 87.9262 43.3462 95.0255C48.4949 102.756 54.8439 108.545 61.801 113.314C62.3222 113.678 62.8986 113.843 63.4356 113.772C67.5656 113.299 71.5061 112.185 75.1623 110.448C80.7612 107.818 85.2702 103.167 88.192 97.0154C91.3033 90.4611 92.4563 82.7854 92.9064 74.7465C93.0722 71.7379 93.0801 68.6897 93.0327 65.61C93.009 64.0622 93.0169 62.5065 93.0169 60.9667C93.0327 58.0449 93.0406 55.1388 92.8511 52.1854C92.8116 51.5142 92.5668 50.8351 92.1562 50.2665C91.7456 49.698 91.2007 49.2952 90.64 49.1452C88.0736 48.4345 85.4992 47.4869 82.9565 46.326H82.9643Z" fill="white" stroke="#1D1D1D" stroke-width="0.315871"/>
<path d="M86.0599 68.2401C86.0915 70.4986 86.0836 72.8597 85.9572 75.0708C85.6966 79.8325 84.3621 87.4134 80.9586 93.873C77.5393 100.372 71.9879 105.758 63.2856 105.931C62.8513 105.979 62.3775 105.845 61.951 105.552C55.4757 101.636 50.706 95.4445 47.2709 89.206C43.8359 82.9597 41.7195 76.6501 40.5745 72.4649V72.4491C39.9585 69.4325 39.5558 66.4238 39.3584 63.4388C39.0741 59.2851 39.1136 55.2104 39.161 51.1673V51.1515C39.1847 49.5642 39.2004 47.977 39.2004 46.3897L39.4137 46.524L39.3426 46.4766C39.3426 44.534 40.8193 43.9417 41.5537 43.8864H41.5695L41.5932 43.8706H41.7116C41.8064 43.8706 41.9485 43.8548 42.138 43.8469C42.5013 43.8312 43.0462 43.8075 43.7253 43.7996C45.0756 43.7601 46.9709 43.7522 49.1109 43.8154C53.4067 43.918 58.745 44.3207 62.9224 45.5053C67.1155 46.674 72.4538 49.2799 76.7496 51.5858C78.8896 52.7466 80.7849 53.8206 82.1352 54.6181C82.8064 55.0209 83.3434 55.3368 83.7225 55.5658C83.912 55.6684 84.0541 55.7632 84.1489 55.8263L84.2515 55.8974L84.291 55.9132V55.929H84.3068C84.5911 56.1027 85.0175 56.4502 85.3808 56.924C85.744 57.382 86.052 57.9901 86.0915 58.6534V68.2322L86.0599 68.2401Z" fill="#01BC8D" fill-opacity="0.2"/>
<path d="M128.3 48.5923C130.953 54.3491 106.118 71.4772 72.8091 86.8522C39.5084 102.219 10.3614 110.037 7.7002 104.28" stroke="#1D1D1D" stroke-width="0.315871" stroke-linecap="round" stroke-linejoin="round"/>
<path d="M118.445 63.5648C119.969 63.5648 121.216 62.325 121.216 60.793C121.216 59.2611 119.977 58.0371 118.445 58.0371C116.913 58.0371 115.689 59.2769 115.689 60.793C115.689 62.3092 116.92 63.5648 118.445 63.5648Z" fill="#01BC8D"/>
<path d="M75.2809 110.448C80.8797 107.826 85.3887 103.167 88.3106 97.0154C88.8448 95.892 89.3204 94.7357 89.7442 93.5502L98.1989 90.3256C97.6904 91.873 97.0997 93.3739 96.4126 94.8201C93.4908 100.972 88.9818 105.623 83.3909 108.252C80.3664 109.69 72.2169 112.106 67.1235 113.18C69.9663 112.58 72.6986 111.68 75.2809 110.448Z" fill="#1D1D1D" stroke="#1D1D1D" stroke-width="0.2448" stroke-miterlimit="10"/>
<path d="M73.3958 60.6417C74.0116 60.5636 74.6464 60.7665 75.1393 61.2584C76.135 62.2404 76.2257 64.0217 75.3427 65.2334L61.68 83.9198C61.2385 84.5257 60.6302 84.8767 60.0144 84.9548C59.259 85.0474 58.6357 84.8526 58.1329 84.3625L49.7015 76.0503C48.7058 75.0683 48.6151 73.287 49.4981 72.0752C49.9396 71.4694 50.5479 71.1184 51.1637 71.0403C51.7795 70.9622 52.4144 71.165 52.9171 71.6551L59.6162 78.2622L71.74 61.675C72.1815 61.0691 72.7898 60.7181 73.4056 60.64L73.3958 60.6417Z" fill="#1D1D1D" stroke="#1D1D1D" stroke-width="0.4" stroke-miterlimit="10"/>
<path d="M32.206 23.1924C33.736 23.1924 34.966 21.9524 34.966 20.4324C34.966 18.9124 33.726 17.6724 32.206 17.6724C30.686 17.6724 29.446 18.9124 29.446 20.4324C29.446 21.9524 30.686 23.1924 32.206 23.1924Z" fill="white" stroke="#1D1D1D" stroke-width="0.35" stroke-linecap="round" stroke-linejoin="round"/>
<path d="M6.88598 33.3225C7.64598 33.3225 8.26598 32.7025 8.26598 31.9425C8.26598 31.1825 7.64598 30.5625 6.88598 30.5625C6.12598 30.5625 5.50598 31.1825 5.50598 31.9425C5.50598 32.7025 6.12598 33.3225 6.88598 33.3225Z" fill="white" stroke="#1D1D1D" stroke-width="0.35" stroke-linecap="round" stroke-linejoin="round"/>
<path d="M21.036 43.5222L21.566 43.3122L21.076 43.6022C17.836 45.5422 16.456 49.5322 17.826 53.0622L18.036 53.5922L17.746 53.1022C15.806 49.8622 11.816 48.4822 8.28598 49.8522L7.75598 50.0622L8.24598 49.7722C11.486 47.8322 12.866 43.8422 11.496 40.3122L11.286 39.7822L11.576 40.2722C13.516 43.5122 17.506 44.8922 21.036 43.5222Z" fill="white" stroke="#1D1D1D" stroke-width="0.35" stroke-linecap="round" stroke-linejoin="round"/>
</svg>
