<svg width="136" height="136" viewBox="0 0 136 136" fill="none" xmlns="http://www.w3.org/2000/svg">
<path d="M7.74006 105.87C5.09006 100.12 29.9101 82.9999 63.2001 67.6399C96.4801 52.2699 125.61 44.4799 128.26 50.2299" stroke="#F3F3F3" stroke-width="0.4" stroke-linecap="round" stroke-linejoin="round"/>
<path d="M66.9032 109.228L66.9229 109.224L66.9425 109.221C69.9033 109.196 73.1676 108.59 76.1168 108.04C76.7767 107.923 77.415 107.801 78.0355 107.691C96.2249 104.484 107.861 84.4996 104.092 63.1194C100.322 41.7393 82.5617 26.9384 64.3624 30.1474C63.8996 30.229 63.4072 30.3159 62.8852 30.4079C59.7599 30.9387 55.8467 31.6083 53.4159 32.565L53.4061 32.5667L53.3962 32.5685C40.673 39.7672 35.2224 57.229 38.3064 74.7191C41.3904 92.2093 52.4069 106.889 66.913 109.226L66.9032 109.228Z" fill="#1D1D1D" stroke="#F3F3F3" stroke-width="0.4" stroke-linecap="round" stroke-linejoin="round"/>
<path d="M38.2966 74.7211C41.3945 92.2901 52.3971 106.891 66.9033 109.228L66.923 109.224L66.9427 109.221C69.9034 109.196 73.1677 108.59 76.1169 108.04C76.7768 107.924 77.4152 107.801 78.0356 107.691C88.5533 105.837 96.8746 98.3786 101.29 88.2886L92.4719 91.2041" fill="#F3F3F3"/>
<path d="M38.2966 74.7211C41.3945 92.2901 52.3971 106.891 66.9033 109.228L66.923 109.224L66.9427 109.221C69.9034 109.196 73.1677 108.59 76.1169 108.04C76.7768 107.924 77.4152 107.801 78.0356 107.691C88.5533 105.837 96.8746 98.3786 101.29 88.2886L92.4719 91.2041" stroke="#F3F3F3" stroke-width="0.4" stroke-miterlimit="10"/>
<path d="M70.0945 108.899C88.1572 105.714 99.7539 85.8567 95.9964 64.5469C92.239 43.2371 74.5502 28.544 56.4874 31.729C38.4247 34.9139 26.828 54.7708 30.5855 76.0806C34.343 97.3904 52.0318 112.083 70.0945 108.899Z" fill="#1D1D1D" stroke="#F3F3F3" stroke-width="0.4"/>
<path d="M68.7026 100.716C82.8444 98.2224 91.8122 82.3947 88.8237 65.4462C85.8352 48.4976 71.9949 36.6916 57.853 39.1852C43.7112 41.6788 34.7434 57.5065 37.7319 74.455C40.7204 91.4036 54.5607 103.21 68.7026 100.716Z" fill="#F65454" fill-opacity="0.3"/>
<path d="M62.239 54.371C63.859 54.251 65.169 55.701 65.169 57.591L65.209 72.781C65.209 74.681 63.909 76.311 62.289 76.431C60.669 76.551 59.359 75.101 59.359 73.211L59.319 58.021C59.319 56.121 60.619 54.491 62.239 54.371Z" fill="#F3F3F3" stroke="#F3F3F3" stroke-width="0.4" stroke-miterlimit="10"/>
<path d="M65.7291 83.541C66.1591 81.291 64.9791 79.161 63.0891 78.781C61.1991 78.401 59.3191 79.921 58.8791 82.171C58.4491 84.421 59.6291 86.551 61.5191 86.931C63.4091 87.311 65.2891 85.791 65.7291 83.541Z" fill="#F3F3F3" stroke="#F3F3F3" stroke-width="0.4" stroke-miterlimit="10"/>
<path d="M25.6401 89.9299C26.6301 89.9299 27.4401 89.1299 27.4401 88.1299C27.4401 87.1299 26.6401 86.3299 25.6401 86.3299C24.6401 86.3299 23.8401 87.1399 23.8401 88.1299C23.8401 89.1199 24.6501 89.9299 25.6401 89.9299Z" fill="#F65454"/>
<path d="M58.9701 30.6999H58.9601H58.9701Z" fill="#1D1D1D"/>
<path d="M58.9701 30.6999H58.9601" stroke="#F3F3F3" stroke-width="0.4" stroke-linecap="round" stroke-linejoin="round"/>
<path d="M128.26 50.2199C130.91 55.9699 106.09 73.0899 72.8001 88.4499C39.5201 103.82 10.4001 111.62 7.74011 105.88" stroke="#F3F3F3" stroke-width="0.4" stroke-linecap="round" stroke-linejoin="round"/>
<path d="M116.12 66.7799C117.67 66.7799 118.92 65.5199 118.92 63.9799C118.92 62.4399 117.66 61.1799 116.12 61.1799C114.58 61.1799 113.32 62.4399 113.32 63.9799C113.32 65.5199 114.58 66.7799 116.12 66.7799Z" fill="#F65454"/>
<path d="M36.4101 22.52C37.9401 22.52 39.1701 21.28 39.1701 19.76C39.1701 18.24 37.9301 17 36.4101 17C34.8901 17 33.6501 18.24 33.6501 19.76C33.6501 21.28 34.8901 22.52 36.4101 22.52Z" fill="#1D1D1D" stroke="#F3F3F3" stroke-width="0.4" stroke-linecap="round" stroke-linejoin="round"/>
<path d="M11.0901 32.65C11.8501 32.65 12.4701 32.03 12.4701 31.27C12.4701 30.51 11.8501 29.89 11.0901 29.89C10.3301 29.89 9.71008 30.51 9.71008 31.27C9.71008 32.03 10.3301 32.65 11.0901 32.65Z" fill="#1D1D1D" stroke="#F3F3F3" stroke-width="0.4" stroke-linecap="round" stroke-linejoin="round"/>
<path d="M25.2401 42.85L25.7701 42.64L25.2801 42.93C22.0401 44.87 20.6601 48.86 22.0301 52.39L22.2401 52.92L21.9501 52.43C20.0101 49.19 16.0201 47.81 12.4901 49.18L11.9601 49.39L12.4501 49.1C15.6901 47.16 17.0701 43.17 15.7001 39.64L15.4901 39.11L15.7801 39.6C17.7201 42.84 21.7101 44.22 25.2401 42.85Z" fill="#1D1D1D" stroke="#F3F3F3" stroke-width="0.4" stroke-linecap="round" stroke-linejoin="round"/>
</svg>
