<svg width="136" height="136" viewBox="0 0 136 136" fill="none" xmlns="http://www.w3.org/2000/svg">
<path d="M7.74006 105.87C5.09006 100.12 29.9101 82.9999 63.2001 67.6399C96.4801 52.2699 125.61 44.4799 128.26 50.2299" stroke="#F3F3F3" stroke-width="0.4" stroke-linecap="round" stroke-linejoin="round"/>
<path d="M25.6401 89.9299C26.6301 89.9299 27.4401 89.1299 27.4401 88.1299C27.4401 87.1299 26.6401 86.3299 25.6401 86.3299C24.6401 86.3299 23.8401 87.1399 23.8401 88.1299C23.8401 89.1199 24.6501 89.9299 25.6401 89.9299Z" fill="#00C288"/>
<path d="M58.9701 30.6999H58.9601H58.9701Z" fill="#1D1D1D"/>
<path d="M58.9701 30.6999H58.9601" stroke="#F3F3F3" stroke-width="0.4" stroke-linecap="round" stroke-linejoin="round"/>
<path d="M66.9033 109.228L66.923 109.224L66.9427 109.221C69.9034 109.196 73.1677 108.59 76.117 108.04C76.7768 107.923 77.4152 107.801 78.0356 107.691C96.225 104.484 107.862 84.4997 104.092 63.1195C100.322 41.7393 82.5618 26.9384 64.3625 30.1475C63.8997 30.2291 63.4073 30.3159 62.8853 30.4079C59.76 30.9387 55.8469 31.6084 53.416 32.565L53.4062 32.5668L53.3964 32.5685C40.6731 39.7672 35.2225 57.229 38.3065 74.7192C41.3905 92.2094 52.407 106.889 66.9131 109.226L66.9033 109.228Z" fill="#1D1D1D" stroke="#F3F3F3" stroke-width="0.4" stroke-linecap="round" stroke-linejoin="round"/>
<path d="M38.2968 74.7212C41.3946 92.2901 52.3973 106.891 66.9034 109.228L66.9231 109.224L66.9428 109.221C69.9035 109.196 73.1679 108.59 76.1171 108.04C76.7769 107.924 77.4153 107.801 78.0357 107.691C88.5535 105.837 96.8748 98.3786 101.29 88.2887L92.472 91.2041" fill="#F3F3F3"/>
<path d="M38.2968 74.7212C41.3946 92.2901 52.3973 106.891 66.9034 109.228L66.9231 109.224L66.9428 109.221C69.9035 109.196 73.1679 108.59 76.1171 108.04C76.7769 107.924 77.4153 107.801 78.0357 107.691C88.5535 105.837 96.8748 98.3786 101.29 88.2887L92.472 91.2041" stroke="#F3F3F3" stroke-width="0.4" stroke-miterlimit="10"/>
<path d="M70.0945 108.899C88.1572 105.714 99.7539 85.8567 95.9964 64.547C92.239 43.2372 74.5502 28.5441 56.4874 31.729C38.4247 34.914 26.828 54.7709 30.5855 76.0807C34.343 97.3904 52.0318 112.084 70.0945 108.899Z" fill="#1D1D1D" stroke="#F3F3F3" stroke-width="0.4"/>
<path d="M68.7026 100.716C82.8444 98.2225 91.8122 82.3948 88.8237 65.4462C85.8352 48.4977 71.9949 36.6917 57.853 39.1853C43.7112 41.6789 34.7434 57.5065 37.7319 74.4551C40.7204 91.4036 54.5607 103.21 68.7026 100.716Z" fill="#00C288" fill-opacity="0.2"/>
<path d="M72.6597 58.1419C73.2755 58.0638 73.9104 58.2666 74.4033 58.7585C75.3989 59.7405 75.4896 61.5219 74.6066 62.7336L60.9439 81.42C60.5024 82.0259 59.8941 82.3768 59.2783 82.4549C58.5229 82.5475 57.8996 82.3528 57.3969 81.8626L48.9654 73.5505C47.9698 72.5685 47.8791 70.7871 48.7621 69.5754C49.2036 68.9695 49.8118 68.6186 50.4276 68.5405C51.0434 68.4623 51.6783 68.6652 52.181 69.1553L58.8801 75.7624L71.004 59.1751C71.4455 58.5693 72.0538 58.2183 72.6696 58.1402L72.6597 58.1419Z" fill="#F3F3F3" stroke="#F3F3F3" stroke-width="0.4" stroke-miterlimit="10"/>
<path d="M128.26 50.2199C130.91 55.9699 106.09 73.0899 72.8001 88.4499C39.5201 103.82 10.4001 111.62 7.74011 105.88" stroke="#F3F3F3" stroke-width="0.4" stroke-linecap="round" stroke-linejoin="round"/>
<path d="M116.12 66.7799C117.67 66.7799 118.92 65.5199 118.92 63.9799C118.92 62.4399 117.66 61.1799 116.12 61.1799C114.58 61.1799 113.32 62.4399 113.32 63.9799C113.32 65.5199 114.58 66.7799 116.12 66.7799Z" fill="#00C288"/>
<path d="M36.4101 22.52C37.9401 22.52 39.1701 21.28 39.1701 19.76C39.1701 18.24 37.9301 17 36.4101 17C34.8901 17 33.6501 18.24 33.6501 19.76C33.6501 21.28 34.8901 22.52 36.4101 22.52Z" fill="#1D1D1D" stroke="#F3F3F3" stroke-width="0.4" stroke-linecap="round" stroke-linejoin="round"/>
<path d="M11.0901 32.65C11.8501 32.65 12.4701 32.03 12.4701 31.27C12.4701 30.51 11.8501 29.89 11.0901 29.89C10.3301 29.89 9.71008 30.51 9.71008 31.27C9.71008 32.03 10.3301 32.65 11.0901 32.65Z" fill="#1D1D1D" stroke="#F3F3F3" stroke-width="0.4" stroke-linecap="round" stroke-linejoin="round"/>
<path d="M25.2401 42.85L25.7701 42.64L25.2801 42.93C22.0401 44.87 20.6601 48.86 22.0301 52.39L22.2401 52.92L21.9501 52.43C20.0101 49.19 16.0201 47.81 12.4901 49.18L11.9601 49.39L12.4501 49.1C15.6901 47.16 17.0701 43.17 15.7001 39.64L15.4901 39.11L15.7801 39.6C17.7201 42.84 21.7101 44.22 25.2401 42.85Z" fill="#1D1D1D" stroke="#F3F3F3" stroke-width="0.4" stroke-linecap="round" stroke-linejoin="round"/>
</svg>
