<svg width="136" height="137" viewBox="0 0 136 137" fill="none" xmlns="http://www.w3.org/2000/svg">
<path d="M7.74006 106.37C5.09006 100.62 29.9101 83.4999 63.2001 68.1399C96.4801 52.7699 125.61 44.9799 128.26 50.7299" stroke="#1D1D1D" stroke-width="0.4" stroke-linecap="round" stroke-linejoin="round"/>
<path d="M66.9032 109.728L66.9229 109.724L66.9425 109.721C69.9033 109.696 73.1676 109.09 76.1168 108.54C76.7767 108.423 77.415 108.301 78.0355 108.191C96.2249 104.984 107.861 84.9996 104.092 63.6194C100.322 42.2393 82.5617 27.4384 64.3624 30.6474C63.8996 30.729 63.4072 30.8159 62.8852 30.9079C59.7599 31.4387 55.8467 32.1083 53.4159 33.065L53.4061 33.0667L53.3962 33.0685C40.673 40.2672 35.2224 57.729 38.3064 75.2191C41.3904 92.7093 52.4069 107.389 66.913 109.726L66.9032 109.728Z" fill="white" stroke="#1D1D1D" stroke-width="0.4" stroke-linecap="round" stroke-linejoin="round"/>
<path d="M38.2966 75.2211C41.3945 92.7901 52.3971 107.391 66.9033 109.728L66.923 109.724L66.9427 109.721C69.9034 109.696 73.1677 109.09 76.1169 108.54C76.7768 108.424 77.4152 108.301 78.0356 108.191C88.5533 106.337 96.8746 98.8786 101.29 88.7886L92.4719 91.7041" fill="#1D1D1D"/>
<path d="M38.2966 75.2211C41.3945 92.7901 52.3971 107.391 66.9033 109.728L66.923 109.724L66.9427 109.721C69.9034 109.696 73.1677 109.09 76.1169 108.54C76.7768 108.424 77.4152 108.301 78.0356 108.191C88.5533 106.337 96.8746 98.8786 101.29 88.7886L92.4719 91.7041" stroke="#1D1D1D" stroke-width="0.4" stroke-miterlimit="10"/>
<path d="M70.0945 109.399C88.1572 106.214 99.7539 86.3567 95.9964 65.0469C92.239 43.7371 74.5502 29.044 56.4874 32.229C38.4247 35.4139 26.828 55.2708 30.5855 76.5806C34.343 97.8904 52.0318 112.583 70.0945 109.399Z" fill="white" stroke="#1D1D1D" stroke-width="0.4"/>
<path d="M68.7026 101.216C82.8444 98.7224 91.8122 82.8947 88.8237 65.9462C85.8352 48.9976 71.9949 37.1916 57.853 39.6852C43.7112 42.1788 34.7434 58.0065 37.7319 74.955C40.7204 91.9036 54.5607 103.71 68.7026 101.216Z" fill="#F65454" fill-opacity="0.3"/>
<path d="M62.239 54.871C63.859 54.751 65.169 56.201 65.169 58.091L65.209 73.281C65.209 75.181 63.909 76.811 62.289 76.931C60.669 77.051 59.359 75.601 59.359 73.711L59.319 58.521C59.319 56.621 60.619 54.991 62.239 54.871Z" fill="#1D1D1D" stroke="#1D1D1D" stroke-width="0.4" stroke-miterlimit="10"/>
<path d="M65.7291 84.041C66.1591 81.791 64.9791 79.661 63.0891 79.281C61.1991 78.901 59.3191 80.421 58.8791 82.671C58.4491 84.921 59.6291 87.051 61.5191 87.431C63.4091 87.811 65.2891 86.291 65.7291 84.041Z" fill="#1D1D1D" stroke="#1D1D1D" stroke-width="0.4" stroke-miterlimit="10"/>
<path d="M25.6401 90.4299C26.6301 90.4299 27.4401 89.6299 27.4401 88.6299C27.4401 87.6299 26.6401 86.8299 25.6401 86.8299C24.6401 86.8299 23.8401 87.6399 23.8401 88.6299C23.8401 89.6199 24.6501 90.4299 25.6401 90.4299Z" fill="#F65454"/>
<path d="M58.9701 31.1999H58.9601H58.9701Z" fill="white"/>
<path d="M58.9701 31.1999H58.9601" stroke="#1D1D1D" stroke-width="0.4" stroke-linecap="round" stroke-linejoin="round"/>
<path d="M128.26 50.7199C130.91 56.4699 106.09 73.5899 72.8001 88.9499C39.5201 104.32 10.4001 112.12 7.74011 106.38" stroke="#1D1D1D" stroke-width="0.4" stroke-linecap="round" stroke-linejoin="round"/>
<path d="M116.12 67.2799C117.67 67.2799 118.92 66.0199 118.92 64.4799C118.92 62.9399 117.66 61.6799 116.12 61.6799C114.58 61.6799 113.32 62.9399 113.32 64.4799C113.32 66.0199 114.58 67.2799 116.12 67.2799Z" fill="#F65454"/>
<path d="M36.4101 23.02C37.9401 23.02 39.1701 21.78 39.1701 20.26C39.1701 18.74 37.9301 17.5 36.4101 17.5C34.8901 17.5 33.6501 18.74 33.6501 20.26C33.6501 21.78 34.8901 23.02 36.4101 23.02Z" fill="white" stroke="#1D1D1D" stroke-width="0.4" stroke-linecap="round" stroke-linejoin="round"/>
<path d="M11.0901 33.15C11.8501 33.15 12.4701 32.53 12.4701 31.77C12.4701 31.01 11.8501 30.39 11.0901 30.39C10.3301 30.39 9.71008 31.01 9.71008 31.77C9.71008 32.53 10.3301 33.15 11.0901 33.15Z" fill="white" stroke="#1D1D1D" stroke-width="0.4" stroke-linecap="round" stroke-linejoin="round"/>
<path d="M25.2401 43.35L25.7701 43.14L25.2801 43.43C22.0401 45.37 20.6601 49.36 22.0301 52.89L22.2401 53.42L21.9501 52.93C20.0101 49.69 16.0201 48.31 12.4901 49.68L11.9601 49.89L12.4501 49.6C15.6901 47.66 17.0701 43.67 15.7001 40.14L15.4901 39.61L15.7801 40.1C17.7201 43.34 21.7101 44.72 25.2401 43.35Z" fill="white" stroke="#1D1D1D" stroke-width="0.4" stroke-linecap="round" stroke-linejoin="round"/>
</svg>
