<svg width="136" height="137" viewBox="0 0 136 137" fill="none" xmlns="http://www.w3.org/2000/svg">
<path d="M93.95 102.71C101.24 106.85 95.1 111.82 80.24 113.83C65.38 115.82 47.43 114.09 40.14 109.95C32.85 105.81 38.99 100.84 53.85 98.83C68.71 96.84 86.66 98.57 93.95 102.71Z" fill="#1D1D1D" stroke="#1D1D1D" stroke-width="0.4" stroke-linecap="round" stroke-linejoin="round"/>
<path d="M12.57 96.61C10.13 91.32 32.96 75.57 63.59 61.44C94.2 47.3 121 40.13 123.44 45.42" stroke="#1D1D1D" stroke-width="0.4" stroke-linecap="round" stroke-linejoin="round"/>
<path d="M51.58 47.85C50.99 45.87 50.52 43.75 50.18 41.47C48.4 41.25 46.7 40.97 45.09 40.67C45.34 42.9 45.84 45.06 46.49 47.1C48.11 47.39 49.81 47.64 51.59 47.85H51.58Z" fill="white"/>
<path d="M54.75 71.62C47.57 74.85 36.92 85.28 36.92 98.95C36.92 100.48 36.95 106.41 36.97 106.39C37.02 107.59 38 108.81 40.04 109.95C47.33 114.09 65.28 115.82 80.14 113.83C90.82 112.4 96.99 109.42 96.92 106.32V99.03C96.92 85.38 86.51 74.85 79.33 71.62C77.55 70.82 73.93 69.36 73.93 66.85C73.93 64.34 77.36 63.38 79.14 62.59C86.32 59.36 96.14 48.93 96.14 37.36V31.68H37.94V37.36C37.94 48.94 47.76 59.36 54.94 62.59C56.72 63.39 60.15 64.39 60.15 66.85C60.15 69.31 56.53 70.81 54.75 71.62Z" fill="white"/>
<path d="M54.75 71.62C47.57 74.85 36.92 85.28 36.92 98.95C36.92 100.48 36.95 106.41 36.97 106.39C37.02 107.59 38 108.81 40.04 109.95C47.33 114.09 65.28 115.82 80.14 113.83C90.82 112.4 96.99 109.42 96.92 106.32V99.03C96.92 85.38 86.51 74.85 79.33 71.62C77.55 70.82 73.93 69.36 73.93 66.85C73.93 64.34 77.36 63.38 79.14 62.59C86.32 59.36 96.14 48.93 96.14 37.36V31.68H37.94V37.36C37.94 48.94 47.76 59.36 54.94 62.59C56.72 63.39 60.15 64.39 60.15 66.85C60.15 69.31 56.53 70.81 54.75 71.62ZM54.75 71.62H54.74" stroke="#1D1D1D" stroke-width="0.4" stroke-linecap="round" stroke-linejoin="round"/>
<path d="M93.83 102.71C101.12 106.85 94.98 111.82 80.12 113.83C65.26 115.82 47.31 114.09 40.02 109.95C32.73 105.81 38.87 100.84 53.73 98.83C68.59 96.84 86.54 98.57 93.83 102.71Z" fill="white" stroke="#1D1D1D" stroke-width="0.4" stroke-linecap="round" stroke-linejoin="round"/>
<path d="M44.69 50.04C49.45 57.36 57.69 62.22 67.07 62.22C79.38 62.22 89.72 53.87 92.8 42.54C76.76 44.28 60.73 53.33 44.69 50.05V50.04Z" fill="#1D1D1D"/>
<path d="M93.16 27.92C100.24 32.83 94.27 38.73 79.84 41.09C65.41 43.46 47.97 41.4 40.89 36.49C33.81 31.58 39.78 25.68 54.21 23.32C68.64 20.95 86.08 23.01 93.16 27.92Z" fill="white" stroke="#1D1D1D" stroke-width="0.4" stroke-linecap="round" stroke-linejoin="round"/>
<path d="M88.16 28.43C93.87 32.39 89.06 37.15 77.42 39.06C72.49 39.87 67.14 40.04 62.16 39.66L60.77 41.83M46 35.35C42.79 33.12 42.91 30.64 45.71 28.55C47.88 26.93 51.66 25.56 56.75 24.72C60.86 24.05 65.27 23.82 69.52 23.98L69.97 22.39" stroke="#8C8C8C" stroke-width="0.4" stroke-linecap="round" stroke-linejoin="round"/>
<path d="M76.59 50.99C79.38 54.78 77.98 60.55 73.46 63.88C68.94 67.21 63.01 66.83 60.22 63.04L58.61 60.85L74.98 48.8L76.59 50.99Z" fill="white" stroke="#1D1D1D" stroke-width="0.4" stroke-linecap="round" stroke-linejoin="round"/>
<path d="M71.8435 61.6728C76.3617 58.3453 77.7624 52.5764 74.9721 48.7876C72.1817 44.9987 66.257 44.6246 61.7389 47.9521C57.2207 51.2795 55.82 57.0484 58.6103 60.8373C61.4007 64.6261 67.3254 65.0002 71.8435 61.6728Z" fill="white" stroke="#1D1D1D" stroke-width="0.4" stroke-linecap="round" stroke-linejoin="round"/>
<path d="M70.5271 59.8852C73.8668 57.4256 74.9016 53.1606 72.8383 50.359C70.775 47.5574 66.395 47.2801 63.0553 49.7396C59.7156 52.1992 58.6809 56.4642 60.7441 59.2658C62.8074 62.0674 67.1874 62.3447 70.5271 59.8852Z" fill="#F8B200"/>
<path d="M90.9 104.42C90.9 106.83 86.11 108.79 80.2 108.79C74.29 108.79 69.5 106.83 69.5 104.42V100.29H90.9V104.42Z" fill="white" stroke="#1D1D1D" stroke-width="0.4" stroke-linecap="round" stroke-linejoin="round"/>
<path d="M80.2 104.67C86.1094 104.67 90.9 102.713 90.9 100.3C90.9 97.8865 86.1094 95.93 80.2 95.93C74.2906 95.93 69.5 97.8865 69.5 100.3C69.5 102.713 74.2906 104.67 80.2 104.67Z" fill="white" stroke="#1D1D1D" stroke-width="0.4" stroke-linecap="round" stroke-linejoin="round"/>
<path d="M80.2 103.39C84.3808 103.39 87.77 102.007 87.77 100.3C87.77 98.5934 84.3808 97.21 80.2 97.21C76.0192 97.21 72.63 98.5934 72.63 100.3C72.63 102.007 76.0192 103.39 80.2 103.39Z" fill="white" stroke="#BFBFBF" stroke-width="0.4" stroke-linecap="round" stroke-linejoin="round"/>
<path d="M90.9 100.3C90.9 102.71 86.11 104.67 80.2 104.67C74.29 104.67 69.5 102.71 69.5 100.3V96.17H90.9V100.3Z" fill="white" stroke="#1D1D1D" stroke-width="0.4" stroke-linecap="round" stroke-linejoin="round"/>
<path d="M80.2 100.54C86.1094 100.54 90.9 98.5835 90.9 96.17C90.9 93.7565 86.1094 91.8 80.2 91.8C74.2906 91.8 69.5 93.7565 69.5 96.17C69.5 98.5835 74.2906 100.54 80.2 100.54Z" fill="white" stroke="#1D1D1D" stroke-width="0.4" stroke-linecap="round" stroke-linejoin="round"/>
<path d="M80.2 99.26C84.3808 99.26 87.77 97.8766 87.77 96.17C87.77 94.4634 84.3808 93.08 80.2 93.08C76.0192 93.08 72.63 94.4634 72.63 96.17C72.63 97.8766 76.0192 99.26 80.2 99.26Z" fill="white" stroke="#BFBFBF" stroke-width="0.4" stroke-linecap="round" stroke-linejoin="round"/>
<path d="M90.9 96.17C90.9 98.58 86.11 100.54 80.2 100.54C74.29 100.54 69.5 98.58 69.5 96.17V92.04H90.9V96.17Z" fill="white" stroke="#1D1D1D" stroke-width="0.4" stroke-linecap="round" stroke-linejoin="round"/>
<path d="M80.2 96.41C86.1094 96.41 90.9 94.4535 90.9 92.04C90.9 89.6265 86.1094 87.67 80.2 87.67C74.2906 87.67 69.5 89.6265 69.5 92.04C69.5 94.4535 74.2906 96.41 80.2 96.41Z" fill="white" stroke="#1D1D1D" stroke-width="0.4" stroke-linecap="round" stroke-linejoin="round"/>
<path d="M80.2 95.13C84.3808 95.13 87.77 93.7466 87.77 92.04C87.77 90.3334 84.3808 88.95 80.2 88.95C76.0192 88.95 72.63 90.3334 72.63 92.04C72.63 93.7466 76.0192 95.13 80.2 95.13Z" fill="#F8B200"/>
<path d="M70.91 106.18C70.91 108.59 66.1199 110.55 60.2099 110.55C54.2999 110.55 49.5099 108.59 49.5099 106.18V102.05H70.91V106.18Z" fill="white" stroke="#1D1D1D" stroke-width="0.4" stroke-linecap="round" stroke-linejoin="round"/>
<path d="M60.22 106.42C66.1294 106.42 70.92 104.463 70.92 102.05C70.92 99.6365 66.1294 97.68 60.22 97.68C54.3105 97.68 49.52 99.6365 49.52 102.05C49.52 104.463 54.3105 106.42 60.22 106.42Z" fill="white" stroke="#1D1D1D" stroke-width="0.4" stroke-linecap="round" stroke-linejoin="round"/>
<path d="M60.22 105.14C64.4008 105.14 67.79 103.757 67.79 102.05C67.79 100.343 64.4008 98.96 60.22 98.96C56.0392 98.96 52.65 100.343 52.65 102.05C52.65 103.757 56.0392 105.14 60.22 105.14Z" fill="#F8B200"/>
<path d="M63.8699 98.58C64.6799 100.85 60.8299 104.31 55.2599 106.29C49.6899 108.28 44.5299 108.04 43.7099 105.77L42.3199 101.88L62.4699 94.69L63.8599 98.58H63.8699Z" fill="white" stroke="#1D1D1D" stroke-width="0.4" stroke-linecap="round" stroke-linejoin="round"/>
<path d="M53.8647 102.409C59.4307 100.424 63.2855 96.9717 62.4747 94.6985C61.664 92.4253 56.4945 92.1918 50.9285 94.1771C45.3625 96.1623 41.5077 99.6145 42.3185 101.888C43.1293 104.161 48.2987 104.394 53.8647 102.409Z" fill="white" stroke="#1D1D1D" stroke-width="0.4" stroke-linecap="round" stroke-linejoin="round"/>
<path d="M53.4347 101.204C57.3725 99.799 60.1 97.3574 59.5267 95.75C58.9534 94.1426 55.2964 93.9782 51.3586 95.3827C47.4207 96.7872 44.6933 99.2288 45.2666 100.836C45.8399 102.444 49.4969 102.608 53.4347 101.204Z" fill="#F8B200"/>
<path d="M29.03 81.94C29.94 81.94 30.68 81.2 30.68 80.29C30.68 79.38 29.94 78.64 29.03 78.64C28.12 78.64 27.38 79.38 27.38 80.29C27.38 81.2 28.12 81.94 29.03 81.94Z" fill="#01BC8D"/>
<path d="M123.43 45.41C125.87 50.7 103.04 66.45 72.41 80.58C41.8 94.72 15.01 101.9 12.56 96.61" stroke="#1D1D1D" stroke-width="0.4" stroke-linecap="round" stroke-linejoin="round"/>
<path d="M112.27 60.64C113.69 60.64 114.85 59.49 114.85 58.06C114.85 56.63 113.7 55.48 112.27 55.48C110.84 55.48 109.69 56.63 109.69 58.06C109.69 59.49 110.84 60.64 112.27 60.64Z" fill="#01BC8D"/>
</svg>
