<svg width="136" height="136" viewBox="0 0 136 136" fill="none" xmlns="http://www.w3.org/2000/svg">
<path d="M94.69 53.01C92.54 52.86 90.86 53.01 90.86 53.01L42.02 56.36C34.22 56.64 34.45 58.86 34.45 58.86L33.97 63.21L31.87 83.76C31.96 83.46 32.13 83.18 32.37 82.97C32.42 82.93 32.46 82.89 32.51 82.86C33.04 82.45 33.69 82.24 34.36 82.21L88.41 79.99C96.17 79.71 99.96 81.64 101.85 82.8C102.62 83.28 102.99 83.71 103.1 84.1H103.18L104.02 58.82C103.74 54.42 98.47 53.27 94.69 53.02V53.01Z" stroke="#F3F3F3" stroke-width="0.4" stroke-linecap="round" stroke-linejoin="round"/>
<path d="M32.59 85.42C32.87 85.37 33.22 85.33 33.65 85.33C33.65 85.33 77.88 83.44 91.96 83.58C91.96 83.58 97.45 83.62 100.99 85.75V84.58C100.99 84.05 100.73 83.56 100.29 83.27C98.98 82.39 95.71 80.74 89.7 80.81L35.3 82.7C35.3 82.7 32.45 82.62 32.58 84.71V85.43L32.59 85.42Z" fill="#1D1D1D" stroke="#F3F3F3" stroke-width="0.4" stroke-linecap="round" stroke-linejoin="round"/>
<path d="M87.63 113.91C89.2 113.95 90.79 114.04 92.3 114.16C93.81 114.28 95.24 114.43 96.51 114.61C97.78 114.79 98.87 114.98 99.73 115.18C100.59 115.38 101.19 115.59 101.49 115.8L102 116.15C102.29 116.35 102.26 116.53 101.95 116.69C101.64 116.85 101.08 116.97 100.29 117.06C99.5 117.15 98.53 117.22 97.37 117.25C96.21 117.28 94.91 117.27 93.48 117.23L44.11 115.66C42.89 115.62 41.62 115.55 40.35 115.45C39.08 115.35 37.82 115.23 36.64 115.08C35.46 114.93 34.32 114.77 33.33 114.6C32.34 114.43 31.47 114.24 30.81 114.04L29.67 113.71C28.99 113.51 28.59 113.33 28.45 113.17C28.31 113.01 28.43 112.86 28.81 112.75C29.19 112.64 29.82 112.55 30.68 112.5C31.54 112.45 32.65 112.44 33.97 112.48L87.65 113.93L87.63 113.91Z" fill="#1D1D1D" stroke="#F3F3F3" stroke-width="0.4" stroke-linecap="round" stroke-linejoin="round"/>
<path d="M28.39 113.01C28.39 113.01 28.4 112.96 28.42 112.94C28.42 112.94 28.43 112.93 28.44 112.92C28.45 112.91 28.47 112.89 28.49 112.88C28.5 112.88 28.51 112.86 28.52 112.86C28.54 112.85 28.57 112.83 28.59 112.82C28.6 112.82 28.62 112.81 28.63 112.8C28.66 112.79 28.7 112.77 28.74 112.76C28.76 112.76 28.77 112.75 28.78 112.74C28.84 112.72 28.9 112.7 28.97 112.69H29.01C29.07 112.68 29.13 112.66 29.19 112.65C29.22 112.65 29.25 112.65 29.28 112.64C29.35 112.63 29.42 112.62 29.5 112.61H29.51C29.61 112.6 29.72 112.58 29.83 112.57H29.84C29.96 112.56 30.08 112.55 30.21 112.54C30.34 112.53 30.48 112.52 30.62 112.51C30.76 112.51 30.92 112.49 31.07 112.49C31.23 112.49 31.39 112.48 31.56 112.48H32.66C33.05 112.48 33.47 112.48 33.92 112.5L87.6 113.95C87.99 113.96 88.39 113.97 88.78 113.99C89.17 114.01 89.56 114.02 89.95 114.05C90.34 114.07 90.73 114.09 91.11 114.12C91.5 114.15 91.88 114.17 92.25 114.2C92.44 114.21 92.62 114.23 92.81 114.25C93.18 114.28 93.54 114.32 93.9 114.35H93.92C94.09 114.37 94.26 114.38 94.43 114.4H94.46C94.63 114.42 94.8 114.44 94.96 114.46H94.97C95.14 114.48 95.31 114.5 95.48 114.52C95.65 114.54 95.81 114.56 95.98 114.58C96.14 114.6 96.3 114.62 96.46 114.64C96.77 114.68 97.08 114.73 97.37 114.77C97.52 114.79 97.66 114.82 97.8 114.84C97.94 114.86 98.08 114.89 98.21 114.91C98.34 114.93 98.47 114.96 98.6 114.98C98.73 115 98.85 115.03 98.97 115.05C99.09 115.07 99.2 115.1 99.32 115.12C99.43 115.14 99.54 115.17 99.64 115.19C99.74 115.21 99.84 115.24 99.94 115.26C100.04 115.29 100.13 115.31 100.22 115.34C100.31 115.37 100.39 115.39 100.47 115.42C100.55 115.45 100.63 115.47 100.7 115.5C100.77 115.53 100.84 115.55 100.9 115.58C100.96 115.61 101.02 115.63 101.08 115.66C101.13 115.69 101.19 115.71 101.23 115.74C101.28 115.77 101.32 115.79 101.36 115.82L101.87 116.17C101.87 116.17 101.93 116.22 101.96 116.24C101.96 116.24 102.01 116.29 102.02 116.31C102.02 116.31 102.05 116.35 102.06 116.38C102.06 116.38 102.07 116.42 102.07 116.44L102.98 88.26C102.99 87.89 102.88 87.51 102.64 87.22C99.65 83.64 91.84 83.58 91.84 83.58C77.76 83.45 33.53 85.33 33.53 85.33H33.17C32.14 85.38 31.3 86.17 31.18 87.19L28.26 113H28.39V113.01Z" stroke="#F3F3F3" stroke-width="0.4" stroke-linecap="round" stroke-linejoin="round"/>
<path d="M28.39 113.01C28.39 113.01 28.4 112.96 28.42 112.94C28.42 112.94 28.43 112.93 28.44 112.92C28.45 112.91 28.47 112.89 28.49 112.88C28.5 112.88 28.51 112.86 28.52 112.86C28.54 112.85 28.57 112.83 28.59 112.82C28.6 112.82 28.62 112.81 28.63 112.8C28.66 112.79 28.7 112.77 28.74 112.76C28.76 112.76 28.77 112.75 28.78 112.74C28.84 112.72 28.9 112.7 28.97 112.69H29.01C29.07 112.68 29.13 112.66 29.19 112.65C29.22 112.65 29.25 112.65 29.28 112.64C29.35 112.63 29.42 112.62 29.5 112.61H29.51C29.61 112.6 29.72 112.58 29.83 112.57H29.84C29.96 112.56 30.08 112.55 30.21 112.54C30.34 112.53 30.48 112.52 30.62 112.51C30.76 112.51 30.92 112.49 31.07 112.49C31.23 112.49 31.39 112.48 31.56 112.48H32.66C33.05 112.48 33.47 112.48 33.92 112.5L87.6 113.95C87.99 113.96 88.39 113.97 88.78 113.99C89.17 114.01 89.56 114.02 89.95 114.05C90.34 114.07 90.73 114.09 91.11 114.12C91.5 114.15 91.88 114.17 92.25 114.2C92.44 114.21 92.62 114.23 92.81 114.25C93.18 114.28 93.54 114.32 93.9 114.35H93.92C94.09 114.37 94.26 114.38 94.43 114.4H94.46C94.63 114.42 94.8 114.44 94.96 114.46H94.97C95.14 114.48 95.31 114.5 95.48 114.52C95.65 114.54 95.81 114.56 95.98 114.58C96.14 114.6 96.3 114.62 96.46 114.64C96.77 114.68 97.08 114.73 97.37 114.77C97.52 114.79 97.66 114.82 97.8 114.84C97.94 114.86 98.08 114.89 98.21 114.91C98.34 114.93 98.47 114.96 98.6 114.98C98.73 115 98.85 115.03 98.97 115.05C99.09 115.07 99.2 115.1 99.32 115.12C99.43 115.14 99.54 115.17 99.64 115.19C99.74 115.21 99.84 115.24 99.94 115.26C100.04 115.29 100.13 115.31 100.22 115.34C100.31 115.37 100.39 115.39 100.47 115.42C100.55 115.45 100.63 115.47 100.7 115.5C100.77 115.53 100.84 115.55 100.9 115.58C100.96 115.61 101.02 115.63 101.08 115.66C101.13 115.69 101.19 115.71 101.23 115.74C101.28 115.77 101.32 115.79 101.36 115.82L101.87 116.17C101.87 116.17 101.93 116.22 101.96 116.24C101.96 116.24 102.01 116.29 102.02 116.31C102.02 116.31 102.05 116.35 102.06 116.38C102.06 116.38 102.07 116.42 102.07 116.44L102.98 88.26C102.99 87.89 102.88 87.51 102.64 87.22C99.65 83.64 91.84 83.58 91.84 83.58C77.76 83.45 33.53 85.33 33.53 85.33H33.17C32.14 85.38 31.3 86.17 31.18 87.19L28.26 113H28.39V113.01Z" stroke="#F3F3F3" stroke-width="0.4" stroke-linecap="round" stroke-linejoin="round"/>
<path d="M28.39 113.01C28.39 113.01 28.4 112.96 28.42 112.94C28.42 112.94 28.43 112.93 28.44 112.92C28.45 112.91 28.47 112.89 28.49 112.88C28.5 112.88 28.51 112.86 28.52 112.86C28.54 112.85 28.57 112.83 28.59 112.82C28.6 112.82 28.62 112.81 28.63 112.8C28.66 112.79 28.7 112.77 28.74 112.76C28.76 112.76 28.77 112.75 28.78 112.74C28.84 112.72 28.9 112.7 28.97 112.69H29.01C29.07 112.68 29.13 112.66 29.19 112.65C29.22 112.65 29.25 112.65 29.28 112.64C29.35 112.63 29.42 112.62 29.5 112.61H29.51C29.61 112.6 29.72 112.58 29.83 112.57H29.84C29.96 112.56 30.08 112.55 30.21 112.54C30.34 112.53 30.48 112.52 30.62 112.51C30.76 112.51 30.92 112.49 31.07 112.49C31.23 112.49 31.39 112.48 31.56 112.48H32.66C33.05 112.48 33.47 112.48 33.92 112.5L87.6 113.95C87.99 113.96 88.39 113.97 88.78 113.99C89.17 114.01 89.56 114.02 89.95 114.05C90.34 114.07 90.73 114.09 91.11 114.12C91.5 114.15 91.88 114.17 92.25 114.2C92.44 114.21 92.62 114.23 92.81 114.25C93.18 114.28 93.54 114.32 93.9 114.35H93.92C94.09 114.37 94.26 114.38 94.43 114.4H94.46C94.63 114.42 94.8 114.44 94.96 114.46H94.97C95.14 114.48 95.31 114.5 95.48 114.52C95.65 114.54 95.81 114.56 95.98 114.58C96.14 114.6 96.3 114.62 96.46 114.64C96.77 114.68 97.08 114.73 97.37 114.77C97.52 114.79 97.66 114.82 97.8 114.84C97.94 114.86 98.08 114.89 98.21 114.91C98.34 114.93 98.47 114.96 98.6 114.98C98.73 115 98.85 115.03 98.97 115.05C99.09 115.07 99.2 115.1 99.32 115.12C99.43 115.14 99.54 115.17 99.64 115.19C99.74 115.21 99.84 115.24 99.94 115.26C100.04 115.29 100.13 115.31 100.22 115.34C100.31 115.37 100.39 115.39 100.47 115.42C100.55 115.45 100.63 115.47 100.7 115.5C100.77 115.53 100.84 115.55 100.9 115.58C100.96 115.61 101.02 115.63 101.08 115.66C101.13 115.69 101.19 115.71 101.23 115.74C101.28 115.77 101.32 115.79 101.36 115.82L101.87 116.17C101.87 116.17 101.93 116.22 101.96 116.24C101.96 116.24 102.01 116.29 102.02 116.31C102.02 116.31 102.05 116.35 102.06 116.38C102.06 116.38 102.07 116.42 102.07 116.44L102.98 88.26C102.99 87.89 102.88 87.51 102.64 87.22C100.31 84.43 95.03 83.78 92.83 83.63C92.21 83.59 91.84 83.58 91.84 83.58C77.76 83.45 33.53 85.33 33.53 85.33H33.17C32.14 85.38 31.3 86.17 31.18 87.19L28.26 113H28.39V113.01Z" stroke="#F3F3F3" stroke-width="0.4" stroke-linecap="round" stroke-linejoin="round"/>
<path d="M91.15 114.08C91.54 114.11 91.92 114.13 92.29 114.16C92.48 114.17 92.66 114.19 92.85 114.21C93.22 114.24 93.58 114.28 93.94 114.31H93.96C94.13 114.33 94.3 114.34 94.47 114.36H94.5C94.67 114.38 94.84 114.4 95 114.42H95.01C95.18 114.44 95.35 114.46 95.52 114.48C95.69 114.5 95.85 114.52 96.02 114.54C96.18 114.56 96.34 114.58 96.5 114.6C96.81 114.64 97.12 114.69 97.41 114.73C97.56 114.75 97.7 114.78 97.84 114.8C97.98 114.82 98.12 114.85 98.25 114.87C98.38 114.89 98.51 114.92 98.64 114.94C98.77 114.96 98.89 114.99 99.01 115.01C99.13 115.03 99.24 115.06 99.36 115.08C99.47 115.1 99.58 115.13 99.68 115.15C99.78 115.17 99.88 115.2 99.98 115.22C100.08 115.25 100.17 115.27 100.26 115.3C100.35 115.33 100.43 115.35 100.51 115.38C100.59 115.41 100.67 115.43 100.74 115.46C100.81 115.49 100.88 115.51 100.94 115.54C101 115.57 101.06 115.59 101.12 115.62C101.17 115.65 101.23 115.67 101.27 115.7C101.32 115.73 101.36 115.75 101.4 115.78L101.91 116.13C101.91 116.13 101.97 116.18 102 116.2C102 116.2 102.05 116.25 102.06 116.27C102.06 116.27 102.09 116.31 102.1 116.34C102.1 116.34 102.11 116.38 102.11 116.4L103.02 88.22C103.03 87.85 102.92 87.47 102.68 87.18C100.35 84.39 95.07 83.74 92.87 83.59" fill="#4C4C4C"/>
<path d="M91.15 114.08C91.54 114.11 91.92 114.13 92.29 114.16C92.48 114.17 92.66 114.19 92.85 114.21C93.22 114.24 93.58 114.28 93.94 114.31H93.96C94.13 114.33 94.3 114.34 94.47 114.36H94.5C94.67 114.38 94.84 114.4 95 114.42H95.01C95.18 114.44 95.35 114.46 95.52 114.48C95.69 114.5 95.85 114.52 96.02 114.54C96.18 114.56 96.34 114.58 96.5 114.6C96.81 114.64 97.12 114.69 97.41 114.73C97.56 114.75 97.7 114.78 97.84 114.8C97.98 114.82 98.12 114.85 98.25 114.87C98.38 114.89 98.51 114.92 98.64 114.94C98.77 114.96 98.89 114.99 99.01 115.01C99.13 115.03 99.24 115.06 99.36 115.08C99.47 115.1 99.58 115.13 99.68 115.15C99.78 115.17 99.88 115.2 99.98 115.22C100.08 115.25 100.17 115.27 100.26 115.3C100.35 115.33 100.43 115.35 100.51 115.38C100.59 115.41 100.67 115.43 100.74 115.46C100.81 115.49 100.88 115.51 100.94 115.54C101 115.57 101.06 115.59 101.12 115.62C101.17 115.65 101.23 115.67 101.27 115.7C101.32 115.73 101.36 115.75 101.4 115.78L101.91 116.13C101.91 116.13 101.97 116.18 102 116.2C102 116.2 102.05 116.25 102.06 116.27C102.06 116.27 102.09 116.31 102.1 116.34C102.1 116.34 102.11 116.38 102.11 116.4L103.02 88.22C103.03 87.85 102.92 87.47 102.68 87.18C100.35 84.39 95.07 83.74 92.87 83.59" stroke="#F3F3F3" stroke-width="0.4" stroke-linecap="round" stroke-linejoin="round"/>
<path d="M35.31 82.69L89.71 80.8C95.72 80.72 98.99 82.37 100.3 83.26C100.74 83.55 101 84.05 101 84.57V85.74H101.04C102.58 85.68 104.58 84.45 101.92 82.8C100.04 81.64 96.25 79.71 88.48 79.99L34.43 82.21C33.76 82.24 33.11 82.45 32.58 82.86C32.53 82.9 32.49 82.93 32.44 82.97C32.05 83.3 31.82 83.79 31.88 84.3C31.94 84.81 32.23 85.12 32.59 85.29V84.7C32.46 82.61 35.31 82.69 35.31 82.69Z" fill="#4C4C4C" stroke="#F3F3F3" stroke-width="0.4" stroke-linecap="round" stroke-linejoin="round"/>
<path d="M46.6 89.55C46.76 89 46.7 88.42 46.42 87.92C45.05 85.53 41.54 77.53 49.91 69.26C49.91 69.26 55.53 63.78 61.8 67.07C65.12 68.81 67.3 72.19 67.61 75.92C67.85 78.83 67.24 82.78 64.22 87.53C63.95 87.95 63.85 88.46 63.92 88.95L65.03 96.5C65.17 97.43 64.46 98.27 63.52 98.3L46.09 98.76C44.98 98.79 44.16 97.73 44.48 96.66L46.6 89.55Z" fill="white" stroke="#1D1D1D" stroke-width="0.4" stroke-linecap="round" stroke-linejoin="round"/>
<path d="M66.57 88.92C66.5 88.43 66.6 87.92 66.87 87.5C69.95 82.66 70.53 78.65 70.25 75.73C69.9 72.06 67.72 68.76 64.45 67.04C62.45 65.99 60.52 65.83 58.81 66.1C59.78 66.23 60.78 66.53 61.8 67.07C65.12 68.81 67.3 72.19 67.61 75.92C67.85 78.83 67.24 82.78 64.22 87.53C63.95 87.95 63.85 88.46 63.92 88.95L65.03 96.5C65.17 97.43 64.46 98.27 63.52 98.3L46.09 98.76C45.97 98.76 45.86 98.76 45.75 98.73C45.62 99.7 46.39 100.6 47.41 100.58L64.75 100.19C66.46 100.15 67.76 98.65 67.55 96.95L66.56 88.92H66.57Z" fill="white" stroke="#1D1D1D" stroke-width="0.4" stroke-linecap="round" stroke-linejoin="round"/>
<path d="M51.07 88.71C51.31 87.85 51.18 86.93 50.71 86.17C49.33 83.97 47.06 78.78 52.03 73.7C52.03 73.7 54.28 71.15 57.56 71.52C59.03 71.69 60.35 72.46 61.33 73.56C63.05 75.51 65.01 79.56 60.21 85.68C59.71 86.32 59.47 87.14 59.55 87.95L60.03 92.75C60.1 93.45 59.55 94.06 58.85 94.06L50.6 94.12C50.07 94.12 49.69 93.62 49.83 93.11L51.07 88.71Z" fill="#1D1D1D" stroke="#1D1D1D" stroke-width="0.4" stroke-linecap="round" stroke-linejoin="round"/>
<path d="M55.8 90.14C56.04 89.28 55.91 88.36 55.44 87.6C54.21 85.63 52.25 81.26 55.44 76.73C56.6 75.07 58.34 73.86 60.35 73.53C60.63 73.48 60.92 73.46 61.22 73.44C60.26 72.4 58.98 71.68 57.57 71.52C54.29 71.15 52.04 73.7 52.04 73.7C47.07 78.78 49.34 83.97 50.72 86.17C51.2 86.93 51.33 87.85 51.08 88.71L49.84 93.11C49.7 93.62 50.08 94.12 50.61 94.12L54.7 94.09L55.82 90.14H55.8Z" fill="#E5E5E5" stroke="#1D1D1D" stroke-width="0.4" stroke-linecap="round" stroke-linejoin="round"/>
<path d="M72.6288 58.1472L88.3116 57.1695C89.8446 57.1143 91.1105 58.3703 91.0555 59.9093L90.7539 63.8926C90.7132 65.0319 89.7806 65.9292 88.6499 65.9288L73.0037 66.4159C71.4625 66.4208 70.2483 65.1166 70.3629 63.5897L70.6072 60.1162C70.6857 59.0384 71.5566 58.1889 72.6388 58.1476L72.6288 58.1472Z" fill="white" stroke="#F3F3F3" stroke-width="0.4" stroke-linecap="round" stroke-linejoin="round"/>
<path d="M80.8383 58.9854L80.7106 60.917L82.1884 59.8499L82.5887 60.7454L81.1109 61.8125L82.4711 62.6868L81.9421 63.643L80.5919 62.7685L80.4741 64.7L79.5748 64.7604L79.6925 62.8289L78.2245 63.8759L77.8342 62.9803L79.2921 61.9234L77.9619 61.0487L78.4609 60.0929L79.8111 60.9674L79.9388 59.0358L80.8383 58.9854Z" fill="#1D1D1D"/>
<path d="M86.7641 58.5871L86.6465 60.5285L88.1343 59.4613L88.5348 60.3668L87.047 61.434L88.4171 62.3083L87.8982 63.2743L86.5279 62.39L86.4003 64.3316L85.491 64.3921L85.6186 62.4505L84.1307 63.5077L83.7402 62.6022L85.2181 61.5451L83.8578 60.6607L84.3669 59.7048L85.7371 60.589L85.8548 58.6475L86.7641 58.5871Z" fill="#1D1D1D"/>
<path d="M74.9624 59.3732L74.8346 61.2948L76.3025 60.2378L76.6928 61.1333L75.2349 62.1902L76.565 63.0549L76.0559 64.0109L74.7158 63.1362L74.588 65.0678L73.6985 65.1181L73.8164 63.1966L72.3584 64.2435L71.988 63.3477L73.4361 62.3009L72.1159 61.4261L72.605 60.4804L73.9452 61.355L74.0631 59.4335L74.9624 59.3732Z" fill="#1D1D1D"/>
<path d="M93.96 49.7L94.16 36.91C94.2 34.6 93.99 32.29 93.49 30.04C89.78 13.51 74.45 13.42 74.45 13.42C68.44 13.02 62.37 15.33 57.38 19.31C61.41 17.1 65.85 15.93 70.27 16.22C70.27 16.22 85.6 16.31 89.31 32.84C89.82 35.09 90.02 37.4 89.98 39.71L89.84 48.95" fill="#4C4C4C"/>
<path d="M90.79 53.01C90.79 53.01 92.46 52.87 94.62 53.01C95.72 53.08 96.94 53.24 98.13 53.52V52.14C97.78 50.16 91.79 49.24 91.79 49.24C83.77 47.85 79.13 49.3 79.13 49.3C77.27 49.88 77.3 50.62 77.3 50.62L77.01 53.95L90.78 53.01H90.79Z" fill="#1D1D1D" stroke="#F3F3F3" stroke-width="0.4" stroke-linecap="round" stroke-linejoin="round"/>
<path d="M39.62 56.53L39.88 53.56C39.88 53.56 39.83 52.7 42.13 52.12C42.13 52.12 49.3 50.32 58.7 53.35C58.7 53.35 60.55 54.02 60.7 55.08L39.62 56.53Z" fill="#1D1D1D" stroke="#F3F3F3" stroke-width="0.4" stroke-linecap="round" stroke-linejoin="round"/>
<path d="M93.17 80.11C97.82 80.56 100.4 81.91 101.85 82.8C102.62 83.28 102.99 83.71 103.1 84.1H103.18L104.02 58.82C103.74 54.42 98.47 53.27 94.69 53.02" fill="#4C4C4C"/>
<path d="M93.17 80.11C97.82 80.56 100.4 81.91 101.85 82.8C102.62 83.28 102.99 83.71 103.1 84.1H103.18L104.02 58.82C103.74 54.42 98.47 53.27 94.69 53.02" stroke="#F3F3F3" stroke-width="0.4" stroke-linecap="round" stroke-linejoin="round"/>
<path d="M80.02 28.21C81.75 30.11 82.58 32.67 82.45 35.24L81.72 48.82C83.86 48.57 87.32 48.44 91.86 49.23C91.86 49.23 92.78 49.37 93.92 49.66L94.11 36.89C94.15 34.58 93.94 32.27 93.44 30.02C89.73 13.49 74.4 13.4 74.4 13.4C61.08 12.52 47.41 24.91 46.04 39.43L44.76 51.7C47.28 51.47 51.4 51.43 56.31 52.67L57.49 41.43C57.73 39.09 58.31 36.8 59.26 34.65C62.16 28.15 68.44 24.56 72.99 24.93C72.99 24.93 77.09 24.96 80.03 28.19V28.21H80.02Z" stroke="#F3F3F3" stroke-width="0.4" stroke-linecap="round" stroke-linejoin="round"/>
<path d="M32.206 22.6924C33.736 22.6924 34.966 21.4524 34.966 19.9324C34.966 18.4124 33.726 17.1724 32.206 17.1724C30.686 17.1724 29.446 18.4124 29.446 19.9324C29.446 21.4524 30.686 22.6924 32.206 22.6924Z" fill="#1D1D1D" stroke="#F3F3F3" stroke-width="0.35" stroke-linecap="round" stroke-linejoin="round"/>
<path d="M6.88598 32.8225C7.64598 32.8225 8.26598 32.2025 8.26598 31.4425C8.26598 30.6825 7.64598 30.0625 6.88598 30.0625C6.12598 30.0625 5.50598 30.6825 5.50598 31.4425C5.50598 32.2025 6.12598 32.8225 6.88598 32.8225Z" fill="#1D1D1D" stroke="#F3F3F3" stroke-width="0.35" stroke-linecap="round" stroke-linejoin="round"/>
<path d="M21.036 43.0222L21.566 42.8122L21.076 43.1022C17.836 45.0422 16.456 49.0322 17.826 52.5622L18.036 53.0922L17.746 52.6022C15.806 49.3622 11.816 47.9822 8.28598 49.3522L7.75598 49.5622L8.24598 49.2722C11.486 47.3322 12.866 43.3422 11.496 39.8122L11.286 39.2822L11.576 39.7722C13.516 43.0122 17.506 44.3922 21.036 43.0222Z" fill="#1D1D1D" stroke="#F3F3F3" stroke-width="0.35" stroke-linecap="round" stroke-linejoin="round"/>
</svg>
