<svg width="137" height="113" viewBox="0 0 137 113" fill="none" xmlns="http://www.w3.org/2000/svg">
<path d="M106.337 73.1283C106.211 80.1143 101.388 87.0933 92.2386 91.9793C75.9636 100.652 52.1426 99.4133 39.0316 89.2073C33.2986 84.7413 30.5616 79.3023 30.6596 73.8633V61.5223H106.344V73.1283H106.337Z" fill="#1D1D1D" stroke="#F3F3F3" stroke-width="0.4" stroke-linecap="round" stroke-linejoin="round"/>
<path d="M106.337 61.5223V73.1283C106.211 80.1143 101.395 87.0933 92.2386 91.9793V80.0093" fill="#F3F3F3"/>
<g opacity="0.3">
<path d="M30.8696 68.0184C30.9886 73.2404 33.7326 78.4274 39.2416 82.7114C46.2836 88.1994 56.4266 91.0904 66.8216 91.2514L66.6886 84.6644" fill="#1D1D1D"/>
<path d="M30.8696 68.0184C30.9886 73.2404 33.7326 78.4274 39.2416 82.7114C46.2836 88.1994 56.4266 91.0904 66.8216 91.2514L66.6886 84.6644" stroke="#F3F3F3" stroke-width="0.4" stroke-linecap="round" stroke-linejoin="round"/>
</g>
<path d="M44.7576 43.0424C61.0326 34.3694 84.8536 35.6084 97.9646 45.8144C111.076 56.0204 108.514 71.3294 92.2386 80.0024C75.9636 88.6754 52.1426 87.4364 39.0316 77.2304C25.9206 67.0244 28.4826 51.7154 44.7576 43.0424Z" fill="#1D1D1D" stroke="#F3F3F3" stroke-width="0.4" stroke-linecap="round" stroke-linejoin="round"/>
<g opacity="0.3">
<path d="M50.4138 60.8959C50.6448 58.0539 52.5068 55.4009 55.6848 53.3709C62.7898 48.8629 74.2908 48.8839 81.3678 53.4059C81.7668 53.6579 82.1448 53.9239 82.5018 54.2039L79.5198 55.6809C79.0718 55.9049 78.9878 56.3179 79.3378 56.6049C79.4778 56.7239 79.6808 56.8079 79.9048 56.8429L91.9658 58.6909C92.5258 58.7749 93.0858 58.5579 93.2188 58.2009C93.2328 58.1519 93.2468 58.1099 93.2468 58.0609L93.3308 50.2069C93.3378 49.8429 92.8828 49.5419 92.3088 49.5419C92.0708 49.5419 91.8468 49.5909 91.6578 49.6819L89.0328 50.9769C79.8698 43.7529 63.2518 42.6259 51.9048 48.4569C45.9968 51.4949 42.4268 56.0099 42.1118 60.8399C42.0838 61.2109 42.5668 61.5259 43.1478 61.5259H49.3708C49.9238 61.5259 50.3858 61.2529 50.4068 60.8959H50.4138Z" fill="#1D1D1D" stroke="#F3F3F3" stroke-width="0.4" stroke-linecap="round" stroke-linejoin="round"/>
<path d="M93.8418 61.5188H87.6188C87.0658 61.5188 86.6038 61.7918 86.5828 62.1488C86.3518 64.9908 84.4758 67.6718 81.3118 69.6738C74.2068 74.1818 62.7058 74.1608 55.6288 69.6388C55.2298 69.3868 54.8518 69.1208 54.4948 68.8408L57.4768 67.3638C57.9248 67.1398 58.0088 66.7268 57.6588 66.4398C57.5188 66.3208 57.3158 66.2368 57.0918 66.2018L45.0308 64.3538C44.4708 64.2698 43.9108 64.4868 43.7778 64.8438C43.7638 64.8928 43.7498 64.9348 43.7498 64.9838L43.6658 72.8378C43.6658 73.3908 44.6598 73.7058 45.3388 73.3628L47.9638 72.0678C57.1268 79.2918 73.7448 80.4188 85.0918 74.5878C90.9998 71.5498 94.5698 67.0348 94.8848 62.2048C94.9058 61.8408 94.4648 61.5328 93.8908 61.5188C93.8768 61.5188 93.8628 61.5188 93.8488 61.5188H93.8418Z" fill="#1D1D1D" stroke="#F3F3F3" stroke-width="0.4" stroke-linecap="round" stroke-linejoin="round"/>
</g>
<ellipse cx="68.5" cy="86.2286" rx="16.8" ry="14.7658" fill="#1D1D1D" stroke="#F3F3F3" stroke-width="0.4" stroke-linecap="round" stroke-linejoin="round"/>
<ellipse cx="68.5" cy="89.1816" rx="16.8" ry="14.7658" fill="#1D1D1D" stroke="#F3F3F3" stroke-width="0.4" stroke-linecap="round" stroke-linejoin="round"/>
<ellipse cx="68.5" cy="89.7004" rx="11.76" ry="10.855" fill="#F8B200"/>
<path d="M44.7595 19.0955C61.0345 10.4225 84.8555 11.6615 97.9665 21.8675C111.077 32.0735 108.515 47.3825 92.2405 56.0555C75.9655 64.7285 52.1445 63.4895 39.0335 53.2835C25.9225 43.0775 28.4845 27.7685 44.7595 19.0955Z" fill="#1D1D1D" stroke="#F3F3F3" stroke-width="0.4" stroke-linecap="round" stroke-linejoin="round"/>
<path d="M48.4765 21.9934C62.2035 14.6784 82.2935 15.7214 93.3465 24.3314C104.407 32.9414 102.244 45.8494 88.5165 53.1644C74.7895 60.4794 54.6995 59.4364 43.6465 50.8264C32.5865 42.2164 34.7495 29.3084 48.4765 21.9934Z" fill="#4C4C4C"/>
<path d="M61.7275 26.0601L63.5195 27.9851C67.4745 27.1521 71.0935 27.7541 74.3835 29.7841L70.9255 32.3321C68.5315 30.9811 66.4105 30.5821 64.5485 31.1421C63.6105 31.4221 63.0295 31.8281 62.7985 32.3601C62.5675 32.8921 62.6935 33.4171 63.1765 33.9351C63.6595 34.4531 64.3105 34.7821 65.1155 34.8941C65.9205 35.0131 67.4045 35.0061 69.5815 34.8871C71.9615 34.7471 73.9005 34.7121 75.3915 34.7821C76.8895 34.8521 78.2965 35.1391 79.6195 35.6501C80.9425 36.1611 82.0485 36.8891 82.9305 37.8341C84.2815 39.2901 84.7225 40.7111 84.2535 42.0971C83.7845 43.4831 82.3285 44.6521 79.8995 45.6041L82.2165 48.0961L78.9125 49.0901L76.6025 46.6051C72.0175 47.6271 67.8665 46.8431 64.1425 44.2601L68.4755 41.8801C70.6385 43.5531 73.0465 43.9941 75.7135 43.1891C76.9595 42.8181 77.6945 42.3421 77.9255 41.7751C78.1495 41.2081 78.0025 40.6551 77.4915 40.1021C76.9805 39.5491 76.2665 39.1851 75.4125 39.0661C74.5515 38.9471 72.8995 38.9681 70.4565 39.1221C68.2725 39.2761 66.4805 39.3111 65.0945 39.2201C63.7085 39.1431 62.3785 38.8491 61.0835 38.3381C59.7955 37.8271 58.7105 37.1061 57.8495 36.1821C56.7155 34.9641 56.2675 33.6901 56.4985 32.3671C56.7365 31.0511 57.9685 29.9171 60.2155 28.9581L58.4235 27.0331L61.7275 26.0391V26.0601Z" fill="#F3F3F3"/>
<path d="M68.4965 83.9683V91.2515L74.4693 91.2515" stroke="#F3F3F3" stroke-width="3" stroke-linecap="round" stroke-linejoin="round"/>
</svg>
