<svg width="24" height="24" fill="none" xmlns="http://www.w3.org/2000/svg"><mask id="a" style="mask-type:luminance" maskUnits="userSpaceOnUse" x="4" y="1" width="17" height="22"><path d="M21 1.09H4.636V22.91H21V1.091z" fill="#fff"/></mask><g mask="url(#a)" stroke="#D3D3D3" stroke-width=".818"><path d="M18.818 22.5h-12c-.979 0-1.773-.794-1.773-1.773V3.273c0-.98.794-1.773 1.773-1.773h7.194l6.579 6.579v12.648c0 .98-.794 1.773-1.773 1.773z" fill="#fff"/><path d="M13.91 1.636v4.91c0 .903.732 1.636 1.635 1.636h4.91" stroke-linecap="round"/></g><path d="M15 11.455H3a1.09 1.09 0 0 0-1.09 1.09v6.546c0 .602.487 1.09 1.09 1.09h12a1.09 1.09 0 0 0 1.09-1.09v-6.546a1.09 1.09 0 0 0-1.09-1.09z" fill="#01BC8D"/><path d="M4.701 13.354v4.976H3.676v-4.976H4.7zm1.983 2.126v.8H4.42v-.8h2.263zm.239-2.127v.804H4.42v-.803h2.502zm1.642 1.279v3.698h-.988v-3.698h.988zm-1.05-.964c0-.144.05-.262.151-.355.1-.094.235-.14.403-.14.167 0 .3.046.4.14a.46.46 0 0 1 .154.355.46.46 0 0 1-.154.355.563.563 0 0 1-.4.14.568.568 0 0 1-.403-.14.465.465 0 0 1-.15-.355zm2.973-.588v5.25H9.5v-5.25h.988zm2.585 5.318c-.287 0-.544-.045-.772-.136a1.696 1.696 0 0 1-.581-.387 1.718 1.718 0 0 1-.363-.57 1.922 1.922 0 0 1-.126-.698v-.136c0-.28.04-.537.12-.77.08-.232.193-.433.341-.604.15-.171.333-.302.547-.393.214-.094.456-.14.725-.14.262 0 .494.043.697.13.203.086.373.209.51.368.138.16.243.351.314.575.07.22.106.467.106.738v.41h-2.94v-.656h1.973v-.075a.853.853 0 0 0-.076-.366.58.58 0 0 0-.218-.26.677.677 0 0 0-.376-.096.63.63 0 0 0-.335.086.66.66 0 0 0-.23.24 1.3 1.3 0 0 0-.13.362 2.3 2.3 0 0 0-.04.45v.137c0 .149.02.285.061.41.044.126.104.234.181.325.08.091.176.162.288.212a.95.95 0 0 0 .386.075 1.2 1.2 0 0 0 .495-.102c.155-.07.289-.177.4-.318l.479.52a1.454 1.454 0 0 1-.318.32 1.695 1.695 0 0 1-.479.254c-.186.063-.4.095-.639.095z" fill="#fff"/></svg>