<svg width="15" height="16" viewBox="0 0 15 16" fill="none" xmlns="http://www.w3.org/2000/svg">
<path d="M8.19755 4.03908V3.87999H8.03846H6.96154H6.80245V4.03908V8.24267V8.31429L6.85607 8.36178L9.96551 11.1151L10.0846 11.2206L10.1901 11.1015L10.9037 10.2956L11.0092 10.1765L10.8901 10.071L8.19755 7.68608V4.03908ZM14.6591 8C14.6591 4.04598 11.454 0.840909 7.5 0.840909C3.54598 0.840909 0.340909 4.04598 0.340909 8C0.340909 11.954 3.54598 15.1591 7.5 15.1591C11.454 15.1591 14.6591 11.954 14.6591 8ZM1.73601 8C1.73601 4.81653 4.31653 2.23601 7.5 2.23601C10.6835 2.23601 13.264 4.81653 13.264 8C13.264 11.1835 10.6835 13.764 7.5 13.764C4.31653 13.764 1.73601 11.1835 1.73601 8Z" fill="#737E8D" stroke="#737E8D" stroke-width="0.318182"/>
</svg>
