<svg width="24" height="24" viewBox="0 0 24 24" fill="none" xmlns="http://www.w3.org/2000/svg">
<path d="M22 21.5C20 22.5 17.5228 23 12 23C6.47715 23 2 22.3284 2 21.5C2 20.6716 6.47715 20 12 20L16.7197 16.1652C18.0212 14.7008 19.2147 13.3991 20 13.5C22.1423 13.7751 24.8804 20.0598 22 21.5Z" fill="#8C8C8C" fill-opacity="0.1"/>
<path fill-rule="evenodd" clip-rule="evenodd" d="M17.1527 3.81244C16.1867 2.87659 15.0667 2.16476 13.7946 1.67675C12.5321 1.18847 11.2006 1.00067 9.88202 1.12487C8.54528 1.24648 7.29134 1.66356 6.12106 2.37485C4.95256 3.08489 3.96846 3.98815 3.17157 5.08437C2.3746 6.1795 1.77515 7.45463 1.37295 8.9065C0.970169 10.3498 0.830093 11.8778 0.961312 13.3965C1.09382 14.9714 1.48405 16.4365 2.13116 17.794C2.61547 18.817 3.2301 19.7502 3.95279 20.5629C4.17421 20.8119 5.96944 21.2063 6.5 21.3C15.0811 19.9583 19.1809 18.8514 19.3565 18.5184C19.7461 17.7791 20.0603 16.9865 20.2997 16.1411C20.7112 14.6862 20.8499 13.1741 20.7174 11.5992C20.5879 10.0601 20.2029 8.61092 19.5633 7.25273C18.9248 5.89554 18.1224 4.74794 17.1527 3.81244Z" fill="white" stroke="black" stroke-width="0.4793" stroke-miterlimit="10"/>
<path d="M2.66261 13.1929C2.79744 14.795 3.19474 16.2881 3.85468 17.6726C4.50479 19.0456 5.49577 20.2028 6.53587 21.1757L6.62028 21.2547L6.73495 21.237C11.5455 20.4944 15.1511 19.9054 17.578 19.4577C18.7909 19.2339 19.7133 19.0447 20.346 18.8886C20.6615 18.8108 20.9109 18.7397 21.0903 18.6751C21.1794 18.6429 21.2582 18.6099 21.3214 18.5752C21.3719 18.5476 21.4601 18.4946 21.5081 18.4036C21.906 17.6486 22.2263 16.8401 22.4701 15.9795L22.4701 15.9794C22.8898 14.4953 23.0308 12.9542 22.896 11.3519C22.7642 9.78516 22.372 8.30829 21.72 6.92378C21.0707 5.5436 20.2523 4.37147 19.2594 3.41365C18.2703 2.45544 17.1232 1.72654 15.8218 1.2273C14.526 0.726158 13.1576 0.532828 11.8015 0.660508M2.66261 13.1929C2.52901 11.6462 2.67157 10.0895 3.08219 8.61802C3.49121 7.14163 4.10234 5.83962 4.91819 4.71853C5.73417 3.59603 6.74221 2.67096 7.93773 1.9445C9.13868 1.21457 10.4277 0.785549 11.8015 0.660508M2.66261 13.1929C2.6626 13.1928 2.6626 13.1927 2.66259 13.1926L2.90125 13.1709L2.66263 13.1932C2.66263 13.1931 2.66262 13.193 2.66261 13.1929ZM11.8015 0.660508C11.8016 0.660496 11.8017 0.660485 11.8019 0.660473L11.822 0.899279L11.8011 0.660544C11.8012 0.660532 11.8014 0.66052 11.8015 0.660508Z" fill="white" stroke="black" stroke-width="0.4793" stroke-miterlimit="10"/>
<mask id="mask0_1758_25415" style="mask-type:alpha" maskUnits="userSpaceOnUse" x="2" y="0" width="21" height="21">
<path d="M18.9255 3.75971L18.9258 3.76006C19.8724 4.67325 20.6587 5.79632 21.2864 7.13051L21.2865 7.13059C21.9136 8.46243 22.2915 9.88383 22.4187 11.3953C22.5489 12.9429 22.4124 14.4259 22.0093 15.8516C21.7776 16.6696 21.4749 17.436 21.1012 18.1506C21.099 18.1519 21.0964 18.1533 21.0936 18.1549C21.0616 18.1724 21.009 18.1957 20.9306 18.224C20.7748 18.2802 20.5443 18.3465 20.2343 18.423C19.6159 18.5756 18.7047 18.7627 17.4943 18.986C15.094 19.4289 11.5324 20.0112 6.78019 20.7452C5.79659 19.8129 4.88595 18.7282 4.28766 17.4645L4.28738 17.464C3.65322 16.1336 3.27012 14.6967 3.13992 13.1492L3.13987 13.1487C3.01108 11.658 3.14866 10.159 3.54354 8.74401L3.54366 8.74356C3.93902 7.31637 4.52674 6.06823 5.30476 4.99914L5.30484 4.99904C6.08262 3.92909 7.04279 3.04765 8.18426 2.35403L8.18428 2.35402C9.3238 1.66143 10.5425 1.25631 11.8421 1.13809L11.8428 1.13802C13.1236 1.01738 14.418 1.19962 15.6469 1.67493L15.6475 1.67516C16.8902 2.15186 17.9829 2.84647 18.9255 3.75971ZM21.117 18.1403C21.1171 18.1403 21.1165 18.1408 21.1149 18.142C21.1162 18.1408 21.1169 18.1403 21.117 18.1403Z" fill="white" stroke="black" stroke-width="0.4793" stroke-miterlimit="10"/>
</mask>
<g mask="url(#mask0_1758_25415)">
<path d="M5 27L20.5 -2.5L30.5 8L34.5 25.5L5 27Z" fill="url(#paint0_linear_1758_25415)"/>
</g>
<path d="M10.2649 4.2623L11.2491 4L11.7737 6.02337L10.7895 6.28567L10.2649 4.2623Z" fill="black"/>
<path d="M7.11562 13.9084L5.28758 14.0011L5.17196 12.8461L6.99909 12.7536L7.11562 13.9084Z" fill="black"/>
<path d="M7.67265 9.17308L6.13526 7.92013L6.6993 7.00666L8.23368 8.25928L7.67265 9.17308Z" fill="black"/>
<path d="M14.9465 14.5908C14.8052 15.0312 14.5173 15.3926 14.1473 15.5942C13.7654 15.8089 13.3751 15.8359 12.9793 15.6756C12.5968 15.5299 12.288 15.207 12.1264 14.784C11.889 14.1543 11.9513 13.5541 12.3149 12.9858L11.186 8.0127L13.757 12.295C14.2969 12.3815 14.682 12.7051 14.9144 13.2639C15.0855 13.6963 15.0973 14.138 14.9465 14.5908Z" fill="black"/>
<path d="M15.8879 6.98423L14.9525 6.46925L15.6847 4.61256L16.6179 5.12698L15.8879 6.98423Z" fill="black"/>
<path d="M18.6663 10.8313L18.2083 9.76641L19.8444 8.93356L20.303 9.99719L18.666 10.8303L18.6663 10.8313Z" fill="black"/>
<defs>
<linearGradient id="paint0_linear_1758_25415" x1="6.5" y1="10.5" x2="20" y2="18" gradientUnits="userSpaceOnUse">
<stop stop-color="#66DD8C" stop-opacity="0"/>
<stop offset="1" stop-color="#66DD8C"/>
</linearGradient>
</defs>
</svg>
