<svg width="12" height="12" viewBox="0 0 12 12" fill="none" xmlns="http://www.w3.org/2000/svg">
<path fill-rule="evenodd" clip-rule="evenodd" d="M0.450195 6.0002C0.450195 2.94644 2.94644 0.450195 6.0002 0.450195C9.05395 0.450195 11.5502 2.94644 11.5502 6.0002C11.5502 9.05395 9.05395 11.5502 6.0002 11.5502C2.94644 11.5502 0.450195 9.05395 0.450195 6.0002ZM6.0002 1.5502C3.55395 1.5502 1.5502 3.55395 1.5502 6.0002C1.5502 8.44644 3.55395 10.4502 6.0002 10.4502C8.44644 10.4502 10.4502 8.44644 10.4502 6.0002C10.4502 3.55395 8.44644 1.5502 6.0002 1.5502ZM7.80406 4.19625C8.01885 4.41104 8.01885 4.75928 7.80406 4.97406L6.77797 6.00016L7.80406 7.02625C8.01885 7.24104 8.01885 7.58928 7.80406 7.80406C7.58928 8.01885 7.24104 8.01885 7.02625 7.80406L6.00016 6.77797L4.97406 7.80406C4.75928 8.01885 4.41104 8.01885 4.19625 7.80406C3.98146 7.58928 3.98146 7.24104 4.19625 7.02625L5.22234 6.00016L4.19625 4.97406C3.98146 4.75928 3.98146 4.41104 4.19625 4.19625C4.41104 3.98146 4.75928 3.98146 4.97406 4.19625L6.00016 5.22234L7.02625 4.19625C7.24104 3.98146 7.58928 3.98146 7.80406 4.19625Z" fill="#8C8C8C"/>
</svg>
