<svg width="16" height="16" viewBox="0 0 16 16" fill="none" xmlns="http://www.w3.org/2000/svg">
<path fill-rule="evenodd" clip-rule="evenodd" d="M3.33379 0.633789C2.55922 0.633789 1.84972 0.827905 1.33881 1.33881C0.827905 1.84972 0.633789 2.55922 0.633789 3.33379V4.66712C0.633789 5.44169 0.827905 6.15119 1.33881 6.6621C1.84972 7.17301 2.55922 7.36712 3.33379 7.36712H4.66712C5.44169 7.36712 6.15119 7.17301 6.6621 6.6621C7.17301 6.15119 7.36712 5.44169 7.36712 4.66712V3.33379C7.36712 2.55922 7.17301 1.84972 6.6621 1.33881C6.15119 0.827905 5.44169 0.633789 4.66712 0.633789H3.33379ZM2.03379 3.33379C2.03379 2.77502 2.17301 2.48452 2.32876 2.32876C2.48452 2.17301 2.77502 2.03379 3.33379 2.03379H4.66712C5.22589 2.03379 5.51639 2.17301 5.67215 2.32876C5.82791 2.48452 5.96712 2.77502 5.96712 3.33379V4.66712C5.96712 5.22589 5.82791 5.51639 5.67215 5.67215C5.51639 5.82791 5.22589 5.96712 4.66712 5.96712H3.33379C2.77502 5.96712 2.48452 5.82791 2.32876 5.67215C2.17301 5.51639 2.03379 5.22589 2.03379 4.66712V3.33379ZM11.3338 0.633789C10.5592 0.633789 9.84972 0.827905 9.33881 1.33881C8.82791 1.84972 8.63379 2.55922 8.63379 3.33379V4.66712C8.63379 5.44169 8.82791 6.15119 9.33881 6.6621C9.84972 7.17301 10.5592 7.36712 11.3338 7.36712H12.6671C13.4417 7.36712 14.1512 7.17301 14.6621 6.6621C15.173 6.15119 15.3671 5.44169 15.3671 4.66712V3.33379C15.3671 2.55922 15.173 1.84972 14.6621 1.33881C14.1512 0.827905 13.4417 0.633789 12.6671 0.633789H11.3338ZM10.0338 3.33379C10.0338 2.77502 10.173 2.48452 10.3288 2.32876C10.4845 2.17301 10.775 2.03379 11.3338 2.03379H12.6671C13.2259 2.03379 13.5164 2.17301 13.6721 2.32876C13.8279 2.48452 13.9671 2.77502 13.9671 3.33379V4.66712C13.9671 5.22589 13.8279 5.51639 13.6721 5.67215C13.5164 5.82791 13.2259 5.96712 12.6671 5.96712H11.3338C10.775 5.96712 10.4845 5.82791 10.3288 5.67215C10.173 5.51639 10.0338 5.22589 10.0338 4.66712V3.33379ZM9.33881 9.33881C9.84972 8.82791 10.5592 8.63379 11.3338 8.63379H12.6671C13.4417 8.63379 14.1512 8.82791 14.6621 9.33881C15.173 9.84972 15.3671 10.5592 15.3671 11.3338V12.6671C15.3671 13.4417 15.173 14.1512 14.6621 14.6621C14.1512 15.173 13.4417 15.3671 12.6671 15.3671H11.3338C10.5592 15.3671 9.84972 15.173 9.33881 14.6621C8.82791 14.1512 8.63379 13.4417 8.63379 12.6671V11.3338C8.63379 10.5592 8.82791 9.84972 9.33881 9.33881ZM10.3288 10.3288C10.173 10.4845 10.0338 10.775 10.0338 11.3338V12.6671C10.0338 13.2259 10.173 13.5164 10.3288 13.6721C10.4845 13.8279 10.775 13.9671 11.3338 13.9671H12.6671C13.2259 13.9671 13.5164 13.8279 13.6721 13.6721C13.8279 13.5164 13.9671 13.2259 13.9671 12.6671V11.3338C13.9671 10.775 13.8279 10.4845 13.6721 10.3288C13.5164 10.173 13.2259 10.0338 12.6671 10.0338H11.3338C10.775 10.0338 10.4845 10.173 10.3288 10.3288ZM3.33379 8.63379C2.55922 8.63379 1.84972 8.82791 1.33881 9.33881C0.827905 9.84972 0.633789 10.5592 0.633789 11.3338V12.6671C0.633789 13.4417 0.827905 14.1512 1.33881 14.6621C1.84972 15.173 2.55922 15.3671 3.33379 15.3671H4.66712C5.44169 15.3671 6.15119 15.173 6.6621 14.6621C7.17301 14.1512 7.36712 13.4417 7.36712 12.6671V11.3338C7.36712 10.5592 7.17301 9.84972 6.6621 9.33881C6.15119 8.82791 5.44169 8.63379 4.66712 8.63379H3.33379ZM2.03379 11.3338C2.03379 10.775 2.17301 10.4845 2.32876 10.3288C2.48452 10.173 2.77502 10.0338 3.33379 10.0338H4.66712C5.22589 10.0338 5.51639 10.173 5.67215 10.3288C5.82791 10.4845 5.96712 10.775 5.96712 11.3338V12.6671C5.96712 13.2259 5.82791 13.5164 5.67215 13.6721C5.51639 13.8279 5.22589 13.9671 4.66712 13.9671H3.33379C2.77502 13.9671 2.48452 13.8279 2.32876 13.6721C2.17301 13.5164 2.03379 13.2259 2.03379 12.6671V11.3338Z" fill="#8C8C8C"/>
</svg>
