<svg width="16" height="16" viewBox="0 0 16 16" fill="none" xmlns="http://www.w3.org/2000/svg">
<path d="M1.99992 5.99967C2.36811 5.99967 2.66659 5.7012 2.66659 5.33301V3.33301C2.66659 2.96482 2.96506 2.66634 3.33325 2.66634H5.33325C5.70144 2.66634 5.99992 2.36786 5.99992 1.99967C5.99992 1.63148 5.70144 1.33301 5.33325 1.33301H3.33325C2.22868 1.33301 1.33325 2.22844 1.33325 3.33301V5.33301C1.33325 5.7012 1.63173 5.99967 1.99992 5.99967Z" fill="#8C8C8C"/>
<path d="M2.66659 10.6663C2.66659 10.2982 2.36811 9.99968 1.99992 9.99968C1.63173 9.99968 1.33325 10.2982 1.33325 10.6663V12.6663C1.33325 13.7709 2.22868 14.6663 3.33325 14.6663H5.33325C5.70144 14.6663 5.99992 14.3679 5.99992 13.9997C5.99992 13.6315 5.70144 13.333 5.33325 13.333H3.33325C2.96506 13.333 2.66659 13.0345 2.66659 12.6663V10.6663Z" fill="#8C8C8C"/>
<path d="M13.3333 10.6663C13.3333 10.2982 13.6317 9.99968 13.9999 9.99968C14.3681 9.99968 14.6666 10.2982 14.6666 10.6663V12.6663C14.6666 13.7709 13.7712 14.6663 12.6666 14.6663H10.6666C10.2984 14.6663 9.99992 14.3679 9.99992 13.9997C9.99992 13.6315 10.2984 13.333 10.6666 13.333H12.6666C13.0348 13.333 13.3333 13.0345 13.3333 12.6663V10.6663Z" fill="#8C8C8C"/>
<path d="M13.3333 5.33301C13.3333 5.7012 13.6317 5.99967 13.9999 5.99967C14.3681 5.99967 14.6666 5.7012 14.6666 5.33301V3.33301C14.6666 2.22844 13.7712 1.33301 12.6666 1.33301H10.6666C10.2984 1.33301 9.99992 1.63148 9.99992 1.99967C9.99992 2.36786 10.2984 2.66634 10.6666 2.66634H12.6666C13.0348 2.66634 13.3333 2.96482 13.3333 3.33301V5.33301Z" fill="#8C8C8C"/>
</svg>
