<svg width="16" height="16" viewBox="0 0 16 16" fill="none" xmlns="http://www.w3.org/2000/svg">
<path fill-rule="evenodd" clip-rule="evenodd" d="M4.3334 0.733398C4.66477 0.733398 4.9334 1.00203 4.9334 1.3334V2.7334H5.00007C5.62394 2.7334 6.14448 2.92533 6.49618 3.3333C6.83357 3.72467 6.9334 4.22124 6.9334 4.66673V10.6667C6.9334 11.1122 6.83357 11.6088 6.49618 12.0002C6.14448 12.4081 5.62394 12.6001 5.00007 12.6001H4.9334V14.6671C4.9334 14.9984 4.66477 15.2671 4.3334 15.2671C4.00203 15.2671 3.7334 14.9984 3.7334 14.6671V12.6001H3.66673C3.04286 12.6001 2.52232 12.4081 2.17062 12.0002C1.83323 11.6088 1.7334 11.1122 1.7334 10.6667V4.66673C1.7334 4.22124 1.83323 3.72467 2.17062 3.3333C2.52232 2.92533 3.04286 2.7334 3.66673 2.7334H3.7334V1.3334C3.7334 1.00203 4.00203 0.733398 4.3334 0.733398ZM4.33286 3.9334H3.66673C3.29061 3.9334 3.14448 4.04146 3.07951 4.11683C3.00023 4.20879 2.9334 4.37889 2.9334 4.66673V5.16016H3.83008V6.16016H2.9334V7.16016H3.83008V8.16016H2.9334V9.16016H3.83008V10.1602H2.9334V10.6667C2.9334 10.9546 3.00023 11.1247 3.07951 11.2166C3.14448 11.292 3.29061 11.4001 3.66673 11.4001H5.00007C5.37619 11.4001 5.52232 11.292 5.58729 11.2166C5.66656 11.1247 5.7334 10.9546 5.7334 10.6667V10.1602H4.83008V9.16016H5.7334V8.16016H4.83008V7.16016H5.7334V6.16016H4.83008V5.16016H5.7334V4.66673C5.7334 4.37889 5.66656 4.20879 5.58729 4.11683C5.52232 4.04146 5.37619 3.9334 5.00007 3.9334H4.33394L4.3334 3.9334L4.33286 3.9334ZM4.83008 5.16016H3.83008V4.16016H4.83008V5.16016ZM4.83008 6.16016V7.16016H3.83008V6.16016H4.83008ZM4.83008 8.16016V9.16016H3.83008V8.16016H4.83008ZM4.83008 10.1602V11.1602H3.83008V10.1602H4.83008ZM11.0674 14.6674V13.2671H11.0007C10.3768 13.2671 9.8563 13.0751 9.5046 12.6672C9.16721 12.2758 9.06738 11.7792 9.06738 11.3337V7.33372C9.06738 6.88824 9.16721 6.39167 9.5046 6.00029C9.8563 5.59233 10.3768 5.40039 11.0007 5.40039H11.0674V1.3334C11.0674 1.00203 11.336 0.733398 11.6674 0.733398C11.9988 0.733398 12.2674 1.00203 12.2674 1.3334V5.40039H12.334C12.9579 5.40039 13.4785 5.59233 13.8302 6.00029C14.1676 6.39167 14.2674 6.88824 14.2674 7.33372V11.3337C14.2674 11.7792 14.1676 12.2758 13.8302 12.6672C13.4785 13.0751 12.9579 13.2671 12.334 13.2671H12.2674V14.6674C12.2674 14.9988 11.9988 15.2674 11.6674 15.2674C11.336 15.2674 11.0674 14.9988 11.0674 14.6674ZM10.4135 6.78382C10.3342 6.87578 10.2674 7.04588 10.2674 7.33372V11.3337C10.2674 11.6216 10.3342 11.7917 10.4135 11.8836C10.4785 11.959 10.6246 12.0671 11.0007 12.0671H12.334C12.7102 12.0671 12.8563 11.959 12.9213 11.8836C13.0005 11.7917 13.0674 11.6216 13.0674 11.3337V7.33372C13.0674 7.04588 13.0005 6.87578 12.9213 6.78382C12.8563 6.70846 12.7102 6.60039 12.334 6.60039H11.0007C10.6246 6.60039 10.4785 6.70846 10.4135 6.78382Z" fill="#8C8C8C"/>
</svg>
