<svg width="16" height="16" viewBox="0 0 16 16" fill="none" xmlns="http://www.w3.org/2000/svg">
<path fill-rule="evenodd" clip-rule="evenodd" d="M4.9334 1.3334C4.9334 1.00203 4.66477 0.733398 4.3334 0.733398C4.00203 0.733398 3.7334 1.00203 3.7334 1.3334V2.7334H3.66673C3.04286 2.7334 2.52232 2.92533 2.17062 3.3333C1.83323 3.72467 1.7334 4.22124 1.7334 4.66673V13.6667C1.7334 14.1122 1.83323 14.6088 2.17062 15.0002C2.52232 15.4081 3.04286 15.6001 3.66673 15.6001H5.00007C5.62394 15.6001 6.14448 15.4081 6.49618 15.0002C6.83357 14.6088 6.9334 14.1122 6.9334 13.6667V4.66673C6.9334 4.22124 6.83357 3.72467 6.49618 3.3333C6.14448 2.92533 5.62394 2.7334 5.00007 2.7334H4.9334V1.3334ZM3.66673 3.9334H4.33286L4.3334 3.9334L4.33394 3.9334H5.00007C5.37619 3.9334 5.52232 4.04146 5.58729 4.11683C5.66656 4.20879 5.7334 4.37889 5.7334 4.66673V13.6667C5.7334 13.9546 5.66656 14.1247 5.58729 14.2166C5.52232 14.292 5.37619 14.4001 5.00007 14.4001H3.66673C3.29061 14.4001 3.14448 14.292 3.07951 14.2166C3.00023 14.1247 2.9334 13.9546 2.9334 13.6667V4.66673C2.9334 4.37889 3.00023 4.20879 3.07951 4.11683C3.14448 4.04146 3.29061 3.9334 3.66673 3.9334ZM12.2674 1.3334C12.2674 1.00203 11.9988 0.733398 11.6674 0.733398C11.336 0.733398 11.0674 1.00203 11.0674 1.3334V5.40039H11.0007C10.3768 5.40039 9.8563 5.59233 9.5046 6.00029C9.16721 6.39167 9.06738 6.88824 9.06738 7.33372V11.3337C9.06738 11.7792 9.16721 12.2758 9.5046 12.6672C9.8563 13.0751 10.3768 13.2671 11.0007 13.2671H12.334C12.9579 13.2671 13.4785 13.0751 13.8302 12.6672C14.1676 12.2758 14.2674 11.7792 14.2674 11.3337V7.33372C14.2674 6.88824 14.1676 6.39167 13.8302 6.00029C13.4785 5.59233 12.9579 5.40039 12.334 5.40039H12.2674V1.3334ZM10.2674 7.33372C10.2674 7.04588 10.3342 6.87578 10.4135 6.78382C10.4785 6.70846 10.6246 6.60039 11.0007 6.60039H12.334C12.7102 6.60039 12.8563 6.70846 12.9213 6.78382C13.0005 6.87578 13.0674 7.04588 13.0674 7.33372V11.3337C13.0674 11.6216 13.0005 11.7917 12.9213 11.8836C12.8563 11.959 12.7102 12.0671 12.334 12.0671H11.0007C10.6246 12.0671 10.4785 11.959 10.4135 11.8836C10.3342 11.7917 10.2674 11.6216 10.2674 11.3337V7.33372Z" fill="#8C8C8C"/>
</svg>
