<svg width="16" height="16" viewBox="0 0 16 16" fill="none" xmlns="http://www.w3.org/2000/svg">
<path fill-rule="evenodd" clip-rule="evenodd" d="M11.9004 0.400391C12.2318 0.400391 12.5004 0.66902 12.5004 1.00039V9.15039H14.5004C14.8318 9.15039 15.1004 9.41902 15.1004 9.75039C15.1004 10.0818 14.8318 10.3504 14.5004 10.3504H12.5004V14.1254C12.5004 14.4568 12.2318 14.7254 11.9004 14.7254C11.569 14.7254 11.3004 14.4568 11.3004 14.1254V4.22539H9.30039C8.96902 4.22539 8.70039 3.95676 8.70039 3.62539C8.70039 3.29402 8.96902 3.02539 9.30039 3.02539H11.3004V1.00039C11.3004 0.66902 11.569 0.400391 11.9004 0.400391ZM4.10039 1.27539C4.43176 1.27539 4.70039 1.54402 4.70039 1.87539V4.77539H6.70039C7.03176 4.77539 7.30039 5.04402 7.30039 5.37539C7.30039 5.70676 7.03176 5.97539 6.70039 5.97539H4.70039V15.0004C4.70039 15.3318 4.43176 15.6004 4.10039 15.6004C3.76902 15.6004 3.50039 15.3318 3.50039 15.0004V13.8504H1.50039C1.16902 13.8504 0.900391 13.5818 0.900391 13.2504C0.900391 12.919 1.16902 12.6504 1.50039 12.6504H3.50039V1.87539C3.50039 1.54402 3.76902 1.27539 4.10039 1.27539Z" fill="#8C8C8C"/>
</svg>
