<svg width="16" height="16" viewBox="0 0 16 16" fill="none" xmlns="http://www.w3.org/2000/svg">
<path fill-rule="evenodd" clip-rule="evenodd" d="M6.957 2.75624C6.86059 2.53981 6.64585 2.40039 6.40892 2.40039C6.172 2.40039 5.95726 2.53981 5.86084 2.75624L5.13619 4.38292L5.04791 4.18474C4.9515 3.96831 4.73676 3.82889 4.49983 3.82889C4.2629 3.82889 4.04816 3.96831 3.95175 4.18474L2.67903 7.04174C2.54418 7.34443 2.68025 7.69912 2.98295 7.83397C3.28564 7.96881 3.64034 7.83274 3.77518 7.53005L4.49983 5.90336L4.58812 6.10155C4.68453 6.31797 4.89927 6.45739 5.13619 6.45739C5.37312 6.45739 5.58786 6.31797 5.68427 6.10155L6.40892 4.47486L7.76994 7.53005C7.90478 7.83274 8.25947 7.96881 8.56217 7.83397C8.86486 7.69912 9.00093 7.34443 8.86609 7.04174L6.957 2.75624ZM1 9.31328H1.04762C1.37899 9.31328 1.64762 9.04465 1.64762 8.71328C1.64762 8.38191 1.37899 8.11328 1.04762 8.11328H1V9.31328ZM2.95238 8.11328C2.62101 8.11328 2.35238 8.38191 2.35238 8.71328C2.35238 9.04465 2.62101 9.31328 2.95238 9.31328H3.04762C3.37899 9.31328 3.64762 9.04465 3.64762 8.71328C3.64762 8.38191 3.37899 8.11328 3.04762 8.11328H2.95238ZM4.95238 8.11328C4.62101 8.11328 4.35238 8.38191 4.35238 8.71328C4.35238 9.04465 4.62101 9.31328 4.95238 9.31328H5.04762C5.37899 9.31328 5.64762 9.04465 5.64762 8.71328C5.64762 8.38191 5.37899 8.11328 5.04762 8.11328H4.95238ZM6.95238 8.11328C6.62101 8.11328 6.35238 8.38191 6.35238 8.71328C6.35238 9.04465 6.62101 9.31328 6.95238 9.31328H7.04762C7.37899 9.31328 7.64762 9.04465 7.64762 8.71328C7.64762 8.38191 7.37899 8.11328 7.04762 8.11328H6.95238ZM8.95238 8.11328C8.62101 8.11328 8.35238 8.38191 8.35238 8.71328C8.35238 9.04465 8.62101 9.31328 8.95238 9.31328H9.04762C9.37899 9.31328 9.64762 9.04465 9.64762 8.71328C9.64762 8.38191 9.37899 8.11328 9.04762 8.11328H8.95238ZM10.9524 8.11328C10.621 8.11328 10.3524 8.38191 10.3524 8.71328C10.3524 9.04465 10.621 9.31328 10.9524 9.31328H11.0476C11.379 9.31328 11.6476 9.04465 11.6476 8.71328C11.6476 8.38191 11.379 8.11328 11.0476 8.11328H10.9524ZM12.9524 8.11328C12.621 8.11328 12.3524 8.38191 12.3524 8.71328C12.3524 9.04465 12.621 9.31328 12.9524 9.31328H13.0476C13.379 9.31328 13.6476 9.04465 13.6476 8.71328C13.6476 8.38191 13.379 8.11328 13.0476 8.11328H12.9524ZM14.9524 8.11328C14.621 8.11328 14.3524 8.38191 14.3524 8.71328C14.3524 9.04465 14.621 9.31328 14.9524 9.31328H15V8.11328H14.9524ZM2.19844 9.59504C2.50114 9.72988 2.63721 10.0846 2.50236 10.3873L1.866 11.8158C1.73116 12.1185 1.37646 12.2545 1.07377 12.1197C0.771073 11.9849 0.635003 11.6302 0.769846 11.3275L1.40621 9.89896C1.54105 9.59627 1.89575 9.4602 2.19844 9.59504ZM14.593 6.10212C14.7278 5.79942 14.5918 5.44473 14.2891 5.30989C13.9864 5.17504 13.6317 5.31111 13.4969 5.61381L12.8605 7.04231C12.7256 7.345 12.8617 7.6997 13.1644 7.83454C13.4671 7.96938 13.8218 7.83331 13.9566 7.53062L14.593 6.10212ZM10.1385 9.89931C10.0036 9.59661 9.64892 9.46054 9.34623 9.59539C9.04353 9.73023 8.90746 10.0849 9.04231 10.3876L10.315 13.2446C10.4114 13.461 10.6262 13.6005 10.8631 13.6005C11.1 13.6005 11.3148 13.461 11.4112 13.2446L12.6839 10.3876C12.8188 10.0849 12.6827 9.73023 12.38 9.59539C12.0773 9.46054 11.7226 9.59661 11.5878 9.89931L10.8631 11.526L10.1385 9.89931Z" fill="#8C8C8C"/>
</svg>
