<svg width="14" height="14" viewBox="0 0 14 14" fill="none" xmlns="http://www.w3.org/2000/svg">
<path fill-rule="evenodd" clip-rule="evenodd" d="M2.33268 2.91634C2.33268 1.62768 3.37735 0.583008 4.66602 0.583008H10.4993C11.788 0.583008 12.8327 1.62768 12.8327 2.91634V11.083C12.8327 12.3717 11.788 13.4163 10.4993 13.4163H4.66602C3.37735 13.4163 2.33268 12.3717 2.33268 11.083V10.4997H1.74935C1.42718 10.4997 1.16602 10.2385 1.16602 9.91634C1.16602 9.59418 1.42718 9.33301 1.74935 9.33301H2.33268V7.58301H1.74935C1.42718 7.58301 1.16602 7.32184 1.16602 6.99967C1.16602 6.67751 1.42718 6.41634 1.74935 6.41634H2.33268V4.66634H1.74935C1.42718 4.66634 1.16602 4.40517 1.16602 4.08301C1.16602 3.76084 1.42718 3.49967 1.74935 3.49967H2.33268V2.91634ZM3.49935 10.4997H4.08268C4.40485 10.4997 4.66602 10.2385 4.66602 9.91634C4.66602 9.59418 4.40485 9.33301 4.08268 9.33301H3.49935V7.58301H4.08268C4.40485 7.58301 4.66602 7.32184 4.66602 6.99967C4.66602 6.67751 4.40485 6.41634 4.08268 6.41634H3.49935V4.66634H4.08268C4.40485 4.66634 4.66602 4.40517 4.66602 4.08301C4.66602 3.76084 4.40485 3.49967 4.08268 3.49967H3.49935V2.91634C3.49935 2.27201 4.02168 1.74967 4.66602 1.74967H9.33268V12.2497H4.66602C4.02168 12.2497 3.49935 11.7273 3.49935 11.083V10.4997ZM11.666 11.083C11.666 11.7273 11.1437 12.2497 10.4993 12.2497V1.74967C11.1437 1.74967 11.666 2.27201 11.666 2.91634V11.083Z" fill="#8C8C8C"/>
</svg>
