<svg width="20" height="20" viewBox="0 0 20 20" fill="none" xmlns="http://www.w3.org/2000/svg">
<path fill-rule="evenodd" clip-rule="evenodd" d="M7.24195 10.0016L12.1077 14.7412L15.1789 11.75C15.7281 11.2684 16.5683 11.2899 17.0908 11.7988C17.6134 12.3077 17.6354 13.126 17.1409 13.6609L13.0879 17.6089C12.5435 18.1304 11.6703 18.1304 11.1259 17.6089L5.27847 11.9124V15.2983C5.27847 16.0455 4.65648 16.6513 3.88923 16.6513C3.12198 16.6513 2.5 16.0455 2.5 15.2983V4.70054C2.5 3.9533 3.12198 3.34753 3.88923 3.34753C4.65648 3.34753 5.27847 3.9533 5.27847 4.70054V8.08638L11.1252 2.39138C11.6694 1.86954 12.5429 1.86954 13.0871 2.39138L17.1432 6.33871C17.6377 6.87357 17.6157 7.69185 17.0931 8.20078C16.5705 8.70971 15.7304 8.73114 15.1812 8.24954L12.1099 5.25836L7.24195 10.0016ZM12.1099 8.64714C11.5474 8.64684 11.04 8.97666 10.8245 9.48277C10.609 9.98888 10.7278 10.5716 11.1255 10.9591C11.5232 11.3467 12.1214 11.4627 12.6412 11.2531C13.161 11.0435 13.4999 10.5495 13.4999 10.0016C13.5001 9.64239 13.3538 9.29779 13.0931 9.04364C12.8324 8.78949 12.4788 8.6466 12.1099 8.6464V8.64714Z" fill="#F3F3F3"/>
</svg>
