<svg width="24" height="24" viewBox="0 0 24 24" fill="none" xmlns="http://www.w3.org/2000/svg">
<circle cx="12" cy="12" r="12" fill="#8C8C8C" fill-opacity="0.1"/>
<path d="M9.96046 12L13.513 15.5526L15.7579 13.3076C16.1514 12.9142 16.7994 12.9142 17.1929 13.3076C17.5863 13.7011 17.5863 14.3491 17.1929 14.7425L14.2305 17.7049C13.837 18.0984 13.189 18.0984 12.7956 17.7049L8.53713 13.4349V15.9807C8.53713 16.5362 8.08583 16.999 7.51881 16.999C6.95179 16.999 6.50049 16.5477 6.50049 15.9807V8.04243C6.50049 7.47541 6.95179 7.02411 7.51881 7.02411C8.08583 7.02411 8.53713 7.47541 8.53713 8.04243V10.5651L12.8071 6.29508C13.2006 5.90164 13.8486 5.90164 14.242 6.29508L17.2044 9.25747C17.5979 9.65092 17.5979 10.2989 17.2044 10.6924C16.811 11.0858 16.163 11.0858 15.7695 10.6924L13.5246 8.44745L9.96046 12ZM13.5246 10.9817C12.9576 10.9817 12.5063 11.433 12.5063 12C12.5063 12.567 12.9576 13.0183 13.5246 13.0183C14.0916 13.0183 14.5429 12.567 14.5429 12C14.5313 11.433 14.08 10.9817 13.5246 10.9817Z" fill="#8C8C8C" fill-opacity="0.4"/>
</svg>
