<svg height="172" viewBox="0 0 172 172" width="172" xmlns="http://www.w3.org/2000/svg" xmlns:xlink="http://www.w3.org/1999/xlink"><linearGradient id="a"><stop offset="0" stop-color="#084d40" stop-opacity=".634315"/><stop offset="1" stop-color="#118faa" stop-opacity=".244974"/></linearGradient><linearGradient id="b" x1="69.373509%" x2="33.419951%" xlink:href="#a" y1="100%" y2=".353674%"/><linearGradient id="c" x1="75.832146%" x2="27.892583%" xlink:href="#a" y1="66.775536%" y2="33.343125%"/><linearGradient id="d"><stop offset="0" stop-color="#58ccb6" stop-opacity=".634315"/><stop offset="1" stop-color="#03d2fe" stop-opacity=".244974"/></linearGradient><linearGradient id="e" x1="75.832146%" x2="27.892583%" xlink:href="#d" y1="66.738975%" y2="33.379428%"/><linearGradient id="f" x1="75.832146%" x2="27.892583%" xlink:href="#d" y1="66.810652%" y2="33.308258%"/><linearGradient id="g" x1="74.025238%" x2="27.722431%" y1="84.114998%" y2="13.11429%"><stop offset="0" stop-color="#58ccb6"/><stop offset="1" stop-color="#03d2fe" stop-opacity=".396471"/></linearGradient><g fill="none" fill-rule="evenodd"><path d="m0 0h172v172h-172z" fill="none" opacity=".747466"/><g transform="translate(22 32)"><path d="m63.5994 12.7271-41.617 24.186 41.889 24.184z" fill="url(#b)"/><path d="m63.5994 12.7271-41.617 24.186 41.889 24.184 41.618-24.184z" fill="url(#c)"/><path d="m43.3708 73.1031 20.469-11.896-41.891-24.185-20.468 11.895z" fill="url(#e)"/><path d="m63.5281 12.6509-21.911-12.65-41.617 24.185 21.912 12.651z" fill="url(#f)"/><path d="m63.5994 12.7271 21.911-12.651 41.617 24.185-21.912 12.651z" fill="url(#f)"/><path d="m105.4888 36.9113-.136 47.656-41.6154 24.183.001.0017-.0016-.0007-.0004-.001-41.89-24.1843.137-47.653 41.888 24.183-.068 23.8613.0684-23.861z" fill="url(#g)"/><path d="m127.1599 49.6734-21.911-12.651-41.617 24.185 21.911 12.651z" fill="url(#f)"/></g></g></svg>