<svg height="172" viewBox="0 0 172 172" width="172" xmlns="http://www.w3.org/2000/svg" xmlns:xlink="http://www.w3.org/1999/xlink"><linearGradient id="a"><stop offset="0" stop-color="#58ccb6"/><stop offset="1" stop-color="#03d2fe" stop-opacity=".396471"/></linearGradient><linearGradient id="b" x1="74.025238%" x2="27.722431%" xlink:href="#a" y1="59.253072%" y2="39.995423%"/><linearGradient id="c" x1="74.025238%" x2="27.722431%" xlink:href="#a" y1="74.259205%" y2="23.77054%"/><linearGradient id="d" x1="74.025238%" x2="27.722431%" xlink:href="#a" y1="82.909169%" y2="14.418052%"/><linearGradient id="e" x1="74.025238%" x2="27.722431%" xlink:href="#a" y1="74.04768%" y2="23.999244%"/><linearGradient id="f" x1="74.025238%" x2="27.722431%" xlink:href="#a" y1="65.651867%" y2="33.076938%"/><linearGradient id="g" x1="74.025238%" x2="27.722431%" xlink:href="#a" y1="65.51508%" y2="33.224835%"/><g fill="none" fill-rule="evenodd"><path d="m0 0h172v172h-172z" fill="#d8d8d8" fill-opacity=".408435" opacity="0"/><path d="m47.1615 67.8986 21.3577 12.33 7.1153-4.136-.011 4.136-.0115 4.095 28.374 16.381v-.002l21.0675-12.562 6.9465 3.8594-28 17-35.5045-20.6209-28.38-16.385z" fill="url(#b)"/><path d="m75.681 59.8636 28.374 16.382 27.945-16.2456v24l-28.014 16.7026v.002l-28.374-16.381z" fill="url(#c)"/><path d="m132 92v41l-28.1528 16.61.115-40.754zm-92-20 63.9622 36.856-.115 40.754-63.8472-40.61z" fill="url(#d)"/><path d="m40.2082 39.3836 28.38 16.385 28.191-16.383-.023 8.23-21.075 12.247-.0002.001-.0468 16.229-7.115 4.134v.002l-28.381-16.385z" fill="url(#e)"/><path d="m75.6809 59.8638 28.192-16.383 28.1271 16.5192-27.9451 16.2458z" fill="url(#f)"/><path d="m40.2078 39.3833 28.192-16.383 28.38 16.385-28.192 16.383z" fill="url(#g)"/></g></svg>