<svg height="136" viewBox="0 0 286 136" width="286" xmlns="http://www.w3.org/2000/svg" xmlns:xlink="http://www.w3.org/1999/xlink"><radialGradient id="a" cx="19.330116%" cy="12.168226%" gradientTransform="matrix(-.36780155 .71065701 -.33462107 -.63365895 .305115 .061416)" r="95.258867%"><stop offset="0" stop-color="#21947e" stop-opacity=".48"/><stop offset="1" stop-color="#58ccb6" stop-opacity=".32"/></radialGradient><path d="m44.3172798 344.63456-59 59-81.3172798-81.31728 81.3172798-81.31728 22.00000004 22 58.99999996-59 81.3172802 81.31728-81.3172802 81.31728zm-.7071067-.707107-58.6101731-58.610173 21.61017306-21.610173-21.29289326-21.292893-79.9030662 79.903066 79.9030662 79.903066zm1.4142135 0 21.2928932 21.292893 79.9030662-79.903066-79.9030662-79.903066-58.29289318 58.292893 58.61017308 58.610173zm-.7071068-.707107 20.9030663-20.903066-57.90306626-57.903066-20.90306624 20.903066zm197.0000002-102.450793 44.547727 44.547727-44.547727 44.547727-44.547727-44.547727zm0 1.414213-43.133514 43.133514 43.133514 43.133513 43.133513-43.133513z" fill="url(#a)" transform="translate(0 -204)"/></svg>