<svg height="340" viewBox="0 0 592 340" width="592" xmlns="http://www.w3.org/2000/svg" xmlns:xlink="http://www.w3.org/1999/xlink"><radialGradient id="a" cx="56.528737%" cy="21.359316%" gradientTransform="matrix(-.55380539 .60068963 -.21474209 -.41259843 .924213 -.037841)" r="83.785304%"><stop offset="0" stop-color="#065445" stop-opacity=".64"/><stop offset="1" stop-color="#58ccb6" stop-opacity=".32"/></radialGradient><path d="m154.67693 384.933243 93.566757 93.566757-123.743687 123.743687-123.74368671-123.743687 94.06675681-94.066757-50.4332432-50.433243 80.6101731-80.610173 80.610173 80.610173zm-.707107.707107-28.969823 28.969823-29.4698231-29.469823-93.35965005 93.35965 122.32947315 122.329473 122.329473-122.329473zm0-1.414214 50.226136-50.226136-79.195959-79.195959-79.1959595 79.195959 49.7261364 49.726136 28.9698231-28.969823zm-.707107.707107-28.762716-28.762716-28.2627163 28.262716 28.7627163 28.762716zm230.259145-64.092623 42.478139 42.478139 60-60 87.681241 87.681241-87.681241 87.681241-73-73-60 60-87.681241-87.681241 57.15938-57.15938-144.840621-144.84062 175.362482-175.36248173 149.84062 149.84062073 35.15938-35.15938 53.5 53.5 112.281746-112.2817458 165.462987 165.4629868-165.462987 165.462987-131.281746-131.281746-34.5 34.5-62.15938-62.15938zm-.707106-.707106 92.318759-92.318759-24.814755-24.814755 51.814755-51.814755-149.133514-149.13351317-173.948268 173.94826817 144.133513 144.133514 29.814755-29.814755zm0 1.414213-29.814755 29.814755-29.814755-29.814755-56.452272 56.452273 86.267027 86.267027 59.292893-59.292893-13.974134-13.974134 26.974134-26.974134zm-.707107-.707107-29.107648-29.107647-29.107648 29.107647 29.107648 29.107648zm121.440079-169.655375 24.814755 24.814755-51.814755 51.814755 61.452273 61.452272 33.792893-33.792893-33.474134-33.474134 52.474134-52.474134-52.792893-52.792893zm-.707107.707107-51.107647 51.107648 24.107647 24.107648 51.107648-51.107648zm-89.133513 253.081782 72.292893 72.292893 86.267027-86.267027-86.267027-86.267027-59.292893 59.292893 13.974134 13.974134zm-.707107-.707107 26.267027-26.267027-13.267027-13.267027-26.267027 26.267027zm179.207107-234.741161 33.474134 33.474134-52.474134 52.474134 130.574639 130.574639 164.048773-164.048773-164.048773-164.0487732zm-.707107.707107-51.767027 51.767027 32.767027 32.767027 51.767027-51.767027z" fill="url(#a)" transform="translate(0 -165)"/></svg>