<svg height="148" viewBox="0 0 148 148" width="148" xmlns="http://www.w3.org/2000/svg" xmlns:xlink="http://www.w3.org/1999/xlink"><linearGradient id="a"><stop offset="0" stop-color="#58ccb6" stop-opacity=".634315"/><stop offset="1" stop-color="#03d2fe" stop-opacity=".244974"/></linearGradient><linearGradient id="b" x1="54.983194%" x2="45.735332%" xlink:href="#a" y1="100%" y2=".353674%"/><linearGradient id="c" x1="75.832146%" x2="27.892583%" xlink:href="#a" y1="67.524328%" y2="32.59963%"/><linearGradient id="d" x1="53.13008%" x2="47.321245%" xlink:href="#a" y1="100%" y2=".353674%"/><linearGradient id="e" x1="75.832146%" x2="27.892583%" xlink:href="#a" y1="82.402895%" y2="17.826306%"/><linearGradient id="f" x1="61.091832%" x2="40.507496%" xlink:href="#a" y1="100%" y2=".353674%"/><linearGradient id="g" x1="62.709244%" x2="38.215265%" y1="96.244193%" y2="0%"><stop offset="0" stop-color="#58ccb6"/><stop offset="1" stop-color="#03d2fe" stop-opacity=".396471"/></linearGradient><mask id="h" fill="#fff"><path d="m.7.5802h6.76v19.4198h-6.76z" fill="#fff" fill-rule="evenodd"/></mask><mask id="i" fill="#fff"><path d="m.9901.7406h54.6299v83.37h-54.6299z" fill="#fff" fill-rule="evenodd"/></mask><g fill="none" fill-rule="evenodd"><path d="m0 0h148v148h-148z"/><path d="m60.7998 88.4504c-.04.22-.069.439-.1.68 0 .019-.01.049-.01.08-.03.29-.039.599-.039.92l-.031 9.71-6.719 3.91.029-9.71c0-.08 0-.16.01-.24 0-.201.01-.401.03-.6 0-.08.011-.15.02-.23.02-.201.05-.39.09-.581.06-.399.16-.78.281-1.129.019-.05.049-.111.069-.161.03-.059.051-.129.07-.2.02-.069.05-.13.08-.189.01-.04.031-.08.05-.111.03-.08.07-.16.12-.229.14-.261.29-.5.47-.71.101-.12.2-.24.31-.351.041-.059.09-.109.15-.149.12-.101.23-.2.35-.29.11-.091.23-.17.36-.24 0-.01 0-.01.011-.01 1.179-.691 2.699-.78 4.399-.17" fill="url(#b)"/><path d="m53.8398 76.3c-.32 1.79-1.16 3.07-2.35 3.75-.3.17-.61.3-.95.39-.07.02-.139.03-.21.04-.01.01-.019.01-.03.01-.03.01-.05.02-.069.02h-.011c-.08.01-.159.03-.239.04-.031.01-.061.01-.091.01-.05.01-.1.02-.15.02s-.1 0-.14.01h-.13c-.06.01-.12.01-.18.01-.12 0-.26 0-.38-.01-.02 0-.04 0-.049-.01-.041 0-.081 0-.121-.01-.05-.01-.11-.01-.16-.02h-.05c-.04-.01-.08-.01-.12-.021-.08-.009-.16-.029-.24-.039-.04-.01-.08-.02-.12-.03-.1-.02-.21-.05-.33-.08-.08-.02-.159-.04-.25-.07-.15-.04-.31-.1-.47-.16-.07-.02-.139-.05-.21-.07-.01 0-.02-.01-.03-.02-.08-.031-.16-.07-.25-.11-.02 0-.04-.01-.06-.02s-.04-.02-.06-.03-.04-.02-.06-.02c-.07-.04-.14-.07-.219-.11-.201-.1-.411-.21-.611-.33l-8.45-4.88 6.72-3.9 8.45 4.88c.28.16.56.31.83.43.02.01.04.02.05.03.25.11.5.21.74.3" fill="url(#c)"/><path d="m7.46 4.4502-.04 11.649-6.72 3.901.06-19.42z" fill="url(#d)" mask="url(#h)" transform="translate(87 103.26)"/><path d="m54.29 37.8196-.021 7.78-17.109-9.88 6.72-3.91z" fill="url(#e)"/><path d="m55.6201 74.8496v.021c-.01.139-.01.28-.01.41-.011.13-.02.269-.03.399 0 .03-.01.061-.01.09 0 .03 0 .06-.01.08 0 .08-.01.16-.02.23-.021.14-.04.27-.06.411-.01.049-.02.099-.03.149-.011.04-.02.07-.02.101-.01.049-.02.109-.03.16-.04.149-.08.29-.12.429-.011.041-.02.081-.03.111-.02.05-.03.09-.04.13-.03.069-.05.139-.07.199-.06.141-.11.27-.17.4-.01.021-.02.05-.031.071 0 0 0 .009-.009.009-.09.21-.2.401-.32.58v.01c-.18.271-.38.51-.591.731-.049.05-.099.099-.159.149-.22.21-.45.401-.71.54l-6.61 3.851h-.021c.041-.021.071-.04.111-.071.059-.03.12-.08.17-.12.12-.099.24-.2.35-.299.05-.05.1-.101.15-.151.11-.109.219-.22.31-.34.17-.21.32-.439.45-.679.05-.071.09-.151.129-.231.021-.05.041-.09.061-.14.05-.099.09-.2.13-.299.15-.38.27-.79.35-1.241.039-.219.08-.46.11-.7.009-.05.009-.109.009-.16.011-.13.021-.26.031-.399.01-.17.02-.351.02-.531 0-.32-.01-.65-.04-.98-.011-.19-.03-.38-.06-.569-.04-.351-.1-.701-.17-1.05-.02-.151-.06-.311-.09-.46-.01-.021-.01-.04-.021-.061-.159-.71-.379-1.41-.639-2.11v-.02c-.031-.08-.06-.16-.1-.24-.091-.25-.19-.5-.3-.74-.32-.75-.7-1.5-1.131-2.22-.049-.09-.099-.17-.16-.25-.159-.29-.34-.569-.529-.84-.16-.24-.33-.469-.5-.7-.2-.279-.41-.55-.63-.809-.02-.031-.04-.05-.07-.08-.21-.271-.441-.521-.68-.771-.12-.14-.25-.279-.39-.409 0-.011-.01-.011-.02-.021-.12-.11-.23-.219-.351-.33-.019-.03-.049-.059-.08-.08-.229-.22-.469-.43-.719-.63-.031-.03-.05-.05-.08-.07-.25-.199-.51-.39-.77-.569-.01-.021-.03-.031-.05-.04-.28-.191-.56-.371-.84-.54l-8.67-5 .06-19.43-16.69-9.631.03-9.71c0-.319-.01-.649-.04-.979-.01-.09-.02-.191-.03-.29-.01-.231-.041-.451-.08-.67-.03-.22-.07-.441-.121-.661-.029-.16-.059-.309-.09-.46-.009-.02-.009-.04-.019-.06-.16-.69-.37-1.39-.62-2.069-.01-.021-.021-.04-.021-.071-.039-.11-.09-.21-.129-.32-.291-.73-.621-1.46-1.01-2.159-.07-.131-.14-.261-.21-.391-.241-.439-.51-.87-.79-1.29-.19-.279-.38-.55-.58-.819-.21-.301-.44-.58-.67-.861-.21-.25-.43-.5-.66-.74-.08-.099-.17-.2-.27-.29-.181-.189-.351-.359-.54-.54-.03-.019-.05-.05-.08-.069-.231-.21-.46-.41-.69-.601-.16-.139-.33-.269-.5-.399-.121-.101-.25-.191-.38-.28-.02-.01-.04-.021-.05-.041-.14-.089-.281-.179-.42-.27-.14-.09-.28-.18-.43-.26-.17-.099-.341-.189-.511-.28-.119-.06-.25-.119-.379-.18-.041-.019-.08-.04-.121-.05-.159-.08-.319-.139-.489-.2-.88-.33-1.71-.479-2.48-.439h-.13c-.071.01-.13.01-.19.019-.15.01-.291.031-.44.061l-.01.01c-.03.009-.06.009-.091.019-.009.01-.009.01-.019.01-.08.02-.16.04-.24.06-.241.06-.47.151-.69.26l6.49-3.78c.209-.119.43-.22.65-.3.02-.01.03-.01.04-.019.15-.05.31-.09.47-.13.04-.011.07-.021.11-.031h.01c.16-.03.32-.06.49-.07.04-.01.09-.01.13-.01.05 0 .09 0 .13-.009h.179c.131 0 .261 0 .391.009.03 0 .05 0 .08.01h.07c.08.01.15.021.23.03.12.01.25.031.37.06.03.011.07.011.1.021.03.009.05.009.08.019.05.011.11.021.17.04.11.021.23.061.35.09.069.02.15.051.22.08.019 0 .04.011.05.011.02.01.04.019.06.019.12.04.23.08.34.13.12.05.23.09.34.141.02.01.04.019.07.029.01.011.03.021.05.03.07.031.15.071.22.1.12.061.23.12.35.181l.27.149c.019.021.05.04.08.051.12.069.24.149.359.22.121.08.241.16.361.24.01.01.03.019.04.029.02.011.04.03.05.04.09.061.18.12.27.191.13.089.25.189.37.28.05.04.09.069.13.099.029.031.06.05.08.071.06.05.12.09.17.139.13.111.25.22.38.33.059.05.11.111.17.161.03.029.059.049.09.08.03.029.07.069.11.099.12.12.24.241.35.361.08.08.16.16.24.239.019.02.04.04.06.06s.03.041.05.06c.11.12.22.24.329.36.111.13.221.26.33.39l.011.011c.1.13.21.26.31.389.13.161.259.331.38.491.18.25.36.509.53.769.019.021.04.05.06.08.12.18.23.37.34.55.08.12.16.24.23.37.02.03.04.061.05.08.04.08.08.151.12.22.09.15.17.29.25.44.06.111.12.23.18.35.02.03.03.061.05.091.01.019.02.039.03.069.08.141.15.29.22.441.06.139.12.279.18.41.01.019.02.04.03.059.01.01.01.031.02.05.04.101.089.2.13.3.049.131.11.27.16.41.04.09.07.17.1.261.01.019.02.05.03.069.009.03.02.05.03.08.05.14.1.29.15.43.05.15.09.29.14.44 0 .02.01.04.01.05.009.021.02.04.02.061.03.109.069.219.1.33.04.149.08.3.12.449.01.07.03.13.04.19.01.031.02.06.02.1.01.051.03.101.039.16.031.141.061.29.09.441.021.13.051.259.071.389v.021.01c.02.139.05.28.06.429.02.13.04.271.05.41 0 .05.01.09.01.14 0 .03 0 .051.01.08 0 .061.01.13.01.191.01.129.02.269.02.41 0 .12.01.25.01.38l-.03 9.71 16.69 9.629-.06 19.43 8.659 5c.031.021.061.03.091.05.12.07.23.141.35.221.12.069.24.149.36.229.02.01.029.03.05.04.01.01.03.021.05.03.09.071.179.13.27.19.12.101.25.19.37.29.039.03.08.07.13.101.02.019.05.04.079.07.051.039.111.09.171.13.12.109.25.219.37.33.06.059.119.109.18.159.02.03.05.061.08.08.04.04.08.07.109.11.121.111.241.23.361.35.08.08.15.16.229.24.021.021.041.04.061.061.019.019.04.04.05.059.12.121.219.241.33.371.11.12.219.25.33.379l.01.01c.11.13.21.26.32.391.12.159.25.33.37.489.18.25.359.511.54.771.02.019.03.049.05.08.12.179.23.359.34.54.08.13.16.25.23.38.02.03.04.049.05.08.04.069.08.149.12.219.09.14.17.29.25.441.06.109.12.229.18.349.019.031.03.06.05.09.01.021.02.04.03.061.08.149.15.3.22.449.06.141.12.271.18.41.01.021.02.04.03.05 0 .02.009.04.02.061.04.099.09.189.13.29.05.139.109.28.16.41.04.09.07.179.1.269.009.021.02.04.03.071.01.019.02.049.03.08.05.139.1.279.15.429.049.14.09.29.139.43 0 .021.011.04.011.061.01.019.02.04.02.059.03.11.07.221.1.33.04.151.08.3.119.45.011.06.031.13.041.191.01.029.01.059.02.09.01.059.03.109.04.16.03.149.059.3.09.439.02.13.05.26.07.401v.019.01c.02.141.04.28.06.421.02.14.04.279.05.42 0 .04.01.09.01.139 0 .031 0 .05.01.081 0 .059.01.129.01.189.009.131.02.27.02.41 0 .12.01.25.01.38" fill="url(#f)" mask="url(#i)" transform="translate(56 25.26)"/><path d="m104.9004 104.01c0 .18-.011.36-.021.53-.009.14-.019.27-.03.4 0 .05 0 .11-.01.16-.029.24-.07.48-.109.7-.08.45-.2.86-.351 1.24-.04.1-.08.2-.129.3-.02.05-.04.09-.061.14-.039.08-.079.16-.129.23-.131.24-.28.47-.45.68-.091.12-.2.23-.311.34-.049.05-.099.1-.149.15-.11.1-.23.2-.351.3-.049.04-.11.09-.17.12-.04.03-.069.05-.11.07-.01.01-.039.03-.05.04-1.54.91-3.679.8-6.049-.57l-1.96-1.13-6.701-3.87-.059 19.42-16.901-9.76.031-9.71c.009-2.68-.941-5.65-2.46-8.3-1.521-2.64-3.63-4.94-5.96-6.29-.55-.31-1.09-.56-1.611-.75-1.7-.61-3.219-.52-4.399.17-.011 0-.011 0-.011.01-.13.07-.25.15-.359.24-.12.08-.24.18-.351.29-.059.04-.109.09-.149.15-.12.11-.22.22-.311.35-.179.21-.33.45-.469.71-.05.07-.09.15-.121.23-.019.03-.04.07-.049.11-.031.06-.061.12-.08.19-.05.11-.1.24-.14.36-.12.35-.221.73-.28 1.13-.04.19-.071.38-.09.58-.01.08-.021.15-.021.23-.019.2-.03.4-.03.6-.01.08-.01.16-.01.24l-.029 9.71-16.9-9.77.049-19.42 8.451 4.88c.2.12.41.23.61.33.079.04.149.07.22.11.019 0 .04.01.059.02.021.01.04.02.061.03.019.01.04.02.059.02.09.04.17.08.25.11.01.01.021.02.031.02.07.02.139.05.21.07.16.06.32.12.469.16.091.03.17.05.25.07.12.03.231.06.33.08.04.01.08.02.121.03.08.01.16.03.24.04.04.01.08.01.12.02h.05c.049.01.109.01.16.02.04.01.08.01.12.01.01.01.029.01.05.01.12.01.26.01.38.01.059 0 .12 0 .179-.01h.13c.04-.01.09-.01.141-.01.05 0 .099-.01.149-.02.031 0 .061 0 .091-.01.08-.01.159-.03.239-.04h.011c.02 0 .039-.01.069-.02.011 0 .021 0 .031-.01.07-.01.139-.02.21-.04.339-.09.649-.22.95-.39 1.189-.68 2.029-1.96 2.349-3.75.09-.52.151-1.08.151-1.68.01-5.37-3.76-11.9-8.43-14.6l-8.45-4.87.05-19.43 17.109 9.88.021-7.78.009-1.93c.011-2.66.951-4.54 2.47-5.42.07-.04.141-.08.221-.12.22-.11.449-.2.689-.26.08-.02.16-.04.241-.06.009 0 .009 0 .019-.01.03-.01.061-.01.091-.02l.01-.01c.149-.03.29-.05.44-.06.109-.02.209-.02.319-.02.771-.04 1.601.11 2.481.44.17.06.33.12.489.2.041.01.08.03.12.05.13.06.261.12.38.18.17.09.341.18.511.28.149.08.29.17.43.26.29.19.58.38.85.59.17.13.34.26.5.4.23.19.459.39.69.6.03.02.049.05.08.07.189.18.359.35.54.54.099.09.19.19.269.29.231.24.45.49.66.74.231.28.46.56.67.86.201.27.391.54.58.82.281.42.55.85.79 1.29.071.13.141.26.21.39.39.7.72 1.43 1.011 2.16.05.13.1.26.15.39.25.68.46 1.38.62 2.07.04.17.08.35.109.52.051.22.091.44.121.66.029.22.06.45.079.67.011.1.021.2.031.29.03.33.04.66.04.98l-.031 9.71 16.691 9.63-.06 19.43 8.67 5c.279.17.56.35.84.54.019.01.04.02.05.04.259.18.519.37.769.57.031.02.05.04.08.07.25.2.491.41.72.63.03.02.061.05.08.08.12.11.231.22.351.33.009.01.019.01.019.02.141.13.271.27.391.41.239.25.47.5.68.77.03.03.049.05.07.08.22.26.43.53.63.81.17.23.34.46.5.7.189.27.37.55.529.84.061.08.11.16.16.25.431.72.811 1.47 1.131 2.22.109.24.209.49.3.74.04.09.069.17.099.26.26.7.481 1.4.64 2.11.041.17.08.35.11.52.071.35.13.7.17 1.05.031.19.05.38.061.57.029.33.04.66.04.98" fill="url(#g)"/><g fill="#652289"><path d="m46.3896 79.8996c-.02-.01-.04-.02-.06-.02-.07-.04-.14-.07-.219-.11.09.04.189.09.279.13"/><path d="m47 80.1496c-.07-.02-.14-.05-.21-.069-.01 0-.02-.011-.03-.021.08.03.16.061.24.09"/><path d="m48.4102 80.5295c-.08-.01-.16-.029-.24-.039-.04-.011-.08-.021-.12-.03.13.03.25.049.36.069"/><path d="m48.5801 80.55h-.05c-.04-.01-.08-.01-.12-.021.05.011.109.021.17.021"/><path d="m49.29 80.5998c-.12 0-.26 0-.38-.01-.02 0-.04 0-.05-.01.15.01.29.02.43.02"/><path d="m49.8896 80.5598c-.05.01-.1.021-.149.021-.051 0-.101 0-.141.009h-.13c.15 0 .29-.009.42-.03"/><path d="m102.6299 109.3c-.03.03-.06.05-.09.07h-.02c.041-.02.07-.04.11-.07"/><path d="m103.6104 108.3899c-.23.311-.511.58-.811.79.121-.1.241-.2.351-.3.05-.05.1-.1.149-.15.111-.11.22-.22.311-.34"/></g></g></svg>