<svg height="306" viewBox="0 0 306 306" width="306" xmlns="http://www.w3.org/2000/svg" xmlns:xlink="http://www.w3.org/1999/xlink"><linearGradient id="a"><stop offset="0" stop-color="#6cffe3" stop-opacity=".845416"/><stop offset="1" stop-color="#32cfd6" stop-opacity=".646309"/></linearGradient><linearGradient id="b" x1="50%" x2="50%" xlink:href="#a" y1="100%" y2="6.953872%"/><linearGradient id="c"><stop offset="0" stop-color="#58ccb6"/><stop offset="1" stop-color="#03fee5"/></linearGradient><linearGradient id="d" x1="50%" x2="50%" xlink:href="#c" y1="-34.880309%" y2="128.621902%"/><linearGradient id="e" x1="50%" x2="50%" xlink:href="#a" y1="109.469845%" y2="0%"/><linearGradient id="f" x1="50%" x2="50%" xlink:href="#c" y1="-12.530474%" y2="109.635801%"/><linearGradient id="g" x1="50%" x2="50%" xlink:href="#a" y1="100%" y2="0%"/><linearGradient id="h" x1="50%" x2="50%" xlink:href="#c" y1=".353674%" y2="100%"/><linearGradient id="i" x1="50%" x2="50%" y1="8.728408%" y2="112.654199%"><stop offset="0" stop-color="#58ccb6"/><stop offset="1" stop-color="#03d2fe" stop-opacity=".396471"/></linearGradient><linearGradient id="j" x1="50%" x2="50%" y1="6.953872%" y2="109.469845%"><stop offset="0" stop-color="#58ccb6" stop-opacity=".634315"/><stop offset="1" stop-color="#03d2fe" stop-opacity=".244974"/></linearGradient><linearGradient id="k"><stop offset="0" stop-color="#72ffe4" stop-opacity=".730687"/><stop offset="1" stop-color="#03d2fe" stop-opacity=".244974"/></linearGradient><linearGradient id="l" x1="51.227878%" x2="50%" xlink:href="#k" y1="13.193809%" y2="109.469845%"/><linearGradient id="m" x1="51.231631%" x2="50%" xlink:href="#k" y1="13.193809%" y2="109.469845%"/><linearGradient id="n" x1="50%" x2="50%" y1="-11.457699%" y2="108.624687%"><stop offset="0" stop-color="#58ccb6"/><stop offset="1" stop-color="#3feace"/></linearGradient><linearGradient id="o" x1="50%" x2="50%" y1="0%" y2="98.374155%"><stop offset="0" stop-color="#58ccb6"/><stop offset="1" stop-color="#2effe9"/></linearGradient><g fill="none" fill-rule="evenodd"><path d="m0 0h306v306h-306z" fill="none" opacity=".614793"/><g transform="translate(54 47)"><path d="m98.9505.0001-42.29 24.57 28.229 16.3v.01l14.061 8.11.269.16 13.96-8.12 28.33-16.46zm.04 32.68-14.05-8.11 14.1-8.19 14.189 8.19-14.1 8.19z" fill="url(#b)" opacity=".501907"/><path d="m113.2296 24.5698-14.1 8.19-.139-.08-14.05-8.11 14.1-8.19z" fill="url(#d)" opacity=".70459"/><g transform="translate(0 33)"><path d="m.2805 24.57 28.229 16.3 14.05 8.11.28.16 13.68-7.95.27-.16 28.059-16.3v-.32l-28.238-16.3-14.051-8.11zm42.33 8.11-14.051-8.11 14.089-8.19 13.921 8.03.271.16-.271.16-13.82 8.03z" fill="url(#e)" opacity=".769043"/><path d="m56.5692 24.4102v.32l-13.819 8.03-.14-.08-14.051-8.11 14.09-8.19z" fill="url(#f)" opacity=".846238"/><g transform="translate(48.0096 .0001)"><path d="m93.4503 8.27v.01l-28.04 16.29 27.95 16.14.279.16 14.051 8.11.28.16 13.95-8.11 28.33-16.46-42.56-24.57zm14.28 24.41-14.04-8.11 14.09-8.19 14.189 8.19-14.099 8.19z" fill="url(#g)" opacity=".769043"/><path d="m121.9697 24.5697-14.1 8.19-.139-.08-14.04-8.11 14.09-8.19z" fill="url(#h)" opacity=".846238"/><path d="m1.21971034 107.02909-.16896551 22.836207-.06034483 19.877586 51.3643103 29.653448 51.0396557-29.653448.060344-19.684483.049483-33.0586207-.206379-4.1896552-.35.2051725-33.5637933 19.5034484-16.847069 9.8-.325862-.193104-16.9689656-9.787931v-.012069l-34.02241376-19.6482755z" fill="url(#i)"/></g></g><path d="m141.5099 24.5698-.0394 16.694-.0106.0063v.01l-28.0403 16.29-.0211 7.0027-.3886 40.407-13.819-7.98-14.211 8.25.14-42.91-.0144-.008.0145-4.7616-.271.16-3.8455 2.2336 3.845-2.2338v-.32l-28.226-16.2942.0374-16.546 28.23 16.31 14.06 8.11.27.16 13.96-8.12z" fill="url(#j)" opacity=".600981"/><path d="m85.12 57.5702-.05 16.48-.091 31.429-.849.501-27.19 15.79-.041.029.041.021v1.12l-.021 7.178-7.6896897-4.440734v14.351724l-.1689655 22.836207-.0413448 13.342803-6.459 3.752-42.56-24.57.281-97.82 28.229 16.3 14.33 8.27 13.68-7.95.27-.16 28.059-16.3z" fill="url(#l)" opacity=".797782"/><path d="m198.2596 57.5701-.281 97.82-42.279 24.57-4.28-2.47.04471-14.4316.049483-33.058621-.206379-4.189655-9.738814 5.659876-.049-9.8-.29-.17-26.581-15.34-1.639-.95.36-31.33.05-16.31 28.229 16.3 14.331 8.27 13.95-8.11z" fill="url(#m)" opacity=".797782"/><g transform="translate(49 96)"><path d="m51.4378103 39.537931-.1701724-.0965517-16.9556896-9.787931 15.8453448-9.2086207 1.1718966-.6758621 1.5436206.8931035 15.5822414 8.9913793zm50.5194827-10.2465517-32.0793102-18.5137931-1.9781035-1.14655172-16.6793103-9.63103448-17.1512069 9.95689655-1.0246552.60344825-32.81551724 19.0568966v.0603448l34.02241374 19.6482759v.0120689l16.9689656 9.7879311.325862.1931034 16.8482759-9.8 33.5625861-19.5034483.35-.2051724v-.3137931z" fill="url(#n)"/><path d="m68.454569 29.6534483-17.0172414 9.8844827-.1689655-.0965517-16.9568966-9.787931 15.8465517-9.2086207 1.1718966-.6758621 1.5436207.8931035z" fill="url(#o)"/></g><path d="m56.8998 121.5694.041.021v-.051z" fill="#000"/></g></g></svg>