<svg height="28" viewBox="0 0 166 28" width="166" xmlns="http://www.w3.org/2000/svg"><g fill="#23af91" fill-rule="evenodd"><g fill-rule="nonzero" transform="translate(34)"><path d="m47.704893 6.98755482c0-.55543323 0-1.0779001-.0179817-1.56040774-.0122431-.45519285-.0573142-.90890909-.1348624-1.35761468-.0725323-.40972835-.2005818-.8076564-.3806116-1.18279307-.19005-.38678139-.4440295-.73870514-.7512334-1.04093782-.4356944-.44641816-.9541594-.80371118-1.5264424-1.0519266-.6190926-.25077941-1.2821209-.37509722-1.9500102-.36562692-.670412-.00866321-1.3358955.11560566-1.9580021.36562692-.5755606.24482544-1.0972919.60056675-1.5354332 1.0469317-.3066199.30205236-.5596391.65404969-.7482365 1.04093782-.1785243.37521882-.3045786.7732145-.3746177 1.18279306-.0757914.44883815-.1191926.90254759-.1298675 1.35761468-.0119878.48250765-.0179817 1.00497452-.0149847 1.56040775.0029969.55543323 0 1.07390418.0149847 1.55940877.0106749.45506709.0540761.90877653.1298675 1.35761468.0700391.40957853.1960934.80757423.3746177 1.18279303.1893405.3864438.4422746.7383227.7482365 1.0409379.4374213.4467237.9593688.8019332 1.5354332 1.0449337.6216895.2516547 1.2873705.3766397 1.9580021.3676249.6681118.009843 1.3313437-.1151925 1.9500102-.3676249.5723741-.2449153 1.091021-.5999576 1.5264424-1.0449337.3065279-.3028124.5604203-.6546154.7512334-1.0409379.1800298-.3751366.3080793-.7730647.3806116-1.18279303.0766875-.44743681.1210902-.89981041.1328645-1.35361876.0149847-.48550459.0219775-1.00497452.0179816-1.55940877zm-2.5174312 0c0 .61537207-.0089909 1.12784914-.0299694 1.53543324-.0117903.33479477-.0451589.66848075-.0998981.99898063-.0374431.22019342-.1046577.43427194-.1997961.63635071-.077223.1628739-.1782245.3133661-.2996942.4465443-.1875195.2146678-.4201705.3852331-.6813048.4994903-.2938508.1257413-.6104329.1896698-.930051.1878479-.3211893.0013765-.6393137-.0625202-.9350459-.1878479-.2675041-.1121279-.5064614-.2828117-.6992864-.4994903-.1222311-.1325792-.223314-.2831928-.2996942-.4465443-.0924799-.2022858-.1563612-.41645646-.1898063-.63635071-.0533385-.33068421-.0866984-.66428254-.0998981-.99898063-.0179816-.4075841-.0269724-.91939518-.0269724-1.53543324 0-.61537207.0089908-1.12884811.0269724-1.53643221.0132504-.33469456.0466099-.66828985.0998981-.99898063.0334451-.21989425.0973264-.43406491.1898063-.63635066.0766137-.16321953.1776738-.31379908.2996942-.44654435.1930969-.21637579.4319806-.387007.6992864-.49949031.2952916-.12674878.6137144-.1907055.9350459-.18780836.3197579-.0033203.6366374.06066825.930051.18780836.2609369.11459967.4935181.28511375.6813048.49949031.1212502.13335024.2222288.28380831.2996942.44654435.0951384.20207872.162353.41615723.1997961.63635066.0546762.33050824.0880444.66419015.0998981.99898063.0219775.40658512.0299694.92006116.0299694 1.53643221z"/><path d="m67.7644241.76190753c-.0010847-.12147838-.0992964-.21969003-.2207748-.22077472h-2.0768807c-.1217032.00054699-.2202277.0990715-.2207747.22077472v7.67217125l-5.0648318-7.83100918c-.0339654-.05294597-.0639348-.06193679-.1388583-.06193679h-1.9260347c-.1212559.00161337-.2191613.09951877-.2207747.22077472v12.44929667c.0016244.121088.0996805.2187005.2207747.2197757h2.0758818c.1211515-.000547.2192287-.0986242.2197757-.2197757v-7.69215091l5.0658308 7.84899081c.0349643.052946.0629358.0619368.1388583.0619368h1.9250357c.1213166-.0005415.219683-.0984628.2207747-.2197757z"/><path d="m53.84263.76190753c-.000547-.12170322-.0990715-.22022773-.2207748-.22077472h-2.0748827c-.1217032.00054699-.2202278.0990715-.2207747.22077472v12.44829767c.0005469.1217032.0990715.2202277.2207747.2207747h2.0748827c.1217033-.000547.2202278-.0990715.2207748-.2207747z"/><path d="m29.0039755 6.98755482c0-.61936799.0069929-1.13484199.0249746-1.54542303.0122188-.3347657.0455846-.6684244.099898-.99898064.1918043-1.1088685 1.0409378-1.76320081 2.1248318-1.76320081.7072783.00599388 1.3486239.26772681 1.7582059.86311926.1854888.27796493.320739.58633544.3995923.91107034.0060814.03420676.0373246.0580731.0719266.05494394h2.4425076c.0349644 0 .0479511-.02397554.0419572-.05794088-.2667278-1.5114577-1.0729052-2.86907238-2.4974516-3.54138634-.700116-.32415809-1.4642908-.48634889-2.2357186-.4745158-1.3752634 0-2.5337479.47085287-3.4754536 1.41255861-.5376518.52399147-.9046299 1.19806124-1.0529256 1.93402651-.1438532.72459395-.2164458 1.79283724-.2177958 3.20472986-.001314 1.41189263.0712786 2.47980293.2177958 3.20373086.1470633.7369125.5129748 1.4123342 1.0499286 1.9380225.9410398.9410397 2.0995243 1.4115596 3.4754536 1.4115596.7713048.0116666 1.5353707-.1501597 2.2357187-.4735168 1.4245464-.672314 2.2307238-2.0299287 2.4974516-3.54138637.0059939-.03496432-.0069929-.05794088-.0419572-.05794088h-2.4435066c-.0347455-.00363304-.0662936.02046614-.0719266.05494394-.0790418.32436046-.2142824.63237091-.3995923.91007131-.4095821.5993884-1.0509276.8581244-1.7582059.8631193-1.083894 0-1.9330275-.6533333-2.1248318-1.76220183-.0542633-.33056284-.0876289-.66421837-.0998981-.99898063-.0139857-.412579-.0209786-.92905199-.0209786-1.54642202z"/><path d="m3.20629969.76190753c-.00054698-.12170322-.09907149-.22022773-.22077472-.22077472h-2.07488277c-.12170322.00054699-.22022773.0990715-.22077472.22077472v12.44929667c.00109175.1213129.0994581.2192341.22077472.2198905h2.07488277c.12131663-.0006564.21968298-.0985776.22077472-.2198905v-3.65427119l1.66530072-1.9909684 3.42050968 5.79908259c.02633155.0427597.07369804.0679709.1238736.0660475h2.52142711c.1158818 0 .1368604-.0720414.0789195-.1709405l-4.4784302-7.59225279 4.1088073-4.92897044c.0829154-.09989806.0479511-.19480122-.0819164-.19480122h-2.75618753c-.03353445-.00197219-.06581485.01304196-.08591234.03995922l-4.51639144 5.41647299z"/><path d="m18.3228746 11.2951593c-1.1678083 0-2.2267278-1.080897-2.2267278-2.37158001v-8.16167176c-.000547-.12170322-.0990715-.22022773-.2207747-.22077472h-2.0748828c-.1217032.00054699-.2202277.0990715-.2207747.22077472v8.12970438c0 2.84209989 2.1258308 4.64825689 4.74316 4.64825689 2.6173293 0 4.7431601-1.806157 4.7431601-4.64825689v-8.12970438c-.0010847-.12147838-.0992964-.21969003-.2207748-.22077472h-2.0758817c-.1213129.00109174-.2192342.09945809-.2197758.22077472v8.16167176c0 1.28968401-1.0599184 2.37158001-2.2267278 2.37158001z"/></g><path d="m8.07119266 13.987156 8.28183484 8.2831192 5.227523-5.2275229c.9347508-.841665 2.3648187-.8042222 3.2542452.0852043s.9268693 2.3194944.0852043 3.2542452l-6.8985321 6.8998165c-.9266333.9113088-2.4128163.9113088-3.3394496 0l-9.95284399-9.9554128v5.9172477c0 1.3059254-1.05866173 2.3645872-2.36458715 2.3645872-1.30592543 0-2.36458716-1.0586618-2.36458716-2.3645872v-18.52110091c0-1.30592542 1.05866173-2.36458715 2.36458716-2.36458715 1.30592542 0 2.36458715 1.05866173 2.36458715 2.36458715v5.91724771l9.95155959-9.95284404c.9263508-.91199874 2.4130989-.91199874 3.3394496 0l6.9036697 6.89853211c.841665.93475085.8042222 2.36481872-.0852043 3.25424523-.8894265.8894265-2.3194944.9268693-3.2542452.0852043l-5.227523-5.22752292zm8.28568804-2.367156c-.9575419-.0005196-1.821087.57589-2.1878825 1.4603943s-.1645888 1.9028709.5123119 2.5801391c.6769008.6772682 1.6951574.8800275 2.5798607.5137121.8847032-.3663154 1.4615818-1.2295475 1.4615818-2.1870895.0003404-.6278089-.2487289-1.2300396-.6924159-1.6742084-.443687-.4441687-1.0456471-.6938915-1.673456-.694232z"/><text font-family="Helvetica" font-size="12"><tspan x="34" y="27">Investment &amp; Incubation</tspan></text></g></svg>