<svg width="31" height="32" viewBox="0 0 31 32" fill="none" xmlns="http://www.w3.org/2000/svg">
<path fill-rule="evenodd" clip-rule="evenodd" d="M19.3549 5.46596C19.3549 4.0458 20.5062 2.89453 21.9263 2.89453H25.7835C27.2036 2.89453 28.3549 4.0458 28.3549 5.46596V9.3231C28.3549 10.7433 27.2036 11.8945 25.7835 11.8945H21.9263C20.5062 11.8945 19.3549 10.7433 19.3549 9.3231V5.46596ZM25.7835 5.46596H21.9263V9.3231H25.7835V5.46596Z" fill="#F3F3F3"/>
<path fill-rule="evenodd" clip-rule="evenodd" d="M19.3549 22.1802C19.3549 20.7601 20.5062 19.6088 21.9263 19.6088H25.7835C27.2036 19.6088 28.3549 20.7601 28.3549 22.1802V26.0374C28.3549 27.4575 27.2036 28.6088 25.7835 28.6088H21.9263C20.5062 28.6088 19.3549 27.4575 19.3549 26.0374V22.1802ZM25.7835 22.1802H21.9263V26.0374H25.7835V22.1802Z" fill="#F3F3F3"/>
<path fill-rule="evenodd" clip-rule="evenodd" d="M5.21205 19.6088C3.79189 19.6088 2.64062 20.7601 2.64062 22.1802V26.0374C2.64062 27.4575 3.79189 28.6088 5.21205 28.6088H9.0692C10.4894 28.6088 11.6406 27.4575 11.6406 26.0374V22.1802C11.6406 20.7601 10.4894 19.6088 9.0692 19.6088H5.21205ZM5.21205 22.1802H9.0692V26.0374H5.21205V22.1802Z" fill="#F3F3F3"/>
<path fill-rule="evenodd" clip-rule="evenodd" d="M2.64062 5.46596C2.64062 4.0458 3.79189 2.89453 5.21205 2.89453H9.0692C10.4894 2.89453 11.6406 4.0458 11.6406 5.46596V9.3231C11.6406 10.7433 10.4894 11.8945 9.0692 11.8945H5.21205C3.79189 11.8945 2.64062 10.7433 2.64062 9.3231V5.46596ZM9.0692 5.46596H5.21205V9.3231H9.0692V5.46596Z" fill="#F3F3F3"/>
<path d="M5.21205 14.466C4.50197 14.466 3.92634 15.0416 3.92634 15.7517C3.92634 16.4618 4.50197 17.0374 5.21205 17.0374H14.2121V20.2517C14.2121 20.9618 14.7877 21.5374 15.4978 21.5374C16.2078 21.5374 16.7835 20.9618 16.7835 20.2517V17.0374H19.3549C20.065 17.0374 20.6406 16.4618 20.6406 15.7517C20.6406 15.0416 20.065 14.466 19.3549 14.466H16.7835V11.2517C16.7835 10.5416 16.2078 9.96596 15.4978 9.96596C14.7877 9.96596 14.2121 10.5416 14.2121 11.2517V14.466H5.21205Z" fill="#F3F3F3"/>
<path d="M23.2121 15.7517C23.2121 15.0416 23.7877 14.466 24.4978 14.466H25.7835C26.4936 14.466 27.0692 15.0416 27.0692 15.7517C27.0692 16.4618 26.4936 17.0374 25.7835 17.0374H24.4978C23.7877 17.0374 23.2121 16.4618 23.2121 15.7517Z" fill="#F3F3F3"/>
<path d="M16.7835 24.1088C16.7835 23.3987 16.2078 22.8231 15.4978 22.8231C14.7877 22.8231 14.2121 23.3987 14.2121 24.1088V25.3945C14.2121 26.1046 14.7877 26.6802 15.4978 26.6802C16.2078 26.6802 16.7835 26.1046 16.7835 25.3945V24.1088Z" fill="#F3F3F3"/>
<path d="M16.7835 5.46596C16.7835 4.75588 16.2078 4.18025 15.4978 4.18025C14.7877 4.18025 14.2121 4.75588 14.2121 5.46596V6.75167C14.2121 7.46175 14.7877 8.03739 15.4978 8.03739C16.2078 8.03739 16.7835 7.46175 16.7835 6.75167V5.46596Z" fill="#F3F3F3"/>
</svg>
