<svg fill="none" height="68" viewBox="0 0 70 68" width="70" xmlns="http://www.w3.org/2000/svg"><path d="m69 51.0365c0 1.6832-1.2121 3.2751-3.3775 4.6957-.2383.1564-.4896.3109-.7503.4636-2.7221 1.5863-6.6619 2.9325-11.4171 3.9081-5.3139 1.0948-11.6517 1.7297-18.4551 1.7297-6.8052 0-13.1412-.633-18.4551-1.7297-4.7552-.9756-8.69314-2.318-11.41522-3.9044-.26253-.1526-.51389-.309-.75221-.4654-2.16538-1.4225-3.37747-3.0144-3.37747-4.6976 0-5.9636 15.221-10.7952 34-10.7952 18.7772-.0019 34 4.8316 34 10.7952z" fill="#28ce92"/><path d="m69 51.0365c0 1.6832-1.2121 3.2751-3.3775 4.6957-.2383.1564-.4897.3109-.7503.4636-2.7221 1.5863-6.6619 2.9325-11.4171 3.9081-5.3139 1.0948-11.6517 1.7297-18.4551 1.7297-6.8052 0-13.1412-.633-18.4551-1.7297-4.7552-.9756-8.69314-2.318-11.41522-3.9044-.26253-.1526-.51389-.309-.75221-.4654-2.16538-1.4225-3.37747-3.0144-3.37747-4.6976 0-5.9636 15.221-10.7952 34-10.7952 18.7772-.0019 34 4.8316 34 10.7952z" stroke="#12192d" stroke-linecap="round" stroke-linejoin="round" stroke-miterlimit="10" stroke-width=".2"/><path d="m65.645 55.3635c0 .1229-.0075.2458-.0224.3687-.2383.1564-.4897.3128-.7503.4636-5.7644 3.3589-16.9805 5.636-29.8722 5.636s-24.1041-2.2771-29.87033-5.6323c-.26253-.1526-.51388-.309-.7522-.4654-.0149-.1229-.02235-.2458-.02235-.3706 0-5.3734 13.72028-9.7302 30.64488-9.7302 16.9227 0 30.6449 4.3568 30.6449 9.7302z" fill="#119679"/><path d="m65.645 55.3635c0 .1229-.0075.2458-.0224.3687-.2383.1564-.4897.3128-.7503.4636-5.7644 3.3589-16.9805 5.636-29.8722 5.636s-24.1041-2.2771-29.87033-5.6323c-.26253-.1526-.51388-.309-.7522-.4654-.0149-.1229-.02235-.2458-.02235-.3706 0-5.3734 13.72028-9.7302 30.64488-9.7302 16.9227 0 30.6449 4.3568 30.6449 9.7302z" stroke="#13192c" stroke-miterlimit="10" stroke-width=".2"/><path d="m53.4551 49.6308v10.4731c-5.3139 1.0948-11.6518 1.7279-18.4551 1.7279-6.8052 0-13.1412-.6331-18.4551-1.7279v-10.4731z" fill="#24bc89"/><path d="m53.4551 49.6308v10.4731c-5.3139 1.0948-11.6518 1.7279-18.4551 1.7279-6.8052 0-13.1412-.6331-18.4551-1.7279v-10.4731z" stroke="#12192d" stroke-linecap="round" stroke-miterlimit="10" stroke-width=".2"/><path d="m53.4551 49.6308c0 1.0147-.8118 1.968-2.2418 2.8003-3.1279 1.8228-9.2163 3.0591-16.2133 3.0591s-13.0835-1.2363-16.2134-3.0573c-1.4299-.8322-2.2417-1.7892-2.2417-2.8021 0-3.236 8.2612-5.8594 18.4551-5.8594 10.192 0 18.4551 2.6234 18.4551 5.8594z" fill="#138c75"/><path d="m53.4551 49.6308c0 1.0147-.8118 1.968-2.2418 2.8003-3.1279 1.8228-9.2163 3.0591-16.2133 3.0591s-13.0835-1.2363-16.2134-3.0573c-1.4299-.8322-2.2417-1.7892-2.2417-2.8021 0-3.236 8.2612-5.8594 18.4551-5.8594 10.192 0 18.4551 2.6234 18.4551 5.8594z" stroke="#11192f" stroke-linecap="round" stroke-linejoin="round" stroke-miterlimit="10" stroke-width=".2"/><path d="m35.0018 27.4799c-14.3068 0-25.90634 4.1576-25.90634 9.2852 0 5.1277 11.59954 9.2834 25.90634 9.2834s25.9026-4.1557 25.9026-9.2834c0-5.1276-11.5958-9.2852-25.9026-9.2852z" fill="#12192d"/><path d="m32.3077 31.3675c-.3035.013-.6051.0298-.9049.0484-.134.0074-.2681.0167-.4003.0261-.309.0204-.6163.0446-.9197.0707-.0987.0093-.1993.0149-.2961.0242-.3984.0354-.7931.0763-1.1823.1192-.0838.0093-.1657.0205-.2495.0298-.3165.0372-.6312.0782-.9421.121-.1173.0167-.2346.0335-.3519.0503-.3258.0465-.6479.0968-.9663.1489-.0745.013-.1508.0242-.2253.0372-.4022.0689-.7969.1434-1.1842.2197-.0893.0168-.175.0354-.2625.054-.4059.0838-.8062.1713-1.1953.2644-.028.0075-.0577.0131-.0857.0205-.08.0186-.1582.0391-.2364.0596-.1918.0465-.3817.0949-.5679.1452-.1024.0261-.2011.0559-.2998.0838-.1564.0428-.3128.0857-.4654.1303-.2291.0671-.4543.136-.6759.2067-.054.0168-.1117.0335-.1657.0521-.2719.0894-.5381.1806-.7988.2737-.1229.0447-.2402.0894-.3593.1341-.1136.0428-.229.0856-.3389.1285-.1173.0465-.2309.0949-.3444.1433-.108.0447-.216.0875-.3203.1341-.1117.0484-.2178.0987-.3258.1489-.1006.0466-.2048.0913-.3016.1397-.1062.0503-.2067.1024-.3072.1545-.095.0484-.1918.095-.2831.1434-.0986.0521-.1917.108-.2885.162-.0876.0484-.1769.0968-.2626.1471-.0931.0558-.1824.1117-.2718.1694-.0801.0503-.162.0987-.2383.1489-.0857.0578-.1676.1173-.2495.1751-.0726.0502-.1471.1005-.2179.1526-.0782.0596-.1508.1192-.2253.1788-.067.0521-.1359.1042-.1973.1582-.0726.0615-.1378.1229-.2048.1844-.0577.054-.1192.1061-.175.1601-.0652.0633-.1211.1285-.1825.1918-.0503.054-.1043.1061-.1508.1601-.0577.0651-.1061.1322-.1583.1992-.0428.054-.0875.1061-.1266.162-.0484.067-.0894.1378-.134.2067-.0336.054-.0727.1079-.1025.1619-.0409.0708-.0726.1434-.1061.2142-.026.054-.0558.1061-.08.1601-.0336.0763-.0559.1545-.082.2309-.0167.0502-.0372.0986-.0521.1489-.0242.0875-.0391.175-.0559.2644-.0074.041-.0204.0801-.026.121-.0186.1304-.0279.2588-.0279.391v-2.1635c0-.1303.0093-.2607.0279-.391.0056-.041.0186-.0801.026-.121.0168-.0894.0317-.1769.0559-.2644.0149-.0503.0354-.0987.0521-.149.0261-.0782.0503-.1545.082-.2308.0223-.054.054-.108.08-.1602.0354-.0707.067-.1433.1061-.2141.0298-.054.0689-.108.1025-.162.0446-.0688.0837-.1377.134-.2066.0391-.054.0857-.108.1266-.1602.0522-.067.1006-.134.1583-.1992.0465-.054.1005-.108.1508-.1601.0614-.0652.1173-.1285.1825-.1918.0558-.054.1173-.1061.175-.1601.067-.0614.1322-.1247.2048-.1862.0633-.054.1322-.1042.1973-.1582.0745-.0596.1471-.1211.2253-.1788.0708-.0521.1471-.1043.2197-.1545.082-.0577.162-.1155.2477-.1732.0782-.0521.162-.1024.2439-.1527.0875-.0558.1731-.1117.2644-.1657.0856-.0502.1768-.1005.2644-.1489.0949-.054.188-.1061.2848-.1601.0913-.0484.1881-.095.283-.1434.1024-.0521.203-.1043.3072-.1545.0987-.0466.2011-.0931.3017-.1378.108-.0503.2141-.1006.3258-.149.1061-.0465.216-.0912.324-.1359.1135-.0465.2234-.0949.3388-.1396.1136-.0447.2309-.0875.3463-.1322.1062-.0391.2086-.0801.3166-.1192.0111-.0037.0242-.0074.0353-.0112.2607-.0931.527-.1843.8007-.2737.0521-.0167.1061-.0335.1582-.0484.2234-.0707.4506-.1415.6815-.2085.0242-.0074.0465-.0149.0707-.0223.1285-.0373.2625-.0727.3947-.1099.1006-.0279.1993-.0558.2998-.0838.1843-.0484.3724-.0968.5604-.1433.082-.0205.162-.0429.2458-.0633.0075-.0019.0149-.0038.0223-.0056.0187-.0056.0391-.0093.0596-.0131.391-.0931.7913-.1806 1.1991-.2662.0521-.0112.1005-.0242.1527-.0335.0353-.0075.0744-.0131.1117-.0205.3872-.0763.782-.1508 1.1841-.2197.0187-.0037.0354-.0075.0522-.0093.0558-.0093.1173-.0186.1731-.028.3184-.0521.6387-.1024.9663-.1508.0596-.0093.1173-.0186.1788-.0279.0577-.0074.1173-.0149.175-.0223.3109-.0429.6237-.0838.9421-.1211.0652-.0074.1266-.0167.1918-.0242.0186-.0018.0391-.0037.0577-.0055.3892-.0447.7839-.0838 1.1823-.1211.0242-.0018.0466-.0056.0689-.0074.0745-.0075.1527-.0112.2272-.0168.3053-.026.6107-.0502.9197-.0707.0615-.0038.1229-.0093.1844-.0149.0707-.0056.1452-.0075.2159-.0112.2998-.0186.6014-.0335.9049-.0484.0838-.0037.1657-.0093.2514-.013.0372-.0019.0745-.0019.1117-.0038.4245-.0167.8509-.0297 1.2828-.0372.0112 0 .0224 0 .0335-.0019.3352-.0055.674-.0074 1.0129-.0074.1657 0 .3296 0 .4953.0019.0651 0 .1284.0037.1936.0037.4357.0056.8695.0149 1.2996.0279.0372 0 .0745 0 .1099.0019.0093 0 .0167.0018.026.0018.5474.0205 1.0874.0484 1.6236.0838.0559.0037.1117.0056.1676.0093.054.0037.1061.0093.1601.0131.2625.0186.5213.0391.7801.0614.1192.0093.2384.0186.3557.0298.3742.0335.7447.0707 1.1096.1117h.0019c.0428.0056.0819.0112.1247.0149.2924.0335.5847.0689.8714.1061.1117.0149.2216.0317.3314.0466.216.0298.432.0596.6442.0912.1267.0186.2477.041.3724.0615.1937.0316.3873.0614.5772.0949.1341.0242.2663.0484.3984.0726.1769.0317.3538.0633.527.0968.1359.0261.2681.0559.404.0838.1657.0335.3333.0671.4953.1043.1359.0298.2662.0614.4003.0912.1564.0373.3146.0726.4692.1099.134.0335.2644.067.3947.1005.1489.0373.2997.0764.445.1155.1303.0353.2551.0707.3835.1079.1434.041.2868.0801.4264.1229.0242.0075.0484.0131.0726.0205.0503.0149.095.0317.1452.0466.2682.0819.5288.1657.7839.2532.0856.0279.1713.0577.2551.0856.3072.108.6088.2179.8993.3314l.0074.0019c.0577.0223.1136.0484.1713.0708.1713.0688.3407.1377.5027.2085.0819.0354.1601.0726.2421.1098.1359.0615.2718.1229.4021.1844.0112.0055.0224.0093.0317.0149.1787.0856.3519.175.5195.2643.0279.0149.0521.0298.08.0447.1341.0726.2644.1434.391.216.0112.0075.0205.0149.0335.0205.2402.1396.4674.283.6833.4301.0205.0149.0447.0279.0652.0409.0317.0224.0577.0447.0894.0671.1582.1117.3109.2253.4543.3407.0279.0223.0614.0447.0894.067.0111.0093.0204.0205.0335.0298.1657.1378.3202.2756.4617.4171.0075.0074.0149.0149.0224.0205.0242.0242.0409.0484.0651.0726.1062.1098.2067.2215.2998.3333.0186.0204.0409.0428.0577.0633.0186.0242.0335.0502.0521.0744.0801.1043.1546.2104.2216.3166.0186.0298.0428.0577.0614.0856.0075.0112.0112.0242.0187.0372.0875.1453.1638.2924.2253.4413.0018.0037.0037.0075.0055.0112.0075.0167.0094.0354.0168.0521.0521.1322.095.2644.1285.3985.0056.0204.0149.0391.0204.0595.0131.0615.0224.1229.0317.1844.0037.0205.0093.0428.0112.0651.013.0987.0223.1993.026.2998v.0745 2.1635c0-.1266-.0093-.2514-.026-.3742-.0038-.0224-.0075-.0429-.0112-.0652-.013-.0819-.0316-.1639-.0521-.2439-.0335-.1341-.0764-.2663-.1285-.3985-.0074-.0204-.013-.0428-.0223-.0633-.0633-.1489-.1397-.296-.2253-.4412-.0242-.041-.054-.082-.0801-.1229-.0689-.1061-.1415-.2123-.2216-.3165-.0353-.0466-.0707-.0913-.1098-.1378-.0931-.1117-.1936-.2234-.2998-.3333-.0298-.0298-.0558-.0614-.0875-.0912-.1433-.1415-.2979-.2812-.4617-.4171-.0391-.0317-.082-.0633-.1211-.0968-.1433-.1155-.2941-.229-.4543-.3407-.0502-.0373-.1024-.0727-.1545-.108-.216-.1453-.4413-.2905-.6833-.4301-.1378-.0801-.2774-.1583-.4227-.2365-.0279-.0149-.0521-.0298-.08-.0447-.1788-.0931-.3631-.1862-.553-.2793-.1303-.0633-.2662-.1228-.4022-.1843-.08-.0372-.1582-.0745-.242-.1098-.1676-.0726-.3407-.1434-.5158-.2142-.0558-.0223-.108-.0465-.1657-.0688-.2904-.1155-.5921-.2253-.8993-.3315-.0837-.0298-.1694-.0577-.255-.0875-.2551-.0875-.5176-.1713-.7858-.2532-.0726-.0223-.1415-.0447-.2141-.067-.1415-.0428-.2867-.0819-.4319-.1248-.1266-.0353-.2514-.0726-.3799-.1061-.1471-.0391-.2979-.0782-.4487-.1154-.1303-.0335-.2588-.0671-.391-.1006-.1564-.0372-.3165-.0744-.4766-.1098-.1304-.0298-.2607-.0615-.3947-.0913-.1639-.0353-.3296-.0688-.4953-.1042-.1341-.0279-.2663-.0559-.404-.0838-.1732-.0335-.3501-.0652-.527-.0987-.134-.0242-.2643-.0503-.3984-.0726-.1899-.0335-.3854-.0633-.5772-.095-.1247-.0204-.2476-.0409-.3724-.0614-.2122-.0316-.4282-.0614-.6442-.0912-.1117-.0149-.2197-.0317-.3314-.0466-.2867-.0372-.579-.0726-.8714-.1061-.0428-.0056-.0837-.0112-.1266-.0149-.3649-.041-.7354-.0782-1.1078-.1117-.1192-.0112-.2402-.0205-.3612-.0298-.2569-.0205-.5139-.0428-.7745-.0614-.108-.0075-.2179-.0149-.3277-.0205-.5344-.0335-1.0762-.0633-1.6236-.082-.0447-.0018-.0912-.0018-.1378-.0037-.4301-.0149-.862-.0242-1.2996-.0279-.229-.0019-.458-.0075-.6889-.0075-.35 0-.7001.0038-1.0464.0094-.4319.0074-.8583.0204-1.2828.0372-.121.0074-.2421.0149-.3631.0205z" fill="#119679"/><path d="m32.3077 31.3675c-.3035.013-.6051.0298-.9049.0484-.134.0074-.2681.0167-.4003.0261-.309.0204-.6163.0446-.9197.0707-.0987.0093-.1993.0149-.2961.0242-.3984.0354-.7931.0763-1.1823.1192-.0838.0093-.1657.0205-.2495.0298-.3165.0372-.6312.0782-.9421.121-.1173.0167-.2346.0335-.3519.0503-.3258.0465-.6479.0968-.9663.1489-.0745.013-.1508.0242-.2253.0372-.4022.0689-.7969.1434-1.1842.2197-.0893.0168-.175.0354-.2625.054-.4059.0838-.8062.1713-1.1953.2644-.028.0075-.0577.0131-.0857.0205-.08.0186-.1582.0391-.2364.0596-.1918.0465-.3817.0949-.5679.1452-.1024.0261-.2011.0559-.2998.0838-.1564.0428-.3128.0857-.4654.1303-.2291.0671-.4543.136-.6759.2067-.054.0168-.1117.0335-.1657.0521-.2719.0894-.5381.1806-.7988.2737-.1229.0447-.2402.0894-.3593.1341-.1136.0428-.229.0856-.3389.1285-.1173.0465-.2309.0949-.3444.1433-.108.0447-.216.0875-.3203.1341-.1117.0484-.2178.0987-.3258.1489-.1006.0466-.2048.0913-.3016.1397-.1062.0503-.2067.1024-.3072.1545-.095.0484-.1918.095-.2831.1434-.0986.0521-.1917.108-.2885.162-.0876.0484-.1769.0968-.2626.1471-.0931.0558-.1824.1117-.2718.1694-.0801.0503-.162.0987-.2383.1489-.0857.0578-.1676.1173-.2495.1751-.0726.0502-.1471.1005-.2179.1526-.0782.0596-.1508.1192-.2253.1788-.067.0521-.1359.1042-.1973.1582-.0726.0615-.1378.1229-.2048.1844-.0577.054-.1192.1061-.175.1601-.0652.0633-.1211.1285-.1825.1918-.0503.054-.1043.1061-.1508.1601-.0577.0651-.1061.1322-.1583.1992-.0428.054-.0875.1061-.1266.162-.0484.067-.0894.1378-.134.2067-.0336.054-.0727.1079-.1025.1619-.0409.0708-.0726.1434-.1061.2142-.026.054-.0558.1061-.08.1601-.0336.0763-.0559.1545-.082.2309-.0167.0502-.0372.0986-.0521.1489-.0242.0875-.0391.175-.0559.2644-.0074.041-.0204.0801-.026.121-.0186.1304-.0279.2588-.0279.391v-2.1635c0-.1303.0093-.2607.0279-.391.0056-.041.0186-.0801.026-.121.0168-.0894.0317-.1769.0559-.2644.0149-.0503.0354-.0987.0521-.149.0261-.0782.0503-.1545.082-.2308.0223-.054.054-.108.08-.1602.0354-.0707.067-.1433.1061-.2141.0298-.054.0689-.108.1025-.162.0446-.0688.0837-.1377.134-.2066.0391-.054.0857-.108.1266-.1602.0522-.067.1006-.134.1583-.1992.0465-.054.1005-.108.1508-.1601.0614-.0652.1173-.1285.1825-.1918.0558-.054.1173-.1061.175-.1601.067-.0614.1322-.1247.2048-.1862.0633-.054.1322-.1042.1973-.1582.0745-.0596.1471-.1211.2253-.1788.0708-.0521.1471-.1043.2197-.1545.082-.0577.162-.1155.2477-.1732.0782-.0521.162-.1024.2439-.1527.0875-.0558.1731-.1117.2644-.1657.0856-.0502.1768-.1005.2644-.1489.0949-.054.188-.1061.2848-.1601.0913-.0484.1881-.095.283-.1434.1024-.0521.203-.1043.3072-.1545.0987-.0466.2011-.0931.3017-.1378.108-.0503.2141-.1006.3258-.149.1061-.0465.216-.0912.324-.1359.1135-.0465.2234-.0949.3388-.1396.1136-.0447.2309-.0875.3463-.1322.1062-.0391.2086-.0801.3166-.1192.0111-.0037.0242-.0074.0353-.0112.2607-.0931.527-.1843.8007-.2737.0521-.0167.1061-.0335.1582-.0484.2234-.0707.4506-.1415.6815-.2085.0242-.0074.0465-.0149.0707-.0223.1285-.0373.2625-.0727.3947-.1099.1006-.0279.1993-.0558.2998-.0838.1843-.0484.3724-.0968.5604-.1433.082-.0205.162-.0429.2458-.0633.0075-.0019.0149-.0038.0223-.0056.0187-.0056.0391-.0093.0596-.0131.391-.0931.7913-.1806 1.1991-.2662.0521-.0112.1005-.0242.1527-.0335.0353-.0075.0744-.0131.1117-.0205.3872-.0763.782-.1508 1.1841-.2197.0187-.0037.0354-.0075.0522-.0093.0558-.0093.1173-.0186.1731-.028.3184-.0521.6387-.1024.9663-.1508.0596-.0093.1173-.0186.1788-.0279.0577-.0074.1173-.0149.175-.0223.3109-.0429.6237-.0838.9421-.1211.0652-.0074.1266-.0167.1918-.0242.0186-.0018.0391-.0037.0577-.0055.3892-.0447.7839-.0838 1.1823-.1211.0242-.0018.0466-.0056.0689-.0074.0745-.0075.1527-.0112.2272-.0168.3053-.026.6107-.0502.9197-.0707.0615-.0038.1229-.0093.1844-.0149.0707-.0056.1452-.0075.2159-.0112.2998-.0186.6014-.0335.9049-.0484.0838-.0037.1657-.0093.2514-.013.0372-.0019.0745-.0019.1117-.0038.4245-.0167.8509-.0297 1.2828-.0372.0112 0 .0224 0 .0335-.0019.3352-.0055.674-.0074 1.0129-.0074.1657 0 .3296 0 .4953.0019.0651 0 .1284.0037.1936.0037.4357.0056.8695.0149 1.2996.0279.0373 0 .0745 0 .1099.0019.0093 0 .0167.0018.026.0018.5474.0205 1.0874.0484 1.6236.0838.0559.0037.1117.0056.1676.0093.054.0037.1061.0093.1601.0131.2625.0186.5213.0391.7801.0614.1192.0093.2384.0186.3557.0298.3742.0335.7447.0707 1.1096.1117h.0019c.0428.0056.0819.0112.1247.0149.2924.0335.5847.0689.8714.1061.1117.0149.2216.0317.3314.0466.216.0298.432.0596.6442.0912.1267.0186.2477.041.3724.0615.1937.0316.3873.0614.5772.0949.1341.0242.2663.0484.3984.0726.1769.0317.3538.0633.527.0968.1359.0261.2681.0559.404.0838.1657.0335.3333.0671.4953.1043.1359.0298.2662.0614.4003.0912.1564.0373.3146.0726.4692.1099.134.0335.2644.067.3947.1005.1489.0373.2997.0764.445.1155.1303.0353.2551.0707.3835.1079.1434.041.2868.0801.4264.1229.0242.0075.0484.0131.0726.0205.0503.0149.095.0317.1452.0466.2682.0819.5288.1657.7839.2532.0856.0279.1713.0577.2551.0856.3072.108.6088.2179.8993.3314l.0074.0019c.0577.0223.1136.0484.1713.0708.1713.0688.3407.1377.5027.2085.0819.0354.1601.0726.2421.1098.1359.0615.2718.1229.4021.1844.0112.0055.0224.0093.0317.0149.1787.0856.3519.175.5195.2643.0279.0149.0521.0298.08.0447.1341.0726.2644.1434.391.216.0112.0075.0205.0149.0335.0205.2402.1396.4674.283.6833.4301.0205.0149.0447.0279.0652.0409.0317.0224.0577.0447.0894.0671.1582.1117.3109.2253.4543.3407.0279.0223.0614.0447.0894.067.0111.0093.0204.0205.0335.0298.1657.1378.3202.2756.4617.4171.0075.0074.0149.0149.0224.0205.0242.0242.0409.0484.0651.0726.1062.1098.2067.2215.2998.3333.0186.0204.0409.0428.0577.0633.0186.0242.0335.0502.0521.0744.0801.1043.1546.2104.2216.3166.0186.0298.0428.0577.0614.0856.0075.0112.0112.0242.0187.0372.0875.1453.1638.2924.2253.4413.0018.0037.0037.0075.0055.0112.0075.0167.0094.0354.0168.0521.0521.1322.095.2644.1285.3985.0056.0204.0149.0391.0204.0595.0131.0615.0224.1229.0317.1844.0037.0205.0093.0428.0112.0651.013.0987.0223.1993.026.2998v.0745 2.1635c0-.1266-.0093-.2514-.026-.3742-.0038-.0224-.0075-.0429-.0112-.0652-.013-.0819-.0316-.1639-.0521-.2439-.0335-.1341-.0764-.2663-.1285-.3985-.0074-.0204-.013-.0428-.0223-.0633-.0633-.1489-.1397-.296-.2253-.4412-.0242-.041-.054-.082-.0801-.1229-.0689-.1061-.1415-.2123-.2216-.3165-.0353-.0466-.0707-.0913-.1098-.1378-.0931-.1117-.1936-.2234-.2998-.3333-.0298-.0298-.0558-.0614-.0875-.0912-.1433-.1415-.2979-.2812-.4617-.4171-.0391-.0317-.082-.0633-.1211-.0968-.1433-.1155-.2941-.229-.4543-.3407-.0502-.0373-.1024-.0727-.1545-.108-.216-.1453-.4413-.2905-.6833-.4301-.1378-.0801-.2774-.1583-.4227-.2365-.0279-.0149-.0521-.0298-.08-.0447-.1788-.0931-.3631-.1862-.553-.2793-.1303-.0633-.2663-.1228-.4022-.1843-.08-.0372-.1582-.0745-.242-.1098-.1676-.0726-.3407-.1434-.5158-.2142-.0558-.0223-.108-.0465-.1657-.0688-.2904-.1155-.592-.2253-.8993-.3315-.0837-.0298-.1694-.0577-.255-.0875-.2551-.0875-.5176-.1713-.7858-.2532-.0726-.0223-.1415-.0447-.2141-.067-.1415-.0428-.2867-.0819-.4319-.1248-.1266-.0353-.2514-.0726-.3799-.1061-.1471-.0391-.2979-.0782-.4487-.1154-.1303-.0335-.2588-.0671-.391-.1006-.1564-.0372-.3165-.0744-.4766-.1098-.1304-.0298-.2607-.0615-.3947-.0913-.1639-.0353-.3296-.0688-.4953-.1042-.1341-.0279-.2663-.0559-.404-.0838-.1732-.0335-.3501-.0652-.527-.0987-.134-.0242-.2643-.0503-.3984-.0726-.1899-.0335-.3854-.0633-.5772-.095-.1247-.0204-.2476-.0409-.3724-.0614-.2122-.0316-.4282-.0614-.6442-.0912-.1117-.0149-.2197-.0317-.3314-.0466-.2867-.0372-.579-.0726-.8714-.1061-.0428-.0056-.0837-.0112-.1266-.0149-.3649-.041-.7354-.0782-1.1078-.1117-.1192-.0112-.2402-.0205-.3612-.0298-.2569-.0205-.5139-.0428-.7745-.0614-.108-.0075-.2179-.0149-.3277-.0205-.5344-.0335-1.0762-.0633-1.6236-.082-.0447-.0018-.0912-.0018-.1378-.0037-.4301-.0149-.862-.0242-1.2996-.0279-.229-.0019-.458-.0075-.6889-.0075-.35 0-.7001.0038-1.0464.0094-.4319.0074-.8583.0204-1.2828.0372-.121.0074-.2421.0149-.3631.0205z" stroke="#13192c" stroke-miterlimit="10" stroke-width=".2"/><path d="m65.5387 36.7632c0 6.0344-13.7017 10.9442-30.5406 10.9442-16.839 0-30.53692-4.9098-30.53692-10.9442s13.69792-10.9442 30.53692-10.9442c16.8389 0 30.5406 4.9098 30.5406 10.9442zm-30.5406 7.6226c11.7299 0 21.2683-3.4203 21.2683-7.6226 0-4.2041-9.5384-7.6226-21.2683-7.6226-11.73 0-21.2684 3.4203-21.2684 7.6226s9.5384 7.6226 21.2684 7.6226z" fill="#59eaac"/><path d="m65.5387 36.7632c0 6.0344-13.7017 10.9442-30.5406 10.9442-16.839 0-30.53692-4.9098-30.53692-10.9442s13.69792-10.9442 30.53692-10.9442c16.8389 0 30.5406 4.9098 30.5406 10.9442zm-30.5406 7.6226c11.7299 0 21.2683-3.4203 21.2683-7.6226 0-4.2041-9.5384-7.6226-21.2683-7.6226-11.73 0-21.2684 3.4203-21.2684 7.6226s9.5384 7.6226 21.2684 7.6226z" stroke="#11192f" stroke-linecap="round" stroke-linejoin="round" stroke-miterlimit="10" stroke-width=".2"/><path d="m4.49842 37.3032c.00372.0317.01117.0615.01676.0931.02234.1397.05213.2793.08937.4171.01117.0391.02048.08.03351.1191.04841.162.10427.3222.1713.4823.0093.0186.01861.0391.02792.0577.06331.1452.13592.2886.21412.4301.02048.0372.0391.0726.06144.1098.09124.1546.18992.3091.29791.4618.01862.0261.0391.0521.05771.0763.09869.1341.20481.2681.31839.4003.02793.0335.05586.0671.08565.1006.13033.1489.26997.2979.41892.4431.02979.0298.06331.0596.09496.0894.13033.1247.26625.2476.40775.3686.0391.0354.0782.0689.11916.1024.17316.1453.35562.2886.54554.432.02979.0223.0633.0447.09309.067.16199.1192.32956.2365.50271.3519.06889.0466.13964.0931.2104.1378.16012.1024.32396.2048.4934.3072.06144.0373.12288.0745.18619.1117.20667.121.42078.2402.63862.3575.03724.0205.07262.041.11172.0614.25508.136.52134.2682.79314.3985.1825.0894.3743.1732.5642.2607.121.054.2364.1098.3593.1638.2272.0987.4636.1955.7001.2923.0931.0373.1806.0764.2756.1136.4152.1638.849.3221 1.2902.4766.1192.0429.2421.0838.365.1248.3668.1247.741.2458 1.1246.3631.1042.0316.2066.0651.3128.0968.2029.0614.4096.1191.6162.1769.1825.0521.3612.1042.5474.1545.2123.0577.4283.1117.6443.1676.188.0484.3723.0968.5622.1433.2216.054.4506.1062.6759.1564.1918.0447.3798.0894.5753.1322.2328.0522.473.0987.7113.149.1936.0391.3835.0819.579.1191.2458.0484.499.0931.7485.1397.1936.0354.3854.0726.5828.1061.2644.0466.5343.0875.8025.1303.188.0298.3723.0633.5622.0913.2924.0447.5903.0856.8863.1266.1732.0242.3426.0503.5157.0726.3799.0503.7671.0949 1.1526.1396.0931.0112.1861.0242.2792.0335.5232.0596 1.0539.1118 1.5901.1602.1713.0149.3463.0279.5195.0428.3686.0316.7391.0614 1.1134.0856.1564.0112.3128.0205.471.0298.769.0484 1.5435.0913 2.3311.1192.0652.0019.1322.0037.1992.0056.6163.0205 1.2382.0335 1.8638.0391.3296.0037.6591.0093.9905.0093.5046 0 1.0054-.0056 1.5044-.013.62-.0112 1.2326-.0298 1.8414-.054.1751-.0075.3464-.0168.5195-.0242.4357-.0205.8695-.0429 1.2996-.0689.1937-.0112.3854-.0242.5772-.0373.445-.0298.8844-.0651 1.3219-.1024.1415-.0111.2849-.0223.4246-.0354.5734-.0521 1.1394-.1098 1.698-.1731.121-.0149.2402-.0298.3631-.0447.4543-.054.9048-.1098 1.3498-.1713.1695-.0242.3389-.0484.5083-.0726.4692-.067.9328-.1396 1.3909-.216.1061-.0186.2141-.0335.3184-.0521.5771-.0987 1.1432-.2048 1.6999-.3165.255-.0503.5064-.1024.7559-.1564.1098-.0242.2197-.0466.3295-.0708.3836-.0838.7616-.1713 1.1321-.2607.1117-.026.2178-.0558.3295-.0837.2774-.0689.5567-.1378.8286-.2104.1433-.0373.2811-.0782.4226-.1173.2272-.0633.4562-.1266.6777-.1918.337-.0987.6647-.1992.9887-.3035.0708-.0223.1452-.0447.2178-.067.3929-.1266.7746-.2588 1.1488-.3929.1751-.0633.3426-.1285.5139-.1936.1639-.0615.3277-.121.4878-.1843.1676-.0671.3277-.136.4916-.203.1545-.0652.3128-.1285.4636-.1936.1582-.0689.3109-.1415.4655-.2104.1452-.067.296-.1341.4375-.2011.1508-.0726.2942-.1471.4394-.2216.1359-.0689.2756-.1377.4078-.2066.1433-.0764.2755-.1546.4133-.2309.1266-.0708.2551-.1415.3761-.2123.1322-.0782.2551-.1582.3817-.2383.1173-.0726.2383-.1452.35-.2197.121-.0801.2346-.1638.3501-.2458.1061-.0744.2178-.1489.3202-.2253.1117-.0837.2141-.1675.3203-.2532.0968-.0763.1973-.1526.2885-.229.1025-.0856.1937-.1731.2886-.2625.0857-.0782.1751-.1545.2551-.2327.0894-.0894.1694-.1788.2532-.2682.0745-.08.1546-.1582.2253-.2383.0782-.0912.1471-.1843.2197-.2755.0633-.0801.1322-.1602.1899-.2421.0671-.0949.1248-.1918.1844-.2867.0521-.0801.108-.1601.1545-.2402.0559-.0987.1006-.1992.149-.2979.0391-.0801.0837-.1583.1191-.2383.0447-.1062.0764-.2123.1136-.3184.0261-.0763.0577-.1508.0801-.2272.0353-.1228.0558-.2476.08-.3723.0112-.0615.0298-.1192.0373-.1806.026-.1844.0391-.3706.0391-.5567 0-.0019 0-.0019 0-.0038v2.1635c0 .1881-.0131.3743-.0391.5605-.0094.0596-.0261.1191-.0373.1769-.0242.1247-.0447.2513-.08.3761-.0205.0763-.054.1508-.0801.2252-.0354.1062-.0689.2142-.1136.3184-.0335.0801-.0782.1583-.1173.2365-.0484.1005-.0931.2011-.1489.2998-.0466.08-.1024.1582-.1527.2383-.0614.0968-.1173.1936-.1862.2886-.0577.08-.1247.1582-.188.2383-.0727.0931-.1416.188-.2216.2793-.0689.08-.149.1582-.2216.2364-.0838.0894-.1657.1806-.2551.27-.08.0782-.1713.1564-.255.2346-.095.0875-.1862.175-.2886.2607-.0913.0782-.1918.1545-.2886.2308-.1061.0838-.2086.1695-.3203.2533-.1024.0763-.2141.1508-.3202.2253-.1173.0819-.229.1638-.35.2457-.1118.0745-.2328.1471-.3501.2197-.1266.0801-.2495.1583-.3817.2383-.121.0727-.2513.1416-.3761.2123-.1378.0763-.2718.1545-.4133.2309-.1322.0707-.2718.1378-.4078.2066-.1452.0745-.2886.149-.4394.2216-.1415.067-.2886.1341-.4338.1992-.1564.0708-.3072.1434-.4673.2142-.149.0651-.3054.1284-.4599.1917-.1639.0689-.3258.1378-.4953.2048-.1582.0633-.3239.1229-.4878.1844-.1527.0577-.3035.1173-.4599.175-.0167.0074-.0354.0112-.054.0186-.3742.1341-.7559.2662-1.1488.3929-.0707.0242-.1452.0446-.2159.067-.3259.1043-.6554.2067-.9924.3053-.0354.0093-.0671.0205-.1006.0298-.188.054-.3817.1062-.5734.1583-.1415.0391-.2812.08-.4264.1173-.2718.0726-.5493.1434-.8285.2104-.1099.0279-.2179.0558-.3296.0838-.0112.0018-.0205.0056-.0317.0074-.3612.0875-.7298.1713-1.1003.2532-.108.0242-.2197.0466-.3296.0708-.1974.0428-.3929.0856-.5939.1266-.0522.0112-.108.0186-.162.0298-.5567.1117-1.1227.2178-1.6999.3165-.0261.0037-.0484.0093-.0726.013-.0801.0131-.1657.0242-.2458.0391-.458.0764-.9216.1471-1.3908.216-.0857.0131-.1695.0279-.257.0391-.0819.0112-.1676.0205-.2513.0317-.445.0614-.8956.1173-1.3499.1713-.0931.0111-.1843.0242-.2774.0353-.028.0038-.0577.0056-.0857.0093-.5585.0634-1.1246.1211-1.698.1732-.0335.0019-.0652.0074-.0987.0093-.108.0093-.2178.0149-.3258.0242-.4376.0373-.877.0708-1.322.1024-.0893.0075-.1769.0149-.2662.0205-.1024.0075-.2086.0093-.311.0168-.4301.026-.8639.0484-1.2996.0688-.121.0056-.2383.0149-.3593.0187-.0521.0018-.108.0037-.1601.0056-.6089.0242-1.2233.0428-1.8414.0539-.0168 0-.0317.0019-.0485.0019-.4822.0075-.9681.013-1.4559.013-.2365 0-.473-.0018-.7094-.0037-.095 0-.1862-.0056-.2812-.0056-.6256-.0074-1.2474-.0204-1.8637-.0409-.0522-.0019-.108-.0019-.1602-.0038-.013 0-.026-.0018-.0391-.0018-.7875-.0279-1.5621-.0689-2.331-.1192-.0801-.0056-.162-.0074-.2402-.0111-.0782-.0056-.1527-.0131-.229-.0187-.3743-.026-.7448-.0558-1.1134-.0875-.1732-.0149-.3482-.0279-.5195-.0428-.5362-.0484-1.0669-.1005-1.5901-.1601-.0018 0-.0018 0-.0037 0-.0931-.0112-.1825-.0224-.2756-.0335-.3872-.0447-.7726-.0913-1.1525-.1415-.1731-.0224-.3444-.0484-.5157-.0726-.2961-.041-.594-.082-.8863-.1267-.1899-.0298-.3742-.0614-.5623-.0912-.2681-.0428-.538-.0856-.8024-.1303-.1974-.0335-.3873-.0708-.5828-.1062-.2495-.0465-.5027-.0912-.7485-.1396-.1955-.0391-.3854-.0801-.579-.1192-.2384-.0484-.4767-.0968-.7113-.1489-.1955-.0428-.3835-.0875-.5753-.1322-.2272-.0521-.4543-.1024-.6759-.1564-.1899-.0465-.3742-.095-.5623-.1434-.2159-.0558-.4319-.1098-.6442-.1675-.1843-.0503-.3649-.1024-.5474-.1546-.2066-.0577-.4152-.1173-.6163-.1769-.0335-.0093-.0707-.0186-.1042-.0297-.0708-.0224-.1378-.0466-.2086-.0671-.3835-.1173-.7577-.2383-1.1245-.363-.1211-.041-.2439-.082-.365-.1248-.4412-.1545-.8751-.3128-1.2903-.4766-.0037-.0019-.0074-.0019-.0111-.0038-.0857-.0335-.1657-.0688-.2495-.1042-.2421-.0987-.4841-.1974-.7169-.2979-.121-.0522-.2364-.108-.3537-.162-.1918-.0857-.3854-.1732-.5698-.2625-.0148-.0075-.0335-.0149-.0484-.0224-.255-.1247-.50453-.2495-.74472-.3779-.0391-.0205-.07447-.041-.11171-.0615-.19178-.1042-.38355-.2067-.56602-.3128-.02606-.0149-.04841-.0298-.07261-.0447-.0633-.0372-.12475-.0744-.18619-.1117-.16943-.1005-.33328-.2029-.4934-.3072-.07075-.0465-.1415-.0912-.21039-.1378-.05214-.0353-.10799-.0689-.16013-.1042-.11916-.082-.23087-.1639-.34445-.2477-.03165-.0223-.0633-.0447-.09309-.067-.16199-.121-.32025-.242-.4692-.3649-.02606-.0224-.05027-.0429-.07634-.0652-.04096-.0335-.08006-.0689-.11916-.1024-.1415-.121-.27742-.2458-.40775-.3705-.03165-.0298-.06517-.0596-.09496-.0894-.01489-.0149-.03165-.0279-.04654-.0428-.1322-.1322-.25508-.2663-.37238-.4003-.02979-.0335-.05772-.067-.08565-.1006-.04841-.0577-.10054-.1154-.14709-.1731-.05958-.0745-.11544-.1508-.17129-.2272-.01862-.026-.0391-.0502-.05772-.0763-.08937-.1247-.17502-.2514-.25136-.3798-.01675-.028-.02979-.0559-.04654-.082-.02049-.0372-.04097-.0726-.06145-.1098-.0782-.1434-.15081-.2849-.21411-.4301-.00931-.0205-.01862-.0391-.02793-.0577-.00373-.0075-.00745-.0149-.01117-.0224-.06331-.1526-.11544-.3053-.16013-.4598-.01117-.0391-.02234-.0801-.03351-.1192-.01303-.0521-.02979-.1024-.04282-.1545-.02049-.0876-.03352-.1751-.04655-.2644-.00559-.0317-.01304-.0615-.01676-.0931-.01862-.1434-.03351-.2868-.03724-.432-.00186-.0354-.00186-.0707-.00186-.1061v-2.1635c0 .1899.0149.3705.03724.5492z" fill="#119679"/><path d="m4.49842 37.3032c.00372.0317.01117.0615.01676.0931.02234.1397.05213.2793.08937.4171.01117.0391.02048.08.03351.1191.04841.162.10427.3222.1713.4823.0093.0186.01861.0391.02792.0577.06331.1452.13592.2886.21412.4301.02048.0372.0391.0726.06144.1098.09124.1546.18992.3091.29791.4618.01862.0261.0391.0521.05771.0763.09869.1341.20481.2681.31839.4003.02793.0335.05586.0671.08565.1006.13033.1489.26997.2979.41892.4431.02979.0298.06331.0596.09496.0894.13033.1247.26625.2476.40775.3686.0391.0354.0782.0689.11916.1024.17316.1453.35562.2886.54554.432.02979.0223.0633.0447.09309.067.16199.1192.32956.2365.50271.3519.06889.0466.13964.0931.2104.1378.16012.1024.32396.2048.4934.3072.06144.0373.12288.0745.18619.1117.20667.121.42078.2402.63862.3575.03724.0205.07262.041.11172.0614.25508.136.52134.2682.79314.3985.1825.0894.3743.1732.5642.2607.121.054.2364.1098.3593.1638.2272.0987.4636.1955.7001.2923.0931.0373.1806.0764.2756.1136.4152.1638.849.3221 1.2902.4766.1192.0429.2421.0838.365.1248.3668.1247.741.2458 1.1246.3631.1042.0316.2066.0651.3128.0968.2029.0614.4096.1191.6162.1769.1825.0521.3612.1042.5474.1545.2123.0577.4283.1117.6443.1676.188.0484.3723.0968.5622.1433.2216.054.4506.1062.6759.1564.1918.0447.3798.0894.5753.1322.2328.0522.473.0987.7113.149.1936.0391.3835.0819.579.1191.2458.0484.499.0931.7485.1397.1936.0354.3854.0726.5828.1061.2644.0466.5343.0875.8025.1303.188.0298.3723.0633.5622.0913.2924.0447.5903.0856.8863.1266.1732.0242.3426.0503.5157.0726.3799.0503.7671.0949 1.1526.1396.0931.0112.1861.0242.2792.0335.5232.0596 1.0539.1118 1.5901.1602.1713.0149.3463.0279.5195.0428.3686.0316.7391.0614 1.1134.0856.1564.0112.3128.0205.471.0298.769.0484 1.5435.0913 2.3311.1192.0652.0019.1322.0037.1992.0056.6163.0205 1.2382.0335 1.8638.0391.3296.0037.6591.0093.9905.0093.5046 0 1.0054-.0056 1.5044-.013.62-.0112 1.2326-.0298 1.8414-.054.1751-.0075.3464-.0168.5195-.0242.4357-.0205.8695-.0429 1.2996-.0689.1937-.0112.3854-.0242.5772-.0373.445-.0298.8844-.0651 1.3219-.1024.1415-.0111.2849-.0223.4246-.0354.5734-.0521 1.1394-.1098 1.698-.1731.121-.0149.2402-.0298.3631-.0447.4543-.054.9048-.1098 1.3498-.1713.1695-.0242.3389-.0484.5083-.0726.4692-.067.9328-.1396 1.3909-.216.1061-.0186.2141-.0335.3184-.0521.5771-.0987 1.1432-.2048 1.6999-.3165.255-.0503.5064-.1024.7559-.1564.1098-.0242.2197-.0466.3295-.0708.3836-.0838.7616-.1713 1.1321-.2607.1117-.026.2178-.0558.3295-.0837.2774-.0689.5567-.1378.8286-.2104.1433-.0373.2811-.0782.4226-.1173.2272-.0633.4562-.1266.6777-.1918.337-.0987.6647-.1992.9887-.3035.0708-.0223.1452-.0447.2178-.067.3929-.1266.7746-.2588 1.1488-.3929.1751-.0633.3426-.1285.5139-.1936.1639-.0615.3277-.121.4878-.1843.1676-.0671.3277-.136.4916-.203.1545-.0652.3128-.1285.4636-.1936.1582-.0689.3109-.1415.4655-.2104.1452-.067.296-.1341.4375-.2011.1508-.0726.2942-.1471.4394-.2216.1359-.0689.2756-.1377.4078-.2066.1433-.0764.2755-.1546.4133-.2309.1266-.0708.2551-.1415.3761-.2123.1322-.0782.2551-.1582.3817-.2383.1173-.0726.2383-.1452.35-.2197.1211-.0801.2346-.1638.3501-.2458.1061-.0744.2178-.1489.3202-.2253.1117-.0837.2141-.1675.3203-.2532.0968-.0763.1973-.1526.2885-.229.1024-.0856.1937-.1731.2886-.2625.0857-.0782.1751-.1545.2551-.2327.0894-.0894.1695-.1788.2532-.2682.0745-.08.1546-.1582.2253-.2383.0782-.0912.1471-.1843.2197-.2755.0633-.0801.1322-.1602.1899-.2421.0671-.0949.1248-.1918.1844-.2867.0521-.0801.108-.1601.1545-.2402.0559-.0987.1006-.1992.149-.2979.0391-.0801.0837-.1583.1191-.2383.0447-.1062.0764-.2123.1136-.3184.0261-.0763.0577-.1508.0801-.2272.0353-.1228.0558-.2476.08-.3723.0112-.0615.0298-.1192.0373-.1806.026-.1844.0391-.3706.0391-.5567 0-.0019 0-.0019 0-.0038v2.1635c0 .1881-.0131.3743-.0391.5605-.0094.0596-.0261.1191-.0373.1769-.0242.1247-.0447.2513-.08.3761-.0205.0763-.054.1508-.0801.2252-.0354.1062-.0689.2142-.1136.3184-.0335.0801-.0782.1583-.1173.2365-.0484.1005-.0931.2011-.1489.2998-.0466.08-.1024.1582-.1527.2383-.0614.0968-.1173.1936-.1862.2886-.0577.08-.1247.1582-.188.2383-.0727.0931-.1416.188-.2216.2793-.0689.08-.149.1582-.2216.2364-.0838.0894-.1657.1806-.2551.27-.08.0782-.1713.1564-.255.2346-.095.0875-.1862.175-.2886.2607-.0913.0782-.1918.1545-.2886.2308-.1062.0838-.2086.1695-.3203.2533-.1024.0763-.2141.1508-.3202.2253-.1173.0819-.229.1638-.35.2457-.1118.0745-.2328.1471-.3501.2197-.1266.0801-.2495.1583-.3817.2383-.121.0727-.2513.1416-.3761.2123-.1378.0763-.2718.1545-.4133.2309-.1322.0707-.2718.1378-.4078.2066-.1452.0745-.2886.149-.4394.2216-.1415.067-.2886.1341-.4338.1992-.1564.0708-.3072.1434-.4673.2142-.149.0651-.3054.1284-.4599.1917-.1639.0689-.3258.1378-.4953.2048-.1582.0633-.3239.1229-.4878.1844-.1527.0577-.3035.1173-.4599.175-.0167.0074-.0354.0112-.054.0186-.3742.1341-.7559.2662-1.1488.3929-.0707.0242-.1452.0446-.2159.067-.3259.1043-.6554.2067-.9924.3053-.0354.0093-.0671.0205-.1006.0298-.188.054-.3817.1062-.5734.1583-.1415.0391-.2812.08-.4264.1173-.2718.0726-.5493.1434-.8285.2104-.1099.0279-.2179.0558-.3296.0838-.0112.0018-.0205.0056-.0317.0074-.3612.0875-.7298.1713-1.1003.2532-.108.0242-.2197.0466-.3296.0708-.1974.0428-.3929.0856-.5939.1266-.0522.0112-.108.0186-.162.0298-.5567.1117-1.1227.2178-1.6999.3165-.0261.0037-.0484.0093-.0726.013-.0801.0131-.1657.0242-.2458.0391-.458.0764-.9216.1471-1.3908.216-.0857.0131-.1695.0279-.257.0391-.0819.0112-.1676.0205-.2513.0317-.445.0614-.8956.1173-1.3499.1713-.0931.0111-.1843.0242-.2774.0353-.028.0038-.0577.0056-.0857.0093-.5585.0634-1.1246.1211-1.698.1732-.0335.0019-.0652.0074-.0987.0093-.108.0093-.2178.0149-.3258.0242-.4376.0373-.877.0708-1.322.1024-.0893.0075-.1769.0149-.2662.0205-.1024.0075-.2086.0093-.311.0168-.4301.026-.8639.0484-1.2996.0688-.121.0056-.2383.0149-.3593.0187-.0521.0018-.108.0037-.1601.0056-.6089.0242-1.2233.0428-1.8414.054-.0168 0-.0317.0018-.0485.0018-.4822.0075-.9681.013-1.4559.013-.2365 0-.473-.0018-.7094-.0037-.095 0-.1862-.0056-.2812-.0056-.6256-.0074-1.2474-.0204-1.8637-.0409-.0522-.0019-.108-.0019-.1602-.0038-.013 0-.026-.0018-.0391-.0018-.7875-.0279-1.5621-.0689-2.331-.1192-.0801-.0056-.162-.0074-.2402-.0111-.0782-.0056-.1527-.0131-.229-.0187-.3743-.026-.7448-.0558-1.1134-.0875-.1732-.0149-.3482-.0279-.5195-.0428-.5362-.0484-1.0669-.1005-1.5901-.1601-.0018 0-.0018 0-.0037 0-.0931-.0112-.1825-.0224-.2756-.0335-.3872-.0447-.7726-.0913-1.1525-.1415-.1731-.0224-.3444-.0484-.5157-.0727-.2961-.0409-.594-.0819-.8863-.1266-.1899-.0298-.3742-.0614-.5623-.0912-.2681-.0428-.538-.0856-.8024-.1303-.1974-.0335-.3873-.0708-.5828-.1062-.2495-.0465-.5027-.0912-.7485-.1396-.1955-.0391-.3854-.0801-.579-.1192-.2384-.0484-.4767-.0968-.7113-.1489-.1955-.0428-.3835-.0875-.5753-.1322-.2272-.0521-.4543-.1024-.6759-.1564-.1899-.0465-.3742-.095-.5623-.1434-.2159-.0558-.4319-.1098-.6442-.1675-.1843-.0503-.3649-.1024-.5474-.1546-.2066-.0577-.4152-.1173-.6163-.1769-.0335-.0093-.0707-.0186-.1042-.0297-.0708-.0224-.1378-.0466-.2086-.0671-.3835-.1173-.7577-.2383-1.1245-.363-.1211-.041-.2439-.082-.365-.1248-.4412-.1545-.8751-.3128-1.2903-.4766-.0037-.0019-.0074-.0019-.0111-.0038-.0857-.0335-.1657-.0688-.2495-.1042-.2421-.0987-.4841-.1974-.7169-.2979-.121-.0522-.2364-.108-.3537-.162-.1918-.0857-.3854-.1732-.5698-.2625-.0148-.0075-.0335-.0149-.0484-.0224-.255-.1247-.50453-.2495-.74472-.3779-.0391-.0205-.07447-.041-.11171-.0615-.19178-.1042-.38355-.2067-.56602-.3128-.02606-.0149-.04841-.0298-.07261-.0447-.0633-.0372-.12475-.0744-.18619-.1117-.16943-.1005-.33328-.2029-.4934-.3072-.07075-.0465-.1415-.0912-.21039-.1378-.05214-.0353-.10799-.0689-.16013-.1042-.11916-.082-.23087-.1639-.34445-.2477-.03165-.0223-.0633-.0447-.09309-.067-.16199-.121-.32025-.242-.4692-.3649-.02606-.0224-.05027-.0429-.07634-.0652-.04096-.0335-.08006-.0689-.11916-.1024-.1415-.121-.27742-.2458-.40775-.3705-.03165-.0298-.06517-.0596-.09496-.0894-.01489-.0149-.03165-.0279-.04654-.0428-.1322-.1322-.25508-.2663-.37238-.4003-.02979-.0335-.05772-.067-.08565-.1006-.04841-.0577-.10054-.1154-.14709-.1731-.05958-.0745-.11544-.1508-.17129-.2272-.01862-.026-.0391-.0502-.05772-.0763-.08937-.1247-.17502-.2514-.25136-.3798-.01675-.028-.02979-.0559-.04654-.082-.02049-.0372-.04097-.0726-.06145-.1098-.0782-.1434-.15081-.2849-.21411-.4301-.00931-.0205-.01862-.0391-.02793-.0577-.00373-.0075-.00745-.0149-.01117-.0224-.06331-.1526-.11544-.3053-.16013-.4598-.01117-.0391-.02234-.0801-.03351-.1192-.01303-.0521-.02979-.1024-.04282-.1545-.02049-.0876-.03352-.1751-.04655-.2644-.00559-.0317-.01304-.0615-.01676-.0931-.01862-.1434-.03351-.2868-.03724-.432-.00186-.0354-.00186-.0707-.00186-.1061v-2.1635c0 .1899.0149.3705.03724.5492z" stroke="#13192c" stroke-miterlimit="10" stroke-width=".2"/><path d="m35.0019 27.3216c-12.1451 0-21.9926 3.5301-21.9926 7.8814 0 4.3531 9.8475 7.8814 21.9926 7.8814 12.1452 0 21.9908-3.5283 21.9908-7.8814 0-4.3513-9.8438-7.8814-21.9908-7.8814z" fill="#24bc89"/><path d="m32.7154 30.6209c-.2569.0112-.5138.0261-.7689.041-.1136.0074-.2272.0149-.3389.0223-.2625.0186-.5232.0372-.782.0596-.0838.0074-.1675.013-.2513.0205-.3389.0298-.674.0651-1.0036.1024-.0707.0074-.1415.0167-.2122.026-.27.0317-.5363.0652-.7988.1024-.1005.0131-.1992.028-.2998.0429-.2774.0409-.5492.0819-.8192.1266-.0633.0111-.1285.0205-.1918.0316-.3407.0596-.6758.121-1.0054.1881-.0745.0149-.1489.0298-.2234.0465-.3445.0708-.6852.1452-1.0148.2253-.0242.0056-.0484.0112-.0726.0168-.0689.0167-.134.0335-.201.0502-.162.041-.324.0801-.4823.1229-.0856.0224-.1694.0466-.2551.0708-.1322.0372-.2662.0726-.3947.1117-.1955.0577-.3854.1154-.5734.175-.0466.0149-.095.0279-.1415.0447-.2309.0745-.4581.1527-.6778.2309-.1042.0372-.2029.0763-.3053.1154-.0968.0372-.1937.0726-.2868.1099-.1005.0391-.1955.08-.2923.121-.0912.0372-.1843.0745-.2718.1136-.095.0409-.1843.0837-.2774.1266-.0857.0391-.1732.0782-.257.1173-.0893.0428-.175.0875-.2606.1322-.0801.0409-.162.08-.2402.121-.0838.0447-.1639.0912-.2458.1378-.0745.0409-.1508.0819-.2216.1247-.08.0466-.1545.095-.2308.1434-.0671.0428-.1378.0838-.2011.1266-.0745.0484-.1415.0987-.2123.1489-.0614.0429-.1266.0857-.1843.1304-.067.0502-.1285.1005-.1918.1526-.0558.0447-.1154.0894-.1675.1341-.0615.0521-.1155.1043-.1732.1564-.0484.0447-.1024.0894-.1489.1359-.054.054-.1025.108-.1546.1639-.0428.0446-.0894.0912-.1285.1359-.0484.0558-.0893.1117-.134.1694-.0354.0447-.0745.0912-.108.1378-.041.0577-.0763.1173-.1136.175-.0279.0466-.0614.0912-.0875.1378-.0335.0596-.0614.121-.0912.1806-.0224.0447-.0484.0912-.067.1359-.028.0652-.0485.1303-.0708.1974-.0149.0428-.0317.0838-.0447.1266-.0205.0745-.0335.1489-.0484.2234-.0056.0354-.0167.0689-.0223.1024-.0149.1099-.0242.2197-.0242.3314v-1.8358c0-.1117.0074-.2216.0242-.3314.0056-.0354.0149-.0689.0223-.1024.0149-.0745.0261-.1508.0484-.2253.0112-.0428.0298-.0838.0447-.1266.0223-.0652.0428-.1304.0708-.1955.0186-.0466.0446-.0912.067-.1359.0298-.0615.0558-.1211.0912-.1825.0261-.0465.0577-.0912.0875-.1378.0373-.0577.0726-.1173.1136-.175.0335-.0465.0726-.0912.108-.1359.0447-.0559.0856-.1136.134-.1694.0391-.0466.0857-.0913.1285-.136.0503-.054.0987-.1098.1546-.1638.0465-.0466.0986-.0912.1489-.1359.0577-.0522.1117-.1062.1732-.1564.054-.0447.1117-.0894.1675-.1341.0633-.0503.1248-.1024.1918-.1527.0596-.0446.1248-.0875.1881-.1322.0688-.0484.1359-.0986.2103-.147.0671-.0447.1378-.0857.2067-.1304.0745-.0465.1471-.0931.2253-.1396.0726-.0428.149-.0838.2253-.1266.0801-.0447.1583-.0913.242-.1359.0764-.041.1602-.082.2402-.1211.0857-.0447.1713-.0875.2607-.1322.0838-.0391.1713-.0782.2569-.1173.0913-.0428.1825-.0856.2775-.1266.0893-.0391.1824-.0763.2755-.1154.0968-.0391.1899-.0801.2886-.1192.0968-.0391.1955-.0744.2942-.1117.0894-.0335.1769-.0689.2681-.1024.0093-.0037.0205-.0074.0298-.0093.2197-.0801.4468-.1583.6796-.2327.0447-.0149.0912-.028.134-.0429.1899-.0614.3817-.1191.5791-.1768.0205-.0056.0391-.0131.0614-.0187.1099-.0316.2235-.0614.3352-.093.0856-.0243.1694-.0485.255-.0708.1564-.041.3166-.0819.4748-.121.0708-.0168.1378-.0354.2086-.0522.0074-.0018.013-.0037.0186-.0055.0167-.0038.0335-.0075.0502-.0112.3315-.0801.6722-.1546 1.0185-.2253.0447-.0093.0838-.0205.1285-.0279.0298-.0056.0633-.0112.0949-.0187.3296-.0651.6647-.1284 1.0055-.1861.0148-.0019.0297-.0056.0446-.0075.0484-.0093.0987-.0149.1471-.0242.27-.0447.5437-.0875.8193-.1266.0502-.0074.1005-.0168.1508-.0242.0484-.0075.0987-.0112.1471-.0186.2644-.0354.5306-.0708.7987-.1024.054-.0075.108-.0149.1639-.0205.0167-.0019.0335-.0037.0484-.0056.3295-.0372.6647-.0707 1.0035-.1024.0205-.0019.0391-.0037.0596-.0056.0633-.0056.1285-.0093.1918-.0149.2588-.0223.5195-.0428.782-.0596.0521-.0037.1042-.0093.1564-.013.0614-.0037.1229-.0056.1824-.0093.2551-.0168.5102-.0298.769-.041.0708-.0037.1415-.0093.2123-.0111.0316-.0019.0633-.0019.0949-.0019.3594-.0149.7224-.0242 1.0892-.0317h.028c.2848-.0055.5716-.0074.8601-.0074.1397 0 .2793 0 .419.0019.0558 0 .1098.0037.1657.0037.3705.0037.7373.0112 1.1022.0242.0317 0 .0633 0 .0931.0019.0075 0 .0149 0 .0224.0018.4654.0168.9235.041 1.3778.0708.0465.0018.0968.0037.1433.0074.0466.0037.0894.0075.1359.0112.2216.0149.4432.0335.661.0521.1006.0093.2011.0168.3016.0261.3166.0279.6312.0596.9422.0949h.0018c.0354.0038.0708.0094.1061.0131.2495.0279.4953.0577.7411.0893.0949.0131.188.028.283.041.1825.0261.3668.0503.5474.0782.1061.0168.2104.0354.3165.0521.1638.0261.3296.0522.4915.0801.1155.0205.2253.041.3389.0633.149.0279.2998.054.4469.0819.1154.0224.229.0466.3425.0708.1416.0279.2831.0577.4208.0875.1155.0261.2272.0521.3389.0782.1341.0298.2681.0614.3984.0931.1136.0279.2235.0558.3352.0856.1266.0317.2551.0652.3779.0987.1099.0298.2179.0615.3259.0912.121.0354.2439.0671.3612.1043.0205.0056.0409.0112.0614.0168.0429.013.082.026.1229.0391.2272.0689.4487.1415.6666.2141.0726.0242.1452.0484.2159.0745.2607.0912.5177.1843.7634.2811.0019 0 .0038.0019.0056.0019.0503.0204.0968.0409.1452.0614.1453.0577.2886.1173.4264.1769.0708.0298.1359.0633.2048.0931.1155.0521.2309.1024.3407.1564.0094.0037.0187.0093.028.013.1508.0745.2979.1471.4412.2234.0242.0112.0447.0242.0671.0373.1135.0614.2253.121.3314.1843l.0279.0168c.2048.1191.3966.2402.5791.3649.0167.0112.0391.0242.0558.0354.0261.0186.0484.0391.0745.0577.1359.0949.2644.1918.3854.2886.0242.0186.0521.0372.0745.0558.0112.0075.0186.0168.0279.0261.1397.1173.2718.2346.3929.3538.0056.0056.013.0111.0186.0167.0205.0205.0354.041.0558.0615.0913.0931.1751.188.2551.283.0149.0186.0335.0353.0484.054.0168.0204.028.0428.0447.0633.0689.0893.1303.1787.1881.2681.0149.0242.0372.0484.0521.0726.0074.0093.0093.0205.0168.0317.0726.1228.1377.2476.1917.3742.0019.0037.0038.0056.0038.0093.0055.0149.0093.0298.0149.0447.0446.1117.08.2253.1098.3389.0037.0167.013.0335.0168.0521.0111.0521.0186.1042.0279.1564.0037.0186.0074.0372.0093.0558.0112.0857.0205.1695.0223.2551v.0633 1.8358c0-.1061-.0074-.2122-.0223-.3183-.0019-.0187-.0074-.0373-.0093-.0559-.0112-.0689-.0261-.1378-.0447-.2067-.0279-.1135-.0652-.2271-.1098-.3388-.0075-.0168-.0112-.0354-.0187-.0522-.054-.1266-.1191-.2513-.1917-.3742-.0205-.0354-.0447-.0689-.0671-.1043-.0577-.0893-.121-.1806-.188-.2681-.0298-.0391-.0615-.0782-.0931-.1173-.0801-.0949-.1639-.1899-.2551-.283-.0261-.0261-.0484-.0521-.0745-.0782-.121-.1191-.2532-.2383-.3928-.3537-.0335-.028-.0689-.054-.1043-.082-.121-.0968-.2495-.1936-.3854-.2886-.0428-.0297-.0875-.0614-.1303-.0912-.1825-.1247-.3761-.2458-.5809-.3649-.1173-.067-.2365-.1341-.3594-.2011-.0242-.013-.0447-.0261-.0689-.0372-.1508-.0801-.3091-.1583-.4692-.2365-.1098-.054-.2271-.1061-.3407-.1564-.0689-.0317-.1341-.0633-.2048-.0931-.1415-.0614-.2886-.121-.4376-.1825-.0465-.0186-.0912-.0391-.1396-.0577-.2458-.0968-.5027-.1899-.7634-.2811-.0707-.0242-.1433-.0484-.216-.0745-.2178-.0745-.4394-.1452-.6665-.216-.0615-.0186-.121-.0372-.1825-.0558-.1191-.0354-.2439-.0708-.3668-.1062-.108-.0298-.2122-.0614-.3221-.0912-.1247-.0335-.2532-.0652-.3817-.0987-.1098-.0279-.2197-.0577-.3314-.0838-.1322-.0335-.2681-.0633-.404-.0949-.1117-.0261-.2216-.0522-.3351-.0764-.1378-.0298-.2812-.0595-.4208-.0875-.1136-.0242-.2272-.0484-.3426-.0707-.1471-.0279-.2979-.0559-.4469-.0819-.1136-.0205-.2253-.0429-.3388-.0633-.162-.028-.3259-.054-.4916-.0801-.1061-.0168-.2104-.0354-.3165-.0521-.1806-.028-.3631-.0522-.5474-.0782-.095-.0131-.1881-.028-.283-.0391-.2439-.0317-.4915-.0615-.741-.0913-.0354-.0037-.0708-.0093-.108-.013-.3091-.0354-.6238-.0652-.9403-.095-.1024-.0093-.2048-.0167-.3072-.026-.2178-.0186-.4375-.0354-.6591-.0522-.0912-.0074-.1843-.0111-.2793-.0186-.4543-.0298-.9123-.054-1.3778-.0707-.0391-.0019-.0782-.0019-.1173-.0019-.3649-.013-.7317-.0205-1.1022-.0242-.1955-.0019-.3892-.0056-.5847-.0056-.2979 0-.5939.0037-.8881.0075-.3668.0055-.7298.0167-1.0892.0316-.0968-.0037-.1974.0019-.2998.0056z" fill="#119679"/><path d="m32.7154 30.6209c-.2569.0112-.5138.0261-.7689.041-.1136.0074-.2272.0149-.3389.0223-.2625.0186-.5232.0372-.782.0596-.0838.0074-.1675.013-.2513.0205-.3389.0298-.674.0651-1.0036.1024-.0707.0074-.1415.0167-.2122.026-.27.0317-.5363.0652-.7988.1024-.1005.0131-.1992.028-.2998.0429-.2774.0409-.5492.0819-.8192.1266-.0633.0111-.1285.0205-.1918.0316-.3407.0596-.6758.121-1.0054.1881-.0745.0149-.1489.0298-.2234.0465-.3445.0708-.6852.1452-1.0148.2253-.0242.0056-.0484.0112-.0726.0168-.0689.0167-.134.0335-.201.0502-.162.041-.324.0801-.4823.1229-.0856.0224-.1694.0466-.2551.0708-.1322.0372-.2662.0726-.3947.1117-.1955.0577-.3854.1154-.5734.175-.0466.0149-.095.0279-.1415.0447-.2309.0745-.4581.1527-.6778.2309-.1042.0372-.2029.0763-.3053.1154-.0968.0372-.1937.0726-.2868.1099-.1005.0391-.1955.08-.2923.121-.0912.0372-.1843.0745-.2718.1136-.095.0409-.1843.0837-.2774.1266-.0857.0391-.1732.0782-.257.1173-.0893.0428-.175.0875-.2606.1322-.0801.0409-.162.08-.2402.121-.0838.0447-.1639.0912-.2458.1378-.0745.0409-.1508.0819-.2216.1247-.08.0466-.1545.095-.2308.1434-.0671.0428-.1378.0838-.2011.1266-.0745.0484-.1415.0987-.2123.1489-.0614.0429-.1266.0857-.1843.1304-.067.0502-.1285.1005-.1918.1526-.0558.0447-.1154.0894-.1675.1341-.0615.0521-.1155.1043-.1732.1564-.0484.0447-.1024.0894-.1489.1359-.054.054-.1025.108-.1546.1639-.0428.0446-.0894.0912-.1285.1359-.0484.0558-.0893.1117-.134.1694-.0354.0447-.0745.0912-.108.1378-.041.0577-.0763.1173-.1136.175-.0279.0466-.0614.0912-.0875.1378-.0335.0596-.0614.121-.0912.1806-.0224.0447-.0484.0912-.067.1359-.028.0652-.0485.1303-.0708.1974-.0149.0428-.0317.0838-.0447.1266-.0205.0745-.0335.1489-.0484.2234-.0056.0354-.0167.0689-.0223.1024-.0149.1099-.0242.2197-.0242.3314v-1.8358c0-.1117.0074-.2216.0242-.3314.0056-.0354.0149-.0689.0223-.1024.0149-.0745.0261-.1508.0484-.2253.0112-.0428.0298-.0838.0447-.1266.0223-.0652.0428-.1304.0708-.1955.0186-.0466.0446-.0912.067-.1359.0298-.0615.0558-.1211.0912-.1825.0261-.0465.0577-.0912.0875-.1378.0373-.0577.0726-.1173.1136-.175.0335-.0465.0726-.0912.108-.1359.0447-.0559.0856-.1136.134-.1694.0391-.0466.0857-.0913.1285-.136.0503-.054.0987-.1098.1546-.1638.0465-.0466.0986-.0912.1489-.1359.0577-.0522.1117-.1062.1732-.1564.054-.0447.1117-.0894.1675-.1341.0633-.0503.1248-.1024.1918-.1527.0596-.0446.1248-.0875.1881-.1322.0688-.0484.1359-.0986.2103-.147.0671-.0447.1378-.0857.2067-.1304.0745-.0465.1471-.0931.2253-.1396.0726-.0428.149-.0838.2253-.1266.0801-.0447.1583-.0913.242-.1359.0764-.041.1602-.082.2402-.1211.0857-.0447.1713-.0875.2607-.1322.0838-.0391.1713-.0782.2569-.1173.0913-.0428.1825-.0856.2775-.1266.0893-.0391.1824-.0763.2755-.1154.0968-.0391.1899-.0801.2886-.1192.0968-.0391.1955-.0744.2942-.1117.0894-.0335.1769-.0689.2681-.1024.0093-.0037.0205-.0074.0298-.0093.2197-.0801.4468-.1583.6796-.2327.0447-.0149.0912-.028.134-.0429.1899-.0614.3817-.1191.5791-.1768.0205-.0056.0391-.0131.0614-.0187.1099-.0316.2235-.0614.3352-.093.0856-.0243.1694-.0485.255-.0708.1564-.041.3166-.0819.4748-.121.0708-.0168.1378-.0354.2086-.0522.0074-.0018.013-.0037.0186-.0055.0167-.0038.0335-.0075.0502-.0112.3315-.0801.6722-.1546 1.0185-.2253.0447-.0093.0838-.0205.1285-.0279.0298-.0056.0633-.0112.0949-.0187.3296-.0651.6647-.1284 1.0055-.1861.0148-.0019.0297-.0056.0446-.0075.0484-.0093.0987-.0149.1471-.0242.27-.0447.5437-.0875.8193-.1266.0502-.0074.1005-.0168.1508-.0242.0484-.0075.0987-.0112.1471-.0186.2644-.0354.5306-.0708.7987-.1024.054-.0075.108-.0149.1639-.0205.0167-.0019.0335-.0037.0484-.0056.3295-.0372.6647-.0707 1.0035-.1024.0205-.0019.0391-.0037.0596-.0056.0633-.0056.1285-.0093.1918-.0149.2588-.0223.5195-.0428.782-.0596.0521-.0037.1042-.0093.1564-.013.0614-.0037.1229-.0056.1824-.0093.2551-.0168.5102-.0298.769-.041.0708-.0037.1415-.0093.2123-.0111.0316-.0019.0633-.0019.0949-.0019.3594-.0149.7224-.0242 1.0892-.0317h.028c.2848-.0055.5716-.0074.8601-.0074.1397 0 .2793 0 .419.0019.0558 0 .1098.0037.1657.0037.3705.0037.7373.0112 1.1022.0242.0317 0 .0633 0 .0931.0019.0075 0 .0149 0 .0224.0018.4654.0168.9235.041 1.3778.0708.0465.0018.0968.0037.1433.0074.0466.0037.0894.0075.1359.0112.2216.0149.4432.0335.661.0521.1006.0093.2011.0168.3016.0261.3166.0279.6312.0596.9422.0949h.0018c.0354.0038.0708.0094.1061.0131.2495.0279.4953.0577.7411.0893.0949.0131.188.028.283.041.1825.0261.3668.0503.5474.0782.1061.0168.2104.0354.3165.0521.1638.0261.3296.0522.4915.0801.1155.0205.2253.041.3389.0633.149.0279.2998.054.4469.0819.1154.0224.229.0466.3425.0708.1416.0279.2831.0577.4208.0875.1155.0261.2272.0521.3389.0782.1341.0298.2681.0614.3984.0931.1136.0279.2235.0558.3352.0856.1266.0317.2551.0652.3779.0987.1099.0298.2179.0615.3259.0912.121.0354.2439.0671.3612.1043.0205.0056.0409.0112.0614.0168.0429.013.082.026.1229.0391.2272.0689.4487.1415.6666.2141.0726.0242.1452.0484.216.0745.2606.0912.5176.1843.7633.2811.0019 0 .0038.0019.0056.0019.0503.0204.0968.0409.1452.0614.1453.0577.2886.1173.4264.1769.0708.0298.1359.0633.2048.0931.1155.0521.2309.1024.3407.1564.0094.0037.0187.0093.028.013.1508.0745.2979.1471.4412.2234.0242.0112.0447.0242.0671.0373.1135.0614.2253.121.3314.1843l.0279.0168c.2048.1191.3966.2402.5791.3649.0167.0112.0391.0242.0558.0354.0261.0186.0484.0391.0745.0577.1359.0949.2644.1918.3854.2886.0242.0186.0521.0372.0745.0558.0112.0075.0186.0168.0279.0261.1397.1173.2718.2346.3929.3538.0056.0056.013.0111.0186.0167.0205.0205.0354.041.0558.0615.0913.0931.1751.188.2551.283.0149.0186.0335.0353.0484.054.0168.0204.028.0428.0447.0633.0689.0893.1303.1787.1881.2681.0149.0242.0372.0484.0521.0726.0074.0093.0093.0205.0168.0317.0726.1228.1377.2476.1917.3742.0019.0037.0038.0056.0038.0093.0055.0149.0093.0298.0149.0447.0446.1117.08.2253.1098.3389.0037.0167.013.0335.0168.0521.0111.0521.0186.1042.0279.1564.0037.0186.0074.0372.0093.0558.0112.0857.0205.1695.0223.2551v.0633 1.8358c0-.1061-.0074-.2122-.0223-.3183-.0019-.0187-.0074-.0373-.0093-.0559-.0112-.0689-.0261-.1378-.0447-.2067-.0279-.1135-.0652-.2271-.1098-.3388-.0075-.0168-.0112-.0354-.0187-.0522-.054-.1266-.1191-.2513-.1917-.3742-.0205-.0354-.0447-.0689-.0671-.1043-.0577-.0893-.121-.1806-.188-.2681-.0298-.0391-.0615-.0782-.0931-.1173-.0801-.0949-.1639-.1899-.2551-.283-.0261-.0261-.0484-.0521-.0745-.0782-.121-.1191-.2532-.2383-.3928-.3537-.0335-.028-.0689-.054-.1043-.082-.121-.0968-.2495-.1936-.3854-.2886-.0428-.0297-.0875-.0614-.1303-.0912-.1825-.1247-.3761-.2458-.5809-.3649-.1173-.067-.2365-.1341-.3594-.2011-.0242-.013-.0447-.0261-.0689-.0372-.1508-.0801-.3091-.1583-.4692-.2365-.1098-.054-.2271-.1061-.3407-.1564-.0689-.0317-.1341-.0633-.2048-.0931-.1415-.0614-.2886-.121-.4376-.1825-.0465-.0186-.0912-.0391-.1396-.0577-.2458-.0968-.5027-.1899-.7634-.2811-.0707-.0242-.1433-.0484-.216-.0745-.2178-.0745-.4394-.1452-.6665-.216-.0615-.0186-.121-.0372-.1825-.0558-.1191-.0354-.2439-.0708-.3668-.1062-.108-.0298-.2122-.0614-.3221-.0912-.1247-.0335-.2532-.0652-.3817-.0987-.1098-.0279-.2197-.0577-.3314-.0838-.1322-.0335-.2681-.0633-.404-.0949-.1117-.0261-.2216-.0522-.3351-.0764-.1378-.0298-.2812-.0595-.4208-.0875-.1136-.0242-.2272-.0484-.3426-.0707-.1471-.0279-.2979-.0559-.4469-.0819-.1136-.0205-.2253-.0429-.3388-.0633-.162-.028-.3259-.054-.4916-.0801-.1061-.0168-.2104-.0354-.3165-.0521-.1806-.028-.3631-.0522-.5474-.0782-.095-.0131-.188-.028-.283-.0391-.2439-.0317-.4915-.0615-.741-.0913-.0354-.0037-.0708-.0093-.108-.013-.3091-.0354-.6238-.0652-.9403-.095-.1024-.0093-.2048-.0167-.3072-.026-.2178-.0186-.4375-.0354-.6591-.0522-.0912-.0074-.1843-.0111-.2793-.0186-.4543-.0298-.9123-.054-1.3778-.0707-.0391-.0019-.0782-.0019-.1173-.0019-.3649-.013-.7317-.0205-1.1022-.0242-.1955-.0019-.3892-.0056-.5847-.0056-.2979 0-.5939.0037-.8881.0075-.3668.0055-.7298.0167-1.0892.0316-.0968-.0037-.1974.0019-.2998.0056z" stroke="#13192c" stroke-miterlimit="10" stroke-width=".2"/><path d="m60.9249 35.203c0 5.1221-11.6331 9.2908-25.9268 9.2908-14.2956 0-25.92315-4.1669-25.92315-9.2908 0-5.1221 11.62935-9.2908 25.92315-9.2908 14.2956-.0019 25.9268 4.1687 25.9268 9.2908zm-25.9268 6.4701c9.9574 0 18.0566-2.9027 18.0566-6.4701s-8.0974-6.4719-18.0566-6.4719c-9.9574 0-18.0567 2.9027-18.0567 6.4719.0019 3.5674 8.0993 6.4701 18.0567 6.4701z" fill="#59eaac"/><path d="m60.9249 35.203c0 5.1221-11.6331 9.2908-25.9268 9.2908-14.2956 0-25.92315-4.1669-25.92315-9.2908 0-5.1221 11.62935-9.2908 25.92315-9.2908 14.2956-.0019 25.9268 4.1687 25.9268 9.2908zm-25.9268 6.4701c9.9574 0 18.0566-2.9027 18.0566-6.4701s-8.0974-6.4719-18.0566-6.4719c-9.9574 0-18.0567 2.9027-18.0567 6.4719.0019 3.5674 8.0993 6.4701 18.0567 6.4701z" stroke="#13192c" stroke-miterlimit="10" stroke-width=".2"/><path d="m9.10676 35.661c.00372.0261.00931.054.01489.0801.01862.1191.04469.2364.07448.3537.00931.0335.01862.067.02792.1006.04097.1359.08751.2737.14523.4096.00745.0167.0149.0335.02235.0484.05399.1229.11543.2439.18246.3649.01676.0298.03352.0615.05213.0931.07634.1322.16013.2625.25322.3929.0149.0223.03352.0428.04841.0651.08375.1136.17505.2272.26995.3408.0242.0279.0484.0577.0726.0856.1118.1266.2291.2514.3557.3761.026.0261.054.0521.08.0763.1099.1062.2253.2104.3463.3128.0335.0298.0671.0578.1006.0876.1471.1228.3016.2457.4636.3667.0261.0187.054.0373.08.0578.1378.1005.2793.1992.4283.2979.0577.0391.1173.0782.1769.1173.1359.0875.2755.175.4189.2606.0521.0317.1043.0633.1582.095.1751.1024.3575.2029.5419.3035.0316.0167.0633.0354.0949.0521.2179.1154.4413.2272.674.3389.1546.0744.3184.1471.4804.2197.1024.0465.2011.0931.3053.1396.1937.0838.3948.1657.594.2476.0782.0317.1545.0652.2346.0969.3519.1396.7205.2737 1.0948.404.1024.0354.2066.0708.309.1061.311.1062.6294.2086.9552.3091.0894.0279.175.0559.2644.0819.1713.0522.3482.1006.5232.1508.1545.0429.3072.0875.4636.1304.1806.0484.3649.0949.5474.1415.1582.0409.3165.0819.4766.121.1881.0465.3817.0894.5735.1341.162.0372.3221.0763.4878.1117.1974.0428.4022.0838.6033.1266.1638.0335.3258.0689.4915.1005.2085.041.4226.0801.6368.1192.1638.0298.3277.0614.4934.0912.2234.0391.4524.0745.6814.1117.1601.0261.3165.054.4767.0782.2476.0373.5008.0726.7522.108.1471.0205.2904.0428.4375.0615.3221.0428.6498.0819.9794.1191.08.0093.1582.0205.2383.0279.445.0503.8956.095 1.3499.136.1452.013.2941.0242.4412.0372.3128.0261.6275.0521.944.0745.1322.0093.2663.0167.4003.026.6517.041 1.3108.0764 1.9792.1006.0559.0018.1117.0037.1676.0056.5232.0167 1.0501.0279 1.5807.0335.2793.0037.5586.0074.8416.0074.4282 0 .8527-.0037 1.2773-.0111.525-.0093 1.0463-.0261 1.5639-.0447.1471-.0056.2942-.0131.4413-.0205.3705-.0168.7373-.0354 1.1022-.0596.1639-.0093.3277-.0205.4916-.0316.3761-.0261.7503-.054 1.1208-.0857.1192-.0112.2402-.0186.3613-.0298.4859-.0447.9663-.0931 1.4411-.1471.1024-.0111.2048-.026.3072-.0372.3854-.0447.7671-.095 1.1469-.1471.1434-.0205.2886-.041.4301-.0614.3984-.0578.7913-.1192 1.1804-.1825.0894-.0149.1825-.0279.2719-.0447.4896-.0838.97-.175 1.4448-.2681.216-.0428.4301-.0875.6405-.1322.0931-.0186.188-.0391.2793-.0596.3258-.0707.646-.1452.9607-.2215.095-.0242.1862-.0466.2793-.0708.2364-.0577.4729-.1173.7019-.1787.121-.0335.2383-.0671.3594-.1006.1936-.054.3872-.1061.5753-.162.2849-.0837.5641-.1694.8397-.2569.0614-.0186.1248-.0372.1843-.0577.3333-.108.6573-.2197.9738-.3333.149-.054.2923-.1098.4357-.1638.1378-.0522.2793-.1043.4133-.1564.1415-.0559.2774-.1155.4171-.1713.1303-.0559.2662-.108.3928-.1639.136-.0577.2626-.1191.3948-.1806.1247-.0558.2513-.1136.3723-.1713.1285-.0614.2495-.1247.3724-.188.1155-.0577.2346-.1155.3463-.175.1211-.0652.2346-.1304.3501-.1955.1061-.0596.216-.1192.3202-.1806.1117-.0671.216-.1341.324-.2011.0987-.0615.2011-.1229.2979-.1862.1043-.0689.1992-.1397.2979-.2086.0912-.0633.1843-.1266.2718-.1917.095-.0708.1825-.1434.2719-.2141.0819-.0652.1675-.1285.2457-.1955.0857-.0727.1639-.1471.2439-.2216.0727-.0652.149-.1322.2179-.1974.0763-.0744.1433-.1526.216-.2271.0633-.0671.1303-.1341.1899-.203.067-.0763.1247-.1564.1862-.2346.054-.0689.1117-.1359.1619-.2048.0578-.08.1062-.162.1564-.2439.0429-.067.0913-.1359.1304-.2029.0484-.0838.0856-.1676.1266-.2532.0335-.0671.0726-.136.1005-.203.0373-.0894.0652-.1806.095-.27.0223-.0651.0503-.1284.067-.1936.0298-.1061.0484-.2104.067-.3165.0093-.0503.0261-.1006.0317-.1527.0223-.1564.0335-.3147.0335-.4729 0-.0019 0-.0019 0-.0037v1.8376c0 .1583-.0112.3184-.0335.4748-.0074.0503-.0224.1006-.0317.1508-.0204.1062-.0372.2123-.067.3184-.0186.0633-.0447.1266-.067.1918-.0317.0912-.0577.1825-.0968.2718-.0298.0671-.0671.1341-.1006.2011-.0428.0857-.08.1713-.1266.2551-.0391.067-.0875.1341-.1303.2029-.0521.082-.1006.1639-.1583.2458-.0484.067-.1061.1341-.1582.2011-.0633.0801-.1211.1601-.1881.2383-.0577.067-.1266.1341-.188.2011-.0727.0763-.1397.1545-.2179.229-.067.067-.1452.1322-.2178.1992-.0819.0745-.1583.149-.2439.2216-.0782.0652-.1639.1303-.2458.1955-.0894.0726-.1769.1452-.2718.216-.0857.0651-.1806.1266-.2719.1918-.0986.0707-.1936.1396-.2979.2085-.0949.0633-.1973.1247-.2979.1862-.108.067-.2122.1359-.3239.2011-.1024.0614-.2123.121-.3203.1806-.1173.0651-.2309.1322-.35.1955-.1117.0595-.2309.1173-.3463.175-.1248.0633-.2458.1266-.3724.188-.1192.0578-.2458.1136-.3687.1695-.1322.0614-.2606.121-.3984.1806-.1266.0558-.2588.108-.3892.162-.1396.0577-.2774.1173-.4207.1731-.136.054-.2756.1043-.4134.1564-.1303.0484-.2569.1005-.391.149-.0149.0055-.0316.0093-.0465.0149-.3165.1154-.6405.2252-.9738.3332-.0596.0187-.1229.0373-.1825.0559-.2755.0875-.5567.175-.8415.2588-.0298.0074-.0559.0167-.0857.0261-.1601.0465-.3239.0912-.4878.1359-.121.0335-.2383.067-.3612.1005-.2309.0615-.4655.121-.7019.1788-.0931.0223-.1844.0484-.2793.0707-.0093.0019-.0168.0056-.0261.0075-.3072.0744-.6181.1452-.9347.2141-.093.0205-.1861.0391-.2792.0596-.1676.0353-.3352.0726-.5046.1061-.0447.0093-.0912.0167-.1378.0261-.4729.0949-.9533.1843-1.4448.2681-.0205.0037-.041.0093-.0615.0111-.0689.0112-.1396.0205-.2085.0317-.3891.0652-.782.1266-1.1804.1843-.0726.0112-.1434.0242-.2179.0335-.0707.0093-.1433.0168-.2122.0261-.378.0521-.7597.1005-1.147.1471-.08.0093-.1564.0205-.2346.0298-.0242.0037-.0484.0056-.0726.0074-.4747.054-.9551.1024-1.4411.1471-.0279.0037-.0558.0056-.0838.0093-.0912.0093-.1843.0149-.2755.0224-.3705.0316-.7448.0614-1.1209.0856-.0763.0056-.1489.013-.2253.0168-.0875.0056-.1768.0074-.2644.0149-.3649.0223-.7317.0409-1.1022.0577-.1024.0056-.2029.0112-.3053.0167-.0447.0019-.0913.0019-.136.0038-.5176.0204-1.037.0372-1.5639.0446-.0149 0-.028 0-.041.0019-.4096.0075-.8211.0093-1.2344.0093-.2011 0-.4022 0-.6033-.0018-.0801 0-.1583-.0038-.2383-.0056-.5307-.0056-1.0594-.0168-1.5808-.0335-.0446-.0019-.0912-.0019-.1359-.0038-.0112 0-.0223-.0018-.0335-.0018-.6684-.0242-1.3257-.0596-1.9792-.1006-.067-.0037-.1378-.0056-.2048-.0111-.0652-.0056-.1303-.0112-.1955-.0149-.3165-.0224-.6312-.0466-.944-.0745-.1471-.013-.2942-.0242-.4412-.0372-.4543-.041-.9049-.0857-1.3499-.136-.0019 0-.0019 0-.0037 0-.0782-.0093-.1546-.0186-.2346-.0279-.3277-.0391-.6573-.0763-.9794-.1192-.1471-.0186-.2923-.0409-.4375-.0614-.2514-.0354-.5046-.0689-.7522-.1061-.162-.0242-.3184-.0522-.4767-.0782-.2271-.0373-.4561-.0726-.6814-.1117-.1676-.0298-.3296-.0615-.4934-.0913-.2123-.0391-.4264-.0763-.6368-.1173-.1657-.0335-.3277-.067-.4915-.1005-.2011-.0428-.4041-.0819-.6033-.1266-.1657-.0373-.3258-.0745-.4878-.1117-.1918-.0447-.3854-.0875-.5735-.1341-.162-.0391-.3184-.0819-.4766-.121-.1825-.0466-.3668-.0931-.5474-.1415-.1564-.0428-.3091-.0875-.4636-.1304-.175-.0502-.3519-.0986-.5232-.1508-.0279-.0093-.0596-.0167-.0894-.026-.0614-.0187-.1173-.0391-.1769-.0578-.3258-.0986-.6442-.2029-.9551-.3072-.1043-.0353-.2067-.0707-.3091-.1061-.3742-.1303-.7429-.2662-1.0948-.404-.0018-.0019-.0056-.0019-.0093-.0037-.0726-.028-.1396-.0596-.2104-.0876-.2067-.0837-.4115-.1675-.6088-.2532-.1024-.0447-.1992-.0912-.2998-.1359-.162-.0745-.3277-.1471-.4841-.2216-.013-.0074-.0279-.013-.0409-.0186-.2179-.1061-.4283-.2122-.6331-.3202-.0335-.0168-.0633-.0354-.0949-.0522-.1639-.0875-.3259-.175-.4804-.2662-.0205-.0112-.041-.0242-.0615-.0372-.0539-.0317-.1061-.0633-.1582-.095-.1434-.0856-.283-.1732-.4189-.2607-.0596-.0391-.1192-.0782-.1769-.1173-.0447-.0297-.0913-.0595-.1359-.0893-.1006-.0689-.1955-.1397-.2924-.2104-.026-.0186-.0539-.0373-.08-.0577-.1378-.1024-.2719-.2067-.3985-.311-.0223-.0186-.0428-.0372-.0651-.0558-.0354-.028-.0671-.0578-.1006-.0875-.121-.1043-.2364-.2086-.3463-.3128-.026-.0261-.054-.0522-.08-.0764-.0131-.013-.0261-.0242-.0391-.0372-.1118-.1117-.216-.2253-.3166-.3389-.026-.0279-.0484-.0577-.0726-.0856-.0428-.0484-.0856-.0968-.1247-.1471-.0522-.0652-.09684-.1285-.14525-.1937-.01676-.0204-.03351-.0428-.04841-.0651-.07634-.1061-.14895-.2141-.21412-.3221-.01489-.0242-.02606-.0466-.0391-.0708-.01861-.0316-.03537-.0614-.05213-.0931-.06703-.121-.12847-.242-.18246-.3649-.00745-.0168-.01676-.0335-.02235-.0484-.00372-.0056-.00558-.013-.00931-.0186-.05399-.1285-.09868-.2588-.13592-.3892-.0093-.0335-.01861-.067-.02792-.1005-.01117-.0447-.02607-.0875-.03538-.1303-.01676-.0745-.02793-.149-.0391-.2235-.00372-.0279-.01117-.054-.01489-.08-.01676-.1211-.02793-.2439-.03166-.3668 0-.0298-.00186-.0596-.00186-.0894v-1.8377c.00186.1452.01304.2979.03352.4506z" fill="#119679"/><path d="m9.10676 35.661c.00372.0261.00931.054.01489.0801.01862.1191.04469.2364.07448.3537.00931.0335.01862.067.02792.1006.04097.1359.08751.2737.14523.4096.00745.0167.0149.0335.02235.0484.05399.1229.11543.2439.18246.3649.01676.0298.03352.0615.05213.0931.07634.1322.16013.2625.25322.3929.0149.0223.03352.0428.04841.0651.08375.1136.17505.2272.26995.3408.0242.0279.0484.0577.0726.0856.1118.1266.2291.2514.3557.3761.026.0261.054.0521.08.0763.1099.1062.2253.2104.3463.3128.0335.0298.0671.0578.1006.0876.1471.1228.3016.2457.4636.3667.0261.0187.054.0373.08.0578.1378.1005.2793.1992.4283.2979.0577.0391.1173.0782.1769.1173.1359.0875.2755.175.4189.2606.0521.0317.1043.0633.1582.095.1751.1024.3575.2029.5419.3035.0316.0167.0633.0354.0949.0521.2179.1154.4413.2272.674.3389.1546.0744.3184.1471.4804.2197.1024.0465.2011.0931.3053.1396.1937.0838.3948.1657.594.2476.0782.0317.1545.0652.2346.0969.3519.1396.7205.2737 1.0948.404.1024.0354.2066.0708.309.1061.311.1062.6294.2086.9552.3091.0894.0279.175.0559.2644.0819.1713.0522.3482.1006.5232.1508.1545.0429.3072.0875.4636.1304.1806.0484.3649.0949.5474.1415.1582.0409.3165.0819.4766.121.1881.0465.3817.0894.5735.1341.162.0372.3221.0763.4878.1117.1974.0428.4022.0838.6033.1266.1638.0335.3258.0689.4915.1005.2085.041.4226.0801.6368.1192.1638.0298.3277.0614.4934.0912.2234.0391.4524.0745.6814.1117.1601.0261.3165.054.4767.0782.2476.0373.5008.0726.7522.108.1471.0205.2904.0428.4375.0615.3221.0428.6498.0819.9794.1191.08.0093.1582.0205.2383.0279.445.0503.8956.095 1.3499.136.1452.013.2941.0242.4412.0372.3128.0261.6275.0521.944.0745.1322.0093.2663.0167.4003.026.6517.041 1.3108.0764 1.9792.1006.0559.0018.1117.0037.1676.0056.5232.0167 1.0501.0279 1.5807.0335.2793.0037.5586.0074.8416.0074.4282 0 .8527-.0037 1.2773-.0111.525-.0093 1.0463-.0261 1.5639-.0447.1471-.0056.2942-.0131.4413-.0205.3705-.0168.7373-.0354 1.1023-.0596.1638-.0093.3276-.0205.4915-.0316.3761-.0261.7503-.054 1.1208-.0857.1192-.0112.2402-.0186.3613-.0298.4859-.0447.9663-.0931 1.4411-.1471.1024-.0111.2048-.026.3072-.0372.3854-.0447.7671-.095 1.1469-.1471.1434-.0205.2886-.041.4301-.0614.3984-.0578.7913-.1192 1.1804-.1825.0894-.0149.1825-.0279.2719-.0447.4896-.0838.97-.175 1.4448-.2681.216-.0428.4301-.0875.6405-.1322.0931-.0186.188-.0391.2793-.0596.3258-.0707.646-.1452.9607-.2215.095-.0242.1862-.0466.2793-.0708.2364-.0577.4729-.1173.7019-.1787.121-.0335.2383-.0671.3594-.1006.1936-.054.3872-.1061.5753-.162.2849-.0837.5641-.1694.8397-.2569.0614-.0186.1248-.0372.1843-.0577.3333-.108.6573-.2197.9738-.3333.149-.054.2923-.1098.4357-.1638.1378-.0522.2793-.1043.4133-.1564.1415-.0559.2774-.1155.4171-.1713.1303-.0559.2662-.108.3928-.1639.136-.0577.2626-.1191.3948-.1806.1247-.0558.2513-.1136.3723-.1713.1285-.0614.2495-.1247.3724-.188.1155-.0577.2346-.1155.3463-.175.1211-.0652.2346-.1304.3501-.1955.1061-.0596.216-.1192.3202-.1806.1117-.0671.216-.1341.324-.2011.0987-.0615.2011-.1229.2979-.1862.1043-.0689.1992-.1397.2979-.2086.0912-.0633.1843-.1266.2718-.1917.095-.0708.1825-.1434.2719-.2141.0819-.0652.1675-.1285.2457-.1955.0857-.0727.1639-.1471.2439-.2216.0727-.0652.149-.1322.2179-.1974.0763-.0744.1433-.1526.216-.2271.0633-.0671.1303-.1341.1899-.203.067-.0763.1247-.1564.1862-.2346.054-.0689.1117-.1359.1619-.2048.0578-.08.1062-.162.1564-.2439.0429-.067.0913-.1359.1304-.2029.0484-.0838.0856-.1676.1266-.2532.0335-.0671.0726-.136.1005-.203.0373-.0894.0652-.1806.095-.27.0223-.0651.0503-.1284.067-.1936.0298-.1061.0484-.2104.067-.3165.0093-.0503.0261-.1006.0317-.1527.0223-.1564.0335-.3147.0335-.4729 0-.0019 0-.0019 0-.0037v1.8376c0 .1583-.0112.3184-.0335.4748-.0074.0503-.0224.1006-.0317.1508-.0204.1062-.0372.2123-.067.3184-.0186.0633-.0447.1266-.067.1918-.0317.0912-.0577.1825-.0968.2718-.0298.0671-.0671.1341-.1006.2011-.0428.0857-.08.1713-.1266.2551-.0391.067-.0875.1341-.1303.2029-.0521.082-.1006.1639-.1583.2458-.0484.067-.1061.1341-.1582.2011-.0633.0801-.1211.1601-.1881.2383-.0577.067-.1266.1341-.188.2011-.0727.0763-.1397.1545-.2179.229-.067.067-.1452.1322-.2178.1992-.0819.0745-.1583.149-.2439.2216-.0782.0652-.1639.1303-.2458.1955-.0894.0726-.1769.1452-.2718.216-.0857.0651-.1806.1266-.2719.1918-.0986.0707-.1936.1396-.2979.2085-.0949.0633-.1973.1247-.2979.1862-.108.067-.2122.1359-.3239.2011-.1024.0614-.2123.121-.3203.1806-.1173.0651-.2309.1322-.35.1955-.1117.0595-.2309.1173-.3463.175-.1248.0633-.2458.1266-.3724.188-.1192.0578-.2458.1136-.3687.1695-.1322.0614-.2606.121-.3984.1806-.1266.0558-.2588.108-.3892.162-.1396.0577-.2774.1173-.4207.1731-.136.054-.2756.1043-.4134.1564-.1303.0484-.2569.1005-.391.149-.0149.0055-.0316.0093-.0465.0149-.3165.1154-.6405.2252-.9738.3332-.0596.0187-.1229.0373-.1825.0559-.2755.0875-.5567.175-.8415.2588-.0298.0074-.0559.0167-.0857.0261-.1601.0465-.3239.0912-.4878.1359-.121.0335-.2383.067-.3612.1005-.2309.0615-.4655.121-.7019.1788-.0931.0223-.1844.0484-.2793.0707-.0093.0019-.0168.0056-.0261.0075-.3072.0744-.6181.1452-.9347.2141-.093.0205-.1861.0391-.2792.0596-.1676.0353-.3352.0726-.5046.1061-.0447.0093-.0912.0167-.1378.0261-.4729.0949-.9533.1843-1.4448.2681-.0205.0037-.041.0093-.0615.0111-.0689.0112-.1396.0205-.2085.0317-.3891.0652-.782.1266-1.1804.1843-.0726.0112-.1434.0242-.2179.0335-.0707.0093-.1433.0168-.2122.0261-.378.0521-.7597.1005-1.147.1471-.08.0093-.1564.0205-.2346.0298-.0242.0037-.0484.0056-.0726.0074-.4747.054-.9551.1024-1.4411.1471-.0279.0037-.0558.0056-.0838.0093-.0912.0093-.1843.0149-.2755.0224-.3705.0316-.7448.0614-1.1209.0856-.0763.0056-.1489.013-.2253.0168-.0875.0056-.1768.0074-.2643.0149-.365.0223-.7318.0409-1.1023.0577-.1024.0056-.2029.0112-.3053.0167-.0447.0019-.0913.0019-.136.0038-.5176.0204-1.037.0372-1.5639.0446-.0149 0-.028 0-.041.0019-.4096.0075-.8211.0093-1.2344.0093-.2011 0-.4022 0-.6033-.0018-.0801 0-.1583-.0038-.2383-.0056-.5307-.0056-1.0594-.0168-1.5808-.0335-.0446-.0019-.0912-.0019-.1359-.0038-.0112 0-.0223-.0018-.0335-.0018-.6684-.0242-1.3257-.0596-1.9792-.1006-.067-.0037-.1378-.0056-.2048-.0111-.0652-.0056-.1303-.0112-.1955-.0149-.3165-.0224-.6312-.0466-.944-.0745-.1471-.013-.2942-.0242-.4412-.0372-.4543-.041-.9049-.0857-1.3499-.136-.0019 0-.0019 0-.0037 0-.0782-.0093-.1546-.0186-.2346-.0279-.3277-.0391-.6573-.0763-.9794-.1192-.1471-.0186-.2923-.0409-.4375-.0614-.2514-.0354-.5046-.0689-.7522-.1061-.162-.0242-.3184-.0522-.4767-.0782-.2271-.0373-.4561-.0726-.6814-.1117-.1676-.0298-.3296-.0615-.4934-.0913-.2123-.0391-.4264-.0763-.6368-.1173-.1657-.0335-.3277-.067-.4915-.1005-.2011-.0428-.4041-.0819-.6033-.1266-.1657-.0373-.3258-.0745-.4878-.1117-.1918-.0447-.3854-.0875-.5735-.1341-.162-.0391-.3184-.0819-.4766-.121-.1825-.0466-.3668-.0931-.5474-.1415-.1564-.0428-.3091-.0875-.4636-.1304-.175-.0502-.3519-.0986-.5232-.1508-.0279-.0093-.0596-.0167-.0894-.026-.0614-.0187-.1173-.0391-.1769-.0578-.3258-.0986-.6442-.2029-.9551-.3072-.1043-.0353-.2067-.0707-.3091-.1061-.3742-.1303-.7429-.2662-1.0948-.404-.0018-.0019-.0056-.0019-.0093-.0037-.0726-.028-.1396-.0596-.2104-.0876-.2067-.0837-.4115-.1675-.6088-.2532-.1024-.0447-.1992-.0912-.2998-.1359-.162-.0745-.3277-.1471-.4841-.2216-.013-.0074-.0279-.013-.0409-.0186-.2179-.1061-.4283-.2122-.6331-.3202-.0335-.0168-.0633-.0354-.0949-.0521-.1639-.0876-.3259-.1751-.4804-.2663-.0205-.0112-.041-.0242-.0615-.0372-.0539-.0317-.1061-.0633-.1582-.095-.1434-.0856-.283-.1732-.4189-.2607-.0596-.0391-.1192-.0782-.1769-.1173-.0447-.0297-.0913-.0595-.1359-.0893-.1006-.0689-.1955-.1397-.2924-.2104-.026-.0186-.0539-.0373-.08-.0577-.1378-.1024-.2719-.2067-.3985-.311-.0223-.0186-.0428-.0372-.0651-.0558-.0354-.028-.0671-.0578-.1006-.0875-.121-.1043-.2364-.2086-.3463-.3128-.026-.0261-.054-.0522-.08-.0764-.0131-.013-.0261-.0242-.0391-.0372-.1118-.1117-.216-.2253-.3166-.3389-.026-.0279-.0484-.0577-.0726-.0856-.0428-.0484-.0856-.0968-.1247-.1471-.0522-.0652-.09684-.1285-.14525-.1937-.01676-.0204-.03351-.0428-.04841-.0651-.07634-.1061-.14895-.2141-.21412-.3221-.01489-.0242-.02606-.0466-.0391-.0708-.01861-.0316-.03537-.0614-.05213-.0931-.06703-.121-.12847-.242-.18246-.3649-.00745-.0168-.01676-.0335-.02235-.0484-.00372-.0056-.00558-.013-.00931-.0186-.05399-.1285-.09868-.2588-.13592-.3892-.0093-.0335-.01861-.067-.02792-.1005-.01117-.0447-.02607-.0875-.03538-.1303-.01676-.0745-.02793-.149-.0391-.2235-.00372-.0279-.01117-.054-.01489-.08-.01676-.1211-.02793-.2439-.03166-.3668 0-.0298-.00186-.0596-.00186-.0894v-1.8377c.00186.1452.01304.2979.03352.4506z" stroke="#13192c" stroke-miterlimit="10" stroke-width=".2"/><path d="m33.4547 24.5362c-6.5073-.9142-11.8733 3.5488-12.7074 10.2032l25.4558 3.5767c-.8602-6.8928-6.2429-12.8657-12.7484-13.7799z" fill="#ffd400"/><path d="m33.4547 24.5362c-6.5073-.9142-11.8733 3.5488-12.7074 10.2032l25.4558 3.5767c-.8602-6.8928-6.2429-12.8657-12.7484-13.7799z" stroke="#11192f" stroke-linejoin="round" stroke-miterlimit="10" stroke-width=".2"/><path d="m45.8939 36.6199c-.0111-.0522-.0223-.1024-.0353-.1546-.0652-.2625-.136-.5232-.2142-.782-.0186-.0633-.0391-.1247-.0595-.188-.0652-.2067-.1341-.4115-.2067-.6163-.0279-.0745-.054-.1508-.0819-.2271-.0317-.0857-.0652-.1713-.0987-.2551-.0428-.108-.0838-.2141-.1285-.3221-.0354-.0857-.0726-.1695-.1098-.2551-.0466-.1061-.0931-.2104-.1397-.3128-.0391-.0838-.0782-.1676-.1173-.2495-.0502-.1024-.1005-.2067-.1527-.3091-.0409-.0819-.0819-.1638-.1266-.2439-.0391-.0726-.0782-.1452-.1173-.2178-.1377-.2514-.2792-.499-.4282-.7429-.0074-.0112-.013-.0224-.0186-.0335-.1546-.2514-.3184-.4953-.486-.7373-.0391-.0559-.0782-.1136-.1173-.1695-.1601-.2253-.3239-.4487-.4952-.6647-.0056-.0074-.0112-.0149-.0168-.0205-.1657-.2103-.3389-.4152-.5139-.6181-.0465-.054-.0931-.1061-.1396-.1583-.1788-.201-.3631-.3984-.5511-.5902-.0056-.0056-.0112-.0112-.0168-.0186-.1936-.1955-.3928-.3836-.5958-.5679-.0484-.0447-.0987-.0893-.1489-.134-.2197-.1955-.4432-.3854-.6722-.5679-.0186-.0149-.0372-.0279-.0558-.0428-.2179-.1713-.4395-.3352-.6666-.4934-.0577-.041-.1154-.082-.175-.1229-.0801-.054-.1583-.1061-.2402-.1583-.0894-.0577-.1787-.1173-.27-.1731-.0819-.0503-.162-.0987-.2439-.149-.0912-.054-.1843-.108-.2774-.162-.0819-.0465-.1657-.0931-.2495-.1378-.0931-.0502-.1881-.1005-.283-.1489-.0857-.0428-.1713-.0857-.2569-.1285-.1025-.0502-.2049-.0987-.3091-.1471-.0596-.0279-.121-.0558-.1806-.0819-.1229-.054-.2458-.1043-.3705-.1545-.0503-.0205-.1006-.0428-.1527-.0615-.1732-.067-.3501-.134-.5269-.1936-.0224-.0075-.0466-.0149-.0689-.0223-.1546-.0522-.3091-.1006-.4655-.1471-.0596-.0168-.1173-.0336-.1769-.0503-.1247-.0354-.2476-.067-.3724-.0987-.0633-.0167-.1284-.0316-.1936-.0465-.1266-.0298-.2551-.0559-.3817-.082-.0577-.0111-.1173-.0242-.175-.0353-.1843-.0354-.3705-.0652-.5567-.0913-.283-.0391-.5623-.0651-.8397-.0856-.0577-.0037-.1155-.0093-.1732-.0112-.2681-.0149-.5362-.0223-.8006-.0186-.0465 0-.0931.0019-.1396.0037-.2439.0056-.486.0186-.7262.041-.0372.0037-.0744.0056-.1117.0093-.2588.0261-.5139.0614-.7652.1043-.0559.0093-.1099.0186-.1657.0297-.2532.0466-.5027.1006-.7504.1639-.0204.0056-.0391.0112-.0595.0168-.2328.0614-.4599.1321-.6852.2103-.0522.0168-.1024.0336-.1546.0522-.2346.0838-.4636.175-.6907.2737-.041.0186-.0819.0391-.1248.0577-.2308.1043-.458.2141-.6796.3351l3.0498-1.6589c.1285-.0708.257-.1378.3892-.2011.0949-.0465.1936-.0894.2904-.1341.041-.0186.0819-.0391.1229-.0558.2253-.0987.4562-.1899.6908-.2737.0502-.0186.1024-.0354.1545-.0521.2253-.0764.4524-.1471.6852-.2086.0205-.0056.0391-.0111.0596-.0167.0074-.0019.0148-.0038.0204-.0056.2402-.0615.4841-.1117.7299-.1583.0559-.0093.1098-.0205.1657-.0298.2532-.0428.5064-.0782.7652-.1042.0373-.0038.0745-.0056.1118-.0093.2401-.0205.4822-.0354.7261-.0391.0465-.0019.0912-.0038.1378-.0038.2644-.0037.5306.0038.8006.0187l.1731.0111c.2775.0205.5567.0466.8398.0857.1861.026.3723.0577.5567.0912.0577.0112.1173.0242.175.0354.1284.026.2551.0521.3817.0819.0651.0149.1284.0298.1936.0466.1247.0297.2495.0633.3724.0986.0596.0168.1191.0335.1769.0503.1564.0466.3109.095.4654.1471.0242.0074.0466.0149.0689.0223.1769.0615.3519.1266.5269.1937.0522.0205.1024.0409.1527.0614.1248.0503.2476.1024.3687.1564.0614.0261.121.054.1824.0819.0522.0242.1043.0447.1546.0689.0521.0242.1024.0522.1545.0764.0857.0428.1713.0838.2569.1284.095.0484.1881.0987.2812.1471.0838.0466.1676.0913.2513.1378.0931.0521.1844.1061.2756.162.0819.0484.1639.0987.2458.1489.0912.0559.1806.1155.27.1732.08.0521.1601.1043.2383.1583.0279.0204.0577.0372.0875.0577s.0577.0447.0875.0651c.2253.1583.4487.3221.6647.4934.0186.0149.0372.028.0558.0429.2291.1824.4525.3723.6722.5678.0261.0224.0521.0429.0763.0652.0242.0224.0484.0466.0726.0689.203.1843.4022.3742.5958.5697.0056.0056.0112.0112.0168.0187.1881.1917.3724.3891.5511.5902.0242.026.0484.0502.0726.0782.0242.026.0447.054.0689.0819.175.2011.3482.4059.5139.6163.0056.0074.0112.0149.0168.0205.1713.2178.3351.4394.4952.6665.0186.028.041.054.0596.0819.0205.028.0372.0596.0577.0894.1676.2421.3314.486.486.7373.0074.0112.013.0224.0186.0335.1489.2439.2905.4916.4282.7429.0187.0336.0391.0633.0559.0969.0205.0391.041.08.0614.1191.0429.0819.0838.1639.1266.2458.0522.1024.1024.2048.1527.3072.041.0838.0801.1676.1192.2514.0484.1042.0949.2085.1396.3146.0373.0838.0745.1694.1099.2551.0447.1061.0875.2141.1303.3221.0335.0856.067.1694.0987.2551.013.0335.0261.067.0391.1024.0149.0409.0261.0838.0409.1247.0727.203.1416.4096.2067.6163.0205.0633.041.1248.0596.1862.0782.2588.1489.5195.2141.782.013.0521.0242.1024.0354.1545.0521.2197.0987.4394.1415.661.0149.0745.0279.1471.041.2216.0484.2699.0912.5399.1266.8136l-3.0498 1.659c-.0335-.2719-.0782-.5437-.1266-.8137-.0131-.0745-.028-.1471-.041-.2215-.0391-.2309-.0856-.4525-.1378-.6703z" fill="#ffc400"/><path d="m45.8939 36.6199c-.0111-.0522-.0223-.1024-.0353-.1546-.0652-.2625-.136-.5232-.2142-.782-.0186-.0633-.0391-.1247-.0595-.188-.0652-.2067-.1341-.4115-.2067-.6163-.0279-.0745-.054-.1508-.0819-.2271-.0317-.0857-.0652-.1713-.0987-.2551-.0428-.108-.0838-.2141-.1285-.3221-.0354-.0857-.0726-.1695-.1098-.2551-.0466-.1061-.0931-.2104-.1397-.3128-.0391-.0838-.0782-.1676-.1173-.2495-.0502-.1024-.1005-.2067-.1527-.3091-.0409-.0819-.0819-.1638-.1266-.2439-.0391-.0726-.0782-.1452-.1173-.2178-.1377-.2514-.2792-.499-.4282-.7429-.0074-.0112-.013-.0224-.0186-.0335-.1546-.2514-.3184-.4953-.486-.7373-.0391-.0559-.0782-.1136-.1173-.1695-.1601-.2253-.3239-.4487-.4952-.6647-.0056-.0074-.0112-.0149-.0168-.0205-.1657-.2103-.3389-.4152-.5139-.6181-.0465-.054-.0931-.1061-.1396-.1583-.1788-.201-.3631-.3984-.5511-.5902-.0056-.0056-.0112-.0112-.0168-.0186-.1936-.1955-.3928-.3836-.5958-.5679-.0484-.0447-.0987-.0893-.1489-.134-.2197-.1955-.4432-.3854-.6722-.5679-.0186-.0149-.0372-.0279-.0558-.0428-.2179-.1713-.4395-.3352-.6666-.4934-.0577-.041-.1154-.082-.175-.1229-.0801-.054-.1583-.1061-.2402-.1583-.0894-.0577-.1787-.1173-.27-.1731-.0819-.0503-.162-.0987-.2439-.149-.0912-.054-.1843-.108-.2774-.162-.0819-.0465-.1657-.0931-.2495-.1378-.0931-.0502-.1881-.1005-.283-.1489-.0857-.0428-.1713-.0857-.2569-.1285-.1025-.0502-.2049-.0987-.3091-.1471-.0596-.0279-.121-.0558-.1806-.0819-.1229-.054-.2458-.1043-.3705-.1545-.0503-.0205-.1006-.0428-.1527-.0615-.1732-.067-.3501-.134-.5269-.1936-.0224-.0075-.0466-.0149-.0689-.0223-.1546-.0522-.3091-.1006-.4655-.1471-.0596-.0168-.1173-.0336-.1769-.0503-.1247-.0354-.2476-.067-.3724-.0987-.0633-.0167-.1284-.0316-.1936-.0465-.1266-.0298-.2551-.0559-.3817-.082-.0577-.0111-.1173-.0242-.175-.0353-.1843-.0354-.3705-.0652-.5567-.0913-.283-.0391-.5623-.0651-.8397-.0856-.0577-.0037-.1155-.0093-.1732-.0112-.2681-.0149-.5362-.0223-.8006-.0186-.0465 0-.0931.0019-.1396.0037-.2439.0056-.486.0186-.7262.041-.0372.0037-.0744.0056-.1117.0093-.2588.0261-.5139.0614-.7652.1043-.0559.0093-.1099.0186-.1657.0297-.2532.0466-.5027.1006-.7504.1639-.0204.0056-.0391.0112-.0595.0168-.2328.0614-.4599.1321-.6852.2103-.0522.0168-.1024.0336-.1546.0522-.2346.0838-.4636.175-.6907.2737-.041.0186-.0819.0391-.1248.0577-.2308.1043-.458.2141-.6796.3351l3.0498-1.6589c.1285-.0708.257-.1378.3892-.2011.0949-.0465.1936-.0894.2904-.1341.041-.0186.0819-.0391.1229-.0558.2253-.0987.4562-.1899.6908-.2737.0502-.0186.1024-.0354.1545-.0521.2253-.0764.4524-.1471.6852-.2086.0205-.0056.0391-.0111.0596-.0167.0074-.0019.0148-.0038.0204-.0056.2402-.0615.4841-.1117.7299-.1583.0559-.0093.1098-.0205.1657-.0298.2532-.0428.5064-.0782.7652-.1042.0373-.0038.0745-.0056.1118-.0093.2401-.0205.4822-.0354.7261-.0391.0465-.0019.0912-.0038.1378-.0038.2644-.0037.5306.0038.8006.0187l.1731.0111c.2775.0205.5567.0466.8398.0857.1861.026.3723.0577.5567.0912.0577.0112.1173.0242.175.0354.1284.026.2551.0521.3817.0819.0651.0149.1284.0298.1936.0466.1247.0297.2495.0633.3724.0986.0596.0168.1191.0335.1769.0503.1564.0466.3109.095.4654.1471.0242.0074.0466.0149.0689.0223.1769.0615.3519.1266.5269.1937.0522.0205.1024.0409.1527.0614.1248.0503.2476.1024.3687.1564.0614.0261.121.054.1824.0819.0522.0242.1043.0447.1546.0689.0521.0242.1024.0522.1545.0764.0857.0428.1713.0838.2569.1284.095.0484.1881.0987.2812.1471.0838.0466.1676.0913.2513.1378.0931.0521.1844.1061.2756.162.0819.0484.1639.0987.2458.1489.0912.0559.1806.1155.27.1732.08.0521.1601.1043.2383.1583.0279.0204.0577.0372.0875.0577s.0577.0447.0875.0651c.2253.1583.4487.3221.6647.4934.0186.0149.0372.028.0558.0429.2291.1824.4525.3723.6722.5678.0261.0224.0521.0429.0763.0652.0242.0224.0484.0466.0726.0689.203.1843.4022.3742.5958.5697.0056.0056.0112.0112.0168.0187.1881.1917.3724.3891.5511.5902.0242.026.0484.0502.0726.0782.0242.026.0447.054.0689.0819.175.2011.3482.4059.5139.6163.0056.0074.0112.0149.0168.0205.1713.2178.3351.4394.4952.6665.0186.028.041.054.0596.0819.0205.028.0372.0596.0577.0894.1676.2421.3314.486.486.7373.0074.0112.013.0224.0186.0335.1489.2439.2905.4916.4282.7429.0187.0336.0391.0633.0559.0969.0205.0391.041.08.0614.1191.0429.0819.0838.1639.1266.2458.0522.1024.1024.2048.1527.3072.041.0838.0801.1676.1192.2514.0484.1042.0949.2085.1396.3146.0373.0838.0745.1694.1099.2551.0447.1061.0875.2141.1303.3221.0335.0856.067.1694.0987.2551.013.0335.0261.067.0391.1024.0149.0409.0261.0838.0409.1247.0727.203.1415.4096.2067.6163.0205.0633.041.1248.0596.1862.0782.2588.1489.5195.2141.782.013.0521.0242.1024.0354.1545.0521.2197.0987.4394.1415.661.0149.0745.0279.1471.041.2216.0484.2699.0912.5399.1266.8136l-3.0498 1.659c-.0335-.2719-.0782-.5437-.1266-.8137-.0131-.0745-.028-.1471-.041-.2215-.0391-.2309-.0856-.4525-.1378-.6703z" stroke="#11192f" stroke-linejoin="round" stroke-miterlimit="10" stroke-width=".2"/><path d="m33.421 8.1516c-4.1762-.5865-7.5537 2.5936-7.5462 7.1013.0093 4.5076 3.3998 8.6373 7.576 9.2238 4.1781.5865 7.5574-2.5918 7.5481-7.0976-.0074-4.5076-3.3998-8.63914-7.5779-9.2275z" fill="#fff"/><path d="m33.421 8.1516c-4.1762-.5865-7.5537 2.5936-7.5462 7.1013.0093 4.5076 3.3998 8.6373 7.576 9.2238 4.1781.5865 7.5574-2.5918 7.5481-7.0976-.0074-4.5076-3.3998-8.63914-7.5779-9.2275z" stroke="#141a2a" stroke-miterlimit="22.926" stroke-width=".2"/><path d="m40.9804 16.8224c-.0056-.0912-.0112-.1843-.0205-.2756-.0056-.054-.013-.108-.0186-.1619-.0093-.0838-.0186-.1676-.0298-.2495-.0075-.0578-.0186-.1155-.0279-.1713-.0131-.0782-.0242-.1583-.0391-.2365-.0112-.0614-.0242-.121-.0373-.1825-.0149-.0744-.0298-.1489-.0465-.2215-.0149-.0615-.0317-.1229-.0466-.1844-.0186-.0707-.0353-.1433-.0558-.2141-.0168-.0614-.0354-.1229-.054-.1824-.0205-.0708-.041-.1415-.0633-.2104-.0205-.0615-.0428-.1211-.0633-.1825-.0224-.0652-.0447-.1322-.0689-.1974-.0708-.1936-.1508-.3835-.2328-.5716-.0167-.0353-.0316-.0726-.0484-.1079-.0838-.1844-.1731-.365-.2681-.5419-.0186-.0353-.0391-.0707-.0577-.1061-.067-.1247-.1378-.2458-.2123-.3668-.0223-.0372-.0428-.0726-.0651-.108-.0912-.1471-.1862-.2904-.2849-.4319-.0205-.028-.0409-.0559-.0614-.0838-.0764-.108-.1564-.2141-.2365-.3184-.0298-.0391-.0614-.0782-.0912-.1173-.0838-.1043-.1695-.2085-.257-.3091-.0204-.0242-.0409-.0484-.0633-.0726-.108-.1229-.2197-.242-.3351-.3575-.0279-.0298-.0577-.0577-.0875-.0856-.0894-.0894-.1825-.1769-.2756-.2625-.0354-.0317-.0689-.0633-.1042-.0931-.1285-.1155-.2607-.22718-.3948-.33517-.0111-.00931-.0242-.01862-.0353-.02793-.1248-.09868-.2533-.19177-.3817-.28301-.0335-.0242-.0671-.04654-.1024-.07075-.1713-.11544-.3445-.22715-.5214-.32955-.0279-.01676-.0577-.03352-.0856-.04841-.1843-.10427-.3705-.20295-.5623-.29418-.0205-.00931-.0428-.01862-.0633-.02793-.1359-.0633-.2756-.12102-.4152-.17688-.041-.01676-.0819-.03165-.121-.04841-.1601-.05958-.3203-.1173-.4841-.16571-.0131-.00372-.0279-.00744-.041-.01117-.1508-.04468-.3053-.08378-.458-.12102-.0447-.00931-.0875-.01862-.1303-.02793-.1676-.03538-.337-.06703-.5083-.09123-.2104-.02979-.419-.04655-.6256-.05772-.0652-.00372-.1304-.00372-.1937-.00559-.1415-.00372-.283-.00372-.4226.00187-.0726.00372-.1434.00744-.2141.01117-.136.00931-.27.0242-.4022.04096-.0652.00931-.1303.01676-.1936.02607-.1639.02606-.3259.05958-.4841.09868-.028.00744-.0577.01117-.0875.01861-.19.04841-.3743.10799-.5567.17502-.0522.01862-.1043.04096-.1564.06144-.1304.05028-.2588.10613-.3836.16385-.108.05027-.2141.10054-.3184.1564l3.0517-1.65895c.0763-.04096.1526-.08192.2308-.11916.028-.01489.0578-.0242.0875-.03723.1248-.05958.2533-.11358.3836-.16385.0521-.02048.1024-.04282.1564-.06144.1825-.06517.3668-.12475.5567-.17316.0037-.00186.0074-.00186.0112-.00372.0242-.00559.0502-.00931.0744-.0149.1583-.0391.3203-.07261.4841-.09868.0633-.00931.1285-.01862.1918-.02606.1341-.01862.2681-.03166.404-.04097.0708-.00558.1415-.00931.2142-.01117.1396-.00558.2811-.00558.4226-.00186.0652.00186.1285.00186.1936.00559.2067.01117.4153.02792.6256.05771.1713.02421.3408.05586.5083.09124.0447.00931.0875.01862.1304.02979.1545.03537.3072.07447.4599.12102.013.00372.0279.00745.0409.01117.1639.05027.324.10613.4841.16571.041.0149.0819.03165.121.04655.1397.05585.2775.11357.4152.17688.0168.00744.0336.01303.0503.02048.0037.00186.0093.00558.013.00745.19.08937.378.18991.5623.29417.028.01676.0578.03166.0857.04841.1787.10241.3519.21412.5213.32956.0149.00931.0298.01862.0447.02979.0186.01303.0372.02793.0559.04096.1303.09123.2569.18619.3835.28487.0112.00931.0242.01676.0354.02607.134.10799.2662.2197.3947.33514.0149.01303.0298.0242.0447.03723.0205.01862.0391.03724.0596.05586.0931.08565.1843.17316.2755.26253.0298.02793.0596.05772.0875.08564.1136.1173.2272.23647.3352.35749.0056.00558.0111.01117.0149.01676.0167.01861.0316.03723.0484.05771.0875.10055.1731.20295.2569.30722.0317.0391.0615.0782.0931.1173.0819.10426.1601.21037.2365.31837.0149.0205.0316.0428.0465.0633.0056.0075.0093.013.0131.0205.0986.1415.1936.2849.2848.432.0224.0372.0428.0726.0652.1098.0726.121.1434.2421.2104.3668.013.0242.0279.0465.0409.0726.0056.0112.0112.0224.0168.0335.095.1769.1843.3594.2681.5418.0168.0354.0317.0726.0484.108.0838.1881.162.378.2328.5716.0018.0056.0055.0112.0074.0168.0223.0614.0428.1229.0633.1824.0205.0596.0428.1192.0615.1807.0223.0707.0428.1415.0651.2122.0186.0614.0373.121.054.1825.0205.0726.0373.1452.0559.2178.0149.0596.0316.1192.0447.1806.0167.0764.0316.1527.0484.229.0111.0577.026.1173.0353.175.0149.0782.0261.1564.0391.2346.0094.0578.0205.1155.028.1732.0111.0819.0204.1638.0298.2458.0055.0558.013.1117.0186.1675.0093.0913.0149.1844.0205.2756.0037.0465.0074.0931.0093.1396.0074.1397.0093.2793.0111.419.0056 2.9027-1.3945 5.2542-3.5059 6.403l-3.0516 1.659c2.1132-1.1488 3.5133-3.5004 3.5078-6.4031 0-.1396-.0038-.2793-.0112-.4189-.0019-.0559-.0075-.1006-.0093-.1471z" fill="#afb4c4"/><path d="m40.9804 16.8224c-.0056-.0912-.0112-.1843-.0205-.2756-.0056-.054-.013-.108-.0186-.1619-.0093-.0838-.0186-.1676-.0298-.2495-.0075-.0578-.0186-.1155-.0279-.1713-.0131-.0782-.0242-.1583-.0391-.2365-.0112-.0614-.0242-.121-.0373-.1825-.0149-.0744-.0298-.1489-.0465-.2215-.0149-.0615-.0317-.1229-.0466-.1844-.0186-.0707-.0353-.1433-.0558-.2141-.0168-.0614-.0354-.1229-.054-.1824-.0205-.0708-.041-.1415-.0633-.2104-.0205-.0615-.0428-.1211-.0633-.1825-.0224-.0652-.0447-.1322-.0689-.1974-.0708-.1936-.1508-.3835-.2328-.5716-.0167-.0353-.0316-.0726-.0484-.1079-.0838-.1844-.1731-.365-.2681-.5419-.0186-.0353-.0391-.0707-.0577-.1061-.067-.1247-.1378-.2458-.2123-.3668-.0223-.0372-.0428-.0726-.0651-.108-.0912-.1471-.1862-.2904-.2849-.4319-.0205-.028-.0409-.0559-.0614-.0838-.0764-.108-.1564-.2141-.2365-.3184-.0298-.0391-.0614-.0782-.0912-.1173-.0838-.1043-.1695-.2085-.257-.3091-.0204-.0242-.0409-.0484-.0633-.0726-.108-.1229-.2197-.242-.3351-.3575-.0279-.0298-.0577-.0577-.0875-.0856-.0894-.0894-.1825-.1769-.2756-.2625-.0354-.0317-.0689-.0633-.1042-.0931-.1285-.1155-.2607-.22718-.3948-.33517-.0111-.00931-.0242-.01862-.0353-.02793-.1248-.09868-.2533-.19177-.3817-.28301-.0335-.0242-.0671-.04654-.1024-.07075-.1713-.11544-.3445-.22715-.5214-.32955-.0279-.01676-.0577-.03352-.0856-.04841-.1843-.10427-.3705-.20295-.5623-.29418-.0205-.00931-.0428-.01862-.0633-.02793-.1359-.0633-.2756-.12102-.4152-.17688-.041-.01676-.0819-.03165-.121-.04841-.1601-.05958-.3203-.1173-.4841-.16571-.0131-.00372-.0279-.00744-.041-.01117-.1508-.04468-.3053-.08378-.458-.12102-.0447-.00931-.0875-.01862-.1303-.02793-.1676-.03538-.337-.06703-.5083-.09123-.2104-.02979-.419-.04655-.6256-.05772-.0652-.00372-.1304-.00372-.1937-.00559-.1415-.00372-.283-.00372-.4226.00187-.0726.00372-.1434.00744-.2141.01117-.136.00931-.27.0242-.4022.04096-.0652.00931-.1303.01676-.1936.02607-.1639.02606-.3259.05958-.4841.09868-.028.00744-.0577.01117-.0875.01861-.19.04841-.3743.10799-.5567.17502-.0522.01862-.1043.04096-.1564.06144-.1304.05028-.2588.10613-.3836.16385-.108.05027-.2141.10054-.3184.1564l3.0517-1.65895c.0763-.04096.1526-.08192.2308-.11916.028-.01489.0578-.0242.0875-.03723.1248-.05958.2533-.11358.3836-.16385.0521-.02048.1024-.04282.1564-.06144.1825-.06517.3668-.12475.5567-.17316.0037-.00186.0074-.00186.0112-.00372.0242-.00559.0502-.00931.0744-.0149.1583-.0391.3203-.07261.4841-.09868.0633-.00931.1285-.01862.1918-.02606.1341-.01862.2681-.03166.404-.04097.0708-.00558.1415-.00931.2142-.01117.1396-.00558.2811-.00558.4226-.00186.0652.00186.1285.00186.1936.00559.2067.01117.4152.02792.6256.05771.1713.02421.3408.05586.5083.09124.0447.00931.0875.01862.1304.02979.1545.03537.3072.07447.4599.12102.013.00372.0279.00745.0409.01117.1639.05027.324.10613.4841.16571.041.0149.0819.03165.121.04655.1397.05585.2775.11357.4152.17688.0168.00744.0336.01303.0503.02048.0037.00186.0093.00558.013.00745.19.08937.378.18991.5623.29417.028.01676.0578.03166.0857.04841.1787.10241.3519.21412.5213.32956.0149.00931.0298.01862.0447.02979.0186.01303.0372.02793.0559.04096.1303.09123.2569.18619.3835.28487.0112.00931.0242.01676.0354.02607.134.10799.2662.2197.3947.33514.0149.01303.0298.0242.0447.03723.0205.01862.0391.03724.0596.05586.0931.08565.1843.17316.2755.26253.0298.02793.0596.05772.0875.08564.1136.1173.2272.23647.3352.35749.0056.00558.0111.01117.0149.01676.0167.01861.0316.03723.0484.05771.0875.10055.1731.20295.2569.30722.0317.0391.0615.0782.0931.1173.0819.10426.1601.21037.2365.31837.0149.0205.0316.0428.0465.0633.0056.0075.0093.013.0131.0205.0986.1415.1936.2849.2848.432.0224.0372.0428.0726.0652.1098.0726.121.1434.242.2104.3668.013.0242.0279.0465.0409.0726.0056.0112.0112.0224.0168.0335.095.1769.1843.3594.2681.5418.0168.0354.0317.0726.0484.108.0838.1881.162.378.2328.5716.0018.0056.0055.0112.0074.0168.0224.0614.0428.1229.0633.1824.0205.0596.0428.1192.0615.1807.0223.0707.0428.1415.0651.2122.0186.0614.0373.121.054.1825.0205.0726.0373.1452.0559.2178.0149.0596.0316.1192.0447.1806.0167.0764.0316.1527.0484.229.0111.0577.026.1173.0353.175.0149.0782.0261.1564.0391.2346.0094.0578.0205.1155.028.1732.0111.0819.0204.1638.0298.2458.0055.0558.013.1117.0186.1675.0093.0913.0149.1844.0205.2756.0037.0465.0074.0931.0093.1396.0074.1397.0093.2793.0111.419.0056 2.9027-1.3945 5.2542-3.5059 6.403l-3.0516 1.659c2.1132-1.1488 3.5133-3.5004 3.5078-6.4031 0-.1396-.0038-.2793-.0112-.4189-.0019-.0559-.0075-.1006-.0093-.1471z" stroke="#141a2a" stroke-miterlimit="10" stroke-width=".2"/></svg>