<svg fill="none" height="68" viewBox="0 0 68 68" width="68" xmlns="http://www.w3.org/2000/svg" xmlns:xlink="http://www.w3.org/1999/xlink"><mask id="a" height="68" maskUnits="userSpaceOnUse" width="68" x="0" y="0"><path d="m0 0h68v68h-68z" fill="#000d1d"/></mask><g style="mask:url(#a);stroke:#12192d;stroke-width:.2;stroke-miterlimit:10;stroke-linecap:round;stroke-linejoin:round"><path d="m28.5701 35.84 1.62.94-1.71.99-1.62-.94z" fill="#59eaac"/><path d="m40.1901 35.84-1.62.94 1.71.99 1.62-.94z" fill="#59eaac"/><path d="m52.2 12.34-17.8 10.35-17.92-10.35 17.8-10.34z" fill="#4ce5a7"/><path d="m52.1999 12.34-.02 20.35-17.8 10.35.02-20.35z" fill="#17a585"/><path d="m34.4 22.69-.02 20.35-17.92-10.35.02-20.35z" fill="#24bc89"/><path d="m23.8 28.51 10.49-6.09 10.56 6.09-10.49 6.1z" fill="#ffe14b"/><path d="m23.8 28.51.01-11.99 10.49-6.09-.01 11.99z" fill="#ffc400"/><path d="m34.29 22.42.01-11.99 10.56 6.09-.01 11.99z" fill="#ffd400"/><path d="m64.7599 46.8-11 6.4-11.08-6.4 11-6.39z" fill="#4ce5a7"/><path d="m64.76 46.8-.01 12.59-11.01 6.39.02-12.58z" fill="#17a585"/><path d="m53.7599 53.2-.02 12.58-11.07-6.39.01-12.59z" fill="#24bc89"/><path d="m40.7101 18.46c.43 0 .87.16 1.2.48.66.64.66 1.68 0 2.32l-7.43 7.21c-.33.32-.76.48-1.2.48-.43 0-.87-.16-1.2-.48l-4.34-4.21c-.66-.64-.66-1.68 0-2.32.33-.32.76-.48 1.2-.48s.87.16 1.2.48l3.14 3.05 6.23-6.04c.33-.33.76-.49 1.2-.49z" fill="#fff"/><path d="m53.31 47.39c-.21 0-.42-.06-.6-.16-.44-.25-.71-.73-.71-1.23l.01-4.73c0-.89-.48-1.74-1.24-2.2l-7-4.32c-.45-.27-.73-.77-.73-1.29 0-.42.23-.82.59-1.03.18-.11.39-.16.6-.16s.42.06.61.17l8.05 4.92c1.02.61 1.65 1.72 1.65 2.9l-.01 5.94c0 .43-.23.82-.6 1.04-.19.09-.4.15-.62.15z" fill="#ffd400"/><path d="m4 46.8 11 6.4 11.08-6.4-11-6.39z" fill="#4ce5a7"/><path d="m4 46.8.01 12.59 11.01 6.39-.02-12.58z" fill="#24bc89"/><path d="m15 53.2.02 12.58 11.07-6.39-.01-12.59z" fill="#17a585"/><path d="m15.45 47.39c.21 0 .42-.06.6-.16.44-.25.71-.73.71-1.23l-.01-4.73c0-.89.48-1.74 1.24-2.2l7-4.32c.45-.27.73-.77.73-1.29 0-.42-.23-.82-.59-1.03-.18-.11-.39-.16-.6-.16s-.42.06-.61.17l-8.05 4.92c-1.02.61-1.65 1.72-1.65 2.9l.01 5.94c0 .43.23.82.6 1.04.19.09.4.15.62.15z" fill="#ffd400"/></g></svg>