<svg fill="none" height="70" viewBox="0 0 68 70" width="68" xmlns="http://www.w3.org/2000/svg"><path d="m49.916 46.9085c.0072.0544.0199.1087.0344.163.4474 1.5758 3.7892 2.0069 7.466.96 3.6751-1.0451 6.2942-3.1697 5.8468-4.7455-.0199-.0689-.0453-.1359-.076-.2011-.6666-1.4073-3.8762-1.7569-7.39-.7571-3.5538 1.0071-6.1149 3.023-5.8812 4.5807z" fill="#00f9ff"/><path d="m49.916 46.9085c.0072.0544.0199.1087.0344.163.4474 1.5758 3.7892 2.0069 7.466.96 3.6751-1.0451 6.2942-3.1697 5.8468-4.7455-.0199-.0689-.0453-.1359-.076-.2011-.6666-1.4073-3.8762-1.7569-7.39-.7571-3.5538 1.0071-6.1149 3.023-5.8812 4.5807z" stroke="#12192d" stroke-linecap="round" stroke-linejoin="round" stroke-miterlimit="10" stroke-width=".2"/><path d="m50.7256 46.4611c-.009.1123.0018.221.0308.326.3478 1.2263 3.2476 1.4762 6.4753.5579 3.2295-.9183 5.5624-2.6553 5.2147-3.8816-.0308-.1086-.0815-.2119-.1522-.3042-.7154-.9564-3.3834-1.0886-6.3231-.2536-2.9506.8386-5.1531 2.3619-5.2455 3.5555z" fill="#36c89c"/><path d="m50.7256 46.4611c-.009.1123.0018.221.0308.326.3478 1.2263 3.2476 1.4762 6.4753.5579 3.2295-.9183 5.5624-2.6553 5.2147-3.8816-.0308-.1086-.0815-.2119-.1522-.3042-.7154-.9564-3.3834-1.0886-6.3231-.2536-2.9506.8386-5.1531 2.3619-5.2455 3.5555z" stroke="#12192d" stroke-linecap="round" stroke-linejoin="round" stroke-miterlimit="10" stroke-width=".2"/><path d="m50.7257 46.4611c1.0017.6937 3.4958.6973 6.2272-.0797 2.7404-.7788 4.8651-2.1029 5.3432-3.2222-.7154-.9564-3.3834-1.0886-6.3231-.2536-2.9524.8386-5.1549 2.3619-5.2473 3.5555z" fill="#ffe14b"/><path d="m50.7257 46.4611c1.0017.6937 3.4958.6973 6.2272-.0797 2.7404-.7788 4.8651-2.1029 5.3432-3.2222-.7154-.9564-3.3834-1.0886-6.3231-.2536-2.9524.8386-5.1549 2.3619-5.2473 3.5555z" stroke="#12192d" stroke-linecap="round" stroke-linejoin="round" stroke-miterlimit="10" stroke-width=".2"/><path d="m53.5241 33.976c0 1.1701.6014 2.1717 1.4545 2.5829.2662.1304.5579.201.864.201 1.2805 0 2.3166-1.2461 2.3166-2.7821 0-1.5377-1.0361-2.7839-2.3166-2.7839-.1739 0-.3424.0236-.5036.067-1.0396.2753-1.8149 1.3856-1.8149 2.7151z" fill="#24bc89"/><path d="m53.5241 33.976c0 1.1701.6014 2.1717 1.4545 2.5829.2662.1304.5579.201.864.201 1.2805 0 2.3166-1.2461 2.3166-2.7821 0-1.5377-1.0361-2.7839-2.3166-2.7839-.1739 0-.3424.0236-.5036.067-1.0396.2753-1.8149 1.3856-1.8149 2.7151z" stroke="#12192d" stroke-miterlimit="10" stroke-width=".2"/><path d="m53.5241 33.976c0 1.1701.6014 2.1717 1.4545 2.5829 1.2642-.0181 2.2858-1.2063 2.2858-2.668 0-1.3204-.8332-2.4181-1.9272-2.63-1.0378.2753-1.8131 1.3856-1.8131 2.7151z" fill="#1faa7f"/><path d="m53.5241 33.976c0 1.1701.6014 2.1717 1.4545 2.5829 1.2642-.0181 2.2858-1.2063 2.2858-2.668 0-1.3204-.8332-2.4181-1.9272-2.63-1.0378.2753-1.8131 1.3856-1.8131 2.7151z" stroke="#12192d" stroke-miterlimit="10" stroke-width=".2"/><path d="m54.6363 23.7007-.0743.2083-2.0956 5.8685c-.2971.8332-.0199 1.7298.6231 2.2623.1068.0887.2246.1666.3514.2318.0851.0453.1775.0852.2717.1178.9002.3151 1.8982-.0326 2.4035-.8423l2.6173-4.1786z" fill="#36c89c"/><path d="m54.6363 23.7007-.0743.2083-2.0956 5.8685c-.2971.8332-.0199 1.7298.6231 2.2623.1068.0887.2246.1666.3514.2318.0851.0453.1775.0852.2717.1178.9002.3151 1.8982-.0326 2.4035-.8423l2.6173-4.1786z" stroke="#12192d" stroke-linecap="round" stroke-linejoin="round" stroke-miterlimit="10" stroke-width=".2"/><path d="m54.5601 23.9089-1.3838 3.8762-.7119 1.9924c-.0163.047-.0326.096-.0453.143-.2191.7916.0616 1.6175.6702 2.1192.8676.2464 1.8022-.1068 2.2877-.8802l2.6154-4.1786z" fill="#0ca885"/><path d="m54.5601 23.9089-1.3838 3.8762-.7119 1.9924c-.0163.047-.0326.096-.0453.143-.2191.7916.0616 1.6175.6702 2.1192.8676.2464 1.8022-.1068 2.2877-.8802l2.6154-4.1786z" stroke="#12192d" stroke-linecap="round" stroke-linejoin="round" stroke-miterlimit="10" stroke-width=".2"/><path d="m54.6816 36.5625 5.4248 4.8234c.451.4003 1.1103.4166 1.5758.0652.0598-.0452.1177-.0978.1702-.1539.3768-.4094.4329-1.0161.1504-1.4834-.0218-.0363-.0471-.0707-.0725-.1069l-4.3959-5.8613c-.6159-.8205-1.8276-.873-2.5141-.1123l-.4709.5235c-.0634.0706-.1177.1431-.1666.2209-.4148.6612-.3061 1.5487.2988 2.0848z" fill="#40e6aa"/><path d="m54.6816 36.5625 5.4248 4.8234c.451.4003 1.1103.4166 1.5758.0652.0598-.0452.1177-.0978.1702-.1539.3768-.4094.4329-1.0161.1504-1.4834-.0218-.0363-.0471-.0707-.0725-.1069l-4.3959-5.8613c-.6159-.8205-1.8276-.873-2.5141-.1123l-.4709.5235c-.0634.0706-.1177.1431-.1666.2209-.4148.6612-.3061 1.5487.2988 2.0848z" stroke="#12192d" stroke-miterlimit="10" stroke-width=".2"/><path d="m54.6815 36.5625 5.4247 4.8234c.451.4003 1.1103.4166 1.5758.0652.183-.3749.1703-.8241-.0507-1.19-.0217-.0362-.0471-.0724-.0724-.1068l-4.396-5.8613c-.6158-.8205-1.8276-.873-2.514-.1123l-.2663.2952c-.4148.663-.3061 1.5505.2989 2.0866z" fill="#0ca885"/><path d="m54.6815 36.5625 5.4247 4.8234c.451.4003 1.1103.4166 1.5758.0652.183-.3749.1703-.8241-.0507-1.19-.0217-.0362-.0471-.0724-.0724-.1068l-4.396-5.8613c-.6158-.8205-1.8276-.873-2.514-.1123l-.2663.2952c-.4148.663-.3061 1.5505.2989 2.0866z" stroke="#12192d" stroke-linecap="round" stroke-linejoin="round" stroke-miterlimit="10" stroke-width=".2"/><path d="m51.9121 34.5357c0 1.1701.6013 2.1717 1.4544 2.5829.2663.1304.5579.201.864.201 1.2806 0 2.3166-1.2443 2.3166-2.7821 0-1.5377-1.036-2.7839-2.3166-2.7839-.1739 0-.3423.0235-.5035.067-1.0397.2753-1.8149 1.3875-1.8149 2.7151z" fill="#24bc89"/><path d="m51.9121 34.5357c0 1.1701.6013 2.1717 1.4544 2.5829.2663.1304.5579.201.864.201 1.2806 0 2.3166-1.2443 2.3166-2.7821 0-1.5377-1.036-2.7839-2.3166-2.7839-.1739 0-.3423.0235-.5035.067-1.0397.2753-1.8149 1.3875-1.8149 2.7151z" stroke="#12192d" stroke-miterlimit="10" stroke-width=".2"/><path d="m51.9121 34.5357c0 1.1701.6013 2.1717 1.4544 2.5829 1.2643-.0181 2.2858-1.2063 2.2858-2.668 0-1.3205-.8331-2.4181-1.9271-2.6318-1.0379.2771-1.8131 1.3892-1.8131 2.7169z" fill="#1faa7f"/><path d="m51.9121 34.5357c0 1.1701.6013 2.1717 1.4544 2.5829 1.2643-.0181 2.2858-1.2063 2.2858-2.668 0-1.3205-.8331-2.4181-1.9271-2.6318-1.0379.2771-1.8131 1.3892-1.8131 2.7169z" stroke="#12192d" stroke-miterlimit="10" stroke-width=".2"/><path d="m65.147 20.6631-2.5901 4.1805c-.7608 1.228-2.0124 2.0684-3.436 2.3148-2.2605.3894-5.691.4455-8.3228-1.8584-1.641-1.4363-2.2351-3.7312-1.5867-5.8124l1.6791-5.3849z" fill="#099c73"/><path d="m65.147 20.6631-2.5901 4.1805c-.7608 1.228-2.0124 2.0684-3.436 2.3148-2.2605.3894-5.691.4455-8.3228-1.8584-1.641-1.4363-2.2351-3.7312-1.5867-5.8124l1.6791-5.3849z" stroke="#12192d" stroke-miterlimit="10" stroke-width=".2"/><path d="m57.8658 29.7594c1.2534-.1829 4.4774-2.2406 5.3179-5.9265 0 0 .1775-.9255-.2717-1.065h-.0036c-1.0107.547-2.1899.8295-3.4252.8277 0 0 .3822.2862-.5524 2.2442-.7209 1.5088-1.4472 2.4597-1.7424 2.8183-.1323.1612-.2156.3605-.2138.5706.0055.2988.1594.6376.8912.5307z" fill="#ffb959"/><path d="m57.8658 29.7594c1.2534-.1829 4.4774-2.2406 5.3179-5.9265 0 0 .1775-.9255-.2717-1.065h-.0036c-1.0107.547-2.1899.8295-3.4252.8277 0 0 .3822.2862-.5524 2.2442-.7209 1.5088-1.4472 2.4597-1.7424 2.8183-.1323.1612-.2156.3605-.2138.5706.0055.2988.1594.6376.8912.5307z" stroke="#12192d" stroke-linecap="round" stroke-linejoin="round" stroke-miterlimit="10" stroke-width=".2"/><path d="m49.5592 45.6967.3551 1.2118h.0018c-.2337-1.5559 2.3275-3.5718 5.8812-4.5825 3.5156-.9999 6.7234-.6503 7.39.7571l-.3152-1.1719c-.4474-1.5758-3.791-2.0069-7.4661-.96-3.6769 1.0451-6.2941 3.1697-5.8468 4.7455z" fill="#36c89c"/><path d="m49.5592 45.6967.3551 1.2118h.0018c-.2337-1.5559 2.3275-3.5718 5.8812-4.5825 3.5156-.9999 6.7234-.6503 7.39.7571l-.3152-1.1719c-.4474-1.5758-3.791-2.0069-7.4661-.96-3.6769 1.0451-6.2941 3.1697-5.8468 4.7455z" stroke="#12192d" stroke-linecap="round" stroke-linejoin="round" stroke-miterlimit="10" stroke-width=".2"/><path d="m54.8681 22.2571c1.4762.9038 3.0882 1.3367 4.6169 1.3385 1.2335.0018 2.4126-.2807 3.4251-.8277.9111-.4909 1.6845-1.1973 2.237-2.1047 1.9344-3.1661.4673-7.5856-3.2766-9.8733-3.7439-2.28578-8.3464-1.57395-10.2808 1.594-1.9326 3.1661-.4655 7.5856 3.2784 9.8732z" fill="#00f9ff"/><path d="m54.8681 22.2571c1.4762.9038 3.0882 1.3367 4.6169 1.3385 1.2335.0018 2.4126-.2807 3.4251-.8277.9111-.4909 1.6845-1.1973 2.237-2.1047 1.9344-3.1661.4673-7.5856-3.2766-9.8733-3.7439-2.28578-8.3464-1.57395-10.2808 1.594-1.9326 3.1661-.4655 7.5856 3.2784 9.8732z" stroke="#12192d" stroke-linecap="round" stroke-linejoin="round" stroke-miterlimit="10" stroke-width=".2"/><path d="m54.9533 12.3531c-.9618 1.5758.2028 4.0391 2.601 5.5044 2.3981 1.4653 5.1222 1.3766 6.0858-.1992.9618-1.574-.2028-4.0391-2.601-5.5045-2.3999-1.4653-5.124-1.3765-6.0858.1993z" fill="#0ca885"/><path d="m54.9533 12.3531c-.9618 1.5758.2028 4.0391 2.601 5.5044 2.3981 1.4653 5.1222 1.3766 6.0858-.1992.9618-1.574-.2028-4.0391-2.601-5.5045-2.3999-1.4653-5.124-1.3765-6.0858.1993z" stroke="#12192d" stroke-linecap="round" stroke-linejoin="round" stroke-miterlimit="10" stroke-width=".2"/><path d="m56.288 13.9651c-.6973.989-.0779 2.6245 1.3838 3.6533s3.2096 1.0596 3.907.0707c.6973-.989.0778-2.6246-1.3839-3.6534s-3.2113-1.0596-3.9069-.0706z" fill="#12192c"/><path d="m56.288 13.9651c-.6973.989-.0779 2.6245 1.3838 3.6533s3.2096 1.0596 3.907.0707c.6973-.989.0778-2.6246-1.3839-3.6534s-3.2113-1.0596-3.9069-.0706z" stroke="#12192d" stroke-miterlimit="10" stroke-width=".2"/><path d="m61.8704 10.7899s.2155.288-.8332 1.3639" stroke="#12192d" stroke-linecap="round" stroke-linejoin="round" stroke-miterlimit="10" stroke-width=".2"/><path d="m52.2815 11.4728s.3749-.4891 2.6716.8803" stroke="#12192d" stroke-linecap="round" stroke-linejoin="round" stroke-miterlimit="10" stroke-width=".2"/><path d="m63.64 17.6583s1.7262 1.0994 1.507 3.0049" stroke="#12192d" stroke-linecap="round" stroke-linejoin="round" stroke-miterlimit="10" stroke-width=".2"/><path d="m58.6355 15.8144-29.1941 4.6006-14.2384-15.81963 27.7559-3.59537z" fill="#59eaac"/><path d="m58.6355 15.8144-29.1941 4.6006-14.2384-15.81963 27.7559-3.59537z" stroke="#12192d" stroke-miterlimit="10" stroke-width=".2"/><path d="m54.0657 39.5294-29.6632 7.0422 5.0389-26.1566 29.1941-4.6006z" fill="#1faa7f"/><path d="m54.0657 39.5294-29.6632 7.0422 5.0389-26.1566 29.1941-4.6006z" stroke="#12192d" stroke-miterlimit="10" stroke-width=".2"/><path d="m24.4024 46.5716-14.2384-15.8287 5.039-26.15477 14.2384 15.82687z" fill="#24bc89"/><path d="m24.4024 46.5716-14.2384-15.8287 5.039-26.15477 14.2384 15.82687z" stroke="#12192d" stroke-miterlimit="10" stroke-width=".2"/><path d="m11.3939 25.0084c0 5.7291 3.3907 10.3732 7.573 10.3732 4.1822 0 7.5729-4.6441 7.5729-10.3732 0-5.729-3.3907-10.3731-7.5729-10.3731-4.1823 0-7.573 4.6441-7.573 10.3731z" fill="#0ca885"/><path d="m11.3939 25.0084c0 5.7291 3.3907 10.3732 7.573 10.3732 4.1822 0 7.5729-4.6441 7.5729-10.3732 0-5.729-3.3907-10.3731-7.5729-10.3731-4.1823 0-7.573 4.6441-7.573 10.3731z" stroke="#12192d" stroke-linecap="round" stroke-linejoin="round" stroke-miterlimit="10" stroke-width=".2"/><path d="m13.2053 25.0084c0 4.2148 2.2568 7.6309 5.0389 7.6309 2.784 0 5.039-3.4161 5.039-7.6309s-2.2568-7.6309-5.039-7.6309c-2.7821 0-5.0389 3.4161-5.0389 7.6309z" fill="#40e6aa"/><path d="m13.2053 25.0084c0 4.2148 2.2568 7.6309 5.0389 7.6309 2.784 0 5.039-3.4161 5.039-7.6309s-2.2568-7.6309-5.039-7.6309c-2.7821 0-5.0389 3.4161-5.0389 7.6309z" stroke="#12192d" stroke-miterlimit="10" stroke-width=".2"/><path d="m19.2584 4.07013 8.484 9.50737" stroke="#12192d" stroke-linecap="round" stroke-linejoin="round" stroke-miterlimit="10" stroke-width=".2"/><path d="m49.2458 10.7084-8.877-9.37149" stroke="#12192d" stroke-linecap="round" stroke-linejoin="round" stroke-miterlimit="10" stroke-width=".2"/><path d="m23.7632 14.1027 29.0293-3.8326" stroke="#12192d" stroke-linecap="round" stroke-linejoin="round" stroke-miterlimit="10" stroke-width=".2"/><path d="m22.7525 16.0227 1.0107-1.92" stroke="#12192d" stroke-linecap="round" stroke-linejoin="round" stroke-miterlimit="10" stroke-width=".2"/><path d="m28.755 41.9239 22.3602-4.2601 3.1136-17.5639-1.6356.201-21.3766 2.6119-2.304 17.7866z" fill="#24bc89"/><path d="m28.755 41.9239 22.3602-4.2601 3.1136-17.5639-1.6356.201-21.3766 2.6119-2.304 17.7866z" stroke="#12192d" stroke-miterlimit="10" stroke-width=".2"/><path d="m28.9125 40.6994 20.7662-3.9576 2.9143-16.4409-21.3766 2.6119z" fill="#12192c"/><path d="m28.9125 40.6994 20.7662-3.9576 2.9143-16.4409-21.3766 2.6119z" stroke="#12192d" stroke-miterlimit="10" stroke-width=".2"/><path d="m20.2258 41.9348c.8948-.4257 2.2152.4799 2.9488 2.0231.681 1.4309.6176 2.9089-.1087 3.4541l.7535-.4419c.8947-.4257 1.0233-2.0214.2898-3.5646-.7354-1.5432-2.0558-2.4488-2.9488-2.0232-.0362.0181-.0688.0381-.1014.0598l-.0018-.0036z" fill="#0ca885"/><path d="m20.2258 41.9348c.8948-.4257 2.2152.4799 2.9488 2.0231.681 1.4309.6176 2.9089-.1087 3.4541l.7535-.4419c.8947-.4257 1.0233-2.0214.2898-3.5646-.7354-1.5432-2.0558-2.4488-2.9488-2.0232-.0362.0181-.0688.0381-.1014.0598l-.0018-.0036z" stroke="#12192d" stroke-linecap="round" stroke-linejoin="round" stroke-miterlimit="10" stroke-width=".2"/><path d="m12.6582 36.0644.0942.6231c1.2189 7.294 6.7687 8.0257 6.8882 8.042-.2101-.7118-.2336-1.391-.0833-1.9127l-.0018-.0036c-4.2094-1.8185-4.9556-7.14-4.9556-7.14l-1.0343-.7427z" fill="#59eaac"/><path d="m12.6582 36.0644.0942.6231c1.2189 7.294 6.7687 8.0257 6.8882 8.042-.2101-.7118-.2336-1.391-.0833-1.9127l-.0018-.0036c-4.2094-1.8185-4.9556-7.14-4.9556-7.14l-1.0343-.7427z" stroke="#12192d" stroke-miterlimit="10" stroke-width=".2"/><path d="m19.9341 43.2135s-.8042 1.1375-2.3474.8151" stroke="#12192d" stroke-miterlimit="10" stroke-width=".2"/><path d="m14.8789 36.8849s-.6684.9473-1.9525.6792" stroke="#12192d" stroke-miterlimit="10" stroke-width=".2"/><path d="m15.6487 38.8466s-.7155 1.0125-2.0884.7263" stroke="#12192d" stroke-miterlimit="10" stroke-width=".2"/><path d="m16.7825 40.665s-.7481 1.0868-2.1826.7789" stroke="#12192d" stroke-miterlimit="10" stroke-width=".2"/><path d="m18.304 42.1249s-.8043 1.1375-2.3475.8151" stroke="#12192d" stroke-miterlimit="10" stroke-width=".2"/><path d="m19.6406 44.7296c.0743.2553.1739.5125.2971.7716.7335 1.5432 2.0539 2.4488 2.9487 2.0232.0634-.0308.1214-.0671.1775-.1069.0018-.0018.0036-.0036.0036-.0036.7263-.547.7879-2.0232.1087-3.4541-.7354-1.5432-2.0558-2.4489-2.9506-2.0232-.3278.1576-.5542.4709-.6683.8821-.1522.5198-.1268 1.199.0833 1.9109z" fill="#40e6aa"/><path d="m19.6406 44.7296c.0743.2553.1739.5125.2971.7716.7335 1.5432 2.0539 2.4488 2.9487 2.0232.0634-.0308.1214-.0671.1775-.1069.0018-.0018.0036-.0036.0036-.0036.7263-.547.7879-2.0232.1087-3.4541-.7354-1.5432-2.0558-2.4489-2.9506-2.0232-.3278.1576-.5542.4709-.6683.8821-.1522.5198-.1268 1.199.0833 1.9109z" stroke="#12192d" stroke-miterlimit="10" stroke-width=".2"/><path d="m20.5753 45.1968c.4456.9347 1.2444 1.4835 1.786 1.2263.5415-.2572.6194-1.2245.1757-2.1591-.4456-.9346-1.2444-1.4834-1.786-1.2262-.5415.2572-.6212 1.2244-.1757 2.159z" fill="#12192c"/><path d="m20.5753 45.1968c.4456.9347 1.2444 1.4835 1.786 1.2263.5415-.2572.6194-1.2245.1757-2.1591-.4456-.9346-1.2444-1.4834-1.786-1.2262-.5415.2572-.6212 1.2244-.1757 2.159z" stroke="#12192d" stroke-miterlimit="10" stroke-width=".2"/><path d="m12.4662 31.0961c3.8508 1.018 7.5657-.3151 9.281-3.0502.3115-.4981.556-1.0396.7245-1.6229l.0018-.0036c.0435-.1521.0815-.3061.1159-.4637.8604-4.0898-2.2767-8.4188-7.0078-9.6703-4.0989-1.085-8.04566.4981-9.58887 3.599l-.03441.0688c-.22098.46-.39124.9527-.49991 1.4725-.86217 4.0899 2.27496 8.4188 7.00779 9.6704z" fill="#00f9ff"/><path d="m12.4662 31.0961c3.8508 1.018 7.5657-.3151 9.281-3.0502.3115-.4981.556-1.0396.7245-1.6229l.0018-.0036c.0435-.1521.0815-.3061.1159-.4637.8604-4.0898-2.2767-8.4188-7.0078-9.6703-4.0989-1.085-8.04566.4981-9.58887 3.599l-.03441.0688c-.22098.46-.39124.9527-.49991 1.4725-.86217 4.0899 2.27496 8.4188 7.00779 9.6704z" stroke="#12192d" stroke-linecap="round" stroke-linejoin="round" stroke-miterlimit="10" stroke-width=".2"/><path d="m9.40693 20.2556c-.32965 2.0703 1.81127 4.4594 4.77997 5.336 2.9687.8767 5.6439-.0905 5.9717-2.159.3297-2.0703-1.8112-4.4593-4.7799-5.336-2.9687-.8785-5.64212.0888-5.97177 2.159z" fill="#0ca885"/><path d="m9.40693 20.2556c-.32965 2.0703 1.81127 4.4594 4.77997 5.336 2.9687.8767 5.6439-.0905 5.9717-2.159.3297-2.0703-1.8112-4.4593-4.7799-5.336-2.9687-.8785-5.64212.0888-5.97177 2.159z" stroke="#12192d" stroke-linecap="round" stroke-linejoin="round" stroke-miterlimit="10" stroke-width=".2"/><path d="m10.6313 21.4927c-.268 1.5161 1.1556 3.2132 3.1824 3.7928 2.0269.5796 3.887-.1793 4.1551-1.6953.2681-1.5161-1.1556-3.2132-3.1824-3.7928s-3.887.1793-4.1551 1.6953z" fill="#12192c"/><path d="m10.6313 21.4927c-.268 1.5161 1.1556 3.2132 3.1824 3.7928 2.0269.5796 3.887-.1793 4.1551-1.6953.2681-1.5161-1.1556-3.2132-3.1824-3.7928s-3.887.1793-4.1551 1.6953z" stroke="#12192d" stroke-miterlimit="10" stroke-width=".2"/><path d="m10.2148 42.5977c0 1.0741.672 1.9942 1.6247 2.3709.297.1196.6249.1848.9654.1848.0833 0 .1648-.0036.2481-.0109 1.315-.1232 2.342-1.2154 2.342-2.5448 0-1.4128-1.1592-2.5575-2.5901-2.5575-.1938 0-.3822.0217-.5633.0615-.1848.0399-.3604.0997-.5271.1757-.8875.4076-1.4997 1.2933-1.4997 2.3203z" fill="#24bc89"/><path d="m10.2148 42.5977c0 1.0741.672 1.9942 1.6247 2.3709.297.1196.6249.1848.9654.1848.0833 0 .1648-.0036.2481-.0109 1.315-.1232 2.342-1.2154 2.342-2.5448 0-1.4128-1.1592-2.5575-2.5901-2.5575-.1938 0-.3822.0217-.5633.0615-.1847.0399-.3604.0997-.5271.1757-.8875.4076-1.4997 1.2933-1.4997 2.3203z" stroke="#12192d" stroke-miterlimit="10" stroke-width=".2"/><path d="m10.2148 42.5977c0 1.0741.672 1.9942 1.6247 2.371.297.1195.6249.1847.9654.1847.0833 0 .1648-.0036.2481-.0109.8876-.4039 1.5034-1.2914 1.5034-2.3202 0-1.411-1.1592-2.5557-2.5901-2.5557-.0852 0-.1685.0036-.2518.0109-.8875.4075-1.4997 1.2932-1.4997 2.3202z" fill="#1faa7f"/><path d="m10.2148 42.5977c0 1.0741.672 1.9942 1.6247 2.371.297.1195.6249.1847.9654.1847.0833 0 .1648-.0036.2481-.0109.8876-.4039 1.5034-1.2914 1.5034-2.3202 0-1.411-1.1592-2.5557-2.5901-2.5557-.0852 0-.1685.0036-.2518.0109-.8875.4075-1.4997 1.2932-1.4997 2.3202z" stroke="#12192d" stroke-miterlimit="10" stroke-width=".2"/><path d="m8.96864 33.813.03079.2192.86217 6.1728c.12135.8766.7843 1.5432 1.6012 1.7152.1358.029.2753.0435.4184.0435.096 0 .1956-.0072.2952-.0217.9437-.1359 1.6664-.9093 1.7406-1.8602l.384-4.9158z" fill="#36c89c"/><path d="m8.96864 33.813.03079.2192.86217 6.1728c.12135.8766.7843 1.5432 1.6012 1.7152.1358.029.2753.0435.4184.0435.096 0 .1956-.0072.2952-.0217.9437-.1359 1.6664-.9093 1.7406-1.8602l.384-4.9158z" stroke="#12192d" stroke-linecap="round" stroke-linejoin="round" stroke-miterlimit="10" stroke-width=".2"/><path d="m8.99953 34.0322.56874 4.0771.29161 2.0957c.00725.0507.01631.0996.02536.1485.17206.8024.80416 1.4055 1.57396 1.5668.8839-.183 1.5469-.9292 1.6193-1.8385l.3822-4.9158z" fill="#0ca885"/><path d="m8.99953 34.0322.56874 4.0771.29161 2.0957c.00725.0507.01631.0996.02536.1485.17206.8024.80416 1.4055 1.57396 1.5668.8839-.183 1.5469-.9292 1.6193-1.8385l.3822-4.9158z" stroke="#12192d" stroke-linecap="round" stroke-linejoin="round" stroke-miterlimit="10" stroke-width=".2"/><path d="m4.22135 31.0744c.49629.8404 1.14472 1.6156 1.91994 2.2912.43652.3822.91469.73 1.42728 1.0397.19924.1214.40392.2355.61403.3441.66655.3442 1.38562.6231 2.1445.8242 4.367 1.1556 8.5637-.6937 9.9077-4.1786l.0145.0072 1.4997-3.3545c-1.7153 2.7351-5.432 4.0682-9.2809 3.0502-2.4398-.6466-4.45757-2.1083-5.71822-3.9359-.76617-1.1067-1.2534-2.3492-1.39105-3.6207-.07608-.6992-.0471-1.4092.10143-2.1119.10867-.5199.27893-1.0125.4999-1.4726l-2.13911 4.2692.00544.0036c-.12136.2409-.23004.489-.32241.7462l-.00181.0018c-.09781.2735-.17932.5579-.2409.8513-.38037 1.7914.00725 3.6334.95998 5.2455z" fill="#099c73"/><path d="m4.22135 31.0744c.49629.8404 1.14472 1.6156 1.91994 2.2912.43652.3822.91469.73 1.42728 1.0397.19924.1214.40392.2355.61403.3441.66655.3442 1.38562.6231 2.1445.8242 4.367 1.1556 8.5637-.6937 9.9077-4.1786l.0145.0072 1.4997-3.3545c-1.7153 2.7351-5.432 4.0682-9.2809 3.0502-2.4398-.6466-4.45757-2.1083-5.71822-3.9359-.76617-1.1067-1.2534-2.3492-1.39105-3.6207-.07608-.6992-.0471-1.4092.10143-2.1119.10867-.5199.27893-1.0125.4999-1.4726l-2.13911 4.2692.00544.0036c-.12136.2409-.23004.489-.32241.7462l-.00181.0018c-.09781.2735-.17932.5579-.2409.8513-.38037 1.7914.00725 3.6334.95998 5.2455z" stroke="#12192d" stroke-miterlimit="10" stroke-width=".2"/><path d="m17.2986 16.903s-.5977.9454-.8205 1.6011" stroke="#12192d" stroke-linecap="round" stroke-linejoin="round" stroke-miterlimit="10" stroke-width=".2"/><path d="m10.1316 18.8519s-1.37658-1.1049-3.02302-.5542" stroke="#12192d" stroke-linecap="round" stroke-linejoin="round" stroke-miterlimit="10" stroke-width=".2"/><path d="m19.6551 24.59s2.409.8876 2.092 3.4559" stroke="#12192d" stroke-linecap="round" stroke-linejoin="round" stroke-miterlimit="10" stroke-width=".2"/><path d="m12.593 25.2457s-1.1791 3.6243-2.0232 5.1494" stroke="#12192d" stroke-linecap="round" stroke-linejoin="round" stroke-miterlimit="10" stroke-width=".2"/><path d="m1.96796 30.3933c.30792 4.0374 1.52147 3.0828 1.7515 2.179.13585-.5289.30792-1.0306.49991-1.4979.98533-2.3855 2.52672-3.9142 2.52672-3.9142-.76616-1.1067-1.25339-2.3492-1.39286-3.6207-.59047.0598-1.26427.6013-1.85293 1.4327l-.00182.0018c-.94548 1.3349-1.68266 3.4106-1.53052 5.4193z" fill="#ffb959"/><path d="m1.96796 30.3933c.30792 4.0374 1.52147 3.0828 1.7515 2.179.13585-.5289.30792-1.0306.49991-1.4979.98533-2.3855 2.52672-3.9142 2.52672-3.9142-.76616-1.1067-1.25339-2.3492-1.39286-3.6207-.59047.0598-1.26427.6013-1.85293 1.4327l-.00182.0018c-.94548 1.3349-1.68266 3.4106-1.53052 5.4193z" stroke="#12192d" stroke-linecap="round" stroke-linejoin="round" stroke-miterlimit="10" stroke-width=".2"/><path d="m14.0799 54.9614c0 .8713.5579 1.6628 1.4074 1.9399l5.749 1.8783.9147.2989.0978-4.0863c-.0833-.0326-3.1842-1.1447-5.4411-1.9525-.6249-.2228-1.2733-.1232-1.7823.1992-.4745.3025-.8259.797-.9219 1.4074-.0145.1068-.0236.2119-.0236.3151z" fill="#1faa7f"/><path d="m14.0799 54.9614c0 .8713.5579 1.6628 1.4074 1.9399l5.749 1.8783.9147.2989.0978-4.0863c-.0833-.0326-3.1842-1.1447-5.4411-1.9525-.6249-.2228-1.2733-.1232-1.7823.1992-.4745.3025-.8259.797-.9219 1.4074-.0145.1068-.0236.2119-.0236.3151z" stroke="#12192d" stroke-miterlimit="10" stroke-width=".2"/><path d="m14.08 54.9614c0 .8713.5579 1.6628 1.4074 1.9399l5.749 1.8783.0815-3.474c-.0815-.0326-3.1824-1.1429-5.4411-1.9508-.2825-.1014-.5723-.1358-.8513-.1141-.4745.3025-.8259.797-.9219 1.4074-.0145.105-.0236.2101-.0236.3133z" fill="#24bc89"/><path d="m14.08 54.9614c0 .8713.5579 1.6628 1.4074 1.9399l5.749 1.8783.0815-3.474c-.0815-.0326-3.1824-1.1429-5.4411-1.9508-.2825-.1014-.5723-.1358-.8513-.1141-.4745.3025-.8259.797-.9219 1.4074-.0145.105-.0236.2101-.0236.3133z" stroke="#12192d" stroke-miterlimit="10" stroke-width=".2"/><path d="m9.32544 46.0735 3.14616 10.058c.2627.835 1.0723 1.3476 1.9109 1.2588h.0018c.1087-.0108.2192-.0326.3279-.0652.7752-.2282 1.2968-.94 1.2968-1.7352 0-.0616-.0036-.1231-.0108-.1865l-1.0886-10.5797c-.1522-1.4816-1.6211-2.4543-3.0448-2.0177l-.978.3006c-.1305.0399-.2554.0906-.3732.1504-1.01065.5107-1.53955 1.6953-1.18816 2.8165z" fill="#40e6aa"/><path d="m9.32544 46.0735 3.14616 10.058c.2627.835 1.0723 1.3476 1.9109 1.2588h.0018c.1087-.0108.2192-.0326.3279-.0652.7752-.2282 1.2968-.94 1.2968-1.7352 0-.0616-.0036-.1231-.0108-.1865l-1.0886-10.5797c-.1522-1.4816-1.6211-2.4543-3.0448-2.0177l-.978.3006c-.1305.0399-.2554.0906-.3732.1504-1.01065.5107-1.53955 1.6953-1.18816 2.8165z" stroke="#12192d" stroke-miterlimit="10" stroke-width=".2"/><path d="m9.32538 46.0735 3.14622 10.058c.2626.835 1.0722 1.3476 1.9109 1.2588h.0018c.5089-.3296.8259-.8984.8259-1.5178 0-.0616-.0036-.125-.0109-.1866l-1.0885-10.5814c-.154-1.4816-1.6211-2.4543-3.0448-2.0178l-.5524.1703c-1.01071.5108-1.5396 1.6953-1.18822 2.8165z" fill="#0ca885"/><path d="m9.32538 46.0735 3.14622 10.058c.2626.835 1.0722 1.3476 1.9109 1.2588h.0018c.5089-.3296.8259-.8984.8259-1.5178 0-.0616-.0036-.125-.0109-.1866l-1.0885-10.5814c-.154-1.4816-1.6211-2.4543-3.0448-2.0178l-.5524.1703c-1.01071.5108-1.5396 1.6953-1.18822 2.8165z" stroke="#12192d" stroke-linecap="round" stroke-linejoin="round" stroke-miterlimit="10" stroke-width=".2"/><path d="m12.2071 56.4829c0 .8712.5579 1.6627 1.4074 1.9398l5.749 1.8783.9147.2989.0978-4.0862c-.0833-.0327-3.1842-1.1448-5.4411-1.9526-.6249-.2228-1.2733-.1232-1.7823.1992-.4745.3025-.8259.797-.9219 1.4074-.0145.1051-.0236.2101-.0236.3152z" fill="#1faa7f"/><path d="m12.2071 56.4829c0 .8712.5579 1.6627 1.4074 1.9398l5.749 1.8783.9147.2989.0978-4.0862c-.0833-.0327-3.1842-1.1448-5.4411-1.9526-.6249-.2228-1.2733-.1232-1.7823.1992-.4745.3025-.8259.797-.9219 1.4074-.0145.1051-.0236.2101-.0236.3152z" stroke="#12192d" stroke-miterlimit="10" stroke-width=".2"/><path d="m12.2072 56.4829c0 .8712.5579 1.6627 1.4074 1.9398l5.749 1.8783.0815-3.474c-.0815-.0326-3.1824-1.1429-5.4411-1.9507-.2826-.1015-.5724-.1359-.8513-.1141-.4745.3024-.8259.7969-.9219 1.4073-.0145.1033-.0236.2083-.0236.3134z" fill="#24bc89"/><path d="m12.2072 56.4829c0 .8712.5579 1.6627 1.4074 1.9398l5.749 1.8783.0815-3.474c-.0815-.0326-3.1824-1.1429-5.4411-1.9507-.2826-.1015-.5724-.1359-.8513-.1141-.4745.3024-.8259.7969-.9219 1.4073-.0145.1033-.0236.2083-.0236.3134z" stroke="#12192d" stroke-miterlimit="10" stroke-width=".2"/><path d="m18.1644 62.3242c4.0463 1.9852 6.4336 2.8908 8.6959 3.5012.451.1214 1.219.2137 2.0087.134.6176-.0633 1.2461-.23 1.7478-.5705 1.661-1.1248 2.9832-4.9194 1.6646-7.399 0 0-.096-.2591-.393-.6123-.4547-.547-1.3857-1.3186-3.1734-1.6989-2.9379-.6267-7.3972-1.6066-7.3972-1.6066s-3.7023-1.0651-5.4918 2.3148c0-.0018-1.708 3.9504 2.3384 5.9373z" fill="#ffe380"/><path d="m18.1644 62.3242c4.0463 1.9852 6.4336 2.8908 8.6959 3.5012.451.1214 1.219.2137 2.0087.1341.6176-.0634 1.2461-.2301 1.7478-.5706 1.661-1.1248 2.9832-4.9194 1.6646-7.399 0 0-.096-.2591-.393-.6123-.4547-.547-1.3857-1.3186-3.1734-1.6989-2.9379-.6267-7.3972-1.6066-7.3972-1.6066s-3.7023-1.0651-5.4918 2.3148c0-.0018-1.708 3.9504 2.3384 5.9373z" stroke="#12192d" stroke-linecap="round" stroke-linejoin="round" stroke-miterlimit="10" stroke-width=".2"/><path d="m28.8709 65.9577c.6177-.0634 1.2462-.2301 1.7479-.5706 1.6609-1.1248 2.9832-4.9194 1.6646-7.399 0 0-.096-.2591-.3931-.6123-.1503-.0307-.3043-.0489-.4619-.0579-2.1916-.1141-4.0789 1.9145-4.213 4.5282-.0887 1.6935.5778 3.2168 1.6555 4.1116z" fill="#ff932b"/><path d="m28.8709 65.9576c.6177-.0633 1.2462-.23 1.7479-.5705 1.6609-1.1248 2.9832-4.9194 1.6646-7.399 0 0-.096-.2591-.3931-.6123-.1503-.0307-.3043-.0489-.4619-.0579-2.1916-.1141-4.0789 1.9145-4.213 4.5282-.0887 1.6935.5778 3.2168 1.6555 4.1115z" stroke="#12192d" stroke-linecap="round" stroke-linejoin="round" stroke-miterlimit="10" stroke-width=".2"/><path d="m28.6118 62.1087c0 2.3202 1.6247 4.2003 3.628 4.2003s3.6262-1.8801 3.6262-4.2003c0-.6176-.1141-1.2045-.3224-1.7316h-.0019c.0019-.0018 0-.0036 0-.0036-.0018-.0054-.0036-.0109-.0054-.0163-.0018-.0036-.0036-.0109-.0054-.0145-.5343-1.3313-1.6519-2.2858-2.9705-2.4198-.1051-.0109-.2119-.0163-.3206-.0163-2.0033.0018-3.628 1.8837-3.628 4.2021z" fill="#36c89c"/><path d="m28.6118 62.1087c0 2.3202 1.6247 4.2003 3.628 4.2003s3.6262-1.8801 3.6262-4.2003c0-.6176-.1141-1.2045-.3224-1.7316h-.0019c.0019-.0018 0-.0036 0-.0036-.0018-.0054-.0036-.0109-.0054-.0163-.0018-.0036-.0036-.0109-.0054-.0145-.5343-1.3313-1.6519-2.2858-2.9705-2.4198-.1051-.0109-.2119-.0163-.3206-.0163-2.0033.0018-3.628 1.8837-3.628 4.2021z" stroke="#12192d" stroke-linecap="round" stroke-linejoin="round" stroke-miterlimit="10" stroke-width=".2"/><path d="m31.3813 62.9708c0 1.1683.8097 2.1156 1.8095 2.1156.1648 0 .3242-.0253.4763-.0742.768-.2446 1.3331-1.0651 1.3331-2.0414 0-1.17-.8114-2.1155-1.8094-2.1155-.4239 0-.8133.1702-1.1212.4564-.4202.3858-.6883.9854-.6883 1.6591z" fill="#099c73"/><path d="m31.3813 62.9708c0 1.1683.8097 2.1156 1.8095 2.1156.1648 0 .3242-.0253.4763-.0742.768-.2446 1.3331-1.0651 1.3331-2.0414 0-1.17-.8114-2.1155-1.8094-2.1155-.4239 0-.8133.1702-1.1212.4564-.4202.3858-.6883.9854-.6883 1.6591z" stroke="#12192d" stroke-miterlimit="10" stroke-width=".2"/><path d="m31.3814 62.9709c0 1.1682.8096 2.1155 1.8094 2.1155.1648 0 .3242-.0253.4764-.0742.4184-.3876.6883-.9872.6883-1.6591 0-1.1701-.8097-2.1156-1.8095-2.1156-.1648 0-.3242.0253-.4764.0743-.4202.3858-.6882.9853-.6882 1.6591z" fill="#0ca885"/><path d="m31.3814 62.9709c0 1.1682.8096 2.1155 1.8094 2.1155.1648 0 .3242-.0253.4764-.0742.4184-.3876.6883-.9872.6883-1.6591 0-1.1701-.8097-2.1156-1.8095-2.1156-.1648 0-.3242.0253-.4764.0743-.4202.3858-.6882.9853-.6882 1.6591z" stroke="#12192d" stroke-linecap="round" stroke-linejoin="round" stroke-miterlimit="10" stroke-width=".2"/><path d="m32.6365 62.9708c0 .3568.2481.6466.5542.6466.0507 0 .0996-.0072.1449-.0235.2355-.0743.4076-.326.4076-.6249 0-.3568-.2482-.6466-.5543-.6466-.1304 0-.2499.0525-.3441.1395-.125.1195-.2083.3024-.2083.5089z" fill="#12192c"/><path d="m32.6365 62.9708c0 .3568.2481.6466.5542.6466.0507 0 .0996-.0072.1449-.0235.2355-.0743.4076-.326.4076-.6249 0-.3568-.2482-.6466-.5543-.6466-.1304 0-.2499.0525-.3441.1395-.125.1195-.2083.3024-.2083.5089z" stroke="#12192d" stroke-miterlimit="10" stroke-width=".2"/><path d="m38.3928 57.9083s1.6773-.0905 3.0375-.8821c.8423-.489.5018-1.2823.1956-1.5088-3.4939-2.5593-5.5261-.4111-5.5261-.4111 3.157 1.1375 2.293 2.802 2.293 2.802z" fill="#00f9ff"/><path d="m38.3928 57.9083s1.6773-.0905 3.0375-.8821c.8423-.489.5018-1.2823.1956-1.5088-3.4939-2.5593-5.5261-.4111-5.5261-.4111 3.157 1.1375 2.293 2.802 2.293 2.802z" stroke="#12192d" stroke-linecap="round" stroke-linejoin="round" stroke-miterlimit="10" stroke-width=".2"/><path d="m33.1908 56.8307s2.3419-.1359 2.4017 2.4886c0 0 .7843-1.3512 2.802-1.4109 0 0 .8622-1.6646-2.293-2.8021 0 0-1.8276.0417-2.9107 1.7244z" fill="#40e6aa"/><path d="m33.1907 56.8307s2.342-.1359 2.4018 2.4886c0 0 .7843-1.3512 2.802-1.4109 0 0 .8622-1.6646-2.293-2.8021 0 0-1.8276.0417-2.9108 1.7244z" stroke="#12192d" stroke-miterlimit="10" stroke-width=".2"/><path d="m32.5606 57.9265c1.3204.1322 2.4379 1.0867 2.9704 2.418-.0398-.1213-.1557-.5452.0598-1.0252-.0598-2.6245-2.4017-2.4886-2.4017-2.4886s-.5724.5415-.6285 1.0958z" fill="#40e6aa"/><path d="m32.5606 57.9265c1.3204.1322 2.4379 1.0867 2.9704 2.418-.0398-.1213-.1557-.5452.0598-1.0252-.0598-2.6245-2.4017-2.4886-2.4017-2.4886s-.5724.5415-.6285 1.0958z" stroke="#12192d" stroke-miterlimit="10" stroke-width=".2"/><path d="m33.1909 64.5702c.3006.4401.4274.4293.8857 1.9381.4582 1.5088.9237 1.3711.9237 1.3711s-.3187-1.0687.8676-2.5575c.7789-.9781 1.9236-1.0922 1.9236-1.0922s-2.7984-2.1862-4.2945-1.4364c-.4039.2029-.9364.855-.3061 1.7769z" fill="#40e6aa"/><path d="m33.1909 64.5702c.3006.4401.4274.4293.8857 1.9381.4582 1.5088.9237 1.3711.9237 1.3711s-.3187-1.0687.8676-2.5575c.7789-.9781 1.9236-1.0922 1.9236-1.0922s-2.7984-2.1862-4.2945-1.4364c-.4039.2029-.9364.855-.3061 1.7769z" stroke="#12192d" stroke-miterlimit="10" stroke-width=".2"/><path d="m35.8659 67.8015c2.275 1.4128 4.4232 1.2245 4.9883 1.1411.0471-.0072.0942-.0199.1394-.0398.0508-.0199.0978-.0489.1395-.0851.4365-.3695.5579-.9673.6285-1.3295.3043-1.5613-.5506-2.0848-.9074-2.2315-.0797-.0308-.1667-.0344-.2464-.0036-.1865.0742-.6339.1793-1.2371-.1667-.8024-.4636-1.0976-.2825-1.0976-.2825-.2336.5397-.7154.576-.9871.7064-1.5378.7336-1.4201 2.2912-1.4201 2.2912z" fill="#40e6aa"/><path d="m35.8659 67.8015c2.275 1.4128 4.4232 1.2245 4.9883 1.1411.0471-.0072.0942-.0199.1394-.0398.0508-.0199.0978-.0489.1395-.0851.4365-.3695.5579-.9673.6285-1.3295.3043-1.5613-.5506-2.0848-.9074-2.2315-.0797-.0308-.1667-.0344-.2464-.0036-.1865.0742-.6339.1793-1.2371-.1667-.8024-.4636-1.0976-.2825-1.0976-.2825-.2336.5397-.7154.576-.9871.7064-1.5378.7336-1.4201 2.2912-1.4201 2.2912z" stroke="#12192d" stroke-miterlimit="10" stroke-width=".2"/><path d="m35.0001 67.8812c.471.0725.8676-.0797.8676-.0797s-.1177-1.5577 1.4201-2.2913c.2735-.1304.7534-.1666.9871-.7064-.1159-.2209-.4854-.5741-.4854-.5741s-1.1466.1141-1.9236 1.0922c-1.1846 1.4906-.8658 2.5593-.8658 2.5593z" fill="#40e6aa"/><path d="m35.0001 67.8812c.471.0725.8676-.0797.8676-.0797s-.1177-1.5577 1.4201-2.2913c.2735-.1304.7534-.1666.9871-.7064-.1159-.2209-.4854-.5741-.4854-.5741s-1.1466.1141-1.9236 1.0922c-1.1846 1.4906-.8658 2.5593-.8658 2.5593z" stroke="#12192d" stroke-miterlimit="10" stroke-width=".2"/><path d="m40.6097 65.253c.0797-.0326.1667-.0289.2464.0037.3568.1485 1.2117.6701.9074 2.2315-.0706.364-.192.9599-.6285 1.3294-.0417.0363-.0888.0652-.1395.0852l.0018.0018s2.9397-.0616 4.4503-1.7207c.2953-.3243.7843-1.1194.5362-1.6755-.4293-.9599-1.2933-.7752-1.7588-.6955-.7028.1195-1.7243.2445-2.8509.1177-.0018.0018-.605-.0634-.7644.3224z" fill="#00f9ff"/><path d="m40.6097 65.253c.0797-.0326.1667-.0289.2464.0037.3568.1485 1.2117.6701.9074 2.2315-.0706.364-.192.9599-.6285 1.3294-.0417.0363-.0888.0652-.1395.0852l.0018.0018s2.9397-.0616 4.4503-1.7207c.2953-.3243.7843-1.1194.5362-1.6755-.4293-.9599-1.2933-.7752-1.7588-.6955-.7028.1195-1.7243.2445-2.8509.1177-.0018.0018-.605-.0634-.7644.3224z" stroke="#12192d" stroke-linecap="round" stroke-linejoin="round" stroke-miterlimit="10" stroke-width=".2"/><path d="m7.66266 36.1767c.75711 2.6644 1.90546 1.9326 1.90546 1.9326l-.12136-.8676c-1.11575.806-1.26608-2.4923-1.26608-2.4923l-.00181-.0018c-.21011-.1087-.41478-.2228-.61402-.3442-.12136.9473.09781 1.7733.09781 1.7733z" fill="#24bc89"/><path d="m7.66266 36.1767c.75711 2.6644 1.90546 1.9326 1.90546 1.9326l-.12136-.8676c-1.11575.806-1.26608-2.4923-1.26608-2.4923l-.00181-.0018c-.21011-.1087-.41478-.2228-.61402-.3442-.12136.9473.09781 1.7733.09781 1.7733z" stroke="#12192d" stroke-miterlimit="10" stroke-width=".2"/><path d="m8.96875 39.5728s.17751.3822.48723.5959l.42927.1848c-.01086-.0489-.01811-.0978-.02536-.1485l-.29161-2.0957s-1.14834.7318-1.90545-1.9326c0 0-.21917-.8278-.096-1.7714-.51259-.3098-.98896-.6575-1.42729-1.0397.00182 0-.87846 5.1096 2.82921 6.2072z" fill="#59eaac"/><g stroke="#12192d" stroke-miterlimit="10" stroke-width=".2"><path d="m8.96875 39.5728s.17751.3822.48723.5959l.42927.1848c-.01086-.0489-.01811-.0978-.02536-.1485l-.29161-2.0957s-1.14834.7318-1.90545-1.9326c0 0-.21917-.8278-.096-1.7714-.51259-.3098-.98896-.6575-1.42729-1.0397.00182 0-.87846 5.1096 2.82921 6.2072z"/><path d="m9.22412 38.2017s-.33327.4293-.25539 1.3712" stroke-linecap="round" stroke-linejoin="round"/><path d="m8.62085 37.9771s-.39485.7281-1.02699.864" stroke-linecap="round" stroke-linejoin="round"/><path d="m7.98511 37.0751s-.66655.7951-1.18276.8132" stroke-linecap="round" stroke-linejoin="round"/><path d="m7.64453 36.0934s-.56149.6466-1.34759.5687" stroke-linecap="round" stroke-linejoin="round"/><path d="m7.52856 35.0863s-.75529.4782-1.45082.2934" stroke-linecap="round" stroke-linejoin="round"/><path d="m30.2166 56.1587s-3.7965-.3641-5.1567 3.9975c0 0-1.0506 3.2711.9364 5.4229" stroke-linecap="round" stroke-linejoin="round"/><path d="m22.6311 54.3564s-3.6823.7064-4.8071 4.0754c0 0-.4945 2.1953.3405 3.8924" stroke-linecap="round" stroke-linejoin="round"/><path d="m27.2063 62.1793s-1.6827.02-3.5048-.7444v-2.3565l-3.82-1.0722s-1.1357 1.449-1.3711 1.5087l-2.217-.5687s-.6412-.6629-.73-1.6338" stroke-linecap="round" stroke-linejoin="round"/></g><path d="m22.6763 59.7323-2.2387-.3786c-.3242-.0543-.6104.2192-.5687.547v.0055c.0271.2155.192.3876.4075.4238l2.2387.3731c.3279.0544.6141-.2246.567-.5542-.0326-.2138-.1957-.3804-.4058-.4166z" fill="#c084f7"/><path d="m22.6763 59.7323-2.2387-.3786c-.3242-.0543-.6104.2192-.5687.547v.0055c.0271.2155.192.3876.4075.4238l2.2387.3731c.3279.0544.6141-.2246.567-.5542-.0326-.2138-.1957-.3804-.4058-.4166z" stroke="#12192d" stroke-linecap="round" stroke-linejoin="round" stroke-miterlimit="10" stroke-width=".2"/><path d="m22.4283 61.6214-2.2387-.3785c-.3243-.0544-.6104.2191-.5688.547v.0054c.0272.2156.192.3876.4076.422l2.2387.3732c.3278.0543.614-.2246.5669-.5543-.0326-.2119-.1956-.3785-.4057-.4148z" fill="#c084f7"/><path d="m22.4283 61.6214-2.2387-.3785c-.3243-.0544-.6104.2191-.5688.547v.0054c.0272.2156.192.3876.4076.422l2.2387.3732c.3278.0543.614-.2246.5669-.5543-.0326-.2119-.1956-.3785-.4057-.4148z" stroke="#12192d" stroke-linecap="round" stroke-linejoin="round" stroke-miterlimit="10" stroke-width=".2"/><path d="m7.78412 43.0777c0 1.3095.67198 2.4271 1.62471 2.8871.29705.1449.62487.2246.96537.2246 1.4309 0 2.5902-1.3928 2.5902-3.1099 0-1.7189-1.1593-3.1118-2.5902-3.1118-.1938 0-.38214.0254-.56327.0743-1.16102.3079-2.02681 1.5504-2.02681 3.0357z" fill="#24bc89"/><path d="m7.78412 43.0777c0 1.3095.67198 2.4271 1.62471 2.8871.29705.1449.62487.2246.96537.2246 1.4309 0 2.5902-1.3928 2.5902-3.1099 0-1.7189-1.1593-3.1118-2.5902-3.1118-.1938 0-.38214.0254-.56327.0743-1.16102.3079-2.02681 1.5504-2.02681 3.0357z" stroke="#12192d" stroke-miterlimit="10" stroke-width=".2"/><path d="m7.78418 43.0777c0 1.3095.67198 2.4271 1.62471 2.8871 1.41461-.0199 2.55571-1.3476 2.55571-2.9831 0-1.4762-.931-2.7043-2.15361-2.9415-1.16102.3097-2.02681 1.5522-2.02681 3.0375z" fill="#1faa7f"/><path d="m7.78418 43.0777c0 1.3095.67198 2.4271 1.62471 2.8871 1.41461-.0199 2.55571-1.3476 2.55571-2.9831 0-1.4762-.931-2.7043-2.15361-2.9415-1.16102.3097-2.02681 1.5522-2.02681 3.0375z" stroke="#12192d" stroke-miterlimit="10" stroke-width=".2"/><path d="m25.9003 8.87719c-.2481 3.10631 4.1931 5.99711 9.9204 6.45721 5.729.4582 10.5742-1.6881 10.8223-4.7945.25-3.10629-4.1931-5.99708-9.9203-6.45714-5.7291-.45826-10.5742 1.6881-10.8224 4.79443z" fill="#00f9ff"/><path d="m25.9003 8.87719c-.2481 3.10631 4.1931 5.99711 9.9204 6.45721 5.729.4582 10.5742-1.6881 10.8223-4.7945.25-3.10629-4.1931-5.99708-9.9203-6.45714-5.7291-.45826-10.5742 1.6881-10.8224 4.79443z" stroke="#12192d" stroke-linecap="round" stroke-linejoin="round" stroke-miterlimit="10" stroke-width=".2"/><path d="m31.5859 11.1087s-1.4091 1.0868-1.3421 2.8636" stroke="#12192d" stroke-linecap="round" stroke-linejoin="round" stroke-miterlimit="10" stroke-width=".2"/><path d="m44.4715 9.94409s1.1701.19201 1.9489 1.53051" stroke="#12192d" stroke-linecap="round" stroke-linejoin="round" stroke-miterlimit="10" stroke-width=".2"/><path d="m28.1211 7.45536c-.1793 2.22787 3.4378 4.33614 8.0783 4.70934 4.6405.3713 8.5474-1.1339 8.7249-3.36175.1793-2.22787-3.4378-4.33619-8.0783-4.70931-4.6387-.37312-8.5456 1.13205-8.7249 3.36172z" fill="#40e6aa"/><path d="m28.1211 7.45536c-.1793 2.22787 3.4378 4.33614 8.0783 4.70934 4.6405.3713 8.5474-1.1339 8.7249-3.36175.1793-2.22787-3.4378-4.33619-8.0783-4.70931-4.6387-.37312-8.5456 1.13205-8.7249 3.36172z" stroke="#12192d" stroke-miterlimit="10" stroke-width=".2"/><path d="m29.7802 7.08771c-.1268 1.57218 2.8093 3.08819 6.555 3.38889s6.8846-.72995 7.0114-2.30213c.1268-1.57037-2.8093-3.08822-6.555-3.38889-3.7457-.29886-6.8846.72994-7.0114 2.30213z" fill="#ffe380"/><path d="m29.7802 7.08771c-.1268 1.57218 2.8093 3.08819 6.555 3.38889s6.8846-.72994 7.0114-2.30213c.1268-1.57037-2.8093-3.08822-6.555-3.38889-3.7457-.29886-6.8846.72994-7.0114 2.30213z" stroke="#12192d" stroke-linecap="round" stroke-linejoin="round" stroke-miterlimit="10" stroke-width=".2"/><path d="m42.3614 28.0254c.5064-.2038.8571.067.7821.6061-.0751.5391-.5466 1.1413-1.0533 1.3465-.5081.205-.8585-.0673-.7835-.6064s.5466-1.1413 1.0547-1.3462z" fill="#59eaac"/><path d="m43.0779 23.4108c.2267-.0916.4405-.0923.588.0215l2.2004 1.7035c.2934.2274.2119.823-.1843 1.3298-.1981.2534-.4377.436-.6642.5262s-.4403.0908-.5863-.0227l-1.6678-1.2919-3.5577 4.5386 2.6411 2.0461 2.246-2.8663c.1981-.2534.4363-.4362.6628-.5264.2267-.0917.4403-.0908.5877.0229.2947.229.2119.823-.1842 1.3298l-2.964 3.7814c-.1978.2519-.4372.4331-.664.5248-.2281.0914-.4419.092-.5879-.0216l-3.1723-2.4574-.3263 2.3516c-.0717.516-.5291 1.101-1.0151 1.2959-.4877.1961-.8266-.0642-.7542-.5845l1.0242-7.3639c.0721-.5188.5275-1.0998 1.0151-1.2959.4891-.1959.8264.0657.7542.5846l-.3265 2.353 4.2744-5.4554c.1931-.2496.4327-.4323.6609-.5237z" fill="#59eaac"/></svg>