<svg fill="none" height="70" viewBox="0 0 68 70" width="68" xmlns="http://www.w3.org/2000/svg" xmlns:xlink="http://www.w3.org/1999/xlink"><linearGradient id="a" gradientUnits="userSpaceOnUse" x1="30.9733" x2="30.9733" y1="11.3984" y2="63.6613"><stop offset="0" stop-color="#59eaac"/><stop offset=".380108" stop-color="#8fffda"/><stop offset=".380208" stop-color="#1faa7f"/></linearGradient><mask id="b" height="65" maskUnits="userSpaceOnUse" width="47" x="8" y="4"><path d="m9.71062 5.28007c.05924-.02489.12131-.03983.1862-.04481.03103-.00248.06207-.00248.0931 0l.09878.01743c.2849.0473.5501.15683.773.32112 6.2066 4.02769 15.3727 4.01027 20.166-.58001.1269-.12197.2511-.24893.3724-.3709l.3752-.21906.3188-.05228c.3329.02738.6263.26636.8463.74679 4.2939 9.41455 13.4516 18.95605 19.5538 21.34325.4514.1793.8549.4431 1.1793.7742.4429.4207.6856.9733.6799 1.5483l-.8774 21.535c0 6.044-2.8212 12.3917-8.5765 15.6029l-.5473.2788-.0874.0424c-3.0949 1.5085-6.6468 2.1184-10.1564 1.7425-1.3118-.1892-2.5306-.7244-3.4926-1.5359l-.1185-.112c-.0734-.0573-.1495-.1121-.2229-.1743-13.3669-12.1976-19.8839-28.744-19.8839-37.8772l-1.73784-21.98802c.02539-.22403 1.05796-.99821 1.05796-.99821zm21.81918 61.70733c.1326.0672.2681.1319.4063.1917-.1411-.0623-.2765-.127-.4063-.1917zm-.6799-.4008-.0395-.0249zm.4345.2664-.127-.0722z" fill="#fff"/></mask><path d="m10.1394 5.47493 6.6947-3.39043c.2624-.12695.6517-.03983 1.0974.27383.2455.16678.4937.3261.7448.49786l.2822.15433.488.25391.3555.17425c.1439.07219.2821.15185.4401.21906s.268.117.4063.17425c.1382.05726.2623.12198.4006.17425l.4514.16928.3724.13691c.1636.05725.33.10953.4937.15931l.3413.11202.5474.1394.3131.08215c.189.04979.3809.08713.5501.12695l.2822.05726.6037.10704.2483.03734.6432.08463h.206c.2256 0 .4513.04232.677.05228h.175c.2341-.00498.4683.00498.7024.02489h.9959c.2539 0 .4994-.02987.7533-.04978h.0705l.7759-.08713h.0366l.6489-.11202c.1354-.12944.2934-.24395.4655-.33356l.079-.03734 6.5875-3.35309c.5473-.27632 1.0552-.07717 1.3711.62979 4.3221 9.45933 13.5193 19.04813 19.6441 21.44533.1213.0448.2398.0971.3527.1593.0761.0398.141.0822.22.127.0339.0174.0649.0373.0931.0622.0931.0598.1806.1245.2624.1942.0874.0771.1749.1543.2595.2489.4373.4207.6799.9708.6799 1.5409l-.883 21.2487c0 6.1909-2.9877 12.7303-9.0815 15.8543l-6.6862 3.3905-.0903.0448c-3.0949 1.5085-6.6468 2.1184-10.1564 1.7425-1.3118-.1892-2.5278-.7244-3.4898-1.5359-13.3697-12.1976-19.8867-28.7465-19.8867-37.8772l-.88304-22.21457c-.02257-.49288.11003-.78911.34424-.9086z" fill="#28cd96" stroke="#11192f" stroke-linecap="round" stroke-linejoin="round" stroke-width=".2"/><path d="m44.5072 66.1368 6.5226-3.3282c6.0882-3.1241 9.0815-9.6635 9.0815-15.8544l.8887-21.5549c-.0141-.7492-.4204-1.4487-1.0975-1.8993.1439.1095.2793.229.4035.3585l-6.6863 3.3904c.4429.4232.6856.9758.6827 1.5508l-.8802 21.535c.0057 6.166-2.9368 12.6705-8.915 15.8021z" fill="#1faa7f" stroke="#11192f" stroke-miterlimit="10" stroke-width=".2"/><path d="m9.8062 5.18827 6.6863-3.08922c.2623-.12695.6517-.03983 1.0974.27631.2455.1643.4937.32361.7476.49786l.2822.15434.4965.26387.3555.17425c.1438.07219.2821.14936.4401.21657s.268.11699.4062.17425c.1383.05725.2652.12197.4006.17674l.4514.16927.3724.13442c.1665.05726.3301.11202.4937.15932l.3414.11202.5501.14189.3104.08214c.189.0473.3808.08713.5642.12447l.2821.05974.6038.10455.2482.03983.6433.08215h.2087c.2229 0 .4486.04481.6743.05227h.1749c.2342-.00497.4684.00498.7025.0249h.9987c.2539 0 .5022-.02987.7533-.0473h.0705l.7758-.08713h.0367l.6489-.11201c.1354-.13194.2934-.24396.4655-.33357l.079-.03983.7476-.38335v62.89968c-.6122-.2639-1.1764-.6074-1.6701-1.0231-13.3697-12.1976-19.8867-28.7465-19.8867-37.8772l-.88308-22.21704c-.04514-.49288.08746-.78911.33008-.91109z" fill="#59eaac" stroke="#11192f" stroke-linecap="round" stroke-linejoin="round" stroke-width=".2"/><path d="m31.6196 4.46262c.5078-.21159.9733 0 1.2724.66713 4.2798 9.41455 13.4515 18.95605 19.5538 21.34075.4598.1842.8689.4531 1.199.7916l6.6609-3.3755c-.1242-.1294-.2568-.2464-.4035-.3559l-.1608-.1046c-.0536-.0299-.1044-.0622-.1523-.0971l-.1665-.0846c-.1044-.0597-.2144-.1095-.3272-.1494-6.0967-2.3872-15.2543-11.9337-19.5482-21.34821-.2313-.48292-.5473-.74679-.9141-.74679-.1608 0-.3159.03983-.4514.11451z" fill="#59eaac" stroke="#11192f" stroke-linecap="round" stroke-linejoin="round" stroke-width=".2"/><path d="m9.66623 5.3203c.26519-.12944.66867-.03983 1.14827.28129 6.359 4.13224 15.8636 4.00778 20.5384-.9534l.0846-.08713c-4.7876.88122-9.7755-.06472-13.7308-2.6063-.4966-.32609-.9-.40575-1.1483-.27133z" fill="#59eaac" stroke="#11192f" stroke-linecap="round" stroke-linejoin="round" stroke-width=".2"/><path d="m9.6605 5.19266-.00987.0074.05999.08001-.06001-.07999-.00005.00003-.00016.00012-.0006.00046-.0023.00172-.00881.00666-.03319.02524c-.02855.02181-.0693.05317-.11825.09148-.09783.07657-.22878.1812-.36075.2931-.13158.11155-.26599.23184-.3698.33949-.05178.05369-.09784.10618-.13246.15428-.03175.04412-.06464.09881-.07094.15436l-.00108.00956.00075.00958 1.73753 21.98414c.001 4.5863 1.6362 11.0197 4.9394 17.8291 3.305 6.8131 8.2833 14.0097 14.9771 20.118l.0027.0024c.0515.0436.1061.0851.1575.1242.0224.0171.0442.0336.0649.0497l.115.1087.0041.0039.0001-.0001c.9771.8243 2.2136 1.3668 3.5429 1.5585l.0036.0005v-.0001c3.5277.3778 7.0984-.235 10.2105-1.7519zm0 0 .01138-.00478c.06921-.02908.14173-.04651.21711-.05231m-.22849.05709.22849-.05709m0 0c-.00005.00001-.00011.00001-.00017.00001l.008.09968-.00765-.0997zm34.50681 61.13533-.0872.0422-34.31069-61.17752.00004-.00044.00935.00165.0977.01725c.0002.00003.0004.00006.0005.00008.2984.04961.5774.16432.8131.33741 3.0848 2.00104 6.9069 2.99832 10.5541 2.92403 3.6486-.07431 7.1118-1.2206 9.4857-3.49387.0988-.09491.1957-.19269.2918-.28974.0264-.0266.0527-.05315.079-.07957l.0092-.00926.0112-.00658.3753-.21906.0159-.00933.0183-.00299.3188-.05228.0121-.00199.0123.00101c.3832.03152.701.30695.9291.80481v.00015c2.1417 4.69565 5.4979 9.42584 9.081 13.28024 3.5851 3.8564 7.3878 6.8259 10.4183 8.0114l.0004.0002c.463.1838.878.4548 1.2126.7958.4608.4383.7156 1.0165.7097 1.6206h.0001l-.0002.0031-.8773 21.5329c-.0006 6.0713-2.8347 12.456-8.6277 15.6883l-.0034.0017-.5473.2789z" fill="#fff" stroke="#231815" stroke-miterlimit="10" stroke-width=".2"/><g mask="url(#b)"><path d="m55.5 26.5-3 1.5-17.5 34.5-1.5 5 6 4.5 16-14z" fill="#bababa" stroke="#000" stroke-width=".2"/></g><path d="m35.0564 67.3629c2.5334-.0025 5.0274-.5701 7.2448-1.6529l.5643-.2913c4.7452-2.6635 7.6934-8.1026 7.6878-14.194l.8774-21.5648c-.0029-.1518-.0677-.2962-.1834-.4057l-.1862-.1768c-.1185-.0921-.2483-.1668-.3922-.224-6.5903-2.5764-15.5646-12.1304-20.0305-21.20887-2.6943 2.22046-6.4211 3.43277-10.6078 3.43277-3.3911-.0025-6.7229-.7941-9.6598-2.29516l.8125 20.41226c0 9.2328 6.7709 25.2291 19.3309 36.7073l.2003.1518.1637.1519c.0733.0597.1495.1194.2285.1742l.0338-.0448.0988.0548-.0395.0547c.0508.0349.1015.0697.1551.1021l.0424-.0697c.0987.0498.1974.0996.299.1419l-.0536.0971c.5106.2763 1.0749.463 1.6645.5501.5784.0622 1.1652.0946 1.7492.0971zm-4.1754-1.1476-.1862.2191z" fill="#28ce92" stroke="#231815" stroke-miterlimit="10" stroke-width=".2"/><path d="m32.61 64.2509.0338.0274.0452.0423v-.0174l-.0593-.0348.11.0597-.0225.0299.0282.0249.0254-.0349.1326.0648-.0395.0721c.2454.1768.536.2963.8463.351.4458.0424.8915.0648 1.3401.0648 2.0595-.0025 4.088-.4631 5.8907-1.3443l.4796-.2489c3.8538-2.1981 6.3393-6.9302 6.3336-12.088v-.0747l.8464-20.4447c-6.3929-2.9423-14.2076-10.9529-19.0375-19.3095-2.9059 1.4438-6.1926 2.1831-9.5273 2.1458-2.2795 0-3.6675-.0747-5.8286-.6846l-.8463.5801.6235 15.6826v.0721c0 8.73 6.469 23.8973 18.4619 34.9175l.1298.0996z" fill="#3edb9f" stroke="#231815" stroke-miterlimit="10" stroke-width=".2"/><path d="m8.65809 6.2101c.05925-.02738.12131-.04231.1862-.04729h.0931c.03104-.00249.06207-.00249.0931 0 .28777.04978.55578.16678.77584.33605 6.20667 4.02774 15.37277 4.01024 20.16317-.58.127-.12198.189-.17177.3103-.30121.0395-.0473.0762-.09957.1072-.15185l.3978-.17674h.2596c.3329.02738.6291.26636.8463.74679 4.2939 9.41455 13.4516 18.95605 19.5538 21.34075.4514.1818.8549.4481 1.1821.7767.443.4207.6856.9758.6799 1.5508l-.8999 21.5201c0 6.044-2.8212 12.3917-8.5737 15.6029l-.5642.2763-.0875.0448c-3.092 1.511-6.6467 2.1209-10.1563 1.7425-1.3034-.1892-2.5137-.7219-3.4701-1.5259-.0423-.0349-.079-.0747-.1213-.1095-.0423-.0349-.1495-.1146-.2201-.1743-13.3697-12.1976-19.88668-28.7465-19.88668-37.8772l-.88586-22.20708c-.02257-.27631.0536-.55013.21723-.78662zm22.22271 60.0071-.1862.2191zm-19.6949-37.0134c0 9.2328 6.7709 25.2291 19.3309 36.7072l.2003.1519.1637.1518c.0733.0598.1495.1195.2285.1743l.0338-.0423.0959.0522-.0394.0548c.0507.0349.1015.0697.1551.1021l.0423-.0697c.0988.0497.1975.0995.2991.1419l-.0536.097c.5106.2763 1.0749.463 1.6645.5502 3.109.3211 6.2546-.2266 8.994-1.5633l.5643-.2913c4.7452-2.6635 7.6934-8.1026 7.6877-14.194l.8774-21.5648c-.0028-.1518-.0677-.2962-.1833-.4057l-.1862-.1768c-.1185-.0921-.2483-.1668-.3922-.224-6.5903-2.5764-15.5646-12.1304-20.0306-21.20887-2.6942 2.22046-6.421 3.43277-10.6077 3.43277-3.3911-.0025-6.723-.7941-9.6598-2.29516z" fill="#f2eeee" stroke="#231815" stroke-miterlimit="10" stroke-width=".2"/><path d="m46.7637 51.75v-.0747l.8463-20.4446c-6.39-2.9448-14.2048-10.9529-19.0347-19.3095-2.9058 1.4413-6.1925 2.1831-9.5272 2.1458-1.9212-.0025-3.8368-.2266-5.6932-.6672 0 0 .6432-.5999.9846-.5202 1.8564.4406 3.772.6646 5.6932.6646 3.3318.0374 6.6157-.7045 9.5216-2.1458 4.8299 8.3616 12.6446 16.3672 19.0375 19.3096l-.8464 20.4446v.0747c0 5.1578-2.4798 9.89-6.3336 12.088l-.4796.249c-.0705.0348-.1439.0647-.2172.097 3.7014-2.2727 6.0487-6.8779 6.0487-11.9113z" fill="url(#a)" stroke="#231815" stroke-miterlimit="10" stroke-width=".2"/><path d="m39.9944 34.7141c-.0011-.0204-.0011-.0409-.0034-.0624-.0011-.0097-.0022-.0194-.0022-.028 0-.0043-.0011-.0086-.0011-.0129-.0012-.0075-.0012-.014-.0023-.0215-.0022-.0205-.0045-.042-.0079-.0635-.0033-.0216-.0056-.0431-.0089-.0646 0-.0011 0-.0011 0-.0022s0-.0021-.0012-.0032c-.0033-.0205-.0067-.0398-.0112-.0603-.0045-.0226-.009-.0452-.0146-.0667-.0022-.0076-.0033-.0162-.0056-.0237-.0011-.0054-.0022-.0097-.0034-.014-.0022-.0097-.0045-.0194-.0067-.0291-.0056-.0226-.0123-.0452-.0191-.0678-.0045-.0161-.0101-.0333-.0157-.0495-.0011-.0032-.0022-.0064-.0034-.0097-.0011-.0032-.0022-.0054-.0022-.0086-.0068-.0226-.0146-.0441-.0225-.0667-.0078-.0215-.0157-.0442-.0235-.0657-.0012-.0043-.0034-.0086-.0045-.0118-.0012-.0033-.0023-.0065-.0034-.0097-.0056-.014-.0101-.0269-.0157-.0409-.009-.0205-.0169-.042-.0258-.0624-.0068-.0151-.0135-.0302-.0203-.0453l-.0033-.0075c-.0011-.0032-.0023-.0054-.0034-.0086-.009-.0204-.0191-.042-.0292-.0624-.0056-.0119-.0112-.0226-.0168-.0345-.0056-.0086-.0101-.0183-.0146-.028l-.0023-.0053c-.0022-.0033-.0045-.0065-.0056-.0108-.0022-.0032-.0033-.0065-.0056-.0097-.0011-.0011-.0011-.0032-.0022-.0043-.009-.0161-.0191-.0344-.0281-.0527-.0112-.0216-.0247-.0409-.0371-.0614-.0011-.0011-.0022-.0032-.0022-.0043-.0011-.0011-.0011-.0022-.0011-.0022-.0056-.0096-.0113-.0215-.018-.0312-.0022-.0032-.0034-.0054-.0045-.0075-.0011-.0022-.0022-.0043-.0033-.0054-.0124-.0194-.0247-.0377-.0371-.056-.018-.0279-.0359-.0559-.055-.0828-.0023-.0033-.0045-.0065-.0056-.0097 0-.0011-.0011-.0022-.0023-.0033-.028-.0398-.0572-.0785-.0853-.1162-.0067-.0086-.0135-.0162-.0202-.0248-.0135-.0172-.027-.0333-.0404-.0506-.0169-.0204-.0337-.0398-.0505-.0602 0 0 0 0-.0012-.0011 0 0 0 0 0-.0011-.0101-.0118-.0202-.0226-.0303-.0344-.0067-.0076-.0135-.0151-.0213-.0237-.0056-.0054-.0112-.0108-.0169-.0172-.0123-.0129-.0235-.0259-.0359-.0388-.0022-.0021-.0034-.0032-.0056-.0054-.0011-.001-.0022-.0021-.0034-.0043-.0033-.0032-.0067-.0064-.0089-.0086-.0034-.0032-.0068-.0075-.0102-.0107-.0089-.0087-.0168-.0173-.0258-.0259-.0033-.0032-.0067-.0064-.0112-.0097-.0157-.015-.0303-.029-.046-.0441-.0023-.0011-.0034-.0021-.0057-.0043-.0044-.0043-.0089-.0075-.0134-.0118s-.009-.0076-.0135-.0119c-.009-.0086-.018-.0161-.0281-.0247-.0202-.0173-.0393-.0334-.0595-.0506-.0089-.0076-.0179-.014-.0269-.0205-.0045-.0032-.009-.0075-.0135-.0107-.0067-.0054-.0123-.0108-.0191-.0151-.0191-.0151-.0393-.0291-.0595-.0431-.0146-.0097-.0292-.0193-.0438-.029-.0022-.0022-.0056-.0033-.0078-.0054-.0023-.0022-.0045-.0032-.0068-.0054-.019-.0129-.0381-.0248-.0572-.0366s-.0382-.0226-.0573-.0334c-.0045-.0021-.009-.0053-.0134-.0075l-1.2519-.6932.0056-1.9698c0-.0656-.0011-.1324-.0033-.1991 0-.0129-.0012-.0259-.0023-.0377-.0011-.0269-.0022-.0538-.0045-.0807-.0011-.0312-.0022-.0625-.0045-.0947-.0022-.0248-.0045-.0496-.0056-.0743-.0022-.028-.0045-.0571-.0067-.085-.0023-.0183-.0034-.0366-.0045-.056-.0045-.042-.009-.0829-.0146-.1249-.0034-.0237-.0056-.0463-.0079-.0699-.0011-.0076-.0011-.0151-.0022-.0227-.0101-.0742-.0202-.1485-.0326-.2228 0-.0021-.0011-.0043-.0011-.0064-.0022-.0119-.0045-.0248-.0067-.0377-.0101-.0603-.0202-.1195-.0326-.1798-.0022-.0118-.0045-.0236-.0078-.0355-.0057-.0301-.0124-.0592-.0191-.0893-.0079-.0355-.0146-.0711-.0225-.1066-.0045-.0204-.0101-.042-.0157-.0624-.0079-.0323-.0157-.0646-.0236-.0969-.0056-.0247-.0112-.0484-.0179-.0732-.0079-.0301-.0169-.0613-.0247-.0915-.009-.0323-.018-.0646-.027-.0968-.0045-.0151-.0079-.0313-.0123-.0463-.0124-.0442-.027-.0872-.0393-.1313-.0079-.027-.0158-.0539-.0247-.0819-.0023-.0075-.0045-.015-.0068-.0215-.0247-.0764-.0505-.1528-.0763-.2293-.0011-.001-.0011-.0032-.0011-.0043-.0034-.0096-.0068-.0193-.0101-.029-.0225-.0646-.0461-.1292-.0697-.1927-.0045-.0108-.0089-.0226-.0123-.0334-.0101-.0258-.0202-.0516-.0303-.0775-.0135-.0355-.027-.071-.0416-.1065-.0101-.0237-.0202-.0474-.0292-.0711-.0112-.028-.0235-.0559-.0359-.085-.009-.0205-.0168-.0398-.0247-.0603-.0179-.042-.037-.0829-.055-.1238-.0101-.0215-.0191-.0441-.0292-.0656-.0034-.0076-.0067-.0151-.0101-.0226-.0337-.0721-.0674-.1432-.1022-.2153-.0011-.0032-.0033-.0065-.0045-.0097-.0101-.0215-.0213-.042-.0314-.0624-.0269-.0538-.0539-.1087-.0819-.1626-.0045-.0086-.009-.0172-.0135-.0258-.0236-.0452-.0483-.0893-.0719-.1335-.0191-.0355-.0381-.071-.0572-.1065-.0034-.0065-.0079-.0129-.0113-.0194-.064-.1152-.1313-.2293-.1998-.3423-.0056-.0097-.0112-.0194-.0168-.0291-.0068-.0107-.0146-.0215-.0214-.0323-.0988-.1593-.2009-.3164-.3076-.4703-.0056-.0086-.0112-.0173-.0168-.0259-.0102-.014-.0203-.0269-.0304-.0409-.0853-.1205-.1717-.24-.2616-.3563 0-.001-.0011-.001-.0011-.0021-.009-.0118-.0191-.0237-.028-.0355-.0551-.0711-.1101-.14-.1662-.2099-.0034-.0043-.0067-.0086-.0101-.0129-.0438-.0539-.0887-.1066-.1336-.1593-.0135-.0162-.027-.0323-.0416-.0485-.0011-.0011-.0022-.0021-.0033-.0032-.0584-.0678-.119-.1346-.1785-.2002-.0023-.0033-.0057-.0054-.0079-.0086-.018-.0194-.0348-.0377-.0528-.056-.0393-.0431-.0797-.085-.1201-.127-.0067-.0065-.0135-.014-.0202-.0205-.0258-.0269-.0517-.0527-.0786-.0785-.0303-.0302-.0595-.0614-.0898-.0905-.0101-.0107-.0214-.0204-.0315-.0301-.028-.0269-.0572-.0538-.0853-.0807-.0258-.0248-.0516-.0495-.0775-.0732-.0134-.0129-.028-.0248-.0415-.0377-.0314-.028-.0629-.056-.0943-.084-.0225-.0193-.0449-.0409-.0674-.0602-.0168-.014-.0336-.028-.0505-.042-.0314-.0269-.0629-.0538-.0954-.0797-.0202-.0161-.0393-.0333-.0595-.0495-.0202-.0161-.0416-.0323-.0618-.0484-.0314-.0248-.0617-.0485-.0932-.0732-.0168-.0129-.0336-.0269-.0505-.0388-.0258-.0193-.0528-.0387-.0786-.057-.0292-.0215-.0584-.0431-.0864-.0635-.0124-.0086-.0247-.0183-.0371-.0269-.0359-.0248-.0707-.0485-.1066-.0732-.0247-.0162-.0494-.0334-.0741-.0506-.0068-.0043-.0135-.0086-.0202-.014-.0652-.0431-.1303-.084-.1954-.1238-.0011 0-.0011-.0011-.0011-.0011-.0034-.0021-.0068-.0032-.009-.0054-.0606-.0365-.1224-.0731-.1841-.1076-.0157-.0086-.0303-.0172-.0449-.0247-.0494-.027-.0977-.0528-.146-.0786-.0191-.0097-.037-.0183-.0561-.028-.0247-.0129-.0506-.0248-.0753-.0366-.019-.0097-.0381-.0194-.0583-.0291-.0315-.015-.0629-.028-.0943-.043-.0214-.0097-.0438-.0205-.0652-.0291-.0089-.0043-.0179-.0086-.0269-.0118-.0618-.0269-.1235-.0517-.1841-.0754h-.0012c-.0022-.0011-.0056-.0021-.0078-.0032-.0595-.0226-.1179-.0441-.1763-.0635-.0078-.0032-.0168-.0054-.0247-.0075-.0224-.0076-.0449-.014-.0673-.0216-.0304-.0097-.0618-.0204-.0921-.029-.0157-.0043-.0326-.0086-.0483-.013-.0269-.0075-.055-.015-.0819-.0215-.0203-.0054-.0405-.0107-.0607-.0161-.0224-.0054-.0449-.0097-.0673-.014-.027-.0054-.0539-.0119-.0809-.0172-.0134-.0033-.028-.0065-.0415-.0087-.0258-.0053-.0517-.0075-.0775-.0118-.0314-.0054-.0629-.0108-.0932-.0151-.0101-.001-.0213-.0032-.0314-.0053-.0258-.0033-.0517-.0054-.0786-.0076-.0337-.0032-.0662-.0075-.0999-.0097-.009-.001-.0191-.0021-.0281-.0032-.0224-.0011-.0449-.0011-.0674-.0021-.0392-.0022-.0797-.0033-.119-.0033-.0101 0-.0213-.0011-.0314-.0011-.0168 0-.0337.0022-.0505.0022-.0494.0011-.0988.0032-.146.0065-.0146.001-.0292.001-.0438.0021-.0112.0011-.0213.0032-.0325.0043-.073.0075-.1449.0172-.2145.0302-.0067.001-.0134.001-.0202.0032-.0022 0-.0033.0011-.0056.0011-.0157.0032-.0314.0075-.046.0107-.0427.0097-.0853.0183-.128.0302-.0213.0053-.0427.0129-.0629.0193-.0269.0086-.0539.0151-.0808.0248-.0068.0021-.0135.0054-.0202.0075-.0416.0151-.082.0312-.1224.0485-.0202.0086-.0393.015-.0595.0236-.0595.027-.1168.0549-.1729.0862l-1.1138.621c.0023-.001.0057-.0021.0079-.0043-.8353.4607-1.354 1.4456-1.3585 2.8449l-.0034 1.3563-1.4977.8342-1.1227.6254c.0011-.0011.0034-.0011.0045-.0022l-.0045.0032c.0011 0 .0022-.001.0022-.001-.2425.1334-.3929.4198-.394.8266l-.0371 12.3871c-.0022.8181.5984 1.8148 1.3394 2.2249l10.4919 5.8071c.4087.2261.7736.2272 1.0206.0474-.0202.0151-.0416.0301-.064.042l2.7855-1.5522c.0404-.0226.0774-.0516.1134-.0828.0089-.0076.0168-.0151.0247-.0237.0336-.0334.0651-.0689.0931-.1098 0-.0011.0012-.0011.0012-.0011.0179-.028.0348-.057.0505-.0883.0011-.001.0011-.0021.0011-.0032.0023-.0032.0034-.0064.0045-.0108.009-.0193.018-.0387.0258-.0592.0045-.0107.0079-.0215.0113-.0322.0022-.0065.0044-.013.0067-.0194.0022-.0054.0045-.0108.0056-.0172.0067-.0216.0124-.0431.018-.0657.0022-.0075.0033-.0161.0045-.0248l.0033-.015c.0012-.0076.0034-.0151.0045-.0226.0034-.0205.0068-.0409.0101-.0614.0011-.0118.0023-.0237.0034-.0355 0-.0043.0011-.0086.0011-.0118.0011-.0044.0011-.0097.0011-.0151.0023-.0194.0034-.0398.0045-.0614.0012-.0204.0012-.0409.0012-.0624v-.0043l.037-12.3871c-.0045-.0172-.0056-.0366-.0056-.056zm-5.3801-5.1387-.0023.7341-4.7761-2.6436.0057-1.9698c0-.1065.0056-.2099.0157-.3089.0011-.0086.0022-.0183.0033-.0269.0102-.0915.0236-.1787.0405-.2626.0022-.0108.0045-.0226.0067-.0334.018-.0818.0393-.1593.0629-.2336.0045-.014.009-.028.0146-.042.0247-.071.0527-.1388.0831-.2034.0033-.0065.0056-.0129.0078-.0194.0359-.0732.0752-.141.1179-.2056.0067-.0097.0135-.0172.0202-.0269.0023-.0032.0056-.0064.0079-.0097.4311-.0333.9285.0861 1.4584.38 1.6223.8977 2.9382 3.0839 2.9337 4.8717z" fill="#12192d" opacity=".5"/><path d="m26.9687 36.0407c.738.426 1.3347 1.4585 1.3325 2.3062-.0011.4445-.1685.7477-.4326.8771l.7173 1.8508c.3424.8825-.0902 1.4879-.777 1.0923l-1.7118-.989c-.6869-.3967-1.114-1.4987-.7684-1.9846l.7249-1.0183c-.2619-.4326-.426-.9271-.4249-1.3716.0032-.8466.6032-1.189 1.34-.7629z" fill="#ff9600"/><path d="m28.0666 35.8961c.738.426 1.3347 1.4585 1.3325 2.3062-.0011.4445-.1685.7477-.4326.8771l.7173 1.8508c.3424.8825-.0902 1.4879-.777 1.0923l-1.7118-.9879c-.6869-.3967-1.114-1.4988-.7684-1.9846l.7249-1.0183c-.2619-.4326-.426-.9271-.4249-1.3716.0022-.8488.6021-1.1901 1.34-.764z" fill="#9e4000"/><path d="m28.0666 35.8961c.738.426 1.3347 1.4585 1.3325 2.3062-.0011.4445-.1685.7477-.4326.8771l.7173 1.8508c.3424.8825-.0902 1.4879-.777 1.0923l-1.7118-.9879c-.6869-.3967-1.114-1.4988-.7684-1.9846l.7249-1.0183c-.2619-.4326-.426-.9271-.4249-1.3716.0022-.8488.6021-1.1901 1.34-.764z" stroke="#02192d" stroke-linejoin="round" stroke-miterlimit="10" stroke-width=".2"/><path d="m32.3499 35.0829c.7194.4152 1.2998 1.4205 1.2965 2.2454l-.0358 12.5072c-.0022.826-.5869 1.1586-1.3053.7445l-10.1564-5.8635c-.7184-.4151-1.2999-1.4204-1.2966-2.2464l.0359-12.5072c.0021-.825.5879-1.1575 1.3053-.7434zm-4.5408 7.0839c.6869.3967 1.1194-.2097.7771-1.0922l-.7173-1.8509c.263-.1293.4304-.4325.4325-.8771.0022-.8477-.5945-1.8802-1.3324-2.3062-.738-.426-1.3368-.0837-1.3401.764-.0011.4445.163.939.425 1.3716l-.7249 1.0184c-.3457.4847.0815 1.5878.7683 1.9845z" fill="#ffe100"/><path d="m32.3499 35.0829c.7194.4152 1.2998 1.4205 1.2965 2.2454l-.0358 12.5072c-.0022.826-.5869 1.1586-1.3053.7445l-10.1564-5.8635c-.7184-.4151-1.2999-1.4204-1.2966-2.2464l.0359-12.5072c.0021-.825.5879-1.1575 1.3053-.7434zm-4.5408 7.0839c.6869.3967 1.1194-.2097.7771-1.0922l-.7173-1.8509c.263-.1293.4304-.4325.4325-.8771.0022-.8477-.5945-1.8802-1.3324-2.3062-.738-.426-1.3368-.0837-1.3401.764-.0011.4445.163.939.425 1.3716l-.7249 1.0184c-.3457.4847.0815 1.5878.7683 1.9845z" stroke="#02192d" stroke-miterlimit="10" stroke-width=".2"/><path d="m36.3417 35.7037c-.001-.0206-.0021-.0413-.0032-.063-.0011-.0098-.0022-.0196-.0022-.0294 0-.0043-.0011-.0086-.0011-.0119-.0011-.0076-.0011-.0141-.0022-.0217-.0021-.0207-.0043-.0424-.0076-.0642-.0021-.0217-.0054-.0434-.0097-.0652 0-.0011 0-.0011 0-.0022 0-.001 0-.0021 0-.0021-.0033-.0207-.0066-.0413-.0109-.0609-.0044-.0228-.0087-.0456-.0141-.0674-.0022-.0076-.0033-.0163-.0055-.0239-.0011-.0054-.0021-.0098-.0032-.0141-.0022-.0098-.0044-.0196-.0066-.0294-.0054-.0228-.0119-.0456-.0184-.0695-.0044-.0163-.0098-.0337-.0152-.05-.0011-.0033-.0022-.0065-.0033-.0098-.0011-.0032-.0011-.0054-.0022-.0087-.0065-.0228-.0141-.0445-.0217-.0674-.0076-.0217-.0152-.0445-.0228-.0663-.0011-.0043-.0033-.0087-.0044-.0119-.0011-.0033-.0022-.0065-.0032-.0098-.0055-.0141-.0098-.0272-.0153-.0413-.0087-.0206-.0163-.0424-.025-.063-.0065-.0152-.013-.0305-.0195-.0457-.0011-.0022-.0022-.0054-.0033-.0076-.0011-.0032-.0022-.0054-.0032-.0087-.0087-.0206-.0185-.0424-.0283-.063-.0109-.0228-.0217-.0457-.0337-.0685-.0022-.0032-.0033-.0065-.0054-.0109-.0022-.0043-.0044-.0087-.0065-.013-.0098-.0185-.0185-.0359-.0283-.0543-.012-.0229-.025-.0446-.038-.0674-.0066-.0109-.012-.0228-.0185-.0337-.0022-.0044-.0044-.0087-.0076-.0131-.0109-.0195-.0239-.038-.0359-.0565-.0174-.0282-.0348-.0565-.0522-.0837-.0032-.0043-.0054-.0087-.0087-.013-.0271-.0402-.0543-.0793-.0826-.1174-.0184-.0261-.038-.0511-.0576-.0761-.0163-.0206-.0326-.0402-.0489-.0608 0 0 0 0-.001-.0011 0 0 0 0 0-.0011-.0164-.0196-.0337-.0391-.05-.0587-.0163-.0185-.0337-.038-.0511-.0565-.0033-.0033-.0055-.0065-.0087-.0087-.0033-.0033-.0065-.0065-.0087-.0098-.012-.013-.0239-.025-.0359-.0369-.0185-.0185-.0358-.037-.0554-.0544-.0054-.0054-.012-.0108-.0174-.0163-.0043-.0043-.0087-.0076-.013-.0119-.0087-.0087-.0174-.0163-.0272-.025-.0185-.0174-.038-.0337-.0576-.0511-.0087-.0076-.0174-.0141-.0261-.0206-.0043-.0033-.0087-.0077-.013-.0109-.0066-.0055-.0131-.0109-.0185-.0152-.0196-.0152-.0381-.0294-.0576-.0435-.0141-.0098-.0283-.0196-.0424-.0294-.0022-.0021-.0054-.0032-.0076-.0054s-.0044-.0032-.0065-.0054c-.0185-.0131-.037-.025-.0555-.037-.0184-.0119-.0369-.0228-.0554-.0337-.0043-.0021-.0087-.0054-.013-.0076l-10.1564-5.8634c-.0142-.0076-.0272-.0152-.0413-.0228-.0174-.0098-.0359-.0185-.0533-.0272-.0119-.0054-.0228-.0109-.0348-.0163-.0021-.0011-.0054-.0022-.0087-.0043-.0032-.0011-.0065-.0033-.0097-.0044-.0174-.0076-.0348-.0152-.0522-.0217-.0174-.0076-.0348-.0142-.0522-.0196-.0032-.0011-.0054-.0022-.0087-.0033-.0021-.001-.0054-.0021-.0076-.0021-.0119-.0044-.0239-.0076-.0348-.012-.0184-.0054-.0358-.0109-.0532-.0152-.0087-.0022-.0174-.0043-.0261-.0054-.0033-.0011-.0076-.0011-.0109-.0022-.0054-.0011-.0108-.0022-.0163-.0033-.0195-.0043-.038-.0065-.0576-.0098-.0119-.001-.0228-.0021-.0347-.0032-.0044 0-.0077-.0011-.012-.0011s-.0076-.0011-.012-.0011c-.0206-.0011-.0413-.0022-.0608-.0022-.0087 0-.0174.0011-.0261.0011-.0065 0-.013.0011-.0207.0011-.0065 0-.0141 0-.0206.0011-.0261.0022-.0511.0054-.075.0109h-.0011c-.0054.0011-.0098.0032-.0152.0043-.025.0055-.05.012-.0739.0207-.0022.0011-.0033.0021-.0054.0021-.0348.0131-.0685.0283-.1.0457l-2.6964 1.5672c.0315-.0185.0652-.0337.0999-.0457.0261-.0097.0522-.0163.0794-.0228.0054-.0011.0098-.0032.0152-.0043.0315-.0065.0641-.0098.0978-.012.0065 0 .0131-.0011.0207-.0011.0326-.0011.0652-.0011.0989.0022.0043 0 .0076.0011.0119.0011.0359.0033.0718.0087.1076.0163.0033.0011.0076.0011.0109.0022.038.0087.0761.0184.1141.0315.0022.0011.0054.0022.0076.0022.0402.0141.0815.0304.1239.05.0022.001.0054.0021.0087.0043.0424.0196.0859.0413.1282.0663l10.1586 5.8623c.0446.025.087.0533.1304.0826.0022.0022.0055.0033.0077.0055.0402.0282.0793.0576.1184.0891.0044.0033.0087.0076.0131.0109.0369.0304.075.063.1108.0967.0044.0043.0087.0076.0131.012.0369.0347.0728.0706.1076.1075.0032.0033.0065.0066.0086.0098.0381.0402.075.0815.1098.125 0 0 0 0 .0011.0011.037.0446.0717.0891.1065.1359.0315.0423.062.0858.0902.1304.0185.0282.0359.0565.0533.0847.0141.0229.0293.0457.0424.0696.0065.0109.013.0228.0195.0337.0228.0402.0446.0804.0652.1206.0022.0044.0044.0087.0076.0142.025.05.0489.0999.0707.1499.0011.0033.0022.0055.0032.0087.0218.05.0413.1.0609.15.0011.0033.0022.0065.0044.0098.0184.0511.0358.1033.0521.1554.0011.0033.0011.0055.0022.0087.0152.05.0283.1.0402.15.0011.0043.0022.0087.0033.0141.0119.0511.0217.1033.0304.1533v.0021c.0076.0511.0141.1022.0185.1533 0 .0043.0011.0087.0011.013.0043.0511.0065.1011.0054.15l-.0359 12.5072c0 .05-.0021.0967-.0065.1435 0 .0043-.0011.0076-.0011.0119-.0043.0424-.0098.0826-.0174.1218-.001.0054-.0021.0108-.0032.0152-.0076.038-.0174.0739-.0283.1087-.0022.0065-.0043.013-.0065.0195-.0109.0326-.0228.0631-.0359.0924-.0011.0033-.0032.0076-.0043.0109-.0163.0337-.0326.0652-.0522.0934-.0272.0413-.0576.0783-.0902.112-.0076.0076-.0163.0163-.0239.0239-.0348.0315-.0706.0609-.1098.0837l2.6965-1.5672c.0391-.0229.0749-.0522.1097-.0837.0087-.0076.0163-.0152.0239-.0239.0326-.0337.0631-.0696.0902-.112l.0011-.0011c.0174-.0282.0337-.0576.0489-.0891.0011-.0011.0011-.0021.0011-.0032.0011-.0033.0033-.0066.0044-.0109.0087-.0196.0174-.0391.025-.0598.0043-.0108.0076-.0217.0108-.0326.0022-.0065.0044-.013.0066-.0195.0021-.0055.0043-.0109.0054-.0174.0065-.0218.0119-.0435.0174-.0663.0021-.0087.0032-.0163.0043-.025l.0033-.0152c.0011-.0077.0032-.0153.0043-.0229.0033-.0206.0066-.0413.0098-.0619.0011-.012.0022-.0239.0033-.0359 0-.0043.0011-.0087.0011-.0119 0-.0055.001-.0098.001-.0153.0022-.0195.0033-.0402.0044-.0619.0011-.0207.0011-.0413.0011-.063v-.0033l.0358-12.5072c.0011-.0217.0011-.0413 0-.0609z" fill="#ff9600"/><path d="m36.3417 35.7037c-.001-.0206-.0021-.0413-.0032-.063-.0011-.0098-.0022-.0196-.0022-.0294 0-.0043-.0011-.0086-.0011-.0119-.0011-.0076-.0011-.0141-.0022-.0217-.0021-.0207-.0043-.0424-.0076-.0642-.0021-.0217-.0054-.0434-.0097-.0652 0-.0011 0-.0011 0-.0022 0-.001 0-.0021 0-.0021-.0033-.0207-.0066-.0413-.0109-.0609-.0044-.0228-.0087-.0456-.0141-.0674-.0022-.0076-.0033-.0163-.0055-.0239-.0011-.0054-.0021-.0098-.0032-.0141-.0022-.0098-.0044-.0196-.0066-.0294-.0054-.0228-.0119-.0456-.0184-.0695-.0044-.0163-.0098-.0337-.0152-.05-.0011-.0033-.0022-.0065-.0033-.0098-.0011-.0032-.0011-.0054-.0022-.0087-.0065-.0228-.0141-.0445-.0217-.0674-.0076-.0217-.0152-.0445-.0228-.0663-.0011-.0043-.0033-.0087-.0044-.0119-.0011-.0033-.0022-.0065-.0032-.0098-.0055-.0141-.0098-.0272-.0153-.0413-.0087-.0206-.0163-.0424-.025-.063-.0065-.0152-.013-.0305-.0195-.0457-.0011-.0022-.0022-.0054-.0033-.0076-.0011-.0032-.0022-.0054-.0032-.0087-.0087-.0206-.0185-.0424-.0283-.063-.0109-.0228-.0217-.0457-.0337-.0685-.0022-.0032-.0033-.0065-.0054-.0109-.0022-.0043-.0044-.0087-.0065-.013-.0098-.0185-.0185-.0359-.0283-.0543-.012-.0229-.025-.0446-.038-.0674-.0066-.0109-.012-.0228-.0185-.0337-.0022-.0044-.0044-.0087-.0076-.0131-.0109-.0195-.0239-.038-.0359-.0565-.0174-.0282-.0348-.0565-.0522-.0837-.0032-.0043-.0054-.0087-.0087-.013-.0271-.0402-.0543-.0793-.0826-.1174-.0184-.0261-.038-.0511-.0576-.0761-.0163-.0206-.0326-.0402-.0489-.0608 0 0 0 0-.001-.0011 0 0 0 0 0-.0011-.0164-.0196-.0337-.0391-.05-.0587-.0163-.0185-.0337-.038-.0511-.0565-.0033-.0033-.0055-.0065-.0087-.0087-.0033-.0033-.0065-.0065-.0087-.0098-.012-.013-.0239-.025-.0359-.0369-.0185-.0185-.0358-.037-.0554-.0544-.0054-.0054-.012-.0108-.0174-.0163-.0043-.0043-.0087-.0076-.013-.0119-.0087-.0087-.0174-.0163-.0272-.025-.0185-.0174-.038-.0337-.0576-.0511-.0087-.0076-.0174-.0141-.0261-.0206-.0043-.0033-.0087-.0077-.013-.0109-.0066-.0055-.0131-.0109-.0185-.0152-.0196-.0152-.0381-.0294-.0576-.0435-.0141-.0098-.0283-.0196-.0424-.0294-.0022-.0021-.0054-.0032-.0076-.0054s-.0044-.0032-.0065-.0054c-.0185-.0131-.037-.025-.0555-.037-.0184-.0119-.0369-.0228-.0554-.0337-.0043-.0021-.0087-.0054-.013-.0076l-10.1564-5.8634c-.0142-.0076-.0272-.0152-.0413-.0228-.0174-.0098-.0359-.0185-.0533-.0272-.0119-.0054-.0228-.0109-.0348-.0163-.0021-.0011-.0054-.0022-.0087-.0043-.0032-.0011-.0065-.0033-.0097-.0044-.0174-.0076-.0348-.0152-.0522-.0217-.0174-.0076-.0348-.0142-.0522-.0196-.0032-.0011-.0054-.0022-.0087-.0033-.0021-.001-.0054-.0021-.0076-.0021-.0119-.0044-.0239-.0076-.0348-.012-.0184-.0054-.0358-.0109-.0532-.0152-.0087-.0022-.0174-.0043-.0261-.0054-.0033-.0011-.0076-.0011-.0109-.0022-.0054-.0011-.0108-.0022-.0163-.0033-.0195-.0043-.038-.0065-.0576-.0098-.0119-.001-.0228-.0021-.0347-.0032-.0044 0-.0077-.0011-.012-.0011s-.0076-.0011-.012-.0011c-.0206-.0011-.0413-.0022-.0608-.0022-.0087 0-.0174.0011-.0261.0011-.0065 0-.013.0011-.0207.0011-.0065 0-.0141 0-.0206.0011-.0261.0022-.0511.0054-.075.0109h-.0011c-.0054.0011-.0098.0032-.0152.0043-.025.0055-.05.012-.0739.0207-.0022.0011-.0033.0021-.0054.0021-.0348.0131-.0685.0283-.1.0457l-2.6964 1.5672c.0315-.0185.0652-.0337.0999-.0457.0261-.0097.0522-.0163.0794-.0228.0054-.0011.0098-.0032.0152-.0043.0315-.0065.0641-.0098.0978-.012.0065 0 .0131-.0011.0207-.0011.0326-.0011.0652-.0011.0989.0022.0043 0 .0076.0011.0119.0011.0359.0033.0718.0087.1076.0163.0033.0011.0076.0011.0109.0022.038.0087.0761.0184.1141.0315.0022.0011.0054.0022.0076.0022.0402.0141.0815.0304.1239.05.0022.001.0054.0021.0087.0043.0424.0196.0859.0413.1282.0663l10.1586 5.8623c.0446.025.087.0533.1304.0826.0022.0022.0055.0033.0077.0055.0402.0282.0793.0576.1184.0891.0044.0033.0087.0076.0131.0109.0369.0304.075.063.1108.0967.0044.0043.0087.0076.0131.012.0369.0347.0728.0706.1076.1075.0032.0033.0065.0066.0086.0098.0381.0402.075.0815.1098.125 0 0 0 0 .0011.0011.037.0446.0717.0891.1065.1359.0315.0423.062.0858.0902.1304.0185.0282.0359.0565.0533.0847.0141.0229.0293.0457.0424.0696.0065.0109.013.0228.0195.0337.0228.0402.0446.0804.0652.1206.0022.0044.0044.0087.0076.0142.025.05.0489.0999.0707.1499.0011.0033.0022.0055.0032.0087.0218.05.0413.1.0609.15.0011.0033.0022.0065.0044.0098.0184.0511.0358.1033.0521.1554.0011.0033.0011.0055.0022.0087.0152.05.0283.1.0402.15.0011.0043.0022.0087.0033.0141.0119.0511.0217.1033.0304.1533v.0021c.0076.0511.0141.1022.0185.1533 0 .0043.0011.0087.0011.013.0043.0511.0065.1011.0054.15l-.0359 12.5072c0 .05-.0021.0967-.0065.1435 0 .0043-.0011.0076-.0011.0119-.0043.0424-.0098.0826-.0174.1218-.0011.0054-.0021.0108-.0032.0152-.0076.038-.0174.0739-.0283.1087-.0022.0065-.0043.013-.0065.0195-.0109.0326-.0228.0631-.0359.0924-.0011.0033-.0032.0076-.0043.0109-.0163.0337-.0326.0652-.0522.0934-.0272.0413-.0576.0783-.0902.112-.0076.0076-.0163.0163-.0239.0239-.0348.0315-.0706.0609-.1098.0837l2.6965-1.5672c.0391-.0229.0749-.0522.1097-.0837.0087-.0076.0163-.0152.0239-.0239.0326-.0337.0631-.0696.0902-.112l.0011-.0011c.0174-.0282.0337-.0576.0489-.0891.0011-.0011.0011-.0021.0011-.0032.0011-.0033.0033-.0066.0044-.0109.0087-.0196.0174-.0391.025-.0598.0043-.0108.0076-.0217.0108-.0326.0022-.0065.0044-.013.0066-.0195.0021-.0055.0043-.0109.0054-.0174.0065-.0218.0119-.0435.0174-.0663.0021-.0087.0032-.0163.0043-.025l.0033-.0152c.0011-.0077.0032-.0153.0043-.0229.0033-.0206.0066-.0413.0098-.0619.0011-.012.0022-.0239.0033-.0359 0-.0043.0011-.0087.0011-.0119 0-.0055.001-.0098.001-.0153.0022-.0195.0033-.0402.0044-.0619.0011-.0207.0011-.0413.0011-.063v-.0033l.0358-12.5072c.0011-.0217.0011-.0413 0-.0609z" stroke="#02192d" stroke-linejoin="round" stroke-miterlimit="10" stroke-width=".2"/><path d="m36.0732 34.6897-2.7279 1.5031c-.0196-.038-.0413-.0761-.063-.1152-.0066-.0109-.012-.0228-.0185-.0337-.0141-.0228-.0294-.0456-.0424-.0684-.0185-.0294-.0348-.0566-.0533-.0837-.0293-.0446-.0597-.0891-.0902-.1315-.0347-.0457-.0706-.0924-.1076-.1359-.0369-.0424-.0739-.0837-.1097-.125-.0033-.0032-.0065-.0065-.0087-.0087-.0359-.0369-.0718-.0739-.1087-.1076-.0044-.0043-.0076-.0087-.012-.0119-.0369-.0337-.0728-.0652-.1119-.0967-.0033-.0044-.0076-.0077-.012-.0109-.038-.0326-.0782-.0609-.1173-.0902-.0033-.0022-.0066-.0033-.0076-.0044-.0424-.0293-.087-.0587-.1305-.0826l-10.1564-5.8634c-.0434-.0261-.0858-.0478-.1282-.0674l-.0087-.0043c-.0413-.0185-.0826-.0348-.1228-.0489-.0033-.0011-.0065-.0011-.0087-.0033-.0381-.012-.0761-.0228-.1141-.0326-.0033 0-.0066-.0011-.0109-.0011-.037-.0076-.0717-.0141-.1076-.0163-.0043 0-.0087-.0011-.012-.0011-.0336-.0032-.0673-.0032-.0999-.0011h-.0196c-.0337.0033-.0663.0066-.0978.0142-.0044 0-.0087.0032-.0152.0032-.0272.0065-.0533.0141-.0794.0228-.0347.0142-.0684.0272-.0989.0457l2.6964-1.565c.0305-.0185.0642-.0337.0989-.0479.0011 0 .0033-.0021.0066-.0021.0228-.0087.0489-.0153.0739-.0218.0065 0 .0108-.0032.0152-.0032l.0011-.0011c.0239-.0044.05-.0076.075-.0109h.0217c.0065-.0011.0141-.0011.0196-.0011.0087 0 .0184-.0011.0261-.0011.0195 0 .0413 0 .0608.0011.0044.0011.0076.0011.012.0011.0032 0 .0076.0022.0119.0022.0109.0011.0228.0011.0337.0032.0185.0033.0381.0066.0565.0087.0055.0011.012.0033.0163.0044.0044 0 .0076.0022.0109.0022.0098.0032.0185.0043.0261.0065.0185.0043.0369.0087.0532.0152.012.0033.024.0076.0348.0109.0033.0011.0065.0011.0087.0032.0033.0011.0065.0011.0098.0033.0163.0065.0337.0119.0522.0195.0163.0066.0337.0142.0521.0218.0033.0011.0066.0032.0087.0043.0033.0011.0065.0033.0087.0044.0109.0043.0228.0108.0337.0174.0185.0076.0348.0163.0533.0271.0141.0066.0271.0142.0413.0229l10.1564 5.8634c.0032.0011.0076.0043.0119.0076.0185.0109.037.0217.0555.0337.0184.012.0369.0228.0554.037.0032.001.0043.0032.0076.0043.0011.0011.0043.0033.0076.0065.0141.0087.0272.0185.0413.0294.0196.0141.038.0293.0587.0445.0065.0044.0119.0087.0185.0152.0043.0033.0087.0066.0119.0109.0087.0065.0185.0141.0261.0196.0196.0163.0391.0337.0587.05.0087.0087.0185.0163.0272.026.0043.0033.0076.0077.0119.012.0065.0044.012.0109.0185.0152l.0554.0554c.0109.012.0228.025.0348.037.0033.0033.0065.0065.0087.0098.0033.0032.0065.0065.0076.0087.0185.0185.0348.038.0522.0565.0163.0196.0337.038.0489.0587l.0021.0011c.0164.0195.0316.0402.049.0608.0195.025.038.0489.0586.075.0272.0381.0555.0783.0826.1174.0022.0043.0044.0087.0077.0141.0184.0272.0358.0555.0521.0826.012.0196.0239.0381.037.0587.0011.0033.0043.0076.0076.012.0065.0108.0119.0228.0185.0337.0119.0228.026.0445.038.0673.0087.0185.0185.037.0272.0533.0021.0043.0043.0087.0065.0141.0032.0044.0043.0076.0065.0109.0022.0065.0076.0185.0141.0293z" fill="#fa0"/><path d="m36.0732 34.6897-2.7279 1.5031c-.0196-.038-.0413-.0761-.063-.1152-.0066-.0109-.012-.0228-.0185-.0337-.0141-.0228-.0294-.0456-.0424-.0684-.0185-.0294-.0348-.0566-.0533-.0837-.0293-.0446-.0597-.0891-.0902-.1315-.0347-.0457-.0706-.0924-.1076-.1359-.0369-.0424-.0739-.0837-.1097-.125-.0033-.0032-.0065-.0065-.0087-.0087-.0359-.0369-.0718-.0739-.1087-.1076-.0044-.0043-.0076-.0087-.012-.0119-.0369-.0337-.0728-.0652-.1119-.0967-.0033-.0044-.0076-.0077-.012-.0109-.038-.0326-.0782-.0609-.1173-.0902-.0033-.0022-.0066-.0033-.0076-.0044-.0424-.0293-.087-.0587-.1305-.0826l-10.1564-5.8634c-.0434-.0261-.0858-.0478-.1282-.0674l-.0087-.0043c-.0413-.0185-.0826-.0348-.1228-.0489-.0033-.0011-.0065-.0011-.0087-.0033-.0381-.012-.0761-.0228-.1141-.0326-.0033 0-.0066-.0011-.0109-.0011-.037-.0076-.0717-.0141-.1076-.0163-.0043 0-.0087-.0011-.012-.0011-.0336-.0032-.0673-.0032-.0999-.0011h-.0196c-.0337.0033-.0663.0066-.0978.0142-.0044 0-.0087.0032-.0152.0032-.0272.0065-.0533.0141-.0794.0228-.0347.0142-.0684.0272-.0989.0457l2.6964-1.565c.0305-.0185.0642-.0337.0989-.0479.0011 0 .0033-.0021.0066-.0021.0228-.0087.0489-.0153.0739-.0218.0065 0 .0108-.0032.0152-.0032l.0011-.0011c.0239-.0044.05-.0076.075-.0109h.0217c.0065-.0011.0141-.0011.0196-.0011.0087 0 .0184-.0011.0261-.0011.0195 0 .0413 0 .0608.0011.0044.0011.0076.0011.012.0011.0032 0 .0076.0022.0119.0022.0109.0011.0228.0011.0337.0032.0185.0033.0381.0066.0565.0087.0055.0011.012.0033.0163.0044.0044 0 .0076.0022.0109.0022.0098.0032.0185.0043.0261.0065.0185.0043.0369.0087.0532.0152.012.0033.024.0076.0348.0109.0033.0011.0065.0011.0087.0032.0033.0011.0065.0011.0098.0033.0163.0065.0337.0119.0522.0195.0163.0066.0337.0142.0521.0218.0033.0011.0066.0032.0087.0043.0033.0011.0065.0033.0087.0044.0109.0043.0228.0108.0337.0174.0185.0076.0348.0163.0533.0271.0141.0066.0271.0142.0413.0229l10.1564 5.8634c.0032.0011.0076.0043.0119.0076.0185.0109.037.0217.0555.0337.0184.012.0369.0228.0554.037.0032.001.0043.0032.0076.0043.0011.0011.0043.0033.0076.0065.0141.0087.0272.0185.0413.0294.0196.0141.038.0293.0587.0445.0065.0044.0119.0087.0185.0152.0043.0033.0087.0066.0119.0109.0087.0065.0185.0141.0261.0196.0196.0163.0391.0337.0587.05.0087.0087.0185.0163.0272.026.0043.0033.0076.0077.0119.012.0065.0044.012.0109.0185.0152l.0554.0554c.0109.012.0228.025.0348.037.0033.0033.0065.0065.0087.0098.0033.0032.0065.0065.0076.0087.0185.0185.0348.038.0522.0565.0163.0196.0337.038.0489.0587l.0021.0011c.0164.0195.0316.0402.049.0608.0195.025.038.0489.0586.075.0272.0381.0555.0783.0826.1174.0022.0043.0044.0087.0077.0141.0184.0272.0358.0555.0521.0826.012.0196.0239.0381.037.0587.0011.0033.0043.0076.0076.012.0065.0108.0119.0228.0185.0337.0119.0228.026.0445.038.0673.0087.0185.0185.037.0272.0533.0021.0043.0043.0087.0065.0141.0032.0044.0043.0076.0065.0109.0022.0065.0076.0185.0141.0293z" stroke="#02192d" stroke-miterlimit="10" stroke-width=".2"/><path d="m26.5319 26.2601c.0098-.0913.0218-.1804.0392-.2652.0021-.0109.0043-.0228.0065-.0337.0174-.0826.038-.1608.0608-.2358.0044-.0142.0098-.0283.0142-.0424.0239-.0718.051-.1402.0804-.2054.0033-.0066.0054-.0131.0076-.0196.0348-.0739.0728-.1424.1141-.2076.0065-.0098.0131-.0174.0196-.0272.0348-.051.0706-.0989.1087-.1434.0141-.0163.0293-.0326.0445-.0489.0348-.037.0696-.0707.1065-.1033.0152-.013.0305-.0271.0468-.0402.0521-.0424.1076-.0815.1652-.1152l-1.0782.6271c-.0576.0337-.1119.0728-.1652.1152-.0163.0131-.0304.0261-.0467.0402-.037.0326-.0728.0663-.1065.1033-.0152.0163-.0294.0315-.0446.0489-.038.0445-.075.0924-.1087.1434-.0065.0098-.013.0174-.0195.0272-.0011.0022-.0033.0044-.0044.0065-.0391.0609-.075.1261-.1076.1957-.001.0021-.001.0043-.0021.0054-.0033.0065-.0055.013-.0076.0196-.0207.0445-.0403.0891-.0576.1369-.0087.0217-.0153.0457-.0229.0685-.0043.0141-.0098.0271-.0141.0424-.0043.013-.0087.026-.013.0391-.0142.0467-.0261.0956-.0381.1456-.0043.0174-.0065.0348-.0108.0522-.0022.0109-.0044.0228-.0066.0337-.0032.0174-.0076.0348-.0108.0532-.0076.0446-.0142.0892-.0207.1359-.0032.025-.0054.0511-.0076.0772-.0011.0087-.0022.0184-.0033.0271-.001.0109-.0021.0218-.0032.0326-.0033.0435-.0065.0881-.0087.1337-.0022.0446-.0033.0902-.0033.137v.0086l-.0087 3.054 1.0782-.6271.0087-3.054c0-.1075.0054-.2119.0152-.3119.0022-.0119.0032-.0206.0043-.0293z" fill="#d6d6d6"/><path d="m26.5319 26.2601c.0098-.0913.0218-.1804.0392-.2652.0021-.0109.0043-.0228.0065-.0337.0174-.0826.038-.1608.0608-.2358.0044-.0142.0098-.0283.0142-.0424.0239-.0718.051-.1402.0804-.2054.0033-.0066.0054-.0131.0076-.0196.0348-.0739.0728-.1424.1141-.2076.0065-.0098.0131-.0174.0196-.0272.0348-.051.0706-.0989.1087-.1434.0141-.0163.0293-.0326.0445-.0489.0348-.037.0696-.0707.1065-.1033.0152-.013.0305-.0271.0468-.0402.0521-.0424.1076-.0815.1652-.1152l-1.0782.6271c-.0576.0337-.1119.0728-.1652.1152-.0163.0131-.0304.0261-.0467.0402-.037.0326-.0728.0663-.1065.1033-.0152.0163-.0294.0315-.0446.0489-.038.0445-.075.0924-.1087.1434-.0065.0098-.013.0174-.0195.0272-.0011.0022-.0033.0044-.0044.0065-.0391.0609-.075.1261-.1076.1957-.001.0021-.001.0043-.0021.0054-.0033.0065-.0055.013-.0076.0196-.0207.0445-.0403.0891-.0576.1369-.0087.0217-.0153.0457-.0229.0685-.0043.0141-.0098.0271-.0141.0424-.0043.013-.0087.026-.013.0391-.0142.0467-.0261.0956-.0381.1456-.0043.0174-.0065.0348-.0108.0522-.0022.0109-.0044.0228-.0066.0337-.0032.0174-.0076.0348-.0108.0532-.0076.0446-.0142.0892-.0207.1359-.0032.025-.0054.0511-.0076.0772-.0011.0087-.0022.0184-.0033.0271-.001.0109-.0021.0218-.0032.0326-.0033.0435-.0065.0881-.0087.1337-.0022.0446-.0033.0902-.0033.137v.0086l-.0087 3.054 1.0782-.6271.0087-3.054c0-.1075.0054-.2119.0152-.3119.0022-.0119.0032-.0206.0043-.0293z" stroke="#02192d" stroke-miterlimit="10" stroke-width=".2"/><path d="m33.8365 30.627c0-.013-.0011-.0261-.0022-.038-.0011-.0272-.0022-.0544-.0033-.0815-.001-.0315-.0021-.0631-.0043-.0957-.0011-.025-.0044-.05-.0054-.075-.0022-.0282-.0044-.0576-.0066-.0858-.0021-.0185-.0021-.037-.0043-.0565-.0044-.0424-.0087-.0837-.0141-.1261-.0033-.0228-.0055-.0467-.0076-.0696-.0011-.0076-.0022-.0152-.0022-.0228-.0098-.075-.0196-.15-.0315-.225 0-.0021-.0011-.0043-.0011-.0065-.0022-.0119-.0044-.025-.0065-.038-.0098-.0609-.0196-.1207-.0316-.1815-.0021-.012-.0054-.0239-.0076-.0359-.0054-.0304-.0119-.0598-.0184-.0902-.0077-.0359-.0142-.0717-.0218-.1076-.0043-.0206-.0098-.0424-.0152-.063-.0076-.0326-.0152-.0652-.0228-.0978-.0055-.025-.0109-.0489-.0174-.0739-.0076-.0305-.0163-.062-.0239-.0924-.0087-.0326-.0174-.0652-.0261-.0978-.0044-.0153-.0076-.0316-.012-.0468-.0119-.0445-.025-.088-.038-.1326-.0076-.0271-.0152-.0543-.0239-.0826-.0022-.0076-.0044-.0152-.0065-.0217-.0239-.0772-.0489-.1543-.0739-.2315-.0011-.0011-.0011-.0022-.0011-.0043-.0033-.0098-.0065-.0196-.0098-.0294-.0217-.0652-.0446-.1304-.0674-.1945-.0043-.0109-.0087-.0229-.013-.0337-.0098-.0261-.0196-.0522-.0294-.0783-.013-.0358-.0261-.0717-.0402-.1076-.0098-.0239-.0195-.0478-.0293-.0717-.0109-.0283-.0229-.0565-.0348-.0859-.0087-.0206-.0163-.0402-.025-.0608-.0174-.0413-.0359-.0837-.0533-.125-.0097-.0217-.0184-.0446-.0282-.0663-.0033-.0076-.0065-.0152-.0098-.0228-.0315-.0728-.0652-.1446-.0989-.2163-.0011-.0033-.0033-.0065-.0043-.0098-.0098-.0217-.0207-.0424-.0305-.063-.0261-.0544-.0521-.1098-.0793-.1641-.0044-.0087-.0087-.0174-.0131-.0261-.0228-.0457-.0467-.0902-.0695-.1348-.0185-.0358-.037-.0728-.0554-.1076-.0033-.0065-.0077-.013-.0109-.0195-.063-.1163-.1272-.2315-.1935-.3457-.0054-.0097-.0108-.0195-.0163-.0293-.0065-.0109-.0141-.0217-.0206-.0326-.0957-.1609-.1946-.3195-.2978-.4749-.0054-.0087-.0109-.0174-.0163-.0261-.0098-.0142-.0196-.0272-.0294-.0413-.0826-.1218-.1662-.2424-.2532-.3609 0-.001-.0011-.001-.0011-.0021-.0087-.012-.0185-.0239-.0271-.0359-.0533-.0706-.1066-.1413-.1609-.2108-.0033-.0044-.0065-.0087-.0098-.0131-.0424-.0543-.0858-.1076-.1293-.1608-.0131-.0163-.0261-.0326-.0402-.0489-.0011-.0011-.0022-.0022-.0033-.0033-.0565-.0685-.1152-.1359-.1728-.2021-.0022-.0022-.0054-.0055-.0076-.0077-.0174-.0195-.0337-.038-.0511-.0565-.0391-.0434-.0771-.0869-.1163-.1282-.0065-.0065-.013-.0141-.0195-.0207-.025-.0271-.0511-.0532-.0761-.0793-.0294-.0304-.0576-.062-.087-.0913-.0097-.0109-.0206-.0207-.0304-.0304-.0272-.0283-.0554-.0544-.0826-.0815-.025-.025-.05-.05-.075-.0739-.013-.0131-.0271-.025-.0402-.0381-.0304-.0282-.0609-.0565-.0913-.0848-.0217-.0195-.0435-.0413-.0652-.0608-.0163-.0152-.0326-.0283-.0489-.0424-.0304-.0272-.0609-.0543-.0924-.0804-.0195-.0163-.038-.0337-.0576-.05-.0195-.0163-.0402-.0326-.0598-.0489-.0304-.025-.0597-.0489-.0902-.0739-.0163-.0131-.0326-.0272-.0489-.0392-.025-.0195-.0511-.0391-.076-.0587-.0283-.0217-.0555-.0434-.0837-.0641-.012-.0087-.0239-.0185-.0359-.0271-.0348-.025-.0685-.049-.1032-.074-.024-.0163-.0479-.0347-.0718-.051-.0065-.0044-.013-.0098-.0195-.0142-.0631-.0434-.1261-.0847-.1891-.1249-.0011 0-.0011-.0011-.0011-.0011-.0033-.0022-.0066-.0033-.0087-.0055-.0587-.0369-.1185-.0739-.1783-.1086-.0152-.0087-.0293-.0174-.0434-.0261-.0479-.0272-.0946-.0533-.1413-.0794-.0185-.0098-.0359-.0184-.0544-.0282-.0239-.0131-.0478-.025-.0728-.0381-.0185-.0097-.0369-.0195-.0565-.0293-.0304-.0152-.0609-.0283-.0913-.0435-.0206-.0098-.0424-.0206-.063-.0293-.0087-.0044-.0174-.0087-.0261-.012-.0598-.0272-.1196-.0522-.1783-.0761h-.001c-.0033-.001-.0055-.0021-.0087-.0032-.0576-.0228-.1142-.0446-.1707-.0641-.0087-.0033-.0163-.0055-.025-.0077-.0217-.0076-.0434-.0141-.0652-.0217-.0293-.0098-.0598-.0206-.0891-.0293-.0152-.0044-.0304-.0087-.0467-.0131-.0261-.0076-.0522-.0152-.0794-.0217-.0195-.0054-.0402-.012-.0587-.0163-.0217-.0055-.0434-.0098-.0652-.0141-.0261-.0055-.0521-.012-.0782-.0174-.0131-.0033-.0272-.0066-.0402-.0087-.025-.0044-.05-.0076-.075-.012-.0305-.0054-.0609-.0109-.0902-.0152-.0098-.0011-.0207-.0033-.0305-.0054-.025-.0033-.05-.0044-.075-.0076-.0326-.0033-.0652-.0076-.0967-.0098-.0087-.0011-.0185-.0022-.0272-.0033-.0217-.0011-.0434-.0011-.0652-.0022-.0391-.0021-.0771-.0032-.1152-.0032-.0097 0-.0206-.0011-.0304-.0011-.0163 0-.0326.0022-.0489.0022-.0478.0011-.0956.0032-.1413.0065-.0141.0011-.0282.0011-.0424.0022-.0108.0011-.0206.0032-.0315.0043-.0706.0076-.1402.0174-.2076.0304-.0065.0011-.013.0011-.0195.0033-.0022 0-.0033.0011-.0055.0011-.0152.0033-.0304.0076-.0445.0109-.0413.0097-.0826.0184-.1239.0304-.0207.0054-.0413.013-.0609.0196-.0261.0086-.0522.0152-.0782.0249-.0066.0022-.0131.0055-.0196.0077-.0402.0152-.0793.0315-.1196.0489-.0184.0087-.038.0152-.0565.0239-.0576.0271-.113.0554-.1673.0869l-1.0782.6271c.0544-.0315.1109-.0608.1674-.0869.0185-.0087.038-.0163.0576-.0239.0391-.0174.0782-.0337.1185-.0489.0326-.012.0652-.0229.0978-.0326.0206-.0066.0402-.0131.0608-.0196.0402-.012.0815-.0217.1239-.0304.0152-.0033.0305-.0076.0457-.0109.0087-.0022.0174-.0022.025-.0044.0674-.013.1369-.0228.2076-.0304.0239-.0022.0489-.0043.0728-.0065.0467-.0033.0934-.0054.1413-.0065.026 0 .0532-.0011.0793-.0011.038 0 .0761.0022.1152.0032.0304.0011.0609.0022.0924.0055.0315.0022.0641.0065.0967.0098.0348.0043.0707.0076.1065.013.0305.0043.0598.0098.0902.0152.0381.0065.0761.0131.1152.0218.0261.0054.0522.0119.0783.0173.0413.0098.0826.0196.1239.0305.0261.0076.0522.0141.0793.0217.0446.0131.0902.0272.1359.0413.0217.0076.0434.0141.0652.0217.0641.0229.1293.0457.1945.0718.0033.0011.0055.0022.0087.0032.0674.0272.137.0566.2054.0881.0218.0098.0424.0195.0642.0304.0489.0228.0978.0467.1467.0717.0239.012.0478.025.0728.0381.0652.0347.1304.0695.1956.1076.0739.0424.1478.088.2206.1336.0033.0022.0066.0044.0098.0066.0707.0445.1402.0913.2098.1391.0239.0163.0478.0337.0717.0511.0468.0326.0924.0663.1391.1.0283.0206.0565.0423.0837.0641.0413.0315.0837.0641.125.0978.0304.0239.0598.0489.0902.0739.0391.0326.0783.0652.1174.0989.0304.0261.0619.0532.0924.0804.038.0337.076.0685.1141.1033.0304.0282.0608.0565.0913.0847.038.0359.0771.0739.1152.1109.0282.0272.0554.0543.0837.0826.0391.0402.0782.0804.1173.1217.025.0261.0511.0533.0761.0794.0457.0489.0913.0989.1359.1489.0174.0184.0348.038.0511.0565.0619.0706.1228.1413.1836.2141.0131.0152.025.0315.0381.0467.0478.0576.0945.1163.1413.175.0543.0695.1076.1402.1608.2119.0098.0131.0196.025.0294.0381.0869.1173.1706.238.2532.3608.0152.0228.0304.0445.0456.0674.1033.1554.2022.3141.2978.4749.012.0207.025.0413.037.062.0663.1141.1315.2293.1934.3456.0229.0424.0446.0847.0674.1282.0228.0446.0467.0891.0696.1348.0326.0641.063.1282.0934.1924.0098.0206.0196.0402.0294.0608.0391.0826.0761.1663.113.25.0098.0217.0185.0435.0283.0652.0271.0619.0532.1239.0782.1869.012.0283.0228.0565.0348.0859.0239.0598.0467.1195.0696.1793.0097.0261.0195.0522.0293.0783.0283.0771.0554.1532.0815.2304.0033.0087.0065.0185.0098.0271.0283.0859.0565.1718.0826.2587.0087.0272.0163.0544.0239.0815.0174.0598.0348.1196.0511.1804.0087.0326.0174.0652.025.0968.0141.0554.0282.1108.0413.1673.0076.0326.0152.0652.0228.0978.013.0577.025.1142.037.1707.0065.0304.0119.0598.0184.0902.0142.0728.0272.1456.0392.2195.0021.012.0043.0239.0065.0359.013.0848.025.1695.0358.2532.0033.0239.0055.0468.0077.0707.0065.0608.013.1217.0184.1815.0022.0282.0044.0576.0065.0858.0044.0565.0077.1141.0098.1707.0011.0271.0033.0543.0044.0815.0032.0804.0043.1608.0043.2402l-.0087 3.0539 1.0782-.6271.0087-3.0539c-.0066-.0685-.0077-.1359-.0098-.2033z" fill="#bababa"/><path d="m33.8365 30.627c0-.013-.0011-.0261-.0022-.038-.0011-.0272-.0022-.0544-.0033-.0815-.001-.0315-.0021-.0631-.0043-.0957-.0011-.025-.0044-.05-.0054-.075-.0022-.0282-.0044-.0576-.0066-.0858-.0021-.0185-.0021-.037-.0043-.0565-.0044-.0424-.0087-.0837-.0141-.1261-.0033-.0228-.0055-.0467-.0076-.0696-.0011-.0076-.0022-.0152-.0022-.0228-.0098-.075-.0196-.15-.0315-.225 0-.0021-.0011-.0043-.0011-.0065-.0022-.0119-.0044-.025-.0065-.038-.0098-.0609-.0196-.1207-.0316-.1815-.0021-.012-.0054-.0239-.0076-.0359-.0054-.0304-.0119-.0598-.0184-.0902-.0077-.0359-.0142-.0717-.0218-.1076-.0043-.0206-.0098-.0424-.0152-.063-.0076-.0326-.0152-.0652-.0228-.0978-.0055-.025-.0109-.0489-.0174-.0739-.0076-.0305-.0163-.062-.0239-.0924-.0087-.0326-.0174-.0652-.0261-.0978-.0044-.0153-.0076-.0316-.012-.0468-.0119-.0445-.025-.088-.038-.1326-.0076-.0271-.0152-.0543-.0239-.0826-.0022-.0076-.0044-.0152-.0065-.0217-.0239-.0772-.0489-.1543-.0739-.2315-.0011-.0011-.0011-.0022-.0011-.0043-.0033-.0098-.0065-.0196-.0098-.0294-.0217-.0652-.0446-.1304-.0674-.1945-.0043-.0109-.0087-.0229-.013-.0337-.0098-.0261-.0196-.0522-.0294-.0783-.013-.0358-.0261-.0717-.0402-.1076-.0098-.0239-.0195-.0478-.0293-.0717-.0109-.0283-.0229-.0565-.0348-.0859-.0087-.0206-.0163-.0402-.025-.0608-.0174-.0413-.0359-.0837-.0533-.125-.0097-.0217-.0184-.0446-.0282-.0663-.0033-.0076-.0065-.0152-.0098-.0228-.0315-.0728-.0652-.1446-.0989-.2163-.0011-.0033-.0033-.0065-.0043-.0098-.0098-.0217-.0207-.0424-.0305-.063-.0261-.0544-.0521-.1098-.0793-.1641-.0044-.0087-.0087-.0174-.0131-.0261-.0228-.0457-.0467-.0902-.0695-.1348-.0185-.0358-.037-.0728-.0554-.1076-.0033-.0065-.0077-.013-.0109-.0195-.063-.1163-.1272-.2315-.1935-.3457-.0054-.0097-.0108-.0195-.0163-.0293-.0065-.0109-.0141-.0217-.0206-.0326-.0957-.1609-.1946-.3195-.2978-.4749-.0054-.0087-.0109-.0174-.0163-.0261-.0098-.0142-.0196-.0272-.0294-.0413-.0826-.1218-.1662-.2424-.2532-.3609 0-.001-.0011-.001-.0011-.0021-.0087-.012-.0185-.0239-.0271-.0359-.0533-.0706-.1066-.1413-.1609-.2108-.0033-.0044-.0065-.0087-.0098-.0131-.0424-.0543-.0858-.1076-.1293-.1608-.0131-.0163-.0261-.0326-.0402-.0489-.0011-.0011-.0022-.0022-.0033-.0033-.0565-.0685-.1152-.1359-.1728-.2021-.0022-.0022-.0054-.0055-.0076-.0077-.0174-.0195-.0337-.038-.0511-.0565-.0391-.0434-.0771-.0869-.1163-.1282-.0065-.0065-.013-.0141-.0195-.0207-.025-.0271-.0511-.0532-.0761-.0793-.0294-.0304-.0576-.062-.087-.0913-.0097-.0109-.0206-.0207-.0304-.0304-.0272-.0283-.0554-.0544-.0826-.0815-.025-.025-.05-.05-.075-.0739-.013-.0131-.0271-.025-.0402-.0381-.0304-.0282-.0609-.0565-.0913-.0848-.0217-.0195-.0435-.0413-.0652-.0608-.0163-.0152-.0326-.0283-.0489-.0424-.0304-.0272-.0609-.0543-.0924-.0804-.0195-.0163-.038-.0337-.0576-.05-.0195-.0163-.0402-.0326-.0598-.0489-.0304-.025-.0597-.0489-.0902-.0739-.0163-.0131-.0326-.0272-.0489-.0392-.025-.0195-.0511-.0391-.076-.0587-.0283-.0217-.0555-.0434-.0837-.0641-.012-.0087-.0239-.0185-.0359-.0271-.0348-.025-.0685-.049-.1032-.074-.024-.0163-.0479-.0347-.0718-.051-.0065-.0044-.013-.0098-.0195-.0142-.0631-.0434-.1261-.0847-.1891-.1249-.0011 0-.0011-.0011-.0011-.0011-.0033-.0022-.0066-.0033-.0087-.0055-.0587-.0369-.1185-.0739-.1783-.1086-.0152-.0087-.0293-.0174-.0434-.0261-.0479-.0272-.0946-.0533-.1413-.0794-.0185-.0098-.0359-.0184-.0544-.0282-.0239-.0131-.0478-.025-.0728-.0381-.0185-.0097-.0369-.0195-.0565-.0293-.0304-.0152-.0609-.0283-.0913-.0435-.0206-.0098-.0424-.0206-.063-.0293-.0087-.0044-.0174-.0087-.0261-.012-.0598-.0272-.1196-.0522-.1783-.0761h-.001c-.0033-.001-.0055-.0021-.0087-.0032-.0576-.0228-.1142-.0446-.1707-.0641-.0087-.0033-.0163-.0055-.025-.0077-.0217-.0076-.0434-.0141-.0652-.0217-.0293-.0098-.0598-.0206-.0891-.0293-.0152-.0044-.0304-.0087-.0467-.0131-.0261-.0076-.0522-.0152-.0794-.0217-.0195-.0054-.0402-.012-.0587-.0163-.0217-.0055-.0434-.0098-.0652-.0141-.0261-.0055-.0521-.012-.0782-.0174-.0131-.0033-.0272-.0066-.0402-.0087-.025-.0044-.05-.0076-.075-.012-.0305-.0054-.0609-.0109-.0902-.0152-.0098-.0011-.0207-.0033-.0305-.0054-.025-.0033-.05-.0044-.075-.0076-.0326-.0033-.0652-.0076-.0967-.0098-.0087-.0011-.0185-.0022-.0272-.0033-.0217-.0011-.0434-.0011-.0652-.0022-.0391-.0021-.0771-.0032-.1152-.0032-.0097 0-.0206-.0011-.0304-.0011-.0163 0-.0326.0022-.0489.0022-.0478.0011-.0956.0032-.1413.0065-.0141.0011-.0282.0011-.0424.0022-.0108.0011-.0206.0032-.0315.0043-.0706.0076-.1402.0174-.2076.0304-.0065.0011-.013.0011-.0195.0033-.0022 0-.0033.0011-.0055.0011-.0152.0033-.0304.0076-.0445.0109-.0413.0097-.0826.0184-.1239.0304-.0207.0054-.0413.013-.0609.0196-.0261.0086-.0522.0152-.0782.0249-.0066.0022-.0131.0055-.0196.0077-.0402.0152-.0793.0315-.1196.0489-.0184.0087-.038.0152-.0565.0239-.0576.0271-.113.0554-.1673.0869l-1.0782.6271c.0544-.0315.1109-.0608.1674-.0869.0185-.0087.038-.0163.0576-.0239.0391-.0174.0782-.0337.1185-.0489.0326-.012.0652-.0229.0978-.0326.0206-.0066.0402-.0131.0608-.0196.0402-.012.0815-.0217.1239-.0304.0152-.0033.0305-.0076.0457-.0109.0087-.0022.0174-.0022.025-.0044.0674-.013.1369-.0228.2076-.0304.0239-.0022.0489-.0043.0728-.0065.0467-.0033.0934-.0054.1413-.0065.026 0 .0532-.0011.0793-.0011.038 0 .0761.0022.1152.0032.0304.0011.0609.0022.0924.0055.0315.0022.0641.0065.0967.0098.0348.0043.0707.0076.1065.013.0305.0043.0598.0098.0902.0152.0381.0065.0761.0131.1152.0218.0261.0054.0522.0119.0783.0173.0413.0098.0826.0196.1239.0305.0261.0076.0522.0141.0793.0217.0446.0131.0902.0272.1359.0413.0217.0076.0434.0141.0652.0217.0641.0229.1293.0457.1945.0718.0033.0011.0055.0022.0087.0032.0674.0272.137.0566.2054.0881.0218.0098.0424.0195.0642.0304.0489.0228.0978.0467.1467.0717.0239.012.0478.025.0728.0381.0652.0347.1304.0695.1956.1076.0739.0424.1478.088.2206.1336.0033.0022.0066.0044.0098.0066.0707.0445.1402.0913.2098.1391.0239.0163.0478.0337.0717.0511.0468.0326.0924.0663.1391.1.0283.0206.0565.0423.0837.0641.0413.0315.0837.0641.125.0978.0304.0239.0598.0489.0902.0739.0391.0326.0783.0652.1174.0989.0304.0261.0619.0532.0924.0804.038.0337.076.0685.1141.1033.0304.0282.0608.0565.0913.0847.038.0359.0771.0739.1152.1109.0282.0272.0554.0543.0837.0826.0391.0402.0782.0804.1173.1217.025.0261.0511.0533.0761.0794.0457.0489.0913.0989.1359.1489.0174.0184.0348.038.0511.0565.0619.0706.1228.1413.1836.2141.0131.0152.025.0315.0381.0467.0478.0576.0945.1163.1413.175.0543.0695.1076.1402.1608.2119.0098.0131.0196.025.0294.0381.0869.1173.1706.238.2532.3608.0152.0228.0304.0445.0456.0674.1033.1554.2022.3141.2978.4749.012.0207.025.0413.037.062.0663.1141.1315.2293.1934.3456.0229.0424.0446.0847.0674.1282.0228.0446.0467.0891.0696.1348.0326.0641.063.1282.0934.1924.0098.0206.0196.0402.0294.0608.0391.0826.0761.1663.113.25.0098.0217.0185.0435.0283.0652.0271.0619.0532.1239.0782.1869.012.0283.0228.0565.0348.0859.0239.0598.0467.1195.0696.1793.0097.0261.0195.0522.0293.0783.0283.0771.0554.1532.0815.2304.0033.0087.0065.0185.0098.0271.0283.0859.0565.1718.0826.2587.0087.0272.0163.0544.0239.0815.0174.0598.0348.1196.0511.1804.0087.0326.0174.0652.025.0968.0141.0554.0282.1108.0413.1673.0076.0326.0152.0652.0228.0978.013.0577.025.1142.037.1707.0065.0304.0119.0598.0184.0902.0142.0728.0272.1456.0392.2195.0021.012.0043.0239.0065.0359.013.0848.025.1695.0358.2532.0033.0239.0055.0468.0077.0707.0065.0608.013.1217.0184.1815.0022.0282.0044.0576.0065.0858.0044.0565.0077.1141.0098.1707.0011.0271.0033.0543.0044.0815.0032.0804.0043.1608.0043.2402l-.0087 3.0539 1.0782-.6271.0087-3.0539c-.0066-.0685-.0076-.1359-.0098-.2033z" stroke="#02192d" stroke-miterlimit="10" stroke-width=".2"/><path d="m28.2992 23.7258c2.4682 1.4248 4.4702 4.8929 4.4615 7.7295l-.0087 3.054-1.6281-.9401.0087-3.054c.0054-1.8052-1.2683-4.0125-2.8399-4.919-1.5704-.9064-2.854-.176-2.8583 1.6292l-.0087 3.054-1.6281-.9401.0087-3.054c.0098-2.8355 2.0248-3.9843 4.4929-2.5595z" fill="#fff"/><path d="m28.2992 23.7258c2.4682 1.4248 4.4702 4.8929 4.4615 7.7295l-.0087 3.054-1.6281-.9401.0087-3.054c.0054-1.8052-1.2683-4.0125-2.8399-4.919-1.5704-.9064-2.854-.176-2.8583 1.6292l-.0087 3.054-1.6281-.9401.0087-3.054c.0098-2.8355 2.0248-3.9843 4.4929-2.5595z" stroke="#02192d" stroke-miterlimit="10" stroke-width=".2"/><path d="m36.6136 37.4685h-.3858v.6836h.3858z" fill="#ff9600"/><path d="m33.0976 39.6468-1.9106-1.0586c-.1022-.0565-.1065-.15-.0098-.2087.0967-.0576.2576-.0598.3608-.0022l1.9107 1.0586c.0282.0152.0608.0261.1065.0326.0663.0098.1608.0087.2641-.0141.1032-.0207.213-.0598.3086-.1174l2.1248-1.2727c.1272-.076.1978-.1663.2141-.2402.0087-.0369.0033-.0684-.0098-.0945-.013-.0261-.0337-.0435-.0608-.0598l-.0544-.0293-.0043-.4076.4097.2272c.0967.0532.163.1206.1989.1902.0532.1054.0424.2173-.0152.3227-.0565.1065-.162.2087-.3087.2967l-2.1247 1.2727c-.1967.1174-.438.1935-.6869.2185-.1239.0119-.2522.0108-.375-.0065-.1228-.0185-.2412-.0544-.338-.1076z" fill="#fa0"/><path d="m33.0976 39.6468-1.9106-1.0586c-.1022-.0565-.1065-.15-.0098-.2087.0967-.0576.2576-.0598.3608-.0022l1.9107 1.0586c.0282.0152.0608.0261.1065.0326.0663.0098.1608.0087.2641-.0141.1032-.0207.213-.0598.3086-.1174l2.1248-1.2727c.1272-.076.1978-.1663.2141-.2402.0087-.0369.0033-.0684-.0098-.0945-.013-.0261-.0337-.0435-.0608-.0598l-.0544-.0293-.0043-.4076.4097.2272c.0967.0532.163.1206.1989.1902.0532.1054.0424.2173-.0152.3227-.0565.1065-.162.2087-.3087.2967l-2.1247 1.2727c-.1967.1174-.438.1935-.6869.2185-.1239.0119-.2522.0108-.375-.0065-.1228-.0185-.2412-.0544-.338-.1076z" stroke="#02192d" stroke-miterlimit="10" stroke-width=".2"/><path d="m36.9798 37.8175c-.0011.0119-.0022.0239-.0054.0358-.0011.0055-.0022.0109-.0033.0174-.0033.0142-.0076.0294-.013.0435-.0011.0044-.0022.0076-.0044.0109-.0065.0163-.0141.0315-.0217.0467-.0098.0185-.0228.0359-.0359.0543-.0076.0098-.013.0207-.0217.0305-.0076.0098-.0174.0185-.0261.0282-.0163.0185-.0326.0359-.0522.0544-.0163.0152-.0337.0293-.0511.0435-.0087.0076-.0173.0141-.0271.0217-.0294.0217-.0609.0435-.0957.0641l-2.1247 1.2727c-.0326.0195-.0685.0359-.1033.0532-.0195.0098-.038.0207-.0587.0294-.038.0163-.0771.0304-.1162.0435-.0163.0054-.0316.013-.049.0173-.051.0164-.1032.0294-.1565.0403-.0119.0021-.025.0054-.0369.0076-.0543.0108-.1098.0195-.1663.025-.0141.0011-.0282.0021-.0424.0032-.0217.0011-.0445.0033-.0674.0044-.0152 0-.0304 0-.0456 0s-.0304 0-.0467 0c-.0174 0-.0348-.0011-.0522-.0022-.012-.0011-.025-.0011-.037-.0022-.0282-.0021-.0554-.0054-.0836-.0087-.0294-.0043-.0587-.0098-.087-.0163-.0087-.0021-.0174-.0043-.025-.0065-.0196-.0043-.038-.0098-.0576-.0152-.0174-.0054-.0348-.012-.0511-.0185-.0119-.0043-.0228-.0076-.0348-.0119-.0282-.012-.0565-.025-.0826-.0392l-1.9106-1.0585c-.0532-.0294-.0804-.0696-.0793-.1087l-.1011 9.1858c0 .0392.0261.0783.0793.1087l1.9107 1.0586c.0261.0141.0532.0272.0826.0391.0011.0011.0032.0011.0043.0022.0098.0043.0207.0065.0305.0109.0173.0065.0336.0119.051.0174.0022.001.0055.0021.0076.0021.0163.0044.0326.0087.05.0131.0087.0021.0174.0043.0261.0065.0011 0 .0022.0011.0044.0011.025.0054.05.0098.075.0141l.0087.0011c.0239.0033.0478.0065.0717.0087.0032 0 .0076 0 .0108.0011.012.0011.025.0011.037.0022.013.001.025.0021.037.0021h.0152.0467.0326c.0044 0 .0087-.0011.013-.0011.0229-.001.0446-.0021.0674-.0043.0087-.0011.0174-.0011.0272-.0011.0054-.0011.0109-.0011.0152-.0011.0424-.0043.0848-.0098.1261-.0163.013-.0022.0261-.0054.0402-.0076.013-.0022.025-.0054.038-.0076.0522-.0109.1033-.0239.1544-.0391.0011 0 .0021-.0011.0032-.0011.0174-.0054.0326-.012.0489-.0185.0392-.0141.0783-.0272.1152-.0435.0207-.0087.0392-.0195.0587-.0293.0283-.0141.0576-.0272.0848-.0424.0065-.0033.013-.0076.0196-.0119l2.1247-1.2727c.0348-.0207.0663-.0424.0957-.0641.0097-.0077.0173-.0142.0271-.0218.0142-.0108.0294-.0217.0413-.0337.0033-.0032.0065-.0076.0098-.0108.0196-.0174.0359-.0359.0522-.0544.0065-.0076.0152-.0141.0206-.0217.0022-.0022.0033-.0044.0044-.0065.0076-.0098.0141-.0207.0217-.0305.0087-.0119.0185-.0239.025-.0358.0033-.0066.0076-.012.0109-.0185.0087-.0152.0163-.0315.0217-.0467 0-.0011.0011-.0022.0011-.0033.0011-.0033.0011-.0054.0022-.0087.0054-.0141.0098-.0283.013-.0435.0011-.0021.0022-.0054.0022-.0087.0011-.0032.0011-.0054.0011-.0087.0021-.0119.0043-.0239.0043-.0358 0-.0044.0011-.0076.0022-.0109 0-.0043 0-.0076 0-.012l.1011-9.1858c0 .0108-.0011.0185-.0022.025z" fill="#ffe100"/><path d="m36.9798 37.8175c-.0011.0119-.0022.0239-.0054.0358-.0011.0055-.0022.0109-.0033.0174-.0033.0142-.0076.0294-.013.0435-.0011.0044-.0022.0076-.0044.0109-.0065.0163-.0141.0315-.0217.0467-.0098.0185-.0228.0359-.0359.0543-.0076.0098-.013.0207-.0217.0305-.0076.0098-.0174.0185-.0261.0282-.0163.0185-.0326.0359-.0522.0544-.0163.0152-.0337.0293-.0511.0435-.0087.0076-.0173.0141-.0271.0217-.0294.0217-.0609.0435-.0957.0641l-2.1247 1.2727c-.0326.0195-.0685.0359-.1033.0532-.0195.0098-.038.0207-.0587.0294-.038.0163-.0771.0304-.1162.0435-.0163.0054-.0316.013-.049.0173-.051.0164-.1032.0294-.1565.0403-.0119.0021-.025.0054-.0369.0076-.0543.0108-.1098.0195-.1663.025-.0141.0011-.0282.0021-.0424.0032-.0217.0011-.0445.0033-.0674.0044-.0152 0-.0304 0-.0456 0s-.0304 0-.0467 0c-.0174 0-.0348-.0011-.0522-.0022-.012-.0011-.025-.0011-.037-.0022-.0282-.0021-.0554-.0054-.0836-.0087-.0294-.0043-.0587-.0098-.087-.0163-.0087-.0021-.0174-.0043-.025-.0065-.0196-.0043-.038-.0098-.0576-.0152-.0174-.0054-.0348-.012-.0511-.0185-.0119-.0043-.0228-.0076-.0348-.0119-.0282-.012-.0565-.025-.0826-.0392l-1.9106-1.0585c-.0532-.0294-.0804-.0696-.0793-.1087l-.1011 9.1859c0 .0391.0261.0782.0793.1086l1.9107 1.0586c.0261.0141.0532.0272.0826.0391.0011.0011.0032.0011.0043.0022.0098.0043.0207.0065.0305.0109.0173.0065.0336.0119.051.0174.0022.001.0055.0021.0076.0021.0163.0044.0326.0087.05.0131.0087.0021.0174.0043.0261.0065.0011 0 .0022.0011.0044.0011.025.0054.05.0098.075.0141l.0087.0011c.0239.0033.0478.0065.0717.0087.0032 0 .0076 0 .0108.0011.012.0011.025.0011.037.0022.013.001.025.0021.037.0021h.0152.0467.0326c.0044 0 .0087-.0011.013-.0011.0229-.001.0446-.0021.0674-.0043.0087-.0011.0174-.0011.0272-.0011.0054-.0011.0109-.0011.0152-.0011.0424-.0043.0848-.0098.1261-.0163.013-.0022.0261-.0054.0402-.0076.013-.0022.025-.0054.038-.0076.0522-.0109.1033-.0239.1544-.0391.0011 0 .0021-.0011.0032-.0011.0174-.0054.0326-.012.0489-.0185.0392-.0141.0783-.0272.1152-.0435.0207-.0087.0392-.0195.0587-.0293.0283-.0141.0576-.0272.0848-.0424.0065-.0033.013-.0076.0196-.0119l2.1247-1.2727c.0348-.0207.0663-.0424.0957-.0641.0097-.0077.0173-.0142.0271-.0218.0142-.0108.0294-.0217.0413-.0337.0033-.0032.0065-.0076.0098-.0108.0196-.0174.0359-.0359.0522-.0544.0065-.0076.0152-.0141.0206-.0217.0022-.0022.0033-.0044.0044-.0065.0076-.0098.0141-.0207.0217-.0305.0087-.0119.0185-.0239.025-.0358.0033-.0066.0076-.012.0109-.0185.0087-.0152.0163-.0315.0217-.0467 0-.0011.0011-.0022.0011-.0033.0011-.0033.0011-.0054.0022-.0087.0054-.0141.0098-.0283.013-.0435.0011-.0021.0022-.0054.0022-.0087.0011-.0032.0011-.0054.0011-.0087.0021-.0119.0043-.0239.0043-.0358 0-.0044.0011-.0076.0022-.0109 0-.0043 0-.0076 0-.0119l.1011-9.1859c0 .0108-.0011.0185-.0022.025z" stroke="#02192d" stroke-miterlimit="10" stroke-width=".2"/><path d="m36.9818 37.7958-.101 9.1848v.0119c0 .0033-.0011.0076-.0011.0109-.0011.0119-.0033.0239-.0055.0369 0 .0022 0 .0055-.0011.0087 0 .0022-.0021.0055-.0021.0076-.0033.0153-.0087.0294-.0142.0435 0 .0033-.001.0054-.0021.0087 0 .0011-.0011.0022-.0011.0022-.0065.0163-.0141.0326-.0228.0478-.0033.0065-.0066.012-.0098.0185-.0076.0119-.0174.0239-.025.0358-.0076.0098-.0141.0196-.0218.0305-.0021.0021-.0032.0043-.0043.0065-.0065.0076-.0152.0141-.0217.0217-.0163.0185-.0326.0359-.0522.0544-.0033.0032-.0065.0065-.0098.0097-.013.012-.0272.0229-.0413.0337-.0098.0076-.0174.0142-.0272.0218-.0293.0217-.0608.0435-.0956.0641l-2.1247 1.2727c-.0066.0043-.0131.0076-.0196.0108-.0261.0163-.0554.0283-.0837.0424-.0196.0098-.038.0207-.0587.0294-.0369.0163-.0761.0304-.1152.0434-.0174.0066-.0326.0131-.05.0185-.0011 0-.0022.0011-.0032.0011-.024.0076-.0479.0141-.0729.0207v-9.162c.0066-.0022.0131-.0033.0207-.0043.0532-.012.1054-.025.1565-.0413.0174-.0044.0326-.012.0489-.0174.0391-.0142.0783-.0272.1163-.0435.0206-.0098.0391-.0207.0587-.0293.0348-.0174.0706-.0348.1032-.0544l2.1248-1.2727c.0348-.0206.0663-.0424.0956-.0641.0098-.0065.0174-.0141.0272-.0217.0174-.0142.0359-.0283.0511-.0435.0195-.0174.0358-.0359.0521-.0543.0087-.0087.0185-.0185.0261-.0283s.0141-.0206.0218-.0304c.0119-.0185.025-.0359.0347-.0544.0087-.0152.0163-.0315.0229-.0467.001-.0044.0021-.0076.0032-.012.0055-.0141.0109-.0282.0141-.0423.0011-.0066.0022-.012.0033-.0174.0022-.012.0044-.0239.0054-.037-.001-.0065.0011-.0141.0011-.0217z" fill="#ffe100"/><path d="m36.9818 37.7958-.101 9.1848v.0119c0 .0033-.0011.0076-.0011.0109-.0011.0119-.0033.0239-.0055.0369 0 .0022 0 .0055-.0011.0087 0 .0022-.0021.0055-.0021.0076-.0033.0153-.0087.0294-.0142.0435 0 .0033-.001.0054-.0021.0087 0 .0011-.0011.0022-.0011.0022-.0065.0163-.0141.0326-.0228.0478-.0033.0065-.0066.012-.0098.0185-.0076.0119-.0174.0239-.025.0358-.0076.0098-.0141.0196-.0218.0305-.0021.0021-.0032.0043-.0043.0065-.0065.0076-.0152.0141-.0217.0217-.0163.0185-.0326.0359-.0522.0544-.0033.0032-.0065.0065-.0098.0097-.013.012-.0272.0229-.0413.0337-.0098.0076-.0174.0142-.0272.0218-.0293.0217-.0608.0435-.0956.0641l-2.1247 1.2727c-.0066.0043-.0131.0076-.0196.0108-.0261.0163-.0554.0283-.0837.0424-.0196.0098-.038.0207-.0587.0294-.0369.0163-.0761.0304-.1152.0434-.0174.0066-.0326.0131-.05.0185-.0011 0-.0022.0011-.0032.0011-.024.0076-.0479.0141-.0729.0207v-9.162c.0066-.0022.0131-.0033.0207-.0043.0532-.012.1054-.025.1565-.0413.0174-.0044.0326-.012.0489-.0174.0391-.0142.0783-.0272.1163-.0435.0206-.0098.0391-.0207.0587-.0293.0348-.0174.0706-.0348.1032-.0544l2.1248-1.2727c.0348-.0206.0663-.0424.0956-.0641.0098-.0065.0174-.0141.0272-.0217.0174-.0142.0359-.0283.0511-.0435.0195-.0174.0358-.0359.0521-.0543.0087-.0087.0185-.0185.0261-.0283s.0141-.0206.0218-.0304c.0119-.0185.025-.0359.0347-.0544.0087-.0152.0163-.0315.0229-.0467.001-.0044.0021-.0076.0032-.012.0055-.0141.0109-.0282.0141-.0423.0011-.0066.0022-.012.0033-.0174.0022-.012.0044-.0239.0054-.037-.001-.0065.0011-.0141.0011-.0217z" stroke="#02192d" stroke-miterlimit="10" stroke-width=".2"/><path d="m36.9818 37.7958-.101 9.1848v.0119c0 .0033-.0011.0076-.0011.0109-.0011.0119-.0033.0239-.0055.0369 0 .0022 0 .0055-.0011.0087 0 .0022-.0021.0055-.0021.0076-.0033.0153-.0087.0294-.0142.0435 0 .0033-.001.0054-.0021.0087 0 .0011-.0011.0022-.0011.0022-.0065.0163-.0141.0326-.0228.0478-.0033.0065-.0066.012-.0098.0185-.0076.0119-.0174.0239-.025.0358-.0076.0098-.0141.0196-.0218.0305-.0021.0021-.0032.0043-.0043.0065-.0065.0076-.0152.0141-.0217.0217-.0163.0185-.0326.0359-.0522.0544-.0033.0032-.0065.0065-.0098.0097-.013.012-.0272.0229-.0413.0337-.0098.0076-.0174.0142-.0272.0218-.0293.0217-.0608.0435-.0956.0641l-2.1247 1.2727c-.0066.0043-.0131.0076-.0196.0108-.0261.0163-.0554.0283-.0837.0424-.0196.0098-.038.0207-.0587.0294-.0369.0163-.0761.0304-.1152.0434-.0174.0066-.0326.0131-.05.0185-.0011 0-.0022.0011-.0032.0011-.024.0076-.0479.0141-.0729.0207v-9.162c.0066-.0022.0131-.0033.0207-.0043.0532-.012.1054-.025.1565-.0413.0174-.0044.0326-.012.0489-.0174.0391-.0142.0783-.0272.1163-.0435.0206-.0098.0391-.0207.0587-.0293.0348-.0174.0706-.0348.1032-.0544l2.1248-1.2727c.0348-.0206.0663-.0424.0956-.0641.0098-.0065.0174-.0141.0272-.0217.0174-.0142.0359-.0283.0511-.0435.0195-.0174.0358-.0359.0521-.0543.0087-.0087.0185-.0185.0261-.0283s.0141-.0206.0218-.0304c.0119-.0185.025-.0359.0347-.0544.0087-.0152.0163-.0315.0229-.0467.001-.0044.0021-.0076.0032-.012.0055-.0141.0109-.0282.0141-.0423.0011-.0066.0022-.012.0033-.0174.0022-.012.0044-.0239.0054-.037-.001-.0065.0011-.0141.0011-.0217z" fill="#ff9600"/><path d="m36.9818 37.7958-.101 9.1848v.0119c0 .0033-.0011.0076-.0011.0109-.0011.0119-.0033.0239-.0055.0369 0 .0022 0 .0055-.0011.0087 0 .0022-.0021.0055-.0021.0076-.0033.0153-.0087.0294-.0142.0435 0 .0033-.001.0054-.0021.0087 0 .0011-.0011.0022-.0011.0022-.0065.0163-.0141.0326-.0228.0478-.0033.0065-.0066.012-.0098.0185-.0076.0119-.0174.0239-.025.0358-.0076.0098-.0141.0196-.0218.0305-.0021.0021-.0032.0043-.0043.0065-.0065.0076-.0152.0141-.0217.0217-.0163.0185-.0326.0359-.0522.0544-.0033.0032-.0065.0065-.0098.0097-.013.012-.0272.0229-.0413.0337-.0098.0076-.0174.0142-.0272.0218-.0293.0217-.0608.0435-.0956.0641l-2.1247 1.2727c-.0066.0043-.0131.0076-.0196.0108-.0261.0163-.0554.0283-.0837.0424-.0196.0098-.038.0207-.0587.0294-.0369.0163-.0761.0304-.1152.0434-.0174.0066-.0326.0131-.05.0185-.0011 0-.0022.0011-.0032.0011-.024.0076-.0479.0141-.0729.0207v-9.162c.0066-.0022.0131-.0033.0207-.0043.0532-.012.1054-.025.1565-.0413.0174-.0044.0326-.012.0489-.0174.0391-.0142.0783-.0272.1163-.0435.0206-.0098.0391-.0207.0587-.0293.0348-.0174.0706-.0348.1032-.0544l2.1248-1.2727c.0348-.0206.0663-.0424.0956-.0641.0098-.0065.0174-.0141.0272-.0217.0174-.0142.0359-.0283.0511-.0435.0195-.0174.0358-.0359.0521-.0543.0087-.0087.0185-.0185.0261-.0283s.0141-.0206.0218-.0304c.0119-.0185.025-.0359.0347-.0544.0087-.0152.0163-.0315.0229-.0467.001-.0044.0021-.0076.0032-.012.0055-.0141.0109-.0282.0141-.0423.0011-.0066.0022-.012.0033-.0174.0022-.012.0044-.0239.0054-.037-.001-.0065.0011-.0141.0011-.0217z" stroke="#02192d" stroke-linejoin="round" stroke-miterlimit="10" stroke-width=".2"/><g fill="#ff9600"><path d="m20.499 41.3292.1076-9.7727c0-.0142.0022-.0283.0065-.0446.0196-.0782.0989-.1728.2391-.2521l-.1076 9.7727c-.1402.0794-.2195.1739-.2391.2522-.0043.0163-.0065.0304-.0065.0445z"/><path d="m20.4993 41.3296.1076-9.7728c0-.0021 0-.0032 0-.0054l-.1076 9.7727z"/><path d="m20.4993 41.3241.1076-9.7728c0-.0098.0021-.0196.0043-.0304l-.1076 9.7727c-.0022.0109-.0032.0207-.0043.0305z"/><path d="m20.5034 41.294.1076-9.7727c.0011-.0022.0011-.0055.0022-.0077.0022-.0076.0043-.0163.0076-.025l-.1076 9.7728c-.0033.0087-.0065.0163-.0087.025 0 .0022 0 .0054-.0011.0076z"/><path d="m20.5144 41.2614.1076-9.7728c.0043-.0119.0109-.0239.0185-.0369l-.1076 9.7727c-.0076.012-.0141.025-.0185.037z"/><path d="m20.532 41.2244.1076-9.7727c.0087-.0153.0195-.0294.0315-.0446l-.1076 9.7728c-.012.0152-.0228.0293-.0315.0445z"/><path d="m20.5632 41.1795.1076-9.7728c.0152-.0184.0337-.0369.0544-.0565l-.1076 9.7728c-.0207.0185-.0392.038-.0544.0565z"/><path d="m20.6177 41.123.1076-9.7727c.0326-.0294.0728-.0587.1206-.0859l-.1076 9.7728c-.0478.0271-.0869.0565-.1206.0858z"/><path d="m20.7383 41.0372.1076-9.7727c.0022-.0011.0054-.0033.0076-.0044l-.1076 9.7728c-.0033.0022-.0054.0032-.0076.0043z"/></g><path d="m22.7857 32.9561c0 .0087-.0022.0185-.0054.0272 0 .0011-.0011.0022-.0011.0033-.0033.0087-.0076.0163-.0131.025-.001.001-.0021.0032-.0032.0043-.0065.0087-.0131.0163-.0218.0239-.0065.0065-.0152.012-.0239.0174-.0043.0022-.0076.0054-.0108.0076-.0163.0098-.0348.0163-.0533.0228-.0065.0022-.013.0044-.0195.0055-.0098.0021-.0185.0054-.0283.0065-.0098.0022-.0207.0043-.0315.0054-.0033 0-.0065.0011-.0098.0011-.0152.0011-.0304.0022-.0446.0022-.0021 0-.0054 0-.0076 0-.0152 0-.0304-.0011-.0456-.0033-.0022 0-.0044 0-.0065-.0011-.0153-.0021-.0294-.0043-.0435-.0076-.0022-.0011-.0044-.0011-.0076-.0021-.0131-.0033-.025-.0066-.037-.0109-.0032-.0011-.0054-.0022-.0087-.0033-.0141-.0054-.0282-.0119-.0402-.0195l-1.9845-1.1553c-.1011-.0587-.1685-.1315-.2033-.2065-.0217-.0468-.0315-.0935-.0304-.1402l-.1076 9.7727c-.0011.0478.0087.0946.0304.1413.0348.075.1033.1478.2033.2065l1.9845 1.1553c.012.0065.0239.013.037.0185.0011 0 .0021.0011.0032.0011.0033.0011.0055.0021.0087.0032.0066.0022.0142.0055.0207.0076.0054.0011.0108.0022.0152.0044.0022.0011.0043.0011.0076.0022.0022 0 .0033.001.0054.001.0087.0022.0174.0033.0272.0055.0044.0011.0076.0011.012.0011.0021 0 .0043.0011.0065.0011.0032 0 .0054.001.0076.001.0087.0011.0174.0011.0272.0022h.0097.0077.0097c.0098 0 .0207-.0011.0305-.0022.0021 0 .0032 0 .0043-.001.0033 0 .0065-.0011.0098-.0011.0065-.0011.0141-.0011.0206-.0022.0033-.0011.0066-.0022.0109-.0022.0098-.0022.0196-.0043.0283-.0065.0043-.0011.0098-.0022.0141-.0033.0022-.001.0043-.0021.0065-.0021.0185-.0066.037-.0142.0533-.0229 0 0 .0011 0 .0011-.001.0043-.0022.0065-.0055.0108-.0077.0087-.0054.0174-.0108.0239-.0173 0 0 .0011 0 .0011-.0011.0065-.0055.012-.012.0174-.0185.0011-.0022.0022-.0033.0033-.0054.0011-.0011.0021-.0033.0032-.0044.0011-.0022.0033-.0043.0044-.0065.0032-.0054.0054-.0098.0076-.0152 0-.0011.0011-.0022.0011-.0033s.0011-.0022.0011-.0032c.0011-.0033.0021-.0055.0021-.0087.0011-.0055.0022-.0109.0022-.0153 0-.001 0-.0021 0-.0032z" fill="#ffe100"/><path d="m22.7857 32.9561c0 .0087-.0022.0185-.0054.0272 0 .0011-.0011.0022-.0011.0033-.0033.0087-.0076.0163-.0131.025-.001.001-.0021.0032-.0032.0043-.0065.0087-.0131.0163-.0218.0239-.0065.0065-.0152.012-.0239.0174-.0043.0022-.0076.0054-.0108.0076-.0163.0098-.0348.0163-.0533.0228-.0065.0022-.013.0044-.0195.0055-.0098.0021-.0185.0054-.0283.0065-.0098.0022-.0207.0043-.0315.0054-.0033 0-.0065.0011-.0098.0011-.0152.0011-.0304.0022-.0446.0022-.0021 0-.0054 0-.0076 0-.0152 0-.0304-.0011-.0456-.0033-.0022 0-.0044 0-.0065-.0011-.0153-.0021-.0294-.0043-.0435-.0076-.0022-.0011-.0044-.0011-.0076-.0021-.0131-.0033-.025-.0066-.037-.0109-.0032-.0011-.0054-.0022-.0087-.0033-.0141-.0054-.0282-.0119-.0402-.0195l-1.9845-1.1553c-.1011-.0587-.1685-.1315-.2033-.2065-.0217-.0468-.0315-.0935-.0304-.1402l-.1076 9.7727c-.0011.0478.0087.0946.0304.1413.0348.075.1033.1478.2033.2065l1.9845 1.1553c.012.0065.0239.013.037.0185.0011 0 .0021.0011.0032.0011.0033.0011.0055.0021.0087.0032.0066.0022.0142.0055.0207.0076.0054.0011.0108.0022.0152.0044.0022.0011.0043.0011.0076.0022.0022 0 .0033.001.0054.001.0087.0022.0174.0033.0272.0055.0044.0011.0076.0011.012.0011.0021 0 .0043.0011.0065.0011.0032 0 .0054.001.0076.001.0087.0011.0174.0011.0272.0022h.0097.0077.0097c.0098 0 .0207-.0011.0305-.0022.0021 0 .0032 0 .0043-.001.0033 0 .0065-.0011.0098-.0011.0065-.0011.0141-.0011.0206-.0022.0033-.0011.0066-.0022.0109-.0022.0098-.0022.0196-.0043.0283-.0065.0043-.0011.0098-.0022.0141-.0033.0022-.001.0043-.0021.0065-.0021.0185-.0066.037-.0142.0533-.0229 0 0 .0011 0 .0011-.001.0043-.0022.0065-.0055.0108-.0077.0087-.0054.0174-.0108.0239-.0173 0 0 .0011 0 .0011-.0011.0065-.0055.012-.012.0174-.0185.0011-.0022.0022-.0033.0033-.0054.0011-.0011.0021-.0033.0032-.0044.0011-.0022.0033-.0043.0044-.0065.0032-.0054.0054-.0098.0076-.0152 0-.0011.0011-.0022.0011-.0033s.0011-.0022.0011-.0032c.0011-.0033.0021-.0055.0021-.0087.0011-.0055.0022-.0109.0022-.0153 0-.001 0-.0021 0-.0032z" stroke="#02192d" stroke-miterlimit="10" stroke-width=".2"/><path d="m20.886 31.2924c-.1402.0793-.2119.1532-.2315.2315-.0108.0391-.0076.0739.0055.101.0119.0272.0337.0468.0619.0642l1.9846 1.1553c.1054.0619.1054.1608 0 .2206-.1055.0598-.2783.0598-.3837-.0022l-1.9845-1.1553c-.1011-.0587-.1685-.1304-.2033-.2065-.0521-.113-.0348-.2315.0315-.3434.0598-.1022.1609-.2.3011-.2858.0141-.0087.4043-.2522.4195-.2609v.4815z" fill="#fa0"/><path d="m20.886 31.2924c-.1402.0793-.2119.1532-.2315.2315-.0108.0391-.0076.0739.0055.101.0119.0272.0337.0468.0619.0642l1.9846 1.1553c.1054.0619.1054.1608 0 .2206-.1055.0598-.2783.0598-.3837-.0022l-1.9845-1.1553c-.1011-.0587-.1685-.1304-.2033-.2065-.0521-.113-.0348-.2315.0315-.3434.0598-.1022.1609-.2.3011-.2858.0141-.0087.4043-.2522.4195-.2609v.4815z" stroke="#02192d" stroke-miterlimit="10" stroke-width=".2"/><path d="m27.1514 38.0315-1.0977.1445" stroke="#02192d" stroke-miterlimit="10" stroke-width=".2"/></svg>