<svg fill="none" height="68" viewBox="0 0 68 68" width="68" xmlns="http://www.w3.org/2000/svg" xmlns:xlink="http://www.w3.org/1999/xlink"><mask id="a" height="68" maskUnits="userSpaceOnUse" width="68" x="0" y="0"><path d="m0 0h68v68h-68z" fill="#000d1d"/></mask><g style="mask:url(#a);stroke:#12192d;stroke-width:.25;stroke-miterlimit:10;stroke-linecap:round;stroke-linejoin:round"><path d="m59.56 42.7-25.68 14.93-25.85998-14.93 25.68998-14.93z" fill="#3ad89c"/><path d="m59.5601 42.7001-.02 9.67-25.69 14.93.03-9.67z" fill="#119679"/><path d="m33.88 57.6301-.03 9.67-25.85-14.93.02-9.67z" fill="#24bc89"/><path d="m28.0601 60.54v-2.4l-1.94-1.12-.01 2.4z" fill="#00f9ff"/><path d="m31.39 62.39.01-2.4-1.94-1.12-.01 2.4z" fill="#00f9ff"/><path d="m10.26 48.53v1.21l13.9 8.03v-1.22z" fill="#138c75"/><path d="m59.56 30.03-25.68 14.93-25.85998-14.92 25.68998-14.93z" fill="#59eaac"/><path d="m59.5601 30.03-.02 9.68-25.69 14.93.03-9.68z" fill="#1faa7f"/><path d="m33.88 44.96-.03 9.68-25.85-14.93.02-9.67z" fill="#28ce92"/><path d="m28.0601 47.88v-2.41l-1.94-1.12-.01 2.4z" fill="#00f9ff"/><path d="m31.39 49.73.01-2.4-1.94-1.12-.01 2.4z" fill="#00f9ff"/><path d="m10.26 35.86v1.22l13.9 8.02v-1.21z" fill="#138c75"/><path d="m59.56 17.63-25.68 14.93-25.85998-14.93 25.68998-14.92004z" fill="#59eaac"/><path d="m46.9901 17.63-13.15 7.65-13.24-7.65 13.15-7.64001z" fill="#24bc89"/><path d="m59.5601 17.63-.02 9.68-25.69 14.92.03-9.67z" fill="#2bc18f"/><path d="m54.3999 26.92 2.58-1.5.01-3.34-2.58 1.49z" fill="#17a585"/><path d="m36.74 50.33 2.58-1.49.01-3.35-2.58 1.5z" fill="#119679"/><path d="m52.0801 54.1599 2.57-1.5.01-3.35-2.57 1.5z" fill="#0e7c64"/><path d="m33.88 32.56-.03 9.67-25.85-14.92.02-9.68z" fill="#3edb9f"/><path d="m28.0601 35.47v-2.4l-1.94-1.12-.01 2.4z" fill="#00f9ff"/><path d="m31.39 37.3299.01-2.4-1.94-1.13-.01 2.41z" fill="#00f9ff"/><path d="m10.26 23.46v1.21l13.9 8.03v-1.21z" fill="#138c75"/><path d="m43.4401 5.59-9.62 5.59-9.69-5.59 9.62-5.59z" fill="#ffe14b"/><path d="m43.4401 5.58997-.01 11.00003-9.62 5.59.01-11z" fill="#ffc400"/><path d="m33.8201 11.18-.01 11-9.69-5.59.01-11.00003z" fill="#ffd400"/></g></svg>