<svg width="140" height="140" viewBox="0 0 140 140" fill="none" xmlns="http://www.w3.org/2000/svg">
<path d="M121.273 109.848L133.411 105.355C135.663 104.523 135.663 103.16 133.411 102.325L119.452 97.1602L121.273 109.848Z" fill="black"/>
<path d="M119.526 91.4442L119.526 91.4443L76.9079 107.121L77.0373 107.472L76.9078 107.121C74.2671 108.092 70.775 108.587 67.2606 108.59C63.7462 108.593 60.2457 108.105 57.5883 107.138L14.7171 91.5341L14.7171 91.5341C13.3832 91.0488 12.411 90.4969 11.7788 89.9285C11.1475 89.3609 10.8823 88.8037 10.8822 88.2927C10.8822 88.2927 10.8822 88.2926 10.8822 88.2926L10.1322 88.2924L10.1322 88.2926L10.125 106.726V106.726C10.125 107.517 10.5409 108.261 11.2701 108.917C11.9987 109.572 13.0671 110.166 14.453 110.672L14.4533 110.672L57.3246 126.276L57.3247 126.276C60.0889 127.282 63.6815 127.776 67.2527 127.773C70.8237 127.77 74.4094 127.269 77.1595 126.258L77.0301 125.906L77.1596 126.258L119.778 110.581C121.146 110.079 122.2 109.488 122.919 108.837C123.638 108.185 124.047 107.446 124.047 106.661C124.047 106.661 124.047 106.661 124.047 106.661L124.055 88.2291C124.055 88.2287 124.055 88.2282 124.055 88.2277C124.055 88.2276 124.055 88.2276 124.055 88.2275H123.68L123.305 88.2274V88.2275C123.305 88.228 123.305 88.2284 123.305 88.2288C123.304 88.7332 123.043 89.2849 122.422 89.8478C121.8 90.4119 120.842 90.9609 119.526 91.4442Z" fill="white" stroke="black" stroke-width="0.75" stroke-miterlimit="10"/>
<path d="M119.726 84.2814L119.664 84.2588H119.66L76.8509 68.6775L76.8509 68.6774C74.0866 67.6719 70.494 67.1775 66.9233 67.1807C63.3528 67.1839 59.768 67.6847 57.0196 68.696C57.0196 68.696 57.0196 68.696 57.0196 68.696L14.4048 84.3722C13.0305 84.8776 11.9725 85.4708 11.2529 86.1251C10.5324 86.7803 10.1249 87.5233 10.1309 88.3124C10.137 89.1009 10.5551 89.8414 11.2843 90.4939C12.0128 91.1459 13.0788 91.7367 14.4602 92.2392L57.3314 107.843L57.3315 107.843C60.0957 108.849 63.6893 109.343 67.2608 109.34C70.8323 109.337 74.418 108.836 77.1664 107.825L119.785 92.1485L119.655 91.7965L119.785 92.1484C121.158 91.6431 122.216 91.0498 122.935 90.3955C123.655 89.7402 124.062 88.9972 124.056 88.2081C124.049 87.4197 123.631 86.6792 122.902 86.0267C122.173 85.3747 121.107 84.784 119.726 84.2814Z" fill="black" stroke="black" stroke-width="0.75" stroke-miterlimit="10"/>
<path d="M119.72 79.4182L119.658 79.3956H119.654L76.8451 63.8142L76.845 63.8142C74.0808 62.8086 70.4882 62.3142 66.9175 62.3174C63.3469 62.3206 59.7621 62.8214 57.0137 63.8327C57.0137 63.8327 57.0137 63.8327 57.0137 63.8327L14.399 79.5089C13.0246 80.0143 11.9666 80.6075 11.2471 81.2618C10.5265 81.917 10.119 82.66 10.1251 83.4491C10.1311 84.2376 10.5493 84.9781 11.2784 85.6307C12.0069 86.2826 13.0729 86.8734 14.4544 87.3759L57.3256 102.98L57.3256 102.98C60.0899 103.985 63.6834 104.48 67.255 104.477C70.8264 104.474 74.4122 103.973 77.1605 102.961L119.779 87.2852L119.65 86.9332L119.779 87.2852C121.152 86.7798 122.21 86.1865 122.929 85.5322C123.649 84.8769 124.056 84.1339 124.05 83.3448C124.043 82.5565 123.625 81.8159 122.896 81.1634C122.167 80.5114 121.101 79.9207 119.72 79.4182Z" fill="white" stroke="black" stroke-width="0.75" stroke-miterlimit="10"/>
<path d="M118.483 80.8638L117.979 80.6805V80.684L75.8258 65.341C73.3694 64.4463 70.1801 64.0072 67.0126 64.0098C63.8453 64.0124 60.6635 64.4567 58.2222 65.3552C58.2222 65.3552 58.2222 65.3552 58.2222 65.3552L15.8176 80.9505L15.8174 80.9505C14.9756 81.2606 14.3165 81.6281 13.8623 82.0416C13.407 82.456 13.1314 82.9431 13.1358 83.4764C13.1402 84.0089 13.4231 84.4936 13.8835 84.9057C14.3433 85.3173 15.0072 85.6831 15.8532 85.9913L15.8533 85.9913L58.51 101.518L58.51 101.518C60.9647 102.41 64.1539 102.85 67.3218 102.847C70.4895 102.845 73.6722 102.402 76.1135 101.503C76.1135 101.503 76.1135 101.503 76.1136 101.503L118.518 85.9045L118.518 85.9045C119.36 85.5945 120.019 85.2269 120.473 84.8134C120.929 84.399 121.204 83.9119 121.2 83.3787C121.196 82.8462 120.913 82.3614 120.452 81.9493C119.992 81.5377 119.329 81.1719 118.483 80.8638Z" fill="black" stroke="black" stroke-width="0.75" stroke-miterlimit="10"/>
<mask id="mask0_205_15840" style="mask-type:alpha" maskUnits="userSpaceOnUse" x="13" y="64" width="108" height="39">
<path d="M118.354 81.2161C121.634 82.4107 121.651 84.3511 118.389 85.5526L75.984 101.151C71.2091 102.909 63.4408 102.912 58.6382 101.165L15.9815 85.6389C12.7016 84.4443 12.6843 82.5039 15.947 81.3024L58.3517 65.7071C63.1266 63.9498 70.8915 63.9428 75.6975 65.6933L118.354 81.2196V81.2161Z" fill="white"/>
</mask>
<g mask="url(#mask0_205_15840)">
<path d="M118.483 81.5245L118.482 81.5244L75.8258 65.9982C73.3694 65.1035 70.1801 64.6644 67.0126 64.667C63.8453 64.6696 60.6635 65.1139 58.2222 66.0124C58.2222 66.0124 58.2222 66.0124 58.2222 66.0124L15.8176 81.6077L15.8174 81.6078C14.9756 81.9178 14.3165 82.2853 13.8623 82.6988C13.407 83.1132 13.1314 83.6003 13.1358 84.1336C13.1402 84.6661 13.4231 85.1509 13.8835 85.563C14.3433 85.9746 15.0072 86.3404 15.8532 86.6485L15.8533 86.6485L58.51 102.178L58.5101 102.178C60.9647 103.071 64.1539 103.51 67.3218 103.508C70.4895 103.506 73.6722 103.062 76.1135 102.164C76.1135 102.164 76.1135 102.164 76.1136 102.164L118.518 86.5652L118.518 86.5652C119.36 86.2552 120.019 85.8876 120.473 85.4741C120.929 85.0597 121.204 84.5726 121.2 84.0394C121.196 83.5069 120.913 83.0221 120.452 82.61C119.992 82.1984 119.329 81.8326 118.483 81.5245Z" fill="#D9D9D9" stroke="black" stroke-width="0.75" stroke-miterlimit="10"/>
</g>
<path d="M99.678 82.1307C101.013 82.616 101.019 83.4063 99.6928 83.8958L69.5447 94.9842C68.2161 95.4736 66.0569 95.4736 64.722 94.9884L34.3938 83.9509C33.0567 83.4635 33.0504 82.6753 34.3789 82.1858L64.5292 71.0954C65.8556 70.608 68.0148 70.6059 69.3519 71.0911L99.6801 82.1286L99.678 82.1307Z" fill="white" stroke="black" stroke-width="0.75" stroke-miterlimit="10"/>
<path d="M99.6923 83.896L69.5441 94.9843C68.2156 95.4738 66.0564 95.4738 64.7215 94.9886L34.3932 83.951C33.7215 83.7074 33.3867 83.3874 33.3867 83.0653V83.8536C33.3867 84.1735 33.7215 84.4956 34.3932 84.7393L64.7215 95.7768C66.0564 96.262 68.2156 96.262 69.5441 95.7726L99.6923 84.6842C100.353 84.4405 100.684 84.1227 100.684 83.8048V83.0166C100.684 83.3344 100.353 83.6523 99.6923 83.896Z" fill="black" stroke="black" stroke-width="0.75" stroke-miterlimit="10"/>
<mask id="mask1_205_15840" style="mask-type:alpha" maskUnits="userSpaceOnUse" x="10" y="88" width="114" height="40">
<path d="M119.656 91.7962L77.0373 107.472C71.6482 109.455 62.8818 109.463 57.4601 107.491L14.5888 91.8865C11.869 90.8968 10.5072 89.5965 10.5072 88.2926L10.5 106.726C10.5 108.026 11.8617 109.326 14.5816 110.32L57.4529 125.924C62.8745 127.896 71.6373 127.889 77.0301 125.906L119.649 110.229C122.332 109.243 123.672 107.95 123.672 106.661L123.68 88.2275C123.68 89.517 122.34 90.8101 119.656 91.7962Z" fill="white"/>
</mask>
<g mask="url(#mask1_205_15840)">
<path d="M69.132 136.492C71.0357 136.492 72.9369 136.244 74.3715 135.71L122.787 118.175C124.229 117.653 124.95 116.963 124.95 116.275V91.2393L72.9544 110.108C70.8486 110.872 69.1245 113.323 69.1245 115.552L69.132 136.492Z" fill="#D9D9D9"/>
<path d="M16.9302 100.075C16.721 100.003 16.5174 99.995 16.3358 100.047L15.3423 100.32C15.5239 100.27 15.7248 100.276 15.9367 100.347C16.7238 100.62 17.343 101.718 17.3182 102.799C17.2989 103.597 16.9384 104.162 16.4376 104.302L17.431 104.029C17.9319 103.892 18.2924 103.325 18.3117 102.527C18.3364 101.443 17.72 100.345 16.9302 100.075Z" fill="black" stroke="black" stroke-width="0.75" stroke-miterlimit="10"/>
<path d="M15.9362 100.348C16.7233 100.62 17.3425 101.718 17.3177 102.8C17.293 103.881 16.6325 104.544 15.8454 104.272C15.0583 103.999 14.4364 102.904 14.4612 101.82C14.4859 100.736 15.1464 100.078 15.9362 100.348Z" fill="white" stroke="black" stroke-width="0.75" stroke-miterlimit="10"/>
<path d="M20.5454 101.322C20.3363 101.25 20.1354 101.242 19.951 101.294L18.9575 101.567C19.1392 101.517 19.34 101.523 19.5519 101.594C20.339 101.867 20.9582 102.965 20.9334 104.046C20.9142 104.844 20.5537 105.409 20.0528 105.549L21.0463 105.277C21.5471 105.139 21.9076 104.572 21.9269 103.774C21.9517 102.69 21.3352 101.592 20.5454 101.322Z" fill="black" stroke="black" stroke-width="0.75" stroke-miterlimit="10"/>
<path d="M19.5516 101.595C20.3387 101.867 20.9579 102.965 20.9331 104.047C20.9084 105.128 20.2479 105.792 19.4608 105.519C18.6738 105.247 18.0546 104.149 18.0793 103.064C18.1041 101.98 18.7673 101.322 19.5544 101.595H19.5516Z" fill="white" stroke="black" stroke-width="0.75" stroke-miterlimit="10"/>
<path d="M29.8694 104.53L24.1618 102.565C23.9527 102.494 23.7518 102.485 23.5701 102.538L22.5767 102.81C22.7583 102.76 22.9592 102.766 23.1683 102.838L28.8759 104.802C29.663 105.075 30.2822 106.173 30.2574 107.257C30.2382 108.053 29.8777 108.619 29.3741 108.757L30.3675 108.485C30.8684 108.347 31.2316 107.78 31.2509 106.985C31.2757 105.9 30.6565 104.802 29.8694 104.53Z" fill="black" stroke="black" stroke-width="0.75" stroke-miterlimit="10"/>
<path d="M28.8753 104.803C29.6624 105.075 30.2816 106.173 30.2568 107.258C30.232 108.342 29.5688 109 28.7817 108.73L23.0741 106.765C22.287 106.493 21.6678 105.395 21.6926 104.31C21.7174 103.226 22.3779 102.568 23.1649 102.841L28.8725 104.806L28.8753 104.803Z" fill="#F66754" stroke="black" stroke-width="0.75" stroke-miterlimit="10"/>
<path d="M118.548 100.362L118.55 100.362C118.739 100.291 118.863 100.106 118.938 99.9335C119.017 99.7495 119.064 99.5244 119.064 99.2967V98.8146C119.064 98.5904 119.018 98.3789 118.922 98.2252C118.872 98.1472 118.803 98.0728 118.708 98.0294C118.607 97.9837 118.497 97.9811 118.393 98.0198C118.393 98.02 118.392 98.0201 118.392 98.0203L75.9683 113.464C75.9679 113.464 75.9676 113.464 75.9672 113.464C75.7753 113.533 75.6512 113.72 75.5784 113.891C75.5001 114.075 75.4547 114.299 75.4547 114.526V115.008C75.4547 115.231 75.5005 115.442 75.5969 115.596C75.6457 115.674 75.715 115.748 75.8098 115.792C75.9098 115.839 76.0203 115.842 76.1254 115.803C76.1258 115.803 76.1262 115.803 76.1266 115.803L118.548 100.362Z" fill="white" stroke="black" stroke-width="0.45" stroke-miterlimit="10"/>
<mask id="mask2_205_15840" style="mask-type:alpha" maskUnits="userSpaceOnUse" x="75" y="98" width="44" height="18">
<path d="M118.471 98.2309C118.674 98.1548 118.839 98.417 118.839 98.8146V99.2967C118.839 99.6942 118.674 100.075 118.471 100.151L76.0476 115.592C75.8446 115.668 75.6797 115.402 75.6797 115.008V114.526C75.6797 114.129 75.8404 113.748 76.0434 113.676L118.471 98.2309Z" fill="white"/>
</mask>
<g mask="url(#mask2_205_15840)">
<path d="M117.241 97.8335C117.444 97.7573 117.609 98.0195 117.609 98.4171V98.8992C117.609 99.2968 117.444 99.6774 117.241 99.7535L74.8172 115.194C74.6142 115.271 74.4492 115.004 74.4492 114.611V114.129C74.4492 113.731 74.6099 113.351 74.8129 113.279L117.241 97.8335Z" fill="black" stroke="black" stroke-width="0.45" stroke-miterlimit="10"/>
<path d="M118.839 98.8145C118.839 98.5015 118.737 98.2732 118.593 98.2266C118.225 98.1082 117.735 97.9475 117.363 97.8291C117.506 97.8756 117.608 98.104 117.608 98.417V98.8991C117.608 99.2966 117.443 99.6773 117.24 99.7534L74.8165 115.194C74.7742 115.211 74.7319 115.211 74.6938 115.194C75.0618 115.313 75.5524 115.473 75.9246 115.592C75.9626 115.605 76.0049 115.605 76.0472 115.592L118.471 100.151C118.674 100.075 118.839 99.6942 118.839 99.2966V98.8145Z" fill="#B3B3B3" stroke="black" stroke-width="0.45" stroke-miterlimit="10"/>
</g>
<path d="M118.548 105.439L118.55 105.438C118.739 105.367 118.863 105.182 118.938 105.01C119.017 104.826 119.064 104.601 119.064 104.373V103.891C119.064 103.667 119.018 103.455 118.922 103.301C118.872 103.223 118.803 103.149 118.708 103.106C118.607 103.06 118.497 103.057 118.393 103.096C118.393 103.096 118.392 103.096 118.392 103.096L75.9683 118.54C75.9679 118.54 75.9676 118.54 75.9672 118.541C75.7753 118.609 75.6512 118.796 75.5784 118.967C75.5001 119.151 75.4547 119.375 75.4547 119.602V120.084C75.4547 120.307 75.5005 120.518 75.5969 120.672C75.6457 120.75 75.715 120.824 75.8098 120.868C75.9098 120.915 76.0203 120.918 76.1254 120.879C76.1258 120.879 76.1262 120.879 76.1266 120.879L118.548 105.439Z" fill="white" stroke="black" stroke-width="0.45" stroke-miterlimit="10"/>
<mask id="mask3_205_15840" style="mask-type:alpha" maskUnits="userSpaceOnUse" x="75" y="103" width="44" height="18">
<path d="M118.471 103.307C118.674 103.231 118.839 103.493 118.839 103.891V104.373C118.839 104.77 118.674 105.151 118.471 105.227L76.0476 120.668C75.8446 120.744 75.6797 120.478 75.6797 120.084V119.602C75.6797 119.205 75.8404 118.824 76.0434 118.752L118.471 103.307Z" fill="white"/>
</mask>
<g mask="url(#mask3_205_15840)">
<path d="M117.241 102.911C117.444 102.834 117.609 103.097 117.609 103.494V103.976C117.609 104.374 117.444 104.755 117.241 104.831L74.8172 120.272C74.6142 120.348 74.4492 120.081 74.4492 119.688V119.206C74.4492 118.808 74.6099 118.428 74.8129 118.356L117.241 102.911Z" fill="black" stroke="black" stroke-width="0.45" stroke-miterlimit="10"/>
<path d="M118.839 103.892C118.839 103.579 118.737 103.35 118.593 103.304C118.225 103.185 117.735 103.025 117.363 102.906C117.506 102.953 117.608 103.181 117.608 103.494V103.976C117.608 104.374 117.443 104.754 117.24 104.831L74.8165 120.271C74.7742 120.288 74.7319 120.288 74.6938 120.271C75.0618 120.39 75.5524 120.551 75.9246 120.669C75.9626 120.682 76.0049 120.682 76.0472 120.669L118.471 105.228C118.674 105.152 118.839 104.771 118.839 104.374V103.892Z" fill="#B3B3B3" stroke="black" stroke-width="0.45" stroke-miterlimit="10"/>
</g>
</g>
<mask id="mask4_205_15840" style="mask-type:alpha" maskUnits="userSpaceOnUse" x="38" y="8" width="59" height="75">
<path d="M87.6439 23.0774C82.494 20.7642 77.654 16.8682 73.6741 11.832C73.0863 11.0638 72.4576 10.3406 71.7943 9.66962C71.3929 9.27608 70.9351 8.9958 70.4674 8.85731C69.9998 8.71882 69.6537 8.77269 69.1319 8.88116C67.6433 9.19058 63.0582 10.2147 62.4276 10.6964C59.6727 12.5982 61.1914 13.1217 57.8068 13.4408C56.3329 13.5797 54.8162 13.5646 53.2715 13.3917C51.2309 13.1772 49.1705 12.7831 47.1067 12.2125C46.7912 12.1091 46.4796 12.0866 46.192 12.1425C45.9843 12.1829 39.2802 13.9315 39.1052 14.0529C38.6879 14.3425 41.4707 16.2234 41.395 16.831C41.3481 17.2555 44.1641 17.3518 44.1562 17.7907C44.1592 19.6131 44.7496 18.7142 44.7303 20.5302C44.681 25.1734 44.6316 29.816 44.9553 34.5617C45.1665 37.9535 45.6123 41.3855 46.2883 44.823C47.6785 51.7148 50.173 58.221 54.1685 64.2237C58.5249 70.7457 62.5751 73.8565 68.4504 77.893C68.8983 78.201 64.524 81.8771 64.9719 81.8218C68.4607 81.4187 77.9586 78.7175 81.0539 77.254C85.7821 75.0284 89.5881 71.1016 92.0611 65.8977C94.6878 60.3599 95.6599 53.8838 96.0423 47.0911C96.1852 44.5515 96.1924 41.9653 96.1531 39.3702C96.1333 38.0554 96.1375 36.7508 96.1416 35.4486C96.1495 32.9846 96.1573 30.5288 96.003 28.0273C95.9695 27.4641 95.7578 26.886 95.4104 26.4093C95.0629 25.9325 94.6056 25.5926 94.1303 25.4578C91.9593 24.8563 89.7908 24.0605 87.6439 23.0774Z" fill="#B8A9A9" stroke="black" stroke-width="0.75"/>
</mask>
<g mask="url(#mask4_205_15840)">
<path d="M87.6439 23.0774C82.494 20.7642 77.654 16.8682 73.6741 11.832C73.0863 11.0638 72.4576 10.3406 71.7943 9.66962C71.3929 9.27608 70.9351 8.9958 70.4674 8.85731C69.9998 8.71882 69.6537 8.77269 69.1319 8.88116C67.6433 9.19058 63.0582 10.2147 62.4276 10.6964C59.6727 12.5982 61.1914 13.1217 57.8068 13.4408C56.3329 13.5797 54.8162 13.5646 53.2715 13.3917C51.2309 13.1772 49.1705 12.7831 47.1067 12.2125C46.7912 12.1091 46.4796 12.0866 46.192 12.1425C45.9843 12.1829 39.2802 13.9315 39.1052 14.0529C38.6879 14.3425 41.4707 16.2234 41.395 16.831C41.3481 17.2555 44.1641 17.3518 44.1562 17.7907C44.1592 19.6131 44.7496 18.7142 44.7303 20.5302C44.681 25.1734 44.6316 29.816 44.9553 34.5617C45.1665 37.9535 45.6123 41.3855 46.2883 44.823C47.6785 51.7148 50.173 58.221 54.1685 64.2237C58.5249 70.7457 62.5751 73.8565 68.4504 77.893C68.8983 78.201 64.524 81.8771 64.9719 81.8218C68.4607 81.4187 77.9586 78.7175 81.0539 77.254C85.7821 75.0284 89.5881 71.1016 92.0611 65.8977C94.6878 60.3599 95.6599 53.8838 96.0423 47.0911C96.1852 44.5515 96.1924 41.9653 96.1531 39.3702C96.1333 38.0554 96.1375 36.7508 96.1416 35.4486C96.1495 32.9846 96.1573 30.5288 96.003 28.0273C95.9695 27.4641 95.7578 26.886 95.4104 26.4093C95.0629 25.9325 94.6056 25.5926 94.1303 25.4578C91.9593 24.8563 89.7908 24.0605 87.6439 23.0774Z" fill="#B3B3B3" stroke="black" stroke-width="0.75"/>
<path d="M89.6482 32.1199L97.1293 29.4258L96.2661 61.6521L89.6482 75.943L69.123 82.9445L68.4517 80.9304L88.6891 58.9666L89.6482 32.1199Z" fill="black"/>
<path d="M97.2625 27.8928L90.3218 30.3631L89.4326 29.0739L96.1551 26.624L97.2625 27.8928Z" fill="black"/>
<path d="M92.6774 24.9349L85.122 27.7372L70.617 16.8698L63.9707 9.82138L70.6171 7.4668L92.6774 24.9349Z" fill="black"/>
<path d="M51.5913 12.1953L43.4424 14.9813L52.7057 16.026L61.2029 12.1953H51.5913Z" fill="black"/>
<path d="M82.2524 24.1989C77.0079 21.8433 72.0791 17.8757 68.0262 12.7471C67.4276 11.9647 66.7874 11.2283 66.1119 10.545C65.7031 10.1442 65.2369 9.85883 64.7606 9.7178C64.2844 9.57676 63.8151 9.58514 63.4006 9.74208C62.6696 10.0694 61.9792 10.4806 61.3371 10.9711C57.3099 13.7513 52.4343 14.9156 47.2491 14.3354C45.1711 14.1169 43.0729 13.7156 40.9712 13.1346C40.4179 12.9532 39.8762 13.0161 39.4513 13.311C39.0263 13.6058 38.7483 14.1117 38.6712 14.7305C38.6234 15.1628 38.5954 15.6033 38.5874 16.0503C38.5905 17.9061 38.5709 19.7555 38.5512 21.6049C38.5009 26.3333 38.4507 31.0611 38.7803 35.8939C38.9954 39.348 39.4494 42.843 40.1378 46.3435C41.5535 53.3619 44.0938 59.9875 48.1626 66.1003C52.599 72.742 58.0544 77.7241 64.0375 81.8347C64.4936 82.1483 64.9898 82.2882 65.4459 82.2319C68.9987 81.8214 72.3893 80.8601 75.5415 79.3698C80.3564 77.1033 84.2323 73.1044 86.7507 67.805C89.4256 62.1656 90.4155 55.5707 90.8049 48.6533C90.9505 46.0671 90.9578 43.4335 90.9177 40.7907C90.8976 39.4518 90.9018 38.1233 90.9061 36.7971C90.9141 34.2879 90.922 31.7871 90.7649 29.2396C90.7308 28.6661 90.5152 28.0774 90.1614 27.5919C89.8076 27.1064 89.3418 26.7602 88.8579 26.623C86.647 26.0104 84.4387 25.2 82.2524 24.1989Z" fill="#B3B3B3" stroke="black" stroke-width="0.75"/>
<mask id="mask5_205_15840" style="mask-type:alpha" maskUnits="userSpaceOnUse" x="38" y="9" width="54" height="74">
<path d="M82.2524 24.1999C77.008 21.8442 72.0791 17.8767 68.0262 12.7481C67.4276 11.9657 66.7874 11.2293 66.1119 10.546C65.7031 10.1452 65.2369 9.85981 64.7606 9.71877C64.2844 9.57774 63.8151 9.58612 63.4006 9.74306C62.6696 10.0704 61.9792 10.4816 61.3371 10.9721C57.3099 13.7523 52.4343 14.9166 47.2491 14.3364C45.1711 14.1179 43.0729 13.7166 40.9712 13.1355C40.4179 12.9542 39.8762 13.0171 39.4513 13.3119C39.0263 13.6068 38.7483 14.1127 38.6712 14.7315C38.6234 15.1638 38.5954 15.6043 38.5874 16.0512C38.5905 17.9071 38.5709 19.7565 38.5512 21.6059C38.5009 26.3343 38.4507 31.0621 38.7803 35.8949C38.9954 39.349 39.4494 42.844 40.1378 46.3445C41.5535 53.3629 44.0938 59.9884 48.1626 66.1013C52.599 72.743 58.0544 77.725 64.0375 81.8356C64.4936 82.1492 64.9898 82.2892 65.4459 82.2329C68.9987 81.8224 72.3894 80.8611 75.5415 79.3708C80.3564 77.1043 84.2323 73.1054 86.7507 67.806C89.4256 62.1666 90.4155 55.5717 90.8049 48.6543C90.9505 46.0681 90.9578 43.4344 90.9177 40.7917C90.8976 39.4527 90.9018 38.1242 90.9061 36.7981C90.9141 34.2889 90.922 31.788 90.7649 29.2406C90.7308 28.6671 90.5152 28.0784 90.1614 27.5929C89.8076 27.1074 89.3418 26.7612 88.8579 26.624C86.647 26.0114 84.4387 25.2009 82.2524 24.1999Z" fill="#B8A9A9" stroke="black" stroke-width="0.75"/>
</mask>
<g mask="url(#mask5_205_15840)">
<path d="M85.9126 28.8823L91.2912 26.8555L91.2912 35.1198L88.523 36.0826L85.9126 28.8823Z" fill="white"/>
<path d="M88.5229 37.8906L90.9963 37.0225L91.2911 38.1411L88.5229 39.1475V37.8906Z" fill="white"/>
<path d="M80.5327 70.724L86.3011 68.6035L83.3008 75.3538L75.4844 78.2759L80.5327 70.724Z" fill="white"/>
<path d="M62.752 10.6231L65.7845 9.6123L69.4804 13.8136L66.4794 14.9192L62.752 10.6231Z" fill="white"/>
</g>
<path d="M82.2524 24.1989C77.0079 21.8433 72.0791 17.8757 68.0262 12.7471C67.4276 11.9647 66.7874 11.2283 66.1119 10.545C65.7031 10.1442 65.2369 9.85883 64.7606 9.7178C64.2844 9.57676 63.8151 9.58514 63.4006 9.74208C62.6696 10.0694 61.9792 10.4806 61.3371 10.9711C57.3099 13.7513 52.4343 14.9156 47.2491 14.3354C45.1711 14.117 43.0729 13.7156 40.9712 13.1346C40.4179 12.9532 39.8762 13.0161 39.4513 13.311C39.0263 13.6058 38.7483 14.1117 38.6712 14.7305C38.6234 15.1628 38.5954 15.6033 38.5874 16.0503C38.5905 17.9061 38.5709 19.7555 38.5512 21.6049C38.5009 26.3333 38.4507 31.0611 38.7803 35.8939C38.9954 39.348 39.4494 42.843 40.1378 46.3435C41.5535 53.3619 44.0938 59.9875 48.1626 66.1004C52.599 72.742 58.0544 77.7241 64.0375 81.8347C64.4936 82.1483 64.9898 82.2882 65.4459 82.2319C68.9987 81.8214 72.3893 80.8601 75.5414 79.3698C80.3564 77.1033 84.2323 73.1044 86.7507 67.805C89.4256 62.1657 90.4155 55.5707 90.8049 48.6533C90.9505 46.0671 90.9578 43.4335 90.9177 40.7907C90.8976 39.4518 90.9018 38.1233 90.906 36.7971C90.914 34.2879 90.922 31.7871 90.7649 29.2396C90.7308 28.6661 90.5152 28.0774 90.1614 27.5919C89.8076 27.1064 89.3418 26.7602 88.8579 26.623C86.647 26.0104 84.4387 25.2 82.2524 24.1989Z" stroke="black" stroke-width="0.75"/>
<path d="M87.6439 23.0774C82.494 20.7642 77.654 16.8682 73.6741 11.832C73.0863 11.0638 72.4576 10.3406 71.7943 9.66962C71.3929 9.27608 70.9351 8.9958 70.4674 8.85731C69.9998 8.71882 69.6537 8.77269 69.1319 8.88116C67.6433 9.19058 63.0582 10.2147 62.4276 10.6964C59.6727 12.5982 61.1914 13.1217 57.8068 13.4408C56.3329 13.5797 54.8162 13.5646 53.2715 13.3917C51.2309 13.1772 49.1705 12.7831 47.1067 12.2125C46.7912 12.1091 46.4796 12.0866 46.192 12.1425C45.9843 12.1829 39.2802 13.9315 39.1052 14.0529C38.6879 14.3425 41.4707 16.2234 41.395 16.831C41.3481 17.2556 44.1641 17.3518 44.1562 17.7907C44.1592 19.6131 44.7496 18.7142 44.7303 20.5302C44.681 25.1734 44.6316 29.816 44.9553 34.5617C45.1665 37.9535 45.6123 41.3855 46.2883 44.823C47.6785 51.7148 50.173 58.221 54.1685 64.2237C58.5249 70.7457 62.5751 73.8565 68.4504 77.893C68.8983 78.201 64.524 81.8771 64.9719 81.8218C68.4607 81.4187 77.9586 78.7175 81.0539 77.254C85.7821 75.0284 89.5881 71.1016 92.0611 65.8977C94.6878 60.3599 95.6599 53.8838 96.0423 47.0911C96.1852 44.5515 96.1924 41.9653 96.1531 39.3702C96.1333 38.0554 96.1375 36.7508 96.1416 35.4486C96.1495 32.9846 96.1573 30.5288 96.003 28.0273C95.9695 27.4641 95.7578 26.886 95.4104 26.4093C95.0629 25.9325 94.6056 25.5926 94.1303 25.4578C91.9593 24.8563 89.7908 24.0605 87.6439 23.0774Z" stroke="black" stroke-width="0.75"/>
</g>
<path d="M80.7513 24.9276C75.6013 22.6144 70.7613 18.7183 66.7814 13.6822C66.1936 12.9139 65.5649 12.1907 64.9016 11.5197C64.5002 11.1262 64.0424 10.8459 63.5747 10.7074C63.1071 10.5689 62.6463 10.5772 62.2392 10.7313C61.5214 11.0527 60.8434 11.4565 60.2129 11.9382C56.2582 14.6682 51.4706 15.8116 46.3788 15.2419C44.3382 15.0273 42.2779 14.6332 40.2141 14.0626C39.6707 13.8846 39.1388 13.9463 38.7215 14.2358C38.3042 14.5254 38.0312 15.0221 37.9554 15.6298C37.9085 16.0543 37.8811 16.4869 37.8732 16.9258C37.8763 18.7482 37.857 20.5643 37.8377 22.3803C37.7883 27.0235 37.739 31.6661 38.0627 36.4118C38.2738 39.8036 38.7196 43.2357 39.3957 46.6731C40.7859 53.565 43.2804 60.0711 47.2758 66.0738C51.6322 72.5958 56.9893 77.4881 62.8646 81.5246C63.3125 81.8325 63.7997 81.97 64.2476 81.9146C67.7364 81.5115 71.066 80.5676 74.1613 79.1041C78.8894 76.8785 82.6955 72.9517 85.1685 67.7478C87.7952 62.2101 88.7672 55.7339 89.1496 48.9412C89.2926 46.4017 89.2997 43.8155 89.2604 41.2203C89.2406 39.9055 89.2448 38.601 89.249 37.2987C89.2568 34.8347 89.2646 32.379 89.1103 29.8774C89.0769 29.3143 88.8652 28.7361 88.5177 28.2594C88.1703 27.7827 87.7129 27.4427 87.2377 27.3079C85.0666 26.7064 82.8981 25.9106 80.7513 24.9276Z" fill="white" stroke="black" stroke-width="0.75"/>
<path d="M43.8741 25.0272C43.8764 26.3736 43.8616 27.7152 43.8468 29.0567C43.809 32.4867 43.7712 35.9163 44.0192 39.4248C44.181 41.9323 44.5227 44.4714 45.0406 47.0161C46.9807 54.051 52.1611 68.2951 63.0234 74.8689C63.3666 75.0998 63.7399 75.2051 64.0831 75.1677C78.7021 74.8689 82.7489 57.0899 83.164 49.0769C83.2735 47.2018 83.279 45.2912 83.2489 43.3736C83.2337 42.4021 83.2369 41.4383 83.2401 40.4763L83.2402 40.4382C83.2462 38.6344 83.2513 37.0941 83.1339 35.2577C83.0807 34.2053 82.1551 33.3671 81.699 33.0796C81.699 33.0796 70.7189 26.2784 63.6833 24.2966C56.6478 22.3148 45.6677 22.9301 45.6677 22.9301C45.0699 22.9783 43.8741 23.4653 43.8741 25.0272Z" fill="#F66754" stroke="black" stroke-width="0.75"/>
<path d="M68.1037 38.9529C68.6043 39.1253 69.1012 39.563 69.4716 40.2223C70.2122 41.5428 70.1725 43.2536 69.3809 44.0436L64.7236 48.7042L69.088 56.4794C69.8286 57.7999 69.789 59.5088 68.9973 60.3007C68.6024 60.6967 68.0942 60.7876 67.5935 60.6133C67.0928 60.439 66.5959 60.0033 66.2256 59.344L61.8612 51.5687L57.2039 56.2293C56.809 56.6253 56.3007 56.7162 55.8001 56.5419C55.2994 56.3676 54.8025 55.9319 54.4322 55.2726C53.6915 53.9521 53.7312 52.2432 54.5228 51.4513L59.1801 46.7907L54.8176 39.0155C54.077 37.6969 54.1166 35.9842 54.9083 35.1942C55.3032 34.7982 55.8114 34.7091 56.3121 34.8816C56.8128 35.054 57.3097 35.4916 57.68 36.1509L62.0425 43.9261L66.6998 39.2655C67.0947 38.8715 67.603 38.7805 68.1037 38.9529Z" fill="black"/>
<path d="M10.6536 52.5464L6.72324 44.5455L10.674 37.3758L20.0146 36.1081L23.9448 44.1085L19.9947 51.277L10.6536 52.5464Z" fill="white" stroke="black" stroke-width="0.75"/>
<mask id="mask6_205_15840" style="mask-type:alpha" maskUnits="userSpaceOnUse" x="6" y="35" width="19" height="18">
<path d="M10.6541 52.5464L6.72373 44.5455L10.6745 37.3758L20.0151 36.1081L23.9453 44.1085L19.9952 51.277L10.6541 52.5464Z" fill="white" stroke="black" stroke-width="0.75"/>
</mask>
<g mask="url(#mask6_205_15840)">
<path d="M16.1992 43.3222L20.1799 35.8174L24.2365 44.1082L20.1799 51.537L16.1992 43.3222Z" fill="#D9D9D9"/>
<path d="M20.2209 35.7539L16.2244 43.3116M16.2244 43.3116L6.40529 44.5725M16.2244 43.3116L20.1194 51.4911" stroke="black" stroke-width="0.75"/>
</g>
<path d="M8.57178 45.654L15.1417 44.8125L16.271 47.2365L9.70101 48.078L8.57178 45.654Z" fill="black"/>
<path d="M10.145 49.0504L16.715 48.209L17.8442 50.633L11.2742 51.4744L10.145 49.0504Z" fill="black"/>
<path d="M9.96484 46.4949L10.9435 46.3769" stroke="#F66754" stroke-width="1.5" stroke-linecap="round"/>
<path d="M12.2529 46.1607L14.4552 45.9092" stroke="#F66754" stroke-width="1.5" stroke-linecap="round"/>
<path d="M12.751 49.7126L13.7297 49.5947" stroke="#F66754" stroke-width="1.5" stroke-linecap="round"/>
<path d="M14.9893 49.3845L15.9679 49.2666" stroke="#F66754" stroke-width="1.5" stroke-linecap="round"/>
<path d="M10.6536 52.5464L6.72324 44.5455L10.674 37.3758L20.0146 36.1081L23.9448 44.1085L19.9947 51.277L10.6536 52.5464Z" stroke="black" stroke-width="0.75"/>
<path d="M131.688 65.7963L131.823 78.0157L122.711 84.5412L110.419 80.5937L110.285 68.375L119.395 61.8506L131.688 65.7963Z" fill="#D9D9D9" stroke="black" stroke-width="0.75"/>
<mask id="mask7_205_15840" style="mask-type:alpha" maskUnits="userSpaceOnUse" x="109" y="61" width="24" height="24">
<path d="M131.688 65.7963L131.823 78.0157L122.711 84.5412L110.419 80.5937L110.285 68.375L119.395 61.8506L131.688 65.7963Z" fill="#EBE9E9" stroke="black" stroke-width="0.75"/>
</mask>
<g mask="url(#mask7_205_15840)">
<path d="M119.412 73.9164L110.179 80.7547L110.062 68.2719L119.343 61.5708L119.412 73.9164Z" fill="white"/>
<path d="M110.093 80.8076L119.376 73.914M119.376 73.914L132.094 78.0993M119.376 73.914L119.391 61.6614" stroke="black" stroke-width="0.75"/>
</g>
<path d="M130.081 75.517L121.573 72.714L121.608 69.0976L130.116 71.9006L130.081 75.517Z" fill="black"/>
<path d="M130.141 70.4545L121.633 67.6515L121.668 64.0351L130.176 66.8381L130.141 70.4545Z" fill="black"/>
<path d="M128.873 73.6784L127.61 73.2518" stroke="#F66754" stroke-width="1.5" stroke-linecap="round"/>
<path d="M125.883 72.7527L123.049 71.7758" stroke="#F66754" stroke-width="1.5" stroke-linecap="round"/>
<path d="M127.348 68.1266L126.085 67.7" stroke="#F66754" stroke-width="1.5" stroke-linecap="round"/>
<path d="M124.424 67.2213L123.161 66.7947" stroke="#F66754" stroke-width="1.5" stroke-linecap="round"/>
<path d="M131.688 65.7963L131.823 78.0157L122.711 84.5412L110.419 80.5937L110.285 68.375L119.395 61.8506L131.688 65.7963Z" stroke="black" stroke-width="0.75"/>
<path d="M117.539 130.796L124.426 128.289C125.704 127.825 125.704 127.064 124.426 126.599L116.506 123.717L117.539 130.796Z" fill="black"/>
<path d="M117.521 130.411L117.503 130.415L117.486 130.421L113.504 131.851C112.506 132.209 111.612 131.115 112.162 130.208L116.763 122.628C117.353 121.655 118.849 122.074 118.849 123.212V127.933C118.849 129.719 117.879 130.32 117.521 130.411Z" fill="#D9D9D9" stroke="black" stroke-width="0.75"/>
<path d="M107.69 117.51C108.346 116.44 109.667 115.982 110.844 116.416L116.211 118.396C117.762 118.968 118.402 120.814 117.537 122.224L112.051 131.175C111.395 132.245 110.074 132.704 108.897 132.269L103.529 130.289C101.978 129.717 101.339 127.872 102.203 126.461L107.69 117.51Z" fill="white" stroke="black" stroke-width="0.75"/>
<mask id="mask8_205_15840" style="mask-type:alpha" maskUnits="userSpaceOnUse" x="101" y="115" width="18" height="18">
<path d="M107.69 117.51C108.346 116.44 109.667 115.982 110.844 116.416L116.211 118.396C117.762 118.968 118.402 120.814 117.537 122.224L112.051 131.175C111.395 132.245 110.074 132.704 108.897 132.269L103.529 130.289C101.978 129.717 101.339 127.872 102.203 126.461L107.69 117.51Z" fill="white" stroke="black" stroke-width="0.75"/>
</mask>
<g mask="url(#mask8_205_15840)">
<path d="M106.513 122.987C107.168 121.914 108.491 121.453 109.67 121.888L110.923 122.35C112.472 122.921 113.112 124.762 112.253 126.172L109.271 131.065C108.617 132.138 107.293 132.599 106.114 132.164L104.861 131.702C103.312 131.131 102.672 129.29 103.531 127.88L106.513 122.987Z" fill="white" stroke="black" stroke-width="0.75"/>
<path d="M107.69 117.51C108.346 116.44 109.667 115.982 110.844 116.416L116.211 118.396C117.762 118.968 118.402 120.814 117.537 122.224L112.051 131.175C111.395 132.245 110.074 132.704 108.897 132.269L103.529 130.289C101.978 129.717 101.339 127.872 102.203 126.461L107.69 117.51Z" stroke="black" stroke-width="0.75"/>
</g>
<ellipse cx="1.11439" cy="1.48586" rx="1.11439" ry="1.48586" transform="matrix(0.948827 0.315795 -0.315794 0.948828 108.22 123.689)" fill="black"/>
<path d="M31.0024 79.7295V85.2836C31.0024 86.0311 29.3454 86.6316 27.2997 86.6316C25.254 86.6316 23.597 86.0286 23.597 85.2836V79.7295H31.0024Z" fill="black"/>
<path d="M32.2007 80.1836V83.7468C32.2007 84.731 30.0055 85.5284 27.2995 85.5284C24.5934 85.5284 22.4007 84.731 22.4007 83.7468V80.1836H32.2007Z" fill="white" stroke="black" stroke-width="0.75" stroke-miterlimit="10"/>
<path d="M26.6006 80.124V85.5112" stroke="#D9D9D9" stroke-width="0.75" stroke-miterlimit="10"/>
<path d="M32.2007 80.1836V83.7468C32.2007 84.731 30.0055 85.5284 27.2995 85.5284V80.1836H32.2007Z" fill="#D9D9D9"/>
<path d="M32.2007 80.1836V83.7468C32.2007 84.731 30.0055 85.5284 27.2995 85.5284C24.5934 85.5284 22.4007 84.731 22.4007 83.7468V80.1836H32.2007Z" stroke="black" stroke-width="0.75" stroke-miterlimit="10" stroke-linecap="round"/>
<path d="M27.299 81.9676C24.5935 81.9676 22.4002 81.1688 22.4002 80.1835C22.4002 79.1982 24.5935 78.3994 27.299 78.3994C30.0045 78.3994 32.1978 79.1982 32.1978 80.1835C32.1978 81.1688 30.0045 81.9676 27.299 81.9676Z" fill="white" stroke="black" stroke-width="0.75" stroke-miterlimit="10" stroke-linecap="round"/>
<path d="M27.2993 80.8787C26.2452 80.8787 25.3906 80.5674 25.3906 80.1835C25.3906 79.7995 26.2452 79.4883 27.2993 79.4883C28.3535 79.4883 29.208 79.7995 29.208 80.1835C29.208 80.5674 28.3535 80.8787 27.2993 80.8787Z" fill="black"/>
<path fill-rule="evenodd" clip-rule="evenodd" d="M31.1472 69.65C29.4094 69.65 28.0006 71.0588 28.0006 72.7966V79.8C28.0006 80.1866 27.6872 80.5 27.3006 80.5C26.914 80.5 26.6006 80.1866 26.6006 79.8V72.7966C26.6006 70.2856 28.6362 68.25 31.1472 68.25C33.3144 68.25 35.1804 69.7797 35.6054 71.9049L37.228 80.0177C38.1712 84.7336 41.5976 88.567 46.1785 90.0314L73.8845 98.8883C78.5906 100.393 82.2262 104.161 83.5615 108.917L84.6874 112.928C86.0973 117.951 90.3137 121.686 95.4701 122.479L109.307 124.608C109.689 124.667 109.951 125.024 109.892 125.406C109.834 125.789 109.476 126.051 109.094 125.992L95.2572 123.863C89.5581 122.986 84.8978 118.858 83.3395 113.307L82.2136 109.296C81.0055 104.992 77.7162 101.583 73.4582 100.222L45.7522 91.3649C40.6869 89.7457 36.8981 85.5068 35.8552 80.2923L34.2326 72.1795C33.9385 70.7087 32.6471 69.65 31.1472 69.65Z" fill="black"/>
<path fill-rule="evenodd" clip-rule="evenodd" d="M27.3007 72.6689C27.494 72.6689 27.6507 72.8256 27.6507 73.0189V74.3752C27.6507 74.5685 27.494 74.7252 27.3007 74.7252C27.1074 74.7252 26.9507 74.5685 26.9507 74.3752V73.0189C26.9507 72.8256 27.1074 72.6689 27.3007 72.6689ZM27.3007 75.3814C27.494 75.3814 27.6507 75.5381 27.6507 75.7314V79.8002C27.6507 79.9935 27.494 80.1502 27.3007 80.1502C27.1074 80.1502 26.9507 79.9935 26.9507 79.8002V75.7314C26.9507 75.5381 27.1074 75.3814 27.3007 75.3814ZM64.5048 96.6249C64.5637 96.4408 64.7606 96.3392 64.9448 96.3981L70.2823 98.1043C70.4664 98.1632 70.5679 98.3601 70.5091 98.5443C70.4502 98.7284 70.2532 98.8299 70.0691 98.7711L64.7316 97.0648C64.5475 97.006 64.4459 96.809 64.5048 96.6249ZM101.636 124.153C101.666 123.962 101.844 123.831 102.036 123.861L103.589 124.101C103.78 124.131 103.911 124.31 103.881 124.501C103.851 124.692 103.672 124.823 103.481 124.793L101.928 124.552C101.737 124.523 101.606 124.344 101.636 124.153ZM104.742 124.634C104.772 124.443 104.951 124.312 105.142 124.342L108.248 124.823C108.439 124.853 108.57 125.032 108.54 125.223C108.511 125.414 108.332 125.544 108.141 125.515L105.035 125.034C104.844 125.004 104.713 124.825 104.742 124.634Z" fill="#F66754"/>
</svg>
