<svg fill="none" height="25" viewBox="0 0 129 25" width="129" xmlns="http://www.w3.org/2000/svg" xmlns:xlink="http://www.w3.org/1999/xlink"><clipPath id="a"><path d="m.030762 0h128v25h-128z"/></clipPath><g clip-path="url(#a)"><g fill="#28cd96"><path d="m80.2442 12.4629v1.7039c-.014.3715-.054.7416-.1198 1.1076-.0407.2411-.1126.4759-.2138.6986-.0889.1806-.2042.3472-.3421.4941-.2074.2371-.4643.4261-.7527.5538-.3244.1377-.6739.2073-1.0265.2045-.3552.0014-.7071-.0682-1.035-.2045-.2948-.125-.5579-.3142-.7698-.5538-.138-.1451-.2507-.3121-.3336-.4941-.1044-.2215-.1765-.4567-.2138-.6986-.0589-.3665-.0932-.7365-.1026-1.1076 0-.4515 0-1.0138 0-1.7039s0-1.2439 0-1.704c.009-.3682.0433-.7354.1026-1.099.0365-.24478.1086-.48297.2138-.70713.085-.18088.1975-.34757.3336-.49415.2119-.23951.475-.42874.7698-.55378.3266-.1403.6794-.20998 1.035-.20447.353-.0064.7031.06334 1.0265.20447.2884.1277.5453.31672.7527.55378.136.14849.2511.31473.3421.49415.1011.22572.173.46334.2138.70713.0665.363.1065.7303.1198 1.099zm2.7885 0c0-.6134 0-1.1843 0-1.704-.0143-.5029-.0657-1.00405-.154-1.49942-.0772-.45204-.2183-.8909-.4191-1.30352-.218-.42869-.5072-.81757-.8554-1.15016-.4861-.49482-1.0682-.88612-1.7107-1.15017-.6839-.27824-1.4168-.41729-2.1555-.40894-.7442-.00833-1.4827.13067-2.1726.40894-.6408.26731-1.2222.6582-1.7107 1.15017-.3482.33259-.6374.72147-.8554 1.15016-.1942.41448-.3322.85282-.4105 1.30352-.081.49616-.1296.99702-.1454 1.49942v1.704 1.7039c.0154.5025.064 1.0034.1454 1.4995.0783.4507.2163.889.4105 1.3035.2165.4296.5059.8187.8554 1.1502.4885.4919 1.0699.8828 1.7107 1.1501.6899.2783 1.4284.4173 2.1726.409.7387.0083 1.4716-.1307 2.1555-.409.6425-.264 1.2246-.6553 1.7107-1.1501.3495-.3315.6389-.7206.8554-1.1502.2008-.4126.3419-.8515.4191-1.3035.0886-.4953.1401-.9965.154-1.4995 0-.5197.0085-1.0905 0-1.7039z"/><path d="m105.255 5.59596c0-.06553-.026-.12838-.073-.17471-.046-.04634-.109-.07237-.175-.07237h-2.293c-.065 0-.128.02603-.175.07237-.046.04633-.073.10918-.073.17471v8.46854l-5.6107-8.63894c0-.05963-.0684-.07668-.154-.07668h-2.1041c-.0658 0-.1289.02603-.1754.07237-.0466.04633-.0727.10918-.0727.17471v13.73374c0 .0655.0261.1284.0727.1747.0465.0464.1096.0724.1754.0724h2.3009c.0643-.0022.1252-.0292.1699-.0753s.0696-.1077.0696-.1718v-8.5197l5.6114 8.6645c.042.0597.068.0682.154.0682h2.13c.065 0 .128-.026.175-.0724.046-.0463.073-.1091.073-.1747z"/><path d="m89.5848 5.35742h-2.2923c-.137 0-.2481.11062-.2481.24707v13.72521c0 .1365.1111.2471.2481.2471h2.2923c.137 0 .2481-.1106.2481-.2471v-13.72521c0-.13645-.1111-.24707-.2481-.24707z"/><path d="m62.3247 12.4628c0-.6816 0-1.2524 0-1.704.0095-.371.0438-.741.1026-1.10755.0949-.44968.3167-.86299.6395-1.19127.3228-.32829.733-.55787 1.1824-.66172.4494-.10384.9192-.07763 1.3541.07557s.8169.42699 1.1008.78914c.2075.30589.3581.6464.4448 1.00532.0039.01726.0138.03264.0278.04351s.0314.01658.0492.01613h2.7029c.0428 0 .0599 0 .0513-.06816-.1077-.82609-.4166-1.61344-.8996-2.29351s-1.1256-1.23226-1.8717-1.60851c-.7732-.36023-1.6185-.54086-2.472-.52823-.7145-.01557-1.4245.11473-2.0865.38286-.662.26814-1.2619.66844-1.7626 1.17625-.5957.57946-1.0012 1.32499-1.1633 2.13845-.3194 2.34642-.3194 4.72492 0 7.07132.1621.8135.5676 1.559 1.1633 2.1385.5007.5078 1.1006.9081 1.7626 1.1762.662.2682 1.372.3985 2.0865.3829.8535.0126 1.6988-.168 2.472-.5282.7461-.3763 1.3887-.9285 1.8717-1.6086.483-.68.7919-1.4674.8996-2.2935 0 0 0-.0681-.0513-.0681h-2.7029c-.0178-.0005-.0352.0052-.0492.0161s-.0239.0262-.0278.0435c-.085.3595-.2358.7003-.4448 1.0053-.2839.3622-.6659.636-1.1008.7892s-.9047.1794-1.3541.0756c-.4494-.1039-.8596-.3335-1.1824-.6618-.3228-.3282-.5446-.7416-.6395-1.1912-.0588-.3666-.0931-.7366-.1026-1.1076 0-.4516 0-1.0224 0-1.7039z"/><path d="m33.7474 5.596c0-.06553-.0261-.12837-.0726-.17471-.0465-.04633-.1096-.07237-.1754-.07237h-2.3009c-.0643.00221-.1252.02922-.1699.07532s-.0697.10768-.0696.17176v13.7338c-.0001.064.0249.1256.0696.1717s.1056.0731.1699.0753h2.3009c.0658 0 .1289-.026.1754-.0723.0465-.0464.0726-.1092.0726-.1747v-4.0299l1.839-2.198 3.7893 6.3982c.0144.0233.0346.0425.0585.0559.0239.0135.0509.0206.0783.0208h2.797c.1283 0 .154-.0852.0856-.1874l-4.9611-8.3834 4.5505-5.43556c.0941-.11076.0599-.22152-.0855-.22152h-3.0536c-.0191-.00203-.0383.00179-.0551.01092s-.0304.02316-.039.04021l-5.0039 5.96375z"/><path d="m50.4863 17.2168c-.6694-.0372-1.2987-.3296-1.7574-.8166-.4586-.487-.7115-1.1312-.7061-1.7989v-9.00534c0-.06553-.0261-.12838-.0726-.17471-.0465-.04634-.1096-.07237-.1754-.07237h-2.2924c-.0658 0-.1288.02603-.1754.07237-.0465.04633-.0726.10918-.0726.17471v8.97124c.0547 1.352.6325 2.6304 1.6122 3.5677s2.2855 1.4607 3.6439 1.4607c1.3585 0 2.6642-.5234 3.644-1.4607.9797-.9373 1.5574-2.2157 1.6122-3.5677v-8.97124c0-.06553-.0261-.12838-.0727-.17471-.0465-.04634-.1096-.07237-.1754-.07237h-2.3009c-.0642.00221-.1252.02922-.1699.07532-.0446.0461-.0696.10768-.0696.17176v8.97124c.0122.6744-.2386 1.3272-.6996 1.8213-.4609.4941-1.0962.791-1.7723.8283z"/><path d="m14.9978 10.4351c-.4026 0-.7962.119-1.131.3418-.3347.2228-.5957.5395-.7497.91-.1541.3705-.1944.7782-.1159 1.1715.0786.3933.2724.7547.5571 1.0382.2848.2836.6475.4767 1.0424.555.3949.0782.8042.038 1.1762-.1154.372-.1535.6899-.4134.9136-.7468.2237-.3335.3431-.7255.3431-1.1266 0-.5377-.2145-1.0535-.5963-1.4338-.3817-.3802-.8995-.5939-1.4395-.5939zm-7.14218 2.0277 7.13368 7.1055 4.5077-4.4814c.385-.3658.8986-.5669 1.4307-.5603.532.0067 1.0403.2206 1.416.5959s.5889.8822.594 1.4122-.1983 1.0409-.5667 1.4233l-5.9362 5.9638c-.3851.3752-.9025.5853-1.4412.5853-.5388 0-1.0561-.2101-1.4413-.5853l-8.55357-8.5197v5.1118c0 .5378-.21447 1.0536-.59625 1.4338-.38178.3803-.89958.5939-1.4395.5939-.53991 0-1.0577-.2136-1.43948-.5939-.38178-.3802-.596254-.896-.596254-1.4338v-15.99995c0-.53778.214474-1.05352.596254-1.43379.38178-.38026.89957-.59389 1.43948-.59389.53992 0 1.05772.21363 1.4395.59389.38178.38027.59625.89601.59625 1.43379v5.11182l8.55357-8.5197c.383-.379274.9012-.592154 1.4413-.592154s1.0582.21288 1.4412.592154l5.9362 5.91267c.3684.38243.5718.89333.5667 1.42331s-.2183 1.03691-.594 1.41223-.884.58922-1.416.59592c-.5321.0066-1.0457-.1945-1.4307-.56032l-4.5077-4.48136z"/></g><path d="m125.531 15.3339c.011-.579-.079-1.1555-.265-1.7039-.172-.4916-.466-.9314-.856-1.278-.315-.2944-.683-.5258-1.086-.6816-.514-.2015-1.051-.3361-1.599-.4004l-1.651-.2385c-.263-.0329-.52-.1047-.762-.213-.199-.0805-.384-.1927-.547-.3323-.139-.1343-.247-.2971-.316-.4771-.061-.16957-.093-.34814-.095-.52823.004-.30004.086-.59394.24-.85197.175-.27533.424-.49659.718-.63898.382-.17126.797-.25566 1.215-.24707.321-.00184.641.02095.958.06816.339.04585.67.13757.984.27263.196.08052.383.18344.556.30671.282.21299.419.27263.581.11927l1.36-1.34611c.027-.02157.049-.04883.064-.07978.014-.03096.022-.06482.022-.09913s-.008-.06818-.022-.09914c-.015-.03095-.037-.05822-.064-.07978-.33-.28602-.692-.53461-1.077-.74121-.465-.24774-.963-.42574-1.48-.52823-.583-.1165-1.176-.17359-1.771-.17039-.694-.0037-1.384.10272-2.044.31524-.567.17451-1.091.46465-1.54.85197-.422.36445-.754.82258-.966 1.33758-.229.5391-.345 1.11877-.342 1.70394-.016.53892.068 1.07602.248 1.58462.157.4464.415.8514.752 1.1843.331.318.72.5696 1.147.7412.503.2099 1.032.3504 1.573.4175l1.711.2385c.185.0252.368.0622.548.1108.136.0389.268.0932.393.1619.11.0591.211.1337.299.2215.15.1384.265.3108.334.5026.071.2173.105.4447.103.6731.012.2502-.04.4995-.151.7244-.11.225-.276.4184-.482.5621-.56.3234-1.202.4773-1.848.443-.424.0023-.848-.0348-1.266-.1108-.397-.0719-.783-.198-1.146-.3748-.312-.1401-.6-.3269-.855-.5538-.019-.0216-.042-.0389-.068-.0508-.025-.0119-.054-.018-.082-.018-.029 0-.057.0061-.083.018-.025.0119-.048.0292-.067.0508l-1.445 1.4313c-.103.1107-.129.2471.085.443.361.3336.764.62 1.198.852.538.2754 1.115.4705 1.71.5793.649.1203 1.308.1774 1.968.1704.694.0057 1.386-.089 2.053-.2811.598-.1805 1.157-.4693 1.65-.852.464-.3542.842-.8087 1.104-1.3291.266-.556.404-1.1645.402-1.7806z" fill="#12192d"/></g></svg>