<?xml version="1.0" encoding="UTF-8"?>
<svg width="40px" height="40px" viewBox="0 0 40 40" version="1.1" xmlns="http://www.w3.org/2000/svg" xmlns:xlink="http://www.w3.org/1999/xlink">
    <!-- Generator: Sketch 55.1 (78136) - https://sketchapp.com -->
    <title>杠杆通知栏图标</title>
    <desc>Created with Sketch.</desc>
    <defs>
        <linearGradient x1="50%" y1="50%" x2="50%" y2="100%" id="linearGradient-1">
            <stop stop-color="#FFFFFF" offset="0%"></stop>
            <stop stop-color="#FFFFFF" stop-opacity="0.95" offset="100%"></stop>
        </linearGradient>
    </defs>
    <g id="杠杆通知栏图标" stroke="none" stroke-width="1" fill="none" fill-rule="evenodd">
        <path d="M10.2555408,-4.14336123e-16 L29.7444592,4.14336123e-16 C33.3105342,-2.4074122e-16 34.6036791,0.371302445 35.9073828,1.06853082 C37.2110865,1.76575919 38.2342408,2.78891348 38.9314692,4.09261719 C39.6286976,5.39632089 40,6.68946584 40,10.2555408 L40,29.7444592 C40,33.3105342 39.6286976,34.6036791 38.9314692,35.9073828 C38.2342408,37.2110865 37.2110865,38.2342408 35.9073828,38.9314692 C34.6036791,39.6286976 33.3105342,40 29.7444592,40 L10.2555408,40 C6.68946584,40 5.39632089,39.6286976 4.09261719,38.9314692 C2.78891348,38.2342408 1.76575919,37.2110865 1.06853082,35.9073828 C0.371302445,34.6036791 1.60494146e-16,33.3105342 -2.76224082e-16,29.7444592 L2.76224082e-16,10.2555408 C-1.60494146e-16,6.68946584 0.371302445,5.39632089 1.06853082,4.09261719 C1.76575919,2.78891348 2.78891348,1.76575919 4.09261719,1.06853082 C5.39632089,0.371302445 6.68946584,2.4074122e-16 10.2555408,-4.14336123e-16 Z" id="Rectangle-4" fill="#01AA78"></path>
        <path d="M23.0865029,14.4705882 C22.6372268,15.7728621 21.424966,16.7058824 20,16.7058824 C18.575034,16.7058824 17.3627732,15.7728621 16.9134971,14.4705882 L14.5454545,14.4705882 L18.9090909,23.4117647 C18.9090909,26.4980618 16.4670077,29 13.4545455,29 C10.4420832,29 8,26.4980618 8,23.4117647 L13.4545455,12.2352941 L16.9134971,12.2352941 C17.3627732,10.9330203 18.575034,10 20,10 C21.424966,10 22.6372268,10.9330203 23.0865029,12.2352941 L26.5454545,12.2352941 L32,23.4117647 C32,26.4980618 29.5579168,29 26.5454545,29 C23.5329923,29 21.0909091,26.4980618 21.0909091,23.4117647 L25.4545455,14.4705882 L23.0865029,14.4705882 Z M23.5151515,23.4117647 L29.5757576,23.4117647 L26.5454545,16.7058824 L23.5151515,23.4117647 Z M10.4242424,23.4117647 L16.4848485,23.4117647 L13.4545455,16.7058824 L10.4242424,23.4117647 Z" id="Combined-Shape" fill="url(#linearGradient-1)"></path>
    </g>
</svg>