<svg height="594" viewBox="0 0 527 594" width="527" xmlns="http://www.w3.org/2000/svg" xmlns:xlink="http://www.w3.org/1999/xlink"><defs><path id="a" d="m17.3511837 37.2029478c-25.20777032 85.8770022 88.6404573 172.7054222 22.8982405 226.5073512-23.6785936 19.37822-39.98493337 45.017964-40.0457401 74.814376v.321653c.10810086 52.87647 51.376062 118.814334 203.2442639 186.139258s16.680189 6.391314 42.244917 14.457484l254.07194 1.54168c51.142969-77.956423-28.682763-137.391241-22.465837-189.915584 6.2158-52.524344 80.04869-140.611163 33.704949-182.000648-46.344868-41.391742-161.948608-5.80218-177.631116-48.6566-15.682508-42.8532911 3.887127-75.9373412-30.885318-73.904716-34.772445 2.0326252-87.225011 77.727315-131.984399 35.4180139-31.086881-29.3844691-80.6995478-80.94836616-116.5597576-80.9404659-15.7725918 0-28.8922081 9.9848056-36.5921427 36.2181978"/><filter id="b" height="104.4%" width="104.6%" x="-2.3%" y="-2.2%"><feGaussianBlur in="SourceAlpha" result="shadowBlurInner1" stdDeviation="12"/><feOffset dx="0" dy="0" in="shadowBlurInner1" result="shadowOffsetInner1"/><feComposite in="shadowOffsetInner1" in2="SourceAlpha" k2="-1" k3="1" operator="arithmetic" result="shadowInnerInner1"/><feColorMatrix in="shadowInnerInner1" type="matrix" values="0 0 0 0 0   0 0 0 0 0   0 0 0 0 0  0 0 0 0.0799825175 0"/></filter><linearGradient id="c"><stop offset="0" stop-color="#4ad7c2"/><stop offset="1" stop-color="#24ae8f"/></linearGradient><linearGradient id="d" x1="27.465915%" x2="64.27316%" xlink:href="#c" y1="0%" y2="73.807848%"/><linearGradient id="e" x1="51.379681%" x2="46.302422%" xlink:href="#c" y1="10.52631%" y2="41.59424%"/><linearGradient id="f" x1="34.49654%" x2="50%" xlink:href="#c" y1="36.384932%" y2="55.287869%"/><linearGradient id="g" x1="38.88337%" x2="50%" xlink:href="#c" y1="7.638252%" y2="55.287869%"/><mask id="h" fill="#fff"><path d="m.80172.16479h419.0301v26.83521h-419.0301z" fill="#fff" fill-rule="evenodd"/></mask><mask id="i" fill="#fff"><path d="m9.2808 133.5762s-4.4496 36.8226-6.7446 63.3834c-2.2968 26.5608-2.0574 66.7548-2.0574 66.7548l18.1278 1.1133s7.2495-86.8833 16.2909-111.7845l23.895-104.8095-6.4782 213.1326 19.0422-.5958s18.0252-222.9669 18.7326-257.4918c-24.4269-2.9448-42.8292-1.2051-67.0446-3.2706z" fill="#fff" fill-rule="evenodd"/></mask></defs><g fill="none" fill-rule="evenodd"><g fill="#fff" stroke="#000a1e" transform="translate(121.3 45.3222)"><path d="m.07668 22.8141s2.5839-13.7898 0-22.4586l13.7727 2.4201 2.4516 4.6773-5.4135 19.9053z"/><path d="m212.79663 4.31748s.8352.0369.8352 1.6011c0 1.566-7.5636 16.0164-7.5636 16.0164v-3.4587s4.2921-13.176 6.7284-14.1588"/><path d="m210.20301 20.53332c0-1.3104 2.538-2.1294 2.538-3.8763 0-1.7478-1.2024-4.0401-2.3373-1.5291-.9513 2.1042-1.7928 1.5102-2.6055 2.6937.7812-4.1184 3.7296-14.8005 2.9394-15.2145-1.737-.9108-7.8813 18.3087-8.5491 19.9467-.6678 1.6371-1.3806 7.6068-1.3806 11.538 0 3.9321-10.1079 18.468-10.1079 18.468l14.6943 3.0807s3.2076-10.269 4.6593-17.4789c6.0849-5.9409.1494-16.3179.1494-17.6283"/><path d="m215.5968 12.6144s-.6822.036-.6822 1.6011c0 1.566 6.1821 16.0155 6.1821 16.0155v-3.4578s-3.5073-13.176-5.4999-14.1588"/><path d="m214.46829 25.05006c0-1.3104-1.3005-2.8575-1.3005-4.6044 0-1.7478 1.3212-4.0824 2.25-1.5705.7767 2.1042 1.854 7.6329 2.5191 8.8164-.6381-4.1184-3.0492-20.1537-2.403-20.5677 1.4202-.9108 6.4431 18.3087 6.9885 19.9467.5463 1.6371 1.1286 7.6068 1.1286 11.538 0 3.9321 8.2629 18.468 8.2629 18.468l-12.0123 3.0807s-2.6217-10.269-3.8088-17.4789c-4.9752-5.9409-1.6245-16.3179-1.6245-17.6283"/></g><g transform="translate(0 51.6222)"><use fill="#eaeef4" fill-rule="evenodd" xlink:href="#a"/><use fill="#000" filter="url(#b)" xlink:href="#a"/></g><g transform="translate(83.5 59.7222)"><path d="m419.83182 16.15509c0 6.9669-145.6785 17.2314-251.8119 5.5269-107.4204-11.8458-167.2182-2.0097-167.2182-8.9766s98.676-12.5406 206.748-12.5406c108.0729 0 212.2821 9.0234 212.2821 15.9903" fill="#a0a8b3" mask="url(#h)" transform="translate(0 506.7)"/><path d="m339.60519 221.70744-15.769512 1.362295 8.232912-43.484995 9.3546 4.8087z" fill="#000a1e"/><path d="m289.72728 77.04612c-3.2598-4.9698-14.9688-23.5566-20.0133-36.7155-5.3487 2.1735-8.4393 2.0826-13.9068 4.3677l19.0449 44.0199 55.4904 50.7321 16.2333-34.1037s-51.8562-20.6901-56.8485-28.3005" fill="url(#d)" stroke="#000a1e"/><path d="m349.95789 316.64565s-9.5625 39.3426-5.823 49.3515c3.7404 10.0098 9.6705 17.3664 9.8766 32.2542.2034 14.8878-10.8756 80.9685-9.171 90.4482.7191 3.996.9873 10.0908-.072 11.8422-1.359 2.2473-7.6869 18.2043-9.4041 18.6273s-9.3114-.9252-9.3114-.9252c.4077-.4077.4752-2.5884 2.2068-4.9482.7272-.9936 5.0589-22.4136 4.8951-37.1295-.162-14.7168-5.0166-81.4905-8.6121-96.0903-3.5946-14.5998-4.9527-14.337-5.0895-24.5052-.1359-10.1682 3.8394-30.276 3.8394-30.276z" fill="#fff" stroke="#000a1e"/><path d="m344.13507 365.99751c-3.7395-10.0098 5.823-49.3515 5.823-49.3515l-26.6652 8.6481s-3.9753 20.1078-3.8394 30.276c.0999 7.4601.8568 9.306 2.673 15.5232 5.4648-.1809 13.9401-.567 23.5269-1.3806-.5301-1.2087-1.0422-2.4408-1.5183-3.7152" fill="#b8cae4"/><path d="m389.4489 317.77632s-12.2121 38.6028-9.1611 48.843c3.0528 10.2393 8.4699 17.982 7.6644 32.85-.8064 14.8671-17.7336 89.8128-17.7336 89.8128 1.1745 6.8832 1.458 7.8579.2826 9.5328-1.5084 2.1501-7.2666 19.1223-9.0081 19.4283-1.7433.3051-8.955 1.5381-8.955 1.5381-.558-1.872-.2718-4.0176 1.098-5.904 1.0368-1.4265 2.3616-4.0923 2.961-7.2909 1.3914-7.4277 1.8405-16.2819 2.6775-30.9744.8361-14.6934 3.1068-81.4671.5103-96.2775-2.5956-14.8104-3.9681-14.6403-3.4128-24.7941.5544-10.1547 5.8851-29.9457 5.8851-29.9457z" fill="#fff" stroke="#000a1e"/><path d="m380.28807 366.61896c-3.0519-10.2402 9.1611-48.843 9.1611-48.843l-27.1917 6.8193s-5.3307 19.791-5.8851 29.9448c-.4077 7.4493.2232 9.342 1.6119 15.669 5.4648.1908 13.9473.3807 23.5665.2196-.4473-1.242-.873-2.5056-1.2627-3.8097" fill="#b8cae4"/><path d="m333.92484 206.3016s-3.2769 50.4999-5.7537 62.5284-16.6266 97.29-16.6266 97.29 63.045 5.3064 78.2577 0c0 0 1.6983-109.4067-1.8837-123.4701-3.5811-14.0625-19.242-39.6522-19.242-39.6522z" fill="#fff" stroke="#000a1e"/><path d="m366.51825 99.60237-19.1232-1.3851-6.7734 13.257 27.2106 2.8341z" fill="#230044"/><path d="m340.00335 103.86333s8.7138-6.7041 38.2239-.0423c.8028.1809 1.5372 32.2029 1.5372 32.2029s-13.6908 53.5977-11.088 66.9735c0 0-15.651 13.2084-39.0015 1.71 0 0 3.0348-42.0903.9117-51.4656-2.1222-9.3744-6.3603-17.8767-.3465-27.6057 6.0147-9.7281 9.7632-21.7728 9.7632-21.7728" fill="#24ae8f"/><path d="m366.51825 99.60237-18.117268 49.984292 1.424968 77.146108 36.8883 1.782-12.8592-16.8219-4.356-21.0978 10.2654-54.5706-.9486-32.1516z" fill="#000a1e"/><path d="m347.39496 98.21718-13.7421 45.6183-3.564 80.4024h-7.6968l8.2674-42.4818-4.8465-47.8998 13.8285-30.9348z" fill="#000a1e"/><path d="m366.51825 99.60237-16.6923 47.7972 21.33-27.7992 3.5541-18.729z" fill="#fff" stroke="#000a1e"/><path d="m347.39496 98.21718-13.7421 45.6183 1.2402-32.634 5.7285-11.5992z" fill="#fff" stroke="#000a1e"/><path d="m379.5867 216.05967c.4788-.4788 4.6629-6.6411 5.5566-5.7474s-3.7044 6.5781-3.7044 6.5781 5.3325-5.3964 6.3855-4.3425c1.0539 1.0539-7.1253 8.3394-7.9875 8.3394s-.2502-4.8276-.2502-4.8276" fill="#fff" stroke="#000a1e"/><path d="m372.36033 209.96973s-2.2545 3.4416-.5931 5.103.7713 3.3822 1.8981 4.5099c1.1277 1.1277 6.1722 1.305 6.1722 1.305s.3555-4.8654 2.8476-10.4436c.4617-1.0332 1.9341-3.0609 4.0293-5.7267-2.2311-1.4706-4.581-2.7918-6.9633-3.9852-4.1706 5.4153-7.3143 9.1026-7.3908 9.2376" fill="#fff" stroke="#000a1e"/><path d="m378.21474 103.87296s-2.9268 23.2605 0 29.6694c2.8494 6.237 19.503 13.4325 22.3596 26.0685 2.1357 9.4392-11.7666 29.3598-20.8233 41.121 2.2662 2.2653 5.9364 6.0147 8.1675 7.4844 9.2178-11.7324 29.3148-39.357 29.8944-45.8361.7137-7.9578-27.2196-59.3379-39.5982-58.5072" fill="url(#e)" stroke="#000a1e"/><path d="m368.9712 502.48818-.2718 16.8975 1.881.0549 2.4219-19.2627z" fill="#1d1c22"/><path d="m370.21842 489.28212c-1.5876 9.4464-7.0695 24.8022-10.5426 27.2583l-6.0399-2.6631c-2.9988 5.1282-6.3936 7.7508-2.3751 7.7643 5.1642.0171 13.2183.3573 14.2218-1.7577 1.7316-3.6504 2.718-17.4816 6.2514-17.4699l-1.1538 17.0262 1.8756.0558s2.8566-23.4405 2.2554-25.7832c-.8262-3.2148-3.4992-3.8529-4.4928-4.4307" fill="#3a3745"/><path d="m343.59372 501.90633-.2718 16.8966 1.881.0549 2.4219-19.2618z" fill="#1d1c22"/><path d="m344.84085 488.69991c-1.5876 9.4464-7.0695 24.8022-10.5426 27.2574l-6.039-2.6622c-2.9988 5.1273-6.3945 7.7499-2.376 7.7634 5.1642.018 13.2192.3582 14.2218-1.7568 1.7316-3.6513 2.718-17.4816 6.2523-17.4699l-1.1547 17.0262 1.8756.0558s2.8575-23.4405 2.2554-25.7832c-.8262-3.2148-3.4992-3.8529-4.4928-4.4307" fill="#3a3745"/><path d="m358.75044 31.42125c1.188 1.0998 12.5397-.5589 22.1535 9.7875 12.7161 13.6809 11.2131 45.648 11.2131 45.648s-13.5018 3.0762-18.8406 3.285c-5.3397.2097-16.191-1.3374-21.9843-2.1924-5.9148-.873-9.1062-34.1451-5.1228-42.9588 3.9816-8.8137 12.5811-13.5693 12.5811-13.5693" fill="#000a1e"/><path d="m358.75044 31.42125s-12.6756-.7299-15.813 7.4574c-3.1392 8.1864-1.8144 34.3611-6.2055 37.08 0 0 3.3066 2.0772 6.1029 1.9674 0 0 1.8351 3.2274-2.5713 7.9947 0 0 5.4261 2.0259 11.0286 2.0286.387 0 4.4964 1.152 4.8744-2.3238.4464-4.1148-2.8404-13.2273-2.4156-17.2098 1.8009-16.8642 4.9995-36.9945 4.9995-36.9945" fill="#000a1e"/><path d="m353.21067 81.86958s-2.0358 15.4359-4.1562 19.5066c-2.1204 4.0716-5.499 21.843-2.5308 21.843s16.7796-13.8276 17.6697-19.4256c.8901-5.5971 5.2164-28.7091 5.2164-28.7091z" fill="#fff" stroke="#000a1e"/><path d="m353.484 80.13942c-.1143.0549-.4563 3.2526-.4734 3.3768-.4896 3.4398-.6336 3.2265-.4878 3.6846 1.1502 3.5982 5.7933 5.8536 12.6387-.2655.2169-.1944 2.475-2.3112 2.5092-2.4966.9621-5.2065 1.7388-9.3537 1.7388-9.3537s-15.7887 4.9977-15.9255 5.0544" fill="#d2d2d2"/><path d="m356.27544 33.26256s-10.269 4.3497-10.7325 12.0069c-.4626 7.6572.5877 10.629-.2367 15.5844s1.3086 18.1971 9.0774 21.5415c7.7706 3.3453 18.1107-9.4743 19.9215-15.2316 1.8117-5.7573 2.4435-13.9941.477-22.9995-1.9656-9.0045-12.7971-12.4839-18.5067-10.9017" fill="#fff" stroke="#000a1e"/><path d="m368.57133 76.17249c2.8305-3.1257 4.9941-6.6564 5.7339-9.009 1.8117-5.7573 2.4435-13.995.477-22.9986-1.9656-9.0054-12.7971-12.4848-18.5067-10.9026 0 0-10.269 4.3497-10.7325 12.0069-.1557 2.5659-.1404 4.6044-.0837 6.3684v.0009l9.6678-.3276s-.5985-8.208 1.3257-10.2897l.3204 9.864 6.6249.0495s2.4228-4.3434 2.2752-8.1036c0 0 .2241 5.2686-1.1286 8.1225 0 0 5.4-.2763 5.5098 2.5209.09 2.286-.7074 16.6203-1.1142 20.4138-.0864.8028-.2124 1.5642-.369 2.2842" fill="#000a1e"/><path d="m388.37133 46.53972c-7.7562-15.975-21.8169-18.3267-29.619-15.1191-4.9698.2565-10.629 2.3346-13.1202 6.525-3.8763 6.5178-.7686 12.7521-.7686 12.7521l9.2277-.0981s.3609-9.4671 2.2842-11.5479l.4482 11.4408 6.5475-.2574s2.1276-5.8041 1.98-9.5643c0 0 1.2789 6.6357-.0729 9.4896 0 0 4.6665.5175 4.7763 3.3138.09 2.2869-.7074 16.6203-1.1142 20.4138-.7668 7.155-4.7133 11.0322-4.7772 11.1366 0 0 15.3837 2.7072 18.5598-.7281l-1.6083 4.7979s8.6319-.999 11.0025-2.2383c2.3706-1.2384.7191-31.1202-3.7458-40.3164" fill="#000a1e"/><path d="m345.63186 37.94535c-3.8763 6.5178-.7686 12.7512-.7686 12.7512l9.2277-.0972s.3609-9.4671 2.2851-11.5479l.4482 11.4408 6.5466-.2574s2.1276-5.8032 1.98-9.5643c0 0 1.2789 6.6357-.0738 9.4896 0 0 4.6683.5175 4.7781 3.3138.0891 2.2869-.7074 16.6212-1.1151 20.4138-.0432.4104-.0981.8091-.162 1.197h.0009c8.6103-8.6112 7.1271-29.2518 4.8258-36.5454s-14.8527-7.1193645-14.8527-7.1193645c-4.9689.2568645-10.6281 2.3358645-13.1202 6.5253645" fill="#000a1e"/><path d="m352.7748 66.94578c1.2843-1.5732 1.5696-4.833 1.3266-6.8949-.4347 1.9458-1.0134 5.4441-2.0151 6.678l-.2097.2583c.1044.0567 1.4508 1.5057 3.1455 1.3869-.504-.1539-1.6137-.792-2.2473-1.4283" fill="#000a1e"/><path d="m355.41585 79.48773h-.0018z" fill="#fff"/><path d="m360.69543 70.39278c-3.8592 1.8495-9.6615 2.0979-9.6615 2.0979s.4392.7821 1.1808 1.6137c1.6929-.153 5.0031-.5733 7.7049-1.6488.5319-1.1178.7758-2.0628.7758-2.0628" fill="#fff"/><g fill="#000a1e"><path d="m359.2049 71.2778c-2.7018 1.0755-6.012 1.4967-7.7049 1.6497 2.8917 3.2076 5.8032 2.3031 7.7049-1.6497"/><path d="m356.95224 53.81136s.8568-.9387 2.6244-1.3266c1.7667-.387 5.5386 1.6605 5.5386 1.6605s-3.7647-.9981-4.8123-.9567-2.6946 1.0602-2.6946 1.0602z"/><path d="m352.08837 54.21474s-.711-.8316-2.2266-1.2636c-1.5138-.432-4.8366 1.0278-4.8366 1.0278s3.2841-.5904 4.1877-.4905c.9045.0999 2.295 1.0476 2.295 1.0476z"/><path d="m356.78079 58.64184c.8703-.9666 2.8008-1.3401 3.9573-1.1178 1.6587.3267 2.5965 1.6821 3.6306 1.8891-1.5543.3816-2.0835-1.3608-5.6601-1.1772-.6435.0675-1.2978.1368-1.9278.4059"/><path d="m351.77193 59.19552c-.7884-1.0341-2.682-1.5633-3.8529-1.4364-1.6803.1908-2.7252 1.4652-3.7719 1.5885 1.5183.5058 2.1861-1.1871 5.7366-.7137.6354.1197 1.2816.243 1.8882.5616"/></g><path d="m47.54997 17.74107c-3.2769 17.6985-5.3001 56.2779-5.3001 56.2779l29.5632 22.2876 7.011 50.6565s-67.0743-50.6727-71.6778-76.0923c-.4743-2.619 10.5993-49.2507 26.8785-61.7589 4.104 4.3902 7.3593 6.4017 13.5252 8.6292" fill="url(#f)" stroke="#000a1e"/><path d="m38.71341.50967c-2.3463 2.5875-5.7483 10.2249-5.7483 10.2249 4.5792 5.8626 9.4401 6.8373 14.544 7.0794 2.4264-4.3137 3.3381-6.804 5.328-10.4076-4.3011-1.8333-10.6488-2.9538-14.1237-6.8967" fill="#24ae8f" stroke="#000a1e"/><path d="m231.98841 28.38546-5.3874 10.251c5.3847 3.7917 10.6767 5.0139 16.2837 8.7165l2.3607-9.8946z" fill="#24ae8f" stroke="#000a1e"/><path d="m200.48229 79.25697-51.4692 17.0496-3.0348 48.8916 73.0917-42.1758s26.4654-47.4768 23.8149-55.6695c-2.0682-6.3936-11.6973-11.9934-17.8056-9.531-8.4825 3.4182-24.597 41.4351-24.597 41.4351" fill="url(#g)" stroke="#000a1e"/><path d="m150.1974 95.93955-19.2087-7.5078-37.5642 2.2635-21.6117 5.6115s9.234 64.1115 11.3877 86.7483c2.1519 22.6368 2.1519 40.7466 2.1519 40.7466l4.2921 14.706c24.2154 2.0664 42.6177.3258 67.0446 3.2706.2664-12.9825.286014-13.129648.286014-13.129648z" fill="#24ae8f" stroke="#000a1e"/><path d="m85.35258 223.80192 4.2921 14.7051c16.6482 1.4211 30.5487 1.0431 45.5481 1.6245-19.6173-4.2291-26.2341-17.1504-28.1376-28.2969-2.0988-12.3012-5.5521-24.3135-10.4976-35.7714-12.3093-28.5237-24.7446-79.7571-24.7446-79.7571s9.234 64.1115 11.3868 86.7492c2.1528 22.6368 2.1528 40.7466 2.1528 40.7466" fill="#000a1e"/><path d="m127.15074 83.25207-.0387 13.6395-26.9793-.1971-.2313-15.5295z" fill="#000a1e"/><path d="m68.11722 516.51504 34.848.7677-22.9068-9.7434-1.0413-8.7372c-3.5307 0-4.3821 2.3904-7.947 2.3904-1.0071 5.5755-2.9529 15.3225-2.9529 15.3225" fill="#000a1e"/><path d="m117.70776 512.8461 34.8489.7677-22.9077-9.7434-1.0413-8.7372c-3.5298 0-4.3821 2.3904-7.947 2.3904-1.0071 5.5764-2.9529 15.3225-2.9529 15.3225" fill="#000a1e"/></g><path d="m9.2808 133.5762s-4.4496 36.8226-6.7446 63.3834c-2.2968 26.5608-2.0574 66.7548-2.0574 66.7548l18.1278 1.1133s7.2495-86.8833 16.2909-111.7845l23.895-104.8095-6.4782 213.1326 19.0422-.5958s18.0252-222.9669 18.7326-257.4918c-24.4269-2.9448-42.8292-1.2051-67.0446-3.2706z" fill="#000a1e" mask="url(#i)" transform="translate(150.1 298.2222)"/><g transform="translate(107.8 .3222)"><path d="m83.8998 130.56759c-.639-.4059-8.5779-20.16-8.5779-20.16s-5.2983-14.8311-1.8774-17.3421c3.4218-2.511 11.5542-11.2167 18.6804-11.3751s11.907 1.9773 12.5451 2.3823c.639.4059 5.2587 8.2035 5.2587 8.2035s-2.151-2.6271-3.2571 7.1172c-1.107 9.7452-22.7718 31.1742-22.7718 31.1742" fill="#000a1e"/><path d="m101.87865 129.67551c-.846 2.5245-.4806 20.5362-1.1493 25.0713-.6615 4.4766-21.1014 11.4165-21.5019-4.8699s1.2078-35.4402 1.2078-35.4402z" fill="#fff" stroke="#000a1e"/><path d="m101.87865 129.67506-7.1172-5.058-14.3262-10.1799s0 .009-.0018.0261c0 .0054-.0009.0108-.0018.0171v.0099c-.0054.0675-.0162.1953-.0306.3771-.0477.5931-.1395 1.7766-.2529 3.411v.0081c-.0225.3303-.0459.6804-.0711 1.0467-.0009.0243-.0027.0477-.0045.072-.0783 1.1826-.1629 2.5434-.2493 4.0428-.0054.0837-.0108.1674-.0144.252-.0207.3555-.0405.7173-.0612 1.0872v.0126c-.0108.1917-.0207.3852-.0315.5814-.0009.0198-.0018.0405-.0036.0621-.0036.0729-.0072.1467-.0108.2205l-.0045.0855c-.0072.1278-.0135.2565-.0198.3861 2.6613 8.73 12.7233 18.2106 21.4272 19.3374.018-.6021.0495-1.2114.0936-1.8225.1098-6.1164.2007-12.5415.6804-13.9752" fill="#d2d2d2"/><path d="m79.63182 99.51579c-2.6181 6.5124-2.7576 18.423 3.4821 27.4302 6.2424 9.0072 14.8563 13.6521 21.0267 9.1089 6.1722-4.5432 7.9371-33.048 3.4776-40.383s-23.9967-6.0804-27.9864 3.8439" fill="#fff" stroke="#000a1e"/><path d="m79.63974 126.8757s-1.3878-9.3222-4.9653-11.5938-5.1912-3.6567-5.8374-6.9498c-.6471-3.2922-6.993-7.8345-5.0454-13.248 1.9485-5.4135 5.7051-5.6061 10.4562-15.0192 4.7511-9.4122 9.8784-14.6214 20.9529-11.1924 11.0736 3.429 12.6162 10.1844 12.6162 10.1844s4.374-.5571 7.8732 4.9995c6.8994 10.9584-16.6968 17.5356-25.7733 8.4591-4.4001-4.4001-10.1529-.3015-12.3363 6.2388-2.1834 6.5394 7.2261 16.812 2.0592 28.1214" fill="#000a1e"/><path d="m81.69021 109.73925s-3.9051-6.6672-5.9364-3.7692-.3564 11.556 3.9501 11.6424c4.3074.0855 1.9863-7.8732 1.9863-7.8732" fill="#fff" stroke="#000a1e"/><path d="m103.18977 113.94153c.6228 4.0923-.0369 5.8401-.0576 6.0984-.4761-.0882-1.7415-.2754-3.4155-.7146.7188-.0204 1.679144-.0204 2.881031 0 .1791-3.7053-.573431-7.0992-.973031-10.8873.7479 1.7631 1.2519 3.6144 1.5651 5.5035z" fill="#000a1e"/><path d="m96.34509 109.42677c.2268 1.1574-.2781 2.2347-1.1277 2.4075-.8496.1719-1.7235-.6273-1.9503-1.7856-.2268-1.1574.2781-2.2347 1.1268-2.4066.8505-.1719 1.7235.6273 1.9512 1.7847" fill="#000a1e"/><path d="m108.03978 107.76609c.2268 1.1574-.2781 2.2356-1.1277 2.4075s-1.7226-.6273-1.9503-1.7847c-.2268-1.1574.2781-2.2356 1.1277-2.4075s1.7226.6273 1.9503 1.7847" fill="#000a1e"/><path d="m89.69526 106.49304s1.7964-3.1536 4.7898-3.7593 2.0907 1.9125 1.3905 2.0538c-.6993.1413-6.2964 1.1142-6.1803 1.7055" fill="#000a1e"/><path d="m103.96521 101.27844s3.5451 1.0494 4.2174 2.6775c0 0-3.7521-.3114-4.428-1.1907-.675-.8793.2106-1.4868.2106-1.4868" fill="#000a1e"/><path d="m91.41174 124.58745c3.2157 2.2293 8.2503 4.3191 12.0897 3.627-3.087 2.8809-9.4752-.4194-12.0897-3.627" fill="#000a1e"/><path d="m65.34432 297.90774 67.0446 1.188-.3249 10.6281-67.7142-2.1645z" fill="#fff" stroke="#000a1e"/><path d="m112.65408 308.8449-15.8238-.2466.3744-9.9729 15.822.333z" fill="#fff" stroke="#000a1e"/><path d="m83.04192 163.50678 9.7623 4.5855h7.7796l5.868-4.5855-5.2515-9.2232h-11.5677l-2.9295-1.4481z" fill="#000a1e"/><path d="m89.63289 154.28349h11.5677l-.6165 13.8087h-7.7805z" fill="#fff" stroke="#000a1e"/><path d="m83.49984 168.09201 9.1035-13.8087-17.0019-13.7187-6.4773 9.531z" fill="#fff" stroke="#000a1e"/><path d="m106.93674 167.09229-6.858-12.8088 2.772-11.6316 9.9738 7.254z" fill="#fff" stroke="#000a1e"/><path d="m92.80395 168.09201c0 5.4585 1.8567956 93.944871 1.8567956 93.944871l13.2390004 16.0173 7.5717-16.8669-14.886996-93.095271z" fill="#fff" stroke="#000a1e"/><path d="m92.80395 168.09201-1.11447 95.409168 16.210266 14.553003-13.023366-15.375603z" fill="#000a1e"/><g fill="#fff" stroke="#000a1e"><path d="m37.64115 15.72219c-.9846-1.1205-4.3686-.8244-6.0021 1.6821-1.6335 2.5056-.6291 3.2841-.5967 6.597.0693 7.0398-6.1317 4.1814-6.1317 4.1814l-6.0381.2988-2.3445 2.4912-2.9511 14.3829c1.0413 1.6686 3.2022 6.4638 5.3784 7.3476 3.0996 1.2591 10.935 1.557 12.1545-1.746.9387-2.5407 2.9025-2.6919 3.9744-3.8763 3.8052-4.203 4.3749-13.1841 3.5514-17.7174-.8226-4.5333-2.1807-5.715-1.8135-7.848s1.8936-4.5702.819-5.7933"/><path d="m30.87531 39.09186s.4968 2.2761 2.8728.2907c.7236-.6039 2.5308-8.3979 1.4598-8.5815-1.0701-.1845-4.4748 2.7729-4.4748 2.7729z"/><path d="m29.04894 38.16945s-.3096 4.4406.3564 5.2308c.666.7893 1.9449.9261 2.7846-1.0413.8397-1.9665.1782-7.3017-.2106-7.3683-.3897-.0675-2.6226.8676-2.9304 3.1788"/><path d="m28.34235 40.26087s-2.7639 3.2688-2.1267 4.0257c.6363.756 4.2381 1.2537 5.2119-.1629 1.1214-1.629-.4446-2.9016-3.0852-3.8628"/><path d="m28.68867 44.62236c.2844.0198.5256.1989.5724.4338.1341.6813.1134 2.0385-1.9116 2.7198-1.5831.5328-4.2858.4446-4.2858.4446l2.1672-4.2462s1.4256.5058 3.4578.648"/><path d="m18.23319 29.14398c-.6696.3924-3.0303 1.305-3.2031 2.3049-.1719.9999.8937 2.9574.8937 2.9574s12.0006 4.2111 13.0707 4.3956 4.6863-2.5002 2.7225-4.0671c-1.8243-1.4562-13.4838-5.5908-13.4838-5.5908"/><path d="m14.60331 33.92523c-1.1358.3654-2.1339 2.5038-2.3175 3.5703s1.0971 3.5208 1.0971 3.5208 9.7749 3.7413 12.1401 3.3957c2.3643-.3438 3.4605-3.3903 2.8197-4.1508-.6399-.7614-12.0168-6.8913-13.7394-6.336"/><path d="m13.38246 41.01669c-1.4103.3744-2.2788.7704-1.8378 2.2824.441 1.5111 1.5048 2.9502 2.7702 3.168 1.2645.2178 7.5987 1.6749 8.7489 1.7532 1.1511.0792 5.0742-3.0402 2.4957-4.1895-2.5767-1.1493-9.2565-3.7881-12.177-3.0141"/><path d="m18.23319 29.14398s2.6082-2.9286 4.5558-3.1851c1.9485-.2556 11.6181 3.8169 12.4911 4.8537.8739 1.0377-2.7126 2.6127-4.4244 2.6559-1.71.0432-9.9648-5.2182-12.6225-4.3245"/></g><path d="m3.13002 41.13486c-.3609 0-.6993-.2259-.8253-.5859-2.241-6.4188-2.1321-12.0402.3231-16.7085 3.8061-7.2351 11.8143-9.4914 12.1536-9.5832.4635-.1269.945.1467 1.0719.6111.1278.4653-.1458.9459-.6111 1.0737-.0765.0207-7.6329 2.1663-11.0754 8.7255-2.214 4.2201-2.2851 9.369-.2124 15.3054.1593.4554-.081.954-.5364 1.1124-.0954.0333-.1935.0495-.288.0495" fill="#000a1e" opacity=".2"/><g fill="#000a1e" opacity=".2" transform="translate(186.873559 .578102)"><path d="m36.4770113 35.7896376c-.3483 0-.6759-.2088-.8118-.5508l-8.1018-20.394c-.1791-.4491.0405-.9567.4896-1.1349.4455-.1782.9549.0405 1.134.4896l8.1018 20.394c.1782.4482-.0414.9558-.4905 1.134-.1053.0423-.2142.0621-.3213.0621"/><path d="m49.1683613 35.7896376c-.0774 0-.1548-.0099-.2331-.0315-.4644-.1278-.738-.6093-.6102-1.0746l9.3735-34.0416c.1278-.4644.6066-.7389 1.0737-.6102.4653.1278.738.6093.6102 1.0746l-9.3726 34.0416c-.1071.387-.4581.6417-.8415.6417"/><path d="m53.8547513 47.8710576c-.3339 0-.6525-.1926-.7983-.5166-.1962-.4401 0-.9567.4401-1.1538l31.4667-14.1075c.441-.1971.9567 0 1.1547.4401.1971.4401.0009.9567-.4401 1.1547l-31.4667 14.1066c-.1152.0522-.2367.0765-.3564.0765"/><path d="m85.3204613 76.4276076c-.1017 0-.2061-.018-.3078-.0558l-26.7804-10.0881c-.4518-.1701-.6795-.6741-.5094-1.125.1701-.4518.6723-.6813 1.1259-.5094l26.7804 10.0872c.4509.1701.6795.6741.5085 1.125-.1314.3501-.4635.5661-.8172.5661"/><path d="m.87247133 60.2051976c-.4365 0-.8145-.3276-.8667-.7731-.0549-.4788.288-.9126.7677-.9684l19.80089997-2.2959c.4851-.0558.9126.288.9684.7677.0558.4788-.288.9126-.7668.9684l-19.80179997 2.2959c-.0342.0036-.0684.0054-.1017.0054"/><path d="m23.6062913 40.4908776c-.1575 0-.3168-.0423-.4599-.1314l-15.16139997-9.4032c-.4104-.2538-.5364-.7929-.2826-1.2024.2538-.4113.7938-.5355 1.2033-.2817l15.16229997 9.4023c.4104.2547.5355.7929.2817 1.2033-.1647.2664-.4518.4131-.7434.4131"/></g><path d="m409.92921 219.05937c-.4815 0-.8739-.3915-.8739-.8739 0-19.9989-33.0669-53.5284-33.4008-53.865-.3402-.342-.3384-.8955.0045-1.2357.342-.3393.8946-.3384 1.2357.0045 1.3842 1.3941 33.9084 34.3845 33.9084 55.0962 0 .4824-.3915.8739-.8739.8739" fill="#000a1e" opacity=".2"/></g></g></svg>