<svg width="20" height="21" viewBox="0 0 20 21" fill="none" xmlns="http://www.w3.org/2000/svg">
<path d="M0.792893 6.79289C0.402369 7.18342 0.402369 7.81658 0.792893 8.20711C1.18342 8.59763 1.81658 8.59763 2.20711 8.20711L6.5 3.91421L6.5 19.5C6.5 20.0523 6.94772 20.5 7.5 20.5C8.05228 20.5 8.5 20.0523 8.5 19.5L8.5 1.49999C8.5 1.36264 8.4723 1.23175 8.4222 1.11261C8.37723 1.00543 8.31275 0.904501 8.22877 0.815226C8.21451 0.80006 8.19979 0.785339 8.18462 0.771088C8.09676 0.688471 7.99761 0.624739 7.89233 0.579889C7.77187 0.528458 7.63926 0.49999 7.5 0.49999C7.36074 0.49999 7.22813 0.528458 7.10767 0.579889C7.00239 0.624739 6.90324 0.688471 6.81538 0.771088C6.80691 0.779041 6.79858 0.787144 6.7904 0.795385L0.792893 6.79289Z" fill="#1D1D1D"/>
<path d="M11.5759 19.4833C11.527 19.3654 11.5 19.2361 11.5 19.1005L11.5 1.10051C11.5 0.548225 11.9477 0.10051 12.5 0.10051C13.0523 0.10051 13.5 0.548225 13.5 1.10051L13.5 16.6863L17.7929 12.3934C18.1834 12.0029 18.8166 12.0029 19.2071 12.3934C19.5976 12.7839 19.5976 13.4171 19.2071 13.8076L13.2071 19.8076C13.1112 19.9035 13.0007 19.9758 12.8828 20.0246C12.7649 20.0735 12.6356 20.1005 12.5 20.1005C12.2441 20.1005 11.9882 20.0029 11.7929 19.8076C11.697 19.7118 11.6247 19.6013 11.5759 19.4833Z" fill="#1D1D1D"/>
</svg>
