<?xml version="1.0" encoding="UTF-8"?>
<svg width="120px" height="40px" viewBox="0 0 120 40" version="1.1" xmlns="http://www.w3.org/2000/svg" xmlns:xlink="http://www.w3.org/1999/xlink">
    <title>编组 3</title>
    <g id="页面-1" stroke="none" stroke-width="1" fill="none" fill-rule="evenodd">
        <g id="聊天" transform="translate(-199.000000, -330.000000)">
            <g id="编组-3" transform="translate(199.000000, 330.000000)">
                <path d="M4,0 L116,0 C118.209139,-8.25425059e-15 120,1.790861 120,4 L120,36 C120,38.209139 118.209139,40 116,40 L4,40 C1.790861,40 2.705415e-16,38.209139 0,36 L0,4 C-2.705415e-16,1.790861 1.790861,4.05812251e-16 4,0 Z" id="Rectangle-11" fill="#FFFFFF"></path>
                <g id="图片" opacity="0.239999995" transform="translate(12.000000, 12.000000)" fill-rule="nonzero">
                    <rect id="矩形" fill="#000000" opacity="0" x="0" y="0" width="16" height="16"></rect>
                    <path d="M0,14.1632918 L0,1.8359082 C0,0.821558922 0.821558922,0 1.8359082,0 L14.1640918,0 C15.1776411,0 15.9992,0.821558922 15.9992,1.8359082 L15.9992,14.1640918 C15.9992,15.1776411 15.1776411,16 14.1632918,16 L1.8359082,16 C0.821558922,15.9992 0,15.1776411 0,14.1632918 Z M6.54047297,11.641018 C6.17249138,11.2722364 5.81410928,10.9138543 5.48132594,10.581071 C4.03499825,12.0281986 2.59027048,13.4721264 1.16234189,14.900855 L14.9040548,14.900855 C14.9064547,14.8536573 14.9096545,14.8152592 14.9096545,14.7776611 C14.9096545,13.4017299 14.9112544,12.0257987 14.9064547,10.6498675 C14.9064547,10.5786711 14.8752562,10.499475 14.8360582,10.4378781 C13.7977101,8.81715914 12.7561622,7.19804009 11.7154142,5.57892105 C11.6906155,5.54052297 11.6642168,5.50452477 11.6330183,5.45812709 L6.54047297,11.641018 Z M2.18229089,4.35258238 C2.17189141,5.55252238 3.14784261,6.53807309 4.35258238,6.5460727 C5.55092245,6.5540723 6.53647319,5.57812109 6.54687266,4.37338133 C6.55727214,3.17504125 5.58212089,2.19269036 4.37338133,2.18309084 C3.17104144,2.17349133 2.19269036,3.14224289 2.18229089,4.35258238 L2.18229089,4.35258238 Z" id="形状" fill="#00142A"></path>
                </g>
                <text id="图片加载中…" opacity="0.6" font-family="PingFangSC-Regular, PingFang SC" font-size="12" font-weight="normal" line-spacing="20" fill="#00142A">
                    <tspan x="36" y="23">图片加载中…</tspan>
                </text>
            </g>
        </g>
    </g>
</svg>
