<svg width="76" height="62" viewBox="0 0 76 62" fill="none" xmlns="http://www.w3.org/2000/svg">
<rect width="76" height="56" rx="8.19512" fill="#1D1D1D" fill-opacity="0.04"/>
<g clip-path="url(#clip0_3323_5820)">
<path d="M38.4632 50.9924C41.2291 50.9924 43.4719 53.2343 43.472 56.0002C43.472 58.7662 41.2292 61.0081 38.4632 61.0081C35.6973 61.0079 33.4554 58.7661 33.4554 56.0002C33.4555 53.2344 35.6974 50.9926 38.4632 50.9924ZM40.0726 54.3909C39.8948 54.2131 39.6068 54.2131 39.429 54.3909L38.4632 55.3567L37.4974 54.3909C37.3196 54.2131 37.0316 54.2131 36.8538 54.3909C36.6762 54.5687 36.6761 54.8567 36.8538 55.0344L37.8196 56.0002L36.8538 56.9661C36.676 57.1439 36.676 57.4318 36.8538 57.6096C37.0316 57.7874 37.3196 57.7874 37.4974 57.6096L38.4632 56.6438L39.429 57.6096C39.6068 57.7874 39.8948 57.7873 40.0726 57.6096C40.2504 57.4318 40.2504 57.1439 40.0726 56.9661L39.1068 56.0002L40.0726 55.0344C40.2504 54.8566 40.2504 54.5687 40.0726 54.3909Z" fill="#F65454"/>
</g>
<rect x="13.2" y="11.5335" width="49.6" height="32.9333" rx="2.65714" fill="white" stroke="#1D1D1D" stroke-width="0.4"/>
<g filter="url(#filter0_f_3323_5820)">
<rect x="16.534" y="23.2002" width="16.2667" height="17.9333" rx="1.8" stroke="#1D1D1D" stroke-width="0.4"/>
<rect x="18.5213" y="25.1582" width="12.2917" height="14.018" rx="2" fill="#1D1D1D" fill-opacity="0.08"/>
<rect width="7.5" height="5.83333" rx="1" transform="matrix(-1 0 0 1 42.9994 35.5005)" fill="#1D1D1D" fill-opacity="0.08"/>
<rect width="5" height="1.66667" rx="0.833333" transform="matrix(-1 0 0 1 49.6663 39.6667)" fill="#1D1D1D" fill-opacity="0.08"/>
<rect width="9.16667" height="1.66667" rx="0.833333" transform="matrix(-1 0 0 1 53.833 36.969)" fill="#1D1D1D" fill-opacity="0.08"/>
<rect width="10.0787" height="2.5" rx="1" transform="matrix(-1 0 0 1 59.688 22.1672)" fill="#1D1D1D" fill-opacity="0.08"/>
<rect width="12.0944" height="2.5" rx="1" transform="matrix(-1 0 0 1 47.5939 22.1672)" fill="#1D1D1D" fill-opacity="0.08"/>
<rect width="5.37528" height="2.5" rx="1" transform="matrix(-1 0 0 1 40.8756 26.334)" fill="#1D1D1D" fill-opacity="0.08"/>
<rect width="16.7978" height="2.5" rx="1" transform="matrix(-1 0 0 1 59.8076 26.334)" fill="#1D1D1D" fill-opacity="0.08"/>
<rect width="24.1888" height="2.5" rx="1" transform="matrix(-1 0 0 1 59.6879 30.5005)" fill="#1D1D1D" fill-opacity="0.08"/>
<rect width="45" height="5" rx="1" transform="matrix(-1 0 0 1 60.4995 14.667)" fill="#1D1D1D" fill-opacity="0.08"/>
</g>
<defs>
<filter id="filter0_f_3323_5820" x="13.4995" y="12.667" width="49" height="30.6667" filterUnits="userSpaceOnUse" color-interpolation-filters="sRGB">
<feFlood flood-opacity="0" result="BackgroundImageFix"/>
<feBlend mode="normal" in="SourceGraphic" in2="BackgroundImageFix" result="shape"/>
<feGaussianBlur stdDeviation="1" result="effect1_foregroundBlur_3323_5820"/>
</filter>
<clipPath id="clip0_3323_5820">
<rect width="10.9268" height="10.9268" fill="white" transform="translate(33 50.5371)"/>
</clipPath>
</defs>
</svg>
