<svg fill="none" height="120" viewBox="0 0 112 120" width="112" xmlns="http://www.w3.org/2000/svg" xmlns:xlink="http://www.w3.org/1999/xlink"><linearGradient id="a"><stop offset="0" stop-color="#58ccb6" stop-opacity=".01"/><stop offset="1" stop-color="#58ccb6"/></linearGradient><linearGradient id="b" gradientUnits="userSpaceOnUse" x1="-1.10316" x2="-1.10316" xlink:href="#a" y1="59.9664" y2="108.228"/><linearGradient id="c"><stop offset="0" stop-color="#58ccb6" stop-opacity=".634315"/><stop offset="1" stop-color="#03d2fe" stop-opacity=".01"/></linearGradient><linearGradient id="d" gradientUnits="userSpaceOnUse" x1="112.154" x2="106.292" xlink:href="#c" y1="107.256" y2="74.1564"/><linearGradient id="e" gradientUnits="userSpaceOnUse" x1="10.7521" x2="10.7521" xlink:href="#a" y1="81.303" y2="113.924"/><linearGradient id="f" gradientUnits="userSpaceOnUse" x1="99.0403" x2="94.7796" xlink:href="#c" y1="114.688" y2="90.1756"/><linearGradient id="g" gradientUnits="userSpaceOnUse" x1="22.6064" x2="22.6064" xlink:href="#a" y1="95.4897" y2="119.62"/><linearGradient id="h"><stop offset="0" stop-color="#6ee7d0"/><stop offset="1" stop-color="#1daea9"/></linearGradient><linearGradient id="i" gradientUnits="userSpaceOnUse" x1="90.4604" x2="50.9196" xlink:href="#h" y1="31.65" y2="-3.71854"/><linearGradient id="j" gradientUnits="userSpaceOnUse" x1="98.3554" x2="49.6441" xlink:href="#h" y1="40.997" y2="-2.14705"/><linearGradient id="k" gradientUnits="userSpaceOnUse" x1="108.569" x2="48.126" xlink:href="#h" y1="53.7198" y2=".985983"/><linearGradient id="l"><stop offset="0" stop-color="#fff" stop-opacity=".01"/><stop offset="1" stop-color="#e4fffa" stop-opacity=".634315"/></linearGradient><linearGradient id="m" gradientUnits="userSpaceOnUse" x1="54.9433" x2="55.5418" xlink:href="#l" y1="40.552" y2="31.6949"/><linearGradient id="n" gradientUnits="userSpaceOnUse" x1="54.9433" x2="55.5418" xlink:href="#l" y1="47.767" y2="38.91"/><linearGradient id="o" gradientUnits="userSpaceOnUse" x1="54.9433" x2="55.5418" xlink:href="#l" y1="54.9824" y2="46.1253"/><linearGradient id="p" gradientUnits="userSpaceOnUse" x1="40.6281" x2="41.9968" xlink:href="#l" y1="62.1975" y2="53.5158"/><linearGradient id="q" gradientUnits="userSpaceOnUse" x1="40.6281" x2="41.9968" xlink:href="#l" y1="69.4128" y2="60.7311"/><linearGradient id="r" gradientUnits="userSpaceOnUse" x1="40.6281" x2="41.9968" xlink:href="#l" y1="76.6279" y2="67.9462"/><linearGradient id="s" gradientUnits="userSpaceOnUse" x1="66.9737" x2="96.7633" xlink:href="#l" y1="118.014" y2="87.2011"/><linearGradient id="t" gradientUnits="userSpaceOnUse" x1="40.6281" x2="41.9968" xlink:href="#l" y1="83.843" y2="75.1613"/><clipPath id="u"><path d="m0 0h112v120h-112z"/></clipPath><g clip-path="url(#u)"><path d="m54.1084 108.228c25.9126 0 46.9186-9.1813 46.9186-20.5066s-21.006-20.5063-46.9186-20.5063-46.91895 9.181-46.91895 20.5063 21.00635 20.5066 46.91895 20.5066z" stroke="url(#b)"/><path clip-rule="evenodd" d="m55.0549 113.924c20.7928 0 37.6486-6.206 37.6486-13.861 0-7.6547-16.8558-13.8604-37.6486-13.8604s-37.6487 6.2057-37.6487 13.8604c0 7.655 16.8559 13.861 37.6487 13.861z" fill="url(#d)" fill-rule="evenodd" opacity=".36" stroke="url(#e)"/><path clip-rule="evenodd" d="m56.0004 119.62c15.673 0 28.3784-4.59 28.3784-10.253 0-5.662-12.7054-10.253-28.3784-10.253-15.6729 0-28.3783 4.591-28.3783 10.253 0 5.663 12.7054 10.253 28.3783 10.253z" fill="url(#f)" fill-rule="evenodd" opacity=".12" stroke="url(#g)"/><path d="m75.2978 9.49365h-42.7568v45.56965h42.7568z" fill="url(#i)" opacity=".16"/><path d="m79.8383 13.6709h-52.2162v56.2025h52.2162z" fill="url(#j)" fill-opacity=".5"/><path d="m85.8923 19.7468h-63.946v69.8734h63.946z" fill="url(#k)"/><path d="m29.8916 30.7595h47.6757v3.79747h-47.6757z" fill="url(#m)"/><path d="m29.8916 37.9746h47.6757v3.79747h-47.6757z" fill="url(#n)"/><path d="m29.8916 45.1899h47.6757v3.79746h-47.6757z" fill="url(#o)"/><path d="m29.8916 52.405h20.4324v3.79748h-20.4324z" fill="url(#p)"/><path d="m29.8916 59.6204h20.4324v3.79747h-20.4324z" fill="url(#q)"/><path d="m29.8916 66.8354h20.4324v3.79747h-20.4324z" fill="url(#r)"/><path d="m55.2432 52.405h22.3243v25.4431h-22.3243z" fill="url(#s)"/><path d="m29.8916 74.0505h20.4324v3.79749h-20.4324z" fill="url(#t)"/></g></svg>