<svg fill="none" height="596" viewBox="0 0 1823 596" width="1823" xmlns="http://www.w3.org/2000/svg" xmlns:xlink="http://www.w3.org/1999/xlink"><filter id="a" color-interpolation-filters="sRGB" filterUnits="userSpaceOnUse" height="201.437" width="201.437" x="228.782" y="231.782"><feFlood flood-opacity="0" result="BackgroundImageFix"/><feGaussianBlur in="BackgroundImage" stdDeviation="1.359"/><feComposite in2="SourceAlpha" operator="in" result="effect1_backgroundBlur"/><feBlend in="SourceGraphic" in2="effect1_backgroundBlur" result="shape"/></filter><filter id="b" color-interpolation-filters="sRGB" filterUnits="userSpaceOnUse" height="88.437" width="88.437" x="694.782" y="315.782"><feFlood flood-opacity="0" result="BackgroundImageFix"/><feGaussianBlur in="BackgroundImage" stdDeviation="1.359"/><feComposite in2="SourceAlpha" operator="in" result="effect1_backgroundBlur"/><feBlend in="SourceGraphic" in2="effect1_backgroundBlur" result="shape"/></filter><filter id="c" color-interpolation-filters="sRGB" filterUnits="userSpaceOnUse" height="225.437" width="225.437" x="981.782" y="83.782"><feFlood flood-opacity="0" result="BackgroundImageFix"/><feGaussianBlur in="BackgroundImage" stdDeviation="1.359"/><feComposite in2="SourceAlpha" operator="in" result="effect1_backgroundBlur"/><feBlend in="SourceGraphic" in2="effect1_backgroundBlur" result="shape"/></filter><filter id="d" color-interpolation-filters="sRGB" filterUnits="userSpaceOnUse" height="225.437" width="225.437" x="1226.78" y="285.782"><feFlood flood-opacity="0" result="BackgroundImageFix"/><feGaussianBlur in="BackgroundImage" stdDeviation="1.359"/><feComposite in2="SourceAlpha" operator="in" result="effect1_backgroundBlur"/><feBlend in="SourceGraphic" in2="effect1_backgroundBlur" result="shape"/></filter><filter id="e" color-interpolation-filters="sRGB" filterUnits="userSpaceOnUse" height="145.437" width="145.437" x="-3.218" y="237.782"><feFlood flood-opacity="0" result="BackgroundImageFix"/><feGaussianBlur in="BackgroundImage" stdDeviation="1.359"/><feComposite in2="SourceAlpha" operator="in" result="effect1_backgroundBlur"/><feBlend in="SourceGraphic" in2="effect1_backgroundBlur" result="shape"/></filter><filter id="f" color-interpolation-filters="sRGB" filterUnits="userSpaceOnUse" height="75.437" width="75.437" x="473.782" y="427.782"><feFlood flood-opacity="0" result="BackgroundImageFix"/><feGaussianBlur in="BackgroundImage" stdDeviation="1.359"/><feComposite in2="SourceAlpha" operator="in" result="effect1_backgroundBlur"/><feBlend in="SourceGraphic" in2="effect1_backgroundBlur" result="shape"/></filter><filter id="g" color-interpolation-filters="sRGB" filterUnits="userSpaceOnUse" height="72.437" width="72.437" x="1499.78" y="475.782"><feFlood flood-opacity="0" result="BackgroundImageFix"/><feGaussianBlur in="BackgroundImage" stdDeviation="1.359"/><feComposite in2="SourceAlpha" operator="in" result="effect1_backgroundBlur"/><feBlend in="SourceGraphic" in2="effect1_backgroundBlur" result="shape"/></filter><filter id="h" color-interpolation-filters="sRGB" filterUnits="userSpaceOnUse" height="93.437" width="93.437" x="228.782" y="32.782"><feFlood flood-opacity="0" result="BackgroundImageFix"/><feGaussianBlur in="BackgroundImage" stdDeviation="1.359"/><feComposite in2="SourceAlpha" operator="in" result="effect1_backgroundBlur"/><feBlend in="SourceGraphic" in2="effect1_backgroundBlur" result="shape"/></filter><filter id="i" color-interpolation-filters="sRGB" filterUnits="userSpaceOnUse" height="93.437" width="93.437" x="1732.78" y="103.782"><feFlood flood-opacity="0" result="BackgroundImageFix"/><feGaussianBlur in="BackgroundImage" stdDeviation="1.359"/><feComposite in2="SourceAlpha" operator="in" result="effect1_backgroundBlur"/><feBlend in="SourceGraphic" in2="effect1_backgroundBlur" result="shape"/></filter><linearGradient id="j"><stop offset="0" stop-color="#6ee7d0"/><stop offset="1" stop-color="#1daea9"/></linearGradient><linearGradient id="k" gradientUnits="userSpaceOnUse" x1="767.152" x2="597.091" xlink:href="#j" y1="209.811" y2="47.687"/><linearGradient id="l"><stop offset="0" stop-color="#317e7c"/><stop offset="1" stop-color="#04182e"/></linearGradient><linearGradient id="m" gradientUnits="userSpaceOnUse" x1="521.403" x2="370.021" xlink:href="#l" y1="354.309" y2="36.781"/><linearGradient id="n"><stop offset="0" stop-color="#58ccb6" stop-opacity=".328"/><stop offset=".407" stop-color="#58ccb6" stop-opacity=".01"/><stop offset="1" stop-color="#58ccb6"/></linearGradient><linearGradient id="o" gradientUnits="userSpaceOnUse" x1="181.682" x2="294.847" xlink:href="#n" y1="285.477" y2="486.583"/><linearGradient id="p" gradientUnits="userSpaceOnUse" x1="819.698" x2="756.04" xlink:href="#l" y1="369.171" y2="235.646"/><linearGradient id="q" gradientUnits="userSpaceOnUse" x1="676.84" x2="724.428" xlink:href="#n" y1="340.226" y2="424.794"/><linearGradient id="r" gradientUnits="userSpaceOnUse" x1="1310.02" x2="1140.01" xlink:href="#l" y1="220.993" y2="-135.615"/><linearGradient id="s" gradientUnits="userSpaceOnUse" x1="928.489" x2="1055.58" xlink:href="#n" y1="143.689" y2="369.547"/><linearGradient id="t" gradientUnits="userSpaceOnUse" x1="1555.02" x2="1385.01" xlink:href="#l" y1="422.993" y2="66.385"/><linearGradient id="u" gradientUnits="userSpaceOnUse" x1="1173.49" x2="1300.58" xlink:href="#n" y1="345.689" y2="571.547"/><linearGradient id="v" gradientUnits="userSpaceOnUse" x1="1763.66" x2="1572.67" xlink:href="#j" y1="260.479" y2="78.403"/><linearGradient id="w" gradientUnits="userSpaceOnUse" x1="824.469" x2="764.294" xlink:href="#j" y1="71.548" y2="14.182"/><linearGradient id="x" gradientUnits="userSpaceOnUse" x1="206.292" x2="98.384" xlink:href="#l" y1="326.046" y2="99.705"/><linearGradient id="y" gradientUnits="userSpaceOnUse" x1="-35.868" x2="44.799" xlink:href="#n" y1="276.981" y2="420.333"/><linearGradient id="z" gradientUnits="userSpaceOnUse" x1="1069.64" x2="920.511" xlink:href="#j" y1="420.142" y2="277.972"/><linearGradient id="A" gradientUnits="userSpaceOnUse" x1="1411.17" x2="1295.18" xlink:href="#j" y1="68.666" y2="-41.911"/><linearGradient id="B" gradientUnits="userSpaceOnUse" x1="579.404" x2="525.838" xlink:href="#l" y1="473.217" y2="360.861"/><linearGradient id="C" gradientUnits="userSpaceOnUse" x1="459.195" x2="499.238" xlink:href="#n" y1="448.861" y2="520.022"/><linearGradient id="D" gradientUnits="userSpaceOnUse" x1="1600.95" x2="1549.71" xlink:href="#l" y1="519.382" y2="411.91"/><linearGradient id="E" gradientUnits="userSpaceOnUse" x1="1485.97" x2="1524.27" xlink:href="#n" y1="496.084" y2="564.151"/><linearGradient id="F" gradientUnits="userSpaceOnUse" x1="361.118" x2="293.579" xlink:href="#l" y1="89.23" y2="-52.436"/><linearGradient id="G" gradientUnits="userSpaceOnUse" x1="209.55" x2="260.04" xlink:href="#n" y1="58.52" y2="148.245"/><linearGradient id="H" gradientUnits="userSpaceOnUse" x1="1865.12" x2="1797.58" xlink:href="#l" y1="160.23" y2="18.564"/><linearGradient id="I" gradientUnits="userSpaceOnUse" x1="1713.55" x2="1764.04" xlink:href="#n" y1="129.52" y2="219.245"/><linearGradient id="J" gradientUnits="userSpaceOnUse" x1="235.852" x2="159.979" xlink:href="#j" y1="473.3" y2="400.968"/><clipPath id="K"><path d="m0 0h1823v596h-1823z"/></clipPath><g clip-path="url(#K)"><circle cx="600.5" cy="212.5" fill="url(#k)" r="97.5"/><g filter="url(#a)"><circle cx="329.5" cy="332.5" fill="url(#m)" fill-opacity=".64" r="97.5"/><circle cx="329.5" cy="332.5" r="97.5" stroke="url(#o)"/></g><g filter="url(#b)"><circle cx="739" cy="360" fill="url(#p)" fill-opacity=".64" r="41"/><circle cx="739" cy="360" r="41" stroke="url(#q)"/></g><g filter="url(#c)"><circle cx="1094.5" cy="196.5" fill="url(#r)" fill-opacity=".64" r="109.5"/><circle cx="1094.5" cy="196.5" r="109.5" stroke="url(#s)"/></g><g filter="url(#d)"><circle cx="1339.5" cy="398.5" fill="url(#t)" fill-opacity=".64" r="109.5"/><circle cx="1339.5" cy="398.5" r="109.5" stroke="url(#u)"/></g><circle cx="1576.5" cy="263.5" fill="url(#v)" r="109.5"/><circle cx="765.5" cy="72.5" fill="url(#w)" r="34.5"/><g filter="url(#e)"><circle cx="69.5" cy="310.5" fill="url(#x)" fill-opacity=".64" r="69.5"/><circle cx="69.5" cy="310.5" r="69.5" stroke="url(#y)"/></g><circle cx="923.5" cy="422.5" fill="url(#z)" r="85.5"/><circle cx="1297.5" cy="70.5" fill="url(#A)" r="66.5"/><g filter="url(#f)"><circle cx="511.5" cy="465.5" fill="url(#B)" fill-opacity=".64" r="34.5"/><circle cx="511.5" cy="465.5" r="34.5" stroke="url(#C)"/></g><g filter="url(#g)"><circle cx="1536" cy="512" fill="url(#D)" fill-opacity=".64" r="33"/><circle cx="1536" cy="512" r="33" stroke="url(#E)"/></g><g filter="url(#h)"><circle cx="275.5" cy="79.5" fill="url(#F)" fill-opacity=".64" r="43.5"/><circle cx="275.5" cy="79.5" r="43.5" stroke="url(#G)"/></g><g filter="url(#i)"><circle cx="1779.5" cy="150.5" fill="url(#H)" fill-opacity=".64" r="43.5"/><circle cx="1779.5" cy="150.5" r="43.5" stroke="url(#I)"/></g><circle cx="161.5" cy="474.5" fill="url(#J)" r="43.5"/><path d="m535.069 188.144c1.288 2.1 3.64 3.136 7.028 3.136 4.592 0 7.028-2.016 7.028-5.74 0-1.988-.644-3.416-1.904-4.284-1.036-.672-1.512-.868-4.172-1.512-3.248-.812-4.312-1.708-4.312-3.584s1.26-2.996 3.388-2.996c1.764 0 3.08.588 3.92 1.792l2.24-1.456c-1.148-1.848-3.164-2.772-6.076-2.772-4.004 0-6.356 2.072-6.356 5.572 0 3.164 1.596 4.788 5.712 5.824 1.456.364 2.324.588 2.632.672s.616.252.952.504c.728.504 1.092 1.288 1.092 2.324 0 2.044-1.456 3.192-4.116 3.192-2.296 0-3.892-.7-4.76-2.128zm29.393-3.584v-1.12c0-4.9-1.764-6.944-5.936-6.944s-5.936 2.044-5.936 6.944v1.092c0 4.676 1.876 6.748 6.104 6.748 2.716 0 4.34-.728 5.488-2.436l-2.128-1.26c-.7.952-1.736 1.428-3.08 1.428-2.324 0-3.528-1.372-3.528-3.948v-.504zm-9.016-2.296c0-.924.196-1.68.56-2.296.476-.84 1.344-1.26 2.604-1.26 2.044 0 3.136 1.204 3.136 3.528v.28h-6.3zm21.277 5.32c-.7.924-1.652 1.4-2.856 1.4-2.1 0-3.136-1.4-3.136-4.172v-1.54c0-3.052.98-4.48 3.08-4.48 1.204 0 1.848.336 2.632 1.428l2.128-1.204c-.98-1.68-2.632-2.52-4.956-2.52-3.92 0-5.74 2.212-5.74 7v1.036c0 4.508 1.932 6.748 5.824 6.748 2.324 0 4.06-.812 5.152-2.464zm4.742-2.604c0 4.368 1.848 6.3 6.02 6.3 4.144 0 5.992-1.932 5.992-6.3v-2.184c0-4.368-1.848-6.3-5.992-6.3-4.172 0-6.02 1.932-6.02 6.3zm9.156-.196c0 2.912-.952 4.2-3.164 4.2-2.156 0-3.136-1.288-3.136-4.2v-1.792c0-2.912.98-4.2 3.136-4.2 2.212 0 3.164 1.288 3.164 4.2zm9.761 6.216v-7.28c0-3.472.812-4.788 2.968-4.788 2.016 0 2.8 1.204 2.8 4.228v7.84h2.856v-8.148c0-1.596-.14-2.8-.42-3.612-.672-1.82-2.268-2.744-4.76-2.744-1.764 0-3.052.56-3.892 1.708l-.224-1.428h-2.184v14.224zm24.37 0v-19.992h-2.856v6.664a5.042 5.042 0 0 0 -.7-.504l-.084-.084c-.784-.392-1.708-.588-2.8-.588-3.696 0-5.32 1.932-5.32 6.328v2.128c0 4.452 1.624 6.328 5.404 6.328 1.652 0 2.772-.308 3.416-.896.084-.084.224-.196.364-.336a.742.742 0 0 1 .168-.14l.196 1.092zm-8.932-7.98c0-2.884.98-4.228 3.024-4.228s3.052 1.26 3.052 3.808v2.576c0 2.548-1.008 3.808-3.052 3.808s-3.024-1.344-3.024-4.228zm17.847-.476c-4.032 0-5.376 1.12-5.376 4.396 0 3.164 1.316 4.34 4.9 4.34 2.1 0 3.108-.308 4.004-1.204l.196.924h2.268v-8.792c0-1.624-.196-2.772-.56-3.472-.784-1.484-2.38-2.24-4.788-2.24-2.352 0-4.144.756-5.376 2.268l1.96 1.456c.812-.952 1.876-1.428 3.136-1.428 1.932 0 2.772.84 2.772 2.94v.812zm3.136 3.864c0 .868-.112 1.484-.336 1.792-.42.56-1.288.84-2.576.84-2.156 0-2.884-.56-2.884-2.156 0-1.68.812-2.324 2.968-2.324h2.828zm10.145 4.592v-6.916c0-3.612.756-5.124 2.576-5.124.616 0 1.26.252 1.932.728l1.232-2.38c-.98-.532-1.932-.812-2.884-.812-1.456 0-2.296.392-3.192 1.484l-.308-1.204h-2.212v14.224zm12.028 1.54c-.812 2.24-1.288 2.576-3.444 2.548v2.352c4.144-.028 4.928-.616 6.356-4.648l5.376-16.016h-2.884l-3.332 10.976-3.668-10.976h-2.884l5.04 14.084zm-130.44 34.46v-7.308c0-3.444.756-4.76 2.688-4.76 1.82 0 2.548 1.176 2.548 4.228v7.84h2.856v-7.392c0-3.332.756-4.676 2.66-4.676 1.82 0 2.548 1.204 2.548 4.2v7.868h2.856v-8.148c0-1.624-.14-2.828-.392-3.612-.644-1.82-2.156-2.744-4.564-2.744-1.932 0-3.276.7-4.06 2.072-.784-1.372-2.128-2.072-4.004-2.072-1.652 0-2.828.56-3.584 1.68l-.224-1.4h-2.184v14.224zm24.973-8.456c-4.032 0-5.376 1.12-5.376 4.396 0 3.164 1.316 4.34 4.9 4.34 2.1 0 3.108-.308 4.004-1.204l.196.924h2.268v-8.792c0-1.624-.196-2.772-.56-3.472-.784-1.484-2.38-2.24-4.788-2.24-2.352 0-4.144.756-5.376 2.268l1.96 1.456c.812-.952 1.876-1.428 3.136-1.428 1.932 0 2.772.84 2.772 2.94v.812zm3.136 3.864c0 .868-.112 1.484-.336 1.792-.42.56-1.288.84-2.576.84-2.156 0-2.884-.56-2.884-2.156 0-1.68.812-2.324 2.968-2.324h2.828zm10.145 4.592v-6.916c0-3.612.756-5.124 2.576-5.124.616 0 1.26.252 1.932.728l1.232-2.38c-.98-.532-1.932-.812-2.884-.812-1.456 0-2.296.392-3.192 1.484l-.308-1.204h-2.212v14.224zm11.43 0v-3.136l2.352-2.996 3.864 6.132h3.108l-5.236-8.204 4.844-6.02h-3.248l-5.684 7.364v-13.132h-2.856v19.992zm22.923-6.44v-1.12c0-4.9-1.764-6.944-5.936-6.944s-5.936 2.044-5.936 6.944v1.092c0 4.676 1.876 6.748 6.104 6.748 2.716 0 4.34-.728 5.488-2.436l-2.128-1.26c-.7.952-1.736 1.428-3.08 1.428-2.324 0-3.528-1.372-3.528-3.948v-.504zm-9.016-2.296c0-.924.196-1.68.56-2.296.476-.84 1.344-1.26 2.604-1.26 2.044 0 3.136 1.204 3.136 3.528v.28h-6.3zm13.379 3.416c0 4.34.952 5.32 5.208 5.32h.504v-2.352h-.448c-1.82.028-2.408-.588-2.408-2.688v-6.888h2.8v-2.296h-2.8v-4.34h-2.716l-.14 4.34h-1.652v2.296h1.652zm15.317 5.32h2.856v-11.928h3.08v-2.296h-3.08v-1.652c0-1.596.364-1.96 2.072-1.932h.84v-2.184h-1.428c-3.276-.084-4.34.84-4.34 3.836v1.932h-1.708v2.296h1.708zm13.678-8.456c-4.032 0-5.376 1.12-5.376 4.396 0 3.164 1.316 4.34 4.9 4.34 2.1 0 3.108-.308 4.004-1.204l.196.924h2.268v-8.792c0-1.624-.196-2.772-.56-3.472-.784-1.484-2.38-2.24-4.788-2.24-2.352 0-4.144.756-5.376 2.268l1.96 1.456c.812-.952 1.876-1.428 3.136-1.428 1.932 0 2.772.84 2.772 2.94v.812zm3.136 3.864c0 .868-.112 1.484-.336 1.792-.42.56-1.288.84-2.576.84-2.156 0-2.884-.56-2.884-2.156 0-1.68.812-2.324 2.968-2.324h2.828zm6.049 2.436c.98 1.624 2.884 2.436 5.712 2.436 3.892 0 5.824-1.428 5.824-4.312 0-1.568-.42-2.66-1.288-3.248-.728-.532-2.044-.896-3.976-1.12-.924-.112-1.596-.28-2.016-.476-.532-.308-.784-.756-.784-1.4 0-1.316.812-1.96 2.436-1.96 1.372 0 2.156.364 3.024 1.456l2.1-1.232c-1.092-1.652-2.856-2.492-5.348-2.492-3.164 0-4.928 1.54-4.928 4.368 0 1.26.392 2.24 1.176 2.884.644.532 1.82.924 3.556 1.148 1.26.168 2.1.336 2.464.504.588.252.868.756.868 1.512 0 1.4-1.064 2.1-3.22 2.1-1.792 0-2.548-.336-3.528-1.456zm15.824-3.164c0 4.34.952 5.32 5.208 5.32h.504v-2.352h-.448c-1.82.028-2.408-.588-2.408-2.688v-6.888h2.8v-2.296h-2.8v-4.34h-2.716l-.14 4.34h-1.652v2.296h1.652zm16.76-3.5v-2.464h-8.288v2.464zm-104.561 39.5c0 4.34.952 5.32 5.208 5.32h.504v-2.352h-.448c-1.82.028-2.408-.588-2.408-2.688v-6.888h2.8v-2.296h-2.8v-4.34h-2.716l-.14 4.34h-1.652v2.296h1.652zm12.034 5.32v-6.916c0-3.612.756-5.124 2.576-5.124.616 0 1.26.252 1.932.728l1.232-2.38c-.98-.532-1.932-.812-2.884-.812-1.456 0-2.296.392-3.192 1.484l-.308-1.204h-2.212v14.224zm12.832-8.456c-4.032 0-5.376 1.12-5.376 4.396 0 3.164 1.316 4.34 4.9 4.34 2.1 0 3.108-.308 4.004-1.204l.196.924h2.268v-8.792c0-1.624-.196-2.772-.56-3.472-.784-1.484-2.38-2.24-4.788-2.24-2.352 0-4.144.756-5.376 2.268l1.96 1.456c.812-.952 1.876-1.428 3.136-1.428 1.932 0 2.772.84 2.772 2.94v.812zm3.136 3.864c0 .868-.112 1.484-.336 1.792-.42.56-1.288.84-2.576.84-2.156 0-2.884-.56-2.884-2.156 0-1.68.812-2.324 2.968-2.324h2.828zm15.689 1.176c-.7.924-1.652 1.4-2.856 1.4-2.1 0-3.136-1.4-3.136-4.172v-1.54c0-3.052.98-4.48 3.08-4.48 1.204 0 1.848.336 2.632 1.428l2.128-1.204c-.98-1.68-2.632-2.52-4.956-2.52-3.92 0-5.74 2.212-5.74 7v1.036c0 4.508 1.932 6.748 5.824 6.748 2.324 0 4.06-.812 5.152-2.464zm8.156 3.416v-3.136l2.352-2.996 3.864 6.132h3.108l-5.236-8.204 4.844-6.02h-3.248l-5.684 7.364v-13.132h-2.856v19.992zm653.854-216v-12.52h4v-1.76h-10.14v1.76h4v12.52zm4.41-4.3c0 3.12 1.32 4.5 4.3 4.5 2.96 0 4.28-1.38 4.28-4.5v-1.56c0-3.12-1.32-4.5-4.28-4.5-2.98 0-4.3 1.38-4.3 4.5zm6.54-.14c0 2.08-.68 3-2.26 3-1.54 0-2.24-.92-2.24-3v-1.28c0-2.08.7-3 2.24-3 1.58 0 2.26.92 2.26 3zm6.97 4.44v-2.24l1.68-2.14 2.76 4.38h2.22l-3.74-5.86 3.46-4.3h-2.32l-4.06 5.26v-9.38h-2.04v14.28zm16.37-4.6v-.8c0-3.5-1.26-4.96-4.24-4.96s-4.24 1.46-4.24 4.96v.78c0 3.34 1.34 4.82 4.36 4.82 1.94 0 3.1-.52 3.92-1.74l-1.52-.9c-.5.68-1.24 1.02-2.2 1.02-1.66 0-2.52-.98-2.52-2.82v-.36zm-6.44-1.64c0-.66.14-1.2.4-1.64.34-.6.96-.9 1.86-.9 1.46 0 2.24.86 2.24 2.52v.2h-4.5zm11.24 6.24v-5.2c0-2.48.58-3.42 2.12-3.42 1.44 0 2 .86 2 3.02v5.6h2.04v-5.82c0-1.14-.1-2-.3-2.58-.48-1.3-1.62-1.96-3.4-1.96-1.26 0-2.18.4-2.78 1.22l-.16-1.02h-1.56v10.16zm-49.64 23.4v-.8c0-3.5-1.26-4.96-4.24-4.96s-4.24 1.46-4.24 4.96v.78c0 3.34 1.34 4.82 4.36 4.82 1.94 0 3.1-.52 3.92-1.74l-1.52-.9c-.5.68-1.24 1.02-2.2 1.02-1.66 0-2.52-.98-2.52-2.82v-.36zm-6.44-1.64c0-.66.14-1.2.4-1.64.34-.6.96-.9 1.86-.9 1.46 0 2.24.86 2.24 2.52v.2h-4.5zm15.2 3.8c-.5.66-1.18 1-2.04 1-1.5 0-2.24-1-2.24-2.98v-1.1c0-2.18.7-3.2 2.2-3.2.86 0 1.32.24 1.88 1.02l1.52-.86c-.7-1.2-1.88-1.8-3.54-1.8-2.8 0-4.1 1.58-4.1 5v.74c0 3.22 1.38 4.82 4.16 4.82 1.66 0 2.9-.58 3.68-1.76zm3.39-1.86c0 3.12 1.32 4.5 4.3 4.5 2.96 0 4.28-1.38 4.28-4.5v-1.56c0-3.12-1.32-4.5-4.28-4.5-2.98 0-4.3 1.38-4.3 4.5zm6.54-.14c0 2.08-.68 3-2.26 3-1.54 0-2.24-.92-2.24-3v-1.28c0-2.08.7-3 2.24-3 1.58 0 2.26.92 2.26 3zm6.97 4.44v-5.2c0-2.48.58-3.42 2.12-3.42 1.44 0 2 .86 2 3.02v5.6h2.04v-5.82c0-1.14-.1-2-.3-2.58-.48-1.3-1.62-1.96-3.4-1.96-1.26 0-2.18.4-2.78 1.22l-.16-1.02h-1.56v10.16zm9-4.3c0 3.12 1.32 4.5 4.3 4.5 2.96 0 4.28-1.38 4.28-4.5v-1.56c0-3.12-1.32-4.5-4.28-4.5-2.98 0-4.3 1.38-4.3 4.5zm6.54-.14c0 2.08-.68 3-2.26 3-1.54 0-2.24-.92-2.24-3v-1.28c0-2.08.7-3 2.24-3 1.58 0 2.26.92 2.26 3zm6.98 4.44v-5.22c0-2.46.54-3.4 1.92-3.4 1.3 0 1.82.84 1.82 3.02v5.6h2.04v-5.28c0-2.38.54-3.34 1.9-3.34 1.3 0 1.82.86 1.82 3v5.62h2.04v-5.82c0-1.16-.1-2.02-.28-2.58-.46-1.3-1.54-1.96-3.26-1.96-1.38 0-2.34.5-2.9 1.48-.56-.98-1.52-1.48-2.86-1.48-1.18 0-2.02.4-2.56 1.2l-.16-1h-1.56v10.16zm16.52 1.1c-.58 1.6-.92 1.84-2.46 1.82v1.68c2.96-.02 3.52-.44 4.54-3.32l3.84-11.44h-2.06l-2.38 7.84-2.62-7.84h-2.06l3.6 10.06zm-54.44 26.9v-14.28h-2.04v4.76c-.18-.16-.4-.3-.5-.36l-.06-.06c-.56-.28-1.22-.42-2-.42-2.64 0-3.8 1.38-3.8 4.52v1.52c0 3.18 1.16 4.52 3.86 4.52 1.18 0 1.98-.22 2.44-.64.06-.06.16-.14.26-.24.04-.04.08-.08.12-.1l.14.78zm-6.38-5.7c0-2.06.7-3.02 2.16-3.02s2.18.9 2.18 2.72v1.84c0 1.82-.72 2.72-2.18 2.72s-2.16-.96-2.16-3.02zm17.79 1.1v-.8c0-3.5-1.26-4.96-4.24-4.96s-4.24 1.46-4.24 4.96v.78c0 3.34 1.34 4.82 4.36 4.82 1.94 0 3.1-.52 3.92-1.74l-1.52-.9c-.5.68-1.24 1.02-2.2 1.02-1.66 0-2.52-.98-2.52-2.82v-.36zm-6.44-1.64c0-.66.14-1.2.4-1.64.34-.6.96-.9 1.86-.9 1.46 0 2.24.86 2.24 2.52v.2h-4.5zm8.41 4.7c.7 1.16 2.06 1.74 4.08 1.74 2.78 0 4.16-1.02 4.16-3.08 0-1.12-.3-1.9-.92-2.32-.52-.38-1.46-.64-2.84-.8-.66-.08-1.14-.2-1.44-.34-.38-.22-.56-.54-.56-1 0-.94.58-1.4 1.74-1.4.98 0 1.54.26 2.16 1.04l1.5-.88c-.78-1.18-2.04-1.78-3.82-1.78-2.26 0-3.52 1.1-3.52 3.12 0 .9.28 1.6.84 2.06.46.38 1.3.66 2.54.82.9.12 1.5.24 1.76.36.42.18.62.54.62 1.08 0 1-.76 1.5-2.3 1.5-1.28 0-1.82-.24-2.52-1.04zm12.79-10.52v-2.32h-2.04v2.32zm-2.04 12.06h2.04v-10.16h-2.04zm11.29.08c-.06 2.1-.8 3.02-2.48 3.02-.98 0-1.54-.28-2.1-1.06l-1.52.88c.74 1.18 1.98 1.78 3.7 1.78 2.96 0 4.44-1.62 4.44-4.84v-10.02h-1.58l-.18.8c-.66-.66-1.62-1-2.86-1-2.62 0-3.78 1.38-3.78 4.52v1.52c0 3.12 1.18 4.52 3.76 4.52 1.14 0 2-.28 2.62-.84zm-4.34-5.78c0-2.06.7-3.02 2.16-3.02s2.18.9 2.18 2.72v1.84c0 1.82-.72 2.72-2.18 2.72s-2.16-.96-2.16-3.02zm11.67 5.7v-5.2c0-2.48.58-3.42 2.12-3.42 1.44 0 2 .86 2 3.02v5.6h2.04v-5.82c0-1.14-.1-2-.3-2.58-.48-1.3-1.62-1.96-3.4-1.96-1.26 0-2.18.4-2.78 1.22l-.16-1.02h-1.56v10.16z" fill="#000"/><path d="m270.287 309c1.876 0 3.248-.364 4.116-1.064 1.204-.924 1.792-2.408 1.792-4.424 0-1.372-.252-2.492-.784-3.36-.252-.476-.756-.952-1.456-1.428l-.28-.168c1.428-.924 2.156-2.352 2.156-4.284 0-1.764-.532-3.108-1.568-4.06-.924-.812-2.38-1.204-4.34-1.204h-7.532v19.992zm-4.928-17.584h4.34c2.1 0 3.164 1.008 3.164 3.052 0 1.12-.308 1.932-.896 2.436-.504.42-1.26.644-2.268.644h-4.34zm0 8.54h4.732c2.1 0 3.136 1.12 3.136 3.332s-1.036 3.304-3.136 3.304h-4.732zm14.44 3.724c0 4.256 1.036 5.32 5.18 5.32h.728v-2.324h-.616c-1.876 0-2.436-.616-2.436-2.716v-14.952h-2.856zm7.947-.7c0 4.368 1.848 6.3 6.02 6.3 4.144 0 5.992-1.932 5.992-6.3v-2.184c0-4.368-1.848-6.3-5.992-6.3-4.172 0-6.02 1.932-6.02 6.3zm9.156-.196c0 2.912-.952 4.2-3.164 4.2-2.156 0-3.136-1.288-3.136-4.2v-1.792c0-2.912.98-4.2 3.136-4.2 2.212 0 3.164 1.288 3.164 4.2zm15.305 2.8c-.7.924-1.652 1.4-2.856 1.4-2.1 0-3.136-1.4-3.136-4.172v-1.54c0-3.052.98-4.48 3.08-4.48 1.204 0 1.848.336 2.632 1.428l2.128-1.204c-.98-1.68-2.632-2.52-4.956-2.52-3.92 0-5.74 2.212-5.74 7v1.036c0 4.508 1.932 6.748 5.824 6.748 2.324 0 4.06-.812 5.152-2.464zm8.155 3.416v-3.136l2.352-2.996 3.864 6.132h3.108l-5.236-8.204 4.844-6.02h-3.248l-5.684 7.364v-13.132h-2.856v19.992zm19.9-3.416c-.7.924-1.652 1.4-2.856 1.4-2.1 0-3.136-1.4-3.136-4.172v-1.54c0-3.052.98-4.48 3.08-4.48 1.204 0 1.848.336 2.632 1.428l2.128-1.204c-.98-1.68-2.632-2.52-4.956-2.52-3.92 0-5.74 2.212-5.74 7v1.036c0 4.508 1.932 6.748 5.824 6.748 2.324 0 4.06-.812 5.152-2.464zm8.155 3.416v-7.448c0-3.276.868-4.648 2.968-4.648 1.988 0 2.8 1.204 2.8 4.2v7.896h2.856v-8.148c0-1.596-.14-2.8-.42-3.612-.672-1.82-2.24-2.744-4.676-2.744-1.652 0-2.436.28-3.528 1.204v-6.692h-2.856v19.992zm17.426-8.456c-4.032 0-5.376 1.12-5.376 4.396 0 3.164 1.316 4.34 4.9 4.34 2.1 0 3.108-.308 4.004-1.204l.196.924h2.268v-8.792c0-1.624-.196-2.772-.56-3.472-.784-1.484-2.38-2.24-4.788-2.24-2.352 0-4.144.756-5.376 2.268l1.96 1.456c.812-.952 1.876-1.428 3.136-1.428 1.932 0 2.772.84 2.772 2.94v.812zm3.136 3.864c0 .868-.112 1.484-.336 1.792-.42.56-1.288.84-2.576.84-2.156 0-2.884-.56-2.884-2.156 0-1.68.812-2.324 2.968-2.324h2.828zm10.145-12.292v-3.248h-2.856v3.248zm-2.856 16.884h2.856v-14.224h-2.856zm10.239 0v-7.28c0-3.472.812-4.788 2.968-4.788 2.016 0 2.8 1.204 2.8 4.228v7.84h2.856v-8.148c0-1.596-.14-2.8-.42-3.612-.672-1.82-2.268-2.744-4.76-2.744-1.764 0-3.052.56-3.892 1.708l-.224-1.428h-2.184v14.224zm-112.796 30.68c0 4.34.952 5.32 5.208 5.32h.504v-2.352h-.448c-1.82.028-2.408-.588-2.408-2.688v-6.888h2.8v-2.296h-2.8v-4.34h-2.716l-.14 4.34h-1.652v2.296h1.652zm20.465-1.12v-1.12c0-4.9-1.764-6.944-5.936-6.944s-5.936 2.044-5.936 6.944v1.092c0 4.676 1.876 6.748 6.104 6.748 2.716 0 4.34-.728 5.488-2.436l-2.128-1.26c-.7.952-1.736 1.428-3.08 1.428-2.324 0-3.528-1.372-3.528-3.948v-.504zm-9.016-2.296c0-.924.196-1.68.56-2.296.476-.84 1.344-1.26 2.604-1.26 2.044 0 3.136 1.204 3.136 3.528v.28h-6.3zm21.278 5.32c-.7.924-1.652 1.4-2.856 1.4-2.1 0-3.136-1.4-3.136-4.172v-1.54c0-3.052.98-4.48 3.08-4.48 1.204 0 1.848.336 2.632 1.428l2.128-1.204c-.98-1.68-2.632-2.52-4.956-2.52-3.92 0-5.74 2.212-5.74 7v1.036c0 4.508 1.932 6.748 5.824 6.748 2.324 0 4.06-.812 5.152-2.464zm8.155 3.416v-7.448c0-3.276.868-4.648 2.968-4.648 1.988 0 2.8 1.204 2.8 4.2v7.896h2.856v-8.148c0-1.596-.14-2.8-.42-3.612-.672-1.82-2.24-2.744-4.676-2.744-1.652 0-2.436.28-3.528 1.204v-6.692h-2.856v19.992zm15.914 0v-7.28c0-3.472.812-4.788 2.968-4.788 2.016 0 2.8 1.204 2.8 4.228v7.84h2.856v-8.148c0-1.596-.14-2.8-.42-3.612-.672-1.82-2.268-2.744-4.76-2.744-1.764 0-3.052.56-3.892 1.708l-.224-1.428h-2.184v14.224zm15.914-16.884v-3.248h-2.856v3.248zm-2.856 16.884h2.856v-14.224h-2.856zm15.783-3.416c-.7.924-1.652 1.4-2.856 1.4-2.1 0-3.136-1.4-3.136-4.172v-1.54c0-3.052.98-4.48 3.08-4.48 1.204 0 1.848.336 2.632 1.428l2.128-1.204c-.98-1.68-2.632-2.52-4.956-2.52-3.92 0-5.74 2.212-5.74 7v1.036c0 4.508 1.932 6.748 5.824 6.748 2.324 0 4.06-.812 5.152-2.464zm10.104-5.04c-4.032 0-5.376 1.12-5.376 4.396 0 3.164 1.316 4.34 4.9 4.34 2.1 0 3.108-.308 4.004-1.204l.196.924h2.268v-8.792c0-1.624-.196-2.772-.56-3.472-.784-1.484-2.38-2.24-4.788-2.24-2.352 0-4.144.756-5.376 2.268l1.96 1.456c.812-.952 1.876-1.428 3.136-1.428 1.932 0 2.772.84 2.772 2.94v.812zm3.136 3.864c0 .868-.112 1.484-.336 1.792-.42.56-1.288.84-2.576.84-2.156 0-2.884-.56-2.884-2.156 0-1.68.812-2.324 2.968-2.324h2.828zm7.261-.728c0 4.256 1.036 5.32 5.18 5.32h.728v-2.324h-.616c-1.876 0-2.436-.616-2.436-2.716v-14.952h-2.856zm-99.622 39.164c.98 1.624 2.884 2.436 5.712 2.436 3.892 0 5.824-1.428 5.824-4.312 0-1.568-.42-2.66-1.288-3.248-.728-.532-2.044-.896-3.976-1.12-.924-.112-1.596-.28-2.016-.476-.532-.308-.784-.756-.784-1.4 0-1.316.812-1.96 2.436-1.96 1.372 0 2.156.364 3.024 1.456l2.1-1.232c-1.092-1.652-2.856-2.492-5.348-2.492-3.164 0-4.928 1.54-4.928 4.368 0 1.26.392 2.24 1.176 2.884.644.532 1.82.924 3.556 1.148 1.26.168 2.1.336 2.464.504.588.252.868.756.868 1.512 0 1.4-1.064 2.1-3.22 2.1-1.792 0-2.548-.336-3.528-1.456zm14.937-3.92c0 1.624.14 2.828.42 3.612.644 1.82 2.184 2.744 4.62 2.744 1.764 0 3.024-.588 3.752-1.736l.308 1.456h2.072v-14.224h-2.856v7.28c0 3.472-.784 4.788-2.8 4.788-1.904 0-2.66-1.204-2.66-4.2v-7.868h-2.856zm18.582 12.376v-7.14c.952.756 2.128 1.12 3.556 1.12 3.724 0 5.348-1.932 5.348-6.328v-2.128c0-4.396-1.624-6.328-5.348-6.328-1.596 0-2.912.448-3.92 1.344l-.28-1.064h-2.212v20.524zm6.076-12.544c0 2.884-.98 4.228-3.024 4.228s-3.052-1.26-3.052-3.808v-2.576c0-2.548 1.008-3.808 3.052-3.808s3.024 1.344 3.024 4.228zm9.783 12.544v-7.14c.952.756 2.128 1.12 3.556 1.12 3.724 0 5.348-1.932 5.348-6.328v-2.128c0-4.396-1.624-6.328-5.348-6.328-1.596 0-2.912.448-3.92 1.344l-.28-1.064h-2.212v20.524zm6.076-12.544c0 2.884-.98 4.228-3.024 4.228s-3.052-1.26-3.052-3.808v-2.576c0-2.548 1.008-3.808 3.052-3.808s3.024 1.344 3.024 4.228zm6.452.224c0 4.368 1.848 6.3 6.02 6.3 4.144 0 5.992-1.932 5.992-6.3v-2.184c0-4.368-1.848-6.3-5.992-6.3-4.172 0-6.02 1.932-6.02 6.3zm9.156-.196c0 2.912-.952 4.2-3.164 4.2-2.156 0-3.136-1.288-3.136-4.2v-1.792c0-2.912.98-4.2 3.136-4.2 2.212 0 3.164 1.288 3.164 4.2zm9.761 6.216v-6.916c0-3.612.756-5.124 2.576-5.124.616 0 1.26.252 1.932.728l1.232-2.38c-.98-.532-1.932-.812-2.884-.812-1.456 0-2.296.392-3.192 1.484l-.308-1.204h-2.212v14.224zm9.595-5.32c0 4.34.952 5.32 5.208 5.32h.504v-2.352h-.448c-1.82.028-2.408-.588-2.408-2.688v-6.888h2.8v-2.296h-2.8v-4.34h-2.716l-.14 4.34h-1.652v2.296h1.652zm-340.765-68.68c1.609 0 2.785-.312 3.529-.912 1.032-.792 1.536-2.064 1.536-3.792 0-1.176-.216-2.136-.672-2.88-.216-.408-.648-.816-1.248-1.224l-.24-.144c1.224-.792 1.848-2.016 1.848-3.672 0-1.512-.456-2.664-1.344-3.48-.792-.696-2.04-1.032-3.72-1.032h-6.456v17.136h6.768zm-4.223-15.072h3.72c1.8 0 2.712.864 2.712 2.616 0 .96-.264 1.656-.768 2.088-.432.36-1.08.552-1.944.552h-3.72zm0 7.32h4.056c1.8 0 2.688.96 2.688 2.856s-.888 2.832-2.688 2.832h-4.056zm12.304 2.544c0 1.392.12 2.424.36 3.096.552 1.56 1.872 2.352 3.96 2.352 1.512 0 2.592-.504 3.216-1.488l.264 1.248h1.776v-12.192h-2.447v6.24c0 2.976-.672 4.104-2.4 4.104-1.632 0-2.28-1.032-2.28-3.6v-6.744h-2.448v6.984zm12.112 3.36c.84 1.392 2.472 2.088 4.896 2.088 3.336 0 4.992-1.224 4.992-3.696 0-1.344-.36-2.28-1.104-2.784-.624-.456-1.752-.768-3.408-.96-.792-.096-1.368-.24-1.728-.408-.456-.264-.672-.648-.672-1.2 0-1.128.696-1.68 2.088-1.68 1.176 0 1.848.312 2.592 1.248l1.8-1.056c-.936-1.416-2.448-2.136-4.584-2.136-2.712 0-4.224 1.32-4.224 3.744 0 1.08.336 1.92 1.008 2.472.552.456 1.56.792 3.048.984 1.08.144 1.8.288 2.112.432.504.216.744.648.744 1.296 0 1.2-.912 1.8-2.76 1.8-1.536 0-2.184-.288-3.024-1.248zm15.346-12.624v-2.784h-2.448v2.784zm-2.448 14.472h2.448v-12.192h-2.448zm8.777 0v-6.24c0-2.976.695-4.104 2.543-4.104 1.728 0 2.4 1.032 2.4 3.624v6.72h2.448v-6.984c0-1.368-.12-2.4-.36-3.096-.575-1.56-1.944-2.352-4.08-2.352-1.511 0-2.615.48-3.335 1.464l-.193-1.224h-1.871v12.192zm20.984-5.52v-.96c0-4.2-1.512-5.952-5.088-5.952s-5.088 1.752-5.088 5.952v.936c0 4.008 1.608 5.784 5.232 5.784 2.328 0 3.72-.624 4.704-2.088l-1.824-1.08c-.6.816-1.488 1.224-2.64 1.224-1.992 0-3.024-1.176-3.024-3.384v-.432zm-7.728-1.968c0-.792.168-1.44.48-1.968.408-.72 1.152-1.08 2.232-1.08 1.752 0 2.688 1.032 2.688 3.024v.24h-5.4zm10.092 5.64c.84 1.392 2.472 2.088 4.896 2.088 3.336 0 4.992-1.224 4.992-3.696 0-1.344-.36-2.28-1.104-2.784-.624-.456-1.752-.768-3.408-.96-.792-.096-1.368-.24-1.728-.408-.456-.264-.672-.648-.672-1.2 0-1.128.696-1.68 2.088-1.68 1.176 0 1.848.312 2.592 1.248l1.8-1.056c-.936-1.416-2.448-2.136-4.584-2.136-2.712 0-4.224 1.32-4.224 3.744 0 1.08.336 1.92 1.008 2.472.552.456 1.56.792 3.048.984 1.08.144 1.8.288 2.112.432.504.216.744.648.744 1.296 0 1.2-.912 1.8-2.76 1.8-1.536 0-2.184-.288-3.024-1.248zm12.141 0c.84 1.392 2.472 2.088 4.896 2.088 3.336 0 4.992-1.224 4.992-3.696 0-1.344-.36-2.28-1.104-2.784-.624-.456-1.752-.768-3.408-.96-.792-.096-1.368-.24-1.728-.408-.456-.264-.672-.648-.672-1.2 0-1.128.696-1.68 2.088-1.68 1.176 0 1.848.312 2.592 1.248l1.8-1.056c-.936-1.416-2.448-2.136-4.584-2.136-2.712 0-4.224 1.32-4.224 3.744 0 1.08.336 1.92 1.008 2.472.552.456 1.56.792 3.048.984 1.08.144 1.8.288 2.112.432.504.216.744.648.744 1.296 0 1.2-.912 1.8-2.76 1.8-1.536 0-2.184-.288-3.024-1.248zm-80.442 39.248v-6.12c.816.648 1.824.96 3.048.96 3.192 0 4.584-1.656 4.584-5.424v-1.824c0-3.768-1.392-5.424-4.584-5.424-1.368 0-2.496.384-3.36 1.152l-.24-.912h-1.896v17.592zm5.208-10.752c0 2.472-.84 3.624-2.592 3.624s-2.616-1.08-2.616-3.264v-2.208c0-2.184.864-3.264 2.616-3.264s2.592 1.152 2.592 3.624zm5.89.792c0 3.648.888 4.56 4.44 4.56h.624v-1.992h-.528c-1.608 0-2.088-.528-2.088-2.328v-12.816h-2.448zm10.94-2.688c-3.456 0-4.608.96-4.608 3.768 0 2.712 1.127 3.72 4.2 3.72 1.8 0 2.664-.264 3.431-1.032l.169.792h1.944v-7.536c0-1.392-.169-2.376-.48-2.976-.672-1.272-2.04-1.92-4.104-1.92-2.017 0-3.552.648-4.608 1.944l1.68 1.248c.696-.816 1.608-1.224 2.688-1.224 1.655 0 2.375.72 2.375 2.52v.696h-2.688zm2.688 3.312c0 .744-.096 1.272-.288 1.536-.36.48-1.104.72-2.208.72-1.849 0-2.472-.48-2.472-1.848 0-1.44.696-1.992 2.544-1.992h2.423v1.584zm8.694 3.936v-6.24c0-2.976.696-4.104 2.544-4.104 1.728 0 2.4 1.032 2.4 3.624v6.72h2.448v-6.984c0-1.368-.12-2.4-.36-3.096-.576-1.56-1.944-2.352-4.08-2.352-1.512 0-2.616.48-3.336 1.464l-.192-1.224h-1.872v12.192zm13.64 0v-6.24c0-2.976.697-4.104 2.545-4.104 1.728 0 2.4 1.032 2.4 3.624v6.72h2.448v-6.984c0-1.368-.12-2.4-.36-3.096-.576-1.56-1.944-2.352-4.08-2.352-1.512 0-2.616.48-3.336 1.464l-.192-1.224h-1.872v12.192h2.448zm13.642-14.472v-2.784h-2.449v2.784h2.448zm-2.448 14.472h2.448v-12.192h-2.447v12.192zm8.777 0v-6.24c0-2.976.696-4.104 2.544-4.104 1.728 0 2.4 1.032 2.4 3.624v6.72h2.448v-6.984c0-1.368-.12-2.4-.36-3.096-.576-1.56-1.944-2.352-4.08-2.352-1.512 0-2.616.48-3.336 1.464l-.192-1.224h-1.872v12.192zm18.393.096c-.072 2.52-.96 3.624-2.976 3.624-1.176 0-1.848-.336-2.52-1.272l-1.824 1.056c.888 1.416 2.376 2.136 4.44 2.136 3.552 0 5.328-1.944 5.328-5.808v-12.024h-1.896l-.216.96c-.792-.792-1.944-1.2-3.432-1.2-3.144 0-4.536 1.656-4.536 5.424v1.824c0 3.744 1.416 5.424 4.512 5.424 1.368 0 2.4-.336 3.144-1.008zm-5.208-6.936c0-2.472.84-3.624 2.592-3.624s2.616 1.08 2.616 3.264v2.208c0 2.184-.864 3.264-2.616 3.264s-2.592-1.152-2.592-3.624zm930.309-158.16v-14.28l4.9 10.108h1.9l4.9-10.108v14.28h2.89v-19.992h-2.86l-5.88 12.32-5.88-12.32h-2.85v19.992zm23.92-8.456c-4.03 0-5.37 1.12-5.37 4.396 0 3.164 1.31 4.34 4.9 4.34 2.1 0 3.11-.308 4-1.204l.2.924h2.27v-8.792c0-1.624-.2-2.772-.56-3.472-.79-1.484-2.38-2.24-4.79-2.24-2.35 0-4.15.756-5.38 2.268l1.96 1.456c.81-.952 1.88-1.428 3.14-1.428 1.93 0 2.77.84 2.77 2.94v.812zm3.14 3.864c0 .868-.11 1.484-.34 1.792-.42.56-1.28.84-2.57.84-2.16 0-2.89-.56-2.89-2.156 0-1.68.82-2.324 2.97-2.324h2.83zm10.14 4.592v-6.916c0-3.612.76-5.124 2.58-5.124.62 0 1.26.252 1.93.728l1.23-2.38c-.98-.532-1.93-.812-2.88-.812-1.46 0-2.3.392-3.19 1.484l-.31-1.204h-2.21v14.224zm11.43 0v-3.136l2.36-2.996 3.86 6.132h3.11l-5.24-8.204 4.85-6.02h-3.25l-5.69 7.364v-13.132h-2.85v19.992zm22.93-6.44v-1.12c0-4.9-1.77-6.944-5.94-6.944s-5.93 2.044-5.93 6.944v1.092c0 4.676 1.87 6.748 6.1 6.748 2.72 0 4.34-.728 5.49-2.436l-2.13-1.26c-.7.952-1.74 1.428-3.08 1.428-2.32 0-3.53-1.372-3.53-3.948v-.504zm-9.02-2.296c0-.924.2-1.68.56-2.296.48-.84 1.35-1.26 2.61-1.26 2.04 0 3.13 1.204 3.13 3.528v.28h-6.3zm13.38 3.416c0 4.34.95 5.32 5.21 5.32h.5v-2.352h-.45c-1.82.028-2.4-.588-2.4-2.688v-6.888h2.8v-2.296h-2.8v-4.34h-2.72l-.14 4.34h-1.65v2.296h1.65zm12.03-11.564v-3.248h-2.85v3.248zm-2.85 16.884h2.85v-14.224h-2.85zm10.24 0v-7.28c0-3.472.81-4.788 2.97-4.788 2.01 0 2.8 1.204 2.8 4.228v7.84h2.85v-8.148c0-1.596-.14-2.8-.42-3.612-.67-1.82-2.27-2.744-4.76-2.744-1.76 0-3.05.56-3.89 1.708l-.22-1.428h-2.19v14.224zm21.46.112c-.09 2.94-1.12 4.228-3.48 4.228-1.37 0-2.15-.392-2.94-1.484l-2.12 1.232c1.03 1.652 2.77 2.492 5.18 2.492 4.14 0 6.21-2.268 6.21-6.776v-14.028h-2.21l-.25 1.12c-.93-.924-2.27-1.4-4.01-1.4-3.66 0-5.29 1.932-5.29 6.328v2.128c0 4.368 1.65 6.328 5.27 6.328 1.59 0 2.8-.392 3.66-1.176zm-6.08-8.092c0-2.884.98-4.228 3.02-4.228 2.05 0 3.06 1.26 3.06 3.808v2.576c0 2.548-1.01 3.808-3.06 3.808-2.04 0-3.02-1.344-3.02-4.228zm-89.64 35.524c-4.03 0-5.38 1.12-5.38 4.396 0 3.164 1.32 4.34 4.9 4.34 2.1 0 3.11-.308 4.01-1.204l.19.924h2.27v-8.792c0-1.624-.19-2.772-.56-3.472-.78-1.484-2.38-2.24-4.79-2.24-2.35 0-4.14.756-5.37 2.268l1.96 1.456c.81-.952 1.87-1.428 3.13-1.428 1.94 0 2.78.84 2.78 2.94v.812zm3.14 3.864c0 .868-.12 1.484-.34 1.792-.42.56-1.29.84-2.58.84-2.15 0-2.88-.56-2.88-2.156 0-1.68.81-2.324 2.97-2.324h2.83zm10.14 4.592v-7.28c0-3.472.81-4.788 2.97-4.788 2.01 0 2.8 1.204 2.8 4.228v7.84h2.85v-8.148c0-1.596-.14-2.8-.42-3.612-.67-1.82-2.26-2.744-4.76-2.744-1.76 0-3.05.56-3.89 1.708l-.22-1.428h-2.19v14.224zm24.37 0v-19.992h-2.86v6.664c-.25-.224-.56-.42-.7-.504l-.08-.084c-.78-.392-1.71-.588-2.8-.588-3.7 0-5.32 1.932-5.32 6.328v2.128c0 4.452 1.62 6.328 5.4 6.328 1.66 0 2.78-.308 3.42-.896.08-.084.22-.196.36-.336.06-.056.12-.112.17-.14l.2 1.092zm-8.93-7.98c0-2.884.98-4.228 3.02-4.228 2.05 0 3.05 1.26 3.05 3.808v2.576c0 2.548-1 3.808-3.05 3.808-2.04 0-3.02-1.344-3.02-4.228zm26.08.476c2.27 0 3.9-.448 4.9-1.344 1.15-1.036 1.74-2.688 1.74-4.928 0-2.044-.5-3.584-1.48-4.62-1.1-1.148-2.55-1.596-5.16-1.596h-6.58v19.992h3v-7.504zm-3.64-10.08h3.64c2.55 0 3.67 1.148 3.67 3.836 0 2.66-1.12 3.808-3.67 3.808h-3.64zm20.92 9.184 4.01 8.4h3.3l-4.37-8.68c2.78-.644 3.95-2.352 3.95-5.628 0-1.876-.47-3.276-1.43-4.228-.98-.98-2.6-1.456-4.9-1.456h-7.11v19.992h3v-8.4zm-3.61-9.184h3.89c2.55 0 3.64 1.036 3.64 3.416 0 2.324-1.09 3.388-3.47 3.388h-4.06zm-79.64 51.428c.98 1.624 2.88 2.436 5.71 2.436 3.89 0 5.82-1.428 5.82-4.312 0-1.568-.42-2.66-1.28-3.248-.73-.532-2.05-.896-3.98-1.12-.92-.112-1.6-.28-2.02-.476-.53-.308-.78-.756-.78-1.4 0-1.316.81-1.96 2.44-1.96 1.37 0 2.15.364 3.02 1.456l2.1-1.232c-1.09-1.652-2.86-2.492-5.35-2.492-3.16 0-4.93 1.54-4.93 4.368 0 1.26.4 2.24 1.18 2.884.64.532 1.82.924 3.56 1.148 1.26.168 2.1.336 2.46.504.59.252.87.756.87 1.512 0 1.4-1.07 2.1-3.22 2.1-1.79 0-2.55-.336-3.53-1.456zm14.93-3.92c0 1.624.14 2.828.42 3.612.65 1.82 2.19 2.744 4.62 2.744 1.77 0 3.03-.588 3.76-1.736l.3 1.456h2.08v-14.224h-2.86v7.28c0 3.472-.78 4.788-2.8 4.788-1.9 0-2.66-1.204-2.66-4.2v-7.868h-2.86zm18.59 12.376v-7.14c.95.756 2.12 1.12 3.55 1.12 3.73 0 5.35-1.932 5.35-6.328v-2.128c0-4.396-1.62-6.328-5.35-6.328-1.59 0-2.91.448-3.92 1.344l-.28-1.064h-2.21v20.524zm6.07-12.544c0 2.884-.98 4.228-3.02 4.228-2.05 0-3.05-1.26-3.05-3.808v-2.576c0-2.548 1-3.808 3.05-3.808 2.04 0 3.02 1.344 3.02 4.228zm9.79 12.544v-7.14c.95.756 2.12 1.12 3.55 1.12 3.73 0 5.35-1.932 5.35-6.328v-2.128c0-4.396-1.62-6.328-5.35-6.328-1.59 0-2.91.448-3.92 1.344l-.28-1.064h-2.21v20.524zm6.07-12.544c0 2.884-.98 4.228-3.02 4.228-2.05 0-3.05-1.26-3.05-3.808v-2.576c0-2.548 1-3.808 3.05-3.808 2.04 0 3.02 1.344 3.02 4.228zm6.45.224c0 4.368 1.85 6.3 6.02 6.3 4.15 0 5.99-1.932 5.99-6.3v-2.184c0-4.368-1.84-6.3-5.99-6.3-4.17 0-6.02 1.932-6.02 6.3zm9.16-.196c0 2.912-.95 4.2-3.17 4.2-2.15 0-3.13-1.288-3.13-4.2v-1.792c0-2.912.98-4.2 3.13-4.2 2.22 0 3.17 1.288 3.17 4.2zm9.76 6.216v-6.916c0-3.612.76-5.124 2.58-5.124.61 0 1.26.252 1.93.728l1.23-2.38c-.98-.532-1.93-.812-2.88-.812-1.46 0-2.3.392-3.2 1.484l-.3-1.204h-2.22v14.224zm9.6-5.32c0 4.34.95 5.32 5.2 5.32h.51v-2.352h-.45c-1.82.028-2.41-.588-2.41-2.688v-6.888h2.8v-2.296h-2.8v-4.34h-2.71l-.14 4.34h-1.66v2.296h1.66zm155.13 133.32c1.87 0 3.25-.364 4.11-1.064 1.21-.924 1.8-2.408 1.8-4.424 0-1.372-.26-2.492-.79-3.36-.25-.476-.75-.952-1.45-1.428l-.28-.168c1.42-.924 2.15-2.352 2.15-4.284 0-1.764-.53-3.108-1.57-4.06-.92-.812-2.38-1.204-4.34-1.204h-7.53v19.992zm-4.93-17.584h4.34c2.1 0 3.16 1.008 3.16 3.052 0 1.12-.3 1.932-.89 2.436-.51.42-1.26.644-2.27.644h-4.34zm0 8.54h4.73c2.1 0 3.14 1.12 3.14 3.332s-1.04 3.304-3.14 3.304h-4.73zm14.35 2.968c0 1.624.14 2.828.42 3.612.65 1.82 2.19 2.744 4.62 2.744 1.77 0 3.03-.588 3.76-1.736l.3 1.456h2.08v-14.224h-2.86v7.28c0 3.472-.78 4.788-2.8 4.788-1.9 0-2.66-1.204-2.66-4.2v-7.868h-2.86zm14.13 3.92c.98 1.624 2.89 2.436 5.72 2.436 3.89 0 5.82-1.428 5.82-4.312 0-1.568-.42-2.66-1.29-3.248-.73-.532-2.04-.896-3.97-1.12-.93-.112-1.6-.28-2.02-.476-.53-.308-.78-.756-.78-1.4 0-1.316.81-1.96 2.43-1.96 1.37 0 2.16.364 3.03 1.456l2.1-1.232c-1.1-1.652-2.86-2.492-5.35-2.492-3.17 0-4.93 1.54-4.93 4.368 0 1.26.39 2.24 1.18 2.884.64.532 1.82.924 3.55 1.148 1.26.168 2.1.336 2.47.504.58.252.86.756.86 1.512 0 1.4-1.06 2.1-3.22 2.1-1.79 0-2.54-.336-3.52-1.456zm17.91-14.728v-3.248h-2.86v3.248zm-2.86 16.884h2.86v-14.224h-2.86zm10.24 0v-7.28c0-3.472.81-4.788 2.97-4.788 2.02 0 2.8 1.204 2.8 4.228v7.84h2.86v-8.148c0-1.596-.14-2.8-.42-3.612-.68-1.82-2.27-2.744-4.76-2.744-1.77 0-3.06.56-3.9 1.708l-.22-1.428h-2.18v14.224zm24.48-6.44v-1.12c0-4.9-1.76-6.944-5.93-6.944s-5.94 2.044-5.94 6.944v1.092c0 4.676 1.88 6.748 6.11 6.748 2.71 0 4.34-.728 5.48-2.436l-2.12-1.26c-.7.952-1.74 1.428-3.08 1.428-2.33 0-3.53-1.372-3.53-3.948v-.504zm-9.01-2.296c0-.924.19-1.68.56-2.296.47-.84 1.34-1.26 2.6-1.26 2.05 0 3.14 1.204 3.14 3.528v.28h-6.3zm11.77 6.58c.98 1.624 2.89 2.436 5.71 2.436 3.9 0 5.83-1.428 5.83-4.312 0-1.568-.42-2.66-1.29-3.248-.73-.532-2.04-.896-3.98-1.12-.92-.112-1.59-.28-2.01-.476-.53-.308-.79-.756-.79-1.4 0-1.316.82-1.96 2.44-1.96 1.37 0 2.16.364 3.02 1.456l2.1-1.232c-1.09-1.652-2.85-2.492-5.34-2.492-3.17 0-4.93 1.54-4.93 4.368 0 1.26.39 2.24 1.17 2.884.65.532 1.82.924 3.56 1.148 1.26.168 2.1.336 2.46.504.59.252.87.756.87 1.512 0 1.4-1.06 2.1-3.22 2.1-1.79 0-2.55-.336-3.53-1.456zm14.17 0c.98 1.624 2.88 2.436 5.71 2.436 3.89 0 5.82-1.428 5.82-4.312 0-1.568-.42-2.66-1.29-3.248-.72-.532-2.04-.896-3.97-1.12-.93-.112-1.6-.28-2.02-.476-.53-.308-.78-.756-.78-1.4 0-1.316.81-1.96 2.43-1.96 1.38 0 2.16.364 3.03 1.456l2.1-1.232c-1.09-1.652-2.86-2.492-5.35-2.492-3.16 0-4.93 1.54-4.93 4.368 0 1.26.39 2.24 1.18 2.884.64.532 1.82.924 3.55 1.148 1.26.168 2.1.336 2.47.504.59.252.87.756.87 1.512 0 1.4-1.07 2.1-3.22 2.1-1.8 0-2.55-.336-3.53-1.456zm-112.61 44.456v-7.14c.95.756 2.13 1.12 3.56 1.12 3.72 0 5.34-1.932 5.34-6.328v-2.128c0-4.396-1.62-6.328-5.34-6.328-1.6 0-2.92.448-3.92 1.344l-.28-1.064h-2.22v20.524zm6.08-12.544c0 2.884-.98 4.228-3.03 4.228-2.04 0-3.05-1.26-3.05-3.808v-2.576c0-2.548 1.01-3.808 3.05-3.808 2.05 0 3.03 1.344 3.03 4.228zm11.26-2.212c-4.03 0-5.37 1.12-5.37 4.396 0 3.164 1.31 4.34 4.9 4.34 2.1 0 3.1-.308 4-1.204l.2.924h2.26v-8.792c0-1.624-.19-2.772-.56-3.472-.78-1.484-2.38-2.24-4.78-2.24-2.36 0-4.15.756-5.38 2.268l1.96 1.456c.81-.952 1.88-1.428 3.14-1.428 1.93 0 2.77.84 2.77 2.94v.812zm3.14 3.864c0 .868-.11 1.484-.34 1.792-.42.56-1.29.84-2.57.84-2.16 0-2.89-.56-2.89-2.156 0-1.68.81-2.324 2.97-2.324h2.83zm10.14 4.592v-6.916c0-3.612.76-5.124 2.58-5.124.62 0 1.26.252 1.93.728l1.23-2.38c-.98-.532-1.93-.812-2.88-.812-1.46 0-2.3.392-3.19 1.484l-.31-1.204h-2.21v14.224zm9.6-5.32c0 4.34.95 5.32 5.21 5.32h.5v-2.352h-.45c-1.82.028-2.4-.588-2.4-2.688v-6.888h2.8v-2.296h-2.8v-4.34h-2.72l-.14 4.34h-1.65v2.296h1.65zm12.03 5.32v-7.28c0-3.472.81-4.788 2.97-4.788 2.02 0 2.8 1.204 2.8 4.228v7.84h2.86v-8.148c0-1.596-.14-2.8-.42-3.612-.68-1.82-2.27-2.744-4.76-2.744-1.77 0-3.06.56-3.9 1.708l-.22-1.428h-2.18v14.224zm24.48-6.44v-1.12c0-4.9-1.76-6.944-5.93-6.944s-5.94 2.044-5.94 6.944v1.092c0 4.676 1.88 6.748 6.11 6.748 2.71 0 4.34-.728 5.48-2.436l-2.12-1.26c-.7.952-1.74 1.428-3.08 1.428-2.33 0-3.53-1.372-3.53-3.948v-.504zm-9.01-2.296c0-.924.19-1.68.56-2.296.47-.84 1.34-1.26 2.6-1.26 2.05 0 3.14 1.204 3.14 3.528v.28h-6.3zm15.73 8.736v-6.916c0-3.612.76-5.124 2.58-5.124.61 0 1.26.252 1.93.728l1.23-2.38c-.98-.532-1.93-.812-2.88-.812-1.46 0-2.3.392-3.19 1.484l-.31-1.204h-2.21v14.224zm6.93-2.156c.98 1.624 2.88 2.436 5.71 2.436 3.89 0 5.82-1.428 5.82-4.312 0-1.568-.42-2.66-1.29-3.248-.72-.532-2.04-.896-3.97-1.12-.93-.112-1.6-.28-2.02-.476-.53-.308-.78-.756-.78-1.4 0-1.316.81-1.96 2.43-1.96 1.38 0 2.16.364 3.03 1.456l2.1-1.232c-1.09-1.652-2.86-2.492-5.35-2.492-3.16 0-4.93 1.54-4.93 4.368 0 1.26.39 2.24 1.18 2.884.64.532 1.82.924 3.55 1.148 1.26.168 2.1.336 2.47.504.59.252.87.756.87 1.512 0 1.4-1.07 2.1-3.22 2.1-1.8 0-2.55-.336-3.53-1.456zm17.9 2.156v-7.448c0-3.276.87-4.648 2.97-4.648 1.99 0 2.8 1.204 2.8 4.2v7.896h2.85v-8.148c0-1.596-.14-2.8-.42-3.612-.67-1.82-2.24-2.744-4.67-2.744-1.65 0-2.44.28-3.53 1.204v-6.692h-2.86v19.992zm15.91-16.884v-3.248h-2.85v3.248zm-2.85 16.884h2.85v-14.224h-2.85zm10.27 6.3v-7.14c.95.756 2.12 1.12 3.55 1.12 3.73 0 5.35-1.932 5.35-6.328v-2.128c0-4.396-1.62-6.328-5.35-6.328-1.59 0-2.91.448-3.92 1.344l-.28-1.064h-2.21v20.524zm6.07-12.544c0 2.884-.98 4.228-3.02 4.228-2.05 0-3.05-1.26-3.05-3.808v-2.576c0-2.548 1-3.808 3.05-3.808 2.04 0 3.02 1.344 3.02 4.228zm-117.37 40.088c.98 1.624 2.88 2.436 5.71 2.436 3.89 0 5.82-1.428 5.82-4.312 0-1.568-.42-2.66-1.28-3.248-.73-.532-2.05-.896-3.98-1.12-.92-.112-1.6-.28-2.02-.476-.53-.308-.78-.756-.78-1.4 0-1.316.81-1.96 2.44-1.96 1.37 0 2.15.364 3.02 1.456l2.1-1.232c-1.09-1.652-2.86-2.492-5.35-2.492-3.16 0-4.93 1.54-4.93 4.368 0 1.26.4 2.24 1.18 2.884.64.532 1.82.924 3.56 1.148 1.26.168 2.1.336 2.46.504.59.252.87.756.87 1.512 0 1.4-1.07 2.1-3.22 2.1-1.79 0-2.55-.336-3.53-1.456zm14.93-3.92c0 1.624.14 2.828.42 3.612.65 1.82 2.19 2.744 4.62 2.744 1.77 0 3.03-.588 3.76-1.736l.3 1.456h2.08v-14.224h-2.86v7.28c0 3.472-.78 4.788-2.8 4.788-1.9 0-2.66-1.204-2.66-4.2v-7.868h-2.86zm18.59 12.376v-7.14c.95.756 2.12 1.12 3.55 1.12 3.73 0 5.35-1.932 5.35-6.328v-2.128c0-4.396-1.62-6.328-5.35-6.328-1.59 0-2.91.448-3.92 1.344l-.28-1.064h-2.21v20.524zm6.07-12.544c0 2.884-.98 4.228-3.02 4.228-2.05 0-3.05-1.26-3.05-3.808v-2.576c0-2.548 1-3.808 3.05-3.808 2.04 0 3.02 1.344 3.02 4.228zm9.79 12.544v-7.14c.95.756 2.12 1.12 3.55 1.12 3.73 0 5.35-1.932 5.35-6.328v-2.128c0-4.396-1.62-6.328-5.35-6.328-1.59 0-2.91.448-3.92 1.344l-.28-1.064h-2.21v20.524zm6.07-12.544c0 2.884-.98 4.228-3.02 4.228-2.05 0-3.05-1.26-3.05-3.808v-2.576c0-2.548 1-3.808 3.05-3.808 2.04 0 3.02 1.344 3.02 4.228zm6.45.224c0 4.368 1.85 6.3 6.02 6.3 4.15 0 5.99-1.932 5.99-6.3v-2.184c0-4.368-1.84-6.3-5.99-6.3-4.17 0-6.02 1.932-6.02 6.3zm9.16-.196c0 2.912-.95 4.2-3.17 4.2-2.15 0-3.13-1.288-3.13-4.2v-1.792c0-2.912.98-4.2 3.13-4.2 2.22 0 3.17 1.288 3.17 4.2zm9.76 6.216v-6.916c0-3.612.76-5.124 2.58-5.124.61 0 1.26.252 1.93.728l1.23-2.38c-.98-.532-1.93-.812-2.88-.812-1.46 0-2.3.392-3.2 1.484l-.3-1.204h-2.22v14.224zm9.6-5.32c0 4.34.95 5.32 5.2 5.32h.51v-2.352h-.45c-1.82.028-2.41-.588-2.41-2.688v-6.888h2.8v-2.296h-2.8v-4.34h-2.71l-.14 4.34h-1.66v2.296h1.66z" fill="#69ffe3"/><path d="m899.833 418v-2.816h-10.368v-20.032h-3.424v22.848zm16.721-7.36v-1.28c0-5.6-2.016-7.936-6.784-7.936s-6.784 2.336-6.784 7.936v1.248c0 5.344 2.144 7.712 6.976 7.712 3.104 0 4.96-.832 6.272-2.784l-2.432-1.44c-.8 1.088-1.984 1.632-3.52 1.632-2.656 0-4.032-1.568-4.032-4.512v-.576zm-10.304-2.624c0-1.056.224-1.92.64-2.624.544-.96 1.536-1.44 2.976-1.44 2.336 0 3.584 1.376 3.584 4.032v.32h-7.2zm24.444 10.112c-.096 3.36-1.28 4.832-3.968 4.832-1.568 0-2.464-.448-3.36-1.696l-2.432 1.408c1.184 1.888 3.168 2.848 5.92 2.848 4.736 0 7.104-2.592 7.104-7.744v-16.032h-2.528l-.288 1.28c-1.056-1.056-2.592-1.6-4.576-1.6-4.192 0-6.048 2.208-6.048 7.232v2.432c0 4.992 1.888 7.232 6.016 7.232 1.824 0 3.2-.448 4.192-1.344zm-6.944-9.248c0-3.296 1.12-4.832 3.456-4.832s3.488 1.44 3.488 4.352v2.944c0 2.912-1.152 4.352-3.488 4.352s-3.456-1.536-3.456-4.832zm20.397-.544c-4.608 0-6.144 1.28-6.144 5.024 0 3.616 1.504 4.96 5.6 4.96 2.4 0 3.552-.352 4.576-1.376l.224 1.056h2.592v-10.048c0-1.856-.224-3.168-.64-3.968-.896-1.696-2.72-2.56-5.472-2.56-2.688 0-4.736.864-6.144 2.592l2.24 1.664c.928-1.088 2.144-1.632 3.583-1.632 2.209 0 3.169.96 3.169 3.36v.928zm3.584 4.416c0 .992-.128 1.696-.384 2.048-.48.64-1.472.96-2.944.96-2.464 0-3.296-.64-3.296-2.464 0-1.92.928-2.656 3.392-2.656h3.232zm8.298-.832c0 4.864 1.184 6.08 5.92 6.08h.832v-2.656h-.704c-2.144 0-2.784-.704-2.784-3.104v-17.088h-3.264zm-71.945 36.416c-4.608 0-6.144 1.28-6.144 5.024 0 3.616 1.504 4.96 5.6 4.96 2.4 0 3.552-.352 4.576-1.376l.224 1.056h2.592v-10.048c0-1.856-.224-3.168-.64-3.968-.896-1.696-2.72-2.56-5.472-2.56-2.688 0-4.736.864-6.144 2.592l2.24 1.664c.928-1.088 2.144-1.632 3.584-1.632 2.208 0 3.168.96 3.168 3.36v.928zm3.584 4.416c0 .992-.128 1.696-.384 2.048-.48.64-1.472.96-2.944.96-2.464 0-3.296-.64-3.296-2.464 0-1.92.928-2.656 3.392-2.656h3.232zm21.258 5.248v-22.848h-3.264v7.616a5.762 5.762 0 0 0 -.8-.576l-.096-.096c-.896-.448-1.952-.672-3.2-.672-4.224 0-6.08 2.208-6.08 7.232v2.432c0 5.088 1.856 7.232 6.176 7.232 1.888 0 3.168-.352 3.904-1.024.096-.096.256-.224.416-.384.064-.064.128-.128.192-.16l.224 1.248zm-10.208-9.12c0-3.296 1.12-4.832 3.456-4.832s3.488 1.44 3.488 4.352v2.944c0 2.912-1.152 4.352-3.488 4.352s-3.456-1.536-3.456-4.832zm22.629 9.12 5.728-16.256h-3.296l-3.968 12.192-3.968-12.192h-3.296l5.76 16.256zm12.634-19.296v-3.712h-3.264v3.712zm-3.264 19.296h3.264v-16.256h-3.264zm18.038-3.904c-.8 1.056-1.888 1.6-3.264 1.6-2.4 0-3.584-1.6-3.584-4.768v-1.76c0-3.488 1.12-5.12 3.52-5.12 1.376 0 2.112.384 3.008 1.632l2.432-1.376c-1.12-1.92-3.008-2.88-5.664-2.88-4.48 0-6.56 2.528-6.56 8v1.184c0 5.152 2.208 7.712 6.656 7.712 2.656 0 4.64-.928 5.888-2.816zm18.924-3.456v-1.28c0-5.6-2.016-7.936-6.784-7.936s-6.784 2.336-6.784 7.936v1.248c0 5.344 2.144 7.712 6.976 7.712 3.104 0 4.96-.832 6.272-2.784l-2.432-1.44c-.8 1.088-1.984 1.632-3.52 1.632-2.656 0-4.032-1.568-4.032-4.512v-.576zm-10.304-2.624c0-1.056.224-1.92.64-2.624.544-.96 1.536-1.44 2.976-1.44 2.336 0 3.584 1.376 3.584 4.032v.32h-7.2zm582.895-222.52c2.27 0 3.9-.448 4.9-1.344 1.15-1.036 1.74-2.688 1.74-4.928 0-2.044-.5-3.584-1.48-4.62-1.1-1.148-2.55-1.596-5.16-1.596h-6.58v19.992h3v-7.504zm-3.64-10.08h3.64c2.55 0 3.67 1.148 3.67 3.836 0 2.66-1.12 3.808-3.67 3.808h-3.64zm16.48 17.584v-6.916c0-3.612.76-5.124 2.58-5.124.61 0 1.26.252 1.93.728l1.23-2.38c-.98-.532-1.93-.812-2.88-.812-1.46 0-2.3.392-3.2 1.484l-.3-1.204h-2.22v14.224zm7.63-6.02c0 4.368 1.85 6.3 6.02 6.3 4.15 0 6-1.932 6-6.3v-2.184c0-4.368-1.85-6.3-6-6.3-4.17 0-6.02 1.932-6.02 6.3zm9.16-.196c0 2.912-.95 4.2-3.16 4.2-2.16 0-3.14-1.288-3.14-4.2v-1.792c0-2.912.98-4.2 3.14-4.2 2.21 0 3.16 1.288 3.16 4.2zm6.94 6.496c.08 2.884-.87 3.92-3.36 3.808v2.352c4.9.028 6.3-1.4 6.21-6.44v-14.224h-2.85zm2.85-17.164v-3.248h-2.85v3.248zm16.03 10.444v-1.12c0-4.9-1.76-6.944-5.93-6.944-4.18 0-5.94 2.044-5.94 6.944v1.092c0 4.676 1.88 6.748 6.1 6.748 2.72 0 4.34-.728 5.49-2.436l-2.13-1.26c-.7.952-1.73 1.428-3.08 1.428-2.32 0-3.52-1.372-3.52-3.948v-.504zm-9.01-2.296c0-.924.19-1.68.56-2.296.47-.84 1.34-1.26 2.6-1.26 2.04 0 3.14 1.204 3.14 3.528v.28h-6.3zm21.27 5.32c-.7.924-1.65 1.4-2.85 1.4-2.1 0-3.14-1.4-3.14-4.172v-1.54c0-3.052.98-4.48 3.08-4.48 1.2 0 1.85.336 2.63 1.428l2.13-1.204c-.98-1.68-2.63-2.52-4.96-2.52-3.92 0-5.74 2.212-5.74 7v1.036c0 4.508 1.94 6.748 5.83 6.748 2.32 0 4.06-.812 5.15-2.464zm6.19-1.904c0 4.34.95 5.32 5.2 5.32h.51v-2.352h-.45c-1.82.028-2.41-.588-2.41-2.688v-6.888h2.8v-2.296h-2.8v-4.34h-2.71l-.14 4.34h-1.66v2.296h1.66zm-91.66 34.88v-1.12c0-4.9-1.77-6.944-5.94-6.944s-5.93 2.044-5.93 6.944v1.092c0 4.676 1.87 6.748 6.1 6.748 2.72 0 4.34-.728 5.49-2.436l-2.13-1.26c-.7.952-1.74 1.428-3.08 1.428-2.32 0-3.53-1.372-3.53-3.948v-.504zm-9.02-2.296c0-.924.2-1.68.56-2.296.48-.84 1.35-1.26 2.61-1.26 2.04 0 3.13 1.204 3.13 3.528v.28h-6.3zm21.28 5.32c-.7.924-1.65 1.4-2.86 1.4-2.1 0-3.13-1.4-3.13-4.172v-1.54c0-3.052.98-4.48 3.08-4.48 1.2 0 1.85.336 2.63 1.428l2.13-1.204c-.98-1.68-2.63-2.52-4.96-2.52-3.92 0-5.74 2.212-5.74 7v1.036c0 4.508 1.93 6.748 5.83 6.748 2.32 0 4.06-.812 5.15-2.464zm4.74-2.604c0 4.368 1.85 6.3 6.02 6.3 4.15 0 5.99-1.932 5.99-6.3v-2.184c0-4.368-1.84-6.3-5.99-6.3-4.17 0-6.02 1.932-6.02 6.3zm9.16-.196c0 2.912-.95 4.2-3.17 4.2-2.15 0-3.13-1.288-3.13-4.2v-1.792c0-2.912.98-4.2 3.13-4.2 2.22 0 3.17 1.288 3.17 4.2zm5.33 4.06c.98 1.624 2.89 2.436 5.72 2.436 3.89 0 5.82-1.428 5.82-4.312 0-1.568-.42-2.66-1.29-3.248-.73-.532-2.04-.896-3.97-1.12-.93-.112-1.6-.28-2.02-.476-.53-.308-.78-.756-.78-1.4 0-1.316.81-1.96 2.43-1.96 1.37 0 2.16.364 3.03 1.456l2.1-1.232c-1.1-1.652-2.86-2.492-5.35-2.492-3.17 0-4.93 1.54-4.93 4.368 0 1.26.39 2.24 1.18 2.884.64.532 1.82.924 3.55 1.148 1.26.168 2.1.336 2.47.504.58.252.86.756.86 1.512 0 1.4-1.06 2.1-3.22 2.1-1.79 0-2.54-.336-3.52-1.456zm18.02 3.696c-.82 2.24-1.29 2.576-3.45 2.548v2.352c4.15-.028 4.93-.616 6.36-4.648l5.37-16.016h-2.88l-3.33 10.976-3.67-10.976h-2.88l5.04 14.084zm9.82-3.696c.98 1.624 2.88 2.436 5.71 2.436 3.89 0 5.83-1.428 5.83-4.312 0-1.568-.42-2.66-1.29-3.248-.73-.532-2.05-.896-3.98-1.12-.92-.112-1.59-.28-2.01-.476-.54-.308-.79-.756-.79-1.4 0-1.316.81-1.96 2.44-1.96 1.37 0 2.15.364 3.02 1.456l2.1-1.232c-1.09-1.652-2.85-2.492-5.35-2.492-3.16 0-4.92 1.54-4.92 4.368 0 1.26.39 2.24 1.17 2.884.65.532 1.82.924 3.56 1.148 1.26.168 2.1.336 2.46.504.59.252.87.756.87 1.512 0 1.4-1.06 2.1-3.22 2.1-1.79 0-2.55-.336-3.53-1.456zm15.82-3.164c0 4.34.96 5.32 5.21 5.32h.51v-2.352h-.45c-1.82.028-2.41-.588-2.41-2.688v-6.888h2.8v-2.296h-2.8v-4.34h-2.72l-.14 4.34h-1.65v2.296h1.65zm20.47-1.12v-1.12c0-4.9-1.76-6.944-5.94-6.944-4.17 0-5.93 2.044-5.93 6.944v1.092c0 4.676 1.87 6.748 6.1 6.748 2.72 0 4.34-.728 5.49-2.436l-2.13-1.26c-.7.952-1.73 1.428-3.08 1.428-2.32 0-3.53-1.372-3.53-3.948v-.504zm-9.02-2.296c0-.924.2-1.68.56-2.296.48-.84 1.35-1.26 2.61-1.26 2.04 0 3.13 1.204 3.13 3.528v.28h-6.3zm15.74 8.736v-7.308c0-3.444.75-4.76 2.68-4.76 1.82 0 2.55 1.176 2.55 4.228v7.84h2.86v-7.392c0-3.332.75-4.676 2.66-4.676 1.82 0 2.55 1.204 2.55 4.2v7.868h2.85v-8.148c0-1.624-.14-2.828-.39-3.612-.64-1.82-2.16-2.744-4.56-2.744-1.94 0-3.28.7-4.06 2.072-.79-1.372-2.13-2.072-4.01-2.072-1.65 0-2.83.56-3.58 1.68l-.23-1.4h-2.18v14.224zm-103.81 32.584c-.7.924-1.65 1.4-2.85 1.4-2.1 0-3.14-1.4-3.14-4.172v-1.54c0-3.052.98-4.48 3.08-4.48 1.21 0 1.85.336 2.63 1.428l2.13-1.204c-.98-1.68-2.63-2.52-4.95-2.52-3.92 0-5.74 2.212-5.74 7v1.036c0 4.508 1.93 6.748 5.82 6.748 2.32 0 4.06-.812 5.15-2.464zm4.74-2.604c0 4.368 1.85 6.3 6.02 6.3 4.15 0 6-1.932 6-6.3v-2.184c0-4.368-1.85-6.3-6-6.3-4.17 0-6.02 1.932-6.02 6.3zm9.16-.196c0 2.912-.95 4.2-3.16 4.2-2.16 0-3.14-1.288-3.14-4.2v-1.792c0-2.912.98-4.2 3.14-4.2 2.21 0 3.16 1.288 3.16 4.2zm9.76 6.216v-7.28c0-3.472.81-4.788 2.97-4.788 2.02 0 2.8 1.204 2.8 4.228v7.84h2.86v-8.148c0-1.596-.14-2.8-.42-3.612-.68-1.82-2.27-2.744-4.76-2.744-1.77 0-3.06.56-3.9 1.708l-.22-1.428h-2.18v14.224zm11.49-2.156c.98 1.624 2.89 2.436 5.71 2.436 3.9 0 5.83-1.428 5.83-4.312 0-1.568-.42-2.66-1.29-3.248-.73-.532-2.04-.896-3.98-1.12-.92-.112-1.59-.28-2.01-.476-.53-.308-.79-.756-.79-1.4 0-1.316.82-1.96 2.44-1.96 1.37 0 2.16.364 3.02 1.456l2.1-1.232c-1.09-1.652-2.85-2.492-5.34-2.492-3.17 0-4.93 1.54-4.93 4.368 0 1.26.39 2.24 1.17 2.884.65.532 1.82.924 3.56 1.148 1.26.168 2.1.336 2.46.504.59.252.87.756.87 1.512 0 1.4-1.06 2.1-3.22 2.1-1.79 0-2.55-.336-3.53-1.456zm14.94-3.92c0 1.624.14 2.828.42 3.612.64 1.82 2.18 2.744 4.62 2.744 1.76 0 3.02-.588 3.75-1.736l.31 1.456h2.07v-14.224h-2.86v7.28c0 3.472-.78 4.788-2.8 4.788-1.9 0-2.66-1.204-2.66-4.2v-7.868h-2.85zm15.67.756c0 4.256 1.03 5.32 5.18 5.32h.73v-2.324h-.62c-1.88 0-2.44-.616-2.44-2.716v-14.952h-2.85zm8.81 0c0 4.34.96 5.32 5.21 5.32h.51v-2.352h-.45c-1.82.028-2.41-.588-2.41-2.688v-6.888h2.8v-2.296h-2.8v-4.34h-2.72l-.14 4.34h-1.65v2.296h1.65zm12.04-11.564v-3.248h-2.86v3.248zm-2.86 16.884h2.86v-14.224h-2.86zm10.24 0v-7.28c0-3.472.81-4.788 2.97-4.788 2.01 0 2.8 1.204 2.8 4.228v7.84h2.85v-8.148c0-1.596-.14-2.8-.42-3.612-.67-1.82-2.26-2.744-4.76-2.744-1.76 0-3.05.56-3.89 1.708l-.22-1.428h-2.19v14.224zm21.46.112c-.08 2.94-1.12 4.228-3.47 4.228-1.37 0-2.16-.392-2.94-1.484l-2.13 1.232c1.04 1.652 2.77 2.492 5.18 2.492 4.14 0 6.22-2.268 6.22-6.776v-14.028h-2.22l-.25 1.12c-.92-.924-2.27-1.4-4-1.4-3.67 0-5.29 1.932-5.29 6.328v2.128c0 4.368 1.65 6.328 5.26 6.328 1.6 0 2.8-.392 3.67-1.176zm-6.08-8.092c0-2.884.98-4.228 3.03-4.228 2.04 0 3.05 1.26 3.05 3.808v2.576c0 2.548-1.01 3.808-3.05 3.808-2.05 0-3.03-1.344-3.03-4.228z" fill="#000"/></g></svg>