<svg fill="none" height="20" preserveAspectRatio="none" viewBox="0 0 116 20" width="116" xmlns="http://www.w3.org/2000/svg" xmlns:xlink="http://www.w3.org/1999/xlink"><clipPath id="a"><path d="m0 0h116v20h-116z"/></clipPath><g clip-path="url(#a)"><g fill="#28cd96"><path d="m98.3029 7.33795c-.0636-.37624-.176-.74161-.3339-1.086-.1656-.35469-.3875-.67729-.6562-.95401-.3817-.40812-.8352-.73482-1.3355-.96199-.5451-.23139-1.1291-.345-1.7171-.334-.5878-.00958-1.1716.10397-1.717.334-.5009.22596-.9547.5528-1.3355.96199-.2682.27724-.49.59973-.6563.95401-.1553.3448-.265.71015-.3262 1.086-.0661.41199-.1044.82835-.1145 1.24599 0 .444-.0153.92201-.0134 1.43206.0019.5099 0 .9859.0134 1.4319.01.4177.0483.8341.1145 1.246.0608.376.1706.7414.3262 1.0861.1672.3542.389.6772.6563.9559.3805.4087.8344.7343 1.3355.958.5452.2314 1.1289.3464 1.717.338.5883.0098 1.1723-.1052 1.7171-.338.5005-.225.9541-.5504 1.3355-.958.268-.2781.4898-.6012.6562-.9559.1581-.3444.2705-.7098.3339-1.0861.0676-.4118.1071-.8282.1183-1.246.0134-.446.0191-.922.0153-1.4319-.0039-.51005 0-.98806-.0153-1.43206-.0113-.41774-.0508-.83411-.1183-1.24599zm-2.0986 4.08795c-.0118.3084-.0417.6156-.0897.92-.033.2016-.0907.3979-.1717.5841-.1853.3846-.4901.6914-.8642.8699-.2577.1144-.5348.1729-.8147.172-.281.0003-.5592-.0582-.8184-.172-.2326-.1037-.4399-.2609-.6067-.46-.108-.1215-.1975-.2598-.2652-.4099-.0805-.1859-.1364-.3824-.166-.5841-.0466-.3044-.0746-.6117-.0839-.92-.0178-.3733-.0261-.84-.0248-1.4 0-.56395 0-1.03595.0248-1.40995.0093-.30756.0373-.61419.0839-.91801.0299-.20227.0858-.39938.166-.58599.0679-.14702.1574-.28199.2652-.4.1662-.19967.3737-.35699.6067-.46.2584-.11661.5371-.17519.8184-.172.2801-.00377.5578.05485.8147.172.2293.10473.4333.2619.5971.46.1066.11947.1965.25414.2671.4.0807.18693.1384.38384.1717.58599.048.30377.078.61036.0897.91801.0172.374.0267.846.0267 1.40995 0 .564-.0057 1.026-.0229 1.4z"/><path d="m115.807 4.09995h-1.818c-.051 0-.099.02108-.135.05858-.036.03751-.056.08838-.056.14142v7.04205l-4.433-7.18804c-.031-.048-.056-.05801-.123-.05801h-1.686c-.051 0-.099.02107-.135.05858s-.056.08837-.056.14142v11.42595c0 .0531.02.104.056.1415s.084.0585.135.0585h1.818c.051 0 .099-.021.135-.0585s.056-.0884.056-.1415v-7.05995l4.436 7.20005c.028.048.053.056.12.056h1.686c.051 0 .099-.0211.135-.0586s.056-.0884.056-.1414v-11.41805c0-.05304-.02-.10391-.056-.14142-.036-.0375-.084-.05858-.135-.05858z"/><path d="m103.618 4.10205h-1.818c-.106 0-.193.09044-.193.202v11.42605c0 .1115.087.202.193.202h1.818c.107 0 .193-.0905.193-.202v-11.42605c0-.11156-.086-.202-.193-.202z"/><path d="m82.1704 7.68002c.0692-.38068.2425-.73207.4988-1.01143.2562-.27936.5843-.47466.9445-.56216.3601-.0875.7367-.06342 1.0841.0693.3473.13272.6504.36837.8723.67829.1616.25543.2797.53828.3492.836.0027.01501.0107.02841.0223.03764.0116.00922.0261.01363.0406.01236h2.1387c.0305 0 .042-.022.0362-.052-.2346-1.388-.9386-2.634-2.1863-3.252-.6132-.2966-1.2822-.44492-1.9575-.434-.5649-.013-1.1263.09546-1.6497.3187-.5233.22325-.9975.55653-1.3932.9793-.4703.48215-.7908 1.10183-.9196 1.778-.2544 1.9516-.2544 3.93038 0 5.88198.1288.6762.4493 1.2959.9196 1.778.3959.4224.8701.7553 1.3935.9782.5233.2229 1.0847.3311 1.6494.3178.6755.0113 1.3447-.1378 1.9575-.436 1.2477-.616 1.9517-1.862 2.1863-3.25 0-.032.0001-.052-.0362-.052h-2.1387c-.0146-.0017-.0293.0025-.041.0118s-.0196.023-.0219.0382c-.0698.2976-.1879.5804-.3492.836-.2219.3099-.525.5456-.8723.6783-.3474.1327-.724.1568-1.0841.0693-.3602-.0875-.6883-.2828-.9445-.5621-.2563-.2794-.4296-.6308-.4988-1.0115-.0474-.3044-.0761-.6117-.0859-.92-.0152-.376-.021-.85-.021-1.418 0-.56797 0-1.03998.021-1.41798.0097-.30828.0384-.61558.0859-.92z"/><path d="m62.388 8.80395 3.5982-4.524c.0725-.09.042-.18001-.0725-.18001h-2.4134c-.0146-.00136-.0292.00146-.0423.00816-.0131.00669-.0242.01701-.0321.02984l-3.955 4.972v-4.81c0-.05304-.0201-.10391-.0558-.14141-.0358-.03751-.0843-.05859-.1349-.05859h-1.8144c-.0506 0-.0991.02108-.1349.05859-.0358.0375-.0559.08837-.0559.14141v11.42596c0 .0531.0201.104.0559.1415s.0843.0585.1349.0585h1.8182c.0506 0 .0991-.021.1349-.0585s.0558-.0884.0558-.1415v-3.35l1.4576-1.828 2.9953 5.324c.0117.0189.0279.0344.0469.0449.0191.0105.0404.0157.0619.0151h2.2073c.1011 0 .1202-.066.0687-.158z"/><path d="m76.67 4.1001h-1.8162c-.0506 0-.0992.02108-.1349.05859-.0358.0375-.0559.08837-.0559.14141v7.49c0 1.184-.9272 2.178-1.9498 2.178s-1.9498-1-1.9498-2.178v-7.49c0-.05304-.0201-.10391-.0559-.14141-.0358-.03751-.0843-.05859-.1349-.05859h-1.8163c-.0506 0-.0991.02108-.1349.05859-.0358.0375-.0558.08837-.0558.14141v7.462c0 2.6 1.8601 4.266 4.1514 4.266s4.1533-1.658 4.1533-4.266v-7.462c.0001-.02712-.0052-.05397-.0153-.07891-.0102-.02495-.0251-.04746-.0439-.06617-.0187-.01871-.0409-.03322-.0651-.04266-.0243-.00944-.0501-.01361-.076-.01226z"/><path d="m48.2128 7.83412c.305.30007.7093.464 1.1275.45707s.8174-.18416 1.1132-.49419c.2957-.31003.4648-.72853.4714-1.16692.0066-.4384-.1498-.86229-.436-1.18196l-4.699-4.926001c-.3035-.313897-.7127-.4898924-1.139-.4898924s-.8355.1759954-1.139.4898924l-6.7766 7.106001v-4.22399c0-.22168-.0416-.44118-.1226-.64598-.0809-.20479-.1995-.39088-.349-.54763-.1495-.15674-.327-.28107-.5224-.3659s-.4047-.12849-.6162-.12849-.4208.04366-.6162.12849c-.1953.08483-.3729.20916-.5224.3659-.1495.15675-.2681.34284-.349.54763-.081.2048-.1226.4243-.1226.64598v13.22597c0 .2217.0416.4412.1226.646.0809.2048.1995.3909.349.5476.1495.1568.3271.2811.5224.3659.1954.0849.4047.1285.6162.1285s.4208-.0436.6162-.1285c.1954-.0848.3729-.2091.5224-.3659.1495-.1567.2681-.3428.349-.5476.081-.2048.1226-.4243.1226-.646v-4.224l6.7766 7.104c.3035.3139.7127.4899 1.139.4899s.8355-.176 1.139-.4899l4.6971-4.924c.2957-.3177.4602-.7449.4577-1.1888-.0025-.444-.1718-.8691-.4711-1.1831-.2994-.3141-.7047-.4919-1.1282-.4949s-.8311.169-1.1345.4788l-3.5657 3.732-5.6396-5.914 5.6396-5.91598z"/><path d="m42.8365 10.0159c0 .3465.0981.6853.2817.9734s.4447.5126.75.6452c.3054.1327.6415.1674.9657.0998.3241-.0676.6219-.2345.8557-.4795.2337-.2451.3929-.5572.4574-.8971.0644-.3398.0313-.6921-.0952-1.01224-.1264-.32014-.3407-.59377-.6155-.78628s-.5979-.29526-.9285-.29526c-.4432 0-.8683.18458-1.1818.51314-.3134.32857-.4895.7742-.4895 1.23884z"/></g><path d="m23.5541 19.946h.1908v-19.94595041h-.1908z" fill="#b5b5b6"/><path d="m7.59144 8.63605c-.18666-.03414-.36507-.10649-.52505-.21291s-.2984-.24483-.40735-.40734c-.10895-.1625-.18631-.34591-.22765-.53976-.04134-.19384-.04585-.39432-.01328-.58999.03258-.19567.10159-.38269.20311-.5504s.23356-.31282.38857-.42704c.15502-.11421.32997-.1953.51488-.23863.1849-.04334.37615-.04806.5628-.01392 1.29195.23833 2.49213.85829 3.45963 1.78701.9674.92873 1.6619 2.12764 2.0018 3.45583.3399 1.3282.3111 2.7305-.083 4.0422-.3941 1.3116-1.1372 2.4781-2.1418 3.3623-1.0047.8842-2.22928 1.4495-3.52982 1.6293-1.30053.1798-2.62301-.0332-3.81203-.6141s-2.19517-1.5055-2.90022-2.6652c-.705053-1.1596-1.07971511-2.5062-1.0799548-3.8813 0-.4016.1521638-.7867.4230088-1.0706.270846-.2839.638186-.4434 1.021226-.4434.38303 0 .75037.1595 1.02122.4434.27084.2839.42301.669.42301 1.0706-.00002.7994.21763 1.5823.62737 2.2566.40973.6742.99452 1.2119 1.68567 1.5498.69116.3379 1.45995.462 2.21605.3577.75611-.1043 1.46812-.4326 2.05237-.9464.5842-.5139 1.0165-1.1918 1.2459-1.9543.2294-.7624.2464-1.5776.0491-2.3499-.1973-.7722-.6007-1.4694-1.16287-2.00963-.56219-.54019-1.25978-.90096-2.0108-1.03992z" fill="#41e6af"/><path d="m11.0445.0359863c.1939-.0073934.3873.026269.5686.0989747.1812.072706.3467.18297.4864.324194.1397.141225.2508.310516.3267.497766.0759.187249.115.388609.115.592069 0 .20345-.0391.40481-.115.59206s-.187.35656-.3267.49778c-.1397.14123-.3052.25148-.4864.32418-.1813.07271-.3747.10637-.5686.09898h-6.8682v4.08399c0 .19883-.03735.3957-.10993.57939-.07258.18368-.17897.35059-.31308.49118s-.29331.2521-.46854.32819c-.17522.07608-.36302.11525-.55268.11525s-.37746-.03917-.55268-.11525c-.17522-.07609-.33443-.1876-.46854-.32819s-.24049-.3075-.31307-.49118c-.07258-.18369-.10994-.38056-.10994-.57939v-5.6c0-.40153.15217-.786623.42301-1.070553.27085-.28393.63819-.4434446 1.02122-.4434446z" fill="#41e6af"/><path d="m2.77816 13.3511c.30524-.7725-.0447-1.6582-.78161-1.9782-.73691-.3199-1.581744.0469-1.886982.8194s.044702 1.6582.781611 1.9781c.736911.32 1.581741-.0468 1.886981-.8193z" fill="#28cd96"/><path d="m2.73964 8.66008c.79762 0 1.44423-.67784 1.44423-1.514s-.64661-1.514-1.44423-1.514c-.79763 0-1.44423.67784-1.44423 1.514s.6466 1.514 1.44423 1.514z" fill="#28cd96"/></g></svg>