<svg fill="none" height="142" viewBox="0 0 375 142" width="375" xmlns="http://www.w3.org/2000/svg" xmlns:xlink="http://www.w3.org/1999/xlink"><linearGradient id="a"><stop offset="0" stop-color="#313a4b"/><stop offset=".96802" stop-color="#313a4b" stop-opacity="0"/></linearGradient><linearGradient id="b" gradientUnits="userSpaceOnUse" x1="343.5" x2="373.5" xlink:href="#a" y1="97.5" y2="109"/><linearGradient id="c"><stop offset="0" stop-color="#313a4b"/><stop offset=".503467" stop-color="#313a4b" stop-opacity="0"/></linearGradient><linearGradient id="d" gradientUnits="userSpaceOnUse" x1="359.299" x2="327.175" xlink:href="#c" y1="61.1502" y2="61.7279"/><linearGradient id="e" gradientUnits="userSpaceOnUse" x1="30.8247" x2=".824706" xlink:href="#a" y1="97.5" y2="109"/><linearGradient id="f" gradientUnits="userSpaceOnUse" x1="15.0258" x2="47.1493" xlink:href="#c" y1="61.1502" y2="61.7279"/><linearGradient id="g" gradientUnits="userSpaceOnUse" x1="178" x2="178" y1="1" y2="142"><stop offset="0" stop-color="#1f2532" stop-opacity=".2"/><stop offset="1" stop-color="#171c27"/></linearGradient><linearGradient id="h" gradientUnits="userSpaceOnUse" x1="178" x2="178" y1="7" y2="136"><stop offset=".745936" stop-color="#353e52" stop-opacity="0"/><stop offset="1" stop-color="#1e2535"/></linearGradient><linearGradient id="i" gradientUnits="userSpaceOnUse" x1="178" x2="178" y1="0" y2="129"><stop offset="0" stop-color="#353e52" stop-opacity=".2"/><stop offset=".39209" stop-color="#293349" stop-opacity="0"/></linearGradient><linearGradient id="j" gradientUnits="userSpaceOnUse" x1="186" x2="186" y1="15" y2="106"><stop offset="0" stop-color="#303c55"/><stop offset="1" stop-color="#11151f"/></linearGradient><linearGradient id="k"><stop offset="0" stop-color="#3d4b69"/><stop offset="1" stop-color="#2a303a"/></linearGradient><linearGradient id="l" gradientUnits="userSpaceOnUse" x1="186" x2="186" xlink:href="#k" y1="5" y2="96"/><linearGradient id="m" gradientUnits="userSpaceOnUse" x1="186" x2="186" y1="11" y2="84"><stop offset="0" stop-color="#2c4f61"/><stop offset="1" stop-color="#9cf5d5"/></linearGradient><linearGradient id="n" gradientUnits="userSpaceOnUse" x1="186" x2="186" y1="13" y2="81"><stop offset="0" stop-color="#75ffd4"/><stop offset="1" stop-color="#fff"/></linearGradient><linearGradient id="o"><stop offset="0" stop-color="#4d5b79"/><stop offset="1" stop-color="#364157"/></linearGradient><linearGradient id="p" gradientUnits="userSpaceOnUse" x1="186" x2="186" xlink:href="#o" y1="5" y2="96"/><linearGradient id="q" gradientUnits="userSpaceOnUse" x1="186" x2="186" y1="11" y2="77"><stop offset="0" stop-color="#3d4b69"/><stop offset="1" stop-color="#19222f"/></linearGradient><linearGradient id="r" gradientUnits="userSpaceOnUse" x1="186" x2="186" xlink:href="#k" y1="4" y2="70"/><linearGradient id="s" gradientUnits="userSpaceOnUse" x1="186" x2="186" xlink:href="#o" y1="4" y2="70"/><linearGradient id="t" gradientUnits="userSpaceOnUse" x1="193.911" x2="193.911" y1="18" y2="53.7163"><stop offset="0" stop-color="#27324b"/><stop offset="1" stop-color="#272f3c"/></linearGradient><g stroke-width=".3"><path d="m350 60-1.5-2 28 2.5" stroke="#5c4a08"/><path d="m321 93.5 2 3 20 2" stroke="#21c397"/><path d="m311.5 101.5-5-.5-7-10" stroke="#1f79ba"/></g><path d="m346 109.5c-31.167 6.167-56 15-120.5 17.5l-5.5 7" stroke="#171c28"/><path d="m313.5 104.5-.407.291.123.171.208.032zm48.424 7.994c.272.042.528-.145.57-.418.042-.272-.145-.528-.418-.57zm-58.831-21.7034 10 14.0004.814-.582-10-13.9996zm10.331 14.2034 48.5 7.5.152-.988-48.5-7.5z" fill="#1f2635"/><path d="m349 99-12 3.5 34 5.795 4-1.295 5.325-3z" fill="url(#b)"/><path d="m341.5 97-1.5-1.5-26-3-3.5-5" stroke="#1f2635"/><path d="m339 97 3-1 5 4.5-3 1z" fill="#6baca2"/><path d="m329 94 22-14 26.5 3.5" stroke="#1f2635"/><path d="m353.617 60.6843 10.087 7.3832-33.938-6.1492-3.318-2.5821-3.983-4.6364z" fill="url(#d)"/><path d="m24.3247 60 1.5-2-27.99999 2.5" stroke="#5c4a08" stroke-width=".3"/><path d="m53.3247 93.5-2 3-20 2" stroke="#21c397" stroke-width=".3"/><path d="m62.8247 101.5 5-.5 7-10" stroke="#1f79ba" stroke-width=".3"/><path d="m28.3247 109.5c31.1667 6.167 56 15 120.5003 17.5l5.5 7" stroke="#171c28"/><path d="m60.8247 104.5.4069.291-.1224.171-.2081.032zm-48.4236 7.994c-.2729.042-.5283-.145-.5705-.418-.0422-.272.1448-.528.4177-.57zm58.8305-21.7034-10 14.0004-.8138-.582 10-13.9996zm-10.3305 14.2034-48.5 7.5-.1528-.988 48.5-7.5z" fill="#1f2635"/><path d="m25.3247 99 12 3.5-33.99999 5.795-4.000003-1.295-5.325087-3z" fill="url(#e)"/><path d="m32.8247 97 1.5-1.5 26-3 3.5-5" stroke="#1f2635"/><path d="m35.3247 97-3-1-5 4.5 3 1z" fill="#6baca2"/><path d="m45.3247 94-22-14-26.49999 3.5" stroke="#1f2635"/><path d="m20.7076 60.6843-10.0865 7.3832 33.9378-6.1492 3.3182-2.5821 3.9825-4.6364z" fill="url(#f)"/><path d="m421 72.4143-.095.9122c-.84 8.0927-7.377 16.4351-19.959 24.4727-12.468 7.9648-30.264 15.2268-52.271 21.3598-43.983 12.256-104.187 19.841-170.675 19.841s-126.6923-7.585-170.67457-19.841c-22.00753-6.133-39.80303-13.395-52.27173-21.3598-12.5822-8.0376-19.1185-16.38-19.959-24.4727l-.0947-.9123v-12.8687h2.5455 1.4956l.9002-1.1944c5.5477-7.3609 15.6747-14.5455 29.9449-21.1584 14.209-6.5846 32.25172-12.478 53.3105-17.4062 42.1116-9.85502 96.0073-15.7865 154.8033-15.7865s112.692 5.93148 154.803 15.7865c21.059 4.9282 39.102 10.8216 53.311 17.4062 14.27 6.6129 24.397 13.7975 29.945 21.1584l.9 1.1944h1.495 2.546z" stroke="url(#g)" stroke-width="6"/><path d="m413.5 72.9545h-.055l-.048.4459c-.919 8.4385-7.962 16.5762-20.224 24.0466-12.239 7.456-29.562 14.174-50.792 19.816-42.455 11.283-100.439 18.237-164.381 18.237s-121.9255-6.954-164.3807-18.237c-21.23052-5.642-38.553-12.36-50.792-19.816-12.2625-7.4704-19.305-15.6081-20.224-24.0466l-.0485-.4459h-.0548v-14.6363h4.8201.2421l.1502-.19c5.6649-7.1681 15.7919-13.935 29.6257-20.0487 13.82269-6.1087 31.29779-11.5444 51.6045-16.0764 40.6125-9.0637 92.5054-14.5031 149.0574-14.5031s108.445 5.4394 149.057 14.5031c20.307 4.532 37.782 9.9677 51.605 16.0764 13.834 6.1137 23.961 12.8806 29.626 20.0487l.15.19h.242 4.82z" stroke="url(#h)"/><path d="m412.5 65.9545h-.055l-.048.4461c-.915 8.4393-7.928 16.5769-20.138 24.0469-12.187 7.4559-29.436 14.1735-50.576 19.8155-42.275 11.283-100.012 18.237-163.683 18.237s-121.4082-6.954-163.6832-18.237c-21.14027-5.642-38.389-12.3596-50.5759-19.8155-12.2098-7.47-19.2229-15.6076-20.138-24.0469l-.0484-.4461h-.0545v-14.6363h4.7976.2427l.1502-.1908c5.6408-7.168 15.7245-13.9347 29.4995-20.0482 13.7638-6.1086 31.16461-11.5442 51.3851-16.0762 40.44-9.06362 92.1129-14.503 148.4249-14.503s107.985 5.43938 148.425 14.503c20.22 4.532 37.621 9.9676 51.385 16.0762 13.775 6.1135 23.859 12.8802 29.5 20.0482l.15.1908h.242 4.798z" stroke="url(#i)"/><path d="m345 61.8788h-.072c-2.547 24.4911-72.727 44.1212-158.928 44.1212-86.2015 0-156.3812-19.6301-158.9284-44.1212h-.0716v-11.0303h3.5843c15.4677-20.493 79.1757-35.8485 155.4157-35.8485s139.948 15.3555 155.416 35.8485h3.584z" fill="url(#j)"/><ellipse cx="186" cy="50.5" fill="url(#l)" rx="159" ry="45.5"/><ellipse cx="186" cy="47.5" fill="url(#m)" rx="122" ry="36.5"/><path d="m302.75 47c0 4.5695-3.188 8.9764-9.086 13.0283-5.89 4.0465-14.428 7.7005-25.002 10.7733-21.145 6.1445-50.37 9.9484-82.662 9.9484s-61.517-3.8039-82.662-9.9484c-10.5736-3.0728-19.1124-6.7268-25.002-10.7733-5.8975-4.0519-9.086-8.4588-9.086-13.0283s3.1885-8.9764 9.086-13.0283c5.8896-4.0465 14.4284-7.7005 25.002-10.7733 21.145-6.1445 50.37-9.9484 82.662-9.9484s61.517 3.8039 82.662 9.9484c10.574 3.0728 19.112 6.7268 25.002 10.7733 5.898 4.0519 9.086 8.4588 9.086 13.0283z" stroke="url(#n)" stroke-width=".5"/><path clip-rule="evenodd" d="m331.729 67.0697c7.922-5.3601 11.888-10.9844 11.888-16.5697s-3.966-11.2096-11.888-16.5697c-7.876-5.3282-19.362-10.181-33.68-14.2784-28.618-8.1893-68.234-13.27311-112.049-13.27311s-83.431 5.08381-112.0486 13.27311c-14.3182 4.0974-25.8048 8.9502-33.6802 14.2784-7.9224 5.3601-11.8886 10.9844-11.8886 16.5697s3.9662 11.2096 11.8886 16.5697c7.8754 5.3282 19.362 10.181 33.6802 14.2784 28.6176 8.1893 68.2336 13.2731 112.0486 13.2731s83.431-5.0838 112.049-13.2731c14.318-4.0974 25.804-8.9502 33.68-14.2784zm-145.729 28.9303c87.813 0 159-20.371 159-45.5s-71.187-45.5-159-45.5c-87.8133 0-159 20.371-159 45.5s71.1867 45.5 159 45.5z" fill="url(#p)" fill-rule="evenodd"/><path d="m301 45h-.052c-1.842 17.7628-52.601 32-114.948 32s-113.1059-14.2372-114.9482-32h-.0518v-8h2.5924c11.1874-14.863 57.2656-26 112.4076-26s101.22 11.137 112.408 26h2.592z" fill="url(#q)"/><ellipse cx="186" cy="37" fill="url(#r)" rx="115" ry="33"/><path clip-rule="evenodd" d="m291.401 49.0176c5.73-3.8875 8.599-7.9667 8.599-12.0176s-2.869-8.1301-8.599-12.0176c-5.696-3.8644-14.004-7.384-24.36-10.3557-20.698-5.93955-49.351-9.6267-81.041-9.6267s-60.343 3.68715-81.041 9.6267c-10.3564 2.9717-18.6643 6.4913-24.3603 10.3557-5.7301 3.8875-8.5987 7.9667-8.5987 12.0176s2.8686 8.1301 8.5987 12.0176c5.696 3.8644 14.0039 7.384 24.3603 10.3557 20.698 5.9395 49.351 9.6267 81.041 9.6267s60.343-3.6872 81.041-9.6267c10.356-2.9717 18.664-6.4913 24.36-10.3557zm-105.401 20.9824c63.513 0 115-14.7746 115-33s-51.487-33-115-33-115 14.7746-115 33 51.487 33 115 33z" fill="url(#s)" fill-rule="evenodd"/><path clip-rule="evenodd" d="m165.645 35.8614 29.025 10.5778 24.184-6.6797c4.263-1.0773 10.062-1.0251 13.189.111 3.127 1.1362 2.47 2.9644-1.472 4.1593l-31.916 8.8148c-4.28 1.1623-10.308 1.1623-13.569 0l-34.901-12.7194-3.316 7.5611c-.73 1.665-4.41 3.0232-9.713 3.0232-5.3-.0066-7.539-1.3582-6.805-3.0297l10.374-23.6563c.73-1.6651 4.157-3.0232 9.46-3.0232s7.795 1.3516 7.062 3.0232l-3.316 7.5611 46.033-12.7129c4.28-1.1623 10.33-1.1623 13.57 0l24.207 8.8083c2.894 1.1949 1.947 3.0231-2.176 4.1593-4.124 1.1361-9.944 1.1818-13.287.111l-18.304-6.6797zm35.254-3.108c-3.936 0-7.82.7313-9.804 1.8544-2.004 1.123-1.743 2.4159.679 3.2712 2.398.8619 6.491 1.1166 10.32.653 3.849-.4636 6.692-1.5606 7.225-2.7751.349-.7966-.331-1.5605-1.908-2.122-1.597-.5616-3.922-.8815-6.512-.8815z" fill="url(#t)" fill-opacity=".6" fill-rule="evenodd"/></svg>