<svg fill="none" height="27" viewBox="0 0 23 27" width="23" xmlns="http://www.w3.org/2000/svg" xmlns:xlink="http://www.w3.org/1999/xlink"><filter id="a" color-interpolation-filters="sRGB" filterUnits="userSpaceOnUse" height="18.459" width="17.1794" x="5.53564" y="14.4111"><feFlood flood-opacity="0" result="BackgroundImageFix"/><feBlend in="SourceGraphic" in2="BackgroundImageFix" mode="normal" result="shape"/><feGaussianBlur result="effect1_foregroundBlur_450_24105" stdDeviation="2"/></filter><filter id="b" color-interpolation-filters="sRGB" filterUnits="userSpaceOnUse" height="15.207" width="14.3259" x="6.96191" y="16.0371"><feFlood flood-opacity="0" result="BackgroundImageFix"/><feBlend in="SourceGraphic" in2="BackgroundImageFix" mode="normal" result="shape"/><feGaussianBlur result="effect1_foregroundBlur_450_24105" stdDeviation="2"/></filter><filter id="c" color-interpolation-filters="sRGB" filterUnits="userSpaceOnUse" height="23.6113" width="21.7017" x="-1.15942" y="-10.0879"><feFlood flood-opacity="0" result="BackgroundImageFix"/><feBlend in="SourceGraphic" in2="BackgroundImageFix" mode="normal" result="shape"/><feGaussianBlur result="effect1_foregroundBlur_450_24105" stdDeviation="2"/></filter><filter id="d" color-interpolation-filters="sRGB" filterUnits="userSpaceOnUse" height="15.502" width="14.5845" x="2.39917" y="-6.0332"><feFlood flood-opacity="0" result="BackgroundImageFix"/><feBlend in="SourceGraphic" in2="BackgroundImageFix" mode="normal" result="shape"/><feGaussianBlur result="effect1_foregroundBlur_450_24105" stdDeviation="2"/></filter><filter id="e" color-interpolation-filters="sRGB" filterUnits="userSpaceOnUse" height="63.6113" width="61.7017" x="-21.9548" y="-26.3975"><feFlood flood-opacity="0" result="BackgroundImageFix"/><feBlend in="SourceGraphic" in2="BackgroundImageFix" mode="normal" result="shape"/><feGaussianBlur result="effect1_foregroundBlur_450_24105" stdDeviation="12"/></filter><filter id="f" color-interpolation-filters="sRGB" filterUnits="userSpaceOnUse" height="43.502" width="42.5845" x="-12.3965" y="-16.3428"><feFlood flood-opacity="0" result="BackgroundImageFix"/><feBlend in="SourceGraphic" in2="BackgroundImageFix" mode="normal" result="shape"/><feGaussianBlur result="effect1_foregroundBlur_450_24105" stdDeviation="9"/></filter><filter id="g" color-interpolation-filters="sRGB" filterUnits="userSpaceOnUse" height="22.8721" width="21.5427" x=".974609" y="-7.30859"><feFlood flood-opacity="0" result="BackgroundImageFix"/><feBlend in="SourceGraphic" in2="BackgroundImageFix" mode="normal" result="shape"/><feGaussianBlur result="effect1_foregroundBlur_450_24105" stdDeviation="3"/></filter><filter id="h" color-interpolation-filters="sRGB" filterUnits="userSpaceOnUse" height="28.5605" width="26.5342" x="-2.25562" y="-6.49902"><feFlood flood-opacity="0" result="BackgroundImageFix"/><feBlend in="SourceGraphic" in2="BackgroundImageFix" mode="normal" result="shape"/><feGaussianBlur result="effect1_foregroundBlur_450_24105" stdDeviation="3"/></filter><filter id="i" color-interpolation-filters="sRGB" filterUnits="userSpaceOnUse" height="19.7627" width="18.8127" x=".018066" y="10.6133"><feFlood flood-opacity="0" result="BackgroundImageFix"/><feBlend in="SourceGraphic" in2="BackgroundImageFix" mode="normal" result="shape"/><feGaussianBlur result="effect1_foregroundBlur_450_24105" stdDeviation="3"/></filter><filter id="j" color-interpolation-filters="sRGB" filterUnits="userSpaceOnUse" height="10.1201" width="10.9395" x="5.22559" y="7.38184"><feFlood flood-opacity="0" result="BackgroundImageFix"/><feBlend in="SourceGraphic" in2="BackgroundImageFix" mode="normal" result="shape"/><feGaussianBlur result="effect1_foregroundBlur_450_24105" stdDeviation=".5"/></filter><filter id="k" color-interpolation-filters="sRGB" filterUnits="userSpaceOnUse" height="14.4443" width="18.8469" x="2.36768" y="-1.33789"><feFlood flood-opacity="0" result="BackgroundImageFix"/><feBlend in="SourceGraphic" in2="BackgroundImageFix" mode="normal" result="shape"/><feGaussianBlur result="effect1_foregroundBlur_450_24105" stdDeviation="3"/></filter><filter id="l" color-interpolation-filters="sRGB" filterUnits="userSpaceOnUse" height="14.7959" width="13.1384" x=".717773" y="-2.66406"><feFlood flood-opacity="0" result="BackgroundImageFix"/><feBlend in="SourceGraphic" in2="BackgroundImageFix" mode="normal" result="shape"/><feGaussianBlur result="effect1_foregroundBlur_450_24105" stdDeviation="3"/></filter><filter id="m" color-interpolation-filters="sRGB" filterUnits="userSpaceOnUse" height="14.4287" width="17.1079" x="2.26367" y="11.499"><feFlood flood-opacity="0" result="BackgroundImageFix"/><feBlend in="SourceGraphic" in2="BackgroundImageFix" mode="normal" result="shape"/><feGaussianBlur result="effect1_foregroundBlur_450_24105" stdDeviation="3"/></filter><filter id="n" color-interpolation-filters="sRGB" filterUnits="userSpaceOnUse" height="10.8398" width="9.02026" x="8.88721" y="10.1475"><feFlood flood-opacity="0" result="BackgroundImageFix"/><feBlend in="SourceGraphic" in2="BackgroundImageFix" mode="normal" result="shape"/><feGaussianBlur result="effect1_foregroundBlur_450_24105" stdDeviation=".5"/></filter><filter id="o" color-interpolation-filters="sRGB" filterUnits="userSpaceOnUse" height="13.2373" width="5.18091" x="3.32153" y="6.47949"><feFlood flood-opacity="0" result="BackgroundImageFix"/><feBlend in="SourceGraphic" in2="BackgroundImageFix" mode="normal" result="shape"/><feGaussianBlur result="effect1_foregroundBlur_450_24105" stdDeviation=".5"/></filter><linearGradient id="p" gradientUnits="userSpaceOnUse" x1="9.83609" x2="11.3694" y1=".64444" y2="26.3765"><stop offset="0" stop-color="#9cfdff"/><stop offset=".261476" stop-color="#36bbfc"/><stop offset="1" stop-color="#109de4"/></linearGradient><linearGradient id="q" gradientUnits="userSpaceOnUse" x1="17.9494" x2="20.1351" y1="1.0791" y2="15.8323"><stop offset="0" stop-color="#1ea1eb"/><stop offset="1" stop-color="#076cea"/></linearGradient><linearGradient id="r" gradientUnits="userSpaceOnUse" x1="15.8001" x2="6.5127" y1="15.1396" y2="26.656"><stop offset="0" stop-color="#10bafc"/><stop offset="1" stop-color="#10bafc" stop-opacity="0"/></linearGradient><linearGradient id="s" gradientUnits="userSpaceOnUse" x1="2.18541" x2="2.18541" y1="13.6289" y2="23.3154"><stop offset="0" stop-color="#1f91fa"/><stop offset="1" stop-color="#1f91fa" stop-opacity="0"/></linearGradient><linearGradient id="t" gradientUnits="userSpaceOnUse" x1="12.5437" x2="12.5437" y1="15.225" y2="25.886"><stop offset="0" stop-color="#1edcff"/><stop offset="1" stop-color="#1edcff" stop-opacity="0"/></linearGradient><linearGradient id="u" gradientUnits="userSpaceOnUse" x1="20.6649" x2="9.06897" y1="2.22749" y2="27.6396"><stop offset="0" stop-color="#0059cb"/><stop offset="1" stop-color="#0059cb" stop-opacity=".66"/></linearGradient><linearGradient id="v" gradientUnits="userSpaceOnUse" x1="21.0976" x2="8.98701" y1="14.291" y2="27.1651"><stop offset="0" stop-color="#51eaff"/><stop offset="1" stop-color="#38dbff"/></linearGradient><linearGradient id="w" gradientUnits="userSpaceOnUse" x1="5.45489" x2=".375711" y1="15.408" y2="18.5762"><stop offset="0" stop-color="#0056c8"/><stop offset="1" stop-color="#188cff"/></linearGradient><linearGradient id="x" gradientUnits="userSpaceOnUse" x1="12.3307" x2="14.7374" y1="17.9206" y2="23.1189"><stop offset="0" stop-color="#0c93f4"/><stop offset="1" stop-color="#25beff"/></linearGradient><linearGradient id="y" gradientUnits="userSpaceOnUse" x1="20.6448" x2="15.2901" y1="6.14437" y2="8.68617"><stop offset="0" stop-color="#3ab7ff"/><stop offset="1" stop-color="#5ad7ff"/></linearGradient><linearGradient id="z" gradientUnits="userSpaceOnUse" x1="11.3693" x2="11.3693" y1="1.45508" y2="23.8396"><stop offset="0" stop-color="#9fffff"/><stop offset="1" stop-color="#3ec7fc"/></linearGradient><linearGradient id="A" gradientUnits="userSpaceOnUse" x1="14.5184" x2="13.6868" y1=".716063" y2="5.12337"><stop offset="0" stop-color="#1276e5"/><stop offset="1" stop-color="#118df5"/></linearGradient><linearGradient id="B" gradientUnits="userSpaceOnUse" x1="6.93174" x2="2.6289" y1="10.2103" y2="9.69398"><stop offset="0" stop-color="#d8fcff"/><stop offset="1" stop-color="#9dfdff"/></linearGradient><linearGradient id="C" gradientUnits="userSpaceOnUse" x1="12.082" x2="10.9997" y1="8.24699" y2="16.5262"><stop offset="0" stop-color="#5bc4ff"/><stop offset="1" stop-color="#22a7fc"/></linearGradient><linearGradient id="D" gradientUnits="userSpaceOnUse" x1="3.80177" x2="3.31061" y1="18.5983" y2="23.6391"><stop offset="0" stop-color="#fff"/><stop offset="1" stop-color="#50e3ff"/></linearGradient><mask id="E" height="27" maskUnits="userSpaceOnUse" width="23" x="0" y="0"><path d="m1.93151 23.0848c.38185.7637 2.99408 2.3721 4.25246 3.0808 2.53412.3819 5.10583.1591 6.07493 0 1.0414-.3471 3.9632-2.5167 5.2939-3.5582.6248-.7289 2.8639-4.5562 3.9053-6.3786.6596-1.944.8823-7.00068.9112-9.28602-.486-1.52741-2.3721-4.22352-3.2544-5.38066-1.0414-.5207-3.4801-1.56212-4.9033-1.56212-3.6103.0694279-6.1039 1.24392-6.89943 1.82248-.65088.53517-2.1349 1.8572-2.8639 2.8639-1.73569 2.38658-4.078885 7.59362-4.078885 8.50492.043392 8.071 1.084815 8.9388 1.562125 9.8935z" fill="#d9d9d9"/></mask><mask id="F" height="27" maskUnits="userSpaceOnUse" width="23" x="0" y="0"><path d="m1.93151 23.0848c.38185.7637 2.99408 2.3721 4.25246 3.0808 2.53412.3819 5.10583.1591 6.07493 0 1.0414-.3471 3.9632-2.5167 5.2939-3.5582.6248-.7289 2.8639-4.5562 3.9053-6.3786.6596-1.944.8823-7.00068.9112-9.28602-.486-1.52741-2.3721-4.22352-3.2544-5.38066-1.0414-.5207-3.4801-1.56212-4.9033-1.56212-3.6103.0694279-6.1039 1.24392-6.89943 1.82248-.65088.53517-2.1349 1.8572-2.8639 2.8639-1.73569 2.38658-4.078885 7.59362-4.078885 8.50492.043392 8.071 1.084815 8.9388 1.562125 9.8935z" fill="#02a97d"/></mask><mask id="G" height="23" maskUnits="userSpaceOnUse" width="19" x="2" y="1"><path d="m12.1872 4.37553 3.0259-2.92045v3.90183l.6542 4.17089 1.145 2.2899 3.0259 3.6802-4.8251.9814-1.7992.9813-3.68021 2.6171-4.0891 3.7619v-5.4794-2.8623l-1.30851-2.0446-1.63564-3.9255 5.64296-2.37168z" fill="#01d5a4"/></mask><g mask="url(#E)"><g mask="url(#F)"><path d="m1.93151 23.0848c.38185.7637 2.99408 2.3721 4.25246 3.0808 2.53412.3819 5.10583.1591 6.07493 0 1.0414-.3471 3.9632-2.5167 5.2939-3.5582.6248-.7289 2.8639-4.5562 3.9053-6.3786.6596-1.944.8823-7.00068.9112-9.28602-.486-1.52741-2.3721-4.22352-3.2544-5.38066-1.0414-.5207-3.4801-1.56212-4.9033-1.56212-3.6103.0694279-6.1039 1.24392-6.89943 1.82248-.65088.53517-2.1349 1.8572-2.8639 2.8639-1.73569 2.38658-4.078885 7.59362-4.078885 8.50492.043392 8.071 1.084815 8.9388 1.562125 9.8935z" fill="url(#p)"/></g><path d="m16.638 12.3899 3.825 3.4424 1.0381-2.5681.3279-5.6281-1.8032-4.64454-1.2021-1.42068-3.6063-.49178-.4918 4.04348z" fill="url(#q)"/><path d="m16.3202 15.1396 4.5322.5201-1.0402 4.5323-5.0523 5.0523-7.50421 1.4117-5.64673-3.4921-.742993-4.3836 3.789253-1.6346 5.86958 1.6346z" fill="url(#r)"/><path d="m4.10104 16.2758-3.716892-2.6469c-.585693 5.8119 1.220192 8.8793 2.196342 9.6865z" fill="url(#s)"/><g filter="url(#a)"><ellipse cx="14.1254" cy="23.6404" fill="#1bdbfe" rx="4.53943" ry="5.27108" transform="matrix(.96828602 .24984432 -.24984432 .96828602 6.354392 -2.77942)"/></g><g filter="url(#b)"><ellipse cx="14.1249" cy="23.6406" fill="#13f1ff" rx="3.12822" ry="3.63242" transform="matrix(.96828602 .24984432 -.24984432 .96828602 6.354426 -2.779289)"/></g><path d="m12.487 19.7049c-1.4517.1361-2.0036 4.1775-2.0981 6.1811l-5.33055-.5103 1.5311-4.7068 5.10365-5.7841 8.5521.6105-.7831 4.5499c-1.7202-.1702-5.5234-.4764-6.9751-.3403z" fill="url(#t)"/><g filter="url(#c)"><ellipse cx="9.69139" cy="1.7176" fill="#1bdbfe" rx="6.77585" ry="7.86796" transform="matrix(.96828602 .24984432 -.24984432 .96828602 .736485 -2.366867)"/></g><g filter="url(#d)"><ellipse cx="9.69143" cy="1.71785" fill="#75ffff" rx="3.25622" ry="3.78105" transform="matrix(.96828602 .24984432 -.24984432 .96828602 .736549 -2.366869)"/></g><path d="m15.2059 1.46479 4.0587.56091c-.3273-1.381937-2.8638-2.303227-4.0912-2.59113l-2.2275.681876z" fill="url(#u)"/><path d="m20.9397 6.15483-1.825-4.15692 3.0668.59349 3.0622 9.9825-8.329 15.0657-12.49349-.6124-4.654427-3.7358-.918643-9.4314 2.93965-7.28784 2.63342-1.28609-1.69987 4.25607-2.158404 5.60396.673664 4.042 1.46982 4.532h3.00089l5.75679 2.2047 3.3071-3.3683 3.5521-2.756 1.7148-4.2869 1.3473-2.9397z" fill="url(#u)"/><path d="m15.4329.936196-.5313-.828774c1.037.238007 3.1805 1.147528 4.1226 1.572548z" fill="#39dbff"/><path d="m21.0537 6.00208v-1.71985l1.6216 2.60435-.3931 2.55521z" fill="#2ce6ff"/><path d="m20.5173 15.8751 1.4403-2.1837-.3717 5.4359-7.3873 8.0378-8.13066-.2323-2.18366-2.2301 3.01996.604 1.85844 1.0221 3.94922-.4181 2.6482-2.8342 2.1837-.7433 1.4403-1.9979z" fill="url(#v)"/><path d="m1.76098 21.5294.10967 1.0053-1.33431-1.0053-1.61202-6.688 1.19162-3.7854 3.12558-4.24057-1.06014 3.43627-1.64504 2.0289v1.7547l.365566 5.648z" fill="#39dbff"/><path d="m7.89921 3.30916-3.68656 2.39777c0-1.19818 1.76419-2.61441 2.64629-3.17275z" fill="#8bf8ff"/><path d="m7.85788 3.31293-1.0549-.72178c.35163-.35626 1.41024-1.20481 2.83159-1.748922 1.42133-.544109 3.15543-.578348 3.84483-.527454l-4.18556 1.195416z" fill="#eefeff"/><path d="m7.85173 3.32715-.51164 4.75095c1.05252-.64321 3.50841-2.50948 4.60481-3.36221z" fill="#27a0ff"/><path d="m.636963 17.6269c.35084-.0585 2.780567-2.9217 3.779487-4.2861 2.28045 1.4619 1.83109 4.1262 1.27072 5.3444-1.40335-.0585-3.75584.4055-4.706025.576z" fill="url(#w)"/><path d="m14.7374 22.6735-4.81333-2.7713c2.33373-2.5087 4.18123-3.1845 4.81333-3.2088z" fill="url(#x)"/><path d="m20.9576 6.09181-5.7489-.97853-.6115 3.18021 2.2017 2.99671c.2935-.7339 2.8948-3.77138 4.1587-5.19839z" fill="url(#y)"/><g mask="url(#G)"><path d="m12.1872 4.37553 3.0259-2.92045v3.90183l.6542 4.17089 1.145 2.2899 3.0259 3.6802-4.8251.9814-1.7992.9813-3.68021 2.6171-4.0891 3.7619v-5.4794-2.8623l-1.30851-2.0446-1.63564-3.9255 5.64296-2.37168z" fill="url(#z)"/><g filter="url(#e)"><ellipse cx="8.89598" cy="5.40803" fill="#77ecff" rx="6.77585" ry="7.86796" transform="matrix(.96828602 .24984432 -.24984432 .96828602 1.633293 -2.0511)"/></g><g filter="url(#f)"><ellipse cx="8.89578" cy="5.40828" fill="#8af8ff" rx="3.25622" ry="3.78105" transform="matrix(.96828602 .24984432 -.24984432 .96828602 1.633349 -2.051042)"/></g><g filter="url(#g)"><ellipse cx="11.746" cy="4.12747" fill="#c5fbff" rx="4.71905" ry="5.47965" transform="matrix(.96828602 .24984432 -.24984432 .96828602 1.403737 -2.803773)"/></g><g filter="url(#h)"><ellipse cx="11.0115" cy="7.78113" fill="#d7fff8" rx="7.18736" ry="8.34579" transform="matrix(.96828602 .24984432 -.24984432 .96828602 2.29329 -2.50439)"/></g><g filter="url(#i)"><ellipse cx="9.42445" cy="20.495" fill="#c5fbff" rx="3.36906" ry="3.91207" transform="matrix(.96828602 .24984432 -.24984432 .96828602 5.419446 -1.704667)"/></g><path d="m15.3588 5.12337-3.5968-.43263 3.8497-4.72199z" fill="url(#A)"/><path d="m6.83065 9.84536.57541-2.34341-5.6292 1.68896 2.50871 4.47209z" fill="url(#B)"/><path d="m8.26567 18.9174-2.64806-.2563-.13885 5.9243 4.69784-4.5358z" fill="#1b80ec"/><path d="m16.9643 11.1191c-1.1239 1.3113-1.929 4.382-2.1074 5.5862l6.4224-.4014z" fill="#0ba5fb"/></g><g filter="url(#j)"><path clip-rule="evenodd" d="m9.47348 12.1171 1.78132 2.7268 2.0199-1.3108c.3527-.2079.7798-.1397.9718.1532.192.293.0802.7094-.2527.9476l-2.6657 1.7298c-.3568.2273-.8027.169-1.0037-.1313l-2.14195-3.2788-.50675 1.7164c-.11159.378-.52136.6446-.91366.5933-.39187-.0528-.62003-.4013-.508-.7807l1.58543-5.37013c.11159-.37796.52136-.6446.91367-.59331.3923.05129.62046.39978.50844.77923l-.50675 1.71641 3.84487-2.49461c.3568-.22738.8043-.16888 1.0037.13122l1.4862 2.27099c.1727.3043.0395.7179-.3048.9408-.3444.2228-.7765.1771-.9867-.1028l-1.1231-1.7217zm2.71532-.3778c-.2911-.038-.6037.0935-.7893.334-.1871.2403-.2125.5418-.0629.7631.1475.2225.4416.3209.7408.2508.3008-.07.549-.2962.6304-.5719.0534-.1808.0295-.3641-.0677-.5092-.0988-.1453-.2597-.2417-.4513-.2668z" fill="#d2fffc" fill-rule="evenodd"/></g><path clip-rule="evenodd" d="m9.47348 12.1171 1.78132 2.7268 2.0199-1.3108c.3527-.2079.7798-.1397.9718.1532.192.293.0802.7094-.2527.9476l-2.6657 1.7298c-.3568.2273-.8027.169-1.0037-.1313l-2.14195-3.2788-.50675 1.7164c-.11159.378-.52136.6446-.91366.5933-.39187-.0528-.62003-.4013-.508-.7807l1.58543-5.37013c.11159-.37796.52136-.6446.91367-.59331.3923.05129.62046.39978.50844.77923l-.50675 1.71641 3.84487-2.49461c.3568-.22738.8043-.16888 1.0037.13122l1.4862 2.27099c.1727.3043.0395.7179-.3048.9408-.3444.2228-.7765.1771-.9867-.1028l-1.1231-1.7217zm2.71532-.3778c-.2911-.038-.6037.0935-.7893.334-.1871.2403-.2125.5418-.0629.7631.1475.2225.4416.3209.7408.2508.3008-.07.549-.2962.6304-.5719.0534-.1808.0295-.3641-.0677-.5092-.0988-.1453-.2597-.2417-.4513-.2668z" fill="url(#C)" fill-rule="evenodd"/><g filter="url(#k)"><path d="m8.36768 7.10648 3.40432-2.44437 3.4426.45097-3.2068.08667z" fill="#ccfcff"/></g><path d="m8.36768 7.10648 3.40432-2.44437 3.4426.45097-3.2068.08667z" fill="#e9feff"/><g filter="url(#l)"><path d="m7.53752 6.13217.31879-2.79623-1.13854.73775.77419-.30968z" fill="#ccfcff"/></g><path d="m7.53752 6.13217.31879-2.79623-1.13854.73775.77419-.30968z" fill="#e9feff"/><g filter="url(#m)"><path d="m9.91742 19.9273-1.65375-1.0048 1.40256.3559 3.70527-1.7794z" fill="#ccfcff"/></g><path d="m9.91742 19.9273-1.65375-1.0048 1.40256.3559 3.70527-1.7794z" fill="#ccfcff"/><g filter="url(#n)"><path clip-rule="evenodd" d="m16.865 11.1596c.0412.0245.0547.0776.0303.1188-.5463.9201-1.7068 3.2945-1.982 5.427l-.0055.0426-.0372.0214c-.9521.5483-3.2534 1.9557-4.8433 3.2-.0377.0295-.09217.0228-.12167-.0149s-.02286-.0922.01484-.1217c1.57913-1.2358 3.85043-2.6281 4.82653-3.1922.2893-2.1551 1.4514-4.5279 1.9993-5.4507.0244-.0412.0776-.0547.1187-.0303z" fill="#d2fff6" fill-rule="evenodd"/></g><path clip-rule="evenodd" d="m16.865 11.1596c.0412.0245.0547.0776.0303.1188-.5463.9201-1.7068 3.2945-1.982 5.427l-.0055.0426-.0372.0214c-.9521.5483-3.2534 1.9557-4.8433 3.2-.0377.0295-.09217.0228-.12167-.0149s-.02286-.0922.01484-.1217c1.57913-1.2358 3.85043-2.6281 4.82653-3.1922.2893-2.1551 1.4514-4.5279 1.9993-5.4507.0244-.0412.0776-.0547.1187-.0303z" fill="#dcfff9" fill-rule="evenodd"/><path d="m2.5716 23.2667-1.785955-5.4474 1.248675 1.1769 2.75684 4.707h-1.90381z" fill="url(#D)"/><g filter="url(#o)"><path clip-rule="evenodd" d="m7.43342 7.48131c.04687.00972.07699.0556.06727.10246-.07196.34705-.1873.85423-.29729 1.30999-.10941.45336-.21514.86279-.26765 1.00986l-.00364.01018-2.40406 3.5811 1.24869 1.9979v3.1374c0 .0479-.0388.0867-.08666.0867-.04787 0-.08667-.0388-.08667-.0867v-3.0877l-1.28188-2.051 2.45447-3.65616c.05003-.14503.15118-.5359.25889-.98224.10971-.4546.22461-.95986.29607-1.30452.00972-.04687.05559-.07698.10246-.06727z" fill="#d2fff6" fill-rule="evenodd"/></g><g clip-rule="evenodd" fill-rule="evenodd"><path d="m7.43342 7.48131c.04687.00972.07699.0556.06727.10246-.07196.34705-.1873.85423-.29729 1.30999-.10941.45336-.21514.86279-.26765 1.00986l-.00364.01018-2.40406 3.5811 1.24869 1.9979v3.1374c0 .0479-.0388.0867-.08666.0867-.04787 0-.08667-.0388-.08667-.0867v-3.0877l-1.28188-2.051 2.45447-3.65616c.05003-.14503.15118-.5359.25889-.98224.10971-.4546.22461-.95986.29607-1.30452.00972-.04687.05559-.07698.10246-.06727z" fill="#dcfff9"/><path d="m4.44827 4.68638c.729-1.00671 2.21302-2.32873 2.8639-2.8639.79553-.57856 3.28913-1.7530521 6.89943-1.82248 1.4232 0 3.8619 1.04142 4.9033 1.56212.8823 1.15714 2.7684 3.85325 3.2544 5.38066-.0289 2.28534-.2516 7.34202-.9112 9.28602-1.0414 1.8224-3.2805 5.6497-3.9053 6.3786-1.3307 1.0415-4.2525 3.2111-5.2939 3.5582-.9691.1591-3.54081.3819-6.07493 0-1.25838-.7087-3.87061-2.3171-4.25246-3.0808-.05128-.1026-.10907-.2042-.17143-.3138-.51813-.9105-1.351965-2.3758-1.390695-9.5797 0-.9113 2.343195-6.11834 4.078885-8.50492zm-3.732206 8.50422c.000187-.0611.02377-.2007.090533-.4326.063961-.222.158818-.5001.280363-.822.24283-.6431.5862-1.4455.98493-2.29687.79971-1.70749 1.8084-3.58236 2.65675-4.74884l.00042-.00058c.69776-.96357 2.14186-2.25474 2.79514-2.79274.74173-.53499 3.1587-1.681658 6.6906-1.75029.6479.000806 1.5639.242486 2.4758.56586.8615.30552 1.6814.66989 2.1974.92402.4374.57761 1.097 1.49954 1.7103 2.46318.6268.98483 1.1852 1.98238 1.4236 2.69591-.0157 1.14002-.0786 2.93663-.2173 4.69085-.1405 1.7776-.3561 3.4679-.6644 4.3998-.5205.9105-1.3299 2.3039-2.088 3.563-.3832.6366-.7523 1.2372-1.0639 1.7231-.3006.4688-.5365.8131-.6776.9842-.6632.5183-1.7056 1.3045-2.7116 2.0059-.5104.3559-1.0084.6877-1.441.951-.4239.258-.763.4364-.9839.5146-.9563.1532-3.4307.3626-5.87569.0041-.62353-.3532-1.55102-.9105-2.37392-1.4727-.42425-.2898-.8151-.577-1.12058-.8355-.31894-.2698-.50207-.4736-.56242-.5943-.05748-.1149-.11945-.224-.18452-.3385-.2259-.3976-.48925-.8611-.73239-1.8661-.31613-1.3067-.58693-3.5101-.608616-7.5345z" fill="#093665"/></g></g></svg>