<svg fill="none" height="40" viewBox="0 0 40 40" width="40" xmlns="http://www.w3.org/2000/svg" xmlns:xlink="http://www.w3.org/1999/xlink"><linearGradient id="a" gradientUnits="userSpaceOnUse" x1="19.9748" x2="26.777" y1="7.52223" y2="42.7479"><stop offset="0" stop-color="#c4e2ff"/><stop offset=".614583" stop-color="#387ab7"/><stop offset="1" stop-color="#4ea2df"/></linearGradient><linearGradient id="b" gradientUnits="userSpaceOnUse" x1="20.1171" x2="20.9466" y1="13.3535" y2="30.359"><stop offset="0" stop-color="#c9e5ff"/><stop offset="1" stop-color="#7fb9f7" stop-opacity="0"/></linearGradient><linearGradient id="c" gradientUnits="userSpaceOnUse" x1="20.9464" x2="20.9464" y1="12.3809" y2="31.3298"><stop offset="0" stop-color="#5991ca"/><stop offset="1" stop-color="#0f4875" stop-opacity=".49"/></linearGradient><linearGradient id="d" gradientUnits="userSpaceOnUse" x1="18.5691" x2="22.7808" y1="17.9801" y2="25.275"><stop offset="0" stop-color="#fff"/><stop offset="1" stop-color="#9bdbff"/></linearGradient><mask id="e" height="40" maskUnits="userSpaceOnUse" width="41" x="-1" y="0"><circle cx="19.9999" cy="20" fill="#fff" r="20"/></mask><circle cx="20" cy="20" fill="#29334f" r="20"/><g mask="url(#e)"><path clip-rule="evenodd" d="m34.2462 18.5662c-1.0944.7228-1.4404 2.1852-.7654 3.3266.6749 1.1415 2.123 1.5431 3.2837.9323l7.7799 13.1573-22.6916 13.4176-7.7801-13.1576c.0367-.0193.0731-.0396.1093-.061 1.1775-.6963 1.5676-2.2153.8713-3.3928-.6962-1.1775-2.2152-1.5677-3.3928-.8714-.0361.0214-.0715.0435-.1061.0664l-8.82825-14.9303.60954-.3604c.19901.3362.63286.4475.9692.2487.33634-.1989.44784-.6327.24914-.9691l.60893-.3601.00007.0001c.19894.3365.63294.4479.96938.249.33643-.1989.4479-.6329.24896-.9694l-.00007-.0001.60929-.3603c.19895.3364.63292.4479.96933.2489.33641-.1989.44789-.6328.24901-.9693l.60928-.3602c.19901.3362.63287.4476.96922.2487.33637-.1989.44787-.6327.24917-.9691l.6089-.3601.0001.0001c.1989.3365.6329.448.9693.249.3365-.1989.448-.6329.249-.9694l-.0001-.0001.6093-.3603c.199.3364.6329.4479.9694.2489.3364-.1989.4479-.6329.249-.9693l.6092-.3603c.199.3363.6329.4477.9693.2488.3363-.1989.4478-.63276.2491-.96916l.6089-.36006.0001.00017c.199.33644.633.44791.9694.24897.3364-.19893.4479-.63294.249-.96937l-.0001-.00018.6092-.36028c.199.33643.633.4479.9694.24896.3364-.19893.4479-.63293.249-.96937l.6093-.36026c.1989.33628.6328.44767.9692.24877s.4479-.63277.2491-.96918l.6089-.36006.0002.00021c.1989.33643.6329.4479.9693.24897.3365-.19894.4479-.63294.249-.96938l-.0001-.00021.6092-.36025c.199.33644.633.44791.9694.24897.3365-.19893.4479-.63294.249-.96937l.7613-.45017zm-1.1314 3.6837-.09-.1522-.6092.3602.09.1523zm-1.2184.7201-.09-.1523-.6092.3602.0901.1523zm-1.3084.5685.0901.1523-.6092.3602-.09-.1523zm-1.1282.8724-.0901-.1523-.6092.3602.0901.1523zm-1.3084.5685.09.1523-.6092.3602-.09-.1523zm-1.1283.8724-.0901-.1523-.6092.3602.0901.1523zm-1.3084.5685.09.1523-.6091.3602-.0901-.1523zm-1.1283.8724-.0901-.1523-.6091.3602.09.1523zm-1.3084.5685.09.1523-.6091.3602-.0901-.1523zm-1.1283.8723-.0901-.1523-.6091.3602.09.1523zm-1.3084.5686.0901.1523-.6092.3602-.0901-.1523zm-1.1283.8723-.09-.1523-.6092.3602.09.1523zm-1.3084.5678.0901.1523-.6092.3602-.0901-.1523zm-1.1283.8731-.09-.1523-.6092.3602.0901.1523zm-1.3084.5678.0901.1523-.6092.3602-.09-.1523z" fill="url(#a)" fill-rule="evenodd"/><circle cx="20.9466" cy="21.8563" fill="url(#b)" r="8.50275"/><circle cx="20.9464" cy="21.8554" r="9.22449" stroke="url(#c)" stroke-width=".5"/><path d="m16.0847 21.9091-.1585-.432c-.1238-.3421-.1955-.6088-.215-.8001-.0403-.3774.0503-.7119.2718-1.0035.1761-.2352.4493-.4597.8196-.6735.5003-.2889.9159-.4168 1.2468-.3838.3291.0297.5953.2207.7986.5729.0896.1551.1902.3857.3019.6918l.1585.432c.1416.3878.2252.6864.2507.8957.0549.425-.0222.7905-.2311 1.0964-.1718.25-.4462.4838-.823.7014-.5231.3019-.9698.4134-1.3404.3343-.2789-.063-.521-.2722-.7262-.6276-.1138-.1972-.2317-.4651-.3537-.804zm2.0491-.7048-.2875-.7905c-.0659-.1817-.1315-.3291-.1968-.4422-.1008-.1745-.2389-.2111-.4143-.1098-.1267.0731-.1945.1769-.2035.3114-.0077.1293.0413.338.147.626l.2875.7905c.0542.154.1214.3004.2016.4394.1008.1745.2389.2111.4143.1098.1235-.0713.189-.1716.1966-.3009.0109-.1312-.0374-.3425-.1449-.6337zm3.9639 1.9704-.1536-.4348c-.1271-.3402-.2004-.606-.2199-.7973-.037-.3793.0536-.7138.2718-1.0035.1761-.2352.4493-.4597.8196-.6735.5003-.2889.9159-.4168 1.2468-.3838.3291.0297.5962.2223.8015.5778.0951.1648.1964.3928.3039.684l.1536.4349c.1416.3878.2268.6855.2556.8929.053.4218-.0257.7882-.236 1.0992-.1686.2481-.4413.481-.8181.6986-.5263.3038-.9747.4162-1.3452.3371-.279-.063-.5211-.2722-.7263-.6276-.1063-.1842-.2242-.4522-.3537-.804zm2.0519-.7-.2854-.7981c-.0617-.1669-.1289-.3134-.2017-.4394-.1008-.1745-.2388-.2111-.4143-.1098-.1267.0731-.1929.176-.1986.3086-.0077.1293.0397.3389.1421.6288l.2903.7954c.0598.1636.127.3101.2017.4393.0988.1713.236.2063.4114.105.1267-.0731.1939-.1744.2015-.3037.0076-.1294-.0414-.3381-.147-.6261zm-3.5957 3.9567-1.0604-8.8364 1.2816-.7399 1.0652 8.8336z" fill="url(#d)"/></g></svg>