<svg fill="none" height="98" viewBox="0 0 90 98" width="90" xmlns="http://www.w3.org/2000/svg" xmlns:xlink="http://www.w3.org/1999/xlink"><filter id="a" color-interpolation-filters="sRGB" filterUnits="userSpaceOnUse" height="28.4775" width="28.4685" x="40.7554" y="36.1309"><feFlood flood-opacity="0" result="BackgroundImageFix"/><feColorMatrix in="SourceAlpha" result="hardAlpha" type="matrix" values="0 0 0 0 0 0 0 0 0 0 0 0 0 0 0 0 0 0 127 0"/><feMorphology in="SourceAlpha" operator="dilate" radius="2" result="effect1_dropShadow_450_21028"/><feOffset/><feGaussianBlur stdDeviation="5"/><feColorMatrix type="matrix" values="0 0 0 0 1 0 0 0 0 0.929412 0 0 0 0 0.752941 0 0 0 0.6 0"/><feBlend in2="BackgroundImageFix" mode="normal" result="effect1_dropShadow_450_21028"/><feBlend in="SourceGraphic" in2="effect1_dropShadow_450_21028" mode="normal" result="shape"/></filter><filter id="b" color-interpolation-filters="sRGB" filterUnits="userSpaceOnUse" height="29.9697" width="29.958" x="53.168" y="26.1826"><feFlood flood-opacity="0" result="BackgroundImageFix"/><feColorMatrix in="SourceAlpha" result="hardAlpha" type="matrix" values="0 0 0 0 0 0 0 0 0 0 0 0 0 0 0 0 0 0 127 0"/><feMorphology in="SourceAlpha" operator="dilate" radius="2" result="effect1_dropShadow_450_21028"/><feOffset/><feGaussianBlur stdDeviation="5"/><feColorMatrix type="matrix" values="0 0 0 0 1 0 0 0 0 0.929412 0 0 0 0 0.752941 0 0 0 0.6 0"/><feBlend in2="BackgroundImageFix" mode="normal" result="effect1_dropShadow_450_21028"/><feBlend in="SourceGraphic" in2="effect1_dropShadow_450_21028" mode="normal" result="shape"/></filter><filter id="c" color-interpolation-filters="sRGB" filterUnits="userSpaceOnUse" height="26.4873" width="26.4825" x="6" y="13.9443"><feFlood flood-opacity="0" result="BackgroundImageFix"/><feColorMatrix in="SourceAlpha" result="hardAlpha" type="matrix" values="0 0 0 0 0 0 0 0 0 0 0 0 0 0 0 0 0 0 127 0"/><feMorphology in="SourceAlpha" operator="dilate" radius="2" result="effect1_dropShadow_450_21028"/><feOffset/><feGaussianBlur stdDeviation="5"/><feColorMatrix type="matrix" values="0 0 0 0 1 0 0 0 0 0.929412 0 0 0 0 0.752941 0 0 0 0.6 0"/><feBlend in2="BackgroundImageFix" mode="normal" result="effect1_dropShadow_450_21028"/><feBlend in="SourceGraphic" in2="effect1_dropShadow_450_21028" mode="normal" result="shape"/></filter><linearGradient id="d" gradientUnits="userSpaceOnUse" x1="73.8587" x2="103.653" y1="98" y2="20.4327"><stop offset="0" stop-color="#20ad87"/><stop offset="1" stop-color="#6accb2"/></linearGradient><linearGradient id="e" gradientUnits="userSpaceOnUse" x1="11.9395" x2="11.9395" y1="35.6565" y2="70.5575"><stop offset="0" stop-color="#fca95c"/><stop offset="1" stop-color="#ffdcb9" stop-opacity=".8"/></linearGradient><linearGradient id="f" gradientUnits="userSpaceOnUse" x1="7.79406" x2="7.79406" y1="42.6367" y2="46.5058"><stop offset="0" stop-color="#e18455"/><stop offset="1" stop-color="#ef7132" stop-opacity=".01"/></linearGradient><linearGradient id="g" gradientUnits="userSpaceOnUse" x1="22.9648" x2="22.9648" y1="19.4219" y2="34.8982"><stop offset="0" stop-color="#ffc793"/><stop offset="1" stop-color="#ffeec2"/></linearGradient><linearGradient id="h" gradientUnits="userSpaceOnUse" x1="22.9648" x2="22.9648" y1="36.0039" y2="42.6366"><stop offset="0" stop-color="#ffba88"/><stop offset="1" stop-color="#fdc288"/></linearGradient><linearGradient id="i"><stop offset="0" stop-color="#cb835f"/><stop offset="1" stop-color="#f1ad8b" stop-opacity=".01"/></linearGradient><linearGradient id="j" gradientUnits="userSpaceOnUse" x1="51.1001" x2="67.0986" xlink:href="#i" y1="31.6787" y2="31.6787"/><linearGradient id="k" gradientUnits="userSpaceOnUse" x1="6.06838" x2="22.0669" xlink:href="#i" y1="4.51852" y2="4.51852"/><linearGradient id="l"><stop offset="0" stop-color="#ffba7b"/><stop offset=".33044" stop-color="#ffeacb"/><stop offset=".759855" stop-color="#ffba7b"/></linearGradient><linearGradient id="m" gradientUnits="userSpaceOnUse" x1="63.4066" x2="41.1442" xlink:href="#l" y1="11.3209" y2="16.2466"/><linearGradient id="n" gradientUnits="userSpaceOnUse" x1="22.5826" x2="44.8451" xlink:href="#l" y1="29.7336" y2="34.6592"/><linearGradient id="o"><stop offset="0" stop-color="#ffdab2"/><stop offset=".192685" stop-color="#fff"/><stop offset="1" stop-color="#ffb37b"/></linearGradient><linearGradient id="p" gradientUnits="userSpaceOnUse" x1="56.0653" x2="49.2426" xlink:href="#o" y1="18.3163" y2="29.9896"/><linearGradient id="q" gradientUnits="userSpaceOnUse" x1="20.7576" x2="27.5803" xlink:href="#o" y1="26.0547" y2="37.7279"/><linearGradient id="r"><stop offset="0" stop-color="#f7a67d"/><stop offset="1" stop-color="#ffb37c"/></linearGradient><linearGradient id="s" gradientUnits="userSpaceOnUse" x1="47.8114" x2="48.0343" xlink:href="#r" y1="25.1962" y2="29.6619"/><linearGradient id="t" gradientUnits="userSpaceOnUse" x1="32.3638" x2="32.1409" xlink:href="#r" y1="24.7027" y2="29.1685"/><path d="m0 8c0-4.41828 3.58172-8 8-8h74c4.4183 0 8 3.58172 8 8v82c0 4.4183-3.5817 8-8 8h-74c-4.41828 0-8-3.5817-8-8z" fill="#fff"/><path d="m0 8c0-4.41828 3.58172-8 8-8h74c4.4183 0 8 3.58172 8 8v82c0 4.4183-3.5817 8-8 8h-74c-4.41828 0-8-3.5817-8-8z" fill="url(#d)"/><path clip-rule="evenodd" d="m24.0684 42.6367v13.2656 6.6893 2.1543h41.927v-2.1543-6.6893-13.2656z" fill="url(#e)" fill-rule="evenodd"/><path d="m24.0684 42.6367v2.2109h41.927v-2.2109z" fill="url(#f)"/><path d="m22.9648 19.4219h44.1337v15.4763h-44.1337z" fill="url(#g)"/><path d="m22.9648 36.0039h44.1337v6.63269h-44.1337z" fill="url(#h)"/><path d="m22.9648 34.8984h44.1337v1.10545h-44.1337z" fill="#fff"/><path d="m40.6182 36.0039h8.82674v28.7417h-8.82674z" fill="#fff" opacity=".4"/><path d="m49.4453 29.3711h1.10334v35.3744h-1.10334z" fill="#e88754" opacity=".25"/><path d="m39.5151 29.3711h1.10334v35.3744h-1.10334z" fill="#e88754" opacity=".25"/><path d="m45.0317 27.1602h22.0669v3.31635h-22.0669z" fill="url(#j)"/><path d="m0 0h22.0669v3.31635h-22.0669z" fill="url(#k)" transform="matrix(-1 0 0 1 45.0317 27.1602)"/><path d="m40.6182 19.4219h8.82674v16.5817h-8.82674z" fill="#fff" opacity=".6"/><path d="m57.1685 15c3.31 0 5.5167 3.3163 5.5167 8.5185 0 2.536-2.4959 5.8523-5.5747 5.8523h-12.0788v-2.2109s7.7234-12.1599 12.1368-12.1599z" fill="url(#m)"/><path d="m32.8946 15c-3.31 0-5.5167 3.3163-5.5167 8.5185 0 2.536 2.4959 5.8523 5.5748 5.8523h12.0787v-2.2109s-7.7234-12.1599-12.1368-12.1599z" fill="url(#n)"/><path d="m45.0317 29.3709 12.0788-.9489h.0225c2.8709-.0151 5.2299-2.9104 5.5219-5.3551.0175-.2051.0276-.4155.0299-.6312-.0009-.1193-.003-.2376-.0062-.3548-.1601-3.0352-3.2109-1.1097-7.1929 1.4035-3.2212 2.033-8.7989 5.3338-10.454 5.8865z" fill="url(#p)"/><path d="m45.0309 29.3709-12.0787-.9489c-.0075 0-.015 0-.0225 0-2.871-.0151-5.23-2.9104-5.5219-5.3551-.0175-.2051-.0276-.4155-.0299-.6312.0009-.1193.0029-.2376.0061-.3548.1602-3.0352 3.211-1.1097 7.193 1.4035 3.2212 2.033 8.7989 5.3338 10.4539 5.8865z" fill="url(#q)"/><path d="m45.0317 29.3712h12.0788.0225c2.8709-.0151 5.2299-2.9104 5.5219-5.3551.0175-.2051.0276-.4155.0299-.6312-.0009-.1193-.003-.2376-.0062-.3548-.1601-3.0352-3.2109-1.1097-7.1929 1.4035-3.2212 2.0331-7.0517 4.4507-10.454 4.9376z" fill="url(#s)"/><path d="m45.0309 29.3712h-12.0787c-.0075 0-.015 0-.0225 0-2.871-.0151-5.23-2.9104-5.5219-5.3551-.0175-.2051-.0276-.4155-.0299-.6312.0009-.1193.0029-.2376.0061-.3548.1602-3.0352 3.211-1.1097 7.193 1.4035 3.2212 2.0331 7.0516 4.4507 10.4539 4.9376z" fill="url(#t)"/><g filter="url(#a)"><ellipse cx="54.9896" cy="50.3694" fill="#fff" rx="2.23427" ry="2.23853"/></g><g filter="url(#b)"><ellipse cx="68.147" cy="41.1673" fill="#fff" rx="2.97902" ry="2.98471"/></g><g filter="url(#c)"><ellipse cx="19.2413" cy="27.188" fill="#fff" rx="1.24126" ry="1.24363"/></g><rect fill="#fff" height="22" rx="11" width="64" x="13" y="58"/><path d="m22.2437 66.826v2.352c0 1.372.196 2.17.686 2.786.658.84 1.596 1.19 3.094 1.19 1.428 0 2.282-.294 2.954-1.022.616-.644.84-1.456.84-2.954v-2.352c0-1.386-.196-2.156-.686-2.786-.658-.84-1.596-1.19-3.108-1.19-1.414 0-2.268.294-2.94 1.022-.616.644-.84 1.456-.84 2.954zm2.156 2.17v-1.988c0-1.82.406-2.422 1.638-2.422 1.218 0 1.624.602 1.624 2.422v1.988c0 1.82-.406 2.422-1.638 2.422-1.218 0-1.624-.602-1.624-2.422zm9.0295-2.856-.21-.392h-1.568v10.402h2.044v-3.388c.546.294.938.392 1.498.392 1.932 0 2.73-.952 2.73-3.262v-1.05c0-2.296-.798-3.262-2.73-3.262-.728 0-1.246.168-1.764.56zm.266 4.004v-1.554c0-.952.35-1.386 1.106-1.386s1.092.546 1.092 1.792v.742c0 1.26-.336 1.792-1.092 1.792-.77 0-1.106-.434-1.106-1.386zm7.7331-.07v-.182h4.312v-.7c0-2.576-.91-3.612-3.178-3.612-1.232 0-2.072.336-2.576 1.022-.434.56-.602 1.302-.602 2.59v.462c0 2.506.896 3.5 3.164 3.5 1.638 0 2.534-.42 3.15-1.484l-1.498-.854c-.35.56-.756.77-1.4281.77-.8819 0-1.3439-.518-1.3439-1.512zm-.014-1.568v-.168c0-.798.448-1.274 1.19-1.274.784 0 1.218.462 1.218 1.274v.168zm7.5849-2.212-.168-.546h-1.526v7.252h2.044v-3.766c0-1.414.28-1.918 1.078-1.918.742 0 1.022.49 1.022 1.778v3.906h2.044v-4.144c0-.938-.056-1.47-.21-1.876-.35-.91-1.176-1.4-2.38-1.4-.896 0-1.414.196-1.904.714zm10.2961.49h-1.968l1.908 3.036-2.064 3.18h1.896l1.032-1.8 1.116 1.8h1.968l-1.98-3.168 2.028-3.048h-1.884l-.996 1.692zm5.0406.096 1.32-.54v6.66h1.848v-8.568h-1.212l-2.532 1.044z" fill="#21c397" opacity=".4"/></svg>