<svg fill="none" height="34" viewBox="0 0 35 34" width="35" xmlns="http://www.w3.org/2000/svg" xmlns:xlink="http://www.w3.org/1999/xlink"><linearGradient id="a" gradientUnits="userSpaceOnUse" x1="1.36963" x2="1.36963" y1="1" y2="33"><stop offset="0" stop-color="#628cf1"/><stop offset=".987872" stop-color="#7098f8"/></linearGradient><linearGradient id="b" gradientUnits="userSpaceOnUse" x1="3.53943" x2="3.53943" y1="3" y2="30.6604"><stop offset="0" stop-color="#6a94f8"/><stop offset="1" stop-color="#658ff3"/></linearGradient><linearGradient id="c" gradientUnits="userSpaceOnUse" x1="3.36963" x2="3.36963" y1="3" y2="31"><stop offset=".000874126" stop-color="#19369e"/><stop offset="1" stop-color="#9dbeff"/></linearGradient><path d="m33.8696 17c0-9.11364-7.3863-16.5-16.5-16.5-9.11043 0-16.499971 7.38629-16.499971 16.5 0 9.1136 7.386361 16.5 16.499971 16.5 9.1137 0 16.5-7.3864 16.5-16.5z" fill="url(#a)" stroke="#000113"/><path d="m17.3696 3.5c7.4567 0 13.5 6.04333 13.5 13.5 0 7.4567-6.0433 13.5-13.5 13.5-7.45664 0-13.49997-6.0433-13.49997-13.5 0-7.45661 6.046-13.5 13.49997-13.5z" fill="url(#b)" stroke="url(#c)"/><path d="m17.3696 9v10.2857l-5-2.4182zm0 0v10.2857l5-2.5139zm0 16v-4.22l-5-2.6316zm0 0v-4.22l5-2.6316z" fill="#2846a6"/></svg>