<svg fill="none" height="34" viewBox="0 0 35 34" width="35" xmlns="http://www.w3.org/2000/svg" xmlns:xlink="http://www.w3.org/1999/xlink"><linearGradient id="a" gradientUnits="userSpaceOnUse" x1="1.36951" x2="1.36951" y1="1" y2="33"><stop offset="0" stop-color="#21c397"/><stop offset=".987872" stop-color="#2acca0"/></linearGradient><linearGradient id="b" gradientUnits="userSpaceOnUse" x1="3.53931" x2="3.53931" y1="3" y2="30.6604"><stop offset="0" stop-color="#21c397"/><stop offset="1" stop-color="#1ebd92"/></linearGradient><linearGradient id="c" gradientUnits="userSpaceOnUse" x1="3.36951" x2="3.36951" y1="3" y2="31"><stop offset=".000874126" stop-color="#106b60"/><stop offset="1" stop-color="#23edbf"/></linearGradient><path d="m33.8695 17c0-9.11364-7.3864-16.5-16.5-16.5-9.11045 0-16.499993 7.38629-16.499993 16.5 0 9.1136 7.386353 16.5 16.499993 16.5 9.1136 0 16.5-7.3864 16.5-16.5z" fill="url(#a)" stroke="#000113"/><path d="m17.3695 3.5c7.4567 0 13.5 6.04333 13.5 13.5 0 7.4567-6.0433 13.5-13.5 13.5-7.45666 0-13.49999-6.0433-13.49999-13.5 0-7.45661 6.046-13.5 13.49999-13.5z" fill="url(#b)" stroke="url(#c)"/><path clip-rule="evenodd" d="m15.1635 17.0013 3.8921 4.1462 2.4574-2.6182c.4383-.4224 1.1114-.4019 1.5305.0435.4192.4453.4359 1.1619.0407 1.6303l-3.243 3.4552c-.4359.4556-1.1329.4556-1.5688 0l-4.6801-4.9857v2.9638c0 .6526-.4982 1.185-1.1113 1.185-.6132-.0026-1.1114-.5324-1.1114-1.1876v-9.2727c0-.6527.4982-1.185 1.1114-1.185.6131 0 1.1113.5298 1.1113 1.185v2.9638l4.6777-4.9832c.4359-.45559 1.1353-.45559 1.5688 0l3.2454 3.4526c.3952.4684.3785 1.185-.0407 1.6304-.4191.4453-1.0898.4632-1.5305.0435l-2.455-2.6183zm3.9185-1.2183c-.4551 0-.8671.2867-1.0395.7269-.1749.4402-.0791.947.2443 1.2822.3209.3379.8071.4377 1.2263.256.4215-.1817.6946-.6117.6946-1.0878 0-.3122-.1174-.6117-.3282-.8318-.2131-.2201-.4981-.3455-.7975-.3455z" fill="#0d6258" fill-rule="evenodd"/></svg>