<svg fill="none" height="27" viewBox="0 0 23 27" width="23" xmlns="http://www.w3.org/2000/svg" xmlns:xlink="http://www.w3.org/1999/xlink"><filter id="a" color-interpolation-filters="sRGB" filterUnits="userSpaceOnUse" height="18.3271" width="17.0637" x="5.41943" y="14.1787"><feFlood flood-opacity="0" result="BackgroundImageFix"/><feBlend in="SourceGraphic" in2="BackgroundImageFix" mode="normal" result="shape"/><feGaussianBlur result="effect1_foregroundBlur_450_23965" stdDeviation="2"/></filter><filter id="b" color-interpolation-filters="sRGB" filterUnits="userSpaceOnUse" height="15.1162" width="14.2461" x="6.82861" y="15.7842"><feFlood flood-opacity="0" result="BackgroundImageFix"/><feBlend in="SourceGraphic" in2="BackgroundImageFix" mode="normal" result="shape"/><feGaussianBlur result="effect1_foregroundBlur_450_23965" stdDeviation="2"/></filter><filter id="c" color-interpolation-filters="sRGB" filterUnits="userSpaceOnUse" height="23.415" width="21.5291" x="-1.19067" y="-10.0117"><feFlood flood-opacity="0" result="BackgroundImageFix"/><feBlend in="SourceGraphic" in2="BackgroundImageFix" mode="normal" result="shape"/><feGaussianBlur result="effect1_foregroundBlur_450_23965" stdDeviation="2"/></filter><filter id="d" color-interpolation-filters="sRGB" filterUnits="userSpaceOnUse" height="15.4082" width="14.5015" x="2.32324" y="-6.00879"><feFlood flood-opacity="0" result="BackgroundImageFix"/><feBlend in="SourceGraphic" in2="BackgroundImageFix" mode="normal" result="shape"/><feGaussianBlur result="effect1_foregroundBlur_450_23965" stdDeviation="2"/></filter><filter id="e" color-interpolation-filters="sRGB" filterUnits="userSpaceOnUse" height="63.415" width="61.5291" x="-21.9758" y="-26.3682"><feFlood flood-opacity="0" result="BackgroundImageFix"/><feBlend in="SourceGraphic" in2="BackgroundImageFix" mode="normal" result="shape"/><feGaussianBlur result="effect1_foregroundBlur_450_23965" stdDeviation="12"/></filter><filter id="f" color-interpolation-filters="sRGB" filterUnits="userSpaceOnUse" height="43.4082" width="42.5015" x="-12.4619" y="-16.3652"><feFlood flood-opacity="0" result="BackgroundImageFix"/><feBlend in="SourceGraphic" in2="BackgroundImageFix" mode="normal" result="shape"/><feGaussianBlur result="effect1_foregroundBlur_450_23965" stdDeviation="9"/></filter><filter id="g" color-interpolation-filters="sRGB" filterUnits="userSpaceOnUse" height="22.7363" width="21.4224" x=".904785" y="-7.29297"><feFlood flood-opacity="0" result="BackgroundImageFix"/><feBlend in="SourceGraphic" in2="BackgroundImageFix" mode="normal" result="shape"/><feGaussianBlur result="effect1_foregroundBlur_450_23965" stdDeviation="3"/></filter><filter id="h" color-interpolation-filters="sRGB" filterUnits="userSpaceOnUse" height="28.3506" width="26.3508" x="-2.28491" y="-6.49219"><feFlood flood-opacity="0" result="BackgroundImageFix"/><feBlend in="SourceGraphic" in2="BackgroundImageFix" mode="normal" result="shape"/><feGaussianBlur result="effect1_foregroundBlur_450_23965" stdDeviation="3"/></filter><filter id="i" color-interpolation-filters="sRGB" filterUnits="userSpaceOnUse" height="19.6641" width="18.7268" x=".010254" y="10.3896"><feFlood flood-opacity="0" result="BackgroundImageFix"/><feBlend in="SourceGraphic" in2="BackgroundImageFix" mode="normal" result="shape"/><feGaussianBlur result="effect1_foregroundBlur_450_23965" stdDeviation="3"/></filter><filter id="j" color-interpolation-filters="sRGB" filterUnits="userSpaceOnUse" height="10.0176" width="10.8267" x="5.15186" y="7.27637"><feFlood flood-opacity="0" result="BackgroundImageFix"/><feBlend in="SourceGraphic" in2="BackgroundImageFix" mode="normal" result="shape"/><feGaussianBlur result="effect1_foregroundBlur_450_23965" stdDeviation=".5"/></filter><filter id="k" color-interpolation-filters="sRGB" filterUnits="userSpaceOnUse" height="14.4131" width="18.7605" x="2.28076" y="-1.39648"><feFlood flood-opacity="0" result="BackgroundImageFix"/><feBlend in="SourceGraphic" in2="BackgroundImageFix" mode="normal" result="shape"/><feGaussianBlur result="effect1_foregroundBlur_450_23965" stdDeviation="3"/></filter><filter id="l" color-interpolation-filters="sRGB" filterUnits="userSpaceOnUse" height="14.7607" width="13.1243" x=".651367" y="-2.70605"><feFlood flood-opacity="0" result="BackgroundImageFix"/><feBlend in="SourceGraphic" in2="BackgroundImageFix" mode="normal" result="shape"/><feGaussianBlur result="effect1_foregroundBlur_450_23965" stdDeviation="3"/></filter><filter id="m" color-interpolation-filters="sRGB" filterUnits="userSpaceOnUse" height="14.3975" width="17.0435" x="2.17773" y="11.2783"><feFlood flood-opacity="0" result="BackgroundImageFix"/><feBlend in="SourceGraphic" in2="BackgroundImageFix" mode="normal" result="shape"/><feGaussianBlur result="effect1_foregroundBlur_450_23965" stdDeviation="3"/></filter><filter id="n" color-interpolation-filters="sRGB" filterUnits="userSpaceOnUse" height="10.7285" width="8.93164" x="8.73535" y="10.0391"><feFlood flood-opacity="0" result="BackgroundImageFix"/><feBlend in="SourceGraphic" in2="BackgroundImageFix" mode="normal" result="shape"/><feGaussianBlur result="effect1_foregroundBlur_450_23965" stdDeviation=".5"/></filter><filter id="o" color-interpolation-filters="sRGB" filterUnits="userSpaceOnUse" height="13.0957" width="5.14087" x="3.24023" y="6.41797"><feFlood flood-opacity="0" result="BackgroundImageFix"/><feBlend in="SourceGraphic" in2="BackgroundImageFix" mode="normal" result="shape"/><feGaussianBlur result="effect1_foregroundBlur_450_23965" stdDeviation=".5"/></filter><linearGradient id="p" gradientUnits="userSpaceOnUse" x1="9.71699" x2="11.2309" y1=".636315" y2="26.0439"><stop offset="0" stop-color="#ffccc4"/><stop offset=".261476" stop-color="#ff8e7b"/><stop offset="1" stop-color="#e05535"/></linearGradient><linearGradient id="q" gradientUnits="userSpaceOnUse" x1="17.7286" x2="19.8867" y1="1.06543" y2="15.6327"><stop offset="0" stop-color="#dd4e41"/><stop offset="1" stop-color="#b02a19"/></linearGradient><linearGradient id="r" gradientUnits="userSpaceOnUse" x1="15.6062" x2="6.4359" y1="14.9482" y2="26.3194"><stop offset="0" stop-color="#fa6648"/><stop offset="1" stop-color="#fa6648" stop-opacity="0"/></linearGradient><linearGradient id="s" gradientUnits="userSpaceOnUse" x1="2.16297" x2="2.16297" y1="13.457" y2="23.0214"><stop offset="0" stop-color="#e34737"/><stop offset="1" stop-color="#e34737" stop-opacity="0"/></linearGradient><linearGradient id="t" gradientUnits="userSpaceOnUse" x1="12.3905" x2="12.3905" y1="15.0332" y2="25.5598"><stop offset="0" stop-color="#ff7f56"/><stop offset="1" stop-color="#ff7f6c" stop-opacity="0"/></linearGradient><linearGradient id="u" gradientUnits="userSpaceOnUse" x1="20.4094" x2="8.95965" y1="2.19912" y2="27.2909"><stop offset="0" stop-color="#b42c1f"/><stop offset="1" stop-color="#b42c1f" stop-opacity=".66"/></linearGradient><linearGradient id="v" gradientUnits="userSpaceOnUse" x1="20.8372" x2="8.87922" y1="14.1106" y2="26.8224"><stop offset="0" stop-color="#ffc4c4"/><stop offset="1" stop-color="#ffe6c0"/></linearGradient><linearGradient id="w" gradientUnits="userSpaceOnUse" x1="5.39098" x2=".375831" y1="15.2139" y2="18.3422"><stop offset="0" stop-color="#9f2519"/><stop offset="1" stop-color="#d22b1b"/></linearGradient><linearGradient id="x" gradientUnits="userSpaceOnUse" x1="12.18" x2="14.5563" y1="17.6942" y2="22.827"><stop offset="0" stop-color="#e14a35"/><stop offset="1" stop-color="#ff937b"/></linearGradient><linearGradient id="y" gradientUnits="userSpaceOnUse" x1="20.4752" x2="15.004" y1="6.02023" y2="8.09836"><stop offset="0" stop-color="#f04f40"/><stop offset="1" stop-color="#ff8c81"/></linearGradient><linearGradient id="z" gradientUnits="userSpaceOnUse" x1="11.231" x2="11.231" y1="1.43652" y2="23.5389"><stop offset="0" stop-color="#ffaa9d"/><stop offset="1" stop-color="#fe755f"/></linearGradient><linearGradient id="A" gradientUnits="userSpaceOnUse" x1="14.3408" x2="13.5198" y1=".706641" y2="5.05839"><stop offset="0" stop-color="#cc4335"/><stop offset="1" stop-color="#cc2f21"/></linearGradient><linearGradient id="B" gradientUnits="userSpaceOnUse" x1="6.84966" x2="2.60107" y1="10.0815" y2="9.57162"><stop offset="0" stop-color="#ffeeec"/><stop offset="1" stop-color="#ffc1a7"/></linearGradient><linearGradient id="C" gradientUnits="userSpaceOnUse" x1="11.9345" x2="10.8658" y1="8.14301" y2="16.3179"><stop offset="0" stop-color="#ff9e95"/><stop offset="1" stop-color="#f86a4e"/></linearGradient><linearGradient id="D" gradientUnits="userSpaceOnUse" x1="3.72664" x2="3.24167" y1="18.397" y2="23.3743"><stop offset="0" stop-color="#fff"/><stop offset="1" stop-color="#ff7351"/></linearGradient><mask id="E" height="27" maskUnits="userSpaceOnUse" width="23" x="0" y="0"><path d="m1.91206 22.7937c.37704.7541 2.95633 2.3423 4.19885 3.0421 2.50217.377 5.04149.1571 5.99839 0 1.0283-.3428 3.9132-2.4851 5.2271-3.5134.617-.7198 2.8278-4.4987 3.8561-6.2982.6512-1.9195.8712-6.91242.8997-9.16894-.4798-1.50816-2.3422-4.17028-3.2134-5.31283-1.0283-.51414-3.4362-1.54243-4.8415-1.54243-3.5647.0685527-6.02691 1.22823-6.81241 1.7995-.64268.52843-2.10799 1.83379-2.82779 2.8278-1.71382 2.35649-4.027471 7.4979-4.027471 8.3977.042845 7.9692 1.071131 8.8261 1.542431 9.7687z" fill="#d9d9d9"/></mask><mask id="F" height="27" maskUnits="userSpaceOnUse" width="23" x="0" y="0"><path d="m1.91206 22.7937c.37704.7541 2.95633 2.3423 4.19885 3.0421 2.50217.377 5.04149.1571 5.99839 0 1.0283-.3428 3.9132-2.4851 5.2271-3.5134.617-.7198 2.8278-4.4987 3.8561-6.2982.6512-1.9195.8712-6.91242.8997-9.16894-.4798-1.50816-2.3422-4.17028-3.2134-5.31283-1.0283-.51414-3.4362-1.54243-4.8415-1.54243-3.5647.0685527-6.02691 1.22823-6.81241 1.7995-.64268.52843-2.10799 1.83379-2.82779 2.8278-1.71382 2.35649-4.027471 7.4979-4.027471 8.3977.042845 7.9692 1.071131 8.8261 1.542431 9.7687z" fill="#02a97d"/></mask><mask id="G" height="23" maskUnits="userSpaceOnUse" width="18" x="2" y="1"><path d="m12.0385 4.32016 2.9878-2.88364v3.85265l.646 4.1183 1.1305 2.26103 2.9878 3.6338-4.7643.969-1.7765.969-3.63383 2.584-4.03755 3.7146v-5.4103-2.8263l-1.29201-2.0188-1.61502-3.87603 5.57182-2.34178z" fill="#01d5a4"/></mask><g mask="url(#E)"><g mask="url(#F)"><path d="m1.91206 22.7937c.37704.7541 2.95633 2.3423 4.19885 3.0421 2.50217.377 5.04149.1571 5.99839 0 1.0283-.3428 3.9132-2.4851 5.2271-3.5134.617-.7198 2.8278-4.4987 3.8561-6.2982.6512-1.9195.8712-6.91242.8997-9.16894-.4798-1.50816-2.3422-4.17028-3.2134-5.31283-1.0283-.51414-3.4362-1.54243-4.8415-1.54243-3.5647.0685527-6.02691 1.22823-6.81241 1.7995-.64268.52843-2.10799 1.83379-2.82779 2.8278-1.71382 2.35649-4.027471 7.4979-4.027471 8.3977.042845 7.9692 1.071131 8.8261 1.542431 9.7687z" fill="url(#p)"/></g><path d="m16.4338 12.2337 3.7767 3.399 1.0251-2.5358.3237-5.55714-1.7805-4.58598-1.1869-1.40278-3.5609-.48557-.4856 3.99251z" fill="url(#q)"/><path d="m16.1197 14.9482 4.4751.5136-1.027 4.4751-4.9887 4.9886-7.40958 1.3939-5.57554-3.448-.733628-4.3284 3.741488-1.614 5.79566 1.614z" fill="url(#r)"/><path d="m4.05445 16.0705-3.670035-2.6135c-.578309 5.7386 1.204815 8.7673 2.168655 9.5644z" fill="url(#s)"/><g filter="url(#a)"><ellipse cx="13.9513" cy="23.342" fill="#ffb392" fill-opacity=".8" rx="4.4822" ry="5.20463" transform="matrix(.96828602 .24984432 -.24984432 .96828602 6.274317 -2.745385)"/></g><g filter="url(#b)"><ellipse cx="13.9517" cy="23.3423" fill="#fff3e1" fill-opacity=".6" rx="3.08878" ry="3.58662" transform="matrix(.96828602 .24984432 -.24984432 .96828602 6.274405 -2.745476)"/></g><path d="m12.3345 19.4566c-1.4334.1344-1.9784 4.1248-2.0717 6.1032l-5.26329-.5039 1.5118-4.6474 5.03929-5.7112 8.4444.6028-.7734 4.4925c-1.6984-.168-5.4536-.4703-6.8871-.336z" fill="url(#t)"/><g filter="url(#c)"><ellipse cx="9.57389" cy="1.69591" fill="#ffa192" fill-opacity=".8" rx="6.69043" ry="7.76877" transform="matrix(.96828602 .24984432 -.24984432 .96828602 .72734 -2.338198)"/></g><g filter="url(#d)"><ellipse cx="9.57399" cy="1.69562" fill="#ffe6ce" rx="3.21517" ry="3.73338" transform="matrix(.96828602 .24984432 -.24984432 .96828602 .72727 -2.338232)"/></g><path d="m15.0192 1.44603 4.0076.55384c-.3232-1.364515-2.8278-2.27419-4.0397-2.558464l-2.1994.673279z" fill="url(#u)"/><path d="m20.6807 6.07694-1.802-4.10451 3.0282.58601 3.0235 9.85666-8.2239 14.8758-12.33601-.6047-4.595757-3.6887-.907053-9.3125 2.90258-7.19598 2.60023-1.26988-1.67845 4.20241-2.131191 5.53335.665171 3.991 1.45129 4.4748h2.96306l5.68423 2.177 3.2654-3.3259 3.5073-2.7212 1.6932-4.2329 1.3303-2.9026z" fill="url(#u)"/><path d="m15.2433.923794-.5245-.818325c1.0239.235007 3.1404 1.133071 4.0706 1.552721z" fill="#ffb291"/><path d="m20.793 5.92669v-1.69817l1.6011 2.57151-.3882 2.523z" fill="#ff9b95"/><path d="m20.2642 15.6747 1.4221-2.1561-.367 5.3674-7.2942 7.9364-8.02814-.2294-2.15614-2.202 2.98189.5964 1.83502 1.0092 3.89937-.4128 2.6149-2.7984 2.1562-.734 1.4221-1.9727z" fill="url(#v)"/><path d="m1.74378 21.258.10829.9926-1.317497-.9926-1.591703-6.6037 1.176603-3.7377 3.086177-4.18711-1.04677 3.39301-1.624307 2.0033v1.7326l.360957 5.5768z" fill="#ffb4b1"/><path d="m7.80464 3.26716-3.64009 2.36754c0-1.18307 1.74196-2.58145 2.61294-3.13275z" fill="#ffefd7"/><path d="m7.76377 3.27101-1.0416-.71268c.3472-.35177 1.39246-1.18962 2.79589-1.726871 1.40344-.53725 3.11564-.571057 3.79634-.520804l-4.13277 1.180345z" fill="#fff5f2"/><path d="m7.75763 3.28516-.50519 4.69105c1.03925-.6351 3.46416-2.47784 4.54676-3.31982z" fill="#fc5544"/><path d="m.633789 17.4049c.346417-.0578 2.745511-2.8849 3.731841-4.232 2.2517 1.4434 1.80801 4.0741 1.2547 5.277-1.38566-.0578-3.70849.4003-4.646698.5687z" fill="url(#w)"/><path d="m14.5563 22.3872-4.75259-2.7364c2.30429-2.4771 4.12859-3.1444 4.75259-3.1684z" fill="url(#x)"/><path d="m20.6982 6.01502-5.6764-.96619-.6038 3.14012 2.1739 2.95895c.2899-.7246 2.8583-3.72385 4.1063-5.13288z" fill="url(#y)"/><g mask="url(#G)"><path d="m12.0385 4.32016 2.9878-2.88364v3.85265l.646 4.1183 1.1305 2.26103 2.9878 3.6338-4.7643.969-1.7765.969-3.63383 2.584-4.03755 3.7146v-5.4103-2.8263l-1.29201-2.0188-1.61502-3.87603 5.57182-2.34178z" fill="url(#z)"/><g filter="url(#e)"><ellipse cx="8.78873" cy="5.33947" fill="#ffa192" rx="6.69043" ry="7.76877" transform="matrix(.96828602 .24984432 -.24984432 .96828602 1.612762 -2.026478)"/></g><g filter="url(#f)"><ellipse cx="8.78884" cy="5.33917" fill="#ffb7ac" rx="3.21517" ry="3.73338" transform="matrix(.96828602 .24984432 -.24984432 .96828602 1.61269 -2.026515)"/></g><g filter="url(#g)"><ellipse cx="11.616" cy="4.07502" fill="#fff9e3" rx="4.65956" ry="5.41057" transform="matrix(.96828602 .24984432 -.24984432 .96828602 1.38651 -2.772957)"/></g><g filter="url(#h)"><path d="m17.7621 9.45607c-1.137 4.40683-5.1354 7.18543-8.93051 6.20613-3.79513-.9792-5.9499-5.3455-4.81282-9.7523 1.13708-4.40681 5.13542-7.1854 8.93053-6.206152 3.7951.979248 5.9499 5.345512 4.8128 9.752322z" fill="#fff0e2"/></g><g filter="url(#i)"><ellipse cx="9.37367" cy="20.2218" fill="#fff9e3" rx="3.32659" ry="3.86276" transform="matrix(.96828602 .24984432 -.24984432 .96828602 5.349578 -1.700644)"/></g><path d="m15.1707 5.05839-3.5516-.42718 3.8013-4.66246z" fill="url(#A)"/><path d="m6.74984 9.72109.56816-2.31386-5.55823 1.66766 2.47709 4.41571z" fill="url(#B)"/><path d="m8.16681 18.6788-2.61467-.253-.1371 5.8496 4.63856-4.4786z" fill="#cd3b27"/><path d="m16.7556 10.9785c-1.1098 1.2947-1.9046 4.3267-2.0808 5.5158l6.3415-.3964z" fill="#de4a36"/></g><g filter="url(#j)"><path clip-rule="evenodd" d="m9.35885 11.9643 1.75885 2.6924 1.9945-1.2942c.3482-.2053.7699-.138.9595.1513.1896.2892.0792.7004-.2495.9356l-2.6321 1.708c-.3523.2245-.7926.1669-.9911-.1296l-2.11491-3.2375-.50036 1.6947c-.11018.3732-.51478.6365-.90214.5859-.38693-.0521-.61221-.3962-.5016-.7709l1.56545-5.30242c.11019-.3732.51479-.63647.90215-.58583.38735.05064.61264.39474.50203.76941l-.50036 1.69474 3.79644-2.46314c.3523-.22451.7941-.16675.991.12957l1.4674 2.24237c.1706.3005.0391.7089-.3009.9289s-.7667.1749-.9743-.1015l-1.1089-1.69999zm2.68115-.373c-.2875-.0376-.5962.0923-.7794.3298-.1848.2373-.2098.535-.0622.7534.1458.2197.4361.317.7316.2477.2969-.0691.542-.2925.6224-.5647.0527-.1785.0291-.3595-.0669-.5027-.0975-.1435-.2564-.2388-.4455-.2635z" fill="#ffede8" fill-rule="evenodd"/></g><path clip-rule="evenodd" d="m9.35885 11.9643 1.75885 2.6924 1.9945-1.2942c.3482-.2053.7699-.138.9595.1513.1896.2892.0792.7004-.2495.9356l-2.6321 1.708c-.3523.2245-.7926.1669-.9911-.1296l-2.11491-3.2375-.50036 1.6947c-.11018.3732-.51478.6365-.90214.5859-.38693-.0521-.61221-.3962-.5016-.7709l1.56545-5.30242c.11019-.3732.51479-.63647.90215-.58583.38735.05064.61264.39474.50203.76941l-.50036 1.69474 3.79644-2.46314c.3523-.22451.7941-.16675.991.12957l1.4674 2.24237c.1706.3005.0391.7089-.3009.9289s-.7667.1749-.9743-.1015l-1.1089-1.69999zm2.68115-.373c-.2875-.0376-.5962.0923-.7794.3298-.1848.2373-.2098.535-.0622.7534.1458.2197.4361.317.7316.2477.2969-.0691.542-.2925.6224-.5647.0527-.1785.0291-.3595-.0669-.5027-.0975-.1435-.2564-.2388-.4455-.2635z" fill="url(#C)" fill-rule="evenodd"/><g filter="url(#k)"><path d="m8.28076 7.01707 3.36134-2.41355 3.3992.44528-3.5942.51349z" fill="#ffd6d1"/></g><path d="m8.28076 7.01707 3.36134-2.41355 3.3992.44528-3.5942.51349z" fill="#fff"/><g filter="url(#l)"><path d="m7.46078 6.05493.31477-2.76098-1.12418.72845.76443-.30578z" fill="#ffd6d1"/></g><path d="m7.46078 6.05493.31477-2.76098-1.12418.72845.76443-.30578z" fill="#fffaf9"/><g filter="url(#m)"><path d="m9.81063 19.676-1.6329-.9921 1.38488.3513 3.65849-1.7569z" fill="#ffd6d1"/></g><path d="m9.81063 19.676-1.6329-.9921 1.38488.3513 3.65849-1.7569z" fill="#ffdfd1"/><g filter="url(#n)"><path clip-rule="evenodd" d="m16.6252 11.0511c.0406.0241.054.0766.0299.1172-.5394.9086-1.6853 3.2531-1.957 5.3587l-.0054.042-.0368.0212c-.9401.5413-3.2124 1.931-4.78223 3.1595-.03722.0292-.091.0226-.12013-.0146s-.02257-.091.01465-.1201c1.55931-1.2203 3.80191-2.595 4.76571-3.152.2856-2.1279 1.433-4.4709 1.974-5.382.0242-.0407.0767-.0541.1173-.0299z" fill="#ffe7e4" fill-rule="evenodd"/></g><path clip-rule="evenodd" d="m16.6252 11.0511c.0406.0241.054.0766.0299.1172-.5394.9086-1.6853 3.2531-1.957 5.3587l-.0054.042-.0368.0212c-.9401.5413-3.2124 1.931-4.78223 3.1595-.03722.0292-.091.0226-.12013-.0146s-.02257-.091.01465-.1201c1.55931-1.2203 3.80191-2.595 4.76571-3.152.2856-2.1279 1.433-4.4709 1.974-5.382.0242-.0407.0767-.0541.1173-.0299z" fill="#ffe7e4" fill-rule="evenodd"/><path d="m2.51198 23.0066-1.763445-5.3787 1.232935 1.1621 2.72209 4.6476h-1.87981z" fill="url(#D)"/><g filter="url(#o)"><path clip-rule="evenodd" d="m7.31289 7.41977c.04628.00959.07602.05489.06642.10117-.07105.34266-.18494.84345-.29354 1.29347-.10803.44764-.21243.85191-.26428.99712l-.00359.01006-2.37375 3.53591 1.23295 1.9727v3.098c0 .0472-.03831.0855-.08558.0855-.04726 0-.08557-.0383-.08557-.0855v-3.0489l-1.26572-2.0251 2.42353-3.61008c.0494-.14321.14928-.52915.25563-.96986.10832-.44887.22177-.94776.29233-1.28807.0096-.04628.05489-.07602.10117-.06642z" fill="#ffe7e4" fill-rule="evenodd"/></g><g clip-rule="evenodd" fill-rule="evenodd"><path d="m7.31289 7.41977c.04628.00959.07602.05489.06642.10117-.07105.34266-.18494.84345-.29354 1.29347-.10803.44764-.21243.85191-.26428.99712l-.00359.01006-2.37375 3.53591 1.23295 1.9727v3.098c0 .0472-.03831.0855-.08558.0855-.04726 0-.08557-.0383-.08557-.0855v-3.0489l-1.26572-2.0251 2.42353-3.61008c.0494-.14321.14928-.52915.25563-.96986.10832-.44887.22177-.94776.29233-1.28807.0096-.04628.05489-.07602.10117-.06642z" fill="#fff5f3"/><path d="m4.3971 4.6273c.7198-.99401 2.18511-2.29937 2.82779-2.8278.7855-.57127 3.24771-1.7309473 6.81241-1.7995 1.4053 0 3.8132 1.02829 4.8415 1.54243.8712 1.14255 2.7336 3.80467 3.2134 5.31283-.0285 2.25652-.2485 7.24944-.8997 9.16894-1.0283 1.7995-3.2391 5.5784-3.8561 6.2982-1.3139 1.0283-4.1988 3.1706-5.2271 3.5134-.9569.1571-3.49622.377-5.99839 0-1.24252-.6998-3.82181-2.288-4.19885-3.0421-.05063-.1012-.10769-.2015-.16927-.3097-.5116-.8991-1.334919-2.3459-1.373161-9.459 0-.8998 2.313651-6.04121 4.027471-8.3977zm-3.685162 8.397c.000184-.0603.02347-.1982.089392-.4271.063154-.2193.156815-.4938.27682-.8116.23978-.635.57882-1.4274.97252-2.26799.78963-1.68596 1.7856-3.5372 2.62326-4.68898l.00041-.00056c.68896-.95142 2.11486-2.22632 2.7599-2.75754.73239-.52825 3.11886-1.660454 6.60626-1.72822.6397.000795 1.5441.239429 2.4446.558726.8507.301664 1.6602.661444 2.1697.912374.4319.57032 1.0831 1.48064 1.6887 2.43213.6189.97241 1.1703 1.95738 1.4057 2.66191-.0155 1.12566-.0776 2.89962-.2146 4.63165-.1388 1.7553-.3516 3.4242-.656 4.3444-.514.899-1.3131 2.2748-2.0617 3.5181-.3784.6286-.7428 1.2216-1.0505 1.7014-.2968.4629-.5297.8028-.669.9718-.6549.5117-1.6841 1.288-2.6775 1.9806-.5039.3513-.9956.679-1.4228.939-.4186.2547-.7534.4308-.9715.5081-.9442.1513-3.38743.358-5.8016.004-.61566-.3487-1.53146-.899-2.34399-1.4541-.4189-.2861-.80482-.5698-1.10645-.825-.31492-.2664-.49574-.4676-.55533-.5867-.05675-.1136-.11794-.2212-.18219-.3343-.22305-.3926-.48309-.8503-.72316-1.8425-.31215-1.2903-.57953-3.4659-.600942-7.4396z" fill="#992b1e"/></g></g></svg>