<svg fill="none" height="136" viewBox="0 0 180 136" width="180" xmlns="http://www.w3.org/2000/svg" xmlns:xlink="http://www.w3.org/1999/xlink"><mask id="a" height="136" maskUnits="userSpaceOnUse" width="180" x="0" y="0"><rect fill="#202633" height="136" rx="14" width="180"/></mask><g mask="url(#a)"><g stroke="#2b3140" stroke-width=".5"><path d="m18 0v136"/><path d="m38.5 0v136"/><path d="m59.5 0v136"/><path d="m80 0v136"/><path d="m100.5 0v136"/><path d="m121 0v136"/><path d="m141.5 0v136"/><path d="m162 0v136"/><path d="m179 16.5h-178.000008"/><path d="m179 37.5h-178.000008"/><path d="m179 58h-178.000008"/><path d="m179 78.5h-178.000008"/><path d="m179 99h-178.000008"/><path d="m179 119.5h-178.000008"/></g><path d="m17 119h2v1h-2z" fill="#394154"/><path d="m161 119h2v1h-2z" fill="#394154"/><path d="m17 16h2v1h-2z" fill="#394154"/><path d="m161 16h2v1h-2z" fill="#394154"/></g></svg>