<svg fill="none" height="236" viewBox="0 0 180 236" width="180" xmlns="http://www.w3.org/2000/svg" xmlns:xlink="http://www.w3.org/1999/xlink"><linearGradient id="a" gradientUnits="userSpaceOnUse" x1="90" x2="90" y1="0" y2="236"><stop offset="0" stop-color="#303848"/><stop offset=".476328" stop-color="#3b4559"/><stop offset="1" stop-color="#4c5977"/></linearGradient><mask id="b" height="236" maskUnits="userSpaceOnUse" width="180" x="0" y="0"><path clip-rule="evenodd" d="m166 1.5h-152c-6.90356 0-12.5 5.59645-12.5 12.5v208c0 6.904 5.59644 12.5 12.5 12.5h152c6.904 0 12.5-5.596 12.5-12.5v-208c0-6.90356-5.596-12.5-12.5-12.5zm-152-1.5c-7.73199 0-14 6.26802-14 14v208c0 7.732 6.26802 14 14 14h152c7.732 0 14-6.268 14-14v-208c0-7.73199-6.268-14-14-14z" fill="url(#a)" fill-rule="evenodd"/></mask><g mask="url(#b)"><path clip-rule="evenodd" d="m166 1.5h-152c-6.90356 0-12.5 5.59645-12.5 12.5v208c0 6.904 5.59644 12.5 12.5 12.5h152c6.904 0 12.5-5.596 12.5-12.5v-208c0-6.90356-5.596-12.5-12.5-12.5zm-152-1.5c-7.73199 0-14 6.26802-14 14v208c0 7.732 6.26802 14 14 14h152c7.732 0 14-6.268 14-14v-208c0-7.73199-6.268-14-14-14z" fill="url(#a)" fill-rule="evenodd"/><path d="m0 214h32v22h-32z" fill="#6f89b0"/><path d="m148 214h32v22h-32z" fill="#6f89b0"/><g fill="#21c397"><path d="m0 218h18v18h-18z"/><path d="m162 218h18v18h-18z"/><path d="m0 0h18v18h-18z" opacity=".6"/><path d="m162 0h18v18h-18z" opacity=".6"/></g><path d="m18 0h20v4h-20z" fill="#434e64"/><path d="m142 0h20v4h-20z" fill="#434e64"/></g></svg>