<svg fill="none" height="16" viewBox="0 0 16 16" width="16" xmlns="http://www.w3.org/2000/svg" xmlns:xlink="http://www.w3.org/1999/xlink"><linearGradient id="a" gradientUnits="userSpaceOnUse" x1="7.83325" x2="7.83325" y1="6.64347" y2="17.8689"><stop offset="0" stop-color="#fca95c"/><stop offset="1" stop-color="#ffdcb9" stop-opacity=".8"/></linearGradient><linearGradient id="b" gradientUnits="userSpaceOnUse" x1="7.64992" x2="7.64992" y1="8.88855" y2="10.133"><stop offset="0" stop-color="#e18455"/><stop offset="1" stop-color="#ef7132" stop-opacity="0"/></linearGradient><linearGradient id="c" gradientUnits="userSpaceOnUse" x1="7.83321" x2="7.83321" y1="1.42212" y2="6.75545"><stop offset="0" stop-color="#ffc793"/><stop offset="1" stop-color="#ffeec2"/></linearGradient><linearGradient id="d" gradientUnits="userSpaceOnUse" x1="7.83321" x2="7.83321" y1="6.75549" y2="8.88882"><stop offset="0" stop-color="#ffba88"/><stop offset="1" stop-color="#fdc288"/></linearGradient><linearGradient id="e"><stop offset="0" stop-color="#cb835f"/><stop offset="1" stop-color="#f1ad8b" stop-opacity="0"/></linearGradient><linearGradient id="f" gradientUnits="userSpaceOnUse" x1="9.85025" x2="15.1668" xlink:href="#e" y1="4.9778" y2="4.9778"/><linearGradient id="g" gradientUnits="userSpaceOnUse" x1="2.01663" x2="7.33321" xlink:href="#e" y1="1.06667" y2="1.06667"/><linearGradient id="h"><stop offset="0" stop-color="#ffba7b"/><stop offset=".33044" stop-color="#ffeacb"/><stop offset=".759855" stop-color="#ffba7b"/></linearGradient><linearGradient id="i" gradientUnits="userSpaceOnUse" x1="14.6164" x2="7.1098" xlink:href="#h" y1="1.77778" y2="2.91061"/><linearGradient id="j" gradientUnits="userSpaceOnUse" x1="1.05002" x2="8.55658" xlink:href="#h" y1="1.77778" y2="2.91061"/><linearGradient id="k"><stop offset="0" stop-color="#ffdab2"/><stop offset=".192685" stop-color="#fff"/><stop offset="1" stop-color="#ffb37b"/></linearGradient><linearGradient id="l" gradientUnits="userSpaceOnUse" x1="13.7002" x2="8.61698" xlink:href="#k" y1="2.31092" y2="4.55748"/><linearGradient id="m" gradientUnits="userSpaceOnUse" x1="1.9668" x2="7.05001" xlink:href="#k" y1="2.31092" y2="4.55748"/><linearGradient id="n"><stop offset="0" stop-color="#f7a67d"/><stop offset="1" stop-color="#ffb37c"/></linearGradient><linearGradient id="o" gradientUnits="userSpaceOnUse" x1="10.4002" x2="10.7462" xlink:href="#n" y1="3.20002" y2="4.62725"/><linearGradient id="p" gradientUnits="userSpaceOnUse" x1="5.26675" x2="4.92075" xlink:href="#n" y1="3.20002" y2="4.62725"/><path d="m14.7998 15.3068c-.6327.2274-1.353.3875-2.1286.4623-1.5716.1515-3.1881.2306-4.83795.2306s-3.26639-.0791-4.83798-.2306c-.77559-.0748-1.49582-.2349-2.128571-.4623v-6.41825h13.933101z" fill="url(#a)"/><path d="m.866699 8.88855v.71111h13.933101v-.71111z" fill="url(#b)"/><path d="m.5 3.42212c0-1.10457.89543-2 2-2h10.6664c1.1046 0 2 .89543 2 2v3.33333h-14.6664z" fill="url(#c)"/><path d="m.5 6.75549h14.6664v2.13333h-14.6664z" fill="url(#d)"/><path d="m.5 6.40002h14.6664v.355555h-14.6664z" fill="#fff"/><path d="m6.36694 6.75549h2.93329v9.24444h-2.93329z" fill="#fff" opacity=".4"/><path d="m9.29993 4.62207h.366661v11.3778h-.366661z" fill="#e88754" opacity=".25"/><path d="m6 4.62207h.366661v11.3778h-.366661z" fill="#e88754" opacity=".25"/><path d="m7.83362 3.91113h7.33321v1.06667h-7.33321z" fill="url(#f)"/><path d="m0 0h7.33321v1.06667h-7.33321z" fill="url(#g)" transform="matrix(-1 0 0 1 7.83362 3.91113)"/><path d="m6.36694 1.42212h2.93329v5.33333h-2.93329z" fill="#fff" opacity=".6"/><path d="m11.8664 0c1.1 0 1.8333 1.06667 1.8333 2.73987 0 .81568-.8294 1.88235-1.8526 1.88235h-4.01396v-.71111s2.56666-3.91111 4.03326-3.91111z" fill="url(#i)"/><path d="m3.79998 0c-1.09998 0-1.83331 1.06667-1.83331 2.73987 0 .81568.82944 1.88235 1.85261 1.88235h4.01397v-.71111s-2.56663-3.91111-4.03327-3.91111z" fill="url(#j)"/><path d="m7.83362 4.62203 4.01398-.30521c.0025 0 .005-.00001.0075-.00001.954-.00486 1.738-.93609 1.835-1.72241.0058-.06597.0092-.13364.0099-.20301-.0003-.03837-.0009-.07642-.002-.11413-.0532-.97624-1.0671-.35691-2.3903.45142-1.0705.65392-2.92409 1.71557-3.47408 1.89335z" fill="url(#l)"/><path d="m7.83337 4.62203-4.01397-.30521c-.00249 0-.00499-.00001-.00749-.00001-.95407-.00486-1.73802-.93609-1.83501-1.72241-.00584-.06597-.00918-.13364-.00994-.20301.0003-.03837.00098-.07642.00204-.11413.05321-.97624 1.06707-.35691 2.39032.45142 1.07047.65392 2.92406 1.71557 3.47405 1.89335z" fill="url(#m)"/><path d="m7.83362 4.62225 4.01398-.00001c.0025 0 .005-.00001.0075-.00001.954-.00486 1.738-.93609 1.835-1.72241.0058-.06597.0092-.13364.0099-.20301-.0003-.03837-.0009-.07642-.002-.11413-.0532-.97624-1.0671-.35691-2.3903.45142-1.0705.65392-2.34344 1.43152-3.47408 1.58815z" fill="url(#o)"/><path d="m7.83337 4.62225-4.01397-.00001c-.00249 0-.00499-.00001-.00749-.00001-.95407-.00486-1.73802-.93609-1.83501-1.72241-.00584-.06597-.00918-.13364-.00994-.20301.0003-.03837.00098-.07642.00204-.11413.05321-.97624 1.06707-.35691 2.39032.45142 1.07047.65392 2.34341 1.43152 3.47405 1.58815z" fill="url(#p)"/></svg>