<svg fill="none" height="100" viewBox="0 0 100 100" width="100" xmlns="http://www.w3.org/2000/svg" xmlns:xlink="http://www.w3.org/1999/xlink"><mask id="a" fill="#fff"><path d="m78 24h-56v61h38l18-18z" fill="#fff"/></mask><circle cx="50" cy="50" fill="#1a1d30" r="39.5" stroke="#737e8d"/><path d="m36.1415 15.6124h55v60h-55z" fill="#0d1021" stroke="#737e8d" transform="matrix(.96592583 .25881905 -.25881905 .96592583 5.272278 -8.822129)"/><path d="m78 24h-56v61h38l18-18z" fill="#0d1021"/><path d="m78 24h1v-1h-1zm-56 0v-1h-1v1zm0 61h-1v1h1zm56-18 .7071.7071.2929-.2929v-.4142zm-18 18v1h.4142l.2929-.2929zm18-62h-56v2h56zm-57 1v61h2v-61zm58 43v-43h-2v43zm-57 19h38v-2h-38zm38.7071-.2929 18-18-1.4142-1.4142-18 18z" fill="#737e8d" mask="url(#a)"/><g fill="#1a1d30" stroke="#737e8d"><path d="m60.5 67.5h16.2929l-16.2929 16.2929z"/><path d="m32 57h36v4h-36z"/><path d="m32 47h36v4h-36z"/><path d="m32 37h36v4h-36z"/><path d="m32 67h20v4h-20z"/></g></svg>