<svg fill="none" height="24" viewBox="0 0 24 24" width="24" xmlns="http://www.w3.org/2000/svg" xmlns:xlink="http://www.w3.org/1999/xlink"><linearGradient id="a" gradientUnits="userSpaceOnUse" x1="11.8333" x2="11.8333" y1="10.6435" y2="21.8689"><stop offset="0" stop-color="#fca95c"/><stop offset="1" stop-color="#ffdcb9" stop-opacity=".8"/></linearGradient><linearGradient id="b" gradientUnits="userSpaceOnUse" x1="11.6499" x2="11.6499" y1="12.8885" y2="14.133"><stop offset="0" stop-color="#e18455"/><stop offset="1" stop-color="#ef7132" stop-opacity="0"/></linearGradient><linearGradient id="c" gradientUnits="userSpaceOnUse" x1="11.8332" x2="11.8332" y1="5.42212" y2="10.7554"><stop offset="0" stop-color="#ffc793"/><stop offset="1" stop-color="#ffeec2"/></linearGradient><linearGradient id="d" gradientUnits="userSpaceOnUse" x1="11.8332" x2="11.8332" y1="10.7555" y2="12.8888"><stop offset="0" stop-color="#ffba88"/><stop offset="1" stop-color="#fdc288"/></linearGradient><linearGradient id="e"><stop offset="0" stop-color="#cb835f"/><stop offset="1" stop-color="#f1ad8b" stop-opacity="0"/></linearGradient><linearGradient id="f" gradientUnits="userSpaceOnUse" x1="13.8503" x2="19.1668" xlink:href="#e" y1="8.9778" y2="8.9778"/><linearGradient id="g" gradientUnits="userSpaceOnUse" x1="2.01663" x2="7.33321" xlink:href="#e" y1="1.06667" y2="1.06667"/><linearGradient id="h"><stop offset="0" stop-color="#ffba7b"/><stop offset=".33044" stop-color="#ffeacb"/><stop offset=".759855" stop-color="#ffba7b"/></linearGradient><linearGradient id="i" gradientUnits="userSpaceOnUse" x1="18.6164" x2="11.1098" xlink:href="#h" y1="5.77778" y2="6.91061"/><linearGradient id="j" gradientUnits="userSpaceOnUse" x1="5.05002" x2="12.5566" xlink:href="#h" y1="5.77778" y2="6.91061"/><linearGradient id="k"><stop offset="0" stop-color="#ffdab2"/><stop offset=".192685" stop-color="#fff"/><stop offset="1" stop-color="#ffb37b"/></linearGradient><linearGradient id="l" gradientUnits="userSpaceOnUse" x1="17.7002" x2="12.617" xlink:href="#k" y1="6.31092" y2="8.55748"/><linearGradient id="m" gradientUnits="userSpaceOnUse" x1="5.9668" x2="11.05" xlink:href="#k" y1="6.31092" y2="8.55748"/><linearGradient id="n"><stop offset="0" stop-color="#f7a67d"/><stop offset="1" stop-color="#ffb37c"/></linearGradient><linearGradient id="o" gradientUnits="userSpaceOnUse" x1="14.4002" x2="14.7462" xlink:href="#n" y1="7.20002" y2="8.62725"/><linearGradient id="p" gradientUnits="userSpaceOnUse" x1="9.26675" x2="8.92075" xlink:href="#n" y1="7.20002" y2="8.62725"/><circle cx="12" cy="12" fill="#2dbd96" r="12"/><g opacity=".4"><path d="m18.7998 19.3068c-.6327.2274-1.353.3875-2.1286.4623-1.5716.1515-3.1881.2306-4.8379.2306-1.6499 0-3.26644-.0791-4.83803-.2306-.77559-.0748-1.49582-.2349-2.12857-.4623v-6.4183h13.9331z" fill="url(#a)"/><path d="m4.8667 12.8885v.7112h13.9331v-.7112z" fill="url(#b)"/><path d="m4.5 7.42212c0-1.10457.89543-2 2-2h10.6664c1.1046 0 2 .89543 2 2v3.33328h-14.6664z" fill="url(#c)"/><path d="m4.5 10.7555h14.6664v2.13333h-14.6664z" fill="url(#d)"/><path d="m4.5 10.4h14.6664v.355555h-14.6664z" fill="#fff"/><path d="m10.3669 10.7555h2.93329v9.24444h-2.93329z" fill="#fff" opacity=".4"/><path d="m13.2999 8.62207h.366661v11.3778h-.366661z" fill="#e88754" opacity=".25"/><path d="m10 8.62207h.366661v11.3778h-.366661z" fill="#e88754" opacity=".25"/><path d="m11.8336 7.91113h7.33321v1.06667h-7.33321z" fill="url(#f)"/><path d="m0 0h7.33321v1.06667h-7.33321z" fill="url(#g)" transform="matrix(-1 0 0 1 11.8336 7.91113)"/><path d="m10.3669 5.42212h2.93329v5.33333h-2.93329z" fill="#fff" opacity=".6"/><path d="m15.8664 4c1.1 0 1.8333 1.06667 1.8333 2.73987 0 .81568-.8294 1.88235-1.8526 1.88235h-4.014v-.71111s2.5667-3.91111 4.0333-3.91111z" fill="url(#i)"/><path d="m7.79998 4c-1.09998 0-1.83331 1.06667-1.83331 2.73987 0 .81568.82944 1.88235 1.85261 1.88235h4.01392v-.71111s-2.56658-3.91111-4.03322-3.91111z" fill="url(#j)"/><path d="m11.8336 8.62203 4.014-.30521c.0025 0 .005-.00001.0075-.00001.954-.00486 1.738-.93609 1.835-1.72241.0058-.06597.0092-.13364.0099-.20301-.0003-.03837-.0009-.07642-.002-.11413-.0532-.97624-1.0671-.35691-2.3903.45142-1.0705.65392-2.9241 1.71557-3.4741 1.89335z" fill="url(#l)"/><path d="m11.8334 8.62203-4.014-.30521c-.00249 0-.00499-.00001-.00749-.00001-.95407-.00486-1.73802-.93609-1.83501-1.72241-.00584-.06597-.00918-.13364-.00994-.20301.0003-.03837.00098-.07642.00204-.11413.05321-.97624 1.06707-.35691 2.39032.45142 1.07047.65392 2.92408 1.71557 3.47408 1.89335z" fill="url(#m)"/><path d="m11.8336 8.62225 4.014-.00001c.0025 0 .005-.00001.0075-.00001.954-.00486 1.738-.93609 1.835-1.72241.0058-.06597.0092-.13364.0099-.20301-.0003-.03837-.0009-.07642-.002-.11413-.0532-.97624-1.0671-.35691-2.3903.45142-1.0705.65392-2.3434 1.43152-3.4741 1.58815z" fill="url(#o)"/><path d="m11.8334 8.62225-4.014-.00001c-.00249 0-.00499-.00001-.00749-.00001-.95407-.00486-1.73802-.93609-1.83501-1.72241-.00584-.06597-.00918-.13364-.00994-.20301.0003-.03837.00098-.07642.00204-.11413.05321-.97624 1.06707-.35691 2.39032.45142 1.07047.65392 2.34338 1.43152 3.47408 1.58815z" fill="url(#p)"/></g><path clip-rule="evenodd" d="m15.8891 9 .7071.70711-5.6569 5.65689-3.53549-3.5356.70711-.7071 2.82838 2.8284z" fill="#fff" fill-rule="evenodd"/></svg>