<svg fill="none" height="157" viewBox="0 0 111 157" width="111" xmlns="http://www.w3.org/2000/svg" xmlns:xlink="http://www.w3.org/1999/xlink"><linearGradient id="a" gradientUnits="userSpaceOnUse" x1="3.05505" x2="107.804" y1="0" y2="20.7128"><stop offset="0" stop-color="#f7c7a0"/><stop offset="1" stop-color="#df9967"/></linearGradient><linearGradient id="b" gradientUnits="userSpaceOnUse" x1="55.5" x2="55.4843" y1="10" y2="157"><stop offset=".0941446" stop-color="#1b2640"/><stop offset="1" stop-color="#11182d" stop-opacity="0"/></linearGradient><linearGradient id="c" gradientUnits="userSpaceOnUse" x1="60.5121" x2="81.8375" y1="27.2308" y2="86.0143"><stop offset="0" stop-color="#fff"/><stop offset="1" stop-color="#cfdef3"/></linearGradient><path d="m3.05505 0h104.88995v20h-104.88995z" fill="url(#a)"/><path d="m0 20 111-10v147h-111z" fill="url(#b)"/><path d="m50.955 71.8013c7.104 0 13.8655-3.6844 15.0515-10.2502.8192-4.5346-1.5969-7.3687-5.3676-8.5496l.0427-.2362c4.1131-1.5115 6.5279-4.2512 7.1594-7.7466 1.1348-6.2823-3.0988-9.6833-10.4908-9.6833-4.224 0-8.0662 1.606-11.8731 4.3457l3.39 5.1487c2.4928-1.8422 4.513-2.9286 6.913-2.9286 2.64 0 3.8411 1.3226 3.4059 3.7316-.5034 2.7869-2.7562 4.6291-8.8522 4.6291l-1.0665 5.9044c7.488 0 8.7957 1.7949 8.2496 4.818-.4778 2.6452-2.8852 4.015-6.1972 4.015-2.784 0-5.0326-1.3698-6.8257-3.4009l-4.8917 5.2904c2.0545 2.9758 5.6887 4.9125 11.3527 4.9125z" fill="url(#c)"/></svg>