<svg fill="none" height="49" viewBox="0 0 49 49" width="49" xmlns="http://www.w3.org/2000/svg" xmlns:xlink="http://www.w3.org/1999/xlink"><linearGradient id="a" gradientUnits="userSpaceOnUse" x1="15.0769" x2="32.9808" y1="2.35577" y2="50.8846"><stop offset="0" stop-color="#415e8e"/><stop offset="1" stop-color="#2b487a"/></linearGradient><linearGradient id="b" gradientUnits="userSpaceOnUse" x1="15.8017" x2="32.3283" y1="4.05908" y2="48.8549"><stop offset="0" stop-color="#3a4767"/><stop offset="1" stop-color="#172139"/></linearGradient><linearGradient id="c" gradientUnits="userSpaceOnUse" x1="16.0193" x2="29.6828" y1="11.3078" y2="40.5193"><stop offset="0" stop-color="#4d6da2"/><stop offset="1" stop-color="#4d6da1" stop-opacity="0"/></linearGradient><linearGradient id="d" gradientUnits="userSpaceOnUse" x1="19" x2="29.5" y1="16" y2="33.5"><stop offset="0" stop-color="#27375c"/><stop offset="1" stop-color="#101a33"/></linearGradient><path d="m20.5 2.3094c2.4752-1.429061 5.5248-1.429061 8 0l13.2176 7.6312c2.4752 1.4291 4 4.0701 4 6.9282v15.2624c0 2.8581-1.5248 5.4991-4 6.9282l-13.2176 7.6312c-2.4752 1.4291-5.5248 1.4291-8 0l-13.21762-7.6312c-2.47521-1.4291-4-4.0701-4-6.9282v-15.2624c0-2.8581 1.52479-5.4991 4-6.9282z" fill="url(#a)"/><path d="m21.4999 3.61657c1.8564-1.07179 4.1436-1.07179 6 0l13.5855 7.84363c1.8564 1.0718 3 3.0525 3 5.1961v15.6872c0 2.1436-1.1436 4.1244-3 5.1961l-13.5855 7.8436c-1.8564 1.0718-4.1436 1.0718-6 0l-13.58549-7.8436c-1.8564-1.0717-3-3.0525-3-5.1961v-15.6872c0-2.1436 1.14359-4.1243 3-5.1961z" fill="url(#b)"/><path d="m21.625 4.77546c1.779-1.02714 3.9709-1.02714 5.75 0l12.7694 7.37244c1.7791 1.0271 2.875 2.9254 2.875 4.9796v14.7449c0 2.0543-1.0959 3.9525-2.875 4.9797l-12.7694 7.3724c-1.7791 1.0271-3.971 1.0271-5.75 0l-12.76946-7.3724c-1.77905-1.0272-2.87499-2.9254-2.87499-4.9797v-14.7449c0-2.0542 1.09594-3.9525 2.875-4.9796z" stroke="#131d35" stroke-width=".5"/><path d="m3.76929 18.8462h.82692c1.10457 0 2 .8954 2 2v7.3077c0 1.1046-.89543 2-2 2h-.82692z" fill="#3d598b"/><path d="m45.2307 18.8462h-.8269c-1.1046 0-2 .8954-2 2v7.3077c0 1.1046.8954 2 2 2h.8269z" fill="#3d598b"/><circle cx="24.5001" cy="24.5001" fill="url(#c)" r="14.1346"/><path clip-rule="evenodd" d="m21.7424 24.5016 4.8651 5.0347 3.0717-3.1794c.5479-.5128 1.3892-.4879 1.9132.0529.5239.5407.5448 1.411.0508 1.9797l-4.0537 4.1956c-.5449.5532-1.4161.5532-1.961 0l-5.8501-6.0541v3.5989c0 .7925-.6228 1.4389-1.3892 1.4389-.7665-.0031-1.3892-.6464-1.3892-1.442v-11.2598c0-.7925.6227-1.4389 1.3892-1.4389.7664 0 1.3892.6433 1.3892 1.4389v3.5989l5.8471-6.051c.5449-.5532 1.4191-.5532 1.961 0l4.0567 4.1925c.494.5687.4731 1.4389-.0508 1.9797-.524.5408-1.3623.5625-1.9132.0528l-3.0687-3.1793zm4.898-1.4794c-.5688 0-1.0838.3481-1.2993.8826-.2186.5346-.0988 1.15.3053 1.5571.4012.4102 1.009.5314 1.5329.3108.5269-.2207.8683-.7428.8683-1.3209 0-.3791-.1467-.7428-.4102-1.01-.2665-.2673-.6227-.4196-.997-.4196z" fill="url(#d)" fill-rule="evenodd"/></svg>