<svg fill="none" height="18" viewBox="0 0 16 18" width="16" xmlns="http://www.w3.org/2000/svg" xmlns:xlink="http://www.w3.org/1999/xlink"><mask id="a" fill="#000" height="11" maskUnits="userSpaceOnUse" width="15" x=".305664" y="6.25623"><path d="m.305664 6.25623h15v11h-15z" fill="#fff"/><path d="m14.9857 13.7544v-6.37163c.0028.04842.0028.09695 0 .14537v.13272.03796.10123c-.0028.0125-.0028.02547 0 .03797 0 .03792 0 .07581-.0511.12006l-.064.13271-.0638.10124c-.0277.04359-.0576.0856-.0895.12623l-.115.12006-.0384.04445c-.0329.02626-.0629.05571-.0894.08827l-.0511.03796-.1023.08858-.0511.03797c-.044.03927-.091.07514-.1405.1074l-.1917.12655h-.0384l-.1661.10092-.2683.1392-.0831.03796-.2109.10093-.1789.07593-.2747.1074-.0959.03179-.1916.06945-.1151.03148-.1789.0571-.1214.03796-.1853.05031-.1278.03179-.1853.04413-.1277.03179-.1981.03766h-.1278l-.2109.03796h-.1086l-.2939.04444h-.0384l-.3833.0506h-.11501-.29394-.09585l-.60062.0377h-.06388-.52395-.63895-.42169-.05753l-.44088-.0315h-.09582l-.43452-.0441-.43448-.06331h-.09582l-.43449-.07593h-.06391l-.44728-.10123-.51115-.14537h-.04474l-.30668-.10093h-.06388l-.23005-.08858-.21083-.0821-.17893-.07592c-1.2779-.58153-1.91686-1.32125-1.91686-2.0608v6.32097c0 .7396.63896 1.4793 1.91686 2.0608l.17893.0759.17889.0695.23001.0886h.06392l.30668.0947h.04474l.51115.1454.44728.1012h.06388l.43448.0821h.09586l.43448.0633.43449.0506h.09585l.44088.0377h.05749.42173.63895.52395.06388c.19807 0 .40254.0002.60061-.0377h.09586l.2939-.0318h.115l.38339-.0506h.0383l.2876-.0441h.115l.2172-.038h.1214l.1981-.0441h.1278l.1853-.0445h.1278l.1789-.0506h.1278l.1789-.0568.115-.0379.1917-.0695.0958-.0315.2748-.1077.1278-.0503h.0511l.2108-.0951.0831-.0441.2684-.1392.1661-.0947h.0383l.1853-.1263.1406-.1012.0511-.0441.0767-.0571.0511-.0442c.0282-.031.0581-.0607.0895-.0886l.0383-.0379.0958-.1074.0767-.101c.0018-.0125.0018-.0253 0-.0379.0235-.0301.0449-.0621.0639-.0951v-.0376c.0242-.0353.0435-.0736.0575-.1139l.0383-.0886c-.0027-.0146-.0027-.0295 0-.0441 0 0 0-.0632 0-.0948s0 0 0-.038c.0067-.0397.0067-.0803 0-.12.1087-.1707.1087-.2087.1151-.2466z" fill="#000"/></mask><mask id="b" height="10" maskUnits="userSpaceOnUse" width="15" x="1" y="7"><path d="m15.053 13.9733v-6.3716c.0028.04842.0028.09695 0 .14537v.13272.03796.10124c-.0028.01249-.0028.02547 0 .03796 0 .03792 0 .07581-.0512.12006l-.064.13272-.064.10123c-.0277.0436-.0576.0856-.0896.12624l-.1152.12006-.0384.04444c-.033.02627-.063.05571-.0896.08827l-.0512.03797-.1024.08858-.0512.03796c-.0441.03927-.0912.07515-.1408.10741l-.192.12654h-.0384l-.1664.10093-.2688.13919-.0832.03797-.2112.10092-.1792.07593-.2752.10741-.096.03179-.192.06944-.1152.03148-.1792.0571-.1216.03796-.1856.05035-.128.0318-.1856.0441-.128.0318-.1984.0376h-.128l-.2112.038h-.1088l-.2944.0444h-.0384l-.384.0507h-.11519-.29442-.09601l-.6016.0376h-.06399-.5248-.64-.42239-.05761l-.44161-.0315h-.09597l-.43524-.0441-.43519-.0633h-.09598l-.43519-.0759h-.06403l-.448-.1012-.512-.14541h-.0448l-.30719-.10092h-.06398l-.23043-.08858-.21118-.0821-.17921-.07593c-1.28-.58153-1.92-1.32125-1.92-2.0608v6.32094c0 .7396.64 1.4793 1.92 2.0608l.17921.076.17918.0694.2304.0886h.06402l.30719.0948h.0448l.51199.1453.44801.1013h.06399l.43519.0821h.09602l.43519.0632.4352.0506h.09601l.4416.0377h.05758.42242.64.52481.06398c.1984 0 .4032.0003.6016-.0377h.09602l.29438-.0317h.11522l.384-.0507h.0384l.288-.0441h.1152l.2176-.038h.1216l.1984-.0441h.128l.1856-.0444h.128l.1792-.0507h.128l.1792-.0568.1152-.0379.192-.0695.096-.0314.2752-.1078.128-.0503h.0512l.2112-.095.0832-.0442.2688-.1392.1664-.0947h.0384l.1856-.1262.1408-.1013.0512-.0441.0768-.0571.0512-.0442c.0282-.031.0582-.0606.0896-.0885l.0384-.038.096-.1074.0768-.1009c.0018-.0126.0018-.0254 0-.038.0235-.0301.0449-.062.064-.0951v-.0376c.0242-.0352.0436-.0736.0576-.1139l.0384-.0886c-.0028-.0146-.0028-.0295 0-.0441 0 0 0-.0632 0-.0948s0 0 0-.0379c.0067-.0398.0067-.0803 0-.1201.1088-.1707.1088-.2087.1152-.2466z" fill="#fff"/></mask><g opacity=".3"><path d="m13.2741 12.2101.192.0821c2.8288 1.2642 2.7136 3.287-.256 4.5006-3.32701 1.1887-6.97056 1.1887-10.29759 0l-.192-.0821c-2.828796-1.2642-2.7136197-3.2932.25598-4.5068 3.32778-1.1866 6.97133-1.1845 10.29761.0062z" fill="#000" stroke="#000" stroke-linecap="round" stroke-linejoin="round" stroke-width=".062273"/><path d="m14.9857 13.7544v-6.37163c.0028.04842.0028.09695 0 .14537v.13272.03796.10123c-.0028.0125-.0028.02547 0 .03797 0 .03792 0 .07581-.0511.12006l-.064.13271-.0638.10124c-.0277.04359-.0576.0856-.0895.12623l-.115.12006-.0384.04445c-.0329.02626-.0629.05571-.0894.08827l-.0511.03796-.1023.08858-.0511.03797c-.044.03927-.091.07514-.1405.1074l-.1917.12655h-.0384l-.1661.10092-.2683.1392-.0831.03796-.2109.10093-.1789.07593-.2747.1074-.0959.03179-.1916.06945-.1151.03148-.1789.0571-.1214.03796-.1853.05031-.1278.03179-.1853.04413-.1277.03179-.1981.03766h-.1278l-.2109.03796h-.1086l-.2939.04444h-.0384l-.3833.0506h-.11501-.29394-.09585l-.60062.0377h-.06388-.52395-.63895-.42169-.05753l-.44088-.0315h-.09582l-.43452-.0441-.43448-.06331h-.09582l-.43449-.07593h-.06391l-.44728-.10123-.51115-.14537h-.04474l-.30668-.10093h-.06388l-.23005-.08858-.21083-.0821-.17893-.07592c-1.2779-.58153-1.91686-1.32125-1.91686-2.0608v6.32097c0 .7396.63896 1.4793 1.91686 2.0608l.17893.0759.17889.0695.23001.0886h.06392l.30668.0947h.04474l.51115.1454.44728.1012h.06388l.43448.0821h.09586l.43448.0633.43449.0506h.09585l.44088.0377h.05749.42173.63895.52395.06388c.19807 0 .40254.0002.60061-.0377h.09586l.2939-.0318h.115l.38339-.0506h.0383l.2876-.0441h.115l.2172-.038h.1214l.1981-.0441h.1278l.1853-.0445h.1278l.1789-.0506h.1278l.1789-.0568.115-.0379.1917-.0695.0958-.0315.2748-.1077.1278-.0503h.0511l.2108-.0951.0831-.0441.2684-.1392.1661-.0947h.0383l.1853-.1263.1406-.1012.0511-.0441.0767-.0571.0511-.0442c.0282-.031.0581-.0607.0895-.0886l.0383-.0379.0958-.1074.0767-.101c.0018-.0125.0018-.0253 0-.0379.0235-.0301.0449-.0621.0639-.0951v-.0376c.0242-.0353.0435-.0736.0575-.1139l.0383-.0886c-.0027-.0146-.0027-.0295 0-.0441 0 0 0-.0632 0-.0948s0 0 0-.038c.0067-.0397.0067-.0803 0-.12.1087-.1707.1087-.2087.1151-.2466z" fill="#66de8c"/><g stroke-linecap="round" stroke-linejoin="round"><path d="m14.9857 13.7544v-6.37163c.0028.04842.0028.09695 0 .14537v.13272.03796.10123c-.0028.0125-.0028.02547 0 .03797 0 .03792 0 .07581-.0511.12006l-.064.13271-.0638.10124c-.0277.04359-.0576.0856-.0895.12623l-.115.12006-.0384.04445c-.0329.02626-.0629.05571-.0894.08827l-.0511.03796-.1023.08858-.0511.03797c-.044.03927-.091.07514-.1405.1074l-.1917.12655h-.0384l-.1661.10092-.2683.1392-.0831.03796-.2109.10093-.1789.07593-.2747.1074-.0959.03179-.1916.06945-.1151.03148-.1789.0571-.1214.03796-.1853.05031-.1278.03179-.1853.04413-.1277.03179-.1981.03766h-.1278l-.2109.03796h-.1086l-.2939.04444h-.0384l-.3833.0506h-.11501-.29394-.09585l-.60062.0377h-.06388-.52395-.63895-.42169-.05753l-.44088-.0315h-.09582l-.43452-.0441-.43448-.06331h-.09582l-.43449-.07593h-.06391l-.44728-.10123-.51115-.14537h-.04474l-.30668-.10093h-.06388l-.23005-.08858-.21083-.0821-.17893-.07592c-1.2779-.58153-1.91686-1.32125-1.91686-2.0608v6.32097c0 .7396.63896 1.4793 1.91686 2.0608l.17893.0759.17889.0695.23001.0886h.06392l.30668.0947h.04474l.51115.1454.44728.1012h.06388l.43448.0821h.09586l.43448.0633.43449.0506h.09585l.44088.0377h.05749.42173.63895.52395.06388c.19807 0 .40254.0002.60061-.0377h.09586l.2939-.0318h.115l.38339-.0506h.0383l.2876-.0441h.115l.2172-.038h.1214l.1981-.0441h.1278l.1853-.0445h.1278l.1789-.0506h.1278l.1789-.0568.115-.0379.1917-.0695.0958-.0315.2748-.1077.1278-.0503h.0511l.2108-.0951.0831-.0441.2684-.1392.1661-.0947h.0383l.1853-.1263.1406-.1012.0511-.0441.0767-.0571.0511-.0442c.0282-.031.0581-.0607.0895-.0886l.0383-.0379.0958-.1074.0767-.101c.0018-.0125.0018-.0253 0-.0379.0235-.0301.0449-.0621.0639-.0951v-.0376c.0242-.0353.0435-.0736.0575-.1139l.0383-.0886c-.0027-.0146-.0027-.0295 0-.0441 0 0 0-.0632 0-.0948s0 0 0-.038c.0067-.0397.0067-.0803 0-.12.1087-.1707.1087-.2087.1151-.2466z" mask="url(#a)" stroke="#0f1830" stroke-width=".4"/><g mask="url(#b)" stroke-width=".2"><path d="m2.02228 2.16583h-1.350405v20.20817h1.350405z" fill="#66de8c" stroke="#0f1830"/><path d="m3.37286 2.16583h-1.3504v20.20817h1.3504z" fill="#fff" stroke="#000"/><path d="m4.71661 2.16583h-1.3504v20.20817h1.3504z" fill="#66de8c" stroke="#0f1830"/><path d="m6.0672 2.16583h-1.3504v20.20817h1.3504z" fill="#fff" stroke="#000"/><path d="m7.41778 2.16583h-1.3504v20.20817h1.3504z" fill="#66de8c" stroke="#0f1830"/><path d="m8.76153 2.16583h-1.3504v20.20817h1.3504z" fill="#fff" stroke="#000"/><path d="m10.118 2.16583h-1.35042v20.20817h1.35042z" fill="#66de8c" stroke="#0f1830"/><path d="m11.4686 2.16583h-1.3504v20.20817h1.3504z" fill="#fff" stroke="#000"/><path d="m12.8192 2.16583h-1.3504v20.20817h1.3504z" fill="#66de8c" stroke="#0f1830"/><path d="m15.5135 2.16583h-1.3504v20.20817h1.3504z" fill="#66de8c" stroke="#0f1830"/><path d="m14.1629 2.16583h-1.3504v20.20817h1.3504z" fill="#fff" stroke="#000"/></g><path d="m12.9538 5.46544.1792.07593c2.6496 1.19467 2.56 3.08444-.2432 4.22222-3.12002 1.11591-6.5375 1.11591-9.65757 0l-.17918-.07592c-2.649599-1.19467-2.560035-3.08445.24317-4.22223 3.12006-1.11587 6.53754-1.11587 9.65758 0z" fill="#fff" stroke="#000" stroke-width=".2"/><path d="m11.7307 5.88881.1343.05679c1.9904.85334 1.9201 2.19972-.1791 3.01513-2.34381.79319-4.88829.79319-7.23206 0l-.13438-.05679c-1.9904-.85334-1.92002-2.19972.17918-3.01513 2.34321-.79657 4.88883-.79657 7.23206 0z" fill="#000" stroke="#000" stroke-width=".062273"/><path d="m8.97758 8.58359c-.67532.16275-1.38532.14244-2.04901-.05876-.66369-.20121-1.2544-.5753-1.70476-1.07931-.45037-.50402-.74225-1.11752-.84241-1.77118-.10017-.65366-.00457-1.32121.2759-1.92585.28047-.60465.73451-1.12217 1.31038-1.49406s1.25037-.58311 1.94663-.60922 1.38626.13377 1.99132.46137c.60507.32761 1.10087.80994 1.43087 1.3917.2589.97561.1675 2.00501-.2597 2.92593-.4271.92092-1.16576 1.68073-2.09922 2.15938z" fill="#fff" stroke="#000" stroke-width=".2"/><path d="m9.84355 8.49951c-.86854.45683-1.88501.55513-2.82671.27314-.94171-.28198-1.73186-.92118-2.19731-1.77747-.1428-.26173-.25239-.53988-.32637-.82808.55546.60977 1.30189 1.01793 2.11996 1.15926.81808.14132 1.66049.00772 2.39254-.37963.73205-.38736 1.31144-1.00615 1.64554-1.7571.334-.75096.4035-1.59066.1972-2.38519.2034.21953.3776.46374.5184.72686.4645.85843.5651 1.86377.2794 2.79537-.2856.93159-.934 1.71313-1.80265 2.17284z" fill="#ffd056" stroke="#0f1830" stroke-width=".2"/></g></g></svg>