<svg fill="none" height="14" viewBox="0 0 14 14" width="14" xmlns="http://www.w3.org/2000/svg" xmlns:xlink="http://www.w3.org/1999/xlink"><clipPath id="a"><path d="m0 0h14v14h-14z"/></clipPath><g clip-path="url(#a)"><path clip-rule="evenodd" d="m6.99967.583252c3.54393 0 6.41663 2.872758 6.41663 6.416668 0 3.54388-2.8727 6.41668-6.41663 6.41668-3.54391 0-6.416662-2.8728-6.416662-6.41668 0-3.54391 2.872752-6.416668 6.416662-6.416668zm.14257 4.679698h-.58333c-.32218 0-.58334.26116-.58334.58331 0 .32218.26116.58333.58334.58333v2.91667h-.44089c-.32218 0-.58335.26122-.58335.58333 0 .32221.26117.58331.58335.58331h2.05106c.32218 0 .58334-.2611.58334-.58331 0-.32211-.26116-.58333-.58334-.58333h-.44351v-3.5c0-.32215-.26115-.58331-.58333-.58331zm-.13871-2.05561c-.40536 0-.73396.32859-.73396.73396 0 .40536.3286.73395.73396.73395.40535 0 .73394-.32859.73394-.73395 0-.40537-.32859-.73396-.73394-.73396z" fill="#f8b200" fill-rule="evenodd"/></g></svg>