<svg fill="none" height="20" viewBox="0 0 20 20" width="20" xmlns="http://www.w3.org/2000/svg"><g fill="#737e8d"><path clip-rule="evenodd" d="m9.56101 4.51396h.87069l2.1359-2.13597 1.2857 1.28565-.8503.85032 3.5838-.0097c.502 0 .9091.40702.9091.90909v2.47285c0 .50207-.4071.90909-.9091.90909l-13.1738.0097c-.50208 0-.90909-.40702-.90909-.9091v-2.47284c0-.50208.40701-.90909.90909-.90909h3.57672l-.85032-.85032 1.28564-1.28565zm-5.42074 2.65466v-1.0183l11.71923-.00969v1.01829z" fill-rule="evenodd"/><path d="m3.72859 15.6817v-6.06117h1.63636v6.06117c0 .1005.0814.1819.18182.1819h8.90253c.1004 0 .1818-.0814.1818-.1819v-6.06117h1.6364v6.06117c0 1.0042-.814 1.8182-1.8182 1.8182h-8.90253c-1.00416 0-1.81818-.814-1.81818-1.8182z"/><path d="m9.18313 9.99133h1.63637v4.12837h-1.63637z"/></g></svg>