<svg fill="none" height="219" viewBox="0 0 204 219" width="204" xmlns="http://www.w3.org/2000/svg" xmlns:xlink="http://www.w3.org/1999/xlink"><clipPath id="a"><path d="m21.4141 18.6162h154.193v141.681h-154.193z"/></clipPath><mask id="b" height="29" maskUnits="userSpaceOnUse" width="17" x="69" y="21"><path d="m71.1083 24.5831c-2.0103 3.677-2.591 7.9671-1.6306 12.0462.977 3.8798 3.2363 7.3156 6.4113 9.7501 1.9 1.5325 4.1675 2.5419 6.5777 2.9283.8382.128 1.6909.128 2.5291 0h.2107l-.0666-.3771c0-.0555-1.1092-6.3559-2.9061-12.8116-2.396-8.7184-4.7919-13.5547-7.1101-14.4198-.1398-.0526-.2849-.0898-.4326-.111-.1876-.0278-.3782-.0278-.5658 0-1.0426.1664-2.0409 1.1758-2.9948 3.0171" fill="#fff"/></mask><mask id="c" height="27" maskUnits="userSpaceOnUse" width="14" x="70" y="22"><path d="m72.1953 25.2158c-1.8499 3.3859-2.3907 7.3336-1.5197 11.0922.9159 3.5871 3.0096 6.7627 5.9455 9.018 1.727 1.3971 3.7871 2.322 5.9787 2.6843l.5214.0555c.1958.0111.392.0111.5878 0-.3993-2.041-1.3643-6.8217-2.6954-11.6468-3.0947-11.2697-5.4463-13.1998-6.3115-13.4993-.0599-.0271-.1234-.0458-.1885-.0554h-.2219c-.61.1109-1.3643.9428-2.0964 2.3515z" fill="#fff"/></mask><mask id="d" height="29" maskUnits="userSpaceOnUse" width="18" x="112" y="22"><path d="m124.284 22.9416c-2.352.6988-4.992 5.4019-7.842 13.9873-2.108 6.3558-3.561 12.5896-3.572 12.6451l-.089.3771.222.0555c.826.1818 1.676.2341 2.518.1553 2.405-.2693 4.699-1.16 6.655-2.5845 3.304-2.2608 5.741-5.5778 6.911-9.4062 1.167-4.023.812-8.3351-.998-12.1127-1.021-2.2184-2.163-3.3277-3.406-3.2057h-.166c-.094.017-.186.0392-.278.0666" fill="#fff"/></mask><mask id="e" height="25" maskUnits="userSpaceOnUse" width="15" x="114" y="24"><path d="m124.616 24.2061c-.876.2662-3.328 2.0742-6.999 13.1553-1.575 4.7586-2.784 9.4839-3.328 11.5027h.577.521c2.208-.2502 4.314-1.068 6.112-2.3738 3.054-2.0929 5.31-5.158 6.4-8.6963 1.055-3.6881.719-7.635-.943-11.0922-.721-1.5751-1.497-2.4736-2.129-2.4625h-.122-.133" fill="#fff"/></mask><mask id="f" height="24" maskUnits="userSpaceOnUse" width="25" x="76" y="30"><path d="m91.3414 51.815c-.4992 0-1.0094 0-1.5086-.0887-.7455-.0658-1.4864-.1769-2.2184-.3328-4.2372-.8652-7.4318-2.8618-9.0069-5.6238-1.5751-2.7619-1.4309-6.4556.5435-10.4599 1.1092-2.2961 2.4403-3.5052 3.8712-3.5939h.2662.233c1.808.1664 4.9804 1.9744 9.7722 9.5615 1.8994 3.0465 3.618 6.2022 5.1468 9.4506-1.0222.3686-2.077.6397-3.1502.8097-1.3124.2126-2.642.3018-3.971.2662m-13.2885-17.0266c-2.2185 4.4369-2.3405 8.419-.5103 11.6358 1.8302 3.2167 5.2578 5.291 9.861 6.2338.7664.157 1.5401.2755 2.3183.355 3.4431.3629 6.9224-.1325 10.1273-1.442l.31-.1331-.1548-.3328c-1.6479-3.5982-3.5226-7.0882-5.6127-10.4489-4.0708-6.4445-7.6758-9.8609-10.715-10.1493-.2327-.0165-.4662-.0165-.6989 0h-.4104c-1.7414.2884-3.2611 1.7192-4.5145 4.2483" fill="#fff"/></mask><mask id="g" height="23" maskUnits="userSpaceOnUse" width="26" x="97" y="31"><path d="m110.262 51.9814c-.735.1127-1.476.1868-2.218.2219-.5 0-1.01 0-1.52 0-2.416-.0461-4.804-.5348-7.0436-1.442 1.6936-3.1651 3.5716-6.2281 5.6236-9.1733 5.18-7.3319 8.441-8.9736 10.26-9.0512h.222.278c1.419.1663 2.662 1.4419 3.671 3.7935 1.764 4.1041 1.775 7.7645 0 10.4711-1.775 2.7065-4.892 4.4369-9.04 5.1135h-.255m-6.167-11.0922c-2.265 3.2496-4.3212 6.6395-6.1567 10.1493l-.1663.3328.2994.1442c3.1156 1.466 6.5446 2.1404 9.9826 1.9633.784-.0331 1.566-.1109 2.341-.2329 4.636-.6988 8.241-2.7287 10.16-5.7125s2.03-7.1434.089-11.6468c-1.198-2.7953-2.773-4.326-4.681-4.5479-.232-.0166-.466-.0166-.699 0-.193.0113-.386.0335-.576.0666-2.951.4769-6.523 3.6715-10.649 9.506" fill="#fff"/></mask><mask id="h" height="3" maskUnits="userSpaceOnUse" width="2" x="21" y="141"><path d="m22.3458 142.751v.947c-.0253-.338-.1413-.663-.3359-.941-.1945-.278-.4604-.498-.7697-.638v-.979c.3148.14.5847.365.7798.649.1951.285.3078.617.3258.962z" fill="#fff"/></mask><mask id="i" height="30" maskUnits="userSpaceOnUse" width="48" x="18" y="144"><path d="m30.4894 144.788 35.2312 20.51-13.3864 8.435-33.9123-19.823z" fill="#fff"/></mask><path d="m99.9481 162.803c-.3475 0-.7028 0-1.0424-.055-.3396-.056-.6871-.071-1.0346-.119-.3475-.047-.7029-.11-1.0425-.181s-.7898-.166-1.1057-.269-.8766-.276-1.2873-.434c-.5275-.208-1.0395-.454-1.5321-.735l-81.8428-47.251c-2.08494-1.208-3.15901-2.788-3.15901-4.367l-.11849 43.16c0 1.579 1.03459 3.159 3.159 4.367l81.8429 47.252c.489.282.9986.528 1.5242.734.4186.166.845.308 1.2873.435.4422.126.7345.197 1.1056.268.3712.071.6951.134 1.0505.182.3554.047.6791.087 1.0266.118.3475.032.6951.048 1.0425.055.3472.008.7262 0 1.0822 0l.126-43.16c-.363.008-.726.008-1.0819 0z" fill="#66de8c" stroke="#0f1830" stroke-linecap="round" stroke-linejoin="round" stroke-width=".505785"/><path d="m71.8643 177.619-1.619-.94-1.4847-.939-.0632.039-53.8458-31.164.4501 14.777 56.5784 32.632z" style="opacity:.5;fill:#000;stroke:#000;stroke-width:.505785;stroke-linecap:round;stroke-linejoin:round"/><path d="m189.144 105.079c4.146 2.369 4.17 6.279.047 8.687l-81.345 47.252c-4.123 2.369-10.8199 2.369-15.0056 0l-81.8428-47.252c-4.14627-2.369-4.16992-6.278-.0474-8.687l81.3453-47.2513c4.1225-2.3692 10.8195-2.3692 15.0055 0z" fill="#fff" stroke="#000" stroke-linecap="round" stroke-linejoin="round" stroke-width=".505785"/><path d="m192.24 109.74c.008.11.008.221 0 .331 0 .087 0 .182-.063.269s-.056.213-.095.316l-.103.26c-.047.111-.102.222-.158.324-.055.103-.094.158-.142.237-.047.079-.158.253-.245.371l-.173.214c-.14.17-.29.331-.451.481l-.173.174c-.106.096-.216.185-.332.269l-.292.237c-.119.086-.253.165-.387.252l-.395.261-81.345 47.251c-.735.423-1.514.765-2.322 1.019-.656.213-1.327.379-2.006.498-.442.079-.893.142-1.351.189-.387.04-.79.063-1.169.079l-.126 43.16c.395 0 .79-.039 1.177-.071.387-.031.908-.11 1.35-.189.679-.124 1.349-.29 2.006-.498.807-.263 1.585-.607 2.322-1.026l81.345-47.252.135-.079c.094-.055.173-.118.268-.181.095-.064.261-.166.387-.253l.292-.229.324-.277.071-.047c0-.039.071-.087.111-.118.158-.158.308-.324.442-.482l.103-.111.071-.11c.095-.119.174-.245.253-.364l.102-.157s0-.056 0-.079c0-.024.103-.222.15-.332l.095-.19s0-.047 0-.071c.036-.1.065-.203.087-.308.026-.072.047-.146.063-.221.004-.018.004-.037 0-.055.021-.11.034-.221.04-.332.004-.071.004-.142 0-.213v-.095l.126-43.168c.04.126.016.229.008.316z" fill="#66de8c" stroke="#0f1830" stroke-linecap="round" stroke-linejoin="round" stroke-width=".505785"/><path d="m175.607 111.453c-.151-.116-.312-.219-.482-.308l-69.017-39.8588c-3.498-2.0218-9.1451-2.0218-12.6358 0l-68.5985 39.8588-.4344.277c-3.0169-2.022-2.8747-5.086.4344-7.013l68.5985-39.8595c3.4828-2.0217 9.1298-2.0217 12.6358 0l69.049 39.8595c3.349 1.943 3.507 5.015.45 7.044z" fill="#66de8c" stroke="#0f1830" stroke-linecap="round" stroke-linejoin="round" stroke-width=".505785"/><path d="m175.608 111.453c-.135.095-.285.19-.435.276l-68.606 39.868c-3.475 2.021-9.1299 2.021-12.6364 0l-69.0407-39.86c-.1655-.09-.3239-.193-.4739-.308.1343-.094.2843-.189.4343-.276l68.6223-39.8671c3.4828-2.0218 9.1294-2.0218 12.6364 0l69.048 39.8591c.158.092.308.195.451.308z" fill="#000" stroke="#0f1830" stroke-linecap="round" stroke-linejoin="round" stroke-width=".505785"/><g clip-path="url(#a)"><g stroke-linecap="round" stroke-linejoin="round" stroke-width=".505785"><path d="m149.23 111.813c2.374 1.364 2.385 3.594 0 4.958l-45.267 26.3c-1.326.678-2.793 1.031-4.2819 1.031-1.4887 0-2.9561-.353-4.2816-1.031l-45.5447-26.3c-2.3738-1.364-2.3849-3.594 0-4.958l45.2563-26.2996c1.3255-.6776 2.7929-1.031 4.2816-1.031 1.4883 0 2.9563.3534 4.2813 1.031z" fill="#000" stroke="#000"/><path d="m149.186 67.9759c2.43 1.3976 2.441 3.6715 0 5.0692l-45.067 26.1887c-1.356.6888-2.855 1.0482-4.3762 1.0482-1.5208 0-3.0201-.3594-4.3759-1.0482l-45.3673-26.1887c-2.4181-1.3977-2.4402-3.6716 0-5.0692l45.0567-26.1887c1.3578-.6889 2.8589-1.0479 4.3814-1.0479 1.5223 0 3.0233.359 4.3813 1.0479z" fill="#fff" stroke="#141a2a"/><path d="m151.005 70.7051v.1996.1553c-.014.0643-.032.1274-.056.1886.005.0517.005.1036 0 .1553 0 0 0 .122-.099.1886l-.078.1331-.144.2218-.1.122c-.083.1016-.172.1979-.266.2884l-.1.0999-.189.1552-.177.1331-.222.1553-.233.1442-45.068 26.1888c-.177.1109-.377.1997-.576.2995l-.178.0665-.488.1886-.178.0665-.321.0888-.244.0668-.344.066h-.233l-.699.089h-.222-.421-.8875-.3106-.2884-.3106-.2773l-.3328-.055h-.2551l-.3771-.1h-.2219l-.6655-.2221h-.0887c-.2876-.1105-.5658-.2441-.8319-.3993l-45.3673-26.1888c-.7781-.3913-1.3859-1.0543-1.7082-1.8635-.0746-.2215-.1121-.4539-.1109-.6877l-.2551 40.2204c.0486.55.2441 1.077.5661 1.526s.7585.803 1.2641 1.025l45.3672 26.2c.2696.149.5474.282.8319.399h.0555c.2218.089.4437.156.6655.222h.1553l.3882.1h.0999.1552.3328.1221.1442.3105.1553 1.3421.422.21c.244 0 .477 0 .71-.1h.2l.344-.077.244-.067.31-.089h.078.111l.477-.188.177-.078c.211-.089.4-.188.588-.288l45.068-26.189h.067l.166-.111.222-.144.177-.144.189-.156.066-.066.255-.278.067-.066v-.067l.155-.21c-.002-.03-.002-.06 0-.089.036-.06.066-.123.089-.189l.056-.111s0-.122 0-.177v-.122c.005-.067.005-.133 0-.2.005-.044.005-.089 0-.133l.11-40.3867c.422-.0221.411.0333.411.0888z" fill="#e2ffb0" stroke="#141a2a"/><path d="m145.936 51.8927c2.429 1.4087 2.44 3.6715 0 5.0692l-41.851 24.3252c-1.357.6941-2.858 1.0561-4.3819 1.0561-1.5235 0-3.0252-.362-4.3814-1.0561l-42.1504-24.3141c-2.4181-1.4088-2.4292-3.6716 0-5.0803l41.8509-24.3252c1.3578-.6889 2.8589-1.048 4.3815-1.048 1.5223 0 3.0233.3591 4.3813 1.048z" fill="#fff" stroke="#141a2a"/><path d="m147.743 54.6318c.005.0628.005.1259 0 .1886v.1664.1775l-.067.1552c-.025.065-.054.128-.089.1886 0 0-.055.0888-.077.1442l-.156.2108c-.027.0454-.06.0865-.099.122-.078.0998-.167.1886-.255.2884l-.111.0998-.189.1553-.166.1331-.233.1553-.233.1442-41.851 24.3253c-.189.113-.386.213-.588.2995l-.178.0776-.488.1775-.177.0665-.311.0888-.244.0665-.344.0777h-.233c-.232 0-.465.0665-.709.0998h-.222-.411-.8981-.3106-.2884-.3106-.2773l-.3217-.0555-.2551-.0554-.3882-.0998-.2107-.0555c-.2261-.0606-.4484-.1346-.6656-.2219h-.0888c-.2903-.1168-.5719-.2539-.8429-.4104l-42.1505-24.3141c-.5042-.223-.9392-.5775-1.2592-1.0263-.3201-.4489-.5135-.9756-.5599-1.5249v15.1408c.0498.5484.2445 1.0736.5642 1.5219s.7528.8035 1.2549 1.0294l42.1505 24.3252c.2662.1442.5545.2773.8429.3993.2172.0872.4395.1613.6656.2219h.1553l.3882.0887h.0999.1552.3217.1331.1442.3106.1442 1.3981.41.222c.244 0 .477 0 .71-.0998h.199l.344-.0777.244-.0665.322-.0888h.066.1l.488-.1885.178-.0777c.202-.0864.399-.1864.588-.2995l41.851-24.3141h.077l.167-.1109.222-.1553.166-.1331.2-.1553.033-.0555c.091-.0909.176-.1872.255-.2884l.067-.0554v-.0666l.144-.2108c-.002-.0295-.002-.0592 0-.0887.036-.0595.066-.1227.088-.1886.023-.0346.042-.0718.056-.1109 0 0 0-.122 0-.1775v-.1331c.006-.0627.006-.1258 0-.1885.005-.0442.005-.0889 0-.1331v-15.152c.112-.0022.225.0127.333.0443z" fill="#000" stroke="#000"/><path d="m150.395 46.9783c2.418 1.3976 2.44 3.6715 0 5.0692l-46.311 26.9097c-1.357.6889-2.858 1.0479-4.381 1.0479-1.5225 0-3.0236-.359-4.3814-1.0479l-46.5873-26.9097c-2.4292-1.3977-2.4403-3.6716 0-5.0692l46.2989-26.9098c1.357-.6914 2.8584-1.0519 4.3815-1.0519 1.5233 0 3.0243.3605 4.3813 1.0519z" fill="#fff" stroke="#141a2a"/><path d="m152.202 49.6633c.006.0665.006.1332 0 .1997v.1553l-.055.1885-.067.1553-.089.1886-.077.1331c-.048.0765-.1.1506-.156.2219-.026.0458-.06.087-.099.122-.078.0998-.167.1885-.256.2884l-.166.0998-.2.1553-.166.1331c-.07.0544-.144.1027-.222.1442l-.233.1553-46.31 26.9097c-.188.1109-.377.1997-.577.2995l-.177.0666-.488.1885-.178.0555-.321.0998-.244.0666-.344.0665h-.233l-.699.0999h-.222-.421-.8876-.3217-.2773-.3217-.2662l-.3328-.0555h-.2551l-.3882-.0887-.2108-.0555c-.2263-.0642-.4485-.142-.6655-.2329h-.0888c-.2884-.122-.5768-.2552-.843-.3993l-46.5873-26.9098c-.5043-.2243-.9396-.5789-1.2613-1.0273-.3216-.4484-.518-.9744-.5689-1.5239v12.6119c.0478.5518.2429 1.0806.5648 1.5313s.7589.8067 1.2654 1.031l46.5873 26.8986c.271.1565.5527.2936.843.4104.2172.0872.4395.1613.6655.2219h.1665l.3771.0887h.1109.1553l.3217.0555h.1331.1442.3106 1.6418.421.211c.244 0 .477-.0555.71-.0999h.2l.344-.0776.244-.0666.31-.0887h.078.111l.477-.1886.177-.0776.588-.2884 46.299-26.9098h.078l.155-.1109.233-.1442.166-.1442.189-.1553c.019-.0248.041-.0472.066-.0665l.255-.2773.056-.0666v-.0665c.054-.0658.103-.1363.144-.2108l.067-.0887.088-.1997.056-.1109c.005-.0627.005-.1258 0-.1886 0 0 0-.0776 0-.122.005-.0664.005-.1332 0-.1997 0 0 0-.0776 0-.122v-.0554-12.623c.088-.0137.178-.0137.266 0z" fill="#66de8c" stroke="#0f1830"/><path d="m66.2148 62.1523v60.7407l8.6298 4.981v-60.7412z" fill="#9ee705" stroke="#0f1830"/><path d="m66.2148 62.1524 54.8952-32.1231 8.697 5.0137-54.9624 32.0898z" fill="#9ee705" stroke="#0f1830"/><path d="m132.282 62.5195v60.7415l-8.63 4.98v-60.7411z" fill="#9ee705" stroke="#0f1830"/><path d="m132.281 62.5189-54.8952-32.1341-8.6963 5.0247 54.9615 32.0899z" fill="#9ee705" stroke="#0f1830"/></g><path d="m71.1083 24.5831c-2.0103 3.677-2.591 7.9671-1.6306 12.0462.977 3.8798 3.2363 7.3156 6.4113 9.7501 1.9 1.5325 4.1675 2.5419 6.5777 2.9283.8382.128 1.6909.128 2.5291 0h.2107l-.0666-.3771c0-.0555-1.1092-6.3559-2.9061-12.8116-2.396-8.7184-4.7919-13.5547-7.1101-14.4198-.1398-.0526-.2849-.0898-.4326-.111-.1876-.0278-.3782-.0278-.5658 0-1.0426.1664-2.0409 1.1758-2.9948 3.0171" fill="#fff"/><g mask="url(#b)"><path d="m67.0648 19.6192-2.098 31.4208 19.9991 1.3354 2.098-31.4209z" fill="#fff" stroke="#141a2a" stroke-linecap="round" stroke-linejoin="round" stroke-width=".505785"/></g><path d="m71.1083 24.5831c-2.0103 3.677-2.591 7.9671-1.6306 12.0462.977 3.8798 3.2363 7.3156 6.4113 9.7501 1.9 1.5325 4.1675 2.5419 6.5777 2.9283.8382.128 1.6909.128 2.5291 0h.2107l-.0666-.3771c0-.0555-1.1092-6.3559-2.9061-12.8116-2.396-8.7184-4.7919-13.5547-7.1101-14.4198-.1398-.0526-.2849-.0898-.4326-.111-.1876-.0278-.3782-.0278-.5658 0-1.0426.1664-2.0409 1.1758-2.9948 3.0171" stroke="#141a2a" stroke-linecap="round" stroke-linejoin="round" stroke-width=".505785"/><path d="m72.1953 25.2158c-1.8499 3.3859-2.3907 7.3336-1.5197 11.0922.9159 3.5871 3.0096 6.7627 5.9455 9.018 1.727 1.3971 3.7871 2.322 5.9787 2.6843l.5214.0555c.1958.0111.392.0111.5878 0-.3993-2.041-1.3643-6.8217-2.6954-11.6468-3.0947-11.2697-5.4463-13.1998-6.3115-13.4993-.0599-.0271-.1234-.0458-.1885-.0554h-.2219c-.61.1109-1.3643.9428-2.0964 2.3515z" fill="#9ee705"/><g mask="url(#c)"><path d="m68.4935 21.3021-1.8822 28.1891 16.9003 1.1284 1.8822-28.1891z" fill="#9ee705" stroke="#0f1830" stroke-linecap="round" stroke-linejoin="round" stroke-width=".505785"/></g><path d="m72.1953 25.2158c-1.8499 3.3859-2.3907 7.3336-1.5197 11.0922.9159 3.5871 3.0096 6.7627 5.9455 9.018 1.727 1.3971 3.7871 2.322 5.9787 2.6843l.5214.0555c.1958.0111.392.0111.5878 0-.3993-2.041-1.3643-6.8217-2.6954-11.6468-3.0947-11.2697-5.4463-13.1998-6.3115-13.4993-.0599-.0271-.1234-.0458-.1885-.0554h-.2219c-.61.1109-1.3643.9428-2.0964 2.3515z" stroke="#0f1830" stroke-linecap="round" stroke-linejoin="round" stroke-width=".505785"/><path d="m74.7009 21.5557c.1478.0212.2928.0584.4326.1109 2.3183.8208 4.7142 5.657 7.1101 14.4199 1.7747 6.4557 2.8951 12.7561 2.9061 12.8115l.0666.3772 14.4199.61-.0666-.3771c0-.0666-1.1092-6.3669-2.9061-12.8115-2.3959-8.7185-4.7918-13.5658-7.1101-14.4199-.1401-.049-.2852-.0825-.4326-.0998h-.1775l-14.4199-.599h.1775" fill="#c9f67e"/><path d="m74.7009 21.5557c.1478.0212.2928.0584.4326.1109 2.3183.8208 4.7142 5.657 7.1101 14.4199 1.7747 6.4557 2.8951 12.7561 2.9061 12.8115l.0666.3772 14.4199.61-.0666-.3771c0-.0666-1.1092-6.3669-2.9061-12.8115-2.3959-8.7185-4.7918-13.5658-7.1101-14.4199-.1401-.049-.2852-.0825-.4326-.0998h-.1775l-14.4199-.599h.1775" stroke="#0f1830" stroke-linecap="round" stroke-linejoin="round" stroke-width=".505785"/><path d="m124.284 22.9416c-2.352.6988-4.992 5.4019-7.842 13.9873-2.108 6.3558-3.561 12.5896-3.572 12.6451l-.089.3771.222.0555c.826.1818 1.676.2341 2.518.1553 2.405-.2693 4.699-1.16 6.655-2.5845 3.304-2.2608 5.741-5.5778 6.911-9.4062 1.167-4.023.812-8.3351-.998-12.1127-1.021-2.2184-2.163-3.3277-3.406-3.2057h-.166c-.094.017-.186.0392-.278.0666" fill="#fff"/><g mask="url(#d)"><path d="m132.432 22.0981-23.735.3521.421 28.3375 23.734-.3521z" fill="#fff" stroke="#141a2a" stroke-linecap="round" stroke-linejoin="round" stroke-width=".505785"/></g><path d="m124.284 22.9416c-2.352.6988-4.992 5.4019-7.842 13.9873-2.108 6.3558-3.561 12.5896-3.572 12.6451l-.089.3771.222.0555c.826.1818 1.676.2341 2.518.1553 2.405-.2693 4.699-1.16 6.655-2.5845 3.304-2.2608 5.741-5.5778 6.911-9.4062 1.167-4.023.812-8.3351-.998-12.1127-1.021-2.2184-2.163-3.3277-3.406-3.2057h-.166c-.094.017-.186.0392-.278.0666" stroke="#141a2a" stroke-linecap="round" stroke-linejoin="round" stroke-width=".505785"/><path d="m124.616 24.2061c-.876.2662-3.328 2.0742-6.999 13.1553-1.575 4.7586-2.784 9.4839-3.328 11.5027h.577.521c2.208-.2502 4.314-1.068 6.112-2.3738 3.054-2.0929 5.31-5.158 6.4-8.6963 1.055-3.6881.719-7.635-.943-11.0922-.721-1.5751-1.497-2.4736-2.129-2.4625h-.122-.133" fill="#9ee705"/><g mask="url(#e)"><path d="m130.977 23.6165-20.385.3024.375 25.2765 20.385-.3025z" fill="#9ee705" stroke="#0f1830" stroke-linecap="round" stroke-linejoin="round" stroke-width=".505785"/></g><path d="m124.616 24.2061c-.876.2662-3.328 2.0742-6.999 13.1553-1.575 4.7586-2.784 9.4839-3.328 11.5027h.577.521c2.208-.2502 4.314-1.068 6.112-2.3738 3.054-2.0929 5.31-5.158 6.4-8.6963 1.055-3.6881.719-7.635-.943-11.0922-.721-1.5751-1.497-2.4736-2.129-2.4625h-.122-.133" stroke="#0f1830" stroke-linecap="round" stroke-linejoin="round" stroke-width=".505785"/><path d="m109.863 22.7977c-2.352.6989-4.992 5.4019-7.843 13.9873-2.1071 6.3559-3.5491 12.5897-3.5713 12.6452l-.0776.3771 14.4199.1442.089-.3771s1.464-6.2893 3.571-12.6452c2.851-8.5854 5.547-13.3107 7.843-13.9873.144-.0455.293-.0752.443-.0887h.178l-14.42-.1442h-.178-.166c-.094.0169-.186.0391-.277.0665" fill="#c9f67e"/><path d="m109.863 22.7977c-2.352.6989-4.992 5.4019-7.843 13.9873-2.1071 6.3559-3.5491 12.5897-3.5713 12.6452l-.0776.3771 14.4199.1442.089-.3771s1.464-6.2893 3.571-12.6452c2.851-8.5854 5.547-13.3107 7.843-13.9873.144-.0455.293-.0752.443-.0887h.178l-14.42-.1442h-.178-.166c-.094.0169-.186.0391-.277.0665" stroke="#0f1830" stroke-linecap="round" stroke-linejoin="round" stroke-width=".505785"/><path d="m76.5425 49.5634c-1.0065.0368-2.0144.0072-3.017-.0887l15.7287 3.494c3.475.147 6.938-.4978 10.1272-1.8856-1.1757-2.5623-8.8737-18.7681-15.5291-19.966l-16.239-2.873z" fill="#9ee705" stroke="#0f1830" stroke-linecap="round" stroke-linejoin="round" stroke-width=".505785"/><path d="m91.3414 51.815c-.4992 0-1.0094 0-1.5086-.0887-.7455-.0658-1.4864-.1769-2.2184-.3328-4.2372-.8652-7.4318-2.8618-9.0069-5.6238-1.5751-2.7619-1.4309-6.4556.5435-10.4599 1.1092-2.2961 2.4403-3.5052 3.8712-3.5939h.2662.233c1.808.1664 4.9804 1.9744 9.7722 9.5615 1.8994 3.0465 3.618 6.2022 5.1468 9.4506-1.0222.3686-2.077.6397-3.1502.8097-1.3124.2126-2.642.3018-3.971.2662m-13.2885-17.0266c-2.2185 4.4369-2.3405 8.419-.5103 11.6358 1.8302 3.2167 5.2578 5.291 9.861 6.2338.7664.157 1.5401.2755 2.3183.355 3.4431.3629 6.9224-.1325 10.1273-1.442l.31-.1331-.1548-.3328c-1.6479-3.5982-3.5226-7.0882-5.6127-10.4489-4.0708-6.4445-7.6758-9.8609-10.715-10.1493-.2327-.0165-.4662-.0165-.6989 0h-.4104c-1.7414.2884-3.2611 1.7192-4.5145 4.2483" fill="#fff"/><g mask="url(#f)"><path d="m83.6409 18.7726-19.9514 26.66 26.6955 19.9781 19.951-26.66z" fill="#fff" stroke="#141a2a" stroke-linecap="round" stroke-linejoin="round" stroke-width=".505785"/></g><path d="m91.3414 51.815c-.4992 0-1.0094 0-1.5086-.0887-.7455-.0658-1.4864-.1769-2.2184-.3328-4.2372-.8652-7.4318-2.8618-9.0069-5.6238-1.5751-2.7619-1.4309-6.4556.5435-10.4599 1.1092-2.2961 2.4403-3.5052 3.8712-3.5939h.2662.233c1.808.1664 4.9804 1.9744 9.7722 9.5615 1.8994 3.0465 3.618 6.2022 5.1468 9.4506-1.0222.3686-2.077.6397-3.1502.8097-1.3124.2126-2.642.3018-3.971.2662m-13.2885-17.0266c-2.2185 4.4369-2.3405 8.419-.5103 11.6358 1.8302 3.2167 5.2578 5.291 9.861 6.2338.7664.157 1.5401.2755 2.3183.355 3.4431.3629 6.9224-.1325 10.1272-1.442l.3101-.1331-.1548-.3328c-1.6479-3.5982-3.5226-7.0882-5.6127-10.4489-4.0708-6.4445-7.6758-9.8609-10.715-10.1493-.2327-.0165-.4662-.0165-.6989 0h-.4104c-1.7414.2884-3.2611 1.7192-4.5145 4.2483" stroke="#141a2a" stroke-linecap="round" stroke-linejoin="round" stroke-width=".505785"/><path d="m61.7793 31.8824c-2.2185 4.4369-2.3516 8.419-.5102 11.6246 1.8413 3.2057 5.2466 5.3021 9.8499 6.2449l.5657.0999 16.2389 2.884-.5657-.111c-4.6032-.9428-8.0972-3.1613-9.8609-6.2338s-1.686-7.1767.5324-11.6136c1.3422-2.2739 3.006-4.1706 4.925-4.2927.2326-.0164.4661-.0164.6988 0l.3771.0555-16.239-2.884h-.3772c-.2324-.0221-.4664-.0221-.6988 0-.1366-.0103-.2738-.0103-.4104 0-1.7415.2884-3.25 1.7082-4.5034 4.2484" fill="#c9f67e"/><path d="m61.7793 31.8824c-2.2185 4.4369-2.3516 8.419-.5102 11.6246 1.8413 3.2057 5.2466 5.3021 9.8499 6.2449l.5657.0999 16.2389 2.884-.5657-.111c-4.6032-.9428-8.0972-3.1613-9.8609-6.2338s-1.686-7.1767.5324-11.6136c1.3422-2.2739 3.006-4.1706 4.925-4.2927.2326-.0164.4661-.0164.6988 0l.3771.0555-16.239-2.884h-.3772c-.2324-.0221-.4664-.0221-.6988 0-.1366-.0103-.2738-.0103-.4104 0-1.7415.2884-3.25 1.7082-4.5034 4.2484" stroke="#0f1830" stroke-linecap="round" stroke-linejoin="round" stroke-width=".505785"/><path d="m98.5157 51.0607c3.1033 1.5461 6.5163 2.3691 9.9833 2.4071l15.884-2.6733c-1.003.0446-2.007.0224-3.006-.0665l9.983-20.8091-16.361 2.0299h-.189c-6.655 1.1093-15.0298 16.6384-16.3276 19.0787" fill="#9ee705"/><path d="m98.5157 51.0607c3.1033 1.5461 6.5163 2.3691 9.9833 2.4071l15.884-2.6733c-1.003.0446-2.007.0224-3.006-.0665l9.983-20.8091-16.361 2.0299h-.189c-6.655 1.1093-15.0298 16.6384-16.3276 19.0787" stroke="#0f1830" stroke-linecap="round" stroke-linejoin="round" stroke-width=".505785"/><path d="m115.321 31.2944c.233-.0166.466-.0166.699 0 1.908.2218 3.328 2.407 4.681 4.5478 1.941 4.5035 1.908 8.5299-.089 11.6469-1.996 3.1169-5.546 5.0136-10.16 5.7124l-.577.0777 16.372-2.0299.566-.0776c4.636-.7099 8.252-2.7398 10.16-5.7236s2.03-7.1323.1-11.6357c-1.209-2.7953-2.784-4.326-4.692-4.5479-.233-.0167-.466-.0167-.699 0h-.377l-16.361 2.0299z" fill="#c9f67e" stroke="#0f1830" stroke-linecap="round" stroke-linejoin="round" stroke-width=".505785"/><path d="m110.262 51.9814c-.735.1127-1.476.1868-2.218.2219-.5 0-1.01 0-1.52 0-2.416-.0461-4.804-.5348-7.0436-1.442 1.6936-3.1651 3.5716-6.2281 5.6236-9.1733 5.18-7.3319 8.441-8.9736 10.26-9.0512h.222.278c1.419.1663 2.662 1.4419 3.671 3.7935 1.764 4.1041 1.775 7.7645 0 10.4711-1.775 2.7065-4.892 4.4369-9.04 5.1135h-.255m-6.167-11.0922c-2.265 3.2496-4.3212 6.6395-6.1567 10.1493l-.1663.3328.2994.1442c3.1156 1.466 6.5446 2.1404 9.9826 1.9633.784-.0331 1.566-.1109 2.341-.2329 4.636-.6988 8.241-2.7287 10.16-5.7125s2.03-7.1434.089-11.6468c-1.198-2.7953-2.773-4.326-4.681-4.5479-.232-.0166-.466-.0166-.699 0-.193.0113-.386.0335-.576.0666-2.951.4769-6.523 3.6715-10.649 9.506" fill="#fff"/><g mask="url(#g)"><path d="m114.852 21.2112-27.102 18.1775 16.695 24.891 27.102-18.1775z" fill="#fff" stroke="#141a2a" stroke-linecap="round" stroke-linejoin="round" stroke-width=".505785"/></g><path d="m110.262 51.9814c-.735.1127-1.476.1868-2.218.2219-.5 0-1.01 0-1.52 0-2.416-.0461-4.804-.5348-7.0436-1.442 1.6936-3.1651 3.5716-6.2281 5.6236-9.1733 5.18-7.3319 8.441-8.9736 10.26-9.0512h.222.278c1.419.1663 2.662 1.4419 3.671 3.7935 1.764 4.1041 1.775 7.7645 0 10.4711-1.775 2.7065-4.892 4.4369-9.04 5.1135h-.255m-6.167-11.0922c-2.265 3.2496-4.3212 6.6395-6.1567 10.1493l-.1663.3328.2994.1442c3.1156 1.466 6.5446 2.1404 9.9826 1.9633.784-.0331 1.566-.1109 2.341-.2329 4.636-.6988 8.241-2.7287 10.16-5.7125s2.03-7.1434.089-11.6468c-1.198-2.7953-2.773-4.326-4.681-4.5479-.232-.0166-.466-.0166-.699 0-.193.0113-.386.0335-.576.0666-2.951.4769-6.523 3.6715-10.649 9.506" stroke="#141a2a" stroke-linecap="round" stroke-linejoin="round" stroke-width=".505785"/></g><path d="m133.792 115.403v-1.39c-.124.455-.124.935 0 1.39z" fill="#000" opacity=".5"/><path d="m87.4309 170.139c.6743.438 1.2354 1.029 1.6376 1.725.4021.696.634 1.477.6765 2.279v11.097c0 1.469-1.0505 2.061-2.322 1.326l-72.6579-41.96c-.6742-.437-1.2354-1.028-1.6375-1.724-.4022-.696-.634-1.477-.6764-2.28v-11.096c0-1.469 1.0503-2.061 2.3297-1.327z" fill="#9ee705" stroke="#0f1830" stroke-linecap="round" stroke-linejoin="round" stroke-width=".505785"/><path d="m93.9754 171.578c-.0036-.037-.0036-.074 0-.111 0-.039 0-.079 0-.118 0-.04 0-.071 0-.111.0039-.039.0039-.079 0-.118-.0038-.04-.0038-.079 0-.119.0036-.039.0036-.079 0-.118v-.119s0-.087 0-.126 0-.063 0-.095c-.0096-.043-.0228-.085-.0395-.126.0034-.04.0034-.079 0-.119 0 0 0-.071 0-.11l-.0473-.111v-.087c-.0553-.118-.0553-.118-.1106-.237l-.0711-.142-.079-.142c-.0553-.095-.1106-.189-.1737-.276-.0401-.073-.0877-.142-.1421-.206l-.1027-.134c-.0314-.035-.0604-.072-.0869-.11l-.0948-.103-.0869-.103-.071-.071-.1027-.102-.0948-.095c-.0377-.025-.0722-.054-.1027-.087l-.0552-.04-.1027-.071-.1026-.071-.0948-.071-.1027-.055-72.6579-41.952-.0711-.04-.0948-.055-.0948-.039-.0947-.04h-.0948-.0711-.0947-.0948-.1027-.3317-.1342l-.1501.04c-.0659.022-.1294.051-.1895.086l-4.2331 2.464c.1048-.061.2199-.104.3396-.126.1282-.02.2588-.02.387 0 .1454.014.2886.046.4264.095.1604.059.3162.131.466.213l72.7448 42.007c.1263.087.2606.166.3869.269.1517.124.2942.258.4265.403.1394.146.2687.302.387.466.1185.166.2369.339.3396.513.103.176.1953.358.2764.545.0874.183.1587.373.2132.569.056.186.1008.376.1343.568.0312.188.047.378.0473.569v11.096c.0015.167-.0143.334-.0473.498-.0241.141-.0666.279-.1264.41-.0485.098-.1067.191-.1737.277l-.0631.079c-.075.079-.16.148-.2528.205l4.2331-2.456c.0948-.058.1801-.13.2528-.213l.0631-.079c.0331-.031.0622-.065.0869-.103.0336-.05.0626-.103.0868-.158l.0475-.119c.0033-.039.0033-.079 0-.118.0035-.039.0035-.079 0-.118.0038-.019.0038-.038 0-.056 0 0 0 0 0-.047.0043-.037.0043-.074 0-.111 0 0 0-.071 0-.11v-.111c.0042-.037.0042-.074 0-.11v-11.096z" fill="#fff" stroke="#141a2a" stroke-linecap="round" stroke-linejoin="round" stroke-width=".505785"/><path d="m84.1522 174.295-.0158 6.61-69.0329-39.859.0158-6.61z" fill="#66de8c" stroke="#0f1830" stroke-linecap="round" stroke-linejoin="round" stroke-width=".505785"/><path d="m84.1545 174.294 1.6901-.98-.0158 6.611-1.6901.979z" fill="#fff" stroke="#141a2a" stroke-linecap="round" stroke-linejoin="round" stroke-width=".505785"/><path d="m15.1211 134.435 1.6901-.979 69.0329 39.859-1.6901.979z" fill="#fff" stroke="#141a2a" stroke-linecap="round" stroke-linejoin="round" stroke-width=".505785"/><path d="m83.135 174.997.0158 4.32-67.2875-38.896.0079-4.257z" fill="#000" stroke="#000" stroke-linecap="round" stroke-linejoin="round" stroke-width=".505785"/><path d="m5.98171 172.423-.20535.094-.15791.048h-.19744-.26849-.22116l-.23697-.063c-.08685-.028-.17133-.062-.25268-.103l-.26849-.134-.8451.489.08687.048.11057.063h.06315.03953l.11058.047.10267.04h.07105.11058.04743.06315.11057.38698.15001l.15801-.04c.0719-.023.14082-.055.20534-.095z" fill="#fff" stroke="#141a2a" stroke-linecap="round" stroke-linejoin="round" stroke-width=".505785"/><path d="m56.0536 203.215v10.101c.0015.159-.0143.318-.0473.474-.0278.132-.0674.262-.1185.387-.046.09-.1016.175-.1659.253-.0139.027-.0326.051-.0552.071-.0675.078-.1476.145-.237.197l.8451-.489c.0877-.055.1673-.121.2369-.198l.0632-.071c.0282-.033.0546-.067.079-.103l.0789-.142.0474-.11s0-.079 0-.119c.0046-.037.0046-.074 0-.11.0037-.016.0037-.032 0-.048-.0037-.015-.0037-.032 0-.047 0 0 0-.071 0-.103 0-.031 0-.071 0-.11 0-.04 0-.064 0-.103v-.103-10.101z" fill="#fff" stroke="#141a2a" stroke-linecap="round" stroke-linejoin="round" stroke-width=".505785"/><path d="m56.3533 202.354c-.1701-.142-.331-.295-.4817-.458-.3037-.347-.5685-.725-.7898-1.13-.1168-.2-.2197-.409-.308-.623-.0941-.21-.1733-.427-.237-.648-.0641-.215-.1142-.434-.15-.656-.0337-.211-.0522-.425-.0553-.639.0047-.193.0233-.386.0553-.577.0297-.161.0801-.318.15-.466.0528-.11.1191-.214.1975-.308l.079-.095c.0844-.093.183-.173.2922-.236l-.853.489c-.1053.066-.201.145-.2843.237l-.0789.095-.0948.118-.1027.182s.0001.087-.0631.134l-.0474.142v.135c-.0039.018-.0039.037 0 .055v.055.135.126c-.0042.042-.0042.084 0 .126-.0042.042-.0042.085 0 .127v.118c.0036.042.0036.084 0 .126v.135.126.134.127.142c.0028.045.0028.089 0 .134v.142.111l.0474.142.0473.134.0475.127c.0135.044.032.086.0552.126-.0045.034-.0045.069 0 .103l.0631.126.0633.134.0868.166.0948.166c.0632.111.1343.213.1975.316l.1737.237.1185.158.0947.126.1027.119.1106.118.0789.087.1185.11c.0349.039.0718.076.1106.111l.1185.103.0631.047v.04l.1185.086.1185.087.1105.071.1105.071.8451-.489c-.1113-.074-.2194-.153-.3238-.237z" fill="#fff" stroke="#141a2a" stroke-linecap="round" stroke-linejoin="round" stroke-width=".505785"/><path d="m56.9449 186.409c-.0036-.034-.0036-.069 0-.103 0-.039 0-.071 0-.11 0-.04 0-.071 0-.103.0038-.037.0038-.074 0-.111.0038-.034.0038-.068 0-.102v-.111-.118c0-.04 0-.071 0-.111.0034-.031.0034-.063 0-.095v-.11-.111c.0033-.037.0033-.074 0-.11 0 0 0-.071-.0395-.103v-.087l-.0474-.11-.0553-.111-.0711-.134c-.0232-.049-.0496-.097-.0789-.142l-.1658-.261-.1343-.198-.1027-.126-.079-.103-.0868-.102-.0869-.095-.0632-.063-.0948-.095-.0948-.087-.0947-.087-.0474-.039-.0947-.071-.0948-.071-.0869-.064-.0948-.055-48.3649-27.926-.07895-.047h-.06315l-.09477-.04-.08686-.047h-.08696l-.08686-.039h-.06314-.09477-.08686-.09477-.31592-.12639l-.14211.039-.17382.079-.8529.49c.10128-.056.2105-.096.32383-.119.12055-.016.24271-.016.36326 0 .13747.011.27289.041.40278.087.18303.07.36004.154.52917.253l48.35699 27.918c.1514.09.2965.19.4343.3.1437.116.2783.243.4028.379.263.279.491.59.6792.924.0947.166.1817.332.2606.505.0762.173.1421.349.1975.53.0525.176.0947.355.1264.537.0329.174.0461.351.0394.529v10.109l.8451-.498v-10.109z" fill="#fff" stroke="#141a2a" stroke-linecap="round" stroke-linejoin="round" stroke-width=".505785"/><path d="m53.9208 183.235c.6365.409 1.1657.965 1.5435 1.62s.5934 1.392.6284 2.147v10.109c-1.469-.853-2.6615-.174-2.6694 1.517.0494.919.3155 1.815.7766 2.612.4612.797 1.1043 1.475 1.877 1.976v10.101c0 1.39-.9873 1.943-2.1877 1.248l-48.44383-27.973c-.63685-.408-1.16707-.961-1.54626-1.615s-.59636-1.39-.63349-2.145v-10.109c1.46896.853 2.6694.174 2.6694-1.516-.04877-.92-.31467-1.815-.77588-2.613-.46121-.797-1.10463-1.474-1.8777-1.975v-10.109c0-1.382.98711-1.935 2.18755-1.24z" fill="#fff" stroke="#141a2a" stroke-linecap="round" stroke-linejoin="round" stroke-width=".505785"/><path d="m22.3458 142.751v.947c-.0253-.338-.1413-.663-.3359-.941-.1945-.278-.4604-.498-.7697-.638v-.979c.3148.14.5847.365.7798.649.1951.285.3078.617.3258.962z" fill="#fff"/><g mask="url(#h)"><path d="m22.3458 142.751v.947c-.0253-.338-.1413-.663-.3359-.941-.1945-.278-.4604-.498-.7697-.638v-.979c.3103.138.5771.358.7719.636.1947.278.3101.604.3337.943" fill="#fff"/><path d="m22.3458 142.751v.947c-.0253-.338-.1413-.663-.3359-.941-.1945-.278-.4604-.498-.7697-.638v-.979c.3103.138.5771.358.7719.636.1947.278.3101.604.3337.943" stroke="#141a2a" stroke-linecap="round" stroke-linejoin="round" stroke-width=".505785"/></g><g stroke-width=".505785"><path d="m22.3458 142.751v.947c-.0253-.338-.1413-.663-.3359-.941-.1945-.278-.4604-.498-.7697-.638v-.979c.3148.14.5847.365.7798.649.1951.285.3078.617.3258.962z" stroke="#141a2a" stroke-linecap="round" stroke-linejoin="round"/><path d="m75.4981 170.851.8371.489-2.2903 1.335.0079-.979z" fill="#fff" stroke="#141a2a" stroke-linecap="round" stroke-linejoin="round"/><path d="m69.78 172.257.3711-.087c.1512-.035.3042-.061.4582-.079h.1105c.2053 0 .4186 0 .6318-.039h.1027c.2059.001.4116.014.616.039h.0948c.202.021.4025.056.6002.103h.1106l.5211.158h.0869c.1986.075.3914.164.5766.268v-.979c-.172-.099-.3516-.183-.5371-.253h-.0947l-.3318-.11-.1895-.048h-.1027-.0947l-.3712-.063h-.1421-.087-.1342-.3711-.3871-.4106-.0474-.1185l-.3159.039-.1342.04-.3791.087-.1974.055-.1501.055-.15.056c-.1804.07-.3548.154-.5213.252h-.0474c-.1414.088-.276.185-.4027.293-.085.075-.1642.157-.237.244v.064.055l-.0711.11c-.0394.065-.0712.134-.0947.206v.039c-.0168.044-.0301.089-.0395.135-.0078.07-.0078.142 0 .213v1.011c.0017-.129.023-.257.0631-.379-.0008-.014-.0008-.027 0-.04.0446-.126.1058-.245.1817-.355v-.056c.0895-.124.1928-.238.3079-.339.1367-.12.2849-.226.4424-.316.17-.097.3469-.181.5291-.253l.1421-.055z" fill="#fff" stroke="#141a2a" stroke-linecap="round" stroke-linejoin="round"/><path d="m60.0278 179.838c-.1939.108-.3975.198-.6081.269l-.2291.071-.308.071c-.1249.029-.2515.05-.3791.063h-.0868-.5134-.0869c-.1658 0-.3396 0-.5054 0h-.079c-.1646-.021-.328-.05-.4896-.087h-.0869l-.4265-.134h-.079c-.1617-.059-.3177-.133-.4659-.221l-48.48335-27.997c-.24172-.111-.4496-.285-.60225-.503-.15266-.218-.24458-.472-.26647-.737v.963c.02001.251.10287.492.24092.702s.32683.381.54884.499l.07896.047 48.48335 27.973.0711.04c.1189.07.2429.131.3711.182h.0712l.2764.094.15.04h.0868.0791c.1027 0 .2052.039.3079.047h.1106.0711.1184.3001.316.3396.0869.2685.1105l.3081-.071c.0536-.012.1064-.028.1579-.047h.0711c.2082-.071.4091-.16.6002-.269l8.7426-5.078v-.979z" fill="#fff" stroke="#141a2a" stroke-linecap="round" stroke-linejoin="round"/><path d="m22.9093 140.24 52.5901 30.611-1.4452.845c-.1737-.102-.3561-.189-.545-.26l-.2843-.103-.1738-.055-.1895-.048c-.0341-.004-.0686-.004-.1027 0l-.3159-.063-.2764-.039c-.1466-.021-.2943-.034-.4423-.04h-.6871-.3474l-.3555.048h-.1105c-.2224.038-.4416.094-.6555.165l-.1579.056c-.1415.046-.2789.104-.4107.174-.0874.038-.1719.083-.2528.134-.0553.027-.1082.058-.1579.095-.1241.081-.2428.171-.3554.268-.0461.041-.0884.086-.1264.134l-.0789.079c-.0228.023-.0415.05-.0553.079-.012.007-.0224.016-.0306.027s-.0139.023-.0168.036l-.0789.127c-.0217.038-.0403.077-.0554.118-.0283.069-.0494.14-.0631.214-.0044.034-.0044.068 0 .102-.004.05-.004.1 0 .15-.0038.168.0285.335.0947.49.2081.455.5646.825 1.011 1.05l-8.7348 5.078c-.0961.056-.1965.103-.3001.143-.3927.162-.8037.276-1.2241.339h-.0791c-.3439.036-.6906.036-1.0345 0h-.1501c-.1673-.02-.3334-.049-.4976-.087-.1028-.014-.2036-.04-.3001-.079-.0939-.023-.1862-.052-.2764-.087-.1656-.065-.3266-.141-.4817-.229l-48.44384-27.973c-1.20834-.687-1.21623-1.816 0-2.511l8.73464-5.078c.8199.42 1.7282.64 2.6497.64s1.8298-.22 2.6497-.64c1.4611-.853 1.4532-2.228 0-3.073z" fill="#fff" stroke="#141a2a" stroke-linecap="round" stroke-linejoin="round"/><path d="m47.8972 175.393v.537l-.6714.394c-.1608.103-.2948.243-.391.407-.0961.165-.1515.351-.1617.541v1.074l-.4739.277v-1.074c.0196-.354.122-.699.299-1.006.1769-.307.4235-.569.7198-.763z" fill="#9ee705" stroke="#0f1830" stroke-linecap="round" stroke-linejoin="round"/><path d="m46.22 177.28c0-.079 0-.15.0553-.229.0242-.083.0532-.165.0868-.245.0395-.079.079-.158.1264-.237l.1421-.221c.0457-.064.0959-.124.1501-.181l.0711-.071c.0948-.089.1979-.168.308-.237l.6792-.387-.9398-.545-.6713.387c-.1139.066-.2199.146-.3159.237v.047.04l-.0868.102v.04l-.0633.087-.0473.086-.0475.072c.003.028.003.058 0 .086v.079c-.0165.03-.0296.062-.0394.095-.0034.032-.0034.063 0 .095-.0034.016-.0034.032 0 .047v.063c-.0026.037-.0026.074 0 .111v.071.04c-.0036.068-.0036.137 0 .205v1.066l.9398.553v-1.074c0-.079 0-.158 0-.237z" fill="#9ee705" stroke="#0f1830" stroke-linecap="round" stroke-linejoin="round"/><path d="m16.8659 157.504v.537l-.6713.387c-.1606.105-.2942.246-.3903.412-.096.166-.1517.352-.1626.544v1.074l-.4659.268v-1.066c.0192-.355.1223-.7.3008-1.008.1784-.307.4272-.568.7259-.761z" fill="#9ee705" stroke="#0f1830" stroke-linecap="round" stroke-linejoin="round"/><path d="m15.1702 159.384c0-.071.0001-.142.0554-.221.0241-.084.0531-.165.0868-.245 0-.079.0789-.158.1263-.237l.1422-.221c.0457-.064.0959-.125.1501-.182l.0711-.071c.0959-.091.2019-.17.3159-.237l.6713-.387-.9399-.553-.6713.395c-.1139.067-.2199.146-.3159.237v.04l-.0394.039-.079.103v.039.04l-.0632.087-.0474.086c-.0026.024-.0026.048 0 .072l-.0474.086-.0394.079v.095c-.0034.032-.0034.063 0 .095-.0034.016-.0034.032 0 .047v.063c-.0046.037-.0046.074 0 .111v.071.04c-.0039.068-.0039.137 0 .205v1.066l.9397.545v-1.066c-.0077-.079-.0077-.158 0-.237z" fill="#9ee705" stroke="#0f1830" stroke-linecap="round" stroke-linejoin="round"/><path d="m17.9571 172.802c1.0619.612 1.9486 1.488 2.5751 2.541.6265 1.054.9717 2.251 1.0025 3.477.0337.475-.0688.951-.2954 1.37-.2265.42-.5678.766-.984.999l-3.3091 2.504 4.5648 2.637v2.228l-7.1868-4.147v-2.235l4.4306-3.34c.207-.142.373-.335.4812-.561s.1547-.477.1348-.727c.0074-.509-.1202-1.011-.3699-1.455s-.6126-.814-1.0517-1.072c-.7108-.411-1.4452-.419-1.4531.9l-2.1482-1.24c0-2.471 1.5795-3.056 3.6092-1.879z" fill="#000" stroke="#000" stroke-linecap="round" stroke-linejoin="round"/><path d="m29.5008 179.57v2.235l-4.7386-2.756v2.914c.3028-.079.6195-.09.927-.031.3074.059.5978.185.85.371.9149.525 1.675 1.282 2.2035 2.195.7482 1.282 1.1128 2.751 1.0503 4.234 0 1.532-.1895 2.487-1.0503 2.985-.5371.3-1.3822.308-2.6142-.403-1.0854-.632-1.9928-1.529-2.6378-2.606-.5884-1.033-.9163-2.193-.9555-3.38l2.1639 1.247c.0083.505.1446 1 .3959 1.438.2514.437.6097.804 1.0414 1.066.1413.116.3107.192.491.221s.3652.01.5357-.055c.387-.221.4739-.9.4739-1.761 0-1.58-.395-2.67-1.4374-3.278-.8767-.505-1.2794-.166-1.4295.284l-1.9744-1.137v-7.676z" fill="#000" stroke="#000" stroke-linecap="round" stroke-linejoin="round"/><path d="m35.4109 187.38c0 1.722-1.1214 1.975-2.4166 1.224-.7059-.407-1.2949-.989-1.71-1.691-.415-.701-.6421-1.498-.6593-2.313v-1.887c0-1.722 1.0978-1.982 2.3693-1.224.7059.407 1.2948.99 1.7098 1.691.4151.701.6422 1.498.6595 2.313zm-1.5795-.979v-1.73c.0167-.315-.0531-.629-.2021-.907-.149-.279-.3713-.511-.6429-.672-.545-.316-.8451-.126-.8451.6v1.73c-.0203.315.0473.629.1951.908s.3701.511.6421.671c.537.308.8529.134.8529-.6z" fill="#000" stroke="#000" stroke-linecap="round" stroke-linejoin="round"/><path d="m38.7404 184.908 1.6979.98-5.6389 10.353-1.69-.979z" fill="#000" stroke="#000" stroke-linecap="round" stroke-linejoin="round"/></g><path d="m40.5597 192.538c.7028.41 1.2894.994 1.7039 1.694.4146.701.6436 1.496.6653 2.31v1.887c0 1.714-1.1215 1.975-2.4167 1.224-.7033-.41-1.2902-.993-1.7048-1.694-.4147-.701-.6434-1.496-.6644-2.31v-1.887c-.0237-1.714 1.0741-1.983 2.4167-1.224zm.8372 4.92v-1.738c.0167-.315-.0532-.629-.2022-.907-.149-.279-.3713-.511-.6429-.672-.545-.316-.845-.127-.845.6v1.738c-.0221.315.0446.63.1926.909s.3712.511.6445.67c.537.308.853.134.853-.592" fill="#000"/><path d="m41.3969 197.458v-1.738c.0167-.315-.0532-.629-.2022-.907-.149-.279-.3713-.511-.6429-.672-.545-.316-.845-.127-.845.6v1.738c-.0221.315.0446.63.1926.909s.3712.511.6445.67c.537.308.853.134.853-.592m-.8372-4.928c.7028.41 1.2894.994 1.7039 1.694.4146.701.6436 1.496.6653 2.31v1.887c0 1.714-1.1215 1.975-2.4167 1.224-.7033-.41-1.2902-.993-1.7048-1.694-.4147-.701-.6434-1.496-.6644-2.31v-1.887c-.0237-1.714 1.0741-1.983 2.4167-1.224z" stroke="#000" stroke-linecap="round" stroke-linejoin="round" stroke-width=".505785"/><g style="mask:url(#i);fill:#000;stroke:#000;stroke-width:.505785;stroke-linecap:round;stroke-linejoin:round"><path d="m40.6858 148.175c2.0929 1.209 2.2903 2.828.1738 4.052-1.1294.663-2.1956.79-3.9488.837l-7.1079.308 4.5649 2.638-1.9271 1.121-7.1868-4.154 1.9271-1.121 9.4771-.411c.706.019 1.4049-.144 2.0296-.474.8767-.505.9556-1.145 0-1.674-.4483-.262-.9594-.396-1.4784-.389-.5189.007-1.0262.155-1.4674.428l-2.156-1.247c1.092-.595 2.3182-.899 3.5613-.883 1.243.015 2.4615.349 3.5386.969z"/><path d="m52.1392 154.897-1.935 1.121-4.7386-2.764-2.5351 1.5c.8321.038 1.6436.271 2.3693.68.9793.568 1.4137 1.176 1.4137 1.737 0 1.066-.9635 1.793-2.0612 2.433-1.2375.797-2.6819 1.215-4.1542 1.2-1.2494-.002-2.4768-.328-3.5618-.948-1.232-.711-1.698-1.477-1.698-2.077 0-.837.6871-1.437 1.4768-1.974l2.1561 1.248c-.7898.6-.9004 1.161 0 1.682.4266.248.9123.376 1.4058.371.7946-.06 1.5584-.333 2.2112-.79 1.3505-.79 1.706-1.453.6635-2.061-.356-.203-.7496-.332-1.157-.378-.4073-.046-.8198-.009-1.2123.109l-1.9823-1.137 6.634-3.854z"/><path d="m54.2619 160.519c-.7188.385-1.5238.58-2.339.568s-1.6138-.232-2.3206-.639c-1.3189-.79-1.6347-1.84-.15-2.709l1.6348-.947c.7198-.387 1.5269-.583 2.3441-.57.8172.014 1.6171.237 2.3234.649 1.2952.75 1.6269 1.832.1422 2.701zm-1.4847-.939 1.4926-.869c.6239-.363.6239-.727.0948-1.035-.2733-.157-.585-.235-.9002-.226-.3153.01-.6217.107-.8847.281l-1.5005.869c-.6318.371-.6318.735-.0948 1.043.2766.152.5894.227.9052.216.3157-.011.6224-.108.8876-.279z"/><path d="m61.3861 160.235 1.6901.972-17.3432 3.601-1.69-.979z"/><path d="m57.4994 164.587c1.2952.751 1.6348 1.841.1501 2.701l-1.6349.948c-.7198.386-1.5262.582-2.3429.57-.8168-.012-1.6168-.233-2.3245-.641-1.3189-.79-1.6348-1.84-.1422-2.709l1.627-.948c.7198-.387 1.5268-.583 2.344-.569s1.6171.237 2.3234.648zm-2.9852 2.709 1.5083-.868c.6239-.364.6239-.727.0948-1.035-.2745-.158-.5876-.237-.9042-.227s-.6243.108-.8885.282l-1.5005.877c-.6239.363-.6397.719-.0948 1.035.2751.152.5867.227.9012.216s.6201-.108.8837-.28z"/></g><path d="m20.6713 138.937 56.0019 32.332-2.6299 1.406.0079-.979-54.9594-31.741z" fill="#000" opacity=".5"/><path d="m74.1154 174.16-.9003.442v3.783l-4.4543-2.645v-.98s-.9081-.553-1.0108-1.05c.1657-.329.3992-.618.6851-.85.2859-.231.6176-.399.9734-.493l1.1846-.276z" fill="#000" opacity=".5"/><path d="m115.141 5.55138c1.411 0 2.555-1.14391 2.555-2.55499s-1.144-2.554984-2.555-2.554984-2.555 1.143904-2.555 2.554984 1.144 2.55499 2.555 2.55499z" fill="#66de8c" stroke="#0f1830" stroke-linecap="round" stroke-linejoin="round" stroke-width=".58599"/><path d="m27.723 85.485c1.411 0 2.5549-1.1439 2.5549-2.555s-1.1439-2.555-2.5549-2.555c-1.4111 0-2.555 1.1439-2.555 2.555s1.1439 2.555 2.555 2.555z" fill="#66de8c" stroke="#0f1830" stroke-linecap="round" stroke-linejoin="round" stroke-width=".58599"/></svg>