<?xml version="1.0" encoding="UTF-8"?>
<svg width="70px" height="72px" viewBox="0 0 70 72" version="1.1" xmlns="http://www.w3.org/2000/svg" xmlns:xlink="http://www.w3.org/1999/xlink">
    <title>英文</title>
    <defs>
        <rect id="path-1" x="0" y="0" width="70" height="72"></rect>
        <filter x="-14.0%" y="-14.8%" width="128.1%" height="129.6%" filterUnits="objectBoundingBox" id="filter-3">
            <feOffset dx="0" dy="2" in="SourceAlpha" result="shadowOffsetOuter1"></feOffset>
            <feGaussianBlur stdDeviation="1" in="shadowOffsetOuter1" result="shadowBlurOuter1"></feGaussianBlur>
            <feColorMatrix values="0 0 0 0 0.636265851   0 0 0 0 0.179674557   0 0 0 0 0.0589346094  0 0 0 0.823617788 0" type="matrix" in="shadowBlurOuter1" result="shadowMatrixOuter1"></feColorMatrix>
            <feMerge>
                <feMergeNode in="shadowMatrixOuter1"></feMergeNode>
                <feMergeNode in="SourceGraphic"></feMergeNode>
            </feMerge>
        </filter>
        <linearGradient x1="100%" y1="8.31788632%" x2="25.2607593%" y2="91.6821137%" id="linearGradient-4">
            <stop stop-color="#F8F18B" offset="0%"></stop>
            <stop stop-color="#FFC02C" offset="100%"></stop>
        </linearGradient>
        <path d="M5.46266021,6.21637612 L51.4626602,6.70844859 L51.462829,11.7950827 C50.6001298,12.0725361 49.9626602,13.0514005 49.9626602,14.2163761 C49.9626602,15.3813518 50.6001298,16.3602162 51.462829,16.6376695 L51.462829,21.7950827 C50.6001298,22.0725361 49.9626602,23.0514005 49.9626602,24.2163761 C49.9626602,25.3813518 50.6001298,26.3602162 51.462829,26.6376695 L51.462829,30.7950827 C50.6001298,31.0725361 49.9626602,32.0514005 49.9626602,33.2163761 C49.9626602,34.3813518 50.6001298,35.3602162 51.462829,35.6376695 L51.462829,40.7950827 C50.6001298,41.0725361 49.9626602,42.0514005 49.9626602,43.2163761 C49.9626602,44.3813518 50.6001298,45.3602162 51.462829,45.6376695 L51.4626602,48.2163761 L5.46266021,47.7243036 L5.46266021,6.21637612 Z" id="path-5"></path>
        <filter x="-32.0%" y="-42.1%" width="164.0%" height="184.2%" filterUnits="objectBoundingBox" id="filter-7">
            <feOffset dx="0" dy="2" in="SourceAlpha" result="shadowOffsetOuter1"></feOffset>
            <feGaussianBlur stdDeviation="3" in="shadowOffsetOuter1" result="shadowBlurOuter1"></feGaussianBlur>
            <feColorMatrix values="0 0 0 0 0.614470109   0 0 0 0 0.244148832   0 0 0 0 0.244148832  0 0 0 0.32 0" type="matrix" in="shadowBlurOuter1" result="shadowMatrixOuter1"></feColorMatrix>
            <feMerge>
                <feMergeNode in="shadowMatrixOuter1"></feMergeNode>
                <feMergeNode in="SourceGraphic"></feMergeNode>
            </feMerge>
        </filter>
        <path d="M0,0 L25,16 L50,0 L50,30 C50,34.418278 46.418278,38 42,38 L8,38 C3.581722,38 5.41083001e-16,34.418278 0,30 L0,0 L0,0 Z" id="path-8"></path>
        <linearGradient x1="29.7029518%" y1="63.025756%" x2="72.4694678%" y2="45.6738439%" id="linearGradient-10">
            <stop stop-color="#CF8300" offset="0%"></stop>
            <stop stop-color="#FFD9A3" offset="67.5957656%"></stop>
            <stop stop-color="#FFCA81" offset="100%"></stop>
        </linearGradient>
        <linearGradient x1="8.50090714%" y1="15.297576%" x2="52.6805078%" y2="101.438619%" id="linearGradient-11">
            <stop stop-color="#EEB160" offset="0%"></stop>
            <stop stop-color="#FFD9A3" offset="38.4787759%"></stop>
            <stop stop-color="#CF4B00" offset="100%"></stop>
        </linearGradient>
        <path d="M19.5282109,22.0365217 L19.5282109,15 L18,15 L18,22.0365217 L19.5282109,22.0365217 Z M22.4357811,22.0365217 L22.4357811,19.3855072 C22.4357811,18.3901449 22.6342501,18.0353623 23.1998866,18.0353623 C23.7258293,18.0353623 23.9242983,18.3802899 23.9242983,19.2869565 L23.9242983,22.0365217 L25.3731216,22.0365217 L25.3731216,19.1194203 C25.3731216,18.4591304 25.3334278,18.0846377 25.2242699,17.7988406 C24.9761837,17.1582609 24.3907003,16.8133333 23.5372838,16.8133333 C22.9021832,16.8133333 22.5350156,16.9513043 22.1876949,17.315942 L22.0686136,16.9315942 L20.9869578,16.9315942 L20.9869578,22.0365217 L22.4357811,22.0365217 Z M29.2531897,22.0365217 L29.2531897,20.8736232 L29.1341083,20.8736232 C28.4493904,20.8933333 28.240998,20.6469565 28.240998,19.8486957 L28.240998,18.0649275 L29.2631131,18.0649275 L29.2631131,16.9315942 L28.240998,16.9315942 L28.240998,15.4927536 L26.8814857,15.4927536 L26.7921747,16.9315942 L26.2364616,16.9315942 L26.2364616,18.0649275 L26.7921747,18.0649275 L26.7921747,19.7008696 C26.7822512,21.6423188 27.1692657,22.0365217 29.0844911,22.0365217 L29.2531897,22.0365217 Z M32.319535,22.1449275 C33.4805784,22.1449275 34.115679,21.8492754 34.5523107,21.1002899 L33.4905018,20.4991304 C33.2424157,20.8933333 32.9546357,21.0411594 32.4783102,21.0411594 C31.853133,21.0411594 31.5256592,20.6765217 31.5256592,19.9768116 L31.5256592,19.8486957 L34.5820811,19.8486957 L34.5820811,19.355942 C34.5820811,17.5426087 33.937057,16.8133333 32.3294585,16.8133333 C31.4561951,16.8133333 30.8607882,17.0498551 30.5035441,17.5327536 C30.1959172,17.9269565 30.0768358,18.4492754 30.0768358,19.355942 L30.0768358,19.6811594 C30.0768358,21.4452174 30.7119365,22.1449275 32.319535,22.1449275 Z M33.2225688,18.8730435 L31.5157358,18.8730435 L31.5157358,18.7547826 C31.5157358,18.1930435 31.8332861,17.857971 32.3592288,17.857971 C32.9149419,17.857971 33.2225688,18.1831884 33.2225688,18.7547826 L33.2225688,18.8730435 Z M37.1423306,22.0365217 L37.1423306,19.5826087 C37.1423306,18.4985507 37.3407995,18.0452174 37.817125,18.0452174 C38.0354409,18.0452174 38.2339098,18.124058 38.4919195,18.3310145 L39.1170967,17.1582609 C38.6606181,16.902029 38.3430678,16.8133333 37.9659768,16.8133333 C37.5690388,16.8133333 37.3407995,16.9118841 36.9835554,17.2568116 L36.7950099,16.9315942 L35.6935072,16.9315942 L35.6935072,22.0365217 L37.1423306,22.0365217 Z M41.7865041,22.1449275 C42.9475475,22.1449275 43.5826481,21.8492754 44.0192798,21.1002899 L42.9574709,20.4991304 C42.7093847,20.8933333 42.4216048,21.0411594 41.9452793,21.0411594 C41.3201021,21.0411594 40.9926283,20.6765217 40.9926283,19.9768116 L40.9926283,19.8486957 L44.0490502,19.8486957 L44.0490502,19.355942 C44.0490502,17.5426087 43.4040261,16.8133333 41.7964276,16.8133333 C40.9231642,16.8133333 40.3277573,17.0498551 39.9705132,17.5327536 C39.6628863,17.9269565 39.5438049,18.4492754 39.5438049,19.355942 L39.5438049,19.6811594 C39.5438049,21.4452174 40.1789056,22.1449275 41.7865041,22.1449275 Z M42.6895379,18.8730435 L40.9827048,18.8730435 L40.9827048,18.7547826 C40.9827048,18.1930435 41.3002552,17.857971 41.8261979,17.857971 C42.381911,17.857971 42.6895379,18.1831884 42.6895379,18.7547826 L42.6895379,18.8730435 Z M47.016161,22.1449275 C48.5344485,22.1449275 49.2290899,21.6324638 49.2290899,20.4991304 C49.2290899,19.3855072 48.7924582,19.0307246 47.2444003,18.8828986 C46.6291466,18.8237681 46.460448,18.7252174 46.460448,18.4295652 C46.460448,18.1142029 46.6986107,17.9368116 47.125319,17.9368116 C47.5817976,17.9368116 47.8100369,18.0649275 48.0481996,18.4689855 L49.119932,17.8678261 C48.6932237,17.1484058 48.0382762,16.8133333 47.0260845,16.8133333 C45.795577,16.8133333 45.1009356,17.4144928 45.1009356,18.4886957 C45.1009356,19.1095652 45.3390984,19.5333333 45.8055004,19.7501449 C46.1428976,19.9078261 46.3612135,19.9472464 47.2741707,20.0457971 C47.7108024,20.0852174 47.8695775,20.2034783 47.8695775,20.4794203 C47.8695775,20.853913 47.5817976,21.0313043 46.9566204,21.0313043 C46.4009073,21.0313043 46.172668,20.9130435 45.9047349,20.4991304 L44.842926,21.1002899 C45.1902467,21.8 45.8948115,22.1449275 47.016161,22.1449275 Z M52.9900766,22.0365217 L52.9900766,20.8736232 L52.8709952,20.8736232 C52.1862773,20.8933333 51.9778849,20.6469565 51.9778849,19.8486957 L51.9778849,18.0649275 L53,18.0649275 L53,16.9315942 L51.9778849,16.9315942 L51.9778849,15.4927536 L50.6183726,15.4927536 L50.5290615,16.9315942 L49.9733485,16.9315942 L49.9733485,18.0649275 L50.5290615,18.0649275 L50.5290615,19.7008696 C50.5191381,21.6423188 50.9061525,22.0365217 52.8213779,22.0365217 L52.9900766,22.0365217 Z M27.4272753,31.8915942 L27.4272753,29.004058 L29.8287496,29.004058 L29.8287496,27.7721739 L27.4272753,27.7721739 L27.4272753,26.0869565 L30.3050751,26.0869565 L30.3050751,24.8550725 L25.8990644,24.8550725 L25.8990644,31.8915942 L27.4272753,31.8915942 Z M32.5279274,31.8915942 L32.5279274,29.4376812 C32.5279274,28.3536232 32.7263964,27.9002899 33.2027219,27.9002899 C33.4210377,27.9002899 33.6195067,27.9791304 33.8775163,28.186087 L34.5026935,27.0133333 C34.0462149,26.7571014 33.7286646,26.6684058 33.3515736,26.6684058 C32.9546357,26.6684058 32.7263964,26.7669565 32.3691523,27.1118841 L32.1806067,26.7866667 L31.0791041,26.7866667 L31.0791041,31.8915942 L32.5279274,31.8915942 Z M37.1721009,32 C38.3331443,32 38.968245,31.7043478 39.4048767,30.9553623 L38.3430678,30.3542029 C38.0949816,30.7484058 37.8072016,30.8962319 37.3308761,30.8962319 C36.7056989,30.8962319 36.3782251,30.5315942 36.3782251,29.8318841 L36.3782251,29.7037681 L39.434647,29.7037681 L39.434647,29.2110145 C39.434647,27.3976812 38.7896229,26.6684058 37.1820244,26.6684058 C36.308761,26.6684058 35.7133541,26.9049275 35.35611,27.3878261 C35.0484831,27.782029 34.9294018,28.3043478 34.9294018,29.2110145 L34.9294018,29.5362319 C34.9294018,31.3002899 35.5645024,32 37.1721009,32 Z M38.0751347,28.7281159 L36.3683017,28.7281159 L36.3683017,28.6098551 C36.3683017,28.0481159 36.685852,27.7130435 37.2117947,27.7130435 C37.7675078,27.7130435 38.0751347,28.0382609 38.0751347,28.6098551 L38.0751347,28.7281159 Z M42.6399206,32 C43.800964,32 44.4360646,31.7043478 44.8726963,30.9553623 L43.8108874,30.3542029 C43.5628012,30.7484058 43.2750213,30.8962319 42.7986958,30.8962319 C42.1735186,30.8962319 41.8460448,30.5315942 41.8460448,29.8318841 L41.8460448,29.7037681 L44.9024667,29.7037681 L44.9024667,29.2110145 C44.9024667,27.3976812 44.2574426,26.6684058 42.6498441,26.6684058 C41.7765807,26.6684058 41.1811738,26.9049275 40.8239297,27.3878261 C40.5163028,27.782029 40.3972214,28.3043478 40.3972214,29.2110145 L40.3972214,29.5362319 C40.3972214,31.3002899 41.0323221,32 42.6399206,32 Z M43.5429544,28.7281159 L41.8361213,28.7281159 L41.8361213,28.6098551 C41.8361213,28.0481159 42.1536717,27.7130435 42.6796144,27.7130435 C43.2353275,27.7130435 43.5429544,28.0382609 43.5429544,28.6098551 L43.5429544,28.7281159 Z" id="path-12"></path>
        <filter x="-2.9%" y="-5.9%" width="105.7%" height="111.8%" filterUnits="objectBoundingBox" id="filter-13">
            <feGaussianBlur stdDeviation="0.5" in="SourceAlpha" result="shadowBlurInner1"></feGaussianBlur>
            <feOffset dx="0" dy="1" in="shadowBlurInner1" result="shadowOffsetInner1"></feOffset>
            <feComposite in="shadowOffsetInner1" in2="SourceAlpha" operator="arithmetic" k2="-1" k3="1" result="shadowInnerInner1"></feComposite>
            <feColorMatrix values="0 0 0 0 0.618489583   0 0 0 0 0.13352681   0 0 0 0 0.13352681  0 0 0 0.826841128 0" type="matrix" in="shadowInnerInner1"></feColorMatrix>
        </filter>
    </defs>
    <g id="3-交易页-划转" stroke="none" stroke-width="1" fill="none" fill-rule="evenodd">
        <g id="提示备份-2" transform="translate(-150.000000, -255.000000)">
            <g id="英文" transform="translate(150.000000, 255.000000)">
                <g>
                    <mask id="mask-2" fill="white">
                        <use xlink:href="#path-1"></use>
                    </mask>
                    <g id="矩形"></g>
                    <g mask="url(#mask-2)" id="编组-25备份-3">
                        <g transform="translate(0.000000, -5.000000)">
                            <g id="编组-2">
                                <g id="编组-23" transform="translate(6.000000, 57.000000)" fill="#CF4B00">
                                    <polygon id="矩形" points="1.07850344 0.293377204 7.89941895 1.70321472 7.98311422 5.99419265 0.983114217 5.99419265"></polygon>
                                </g>
                                <polygon id="矩形" fill="#D23E3E" transform="translate(34.675426, 38.483856) rotate(-315.000000) translate(-34.675426, -38.483856) " points="18.0226641 21.3720772 45.8765049 13.8705789 58.8296855 26.8237596 45.8765049 49.225918 24.3923813 63.0971334 10.5211658 49.225918"></polygon>
                                <g id="编组-18" filter="url(#filter-3)" transform="translate(34.800639, 34.907927) rotate(-75.000000) translate(-34.800639, -34.907927) translate(6.300639, 7.907927)">
                                    <mask id="mask-6" fill="white">
                                        <use xlink:href="#path-5"></use>
                                    </mask>
                                    <use id="形状结合" fill="url(#linearGradient-4)" transform="translate(28.462745, 27.216376) rotate(-15.000000) translate(-28.462745, -27.216376) " xlink:href="#path-5"></use>
                                </g>
                                <g id="编组-15" filter="url(#filter-7)" transform="translate(10.000000, 29.000000)">
                                    <g id="编组-24">
                                        <mask id="mask-9" fill="white">
                                            <use xlink:href="#path-8"></use>
                                        </mask>
                                        <use id="矩形" fill="#EF4B4B" xlink:href="#path-8"></use>
                                        <polygon id="路径-9" fill="#EFD98A" fill-rule="nonzero" mask="url(#mask-9)" points="50.7263753 1.58151519 51.2736247 2.41848481 25 19.5973933 -1.27362468 2.41848481 -0.726375319 1.58151519 25 18.402"></polygon>
                                    </g>
                                </g>
                            </g>
                            <g id="编组-3" transform="translate(20.029704, 63.741922) rotate(-14.000000) translate(-20.029704, -63.741922) translate(4.029704, 54.241922)">
                                <g transform="translate(-0.000000, 0.000000)">
                                    <path d="M13.5035461,15.3924051 C16.3706471,16.5568974 19.224075,16.6370661 22.0638298,15.6329114 C24.9035846,14.6287566 26.5152093,13.9224344 26.8987039,13.5139445 L31.7453835,15.6611941 C30.4440114,16.6315327 29.186094,17.3837085 27.9716312,17.9177215 C26.149937,18.718741 24.4751773,18.8797468 22.6666667,18.8797468 C21.4609929,18.8797468 19.4917258,18.5590717 16.7588652,17.9177215 L13.5035461,15.3924051 Z" id="路径-8" fill="url(#linearGradient-10)"></path>
                                    <path d="M0.201256255,2.30947674 L4.82058352,0.115529688 C4.94029942,0.0588984923 5.08333611,0.109816499 5.14015318,0.229444119 C5.14405098,0.237650878 5.14747922,0.246072526 5.15042131,0.254668326 C7.03356909,5.75657972 9.25529626,9.88055104 11.8156028,12.6265823 C13.3512025,14.2735744 15.3572845,15.9201288 17.6028369,17.0759494 C19.1588409,17.8768487 20.6170213,18.6392405 22.6666667,18.8797468 C19.0496454,18.8797468 15.3518436,19.1690002 9.16312057,14.6708861 C5.09280637,11.7124829 2.06530144,7.69333973 0.0806058012,2.61345652 C0.0349580632,2.49616606 0.0875675218,2.36347314 0.201256255,2.30947674 Z" id="路径-7" fill="url(#linearGradient-11)"></path>
                                </g>
                            </g>
                            <path d="M15.1713912,6 C15.7579004,10.8046092 15.9707702,13.4204155 15.8100007,13.8474187 C15.6492312,14.2744218 13.379231,15.1472592 9,16.4659308 C13.4055399,15.3379041 15.7870766,14.892898 16.1446101,15.1309125 C16.5021436,15.3689269 17.2531878,18.3252894 18.3977429,24 C17.3158949,18.3581976 16.9363135,15.3198838 17.2589988,14.8850587 C17.5816841,14.4502335 20.1620178,13.5719924 25,12.2503352 C19.7319063,13.5858142 17.0238194,14.0273722 16.8757393,13.5750092 C16.7276592,13.1226463 16.1595432,10.5976432 15.1713912,6 Z" id="路径-16" fill="#FFFFFF" transform="translate(17.000000, 15.000000) rotate(52.000000) translate(-17.000000, -15.000000) "></path>
                        </g>
                    </g>
                </g>
                <g id="InterestFree" fill-rule="nonzero">
                    <use fill="#E0002D" xlink:href="#path-12"></use>
                    <use fill="black" fill-opacity="1" filter="url(#filter-13)" xlink:href="#path-12"></use>
                </g>
            </g>
        </g>
    </g>
</svg>