<?xml version="1.0" encoding="UTF-8"?>
<svg width="16px" height="16px" viewBox="0 0 16 16" version="1.1" xmlns="http://www.w3.org/2000/svg" xmlns:xlink="http://www.w3.org/1999/xlink">
    <!-- Generator: Sketch 59.1 (86144) - https://sketch.com -->
    <title>矩形</title>
    <desc>Created with Sketch.</desc>
    <g id="优化" stroke="none" stroke-width="1" fill="none" fill-rule="evenodd">
        <g id="资产概览" transform="translate(-842.000000, -1326.000000)">
            <g id="编组-5" transform="translate(744.000000, 804.000000)">
                <g id="编组-4备份-3" transform="translate(98.000000, 142.000000)">
                    <g id="编组-3">
                        <g id="转出" transform="translate(8.000000, 388.000000) scale(-1, 1) translate(-8.000000, -388.000000) translate(0.000000, 380.000000)">
                            <rect id="矩形" x="0" y="0" width="16" height="16"></rect>
                            <path d="M0.363292367,10.8752798 L6.85600327,15.4369188 C7.34045571,15.7772464 7.73682263,15.5674004 7.73682263,14.9704555 C7.73682263,14.9132906 7.73682263,14.8561438 7.73682263,14.7989789 C7.73682263,14.5560326 7.73682263,14.3131226 7.73682263,14.0701763 C7.73682263,13.7795534 7.73682263,13.4889667 7.73682263,13.1983438 C7.73682263,13.0847564 7.73682263,12.9711871 7.73682263,12.8575635 C7.73682263,12.8173652 7.73666163,12.777185 7.73682263,12.7370048 C7.7371983,12.639551 7.79447892,12.6327246 7.88070398,12.6327246 C7.93510448,12.6327246 7.98952286,12.6327246 8.04390547,12.6327246 C8.17996932,12.6327246 8.31601529,12.6327246 8.45209703,12.6327246 C8.64522684,12.6327246 8.83835666,12.6327246 9.03148647,12.6327246 C9.03148647,12.6327246 14.0958131,12.9213919 15.5089202,8.01187452 C15.5089202,8.01187452 16.383532,5.67948529 15.7983465,2 C15.8008331,2.01562664 15.7937133,2.03782625 15.7915845,2.05318128 C15.7845183,2.10408103 15.7761284,2.15479971 15.7670587,2.20535542 C15.7527474,2.2851726 15.7364148,2.36464575 15.7185794,2.44377485 C15.6950017,2.5483991 15.668687,2.65237149 15.6399751,2.7556558 C15.6051452,2.88094053 15.5667732,3.00519314 15.525056,3.12828688 C15.4769883,3.27012173 15.4244661,3.41039935 15.3676327,3.54888434 C15.3042698,3.70323136 15.2355581,3.85531496 15.1615155,4.00470058 C15.0808181,4.16753995 14.9937702,4.32719242 14.9005147,4.48300614 C14.8003184,4.65037235 14.6929127,4.81330225 14.5784409,4.97101724 C14.4565451,5.13894478 14.3266351,5.3009331 14.1891044,5.45600442 C14.0431837,5.62052777 13.8886941,5.77726497 13.7263513,5.92520199 C13.5539727,6.08230133 13.372757,6.22945974 13.1839563,6.36586238 C12.9825797,6.51137302 12.7725627,6.64462498 12.5557478,6.76521991 C12.322797,6.89479609 12.0820109,7.00981395 11.8355539,7.11054512 C11.5685246,7.2196781 11.2949121,7.31213421 11.0171672,7.38907233 C10.7136622,7.47316285 10.4052555,7.53874766 10.094416,7.58803586 C9.75218124,7.64230358 9.40701269,7.6768705 9.06109279,7.69472434 C8.67807108,7.71449757 8.29415491,7.71380949 7.91106164,7.69635401 C7.82912995,7.69262389 7.74401401,7.68842299 7.73696574,7.58551894 C7.73369205,7.53764311 7.73682263,7.48837302 7.73682263,7.44037044 C7.73682263,7.31532111 7.73682263,7.19025366 7.73682263,7.06518622 C7.73682263,6.76348161 7.73682263,6.46175889 7.73682263,6.15999995 C7.73682263,5.96279284 7.73682263,5.76558573 7.73682263,5.54224971 C7.73682263,4.94539535 7.34045571,4.73545877 6.85600327,5.07587689 L0.363274478,9.6375159 C-0.1211064,9.97784348 -0.121088511,10.5347893 0.363310256,10.8751893 L0.363292367,10.8752798 Z" id="路径" fill="#B8C6D8" fill-rule="nonzero"></path>
                        </g>
                    </g>
                </g>
            </g>
        </g>
    </g>
</svg>