<svg fill="none" height="12" viewBox="0 0 12 12" width="12" xmlns="http://www.w3.org/2000/svg"><g clip-rule="evenodd" fill="#5ef9cf" fill-rule="evenodd"><path d="m11.2611 8.69203c-.2232.22315-.585.22314-.8081-.00002l-4.45517-4.45533-4.45091 4.45091c-.22316.22315-.584968.22315-.808125 0-.223156-.22316-.223157-.58497 0-.80813l5.259055-5.25904 5.26325 5.26349c.2232.22316.2231.58497 0 .80812z"/><path d="m8.07416 8.76019c-.11158.11157-.29249.11157-.40406-.00001l-1.67126-1.67133-1.66963 1.66962c-.11158.11158-.29248.11158-.40406 0s-.11158-.29248 0-.40406l2.0737-2.07369 2.07532 2.07541c.11157.11158.11157.29248-.00001.40406z"/></g></svg>