<svg fill="none" height="148" viewBox="0 0 375 148" width="375" xmlns="http://www.w3.org/2000/svg" xmlns:xlink="http://www.w3.org/1999/xlink"><linearGradient id="a" gradientUnits="userSpaceOnUse" x1="187.029" x2="187.029" y1="94" y2="-31.44"><stop offset="0" stop-color="#01fcc1"/><stop offset=".744792" stop-color="#01fcc1" stop-opacity="0"/></linearGradient><linearGradient id="b" gradientUnits="userSpaceOnUse" x1="186.425" x2="186.425" y1="82" y2="-31.4933"><stop offset="0" stop-color="#01fcc1"/><stop offset=".765625" stop-color="#01fcc1" stop-opacity="0"/></linearGradient><linearGradient id="c" gradientUnits="userSpaceOnUse" x1="187.028" x2="187.028" y1="103" y2="-39.3644"><stop offset="0" stop-color="#01fcc1"/><stop offset=".291667" stop-color="#01fcc1" stop-opacity="0"/></linearGradient><linearGradient id="d" gradientUnits="userSpaceOnUse" x1="186.425" x2="186.425" y1="130" y2="-29.2889"><stop offset="0" stop-color="#01fcc1"/><stop offset=".375" stop-color="#01fcc1" stop-opacity="0"/></linearGradient><linearGradient id="e" gradientUnits="userSpaceOnUse" x1="187.025" x2="187.025" y1="179.051" y2="-53.4909"><stop offset="0" stop-color="#01fcc1"/><stop offset=".255208" stop-color="#01fcc1" stop-opacity=".2"/><stop offset=".442708" stop-color="#01fcc1" stop-opacity="0"/></linearGradient><linearGradient id="f" gradientUnits="userSpaceOnUse" x1="187.025" x2="187.025" y1="204.051" y2="-28.4909"><stop offset="0" stop-color="#01fcc1"/><stop offset=".375" stop-color="#01fcc1" stop-opacity=".2"/><stop offset=".729167" stop-color="#01fcc1" stop-opacity="0"/></linearGradient><linearGradient id="g" gradientUnits="userSpaceOnUse" x1="187.025" x2="187.025" y1="230.051" y2="-2.49095"><stop offset="0" stop-color="#01fcc1"/><stop offset=".265625" stop-color="#01fcc1" stop-opacity=".2"/><stop offset=".5" stop-color="#01fcc1" stop-opacity="0"/></linearGradient><linearGradient id="h" gradientUnits="userSpaceOnUse" x1="186.858" x2="186.858" y1="188" y2="-52.5248"><stop offset="0" stop-color="#01fcc1"/><stop offset=".140625" stop-color="#01fcc1" stop-opacity=".2"/><stop offset=".380208" stop-color="#01fcc1" stop-opacity="0"/></linearGradient><linearGradient id="i" gradientUnits="userSpaceOnUse" x1="186.618" x2="186.618" y1="167" y2="10.0134"><stop offset="0" stop-color="#01fcc1"/><stop offset="1" stop-color="#01fcc1" stop-opacity="0"/></linearGradient><linearGradient id="j" gradientUnits="userSpaceOnUse" x1="186.766" x2="186.766" y1="151" y2="2"><stop offset="0" stop-color="#01fcc1"/><stop offset=".786458" stop-color="#01fcc1" stop-opacity="0"/></linearGradient><linearGradient id="k" gradientUnits="userSpaceOnUse" x1="186.303" x2="186.303" y1="117" y2="-8.0402"><stop offset="0" stop-color="#01fcc1"/><stop offset=".729167" stop-color="#01fcc1" stop-opacity="0"/></linearGradient><clipPath id="l"><path d="m0 0h375v148h-375z" transform="matrix(1 0 0 -1 0 148)"/></clipPath><g clip-path="url(#l)" opacity=".6"><path d="m337.889-32-150.859 126-150.8601-126" stroke="url(#a)" stroke-width=".5"/><path d="m323.407-32-136.981 114-136.9804-114" stroke="url(#b)" stroke-opacity=".1" stroke-width="8"/><path d="m358.405-40-171.376 143-171.3767-143" stroke="url(#c)" stroke-width=".5"/><path d="m377.716-30-191.29 160-191.29026-160" stroke="url(#d)" stroke-width="8"/><g clip-rule="evenodd" fill-rule="evenodd"><path d="m463.397-50.4301-276.371 229.4811-276.3708-229.4811h10.7707l265.0901 221.4301 265.089-221.4301z" fill="url(#e)"/><path d="m463.397-25.4301-276.371 229.4811-276.3708-229.4811h10.7707l265.0901 221.4301 265.089-221.4301z" fill="url(#f)"/><path d="m463.397.56987-276.371 229.48113-276.3708-229.48113h10.7707l265.0901 221.43013 265.089-221.43013z" fill="url(#g)" fill-opacity=".1"/><path d="m472.717-49.3589-285.859 237.3589-285.858-237.3589zm-8.589 3.4551-277.236 231.5758-277.2356-231.5758z" fill="url(#h)"/><path d="m373.273 9.75-186.655 157.25-186.6548652-157.25h43.5302652l144.3966 121.43 144.396-121.43z" fill="url(#i)" fill-opacity=".2"/><path d="m363.925 1.75-177.159 149.25-177.15919-149.25h41.31889l137.0473 115.25 137.048-115.25z" fill="url(#j)"/><path d="m336.802-8.25-148.939 125.25-148.9394-125.25h27.2837l120.8107 101.25 120.812-101.25z" fill="url(#k)" fill-opacity=".4"/></g></g></svg>