<svg fill="none" height="365" viewBox="0 0 375 365" width="375" xmlns="http://www.w3.org/2000/svg" xmlns:xlink="http://www.w3.org/1999/xlink"><clipPath id="a"><path d="m0 0h375v812h-375z"/></clipPath><g clip-path="url(#a)" fill="#fff" opacity=".6"><g opacity=".04"><path d="m34 0h.5v812h-.5z"/><path d="m68 0h.5v812h-.5z"/><path d="m102 0h.5v812h-.5z"/><path d="m136 0h.5v812h-.5z"/><path d="m170 0h.5v812h-.5z"/><path d="m204 0h.5v812h-.5z"/><path d="m238 0h.5v812h-.5z"/><path d="m272 0h.5v812h-.5z"/><path d="m306 0h.5v812h-.5z"/><path d="m340 0h.5v812h-.5z"/></g><g opacity=".04"><path d="m0 0h375v.5h-375z"/><path d="m0 34h375v.5h-375z"/><path d="m0 68h375v.5h-375z"/><path d="m0 102h375v.5h-375z"/><path d="m0 136h375v.5h-375z"/><path d="m0 170h375v.5h-375z"/><path d="m0 204h375v.5h-375z"/><path d="m0 238h375v.5h-375z"/><path d="m0 272h375v.5h-375z"/><path d="m0 306h375v.5h-375z"/><path d="m0 340h375v.5h-375z"/></g><g opacity=".3"><path d="m0 0h.5v.5h-.5z"/><path d="m0 34h.5v.5h-.5z"/><path d="m0 68h.5v.5h-.5z"/><path d="m0 102h.5v.5h-.5z"/><path d="m0 136h.5v.5h-.5z"/><path d="m0 170h.5v.5h-.5z"/><path d="m0 204h.5v.5h-.5z"/><path d="m0 238h.5v.5h-.5z"/><path d="m0 272h.5v.5h-.5z"/><path d="m0 306h.5v.5h-.5z"/><path d="m0 340h.5v.5h-.5z"/><path d="m34 0h.5v.5h-.5z"/><path d="m34 34h.5v.5h-.5z"/><path d="m34 68h.5v.5h-.5z"/><path d="m34 102h.5v.5h-.5z"/><path d="m34 136h.5v.5h-.5z"/><path d="m34 170h.5v.5h-.5z"/><path d="m34 204h.5v.5h-.5z"/><path d="m34 238h.5v.5h-.5z"/><path d="m34 272h.5v.5h-.5z"/><path d="m34 306h.5v.5h-.5z"/><path d="m34 340h.5v.5h-.5z"/><path d="m68 0h.5v.5h-.5z"/><path d="m68 34h.5v.5h-.5z"/><path d="m68 68h.5v.5h-.5z"/><path d="m68 102h.5v.5h-.5z"/><path d="m68 136h.5v.5h-.5z"/><path d="m68 170h.5v.5h-.5z"/><path d="m68 204h.5v.5h-.5z"/><path d="m68 238h.5v.5h-.5z"/><path d="m68 272h.5v.5h-.5z"/><path d="m68 306h.5v.5h-.5z"/><path d="m68 340h.5v.5h-.5z"/><path d="m102 0h.5v.5h-.5z"/><path d="m102 34h.5v.5h-.5z"/><path d="m102 68h.5v.5h-.5z"/><path d="m102 102h.5v.5h-.5z"/><path d="m102 136h.5v.5h-.5z"/><path d="m102 170h.5v.5h-.5z"/><path d="m102 204h.5v.5h-.5z"/><path d="m102 238h.5v.5h-.5z"/><path d="m102 272h.5v.5h-.5z"/><path d="m102 306h.5v.5h-.5z"/><path d="m102 340h.5v.5h-.5z"/><path d="m136 0h.5v.5h-.5z"/><path d="m136 34h.5v.5h-.5z"/><path d="m136 68h.5v.5h-.5z"/><path d="m136 102h.5v.5h-.5z"/><path d="m136 136h.5v.5h-.5z"/><path d="m136 170h.5v.5h-.5z"/><path d="m136 204h.5v.5h-.5z"/><path d="m136 238h.5v.5h-.5z"/><path d="m136 272h.5v.5h-.5z"/><path d="m136 306h.5v.5h-.5z"/><path d="m136 340h.5v.5h-.5z"/><path d="m170 0h.5v.5h-.5z"/><path d="m170 34h.5v.5h-.5z"/><path d="m170 68h.5v.5h-.5z"/><path d="m170 102h.5v.5h-.5z"/><path d="m170 136h.5v.5h-.5z"/><path d="m170 170h.5v.5h-.5z"/><path d="m170 204h.5v.5h-.5z"/><path d="m170 238h.5v.5h-.5z"/><path d="m170 272h.5v.5h-.5z"/><path d="m170 306h.5v.5h-.5z"/><path d="m170 340h.5v.5h-.5z"/><path d="m204 0h.5v.5h-.5z"/><path d="m204 34h.5v.5h-.5z"/><path d="m204 68h.5v.5h-.5z"/><path d="m204 102h.5v.5h-.5z"/><path d="m204 136h.5v.5h-.5z"/><path d="m204 170h.5v.5h-.5z"/><path d="m204 204h.5v.5h-.5z"/><path d="m204 238h.5v.5h-.5z"/><path d="m204 272h.5v.5h-.5z"/><path d="m204 306h.5v.5h-.5z"/><path d="m204 340h.5v.5h-.5z"/><path d="m238 0h.5v.5h-.5z"/><path d="m238 34h.5v.5h-.5z"/><path d="m238 68h.5v.5h-.5z"/><path d="m238 102h.5v.5h-.5z"/><path d="m238 136h.5v.5h-.5z"/><path d="m238 170h.5v.5h-.5z"/><path d="m238 204h.5v.5h-.5z"/><path d="m238 238h.5v.5h-.5z"/><path d="m238 272h.5v.5h-.5z"/><path d="m238 306h.5v.5h-.5z"/><path d="m238 340h.5v.5h-.5z"/><path d="m272 0h.5v.5h-.5z"/><path d="m272 34h.5v.5h-.5z"/><path d="m272 68h.5v.5h-.5z"/><path d="m272 102h.5v.5h-.5z"/><path d="m272 136h.5v.5h-.5z"/><path d="m272 170h.5v.5h-.5z"/><path d="m272 204h.5v.5h-.5z"/><path d="m272 238h.5v.5h-.5z"/><path d="m272 272h.5v.5h-.5z"/><path d="m272 306h.5v.5h-.5z"/><path d="m272 340h.5v.5h-.5z"/><path d="m306 0h.5v.5h-.5z"/><path d="m306 34h.5v.5h-.5z"/><path d="m306 68h.5v.5h-.5z"/><path d="m306 102h.5v.5h-.5z"/><path d="m306 136h.5v.5h-.5z"/><path d="m306 170h.5v.5h-.5z"/><path d="m306 204h.5v.5h-.5z"/><path d="m306 238h.5v.5h-.5z"/><path d="m306 272h.5v.5h-.5z"/><path d="m306 306h.5v.5h-.5z"/><path d="m306 340h.5v.5h-.5z"/><path d="m340 0h.5v.5h-.5z"/><path d="m340 34h.5v.5h-.5z"/><path d="m340 68h.5v.5h-.5z"/><path d="m340 102h.5v.5h-.5z"/><path d="m340 136h.5v.5h-.5z"/><path d="m340 170h.5v.5h-.5z"/><path d="m340 204h.5v.5h-.5z"/><path d="m340 238h.5v.5h-.5z"/><path d="m340 272h.5v.5h-.5z"/><path d="m340 306h.5v.5h-.5z"/><path d="m340 340h.5v.5h-.5z"/></g></g></svg>