<svg fill="none" height="409" viewBox="0 0 375 409" width="375" xmlns="http://www.w3.org/2000/svg" xmlns:xlink="http://www.w3.org/1999/xlink"><clipPath id="a"><path d="m0 0h375v409h-375z"/></clipPath><clipPath id="b"><path d="m-16 0h375v812h-375z"/></clipPath><mask id="c" height="534" maskUnits="userSpaceOnUse" width="375" x="-16" y="0"><path d="m-16 0h375v534h-375z" fill="#d9d9d9"/></mask><g clip-path="url(#a)"><g mask="url(#c)"><g clip-path="url(#b)" fill="#fff" opacity=".6"><g opacity=".04"><path d="m18 0h.5v812h-.5z"/><path d="m52 0h.5v812h-.5z"/><path d="m86 0h.5v812h-.5z"/><path d="m120 0h.5v812h-.5z"/><path d="m154 0h.5v812h-.5z"/><path d="m188 0h.5v812h-.5z"/><path d="m222 0h.5v812h-.5z"/><path d="m256 0h.5v812h-.5z"/><path d="m290 0h.5v812h-.5z"/><path d="m324 0h.5v812h-.5z"/></g><g opacity=".04"><path d="m-16 0h375v.5h-375z"/><path d="m-16 34h375v.5h-375z"/><path d="m-16 68h375v.5h-375z"/><path d="m-16 102h375v.5h-375z"/><path d="m-16 136h375v.5h-375z"/><path d="m-16 170h375v.5h-375z"/><path d="m-16 204h375v.5h-375z"/><path d="m-16 238h375v.5h-375z"/><path d="m-16 272h375v.5h-375z"/><path d="m-16 306h375v.5h-375z"/><path d="m-16 340h375v.5h-375z"/><path d="m-16 374h375v.5h-375z"/><path d="m-16 408h375v.5h-375z"/></g><g opacity=".3"><path d="m18 0h.5v.5h-.5z"/><path d="m18 34h.5v.5h-.5z"/><path d="m18 68h.5v.5h-.5z"/><path d="m18 102h.5v.5h-.5z"/><path d="m18 136h.5v.5h-.5z"/><path d="m18 170h.5v.5h-.5z"/><path d="m18 204h.5v.5h-.5z"/><path d="m18 238h.5v.5h-.5z"/><path d="m18 272h.5v.5h-.5z"/><path d="m18 306h.5v.5h-.5z"/><path d="m18 340h.5v.5h-.5z"/><path d="m18 374h.5v.5h-.5z"/><path d="m18 408h.5v.5h-.5z"/><path d="m52 0h.5v.5h-.5z"/><path d="m52 34h.5v.5h-.5z"/><path d="m52 68h.5v.5h-.5z"/><path d="m52 102h.5v.5h-.5z"/><path d="m52 136h.5v.5h-.5z"/><path d="m52 170h.5v.5h-.5z"/><path d="m52 204h.5v.5h-.5z"/><path d="m52 238h.5v.5h-.5z"/><path d="m52 272h.5v.5h-.5z"/><path d="m52 306h.5v.5h-.5z"/><path d="m52 340h.5v.5h-.5z"/><path d="m52 374h.5v.5h-.5z"/><path d="m52 408h.5v.5h-.5z"/><path d="m86 0h.5v.5h-.5z"/><path d="m86 34h.5v.5h-.5z"/><path d="m86 68h.5v.5h-.5z"/><path d="m86 102h.5v.5h-.5z"/><path d="m86 136h.5v.5h-.5z"/><path d="m86 170h.5v.5h-.5z"/><path d="m86 204h.5v.5h-.5z"/><path d="m86 238h.5v.5h-.5z"/><path d="m86 272h.5v.5h-.5z"/><path d="m86 306h.5v.5h-.5z"/><path d="m86 340h.5v.5h-.5z"/><path d="m86 374h.5v.5h-.5z"/><path d="m86 408h.5v.5h-.5z"/><path d="m120 0h.5v.5h-.5z"/><path d="m120 34h.5v.5h-.5z"/><path d="m120 68h.5v.5h-.5z"/><path d="m120 102h.5v.5h-.5z"/><path d="m120 136h.5v.5h-.5z"/><path d="m120 170h.5v.5h-.5z"/><path d="m120 204h.5v.5h-.5z"/><path d="m120 238h.5v.5h-.5z"/><path d="m120 272h.5v.5h-.5z"/><path d="m120 306h.5v.5h-.5z"/><path d="m120 340h.5v.5h-.5z"/><path d="m120 374h.5v.5h-.5z"/><path d="m120 408h.5v.5h-.5z"/><path d="m154 0h.5v.5h-.5z"/><path d="m154 34h.5v.5h-.5z"/><path d="m154 68h.5v.5h-.5z"/><path d="m154 102h.5v.5h-.5z"/><path d="m154 136h.5v.5h-.5z"/><path d="m154 170h.5v.5h-.5z"/><path d="m154 204h.5v.5h-.5z"/><path d="m154 238h.5v.5h-.5z"/><path d="m154 272h.5v.5h-.5z"/><path d="m154 306h.5v.5h-.5z"/><path d="m154 340h.5v.5h-.5z"/><path d="m154 374h.5v.5h-.5z"/><path d="m154 408h.5v.5h-.5z"/><path d="m188 0h.5v.5h-.5z"/><path d="m188 34h.5v.5h-.5z"/><path d="m188 68h.5v.5h-.5z"/><path d="m188 102h.5v.5h-.5z"/><path d="m188 136h.5v.5h-.5z"/><path d="m188 170h.5v.5h-.5z"/><path d="m188 204h.5v.5h-.5z"/><path d="m188 238h.5v.5h-.5z"/><path d="m188 272h.5v.5h-.5z"/><path d="m188 306h.5v.5h-.5z"/><path d="m188 340h.5v.5h-.5z"/><path d="m188 374h.5v.5h-.5z"/><path d="m188 408h.5v.5h-.5z"/><path d="m222 0h.5v.5h-.5z"/><path d="m222 34h.5v.5h-.5z"/><path d="m222 68h.5v.5h-.5z"/><path d="m222 102h.5v.5h-.5z"/><path d="m222 136h.5v.5h-.5z"/><path d="m222 170h.5v.5h-.5z"/><path d="m222 204h.5v.5h-.5z"/><path d="m222 238h.5v.5h-.5z"/><path d="m222 272h.5v.5h-.5z"/><path d="m222 306h.5v.5h-.5z"/><path d="m222 340h.5v.5h-.5z"/><path d="m222 374h.5v.5h-.5z"/><path d="m222 408h.5v.5h-.5z"/><path d="m256 0h.5v.5h-.5z"/><path d="m256 34h.5v.5h-.5z"/><path d="m256 68h.5v.5h-.5z"/><path d="m256 102h.5v.5h-.5z"/><path d="m256 136h.5v.5h-.5z"/><path d="m256 170h.5v.5h-.5z"/><path d="m256 204h.5v.5h-.5z"/><path d="m256 238h.5v.5h-.5z"/><path d="m256 272h.5v.5h-.5z"/><path d="m256 306h.5v.5h-.5z"/><path d="m256 340h.5v.5h-.5z"/><path d="m256 374h.5v.5h-.5z"/><path d="m256 408h.5v.5h-.5z"/><path d="m290 0h.5v.5h-.5z"/><path d="m290 34h.5v.5h-.5z"/><path d="m290 68h.5v.5h-.5z"/><path d="m290 102h.5v.5h-.5z"/><path d="m290 136h.5v.5h-.5z"/><path d="m290 170h.5v.5h-.5z"/><path d="m290 204h.5v.5h-.5z"/><path d="m290 238h.5v.5h-.5z"/><path d="m290 272h.5v.5h-.5z"/><path d="m290 306h.5v.5h-.5z"/><path d="m290 340h.5v.5h-.5z"/><path d="m290 374h.5v.5h-.5z"/><path d="m290 408h.5v.5h-.5z"/><path d="m324 0h.5v.5h-.5z"/><path d="m324 34h.5v.5h-.5z"/><path d="m324 68h.5v.5h-.5z"/><path d="m324 102h.5v.5h-.5z"/><path d="m324 136h.5v.5h-.5z"/><path d="m324 170h.5v.5h-.5z"/><path d="m324 204h.5v.5h-.5z"/><path d="m324 238h.5v.5h-.5z"/><path d="m324 272h.5v.5h-.5z"/><path d="m324 306h.5v.5h-.5z"/><path d="m324 340h.5v.5h-.5z"/><path d="m324 374h.5v.5h-.5z"/><path d="m324 408h.5v.5h-.5z"/></g></g></g><g fill="#fff" opacity=".4"><g fill-opacity=".1"><path d="m0 0h49v49h-49z"/><path d="m196 0h49v49h-49z"/><path d="m245 49h49v49h-49z"/></g><path d="m98 49h49v49h-49z" fill-opacity=".02"/><path d="m147 98h49v49h-49z" fill-opacity=".02"/><path d="m0 98h49v49h-49z" fill-opacity=".03"/><path d="m294 147h49v49h-49z" fill-opacity=".03"/></g></g></svg>