<svg width="12" height="12" viewBox="0 0 12 12" fill="none" xmlns="http://www.w3.org/2000/svg">
<path fill-rule="evenodd" clip-rule="evenodd" d="M5.10362 1.83545C5.46841 1.09082 6.52884 1.08812 6.89742 1.83088L7.87818 3.80729L10.0722 4.12713C10.8911 4.24649 11.2189 5.25202 10.6277 5.83106L9.02677 7.39918L9.40189 9.55004C9.54497 10.3704 8.68128 10.996 7.94639 10.6043L5.99901 9.56635L4.05297 10.6035C3.3175 10.9955 2.4534 10.3686 2.59774 9.54783L2.97564 7.39892L1.37295 5.83207C0.780633 5.25301 1.10883 4.24613 1.92861 4.12735L4.13762 3.80727L5.10362 1.83545ZM6.98241 4.2518L6.00165 2.27539L5.03564 4.24722C4.89033 4.54384 4.60791 4.74957 4.28101 4.79694L2.07201 5.11701L3.67471 6.68386C3.91075 6.91462 4.0177 7.247 3.96053 7.57212L3.58263 9.72103L5.52867 8.68386C5.82266 8.52717 6.17538 8.52717 6.46937 8.68387L8.41676 9.72185L8.04164 7.571C7.98506 7.24662 8.0918 6.91519 8.32703 6.68479L9.92799 5.11667L7.73393 4.79683C7.40916 4.74949 7.12829 4.54579 6.98241 4.2518Z" fill="#8C8C8C"/>
</svg>
