<svg width="12" height="20" viewBox="0 0 12 20" fill="none" xmlns="http://www.w3.org/2000/svg">
<path d="M7.54125 12.1167C8.59324 14.1077 7.80669 16.5689 5.81794 17.5816C3.82925 16.5689 3.04272 14.1078 4.09465 12.1168L5.81794 8.85505L7.54125 12.1167Z" fill="#FFCF54" stroke="black" stroke-width="0.5"/>
<path d="M6.44437 11.367C6.87113 12.1747 6.571 13.1683 5.78917 13.6085C5.00736 13.1683 4.70724 12.1748 5.13397 11.3671L5.78917 10.127L6.44437 11.367Z" fill="#FF7337" stroke="black" stroke-width="0.5"/>
<path d="M9.59121 5.55175L8.68164 4.96484L8.59649 9.29353L8.79841 9.49621C9.42783 10.128 10.5068 9.68223 10.5068 8.79043V7.23227C10.5068 6.55295 10.162 5.92007 9.59121 5.55175Z" fill="#76EBCE" stroke="black" stroke-width="0.5"/>
<path d="M2.34849 5.55175L3.25806 4.96484L3.34321 9.29353L3.14129 9.49621C2.51186 10.128 1.43286 9.68223 1.43286 8.79043V7.23227C1.43286 6.55295 1.77768 5.92007 2.34849 5.55175Z" fill="#76EBCE" stroke="black" stroke-width="0.5"/>
<path d="M3.19531 4.57529C3.19531 2.82093 4.16919 1.21158 5.72333 0.397691C5.86145 0.325361 6.02626 0.325361 6.16437 0.397691C7.71852 1.21158 8.69239 2.82093 8.69239 4.57529V10.1917C8.69239 10.4957 8.44597 10.7421 8.142 10.7421H3.74571C3.44173 10.7421 3.19531 10.4957 3.19531 10.1917V4.57529Z" fill="url(#paint0_linear_1_18116)" stroke="black" stroke-width="0.5"/>
<defs>
<linearGradient id="paint0_linear_1_18116" x1="5.96976" y1="-0.308151" x2="5.94366" y2="10.9921" gradientUnits="userSpaceOnUse">
<stop stop-color="#74EDCF"/>
<stop offset="1" stop-color="#01BC8D"/>
</linearGradient>
</defs>
</svg>
