<svg width="230" height="130" viewBox="0 0 230 130" fill="none" xmlns="http://www.w3.org/2000/svg">
<path opacity="0.2" d="M63.7888 95.4399C63.2349 95.4399 62.7009 95.6468 62.2916 96.02L46.8754 110.075C45.3755 111.442 46.3429 113.939 48.3725 113.939H180.893C182.928 113.939 183.892 111.431 182.382 110.068L166.814 96.0127C166.405 95.644 165.875 95.4399 165.324 95.4399H63.7888Z" fill="#12192D"/>
<path d="M65.1112 13.1147H164.192C164.744 13.1147 165.274 13.3342 165.665 13.7249C166.056 14.1156 166.275 14.6455 166.275 15.198V80.5546H63.028V15.198C63.028 14.6455 63.2474 14.1156 63.6381 13.7249C64.0288 13.3342 64.5587 13.1147 65.1112 13.1147Z" fill="#2DE09F" stroke="black" stroke-width="0.369231" stroke-miterlimit="10"/>
<path d="M161.171 74.528V19.1423C161.171 18.6325 160.758 18.2192 160.248 18.2192L69.0548 18.2192C68.545 18.2192 68.1318 18.6325 68.1318 19.1423V74.528C68.1318 75.0378 68.545 75.451 69.0548 75.451H160.248C160.758 75.451 161.171 75.0378 161.171 74.528Z" fill="#EBFFF4" stroke="#11192F" stroke-width="0.369231" stroke-miterlimit="22.93"/>
<path opacity="0.1" d="M161.171 18.2192H68.1317V20.7525H161.171V18.2192Z" fill="#12192D" stroke="#0F1931" stroke-width="0.208328" stroke-miterlimit="22.93"/>
<path d="M187.028 99.9775H42.2534V103.593C42.2534 104.145 42.7011 104.593 43.2534 104.593H186.028C186.58 104.593 187.028 104.145 187.028 103.593V99.9775Z" fill="#C7C7C7" stroke="#11182F" stroke-width="0.369231" stroke-miterlimit="10"/>
<path d="M62.9278 80.5552L42.534 99.3023C41.9146 99.8716 42.3174 100.905 43.1586 100.905H186.133C186.976 100.905 187.378 99.8674 186.754 99.2996L166.179 80.5552H62.9278Z" fill="#64F9AB" stroke="#11182F" stroke-width="0.369231" stroke-miterlimit="10"/>
<path d="M59.3986 93.3433C58.5946 93.3433 58.1749 92.3869 58.7193 91.7952L65.6662 84.2458C65.8409 84.0558 66.0873 83.9478 66.3454 83.9478H162.429C162.677 83.9478 162.915 84.0478 163.088 84.2253L170.474 91.7747C171.046 92.3591 170.632 93.3433 169.814 93.3433H59.3986Z" fill="#EDEDED" stroke="#11182F" stroke-width="0.369231" stroke-miterlimit="10"/>
<g opacity="0.2">
<path d="M72.2314 27.1885H75.3564" stroke="white" stroke-width="1.66662" stroke-linecap="round" stroke-linejoin="round"/>
<path d="M81.5524 27.1885H96.4145" stroke="white" stroke-width="1.66662" stroke-linecap="round" stroke-linejoin="round" stroke-dasharray="1.65 6.19 6.19 1.65"/>
<path d="M97.2393 27.1885H152.571" stroke="white" stroke-width="1.66662" stroke-linecap="round" stroke-linejoin="round" stroke-dasharray="6.19 6.19 1.65 6.19 6.19 1.65"/>
<path d="M153.396 27.1885H156.521" stroke="white" stroke-width="1.66662" stroke-linecap="round" stroke-linejoin="round"/>
<path d="M72.2316 45.9258H74.7315" stroke="white" stroke-width="1.66662" stroke-linecap="round" stroke-linejoin="round"/>
<path d="M80.0189 45.9258H151.379" stroke="white" stroke-width="1.66662" stroke-linecap="round" stroke-linejoin="round" stroke-dasharray="5.29 5.29"/>
<path d="M154.021 45.9258H156.521" stroke="white" stroke-width="1.66662" stroke-linecap="round" stroke-linejoin="round"/>
<g opacity="0.7">
<path d="M72.2316 52.1709H88.8978" stroke="white" stroke-width="1.66662" stroke-linecap="round" stroke-linejoin="round"/>
<path d="M97.3889 52.1709H135.609" stroke="white" stroke-width="1.66662" stroke-linecap="round" stroke-linejoin="round" stroke-dasharray="33.97 8.49"/>
<path d="M139.854 52.1709H156.52" stroke="white" stroke-width="1.66662" stroke-linecap="round" stroke-linejoin="round"/>
</g>
<g opacity="0.4">
<path d="M72.2316 58.417H80.5647" stroke="white" stroke-width="1.66662" stroke-linecap="round" stroke-linejoin="round"/>
<path d="M104.714 58.417H136.113" stroke="white" stroke-width="1.66662" stroke-linecap="round" stroke-linejoin="round" stroke-dasharray="19.32 24.15"/>
<path d="M148.188 58.417H156.521" stroke="white" stroke-width="1.66662" stroke-linecap="round" stroke-linejoin="round"/>
</g>
<path d="M72.2316 64.6631H74.7315" stroke="white" stroke-width="1.66662" stroke-linecap="round" stroke-linejoin="round"/>
<path d="M80.0189 64.6631H151.379" stroke="white" stroke-width="1.66662" stroke-linecap="round" stroke-linejoin="round" stroke-dasharray="5.29 5.29"/>
<path d="M154.021 64.6631H156.521" stroke="white" stroke-width="1.66662" stroke-linecap="round" stroke-linejoin="round"/>
</g>
<path d="M97.7017 92.6924L95.8851 98.2714H133.417L131.555 92.6924H97.7017Z" fill="#6CFDD9" stroke="#12192D" stroke-width="0.208328" stroke-miterlimit="10"/>
<path d="M159.679 116.705H72.2317V68.5127L115.914 41.0801L159.679 68.5127V116.705Z" fill="#11A879" stroke="#12192D" stroke-width="0.369231" stroke-linecap="round" stroke-linejoin="round"/>
<path d="M159.679 68.5127L115.914 41.0801L158.1 69.4001L159.679 68.5127Z" fill="#3ED9B8" stroke="#12192D" stroke-width="0.369231" stroke-linecap="round" stroke-linejoin="round"/>
<path d="M72.2317 68.5127L115.997 41.0801L73.8108 69.4001L72.2317 68.5127Z" fill="#3ED9B8" stroke="#12192D" stroke-width="0.369231" stroke-linecap="round" stroke-linejoin="round"/>
<path d="M143.091 31.1724H89.4369C88.2096 31.1724 87.2147 32.1673 87.2147 33.3946V90.8485C87.2147 92.0758 88.2096 93.0707 89.4369 93.0707H143.091C144.318 93.0707 145.313 92.0758 145.313 90.8485V33.3946C145.313 32.1673 144.318 31.1724 143.091 31.1724Z" fill="white" stroke="#12182D" stroke-width="0.369231" stroke-miterlimit="10"/>
<path opacity="0.07" d="M138.988 37.6514H94.468C93.9641 37.6514 93.5555 38.3976 93.5555 39.318C93.5555 40.2385 93.9641 40.9847 94.468 40.9847H138.988C139.492 40.9847 139.9 40.2385 139.9 39.318C139.9 38.3976 139.492 37.6514 138.988 37.6514Z" fill="#12182D"/>
<path opacity="0.07" d="M138.988 77.2222H94.468C93.9641 77.2222 93.5555 77.9684 93.5555 78.8888C93.5555 79.8093 93.9641 80.5555 94.468 80.5555H138.988C139.492 80.5555 139.9 79.8093 139.9 78.8888C139.9 77.9684 139.492 77.2222 138.988 77.2222Z" fill="#12182D"/>
<path opacity="0.07" d="M109.894 50.5552H93.8837C93.7025 50.5552 93.5555 51.3014 93.5555 52.2218C93.5555 53.1423 93.7025 53.8885 93.8837 53.8885H109.894C110.075 53.8885 110.222 53.1423 110.222 52.2218C110.222 51.3014 110.075 50.5552 109.894 50.5552Z" fill="#12182D"/>
<path opacity="0.07" d="M135.515 50.5552H122.707C122.562 50.5552 122.444 51.3014 122.444 52.2218C122.444 53.1423 122.562 53.8885 122.707 53.8885H135.515C135.66 53.8885 135.778 53.1423 135.778 52.2218C135.778 51.3014 135.66 50.5552 135.515 50.5552Z" fill="#12182D"/>
<path opacity="0.07" d="M102.269 63.8887H93.7306C93.6339 63.8887 93.5555 64.6349 93.5555 65.5553C93.5555 66.4758 93.6339 67.222 93.7306 67.222H102.269C102.366 67.222 102.444 66.4758 102.444 65.5553C102.444 64.6349 102.366 63.8887 102.269 63.8887Z" fill="#12182D"/>
<path opacity="0.1" d="M138.526 75.4302H94.006C93.502 75.4302 93.0935 75.8387 93.0935 76.3427C93.0935 76.8466 93.502 77.2551 94.006 77.2551H138.526C139.03 77.2551 139.438 76.8466 139.438 76.3427C139.438 75.8387 139.03 75.4302 138.526 75.4302Z" fill="#12182D"/>
<path d="M159.679 116.705H72.2317V67.5898L159.679 116.705Z" fill="#2DE09F" stroke="#12192D" stroke-width="0.369231" stroke-linecap="round" stroke-linejoin="round"/>
<path d="M72.2317 116.705L159.679 68.5127V116.705H72.2317Z" fill="#2DE09F" stroke="#12192D" stroke-width="0.369231" stroke-linecap="round" stroke-linejoin="round"/>
<path d="M159.209 115.958C159.935 116.482 159.565 117.629 158.669 117.629H73.2378C72.3425 117.629 71.9714 116.483 72.697 115.958L115.914 84.7134L159.209 115.958Z" fill="#64F9AB" stroke="#12192D" stroke-width="0.369231" stroke-linecap="round" stroke-linejoin="round"/>
<path d="M72.2317 68.5127L111.114 88.3288L109.577 89.4871L72.2317 68.5127Z" fill="#6CFDD9" stroke="#12192D" stroke-width="0.369231" stroke-linecap="round" stroke-linejoin="round"/>
<path d="M159.68 68.5127L120.797 88.3288L122.335 89.4871L159.68 68.5127Z" fill="#6CFDD9" stroke="#12192D" stroke-width="0.369231" stroke-linecap="round" stroke-linejoin="round"/>
<path opacity="0.3" d="M115.914 84.7134L72.2317 114.071L72.2051 116.231L115.914 84.7134Z" fill="#12192D"/>
<path opacity="0.3" d="M115.997 84.7134L159.679 114.071V116.344L115.997 84.7134Z" fill="#12192D"/>
<path d="M115.308 39.4031C115.739 38.6778 116.789 38.6779 117.219 39.4033L138.601 75.4351C139.04 76.1758 138.506 77.1132 137.645 77.1132H94.8705C94.0091 77.1132 93.4753 76.1755 93.9151 75.4349L115.308 39.4031Z" fill="#FFC545" stroke="#12192D" stroke-width="0.369231" stroke-linecap="round" stroke-linejoin="round"/>
<path d="M130.348 73.124H102.179C101.472 73.124 101.027 72.3612 101.376 71.7459L115.461 46.8877C115.814 46.2636 116.713 46.2636 117.067 46.8877L131.151 71.7459C131.5 72.3612 131.056 73.124 130.348 73.124Z" fill="#FFFEBC"/>
<path d="M117.205 53.9386C116.906 53.8151 116.587 53.7515 116.264 53.7515C115.613 53.7515 114.988 54.0099 114.527 54.47C114.066 54.9301 113.807 55.5543 113.806 56.2056V60.7471C113.806 61.3991 114.065 62.0244 114.526 62.4854C114.987 62.9464 115.612 63.2054 116.264 63.2054C116.916 63.2054 117.541 62.9464 118.002 62.4854C118.463 62.0244 118.722 61.3991 118.722 60.7471V56.2097C118.722 55.8869 118.658 55.5672 118.535 55.269C118.411 54.9707 118.23 54.6997 118.002 54.4715C117.774 54.2432 117.503 54.0621 117.205 53.9386Z" fill="#FFE75C"/>
<path d="M118.002 66.3836C117.541 65.9226 116.916 65.6636 116.264 65.6636V65.6595C115.941 65.6595 115.621 65.7232 115.322 65.847C115.024 65.9708 114.752 66.1522 114.524 66.381C114.296 66.6097 114.115 66.8812 113.991 67.1799C113.868 67.4786 113.805 67.7987 113.806 68.1219C113.806 68.7739 114.065 69.3991 114.526 69.8602C114.987 70.3212 115.612 70.5802 116.264 70.5802C116.916 70.5802 117.541 70.3212 118.002 69.8602C118.463 69.3991 118.722 68.7739 118.722 68.1219C118.722 67.4699 118.463 66.8447 118.002 66.3836Z" fill="#FFE75C"/>
<path d="M117.205 53.9386C116.906 53.8151 116.587 53.7515 116.264 53.7515C115.613 53.7515 114.988 54.0099 114.527 54.47C114.066 54.9301 113.807 55.5543 113.806 56.2056V60.7471C113.806 61.3991 114.065 62.0244 114.526 62.4854C114.987 62.9464 115.612 63.2054 116.264 63.2054C116.916 63.2054 117.541 62.9464 118.002 62.4854C118.463 62.0244 118.722 61.3991 118.722 60.7471V56.2097C118.722 55.8869 118.658 55.5672 118.535 55.269C118.411 54.9707 118.23 54.6997 118.002 54.4715C117.774 54.2432 117.503 54.0621 117.205 53.9386Z" stroke="#12192D" stroke-width="0.369231" stroke-linecap="round" stroke-linejoin="round"/>
<path d="M118.002 66.3836C117.541 65.9226 116.916 65.6636 116.264 65.6636V65.6595C115.941 65.6595 115.621 65.7232 115.322 65.847C115.024 65.9708 114.752 66.1522 114.524 66.381C114.296 66.6097 114.115 66.8812 113.991 67.1799C113.868 67.4786 113.805 67.7987 113.806 68.1219C113.806 68.7739 114.065 69.3991 114.526 69.8602C114.987 70.3212 115.612 70.5802 116.264 70.5802C116.916 70.5802 117.541 70.3212 118.002 69.8602C118.463 69.3991 118.722 68.7739 118.722 68.1219C118.722 67.4699 118.463 66.8447 118.002 66.3836Z" stroke="#12192D" stroke-width="0.369231" stroke-linecap="round" stroke-linejoin="round"/>
</svg>
