<svg width="20" height="21" viewBox="0 0 20 21" fill="none" xmlns="http://www.w3.org/2000/svg">
<path d="M15.3335 19.2377C14.2992 20.2403 13.1699 20.082 12.0828 19.6071C10.9324 19.1216 9.87701 19.1005 8.66328 19.6071C7.14347 20.2615 6.34135 20.0715 5.43369 19.2377C0.283226 13.9289 1.04313 5.84439 6.89017 5.54887C8.31499 5.62275 9.30709 6.32988 10.1409 6.39321C11.3863 6.13991 12.5789 5.41167 13.9087 5.50665C15.5024 5.6333 16.7056 6.26656 17.4972 7.40641C14.2042 9.38005 14.9853 13.7178 18.0038 14.9316C17.4022 16.5147 16.6212 18.0873 15.323 19.2483L15.3335 19.2377ZM10.0353 5.48554C9.87701 3.13195 11.7873 1.18998 13.9826 1C14.2887 3.72299 11.5129 5.7494 10.0353 5.48554Z" fill="white"/>
</svg>
