<svg width="149" height="149" viewBox="0 0 149 149" fill="none" xmlns="http://www.w3.org/2000/svg">
<path d="M25.8194 112.423V107.276C25.8194 109.246 27.3973 111.248 30.7273 113.131C42.3606 119.747 71.0356 122.511 94.77 119.323C111.714 117.048 121.562 112.336 121.573 107.428V112.576C121.551 117.484 111.714 122.185 94.7591 124.47C71.0247 127.659 42.3497 124.884 30.7165 118.278C27.3865 116.385 25.8085 114.382 25.8194 112.423Z" fill="#D5DFE2" stroke="black" stroke-width="0.35" stroke-linecap="round" stroke-linejoin="round"/>
<path d="M113.009 99.3755C102.366 93.3249 76.1503 90.7893 54.44 93.7167C32.7406 96.6331 23.7736 103.903 34.4165 109.953C45.0595 116.004 71.275 118.539 92.9853 115.612C114.685 112.696 123.652 105.426 113.009 99.3755Z" fill="white"/>
<path d="M60.5012 116.232L61.9377 114.72C62.1444 114.502 62.003 114.143 61.7092 114.11C53.0903 113.25 45.6033 111.498 41.2612 109.028C41.1089 108.941 40.9674 108.854 40.8259 108.767C40.2709 108.43 39.618 108.321 38.9759 108.43L33.4912 109.398" stroke="#D5DFE2" stroke-width="0.35" stroke-linecap="round" stroke-linejoin="round"/>
<path d="M30.3787 101.617L34.0896 99.4297C28.6484 102.64 28.3219 106.492 34.4052 109.953C45.0481 116.004 71.2637 118.539 92.974 115.612C114.434 112.728 123.434 105.589 113.357 99.582C114.586 100.322 115.827 101.051 117.057 101.791C128.08 108.353 118.232 116.156 94.7696 119.312C71.0352 122.5 42.3602 119.725 30.7269 113.12C24.0778 109.344 24.426 105.132 30.3787 101.617Z" fill="white" stroke="#91A5AA" stroke-width="0.35" stroke-linecap="round" stroke-linejoin="round"/>
<path d="M121.573 110.595V110.029C121.551 111.956 120.017 113.838 117.144 115.558C116.904 115.699 116.698 115.906 116.556 116.145C116.262 116.657 115.99 117.114 115.697 117.614C115.533 117.897 115.283 118.126 114.989 118.267C110.266 120.498 103.127 122.37 93.9863 123.545C93.736 123.578 93.4857 123.502 93.3007 123.338L92.4627 122.598C92.1798 122.348 91.8098 122.228 91.4398 122.272C79.6651 123.556 66.9654 123.458 55.8763 122.207C55.5715 122.174 55.2668 122.272 55.0274 122.479L54.2113 123.208C53.9718 123.426 53.6454 123.523 53.3298 123.48C44.7871 122.348 37.3763 120.52 32.3486 118.104C32.0983 117.984 31.9024 117.799 31.7718 117.56C31.478 117.059 31.1407 116.461 30.9013 116.069C30.836 115.949 30.7271 115.775 30.5748 115.634C30.3789 115.46 30.1395 115.329 30.0851 115.296C28.3874 114.252 27.223 113.174 26.5374 112.097C26.2436 111.618 26.0368 111.15 25.928 110.671C25.8627 110.388 25.8301 110.106 25.8301 109.833V113.098C25.8301 113.316 25.8627 113.577 25.9171 113.795C25.9171 113.806 25.9171 113.827 25.928 113.838C25.9824 114.067 26.0477 114.295 26.1457 114.524C26.1457 114.524 26.1565 114.546 26.1565 114.556C26.2545 114.785 26.3742 115.024 26.5157 115.253C26.5157 115.264 26.5374 115.286 26.5483 115.296C26.6898 115.525 26.853 115.753 27.0489 115.982C27.0815 116.015 27.1142 116.047 27.1468 116.08C27.3318 116.287 27.5168 116.493 27.7345 116.7C27.7998 116.766 27.876 116.82 27.9521 116.885C28.148 117.059 28.3439 117.244 28.5724 117.418C28.7139 117.527 28.8771 117.636 29.0295 117.745C29.2036 117.876 29.3668 118.006 29.5627 118.126C29.9218 118.365 30.3027 118.594 30.7163 118.833C35.7874 121.717 44.1015 123.861 53.8195 125.112C55.3321 125.308 56.8774 125.482 58.4554 125.624C58.4989 125.624 58.5424 125.624 58.586 125.635C60.1095 125.776 61.6548 125.896 63.2218 126.005C63.3198 126.005 63.4177 126.016 63.5048 126.026C65.0392 126.124 66.5954 126.201 68.1624 126.255C68.2604 126.255 68.3474 126.255 68.4454 126.255C70.056 126.309 71.6774 126.342 73.2989 126.342C73.3316 126.342 73.3642 126.342 73.3968 126.342C80.5683 126.364 87.8704 125.95 94.748 125.025C103.802 123.806 110.832 121.902 115.414 119.638C116.393 119.149 117.264 118.648 118.014 118.137C118.036 118.126 118.047 118.115 118.069 118.104C118.417 117.865 118.744 117.614 119.048 117.364C119.081 117.342 119.114 117.31 119.135 117.288C119.418 117.048 119.679 116.798 119.919 116.559C119.952 116.526 119.984 116.493 120.006 116.461C120.234 116.221 120.43 115.971 120.615 115.732C120.637 115.699 120.659 115.666 120.692 115.623C120.866 115.373 121.007 115.122 121.127 114.883C121.138 114.85 121.159 114.818 121.17 114.785C121.29 114.535 121.377 114.273 121.442 114.012C121.442 113.991 121.442 113.969 121.453 113.947C121.508 113.675 121.551 113.414 121.551 113.142V112.249V110.595H121.573Z" fill="#2E4247" stroke="black" stroke-width="0.35" stroke-linecap="round" stroke-linejoin="round"/>
<path d="M117.068 101.791C115.838 101.051 114.597 100.322 113.368 99.5823C113.476 99.6476 113.563 99.7129 113.661 99.7673C113.455 99.6367 113.237 99.5061 113.008 99.3755C102.365 93.3249 76.1499 90.7893 54.4396 93.7167C45.0481 94.979 38.0508 97.0576 33.9808 99.4952C34.0134 99.4734 34.046 99.4517 34.0896 99.4299L30.3787 101.617C24.426 105.132 24.0778 109.344 30.7269 113.12C42.3602 119.736 71.0352 122.501 94.7696 119.312C118.232 116.156 128.08 108.353 117.057 101.791H117.068Z" stroke="black" stroke-width="0.35" stroke-linecap="round" stroke-linejoin="round"/>
<path d="M110.822 99.6692C110.321 99.3863 109.766 99.1034 109.189 98.8313C109.08 98.7769 108.95 98.7551 108.819 98.7769L105.794 99.1251C105.631 99.1469 105.511 99.3645 105.685 99.4516C106.186 99.6801 106.654 99.9304 107.089 100.17C111.028 102.412 111.801 104.838 109.908 107.08C109.712 107.32 109.842 107.679 110.147 107.722L112.846 108.092C113.053 108.125 113.259 108.049 113.412 107.907C116.154 105.274 115.512 102.346 110.811 99.6801L110.822 99.6692Z" fill="#D5DFE2"/>
<path d="M56.7469 95.1748C56.366 95.0007 55.2342 94.5001 55.2342 94.5001C55.0927 94.4348 54.9404 94.4239 54.7989 94.4348C40.6519 96.4372 32.4466 100.42 32.4248 104.577C32.4248 104.893 32.6751 105.154 32.9907 105.132L35.9398 104.958C36.201 104.947 36.4295 104.74 36.4404 104.479C36.5927 100.757 43.9601 97.2098 56.6163 95.4251C56.8013 95.4034 57.008 95.2837 56.7469 95.1639V95.1748Z" fill="#D5DFE2"/>
<path d="M101.202 101.095C97.7737 99.147 92.0169 97.7214 85.3352 96.9487L73.9849 102.814L86.7825 111.89C87.2505 112.228 87.8381 112.369 88.4149 112.282C102.714 110.138 108.449 105.219 101.213 101.106L101.202 101.095Z" stroke="#D5DFE2" stroke-width="0.35" stroke-linecap="round" stroke-linejoin="round"/>
<path d="M51.9589 99.8978C53.2866 99.4516 53.7981 99.2993 54.7231 99.0381C53.2757 99.5713 51.6542 100.007 50.6531 101.236C49.9675 102.074 49.8804 103.086 50.5225 103.979C51.0231 104.664 51.7522 105.165 52.4813 105.578C58.2272 108.843 72.3851 110.214 84.1163 108.636C95.8366 107.058 100.679 103.13 94.9333 99.8651C94.9333 99.8651 97.4036 100.801 98.2089 101.193C100.244 102.15 101.136 103.445 101.082 104.599C100.962 107.374 95.3469 110.029 85.7486 111.313C72.1675 113.142 55.7678 111.553 49.1078 107.766C48.0304 107.156 46.7572 106.286 46.3981 105.023C46.0934 103.968 46.6266 102.967 47.4101 102.292C48.3242 101.498 50.3701 100.431 51.9481 99.8978H51.9589Z" fill="#2E4247" stroke="black" stroke-width="0.35" stroke-linecap="round" stroke-linejoin="round"/>
<path d="M97.1967 100.899C103.563 104.512 98.1979 108.854 85.2261 110.606C72.2543 112.347 56.5838 110.835 50.2176 107.222C43.8514 103.609 49.2164 99.2667 62.1882 97.5146C75.1599 95.7734 90.8305 97.2861 97.1967 100.899Z" fill="white" stroke="black" stroke-width="0.35" stroke-linecap="round" stroke-linejoin="round"/>
<path d="M97.1967 100.899C103.563 104.512 98.1979 108.854 85.2261 110.606C72.2543 112.347 56.5838 110.835 50.2176 107.222C43.8514 103.609 49.2164 99.2667 62.1882 97.5146C75.1599 95.7734 90.8305 97.2861 97.1967 100.899Z" fill="#D5DFE2" stroke="black" stroke-width="0.35" stroke-linecap="round" stroke-linejoin="round"/>
<path d="M98.6984 102.172C98.6984 102.172 98.6222 102.096 98.5787 102.053L75.1054 106.112L95.8799 100.398C95.8037 100.366 95.7384 100.333 95.6622 100.301L74.8987 106.014L91.6031 98.9402C91.5051 98.9185 91.4072 98.8858 91.2984 98.8641L74.6157 105.927L86.2707 97.852C86.151 97.8302 86.0204 97.8193 85.9007 97.7976L74.2566 105.861L80.2419 97.1773C80.1113 97.1773 79.9807 97.1555 79.8502 97.1446L73.8649 105.829V96.927C73.7234 96.927 73.5928 96.927 73.4513 96.927V105.818L67.4552 97.112C67.3246 97.112 67.1831 97.1338 67.0525 97.1338L73.0487 105.84L61.3719 97.7432C61.2522 97.7649 61.1216 97.7758 61.0019 97.7976L72.6896 105.894L55.9416 98.8096C55.8437 98.8314 55.7349 98.8641 55.6369 98.8858L72.3957 105.981L51.6104 100.268C51.5343 100.301 51.4581 100.333 51.3928 100.366L72.1999 106.09L48.7593 102.042C48.7593 102.042 48.6831 102.118 48.6504 102.161L72.1019 106.21L47.7363 104.001C47.7363 104.001 47.7363 104.077 47.7363 104.12L72.1019 106.329L48.7157 105.992C48.7157 105.992 48.7919 106.068 48.8354 106.112L72.1999 106.449L51.5996 107.809C51.6757 107.842 51.7628 107.875 51.839 107.907L72.4066 106.547L56.0178 109.289C56.1266 109.311 56.2246 109.344 56.3334 109.376L72.7113 106.634L61.4154 110.367C61.5351 110.388 61.6657 110.399 61.7963 110.421L73.0704 106.688L67.3354 111.009C67.466 111.009 67.5966 111.031 67.7272 111.041L73.4731 106.71V111.237C73.6146 111.237 73.7452 111.237 73.8866 111.237V106.71L79.6543 111.063C79.7849 111.063 79.9263 111.052 80.0569 111.041L74.2784 106.688L85.6831 110.465C85.8137 110.443 85.9334 110.432 86.064 110.41L74.6375 106.623L91.2331 109.409C91.3419 109.387 91.4507 109.355 91.5596 109.333L74.9204 106.547L95.7601 107.929C95.8363 107.896 95.9125 107.864 95.9887 107.82L75.1272 106.438L98.7201 106.101C98.7201 106.101 98.7963 106.025 98.829 105.981L75.236 106.318L99.7322 104.098C99.7322 104.098 99.7322 104.022 99.7322 103.979L75.2469 106.199L98.731 102.14L98.6984 102.172Z" fill="white"/>
<path d="M88.7299 104.349C92.7999 106.656 89.3719 109.431 81.0796 110.552C72.7872 111.662 62.7646 110.693 58.7055 108.386C54.6355 106.079 58.0634 103.304 66.3558 102.183C74.6481 101.062 84.6708 102.042 88.7299 104.349Z" fill="white"/>
<path d="M83.3981 105.208C86.0207 106.699 83.8116 108.495 78.4575 109.213C73.1034 109.931 66.6393 109.311 64.0166 107.82C61.394 106.329 63.6031 104.534 68.9572 103.815C74.3113 103.097 80.7755 103.717 83.3981 105.208Z" fill="#F7B100"/>
<path d="M19.3444 95.1423C16.9067 89.8534 39.7379 74.1067 70.3609 59.9705C100.973 45.8343 127.776 38.6629 130.214 43.9517" stroke="black" stroke-width="0.35" stroke-linecap="round" stroke-linejoin="round"/>
<path d="M35.8094 80.4728C36.7229 80.4728 37.4635 79.7322 37.4635 78.8187C37.4635 77.9051 36.7229 77.1646 35.8094 77.1646C34.8958 77.1646 34.1553 77.9051 34.1553 78.8187C34.1553 79.7322 34.8958 80.4728 35.8094 80.4728Z" fill="#F7B100"/>
<path d="M45.9036 15.4613C47.3069 15.4613 48.4444 14.3237 48.4444 12.9204C48.4444 11.5172 47.3069 10.3796 45.9036 10.3796C44.5004 10.3796 43.3628 11.5172 43.3628 12.9204C43.3628 14.3237 44.5004 15.4613 45.9036 15.4613Z" fill="white" stroke="#121212" stroke-width="0.35" stroke-miterlimit="10" stroke-linecap="round" stroke-linejoin="round"/>
<path d="M22.6127 24.7776C23.3143 24.7776 23.8831 24.2088 23.8831 23.5072C23.8831 22.8056 23.3143 22.2368 22.6127 22.2368C21.9111 22.2368 21.3423 22.8056 21.3423 23.5072C21.3423 24.2088 21.9111 24.7776 22.6127 24.7776Z" fill="white" stroke="#121212" stroke-width="0.35" stroke-miterlimit="10" stroke-linecap="round" stroke-linejoin="round"/>
<path d="M29.8458 32.3998L25.5776 36.668L29.8458 40.9361L34.114 36.668L29.8458 32.3998Z" fill="white" stroke="#121212" stroke-width="0.35" stroke-miterlimit="9.9998" stroke-linecap="round" stroke-linejoin="round"/>
<path d="M65.3589 97.6037L65.3728 97.6085L65.3874 97.611C68.0723 98.0584 71.1235 98.0309 73.8833 98.006C74.4985 98.0004 75.0992 97.995 75.6781 97.995C92.6713 97.995 106.4 81.7504 106.4 61.7748C106.4 41.7992 92.6713 25.5546 75.6781 25.5546C75.2519 25.5546 74.7866 25.5523 74.2941 25.55C73.0238 25.5439 71.5727 25.5369 70.1449 25.5652C68.1655 25.6045 66.2148 25.7119 64.8378 25.9873L64.8255 25.9898L64.8136 25.994C52.1314 30.4874 44.9563 45.4415 44.9563 61.7748C44.9563 78.1849 52.5917 93.1753 65.3589 97.6037Z" fill="#D8E2E5" stroke="black" stroke-width="0.35"/>
<mask id="mask0_2846_16447" style="mask-type:alpha" maskUnits="userSpaceOnUse" x="45" y="25" width="62" height="73">
<ellipse cx="75.6781" cy="61.7747" rx="30.5468" ry="36.0452" fill="#D8E2E5"/>
</mask>
<g mask="url(#mask0_2846_16447)">
<rect x="90.2935" y="37.6626" width="15.9192" height="4.97476" transform="rotate(-13.2032 90.2935 37.6626)" fill="white"/>
<rect x="91.3633" y="44.0605" width="15.9192" height="2.06161" transform="rotate(-13.2032 91.3633 44.0605)" fill="white"/>
</g>
<ellipse cx="69.3012" cy="61.7747" rx="30.5468" ry="36.0452" fill="white" stroke="black" stroke-width="0.35"/>
<path d="M69.3017 88.1029C81.4054 88.1029 91.1645 76.2834 91.1645 61.7749C91.1645 47.2664 81.4054 35.4468 69.3017 35.4468C57.1979 35.4468 47.4388 47.2664 47.4388 61.7749C47.4388 76.2834 57.1979 88.1029 69.3017 88.1029Z" fill="url(#paint0_linear_2846_16447)" stroke="black" stroke-width="0.35"/>
<g opacity="0.8">
<mask id="mask1_2846_16447" style="mask-type:alpha" maskUnits="userSpaceOnUse" x="47" y="35" width="45" height="53">
<ellipse cx="69.3539" cy="61.7385" rx="21.6879" ry="26.153" fill="url(#paint1_linear_2846_16447)"/>
</mask>
<g mask="url(#mask1_2846_16447)">
<line y1="-0.175" x2="55.0797" y2="-0.175" transform="matrix(0.997859 0.0654031 -0.0165799 0.999863 41.333 33.2354)" stroke="white" stroke-width="0.35"/>
<line y1="-0.175" x2="55.0797" y2="-0.175" transform="matrix(0.997859 0.0654031 -0.0165799 0.999863 41.333 48.5444)" stroke="white" stroke-width="0.35"/>
<line y1="-0.175" x2="55.0797" y2="-0.175" transform="matrix(0.997859 0.0654031 -0.0165799 0.999863 41.333 63.8535)" stroke="white" stroke-width="0.35"/>
<line y1="-0.175" x2="55.0797" y2="-0.175" transform="matrix(0.997859 0.0654031 -0.0165799 0.999863 41.333 79.1626)" stroke="white" stroke-width="0.35"/>
<line y1="-0.175" x2="88.0516" y2="-0.175" transform="matrix(0.00354803 0.999994 -0.975806 -0.21864 85.6484 19.1431)" stroke="white" stroke-width="0.35"/>
<line y1="-0.175" x2="88.0516" y2="-0.175" transform="matrix(0.00354803 0.999994 -0.975806 -0.21864 70.5083 21.415)" stroke="white" stroke-width="0.35"/>
<line y1="-0.175" x2="88.0516" y2="-0.175" transform="matrix(0.00354803 0.999994 -0.975806 -0.21864 55.3691 23.6868)" stroke="white" stroke-width="0.35"/>
</g>
</g>
<path d="M68.3811 48.7509C69.7427 48.6515 70.8499 49.8684 70.8522 51.4678L70.8826 64.2674C70.887 65.8685 69.7854 67.2446 68.4238 67.3439C67.0622 67.4433 65.955 66.2264 65.9508 64.6273L65.9202 51.8257C65.9179 50.2263 67.0174 48.8485 68.3811 48.7509Z" fill="black" stroke="black" stroke-width="0.307312" stroke-miterlimit="10"/>
<path d="M71.319 73.3348C71.6833 71.4381 70.687 69.6434 69.0937 69.3261C67.5004 69.0089 65.9135 70.2893 65.5492 72.186C65.1849 74.0828 66.1813 75.8775 67.7745 76.1947C69.3678 76.512 70.9547 75.2315 71.319 73.3348Z" fill="black" stroke="black" stroke-width="0.307312" stroke-miterlimit="10"/>
<path d="M130.214 43.9407C132.652 49.2295 109.821 64.9763 79.1977 79.1124C48.5856 93.2486 21.7933 100.431 19.3447 95.1421" stroke="black" stroke-width="0.35" stroke-linecap="round" stroke-linejoin="round"/>
<path d="M119.049 59.1761C120.473 59.1761 121.628 58.0213 121.628 56.5969C121.628 55.1725 120.473 54.0178 119.049 54.0178C117.624 54.0178 116.47 55.1725 116.47 56.5969C116.47 58.0213 117.624 59.1761 119.049 59.1761Z" fill="#F7B100"/>
<defs>
<linearGradient id="paint0_linear_2846_16447" x1="69.3017" y1="35.6218" x2="69.3017" y2="87.9279" gradientUnits="userSpaceOnUse">
<stop stop-color="#F7B100"/>
<stop offset="1" stop-color="#F7B100" stop-opacity="0.6"/>
</linearGradient>
<linearGradient id="paint1_linear_2846_16447" x1="69.3539" y1="35.5854" x2="69.3539" y2="87.8915" gradientUnits="userSpaceOnUse">
<stop stop-color="white"/>
<stop offset="1" stop-color="white" stop-opacity="0"/>
</linearGradient>
</defs>
</svg>
