<svg width="60" height="61" viewBox="0 0 60 61" fill="none" xmlns="http://www.w3.org/2000/svg">
<g clip-path="url(#clip0_2025_33810)">
<path d="M166.736 -312.014H-454.692V148.701H166.736V-312.014Z" fill="#121212"/>
<path d="M27.3066 52.7939C39.6693 52.7939 49.6913 42.7719 49.6913 30.4091C49.6913 18.0464 39.6693 8.02441 27.3066 8.02441C14.9439 8.02441 4.92188 18.0464 4.92188 30.4091C4.92188 42.7719 14.9439 52.7939 27.3066 52.7939Z" stroke="white" stroke-width="0.4" stroke-miterlimit="10"/>
<path d="M9.12052 29.5508C9.14314 29.3473 9.32157 27.4569 9.40073 27.2646L57.3354 23.3135C57.3354 23.8594 57.4228 25.3195 57.0722 25.7606C57.027 25.8058 56.9817 25.8624 56.9365 25.9076C56.8913 25.9528 56.846 25.9981 56.7895 26.0433C56.7329 26.0886 56.6764 26.1338 56.6198 26.1677C56.552 26.2017 56.4954 26.2356 56.4276 26.2695L21.8475 44.5482C21.4177 44.7631 21.2305 44.6952 20.7555 44.7178C20.2805 44.7405 19.5177 44.8649 19.0541 44.7178C18.5904 44.5821 18.138 44.3559 17.7422 44.0619C17.335 43.7679 16.7722 43.4307 16.5007 43.001L9.61813 31.5187C9.48242 31.3038 9.36933 31.0889 9.29016 30.8627C9.19969 30.6365 9.14314 30.4103 9.12052 30.1955C9.0979 29.9806 9.0979 29.7657 9.12052 29.5508Z" fill="#121212" stroke="white" stroke-width="0.4" stroke-linecap="round" stroke-linejoin="round"/>
<path d="M46.0569 10.3794C46.3485 10.2569 46.6818 10.2012 47.0151 10.2123C47.3484 10.2235 47.7025 10.3014 48.0462 10.4239C48.39 10.5464 48.7232 10.7357 49.0357 10.9695C49.3482 11.2034 49.6294 11.4818 49.8689 11.8047L56.6701 21.1361C56.9201 21.4702 57.0972 21.8265 57.2013 22.1717C57.3055 22.5169 57.3575 22.8621 57.3263 23.185C57.295 23.5079 57.2117 23.8086 57.0555 24.0536C56.8993 24.2985 56.6701 24.5212 56.3785 24.666L21.6434 42.6162C21.2476 42.8166 20.8102 42.9279 20.3728 42.9614C19.9353 42.9948 19.477 42.9168 19.0396 42.7832C18.6021 42.6496 18.1855 42.4157 17.8106 42.1262C17.4356 41.8367 17.1128 41.4692 16.8524 41.0461L9.78038 29.4431C9.54082 29.0422 9.38459 28.6302 9.3221 28.2182C9.25961 27.8062 9.29086 27.4053 9.39501 27.0267C9.49916 26.6481 9.68664 26.314 9.94702 26.0134C10.2074 25.7127 10.5407 25.4789 10.9365 25.3118L46.0465 10.3794H46.0569Z" fill="#121212" stroke="white" stroke-width="0.4" stroke-linecap="round" stroke-linejoin="round"/>
<path d="M42.1136 17.3057L48.5851 26.0789L46.9337 26.8324L40.4518 17.9766L42.1136 17.3057Z" fill="url(#paint0_linear_2025_33810)"/>
<path d="M35.1563 20.1545C35.6105 19.9687 36.0852 19.8758 36.5394 19.8655C36.9935 19.8552 37.4477 19.9377 37.8812 20.0822C38.3147 20.2267 38.7172 20.4435 39.0888 20.7222C39.4604 21.0009 39.7906 21.3311 40.059 21.7027C40.3274 22.0743 40.5338 22.4768 40.637 22.8587C40.7402 23.2406 40.7815 23.6328 40.7093 23.9941C40.637 24.3553 40.4925 24.6959 40.2345 24.9953C39.9764 25.2946 39.6255 25.5526 39.1714 25.759L37.458 26.5125L39.9455 29.9908L38.1805 30.7959L31.647 21.5789L35.146 20.1442L35.1563 20.1545ZM37.9637 24.2108C38.1599 24.1283 38.3147 24.0147 38.4282 23.8909C38.5417 23.767 38.614 23.6225 38.6553 23.4677C38.6966 23.3129 38.6863 23.1477 38.6346 22.9722C38.583 22.7968 38.5005 22.6213 38.3663 22.4355C38.2321 22.2497 38.0876 22.0949 37.9121 21.9711C37.7367 21.8472 37.5612 21.7543 37.3754 21.6924C37.1896 21.6305 36.9935 21.5995 36.7871 21.6098C36.5807 21.6201 36.3846 21.6614 36.1885 21.744L34.5577 22.4252L36.333 24.9127L37.9637 24.2108Z" fill="url(#paint1_linear_2025_33810)"/>
<path d="M26.0531 23.8908L36.034 31.797L34.1348 32.664L32.4008 31.219L29.0051 32.7363L29.6037 34.718L27.6117 35.6263L24.5771 24.4894L26.0428 23.8908H26.0531ZM28.458 30.9197L30.832 29.8772L27.2814 26.9356L28.458 30.9197Z" fill="url(#paint2_linear_2025_33810)"/>
<path d="M36.924 47.0918L31.9818 44.1288L22.0182 38.1461L22.776 43.9252C22.776 43.9252 22.6742 43.9252 22.6176 43.9139C11.2743 42.749 2.81494 38.3044 1.38996 32.0617L1.34473 32.0391L2.14769 38.1687C2.97327 44.8865 11.7493 49.693 23.6807 50.8918L24.3706 56.1619L36.9127 47.1031L36.924 47.0918Z" fill="url(#paint3_linear_2025_33810)"/>
</g>
<defs>
<linearGradient id="paint0_linear_2025_33810" x1="27.3914" y1="18.1887" x2="33.0871" y2="39.2211" gradientUnits="userSpaceOnUse">
<stop stop-color="#8A8991"/>
<stop offset="0.03" stop-color="#A3A3A9"/>
<stop offset="0.08" stop-color="#CBCACE"/>
<stop offset="0.12" stop-color="#E7E7E8"/>
<stop offset="0.16" stop-color="#F8F8F9"/>
<stop offset="0.19" stop-color="white"/>
<stop offset="0.33" stop-color="#F9F5E8"/>
<stop offset="0.37" stop-color="#E6E9E1"/>
<stop offset="0.42" stop-color="#D1DCDB"/>
<stop offset="0.46" stop-color="#CAD8D9"/>
<stop offset="0.6" stop-color="#B0ACC2"/>
<stop offset="0.76" stop-color="#A9AAAF"/>
<stop offset="1" stop-color="#57555C"/>
</linearGradient>
<linearGradient id="paint1_linear_2025_33810" x1="27.3914" y1="18.1887" x2="33.0871" y2="39.2211" gradientUnits="userSpaceOnUse">
<stop stop-color="#8A8991"/>
<stop offset="0.03" stop-color="#A3A3A9"/>
<stop offset="0.08" stop-color="#CBCACE"/>
<stop offset="0.12" stop-color="#E7E7E8"/>
<stop offset="0.16" stop-color="#F8F8F9"/>
<stop offset="0.19" stop-color="white"/>
<stop offset="0.33" stop-color="#F9F5E8"/>
<stop offset="0.37" stop-color="#E6E9E1"/>
<stop offset="0.42" stop-color="#D1DCDB"/>
<stop offset="0.46" stop-color="#CAD8D9"/>
<stop offset="0.6" stop-color="#B0ACC2"/>
<stop offset="0.76" stop-color="#A9AAAF"/>
<stop offset="1" stop-color="#57555C"/>
</linearGradient>
<linearGradient id="paint2_linear_2025_33810" x1="27.3914" y1="18.1887" x2="33.0871" y2="39.2211" gradientUnits="userSpaceOnUse">
<stop stop-color="#8A8991"/>
<stop offset="0.03" stop-color="#A3A3A9"/>
<stop offset="0.08" stop-color="#CBCACE"/>
<stop offset="0.12" stop-color="#E7E7E8"/>
<stop offset="0.16" stop-color="#F8F8F9"/>
<stop offset="0.19" stop-color="white"/>
<stop offset="0.33" stop-color="#F9F5E8"/>
<stop offset="0.37" stop-color="#E6E9E1"/>
<stop offset="0.42" stop-color="#D1DCDB"/>
<stop offset="0.46" stop-color="#CAD8D9"/>
<stop offset="0.6" stop-color="#B0ACC2"/>
<stop offset="0.76" stop-color="#A9AAAF"/>
<stop offset="1" stop-color="#57555C"/>
</linearGradient>
<linearGradient id="paint3_linear_2025_33810" x1="5.51533" y1="33.2018" x2="12.2758" y2="61.2995" gradientUnits="userSpaceOnUse">
<stop stop-color="#8A8991"/>
<stop offset="0.03" stop-color="#A3A3A9"/>
<stop offset="0.08" stop-color="#CBCACE"/>
<stop offset="0.12" stop-color="#E7E7E8"/>
<stop offset="0.16" stop-color="#F8F8F9"/>
<stop offset="0.19" stop-color="white"/>
<stop offset="0.33" stop-color="#F9F5E8"/>
<stop offset="0.37" stop-color="#E6E9E1"/>
<stop offset="0.42" stop-color="#D1DCDB"/>
<stop offset="0.46" stop-color="#CAD8D9"/>
<stop offset="0.6" stop-color="#B0ACC2"/>
<stop offset="0.76" stop-color="#A9AAAF"/>
<stop offset="1" stop-color="#57555C"/>
</linearGradient>
<clipPath id="clip0_2025_33810">
<rect width="60" height="60" fill="white" transform="translate(0 0.5)"/>
</clipPath>
</defs>
</svg>
