<svg width="184" height="184" viewBox="0 0 184 184" fill="none" xmlns="http://www.w3.org/2000/svg">
<path d="M178.21 131.51L98.9801 177.55C95.0601 179.83 88.6701 179.83 84.7201 177.55L4.98008 131.52C2.99008 130.37 2.00007 128.86 2.00007 127.36V130C1.99008 131.5 2.98008 133.01 4.97008 134.16L84.7101 180.2C88.6601 182.48 95.0401 182.48 98.9701 180.2L178.2 134.16C180.15 133.03 181.13 131.54 181.13 130.06V127.42C181.13 128.91 180.16 130.39 178.21 131.52V131.51Z" fill="#1D1D1D" stroke="#1D1D1D" stroke-width="0.4" stroke-miterlimit="10"/>
<path d="M178.16 123.26C182.11 125.54 182.13 129.24 178.21 131.52L98.9801 177.56C95.0601 179.84 88.6701 179.84 84.7201 177.56L4.98006 131.52C1.03006 129.24 1.01006 125.54 4.93006 123.26L84.1601 77.22C88.0801 74.94 94.4701 74.94 98.4201 77.22L178.16 123.26Z" fill="white" stroke="#1D1D1D" stroke-width="0.4" stroke-miterlimit="10"/>
<path d="M87.7603 158.45C87.0703 158.45 86.3903 158.27 85.7703 157.92L31.1603 126.39C30.7903 126.18 30.5703 125.8 30.5703 125.38C30.5703 124.96 30.7903 124.58 31.1603 124.37L87.7603 91.6904L146.12 125.38L89.7503 157.92C89.1403 158.27 88.4503 158.45 87.7603 158.45ZM85.9903 157.55C87.0803 158.18 88.4403 158.18 89.5403 157.55L145.26 125.38L87.7603 92.1804L31.3803 124.73C31.1503 124.86 31.0103 125.1 31.0103 125.37C31.0103 125.64 31.1503 125.88 31.3803 126.01L85.9903 157.54V157.55Z" fill="#E5E5E5"/>
<path d="M87.2801 128.89L129.6 152.92L168.72 131.22C171.26 129.86 171.23 126.2 168.67 124.88L134.03 105.29C132.98 104.75 131.72 104.76 130.68 105.33L87.2701 128.9L87.2801 128.89Z" fill="#E5E5E5"/>
<path d="M130.98 142.79L136.98 139.3L80.2301 106.54L74.2301 110.03L130.98 142.79Z" fill="white" stroke="#1D1D1D" stroke-width="0.4" stroke-linejoin="round"/>
<path d="M137.25 43.2004L131.25 46.6904L130.98 137.18L130.96 149.94C130.96 151.4 130.44 152.43 129.6 152.92C131.6 151.76 133.6 150.59 135.6 149.43C136.44 148.94 136.95 147.91 136.96 146.45L136.98 134.7L137.25 43.1904V43.2004Z" fill="#C6C6C6" stroke="#1D1D1D" stroke-width="0.4" stroke-miterlimit="10"/>
<path d="M131.25 46.6797L137.25 43.1997L80.5101 10.4297L74.5101 13.9197L131.25 46.6797Z" fill="white" stroke="#1D1D1D" stroke-width="0.4" stroke-linejoin="round"/>
<path d="M74.5101 13.9199L74.2401 105.42L74.2201 117.17C74.2201 120.12 76.2901 123.72 78.8601 125.2L126.29 152.59C128.86 154.07 130.95 152.89 130.96 149.93L130.98 138.18L131.25 46.6699L74.5101 13.9199Z" fill="white" stroke="#1D1D1D" stroke-width="0.4" stroke-linejoin="round"/>
<path d="M96.0801 15.1001C96.0801 14.7401 96.2101 14.4901 96.4101 14.3701L90.4101 17.8601C90.2101 17.9801 90.0801 18.2301 90.0801 18.5901C90.2101 18.5201 90.3801 18.4201 90.5101 18.3401C90.5801 18.3001 90.6701 18.2501 90.7401 18.2101C91.2101 17.9301 91.6801 17.6601 92.1501 17.3901C92.8201 17.0001 93.4901 16.6101 94.1601 16.2201C94.8001 15.8501 95.4401 15.4801 96.0801 15.1001C94.0801 16.2601 92.0801 17.4301 90.0801 18.5901C90.0801 19.3201 90.5801 20.1901 91.2101 20.5501L97.2101 17.0601C96.5901 16.7001 96.0801 15.8201 96.0801 15.1001Z" fill="white"/>
<mask id="mask0_9_1204" style="mask-type:luminance" maskUnits="userSpaceOnUse" x="90" y="14" width="8" height="7">
<path d="M96.0801 15.1001C96.0801 14.7401 96.2101 14.4901 96.4101 14.3701L90.4101 17.8601C90.2101 17.9801 90.0801 18.2301 90.0801 18.5901C90.2101 18.5201 90.3801 18.4201 90.5101 18.3401C90.5801 18.3001 90.6701 18.2501 90.7401 18.2101C91.2101 17.9301 91.6801 17.6601 92.1501 17.3901C92.8201 17.0001 93.4901 16.6101 94.1601 16.2201C94.8001 15.8501 95.4401 15.4801 96.0801 15.1001C94.0801 16.2601 92.0801 17.4301 90.0801 18.5901C90.0801 19.3201 90.5801 20.1901 91.2101 20.5501L97.2101 17.0601C96.5901 16.7001 96.0801 15.8201 96.0801 15.1001Z" fill="white"/>
</mask>
<g mask="url(#mask0_9_1204)">
<path d="M91.2103 20.5505L97.2103 17.0605C97.0803 16.9805 96.9503 16.8805 96.8303 16.7705L90.8303 20.2605C90.9503 20.3805 91.0703 20.4805 91.2103 20.5505Z" fill="white" stroke="#1D1D1D" stroke-width="0.4" stroke-linejoin="round"/>
<path d="M90.8301 20.2501L96.8301 16.7601C96.8301 16.7601 96.7501 16.6701 96.7101 16.6301L90.7101 20.1201C90.7101 20.1201 90.7901 20.2101 90.8301 20.2501Z" fill="white" stroke="#1D1D1D" stroke-width="0.4" stroke-linejoin="round"/>
<path d="M90.7099 20.1205L96.7099 16.6305C96.7099 16.6305 96.6499 16.5605 96.6199 16.5205L90.6199 20.0105C90.6199 20.0105 90.6799 20.0905 90.7099 20.1205Z" fill="white" stroke="#1D1D1D" stroke-width="0.4" stroke-linejoin="round"/>
<path d="M90.6101 20.0102L96.6101 16.5202C96.6101 16.5202 96.5601 16.4502 96.5301 16.4202L90.5301 19.9102C90.5301 19.9102 90.5801 19.9802 90.6101 20.0102Z" fill="white" stroke="#1D1D1D" stroke-width="0.4" stroke-linejoin="round"/>
<path d="M90.5401 19.9101L96.5401 16.4201C96.5401 16.4201 96.5001 16.3501 96.4801 16.3201L90.4801 19.8101C90.4801 19.8101 90.5201 19.8701 90.5501 19.9101H90.5401Z" fill="white" stroke="#1D1D1D" stroke-width="0.4" stroke-linejoin="round"/>
<path d="M90.4699 19.8105L96.4699 16.3205C96.4699 16.3205 96.4299 16.2605 96.4099 16.2305L90.4099 19.7205C90.4099 19.7205 90.4499 19.7805 90.4699 19.8105Z" fill="white" stroke="#1D1D1D" stroke-width="0.4" stroke-linejoin="round"/>
<path d="M90.4101 19.7196L96.4101 16.2296C96.4101 16.2296 96.3801 16.1596 96.3601 16.1396L90.3601 19.6296C90.3601 19.6296 90.4001 19.6896 90.4101 19.7196Z" fill="white" stroke="#1D1D1D" stroke-width="0.4" stroke-linejoin="round"/>
<path d="M90.3601 19.62L96.3601 16.13C96.3601 16.13 96.3301 16.06 96.3101 16.04L90.3101 19.52C90.3101 19.52 90.3401 19.59 90.3601 19.62Z" fill="white" stroke="#1D1D1D" stroke-width="0.4" stroke-linejoin="round"/>
<path d="M90.3201 19.5302L96.3201 16.0502C96.3201 16.0502 96.2901 15.9802 96.2701 15.9502L90.2701 19.4402C90.2701 19.4402 90.3001 19.5102 90.3201 19.5402V19.5302Z" fill="white" stroke="#1D1D1D" stroke-width="0.4" stroke-linejoin="round"/>
<path d="M90.2702 19.4298L96.2702 15.9398C96.2702 15.9398 96.2402 15.8698 96.2302 15.8398L90.2302 19.3298C90.2302 19.3298 90.2602 19.3998 90.2702 19.4298Z" fill="white" stroke="#1D1D1D" stroke-width="0.4" stroke-linejoin="round"/>
<path d="M90.2302 19.3305L96.2302 15.8405C96.2302 15.8405 96.2002 15.7705 96.1902 15.7305L90.1902 19.2205C90.1902 19.2205 90.2202 19.2905 90.2302 19.3305Z" fill="white" stroke="#1D1D1D" stroke-width="0.4" stroke-linejoin="round"/>
<path d="M90.1901 19.2201L96.1901 15.7301C96.1901 15.7301 96.1701 15.6601 96.1501 15.6201L90.1501 19.1101C90.1501 19.1101 90.1701 19.1901 90.1801 19.2301L90.1901 19.2201Z" fill="white" stroke="#1D1D1D" stroke-width="0.4" stroke-linejoin="round"/>
<path d="M90.1501 19.1102L96.1501 15.6202C96.1501 15.6202 96.1301 15.5302 96.1201 15.4902L90.1201 18.9802C90.1201 18.9802 90.1401 19.0702 90.1501 19.1102Z" fill="white" stroke="#1D1D1D" stroke-width="0.4" stroke-linejoin="round"/>
<path d="M90.1201 18.9801L96.1201 15.4901C96.1101 15.4401 96.1001 15.3901 96.0901 15.3301L90.0901 18.8201C90.0901 18.8701 90.1101 18.9301 90.1201 18.9801Z" fill="white" stroke="#1D1D1D" stroke-width="0.4" stroke-linejoin="round"/>
<path d="M90.1001 18.8201L96.1001 15.3301C96.0901 15.2501 96.0901 15.1801 96.0901 15.1001C96.0901 14.7401 96.2201 14.4901 96.4201 14.3701L90.4201 17.8601C90.2201 17.9801 90.0901 18.2301 90.0901 18.5901C90.0901 18.6601 90.0901 18.7401 90.1001 18.8101V18.8201Z" fill="white" stroke="#1D1D1D" stroke-width="0.4" stroke-linejoin="round"/>
</g>
<path d="M96.0801 15.1001C96.0801 14.7401 96.2101 14.4901 96.4101 14.3701L90.4101 17.8601C90.2101 17.9801 90.0801 18.2301 90.0801 18.5901M96.0801 15.1001C95.4401 15.4801 94.8001 15.8501 94.1601 16.2201C93.4901 16.6101 92.8201 17.0001 92.1501 17.3901C91.6801 17.6601 91.2101 17.9301 90.7401 18.2101C90.6701 18.2501 90.5801 18.3001 90.5101 18.3401C90.3801 18.4201 90.2101 18.5201 90.0801 18.5901M96.0801 15.1001C94.0801 16.2601 92.0801 17.4301 90.0801 18.5901M96.0801 15.1001C96.0801 15.8201 96.5901 16.7001 97.2101 17.0601L91.2101 20.5501C90.5801 20.1901 90.0801 19.3201 90.0801 18.5901" stroke="#1D1D1D" stroke-width="0.4" stroke-linejoin="round"/>
<path d="M96.41 14.3796C96.32 14.4296 96.2 14.4996 96.11 14.5496C94.21 15.6496 92.31 16.7596 90.41 17.8596C90.62 17.7396 90.9 17.7596 91.22 17.9396L97.22 14.4496C96.9 14.2696 96.62 14.2496 96.41 14.3696V14.3796Z" fill="white"/>
<mask id="mask1_9_1204" style="mask-type:luminance" maskUnits="userSpaceOnUse" x="90" y="14" width="8" height="4">
<path d="M96.41 14.3796C96.32 14.4296 96.2 14.4996 96.11 14.5496C94.21 15.6496 92.31 16.7596 90.41 17.8596C90.62 17.7396 90.9 17.7596 91.22 17.9396L97.22 14.4496C96.9 14.2696 96.62 14.2496 96.41 14.3696V14.3796Z" fill="white"/>
</mask>
<g mask="url(#mask1_9_1204)">
<path d="M91.2101 17.9399L97.2101 14.4499C97.1601 14.4199 97.1001 14.3899 97.0501 14.3699L91.0501 17.8599C91.1001 17.8799 91.1601 17.9099 91.2101 17.9399Z" fill="white" stroke="#1D1D1D" stroke-width="0.4" stroke-linejoin="round"/>
<path d="M91.0498 17.8598L97.0498 14.3698C97.0498 14.3698 96.9598 14.3298 96.9198 14.3298L90.9198 17.8198C90.9198 17.8198 91.0098 17.8498 91.0498 17.8598Z" fill="white" stroke="#1D1D1D" stroke-width="0.4" stroke-linejoin="round"/>
<path d="M90.92 17.8196L96.92 14.3296C96.92 14.3296 96.85 14.3096 96.82 14.3096L90.82 17.7896C90.82 17.7896 90.89 17.7996 90.92 17.8096V17.8196Z" fill="white" stroke="#1D1D1D" stroke-width="0.4" stroke-linejoin="round"/>
<path d="M90.82 17.7996L96.82 14.3196C96.82 14.3196 96.76 14.3196 96.74 14.3096L90.74 17.7996C90.74 17.7996 90.8 17.7996 90.82 17.7996Z" fill="white" stroke="#1D1D1D" stroke-width="0.4" stroke-linejoin="round"/>
<path d="M90.74 17.7896L96.74 14.2996C96.74 14.2996 96.69 14.2996 96.67 14.2996L90.67 17.7896C90.67 17.7896 90.72 17.7896 90.74 17.7896Z" fill="white" stroke="#1D1D1D" stroke-width="0.4" stroke-linejoin="round"/>
<path d="M90.66 17.7896L96.66 14.2996C96.66 14.2996 96.61 14.2996 96.59 14.2996L90.59 17.7796C90.59 17.7796 90.64 17.7796 90.66 17.7796V17.7896Z" fill="white" stroke="#1D1D1D" stroke-width="0.4" stroke-linejoin="round"/>
<path d="M90.5901 17.7991L96.5901 14.3191C96.5901 14.3191 96.5501 14.3191 96.5301 14.3291L90.5301 17.8191C90.5301 17.8191 90.5701 17.8191 90.5901 17.8091V17.7991Z" fill="white" stroke="#1D1D1D" stroke-width="0.4" stroke-linejoin="round"/>
<path d="M90.5301 17.8091L96.5301 14.3191C96.5301 14.3191 96.4901 14.3291 96.4701 14.3391L90.4701 17.8291C90.4701 17.8291 90.5101 17.8191 90.5301 17.8091Z" fill="white" stroke="#1D1D1D" stroke-width="0.4" stroke-linejoin="round"/>
<path d="M90.47 17.8296L96.47 14.3396C96.47 14.3396 96.43 14.3496 96.41 14.3696L90.41 17.8596C90.41 17.8596 90.45 17.8396 90.47 17.8296Z" fill="white" stroke="#1D1D1D" stroke-width="0.4" stroke-linejoin="round"/>
<path d="M90.41 17.8599L96.42 14.3699L96.41 14.3799L90.41 17.8599Z" fill="white" stroke="#1D1D1D" stroke-width="0.4" stroke-linejoin="round"/>
</g>
<path d="M96.41 14.3796C96.32 14.4296 96.2 14.4996 96.11 14.5496C94.21 15.6496 92.31 16.7596 90.41 17.8596C90.62 17.7396 90.9 17.7596 91.22 17.9396L97.22 14.4496C96.9 14.2696 96.62 14.2496 96.41 14.3696V14.3796Z" stroke="#1D1D1D" stroke-width="0.4" stroke-linejoin="round"/>
<path d="M115.67 34.6696L121.67 31.1796L97.2103 17.0596L91.2103 20.5496L115.67 34.6696Z" fill="white" stroke="#1D1D1D" stroke-width="0.4" stroke-linejoin="round"/>
<path d="M122.47 31.2597C122.26 31.3797 121.98 31.3597 121.66 31.1797L115.66 34.6597C115.98 34.8497 116.26 34.8597 116.47 34.7397C118.27 33.6897 120.67 32.2997 122.47 31.2497V31.2597Z" fill="white"/>
<mask id="mask2_9_1204" style="mask-type:luminance" maskUnits="userSpaceOnUse" x="115" y="31" width="8" height="4">
<path d="M122.47 31.2597C122.26 31.3797 121.98 31.3597 121.66 31.1797L115.66 34.6597C115.98 34.8497 116.26 34.8597 116.47 34.7397C118.27 33.6897 120.67 32.2997 122.47 31.2497V31.2597Z" fill="white"/>
</mask>
<g mask="url(#mask2_9_1204)">
<path d="M116.47 34.7498L122.47 31.2598V31.2698L116.47 34.7498Z" fill="white" stroke="#1D1D1D" stroke-width="0.4" stroke-linejoin="round"/>
<path d="M116.47 34.7498L122.47 31.2598C122.47 31.2598 122.43 31.2798 122.41 31.2898L116.41 34.7798C116.41 34.7798 116.45 34.7598 116.47 34.7498Z" fill="white" stroke="#1D1D1D" stroke-width="0.4" stroke-linejoin="round"/>
<path d="M116.41 34.78L122.41 31.29C122.41 31.29 122.37 31.3 122.35 31.31L116.35 34.8C116.35 34.8 116.39 34.79 116.41 34.78Z" fill="white" stroke="#1D1D1D" stroke-width="0.4" stroke-linejoin="round"/>
<path d="M116.35 34.7996L122.35 31.3096C122.35 31.3096 122.31 31.3096 122.29 31.3196L116.29 34.8096C116.29 34.8096 116.33 34.8096 116.35 34.7996Z" fill="white" stroke="#1D1D1D" stroke-width="0.4" stroke-linejoin="round"/>
<path d="M116.29 34.8201L122.29 31.3301C122.29 31.3301 122.24 31.3301 122.22 31.3301L116.22 34.8201C116.22 34.8201 116.27 34.8201 116.29 34.8201Z" fill="white" stroke="#1D1D1D" stroke-width="0.4" stroke-linejoin="round"/>
<path d="M116.22 34.8296L122.22 31.3396C122.22 31.3396 122.17 31.3396 122.14 31.3396L116.14 34.8296H116.22Z" fill="white" stroke="#1D1D1D" stroke-width="0.4" stroke-linejoin="round"/>
<path d="M116.15 34.8296L122.15 31.3396C122.15 31.3396 122.09 31.3396 122.07 31.3396L116.07 34.8296C116.07 34.8296 116.13 34.8296 116.15 34.8296Z" fill="white" stroke="#1D1D1D" stroke-width="0.4" stroke-linejoin="round"/>
<path d="M116.06 34.8196L122.06 31.3296C122.06 31.3296 121.99 31.3196 121.96 31.3096L115.96 34.7896C115.96 34.7896 116.03 34.8096 116.06 34.8096V34.8196Z" fill="white" stroke="#1D1D1D" stroke-width="0.4" stroke-linejoin="round"/>
<path d="M115.96 34.7898L121.96 31.3098C121.96 31.3098 121.87 31.2798 121.83 31.2598L115.83 34.7498C115.83 34.7498 115.92 34.7898 115.96 34.7898Z" fill="white" stroke="#1D1D1D" stroke-width="0.4" stroke-linejoin="round"/>
<path d="M115.83 34.7497L121.83 31.2597C121.78 31.2397 121.72 31.2097 121.67 31.1797L115.67 34.6597C115.72 34.6997 115.78 34.7197 115.83 34.7397V34.7497Z" fill="white" stroke="#1D1D1D" stroke-width="0.4" stroke-linejoin="round"/>
</g>
<path d="M122.47 31.2597C122.26 31.3797 121.98 31.3597 121.66 31.1797L115.66 34.6597C115.98 34.8497 116.26 34.8597 116.47 34.7397C118.27 33.6897 120.67 32.2997 122.47 31.2497V31.2597Z" stroke="#1D1D1D" stroke-width="0.4" stroke-linejoin="round"/>
<path d="M115.67 32.07L121.67 28.58L97.2201 14.46L91.2101 17.94L115.67 32.07Z" fill="white" stroke="#1D1D1D" stroke-width="0.4" stroke-linejoin="round"/>
<path d="M116.47 34.7503C118.47 33.5903 120.47 32.4203 122.47 31.2603C122.67 31.1403 122.8 30.8903 122.8 30.5303C122.8 29.8103 122.3 28.9403 121.67 28.5703L115.67 32.0603C116.3 32.4203 116.81 33.3003 116.8 34.0103C116.8 34.3703 116.67 34.6203 116.47 34.7403V34.7503Z" fill="white"/>
<mask id="mask3_9_1204" style="mask-type:luminance" maskUnits="userSpaceOnUse" x="115" y="28" width="8" height="7">
<path d="M116.47 34.7503C118.47 33.5903 120.47 32.4203 122.47 31.2603C122.67 31.1403 122.8 30.8903 122.8 30.5303C122.8 29.8103 122.3 28.9403 121.67 28.5703L115.67 32.0603C116.3 32.4203 116.81 33.3003 116.8 34.0103C116.8 34.3703 116.67 34.6203 116.47 34.7403V34.7503Z" fill="white"/>
</mask>
<g mask="url(#mask3_9_1204)">
<path d="M116.47 34.7508L122.47 31.2608C122.67 31.1408 122.8 30.8908 122.8 30.5308C122.8 30.4608 122.8 30.3808 122.79 30.3108L116.79 33.7908C116.79 33.8708 116.8 33.9408 116.8 34.0108C116.8 34.3708 116.67 34.6208 116.47 34.7408V34.7508Z" fill="white" stroke="#1D1D1D" stroke-width="0.4" stroke-linejoin="round"/>
<path d="M116.79 33.8004L122.79 30.3204C122.79 30.2704 122.77 30.2104 122.76 30.1604L116.76 33.6504C116.77 33.7004 116.78 33.7504 116.79 33.8004Z" fill="white" stroke="#1D1D1D" stroke-width="0.4" stroke-linejoin="round"/>
<path d="M116.76 33.6408L122.76 30.1508C122.76 30.1508 122.74 30.0608 122.73 30.0208L116.73 33.5108C116.73 33.5108 116.75 33.6008 116.76 33.6408Z" fill="white" stroke="#1D1D1D" stroke-width="0.4" stroke-linejoin="round"/>
<path d="M116.73 33.5106L122.73 30.0206C122.73 30.0206 122.71 29.9406 122.7 29.9006L116.7 33.3906C116.7 33.3906 116.72 33.4706 116.74 33.5106H116.73Z" fill="white" stroke="#1D1D1D" stroke-width="0.4" stroke-linejoin="round"/>
<path d="M116.7 33.4L122.7 29.91C122.7 29.91 122.68 29.84 122.66 29.8L116.66 33.29C116.66 33.29 116.69 33.36 116.7 33.39V33.4Z" fill="white" stroke="#1D1D1D" stroke-width="0.4" stroke-linejoin="round"/>
<path d="M116.66 33.2904L122.66 29.8004C122.66 29.8004 122.63 29.7304 122.62 29.7004L116.62 33.1904C116.62 33.1904 116.65 33.2604 116.66 33.2904Z" fill="white" stroke="#1D1D1D" stroke-width="0.4" stroke-linejoin="round"/>
<path d="M116.62 33.1899L122.62 29.6999C122.62 29.6999 122.59 29.6299 122.58 29.5999L116.58 33.0899C116.58 33.0899 116.61 33.1599 116.62 33.1899Z" fill="white" stroke="#1D1D1D" stroke-width="0.4" stroke-linejoin="round"/>
<path d="M116.57 33.09L122.57 29.6C122.57 29.6 122.53 29.53 122.52 29.51L116.52 33C116.52 33 116.55 33.06 116.57 33.09Z" fill="white" stroke="#1D1D1D" stroke-width="0.4" stroke-linejoin="round"/>
<path d="M116.52 33.0004L122.52 29.5104C122.52 29.5104 122.48 29.4404 122.47 29.4204L116.47 32.9104C116.47 32.9104 116.51 32.9804 116.52 33.0004Z" fill="white" stroke="#1D1D1D" stroke-width="0.4" stroke-linejoin="round"/>
<path d="M116.47 32.9003L122.47 29.4103C122.47 29.4103 122.43 29.3403 122.41 29.3203L116.41 32.8103C116.41 32.8103 116.45 32.8703 116.47 32.9003Z" fill="white" stroke="#1D1D1D" stroke-width="0.4" stroke-linejoin="round"/>
<path d="M116.41 32.81L122.41 29.32C122.41 29.32 122.37 29.25 122.34 29.22L116.34 32.71C116.34 32.71 116.38 32.78 116.41 32.81Z" fill="white" stroke="#1D1D1D" stroke-width="0.4" stroke-linejoin="round"/>
<path d="M116.35 32.7104L122.35 29.2204C122.35 29.2204 122.3 29.1504 122.27 29.1204L116.27 32.6104C116.27 32.6104 116.32 32.6804 116.34 32.7104H116.35Z" fill="white" stroke="#1D1D1D" stroke-width="0.4" stroke-linejoin="round"/>
<path d="M116.27 32.61L122.27 29.12C122.27 29.12 122.21 29.05 122.18 29.01L116.18 32.5C116.18 32.5 116.24 32.57 116.27 32.61Z" fill="white" stroke="#1D1D1D" stroke-width="0.4" stroke-linejoin="round"/>
<path d="M116.18 32.5004L122.18 29.0104C122.18 29.0104 122.1 28.9204 122.06 28.8704L116.06 32.3604C116.06 32.3604 116.14 32.4504 116.18 32.4904V32.5004Z" fill="white" stroke="#1D1D1D" stroke-width="0.4" stroke-linejoin="round"/>
<path d="M116.06 32.3603L122.06 28.8703C121.94 28.7503 121.81 28.6503 121.68 28.5803L115.68 32.0703C115.81 32.1503 115.94 32.2503 116.06 32.3703V32.3603Z" fill="white" stroke="#1D1D1D" stroke-width="0.4" stroke-linejoin="round"/>
</g>
<path d="M116.47 34.7503C118.47 33.5903 120.47 32.4203 122.47 31.2603C122.67 31.1403 122.8 30.8903 122.8 30.5303C122.8 29.8103 122.3 28.9403 121.67 28.5703L115.67 32.0603C116.3 32.4203 116.81 33.3003 116.8 34.0103C116.8 34.3703 116.67 34.6203 116.47 34.7403V34.7503Z" stroke="#1D1D1D" stroke-width="0.4" stroke-linejoin="round"/>
<path d="M91.2099 17.9397C90.5799 17.5797 90.0799 17.8697 90.0799 18.5897C90.0799 19.3197 90.5799 20.1897 91.2099 20.5497L115.67 34.6697C116.3 35.0397 116.81 34.7497 116.81 34.0197C116.81 33.2997 116.31 32.4297 115.68 32.0697L91.2199 17.9497L91.2099 17.9397Z" fill="white" stroke="#1D1D1D" stroke-width="0.4" stroke-linejoin="round"/>
<path d="M126.62 34.4899C129.19 35.9699 131.27 39.5799 131.26 42.5299V46.6799L74.5101 13.9199V9.76994C74.5301 6.81994 76.6201 5.61994 79.1901 7.09994L126.62 34.4899Z" fill="white" stroke="#1D1D1D" stroke-width="0.4" stroke-linejoin="round"/>
<path d="M78.4201 6.74C78.3101 6.7 78.2001 6.66 78.0901 6.62C78.0201 6.6 77.9501 6.58 77.8901 6.56C77.8201 6.54 77.7601 6.53 77.6901 6.52C77.6101 6.51 77.5301 6.49 77.4501 6.48C77.4001 6.48 77.3601 6.47 77.3101 6.47C77.2101 6.47 77.1101 6.47 77.0101 6.47C76.9901 6.47 76.9701 6.47 76.9401 6.47C76.8201 6.47 76.7101 6.49 76.6001 6.51C76.5701 6.51 76.5401 6.51 76.5101 6.53C76.4201 6.55 76.3401 6.57 76.2601 6.6C76.2301 6.6 76.2101 6.62 76.1801 6.63C76.0801 6.67 75.9701 6.72 75.8801 6.78C77.8801 5.62 79.8801 4.45 81.8801 3.29C81.8801 3.29 81.9001 3.28 81.9101 3.28C81.9901 3.24 82.0601 3.2 82.1501 3.17C82.1601 3.17 82.1801 3.16 82.1901 3.15C82.2201 3.14 82.2401 3.13 82.2701 3.12C82.3101 3.11 82.3501 3.09 82.3901 3.08C82.4301 3.07 82.4801 3.06 82.5201 3.05C82.5501 3.05 82.5801 3.04 82.6101 3.03C82.6201 3.03 82.6401 3.03 82.6501 3.03C82.7401 3.01 82.8401 3 82.9301 3H82.9401C82.9401 3 82.9901 3 83.0101 3C83.0801 3 83.1601 3 83.2301 3C83.2501 3 83.2801 3 83.3101 3C83.3501 3 83.4001 3 83.4501 3.01C83.4901 3.01 83.5401 3.01 83.5801 3.01C83.6201 3.01 83.6601 3.03 83.7001 3.04C83.7601 3.05 83.8201 3.06 83.8901 3.08C83.9301 3.08 83.9601 3.08 84.0001 3.1C84.0301 3.1 84.0701 3.12 84.1001 3.14C84.2101 3.17 84.3201 3.21 84.4301 3.25C84.4701 3.26 84.5001 3.27 84.5401 3.29C84.5601 3.29 84.5801 3.31 84.6101 3.32C84.8001 3.41 84.9901 3.5 85.1901 3.61L132.62 30.99C132.87 31.13 133.11 31.3 133.35 31.48C133.39 31.51 133.43 31.54 133.47 31.57C133.7 31.75 133.91 31.94 134.13 32.15C134.15 32.17 134.17 32.18 134.18 32.2C134.21 32.23 134.24 32.27 134.28 32.3C134.39 32.41 134.49 32.52 134.6 32.63C134.63 32.67 134.67 32.7 134.7 32.73C134.73 32.76 134.75 32.79 134.78 32.82C134.84 32.89 134.9 32.97 134.97 33.05C135.01 33.1 135.05 33.14 135.09 33.19C135.12 33.23 135.15 33.27 135.18 33.31C135.22 33.37 135.26 33.42 135.31 33.48C135.34 33.52 135.37 33.56 135.4 33.6C135.45 33.67 135.5 33.75 135.55 33.82C135.58 33.86 135.61 33.91 135.64 33.95C135.65 33.97 135.67 33.99 135.68 34C135.76 34.13 135.84 34.26 135.92 34.39C135.92 34.4 135.93 34.41 135.94 34.42C135.95 34.44 135.96 34.46 135.98 34.49C136.04 34.59 136.09 34.69 136.15 34.79C136.17 34.83 136.19 34.88 136.22 34.92C136.24 34.96 136.26 35.01 136.29 35.06C136.31 35.1 136.33 35.14 136.35 35.18C136.4 35.29 136.45 35.39 136.5 35.5C136.5 35.52 136.52 35.54 136.53 35.57C136.53 35.57 136.53 35.57 136.53 35.58C136.59 35.72 136.65 35.86 136.7 36C136.71 36.03 136.72 36.05 136.73 36.08C136.75 36.13 136.76 36.18 136.78 36.23C136.8 36.3 136.83 36.37 136.85 36.44C136.87 36.49 136.88 36.55 136.9 36.6C136.92 36.67 136.94 36.73 136.96 36.79C136.97 36.83 136.99 36.87 137 36.91C137.02 36.98 137.04 37.05 137.05 37.12C137.07 37.2 137.09 37.28 137.11 37.36C137.11 37.39 137.12 37.42 137.13 37.44C137.14 37.5 137.15 37.55 137.16 37.61C137.18 37.73 137.2 37.86 137.22 37.98C137.22 38.02 137.23 38.05 137.24 38.08C137.24 38.11 137.24 38.14 137.24 38.17C137.27 38.45 137.29 38.72 137.29 38.98V43.13L131.28 46.62V42.47C131.29 42.2 131.28 41.93 131.24 41.66C131.24 41.59 131.23 41.53 131.21 41.46C131.19 41.34 131.17 41.21 131.15 41.09C131.13 41.01 131.12 40.92 131.1 40.84C131.08 40.76 131.06 40.68 131.04 40.6C131.01 40.49 130.98 40.38 130.95 40.27C130.93 40.2 130.91 40.14 130.89 40.07C130.85 39.95 130.81 39.83 130.77 39.71C130.75 39.66 130.73 39.61 130.72 39.56C130.65 39.39 130.59 39.22 130.51 39.05C130.5 39.02 130.49 39 130.48 38.97C130.42 38.83 130.35 38.69 130.28 38.54C130.25 38.49 130.23 38.44 130.2 38.39C130.13 38.26 130.06 38.12 129.99 37.99C129.97 37.95 129.95 37.92 129.93 37.89C129.84 37.73 129.74 37.57 129.64 37.42C129.61 37.37 129.58 37.33 129.55 37.28C129.47 37.17 129.4 37.06 129.32 36.95C129.28 36.89 129.23 36.83 129.19 36.78C129.12 36.69 129.05 36.6 128.98 36.51C128.92 36.44 128.86 36.36 128.8 36.29C128.74 36.22 128.68 36.15 128.62 36.09C128.52 35.97 128.42 35.86 128.31 35.76C128.26 35.71 128.21 35.66 128.16 35.61C127.95 35.4 127.73 35.21 127.51 35.04C127.47 35.01 127.43 34.98 127.39 34.95C127.15 34.77 126.91 34.6 126.67 34.46L79.1801 7.1C78.9801 6.99 78.7901 6.89 78.6001 6.81C78.5401 6.78 78.4801 6.76 78.4201 6.74Z" fill="url(#paint0_linear_9_1204)" stroke="#1D1D1D" stroke-width="0.4" stroke-miterlimit="10"/>
<path d="M134.35 73.39C134.96 73.25 135.46 72.57 135.46 71.89V63.43C135.46 62.75 134.96 62.31 134.35 62.46C133.74 62.6 133.24 63.28 133.24 63.96V72.42C133.24 73.1 133.74 73.54 134.35 73.39Z" fill="#25D17F" stroke="#1D1D1D" stroke-width="0.4" stroke-miterlimit="10"/>
<path d="M105.79 27.22C105.79 27.65 105.48 27.83 105.11 27.61L95.6701 22.16C95.2901 21.94 94.9901 21.41 94.9901 20.98C94.9901 20.55 95.3001 20.37 95.6701 20.59L105.11 26.04C105.49 26.26 105.79 26.79 105.8 27.22H105.79ZM108.73 28.13C108.35 27.91 108.05 28.09 108.05 28.52C108.05 28.96 108.35 29.48 108.73 29.7C109.11 29.92 109.41 29.74 109.41 29.31C109.41 28.87 109.1 28.35 108.73 28.13ZM111.22 29.57C110.84 29.35 110.54 29.53 110.54 29.96C110.54 30.39 110.84 30.92 111.22 31.14C111.6 31.36 111.9 31.18 111.9 30.75C111.9 30.32 111.6 29.79 111.22 29.57Z" fill="#25D17F" stroke="#1D1D1D" stroke-width="0.4" stroke-miterlimit="10"/>
<path d="M117.96 48.5399L79.1801 26.1499C78.2401 25.6099 77.3901 25.5599 76.7801 25.9199L75.6701 26.5599C75.0501 26.9099 74.6601 27.6699 74.6601 28.7599V92.4299C74.6601 94.5899 76.1801 97.2099 78.0501 98.2899L116.83 120.68C118.7 121.76 120.22 120.89 120.22 118.73C120.22 119.81 119.84 120.57 119.23 120.92L120.33 120.28C120.96 119.93 121.36 119.17 121.36 118.07V54.3999C121.36 52.2399 119.84 49.6199 117.97 48.5399H117.96Z" fill="#EDEDED"/>
<path d="M110.59 50.0499L71.8101 27.6599C70.8701 27.1199 70.0201 27.0699 69.4101 27.4299L68.3001 28.0699C67.6801 28.4199 67.2901 29.1799 67.2901 30.2699V93.9399C67.2901 96.0999 68.8101 98.7199 70.6801 99.7999L109.46 122.19C111.33 123.27 112.85 122.4 112.85 120.24C112.85 121.32 112.47 122.08 111.86 122.43L112.96 121.79C113.59 121.44 113.99 120.68 113.99 119.58V55.9099C113.99 53.7499 112.47 51.1299 110.6 50.0499H110.59Z" fill="#E5E5E5" stroke="#1D1D1D" stroke-width="0.4" stroke-linejoin="round"/>
<path d="M112.85 120.23C112.85 122.39 111.33 123.26 109.46 122.18L70.6801 99.7899C68.8101 98.7099 67.2901 96.0799 67.2901 93.9299V30.2599C67.2901 28.0999 68.8101 27.2299 70.6801 28.3099L109.46 50.6999C111.33 51.7799 112.85 54.3999 112.85 56.5599V120.22V120.23Z" fill="white"/>
<path d="M106.44 107.068C106.44 109.228 104.92 110.098 103.05 109.018L76.8114 94.7553C74.9414 93.6753 73.4214 91.0452 73.4214 88.8952V43.9494C73.4214 41.7894 74.9414 40.9194 76.8114 41.9994L103.05 56.2624C104.92 57.3424 106.44 59.9624 106.44 62.1224V107.058V107.068Z" fill="#25D17F"/>
<path d="M112.85 120.23C112.85 122.39 111.33 123.26 109.46 122.18L70.6801 99.7899C68.8101 98.7099 67.2901 96.0799 67.2901 93.9299V30.2599C67.2901 28.0999 68.8101 27.2299 70.6801 28.3099L109.46 50.6999C111.33 51.7799 112.85 54.3999 112.85 56.5599V120.22V120.23Z" stroke="#1D1D1D" stroke-width="0.4" stroke-linecap="round" stroke-linejoin="round"/>
<path d="M167.3 87.9599C167.35 87.9499 167.4 87.9399 167.45 87.9299C167.51 87.9199 167.56 87.8999 167.62 87.8799C167.66 87.8699 167.7 87.8599 167.73 87.8499C167.77 87.8399 167.8 87.8199 167.84 87.8099C167.89 87.7899 167.94 87.7699 167.99 87.7499C168.02 87.7399 168.05 87.7299 168.08 87.7099C168.14 87.6899 168.19 87.6599 168.25 87.6299C168.27 87.6199 168.3 87.6099 168.32 87.5999C168.4 87.5599 168.47 87.5199 168.55 87.4799C168.55 87.4799 168.57 87.4699 168.58 87.4599C168.65 87.4199 168.71 87.3799 168.78 87.3399C168.8 87.3299 168.82 87.3099 168.84 87.2999C168.9 87.2599 168.96 87.2199 169.02 87.1799C169.03 87.1799 169.04 87.1599 169.06 87.1599C169.13 87.1099 169.2 87.0599 169.27 86.9999C169.29 86.9799 169.31 86.9699 169.33 86.9499C169.38 86.9099 169.43 86.8699 169.47 86.8299C169.5 86.8099 169.52 86.7799 169.54 86.7599C169.58 86.7199 169.62 86.6899 169.65 86.6499C169.68 86.6199 169.71 86.5899 169.74 86.5599C169.77 86.5299 169.8 86.4999 169.82 86.4699C169.87 86.4199 169.91 86.3699 169.96 86.3099C169.99 86.2799 170.02 86.2399 170.04 86.2099C170.06 86.1799 170.08 86.1599 170.1 86.1299C170.13 86.0899 170.16 86.0399 170.19 85.9999C170.21 85.9699 170.23 85.9499 170.24 85.9199C170.27 85.8699 170.3 85.8199 170.33 85.7699C170.34 85.7499 170.36 85.7199 170.37 85.6999C170.41 85.6299 170.45 85.5599 170.48 85.4799C170.51 85.4099 170.54 85.3399 170.56 85.2699C170.56 85.2499 170.57 85.2299 170.58 85.2199C170.59 85.1799 170.6 85.1499 170.61 85.1099C170.62 85.0599 170.64 84.9999 170.65 84.9499C170.65 84.9199 170.66 84.8799 170.67 84.8499C170.67 84.8199 170.67 84.7899 170.67 84.7599C170.67 84.7199 170.67 84.6799 170.67 84.6399C170.67 84.6199 170.67 84.5999 170.67 84.5699C170.67 84.5199 170.67 84.4799 170.66 84.4299C170.66 84.4199 170.66 84.4099 170.66 84.3999C170.66 84.3499 170.64 84.2899 170.62 84.2399C170.62 84.2299 170.62 84.2199 170.61 84.1999C170.6 84.1599 170.58 84.1199 170.56 84.0899C170.56 84.0799 170.55 84.0699 170.54 84.0499C170.52 83.9999 170.49 83.9599 170.46 83.9199L178.2 94.6299C178.2 94.6299 178.2 94.6299 178.2 94.6399C178.22 94.6699 178.24 94.7099 178.26 94.7399C178.26 94.7399 178.26 94.7499 178.26 94.7599C178.26 94.7699 178.27 94.7799 178.28 94.7999C178.28 94.8199 178.3 94.8399 178.31 94.8499C178.31 94.8699 178.32 94.8899 178.33 94.9099C178.33 94.9199 178.33 94.9299 178.34 94.9499C178.34 94.9499 178.34 94.9599 178.34 94.9699C178.35 95.0099 178.36 95.0499 178.37 95.0999C178.37 95.1099 178.37 95.1199 178.37 95.1299C178.37 95.1599 178.37 95.1999 178.38 95.2299C178.38 95.2399 178.38 95.2499 178.38 95.2699C178.38 95.2899 178.38 95.3099 178.38 95.3399C178.38 95.3599 178.38 95.3799 178.38 95.3999C178.38 95.4199 178.38 95.4399 178.38 95.4499C178.38 95.4799 178.38 95.5099 178.38 95.5399C178.38 95.5599 178.38 95.5699 178.38 95.5899C178.38 95.6099 178.38 95.6199 178.37 95.6399C178.37 95.6899 178.35 95.7399 178.33 95.7999C178.33 95.8199 178.33 95.8399 178.32 95.8599C178.32 95.8799 178.31 95.8999 178.3 95.9199C178.3 95.9399 178.29 95.9599 178.28 95.9699C178.26 96.0399 178.23 96.1099 178.2 96.1799C178.17 96.2499 178.13 96.3299 178.09 96.3999C178.08 96.4199 178.06 96.4499 178.05 96.4699C178.02 96.5199 177.99 96.5699 177.96 96.6199C177.94 96.6499 177.92 96.6699 177.91 96.6999C177.88 96.7399 177.85 96.7899 177.82 96.8299C177.8 96.8599 177.78 96.8799 177.76 96.9099C177.75 96.9299 177.74 96.9399 177.72 96.9599C177.71 96.9799 177.69 96.9899 177.68 97.0099C177.64 97.0599 177.59 97.1199 177.54 97.1699C177.52 97.1899 177.51 97.1999 177.5 97.2199C177.49 97.2299 177.47 97.2499 177.46 97.2599C177.43 97.2899 177.4 97.3199 177.37 97.3499C177.35 97.3699 177.33 97.3899 177.31 97.4099C177.29 97.4299 177.27 97.4399 177.26 97.4599C177.24 97.4799 177.21 97.5099 177.19 97.5299C177.17 97.5499 177.16 97.5599 177.14 97.5799C177.11 97.6099 177.08 97.6299 177.05 97.6499C177.03 97.6699 177.01 97.6799 176.99 97.6999C176.99 97.6999 176.97 97.7099 176.97 97.7199C176.91 97.7599 176.86 97.8099 176.8 97.8499C176.8 97.8499 176.8 97.8499 176.79 97.8499C176.78 97.8499 176.77 97.8699 176.75 97.8799C176.71 97.9099 176.67 97.9399 176.63 97.9699C176.61 97.9799 176.59 97.9999 176.57 98.0099C176.55 98.0199 176.53 98.0399 176.51 98.0499C176.49 98.0599 176.47 98.0699 176.46 98.0799C176.41 98.1099 176.36 98.1399 176.32 98.1699C176.32 98.1699 176.3 98.1799 176.29 98.1899C176.23 98.2199 176.17 98.2599 176.11 98.2899C176.1 98.2899 176.09 98.2999 176.08 98.3099C176.06 98.3199 176.03 98.3299 176.01 98.3399C175.98 98.3499 175.95 98.3699 175.92 98.3799C175.9 98.3899 175.87 98.3999 175.85 98.4099C175.82 98.4199 175.79 98.4299 175.76 98.4499C175.74 98.4499 175.73 98.4699 175.71 98.4699C175.68 98.4799 175.65 98.4899 175.61 98.4999C175.57 98.5099 175.54 98.5299 175.5 98.5399C175.49 98.5399 175.48 98.5399 175.46 98.5499C175.43 98.5499 175.41 98.5599 175.38 98.5699C175.32 98.5899 175.27 98.5999 175.21 98.6199C175.19 98.6199 175.18 98.6199 175.16 98.6299C175.12 98.6299 175.09 98.6399 175.05 98.6499C175.02 98.6499 175 98.6599 174.97 98.6699C174.89 98.6799 174.81 98.6999 174.73 98.6999C174.05 98.7699 173.55 98.5799 173.29 98.2199L165.55 87.5099C165.81 87.8699 166.31 88.0599 166.99 87.9899C167.07 87.9899 167.15 87.9699 167.23 87.9599C167.25 87.9599 167.28 87.9499 167.31 87.9399L167.3 87.9599Z" fill="white" stroke="#1D1D1D" stroke-width="0.4" stroke-miterlimit="10"/>
<path d="M170.47 85.4896C171.03 84.2396 170.39 83.3296 169.02 83.4596C167.66 83.5996 166.1 84.7196 165.54 85.9796C164.98 87.2296 165.63 88.1396 166.99 88.0096C168.35 87.8696 169.91 86.7496 170.47 85.4896Z" fill="#25D17F" stroke="#1D1D1D" stroke-width="0.4" stroke-miterlimit="10"/>
<path d="M162.7 80.4003C162.7 80.4003 162.76 80.3903 162.79 80.3803C162.82 80.3803 162.86 80.3603 162.89 80.3503C162.91 80.3503 162.94 80.3403 162.96 80.3303C162.98 80.3303 163 80.3203 163.02 80.3103C163.05 80.3003 163.08 80.2903 163.11 80.2803C163.13 80.2803 163.14 80.2703 163.16 80.2603C163.19 80.2503 163.23 80.2303 163.26 80.2203C163.27 80.2203 163.29 80.2103 163.3 80.2003C163.34 80.1803 163.39 80.1503 163.43 80.1303C163.43 80.1303 163.44 80.1303 163.45 80.1303C163.49 80.1103 163.53 80.0803 163.57 80.0603C163.58 80.0603 163.59 80.0403 163.61 80.0403C163.65 80.0203 163.68 79.9903 163.72 79.9703C163.72 79.9703 163.73 79.9703 163.74 79.9603C163.78 79.9303 163.82 79.9003 163.86 79.8703C163.87 79.8703 163.88 79.8503 163.89 79.8403C163.92 79.8203 163.95 79.7903 163.97 79.7703C163.98 79.7603 164 79.7403 164.01 79.7303C164.03 79.7103 164.06 79.6903 164.08 79.6703C164.1 79.6503 164.12 79.6303 164.14 79.6103C164.16 79.5903 164.17 79.5703 164.19 79.5603C164.22 79.5303 164.25 79.5003 164.27 79.4703C164.29 79.4503 164.3 79.4303 164.32 79.4103C164.33 79.3903 164.34 79.3803 164.36 79.3603C164.38 79.3303 164.4 79.3103 164.42 79.2803C164.43 79.2603 164.44 79.2503 164.45 79.2303C164.47 79.2003 164.49 79.1703 164.5 79.1403C164.5 79.1303 164.52 79.1103 164.52 79.1003C164.54 79.0603 164.57 79.0103 164.58 78.9703C164.6 78.9303 164.61 78.8903 164.63 78.8503C164.63 78.8403 164.63 78.8303 164.64 78.8203C164.64 78.8003 164.65 78.7803 164.66 78.7503C164.66 78.7203 164.68 78.6903 164.68 78.6603C164.68 78.6403 164.68 78.6203 164.69 78.6003C164.69 78.5803 164.69 78.5603 164.69 78.5503C164.69 78.5303 164.69 78.5003 164.69 78.4803C164.69 78.4703 164.69 78.4503 164.69 78.4403C164.69 78.4103 164.69 78.3803 164.69 78.3603C164.69 78.3603 164.69 78.3503 164.69 78.3403C164.69 78.3103 164.68 78.2803 164.67 78.2503C164.67 78.2503 164.67 78.2403 164.67 78.2303C164.67 78.2103 164.65 78.1803 164.64 78.1603C164.64 78.1603 164.64 78.1503 164.64 78.1403C164.63 78.1103 164.61 78.0903 164.59 78.0603L169.19 84.4203C169.2 84.4403 169.22 84.4603 169.23 84.4803C169.23 84.4803 169.23 84.4803 169.23 84.4903C169.23 84.4903 169.23 84.5003 169.23 84.5103C169.23 84.5203 169.24 84.5303 169.25 84.5403C169.25 84.5503 169.25 84.5603 169.26 84.5803C169.26 84.5803 169.26 84.5903 169.26 84.6003C169.26 84.6003 169.26 84.6003 169.26 84.6103C169.26 84.6303 169.27 84.6603 169.28 84.6903C169.28 84.6903 169.28 84.7003 169.28 84.7103C169.28 84.7303 169.28 84.7503 169.28 84.7703C169.28 84.7703 169.28 84.7803 169.28 84.7903C169.28 84.8003 169.28 84.8203 169.28 84.8303C169.28 84.8403 169.28 84.8503 169.28 84.8703C169.28 84.8803 169.28 84.8903 169.28 84.9003C169.28 84.9203 169.28 84.9403 169.28 84.9503C169.28 84.9503 169.28 84.9703 169.28 84.9803C169.28 84.9803 169.28 85.0003 169.28 85.0103C169.28 85.0403 169.27 85.0703 169.26 85.1003C169.26 85.1103 169.26 85.1203 169.26 85.1303C169.26 85.1403 169.26 85.1503 169.25 85.1603C169.25 85.1703 169.25 85.1803 169.24 85.1903C169.23 85.2303 169.21 85.2703 169.19 85.3103C169.17 85.3503 169.15 85.4003 169.13 85.4403C169.13 85.4503 169.11 85.4703 169.11 85.4803C169.09 85.5103 169.08 85.5403 169.06 85.5703C169.05 85.5903 169.04 85.6003 169.03 85.6203C169.01 85.6503 168.99 85.6703 168.97 85.7003C168.96 85.7203 168.95 85.7303 168.93 85.7503C168.93 85.7503 168.92 85.7703 168.91 85.7803C168.91 85.7903 168.89 85.8003 168.88 85.8103C168.85 85.8403 168.83 85.8703 168.8 85.9003C168.8 85.9003 168.78 85.9203 168.77 85.9303L168.75 85.9503C168.73 85.9703 168.71 85.9903 168.69 86.0103C168.68 86.0203 168.67 86.0303 168.65 86.0503C168.64 86.0503 168.63 86.0703 168.62 86.0803C168.61 86.0903 168.59 86.1103 168.58 86.1203C168.57 86.1203 168.56 86.1403 168.55 86.1503C168.53 86.1703 168.51 86.1803 168.5 86.1903C168.49 86.1903 168.48 86.2103 168.47 86.2203C168.47 86.2203 168.47 86.2203 168.46 86.2303C168.43 86.2603 168.39 86.2803 168.36 86.3103C168.36 86.3103 168.35 86.3103 168.34 86.3203C168.32 86.3403 168.29 86.3503 168.27 86.3703C168.26 86.3703 168.25 86.3803 168.23 86.3903C168.22 86.3903 168.21 86.4103 168.19 86.4103C168.18 86.4103 168.17 86.4203 168.16 86.4303C168.13 86.4503 168.1 86.4603 168.07 86.4803C168.07 86.4803 168.06 86.4803 168.05 86.4803C168.01 86.5003 167.98 86.5203 167.94 86.5403C167.94 86.5403 167.93 86.5403 167.92 86.5403C167.91 86.5403 167.89 86.5503 167.88 86.5603C167.86 86.5603 167.84 86.5803 167.83 86.5903C167.82 86.5903 167.8 86.6003 167.79 86.6103C167.77 86.6103 167.76 86.6203 167.74 86.6303C167.73 86.6303 167.72 86.6303 167.71 86.6403C167.69 86.6403 167.67 86.6503 167.65 86.6603C167.63 86.6603 167.61 86.6803 167.59 86.6803C167.59 86.6803 167.58 86.6803 167.57 86.6803C167.55 86.6803 167.54 86.6803 167.52 86.6903C167.49 86.6903 167.45 86.7103 167.42 86.7203C167.42 86.7203 167.4 86.7203 167.39 86.7203C167.37 86.7203 167.35 86.7203 167.33 86.7303C167.32 86.7303 167.3 86.7303 167.29 86.7303C167.24 86.7303 167.2 86.7503 167.15 86.7503C166.75 86.7903 166.45 86.6803 166.3 86.4603L161.7 80.1003C161.86 80.3103 162.15 80.4303 162.55 80.3903C162.6 80.3903 162.64 80.3803 162.69 80.3703C162.7 80.3703 162.72 80.3703 162.73 80.3703L162.7 80.4003Z" fill="white" stroke="#1D1D1D" stroke-width="0.4" stroke-miterlimit="10"/>
<path d="M164.26 78.5604C164.59 77.8204 164.21 77.2804 163.4 77.3604C162.59 77.4404 161.67 78.1104 161.33 78.8504C161 79.5904 161.38 80.1304 162.19 80.0504C163 79.9704 163.92 79.3004 164.26 78.5604Z" fill="white" stroke="#1D1D1D" stroke-width="0.4" stroke-miterlimit="10"/>
<path d="M149.14 80.0503C154.24 83.9903 161.36 82.5503 165.04 76.8403C168.72 71.1303 167.56 63.3103 162.45 59.3703C157.35 55.4303 150.23 56.8703 146.55 62.5803C142.87 68.2903 144.03 76.1103 149.14 80.0503ZM148.08 63.7603C151.15 58.9903 157.09 57.8003 161.35 61.0803C165.61 64.3703 166.58 70.8903 163.51 75.6603C160.44 80.4303 154.5 81.6203 150.24 78.3403C145.98 75.0503 145.01 68.5303 148.08 63.7603Z" fill="url(#paint1_linear_9_1204)" stroke="#1D1D1D" stroke-width="0.4" stroke-miterlimit="10"/>
<path d="M150.91 79.98C156.01 83.92 163.13 82.48 166.81 76.77C170.49 71.06 169.33 63.24 164.22 59.3C159.12 55.36 152 56.8 148.32 62.51C144.64 68.22 145.8 76.04 150.91 79.98ZM154.1 79.48C153.38 79.18 152.67 78.78 152.01 78.27C147.75 74.98 146.78 68.46 149.85 63.69C152.27 59.93 156.48 58.39 160.25 59.52C161.25 59.82 162.22 60.31 163.12 61.01C167.38 64.3 168.35 70.82 165.28 75.59C162.69 79.61 158.05 81.1 154.1 79.48Z" fill="white" stroke="#1D1D1D" stroke-width="0.4" stroke-miterlimit="10"/>
<path d="M57.0917 119.383L64.3502 125.68C64.3502 126.1 64.0802 126.52 63.5302 126.84L40.4002 140.19C39.3002 140.82 37.5102 140.82 36.4202 140.19L12.7302 126.42C12.2102 126.12 11.9402 125.72 11.9102 125.32V106.62L57.0917 119.383Z" fill="url(#paint2_linear_9_1204)" stroke="#1D1D1D" stroke-width="0.4" stroke-miterlimit="10"/>
<path d="M38.232 139.215C39.322 139.855 41.112 139.855 42.212 139.215L64.0442 126.7C65.1442 126.07 66.0367 124.514 65.0084 122.907L39.83 91.8501C38.74 91.2101 36.95 91.2101 35.85 91.8501L12.72 105.2C11.62 105.83 11.62 106.87 12.72 107.51L38.232 139.215Z" fill="white" stroke="#1D1D1D" stroke-width="0.4" stroke-miterlimit="10"/>
<path d="M40.4668 133.928C41.2368 134.378 42.5068 134.378 43.2768 133.928L59.0806 124.852C59.8506 124.402 59.9535 123.082 59.2647 122.386L39.0821 97.1383C38.3121 96.6883 37.0421 96.6883 36.2721 97.1383L19.9421 106.568C19.1721 107.018 19.1621 107.748 19.9421 108.198L40.4668 133.928Z" stroke="#E5E5E5" stroke-miterlimit="10"/>
<path d="M73.12 156.74C71.26 157.81 71.25 159.57 73.1 160.64L91.22 171.17C93.06 172.24 96.09 172.24 97.95 171.17L116.19 160.64C118.05 159.57 118.06 157.81 116.21 156.74L98.09 146.21C96.25 145.14 93.22 145.14 91.36 146.21L73.12 156.74Z" fill="white" stroke="#1D1D1D" stroke-width="0.4" stroke-miterlimit="10"/>
<path d="M91.36 146.21C93.22 145.14 96.25 145.14 98.09 146.21L116.21 156.74C118.05 157.81 118.04 159.57 116.19 160.64L113.54 162.17L88.63 147.79L91.36 146.22V146.21Z" fill="white" stroke="#1D1D1D" stroke-width="0.4" stroke-miterlimit="10"/>
<path d="M88.35 153.609L102.44 161.749L104.55 160.529L90.46 152.399L88.35 153.609Z" fill="#E5E5E5"/>
<path d="M83.9302 156.679L97.5802 164.559L99.6902 163.339L86.0402 155.459L83.9302 156.679Z" fill="#E5E5E5"/>
<path d="M80.25 160.169L92.71 167.369L94.82 166.149L82.36 158.959L80.25 160.169Z" fill="#E5E5E5"/>
<path d="M16.3609 121.212L17.2809 120.682C17.5909 120.502 18.0209 120.532 18.5009 120.812C19.4609 121.362 20.2409 122.712 20.2409 123.822C20.2409 124.372 20.0509 124.762 19.7309 124.942L18.8809 125.432L18.7309 125.172C18.5709 125.132 18.4109 125.082 18.2309 124.982C17.2709 124.432 16.4909 123.082 16.4909 121.972C16.4909 121.812 16.5109 121.662 16.5409 121.532L16.3509 121.222L16.3609 121.212Z" fill="#1D1D1D" stroke="#1D1D1D" stroke-width="0.4" stroke-linejoin="round"/>
<path d="M17.6209 121.302C18.5809 121.852 19.3609 123.202 19.3609 124.312C19.3609 125.422 18.5809 125.872 17.6209 125.312C16.6609 124.762 15.8809 123.412 15.8809 122.302C15.8809 121.192 16.6609 120.752 17.6209 121.302Z" fill="white" stroke="#1D1D1D" stroke-width="0.4" stroke-linejoin="round"/>
<path d="M17.6209 121.302C18.5809 121.852 19.3609 123.202 19.3609 124.312C19.3609 125.422 18.5809 125.872 17.6209 125.312C16.6609 124.762 15.8809 123.412 15.8809 122.302C15.8809 121.192 16.6609 120.752 17.6209 121.302Z" fill="#25D17F" stroke="#1D1D1D" stroke-width="0.4" stroke-miterlimit="10"/>
<path d="M44.3069 110.631L42.6354 120.145C42.5111 120.852 41.7468 121.307 40.9308 121.159L35.2296 120.157C34.4076 120.013 33.8441 119.324 33.9729 118.623C34.0972 117.915 34.8615 117.46 35.6774 117.608L39.9032 118.351L41.3501 110.116C41.4744 109.409 42.2387 108.954 43.0546 109.102C43.8766 109.247 44.4401 109.935 44.3113 110.636L44.3069 110.631Z" fill="#25D17F"/>
<path fill-rule="evenodd" clip-rule="evenodd" d="M102 76.8223L90 60.9282L78 62.9659L78 64.5961L80.1177 65.8187L80.1177 68.2639L82.2353 69.4865L82.2353 80.8976L80.1177 79.675L80.1177 82.1203L78 80.8976L78 83.3429L102 97.1993L102 94.7541L99.8824 93.5314L99.8824 91.0862L97.7647 89.8636L97.7647 78.4524L99.8824 79.675L99.8824 77.2299L102 78.4525L102 76.8223ZM94.9412 76.8222L94.9412 88.2334L93.5294 87.4183L93.5294 76.0072L94.9412 76.8222ZM90.7059 74.377L89.2941 73.5619L89.2941 84.9731L90.7059 85.7881L90.7059 74.377ZM86.4706 71.9317L86.4706 83.3429L85.0588 82.5278L85.0588 71.1167L86.4706 71.9317Z" fill="#1D1D1D"/>
<defs>
<linearGradient id="paint0_linear_9_1204" x1="75.8801" y1="24.83" x2="137.26" y2="24.83" gradientUnits="userSpaceOnUse">
<stop offset="0.4" stop-color="white"/>
<stop offset="1" stop-color="#C6C6C6"/>
</linearGradient>
<linearGradient id="paint1_linear_9_1204" x1="144.41" y1="69.7103" x2="167.19" y2="69.7103" gradientUnits="userSpaceOnUse">
<stop offset="0.4" stop-color="white"/>
<stop offset="1" stop-color="#C6C6C6"/>
</linearGradient>
<linearGradient id="paint2_linear_9_1204" x1="11.9002" y1="123.64" x2="64.3502" y2="123.64" gradientUnits="userSpaceOnUse">
<stop offset="0.4" stop-color="white"/>
<stop offset="1" stop-color="#C6C6C6"/>
</linearGradient>
</defs>
</svg>
