<svg xmlns="http://www.w3.org/2000/svg" width="24" height="25" viewBox="0 0 24 25" fill="none">
  <path d="M12 3.30469C14.1706 3.30469 15.888 3.30307 17.2285 3.46484C18.5942 3.62971 19.7005 3.97736 20.5732 4.76074C21.446 5.54419 21.8339 6.53771 22.0176 7.76367C22.1977 8.96688 22.1953 10.508 22.1953 12.4561C22.1953 14.4041 22.1977 15.9452 22.0176 17.1484C21.8339 18.3744 21.446 19.3679 20.5732 20.1514C19.7005 20.9347 18.5942 21.2824 17.2285 21.4473C15.888 21.609 14.1706 21.6074 12 21.6074C9.8294 21.6074 8.11203 21.609 6.77149 21.4473C5.40583 21.2824 4.2995 20.9347 3.42676 20.1514C2.55396 19.3679 2.16607 18.3744 1.98242 17.1484C1.80227 15.9452 1.80469 14.4041 1.80469 12.4561C1.80469 10.508 1.80227 8.96688 1.98242 7.76367C2.16607 6.53771 2.55396 5.54419 3.42676 4.76074C4.2995 3.97736 5.40583 3.62971 6.77149 3.46484C8.11203 3.30307 9.8294 3.30469 12 3.30469ZM16.4404 12.6162C15.1317 12.6716 13.8863 13.1191 12.666 13.8535C10.348 15.2487 8.30472 17.5481 6.2627 19.7588C6.48633 19.8061 6.73273 19.8488 7.00684 19.8818C8.20281 20.0261 9.77982 20.0273 12 20.0273C14.2202 20.0273 15.7972 20.0261 16.9932 19.8818C18.1639 19.7406 18.8378 19.4752 19.3291 19.0342C19.8202 18.5933 20.1151 17.9888 20.2725 16.9385C20.4 16.0866 20.4267 15.0192 20.4326 13.6191C18.9533 12.8387 17.6338 12.5658 16.4404 12.6162ZM12 4.88477C9.77982 4.88477 8.20281 4.88597 7.00684 5.03027C5.8361 5.17156 5.16221 5.43692 4.6709 5.87793C4.17984 6.31885 3.88493 6.92326 3.72754 7.97363C3.56676 9.04716 3.56445 10.4631 3.56445 12.4561C3.56445 14.449 3.56676 15.865 3.72754 16.9385C3.88339 17.9786 4.17475 18.5807 4.65723 19.0205C6.70163 16.8147 9.01573 14.1479 11.6855 12.541C13.0878 11.697 14.6402 11.1106 16.3584 11.0381C17.6691 10.9828 19.0258 11.2297 20.4336 11.832C20.4316 10.1623 20.4159 8.93156 20.2725 7.97363C20.1151 6.92326 19.8202 6.31885 19.3291 5.87793C18.8378 5.43692 18.1639 5.17156 16.9932 5.03027C15.7972 4.88597 14.2202 4.88477 12 4.88477ZM7.58789 7.47266C8.88615 7.47266 9.93927 8.52503 9.93946 9.82324C9.93945 11.1216 8.88626 12.1748 7.58789 12.1748C6.28968 12.1746 5.23731 11.1215 5.23731 9.82324C5.2375 8.52514 6.28979 7.47285 7.58789 7.47266ZM7.58789 9.23242C7.26192 9.23261 6.99726 9.49727 6.99707 9.82324C6.99708 10.1494 7.26181 10.4139 7.58789 10.4141C7.91413 10.4141 8.1787 10.1495 8.17871 9.82324C8.17852 9.49716 7.91402 9.23243 7.58789 9.23242Z" fill="#8C8C8C" fill-opacity="0.6"/>
</svg>