<svg width="18" height="18" viewBox="0 0 18 18" fill="none" xmlns="http://www.w3.org/2000/svg">
<path fill-rule="evenodd" clip-rule="evenodd" d="M13.9421 2.25H4.5C4.08579 2.25 3.75 2.58579 3.75 3V15C3.75 15.4142 4.08579 15.75 4.5 15.75H13.9421C14.3564 15.75 14.6921 15.4142 14.6921 15V3C14.6921 2.58579 14.3564 2.25 13.9421 2.25ZM4.5 0.75C3.25736 0.75 2.25 1.75736 2.25 3V15C2.25 16.2426 3.25736 17.25 4.5 17.25H13.9421C15.1848 17.25 16.1921 16.2426 16.1921 15V3C16.1921 1.75736 15.1848 0.75 13.9421 0.75H4.5Z" fill="currentColor"/>
<path fill-rule="evenodd" clip-rule="evenodd" d="M5.92582 11.1489C5.92582 10.7347 6.26161 10.3989 6.67582 10.3989H11.9258C12.34 10.3989 12.6758 10.7347 12.6758 11.1489C12.6758 11.5631 12.34 11.8989 11.9258 11.8989H6.67582C6.26161 11.8989 5.92582 11.5631 5.92582 11.1489Z" fill="currentColor"/>
<path d="M9.83115 4.05523C9.53826 3.76233 9.06338 3.76233 8.77049 4.05523L7.27049 5.55523C6.9776 5.84812 6.9776 6.32299 7.27049 6.61589C7.56338 6.90878 8.03826 6.90878 8.33115 6.61589L8.55082 6.39622V8.507C8.55082 8.82654 8.88661 9.08558 9.30082 9.08558C9.71503 9.08558 10.0508 8.82654 10.0508 8.507V6.39622L10.2705 6.61589C10.5634 6.90878 11.0383 6.90878 11.3311 6.61589C11.624 6.32299 11.624 5.84812 11.3311 5.55523L9.83115 4.05523Z" fill="currentColor"/>
<path fill-rule="evenodd" clip-rule="evenodd" d="M5.92582 13.3989C5.92582 12.9847 6.26161 12.6489 6.67582 12.6489H9.30082C9.71503 12.6489 10.0508 12.9847 10.0508 13.3989C10.0508 13.8131 9.71503 14.1489 9.30082 14.1489H6.67582C6.26161 14.1489 5.92582 13.8131 5.92582 13.3989Z" fill="currentColor"/>
</svg>
