<svg fill="none" height="24" viewBox="0 0 24 24" width="24" xmlns="http://www.w3.org/2000/svg"><path clip-rule="evenodd" d="m22 11.9995c0 5.5229-4.4772 10-10 10-5.52285 0-10-4.4771-10-10 0-5.52284 4.47715-9.99999 10-9.99999 5.5228 0 10 4.47715 10 9.99999zm-13.5062-.9749c-1.00653.436-2.04073.884-2.98641 1.4007l-.00006.0001c-.4938.3587.16256.6124.77827.8504.09789.0378.19475.0753.28579.1127.07576.0231.15281.0474.23089.0721.68478.2165 1.44837.4578 2.11319.0947 1.09213-.6224 2.12273-1.3419 3.15253-2.061.3374-.2355.6748-.4711 1.0141-.7031.0159-.0101.0339-.0216.0535-.0342.2891-.186.9393-.6041.6988-.0279-.5687.617-1.1779 1.1633-1.7904 1.7125-.4128.3701-.8271.7416-1.2315 1.137-.3522.2839-.718.8549-.3236 1.2525.9085.631 1.8311 1.2466 2.7532 1.8619.3001.2003.6001.4005.8995.6011.5075.402 1.3007.0769 1.4123-.5513.0496-.2889.0994-.5779.1492-.8668.2753-1.597.5507-3.1945.794-4.7966.0331-.2513.0706-.5026.1081-.754.0908-.60942.1819-1.21954.2103-1.8322-.0733-.61138-.8205-.47695-1.2363-.33948-2.1374.80688-4.2534 1.67356-6.36098 2.55558-.23875.1049-.48077.2097-.72442.3153z" fill="#fff" fill-rule="evenodd"/></svg>