<svg width="14" height="14" viewBox="0 0 14 14" fill="none" xmlns="http://www.w3.org/2000/svg">
<path d="M6.51875 5.91176H7.4733L7.65625 9.625H6.34375L6.51875 5.91176Z" fill="#F65454"/>
<path d="M6.41534 4.375H7.5767V5.40441H6.41534L6.41534 4.375Z" fill="#F65454"/>
<path fill-rule="evenodd" clip-rule="evenodd" d="M12.25 7C12.25 9.8995 9.8995 12.25 7 12.25C4.1005 12.25 1.75 9.8995 1.75 7C1.75 4.1005 4.1005 1.75 7 1.75C9.8995 1.75 12.25 4.1005 12.25 7ZM2.8939 7C2.8939 9.26774 4.73226 11.1061 7 11.1061C9.26774 11.1061 11.1061 9.26774 11.1061 7C11.1061 4.73226 9.26774 2.8939 7 2.8939C4.73226 2.8939 2.8939 4.73226 2.8939 7Z" fill="#F65454"/>
</svg>
