<svg width="24" height="24" viewBox="0 0 24 24" fill="none" xmlns="http://www.w3.org/2000/svg">
<path fill-rule="evenodd" clip-rule="evenodd" d="M10.2073 3.67089C10.9368 2.18164 13.0577 2.17624 13.7949 3.66176L15.7564 7.61457L20.1445 8.25425C21.7822 8.49299 22.4378 10.504 21.2555 11.6621L18.0535 14.7984L18.8038 19.1001C19.0899 20.7408 17.3626 21.992 15.8928 21.2086L11.998 19.1327L8.10595 21.207C6.63502 21.991 4.90682 20.7373 5.1955 19.0957L5.9513 14.7978L2.74591 11.6641C1.56128 10.506 2.21768 8.49225 3.85724 8.25469L8.27525 7.61455L10.2073 3.67089ZM13.9648 8.5036L12.0033 4.55078L10.0713 8.49444C9.78067 9.08769 9.21583 9.49915 8.56204 9.59388L4.14404 10.234L7.34943 13.3677C7.82151 13.8292 8.03542 14.494 7.92108 15.1442L7.16528 19.4421L11.0574 17.3677C11.6453 17.0543 12.3508 17.0543 12.9388 17.3677L16.8335 19.4437L16.0833 15.142C15.9701 14.4932 16.1836 13.8304 16.6541 13.3696L19.856 10.2333L15.4679 9.59366C14.8183 9.49897 14.2566 9.09159 13.9648 8.5036Z" fill="#8C8C8C" fill-opacity="0.6"/>
</svg>
