<svg width="148" height="148" viewBox="0 0 148 148" fill="none" xmlns="http://www.w3.org/2000/svg">
<path d="M25.1536 111.838V106.691C25.1536 108.66 26.7316 110.663 30.0616 112.545C41.6948 119.162 70.3698 121.926 94.1042 118.737C111.048 116.463 120.897 111.751 120.907 106.843V111.99C120.886 116.898 111.048 121.599 94.0933 123.885C70.3589 127.073 41.6839 124.298 30.0507 117.693C26.7207 115.799 25.1427 113.797 25.1536 111.838Z" fill="#313638" stroke="black" stroke-width="0.35" stroke-linecap="round" stroke-linejoin="round"/>
<path d="M112.343 98.7901C101.7 92.7395 75.4844 90.2039 53.7742 93.1312C32.0747 96.0477 23.1077 103.317 33.7506 109.368C44.3936 115.418 70.6091 117.954 92.3194 115.027C114.019 112.11 122.986 104.841 112.343 98.7901Z" fill="#4C5154" stroke="black" stroke-width="0.35" stroke-linecap="round" stroke-linejoin="round"/>
<path d="M29.7129 101.032L33.4238 98.8442C27.9826 102.055 27.6562 105.907 33.7394 109.367C44.3823 115.418 70.5979 117.954 92.3082 115.026C113.768 112.142 122.768 105.004 112.691 98.9966C113.921 99.7366 115.161 100.466 116.391 101.206C127.415 107.768 117.566 115.57 94.1038 118.726C70.3694 121.915 41.6944 119.14 30.0612 112.534C23.412 108.758 23.7603 104.547 29.7129 101.032Z" fill="#4C5154" stroke="black" stroke-width="0.35" stroke-linecap="round" stroke-linejoin="round"/>
<path d="M120.907 110.01V109.444C120.886 111.37 119.351 113.253 116.478 114.972C116.239 115.114 116.032 115.32 115.891 115.56C115.597 116.071 115.325 116.528 115.031 117.029C114.868 117.312 114.617 117.54 114.324 117.682C109.601 119.913 102.462 121.785 93.3207 122.96C93.0704 122.992 92.8201 122.916 92.6351 122.753L91.7972 122.013C91.5143 121.763 91.1443 121.643 90.7743 121.687C78.9995 122.971 66.2998 122.873 55.2107 121.621C54.906 121.589 54.6013 121.687 54.3619 121.893L53.5457 122.622C53.3063 122.84 52.9798 122.938 52.6643 122.895C44.1216 121.763 36.7107 119.935 31.6831 117.519C31.4328 117.399 31.2369 117.214 31.1063 116.975C30.8125 116.474 30.4751 115.875 30.2357 115.484C30.1704 115.364 30.0616 115.19 29.9093 115.048C29.7134 114.874 29.474 114.744 29.4196 114.711C27.7219 113.666 26.5575 112.589 25.8719 111.512C25.5781 111.033 25.3713 110.565 25.2625 110.086C25.1972 109.803 25.1646 109.52 25.1646 109.248V112.513C25.1646 112.73 25.1972 112.992 25.2516 113.209C25.2516 113.22 25.2516 113.242 25.2625 113.253C25.3169 113.481 25.3822 113.71 25.4801 113.938C25.4801 113.938 25.491 113.96 25.491 113.971C25.589 114.2 25.7087 114.439 25.8501 114.667C25.8501 114.678 25.8719 114.7 25.8828 114.711C26.0243 114.94 26.1875 115.168 26.3834 115.397C26.416 115.429 26.4487 115.462 26.4813 115.495C26.6663 115.701 26.8513 115.908 27.069 116.115C27.1343 116.18 27.2104 116.235 27.2866 116.3C27.4825 116.474 27.6784 116.659 27.9069 116.833C28.0484 116.942 28.2116 117.051 28.364 117.16C28.5381 117.29 28.7013 117.421 28.8972 117.54C29.2563 117.78 29.6372 118.008 30.0507 118.248C35.1219 121.132 43.436 123.275 53.154 124.527C54.6666 124.723 56.2119 124.897 57.7898 125.038C57.8334 125.038 57.8769 125.038 57.9204 125.049C59.444 125.191 60.9893 125.31 62.5563 125.419C62.6543 125.419 62.7522 125.43 62.8393 125.441C64.3737 125.539 65.9298 125.615 67.4969 125.67C67.5948 125.67 67.6819 125.67 67.7798 125.67C69.3904 125.724 71.0119 125.757 72.6334 125.757C72.666 125.757 72.6987 125.757 72.7313 125.757C79.9028 125.778 87.2048 125.365 94.0825 124.44C103.137 123.221 110.167 121.317 114.748 119.053C115.727 118.563 116.598 118.063 117.349 117.551C117.371 117.54 117.382 117.53 117.403 117.519C117.752 117.279 118.078 117.029 118.383 116.779C118.415 116.757 118.448 116.724 118.47 116.702C118.753 116.463 119.014 116.213 119.253 115.973C119.286 115.941 119.319 115.908 119.34 115.875C119.569 115.636 119.765 115.386 119.95 115.146C119.972 115.114 119.993 115.081 120.026 115.037C120.2 114.787 120.342 114.537 120.461 114.297C120.472 114.265 120.494 114.232 120.505 114.2C120.625 113.949 120.712 113.688 120.777 113.427C120.777 113.405 120.777 113.383 120.788 113.362C120.842 113.09 120.886 112.828 120.886 112.556V111.664V110.01H120.907Z" fill="#1D2022" stroke="black" stroke-width="0.35" stroke-linecap="round" stroke-linejoin="round"/>
<g opacity="0.66">
<path d="M59.8353 115.647L61.2718 114.134C61.4786 113.916 61.3371 113.557 61.0433 113.525C52.4244 112.665 44.9374 110.913 40.5953 108.443C40.443 108.356 40.3015 108.269 40.16 108.181C39.605 107.844 38.9521 107.735 38.31 107.844L32.8253 108.813" stroke="#313638" stroke-width="0.35" stroke-linecap="round" stroke-linejoin="round"/>
<path d="M110.155 99.0838C109.655 98.8009 109.1 98.5179 108.523 98.2459C108.414 98.1914 108.284 98.1697 108.153 98.1914L105.128 98.5397C104.965 98.5614 104.845 98.7791 105.019 98.8662C105.52 99.0947 105.987 99.345 106.423 99.5844C110.362 101.826 111.135 104.253 109.241 106.495C109.045 106.734 109.176 107.093 109.481 107.137L112.18 107.507C112.386 107.539 112.593 107.463 112.745 107.322C115.488 104.688 114.846 101.761 110.145 99.0947L110.155 99.0838Z" fill="#313638"/>
<path d="M56.081 94.5894C55.7001 94.4153 54.5683 93.9147 54.5683 93.9147C54.4269 93.8494 54.2745 93.8385 54.133 93.8494C39.986 95.8517 31.7807 99.8347 31.7589 103.992C31.7589 104.307 32.0092 104.568 32.3248 104.547L35.2739 104.373C35.5351 104.362 35.7636 104.155 35.7745 103.894C35.9269 100.172 43.2942 96.6244 55.9504 94.8397C56.1354 94.8179 56.3421 94.6982 56.081 94.5785V94.5894Z" fill="#313638"/>
<path d="M100.535 100.509C97.1074 98.5614 91.3507 97.1358 84.6689 96.3632L73.3186 102.229L86.1162 111.305C86.5842 111.642 87.1718 111.783 87.7486 111.696C102.048 109.553 107.783 104.634 100.546 100.52L100.535 100.509Z" stroke="#313638" stroke-width="0.35" stroke-linecap="round" stroke-linejoin="round"/>
</g>
<path d="M51.293 99.3123C52.6207 98.8662 53.1322 98.7138 54.0572 98.4526C52.6098 98.9859 50.9883 99.4212 49.9872 100.651C49.3016 101.489 49.2145 102.501 49.8566 103.393C50.3572 104.079 51.0863 104.579 51.8154 104.993C57.5613 108.258 71.7192 109.629 83.4504 108.051C95.1707 106.473 100.013 102.544 94.2675 99.2797C94.2675 99.2797 96.7378 100.216 97.543 100.607C99.578 101.565 100.47 102.86 100.416 104.014C100.296 106.789 94.681 109.444 85.0828 110.728C71.5016 112.556 55.1019 110.967 48.4419 107.18C47.3645 106.571 46.0913 105.7 45.7322 104.438C45.4275 103.382 45.9607 102.381 46.7442 101.706C47.6583 100.912 49.7042 99.8456 51.2822 99.3123H51.293Z" fill="#1D2022" stroke="black" stroke-width="0.35" stroke-linecap="round" stroke-linejoin="round"/>
<path d="M96.5309 100.314C102.897 103.927 97.5321 108.269 84.5603 110.021C71.5886 111.762 55.918 110.249 49.5518 106.636C43.1856 103.023 48.5506 98.6812 61.5224 96.9292C74.4942 95.188 90.1647 96.7006 96.5309 100.314Z" fill="#4C5154" stroke="black" stroke-width="0.35" stroke-linecap="round" stroke-linejoin="round"/>
<path d="M96.5309 100.314C102.897 103.927 97.5321 108.269 84.5603 110.021C71.5886 111.762 55.918 110.249 49.5518 106.636C43.1856 103.023 48.5506 98.6812 61.5224 96.9292C74.4942 95.188 90.1647 96.7006 96.5309 100.314Z" fill="#4C5154"/>
<path d="M98.0327 101.587C98.0327 101.587 97.9566 101.511 97.913 101.467L74.4398 105.526L95.2142 99.813C95.138 99.7804 95.0727 99.7477 94.9966 99.7151L74.233 105.428L90.9374 98.3548C90.8395 98.333 90.7416 98.3004 90.6327 98.2786L73.9501 105.341L85.6051 97.2666C85.4854 97.2448 85.3548 97.2339 85.2351 97.2121L73.591 105.276L79.5763 96.5918C79.4457 96.5918 79.3151 96.5701 79.1845 96.5592L73.1992 105.243V96.3416C73.0577 96.3416 72.9271 96.3416 72.7857 96.3416V105.232L66.7895 96.5266C66.6589 96.5266 66.5174 96.5483 66.3869 96.5483L72.383 105.254L60.7063 97.1577C60.5866 97.1795 60.456 97.1904 60.3363 97.2121L72.0239 105.309L55.276 98.2242C55.178 98.246 55.0692 98.2786 54.9713 98.3004L71.7301 105.396L50.9448 99.6824C50.8686 99.7151 50.7924 99.7477 50.7271 99.7804L71.5342 105.504L48.0936 101.456C48.0936 101.456 48.0174 101.532 47.9848 101.576L71.4363 105.624L47.0707 103.415C47.0707 103.415 47.0707 103.491 47.0707 103.535L71.4363 105.744L48.0501 105.407C48.0501 105.407 48.1263 105.483 48.1698 105.526L71.5342 105.864L50.9339 107.224C51.0101 107.257 51.0971 107.289 51.1733 107.322L71.741 105.962L55.3521 108.704C55.461 108.726 55.5589 108.758 55.6677 108.791L72.0457 106.049L60.7498 109.781C60.8695 109.803 61.0001 109.814 61.1307 109.836L72.4048 106.103L66.6698 110.423C66.8004 110.423 66.931 110.445 67.0616 110.456L72.8074 106.125V110.652C72.9489 110.652 73.0795 110.652 73.221 110.652V106.125L78.9886 110.478C79.1192 110.478 79.2607 110.467 79.3913 110.456L73.6127 106.103L85.0174 109.879C85.148 109.857 85.2677 109.847 85.3983 109.825L73.9719 106.038L90.5674 108.824C90.6763 108.802 90.7851 108.769 90.8939 108.747L74.2548 105.962L95.0945 107.344C95.1707 107.311 95.2468 107.278 95.323 107.235L74.4616 105.853L98.0545 105.515C98.0545 105.515 98.1307 105.439 98.1633 105.396L74.5704 105.733L99.0666 103.513C99.0666 103.513 99.0666 103.437 99.0666 103.393L74.5813 105.613L98.0654 101.554L98.0327 101.587Z" fill="#8C9499"/>
<path d="M88.0641 103.763C92.1341 106.07 88.7062 108.845 80.4138 109.966C72.1215 111.076 62.0988 110.108 58.0397 107.801C53.9697 105.494 57.3976 102.719 65.69 101.598C73.9823 100.477 84.005 101.456 88.0641 103.763Z" fill="#393D3F"/>
<path d="M82.7322 104.623C85.3549 106.114 83.1457 107.909 77.7916 108.628C72.4375 109.346 65.9734 108.726 63.3507 107.235C60.7281 105.744 62.9372 103.948 68.2913 103.23C73.6454 102.512 80.1096 103.132 82.7322 104.623Z" fill="#25D27F"/>
<path d="M18.6786 94.5568C16.241 89.268 39.0722 73.5212 69.6951 59.3851C100.307 45.2489 127.11 38.0774 129.548 43.3662" stroke="#969696" stroke-width="0.35" stroke-linecap="round" stroke-linejoin="round"/>
<path d="M35.1436 79.8873C36.0572 79.8873 36.7977 79.1468 36.7977 78.2332C36.7977 77.3197 36.0572 76.5791 35.1436 76.5791C34.2301 76.5791 33.4895 77.3197 33.4895 78.2332C33.4895 79.1468 34.2301 79.8873 35.1436 79.8873Z" fill="#25D27F"/>
<path d="M64.7812 97.0183L64.7952 97.0231L64.8098 97.0255C67.4947 97.473 70.5459 97.4455 73.3056 97.4206C73.9208 97.415 74.5215 97.4096 75.1005 97.4096C92.0937 97.4096 105.822 81.165 105.822 61.1894C105.822 41.2138 92.0937 24.9692 75.1005 24.9692C74.5051 24.9692 73.8583 24.962 73.1835 24.9544C72.1346 24.9427 71.018 24.9303 69.9215 24.943C68.1174 24.9639 66.343 25.0528 64.9657 25.3283L64.9534 25.3307L64.9416 25.3349C52.2638 29.8268 44.3787 44.8494 44.3787 61.1894C44.3787 77.5995 52.0141 92.5899 64.7812 97.0183Z" fill="#313638" stroke="black" stroke-width="0.35"/>
<mask id="mask0_20341_28682" style="mask-type:alpha" maskUnits="userSpaceOnUse" x="44" y="25" width="62" height="73">
<ellipse cx="75.1005" cy="61.1893" rx="30.5468" ry="36.0452" fill="#D8E2E5"/>
</mask>
<g mask="url(#mask0_20341_28682)">
<rect x="89.7161" y="37.0771" width="15.9192" height="4.97476" transform="rotate(-13.2032 89.7161 37.0771)" fill="#4C5154"/>
<rect x="90.7856" y="43.4751" width="15.9192" height="2.06161" transform="rotate(-13.2032 90.7856 43.4751)" fill="#4C5154"/>
</g>
<ellipse cx="68.6352" cy="61.1894" rx="30.5468" ry="36.0452" fill="#4C5154" stroke="black" stroke-width="0.35"/>
<path d="M68.6358 87.5175C80.7395 87.5175 90.4987 75.6979 90.4987 61.1894C90.4987 46.6809 80.7395 34.8614 68.6358 34.8614C56.532 34.8614 46.7729 46.6809 46.7729 61.1894C46.7729 75.6979 56.532 87.5175 68.6358 87.5175Z" fill="#3AD68B" stroke="black" stroke-width="0.35"/>
<g opacity="0.8">
<mask id="mask1_20341_28682" style="mask-type:alpha" maskUnits="userSpaceOnUse" x="47" y="34" width="44" height="54">
<ellipse cx="68.6879" cy="61.1529" rx="21.6879" ry="26.153" fill="url(#paint0_linear_20341_28682)"/>
</mask>
<g mask="url(#mask1_20341_28682)">
<line y1="-0.175" x2="55.0797" y2="-0.175" transform="matrix(0.997859 0.0654031 -0.0165799 0.999863 40.667 32.6499)" stroke="white" stroke-width="0.35"/>
<line y1="-0.175" x2="55.0797" y2="-0.175" transform="matrix(0.997859 0.0654031 -0.0165799 0.999863 40.667 47.959)" stroke="white" stroke-width="0.35"/>
<line y1="-0.175" x2="55.0797" y2="-0.175" transform="matrix(0.997859 0.0654031 -0.0165799 0.999863 40.667 63.2679)" stroke="white" stroke-width="0.35"/>
<line y1="-0.175" x2="55.0797" y2="-0.175" transform="matrix(0.997859 0.0654031 -0.0165799 0.999863 40.667 78.5773)" stroke="white" stroke-width="0.35"/>
<line y1="-0.175" x2="88.0516" y2="-0.175" transform="matrix(0.00354803 0.999994 -0.975806 -0.21864 84.9823 18.5575)" stroke="white" stroke-width="0.35"/>
<line y1="-0.175" x2="88.0516" y2="-0.175" transform="matrix(0.00354803 0.999994 -0.975806 -0.21864 69.8422 20.8295)" stroke="white" stroke-width="0.35"/>
<line y1="-0.175" x2="88.0516" y2="-0.175" transform="matrix(0.00354803 0.999994 -0.975806 -0.21864 54.703 23.1012)" stroke="white" stroke-width="0.35"/>
</g>
</g>
<path d="M78.2295 52.7639C78.7521 52.7914 79.2472 53.0495 79.5899 53.5298C80.2712 54.4903 80.085 55.9798 79.1731 56.8579L65.1012 70.367C64.6442 70.807 64.092 71.0059 63.5673 70.9784C62.9305 70.9446 62.4354 70.6907 62.0926 70.2083L56.3103 62.0796C55.6269 61.119 55.8131 59.6295 56.7271 58.7536C57.1841 58.3156 57.7363 58.1125 58.2589 58.14C58.7815 58.1675 59.2766 58.4257 59.6193 58.9059L64.2147 65.3674L76.6998 53.3796C77.1568 52.9416 77.709 52.7385 78.2316 52.766L78.2295 52.7639Z" fill="black" stroke="black" stroke-width="0.35" stroke-miterlimit="10"/>
<path d="M129.548 43.3551C131.986 48.6439 109.155 64.3907 78.5317 78.5269C47.9087 92.663 21.1272 99.8454 18.6787 94.5566" stroke="#969696" stroke-width="0.35" stroke-linecap="round" stroke-linejoin="round"/>
<path d="M118.383 58.5907C119.807 58.5907 120.962 57.436 120.962 56.0116C120.962 54.5872 119.807 53.4325 118.383 53.4325C116.958 53.4325 115.804 54.5872 115.804 56.0116C115.804 57.436 116.958 58.5907 118.383 58.5907Z" fill="#25D27F"/>
<path d="M45.2378 14.8757C46.6411 14.8757 47.7786 13.7381 47.7786 12.3349C47.7786 10.9316 46.6411 9.79407 45.2378 9.79407C43.8346 9.79407 42.697 10.9316 42.697 12.3349C42.697 13.7381 43.8346 14.8757 45.2378 14.8757Z" stroke="#969696" stroke-width="0.35" stroke-miterlimit="10" stroke-linecap="round" stroke-linejoin="round"/>
<path d="M21.947 24.1921C22.6487 24.1921 23.2174 23.6233 23.2174 22.9217C23.2174 22.22 22.6487 21.6512 21.947 21.6512C21.2454 21.6512 20.6766 22.22 20.6766 22.9217C20.6766 23.6233 21.2454 24.1921 21.947 24.1921Z" stroke="#969696" stroke-width="0.35" stroke-miterlimit="10" stroke-linecap="round" stroke-linejoin="round"/>
<path d="M29.1798 31.8145L24.9116 36.0826L29.1798 40.3508L33.448 36.0826L29.1798 31.8145Z" stroke="#969696" stroke-width="0.35" stroke-miterlimit="9.9998" stroke-linecap="round" stroke-linejoin="round"/>
<defs>
<linearGradient id="paint0_linear_20341_28682" x1="68.6879" y1="34.9999" x2="68.6879" y2="87.306" gradientUnits="userSpaceOnUse">
<stop stop-color="white"/>
<stop offset="1" stop-color="white" stop-opacity="0"/>
</linearGradient>
</defs>
</svg>
