<svg width="89" height="78" viewBox="0 0 89 78" fill="none" xmlns="http://www.w3.org/2000/svg">
<path d="M0.666016 8C0.666016 3.58172 4.24774 0 8.66602 0H80.666C85.0843 0 88.666 3.58172 88.666 8V64C88.666 68.4183 85.0843 72 80.666 72H8.66601C4.24774 72 0.666016 68.4183 0.666016 64V8Z" fill="#F3F3F3" fill-opacity="0.04"/>
<mask id="mask0_865_29846" style="mask-type:alpha" maskUnits="userSpaceOnUse" x="0" y="0" width="89" height="72">
<path d="M0.666016 8C0.666016 3.58172 4.24774 0 8.66602 0H80.666C85.0843 0 88.666 3.58172 88.666 8V64C88.666 68.4183 85.0843 72 80.666 72H8.66601C4.24774 72 0.666016 68.4183 0.666016 64V8Z" fill="#000D1D"/>
</mask>
<g mask="url(#mask0_865_29846)">
<rect x="18.9392" y="18.0732" width="71.6" height="47.6" rx="2.65714" transform="rotate(-30 18.9392 18.0732)" fill="#1D1D1D" stroke="#F3F3F3" stroke-width="0.4"/>
<rect x="31.4978" y="30.2216" width="23.6" height="26" rx="1.8" transform="rotate(-30 31.4978 30.2216)" stroke="#F3F3F3" stroke-width="0.4"/>
<rect x="35.5059" y="31.2646" width="17.7" height="20.1859" rx="2" transform="rotate(-30 35.5059 31.2646)" fill="#F3F3F3" fill-opacity="0.08"/>
<rect width="10.8" height="8.4" rx="1" transform="matrix(-0.866025 0.5 0.5 0.866025 73.4766 26.5381)" fill="#F3F3F3" fill-opacity="0.08"/>
<rect width="7.2" height="2.4" rx="1" transform="matrix(-0.866025 0.5 0.5 0.866025 84.791 26.9336)" fill="#F3F3F3" fill-opacity="0.08"/>
<rect width="13.2" height="2.4" rx="1" transform="matrix(-0.866025 0.5 0.5 0.866025 88.0449 20.5693)" fill="#F3F3F3" fill-opacity="0.08"/>
<rect width="14.5133" height="3.6" rx="1" transform="matrix(-0.866025 0.5 0.5 0.866025 84.6895 -2.10547)" fill="#F3F3F3" fill-opacity="0.08"/>
<rect width="17.4159" height="3.6" rx="1" transform="matrix(-0.866025 0.5 0.5 0.866025 69.6074 6.60254)" fill="#F3F3F3" fill-opacity="0.08"/>
<rect width="7.74041" height="3.6" rx="1" transform="matrix(-0.866025 0.5 0.5 0.866025 64.2285 16.6357)" fill="#F3F3F3" fill-opacity="0.08"/>
<rect width="24.1888" height="3.6" rx="1" transform="matrix(-0.866025 0.5 0.5 0.866025 87.8379 3.00439)" fill="#F3F3F3" fill-opacity="0.08"/>
<rect width="34.8318" height="3.6" rx="1" transform="matrix(-0.866025 0.5 0.5 0.866025 90.6895 8.28711)" fill="#F3F3F3" fill-opacity="0.08"/>
<rect width="64.8" height="7.2" rx="1" transform="matrix(-0.866025 0.5 0.5 0.866025 80.3008 -12.043)" fill="#F3F3F3" fill-opacity="0.08"/>
</g>
<path d="M44.665 62.667C48.7152 62.667 51.998 65.9498 51.998 70C51.998 74.0502 48.7152 77.333 44.665 77.333C40.6148 77.333 37.332 74.0502 37.332 70C37.332 65.9498 40.6148 62.667 44.665 62.667ZM47.0225 67.6426C46.7621 67.3822 46.3395 67.3822 46.0791 67.6426L44.665 69.0566L43.251 67.6426C42.9906 67.3822 42.568 67.3822 42.3076 67.6426C42.0475 67.9028 42.0476 68.3246 42.3076 68.585L43.7217 70L42.3076 71.4141C42.0476 71.6743 42.0476 72.0962 42.3076 72.3564C42.568 72.6168 42.9906 72.6168 43.251 72.3564L44.665 70.9424L46.0791 72.3564C46.3395 72.6168 46.7621 72.6168 47.0225 72.3564C47.2824 72.0962 47.2824 71.6743 47.0225 71.4141L45.6074 70L47.0225 68.585C47.2823 68.3247 47.2824 67.9028 47.0225 67.6426Z" fill="#F65454"/>
</svg>
