<svg width="240" height="156" viewBox="0 0 240 156" fill="none" xmlns="http://www.w3.org/2000/svg">
<rect x="0.4" y="0.4" width="239.2" height="155.2" rx="11.6" fill="white" stroke="#1D1D1D" stroke-width="0.8"/>
<rect x="18.8189" y="50.5436" width="80.8854" height="88.1082" rx="6.41742" stroke="#1D1D1D" stroke-width="0.8"/>
<rect x="29.7617" y="61.0977" width="59" height="67" rx="4.54495" fill="#1D1D1D" fill-opacity="0.08"/>
<rect opacity="0.8" x="114.494" y="111.429" width="30.0238" height="27.8571" rx="2.27247" fill="#1D1D1D" fill-opacity="0.08"/>
<rect x="150.522" y="124.188" width="27.0214" height="5.57143" rx="2.27247" fill="#1D1D1D" fill-opacity="0.08"/>
<rect x="150.522" y="133.714" width="18.0143" height="5.57143" rx="2.27247" fill="#1D1D1D" fill-opacity="0.08"/>
<rect x="114.494" y="52.9297" width="45.0357" height="8.35714" rx="2.27247" fill="#1D1D1D" fill-opacity="0.08"/>
<rect x="168.537" y="52.9297" width="54.0429" height="8.35714" rx="2.27247" fill="#1D1D1D" fill-opacity="0.08"/>
<rect x="114.494" y="72.4297" width="24.019" height="8.35714" rx="2.27247" fill="#1D1D1D" fill-opacity="0.08"/>
<rect x="147.519" y="72.4297" width="75.0595" height="8.35714" rx="2.27247" fill="#1D1D1D" fill-opacity="0.08"/>
<rect x="114.494" y="91.9297" width="108.086" height="8.35714" rx="2.27247" fill="#1D1D1D" fill-opacity="0.08"/>
<rect x="18.4189" y="13.9287" width="204.162" height="25.0714" rx="4.54495" fill="#1D1D1D" fill-opacity="0.08"/>
</svg>
