<svg fill="none" height="42" viewBox="0 0 42 42" width="42" xmlns="http://www.w3.org/2000/svg"><rect fill="#f2f4ff" height="42" rx="8" width="42"/><circle cx="21" cy="21.5" fill="#ffd3ae" r="2.35" stroke="#000" stroke-width=".3"/><path clip-rule="evenodd" d="m20.9998 24.4999c3.9377-.024 4.7481-2.0118 4.4278-3.9998-.139-.8623-.6228-1.6316-1.0481-2.308-.5613-.8924-1.0208-1.6231-.4519-2.192 1-1 4.081 3.0001 3.5 6-.543 2.8033-1.8177 3.4236-2.7984 3.9009-.0687.0335-.1361.0662-.2016.099v9.5h-2.8546-4v-9.5c-.0655-.0328-.1329-.0655-.2016-.099-.9807-.4773-2.2554-1.0976-2.7983-3.9009-.5811-2.9999 2.5-7 3.5-6 .5688.5689.1093 1.2996-.4519 2.192-.4254.6764-.9092 1.4457-1.0481 2.308-.3203 1.9878.4899 3.9755 4.4267 3.9998z" fill="#fe7540" fill-rule="evenodd"/><path d="m25.4276 20.5001.1481-.0238zm-4.4278 3.9998-.001.15h.0019zm3.3797-6.3078.1269-.0798zm-.4519-2.192.106.1061zm3.5 6-.1473-.0285zm-2.7984 3.9009-.0656-.1349zm-.2016.099-.0671-.1342-.0829.0415v.0927zm0 9.5v.15h.15v-.15zm-2.8546 0v.15zm-4 0h-.15v.15h.15zm0-9.5h.15v-.0927l-.0829-.0415zm-.2016-.099-.0657.1349zm-2.7983-3.9009.1472-.0285zm3.5-6-.1061.1061zm-.4519 2.192-.127-.0798zm-1.0481 2.308.148.0239zm8.7064.0239c.1562.9698.0323 1.9116-.582 2.6138-.6149.7028-1.7512 1.2003-3.6986 1.2121l.0018.3c1.9903-.0121 3.228-.5206 3.9226-1.3146.6953-.7947.8164-1.8409.6524-2.859zm-1.027-2.252c.4283.6811.8937 1.4249 1.027 2.252l.2962-.0477c-.1447-.8975-.6469-1.6924-1.0693-2.364zm-.431-2.3779c-.1621.1621-.2561.3418-.29.5374-.0335.1931-.0065.3908.055.5879.121.3882.3891.8123.666 1.2526l.2539-.1597c-.2844-.4522-.5267-.8396-.6335-1.1822-.0524-.1681-.0687-.3156-.0458-.4474.0224-.1293.0842-.2542.2065-.3765zm3.7533 6.1345c.3011-1.554-.3456-3.3445-1.179-4.6109-.4177-.6346-.8915-1.1522-1.3344-1.4485-.221-.1479-.4443-.2474-.6562-.2705-.2179-.0238-.4224.0341-.5837.1954l.2121.2121c.0888-.0888.1993-.1246.339-.1093.1458.0159.3227.0883.522.2217.3979.2662.8456.7487 1.2506 1.364.8118 1.2337 1.4152 2.9432 1.1351 4.389zm-2.8799 4.0073c.4903-.2387 1.0785-.5237 1.6091-1.1127.5315-.59.9955-1.473 1.2708-2.8946l-.2945-.057c-.2676 1.3817-.7125 2.2105-1.1992 2.7508-.4876.5413-1.0271.8051-1.5175 1.0437zm-.2002.0983c.0647-.0324.1313-.0648.2002-.0983l-.1313-.2698c-.0686.0334-.1367.0665-.2031.0997zm.0829 9.3658v-9.5h-.3v9.5zm-3.0046.15h2.8546v-.3h-2.8546zm0-.3h-4v.3h4zm-3.85.15v-9.5h-.3v9.5zm-.0829-9.6342c-.0664-.0331-.1344-.0663-.2031-.0997l-.1313.2698c.0689.0335.1355.0659.2002.0983zm-.2031-.0997c-.4903-.2386-1.0298-.5024-1.5175-1.0437-.4867-.5402-.9315-1.3691-1.1992-2.7508l-.2945.057c.2753 1.4216.7393 2.3046 1.2708 2.8946.5306.589 1.1188.874 1.6091 1.1127zm-2.7167-3.7945c-.28-1.4458.3233-3.1553 1.1352-4.389.4049-.6153.8526-1.0978 1.2505-1.364.1993-.1334.3762-.2058.522-.2217.1397-.0153.2502.0205.339.1093l.2121-.2121c-.1612-.1613-.3657-.2192-.5837-.1954-.2118.0231-.4352.1226-.6562.2705-.4429.2963-.9167.8139-1.3343 1.4485-.8334 1.2664-1.4801 3.0569-1.1791 4.6109zm3.2467-5.8654c.1223.1223.1842.2472.2066.3765.0228.1318.0066.2793-.0459.4474-.1068.3426-.3491.73-.6335 1.1822l.2539.1597c.2769-.4403.545-.8644.666-1.2526.0615-.1971.0885-.3948.0551-.5879-.0339-.1956-.128-.3753-.2901-.5374zm-.4728 2.0061c-.4224.6716-.9246 1.4665-1.0692 2.364l.2961.0477c.1333-.8271.5987-1.5709 1.027-2.252zm-1.0692 2.364c-.1641 1.0181-.043 2.0641.6521 2.8588.6945.794 1.9319 1.3025 3.9217 1.3148l.0019-.3c-1.947-.012-3.083-.5095-3.6978-1.2123-.6141-.7022-.738-1.6439-.5818-2.6136z" fill="#000"/><circle cx="12" cy="27" fill="#ffd3ae" r="2" stroke="#000" stroke-width=".3"/><path d="m8.15 33.5c0-2.1263 1.7237-3.85 3.85-3.85s3.85 1.7237 3.85 3.85v1.85h-7.7z" fill="#a098ff" stroke="#000" stroke-width=".3"/><circle cx="30" cy="27" fill="#ffd3ae" r="2" stroke="#000" stroke-width=".3"/><path d="m26.15 33.5c0-2.1263 1.7237-3.85 3.85-3.85s3.85 1.7237 3.85 3.85v1.85h-7.7z" fill="#a098ff" stroke="#000" stroke-width=".3"/><path d="m20.8008 13h.3v3h-.3z" fill="#000"/><path d="m0 0h3v.3h-3z" fill="#000" transform="matrix(1 0 0 -1 19.5 16.2998)"/><path d="m17.5 8h4v2c0 1.1046-.8954 2-2 2-1.1046 0-2-.8954-2-2z" stroke="#000" stroke-width=".3"/><path d="m20.5 8h4v2c0 1.1046-.8954 2-2 2-1.1046 0-2-.8954-2-2z" stroke="#000" stroke-width=".3"/><path d="m18.5 8h5v3.5c0 1.3807-1.1193 2.5-2.5 2.5s-2.5-1.1193-2.5-2.5z" fill="#ffc843" stroke="#000" stroke-width=".3"/><g fill="#000"><rect height="2" rx=".15" width=".3" x="9" y="9"/><rect height="2" rx=".15" width=".3" x="9" y="12"/><rect height="2" rx=".15" transform="matrix(0 -1 1 0 -4.89961 18.20039)" width=".3" x="6.65039" y="11.55"/><rect height="2" rx=".15" transform="matrix(0 -1 1 0 -1.91921 21.21999)" width=".3" x="9.65039" y="11.5696"/><rect height="2" rx=".15" width=".3" x="33" y="15"/><rect height="2" rx=".15" width=".3" x="33" y="18"/><rect height="2" rx=".15" transform="matrix(0 -1 1 0 13.1004 48.2004)" width=".3" x="30.6504" y="17.55"/><rect height="2" rx=".15" transform="matrix(0 -1 1 0 16.0808 51.22)" width=".3" x="33.6504" y="17.5696"/></g></svg>