<svg fill="none" height="42" viewBox="0 0 42 42" width="42" xmlns="http://www.w3.org/2000/svg" xmlns:xlink="http://www.w3.org/1999/xlink"><clipPath id="a"><path d="m5 5h32v32h-32z"/></clipPath><clipPath id="b"><path d="m19.6006 23.4506h11v11h-11z"/></clipPath><rect fill="#f2f4ff" height="42" rx="8" width="42"/><g clip-path="url(#a)"><path clip-rule="evenodd" d="m26.6956 12.5696-7.4247-1.7677-12.72788 12.7279 9.19238 9.1924 12.7279-12.7279zm-3.5356 3.5356c.3905.3905 1.0237.3905 1.4142 0 .3906-.3905.3906-1.0237 0-1.4142-.3905-.3906-1.0237-.3906-1.4142 0-.3905.3905-.3905 1.0237 0 1.4142z" fill="#a098ff" fill-rule="evenodd"/><path d="m19.2709 10.8019.0348-.1459-.0816-.0195-.0592.0593zm7.4247 1.7677.1459-.0347-.0214-.0898-.0898-.0214zm-20.15258 10.9602-.10607-.1061-.10607.1061.10607.1061zm9.19238 9.1924-.1061.1061.1061.106.1061-.106zm12.7279-12.7279.1061.106.0593-.0592-.0195-.0816zm-9.2271-9.0465 7.4246 1.7678.0695-.2919-7.4246-1.7677zm-12.58712 12.6881 12.72792-12.728-.2121-.2121-12.72795 12.7279zm9.19242 8.9802-9.19242-9.1924-.21213.2122 9.19235 9.1924zm12.5158-12.7279-12.728 12.7279.2122.2122 12.7279-12.728zm-1.8077-7.2838 1.7678 7.4246.2918-.0695-1.7677-7.4246zm-2.0814 3.3947c-.332.332-.8702.332-1.2021 0l-.2121.2121c.4491.4491 1.1772.4491 1.6263 0zm0-1.2021c.3319.332.3319.8702 0 1.2021l.2121.2121c.4491-.4491.4491-1.1772 0-1.6263zm-1.2021 0c.3319-.3319.8701-.3319 1.2021 0l.2121-.2121c-.4491-.4491-1.1772-.4491-1.6263 0zm0 1.2021c-.332-.3319-.332-.8701 0-1.2021l-.2121-.2121c-.4491.4491-.4491 1.1772 0 1.6263z" fill="#000"/><path clip-rule="evenodd" d="m22.4126 22.512v-.975h-9.6524v.975zm-3.792-2.2111c.5712-.5712.5712-1.4972 0-2.0684s-1.4972-.5712-2.0684 0c-.5711.5712-.5711 1.4972 0 2.0684.5712.5711 1.4972.5711 2.0684 0zm-1.3789-1.379c.1904-.1903.499-.1903.6894 0 .1904.1904.1904.4991 0 .6895s-.499.1904-.6894 0-.1904-.4991 0-.6895zm1.379 6.8947c.5712-.5711.5712-1.4972 0-2.0683-.5712-.5712-1.4972-.5712-2.0684 0-.5711.5711-.5711 1.4972 0 2.0683.5712.5712 1.4972.5712 2.0684 0zm-1.3789-1.3789c.1904-.1904.499-.1904.6894 0s.1904.4991 0 .6895c-.1904.1903-.499.1903-.6894 0-.1904-.1904-.1904-.4991 0-.6895z" fill="#fff" fill-rule="evenodd"/><path d="m22.4126 21.537h.15v-.15h-.15zm0 .975v.15h.15v-.15zm-9.6524-.975v-.15h-.15v.15zm0 .975h-.15v.15h.15zm9.5024-.975v.975h.3v-.975zm-9.5024.15h9.6524v-.3h-9.6524zm.15.825v-.975h-.3v.975zm9.5024-.15h-9.6524v.3h9.6524zm-3.8981-4.0234c.5126.5126.5126 1.3436 0 1.8562l.2122.2121c.6297-.6297.6297-1.6507 0-2.2805zm-1.8562 0c.5126-.5126 1.3436-.5126 1.8562 0l.2122-.2122c-.6298-.6297-1.6508-.6297-2.2805 0zm0 1.8562c-.5126-.5126-.5126-1.3436 0-1.8562l-.2121-.2122c-.6298.6298-.6298 1.6508 0 2.2805zm1.8562 0c-.5126.5126-1.3436.5126-1.8562 0l-.2121.2121c.6297.6298 1.6507.6298 2.2805 0zm-.4773-1.3789c-.249-.249-.6526-.249-.9016 0l.2121.2121c.1319-.1318.3456-.1318.4774 0zm0 .9016c.249-.249.249-.6526 0-.9016l-.2121.2121c.1318.1318.1318.3455 0 .4773zm-.9016 0c.249.2489.6526.2489.9016 0l-.2121-.2122c-.1318.1318-.3455.1318-.4774 0zm0-.9016c-.249.249-.249.6526 0 .9016l.2121-.2122c-.1318-.1318-.1318-.3455 0-.4773zm1.379 5.0384c.5126.5126.5126 1.3437 0 1.8563l.2122.2121c.6297-.6298.6297-1.6508 0-2.2805zm-1.8562 0c.5126-.5126 1.3436-.5126 1.8562 0l.2122-.2121c-.6298-.6298-1.6508-.6298-2.2805 0zm0 1.8563c-.5126-.5126-.5126-1.3437 0-1.8563l-.2121-.2121c-.6298.6297-.6298 1.6507 0 2.2805zm1.8562 0c-.5126.5125-1.3436.5125-1.8562 0l-.2121.2121c.6297.6297 1.6507.6297 2.2805 0zm-.4773-1.379c-.249-.2489-.6526-.2489-.9016 0l.2121.2122c.1319-.1318.3456-.1318.4774 0zm0 .9016c.249-.2489.249-.6526 0-.9016l-.2121.2122c.1318.1318.1318.3455 0 .4773zm-.9016 0c.249.249.6526.249.9016 0l-.2121-.2121c-.1318.1318-.3455.1318-.4774 0zm0-.9016c-.249.249-.249.6527 0 .9016l.2121-.2121c-.1318-.1318-.1318-.3455 0-.4773z" fill="#000"/><g stroke="#000" stroke-width=".3"><path d="m25.7018 12.4024c1.2427-1.7748 3.0074-5.34086 1.0415-6.71744-1.966-1.37658-3.7611 1.88333-4.4578 8.10974"/><circle cx="25.1011" cy="28.9506" fill="#ffc843" r="7.35" transform="matrix(.81915204 .57357644 -.57357644 .81915204 21.144865 -9.161743)"/><g clip-path="url(#b)"><path d="m30.2821 30.2529-.0065.0259c-.7255 2.8506-3.6195 4.5822-6.4772 3.8696-2.8652-.7145-4.6095-3.6176-3.8946-6.4834.7142-2.8664 3.6171-4.6108 6.4825-3.8963h.0001c2.8661.7146 4.6103 3.6179 3.8957 6.4842z" fill="#f7931a"/><path d="m25.6096 26.4216.2046-.8206.0362-.1455.1456.0362.6035.1504.1456.0363-.0363.1456-.2144.8599c.3374.127.6422.2881.8598.5075.2335.2353.3617.5334.3308.9048l.0028.0021-.0134.0907c-.0431.2918-.1477.5206-.3058.6902-.0812.0871-.1739.1559-.2748.209.1641.1242.2962.275.3778.4613.1233.2818.1195.6183-.0201 1.0168zm0 0c-.0637-.0152-.1276-.0301-.1915-.0449l.2053-.8233.0364-.1456-.1456-.0363-.6032-.1503-.1455-.0363-.0363.1455-.2117.8484c-.0325-.0075-.0648-.0151-.0968-.0226l.0004-.0021-.142-.0355-.8323-.2078-.1456-.0364-.0363.1457-.1605.6446-.037.1483.149.0341.0335-.1462-.0335.1462.0001.0001h.0002l.0009.0002.0037.0009.0141.0032.0504.0117c.0121.0028.0254.0059.0395.0092l-.0017.0011.3283.0819c.0923.0231.1285.0595.1447.0852.0166.026.0242.0595.0236.099l-.2778 1.1145-.0361.1449-.3568 1.4302c-.0089.0193-.0199.0339-.0306.0417-.005.0036-.0106.0063-.0186.0078-.0082.0014-.0236.0023-.0486-.0039l-.3845-.0952-.0327-.0086-.0141-.0037-.0036-.001-.001-.0002-.0002-.0001h-.0001l-.0385.145.0385-.145-.1247-.0332-.0514.1185-.2997.6908-.0704.1624.1718.0428.7852.1958m2.5833-4.5215-2.5833 4.5215m0 0c.0858.0215.1691.0432.2523.0649.011.0029.022.0058.033.0086m-.2853-.0735.2853.0735m0 0-.2139.8586-.0362.1455.1455.0363.6028.1504.1456.0363.0363-.1456.2104-.8441c.0642.017.1277.0334.1905.0494l-.2102.8423-.0363.1456.1456.0362.6035.1504.1455.0363.0363-.1455.2158-.8649c.4662.0784.8973.0976 1.2607-.0142.4129-.1271.7211-.4176.898-.9232zm2.6911-.9579-.0014.0057c-.0343.138-.1135.2181-.2258.2671-.1201.0524-.2811.0694-.4661.0598-.2988-.0156-.6143-.0968-.8385-.1558l.2597-1.0412c.0046.001.0093.0021.014.0031.2266.051.5363.1207.8038.242.1678.0762.3012.1656.3816.2685.0741.0947.1075.2052.0727.3508zm.1871-1.9462-.0018.0073c-.0315.126-.0988.1968-.1878.2401-.0962.0467-.226.0646-.3778.059-.2363-.0087-.4839-.0709-.6686-.1198l.229-.9184c.1879.0418.436.0977.6506.199.1366.0645.2418.14.3039.2266.0564.0786.0835.1745.0525.3062z" fill="#fff"/></g></g></g><g fill="#000"><rect height="2" rx=".15" width=".3" x="10" y="10"/><rect height="2" rx=".15" width=".3" x="10" y="13"/><rect height="2" rx=".15" transform="matrix(0 -1 1 0 -4.89961 20.20039)" width=".3" x="7.65039" y="12.55"/><rect height="2" rx=".15" transform="matrix(0 -1 1 0 -1.9191 23.2199)" width=".3" x="10.6504" y="12.5695"/><rect height="2" rx=".15" width=".3" x="32" y="17"/><rect height="2" rx=".15" width=".3" x="32" y="20"/><rect height="2" rx=".15" transform="matrix(0 -1 1 0 10.1004 49.2004)" width=".3" x="29.6504" y="19.55"/><rect height="2" rx=".15" transform="matrix(0 -1 1 0 13.0808 52.22)" width=".3" x="32.6504" y="19.5696"/></g></svg>