<svg fill="none" height="26" viewBox="0 0 114 26" width="114" xmlns="http://www.w3.org/2000/svg"><g fill="#00142a"><path d="m89.5556 12.525c0-.6529 0-1.267-.02-1.8341-.0137-.535-.0638-1.06828-.1501-1.59567-.0806-.48158-.2231-.94929-.4233-1.39021-.2114-.4546-.4939-.86824-.8356-1.22347-.4846-.52471-1.0613-.94465-1.6979-1.2364-.6886-.29475-1.4261-.44087-2.169-.42974-.7457-.01018-1.4859.13588-2.1779.42974-.6402.28776-1.2206.70589-1.7079 1.23053-.3411.35502-.6225.76874-.8323 1.22347-.1985.44102-.3388.90881-.4167 1.39021-.0843.52755-.1325 1.06084-.1444 1.59564-.0134.5672-.02 1.1813-.0167 1.8341.0034.6528 0 1.2622.0167 1.8329.0119.5348.0601 1.0681.1444 1.5956.0779.4814.2182.9492.4167 1.3902.2106.4543.492.8678.8323 1.2235.4865.5251 1.0671.9426 1.7079 1.2282.6915.2958 1.4319.4427 2.1779.4321.7431.0116 1.4809-.1354 2.169-.4321.6367-.2879 1.2136-.7052 1.6979-1.2282.3409-.3559.6233-.7694.8356-1.2235.2002-.4409.3427-.9086.4233-1.3902.0853-.5259.1347-1.0576.1478-1.5909.0167-.5707.0245-1.1813.02-1.8329zm-2.8002 0c0 .7232-.01 1.3256-.0333 1.8046-.0132.3936-.0503.7858-.1112 1.1742-.0416.2588-.1164.5104-.2222.7479-.0859.1915-.1982.3684-.3334.5249-.2085.2523-.4673.4528-.7578.5871-.3268.1478-.679.2229-1.0345.2208-.3572.0016-.7111-.0735-1.04-.2208-.2976-.1318-.5634-.3324-.7779-.5871-.1359-.1558-.2484-.3329-.3333-.5249-.1029-.2377-.1739-.4894-.2111-.7479-.0594-.3887-.0965-.7808-.1112-1.1742-.02-.479-.03-1.0806-.03-1.8046 0-.7233.01-1.3268.03-1.8059.0148-.3934.0519-.78548.1112-1.17416.0372-.25846.1082-.51019.2111-.74795.0852-.19184.1976-.36882.3333-.52485.2148-.25432.4805-.45487.7779-.58708.3284-.14897.6826-.22414 1.04-.22074.3557-.0039.7082.07131 1.0345.22074.2903.1347.549.33511.7578.58708.1349.15674.2472.33358.3334.52485.1058.23752.1806.48914.2222.74795.0609.38846.098.78066.1112 1.17416.0244.4779.0333 1.0814.0333 1.8059z"/><g clip-rule="evenodd" fill-rule="evenodd"><path d="m113.63 5.07871c-.002-.1452-.126-.26259-.28-.26389h-2.635c-.154.00065-.279.11842-.28.26389v9.17069l-6.425-9.36055c-.043-.06328-.081-.07403-.176-.07403h-2.443c-.154.00193-.278.11896-.28.26389v14.88079c.002.1448.127.2614.28.2627h2.633c.154-.0006.278-.1179.279-.2627v-9.1945l6.426 9.382c.044.0633.08.074.176.074h2.442c.154-.0006.279-.1177.28-.2627z"/><path d="m97.2593 5.07871c-.0007-.14547-.1138-.26324-.2535-.26389h-2.382c-.1397.00065-.2528.11842-.2534.26389v14.87959c.0006.1455.1137.2633.2534.2639h2.382c.1397-.0006.2528-.1184.2535-.2639z"/><path d="m67.329 12.5185c0-.7281.0078-1.3341.0279-1.8168.0136-.3935.0509-.7858.1116-1.17441.2143-1.3036 1.163-2.07285 2.374-2.07285.7902.00705 1.5068.31475 1.9644 1.0147.2072.32678.3583.68931.4464 1.07107.0068.04021.0417.06827.0804.06459h2.729c.039 0 .0535-.02818.0468-.06811-.298-1.7769-1.1987-3.37293-2.7903-4.16331-.7822-.38109-1.636-.57176-2.4979-.55785-1.5366 0-2.8309.55354-3.883 1.66063-.6007.61601-1.0108 1.40845-1.1765 2.27367-.1607.85184-.2418 2.10767-.2433 3.76757-.0015 1.6598.0796 2.9153.2433 3.7663.1644.8663.5732 1.6604 1.1731 2.2784 1.0514 1.1063 2.3458 1.6594 3.883 1.6594.8618.0137 1.7155-.1765 2.4979-.5566 1.5917-.7904 2.4924-2.3865 2.7904-4.1633.0067-.0412-.0078-.0682-.0469-.0682h-2.7301c-.0388-.0042-.074.0241-.0803.0646-.0883.3813-.2394.7435-.4465 1.0699-.4576.7047-1.1741 1.0088-1.9644 1.0147-1.211 0-2.1597-.7681-2.374-2.0717-.0606-.3886-.0979-.7808-.1116-1.1744-.0156-.485-.0234-1.0922-.0234-1.818z"/><path d="m35.7822 5.07871c-.0007-.14547-.1198-.26324-.2669-.26389h-2.5077c-.1471.00065-.2662.11842-.2669.26389v14.88069c.0014.145.1202.262.2669.2628h2.5077c.1467-.0008.2656-.1178.2669-.2628v-4.368l2.0127-2.3798 4.1341 6.9317c.0319.0511.0891.0812.1497.0789h3.0475c.1401 0 .1654-.0861.0954-.2043l-5.4128-9.075 4.9661-5.89165c.1002-.11941.0579-.23285-.099-.23285h-3.3312c-.0406-.00236-.0796.01559-.1039.04776l-5.4586 6.47434z"/><path d="m54.4074 17.5616c-1.304 0-2.4864-1.2812-2.4864-2.8111v-9.674c-.0006-.14425-.1106-.26103-.2465-.26168h-2.3169c-.1359.00065-.2459.11743-.2465.26168v9.6361c0 3.3688 2.3738 5.5096 5.2963 5.5096 2.9226 0 5.2963-2.1408 5.2963-5.5096v-9.6361c-.0012-.14398-.1109-.26039-.2465-.26168h-2.318c-.1354.00129-.2448.11789-.2454.26168v9.674c0 1.5287-1.1835 2.8111-2.4864 2.8111z"/><path d="m7.61054 13.0026 7.80916 7.7019 4.9292-4.8607c.8814-.7826 2.2298-.7478 3.0685.0792s.874 2.1567.0803 3.0259l-6.5048 6.4156c-.8737.8473-2.2751.8473-3.1488 0l-9.38484-9.2568v5.502c0 1.2143-.99824 2.1987-2.22963 2.1987s-2.22963-.9844-2.22963-2.1987v-17.22132c0-1.21427.99824-2.19864 2.22963-2.19864s2.22963.98437 2.22963 2.19864v5.50199l9.38364-9.254373c.8734-.847996 2.2753-.847996 3.1488 0l6.5097 6.414403c.7936.86916.7583 2.19886-.0804 3.0259-.8386.827-2.1871.8618-3.0685.0792l-4.9292-4.86067zm7.81276-2.201c-.9029-.0005-1.7171.5355-2.063 1.3579-.3458.8224-.1552 1.7693.4831 2.3991.6383.6297 1.5984.8182 2.4326.4776s1.3782-1.1432 1.3782-2.0336c.0003-.5837-.2346-1.1437-.6529-1.5567-.4184-.413-.986-.6452-1.578-.6455z"/></g></g></svg>