<svg fill="none" height="16" viewBox="0 0 27 16" width="27" xmlns="http://www.w3.org/2000/svg"><path clip-rule="evenodd" d="m14.9979 6.2v.8h-4v-.8c0-1.10457.8955-2 2-2 1.1046 0 2 .89543 2 2zm-4.9979.8h-.20207v-.8c0-1.76731 1.43267-3.2 3.19997-3.2s3.2 1.43269 3.2 3.2v.81959c.4575.09185.8021.49589.8021.98041v2.6c0 1.1046-.8954 2-2 2h-4c-1.10457 0-2-.8954-2-2v-2.6c0-.55229.44772-1 1-1zm6.1979.01958v-.01958h-.1979c.0678 0 .1339.00674.1979.01958zm-2.797 2.67306c.2386-.13846.3991-.39671.3991-.69244 0-.44183-.3582-.8-.8-.8-.4419 0-.8.35817-.8.8 0 .29649.1612.55531.4009.6935v1.3062h.8z" fill="#fff" fill-rule="evenodd"/></svg>