<svg fill="none" height="12" viewBox="0 0 12 12" width="12" xmlns="http://www.w3.org/2000/svg"><g fill="#fff"><path d="m6 12c-3.3138 0-6-2.6862-6-6s2.6862-6 6-6 6 2.6862 6 6-2.6862 6-6 6zm0-1.2c1.27304 0 2.49394-.5057 3.39411-1.40589.90019-.90017 1.40589-2.12107 1.40589-3.39411s-.5057-2.49394-1.40589-3.39411c-.90017-.90018-2.12107-1.40589-3.39411-1.40589s-2.49394.50571-3.39411 1.40589c-.90018.90017-1.40589 2.12107-1.40589 3.39411s.50571 2.49394 1.40589 3.39411c.90017.90019 2.12107 1.40589 3.39411 1.40589z"/><path d="m4.5 3.75 3.75 2.25-3.75 2.25z"/></g></svg>