<svg fill="none" height="18" viewBox="0 0 19 18" width="19" xmlns="http://www.w3.org/2000/svg"><path clip-rule="evenodd" d="m9.00018 0c4.97052 0 9.00002 4.02944 9.00002 9l-.0066.34553c-.0444 1.16967-.3135 2.30047-.7809 3.34077l-1.8502-.7635c.4092-.8895.6375-1.8795.6375-2.9228 0-3.86599-3.134-7-7-7s-7 3.13401-7 7c0 3.866 3.134 7 7 7 2.1396 0 4.055-.9599 5.339-2.4727l1.426 1.4077h.0002l3.0634 3.065h-9.82842c-4.97056 0-8.99999689-4.0294-8.99999689-9 0-4.97056 4.02943689-9 8.99999689-9zm-.00018 4c1.6569 0 3 1.34315 3 3 0 1.15178-.6491 2.15197-1.6014 2.65473-.2319.1224-.3978.34637-.398.60857l-.0006.7367h-2v-1c0-.74049.40242-1.38698 1.00049-1.73272l.10008-.06179c.6964-.3684.92913-.73205.89943-1.20549-.03462-.5512-.44772-1-1-1-.51284 0-.93551.38604-.99328.88338l-.00672.11662h-2c0-1.65685 1.34314-3 3-3zm1 10v-2h-2v2z" fill="#00142a" fill-rule="evenodd"/></svg>