<svg fill="none" height="24" viewBox="0 0 23 24" width="23" xmlns="http://www.w3.org/2000/svg"><path clip-rule="evenodd" d="m22.5 8.62561c0 3.45059-2.3303 6.35689-5.5029 7.23119.0019-.0768.0029-.1539.0029-.2312 0-4.9706-4.0295-8.99999-9.00001-8.99999-.0773 0-.15436.00098-.23119.00291.87427-3.17267 3.7806-5.50291 7.2312-5.50291 4.1421 0 7.5 3.35786 7.5 7.5z" fill="#00142a" fill-opacity=".2" fill-rule="evenodd"/><path d="m15.5 15.6256c0 4.1421-3.3579 7.5-7.5 7.5-4.14214 0-7.5-3.3579-7.5-7.5s3.35786-7.49999 7.5-7.49999c4.1421 0 7.5 3.35789 7.5 7.49999z" fill="#887eff"/><path d="m8 13.504h3v3h-3z" fill="#fff" transform="matrix(.70710678 .70710678 -.70710678 .70710678 11.891916 -1.701624)"/><g clip-rule="evenodd" fill-rule="evenodd"><path d="m21.499 21.2111v-1.5h-3.0496l.7631-.7631-1.0606-1.0607-2.6517 2.6517 2.6517 2.6516 1.0606-1.0606-.9189-.9189z" fill="#00142a" fill-opacity=".2"/><path d="m1.25 2.78894v1.5h3.04958l-.76307.76307 1.06066 1.06066 2.65165-2.65165-2.65165-2.65165-1.06066 1.06066.91891.91891z" fill="#887eff"/></g></svg>