<svg width="140" height="140" viewBox="0 0 140 140" fill="none" xmlns="http://www.w3.org/2000/svg">
<path d="M135.595 100.062L75.3109 135.092C72.3283 136.827 67.4664 136.827 64.4609 135.092L3.78918 100.069C2.27505 99.1943 1.52179 98.0454 1.52179 96.9041V98.9127C1.51418 100.054 2.26744 101.203 3.78157 102.078L64.4533 137.108C67.4587 138.843 72.3131 138.843 75.3033 137.108L135.587 102.078C137.071 101.218 137.816 100.084 137.816 98.9584V96.9497C137.816 98.0834 137.078 99.2095 135.595 100.069V100.062Z" fill="#1D1D1D" stroke="#1D1D1D" stroke-width="0.304348" stroke-miterlimit="10"/>
<path d="M135.557 93.7848C138.562 95.5196 138.577 98.3348 135.595 100.07L75.311 135.1C72.3284 136.835 67.4664 136.835 64.461 135.1L3.78924 100.07C0.783806 98.3348 0.768588 95.5196 3.7512 93.7848L64.0349 58.7543C67.0175 57.0196 71.8795 57.0196 74.8849 58.7543L135.557 93.7848Z" fill="white" stroke="#1D1D1D" stroke-width="0.304348" stroke-miterlimit="10"/>
<path d="M66.7741 120.56C66.2491 120.56 65.7318 120.423 65.26 120.157L23.7089 96.1666C23.4274 96.0068 23.26 95.7177 23.26 95.3981C23.26 95.0785 23.4274 94.7894 23.7089 94.6296L66.7741 69.7644L111.178 95.3981L68.2883 120.157C67.8241 120.423 67.2991 120.56 66.7741 120.56ZM65.4274 119.875C66.2568 120.355 67.2915 120.355 68.1285 119.875L110.524 95.3981L66.7741 70.1372L23.8763 94.9035C23.7013 95.0024 23.5948 95.1851 23.5948 95.3905C23.5948 95.5959 23.7013 95.7785 23.8763 95.8774L65.4274 119.868V119.875Z" fill="#E5E5E5"/>
<path d="M66.4089 98.0685L98.6089 116.352L128.374 99.8413C130.307 98.8065 130.284 96.0217 128.336 95.0174L101.98 80.112C101.181 79.7011 100.222 79.7087 99.4306 80.1424L66.4012 98.0761L66.4089 98.0685Z" fill="#E5E5E5"/>
<path d="M99.6587 108.645L104.224 105.989L61.0446 81.0631L56.4794 83.7185L99.6587 108.645Z" fill="white" stroke="#1D1D1D" stroke-width="0.304348" stroke-linejoin="round"/>
<path d="M104.429 32.8699L99.8641 35.5253L99.6586 104.376L99.6434 114.085C99.6434 115.196 99.2478 115.98 98.6086 116.353C100.13 115.47 101.652 114.58 103.174 113.697C103.813 113.324 104.201 112.541 104.209 111.43L104.224 102.489L104.429 32.8623V32.8699Z" fill="#C6C6C6" stroke="#1D1D1D" stroke-width="0.304348" stroke-miterlimit="10"/>
<path d="M99.8642 35.5172L104.429 32.8694L61.2577 7.93567L56.6925 10.5911L99.8642 35.5172Z" fill="white" stroke="#1D1D1D" stroke-width="0.304348" stroke-linejoin="round"/>
<path d="M56.6925 10.5913L56.487 80.2109L56.4718 89.1511C56.4718 91.3957 58.0468 94.1348 60.0022 95.2609L96.0903 116.101C98.0457 117.227 99.6359 116.329 99.6435 114.077L99.6588 105.137L99.8642 35.5098L56.6925 10.5913Z" fill="white" stroke="#1D1D1D" stroke-width="0.304348" stroke-linejoin="round"/>
<path d="M73.1044 11.4892C73.1044 11.2152 73.2033 11.025 73.3555 10.9337L68.7903 13.5892C68.6381 13.6805 68.5392 13.8707 68.5392 14.1446C68.6381 14.0913 68.7674 14.0152 68.8664 13.9544C68.9196 13.9239 68.9881 13.8859 69.0414 13.8555C69.399 13.6424 69.7566 13.437 70.1142 13.2315C70.624 12.9348 71.1338 12.6381 71.6435 12.3413C72.1305 12.0598 72.6174 11.7783 73.1044 11.4892C71.5827 12.3718 70.0609 13.262 68.5392 14.1446C68.5392 14.7 68.9196 15.362 69.399 15.6359L73.9642 12.9805C73.4924 12.7065 73.1044 12.037 73.1044 11.4892Z" fill="white"/>
<mask id="mask0_38_9515" style="mask-type:luminance" maskUnits="userSpaceOnUse" x="68" y="10" width="6" height="6">
<path d="M73.1044 11.4892C73.1044 11.2152 73.2033 11.025 73.3555 10.9337L68.7903 13.5892C68.6381 13.6805 68.5392 13.8707 68.5392 14.1446C68.6381 14.0913 68.7674 14.0152 68.8664 13.9544C68.9196 13.9239 68.9881 13.8859 69.0414 13.8555C69.399 13.6424 69.7566 13.437 70.1142 13.2315C70.624 12.9348 71.1338 12.6381 71.6435 12.3413C72.1305 12.0598 72.6174 11.7783 73.1044 11.4892C71.5827 12.3718 70.0609 13.262 68.5392 14.1446C68.5392 14.7 68.9196 15.362 69.399 15.6359L73.9642 12.9805C73.4924 12.7065 73.1044 12.037 73.1044 11.4892Z" fill="white"/>
</mask>
<g mask="url(#mask0_38_9515)">
<path d="M69.3991 15.6362L73.9643 12.9808C73.8654 12.9199 73.7665 12.8438 73.6752 12.7601L69.11 15.4156C69.2013 15.5069 69.2926 15.583 69.3991 15.6362Z" fill="white" stroke="#1D1D1D" stroke-width="0.304348" stroke-linejoin="round"/>
<path d="M69.1099 15.4077L73.6751 12.7522C73.6751 12.7522 73.6142 12.6838 73.5838 12.6533L69.0186 15.3088C69.0186 15.3088 69.0794 15.3772 69.1099 15.4077Z" fill="white" stroke="#1D1D1D" stroke-width="0.304348" stroke-linejoin="round"/>
<path d="M69.0184 15.309L73.5837 12.6535C73.5837 12.6535 73.538 12.6003 73.5152 12.5698L68.95 15.2253C68.95 15.2253 68.9956 15.2861 69.0184 15.309Z" fill="white" stroke="#1D1D1D" stroke-width="0.304348" stroke-linejoin="round"/>
<path d="M68.9425 15.2251L73.5077 12.5696C73.5077 12.5696 73.4696 12.5164 73.4468 12.4935L68.8816 15.149C68.8816 15.149 68.9196 15.2022 68.9425 15.2251Z" fill="white" stroke="#1D1D1D" stroke-width="0.304348" stroke-linejoin="round"/>
<path d="M68.8892 15.1489L73.4544 12.4934C73.4544 12.4934 73.4239 12.4402 73.4087 12.4174L68.8435 15.0728C68.8435 15.0728 68.8739 15.1184 68.8968 15.1489H68.8892Z" fill="white" stroke="#1D1D1D" stroke-width="0.304348" stroke-linejoin="round"/>
<path d="M68.8358 15.073L73.401 12.4176C73.401 12.4176 73.3706 12.3719 73.3554 12.3491L68.7902 15.0046C68.7902 15.0046 68.8206 15.0502 68.8358 15.073Z" fill="white" stroke="#1D1D1D" stroke-width="0.304348" stroke-linejoin="round"/>
<path d="M68.7904 15.0039L73.3556 12.3485C73.3556 12.3485 73.3328 12.2952 73.3175 12.28L68.7523 14.9355C68.7523 14.9355 68.7828 14.9811 68.7904 15.0039Z" fill="white" stroke="#1D1D1D" stroke-width="0.304348" stroke-linejoin="round"/>
<path d="M68.7523 14.9283L73.3175 12.2728C73.3175 12.2728 73.2947 12.2196 73.2795 12.2043L68.7142 14.8522C68.7142 14.8522 68.7371 14.9054 68.7523 14.9283Z" fill="white" stroke="#1D1D1D" stroke-width="0.304348" stroke-linejoin="round"/>
<path d="M68.7219 14.8598L73.2871 12.212C73.2871 12.212 73.2643 12.1587 73.2491 12.1359L68.6838 14.7913C68.6838 14.7913 68.7067 14.8446 68.7219 14.8674V14.8598Z" fill="white" stroke="#1D1D1D" stroke-width="0.304348" stroke-linejoin="round"/>
<path d="M68.6839 14.7835L73.2491 12.1281C73.2491 12.1281 73.2263 12.0748 73.2187 12.052L68.6534 14.7074C68.6534 14.7074 68.6763 14.7607 68.6839 14.7835Z" fill="white" stroke="#1D1D1D" stroke-width="0.304348" stroke-linejoin="round"/>
<path d="M68.6534 14.7079L73.2186 12.0524C73.2186 12.0524 73.1958 11.9992 73.1881 11.9688L68.6229 14.6242C68.6229 14.6242 68.6458 14.6774 68.6534 14.7079Z" fill="white" stroke="#1D1D1D" stroke-width="0.304348" stroke-linejoin="round"/>
<path d="M68.623 14.6239L73.1882 11.9685C73.1882 11.9685 73.173 11.9152 73.1577 11.8848L68.5925 14.5402C68.5925 14.5402 68.6077 14.6011 68.6154 14.6315L68.623 14.6239Z" fill="white" stroke="#1D1D1D" stroke-width="0.304348" stroke-linejoin="round"/>
<path d="M68.5925 14.5402L73.1577 11.8848C73.1577 11.8848 73.1425 11.8163 73.1349 11.7859L68.5697 14.4413C68.5697 14.4413 68.5849 14.5098 68.5925 14.5402Z" fill="white" stroke="#1D1D1D" stroke-width="0.304348" stroke-linejoin="round"/>
<path d="M68.5696 14.4412L73.1348 11.7858C73.1272 11.7478 73.1196 11.7097 73.112 11.6641L68.5468 14.3195C68.5468 14.3575 68.562 14.4032 68.5696 14.4412Z" fill="white" stroke="#1D1D1D" stroke-width="0.304348" stroke-linejoin="round"/>
<path d="M68.5544 14.3196L73.1196 11.6642C73.112 11.6033 73.112 11.55 73.112 11.4892C73.112 11.2152 73.2109 11.025 73.3631 10.9337L68.7978 13.5892C68.6457 13.6805 68.5468 13.8707 68.5468 14.1446C68.5468 14.1978 68.5468 14.2587 68.5544 14.312V14.3196Z" fill="white" stroke="#1D1D1D" stroke-width="0.304348" stroke-linejoin="round"/>
</g>
<path d="M73.1044 11.4892C73.1044 11.2152 73.2033 11.025 73.3555 10.9337L68.7903 13.5892C68.6381 13.6805 68.5392 13.8707 68.5392 14.1446M73.1044 11.4892C72.6174 11.7783 72.1305 12.0598 71.6435 12.3413C71.1338 12.6381 70.624 12.9348 70.1142 13.2315C69.7566 13.437 69.399 13.6424 69.0414 13.8555C68.9881 13.8859 68.9196 13.9239 68.8664 13.9544C68.7674 14.0152 68.6381 14.0913 68.5392 14.1446M73.1044 11.4892C71.5827 12.3718 70.0609 13.262 68.5392 14.1446M73.1044 11.4892C73.1044 12.037 73.4924 12.7065 73.9642 12.9805L69.399 15.6359C68.9196 15.362 68.5392 14.7 68.5392 14.1446" stroke="#1D1D1D" stroke-width="0.304348" stroke-linejoin="round"/>
<path d="M73.3555 10.941C73.287 10.9791 73.1957 11.0323 73.1272 11.0704C71.6816 11.9073 70.2359 12.7519 68.7903 13.5888C68.9501 13.4975 69.1631 13.5128 69.4066 13.6497L73.9718 10.9943C73.7283 10.8573 73.5153 10.8421 73.3555 10.9334V10.941Z" fill="white"/>
<mask id="mask1_38_9515" style="mask-type:luminance" maskUnits="userSpaceOnUse" x="68" y="10" width="6" height="4">
<path d="M73.3555 10.941C73.287 10.9791 73.1957 11.0323 73.1272 11.0704C71.6816 11.9073 70.2359 12.7519 68.7903 13.5888C68.9501 13.4975 69.1631 13.5128 69.4066 13.6497L73.9718 10.9943C73.7283 10.8573 73.5153 10.8421 73.3555 10.9334V10.941Z" fill="white"/>
</mask>
<g mask="url(#mask1_38_9515)">
<path d="M69.3991 13.6499L73.9643 10.9945C73.9263 10.9716 73.8806 10.9488 73.8426 10.9336L69.2773 13.589C69.3154 13.6042 69.361 13.6271 69.3991 13.6499Z" fill="white" stroke="#1D1D1D" stroke-width="0.304348" stroke-linejoin="round"/>
<path d="M69.277 13.5889L73.8422 10.9335C73.8422 10.9335 73.7738 10.9031 73.7433 10.9031L69.1781 13.5585C69.1781 13.5585 69.2466 13.5813 69.277 13.5889Z" fill="white" stroke="#1D1D1D" stroke-width="0.304348" stroke-linejoin="round"/>
<path d="M69.1783 13.5583L73.7435 10.9029C73.7435 10.9029 73.6902 10.8877 73.6674 10.8877L69.1022 13.5355C69.1022 13.5355 69.1554 13.5431 69.1783 13.5507V13.5583Z" fill="white" stroke="#1D1D1D" stroke-width="0.304348" stroke-linejoin="round"/>
<path d="M69.1021 13.5431L73.6673 10.8953C73.6673 10.8953 73.6217 10.8953 73.6065 10.8877L69.0413 13.5431C69.0413 13.5431 69.0869 13.5431 69.1021 13.5431Z" fill="white" stroke="#1D1D1D" stroke-width="0.304348" stroke-linejoin="round"/>
<path d="M69.0413 13.5356L73.6065 10.8801C73.6065 10.8801 73.5685 10.8801 73.5533 10.8801L68.988 13.5356C68.988 13.5356 69.0261 13.5356 69.0413 13.5356Z" fill="white" stroke="#1D1D1D" stroke-width="0.304348" stroke-linejoin="round"/>
<path d="M68.9805 13.5356L73.5457 10.8801C73.5457 10.8801 73.5077 10.8801 73.4925 10.8801L68.9272 13.528C68.9272 13.528 68.9653 13.528 68.9805 13.528V13.5356Z" fill="white" stroke="#1D1D1D" stroke-width="0.304348" stroke-linejoin="round"/>
<path d="M68.9272 13.5428L73.4925 10.895C73.4925 10.895 73.462 10.895 73.4468 10.9026L68.8816 13.5581C68.8816 13.5581 68.912 13.5581 68.9272 13.5505V13.5428Z" fill="white" stroke="#1D1D1D" stroke-width="0.304348" stroke-linejoin="round"/>
<path d="M68.8816 13.5505L73.4468 10.895C73.4468 10.895 73.4164 10.9026 73.4012 10.9102L68.8359 13.5657C68.8359 13.5657 68.8664 13.5581 68.8816 13.5505Z" fill="white" stroke="#1D1D1D" stroke-width="0.304348" stroke-linejoin="round"/>
<path d="M68.8359 13.566L73.4012 10.9105C73.4012 10.9105 73.3707 10.9181 73.3555 10.9333L68.7903 13.5888C68.7903 13.5888 68.8207 13.5736 68.8359 13.566Z" fill="white" stroke="#1D1D1D" stroke-width="0.304348" stroke-linejoin="round"/>
<path d="M68.7903 13.589L73.3631 10.9336L73.3555 10.9412L68.7903 13.589Z" fill="white" stroke="#1D1D1D" stroke-width="0.304348" stroke-linejoin="round"/>
</g>
<path d="M73.3555 10.941C73.287 10.9791 73.1957 11.0323 73.1272 11.0704C71.6816 11.9073 70.2359 12.7519 68.7903 13.5888C68.9501 13.4975 69.1631 13.5128 69.4066 13.6497L73.9718 10.9943C73.7283 10.8573 73.5153 10.8421 73.3555 10.9334V10.941Z" stroke="#1D1D1D" stroke-width="0.304348" stroke-linejoin="round"/>
<path d="M88.01 26.379L92.5753 23.7236L73.9644 12.9801L69.3992 15.6355L88.01 26.379Z" fill="white" stroke="#1D1D1D" stroke-width="0.304348" stroke-linejoin="round"/>
<path d="M93.1837 23.7845C93.0239 23.8758 92.8109 23.8606 92.5674 23.7236L88.0022 26.3715C88.2457 26.516 88.4587 26.5236 88.6185 26.4323C89.9881 25.6334 91.8142 24.5758 93.1837 23.7769V23.7845Z" fill="white"/>
<mask id="mask2_38_9515" style="mask-type:luminance" maskUnits="userSpaceOnUse" x="88" y="23" width="6" height="4">
<path d="M93.1837 23.7845C93.0239 23.8758 92.8109 23.8606 92.5674 23.7236L88.0022 26.3715C88.2457 26.516 88.4587 26.5236 88.6185 26.4323C89.9881 25.6334 91.8142 24.5758 93.1837 23.7769V23.7845Z" fill="white"/>
</mask>
<g mask="url(#mask2_38_9515)">
<path d="M88.6185 26.44L93.1837 23.7845V23.7922L88.6185 26.44Z" fill="white" stroke="#1D1D1D" stroke-width="0.304348" stroke-linejoin="round"/>
<path d="M88.6185 26.44L93.1837 23.7845C93.1837 23.7845 93.1533 23.7998 93.1381 23.8074L88.5729 26.4628C88.5729 26.4628 88.6033 26.4476 88.6185 26.44Z" fill="white" stroke="#1D1D1D" stroke-width="0.304348" stroke-linejoin="round"/>
<path d="M88.573 26.4631L93.1382 23.8076C93.1382 23.8076 93.1078 23.8152 93.0926 23.8228L88.5273 26.4783C88.5273 26.4783 88.5578 26.4707 88.573 26.4631Z" fill="white" stroke="#1D1D1D" stroke-width="0.304348" stroke-linejoin="round"/>
<path d="M88.5272 26.4781L93.0924 23.8226C93.0924 23.8226 93.062 23.8226 93.0468 23.8302L88.4816 26.4857C88.4816 26.4857 88.512 26.4857 88.5272 26.4781Z" fill="white" stroke="#1D1D1D" stroke-width="0.304348" stroke-linejoin="round"/>
<path d="M88.4814 26.4936L93.0466 23.8381C93.0466 23.8381 93.0085 23.8381 92.9933 23.8381L88.4281 26.4936C88.4281 26.4936 88.4661 26.4936 88.4814 26.4936Z" fill="white" stroke="#1D1D1D" stroke-width="0.304348" stroke-linejoin="round"/>
<path d="M88.4283 26.5009L92.9935 23.8455C92.9935 23.8455 92.9555 23.8455 92.9326 23.8455L88.3674 26.5009H88.4283Z" fill="white" stroke="#1D1D1D" stroke-width="0.304348" stroke-linejoin="round"/>
<path d="M88.3751 26.5009L92.9403 23.8455C92.9403 23.8455 92.8946 23.8455 92.8794 23.8455L88.3142 26.5009C88.3142 26.5009 88.3599 26.5009 88.3751 26.5009Z" fill="white" stroke="#1D1D1D" stroke-width="0.304348" stroke-linejoin="round"/>
<path d="M88.3066 26.4933L92.8718 23.8378C92.8718 23.8378 92.8185 23.8302 92.7957 23.8226L88.2305 26.4705C88.2305 26.4705 88.2837 26.4857 88.3066 26.4857V26.4933Z" fill="white" stroke="#1D1D1D" stroke-width="0.304348" stroke-linejoin="round"/>
<path d="M88.2305 26.4704L92.7957 23.8226C92.7957 23.8226 92.7272 23.7998 92.6968 23.7845L88.1316 26.44C88.1316 26.44 88.2001 26.4704 88.2305 26.4704Z" fill="white" stroke="#1D1D1D" stroke-width="0.304348" stroke-linejoin="round"/>
<path d="M88.1315 26.4399L92.6967 23.7845C92.6587 23.7693 92.613 23.7465 92.575 23.7236L88.0098 26.3715C88.0478 26.4019 88.0935 26.4171 88.1315 26.4323V26.4399Z" fill="white" stroke="#1D1D1D" stroke-width="0.304348" stroke-linejoin="round"/>
</g>
<path d="M93.1837 23.7845C93.0239 23.8758 92.8109 23.8606 92.5674 23.7236L88.0022 26.3715C88.2457 26.516 88.4587 26.5236 88.6185 26.4323C89.9881 25.6334 91.8142 24.5758 93.1837 23.7769V23.7845Z" stroke="#1D1D1D" stroke-width="0.304348" stroke-linejoin="round"/>
<path d="M88.0098 24.4011L92.575 21.7457L73.9717 11.0022L69.3989 13.65L88.0098 24.4011Z" fill="white" stroke="#1D1D1D" stroke-width="0.304348" stroke-linejoin="round"/>
<path d="M88.6187 26.4405C90.1404 25.5578 91.6622 24.6676 93.1839 23.785C93.3361 23.6937 93.435 23.5035 93.435 23.2296C93.435 22.6818 93.0546 22.0198 92.5752 21.7383L88.01 24.3937C88.4894 24.6676 88.8774 25.3372 88.8698 25.8774C88.8698 26.1513 88.7709 26.3415 88.6187 26.4328V26.4405Z" fill="white"/>
<mask id="mask3_38_9515" style="mask-type:luminance" maskUnits="userSpaceOnUse" x="88" y="21" width="6" height="6">
<path d="M88.6187 26.4405C90.1404 25.5578 91.6622 24.6676 93.1839 23.785C93.3361 23.6937 93.435 23.5035 93.435 23.2296C93.435 22.6818 93.0546 22.0198 92.5752 21.7383L88.01 24.3937C88.4894 24.6676 88.8774 25.3372 88.8698 25.8774C88.8698 26.1513 88.7709 26.3415 88.6187 26.4328V26.4405Z" fill="white"/>
</mask>
<g mask="url(#mask3_38_9515)">
<path d="M88.6188 26.4408L93.184 23.7853C93.3362 23.694 93.4351 23.5038 93.4351 23.2299C93.4351 23.1766 93.4351 23.1158 93.4275 23.0625L88.8623 25.7103C88.8623 25.7712 88.8699 25.8245 88.8699 25.8777C88.8699 26.1516 88.7709 26.3418 88.6188 26.4332V26.4408Z" fill="white" stroke="#1D1D1D" stroke-width="0.304348" stroke-linejoin="round"/>
<path d="M88.8622 25.7176L93.4274 23.0697C93.4274 23.0317 93.4122 22.986 93.4046 22.948L88.8394 25.6034C88.847 25.6415 88.8546 25.6795 88.8622 25.7176Z" fill="white" stroke="#1D1D1D" stroke-width="0.304348" stroke-linejoin="round"/>
<path d="M88.8392 25.5963L93.4044 22.9408C93.4044 22.9408 93.3892 22.8724 93.3816 22.8419L88.8164 25.4974C88.8164 25.4974 88.8316 25.5658 88.8392 25.5963Z" fill="white" stroke="#1D1D1D" stroke-width="0.304348" stroke-linejoin="round"/>
<path d="M88.8165 25.4972L93.3817 22.8418C93.3817 22.8418 93.3665 22.7809 93.3589 22.7505L88.7937 25.4059C88.7937 25.4059 88.8089 25.4668 88.8241 25.4972H88.8165Z" fill="white" stroke="#1D1D1D" stroke-width="0.304348" stroke-linejoin="round"/>
<path d="M88.7937 25.4131L93.359 22.7576C93.359 22.7576 93.3437 22.7044 93.3285 22.674L88.7633 25.3294C88.7633 25.3294 88.7861 25.3826 88.7937 25.4055V25.4131Z" fill="white" stroke="#1D1D1D" stroke-width="0.304348" stroke-linejoin="round"/>
<path d="M88.7633 25.3295L93.3286 22.6741C93.3286 22.6741 93.3057 22.6208 93.2981 22.598L88.7329 25.2535C88.7329 25.2535 88.7557 25.3067 88.7633 25.3295Z" fill="white" stroke="#1D1D1D" stroke-width="0.304348" stroke-linejoin="round"/>
<path d="M88.7328 25.2531L93.298 22.5977C93.298 22.5977 93.2752 22.5444 93.2676 22.5216L88.7024 25.177C88.7024 25.177 88.7252 25.2303 88.7328 25.2531Z" fill="white" stroke="#1D1D1D" stroke-width="0.304348" stroke-linejoin="round"/>
<path d="M88.6947 25.1772L93.2599 22.5217C93.2599 22.5217 93.2294 22.4685 93.2218 22.4532L88.6566 25.1087C88.6566 25.1087 88.6794 25.1543 88.6947 25.1772Z" fill="white" stroke="#1D1D1D" stroke-width="0.304348" stroke-linejoin="round"/>
<path d="M88.6568 25.1089L93.222 22.4535C93.222 22.4535 93.1916 22.4002 93.184 22.385L88.6188 25.0404C88.6188 25.0404 88.6492 25.0937 88.6568 25.1089Z" fill="white" stroke="#1D1D1D" stroke-width="0.304348" stroke-linejoin="round"/>
<path d="M88.6186 25.0329L93.1839 22.3774C93.1839 22.3774 93.1534 22.3242 93.1382 22.309L88.573 24.9644C88.573 24.9644 88.6034 25.01 88.6186 25.0329Z" fill="white" stroke="#1D1D1D" stroke-width="0.304348" stroke-linejoin="round"/>
<path d="M88.5732 24.9641L93.1384 22.3086C93.1384 22.3086 93.1079 22.2554 93.0851 22.2325L88.5199 24.888C88.5199 24.888 88.5503 24.9412 88.5732 24.9641Z" fill="white" stroke="#1D1D1D" stroke-width="0.304348" stroke-linejoin="round"/>
<path d="M88.5274 24.8883L93.0926 22.2328C93.0926 22.2328 93.0546 22.1796 93.0318 22.1567L88.4666 24.8122C88.4666 24.8122 88.5046 24.8654 88.5198 24.8883H88.5274Z" fill="white" stroke="#1D1D1D" stroke-width="0.304348" stroke-linejoin="round"/>
<path d="M88.4666 24.812L93.0318 22.1566C93.0318 22.1566 92.9861 22.1033 92.9633 22.0729L88.3981 24.7283C88.3981 24.7283 88.4437 24.7816 88.4666 24.812Z" fill="white" stroke="#1D1D1D" stroke-width="0.304348" stroke-linejoin="round"/>
<path d="M88.3981 24.7285L92.9633 22.0731C92.9633 22.0731 92.9024 22.0046 92.872 21.9666L88.3068 24.622C88.3068 24.622 88.3676 24.6905 88.3981 24.7209V24.7285Z" fill="white" stroke="#1D1D1D" stroke-width="0.304348" stroke-linejoin="round"/>
<path d="M88.3067 24.6219L92.8719 21.9665C92.7806 21.8752 92.6817 21.7991 92.5828 21.7458L88.0176 24.4013C88.1165 24.4622 88.2154 24.5382 88.3067 24.6295V24.6219Z" fill="white" stroke="#1D1D1D" stroke-width="0.304348" stroke-linejoin="round"/>
</g>
<path d="M88.6187 26.4405C90.1404 25.5578 91.6622 24.6676 93.1839 23.785C93.3361 23.6937 93.435 23.5035 93.435 23.2296C93.435 22.6818 93.0546 22.0198 92.5752 21.7383L88.01 24.3937C88.4894 24.6676 88.8774 25.3372 88.8698 25.8774C88.8698 26.1513 88.7709 26.3415 88.6187 26.4328V26.4405Z" stroke="#1D1D1D" stroke-width="0.304348" stroke-linejoin="round"/>
<path d="M69.3988 13.6498C68.9195 13.3759 68.5391 13.5966 68.5391 14.1444C68.5391 14.6998 68.9195 15.3618 69.3988 15.6357L88.0097 26.3792C88.4891 26.6607 88.8771 26.4401 88.8771 25.8846C88.8771 25.3368 88.4967 24.6748 88.0173 24.4009L69.4065 13.6574L69.3988 13.6498Z" fill="white" stroke="#1D1D1D" stroke-width="0.304348" stroke-linejoin="round"/>
<path d="M96.3414 26.2424C98.2969 27.3685 99.8795 30.1152 99.8719 32.3598V35.5174L56.6925 10.5913V7.43368C56.7077 5.18912 58.2979 4.27608 60.2534 5.40216L96.3414 26.2424Z" fill="white" stroke="#1D1D1D" stroke-width="0.304348" stroke-linejoin="round"/>
<path d="M59.6675 5.12825C59.5838 5.09781 59.5001 5.06738 59.4164 5.03694C59.3631 5.02172 59.3099 5.00651 59.2642 4.99129C59.2109 4.97607 59.1653 4.96846 59.112 4.96085C59.0512 4.95325 58.9903 4.93803 58.9294 4.93042C58.8914 4.93042 58.861 4.92281 58.8229 4.92281C58.7468 4.92281 58.6707 4.92281 58.5946 4.92281C58.5794 4.92281 58.5642 4.92281 58.5414 4.92281C58.4501 4.92281 58.3664 4.93803 58.2827 4.95325C58.2599 4.95325 58.237 4.95325 58.2142 4.96846C58.1457 4.98368 58.0849 4.9989 58.024 5.02172C58.0012 5.02172 57.9859 5.03694 57.9631 5.04455C57.887 5.07498 57.8033 5.11303 57.7349 5.15868C59.2566 4.27607 60.7783 3.38585 62.3001 2.50324C62.3001 2.50324 62.3153 2.49564 62.3229 2.49564C62.3838 2.4652 62.437 2.43477 62.5055 2.41194C62.5131 2.41194 62.5283 2.40433 62.5359 2.39672C62.5588 2.38911 62.574 2.38151 62.5968 2.3739C62.6273 2.36629 62.6577 2.35107 62.6881 2.34346C62.7186 2.33585 62.7566 2.32824 62.787 2.32064C62.8099 2.32064 62.8327 2.31303 62.8555 2.30542C62.8631 2.30542 62.8783 2.30542 62.8859 2.30542C62.9544 2.2902 63.0305 2.28259 63.099 2.28259H63.1066C63.1066 2.28259 63.1446 2.28259 63.1599 2.28259C63.2131 2.28259 63.274 2.28259 63.3273 2.28259C63.3425 2.28259 63.3653 2.28259 63.3881 2.28259C63.4186 2.28259 63.4566 2.28259 63.4946 2.2902C63.5251 2.2902 63.5631 2.2902 63.5936 2.2902C63.624 2.2902 63.6544 2.30542 63.6849 2.31303C63.7305 2.32064 63.7762 2.32824 63.8294 2.34346C63.8599 2.34346 63.8827 2.34346 63.9131 2.35868C63.9359 2.35868 63.9664 2.3739 63.9892 2.38911C64.0729 2.41194 64.1566 2.44238 64.2403 2.47281C64.2707 2.48042 64.2936 2.48803 64.324 2.50324C64.3392 2.50324 64.3544 2.51846 64.3773 2.52607C64.5218 2.59455 64.6664 2.66303 64.8186 2.74672L100.907 23.5793C101.097 23.6859 101.279 23.8152 101.462 23.9522C101.492 23.975 101.523 23.9978 101.553 24.0206C101.728 24.1576 101.888 24.3022 102.056 24.4619C102.071 24.4772 102.086 24.4848 102.094 24.5C102.116 24.5228 102.139 24.5532 102.17 24.5761C102.253 24.6598 102.329 24.7435 102.413 24.8272C102.436 24.8576 102.466 24.8804 102.489 24.9032C102.512 24.9261 102.527 24.9489 102.55 24.9717C102.596 25.025 102.641 25.0859 102.695 25.1467C102.725 25.1848 102.756 25.2152 102.786 25.2532C102.809 25.2837 102.832 25.3141 102.854 25.3446C102.885 25.3902 102.915 25.4282 102.953 25.4739C102.976 25.5043 102.999 25.5348 103.022 25.5652C103.06 25.6185 103.098 25.6793 103.136 25.7326C103.159 25.763 103.182 25.8011 103.204 25.8315C103.212 25.8467 103.227 25.8619 103.235 25.8696C103.296 25.9685 103.357 26.0674 103.417 26.1663C103.417 26.1739 103.425 26.1815 103.433 26.1891C103.44 26.2043 103.448 26.2196 103.463 26.2424C103.509 26.3185 103.547 26.3946 103.592 26.4706C103.608 26.5011 103.623 26.5391 103.646 26.5696C103.661 26.6 103.676 26.638 103.699 26.6761C103.714 26.7065 103.729 26.7369 103.745 26.7674C103.783 26.8511 103.821 26.9272 103.859 27.0109C103.859 27.0261 103.874 27.0413 103.882 27.0641C103.882 27.0641 103.882 27.0641 103.882 27.0717C103.927 27.1782 103.973 27.2848 104.011 27.3913C104.019 27.4141 104.026 27.4293 104.034 27.4522C104.049 27.4902 104.057 27.5282 104.072 27.5663C104.087 27.6196 104.11 27.6728 104.125 27.7261C104.14 27.7641 104.148 27.8098 104.163 27.8478C104.178 27.9011 104.194 27.9467 104.209 27.9924C104.216 28.0228 104.232 28.0532 104.239 28.0837C104.254 28.1369 104.27 28.1902 104.277 28.2435C104.292 28.3043 104.308 28.3652 104.323 28.4261C104.323 28.4489 104.331 28.4717 104.338 28.4869C104.346 28.5326 104.353 28.5706 104.361 28.6163C104.376 28.7076 104.391 28.8065 104.407 28.8978C104.407 28.9282 104.414 28.9511 104.422 28.9739C104.422 28.9967 104.422 29.0195 104.422 29.0424C104.445 29.2554 104.46 29.4609 104.46 29.6587V32.8163L99.887 35.4717V32.3141C99.8946 32.1087 99.887 31.9032 99.8566 31.6978C99.8566 31.6446 99.849 31.5989 99.8338 31.5456C99.8186 31.4543 99.8033 31.3554 99.7881 31.2641C99.7729 31.2032 99.7653 31.1348 99.7501 31.0739C99.7349 31.013 99.7197 30.9522 99.7044 30.8913C99.6816 30.8076 99.6588 30.7239 99.6359 30.6402C99.6207 30.5869 99.6055 30.5413 99.5903 30.488C99.5599 30.3967 99.5294 30.3054 99.499 30.2141C99.4838 30.1761 99.4686 30.138 99.461 30.1C99.4077 29.9706 99.362 29.8413 99.3012 29.7119C99.2936 29.6891 99.2859 29.6739 99.2783 29.6511C99.2327 29.5445 99.1794 29.438 99.1262 29.3239C99.1033 29.2859 99.0881 29.2478 99.0653 29.2098C99.012 29.1109 98.9588 29.0043 98.9055 28.9054C98.8903 28.875 98.8751 28.8522 98.8599 28.8293C98.7914 28.7076 98.7153 28.5859 98.6392 28.4717C98.6164 28.4337 98.5936 28.4032 98.5707 28.3652C98.5099 28.2815 98.4566 28.1978 98.3957 28.1141C98.3653 28.0685 98.3273 28.0228 98.2968 27.9848C98.2436 27.9163 98.1903 27.8478 98.137 27.7793C98.0914 27.7261 98.0457 27.6652 98.0001 27.6119C97.9544 27.5587 97.9088 27.5054 97.8631 27.4598C97.787 27.3685 97.711 27.2848 97.6273 27.2087C97.5892 27.1706 97.5512 27.1326 97.5131 27.0946C97.3533 26.9348 97.186 26.7902 97.0186 26.6609C96.9881 26.638 96.9577 26.6152 96.9273 26.5924C96.7446 26.4554 96.562 26.3261 96.3794 26.2196L60.2457 5.40216C60.0936 5.31846 59.949 5.24238 59.8044 5.18151C59.7588 5.15868 59.7131 5.14346 59.6675 5.12825Z" fill="url(#paint0_linear_38_9515)" stroke="#1D1D1D" stroke-width="0.304348" stroke-miterlimit="10"/>
<path d="M102.223 55.8402C102.687 55.7337 103.067 55.2163 103.067 54.6989V48.262C103.067 47.7446 102.687 47.4098 102.223 47.5239C101.759 47.6305 101.378 48.1478 101.378 48.6652V55.1022C101.378 55.6196 101.759 55.9544 102.223 55.8402Z" fill="#25D17F" stroke="#1D1D1D" stroke-width="0.304348" stroke-miterlimit="10"/>
<path d="M80.4925 20.7109C80.4925 21.0381 80.2567 21.1751 79.9751 21.0077L72.7925 16.8609C72.5034 16.6935 72.2751 16.2903 72.2751 15.9631C72.2751 15.6359 72.511 15.499 72.7925 15.6664L79.9751 19.8131C80.2643 19.9805 80.4925 20.3837 80.5001 20.7109H80.4925ZM82.7295 21.4033C82.4404 21.2359 82.2121 21.3729 82.2121 21.7001C82.2121 22.0348 82.4404 22.4305 82.7295 22.5979C83.0186 22.7653 83.2469 22.6283 83.2469 22.3011C83.2469 21.9664 83.011 21.5707 82.7295 21.4033ZM84.6241 22.499C84.3349 22.3316 84.1067 22.4685 84.1067 22.7957C84.1067 23.1229 84.3349 23.5261 84.6241 23.6935C84.9132 23.8609 85.1414 23.724 85.1414 23.3968C85.1414 23.0696 84.9132 22.6664 84.6241 22.499Z" fill="#25D17F" stroke="#1D1D1D" stroke-width="0.304348" stroke-miterlimit="10"/>
<path d="M89.7522 36.9327L60.2456 19.8968C59.5304 19.4859 58.8837 19.4479 58.4196 19.7218L57.575 20.2088C57.1033 20.4751 56.8065 21.0533 56.8065 21.8827V70.3272C56.8065 71.9707 57.963 73.9642 59.3859 74.7859L88.8924 91.8218C90.3152 92.6435 91.4717 91.9816 91.4717 90.3381C91.4717 91.1598 91.1826 91.7381 90.7185 92.0044L91.5554 91.5175C92.0348 91.2512 92.3391 90.6729 92.3391 89.8359V41.3914C92.3391 39.7479 91.1826 37.7544 89.7598 36.9327H89.7522Z" fill="#EDEDED"/>
<path d="M84.1446 38.0816L54.6381 21.0457C53.9229 20.6349 53.2762 20.5968 52.812 20.8707L51.9675 21.3577C51.4957 21.624 51.199 22.2022 51.199 23.0316V71.4762C51.199 73.1196 52.3555 75.1131 53.7783 75.9349L83.2849 92.9707C84.7077 93.7925 85.8642 93.1305 85.8642 91.487C85.8642 92.3088 85.5751 92.887 85.1109 93.1533L85.9479 92.6664C86.4272 92.4001 86.7316 91.8218 86.7316 90.9849V42.5403C86.7316 40.8968 85.5751 38.9033 84.1522 38.0816H84.1446Z" fill="#E5E5E5" stroke="#1D1D1D" stroke-width="0.304348" stroke-linejoin="round"/>
<path d="M85.8642 91.4793C85.8642 93.1228 84.7077 93.7848 83.2848 92.963L53.7783 75.9272C52.3555 75.1054 51.199 73.1043 51.199 71.4685V23.0239C51.199 21.3804 52.3555 20.7185 53.7783 21.5402L83.2848 38.5761C84.7077 39.3978 85.8642 41.3913 85.8642 43.0348V91.4717V91.4793Z" fill="white"/>
<path d="M80.9868 81.4652C80.9868 83.1087 79.8303 83.7706 78.4074 82.9489L58.4435 72.0965C57.0207 71.2747 55.8641 69.2736 55.8641 67.6378V33.4398C55.8641 31.7963 57.0207 31.1344 58.4435 31.9561L78.4074 42.8084C79.8303 43.6302 80.9868 45.6237 80.9868 47.2671V81.4576V81.4652Z" fill="#25D17F"/>
<path d="M85.8642 91.4793C85.8642 93.1228 84.7077 93.7848 83.2848 92.963L53.7783 75.9272C52.3555 75.1054 51.199 73.1043 51.199 71.4685V23.0239C51.199 21.3804 52.3555 20.7185 53.7783 21.5402L83.2848 38.5761C84.7077 39.3978 85.8642 41.3913 85.8642 43.0348V91.4717V91.4793Z" stroke="#1D1D1D" stroke-width="0.304348" stroke-linecap="round" stroke-linejoin="round"/>
<path d="M66.7054 56.5052C65.0267 54.7426 63.8397 52.1647 63.8397 49.9344C63.8397 47.0087 65.902 45.8217 68.432 47.2845C70.974 48.7474 73.0244 52.3085 73.0244 55.2462C73.0244 57.4644 71.8373 58.6875 70.1586 58.5076C74.0795 61.6731 77.0532 67.2846 77.233 72.1288L59.619 61.9609C59.7989 57.3325 62.7845 55.1503 66.6934 56.5172L66.7054 56.5052Z" fill="#1D1D1D"/>
<path d="M127.293 66.9261C127.331 66.9185 127.369 66.9109 127.407 66.9033C127.453 66.8957 127.491 66.8804 127.537 66.8652C127.567 66.8576 127.598 66.85 127.62 66.8424C127.651 66.8348 127.674 66.8196 127.704 66.812C127.742 66.7967 127.78 66.7815 127.818 66.7663C127.841 66.7587 127.864 66.7511 127.887 66.7359C127.932 66.7207 127.97 66.6978 128.016 66.675C128.031 66.6674 128.054 66.6598 128.069 66.6522C128.13 66.6217 128.184 66.5913 128.244 66.5609C128.244 66.5609 128.26 66.5533 128.267 66.5457C128.32 66.5152 128.366 66.4848 128.419 66.4543C128.435 66.4467 128.45 66.4315 128.465 66.4239C128.511 66.3935 128.556 66.363 128.602 66.3326C128.61 66.3326 128.617 66.3174 128.632 66.3174C128.686 66.2793 128.739 66.2413 128.792 66.1957C128.807 66.1804 128.823 66.1728 128.838 66.1576C128.876 66.1272 128.914 66.0967 128.944 66.0663C128.967 66.0511 128.982 66.0283 128.998 66.013C129.028 65.9826 129.059 65.9598 129.081 65.9293C129.104 65.9065 129.127 65.8837 129.15 65.8609C129.173 65.838 129.195 65.8152 129.211 65.7924C129.249 65.7543 129.279 65.7163 129.317 65.6707C129.34 65.6478 129.363 65.6174 129.378 65.5946C129.393 65.5717 129.409 65.5565 129.424 65.5337C129.447 65.5033 129.469 65.4652 129.492 65.4348C129.507 65.412 129.523 65.3967 129.53 65.3739C129.553 65.3359 129.576 65.2978 129.599 65.2598C129.606 65.2446 129.622 65.2217 129.629 65.2065C129.66 65.1533 129.69 65.1 129.713 65.0391C129.736 64.9859 129.759 64.9326 129.774 64.8793C129.774 64.8641 129.781 64.8489 129.789 64.8413C129.797 64.8109 129.804 64.788 129.812 64.7576C129.819 64.7196 129.835 64.6739 129.842 64.6359C129.842 64.613 129.85 64.5826 129.857 64.5598C129.857 64.537 129.857 64.5141 129.857 64.4913C129.857 64.4609 129.857 64.4304 129.857 64.4C129.857 64.3848 129.857 64.3696 129.857 64.3467C129.857 64.3087 129.857 64.2783 129.85 64.2402C129.85 64.2326 129.85 64.225 129.85 64.2174C129.85 64.1793 129.835 64.1337 129.819 64.0957C129.819 64.088 129.819 64.0804 129.812 64.0652C129.804 64.0348 129.789 64.0043 129.774 63.9815C129.774 63.9739 129.766 63.9663 129.759 63.9511C129.743 63.913 129.72 63.8826 129.698 63.8522L135.587 72.0011C135.587 72.0011 135.587 72.0011 135.587 72.0087C135.602 72.0315 135.617 72.062 135.632 72.0848C135.632 72.0848 135.632 72.0924 135.632 72.1C135.632 72.1076 135.64 72.1152 135.648 72.1304C135.648 72.1456 135.663 72.1609 135.67 72.1685C135.67 72.1837 135.678 72.1989 135.686 72.2141C135.686 72.2217 135.686 72.2293 135.693 72.2446C135.693 72.2446 135.693 72.2522 135.693 72.2598C135.701 72.2902 135.709 72.3207 135.716 72.3587C135.716 72.3663 135.716 72.3739 135.716 72.3815C135.716 72.4043 135.716 72.4348 135.724 72.4576C135.724 72.4652 135.724 72.4728 135.724 72.488C135.724 72.5033 135.724 72.5185 135.724 72.5413C135.724 72.5565 135.724 72.5717 135.724 72.587C135.724 72.6022 135.724 72.6174 135.724 72.625C135.724 72.6478 135.724 72.6707 135.724 72.6935C135.724 72.7087 135.724 72.7163 135.724 72.7315C135.724 72.7467 135.724 72.7543 135.716 72.7696C135.716 72.8076 135.701 72.8456 135.686 72.8913C135.686 72.9065 135.686 72.9217 135.678 72.937C135.678 72.9522 135.67 72.9674 135.663 72.9826C135.663 72.9978 135.655 73.013 135.648 73.0207C135.632 73.0739 135.61 73.1272 135.587 73.1804C135.564 73.2337 135.534 73.2946 135.503 73.3478C135.495 73.363 135.48 73.3859 135.473 73.4011C135.45 73.4391 135.427 73.4772 135.404 73.5152C135.389 73.538 135.374 73.5533 135.366 73.5761C135.343 73.6065 135.32 73.6446 135.298 73.675C135.282 73.6978 135.267 73.713 135.252 73.7359C135.244 73.7511 135.237 73.7587 135.222 73.7739C135.214 73.7891 135.199 73.7967 135.191 73.812C135.161 73.85 135.123 73.8957 135.085 73.9337C135.069 73.9489 135.062 73.9565 135.054 73.9717C135.047 73.9793 135.031 73.9946 135.024 74.0022C135.001 74.025 134.978 74.0478 134.955 74.0707C134.94 74.0859 134.925 74.1011 134.91 74.1163C134.894 74.1315 134.879 74.1391 134.872 74.1543C134.856 74.1696 134.834 74.1924 134.818 74.2076C134.803 74.2228 134.795 74.2304 134.78 74.2457C134.757 74.2685 134.735 74.2837 134.712 74.2989C134.697 74.3141 134.681 74.3217 134.666 74.337C134.666 74.337 134.651 74.3446 134.651 74.3522C134.605 74.3826 134.567 74.4207 134.522 74.4511C134.522 74.4511 134.522 74.4511 134.514 74.4511C134.506 74.4511 134.499 74.4663 134.484 74.4739C134.453 74.4967 134.423 74.5196 134.392 74.5424C134.377 74.55 134.362 74.5652 134.347 74.5728C134.331 74.5804 134.316 74.5956 134.301 74.6033C134.286 74.6109 134.27 74.6185 134.263 74.6261C134.225 74.6489 134.187 74.6717 134.156 74.6946C134.156 74.6946 134.141 74.7022 134.134 74.7098C134.088 74.7326 134.042 74.763 133.997 74.7859C133.989 74.7859 133.981 74.7935 133.974 74.8011C133.959 74.8087 133.936 74.8163 133.92 74.8239C133.898 74.8315 133.875 74.8467 133.852 74.8543C133.837 74.862 133.814 74.8696 133.799 74.8772C133.776 74.8848 133.753 74.8924 133.73 74.9076C133.715 74.9076 133.707 74.9228 133.692 74.9228C133.669 74.9304 133.647 74.938 133.616 74.9457C133.586 74.9533 133.563 74.9685 133.532 74.9761C133.525 74.9761 133.517 74.9761 133.502 74.9837C133.479 74.9837 133.464 74.9913 133.441 74.9989C133.395 75.0141 133.357 75.0217 133.312 75.037C133.297 75.037 133.289 75.037 133.274 75.0446C133.243 75.0446 133.22 75.0522 133.19 75.0598C133.167 75.0598 133.152 75.0674 133.129 75.075C133.068 75.0826 133.007 75.0978 132.947 75.0978C132.429 75.1511 132.049 75.0065 131.851 74.7326L125.962 66.5837C126.16 66.8576 126.54 67.0022 127.057 66.9489C127.118 66.9489 127.179 66.9337 127.24 66.9261C127.255 66.9261 127.278 66.9185 127.301 66.9109L127.293 66.9261Z" fill="white" stroke="#1D1D1D" stroke-width="0.304348" stroke-miterlimit="10"/>
<path d="M129.705 65.0464C130.131 64.0953 129.644 63.4029 128.602 63.5018C127.567 63.6084 126.38 64.4605 125.954 65.4192C125.528 66.3703 126.023 67.0627 127.058 66.9638C128.092 66.8573 129.279 66.0051 129.705 65.0464Z" fill="#25D17F" stroke="#1D1D1D" stroke-width="0.304348" stroke-miterlimit="10"/>
<path d="M123.794 61.1742C123.794 61.1742 123.839 61.1666 123.862 61.159C123.885 61.159 123.915 61.1438 123.938 61.1362C123.953 61.1362 123.976 61.1286 123.991 61.121C124.007 61.121 124.022 61.1134 124.037 61.1058C124.06 61.0981 124.083 61.0905 124.106 61.0829C124.121 61.0829 124.128 61.0753 124.144 61.0677C124.166 61.0601 124.197 61.0449 124.22 61.0373C124.227 61.0373 124.243 61.0297 124.25 61.0221C124.281 61.0068 124.319 60.984 124.349 60.9688C124.349 60.9688 124.357 60.9688 124.364 60.9688C124.395 60.9536 124.425 60.9308 124.456 60.9155C124.463 60.9155 124.471 60.9003 124.486 60.9003C124.516 60.8851 124.539 60.8623 124.57 60.8471C124.57 60.8471 124.577 60.8471 124.585 60.8395C124.615 60.8166 124.646 60.7938 124.676 60.771C124.684 60.771 124.691 60.7558 124.699 60.7481C124.722 60.7329 124.745 60.7101 124.76 60.6949C124.768 60.6873 124.783 60.6721 124.79 60.6644C124.806 60.6492 124.828 60.634 124.844 60.6188C124.859 60.6036 124.874 60.5884 124.889 60.5731C124.904 60.5579 124.912 60.5427 124.927 60.5351C124.95 60.5123 124.973 60.4895 124.988 60.4666C125.003 60.4514 125.011 60.4362 125.026 60.421C125.034 60.4058 125.041 60.3981 125.057 60.3829C125.072 60.3601 125.087 60.3449 125.102 60.3221C125.11 60.3068 125.117 60.2992 125.125 60.284C125.14 60.2612 125.156 60.2384 125.163 60.2155C125.163 60.2079 125.178 60.1927 125.178 60.1851C125.194 60.1547 125.216 60.1166 125.224 60.0862C125.239 60.0558 125.247 60.0253 125.262 59.9949C125.262 59.9873 125.262 59.9797 125.27 59.9721C125.27 59.9568 125.277 59.9416 125.285 59.9188C125.285 59.896 125.3 59.8731 125.3 59.8503C125.3 59.8351 125.3 59.8199 125.308 59.8047C125.308 59.7895 125.308 59.7742 125.308 59.7666C125.308 59.7514 125.308 59.7286 125.308 59.7134C125.308 59.7058 125.308 59.6905 125.308 59.6829C125.308 59.6601 125.308 59.6373 125.308 59.6221C125.308 59.6221 125.308 59.6145 125.308 59.6068C125.308 59.584 125.3 59.5612 125.292 59.5384C125.292 59.5384 125.292 59.5308 125.292 59.5231C125.292 59.5079 125.277 59.4851 125.27 59.4699C125.27 59.4699 125.27 59.4623 125.27 59.4547C125.262 59.4318 125.247 59.4166 125.232 59.3938L128.732 64.2329C128.739 64.2481 128.754 64.2634 128.762 64.2786C128.762 64.2786 128.762 64.2786 128.762 64.2862C128.762 64.2862 128.762 64.2938 128.762 64.3014C128.762 64.309 128.77 64.3166 128.777 64.3242C128.777 64.3318 128.777 64.3395 128.785 64.3547C128.785 64.3547 128.785 64.3623 128.785 64.3699C128.785 64.3699 128.785 64.3699 128.785 64.3775C128.785 64.3927 128.792 64.4155 128.8 64.4384C128.8 64.4384 128.8 64.446 128.8 64.4536C128.8 64.4688 128.8 64.484 128.8 64.4992C128.8 64.4992 128.8 64.5068 128.8 64.5145C128.8 64.5221 128.8 64.5373 128.8 64.5449C128.8 64.5525 128.8 64.5601 128.8 64.5753C128.8 64.5829 128.8 64.5905 128.8 64.5982C128.8 64.6134 128.8 64.6286 128.8 64.6362C128.8 64.6362 128.8 64.6514 128.8 64.659C128.8 64.659 128.8 64.6742 128.8 64.6818C128.8 64.7047 128.793 64.7275 128.785 64.7503C128.785 64.7579 128.785 64.7655 128.785 64.7731C128.785 64.7808 128.785 64.7884 128.777 64.796C128.777 64.8036 128.777 64.8112 128.77 64.8188C128.762 64.8492 128.747 64.8797 128.732 64.9101C128.716 64.9405 128.701 64.9786 128.686 65.009C128.686 65.0166 128.671 65.0318 128.671 65.0395C128.656 65.0623 128.648 65.0851 128.633 65.1079C128.625 65.1231 128.617 65.1308 128.61 65.146C128.595 65.1688 128.579 65.184 128.564 65.2068C128.557 65.2221 128.549 65.2297 128.534 65.2449C128.534 65.2449 128.526 65.2601 128.519 65.2677C128.519 65.2753 128.503 65.2829 128.496 65.2905C128.473 65.3134 128.458 65.3362 128.435 65.359C128.435 65.359 128.42 65.3742 128.412 65.3818L128.397 65.3971C128.382 65.4123 128.366 65.4275 128.351 65.4427C128.344 65.4503 128.336 65.4579 128.321 65.4731C128.313 65.4731 128.306 65.4884 128.298 65.496C128.29 65.5036 128.275 65.5188 128.268 65.5264C128.26 65.5264 128.252 65.5416 128.245 65.5492C128.229 65.5645 128.214 65.5721 128.207 65.5797C128.199 65.5797 128.191 65.5949 128.184 65.6025C128.184 65.6025 128.184 65.6025 128.176 65.6101C128.153 65.6329 128.123 65.6481 128.1 65.671C128.1 65.671 128.092 65.671 128.085 65.6786C128.07 65.6938 128.047 65.7014 128.032 65.7166C128.024 65.7166 128.016 65.7242 128.001 65.7318C127.994 65.7318 127.986 65.7471 127.971 65.7471C127.963 65.7471 127.956 65.7547 127.948 65.7623C127.925 65.7775 127.902 65.7851 127.879 65.8003C127.879 65.8003 127.872 65.8003 127.864 65.8003C127.834 65.8155 127.811 65.8308 127.781 65.846C127.781 65.846 127.773 65.846 127.765 65.846C127.758 65.846 127.743 65.8536 127.735 65.8612C127.72 65.8612 127.704 65.8764 127.697 65.884C127.689 65.884 127.674 65.8916 127.666 65.8992C127.651 65.8992 127.644 65.9068 127.628 65.9145C127.621 65.9145 127.613 65.9145 127.606 65.9221C127.59 65.9221 127.575 65.9297 127.56 65.9373C127.545 65.9373 127.529 65.9525 127.514 65.9525C127.514 65.9525 127.507 65.9525 127.499 65.9525C127.484 65.9525 127.476 65.9525 127.461 65.9601C127.438 65.9601 127.408 65.9753 127.385 65.9829C127.385 65.9829 127.37 65.9829 127.362 65.9829C127.347 65.9829 127.332 65.9829 127.316 65.9905C127.309 65.9905 127.294 65.9905 127.286 65.9905C127.248 65.9905 127.218 66.0058 127.179 66.0058C126.875 66.0362 126.647 65.9525 126.533 65.7851L123.033 60.946C123.154 61.1058 123.375 61.1971 123.679 61.1666C123.718 61.1666 123.748 61.159 123.786 61.1514C123.794 61.1514 123.809 61.1514 123.816 61.1514L123.794 61.1742Z" fill="white" stroke="#1D1D1D" stroke-width="0.304348" stroke-miterlimit="10"/>
<path d="M124.981 59.7742C125.232 59.2112 124.943 58.8003 124.326 58.8612C123.71 58.9221 123.01 59.4319 122.751 59.9949C122.5 60.5579 122.789 60.9688 123.406 60.9079C124.022 60.8471 124.722 60.3373 124.981 59.7742Z" fill="white" stroke="#1D1D1D" stroke-width="0.304348" stroke-miterlimit="10"/>
<path d="M113.476 60.9079C117.357 63.9057 122.774 62.8101 125.574 58.4655C128.374 54.121 127.491 48.171 123.603 45.1731C119.723 42.1753 114.306 43.271 111.506 47.6155C108.706 51.9601 109.588 57.9101 113.476 60.9079ZM112.67 48.5133C115.006 44.884 119.525 43.9786 122.766 46.4742C126.008 48.9775 126.746 53.9383 124.41 57.5677C122.074 61.197 117.554 62.1025 114.313 59.6068C111.072 57.1036 110.334 52.1427 112.67 48.5133Z" fill="url(#paint1_linear_38_9515)" stroke="#1D1D1D" stroke-width="0.304348" stroke-miterlimit="10"/>
<path d="M114.823 60.8543C118.703 63.8521 124.121 62.7565 126.921 58.4119C129.721 54.0674 128.838 48.1174 124.95 45.1195C121.07 42.1217 115.652 43.2174 112.852 47.5619C110.052 51.9065 110.935 57.8565 114.823 60.8543ZM117.25 60.4739C116.702 60.2456 116.162 59.9413 115.66 59.5532C112.419 57.05 111.681 52.0891 114.016 48.4598C115.858 45.5989 119.061 44.4272 121.929 45.2869C122.69 45.5152 123.428 45.888 124.113 46.4206C127.354 48.9239 128.093 53.8848 125.757 57.5141C123.786 60.5728 120.256 61.7065 117.25 60.4739Z" fill="white" stroke="#1D1D1D" stroke-width="0.304348" stroke-miterlimit="10"/>
<path d="M43.4394 90.8346L48.9621 95.6262C48.9621 95.9458 48.7567 96.2653 48.3382 96.5088L30.7393 106.666C29.9024 107.146 28.5404 107.146 27.711 106.666L9.68605 96.1892C9.2904 95.961 9.08496 95.6566 9.06213 95.3523V81.124L43.4394 90.8346Z" fill="url(#paint2_linear_38_9515)" stroke="#1D1D1D" stroke-width="0.304348" stroke-miterlimit="10"/>
<path d="M29.0896 105.925C29.9189 106.412 31.2809 106.412 32.1178 105.925L48.7293 96.4018C49.5663 95.9225 50.2453 94.7391 49.4629 93.5165L30.3054 69.886C29.4761 69.399 28.1141 69.399 27.2772 69.886L9.67825 80.0436C8.8413 80.5229 8.8413 81.3142 9.67825 81.8012L29.0896 105.925Z" fill="white" stroke="#1D1D1D" stroke-width="0.304348" stroke-miterlimit="10"/>
<path d="M30.7899 101.902C31.3758 102.244 32.3421 102.244 32.928 101.902L44.9526 94.9965C45.5385 94.6541 45.6168 93.6492 45.0927 93.1196L29.7364 73.9096C29.1505 73.5672 28.1842 73.5672 27.5983 73.9096L15.1733 81.0846C14.5875 81.427 14.5799 81.9825 15.1733 82.3248L30.7899 101.902Z" stroke="#E5E5E5" stroke-width="0.76087" stroke-miterlimit="10"/>
<path d="M55.6348 119.259C54.2196 120.073 54.212 121.412 55.6196 122.226L69.4065 130.238C70.8065 131.052 73.112 131.052 74.5272 130.238L88.4054 122.226C89.8207 121.412 89.8283 120.073 88.4207 119.259L74.6337 111.247C73.2337 110.432 70.9283 110.432 69.513 111.247L55.6348 119.259Z" fill="white" stroke="#1D1D1D" stroke-width="0.304348" stroke-miterlimit="10"/>
<path d="M69.5131 111.247C70.9283 110.432 73.2337 110.432 74.6337 111.247L88.4207 119.259C89.8207 120.073 89.8131 121.412 88.4055 122.226L86.3892 123.39L67.4359 112.449L69.5131 111.254V111.247Z" fill="white" stroke="#1D1D1D" stroke-width="0.304348" stroke-miterlimit="10"/>
<path d="M67.2228 116.877L77.9434 123.07L79.5489 122.142L68.8282 115.956L67.2228 116.877Z" fill="#E5E5E5"/>
<path d="M63.8599 119.212L74.2457 125.208L75.8512 124.28L65.4653 118.284L63.8599 119.212Z" fill="#E5E5E5"/>
<path d="M61.0598 121.868L70.5403 127.346L72.1457 126.418L62.6652 120.947L61.0598 121.868Z" fill="#E5E5E5"/>
<path d="M12.4484 92.2266L13.1484 91.8233C13.3843 91.6864 13.7114 91.7092 14.0767 91.9222C14.8071 92.3407 15.4006 93.3679 15.4006 94.2125C15.4006 94.6309 15.256 94.9277 15.0125 95.0646L14.3658 95.4375L14.2517 95.2396C14.1299 95.2092 14.0082 95.1712 13.8712 95.0951C13.1408 94.6766 12.5473 93.6494 12.5473 92.8048C12.5473 92.6831 12.5625 92.569 12.5854 92.4701L12.4408 92.2342L12.4484 92.2266Z" fill="#1D1D1D" stroke="#1D1D1D" stroke-width="0.304348" stroke-linejoin="round"/>
<path d="M13.4072 92.2951C14.1376 92.7136 14.7311 93.7407 14.7311 94.5853C14.7311 95.4299 14.1376 95.7723 13.4072 95.3462C12.6767 94.9277 12.0833 93.9005 12.0833 93.056C12.0833 92.2114 12.6767 91.8766 13.4072 92.2951Z" fill="white" stroke="#1D1D1D" stroke-width="0.304348" stroke-linejoin="round"/>
<path d="M13.4072 92.2951C14.1376 92.7136 14.7311 93.7407 14.7311 94.5853C14.7311 95.4299 14.1376 95.7723 13.4072 95.3462C12.6767 94.9277 12.0833 93.9005 12.0833 93.056C12.0833 92.2114 12.6767 91.8766 13.4072 92.2951Z" fill="#25D17F" stroke="#1D1D1D" stroke-width="0.304348" stroke-miterlimit="10"/>
<path d="M33.7117 84.1759L32.4399 91.4145C32.3453 91.9527 31.7638 92.2987 31.143 92.186L26.8051 91.4239C26.1797 91.314 25.7509 90.7905 25.8489 90.2564C25.9435 89.7182 26.525 89.3722 27.1458 89.4849L30.3611 90.0498L31.462 83.7842C31.5565 83.2459 32.1381 82.9 32.7589 83.0126C33.3843 83.1225 33.8131 83.646 33.7151 84.18L33.7117 84.1759Z" fill="#25D17F"/>
<defs>
<linearGradient id="paint0_linear_38_9515" x1="57.7349" y1="18.8924" x2="104.437" y2="18.8924" gradientUnits="userSpaceOnUse">
<stop offset="0.4" stop-color="white"/>
<stop offset="1" stop-color="#C6C6C6"/>
</linearGradient>
<linearGradient id="paint1_linear_38_9515" x1="109.877" y1="53.0405" x2="127.21" y2="53.0405" gradientUnits="userSpaceOnUse">
<stop offset="0.4" stop-color="white"/>
<stop offset="1" stop-color="#C6C6C6"/>
</linearGradient>
<linearGradient id="paint2_linear_38_9515" x1="9.05453" y1="94.074" x2="48.9621" y2="94.074" gradientUnits="userSpaceOnUse">
<stop offset="0.4" stop-color="white"/>
<stop offset="1" stop-color="#C6C6C6"/>
</linearGradient>
</defs>
</svg>
