<svg width="50" height="39" viewBox="0 0 50 39" fill="none" xmlns="http://www.w3.org/2000/svg">
<rect x="0.5" y="0.5" width="49" height="38" rx="6.5" stroke="#1D1D1D" stroke-opacity="0.08"/>
<path d="M25 10C27.0226 10 28.6229 9.99808 29.8721 10.166C31.1445 10.3372 32.1751 10.6985 32.9883 11.5117C33.8015 12.3249 34.1628 13.3555 34.334 14.6279C34.5019 15.8771 34.5 17.4774 34.5 19.5C34.5 21.5226 34.5019 23.1229 34.334 24.3721C34.1628 25.6445 33.8015 26.6751 32.9883 27.4883C32.1751 28.3015 31.1445 28.6628 29.8721 28.834C28.6229 29.0019 27.0226 29 25 29C22.9774 29 21.3771 29.0019 20.1279 28.834C18.8555 28.6628 17.8249 28.3015 17.0117 27.4883C16.1985 26.6751 15.8372 25.6445 15.666 24.3721C15.4981 23.1229 15.5 21.5226 15.5 19.5C15.5 17.4774 15.4981 15.8771 15.666 14.6279C15.8372 13.3555 16.1985 12.3249 17.0117 11.5117C17.8249 10.6985 18.8555 10.3372 20.1279 10.166C21.3771 9.99808 22.9774 10 25 10ZM25 11.6406C22.9314 11.6406 21.462 11.6422 20.3477 11.792C19.2568 11.9387 18.6287 12.2131 18.1709 12.6709C17.7131 13.1287 17.4387 13.7568 17.292 14.8477C17.1422 15.962 17.1406 17.4314 17.1406 19.5C17.1406 21.5686 17.1422 23.038 17.292 24.1523C17.4387 25.2432 17.7131 25.8713 18.1709 26.3291C18.6287 26.7869 19.2568 27.0613 20.3477 27.208C21.462 27.3578 22.9314 27.3594 25 27.3594C27.0686 27.3594 28.538 27.3578 29.6523 27.208C30.7432 27.0613 31.3713 26.7869 31.8291 26.3291C32.2869 25.8713 32.5613 25.2432 32.708 24.1523C32.8578 23.038 32.8594 21.5686 32.8594 19.5C32.8594 17.4314 32.8578 15.962 32.708 14.8477C32.5613 13.7568 32.2869 13.1287 31.8291 12.6709C31.3713 12.2131 30.7432 11.9387 29.6523 11.792C28.538 11.6422 27.0686 11.6406 25 11.6406ZM28.4297 22.6758C29.0993 22.6758 29.535 23.1036 29.5352 23.6318C29.5352 24.1602 29.0995 24.5888 28.4297 24.5889H21.543C20.8731 24.5888 20.4502 24.1602 20.4502 23.6318C20.4504 23.1036 20.8733 22.6758 21.543 22.6758H28.4297ZM28.4297 18.4072C29.0994 18.4072 29.5506 18.835 29.5508 19.3633C29.5508 19.8917 29.0996 20.3203 28.4297 20.3203H21.543C20.8732 20.3202 20.4502 19.8916 20.4502 19.3633C20.4504 18.8351 20.8733 18.4073 21.543 18.4072H28.4297ZM23.9189 14.3057C24.448 14.3059 24.8994 14.7625 24.8994 15.2578C24.8991 15.753 24.4802 16.2139 23.9189 16.209L23.8389 16.2139H21.3809C20.9474 16.2139 20.4505 15.786 20.4502 15.2578C20.4502 14.7294 20.9473 14.3008 21.3809 14.3008H23.8389L23.9189 14.3057Z" fill="#8C8C8C" fill-opacity="0.6"/>
</svg>
