<svg width="137" height="112" viewBox="0 0 137 112" fill="none" xmlns="http://www.w3.org/2000/svg">
<g id="Frame 1000005167">
<g id="Group 1000005152">
<g id="&#231;&#186;&#191;&#231;&#188;&#134;">
<g id="A">
<path id="A_2" d="M111.378 31.4654H114.562C115.386 31.4053 117.036 31.8162 117.036 33.94C117.036 36.0638 117.036 53.0784 117.036 61.3203C117.079 62.0512 116.587 63.5132 114.272 63.5132" stroke="black" stroke-width="2.10852" stroke-linecap="round"/>
<path id="1" d="M114.271 63.5131C116.586 63.5131 117.079 62.0511 117.036 61.3201C117.036 60.821 117.036 60.2897 117.036 59.7314" stroke="#66DD8C" stroke-width="1.26511" stroke-linecap="round"/>
<path id="2" d="M117.036 55.7181C117.036 54.392 117.036 54.5578 117.036 53.1035" stroke="#66DD8C" stroke-width="1.26511" stroke-linecap="round"/>
</g>
<g id="B">
<path id="&#229;&#157;&#145;&#230;&#180;&#158;-Line" d="M8.85025 67.215C8.85025 67.3723 8.77026 67.5379 8.59209 67.7045C8.41368 67.8715 8.14737 68.0287 7.80577 68.1639C7.12345 68.4339 6.17058 68.6042 5.11048 68.6042C4.05038 68.6042 3.09751 68.4339 2.41518 68.1639C2.07358 68.0287 1.80727 67.8715 1.62886 67.7045C1.45069 67.5379 1.3707 67.3723 1.3707 67.215C1.3707 67.0576 1.45069 66.8921 1.62886 66.7254C1.80727 66.5585 2.07358 66.4012 2.41518 66.2661C3.09751 65.9961 4.05038 65.8258 5.11048 65.8258C6.17058 65.8258 7.12345 65.9961 7.80577 66.2661C8.14737 66.4012 8.41368 66.5585 8.59209 66.7254C8.77026 66.8921 8.85025 67.0576 8.85025 67.215Z" stroke="#777E87" stroke-width="0.3"/>
<path id="&#229;&#157;&#145;&#230;&#180;&#158;" d="M5.1106 67.9051C6.07347 67.9051 6.85402 67.5963 6.85402 67.2153C6.85402 66.8343 6.07347 66.5254 5.1106 66.5254C4.14774 66.5254 3.36719 66.8343 3.36719 67.2153C3.36719 67.5963 4.14774 67.9051 5.1106 67.9051Z" fill="black"/>
<path id="1_2" d="M5.1375 66.6512C4.93534 64.9581 5.8076 61.8965 9.61018 59.98C12.6052 58.4705 14.4604 58.3819 19.2378 59.98L40.9537 68.1888" stroke="black" stroke-width="2.10852" stroke-linecap="round"/>
<path id="A_3" d="M12.8057 58.882C13.7776 58.7492 14.8043 58.8108 16.071 59.079" stroke="#66DD8C" stroke-width="1.26511" stroke-linecap="round"/>
<path id="B_2" d="M19.2383 59.9805L28.4074 63.4465" stroke="#66DD8C" stroke-width="1.26511" stroke-linecap="round"/>
</g>
<g id="C">
<path id="&#231;&#130;&#185;" d="M89.9165 102.916C91.7391 102.916 93.2167 102.332 93.2167 101.612C93.2167 100.892 91.7391 100.308 89.9165 100.308C88.0938 100.308 86.6162 100.892 86.6162 101.612C86.6162 102.332 88.0938 102.916 89.9165 102.916Z" fill="#1C1E20"/>
<path id="Line" d="M89.916 101.612L117.805 91.5643C119.224 90.941 118.952 90.0208 117.561 89.5521C117.205 89.4321 111.933 87.542 111.933 87.542" stroke="#1C1E20" stroke-width="1.05426" stroke-linecap="round"/>
</g>
</g>
<g id="&#229;&#143;&#176;&#233;&#157;&#162;">
<g id="&#229;&#186;&#149;&#229;&#177;&#130;">
<path id="&#233;&#152;&#180;&#229;&#189;&#177;" d="M129.403 82.5889L135.633 80.3215C136.788 79.9016 136.788 79.2134 135.633 78.7924L128.469 76.1855L129.403 82.5889Z" fill="black"/>
<path id="A_4" d="M31.5101 77.4408L31.5332 77.4408L31.5548 77.4329L64.476 65.4733C66.7374 64.6517 69.2137 64.6389 71.4836 65.4369L105.07 77.2447L105.092 77.2522L105.114 77.2521L131.137 77.1854V80.1431V80.152L131.138 80.1608C131.255 81.0198 130.827 81.9413 129.855 82.2943L71.4691 103.505C69.2076 104.326 66.7314 104.339 64.4615 103.541L6.10916 83.0269C5.19516 82.7055 4.75442 81.881 4.79002 81.071L4.79015 81.071V81.0652V77.5094L31.5101 77.4408Z" fill="#2D3033" stroke="black" stroke-width="0.263565"/>
<g id="X">
<mask id="mask0_1510_5204" style="mask-type:alpha" maskUnits="userSpaceOnUse" x="4" y="64" width="128" height="41">
<path id="X_2" d="M31.5101 77.4408L31.5332 77.4408L31.5548 77.4329L64.476 65.4733C66.7374 64.6517 69.2137 64.6389 71.4836 65.4369L105.07 77.2447L105.092 77.2522L105.114 77.2521L131.137 77.1854V80.1431V80.152L131.138 80.1608C131.255 81.0198 130.827 81.9413 129.855 82.2943L71.4691 103.505C69.2076 104.326 66.7314 104.339 64.4615 103.541L6.10916 83.0269C5.19516 82.7055 4.75442 81.881 4.79002 81.071L4.79015 81.071V81.0652V77.5094L31.5101 77.4408Z" fill="white" stroke="black" stroke-width="0.263565"/>
</mask>
<g mask="url(#mask0_1510_5204)">
<path id="&#233;&#152;&#180;&#229;&#189;&#177;_2" d="M67.9793 105.108C69.661 105.108 71.3405 104.887 72.6078 104.413L129.143 83.6466C130.417 83.1838 131.054 82.5711 131.054 81.9605V79.1504L71.3559 101.101C69.4957 101.779 67.9727 103.955 67.9727 105.934L67.9793 105.108Z" fill="black"/>
</g>
</g>
<path id="Line_2" d="M31.5102 77.4591L31.5364 77.459L31.561 77.45L64.4822 65.4904C66.7397 64.6703 69.2116 64.6574 71.4776 65.4541L105.064 77.2619L105.088 77.2704L105.114 77.2703L131.119 77.2037V80.1431V80.1532L131.12 80.1632C131.236 81.0148 130.812 81.9274 129.849 82.2772L71.4629 103.488C69.2054 104.308 66.7335 104.321 64.4675 103.524L6.1152 83.0097C5.20962 82.6913 4.77293 81.8747 4.80822 81.0718L4.80837 81.0718V81.0652V77.5275L31.5102 77.4591Z" stroke="black" stroke-width="0.3"/>
<path id="B_3" d="M64.4822 54.4207C66.7398 53.6006 69.2117 53.5878 71.4776 54.3844L129.83 74.8989C131.566 75.5091 131.578 77.9592 129.849 78.5874L71.463 99.798C69.2054 100.618 66.7335 100.631 64.4676 99.8343L6.11526 79.3198C4.37958 78.7096 4.36685 76.2595 6.09609 75.6313L64.4822 54.4207Z" fill="#2D3033" stroke="black" stroke-width="0.3"/>
</g>
<g id="&#231;&#189;&#145;&#230;&#160;&#188;">
<path id="A_5" d="M64.4756 60.3997C66.7371 59.5782 69.2133 59.5653 71.4832 60.3633L113.059 74.9797C114.811 75.5956 114.823 78.0685 113.078 78.7025L71.4688 93.8184C69.2073 94.64 66.731 94.6528 64.4611 93.8548L22.8856 79.2384C21.1338 78.6225 21.1209 76.1497 22.8662 75.5156L64.4756 60.3997Z" fill="#2D3033" stroke="#B8A9A9" stroke-width="0.263565"/>
<g id="B_4">
<mask id="mask1_1510_5204" style="mask-type:alpha" maskUnits="userSpaceOnUse" x="21" y="59" width="94" height="36">
<path id="X_3" d="M64.4756 60.3997C66.7371 59.5782 69.2133 59.5653 71.4832 60.3633L113.059 74.9797C114.811 75.5956 114.823 78.0685 113.078 78.7025L71.4688 93.8184C69.2073 94.64 66.731 94.6528 64.4611 93.8548L22.8856 79.2384C21.1338 78.6225 21.1209 76.1497 22.8662 75.5156L64.4756 60.3997Z" fill="white" stroke="#B8A9A9" stroke-width="0.263565"/>
</mask>
<g mask="url(#mask1_1510_5204)">
<path id="1_3" d="M24.1055 79.9263L75.0278 61.5059" stroke="#464E58" stroke-width="0.263565" stroke-linecap="round"/>
<path id="2_2" d="M60.123 92.6382L111.045 74.2178" stroke="#464E58" stroke-width="0.263565" stroke-linecap="round"/>
<path id="3" d="M22.0195 74.7373L74.7444 93.1068" stroke="#464E58" stroke-width="0.263565" stroke-linecap="round"/>
<path id="4" d="M60.9121 60.8369L113.637 79.2064" stroke="#464E58" stroke-width="0.263565" stroke-linecap="round"/>
</g>
</g>
<path id="Line_3" d="M64.4818 60.4168C66.7394 59.5967 69.2113 59.5839 71.4772 60.3805L113.053 74.9969C114.788 75.6071 114.801 78.0572 113.072 78.6854L71.4626 93.8013C69.205 94.6214 66.7331 94.6342 64.4672 93.8376L22.8916 79.2212C21.1559 78.611 21.1432 76.1609 22.8725 75.5327L64.4818 60.4168Z" stroke="#777E87" stroke-width="0.3"/>
</g>
</g>
<g id="&#230;&#156;&#141;&#229;&#138;&#161;&#229;&#153;&#168;">
<g id="A_6">
<g id="&#230;&#156;&#172;&#228;&#189;&#147;">
<path id="B_5" d="M52.8038 55.7111L52.8266 55.711L52.848 55.7032L64.4756 51.4791C66.737 50.6576 69.2133 50.6447 71.4832 51.4427L83.0672 55.5153L83.0889 55.5229L83.1118 55.5227L114.383 55.3283V67.9293L114.376 68.0469C114.333 68.7772 113.902 69.4828 113.078 69.7819L71.4687 84.8978C69.2072 85.7194 66.731 85.7323 64.4611 84.9342L22.8855 70.3178C22.0513 70.0245 21.6121 69.3129 21.5681 68.5756L21.5645 68.5162L21.5645 68.4758L21.5645 68.4744C21.5644 68.4598 21.5644 68.4453 21.5645 68.4307H21.5645V68.4293V55.9054L52.8038 55.7111Z" fill="#505356" stroke="black" stroke-width="0.263565"/>
<g id="&#233;&#152;&#180;&#229;&#189;&#177;_3">
<mask id="mask2_1510_5204" style="mask-type:alpha" maskUnits="userSpaceOnUse" x="21" y="50" width="94" height="36">
<path id="X_4" d="M52.8039 55.7294L52.8299 55.7292L52.8542 55.7203L64.4818 51.4963C66.7393 50.6761 69.2112 50.6633 71.4771 51.4599L83.0612 55.5324L83.0858 55.5411L83.1119 55.5409L114.365 55.3466V67.9288L114.358 68.0458C114.315 68.7696 113.888 69.4684 113.072 69.7648L71.4625 84.8807C69.205 85.7008 66.7331 85.7137 64.4671 84.9171L22.8916 70.3006C22.0649 70.01 21.6299 69.3053 21.5863 68.5745L21.5827 68.5156L21.5827 68.4758L21.5827 68.4742C21.5826 68.4598 21.5826 68.4453 21.5827 68.4309H21.5827V68.4293V55.9235L52.8039 55.7294Z" fill="white" stroke="black" stroke-width="0.3"/>
</mask>
<g mask="url(#mask2_1510_5204)">
<path id="Vector" d="M68.5198 100.655C70.4035 100.655 72.2897 100.408 73.7112 99.8736L121.67 82.4131C123.099 81.894 123.813 81.2092 123.813 80.522V54.2979L72.2947 73.0859C70.2082 73.8473 68.5 76.2996 68.5 78.5072L68.5198 100.655Z" fill="#2E3033"/>
<path id="Line_4" d="M52.8038 55.7111L52.8266 55.711L52.848 55.7032L64.4756 51.4791C66.737 50.6576 69.2133 50.6447 71.4832 51.4427L83.0672 55.5153L83.0889 55.5229L83.1118 55.5227L114.383 55.3283V67.9293L114.376 68.0469C114.333 68.7772 113.902 69.4828 113.078 69.7819L71.4687 84.8978C69.2072 85.7194 66.731 85.7323 64.4611 84.9342L22.8855 70.3178C22.0513 70.0245 21.6121 69.3129 21.5681 68.5756L21.5645 68.5162L21.5645 68.4758L21.5645 68.4744C21.5644 68.4598 21.5644 68.4453 21.5645 68.4307H21.5645V68.4293V55.9054L52.8038 55.7111Z" stroke="black" stroke-width="0.263565"/>
</g>
</g>
<path id="A_7" d="M64.4818 38.8455C66.7394 38.0254 69.2113 38.0126 71.4772 38.8092L113.053 53.4256C114.788 54.0358 114.801 56.4859 113.072 57.1141L71.4626 72.23C69.205 73.0501 66.7331 73.063 64.4672 72.2663L22.8916 57.6499C21.1559 57.0397 21.1432 54.5897 22.8725 53.9615L64.4818 38.8455Z" fill="#505356" stroke="black" stroke-width="0.3"/>
</g>
<g id="&#230;&#149;&#163;&#231;&#131;&#173;">
<g id="1_4">
<mask id="mask3_1510_5204" style="mask-type:alpha" maskUnits="userSpaceOnUse" x="74" y="73" width="2" height="9">
<path id="X_5" d="M74.2822 74.3413C74.2822 74.1138 74.4283 73.9119 74.6444 73.8407L74.8618 73.769C75.2028 73.6567 75.5539 73.9107 75.5539 74.2697V80.8366C75.5539 81.0641 75.4079 81.266 75.1917 81.3372L74.9743 81.4089C74.6333 81.5212 74.2822 81.2672 74.2822 80.9082V74.3413Z" fill="#B8A9A9"/>
</mask>
<g mask="url(#mask3_1510_5204)">
<path id="A_8" d="M74.2822 74.3413C74.2822 74.1138 74.4283 73.9119 74.6444 73.8407L74.8618 73.769C75.2028 73.6567 75.5539 73.9107 75.5539 74.2697V80.8366C75.5539 81.0641 75.4079 81.266 75.1917 81.3372L74.9743 81.4089C74.6333 81.5212 74.2822 81.2672 74.2822 80.9082V74.3413Z" fill="#1E1F21"/>
<path id="&#231;&#169;&#186;&#233;&#151;&#180;" d="M71.3682 81.0646L73.7904 81.9414L76.1754 81.0646L73.8661 80.2774L71.3682 81.0646Z" fill="#111112"/>
</g>
</g>
<g id="2_3">
<mask id="mask4_1510_5204" style="mask-type:alpha" maskUnits="userSpaceOnUse" x="76" y="72" width="2" height="9">
<path id="X_6" d="M76.6221 73.4976C76.6221 73.27 76.7681 73.0681 76.9842 72.9969L77.2017 72.9253C77.5426 72.8129 77.8937 73.0669 77.8937 73.4259V79.9928C77.8937 80.2204 77.7477 80.4223 77.5316 80.4935L77.3142 80.5651C76.9732 80.6775 76.6221 80.4235 76.6221 80.0645V73.4976Z" fill="#B8A9A9"/>
</mask>
<g mask="url(#mask4_1510_5204)">
<path id="A_9" d="M76.6221 73.4976C76.6221 73.27 76.7681 73.0681 76.9842 72.9969L77.2017 72.9253C77.5426 72.8129 77.8937 73.0669 77.8937 73.4259V79.9928C77.8937 80.2204 77.7477 80.4223 77.5316 80.4935L77.3142 80.5651C76.9732 80.6775 76.6221 80.4235 76.6221 80.0645V73.4976Z" fill="#1E1F21"/>
<path id="&#231;&#169;&#186;&#233;&#151;&#180;_2" d="M73.708 80.2208L76.1303 81.0976L78.5152 80.2208L76.206 79.4336L73.708 80.2208Z" fill="#111112"/>
</g>
</g>
<g id="3_2">
<mask id="mask5_1510_5204" style="mask-type:alpha" maskUnits="userSpaceOnUse" x="78" y="72" width="3" height="8">
<path id="X_7" d="M78.9609 72.6294C78.9609 72.4018 79.107 72.2 79.3231 72.1288L79.5405 72.0571C79.8815 71.9448 80.2326 72.1988 80.2326 72.5578V79.1247C80.2326 79.3522 80.0866 79.5541 79.8704 79.6253L79.653 79.6969C79.312 79.8093 78.9609 79.5553 78.9609 79.1963V72.6294Z" fill="#B8A9A9"/>
</mask>
<g mask="url(#mask5_1510_5204)">
<path id="A_10" d="M78.9609 72.6294C78.9609 72.4018 79.107 72.2 79.3231 72.1288L79.5405 72.0571C79.8815 71.9448 80.2326 72.1988 80.2326 72.5578V79.1247C80.2326 79.3522 80.0866 79.5541 79.8704 79.6253L79.653 79.6969C79.312 79.8093 78.9609 79.5553 78.9609 79.1963V72.6294Z" fill="#1E1F21"/>
<path id="&#231;&#169;&#186;&#233;&#151;&#180;_3" d="M76.0469 79.3527L78.4691 80.2295L80.8541 79.3527L78.5448 78.5655L76.0469 79.3527Z" fill="#111112"/>
</g>
</g>
<g id="4_2">
<mask id="mask6_1510_5204" style="mask-type:alpha" maskUnits="userSpaceOnUse" x="81" y="71" width="2" height="8">
<path id="X_8" d="M81.3008 71.7857C81.3008 71.5581 81.4468 71.3562 81.663 71.285L81.8804 71.2134C82.2214 71.101 82.5724 71.355 82.5724 71.714V78.2809C82.5724 78.5085 82.4264 78.7103 82.2103 78.7816L81.9929 78.8532C81.6519 78.9655 81.3008 78.7116 81.3008 78.3525V71.7857Z" fill="#B8A9A9"/>
</mask>
<g mask="url(#mask6_1510_5204)">
<path id="A_11" d="M81.3008 71.7857C81.3008 71.5581 81.4468 71.3562 81.663 71.285L81.8804 71.2134C82.2214 71.101 82.5724 71.355 82.5724 71.714V78.2809C82.5724 78.5085 82.4264 78.7103 82.2103 78.7816L81.9929 78.8532C81.6519 78.9655 81.3008 78.7116 81.3008 78.3525V71.7857Z" fill="#1E1F21"/>
<path id="&#231;&#169;&#186;&#233;&#151;&#180;_4" d="M78.3867 78.5089L80.809 79.3857L83.1939 78.5089L80.8847 77.7217L78.3867 78.5089Z" fill="#111112"/>
</g>
</g>
<g id="5">
<mask id="mask7_1510_5204" style="mask-type:alpha" maskUnits="userSpaceOnUse" x="83" y="70" width="2" height="9">
<path id="X_9" d="M83.6396 70.9361C83.6396 70.7085 83.7857 70.5066 84.0018 70.4354L84.2192 70.3638C84.5602 70.2514 84.9113 70.5054 84.9113 70.8644V77.4313C84.9113 77.6589 84.7653 77.8607 84.5491 77.932L84.3317 78.0036C83.9907 78.1159 83.6396 77.862 83.6396 77.5029V70.9361Z" fill="#B8A9A9"/>
</mask>
<g mask="url(#mask7_1510_5204)">
<path id="A_12" d="M83.6396 70.9361C83.6396 70.7085 83.7857 70.5066 84.0018 70.4354L84.2192 70.3638C84.5602 70.2514 84.9113 70.5054 84.9113 70.8644V77.4313C84.9113 77.6589 84.7653 77.8607 84.5491 77.932L84.3317 78.0036C83.9907 78.1159 83.6396 77.862 83.6396 77.5029V70.9361Z" fill="#1E1F21"/>
<path id="&#231;&#169;&#186;&#233;&#151;&#180;_5" d="M80.7256 77.6593L83.1479 78.5361L85.5328 77.6593L83.2236 76.8721L80.7256 77.6593Z" fill="#111112"/>
</g>
</g>
<g id="6">
<mask id="mask8_1510_5204" style="mask-type:alpha" maskUnits="userSpaceOnUse" x="85" y="69" width="3" height="9">
<path id="X_10" d="M85.9795 70.0923C85.9795 69.8647 86.1255 69.6629 86.3417 69.5916L86.5591 69.52C86.9001 69.4077 87.2512 69.6616 87.2512 70.0207V76.5875C87.2512 76.8151 87.1051 77.017 86.889 77.0882L86.6716 77.1598C86.3306 77.2722 85.9795 77.0182 85.9795 76.6592V70.0923Z" fill="#B8A9A9"/>
</mask>
<g mask="url(#mask8_1510_5204)">
<path id="A_13" d="M85.9795 70.0923C85.9795 69.8647 86.1255 69.6629 86.3417 69.5916L86.5591 69.52C86.9001 69.4077 87.2512 69.6616 87.2512 70.0207V76.5875C87.2512 76.8151 87.1051 77.017 86.889 77.0882L86.6716 77.1598C86.3306 77.2722 85.9795 77.0182 85.9795 76.6592V70.0923Z" fill="#1E1F21"/>
<path id="&#231;&#169;&#186;&#233;&#151;&#180;_6" d="M83.0654 76.8156L85.4877 77.6923L87.8727 76.8156L85.5634 76.0284L83.0654 76.8156Z" fill="#111112"/>
</g>
</g>
<g id="7">
<mask id="mask9_1510_5204" style="mask-type:alpha" maskUnits="userSpaceOnUse" x="88" y="68" width="2" height="9">
<path id="X_11" d="M88.3193 69.2241C88.3193 68.9966 88.4654 68.7947 88.6815 68.7235L88.8989 68.6519C89.2399 68.5395 89.591 68.7935 89.591 69.1525V75.7194C89.591 75.9469 89.445 76.1488 89.2288 76.22L89.0114 76.2917C88.6704 76.404 88.3193 76.15 88.3193 75.791V69.2241Z" fill="#B8A9A9"/>
</mask>
<g mask="url(#mask9_1510_5204)">
<path id="A_14" d="M88.3193 69.2241C88.3193 68.9966 88.4654 68.7947 88.6815 68.7235L88.8989 68.6519C89.2399 68.5395 89.591 68.7935 89.591 69.1525V75.7194C89.591 75.9469 89.445 76.1488 89.2288 76.22L89.0114 76.2917C88.6704 76.404 88.3193 76.15 88.3193 75.791V69.2241Z" fill="#1E1F21"/>
<path id="&#231;&#169;&#186;&#233;&#151;&#180;_7" d="M85.4053 75.9474L87.8275 76.8242L90.2125 75.9474L87.9032 75.1602L85.4053 75.9474Z" fill="#111112"/>
</g>
</g>
<g id="8">
<mask id="mask10_1510_5204" style="mask-type:alpha" maskUnits="userSpaceOnUse" x="90" y="67" width="2" height="9">
<path id="X_12" d="M90.6582 68.3804C90.6582 68.1528 90.8042 67.9509 91.0204 67.8797L91.2378 67.8081C91.5788 67.6958 91.9299 67.9497 91.9299 68.3088V74.8756C91.9299 75.1032 91.7838 75.3051 91.5677 75.3763L91.3503 75.4479C91.0093 75.5603 90.6582 75.3063 90.6582 74.9473V68.3804Z" fill="#B8A9A9"/>
</mask>
<g mask="url(#mask10_1510_5204)">
<path id="A_15" d="M90.6582 68.3804C90.6582 68.1528 90.8042 67.9509 91.0204 67.8797L91.2378 67.8081C91.5788 67.6958 91.9299 67.9497 91.9299 68.3088V74.8756C91.9299 75.1032 91.7838 75.3051 91.5677 75.3763L91.3503 75.4479C91.0093 75.5603 90.6582 75.3063 90.6582 74.9473V68.3804Z" fill="#1E1F21"/>
<path id="&#231;&#169;&#186;&#233;&#151;&#180;_8" d="M87.7441 75.1036L90.1664 75.9804L92.5514 75.1036L90.2421 74.3164L87.7441 75.1036Z" fill="#111112"/>
</g>
</g>
<g id="9">
<mask id="mask11_1510_5204" style="mask-type:alpha" maskUnits="userSpaceOnUse" x="92" y="66" width="3" height="9">
<path id="X_13" d="M92.998 67.5064C92.998 67.2788 93.1441 67.0769 93.3602 67.0057L93.5776 66.9341C93.9186 66.8217 94.2697 67.0757 94.2697 67.4347V74.0016C94.2697 74.2292 94.1237 74.4311 93.9075 74.5023L93.6901 74.5739C93.3491 74.6862 92.998 74.4323 92.998 74.0732V67.5064Z" fill="#B8A9A9"/>
</mask>
<g mask="url(#mask11_1510_5204)">
<path id="A_16" d="M92.998 67.5064C92.998 67.2788 93.1441 67.0769 93.3602 67.0057L93.5776 66.9341C93.9186 66.8217 94.2697 67.0757 94.2697 67.4347V74.0016C94.2697 74.2292 94.1237 74.4311 93.9075 74.5023L93.6901 74.5739C93.3491 74.6862 92.998 74.4323 92.998 74.0732V67.5064Z" fill="#1E1F21"/>
<path id="&#231;&#169;&#186;&#233;&#151;&#180;_9" d="M90.084 74.2296L92.5063 75.1064L94.8912 74.2296L92.582 73.4424L90.084 74.2296Z" fill="#111112"/>
</g>
</g>
<g id="10">
<mask id="mask12_1510_5204" style="mask-type:alpha" maskUnits="userSpaceOnUse" x="95" y="66" width="2" height="8">
<path id="X_14" d="M95.3369 66.6626C95.3369 66.4351 95.483 66.2332 95.6991 66.162L95.9165 66.0903C96.2575 65.978 96.6086 66.232 96.6086 66.591V73.1579C96.6086 73.3854 96.4625 73.5873 96.2464 73.6585L96.029 73.7301C95.688 73.8425 95.3369 73.5885 95.3369 73.2295V66.6626Z" fill="#B8A9A9"/>
</mask>
<g mask="url(#mask12_1510_5204)">
<path id="A_17" d="M95.3369 66.6626C95.3369 66.4351 95.483 66.2332 95.6991 66.162L95.9165 66.0903C96.2575 65.978 96.6086 66.232 96.6086 66.591V73.1579C96.6086 73.3854 96.4625 73.5873 96.2464 73.6585L96.029 73.7301C95.688 73.8425 95.3369 73.5885 95.3369 73.2295V66.6626Z" fill="#1E1F21"/>
<path id="&#231;&#169;&#186;&#233;&#151;&#180;_10" d="M92.4229 73.3859L94.8451 74.2627L97.2301 73.3859L94.9208 72.5987L92.4229 73.3859Z" fill="#111112"/>
</g>
</g>
<g id="11">
<mask id="mask13_1510_5204" style="mask-type:alpha" maskUnits="userSpaceOnUse" x="97" y="65" width="2" height="8">
<path id="X_15" d="M97.6768 65.7945C97.6768 65.5669 97.8228 65.365 98.0389 65.2938L98.2563 65.2222C98.5973 65.1098 98.9484 65.3638 98.9484 65.7228V72.2897C98.9484 72.5173 98.8024 72.7191 98.5863 72.7903L98.3688 72.862C98.0278 72.9743 97.6768 72.7204 97.6768 72.3613V65.7945Z" fill="#B8A9A9"/>
</mask>
<g mask="url(#mask13_1510_5204)">
<path id="A_18" d="M97.6768 65.7945C97.6768 65.5669 97.8228 65.365 98.0389 65.2938L98.2563 65.2222C98.5973 65.1098 98.9484 65.3638 98.9484 65.7228V72.2897C98.9484 72.5173 98.8024 72.7191 98.5863 72.7903L98.3688 72.862C98.0278 72.9743 97.6768 72.7204 97.6768 72.3613V65.7945Z" fill="#1E1F21"/>
<path id="&#231;&#169;&#186;&#233;&#151;&#180;_11" d="M94.7627 72.5177L97.185 73.3945L99.5699 72.5177L97.2607 71.7305L94.7627 72.5177Z" fill="#111112"/>
</g>
</g>
<g id="12">
<mask id="mask14_1510_5204" style="mask-type:alpha" maskUnits="userSpaceOnUse" x="100" y="64" width="2" height="9">
<path id="X_16" d="M100.017 64.9507C100.017 64.7231 100.163 64.5213 100.379 64.45L100.596 64.3784C100.937 64.2661 101.288 64.52 101.288 64.8791V71.4459C101.288 71.6735 101.142 71.8754 100.926 71.9466L100.709 72.0182C100.368 72.1306 100.017 71.8766 100.017 71.5176V64.9507Z" fill="#B8A9A9"/>
</mask>
<g mask="url(#mask14_1510_5204)">
<path id="A_19" d="M100.017 64.9507C100.017 64.7231 100.163 64.5213 100.379 64.45L100.596 64.3784C100.937 64.2661 101.288 64.52 101.288 64.8791V71.4459C101.288 71.6735 101.142 71.8754 100.926 71.9466L100.709 72.0182C100.368 72.1306 100.017 71.8766 100.017 71.5176V64.9507Z" fill="#1E1F21"/>
<path id="&#231;&#169;&#186;&#233;&#151;&#180;_12" d="M97.1025 71.674L99.5248 72.5507L101.91 71.674L99.6005 70.8868L97.1025 71.674Z" fill="#111112"/>
</g>
</g>
<g id="13">
<mask id="mask15_1510_5204" style="mask-type:alpha" maskUnits="userSpaceOnUse" x="102" y="63" width="2" height="9">
<path id="X_17" d="M102.355 64.1011C102.355 63.8735 102.502 63.6717 102.718 63.6004L102.935 63.5288C103.276 63.4165 103.627 63.6704 103.627 64.0295V70.5963C103.627 70.8239 103.481 71.0258 103.265 71.097L103.048 71.1686C102.707 71.281 102.355 71.027 102.355 70.668V64.1011Z" fill="#B8A9A9"/>
</mask>
<g mask="url(#mask15_1510_5204)">
<path id="A_20" d="M102.355 64.1011C102.355 63.8735 102.502 63.6717 102.718 63.6004L102.935 63.5288C103.276 63.4165 103.627 63.6704 103.627 64.0295V70.5963C103.627 70.8239 103.481 71.0258 103.265 71.097L103.048 71.1686C102.707 71.281 102.355 71.027 102.355 70.668V64.1011Z" fill="#1E1F21"/>
<path id="&#231;&#169;&#186;&#233;&#151;&#180;_13" d="M99.4414 70.8243L101.864 71.7011L104.249 70.8243L101.939 70.0371L99.4414 70.8243Z" fill="#111112"/>
</g>
</g>
<g id="14">
<mask id="mask16_1510_5204" style="mask-type:alpha" maskUnits="userSpaceOnUse" x="104" y="62" width="2" height="9">
<path id="X_18" d="M104.695 63.2573C104.695 63.0298 104.841 62.8279 105.057 62.7567L105.275 62.6851C105.616 62.5727 105.967 62.8267 105.967 63.1857V69.7526C105.967 69.9802 105.821 70.182 105.605 70.2532L105.387 70.3249C105.046 70.4372 104.695 70.1832 104.695 69.8242V63.2573Z" fill="#B8A9A9"/>
</mask>
<g mask="url(#mask16_1510_5204)">
<path id="A_21" d="M104.695 63.2573C104.695 63.0298 104.841 62.8279 105.057 62.7567L105.275 62.6851C105.616 62.5727 105.967 62.8267 105.967 63.1857V69.7526C105.967 69.9802 105.821 70.182 105.605 70.2532L105.387 70.3249C105.046 70.4372 104.695 70.1832 104.695 69.8242V63.2573Z" fill="#1E1F21"/>
<path id="&#231;&#169;&#186;&#233;&#151;&#180;_14" d="M101.781 69.9806L104.204 70.8574L106.588 69.9806L104.279 69.1934L101.781 69.9806Z" fill="#111112"/>
</g>
</g>
<g id="15">
<mask id="mask17_1510_5204" style="mask-type:alpha" maskUnits="userSpaceOnUse" x="107" y="61" width="2" height="9">
<path id="X_19" d="M107.034 62.3892C107.034 62.1616 107.18 61.9597 107.396 61.8885L107.614 61.8169C107.955 61.7045 108.306 61.9585 108.306 62.3175V68.8844C108.306 69.112 108.16 69.3139 107.944 69.3851L107.726 69.4567C107.385 69.5691 107.034 69.3151 107.034 68.9561V62.3892Z" fill="#B8A9A9"/>
</mask>
<g mask="url(#mask17_1510_5204)">
<path id="A_22" d="M107.034 62.3892C107.034 62.1616 107.18 61.9597 107.396 61.8885L107.614 61.8169C107.955 61.7045 108.306 61.9585 108.306 62.3175V68.8844C108.306 69.112 108.16 69.3139 107.944 69.3851L107.726 69.4567C107.385 69.5691 107.034 69.3151 107.034 68.9561V62.3892Z" fill="#1E1F21"/>
<path id="&#231;&#169;&#186;&#233;&#151;&#180;_15" d="M104.12 69.1124L106.542 69.9892L108.927 69.1124L106.618 68.3252L104.12 69.1124Z" fill="#111112"/>
</g>
</g>
<g id="16">
<mask id="mask18_1510_5204" style="mask-type:alpha" maskUnits="userSpaceOnUse" x="109" y="60" width="2" height="9">
<path id="X_20" d="M109.374 61.5454C109.374 61.3179 109.52 61.116 109.736 61.0448L109.954 60.9731C110.295 60.8608 110.646 61.1148 110.646 61.4738V68.0407C110.646 68.2682 110.5 68.4701 110.284 68.5413L110.066 68.613C109.725 68.7253 109.374 68.4713 109.374 68.1123V61.5454Z" fill="#B8A9A9"/>
</mask>
<g mask="url(#mask18_1510_5204)">
<path id="A_23" d="M109.374 61.5454C109.374 61.3179 109.52 61.116 109.736 61.0448L109.954 60.9731C110.295 60.8608 110.646 61.1148 110.646 61.4738V68.0407C110.646 68.2682 110.5 68.4701 110.284 68.5413L110.066 68.613C109.725 68.7253 109.374 68.4713 109.374 68.1123V61.5454Z" fill="#1E1F21"/>
<path id="&#231;&#169;&#186;&#233;&#151;&#180;_16" d="M106.46 68.2687L108.882 69.1455L111.267 68.2687L108.958 67.4815L106.46 68.2687Z" fill="#111112"/>
</g>
</g>
</g>
<g id="&#230;&#152;&#190;&#231;&#164;&#186;&#233;&#157;&#162;&#230;&#157;&#191;">
<mask id="mask19_1510_5204" style="mask-type:alpha" maskUnits="userSpaceOnUse" x="31" y="65" width="26" height="14">
<path id="X_21" d="M31.7744 66.179C31.7744 65.816 32.1327 65.5617 32.4754 65.6813L55.8547 73.8473C56.0663 73.9212 56.208 74.1208 56.208 74.3449V77.478C56.208 77.841 55.8497 78.0953 55.5071 77.9757L32.1277 69.8098C31.9161 69.7358 31.7744 69.5362 31.7744 69.3121V66.179Z" fill="black"/>
</mask>
<g mask="url(#mask19_1510_5204)">
<path id="A_24" d="M31.7744 66.179C31.7744 65.816 32.1327 65.5617 32.4754 65.6813L55.8547 73.8473C56.0663 73.9212 56.208 74.1208 56.208 74.3449V77.478C56.208 77.841 55.8497 78.0953 55.5071 77.9757L32.1277 69.8098C31.9161 69.7358 31.7744 69.5362 31.7744 69.3121V66.179Z" fill="black"/>
<g id="&#230;&#152;&#190;&#231;&#164;&#186;&#231;&#129;&#175;">
<path id="&#231;&#130;&#185;_2" d="M33.502 67.6768L33.6259 67.7109" stroke="#FBD166" stroke-width="1.05426" stroke-linecap="round"/>
<path id="&#231;&#130;&#185;_3" d="M54.2988 74.8271L54.4228 74.8613" stroke="#FBD166" stroke-width="1.05426" stroke-linecap="round"/>
<path id="&#231;&#159;&#162;&#233;&#135;&#143;" d="M35.4854 68.3164L37.5116 68.9983" stroke="#66DD8C" stroke-width="1.05426" stroke-linecap="round"/>
<path id="&#231;&#159;&#162;&#233;&#135;&#143;_2" d="M39.4668 69.7002L45.6155 71.7992" stroke="#FBD166" stroke-width="1.05426" stroke-linecap="round"/>
</g>
</g>
</g>
</g>
<g id="B_6">
<g id="&#230;&#156;&#172;&#228;&#189;&#147;_2">
<path id="B_7" d="M52.8038 39.8967L52.8266 39.8965L52.848 39.8888L64.4756 35.6647C66.737 34.8431 69.2133 34.8303 71.4832 35.6283L83.0672 39.7008L83.0889 39.7084L83.1118 39.7083L114.383 39.5138V52.1149L114.376 52.2324C114.333 52.9628 113.902 53.6683 113.078 53.9675L71.4687 69.0834C69.2072 69.9049 66.731 69.9178 64.4611 69.1198L22.8855 54.5034C22.0513 54.2101 21.6121 53.4985 21.5681 52.7611L21.5645 52.7017L21.5645 52.6613L21.5645 52.6599C21.5644 52.6454 21.5644 52.6308 21.5645 52.6163H21.5645V52.6149V40.0909L52.8038 39.8967Z" fill="#505356" stroke="black" stroke-width="0.263565"/>
<g id="&#233;&#152;&#180;&#229;&#189;&#177;_4">
<mask id="mask20_1510_5204" style="mask-type:alpha" maskUnits="userSpaceOnUse" x="21" y="34" width="94" height="36">
<path id="X_22" d="M52.8038 39.8967L52.8266 39.8965L52.848 39.8888L64.4756 35.6647C66.737 34.8431 69.2133 34.8303 71.4832 35.6283L83.0672 39.7008L83.0889 39.7084L83.1118 39.7083L114.383 39.5138V52.1149L114.376 52.2324C114.333 52.9628 113.902 53.6683 113.078 53.9675L71.4687 69.0834C69.2072 69.9049 66.731 69.9178 64.4611 69.1198L22.8855 54.5034C22.0513 54.2101 21.6121 53.4985 21.5681 52.7611L21.5645 52.7017L21.5645 52.6613L21.5645 52.6599C21.5644 52.6454 21.5644 52.6308 21.5645 52.6163H21.5645V52.6149V40.0909L52.8038 39.8967Z" fill="white" stroke="black" stroke-width="0.263565"/>
</mask>
<g mask="url(#mask20_1510_5204)">
<path id="Vector_2" d="M68.5198 84.8404C70.4035 84.8404 72.2897 84.5932 73.7112 84.0592L121.67 66.5987C123.099 66.0795 123.813 65.3948 123.813 64.7075V38.4834L72.2947 57.2714C70.2082 58.0328 68.5 60.4852 68.5 62.6928L68.5198 84.8404Z" fill="#2E3033"/>
<path id="Line_5" d="M52.8039 39.9149L52.8299 39.9147L52.8542 39.9059L64.4818 35.6818C66.7393 34.8617 69.2112 34.8489 71.4771 35.6455L83.0612 39.718L83.0858 39.7266L83.1119 39.7265L114.365 39.5322V52.1144L114.358 52.2313C114.315 52.9552 113.888 53.6539 113.072 53.9504L71.4625 69.0663C69.205 69.8864 66.7331 69.8992 64.4671 69.1026L22.8916 54.4862C22.0649 54.1956 21.6299 53.4908 21.5863 52.76L21.5827 52.7012L21.5827 52.6613L21.5827 52.6597C21.5826 52.6453 21.5826 52.6309 21.5827 52.6164H21.5827V52.6149V40.109L52.8039 39.9149Z" stroke="black" stroke-width="0.3"/>
</g>
</g>
<path id="A_25" d="M64.4818 23.0311C66.7394 22.211 69.2113 22.1981 71.4772 22.9947L113.053 37.6112C114.788 38.2214 114.801 40.6714 113.072 41.2996L71.4626 56.4155C69.205 57.2357 66.7331 57.2485 64.4672 56.4519L22.8916 41.8355C21.1559 41.2253 21.1432 38.7752 22.8725 38.147L64.4818 23.0311Z" fill="#505356" stroke="black" stroke-width="0.3"/>
</g>
<g id="&#230;&#149;&#163;&#231;&#131;&#173;_2">
<g id="1_5">
<mask id="mask21_1510_5204" style="mask-type:alpha" maskUnits="userSpaceOnUse" x="74" y="57" width="2" height="9">
<path id="X_23" d="M74.2822 58.5269C74.2822 58.2993 74.4283 58.0974 74.6444 58.0262L74.8618 57.9546C75.2028 57.8422 75.5539 58.0962 75.5539 58.4552V65.0221C75.5539 65.2497 75.4079 65.4516 75.1917 65.5228L74.9743 65.5944C74.6333 65.7068 74.2822 65.4528 74.2822 65.0937V58.5269Z" fill="#B8A9A9"/>
</mask>
<g mask="url(#mask21_1510_5204)">
<path id="A_26" d="M74.2822 58.5269C74.2822 58.2993 74.4283 58.0974 74.6444 58.0262L74.8618 57.9546C75.2028 57.8422 75.5539 58.0962 75.5539 58.4552V65.0221C75.5539 65.2497 75.4079 65.4516 75.1917 65.5228L74.9743 65.5944C74.6333 65.7068 74.2822 65.4528 74.2822 65.0937V58.5269Z" fill="#1E1F21"/>
<path id="&#231;&#169;&#186;&#233;&#151;&#180;_17" d="M71.3682 65.2501L73.7904 66.1269L76.1754 65.2501L73.8661 64.4629L71.3682 65.2501Z" fill="#111112"/>
</g>
</g>
<g id="2_4">
<mask id="mask22_1510_5204" style="mask-type:alpha" maskUnits="userSpaceOnUse" x="76" y="57" width="2" height="8">
<path id="X_24" d="M76.6221 57.6831C76.6221 57.4556 76.7681 57.2537 76.9842 57.1825L77.2017 57.1108C77.5426 56.9985 77.8937 57.2525 77.8937 57.6115V64.1784C77.8937 64.4059 77.7477 64.6078 77.5316 64.679L77.3142 64.7507C76.9732 64.863 76.6221 64.609 76.6221 64.25V57.6831Z" fill="#B8A9A9"/>
</mask>
<g mask="url(#mask22_1510_5204)">
<path id="A_27" d="M76.6221 57.6831C76.6221 57.4556 76.7681 57.2537 76.9842 57.1825L77.2017 57.1108C77.5426 56.9985 77.8937 57.2525 77.8937 57.6115V64.1784C77.8937 64.4059 77.7477 64.6078 77.5316 64.679L77.3142 64.7507C76.9732 64.863 76.6221 64.609 76.6221 64.25V57.6831Z" fill="#1E1F21"/>
<path id="&#231;&#169;&#186;&#233;&#151;&#180;_18" d="M73.708 64.4064L76.1303 65.2832L78.5152 64.4064L76.206 63.6192L73.708 64.4064Z" fill="#111112"/>
</g>
</g>
<g id="3_3">
<mask id="mask23_1510_5204" style="mask-type:alpha" maskUnits="userSpaceOnUse" x="78" y="56" width="3" height="8">
<path id="X_25" d="M78.9609 56.815C78.9609 56.5874 79.107 56.3855 79.3231 56.3143L79.5405 56.2427C79.8815 56.1303 80.2326 56.3843 80.2326 56.7433V63.3102C80.2326 63.5378 80.0866 63.7396 79.8704 63.8109L79.653 63.8825C79.312 63.9948 78.9609 63.7409 78.9609 63.3818V56.815Z" fill="#B8A9A9"/>
</mask>
<g mask="url(#mask23_1510_5204)">
<path id="A_28" d="M78.9609 56.815C78.9609 56.5874 79.107 56.3855 79.3231 56.3143L79.5405 56.2427C79.8815 56.1303 80.2326 56.3843 80.2326 56.7433V63.3102C80.2326 63.5378 80.0866 63.7396 79.8704 63.8109L79.653 63.8825C79.312 63.9948 78.9609 63.7409 78.9609 63.3818V56.815Z" fill="#1E1F21"/>
<path id="&#231;&#169;&#186;&#233;&#151;&#180;_19" d="M76.0469 63.5382L78.4691 64.415L80.8541 63.5382L78.5448 62.751L76.0469 63.5382Z" fill="#111112"/>
</g>
</g>
<g id="4_3">
<mask id="mask24_1510_5204" style="mask-type:alpha" maskUnits="userSpaceOnUse" x="81" y="55" width="2" height="9">
<path id="X_26" d="M81.3008 55.9712C81.3008 55.7436 81.4468 55.5418 81.663 55.4706L81.8804 55.3989C82.2214 55.2866 82.5724 55.5406 82.5724 55.8996V62.4665C82.5724 62.694 82.4264 62.8959 82.2103 62.9671L81.9929 63.0387C81.6519 63.1511 81.3008 62.8971 81.3008 62.5381V55.9712Z" fill="#B8A9A9"/>
</mask>
<g mask="url(#mask24_1510_5204)">
<path id="A_29" d="M81.3008 55.9712C81.3008 55.7436 81.4468 55.5418 81.663 55.4706L81.8804 55.3989C82.2214 55.2866 82.5724 55.5406 82.5724 55.8996V62.4665C82.5724 62.694 82.4264 62.8959 82.2103 62.9671L81.9929 63.0387C81.6519 63.1511 81.3008 62.8971 81.3008 62.5381V55.9712Z" fill="#1E1F21"/>
<path id="&#231;&#169;&#186;&#233;&#151;&#180;_20" d="M78.3867 62.6945L80.809 63.5713L83.1939 62.6945L80.8847 61.9073L78.3867 62.6945Z" fill="#111112"/>
</g>
</g>
<g id="5_2">
<mask id="mask25_1510_5204" style="mask-type:alpha" maskUnits="userSpaceOnUse" x="83" y="54" width="2" height="9">
<path id="X_27" d="M83.6396 55.1216C83.6396 54.894 83.7857 54.6922 84.0018 54.6209L84.2192 54.5493C84.5602 54.437 84.9113 54.6909 84.9113 55.05V61.6168C84.9113 61.8444 84.7653 62.0463 84.5491 62.1175L84.3317 62.1891C83.9907 62.3015 83.6396 62.0475 83.6396 61.6885V55.1216Z" fill="#B8A9A9"/>
</mask>
<g mask="url(#mask25_1510_5204)">
<path id="A_30" d="M83.6396 55.1216C83.6396 54.894 83.7857 54.6922 84.0018 54.6209L84.2192 54.5493C84.5602 54.437 84.9113 54.6909 84.9113 55.05V61.6168C84.9113 61.8444 84.7653 62.0463 84.5491 62.1175L84.3317 62.1891C83.9907 62.3015 83.6396 62.0475 83.6396 61.6885V55.1216Z" fill="#1E1F21"/>
<path id="&#231;&#169;&#186;&#233;&#151;&#180;_21" d="M80.7256 61.8448L83.1479 62.7216L85.5328 61.8448L83.2236 61.0577L80.7256 61.8448Z" fill="#111112"/>
</g>
</g>
<g id="6_2">
<mask id="mask26_1510_5204" style="mask-type:alpha" maskUnits="userSpaceOnUse" x="85" y="53" width="3" height="9">
<path id="X_28" d="M85.9795 54.2779C85.9795 54.0503 86.1255 53.8484 86.3417 53.7772L86.5591 53.7056C86.9001 53.5932 87.2512 53.8472 87.2512 54.2062V60.7731C87.2512 61.0007 87.1051 61.2025 86.889 61.2737L86.6716 61.3454C86.3306 61.4577 85.9795 61.2038 85.9795 60.8447V54.2779Z" fill="#B8A9A9"/>
</mask>
<g mask="url(#mask26_1510_5204)">
<path id="A_31" d="M85.9795 54.2779C85.9795 54.0503 86.1255 53.8484 86.3417 53.7772L86.5591 53.7056C86.9001 53.5932 87.2512 53.8472 87.2512 54.2062V60.7731C87.2512 61.0007 87.1051 61.2025 86.889 61.2737L86.6716 61.3454C86.3306 61.4577 85.9795 61.2038 85.9795 60.8447V54.2779Z" fill="#1E1F21"/>
<path id="&#231;&#169;&#186;&#233;&#151;&#180;_22" d="M83.0654 61.0011L85.4877 61.8779L87.8727 61.0011L85.5634 60.2139L83.0654 61.0011Z" fill="#111112"/>
</g>
</g>
<g id="7_2">
<mask id="mask27_1510_5204" style="mask-type:alpha" maskUnits="userSpaceOnUse" x="88" y="52" width="2" height="9">
<path id="X_29" d="M88.3193 53.4097C88.3193 53.1821 88.4654 52.9802 88.6815 52.909L88.8989 52.8374C89.2399 52.7251 89.591 52.979 89.591 53.3381V59.9049C89.591 60.1325 89.445 60.3344 89.2288 60.4056L89.0114 60.4772C88.6704 60.5896 88.3193 60.3356 88.3193 59.9766V53.4097Z" fill="#B8A9A9"/>
</mask>
<g mask="url(#mask27_1510_5204)">
<path id="A_32" d="M88.3193 53.4097C88.3193 53.1821 88.4654 52.9802 88.6815 52.909L88.8989 52.8374C89.2399 52.7251 89.591 52.979 89.591 53.3381V59.9049C89.591 60.1325 89.445 60.3344 89.2288 60.4056L89.0114 60.4772C88.6704 60.5896 88.3193 60.3356 88.3193 59.9766V53.4097Z" fill="#1E1F21"/>
<path id="&#231;&#169;&#186;&#233;&#151;&#180;_23" d="M85.4053 60.1329L87.8275 61.0097L90.2125 60.1329L87.9032 59.3457L85.4053 60.1329Z" fill="#111112"/>
</g>
</g>
<g id="8_2">
<mask id="mask28_1510_5204" style="mask-type:alpha" maskUnits="userSpaceOnUse" x="90" y="51" width="2" height="9">
<path id="X_30" d="M90.6582 52.5659C90.6582 52.3384 90.8042 52.1365 91.0204 52.0653L91.2378 51.9937C91.5788 51.8813 91.9299 52.1353 91.9299 52.4943V59.0612C91.9299 59.2887 91.7838 59.4906 91.5677 59.5618L91.3503 59.6335C91.0093 59.7458 90.6582 59.4918 90.6582 59.1328V52.5659Z" fill="#B8A9A9"/>
</mask>
<g mask="url(#mask28_1510_5204)">
<path id="A_33" d="M90.6582 52.5659C90.6582 52.3384 90.8042 52.1365 91.0204 52.0653L91.2378 51.9937C91.5788 51.8813 91.9299 52.1353 91.9299 52.4943V59.0612C91.9299 59.2887 91.7838 59.4906 91.5677 59.5618L91.3503 59.6335C91.0093 59.7458 90.6582 59.4918 90.6582 59.1328V52.5659Z" fill="#1E1F21"/>
<path id="&#231;&#169;&#186;&#233;&#151;&#180;_24" d="M87.7441 59.2892L90.1664 60.166L92.5514 59.2892L90.2421 58.502L87.7441 59.2892Z" fill="#111112"/>
</g>
</g>
<g id="9_2">
<mask id="mask29_1510_5204" style="mask-type:alpha" maskUnits="userSpaceOnUse" x="92" y="51" width="3" height="8">
<path id="X_31" d="M92.998 51.6919C92.998 51.4643 93.1441 51.2625 93.3602 51.1913L93.5776 51.1196C93.9186 51.0073 94.2697 51.2613 94.2697 51.6203V58.1872C94.2697 58.4147 94.1237 58.6166 93.9075 58.6878L93.6901 58.7594C93.3491 58.8718 92.998 58.6178 92.998 58.2588V51.6919Z" fill="#B8A9A9"/>
</mask>
<g mask="url(#mask29_1510_5204)">
<path id="A_34" d="M92.998 51.6919C92.998 51.4643 93.1441 51.2625 93.3602 51.1913L93.5776 51.1196C93.9186 51.0073 94.2697 51.2613 94.2697 51.6203V58.1872C94.2697 58.4147 94.1237 58.6166 93.9075 58.6878L93.6901 58.7594C93.3491 58.8718 92.998 58.6178 92.998 58.2588V51.6919Z" fill="#1E1F21"/>
<path id="&#231;&#169;&#186;&#233;&#151;&#180;_25" d="M90.084 58.4152L92.5063 59.292L94.8912 58.4152L92.582 57.628L90.084 58.4152Z" fill="#111112"/>
</g>
</g>
<g id="10_2">
<mask id="mask30_1510_5204" style="mask-type:alpha" maskUnits="userSpaceOnUse" x="95" y="50" width="2" height="8">
<path id="X_32" d="M95.3369 50.8482C95.3369 50.6206 95.483 50.4187 95.6991 50.3475L95.9165 50.2759C96.2575 50.1635 96.6086 50.4175 96.6086 50.7765V57.3434C96.6086 57.571 96.4625 57.7728 96.2464 57.8441L96.029 57.9157C95.688 58.028 95.3369 57.7741 95.3369 57.415V50.8482Z" fill="#B8A9A9"/>
</mask>
<g mask="url(#mask30_1510_5204)">
<path id="A_35" d="M95.3369 50.8482C95.3369 50.6206 95.483 50.4187 95.6991 50.3475L95.9165 50.2759C96.2575 50.1635 96.6086 50.4175 96.6086 50.7765V57.3434C96.6086 57.571 96.4625 57.7728 96.2464 57.8441L96.029 57.9157C95.688 58.028 95.3369 57.7741 95.3369 57.415V50.8482Z" fill="#1E1F21"/>
<path id="&#231;&#169;&#186;&#233;&#151;&#180;_26" d="M92.4229 57.5714L94.8451 58.4482L97.2301 57.5714L94.9208 56.7842L92.4229 57.5714Z" fill="#111112"/>
</g>
</g>
<g id="11_2">
<mask id="mask31_1510_5204" style="mask-type:alpha" maskUnits="userSpaceOnUse" x="97" y="49" width="2" height="9">
<path id="X_33" d="M97.6768 49.98C97.6768 49.7524 97.8228 49.5506 98.0389 49.4793L98.2563 49.4077C98.5973 49.2954 98.9484 49.5493 98.9484 49.9084V56.4752C98.9484 56.7028 98.8024 56.9047 98.5863 56.9759L98.3688 57.0475C98.0278 57.1599 97.6768 56.9059 97.6768 56.5469V49.98Z" fill="#B8A9A9"/>
</mask>
<g mask="url(#mask31_1510_5204)">
<path id="A_36" d="M97.6768 49.98C97.6768 49.7524 97.8228 49.5506 98.0389 49.4793L98.2563 49.4077C98.5973 49.2954 98.9484 49.5493 98.9484 49.9084V56.4752C98.9484 56.7028 98.8024 56.9047 98.5863 56.9759L98.3688 57.0475C98.0278 57.1599 97.6768 56.9059 97.6768 56.5469V49.98Z" fill="#1E1F21"/>
<path id="&#231;&#169;&#186;&#233;&#151;&#180;_27" d="M94.7627 56.7032L97.185 57.58L99.5699 56.7032L97.2607 55.916L94.7627 56.7032Z" fill="#111112"/>
</g>
</g>
<g id="12_2">
<mask id="mask32_1510_5204" style="mask-type:alpha" maskUnits="userSpaceOnUse" x="100" y="48" width="2" height="9">
<path id="X_34" d="M100.017 49.1362C100.017 48.9087 100.163 48.7068 100.379 48.6356L100.596 48.564C100.937 48.4516 101.288 48.7056 101.288 49.0646V55.6315C101.288 55.8591 101.142 56.0609 100.926 56.1321L100.709 56.2038C100.368 56.3161 100.017 56.0622 100.017 55.7031V49.1362Z" fill="#B8A9A9"/>
</mask>
<g mask="url(#mask32_1510_5204)">
<path id="A_37" d="M100.017 49.1362C100.017 48.9087 100.163 48.7068 100.379 48.6356L100.596 48.564C100.937 48.4516 101.288 48.7056 101.288 49.0646V55.6315C101.288 55.8591 101.142 56.0609 100.926 56.1321L100.709 56.2038C100.368 56.3161 100.017 56.0622 100.017 55.7031V49.1362Z" fill="#1E1F21"/>
<path id="&#231;&#169;&#186;&#233;&#151;&#180;_28" d="M97.1025 55.8595L99.5248 56.7363L101.91 55.8595L99.6005 55.0723L97.1025 55.8595Z" fill="#111112"/>
</g>
</g>
<g id="13_2">
<mask id="mask33_1510_5204" style="mask-type:alpha" maskUnits="userSpaceOnUse" x="102" y="47" width="2" height="9">
<path id="X_35" d="M102.355 48.2866C102.355 48.0591 102.502 47.8572 102.718 47.786L102.935 47.7144C103.276 47.602 103.627 47.856 103.627 48.215V54.7819C103.627 55.0094 103.481 55.2113 103.265 55.2825L103.048 55.3542C102.707 55.4665 102.355 55.2125 102.355 54.8535V48.2866Z" fill="#B8A9A9"/>
</mask>
<g mask="url(#mask33_1510_5204)">
<path id="A_38" d="M102.355 48.2866C102.355 48.0591 102.502 47.8572 102.718 47.786L102.935 47.7144C103.276 47.602 103.627 47.856 103.627 48.215V54.7819C103.627 55.0094 103.481 55.2113 103.265 55.2825L103.048 55.3542C102.707 55.4665 102.355 55.2125 102.355 54.8535V48.2866Z" fill="#1E1F21"/>
<path id="&#231;&#169;&#186;&#233;&#151;&#180;_29" d="M99.4414 55.0099L101.864 55.8867L104.249 55.0099L101.939 54.2227L99.4414 55.0099Z" fill="#111112"/>
</g>
</g>
<g id="14_2">
<mask id="mask34_1510_5204" style="mask-type:alpha" maskUnits="userSpaceOnUse" x="104" y="46" width="2" height="9">
<path id="X_36" d="M104.695 47.4429C104.695 47.2153 104.841 47.0134 105.057 46.9422L105.275 46.8706C105.616 46.7583 105.967 47.0122 105.967 47.3713V53.9381C105.967 54.1657 105.821 54.3676 105.605 54.4388L105.387 54.5104C105.046 54.6228 104.695 54.3688 104.695 54.0098V47.4429Z" fill="#B8A9A9"/>
</mask>
<g mask="url(#mask34_1510_5204)">
<path id="A_39" d="M104.695 47.4429C104.695 47.2153 104.841 47.0134 105.057 46.9422L105.275 46.8706C105.616 46.7583 105.967 47.0122 105.967 47.3713V53.9381C105.967 54.1657 105.821 54.3676 105.605 54.4388L105.387 54.5104C105.046 54.6228 104.695 54.3688 104.695 54.0098V47.4429Z" fill="#1E1F21"/>
<path id="&#231;&#169;&#186;&#233;&#151;&#180;_30" d="M101.781 54.1661L104.204 55.0429L106.588 54.1661L104.279 53.3789L101.781 54.1661Z" fill="#111112"/>
</g>
</g>
<g id="15_2">
<mask id="mask35_1510_5204" style="mask-type:alpha" maskUnits="userSpaceOnUse" x="107" y="45" width="2" height="9">
<path id="X_37" d="M107.034 46.5747C107.034 46.3472 107.18 46.1453 107.396 46.0741L107.614 46.0024C107.955 45.8901 108.306 46.1441 108.306 46.5031V53.07C108.306 53.2975 108.16 53.4994 107.944 53.5706L107.726 53.6423C107.385 53.7546 107.034 53.5006 107.034 53.1416V46.5747Z" fill="#B8A9A9"/>
</mask>
<g mask="url(#mask35_1510_5204)">
<path id="A_40" d="M107.034 46.5747C107.034 46.3472 107.18 46.1453 107.396 46.0741L107.614 46.0024C107.955 45.8901 108.306 46.1441 108.306 46.5031V53.07C108.306 53.2975 108.16 53.4994 107.944 53.5706L107.726 53.6423C107.385 53.7546 107.034 53.5006 107.034 53.1416V46.5747Z" fill="#1E1F21"/>
<path id="&#231;&#169;&#186;&#233;&#151;&#180;_31" d="M104.12 53.298L106.542 54.1748L108.927 53.298L106.618 52.5108L104.12 53.298Z" fill="#111112"/>
</g>
</g>
<g id="16_2">
<mask id="mask36_1510_5204" style="mask-type:alpha" maskUnits="userSpaceOnUse" x="109" y="45" width="2" height="8">
<path id="X_38" d="M109.374 45.731C109.374 45.5034 109.52 45.3015 109.736 45.2303L109.954 45.1587C110.295 45.0463 110.646 45.3003 110.646 45.6593V52.2262C110.646 52.4538 110.5 52.6557 110.284 52.7269L110.066 52.7985C109.725 52.9109 109.374 52.6569 109.374 52.2978V45.731Z" fill="#B8A9A9"/>
</mask>
<g mask="url(#mask36_1510_5204)">
<path id="A_41" d="M109.374 45.731C109.374 45.5034 109.52 45.3015 109.736 45.2303L109.954 45.1587C110.295 45.0463 110.646 45.3003 110.646 45.6593V52.2262C110.646 52.4538 110.5 52.6557 110.284 52.7269L110.066 52.7985C109.725 52.9109 109.374 52.6569 109.374 52.2978V45.731Z" fill="#1E1F21"/>
<path id="&#231;&#169;&#186;&#233;&#151;&#180;_32" d="M106.46 52.4542L108.882 53.331L111.267 52.4542L108.958 51.667L106.46 52.4542Z" fill="#111112"/>
</g>
</g>
</g>
<g id="&#230;&#152;&#190;&#231;&#164;&#186;&#233;&#157;&#162;&#230;&#157;&#191;_2">
<mask id="mask37_1510_5204" style="mask-type:alpha" maskUnits="userSpaceOnUse" x="31" y="49" width="26" height="14">
<path id="X_39" d="M31.7744 50.3645C31.7744 50.0016 32.1327 49.7472 32.4754 49.8669L55.8547 58.0328C56.0663 58.1067 56.208 58.3063 56.208 58.5305V61.6636C56.208 62.0265 55.8497 62.2809 55.5071 62.1612L32.1277 53.9953C31.9161 53.9214 31.7744 53.7218 31.7744 53.4977V50.3645Z" fill="black"/>
</mask>
<g mask="url(#mask37_1510_5204)">
<path id="A_42" d="M31.7744 50.3645C31.7744 50.0016 32.1327 49.7472 32.4754 49.8669L55.8547 58.0328C56.0663 58.1067 56.208 58.3063 56.208 58.5305V61.6636C56.208 62.0265 55.8497 62.2809 55.5071 62.1612L32.1277 53.9953C31.9161 53.9214 31.7744 53.7218 31.7744 53.4977V50.3645Z" fill="black"/>
<g id="&#230;&#152;&#190;&#231;&#164;&#186;&#231;&#129;&#175;_2">
<path id="&#231;&#130;&#185;_4" d="M33.502 51.8623L33.6259 51.8964" stroke="#FBD166" stroke-width="1.05426" stroke-linecap="round"/>
<path id="&#231;&#159;&#162;&#233;&#135;&#143;_3" d="M35.4854 52.502L39.3205 53.7915" stroke="#66DD8C" stroke-width="1.05426" stroke-linecap="round"/>
<path id="&#231;&#159;&#162;&#233;&#135;&#143;_4" d="M41.4033 54.5361L43.5294 55.2244" stroke="#FBD166" stroke-width="1.05426" stroke-linecap="round"/>
<path id="&#231;&#159;&#162;&#233;&#135;&#143;_5" d="M45.4336 55.9023L51.433 57.9339" stroke="#FBD166" stroke-width="1.05426" stroke-linecap="round"/>
</g>
</g>
</g>
</g>
<g id="C_2">
<g id="&#230;&#156;&#172;&#228;&#189;&#147;_3">
<path id="B_8" d="M52.8038 24.0832L52.8266 24.0831L52.848 24.0753L64.4756 19.8512C66.737 19.0297 69.2133 19.0168 71.4832 19.8148L83.0672 23.8873L83.0889 23.8949L83.1118 23.8948L114.383 23.7004V36.3014L114.376 36.4189C114.333 37.1493 113.902 37.8549 113.078 38.154L71.4687 53.2699C69.2072 54.0915 66.731 54.1043 64.4611 53.3063L22.8855 38.6899C22.0513 38.3966 21.6121 37.685 21.5681 36.9477L21.5645 36.8883L21.5645 36.8478L21.5645 36.8464C21.5644 36.8319 21.5644 36.8173 21.5645 36.8028H21.5645V36.8014V24.2774L52.8038 24.0832Z" fill="#505356" stroke="black" stroke-width="0.263565"/>
<g id="&#233;&#152;&#180;&#229;&#189;&#177;_5">
<mask id="mask38_1510_5204" style="mask-type:alpha" maskUnits="userSpaceOnUse" x="21" y="19" width="94" height="36">
<path id="X_40" d="M52.8038 24.0832L52.8266 24.0831L52.848 24.0753L64.4756 19.8512C66.737 19.0297 69.2133 19.0168 71.4832 19.8148L83.0672 23.8873L83.0889 23.8949L83.1118 23.8948L114.383 23.7004V36.3014L114.376 36.4189C114.333 37.1493 113.902 37.8549 113.078 38.154L71.4687 53.2699C69.2072 54.0915 66.731 54.1043 64.4611 53.3063L22.8855 38.6899C22.0513 38.3966 21.6121 37.685 21.5681 36.9477L21.5645 36.8883L21.5645 36.8478L21.5645 36.8464C21.5644 36.8319 21.5644 36.8173 21.5645 36.8028H21.5645V36.8014V24.2774L52.8038 24.0832Z" fill="white" stroke="black" stroke-width="0.263565"/>
</mask>
<g mask="url(#mask38_1510_5204)">
<path id="Vector_3" d="M68.5198 69.0269C70.4035 69.0269 72.2897 68.7797 73.7112 68.2457L121.67 50.7852C123.099 50.2661 123.813 49.5813 123.813 48.894V22.6699L72.2947 41.4579C70.2082 42.2194 68.5 44.6717 68.5 46.8793L68.5198 69.0269Z" fill="#2E3033"/>
<path id="Line_6" d="M52.8039 24.1014L52.8299 24.1013L52.8542 24.0924L64.4818 19.8683C66.7393 19.0482 69.2112 19.0354 71.4771 19.832L83.0612 23.9045L83.0858 23.9132L83.1119 23.913L114.365 23.7187V36.3009L114.358 36.4178C114.315 37.1417 113.888 37.8405 113.072 38.1369L71.4625 53.2528C69.205 54.0729 66.7331 54.0858 64.4671 53.2891L22.8916 38.6727C22.0649 38.3821 21.6299 37.6773 21.5863 36.9466L21.5827 36.8877L21.5827 36.8478L21.5827 36.8463C21.5826 36.8318 21.5826 36.8174 21.5827 36.803H21.5827V36.8014V24.2955L52.8039 24.1014Z" stroke="black" stroke-width="0.3"/>
</g>
</g>
<path id="A_43" d="M64.4818 7.21762C66.7394 6.3975 69.2113 6.38465 71.4772 7.18127L113.053 21.7977C114.788 22.4079 114.801 24.858 113.072 25.4862L71.4626 40.6021C69.205 41.4222 66.7331 41.435 64.4672 40.6384L22.8916 26.022C21.1559 25.4118 21.1432 22.9617 22.8725 22.3335L64.4818 7.21762Z" fill="#505356" stroke="black" stroke-width="0.3"/>
</g>
<g id="&#230;&#149;&#163;&#231;&#131;&#173;_3">
<g id="1_6">
<mask id="mask39_1510_5204" style="mask-type:alpha" maskUnits="userSpaceOnUse" x="74" y="42" width="2" height="8">
<path id="X_41" d="M74.2822 42.7134C74.2822 42.4858 74.4283 42.284 74.6444 42.2127L74.8618 42.1411C75.2028 42.0288 75.5539 42.2827 75.5539 42.6418V49.2086C75.5539 49.4362 75.4079 49.6381 75.1917 49.7093L74.9743 49.7809C74.6333 49.8933 74.2822 49.6393 74.2822 49.2803V42.7134Z" fill="#B8A9A9"/>
</mask>
<g mask="url(#mask39_1510_5204)">
<path id="A_44" d="M74.2822 42.7134C74.2822 42.4858 74.4283 42.284 74.6444 42.2127L74.8618 42.1411C75.2028 42.0288 75.5539 42.2827 75.5539 42.6418V49.2086C75.5539 49.4362 75.4079 49.6381 75.1917 49.7093L74.9743 49.7809C74.6333 49.8933 74.2822 49.6393 74.2822 49.2803V42.7134Z" fill="#1E1F21"/>
<path id="&#231;&#169;&#186;&#233;&#151;&#180;_33" d="M71.3682 49.4366L73.7904 50.3134L76.1754 49.4366L73.8661 48.6494L71.3682 49.4366Z" fill="#111112"/>
</g>
</g>
<g id="2_5">
<mask id="mask40_1510_5204" style="mask-type:alpha" maskUnits="userSpaceOnUse" x="76" y="41" width="2" height="8">
<path id="X_42" d="M76.6221 41.8696C76.6221 41.6421 76.7681 41.4402 76.9842 41.369L77.2017 41.2974C77.5426 41.185 77.8937 41.439 77.8937 41.798V48.3649C77.8937 48.5925 77.7477 48.7943 77.5316 48.8655L77.3142 48.9372C76.9732 49.0495 76.6221 48.7955 76.6221 48.4365V41.8696Z" fill="#B8A9A9"/>
</mask>
<g mask="url(#mask40_1510_5204)">
<path id="A_45" d="M76.6221 41.8696C76.6221 41.6421 76.7681 41.4402 76.9842 41.369L77.2017 41.2974C77.5426 41.185 77.8937 41.439 77.8937 41.798V48.3649C77.8937 48.5925 77.7477 48.7943 77.5316 48.8655L77.3142 48.9372C76.9732 49.0495 76.6221 48.7955 76.6221 48.4365V41.8696Z" fill="#1E1F21"/>
<path id="&#231;&#169;&#186;&#233;&#151;&#180;_34" d="M73.708 48.5929L76.1303 49.4697L78.5152 48.5929L76.206 47.8057L73.708 48.5929Z" fill="#111112"/>
</g>
</g>
<g id="3_4">
<mask id="mask41_1510_5204" style="mask-type:alpha" maskUnits="userSpaceOnUse" x="78" y="40" width="3" height="9">
<path id="X_43" d="M78.9609 41.0015C78.9609 40.7739 79.107 40.572 79.3231 40.5008L79.5405 40.4292C79.8815 40.3168 80.2326 40.5708 80.2326 40.9299V47.4967C80.2326 47.7243 80.0866 47.9262 79.8704 47.9974L79.653 48.069C79.312 48.1814 78.9609 47.9274 78.9609 47.5684V41.0015Z" fill="#B8A9A9"/>
</mask>
<g mask="url(#mask41_1510_5204)">
<path id="A_46" d="M78.9609 41.0015C78.9609 40.7739 79.107 40.572 79.3231 40.5008L79.5405 40.4292C79.8815 40.3168 80.2326 40.5708 80.2326 40.9299V47.4967C80.2326 47.7243 80.0866 47.9262 79.8704 47.9974L79.653 48.069C79.312 48.1814 78.9609 47.9274 78.9609 47.5684V41.0015Z" fill="#1E1F21"/>
<path id="&#231;&#169;&#186;&#233;&#151;&#180;_35" d="M76.0469 47.7247L78.4691 48.6015L80.8541 47.7247L78.5448 46.9375L76.0469 47.7247Z" fill="#111112"/>
</g>
</g>
<g id="4_4">
<mask id="mask42_1510_5204" style="mask-type:alpha" maskUnits="userSpaceOnUse" x="81" y="39" width="2" height="9">
<path id="X_44" d="M81.3008 40.1577C81.3008 39.9302 81.4468 39.7283 81.663 39.6571L81.8804 39.5854C82.2214 39.4731 82.5724 39.7271 82.5724 40.0861V46.653C82.5724 46.8805 82.4264 47.0824 82.2103 47.1536L81.9929 47.2253C81.6519 47.3376 81.3008 47.0836 81.3008 46.7246V40.1577Z" fill="#B8A9A9"/>
</mask>
<g mask="url(#mask42_1510_5204)">
<path id="A_47" d="M81.3008 40.1577C81.3008 39.9302 81.4468 39.7283 81.663 39.6571L81.8804 39.5854C82.2214 39.4731 82.5724 39.7271 82.5724 40.0861V46.653C82.5724 46.8805 82.4264 47.0824 82.2103 47.1536L81.9929 47.2253C81.6519 47.3376 81.3008 47.0836 81.3008 46.7246V40.1577Z" fill="#1E1F21"/>
<path id="&#231;&#169;&#186;&#233;&#151;&#180;_36" d="M78.3867 46.881L80.809 47.7578L83.1939 46.881L80.8847 46.0938L78.3867 46.881Z" fill="#111112"/>
</g>
</g>
<g id="5_3">
<mask id="mask43_1510_5204" style="mask-type:alpha" maskUnits="userSpaceOnUse" x="83" y="38" width="2" height="9">
<path id="X_45" d="M83.6396 39.3081C83.6396 39.0806 83.7857 38.8787 84.0018 38.8075L84.2192 38.7358C84.5602 38.6235 84.9113 38.8775 84.9113 39.2365V45.8034C84.9113 46.0309 84.7653 46.2328 84.5491 46.304L84.3317 46.3757C83.9907 46.488 83.6396 46.234 83.6396 45.875V39.3081Z" fill="#B8A9A9"/>
</mask>
<g mask="url(#mask43_1510_5204)">
<path id="A_48" d="M83.6396 39.3081C83.6396 39.0806 83.7857 38.8787 84.0018 38.8075L84.2192 38.7358C84.5602 38.6235 84.9113 38.8775 84.9113 39.2365V45.8034C84.9113 46.0309 84.7653 46.2328 84.5491 46.304L84.3317 46.3757C83.9907 46.488 83.6396 46.234 83.6396 45.875V39.3081Z" fill="#1E1F21"/>
<path id="&#231;&#169;&#186;&#233;&#151;&#180;_37" d="M80.7256 46.0314L83.1479 46.9082L85.5328 46.0314L83.2236 45.2442L80.7256 46.0314Z" fill="#111112"/>
</g>
</g>
<g id="6_3">
<mask id="mask44_1510_5204" style="mask-type:alpha" maskUnits="userSpaceOnUse" x="85" y="37" width="3" height="9">
<path id="X_46" d="M85.9795 38.4644C85.9795 38.2368 86.1255 38.0349 86.3417 37.9637L86.5591 37.8921C86.9001 37.7797 87.2512 38.0337 87.2512 38.3927V44.9596C87.2512 45.1872 87.1051 45.3891 86.889 45.4603L86.6716 45.5319C86.3306 45.6443 85.9795 45.3903 85.9795 45.0312V38.4644Z" fill="#B8A9A9"/>
</mask>
<g mask="url(#mask44_1510_5204)">
<path id="A_49" d="M85.9795 38.4644C85.9795 38.2368 86.1255 38.0349 86.3417 37.9637L86.5591 37.8921C86.9001 37.7797 87.2512 38.0337 87.2512 38.3927V44.9596C87.2512 45.1872 87.1051 45.3891 86.889 45.4603L86.6716 45.5319C86.3306 45.6443 85.9795 45.3903 85.9795 45.0312V38.4644Z" fill="#1E1F21"/>
<path id="&#231;&#169;&#186;&#233;&#151;&#180;_38" d="M83.0654 45.1876L85.4877 46.0644L87.8727 45.1876L85.5634 44.4004L83.0654 45.1876Z" fill="#111112"/>
</g>
</g>
<g id="7_3">
<mask id="mask45_1510_5204" style="mask-type:alpha" maskUnits="userSpaceOnUse" x="88" y="36" width="2" height="9">
<path id="X_47" d="M88.3193 37.5962C88.3193 37.3686 88.4654 37.1668 88.6815 37.0956L88.8989 37.0239C89.2399 36.9116 89.591 37.1656 89.591 37.5246V44.0915C89.591 44.319 89.445 44.5209 89.2288 44.5921L89.0114 44.6637C88.6704 44.7761 88.3193 44.5221 88.3193 44.1631V37.5962Z" fill="#B8A9A9"/>
</mask>
<g mask="url(#mask45_1510_5204)">
<path id="A_50" d="M88.3193 37.5962C88.3193 37.3686 88.4654 37.1668 88.6815 37.0956L88.8989 37.0239C89.2399 36.9116 89.591 37.1656 89.591 37.5246V44.0915C89.591 44.319 89.445 44.5209 89.2288 44.5921L89.0114 44.6637C88.6704 44.7761 88.3193 44.5221 88.3193 44.1631V37.5962Z" fill="#1E1F21"/>
<path id="&#231;&#169;&#186;&#233;&#151;&#180;_39" d="M85.4053 44.3195L87.8275 45.1963L90.2125 44.3195L87.9032 43.5323L85.4053 44.3195Z" fill="#111112"/>
</g>
</g>
<g id="8_3">
<mask id="mask46_1510_5204" style="mask-type:alpha" maskUnits="userSpaceOnUse" x="90" y="36" width="2" height="8">
<path id="X_48" d="M90.6582 36.7525C90.6582 36.5249 90.8042 36.323 91.0204 36.2518L91.2378 36.1802C91.5788 36.0678 91.9299 36.3218 91.9299 36.6808V43.2477C91.9299 43.4753 91.7838 43.6771 91.5677 43.7484L91.3503 43.82C91.0093 43.9323 90.6582 43.6784 90.6582 43.3193V36.7525Z" fill="#B8A9A9"/>
</mask>
<g mask="url(#mask46_1510_5204)">
<path id="A_51" d="M90.6582 36.7525C90.6582 36.5249 90.8042 36.323 91.0204 36.2518L91.2378 36.1802C91.5788 36.0678 91.9299 36.3218 91.9299 36.6808V43.2477C91.9299 43.4753 91.7838 43.6771 91.5677 43.7484L91.3503 43.82C91.0093 43.9323 90.6582 43.6784 90.6582 43.3193V36.7525Z" fill="#1E1F21"/>
<path id="&#231;&#169;&#186;&#233;&#151;&#180;_40" d="M87.7441 43.4757L90.1664 44.3525L92.5514 43.4757L90.2421 42.6885L87.7441 43.4757Z" fill="#111112"/>
</g>
</g>
<g id="9_3">
<mask id="mask47_1510_5204" style="mask-type:alpha" maskUnits="userSpaceOnUse" x="92" y="35" width="3" height="8">
<path id="X_49" d="M92.998 35.8784C92.998 35.6509 93.1441 35.449 93.3602 35.3778L93.5776 35.3062C93.9186 35.1938 94.2697 35.4478 94.2697 35.8068V42.3737C94.2697 42.6012 94.1237 42.8031 93.9075 42.8743L93.6901 42.946C93.3491 43.0583 92.998 42.8043 92.998 42.4453V35.8784Z" fill="#B8A9A9"/>
</mask>
<g mask="url(#mask47_1510_5204)">
<path id="A_52" d="M92.998 35.8784C92.998 35.6509 93.1441 35.449 93.3602 35.3778L93.5776 35.3062C93.9186 35.1938 94.2697 35.4478 94.2697 35.8068V42.3737C94.2697 42.6012 94.1237 42.8031 93.9075 42.8743L93.6901 42.946C93.3491 43.0583 92.998 42.8043 92.998 42.4453V35.8784Z" fill="#1E1F21"/>
<path id="&#231;&#169;&#186;&#233;&#151;&#180;_41" d="M90.084 42.6017L92.5063 43.4785L94.8912 42.6017L92.582 41.8145L90.084 42.6017Z" fill="#111112"/>
</g>
</g>
<g id="10_3">
<mask id="mask48_1510_5204" style="mask-type:alpha" maskUnits="userSpaceOnUse" x="95" y="34" width="2" height="9">
<path id="X_50" d="M95.3369 35.0347C95.3369 34.8071 95.483 34.6052 95.6991 34.534L95.9165 34.4624C96.2575 34.3501 96.6086 34.604 96.6086 34.9631V41.5299C96.6086 41.7575 96.4625 41.9594 96.2464 42.0306L96.029 42.1022C95.688 42.2146 95.3369 41.9606 95.3369 41.6016V35.0347Z" fill="#B8A9A9"/>
</mask>
<g mask="url(#mask48_1510_5204)">
<path id="A_53" d="M95.3369 35.0347C95.3369 34.8071 95.483 34.6052 95.6991 34.534L95.9165 34.4624C96.2575 34.3501 96.6086 34.604 96.6086 34.9631V41.5299C96.6086 41.7575 96.4625 41.9594 96.2464 42.0306L96.029 42.1022C95.688 42.2146 95.3369 41.9606 95.3369 41.6016V35.0347Z" fill="#1E1F21"/>
<path id="&#231;&#169;&#186;&#233;&#151;&#180;_42" d="M92.4229 41.7579L94.8451 42.6347L97.2301 41.7579L94.9208 40.9707L92.4229 41.7579Z" fill="#111112"/>
</g>
</g>
<g id="11_3">
<mask id="mask49_1510_5204" style="mask-type:alpha" maskUnits="userSpaceOnUse" x="97" y="33" width="2" height="9">
<path id="X_51" d="M97.6768 34.1665C97.6768 33.939 97.8228 33.7371 98.0389 33.6659L98.2563 33.5942C98.5973 33.4819 98.9484 33.7359 98.9484 34.0949V40.6618C98.9484 40.8893 98.8024 41.0912 98.5863 41.1624L98.3688 41.2341C98.0278 41.3464 97.6768 41.0924 97.6768 40.7334V34.1665Z" fill="#B8A9A9"/>
</mask>
<g mask="url(#mask49_1510_5204)">
<path id="A_54" d="M97.6768 34.1665C97.6768 33.939 97.8228 33.7371 98.0389 33.6659L98.2563 33.5942C98.5973 33.4819 98.9484 33.7359 98.9484 34.0949V40.6618C98.9484 40.8893 98.8024 41.0912 98.5863 41.1624L98.3688 41.2341C98.0278 41.3464 97.6768 41.0924 97.6768 40.7334V34.1665Z" fill="#1E1F21"/>
<path id="&#231;&#169;&#186;&#233;&#151;&#180;_43" d="M94.7627 40.8898L97.185 41.7666L99.5699 40.8898L97.2607 40.1026L94.7627 40.8898Z" fill="#111112"/>
</g>
</g>
<g id="12_3">
<mask id="mask50_1510_5204" style="mask-type:alpha" maskUnits="userSpaceOnUse" x="100" y="32" width="2" height="9">
<path id="X_52" d="M100.017 33.3228C100.017 33.0952 100.163 32.8933 100.379 32.8221L100.596 32.7505C100.937 32.6381 101.288 32.8921 101.288 33.2511V39.818C101.288 40.0456 101.142 40.2475 100.926 40.3187L100.709 40.3903C100.368 40.5027 100.017 40.2487 100.017 39.8896V33.3228Z" fill="#B8A9A9"/>
</mask>
<g mask="url(#mask50_1510_5204)">
<path id="A_55" d="M100.017 33.3228C100.017 33.0952 100.163 32.8933 100.379 32.8221L100.596 32.7505C100.937 32.6381 101.288 32.8921 101.288 33.2511V39.818C101.288 40.0456 101.142 40.2475 100.926 40.3187L100.709 40.3903C100.368 40.5027 100.017 40.2487 100.017 39.8896V33.3228Z" fill="#1E1F21"/>
<path id="&#231;&#169;&#186;&#233;&#151;&#180;_44" d="M97.1025 40.046L99.5248 40.9228L101.91 40.046L99.6005 39.2588L97.1025 40.046Z" fill="#111112"/>
</g>
</g>
<g id="13_3">
<mask id="mask51_1510_5204" style="mask-type:alpha" maskUnits="userSpaceOnUse" x="102" y="31" width="2" height="9">
<path id="X_53" d="M102.355 32.4732C102.355 32.2456 102.502 32.0437 102.718 31.9725L102.935 31.9009C103.276 31.7885 103.627 32.0425 103.627 32.4015V38.9684C103.627 39.196 103.481 39.3978 103.265 39.4691L103.048 39.5407C102.707 39.653 102.355 39.3991 102.355 39.04V32.4732Z" fill="#B8A9A9"/>
</mask>
<g mask="url(#mask51_1510_5204)">
<path id="A_56" d="M102.355 32.4732C102.355 32.2456 102.502 32.0437 102.718 31.9725L102.935 31.9009C103.276 31.7885 103.627 32.0425 103.627 32.4015V38.9684C103.627 39.196 103.481 39.3978 103.265 39.4691L103.048 39.5407C102.707 39.653 102.355 39.3991 102.355 39.04V32.4732Z" fill="#1E1F21"/>
<path id="&#231;&#169;&#186;&#233;&#151;&#180;_45" d="M99.4414 39.1964L101.864 40.0732L104.249 39.1964L101.939 38.4092L99.4414 39.1964Z" fill="#111112"/>
</g>
</g>
<g id="14_3">
<mask id="mask52_1510_5204" style="mask-type:alpha" maskUnits="userSpaceOnUse" x="104" y="31" width="2" height="8">
<path id="X_54" d="M104.695 31.6294C104.695 31.4018 104.841 31.2 105.057 31.1288L105.275 31.0571C105.616 30.9448 105.967 31.1988 105.967 31.5578V38.1247C105.967 38.3522 105.821 38.5541 105.605 38.6253L105.387 38.6969C105.046 38.8093 104.695 38.5553 104.695 38.1963V31.6294Z" fill="#B8A9A9"/>
</mask>
<g mask="url(#mask52_1510_5204)">
<path id="A_57" d="M104.695 31.6294C104.695 31.4018 104.841 31.2 105.057 31.1288L105.275 31.0571C105.616 30.9448 105.967 31.1988 105.967 31.5578V38.1247C105.967 38.3522 105.821 38.5541 105.605 38.6253L105.387 38.6969C105.046 38.8093 104.695 38.5553 104.695 38.1963V31.6294Z" fill="#1E1F21"/>
<path id="&#231;&#169;&#186;&#233;&#151;&#180;_46" d="M101.781 38.3527L104.204 39.2295L106.588 38.3527L104.279 37.5655L101.781 38.3527Z" fill="#111112"/>
</g>
</g>
<g id="15_3">
<mask id="mask53_1510_5204" style="mask-type:alpha" maskUnits="userSpaceOnUse" x="107" y="30" width="2" height="8">
<path id="X_55" d="M107.034 30.7612C107.034 30.5337 107.18 30.3318 107.396 30.2606L107.614 30.189C107.955 30.0766 108.306 30.3306 108.306 30.6896V37.2565C108.306 37.4841 108.16 37.6859 107.944 37.7571L107.726 37.8288C107.385 37.9411 107.034 37.6872 107.034 37.3281V30.7612Z" fill="#B8A9A9"/>
</mask>
<g mask="url(#mask53_1510_5204)">
<path id="A_58" d="M107.034 30.7612C107.034 30.5337 107.18 30.3318 107.396 30.2606L107.614 30.189C107.955 30.0766 108.306 30.3306 108.306 30.6896V37.2565C108.306 37.4841 108.16 37.6859 107.944 37.7571L107.726 37.8288C107.385 37.9411 107.034 37.6872 107.034 37.3281V30.7612Z" fill="#1E1F21"/>
<path id="&#231;&#169;&#186;&#233;&#151;&#180;_47" d="M104.12 37.4845L106.542 38.3613L108.927 37.4845L106.618 36.6973L104.12 37.4845Z" fill="#111112"/>
</g>
</g>
<g id="16_3">
<mask id="mask54_1510_5204" style="mask-type:alpha" maskUnits="userSpaceOnUse" x="109" y="29" width="2" height="9">
<path id="X_56" d="M109.374 29.9175C109.374 29.6899 109.52 29.4881 109.736 29.4168L109.954 29.3452C110.295 29.2329 110.646 29.4868 110.646 29.8459V36.4127C110.646 36.6403 110.5 36.8422 110.284 36.9134L110.066 36.985C109.725 37.0974 109.374 36.8434 109.374 36.4844V29.9175Z" fill="#B8A9A9"/>
</mask>
<g mask="url(#mask54_1510_5204)">
<path id="A_59" d="M109.374 29.9175C109.374 29.6899 109.52 29.4881 109.736 29.4168L109.954 29.3452C110.295 29.2329 110.646 29.4868 110.646 29.8459V36.4127C110.646 36.6403 110.5 36.8422 110.284 36.9134L110.066 36.985C109.725 37.0974 109.374 36.8434 109.374 36.4844V29.9175Z" fill="#1E1F21"/>
<path id="&#231;&#169;&#186;&#233;&#151;&#180;_48" d="M106.46 36.6407L108.882 37.5175L111.267 36.6407L108.958 35.8535L106.46 36.6407Z" fill="#111112"/>
</g>
</g>
</g>
<g id="&#230;&#152;&#190;&#231;&#164;&#186;&#233;&#157;&#162;&#230;&#157;&#191;_3">
<mask id="mask55_1510_5204" style="mask-type:alpha" maskUnits="userSpaceOnUse" x="31" y="34" width="26" height="13">
<path id="X_57" d="M31.7744 34.5511C31.7744 34.1881 32.1327 33.9337 32.4754 34.0534L55.8547 42.2193C56.0663 42.2932 56.208 42.4929 56.208 42.717V45.8501C56.208 46.2131 55.8497 46.4674 55.5071 46.3477L32.1277 38.1818C31.9161 38.1079 31.7744 37.9083 31.7744 37.6842V34.5511Z" fill="black"/>
</mask>
<g mask="url(#mask55_1510_5204)">
<path id="A_60" d="M31.7744 34.5511C31.7744 34.1881 32.1327 33.9337 32.4754 34.0534L55.8547 42.2193C56.0663 42.2932 56.208 42.4929 56.208 42.717V45.8501C56.208 46.2131 55.8497 46.4674 55.5071 46.3477L32.1277 38.1818C31.9161 38.1079 31.7744 37.9083 31.7744 37.6842V34.5511Z" fill="black"/>
<g id="&#230;&#152;&#190;&#231;&#164;&#186;&#231;&#129;&#175;_3">
<path id="&#231;&#130;&#185;_5" d="M54.2979 43.1992L54.4218 43.2334" stroke="#FBD166" stroke-width="1.05426" stroke-linecap="round"/>
<path id="&#231;&#159;&#162;&#233;&#135;&#143;_6" d="M33.5009 36.0351L37.5106 37.3708" stroke="#66DD8C" stroke-width="1.05426" stroke-linecap="round"/>
<path id="&#231;&#159;&#162;&#233;&#135;&#143;_7" d="M48.3457 41.1933L52.3553 42.529" stroke="#FBD166" stroke-width="1.05426" stroke-linecap="round"/>
<path id="&#231;&#159;&#162;&#233;&#135;&#143;_8" d="M44.624 39.8613L46.0943 40.3456" stroke="#FBD166" stroke-width="1.05426" stroke-linecap="round"/>
</g>
</g>
</g>
</g>
</g>
<g id="&#229;&#137;&#141;&#230;&#153;&#175;&#232;&#163;&#133;&#233;&#165;&#176;&#231;&#137;&#169;">
<g id="&#229;&#159;&#186;&#231;&#161;&#128;">
<path id="&#233;&#152;&#180;&#229;&#189;&#177;_6" d="M43.0195 102.552L46.3468 101.341C46.9642 101.117 46.9642 100.749 46.3468 100.524L42.5205 99.1318L43.0195 102.552Z" fill="black"/>
<path id="X_58" d="M14.6879 95.7128L14.688 95.7129L14.6926 95.7112C15.6149 95.3753 16.8394 95.205 18.0696 95.205C19.2998 95.205 20.5226 95.3753 21.4417 95.7112L21.442 95.7113L35.9578 100.974C36.4196 101.142 36.7559 101.333 36.9744 101.53C37.1927 101.726 37.2841 101.919 37.2841 102.096C37.2841 102.272 37.1927 102.465 36.9744 102.662C36.7562 102.858 36.4206 103.049 35.96 103.217L32.1141 104.459L32.1141 104.459L32.1095 104.46C31.1871 104.796 29.9626 104.967 28.7324 104.967C27.5022 104.967 26.2794 104.796 25.3604 104.46L25.3601 104.46L10.8427 99.1973C10.3813 99.0293 10.0453 98.8379 9.82698 98.641C9.60892 98.4442 9.51752 98.2513 9.51752 98.0748C9.51752 97.8983 9.6089 97.7055 9.82693 97.509C10.0449 97.3125 10.3801 97.1217 10.8404 96.9543L14.6879 95.7128Z" fill="#121212" stroke="#777E87" stroke-width="0.263565" stroke-miterlimit="10" stroke-linecap="round"/>
<path id="B_9" d="M35.0389 97.5092L40.3772 94.5774L44.7299 101.272C44.8618 101.475 44.7711 101.748 44.5439 101.832L35.6328 105.109L35.0389 97.5092Z" fill="#2D3033" stroke="black" stroke-width="0.3"/>
<path id="A_61" d="M13.8768 85.427C14.0755 85.0027 14.5655 84.8004 15.0057 84.961L39.8199 94.0138C40.3185 94.1958 40.554 94.7661 40.3289 95.2468L35.8936 104.719C35.6949 105.143 35.2049 105.346 34.7647 105.185L9.95054 96.1321C9.45188 95.9502 9.21643 95.3799 9.44153 94.8992L13.8768 85.427Z" fill="#777E87" stroke="black" stroke-width="0.3"/>
</g>
<g id="&#229;&#177;&#143;&#229;&#185;&#149;">
<path id="A_62" d="M14.6902 87.9209C14.9206 87.4286 15.4876 87.1923 15.9994 87.3751L36.9489 94.8547C37.5345 95.0637 37.8129 95.7315 37.5492 96.2946L34.8068 102.151C34.5763 102.644 34.0094 102.88 33.4975 102.697L12.548 95.2176C11.9625 95.0085 11.6841 94.3407 11.9477 93.7776L14.6902 87.9209Z" fill="black"/>
<g id="&#230;&#149;&#176;&#230;&#141;&#174;">
<mask id="mask56_1510_5204" style="mask-type:alpha" maskUnits="userSpaceOnUse" x="11" y="87" width="27" height="16">
<path id="X_59" d="M14.6902 87.9209C14.9206 87.4286 15.4876 87.1923 15.9994 87.3751L36.9489 94.8547C37.5345 95.0637 37.8129 95.7315 37.5492 96.2946L34.8068 102.151C34.5763 102.644 34.0094 102.88 33.4975 102.697L12.548 95.2176C11.9625 95.0085 11.6841 94.3407 11.9477 93.7776L14.6902 87.9209Z" fill="black"/>
</mask>
<g mask="url(#mask56_1510_5204)">
<g id="A_63">
<path id="Vector_4" d="M13.9554 93.6309L13.208 93.355L12.709 94.4164L13.4565 94.6923L13.9554 93.6309Z" fill="#FBD166"/>
<path id="Vector_5" d="M32.225 97.71L31.4775 97.4341L30.9785 98.4955L31.726 98.7714L32.225 97.71Z" fill="#FBD166"/>
<path id="Vector_6" d="M28.9017 92.6329L28.1543 92.357L27.6553 93.4183L28.4028 93.6942L28.9017 92.6329Z" fill="#FBD166"/>
<path id="Vector_7" d="M16.7227 91.5602L15.9753 91.2843L14.1903 94.9408L14.9378 95.2167L16.7227 91.5602Z" fill="#FBD166"/>
<path id="Vector_8" d="M21.67 92.4459L20.9225 92.17L19.1376 95.8265L19.8851 96.1024L21.67 92.4459Z" fill="#FBD166"/>
<path id="Vector_9" d="M24.2462 90.9342L23.4987 90.6583L21.7138 94.3148L22.4612 94.5907L24.2462 90.9342Z" fill="#FBD166"/>
<path id="Vector_10" d="M32.2452 93.7633L31.4977 93.4874L29.7128 97.1439L30.4602 97.4198L32.2452 93.7633Z" fill="#FBD166"/>
<path id="Vector_11" d="M35.4102 98.4333L34.6628 98.1573L32.8778 101.814L33.6253 102.09L35.4102 98.4333Z" fill="#FBD166"/>
<path id="Vector_12" d="M26.9988 92.9155L26.2514 92.6396L24.0966 96.9381L24.8441 97.214L26.9988 92.9155Z" fill="#FBD166"/>
<path id="Vector_13" d="M18.9443 90.6719L18.1969 90.396L16.9155 92.9632L17.6629 93.2391L18.9443 90.6719Z" fill="#FBD166"/>
<path id="Vector_14" d="M19.4611 93.2356L18.7136 92.9597L17.825 94.7694L18.5724 95.0454L19.4611 93.2356Z" fill="#FBD166"/>
<path id="Vector_15" d="M25.17 92.8284L24.4226 92.5524L23.534 94.3622L24.2814 94.6381L25.17 92.8284Z" fill="#FBD166"/>
<path id="Vector_16" d="M30.5919 93.1877L29.8445 92.9118L28.9558 94.7216L29.7033 94.9975L30.5919 93.1877Z" fill="#FBD166"/>
<path id="Vector_17" d="M33.2521 99.2336L32.5046 98.9577L31.616 100.767L32.3635 101.043L33.2521 99.2336Z" fill="#FBD166"/>
</g>
<g id="B_10">
<path id="Vector_18" d="M28.1279 94.2003L27.3804 93.9244L26.4786 95.7578L27.2261 96.0338L28.1279 94.2003Z" fill="#FBD166"/>
<path id="Vector_19" d="M34.0541 97.6046L33.3066 97.3286L32.8077 98.39L33.5551 98.6659L34.0541 97.6046Z" fill="#FBD166"/>
<path id="Vector_20" d="M28.1771 98.2745L27.4297 97.9986L26.9307 99.0599L27.6781 99.3358L28.1771 98.2745Z" fill="#FBD166"/>
<path id="Vector_21" d="M21.9427 95.5772L21.1953 95.3013L20.6963 96.3626L21.4438 96.6386L21.9427 95.5772Z" fill="#FBD166"/>
<path id="Vector_22" d="M17.5414 89.8907L16.7939 89.6148L16.295 90.6761L17.0424 90.952L17.5414 89.8907Z" fill="#FBD166"/>
<path id="Vector_23" d="M19.5513 89.4316L18.8039 89.1557L18.4666 89.8155L19.2141 90.0914L19.5513 89.4316Z" fill="#FBD166"/>
<path id="Vector_24" d="M36.2484 96.796L35.501 96.52L35.002 97.5814L35.7494 97.8573L36.2484 96.796Z" fill="#FBD166"/>
</g>
</g>
</g>
<path id="Line_7" d="M14.8095 87.9767C15.0112 87.546 15.5072 87.3393 15.9551 87.4992L36.9046 94.9788C37.417 95.1617 37.6606 95.746 37.4299 96.2387L34.6874 102.096C34.4858 102.526 33.9897 102.733 33.5418 102.573L12.5923 95.0935C12.08 94.9105 11.8364 94.3262 12.0671 93.8335L14.8095 87.9767Z" stroke="black" stroke-width="0.263565"/>
</g>
</g>
</g>
</g>
</svg>
