<svg width="137" height="112" viewBox="0 0 137 112" fill="none" xmlns="http://www.w3.org/2000/svg">
<g id="Frame 1000005166">
<g id="Group 1000005153">
<g id="&#231;&#186;&#191;&#231;&#188;&#134;">
<g id="A">
<path id="A_2" d="M111.378 31.4693H114.562C115.386 31.4093 117.036 31.8201 117.036 33.9439C117.036 36.0677 117.036 53.0823 117.036 61.3242C117.079 62.0551 116.587 63.5171 114.272 63.5171" stroke="black" stroke-width="2.10852" stroke-linecap="round"/>
<path id="1" d="M114.271 63.517C116.586 63.517 117.079 62.055 117.036 61.324C117.036 60.8249 117.036 60.2936 117.036 59.7354" stroke="#66DD8C" stroke-width="1.26511" stroke-linecap="round"/>
<path id="2" d="M117.036 55.722C117.036 54.3959 117.036 54.5617 117.036 53.1074" stroke="#66DD8C" stroke-width="1.26511" stroke-linecap="round"/>
</g>
<g id="B">
<path id="&#229;&#157;&#145;&#230;&#180;&#158;-Line" d="M8.85025 67.2189C8.85025 67.3762 8.77026 67.5418 8.59209 67.7085C8.41368 67.8754 8.14737 68.0326 7.80577 68.1678C7.12345 68.4378 6.17058 68.6081 5.11048 68.6081C4.05038 68.6081 3.09751 68.4378 2.41518 68.1678C2.07358 68.0326 1.80727 67.8754 1.62886 67.7085C1.45069 67.5418 1.3707 67.3762 1.3707 67.2189C1.3707 67.0615 1.45069 66.896 1.62886 66.7293C1.80727 66.5624 2.07358 66.4051 2.41518 66.27C3.09751 66 4.05038 65.8297 5.11048 65.8297C6.17058 65.8297 7.12345 66 7.80577 66.27C8.14737 66.4051 8.41368 66.5624 8.59209 66.7293C8.77026 66.896 8.85025 67.0615 8.85025 67.2189Z" stroke="#B8A9A9" stroke-width="0.3"/>
<path id="&#229;&#157;&#145;&#230;&#180;&#158;" d="M5.1106 67.909C6.07347 67.909 6.85402 67.6002 6.85402 67.2192C6.85402 66.8382 6.07347 66.5293 5.1106 66.5293C4.14774 66.5293 3.36719 66.8382 3.36719 67.2192C3.36719 67.6002 4.14774 67.909 5.1106 67.909Z" fill="black"/>
<path id="1_2" d="M5.1375 66.6551C4.93534 64.962 5.8076 61.9004 9.61018 59.9839C12.6052 58.4744 14.4604 58.3859 19.2378 59.9839L40.9537 68.1927" stroke="black" stroke-width="2.10852" stroke-linecap="round"/>
<path id="A_3" d="M12.8057 58.8859C13.7776 58.7531 14.8043 58.8147 16.071 59.0829" stroke="#66DD8C" stroke-width="1.26511" stroke-linecap="round"/>
<path id="B_2" d="M19.2383 59.9844L28.4074 63.4504" stroke="#66DD8C" stroke-width="1.26511" stroke-linecap="round"/>
</g>
<g id="C">
<path id="&#231;&#130;&#185;" d="M89.9165 102.92C91.7391 102.92 93.2167 102.336 93.2167 101.616C93.2167 100.895 91.7391 100.312 89.9165 100.312C88.0938 100.312 86.6162 100.895 86.6162 101.616C86.6162 102.336 88.0938 102.92 89.9165 102.92Z" fill="#EBE9E9"/>
<path id="Line" d="M89.916 101.616L117.805 91.5682C119.224 90.9449 118.952 90.0247 117.561 89.5561C117.205 89.436 111.933 87.5459 111.933 87.5459" stroke="#EBE9E9" stroke-width="1.05426" stroke-linecap="round"/>
</g>
</g>
<g id="&#229;&#143;&#176;&#233;&#157;&#162;">
<g id="&#229;&#186;&#149;&#229;&#177;&#130;">
<path id="&#233;&#152;&#180;&#229;&#189;&#177;" d="M129.403 82.5928L135.633 80.3254C136.788 79.9055 136.788 79.2174 135.633 78.7963L128.469 76.1895L129.403 82.5928Z" fill="black"/>
<path id="A_4" d="M31.5101 77.4447L31.5332 77.4447L31.5548 77.4368L64.476 65.4772C66.7374 64.6556 69.2137 64.6428 71.4836 65.4408L105.07 77.2486L105.092 77.2561L105.114 77.256L131.137 77.1893V80.147V80.1559L131.138 80.1647C131.255 81.0237 130.827 81.9452 129.855 82.2982L71.4691 103.509C69.2076 104.33 66.7314 104.343 64.4615 103.545L6.10916 83.0308C5.19516 82.7094 4.75442 81.8849 4.79002 81.0749L4.79015 81.0749V81.0691V77.5133L31.5101 77.4447Z" fill="white" stroke="black" stroke-width="0.263565"/>
<g id="X">
<mask id="mask0_1510_10662" style="mask-type:alpha" maskUnits="userSpaceOnUse" x="4" y="64" width="128" height="41">
<path id="X_2" d="M31.5101 77.4447L31.5332 77.4447L31.5548 77.4368L64.476 65.4772C66.7374 64.6556 69.2137 64.6428 71.4836 65.4408L105.07 77.2486L105.092 77.2561L105.114 77.256L131.137 77.1893V80.147V80.1559L131.138 80.1647C131.255 81.0237 130.827 81.9452 129.855 82.2982L71.4691 103.509C69.2076 104.33 66.7314 104.343 64.4615 103.545L6.10916 83.0308C5.19516 82.7094 4.75442 81.8849 4.79002 81.0749L4.79015 81.0749V81.0691V77.5133L31.5101 77.4447Z" fill="white" stroke="black" stroke-width="0.263565"/>
</mask>
<g mask="url(#mask0_1510_10662)">
<path id="&#233;&#152;&#180;&#229;&#189;&#177;_2" d="M67.9793 105.111C69.661 105.111 71.3405 104.891 72.6078 104.417L129.143 83.6505C130.417 83.1877 131.054 82.575 131.054 81.9644V79.1543L71.3559 101.105C69.4957 101.783 67.9727 103.959 67.9727 105.938L67.9793 105.111Z" fill="#EBE9E9"/>
</g>
</g>
<path id="Line_2" d="M31.5102 77.463L31.5364 77.4629L31.561 77.454L64.4822 65.4943C66.7397 64.6742 69.2116 64.6614 71.4776 65.458L105.064 77.2658L105.088 77.2743L105.114 77.2743L131.119 77.2076V80.147V80.1571L131.12 80.1671C131.236 81.0187 130.812 81.9313 129.849 82.2811L71.4629 103.492C69.2054 104.312 66.7335 104.325 64.4675 103.528L6.1152 83.0136C5.20962 82.6952 4.77293 81.8787 4.80822 81.0757L4.80837 81.0757V81.0691V77.5314L31.5102 77.463Z" stroke="black" stroke-width="0.3"/>
<path id="B_3" d="M64.4822 54.4246C66.7398 53.6045 69.2117 53.5917 71.4776 54.3883L129.83 74.9028C131.566 75.513 131.578 77.9631 129.849 78.5913L71.463 99.8019C69.2054 100.622 66.7335 100.635 64.4676 99.8382L6.11526 79.3237C4.37958 78.7135 4.36685 76.2634 6.09609 75.6352L64.4822 54.4246Z" fill="white" stroke="black" stroke-width="0.3"/>
</g>
<g id="&#231;&#189;&#145;&#230;&#160;&#188;">
<path id="A_5" d="M64.4756 60.4036C66.7371 59.5821 69.2133 59.5692 71.4832 60.3672L113.059 74.9836C114.811 75.5995 114.823 78.0724 113.078 78.7064L71.4688 93.8223C69.2073 94.6439 66.731 94.6567 64.4611 93.8587L22.8856 79.2423C21.1338 78.6264 21.1209 76.1536 22.8662 75.5195L64.4756 60.4036Z" fill="white" stroke="#B8A9A9" stroke-width="0.263565"/>
<g id="B_4">
<mask id="mask1_1510_10662" style="mask-type:alpha" maskUnits="userSpaceOnUse" x="21" y="59" width="94" height="36">
<path id="X_3" d="M64.4756 60.4036C66.7371 59.5821 69.2133 59.5692 71.4832 60.3672L113.059 74.9836C114.811 75.5995 114.823 78.0724 113.078 78.7064L71.4688 93.8223C69.2073 94.6439 66.731 94.6567 64.4611 93.8587L22.8856 79.2423C21.1338 78.6264 21.1209 76.1536 22.8662 75.5195L64.4756 60.4036Z" fill="white" stroke="#B8A9A9" stroke-width="0.263565"/>
</mask>
<g mask="url(#mask1_1510_10662)">
<path id="1_3" d="M24.1055 79.9302L75.0278 61.5098" stroke="#EBE9E9" stroke-width="0.263565" stroke-linecap="round"/>
<path id="2_2" d="M60.123 92.6421L111.045 74.2217" stroke="#EBE9E9" stroke-width="0.263565" stroke-linecap="round"/>
<path id="3" d="M22.0195 74.7412L74.7444 93.1107" stroke="#EBE9E9" stroke-width="0.263565" stroke-linecap="round"/>
<path id="4" d="M60.9121 60.8408L113.637 79.2103" stroke="#EBE9E9" stroke-width="0.263565" stroke-linecap="round"/>
</g>
</g>
<path id="Line_3" d="M64.4818 60.4207C66.7394 59.6006 69.2113 59.5878 71.4772 60.3844L113.053 75.0008C114.788 75.611 114.801 78.0611 113.072 78.6893L71.4626 93.8052C69.205 94.6253 66.7331 94.6381 64.4672 93.8415L22.8916 79.2251C21.1559 78.6149 21.1432 76.1648 22.8725 75.5366L64.4818 60.4207Z" stroke="#B8A9A9" stroke-width="0.3"/>
</g>
</g>
<g id="&#230;&#156;&#141;&#229;&#138;&#161;&#229;&#153;&#168;">
<g id="A_6">
<g id="&#230;&#156;&#172;&#228;&#189;&#147;">
<path id="B_5" d="M52.8038 55.715L52.8266 55.7149L52.848 55.7071L64.4756 51.4831C66.737 50.6615 69.2133 50.6486 71.4832 51.4466L83.0672 55.5192L83.0889 55.5268L83.1118 55.5266L114.383 55.3322V67.9333L114.376 68.0508C114.333 68.7811 113.902 69.4867 113.078 69.7858L71.4687 84.9017C69.2072 85.7233 66.731 85.7362 64.4611 84.9382L22.8855 70.3217C22.0513 70.0285 21.6121 69.3168 21.5681 68.5795L21.5645 68.5201L21.5645 68.4797L21.5645 68.4783C21.5644 68.4637 21.5644 68.4492 21.5645 68.4346H21.5645V68.4332V55.9093L52.8038 55.715Z" fill="white" stroke="black" stroke-width="0.263565"/>
<g id="&#233;&#152;&#180;&#229;&#189;&#177;_3">
<mask id="mask2_1510_10662" style="mask-type:alpha" maskUnits="userSpaceOnUse" x="21" y="50" width="94" height="36">
<path id="X_4" d="M52.8039 55.7333L52.8299 55.7331L52.8542 55.7242L64.4818 51.5002C66.7393 50.6801 69.2112 50.6672 71.4771 51.4638L83.0612 55.5363L83.0858 55.545L83.1119 55.5448L114.365 55.3505V67.9327L114.358 68.0497C114.315 68.7735 113.888 69.4723 113.072 69.7687L71.4625 84.8846C69.205 85.7047 66.7331 85.7176 64.4671 84.921L22.8916 70.3046C22.0649 70.0139 21.6299 69.3092 21.5863 68.5784L21.5827 68.5195L21.5827 68.4797L21.5827 68.4781C21.5826 68.4637 21.5826 68.4492 21.5827 68.4348H21.5827V68.4332V55.9274L52.8039 55.7333Z" fill="white" stroke="black" stroke-width="0.3"/>
</mask>
<g mask="url(#mask2_1510_10662)">
<path id="Vector" d="M68.5198 100.659C70.4035 100.659 72.2897 100.412 73.7112 99.8775L121.67 82.417C123.099 81.8979 123.813 81.2131 123.813 80.5259V54.3018L72.2947 73.0898C70.2082 73.8512 68.5 76.3035 68.5 78.5111L68.5198 100.659Z" fill="#EBE9E9"/>
<path id="Line_4" d="M52.8038 55.715L52.8266 55.7149L52.848 55.7071L64.4756 51.4831C66.737 50.6615 69.2133 50.6486 71.4832 51.4466L83.0672 55.5192L83.0889 55.5268L83.1118 55.5266L114.383 55.3322V67.9333L114.376 68.0508C114.333 68.7811 113.902 69.4867 113.078 69.7858L71.4687 84.9017C69.2072 85.7233 66.731 85.7362 64.4611 84.9382L22.8855 70.3217C22.0513 70.0285 21.6121 69.3168 21.5681 68.5795L21.5645 68.5201L21.5645 68.4797L21.5645 68.4783C21.5644 68.4637 21.5644 68.4492 21.5645 68.4346H21.5645V68.4332V55.9093L52.8038 55.715Z" stroke="black" stroke-width="0.263565"/>
</g>
</g>
<path id="A_7" d="M64.4818 38.8495C66.7394 38.0293 69.2113 38.0165 71.4772 38.8131L113.053 53.4295C114.788 54.0397 114.801 56.4898 113.072 57.118L71.4626 72.2339C69.205 73.054 66.7331 73.0669 64.4672 72.2702L22.8916 57.6538C21.1559 57.0436 21.1432 54.5936 22.8725 53.9654L64.4818 38.8495Z" fill="white" stroke="black" stroke-width="0.3"/>
</g>
<g id="&#230;&#149;&#163;&#231;&#131;&#173;">
<g id="1_4">
<mask id="mask3_1510_10662" style="mask-type:alpha" maskUnits="userSpaceOnUse" x="74" y="73" width="2" height="9">
<path id="X_5" d="M74.2822 74.3452C74.2822 74.1177 74.4283 73.9158 74.6444 73.8446L74.8618 73.7729C75.2028 73.6606 75.5539 73.9146 75.5539 74.2736V80.8405C75.5539 81.068 75.4079 81.2699 75.1917 81.3411L74.9743 81.4128C74.6333 81.5251 74.2822 81.2711 74.2822 80.9121V74.3452Z" fill="#B8A9A9"/>
</mask>
<g mask="url(#mask3_1510_10662)">
<path id="A_8" d="M74.2822 74.3452C74.2822 74.1177 74.4283 73.9158 74.6444 73.8446L74.8618 73.7729C75.2028 73.6606 75.5539 73.9146 75.5539 74.2736V80.8405C75.5539 81.068 75.4079 81.2699 75.1917 81.3411L74.9743 81.4128C74.6333 81.5251 74.2822 81.2711 74.2822 80.9121V74.3452Z" fill="#B8A9A9"/>
<path id="&#231;&#169;&#186;&#233;&#151;&#180;" d="M71.3682 81.0685L73.7904 81.9453L76.1754 81.0685L73.8661 80.2813L71.3682 81.0685Z" fill="#A38E8E"/>
</g>
</g>
<g id="2_3">
<mask id="mask4_1510_10662" style="mask-type:alpha" maskUnits="userSpaceOnUse" x="76" y="72" width="2" height="9">
<path id="X_6" d="M76.6221 73.5015C76.6221 73.2739 76.7681 73.072 76.9842 73.0008L77.2017 72.9292C77.5426 72.8168 77.8937 73.0708 77.8937 73.4299V79.9967C77.8937 80.2243 77.7477 80.4262 77.5316 80.4974L77.3142 80.569C76.9732 80.6814 76.6221 80.4274 76.6221 80.0684V73.5015Z" fill="#B8A9A9"/>
</mask>
<g mask="url(#mask4_1510_10662)">
<path id="A_9" d="M76.6221 73.5015C76.6221 73.2739 76.7681 73.072 76.9842 73.0008L77.2017 72.9292C77.5426 72.8168 77.8937 73.0708 77.8937 73.4299V79.9967C77.8937 80.2243 77.7477 80.4262 77.5316 80.4974L77.3142 80.569C76.9732 80.6814 76.6221 80.4274 76.6221 80.0684V73.5015Z" fill="#B8A9A9"/>
<path id="&#231;&#169;&#186;&#233;&#151;&#180;_2" d="M73.708 80.2247L76.1303 81.1015L78.5152 80.2247L76.206 79.4375L73.708 80.2247Z" fill="#A38E8E"/>
</g>
</g>
<g id="3_2">
<mask id="mask5_1510_10662" style="mask-type:alpha" maskUnits="userSpaceOnUse" x="78" y="72" width="3" height="8">
<path id="X_7" d="M78.9609 72.6333C78.9609 72.4058 79.107 72.2039 79.3231 72.1327L79.5405 72.061C79.8815 71.9487 80.2326 72.2027 80.2326 72.5617V79.1286C80.2326 79.3561 80.0866 79.558 79.8704 79.6292L79.653 79.7008C79.312 79.8132 78.9609 79.5592 78.9609 79.2002V72.6333Z" fill="#B8A9A9"/>
</mask>
<g mask="url(#mask5_1510_10662)">
<path id="A_10" d="M78.9609 72.6333C78.9609 72.4058 79.107 72.2039 79.3231 72.1327L79.5405 72.061C79.8815 71.9487 80.2326 72.2027 80.2326 72.5617V79.1286C80.2326 79.3561 80.0866 79.558 79.8704 79.6292L79.653 79.7008C79.312 79.8132 78.9609 79.5592 78.9609 79.2002V72.6333Z" fill="#B8A9A9"/>
<path id="&#231;&#169;&#186;&#233;&#151;&#180;_3" d="M76.0469 79.3566L78.4691 80.2334L80.8541 79.3566L78.5448 78.5694L76.0469 79.3566Z" fill="#A38E8E"/>
</g>
</g>
<g id="4_2">
<mask id="mask6_1510_10662" style="mask-type:alpha" maskUnits="userSpaceOnUse" x="81" y="71" width="2" height="8">
<path id="X_8" d="M81.3008 71.7896C81.3008 71.562 81.4468 71.3601 81.663 71.2889L81.8804 71.2173C82.2214 71.1049 82.5724 71.3589 82.5724 71.7179V78.2848C82.5724 78.5124 82.4264 78.7143 82.2103 78.7855L81.9929 78.8571C81.6519 78.9694 81.3008 78.7155 81.3008 78.3564V71.7896Z" fill="#B8A9A9"/>
</mask>
<g mask="url(#mask6_1510_10662)">
<path id="A_11" d="M81.3008 71.7896C81.3008 71.562 81.4468 71.3601 81.663 71.2889L81.8804 71.2173C82.2214 71.1049 82.5724 71.3589 82.5724 71.7179V78.2848C82.5724 78.5124 82.4264 78.7143 82.2103 78.7855L81.9929 78.8571C81.6519 78.9694 81.3008 78.7155 81.3008 78.3564V71.7896Z" fill="#B8A9A9"/>
<path id="&#231;&#169;&#186;&#233;&#151;&#180;_4" d="M78.3867 78.5128L80.809 79.3896L83.1939 78.5128L80.8847 77.7256L78.3867 78.5128Z" fill="#A38E8E"/>
</g>
</g>
<g id="5">
<mask id="mask7_1510_10662" style="mask-type:alpha" maskUnits="userSpaceOnUse" x="83" y="70" width="2" height="9">
<path id="X_9" d="M83.6396 70.94C83.6396 70.7124 83.7857 70.5105 84.0018 70.4393L84.2192 70.3677C84.5602 70.2553 84.9113 70.5093 84.9113 70.8683V77.4352C84.9113 77.6628 84.7653 77.8646 84.5491 77.9359L84.3317 78.0075C83.9907 78.1198 83.6396 77.8659 83.6396 77.5068V70.94Z" fill="#B8A9A9"/>
</mask>
<g mask="url(#mask7_1510_10662)">
<path id="A_12" d="M83.6396 70.94C83.6396 70.7124 83.7857 70.5105 84.0018 70.4393L84.2192 70.3677C84.5602 70.2553 84.9113 70.5093 84.9113 70.8683V77.4352C84.9113 77.6628 84.7653 77.8646 84.5491 77.9359L84.3317 78.0075C83.9907 78.1198 83.6396 77.8659 83.6396 77.5068V70.94Z" fill="#B8A9A9"/>
<path id="&#231;&#169;&#186;&#233;&#151;&#180;_5" d="M80.7256 77.6632L83.1479 78.54L85.5328 77.6632L83.2236 76.876L80.7256 77.6632Z" fill="#A38E8E"/>
</g>
</g>
<g id="6">
<mask id="mask8_1510_10662" style="mask-type:alpha" maskUnits="userSpaceOnUse" x="85" y="69" width="3" height="9">
<path id="X_10" d="M85.9795 70.0962C85.9795 69.8686 86.1255 69.6668 86.3417 69.5956L86.5591 69.5239C86.9001 69.4116 87.2512 69.6656 87.2512 70.0246V76.5915C87.2512 76.819 87.1051 77.0209 86.889 77.0921L86.6716 77.1637C86.3306 77.2761 85.9795 77.0221 85.9795 76.6631V70.0962Z" fill="#B8A9A9"/>
</mask>
<g mask="url(#mask8_1510_10662)">
<path id="A_13" d="M85.9795 70.0962C85.9795 69.8686 86.1255 69.6668 86.3417 69.5956L86.5591 69.5239C86.9001 69.4116 87.2512 69.6656 87.2512 70.0246V76.5915C87.2512 76.819 87.1051 77.0209 86.889 77.0921L86.6716 77.1637C86.3306 77.2761 85.9795 77.0221 85.9795 76.6631V70.0962Z" fill="#B8A9A9"/>
<path id="&#231;&#169;&#186;&#233;&#151;&#180;_6" d="M83.0654 76.8195L85.4877 77.6963L87.8727 76.8195L85.5634 76.0323L83.0654 76.8195Z" fill="#A38E8E"/>
</g>
</g>
<g id="7">
<mask id="mask9_1510_10662" style="mask-type:alpha" maskUnits="userSpaceOnUse" x="88" y="68" width="2" height="9">
<path id="X_11" d="M88.3193 69.228C88.3193 69.0005 88.4654 68.7986 88.6815 68.7274L88.8989 68.6558C89.2399 68.5434 89.591 68.7974 89.591 69.1564V75.7233C89.591 75.9509 89.445 76.1527 89.2288 76.2239L89.0114 76.2956C88.6704 76.4079 88.3193 76.1539 88.3193 75.7949V69.228Z" fill="#B8A9A9"/>
</mask>
<g mask="url(#mask9_1510_10662)">
<path id="A_14" d="M88.3193 69.228C88.3193 69.0005 88.4654 68.7986 88.6815 68.7274L88.8989 68.6558C89.2399 68.5434 89.591 68.7974 89.591 69.1564V75.7233C89.591 75.9509 89.445 76.1527 89.2288 76.2239L89.0114 76.2956C88.6704 76.4079 88.3193 76.1539 88.3193 75.7949V69.228Z" fill="#B8A9A9"/>
<path id="&#231;&#169;&#186;&#233;&#151;&#180;_7" d="M85.4053 75.9513L87.8275 76.8281L90.2125 75.9513L87.9032 75.1641L85.4053 75.9513Z" fill="#A38E8E"/>
</g>
</g>
<g id="8">
<mask id="mask10_1510_10662" style="mask-type:alpha" maskUnits="userSpaceOnUse" x="90" y="67" width="2" height="9">
<path id="X_12" d="M90.6582 68.3843C90.6582 68.1567 90.8042 67.9549 91.0204 67.8836L91.2378 67.812C91.5788 67.6997 91.9299 67.9536 91.9299 68.3127V74.8795C91.9299 75.1071 91.7838 75.309 91.5677 75.3802L91.3503 75.4518C91.0093 75.5642 90.6582 75.3102 90.6582 74.9512V68.3843Z" fill="#B8A9A9"/>
</mask>
<g mask="url(#mask10_1510_10662)">
<path id="A_15" d="M90.6582 68.3843C90.6582 68.1567 90.8042 67.9549 91.0204 67.8836L91.2378 67.812C91.5788 67.6997 91.9299 67.9536 91.9299 68.3127V74.8795C91.9299 75.1071 91.7838 75.309 91.5677 75.3802L91.3503 75.4518C91.0093 75.5642 90.6582 75.3102 90.6582 74.9512V68.3843Z" fill="#B8A9A9"/>
<path id="&#231;&#169;&#186;&#233;&#151;&#180;_8" d="M87.7441 75.1075L90.1664 75.9843L92.5514 75.1075L90.2421 74.3203L87.7441 75.1075Z" fill="#A38E8E"/>
</g>
</g>
<g id="9">
<mask id="mask11_1510_10662" style="mask-type:alpha" maskUnits="userSpaceOnUse" x="92" y="66" width="3" height="9">
<path id="X_13" d="M92.998 67.5103C92.998 67.2827 93.1441 67.0808 93.3602 67.0096L93.5776 66.938C93.9186 66.8256 94.2697 67.0796 94.2697 67.4386V74.0055C94.2697 74.2331 94.1237 74.435 93.9075 74.5062L93.6901 74.5778C93.3491 74.6902 92.998 74.4362 92.998 74.0771V67.5103Z" fill="#B8A9A9"/>
</mask>
<g mask="url(#mask11_1510_10662)">
<path id="A_16" d="M92.998 67.5103C92.998 67.2827 93.1441 67.0808 93.3602 67.0096L93.5776 66.938C93.9186 66.8256 94.2697 67.0796 94.2697 67.4386V74.0055C94.2697 74.2331 94.1237 74.435 93.9075 74.5062L93.6901 74.5778C93.3491 74.6902 92.998 74.4362 92.998 74.0771V67.5103Z" fill="#B8A9A9"/>
<path id="&#231;&#169;&#186;&#233;&#151;&#180;_9" d="M90.084 74.2335L92.5063 75.1103L94.8912 74.2335L92.582 73.4463L90.084 74.2335Z" fill="#A38E8E"/>
</g>
</g>
<g id="10">
<mask id="mask12_1510_10662" style="mask-type:alpha" maskUnits="userSpaceOnUse" x="95" y="66" width="2" height="8">
<path id="X_14" d="M95.3369 66.6665C95.3369 66.439 95.483 66.2371 95.6991 66.1659L95.9165 66.0942C96.2575 65.9819 96.6086 66.2359 96.6086 66.5949V73.1618C96.6086 73.3893 96.4625 73.5912 96.2464 73.6624L96.029 73.7341C95.688 73.8464 95.3369 73.5924 95.3369 73.2334V66.6665Z" fill="#B8A9A9"/>
</mask>
<g mask="url(#mask12_1510_10662)">
<path id="A_17" d="M95.3369 66.6665C95.3369 66.439 95.483 66.2371 95.6991 66.1659L95.9165 66.0942C96.2575 65.9819 96.6086 66.2359 96.6086 66.5949V73.1618C96.6086 73.3893 96.4625 73.5912 96.2464 73.6624L96.029 73.7341C95.688 73.8464 95.3369 73.5924 95.3369 73.2334V66.6665Z" fill="#B8A9A9"/>
<path id="&#231;&#169;&#186;&#233;&#151;&#180;_10" d="M92.4229 73.3898L94.8451 74.2666L97.2301 73.3898L94.9208 72.6026L92.4229 73.3898Z" fill="#A38E8E"/>
</g>
</g>
<g id="11">
<mask id="mask13_1510_10662" style="mask-type:alpha" maskUnits="userSpaceOnUse" x="97" y="65" width="2" height="8">
<path id="X_15" d="M97.6768 65.7984C97.6768 65.5708 97.8228 65.3689 98.0389 65.2977L98.2563 65.2261C98.5973 65.1137 98.9484 65.3677 98.9484 65.7267V72.2936C98.9484 72.5212 98.8024 72.723 98.5863 72.7943L98.3688 72.8659C98.0278 72.9782 97.6768 72.7243 97.6768 72.3652V65.7984Z" fill="#B8A9A9"/>
</mask>
<g mask="url(#mask13_1510_10662)">
<path id="A_18" d="M97.6768 65.7984C97.6768 65.5708 97.8228 65.3689 98.0389 65.2977L98.2563 65.2261C98.5973 65.1137 98.9484 65.3677 98.9484 65.7267V72.2936C98.9484 72.5212 98.8024 72.723 98.5863 72.7943L98.3688 72.8659C98.0278 72.9782 97.6768 72.7243 97.6768 72.3652V65.7984Z" fill="#B8A9A9"/>
<path id="&#231;&#169;&#186;&#233;&#151;&#180;_11" d="M94.7627 72.5216L97.185 73.3984L99.5699 72.5216L97.2607 71.7344L94.7627 72.5216Z" fill="#A38E8E"/>
</g>
</g>
<g id="12">
<mask id="mask14_1510_10662" style="mask-type:alpha" maskUnits="userSpaceOnUse" x="100" y="64" width="2" height="9">
<path id="X_16" d="M100.017 64.9546C100.017 64.727 100.163 64.5252 100.379 64.454L100.596 64.3823C100.937 64.27 101.288 64.524 101.288 64.883V71.4499C101.288 71.6774 101.142 71.8793 100.926 71.9505L100.709 72.0221C100.368 72.1345 100.017 71.8805 100.017 71.5215V64.9546Z" fill="#B8A9A9"/>
</mask>
<g mask="url(#mask14_1510_10662)">
<path id="A_19" d="M100.017 64.9546C100.017 64.727 100.163 64.5252 100.379 64.454L100.596 64.3823C100.937 64.27 101.288 64.524 101.288 64.883V71.4499C101.288 71.6774 101.142 71.8793 100.926 71.9505L100.709 72.0221C100.368 72.1345 100.017 71.8805 100.017 71.5215V64.9546Z" fill="#B8A9A9"/>
<path id="&#231;&#169;&#186;&#233;&#151;&#180;_12" d="M97.1025 71.6779L99.5248 72.5547L101.91 71.6779L99.6005 70.8907L97.1025 71.6779Z" fill="#A38E8E"/>
</g>
</g>
<g id="13">
<mask id="mask15_1510_10662" style="mask-type:alpha" maskUnits="userSpaceOnUse" x="102" y="63" width="2" height="9">
<path id="X_17" d="M102.355 64.105C102.355 63.8774 102.502 63.6756 102.718 63.6043L102.935 63.5327C103.276 63.4204 103.627 63.6743 103.627 64.0334V70.6002C103.627 70.8278 103.481 71.0297 103.265 71.1009L103.048 71.1725C102.707 71.2849 102.355 71.0309 102.355 70.6719V64.105Z" fill="#B8A9A9"/>
</mask>
<g mask="url(#mask15_1510_10662)">
<path id="A_20" d="M102.355 64.105C102.355 63.8774 102.502 63.6756 102.718 63.6043L102.935 63.5327C103.276 63.4204 103.627 63.6743 103.627 64.0334V70.6002C103.627 70.8278 103.481 71.0297 103.265 71.1009L103.048 71.1725C102.707 71.2849 102.355 71.0309 102.355 70.6719V64.105Z" fill="#B8A9A9"/>
<path id="&#231;&#169;&#186;&#233;&#151;&#180;_13" d="M99.4414 70.8282L101.864 71.705L104.249 70.8282L101.939 70.041L99.4414 70.8282Z" fill="#A38E8E"/>
</g>
</g>
<g id="14">
<mask id="mask16_1510_10662" style="mask-type:alpha" maskUnits="userSpaceOnUse" x="104" y="62" width="2" height="9">
<path id="X_18" d="M104.695 63.2612C104.695 63.0337 104.841 62.8318 105.057 62.7606L105.275 62.689C105.616 62.5766 105.967 62.8306 105.967 63.1896V69.7565C105.967 69.9841 105.821 70.1859 105.605 70.2571L105.387 70.3288C105.046 70.4411 104.695 70.1872 104.695 69.8281V63.2612Z" fill="#B8A9A9"/>
</mask>
<g mask="url(#mask16_1510_10662)">
<path id="A_21" d="M104.695 63.2612C104.695 63.0337 104.841 62.8318 105.057 62.7606L105.275 62.689C105.616 62.5766 105.967 62.8306 105.967 63.1896V69.7565C105.967 69.9841 105.821 70.1859 105.605 70.2571L105.387 70.3288C105.046 70.4411 104.695 70.1872 104.695 69.8281V63.2612Z" fill="#B8A9A9"/>
<path id="&#231;&#169;&#186;&#233;&#151;&#180;_14" d="M101.781 69.9845L104.204 70.8613L106.588 69.9845L104.279 69.1973L101.781 69.9845Z" fill="#A38E8E"/>
</g>
</g>
<g id="15">
<mask id="mask17_1510_10662" style="mask-type:alpha" maskUnits="userSpaceOnUse" x="107" y="61" width="2" height="9">
<path id="X_19" d="M107.034 62.3931C107.034 62.1655 107.18 61.9636 107.396 61.8924L107.614 61.8208C107.955 61.7084 108.306 61.9624 108.306 62.3215V68.8883C108.306 69.1159 108.16 69.3178 107.944 69.389L107.726 69.4606C107.385 69.573 107.034 69.319 107.034 68.96V62.3931Z" fill="#B8A9A9"/>
</mask>
<g mask="url(#mask17_1510_10662)">
<path id="A_22" d="M107.034 62.3931C107.034 62.1655 107.18 61.9636 107.396 61.8924L107.614 61.8208C107.955 61.7084 108.306 61.9624 108.306 62.3215V68.8883C108.306 69.1159 108.16 69.3178 107.944 69.389L107.726 69.4606C107.385 69.573 107.034 69.319 107.034 68.96V62.3931Z" fill="#B8A9A9"/>
<path id="&#231;&#169;&#186;&#233;&#151;&#180;_15" d="M104.12 69.1163L106.542 69.9931L108.927 69.1163L106.618 68.3291L104.12 69.1163Z" fill="#A38E8E"/>
</g>
</g>
<g id="16">
<mask id="mask18_1510_10662" style="mask-type:alpha" maskUnits="userSpaceOnUse" x="109" y="60" width="2" height="9">
<path id="X_20" d="M109.374 61.5493C109.374 61.3218 109.52 61.1199 109.736 61.0487L109.954 60.977C110.295 60.8647 110.646 61.1187 110.646 61.4777V68.0446C110.646 68.2721 110.5 68.474 110.284 68.5452L110.066 68.6169C109.725 68.7292 109.374 68.4752 109.374 68.1162V61.5493Z" fill="#B8A9A9"/>
</mask>
<g mask="url(#mask18_1510_10662)">
<path id="A_23" d="M109.374 61.5493C109.374 61.3218 109.52 61.1199 109.736 61.0487L109.954 60.977C110.295 60.8647 110.646 61.1187 110.646 61.4777V68.0446C110.646 68.2721 110.5 68.474 110.284 68.5452L110.066 68.6169C109.725 68.7292 109.374 68.4752 109.374 68.1162V61.5493Z" fill="#B8A9A9"/>
<path id="&#231;&#169;&#186;&#233;&#151;&#180;_16" d="M106.46 68.2726L108.882 69.1494L111.267 68.2726L108.958 67.4854L106.46 68.2726Z" fill="#A38E8E"/>
</g>
</g>
</g>
<g id="&#230;&#152;&#190;&#231;&#164;&#186;&#233;&#157;&#162;&#230;&#157;&#191;">
<mask id="mask19_1510_10662" style="mask-type:alpha" maskUnits="userSpaceOnUse" x="31" y="65" width="26" height="14">
<path id="X_21" d="M31.7744 66.1829C31.7744 65.8199 32.1327 65.5656 32.4754 65.6853L55.8547 73.8512C56.0663 73.9251 56.208 74.1247 56.208 74.3488V77.4819C56.208 77.8449 55.8497 78.0993 55.5071 77.9796L32.1277 69.8137C31.9161 69.7398 31.7744 69.5401 31.7744 69.316V66.1829Z" fill="black"/>
</mask>
<g mask="url(#mask19_1510_10662)">
<path id="A_24" d="M31.7744 66.1829C31.7744 65.8199 32.1327 65.5656 32.4754 65.6853L55.8547 73.8512C56.0663 73.9251 56.208 74.1247 56.208 74.3488V77.4819C56.208 77.8449 55.8497 78.0993 55.5071 77.9796L32.1277 69.8137C31.9161 69.7398 31.7744 69.5401 31.7744 69.316V66.1829Z" fill="black"/>
<g id="&#230;&#152;&#190;&#231;&#164;&#186;&#231;&#129;&#175;">
<path id="&#231;&#130;&#185;_2" d="M33.502 67.6807L33.6259 67.7148" stroke="#FBD166" stroke-width="1.05426" stroke-linecap="round"/>
<path id="&#231;&#130;&#185;_3" d="M54.2988 74.8311L54.4228 74.8652" stroke="#FBD166" stroke-width="1.05426" stroke-linecap="round"/>
<path id="&#231;&#159;&#162;&#233;&#135;&#143;" d="M35.4854 68.3203L37.5116 69.0022" stroke="#66DD8C" stroke-width="1.05426" stroke-linecap="round"/>
<path id="&#231;&#159;&#162;&#233;&#135;&#143;_2" d="M39.4668 69.7041L45.6155 71.8031" stroke="#FBD166" stroke-width="1.05426" stroke-linecap="round"/>
</g>
</g>
</g>
</g>
<g id="B_6">
<g id="&#230;&#156;&#172;&#228;&#189;&#147;_2">
<path id="B_7" d="M52.8038 39.9006L52.8266 39.9004L52.848 39.8927L64.4756 35.6686C66.737 34.847 69.2133 34.8342 71.4832 35.6322L83.0672 39.7047L83.0889 39.7123L83.1118 39.7122L114.383 39.5178V52.1188L114.376 52.2363C114.333 52.9667 113.902 53.6723 113.078 53.9714L71.4687 69.0873C69.2072 69.9089 66.731 69.9217 64.4611 69.1237L22.8855 54.5073C22.0513 54.214 21.6121 53.5024 21.5681 52.765L21.5645 52.7056L21.5645 52.6652L21.5645 52.6638C21.5644 52.6493 21.5644 52.6347 21.5645 52.6202H21.5645V52.6188V40.0948L52.8038 39.9006Z" fill="white" stroke="black" stroke-width="0.263565"/>
<g id="&#233;&#152;&#180;&#229;&#189;&#177;_4">
<mask id="mask20_1510_10662" style="mask-type:alpha" maskUnits="userSpaceOnUse" x="21" y="34" width="94" height="36">
<path id="X_22" d="M52.8039 39.9188L52.8299 39.9186L52.8542 39.9098L64.4818 35.6857C66.7393 34.8656 69.2112 34.8528 71.4771 35.6494L83.0612 39.7219L83.0858 39.7305L83.1119 39.7304L114.365 39.5361V52.1183L114.358 52.2352C114.315 52.9591 113.888 53.6578 113.072 53.9543L71.4625 69.0702C69.205 69.8903 66.7331 69.9031 64.4671 69.1065L22.8916 54.4901C22.0649 54.1995 21.6299 53.4947 21.5863 52.764L21.5827 52.7051L21.5827 52.6652L21.5827 52.6636C21.5826 52.6492 21.5826 52.6348 21.5827 52.6204H21.5827V52.6188V40.1129L52.8039 39.9188Z" fill="white" stroke="black" stroke-width="0.3"/>
</mask>
<g mask="url(#mask20_1510_10662)">
<path id="Vector_2" d="M68.5198 84.8443C70.4035 84.8443 72.2897 84.5971 73.7112 84.0631L121.67 66.6026C123.099 66.0834 123.813 65.3987 123.813 64.7114V38.4873L72.2947 57.2753C70.2082 58.0367 68.5 60.4891 68.5 62.6967L68.5198 84.8443Z" fill="#EBE9E9"/>
<path id="Line_5" d="M52.8038 39.9006L52.8266 39.9004L52.848 39.8927L64.4756 35.6686C66.737 34.847 69.2133 34.8342 71.4832 35.6322L83.0672 39.7047L83.0889 39.7123L83.1118 39.7122L114.383 39.5178V52.1188L114.376 52.2363C114.333 52.9667 113.902 53.6723 113.078 53.9714L71.4687 69.0873C69.2072 69.9089 66.731 69.9217 64.4611 69.1237L22.8855 54.5073C22.0513 54.214 21.6121 53.5024 21.5681 52.765L21.5645 52.7056L21.5645 52.6652L21.5645 52.6638C21.5644 52.6493 21.5644 52.6347 21.5645 52.6202H21.5645V52.6188V40.0948L52.8038 39.9006Z" stroke="black" stroke-width="0.263565"/>
</g>
</g>
<path id="A_25" d="M64.4818 23.035C66.7394 22.2149 69.2113 22.202 71.4772 22.9987L113.053 37.6151C114.788 38.2253 114.801 40.6753 113.072 41.3035L71.4626 56.4194C69.205 57.2396 66.7331 57.2524 64.4672 56.4558L22.8916 41.8394C21.1559 41.2292 21.1432 38.7791 22.8725 38.1509L64.4818 23.035Z" fill="white" stroke="black" stroke-width="0.3"/>
</g>
<g id="&#230;&#149;&#163;&#231;&#131;&#173;_2">
<g id="1_5">
<mask id="mask21_1510_10662" style="mask-type:alpha" maskUnits="userSpaceOnUse" x="74" y="57" width="2" height="9">
<path id="X_23" d="M74.2822 58.5308C74.2822 58.3032 74.4283 58.1013 74.6444 58.0301L74.8618 57.9585C75.2028 57.8461 75.5539 58.1001 75.5539 58.4591V65.026C75.5539 65.2536 75.4079 65.4555 75.1917 65.5267L74.9743 65.5983C74.6333 65.7107 74.2822 65.4567 74.2822 65.0977V58.5308Z" fill="#B8A9A9"/>
</mask>
<g mask="url(#mask21_1510_10662)">
<path id="A_26" d="M74.2822 58.5308C74.2822 58.3032 74.4283 58.1013 74.6444 58.0301L74.8618 57.9585C75.2028 57.8461 75.5539 58.1001 75.5539 58.4591V65.026C75.5539 65.2536 75.4079 65.4555 75.1917 65.5267L74.9743 65.5983C74.6333 65.7107 74.2822 65.4567 74.2822 65.0977V58.5308Z" fill="#B8A9A9"/>
<path id="&#231;&#169;&#186;&#233;&#151;&#180;_17" d="M71.3682 65.254L73.7904 66.1308L76.1754 65.254L73.8661 64.4668L71.3682 65.254Z" fill="#A38E8E"/>
</g>
</g>
<g id="2_4">
<mask id="mask22_1510_10662" style="mask-type:alpha" maskUnits="userSpaceOnUse" x="76" y="57" width="2" height="8">
<path id="X_24" d="M76.6221 57.687C76.6221 57.4595 76.7681 57.2576 76.9842 57.1864L77.2017 57.1147C77.5426 57.0024 77.8937 57.2564 77.8937 57.6154V64.1823C77.8937 64.4098 77.7477 64.6117 77.5316 64.6829L77.3142 64.7546C76.9732 64.8669 76.6221 64.6129 76.6221 64.2539V57.687Z" fill="#B8A9A9"/>
</mask>
<g mask="url(#mask22_1510_10662)">
<path id="A_27" d="M76.6221 57.687C76.6221 57.4595 76.7681 57.2576 76.9842 57.1864L77.2017 57.1147C77.5426 57.0024 77.8937 57.2564 77.8937 57.6154V64.1823C77.8937 64.4098 77.7477 64.6117 77.5316 64.6829L77.3142 64.7546C76.9732 64.8669 76.6221 64.6129 76.6221 64.2539V57.687Z" fill="#B8A9A9"/>
<path id="&#231;&#169;&#186;&#233;&#151;&#180;_18" d="M73.708 64.4103L76.1303 65.2871L78.5152 64.4103L76.206 63.6231L73.708 64.4103Z" fill="#A38E8E"/>
</g>
</g>
<g id="3_3">
<mask id="mask23_1510_10662" style="mask-type:alpha" maskUnits="userSpaceOnUse" x="78" y="56" width="3" height="8">
<path id="X_25" d="M78.9609 56.8189C78.9609 56.5913 79.107 56.3894 79.3231 56.3182L79.5405 56.2466C79.8815 56.1342 80.2326 56.3882 80.2326 56.7472V63.3141C80.2326 63.5417 80.0866 63.7436 79.8704 63.8148L79.653 63.8864C79.312 63.9987 78.9609 63.7448 78.9609 63.3857V56.8189Z" fill="#B8A9A9"/>
</mask>
<g mask="url(#mask23_1510_10662)">
<path id="A_28" d="M78.9609 56.8189C78.9609 56.5913 79.107 56.3894 79.3231 56.3182L79.5405 56.2466C79.8815 56.1342 80.2326 56.3882 80.2326 56.7472V63.3141C80.2326 63.5417 80.0866 63.7436 79.8704 63.8148L79.653 63.8864C79.312 63.9987 78.9609 63.7448 78.9609 63.3857V56.8189Z" fill="#B8A9A9"/>
<path id="&#231;&#169;&#186;&#233;&#151;&#180;_19" d="M76.0469 63.5421L78.4691 64.4189L80.8541 63.5421L78.5448 62.7549L76.0469 63.5421Z" fill="#A38E8E"/>
</g>
</g>
<g id="4_3">
<mask id="mask24_1510_10662" style="mask-type:alpha" maskUnits="userSpaceOnUse" x="81" y="55" width="2" height="9">
<path id="X_26" d="M81.3008 55.9751C81.3008 55.7476 81.4468 55.5457 81.663 55.4745L81.8804 55.4028C82.2214 55.2905 82.5724 55.5445 82.5724 55.9035V62.4704C82.5724 62.6979 82.4264 62.8998 82.2103 62.971L81.9929 63.0426C81.6519 63.155 81.3008 62.901 81.3008 62.542V55.9751Z" fill="#B8A9A9"/>
</mask>
<g mask="url(#mask24_1510_10662)">
<path id="A_29" d="M81.3008 55.9751C81.3008 55.7476 81.4468 55.5457 81.663 55.4745L81.8804 55.4028C82.2214 55.2905 82.5724 55.5445 82.5724 55.9035V62.4704C82.5724 62.6979 82.4264 62.8998 82.2103 62.971L81.9929 63.0426C81.6519 63.155 81.3008 62.901 81.3008 62.542V55.9751Z" fill="#B8A9A9"/>
<path id="&#231;&#169;&#186;&#233;&#151;&#180;_20" d="M78.3867 62.6984L80.809 63.5752L83.1939 62.6984L80.8847 61.9112L78.3867 62.6984Z" fill="#A38E8E"/>
</g>
</g>
<g id="5_2">
<mask id="mask25_1510_10662" style="mask-type:alpha" maskUnits="userSpaceOnUse" x="83" y="54" width="2" height="9">
<path id="X_27" d="M83.6396 55.1255C83.6396 54.8979 83.7857 54.6961 84.0018 54.6249L84.2192 54.5532C84.5602 54.4409 84.9113 54.6949 84.9113 55.0539V61.6207C84.9113 61.8483 84.7653 62.0502 84.5491 62.1214L84.3317 62.193C83.9907 62.3054 83.6396 62.0514 83.6396 61.6924V55.1255Z" fill="#B8A9A9"/>
</mask>
<g mask="url(#mask25_1510_10662)">
<path id="A_30" d="M83.6396 55.1255C83.6396 54.8979 83.7857 54.6961 84.0018 54.6249L84.2192 54.5532C84.5602 54.4409 84.9113 54.6949 84.9113 55.0539V61.6207C84.9113 61.8483 84.7653 62.0502 84.5491 62.1214L84.3317 62.193C83.9907 62.3054 83.6396 62.0514 83.6396 61.6924V55.1255Z" fill="#B8A9A9"/>
<path id="&#231;&#169;&#186;&#233;&#151;&#180;_21" d="M80.7256 61.8488L83.1479 62.7256L85.5328 61.8488L83.2236 61.0616L80.7256 61.8488Z" fill="#A38E8E"/>
</g>
</g>
<g id="6_2">
<mask id="mask26_1510_10662" style="mask-type:alpha" maskUnits="userSpaceOnUse" x="85" y="53" width="3" height="9">
<path id="X_28" d="M85.9795 54.2818C85.9795 54.0542 86.1255 53.8523 86.3417 53.7811L86.5591 53.7095C86.9001 53.5971 87.2512 53.8511 87.2512 54.2101V60.777C87.2512 61.0046 87.1051 61.2064 86.889 61.2777L86.6716 61.3493C86.3306 61.4616 85.9795 61.2077 85.9795 60.8486V54.2818Z" fill="#B8A9A9"/>
</mask>
<g mask="url(#mask26_1510_10662)">
<path id="A_31" d="M85.9795 54.2818C85.9795 54.0542 86.1255 53.8523 86.3417 53.7811L86.5591 53.7095C86.9001 53.5971 87.2512 53.8511 87.2512 54.2101V60.777C87.2512 61.0046 87.1051 61.2064 86.889 61.2777L86.6716 61.3493C86.3306 61.4616 85.9795 61.2077 85.9795 60.8486V54.2818Z" fill="#B8A9A9"/>
<path id="&#231;&#169;&#186;&#233;&#151;&#180;_22" d="M83.0654 61.005L85.4877 61.8818L87.8727 61.005L85.5634 60.2178L83.0654 61.005Z" fill="#A38E8E"/>
</g>
</g>
<g id="7_2">
<mask id="mask27_1510_10662" style="mask-type:alpha" maskUnits="userSpaceOnUse" x="88" y="52" width="2" height="9">
<path id="X_29" d="M88.3193 53.4136C88.3193 53.186 88.4654 52.9842 88.6815 52.9129L88.8989 52.8413C89.2399 52.729 89.591 52.9829 89.591 53.342V59.9088C89.591 60.1364 89.445 60.3383 89.2288 60.4095L89.0114 60.4811C88.6704 60.5935 88.3193 60.3395 88.3193 59.9805V53.4136Z" fill="#B8A9A9"/>
</mask>
<g mask="url(#mask27_1510_10662)">
<path id="A_32" d="M88.3193 53.4136C88.3193 53.186 88.4654 52.9842 88.6815 52.9129L88.8989 52.8413C89.2399 52.729 89.591 52.9829 89.591 53.342V59.9088C89.591 60.1364 89.445 60.3383 89.2288 60.4095L89.0114 60.4811C88.6704 60.5935 88.3193 60.3395 88.3193 59.9805V53.4136Z" fill="#B8A9A9"/>
<path id="&#231;&#169;&#186;&#233;&#151;&#180;_23" d="M85.4053 60.1368L87.8275 61.0136L90.2125 60.1368L87.9032 59.3496L85.4053 60.1368Z" fill="#A38E8E"/>
</g>
</g>
<g id="8_2">
<mask id="mask28_1510_10662" style="mask-type:alpha" maskUnits="userSpaceOnUse" x="90" y="51" width="2" height="9">
<path id="X_30" d="M90.6582 52.5698C90.6582 52.3423 90.8042 52.1404 91.0204 52.0692L91.2378 51.9976C91.5788 51.8852 91.9299 52.1392 91.9299 52.4982V59.0651C91.9299 59.2927 91.7838 59.4945 91.5677 59.5657L91.3503 59.6374C91.0093 59.7497 90.6582 59.4957 90.6582 59.1367V52.5698Z" fill="#B8A9A9"/>
</mask>
<g mask="url(#mask28_1510_10662)">
<path id="A_33" d="M90.6582 52.5698C90.6582 52.3423 90.8042 52.1404 91.0204 52.0692L91.2378 51.9976C91.5788 51.8852 91.9299 52.1392 91.9299 52.4982V59.0651C91.9299 59.2927 91.7838 59.4945 91.5677 59.5657L91.3503 59.6374C91.0093 59.7497 90.6582 59.4957 90.6582 59.1367V52.5698Z" fill="#B8A9A9"/>
<path id="&#231;&#169;&#186;&#233;&#151;&#180;_24" d="M87.7441 59.2931L90.1664 60.1699L92.5514 59.2931L90.2421 58.5059L87.7441 59.2931Z" fill="#A38E8E"/>
</g>
</g>
<g id="9_2">
<mask id="mask29_1510_10662" style="mask-type:alpha" maskUnits="userSpaceOnUse" x="92" y="51" width="3" height="8">
<path id="X_31" d="M92.998 51.6958C92.998 51.4683 93.1441 51.2664 93.3602 51.1952L93.5776 51.1235C93.9186 51.0112 94.2697 51.2652 94.2697 51.6242V58.1911C94.2697 58.4186 94.1237 58.6205 93.9075 58.6917L93.6901 58.7633C93.3491 58.8757 92.998 58.6217 92.998 58.2627V51.6958Z" fill="#B8A9A9"/>
</mask>
<g mask="url(#mask29_1510_10662)">
<path id="A_34" d="M92.998 51.6958C92.998 51.4683 93.1441 51.2664 93.3602 51.1952L93.5776 51.1235C93.9186 51.0112 94.2697 51.2652 94.2697 51.6242V58.1911C94.2697 58.4186 94.1237 58.6205 93.9075 58.6917L93.6901 58.7633C93.3491 58.8757 92.998 58.6217 92.998 58.2627V51.6958Z" fill="#B8A9A9"/>
<path id="&#231;&#169;&#186;&#233;&#151;&#180;_25" d="M90.084 58.4191L92.5063 59.2959L94.8912 58.4191L92.582 57.6319L90.084 58.4191Z" fill="#A38E8E"/>
</g>
</g>
<g id="10_2">
<mask id="mask30_1510_10662" style="mask-type:alpha" maskUnits="userSpaceOnUse" x="95" y="50" width="2" height="8">
<path id="X_32" d="M95.3369 50.8521C95.3369 50.6245 95.483 50.4226 95.6991 50.3514L95.9165 50.2798C96.2575 50.1674 96.6086 50.4214 96.6086 50.7804V57.3473C96.6086 57.5749 96.4625 57.7768 96.2464 57.848L96.029 57.9196C95.688 58.0319 95.3369 57.778 95.3369 57.4189V50.8521Z" fill="#B8A9A9"/>
</mask>
<g mask="url(#mask30_1510_10662)">
<path id="A_35" d="M95.3369 50.8521C95.3369 50.6245 95.483 50.4226 95.6991 50.3514L95.9165 50.2798C96.2575 50.1674 96.6086 50.4214 96.6086 50.7804V57.3473C96.6086 57.5749 96.4625 57.7768 96.2464 57.848L96.029 57.9196C95.688 58.0319 95.3369 57.778 95.3369 57.4189V50.8521Z" fill="#B8A9A9"/>
<path id="&#231;&#169;&#186;&#233;&#151;&#180;_26" d="M92.4229 57.5753L94.8451 58.4521L97.2301 57.5753L94.9208 56.7881L92.4229 57.5753Z" fill="#A38E8E"/>
</g>
</g>
<g id="11_2">
<mask id="mask31_1510_10662" style="mask-type:alpha" maskUnits="userSpaceOnUse" x="97" y="49" width="2" height="9">
<path id="X_33" d="M97.6768 49.9839C97.6768 49.7563 97.8228 49.5545 98.0389 49.4833L98.2563 49.4116C98.5973 49.2993 98.9484 49.5532 98.9484 49.9123V56.4791C98.9484 56.7067 98.8024 56.9086 98.5863 56.9798L98.3688 57.0514C98.0278 57.1638 97.6768 56.9098 97.6768 56.5508V49.9839Z" fill="#B8A9A9"/>
</mask>
<g mask="url(#mask31_1510_10662)">
<path id="A_36" d="M97.6768 49.9839C97.6768 49.7563 97.8228 49.5545 98.0389 49.4833L98.2563 49.4116C98.5973 49.2993 98.9484 49.5532 98.9484 49.9123V56.4791C98.9484 56.7067 98.8024 56.9086 98.5863 56.9798L98.3688 57.0514C98.0278 57.1638 97.6768 56.9098 97.6768 56.5508V49.9839Z" fill="#B8A9A9"/>
<path id="&#231;&#169;&#186;&#233;&#151;&#180;_27" d="M94.7627 56.7072L97.185 57.5839L99.5699 56.7072L97.2607 55.92L94.7627 56.7072Z" fill="#A38E8E"/>
</g>
</g>
<g id="12_2">
<mask id="mask32_1510_10662" style="mask-type:alpha" maskUnits="userSpaceOnUse" x="100" y="48" width="2" height="9">
<path id="X_34" d="M100.017 49.1402C100.017 48.9126 100.163 48.7107 100.379 48.6395L100.596 48.5679C100.937 48.4555 101.288 48.7095 101.288 49.0685V55.6354C101.288 55.863 101.142 56.0648 100.926 56.1361L100.709 56.2077C100.368 56.32 100.017 56.0661 100.017 55.707V49.1402Z" fill="#B8A9A9"/>
</mask>
<g mask="url(#mask32_1510_10662)">
<path id="A_37" d="M100.017 49.1402C100.017 48.9126 100.163 48.7107 100.379 48.6395L100.596 48.5679C100.937 48.4555 101.288 48.7095 101.288 49.0685V55.6354C101.288 55.863 101.142 56.0648 100.926 56.1361L100.709 56.2077C100.368 56.32 100.017 56.0661 100.017 55.707V49.1402Z" fill="#B8A9A9"/>
<path id="&#231;&#169;&#186;&#233;&#151;&#180;_28" d="M97.1025 55.8634L99.5248 56.7402L101.91 55.8634L99.6005 55.0762L97.1025 55.8634Z" fill="#A38E8E"/>
</g>
</g>
<g id="13_2">
<mask id="mask33_1510_10662" style="mask-type:alpha" maskUnits="userSpaceOnUse" x="102" y="47" width="2" height="9">
<path id="X_35" d="M102.355 48.2905C102.355 48.063 102.502 47.8611 102.718 47.7899L102.935 47.7183C103.276 47.6059 103.627 47.8599 103.627 48.2189V54.7858C103.627 55.0134 103.481 55.2152 103.265 55.2864L103.048 55.3581C102.707 55.4704 102.355 55.2164 102.355 54.8574V48.2905Z" fill="#B8A9A9"/>
</mask>
<g mask="url(#mask33_1510_10662)">
<path id="A_38" d="M102.355 48.2905C102.355 48.063 102.502 47.8611 102.718 47.7899L102.935 47.7183C103.276 47.6059 103.627 47.8599 103.627 48.2189V54.7858C103.627 55.0134 103.481 55.2152 103.265 55.2864L103.048 55.3581C102.707 55.4704 102.355 55.2164 102.355 54.8574V48.2905Z" fill="#B8A9A9"/>
<path id="&#231;&#169;&#186;&#233;&#151;&#180;_29" d="M99.4414 55.0138L101.864 55.8906L104.249 55.0138L101.939 54.2266L99.4414 55.0138Z" fill="#A38E8E"/>
</g>
</g>
<g id="14_2">
<mask id="mask34_1510_10662" style="mask-type:alpha" maskUnits="userSpaceOnUse" x="104" y="46" width="2" height="9">
<path id="X_36" d="M104.695 47.4468C104.695 47.2192 104.841 47.0174 105.057 46.9461L105.275 46.8745C105.616 46.7622 105.967 47.0161 105.967 47.3752V53.942C105.967 54.1696 105.821 54.3715 105.605 54.4427L105.387 54.5143C105.046 54.6267 104.695 54.3727 104.695 54.0137V47.4468Z" fill="#B8A9A9"/>
</mask>
<g mask="url(#mask34_1510_10662)">
<path id="A_39" d="M104.695 47.4468C104.695 47.2192 104.841 47.0174 105.057 46.9461L105.275 46.8745C105.616 46.7622 105.967 47.0161 105.967 47.3752V53.942C105.967 54.1696 105.821 54.3715 105.605 54.4427L105.387 54.5143C105.046 54.6267 104.695 54.3727 104.695 54.0137V47.4468Z" fill="#B8A9A9"/>
<path id="&#231;&#169;&#186;&#233;&#151;&#180;_30" d="M101.781 54.17L104.204 55.0468L106.588 54.17L104.279 53.3828L101.781 54.17Z" fill="#A38E8E"/>
</g>
</g>
<g id="15_2">
<mask id="mask35_1510_10662" style="mask-type:alpha" maskUnits="userSpaceOnUse" x="107" y="45" width="2" height="9">
<path id="X_37" d="M107.034 46.5786C107.034 46.3511 107.18 46.1492 107.396 46.078L107.614 46.0063C107.955 45.894 108.306 46.148 108.306 46.507V53.0739C108.306 53.3014 108.16 53.5033 107.944 53.5745L107.726 53.6462C107.385 53.7585 107.034 53.5045 107.034 53.1455V46.5786Z" fill="#B8A9A9"/>
</mask>
<g mask="url(#mask35_1510_10662)">
<path id="A_40" d="M107.034 46.5786C107.034 46.3511 107.18 46.1492 107.396 46.078L107.614 46.0063C107.955 45.894 108.306 46.148 108.306 46.507V53.0739C108.306 53.3014 108.16 53.5033 107.944 53.5745L107.726 53.6462C107.385 53.7585 107.034 53.5045 107.034 53.1455V46.5786Z" fill="#B8A9A9"/>
<path id="&#231;&#169;&#186;&#233;&#151;&#180;_31" d="M104.12 53.3019L106.542 54.1787L108.927 53.3019L106.618 52.5147L104.12 53.3019Z" fill="#A38E8E"/>
</g>
</g>
<g id="16_2">
<mask id="mask36_1510_10662" style="mask-type:alpha" maskUnits="userSpaceOnUse" x="109" y="45" width="2" height="8">
<path id="X_38" d="M109.374 45.7349C109.374 45.5073 109.52 45.3054 109.736 45.2342L109.954 45.1626C110.295 45.0502 110.646 45.3042 110.646 45.6633V52.2301C110.646 52.4577 110.5 52.6596 110.284 52.7308L110.066 52.8024C109.725 52.9148 109.374 52.6608 109.374 52.3018V45.7349Z" fill="#B8A9A9"/>
</mask>
<g mask="url(#mask36_1510_10662)">
<path id="A_41" d="M109.374 45.7349C109.374 45.5073 109.52 45.3054 109.736 45.2342L109.954 45.1626C110.295 45.0502 110.646 45.3042 110.646 45.6633V52.2301C110.646 52.4577 110.5 52.6596 110.284 52.7308L110.066 52.8024C109.725 52.9148 109.374 52.6608 109.374 52.3018V45.7349Z" fill="#B8A9A9"/>
<path id="&#231;&#169;&#186;&#233;&#151;&#180;_32" d="M106.46 52.4581L108.882 53.3349L111.267 52.4581L108.958 51.6709L106.46 52.4581Z" fill="#A38E8E"/>
</g>
</g>
</g>
<g id="&#230;&#152;&#190;&#231;&#164;&#186;&#233;&#157;&#162;&#230;&#157;&#191;_2">
<mask id="mask37_1510_10662" style="mask-type:alpha" maskUnits="userSpaceOnUse" x="31" y="49" width="26" height="14">
<path id="X_39" d="M31.7744 50.3685C31.7744 50.0055 32.1327 49.7511 32.4754 49.8708L55.8547 58.0367C56.0663 58.1106 56.208 58.3102 56.208 58.5344V61.6675C56.208 62.0304 55.8497 62.2848 55.5071 62.1651L32.1277 53.9992C31.9161 53.9253 31.7744 53.7257 31.7744 53.5016V50.3685Z" fill="black"/>
</mask>
<g mask="url(#mask37_1510_10662)">
<path id="A_42" d="M31.7744 50.3685C31.7744 50.0055 32.1327 49.7511 32.4754 49.8708L55.8547 58.0367C56.0663 58.1106 56.208 58.3102 56.208 58.5344V61.6675C56.208 62.0304 55.8497 62.2848 55.5071 62.1651L32.1277 53.9992C31.9161 53.9253 31.7744 53.7257 31.7744 53.5016V50.3685Z" fill="black"/>
<g id="&#230;&#152;&#190;&#231;&#164;&#186;&#231;&#129;&#175;_2">
<path id="&#231;&#130;&#185;_4" d="M33.502 51.8662L33.6259 51.9004" stroke="#FBD166" stroke-width="1.05426" stroke-linecap="round"/>
<path id="&#231;&#159;&#162;&#233;&#135;&#143;_3" d="M35.4854 52.5059L39.3205 53.7954" stroke="#66DD8C" stroke-width="1.05426" stroke-linecap="round"/>
<path id="&#231;&#159;&#162;&#233;&#135;&#143;_4" d="M41.4033 54.54L43.5294 55.2283" stroke="#FBD166" stroke-width="1.05426" stroke-linecap="round"/>
<path id="&#231;&#159;&#162;&#233;&#135;&#143;_5" d="M45.4336 55.9062L51.433 57.9378" stroke="#FBD166" stroke-width="1.05426" stroke-linecap="round"/>
</g>
</g>
</g>
</g>
<g id="C_2">
<g id="&#230;&#156;&#172;&#228;&#189;&#147;_3">
<path id="B_8" d="M52.8038 24.0871L52.8266 24.087L52.848 24.0792L64.4756 19.8551C66.737 19.0336 69.2133 19.0207 71.4832 19.8187L83.0672 23.8912L83.0889 23.8988L83.1118 23.8987L114.383 23.7043V36.3053L114.376 36.4228C114.333 37.1532 113.902 37.8588 113.078 38.1579L71.4687 53.2738C69.2072 54.0954 66.731 54.1082 64.4611 53.3102L22.8855 38.6938C22.0513 38.4005 21.6121 37.6889 21.5681 36.9516L21.5645 36.8922L21.5645 36.8517L21.5645 36.8503C21.5644 36.8358 21.5644 36.8212 21.5645 36.8067H21.5645V36.8053V24.2813L52.8038 24.0871Z" fill="white" stroke="black" stroke-width="0.263565"/>
<g id="&#233;&#152;&#180;&#229;&#189;&#177;_5">
<mask id="mask38_1510_10662" style="mask-type:alpha" maskUnits="userSpaceOnUse" x="21" y="19" width="94" height="36">
<path id="X_40" d="M52.8038 24.0871L52.8266 24.087L52.848 24.0792L64.4756 19.8551C66.737 19.0336 69.2133 19.0207 71.4832 19.8187L83.0672 23.8912L83.0889 23.8988L83.1118 23.8987L114.383 23.7043V36.3053L114.376 36.4228C114.333 37.1532 113.902 37.8588 113.078 38.1579L71.4687 53.2738C69.2072 54.0954 66.731 54.1082 64.4611 53.3102L22.8855 38.6938C22.0513 38.4005 21.6121 37.6889 21.5681 36.9516L21.5645 36.8922L21.5645 36.8517L21.5645 36.8503C21.5644 36.8358 21.5644 36.8212 21.5645 36.8067H21.5645V36.8053V24.2813L52.8038 24.0871Z" fill="white" stroke="black" stroke-width="0.263565"/>
</mask>
<g mask="url(#mask38_1510_10662)">
<path id="Vector_3" d="M68.5198 69.0308C70.4035 69.0308 72.2897 68.7836 73.7112 68.2496L121.67 50.7891C123.099 50.27 123.813 49.5852 123.813 48.8979V22.6738L72.2947 41.4618C70.2082 42.2233 68.5 44.6756 68.5 46.8832L68.5198 69.0308Z" fill="#EBE9E9"/>
<path id="Line_6" d="M52.8039 24.1053L52.8299 24.1052L52.8542 24.0963L64.4818 19.8722C66.7393 19.0521 69.2112 19.0393 71.4771 19.8359L83.0612 23.9084L83.0858 23.9171L83.1119 23.9169L114.365 23.7226V36.3048L114.358 36.4217C114.315 37.1456 113.888 37.8444 113.072 38.1408L71.4625 53.2567C69.205 54.0768 66.7331 54.0897 64.4671 53.293L22.8916 38.6766C22.0649 38.386 21.6299 37.6813 21.5863 36.9505L21.5827 36.8916L21.5827 36.8517L21.5827 36.8502C21.5826 36.8357 21.5826 36.8213 21.5827 36.8069H21.5827V36.8053V24.2994L52.8039 24.1053Z" stroke="black" stroke-width="0.3"/>
</g>
</g>
<path id="A_43" d="M64.4818 7.22152C66.7394 6.4014 69.2113 6.38856 71.4772 7.18518L113.053 21.8016C114.788 22.4118 114.801 24.8619 113.072 25.4901L71.4626 40.606C69.205 41.4261 66.7331 41.4389 64.4672 40.6423L22.8916 26.0259C21.1559 25.4157 21.1432 22.9656 22.8725 22.3374L64.4818 7.22152Z" fill="white" stroke="black" stroke-width="0.3"/>
</g>
<g id="&#230;&#149;&#163;&#231;&#131;&#173;_3">
<g id="1_6">
<mask id="mask39_1510_10662" style="mask-type:alpha" maskUnits="userSpaceOnUse" x="74" y="42" width="2" height="8">
<path id="X_41" d="M74.2822 42.7173C74.2822 42.4897 74.4283 42.2879 74.6444 42.2166L74.8618 42.145C75.2028 42.0327 75.5539 42.2866 75.5539 42.6457V49.2125C75.5539 49.4401 75.4079 49.642 75.1917 49.7132L74.9743 49.7848C74.6333 49.8972 74.2822 49.6432 74.2822 49.2842V42.7173Z" fill="#B8A9A9"/>
</mask>
<g mask="url(#mask39_1510_10662)">
<path id="A_44" d="M74.2822 42.7173C74.2822 42.4897 74.4283 42.2879 74.6444 42.2166L74.8618 42.145C75.2028 42.0327 75.5539 42.2866 75.5539 42.6457V49.2125C75.5539 49.4401 75.4079 49.642 75.1917 49.7132L74.9743 49.7848C74.6333 49.8972 74.2822 49.6432 74.2822 49.2842V42.7173Z" fill="#B8A9A9"/>
<path id="&#231;&#169;&#186;&#233;&#151;&#180;_33" d="M71.3682 49.4406L73.7904 50.3173L76.1754 49.4406L73.8661 48.6534L71.3682 49.4406Z" fill="#A38E8E"/>
</g>
</g>
<g id="2_5">
<mask id="mask40_1510_10662" style="mask-type:alpha" maskUnits="userSpaceOnUse" x="76" y="41" width="2" height="8">
<path id="X_42" d="M76.6221 41.8736C76.6221 41.646 76.7681 41.4441 76.9842 41.3729L77.2017 41.3013C77.5426 41.1889 77.8937 41.4429 77.8937 41.8019V48.3688C77.8937 48.5964 77.7477 48.7982 77.5316 48.8695L77.3142 48.9411C76.9732 49.0534 76.6221 48.7995 76.6221 48.4404V41.8736Z" fill="#B8A9A9"/>
</mask>
<g mask="url(#mask40_1510_10662)">
<path id="A_45" d="M76.6221 41.8736C76.6221 41.646 76.7681 41.4441 76.9842 41.3729L77.2017 41.3013C77.5426 41.1889 77.8937 41.4429 77.8937 41.8019V48.3688C77.8937 48.5964 77.7477 48.7982 77.5316 48.8695L77.3142 48.9411C76.9732 49.0534 76.6221 48.7995 76.6221 48.4404V41.8736Z" fill="#B8A9A9"/>
<path id="&#231;&#169;&#186;&#233;&#151;&#180;_34" d="M73.708 48.5968L76.1303 49.4736L78.5152 48.5968L76.206 47.8096L73.708 48.5968Z" fill="#A38E8E"/>
</g>
</g>
<g id="3_4">
<mask id="mask41_1510_10662" style="mask-type:alpha" maskUnits="userSpaceOnUse" x="78" y="40" width="3" height="9">
<path id="X_43" d="M78.9609 41.0054C78.9609 40.7778 79.107 40.5759 79.3231 40.5047L79.5405 40.4331C79.8815 40.3208 80.2326 40.5747 80.2326 40.9338V47.5006C80.2326 47.7282 80.0866 47.9301 79.8704 48.0013L79.653 48.0729C79.312 48.1853 78.9609 47.9313 78.9609 47.5723V41.0054Z" fill="#B8A9A9"/>
</mask>
<g mask="url(#mask41_1510_10662)">
<path id="A_46" d="M78.9609 41.0054C78.9609 40.7778 79.107 40.5759 79.3231 40.5047L79.5405 40.4331C79.8815 40.3208 80.2326 40.5747 80.2326 40.9338V47.5006C80.2326 47.7282 80.0866 47.9301 79.8704 48.0013L79.653 48.0729C79.312 48.1853 78.9609 47.9313 78.9609 47.5723V41.0054Z" fill="#B8A9A9"/>
<path id="&#231;&#169;&#186;&#233;&#151;&#180;_35" d="M76.0469 47.7286L78.4691 48.6054L80.8541 47.7286L78.5448 46.9414L76.0469 47.7286Z" fill="#A38E8E"/>
</g>
</g>
<g id="4_4">
<mask id="mask42_1510_10662" style="mask-type:alpha" maskUnits="userSpaceOnUse" x="81" y="39" width="2" height="9">
<path id="X_44" d="M81.3008 40.1616C81.3008 39.9341 81.4468 39.7322 81.663 39.661L81.8804 39.5894C82.2214 39.477 82.5724 39.731 82.5724 40.09V46.6569C82.5724 46.8844 82.4264 47.0863 82.2103 47.1575L81.9929 47.2292C81.6519 47.3415 81.3008 47.0875 81.3008 46.7285V40.1616Z" fill="#B8A9A9"/>
</mask>
<g mask="url(#mask42_1510_10662)">
<path id="A_47" d="M81.3008 40.1616C81.3008 39.9341 81.4468 39.7322 81.663 39.661L81.8804 39.5894C82.2214 39.477 82.5724 39.731 82.5724 40.09V46.6569C82.5724 46.8844 82.4264 47.0863 82.2103 47.1575L81.9929 47.2292C81.6519 47.3415 81.3008 47.0875 81.3008 46.7285V40.1616Z" fill="#B8A9A9"/>
<path id="&#231;&#169;&#186;&#233;&#151;&#180;_36" d="M78.3867 46.8849L80.809 47.7617L83.1939 46.8849L80.8847 46.0977L78.3867 46.8849Z" fill="#A38E8E"/>
</g>
</g>
<g id="5_3">
<mask id="mask43_1510_10662" style="mask-type:alpha" maskUnits="userSpaceOnUse" x="83" y="38" width="2" height="9">
<path id="X_45" d="M83.6396 39.312C83.6396 39.0845 83.7857 38.8826 84.0018 38.8114L84.2192 38.7397C84.5602 38.6274 84.9113 38.8814 84.9113 39.2404V45.8073C84.9113 46.0348 84.7653 46.2367 84.5491 46.3079L84.3317 46.3796C83.9907 46.4919 83.6396 46.2379 83.6396 45.8789V39.312Z" fill="#B8A9A9"/>
</mask>
<g mask="url(#mask43_1510_10662)">
<path id="A_48" d="M83.6396 39.312C83.6396 39.0845 83.7857 38.8826 84.0018 38.8114L84.2192 38.7397C84.5602 38.6274 84.9113 38.8814 84.9113 39.2404V45.8073C84.9113 46.0348 84.7653 46.2367 84.5491 46.3079L84.3317 46.3796C83.9907 46.4919 83.6396 46.2379 83.6396 45.8789V39.312Z" fill="#B8A9A9"/>
<path id="&#231;&#169;&#186;&#233;&#151;&#180;_37" d="M80.7256 46.0353L83.1479 46.9121L85.5328 46.0353L83.2236 45.2481L80.7256 46.0353Z" fill="#A38E8E"/>
</g>
</g>
<g id="6_3">
<mask id="mask44_1510_10662" style="mask-type:alpha" maskUnits="userSpaceOnUse" x="85" y="37" width="3" height="9">
<path id="X_46" d="M85.9795 38.4683C85.9795 38.2407 86.1255 38.0388 86.3417 37.9676L86.5591 37.896C86.9001 37.7836 87.2512 38.0376 87.2512 38.3966V44.9635C87.2512 45.1911 87.1051 45.393 86.889 45.4642L86.6716 45.5358C86.3306 45.6482 85.9795 45.3942 85.9795 45.0352V38.4683Z" fill="#B8A9A9"/>
</mask>
<g mask="url(#mask44_1510_10662)">
<path id="A_49" d="M85.9795 38.4683C85.9795 38.2407 86.1255 38.0388 86.3417 37.9676L86.5591 37.896C86.9001 37.7836 87.2512 38.0376 87.2512 38.3966V44.9635C87.2512 45.1911 87.1051 45.393 86.889 45.4642L86.6716 45.5358C86.3306 45.6482 85.9795 45.3942 85.9795 45.0352V38.4683Z" fill="#B8A9A9"/>
<path id="&#231;&#169;&#186;&#233;&#151;&#180;_38" d="M83.0654 45.1915L85.4877 46.0683L87.8727 45.1915L85.5634 44.4043L83.0654 45.1915Z" fill="#A38E8E"/>
</g>
</g>
<g id="7_3">
<mask id="mask45_1510_10662" style="mask-type:alpha" maskUnits="userSpaceOnUse" x="88" y="37" width="2" height="8">
<path id="X_47" d="M88.3193 37.6001C88.3193 37.3726 88.4654 37.1707 88.6815 37.0995L88.8989 37.0278C89.2399 36.9155 89.591 37.1695 89.591 37.5285V44.0954C89.591 44.3229 89.445 44.5248 89.2288 44.596L89.0114 44.6676C88.6704 44.78 88.3193 44.526 88.3193 44.167V37.6001Z" fill="#B8A9A9"/>
</mask>
<g mask="url(#mask45_1510_10662)">
<path id="A_50" d="M88.3193 37.6001C88.3193 37.3726 88.4654 37.1707 88.6815 37.0995L88.8989 37.0278C89.2399 36.9155 89.591 37.1695 89.591 37.5285V44.0954C89.591 44.3229 89.445 44.5248 89.2288 44.596L89.0114 44.6676C88.6704 44.78 88.3193 44.526 88.3193 44.167V37.6001Z" fill="#B8A9A9"/>
<path id="&#231;&#169;&#186;&#233;&#151;&#180;_39" d="M85.4053 44.3234L87.8275 45.2002L90.2125 44.3234L87.9032 43.5362L85.4053 44.3234Z" fill="#A38E8E"/>
</g>
</g>
<g id="8_3">
<mask id="mask46_1510_10662" style="mask-type:alpha" maskUnits="userSpaceOnUse" x="90" y="36" width="2" height="8">
<path id="X_48" d="M90.6582 36.7564C90.6582 36.5288 90.8042 36.3269 91.0204 36.2557L91.2378 36.1841C91.5788 36.0717 91.9299 36.3257 91.9299 36.6847V43.2516C91.9299 43.4792 91.7838 43.6811 91.5677 43.7523L91.3503 43.8239C91.0093 43.9362 90.6582 43.6823 90.6582 43.3232V36.7564Z" fill="#B8A9A9"/>
</mask>
<g mask="url(#mask46_1510_10662)">
<path id="A_51" d="M90.6582 36.7564C90.6582 36.5288 90.8042 36.3269 91.0204 36.2557L91.2378 36.1841C91.5788 36.0717 91.9299 36.3257 91.9299 36.6847V43.2516C91.9299 43.4792 91.7838 43.6811 91.5677 43.7523L91.3503 43.8239C91.0093 43.9362 90.6582 43.6823 90.6582 43.3232V36.7564Z" fill="#B8A9A9"/>
<path id="&#231;&#169;&#186;&#233;&#151;&#180;_40" d="M87.7441 43.4796L90.1664 44.3564L92.5514 43.4796L90.2421 42.6924L87.7441 43.4796Z" fill="#A38E8E"/>
</g>
</g>
<g id="9_3">
<mask id="mask47_1510_10662" style="mask-type:alpha" maskUnits="userSpaceOnUse" x="92" y="35" width="3" height="8">
<path id="X_49" d="M92.998 35.8823C92.998 35.6548 93.1441 35.4529 93.3602 35.3817L93.5776 35.3101C93.9186 35.1977 94.2697 35.4517 94.2697 35.8107V42.3776C94.2697 42.6052 94.1237 42.807 93.9075 42.8782L93.6901 42.9499C93.3491 43.0622 92.998 42.8082 92.998 42.4492V35.8823Z" fill="#B8A9A9"/>
</mask>
<g mask="url(#mask47_1510_10662)">
<path id="A_52" d="M92.998 35.8823C92.998 35.6548 93.1441 35.4529 93.3602 35.3817L93.5776 35.3101C93.9186 35.1977 94.2697 35.4517 94.2697 35.8107V42.3776C94.2697 42.6052 94.1237 42.807 93.9075 42.8782L93.6901 42.9499C93.3491 43.0622 92.998 42.8082 92.998 42.4492V35.8823Z" fill="#B8A9A9"/>
<path id="&#231;&#169;&#186;&#233;&#151;&#180;_41" d="M90.084 42.6056L92.5063 43.4824L94.8912 42.6056L92.582 41.8184L90.084 42.6056Z" fill="#A38E8E"/>
</g>
</g>
<g id="10_3">
<mask id="mask48_1510_10662" style="mask-type:alpha" maskUnits="userSpaceOnUse" x="95" y="34" width="2" height="9">
<path id="X_50" d="M95.3369 35.0386C95.3369 34.811 95.483 34.6092 95.6991 34.5379L95.9165 34.4663C96.2575 34.354 96.6086 34.6079 96.6086 34.967V41.5338C96.6086 41.7614 96.4625 41.9633 96.2464 42.0345L96.029 42.1061C95.688 42.2185 95.3369 41.9645 95.3369 41.6055V35.0386Z" fill="#B8A9A9"/>
</mask>
<g mask="url(#mask48_1510_10662)">
<path id="A_53" d="M95.3369 35.0386C95.3369 34.811 95.483 34.6092 95.6991 34.5379L95.9165 34.4663C96.2575 34.354 96.6086 34.6079 96.6086 34.967V41.5338C96.6086 41.7614 96.4625 41.9633 96.2464 42.0345L96.029 42.1061C95.688 42.2185 95.3369 41.9645 95.3369 41.6055V35.0386Z" fill="#B8A9A9"/>
<path id="&#231;&#169;&#186;&#233;&#151;&#180;_42" d="M92.4229 41.7618L94.8451 42.6386L97.2301 41.7618L94.9208 40.9746L92.4229 41.7618Z" fill="#A38E8E"/>
</g>
</g>
<g id="11_3">
<mask id="mask49_1510_10662" style="mask-type:alpha" maskUnits="userSpaceOnUse" x="97" y="33" width="2" height="9">
<path id="X_51" d="M97.6768 34.1704C97.6768 33.9429 97.8228 33.741 98.0389 33.6698L98.2563 33.5981C98.5973 33.4858 98.9484 33.7398 98.9484 34.0988V40.6657C98.9484 40.8932 98.8024 41.0951 98.5863 41.1663L98.3688 41.238C98.0278 41.3503 97.6768 41.0963 97.6768 40.7373V34.1704Z" fill="#B8A9A9"/>
</mask>
<g mask="url(#mask49_1510_10662)">
<path id="A_54" d="M97.6768 34.1704C97.6768 33.9429 97.8228 33.741 98.0389 33.6698L98.2563 33.5981C98.5973 33.4858 98.9484 33.7398 98.9484 34.0988V40.6657C98.9484 40.8932 98.8024 41.0951 98.5863 41.1663L98.3688 41.238C98.0278 41.3503 97.6768 41.0963 97.6768 40.7373V34.1704Z" fill="#B8A9A9"/>
<path id="&#231;&#169;&#186;&#233;&#151;&#180;_43" d="M94.7627 40.8937L97.185 41.7705L99.5699 40.8937L97.2607 40.1065L94.7627 40.8937Z" fill="#A38E8E"/>
</g>
</g>
<g id="12_3">
<mask id="mask50_1510_10662" style="mask-type:alpha" maskUnits="userSpaceOnUse" x="100" y="32" width="2" height="9">
<path id="X_52" d="M100.017 33.3267C100.017 33.0991 100.163 32.8972 100.379 32.826L100.596 32.7544C100.937 32.642 101.288 32.896 101.288 33.255V39.8219C101.288 40.0495 101.142 40.2514 100.926 40.3226L100.709 40.3942C100.368 40.5066 100.017 40.2526 100.017 39.8936V33.3267Z" fill="#B8A9A9"/>
</mask>
<g mask="url(#mask50_1510_10662)">
<path id="A_55" d="M100.017 33.3267C100.017 33.0991 100.163 32.8972 100.379 32.826L100.596 32.7544C100.937 32.642 101.288 32.896 101.288 33.255V39.8219C101.288 40.0495 101.142 40.2514 100.926 40.3226L100.709 40.3942C100.368 40.5066 100.017 40.2526 100.017 39.8936V33.3267Z" fill="#B8A9A9"/>
<path id="&#231;&#169;&#186;&#233;&#151;&#180;_44" d="M97.1025 40.0499L99.5248 40.9267L101.91 40.0499L99.6005 39.2627L97.1025 40.0499Z" fill="#A38E8E"/>
</g>
</g>
<g id="13_3">
<mask id="mask51_1510_10662" style="mask-type:alpha" maskUnits="userSpaceOnUse" x="102" y="31" width="2" height="9">
<path id="X_53" d="M102.355 32.4771C102.355 32.2495 102.502 32.0476 102.718 31.9764L102.935 31.9048C103.276 31.7924 103.627 32.0464 103.627 32.4054V38.9723C103.627 39.1999 103.481 39.4018 103.265 39.473L103.048 39.5446C102.707 39.6569 102.355 39.403 102.355 39.0439V32.4771Z" fill="#B8A9A9"/>
</mask>
<g mask="url(#mask51_1510_10662)">
<path id="A_56" d="M102.355 32.4771C102.355 32.2495 102.502 32.0476 102.718 31.9764L102.935 31.9048C103.276 31.7924 103.627 32.0464 103.627 32.4054V38.9723C103.627 39.1999 103.481 39.4018 103.265 39.473L103.048 39.5446C102.707 39.6569 102.355 39.403 102.355 39.0439V32.4771Z" fill="#B8A9A9"/>
<path id="&#231;&#169;&#186;&#233;&#151;&#180;_45" d="M99.4414 39.2003L101.864 40.0771L104.249 39.2003L101.939 38.4131L99.4414 39.2003Z" fill="#A38E8E"/>
</g>
</g>
<g id="14_3">
<mask id="mask52_1510_10662" style="mask-type:alpha" maskUnits="userSpaceOnUse" x="104" y="31" width="2" height="8">
<path id="X_54" d="M104.695 31.6333C104.695 31.4058 104.841 31.2039 105.057 31.1327L105.275 31.061C105.616 30.9487 105.967 31.2027 105.967 31.5617V38.1286C105.967 38.3561 105.821 38.558 105.605 38.6292L105.387 38.7008C105.046 38.8132 104.695 38.5592 104.695 38.2002V31.6333Z" fill="#B8A9A9"/>
</mask>
<g mask="url(#mask52_1510_10662)">
<path id="A_57" d="M104.695 31.6333C104.695 31.4058 104.841 31.2039 105.057 31.1327L105.275 31.061C105.616 30.9487 105.967 31.2027 105.967 31.5617V38.1286C105.967 38.3561 105.821 38.558 105.605 38.6292L105.387 38.7008C105.046 38.8132 104.695 38.5592 104.695 38.2002V31.6333Z" fill="#B8A9A9"/>
<path id="&#231;&#169;&#186;&#233;&#151;&#180;_46" d="M101.781 38.3566L104.204 39.2334L106.588 38.3566L104.279 37.5694L101.781 38.3566Z" fill="#A38E8E"/>
</g>
</g>
<g id="15_3">
<mask id="mask53_1510_10662" style="mask-type:alpha" maskUnits="userSpaceOnUse" x="107" y="30" width="2" height="8">
<path id="X_55" d="M107.034 30.7652C107.034 30.5376 107.18 30.3357 107.396 30.2645L107.614 30.1929C107.955 30.0805 108.306 30.3345 108.306 30.6935V37.2604C108.306 37.488 108.16 37.6898 107.944 37.7611L107.726 37.8327C107.385 37.945 107.034 37.6911 107.034 37.332V30.7652Z" fill="#B8A9A9"/>
</mask>
<g mask="url(#mask53_1510_10662)">
<path id="A_58" d="M107.034 30.7652C107.034 30.5376 107.18 30.3357 107.396 30.2645L107.614 30.1929C107.955 30.0805 108.306 30.3345 108.306 30.6935V37.2604C108.306 37.488 108.16 37.6898 107.944 37.7611L107.726 37.8327C107.385 37.945 107.034 37.6911 107.034 37.332V30.7652Z" fill="#B8A9A9"/>
<path id="&#231;&#169;&#186;&#233;&#151;&#180;_47" d="M104.12 37.4884L106.542 38.3652L108.927 37.4884L106.618 36.7012L104.12 37.4884Z" fill="#A38E8E"/>
</g>
</g>
<g id="16_3">
<mask id="mask54_1510_10662" style="mask-type:alpha" maskUnits="userSpaceOnUse" x="109" y="29" width="2" height="9">
<path id="X_56" d="M109.374 29.9214C109.374 29.6938 109.52 29.492 109.736 29.4208L109.954 29.3491C110.295 29.2368 110.646 29.4907 110.646 29.8498V36.4166C110.646 36.6442 110.5 36.8461 110.284 36.9173L110.066 36.9889C109.725 37.1013 109.374 36.8473 109.374 36.4883V29.9214Z" fill="#B8A9A9"/>
</mask>
<g mask="url(#mask54_1510_10662)">
<path id="A_59" d="M109.374 29.9214C109.374 29.6938 109.52 29.492 109.736 29.4208L109.954 29.3491C110.295 29.2368 110.646 29.4907 110.646 29.8498V36.4166C110.646 36.6442 110.5 36.8461 110.284 36.9173L110.066 36.9889C109.725 37.1013 109.374 36.8473 109.374 36.4883V29.9214Z" fill="#B8A9A9"/>
<path id="&#231;&#169;&#186;&#233;&#151;&#180;_48" d="M106.46 36.6447L108.882 37.5214L111.267 36.6447L108.958 35.8575L106.46 36.6447Z" fill="#A38E8E"/>
</g>
</g>
</g>
<g id="&#230;&#152;&#190;&#231;&#164;&#186;&#233;&#157;&#162;&#230;&#157;&#191;_3">
<mask id="mask55_1510_10662" style="mask-type:alpha" maskUnits="userSpaceOnUse" x="31" y="34" width="26" height="13">
<path id="X_57" d="M31.7744 34.555C31.7744 34.192 32.1327 33.9376 32.4754 34.0573L55.8547 42.2232C56.0663 42.2971 56.208 42.4968 56.208 42.7209V45.854C56.208 46.217 55.8497 46.4713 55.5071 46.3516L32.1277 38.1857C31.9161 38.1118 31.7744 37.9122 31.7744 37.6881V34.555Z" fill="black"/>
</mask>
<g mask="url(#mask55_1510_10662)">
<path id="A_60" d="M31.7744 34.555C31.7744 34.192 32.1327 33.9376 32.4754 34.0573L55.8547 42.2232C56.0663 42.2971 56.208 42.4968 56.208 42.7209V45.854C56.208 46.217 55.8497 46.4713 55.5071 46.3516L32.1277 38.1857C31.9161 38.1118 31.7744 37.9122 31.7744 37.6881V34.555Z" fill="black"/>
<g id="&#230;&#152;&#190;&#231;&#164;&#186;&#231;&#129;&#175;_3">
<path id="&#231;&#130;&#185;_5" d="M54.2979 43.2031L54.4218 43.2373" stroke="#FBD166" stroke-width="1.05426" stroke-linecap="round"/>
<path id="&#231;&#159;&#162;&#233;&#135;&#143;_6" d="M33.5009 36.039L37.5106 37.3747" stroke="#66DD8C" stroke-width="1.05426" stroke-linecap="round"/>
<path id="&#231;&#159;&#162;&#233;&#135;&#143;_7" d="M48.3457 41.1972L52.3553 42.5329" stroke="#FBD166" stroke-width="1.05426" stroke-linecap="round"/>
<path id="&#231;&#159;&#162;&#233;&#135;&#143;_8" d="M44.624 39.8652L46.0943 40.3495" stroke="#FBD166" stroke-width="1.05426" stroke-linecap="round"/>
</g>
</g>
</g>
</g>
</g>
<g id="&#229;&#137;&#141;&#230;&#153;&#175;&#232;&#163;&#133;&#233;&#165;&#176;&#231;&#137;&#169;">
<g id="&#229;&#159;&#186;&#231;&#161;&#128;">
<path id="&#233;&#152;&#180;&#229;&#189;&#177;_6" d="M43.0195 102.556L46.3468 101.345C46.9642 101.121 46.9642 100.753 46.3468 100.528L42.5205 99.1357L43.0195 102.556Z" fill="black"/>
<path id="X_58" d="M14.6935 95.7341L14.6936 95.7342L14.6988 95.7323C15.6186 95.3973 16.8408 95.2271 18.0696 95.2271C19.2985 95.2271 20.519 95.3973 21.4354 95.7322L21.4358 95.7323L35.9516 100.995C36.4121 101.162 36.7461 101.353 36.9622 101.547C37.1781 101.742 37.2659 101.93 37.2659 102.099C37.2659 102.269 37.1781 102.457 36.9622 102.652C36.7464 102.847 36.4133 103.037 35.9541 103.204L32.1085 104.445L32.1085 104.445L32.1032 104.447C31.1835 104.782 29.9613 104.952 28.7324 104.952C27.5036 104.952 26.283 104.782 25.3666 104.447L25.3663 104.447L10.8489 99.1841C10.8489 99.1841 10.8488 99.1841 10.8488 99.1841C10.3888 99.0165 10.0552 98.8262 9.83918 98.6313C9.6235 98.4368 9.53574 98.2483 9.53574 98.0787C9.53574 97.9091 9.62349 97.7208 9.83913 97.5264C10.0547 97.3321 10.3875 97.1424 10.8463 96.9755L14.6935 95.7341Z" fill="white" stroke="#B8A9A9" stroke-width="0.3" stroke-miterlimit="10" stroke-linecap="round"/>
<path id="B_9" d="M35.0389 97.5131L40.3772 94.5813L44.7299 101.276C44.8618 101.479 44.7711 101.752 44.5439 101.835L35.6328 105.112L35.0389 97.5131Z" fill="#EBE9E9" stroke="black" stroke-width="0.3"/>
<path id="A_61" d="M13.8768 85.4309C14.0755 85.0066 14.5655 84.8043 15.0057 84.9649L39.8199 94.0177C40.3185 94.1997 40.554 94.77 40.3289 95.2507L35.8936 104.723C35.6949 105.147 35.2049 105.349 34.7647 105.189L9.95054 96.136C9.45188 95.9541 9.21643 95.3838 9.44153 94.9031L13.8768 85.4309Z" fill="white" stroke="black" stroke-width="0.3"/>
</g>
<g id="&#229;&#177;&#143;&#229;&#185;&#149;">
<path id="A_62" d="M14.6902 87.9248C14.9206 87.4325 15.4876 87.1962 15.9994 87.379L36.9489 94.8586C37.5345 95.0676 37.8129 95.7354 37.5492 96.2985L34.8068 102.155C34.5763 102.648 34.0094 102.884 33.4975 102.701L12.548 95.2215C11.9625 95.0124 11.6841 94.3446 11.9477 93.7815L14.6902 87.9248Z" fill="black"/>
<g id="&#230;&#149;&#176;&#230;&#141;&#174;">
<mask id="mask56_1510_10662" style="mask-type:alpha" maskUnits="userSpaceOnUse" x="11" y="87" width="27" height="16">
<path id="X_59" d="M14.6902 87.9248C14.9206 87.4325 15.4876 87.1962 15.9994 87.379L36.9489 94.8586C37.5345 95.0676 37.8129 95.7354 37.5492 96.2985L34.8068 102.155C34.5763 102.648 34.0094 102.884 33.4975 102.701L12.548 95.2215C11.9625 95.0124 11.6841 94.3446 11.9477 93.7815L14.6902 87.9248Z" fill="black"/>
</mask>
<g mask="url(#mask56_1510_10662)">
<g id="A_63">
<path id="Vector_4" d="M13.9554 93.6348L13.208 93.3589L12.709 94.4203L13.4565 94.6962L13.9554 93.6348Z" fill="#FBD166"/>
<path id="Vector_5" d="M32.225 97.7139L31.4775 97.438L30.9785 98.4994L31.726 98.7753L32.225 97.7139Z" fill="#FBD166"/>
<path id="Vector_6" d="M28.9017 92.6368L28.1543 92.3609L27.6553 93.4222L28.4028 93.6981L28.9017 92.6368Z" fill="#FBD166"/>
<path id="Vector_7" d="M16.7227 91.5641L15.9753 91.2882L14.1903 94.9447L14.9378 95.2206L16.7227 91.5641Z" fill="#FBD166"/>
<path id="Vector_8" d="M21.67 92.4499L20.9225 92.1739L19.1376 95.8304L19.8851 96.1063L21.67 92.4499Z" fill="#FBD166"/>
<path id="Vector_9" d="M24.2462 90.9381L23.4987 90.6622L21.7138 94.3187L22.4612 94.5946L24.2462 90.9381Z" fill="#FBD166"/>
<path id="Vector_10" d="M32.2452 93.7672L31.4977 93.4913L29.7128 97.1478L30.4602 97.4237L32.2452 93.7672Z" fill="#FBD166"/>
<path id="Vector_11" d="M35.4102 98.4372L34.6628 98.1612L32.8778 101.818L33.6253 102.094L35.4102 98.4372Z" fill="#FBD166"/>
<path id="Vector_12" d="M26.9988 92.9194L26.2514 92.6435L24.0966 96.942L24.8441 97.2179L26.9988 92.9194Z" fill="#FBD166"/>
<path id="Vector_13" d="M18.9443 90.6758L18.1969 90.3999L16.9155 92.9671L17.6629 93.243L18.9443 90.6758Z" fill="#FBD166"/>
<path id="Vector_14" d="M19.4611 93.2395L18.7136 92.9636L17.825 94.7734L18.5724 95.0493L19.4611 93.2395Z" fill="#FBD166"/>
<path id="Vector_15" d="M25.17 92.8323L24.4226 92.5564L23.534 94.3661L24.2814 94.642L25.17 92.8323Z" fill="#FBD166"/>
<path id="Vector_16" d="M30.5919 93.1917L29.8445 92.9157L28.9558 94.7255L29.7033 95.0014L30.5919 93.1917Z" fill="#FBD166"/>
<path id="Vector_17" d="M33.2521 99.2375L32.5046 98.9616L31.616 100.771L32.3635 101.047L33.2521 99.2375Z" fill="#FBD166"/>
</g>
<g id="B_10">
<path id="Vector_18" d="M28.1279 94.2042L27.3804 93.9283L26.4786 95.7617L27.2261 96.0377L28.1279 94.2042Z" fill="#FBD166"/>
<path id="Vector_19" d="M34.0541 97.6085L33.3066 97.3325L32.8077 98.3939L33.5551 98.6698L34.0541 97.6085Z" fill="#FBD166"/>
<path id="Vector_20" d="M28.1771 98.2784L27.4297 98.0025L26.9307 99.0638L27.6781 99.3397L28.1771 98.2784Z" fill="#FBD166"/>
<path id="Vector_21" d="M21.9427 95.5811L21.1953 95.3052L20.6963 96.3666L21.4438 96.6425L21.9427 95.5811Z" fill="#FBD166"/>
<path id="Vector_22" d="M17.5414 89.8946L16.7939 89.6187L16.295 90.68L17.0424 90.9559L17.5414 89.8946Z" fill="#FBD166"/>
<path id="Vector_23" d="M19.5513 89.4355L18.8039 89.1596L18.4666 89.8194L19.2141 90.0953L19.5513 89.4355Z" fill="#FBD166"/>
<path id="Vector_24" d="M36.2484 96.7999L35.501 96.524L35.002 97.5853L35.7494 97.8612L36.2484 96.7999Z" fill="#FBD166"/>
</g>
</g>
</g>
<path id="Line_7" d="M14.8095 87.9806C15.0112 87.55 15.5072 87.3432 15.9551 87.5031L36.9046 94.9827C37.417 95.1656 37.6606 95.7499 37.4299 96.2426L34.6874 102.099C34.4858 102.53 33.9897 102.737 33.5418 102.577L12.5923 95.0974C12.08 94.9145 11.8364 94.3301 12.0671 93.8374L14.8095 87.9806Z" stroke="black" stroke-width="0.263565"/>
</g>
</g>
</g>
</g>
</svg>
