<?xml version="1.0" encoding="UTF-8"?>
<svg width="40px" height="40px" viewBox="0 0 40 40" version="1.1" xmlns="http://www.w3.org/2000/svg" xmlns:xlink="http://www.w3.org/1999/xlink">
    <!-- Generator: Sketch 55.1 (78136) - https://sketchapp.com -->
    <title>强平还款通知</title>
    <desc>Created with Sketch.</desc>
    <g id="强平还款通知" stroke="none" stroke-width="1" fill="none" fill-rule="evenodd">
        <path d="M10.2555408,-4.14336123e-16 L29.7444592,4.14336123e-16 C33.3105342,-2.4074122e-16 34.6036791,0.371302445 35.9073828,1.06853082 C37.2110865,1.76575919 38.2342408,2.78891348 38.9314692,4.09261719 C39.6286976,5.39632089 40,6.68946584 40,10.2555408 L40,29.7444592 C40,33.3105342 39.6286976,34.6036791 38.9314692,35.9073828 C38.2342408,37.2110865 37.2110865,38.2342408 35.9073828,38.9314692 C34.6036791,39.6286976 33.3105342,40 29.7444592,40 L10.2555408,40 C6.68946584,40 5.39632089,39.6286976 4.09261719,38.9314692 C2.78891348,38.2342408 1.76575919,37.2110865 1.06853082,35.9073828 C0.371302445,34.6036791 1.60494146e-16,33.3105342 -2.76224082e-16,29.7444592 L2.76224082e-16,10.2555408 C-1.60494146e-16,6.68946584 0.371302445,5.39632089 1.06853082,4.09261719 C1.76575919,2.78891348 2.78891348,1.76575919 4.09261719,1.06853082 C5.39632089,0.371302445 6.68946584,2.4074122e-16 10.2555408,-4.14336123e-16 Z" id="Rectangle-4" fill="#0F7DFF"></path>
        <g id="Group-20-Copy" transform="translate(7.000000, 7.000000)">
            <g id="Group-12-Copy">
                <g id="Group-9-Copy-3">
                    <g id="ic-monetization-on-black-48-px">
                        <path d="M13,2.16666667 C7.02,2.16666667 2.16666667,7.02 2.16666667,13 C2.16666667,18.98 7.02,23.8333333 13,23.8333333 C18.98,23.8333333 23.8333333,18.98 23.8333333,13 C23.8333333,7.02 18.98,2.16666667 13,2.16666667 Z M14.5275,19.5975 L14.5275,21.6666667 L11.635,21.6666667 L11.635,19.5758333 C9.7825,19.1858333 8.21166667,17.9941667 8.0925,15.8925 L10.2158333,15.8925 C10.3241667,17.03 11.1041667,17.9183333 13.0866667,17.9183333 C15.21,17.9183333 15.6866667,16.8566667 15.6866667,16.1958333 C15.6866667,15.2966667 15.21,14.4516667 12.7941667,13.8775 C10.1075,13.2275 8.26583333,12.1225 8.26583333,9.90166667 C8.26583333,8.03833333 9.77166667,6.825 11.635,6.42416667 L11.635,4.33333333 L14.5275,4.33333333 L14.5275,6.44583333 C16.5425,6.93333333 17.55,8.46083333 17.615,10.1183333 L15.4916667,10.1183333 C15.4375,8.91583333 14.7983333,8.0925 13.0866667,8.0925 C11.4616667,8.0925 10.4866667,8.82916667 10.4866667,9.86916667 C10.4866667,10.7791667 11.1908333,11.375 13.3791667,11.9383333 C15.5675,12.5016667 17.9075,13.4441667 17.9075,16.1741667 C17.8966667,18.1566667 16.4125,19.24 14.5275,19.5975 Z" id="Shape" fill="#FFFFFF" fill-rule="nonzero"></path>
                        <polygon id="Shape" points="0 0 26 0 26 26 0 26"></polygon>
                    </g>
                </g>
            </g>
        </g>
    </g>
</svg>