<?xml version="1.0" encoding="UTF-8"?>
<svg width="13px" height="13px" viewBox="0 0 13 13" version="1.1" xmlns="http://www.w3.org/2000/svg" xmlns:xlink="http://www.w3.org/1999/xlink">
    <!-- Generator: Sketch 55.1 (78136) - https://sketchapp.com -->
    <title>Shape</title>
    <desc>Created with Sketch.</desc>
    <g id="页面1" stroke="none" stroke-width="1" fill="none" fill-rule="evenodd">
        <g id="画板" transform="translate(-505.000000, -420.000000)" fill="#FFFFFF" fill-rule="nonzero">
            <g id="Group-37" transform="translate(376.000000, 41.000000)">
                <g id="Group-17" transform="translate(129.000000, 376.000000)">
                    <g id="ic-power-settings-new-48-px" transform="translate(0.000000, 3.000000)">
                        <path d="M7.22222222,0 L5.77777778,0 L5.77777778,7.22222222 L7.22222222,7.22222222 L7.22222222,0 Z M10.7141667,1.56361111 L9.69222222,2.58555556 C10.8261111,3.51361111 11.5555556,4.91833333 11.5555556,6.5 C11.5555556,9.29138889 9.29138889,11.5555556 6.5,11.5555556 C3.70861111,11.5555556 1.44444444,9.29138889 1.44444444,6.5 C1.44444444,4.91833333 2.17388889,3.51361111 3.30777778,2.58555556 L2.28583333,1.56361111 C0.891944444,2.75527778 0,4.52111111 0,6.5 C0,10.0894444 2.91055556,13 6.5,13 C10.0894444,13 13,10.0894444 13,6.5 C13,4.52111111 12.1080556,2.75527778 10.7141667,1.56361111 Z" id="Shape"></path>
                    </g>
                </g>
            </g>
        </g>
    </g>
</svg>