<svg width="148" height="148" viewBox="0 0 148 148" fill="none" xmlns="http://www.w3.org/2000/svg">
<path d="M25.1534 111.838V106.691C25.1534 108.66 26.7313 110.663 30.0613 112.545C41.6946 119.162 70.3695 121.926 94.104 118.737C111.048 116.463 120.896 111.751 120.907 106.843V111.99C120.885 116.898 111.048 121.599 94.0931 123.885C70.3587 127.073 41.6837 124.298 30.0504 117.693C26.7204 115.799 25.1425 113.797 25.1534 111.838Z" fill="#313638" stroke="black" stroke-width="0.35" stroke-linecap="round" stroke-linejoin="round"/>
<path d="M112.343 98.7901C101.7 92.7395 75.4843 90.2039 53.774 93.1312C32.0746 96.0477 23.1076 103.317 33.7505 109.368C44.3934 115.418 70.609 117.954 92.3193 115.027C114.019 112.11 122.986 104.841 112.343 98.7901Z" fill="#4C5154" stroke="black" stroke-width="0.35" stroke-linecap="round" stroke-linejoin="round"/>
<path d="M29.7127 101.032L33.4236 98.8442C27.9824 102.055 27.6559 105.907 33.7391 109.367C44.3821 115.418 70.5977 117.954 92.308 115.026C113.768 112.142 122.768 105.004 112.691 98.9966C113.92 99.7366 115.161 100.466 116.391 101.206C127.414 107.768 117.566 115.57 94.1036 118.726C70.3691 121.915 41.6941 119.14 30.0609 112.534C23.4118 108.758 23.76 104.547 29.7127 101.032Z" fill="#4C5154" stroke="black" stroke-width="0.35" stroke-linecap="round" stroke-linejoin="round"/>
<path d="M120.907 110.01V109.444C120.885 111.37 119.351 113.253 116.478 114.972C116.239 115.114 116.032 115.32 115.89 115.56C115.597 116.071 115.325 116.528 115.031 117.029C114.868 117.312 114.617 117.54 114.323 117.682C109.6 119.913 102.462 121.785 93.3205 122.96C93.0702 122.992 92.8199 122.916 92.6349 122.753L91.797 122.013C91.514 121.763 91.144 121.643 90.774 121.687C78.9993 122.971 66.2996 122.873 55.2105 121.621C54.9058 121.589 54.6011 121.687 54.3617 121.893L53.5455 122.622C53.3061 122.84 52.9796 122.938 52.664 122.895C44.1214 121.763 36.7105 119.935 31.6828 117.519C31.4325 117.399 31.2367 117.214 31.1061 116.975C30.8122 116.474 30.4749 115.875 30.2355 115.484C30.1702 115.364 30.0614 115.19 29.909 115.048C29.7131 114.874 29.4737 114.744 29.4193 114.711C27.7217 113.666 26.5572 112.589 25.8717 111.512C25.5778 111.033 25.3711 110.565 25.2622 110.086C25.197 109.803 25.1643 109.52 25.1643 109.248V112.513C25.1643 112.73 25.197 112.992 25.2514 113.209C25.2514 113.22 25.2514 113.242 25.2622 113.253C25.3167 113.481 25.382 113.71 25.4799 113.938C25.4799 113.938 25.4908 113.96 25.4908 113.971C25.5887 114.2 25.7084 114.439 25.8499 114.667C25.8499 114.678 25.8717 114.7 25.8825 114.711C26.024 114.94 26.1872 115.168 26.3831 115.397C26.4158 115.429 26.4484 115.462 26.4811 115.495C26.6661 115.701 26.8511 115.908 27.0687 116.115C27.134 116.18 27.2102 116.235 27.2864 116.3C27.4822 116.474 27.6781 116.659 27.9067 116.833C28.0481 116.942 28.2114 117.051 28.3637 117.16C28.5378 117.29 28.7011 117.421 28.897 117.54C29.2561 117.78 29.637 118.008 30.0505 118.248C35.1217 121.132 43.4358 123.275 53.1537 124.527C54.6664 124.723 56.2117 124.897 57.7896 125.038C57.8331 125.038 57.8767 125.038 57.9202 125.049C59.4437 125.191 60.989 125.31 62.5561 125.419C62.654 125.419 62.752 125.43 62.839 125.441C64.3734 125.539 65.9296 125.615 67.4967 125.67C67.5946 125.67 67.6817 125.67 67.7796 125.67C69.3902 125.724 71.0117 125.757 72.6331 125.757C72.6658 125.757 72.6984 125.757 72.7311 125.757C79.9025 125.778 87.2046 125.365 94.0822 124.44C103.136 123.221 110.166 121.317 114.748 119.053C115.727 118.563 116.598 118.063 117.349 117.551C117.37 117.54 117.381 117.53 117.403 117.519C117.751 117.279 118.078 117.029 118.383 116.779C118.415 116.757 118.448 116.724 118.47 116.702C118.753 116.463 119.014 116.213 119.253 115.973C119.286 115.941 119.318 115.908 119.34 115.875C119.569 115.636 119.765 115.386 119.95 115.146C119.971 115.114 119.993 115.081 120.026 115.037C120.2 114.787 120.341 114.537 120.461 114.297C120.472 114.265 120.494 114.232 120.505 114.2C120.624 113.949 120.711 113.688 120.777 113.427C120.777 113.405 120.777 113.383 120.788 113.362C120.842 113.09 120.885 112.828 120.885 112.556V111.664V110.01H120.907Z" fill="#1D2022" stroke="black" stroke-width="0.35" stroke-linecap="round" stroke-linejoin="round"/>
<g opacity="0.66">
<path d="M59.8347 115.647L61.2712 114.134C61.4779 113.916 61.3365 113.557 61.0426 113.525C52.4238 112.665 44.9368 110.913 40.5947 108.443C40.4424 108.356 40.3009 108.269 40.1594 108.181C39.6044 107.844 38.9515 107.735 38.3094 107.844L32.8247 108.813" stroke="#313638" stroke-width="0.35" stroke-linecap="round" stroke-linejoin="round"/>
<path d="M110.155 99.0838C109.654 98.8009 109.099 98.5179 108.522 98.2459C108.413 98.1914 108.283 98.1697 108.152 98.1914L105.127 98.5397C104.964 98.5614 104.844 98.7791 105.018 98.8662C105.519 99.0947 105.987 99.345 106.422 99.5844C110.361 101.826 111.134 104.253 109.241 106.495C109.045 106.734 109.175 107.093 109.48 107.137L112.179 107.507C112.386 107.539 112.592 107.463 112.745 107.322C115.487 104.688 114.845 101.761 110.144 99.0947L110.155 99.0838Z" fill="#313638"/>
<path d="M56.0804 94.5894C55.6995 94.4153 54.5677 93.9147 54.5677 93.9147C54.4262 93.8494 54.2739 93.8385 54.1324 93.8494C39.9854 95.8517 31.7801 99.8347 31.7583 103.992C31.7583 104.307 32.0086 104.568 32.3242 104.547L35.2733 104.373C35.5345 104.362 35.763 104.155 35.7739 103.894C35.9262 100.172 43.2936 96.6244 55.9498 94.8397C56.1348 94.8179 56.3415 94.6982 56.0804 94.5785V94.5894Z" fill="#313638"/>
<path d="M100.535 100.509C97.1067 98.5615 91.3499 97.1359 84.6682 96.3633L73.3179 102.229L86.1155 111.305C86.5835 111.642 87.1711 111.784 87.7479 111.697C102.047 109.553 107.782 104.634 100.546 100.52L100.535 100.509Z" stroke="#313638" stroke-width="0.35" stroke-linecap="round" stroke-linejoin="round"/>
</g>
<path d="M51.2927 99.3123C52.6203 98.8662 53.1318 98.7138 54.0568 98.4526C52.6094 98.9859 50.988 99.4212 49.9868 100.651C49.3012 101.489 49.2142 102.501 49.8562 103.393C50.3568 104.079 51.0859 104.579 51.815 104.993C57.5609 108.258 71.7189 109.629 83.45 108.051C95.1703 106.473 100.013 102.544 94.2671 99.2797C94.2671 99.2797 96.7374 100.216 97.5427 100.607C99.5777 101.565 100.47 102.86 100.416 104.014C100.296 106.789 94.6806 109.444 85.0824 110.728C71.5012 112.556 55.1015 110.967 48.4415 107.18C47.3642 106.571 46.0909 105.7 45.7318 104.438C45.4271 103.382 45.9603 102.381 46.7439 101.706C47.658 100.912 49.7039 99.8456 51.2818 99.3123H51.2927Z" fill="#1D2022" stroke="black" stroke-width="0.35" stroke-linecap="round" stroke-linejoin="round"/>
<path d="M96.5307 100.314C102.897 103.927 97.5319 108.269 84.5601 110.021C71.5883 111.762 55.9177 110.249 49.5516 106.636C43.1854 103.023 48.5504 98.6812 61.5221 96.9292C74.4939 95.188 90.1645 96.7006 96.5307 100.314Z" fill="#4C5154" stroke="black" stroke-width="0.35" stroke-linecap="round" stroke-linejoin="round"/>
<path d="M96.5307 100.314C102.897 103.927 97.5319 108.269 84.5601 110.021C71.5883 111.762 55.9177 110.249 49.5516 106.636C43.1854 103.023 48.5504 98.6812 61.5221 96.9292C74.4939 95.188 90.1645 96.7006 96.5307 100.314Z" fill="#4C5154"/>
<path d="M98.0324 101.587C98.0324 101.587 97.9562 101.511 97.9127 101.467L74.4394 105.526L95.2138 99.813C95.1377 99.7804 95.0724 99.7477 94.9962 99.7151L74.2327 105.428L90.9371 98.3548C90.8391 98.333 90.7412 98.3004 90.6324 98.2786L73.9497 105.341L85.6047 97.2666C85.485 97.2448 85.3544 97.2339 85.2347 97.2121L73.5906 105.276L79.5759 96.5918C79.4453 96.5918 79.3147 96.5701 79.1841 96.5592L73.1988 105.243V96.3416C73.0574 96.3416 72.9268 96.3416 72.7853 96.3416V105.232L66.7891 96.5266C66.6585 96.5266 66.5171 96.5483 66.3865 96.5483L72.3827 105.254L60.7059 97.1577C60.5862 97.1795 60.4556 97.1904 60.3359 97.2121L72.0235 105.309L55.2756 98.2242C55.1777 98.246 55.0688 98.2786 54.9709 98.3004L71.7297 105.396L50.9444 99.6824C50.8683 99.7151 50.7921 99.7477 50.7268 99.7804L71.5338 105.504L48.0933 101.456C48.0933 101.456 48.0171 101.532 47.9844 101.576L71.4359 105.624L47.0703 103.415C47.0703 103.415 47.0703 103.491 47.0703 103.535L71.4359 105.744L48.0497 105.407C48.0497 105.407 48.1259 105.483 48.1694 105.526L71.5338 105.864L50.9335 107.224C51.0097 107.257 51.0968 107.289 51.173 107.322L71.7406 105.962L55.3518 108.704C55.4606 108.726 55.5585 108.758 55.6674 108.791L72.0453 106.049L60.7494 109.781C60.8691 109.803 60.9997 109.814 61.1303 109.836L72.4044 106.103L66.6694 110.423C66.8 110.423 66.9306 110.445 67.0612 110.456L72.8071 106.125V110.652C72.9485 110.652 73.0791 110.652 73.2206 110.652V106.125L78.9883 110.478C79.1188 110.478 79.2603 110.467 79.3909 110.456L73.6124 106.103L85.0171 109.879C85.1477 109.857 85.2674 109.847 85.398 109.825L73.9715 106.038L90.5671 108.824C90.6759 108.802 90.7847 108.769 90.8935 108.747L74.2544 105.962L95.0941 107.344C95.1703 107.311 95.2465 107.278 95.3227 107.235L74.4612 105.853L98.0541 105.515C98.0541 105.515 98.1303 105.439 98.163 105.396L74.57 105.733L99.0662 103.513C99.0662 103.513 99.0662 103.437 99.0662 103.393L74.5809 105.613L98.065 101.554L98.0324 101.587Z" fill="#8C9499"/>
<path d="M88.0639 103.763C92.1339 106.07 88.7059 108.845 80.4136 109.966C72.1212 111.076 62.0986 110.108 58.0394 107.801C53.9694 105.493 57.3974 102.718 65.6897 101.598C73.9821 100.477 84.0047 101.456 88.0639 103.763Z" fill="#393D3F"/>
<path d="M82.7318 104.623C85.3545 106.114 83.1454 107.909 77.7913 108.628C72.4371 109.346 65.973 108.726 63.3504 107.235C60.7277 105.744 62.9368 103.948 68.291 103.23C73.6451 102.512 80.1092 103.132 82.7318 104.623Z" fill="#F55454"/>
<path d="M18.6784 94.5568C16.2407 89.268 39.0719 73.5212 69.6948 59.3851C100.307 45.2489 127.11 38.0774 129.548 43.3662" stroke="#969696" stroke-width="0.35" stroke-linecap="round" stroke-linejoin="round"/>
<path d="M35.1434 79.8873C36.0569 79.8873 36.7975 79.1468 36.7975 78.2332C36.7975 77.3197 36.0569 76.5791 35.1434 76.5791C34.2298 76.5791 33.4893 77.3197 33.4893 78.2332C33.4893 79.1468 34.2298 79.8873 35.1434 79.8873Z" fill="#F55454"/>
<path d="M64.7807 97.0183L64.7947 97.0231L64.8093 97.0255C67.4942 97.473 70.5454 97.4455 73.3051 97.4206C73.9203 97.415 74.5211 97.4096 75.1 97.4096C92.0932 97.4096 105.822 81.165 105.822 61.1894C105.822 41.2138 92.0932 24.9692 75.1 24.9692C74.6514 24.9692 74.1963 24.9667 73.7376 24.9641C71.0813 24.9495 68.3043 24.9342 65.9657 25.4019L65.9534 25.4044L65.9416 25.4086C53.2711 29.8979 44.3782 44.8395 44.3782 61.1894C44.3782 77.5995 52.0136 92.5899 64.7807 97.0183Z" fill="#313638" stroke="black" stroke-width="0.35"/>
<mask id="mask0_935_34470" style="mask-type:alpha" maskUnits="userSpaceOnUse" x="44" y="25" width="62" height="73">
<ellipse cx="75.1005" cy="61.1895" rx="30.5468" ry="36.0452" fill="#D8E2E5"/>
</mask>
<g mask="url(#mask0_935_34470)">
<rect x="89.7161" y="37.0774" width="15.9192" height="4.97476" transform="rotate(-13.2032 89.7161 37.0774)" fill="#4C5154"/>
<rect x="90.7856" y="43.4753" width="15.9192" height="2.06161" transform="rotate(-13.2032 90.7856 43.4753)" fill="#4C5154"/>
</g>
<ellipse cx="68.6352" cy="61.1895" rx="30.5468" ry="36.0452" fill="#4C5154" stroke="black" stroke-width="0.35"/>
<ellipse cx="68.6356" cy="61.1894" rx="21.6879" ry="26.153" fill="url(#paint0_linear_935_34470)" stroke="black" stroke-width="0.35"/>
<g opacity="0.8">
<mask id="mask1_935_34470" style="mask-type:alpha" maskUnits="userSpaceOnUse" x="47" y="35" width="44" height="53">
<ellipse cx="68.6879" cy="61.153" rx="21.6879" ry="26.153" fill="url(#paint1_linear_935_34470)"/>
</mask>
<g mask="url(#mask1_935_34470)">
<line y1="-0.175" x2="55.0797" y2="-0.175" transform="matrix(0.997859 0.0654031 -0.0165799 0.999863 40.667 32.6499)" stroke="white" stroke-width="0.35"/>
<line y1="-0.175" x2="55.0797" y2="-0.175" transform="matrix(0.997859 0.0654031 -0.0165799 0.999863 40.667 47.959)" stroke="white" stroke-width="0.35"/>
<line y1="-0.175" x2="55.0797" y2="-0.175" transform="matrix(0.997859 0.0654031 -0.0165799 0.999863 40.667 63.2681)" stroke="white" stroke-width="0.35"/>
<line y1="-0.175" x2="55.0797" y2="-0.175" transform="matrix(0.997859 0.0654031 -0.0165799 0.999863 40.667 78.5771)" stroke="white" stroke-width="0.35"/>
<line y1="-0.175" x2="88.0516" y2="-0.175" transform="matrix(0.00354803 0.999994 -0.975806 -0.21864 84.9824 18.5576)" stroke="white" stroke-width="0.35"/>
<line y1="-0.175" x2="88.0516" y2="-0.175" transform="matrix(0.00354803 0.999994 -0.975806 -0.21864 69.8423 20.8296)" stroke="white" stroke-width="0.35"/>
<line y1="-0.175" x2="88.0516" y2="-0.175" transform="matrix(0.00354803 0.999994 -0.975806 -0.21864 54.7031 23.1013)" stroke="white" stroke-width="0.35"/>
</g>
</g>
<path d="M67.7151 48.1654C69.0767 48.0661 70.1839 49.2829 70.1862 50.8823L70.2166 63.6819C70.221 65.283 69.1194 66.6591 67.7578 66.7585C66.3962 66.8578 65.289 65.641 65.2848 64.0418L65.2542 51.2403C65.2519 49.6409 66.3513 48.2631 67.7151 48.1654Z" fill="black" stroke="black" stroke-width="0.35" stroke-miterlimit="10"/>
<path d="M70.6527 72.7494C71.017 70.8527 70.0207 69.0579 68.4274 68.7407C66.8341 68.4235 65.2472 69.7039 64.883 71.6006C64.5187 73.4973 65.515 75.2921 67.1083 75.6093C68.7016 75.9265 70.2885 74.6461 70.6527 72.7494Z" fill="black" stroke="black" stroke-width="0.35" stroke-miterlimit="10"/>
<path d="M129.548 43.3552C131.986 48.644 109.154 64.3908 78.5314 78.527C47.9085 92.6632 21.127 99.8455 18.6785 94.5567" stroke="#969696" stroke-width="0.35" stroke-linecap="round" stroke-linejoin="round"/>
<path d="M118.383 58.5906C119.807 58.5906 120.962 57.4359 120.962 56.0115C120.962 54.5871 119.807 53.4324 118.383 53.4324C116.958 53.4324 115.803 54.5871 115.803 56.0115C115.803 57.4359 116.958 58.5906 118.383 58.5906Z" fill="#F55454"/>
<path d="M45.2374 14.8758C46.6406 14.8758 47.7781 13.7382 47.7781 12.335C47.7781 10.9318 46.6406 9.79419 45.2374 9.79419C43.8341 9.79419 42.6965 10.9318 42.6965 12.335C42.6965 13.7382 43.8341 14.8758 45.2374 14.8758Z" stroke="#969696" stroke-width="0.35" stroke-miterlimit="10" stroke-linecap="round" stroke-linejoin="round"/>
<path d="M21.9467 24.1922C22.6483 24.1922 23.2171 23.6234 23.2171 22.9218C23.2171 22.2201 22.6483 21.6514 21.9467 21.6514C21.2451 21.6514 20.6763 22.2201 20.6763 22.9218C20.6763 23.6234 21.2451 24.1922 21.9467 24.1922Z" stroke="#969696" stroke-width="0.35" stroke-miterlimit="10" stroke-linecap="round" stroke-linejoin="round"/>
<path d="M29.1795 31.8143L24.9114 36.0825L29.1796 40.3507L33.4477 36.0825L29.1795 31.8143Z" stroke="#969696" stroke-width="0.35" stroke-miterlimit="9.9998" stroke-linecap="round" stroke-linejoin="round"/>
<defs>
<linearGradient id="paint0_linear_935_34470" x1="68.6356" y1="35.0364" x2="68.6356" y2="87.3425" gradientUnits="userSpaceOnUse">
<stop stop-color="#F55454"/>
<stop offset="1" stop-color="#E24B4B"/>
</linearGradient>
<linearGradient id="paint1_linear_935_34470" x1="68.6879" y1="35" x2="68.6879" y2="87.3061" gradientUnits="userSpaceOnUse">
<stop stop-color="white"/>
<stop offset="1" stop-color="white" stop-opacity="0"/>
</linearGradient>
</defs>
</svg>
