<svg width="20" height="20" viewBox="0 0 20 20" fill="none" xmlns="http://www.w3.org/2000/svg">
<path fill-rule="evenodd" clip-rule="evenodd" d="M12.1984 0.761734C12.6888 0.94584 12.9784 1.34022 13.133 1.71422C13.2855 2.08338 13.3417 2.50554 13.3417 2.93335V7.93335H14.9167C15.623 7.93335 16.5402 8.14851 16.9218 8.99364C17.3036 9.83906 16.8578 10.668 16.3913 11.1952C16.391 11.1956 16.3906 11.196 16.3903 11.1964L10.084 18.3607C9.80138 18.6815 9.48026 18.9613 9.12245 19.1377C8.7604 19.3163 8.2832 19.4222 7.79336 19.2383C7.30297 19.0542 7.01332 18.6598 6.85878 18.2858C6.70624 17.9166 6.65004 17.4945 6.65004 17.0667V12.0667H5.07504C4.37371 12.0667 3.45898 11.8541 3.07673 11.0107C2.69549 10.1696 3.13494 9.34107 3.59482 8.81121L3.5994 8.80594L9.90775 1.63929C10.1904 1.31848 10.5115 1.03875 10.8693 0.862278C11.2314 0.683712 11.7086 0.577836 12.1984 0.761734ZM11.3417 3.03719L5.15412 10.0667H7.65004C8.20233 10.0667 8.65004 10.5144 8.65004 11.0667V16.9628L14.8376 9.93335H12.3417C11.7894 9.93335 11.3417 9.48563 11.3417 8.93335V3.03719Z" fill="#F3F3F3"/>
</svg>
