<svg width="18" height="24" viewBox="0 0 18 24" fill="none" xmlns="http://www.w3.org/2000/svg">
<path fill-rule="evenodd" clip-rule="evenodd" d="M9 18.75C13.9706 18.75 18 14.7206 18 9.75C18 4.77944 13.9706 0.75 9 0.75C4.02944 0.75 0 4.77944 0 9.75C0 14.7206 4.02944 18.75 9 18.75ZM9.538 14.5074V13.306L9.53816 13.3061C10.8796 13.085 11.6018 12.1931 11.6018 11.1539C11.6018 10.0926 11.049 9.45137 9.66341 8.95753C8.65359 8.60374 8.24825 8.34577 8.24825 7.96989C8.24825 7.6456 8.49153 7.30657 9.25066 7.30657C10.0648 7.30657 10.6022 7.56259 10.903 7.70588C10.9126 7.71046 10.922 7.71493 10.9311 7.71926L11.2775 6.39998C10.8721 6.21574 10.3415 6.03885 9.57495 6.01674V4.99225H8.43248V6.09781C7.18686 6.33366 6.46457 7.13704 6.46457 8.17627C6.46457 9.31128 7.31957 9.89354 8.56516 10.3137C9.43488 10.6085 9.81076 10.8886 9.81076 11.3308C9.81076 11.7877 9.36108 12.0531 8.68305 12.0531C7.92388 12.0531 7.2311 11.8025 6.74462 11.5372L6.3982 12.9007C6.84044 13.1439 7.59958 13.365 8.38085 13.4018V14.5074H9.538Z" fill="url(#paint0_linear_4258_26492)"/>
<rect y="20.75" width="18" height="2.5" rx="1.25" fill="url(#paint1_linear_4258_26492)"/>
<defs>
<linearGradient id="paint0_linear_4258_26492" x1="-4.58273" y1="9.35798" x2="24.8396" y2="9.35798" gradientUnits="userSpaceOnUse">
<stop stop-color="#01BC8D"/>
<stop offset="1" stop-color="#01BC8D" stop-opacity="0"/>
</linearGradient>
<linearGradient id="paint1_linear_4258_26492" x1="-4.58272" y1="21.9456" x2="24.8396" y2="21.9456" gradientUnits="userSpaceOnUse">
<stop stop-color="#8C8C8C"/>
<stop offset="1" stop-color="#8C8C8C" stop-opacity="0"/>
</linearGradient>
</defs>
</svg>
