<svg width="20" height="20" viewBox="0 0 20 20" fill="none" xmlns="http://www.w3.org/2000/svg">
<path fill-rule="evenodd" clip-rule="evenodd" d="M9.07056 2.15312C9.07053 2.15313 9.07058 2.15311 9.07056 2.15312L3.84329 5.23815C3.26405 5.58734 2.9001 6.22822 2.9001 6.92202V13.078C2.9001 13.7848 3.26718 14.4219 3.83997 14.7599L9.06708 17.8448C9.06766 17.8452 9.06825 17.8455 9.06883 17.8459C9.65247 18.1859 10.3597 18.1832 10.9296 17.8469L16.1542 14.7635C16.1551 14.7629 16.156 14.7624 16.1569 14.7619C16.7361 14.4127 17.1001 13.7718 17.1001 13.078V6.92202C17.1001 6.22079 16.7375 5.5881 16.1569 5.23813L10.9331 2.15516C10.9326 2.15484 10.932 2.15451 10.9315 2.15419C10.3478 1.81412 9.64054 1.81683 9.07056 2.15312ZM8.15582 0.602875C9.29359 -0.0684739 10.699 -0.0661 11.8409 0.600835L11.8444 0.602908L17.081 3.69342C18.2071 4.36979 18.9001 5.59032 18.9001 6.92202V13.078C18.9001 14.3991 18.2085 15.6294 17.081 16.3066L17.075 16.3101L11.8444 19.3971C10.7067 20.0684 9.30124 20.0661 8.1593 19.3992L8.15575 19.3971L2.92523 16.3101C1.78971 15.6401 1.1001 14.4052 1.1001 13.078V6.92202C1.1001 5.60089 1.79172 4.37061 2.91922 3.69344L2.92515 3.68988L8.15582 0.602875Z" fill="#F3F3F3"/>
<path d="M6.49682 6H8.13526L9.99714 11.5659L11.859 6H13.4975L10.6617 14H9.33259L6.49682 6ZM5.5 6H7.19574L7.51082 12.1319V14H5.5V6ZM12.7985 6H14.5V14H12.4834V12.1319L12.7985 6Z" fill="#F3F3F3"/>
</svg>
