<svg width="12" height="12" viewBox="0 0 12 12" fill="none" xmlns="http://www.w3.org/2000/svg">
<path d="M8.49753 2H3.49753C1.58253 2 1.04753 2.46 1.00253 4.25C1.96753 4.25 2.74753 5.035 2.74753 6C2.74753 6.965 1.96753 7.745 1.00253 7.75C1.04753 9.54 1.58253 10 3.49753 10H8.49753C10.4975 10 10.9975 9.5 10.9975 7.5V4.5C10.9975 2.5 10.4975 2 8.49753 2Z" stroke="#F8B200" stroke-width="0.9" stroke-linecap="round" stroke-linejoin="round"/>
<path d="M4.49649 2V3.75" stroke="#F8B200" stroke-width="0.9" stroke-linecap="round" stroke-linejoin="round"/>
<path d="M4.49649 8.25V10" stroke="#F8B200" stroke-width="0.9" stroke-linecap="round" stroke-linejoin="round"/>
<path d="M7.5126 4.66508L7.8226 5.29008C7.8526 5.35008 7.9126 5.39508 7.9776 5.40508L8.6676 5.50508C8.8376 5.53008 8.9076 5.74008 8.7826 5.86008L8.2826 6.34508C8.2326 6.39008 8.2126 6.46008 8.2226 6.53008L8.3426 7.21508C8.3726 7.38508 8.1926 7.51508 8.0426 7.43508L7.4276 7.11008C7.3676 7.08008 7.2926 7.08008 7.2326 7.11008L6.6176 7.43508C6.4626 7.51508 6.2876 7.38508 6.3176 7.21508L6.4376 6.53008C6.4476 6.46008 6.4276 6.39508 6.3776 6.34508L5.8826 5.86008C5.7576 5.74008 5.8276 5.53008 5.9976 5.50508L6.6876 5.40508C6.7576 5.39508 6.8126 5.35508 6.8426 5.29008L7.1476 4.66508C7.2176 4.51008 7.4376 4.51008 7.5126 4.66508Z" stroke="#F8B200" stroke-width="0.9" stroke-linecap="round" stroke-linejoin="round"/>
</svg>
