<?xml version="1.0" encoding="UTF-8"?>
<svg width="40px" height="40px" viewBox="0 0 40 40" version="1.1" xmlns="http://www.w3.org/2000/svg" xmlns:xlink="http://www.w3.org/1999/xlink">
    <title>杠杆代币备份</title>
    <g id="杠杆代币备份" stroke="none" stroke-width="1" fill="none" fill-rule="evenodd">
        <g id="Icon/Notice/ic_success">
            <rect id="Rectangle" x="0" y="0" width="40" height="40"></rect>
            <path d="M36,1.70530257e-13 C38.209139,1.70124444e-13 40,1.790861 40,4 L40,36 C40,38.209139 38.209139,40 36,40 L4,40 C1.790861,40 2.705415e-16,38.209139 0,36 L0,4 C-2.705415e-16,1.790861 1.790861,1.70936069e-13 4,1.70530257e-13 L36,1.70530257e-13 Z M5.99629924,24.4666908 L5.5,31.7718262 L6.96793485,29.6585034 C7.00501164,29.7236444 7.29290468,30.2228035 7.87531126,31.0399973 C8.4998346,31.9160048 9.69656314,32.9221817 10.5139172,33.377223 C11.8718912,34.133241 13.8591266,34.3661802 15.2112169,34.3822197 C10.7228063,32.8123462 7.24160152,29.0976043 5.99629924,24.4666908 L5.99629924,24.4666908 Z M20.5,7.1916332 C13.3202983,7.1916332 7.5,13.0119315 7.5,20.1916332 C7.5,27.3713349 13.3202983,33.1916332 20.5,33.1916332 C27.6797017,33.1916332 33.5,27.3713349 33.5,20.1916332 C33.5,13.0119315 27.6797017,7.1916332 20.5,7.1916332 Z M16.607,15.1916332 C18.414,15.1916332 19.376,16.0886332 19.376,17.7656332 C19.376,18.7276332 19.116,19.2606332 18.44,19.7156332 C19.298,20.2746332 19.597,20.8466332 19.597,21.9646332 C19.597,23.8366332 18.622,24.7596332 16.633,24.7596332 C15.385,24.7596332 14.501,24.4216332 13.994,23.7456332 C13.669,23.3036332 13.539,22.9136332 13.5,22.1726332 L13.5,22.1726332 L15.372,21.9516332 C15.463,22.7706332 15.84,23.1476332 16.555,23.1476332 C17.244,23.1476332 17.621,22.7056332 17.621,21.9126332 C17.621,21.0546332 17.088,20.4956332 16.256,20.4956332 L16.256,20.4956332 L15.45,20.4956332 L15.45,18.9616332 L16.126,18.9616332 C16.958,18.9616332 17.4,18.5846332 17.4,17.8566332 C17.4,17.1806332 17.088,16.8036332 16.503,16.8036332 C15.931,16.8036332 15.58,17.1416332 15.489,17.7916332 L15.489,17.7916332 L13.721,17.6616332 C13.825,15.9976332 14.761,15.1916332 16.607,15.1916332 Z M22.4240671,17.8826332 C22.4930705,17.8826332 22.5571999,17.9182035 22.5937343,17.9767416 L22.5937343,17.9767416 L23.679,19.7156332 L24.6999927,17.9811758 C24.7359344,17.9201182 24.8014974,17.8826332 24.8723481,17.8826332 L24.8723481,17.8826332 L26.4257045,17.8826332 C26.4651276,17.8826332 26.5036714,17.8942842 26.5364933,17.9161224 C26.6284547,17.9773093 26.6534023,18.1014605 26.5922154,18.1934219 L26.5922154,18.1934219 L24.602,21.1846332 L26.747,24.6166332 L24.615,24.6166332 L23.406,22.6666332 L22.288,24.6166332 L20.234,24.6166332 L22.47,21.1716332 L20.5955726,18.1890538 C20.5755375,18.157174 20.5649086,18.120286 20.5649086,18.0826332 C20.5649086,17.9721763 20.6544516,17.8826332 20.7649086,17.8826332 L20.7649086,17.8826332 Z M25.7887831,6.00104675 C30.2771937,7.57092023 33.7583985,11.2856621 35.0037008,15.9165756 L35.0037008,15.9165756 L35.5,8.61144018 L34.0320651,10.724763 C33.9949884,10.659622 33.7070953,10.1604629 33.1246887,9.34326913 C32.5001654,8.46726162 31.3034369,7.46108475 30.4860828,7.00604338 C29.1281088,6.25002539 27.1408734,6.01708618 25.7887831,6.00104675 Z" id="形状结合" fill="#EFA842"></path>
            <g id="Group-Copy-6" transform="translate(4.000000, 4.000000)">
                <rect id="Rectangle" x="0" y="0" width="33" height="33"></rect>
                <g id="编组-2" transform="translate(1.500000, 2.000000)"></g>
            </g>
        </g>
    </g>
</svg>