<svg width="122" height="99" viewBox="0 0 122 99" fill="none" xmlns="http://www.w3.org/2000/svg">
<path d="M0.740001 89.3699C-1.91 83.6199 22.91 66.4999 56.2 51.1399C89.48 35.7699 118.61 27.9799 121.26 33.7299" stroke="#1D1D1D" stroke-width="0.4" stroke-linecap="round" stroke-linejoin="round"/>
<path d="M18.64 73.4299C19.63 73.4299 20.44 72.6299 20.44 71.6299C20.44 70.6299 19.64 69.8299 18.64 69.8299C17.64 69.8299 16.84 70.6399 16.84 71.6299C16.84 72.6199 17.65 73.4299 18.64 73.4299Z" fill="#01BC8D"/>
<path d="M51.97 14.1999H51.96H51.97Z" fill="white"/>
<path d="M51.97 14.1999H51.96" stroke="#1D1D1D" stroke-width="0.4" stroke-linecap="round" stroke-linejoin="round"/>
<path d="M59.9033 92.7277L59.923 92.7242L59.9427 92.7207C62.9034 92.6962 66.1677 92.0902 69.117 91.5397C69.7768 91.4233 70.4152 91.3006 71.0356 91.1912C89.225 87.9839 100.862 67.9997 97.0917 46.6195C93.3218 25.2393 75.5618 10.4384 57.3625 13.6475C56.8997 13.7291 56.4073 13.8159 55.8853 13.9079C52.76 14.4387 48.8469 15.1084 46.416 16.065L46.4062 16.0668L46.3964 16.0685C33.6731 23.2672 28.2225 40.729 31.3065 58.2192C34.3905 75.7094 45.407 90.3894 59.9131 92.7259L59.9033 92.7277Z" fill="white" stroke="#1D1D1D" stroke-width="0.4" stroke-linecap="round" stroke-linejoin="round"/>
<path d="M31.2966 58.2212C34.3945 75.7901 45.3971 90.3914 59.9033 92.7279L59.923 92.7244L59.9427 92.721C62.9034 92.6965 66.1677 92.0904 69.1169 91.5399C69.7768 91.4236 70.4152 91.3009 71.0356 91.1915C81.5533 89.3369 89.8746 81.8786 94.2896 71.7887L85.4719 74.7041" fill="#1D1D1D"/>
<path d="M31.2966 58.2212C34.3945 75.7901 45.3971 90.3914 59.9033 92.7279L59.923 92.7244L59.9427 92.721C62.9034 92.6965 66.1677 92.0904 69.1169 91.5399C69.7768 91.4236 70.4152 91.3009 71.0356 91.1915C81.5533 89.3369 89.8746 81.8786 94.2896 71.7887L85.4719 74.7041" stroke="#1D1D1D" stroke-width="0.4" stroke-miterlimit="10"/>
<path d="M63.0945 92.3986C81.1572 89.2136 92.7539 69.3567 88.9964 48.047C85.239 26.7372 67.5502 12.0441 49.4874 15.229C31.4247 18.414 19.828 38.2709 23.5855 59.5807C27.343 80.8904 45.0318 95.5835 63.0945 92.3986Z" fill="white" stroke="#1D1D1D" stroke-width="0.4"/>
<path d="M61.7025 84.2161C75.8444 81.7225 84.8121 65.8948 81.8237 48.9462C78.8352 31.9977 64.9948 20.1917 50.853 22.6853C36.7111 25.1789 27.7434 41.0065 30.7318 57.9551C33.7203 74.9036 47.5607 86.7096 61.7025 84.2161Z" fill="#01BC8D" fill-opacity="0.2"/>
<path d="M53.5285 46.5609L55.9037 46.9053C57.2155 47.0955 58.261 48.324 58.2391 49.6492L58.0003 64.0473L59.8062 64.3091C61.118 64.4993 62.1635 65.7281 62.1415 67.0531C62.1196 68.3785 61.0384 69.2986 59.7266 69.1084L51.3753 67.8976C50.0634 67.7073 49.0178 66.4788 49.0398 65.1535C49.0618 63.8284 50.143 62.908 51.4548 63.0982L53.25 63.3585L53.449 51.3601C52.1372 51.1699 51.0916 49.9414 51.1136 48.6161C51.1356 47.2909 52.2167 46.3707 53.5285 46.5609Z" fill="#1D1D1D"/>
<path d="M52.4406 40.9532C52.4683 39.2856 53.8286 38.1279 55.4791 38.3672C57.1296 38.6065 58.4451 40.1522 58.4175 41.8198C58.3898 43.4873 57.0295 44.6451 55.379 44.4058C53.7285 44.1665 52.413 42.6207 52.4406 40.9532Z" fill="#1D1D1D"/>
<path d="M121.26 33.7199C123.91 39.4699 99.09 56.5899 65.8 71.9499C32.52 87.3199 3.39999 95.1199 0.73999 89.3799" stroke="#1D1D1D" stroke-width="0.4" stroke-linecap="round" stroke-linejoin="round"/>
<path d="M109.12 50.2799C110.67 50.2799 111.92 49.0199 111.92 47.4799C111.92 45.9399 110.66 44.6799 109.12 44.6799C107.58 44.6799 106.32 45.9399 106.32 47.4799C106.32 49.0199 107.58 50.2799 109.12 50.2799Z" fill="#01BC8D"/>
<path d="M29.41 6.02C30.94 6.02 32.17 4.78 32.17 3.26C32.17 1.74 30.93 0.5 29.41 0.5C27.89 0.5 26.65 1.74 26.65 3.26C26.65 4.78 27.89 6.02 29.41 6.02Z" fill="white" stroke="#1D1D1D" stroke-width="0.4" stroke-linecap="round" stroke-linejoin="round"/>
<path d="M4.09002 16.15C4.85002 16.15 5.47002 15.53 5.47002 14.77C5.47002 14.01 4.85002 13.39 4.09002 13.39C3.33002 13.39 2.71002 14.01 2.71002 14.77C2.71002 15.53 3.33002 16.15 4.09002 16.15Z" fill="white" stroke="#1D1D1D" stroke-width="0.4" stroke-linecap="round" stroke-linejoin="round"/>
<path d="M18.24 26.35L18.77 26.14L18.28 26.43C15.04 28.37 13.66 32.36 15.03 35.89L15.24 36.42L14.95 35.93C13.01 32.69 9.02002 31.31 5.49002 32.68L4.96002 32.89L5.45002 32.6C8.69002 30.66 10.07 26.67 8.70002 23.14L8.49002 22.61L8.78002 23.1C10.72 26.34 14.71 27.72 18.24 26.35Z" fill="white" stroke="#1D1D1D" stroke-width="0.4" stroke-linecap="round" stroke-linejoin="round"/>
</svg>
