<svg height="148" viewBox="0 0 148 148" width="148" xmlns="http://www.w3.org/2000/svg" xmlns:xlink="http://www.w3.org/1999/xlink"><linearGradient id="a" x1="61.932094%" x2="77.88277%" y1="32.319461%" y2="47.50391%"><stop offset="0" stop-color="#58ccb6" stop-opacity=".08"/><stop offset="1" stop-color="#58ccb6" stop-opacity="0"/></linearGradient><g fill="none" fill-rule="evenodd"><path d="m0 0h148v148h-148z"/><g fill-rule="nonzero" transform="translate(34 12)"><g fill="#24ae8f"><path d="m.193 114.282 6.0002 4-.1932-68.478 11.3082-19.588 45.408-26.216-6.0002-4-45.408 26.216-11.308 19.588z" fill-opacity=".08"/><path d="m56.716 0 .021 7.452-1.423.821-.016-5.822-43.271 24.981-10.608 18.375.188 66.028 4.56-2.633.005 1.628-5.979 3.452-.191-67.658-.002-.82 11.308-19.588.716-.413z" fill-opacity=".24"/><g transform="translate(6 4)"><g fill-opacity=".16"><path d="m48.2848 35.0776.005 1.629-39.726 22.935-.005-1.628z"/><path d="m48.2613 26.9267.005 1.629-39.726 22.935-.005-1.628z"/><path d="m48.356 60.3447.005 1.628-28.373 16.382-.005-1.629z"/><path d="m48.3775 67.6811.004 1.628-11.352 6.555-.005-1.629z"/><path d="m8.5795 65.3491 39.726-22.935.035 12.223-39.726 22.935z"/></g><path d="m56.7162 0-44.692 25.803-.716.413-11.308 19.588.002.82.191 67.658 56.754-32.766zm-55.297 45.807 10.643-6.145-.035-12.23 43.271-24.981.221 78.258-53.912 31.126zm9.19-16.064.025 9.105-7.923 4.574z" fill-opacity=".24"/></g></g><path d="m6.1932 118.282 56.754-32.766 18.0528 11.984-57 32.5z" fill="url(#a)"/></g></g></svg>