<svg width="80" height="52" viewBox="0 0 80 52" fill="none" xmlns="http://www.w3.org/2000/svg">
<g clip-path="url(#clip0_2790_43623)">
<path d="M14.9697 9.01361L14.9689 -7.00213H65.0311V-6.76966H65.0377V9.01361H72V-8.64449C72 -11.6023 69.6122 -14 66.6667 -14H13.3333C10.3878 -14 8 -11.6023 8 -8.64448V9.01361H14.9697Z" fill="currentColor" fill-opacity="0.05"/>
<path d="M53.3444 -2.93198H24.9V4.06589H53.3444V-2.93198Z" fill="currentColor" fill-opacity="0.05"/>
<path d="M16.4375 14.6024V43H10.153V20.913H8.58192V14.6024H16.4375Z" fill="currentColor" fill-opacity="0.05"/>
<path fill-rule="evenodd" clip-rule="evenodd" d="M29.0086 14.6024H25.8664C22.3956 14.6024 19.5819 17.4278 19.5819 20.913V36.6894C19.5819 40.1747 22.3956 43 25.8664 43H29.0086C32.4794 43 35.293 40.1747 35.293 36.6894V20.913C35.293 17.4278 32.4794 14.6024 29.0086 14.6024ZM25.8597 20.9129H29.0019V36.6893H25.8597V20.9129Z" fill="currentColor" fill-opacity="0.05"/>
<path fill-rule="evenodd" clip-rule="evenodd" d="M44.7275 14.6024H47.8697C51.3405 14.6024 54.1541 17.4278 54.1541 20.913V36.6894C54.1541 40.1747 51.3405 43 47.8697 43H44.7275C41.2567 43 38.443 40.1747 38.443 36.6894V20.913C38.443 17.4278 41.2567 14.6024 44.7275 14.6024ZM47.863 20.9129H44.7208V36.6893H47.863V20.9129Z" fill="currentColor" fill-opacity="0.05"/>
<path d="M71.4152 14.6024H65.1308L63.5611 19.3312L61.9913 14.6024H55.7069L60.4188 28.7971L55.7042 43H61.9886L63.5611 38.2629L65.1335 43H71.418L66.7033 28.7971L71.4152 14.6024Z" fill="currentColor" fill-opacity="0.05"/>
</g>
<defs>
<clipPath id="clip0_2790_43623">
<rect width="80" height="52" fill="white"/>
</clipPath>
</defs>
</svg>
