<svg width="40" height="24" viewBox="0 0 40 24" fill="none" xmlns="http://www.w3.org/2000/svg">
<rect width="40" height="24" rx="12" fill="#F3F3F3" fill-opacity="0.12"/>
<circle cx="28" cy="12" r="10" fill="white"/>
<path fill-rule="evenodd" clip-rule="evenodd" d="M27.0033 6.80256C24.8033 7.32715 23.1673 9.3057 23.1673 11.6663C23.1673 14.4278 25.4059 16.6663 28.1673 16.6663C30.528 16.6663 32.5065 15.0304 33.0311 12.8304C32.281 13.4831 31.3009 13.8785 30.2279 13.8785C27.8681 13.8785 25.9552 11.9655 25.9552 9.60574C25.9552 8.53279 26.3505 7.55266 27.0033 6.80256ZM21.834 11.6663C21.834 8.16854 24.6695 5.33301 28.1673 5.33301C28.6061 5.33301 29.0352 5.37773 29.45 5.4631C29.7535 5.52557 29.974 5.78895 29.982 6.09873C29.9901 6.40851 29.7836 6.683 29.4838 6.76118C28.2203 7.09059 27.2885 8.24018 27.2885 9.60574C27.2885 11.2291 28.6045 12.5451 30.2279 12.5451C31.5935 12.5451 32.7431 11.6133 33.0725 10.3499C33.1506 10.05 33.4251 9.84358 33.7349 9.85164C34.0447 9.85969 34.3081 10.0801 34.3705 10.3837C34.4559 10.7984 34.5007 11.2275 34.5007 11.6663C34.5007 15.1641 31.6651 17.9997 28.1673 17.9997C24.6695 17.9997 21.834 15.1641 21.834 11.6663Z" fill="#1D1D1D"/>
</svg>
