<svg width="40" height="24" viewBox="0 0 40 24" fill="none" xmlns="http://www.w3.org/2000/svg">
<rect width="40" height="24" rx="12" fill="#1D1D1D" fill-opacity="0.12"/>
<circle cx="12" cy="12" r="10" fill="white"/>
<g clip-path="url(#clip0_19669_28931)">
<path d="M12.6661 5.33268C12.6661 4.96449 12.3676 4.66602 11.9994 4.66602C11.6312 4.66602 11.3327 4.96449 11.3327 5.33268V6.3327C11.3327 6.70089 11.6312 6.99936 11.9994 6.99936C12.3676 6.99936 12.6661 6.70089 12.6661 6.3327V5.33268Z" fill="#1D1D1D"/>
<path d="M6.8137 6.8137C7.07405 6.55335 7.49616 6.55335 7.75651 6.8137L8.46363 7.52083C8.72398 7.78118 8.72398 8.20329 8.46363 8.46364C8.20328 8.72399 7.78117 8.72399 7.52082 8.46364L6.8137 7.75651C6.55335 7.49616 6.55335 7.07405 6.8137 6.8137Z" fill="#1D1D1D"/>
<path d="M4.66602 11.9994C4.66602 11.6312 4.96449 11.3327 5.33268 11.3327H6.3327C6.70089 11.3327 6.99936 11.6312 6.99936 11.9994C6.99936 12.3676 6.70089 12.6661 6.3327 12.6661H5.33268C4.96449 12.6661 4.66602 12.3676 4.66602 11.9994Z" fill="#1D1D1D"/>
<path d="M8.46375 16.4773C8.7241 16.217 8.7241 15.7949 8.46375 15.5345C8.2034 15.2742 7.78129 15.2742 7.52094 15.5345L6.81382 16.2417C6.55346 16.502 6.55346 16.9241 6.81381 17.1845C7.07416 17.4448 7.49627 17.4448 7.75662 17.1845L8.46375 16.4773Z" fill="#1D1D1D"/>
<path d="M15.5348 15.5358C15.7952 15.2755 16.2173 15.2755 16.4777 15.5358L17.1848 16.243C17.4451 16.5033 17.4451 16.9254 17.1848 17.1858C16.9244 17.4461 16.5023 17.4461 16.242 17.1858L15.5348 16.4786C15.2745 16.2183 15.2745 15.7962 15.5348 15.5358Z" fill="#1D1D1D"/>
<path d="M17.6661 11.3327C17.2979 11.3327 16.9994 11.6312 16.9994 11.9994C16.9994 12.3676 17.2979 12.6661 17.6661 12.6661H18.6661C19.0343 12.6661 19.3327 12.3676 19.3327 11.9994C19.3327 11.6312 19.0343 11.3327 18.6661 11.3327H17.6661Z" fill="#1D1D1D"/>
<path d="M17.1848 6.81442C17.4451 7.07477 17.4451 7.49688 17.1848 7.75723L16.4777 8.46436C16.2173 8.72471 15.7952 8.72471 15.5349 8.46436C15.2745 8.20401 15.2745 7.7819 15.5348 7.52155L16.242 6.81443C16.5023 6.55407 16.9244 6.55407 17.1848 6.81442Z" fill="#1D1D1D"/>
<path fill-rule="evenodd" clip-rule="evenodd" d="M7.52339 11.9996C7.52339 9.52748 9.52748 7.5234 11.9996 7.5234C14.4718 7.5234 16.4759 9.52748 16.4759 11.9996C16.4759 14.4718 14.4718 16.4759 11.9996 16.4759C9.52748 16.4759 7.52339 14.4718 7.52339 11.9996ZM11.9996 8.85673C10.2639 8.85673 8.85673 10.2639 8.85673 11.9996C8.85673 13.7354 10.2639 15.1425 11.9996 15.1425C13.7354 15.1425 15.1425 13.7354 15.1425 11.9996C15.1425 10.2639 13.7354 8.85673 11.9996 8.85673Z" fill="#1D1D1D"/>
<path d="M12.6661 17.6667C12.6661 17.2986 12.3676 17.0001 11.9994 17.0001C11.6312 17.0001 11.3327 17.2986 11.3327 17.6667V18.6668C11.3327 19.035 11.6312 19.3334 11.9994 19.3334C12.3676 19.3334 12.6661 19.035 12.6661 18.6668V17.6667Z" fill="#1D1D1D"/>
</g>
<defs>
<clipPath id="clip0_19669_28931">
<rect width="16" height="16" fill="white" transform="translate(4 4)"/>
</clipPath>
</defs>
</svg>
