<?xml version="1.0" standalone="no"?><!DOCTYPE svg PUBLIC "-//W3C//DTD SVG 1.1//EN" "http://www.w3.org/Graphics/SVG/1.1/DTD/svg11.dtd"><svg t="1687252904068" class="icon" viewBox="0 0 1024 1024" version="1.1" xmlns="http://www.w3.org/2000/svg" p-id="1519" xmlns:xlink="http://www.w3.org/1999/xlink" width="200" height="200"><path d="M370.7904 512.1024l249.1392 242.688 157.184-153.1904c28.16-24.6784 71.168-23.552 97.9456 2.5088 26.7264 26.0608 27.8528 67.9424 2.56 95.3344l-207.5136 202.1376a73.0112 73.0112 0 0 1-100.4544 0l-299.4176-291.6864v173.3632c0 38.2976-31.8464 69.2736-71.1168 69.2736S128 821.5552 128 783.2576V240.6912c0-38.2976 31.8464-69.2736 71.168-69.2736 39.2192 0 71.0656 30.976 71.0656 69.2736v173.312l299.3664-291.584a72.96 72.96 0 0 1 100.4544 0l207.6672 202.1376a67.9936 67.9936 0 0 1-2.56 95.3344 72.4992 72.4992 0 0 1-97.8944 2.5088L620.032 269.2096l-249.2416 242.8928z m249.2416-69.376c-28.8256 0-54.784 16.896-65.792 42.8032a68.0448 68.0448 0 0 0 15.36 75.5712c20.3776 19.8656 50.9952 25.8048 77.6192 15.0528 26.624-10.752 43.9808-36.0448 43.9808-64.0512 0-18.432-7.4752-36.0448-20.8384-49.0496a72.192 72.192 0 0 0-50.3296-20.3776v0.0512z" p-id="1520"></path></svg>