<svg width="17" height="16" viewBox="0 0 17 16" fill="none" xmlns="http://www.w3.org/2000/svg">
<path d="M8.51525 9.22152C8.2549 8.96117 8.2549 8.53906 8.51525 8.27871C9.17813 7.61583 9.17383 6.58027 8.55892 5.96535C8.55104 5.95747 8.5434 5.94945 8.536 5.94128C8.52898 5.93484 8.52207 5.92822 8.51527 5.92142L5.46861 2.87475C4.85365 2.2598 3.8181 2.25551 3.15522 2.91837C2.49236 3.58126 2.49664 4.61683 3.11158 5.23177L5.75668 7.87687C6.01703 8.13722 6.01703 8.55933 5.75668 8.81968C5.49633 9.08003 5.07422 9.08003 4.81387 8.81968L2.16877 6.17458C1.00945 5.01526 1.05287 3.13515 2.21241 1.97557C3.372 0.815981 5.2521 0.772629 6.41141 1.93194L9.45808 4.97861C9.46596 4.98648 9.4736 4.99451 9.481 5.00268C9.48802 5.00912 9.49492 5.01574 9.50172 5.02254C10.661 6.18183 10.6176 8.06193 9.45806 9.22152C9.19771 9.48187 8.7756 9.48187 8.51525 9.22152Z" fill="#8C8C8C" fill-opacity="0.6"/>
<path d="M7.98769 6.79479C8.24804 7.05514 8.24804 7.47725 7.98769 7.7376C7.32481 8.40048 7.32911 9.43605 7.94402 10.051C7.9519 10.0588 7.95954 10.0669 7.96694 10.075C7.97395 10.0815 7.98086 10.0881 7.98766 10.0949L11.0343 13.1416C11.6493 13.7565 12.6848 13.7608 13.3477 13.0979C14.0106 12.4351 14.0063 11.3995 13.3914 10.7845L10.7463 8.13944C10.4859 7.87909 10.4859 7.45698 10.7463 7.19663C11.0066 6.93628 11.4287 6.93628 11.6891 7.19663L14.3342 9.84173C15.4935 11.0011 15.4501 12.8812 14.2905 14.0407C13.1309 15.2003 11.2508 15.2437 10.0915 14.0844L7.04485 11.0377C7.03698 11.0298 7.02934 11.0218 7.02193 11.0136C7.01492 11.0072 7.00801 11.0006 7.00121 10.9938C5.84192 9.83448 5.88529 7.95438 7.04488 6.79479C7.30523 6.53444 7.72734 6.53444 7.98769 6.79479Z" fill="#8C8C8C" fill-opacity="0.6"/>
</svg>
