<svg width="22" height="22" viewBox="0 0 22 22" fill="none" xmlns="http://www.w3.org/2000/svg">
<g clip-path="url(#clip0_1_89220)">
<path d="M0 11C0 13.9174 1.15893 16.7153 3.22183 18.7782C5.28473 20.8411 8.08262 22 11 22C13.9174 22 16.7153 20.8411 18.7782 18.7782C20.8411 16.7153 22 13.9174 22 11C22 8.08262 20.8411 5.28473 18.7782 3.22183C16.7153 1.15893 13.9174 0 11 0C8.08262 0 5.28473 1.15893 3.22183 3.22183C1.15893 5.28473 0 8.08262 0 11H0Z" fill="#738BD8"/>
<path d="M4.10168 5.0339H17.8983V15.2881H4.10168V5.0339Z" fill="white"/>
<path d="M14.9994 20.0293L3.37921 18.5378C2.12388 18.3767 2.18897 14.4307 2.2994 13.1699L2.85873 6.78427C2.96916 5.52344 4.45622 4.20142 5.70971 4.02649L15.7309 2.62818C16.9844 2.4533 19.5388 7.19684 19.5141 8.46222L19.3277 18.0251M11 6.45333C8.5433 6.45333 6.81998 7.5075 6.81998 7.5075C7.76415 6.66417 9.41415 6.17833 9.41415 6.17833L9.2583 6.0225C7.70915 6.05 6.30665 7.1225 6.30665 7.1225C4.72997 10.4133 4.8308 13.255 4.8308 13.255C6.11415 14.9142 8.0208 14.795 8.0208 14.795L8.67165 13.97C7.5258 13.7225 6.80165 12.705 6.80165 12.705C6.80165 12.705 8.52498 13.8783 11 13.8783C13.475 13.8783 15.1983 12.705 15.1983 12.705C15.1983 12.705 14.4741 13.7225 13.3283 13.97L13.9791 14.795C13.9791 14.795 15.8858 14.9142 17.1691 13.255C17.1691 13.255 17.27 10.4133 15.6933 7.1225C15.6933 7.1225 14.2908 6.05 12.7416 6.0225L12.5858 6.17833C12.5858 6.17833 14.2358 6.66417 15.18 7.5075C15.18 7.5075 13.4566 6.45333 11 6.45333ZM9.10248 9.9275C9.6983 9.9275 10.1841 10.45 10.175 11.0917C10.175 11.7242 9.6983 12.2558 9.10248 12.2558C8.5158 12.2558 8.03915 11.7242 8.03915 11.0917C8.03915 10.45 8.50665 9.9275 9.10248 9.9275ZM12.925 9.9275C13.5208 9.9275 13.9975 10.45 13.9975 11.0917C13.9975 11.7242 13.5208 12.2558 12.925 12.2558C12.3383 12.2558 11.8616 11.7242 11.8616 11.0917C11.8616 10.45 12.3291 9.9275 12.925 9.9275Z" fill="#738BD8"/>
</g>
<defs>
<clipPath id="clip0_1_89220">
<rect width="22" height="22" fill="white"/>
</clipPath>
</defs>
</svg>
