<svg width="17" height="16" viewBox="0 0 17 16" fill="none" xmlns="http://www.w3.org/2000/svg">
<path d="M9.41401 2.00004C9.41401 1.63185 9.11553 1.33337 8.74734 1.33337C8.37915 1.33337 8.08068 1.63185 8.08068 2.00004V9.05457L6.22141 7.1953C5.96107 6.93495 5.53896 6.93495 5.27861 7.1953C5.01826 7.45565 5.01826 7.87776 5.27861 8.13811L8.24173 11.1012C8.36399 11.2434 8.54516 11.3334 8.74734 11.3334L8.74864 11.3334C8.91971 11.3337 9.09089 11.2686 9.22141 11.1381L12.2214 8.13811C12.4818 7.87776 12.4818 7.45565 12.2214 7.1953C11.9611 6.93495 11.539 6.93495 11.2786 7.1953L9.41401 9.0599V2.00004Z" fill="#1D1D1D"/>
<path d="M15.4167 8.00004C15.4167 7.63185 15.1182 7.33337 14.75 7.33337C14.3818 7.33337 14.0833 7.63185 14.0833 8.00004V12C14.0833 12.7364 13.4864 13.3334 12.75 13.3334H4.75001C4.01363 13.3334 3.41668 12.7364 3.41668 12V8.00271C3.41668 7.63452 3.1182 7.33604 2.75001 7.33604C2.38182 7.33604 2.08334 7.63452 2.08334 8.00271V12C2.08334 13.4728 3.27725 14.6667 4.75001 14.6667H12.75C14.2228 14.6667 15.4167 13.4728 15.4167 12V8.00004Z" fill="#1D1D1D"/>
</svg>
