<svg width="22" height="22" viewBox="0 0 22 22" fill="none" xmlns="http://www.w3.org/2000/svg">
<path d="M14.597 16.0459L16.4018 7.53814C16.5613 6.78936 16.1315 6.49471 15.6404 6.67857L5.03329 10.7666C4.30884 11.0487 4.32143 11.4541 4.91071 11.638L7.6238 12.485L13.9221 8.5195C14.2167 8.32307 14.487 8.43386 14.2662 8.63029L9.17164 13.2338L8.97521 16.0333C9.25729 16.0333 9.38064 15.9107 9.52757 15.763L10.8531 14.4862L13.6031 16.5118C14.1067 16.7939 14.4627 16.6469 14.5978 16.0451L14.597 16.0459ZM22 11C22 17.0767 17.0767 22 11 22C4.9233 22 0 17.0767 0 11C0 4.9233 4.9233 0 11 0C17.0767 0 22 4.9233 22 11Z" fill="#1296DB"/>
</svg>
