<svg width="22" height="18" viewBox="0 0 22 18" fill="none" xmlns="http://www.w3.org/2000/svg">
<path d="M21.9975 2.12957C21.1852 2.49394 20.3165 2.73685 19.4077 2.84212C20.3407 2.28341 21.0565 1.39272 21.3943 0.331996C20.5176 0.850214 19.5525 1.23078 18.523 1.43321C18.1015 0.980058 17.592 0.61899 17.0261 0.372439C16.4603 0.125888 15.85 -0.000879256 15.2334 1.22996e-05C12.7401 1.22996e-05 10.7214 2.0324 10.7214 4.54252C10.7214 4.8988 10.7616 5.24697 10.842 5.57896C7.08598 5.38463 3.76426 3.57896 1.53638 0.83402C1.15032 1.50608 0.925116 2.28341 0.925116 3.11742C0.925116 4.69637 1.72136 6.08098 2.93584 6.8988C2.19589 6.8745 1.5042 6.67208 0.892945 6.33199V6.38867C0.892945 8.5911 2.44522 10.4211 4.51225 10.8421C4.13423 10.9474 3.73209 11.0041 3.3219 11.0041C3.03236 11.0041 2.75085 10.9717 2.46935 10.9231C3.0404 12.7288 4.71332 14.0405 6.68383 14.081C5.13959 15.2956 3.19321 16.0243 1.07793 16.0243C0.716001 16.0243 0.354071 16 0.000183105 15.9595C1.99482 17.247 4.36748 18 6.91707 18C15.2173 18 19.7535 11.0769 19.7535 5.07693C19.7535 4.8826 19.7455 4.68017 19.7375 4.48584C20.6302 3.83807 21.3943 3.03645 21.9975 2.12957Z" fill="#55ACEE"/>
</svg>
