<svg width="22" height="22" viewBox="0 0 22 22" fill="none" xmlns="http://www.w3.org/2000/svg">
<path d="M2.44213 9.30703C3.68607 5.06387 6.40814 2.03672 11.3861 1.60488C11.7298 1.57481 12.2089 1.60274 12.5999 1.52754C12.9372 1.46094 13.3476 1.21817 13.7365 1.05918C15.3134 0.412502 18.7982 -0.719725 20.5599 0.670314C22.0874 1.87988 21.806 4.8211 20.8628 6.73965C21.6148 8.2543 22.1734 10.3662 21.849 12.7316C17.4253 12.9121 12.2734 12.7553 7.9765 12.8111C8.12045 15.0949 9.55775 16.8416 11.6911 17.0887C13.7751 17.3293 15.2167 16.1563 16.1642 14.8328H21.4687C20.0894 18.7816 16.5853 21.8432 11.1605 21.4457C9.92728 21.3533 8.96478 20.9967 7.89916 20.5885C6.12025 21.5574 2.18646 22.999 0.622401 20.9773C-0.565685 19.4434 0.19701 16.6525 0.850135 14.8328C2.16928 11.1461 4.68295 7.49375 7.14291 5.41836C7.15795 5.35391 7.2181 5.33887 7.2181 5.26367C5.27592 6.25196 3.96537 7.88906 2.44213 9.30703ZM21.0906 3.55137C21.0175 0.902346 17.5929 1.16231 15.7839 2.22793C17.8035 3.0336 19.2773 4.4 20.4847 6.03926C20.7468 5.20781 21.1185 4.51817 21.0906 3.55137ZM7.9765 10.0074H16.3919C16.147 4.59766 8.24076 5.03379 7.9765 10.0074ZM1.76107 19.5014C2.18431 21.8969 5.54662 21.2008 7.06771 20.1244C5.07181 19.0072 3.82787 17.1209 2.8224 14.9875C2.35404 16.1412 1.48178 17.918 1.76107 19.5014Z" fill="#4694F3"/>
</svg>
