<svg width="26" height="19" viewBox="0 0 26 19" fill="none" xmlns="http://www.w3.org/2000/svg">
<path d="M10.8333 13.3333V5.74999L17.3333 9.55466L10.8333 13.3333ZM25.74 4.30591C25.74 4.30591 25.4854 2.50216 24.7065 1.70699C23.7174 0.663745 22.6092 0.659411 22.1011 0.598745C18.4633 0.333328 13.0054 0.333328 13.0054 0.333328H12.9946C12.9946 0.333328 7.53675 0.333328 3.89892 0.598745C3.38975 0.659411 2.28258 0.663745 1.29242 1.70699C0.5135 2.50216 0.26 4.30699 0.26 4.30699C0.26 4.30699 0 6.42383 0 8.54174V10.5297C0 12.6487 0.26 14.7677 0.26 14.7677C0.26 14.7677 0.5135 16.5714 1.29242 17.3666C2.28258 18.4098 3.5815 18.3762 4.16 18.4857C6.24 18.6882 13 18.75 13 18.75C13 18.75 18.4633 18.7413 22.1011 18.477C22.6103 18.4152 23.7174 18.4109 24.7065 17.3677C25.4865 16.5725 25.74 14.7677 25.74 14.7677C25.74 14.7677 26 12.6497 26 10.5307V8.54391C26 6.42491 25.74 4.30591 25.74 4.30591Z" fill="#FF0000"/>
</svg>
