<svg fill="none" height="120" viewBox="0 0 120 120" width="120" xmlns="http://www.w3.org/2000/svg" xmlns:xlink="http://www.w3.org/1999/xlink"><mask id="a" height="120" maskUnits="userSpaceOnUse" width="120" x="0" y="0"><circle cx="60" cy="60" fill="#12192d" r="60"/></mask><g mask="url(#a)"><circle cx="60" cy="60" fill="#12192d" fill-opacity=".04" r="60"/><path d="m38.3648 90.0994 2.4104-5.5017 3.8565 4.1262 5.7848 3.2094 7.231 1.8339 7.713 1.3754 7.4593-2.4854 5.0744 2.9319 2.8924 4.5969 3.3745 5.043 8.9709 22.681-55.5882 1.969-8.3382-29.693 2.4103-3.668z" fill="#8f96ab"/><path d="m70.162 99.2432-4.4726-4.8018-3.1308 3.3613 12.9706 16.3263z" fill="#be5c5c"/><path d="m35.4297 49.8164 1.9005 4.6484 2.3755-6.5078.9503-7.4375 2.8506-5.5781 4.7512-4.1836 6.6515-2.789 7.6019-.4649 8.0769 1.3945 6.6516 4.1836 5.2262 9.2969v6.9727l-1.4253 3.2539v3.7187l1.9004 4.6485-.4751 6.0429-1.4253 5.5782v5.5781l-1.4254 5.5781-3.3258 5.5781-4.276 3.2539-5.2262 1.8594-6.6516-.4648-6.1765-1.3946-5.2262-1.8593-5.7014-4.1836-3.3258-3.7188-1.4253-3.2539-.4751-4.1836h-3.3258l-1.9005-1.3945-1.4253-3.2539v-6.043l-1.9005-5.1133-1.9004-6.0429 1.4253-4.1836 3.8009-1.3946z" fill="#ffe0b1"/><g stroke-linecap="round" stroke-linejoin="round" stroke-width="1.97647"><path d="m39.7722 87.5869 1.8923 6.4653 5.204 1.3854-1.8924 3.2326 32.1696 17.5488-15.1386-18.4724" stroke="#3e4869"/><path d="m69.5762 98.2087 7.8056 17.8893-.7094-16.5039-2.5148-1.3854.996-3.7673" stroke="#3e4869"/><path d="m57.7493 72.3477c1.2615.7696 3.3115 2.309 6.6231 2.309 3.1894 0 5.0462-.9236 6.1501-1.3854" stroke="#bf7158"/><path d="m53.4917 75.5805c2.3654-2.309 6.4219-5.7612 8.5155-5.08 1.4192.4618 1.67.9238 2.8385.9236.9461-.0001 2.2537-.4618 3.3116-.4618.9461 0 2.8385.9238 3.7846 4.6182" stroke="#bf7158"/><path d="m58.2226 59.417c-.1577 1.6933-.9462 5.634-2.8385 7.8507-2.3654 2.7708-3.7848 3.6944-5.2038 6.0035-1.1844 1.927-.6309 4.1562-.4732 5.0798" stroke="#d8b079"/><path d="m70.9958 45.1013 12.7733-.9236" stroke="#896e47"/><path d="m72.8882 61.2646c-.1577 1.6933-.1893 5.8188.9461 8.7744 1.4193 3.6944 1.8923 5.5416 1.4192 7.8506-.4731 2.3091-2.8614 6.852-9.4617 7.3889-5.6769.4618-9.9347-1.3854-12.3001-3.6944" stroke="#d8b079"/><path d="m69.5764 55.2603c.4731 1.8472 2.3654 4.618 0 6.927-1.7136 1.6728-2.9962 1.3855-3.7847 1.3855" stroke="#d8b079"/><path d="m64.3728 61.2644c-.3154-.6157-.9462-.9236-1.8923-.9236-.8463 0-1.8924.9236-1.8924 1.8472" stroke="#d8b079"/><path d="m88.5 52.0278-7.5693 2.7709" stroke="#404556"/><path d="m62.1965 46.9701c1.2682.8876 1.9372 1.6926 1.8881 3.1003-.1296 3.7211-3.3497 8.1762-5.7712 8.9211-3.0268.9311-9.0153.2353-11.2119-1.7479-2.5044-2.261-3.7958-9.0096-.5452-11.3087 3.2506-2.2992 13.9207-.1681 15.6402 1.0352z" stroke="#404556"/><path d="m62.953 44.178-13.7194-3.2327" stroke="#896e47"/><path d="m64.3728 50.6426c.3154-.1539 2.3654 0 2.3654 0s2.2077.3079 2.3654.4618" stroke="#404556"/><path d="m37.3075 56.051c-.1577-2.7708-1.7927-7.717-5.1042-7.717-4.3616 0-4.7308 5.0799-4.2577 7.3889.4638 2.2642 3.3116 7.3889 3.3116 10.1597s-.2085 7.9799 2.3654 9.2361c1.8923.9236 3.9423 0 4.7308-.4618" stroke="#af803d"/></g><path d="m80.1338 53.097c-.9959-.6562-3.187-2.1656-3.9838-2.9531s-3.6519.3281-4.9798.9844c.9959.9844 1.9919 2.9531 3.9838 2.9531.7968 0 3.6519-.6563 4.9798-.9844z" fill="#fff"/><path d="m49.2588 50.144c.9959-.6562 3.9838-1.9687 5.9757-1.9687 1.1268 0 3.6519 1.3125 4.9799 1.9687-.996.9844-1.8303 1.9688-4.9799 1.9688-2.9879 0-4.6478-1.6406-5.9757-1.9688z" fill="#fff"/><path d="m76.9465 52.1138c0 1.0202-.8472 1.8472-1.8923 1.8472s-1.8923-.827-1.8923-1.8472.8472-1.8472 1.8923-1.8472 1.8923.827 1.8923 1.8472z" fill="#12192d"/><path d="m58.2225 50.1446c0 1.0202-.8472 1.8473-1.8923 1.8473s-1.8923-.8271-1.8923-1.8473.8472-1.8472 1.8923-1.8472 1.8923.827 1.8923 1.8472z" fill="#12192d"/><path d="m60.5877 49.2565c-.4731-.4618-2.5494-1.3854-4.2578-1.3854-2.8385 0-3.7846.4618-6.6231 1.3854-1.8505.6021-2.3654.7697-2.8385.9236" stroke="#c09250" stroke-linecap="round" stroke-linejoin="round" stroke-width="1.97647"/><path d="m72.1663 92.4722c1.5769.7696 4.2525 2.5917 5.9757 3.9375 2.3655 1.8472 9.8456 19.4683 12.211 23.6253" stroke="#3e4869" stroke-linecap="round" stroke-linejoin="round" stroke-width="1.97647"/><path d="m71.1696 101.332v-7.875l-5.8512 1.0572z" fill="#fff" stroke="#3e4869" stroke-linecap="round" stroke-linejoin="round" stroke-width="1.97647"/><path d="m62.2064 102.316 2.9879-7.8746s-2.7826.4157-4.9798 0c-1.9031-.36-5.7766-1.3125-5.7766-1.3125z" fill="#fff" stroke="#3e4869" stroke-linecap="round" stroke-linejoin="round" stroke-width="1.97647"/><path d="m40.7184 84.3545-2.3654 5.5417c-2.8385 2.4629-8.186 6.9431-8.5155 10.1598-.473 4.618 4.5723 21.421 6.78 25.885" stroke="#3e4869" stroke-linecap="round" stroke-linejoin="round" stroke-width="1.97647"/><path d="m34.5686 55.7225c-.9461-1.8472-1.7053-2.5846-2.8385-1.8472-1.4192.9236.4731 4.618 2.3654 7.8507 1.5139 2.5861.6308 5.6956.4731 6.9271" stroke="#d8b079" stroke-linecap="round" stroke-linejoin="round" stroke-width="1.97647"/><path d="m65.3184 63.5732v5.0799" stroke="#d8b079" stroke-linecap="round" stroke-linejoin="round" stroke-width="1.97647"/><path d="m79.3119 30.0846c-3.0277-1.1083-5.3616-.4618-6.15 0 1.2615 1.0776 4.0708 2.8959 6.15 6.2787 1.8924 3.0787 3.4693 8.4991 3.7847 10.8081.9462-.6157 2.3654-5.634 2.3654-7.8507 0-2.7708-2.3654-7.8507-6.1501-9.2361z" fill="#fff" stroke="#838897" stroke-linecap="round" stroke-linejoin="round" stroke-width="1.97647"/><path d="m69.5767 25.2432c3.2422 2.1098 4.1 4.1562 3.7846 5.5416-2.1911-1.3124-9.0383-3.7429-16.1346-3.2812-6.6449.4324-11.8483 5.114-13.9435 7.875-1.8584 2.4491-1.9986 3.874-2.9879 8.8594-.9959 5.0191-1.2532 9.3496-2.9879 11.8125 0-.4618-.9012-4.1293-2.2657-6.7934-1.4193-2.7709-2.926-2.3261-3.3115-6.4653-.4732-5.0799 1.8921-10.1597 5.6768-12.4688 4.897-2.9876 5.6771-1.8472 13.2464-6.9271 7.5693-5.0798 14.6655-.9235 18.9233 1.8473z" fill="#fff" stroke="#838897" stroke-linecap="round" stroke-linejoin="round" stroke-width="1.97647"/><path d="m37.307 56.0504c3.9839-2.9532 1.9919-15.75 5.9758-20.6719 4.3194-5.3364 9.4409-8.3051 16.9314-7.875 16.0848.9235 19.2968 9.2846 20.243 11.1318 1.4192 2.7709 2.8385 9.2361 1.8923 11.5452-.9462 2.309-1.8923 4.1562-1.4193 6.0034.4731 1.8473 2.8385 6.0035 1.4193 10.1597-1.4193 4.1563-1.4193 9.2362-1.4193 11.0834s-2.8385 18.0104-17.9771 17.0868-25.5465-9.6979-25.0734-18.934" stroke="#af803d" stroke-linecap="round" stroke-linejoin="round" stroke-width="1.97647"/><path d="m70.896 51.5291c.7885-.6157 2.5058-1.4345 4.2577-1.3854 2.314.0649 3.7847 1.8472 5.204 2.7708" stroke="#c09250" stroke-linecap="round" stroke-linejoin="round" stroke-width="1.97647"/><path d="m71.4684 48.3337c-1.3958.6812-2.1864 1.3732-2.3655 2.7709-.4731 3.6944 1.987 8.5896 4.2578 9.6979 2.8385 1.3854 8.8645 1.6201 11.354 0 2.8384-1.8472 5.2039-8.3125 2.3654-11.0834-2.8385-2.7708-13.7194-2.309-15.6117-1.3854z" stroke="#404556" stroke-linecap="round" stroke-linejoin="round" stroke-width="1.97647"/><path d="m44.9761 47.4102-11.354.9236" stroke="#404556" stroke-linecap="round" stroke-linejoin="round" stroke-width="1.97647"/></g></svg>