<svg fill="none" height="40" viewBox="0 0 40 40" width="40" xmlns="http://www.w3.org/2000/svg"><circle cx="20" cy="20" fill="#043a32" r="20"/><path d="m19 29c0 .5523.4477 1 1 1s1-.4477 1-1zm1.7071-13.7071c-.3905-.3905-1.0237-.3905-1.4142 0l-6.364 6.364c-.3905.3905-.3905 1.0236 0 1.4142.3906.3905 1.0237.3905 1.4142 0l5.6569-5.6569 5.6569 5.6569c.3905.3905 1.0236.3905 1.4142 0 .3905-.3906.3905-1.0237 0-1.4142zm.2929 13.7071v-13h-2v13z" fill="#fff"/><path d="m13 12h14" stroke="#fff" stroke-linecap="round" stroke-width="2"/></svg>