<svg fill="none" height="83" viewBox="0 0 375 83" width="375" xmlns="http://www.w3.org/2000/svg"><path d="m-21.9961.195129h420.575v29.9088h-420.575z" fill="#00131b" transform="matrix(.99217141 .12488353 -.12488353 .99217141 -.14783 2.748478)"/><path d="m-21.5624.753657h419.575v28.9088h-419.575z" stroke="#1dcca5" stroke-opacity=".4" transform="matrix(.99217141 .12488353 -.12488353 .99217141 -.074684 2.698689)"/><path d="m107.894 32.6251-2.017-.2537-.175.5434 2.016.2538-.777 3.0202.647.0814.777-3.0202 1.806.2273-.778 3.0202.647.0814.793-3.0183 1.986.25.175-.5434-1.986-.25.5-1.9088 2.016.2538.176-.5435-2.016-.2538.792-2.896-.647-.0814-.807 2.8941-1.791-.2254.793-2.896-.662-.0833-.793 2.896-1.986-.25-.175.5435 1.986.25zm.662.0834.485-1.9107 1.805.2273-.485 1.9106z" fill="#138d77"/><path d="m117.848 38.2037.723.0909.394-3.1296 2.624-2.5127 2.805 6.3752.827.1042-3.115-6.9492 4.001-3.8525-.858-.108-6.165 5.9951.839-6.6655-.722-.0909z" fill="#138d77"/><path d="m128.75 28.6627-.859 6.831c-.171 1.3541-.132 2.0163.185 2.6523.494 1.0557 1.398 1.6433 2.828 1.8232 1.339.1686 2.276-.1109 3.046-.8852.563-.5864.797-1.2295.982-2.704l.86-6.831-.722-.0909-.86 6.831c-.138 1.0984-.316 1.6569-.647 2.1043-.589.797-1.406 1.0916-2.58.9439-1.113-.1401-1.765-.5432-2.18-1.375-.295-.5721-.344-1.159-.19-2.3777l.86-6.831z" fill="#138d77"/><path d="m143.986 39.0481c-.315 1.1678-1.397 1.75-2.841 1.5682-1.911-.2405-2.595-1.4882-2.261-4.1363l.267-2.1216c.333-2.6481 1.321-3.7006 3.232-3.4601 1.415.178 2.258 1.0026 2.289 2.214l.668.0382c.103-1.5461-1.012-2.6493-2.892-2.886-1.189-.1496-2.126.1298-2.841.8346-.648.6521-.97 1.5133-1.179 3.1684l-.267 2.1215c-.187 1.4896-.13 2.3681.235 3.117.471.9917 1.36 1.5775 2.654 1.7403 1.926.2424 3.309-.5464 3.604-2.0377z" fill="#138d77"/><path d="m147.676 37.8771c-.168 1.3391-.062 2.1932.364 2.9346.553.956 1.448 1.4966 2.757 1.6614 1.203.1515 2.119-.0847 2.893-.7668.706-.6296 1.07-1.455 1.253-2.9145l.341-2.7083c.169-1.3391.062-2.1932-.364-2.9347-.552-.956-1.447-1.4966-2.741-1.6594-1.219-.1534-2.137.0978-2.909.7649-.706.6295-1.071 1.47-1.253 2.9145zm6.557.7335c-.154 1.2188-.405 1.875-.902 2.4238-.619.671-1.417.9374-2.455.8068-.978-.1231-1.647-.5131-2.092-1.2263-.434-.6813-.539-1.4282-.374-2.7372l.318-2.5278c.153-1.2187.404-1.875.901-2.4238.62-.671 1.417-.9374 2.471-.8048.962.1212 1.632.5111 2.077 1.2244.434.6813.539 1.4281.374 2.7372z" fill="#138d77"/><path d="m157.653 43.2139.723.0909 1.352-10.743-.722-.0909z" fill="#138d77"/><path d="m161.87 43.7447.708.089 1.193-9.4791 4.87 10.2423.677.0853 1.353-10.7431-.708-.089-1.193 9.4792-4.87-10.2424-.677-.0852z" fill="#138d77"/><path d="m2.47371 19.3137-2.016195-.2538-.175396.5435 2.016191.2537-.77754 3.0202.64698.0815.77755-3.0202 1.80555.2272-.77755 3.0202.64699.0815.7926-3.0183 1.9861.25.1754-.5435-1.98611-.25.5001-1.9088 2.01619.2538.1754-.5434-2.0162-.2538.79249-2.8961-.64699-.0814-.80753 2.8942-1.7905-.2254.79249-2.896-.66204-.0834-.79249 2.8961-1.9861-.25-.175399.5434 1.986099.25zm.66204.0833.48504-1.9107 1.80555.2273-.48505 1.9107z" fill="#138d77"/><path d="m12.4285 24.8922.7222.0909.3939-3.1296 2.6243-2.5126 2.8047 6.3752.8276.1041-3.1146-6.9491 4.0003-3.8526-.8576-.108-6.1653 5.9951.8389-6.6655-.7222-.0909z" fill="#138d77"/><path d="m23.3305 15.3512-.8598 6.831c-.1705 1.3542-.1315 2.0163.1858 2.6524.4938 1.0556 1.3981 1.6433 2.8275 1.8232 1.3391.1685 2.276-.1109 3.046-.8852.5629-.5864.7967-1.2295.9823-2.7041l.8598-6.8309-.7222-.091-.8598 6.831c-.1382 1.0984-.3155 1.6569-.647 2.1043-.5894.797-1.406 1.0917-2.5796.9439-1.1134-.1401-1.7658-.5432-2.1808-1.3749-.2948-.5721-.3432-1.159-.1898-2.3778l.8598-6.831z" fill="#138d77"/><path d="m38.5664 25.7366c-.3151 1.1679-1.3972 1.75-2.8416 1.5682-1.9109-.2405-2.5945-1.4882-2.2612-4.1363l.267-2.1215c.3333-2.6482 1.3218-3.7007 3.2326-3.4602 1.4144.1781 2.2582 1.0027 2.2892 2.214l.6677.0382c.1029-1.546-1.0116-2.6493-2.8924-2.886-1.1886-.1496-2.1256.1299-2.841.8346-.6476.6522-.97 1.5134-1.1783 3.1685l-.267 2.1215c-.1875 1.4896-.13 2.368.2343 3.117.4713.9917 1.3605 1.5774 2.6545 1.7403 1.9259.2424 3.3091-.5464 3.6038-2.0378z" fill="#138d77"/><path d="m42.2562 24.5656c-.1685 1.3391-.062 2.1932.3643 2.9347.5522.956 1.4471 1.4966 2.7561 1.6613 1.2037.1516 2.12-.0847 2.8936-.7668.7059-.6295 1.0697-1.455 1.2534-2.9144l.3409-2.7084c.1685-1.3391.062-2.1931-.3643-2.9346-.5522-.956-1.4471-1.4966-2.7411-1.6595-1.2187-.1534-2.1369.0979-2.9086.7649-.7059.6296-1.0716 1.4701-1.2534 2.9145zm6.5565.7336c-.1534 1.2187-.4041 1.875-.9012 2.4238-.6194.671-1.4172.9374-2.4553.8067-.9781-.1231-1.6474-.513-2.0925-1.2263-.434-.6813-.5387-1.4281-.3739-2.7372l.3182-2.5277c.1534-1.2188.4041-1.875.9012-2.4238.6194-.671 1.4171-.9374 2.4704-.8049.9629.1212 1.6322.5112 2.0774 1.2244.4339.6813.5386 1.4282.3739 2.7372z" fill="#138d77"/><path d="m52.2335 29.9024.7222.0909 1.3522-10.743-.7222-.0909z" fill="#138d77"/><path d="m56.4505 30.4332.7072.089 1.1931-9.4791 4.8705 10.2424.6771.0852 1.3522-10.743-.7072-.089-1.1931 9.4791-4.8705-10.2424-.6771-.0852z" fill="#138d77"/><path d="m212.987 45.8257-2.016-.2538-.175.5435 2.016.2538-.778 3.0202.647.0814.778-3.0202 1.806.2273-.778 3.0201.647.0815.793-3.0183 1.986.25.175-.5435-1.986-.25.5-1.9087 2.016.2537.176-.5434-2.017-.2538.793-2.896-.647-.0815-.808 2.8942-1.79-.2254.792-2.896-.662-.0834-.792 2.8961-1.986-.25-.176.5434 1.986.25zm.662.0833.485-1.9106 1.806.2272-.485 1.9107z" fill="#138d77"/><path d="m222.942 51.4043.722.0909.394-3.1297 2.625-2.5126 2.804 6.3752.828.1041-3.115-6.9491 4.001-3.8526-.858-.1079-6.165 5.995.839-6.6655-.723-.0909z" fill="#138d77"/><path d="m233.844 41.8633-.86 6.8309c-.17 1.3542-.131 2.0164.186 2.6524.494 1.0556 1.398 1.6433 2.828 1.8232 1.339.1686 2.276-.1109 3.046-.8852.563-.5864.796-1.2295.982-2.704l.86-6.831-.722-.0909-.86 6.831c-.138 1.0983-.316 1.6568-.647 2.1042-.59.7971-1.406 1.0917-2.58.944-1.113-.1402-1.766-.5433-2.181-1.375-.294-.5721-.343-1.159-.189-2.3777l.859-6.831z" fill="#138d77"/><path d="m249.08 52.2487c-.315 1.1678-1.397 1.75-2.842 1.5682-1.91-.2406-2.594-1.4882-2.261-4.1364l.267-2.1215c.334-2.6481 1.322-3.7006 3.233-3.4601 1.414.178 2.258 1.0026 2.289 2.214l.668.0382c.103-1.5461-1.012-2.6493-2.893-2.8861-1.188-.1496-2.125.1299-2.841.8346-.647.6522-.97 1.5134-1.178 3.1685l-.267 2.1215c-.187 1.4896-.13 2.3681.234 3.117.472.9917 1.361 1.5774 2.655 1.7403 1.926.2424 3.309-.5464 3.604-2.0378z" fill="#138d77"/><path d="m252.77 51.0776c-.169 1.3392-.062 2.1932.364 2.9347.552.956 1.447 1.4966 2.756 1.6614 1.204.1515 2.12-.0847 2.894-.7669.706-.6295 1.07-1.4549 1.253-2.9144l.341-2.7083c.169-1.3392.062-2.1932-.364-2.9347-.552-.956-1.447-1.4966-2.741-1.6595-1.219-.1534-2.137.0979-2.909.765-.706.6295-1.071 1.47-1.253 2.9144zm6.556.7336c-.153 1.2187-.404 1.875-.901 2.4238-.619.671-1.417.9374-2.455.8067-.978-.1231-1.647-.513-2.093-1.2263-.434-.6813-.538-1.4281-.374-2.7371l.319-2.5278c.153-1.2187.404-1.875.901-2.4238.619-.671 1.417-.9374 2.47-.8048.963.1212 1.633.5111 2.078 1.2244.434.6813.538 1.4281.374 2.7371z" fill="#138d77"/><path d="m262.747 56.4145.722.0909 1.353-10.7431-.723-.0909z" fill="#138d77"/><path d="m266.964 56.9453.707.089 1.193-9.4792 4.871 10.2424.677.0852 1.352-10.743-.707-.089-1.193 9.4791-4.871-10.2423-.677-.0853z" fill="#138d77"/><path d="m318.157 59.1059-2.016-.2538-.175.5434 2.016.2538-.778 3.0202.647.0814.778-3.0202 1.805.2273-.777 3.0202.647.0814.792-3.0183 1.987.25.175-.5434-1.986-.25.5-1.9088 2.016.2538.176-.5435-2.017-.2537.793-2.8961-.647-.0814-.808 2.8941-1.79-.2253.792-2.8961-.662-.0833-.792 2.896-1.986-.25-.176.5435 1.986.25zm.662.0833.485-1.9107 1.806.2273-.485 1.9106z" fill="#138d77"/><path d="m328.112 64.6844.722.0909.394-3.1296 2.624-2.5126 2.805 6.3751.828.1042-3.115-6.9491 4.001-3.8526-.858-.108-6.165 5.9951.839-6.6655-.723-.0909z" fill="#138d77"/><path d="m339.014 55.1434-.86 6.831c-.17 1.3542-.131 2.0163.186 2.6523.494 1.0557 1.398 1.6433 2.828 1.8233 1.339.1685 2.276-.111 3.046-.8853.563-.5863.796-1.2294.982-2.704l.86-6.831-.722-.0909-.86 6.831c-.139 1.0984-.316 1.6569-.647 2.1043-.59.797-1.406 1.0916-2.58.9439-1.113-.1401-1.766-.5432-2.181-1.375-.294-.572-.343-1.1589-.189-2.3777l.859-6.831z" fill="#138d77"/><path d="m354.25 65.5288c-.315 1.1678-1.397 1.75-2.842 1.5682-1.911-.2405-2.594-1.4882-2.261-4.1363l.267-2.1216c.334-2.6481 1.322-3.7006 3.233-3.4601 1.414.178 2.258 1.0026 2.289 2.214l.668.0382c.103-1.5461-1.012-2.6493-2.893-2.886-1.188-.1496-2.125.1298-2.841.8346-.647.6521-.97 1.5134-1.178 3.1684l-.267 2.1216c-.188 1.4895-.13 2.368.234 3.1169.472.9917 1.361 1.5775 2.655 1.7403 1.926.2425 3.309-.5464 3.604-2.0377z" fill="#138d77"/><path d="m357.94 64.3578c-.169 1.3391-.062 2.1932.364 2.9346.552.9561 1.447 1.4967 2.756 1.6614 1.204.1515 2.12-.0847 2.894-.7668.706-.6295 1.069-1.455 1.253-2.9145l.341-2.7083c.169-1.3391.062-2.1932-.364-2.9346-.552-.9561-1.447-1.4967-2.741-1.6595-1.219-.1534-2.137.0978-2.909.7649-.706.6295-1.071 1.47-1.253 2.9145zm6.556.7335c-.153 1.2188-.404 1.875-.901 2.4239-.619.6709-1.417.9374-2.455.8067-.978-.1231-1.648-.5131-2.093-1.2263-.434-.6813-.538-1.4282-.374-2.7372l.319-2.5277c.153-1.2188.404-1.875.901-2.4239.619-.6709 1.417-.9374 2.47-.8048.963.1212 1.632.5112 2.078 1.2244.434.6813.538 1.4282.373 2.7372z" fill="#138d77"/><path d="m367.917 69.6946.722.0909 1.352-10.743-.722-.0909z" fill="#138d77"/><path d="m372.134 70.2254.707.089 1.193-9.4791 4.871 10.2423.677.0853 1.352-10.7431-.707-.089-1.193 9.4792-4.871-10.2424-.677-.0852z" fill="#138d77"/><path clip-rule="evenodd" d="m96.5592 34.4465-3.7749-4.8811 4.8718-3.8335 2.3949 3.0756c.418.5421 1.202.6408 1.742.2192.539-.4217.638-1.2115.22-1.7537l-3.1459-4.0812c-.4179-.5422-1.2023-.6409-1.7416-.2192l-5.857 4.5798.3909-3.1057c.0859-.6827-.4017-1.3152-1.0797-1.4006-.678-.0853-1.3072.4067-1.3931 1.0894l-1.225 9.732c-.0859.6828.4017 1.3153 1.0797 1.4006.6781.0854 1.3072-.4066 1.3931-1.0893l.391-3.1057 4.5393 5.8885c.4047.5404 1.2024.6408 1.7416.2192l4.0597-3.1743c.539-.4217.639-1.2115.221-1.7537-.418-.5421-1.203-.6408-1.742-.2192zm-.6771-4.4912c.086-.6827.7151-1.1746 1.3931-1.0893.6781.0854 1.1657.7179 1.0797 1.4006-.0859.6827-.715 1.1747-1.3931 1.0893-.678-.0853-1.1656-.7178-1.0797-1.4006z" fill="#138d77" fill-rule="evenodd"/><path clip-rule="evenodd" d="m201.655 47.6471-3.775-4.8812 4.872-3.8335 2.395 3.0756c.418.5421 1.202.6408 1.741.2192.54-.4217.639-1.2115.221-1.7537l-3.146-4.0812c-.418-.5422-1.203-.6409-1.742-.2192l-5.857 4.5798.391-3.1057c.086-.6827-.402-1.3152-1.08-1.4006-.678-.0853-1.307.4067-1.393 1.0894l-1.225 9.732c-.086.6828.402 1.3153 1.08 1.4006.678.0854 1.307-.4066 1.393-1.0893l.391-3.1057 4.539 5.8885c.405.5404 1.203.6408 1.742.2192l4.06-3.1743c.539-.4217.638-1.2115.22-1.7537-.418-.5421-1.202-.6408-1.741-.2192zm-.677-4.4913c.086-.6827.715-1.1747 1.393-1.0893.678.0853 1.165.7178 1.08 1.4006-.086.6827-.716 1.1746-1.394 1.0893-.678-.0854-1.165-.7179-1.079-1.4006z" fill="#138d77" fill-rule="evenodd"/><path clip-rule="evenodd" d="m306.823 60.9271-3.775-4.8811 4.872-3.8335 2.395 3.0755c.418.5422 1.202.6409 1.741.2193.54-.4217.639-1.2115.221-1.7537l-3.146-4.0812c-.418-.5422-1.203-.6409-1.742-.2193l-5.857 4.5799.391-3.1057c.086-.6827-.402-1.3152-1.08-1.4006-.678-.0853-1.307.4067-1.393 1.0894l-1.225 9.732c-.086.6827.402 1.3153 1.08 1.4006.678.0854 1.307-.4066 1.393-1.0893l.391-3.1057 4.539 5.8884c.405.5405 1.203.6409 1.742.2193l4.059-3.1743c.54-.4217.639-1.2115.221-1.7537-.418-.5421-1.202-.6409-1.741-.2192zm-.677-4.4912c.086-.6827.715-1.1747 1.393-1.0893.678.0853 1.165.7178 1.079 1.4005-.085.6828-.715 1.1747-1.393 1.0894-.678-.0854-1.165-.7179-1.079-1.4006z" fill="#138d77" fill-rule="evenodd"/><path d="m-15 35.0944h420.575v29.9088h-420.575z" fill="#00131b" transform="matrix(.99708408 -.07631077 .07631077 .99708408 -2.72182 -1.042329)"/><path d="m-14.4633 35.5548h419.575v28.9088h-419.575z" stroke="#1dcca5" stroke-opacity=".4" transform="matrix(.99708408 -.07631077 .07631077 .99708408 -2.755388 -1.000031)"/><g fill="#138d77"><path d="m118.751 40.8597-2.026.155-.063.5676 2.026-.1551-.157 3.1147.65-.0497.158-3.1147 1.814-.1389-.157 3.1147.65-.0497.172-3.1159 1.996-.1528.063-.5675-1.996.1527.108-1.9702 2.026-.1551.063-.5676-2.026.1551.197-2.9961-.65.0498-.212 2.9972-1.8.1377.197-2.996-.665.0509-.197 2.996-1.996.1528-.063.5676 1.996-.1528zm.666-.051.092-1.969 1.815-.1389-.093 1.9691z"/><path d="m129.622 44.332.725-.0556-.24-3.1451 2.068-2.9872 4.024 5.6845.832-.0637-4.443-6.1848 3.148-4.5755-.862.0659-4.84 7.1082-.513-6.6985-.726.0555z"/><path d="m138.392 32.8012.526 6.8649c.104 1.3608.275 2.0018.713 2.5614.695.9354 1.699 1.3301 3.135 1.2201 1.346-.103 2.208-.5644 2.807-1.4772.434-.6872.535-1.3641.421-2.8459l-.525-6.8648-.726.0555.525 6.8648c.085 1.1038.023 1.6865-.212 2.1912-.418.8989-1.159 1.3511-2.338 1.4414-1.119.0856-1.839-.1787-2.412-.9105-.404-.5015-.569-1.0668-.662-2.2916l-.526-6.8648z"/><path d="m155.399 39.9256c-.075 1.2073-1.018 1.9943-2.47 2.1054-1.92.147-2.84-.9385-3.043-3.5998l-.164-2.132c-.203-2.6613.554-3.8904 2.475-4.0373 1.421-.1088 2.413.5301 2.686 1.7108l.662-.0963c-.209-1.5354-1.522-2.3931-3.412-2.2484-1.195.0914-2.057.5528-2.616 1.3865-.504.7686-.648 1.677-.52 3.3402l.163 2.1321c.114 1.4969.347 2.3461.853 3.0069.661.8772 1.649 1.2731 2.95 1.1735 1.935-.1481 3.132-1.1979 3.122-2.7181z"/><path d="m158.78 38.0395c.103 1.3457.378 2.1612.944 2.8022.733.8261 1.718 1.1766 3.033 1.0759 1.21-.0926 2.06-.5075 2.682-1.3307.565-.7581.756-1.6397.644-3.1064l-.208-2.7217c-.103-1.3458-.378-2.1612-.945-2.8023-.732-.8261-1.717-1.1765-3.017-1.077-1.225.0937-2.074.5237-2.697 1.3319-.566.7581-.756 1.6547-.644 3.1063zm6.57-.5942c.094 1.2248-.02 1.918-.397 2.5552-.473.7814-1.201 1.2022-2.244 1.2821-.983.0752-1.717-.1729-2.296-.7825-.562-.5806-.814-1.2914-.914-2.6069l-.195-2.5403c-.093-1.2248.021-1.9179.398-2.5552.472-.7814 1.201-1.2021 2.259-1.2831.968-.0741 1.702.1739 2.281.7836.561.5806.813 1.2914.914 2.6069z"/><path d="m169.624 41.2704.725-.0555-.826-10.7962-.726.0555z"/><path d="m173.862 40.9461.71-.0544-.729-9.5261 6.823 9.0597.68-.052-.826-10.7963-.711.0544.729 9.5261-6.822-9.0597-.681.0521z"/><path d="m12.8022 48.9262-2.0262.1551-.063.5675 2.0261-.155-.157 3.1147.6502-.0498.157-3.1147 1.8145-.1389-.157 3.1147.6502-.0497.1721-3.1159 1.996-.1528.063-.5675-1.9959.1527.1077-1.9702 2.0262-.1551.063-.5676-2.0261.1551.1965-2.996-.6502.0497-.2117 2.9972-1.7993.1378.1965-2.9961-.6653.0509-.1965 2.9961-1.996.1527-.063.5676 1.9959-.1528zm.6653-.0509.0926-1.9691 1.8145-.1389-.0926 1.9691z"/><path d="m23.6724 52.3985.7258-.0556-.2407-3.1451 2.0679-2.9872 4.0245 5.6845.8316-.0637-4.4429-6.1847 3.1479-4.5756-.8619.066-4.8401 7.1081-.5126-6.6985-.7258.0556z"/><path d="m32.4432 40.8678.5253 6.8648c.1042 1.3609.2749 2.0018.7132 2.5614.6952.9354 1.6988 1.3301 3.1352 1.2202 1.3458-.103 2.2078-.5645 2.8072-1.4773.4341-.6872.5344-1.3641.421-2.8459l-.5254-6.8648-.7258.0555.5254 6.8648c.0844 1.1039.0226 1.6865-.2126 2.1912-.4179.899-1.1589 1.3511-2.3384 1.4414-1.1189.0856-1.8387-.1787-2.4119-.9105-.4034-.5014-.5683-1.0668-.6621-2.2916l-.5253-6.8648z"/><path d="m49.45 47.9921c-.0749 1.2073-1.0185 1.9944-2.4701 2.1055-1.9203.1469-2.8399-.9386-3.0436-3.5999l-.1632-2.132c-.2036-2.6612.554-3.8903 2.4744-4.0373 1.4213-.1088 2.4132.5301 2.6861 1.7108l.6618-.0963c-.2088-1.5354-1.5216-2.3931-3.4117-2.2484-1.1945.0914-2.0565.5528-2.6163 1.3865-.5039.7687-.6473 1.677-.5201 3.3403l.1632 2.132c.1146 1.4969.3469 2.3461.8537 3.0069.6603.8773 1.6488 1.2731 2.9492 1.1736 1.9355-.1482 3.1327-1.198 3.1228-2.7181z"/><path d="m52.8306 46.106c.103 1.3457.3784 2.1612.9446 2.8023.7324.8261 1.7174 1.1765 3.0329 1.0759 1.2097-.0926 2.06-.5075 2.6815-1.3308.5655-.7581.7566-1.6396.6444-3.1064l-.2083-2.7217c-.103-1.3457-.3784-2.1612-.9446-2.8023-.7324-.826-1.7174-1.1765-3.0178-1.077-1.2248.0937-2.074.5238-2.6966 1.3319-.5655.7581-.7555 1.6548-.6444 3.1064zm6.5706-.5941c.0938 1.2248-.0205 1.9179-.3976 2.5551-.4725.7815-1.2008 1.2022-2.2441 1.2821-.9829.0752-1.7167-.1728-2.2957-.7825-.5615-.5806-.8136-1.2914-.9143-2.6069l-.1944-2.5403c-.0938-1.2247.0205-1.9179.3976-2.5551.4725-.7815 1.2008-1.2022 2.2592-1.2832.9677-.0741 1.7016.1739 2.2805.7836.5616.5806.8137 1.2914.9144 2.6069z"/><path d="m63.6744 49.337.7258-.0556-.8263-10.7962-.7258.0556z"/><path d="m67.9123 49.0126.7107-.0544-.729-9.526 6.8227 9.0597.6804-.0521-.8263-10.7962-.7106.0544.729 9.526-6.8227-9.0597-.6804.0521z"/><path d="m224.361 32.7496-2.026.155-.063.5676 2.026-.1551-.157 3.1147.65-.0497.157-3.1147 1.814-.1389-.157 3.1147.651-.0498.172-3.1158 1.996-.1528.063-.5676-1.996.1528.108-1.9702 2.026-.1551.063-.5676-2.026.1551.196-2.9961-.65.0498-.212 2.9972-1.799.1377.196-2.9961-.665.051-.196 2.996-1.996.1528-.063.5676 1.996-.1528zm.665-.051.093-1.9691 1.814-.1388-.092 1.9691z"/><path d="m235.231 36.2218.726-.0555-.241-3.1451 2.068-2.9872 4.024 5.6844.832-.0636-4.443-6.1848 3.148-4.5755-.862.0659-4.84 7.1082-.513-6.6985-.725.0555z"/><path d="m244.002 24.6911.525 6.8649c.104 1.3608.275 2.0018.713 2.5614.695.9354 1.699 1.3301 3.136 1.2201 1.345-.103 2.207-.5644 2.807-1.4772.434-.6872.534-1.3641.421-2.8459l-.526-6.8649-.726.0556.526 6.8648c.084 1.1038.022 1.6865-.213 2.1912-.418.8989-1.159 1.3511-2.338 1.4413-1.119.0857-1.839-.1786-2.412-.9104-.403-.5015-.568-1.0668-.662-2.2916l-.525-6.8648z"/><path d="m261.009 31.8155c-.075 1.2073-1.019 1.9943-2.47 2.1054-1.921.147-2.84-.9385-3.044-3.5998l-.163-2.132c-.204-2.6613.554-3.8904 2.474-4.0373 1.421-.1088 2.413.5301 2.686 1.7108l.662-.0963c-.209-1.5354-1.522-2.3931-3.412-2.2485-1.194.0915-2.056.5529-2.616 1.3866-.504.7686-.647 1.6769-.52 3.3402l.163 2.1321c.115 1.4969.347 2.3461.854 3.0069.66.8772 1.649 1.2731 2.949 1.1735 1.935-.1481 3.133-1.1979 3.123-2.7181z"/><path d="m264.389 29.9294c.103 1.3457.379 2.1612.945 2.8022.732.8261 1.717 1.1766 3.033 1.0759 1.209-.0926 2.06-.5075 2.681-1.3307.566-.7581.757-1.6397.645-3.1064l-.209-2.7217c-.103-1.3458-.378-2.1612-.944-2.8023-.733-.8261-1.718-1.1766-3.018-1.077-1.225.0937-2.074.5237-2.697 1.3318-.565.7582-.755 1.6548-.644 3.1064zm6.571-.5942c.094 1.2248-.021 1.918-.398 2.5552-.472.7814-1.201 1.2022-2.244 1.282-.983.0753-1.717-.1728-2.296-.7824-.561-.5806-.813-1.2914-.914-2.6069l-.194-2.5403c-.094-1.2248.02-1.9179.397-2.5552.473-.7814 1.201-1.2021 2.26-1.2832.967-.074 1.701.174 2.28.7837.562.5806.814 1.2913.914 2.6069z"/><path d="m275.233 33.1603.726-.0555-.826-10.7962-.726.0555z"/><path d="m279.471 32.836.711-.0544-.729-9.5261 6.822 9.0597.681-.052-.827-10.7963-.71.0544.729 9.5261-6.823-9.0597-.68.0521z"/><path d="m330.06 24.7023-2.026.1551-.063.5676 2.026-.1551-.157 3.1147.65-.0498.157-3.1147 1.815-.1389-.157 3.1148.65-.0498.172-3.1159 1.996-.1527.063-.5676-1.996.1528.108-1.9703 2.026-.1551.063-.5675-2.026.155.196-2.996-.65.0497-.212 2.9973-1.799.1377.197-2.9961-.666.0509-.196 2.9961-1.996.1528-.063.5675 1.996-.1527zm.665-.0509.093-1.9691 1.814-.1389-.092 1.9691z"/><path d="m340.93 28.1746.726-.0555-.241-3.1452 2.068-2.9872 4.025 5.6845.831-.0636-4.443-6.1848 3.148-4.5756-.862.066-4.84 7.1081-.512-6.6985-.726.0556z"/><path d="m349.701 16.6439.525 6.8648c.105 1.3609.275 2.0018.714 2.5614.695.9354 1.698 1.3301 3.135 1.2202 1.346-.103 2.208-.5644 2.807-1.4772.434-.6873.534-1.3641.421-2.846l-.526-6.8648-.725.0556.525 6.8648c.085 1.1038.023 1.6865-.212 2.1912-.418.8989-1.159 1.351-2.339 1.4413-1.119.0856-1.839-.1787-2.412-.9105-.403-.5014-.568-1.0668-.662-2.2915l-.525-6.8649z"/><path d="m366.708 23.7683c-.075 1.2072-1.019 1.9943-2.47 2.1054-1.921.1469-2.84-.9386-3.044-3.5998l-.163-2.1321c-.204-2.6612.554-3.8903 2.474-4.0373 1.422-.1088 2.413.5302 2.686 1.7108l.662-.0963c-.209-1.5353-1.521-2.3931-3.411-2.2484-1.195.0914-2.057.5528-2.617 1.3866-.504.7686-.647 1.6769-.52 3.3402l.163 2.132c.115 1.497.347 2.3461.854 3.007.66.8772 1.649 1.273 2.949 1.1735 1.936-.1481 3.133-1.1979 3.123-2.7181z"/><path d="m370.088 21.8821c.103 1.3458.379 2.1612.945 2.8023.732.8261 1.717 1.1766 3.033 1.0759 1.21-.0926 2.06-.5075 2.681-1.3307.566-.7582.757-1.6397.645-3.1064l-.209-2.7218c-.103-1.3457-.378-2.1611-.944-2.8022-.732-.8261-1.717-1.1766-3.018-1.0771-1.225.0938-2.074.5238-2.696 1.3319-.566.7581-.756 1.6548-.645 3.1064zm6.571-.5941c.094 1.2248-.02 1.9179-.398 2.5552-.472.7814-1.2 1.2022-2.244 1.282-.983.0752-1.716-.1728-2.295-.7825-.562-.5806-.814-1.2913-.915-2.6068l-.194-2.5403c-.094-1.2248.02-1.918.397-2.5552.473-.7814 1.201-1.2022 2.26-1.2832.967-.0741 1.701.174 2.28.7837.562.5806.814 1.2913.915 2.6068z"/><path d="m380.932 25.1131.726-.0556-.826-10.7962-.726.0556z"/><path d="m385.17 24.7887.711-.0543-.729-9.5261 6.823 9.0597.68-.0521-.826-10.7962-.711.0544.729 9.5261-6.823-9.0597-.68.052z"/><path clip-rule="evenodd" d="m108.013 44.9136-4.676-4.0264 4.005-4.7314 2.963 2.5337c.518.4475 1.306.3872 1.75-.1339s.383-1.3149-.135-1.7624l-3.9-3.3686c-.518-.4475-1.306-.3871-1.75.134l-4.821 5.6599-.239-3.1211c-.053-.6861-.657-1.2082-1.3385-1.156-.6814.0521-1.1993.6601-1.1468 1.3462l.7485 9.7802c.0525.6861.6568 1.2082 1.3388 1.1561.681-.0522 1.199-.6602 1.146-1.3463l-.239-3.121 5.627 4.8602c.505.4486 1.306.3872 1.75-.1339l3.342-3.9229c.444-.5211.383-1.3148-.135-1.7623s-1.306-.3871-1.75.134zm-1.563-4.2647c-.053-.6861.465-1.2941 1.147-1.3462.681-.0521 1.286.4699 1.338 1.156.053.6861-.465 1.2941-1.147 1.3462-.681.0522-1.286-.4699-1.338-1.156z" fill-rule="evenodd"/><path clip-rule="evenodd" d="m2.06335 52.9801-4.67575-4.0264 4.00548-4.7315 2.9623 2.5338c.51805.4475 1.30632.3872 1.75023-.134.44391-.5211.38316-1.3148-.13488-1.7623l-3.89972-3.3686c-.51804-.4475-1.306308-.3872-1.75022.1339l-4.82138 5.6599-.23887-3.121c-.05251-.6861-.65689-1.2082-1.33828-1.1561-.68138.0522-1.19928.6601-1.14677 1.3462l.74852 9.7803c.05251.6861.6569 1.2082 1.33828 1.156.68139-.0521 1.19928-.6601 1.14677-1.3462l-.23886-3.1211 5.62652 4.8603c.50469.4485 1.30632.3872 1.75023-.1339l3.34167-3.9229c.44391-.5211.38317-1.3148-.13488-1.7623-.51804-.4475-1.30631-.3872-1.75022.1339zm-1.562656-4.2647c-.05251-.6861.465387-1.2941 1.146776-1.3462.68138-.0522 1.28577.4699 1.33828 1.156s-.46539 1.294-1.14678 1.3462c-.68138.0521-1.285767-.4699-1.338276-1.156z" fill-rule="evenodd"/><path clip-rule="evenodd" d="m213.622 36.8033-4.676-4.0264 4.006-4.7314 2.962 2.5337c.518.4475 1.306.3872 1.75-.1339s.383-1.3149-.135-1.7623l-3.899-3.3687c-.518-.4475-1.307-.3871-1.751.134l-4.821 5.6599-.239-3.1211c-.052-.6861-.657-1.2082-1.338-1.156-.682.0521-1.199.6601-1.147 1.3462l.749 9.7802c.052.6861.656 1.2082 1.338 1.1561.681-.0522 1.199-.6602 1.147-1.3463l-.239-3.121 5.626 4.8602c.505.4486 1.307.3872 1.751-.1339l3.341-3.9228c.444-.5212.383-1.3149-.135-1.7624s-1.306-.3871-1.75.134zm-1.563-4.2647c-.052-.6861.466-1.2941 1.147-1.3462.681-.0522 1.286.4699 1.338 1.156.053.6861-.465 1.2941-1.146 1.3462-.682.0522-1.286-.4699-1.339-1.156z" fill-rule="evenodd"/><path clip-rule="evenodd" d="m319.321 28.7561-4.676-4.0264 4.006-4.7314 2.962 2.5338c.518.4474 1.307.3871 1.75-.134.444-.5211.384-1.3148-.134-1.7623l-3.9-3.3687c-.518-.4474-1.306-.3871-1.75.134l-4.822 5.6599-.239-3.1211c-.052-.6861-.657-1.2082-1.338-1.156-.681.0521-1.199.6601-1.147 1.3462l.749 9.7803c.052.6861.657 1.2081 1.338 1.156.681-.0522 1.199-.6601 1.147-1.3462l-.239-3.1211 5.627 4.8603c.504.4485 1.306.3871 1.75-.134l3.341-3.9228c.444-.5211.384-1.3149-.134-1.7624-.518-.4474-1.307-.3871-1.751.134zm-1.563-4.2647c-.052-.6861.466-1.294 1.147-1.3462.682-.0521 1.286.4699 1.338 1.156.053.6861-.465 1.2941-1.146 1.3463-.682.0521-1.286-.47-1.339-1.1561z" fill-rule="evenodd"/></g></svg>