<svg fill="none" height="624" viewBox="0 0 463 624" width="463" xmlns="http://www.w3.org/2000/svg"><g stroke="#21c397"><g opacity=".2"><path d="m331.679 1h-237.8701c-22.2037 0-40.2034 17.9997-40.2034 40.2034v160.8136c0 22.204 17.9997 40.204 40.2034 40.204 22.2041 0 40.2031-18 40.2031-40.204v-113.9096h197.667c24.054 0 43.554-19.4996 43.554-43.5537 0-24.054-19.5-43.5537-43.554-43.5537z"/><path d="m174.715 194.936c0-22.057 17.778-39.932 39.703-39.932 118.141 0 213.919 96.317 213.919 215.137 0 118.819-95.778 215.136-213.919 215.136-118.1409 0-213.918-96.317-213.918-215.136 0-22.057 17.7785-39.932 39.7034-39.932 21.925 0 39.7035 17.875 39.7035 39.932 0 74.706 60.2201 135.272 134.5111 135.272 74.292 0 134.512-60.566 134.512-135.272 0-74.707-60.22-135.273-134.512-135.273-21.925 0-39.703-17.876-39.703-39.932z" stroke-linecap="round"/></g><g opacity=".1"><path d="m362.598 22.3478h-244.734c-22.8449 0-41.364 18.5191-41.364 41.3636v165.4546c0 22.844 18.5191 41.363 41.364 41.363 22.844 0 41.363-18.519 41.363-41.363v-117.197h203.371c24.748 0 44.811-20.0625 44.811-44.8107 0-24.7481-20.063-44.8105-44.811-44.8105z"/><path d="m201.092 221.88c0-22.701 18.298-41.099 40.863-41.099 121.559 0 220.106 99.104 220.106 221.36s-98.547 221.359-220.106 221.359c-121.558 0-220.1054-99.103-220.1054-221.359 0-22.701 18.2979-41.099 40.8636-41.099s40.8638 18.398 40.8638 41.099c0 76.854 61.951 139.162 138.378 139.162 76.428 0 138.379-62.308 138.379-139.162 0-76.855-61.951-139.162-138.379-139.162-22.565 0-40.863-18.398-40.863-41.099z" stroke-linecap="round"/></g></g></svg>