<svg fill="none" height="51" viewBox="0 0 216 51" width="216" xmlns="http://www.w3.org/2000/svg" xmlns:xlink="http://www.w3.org/1999/xlink"><filter id="a" color-interpolation-filters="sRGB" filterUnits="userSpaceOnUse" height="48.1484" width="210.112" x="5.34766" y=".501099"><feFlood flood-opacity="0" result="BackgroundImageFix"/><feBlend in="SourceGraphic" in2="BackgroundImageFix" mode="normal" result="shape"/><feColorMatrix in="SourceAlpha" result="hardAlpha" type="matrix" values="0 0 0 0 0 0 0 0 0 0 0 0 0 0 0 0 0 0 127 0"/><feOffset/><feGaussianBlur stdDeviation="6.5"/><feComposite in2="hardAlpha" k2="-1" k3="1" operator="arithmetic"/><feColorMatrix type="matrix" values="0 0 0 0 0.996078 0 0 0 0 0.996078 0 0 0 0 0.588235 0 0 0 1 0"/><feBlend in2="shape" mode="normal" result="effect1_innerShadow_85_1365"/></filter><linearGradient id="b" gradientUnits="userSpaceOnUse" x1="110.398" x2="110.398" y1="1.0011" y2="48.1495"><stop offset="0" stop-color="#f1e384"/><stop offset="1" stop-color="#ddad61"/></linearGradient><linearGradient id="c" gradientUnits="userSpaceOnUse" x1="110.398" x2="110.398" y1="1.0011" y2="48.1495"><stop offset="0" stop-color="#3bffcf" stop-opacity=".19"/><stop offset="1" stop-color="#27bd98" stop-opacity=".08"/></linearGradient><linearGradient id="d" gradientUnits="userSpaceOnUse" x1="3.02085" x2="29.6911" y1="18.9073" y2="38.7346"><stop offset="0" stop-color="#eedc91"/><stop offset="1" stop-color="#ebd685" stop-opacity="0"/></linearGradient><mask id="e" height="49" maskUnits="userSpaceOnUse" width="211" x="5" y="0"><path d="m193.388 1.0011h-173.9553l-13.45785 16.114 21.43285 31.0344h172.4593l14.953-16.4124z" fill="url(#c)" stroke="#3bffcf"/></mask><g filter="url(#a)"><path d="m193.388 1.0011h-173.9551l-13.4578 16.114 21.4328 31.0344h172.4601l14.953-16.4124z" fill="url(#b)"/></g><path d="m193.388 1.0011h-173.9551l-13.4578 16.114 21.4328 31.0344h172.4601l14.953-16.4124z" stroke="#f4eb8a"/><g mask="url(#e)" stroke="#fff" stroke-width=".5"><path d="m5.64795 1.75h208.00005"/><path d="m5.64795 25.75h208.00005"/><path d="m5.64795 4.75h208.00005"/><path d="m5.64795 28.75h208.00005"/><path d="m5.64795 7.75h208.00005"/><path d="m5.64795 31.75h208.00005"/><path d="m5.64795 10.75h208.00005"/><path d="m5.64795 34.75h208.00005"/><path d="m5.64795 13.75h208.00005"/><path d="m5.64795 37.75h208.00005"/><path d="m5.64795 16.75h208.00005"/><path d="m5.64795 40.75h208.00005"/><path d="m5.64795 19.75h208.00005"/><path d="m5.64795 43.75h208.00005"/><path d="m5.64795 22.75h208.00005"/><path d="m5.64795 46.75h208.00005"/></g><path d="m19.2061 51-18.10416-26.2807c-1.713175-2.487-.725244-5.0898 2.20661-5.8137l21.20605 30.7837z" fill="url(#d)" opacity=".5"/></svg>