<svg fill="none" height="20" viewBox="0 0 21 20" width="21" xmlns="http://www.w3.org/2000/svg"><path d="m18.8987 5.05311-8.5599 8.55979h-3.08433v-3.0844l8.55993-8.55975c.1204-.12041.278-.1792.4358-.1792.1582 0 .3161.05879.4365.1792l2.212 2.21186c.1206.1205.1792.27812.1792.43623 0 .15765-.0586.31582-.1792.43627zm-2.6481-1.4644-7.45394 7.45379v1.0284h1.02812l7.45392-7.45408zm-5.6547.77119h-6.42578v12.3374h12.33748v-6.4258c0-.42562.3451-.77103.7711-.77103.4259 0 .7711.34541.7711.77103v6.9399c0 .5679-.4603 1.0282-1.0281 1.0282h-13.36565c-.56777 0-1.02812-.4603-1.02812-1.0282v-13.36566c0-.56777.46035-1.02812 1.02812-1.02812h6.93985c.4259 0 .7711.34541.7711.77109s-.3452.77119-.7711.77119z" fill="#000"/></svg>