<svg fill="none" height="19" viewBox="0 0 19 19" width="19" xmlns="http://www.w3.org/2000/svg"><path d="m15.2034 10.2413-5.38465 5.3846c-.00001 0-.00002 0-.00003 0-.08438.0844-.19883.1318-.31815.1318-.11933 0-.23378-.0474-.31816-.1318-.00001 0-.00001 0-.00002 0l-5.38007-5.3798-.35355.3535.35355-.3535c-.01829-.0183-.03499-.0381-.04992-.0592l-.03324-.047-.04306-.0383c-.78299-.69508-1.27571-1.70982-1.27571-2.84108 0-2.09539 1.69191-3.79092 3.775-3.79092 1.18505 0 2.24258.54771 2.93576 1.40746l.38924.48278.38924-.48278c.69317-.85975 1.75067-1.40746 2.93577-1.40746 2.0831 0 3.775 1.69553 3.775 3.79092 0 1.11124-.4755 2.11001-1.2344 2.80378l-.1626.1486z" stroke="#e1e8f5"/></svg>