<svg fill="none" height="19" viewBox="0 0 19 19" width="19" xmlns="http://www.w3.org/2000/svg"><path d="m15.7034 10.4334c-.028.0379-.0591.0742-.0936.1085l-5.4375 5.4376c-.17818.1781-.4198.2782-.67173.2782-.25194 0-.49355-.1001-.67171-.2782l-5.38009-5.3799c-.03833-.0383-.07332-.0798-.10462-.124-.88563-.78629-1.44376-1.93531-1.44376-3.21508 0-2.36978 1.91401-4.29092 4.275-4.29092 1.34306 0 2.54125.62154 3.325 1.59363.78371-.97209 1.98191-1.59363 3.32501-1.59363 2.361 0 4.275 1.92114 4.275 4.29092 0 1.25708-.5387 2.38806-1.397 3.17278z" fill="#ec6767"/></svg>