<svg fill="none" height="331" viewBox="0 0 280 331" width="280" xmlns="http://www.w3.org/2000/svg" xmlns:xlink="http://www.w3.org/1999/xlink"><filter id="a" color-interpolation-filters="sRGB" filterUnits="userSpaceOnUse" height="330" width="268" x="5" y="1"><feFlood flood-opacity="0" result="BackgroundImageFix"/><feBlend in="SourceGraphic" in2="BackgroundImageFix" mode="normal" result="shape"/><feColorMatrix in="SourceAlpha" result="hardAlpha" type="matrix" values="0 0 0 0 0 0 0 0 0 0 0 0 0 0 0 0 0 0 127 0"/><feOffset/><feGaussianBlur stdDeviation="9.5"/><feComposite in2="hardAlpha" k2="-1" k3="1" operator="arithmetic"/><feColorMatrix type="matrix" values="0 0 0 0 0 0 0 0 0 1 0 0 0 0 0.94 0 0 0 0.47 0"/><feBlend in2="shape" mode="normal" result="effect1_innerShadow_85_1365"/></filter><g filter="url(#a)"><path d="m5 12.8091h67l33.304-11.8091h33.696 36.683l33.304 11.8091h64.013v307.0379h-67l-29.464 11.153h-37.536-33.5l-33.5-11.153h-67z" fill="#00131b"/></g><path d="m5.70898 13.1089h68.49352l32.6535-11.79799h71.68l31.857 11.79799h63.715" stroke="#00ffc0"/><path d="m5.70898 318.546h68.49352l32.6535 11.798h71.68l31.857-11.798h63.715" stroke="#00ffc0"/><g stroke="#00ffbf"><circle cx="3" cy="13" r="2.5"/><circle cx="276.537" cy="13" r="2.5"/><circle cx="3" cy="319" r="2.5"/><circle cx="276.537" cy="319" r="2.5"/></g><path d="m108 7.5h70" opacity=".5" stroke="#00c496"/><path d="m108 324.5h70" opacity=".5" stroke="#00c496"/></svg>