<svg fill="none" height="20" viewBox="0 0 20 20" width="20" xmlns="http://www.w3.org/2000/svg"><g fill="#1d1d1d"><path d="m15.5893 1.91107c-.3255-.32544-.8531-.32544-1.1786 0-.3254.32544-.3254.85307 0 1.17851l1.0775 1.07741h-7.98819c-1.84095 0-3.33334 1.49239-3.33334 3.33334v.83333c0 .46024.3731.83333.83334.83333.46023 0 .83333-.37309.83333-.83333v-.83333c0-.92048.74619-1.66667 1.66667-1.66667h7.98819l-1.0775 1.07741c-.3254.32544-.3254.85307 0 1.17851.3255.32544.8531.32544 1.1786 0l2.5-2.5c.3254-.32544.3254-.85307 0-1.17851z"/><path d="m5.58926 13.0896c.32544-.3255.32544-.8531 0-1.1785-.32544-.3255-.85307-.3255-1.17851 0l-2.5 2.5c-.32544.3254-.32544.853 0 1.1785l2.5 2.5c.32544.3254.85307.3254 1.17851 0 .32544-.3255.32544-.8531 0-1.1785l-1.07741-1.0774h7.98815c1.841 0 3.3333-1.4924 3.3333-3.3334v-.8333c0-.4602-.3731-.8333-.8333-.8333s-.8333.3731-.8333.8333v.8333c0 .9205-.7462 1.6667-1.6667 1.6667h-7.98815z"/></g></svg>