<svg fill="none" height="50" viewBox="0 0 40 50" width="40" xmlns="http://www.w3.org/2000/svg" xmlns:xlink="http://www.w3.org/1999/xlink"><filter id="a" color-interpolation-filters="sRGB" filterUnits="userSpaceOnUse" height="21.9619" width="20.2537" x="13.5518" y="27.9727"><feFlood flood-opacity="0" result="BackgroundImageFix"/><feBlend in="SourceGraphic" in2="BackgroundImageFix" mode="normal" result="shape"/><feGaussianBlur result="effect1_foregroundBlur_450_11278" stdDeviation="2"/></filter><filter id="b" color-interpolation-filters="sRGB" filterUnits="userSpaceOnUse" height="17.6211" width="16.4443" x="15.4565" y="30.1426"><feFlood flood-opacity="0" result="BackgroundImageFix"/><feBlend in="SourceGraphic" in2="BackgroundImageFix" mode="normal" result="shape"/><feGaussianBlur result="effect1_foregroundBlur_450_11278" stdDeviation="2"/></filter><filter id="c" color-interpolation-filters="sRGB" filterUnits="userSpaceOnUse" height="28.8398" width="26.2908" x="4.61475" y="-4.73242"><feFlood flood-opacity="0" result="BackgroundImageFix"/><feBlend in="SourceGraphic" in2="BackgroundImageFix" mode="normal" result="shape"/><feGaussianBlur result="effect1_foregroundBlur_450_11278" stdDeviation="2"/></filter><filter id="d" color-interpolation-filters="sRGB" filterUnits="userSpaceOnUse" height="18.0146" width="16.7898" x="9.36548" y=".679688"><feFlood flood-opacity="0" result="BackgroundImageFix"/><feBlend in="SourceGraphic" in2="BackgroundImageFix" mode="normal" result="shape"/><feGaussianBlur result="effect1_foregroundBlur_450_11278" stdDeviation="2"/></filter><filter id="e" color-interpolation-filters="sRGB" filterUnits="userSpaceOnUse" height="68.8398" width="66.2908" x="-16.447" y="-19.8066"><feFlood flood-opacity="0" result="BackgroundImageFix"/><feBlend in="SourceGraphic" in2="BackgroundImageFix" mode="normal" result="shape"/><feGaussianBlur result="effect1_foregroundBlur_450_11278" stdDeviation="12"/></filter><filter id="f" color-interpolation-filters="sRGB" filterUnits="userSpaceOnUse" height="46.0146" width="44.7898" x="-5.69653" y="-8.39355"><feFlood flood-opacity="0" result="BackgroundImageFix"/><feBlend in="SourceGraphic" in2="BackgroundImageFix" mode="normal" result="shape"/><feGaussianBlur result="effect1_foregroundBlur_450_11278" stdDeviation="9"/></filter><filter id="g" color-interpolation-filters="sRGB" filterUnits="userSpaceOnUse" height="26.5146" width="24.7385" x="8.13403" y="-.353516"><feFlood flood-opacity="0" result="BackgroundImageFix"/><feBlend in="SourceGraphic" in2="BackgroundImageFix" mode="normal" result="shape"/><feGaussianBlur result="effect1_foregroundBlur_450_11278" stdDeviation="3"/></filter><filter id="h" color-interpolation-filters="sRGB" filterUnits="userSpaceOnUse" height="34.1055" width="31.4016" x="3.82178" y=".728516"><feFlood flood-opacity="0" result="BackgroundImageFix"/><feBlend in="SourceGraphic" in2="BackgroundImageFix" mode="normal" result="shape"/><feGaussianBlur result="effect1_foregroundBlur_450_11278" stdDeviation="3"/></filter><filter id="i" color-interpolation-filters="sRGB" filterUnits="userSpaceOnUse" height="22.3623" width="21.0945" x="6.85669" y="23.5723"><feFlood flood-opacity="0" result="BackgroundImageFix"/><feBlend in="SourceGraphic" in2="BackgroundImageFix" mode="normal" result="shape"/><feGaussianBlur result="effect1_foregroundBlur_450_11278" stdDeviation="3"/></filter><filter id="j" color-interpolation-filters="sRGB" filterUnits="userSpaceOnUse" height="12.8408" width="13.9333" x="12.1328" y="17.583"><feFlood flood-opacity="0" result="BackgroundImageFix"/><feBlend in="SourceGraphic" in2="BackgroundImageFix" mode="normal" result="shape"/><feGaussianBlur result="effect1_foregroundBlur_450_11278" stdDeviation=".5"/></filter><filter id="k" color-interpolation-filters="sRGB" filterUnits="userSpaceOnUse" height="15.2627" width="21.1399" x="9.99292" y="7.61816"><feFlood flood-opacity="0" result="BackgroundImageFix"/><feBlend in="SourceGraphic" in2="BackgroundImageFix" mode="normal" result="shape"/><feGaussianBlur result="effect1_foregroundBlur_450_11278" stdDeviation="3"/></filter><filter id="l" color-interpolation-filters="sRGB" filterUnits="userSpaceOnUse" height="15.7324" width="13.5198" x="7.79053" y="5.84766"><feFlood flood-opacity="0" result="BackgroundImageFix"/><feBlend in="SourceGraphic" in2="BackgroundImageFix" mode="normal" result="shape"/><feGaussianBlur result="effect1_foregroundBlur_450_11278" stdDeviation="3"/></filter><filter id="m" color-interpolation-filters="sRGB" filterUnits="userSpaceOnUse" height="15.2412" width="18.8184" x="9.85425" y="24.7539"><feFlood flood-opacity="0" result="BackgroundImageFix"/><feBlend in="SourceGraphic" in2="BackgroundImageFix" mode="normal" result="shape"/><feGaussianBlur result="effect1_foregroundBlur_450_11278" stdDeviation="3"/></filter><filter id="n" color-interpolation-filters="sRGB" filterUnits="userSpaceOnUse" height="13.8008" width="11.3713" x="17.0215" y="21.2744"><feFlood flood-opacity="0" result="BackgroundImageFix"/><feBlend in="SourceGraphic" in2="BackgroundImageFix" mode="normal" result="shape"/><feGaussianBlur result="effect1_foregroundBlur_450_11278" stdDeviation=".5"/></filter><filter id="o" color-interpolation-filters="sRGB" filterUnits="userSpaceOnUse" height="17.001" width="6.24634" x="9.59155" y="16.3789"><feFlood flood-opacity="0" result="BackgroundImageFix"/><feBlend in="SourceGraphic" in2="BackgroundImageFix" mode="normal" result="shape"/><feGaussianBlur result="effect1_foregroundBlur_450_11278" stdDeviation=".5"/></filter><linearGradient id="p" gradientUnits="userSpaceOnUse" x1="17.9531" x2="19.9999" y1="8.2548" y2="42.6048"><stop offset="0" stop-color="#9cfdff"/><stop offset=".261476" stop-color="#36bbfc"/><stop offset="1" stop-color="#109de4"/></linearGradient><linearGradient id="q" gradientUnits="userSpaceOnUse" x1="28.784" x2="31.7017" y1="8.83496" y2="28.5292"><stop offset="0" stop-color="#1ea1eb"/><stop offset="1" stop-color="#076cea"/></linearGradient><linearGradient id="r" gradientUnits="userSpaceOnUse" x1="25.9145" x2="13.5166" y1="27.6035" y2="42.9768"><stop offset="0" stop-color="#10bafc"/><stop offset="1" stop-color="#10bafc" stop-opacity="0"/></linearGradient><linearGradient id="s" gradientUnits="userSpaceOnUse" x1="7.74006" x2="7.74006" y1="25.5879" y2="38.5185"><stop offset="0" stop-color="#1f91fa"/><stop offset="1" stop-color="#1f91fa" stop-opacity="0"/></linearGradient><linearGradient id="t" gradientUnits="userSpaceOnUse" x1="21.5675" x2="21.5675" y1="27.7198" y2="41.9513"><stop offset="0" stop-color="#1edcff"/><stop offset="1" stop-color="#1edcff" stop-opacity="0"/></linearGradient><linearGradient id="u" gradientUnits="userSpaceOnUse" x1="32.4086" x2="16.9291" y1="10.368" y2="44.2909"><stop offset="0" stop-color="#0059cb"/><stop offset="1" stop-color="#0059cb" stop-opacity=".66"/></linearGradient><linearGradient id="v" gradientUnits="userSpaceOnUse" x1="32.9864" x2="16.8198" y1="26.4713" y2="43.6571"><stop offset="0" stop-color="#51eaff"/><stop offset="1" stop-color="#38dbff"/></linearGradient><linearGradient id="w" gradientUnits="userSpaceOnUse" x1="12.1044" x2="5.3241" y1="27.9616" y2="32.1909"><stop offset="0" stop-color="#0056c8"/><stop offset="1" stop-color="#188cff"/></linearGradient><linearGradient id="x" gradientUnits="userSpaceOnUse" x1="21.283" x2="24.4957" y1="31.316" y2="38.2553"><stop offset="0" stop-color="#0c93f4"/><stop offset="1" stop-color="#25beff"/></linearGradient><linearGradient id="y" gradientUnits="userSpaceOnUse" x1="32.3819" x2="25.2338" y1="15.5952" y2="18.9882"><stop offset="0" stop-color="#3ab7ff"/><stop offset="1" stop-color="#5ad7ff"/></linearGradient><linearGradient id="z" gradientUnits="userSpaceOnUse" x1="19.9999" x2="19.9999" y1="9.33691" y2="39.2183"><stop offset="0" stop-color="#9fffff"/><stop offset="1" stop-color="#3ec7fc"/></linearGradient><linearGradient id="A" gradientUnits="userSpaceOnUse" x1="24.2035" x2="23.0935" y1="8.35014" y2="14.2335"><stop offset="0" stop-color="#1276e5"/><stop offset="1" stop-color="#118df5"/></linearGradient><linearGradient id="B" gradientUnits="userSpaceOnUse" x1="14.0764" x2="8.33247" y1="21.0236" y2="20.3344"><stop offset="0" stop-color="#d8fcff"/><stop offset="1" stop-color="#9dfdff"/></linearGradient><linearGradient id="C" gradientUnits="userSpaceOnUse" x1="20.9507" x2="19.5058" y1="18.4034" y2="29.4554"><stop offset="0" stop-color="#5bc4ff"/><stop offset="1" stop-color="#22a7fc"/></linearGradient><linearGradient id="D" gradientUnits="userSpaceOnUse" x1="9.89784" x2="9.2422" y1="32.2224" y2="38.9515"><stop offset="0" stop-color="#fff"/><stop offset="1" stop-color="#50e3ff"/></linearGradient><mask id="E" height="36" maskUnits="userSpaceOnUse" width="30" x="5" y="7"><path d="m7.40122 38.2107c.50974 1.0194 3.99678 3.1665 5.67668 4.1126 3.3828.5098 6.8158.2124 8.1095 0 1.3902-.4634 5.2905-3.3596 7.0668-4.7498.8342-.9732 3.8231-6.0821 5.2133-8.515.8805-2.595 1.1778-9.3452 1.2164-12.396-.6487-2.0389-3.1665-5.638-4.3444-7.18267-1.3902-.6951-4.6455-2.0853-6.5455-2.0853-4.8193.09268-8.1481 1.66052-9.2101 2.43285-.8688.71442-2.8499 2.47922-3.823 3.82302-2.31703 3.1859-5.44498 10.1369-5.44498 11.3533.05792 10.7741 1.44812 11.9326 2.0853 13.207z" fill="#d9d9d9"/></mask><mask id="F" height="36" maskUnits="userSpaceOnUse" width="30" x="5" y="7"><path d="m7.40122 38.2107c.50974 1.0194 3.99678 3.1665 5.67668 4.1126 3.3828.5098 6.8158.2124 8.1095 0 1.3902-.4634 5.2905-3.3596 7.0668-4.7498.8342-.9732 3.8231-6.0821 5.2133-8.515.8805-2.595 1.1778-9.3452 1.2164-12.396-.6487-2.0389-3.1665-5.638-4.3444-7.18267-1.3902-.6951-4.6455-2.0853-6.5455-2.0853-4.8193.09268-8.1481 1.66052-9.2101 2.43285-.8688.71442-2.8499 2.47922-3.823 3.82302-2.31703 3.1859-5.44498 10.1369-5.44498 11.3533.05792 10.7741 1.44812 11.9326 2.0853 13.207z" fill="#02a97d"/></mask><mask id="G" height="31" maskUnits="userSpaceOnUse" width="24" x="8" y="9"><path d="m21.0917 13.2355 4.0393-3.89859v5.20859l.8734 5.5678 1.5284 3.0568 4.0394 4.9127-6.4412 1.3101-2.4018 1.31-4.9127 3.4935-5.4586 5.0219v-7.3145-3.821l-1.7467-2.7293-2.18347-5.2402 7.53287-3.166z" fill="#01d5a4"/></mask><g mask="url(#E)"><g mask="url(#F)"><path d="m7.40122 38.2107c.50974 1.0194 3.99678 3.1665 5.67668 4.1126 3.3828.5098 6.8158.2124 8.1095 0 1.3902-.4634 5.2905-3.3596 7.0668-4.7498.8342-.9732 3.8231-6.0821 5.2133-8.515.8805-2.595 1.1778-9.3452 1.2164-12.396-.6487-2.0389-3.1665-5.638-4.3444-7.18267-1.3902-.6951-4.6455-2.0853-6.5455-2.0853-4.8193.09268-8.1481 1.66052-9.2101 2.43285-.8688.71442-2.8499 2.47922-3.823 3.82302-2.31703 3.1859-5.44498 10.1369-5.44498 11.3533.05792 10.7741 1.44812 11.9326 2.0853 13.207z" fill="url(#p)"/></g><path d="m27.0334 23.9339 5.106 4.5953 1.3859-3.4282.4376-7.513-2.4071-6.2001-1.6047-1.89646-4.8142-.65648-.6564 5.39774z" fill="url(#q)"/><path d="m26.6088 27.6035 6.0501.6943-1.3885 6.0501-6.7445 6.7445-10.0174 1.8844-7.53791-4.6615-.99183-5.8518 5.05834-2.182 7.8354 2.182z" fill="url(#r)"/><path d="m10.2973 29.1212-4.96176-3.5333c-.78185 7.7583 1.62885 11.853 2.93193 12.9306z" fill="url(#s)"/><g filter="url(#a)"><ellipse cx="23.6786" cy="38.9532" fill="#1bdbfe" rx="6.05974" ry="7.03643" transform="matrix(.96828602 .24984432 -.24984432 .96828602 10.483178 -4.680603)"/></g><g filter="url(#b)"><ellipse cx="23.6787" cy="38.9533" fill="#13f1ff" rx="4.1759" ry="4.84896" transform="matrix(.96828602 .24984432 -.24984432 .96828602 10.483207 -4.680624)"/></g><path d="m21.4918 33.7001c-1.9379.1817-2.6747 5.5765-2.8008 8.2512l-7.1158-.6813 2.0439-6.283 6.8129-7.7214 11.4164.815-1.0455 6.0737c-2.2962-.2271-7.3732-.6359-9.3111-.4542z" fill="url(#t)"/><g filter="url(#c)"><ellipse cx="17.7602" cy="9.68764" fill="#1bdbfe" rx="9.04517" ry="10.503" transform="matrix(.96828602 .24984432 -.24984432 .96828602 2.983648 -4.130051)"/></g><g filter="url(#d)"><ellipse cx="17.7604" cy="9.68718" fill="#75ffff" rx="4.34677" ry="5.04737" transform="matrix(.96828602 .24984432 -.24984432 .96828602 2.98354 -4.130116)"/></g><path d="m25.1213 9.34981 5.4181.74879c-.4369-1.84479-3.823-3.07463-5.4615-3.45895l-2.9734.91024z" fill="url(#u)"/><path d="m32.7754 15.6106-2.4362-5.5491 4.094.7922 4.0877 13.3258-11.1185 20.1114-16.6777-.8176-6.21324-4.9869-1.2263-12.59 3.92416-9.7287 3.51538-1.7168-2.26917 5.6815-2.88128 7.4808.89929 5.3957 1.96208 6.0498h4.00588l7.6849 2.9431 4.4146-4.4965 4.7417-3.6789 2.2891-5.7227 1.7986-3.9242z" fill="url(#u)"/><path d="m25.4243 8.64443-.7092-1.10634c1.3843.31771 4.2457 1.53185 5.5033 2.09921z" fill="#39dbff"/><path d="m32.9277 15.4072v-2.2959l2.1647 3.4766-.5248 3.411z" fill="#2ce6ff"/><path d="m32.2117 28.5859 1.9227-2.915-.4962 7.2565-9.8614 10.7297-10.8537-.3101-2.915-2.977 4.0313.8062 2.4809 1.3645 5.2718-.5582 3.5352-3.7833 2.915-.9923 1.9227-2.6669z" fill="url(#v)"/><path d="m7.17367 36.1341.1464 1.342-1.7812-1.342-2.15191-8.9279 1.59072-5.0532 4.17238-5.6608-1.4152 4.5872-2.19599 2.7084v2.3423l.488 7.5396z" fill="#39dbff"/><path d="m15.368 11.8119-4.9212 3.2008c0-1.5995 2.355-3.49 3.5326-4.2354z" fill="#8bf8ff"/><path d="m15.313 11.8169-1.4082-.9636c.4694-.4755 1.8825-1.60828 3.7799-2.33461 1.8974-.72634 4.2123-.77205 5.1325-.70411l-5.5873 1.59578z" fill="#eefeff"/><path d="m15.3038 11.835-.683 6.3421c1.4051-.8587 4.6834-3.35 6.147-4.4883z" fill="#27a0ff"/><path d="m5.67285 30.9236c.46834-.078 3.71181-3.9001 5.04525-5.7215 3.0442 1.9515 2.4444 5.5082 1.6963 7.1343-1.8733-.078-5.01368.5413-6.2821.769z" fill="url(#w)"/><path d="m24.4957 37.6607-6.4254-3.6994c3.1153-3.349 5.5816-4.2511 6.4254-4.2836z" fill="url(#x)"/><path d="m32.7994 15.525-7.6742-1.3062-.8164 4.2453 2.9391 4.0003c.3919-.9797 3.8643-5.0345 5.5515-6.9394z" fill="url(#y)"/><g mask="url(#G)"><path d="m21.0917 13.2355 4.0393-3.89859v5.20859l.8734 5.5678 1.5284 3.0568 4.0394 4.9127-6.4412 1.3101-2.4018 1.31-4.9127 3.4935-5.4586 5.0219v-7.3145-3.821l-1.7467-2.7293-2.18347-5.2402 7.53287-3.166z" fill="url(#z)"/><g filter="url(#e)"><ellipse cx="16.6984" cy="14.6134" fill="#77ecff" rx="9.04517" ry="10.503" transform="matrix(.96828602 .24984432 -.24984432 .96828602 4.180648 -3.708551)"/></g><g filter="url(#f)"><ellipse cx="16.6983" cy="14.6139" fill="#8af8ff" rx="4.34677" ry="5.04737" transform="matrix(.96828602 .24984432 -.24984432 .96828602 4.180769 -3.70851)"/></g><g filter="url(#g)"><ellipse cx="20.5034" cy="12.9038" fill="#c5fbff" rx="6.29952" ry="7.31485" transform="matrix(.96828602 .24984432 -.24984432 .96828602 3.874186 -4.713427)"/></g><g filter="url(#h)"><ellipse cx="19.5226" cy="17.7814" fill="#d7fff8" rx="9.59449" ry="11.1409" transform="matrix(.96828602 .24984432 -.24984432 .96828602 5.061721 -4.313692)"/></g><g filter="url(#i)"><ellipse cx="17.404" cy="34.7535" fill="#c5fbff" rx="4.4974" ry="5.22227" transform="matrix(.96828602 .24984432 -.24984432 .96828602 9.234915 -3.246119)"/></g><path d="m25.3255 14.2335-4.8016-.5775 5.1391-6.30346z" fill="url(#A)"/><path d="m13.9414 20.5364.7682-3.1282-7.51453 2.2546 3.34893 5.9698z" fill="url(#B)"/><path d="m15.8568 32.6478-3.535-.3421-.1853 7.9084 6.2711-6.0549z" fill="#1b80ec"/><path d="m27.4689 22.2373c-1.5003 1.7504-2.575 5.8495-2.8131 7.457l8.5733-.5358z" fill="#0ba5fb"/></g><g filter="url(#j)"><path clip-rule="evenodd" d="m17.4685 23.5696 2.3779 3.64 2.6965-1.7497c.4707-.2776 1.0409-.1866 1.2972.2045.2564.3911.1071.947-.3373 1.2649l-3.5585 2.3091c-.4763.3035-1.0716.2257-1.3399-.1752l-2.8593-4.377-.6764 2.2913c-.149.5046-.696.8605-1.2197.792-.5231-.0704-.8277-.5356-.6781-1.0422l2.1164-7.1686c.1489-.5046.6959-.8605 1.2196-.792.5237.0684.8283.5337.6788 1.0402l-.6765 2.2913 5.1326-3.3302c.4763-.3035 1.0736-.2254 1.3399.1752l1.9838 3.0316c.2307.4062.0528.9584-.4069 1.2559-.4596.2974-1.0365.2364-1.3171-.1373l-1.4992-2.2983zm3.6248-.5043c-.3887-.0508-.8059.1248-1.0537.4459-.2498.3208-.2837.7233-.084 1.0186.197.297.5895.4284.989.3348.4015-.0935.7328-.3954.8415-.7634.0712-.2414.0393-.486-.0904-.6797-.1319-.194-.3467-.3228-.6024-.3562z" fill="#d2fffc" fill-rule="evenodd"/></g><path clip-rule="evenodd" d="m17.4685 23.5696 2.3779 3.64 2.6965-1.7497c.4707-.2776 1.0409-.1866 1.2972.2045.2564.3911.1071.947-.3373 1.2649l-3.5585 2.3091c-.4763.3035-1.0716.2257-1.3399-.1752l-2.8593-4.377-.6764 2.2913c-.149.5046-.696.8605-1.2197.792-.5231-.0704-.8277-.5356-.6781-1.0422l2.1164-7.1686c.1489-.5046.6959-.8605 1.2196-.792.5237.0684.8283.5337.6788 1.0402l-.6765 2.2913 5.1326-3.3302c.4763-.3035 1.0736-.2254 1.3399.1752l1.9838 3.0316c.2307.4062.0528.9584-.4069 1.2559-.4596.2974-1.0365.2364-1.3171-.1373l-1.4992-2.2983zm3.6248-.5043c-.3887-.0508-.8059.1248-1.0537.4459-.2498.3208-.2837.7233-.084 1.0186.197.297.5895.4284.989.3348.4015-.0935.7328-.3954.8415-.7634.0712-.2414.0393-.486-.0904-.6797-.1319-.194-.3467-.3228-.6024-.3562z" fill="url(#C)" fill-rule="evenodd"/><g filter="url(#k)"><path d="m15.9929 16.8812 4.5445-3.263 4.5955.602-4.2807.1157z" fill="#ccfcff"/></g><path d="m15.9929 16.8812 4.5445-3.263 4.5955.602-4.2807.1157z" fill="#e9feff"/><g filter="url(#l)"><path d="m14.8848 15.5804.4256-3.7327-1.5199.9848 1.0335-.4134z" fill="#ccfcff"/></g><path d="m14.8848 15.5804.4256-3.7327-1.5199.9848 1.0335-.4134z" fill="#e9feff"/><g filter="url(#m)"><path d="m18.0619 33.9954-2.2077-1.3413 1.8723.4751 4.9462-2.3753z" fill="#ccfcff"/></g><path d="m18.0619 33.9954-2.2077-1.3413 1.8723.4751 4.9462-2.3753z" fill="#ccfcff"/><g filter="url(#n)"><path clip-rule="evenodd" d="m27.3363 22.2906c.0549.0327.073.1037.0404.1586-.7293 1.2283-2.2785 4.3979-2.6458 7.2446l-.0073.0569-.0497.0286c-1.2711.7318-4.343 2.6106-6.4654 4.2716-.0503.0393-.123.0305-.1624-.0198-.0394-.0504-.0305-.1231.0198-.1625 2.1081-1.6497 5.14-3.5083 6.443-4.2613.3862-2.8769 1.9374-6.0444 2.6688-7.2762.0326-.055.1036-.0731.1586-.0405z" fill="#d2fff6" fill-rule="evenodd"/></g><path clip-rule="evenodd" d="m27.3363 22.2906c.0549.0327.073.1037.0404.1586-.7293 1.2283-2.2785 4.3979-2.6458 7.2446l-.0073.0569-.0497.0286c-1.2711.7318-4.343 2.6106-6.4654 4.2716-.0503.0393-.123.0305-.1624-.0198-.0394-.0504-.0305-.1231.0198-.1625 2.1081-1.6497 5.14-3.5083 6.443-4.2613.3862-2.8769 1.9374-6.0444 2.6688-7.2762.0326-.055.1036-.0731.1586-.0405z" fill="#dcfff9" fill-rule="evenodd"/><path d="m8.25568 38.4544-2.3841-7.2718 1.66687 1.571 3.68015 6.2835h-2.54142z" fill="url(#D)"/><g filter="url(#o)"><path clip-rule="evenodd" d="m14.7456 17.3813c.0626.013.1028.0742.0898.1368-.096.4633-.25 1.1403-.3968 1.7487-.1461.6052-.2872 1.1518-.3573 1.3481l-.0049.0136-3.2092 4.7804 1.6669 2.667v4.1883c0 .0639-.0518.1157-.1157.1157s-.1157-.0518-.1157-.1157v-4.1219l-1.7111-2.7379 3.2765-4.8806c.0667-.1936.2018-.7154.3456-1.3112.1464-.6069.2998-1.2814.3952-1.7415.0129-.0625.0742-.1027.1367-.0898z" fill="#d2fff6" fill-rule="evenodd"/></g><g clip-rule="evenodd" fill-rule="evenodd"><path d="m14.7456 17.3813c.0626.013.1028.0742.0898.1368-.096.4633-.25 1.1403-.3968 1.7487-.1461.6052-.2872 1.1518-.3573 1.3481l-.0049.0136-3.2092 4.7804 1.6669 2.667v4.1883c0 .0639-.0518.1157-.1157.1157s-.1157-.0518-.1157-.1157v-4.1219l-1.7111-2.7379 3.2765-4.8806c.0667-.1936.2018-.7154.3456-1.3112.1464-.6069.2998-1.2814.3952-1.7415.0129-.0625.0742-.1027.1367-.0898z" fill="#dcfff9"/><path d="m10.7609 13.6504c.9731-1.3438 2.9542-3.1086 3.823-3.82302 1.062-.77233 4.3908-2.34017 9.2101-2.43285 1.9 0 5.1553 1.3902 6.5455 2.0853 1.1779 1.54467 3.6957 5.14377 4.3444 7.18267-.0386 3.0508-.3359 9.801-1.2164 12.396-1.3902 2.4329-4.3791 7.5418-5.2133 8.515-1.7763 1.3902-5.6766 4.2864-7.0668 4.7498-1.2937.2124-4.7267.5098-8.1095 0-1.6799-.9461-5.16694-3.0932-5.67668-4.1126-.06845-.1369-.1456-.2725-.22885-.4188-.69166-1.2155-1.80475-3.1716-1.85645-12.7882 0-1.2164 3.12795-8.1674 5.44498-11.3533zm-4.9822 11.3524c.00025-.0816.03173-.2679.12086-.5774.08538-.2965.21201-.6676.37425-1.0973.32417-.8585.78253-1.9297 1.31481-3.0662 1.06754-2.2793 2.41408-4.7821 3.54648-6.3393l.0006-.0007c.9314-1.2863 2.8592-3.0099 3.7313-3.7281.9901-.71417 4.2165-2.24486 8.9313-2.33648.8649.00107 2.0876.3237 3.305.75537 1.1501.40784 2.2445.89424 2.9334 1.23349.5839.77102 1.4643 2.00172 2.283 3.28812.8367 1.3147 1.5822 2.6463 1.9005 3.5988-.021 1.5218-.105 3.9202-.2901 6.2618-.1877 2.3731-.4754 4.6294-.887 5.8734-.6948 1.2154-1.7753 3.0755-2.7872 4.7564-.5116.8498-1.0044 1.6515-1.4203 2.3001-.4012.6258-.7161 1.0855-.9045 1.3139-.8854.6918-2.2768 1.7414-3.6198 2.6776-.6813.4751-1.3461.918-1.9236 1.2696-.5659.3443-1.0185.5824-1.3134.6869-1.2766.2045-4.5797.484-7.8435.0054-.8324-.4714-2.0705-1.2154-3.169-1.9658-.56633-.3869-1.08808-.7704-1.49587-1.1154-.42576-.3602-.67022-.6322-.75078-.7933-.07673-.1535-.15945-.299-.24632-.4519-.30156-.5308-.65311-1.1495-.97767-2.491-.42202-1.7444-.78351-4.6857-.81246-10.058z" fill="#093665"/></g></g></svg>