<svg fill="none" height="40" viewBox="0 0 41 40" width="41" xmlns="http://www.w3.org/2000/svg" xmlns:xlink="http://www.w3.org/1999/xlink"><filter id="a" color-interpolation-filters="sRGB" filterUnits="userSpaceOnUse" height="17.9326" width="16.7639" x="6.09192" y="13.3652"><feFlood flood-opacity="0" result="BackgroundImageFix"/><feBlend in="SourceGraphic" in2="BackgroundImageFix" mode="normal" result="shape"/><feGaussianBlur result="effect1_foregroundBlur_450_20758" stdDeviation="2"/></filter><filter id="b" color-interpolation-filters="sRGB" filterUnits="userSpaceOnUse" height="14.8447" width="14.0393" x="7.4541" y="14.9102"><feFlood flood-opacity="0" result="BackgroundImageFix"/><feBlend in="SourceGraphic" in2="BackgroundImageFix" mode="normal" result="shape"/><feGaussianBlur result="effect1_foregroundBlur_450_20758" stdDeviation="2"/></filter><filter id="c" color-interpolation-filters="sRGB" filterUnits="userSpaceOnUse" height="22.8262" width="21.0815" x="18.2723" y="-4.81836"><feFlood flood-opacity="0" result="BackgroundImageFix"/><feBlend in="SourceGraphic" in2="BackgroundImageFix" mode="normal" result="shape"/><feGaussianBlur result="effect1_foregroundBlur_450_20758" stdDeviation="2"/></filter><filter id="d" color-interpolation-filters="sRGB" filterUnits="userSpaceOnUse" height="15.125" width="14.2865" x="21.67" y="-.967773"><feFlood flood-opacity="0" result="BackgroundImageFix"/><feBlend in="SourceGraphic" in2="BackgroundImageFix" mode="normal" result="shape"/><feGaussianBlur result="effect1_foregroundBlur_450_20758" stdDeviation="2"/></filter><filter id="e" color-interpolation-filters="sRGB" filterUnits="userSpaceOnUse" height="62.8262" width="61.0815" x="-2.88171" y="-21.416"><feFlood flood-opacity="0" result="BackgroundImageFix"/><feBlend in="SourceGraphic" in2="BackgroundImageFix" mode="normal" result="shape"/><feGaussianBlur result="effect1_foregroundBlur_450_20758" stdDeviation="12"/></filter><filter id="f" color-interpolation-filters="sRGB" filterUnits="userSpaceOnUse" height="43.125" width="42.2865" x="6.51599" y="-11.5664"><feFlood flood-opacity="0" result="BackgroundImageFix"/><feBlend in="SourceGraphic" in2="BackgroundImageFix" mode="normal" result="shape"/><feGaussianBlur result="effect1_foregroundBlur_450_20758" stdDeviation="9"/></filter><filter id="g" color-interpolation-filters="sRGB" filterUnits="userSpaceOnUse" height="22.3252" width="21.1107" x="15.397" y="-3.6084"><feFlood flood-opacity="0" result="BackgroundImageFix"/><feBlend in="SourceGraphic" in2="BackgroundImageFix" mode="normal" result="shape"/><feGaussianBlur result="effect1_foregroundBlur_450_20758" stdDeviation="3"/></filter><filter id="h" color-interpolation-filters="sRGB" filterUnits="userSpaceOnUse" height="27.7266" width="25.876" x="11.8282" y="-2.96582"><feFlood flood-opacity="0" result="BackgroundImageFix"/><feBlend in="SourceGraphic" in2="BackgroundImageFix" mode="normal" result="shape"/><feGaussianBlur result="effect1_foregroundBlur_450_20758" stdDeviation="3"/></filter><filter id="i" color-interpolation-filters="sRGB" filterUnits="userSpaceOnUse" height="19.3721" width="18.5043" x="10.5939" y="12.3711"><feFlood flood-opacity="0" result="BackgroundImageFix"/><feBlend in="SourceGraphic" in2="BackgroundImageFix" mode="normal" result="shape"/><feGaussianBlur result="effect1_foregroundBlur_450_20758" stdDeviation="3"/></filter><filter id="j" color-interpolation-filters="sRGB" filterUnits="userSpaceOnUse" height="10.8516" width="9.81824" x="17.9155" y="9.29199"><feFlood flood-opacity="0" result="BackgroundImageFix"/><feBlend in="SourceGraphic" in2="BackgroundImageFix" mode="normal" result="shape"/><feGaussianBlur result="effect1_foregroundBlur_450_20758" stdDeviation=".5"/></filter><filter id="k" color-interpolation-filters="sRGB" filterUnits="userSpaceOnUse" height="16.9756" width="16.6174" x="16.637" y=".663086"><feFlood flood-opacity="0" result="BackgroundImageFix"/><feBlend in="SourceGraphic" in2="BackgroundImageFix" mode="normal" result="shape"/><feGaussianBlur result="effect1_foregroundBlur_450_20758" stdDeviation="3"/></filter><filter id="l" color-interpolation-filters="sRGB" filterUnits="userSpaceOnUse" height="14.4395" width="13.6758" x="22.4088" y="2.80957"><feFlood flood-opacity="0" result="BackgroundImageFix"/><feBlend in="SourceGraphic" in2="BackgroundImageFix" mode="normal" result="shape"/><feGaussianBlur result="effect1_foregroundBlur_450_20758" stdDeviation="3"/></filter><filter id="m" color-interpolation-filters="sRGB" filterUnits="userSpaceOnUse" height="15.6719" width="15.4757" x="12.0872" y="11.6807"><feFlood flood-opacity="0" result="BackgroundImageFix"/><feBlend in="SourceGraphic" in2="BackgroundImageFix" mode="normal" result="shape"/><feGaussianBlur result="effect1_foregroundBlur_450_20758" stdDeviation="3"/></filter><filter id="n" color-interpolation-filters="sRGB" filterUnits="userSpaceOnUse" height="12.5908" width="4.57068" x="16.2371" y="9.85449"><feFlood flood-opacity="0" result="BackgroundImageFix"/><feBlend in="SourceGraphic" in2="BackgroundImageFix" mode="normal" result="shape"/><feGaussianBlur result="effect1_foregroundBlur_450_20758" stdDeviation=".5"/></filter><filter id="o" color-interpolation-filters="sRGB" filterUnits="userSpaceOnUse" height="12.0449" width="6.16455" x="22.7629" y="11.4561"><feFlood flood-opacity="0" result="BackgroundImageFix"/><feBlend in="SourceGraphic" in2="BackgroundImageFix" mode="normal" result="shape"/><feGaussianBlur result="effect1_foregroundBlur_450_20758" stdDeviation=".5"/></filter><filter id="p" color-interpolation-filters="sRGB" filterUnits="userSpaceOnUse" height="17.001" width="15.9296" x="8.422" y="17.5996"><feFlood flood-opacity="0" result="BackgroundImageFix"/><feBlend in="SourceGraphic" in2="BackgroundImageFix" mode="normal" result="shape"/><feGaussianBlur result="effect1_foregroundBlur_450_20758" stdDeviation="2"/></filter><filter id="q" color-interpolation-filters="sRGB" filterUnits="userSpaceOnUse" height="14.2031" width="13.4645" x="9.65515" y="18.999"><feFlood flood-opacity="0" result="BackgroundImageFix"/><feBlend in="SourceGraphic" in2="BackgroundImageFix" mode="normal" result="shape"/><feGaussianBlur result="effect1_foregroundBlur_450_20758" stdDeviation="2"/></filter><filter id="r" color-interpolation-filters="sRGB" filterUnits="userSpaceOnUse" height="21.4365" width="19.8362" x="-6.3761" y="1.00195"><feFlood flood-opacity="0" result="BackgroundImageFix"/><feBlend in="SourceGraphic" in2="BackgroundImageFix" mode="normal" result="shape"/><feGaussianBlur result="effect1_foregroundBlur_450_20758" stdDeviation="2"/></filter><filter id="s" color-interpolation-filters="sRGB" filterUnits="userSpaceOnUse" height="14.457" width="13.688" x="-3.30212" y="4.49121"><feFlood flood-opacity="0" result="BackgroundImageFix"/><feBlend in="SourceGraphic" in2="BackgroundImageFix" mode="normal" result="shape"/><feGaussianBlur result="effect1_foregroundBlur_450_20758" stdDeviation="2"/></filter><filter id="t" color-interpolation-filters="sRGB" filterUnits="userSpaceOnUse" height="61.4365" width="59.8362" x="-25.3597" y="-15.9062"><feFlood flood-opacity="0" result="BackgroundImageFix"/><feBlend in="SourceGraphic" in2="BackgroundImageFix" mode="normal" result="shape"/><feGaussianBlur result="effect1_foregroundBlur_450_20758" stdDeviation="12"/></filter><filter id="u" color-interpolation-filters="sRGB" filterUnits="userSpaceOnUse" height="42.457" width="41.688" x="-16.2858" y="-6.41699"><feFlood flood-opacity="0" result="BackgroundImageFix"/><feBlend in="SourceGraphic" in2="BackgroundImageFix" mode="normal" result="shape"/><feGaussianBlur result="effect1_foregroundBlur_450_20758" stdDeviation="9"/></filter><filter id="v" color-interpolation-filters="sRGB" filterUnits="userSpaceOnUse" height="21.3574" width="20.2433" x="-3.99109" y="1.93359"><feFlood flood-opacity="0" result="BackgroundImageFix"/><feBlend in="SourceGraphic" in2="BackgroundImageFix" mode="normal" result="shape"/><feGaussianBlur result="effect1_foregroundBlur_450_20758" stdDeviation="3"/></filter><filter id="w" color-interpolation-filters="sRGB" filterUnits="userSpaceOnUse" height="26.252" width="24.5551" x="-5.10229" y="2.52441"><feFlood flood-opacity="0" result="BackgroundImageFix"/><feBlend in="SourceGraphic" in2="BackgroundImageFix" mode="normal" result="shape"/><feGaussianBlur result="effect1_foregroundBlur_450_20758" stdDeviation="3"/></filter><filter id="x" color-interpolation-filters="sRGB" filterUnits="userSpaceOnUse" height="18.6807" width="17.8851" x="2.61938" y="16.4277"><feFlood flood-opacity="0" result="BackgroundImageFix"/><feBlend in="SourceGraphic" in2="BackgroundImageFix" mode="normal" result="shape"/><feGaussianBlur result="effect1_foregroundBlur_450_20758" stdDeviation="3"/></filter><filter id="y" color-interpolation-filters="sRGB" filterUnits="userSpaceOnUse" height="9.99414" width="9.06787" x="4.36597" y="14.126"><feFlood flood-opacity="0" result="BackgroundImageFix"/><feBlend in="SourceGraphic" in2="BackgroundImageFix" mode="normal" result="shape"/><feGaussianBlur result="effect1_foregroundBlur_450_20758" stdDeviation=".5"/></filter><filter id="z" color-interpolation-filters="sRGB" filterUnits="userSpaceOnUse" height="16.4639" width="16.2258" x="-1.08582" y="5.83691"><feFlood flood-opacity="0" result="BackgroundImageFix"/><feBlend in="SourceGraphic" in2="BackgroundImageFix" mode="normal" result="shape"/><feGaussianBlur result="effect1_foregroundBlur_450_20758" stdDeviation="3"/></filter><filter id="A" color-interpolation-filters="sRGB" filterUnits="userSpaceOnUse" height="14.2197" width="13.5061" x="-3.63354" y="7.71777"><feFlood flood-opacity="0" result="BackgroundImageFix"/><feBlend in="SourceGraphic" in2="BackgroundImageFix" mode="normal" result="shape"/><feGaussianBlur result="effect1_foregroundBlur_450_20758" stdDeviation="3"/></filter><filter id="B" color-interpolation-filters="sRGB" filterUnits="userSpaceOnUse" height="15.3105" width="15.1801" x="3.98169" y="15.8525"><feFlood flood-opacity="0" result="BackgroundImageFix"/><feBlend in="SourceGraphic" in2="BackgroundImageFix" mode="normal" result="shape"/><feGaussianBlur result="effect1_foregroundBlur_450_20758" stdDeviation="3"/></filter><filter id="C" color-interpolation-filters="sRGB" filterUnits="userSpaceOnUse" height="11.5781" width="4.37244" x="10.5854" y="14.6602"><feFlood flood-opacity="0" result="BackgroundImageFix"/><feBlend in="SourceGraphic" in2="BackgroundImageFix" mode="normal" result="shape"/><feGaussianBlur result="effect1_foregroundBlur_450_20758" stdDeviation=".5"/></filter><filter id="D" color-interpolation-filters="sRGB" filterUnits="userSpaceOnUse" height="11.1318" width="5.68335" x="3.31213" y="16.0264"><feFlood flood-opacity="0" result="BackgroundImageFix"/><feBlend in="SourceGraphic" in2="BackgroundImageFix" mode="normal" result="shape"/><feGaussianBlur result="effect1_foregroundBlur_450_20758" stdDeviation=".5"/></filter><filter id="E" color-interpolation-filters="sRGB" filterUnits="userSpaceOnUse" height="16.6221" width="15.6925" x="24.3162" y="23.5146"><feFlood flood-opacity="0" result="BackgroundImageFix"/><feBlend in="SourceGraphic" in2="BackgroundImageFix" mode="normal" result="shape"/><feGaussianBlur result="effect1_foregroundBlur_450_20758" stdDeviation="2"/></filter><filter id="F" color-interpolation-filters="sRGB" filterUnits="userSpaceOnUse" height="13.9404" width="13.3011" x="25.5118" y="24.8555"><feFlood flood-opacity="0" result="BackgroundImageFix"/><feBlend in="SourceGraphic" in2="BackgroundImageFix" mode="normal" result="shape"/><feGaussianBlur result="effect1_foregroundBlur_450_20758" stdDeviation="2"/></filter><filter id="G" color-interpolation-filters="sRGB" filterUnits="userSpaceOnUse" height="20.8691" width="19.4824" x="20.5222" y="2.91797"><feFlood flood-opacity="0" result="BackgroundImageFix"/><feBlend in="SourceGraphic" in2="BackgroundImageFix" mode="normal" result="shape"/><feGaussianBlur result="effect1_foregroundBlur_450_20758" stdDeviation="2"/></filter><filter id="H" color-interpolation-filters="sRGB" filterUnits="userSpaceOnUse" height="14.1846" width="13.5179" x="23.5048" y="6.25977"><feFlood flood-opacity="0" result="BackgroundImageFix"/><feBlend in="SourceGraphic" in2="BackgroundImageFix" mode="normal" result="shape"/><feGaussianBlur result="effect1_foregroundBlur_450_20758" stdDeviation="2"/></filter><filter id="I" color-interpolation-filters="sRGB" filterUnits="userSpaceOnUse" height="60.8691" width="59.4824" x="-.432495" y="-14.0967"><feFlood flood-opacity="0" result="BackgroundImageFix"/><feBlend in="SourceGraphic" in2="BackgroundImageFix" mode="normal" result="shape"/><feGaussianBlur result="effect1_foregroundBlur_450_20758" stdDeviation="12"/></filter><filter id="J" color-interpolation-filters="sRGB" filterUnits="userSpaceOnUse" height="42.1846" width="41.5179" x="8.54956" y="-4.75488"><feFlood flood-opacity="0" result="BackgroundImageFix"/><feBlend in="SourceGraphic" in2="BackgroundImageFix" mode="normal" result="shape"/><feGaussianBlur result="effect1_foregroundBlur_450_20758" stdDeviation="9"/></filter><filter id="K" color-interpolation-filters="sRGB" filterUnits="userSpaceOnUse" height="20.9629" width="19.9969" x="21.769" y="5.02734"><feFlood flood-opacity="0" result="BackgroundImageFix"/><feBlend in="SourceGraphic" in2="BackgroundImageFix" mode="normal" result="shape"/><feGaussianBlur result="effect1_foregroundBlur_450_20758" stdDeviation="3"/></filter><filter id="L" color-interpolation-filters="sRGB" filterUnits="userSpaceOnUse" height="25.6514" width="24.1797" x="18.776" y="5.64355"><feFlood flood-opacity="0" result="BackgroundImageFix"/><feBlend in="SourceGraphic" in2="BackgroundImageFix" mode="normal" result="shape"/><feGaussianBlur result="effect1_foregroundBlur_450_20758" stdDeviation="3"/></filter><filter id="M" color-interpolation-filters="sRGB" filterUnits="userSpaceOnUse" height="18.3984" width="17.7092" x="19.6765" y="19.6494"><feFlood flood-opacity="0" result="BackgroundImageFix"/><feBlend in="SourceGraphic" in2="BackgroundImageFix" mode="normal" result="shape"/><feGaussianBlur result="effect1_foregroundBlur_450_20758" stdDeviation="3"/></filter><filter id="N" color-interpolation-filters="sRGB" filterUnits="userSpaceOnUse" height="8.78613" width="9.6709" x="25.3528" y="17.8818"><feFlood flood-opacity="0" result="BackgroundImageFix"/><feBlend in="SourceGraphic" in2="BackgroundImageFix" mode="normal" result="shape"/><feGaussianBlur result="effect1_foregroundBlur_450_20758" stdDeviation=".5"/></filter><filter id="O" color-interpolation-filters="sRGB" filterUnits="userSpaceOnUse" height="13.7451" width="17.8186" x="22.7352" y="9.95312"><feFlood flood-opacity="0" result="BackgroundImageFix"/><feBlend in="SourceGraphic" in2="BackgroundImageFix" mode="normal" result="shape"/><feGaussianBlur result="effect1_foregroundBlur_450_20758" stdDeviation="3"/></filter><filter id="P" color-interpolation-filters="sRGB" filterUnits="userSpaceOnUse" height="14.2852" width="13.0002" x="21.616" y="8.54199"><feFlood flood-opacity="0" result="BackgroundImageFix"/><feBlend in="SourceGraphic" in2="BackgroundImageFix" mode="normal" result="shape"/><feGaussianBlur result="effect1_foregroundBlur_450_20758" stdDeviation="3"/></filter><filter id="Q" color-interpolation-filters="sRGB" filterUnits="userSpaceOnUse" height="13.7285" width="16.3356" x="21.6981" y="20.6895"><feFlood flood-opacity="0" result="BackgroundImageFix"/><feBlend in="SourceGraphic" in2="BackgroundImageFix" mode="normal" result="shape"/><feGaussianBlur result="effect1_foregroundBlur_450_20758" stdDeviation="3"/></filter><filter id="R" color-interpolation-filters="sRGB" filterUnits="userSpaceOnUse" height="8.75488" width="8.49976" x="27.9603" y="20.7178"><feFlood flood-opacity="0" result="BackgroundImageFix"/><feBlend in="SourceGraphic" in2="BackgroundImageFix" mode="normal" result="shape"/><feGaussianBlur result="effect1_foregroundBlur_450_20758" stdDeviation=".5"/></filter><filter id="S" color-interpolation-filters="sRGB" filterUnits="userSpaceOnUse" height="11.1475" width="5.10608" x="23.8774" y="16.9297"><feFlood flood-opacity="0" result="BackgroundImageFix"/><feBlend in="SourceGraphic" in2="BackgroundImageFix" mode="normal" result="shape"/><feGaussianBlur result="effect1_foregroundBlur_450_20758" stdDeviation=".5"/></filter><filter id="T" color-interpolation-filters="sRGB" filterUnits="userSpaceOnUse" height="19.8955" width="18.2679" x="16.6383" y="22.5273"><feFlood flood-opacity="0" result="BackgroundImageFix"/><feBlend in="SourceGraphic" in2="BackgroundImageFix" mode="normal" result="shape"/><feGaussianBlur result="effect1_foregroundBlur_450_20758" stdDeviation="2"/></filter><filter id="U" color-interpolation-filters="sRGB" filterUnits="userSpaceOnUse" height="16.1973" width="15.0758" x="18.2344" y="24.377"><feFlood flood-opacity="0" result="BackgroundImageFix"/><feBlend in="SourceGraphic" in2="BackgroundImageFix" mode="normal" result="shape"/><feGaussianBlur result="effect1_foregroundBlur_450_20758" stdDeviation="2"/></filter><filter id="V" color-interpolation-filters="sRGB" filterUnits="userSpaceOnUse" height="25.7559" width="23.3265" x="1.13672" y="-2.0791"><feFlood flood-opacity="0" result="BackgroundImageFix"/><feBlend in="SourceGraphic" in2="BackgroundImageFix" mode="normal" result="shape"/><feGaussianBlur result="effect1_foregroundBlur_450_20758" stdDeviation="2"/></filter><filter id="W" color-interpolation-filters="sRGB" filterUnits="userSpaceOnUse" height="16.5332" width="15.3655" x="5.11719" y="2.53223"><feFlood flood-opacity="0" result="BackgroundImageFix"/><feBlend in="SourceGraphic" in2="BackgroundImageFix" mode="normal" result="shape"/><feGaussianBlur result="effect1_foregroundBlur_450_20758" stdDeviation="2"/></filter><filter id="X" color-interpolation-filters="sRGB" filterUnits="userSpaceOnUse" height="65.7559" width="63.3265" x="-18.3214" y="-17.8506"><feFlood flood-opacity="0" result="BackgroundImageFix"/><feBlend in="SourceGraphic" in2="BackgroundImageFix" mode="normal" result="shape"/><feGaussianBlur result="effect1_foregroundBlur_450_20758" stdDeviation="12"/></filter><filter id="Y" color-interpolation-filters="sRGB" filterUnits="userSpaceOnUse" height="56.5332" width="55.3655" x="-14.3408" y="-13.2402"><feFlood flood-opacity="0" result="BackgroundImageFix"/><feBlend in="SourceGraphic" in2="BackgroundImageFix" mode="normal" result="shape"/><feGaussianBlur result="effect1_foregroundBlur_450_20758" stdDeviation="12"/></filter><filter id="Z" color-interpolation-filters="sRGB" filterUnits="userSpaceOnUse" height="24.3662" width="22.6742" x="4.55115" y=".40918"><feFlood flood-opacity="0" result="BackgroundImageFix"/><feBlend in="SourceGraphic" in2="BackgroundImageFix" mode="normal" result="shape"/><feGaussianBlur result="effect1_foregroundBlur_450_20758" stdDeviation="3"/></filter><filter id="aa" color-interpolation-filters="sRGB" filterUnits="userSpaceOnUse" height="30.834" width="28.2573" x="2.35242" y="1.34375"><feFlood flood-opacity="0" result="BackgroundImageFix"/><feBlend in="SourceGraphic" in2="BackgroundImageFix" mode="normal" result="shape"/><feGaussianBlur result="effect1_foregroundBlur_450_20758" stdDeviation="3"/></filter><filter id="ab" color-interpolation-filters="sRGB" filterUnits="userSpaceOnUse" height="20.8281" width="19.6206" x="9.76526" y="20.4824"><feFlood flood-opacity="0" result="BackgroundImageFix"/><feBlend in="SourceGraphic" in2="BackgroundImageFix" mode="normal" result="shape"/><feGaussianBlur result="effect1_foregroundBlur_450_20758" stdDeviation="3"/></filter><filter id="ac" color-interpolation-filters="sRGB" filterUnits="userSpaceOnUse" height="11.7637" width="10.8086" x="12.6099" y="15.5791"><feFlood flood-opacity="0" result="BackgroundImageFix"/><feBlend in="SourceGraphic" in2="BackgroundImageFix" mode="normal" result="shape"/><feGaussianBlur result="effect1_foregroundBlur_450_20758" stdDeviation=".5"/></filter><filter id="ad" color-interpolation-filters="sRGB" filterUnits="userSpaceOnUse" height="16.6992" width="18.5406" x="7.41162" y="6.33887"><feFlood flood-opacity="0" result="BackgroundImageFix"/><feBlend in="SourceGraphic" in2="BackgroundImageFix" mode="normal" result="shape"/><feGaussianBlur result="effect1_foregroundBlur_450_20758" stdDeviation="3"/></filter><filter id="ae" color-interpolation-filters="sRGB" filterUnits="userSpaceOnUse" height="15.0977" width="13.6476" x="4.51306" y="7.21484"><feFlood flood-opacity="0" result="BackgroundImageFix"/><feBlend in="SourceGraphic" in2="BackgroundImageFix" mode="normal" result="shape"/><feGaussianBlur result="effect1_foregroundBlur_450_20758" stdDeviation="3"/></filter><filter id="af" color-interpolation-filters="sRGB" filterUnits="userSpaceOnUse" height="15.8848" width="16.9032" x="11.7472" y="20.2217"><feFlood flood-opacity="0" result="BackgroundImageFix"/><feBlend in="SourceGraphic" in2="BackgroundImageFix" mode="normal" result="shape"/><feGaussianBlur result="effect1_foregroundBlur_450_20758" stdDeviation="3"/></filter><filter id="ag" color-interpolation-filters="sRGB" filterUnits="userSpaceOnUse" height="14.002" width="6.22485" x="18.8254" y="17.1992"><feFlood flood-opacity="0" result="BackgroundImageFix"/><feBlend in="SourceGraphic" in2="BackgroundImageFix" mode="normal" result="shape"/><feGaussianBlur result="effect1_foregroundBlur_450_20758" stdDeviation=".5"/></filter><filter id="ah" color-interpolation-filters="sRGB" filterUnits="userSpaceOnUse" height="14.627" width="5.48914" x="10.4928" y="16.834"><feFlood flood-opacity="0" result="BackgroundImageFix"/><feBlend in="SourceGraphic" in2="BackgroundImageFix" mode="normal" result="shape"/><feGaussianBlur result="effect1_foregroundBlur_450_20758" stdDeviation=".5"/></filter><linearGradient id="ai" gradientUnits="userSpaceOnUse" x1="29.2199" x2="15.3877" y1="5.64723" y2="25.9135"><stop offset="0" stop-color="#52ffea"/><stop offset=".261476" stop-color="#1fcfa3"/><stop offset="1" stop-color="#02a97d"/></linearGradient><linearGradient id="aj" gradientUnits="userSpaceOnUse" x1="22.3801" x2="13.3824" y1="2.03621" y2="13.0169"><stop offset="0" stop-color="#19ba87"/><stop offset="1" stop-color="#056243"/></linearGradient><linearGradient id="ak" gradientUnits="userSpaceOnUse" x1="17.2624" x2="19.2174" y1="14.5691" y2="28.5151"><stop offset="0" stop-color="#04926a"/><stop offset="1" stop-color="#029165" stop-opacity="0"/></linearGradient><linearGradient id="al" gradientUnits="userSpaceOnUse" x1="29.1194" x2="24.3839" y1="19.9922" y2="27.9033"><stop offset="0" stop-color="#06a865"/><stop offset="1" stop-color="#01854f" stop-opacity="0"/></linearGradient><linearGradient id="am" gradientUnits="userSpaceOnUse" x1="19.8794" x2="14.6674" y1="16.2327" y2="24.9397"><stop offset="0" stop-color="#16efb7"/><stop offset="1" stop-color="#12f0b5" stop-opacity="0"/></linearGradient><linearGradient id="an" gradientUnits="userSpaceOnUse" x1="19.6012" x2="16.6483" y1="1.64643" y2="28.07"><stop offset="0" stop-color="#066f4b"/><stop offset="1" stop-color="#066f4b" stop-opacity=".66"/></linearGradient><linearGradient id="ao" gradientUnits="userSpaceOnUse" x1="13.3498" x2="16.9469" y1="11.2873" y2="27.7225"><stop offset="0" stop-color="#4affd4"/><stop offset="1" stop-color="#28ffe5"/></linearGradient><linearGradient id="ap" gradientUnits="userSpaceOnUse" x1="25.5808" x2="28.1801" y1="19.8456" y2="24.9162"><stop offset="0" stop-color="#057c54"/><stop offset="1" stop-color="#049f6b"/></linearGradient><linearGradient id="aq" gradientUnits="userSpaceOnUse" x1="18.7365" x2="14.2295" y1="18.5367" y2="21.6056"><stop offset="0" stop-color="#019f68"/><stop offset="1" stop-color="#00d7a4"/></linearGradient><linearGradient id="ar" gradientUnits="userSpaceOnUse" x1="17.4293" x2="20.8834" y1="4.73255" y2="9.03884"><stop offset="0" stop-color="#17c492"/><stop offset="1" stop-color="#37e8b5"/></linearGradient><linearGradient id="as" gradientUnits="userSpaceOnUse" x1="27.5716" x2="16.6281" y1="5.55977" y2="23.8417"><stop offset="0" stop-color="#1afad4"/><stop offset="1" stop-color="#01d5a4"/></linearGradient><linearGradient id="at" gradientUnits="userSpaceOnUse" x1="25.3605" x2="23.885" y1="3.41609" y2="7.42215"><stop offset="0" stop-color="#069063"/><stop offset="1" stop-color="#00ae84"/></linearGradient><linearGradient id="au" gradientUnits="userSpaceOnUse" x1="26.9153" x2="30.6819" y1="14.8793" y2="16.5612"><stop offset="0" stop-color="#c1fff6"/><stop offset="1" stop-color="#7affeb"/></linearGradient><linearGradient id="av" gradientUnits="userSpaceOnUse" x1="23.6692" x2="20.5056" y1="10.7587" y2="18.0497"><stop offset="0" stop-color="#34ebbb"/><stop offset="1" stop-color="#0fc093"/></linearGradient><linearGradient id="aw" gradientUnits="userSpaceOnUse" x1="25.4033" x2="23.3401" y1="23.3169" y2="27.674"><stop offset="0" stop-color="#fff"/><stop offset="1" stop-color="#25d3bf"/></linearGradient><linearGradient id="ax" gradientUnits="userSpaceOnUse" x1="3.18326" x2="15.5287" y1="10.8592" y2="29.335"><stop offset="0" stop-color="#ffccc4"/><stop offset=".261476" stop-color="#ff8e7b"/><stop offset="1" stop-color="#e05535"/></linearGradient><linearGradient id="ay" gradientUnits="userSpaceOnUse" x1="9.40951" x2="17.4597" y1="7.64992" y2="17.6739"><stop offset="0" stop-color="#dd4e41"/><stop offset="1" stop-color="#b02a19"/></linearGradient><linearGradient id="az" gradientUnits="userSpaceOnUse" x1="13.9321" x2="12.0373" y1="19.0459" y2="31.6577"><stop offset="0" stop-color="#fa6648"/><stop offset="1" stop-color="#fa6648" stop-opacity="0"/></linearGradient><linearGradient id="aA" gradientUnits="userSpaceOnUse" x1="3.14499" x2="7.36284" y1="23.8504" y2="31.0567"><stop offset="0" stop-color="#e34737"/><stop offset="1" stop-color="#e34737" stop-opacity="0"/></linearGradient><linearGradient id="aB" gradientUnits="userSpaceOnUse" x1="11.5465" x2="16.1887" y1="20.5279" y2="28.4592"><stop offset="0" stop-color="#ff7f56"/><stop offset="1" stop-color="#ff7f6c" stop-opacity="0"/></linearGradient><linearGradient id="aC" gradientUnits="userSpaceOnUse" x1="11.9285" x2="14.367" y1="7.32112" y2="31.2758"><stop offset="0" stop-color="#b42c1f"/><stop offset="1" stop-color="#b42c1f" stop-opacity=".66"/></linearGradient><linearGradient id="aD" gradientUnits="userSpaceOnUse" x1="17.5031" x2="14.0992" y1="16.107" y2="30.9581"><stop offset="0" stop-color="#ffc4c4"/><stop offset="1" stop-color="#ffe6c0"/></linearGradient><linearGradient id="aE" gradientUnits="userSpaceOnUse" x1="6.35223" x2="3.95311" y1="23.7505" y2="28.3192"><stop offset="0" stop-color="#9f2519"/><stop offset="1" stop-color="#d22b1b"/></linearGradient><linearGradient id="aF" gradientUnits="userSpaceOnUse" x1="12.5618" x2="16.6157" y1="22.6258" y2="25.4451"><stop offset="0" stop-color="#e14a35"/><stop offset="1" stop-color="#ff937b"/></linearGradient><linearGradient id="aG" gradientUnits="userSpaceOnUse" x1="13.6631" x2="10.4573" y1="10.171" y2="14.1496"><stop offset="0" stop-color="#f04f40"/><stop offset="1" stop-color="#ff8c81"/></linearGradient><linearGradient id="aH" gradientUnits="userSpaceOnUse" x1="4.67703" x2="14.4241" y1="10.7946" y2="27.4476"><stop offset="0" stop-color="#ffaa9d"/><stop offset="1" stop-color="#fe755f"/></linearGradient><linearGradient id="aI" gradientUnits="userSpaceOnUse" x1="6.69833" x2="7.99881" y1="8.87231" y2="12.5132"><stop offset="0" stop-color="#cc4335"/><stop offset="1" stop-color="#cc2f21"/></linearGradient><linearGradient id="aJ" gradientUnits="userSpaceOnUse" x1="5.18888" x2="1.76294" y1="19.24" y2="20.7295"><stop offset="0" stop-color="#ffeeec"/><stop offset="1" stop-color="#ffc1a7"/></linearGradient><linearGradient id="aK" gradientUnits="userSpaceOnUse" x1="8.16433" x2="10.9642" y1="15.5377" y2="22.1684"><stop offset="0" stop-color="#ff9e95"/><stop offset="1" stop-color="#f86a4e"/></linearGradient><linearGradient id="aL" gradientUnits="userSpaceOnUse" x1="6.50161" x2="8.33119" y1="26.8833" y2="30.8474"><stop offset="0" stop-color="#fff"/><stop offset="1" stop-color="#ff7351"/></linearGradient><linearGradient id="aM" gradientUnits="userSpaceOnUse" x1="30.4689" x2="29.6644" y1="12.4773" y2="33.8649"><stop offset="0" stop-color="#9cfdff"/><stop offset=".261476" stop-color="#36bbfc"/><stop offset="1" stop-color="#109de4"/></linearGradient><linearGradient id="aN" gradientUnits="userSpaceOnUse" x1="37.1392" x2="37.7577" y1="13.49" y2="25.8576"><stop offset="0" stop-color="#1ea1eb"/><stop offset="1" stop-color="#076cea"/></linearGradient><linearGradient id="aO" gradientUnits="userSpaceOnUse" x1="34.2309" x2="25.6289" y1="24.9357" y2="33.7048"><stop offset="0" stop-color="#10bafc"/><stop offset="1" stop-color="#10bafc" stop-opacity="0"/></linearGradient><linearGradient id="aP" gradientUnits="userSpaceOnUse" x1="23.1013" x2="22.3215" y1="22.5907" y2="30.5953"><stop offset="0" stop-color="#1f91fa"/><stop offset="1" stop-color="#1f91fa" stop-opacity="0"/></linearGradient><linearGradient id="aQ" gradientUnits="userSpaceOnUse" x1="31.5328" x2="30.6746" y1="24.7441" y2="33.5541"><stop offset="0" stop-color="#1edcff"/><stop offset="1" stop-color="#1edcff" stop-opacity="0"/></linearGradient><linearGradient id="aR" gradientUnits="userSpaceOnUse" x1="39.2902" x2="27.6619" y1="14.6571" y2="34.7234"><stop offset="0" stop-color="#0059cb"/><stop offset="1" stop-color="#0059cb" stop-opacity=".66"/></linearGradient><linearGradient id="aS" gradientUnits="userSpaceOnUse" x1="38.6765" x2="27.6322" y1="24.6605" y2="34.3244"><stop offset="0" stop-color="#51eaff"/><stop offset="1" stop-color="#38dbff"/></linearGradient><linearGradient id="aT" gradientUnits="userSpaceOnUse" x1="25.6595" x2="21.2071" y1="24.3246" y2="26.5338"><stop offset="0" stop-color="#0056c8"/><stop offset="1" stop-color="#188cff"/></linearGradient><linearGradient id="aU" gradientUnits="userSpaceOnUse" x1="31.1394" x2="32.7097" y1="26.954" y2="31.4435"><stop offset="0" stop-color="#0c93f4"/><stop offset="1" stop-color="#25beff"/></linearGradient><linearGradient id="aV" gradientUnits="userSpaceOnUse" x1="38.9582" x2="34.3285" y1="17.8917" y2="19.5611"><stop offset="0" stop-color="#3ab7ff"/><stop offset="1" stop-color="#5ad7ff"/></linearGradient><linearGradient id="aW" gradientUnits="userSpaceOnUse" x1="31.6707" x2="29.8686" y1="13.2711" y2="31.7691"><stop offset="0" stop-color="#9fffff"/><stop offset="1" stop-color="#3ec7fc"/></linearGradient><linearGradient id="aX" gradientUnits="userSpaceOnUse" x1="34.3327" x2="33.2907" y1="12.9137" y2="16.4888"><stop offset="0" stop-color="#1276e5"/><stop offset="1" stop-color="#118df5"/></linearGradient><linearGradient id="aY" gradientUnits="userSpaceOnUse" x1="27.2991" x2="23.785" y1="20.1492" y2="19.3761"><stop offset="0" stop-color="#d8fcff"/><stop offset="1" stop-color="#9dfdff"/></linearGradient><linearGradient id="aZ" gradientUnits="userSpaceOnUse" x1="31.7124" x2="30.1514" y1="18.9406" y2="25.6952"><stop offset="0" stop-color="#5bc4ff"/><stop offset="1" stop-color="#22a7fc"/></linearGradient><linearGradient id="a0" gradientUnits="userSpaceOnUse" x1="24.037" x2="23.2253" y1="26.8279" y2="30.954"><stop offset="0" stop-color="#fff"/><stop offset="1" stop-color="#50e3ff"/></linearGradient><linearGradient id="a1" gradientUnits="userSpaceOnUse" x1="12.5501" x2="23.8671" y1="9.60192" y2="36.4254"><stop offset="0" stop-color="#e7eb81"/><stop offset=".261476" stop-color="#fffa98"/><stop offset="1" stop-color="#ffb70a"/></linearGradient><linearGradient id="a2" gradientUnits="userSpaceOnUse" x1="21.3542" x2="29.234" y1="7.01228" y2="21.8996"><stop offset="0" stop-color="#fff85b"/><stop offset="1" stop-color="#e507ea"/></linearGradient><linearGradient id="a3" gradientUnits="userSpaceOnUse" x1="24.3566" x2="18.8012" y1="22.7926" y2="38.551"><stop offset="0" stop-color="#ff7cf2" stop-opacity="0"/><stop offset=".515625" stop-color="#feff86"/><stop offset="1" stop-color="#7bffd0" stop-opacity=".83"/></linearGradient><linearGradient id="a4" gradientUnits="userSpaceOnUse" x1="9.29046" x2="12.936" y1="26.3074" y2="36.6219"><stop offset="0" stop-color="#fffb96"/><stop offset="1" stop-color="#49ffd3"/></linearGradient><linearGradient id="a5" gradientUnits="userSpaceOnUse" x1="20.9212" x2="24.9335" y1="24.1096" y2="35.4619"><stop offset="0" stop-color="#fffa85"/><stop offset="1" stop-color="#eaff97" stop-opacity="0"/></linearGradient><linearGradient id="a6" gradientUnits="userSpaceOnUse" x1="24.6774" x2="21.8935" y1="7.21244" y2="38.6364"><stop offset="0" stop-color="#6c26e0"/><stop offset="1" stop-color="#ff6548"/></linearGradient><linearGradient id="a7" gradientUnits="userSpaceOnUse" x1="29.6782" x2="21.6275" y1="19.8956" y2="38.1623"><stop offset="0" stop-color="#beff8f"/><stop offset=".46875" stop-color="#fdff9c"/><stop offset="1" stop-color="#ffb6f8"/></linearGradient><linearGradient id="a8" gradientUnits="userSpaceOnUse" x1="5.55211" x2="11.4681" y1="19.4679" y2="36.2064"><stop offset="0" stop-color="#fdff99"/><stop offset="1" stop-color="#ff72f1"/></linearGradient><linearGradient id="a9" gradientUnits="userSpaceOnUse" x1="13.4414" x2="9.22523" y1="26.9719" y2="32.2571"><stop offset="0" stop-color="#94cc54"/><stop offset="1" stop-color="#73cd83"/></linearGradient><linearGradient id="ba" gradientUnits="userSpaceOnUse" x1="21.7084" x2="26.2275" y1="27.0593" y2="31.6889"><stop offset="0" stop-color="#ffbd59"/><stop offset="1" stop-color="#fff85b"/></linearGradient><linearGradient id="bb" gradientUnits="userSpaceOnUse" x1="25.742" x2="21.3914" y1="11.5064" y2="16.7709"><stop offset="0" stop-color="#ffdfe6"/><stop offset="1" stop-color="#ffce95"/></linearGradient><linearGradient id="bc" gradientUnits="userSpaceOnUse" x1="14.4883" x2="22.9128" y1="9.88783" y2="33.7238"><stop offset="0" stop-color="#f9ffb8"/><stop offset="1" stop-color="#ffff70"/></linearGradient><linearGradient id="bd" gradientUnits="userSpaceOnUse" x1="17.5637" x2="18.3369" y1="7.91561" y2="12.9216"><stop offset="0" stop-color="#f69b77"/><stop offset="1" stop-color="#ffb9fb"/></linearGradient><linearGradient id="be" gradientUnits="userSpaceOnUse" x1="13.0584" x2="8.2822" y1="20.8805" y2="21.95"><stop offset="0" stop-color="#f4fff9"/><stop offset="1" stop-color="#c6ffdc"/></linearGradient><linearGradient id="bf" gradientUnits="userSpaceOnUse" x1="17.8029" x2="19.7663" y1="16.8523" y2="26.0758"><stop offset="0" stop-color="#ff99fb"/><stop offset="1" stop-color="#ffea28"/></linearGradient><linearGradient id="bg" gradientUnits="userSpaceOnUse" x1="12.8614" x2="14.2355" y1="31.04" y2="36.5925"><stop offset="0" stop-color="#fff"/><stop offset="1" stop-color="#e7ff9b"/></linearGradient><linearGradient id="bh" gradientUnits="userSpaceOnUse" x1="18.7493" x2="18.3687" y1="6.63895" y2="38.3687"><stop offset="0" stop-color="#5d0fbe"/><stop offset="1" stop-color="#8d3e2c"/></linearGradient><mask id="bi" height="28" maskUnits="userSpaceOnUse" width="20" x="12" y="1"><path d="m24.705 27.8391c-.6852.437-3.605.4736-4.9792.4372-2.2564-.927-4.2478-2.3662-4.9615-2.9699-.6809-.7927-2.0064-3.993-2.5841-5.4941-.1539-.9009-.1115-5.1213-.0711-7.1189.4117-1.9101 2.7019-6.14888 3.7955-8.02949 1.1437-1.00987 4.0022-2.28975 5.2885-2.80345 1.1051.08386 3.6059.42554 4.7683 1.12135 2.9147 1.82169 4.377 4.00001 4.7439 4.86145.27.7553.8357 2.56054.9389 3.73914.2508 2.7977-.3811 8.196-.8266 8.9402-3.9812 6.5705-5.256 6.7702-6.1126 7.3165z" fill="#d9d9d9"/></mask><mask id="bj" height="28" maskUnits="userSpaceOnUse" width="20" x="12" y="1"><path d="m24.705 27.8391c-.6852.437-3.605.4736-4.9792.4372-2.2564-.927-4.2478-2.3662-4.9615-2.9699-.6809-.7927-2.0064-3.993-2.5841-5.4941-.1539-.9009-.1115-5.1213-.0711-7.1189.4117-1.9101 2.7019-6.14888 3.7955-8.02949 1.1437-1.00987 4.0022-2.28975 5.2885-2.80345 1.1051.08386 3.6059.42554 4.7683 1.12135 2.9147 1.82169 4.377 4.00001 4.7439 4.86145.27.7553.8357 2.56054.9389 3.73914.2508 2.7977-.3811 8.196-.8266 8.9402-3.9812 6.5705-5.256 6.7702-6.1126 7.3165z" fill="#02a97d"/></mask><mask id="bk" height="24" maskUnits="userSpaceOnUse" width="18" x="13" y="3"><path d="m25.4759 7.54514-1.0436-3.86452-1.9075 3.1867-2.5735 3.08659-2.0546 1.31049-4.2705 1.5263 3.461 3.1605.9897 1.6811 1.7262 3.9365 1.5005 5.0716 2.6788-4.4751 1.3994-2.3378 2.0682-1.0301 3.255-2.4064-3.4492-4.6958z" fill="#01d5a4"/></mask><mask id="bl" height="25" maskUnits="userSpaceOnUse" width="19" x="0" y="7"><path d="m7.074 30.9957c.61663.4019 3.2604.461 4.5052.4404 2.0515-.8194 3.8677-2.1049 4.5194-2.6453.6236-.7117 1.8525-3.5981 2.3891-4.9523.1474-.8144.1466-4.6366.1278-6.4459-.3558-1.7335-2.3919-5.5924-3.3655-7.3052-1.0267-.92466-3.6039-2.10916-4.7641-2.58582-1.00154.06609-3.26925.35321-4.3281.97296-2.65563 1.62366-3.99934 3.58326-4.33925 4.36006-.25119.6816-.77958 2.3113-.883557 3.3777-.252068 2.5313.272077 7.4254.668867 8.1034 3.54669 5.9855 4.69935 6.1777 5.47014 6.68z" fill="#d9d9d9"/></mask><mask id="bm" height="25" maskUnits="userSpaceOnUse" width="19" x="0" y="7"><path d="m7.074 30.9957c.61663.4019 3.2604.461 4.5052.4404 2.0515-.8194 3.8677-2.1049 4.5194-2.6453.6236-.7117 1.8525-3.5981 2.3891-4.9523.1474-.8144.1466-4.6366.1278-6.4459-.3558-1.7335-2.3919-5.5924-3.3655-7.3052-1.0267-.92466-3.6039-2.10916-4.7641-2.58582-1.00154.06609-3.26925.35321-4.3281.97296-2.65563 1.62366-3.99934 3.58326-4.33925 4.36006-.25119.6816-.77958 2.3113-.883557 3.3777-.252068 2.5313.272077 7.4254.668867 8.1034 3.54669 5.9855 4.69935 6.1777 5.47014 6.68z" fill="#02a97d"/></mask><mask id="bn" height="21" maskUnits="userSpaceOnUse" width="17" x="1" y="9"><path d="m6.55713 12.6111.97947-3.49025 1.69901 2.90275 2.30289 2.8181 1.8489 1.205 3.8537 1.4203-3.1624 2.8311-.9112 1.5136-1.5983 3.5494-1.404 4.5793-2.38595-4.0764-1.24639-2.1295-1.86374-.9512-2.92617-2.2082 3.16538-4.2216z" fill="#01d5a4"/></mask><mask id="bo" height="22" maskUnits="userSpaceOnUse" width="20" x="21" y="12"><path d="m22.1302 30.3849c.2541.6619 2.2833 2.2013 3.2661 2.8883 2.0634.5196 4.2065.5425 5.0202.4891.8885-.203 3.4776-1.7607 4.6611-2.5142.5751-.5521 2.7335-3.5346 3.7408-4.9568.7015-1.5533 1.2927-5.7141 1.5005-7.6003-.2786-1.3013-1.6202-3.6811-2.2562-4.7084-.8186-.5141-2.75-1.5711-3.9262-1.6856-2.989-.2333-5.1442.5365-5.8481.9506-.581.3898-1.9138 1.3628-2.5972 2.1361-1.6265 1.8324-3.982 5.9468-4.0554 6.6998-.6139 6.6731.1768 7.4741.4944 8.3014z" fill="#d9d9d9"/></mask><mask id="bp" height="22" maskUnits="userSpaceOnUse" width="20" x="21" y="12"><path d="m22.1302 30.3849c.2541.6619 2.2833 2.2013 3.2661 2.8883 2.0634.5196 4.2065.5425 5.0202.4891.8885-.203 3.4776-1.7607 4.6611-2.5142.5751-.5521 2.7335-3.5346 3.7408-4.9568.7015-1.5533 1.2927-5.7141 1.5005-7.6003-.2786-1.3013-1.6202-3.6811-2.2562-4.7084-.8186-.5141-2.75-1.5711-3.9262-1.6856-2.989-.2333-5.1442.5365-5.8481.9506-.581.3898-1.9138 1.3628-2.5972 2.1361-1.6265 1.8324-3.982 5.9468-4.0554 6.6998-.6139 6.6731.1768 7.4741.4944 8.3014z" fill="#02a97d"/></mask><mask id="bq" height="19" maskUnits="userSpaceOnUse" width="15" x="23" y="13"><path d="m32.1114 15.7503 2.7356-2.1697-.3141 3.2243.2049 3.4994.7618 1.9845 2.2043 3.2848-4.0664.4225-1.5658.6662-3.2519 1.8663-3.6819 2.7796.4411-4.528.2304-2.3654-.9167-1.7949-1.0356-3.3756 4.8541-1.5056z" fill="#01d5a4"/></mask><mask id="br" height="33" maskUnits="userSpaceOnUse" width="24" x="7" y="6"><path d="m12.5785 36.4722c.694.6695 4.081 1.3991 5.6877 1.6802 2.8421-.5471 5.4968-1.7522 6.4688-2.2863.9783-.7616 3.273-4.1715 4.298-5.7813.391-1.0114 1.3349-5.9294 1.7579-8.262-.0293-2.3183-1.6952-7.7867-2.5245-10.2311-1.0923-1.4435-4.1154-3.60461-5.4904-4.50471-1.305-.16253-4.2937-.35367-5.8092.18198-3.8182 1.43266-6.0315 3.62173-6.6609 4.53723-.49167.8149-1.57436 2.7811-1.97175 4.1275-.95004 3.1945-1.48546 9.6211-1.14252 10.5914 3.08377 8.578 4.51927 9.1102 5.38687 9.9471z" fill="#d9d9d9"/></mask><mask id="bs" height="33" maskUnits="userSpaceOnUse" width="24" x="7" y="6"><path d="m12.5785 36.4722c.694.6695 4.081 1.3991 5.6877 1.6802 2.8421-.5471 5.4968-1.7522 6.4688-2.2863.9783-.7616 3.273-4.1715 4.298-5.7813.391-1.0114 1.3349-5.9294 1.7579-8.262-.0293-2.3183-1.6952-7.7867-2.5245-10.2311-1.0923-1.4435-4.1154-3.60461-5.4904-4.50471-1.305-.16253-4.2937-.35367-5.8092.18198-3.8182 1.43266-6.0315 3.62173-6.6609 4.53723-.49167.8149-1.57436 2.7811-1.97175 4.1275-.95004 3.1945-1.48546 9.6211-1.14252 10.5914 3.08377 8.578 4.51927 9.1102 5.38687 9.9471z" fill="#02a97d"/></mask><mask id="bt" height="28" maskUnits="userSpaceOnUse" width="22" x="8" y="8"><path d="m16.4583 12.6899 2.123-4.24868 1.4685 4.15478 2.2664 4.1951 2.081 2.0075 4.6072 2.78-4.7687 2.861-1.5465 1.7221-2.9339 4.1718-2.9384 5.5449-2.0622-5.8347-1.0773-3.048-2.1628-1.6847-3.21908-3.5644 5.11628-4.6493z" fill="#01d5a4"/></mask><g mask="url(#bi)"><g mask="url(#bj)"><path d="m24.705 27.8391c-.6852.437-3.605.4736-4.9792.4372-2.2564-.927-4.2478-2.3662-4.9615-2.9699-.6809-.7927-2.0064-3.993-2.5841-5.4941-.1539-.9009-.1115-5.1213-.0711-7.1189.4117-1.9101 2.7019-6.14888 3.7955-8.02949 1.1437-1.00987 4.0022-2.28975 5.2885-2.80345 1.1051.08386 3.6059.42554 4.7683 1.12135 2.9147 1.82169 4.377 4.00001 4.7439 4.86145.27.7553.8357 2.56054.9389 3.73914.2508 2.7977-.3811 8.196-.8266 8.9402-3.9812 6.5705-5.256 6.7702-6.1126 7.3165z" fill="url(#ai)"/></g><path d="m17.9214 11.9151-4.8068.9415.4076-2.605 2.4838-4.75682 3.7433-2.91174 1.6763-.5726 3.1858 1.36144-1.5751 3.54281z" fill="url(#aj)"/><path d="m16.8376 14.3148-3.9558-1.791-1.3662 4.2101 1.6563 6.5964 5.4387 4.8216 6.319-.0914 2.7499-3.217-2.2956-3.1875-5.593-1.5346z" fill="url(#ak)"/><path d="m26.2609 21.2174 4.3297-.3446c-2.363 5.033-5.3375 6.6553-6.5294 6.8373z" fill="url(#al)"/><g filter="url(#a)"><ellipse fill="#07ffba" fill-opacity=".8" rx="4.3209" ry="5.01732" transform="matrix(-.959135 -.282948 -.282948 .959135 14.4739 22.3319)"/></g><g filter="url(#b)"><ellipse fill="#09fdee" fill-opacity=".6" rx="2.97763" ry="3.45755" transform="matrix(-.959135 -.282948 -.282948 .959135 14.4737 22.3321)"/></g><path d="m17.7355 19.9192c1.1192.8209-.4058 4.3914-1.3082 6.074l4.6031 2.1892 1.0505-4.5926-1.3405-7.2192-7.2831-3.6824-1.5847 4.0989c1.488.702 4.7438 2.3112 5.8629 3.1321z" fill="url(#am)"/><g filter="url(#c)"><ellipse fill="#07ffba" fill-opacity=".8" rx="6.44966" ry="7.48919" transform="matrix(-.959135 -.282948 -.282948 .959135 28.8131 6.59456)"/></g><g filter="url(#d)"><ellipse fill="#80fff7" rx="3.09946" ry="3.59903" transform="matrix(-.959135 -.282948 -.282948 .959135 28.8133 6.5945)"/></g><path d="m24.4326 3.69233-3.5891-1.52615c.9429-.96864 3.465-.48098 4.6082-.11607l1.4858 1.64587z" fill="url(#an)"/><path d="m17.4568 4.71961 3.5227-2.50282-2.7949-1.01462-7.3811 6.6559-.563 16.37633 10.5031 5.6077 5.6277-.7757 5.3611-7.2536 1.1621-7.3893-1.522-2.3378-.6924 4.307-.9769 5.6321-2.5263 2.9719-3.416 2.9827-2.4509-1.4671-5.7795-1.0137-1.0543-4.3678-1.5537-3.9873.6953-4.3396.3368-3.05958z" fill="url(#an)"/><path d="m24.5054 3.14957.8391-.41715c-.9633-.3126-3.1586-.61769-4.1358-.73115z" fill="#09fcc2"/><path d="m17.4384 4.5394.8408-1.40463-2.5976 1.33425-.9282 2.27908z" fill="#09fcdf"/><path d="m13.0493 12.8647-.1087-2.4876-2.354 4.6214 2.1038 10.1761 6.7541 3.7852 2.8737-.7538-2.7618-.9831-2.0175-.0738-3.0209-2.2722-.7774-3.6094-1.42-1.6747-.1996-2.3358z" fill="url(#ao)"/><path d="m25.6041 26.6529-.5811.7674 1.5813-.1687 4.5862-4.6742.8774-3.6742-.4796-4.9914-.8141 3.3248.3516 2.4613-.8578 1.4331-3.0598 4.4341z" fill="#09fdee"/><path d="m29.4982 8.77009 1.8386 3.76061c.5858-.9786-.1627-2.99773-.6101-3.88498z" fill="#b2fffe"/><path d="m29.5306 8.7944 1.2145-.07377c-.1131-.46287-.5628-1.67343-1.4576-2.81269-.8949-1.13926-2.2944-2.015-2.8823-2.31046l2.834 3.02258z" fill="#eefffe"/><path d="m29.5287 8.80748-1.9048 4.13032c-.5452-1.0399-1.6386-3.76473-2.1171-4.99717z" fill="#00bc8d"/><path d="m28.4309 24.0132c-.258-.2193-.8426-3.7456-.9914-5.3482-2.5772.079-3.5128 2.4747-3.6506 3.7436 1.1747.6383 2.8692 2.1673 3.5619 2.7711z" fill="url(#ap)"/><path d="m14.4473 21.2419 5.2859.0898c-.6795-3.1899-1.858-4.6451-2.3623-4.9739z" fill="url(#aq)"/><path d="m17.4743 4.65745 5.1736 2.01133-1.0553 2.89633-3.2632 1.37109c.119-.7429-.5205-4.49537-.8551-6.27875z" fill="url(#ar)"/><g mask="url(#bk)"><path d="m25.4759 7.54514-1.0436-3.86452-1.9075 3.1867-2.5735 3.08659-2.0546 1.31049-4.2705 1.5263 3.461 3.1605.9897 1.6811 1.7262 3.9365 1.5005 5.0716 2.6788-4.4751 1.3994-2.3378 2.0682-1.0301 3.255-2.4064-3.4492-4.6958z" fill="url(#as)"/><g filter="url(#e)"><ellipse fill="#38ffc7" fill-opacity=".8" rx="6.44966" ry="7.48919" transform="matrix(-.959135 -.282948 -.282948 .959135 27.6591 9.9969)"/></g><g filter="url(#f)"><ellipse fill="#09fdee" fill-opacity=".6" rx="3.09946" ry="3.59903" transform="matrix(-.959135 -.282948 -.282948 .959135 27.6592 9.99587)"/></g><g filter="url(#g)"><ellipse fill="#ddfffd" rx="4.49187" ry="5.21586" transform="matrix(-.959135 -.282948 -.282948 .959135 25.9523 7.55401)"/></g><g filter="url(#h)"><ellipse fill="#ddfffd" rx="6.84135" ry="7.94402" transform="matrix(-.959135 -.282948 -.282948 .959135 24.7663 10.8975)"/></g><g filter="url(#i)"><ellipse fill="#ddfffd" rx="3.20687" ry="3.72374" transform="matrix(-.959135 -.282948 -.282948 .959135 19.846 22.0568)"/></g><path d="m22.5194 6.60473 3.1491 1.40513-.8356-5.73863z" fill="url(#at)"/><path d="m27.1763 14.6307.6757-2.1952 3.7718 4.1314-4.2353 2.4259z" fill="url(#au)"/><path d="m21.5689 21.339 2.288 1.0853-2.7829 4.9064-1.6193-6.0012z" fill="#099d78"/><path d="m18.2769 10.7168c.2769 1.6204-.5668 4.5219-1.0098 5.5926l-5.0491-3.4677z" fill="#00bd8c"/></g><g filter="url(#j)"><path clip-rule="evenodd" d="m23.9076 15.1948-2.7879 1.3561-1.0089-2.058c-.1864-.3422-.5685-.4953-.8686-.35-.3001.1454-.4123.5402-.2569.8975l1.3315 2.7159c.1802.3602.5729.5305.8839.3836l3.3524-1.6308-.4253 1.6496c-.0936.3632.1107.7813.4561.9312.3459.1485.7026-.0246.7966-.3892l1.3305-5.161c.0937-.3633-.1106-.7814-.4561-.9313s-.7022.0232-.7962.3879l-.4253 1.6496-1.9206-3.9171c-.1802-.3602-.5743-.5312-.8839-.3836l-2.324 1.1282c-.2899.1641-.3833.5671-.211.9174s.5476.5243.8561.3984l1.7589-.8571zm-2.033-1.6361c.2564.1113.4474.3716.4814.6587.0353.2878-.0914.5464-.3217.654-.2293.1096-.5175.0462-.7276-.1574-.2115-.2042-.3036-.5102-.2353-.7752.0448-.1738.1539-.3118.3042-.3827.1517-.0704.3303-.0705.499.0026z" fill="#ccfff0" fill-rule="evenodd"/></g><path clip-rule="evenodd" d="m23.9076 15.1948-2.7879 1.3561-1.0089-2.058c-.1864-.3422-.5685-.4953-.8686-.35-.3001.1454-.4123.5402-.2569.8975l1.3315 2.7159c.1802.3602.5729.5305.8839.3836l3.3524-1.6308-.4253 1.6496c-.0936.3632.1107.7813.4561.9312.3459.1485.7026-.0246.7966-.3892l1.3305-5.161c.0937-.3633-.1106-.7814-.4561-.9313s-.7022.0232-.7962.3879l-.4253 1.6496-1.9206-3.9171c-.1802-.3602-.5743-.5312-.8839-.3836l-2.324 1.1282c-.2899.1641-.3833.5671-.211.9174s.5476.5243.8561.3984l1.7589-.8571zm-2.033-1.6361c.2564.1113.4474.3716.4814.6587.0353.2878-.0914.5464-.3217.654-.2293.1096-.5175.0462-.7276-.1574-.2115-.2042-.3036-.5102-.2353-.7752.0448-.1738.1539-.3118.3042-.3827.1517-.0704.3303-.0705.499.0026z" fill="url(#av)" fill-rule="evenodd"/><g filter="url(#k)"><path d="m27.2544 11.6389-1.5853-3.66063-3.0321-1.31471 2.5767 1.63853z" fill="#ccfff3"/></g><path d="m27.2544 11.6389-1.5853-3.66063-3.0321-1.31471 2.5767 1.63853z" fill="#e9feff"/><g filter="url(#l)"><path d="m28.4088 11.2492 1.1066-2.4396.5692 1.15915-.4809-.63141z" fill="#ccfff3"/></g><path d="m28.4088 11.2492 1.1066-2.4396.5692 1.15915-.4809-.63141z" fill="#e9feff"/><g filter="url(#m)"><path d="m19.721 21.3525 1.8419-.0122-1.3195-.395-2.1562-3.2647z" fill="#ccfff3"/></g><path d="m19.721 21.3525 1.8419-.0122-1.3195-.395-2.1562-3.2647z" fill="#ccfff3"/><g filter="url(#n)"><path clip-rule="evenodd" d="m18.3707 10.8545c-.0456-.0002-.0826.0366-.0828.0822-.0036 1.0185-.2167 3.5251-1.0345 5.4013l-.0163.0374.0199.0357c.5097.9133 1.7011 3.1878 2.3913 4.9813.0163.0425.0641.0637.1066.0473.0425-.0163.0637-.0641.0474-.1066-.6856-1.7814-1.8599-4.0288-2.3814-4.9668.8174-1.9015 1.0284-4.4076 1.032-5.4291.0002-.0455-.0366-.0826-.0822-.0827z" fill="#d2fff6" fill-rule="evenodd"/></g><path clip-rule="evenodd" d="m18.3707 10.8545c-.0456-.0002-.0826.0366-.0828.0822-.0036 1.0185-.2167 3.5251-1.0345 5.4013l-.0163.0374.0199.0357c.5097.9133 1.7011 3.1878 2.3913 4.9813.0163.0425.0641.0637.1066.0473.0425-.0163.0637-.0641.0474-.1066-.6856-1.7814-1.8599-4.0288-2.3814-4.9668.8174-1.9015 1.0284-4.4076 1.032-5.4291.0002-.0455-.0366-.0826-.0822-.0827z" fill="#dcfff9" fill-rule="evenodd"/><path d="m24.1257 27.7311 4.1217-3.5758-1.5951.3507-4.5528 2.4965 1.5549.9307z" fill="url(#aw)"/><g filter="url(#o)"><path clip-rule="evenodd" d="m27.8721 12.4606c-.043-.015-.09.0078-.105.0508-.1109.3186-.2646.7892-.3976 1.2152-.1323.4238-.2461.8099-.2751.9557l-.002.01.2127 4.1001-1.9966 1.0212-1.5339 2.5625c-.0234.0391-.0106.0897.0284.1131.0391.0234.0898.0107.1132-.0284l1.5096-2.5218 2.0496-1.0484-.2172-4.186c.0301-.1429.1385-.5116.2688-.9288.1326-.4249.2858-.8937.3959-1.2102.015-.043-.0077-.09-.0508-.105z" fill="#d2fff6" fill-rule="evenodd"/></g><g clip-rule="evenodd" fill-rule="evenodd"><path d="m27.8721 12.4606c-.043-.015-.09.0078-.105.0508-.1109.3186-.2646.7892-.3976 1.2152-.1323.4238-.2461.8099-.2751.9557l-.002.01.2127 4.1001-1.9966 1.0212-1.5339 2.5625c-.0234.0391-.0106.0897.0284.1131.0391.0234.0898.0107.1132-.0284l1.5096-2.5218 2.0496-1.0484-.2172-4.186c.0301-.1429.1385-.5116.2688-.9288.1326-.4249.2858-.8937.3959-1.2102.015-.043-.0077-.09-.0508-.105z" fill="#dcfff9"/><path d="m31.6442 11.5824c-.1032-1.1786-.6689-2.98384-.9389-3.73914-.3669-.86144-1.8292-3.03976-4.7439-4.86145-1.1624-.69581-3.6632-1.03749-4.7683-1.12135-1.2863.5137-4.1448 1.79358-5.2885 2.80345-1.0936 1.88061-3.3838 6.11939-3.7955 8.02949-.0404 1.9976-.0828 6.218.0711 7.1189.5777 1.5011 1.9032 4.7014 2.5841 5.4941.7137.6037 2.7051 2.0429 4.9615 2.9699 1.3742.0364 4.294-.0002 4.9792-.4372.092-.0587.1889-.1134.2934-.1724.8683-.4904 2.2657-1.2795 5.8192-7.1441.4455-.7442 1.0774-6.1425.8266-8.9402zm-1.1094 8.7701c.0297-.05.0787-.1755.1375-.3975.0564-.2126.1148-.4861.1729-.8084.1161-.644.228-1.4672.3185-2.3575.1816-1.7855.2744-3.8098.1518-5.1773v-.0006c-.0988-1.1281-.647-2.88864-.9175-3.64741-.3443-.79956-1.7577-2.91767-4.6087-4.70043-.5295-.31607-1.3958-.56649-2.2986-.74821-.853-.17168-1.7008-.2749-2.2465-.31963-.6396.25789-1.629.68843-2.601 1.17561-.9934.49789-1.9371 1.03962-2.4807 1.50579-.5445.93877-1.3714 2.43685-2.1158 3.93732-.7542 1.52056-1.4045 3.00636-1.6083 3.91826-.02.9981-.0402 2.5318-.0367 3.9308.0018.7073.0097 1.3782.0266 1.9273.0163.5299.0406.9264.0722 1.1352.2883.7475.7553 1.8992 1.234 2.9639.2429.5401.4874 1.0546.712 1.4812.2201.4179.4098.7293.5519.9013.7062.5926 2.6247 1.9733 4.7969 2.8758.6819.0164 1.7118.0146 2.6587-.0422.4882-.0293.9479-.0728 1.3237-.1345.3924-.0645.6416-.1414.7499-.2104.1031-.0658.207-.1246.3162-.1863.3789-.2143.8205-.4641 1.5104-1.166.897-.9127 2.1954-2.5798 4.1806-5.8561z" fill="#074c37"/></g></g><g mask="url(#bl)"><g mask="url(#bm)"><path d="m7.074 30.9957c.61663.4019 3.2604.461 4.5052.4404 2.0515-.8194 3.8677-2.1049 4.5194-2.6453.6236-.7117 1.8525-3.5981 2.3891-4.9523.1474-.8144.1466-4.6366.1278-6.4459-.3558-1.7335-2.3919-5.5924-3.3655-7.3052-1.0267-.92466-3.6039-2.10916-4.7641-2.58582-1.00154.06609-3.26925.35321-4.3281.97296-2.65563 1.62366-3.99934 3.58326-4.33925 4.36006-.25119.6816-.77958 2.3113-.883557 3.3777-.252068 2.5313.272077 7.4254.668867 8.1034 3.54669 5.9855 4.69935 6.1777 5.47014 6.68z" fill="url(#ax)"/></g><path d="m13.359 16.6357 4.3446.8955-.3459-2.3627-2.2068-4.3298-3.3639-2.67014-1.5129-.53347-2.89713 1.20448 1.39482 3.22233z" fill="url(#ay)"/><path d="m14.319 18.8195 3.5982-1.5866 1.1997 3.8247-1.5587 5.9587-4.9681 4.3178-5.72148-.1391-2.46156-2.9377 2.10727-2.866 5.07847-1.3398z" fill="url(#az)"/><path d="m5.72268 24.9854-3.91774-.3506c2.09498 4.5788 4.77413 6.0744 5.85183 6.2499z" fill="url(#aA)"/><g filter="url(#p)"><ellipse cx="16.3868" cy="26.1001" fill="#ffb392" fill-opacity=".8" rx="3.91306" ry="4.54376" transform="matrix(.96187364 -.27349423 .27349423 .96187364 -6.513458 5.476797)"/></g><g filter="url(#q)"><ellipse cx="16.3874" cy="26.1005" fill="#fff3e1" fill-opacity=".6" rx="2.69658" ry="3.1312" transform="matrix(.96187364 -.27349423 .27349423 .96187364 -6.513544 5.476976)"/></g><path d="m13.4551 23.8854c-1.0208.7334.3283 3.9803 1.1305 5.5121l-4.1879 1.9414-.91039-4.1683 1.27829-6.5255 6.6282-3.2697 1.3985 3.7259c-1.3538.6225-4.3165 2.0507-5.3372 2.7841z" fill="url(#aB)"/><g filter="url(#r)"><ellipse cx="3.54197" cy="11.7202" fill="#ffa192" fill-opacity=".8" rx="5.8409" ry="6.78231" transform="matrix(.96187364 -.27349423 .27349423 .96187364 -3.070365 1.415557)"/></g><g filter="url(#s)"><ellipse cx="3.54187" cy="11.7199" fill="#ffe6ce" rx="2.80692" ry="3.25933" transform="matrix(.96187364 -.27349423 .27349423 .96187364 -3.070286 1.415518)"/></g><path d="m7.53512 9.13077 3.26378-1.35005c-.84527-.88557-3.13352-.46645-4.172-.14619l-1.36021 1.47721z" fill="url(#aC)"/><path d="m13.843 10.1232-3.1678-2.29787 2.5401-.89389 6.6248 6.09316.3638 14.8349-9.5612 4.9845-5.08942-.7525-4.790196-6.6165-.986458-6.7018 1.399134-2.1035.58863 3.9065.83443 5.1089 2.26122 2.7138 3.06686 2.7315 2.2325-1.3067 5.2428-.8665.9937-3.9459 1.4425-3.597-.591-3.936-.2777-2.7736z" fill="url(#aC)"/><path d="m7.47328 8.63817-.75612-.38524c.87514-.2745 2.86583-.5312 3.75174-.62525z" fill="#ffb291"/><path d="m13.861 9.96015-.7489-1.27949 2.3404 1.23142.8202 2.07212z" fill="#ff9b95"/><path d="m17.7611 17.5381.1207-2.2517 2.0904 4.206-1.9958 9.1964-6.15 3.3676-2.59564-.7083 2.50974-.8657 1.8276-.0488 2.756-2.0307.7361-3.2616 1.3008-1.5039.2016-2.1134z" fill="url(#aD)"/><path d="m6.26885 29.9125.51934.7002-1.43041-.1669-4.1115-4.2737-.761801-3.335.478787-4.5158.707604 3.0181-.34038 2.2257.76407 1.3054 2.73132 4.0427z" fill="#ffb4b1"/><path d="m2.90223 13.6842-1.69855 3.3891c-.521735-.8914.17407-2.7132.58718-3.5127z" fill="#ffefd7"/><path d="m2.87234 13.7046-1.09909-.0776c.10647-.4182.52453-1.5104 1.34502-2.5341s2.09568-1.80427 2.63072-2.06659l-2.59335 2.71189z" fill="#fff5f2"/><path d="m2.87478 13.7186 1.68811 3.7573c.50294-.9368 1.51735-3.3946 1.96169-4.5064z" fill="#fc5544"/><path d="m3.73411 27.4992c.23554-.1963.7964-3.3844.94545-4.8344 2.33309.0946 3.15895 2.2724 3.27251 3.4227-1.06949.5675-2.61761 1.9371-3.25024 2.4777z" fill="url(#aE)"/><path d="m16.4218 25.1138-4.7876.0342c.6438-2.8826 1.724-4.1899 2.1836-4.4832z" fill="url(#aF)"/><path d="m13.8288 10.0688-4.70292 1.7752.92982 2.6323 2.9428 1.2707c-.1011-.6738.5114-4.0662.8303-5.6782z" fill="url(#aG)"/><g mask="url(#bn)"><path d="m6.55713 12.6111.97947-3.49025 1.69901 2.90275 2.30289 2.8181 1.8489 1.205 3.8537 1.4203-3.1624 2.8311-.9112 1.5136-1.5983 3.5494-1.404 4.5793-2.38595-4.0764-1.24639-2.1295-1.86374-.9512-2.92617-2.2082 3.16538-4.2216z" fill="url(#aH)"/><g filter="url(#t)"><ellipse cx="4.55833" cy="14.812" fill="#ffa192" rx="5.8409" ry="6.78231" transform="matrix(.96187364 -.27349423 .27349423 .96187364 -3.877204 1.811405)"/></g><g filter="url(#u)"><ellipse cx="4.55822" cy="14.8117" fill="#ffb7ac" rx="2.80692" ry="3.25933" transform="matrix(.96187364 -.27349423 .27349423 .96187364 -3.877126 1.811363)"/></g><g filter="url(#v)"><ellipse cx="6.13057" cy="12.6126" fill="#fff9e3" rx="4.0679" ry="4.72355" transform="matrix(.96187364 -.27349423 .27349423 .96187364 -3.215737 2.157548)"/></g><g filter="url(#w)"><path d="m13.1347 13.9558c1.0866 3.8218-.7006 7.6786-3.99186 8.6144-3.29129.9358-6.84032-1.4037-7.92698-5.2255-1.086658-3.8217.70055-7.67853 3.99184-8.61436 3.29129-.93582 6.8403 1.40366 7.927 5.22546z" fill="#fff0e2"/></g><g filter="url(#x)"><ellipse cx="11.5619" cy="25.7678" fill="#fff9e3" rx="2.90419" ry="3.37227" transform="matrix(.96187364 -.27349423 .27349423 .96187364 -6.606531 4.144545)"/></g><path d="m9.2427 11.7852-2.8643 1.2443.80792-5.18924z" fill="url(#aI)"/><path d="m4.95475 19.0125-.59233-1.9939-3.452424 3.7076 3.813674 2.2346z" fill="url(#aJ)"/><path d="m9.97276 25.1373-2.08162.9624 2.47636 4.4679 1.5199-5.4201z" fill="#cd3b27"/><path d="m13.0481 15.5472c-.2652 1.4649.473 4.0999.8647 5.0735l4.6032-3.0952z" fill="#de4a36"/></g><g filter="url(#y)"><path clip-rule="evenodd" d="m7.90887 19.5528 2.51253 1.2529.932-1.8547c.1718-.3082.5193-.4435.7897-.3092.2704.1344.3686.4929.2246.815l-1.2299 2.4476c-.1665.3245-.5236.4753-.8039.3395l-3.02127-1.5067.37041 1.4976c.08156.3298-.10719.7066-.42137.8393-.31451.1313-.636-.0286-.71789-.3597l-1.15886-4.6854c-.08157-.3298.10718-.7066.42137-.8393.31419-.1326.63568.0273.71756.3583l.3704 1.4976 1.77415-3.53c.16643-.3246.5248-.4759.80388-.3395l2.09452 1.0424c.261.1512.342.5169.1829.8326-.1592.3157-.5006.4699-.7789.3532l-1.58516-.7919zm1.85561-1.4635c-.23319.0985-.40846.3325-.44181.5922-.03457.2603.07785.4956.28544.5951.20668.1013.46829.0465.66039-.136.1933-.183.2794-.4594.2199-.6999-.039-.1578-.1365-.2837-.272-.3493-.1368-.0651-.29851-.0668-.45192-.0021z" fill="#ffede8" fill-rule="evenodd"/></g><path clip-rule="evenodd" d="m7.90887 19.5528 2.51253 1.2529.932-1.8547c.1718-.3082.5193-.4435.7897-.3092.2704.1344.3686.4929.2246.815l-1.2299 2.4476c-.1665.3245-.5236.4753-.8039.3395l-3.02127-1.5067.37041 1.4976c.08156.3298-.10719.7066-.42137.8393-.31451.1313-.636-.0286-.71789-.3597l-1.15886-4.6854c-.08157-.3298.10718-.7066.42137-.8393.31419-.1326.63568.0273.71756.3583l.3704 1.4976 1.77415-3.53c.16643-.3246.5248-.4759.80388-.3395l2.09452 1.0424c.261.1512.342.5169.1829.8326-.1592.3157-.5006.4699-.7789.3532l-1.58516-.7919zm1.85561-1.4635c-.23319.0985-.40846.3325-.44181.5922-.03457.2603.07785.4956.28544.5951.20668.1013.46829.0465.66039-.136.1933-.183.2794-.4594.2199-.6999-.039-.1578-.1365-.2837-.272-.3493-.1368-.0651-.29851-.0668-.45192-.0021z" fill="url(#aK)" fill-rule="evenodd"/><g filter="url(#z)"><path d="m4.91423 16.3009 1.46826-3.3008 2.7575-1.1636-2.48163 1.972z" fill="#ffd6d1"/></g><path d="m4.91423 16.3009 1.46826-3.3008 2.7575-1.1636-2.48163 1.972z" fill="#fff"/><g filter="url(#A)"><path d="m3.87261 15.9372-.98042-2.2191-.52578 1.0446.44112-.5675z" fill="#ffd6d1"/></g><path d="m3.87261 15.9372-.98042-2.2191-.52578 1.0446.44112-.5675z" fill="#fffaf9"/><g filter="url(#B)"><path d="m11.6495 25.1636-1.66784-.0274 1.19844-.346 1.9817-2.9372z" fill="#ffd6d1"/></g><path d="m11.6495 25.1636-1.66784-.0274 1.19844-.346 1.9817-2.9372z" fill="#ffdfd1"/><g filter="url(#C)"><path clip-rule="evenodd" d="m12.9805 15.6601c.0413.0003.0745.0339.0743.0752-.0058.9224.1648 3.1942.8886 4.9004l.0145.0341-.0184.0322c-.4696.8224-1.5688 2.8715-2.2098 4.4895-.0152.0384-.0586.0572-.097.042s-.0571-.0586-.042-.097c.6367-1.6071 1.7202-3.6318 2.2008-4.4765-.7232-1.7293-.892-4.0006-.8862-4.9257.0003-.0412.034-.0745.0752-.0742z" fill="#ffe7e4" fill-rule="evenodd"/></g><path clip-rule="evenodd" d="m12.9805 15.6601c.0413.0003.0745.0339.0743.0752-.0058.9224.1648 3.1942.8886 4.9004l.0145.0341-.0184.0322c-.4696.8224-1.5688 2.8715-2.2098 4.4895-.0152.0384-.0586.0572-.097.042s-.0571-.0586-.042-.097c.6367-1.6071 1.7202-3.6318 2.2008-4.4765-.7232-1.7293-.892-4.0006-.8862-4.9257.0003-.0412.034-.0745.0752-.0742z" fill="#ffe7e4" fill-rule="evenodd"/><path d="m7.61925 30.8921-3.70067-3.2749 1.44141.3318 4.10057 2.3014-1.41634.8289z" fill="url(#aL)"/><g filter="url(#D)"><path clip-rule="evenodd" d="m4.36301 17.0301c.0391-.0132.08148.0078.09466.0469.09759.2896.23262.7171.34925 1.1041.11601.3849.21564.7355.24061.8678l.00173.0092-.22918 3.7109 1.79894.9427 1.36617 2.3341c.02085.0356.00888.0814-.02673.1022s-.08138.0089-.10222-.0267l-1.34453-2.2972-1.84673-.9677.23398-3.7887c-.02594-.1297-.12089-.4646-.23511-.8435-.11633-.386-.25086-.8119-.34777-1.0994-.01318-.0391.00783-.0815.04693-.0947z" fill="#ffe7e4" fill-rule="evenodd"/></g><g clip-rule="evenodd" fill-rule="evenodd"><path d="m4.36301 17.0301c.0391-.0132.08148.0078.09466.0469.09759.2896.23262.7171.34925 1.1041.11601.3849.21564.7355.24061.8678l.00173.0092-.22918 3.7109 1.79894.9427 1.36617 2.3341c.02085.0356.00888.0814-.02673.1022s-.08138.0089-.10222-.0267l-1.34453-2.2972-1.84673-.9677.23398-3.7887c-.02594-.1297-.12089-.4646-.23511-.8435-.11633-.386-.25086-.8119-.34777-1.0994-.01318-.0391.00783-.0815.04693-.0947z" fill="#fff5f3"/><path d="m.934993 16.2123c.103977-1.0664.632367-2.6961.883557-3.3777.33991-.7768 1.68362-2.7364 4.33925-4.36006 1.05884-.61975 3.32656-.90687 4.3281-.97296 1.1602.47666 3.7374 1.66116 4.7641 2.58582.9736 1.7128 3.0097 5.5717 3.3655 7.3052.0188 1.8093.0196 5.6315-.1278 6.4459-.5366 1.3542-1.7655 4.2406-2.3891 4.9523-.6517.5404-2.4679 1.8259-4.5194 2.6453-1.2448.0206-3.88857-.0385-4.5052-.4404-.08281-.0539-.17002-.1043-.26414-.1587-.78194-.4518-2.04034-1.1788-5.206-6.5213-.39679-.678-.920935-5.5721-.668867-8.1034zm.926457 7.9519c-.02645-.0456-.0697-.1597-.12098-.3612-.04912-.1931-.09962-.4413-.14936-.7336-.09937-.5842-.19334-1.3307-.26742-2.1377-.14855-1.6185-.21453-3.4526-.09132-4.6898l.00005-.0006c.09953-1.0207.61165-2.6101.86339-3.2948.31886-.721 1.61765-2.6265 4.21536-4.21546.48234-.28151 1.26901-.50056 2.08824-.65707.774-.14786 1.54258-.23378 2.03719-.26943.5769.23925 1.469.63795 2.3449 1.08779.8951.45973 1.7449.95871 2.233 1.38567.4847.855 1.2202 2.219 1.8809 3.5844.6695 1.3837 1.2451 2.735 1.4216 3.5626.0092.904.0138 2.2931-.0019 3.5599-.0079.6405-.021 1.248-.0412 1.7452-.0195.4796-.0451.8385-.0755 1.0273-.2678.6743-.7009 1.7131-1.1439 2.673-.2248.4869-.4508.9507-.658 1.3349-.203.3765-.3776.6569-.5078.8113-.6448.5304-2.3945 1.7636-4.3695 2.5615-.6177.0088-1.55039-.002-2.40736-.0619-.44181-.0308-.85767-.0744-1.19748-.1336-.35477-.0619-.57973-.1337-.67719-.1972-.09282-.0605-.18641-.1147-.28469-.1716-.34118-.1974-.73893-.4275-1.3574-1.0693-.80418-.8345-1.96509-2.3558-3.73363-5.3403z" fill="#992b1e"/></g></g><g mask="url(#bo)"><g mask="url(#bp)"><path d="m22.1302 30.3849c.2541.6619 2.2833 2.2013 3.2661 2.8883 2.0634.5196 4.2065.5425 5.0202.4891.8885-.203 3.4776-1.7607 4.6611-2.5142.5751-.5521 2.7335-3.5346 3.7408-4.9568.7015-1.5533 1.2927-5.7141 1.5005-7.6003-.2786-1.3013-1.6202-3.6811-2.2562-4.7084-.8186-.5141-2.75-1.5711-3.9262-1.6856-2.989-.2333-5.1442.5365-5.8481.9506-.581.3898-1.9138 1.3628-2.5972 2.1361-1.6265 1.8324-3.982 5.9468-4.0554 6.6998-.6139 6.6731.1768 7.4741.4944 8.3014z" fill="url(#aM)"/></g><path d="m35.1449 22.7314 2.8837 3.1526 1.0647-2.0387.724-4.6245-1.1162-3.9832-.879-1.2708-2.9406-.6967-.7319 3.3018z" fill="url(#aN)"/><path d="m34.6607 24.9775 3.7034.7947-1.2244 3.6616-4.5819 3.7683-6.3149.5625-4.3851-3.3403-.2611-3.6824 3.2629-1.0457 4.7189 1.8233z" fill="url(#aO)"/><path d="m24.4713 24.9323-2.8585-2.4866c-.9519 4.7556.2935 7.4358 1.0352 8.1814z" fill="url(#aP)"/><g filter="url(#E)"><ellipse cx="32.1624" cy="31.8256" fill="#1bdbfe" rx="3.76901" ry="4.37649" transform="matrix(.93949846 .34255311 -.34255311 .93949846 12.847833 -9.091833)"/></g><g filter="url(#F)"><ellipse cx="32.1624" cy="31.8257" fill="#13f1ff" rx="2.59731" ry="3.01593" transform="matrix(.93949846 .34255311 -.34255311 .93949846 12.847867 -9.091827)"/></g><path d="m31.1253 28.4416c-1.2106-.0044-1.9921 3.2908-2.2315 4.939l-4.3638-.8509 1.6441-3.7662 4.6832-4.369 7.0181 1.193-1.0135 3.6968c-1.4078-.2791-4.526-.8383-5.7366-.8427z" fill="url(#aQ)"/><g filter="url(#G)"><ellipse cx="30.2634" cy="13.3526" fill="#1bdbfe" rx="5.62587" ry="6.53263" transform="matrix(.93949846 .34255311 -.34255311 .93949846 6.404957 -9.558969)"/></g><g filter="url(#H)"><ellipse cx="30.2637" cy="13.3521" fill="#75ffff" rx="2.70358" ry="3.13934" transform="matrix(.93949846 .34255311 -.34255311 .93949846 6.404804 -9.559102)"/></g><path d="m34.8404 13.5874 3.3089.7902c-.1592-1.1683-2.1812-2.1339-3.1723-2.4706l-1.8956.3842z" fill="url(#aR)"/><path d="m39.2011 17.9247-1.1734-3.5821 2.4865.7373 1.7268 8.4958-8.0956 11.7793-10.275-1.5119-3.5455-3.4618.0001-7.8678 3.016-5.7858 2.2797-.8508-1.7474 3.3803-2.2348 4.4572.2313 3.3944.8498 3.8634 2.4799.2416 4.5797 2.2854 3.0041-2.5173 3.1572-1.9914 1.7621-3.4046 1.3501-2.3208z" fill="url(#aR)"/><path d="m35.0704 13.169-.3723-.7276c.8378.2802 2.5359 1.2043 3.2802 1.6314z" fill="#39dbff"/><path d="m39.3075 17.808.1384-1.4213 1.1304 2.2827-.5306 2.0799z" fill="#2ce6ff"/><path d="m38.0694 25.9228 1.366-1.6885-.7448 4.4622-6.7517 6.0474-6.7002-.8465-1.625-2.0187 2.447.7422 1.4534.9943 3.2972-.0276 2.4166-2.1289 1.8644-.4385 1.351-1.535z" fill="url(#aS)"/><path d="m22.1144 29.0858.0097.8396-1.0217-.9382-.7937-5.6565 1.2895-3.0323 2.9242-3.2526-1.1527 2.7543-1.5227 1.5442-.1413 1.45-.1526 4.6968z" fill="#39dbff"/><path d="m28.6542 14.5231-3.2395 1.6847c.0965-.9901 1.6684-2.0184 2.4423-2.4088z" fill="#8bf8ff"/><path d="m28.6194 14.5228-.8137-.6814c.3193-.2661 1.2624-.8821 2.4808-1.2173 1.2183-.3352 2.6541-.2239 3.2197-.1263l-3.5551.6509z" fill="#eefeff"/><path d="m28.6129 14.5344-.8053 3.8848c.9215-.4468 3.1012-1.7913 4.0759-2.4077z" fill="#27a0ff"/><path d="m21.4994 25.7704c.2947-.0201 2.533-2.1906 3.4683-3.2376 1.7669 1.3916 1.181 3.5572.6199 4.5187-1.155-.1613-3.1364.0327-3.9353.0972z" fill="url(#aT)"/><path d="m32.7455 31.0754-3.7544-2.6776c2.1304-1.8853 3.7116-2.295 4.2359-2.2642z" fill="url(#aU)"/><path d="m39.2209 17.8734-4.6719-1.2714-.7614 2.5788 1.5781 2.6536c.3017-.5828 2.6958-2.8835 3.8552-3.961z" fill="url(#aV)"/><g mask="url(#bq)"><path d="m32.1114 15.7503 2.7356-2.1697-.3141 3.2243.2049 3.4994.7618 1.9845 2.2043 3.2848-4.0664.4225-1.5658.6662-3.2519 1.8663-3.6819 2.7796.4411-4.528.2304-2.3654-.9167-1.7949-1.0356-3.3756 4.8541-1.5056z" fill="url(#aW)"/><g filter="url(#I)"><ellipse cx="29.3087" cy="16.338" fill="#77ecff" rx="5.62587" ry="6.53263" transform="matrix(.93949846 .34255311 -.34255311 .93949846 7.369854 -9.051312)"/></g><g filter="url(#J)"><ellipse cx="29.3085" cy="16.3374" fill="#8af8ff" rx="2.70358" ry="3.13934" transform="matrix(.93949846 .34255311 -.34255311 .93949846 7.369636 -9.05128)"/></g><g filter="url(#K)"><ellipse cx="31.7675" cy="15.5091" fill="#c5fbff" rx="3.91814" ry="4.54966" transform="matrix(.93949846 .34255311 -.34255311 .93949846 7.234673 -9.943732)"/></g><g filter="url(#L)"><ellipse cx="30.8659" cy="18.4694" fill="#d7fff8" rx="5.96754" ry="6.92937" transform="matrix(.93949846 .34255311 -.34255311 .93949846 8.194185 -9.455783)"/></g><g filter="url(#M)"><ellipse cx="28.5311" cy="28.8487" fill="#c5fbff" rx="2.79727" ry="3.24813" transform="matrix(.93949846 .34255311 -.34255311 .93949846 11.608387 -8.028026)"/></g><path d="m34.6724 16.6234-2.9375-.6471 3.5614-3.5922z" fill="url(#aX)"/><path d="m27.245 19.8395.6641-1.8902-4.7877.9425 1.7131 3.8975z" fill="url(#aY)"/><path d="m27.7004 27.4518-2.1677-.425-.5917 4.8845 4.2473-3.3701z" fill="#1b80ec"/><path d="m35.5167 21.7077c-1.0343.9931-1.9468 3.4659-2.1911 4.4466l5.3396.1854z" fill="#0ba5fb"/></g><g filter="url(#N)"><path clip-rule="evenodd" d="m29.2452 21.9287 1.2525 2.3968 1.7747-.9206c.3082-.1434.6556-.0527.7907.2048.1352.2576.0092.5927-.2851.7627l-2.3421 1.2149c-.3131.1591-.6769.0751-.8189-.1893l-1.506-2.882-.557 1.3776c-.1226.3034-.4827.4907-.8028.4168-.3195-.0752-.48-.3815-.3569-.6861l1.7425-4.3101c.1226-.3033.4827-.4907.8028-.4167.32.074.4805.3803.3574.6849l-.557 1.3776 3.3782-1.752c.3131-.1592.6782-.0748.8189.1893l1.0452 1.9963c.1183.2654-.0251.5964-.3276.7529-.3025.1564-.6559.0838-.8071-.1644l-.7894-1.5132zm2.2743-.0936c-.2376-.0549-.5065.0287-.6792.2125-.174.1835-.2192.4306-.1134.6255.104.1957.3391.3008.592.2669.2542-.0336.4775-.2006.567-.4218.0586-.1452.0537-.2985-.015-.4262-.0699-.1281-.1951-.2207-.3514-.2569z" fill="#d2fffc" fill-rule="evenodd"/></g><path clip-rule="evenodd" d="m29.2452 21.9287 1.2525 2.3968 1.7747-.9206c.3082-.1434.6556-.0527.7907.2048.1352.2576.0092.5927-.2851.7627l-2.3421 1.2149c-.3131.1591-.6769.0751-.8189-.1893l-1.506-2.882-.557 1.3776c-.1226.3034-.4827.4907-.8028.4168-.3195-.0752-.48-.3815-.3569-.6861l1.7425-4.3101c.1226-.3033.4827-.4907.8028-.4167.32.074.4805.3803.3574.6849l-.557 1.3776 3.3782-1.752c.3131-.1592.6782-.0748.8189.1893l1.0452 1.9963c.1183.2654-.0251.5964-.3276.7529-.3025.1564-.6559.0838-.8071-.1644l-.7894-1.5132zm2.2743-.0936c-.2376-.0549-.5065.0287-.6792.2125-.174.1835-.2192.4306-.1134.6255.104.1957.3391.3008.592.2669.2542-.0336.4775-.2006.567-.4218.0586-.1452.0537-.2985-.015-.4262-.0699-.1281-.1951-.2207-.3514-.2569z" fill="url(#aZ)" fill-rule="evenodd"/><g filter="url(#O)"><path d="m28.7352 17.6987 3.01-1.7459 2.8086.6498-2.657-.1866z" fill="#ccfcff"/></g><path d="m28.7352 17.6987 3.01-1.7459 2.8086.6498-2.657-.1866z" fill="#e9feff"/><g filter="url(#P)"><path d="m28.1277 16.8269.4886-2.285-1.0003.518.6647-.1936z" fill="#ccfcff"/></g><path d="m28.1277 16.8269.4886-2.285-1.0003.518.6647-.1936z" fill="#e9feff"/><g filter="url(#Q)"><path d="m28.9839 28.4181-1.2858-.9634 1.1304.4069 3.2052-1.1721z" fill="#ccfcff"/></g><path d="m28.9839 28.4181-1.2858-.9634 1.1304.4069 3.2052-1.1721z" fill="#ccfcff"/><g filter="url(#R)"><path clip-rule="evenodd" d="m35.4307 21.7319c.032.0236.039.0686.0154.1006-.5255.7164-1.6756 2.5852-2.0747 4.3252l-.008.0348-.0324.0147c-.831.3764-2.846 1.3542-4.26 2.2544-.0336.0213-.078.0115-.0994-.0221-.0213-.0335-.0114-.078.0221-.0993 1.4045-.8942 3.3934-1.8618 4.2455-2.2494.4125-1.7576 1.5639-3.625 2.0909-4.3434.0235-.032.0685-.039.1006-.0155z" fill="#d2fff6" fill-rule="evenodd"/></g><path clip-rule="evenodd" d="m35.4307 21.7319c.032.0236.039.0686.0154.1006-.5255.7164-1.6756 2.5852-2.0747 4.3252l-.008.0348-.0324.0147c-.831.3764-2.846 1.3542-4.26 2.2544-.0336.0213-.078.0115-.0994-.0221-.0213-.0335-.0114-.078.0221-.0993 1.4045-.8942 3.3934-1.8618 4.2455-2.2494.4125-1.7576 1.5639-3.625 2.0909-4.3434.0235-.032.0685-.039.1006-.0155z" fill="#dcfff9" fill-rule="evenodd"/><path d="m22.6446 30.5867-1.0373-4.6453.9371 1.0731 1.8993 4.1116-1.5733-.1532z" fill="url(#a0)"/><g filter="url(#S)"><path clip-rule="evenodd" d="m27.9329 17.9327c.0379.0118.0591.0521.0473.0901-.0874.281-.2235.6908-.3511 1.0586-.1269.3658-.2473.6956-.3025.8129l-.0038.0082-2.275 2.7657.8711 1.7516-.2526 2.5927c-.0038.0395-.039.0685-.0786.0646-.0395-.0038-.0685-.039-.0646-.0786l.2485-2.5516-.8941-1.7981 2.3226-2.8237c.053-.1159.1681-.4307.293-.7909.1273-.3668.2629-.7751.3497-1.0542.0118-.0379.0521-.0591.0901-.0473z" fill="#d2fff6" fill-rule="evenodd"/></g><g clip-rule="evenodd" fill-rule="evenodd"><path d="m27.9329 17.9327c.0379.0118.0591.0521.0473.0901-.0874.281-.2235.6908-.3511 1.0586-.1269.3658-.2473.6956-.3025.8129l-.0038.0082-2.275 2.7657.8711 1.7516-.2526 2.5927c-.0038.0395-.039.0685-.0786.0646-.0395-.0038-.0685-.039-.0646-.0786l.2485-2.5516-.8941-1.7981 2.3226-2.8237c.053-.1159.1681-.4307.293-.7909.1273-.3668.2629-.7751.3497-1.0542.0118-.0379.0521-.0591.0901-.0473z" fill="#dcfff9"/><path d="m25.6912 15.3837c.6834-.7733 2.0162-1.7463 2.5972-2.1361.7039-.4141 2.8591-1.1839 5.8481-.9506 1.1762.1145 3.1076 1.1715 3.9262 1.6856.636 1.0273 1.9776 3.4071 2.2562 4.7084-.2078 1.8862-.799 6.047-1.5005 7.6003-1.0073 1.4222-3.1657 4.4047-3.7408 4.9568-1.1835.7535-3.7726 2.3112-4.6611 2.5142-.8137.0534-2.9568.0305-5.0202-.4891-.9828-.687-3.012-2.2264-3.2661-2.8883-.0341-.0888-.0737-.1774-.1164-.273-.3548-.7941-.9259-2.0722-.378-8.0284.0734-.753 2.4289-4.8674 4.0554-6.6998zm-3.7689 6.7271c.0051-.0504.0358-.1639.1097-.3501.0707-.1784.1715-.4005.2978-.6567.2525-.5119.6008-1.1474.9989-1.8188.7983-1.3467 1.7828-2.8148 2.5777-3.7105l.0004-.0004c.6542-.7401 1.9515-1.6908 2.5347-2.0828.656-.3824 2.7456-1.1354 5.6698-.9078.5353.0528 1.2728.3263 2.0003.6669.6874.3219 1.3356.689 1.7416.9405.3149.5126.7857 1.3275 1.215 2.1732.4387.8643.8198 1.7336.9594 2.3424-.1048.9408-.3014 2.4205-.5572 3.8589-.2593 1.4577-.5735 2.8371-.9033 3.5824-.5034.7105-1.2844 1.7968-2.0123 2.7763-.3679.4952-.7213.9618-1.0178 1.3382-.2862.3632-.5089.6288-.6392.7588-.5898.3749-1.5145.9407-2.4023 1.4393-.4504.253-.8887.4871-1.2674.6699-.3711.1791-.6656.2992-.8544.3461-.8027.0496-2.8643.0234-4.8559-.4697-.4868-.342-1.2084-.8773-1.8432-1.4081-.3272-.2736-.6271-.5425-.8587-.7806-.2419-.2487-.3768-.4318-.4169-.5364-.0383-.0996-.0807-.1948-.1253-.2946-.1546-.3468-.335-.751-.455-1.601-.156-1.1053-.2024-2.9479.1036-6.2754z" fill="#093665"/></g></g><g mask="url(#br)"><g mask="url(#bs)"><path d="m12.5785 36.4722c.694.6695 4.081 1.3991 5.6877 1.6802 2.8421-.5471 5.4968-1.7522 6.4688-2.2863.9783-.7616 3.273-4.1715 4.298-5.7813.391-1.0114 1.3349-5.9294 1.7579-8.262-.0293-2.3183-1.6952-7.7867-2.5245-10.2311-1.0923-1.4435-4.1154-3.60461-5.4904-4.50471-1.305-.16253-4.2937-.35367-5.8092.18198-3.8182 1.43266-6.0315 3.62173-6.6609 4.53723-.49167.8149-1.57436 2.7811-1.97175 4.1275-.95004 3.1945-1.48546 9.6211-1.14252 10.5914 3.08377 8.578 4.51927 9.1102 5.38687 9.9471z" fill="url(#a1)"/></g><path d="m24.2146 19.55 5.3685 2.2262.139-3.1254-1.7691-6.1164-3.6681-4.26711-1.8147-1.06038-4.0253.83359.9981 4.4907z" fill="url(#a2)"/><path d="m24.9104 22.5968 5.0218-1.1519.5981 5.2176-3.4784 7.2814-7.4595 4.3275-7.3272-1.5933-2.44093-4.3883 3.41973-3.1667 6.8654-.4684z" fill="url(#a3)"/><path d="m12.3265 28.4049-4.9541-1.4196c1.56365 6.4091 4.641 8.9957 5.9843 9.4879z" fill="url(#a4)"/><g filter="url(#T)"><ellipse cx="25.7723" cy="32.4751" fill="#a8f8aa" rx="5.1268" ry="5.95312" transform="matrix(.99619938 -.08710219 .08710219 .99619938 -2.730702 2.368249)"/></g><g filter="url(#U)"><ellipse cx="25.7723" cy="32.4754" fill="#fcff8d" rx="3.53299" ry="4.10242" transform="matrix(.99619938 -.08710219 .08710219 .99619938 -2.730728 2.36825)"/></g><path d="m22.5468 28.9013c-1.4946.6913-.5614 5.2024.0921 7.3716l-5.8682 1.4627-.141-5.5882 3.2577-8.08 9.3364-2.5685.8784 5.1397c-1.8957.4662-6.0607 1.5714-7.5554 2.2627z" fill="url(#a5)"/><g filter="url(#V)"><ellipse cx="12.8" cy="10.799" fill="#c1ffd3" rx="7.6526" ry="8.88602" transform="matrix(.99619938 -.08710219 .08710219 .99619938 -.891969 1.155951)"/></g><g filter="url(#W)"><ellipse cx="12.7999" cy="10.799" fill="#f8ffda" rx="3.67755" ry="4.27029" transform="matrix(.99619938 -.08710219 .08710219 .99619938 -.891969 1.155942)"/></g><path d="m18.5774 8.45479 4.533-.93024c-.8686-1.34836-3.9164-1.37474-5.3317-1.21939l-2.1153 1.5644z" fill="url(#a6)"/><path d="m26.4481 11.291-3.5078-3.73962 3.489-.52224 7.0177 9.47736-3.1991 19.1772-13.534 4.0498-6.3622-2.2263-4.52774-9.6972.38744-8.8667 2.32016-2.3606-.20831 5.1718-.18928 6.7796 2.23853 4.0506 3.2708 4.2726 3.1954-1.1294 6.9599.1811 2.2538-4.8313 2.7452-4.2715.2126-5.2103.3283-3.6373z" fill="url(#a6)"/><path d="m18.6205 7.80659-.8776-.68257c1.1939-.13685 3.8186.02495 4.9818.12295z" fill="#b1ffc7"/><path d="m26.512 11.0853-.6473-1.83139 2.7069 2.16289.5431 2.8689z" fill="#77fdbd"/><path d="m29.6564 21.8007.7119-2.8673 1.65 5.9283-4.8413 11.3392-8.7453 2.8126-3.1645-1.5529 3.4431-.4934 2.3636.389 4.0479-1.9316 1.7533-4.0146 2.0455-1.6134.7818-2.6694z" fill="url(#a7)"/><path d="m11.8118 34.8808.4951 1.0292-1.7991-.5683-4.23366-6.515-.15576-4.4794 1.7323-5.6918.16439 4.0581-.98813 2.7796.66039 1.8684 2.51487 5.8767z" fill="url(#a8)"/><path d="m11.4912 13.1682-3.0232 3.9407c-.45094-1.2758.89465-3.4478 1.6238-4.3744z" fill="#97ffb4"/><path d="m11.4482 13.1876-1.3949-.3716c.2403-.5117 1.0482-1.8137 2.357-2.92798 1.3087-1.11432 3.1424-1.80342 3.8956-2.00868l-4.0071 2.84816z" fill="#f4feff"/><path d="m11.4469 13.2059 1.2432 5.2515c.8787-1.081 2.7915-3.9925 3.638-5.3132z" fill="#9bf8ff"/><path d="m9.14615 31.1479c.35158-.1943 1.86125-4.1575 2.41145-5.9863 2.9785.6983 3.5028 3.7046 3.3645 5.2126-1.5163.4659-3.8467 1.8453-4.7944 2.3846z" fill="url(#a9)"/><path d="m26.0599 31.2146-6.1684-1.1395c1.5409-3.5497 3.2539-4.9646 3.9177-5.2284z" fill="url(#ba)"/><path d="m26.4432 11.2166-6.4898 1.1216.5456 3.6166 3.4723 2.3624c.0364-.8919 1.6631-5.1054 2.4719-7.1006z" fill="url(#bb)"/><g mask="url(#bt)"><path d="m16.4583 12.6899 2.123-4.24868 1.4685 4.15478 2.2664 4.1951 2.081 2.0075 4.6072 2.78-4.7687 2.861-1.5465 1.7221-2.9339 4.1718-2.9384 5.5449-2.0622-5.8347-1.0773-3.048-2.1628-1.6847-3.21908-3.5644 5.11628-4.6493z" fill="url(#bc)"/><g filter="url(#X)"><ellipse cx="13.3418" cy="15.0275" fill="#f6ffaf" rx="7.6526" ry="8.88602" transform="matrix(.99619938 -.08710219 .08710219 .99619938 -1.258221 1.219214)"/></g><g filter="url(#Y)"><ellipse cx="13.3419" cy="15.0265" fill="#faffce" rx="3.67755" ry="4.27029" transform="matrix(.99619938 -.08710219 .08710219 .99619938 -1.258134 1.219219)"/></g><g filter="url(#Z)"><ellipse cx="15.8882" cy="12.5925" fill="#feffed" rx="5.32966" ry="6.18867" transform="matrix(.99619938 -.08710219 .08710219 .99619938 -1.036449 1.431756)"/></g><g filter="url(#aa)"><ellipse cx="16.4811" cy="16.7609" fill="#fffff4" rx="8.11735" ry="9.42567" transform="matrix(.99619938 -.08710219 .08710219 .99619938 -1.397273 1.499242)"/></g><g filter="url(#ab)"><ellipse cx="19.5755" cy="30.8962" fill="#feffed" rx="3.80499" ry="4.41827" transform="matrix(.99619938 -.08710219 .08710219 .99619938 -2.616728 1.822494)"/></g><path d="m20.1174 12.2924-3.993.893 2.3223-6.47705z" fill="url(#bd)"/><path d="m12.8134 20.5299-.2693-2.7119-5.35853 3.917 4.35443 3.8179z" fill="url(#be)"/><path d="m17.7553 29.6508-2.9162.7237 2.0818 6.3607 3.2954-6.5979z" fill="#a3eb76"/><path d="m24.0836 18.0721c-.7033 1.8193-.4049 5.3921-.1416 6.7415l6.6878-2.8445z" fill="#ff9535"/></g><g filter="url(#ac)"><path clip-rule="evenodd" d="m16.4817 21.9551 2.9231 2.2332 1.6576-2.156c.2972-.3541.7777-.4422 1.0925-.2025.3147.2396.3524.7252.0875 1.1041l-2.1875 2.8451c-.2944.3764-.7912.4822-1.1183.2381l-3.5148-2.6854.1064 2.0185c.0234.4444-.3126.8826-.7496.9756-.4372.0913-.8113-.1939-.8348-.6401l-.3328-6.3151c-.0234-.4444.3126-.8826.7496-.9756s.8112.1922.8347.6384l.1064 2.0184 3.1553-4.1034c.2943-.3764.7928-.4825 1.1182-.238l2.4372 1.8589c.2985.259.3122.7496.0295 1.1165-.2828.3669-.7602.4809-1.0894.2619l-1.8438-1.4107zm2.7493-1.4242c-.3244.0691-.6077.3268-.7148.6528-.1089.3263-.0224.6569.2201.8362.2409.1813.5911.1755.8833-.0118.2939-.1877.4731-.522.456-.8462-.0112-.2126-.1056-.3988-.2637-.5167-.1598-.1175-.3675-.1597-.5809-.1143z" fill="#feffcc" fill-rule="evenodd"/></g><path clip-rule="evenodd" d="m16.4817 21.9551 2.9231 2.2332 1.6576-2.156c.2972-.3541.7777-.4422 1.0925-.2025.3147.2396.3524.7252.0875 1.1041l-2.1875 2.8451c-.2944.3764-.7912.4822-1.1183.2381l-3.5148-2.6854.1064 2.0185c.0234.4444-.3126.8826-.7496.9756-.4372.0913-.8113-.1939-.8348-.6401l-.3328-6.3151c-.0234-.4444.3126-.8826.7496-.9756s.8112.1922.8347.6384l.1064 2.0184 3.1553-4.1034c.2943-.3764.7928-.4825 1.1182-.238l2.4372 1.8589c.2985.259.3122.7496.0295 1.1165-.2828.3669-.7602.4809-1.0894.2619l-1.8438-1.4107zm2.7493-1.4242c-.3244.0691-.6077.3268-.7148.6528-.1089.3263-.0224.6569.2201.8362.2409.1813.5911.1755.8833-.0118.2939-.1877.4731-.522.456-.8462-.0112-.2126-.1056-.3988-.2637-.5167-.1598-.1175-.3675-.1597-.5809-.1143z" fill="url(#bf)" fill-rule="evenodd"/><g filter="url(#ad)"><path d="m13.4116 17.0384 2.7051-3.8841 3.8356-.8154-3.3821 1.2992z" fill="#faffd2"/></g><path d="m13.4116 17.0384 2.7051-3.8841 3.8356-.8154-3.3821 1.2992z" fill="#fff"/><g filter="url(#ae)"><path d="m12.1606 16.3126-.7129-3.0975-.9347 1.214.7078-.6211z" fill="#dcffdb"/></g><path d="m12.1606 16.3126-.7129-3.0975-.9347 1.214.7078-.6211z" fill="#fff"/><g filter="url(#af)"><path d="m19.8863 30.1069-2.1391-.4476 1.6274-.1489 3.2758-3.2892z" fill="#feff9e"/></g><path d="m19.8863 30.1069-2.1391-.4476 1.6274-.1489 3.2758-3.2892z" fill="#fdffee"/><g filter="url(#ag)"><path clip-rule="evenodd" d="m23.9715 18.2013c.053.0105.0874.062.0769.1151-.2355 1.1853-.5776 4.1505-.068 6.5248l.0102.0474-.0316.0368c-.8076.9422-2.7284 3.3069-3.9531 5.2302-.029.0456-.0895.0591-.1351.03-.0456-.029-.059-.0895-.03-.1351 1.2165-1.9104 3.111-4.2476 3.9381-5.2157-.503-2.4037-.1586-5.3678.0775-6.5566.0105-.053.062-.0875.1151-.0769z" fill="#feffd0" fill-rule="evenodd"/></g><path clip-rule="evenodd" d="m23.9715 18.2013c.053.0105.0874.062.0769.1151-.2355 1.1853-.5776 4.1505-.068 6.5248l.0102.0474-.0316.0368c-.8076.9422-2.7284 3.3069-3.9531 5.2302-.029.0456-.0895.0591-.1351.03-.0456-.029-.059-.0895-.03-.1351 1.2165-1.9104 3.111-4.2476 3.9381-5.2157-.503-2.4037-.1586-5.3678.0775-6.5566.0105-.053.062-.0875.1151-.0769z" fill="#fffff7" fill-rule="evenodd"/><path d="m13.3085 36.4742-3.95193-5.1285 1.77253.7832 4.7071 3.9747-2.0272.7165z" fill="url(#bg)"/><g filter="url(#ah)"><path clip-rule="evenodd" d="m12.5445 17.8347c.0535-.0073.1029.0302.1101.0838.054.3966.1221.9801.1765 1.5068.0541.5239.0956.9997.095 1.176v.0123l-1.2122 4.718 2.0816 1.6575 1.1808 3.3409c.018.051-.0087.1069-.0597.1249-.0509.018-.1069-.0087-.1249-.0596l-1.1621-3.288-2.1369-1.7016 1.2377-4.8169c-.0014-.1733-.0408-.6276-.094-1.1434-.0543-.5254-.1221-1.1066-.1757-1.5005-.0073-.0536.0302-.1029.0838-.1102z" fill="#feffd0" fill-rule="evenodd"/></g><g clip-rule="evenodd" fill-rule="evenodd"><path d="m12.5445 17.8347c.0535-.0073.1029.0302.1101.0838.054.3966.1221.9801.1765 1.5068.0541.5239.0956.9997.095 1.176v.0123l-1.2122 4.718 2.0816 1.6575 1.1808 3.3409c.018.051-.0087.1069-.0597.1249-.0509.018-.1069-.0087-.1249-.0596l-1.1621-3.288-2.1369-1.7016 1.2377-4.8169c-.0014-.1733-.0408-.6276-.094-1.1434-.0543-.5254-.1221-1.1066-.1757-1.5005-.0073-.0536.0302-.1029.0838-.1102z" fill="#fffff7"/><path d="m8.33415 15.9337c.39739-1.3464 1.48008-3.3126 1.97175-4.1275.6294-.9155 2.8427-3.10457 6.6609-4.53723 1.5155-.53565 4.5042-.34451 5.8092-.18198 1.375.9001 4.3981 3.06121 5.4904 4.50471.8293 2.4444 2.4952 7.9128 2.5245 10.2311-.423 2.3326-1.3669 7.2506-1.7579 8.262-1.025 1.6098-3.3197 5.0197-4.298 5.7813-.972.5341-3.6267 1.7392-6.4688 2.2863-1.6067-.2811-4.9937-1.0107-5.6877-1.6802-.0932-.0899-.193-.1763-.3006-.2695-.8944-.7746-2.33381-2.0211-5.08627-9.6776-.34294-.9703.19248-7.3969 1.14252-10.5914zm-.77363 10.4602c-.02279-.0651-.05022-.2227-.06638-.4946-.01547-.2606-.0191-.5924-.01082-.9809.01654-.7762.08017-1.7599.18435-2.8165.20894-2.1192.57742-4.4952 1.04177-6.0566l.00023-.0008c.38036-1.2886 1.43213-3.207 1.92533-4.0258.5885-.8488 2.7306-2.97946 6.4657-4.38179.6902-.24298 1.7565-.33035 2.8492-.32921 1.0325.00108 2.0426.08052 2.6878.15691.6831.45044 1.7324 1.18394 2.7481 1.97924 1.0381.81275 2.0082 1.66485 2.5306 2.33495.4123 1.2198 1.0215 3.1566 1.534 5.0767.5194 1.9459.926 3.8268.9484 4.9352-.2116 1.1654-.5491 2.9538-.8824 4.5799-.1685.8221-.3356 1.6005-.4844 2.2352-.1437.6123-.2653 1.0677-.3511 1.3031-.5113.8014-1.3253 2.0309-2.1326 3.1564-.4095.571-.8149 1.1118-1.1765 1.555-.3543.4343-.6483.7518-.854.9183-.9607.523-3.5167 1.6772-6.2552 2.2156-.7968-.1414-1.9942-.3858-3.082-.6747-.5609-.1489-1.0852-.3077-1.5077-.4679-.4412-.1673-.7129-.3154-.8226-.4212-.1044-.1008-.2115-.1936-.3239-.291-.3902-.3384-.845-.7328-1.4821-1.7114-.8285-1.2725-1.94607-3.5169-3.48378-7.7941z" fill="url(#bh)"/></g></g></svg>