<svg fill="none" height="213" viewBox="0 0 214 213" width="214" xmlns="http://www.w3.org/2000/svg" xmlns:xlink="http://www.w3.org/1999/xlink"><filter id="a" color-interpolation-filters="sRGB" filterUnits="userSpaceOnUse" height="188" width="214" x="0" y=".5"><feFlood flood-opacity="0" result="BackgroundImageFix"/><feBlend in="SourceGraphic" in2="BackgroundImageFix" mode="normal" result="shape"/><feGaussianBlur result="effect1_foregroundBlur_450_22624" stdDeviation="15"/></filter><filter id="b" color-interpolation-filters="sRGB" filterUnits="userSpaceOnUse" height="12.0908" width="20.3972" x="68.766" y="91.2656"><feFlood flood-opacity="0" result="BackgroundImageFix"/><feColorMatrix in="SourceAlpha" result="hardAlpha" type="matrix" values="0 0 0 0 0 0 0 0 0 0 0 0 0 0 0 0 0 0 127 0"/><feOffset dy="1"/><feGaussianBlur stdDeviation=".5"/><feColorMatrix type="matrix" values="0 0 0 0 1 0 0 0 0 1 0 0 0 0 1 0 0 0 0.35 0"/><feBlend in2="BackgroundImageFix" mode="normal" result="effect1_dropShadow_450_22624"/><feBlend in="SourceGraphic" in2="effect1_dropShadow_450_22624" mode="normal" result="shape"/><feColorMatrix in="SourceAlpha" result="hardAlpha" type="matrix" values="0 0 0 0 0 0 0 0 0 0 0 0 0 0 0 0 0 0 127 0"/><feOffset dy="1"/><feGaussianBlur stdDeviation="1"/><feComposite in2="hardAlpha" k2="-1" k3="1" operator="arithmetic"/><feColorMatrix type="matrix" values="0 0 0 0 0 0 0 0 0 0 0 0 0 0 0 0 0 0 0.25 0"/><feBlend in2="shape" mode="normal" result="effect2_innerShadow_450_22624"/></filter><filter id="c" color-interpolation-filters="sRGB" filterUnits="userSpaceOnUse" height="11.0195" width="20.5977" x="109.557" y="90.2197"><feFlood flood-opacity="0" result="BackgroundImageFix"/><feColorMatrix in="SourceAlpha" result="hardAlpha" type="matrix" values="0 0 0 0 0 0 0 0 0 0 0 0 0 0 0 0 0 0 127 0"/><feOffset dy="1"/><feGaussianBlur stdDeviation=".5"/><feColorMatrix type="matrix" values="0 0 0 0 1 0 0 0 0 1 0 0 0 0 1 0 0 0 0.35 0"/><feBlend in2="BackgroundImageFix" mode="normal" result="effect1_dropShadow_450_22624"/><feBlend in="SourceGraphic" in2="effect1_dropShadow_450_22624" mode="normal" result="shape"/><feColorMatrix in="SourceAlpha" result="hardAlpha" type="matrix" values="0 0 0 0 0 0 0 0 0 0 0 0 0 0 0 0 0 0 127 0"/><feOffset dy="1"/><feGaussianBlur stdDeviation="1"/><feComposite in2="hardAlpha" k2="-1" k3="1" operator="arithmetic"/><feColorMatrix type="matrix" values="0 0 0 0 0 0 0 0 0 0 0 0 0 0 0 0 0 0 0.25 0"/><feBlend in2="shape" mode="normal" result="effect2_innerShadow_450_22624"/></filter><filter id="d" color-interpolation-filters="sRGB" filterUnits="userSpaceOnUse" height="18.46" width="32.5264" x="84.0739" y="106.574"><feFlood flood-opacity="0" result="BackgroundImageFix"/><feBlend in="SourceGraphic" in2="BackgroundImageFix" mode="normal" result="shape"/><feColorMatrix in="SourceAlpha" result="hardAlpha" type="matrix" values="0 0 0 0 0 0 0 0 0 0 0 0 0 0 0 0 0 0 127 0"/><feOffset dy="1"/><feGaussianBlur stdDeviation="1"/><feComposite in2="hardAlpha" k2="-1" k3="1" operator="arithmetic"/><feColorMatrix type="matrix" values="0 0 0 0 0.6375 0 0 0 0 0.031875 0 0 0 0 0.0682125 0 0 0 0.96 0"/><feBlend in2="shape" mode="normal" result="effect1_innerShadow_450_22624"/></filter><radialGradient id="e" cx="0" cy="0" gradientTransform="matrix(47.4858246 102.52614585 -142.01525843 65.77553068 34.4896 6.34468)" gradientUnits="userSpaceOnUse" r="1"><stop offset=".03125" stop-color="#ffeca7"/><stop offset=".520713" stop-color="#ffdc5f"/><stop offset="1" stop-color="#ffb320"/></radialGradient><linearGradient id="f"><stop offset="0" stop-color="#85eded"/><stop offset="1" stop-color="#85eded" stop-opacity="0"/></linearGradient><linearGradient id="g" gradientUnits="userSpaceOnUse" x1="79.8901" x2="79.8901" xlink:href="#f" y1="94.1064" y2="158.106"/><linearGradient id="h" gradientUnits="userSpaceOnUse" x1="119.599" x2="119.599" xlink:href="#f" y1="95.5898" y2="158.59"/><mask id="i" height="19" maskUnits="userSpaceOnUse" width="33" x="84" y="106"><path clip-rule="evenodd" d="m84.4831 123.676c.5464.473 9.1242.529 17.1819-.146 7.573-.634 14.664-1.97 14.899-2.513.485-1.121-3.781-16.261-18.4962-14.261-14.7154 2-14.6444 16.002-13.5847 16.92z" fill="#f4295a" fill-rule="evenodd"/></mask><g filter="url(#a)"><ellipse cx="107" cy="94.5" fill="#2e486f" rx="77" ry="64"/></g><g fill="#46568f"><rect height="44" rx="1" width="2" x="130" y="49.5"/><rect height="44" rx="1" width="2" x="138" y="49.5"/><rect height="44" rx="1" width="2" x="146" y="49.5"/><rect height="44" rx="1" width="2" x="154" y="49.5"/><rect height="44" rx="1" width="2" x="162" y="49.5"/><rect height="44" rx="1" width="2" x="170" y="49.5"/></g><ellipse cx="108.5" cy="181.5" fill="#2b3955" rx="39.5" ry="4"/><circle fill="url(#e)" r="55" transform="matrix(-1 .00000002 .00000002 1 107 110.5)"/><path d="m90 78c-.3333 2.1667-3 6.7-11 7.5" stroke="#823423" stroke-linecap="round" stroke-opacity=".3" stroke-width="3"/><path d="m106 76.5c.333 2.1667 2.5 5.7 10.5 6.5" stroke="#823423" stroke-linecap="round" stroke-opacity=".3" stroke-width="3"/><rect fill="url(#g)" height="64" rx="1" transform="matrix(.99724839 .07413268 -.07413268 .99724839 7.178301 -5.181661)" width="13" x="73.3901" y="94.1064"/><rect fill="url(#h)" height="63" rx="1" transform="matrix(.99116346 -.13264615 .13264615 .99116346 -11.682185 15.81725)" width="13.4447" x="112.876" y="95.5898"/><g filter="url(#b)"><path clip-rule="evenodd" d="m69.8692 98.4838c-.48-2.0092.7596-4.0272 2.7689-4.5073l10.9144-2.6076c2.0093-.48 4.0273.7597 4.5074 2.769.48 2.0093-.7597 4.0273-2.769 4.5073l-10.9144 2.6078c-2.0093.48-4.0273-.76-4.5073-2.7692z" fill="#823423" fill-rule="evenodd"/></g><g filter="url(#c)"><path clip-rule="evenodd" d="m110.592 93.4484c.283-2.0463 2.172-3.4758 4.218-3.1928l11.116 1.5373c2.046.283 3.476 2.1713 3.193 4.2176-.283 2.0464-2.172 3.4759-4.218 3.1929l-11.116-1.5373c-2.046-.283-3.476-2.1713-3.193-4.2177z" fill="#823423" fill-rule="evenodd"/></g><g filter="url(#d)" opacity=".8"><path clip-rule="evenodd" d="m84.4831 123.676c.5464.473 9.1242.529 17.1819-.146 7.573-.634 14.664-1.97 14.899-2.513.485-1.121-3.781-16.261-18.4962-14.261-14.7154 2-14.6444 16.002-13.5847 16.92z" fill="#f4295a" fill-rule="evenodd"/></g><g mask="url(#i)"><path clip-rule="evenodd" d="m108.18 103.921s-.917 7.012-1.472 7.7c-.554.689-14.2052 1.505-14.7859.88-.5807-.624-2.8512-7.182-2.8512-7.182z" fill="#fff" fill-rule="evenodd"/></g></svg>