<svg fill="none" height="321" viewBox="0 0 375 321" width="375" xmlns="http://www.w3.org/2000/svg" xmlns:xlink="http://www.w3.org/1999/xlink"><linearGradient id="a"><stop offset="0" stop-color="#01fcc1"/><stop offset="1" stop-color="#01fcc1" stop-opacity="0"/></linearGradient><linearGradient id="b" gradientUnits="userSpaceOnUse" x1="188.055" x2="188.055" xlink:href="#a" y1="240" y2="302"/><linearGradient id="c" gradientUnits="userSpaceOnUse" x1="187.858" x2="187.858" xlink:href="#a" y1="246" y2="302"/><linearGradient id="d" gradientUnits="userSpaceOnUse" x1="187.999" x2="187.999" y1="146" y2="271.44"><stop offset="0" stop-color="#01fcc1"/><stop offset=".744792" stop-color="#01fcc1" stop-opacity="0"/></linearGradient><linearGradient id="e" gradientUnits="userSpaceOnUse" x1="187.499" x2="187.499" y1="158" y2="271.493"><stop offset="0" stop-color="#01fcc1"/><stop offset=".765625" stop-color="#01fcc1" stop-opacity="0"/></linearGradient><linearGradient id="f" gradientUnits="userSpaceOnUse" x1="187.999" x2="187.999" y1="137" y2="279.364"><stop offset="0" stop-color="#01fcc1"/><stop offset=".291667" stop-color="#01fcc1" stop-opacity="0"/></linearGradient><linearGradient id="g" gradientUnits="userSpaceOnUse" x1="187.499" x2="187.499" y1="110" y2="269.289"><stop offset="0" stop-color="#01fcc1"/><stop offset=".375" stop-color="#01fcc1" stop-opacity="0"/></linearGradient><linearGradient id="h" gradientUnits="userSpaceOnUse" x1="187.996" x2="187.996" y1="60.9492" y2="293.491"><stop offset="0" stop-color="#01fcc1"/><stop offset=".255208" stop-color="#01fcc1" stop-opacity=".2"/><stop offset=".442708" stop-color="#01fcc1" stop-opacity="0"/></linearGradient><linearGradient id="i" gradientUnits="userSpaceOnUse" x1="187.996" x2="187.996" y1="35.9492" y2="268.491"><stop offset="0" stop-color="#01fcc1"/><stop offset=".375" stop-color="#01fcc1" stop-opacity=".2"/><stop offset=".729167" stop-color="#01fcc1" stop-opacity="0"/></linearGradient><linearGradient id="j" gradientUnits="userSpaceOnUse" x1="187.996" x2="187.996" y1="9.94922" y2="242.491"><stop offset="0" stop-color="#01fcc1"/><stop offset=".265625" stop-color="#01fcc1" stop-opacity=".2"/><stop offset=".5" stop-color="#01fcc1" stop-opacity="0"/></linearGradient><linearGradient id="k" gradientUnits="userSpaceOnUse" x1="187.857" x2="187.857" y1="52" y2="292.525"><stop offset="0" stop-color="#01fcc1"/><stop offset=".140625" stop-color="#01fcc1" stop-opacity=".2"/><stop offset=".380208" stop-color="#01fcc1" stop-opacity="0"/></linearGradient><linearGradient id="l" gradientUnits="userSpaceOnUse" x1="187.5" x2="187.5" xlink:href="#a" y1="246" y2="303"/><linearGradient id="m" gradientUnits="userSpaceOnUse" x1="187.659" x2="187.659" xlink:href="#a" y1="73" y2="229.987"/><linearGradient id="n" gradientUnits="userSpaceOnUse" x1="187.791" x2="187.791" y1="89" y2="238"><stop offset="0" stop-color="#01fcc1"/><stop offset=".786458" stop-color="#01fcc1" stop-opacity="0"/></linearGradient><linearGradient id="o" gradientUnits="userSpaceOnUse" x1="187.408" x2="187.408" y1="123" y2="248.04"><stop offset="0" stop-color="#01fcc1"/><stop offset=".729167" stop-color="#01fcc1" stop-opacity="0"/></linearGradient><g opacity=".1"><path clip-rule="evenodd" d="m249.11 301.184-61.055-61.184-61.055 61.184h6.255l54.8-55.184 54.8 55.184z" fill="url(#b)" fill-rule="evenodd"/><path d="m243.717 302.25-55.858-56.25-55.859 56.25" stroke="url(#c)" stroke-width=".5"/><path d="m313 272-125-126-125 126" stroke="url(#d)" stroke-width=".5"/><path d="m301 272-113.5-114-113.5 114" stroke="url(#e)" stroke-opacity=".1" stroke-width="8"/><path d="m330 280-142-143-142 143" stroke="url(#f)" stroke-width=".5"/><path d="m346 270-158.5-160-158.5 160" stroke="url(#g)" stroke-width="8"/><g clip-rule="evenodd" fill-rule="evenodd"><path d="m416.993 290.43-228.996-229.4808-228.997 229.4808h8.9249l219.6491-221.43 219.65 221.43z" fill="url(#h)"/><path d="m416.993 265.43-228.996-229.4808-228.997 229.4808h8.9249l219.6491-221.43 219.65 221.43z" fill="url(#i)"/><path d="m416.993 239.43-228.996-229.48078-228.997 229.48078h8.9249l219.6491-221.43 219.65 221.43z" fill="url(#j)" fill-opacity=".1"/><path d="m424.716 289.359-236.858-237.359-236.858 237.359zm-7.116-3.453-229.714-231.5759-229.713 231.5759z" fill="url(#k)"/></g><path d="m187.5 246 55.859 56.25h-111.718z" fill="url(#l)" fill-opacity=".2"/><path clip-rule="evenodd" d="m342.319 230.25-154.659-157.25-154.66 157.25h36.0708l119.6422-121.428 119.643 121.428z" fill="url(#m)" fill-opacity=".2" fill-rule="evenodd"/><path clip-rule="evenodd" d="m334.583 238.25-146.792-149.25-146.791 149.25h34.2357l113.5553-115.25 113.556 115.25z" fill="url(#n)" fill-rule="evenodd"/><path clip-rule="evenodd" d="m312.109 248.25-123.409-125.25-123.4084 125.25h22.6063l100.1021-101.25 100.103 101.25z" fill="url(#o)" fill-opacity=".4" fill-rule="evenodd"/></g></svg>