<svg fill="none" height="686" viewBox="0 0 375 686" width="375" xmlns="http://www.w3.org/2000/svg" xmlns:xlink="http://www.w3.org/1999/xlink"><clipPath id="a"><path d="m0 0h375v686h-375z"/></clipPath><g clip-path="url(#a)" fill="#fff"><g opacity=".04"><path d="m0 0h.5v812h-.5z"/><path d="m34 0h.5v812h-.5z"/><path d="m68 0h.5v812h-.5z"/><path d="m102 0h.5v812h-.5z"/><path d="m136 0h.5v812h-.5z"/><path d="m170 0h.5v812h-.5z"/><path d="m204 0h.5v812h-.5z"/><path d="m238 0h.5v812h-.5z"/><path d="m272 0h.5v812h-.5z"/><path d="m306 0h.5v812h-.5z"/><path d="m340 0h.5v812h-.5z"/><path d="m374 0h.5v812h-.5z"/></g><g opacity=".04"><path d="m0 0h375v.5h-375z"/><path d="m0 34h375v.5h-375z"/><path d="m0 68h375v.5h-375z"/><path d="m0 102h375v.5h-375z"/><path d="m0 136h375v.5h-375z"/><path d="m0 170h375v.5h-375z"/><path d="m0 204h375v.5h-375z"/><path d="m0 238h375v.5h-375z"/><path d="m0 272h375v.5h-375z"/><path d="m0 306h375v.5h-375z"/><path d="m0 340h375v.5h-375z"/><path d="m0 374h375v.5h-375z"/><path d="m0 408h375v.5h-375z"/><path d="m0 442h375v.5h-375z"/><path d="m0 476h375v.5h-375z"/><path d="m0 510h375v.5h-375z"/><path d="m0 544h375v.5h-375z"/><path d="m0 578h375v.5h-375z"/><path d="m0 612h375v.5h-375z"/><path d="m0 646h375v.5h-375z"/><path d="m0 680h375v.5h-375z"/></g><g opacity=".3"><path d="m0 0h.5v.5h-.5z"/><path d="m0 34h.5v.5h-.5z"/><path d="m0 68h.5v.5h-.5z"/><path d="m0 102h.5v.5h-.5z"/><path d="m0 136h.5v.5h-.5z"/><path d="m0 170h.5v.5h-.5z"/><path d="m0 204h.5v.5h-.5z"/><path d="m0 238h.5v.5h-.5z"/><path d="m0 272h.5v.5h-.5z"/><path d="m0 306h.5v.5h-.5z"/><path d="m0 340h.5v.5h-.5z"/><path d="m0 374h.5v.5h-.5z"/><path d="m0 408h.5v.5h-.5z"/><path d="m0 442h.5v.5h-.5z"/><path d="m0 476h.5v.5h-.5z"/><path d="m0 510h.5v.5h-.5z"/><path d="m0 544h.5v.5h-.5z"/><path d="m0 578h.5v.5h-.5z"/><path d="m0 612h.5v.5h-.5z"/><path d="m0 646h.5v.5h-.5z"/><path d="m0 680h.5v.5h-.5z"/><path d="m34 0h.5v.5h-.5z"/><path d="m34 34h.5v.5h-.5z"/><path d="m34 68h.5v.5h-.5z"/><path d="m34 102h.5v.5h-.5z"/><path d="m34 136h.5v.5h-.5z"/><path d="m34 170h.5v.5h-.5z"/><path d="m34 204h.5v.5h-.5z"/><path d="m34 238h.5v.5h-.5z"/><path d="m34 272h.5v.5h-.5z"/><path d="m34 306h.5v.5h-.5z"/><path d="m34 340h.5v.5h-.5z"/><path d="m34 374h.5v.5h-.5z"/><path d="m34 408h.5v.5h-.5z"/><path d="m34 442h.5v.5h-.5z"/><path d="m34 476h.5v.5h-.5z"/><path d="m34 510h.5v.5h-.5z"/><path d="m34 544h.5v.5h-.5z"/><path d="m34 578h.5v.5h-.5z"/><path d="m34 612h.5v.5h-.5z"/><path d="m34 646h.5v.5h-.5z"/><path d="m34 680h.5v.5h-.5z"/><path d="m68 0h.5v.5h-.5z"/><path d="m68 34h.5v.5h-.5z"/><path d="m68 68h.5v.5h-.5z"/><path d="m68 102h.5v.5h-.5z"/><path d="m68 136h.5v.5h-.5z"/><path d="m68 170h.5v.5h-.5z"/><path d="m68 204h.5v.5h-.5z"/><path d="m68 238h.5v.5h-.5z"/><path d="m68 272h.5v.5h-.5z"/><path d="m68 306h.5v.5h-.5z"/><path d="m68 340h.5v.5h-.5z"/><path d="m68 374h.5v.5h-.5z"/><path d="m68 408h.5v.5h-.5z"/><path d="m68 442h.5v.5h-.5z"/><path d="m68 476h.5v.5h-.5z"/><path d="m68 510h.5v.5h-.5z"/><path d="m68 544h.5v.5h-.5z"/><path d="m68 578h.5v.5h-.5z"/><path d="m68 612h.5v.5h-.5z"/><path d="m68 646h.5v.5h-.5z"/><path d="m68 680h.5v.5h-.5z"/><path d="m102 0h.5v.5h-.5z"/><path d="m102 34h.5v.5h-.5z"/><path d="m102 68h.5v.5h-.5z"/><path d="m102 102h.5v.5h-.5z"/><path d="m102 136h.5v.5h-.5z"/><path d="m102 170h.5v.5h-.5z"/><path d="m102 204h.5v.5h-.5z"/><path d="m102 238h.5v.5h-.5z"/><path d="m102 272h.5v.5h-.5z"/><path d="m102 306h.5v.5h-.5z"/><path d="m102 340h.5v.5h-.5z"/><path d="m102 374h.5v.5h-.5z"/><path d="m102 408h.5v.5h-.5z"/><path d="m102 442h.5v.5h-.5z"/><path d="m102 476h.5v.5h-.5z"/><path d="m102 510h.5v.5h-.5z"/><path d="m102 544h.5v.5h-.5z"/><path d="m102 578h.5v.5h-.5z"/><path d="m102 612h.5v.5h-.5z"/><path d="m102 646h.5v.5h-.5z"/><path d="m102 680h.5v.5h-.5z"/><path d="m136 0h.5v.5h-.5z"/><path d="m136 34h.5v.5h-.5z"/><path d="m136 68h.5v.5h-.5z"/><path d="m136 102h.5v.5h-.5z"/><path d="m136 136h.5v.5h-.5z"/><path d="m136 170h.5v.5h-.5z"/><path d="m136 204h.5v.5h-.5z"/><path d="m136 238h.5v.5h-.5z"/><path d="m136 272h.5v.5h-.5z"/><path d="m136 306h.5v.5h-.5z"/><path d="m136 340h.5v.5h-.5z"/><path d="m136 374h.5v.5h-.5z"/><path d="m136 408h.5v.5h-.5z"/><path d="m136 442h.5v.5h-.5z"/><path d="m136 476h.5v.5h-.5z"/><path d="m136 510h.5v.5h-.5z"/><path d="m136 544h.5v.5h-.5z"/><path d="m136 578h.5v.5h-.5z"/><path d="m136 612h.5v.5h-.5z"/><path d="m136 646h.5v.5h-.5z"/><path d="m136 680h.5v.5h-.5z"/><path d="m170 0h.5v.5h-.5z"/><path d="m170 34h.5v.5h-.5z"/><path d="m170 68h.5v.5h-.5z"/><path d="m170 102h.5v.5h-.5z"/><path d="m170 136h.5v.5h-.5z"/><path d="m170 170h.5v.5h-.5z"/><path d="m170 204h.5v.5h-.5z"/><path d="m170 238h.5v.5h-.5z"/><path d="m170 272h.5v.5h-.5z"/><path d="m170 306h.5v.5h-.5z"/><path d="m170 340h.5v.5h-.5z"/><path d="m170 374h.5v.5h-.5z"/><path d="m170 408h.5v.5h-.5z"/><path d="m170 442h.5v.5h-.5z"/><path d="m170 476h.5v.5h-.5z"/><path d="m170 510h.5v.5h-.5z"/><path d="m170 544h.5v.5h-.5z"/><path d="m170 578h.5v.5h-.5z"/><path d="m170 612h.5v.5h-.5z"/><path d="m170 646h.5v.5h-.5z"/><path d="m170 680h.5v.5h-.5z"/><path d="m204 0h.5v.5h-.5z"/><path d="m204 34h.5v.5h-.5z"/><path d="m204 68h.5v.5h-.5z"/><path d="m204 102h.5v.5h-.5z"/><path d="m204 136h.5v.5h-.5z"/><path d="m204 170h.5v.5h-.5z"/><path d="m204 204h.5v.5h-.5z"/><path d="m204 238h.5v.5h-.5z"/><path d="m204 272h.5v.5h-.5z"/><path d="m204 306h.5v.5h-.5z"/><path d="m204 340h.5v.5h-.5z"/><path d="m204 374h.5v.5h-.5z"/><path d="m204 408h.5v.5h-.5z"/><path d="m204 442h.5v.5h-.5z"/><path d="m204 476h.5v.5h-.5z"/><path d="m204 510h.5v.5h-.5z"/><path d="m204 544h.5v.5h-.5z"/><path d="m204 578h.5v.5h-.5z"/><path d="m204 612h.5v.5h-.5z"/><path d="m204 646h.5v.5h-.5z"/><path d="m204 680h.5v.5h-.5z"/><path d="m238 0h.5v.5h-.5z"/><path d="m238 34h.5v.5h-.5z"/><path d="m238 68h.5v.5h-.5z"/><path d="m238 102h.5v.5h-.5z"/><path d="m238 136h.5v.5h-.5z"/><path d="m238 170h.5v.5h-.5z"/><path d="m238 204h.5v.5h-.5z"/><path d="m238 238h.5v.5h-.5z"/><path d="m238 272h.5v.5h-.5z"/><path d="m238 306h.5v.5h-.5z"/><path d="m238 340h.5v.5h-.5z"/><path d="m238 374h.5v.5h-.5z"/><path d="m238 408h.5v.5h-.5z"/><path d="m238 442h.5v.5h-.5z"/><path d="m238 476h.5v.5h-.5z"/><path d="m238 510h.5v.5h-.5z"/><path d="m238 544h.5v.5h-.5z"/><path d="m238 578h.5v.5h-.5z"/><path d="m238 612h.5v.5h-.5z"/><path d="m238 646h.5v.5h-.5z"/><path d="m238 680h.5v.5h-.5z"/><path d="m272 0h.5v.5h-.5z"/><path d="m272 34h.5v.5h-.5z"/><path d="m272 68h.5v.5h-.5z"/><path d="m272 102h.5v.5h-.5z"/><path d="m272 136h.5v.5h-.5z"/><path d="m272 170h.5v.5h-.5z"/><path d="m272 204h.5v.5h-.5z"/><path d="m272 238h.5v.5h-.5z"/><path d="m272 272h.5v.5h-.5z"/><path d="m272 306h.5v.5h-.5z"/><path d="m272 340h.5v.5h-.5z"/><path d="m272 374h.5v.5h-.5z"/><path d="m272 408h.5v.5h-.5z"/><path d="m272 442h.5v.5h-.5z"/><path d="m272 476h.5v.5h-.5z"/><path d="m272 510h.5v.5h-.5z"/><path d="m272 544h.5v.5h-.5z"/><path d="m272 578h.5v.5h-.5z"/><path d="m272 612h.5v.5h-.5z"/><path d="m272 646h.5v.5h-.5z"/><path d="m272 680h.5v.5h-.5z"/><path d="m306 0h.5v.5h-.5z"/><path d="m306 34h.5v.5h-.5z"/><path d="m306 68h.5v.5h-.5z"/><path d="m306 102h.5v.5h-.5z"/><path d="m306 136h.5v.5h-.5z"/><path d="m306 170h.5v.5h-.5z"/><path d="m306 204h.5v.5h-.5z"/><path d="m306 238h.5v.5h-.5z"/><path d="m306 272h.5v.5h-.5z"/><path d="m306 306h.5v.5h-.5z"/><path d="m306 340h.5v.5h-.5z"/><path d="m306 374h.5v.5h-.5z"/><path d="m306 408h.5v.5h-.5z"/><path d="m306 442h.5v.5h-.5z"/><path d="m306 476h.5v.5h-.5z"/><path d="m306 510h.5v.5h-.5z"/><path d="m306 544h.5v.5h-.5z"/><path d="m306 578h.5v.5h-.5z"/><path d="m306 612h.5v.5h-.5z"/><path d="m306 646h.5v.5h-.5z"/><path d="m306 680h.5v.5h-.5z"/><path d="m340 0h.5v.5h-.5z"/><path d="m340 34h.5v.5h-.5z"/><path d="m340 68h.5v.5h-.5z"/><path d="m340 102h.5v.5h-.5z"/><path d="m340 136h.5v.5h-.5z"/><path d="m340 170h.5v.5h-.5z"/><path d="m340 204h.5v.5h-.5z"/><path d="m340 238h.5v.5h-.5z"/><path d="m340 272h.5v.5h-.5z"/><path d="m340 306h.5v.5h-.5z"/><path d="m340 340h.5v.5h-.5z"/><path d="m340 374h.5v.5h-.5z"/><path d="m340 408h.5v.5h-.5z"/><path d="m340 442h.5v.5h-.5z"/><path d="m340 476h.5v.5h-.5z"/><path d="m340 510h.5v.5h-.5z"/><path d="m340 544h.5v.5h-.5z"/><path d="m340 578h.5v.5h-.5z"/><path d="m340 612h.5v.5h-.5z"/><path d="m340 646h.5v.5h-.5z"/><path d="m340 680h.5v.5h-.5z"/><path d="m374 0h.5v.5h-.5z"/><path d="m374 34h.5v.5h-.5z"/><path d="m374 68h.5v.5h-.5z"/><path d="m374 102h.5v.5h-.5z"/><path d="m374 136h.5v.5h-.5z"/><path d="m374 170h.5v.5h-.5z"/><path d="m374 204h.5v.5h-.5z"/><path d="m374 238h.5v.5h-.5z"/><path d="m374 272h.5v.5h-.5z"/><path d="m374 306h.5v.5h-.5z"/><path d="m374 340h.5v.5h-.5z"/><path d="m374 374h.5v.5h-.5z"/><path d="m374 408h.5v.5h-.5z"/><path d="m374 442h.5v.5h-.5z"/><path d="m374 476h.5v.5h-.5z"/><path d="m374 510h.5v.5h-.5z"/><path d="m374 544h.5v.5h-.5z"/><path d="m374 578h.5v.5h-.5z"/><path d="m374 612h.5v.5h-.5z"/><path d="m374 646h.5v.5h-.5z"/><path d="m374 680h.5v.5h-.5z"/></g></g></svg>