<svg fill="none" height="26" viewBox="0 0 22 26" width="22" xmlns="http://www.w3.org/2000/svg"><path d="m.5.5h21v25h-21z" stroke="#00ffc1"/><path d="m2 2h18v22h-18z" fill="#00ffc1"/><g fill="#000"><path d="m11.4265 11.7565c-.725-.1298-1.2118-.8368-1.0848-1.578.127-.74118.8184-1.23892 1.5434-1.10908 1.5223.27412 2.8399 1.08928 3.7765 2.23088.9367 1.1397 1.4923 2.6059 1.4923 4.1857 0 1.798-.7144 3.4283-1.8662 4.6059-1.1536 1.1795-2.7464 1.9081-4.505 1.9081-1.75865 0-3.35322-.7286-4.50506-1.9081-1.15359-1.1794-1.86797-2.8079-1.86797-4.6077 0-.7538.59796-1.3652 1.33527-1.3652.73732 0 1.33528.6114 1.33528 1.3652 0 1.046.41452 1.991 1.0848 2.6763.67029.6853 1.59634 1.1091 2.61768 1.1091 1.023 0 1.9473-.4238 2.6176-1.1091s1.0848-1.6321 1.0848-2.6763c0-.9216-.3228-1.7746-.8661-2.4364-.5433-.6601-1.307-1.1326-2.1925-1.2913z" fill-opacity=".8"/><path d="m14.6209 4c.7373 0 1.3352.61136 1.3352 1.36519s-.5979 1.36519-1.3352 1.36519h-6.34305v3.68262c0 .7538-.59796 1.3652-1.33527 1.3652-.73732 0-1.33528-.6114-1.33528-1.3652v-5.04781c0-.75383.59796-1.36519 1.33528-1.36519z" fill-opacity=".8"/><path d="m6.97833 16.0068c.28223-.6966-.04131-1.4952-.72265-1.7838-.68133-.2885-1.46245.0422-1.74467.7388s.04132 1.4953.72265 1.7838c.68134.2885 1.46245-.0422 1.74467-.7388z"/><path d="m6.94258 11.7782c.73745 0 1.33527-.6112 1.33527-1.3652 0-.75393-.59782-1.36515-1.33527-1.36515-.73746 0-1.33528.61122-1.33528 1.36515 0 .754.59782 1.3652 1.33528 1.3652z"/></g></svg>