<svg fill="none" height="351" viewBox="0 0 25 351" width="25" xmlns="http://www.w3.org/2000/svg"><g fill="#fff"><path d="m5.352 11.7529c-.24-.256-.36-.56-.36-.904 0-.664.408-.96796 1.304-.96796.792 0 1.216.35196 1.216 1.01596 0 .52-.264.864-.744.952l.08.632c.816-.104 1.224-.632 1.224-1.568 0-.584-.176-1.03196-.52-1.32796-.264-.248-.696-.368-1.296-.368-.568 0-.984.104-1.256.304-.368.264-.552.67196-.552 1.22396 0 .304.072.592.216.856l-1.816-.192v-2.02396h-.56v2.57596l2.96.272zm.632-3.66428c.656 0 1.136-.096 1.44-.288.432-.28.648-.72.648-1.32 0-.552-.184-.968-.552-1.248-.304-.232-.816-.352-1.536-.352h-1.68c-.656 0-1.136.096-1.44.288-.432.28-.648.72-.648 1.312 0 .552.184.976.552 1.256.304.232.816.352 1.536.352zm-.064-2.552c1.128 0 1.592.272 1.592.944 0 .68-.448.952-1.592.952h-1.552c-1.144 0-1.592-.272-1.592-.952 0-.672.464-.944 1.592-.944zm.064-1.76831c.656 0 1.136-.096 1.44-.288.432-.28.648-.72.648-1.32 0-.552-.184-.968-.552-1.247998-.304-.232-.816-.352-1.536-.352h-1.68c-.656 0-1.136.096-1.44.288-.432.279998-.648.719998-.648 1.311998 0 .552.184.976.552 1.256.304.232.816.352 1.536.352zm-.064-2.552c1.128 0 1.592.272 1.592.944 0 .68-.448.952-1.592.952h-1.552c-1.144 0-1.592-.272-1.592-.952 0-.672.464-.944 1.592-.944z" fill-opacity=".6"/><path d="m8 43.364h-1.048v-.568h-.56v.568h-1.752v.608h1.752v1.568l-4.104-1.776v.704l4.24 1.824h.416v-2.32h1.056zm-2.648-2.1924c-.24-.256-.36-.56-.36-.904 0-.664.408-.968 1.304-.968.792 0 1.216.352 1.216 1.016 0 .52-.264.864-.744.952l.08.632c.816-.104 1.224-.632 1.224-1.568 0-.584-.176-1.032-.52-1.328-.264-.248-.696-.368-1.296-.368-.568 0-.984.104-1.256.304-.368.264-.552.672-.552 1.224 0 .304.072.592.216.856l-1.816-.192v-2.024h-.56v2.576l2.96.272zm.632-3.6643c.656 0 1.136-.096 1.44-.288.432-.28.648-.72.648-1.32 0-.552-.184-.968-.552-1.248-.304-.232-.816-.352-1.536-.352h-1.68c-.656 0-1.136.096-1.44.288-.432.28-.648.72-.648 1.312 0 .552.184.976.552 1.256.304.232.816.352 1.536.352zm-.064-2.552c1.128 0 1.592.272 1.592.944 0 .68-.448.952-1.592.952h-1.552c-1.144 0-1.592-.272-1.592-.952 0-.672.464-.944 1.592-.944z" fill-opacity=".6"/><path d="m8 77.0639h-1.048v-.568h-.56v.568h-1.752v.608h1.752v1.568l-4.104-1.776v.704l4.24 1.824h.416v-2.32h1.056zm-2.016-1.5363c.656 0 1.136-.096 1.44-.288.432-.28.648-.72.648-1.32 0-.552-.184-.968-.552-1.248-.304-.232-.816-.352-1.536-.352h-1.68c-.656 0-1.136.096-1.44.288-.432.28-.648.72-.648 1.312 0 .552.184.976.552 1.256.304.232.816.352 1.536.352zm-.064-2.552c1.128 0 1.592.272 1.592.944 0 .68-.448.952-1.592.952h-1.552c-1.144 0-1.592-.272-1.592-.952 0-.672.464-.944 1.592-.944zm.064-1.7683c.656 0 1.136-.096 1.44-.288.432-.28.648-.72.648-1.32 0-.552-.184-.968-.552-1.248-.304-.232-.816-.352-1.536-.352h-1.68c-.656 0-1.136.096-1.44.288-.432.28-.648.72-.648 1.312 0 .552.184.976.552 1.256.304.232.816.352 1.536.352zm-.064-2.552c1.128 0 1.592.272 1.592.944 0 .68-.448.952-1.592.952h-1.552c-1.144 0-1.592-.272-1.592-.952 0-.672.464-.944 1.592-.944z" fill-opacity=".6"/><path d="m5.256 112.22c0-.68.472-1.152 1.168-1.152s1.088.384 1.088 1.048c0 .568-.248.896-.744.992l.08.632c.792-.088 1.224-.656 1.224-1.64 0-1.112-.568-1.696-1.632-1.696-.736 0-1.168.256-1.456.888-.288-.544-.624-.744-1.256-.744-.984 0-1.512.536-1.512 1.52 0 .904.392 1.408 1.184 1.512l.056-.592c-.424-.096-.68-.416-.68-.888 0-.552.36-.888.968-.888.584 0 .976.416.976 1.048v.48h.536zm.096-3.648c-.24-.256-.36-.56-.36-.904 0-.664.408-.968 1.304-.968.792 0 1.216.352 1.216 1.016 0 .52-.264.864-.744.952l.08.632c.816-.104 1.224-.632 1.224-1.568 0-.584-.176-1.032-.52-1.328-.264-.248-.696-.368-1.296-.368-.568 0-.984.104-1.256.304-.368.264-.552.672-.552 1.224 0 .304.072.592.216.856l-1.816-.192v-2.024h-.56v2.576l2.96.272zm.632-3.665c.656 0 1.136-.096 1.44-.288.432-.28.648-.72.648-1.32 0-.552-.184-.968-.552-1.248-.304-.232-.816-.352-1.536-.352h-1.68c-.656 0-1.136.096-1.44.288-.432.28-.648.72-.648 1.312 0 .552.184.976.552 1.256.304.232.816.352 1.536.352zm-.064-2.552c1.128 0 1.592.272 1.592.944 0 .68-.448.952-1.592.952h-1.552c-1.144 0-1.592-.272-1.592-.952 0-.672.464-.944 1.592-.944z" fill-opacity=".6"/><path d="m5.256 145.92c0-.68.472-1.152 1.168-1.152s1.088.384 1.088 1.048c0 .568-.248.896-.744.992l.08.632c.792-.088 1.224-.656 1.224-1.64 0-1.112-.568-1.696-1.632-1.696-.736 0-1.168.256-1.456.888-.288-.544-.624-.744-1.256-.744-.984 0-1.512.536-1.512 1.52 0 .904.392 1.408 1.184 1.512l.056-.592c-.424-.096-.68-.416-.68-.888 0-.552.36-.888.968-.888.584 0 .976.416.976 1.048v.48h.536zm.728-2.992c.656 0 1.136-.096 1.44-.288.432-.28.648-.72.648-1.32 0-.552-.184-.968-.552-1.248-.304-.232-.816-.352-1.536-.352h-1.68c-.656 0-1.136.096-1.44.288-.432.28-.648.72-.648 1.312 0 .552.184.976.552 1.256.304.232.816.352 1.536.352zm-.064-2.552c1.128 0 1.592.272 1.592.944 0 .68-.448.952-1.592.952h-1.552c-1.144 0-1.592-.272-1.592-.952 0-.672.464-.944 1.592-.944zm.064-1.769c.656 0 1.136-.096 1.44-.288.432-.28.648-.72.648-1.32 0-.552-.184-.968-.552-1.248-.304-.232-.816-.352-1.536-.352h-1.68c-.656 0-1.136.096-1.44.288-.432.28-.648.72-.648 1.312 0 .552.184.976.552 1.256.304.232.816.352 1.536.352zm-.064-2.552c1.128 0 1.592.272 1.592.944 0 .68-.448.952-1.592.952h-1.552c-1.144 0-1.592-.272-1.592-.952 0-.672.464-.944 1.592-.944z" fill-opacity=".6"/><path d="m8 177.908h-.56v2.272l-1.496-1.144c-1.144-.864-1.608-1.088-2.304-1.088-.92 0-1.424.528-1.424 1.48 0 .928.496 1.512 1.36 1.6l.056-.6c-.568-.128-.856-.448-.856-.96 0-.568.28-.856.832-.856.512 0 1.144.288 1.896.864l2.056 1.584h.44zm-2.648-1.936c-.24-.256-.36-.56-.36-.904 0-.664.408-.968 1.304-.968.792 0 1.216.352 1.216 1.016 0 .52-.264.864-.744.952l.08.632c.816-.104 1.224-.632 1.224-1.568 0-.584-.176-1.032-.52-1.328-.264-.248-.696-.368-1.296-.368-.568 0-.984.104-1.256.304-.368.264-.552.672-.552 1.224 0 .304.072.592.216.856l-1.816-.192v-2.024h-.56v2.576l2.96.272zm.632-3.665c.656 0 1.136-.096 1.44-.288.432-.28.648-.72.648-1.32 0-.552-.184-.968-.552-1.248-.304-.232-.816-.352-1.536-.352h-1.68c-.656 0-1.136.096-1.44.288-.432.28-.648.72-.648 1.312 0 .552.184.976.552 1.256.304.232.816.352 1.536.352zm-.064-2.552c1.128 0 1.592.272 1.592.944 0 .68-.448.952-1.592.952h-1.552c-1.144 0-1.592-.272-1.592-.952 0-.672.464-.944 1.592-.944z" fill-opacity=".6"/><path d="m8 211.608h-.56v2.272l-1.496-1.144c-1.144-.864-1.608-1.088-2.304-1.088-.92 0-1.424.528-1.424 1.48 0 .928.496 1.512 1.36 1.6l.056-.6c-.568-.128-.856-.448-.856-.96 0-.568.28-.856.832-.856.512 0 1.144.288 1.896.864l2.056 1.584h.44zm-2.016-1.28c.656 0 1.136-.096 1.44-.288.432-.28.648-.72.648-1.32 0-.552-.184-.968-.552-1.248-.304-.232-.816-.352-1.536-.352h-1.68c-.656 0-1.136.096-1.44.288-.432.28-.648.72-.648 1.312 0 .552.184.976.552 1.256.304.232.816.352 1.536.352zm-.064-2.552c1.128 0 1.592.272 1.592.944 0 .68-.448.952-1.592.952h-1.552c-1.144 0-1.592-.272-1.592-.952 0-.672.464-.944 1.592-.944zm.064-1.769c.656 0 1.136-.096 1.44-.288.432-.28.648-.72.648-1.32 0-.552-.184-.968-.552-1.248-.304-.232-.816-.352-1.536-.352h-1.68c-.656 0-1.136.096-1.44.288-.432.28-.648.72-.648 1.312 0 .552.184.976.552 1.256.304.232.816.352 1.536.352zm-.064-2.552c1.128 0 1.592.272 1.592.944 0 .68-.448.952-1.592.952h-1.552c-1.144 0-1.592-.272-1.592-.952 0-.672.464-.944 1.592-.944z" fill-opacity=".6"/><path d="m8 246.284h-5.712v.456l.608 1.4.528-.208-.432-.984h5.008zm-2.648-2.912c-.24-.256-.36-.56-.36-.904 0-.664.408-.968 1.304-.968.792 0 1.216.352 1.216 1.016 0 .52-.264.864-.744.952l.08.632c.816-.104 1.224-.632 1.224-1.568 0-.584-.176-1.032-.52-1.328-.264-.248-.696-.368-1.296-.368-.568 0-.984.104-1.256.304-.368.264-.552.672-.552 1.224 0 .304.072.592.216.856l-1.816-.192v-2.024h-.56v2.576l2.96.272zm.632-3.665c.656 0 1.136-.096 1.44-.288.432-.28.648-.72.648-1.32 0-.552-.184-.968-.552-1.248-.304-.232-.816-.352-1.536-.352h-1.68c-.656 0-1.136.096-1.44.288-.432.28-.648.72-.648 1.312 0 .552.184.976.552 1.256.304.232.816.352 1.536.352zm-.064-2.552c1.128 0 1.592.272 1.592.944 0 .68-.448.952-1.592.952h-1.552c-1.144 0-1.592-.272-1.592-.952 0-.672.464-.944 1.592-.944z" fill-opacity=".6"/><path d="m8 279.984h-5.712v.456l.608 1.4.528-.208-.432-.984h5.008zm-2.016-2.256c.656 0 1.136-.096 1.44-.288.432-.28.648-.72.648-1.32 0-.552-.184-.968-.552-1.248-.304-.232-.816-.352-1.536-.352h-1.68c-.656 0-1.136.096-1.44.288-.432.28-.648.72-.648 1.312 0 .552.184.976.552 1.256.304.232.816.352 1.536.352zm-.064-2.552c1.128 0 1.592.272 1.592.944 0 .68-.448.952-1.592.952h-1.552c-1.144 0-1.592-.272-1.592-.952 0-.672.464-.944 1.592-.944zm.064-1.769c.656 0 1.136-.096 1.44-.288.432-.28.648-.72.648-1.32 0-.552-.184-.968-.552-1.248-.304-.232-.816-.352-1.536-.352h-1.68c-.656 0-1.136.096-1.44.288-.432.28-.648.72-.648 1.312 0 .552.184.976.552 1.256.304.232.816.352 1.536.352zm-.064-2.552c1.128 0 1.592.272 1.592.944 0 .68-.448.952-1.592.952h-1.552c-1.144 0-1.592-.272-1.592-.952 0-.672.464-.944 1.592-.944z" fill-opacity=".6"/><path d="m5.352 315.092c-.24-.256-.36-.56-.36-.904 0-.664.408-.968 1.304-.968.792 0 1.216.352 1.216 1.016 0 .52-.264.864-.744.952l.08.632c.816-.104 1.224-.632 1.224-1.568 0-.584-.176-1.032-.52-1.328-.264-.248-.696-.368-1.296-.368-.568 0-.984.104-1.256.304-.368.264-.552.672-.552 1.224 0 .304.072.592.216.856l-1.816-.192v-2.024h-.56v2.576l2.96.272zm.632-3.664c.656 0 1.136-.096 1.44-.288.432-.28.648-.72.648-1.32 0-.552-.184-.968-.552-1.248-.304-.232-.816-.352-1.536-.352h-1.68c-.656 0-1.136.096-1.44.288-.432.28-.648.72-.648 1.312 0 .552.184.976.552 1.256.304.232.816.352 1.536.352zm-.064-2.552c1.128 0 1.592.272 1.592.944 0 .68-.448.952-1.592.952h-1.552c-1.144 0-1.592-.272-1.592-.952 0-.672.464-.944 1.592-.944z" fill-opacity=".6"/><path d="m8 347.384h-5.712v.456l.608 1.4.528-.208-.432-.984h5.008zm-2.016-2.256c.656 0 1.136-.096 1.44-.288.432-.28.648-.72.648-1.32 0-.552-.184-.968-.552-1.248-.304-.232-.816-.352-1.536-.352h-1.68c-.656 0-1.136.096-1.44.288-.432.28-.648.72-.648 1.312 0 .552.184.976.552 1.256.304.232.816.352 1.536.352zm-.064-2.552c1.128 0 1.592.272 1.592.944 0 .68-.448.952-1.592.952h-1.552c-1.144 0-1.592-.272-1.592-.952 0-.672.464-.944 1.592-.944z" fill-opacity=".6"/><path d="m19 0h.5v350.5h-.5z" fill-opacity=".2"/><path d="m12 0h5v350h-5z" fill-opacity=".2"/><g fill-opacity=".6"><path d="m21 0h4v.5h-4z"/><path d="m21 3.5h2v.5h-2z"/><path d="m21 7h2v.5h-2z"/><path d="m21 10.5h2v.5h-2z"/><path d="m21 14h2v.5h-2z"/><path d="m21 17.5h2v.5h-2z"/><path d="m21 21h2v.5h-2z"/><path d="m21 24.5h2v.5h-2z"/><path d="m21 28h2v.5h-2z"/><path d="m21 31.5h2v.5h-2z"/><path d="m21 35h4v.5h-4z"/><path d="m21 38.5h2v.5h-2z"/><path d="m21 42h2v.5h-2z"/><path d="m21 45.5h2v.5h-2z"/><path d="m21 49h2v.5h-2z"/><path d="m21 52.5h2v.5h-2z"/><path d="m21 56h2v.5h-2z"/><path d="m21 59.5h2v.5h-2z"/><path d="m21 63h2v.5h-2z"/><path d="m21 66.5h2v.5h-2z"/><path d="m21 70h4v.5h-4z"/><path d="m21 73.5h2v.5h-2z"/><path d="m21 77h2v.5h-2z"/><path d="m21 80.5h2v.5h-2z"/><path d="m21 84h2v.5h-2z"/><path d="m21 87.5h2v.5h-2z"/><path d="m21 91h2v.5h-2z"/><path d="m21 94.5h2v.5h-2z"/><path d="m21 98h2v.5h-2z"/><path d="m21 101.5h2v.5h-2z"/><path d="m21 105h4v.5h-4z"/><path d="m21 108.5h2v.5h-2z"/><path d="m21 112h2v.5h-2z"/><path d="m21 115.5h2v.5h-2z"/><path d="m21 119h2v.5h-2z"/><path d="m21 122.5h2v.5h-2z"/><path d="m21 126h2v.5h-2z"/><path d="m21 129.5h2v.5h-2z"/><path d="m21 133h2v.5h-2z"/><path d="m21 136.5h2v.5h-2z"/><path d="m21 140h4v.5h-4z"/><path d="m21 143.5h2v.5h-2z"/><path d="m21 147h2v.5h-2z"/><path d="m21 150.5h2v.5h-2z"/><path d="m21 154h2v.5h-2z"/><path d="m21 157.5h2v.5h-2z"/><path d="m21 161h2v.5h-2z"/><path d="m21 164.5h2v.5h-2z"/><path d="m21 168h2v.5h-2z"/><path d="m21 171.5h2v.5h-2z"/><path d="m21 175h4v.5h-4z"/><path d="m21 178.5h2v.5h-2z"/><path d="m21 182h2v.5h-2z"/><path d="m21 185.5h2v.5h-2z"/><path d="m21 189h2v.5h-2z"/><path d="m21 192.5h2v.5h-2z"/><path d="m21 196h2v.5h-2z"/><path d="m21 199.5h2v.5h-2z"/><path d="m21 203h2v.5h-2z"/><path d="m21 206.5h2v.5h-2z"/><path d="m21 210h4v.5h-4z"/><path d="m21 213.5h2v.5h-2z"/><path d="m21 217h2v.5h-2z"/><path d="m21 220.5h2v.5h-2z"/><path d="m21 224h2v.5h-2z"/><path d="m21 227.5h2v.5h-2z"/><path d="m21 231h2v.5h-2z"/><path d="m21 234.5h2v.5h-2z"/><path d="m21 238h2v.5h-2z"/><path d="m21 241.5h2v.5h-2z"/><path d="m21 245h4v.5h-4z"/><path d="m21 248.5h2v.5h-2z"/><path d="m21 252h2v.5h-2z"/><path d="m21 255.5h2v.5h-2z"/><path d="m21 259h2v.5h-2z"/><path d="m21 262.5h2v.5h-2z"/><path d="m21 266h2v.5h-2z"/><path d="m21 269.5h2v.5h-2z"/><path d="m21 273h2v.5h-2z"/><path d="m21 276.5h2v.5h-2z"/><path d="m21 280h4v.5h-4z"/><path d="m21 283.5h2v.5h-2z"/><path d="m21 287h2v.5h-2z"/><path d="m21 290.5h2v.5h-2z"/><path d="m21 294h2v.5h-2z"/><path d="m21 297.5h2v.5h-2z"/><path d="m21 301h2v.5h-2z"/><path d="m21 304.5h2v.5h-2z"/><path d="m21 308h2v.5h-2z"/><path d="m21 311.5h2v.5h-2z"/><path d="m21 315h4v.5h-4z"/><path d="m21 318.5h2v.5h-2z"/><path d="m21 322h2v.5h-2z"/><path d="m21 325.5h2v.5h-2z"/><path d="m21 329h2v.5h-2z"/><path d="m21 332.5h2v.5h-2z"/><path d="m21 336h2v.5h-2z"/><path d="m21 339.5h2v.5h-2z"/><path d="m21 343h2v.5h-2z"/><path d="m21 346.5h2v.5h-2z"/><path d="m21 350h4v.5h-4z"/></g></g></svg>