<svg fill="none" height="30" preserveAspectRatio="none" viewBox="0 0 39 30" width="39" xmlns="http://www.w3.org/2000/svg" xmlns:xlink="http://www.w3.org/1999/xlink"><linearGradient id="a" gradientUnits="userSpaceOnUse" x1="0" x2="35.8256" y1="17.5" y2="17.5"><stop offset=".359375" stop-color="#fff" stop-opacity=".1"/><stop offset="1" stop-color="#fff" stop-opacity="0"/></linearGradient><path d="m0 15c0-8.28427 6.71573-15 15-15h24v30h-24c-8.28427 0-15-6.7157-15-15z" fill="#02131d" fill-opacity=".8"/><path d="m0 15c0-8.28427 6.71573-15 15-15h24v30h-24c-8.28427 0-15-6.7157-15-15z" fill="url(#a)"/><path d="m.25 15c0-8.1462 6.6038-14.75 14.75-14.75h23.75v29.5h-23.75c-8.1462 0-14.75-6.6038-14.75-14.75z" stroke="#fff" stroke-opacity=".1" stroke-width=".5"/><path clip-rule="evenodd" d="m18 6c4.9706 0 9 4.0294 9 9l-.0065.3455c-.0444 1.1697-.3136 2.3005-.781 3.3408l-1.8502-.7635c.4093-.8895.6375-1.8795.6375-2.9228 0-3.866-3.134-7-7-7s-7 3.134-7 7 3.134 7 7 7c2.1396 0 4.055-.9599 5.339-2.4727l1.426 1.4077h.0002l3.0634 3.065h-9.8284c-4.9706 0-9-4.0294-9-9s4.0294-9 9-9zm-.0002 4c1.6569 0 3 1.3431 3 3 0 1.1518-.6491 2.152-1.6014 2.6547-.2319.1224-.3978.3464-.398.6086l-.0006.7367h-2v-1c0-.7405.4024-1.387 1.0005-1.7327l.1001-.0618c.6964-.3684.9291-.7321.8994-1.2055-.0346-.5512-.4477-1-1-1-.5128 0-.9355.386-.9933.8834l-.0067.1166h-2c0-1.6569 1.3432-3 3-3zm1 10v-2h-2v2z" fill="#fff" fill-rule="evenodd"/></svg>