<svg fill="none" height="57" preserveAspectRatio="none" viewBox="0 0 267 57" width="267" xmlns="http://www.w3.org/2000/svg" xmlns:xlink="http://www.w3.org/1999/xlink"><linearGradient id="a"><stop offset="0" stop-color="#fff"/><stop offset="1" stop-color="#fff" stop-opacity=".6"/></linearGradient><linearGradient id="b" gradientUnits="userSpaceOnUse" x1="266" x2="133.5" xlink:href="#a" y1="36" y2="36"/><linearGradient id="c" gradientUnits="userSpaceOnUse" x1="1.00049" x2="133.5" xlink:href="#a" y1="36" y2="36"/><mask id="d" fill="#fff"><path clip-rule="evenodd" d="m232.92 52.5098c1.24-.6795 2.08-1.9965 2.08-3.5099 0-1.5133-.84-2.8304-2.08-3.5099-1.24.6795-2.08 1.9966-2.08 3.5099 0 1.5134.84 2.8304 2.08 3.5099z" fill="#fff" fill-rule="evenodd"/></mask><mask id="e" fill="#fff"><path clip-rule="evenodd" d="m33.9201 52.5098c1.2396-.6795 2.08-1.9965 2.08-3.5099 0-1.5133-.8404-2.8304-2.08-3.5099-1.2396.6795-2.08 1.9966-2.08 3.5099 0 1.5134.8404 2.8304 2.08 3.5099z" fill="#fff" fill-rule="evenodd"/></mask><g clip-rule="evenodd" fill-rule="evenodd"><path d="m131 53.5h66.5l4 3.5h-70.5zm33.5-52.5h67l-5 3h-57zm102.5 33.8301-22.213-28.32969-.51 4.21189 18.511 23.6081z" fill="#fff"/><path d="m131 .75h101.643c5.033 0 9.782 2.33175 12.859 6.31398l20.696 26.78312-.396.3058-20.696-26.7832c-2.982-3.85969-7.585-6.1197-12.463-6.1197h-101.643zm0 51.75h67 .095l.071.0631 4.429 3.9369h58.283l4.425-5.6541.394.3082-4.5 5.75-.075.0959h-.122-58.5-.095l-.071-.0631-4.429-3.9369h-66.905zm106.198-39.8743c-1.944-2.4486-4.9-3.8757-8.026-3.8757h-41.172v.5h41.172c2.974 0 5.785 1.3575 7.635 3.6866l21.081 26.5464c1.642 2.0679 1.665 4.9886.054 7.0817l-1.54 2.0023c-.331.4306-.844.683-1.387.683h-14.015v.5h14.015c.699 0 1.358-.3245 1.784-.8782l1.54-2.0023c1.75-2.2751 1.725-5.4497-.06-7.6974z" fill="url(#b)" opacity=".4"/><path d="m136 53.5h-66.5l-4 3.5h70.5zm-33.5-52.5h-67l5 3h57zm-102.5 33.8301 22.2133-28.32969.5097 4.21189-18.51109 23.6081z" fill="#fff"/><path d="m131 .75h-96.6433c-5.0326 0-9.7812 2.33175-12.8584 6.31398l-20.696054 26.78312.395644.3058 20.69611-26.7832c2.9825-3.85969 7.585-6.1197 12.4627-6.1197h96.6433zm0 51.75h-61.9999-.0951l-.071.0631-4.429 3.9369h-58.28313l-4.42493-5.6541-.39375.3082 4.5 5.75.07507.0959h.12181 58.50003.095l.0711-.0631 4.4289-3.9369h61.9049zm-101.1984-39.8743c1.9444-2.4486 4.9002-3.8757 8.0269-3.8757h41.1716v.5h-41.1716c-2.9742 0-5.7858 1.3575-7.6354 3.6866l-21.08088 26.5464c-1.64219 2.0679-1.66475 4.9886-.0547 7.0817l1.54028 2.0023c.3312.4306.8437.683 1.3871.683h14.0152v.5h-14.0152c-.6986 0-1.3575-.3245-1.7834-.8782l-1.54029-2.0023c-1.75006-2.2751-1.72554-5.4497.05945-7.6974z" fill="url(#c)" opacity=".4"/></g><g opacity=".6"><circle cx="231" cy="49" fill="#fff" r="4"/><circle cx="234.84" cy="49" fill="#333740" r="3.75" stroke="#fff" stroke-width=".5"/><g fill="#fff"><path clip-rule="evenodd" d="m232.064 51.88h1.712c.054-.0519.106-.1053.157-.16h-2.026c.051.0547.103.1081.157.16zm-.424-.48h2.56c.04-.0524.078-.1057.114-.16h-2.788c.036.0543.074.1076.114.16zm-.31-.48h3.18c.029-.0527.056-.106.083-.16h-3.346c.027.054.054.1073.083.16zm-.223-.48h3.626c.02-.0528.04-.1062.058-.16h-3.742c.018.0538.038.1072.058.16zm-.151-.48h3.928c.013-.053.025-.1063.036-.16h-4c.011.0537.023.107.036.16zm-.088-.48h4.103c.007-.0531.012-.1064.016-.16h-4.134c.004.0536.009.1069.015.16zm-.028-.48h4.16c0-.0001 0-.0001 0-.0001 0-.0536-.001-.1069-.003-.1599h-4.154c-.002.053-.003.1063-.003.1599zm.028-.48h4.103c-.006-.0537-.013-.107-.022-.16h-4.058c-.009.053-.016.1063-.023.16zm.088-.48h3.928c-.013-.0538-.028-.1072-.043-.16h-3.842c-.016.0528-.03.1062-.043.16zm.151-.48h3.626c-.021-.0539-.043-.1073-.066-.16h-3.494c-.023.0527-.045.1061-.066.16zm.223-.48h3.18c-.03-.0541-.061-.1075-.093-.16h-2.994c-.032.0525-.063.1059-.093.16zm.31-.48h2.56c-.041-.0545-.083-.1078-.126-.16h-2.308c-.043.0522-.086.1055-.126.16zm.424-.48h1.712c-.057-.0551-.116-.1084-.176-.16h-1.36c-.06.0516-.119.1049-.176.16z" fill-rule="evenodd"/><path d="m232.92 52.5098-.24.4385.24.1317.24-.1317zm0-7.0198.24-.4385-.24-.1317-.24.1317zm1.58 3.5099c0 1.3235-.734 2.4762-1.82 3.0715l.48.8769c1.394-.7638 2.34-2.2452 2.34-3.9484zm-1.82-3.0715c1.086.5953 1.82 1.748 1.82 3.0715h1c0-1.7032-.946-3.1846-2.34-3.9484zm-1.34 3.0715c0-1.3235.734-2.4762 1.82-3.0715l-.48-.8769c-1.394.7638-2.34 2.2452-2.34 3.9484zm1.82 3.0715c-1.086-.5953-1.82-1.748-1.82-3.0715h-1c0 1.7032.946 3.1846 2.34 3.9484z" mask="url(#d)"/></g></g><g opacity=".6"><circle cx="32" cy="49" fill="#fff" r="4"/><circle cx="35.8401" cy="49" fill="#333740" r="3.75" stroke="#fff" stroke-width=".5"/><g fill="#fff"><path clip-rule="evenodd" d="m33.0643 51.88h1.7116c.0538-.0519.1062-.1053.157-.16h-2.0256c.0508.0547.1032.1081.157.16zm-.4245-.48h2.5605c.0394-.0524.0774-.1057.1142-.16h-2.7888c.0368.0543.0748.1076.1141.16zm-.3096-.48h3.1798c.0288-.0527.0565-.106.083-.16h-3.3459c.0265.054.0542.1073.0831.16zm-.223-.48h3.6258c.0204-.0528.0397-.1062.0579-.16h-3.7416c.0182.0538.0375.1072.0579.16zm-.1512-.48h3.9281c.0131-.053.0251-.1063.036-.16h-4c.0109.0537.0229.107.0359.16zm-.0874-.48h4.103c.0063-.0531.0116-.1064.0159-.16h-4.1348c.0043.0536.0096.1069.0159.16zm-.0285-.48h4.16c0-.0001 0-.0001 0-.0001 0-.0536-.0011-.1069-.0032-.1599h-4.1537c-.0021.053-.0031.1063-.0031.1599zm.0285-.48h4.103c-.0064-.0537-.0139-.107-.0224-.16h-4.0582c-.0085.053-.016.1063-.0224.16zm.0874-.48h3.9282c-.0133-.0538-.0276-.1072-.043-.16h-3.8422c-.0154.0528-.0297.1062-.043.16zm.1511-.48h3.626c-.0208-.0539-.0428-.1073-.0658-.16h-3.4944c-.0231.0527-.045.1061-.0658.16zm.223-.48h3.18c-.0297-.0541-.0606-.1075-.0926-.16h-2.9948c-.032.0525-.0629.1059-.0926.16zm.3096-.48h2.5607c-.0408-.0545-.0831-.1078-.1266-.16h-2.3074c-.0435.0522-.0858.1055-.1267.16zm.4244-.48h1.712c-.0571-.0551-.1158-.1084-.1761-.16h-1.3598c-.0603.0516-.119.1049-.1761.16z" fill-rule="evenodd"/><path d="m33.9201 52.5098-.2404.4385.2404.1317.2403-.1317zm0-7.0198.2403-.4385-.2403-.1317-.2404.1317zm1.58 3.5099c0 1.3235-.7344 2.4762-1.8204 3.0715l.4807.8769c1.3933-.7638 2.3397-2.2452 2.3397-3.9484zm-1.8204-3.0715c1.086.5953 1.8204 1.748 1.8204 3.0715h1c0-1.7032-.9464-3.1846-2.3397-3.9484zm-1.3396 3.0715c0-1.3235.7344-2.4762 1.8203-3.0715l-.4807-.8769c-1.3932.7638-2.3396 2.2452-2.3396 3.9484zm1.8203 3.0715c-1.0859-.5953-1.8203-1.748-1.8203-3.0715h-1c0 1.7032.9464 3.1846 2.3396 3.9484z" mask="url(#e)"/></g></g></svg>