<svg height="185" viewBox="0 0 439 185" width="439" xmlns="http://www.w3.org/2000/svg" xmlns:xlink="http://www.w3.org/1999/xlink"><defs><linearGradient id="a"><stop offset="0" stop-color="#f46dff"/><stop offset="1" stop-color="#3a68ff"/></linearGradient><linearGradient id="b" x1="83.0347%" x2="3.261084%" xlink:href="#a" y1="58.051017%" y2="43.852252%"/><linearGradient id="c" x1="50%" x2="50%" y1="77.539271%" y2="22.194194%"><stop offset="0" stop-color="#ff79c2"/><stop offset=".911965379" stop-color="#fe3284"/><stop offset="1" stop-color="#fe297c"/></linearGradient><path id="d" d="m111.62 59.2 6.48-46.32-21.68 3.04-1.2 8.32 6.24-.88-5.04 35.84zm58.96 0 1.52-10.64-3.44 3.04h-28.88l1.44-10.64h31.92l3.84-27.36h-45.52l-1.92 13.68h15.2l.72-6.08h15.28l-1.76 12.16h-30.32l-2.88 20.4c-.213333 1.5466667.133333 2.84 1.04 3.88s2.133333 1.56 3.68 1.56zm25.36-.08 1.28-9.12h-12.16l-1.28 9.12zm24.88.08 6.48-46.32-21.68 3.04-1.2 8.32 6.24-.88-5.04 35.84zm58.96 0 1.52-10.64-3.44 3.04h-28.88l1.44-10.64h31.92l3.84-27.36h-45.52l-1.92 13.68h15.2l.72-6.08h15.28l-1.76 12.16h-30.32l-2.88 20.4c-.213333 1.5466667.133333 2.84 1.04 3.88s2.133333 1.56 3.68 1.56z"/><filter id="e" height="102.2%" width="100.5%" x="-.3%" y="-1.1%"><feOffset dx="0" dy="-1" in="SourceAlpha" result="shadowOffsetInner1"/><feComposite in="shadowOffsetInner1" in2="SourceAlpha" k2="-1" k3="1" operator="arithmetic" result="shadowInnerInner1"/><feColorMatrix in="shadowInnerInner1" type="matrix" values="0 0 0 0 1   0 0 0 0 0.702670619   0 0 0 0 0.611318598  0 0 0 1 0"/></filter><linearGradient id="f" x1="50%" x2="50%" y1="77.539271%" y2="27.672009%"><stop offset="0" stop-color="#79edff"/><stop offset="1" stop-color="#6e8fff"/></linearGradient><path id="g" d="m47.784 104.64c.56 0 1.092-.093333 1.596-.28s.9613333-.448 1.372-.784.7373333-.737333.98-1.204.364-.961333.364-1.484l2.128-14.504h-21.504l1.624-8.064h10.248l-.56 3.752h10.752l1.064-9.128h-31.696l-2.688 18.816h21.504l-1.064 6.44h-19.376l-1.624-2.184-1.064 8.624zm40.768 0 3.248-23.632h-12.376l1.624 1.568-2.184 14.56-6.72.672 2.464-16.8h-12.376l1.624 1.568-3.248 22.064 17.528-2.128-.336 2.128zm18.48 11.76 1.848-11.76h13.384c.410667 0 .849333-.093333 1.316-.28s.914667-.448 1.344-.784.793333-.728 1.092-1.176.485333-.952.56-1.512l2.688-19.88h-29.568l1.568 1.624-4.984 33.768zm8.96-16.632h-6.496l2.016-13.384h6.44zm44.632 4.872 1.624-7.504-2.688 2.128h-15.064l.56-4.312h17.192l2.128-13.944h-27.944l-2.688 19.88c0 1.082667.270667 1.978667.812 2.688s1.353333 1.064 2.436 1.064zm-8.064-15.064h-6.44l.504-3.192h6.496zm27.048 15.064 1.064-7.504 18.312-16.128h-10.752l-7.56 7.504 1.064-7.504h-10.864l1.12 1.568-3.136 22.064zm46.48 0 6.44-15.568 2.184 15.568h9.688l12.88-31.696h-9.128l-7.56 19.32-1.568-18.256h-8.624l-7 18.256-1.624-19.32h-10.192l1.064 1.064 3.752 30.632zm62.552 0 1.624-7.504-2.688 2.128h-15.064l.56-4.312h17.192l2.128-13.944h-27.944l-2.688 19.88c0 1.082667.270667 1.978667.812 2.688s1.353333 1.064 2.436 1.064zm-8.064-15.064h-6.44l.504-3.192h6.496zm43.176 15.064 1.624-7.504-2.688 2.128h-15.064l.56-4.312h17.192l2.128-13.944h-27.944l-2.688 19.88c0 1.082667.270667 1.978667.812 2.688s1.353333 1.064 2.436 1.064zm-8.064-15.064h-6.44l.504-3.192h6.496zm27.048 15.064 1.064-7 5.376 7h11.816l-11.816-14 15.064-10.192h-11.816l-7 4.816 2.128-15.568h-12.32l1.568 1.624-4.816 33.32z"/><filter id="h" height="102.1%" width="100.3%" x="-.1%" y="-1.1%"><feOffset dx="0" dy="-1" in="SourceAlpha" result="shadowOffsetInner1"/><feComposite in="shadowOffsetInner1" in2="SourceAlpha" k2="-1" k3="1" operator="arithmetic" result="shadowInnerInner1"/><feColorMatrix in="shadowInnerInner1" type="matrix" values="0 0 0 0 0.611318598   0 0 0 0 0.991017688   0 0 0 0 1  0 0 0 1 0"/></filter><linearGradient id="i" x1="83.0347%" x2="3.261084%" xlink:href="#a" y1="50.423517%" y2="49.676603%"/><linearGradient id="j" x1="50%" x2="50%" y1="77.539271%" y2="22.194194%"><stop offset="0" stop-color="#fff"/><stop offset="1" stop-color="#fff"/></linearGradient><path id="k" d="m34.64 137.8 2.3-5.56.78 5.56h3.46l4.6-11.32h-3.26l-2.7 6.9-.56-6.52h-3.08l-2.5 6.52-.58-6.9h-3.64l.38.38 1.34 10.94zm17.74-9.02.38-2.3h-3.84l-.2 2.3zm-1.16 9.02 1.16-8.44h-4.42l.58.56-1.16 7.88zm6.98 0 .96-6.52h2.3l-.96 6.52h3.84l1.16-8.44h-10.56l.58.56-1.16 7.88zm19.04 0 .38-1.92h-1.92l.66-4.6h2.22l.4-1.92h-2.38l.26-1.74h-4.22l.38.58-.16 1.16h-1.56l-.2 1.92h1.54l-.78 5.18c-.0933333.386667-.02.706667.22.96s.5533333.38.94.38zm6.78 0 .96-6.52h2.3l-.96 6.52h3.84l1.16-8.44h-6.14l.56-4.04h-4.22l.38.58-1.72 11.9zm18.5 0 .58-2.68-.96.76h-5.38l.2-1.54h6.14l.76-4.98h-9.98l-.96 7.1c0 .386667.0966667.706667.29.96s.4833333.38.87.38zm-2.88-5.38h-2.3l.18-1.14h2.32zm20.68 5.38c.386667 0 .713333-.126667.98-.38s.446667-.573333.54-.96l.58-3.84-.96-.78 1.16-.76.58-4.6h-12.88l.58.76-1.34 10.56zm-1.54-6.92h-4.42l.2-2.48h4.6zm-.58 5h-4.6l.38-3.08h4.6zm16.5 1.92.96-6.92c0-.386667-.096667-.736667-.29-1.05s-.483333-.47-.87-.47h-8.64l-.96 7.1c0 .386667.096667.706667.29.96s.483333.38.87.38zm-3.66-1.92h-2.3l.76-4.6h2.32zm10.06 1.92.96-6.52h2.3l-.96 6.52h3.84l1.16-8.44h-10.56l.58.56-1.16 7.88zm18.88 0 1.16-8.44h-4.42l.58.56-.78 5.2-2.4.24.88-6h-4.42l.58.56-1.16 7.88 6.26-.76-.12.76zm10.44 0c.386667 0 .746667-.126667 1.08-.38s.546667-.573333.64-.96l.4-3.84h-5.58l.2-1.34h2.3l-.06.56h3.32l.38-2.48h-9.2l-.78 5.18h5.76l-.18 1.34h-5l-.58-.76-.38 2.68zm7.96-6.16.32-2.28h-3.04l-.32 2.28zm-.7 6.14.32-2.28h-3.04l-.32 2.28zm13.28.02.16-1.14h2.8c.386667 0 .73-.13 1.03-.39s.476667-.583333.53-.97l.6-4.34h-4.16l.32-2.28h1.12l-.1.76h3.04l.38-2.66h-4.18l.16-1.12h-3.6l.48.56-.08.56h-4.18l-.84 6.08h4.18l-.28 1.9h-3.42l-.64-.76-.38 2.66h4.18l-.16 1.14zm-2.08-6.84h-1.16l.34-2.28h1.14zm3.64 3.8h-1.14l.28-1.9h1.12zm9.66 3.04 1.62-11.58-5.42.76-.3 2.08 1.56-.22-1.26 8.96zm14.74 0 .38-2.66-.86.76h-7.22l.36-2.66h7.98l.96-6.84h-11.38l-.48 3.42h3.8l.18-1.52h3.82l-.44 3.04h-7.58l-.72 5.1c-.053333.386667.033333.71.26.97s.533333.39.92.39zm7.6 0 1.62-11.58-5.42.76-.3 2.08 1.56-.22-1.26 8.96zm14.74 0 .38-2.66-.86.76h-7.22l.36-2.66h7.98l.96-6.84h-11.38l-.48 3.42h3.8l.18-1.52h3.82l-.44 3.04h-7.58l-.72 5.1c-.053333.386667.033333.71.26.97s.533333.39.92.39zm13.32 0 .54-3.8h3.4l.28-1.9h-3.42l.48-3.42h-3.04l-.48 3.42h-3.42l-.26 1.9h3.42l-.54 3.8zm14.92-9.02.38-2.3h-3.84l-.2 2.3zm-1.16 9.02 1.16-8.44h-4.42l.58.56-1.16 7.88zm6.88 0 .58-3.84h6.72c.293333 0 .596667-.126667.91-.38s.523333-.573333.63-.96l.76-6.14h-12.48l.58.56-1.34 10.76zm5-5.76h-4.04l.4-3.64h4.22zm10.04 5.76.96-6.52h2.3l-.96 6.52h3.84l1.16-8.44h-6.14l.56-4.04h-4.22l.38.58-1.72 11.9zm18.7 0 .96-6.92c0-.386667-.096667-.736667-.29-1.05s-.483333-.47-.87-.47h-8.64l-.96 7.1c0 .386667.096667.706667.29.96s.483333.38.87.38zm-3.66-1.92h-2.3l.76-4.6h2.32zm10.06 1.92.96-6.52h2.3l-.96 6.52h3.84l1.16-8.44h-10.56l.58.56-1.16 7.88zm18.5 0 .58-2.68-.96.76h-5.38l.2-1.54h6.14l.76-4.98h-9.98l-.96 7.1c0 .386667.096667.706667.29.96s.483333.38.87.38zm-2.88-5.38h-2.3l.18-1.14h2.32zm14.12 5.38 1.62-11.58-5.42.76-.3 2.08 1.56-.22-1.26 8.96zm14.74 0 .38-2.66-.86.76h-7.22l.36-2.66h7.98l.96-6.84h-11.38l-.48 3.42h3.8l.18-1.52h3.82l-.44 3.04h-7.58l-.72 5.1c-.053333.386667.033333.71.26.97s.533333.39.92.39z"/></defs><g fill="none" fill-rule="evenodd" transform="translate(27 25)"><path d="m132.88768 2.09315002-49.0068989 6.18533677-1.2363846 17.72151321h5.1468402l-5.0437949 36.987829-71.5395383.5002765-8.86324365 55.5118945h86.01626095l-2.0269362 12.161618 24.6251824 1.758941 8.948931-13.920559h70.263475l13.525948-13.525949 5.635812 13.525949h35.83824l10.191952-10.191952 5.74497 9.191952h120.038531l-17.660947-25.0971348 17.267585-20.9028652h-21.753664v-11h-33v6h-34.236505l7-62.5h-71.14958l-35.845692 4.09665047-4.09665-4.09665047h-51.895673z" fill="#080114" stroke="url(#b)" stroke-width="4"/><g fill-rule="nonzero"><path d="m111.62 63.2 6.48-46.32-21.68 3.04-1.2 8.32 6.24-.88-5.04 35.84zm58.96 0 1.52-10.64-3.44 3.04h-28.88l1.44-10.64h31.92l3.84-27.36h-45.52l-1.92 13.68h15.2l.72-6.08h15.28l-1.76 12.16h-30.32l-2.88 20.4c-.213333 1.5466667.133333 2.84 1.04 3.88s2.133333 1.56 3.68 1.56zm25.36-.08 1.28-9.12h-12.16l-1.28 9.12zm24.88.08 6.48-46.32-21.68 3.04-1.2 8.32 6.24-.88-5.04 35.84zm58.96 0 1.52-10.64-3.44 3.04h-28.88l1.44-10.64h31.92l3.84-27.36h-45.52l-1.92 13.68h15.2l.72-6.08h15.28l-1.76 12.16h-30.32l-2.88 20.4c-.213333 1.5466667.133333 2.84 1.04 3.88s2.133333 1.56 3.68 1.56z" fill="#9c0286"/><g><use fill="#fff" xlink:href="#d"/><use fill="#f818d5" xlink:href="#d"/><use fill="url(#c)" xlink:href="#d"/><use fill="#000" filter="url(#e)" xlink:href="#d"/></g><path d="m47.784 108.64c.56 0 1.092-.093333 1.596-.28s.9613333-.448 1.372-.784.7373333-.737333.98-1.204.364-.961333.364-1.484l2.128-14.504h-21.504l1.624-8.064h10.248l-.56 3.752h10.752l1.064-9.128h-31.696l-2.688 18.816h21.504l-1.064 6.44h-19.376l-1.624-2.184-1.064 8.624zm40.768 0 3.248-23.632h-12.376l1.624 1.568-2.184 14.56-6.72.672 2.464-16.8h-12.376l1.624 1.568-3.248 22.064 17.528-2.128-.336 2.128zm18.48 11.76 1.848-11.76h13.384c.410667 0 .849333-.093333 1.316-.28s.914667-.448 1.344-.784.793333-.728 1.092-1.176.485333-.952.56-1.512l2.688-19.88h-29.568l1.568 1.624-4.984 33.768zm8.96-16.632h-6.496l2.016-13.384h6.44zm44.632 4.872 1.624-7.504-2.688 2.128h-15.064l.56-4.312h17.192l2.128-13.944h-27.944l-2.688 19.88c0 1.082667.270667 1.978667.812 2.688s1.353333 1.064 2.436 1.064zm-8.064-15.064h-6.44l.504-3.192h6.496zm27.048 15.064 1.064-7.504 18.312-16.128h-10.752l-7.56 7.504 1.064-7.504h-10.864l1.12 1.568-3.136 22.064zm46.48 0 6.44-15.568 2.184 15.568h9.688l12.88-31.696h-9.128l-7.56 19.32-1.568-18.256h-8.624l-7 18.256-1.624-19.32h-10.192l1.064 1.064 3.752 30.632zm62.552 0 1.624-7.504-2.688 2.128h-15.064l.56-4.312h17.192l2.128-13.944h-27.944l-2.688 19.88c0 1.082667.270667 1.978667.812 2.688s1.353333 1.064 2.436 1.064zm-8.064-15.064h-6.44l.504-3.192h6.496zm43.176 15.064 1.624-7.504-2.688 2.128h-15.064l.56-4.312h17.192l2.128-13.944h-27.944l-2.688 19.88c0 1.082667.270667 1.978667.812 2.688s1.353333 1.064 2.436 1.064zm-8.064-15.064h-6.44l.504-3.192h6.496zm27.048 15.064 1.064-7 5.376 7h11.816l-11.816-14 15.064-10.192h-11.816l-7 4.816 2.128-15.568h-12.32l1.568 1.624-4.816 33.32z" fill="#3120a9"/><g><use fill="#fff" xlink:href="#g"/><use fill="#f226de" xlink:href="#g"/><use fill="url(#f)" xlink:href="#g"/><use fill="#000" filter="url(#h)" xlink:href="#g"/></g></g><path d="m20 118h348.156716l-3 28h-341.9999996z" fill="#080114" stroke="url(#i)" stroke-width="4"/><g fill-rule="nonzero"><use fill="#fff" xlink:href="#k"/><use fill="url(#j)" xlink:href="#k"/></g></g></svg>