<svg height="45" viewBox="0 0 465 45" width="465" xmlns="http://www.w3.org/2000/svg"><path d="m185.584 243.712v-42.688h-10.24l-9.344 9.92 5.76 6.72v26.048zm-6.208-5.12h-1.664v-30.272l-4.096 4.16-.96-1.088 4.928-5.248h1.792zm31.68 5.12 3.648-11.2h-8.064l.832-1.6c1.109333-2.176 2.08-4.085333 2.912-5.728s1.514667-3.125333 2.048-4.448.928-2.549333 1.184-3.68.384-2.272.384-3.424c0-2.474667-.490667-4.565333-1.472-6.272s-2.261333-3.072-3.84-4.096-3.36-1.76-5.344-2.208-4-.672-6.048-.672c-.64 0-1.205333.010667-1.696.032s-.96.053333-1.408.096-.906667.106667-1.376.192-1.002667.192-1.6.32v11.84c.341333 0 .618667-.021333.832-.064.256-.042667.533333-.074667.832-.096s.618667-.032.96-.032c3.498667 0 5.248 1.429333 5.248 4.288 0 .768-.128 1.578667-.384 2.432s-.832 2.133333-1.728 3.84l-10.752 20.48zm-3.456-5.12h-12.544l8.384-15.872c.768-1.493333 1.365333-2.890667 1.792-4.192s.64-2.549333.64-3.744c0-2.304-.736-4.064-2.208-5.28s-3.424-1.824-5.856-1.824c-.128 0-.245333.010667-.352.032s-.202667.032-.288.032h-.192v-1.536h.192c.085333 0 .181333-.010667.288-.032s.224-.032.352-.032c2.858667 0 5.194667.725333 7.008 2.176s2.72 3.584 2.72 6.4c0 1.450667-.245333 2.88-.736 4.288s-1.12 2.858667-1.888 4.352l-7.232 13.696h10.496zm22.4 5.12v-10.688h-13.696v10.688zm-3.84-4.608h-6.016v-1.472h6.016zm22.144 4.608v-42.688h-10.24l-9.344 9.92 5.76 6.72v26.048zm-6.208-5.12h-1.664v-30.272l-4.096 4.16-.96-1.088 4.928-5.248h1.792zm31.68 5.12 3.648-11.2h-8.064l.832-1.6c1.109333-2.176 2.08-4.085333 2.912-5.728s1.514667-3.125333 2.048-4.448.928-2.549333 1.184-3.68.384-2.272.384-3.424c0-2.474667-.490667-4.565333-1.472-6.272s-2.261333-3.072-3.84-4.096-3.36-1.76-5.344-2.208-4-.672-6.048-.672c-.64 0-1.205333.010667-1.696.032s-.96.053333-1.408.096-.906667.106667-1.376.192-1.002667.192-1.6.32v11.84c.341333 0 .618667-.021333.832-.064.256-.042667.533333-.074667.832-.096s.618667-.032.96-.032c3.498667 0 5.248 1.429333 5.248 4.288 0 .768-.128 1.578667-.384 2.432s-.832 2.133333-1.728 3.84l-10.752 20.48zm-3.456-5.12h-12.544l8.384-15.872c.768-1.493333 1.365333-2.890667 1.792-4.192s.64-2.549333.64-3.744c0-2.304-.736-4.064-2.208-5.28s-3.424-1.824-5.856-1.824c-.128 0-.245333.010667-.352.032s-.202667.032-.288.032h-.192v-1.536h.192c.085333 0 .181333-.010667.288-.032s.224-.032.352-.032c2.858667 0 5.194667.725333 7.008 2.176s2.72 3.584 2.72 6.4c0 1.450667-.245333 2.88-.736 4.288s-1.12 2.858667-1.888 4.352l-7.232 13.696h10.496zm33.216 6.208c2.688 0 5.013333-.352 6.976-1.056s3.573333-1.664 4.832-2.88 2.186667-2.645333 2.784-4.288.896-3.402667.896-5.28c0-1.792-.288-3.413333-.864-4.864s-1.28-2.752-2.112-3.904-1.749333-2.176-2.752-3.072-1.92-1.685333-2.752-2.368-1.536-1.28-2.112-1.792-.864-.938667-.864-1.28c0-.384.128-.682667.384-.896s.554667-.362667.896-.448.704-.138667 1.088-.16.704-.032.96-.032c.469333 0 .917333.021333 1.344.064s.810667.085333 1.152.128c.426667.042667.810667.085333 1.152.128v-11.968c-.896-.128-1.813333-.256-2.752-.384-.810667-.085333-1.728-.181333-2.752-.288s-2.048-.16-3.072-.16c-1.962667 0-3.808.266667-5.536.8s-3.232 1.312-4.512 2.336-2.282667 2.304-3.008 3.84-1.088 3.306667-1.088 5.312c0 1.792.298667 3.381333.896 4.768s1.354667 2.634667 2.272 3.744 1.898667 2.090667 2.944 2.944 2.026667 1.632 2.944 2.336 1.674667 1.344 2.272 1.92.896 1.141333.896 1.696c0 1.450667-.981333 2.176-2.944 2.176-1.109333 0-2.208-.064-3.296-.192s-2.058667-.298667-2.912-.512c-1.024-.170667-2.005333-.405333-2.944-.704v12.8c1.024.298667 2.154667.554667 3.392.768 1.066667.213333 2.293333.394667 3.68.544s2.890667.224 4.512.224zm-.384-6.016c-.682667 0-1.354667-.032-2.016-.096s-1.290667-.138667-1.888-.224c-.682667-.085333-1.322667-.192-1.92-.32v-1.664c.597333.128 1.216.234667 1.856.32 1.194667.213333 2.517333.32 3.968.32 2.432 0 4.341333-.533333 5.728-1.6s2.08-2.624 2.08-4.672c0-1.109333-.309333-2.176-.928-3.2s-1.408-2.016-2.368-2.976-1.984-1.909333-3.072-2.848-2.112-1.909333-3.072-2.912-1.749333-2.026667-2.368-3.072-.928-2.165333-.928-3.36c0-2.218667.746667-3.850667 2.24-4.896s3.392-1.568 5.696-1.568c.384 0 .757333.010667 1.12.032s.693333.053333.992.096c.341333.042667.661333.064.96.064v1.664c-.341333 0-.682667-.021333-1.024-.064s-.693333-.074667-1.056-.096-.714667-.032-1.056-.032c-2.176 0-3.754667.416-4.736 1.248s-1.472 2.016-1.472 3.552c0 1.024.309333 2.016.928 2.976s1.408 1.92 2.368 2.88 1.984 1.909333 3.072 2.848 2.112 1.92 3.072 2.944 1.749333 2.090667 2.368 3.2.928 2.282667.928 3.52c0 1.450667-.266667 2.677333-.8 3.68s-1.248 1.824-2.144 2.464-1.909333 1.098667-3.04 1.376-2.293333.416-3.488.416zm36.224 6.016c2.688 0 5.12-.341333 7.296-1.024s4.042667-1.706667 5.6-3.072 2.752-3.093333 3.584-5.184 1.248-4.544 1.248-7.36v-27.136h-13.696v26.56c0 1.493333-.309333 2.634667-.928 3.424s-1.653333 1.184-3.104 1.184-2.485333-.394667-3.104-1.184-.928-1.930667-.928-3.424v-26.56h-13.632v27.136c0 2.816.416 5.269333 1.248 7.36s2.016 3.818667 3.552 5.184 3.392 2.389333 5.568 3.072 4.608 1.024 7.296 1.024zm0-6.016c-3.626667 0-6.410667-.949333-8.352-2.848s-2.912-4.64-2.912-8.224v-21.568h1.664v21.568c0 6.272 3.2 9.408 9.6 9.408s9.6-3.136 9.6-9.408v-21.568h1.728v21.568c0 3.584-.981333 6.325333-2.944 8.224s-4.757333 2.848-8.384 2.848zm35.648 4.928v-10.176c2.730667 0 5.28-.298667 7.648-.896s4.437333-1.536 6.208-2.816 3.168-2.954667 4.192-5.024 1.536-4.576 1.536-7.52-.512-5.450667-1.536-7.52-2.421333-3.744-4.192-5.024-3.84-2.218667-6.208-2.816-4.917333-.896-7.648-.896h-13.632v42.688zm-5.568-5.12h-1.664v-32.448h7.232c1.92 0 3.701333.224 5.344.672s3.061333 1.12 4.256 2.016 2.122667 2.048 2.784 3.456.992 3.072.992 4.992-.330667 3.584-.992 4.992-1.589333 2.56-2.784 3.456-2.613333 1.568-4.256 2.016-3.424.672-5.344.672h-5.568zm5.568-11.712c1.536 0 2.997333-.16 4.384-.48s2.613333-.842667 3.68-1.568 1.92-1.706667 2.56-2.944.96-2.773333.96-4.608-.32-3.370667-.96-4.608-1.493333-2.218667-2.56-2.944-2.293333-1.248-3.68-1.568-2.848-.48-4.384-.48h-5.568v19.2zm.576-4.864h-.576v-9.472h.576c1.792 0 3.082667.416 3.872 1.248s1.184 1.994667 1.184 3.488-.394667 2.656-1.184 3.488-2.08 1.248-3.872 1.248zm47.808 21.696v-11.2h-11.968v-4.928h11.328v-10.624h-11.328v-4.736h11.52v-11.2h-25.152v42.688zm-4.736-5.12h-14.464v-32.448h14.464v1.536h-12.8v13.824h12.16v1.536h-12.16v14.016h12.8zm22.208 5.12v-10.816l6.4 10.816h16l-8-14.08c1.066667-.768 2.026667-1.706667 2.88-2.816.725333-.981333 1.386667-2.218667 1.984-3.712s.896-3.306667.896-5.44c0-2.688-.48-5.066667-1.44-7.136s-2.293333-3.808-4-5.216-3.722667-2.474667-6.048-3.2-4.853333-1.088-7.584-1.088h-14.72v42.688zm-5.568-5.12h-1.664v-32.448h6.912c2.005333 0 3.861333.245333 5.568.736s3.189333 1.216 4.448 2.176 2.250667 2.144 2.976 3.552 1.088 3.050667 1.088 4.928c0 2.688-.682667 4.874667-2.048 6.56s-3.2 2.933333-5.504 3.744l6.4 10.752h-1.984l-6.08-10.24c-1.578667.341333-3.2.512-4.864.512h-5.248zm5.248-11.264c3.882667 0 6.922667-.842667 9.12-2.528s3.296-4.106667 3.296-7.264-1.098667-5.589333-3.296-7.296-5.237333-2.56-9.12-2.56h-5.248v19.648zm1.024-5.312h-.704v-9.472h.704c1.621333 0 2.997333.362667 4.128 1.088s1.696 1.941333 1.696 3.648-.565333 2.922667-1.696 3.648-2.506667 1.088-4.128 1.088zm56.96 21.696 4.288-12.928 4.288 12.928h10.624l14.08-42.688h-14.464l-4.928 14.912-4.928-14.912h-9.344l-4.928 14.912-4.928-14.912h-14.464l14.08 42.688zm-4.224-5.12h-1.6l-10.688-32.448h1.728l9.728 29.504 9.344-29.504 9.344 29.504 9.728-29.504h1.728l-10.688 32.448h-1.6l-8.512-26.816zm64.064 5.12v-11.2h-11.968v-4.928h11.328v-10.624h-11.328v-4.736h11.52v-11.2h-25.152v42.688zm-4.736-5.12h-14.464v-32.448h14.464v1.536h-12.8v13.824h12.16v1.536h-12.16v14.016h12.8zm34.176 5.12v-11.2h-11.968v-4.928h11.328v-10.624h-11.328v-4.736h11.52v-11.2h-25.152v42.688zm-4.736-5.12h-14.464v-32.448h14.464v1.536h-12.8v13.824h12.16v1.536h-12.16v14.016h12.8zm22.4 5.12v-13.184l9.088 13.184h16.448l-15.808-23.168 15.04-19.52h-16.704l-8.064 9.856v-9.856h-13.824v42.688zm-5.76-5.12h-1.664v-32.448h1.664v21.248l17.216-21.248h2.048l-11.456 14.208 12.48 18.24h-1.984l-11.648-16.896-6.656 8.256z" fill="#f0f" transform="translate(-166 -200)"/></svg>