<svg height="124" viewBox="0 0 168 124" width="168" xmlns="http://www.w3.org/2000/svg" xmlns:xlink="http://www.w3.org/1999/xlink"><defs><filter id="a" height="400%" width="145.5%" x="-22.7%" y="-150%"><feGaussianBlur in="SourceGraphic" stdDeviation="10"/></filter><linearGradient id="b"><stop offset="0" stop-color="#2d8761" stop-opacity=".772563"/><stop offset=".15690984" stop-color="#0e5d4f"/><stop offset=".654349662" stop-color="#23a090"/><stop offset="1" stop-color="#193f58"/></linearGradient><linearGradient id="c" x1="100%" x2="0%" xlink:href="#b" y1="49.683247%" y2="50%"/><path id="d" d="m88.0008477 44.9503983v39.0200732c0 .0164001-.0131259.0297834-.0295229.0301019-.8289685 7.2239317-19.5268166 14.9994266-42.4713285 14.9994266-22.9445045 0-41.64235262-7.7754949-42.47132112-14.9994266-.01593079-.0003185-.02867885-.013324-.02867885-.029258v-40.9245614c6.55026722 5.8207916 23.10849077 9.953246 42.49999997 9.953246 19.3923495 0 35.9503149-2.2284151 42.5008514-8.0496017z"/><filter id="e" height="125%" width="116.5%" x="-8.2%" y="-12.5%"><feGaussianBlur in="SourceAlpha" result="shadowBlurInner1" stdDeviation="4"/><feOffset dx="0" dy="6" in="shadowBlurInner1" result="shadowOffsetInner1"/><feComposite in="shadowOffsetInner1" in2="SourceAlpha" k2="-1" k3="1" operator="arithmetic" result="shadowInnerInner1"/><feColorMatrix in="shadowInnerInner1" type="matrix" values="0 0 0 0 0.0537931807   0 0 0 0 0.131162829   0 0 0 0 0.285043025  0 0 0 0.507320804 0"/></filter><linearGradient id="f" x1="50.847472%" x2="48.127948%" y1="100%" y2="0%"><stop offset="0" stop-color="#ba7b44"/><stop offset=".0570315185" stop-color="#f1b95d"/><stop offset=".290242002" stop-color="#e9af5f"/><stop offset=".71624261" stop-color="#e2a048"/><stop offset="1" stop-color="#a36541"/></linearGradient><path id="g" d="m57 52h9v45.0877941c-1.0459103.2884824-2.4059499.5652237-4.0801189.830224-1.6741689.2650002-3.3141293.4631218-4.9198811.5943648z"/><filter id="h" height="123.6%" width="222.2%" x="-61.1%" y="-16.1%"><feOffset dx="0" dy="-2" in="SourceAlpha" result="shadowOffsetOuter1"/><feGaussianBlur in="shadowOffsetOuter1" result="shadowBlurOuter1" stdDeviation="1.5"/><feColorMatrix in="shadowBlurOuter1" type="matrix" values="0 0 0 0 0.0355360984   0 0 0 0 0.204398777   0 0 0 0 0.119736801  0 0 0 1 0"/></filter><filter id="i" height="119.3%" width="200%" x="-50%" y="-14%"><feGaussianBlur in="SourceAlpha" result="shadowBlurInner1" stdDeviation="1.5"/><feOffset dx="0" dy="0" in="shadowBlurInner1" result="shadowOffsetInner1"/><feComposite in="shadowOffsetInner1" in2="SourceAlpha" k2="-1" k3="1" operator="arithmetic" result="shadowInnerInner1"/><feColorMatrix in="shadowInnerInner1" type="matrix" values="0 0 0 0 1   0 0 0 0 0.969627624   0 0 0 0 0.631097561  0 0 0 0.5 0"/></filter><linearGradient id="j" x1="100%" x2="0%" xlink:href="#b" y1="49.844284%" y2="50%"/><path id="k" d="m45.5 12c25.1289561 0 45.5 6.0441559 45.5 13.5v15c0 7.4558441-20.3710439 13.5-45.5 13.5s-45.5-6.0441559-45.5-13.5c0-2.7753573 0-12.2246427 0-15 0-7.3812857 19.9656601-13.3789757 44.7475743-13.4981914z"/><filter id="l" height="133.3%" width="115.4%" x="-7.7%" y="-16.7%"><feGaussianBlur in="SourceAlpha" result="shadowBlurInner1" stdDeviation="4"/><feOffset dx="0" dy="6" in="shadowBlurInner1" result="shadowOffsetInner1"/><feComposite in="shadowOffsetInner1" in2="SourceAlpha" k2="-1" k3="1" operator="arithmetic" result="shadowInnerInner1"/><feColorMatrix in="shadowInnerInner1" type="matrix" values="0 0 0 0 0.117619873   0 0 0 0 0.118344816   0 0 0 0 0.476251132  0 0 0 0.507320804 0"/></filter><linearGradient id="m" x1="50%" x2="50%" y1="97.628213%" y2="0%"><stop offset="0" stop-color="#40dec2"/><stop offset="1" stop-color="#00a185"/></linearGradient><filter id="n" height="123.1%" width="106.6%" x="-3.3%" y="-11.5%"><feGaussianBlur in="SourceGraphic" stdDeviation="1"/></filter><linearGradient id="o" x1="97.087184%" x2="0%" y1="51.313081%" y2="44.993747%"><stop offset="0" stop-color="#f1b95d"/><stop offset=".290242002" stop-color="#fde97b"/><stop offset=".594009188" stop-color="#cc9a30"/><stop offset="1" stop-color="#e2a048"/></linearGradient><linearGradient id="p" x1="71.976136%" x2="92.505444%" y1="46.829906%" y2="54.374209%"><stop offset="0" stop-color="#fff" stop-opacity=".078644"/><stop offset=".186073375" stop-color="#cba36b" stop-opacity=".5"/><stop offset="1" stop-color="#b1741c" stop-opacity=".5"/></linearGradient><path id="q" d="m25.7483147 23.3718431c7.8958368-.0764594 14.2013851-.157173 18.9166452-.2421409 1.4290166-.0257505 8.9344584-.1952055 22.5163255-.5083649 1.0401722-.023989 2.0185006.492689 2.5851696 1.3652828l7.7082355 11.8696418c-.9715877 1.1106508-1.8978868 2.0558152-2.7788974 2.8354932-.8810106.7796781-2.312274 1.9209128-4.2937901 3.4237041l-6.9690647-10.7314186c-.9183628-1.4141546-2.4876401-2.2701772-4.1738133-2.2767667l-43.5137439-.1700496 7.3281538-4.7589587c.7968578-.5174971 1.7246741-.7972221 2.6747798-.8064225z"/><filter id="r" height="120.3%" width="106.5%" x="-3.2%" y="-4.9%"><feOffset dx="0" dy="1" in="SourceAlpha" result="shadowOffsetOuter1"/><feGaussianBlur in="shadowOffsetOuter1" result="shadowBlurOuter1" stdDeviation=".5"/><feColorMatrix in="shadowBlurOuter1" type="matrix" values="0 0 0 0 0.119569306   0 0 0 0 0.366176586   0 0 0 0 0.415562726  0 0 0 1 0"/></filter><filter id="s" height="125.4%" width="108.1%" x="-4%" y="-7.5%"><feGaussianBlur in="SourceAlpha" result="shadowBlurInner1" stdDeviation="1"/><feOffset dx="0" dy="1" in="shadowBlurInner1" result="shadowOffsetInner1"/><feComposite in="shadowOffsetInner1" in2="SourceAlpha" k2="-1" k3="1" operator="arithmetic" result="shadowInnerInner1"/><feColorMatrix in="shadowInnerInner1" type="matrix" values="0 0 0 0 1   0 0 0 0 0.97576973   0 0 0 0 0.788300305  0 0 0 0.5 0"/></filter><filter id="t" height="175%" width="111.5%" x="-5.8%" y="-37.5%"><feGaussianBlur in="SourceGraphic" stdDeviation="1"/></filter><linearGradient id="u" x1="16.986388%" x2="79.820939%" y1="65.357549%" y2="16.042913%"><stop offset="0" stop-color="#f1b95d"/><stop offset=".155774916" stop-color="#fde97b"/><stop offset=".538772171" stop-color="#cca930"/><stop offset="1" stop-color="#5b3c14"/></linearGradient><path id="v" d="m46.9662859 24.8494481c-8.8175698 5.5861269-14.462057 9.3761535-16.9334616 11.37008s-4.1629836 4.4155725-5.0747369 7.264938l-2.4064071-6.4276791-3.5853944 1.7710264c1.3105545-3.0416884 2.505686-5.0825698 3.5853944-6.1226442 6.6710228-6.4261425 16.323914-6.6351818 19.7716588-8.4430754 2.2984965-1.2052624 3.8461454-1.0094777 4.6429468.5873543z"/><filter id="w" width="114.3%" x="-7.1%" y="-5%"><feOffset dx="0" dy="1" in="SourceAlpha" result="shadowOffsetOuter1"/><feGaussianBlur in="shadowOffsetOuter1" result="shadowBlurOuter1" stdDeviation=".5"/><feColorMatrix in="shadowBlurOuter1" type="matrix" values="0 0 0 0 0.325890477   0 0 0 0 0.198866085   0 0 0 0 0.482478487  0 0 0 1 0"/></filter><filter id="x" height="125%" width="117.9%" x="-8.9%" y="-7.5%"><feGaussianBlur in="SourceAlpha" result="shadowBlurInner1" stdDeviation="1"/><feOffset dx="0" dy="1" in="shadowBlurInner1" result="shadowOffsetInner1"/><feComposite in="shadowOffsetInner1" in2="SourceAlpha" k2="-1" k3="1" operator="arithmetic" result="shadowInnerInner1"/><feColorMatrix in="shadowInnerInner1" type="matrix" values="0 0 0 0 1   0 0 0 0 0.97576973   0 0 0 0 0.788300305  0 0 0 0.5 0"/></filter><path id="y" d="m.85714286 15.75c1.50416909-10.47841208 3.77673159-15.71761813 6.81768751-15.71761813 4.56143383 0 6.50963063 1.0200871 9.37036423 2.3551143s12.0327939 10.46317933 2.0574103 17.18605913c-3.2018349 2.157867-11.42777453-.3435583-14.20641157 1.3065533-2.8504166-1.0704779-4.19676676-2.7805141-4.03905047-5.1301086z"/><linearGradient id="z" x1="23.016509%" x2="50%" y1="86.600408%" y2="12.136244%"><stop offset="0" stop-color="#633e3e"/><stop offset=".745778388" stop-color="#cc8a4f"/><stop offset="1" stop-color="#564851"/></linearGradient><linearGradient id="A" x1="55.407282%" x2="27.145229%" y1="31.670858%" y2="77.2176%"><stop offset="0" stop-color="#f1b95d"/><stop offset=".10826647" stop-color="#fde97b"/><stop offset=".336518159" stop-color="#fff382"/><stop offset=".830647624" stop-color="#e2a048"/><stop offset="1" stop-color="#e18f60"/></linearGradient><path id="B" d="m5.29011716 17.894032c.58606789-3.7464247 1.99237208-7.1165994 4.21891257-10.11052413 3.33981077-4.49088711 11.18931057-8.26719025 14.53266497 3.92221203 2.228903 8.1262682 1.1144515 4.0631341-3.3433544-12.18940228l-11.18931057-2.94746365-8.44595684 2.46786216-4.8105812 10.25784718 4.8105812 7.11407699z"/><filter id="C" height="114.1%" width="110.4%" x="-5.2%" y="-7%"><feGaussianBlur in="SourceAlpha" result="shadowBlurInner1" stdDeviation="1"/><feOffset dx="0" dy="1" in="shadowBlurInner1" result="shadowOffsetInner1"/><feComposite in="shadowOffsetInner1" in2="SourceAlpha" k2="-1" k3="1" operator="arithmetic" result="shadowInnerInner1"/><feColorMatrix in="shadowInnerInner1" type="matrix" values="0 0 0 0 0.565896739   0 0 0 0 0.321210621   0 0 0 0 0.0857579414  0 0 0 0.5 0"/></filter><path id="D" d="m2.58861044 3.76655103c-4.0438118 4.67613946-4.0438118 16.44380617 11.58676526 20.00192097 6.0156544 1.3693921 13.1112418-6.0247505 13.9393159-6.6641182.4943003-.3816564 1.4719773-1.432116-1.7474633-3.8821056-.2507512-.1908214-1.2371458-.6129567-2.9591836-1.2664061-2.0920996-1.3676589-4.1465896-3.83565029-6.1634699-7.40397417-3.0253206-5.35248583-10.61215257-5.46145636-14.65596436-.7853169z"/><linearGradient id="E" x1="43.779615%" x2="82.292292%" y1="66.399033%" y2="39.752461%"><stop offset="0" stop-color="#916f5d"/><stop offset=".645718961" stop-color="#cc784f"/><stop offset="1" stop-color="#853d3d"/></linearGradient><linearGradient id="F" x1="27.702665%" x2="79.693845%" y1="34.731595%" y2="69.351961%"><stop offset="0" stop-color="#71302b"/><stop offset="1" stop-color="#d07309"/></linearGradient><linearGradient id="G" x1="62.993351%" x2="24.766764%" y1="16.300267%" y2="89.285275%"><stop offset="0" stop-color="#f1b95d"/><stop offset=".10826647" stop-color="#fde97b"/><stop offset=".336518159" stop-color="#fff382"/><stop offset=".557959724" stop-color="#efc161"/><stop offset=".844701298" stop-color="#e2a048"/><stop offset="1" stop-color="#84a3f3"/></linearGradient><path id="H" d="m25.3018002 7.50695537c1.0192456 0-2.4284587 2.78782193-3.6320627 2.39739839-3.0803804-.99920995-3.6018323-8.04380543-10.1172419-4.79615348-6.51540965 3.24765194-5.84575281 17.79663982 6.5154096 18.79639662-2.4285178 1.1382354-5.1580388 1.4714877-8.18856331.9997569l-11.05273222-8.7525585c-.05919863-6.95329374.13720153-10.6344921.58920047-11.04359502.67799841-.61365439 7.97335884-6.30820028 7.97335884-6.30820028s3.03981612.65417899 9.11944852 1.96253696c5.8621218 4.49627894 8.7931827 6.74441841 8.7931827 6.74441841z"/><filter id="I" height="111.4%" width="111.2%" x="-5.6%" y="-5.7%"><feGaussianBlur in="SourceAlpha" result="shadowBlurInner1" stdDeviation="1"/><feOffset dx="0" dy="1" in="shadowBlurInner1" result="shadowOffsetInner1"/><feComposite in="shadowOffsetInner1" in2="SourceAlpha" k2="-1" k3="1" operator="arithmetic" result="shadowInnerInner1"/><feColorMatrix in="shadowInnerInner1" type="matrix" values="0 0 0 0 0.565896739   0 0 0 0 0.321210621   0 0 0 0 0.0857579414  0 0 0 0.5 0"/></filter><linearGradient id="J" x1="23.834113%" x2="50%" y1="22.300041%" y2="77.699959%"><stop offset="0" stop-color="#a4bbff"/><stop offset=".236202338" stop-color="#ffbe88"/><stop offset=".550174539" stop-color="#fff382"/><stop offset=".854277708" stop-color="#e2af48"/><stop offset="1" stop-color="#93c1ef"/></linearGradient><mask id="K" fill="#fff"><use fill="#fff" fill-rule="evenodd" xlink:href="#y"/></mask><mask id="L" fill="#fff"><use fill="#fff" fill-rule="evenodd" xlink:href="#D"/></mask></defs><g fill="none" fill-rule="evenodd"><ellipse cx="84" cy="92" fill="#13072b" filter="url(#a)" opacity=".38" rx="66" ry="10"/><g transform="translate(39)"><use fill="url(#c)" fill-rule="evenodd" xlink:href="#d"/><use fill="#000" filter="url(#e)" xlink:href="#d"/><use fill="#000" filter="url(#h)" xlink:href="#g"/><use fill="url(#f)" fill-rule="evenodd" xlink:href="#g"/><use fill="#000" filter="url(#i)" xlink:href="#g"/><use fill="url(#j)" fill-rule="evenodd" xlink:href="#k"/><use fill="#000" filter="url(#l)" xlink:href="#k"/><ellipse cx="45.5" cy="25" fill="url(#m)" filter="url(#n)" rx="45.5" ry="13"/><g transform="matrix(.83867057 .54463904 -.54463904 .83867057 25.138152 -20.166784)"><use fill="#000" filter="url(#r)" xlink:href="#q"/><use fill="url(#o)" fill-rule="evenodd" xlink:href="#q"/><use fill="url(#p)" fill-rule="evenodd" xlink:href="#q"/><use fill="#000" filter="url(#s)" xlink:href="#q"/></g><ellipse cx="43.352299" cy="24.262063" fill="#4f178d" filter="url(#t)" opacity=".243234" rx="26" ry="4" transform="matrix(.9612617 -.27563736 .27563736 .9612617 -5.008136 12.889384)"/><g transform="matrix(.96592583 -.25881905 .25881905 .96592583 -7.543119 9.673258)"><use fill="#000" filter="url(#w)" xlink:href="#v"/><use fill="url(#u)" fill-rule="evenodd" xlink:href="#v"/><use fill="#000" filter="url(#x)" xlink:href="#v"/></g><g transform="translate(43)"><use fill="none" opacity=".477818" xlink:href="#y"/><path d="m13.7944545-.67685974-6.48839302.67685974c6.34616082 2.36561349 9.34092582 5.45386265 8.98429502 9.26474749-.5349462 5.71632721-5.6160947 6.43900771-8.98429502 6.43900771-2.24546692 0-3.64407576 0-4.19582653 0l1.11785629 5.2962448c7.94104466 1.0748174 12.96790446 1.0348536 15.08057956-.1198914 2.112675-1.1547451 3.8360094-3.4660538 5.1700032-6.9339263v-9.47856827l-3.8398493-3.44944768z" fill="url(#z)" mask="url(#K)"/><g mask="url(#K)"><use fill="url(#A)" fill-rule="evenodd" xlink:href="#B"/><use fill="#000" filter="url(#C)" xlink:href="#B"/></g></g><g transform="translate(15 6)"><use fill="none" opacity=".511509" xlink:href="#D"/><path d="m-1.18367347 11.9558421c2.54429675 5.0038668 7.77218791 6.2548336 15.68367347 3.7529001 7.9114856-2.5019334 11.6606004-3.5674815 11.2473446-3.1966444l3.2526554-1.6077458-.8853084 7.037096c-5.388059 5.2553508-8.5069256 7.8830262-9.3566001 7.8830262-.8496744 0-7.1023716-1.4396578-18.7580915-4.3189734z" fill="url(#E)" mask="url(#L)"/><path d="m7.58299716 3.73184613c2.02529641 2.27969365 4.79430204 4.50342666 8.30701694 6.67119897 5.2690723 3.2516586 7.4002096 2.7487014 7.5180306 2.9042055 1.7465307.3474531 4.0908552 2.7068964 5.241252 2.541677 1.3402916-.192492 1.9335485-2.0077862 1.7797708-5.4458825-6.2353328-6.53536339-9.5775371-9.8030451-10.0266129-9.8030451-.4490759 0-4.7222283 1.04394871-12.81945744 3.13184613z" fill="url(#F)" mask="url(#L)"/><g mask="url(#L)"><use fill="url(#G)" fill-rule="evenodd" xlink:href="#H"/><use fill="#000" filter="url(#I)" xlink:href="#H"/></g></g><path d="m38.089897 17.894032c2.4501503-1.1725701 4.3530298-1.7588552 5.7086385-1.7588552 3.0552251 0 4.4052148 1.1451007 4.9902434 1.6015941 1.3147703 1.0259053 1.2091998 2.8085727 1.2091998 4.8209267 0 1.1537196-7.6662242 3.3985079-7.6662242 1.995074s.7254404-3.6533457-.5666321-4.6606491c-.8613816-.6715355-2.0864567-1.3375657-3.6752254-1.9980905z" fill="url(#J)"/></g></g></svg>