<svg fill="none" height="48" viewBox="0 0 49 48" width="49" xmlns="http://www.w3.org/2000/svg"><path d="m25.3887 4c-11.0484 0-20.00003 8.9516-20.00003 20s8.95163 20 20.00003 20 20-8.9516 20-20-8.9516-20-20-20z" fill="#2489be"/><path d="m25 9c-8.2863 0-15 6.7137-15 15s6.7137 15 15 15 15-6.7137 15-15-6.7137-15-15-15z" fill="#fff"/><path d="m25 9c-8.2843 0-15 6.7157-15 15s6.7157 15 15 15 15-6.7157 15-15-6.7158-15-15-15zm-4.002 22.2518h-3.2934v-10.64h3.2934zm-1.6624-12.0334c-1.0756 0-1.9476-.8791-1.9476-1.9633 0-1.0843.8721-1.9633 1.9476-1.9633 1.0754 0 1.9474.879 1.9474 1.9633s-.8719 1.9633-1.9474 1.9633zm14.0044 12.0334h-3.2775v-5.5851c0-1.5319-.5818-2.387-1.7931-2.387-1.3183 0-2.007.8906-2.007 2.387v5.5851h-3.1587v-10.64h3.1587v1.433s.9502-1.7576 3.2063-1.7576c2.2562 0 3.8713 1.3776 3.8713 4.2275z" fill="#2489be"/></svg>