<svg fill="none" height="48" viewBox="0 0 49 48" width="49" xmlns="http://www.w3.org/2000/svg"><path d="m24.25 3.87012c-11.0484 0-20 8.95158-20 19.99998s8.9516 20 20 20 20-8.9516 20-20-8.9516-19.99998-20-19.99998z" fill="#2c72f5"/><path clip-rule="evenodd" d="m34.0553 17.4815-3.1797 14.9844c-.2344 1.0625-.8672 1.3203-1.75.8203l-4.8438-3.5703-2.3359 2.25c-.2578.2578-.4766.4765-.9766.4765l.3438-4.9297 8.9765-8.1093c.3907-.3438-.0859-.5391-.6015-.1954l-11.0938 6.9844-4.7812-1.4922c-1.0391-.3281-1.0625-1.039.2187-1.539l18.6797-7.2032c.8672-.3125 1.625.211 1.3438 1.5235z" fill="#fff" fill-rule="evenodd"/></svg>