<svg fill="none" height="76" viewBox="0 0 76 76" width="76" xmlns="http://www.w3.org/2000/svg" xmlns:xlink="http://www.w3.org/1999/xlink"><linearGradient id="a" gradientUnits="userSpaceOnUse" x1="28.248" x2="28.248" y1="0" y2="61.7779"><stop offset="0" stop-color="#de9658"/><stop offset="1" stop-color="#aa6225" stop-opacity=".11"/></linearGradient><linearGradient id="b" gradientUnits="userSpaceOnUse" x1="28.248" x2="28.248" y1="0" y2="61.7779"><stop offset="0" stop-color="#fff6af"/><stop offset="1" stop-color="#f1da80"/></linearGradient><linearGradient id="c" gradientUnits="userSpaceOnUse" x1="14.7036" x2="29.6086" y1="1.9281" y2="61.4371"><stop offset="0" stop-color="#fffce0"/><stop offset="1" stop-color="#f8e582" stop-opacity="0"/></linearGradient><linearGradient id="d" gradientUnits="userSpaceOnUse" x1="21.195" x2="21.195" y1="0" y2="46.353"><stop offset="0" stop-color="#e99f5a"/><stop offset="1" stop-color="#9d5a13"/></linearGradient><linearGradient id="e" gradientUnits="userSpaceOnUse" x1="21.195" x2="21.195" y1="0" y2="46.353"><stop offset="0" stop-color="#2e694b"/><stop offset="1" stop-color="#214e37"/></linearGradient><linearGradient id="f" gradientUnits="userSpaceOnUse" x1="21.195" x2="21.195" y1="0" y2="46.353"><stop offset="0" stop-color="#f7ba6c"/><stop offset="1" stop-color="#d2854e"/></linearGradient><linearGradient id="g" gradientUnits="userSpaceOnUse" x1="38.7033" x2="38.7033" y1="24.9258" y2="47.3439"><stop offset="0" stop-color="#d1882c"/><stop offset="1" stop-color="#9c5712"/></linearGradient><linearGradient id="h" gradientUnits="userSpaceOnUse" x1="37.4476" x2="37.4476" y1="23.6807" y2="46.0988"><stop offset="0" stop-color="#fffbe1"/><stop offset="1" stop-color="#f4e39a"/></linearGradient><clipPath id="i"><rect height="76" rx="38" width="76"/></clipPath><mask id="j" height="46" maskUnits="userSpaceOnUse" width="45" x="12" y="12"><ellipse cx="21.195" cy="23.1765" fill="url(#e)" rx="21.195" ry="23.1765" transform="matrix(1 0 -.247372 .968921 18.9319 12.4717)"/></mask><g clip-path="url(#i)"><ellipse cx="28.248" cy="30.8889" fill="url(#a)" rx="28.248" ry="30.8889" transform="matrix(1 0 -.247372 .968921 20.0637 11.2275)"/><ellipse cx="28.248" cy="30.8889" fill="url(#b)" rx="28.248" ry="30.8889" transform="matrix(1 0 -.247372 .968921 13.7864 5)"/><ellipse cx="28.248" cy="30.8889" fill="url(#c)" fill-opacity=".25" rx="28.248" ry="30.8889" transform="matrix(1 0 -.247372 .968921 13.7864 5)"/><ellipse cx="21.195" cy="23.1765" fill="url(#d)" rx="21.195" ry="23.1765" transform="matrix(1 0 -.247372 .968921 18.9312 12.4717)"/><g mask="url(#j)"><ellipse cx="21.195" cy="23.1765" fill="url(#f)" rx="21.195" ry="23.1765" transform="matrix(1 0 -.247372 .968921 20.1868 13.7168)"/></g><g clip-rule="evenodd" fill-rule="evenodd"><path d="m39.5865 29.4708-1.1738 2.9829.0015.0008c5.8758.2555 9.9367 1.3527 9.4196 2.6669s-5.4416 2.4115-11.5185 2.6669l-3.7601 9.5556h-5.3267l3.7597-9.5548c-5.8842-.2562-9.956-1.3543-9.4384-2.6697s5.4514-2.4134 11.5388-2.6681l1.1729-2.9805h-7.367l1.7884-4.545h20.0581l-1.7884 4.545zm-2.952 7.5072-.001.0024.0017-.002c5.3631-.2177 9.6402-1.072 10.0404-2.089s-3.2031-1.8709-8.3965-2.0886l-1.3106 3.3306c-.1566.0129-1.0074.0762-2.6501.0762-1.3676 0-2.3372-.0541-2.675-.0762l1.3106-3.3306c-5.3746.2173-9.6585 1.0692-10.0601 2.0898-.4017 1.0206 3.211 1.8737 8.4151 2.0906l.0016-.004c.3344.0165 1.2872.0525 2.6618.0525 1.7193 0 2.5083-.0429 2.6621-.0517z" fill="url(#g)"/><path d="m38.3308 28.2257-1.1738 2.9829.0014.0008c5.8759.2555 9.9368 1.3527 9.4197 2.6669-.5172 1.3142-5.4416 2.4115-11.5185 2.6669l-3.7601 9.5556h-5.3268l3.7598-9.5548c-5.8842-.2562-9.9561-1.3543-9.4385-2.6697s5.4515-2.4135 11.5389-2.6681l1.1728-2.9805h-7.3669l1.7884-4.545h20.0581l-1.7884 4.545zm-2.9519 7.5072-.001.0024.0017-.002c5.3631-.2178 9.6401-1.072 10.0403-2.089.4002-1.0171-3.203-1.8709-8.3964-2.0886l-1.3106 3.3306c-.1567.0128-1.0075.0762-2.6501.0762-1.3676 0-2.3372-.0541-2.675-.0762l1.3106-3.3306c-5.3746.2173-9.6585 1.0691-10.0602 2.0898-.4016 1.0206 3.2111 1.8736 8.4152 2.0906l.0016-.004c.3344.0164 1.2872.0525 2.6618.0525 1.7193 0 2.5083-.0429 2.6621-.0517z" fill="url(#h)"/></g></g></svg>