<svg fill="none" height="117" viewBox="0 0 118 117" width="118" xmlns="http://www.w3.org/2000/svg" xmlns:xlink="http://www.w3.org/1999/xlink"><linearGradient id="a" gradientUnits="userSpaceOnUse" x1="69.9111" x2="39.8578" y1="-.575306" y2="109.119"><stop offset="0" stop-color="#fff"/><stop offset="1" stop-color="#ffe145"/></linearGradient><mask id="b" height="117" maskUnits="userSpaceOnUse" width="104" x="7" y="0"><path d="m55.9813 1.72805c1.8701-1.07053 4.1673-1.070532 6.0374 0l45.0193 25.77175c1.891 1.0824 3.057 3.0944 3.057 5.2731v51.4542c0 2.1787-1.166 4.1907-3.057 5.2731l-45.0193 25.7718c-1.8701 1.07-4.1673 1.07-6.0374 0l-45.0194-25.7718c-1.89085-1.0824-3.0574-3.0944-3.0574-5.2731v-51.4542c0-2.1787 1.16655-4.1907 3.0574-5.2731z" fill="#0a0727"/></mask><path d="m56.0061 4.73943c1.8789-1.07735 4.1882-1.07735 6.0671 0l42.0948 24.13707c1.896 1.087 3.065 3.1053 3.065 5.2905v48.2018c0 2.1852-1.169 4.2035-3.065 5.2905l-42.0948 24.1367c-1.8789 1.078-4.1882 1.078-6.0671 0l-42.0949-24.1367c-1.8958-1.087-3.065-3.1053-3.065-5.2905v-48.2018c0-2.1852 1.1692-4.2035 3.065-5.2905z" fill="#08202b"/><g mask="url(#b)"><path d="m56.0268 1.7734c1.9813-1.134572 4.4154-1.134575 6.3966 0l44.4646 25.4622c2.002 1.1467 3.238 3.2777 3.238 5.5852v50.8334c0 2.3075-1.236 4.4385-3.238 5.5852l-44.4645 25.4626c-1.9813 1.134-4.4154 1.134-6.3967 0l-44.4644-25.4626c-2.00251-1.1467-3.23786-3.2777-3.23786-5.5852v-50.8334c0-2.3075 1.23535-4.4385 3.23786-5.5852z" fill="#0a0727" fill-opacity=".5"/></g><path d="m56.584 5.92495c1.521-.87212 3.3904-.87212 4.9114 0l41.9396 24.04815c1.535.8799 2.481 2.5137 2.481 4.2827v48.0241c0 1.769-.946 3.4028-2.481 4.2827l-41.9396 24.0484c-1.521.872-3.3904.872-4.9114 0l-41.9398-24.0484c-1.5347-.8799-2.4812-2.5137-2.4812-4.2827v-48.0241c0-1.769.9465-3.4028 2.4812-4.2827z" stroke="url(#a)" stroke-width="2.27852"/></svg>