<svg fill="none" height="76" viewBox="0 0 76 76" width="76" xmlns="http://www.w3.org/2000/svg" xmlns:xlink="http://www.w3.org/1999/xlink"><linearGradient id="a" gradientUnits="userSpaceOnUse" x1="28.6943" x2="47.9916" y1="8.97298" y2="63.5542"><stop offset="0" stop-color="#b4fffa"/><stop offset="1" stop-color="#00efb3"/></linearGradient><circle cx="38" cy="38" fill="#000d1d" r="38"/><path clip-rule="evenodd" d="m31.7045 38.005 12.6003 12.5073 7.9534-7.8934c1.4222-1.2709 3.598-1.2144 4.9512.1286s1.4102 3.5024.1296 4.9138l-10.4957 10.4185c-1.4098 1.3761-3.671 1.3761-5.0808 0l-15.1427-15.0323v8.9348c0 1.9719-1.6107 3.5705-3.5976 3.5705s-3.5976-1.5986-3.5976-3.5705v-27.9662c0-1.9719 1.6107-3.5705 3.5976-3.5705s3.5976 1.5986 3.5976 3.5705v8.9348l15.1407-15.0284c1.4094-1.3771 3.6714-1.3771 5.0808 0l10.5036 10.4165c1.2806 1.4115 1.2236 3.5708-.1296 4.9138s-3.529 1.3996-4.9512.1287l-7.9534-7.8934zm12.6062-3.5743c-1.4568-.0008-2.7707.8696-3.3287 2.2051-.5581 1.3356-.2505 2.8733.7794 3.896 1.0299 1.0226 2.5791 1.3288 3.9251.7757 1.3461-.5532 2.2238-1.8566 2.2238-3.3025.0005-.9479-.3785-1.8573-1.0535-2.528-.6751-.6707-1.5909-1.0477-2.5461-1.0482z" fill="url(#a)" fill-rule="evenodd"/></svg>