<svg fill="none" height="76" viewBox="0 0 76 76" width="76" xmlns="http://www.w3.org/2000/svg"><circle cx="38" cy="38" fill="#000d1d" r="38"/><path clip-rule="evenodd" d="m10.2561 19.4912c-2.03211 6.8354.8885 15.0236 7.212 22.9289 1.3467-2.6975 2.2054-5.7517 5.0304-8.5408-6.5246-1.538-4.4866-9.9135-12.2424-14.3881z" fill="#af4614" fill-rule="evenodd"/><path clip-rule="evenodd" d="m42.5974 27.8503c3.2354-2.1776 6.417-3.7654 10.8618-4.5185 4.4287-.7491 7.2996-3.6697 11.7841-3.843-7.7558 4.4746-5.7177 12.85-12.2424 14.388 4.5882 4.5304 3.9925 9.7601 8.7142 13.0234l-2.9107 2.3469 3.1338 2.7114c-2.305.7451-4.628 1.8748-7.9391 3.9706-4.3711 2.7673-9.4194 4.2714-16.2489 4.2714-6.8294 0-11.8798-1.5061-16.2508-4.2714-3.3131-2.0978-5.6361-3.2255-7.9392-3.9706l3.1339-2.7094-2.9087-2.3469c4.7216-3.2633 4.1279-8.493 8.7141-13.0234-6.5246-1.538-4.4866-9.9134-12.2424-14.388 4.4845.1733 7.3534 3.0919 11.7842 3.843 4.4447.7531 7.6263 2.3389 10.8618 4.5185 2.7453-1.8748 6.9489-1.8748 9.6943-.002z" fill="#f5872d" fill-rule="evenodd"/><path clip-rule="evenodd" d="m33.036 42.2648c.8049 0 1.4624-.4602 1.4624-1.024s-.6575-1.024-1.4624-1.024c-.8068 0-1.4623.4602-1.4623 1.024-.002.5638.6555 1.024 1.4623 1.024z" fill="#ff5a1e" fill-rule="evenodd"/><path d="m33.034 42.3086c-.8327 0-1.5081-.4801-1.5081-1.0698s.6773-1.0699 1.5081-1.0699c.8328 0 1.5101.4802 1.5101 1.0699-.0019.5897-.6793 1.0698-1.5101 1.0698zm0-2.05c-.7809 0-1.4165.4403-1.4165.9802s.6356.9802 1.4165.9802c.781 0 1.4165-.4403 1.4165-.9802 0-.5419-.6355-.9802-1.4165-.9802z" fill="#000"/><path d="m33.034 42.3086c-.8327 0-1.5081-.4801-1.5081-1.0698s.6773-1.0699 1.5081-1.0699c.8328 0 1.5101.4802 1.5101 1.0699-.0019.5897-.6793 1.0698-1.5101 1.0698zm0-2.05c-.7809 0-1.4165.4403-1.4165.9802s.6356.9802 1.4165.9802c.781 0 1.4165-.4403 1.4165-.9802 0-.5419-.6355-.9802-1.4165-.9802z" stroke="#1a2e35" stroke-miterlimit="10" stroke-width=".5211"/><path clip-rule="evenodd" d="m42.5983 42.2648c.8049 0 1.4623-.4602 1.4623-1.024s-.6574-1.024-1.4623-1.024c-.8069 0-1.4623.4602-1.4623 1.024-.002.5638.6554 1.024 1.4623 1.024z" fill="#ff5a1e" fill-rule="evenodd"/><path d="m42.6012 42.3091c-.8328 0-1.5082-.4801-1.5082-1.0698s.6774-1.0699 1.5082-1.0699c.8327 0 1.5101.4802 1.5101 1.0699-.002.5897-.6794 1.0698-1.5101 1.0698zm0-2.05c-.781 0-1.4165.4403-1.4165.9802s.6355.9802 1.4165.9802c.7809 0 1.4164-.4403 1.4164-.9802 0-.5419-.6355-.9802-1.4164-.9802z" fill="#000"/><path d="m17.4673 42.5037-.0458-.0558c-6.6043-8.2559-9.17037-16.4142-7.2199-22.9707l.0159-.0558.0498.0299c3.8789 2.2353 5.3193 5.4488 6.5904 8.2838 1.283 2.8608 2.3907 5.3312 5.642 6.0983l.0797.0179-.0577.0578c-2.1517 2.1237-3.1498 4.3809-4.116 6.5644-.3029.6814-.5878 1.3269-.9065 1.9644zm-7.194-22.9448c-1.90462 6.5007.6415 14.5853 7.1761 22.7754.3048-.6156.5797-1.2372.8726-1.8966.9603-2.1716 1.9544-4.4148 4.0781-6.5346-3.2354-.7989-4.3451-3.2713-5.6261-6.1322-1.2611-2.8091-2.6875-5.9927-6.5007-8.212z" fill="#000"/><path d="m58.0152 42.5178-.0319-.0637c-.3187-.6376-.6036-1.2831-.9064-1.9644-.9663-2.1835-1.9644-4.4387-4.116-6.5645l-.0578-.0578.0797-.0179c3.2533-.767 4.359-3.2374 5.642-6.0983 1.2711-2.835 2.7115-6.0485 6.5884-8.2858l.0518-.0299.016.0558c1.9484 6.5545-.6156 14.7128-7.22 22.9707zm-4.9328-8.5986c2.1237 2.1198 3.1179 4.3631 4.0781 6.5346.2909.6575.5678 1.2811.8726 1.8967 6.5326-8.1902 9.0807-16.2748 7.1761-22.7755-3.8131 2.2214-5.2396 5.403-6.4987 8.2141-1.285 2.8589-2.3927 5.3312-5.6281 6.1301z" fill="#000"/><path d="m58.0152 42.5178-.0319-.0637c-.3187-.6376-.6036-1.2831-.9064-1.9644-.9663-2.1835-1.9644-4.4387-4.116-6.5645l-.0578-.0578.0797-.0179c3.2533-.767 4.359-3.2374 5.642-6.0983 1.2711-2.835 2.7115-6.0485 6.5884-8.2858l.0518-.0299.016.0558c1.9484 6.5545-.6156 14.7128-7.22 22.9707zm-4.9328-8.5986c2.1237 2.1198 3.1179 4.3631 4.0781 6.5346.2909.6575.5678 1.2811.8726 1.8967 6.5326-8.1902 9.0807-16.2748 7.1761-22.7755-3.8131 2.2214-5.2396 5.403-6.4987 8.2141-1.285 2.8589-2.3927 5.3312-5.6281 6.1301z" stroke="#1a2e35" stroke-miterlimit="10" stroke-width=".5211"/><path d="m37.7501 60.2484c-6.4907 0-11.6626-1.3607-16.2747-4.2794-3.1737-2.0102-5.5464-3.1956-7.9292-3.9666l-.0757-.0239 3.1538-2.7294-2.9147-2.3508.0498-.0339c2.4903-1.7213 3.5024-4.0064 4.5722-6.427.9603-2.1716 1.9544-4.4149 4.0782-6.5346-3.2354-.7989-4.3431-3.2713-5.6262-6.1322-1.265-2.821-2.6995-6.0206-6.5505-8.2419l-.1594-.0917.1833.008c2.4624.0956 4.3989.9961 6.447 1.9504 1.6436.765 3.343 1.556 5.3432 1.8946 3.9367.6674 7.0825 1.9724 10.8538 4.5065 2.7712-1.8707 6.9271-1.8707 9.6963 0 3.7693-2.5341 6.9171-3.8411 10.8538-4.5065 2.0002-.3386 3.6996-1.1296 5.3432-1.8946 2.0501-.9543 3.9845-1.8548 6.447-1.9504l.1833-.008-.1574.0917c-3.8511 2.2213-5.2855 5.4209-6.5506 8.2439-1.283 2.8589-2.3907 5.3333-5.6261 6.1302 2.1237 2.1197 3.1179 4.363 4.0781 6.5346 1.0699 2.4186 2.082 4.7037 4.5723 6.427l.0498.0339-2.9147 2.3508 3.1538 2.7294-.0758.0239c-2.3847.771-4.7555 1.9564-7.9291 3.9666-4.6121 2.9207-9.784 4.2794-16.2748 4.2794zm-24.1003-8.3057c2.3668.773 4.7276 1.9584 7.8754 3.9506 4.5961 2.9087 9.7521 4.2654 16.2249 4.2654 6.4729 0 11.6288-1.3547 16.225-4.2654 3.1477-1.9922 5.5085-3.1776 7.8734-3.9506l-3.1159-2.6956.0418-.0338 2.8629-2.3091c-2.4764-1.7332-3.4865-4.0143-4.5543-6.431-.9663-2.1835-1.9644-4.4387-4.116-6.5644l-.0578-.0578.0797-.0179c3.2514-.7671 4.359-3.2375 5.6421-6.0983 1.2531-2.7972 2.6716-5.9609 6.429-8.1922-2.3569.1315-4.2396 1.0061-6.2278 1.9325-1.6496.767-3.353 1.5599-5.3672 1.9006-3.9327.6654-7.0725 1.9723-10.8438 4.5105l-.0259.0179-.0259-.0179c-2.7493-1.8747-6.8952-1.8747-9.6445 0l-.0259.0179-.0259-.0179c-3.7713-2.5382-6.9111-3.8451-10.8438-4.5105-2.0122-.3407-3.7176-1.1336-5.3672-1.9006-1.9902-.9264-3.8709-1.801-6.2278-1.9325 3.7574 2.2313 5.1759 5.397 6.429 8.1922 1.283 2.8608 2.3907 5.3312 5.6421 6.0983l.0797.0179-.0578.0578c-2.1516 2.1237-3.1497 4.3809-4.116 6.5644-1.0698 2.4147-2.0799 4.6978-4.5543 6.4291l2.9047 2.3428-.0398.0359z" fill="#000"/><g clip-rule="evenodd" fill-rule="evenodd"><path d="m10.1807 19.4912c-2.02608 6.8155.8707 14.9758 7.1562 22.8592.1634-2.4246.5718-4.4029 1.8867-7.22-3.873-2.6736-3.084-10.3916-8.7141-15.4439-.1076-.0658-.2172-.1315-.3288-.1953z" fill="#dc5a0f"/><path d="m65.1675 19.4912c2.0321 6.8354-.8886 15.0236-7.212 22.9289-1.3468-2.6975-2.2054-5.7517-5.0305-8.5408 6.5247-1.538 4.4866-9.9135 12.2425-14.3881z" fill="#af4614"/><path d="m65.1691 19.4912c2.0261 6.8155-.8706 14.9758-7.1562 22.8592-.1634-2.4246-.5718-4.4029-1.8867-7.22 3.873-2.6736 3.084-10.3916 8.7141-15.4439.1076-.0658.2172-.1315.3288-.1953z" fill="#dc5a0f"/><path d="m38.6547 49.8564c18.7531 0 7.603 3.4432 7.603 4.786s13.475-.1399 3.4361.3681c.2689.273-10.7269-1.4251.4908.4909 0 2.1716-1.8137 4.5405-11.5299 4.5405s-13.2588-1.9635-15.3449-3.0679c-.2589-.137-1.8643-.7068-1.5954-.9817-3.8042-2.0862-5.0313-2.9452-7.8538-3.927 1.3499-.7363 4.7859-.859 24.7941-2.2089z" fill="#f5cd6e"/><path d="m42.5223 27.8508c3.2354-2.1776 6.417-3.7654 10.8617-4.5185 4.4288-.7491 7.2997-3.6697 11.7842-3.843-7.7558 4.4746-5.7177 12.85-12.2424 14.388 4.5882 4.5304 3.9925 9.7601 8.7141 13.0234l-2.9106 2.3469 3.1338 2.7114c-2.3051.7451-4.628 1.8747-7.9392 3.9706-2.046 1.295-4.2415 2.315-6.6999 3.0322-1.8369.2809-3.8152.4264-5.9728.4264-6.8295 0-11.8798-1.4504-16.2488-4.116-3.3132-2.0202-5.6361-3.108-7.9412-3.8252l3.1338-2.6138-2.9106-2.2612c4.2176-3.3689 3.7155-8.5866 8.6683-13.131-9.015-1.7492-6.4251-10.9454-15.6253-13.9478 4.3989.2311 7.2538 3.094 11.6348 3.8351 4.4447.7531 7.6263 2.3389 10.8618 4.5185 2.7493-1.8688 6.9529-1.8688 9.6983.004z" fill="#ffa046"/><path d="m32.8095 41.7863c.8049 0 1.4623-.4602 1.4623-1.024s-.6574-1.024-1.4623-1.024c-.8069 0-1.4623.4602-1.4623 1.024-.002.5638.6554 1.024 1.4623 1.024z" fill="#ff5a1e"/></g><path d="m32.8101 41.834c-.8327 0-1.5081-.4801-1.5081-1.0698s.6774-1.0699 1.5081-1.0699c.8328 0 1.5102.4802 1.5102 1.0699-.002.5897-.6794 1.0698-1.5102 1.0698zm0-2.05c-.7809 0-1.4165.4403-1.4165.9802s.6356.9802 1.4165.9802c.781 0 1.4165-.4403 1.4165-.9802 0-.5419-.6355-.9802-1.4165-.9802z" fill="#000"/><path d="m32.8101 41.834c-.8327 0-1.5081-.4801-1.5081-1.0698s.6774-1.0699 1.5081-1.0699c.8328 0 1.5102.4802 1.5102 1.0699-.002.5897-.6794 1.0698-1.5102 1.0698zm0-2.05c-.7809 0-1.4165.4403-1.4165.9802s.6356.9802 1.4165.9802c.781 0 1.4165-.4403 1.4165-.9802 0-.5419-.6355-.9802-1.4165-.9802z" stroke="#1a2e35" stroke-miterlimit="10" stroke-width=".5211"/><path clip-rule="evenodd" d="m42.3747 41.7863c.8048 0 1.4623-.4602 1.4623-1.024s-.6575-1.024-1.4623-1.024c-.8069 0-1.4623.4602-1.4623 1.024-.002.5638.6554 1.024 1.4623 1.024z" fill="#ff5a1e" fill-rule="evenodd"/><path d="m42.3746 41.834c-.8328 0-1.5081-.4801-1.5081-1.0698s.6773-1.0699 1.5081-1.0699c.8328 0 1.5101.4802 1.5101 1.0699-.002.5897-.6793 1.0698-1.5101 1.0698zm0-2.05c-.781 0-1.4165.4403-1.4165.9802s.6355.9802 1.4165.9802 1.4165-.4403 1.4165-.9802c0-.5419-.6355-.9802-1.4165-.9802z" fill="#000"/><path d="m42.3746 41.834c-.8328 0-1.5081-.4801-1.5081-1.0698s.6773-1.0699 1.5081-1.0699c.8328 0 1.5101.4802 1.5101 1.0699-.002.5897-.6793 1.0698-1.5101 1.0698zm0-2.05c-.781 0-1.4165.4403-1.4165.9802s.6355.9802 1.4165.9802 1.4165-.4403 1.4165-.9802c0-.5419-.6355-.9802-1.4165-.9802z" stroke="#1a2e35" stroke-miterlimit="10" stroke-width=".5211"/><path clip-rule="evenodd" d="m61.8537 51.9639c-2.3011.7451-4.6221 1.8747-7.9312 3.9686-2.0461 1.295-4.2415 2.315-6.7 3.0322-1.8368.2809-3.8151.4263-5.9728.4263-6.8294 0-11.8798-1.4503-16.2488-4.116-3.3131-2.0201-5.6361-3.1079-7.9391-3.8251l.0876-.0737c5.7058-.8148 12.8182-1.4284 20.5242-1.4284 9.4692 0 18.028.9264 24.1801 2.0161z" fill="#fff0aa" fill-rule="evenodd"/><path clip-rule="evenodd" d="m37.6718 51.7848c-.769 0-2.1397-.7372-2.5222-1.6078s1.2192-1.2571 2.5222-1.2571c1.3029 0 2.9027.3865 2.5222 1.2571-.3825.8706-1.7532 1.6078-2.5222 1.6078z" fill="#231815" fill-rule="evenodd"/><path clip-rule="evenodd" d="m31.0325 53.1011c1.9424 1.7432 5.0364 1.3985 6.6422.4403 1.6057.9582 4.7017 1.3049 6.6421-.4403-.9702 2.2891-5.1938 2.1636-6.6421 1.3946-1.4484.769-5.672.8945-6.6422-1.3946z" fill="#d78737" fill-rule="evenodd"/><path d="m17.3928 42.5037-.0458-.0558c-6.6043-8.2559-9.17033-16.4142-7.2199-22.9707l.0159-.0558.0498.0299c3.879 2.2353 5.3194 5.4488 6.5904 8.2838 1.283 2.8608 2.3907 5.3312 5.6421 6.0983l.0797.0179-.0578.0578c-2.1516 2.1237-3.1498 4.3809-4.116 6.5644-.3028.6814-.5877 1.3269-.9065 1.9644zm-7.194-22.9448c-1.90458 6.5007.6415 14.5853 7.1761 22.7754.3048-.6156.5798-1.2372.8726-1.8966.9603-2.1716 1.9544-4.4148 4.0782-6.5346-3.2355-.7989-4.3451-3.2713-5.6262-6.1322-1.2611-2.8091-2.6875-5.9927-6.5007-8.212z" stroke="#1a2e35" stroke-miterlimit="10" stroke-width=".5211"/><path d="m37.6764 60.2484c-6.4908 0-11.6627-1.3607-16.2747-4.2794-3.1737-2.0102-5.5465-3.1956-7.9292-3.9666l-.0757-.0239 3.1537-2.7294-2.9146-2.3508.0498-.0339c2.4903-1.7213 3.5024-4.0064 4.5722-6.427.9603-2.1716 1.9544-4.4149 4.0781-6.5346-3.2354-.7989-4.3431-3.2713-5.6261-6.1322-1.2651-2.821-2.6995-6.0206-6.5505-8.2419l-.1594-.0917.1833.008c2.4624.0956 4.3989.9961 6.4469 1.9504 1.6436.765 3.343 1.556 5.3433 1.8946 3.9366.6674 7.0824 1.9724 10.8538 4.5065 2.7712-1.8707 6.927-1.8707 9.6963 0 3.7693-2.5341 6.9171-3.8411 10.8538-4.5065 2.0002-.3386 3.6996-1.1296 5.3432-1.8946 2.05-.9543 3.9845-1.8548 6.4469-1.9504l.1833-.008-.1574.0917c-3.851 2.2213-5.2854 5.4209-6.5505 8.2439-1.283 2.8589-2.3907 5.3333-5.6261 6.1302 2.1237 2.1197 3.1178 4.363 4.0781 6.5346 1.0699 2.4186 2.0819 4.7037 4.5722 6.427l.0498.0339-2.9146 2.3508 3.1537 2.7294-.0757.0239c-2.3847.771-4.7555 1.9564-7.9292 3.9666-4.612 2.9207-9.7839 4.2794-16.2747 4.2794zm-24.1003-8.3057c2.3668.773 4.7276 1.9584 7.8754 3.9506 4.5961 2.9087 9.7521 4.2654 16.2249 4.2654s11.6288-1.3547 16.2249-4.2654c3.1478-1.9922 5.5086-3.1776 7.8734-3.9506l-3.1159-2.6956.0419-.0338 2.8628-2.3091c-2.4763-1.7332-3.4864-4.0143-4.5542-6.431-.9663-2.1835-1.9644-4.4387-4.116-6.5644l-.0578-.0578.0797-.0179c3.2513-.7671 4.359-3.2375 5.642-6.0983 1.2532-2.7972 2.6716-5.9609 6.429-8.1922-2.3568.1315-4.2395 1.0061-6.2277 1.9325-1.6496.767-3.353 1.5599-5.3672 1.9006-3.9327.6654-7.0725 1.9723-10.8438 4.5105l-.0259.0179-.0259-.0179c-2.7493-1.8747-6.8952-1.8747-9.6445 0l-.0259.0179-.0259-.0179c-3.7714-2.5382-6.9112-3.8451-10.8439-4.5105-2.0122-.3407-3.7175-1.1336-5.3671-1.9006-1.9903-.9264-3.871-1.801-6.2278-1.9325 3.7574 2.2313 5.1759 5.397 6.429 8.1922 1.283 2.8608 2.3907 5.3312 5.6421 6.0983l.0797.0179-.0578.0578c-2.1516 2.1237-3.1498 4.3809-4.116 6.5644-1.0699 2.4147-2.0799 4.6978-4.5543 6.4291l2.9047 2.3428-.0398.0359z" stroke="#1a2e35" stroke-miterlimit="10" stroke-width=".5211"/><path clip-rule="evenodd" d="m23.6398 41.4997 11.8878 4.3112.0897.0319-.024.0897c-.5538 2.0639-1.5977 3.4187-2.8608 4.2076-1.4882.9284-3.2793 1.0659-4.9269.6435-.502-.1275-.9702-.2829-1.4045-.4642-1.5002-.6256-2.588-1.5639-3.1896-2.7732-.5997-1.2093-.7132-2.6876-.261-4.3989.1355-.51.3207-1.042.5578-1.5918l.0379-.0897z" fill="#231815" fill-rule="evenodd"/><path clip-rule="evenodd" d="m24.251 41.8315 11.2423 4.0762c-1.1874 4.4328-4.6619 5.5464-7.6623 4.7794-.761-.1952-1.4443-.4522-2.044-.769-1.1854-.6236-1.9385-1.5958-2.2473-2.8669-.3566-1.4623-.1494-3.2174.7113-5.2197z" fill="#fff" fill-rule="evenodd"/><path d="m29.5715 50.9599c-.6017 0-1.1954-.0797-1.7512-.2232-.7611-.1952-1.4524-.4542-2.056-.7729-1.1934-.6276-1.9584-1.6038-2.2732-2.9008-.3705-1.5181-.1295-3.2852.7152-5.2516l.02-.0458.0458.018 11.2861 4.092-.012.0459c-1.006 3.7534-3.5681 5.0384-5.9747 5.0384zm-5.2895-9.0628c-.8208 1.9285-1.0519 3.6578-.6913 5.144.3088 1.2671 1.0559 2.2214 2.2214 2.833.5957.3148 1.281.5718 2.0341.763 2.7214.6973 6.3373-.1175 7.5865-4.6977z" fill="#231815"/><path clip-rule="evenodd" d="m26.8716 42.7803 6.7677 2.4544v.01c-.1514 2.0361-1.9524 3.5641-4.0183 3.4147-1.0898-.0797-2.0381-.6096-2.6677-1.3906.7192-.0358 1.3149-.5957 1.3687-1.3188.0578-.785-.5419-1.4683-1.3388-1.5261-.2988-.0219-.5817.0478-.8228.1833.0657-.6854.3227-1.3089.7112-1.8269z" fill="#231815" fill-rule="evenodd"/><path d="m23.6393 41.2007 12.085 4.3829-.2689.7212-12.085-4.3829z" fill="#231815"/><path clip-rule="evenodd" d="m51.9845 41.5002-11.8878 4.3112-.0896.0319.0239.0896c.5518 2.064 1.5978 3.4188 2.8609 4.2077 1.4882.9284 3.2792 1.0659 4.9268.6435.5021-.1275.9702-.2829 1.4046-.4642 1.5001-.6256 2.5879-1.5639 3.1896-2.7732.6016-1.2093.7132-2.6876.2609-4.3989-.1354-.51-.3207-1.042-.5578-1.5918l-.0378-.0897z" fill="#231815" fill-rule="evenodd"/><path clip-rule="evenodd" d="m51.3744 41.8315-11.2423 4.0762c1.1874 4.4328 4.6619 5.5464 7.6622 4.7794.761-.1952 1.4444-.4522 2.044-.769 1.1854-.6236 1.9385-1.5958 2.2473-2.8669.3566-1.4623.1494-3.2174-.7112-5.2197z" fill="#fff" fill-rule="evenodd"/><path d="m46.0536 50.9599c-2.4066 0-4.9687-1.285-5.9748-5.0384l-.0119-.0459.0438-.0159 11.2881-4.0941.02.0458c.8447 1.9664 1.0857 3.7335.7152 5.2516-.3148 1.297-1.0798 2.2732-2.2732 2.9008-.6036.3187-1.2949.5777-2.056.7729-.5558.1415-1.1495.2232-1.7512.2232zm-5.8612-5.0205c1.2491 4.5802 4.8631 5.395 7.5865 4.6977.7531-.1932 1.4364-.4502 2.0341-.763 1.1655-.6136 1.9126-1.5659 2.2214-2.833.3606-1.4842.1295-3.2155-.6913-5.144z" fill="#231815"/><path clip-rule="evenodd" d="m48.755 42.7808-6.7677 2.4544v.01c.1514 2.0361 1.9524 3.5641 4.0184 3.4147 1.0897-.0797 2.0381-.6096 2.6676-1.3906-.7192-.0358-1.3149-.5957-1.3687-1.3189-.0577-.7849.5419-1.4683 1.3388-1.526.2989-.0219.5818.0478.8228.1833-.0657-.6854-.3227-1.309-.7112-1.8269z" fill="#231815" fill-rule="evenodd"/><path d="m51.9847 41.2007-12.085 4.3829.2689.7212 12.083-4.3829z" fill="#231815"/><g opacity=".8"><path clip-rule="evenodd" d="m21.7625 38.6883 10.5809 1.4125c2.048.273 3.4505 2.317 3.086 4.4986l-.6117 3.6677c-.3287 1.9683-1.9922 3.3729-3.853 3.2533l-9.6584-.6275c-1.799-.1176-3.2295-1.6257-3.363-3.5462l-.3107-4.4547c-.1714-2.4684 1.8328-4.5105 4.1299-4.2037z" fill="#ffc800" fill-rule="evenodd"/><path d="m21.7625 38.6883 10.5809 1.4125c2.048.273 3.4505 2.317 3.086 4.4986l-.6117 3.6677c-.3287 1.9683-1.9922 3.3729-3.853 3.2533l-9.6584-.6275c-1.799-.1176-3.2295-1.6257-3.363-3.5462l-.3107-4.4547c-.1714-2.4684 1.8328-4.5105 4.1299-4.2037z" stroke="#11192f" stroke-miterlimit="10" stroke-width=".6948"/><path clip-rule="evenodd" d="m53.1346 38.3759-10.4593 2.1356c-2.0242.4124-3.2833 2.5481-2.7693 4.6998l.8607 3.6179c.4622 1.9425 2.2194 3.2295 4.0682 2.9804l9.5927-1.287c1.787-.239 3.1099-1.8428 3.1119-3.7673l.004-4.4647c.002-2.4803-2.1377-4.3789-4.4089-3.9147z" fill="#ffc800" fill-rule="evenodd"/><path d="m53.1346 38.3759-10.4593 2.1356c-2.0242.4124-3.2833 2.5481-2.7693 4.6998l.8607 3.6179c.4622 1.9425 2.2194 3.2295 4.0682 2.9804l9.5927-1.287c1.787-.239 3.1099-1.8428 3.1119-3.7673l.004-4.4647c.002-2.4803-2.1377-4.3789-4.4089-3.9147z" stroke="#11192f" stroke-miterlimit="10" stroke-width=".6948"/></g><path clip-rule="evenodd" d="m18.0692 41.5718-.2849 3.4765h-1.7831l.2072-3.4765z" fill="#ffc800" fill-rule="evenodd"/><path d="m18.0692 41.5718-.2849 3.4765h-1.7831l.2072-3.4765z" stroke="#11192f" stroke-miterlimit="10" stroke-width=".6948"/><path clip-rule="evenodd" d="m57.3188 41.675 2.0162-.2849v4.0742h-1.7512z" fill="#ffc800" fill-rule="evenodd"/><path d="m57.3188 41.675 2.0162-.2849v4.0742h-1.7512z" stroke="#11192f" stroke-miterlimit="10" stroke-width=".6948"/><path clip-rule="evenodd" d="m32.0824 40.304-10.1406-1.3547c-1.9225-.257-3.6318 1.2033-3.9247 3.1537.5638-1.5539 2.068-2.6158 3.7315-2.3946l10.1406 1.3547c1.9623.263 3.3071 2.2214 2.9585 4.3112l-.5758 3.4566c.0797-.2231.1434-.4562.1833-.6993l.5857-3.5143c.3487-2.0939-.9941-4.0523-2.9585-4.3133z" fill="#fff" fill-rule="evenodd"/><path clip-rule="evenodd" d="m42.9352 40.7926 10.0828-1.7333c1.9105-.3287 3.6737 1.0659 4.0403 3.0044-.6216-1.5321-2.1636-2.5382-3.8172-2.2533l-10.0828 1.7333c-1.9524.3347-3.2215 2.3429-2.7931 4.4188l.7052 3.4327c-.0896-.2192-.1594-.4503-.2092-.6914l-.7172-3.4904c-.4283-2.0779.8408-4.0861 2.7912-4.4208z" fill="#fff" fill-rule="evenodd"/><g opacity=".8"><path clip-rule="evenodd" d="m39.7351 47.8337-4.2136-.1654c-.6236-.0239-1.1117-.5538-1.0878-1.1754s.5539-1.1117 1.1754-1.0878l4.2137.1654c.6215.0239 1.1116.5538 1.0877 1.1754-.0239.6236-.5518 1.1137-1.1754 1.0878z" fill="#ffc800" fill-rule="evenodd"/><path d="m39.7351 47.8337-4.2136-.1654c-.6236-.0239-1.1117-.5538-1.0878-1.1754s.5539-1.1117 1.1754-1.0878l4.2137.1654c.6215.0239 1.1116.5538 1.0877 1.1754-.0239.6236-.5518 1.1137-1.1754 1.0878z" stroke="#11192f" stroke-miterlimit="10" stroke-width=".6948"/></g></svg>