<svg width="12" height="12" viewBox="0 0 12 12" fill="none" xmlns="http://www.w3.org/2000/svg">
<path opacity="0.4" d="M5.91033 0.18172C5.94701 0.107395 6.05299 0.107395 6.08967 0.18172L7.74009 3.52582C7.75465 3.55534 7.78281 3.5758 7.81538 3.58053L11.5058 4.11678C11.5878 4.1287 11.6206 4.2295 11.5612 4.28735L8.89082 6.89037C8.86725 6.91335 8.85649 6.94645 8.86206 6.97889L9.49246 10.6544C9.50647 10.7361 9.42073 10.7984 9.34736 10.7598L6.04653 9.02448C6.0174 9.00917 5.9826 9.00917 5.95347 9.02448L2.65264 10.7598C2.57927 10.7984 2.49353 10.7361 2.50754 10.6544L3.13794 6.97889C3.14351 6.94645 3.13275 6.91335 3.10918 6.89037L0.438755 4.28735C0.379404 4.2295 0.412154 4.1287 0.494176 4.11678L4.18462 3.58053C4.21719 3.5758 4.24535 3.55534 4.25991 3.52582L5.91033 0.18172Z" fill="white"/>
<path d="M6 9.013C5.98402 9.013 5.96803 9.01683 5.95346 9.02449L2.65263 10.7598C2.57927 10.7984 2.49353 10.7361 2.50754 10.6544L3.13794 6.97889C3.14351 6.94645 3.13275 6.91335 3.10918 6.89038L0.438755 4.28735C0.379403 4.2295 0.412155 4.1287 0.494177 4.11678L4.18462 3.58053C4.21719 3.5758 4.24534 3.55534 4.25991 3.52583L5.91033 0.18172C5.92867 0.144558 5.96433 0.125977 6 0.125977V9.013Z" fill="white"/>
</svg>
