<?xml version="1.0" encoding="UTF-8"?>
<svg width="46px" height="17px" viewBox="0 0 46 17" version="1.1" xmlns="http://www.w3.org/2000/svg" xmlns:xlink="http://www.w3.org/1999/xlink">
    <title>carnival</title>
    <defs>
        <linearGradient x1="36.760593%" y1="38.7519058%" x2="43.5942051%" y2="51.0605931%" id="linearGradient-1">
            <stop stop-color="#B82CFF" offset="0%"></stop>
            <stop stop-color="#6458FF" offset="100%"></stop>
        </linearGradient>
        <path d="M9.44,13.084 C9.75733333,13.084 10.0536667,13.021 10.329,12.895 C10.6043333,12.769 10.8446667,12.5986667 11.05,12.384 C11.2553333,12.1693333 11.4163333,11.9243333 11.533,11.649 C11.6496667,11.3736667 11.708,11.082 11.708,10.774 L11.708,10.774 L11.708,10.158 L10.28,10.158 L10.28,10.648 C10.28,10.844 10.252,11.0073333 10.196,11.138 C10.14,11.2686667 10.07,11.3713333 9.986,11.446 C9.89266667,11.5206667 9.79233333,11.5743333 9.685,11.607 C9.57766667,11.6396667 9.47733333,11.656 9.384,11.656 C9.05733333,11.656 8.831,11.558 8.705,11.362 C8.579,11.166 8.516,10.9233333 8.516,10.634 L8.516,10.634 L8.516,5.538 C8.516,5.202 8.57433333,4.92433333 8.691,4.705 C8.80766667,4.48566667 9.04333333,4.376 9.398,4.376 C9.66866667,4.376 9.88333333,4.47866667 10.042,4.684 C10.2006667,4.88933333 10.28,5.132 10.28,5.412 L10.28,5.412 L10.28,5.888 L11.708,5.888 L11.708,5.328 C11.708,4.98266667 11.6496667,4.663 11.533,4.369 C11.4163333,4.075 11.2553333,3.82066667 11.05,3.606 C10.63,3.16733333 10.084,2.948 9.412,2.948 C9.06666667,2.948 8.75166667,3.00633333 8.467,3.123 C8.18233333,3.23966667 7.93733333,3.40066667 7.732,3.606 C7.52666667,3.81133333 7.368,4.054 7.256,4.334 C7.144,4.614 7.088,4.91733333 7.088,5.244 L7.088,5.244 L7.088,10.732 C7.088,11.1893333 7.16033333,11.565 7.305,11.859 C7.44966667,12.153 7.634,12.3933333 7.858,12.58 C8.082,12.7666667 8.334,12.8973333 8.614,12.972 C8.894,13.0466667 9.16933333,13.084 9.44,13.084 Z M14.088,13.084 C14.4333333,13.084 14.7016667,13.014 14.893,12.874 C15.0843333,12.734 15.2733333,12.5333333 15.46,12.272 L15.46,12.272 L15.488,12.272 L15.488,13 L16.916,13 L16.916,8.058 C16.916,7.68466667 16.86,7.358 16.748,7.078 C16.636,6.798 16.4866667,6.56466667 16.3,6.378 C16.104,6.19133333 15.8753333,6.05133333 15.614,5.958 C15.3526667,5.86466667 15.0726667,5.818 14.774,5.818 C14.4473333,5.818 14.1533333,5.87166667 13.892,5.979 C13.6306667,6.08633333 13.4066667,6.23333333 13.22,6.42 C12.828,6.812 12.6133333,7.32533333 12.576,7.96 L12.576,7.96 L13.962,7.96 C14.0086667,7.72666667 14.109,7.54933333 14.263,7.428 C14.417,7.30666667 14.5873333,7.246 14.774,7.246 C15.0446667,7.246 15.2313333,7.32533333 15.334,7.484 C15.4366667,7.64266667 15.488,7.84333333 15.488,8.086 L15.488,8.086 L15.488,8.828 C15.4133333,8.81866667 15.3433333,8.814 15.278,8.814 C15.2126667,8.814 15.1566667,8.80933333 15.11,8.8 C15.0633333,8.79066667 15.012,8.786 14.956,8.786 L14.956,8.786 L14.802,8.786 C14.354,8.786 13.9853333,8.835 13.696,8.933 C13.4066667,9.031 13.178,9.178 13.01,9.374 C12.8326667,9.57933333 12.7113333,9.83366667 12.646,10.137 C12.5806667,10.4403333 12.548,10.7926667 12.548,11.194 C12.548,11.586 12.597,11.9056667 12.695,12.153 C12.793,12.4003333 12.9213333,12.5893333 13.08,12.72 C13.2386667,12.86 13.4043333,12.9556667 13.577,13.007 C13.7496667,13.0583333 13.92,13.084 14.088,13.084 Z M14.718,11.824 C14.4846667,11.824 14.3026667,11.74 14.172,11.572 C14.0413333,11.404 13.976,11.1846667 13.976,10.914 C13.976,10.5313333 14.0856667,10.2676667 14.305,10.123 C14.5243333,9.97833333 14.788,9.906 15.096,9.906 C15.1986667,9.906 15.3293333,9.92 15.488,9.948 L15.488,9.948 L15.488,10.914 C15.488,11.2033333 15.4203333,11.4273333 15.285,11.586 C15.1496667,11.7446667 14.9606667,11.824 14.718,11.824 Z M19.394,13 L19.394,8.786 C19.394,8.49666667 19.4406667,8.254 19.534,8.058 C19.6273333,7.862 19.7486667,7.70333333 19.898,7.582 C20.038,7.46066667 20.1943333,7.37433333 20.367,7.323 C20.5396667,7.27166667 20.7006667,7.246 20.85,7.246 C20.9993333,7.246 21.144,7.274 21.284,7.33 L21.284,7.33 L21.284,5.818 C20.8733333,5.818 20.528,5.89266667 20.248,6.042 C19.968,6.19133333 19.6833333,6.39666667 19.394,6.658 L19.394,6.658 L19.394,5.902 L17.966,5.902 L17.966,13 L19.394,13 Z M23.286,13 L23.286,8.226 C23.286,7.90866667 23.3373333,7.666 23.44,7.498 C23.5426667,7.33 23.7293333,7.246 24,7.246 C24.224,7.246 24.3966667,7.32066667 24.518,7.47 C24.6393333,7.61933333 24.7,7.82466667 24.7,8.086 L24.7,8.086 L24.7,13 L26.128,13 L26.128,7.554 C26.128,7.23666667 26.086,6.96833333 26.002,6.749 C25.918,6.52966667 25.806,6.35 25.666,6.21 C25.526,6.07 25.3673333,5.96966667 25.19,5.909 C25.0126667,5.84833333 24.8353333,5.818 24.658,5.818 C24.3313333,5.818 24.063,5.89033333 23.853,6.035 C23.643,6.17966667 23.4633333,6.364 23.314,6.588 L23.314,6.588 L23.286,6.588 L23.286,5.902 L21.858,5.902 L21.858,13 L23.286,13 Z M28.732,4.46 L28.732,3.032 L27.304,3.032 L27.304,4.46 L28.732,4.46 Z M28.732,13 L28.732,5.902 L27.304,5.902 L27.304,13 L28.732,13 Z M32.414,13 L34.262,5.902 L32.75,5.902 L31.798,10.438 L31.77,10.438 L30.818,5.902 L29.306,5.902 L31.154,13 L32.414,13 Z M36.054,13.084 C36.3993333,13.084 36.6676667,13.014 36.859,12.874 C37.0503333,12.734 37.2393333,12.5333333 37.426,12.272 L37.426,12.272 L37.454,12.272 L37.454,13 L38.882,13 L38.882,8.058 C38.882,7.68466667 38.826,7.358 38.714,7.078 C38.602,6.798 38.4526667,6.56466667 38.266,6.378 C38.07,6.19133333 37.8413333,6.05133333 37.58,5.958 C37.3186667,5.86466667 37.0386667,5.818 36.74,5.818 C36.4133333,5.818 36.1193333,5.87166667 35.858,5.979 C35.5966667,6.08633333 35.3726667,6.23333333 35.186,6.42 C34.794,6.812 34.5793333,7.32533333 34.542,7.96 L34.542,7.96 L35.928,7.96 C35.9746667,7.72666667 36.075,7.54933333 36.229,7.428 C36.383,7.30666667 36.5533333,7.246 36.74,7.246 C37.0106667,7.246 37.1973333,7.32533333 37.3,7.484 C37.4026667,7.64266667 37.454,7.84333333 37.454,8.086 L37.454,8.086 L37.454,8.828 C37.3793333,8.81866667 37.3093333,8.814 37.244,8.814 C37.1786667,8.814 37.1226667,8.80933333 37.076,8.8 C37.0293333,8.79066667 36.978,8.786 36.922,8.786 L36.922,8.786 L36.768,8.786 C36.32,8.786 35.9513333,8.835 35.662,8.933 C35.3726667,9.031 35.144,9.178 34.976,9.374 C34.7986667,9.57933333 34.6773333,9.83366667 34.612,10.137 C34.5466667,10.4403333 34.514,10.7926667 34.514,11.194 C34.514,11.586 34.563,11.9056667 34.661,12.153 C34.759,12.4003333 34.8873333,12.5893333 35.046,12.72 C35.2046667,12.86 35.3703333,12.9556667 35.543,13.007 C35.7156667,13.0583333 35.886,13.084 36.054,13.084 Z M36.684,11.824 C36.4506667,11.824 36.2686667,11.74 36.138,11.572 C36.0073333,11.404 35.942,11.1846667 35.942,10.914 C35.942,10.5313333 36.0516667,10.2676667 36.271,10.123 C36.4903333,9.97833333 36.754,9.906 37.062,9.906 C37.1646667,9.906 37.2953333,9.92 37.454,9.948 L37.454,9.948 L37.454,10.914 C37.454,11.2033333 37.3863333,11.4273333 37.251,11.586 C37.1156667,11.7446667 36.9266667,11.824 36.684,11.824 Z M41.976,13.084 L41.976,11.74 C41.7053333,11.712 41.521,11.649 41.423,11.551 C41.325,11.453 41.276,11.2686667 41.276,10.998 L41.276,10.998 L41.276,3.032 L39.848,3.032 L39.848,11.096 C39.848,11.516 39.897,11.8543333 39.995,12.111 C40.093,12.3676667 40.2353333,12.566 40.422,12.706 C40.6086667,12.8553333 40.8326667,12.9556667 41.094,13.007 C41.3553333,13.0583333 41.6493333,13.084 41.976,13.084 L41.976,13.084 Z" id="path-2"></path>
        <filter x="-8.6%" y="-29.6%" width="118.0%" height="159.2%" filterUnits="objectBoundingBox" id="filter-3">
            <feMorphology radius="0.5" operator="dilate" in="SourceAlpha" result="shadowSpreadOuter1"></feMorphology>
            <feOffset dx="0" dy="0" in="shadowSpreadOuter1" result="shadowOffsetOuter1"></feOffset>
            <feGaussianBlur stdDeviation="0.5" in="shadowOffsetOuter1" result="shadowBlurOuter1"></feGaussianBlur>
            <feColorMatrix values="0 0 0 0 0   0 0 0 0 0.577469406   0 0 0 0 1  0 0 0 0.712139423 0" type="matrix" in="shadowBlurOuter1"></feColorMatrix>
        </filter>
    </defs>
    <g id="页面" stroke="none" stroke-width="1" fill="none" fill-rule="evenodd">
        <g id="入口" transform="translate(-752.000000, -1069.000000)">
            <g id="carnival" transform="translate(752.000000, 1069.000000)">
                <path d="M4.58822073,0 L44,0 C45.1045695,-2.02906125e-16 46,0.8954305 46,2 L46,15 C46,16.1045695 45.1045695,17 44,17 L4.58822073,17 C3.48365124,17 2.58822073,16.1045695 2.58822073,15 L2.58822073,10.5082395 L2.58822073,10.5082395 L0,8.5 L2.58822073,6.49750554 L2.58822073,2 C2.58822073,0.8954305 3.48365124,-2.31216825e-15 4.58822073,0 Z" id="矩形" fill="url(#linearGradient-1)"></path>
                <g id="Carnival" fill-rule="nonzero">
                    <use fill="black" fill-opacity="1" filter="url(#filter-3)" xlink:href="#path-2"></use>
                    <use fill="#FFFFFF" xlink:href="#path-2"></use>
                </g>
            </g>
        </g>
    </g>
</svg>