<svg width="44" height="17" viewBox="0 0 44 17" fill="none" xmlns="http://www.w3.org/2000/svg">
<g clip-path="url(#clip0_2767_32620)">
<path fill-rule="evenodd" clip-rule="evenodd" d="M41.9744 2C41.9744 0.895428 41.079 0 39.9744 0H2C0.8954 0 0 0.895431 0 2V15C0 16.1046 0.8954 17 2 17H39.9744C41.079 17 41.9744 16.1046 41.9744 15V10.5082L44 8.5L41.9744 6.49751V2Z" fill="url(#paint0_linear_2767_32620)"/>
<path d="M8.536 12.5C9.34 12.5 9.928 12.344 10.3 12.044C10.816 11.648 11.068 11.012 11.068 10.148C11.068 9.56 10.96 9.08 10.732 8.708C10.624 8.504 10.408 8.3 10.108 8.096L9.988 8.024C10.6 7.628 10.912 7.016 10.912 6.188C10.912 5.432 10.684 4.856 10.24 4.448C9.844 4.1 9.22 3.932 8.38 3.932H5.152V12.5H8.536ZM6.424 4.964H8.284C9.184 4.964 9.64 5.396 9.64 6.272C9.64 6.752 9.508 7.1 9.256 7.316C9.04 7.496 8.716 7.592 8.284 7.592H6.424V4.964ZM6.424 8.624H8.452C9.352 8.624 9.796 9.104 9.796 10.052C9.796 11 9.352 11.468 8.452 11.468H6.424V8.624ZM12.4323 9.92C12.4323 11.792 13.2243 12.62 15.0123 12.62C16.7883 12.62 17.5803 11.792 17.5803 9.92V8.984C17.5803 7.112 16.7883 6.284 15.0123 6.284C13.2243 6.284 12.4323 7.112 12.4323 8.984V9.92ZM16.3563 9.836C16.3563 11.084 15.9483 11.636 15.0003 11.636C14.0763 11.636 13.6563 11.084 13.6563 9.836V9.068C13.6563 7.82 14.0763 7.268 15.0003 7.268C15.9483 7.268 16.3563 7.82 16.3563 9.068V9.836ZM20.5398 12.5V9.38C20.5398 7.892 20.8878 7.328 21.8118 7.328C22.6758 7.328 23.0118 7.844 23.0118 9.14V12.5H24.2358V9.008C24.2358 8.324 24.1758 7.808 24.0558 7.46C23.7678 6.68 23.0838 6.284 22.0158 6.284C21.2598 6.284 20.7078 6.524 20.3478 7.016L20.2518 6.404H19.3158V12.5H20.5398ZM26.0881 9.896C26.0881 10.592 26.1481 11.108 26.2681 11.444C26.5441 12.224 27.2041 12.62 28.2481 12.62C29.0041 12.62 29.5441 12.368 29.8561 11.876L29.9881 12.5H30.8761V6.404H29.6521V9.524C29.6521 11.012 29.3161 11.576 28.4521 11.576C27.6361 11.576 27.3121 11.06 27.3121 9.776V6.404H26.0881V9.896ZM32.1438 11.576C32.5638 12.272 33.3798 12.62 34.5918 12.62C36.2598 12.62 37.0878 12.008 37.0878 10.772C37.0878 10.1 36.9078 9.632 36.5358 9.38C36.2238 9.152 35.6598 8.996 34.8318 8.9C34.4358 8.852 34.1478 8.78 33.9678 8.696C33.7398 8.564 33.6318 8.372 33.6318 8.096C33.6318 7.532 33.9798 7.256 34.6758 7.256C35.2638 7.256 35.5998 7.412 35.9718 7.88L36.8718 7.352C36.4038 6.644 35.6478 6.284 34.5798 6.284C33.2238 6.284 32.4678 6.944 32.4678 8.156C32.4678 8.696 32.6357 9.116 32.9718 9.392C33.2478 9.62 33.7518 9.788 34.4958 9.884C35.0358 9.956 35.3958 10.028 35.5518 10.1C35.8038 10.208 35.9238 10.424 35.9238 10.748C35.9238 11.348 35.4678 11.648 34.5438 11.648C33.7758 11.648 33.4518 11.504 33.0318 11.024L32.1438 11.576Z" fill="white"/>
</g>
<defs>
<linearGradient id="paint0_linear_2767_32620" x1="27" y1="-6" x2="18.5" y2="21.5" gradientUnits="userSpaceOnUse">
<stop offset="0.0364583" stop-color="#F7D378"/>
<stop offset="1" stop-color="#AC8D4E"/>
</linearGradient>
<clipPath id="clip0_2767_32620">
<rect width="44" height="17" fill="white"/>
</clipPath>
</defs>
</svg>
