<svg width="44" height="17" viewBox="0 0 44 17" fill="none" xmlns="http://www.w3.org/2000/svg">
<g id="bonus light">
<path id="&#231;&#159;&#169;&#229;&#189;&#162;" fill-rule="evenodd" clip-rule="evenodd" d="M2.02556 2C2.02556 0.895428 2.92099 0 4.02556 0H42C43.1046 0 44 0.895431 44 2V15C44 16.1046 43.1046 17 42 17H4.02556C2.92099 17 2.02556 16.1046 2.02556 15V10.5082L0 8.5L2.02556 6.49751V2Z" fill="url(#paint0_linear_10_9)"/>
<path id="100X" d="M10.536 13C11.34 13 11.928 12.844 12.3 12.544C12.816 12.148 13.068 11.512 13.068 10.648C13.068 10.06 12.96 9.58 12.732 9.208C12.624 9.004 12.408 8.8 12.108 8.596L11.988 8.524C12.6 8.128 12.912 7.516 12.912 6.688C12.912 5.932 12.684 5.356 12.24 4.948C11.844 4.6 11.22 4.432 10.38 4.432H7.152V13H10.536ZM8.424 5.464H10.284C11.184 5.464 11.64 5.896 11.64 6.772C11.64 7.252 11.508 7.6 11.256 7.816C11.04 7.996 10.716 8.092 10.284 8.092H8.424V5.464ZM8.424 9.124H10.452C11.352 9.124 11.796 9.604 11.796 10.552C11.796 11.5 11.352 11.968 10.452 11.968H8.424V9.124ZM14.4323 10.42C14.4323 12.292 15.2243 13.12 17.0123 13.12C18.7883 13.12 19.5803 12.292 19.5803 10.42V9.484C19.5803 7.612 18.7883 6.784 17.0123 6.784C15.2243 6.784 14.4323 7.612 14.4323 9.484V10.42ZM18.3563 10.336C18.3563 11.584 17.9483 12.136 17.0003 12.136C16.0763 12.136 15.6563 11.584 15.6563 10.336V9.568C15.6563 8.32 16.0763 7.768 17.0003 7.768C17.9483 7.768 18.3563 8.32 18.3563 9.568V10.336ZM22.5398 13V9.88C22.5398 8.392 22.8878 7.828 23.8118 7.828C24.6758 7.828 25.0118 8.344 25.0118 9.64V13H26.2358V9.508C26.2358 8.824 26.1758 8.308 26.0558 7.96C25.7678 7.18 25.0838 6.784 24.0158 6.784C23.2598 6.784 22.7078 7.024 22.3478 7.516L22.2518 6.904H21.3158V13H22.5398ZM28.0881 10.396C28.0881 11.092 28.1481 11.608 28.2681 11.944C28.5441 12.724 29.2041 13.12 30.2481 13.12C31.0041 13.12 31.5441 12.868 31.8561 12.376L31.9881 13H32.8761V6.904H31.6521V10.024C31.6521 11.512 31.3161 12.076 30.4521 12.076C29.6361 12.076 29.3121 11.56 29.3121 10.276V6.904H28.0881V10.396ZM34.1438 12.076C34.5638 12.772 35.3798 13.12 36.5918 13.12C38.2598 13.12 39.0878 12.508 39.0878 11.272C39.0878 10.6 38.9078 10.132 38.5358 9.88C38.2238 9.652 37.6598 9.496 36.8318 9.4C36.4358 9.352 36.1478 9.28 35.9678 9.196C35.7398 9.064 35.6318 8.872 35.6318 8.596C35.6318 8.032 35.9798 7.756 36.6758 7.756C37.2638 7.756 37.5998 7.912 37.9718 8.38L38.8718 7.852C38.4038 7.144 37.6478 6.784 36.5798 6.784C35.2238 6.784 34.4678 7.444 34.4678 8.656C34.4678 9.196 34.6357 9.616 34.9718 9.892C35.2478 10.12 35.7518 10.288 36.4958 10.384C37.0358 10.456 37.3958 10.528 37.5518 10.6C37.8038 10.708 37.9238 10.924 37.9238 11.248C37.9238 11.848 37.4678 12.148 36.5438 12.148C35.7758 12.148 35.4518 12.004 35.0318 11.524L34.1438 12.076Z" fill="white"/>
</g>
<defs>
<linearGradient id="paint0_linear_10_9" x1="17" y1="-6" x2="25.5" y2="21.5" gradientUnits="userSpaceOnUse">
<stop stop-color="#FDD97C"/>
<stop offset="1" stop-color="#AB8C4E"/>
</linearGradient>
</defs>
</svg>
