<svg width="112" height="117" viewBox="0 0 112 117" fill="none" xmlns="http://www.w3.org/2000/svg">
<g id="Group 1000005161">
<g id="Group">
<g id="&#229;&#186;&#149;&#229;&#186;&#167;">
<path id="Vector" d="M7.15338 102.838V97.6904C7.15338 99.6601 8.73132 101.662 12.0613 103.545C23.6946 110.162 52.3695 112.926 76.104 109.737C93.0478 107.463 102.896 102.751 102.907 97.8428V102.99C102.885 107.898 93.0478 112.599 76.0931 114.885C52.3587 118.073 23.6837 115.298 12.0504 108.692C8.72043 106.799 7.14249 104.797 7.15338 102.838Z" fill="#D5DFE2" stroke="black" stroke-width="0.35" stroke-linecap="round" stroke-linejoin="round"/>
<path id="Vector_2" d="M94.3427 89.7898C83.6998 83.7392 57.4842 81.2036 35.7739 84.131C14.0745 87.0475 5.10744 94.3169 15.7504 100.367C26.3933 106.418 52.6089 108.954 74.3192 106.026C96.0186 103.11 104.986 95.8404 94.3427 89.7898Z" fill="white"/>
<path id="Vector_3" d="M41.8354 106.647L43.2719 105.134C43.4787 104.917 43.3372 104.558 43.0434 104.525C34.4246 103.665 26.9375 101.913 22.5954 99.4429C22.4431 99.3558 22.3016 99.2688 22.1601 99.1817C21.6051 98.8443 20.9522 98.7355 20.3101 98.8444L14.8254 99.8129" stroke="#D5DFE2" stroke-width="0.35" stroke-linecap="round" stroke-linejoin="round"/>
<path id="Vector_4" d="M11.7127 92.0311L15.4236 89.8438C9.98238 93.054 9.65591 96.9064 15.7391 100.367C26.3821 106.418 52.5977 108.953 74.308 106.026C95.768 103.142 104.768 96.0032 94.6906 89.9961C95.9203 90.7361 97.1609 91.4652 98.3906 92.2052C109.414 98.7673 99.5659 106.57 76.1036 109.726C52.3691 112.914 23.6941 110.139 12.0609 103.534C5.41179 99.7576 5.76003 95.5461 11.7127 92.0311Z" fill="white" stroke="#91A5AA" stroke-width="0.35" stroke-linecap="round" stroke-linejoin="round"/>
<path id="Vector_5" d="M102.907 101.01V100.444C102.885 102.37 101.351 104.253 98.4781 105.972C98.2387 106.114 98.032 106.32 97.8905 106.56C97.5967 107.071 97.3246 107.528 97.0308 108.029C96.8675 108.312 96.6172 108.54 96.3234 108.682C91.6005 110.913 84.4617 112.785 75.3205 113.96C75.0702 113.992 74.8199 113.916 74.6349 113.753L73.797 113.013C73.514 112.763 73.144 112.643 72.774 112.687C60.9993 113.971 48.2996 113.873 37.2105 112.621C36.9058 112.589 36.6011 112.687 36.3617 112.893L35.5455 113.622C35.3061 113.84 34.9796 113.938 34.664 113.895C26.1214 112.763 18.7105 110.935 13.6828 108.519C13.4325 108.399 13.2367 108.214 13.1061 107.975C12.8122 107.474 12.4749 106.875 12.2355 106.484C12.1702 106.364 12.0614 106.19 11.909 106.048C11.7131 105.874 11.4737 105.744 11.4193 105.711C9.72166 104.666 8.55725 103.589 7.87166 102.512C7.57784 102.033 7.37107 101.565 7.26225 101.086C7.19695 100.803 7.16431 100.52 7.16431 100.248V103.513C7.16431 103.73 7.19695 103.992 7.25137 104.209C7.25137 104.22 7.25137 104.242 7.26225 104.253C7.31666 104.481 7.38195 104.71 7.4799 104.938C7.4799 104.938 7.49078 104.96 7.49078 104.971C7.58872 105.2 7.70842 105.439 7.8499 105.667C7.8499 105.678 7.87166 105.7 7.88254 105.711C8.02401 105.94 8.18725 106.168 8.38313 106.397C8.41578 106.429 8.44842 106.462 8.48107 106.495C8.66607 106.701 8.85107 106.908 9.06872 107.115C9.13401 107.18 9.21019 107.235 9.28637 107.3C9.48225 107.474 9.67813 107.659 9.90666 107.833C10.0481 107.942 10.2114 108.051 10.3637 108.16C10.5378 108.29 10.7011 108.421 10.897 108.54C11.2561 108.78 11.637 109.008 12.0505 109.248C17.1217 112.132 25.4358 114.275 35.1537 115.527C36.6664 115.723 38.2117 115.897 39.7896 116.038C39.8331 116.038 39.8767 116.038 39.9202 116.049C41.4437 116.191 42.989 116.31 44.5561 116.419C44.654 116.419 44.752 116.43 44.839 116.441C46.3734 116.539 47.9296 116.615 49.4967 116.67C49.5946 116.67 49.6817 116.67 49.7796 116.67C51.3902 116.724 53.0117 116.757 54.6331 116.757C54.6658 116.757 54.6984 116.757 54.7311 116.757C61.9025 116.778 69.2046 116.365 76.0822 115.44C85.1364 114.221 92.1664 112.317 96.7478 110.053C97.7272 109.563 98.5978 109.063 99.3487 108.551C99.3705 108.54 99.3814 108.53 99.4031 108.519C99.7514 108.279 100.078 108.029 100.383 107.779C100.415 107.757 100.448 107.724 100.47 107.702C100.753 107.463 101.014 107.213 101.253 106.973C101.286 106.941 101.318 106.908 101.34 106.875C101.569 106.636 101.765 106.386 101.95 106.146C101.971 106.114 101.993 106.081 102.026 106.037C102.2 105.787 102.341 105.537 102.461 105.297C102.472 105.265 102.494 105.232 102.505 105.2C102.624 104.949 102.711 104.688 102.777 104.427C102.777 104.405 102.777 104.383 102.788 104.362C102.842 104.09 102.885 103.828 102.885 103.556V102.664V101.01H102.907Z" fill="#2E4247" stroke="black" stroke-width="0.35" stroke-linecap="round" stroke-linejoin="round"/>
<path id="Vector_6" d="M98.4015 92.2057C97.1718 91.4657 95.9312 90.7366 94.7015 89.9966C94.8103 90.0619 94.8974 90.1272 94.9953 90.1816C94.7885 90.051 94.5709 89.9204 94.3424 89.7898C83.6994 83.7392 57.4839 81.2036 35.7736 84.131C26.3821 85.3933 19.3847 87.4719 15.3147 89.9095C15.3474 89.8878 15.38 89.866 15.4236 89.8442L11.7127 92.0316C5.76003 95.5466 5.41179 99.758 12.0609 103.534C23.6941 110.151 52.3691 112.915 76.1036 109.726C99.5659 106.57 109.414 98.7678 98.3906 92.2057H98.4015Z" stroke="black" stroke-width="0.35" stroke-linecap="round" stroke-linejoin="round"/>
<path id="Vector_7" d="M92.1554 90.0833C91.6548 89.8004 91.0998 89.5174 90.523 89.2454C90.4142 89.191 90.2836 89.1692 90.153 89.191L87.1277 89.5392C86.9645 89.561 86.8448 89.7786 87.0189 89.8657C87.5195 90.0942 87.9875 90.3445 88.4228 90.5839C92.3622 92.8257 93.1348 95.2524 91.2413 97.4942C91.0454 97.7336 91.176 98.0927 91.4807 98.1363L94.1795 98.5063C94.3863 98.5389 94.593 98.4627 94.7454 98.3212C97.4878 95.6877 96.8457 92.7604 92.1445 90.0942L92.1554 90.0833Z" fill="#D5DFE2"/>
<path id="Vector_8" d="M38.0807 85.5894C37.6998 85.4153 36.5681 84.9147 36.5681 84.9147C36.4266 84.8494 36.2743 84.8385 36.1328 84.8494C21.9857 86.8517 13.7804 90.8347 13.7587 94.9917C13.7587 95.3073 14.009 95.5685 14.3245 95.5467L17.2737 95.3726C17.5348 95.3617 17.7634 95.155 17.7743 94.8938C17.9266 91.172 25.294 87.6244 37.9501 85.8397C38.1351 85.8179 38.3419 85.6982 38.0807 85.5785V85.5894Z" fill="#D5DFE2"/>
<path id="Vector_9" d="M82.5355 91.5095C79.1075 89.5615 73.3508 88.1359 66.669 87.3633L55.3187 93.2289L68.1164 102.305C68.5843 102.642 69.172 102.784 69.7487 102.697C84.0481 100.553 89.7831 95.6339 82.5464 91.5203L82.5355 91.5095Z" stroke="#D5DFE2" stroke-width="0.35" stroke-linecap="round" stroke-linejoin="round"/>
<path id="Vector_10" d="M33.2928 90.3119C34.6204 89.8657 35.1319 89.7133 36.0569 89.4521C34.6096 89.9854 32.9881 90.4207 31.9869 91.6504C31.3013 92.4883 31.2143 93.5004 31.8563 94.3927C32.3569 95.0783 33.086 95.5789 33.8152 95.9924C39.561 99.2572 53.719 100.628 65.4502 99.0504C77.1704 97.4725 82.0131 93.5439 76.2672 90.2792C76.2672 90.2792 78.7375 91.2151 79.5428 91.6069C81.5778 92.5645 82.4702 93.8595 82.4157 95.013C82.296 97.788 76.6807 100.443 67.0825 101.727C53.5013 103.556 37.1016 101.967 30.4416 98.1798C29.3643 97.5704 28.091 96.6998 27.7319 95.4374C27.4272 94.3819 27.9604 93.3807 28.744 92.706C29.6581 91.9116 31.704 90.8451 33.2819 90.3119H33.2928Z" fill="#2E4247" stroke="black" stroke-width="0.35" stroke-linecap="round" stroke-linejoin="round"/>
<path id="Vector_11" d="M78.5307 91.3131C84.8969 94.926 79.5319 99.2681 66.5601 101.02C53.5883 102.761 37.9177 101.249 31.5516 97.6357C25.1854 94.0228 30.5504 89.6807 43.5221 87.9287C56.4939 86.1875 72.1645 87.7002 78.5307 91.3131Z" fill="white" stroke="black" stroke-width="0.35" stroke-linecap="round" stroke-linejoin="round"/>
<path id="Vector_12" d="M78.5307 91.3131C84.8969 94.926 79.5319 99.2681 66.5601 101.02C53.5883 102.761 37.9177 101.249 31.5516 97.6357C25.1854 94.0228 30.5504 89.6807 43.5221 87.9287C56.4939 86.1875 72.1645 87.7002 78.5307 91.3131Z" fill="#D5DFE2" stroke="black" stroke-width="0.35" stroke-linecap="round" stroke-linejoin="round"/>
<path id="Vector_13" d="M80.0325 92.5861C80.0325 92.5861 79.9563 92.5099 79.9128 92.4664L56.4396 96.5255L77.214 90.8123C77.1378 90.7796 77.0725 90.747 76.9963 90.7143L56.2328 96.4276L72.9372 89.3541C72.8393 89.3323 72.7413 89.2996 72.6325 89.2779L55.9498 96.3405L67.6048 88.2658C67.4851 88.2441 67.3545 88.2332 67.2348 88.2114L55.5907 96.2752L61.576 87.5911C61.4454 87.5911 61.3148 87.5693 61.1843 87.5585L55.199 96.2426V87.3408C55.0575 87.3408 54.9269 87.3408 54.7854 87.3408V96.2317L48.7893 87.5258C48.6587 87.5258 48.5172 87.5476 48.3866 87.5476L54.3828 96.2535L42.706 88.157C42.5863 88.1788 42.4557 88.1896 42.336 88.2114L54.0237 96.3079L37.2757 89.2235C37.1778 89.2452 37.069 89.2779 36.971 89.2996L53.7298 96.3949L32.9446 90.6817C32.8684 90.7143 32.7922 90.747 32.7269 90.7796L53.534 96.5038L30.0934 92.4555C30.0934 92.4555 30.0172 92.5317 29.9846 92.5752L53.436 96.6235L29.0704 94.4143C29.0704 94.4143 29.0704 94.4905 29.0704 94.5341L53.436 96.7432L30.0498 96.4058C30.0498 96.4058 30.126 96.482 30.1696 96.5255L53.534 96.8629L32.9337 98.2232C33.0098 98.2558 33.0969 98.2885 33.1731 98.3211L53.7407 96.9608L37.3519 99.7032C37.4607 99.7249 37.5587 99.7576 37.6675 99.7902L54.0454 97.0479L42.7495 100.781C42.8693 100.802 42.9998 100.813 43.1304 100.835L54.4046 97.1023L48.6696 101.423C48.8001 101.423 48.9307 101.444 49.0613 101.455L54.8072 97.1241V101.651C54.9487 101.651 55.0793 101.651 55.2207 101.651V97.1241L60.9884 101.477C61.119 101.477 61.2604 101.466 61.391 101.455L55.6125 97.1023L67.0172 100.878C67.1478 100.857 67.2675 100.846 67.3981 100.824L55.9716 97.037L72.5672 99.8229C72.676 99.8011 72.7848 99.7685 72.8937 99.7467L56.2545 96.9608L77.0943 98.3429C77.1704 98.3102 77.2466 98.2776 77.3228 98.2341L56.4613 96.852L80.0543 96.5146C80.0543 96.5146 80.1304 96.4385 80.1631 96.3949L56.5701 96.7323L81.0663 94.5123C81.0663 94.5123 81.0663 94.4361 81.0663 94.3926L56.581 96.6126L80.0651 92.5535L80.0325 92.5861Z" fill="white"/>
<path id="Vector_14" d="M70.0639 94.7629C74.1339 97.07 70.7059 99.845 62.4136 100.966C54.1212 102.076 44.0986 101.107 40.0394 98.8003C35.9694 96.4932 39.3974 93.7182 47.6897 92.5973C55.9821 91.4765 66.0047 92.4559 70.0639 94.7629Z" fill="white"/>
<path id="Vector_15" d="M64.7318 95.6224C67.3545 97.1133 65.1454 98.9089 59.7913 99.6271C54.4371 100.345 47.973 99.725 45.3504 98.2342C42.7277 96.7433 44.9368 94.9477 50.291 94.2294C55.6451 93.5112 62.1092 94.1315 64.7318 95.6224Z" fill="#F55454"/>
</g>
<g id="&#229;&#156;&#134;&#229;&#156;&#136;">
<path id="Vector_16" d="M0.678379 85.5568C-1.75927 80.268 21.0719 64.5212 51.6948 50.3851C82.3069 36.2489 109.11 29.0774 111.548 34.3662" stroke="black" stroke-width="0.35" stroke-linecap="round" stroke-linejoin="round"/>
<path id="Vector_17" d="M17.1434 70.8873C18.0569 70.8873 18.7975 70.1468 18.7975 69.2332C18.7975 68.3197 18.0569 67.5791 17.1434 67.5791C16.2298 67.5791 15.4893 68.3197 15.4893 69.2332C15.4893 70.1468 16.2298 70.8873 17.1434 70.8873Z" fill="#F55454"/>
</g>
</g>
<path id="Vector_18" d="M27.2376 5.87556C28.6408 5.87556 29.7784 4.738 29.7784 3.33475C29.7784 1.93151 28.6408 0.793945 27.2376 0.793945C25.8343 0.793945 24.6968 1.93151 24.6968 3.33475C24.6968 4.738 25.8343 5.87556 27.2376 5.87556Z" fill="white" stroke="#121212" stroke-width="0.35" stroke-miterlimit="10" stroke-linecap="round" stroke-linejoin="round"/>
<path id="Vector_19" d="M3.94693 15.1922C4.64855 15.1922 5.21732 14.6234 5.21732 13.9218C5.21732 13.2201 4.64855 12.6514 3.94693 12.6514C3.2453 12.6514 2.67651 13.2201 2.67651 13.9218C2.67651 14.6234 3.2453 15.1922 3.94693 15.1922Z" fill="white" stroke="#121212" stroke-width="0.35" stroke-miterlimit="10" stroke-linecap="round" stroke-linejoin="round"/>
<path id="Vector_20" d="M11.1795 22.8139L6.91138 27.082L11.1796 31.3502L15.4477 27.082L11.1795 22.8139Z" fill="white" stroke="#121212" stroke-width="0.35" stroke-miterlimit="9.9998" stroke-linecap="round" stroke-linejoin="round"/>
<g id="&#229;&#156;&#134;">
<path id="Ellipse 2587" d="M46.6927 88.018L46.7067 88.0228L46.7213 88.0253C49.4062 88.4727 52.4574 88.4452 55.2171 88.4203C55.8323 88.4147 56.433 88.4093 57.012 88.4093C74.0052 88.4093 87.7338 72.1647 87.7338 52.1891C87.7338 32.2135 74.0052 15.9689 57.012 15.9689C56.5798 15.9689 56.118 15.9666 55.636 15.9641C52.7226 15.9494 49.0691 15.9309 46.7157 16.4016L46.7034 16.4041L46.6916 16.4083C34.0131 20.9004 26.2902 35.8503 26.2902 52.1891C26.2902 68.5992 33.9256 83.5897 46.6927 88.018Z" fill="#D8E2E5" stroke="black" stroke-width="0.35"/>
<g id="Mask group">
<mask id="mask0_1159_6701" style="mask-type:alpha" maskUnits="userSpaceOnUse" x="26" y="16" width="62" height="73">
<ellipse id="Ellipse 2589" cx="57.012" cy="52.1888" rx="30.5468" ry="36.0452" fill="#D8E2E5"/>
</mask>
<g mask="url(#mask0_1159_6701)">
<rect id="Rectangle 40697" x="71.6276" y="28.0771" width="15.9192" height="4.97476" transform="rotate(-13.2032 71.6276 28.0771)" fill="white"/>
<rect id="Rectangle 40698" x="72.6971" y="34.4746" width="15.9192" height="2.06161" transform="rotate(-13.2032 72.6971 34.4746)" fill="white"/>
</g>
</g>
<ellipse id="Ellipse 2585" cx="50.635" cy="52.1888" rx="30.5468" ry="36.0452" fill="white" stroke="black" stroke-width="0.35"/>
<path id="Ellipse 2588" d="M50.6356 78.5172C62.7394 78.5172 72.4985 66.6977 72.4985 52.1892C72.4985 37.6807 62.7394 25.8611 50.6356 25.8611C38.5319 25.8611 28.7728 37.6807 28.7728 52.1892C28.7728 66.6977 38.5319 78.5172 50.6356 78.5172Z" fill="url(#paint0_linear_1159_6701)" stroke="black" stroke-width="0.35"/>
<g id="&#231;&#189;&#145;&#230;&#160;&#188;" opacity="0.8">
<g id="Mask group_2">
<mask id="mask1_1159_6701" style="mask-type:alpha" maskUnits="userSpaceOnUse" x="28" y="26" width="45" height="53">
<ellipse id="Ellipse 2588_2" cx="50.6878" cy="52.153" rx="21.6879" ry="26.153" fill="url(#paint1_linear_1159_6701)"/>
</mask>
<g mask="url(#mask1_1159_6701)">
<g id="Group 1000005159">
<line id="Line 100" y1="-0.175" x2="55.0797" y2="-0.175" transform="matrix(0.997859 0.0654031 -0.0165799 0.999863 22.6669 23.6504)" stroke="white" stroke-width="0.35"/>
<line id="Line 102" y1="-0.175" x2="55.0797" y2="-0.175" transform="matrix(0.997859 0.0654031 -0.0165799 0.999863 22.6669 38.959)" stroke="white" stroke-width="0.35"/>
<line id="Line 104" y1="-0.175" x2="55.0797" y2="-0.175" transform="matrix(0.997859 0.0654031 -0.0165799 0.999863 22.6669 54.2686)" stroke="white" stroke-width="0.35"/>
<line id="Line 106" y1="-0.175" x2="55.0797" y2="-0.175" transform="matrix(0.997859 0.0654031 -0.0165799 0.999863 22.6669 69.5781)" stroke="white" stroke-width="0.35"/>
</g>
<g id="Group 1000005160">
<line id="Line 101" y1="-0.175" x2="88.0516" y2="-0.175" transform="matrix(0.00354803 0.999994 -0.975806 -0.21864 66.9822 9.55762)" stroke="white" stroke-width="0.35"/>
<line id="Line 103" y1="-0.175" x2="88.0516" y2="-0.175" transform="matrix(0.00354803 0.999994 -0.975806 -0.21864 51.842 11.8301)" stroke="white" stroke-width="0.35"/>
<line id="Line 105" y1="-0.175" x2="88.0516" y2="-0.175" transform="matrix(0.00354803 0.999994 -0.975806 -0.21864 36.7029 14.1016)" stroke="white" stroke-width="0.35"/>
</g>
</g>
</g>
</g>
<g id="Group 1000005158">
<g id="Group_2">
<path id="Vector_21" d="M49.715 39.1657C51.0766 39.0663 52.1838 40.2832 52.1861 41.8826L52.2165 54.6822C52.2209 56.2833 51.1193 57.6594 49.7577 57.7587C48.3961 57.8581 47.2889 56.6412 47.2847 55.0421L47.2541 42.2405C47.2518 40.6411 48.3512 39.2633 49.715 39.1657Z" fill="black" stroke="black" stroke-width="0.307312" stroke-miterlimit="10"/>
</g>
<g id="Group_3">
<path id="Vector_22" d="M52.6526 63.7486C53.0169 61.8519 52.0206 60.0572 50.4273 59.7399C48.834 59.4227 47.2471 60.7032 46.8828 62.5999C46.5186 64.4966 47.5149 66.2913 49.1082 66.6086C50.7014 66.9258 52.2884 65.6454 52.6526 63.7486Z" fill="black" stroke="black" stroke-width="0.307312" stroke-miterlimit="10"/>
</g>
</g>
</g>
<path id="Vector_23" d="M111.548 34.3555C113.986 39.6443 91.1543 55.3911 60.5314 69.5272C29.9193 83.6634 3.127 90.8458 0.678467 85.5569" stroke="black" stroke-width="0.35" stroke-linecap="round" stroke-linejoin="round"/>
<path id="Vector_24" d="M100.383 49.5899C101.807 49.5899 102.962 48.4352 102.962 47.0108C102.962 45.5864 101.807 44.4316 100.383 44.4316C98.9582 44.4316 97.8035 45.5864 97.8035 47.0108C97.8035 48.4352 98.9582 49.5899 100.383 49.5899Z" fill="#F55454"/>
</g>
<defs>
<linearGradient id="paint0_linear_1159_6701" x1="50.6356" y1="26.0361" x2="50.6356" y2="78.3422" gradientUnits="userSpaceOnUse">
<stop stop-color="#F55454"/>
<stop offset="1" stop-color="#F55454" stop-opacity="0.6"/>
</linearGradient>
<linearGradient id="paint1_linear_1159_6701" x1="50.6878" y1="26" x2="50.6878" y2="78.3061" gradientUnits="userSpaceOnUse">
<stop stop-color="white"/>
<stop offset="1" stop-color="white" stop-opacity="0"/>
</linearGradient>
</defs>
</svg>
