<svg width="140" height="140" viewBox="0 0 140 140" fill="none" xmlns="http://www.w3.org/2000/svg">
<g id="&#232;&#173;&#166;&#229;&#145;&#138;">
<g id="Group 1000005154">
<g id="Group">
<path id="&#233;&#152;&#180;&#229;&#189;&#177;" d="M121.272 109.848L133.411 105.355C135.663 104.523 135.663 103.16 133.411 102.325L119.452 97.1602L121.272 109.848Z" fill="black"/>
<path id="Vector" d="M76.9855 107.332L77.0373 107.473L76.9855 107.332C74.3125 108.315 70.7923 108.812 67.2607 108.815C63.7292 108.818 60.2008 108.328 57.5113 107.35L14.6401 91.7456L14.6401 91.7456C13.2906 91.2546 12.2894 90.6903 11.6283 90.0959C10.9676 89.5018 10.6572 88.8882 10.6572 88.2926C10.6572 88.2926 10.6572 88.2926 10.6572 88.2926L10.3572 88.2925L10.3572 88.2926L10.35 106.726V106.726C10.35 107.432 10.7206 108.12 11.4205 108.749C12.1202 109.379 13.1598 109.96 14.5301 110.461L14.5303 110.461L57.4015 126.065L57.4016 126.065C60.1338 127.059 63.6985 127.551 67.2524 127.548C70.8064 127.545 74.364 127.046 77.0819 126.046L77.0301 125.906L77.0819 126.046L119.7 110.37C121.053 109.873 122.078 109.295 122.768 108.67C123.458 108.045 123.822 107.362 123.822 106.661L123.83 88.2291C123.83 88.2286 123.83 88.2281 123.83 88.2276H123.68L123.53 88.2275C123.53 88.228 123.53 88.2285 123.53 88.229C123.529 88.8173 123.224 89.425 122.573 90.0146C121.922 90.6048 120.935 91.1663 119.604 91.6555L119.656 91.7963L119.604 91.6555L76.9855 107.332Z" fill="white" stroke="black" stroke-width="0.3" stroke-miterlimit="10"/>
<path id="Vector_2" d="M119.649 84.4927L119.625 84.4837H119.621L76.7745 68.8887L76.7232 69.0297L76.7745 68.8887C74.0423 67.8948 70.4776 67.4023 66.9241 67.4055C63.3706 67.4087 59.8139 67.9075 57.0978 68.9069L14.483 84.5832C14.483 84.5832 14.483 84.5832 14.483 84.5832C13.1243 85.0828 12.0954 85.6635 11.4048 86.2914C10.7138 86.9197 10.3511 87.606 10.3565 88.3105C10.3618 89.0148 10.7349 89.6997 11.4348 90.3261C12.1346 90.9523 13.1718 91.5308 14.5377 92.0276C14.5377 92.0276 14.5377 92.0276 14.5377 92.0276L57.4089 107.632L57.4089 107.632C60.1411 108.625 63.7068 109.118 67.2612 109.115C70.8155 109.112 74.3732 108.613 77.0893 107.613L119.708 91.9371L119.656 91.7963L119.708 91.9371C121.065 91.4375 122.094 90.8568 122.784 90.2289C123.474 89.6005 123.837 88.9143 123.831 88.2097C123.825 87.5055 123.452 86.8206 122.752 86.1942C122.053 85.568 121.015 84.9895 119.649 84.4927Z" fill="black" stroke="black" stroke-width="0.3" stroke-miterlimit="10"/>
<path id="Vector_3" d="M119.643 79.6291L119.618 79.6201H119.615L76.7681 64.0251L76.7168 64.1661L76.7681 64.0251C74.0359 63.0313 70.4712 62.5387 66.9177 62.5419C63.3642 62.5451 59.8075 63.0439 57.0914 64.0434L14.4766 79.7196C14.4766 79.7196 14.4766 79.7196 14.4766 79.7196C13.1179 80.2192 12.089 80.7999 11.3984 81.4278C10.7074 82.0561 10.3446 82.7424 10.35 83.4469C10.3554 84.1512 10.7284 84.8361 11.4284 85.4625C12.1281 86.0887 13.1654 86.6672 14.5312 87.164C14.5312 87.164 14.5312 87.164 14.5313 87.164L57.4025 102.768L57.4025 102.768C60.1347 103.762 63.7003 104.254 67.2547 104.251C70.8091 104.248 74.3667 103.749 77.0828 102.75L119.701 87.0735L119.649 86.9327L119.701 87.0735C121.059 86.5739 122.087 85.9932 122.777 85.3653C123.468 84.737 123.83 84.0507 123.825 83.3461C123.819 82.6419 123.446 81.957 122.746 81.3306C122.046 80.7044 121.009 80.1259 119.643 79.6291Z" fill="white" stroke="black" stroke-width="0.3" stroke-miterlimit="10"/>
<g id="Group_2">
<path id="Vector_4" d="M118.404 81.0741L118.203 81.0008V81.0043L75.7477 65.5513C73.3233 64.6682 70.1619 64.2311 67.0116 64.2337C63.8614 64.2363 60.7077 64.6786 58.2987 65.5652C58.2987 65.5652 58.2987 65.5652 58.2987 65.5653L15.8941 81.1606L15.894 81.1606C15.0679 81.4648 14.4378 81.8198 14.0126 82.2069C13.5869 82.5944 13.3559 83.0247 13.3596 83.4734C13.3633 83.9218 13.6011 84.3509 14.0324 84.737C14.4635 85.1228 15.0986 85.4763 15.929 85.7787L15.9291 85.7788L58.5858 101.305L58.5858 101.305C61.0084 102.186 64.1697 102.623 67.3204 102.621C70.4711 102.619 73.6257 102.178 76.0347 101.291L118.439 85.6923L118.388 85.5515L118.439 85.6922C119.266 85.388 119.896 85.0331 120.321 84.6459C120.746 84.2585 120.977 83.8281 120.974 83.3794C120.97 82.9311 120.732 82.5019 120.301 82.1158C119.87 81.73 119.235 81.3765 118.404 81.0741Z" fill="black" stroke="black" stroke-width="0.3" stroke-miterlimit="10"/>
<mask id="mask0_1443_17946" style="mask-type:alpha" maskUnits="userSpaceOnUse" x="13" y="64" width="108" height="39">
<path id="Vector_5" d="M118.353 81.215C121.633 82.4096 121.65 84.35 118.388 85.5515L75.9829 101.15C71.208 102.908 63.4396 102.911 58.6371 101.164L15.9804 85.6378C12.7004 84.4432 12.6832 82.5029 15.9459 81.3014L58.3505 65.706C63.1255 63.9487 70.8903 63.9417 75.6963 65.6922L118.353 81.2185V81.215Z" fill="white"/>
</mask>
<g mask="url(#mask0_1443_17946)">
<path id="Vector_6" d="M118.439 86.3535L118.388 86.2127L118.439 86.3535C119.266 86.0493 119.896 85.6943 120.321 85.3072C120.746 84.9197 120.977 84.4894 120.974 84.0407C120.97 83.5923 120.732 83.1632 120.301 82.7771C119.87 82.3913 119.235 82.0378 118.404 81.7354L118.353 81.8763L118.404 81.7353L75.7476 66.2091C73.3233 65.3261 70.1619 64.8889 67.0116 64.8915C63.8614 64.8941 60.7077 65.3364 58.2987 66.223C58.2987 66.223 58.2987 66.2231 58.2987 66.2231L15.8941 81.8184L15.894 81.8184C15.0679 82.1226 14.4378 82.4776 14.0126 82.8647C13.5869 83.2522 13.3559 83.6825 13.3596 84.1312C13.3633 84.5796 13.6011 85.0088 14.0324 85.3948C14.4635 85.7806 15.0986 86.1341 15.929 86.4366L15.9291 86.4366L58.5858 101.966L58.5858 101.966C61.0084 102.848 64.1697 103.285 67.3204 103.283C70.4711 103.28 73.6257 102.839 76.0347 101.952L118.439 86.3535Z" fill="#D9D9D9" stroke="black" stroke-width="0.3" stroke-miterlimit="10"/>
</g>
</g>
<g id="Group 1000005149">
<path id="Vector_7" d="M99.6783 82.1297C101.013 82.6149 101.02 83.4053 99.6931 83.8947L69.5449 94.9831C68.2164 95.4726 66.0572 95.4726 64.7223 94.9873L34.394 83.9498C33.057 83.4625 33.0506 82.6742 34.3792 82.1848L64.5294 71.0943C65.8559 70.6069 68.0151 70.6048 69.3521 71.0901L99.6804 82.1276L99.6783 82.1297Z" fill="white" stroke="black" stroke-width="0.3" stroke-miterlimit="10"/>
<path id="Vector_8" d="M99.6931 83.8947L69.5449 94.9831C68.2164 95.4725 66.0572 95.4725 64.7223 94.9873L34.394 83.9498C33.7223 83.7061 33.3875 83.3862 33.3875 83.0641V83.8523C33.3875 84.1723 33.7223 84.4944 34.394 84.738L64.7223 95.7755C66.0572 96.2608 68.2164 96.2608 69.5449 95.7713L99.6931 84.6829C100.354 84.4393 100.685 84.1214 100.685 83.8036V83.0154C100.685 83.3332 100.354 83.651 99.6931 83.8947Z" fill="black" stroke="black" stroke-width="0.3" stroke-miterlimit="10"/>
</g>
<mask id="mask1_1443_17946" style="mask-type:alpha" maskUnits="userSpaceOnUse" x="10" y="88" width="114" height="40">
<path id="Vector_9" d="M119.656 91.7963L77.0373 107.473C71.6482 109.456 62.8817 109.463 57.4601 107.491L14.5888 91.8866C11.8689 90.8969 10.5072 89.5965 10.5072 88.2926L10.5 106.726C10.5 108.026 11.8617 109.326 14.5816 110.32L57.4528 125.924C62.8745 127.896 71.6373 127.889 77.0301 125.906L119.649 110.229C122.332 109.243 123.672 107.95 123.672 106.661L123.68 88.2276C123.68 89.5171 122.339 90.8102 119.656 91.7963Z" fill="white"/>
</mask>
<g mask="url(#mask1_1443_17946)">
<path id="Vector_10" d="M69.1314 136.492C71.0351 136.492 72.9363 136.244 74.371 135.71L122.787 118.175C124.229 117.653 124.95 116.963 124.95 116.275V91.2392L72.9538 110.108C70.848 110.872 69.124 113.323 69.124 115.552L69.1314 136.492Z" fill="#D9D9D9"/>
<g id="Group 1000005145">
<g id="Group_3">
<path id="Vector_11" d="M16.9293 100.075C16.7202 100.004 16.5165 99.9953 16.3349 100.048L15.3414 100.32C15.523 100.271 15.7239 100.276 15.9358 100.348C16.7229 100.62 17.3421 101.718 17.3173 102.8C17.2981 103.598 16.9376 104.162 16.4367 104.302L17.4302 104.03C17.931 103.892 18.2915 103.325 18.3108 102.527C18.3356 101.443 17.7191 100.345 16.9293 100.075Z" fill="black" stroke="black" stroke-width="0.3" stroke-miterlimit="10"/>
<path id="Vector_12" d="M15.9358 100.348C16.7229 100.62 17.3421 101.718 17.3173 102.8C17.2926 103.881 16.6321 104.544 15.845 104.272C15.058 103.999 14.436 102.904 14.4608 101.82C14.4856 100.736 15.146 100.078 15.9358 100.348Z" fill="white" stroke="black" stroke-width="0.3" stroke-miterlimit="10"/>
</g>
<g id="Group_4">
<path id="Vector_13" d="M20.5454 101.322C20.3362 101.25 20.1354 101.242 19.951 101.294L18.9575 101.567C19.1391 101.517 19.34 101.523 19.5519 101.594C20.339 101.867 20.9582 102.965 20.9334 104.046C20.9142 104.844 20.5537 105.408 20.0528 105.549L21.0463 105.276C21.5471 105.139 21.9076 104.572 21.9269 103.774C21.9517 102.689 21.3352 101.591 20.5454 101.322Z" fill="black" stroke="black" stroke-width="0.3" stroke-miterlimit="10"/>
<path id="Vector_14" d="M19.5519 101.594C20.339 101.867 20.9582 102.965 20.9334 104.046C20.9087 105.128 20.2482 105.791 19.4611 105.518C18.674 105.246 18.0549 104.148 18.0796 103.064C18.1044 101.979 18.7676 101.322 19.5547 101.594H19.5519Z" fill="white" stroke="black" stroke-width="0.3" stroke-miterlimit="10"/>
</g>
<g id="Group_5">
<path id="Vector_15" d="M29.8691 104.531L24.1615 102.566C23.9523 102.494 23.7514 102.486 23.5698 102.538L22.5763 102.811C22.758 102.761 22.9589 102.767 23.168 102.838L28.8756 104.803C29.6627 105.075 30.2819 106.174 30.2571 107.258C30.2379 108.053 29.8773 108.62 29.3737 108.758L30.3672 108.485C30.8681 108.348 31.2313 107.781 31.2506 106.985C31.2754 105.901 30.6562 104.803 29.8691 104.531Z" fill="black" stroke="black" stroke-width="0.3" stroke-miterlimit="10"/>
<path id="Vector_16" d="M28.8756 104.803C29.6627 105.076 30.2819 106.174 30.2571 107.258C30.2324 108.342 29.5691 109 28.7821 108.73L23.0745 106.765C22.2874 106.493 21.6682 105.395 21.693 104.311C21.7177 103.226 22.3782 102.569 23.1653 102.841L28.8729 104.806L28.8756 104.803Z" fill="#66DD8C" stroke="black" stroke-width="0.3" stroke-miterlimit="10"/>
</g>
</g>
<g id="Group 1000005146">
<g id="Group 1000005143">
<path id="Vector_17" d="M118.522 100.292L118.523 100.291C118.683 100.231 118.797 100.07 118.868 99.9035C118.944 99.7294 118.989 99.5145 118.989 99.2964V98.8143C118.989 98.5986 118.944 98.4026 118.858 98.2649C118.814 98.1953 118.754 98.133 118.676 98.0974C118.595 98.0602 118.505 98.0577 118.419 98.0899C118.418 98.09 118.418 98.0901 118.418 98.0902L75.9929 113.534C75.9927 113.535 75.9924 113.535 75.9922 113.535C75.8304 113.592 75.7174 113.755 75.647 113.92C75.573 114.094 75.5293 114.308 75.5293 114.526V115.008C75.5293 115.222 75.5735 115.418 75.66 115.556C75.7037 115.625 75.7631 115.688 75.841 115.724C75.9223 115.762 76.0122 115.765 76.0992 115.732C76.0995 115.732 76.0997 115.732 76.0999 115.732L118.522 100.292Z" fill="white" stroke="black" stroke-width="0.3" stroke-miterlimit="10"/>
<g id="Group 1000005142">
<mask id="mask2_1443_17946" style="mask-type:alpha" maskUnits="userSpaceOnUse" x="75" y="98" width="44" height="18">
<path id="Vector_18" d="M118.471 98.2306C118.674 98.1545 118.839 98.4167 118.839 98.8143V99.2964C118.839 99.694 118.674 100.075 118.471 100.151L76.0472 115.592C75.8442 115.668 75.6793 115.401 75.6793 115.008V114.526C75.6793 114.128 75.84 113.748 76.043 113.676L118.471 98.2306Z" fill="white"/>
</mask>
<g mask="url(#mask2_1443_17946)">
<path id="Vector_19" d="M117.24 97.8332C117.443 97.757 117.608 98.0192 117.608 98.4168V98.8989C117.608 99.2965 117.443 99.6771 117.24 99.7532L74.8165 115.194C74.6135 115.27 74.4486 115.004 74.4486 114.611V114.128C74.4486 113.731 74.6093 113.35 74.8123 113.278L117.24 97.8332Z" fill="black" stroke="black" stroke-width="0.3" stroke-miterlimit="10"/>
<path id="Vector_20" d="M118.839 98.8143C118.839 98.5013 118.737 98.273 118.593 98.2264C118.225 98.108 117.735 97.9473 117.363 97.8289C117.506 97.8754 117.608 98.1038 117.608 98.4168V98.8989C117.608 99.2964 117.443 99.6771 117.24 99.7532L74.8165 115.194C74.7742 115.211 74.7319 115.211 74.6939 115.194C75.0618 115.313 75.5524 115.473 75.9246 115.592C75.9626 115.604 76.0049 115.604 76.0472 115.592L118.471 100.151C118.674 100.075 118.839 99.694 118.839 99.2964V98.8143Z" fill="#B3B3B3" stroke="black" stroke-width="0.3" stroke-miterlimit="10"/>
</g>
</g>
</g>
<g id="Group 1000005144">
<path id="Vector_21" d="M118.522 105.367L118.523 105.366C118.683 105.306 118.797 105.145 118.868 104.979C118.944 104.804 118.989 104.59 118.989 104.371V103.889C118.989 103.674 118.944 103.478 118.858 103.34C118.814 103.27 118.754 103.208 118.676 103.172C118.595 103.135 118.505 103.133 118.419 103.165C118.418 103.165 118.418 103.165 118.418 103.165L75.9929 118.609C75.9927 118.61 75.9924 118.61 75.9922 118.61C75.8304 118.667 75.7174 118.83 75.647 118.995C75.573 119.169 75.5293 119.383 75.5293 119.601V120.083C75.5293 120.297 75.5735 120.493 75.66 120.631C75.7037 120.7 75.7631 120.763 75.841 120.799C75.9223 120.837 76.0122 120.84 76.0992 120.807C76.0995 120.807 76.0997 120.807 76.0999 120.807L118.522 105.367Z" fill="white" stroke="black" stroke-width="0.3" stroke-miterlimit="10"/>
<g id="Group 1000005142_2">
<mask id="mask3_1443_17946" style="mask-type:alpha" maskUnits="userSpaceOnUse" x="75" y="103" width="44" height="18">
<path id="Vector_22" d="M118.471 103.306C118.674 103.23 118.839 103.492 118.839 103.889V104.371C118.839 104.769 118.674 105.15 118.471 105.226L76.0472 120.667C75.8442 120.743 75.6793 120.476 75.6793 120.083V119.601C75.6793 119.203 75.84 118.823 76.043 118.751L118.471 103.306Z" fill="white"/>
</mask>
<g mask="url(#mask3_1443_17946)">
<path id="Vector_23" d="M117.24 102.908C117.443 102.832 117.608 103.094 117.608 103.492V103.974C117.608 104.372 117.443 104.752 117.24 104.828L74.8165 120.269C74.6135 120.345 74.4486 120.079 74.4486 119.686V119.203C74.4486 118.806 74.6093 118.425 74.8123 118.353L117.24 102.908Z" fill="black" stroke="black" stroke-width="0.3" stroke-miterlimit="10"/>
<path id="Vector_24" d="M118.839 103.889C118.839 103.576 118.737 103.348 118.593 103.301C118.225 103.183 117.735 103.022 117.363 102.904C117.506 102.95 117.608 103.179 117.608 103.492V103.974C117.608 104.371 117.443 104.752 117.24 104.828L74.8165 120.269C74.7742 120.286 74.7319 120.286 74.6939 120.269C75.0618 120.388 75.5524 120.548 75.9246 120.667C75.9626 120.679 76.0049 120.679 76.0472 120.667L118.471 105.226C118.674 105.15 118.839 104.769 118.839 104.371V103.889Z" fill="#B3B3B3" stroke="black" stroke-width="0.3" stroke-miterlimit="10"/>
</g>
</g>
</g>
</g>
</g>
</g>
<g id="&#230;&#150;&#185;&#229;&#157;&#151;">
<path id="A" d="M19.7446 57.2541L15.691 49.0025L19.753 41.6309L29.3665 40.3263L33.4198 48.5774L29.3585 55.9476L19.7446 57.2541Z" fill="white" stroke="black" stroke-width="0.3"/>
<g id="B">
<mask id="mask4_1443_17946" style="mask-type:alpha" maskUnits="userSpaceOnUse" x="15" y="40" width="19" height="18">
<path id="X" d="M19.7446 57.2541L15.691 49.0025L19.753 41.6309L29.3665 40.3263L33.4198 48.5774L29.3585 55.9476L19.7446 57.2541Z" fill="white" stroke="black" stroke-width="0.3"/>
</mask>
<g mask="url(#mask4_1443_17946)">
<path id="&#233;&#152;&#180;&#229;&#189;&#177;_2" d="M25.4205 47.7851L29.4011 40.2802L33.4578 48.5711L29.4011 55.9999L25.4205 47.7851Z" fill="#D9D9D9"/>
<path id="Line" d="M29.4419 40.2174L25.4455 47.7751M25.4455 47.7751L15.6263 49.036M25.4455 47.7751L29.3404 55.9546" stroke="black" stroke-width="0.3"/>
</g>
</g>
<g id="C">
<path id="A_2" d="M17.7921 50.1175L24.362 49.276L25.4913 51.7L18.9213 52.5415L17.7921 50.1175Z" fill="black"/>
<path id="A_3" d="M19.3649 53.514L25.9349 52.6725L27.0641 55.0965L20.4941 55.938L19.3649 53.514Z" fill="black"/>
<path id="Vector 8" d="M19.1848 50.9591L20.1635 50.8412" stroke="#66DD8C" stroke-width="0.3" stroke-linecap="round"/>
<path id="Vector 9" d="M21.4737 50.6247L23.676 50.3733" stroke="#66DD8C" stroke-width="0.3" stroke-linecap="round"/>
<path id="Vector 10" d="M21.971 54.1765L22.9497 54.0586" stroke="#66DD8C" stroke-width="0.3" stroke-linecap="round"/>
<path id="Vector 11" d="M24.2097 53.8489L25.1884 53.731" stroke="#66DD8C" stroke-width="0.3" stroke-linecap="round"/>
</g>
<path id="Line_2" d="M19.7446 57.2541L15.691 49.0025L19.753 41.6309L29.3665 40.3263L33.4198 48.5774L29.3585 55.9476L19.7446 57.2541Z" stroke="black" stroke-width="0.3"/>
</g>
<g id="&#230;&#150;&#185;&#229;&#157;&#151;_2">
<path id="A_4" d="M115.782 24.4373L115.92 36.936L106.621 43.5957L94.0669 39.564L93.9295 27.066L103.226 20.4075L115.782 24.4373Z" fill="#D9D9D9" stroke="black" stroke-width="0.3"/>
<g id="B_2">
<mask id="mask5_1443_17946" style="mask-type:alpha" maskUnits="userSpaceOnUse" x="93" y="20" width="24" height="24">
<path id="X_2" d="M115.782 24.4373L115.92 36.936L106.621 43.5957L94.0669 39.564L93.9295 27.066L103.226 20.4075L115.782 24.4373Z" fill="#EBE9E9" stroke="black" stroke-width="0.3"/>
</mask>
<g mask="url(#mask5_1443_17946)">
<path id="&#233;&#152;&#180;&#229;&#189;&#177;_3" d="M103.283 32.7229L94.0503 39.5612L93.9327 27.0784L103.214 20.3773L103.283 32.7229Z" fill="white"/>
<path id="Line_3" d="M93.9638 39.6143L103.247 32.7207M103.247 32.7207L115.965 36.906M103.247 32.7207L103.262 20.4681" stroke="black" stroke-width="0.3"/>
</g>
</g>
<g id="C_2">
<path id="A_5" d="M113.952 34.3234L105.444 31.5204L105.479 27.9039L113.987 30.707L113.952 34.3234Z" fill="black"/>
<path id="A_6" d="M114.013 29.2616L105.504 26.4586L105.539 22.8421L114.048 25.6452L114.013 29.2616Z" fill="black"/>
<path id="Vector 8_2" d="M112.743 32.4844L111.48 32.0578" stroke="#66DD8C" stroke-width="0.3" stroke-linecap="round"/>
<path id="Vector 9_2" d="M109.755 31.5583L106.921 30.5814" stroke="#66DD8C" stroke-width="0.3" stroke-linecap="round"/>
<path id="Vector 10_2" d="M111.219 26.9337L109.955 26.5071" stroke="#66DD8C" stroke-width="0.3" stroke-linecap="round"/>
<path id="Vector 11_2" d="M108.296 26.0284L107.032 25.6018" stroke="#66DD8C" stroke-width="0.3" stroke-linecap="round"/>
</g>
<path id="Line_4" d="M115.782 24.4373L115.92 36.936L106.621 43.5957L94.0669 39.564L93.9295 27.066L103.226 20.4075L115.782 24.4373Z" stroke="black" stroke-width="0.3"/>
</g>
<g id="&#229;&#176;&#143;&#230;&#143;&#146;&#229;&#186;&#167;">
<path id="&#233;&#152;&#180;&#229;&#189;&#177;_4" d="M117.54 130.795L124.427 128.289C125.705 127.825 125.705 127.064 124.427 126.598L116.507 123.717L117.54 130.795Z" fill="black"/>
<path id="B_3" d="M117.576 130.63L117.569 130.632L117.563 130.634L112.251 132.541C111.497 132.811 110.822 131.984 111.237 131.299L117.498 120.984C117.944 120.249 119.075 120.565 119.075 121.424V127.934C119.075 129.815 118.042 130.511 117.576 130.63Z" fill="#D9D9D9" stroke="black" stroke-width="0.3"/>
<path id="A_7" d="M107.928 116.692C108.39 115.938 109.321 115.615 110.15 115.921L117.431 118.606C118.524 119.01 118.974 120.31 118.365 121.304L111.813 131.994C111.351 132.748 110.42 133.071 109.59 132.765L102.31 130.08C101.217 129.676 100.766 128.376 101.375 127.382L107.928 116.692Z" fill="white" stroke="black" stroke-width="0.3"/>
<g id="&#230;&#143;&#146;&#229;&#173;&#148;">
<mask id="mask6_1443_17946" style="mask-type:alpha" maskUnits="userSpaceOnUse" x="100" y="115" width="19" height="19">
<path id="X_3" d="M107.928 116.692C108.39 115.938 109.321 115.615 110.15 115.921L117.431 118.607C118.524 119.01 118.974 120.31 118.365 121.304L111.813 131.995C111.351 132.748 110.42 133.071 109.59 132.766L102.31 130.08C101.217 129.676 100.766 128.376 101.375 127.382L107.928 116.692Z" fill="white" stroke="black" stroke-width="0.3"/>
</mask>
<g mask="url(#mask6_1443_17946)">
<path id="A_8" d="M106.751 122.168C107.212 121.411 108.145 121.086 108.976 121.393L112.14 122.56C113.232 122.963 113.683 124.26 113.077 125.254L109.035 131.887C108.574 132.643 107.641 132.968 106.81 132.662L103.645 131.494C102.554 131.092 102.103 129.794 102.708 128.801L106.751 122.168Z" fill="white" stroke="black" stroke-width="0.3"/>
<path id="Line_5" d="M107.928 116.692C108.39 115.938 109.321 115.615 110.15 115.921L117.431 118.607C118.524 119.01 118.974 120.31 118.365 121.304L111.813 131.995C111.351 132.748 110.42 133.071 109.59 132.766L102.31 130.08C101.217 129.676 100.766 128.376 101.375 127.382L107.928 116.692Z" stroke="black" stroke-width="0.3"/>
</g>
</g>
<ellipse id="Ellipse 2583" cx="108.808" cy="125.452" rx="1.11439" ry="1.48586" transform="rotate(18.4088 108.808 125.452)" fill="black"/>
</g>
<g id="Group_6">
<path id="Vector_25" d="M31.0014 79.7306V85.2846C31.0014 86.0321 29.3444 86.6327 27.2987 86.6327C25.253 86.6327 23.596 86.0297 23.596 85.2846V79.7306H31.0014Z" fill="black"/>
<path id="Vector_26" d="M32.2 80.1841V83.7473C32.2 84.7316 30.0047 85.5289 27.2987 85.5289C24.5927 85.5289 22.4 84.7316 22.4 83.7473V80.1841H32.2Z" fill="white" stroke="black" stroke-width="0.3" stroke-miterlimit="10"/>
<path id="Vector_27" d="M26.601 80.1242V85.5114" stroke="#D9D9D9" stroke-width="0.3" stroke-miterlimit="10"/>
<path id="Vector_28" d="M32.2 80.1841V83.7473C32.2 84.7316 30.0047 85.5289 27.2987 85.5289V80.1841H32.2Z" fill="#D9D9D9"/>
<path id="Vector_29" d="M32.2 80.1841V83.7473C32.2 84.7316 30.0047 85.5289 27.2987 85.5289C24.5927 85.5289 22.4 84.7316 22.4 83.7473V80.1841H32.2Z" stroke="black" stroke-width="0.3" stroke-miterlimit="10" stroke-linecap="round"/>
<path id="Vector_30" d="M27.2988 81.9682C24.5933 81.9682 22.4 81.1694 22.4 80.1841C22.4 79.1988 24.5933 78.4 27.2988 78.4C30.0043 78.4 32.1975 79.1988 32.1975 80.1841C32.1975 81.1694 30.0043 81.9682 27.2988 81.9682Z" fill="white" stroke="black" stroke-width="0.3" stroke-miterlimit="10" stroke-linecap="round"/>
<path id="Vector_31" d="M27.2988 80.8792C26.2446 80.8792 25.3901 80.568 25.3901 80.1841C25.3901 79.8001 26.2446 79.4889 27.2988 79.4889C28.3529 79.4889 29.2075 79.8001 29.2075 80.1841C29.2075 80.568 28.3529 80.8792 27.2988 80.8792Z" fill="black"/>
<path id="5 (Stroke)" fill-rule="evenodd" clip-rule="evenodd" d="M31.1465 69.65C29.4087 69.65 28 71.0588 28 72.7966V79.8C28 80.1866 27.6866 80.5 27.3 80.5C26.9134 80.5 26.6 80.1866 26.6 79.8V72.7966C26.6 70.2856 28.6355 68.25 31.1465 68.25C33.3138 68.25 35.1798 69.7797 35.6048 71.9049L37.2274 80.0177C38.1705 84.7336 41.597 88.567 46.1778 90.0314L73.8839 98.8883C78.59 100.393 82.2256 104.161 83.5609 108.917L84.6868 112.928C86.0967 117.951 90.3131 121.686 95.4695 122.479L109.306 124.608C109.689 124.667 109.951 125.024 109.892 125.406C109.833 125.789 109.476 126.051 109.094 125.992L95.2566 123.863C89.5575 122.986 84.8972 118.858 83.3389 113.307L82.213 109.296C81.0049 104.992 77.7155 101.583 73.4576 100.222L45.7515 91.3649C40.6862 89.7457 36.8975 85.5068 35.8546 80.2923L34.232 72.1795C33.9378 70.7087 32.6464 69.65 31.1465 69.65Z" fill="black"/>
<path id="4 (Stroke)" fill-rule="evenodd" clip-rule="evenodd" d="M27.3 72.6688C27.4933 72.6688 27.65 72.8255 27.65 73.0188V74.375C27.65 74.5683 27.4933 74.725 27.3 74.725C27.1067 74.725 26.95 74.5683 26.95 74.375V73.0188C26.95 72.8255 27.1067 72.6688 27.3 72.6688ZM27.3 75.3813C27.4933 75.3813 27.65 75.538 27.65 75.7313V79.8C27.65 79.9933 27.4933 80.15 27.3 80.15C27.1067 80.15 26.95 79.9933 26.95 79.8V75.7313C26.95 75.538 27.1067 75.3813 27.3 75.3813ZM64.5041 96.6247C64.5629 96.4406 64.7599 96.339 64.944 96.3979L70.2815 98.1041C70.4657 98.163 70.5672 98.36 70.5084 98.5441C70.4495 98.7282 70.2525 98.8298 70.0684 98.7709L64.7309 97.0646C64.5468 97.0058 64.4452 96.8088 64.5041 96.6247ZM101.635 124.153C101.665 123.962 101.844 123.831 102.035 123.86L103.588 124.101C103.779 124.131 103.91 124.309 103.88 124.5C103.851 124.692 103.672 124.822 103.481 124.793L101.928 124.552C101.737 124.523 101.606 124.344 101.635 124.153ZM104.742 124.634C104.771 124.443 104.95 124.312 105.141 124.342L108.247 124.823C108.438 124.852 108.569 125.031 108.54 125.222C108.51 125.413 108.331 125.544 108.14 125.515L105.034 125.033C104.843 125.004 104.712 124.825 104.742 124.634Z" fill="#66DD8C"/>
</g>
<g id="&#230;&#178;&#153;&#230;&#188;&#143;">
<g id="&#229;&#186;&#149;&#233;&#131;&#168;">
<g id="B_4">
<mask id="mask7_1443_17946" style="mask-type:alpha" maskUnits="userSpaceOnUse" x="52" y="60" width="39" height="28">
<path id="X_4" d="M89.4147 67.0065C90.6171 69.6367 89.835 72.9062 87.5348 76.0841C85.2375 79.2579 81.444 82.3109 76.6956 84.4818C71.9472 86.6527 67.1564 87.5243 63.2531 87.1853C59.3447 86.8458 56.3603 85.2982 55.1578 82.6679L52.8329 77.5527C53.1074 75.1716 54.9399 72.9575 57.6829 70.8949C60.4361 68.8247 64.0754 66.9304 67.8768 65.1924C71.9496 63.3304 75.8635 61.7316 79.2271 61.0295C82.5826 60.3291 85.3457 60.5302 87.1812 62.1959L89.4146 67.0063C89.4147 67.0063 89.4147 67.0064 89.4147 67.0065Z" fill="black" stroke="black" stroke-width="0.3"/>
</mask>
<g mask="url(#mask7_1443_17946)">
<path id="B_5" d="M89.4147 67.0065C90.6171 69.6367 89.835 72.9062 87.5348 76.0841C85.2375 79.2579 81.444 82.3109 76.6956 84.4818C71.9472 86.6527 67.1564 87.5243 63.2531 87.1853C59.3447 86.8458 56.3603 85.2982 55.1578 82.6679L52.8329 77.5527C53.1074 75.1716 54.9399 72.9575 57.6829 70.8949C60.4361 68.8247 64.0754 66.9304 67.8768 65.1924C71.9496 63.3304 75.8635 61.7316 79.2271 61.0295C82.5826 60.3291 85.3457 60.5302 87.1812 62.1959L89.4146 67.0063C89.4147 67.0063 89.4147 67.0064 89.4147 67.0065Z" fill="black" stroke="black" stroke-width="0.3"/>
<path id="1" d="M88.6456 75.9196L84.6354 67.4515L85.3856 67.7578L89.3258 76.053L88.6456 75.9196Z" fill="#B5A9A9"/>
<path id="2" d="M85.8534 78.8408L81.8432 70.3727L84.6517 71.0064L88.5919 79.3016L85.8534 78.8408Z" fill="#B5A9A9"/>
</g>
</g>
<path id="A_9" d="M86.9753 61.6805C88.1778 64.3108 87.3958 67.5803 85.0955 70.7583C82.7982 73.9321 79.0047 76.9851 74.2563 79.156C69.5079 81.3269 64.7171 82.1985 60.8138 81.8595C56.9053 81.52 53.921 79.9724 52.7184 77.3421C51.5159 74.7118 52.298 71.4423 54.5983 68.2643C56.8956 65.0905 60.6891 62.0375 65.4375 59.8666C70.1859 57.6957 74.9767 56.8241 78.88 57.1631C82.7884 57.5026 85.7728 59.0501 86.9753 61.6805Z" fill="#66DD8C" stroke="black" stroke-width="0.3"/>
</g>
<g id="&#231;&#142;&#187;&#231;&#146;&#131;&#228;&#184;&#187;&#228;&#189;&#147;">
<g id="&#233;&#171;&#152;&#229;&#133;&#137;&#233;&#131;&#168;&#229;&#136;&#134;">
<mask id="mask8_1443_17946" style="mask-type:alpha" maskUnits="userSpaceOnUse" x="32" y="15" width="56" height="68">
<path id="X_5" d="M71.0666 31.125C71.0666 27.7153 69.6463 22.8419 68.0347 20.0911C65.5651 14.6891 55.8332 13.8439 46.2981 18.2032C36.763 22.5625 31.0354 30.4755 33.5051 35.8775C36.1011 43.1087 42.2546 49.79 52.2283 49.79C53.5196 49.79 54.7806 49.6613 55.9988 49.4161C56.5865 49.2978 57.2172 49.4915 57.4573 50.0407C57.6923 50.5782 57.425 51.1791 56.9575 51.5332C52.4548 54.9439 49.5502 60.3211 49.5502 66.3705C49.5502 69.7802 50.9704 74.6536 52.582 77.4044C55.0517 82.8064 64.7835 83.6516 74.3186 79.2923C83.8538 74.933 89.5814 67.02 87.1117 61.618C84.5157 54.3868 78.3622 47.7054 68.3885 47.7054C67.4189 47.7054 66.4664 47.778 65.5362 47.918C64.8623 48.0194 64.1477 47.8167 63.848 47.2047C63.535 46.5654 63.852 45.8314 64.3972 45.3738C68.4768 41.95 71.0666 36.8372 71.0666 31.125Z" fill="#D9D9D9"/>
</mask>
<g mask="url(#mask8_1443_17946)">
<g id="A_10">
<path d="M60.3084 30.8196C61.0685 32.2405 63.8618 40.2692 60.9033 45.0956C60.326 48.5588 61.8025 49.5016 64.1552 51.0038C64.227 51.0496 64.2997 51.096 64.3731 51.143C64.4255 51.1765 64.4791 51.2108 64.5339 51.2459C66.35 52.4068 69.4718 54.4023 72.0609 57.5048C75.2745 56.8285 78.2978 56.7669 80.8142 57.2925C80.6977 57.1184 80.5828 56.9562 80.4699 56.807C77.0861 52.3356 72.5208 50.671 67.9783 49.0147C67.3035 48.7687 66.6292 48.5228 65.9593 48.268C63.58 47.2766 63.5158 45.3448 66.4507 38.3462C68.7823 32.7862 67.2227 28.2774 66.3232 25.677C66.1785 25.2587 66.0509 24.8898 65.9593 24.5738L60.3084 30.8196Z" fill="#66DD8C"/>
<path d="M86.2477 69.2383C85.076 71.3358 83.2291 73.4317 80.8584 75.3165C81.5112 76.8012 82.0856 78.1139 82.5155 79.1002L87.4725 72.4579C87.3502 72.1371 87.2164 71.7842 87.0726 71.4047C86.825 70.7513 86.5476 70.0194 86.2477 69.2383Z" fill="#66DD8C"/>
</g>
<path id="B_6" fill-rule="evenodd" clip-rule="evenodd" d="M80.8584 75.3165C78.9522 70.9807 76.3778 65.1775 74.7827 61.7509C74.0369 60.1489 73.0911 58.7393 72.0609 57.5049C75.2745 56.8286 78.2977 56.767 80.8142 57.2925C82.5701 59.9147 84.7066 65.2251 86.2477 69.2383C85.076 71.3358 83.2291 73.4317 80.8584 75.3165Z" fill="white"/>
</g>
</g>
<path id="A-&#232;&#190;&#185;&#231;&#188;&#152;&#232;&#137;&#178;" d="M67.1253 20.5069L67.1463 20.5529L67.1719 20.5966C68.6993 23.2036 70.0666 27.9037 70.0666 31.125C70.0666 36.5274 67.6187 41.3647 63.7544 44.6078C63.0198 45.2243 62.3543 46.4281 62.9499 47.6444C63.5206 48.81 64.7893 49.0417 65.685 48.9069C66.5661 48.7743 67.4688 48.7054 68.3885 48.7054C77.8196 48.7054 83.6715 54.995 86.1705 61.9559L86.1848 61.9955L86.2023 62.0338C87.2217 64.2636 86.6234 67.1976 84.4069 70.2598C82.2106 73.2942 78.5427 76.2616 73.9029 78.3829C69.263 80.5041 64.6191 81.3367 60.8873 81.0126C57.1213 80.6855 54.5109 79.2184 53.4915 76.9886L53.4705 76.9426L53.4449 76.8989C51.9175 74.2919 50.5502 69.5918 50.5502 66.3705C50.5502 60.6496 53.2956 55.5615 57.5613 52.3304C58.2596 51.8014 58.8549 50.7412 58.3736 49.6402C57.8767 48.5036 56.6599 48.263 55.8015 48.4358C54.6479 48.668 53.453 48.79 52.2283 48.79C42.7972 48.79 36.9452 42.5005 34.4462 35.5396L34.432 35.5L34.4145 35.4617C33.3951 33.2319 33.9933 30.2979 36.2099 27.2357C38.4062 24.2013 42.074 21.2339 46.7139 19.1126C51.3538 16.9914 55.9977 16.1588 59.7294 16.4829C63.4955 16.81 66.1059 18.2771 67.1253 20.5069Z" stroke="#66DD8C" stroke-width="2"/>
<path id="Line_6" d="M67.8983 20.1534L67.9015 20.1604L67.9053 20.1669C69.5043 22.8962 70.9166 27.7435 70.9166 31.125C70.9166 36.7907 68.3481 41.8622 64.3008 45.2589C63.7271 45.7403 63.3579 46.5448 63.7133 47.2706C64.0536 47.9657 64.8513 48.1728 65.5585 48.0663C66.4813 47.9275 67.4264 47.8554 68.3885 47.8554C78.2808 47.8554 84.3891 54.478 86.9705 61.6687L86.97 61.6689L86.9753 61.6804C88.1778 64.3107 87.3958 67.5802 85.0955 70.7582C82.7982 73.932 79.0047 76.985 74.2563 79.1559C69.5079 81.3268 64.7171 82.1984 60.8138 81.8594C56.9054 81.5199 53.921 79.9723 52.7185 77.342L52.7153 77.3351L52.7115 77.3286C51.1125 74.5993 49.7002 69.752 49.7002 66.3705C49.7002 60.3704 52.5809 55.0365 57.048 51.6528C57.5502 51.2724 57.8667 50.6026 57.5947 49.9806C57.3161 49.3433 56.5975 49.1426 55.9692 49.269C54.7607 49.5123 53.5096 49.64 52.2283 49.64C42.336 49.64 36.2277 43.0174 33.6462 35.8268L33.6467 35.8266L33.6415 35.8151C32.4389 33.1848 33.221 29.9153 35.5213 26.7373C37.8186 23.5635 41.6121 20.5105 46.3605 18.3396C51.1089 16.1687 55.8997 15.2971 59.803 15.6361C63.7114 15.9756 66.6958 17.5231 67.8983 20.1534Z" stroke="black" stroke-width="0.3"/>
</g>
<g id="&#233;&#161;&#182;&#233;&#131;&#168;">
<g id="B_7">
<mask id="mask9_1443_17946" style="mask-type:alpha" maskUnits="userSpaceOnUse" x="30" y="10" width="39" height="31">
<path id="X_6" d="M33.4285 35.2846L33.4309 35.2917C33.4927 35.4687 33.5628 35.6433 33.6415 35.8153C34.844 38.4456 37.8284 39.9932 41.7368 40.3327C45.6401 40.6717 50.4309 39.8001 55.1793 37.6292C59.9277 35.4583 63.7212 32.4053 66.0185 29.2315C68.3188 26.0535 69.1008 22.7839 67.8983 20.1536C67.8376 20.0208 67.7724 19.8908 67.7028 19.7636L67.6974 19.7538L67.6978 19.7537L65.459 14.8278L33.4285 35.2846ZM33.4285 35.2846L33.4254 35.2779M33.4285 35.2846L33.4254 35.2779M33.4254 35.2779L31.2021 30.4895C31.2021 30.4894 31.202 30.4892 31.202 30.4891C29.9997 27.8589 30.7818 24.5895 33.082 21.4117C35.3792 18.2378 39.1728 15.1849 43.9212 13.014C48.6696 10.8431 53.4604 9.97145 57.3636 10.3105M33.4254 35.2779L57.3636 10.3105M57.3636 10.3105C61.2719 10.6499 64.2562 12.1974 65.4588 14.8275L57.3636 10.3105Z" fill="black" stroke="black" stroke-width="0.3"/>
</mask>
<g mask="url(#mask9_1443_17946)">
<path id="B_8" d="M33.4285 35.2846L33.4309 35.2917C33.4927 35.4687 33.5628 35.6433 33.6415 35.8153C34.844 38.4456 37.8284 39.9932 41.7368 40.3327C45.6401 40.6717 50.4309 39.8001 55.1793 37.6292C59.9277 35.4583 63.7212 32.4053 66.0185 29.2315C68.3188 26.0535 69.1008 22.7839 67.8983 20.1536C67.8376 20.0208 67.7724 19.8908 67.7028 19.7636L67.6974 19.7538L67.6978 19.7537L65.459 14.8278L33.4285 35.2846ZM33.4285 35.2846L33.4254 35.2779M33.4285 35.2846L33.4254 35.2779M33.4254 35.2779L31.2021 30.4895C31.2021 30.4894 31.202 30.4892 31.202 30.4891C29.9997 27.8589 30.7818 24.5895 33.082 21.4117C35.3792 18.2378 39.1728 15.1849 43.9212 13.014C48.6696 10.8431 53.4604 9.97145 57.3636 10.3105M33.4254 35.2779L57.3636 10.3105M57.3636 10.3105C61.2719 10.6499 64.2562 12.1974 65.4588 14.8275L57.3636 10.3105Z" fill="black" stroke="black" stroke-width="0.3"/>
<path id="1_2" d="M67.2253 29.3057L63.2151 20.8376L64.6685 21.4083L68.6088 29.7035L67.2253 29.3057Z" fill="#B5A9A9"/>
<path id="2_2" d="M62.0922 33.5543L57.3286 23.14L62.7109 23.8189L66.6511 32.1141L62.0922 33.5543Z" fill="#B5A9A9"/>
</g>
</g>
<path id="A_11" d="M31.2022 30.4894C29.9996 27.8591 30.7817 24.5896 33.082 21.4116C35.3793 18.2378 39.1728 15.1848 43.9212 13.0139C48.6696 10.843 53.4604 9.97136 57.3637 10.3104C61.2721 10.6498 64.2565 12.1974 65.459 14.8277C66.6615 17.458 65.8795 20.7276 63.5792 23.9056C61.2819 27.0794 57.4884 30.1324 52.74 32.3033C47.9916 34.4742 43.2008 35.3458 39.2975 35.0068C35.3891 34.6673 32.4047 33.1197 31.2022 30.4894Z" fill="#66DD8C" stroke="black" stroke-width="0.3"/>
<g id="C_3">
<mask id="mask10_1443_17946" style="mask-type:alpha" maskUnits="userSpaceOnUse" x="36" y="14" width="25" height="17">
<path id="X_7" d="M36.5527 28.0433C35.8071 26.4123 36.3929 24.3185 38.0248 22.2295C39.6516 20.1472 42.2928 18.1069 45.5655 16.6106C48.8382 15.1144 52.1093 14.4518 54.7484 14.5838C57.396 14.7162 59.3628 15.643 60.1084 17.274C60.8541 18.9049 60.2683 20.9988 58.6363 23.0877C57.0095 25.17 54.3683 27.2104 51.0956 28.7066C47.8229 30.2029 44.5518 30.8655 41.9127 30.7335C39.2652 30.601 37.2984 29.6742 36.5527 28.0433Z" fill="white" stroke="black" stroke-width="0.3"/>
</mask>
<g mask="url(#mask10_1443_17946)">
<path id="A_12" d="M36.5527 28.0432C35.8071 26.4123 36.3929 24.3184 38.0248 22.2295C39.6516 20.1472 42.2928 18.1068 45.5655 16.6106C48.8382 15.1144 52.1093 14.4517 54.7484 14.5837C57.396 14.7162 59.3628 15.643 60.1084 17.2739C60.8541 18.9049 60.2683 20.9987 58.6363 23.0877C57.0095 25.17 54.3683 27.2104 51.0956 28.7066C47.8229 30.2028 44.5518 30.8654 41.9127 30.7334C39.2652 30.601 37.2984 29.6742 36.5527 28.0432Z" fill="black" stroke="black" stroke-width="0.3"/>
<path id="B_9" d="M38.095 32.4312C37.3494 30.8003 37.9352 28.7064 39.5672 26.6175C41.1939 24.5352 43.8351 22.4948 47.1078 20.9986C50.3806 19.5024 53.6516 18.8397 56.2908 18.9717C58.9383 19.1042 60.9051 20.031 61.6507 21.6619C62.3964 23.2929 61.8106 25.3867 60.1786 27.4757C58.5519 29.558 55.9107 31.5984 52.6379 33.0946C49.3652 34.5908 46.0942 35.2534 43.455 35.1214C40.8075 34.989 38.8407 34.0622 38.095 32.4312Z" fill="#66DD8C" stroke="black" stroke-width="0.3"/>
<path id="&#231;&#129;&#175;&#229;&#133;&#137;A" d="M36.7805 31.2923C35.7933 29.133 36.9447 26.293 39.5229 23.6833" stroke="#66DD8C" stroke-width="0.3" stroke-linecap="round"/>
<path id="&#231;&#129;&#175;&#229;&#133;&#137;B" d="M41.4909 21.9524C42.8855 20.8775 44.522 19.8862 46.3409 19.0546C47.8274 18.3751 49.3148 17.8574 50.7505 17.499" stroke="#66DD8C" stroke-width="0.3" stroke-linecap="round"/>
<path id="&#231;&#129;&#175;&#229;&#133;&#137;C" d="M61.851 19.8305C61.0556 18.0908 59.0178 17.1119 56.3415 16.924" stroke="#66DD8C" stroke-width="0.3" stroke-linecap="round"/>
<path id="Line_7" d="M36.5527 28.0432C35.8071 26.4123 36.3929 24.3184 38.0248 22.2295C39.6516 20.1472 42.2928 18.1068 45.5655 16.6106C48.8382 15.1144 52.1093 14.4517 54.7484 14.5837C57.396 14.7162 59.3628 15.643 60.1084 17.2739C60.8541 18.9049 60.2683 20.9987 58.6363 23.0877C57.0095 25.17 54.3683 27.2104 51.0956 28.7066C47.8229 30.2028 44.5518 30.8654 41.9127 30.7334C39.2652 30.601 37.2984 29.6742 36.5527 28.0432Z" stroke="black" stroke-width="0.3"/>
</g>
</g>
</g>
<g id="&#229;&#184;&#129;">
<g id="A_13">
<ellipse id="&#233;&#152;&#180;&#229;&#189;&#177;_5" cx="68.6397" cy="64.1822" rx="4.44135" ry="1.43066" transform="rotate(-27.8304 68.6397 64.1822)" fill="black"/>
<g id="&#230;&#156;&#172;&#228;&#189;&#147;">
<path id="Vector_32" d="M67.2965 51.5063L67.9538 51.7458L67.9519 51.7461L68.5329 51.9578C68.7661 52.0428 68.9593 52.2571 69.0965 52.6108C69.2337 52.9642 69.3074 53.4393 69.3107 54.0082C69.3172 55.1448 69.0428 56.6225 68.4813 58.1689C67.9196 59.7142 67.181 61.0229 66.4459 61.8899C66.078 62.3239 65.7163 62.6408 65.3842 62.8236C65.0518 63.0067 64.7662 63.0469 64.5331 62.9623L63.2947 62.5111L63.3269 62.4225L63.3517 62.3544L63.3138 62.2927C63.0311 61.8325 62.9121 61.0232 62.9892 59.9872C63.0657 58.9588 63.3335 57.7333 63.7958 56.4628C64.2582 55.1921 64.84 54.0806 65.4416 53.2433C66.0477 52.3997 66.6584 51.8561 67.1707 51.6858L67.2395 51.6629L67.2643 51.5947L67.2965 51.5063Z" fill="#66DD8C" stroke="black" stroke-width="0.3" stroke-miterlimit="10"/>
<path id="Vector_33" d="M62.9554 59.0307C62.7434 60.3956 62.8217 61.5258 63.1941 62.1291L63.114 62.3493L64.4378 62.8317C65.182 63.1022 66.2307 62.2388 67.1695 60.7346L62.9554 59.0307Z" fill="black" stroke="black" stroke-width="0.3" stroke-miterlimit="10"/>
<path id="Vector_34" d="M67.0847 57.6691C68.175 54.6699 68.159 51.9114 67.049 51.5079C65.9391 51.1044 64.1554 53.2087 63.0651 56.2079C61.9748 59.2072 61.9908 61.9657 63.1007 62.3692C64.2107 62.7727 65.9944 60.6684 67.0847 57.6691Z" fill="#B9FFB9"/>
<path id="Vector_35" d="M67.0448 51.5198C66.1807 51.2063 64.9121 52.4085 63.8768 54.3685L64.5993 61.8236C65.4762 61.0311 66.4097 59.5258 67.0814 57.6815C68.1707 54.6818 68.1557 51.9247 67.0448 51.5198Z" fill="white"/>
<path id="Vector_36" d="M67.0847 57.6691C68.175 54.6699 68.159 51.9114 67.049 51.5079C65.9391 51.1044 64.1554 53.2087 63.0651 56.2079C61.9748 59.2072 61.9908 61.9657 63.1007 62.3692C64.2107 62.7727 65.9944 60.6684 67.0847 57.6691Z" stroke="black" stroke-width="0.3" stroke-miterlimit="10"/>
</g>
</g>
<g id="B_10">
<ellipse id="&#233;&#152;&#180;&#229;&#189;&#177;_6" cx="65.093" cy="73.2263" rx="5.82249" ry="1.87556" transform="rotate(-27.8304 65.093 73.2263)" fill="black"/>
<g id="&#230;&#156;&#172;&#228;&#189;&#147;_2">
<path id="Vector_37" d="M58.5386 71.6224L58.6865 72.3062L58.687 72.3043L58.8178 72.9087C58.8703 73.1513 59.0563 73.3719 59.3881 73.556C59.7195 73.7399 60.1802 73.8775 60.7434 73.9581C61.8685 74.1191 63.3698 74.0482 64.9782 73.7021C66.5855 73.3557 67.9825 72.8019 68.9414 72.1915C69.4214 71.886 69.7845 71.5708 70.0108 71.2667C70.2374 70.9622 70.316 70.6847 70.2639 70.4423L69.9852 69.154L69.8931 69.1739L69.8223 69.1892L69.7663 69.1432C69.3488 68.8006 68.5632 68.5727 67.5263 68.5082C66.4971 68.4442 65.2466 68.5429 63.9249 68.8282C62.6033 69.1135 61.423 69.5387 60.5116 70.0209C59.5934 70.5067 58.9719 71.0378 58.7335 71.5222L58.7015 71.5873L58.6305 71.6026L58.5386 71.6224Z" fill="#66DD8C" stroke="black" stroke-width="0.3" stroke-miterlimit="10"/>
<path id="Vector_38" d="M66.5833 68.3446C67.9643 68.3201 69.0734 68.5514 69.6204 69.0024L69.8495 68.953L70.1474 70.3301C70.3142 71.1041 69.3163 72.0257 67.6985 72.7512L66.5833 68.3446Z" fill="black" stroke="black" stroke-width="0.3" stroke-miterlimit="10"/>
<path id="Vector_39" d="M64.6729 72.2504C61.5533 72.9228 58.8226 72.5319 58.5738 71.3774C58.3249 70.2229 60.6522 68.7419 63.7718 68.0695C66.8915 67.3971 69.6222 67.788 69.871 68.9425C70.1199 70.097 67.7926 71.578 64.6729 72.2504Z" fill="#B9FFB9"/>
<path id="Vector_40" d="M58.5863 71.375C58.3931 70.4763 59.7567 69.3829 61.8393 68.6237L69.1269 70.3531C68.2225 71.1141 66.6043 71.8344 64.6858 72.249C61.5659 72.9204 58.8364 72.5307 58.5863 71.375Z" fill="white"/>
<path id="Vector_41" d="M64.6729 72.2504C61.5533 72.9228 58.8226 72.5319 58.5738 71.3774C58.3249 70.2229 60.6522 68.7419 63.7718 68.0695C66.8915 67.3971 69.6222 67.788 69.871 68.9425C70.1199 70.097 67.7926 71.578 64.6729 72.2504Z" stroke="black" stroke-width="0.3" stroke-miterlimit="10"/>
</g>
</g>
<g id="C_4">
<g id="1_3">
<path id="Vector_42" d="M47.3465 43.0114L47.7003 42.226L47.8309 42.285C48.4447 41.9677 49.838 42.1639 51.2965 42.8218C52.755 43.4796 53.823 44.3958 53.9921 45.0657L54.1227 45.1247L53.7688 45.91C53.472 46.5664 51.7941 46.4495 50.0217 45.6492C48.2486 44.848 47.0514 43.6679 47.3474 43.0107L47.3465 43.0114Z" fill="#B9FFB9"/>
<path id="Vector (Stroke)" fill-rule="evenodd" clip-rule="evenodd" d="M47.3468 43.012C47.3469 43.0119 47.3468 43.0121 47.3468 43.012C47.2951 43.1278 47.2895 43.2598 47.3253 43.4031C47.4924 44.0731 48.5618 44.9896 50.0217 45.6493C51.7941 46.4496 53.472 46.5664 53.7688 45.9101L54.1225 45.1252L53.9921 45.0658C53.823 44.3959 52.755 43.4797 51.2965 42.8218C49.9796 42.2278 48.716 42.0102 48.0312 42.2071C47.9575 42.2282 47.8906 42.2542 47.831 42.285C47.831 42.285 47.8309 42.285 47.831 42.285L47.7005 42.2262L47.3465 43.0115L47.3474 43.0107C47.3473 43.0111 47.347 43.0117 47.3468 43.012ZM47.8523 42.6042L47.9656 42.5456C48.1874 42.4309 48.6115 42.3886 49.2031 42.4778C49.7799 42.5648 50.4669 42.7695 51.1758 43.0892C51.8846 43.4089 52.4925 43.7889 52.9392 44.1639C53.3974 44.5487 53.6465 44.8951 53.7077 45.1376L53.7391 45.262L53.5016 45.7892C53.5016 45.7892 53.5015 45.7892 53.5016 45.7892C53.4749 45.8481 53.4031 45.9231 53.2221 45.9781C53.0418 46.0328 52.7878 46.0555 52.469 46.0333C51.8337 45.989 51.0054 45.7716 50.1424 45.3819C49.2791 44.9918 48.568 44.5143 48.1146 44.0672C47.8871 43.8427 47.7361 43.6374 47.6579 43.4659C47.5794 43.2938 47.5883 43.1903 47.6149 43.1312L47.8523 42.6042Z" fill="#66DD8C"/>
<path id="Vector_43" d="M52.6833 43.6006C53.3435 44.0706 53.7861 44.5664 53.887 44.97L54.0124 45.0265L53.6728 45.7802C53.4817 46.2036 52.6894 46.2905 51.6731 46.0688L52.6833 43.6006Z" fill="#66DD8C"/>
<path id="Vector (Stroke)_2" fill-rule="evenodd" clip-rule="evenodd" d="M52.5475 43.5451L51.4712 46.1749L51.6418 46.2121C52.1595 46.325 52.63 46.3618 53.002 46.3118C53.3668 46.2627 53.679 46.123 53.8065 45.8405L54.2063 44.9531L54.0091 44.8641C53.9398 44.6516 53.797 44.4308 53.6049 44.2132C53.3899 43.9696 53.1051 43.7209 52.7683 43.4812L52.6833 43.6006L52.5475 43.5451ZM52.7479 43.83C53.0046 44.0244 53.2195 44.2199 53.3849 44.4073C53.5832 44.6319 53.7024 44.836 53.7448 45.0056L53.762 45.0745L53.8184 45.0999L53.5391 45.7198C53.4755 45.8608 53.2961 45.9762 52.9629 46.0211C52.6748 46.0598 52.3027 46.0404 51.876 45.9604L52.7479 43.83Z" fill="#66DD8C"/>
<path id="Vector_44" d="M50.42 44.7777C48.7135 44.0072 47.5613 42.8707 47.8464 42.2392C48.1315 41.6076 49.7461 41.7202 51.4526 42.4906C53.159 43.261 54.3113 44.3976 54.0262 45.0291C53.7411 45.6607 52.1265 45.5481 50.42 44.7777Z" fill="#B9FFB9"/>
<path id="Vector_45" d="M47.8532 42.2424C48.0754 41.751 49.1 41.7105 50.3474 42.0784L53.1832 45.4353C52.4912 45.4791 51.4764 45.2547 50.4266 44.7815C48.7203 44.0105 47.5683 42.8749 47.8532 42.2424Z" fill="white"/>
<path id="Vector (Stroke)_3" fill-rule="evenodd" clip-rule="evenodd" d="M53.8509 44.5352C53.9355 44.7209 53.94 44.8635 53.8925 44.9687C53.845 45.0739 53.7351 45.1649 53.5398 45.2242C53.3449 45.2834 53.0825 45.3048 52.7663 45.2827C52.1352 45.2387 51.322 45.0239 50.4804 44.6439C49.6388 44.264 48.9398 43.7962 48.4894 43.3519C48.2637 43.1293 48.1063 42.9183 48.0217 42.733C47.937 42.5473 47.9326 42.4047 47.9801 42.2995C48.0276 42.1943 48.1375 42.1033 48.3328 42.044C48.5277 41.9848 48.7901 41.9634 49.1063 41.9854C49.7374 42.0294 50.5506 42.2443 51.3922 42.6242C52.2338 43.0042 52.9328 43.472 53.3832 43.9163C53.6089 44.1389 53.7663 44.3498 53.8509 44.5352ZM53.5892 43.7075C53.1082 43.233 52.3778 42.7473 51.5129 42.3569C50.648 41.9664 49.8007 41.7398 49.1267 41.6928C48.7903 41.6693 48.4889 41.69 48.2476 41.7633C48.0066 41.8364 47.8078 41.9682 47.7127 42.1788C47.6177 42.3893 47.6503 42.6256 47.7548 42.8547C47.8595 43.0842 48.0433 43.3239 48.2834 43.5607C48.7644 44.0352 49.4948 44.5208 50.3597 44.9113C51.2245 45.3017 52.0719 45.5284 52.7459 45.5754C53.0823 45.5988 53.3837 45.5781 53.625 45.5049C53.866 45.4317 54.0648 45.3 54.1599 45.0894C54.2549 44.8788 54.2222 44.6425 54.1178 44.4134C54.0131 44.184 53.8293 43.9443 53.5892 43.7075Z" fill="#66DD8C"/>
</g>
<g id="2_3">
<path id="Vector_46" d="M62.4509 40.7215L61.7307 40.3836L61.6745 40.5035C61.0535 40.65 60.1946 41.6251 59.5675 42.9631C58.9405 44.3011 58.7424 45.5855 59.0266 46.1568L58.9705 46.2767L59.6907 46.6146C60.2934 46.8963 61.3995 45.8057 62.161 44.1791C62.9225 42.5515 63.0524 41.0044 62.4497 40.7216L62.4509 40.7215Z" fill="#B9FFB9"/>
<path id="Vector (Stroke)_4" fill-rule="evenodd" clip-rule="evenodd" d="M62.4509 40.7222C62.4509 40.7221 62.451 40.7222 62.4509 40.7222C62.5569 40.7722 62.6401 40.8615 62.7012 40.9834C62.9868 41.5536 62.788 42.8391 62.161 44.1792C61.3995 45.8057 60.2934 46.8963 59.6907 46.6146L58.9709 46.2769L59.0267 46.1569C58.7425 45.5855 58.9405 44.3012 59.5676 42.9631C60.1337 41.7551 60.8889 40.8429 61.4873 40.5692C61.5516 40.5398 61.6142 40.5177 61.6745 40.5035C61.6744 40.5035 61.6745 40.5035 61.6745 40.5035L61.7306 40.3839L62.4509 40.7216L62.4498 40.7216C62.4501 40.7218 62.4506 40.722 62.4509 40.7222ZM61.8514 40.7401L61.7368 40.7672C61.5123 40.8201 61.1895 41.0453 60.8284 41.4636C60.4764 41.8713 60.1177 42.4278 59.8129 43.0781C59.5082 43.7283 59.3104 44.3601 59.2227 44.8916C59.1327 45.4368 59.1664 45.8294 59.2692 46.0362L59.322 46.1423L59.8055 46.3692C59.8054 46.3691 59.8055 46.3692 59.8055 46.3692C59.8595 46.3944 59.955 46.4039 60.1149 46.3336C60.2743 46.2636 60.4659 46.1268 60.6761 45.9195C61.0949 45.5066 61.5449 44.8562 61.9157 44.0643C62.2864 43.2717 62.498 42.5095 62.547 41.9235C62.5716 41.6293 62.554 41.3946 62.5057 41.2274C62.4573 41.0595 62.3889 40.9923 62.3347 40.9669L61.8514 40.7401Z" fill="#66DD8C"/>
<path id="Vector_47" d="M59.0635 44.3429C58.8831 45.0692 58.8708 45.683 59.0427 46.0265L58.9888 46.1415L59.68 46.4658C60.0685 46.6477 60.6762 46.2324 61.2555 45.466L59.0635 44.3429Z" fill="#66DD8C"/>
<path id="Vector (Stroke)_5" fill-rule="evenodd" clip-rule="evenodd" d="M59.1252 44.2223L61.4608 45.419L61.3635 45.5477C61.0685 45.9381 60.7607 46.2467 60.4699 46.4352C60.1846 46.6201 59.8817 46.7098 59.6225 46.5885L58.8087 46.2067L58.8935 46.0257C58.8143 45.835 58.7817 45.5944 58.7856 45.3263C58.7899 45.0263 58.84 44.6808 58.932 44.3102L59.0635 44.3429L59.1252 44.2223ZM59.1561 44.5425C59.093 44.8331 59.0598 45.0994 59.0565 45.3302C59.0525 45.6069 59.0916 45.8216 59.1638 45.966L59.1932 46.0246L59.1689 46.0764L59.7374 46.3431C59.8668 46.4037 60.0619 46.3768 60.3225 46.2079C60.5477 46.0619 60.797 45.8246 61.048 45.5119L59.1561 44.5425Z" fill="#66DD8C"/>
<path id="Vector_48" d="M61.3578 43.8075C62.0911 42.2415 62.2157 40.7521 61.6361 40.4807C61.0566 40.2093 59.9923 41.2588 59.259 42.8248C58.5258 44.3908 58.4012 45.8803 58.9807 46.1517C59.5603 46.423 60.6245 45.3735 61.3578 43.8075Z" fill="#B9FFB9"/>
<path id="Vector_49" d="M61.6334 40.487C61.1822 40.2761 60.4394 40.8636 59.786 41.8714L59.8159 45.9297C60.3274 45.5443 60.9039 44.777 61.3555 43.8142C62.0883 42.2479 62.2133 40.7592 61.6334 40.487Z" fill="white"/>
<path id="Vector (Stroke)_6" fill-rule="evenodd" clip-rule="evenodd" d="M58.8067 45.7C58.859 45.8811 58.9416 45.9837 59.0381 46.0289C59.1347 46.0742 59.2664 46.0719 59.439 45.996C59.6112 45.9204 59.808 45.7777 60.0165 45.5721C60.4325 45.1618 60.8734 44.5224 61.2351 43.7501C61.5967 42.9777 61.8055 42.2296 61.8542 41.6473C61.8786 41.3556 61.8622 41.113 61.8101 40.9323C61.7578 40.7512 61.6752 40.6485 61.5786 40.6033C61.4821 40.5581 61.3504 40.5604 61.1778 40.6362C61.0056 40.7119 60.8087 40.8546 60.6003 41.0601C60.1843 41.4704 59.7433 42.1099 59.3817 42.8822C59.0201 43.6545 58.8112 44.4027 58.7625 44.985C58.7381 45.2767 58.7546 45.5192 58.8067 45.7ZM58.4926 44.9624C58.5446 44.3406 58.7647 43.561 59.1363 42.7673C59.508 41.9737 59.9658 41.3054 60.4101 40.8672C60.6318 40.6486 60.8556 40.4819 61.0688 40.3882C61.2817 40.2946 61.5003 40.2675 61.6935 40.358C61.8868 40.4484 62.0059 40.6338 62.0704 40.8572C62.1349 41.081 62.1502 41.3595 62.1242 41.6699C62.0722 42.2917 61.8521 43.0713 61.4804 43.8649C61.1088 44.6586 60.651 45.3269 60.2067 45.765C59.9849 45.9837 59.7612 46.1504 59.548 46.2441C59.3351 46.3376 59.1165 46.3648 58.9232 46.2743C58.73 46.1838 58.6109 45.9985 58.5464 45.7751C58.4818 45.5513 58.4666 45.2727 58.4926 44.9624Z" fill="#66DD8C"/>
</g>
</g>
</g>
</g>
</g>
</g>
</svg>
