<svg width="140" height="140" viewBox="0 0 140 140" fill="none" xmlns="http://www.w3.org/2000/svg">
<g id="&#232;&#173;&#166;&#229;&#145;&#138;">
<g id="Group 1000005155">
<g id="Group">
<path id="&#233;&#152;&#180;&#229;&#189;&#177;" d="M121.272 109.848L133.411 105.355C135.663 104.523 135.663 103.16 133.411 102.325L119.452 97.1602L121.272 109.848Z" fill="black"/>
<path id="Vector" d="M76.9856 107.332L77.0373 107.472L76.9855 107.332C74.3125 108.315 70.7923 108.812 67.2608 108.815C63.7293 108.818 60.2008 108.328 57.5114 107.35L14.6401 91.7456L14.6401 91.7456C13.2906 91.2545 12.2895 90.6903 11.6284 90.0958C10.9676 89.5017 10.6572 88.8882 10.6572 88.2926C10.6572 88.2926 10.6572 88.2926 10.6572 88.2926L10.3572 88.2925L10.3572 88.2926L10.35 106.726V106.726C10.35 107.432 10.7206 108.12 11.4206 108.749C12.1202 109.378 13.1598 109.96 14.5301 110.461L14.5303 110.461L57.4016 126.065L57.4016 126.065C60.1338 127.059 63.6985 127.551 67.2525 127.548C70.8064 127.545 74.364 127.046 77.0819 126.046L77.0301 125.906L77.0819 126.046L119.7 110.37C121.053 109.873 122.078 109.295 122.768 108.67C123.458 108.045 123.822 107.361 123.822 106.661L123.83 88.2291C123.83 88.2286 123.83 88.228 123.83 88.2275H123.68L123.53 88.2275C123.53 88.2279 123.53 88.2285 123.53 88.2289C123.529 88.8173 123.224 89.425 122.573 90.0145C121.922 90.6048 120.935 91.1663 119.604 91.6554L119.656 91.7962L119.604 91.6555L76.9856 107.332Z" fill="#777E87" stroke="black" stroke-width="0.3" stroke-miterlimit="10"/>
<path id="Vector_2" d="M119.649 84.4926L119.625 84.4836H119.621L76.7746 68.8886L76.7233 69.0296L76.7746 68.8886C74.0424 67.8948 70.4777 67.4023 66.9242 67.4054C63.3707 67.4086 59.814 67.9075 57.0979 68.9069L14.4831 84.5831C14.4831 84.5831 14.4831 84.5831 14.4831 84.5831C13.1244 85.0827 12.0955 85.6634 11.4049 86.2913C10.7139 86.9196 10.3511 87.6059 10.3565 88.3104C10.3619 89.0147 10.7349 89.6996 11.4349 90.326C12.1346 90.9522 13.1719 91.5307 14.5377 92.0275C14.5377 92.0275 14.5377 92.0275 14.5378 92.0275L57.409 107.632L57.409 107.632C60.1412 108.625 63.7068 109.118 67.2612 109.115C70.8156 109.112 74.3732 108.613 77.0893 107.613L119.708 91.937L119.656 91.7963L119.708 91.937C121.066 91.4374 122.094 90.8568 122.784 90.2288C123.474 89.6005 123.837 88.9142 123.831 88.2097C123.825 87.5054 123.452 86.8205 122.752 86.1941C122.053 85.5679 121.015 84.9895 119.649 84.4926Z" fill="black" stroke="black" stroke-width="0.3" stroke-miterlimit="10"/>
<path id="Vector_3" d="M119.643 79.6291L119.618 79.6201H119.615L76.7681 64.0251L76.7168 64.1661L76.7681 64.0251C74.0359 63.0313 70.4712 62.5387 66.9177 62.5419C63.3642 62.5451 59.8075 63.0439 57.0914 64.0434L14.4766 79.7196C14.4766 79.7196 14.4766 79.7196 14.4766 79.7196C13.1179 80.2192 12.089 80.7999 11.3984 81.4278C10.7074 82.0561 10.3447 82.7424 10.3501 83.4469C10.3555 84.1512 10.7285 84.8361 11.4284 85.4625C12.1282 86.0887 13.1654 86.6672 14.5313 87.164C14.5313 87.164 14.5313 87.164 14.5313 87.164L57.4025 102.768L57.4025 102.768C60.1348 103.762 63.7004 104.254 67.2548 104.251C70.8091 104.248 74.3668 103.749 77.0829 102.75L119.701 87.0735L119.65 86.9327L119.701 87.0735C121.059 86.5739 122.087 85.9932 122.777 85.3653C123.468 84.737 123.83 84.0507 123.825 83.3461C123.819 82.6419 123.446 81.957 122.746 81.3306C122.046 80.7044 121.009 80.1259 119.643 79.6291Z" fill="#777E87" stroke="black" stroke-width="0.3" stroke-miterlimit="10"/>
<g id="Group_2">
<path id="Vector_4" d="M118.404 81.074L118.203 81.0006V81.0041L75.7477 65.5511C73.3233 64.6681 70.162 64.231 67.0117 64.2336C63.8615 64.2362 60.7078 64.6785 58.2988 65.5651C58.2988 65.5651 58.2988 65.5651 58.2988 65.5651L15.8941 81.1604L15.8941 81.1605C15.0679 81.4647 14.4379 81.8196 14.0126 82.2068C13.587 82.5943 13.356 83.0246 13.3597 83.4733C13.3634 83.9217 13.6012 84.3508 14.0325 84.7369C14.4635 85.1227 15.0987 85.4762 15.9291 85.7786L15.9291 85.7786L58.5858 101.305L58.5859 101.305C61.0085 102.186 64.1698 102.623 67.3205 102.621C70.4712 102.619 73.6257 102.178 76.0347 101.291L118.439 85.6921L118.388 85.5514L118.439 85.6921C119.266 85.3879 119.896 85.0329 120.321 84.6458C120.747 84.2583 120.978 83.828 120.974 83.3793C120.97 82.9309 120.732 82.5018 120.301 82.1157C119.87 81.7299 119.235 81.3764 118.404 81.074Z" fill="black" stroke="black" stroke-width="0.3" stroke-miterlimit="10"/>
<mask id="mask0_1434_8217" style="mask-type:alpha" maskUnits="userSpaceOnUse" x="13" y="64" width="108" height="39">
<path id="Vector_5" d="M118.353 81.2149C121.633 82.4095 121.65 84.3499 118.388 85.5514L75.9829 101.15C71.208 102.908 63.4397 102.911 58.6371 101.164L15.9804 85.6377C12.7005 84.4431 12.6832 82.5027 15.9459 81.3012L58.3506 65.7059C63.1255 63.9485 70.8904 63.9416 75.6964 65.6921L118.353 81.2184V81.2149Z" fill="white"/>
</mask>
<g mask="url(#mask0_1434_8217)">
<path id="Vector_6" d="M118.439 86.3533L118.388 86.2125L118.439 86.3533C119.266 86.0491 119.896 85.6941 120.321 85.307C120.747 84.9195 120.978 84.4892 120.974 84.0405C120.97 83.5921 120.732 83.1629 120.301 82.7769C119.87 82.391 119.235 82.0376 118.404 81.7351L118.353 81.8761L118.404 81.7351L75.7477 66.2089C73.3233 65.3258 70.162 64.8887 67.0117 64.8913C63.8615 64.8939 60.7078 65.3362 58.2988 66.2228C58.2988 66.2228 58.2988 66.2228 58.2988 66.2228L15.8941 81.8182L15.8941 81.8182C15.0679 82.1224 14.4379 82.4774 14.0126 82.8645C13.587 83.252 13.356 83.6823 13.3597 84.131C13.3634 84.5794 13.6012 85.0085 14.0325 85.3946C14.4635 85.7804 15.0987 86.1339 15.9291 86.4363L15.9291 86.4363L58.5858 101.966L58.5859 101.966C61.0085 102.847 64.1698 103.285 67.3205 103.282C70.4712 103.28 73.6257 102.839 76.0347 101.952L118.439 86.3533Z" fill="#2D3033" stroke="black" stroke-width="0.3" stroke-miterlimit="10"/>
</g>
</g>
<g id="Group 1000005149">
<path id="Vector_7" d="M99.6782 82.1298C101.013 82.615 101.02 83.4054 99.6931 83.8948L69.5449 94.9832C68.2164 95.4727 66.0572 95.4727 64.7222 94.9874L34.394 83.9499C33.057 83.4626 33.0506 82.6743 34.3792 82.1849L64.5294 71.0944C65.8559 70.607 68.0151 70.6049 69.3521 71.0901L99.6803 82.1276L99.6782 82.1298Z" fill="#777E87" stroke="black" stroke-width="0.3" stroke-miterlimit="10"/>
<path id="Vector_8" d="M99.693 83.8947L69.5449 94.9831C68.2163 95.4726 66.0571 95.4726 64.7222 94.9873L34.3939 83.9498C33.7222 83.7062 33.3875 83.3862 33.3875 83.0641V83.8524C33.3875 84.1723 33.7222 84.4944 34.3939 84.7381L64.7222 95.7756C66.0571 96.2608 68.2163 96.2608 69.5449 95.7713L99.693 84.683C100.354 84.4393 100.685 84.1215 100.685 83.8036V83.0154C100.685 83.3332 100.354 83.6511 99.693 83.8947Z" fill="black" stroke="black" stroke-width="0.3" stroke-miterlimit="10"/>
</g>
<mask id="mask1_1434_8217" style="mask-type:alpha" maskUnits="userSpaceOnUse" x="10" y="88" width="114" height="40">
<path id="Vector_9" d="M119.656 91.7962L77.0373 107.472C71.6482 109.455 62.8818 109.463 57.4601 107.491L14.5888 91.8865C11.869 90.8968 10.5072 89.5965 10.5072 88.2926L10.5 106.726C10.5 108.026 11.8617 109.326 14.5816 110.32L57.4529 125.924C62.8745 127.896 71.6373 127.889 77.0301 125.906L119.649 110.229C122.332 109.243 123.672 107.95 123.672 106.661L123.68 88.2275C123.68 89.517 122.34 90.8101 119.656 91.7962Z" fill="white"/>
</mask>
<g mask="url(#mask1_1434_8217)">
<path id="Vector_10" d="M69.1315 136.492C71.0352 136.492 72.9364 136.244 74.371 135.71L122.787 118.175C124.229 117.653 124.95 116.963 124.95 116.275V91.2393L72.9539 110.108C70.8481 110.872 69.124 113.323 69.124 115.552L69.1315 136.492Z" fill="#2D3033"/>
<g id="Group 1000005145">
<g id="Group_3">
<path id="Vector_11" d="M16.9293 100.075C16.7202 100.004 16.5165 99.9953 16.3349 100.048L15.3414 100.32C15.5231 100.27 15.724 100.276 15.9359 100.348C16.7229 100.62 17.3421 101.718 17.3174 102.8C17.2981 103.598 16.9376 104.162 16.4367 104.302L17.4302 104.03C17.931 103.892 18.2916 103.325 18.3108 102.527C18.3356 101.443 17.7191 100.345 16.9293 100.075Z" fill="black" stroke="black" stroke-width="0.3" stroke-miterlimit="10"/>
<path id="Vector_12" d="M15.9359 100.348C16.7229 100.62 17.3421 101.718 17.3174 102.8C17.2926 103.881 16.6321 104.544 15.845 104.272C15.058 103.999 14.436 102.904 14.4608 101.82C14.4856 100.736 15.146 100.078 15.9359 100.348Z" fill="#777E87" stroke="black" stroke-width="0.3" stroke-miterlimit="10"/>
</g>
<g id="Group_4">
<path id="Vector_13" d="M20.5454 101.322C20.3363 101.25 20.1354 101.242 19.951 101.294L18.9575 101.567C19.1392 101.517 19.34 101.523 19.5519 101.594C20.339 101.867 20.9582 102.965 20.9334 104.046C20.9142 104.844 20.5537 105.408 20.0528 105.549L21.0463 105.276C21.5471 105.139 21.9076 104.572 21.9269 103.774C21.9517 102.689 21.3352 101.591 20.5454 101.322Z" fill="black" stroke="black" stroke-width="0.3" stroke-miterlimit="10"/>
<path id="Vector_14" d="M19.5519 101.594C20.339 101.867 20.9581 102.965 20.9334 104.046C20.9086 105.128 20.2481 105.791 19.4611 105.519C18.674 105.246 18.0548 104.148 18.0796 103.064C18.1043 101.98 18.7676 101.322 19.5546 101.594H19.5519Z" fill="#777E87" stroke="black" stroke-width="0.3" stroke-miterlimit="10"/>
</g>
<g id="Group_5">
<path id="Vector_15" d="M29.869 104.53L24.1614 102.566C23.9523 102.494 23.7514 102.486 23.5698 102.538L22.5763 102.81C22.7579 102.761 22.9588 102.766 23.168 102.838L28.8756 104.803C29.6626 105.075 30.2818 106.173 30.2571 107.258C30.2378 108.053 29.8773 108.62 29.3737 108.758L30.3672 108.485C30.868 108.347 31.2313 107.781 31.2505 106.985C31.2753 105.901 30.6561 104.803 29.869 104.53Z" fill="black" stroke="black" stroke-width="0.3" stroke-miterlimit="10"/>
<path id="Vector_16" d="M28.8757 104.803C29.6627 105.075 30.2819 106.173 30.2571 107.258C30.2324 108.342 29.5692 109 28.7821 108.73L23.0745 106.765C22.2874 106.493 21.6682 105.395 21.693 104.31C21.7177 103.226 22.3782 102.568 23.1653 102.841L28.8729 104.806L28.8757 104.803Z" fill="#66DD8C" stroke="black" stroke-width="0.3" stroke-miterlimit="10"/>
</g>
</g>
<g id="Group 1000005146">
<g id="Group 1000005143">
<path id="Vector_17" d="M118.522 100.292L118.523 100.291C118.683 100.231 118.797 100.07 118.868 99.9036C118.944 99.7294 118.989 99.5145 118.989 99.2964V98.8143C118.989 98.5986 118.944 98.4027 118.858 98.2649C118.814 98.1953 118.754 98.133 118.676 98.0974C118.595 98.0602 118.505 98.0578 118.419 98.09C118.418 98.09 118.418 98.0901 118.418 98.0902L75.993 113.534C75.9927 113.535 75.9925 113.535 75.9923 113.535C75.8305 113.592 75.7175 113.755 75.6471 113.92C75.573 114.094 75.5293 114.308 75.5293 114.526V115.008C75.5293 115.222 75.5736 115.418 75.6601 115.556C75.7037 115.625 75.7632 115.688 75.841 115.724C75.9224 115.762 76.0123 115.765 76.0993 115.732C76.0995 115.732 76.0997 115.732 76.0999 115.732L118.522 100.292Z" fill="#777E87" stroke="black" stroke-width="0.3" stroke-miterlimit="10"/>
<g id="Group 1000005142">
<mask id="mask2_1434_8217" style="mask-type:alpha" maskUnits="userSpaceOnUse" x="75" y="98" width="44" height="18">
<path id="Vector_18" d="M118.471 98.2307C118.674 98.1546 118.839 98.4168 118.839 98.8143V99.2964C118.839 99.694 118.674 100.075 118.471 100.151L76.0473 115.592C75.8443 115.668 75.6793 115.401 75.6793 115.008V114.526C75.6793 114.128 75.84 113.748 76.043 113.676L118.471 98.2307Z" fill="white"/>
</mask>
<g mask="url(#mask2_1434_8217)">
<path id="Vector_19" d="M117.24 97.8332C117.443 97.7571 117.608 98.0193 117.608 98.4169V98.899C117.608 99.2965 117.443 99.6772 117.24 99.7533L74.8166 115.194C74.6135 115.27 74.4486 115.004 74.4486 114.611V114.128C74.4486 113.731 74.6093 113.35 74.8123 113.278L117.24 97.8332Z" fill="black" stroke="black" stroke-width="0.3" stroke-miterlimit="10"/>
<path id="Vector_20" d="M118.839 98.8143C118.839 98.5013 118.737 98.2729 118.593 98.2264C118.225 98.108 117.735 97.9473 117.363 97.8289C117.506 97.8754 117.608 98.1038 117.608 98.4167V98.8989C117.608 99.2964 117.443 99.677 117.24 99.7532L74.8165 115.194C74.7742 115.211 74.7319 115.211 74.6938 115.194C75.0618 115.312 75.5524 115.473 75.9246 115.592C75.9626 115.604 76.0049 115.604 76.0472 115.592L118.471 100.151C118.674 100.075 118.839 99.6939 118.839 99.2964V98.8143Z" fill="#777E87" stroke="black" stroke-width="0.3" stroke-miterlimit="10"/>
</g>
</g>
</g>
<g id="Group 1000005144">
<path id="Vector_21" d="M118.522 105.367L118.523 105.366C118.683 105.307 118.797 105.145 118.868 104.979C118.944 104.805 118.989 104.59 118.989 104.372V103.89C118.989 103.674 118.944 103.478 118.858 103.34C118.814 103.271 118.754 103.208 118.676 103.173C118.595 103.135 118.505 103.133 118.419 103.165C118.418 103.165 118.418 103.165 118.418 103.165L75.993 118.61C75.9927 118.61 75.9925 118.61 75.9923 118.61C75.8305 118.668 75.7175 118.83 75.6471 118.995C75.573 119.169 75.5293 119.384 75.5293 119.601V120.083C75.5293 120.297 75.5736 120.493 75.6601 120.631C75.7037 120.7 75.7632 120.763 75.841 120.799C75.9224 120.837 76.0123 120.84 76.0993 120.808C76.0995 120.807 76.0997 120.807 76.0999 120.807L118.522 105.367Z" fill="#777E87" stroke="black" stroke-width="0.3" stroke-miterlimit="10"/>
<g id="Group 1000005142_2">
<mask id="mask3_1434_8217" style="mask-type:alpha" maskUnits="userSpaceOnUse" x="75" y="103" width="44" height="18">
<path id="Vector_22" d="M118.471 103.306C118.674 103.23 118.839 103.492 118.839 103.89V104.372C118.839 104.769 118.674 105.15 118.471 105.226L76.0473 120.667C75.8443 120.743 75.6793 120.477 75.6793 120.083V119.601C75.6793 119.204 75.84 118.823 76.043 118.751L118.471 103.306Z" fill="white"/>
</mask>
<g mask="url(#mask3_1434_8217)">
<path id="Vector_23" d="M117.24 102.908C117.443 102.832 117.608 103.095 117.608 103.492V103.974C117.608 104.372 117.443 104.752 117.24 104.828L74.8166 120.269C74.6135 120.346 74.4486 120.079 74.4486 119.686V119.204C74.4486 118.806 74.6093 118.425 74.8123 118.354L117.24 102.908Z" fill="black" stroke="black" stroke-width="0.3" stroke-miterlimit="10"/>
<path id="Vector_24" d="M118.839 103.889C118.839 103.577 118.737 103.348 118.593 103.302C118.225 103.183 117.735 103.022 117.363 102.904C117.506 102.951 117.608 103.179 117.608 103.492V103.974C117.608 104.372 117.443 104.752 117.24 104.828L74.8165 120.269C74.7742 120.286 74.7319 120.286 74.6938 120.269C75.0618 120.388 75.5524 120.548 75.9246 120.667C75.9626 120.68 76.0049 120.68 76.0472 120.667L118.471 105.226C118.674 105.15 118.839 104.769 118.839 104.372V103.889Z" fill="#777E87" stroke="black" stroke-width="0.3" stroke-miterlimit="10"/>
</g>
</g>
</g>
</g>
</g>
</g>
<g id="&#230;&#150;&#185;&#229;&#157;&#151;">
<path id="A" d="M19.7446 57.2541L15.6911 49.0025L19.753 41.6309L29.3665 40.3263L33.4199 48.5774L29.3586 55.9476L19.7446 57.2541Z" fill="#777E87" stroke="black" stroke-width="0.3"/>
<g id="B">
<mask id="mask4_1434_8217" style="mask-type:alpha" maskUnits="userSpaceOnUse" x="15" y="40" width="19" height="18">
<path id="X" d="M19.7446 57.2541L15.6911 49.0025L19.753 41.6309L29.3665 40.3263L33.4199 48.5774L29.3586 55.9476L19.7446 57.2541Z" fill="white" stroke="black" stroke-width="0.3"/>
</mask>
<g mask="url(#mask4_1434_8217)">
<path id="&#233;&#152;&#180;&#229;&#189;&#177;_2" d="M25.4205 47.7851L29.4012 40.2803L33.4578 48.5711L29.4012 55.9999L25.4205 47.7851Z" fill="#2D3033"/>
<path id="Line" d="M29.4419 40.2175L25.4455 47.7752M25.4455 47.7752L15.6264 49.0361M25.4455 47.7752L29.3404 55.9547" stroke="black" stroke-width="0.3"/>
</g>
</g>
<g id="C">
<path id="A_2" d="M17.7921 50.1176L24.3621 49.2761L25.4913 51.7001L18.9213 52.5416L17.7921 50.1176Z" fill="black"/>
<path id="A_3" d="M19.365 53.5141L25.9349 52.6726L27.0642 55.0966L20.4942 55.9381L19.365 53.5141Z" fill="black"/>
<path id="Vector 8" d="M19.1848 50.9592L20.1635 50.8413" stroke="#66DD8C" stroke-width="0.3" stroke-linecap="round"/>
<path id="Vector 9" d="M21.4738 50.6248L23.676 50.3733" stroke="#66DD8C" stroke-width="0.3" stroke-linecap="round"/>
<path id="Vector 10" d="M21.9711 54.1768L22.9497 54.0588" stroke="#66DD8C" stroke-width="0.3" stroke-linecap="round"/>
<path id="Vector 11" d="M24.2097 53.8489L25.1884 53.7309" stroke="#66DD8C" stroke-width="0.3" stroke-linecap="round"/>
</g>
<path id="Line_2" d="M19.7446 57.2541L15.6911 49.0025L19.753 41.6309L29.3665 40.3263L33.4199 48.5774L29.3586 55.9476L19.7446 57.2541Z" stroke="black" stroke-width="0.3"/>
</g>
<g id="&#230;&#150;&#185;&#229;&#157;&#151;_2">
<path id="A_4" d="M115.782 24.4373L115.92 36.936L106.621 43.5957L94.0669 39.564L93.9295 27.066L103.226 20.4075L115.782 24.4373Z" fill="#2D3033" stroke="black" stroke-width="0.3"/>
<g id="B_2">
<mask id="mask5_1434_8217" style="mask-type:alpha" maskUnits="userSpaceOnUse" x="93" y="20" width="24" height="24">
<path id="X_2" d="M115.782 24.4373L115.92 36.936L106.621 43.5957L94.0669 39.564L93.9295 27.066L103.226 20.4075L115.782 24.4373Z" fill="#EBE9E9" stroke="black" stroke-width="0.3"/>
</mask>
<g mask="url(#mask5_1434_8217)">
<path id="&#233;&#152;&#180;&#229;&#189;&#177;_3" d="M103.283 32.723L94.0503 39.5613L93.9327 27.0786L103.214 20.3774L103.283 32.723Z" fill="#777E87"/>
<path id="Line_3" d="M93.9638 39.6142L103.247 32.7207M103.247 32.7207L115.965 36.9059M103.247 32.7207L103.262 20.4681" stroke="black" stroke-width="0.3"/>
</g>
</g>
<g id="C_2">
<path id="A_5" d="M113.952 34.3234L105.444 31.5204L105.479 27.9039L113.987 30.707L113.952 34.3234Z" fill="black"/>
<path id="A_6" d="M114.013 29.2617L105.504 26.4587L105.539 22.8422L114.048 25.6452L114.013 29.2617Z" fill="black"/>
<path id="Vector 8_2" d="M112.743 32.4843L111.48 32.0577" stroke="#66DD8C" stroke-width="0.3" stroke-linecap="round"/>
<path id="Vector 9_2" d="M109.755 31.5583L106.921 30.5814" stroke="#66DD8C" stroke-width="0.3" stroke-linecap="round"/>
<path id="Vector 10_2" d="M111.219 26.9337L109.956 26.5071" stroke="#66DD8C" stroke-width="0.3" stroke-linecap="round"/>
<path id="Vector 11_2" d="M108.296 26.0285L107.032 25.6019" stroke="#66DD8C" stroke-width="0.3" stroke-linecap="round"/>
</g>
<path id="Line_4" d="M115.782 24.4373L115.92 36.936L106.621 43.5957L94.0669 39.564L93.9295 27.066L103.226 20.4075L115.782 24.4373Z" stroke="black" stroke-width="0.3"/>
</g>
<g id="&#229;&#176;&#143;&#230;&#143;&#146;&#229;&#186;&#167;">
<path id="&#233;&#152;&#180;&#229;&#189;&#177;_4" d="M117.54 130.795L124.427 128.289C125.705 127.825 125.705 127.064 124.427 126.598L116.507 123.717L117.54 130.795Z" fill="black"/>
<path id="B_3" d="M117.576 130.63L117.569 130.632L117.563 130.634L112.251 132.541C111.497 132.811 110.822 131.984 111.237 131.299L117.498 120.984C117.944 120.249 119.075 120.565 119.075 121.425V127.934C119.075 129.815 118.042 130.511 117.576 130.63Z" fill="#2D3033" stroke="black" stroke-width="0.3"/>
<path id="A_7" d="M107.928 116.692C108.39 115.938 109.321 115.615 110.15 115.921L117.431 118.606C118.524 119.01 118.974 120.31 118.365 121.304L111.813 131.994C111.351 132.748 110.42 133.071 109.59 132.765L102.31 130.08C101.217 129.676 100.766 128.376 101.375 127.382L107.928 116.692Z" fill="#777E87" stroke="black" stroke-width="0.3"/>
<g id="&#230;&#143;&#146;&#229;&#173;&#148;">
<mask id="mask6_1434_8217" style="mask-type:alpha" maskUnits="userSpaceOnUse" x="100" y="115" width="19" height="19">
<path id="X_3" d="M107.928 116.692C108.39 115.938 109.321 115.615 110.15 115.921L117.431 118.606C118.524 119.01 118.974 120.31 118.365 121.304L111.813 131.994C111.351 132.748 110.42 133.071 109.59 132.765L102.31 130.08C101.217 129.676 100.766 128.376 101.375 127.382L107.928 116.692Z" fill="white" stroke="black" stroke-width="0.3"/>
</mask>
<g mask="url(#mask6_1434_8217)">
<path id="A_8" d="M106.751 122.168C107.212 121.411 108.145 121.086 108.976 121.393L112.14 122.56C113.232 122.963 113.683 124.26 113.077 125.254L109.035 131.887C108.574 132.643 107.641 132.968 106.81 132.662L103.645 131.494C102.554 131.092 102.103 129.794 102.708 128.801L106.751 122.168Z" fill="#777E87" stroke="black" stroke-width="0.3"/>
<path id="Line_5" d="M107.928 116.692C108.39 115.938 109.321 115.615 110.15 115.921L117.431 118.606C118.524 119.01 118.974 120.31 118.365 121.304L111.813 131.994C111.351 132.748 110.42 133.071 109.59 132.765L102.31 130.08C101.217 129.676 100.766 128.376 101.375 127.382L107.928 116.692Z" stroke="black" stroke-width="0.3"/>
</g>
</g>
<ellipse id="Ellipse 2583" cx="108.808" cy="125.452" rx="1.11439" ry="1.48586" transform="rotate(18.4088 108.808 125.452)" fill="black"/>
</g>
<g id="Group_6">
<path id="Vector_25" d="M31.0015 79.7305V85.2845C31.0015 86.0321 29.3445 86.6326 27.2987 86.6326C25.253 86.6326 23.596 86.0296 23.596 85.2845V79.7305H31.0015Z" fill="black"/>
<path id="Vector_26" d="M32.2001 80.1841V83.7473C32.2001 84.7315 30.0049 85.5289 27.2988 85.5289C24.5928 85.5289 22.4001 84.7315 22.4001 83.7473V80.1841H32.2001Z" fill="#777E87" stroke="black" stroke-width="0.3" stroke-miterlimit="10"/>
<path id="Vector_27" d="M26.6011 80.1243V85.5114" stroke="#2D3033" stroke-width="0.3" stroke-miterlimit="10"/>
<path id="Vector_28" d="M32.2001 80.1841V83.7473C32.2001 84.7315 30.0049 85.5289 27.2988 85.5289V80.1841H32.2001Z" fill="#2D3033"/>
<path id="Vector_29" d="M32.2001 80.1841V83.7473C32.2001 84.7315 30.0049 85.5289 27.2988 85.5289C24.5928 85.5289 22.4001 84.7315 22.4001 83.7473V80.1841H32.2001Z" stroke="black" stroke-width="0.3" stroke-miterlimit="10" stroke-linecap="round"/>
<path id="Vector_30" d="M27.2989 81.9681C24.5934 81.9681 22.4001 81.1693 22.4001 80.184C22.4001 79.1987 24.5934 78.3999 27.2989 78.3999C30.0044 78.3999 32.1976 79.1987 32.1976 80.184C32.1976 81.1693 30.0044 81.9681 27.2989 81.9681Z" fill="#777E87" stroke="black" stroke-width="0.3" stroke-miterlimit="10" stroke-linecap="round"/>
<path id="Vector_31" d="M27.2988 80.8791C26.2447 80.8791 25.3902 80.5679 25.3902 80.184C25.3902 79.8 26.2447 79.4888 27.2988 79.4888C28.353 79.4888 29.2075 79.8 29.2075 80.184C29.2075 80.5679 28.353 80.8791 27.2988 80.8791Z" fill="black"/>
<path id="5 (Stroke)" fill-rule="evenodd" clip-rule="evenodd" d="M31.1467 69.65C29.4089 69.65 28.0001 71.0588 28.0001 72.7966V79.8C28.0001 80.1866 27.6867 80.5 27.3001 80.5C26.9135 80.5 26.6001 80.1866 26.6001 79.8V72.7966C26.6001 70.2856 28.6357 68.25 31.1467 68.25C33.3139 68.25 35.1799 69.7797 35.6049 71.9049L37.2275 80.0177C38.1707 84.7336 41.5971 88.567 46.178 90.0314L73.884 98.8883C78.5902 100.393 82.2257 104.161 83.561 108.917L84.6869 112.928C86.0968 117.951 90.3132 121.686 95.4696 122.479L109.307 124.608C109.689 124.667 109.951 125.024 109.892 125.406C109.833 125.789 109.476 126.051 109.094 125.992L95.2567 123.863C89.5576 122.986 84.8973 118.858 83.339 113.307L82.2131 109.296C81.005 104.992 77.7157 101.583 73.4578 100.222L45.7517 91.3649C40.6864 89.7457 36.8976 85.5068 35.8547 80.2923L34.2321 72.1795C33.938 70.7087 32.6466 69.65 31.1467 69.65Z" fill="black"/>
<path id="4 (Stroke)" fill-rule="evenodd" clip-rule="evenodd" d="M27.3001 72.6687C27.4934 72.6687 27.6501 72.8254 27.6501 73.0187V74.375C27.6501 74.5683 27.4934 74.725 27.3001 74.725C27.1068 74.725 26.9501 74.5683 26.9501 74.375V73.0187C26.9501 72.8254 27.1068 72.6687 27.3001 72.6687ZM27.3001 75.3812C27.4934 75.3812 27.6501 75.5379 27.6501 75.7312V79.8C27.6501 79.9933 27.4934 80.15 27.3001 80.15C27.1068 80.15 26.9501 79.9933 26.9501 79.8V75.7312C26.9501 75.5379 27.1068 75.3812 27.3001 75.3812ZM64.5042 96.6246C64.563 96.4405 64.76 96.339 64.9441 96.3978L70.2816 98.1041C70.4658 98.1629 70.5673 98.3599 70.5085 98.544C70.4496 98.7281 70.2526 98.8297 70.0685 98.7708L64.731 97.0646C64.5469 97.0057 64.4453 96.8087 64.5042 96.6246ZM101.635 124.153C101.665 123.962 101.844 123.831 102.035 123.86L103.588 124.101C103.779 124.131 103.91 124.309 103.88 124.5C103.851 124.691 103.672 124.822 103.481 124.793L101.928 124.552C101.737 124.522 101.606 124.344 101.635 124.153ZM104.742 124.634C104.771 124.443 104.95 124.312 105.141 124.342L108.247 124.823C108.438 124.852 108.569 125.031 108.54 125.222C108.51 125.413 108.331 125.544 108.14 125.515L105.034 125.033C104.843 125.004 104.712 124.825 104.742 124.634Z" fill="#66DD8C"/>
</g>
<g id="&#230;&#178;&#153;&#230;&#188;&#143;">
<g id="&#229;&#186;&#149;&#233;&#131;&#168;">
<g id="B_4">
<mask id="mask7_1434_8217" style="mask-type:alpha" maskUnits="userSpaceOnUse" x="52" y="60" width="39" height="28">
<path id="X_4" d="M89.4147 67.0067C90.6171 69.637 89.835 72.9065 87.5348 76.0844C85.2375 79.2582 81.444 82.3112 76.6956 84.4821C71.9472 86.653 67.1564 87.5246 63.2531 87.1856C59.3446 86.8461 56.3603 85.2985 55.1577 82.6682L52.8329 77.553C53.1073 75.1719 54.9399 72.9578 57.6829 70.8952C60.4361 68.825 64.0753 66.9306 67.8768 65.1927C71.9496 63.3306 75.8635 61.7319 79.2271 61.0298C82.5826 60.3294 85.3457 60.5305 87.1812 62.1962L89.4146 67.0065C89.4146 67.0066 89.4147 67.0067 89.4147 67.0067Z" fill="black" stroke="black" stroke-width="0.3"/>
</mask>
<g mask="url(#mask7_1434_8217)">
<path id="B_5" d="M89.4147 67.0067C90.6171 69.637 89.835 72.9065 87.5348 76.0844C85.2375 79.2582 81.444 82.3112 76.6956 84.4821C71.9472 86.653 67.1564 87.5246 63.2531 87.1856C59.3446 86.8461 56.3603 85.2985 55.1577 82.6682L52.8329 77.553C53.1073 75.1719 54.9399 72.9578 57.6829 70.8952C60.4361 68.825 64.0753 66.9306 67.8768 65.1927C71.9496 63.3306 75.8635 61.7319 79.2271 61.0298C82.5826 60.3294 85.3457 60.5305 87.1812 62.1962L89.4146 67.0065C89.4146 67.0066 89.4147 67.0067 89.4147 67.0067Z" fill="black" stroke="black" stroke-width="0.3"/>
<path id="1" d="M88.6455 75.92L84.6354 67.4519L85.3855 67.7582L89.3258 76.0534L88.6455 75.92Z" fill="black"/>
<path id="2" d="M85.8533 78.8412L81.8431 70.373L84.6516 71.0068L88.5918 79.302L85.8533 78.8412Z" fill="black"/>
</g>
</g>
<path id="A_9" d="M86.9753 61.6806C88.1778 64.3109 87.3957 67.5804 85.0954 70.7584C82.7981 73.9323 79.0046 76.9852 74.2562 79.1561C69.5078 81.327 64.717 82.1986 60.8137 81.8596C56.9053 81.5202 53.9209 79.9726 52.7184 77.3423C51.5159 74.712 52.2979 71.4424 54.5982 68.2644C56.8955 65.0906 60.689 62.0376 65.4374 59.8667C70.1858 57.6959 74.9766 56.8242 78.8799 57.1632C82.7884 57.5027 85.7727 59.0503 86.9753 61.6806Z" fill="#66DD8C" stroke="black" stroke-width="0.3"/>
</g>
<g id="&#231;&#142;&#187;&#231;&#146;&#131;&#228;&#184;&#187;&#228;&#189;&#147;">
<g id="&#233;&#171;&#152;&#229;&#133;&#137;&#233;&#131;&#168;&#229;&#136;&#134;">
<mask id="mask8_1434_8217" style="mask-type:alpha" maskUnits="userSpaceOnUse" x="32" y="15" width="56" height="68">
<path id="X_5" d="M71.0666 31.1249C71.0666 27.7152 69.6464 22.8418 68.0348 20.091C65.5651 14.689 55.8333 13.8438 46.2982 18.2031C36.763 22.5624 31.0354 30.4754 33.5051 35.8774C36.1011 43.1086 42.2546 49.7899 52.2283 49.7899C53.5196 49.7899 54.7806 49.6612 55.9988 49.416C56.5865 49.2977 57.2172 49.4914 57.4573 50.0406C57.6923 50.5781 57.4251 51.179 56.9575 51.5331C52.4548 54.9438 49.5502 60.321 49.5502 66.3704C49.5502 69.7801 50.9705 74.6535 52.5821 77.4043C55.0517 82.8063 64.7835 83.6515 74.3187 79.2922C83.8538 74.9329 89.5814 67.0199 87.1117 61.6179C84.5157 54.3867 78.3622 47.7054 68.3885 47.7054C67.4189 47.7054 66.4664 47.7779 65.5362 47.9179C64.8623 48.0193 64.1477 47.8166 63.848 47.2046C63.535 46.5653 63.852 45.8313 64.3972 45.3737C68.4768 41.9499 71.0666 36.8371 71.0666 31.1249Z" fill="#D9D9D9"/>
</mask>
<g mask="url(#mask8_1434_8217)">
<g id="A_10">
<path d="M60.3085 30.8195C61.0685 32.2405 63.8619 40.2691 60.9033 45.0955C60.3261 48.5587 61.8026 49.5015 64.1552 51.0037C64.2271 51.0496 64.2997 51.096 64.3732 51.143C64.4256 51.1765 64.4792 51.2108 64.534 51.2458C66.3501 52.4067 69.4718 54.4023 72.061 57.5048C75.2745 56.8285 78.2978 56.7669 80.8143 57.2924C80.6977 57.1184 80.5828 56.9562 80.4699 56.807C77.0861 52.3355 72.5208 50.6709 67.9784 49.0147C67.3036 48.7686 66.6292 48.5228 65.9594 48.2679C63.5801 47.2765 63.5159 45.3448 66.4508 38.3461C68.7824 32.7861 67.2228 28.2773 66.3233 25.6769C66.1786 25.2586 66.051 24.8897 65.9594 24.5737L60.3085 30.8195Z" fill="#66DD8C"/>
<path d="M86.2478 69.2382C85.0761 71.3357 83.2291 73.4316 80.8585 75.3164C81.5113 76.8012 82.0857 78.1139 82.5156 79.1001L87.4725 72.4578C87.3502 72.1371 87.2165 71.7841 87.0727 71.4046C86.825 70.7512 86.5477 70.0193 86.2478 69.2382Z" fill="#66DD8C"/>
</g>
<path id="B_6" fill-rule="evenodd" clip-rule="evenodd" d="M80.8584 75.3165C78.9522 70.9807 76.3778 65.1775 74.7827 61.7509C74.0369 60.1489 73.0911 58.7393 72.0609 57.5049C75.2745 56.8286 78.2977 56.767 80.8142 57.2925C82.5701 59.9147 84.7066 65.2251 86.2477 69.2383C85.076 71.3358 83.229 73.4317 80.8584 75.3165Z" fill="#777E87"/>
</g>
</g>
<path id="A-&#232;&#190;&#185;&#231;&#188;&#152;&#232;&#137;&#178;" d="M67.1253 20.5068L67.1463 20.5528L67.1719 20.5965C68.6993 23.2035 70.0666 27.9036 70.0666 31.1249C70.0666 36.5273 67.6187 41.3646 63.7544 44.6077C63.0198 45.2242 62.3544 46.428 62.9499 47.6443C63.5206 48.8099 64.7893 49.0416 65.685 48.9068C66.5661 48.7742 67.4689 48.7054 68.3885 48.7054C77.8196 48.7054 83.6715 54.9949 86.1705 61.9558L86.1848 61.9954L86.2023 62.0337C87.2217 64.2635 86.6235 67.1975 84.4069 70.2597C82.2106 73.2941 78.5428 76.2615 73.9029 78.3828C69.263 80.504 64.6191 81.3366 60.8873 81.0125C57.1213 80.6854 54.5109 79.2183 53.4915 76.9885L53.4705 76.9425L53.4449 76.8988C51.9175 74.2918 50.5502 69.5917 50.5502 66.3704C50.5502 60.6495 53.2956 55.5614 57.5613 52.3303C58.2596 51.8013 58.8549 50.7411 58.3736 49.6401C57.8767 48.5035 56.6599 48.2629 55.8015 48.4357C54.6479 48.6679 53.453 48.7899 52.2283 48.7899C42.7972 48.7899 36.9453 42.5004 34.4463 35.5395L34.432 35.4999L34.4145 35.4616C33.3951 33.2318 33.9934 30.2978 36.2099 27.2356C38.4062 24.2012 42.0741 21.2338 46.7139 19.1125C51.3538 16.9913 55.9977 16.1587 59.7295 16.4828C63.4955 16.8099 66.1059 18.277 67.1253 20.5068Z" stroke="#66DD8C" stroke-width="2"/>
<path id="Line_6" d="M67.8983 20.1534L67.9015 20.1603L67.9053 20.1668C69.5043 22.8961 70.9166 27.7434 70.9166 31.1249C70.9166 36.7906 68.3481 41.8621 64.3008 45.2588C63.7271 45.7402 63.3579 46.5447 63.7133 47.2706C64.0536 47.9656 64.8514 48.1727 65.5585 48.0662C66.4813 47.9274 67.4264 47.8554 68.3885 47.8554C78.2808 47.8554 84.3891 54.478 86.9706 61.6686L86.9701 61.6688L86.9753 61.6803C88.1778 64.3106 87.3958 67.5801 85.0955 70.7581C82.7982 73.9319 79.0047 76.9849 74.2563 79.1558C69.5079 81.3267 64.7171 82.1983 60.8138 81.8593C56.9054 81.5198 53.921 79.9722 52.7185 77.3419L52.7153 77.335L52.7115 77.3285C51.1125 74.5992 49.7002 69.7519 49.7002 66.3704C49.7002 60.3703 52.5809 55.0364 57.048 51.6527C57.5502 51.2723 57.8667 50.6026 57.5948 49.9806C57.3161 49.3432 56.5975 49.1425 55.9692 49.269C54.7607 49.5122 53.5096 49.6399 52.2283 49.6399C42.336 49.6399 36.2277 43.0173 33.6463 35.8267L33.6468 35.8265L33.6415 35.815C32.439 33.1847 33.221 29.9152 35.5213 26.7372C37.8186 23.5634 41.6121 20.5104 46.3605 18.3395C51.1089 16.1686 55.8997 15.297 59.803 15.636C63.7114 15.9755 66.6958 17.5231 67.8983 20.1534Z" stroke="black" stroke-width="0.3"/>
</g>
<g id="&#233;&#161;&#182;&#233;&#131;&#168;">
<g id="B_7">
<mask id="mask9_1434_8217" style="mask-type:alpha" maskUnits="userSpaceOnUse" x="30" y="10" width="39" height="31">
<path id="X_6" d="M33.4287 35.2847L33.4311 35.2918C33.4929 35.4688 33.563 35.6434 33.6416 35.8154C34.8441 38.4457 37.8285 39.9933 41.7369 40.3328C45.6402 40.6718 50.431 39.8001 55.1794 37.6293C59.9278 35.4584 63.7213 32.4054 66.0186 29.2316C68.3189 26.0536 69.101 22.784 67.8985 20.1537C67.8377 20.0209 67.7725 19.8909 67.7029 19.7637L67.6975 19.7539L67.6979 19.7538L65.4591 14.8279L33.4287 35.2847ZM33.4287 35.2847L33.4255 35.278M33.4287 35.2847L33.4255 35.278M33.4255 35.278L31.2023 30.4896C31.2022 30.4895 31.2022 30.4893 31.2021 30.4892C29.9998 27.859 30.7819 24.5896 33.0821 21.4118C35.3794 18.2379 39.1729 15.185 43.9213 13.0141C48.6697 10.8432 53.4605 9.97155 57.3638 10.3106M33.4255 35.278L57.3638 10.3106M57.3638 10.3106C61.2721 10.65 64.2564 12.1975 65.459 14.8276L57.3638 10.3106Z" fill="black" stroke="black" stroke-width="0.3"/>
</mask>
<g mask="url(#mask9_1434_8217)">
<path id="B_8" d="M33.4287 35.2847L33.4311 35.2918C33.4929 35.4688 33.563 35.6434 33.6416 35.8154C34.8441 38.4457 37.8285 39.9933 41.7369 40.3328C45.6402 40.6718 50.431 39.8001 55.1794 37.6293C59.9278 35.4584 63.7213 32.4054 66.0186 29.2316C68.3189 26.0536 69.101 22.784 67.8985 20.1537C67.8377 20.0209 67.7725 19.8909 67.7029 19.7637L67.6975 19.7539L67.6979 19.7538L65.4591 14.8279L33.4287 35.2847ZM33.4287 35.2847L33.4255 35.278M33.4287 35.2847L33.4255 35.278M33.4255 35.278L31.2023 30.4896C31.2022 30.4895 31.2022 30.4893 31.2021 30.4892C29.9998 27.859 30.7819 24.5896 33.0821 21.4118C35.3794 18.2379 39.1729 15.185 43.9213 13.0141C48.6697 10.8432 53.4605 9.97155 57.3638 10.3106M33.4255 35.278L57.3638 10.3106M57.3638 10.3106C61.2721 10.65 64.2564 12.1975 65.459 14.8276L57.3638 10.3106Z" fill="black" stroke="black" stroke-width="0.3"/>
<path id="1_2" d="M67.2254 29.3058L63.2152 20.8376L64.6686 21.4084L68.6089 29.7036L67.2254 29.3058Z" fill="black"/>
<path id="2_2" d="M62.0924 33.5544L57.3287 23.1401L62.711 23.819L66.6513 32.1142L62.0924 33.5544Z" fill="black"/>
</g>
</g>
<path id="A_11" d="M31.2022 30.4896C29.9997 27.8593 30.7818 24.5897 33.0821 21.4117C35.3793 18.2379 39.1729 15.1849 43.9213 13.014C48.6697 10.8431 53.4605 9.97152 57.3637 10.3105C61.2722 10.65 64.2565 12.1976 65.4591 14.8279C66.6616 17.4582 65.8796 20.7277 63.5792 23.9057C61.282 27.0795 57.4885 30.1325 52.74 32.3034C47.9916 34.4743 43.2009 35.3459 39.2976 35.0069C35.3891 34.6675 32.4048 33.1199 31.2022 30.4896Z" fill="#66DD8C" stroke="black" stroke-width="0.3"/>
<g id="C_3">
<mask id="mask10_1434_8217" style="mask-type:alpha" maskUnits="userSpaceOnUse" x="36" y="14" width="25" height="17">
<path id="X_7" d="M36.5527 28.0432C35.8071 26.4123 36.3929 24.3184 38.0248 22.2295C39.6516 20.1472 42.2928 18.1068 45.5655 16.6106C48.8383 15.1144 52.1093 14.4517 54.7485 14.5837C57.396 14.7162 59.3628 15.643 60.1084 17.2739C60.8541 18.9049 60.2683 20.9987 58.6363 23.0877C57.0095 25.17 54.3684 27.2103 51.0956 28.7066C47.8229 30.2028 44.5518 30.8654 41.9127 30.7334C39.2652 30.601 37.2984 29.6742 36.5527 28.0432Z" fill="white" stroke="black" stroke-width="0.3"/>
</mask>
<g mask="url(#mask10_1434_8217)">
<path id="A_12" d="M36.5527 28.0432C35.8071 26.4123 36.3929 24.3184 38.0248 22.2295C39.6516 20.1472 42.2928 18.1068 45.5655 16.6106C48.8383 15.1144 52.1093 14.4517 54.7485 14.5837C57.396 14.7162 59.3628 15.643 60.1084 17.2739C60.8541 18.9049 60.2683 20.9987 58.6363 23.0877C57.0095 25.17 54.3684 27.2103 51.0956 28.7066C47.8229 30.2028 44.5518 30.8654 41.9127 30.7334C39.2652 30.601 37.2984 29.6742 36.5527 28.0432Z" fill="black" stroke="black" stroke-width="0.3"/>
<path id="B_9" d="M38.0951 32.4312C37.3495 30.8002 37.9353 28.7064 39.5672 26.6174C41.194 24.5351 43.8352 22.4948 47.1079 20.9985C50.3806 19.5023 53.6517 18.8397 56.2908 18.9717C58.9383 19.1041 60.9051 20.0309 61.6508 21.6619C62.3964 23.2928 61.8106 25.3867 60.1787 27.4756C58.5519 29.5579 55.9107 31.5983 52.638 33.0945C49.3653 34.5908 46.0942 35.2534 43.4551 35.1214C40.8075 34.9889 38.8407 34.0621 38.0951 32.4312Z" fill="#66DD8C" stroke="black" stroke-width="0.3"/>
<path id="&#231;&#129;&#175;&#229;&#133;&#137;A" d="M36.7805 31.2922C35.7933 29.1329 36.9447 26.2929 39.523 23.6832" stroke="#66DD8C" stroke-width="0.3" stroke-linecap="round"/>
<path id="&#231;&#129;&#175;&#229;&#133;&#137;B" d="M41.491 21.9523C42.8855 20.8774 44.522 19.8861 46.341 19.0545C47.8274 18.3749 49.3148 17.8573 50.7505 17.4989" stroke="#66DD8C" stroke-width="0.3" stroke-linecap="round"/>
<path id="&#231;&#129;&#175;&#229;&#133;&#137;C" d="M61.851 19.8306C61.0556 18.0909 59.0178 17.112 56.3415 16.9241" stroke="#66DD8C" stroke-width="0.3" stroke-linecap="round"/>
<path id="Line_7" d="M36.5527 28.0432C35.8071 26.4123 36.3929 24.3184 38.0248 22.2295C39.6516 20.1472 42.2928 18.1068 45.5655 16.6106C48.8383 15.1144 52.1093 14.4517 54.7485 14.5837C57.396 14.7162 59.3628 15.643 60.1084 17.2739C60.8541 18.9049 60.2683 20.9987 58.6363 23.0877C57.0095 25.17 54.3684 27.2103 51.0956 28.7066C47.8229 30.2028 44.5518 30.8654 41.9127 30.7334C39.2652 30.601 37.2984 29.6742 36.5527 28.0432Z" stroke="black" stroke-width="0.3"/>
</g>
</g>
</g>
<g id="&#229;&#184;&#129;">
<g id="A_13">
<ellipse id="&#233;&#152;&#180;&#229;&#189;&#177;_5" cx="68.6397" cy="64.1822" rx="4.44134" ry="1.43066" transform="rotate(-27.8304 68.6397 64.1822)" fill="black"/>
<g id="&#230;&#156;&#172;&#228;&#189;&#147;">
<path id="Vector_32" d="M67.2965 51.5065L67.9539 51.746L67.9519 51.7463L68.5329 51.9581C68.7661 52.043 68.9593 52.2573 69.0966 52.611C69.2337 52.9644 69.3074 53.4395 69.3107 54.0084C69.3173 55.145 69.0429 56.6227 68.4813 58.1691C67.9196 59.7144 67.181 61.0231 66.446 61.8901C66.078 62.3241 65.7164 62.641 65.3843 62.8239C65.0518 63.0069 64.7662 63.0471 64.5332 62.9625L63.2947 62.5113L63.327 62.4227L63.3517 62.3546L63.3138 62.2929C63.0311 61.8327 62.9121 61.0234 62.9892 59.9874C63.0657 58.959 63.3335 57.7335 63.7959 56.463C64.2582 55.1923 64.84 54.0809 65.4416 53.2435C66.0477 52.3999 66.6584 51.8563 67.1707 51.686L67.2396 51.6631L67.2643 51.5949L67.2965 51.5065Z" fill="#66DD8C" stroke="black" stroke-width="0.3" stroke-miterlimit="10"/>
<path id="Vector_33" d="M62.9553 59.0308C62.7433 60.3957 62.8217 61.5259 63.1941 62.1292L63.114 62.3494L64.4378 62.8317C65.1819 63.1023 66.2306 62.2389 67.1694 60.7347L62.9553 59.0308Z" fill="black" stroke="black" stroke-width="0.3" stroke-miterlimit="10"/>
<path id="Vector_34" d="M67.0847 57.6692C68.175 54.67 68.159 51.9115 67.049 51.508C65.9391 51.1045 64.1554 53.2088 63.0651 56.208C61.9748 59.2073 61.9908 61.9658 63.1007 62.3693C64.2107 62.7728 65.9944 60.6685 67.0847 57.6692Z" fill="#B9FFB9"/>
<path id="Vector_35" d="M67.0447 51.52C66.1807 51.2065 64.912 52.4087 63.8767 54.3687L64.5992 61.8238C65.4761 61.0313 66.4097 59.526 67.0813 57.6817C68.1706 54.682 68.1556 51.9249 67.0447 51.52Z" fill="#777E87"/>
<path id="Vector_36" d="M67.0847 57.6692C68.175 54.67 68.159 51.9115 67.049 51.508C65.9391 51.1045 64.1554 53.2088 63.0651 56.208C61.9748 59.2073 61.9908 61.9658 63.1007 62.3693C64.2107 62.7728 65.9944 60.6685 67.0847 57.6692Z" stroke="black" stroke-width="0.3" stroke-miterlimit="10"/>
</g>
</g>
<g id="B_10">
<ellipse id="&#233;&#152;&#180;&#229;&#189;&#177;_6" cx="65.093" cy="73.2265" rx="5.82249" ry="1.87556" transform="rotate(-27.8304 65.093 73.2265)" fill="black"/>
<g id="&#230;&#156;&#172;&#228;&#189;&#147;_2">
<path id="Vector_37" d="M58.5386 71.6225L58.6865 72.3063L58.687 72.3043L58.8178 72.9088C58.8703 73.1513 59.0564 73.3719 59.3881 73.556C59.7196 73.7399 60.1802 73.8775 60.7434 73.9581C61.8685 74.1191 63.3698 74.0482 64.9782 73.7021C66.5856 73.3558 67.9826 72.8019 68.9415 72.1916C69.4214 71.8861 69.7845 71.5708 70.0108 71.2667C70.2374 70.9622 70.316 70.6847 70.264 70.4424L69.9853 69.1541L69.8931 69.1739L69.8223 69.1892L69.7663 69.1433C69.3488 68.8007 68.5632 68.5727 67.5264 68.5082C66.4972 68.4442 65.2466 68.5429 63.925 68.8282C62.6033 69.1135 61.423 69.5388 60.5117 70.021C59.5935 70.5068 58.9719 71.0379 58.7335 71.5222L58.7015 71.5873L58.6306 71.6026L58.5386 71.6225Z" fill="#66DD8C" stroke="black" stroke-width="0.3" stroke-miterlimit="10"/>
<path id="Vector_38" d="M66.5833 68.3446C67.9643 68.3201 69.0734 68.5515 69.6204 69.0024L69.8495 68.953L70.1474 70.3301C70.3142 71.1041 69.3163 72.0257 67.6984 72.7512L66.5833 68.3446Z" fill="black" stroke="black" stroke-width="0.3" stroke-miterlimit="10"/>
<path id="Vector_39" d="M64.673 72.2505C61.5534 72.9228 58.8227 72.532 58.5738 71.3774C58.325 70.2229 60.6522 68.7419 63.7719 68.0695C66.8915 67.3971 69.6223 67.788 69.8711 68.9425C70.1199 70.0971 67.7927 71.5781 64.673 72.2505Z" fill="#B9FFB9"/>
<path id="Vector_40" d="M58.5863 71.3751C58.3931 70.4764 59.7567 69.383 61.8393 68.6238L69.1269 70.3531C68.2225 71.1141 66.6042 71.8344 64.6858 72.2491C61.5658 72.9204 58.8364 72.5307 58.5863 71.3751Z" fill="#777E87"/>
<path id="Vector_41" d="M64.673 72.2505C61.5534 72.9228 58.8227 72.532 58.5738 71.3774C58.325 70.2229 60.6522 68.7419 63.7719 68.0695C66.8915 67.3971 69.6223 67.788 69.8711 68.9425C70.1199 70.0971 67.7927 71.5781 64.673 72.2505Z" stroke="black" stroke-width="0.3" stroke-miterlimit="10"/>
</g>
</g>
<g id="C_4">
<g id="1_3">
<path id="Vector_42" d="M47.3465 43.0116L47.7003 42.2262L47.8309 42.2851C48.4447 41.9679 49.838 42.164 51.2965 42.8219C52.755 43.4798 53.823 44.396 53.9921 45.0659L54.1227 45.1248L53.7689 45.9102C53.472 46.5665 51.7941 46.4497 50.0218 45.6494C48.2486 44.8481 47.0514 43.6681 47.3475 43.0108L47.3465 43.0116Z" fill="#B9FFB9"/>
<path id="Vector (Stroke)" fill-rule="evenodd" clip-rule="evenodd" d="M47.3469 43.0122C47.3469 43.0121 47.3468 43.0123 47.3469 43.0122C47.2951 43.128 47.2896 43.26 47.3253 43.4033C47.4924 44.0733 48.5619 44.9898 50.0217 45.6495C51.7941 46.4497 53.472 46.5666 53.7689 45.9103L54.1225 45.1253L53.9921 45.066C53.823 44.396 52.755 43.4799 51.2965 42.822C49.9797 42.228 48.716 42.0104 48.0312 42.2072C47.9576 42.2284 47.8906 42.2544 47.831 42.2852C47.831 42.2851 47.831 42.2852 47.831 42.2852L47.7005 42.2264L47.3465 43.0117L47.3475 43.0109C47.3473 43.0112 47.347 43.0118 47.3469 43.0122ZM47.8523 42.6044L47.9656 42.5458C48.1875 42.4311 48.6115 42.3887 49.2032 42.478C49.7799 42.565 50.467 42.7696 51.1759 43.0894C51.8846 43.4091 52.4925 43.789 52.9392 44.1641C53.3974 44.5489 53.6465 44.8953 53.7077 45.1378L53.7391 45.2622L53.5016 45.7894C53.5016 45.7893 53.5016 45.7894 53.5016 45.7894C53.4749 45.8482 53.4032 45.9233 53.2222 45.9782C53.0418 46.033 52.7879 46.0556 52.469 46.0335C51.8337 45.9892 51.0054 45.7717 50.1425 45.3821C49.2791 44.992 48.568 44.5145 48.1146 44.0673C47.8871 43.8429 47.7362 43.6375 47.658 43.4661C47.5795 43.2939 47.5883 43.1905 47.6149 43.1314L47.8523 42.6044Z" fill="#66DD8C"/>
<path id="Vector_43" d="M52.6833 43.6008C53.3435 44.0707 53.7862 44.5666 53.8871 44.9701L54.0124 45.0267L53.6728 45.7803C53.4817 46.2037 52.6895 46.2907 51.6731 46.0689L52.6833 43.6008Z" fill="#66DD8C"/>
<path id="Vector (Stroke)_2" fill-rule="evenodd" clip-rule="evenodd" d="M52.5476 43.5453L51.4712 46.1751L51.6419 46.2123C52.1595 46.3252 52.6301 46.362 53.002 46.312C53.3668 46.2629 53.6791 46.1231 53.8066 45.8407L54.2064 44.9533L54.0091 44.8643C53.9399 44.6517 53.797 44.431 53.6049 44.2133C53.3899 43.9698 53.1051 43.7211 52.7684 43.4813L52.6833 43.6008L52.5476 43.5453ZM52.7479 43.8302C53.0046 44.0246 53.2196 44.2201 53.385 44.4075C53.5833 44.6321 53.7024 44.8362 53.7448 45.0057L53.762 45.0747L53.8185 45.1001L53.5392 45.72C53.4755 45.861 53.2961 45.9764 52.9629 46.0212C52.6749 46.06 52.3027 46.0406 51.876 45.9605L52.7479 43.8302Z" fill="#66DD8C"/>
<path id="Vector_44" d="M50.4201 44.7781C48.7136 44.0076 47.5613 42.8711 47.8465 42.2396C48.1316 41.608 49.7461 41.7206 51.4526 42.491C53.1591 43.2614 54.3113 44.398 54.0262 45.0295C53.7411 45.6611 52.1266 45.5485 50.4201 44.7781Z" fill="#B9FFB9"/>
<path id="Vector_45" d="M47.8532 42.2426C48.0754 41.7512 49.1001 41.7107 50.3475 42.0786L53.1833 45.4355C52.4912 45.4793 51.4765 45.2549 50.4267 44.7817C48.7204 44.0107 47.5683 42.8751 47.8532 42.2426Z" fill="#777E87"/>
<path id="Vector (Stroke)_3" fill-rule="evenodd" clip-rule="evenodd" d="M53.8508 44.5355C53.9355 44.7212 53.94 44.8638 53.8925 44.969C53.845 45.0742 53.7351 45.1652 53.5398 45.2245C53.3449 45.2837 53.0825 45.3051 52.7663 45.283C52.1351 45.239 51.322 45.0242 50.4804 44.6442C49.6387 44.2643 48.9398 43.7965 48.4894 43.3522C48.2637 43.1296 48.1062 42.9186 48.0217 42.7333C47.937 42.5476 47.9326 42.405 47.9801 42.2998C48.0276 42.1946 48.1375 42.1036 48.3328 42.0443C48.5277 41.9851 48.7901 41.9637 49.1062 41.9857C49.7374 42.0297 50.5505 42.2446 51.3922 42.6245C52.2338 43.0045 52.9327 43.4723 53.3832 43.9166C53.6089 44.1392 53.7663 44.3501 53.8508 44.5355ZM53.5892 43.7078C53.1082 43.2333 52.3777 42.7476 51.5129 42.3572C50.648 41.9667 49.8006 41.7401 49.1266 41.6931C48.7903 41.6696 48.4889 41.6903 48.2476 41.7636C48.0066 41.8367 47.8078 41.9685 47.7127 42.1791C47.6177 42.3896 47.6503 42.6259 47.7548 42.855C47.8595 43.0845 48.0433 43.3242 48.2834 43.561C48.7644 44.0355 49.4948 44.5211 50.3597 44.9116C51.2245 45.302 52.0719 45.5287 52.7459 45.5757C53.0823 45.5991 53.3837 45.5784 53.625 45.5052C53.8659 45.432 54.0648 45.3003 54.1598 45.0897C54.2549 44.8791 54.2222 44.6428 54.1177 44.4138C54.0131 44.1843 53.8293 43.9446 53.5892 43.7078Z" fill="#66DD8C"/>
</g>
<g id="2_3">
<path id="Vector_46" d="M62.4509 40.7218L61.7307 40.3839L61.6745 40.5037C61.0535 40.6503 60.1946 41.6254 59.5676 42.9634C58.9405 44.3014 58.7425 45.5858 59.0266 46.1571L58.9705 46.2769L59.6907 46.6148C60.2934 46.8965 61.3995 45.8059 62.161 44.1794C62.9225 42.5517 63.0525 41.0047 62.4498 40.7219L62.4509 40.7218Z" fill="#B9FFB9"/>
<path id="Vector (Stroke)_4" fill-rule="evenodd" clip-rule="evenodd" d="M62.4509 40.7225C62.4508 40.7224 62.451 40.7225 62.4509 40.7225C62.5568 40.7725 62.6401 40.8618 62.7011 40.9837C62.9868 41.5539 62.7879 42.8394 62.161 44.1795C61.3995 45.806 60.2934 46.8966 59.6907 46.6149L58.9709 46.2772L59.0266 46.1572C58.7425 45.5858 58.9405 44.3015 59.5675 42.9635C60.1337 41.7554 60.8888 40.8432 61.4873 40.5695C61.5516 40.5401 61.6142 40.518 61.6744 40.5038C61.6744 40.5038 61.6745 40.5038 61.6744 40.5038L61.7306 40.3842L62.4509 40.7219L62.4497 40.7219C62.4501 40.7221 62.4506 40.7223 62.4509 40.7225ZM61.8514 40.7404L61.7368 40.7675C61.5123 40.8204 61.1895 41.0456 60.8284 41.4639C60.4763 41.8716 60.1176 42.4281 59.8129 43.0784C59.5081 43.7286 59.3104 44.3604 59.2227 44.8919C59.1327 45.4371 59.1663 45.8297 59.2692 46.0365L59.322 46.1427L59.8054 46.3695C59.8054 46.3695 59.8055 46.3695 59.8054 46.3695C59.8595 46.3947 59.9549 46.4042 60.1149 46.3339C60.2742 46.2639 60.4659 46.1271 60.6761 45.9198C61.0949 45.5069 61.5449 44.8565 61.9156 44.0646C62.2864 43.272 62.4979 42.5098 62.547 41.9238C62.5716 41.6297 62.5539 41.3949 62.5057 41.2277C62.4572 41.0598 62.3889 40.9926 62.3347 40.9672L61.8514 40.7404Z" fill="#66DD8C"/>
<path id="Vector_47" d="M59.0635 44.3431C58.8832 45.0694 58.8709 45.6832 59.0427 46.0268L58.9889 46.1417L59.68 46.466C60.0685 46.6479 60.6762 46.2326 61.2555 45.4662L59.0635 44.3431Z" fill="#66DD8C"/>
<path id="Vector (Stroke)_5" fill-rule="evenodd" clip-rule="evenodd" d="M59.1252 44.2226L61.4608 45.4193L61.3635 45.5479C61.0685 45.9383 60.7607 46.2469 60.4698 46.4355C60.1846 46.6204 59.8817 46.7101 59.6225 46.5887L58.8087 46.2069L58.8935 46.026C58.8143 45.8353 58.7817 45.5946 58.7856 45.3266C58.7899 45.0266 58.84 44.681 58.932 44.3105L59.0635 44.3431L59.1252 44.2226ZM59.156 44.5428C59.093 44.8334 59.0598 45.0997 59.0564 45.3305C59.0525 45.6071 59.0916 45.8218 59.1638 45.9662L59.1932 46.0249L59.1689 46.0767L59.7374 46.3434C59.8667 46.404 60.0619 46.377 60.3225 46.2081C60.5477 46.0621 60.797 45.8248 61.048 45.5122L59.156 44.5428Z" fill="#66DD8C"/>
<path id="Vector_48" d="M61.3578 43.8076C62.0911 42.2416 62.2157 40.7522 61.6362 40.4808C61.0566 40.2094 59.9924 41.2589 59.2591 42.8249C58.5258 44.3909 58.4012 45.8804 58.9808 46.1518C59.5603 46.4231 60.6246 45.3736 61.3578 43.8076Z" fill="#B9FFB9"/>
<path id="Vector_49" d="M61.6334 40.4872C61.1822 40.2763 60.4395 40.8638 59.7861 41.8716L59.8159 45.9299C60.3274 45.5445 60.904 44.7772 61.3555 43.8143C62.0883 42.2481 62.2134 40.7594 61.6334 40.4872Z" fill="#777E87"/>
<path id="Vector (Stroke)_6" fill-rule="evenodd" clip-rule="evenodd" d="M58.8067 45.7001C58.859 45.8812 58.9416 45.9838 59.0382 46.029C59.1347 46.0742 59.2664 46.072 59.439 45.9961C59.6113 45.9204 59.8081 45.7777 60.0165 45.5722C60.4325 45.1619 60.8735 44.5225 61.2351 43.7501C61.5968 42.9778 61.8056 42.2297 61.8543 41.6474C61.8787 41.3557 61.8622 41.1131 61.8101 40.9324C61.7578 40.7513 61.6752 40.6486 61.5787 40.6034C61.4821 40.5582 61.3504 40.5605 61.1778 40.6363C61.0056 40.712 60.8088 40.8547 60.6003 41.0602C60.1843 41.4705 59.7434 42.11 59.3817 42.8823C59.0201 43.6546 58.8113 44.4028 58.7626 44.9851C58.7382 45.2768 58.7546 45.5193 58.8067 45.7001ZM58.4926 44.9625C58.5446 44.3407 58.7647 43.5611 59.1364 42.7674C59.508 41.9738 59.9658 41.3055 60.4101 40.8673C60.6319 40.6487 60.8556 40.482 61.0688 40.3883C61.2817 40.2947 61.5003 40.2676 61.6936 40.3581C61.8868 40.4485 62.0059 40.6338 62.0704 40.8573C62.135 41.0811 62.1502 41.3596 62.1243 41.67C62.0722 42.2918 61.8521 43.0714 61.4805 43.865C61.1088 44.6587 60.651 45.327 60.2067 45.7651C59.985 45.9838 59.7612 46.1505 59.548 46.2442C59.3351 46.3377 59.1165 46.3649 58.9233 46.2744C58.7301 46.1839 58.6109 45.9986 58.5464 45.7752C58.4819 45.5514 58.4666 45.2728 58.4926 44.9625Z" fill="#66DD8C"/>
</g>
</g>
</g>
</g>
</g>
</g>
</svg>
