<svg height="55" viewBox="0 0 59 55" width="59" xmlns="http://www.w3.org/2000/svg" xmlns:xlink="http://www.w3.org/1999/xlink"><linearGradient id="a" x1="122.960034%" x2="17.10569%" y1="136.489364%" y2="0%"><stop offset="0" stop-color="#01aa78"/><stop offset="1" stop-color="#3ad65b"/></linearGradient><g fill="none" fill-rule="evenodd" transform="translate(-6 -9)"><path d="m0 0h72v72h-72z"/><path d="m57.0731584 17.0158353c5.1106657 5.1679064 7.9269884 12.0421084 7.9269884 19.3459673 0 7.3038588-2.8163227 14.1780222-7.9148458 19.3459672-5.1106657 5.1679065-11.9086585 8.0158045-19.1315662 8.0158045-7.2229078 0-14.0209005-2.8478826-19.1315662-8.0158045-5.1106657-5.1679064-7.9269884-12.0421084-7.9269884-19.3459672v-.3068835l-2.40358459 2.4305192c-.5705463.5769442-1.49313674.5769442-2.06368303 0-.57055011-.5769403-.57055011-1.5098688 0-2.0868091l4.89213692-4.9469698c.5705463-.5769403 1.4931367-.5769403 2.063683 0l4.8799943 4.9469698c.5705463.5769403.5705463 1.5098688 0 2.0868091-.2913437.282335-.6555216.4296376-1.0318434.4296376-.3763187 0-.7526358-.1473026-1.0318434-.4296376l-2.3914458-2.4305192v.3068835c0 13.4660767 10.8161287 24.4156796 24.1329485 24.4156796s24.1450911-10.9496029 24.1450911-24.4156796-10.8282713-24.4156797-24.1450911-24.4034247c-6.5673594 0-12.6977374 2.6146485-17.2863853 7.3652109-.5705463.5769403-1.4931368.5892145-2.063683.0245485-.5705463-.5769403-.5826889-1.5098688-.0242788-2.0868091 5.1349129-5.3274911 12.0179419-8.2613282 19.3743421-8.2613282 7.2229078 0 14.0209005 2.8478826 19.1315662 8.0158044zm-19.1315662 2.2341156c.8133336 0 1.4567165.6628678 1.4567165 1.4730422v3.5721294h4.5644008c.8011949 0 1.4567166.6628678 1.4567166 1.4730422 0 .8101743-.6555217 1.4730421-1.4567166 1.4730421h-8.4003977c-2.0758218 0-3.7631869 1.7062763-3.7631869 3.8053635 0 2.0990834 1.6873651 3.8053596 3.7631869 3.8053596h4.7586064c3.6782115 0 6.6766428 3.0320119 6.6766428 6.7514594 0 3.6948797-2.9498532 6.7023623-6.5916446 6.7514593h-.0364179-.9711456v3.6212303c0 .8101744-.6555217 1.4730461-1.4567166 1.4730461-.8011948 0-1.4567165-.6628717-1.4567165-1.4730461v-3.6212303h-4.7221785c-.8011949 0-1.4567166-.6628678-1.4567166-1.4730421 0-.8101744.6555217-1.4730422 1.4567166-1.4730422h8.5582134c2.0758219 0 3.763187-1.7062762 3.763187-3.8053596 0-2.0990872-1.6873651-3.8053635-3.763187-3.8053635h-4.7586063c-3.6782116 0-6.6766429-3.0320118-6.6766429-6.7514593 0-3.719436 2.9984123-6.7514594 6.6766429-6.7514594h.9225866v-3.5721294c0-.8101744.6555217-1.4730422 1.4567166-1.4730422z" fill="url(#a)"/></g></svg>