<svg width="24" height="24" viewBox="0 0 24 24" fill="none" xmlns="http://www.w3.org/2000/svg">
<path d="M2 10.1206C2 9.56832 2.44772 9.12061 3 9.12061H3.66669V14.1207H3C2.44771 14.1207 2 13.673 2 13.1207V10.1206Z" fill="url(#paint0_linear_1945_28952)"/>
<path d="M20.333 9.12061H20.9997C21.552 9.12061 21.9997 9.56832 21.9997 10.1206V13.1207C21.9997 13.673 21.552 14.1207 20.9997 14.1207H20.333V9.12061Z" fill="url(#paint1_linear_1945_28952)"/>
<path fill-rule="evenodd" clip-rule="evenodd" d="M15.4597 2.92046C15.7797 3.17433 15.8334 3.63959 15.5795 3.95965L14.7543 4.99997H17.793C18.7358 4.99997 19.5 5.76421 19.5 6.70695V16.293C19.5 17.2357 18.7358 18 17.793 18H6.20697C5.26424 18 4.5 17.2357 4.5 16.293V6.70695C4.5 5.76421 5.26424 4.99997 6.20697 4.99997H9.24274L8.42017 3.96148C8.16652 3.64125 8.22049 3.17603 8.54072 2.92238C8.86096 2.66873 9.32618 2.7227 9.57983 3.04293L11.13 4.99997H12.8661L14.4205 3.0403C14.6744 2.72024 15.1396 2.66658 15.4597 2.92046ZM15.2985 8.37061C14.6082 8.37061 14.0485 8.93026 14.0485 9.62062C14.0485 10.311 14.6082 10.8706 15.2985 10.8706C15.9889 10.8706 16.5486 10.311 16.5486 9.62062C16.5486 8.93026 15.9889 8.37061 15.2985 8.37061ZM8.70119 8.37082C8.01082 8.37082 7.45117 8.93047 7.45117 9.62083C7.45117 10.3112 8.01082 10.8708 8.70119 10.8708C9.39155 10.8708 9.95121 10.3112 9.95121 9.62083C9.95121 8.93047 9.39155 8.37082 8.70119 8.37082ZM9.58444 12.2986C10.9187 13.6328 13.0818 13.6328 14.4161 12.2986L15.531 13.4136C13.581 15.3636 10.4195 15.3636 8.46945 13.4136L9.58444 12.2986Z" fill="url(#paint2_linear_1945_28952)"/>
<defs>
<linearGradient id="paint0_linear_1945_28952" x1="1.57567" y1="11.5117" x2="4.3" y2="11.5117" gradientUnits="userSpaceOnUse">
<stop stop-color="#8C8C8C"/>
<stop offset="1" stop-color="#8C8C8C" stop-opacity="0"/>
</linearGradient>
<linearGradient id="paint1_linear_1945_28952" x1="19.9087" y1="11.5117" x2="22.633" y2="11.5117" gradientUnits="userSpaceOnUse">
<stop stop-color="#8C8C8C"/>
<stop offset="1" stop-color="#8C8C8C" stop-opacity="0"/>
</linearGradient>
<linearGradient id="paint2_linear_1945_28952" x1="0.681062" y1="10.0482" x2="25.1997" y2="10.0482" gradientUnits="userSpaceOnUse">
<stop stop-color="#01BC8D"/>
<stop offset="1" stop-color="#01BC8D" stop-opacity="0"/>
</linearGradient>
</defs>
</svg>
