<svg xmlns="http://www.w3.org/2000/svg" width="12" height="12" viewBox="0 0 12 12" fill="none">
  <path fill-rule="evenodd" clip-rule="evenodd" d="M2.50009 2.75C1.94781 2.75 1.50009 3.19772 1.50009 3.75V4.51487C1.72377 4.64932 1.9181 4.82972 2.06945 5.04562C2.29112 5.36186 2.40974 5.73882 2.40909 6.125L2.40909 6.12614V6.12386L2.40909 6.125C2.40974 6.51118 2.29112 6.88814 2.06945 7.20438C1.9181 7.42028 1.72377 7.60068 1.50009 7.73513V8.5C1.50009 9.05229 1.94781 9.5 2.50009 9.5H9.50009C10.0524 9.5 10.5001 9.05228 10.5001 8.5V7.73513C10.2764 7.60068 10.0821 7.42028 9.93074 7.20438C9.70906 6.88814 9.59045 6.51118 9.59109 6.125C9.59045 5.73882 9.70906 5.36186 9.93074 5.04562C10.0821 4.82972 10.2764 4.64932 10.5001 4.51487V3.75C10.5001 3.19772 10.0524 2.75 9.50009 2.75H2.50009ZM0.500092 3.75C0.500092 2.64543 1.39552 1.75 2.50009 1.75H9.50009C10.6047 1.75 11.5001 2.64543 11.5001 3.75V4.82825C11.5001 5.03906 11.3679 5.22722 11.1695 5.29866C10.9998 5.3598 10.8531 5.4719 10.7496 5.61963C10.646 5.76735 10.5907 5.94346 10.5911 6.12386V6.12614C10.5907 6.30654 10.646 6.48265 10.7496 6.63037C10.8531 6.7781 10.9998 6.8902 11.1695 6.95134C11.3679 7.02278 11.5001 7.21094 11.5001 7.42175V8.5C11.5001 9.60457 10.6047 10.5 9.50009 10.5H2.50009C1.39552 10.5 0.500092 9.60457 0.500092 8.5V7.42175C0.500092 7.21094 0.632308 7.02278 0.830638 6.95134C1.00036 6.8902 1.14704 6.7781 1.25059 6.63037C1.35414 6.48265 1.4095 6.30654 1.40909 6.12614V6.12386C1.4095 5.94346 1.35414 5.76735 1.25059 5.61963C1.14704 5.4719 1.00036 5.3598 0.830638 5.29866C0.632308 5.22722 0.500092 5.03906 0.500092 4.82825V3.75Z" fill="#01BC8D"/>
  <path fill-rule="evenodd" clip-rule="evenodd" d="M4 7.0419C4 6.76576 4.22386 6.5419 4.5 6.5419H7.5C7.77614 6.5419 8 6.76576 8 7.0419C8 7.31805 7.77614 7.5419 7.5 7.5419H4.5C4.22386 7.5419 4 7.31805 4 7.0419Z" fill="#01BC8D"/>
  <path fill-rule="evenodd" clip-rule="evenodd" d="M4 5.25C4 4.97386 4.22386 4.75 4.5 4.75H7.5C7.77614 4.75 8 4.97386 8 5.25C8 5.52614 7.77614 5.75 7.5 5.75H4.5C4.22386 5.75 4 5.52614 4 5.25Z" fill="#01BC8D"/>
</svg>