<svg width="16" height="16" viewBox="0 0 16 16" fill="currentColor" xmlns="http://www.w3.org/2000/svg">
<path d="M8.59706 3.97701C7.27158 3.97701 6.19706 5.05153 6.19706 6.37701C6.19706 6.70838 6.46569 6.97701 6.79706 6.97701C7.12843 6.97701 7.39706 6.70838 7.39706 6.37701C7.39706 5.71427 7.93432 5.17701 8.59706 5.17701C9.2598 5.17701 9.79706 5.71427 9.79706 6.37701C9.79706 7.03974 9.2598 7.57701 8.59706 7.57701C8.26569 7.57701 7.99706 7.84564 7.99706 8.17701V9.37701C7.99706 9.70838 8.26569 9.97701 8.59706 9.97701C8.92843 9.97701 9.19706 9.70838 9.19706 9.37701V8.7014C10.2322 8.43497 10.9971 7.49531 10.9971 6.37701C10.9971 5.05153 9.92254 3.97701 8.59706 3.97701Z" />
<path d="M8.59706 12.077C9.01127 12.077 9.34706 11.7412 9.34706 11.327C9.34706 10.9128 9.01127 10.577 8.59706 10.577C8.18285 10.577 7.84706 10.9128 7.84706 11.327C7.84706 11.7412 8.18285 12.077 8.59706 12.077Z" />
<path fill-rule="evenodd" clip-rule="evenodd" d="M5.33358 0.666748C3.86082 0.666748 2.66691 1.86066 2.66691 3.33341V4.00008H1.67496C1.30677 4.00008 1.0083 4.29856 1.0083 4.66675C1.0083 5.03494 1.30677 5.33342 1.67496 5.33342H2.66691V7.33342H1.67496C1.30677 7.33342 1.0083 7.63189 1.0083 8.00008C1.0083 8.36827 1.30677 8.66675 1.67496 8.66675H2.66691V10.6667H1.67496C1.30677 10.6667 1.0083 10.9652 1.0083 11.3334C1.0083 11.7016 1.30677 12.0001 1.67496 12.0001H2.66691V12.6667C2.66691 14.1395 3.86082 15.3334 5.33358 15.3334H12.0002C13.473 15.3334 14.6669 14.1395 14.6669 12.6667V3.33341C14.6669 1.86066 13.473 0.666748 12.0002 0.666748H5.33358ZM4.00025 12.6667C4.00025 13.4031 4.5972 14.0001 5.33358 14.0001H12.0002C12.7366 14.0001 13.3336 13.4031 13.3336 12.6667V3.33341C13.3336 2.59704 12.7366 2.00008 12.0002 2.00008H5.33358C4.5972 2.00008 4.00025 2.59703 4.00025 3.33341V12.6667Z" />
</svg>
