<svg width="12" height="12" viewBox="0 0 12 12" fill="none" xmlns="http://www.w3.org/2000/svg">
<path fill-rule="evenodd" clip-rule="evenodd" d="M6.5 10V2C6.5 1.72386 6.27614 1.5 6 1.5C5.72386 1.5 5.5 1.72386 5.5 2V10C5.5 10.2761 5.72386 10.5 6 10.5C6.27614 10.5 6.5 10.2761 6.5 10ZM6 0.5C5.17157 0.5 4.5 1.17157 4.5 2V10C4.5 10.8284 5.17157 11.5 6 11.5C6.82843 11.5 7.5 10.8284 7.5 10V2C7.5 1.17157 6.82843 0.5 6 0.5ZM2.5 10V5C2.5 4.72386 2.27614 4.5 2 4.5C1.72386 4.5 1.5 4.72386 1.5 5V10C1.5 10.2761 1.72386 10.5 2 10.5C2.27614 10.5 2.5 10.2761 2.5 10ZM2 3.5C1.17157 3.5 0.5 4.17157 0.5 5V10C0.5 10.8284 1.17157 11.5 2 11.5C2.82843 11.5 3.5 10.8284 3.5 10V5C3.5 4.17157 2.82843 3.5 2 3.5ZM10.5 7V10C10.5 10.2761 10.2761 10.5 10 10.5C9.72386 10.5 9.5 10.2761 9.5 10V7C9.5 6.72386 9.72386 6.5 10 6.5C10.2761 6.5 10.5 6.72386 10.5 7ZM8.5 7C8.5 6.17157 9.17157 5.5 10 5.5C10.8284 5.5 11.5 6.17157 11.5 7V10C11.5 10.8284 10.8284 11.5 10 11.5C9.17157 11.5 8.5 10.8284 8.5 10V7Z" />
</svg>
