<svg xmlns="http://www.w3.org/2000/svg" width="16" height="16" viewBox="0 0 16 16" fill="none">
  <path fill-rule="evenodd" clip-rule="evenodd" d="M3.77962 13.918C2.55673 12.9938 1.67097 11.6938 1.25837 10.2176C0.845768 8.74134 0.929125 7.17048 1.49564 5.74619C2.06216 4.3219 3.08052 3.12294 4.39435 2.33339C4.70994 2.14374 5.11952 2.24583 5.30917 2.56142C5.49882 2.87701 5.39673 3.28659 5.08114 3.47624C4.01756 4.11539 3.19318 5.08599 2.73457 6.23898C2.27596 7.39197 2.20848 8.66363 2.54249 9.85868C2.8765 11.0537 3.59354 12.1061 4.5835 12.8542C5.57347 13.6024 6.78163 14.0049 8.02247 14C9.26332 13.995 10.4682 13.583 11.4522 12.827C12.4362 12.0711 13.1449 11.013 13.4694 9.81535C13.794 8.61769 13.7164 7.34661 13.2487 6.19729C12.7809 5.04797 11.9489 4.08395 10.8803 3.45324C10.5632 3.2661 10.4578 2.85735 10.645 2.54026C10.8321 2.22318 11.2409 2.11785 11.558 2.30499C12.878 3.08409 13.9058 4.27494 14.4836 5.69469C15.0614 7.11444 15.1572 8.6846 14.7564 10.1641C14.3555 11.6435 13.4801 12.9505 12.2645 13.8843C11.049 14.8182 9.56056 15.3272 8.02776 15.3333C6.49495 15.3394 5.00252 14.8421 3.77962 13.918Z" fill="#8C8C8C"/>
  <path fill-rule="evenodd" clip-rule="evenodd" d="M8 1C8.36819 1 8.66667 1.29848 8.66667 1.66667V8.33333C8.66667 8.70152 8.36819 9 8 9C7.63181 9 7.33333 8.70152 7.33333 8.33333V1.66667C7.33333 1.29848 7.63181 1 8 1Z" fill="#8C8C8C"/>
</svg>