<svg fill="none" height="12" viewBox="0 0 12 12" width="12" xmlns="http://www.w3.org/2000/svg" xmlns:xlink="http://www.w3.org/1999/xlink"><clipPath id="a"><path d="m0 0h12v12h-12z"/></clipPath><g clip-path="url(#a)" fill="#3c475b"><path d="m4 4.6562c0-1.10457.89543-2 2-2s2 .89543 2 2c0 .93191-.63739 1.71497-1.5 1.93699v.56301c0 .27614-.22386.5-.5.5s-.5-.22386-.5-.5v-1c0-.27615.22386-.5.5-.5.55228 0 1-.44772 1-1 0-.55229-.44772-1-1-1s-1 .44771-1 1c0 .27614-.22386.5-.5.5s-.5-.22386-.5-.5z"/><path d="m6.625 8.7812c0 .34518-.27983.625-.625.625s-.625-.27982-.625-.625c0-.34517.27983-.625.625-.625s.625.27983.625.625z"/><path clip-rule="evenodd" d="m2.11091 2.11091c.99477-.99475 2.37046-1.61091 3.88909-1.61091s2.89432.61616 3.88908 1.61091c.99472.99477 1.61092 2.37045 1.61092 3.88909s-.6162 2.89432-1.61092 3.88908c-.99476.99472-2.37044 1.61092-3.88908 1.61092s-2.89432-.6162-3.88909-1.61092c-.99475-.99476-1.61091-2.37045-1.61091-3.88908s.61616-2.89432 1.61091-3.88909zm3.88909-.61091c-1.24277 0-2.36708.50313-3.18198 1.31802-.81489.8149-1.31802 1.93921-1.31802 3.18198s.50313 2.36708 1.31802 3.18197c.8149.81489 1.93922 1.31803 3.18198 1.31803s2.36708-.50314 3.18197-1.31803 1.31803-1.93921 1.31803-3.18197-.50314-2.36708-1.31803-3.18198c-.81489-.81489-1.9392-1.31802-3.18197-1.31802z" fill-rule="evenodd"/></g></svg>