<svg fill="none" height="21" viewBox="0 0 21 21" width="21" xmlns="http://www.w3.org/2000/svg"><g fill="#1d1d1d"><path d="m11.061 7.10073c0-.46024-.3731-.83334-.8333-.83334-.46024 0-.83333.3731-.83333.83334v2.5h-2.5c-.46024 0-.83334.37309-.83334.83337 0 .4602.3731.8333.83334.8333h2.5v2.5c0 .4602.37309.8333.83333.8333.4602 0 .8333-.3731.8333-.8333v-2.5h2.5c.4603 0 .8334-.3731.8334-.8333 0-.46028-.3731-.83337-.8334-.83337h-2.5z"/><path clip-rule="evenodd" d="m10.2277 1.2674c-5.06274 0-9.16666 4.10392-9.16666 9.1667 0 5.0627 4.10392 9.1666 9.16666 9.1666 5.0627 0 9.1667-4.1039 9.1667-9.1666 0-5.06278-4.104-9.1667-9.1667-9.1667zm-7.5 9.1667c0-4.1423 3.35774-7.50004 7.5-7.50004 4.1423 0 7.5 3.35774 7.5 7.50004 0 4.1422-3.3577 7.5-7.5 7.5-4.14226 0-7.5-3.3578-7.5-7.5z" fill-rule="evenodd"/></g></svg>