<svg fill="none" height="72" viewBox="0 0 72 72" width="72" xmlns="http://www.w3.org/2000/svg" xmlns:xlink="http://www.w3.org/1999/xlink"><filter id="a" color-interpolation-filters="sRGB" filterUnits="userSpaceOnUse" height="72" width="72" x="0" y="0"><feFlood flood-opacity="0" result="BackgroundImageFix"/><feBlend in="SourceGraphic" in2="BackgroundImageFix" mode="normal" result="shape"/><feGaussianBlur result="effect1_foregroundBlur_61_1042" stdDeviation="3"/></filter><filter id="b" color-interpolation-filters="sRGB" filterUnits="userSpaceOnUse" height="26.7209" width="23.3945" x="17.29" y="22.7349"><feFlood flood-opacity="0" result="BackgroundImageFix"/><feColorMatrix in="SourceAlpha" result="hardAlpha" type="matrix" values="0 0 0 0 0 0 0 0 0 0 0 0 0 0 0 0 0 0 127 0"/><feOffset dy=".245787"/><feComposite in2="hardAlpha" operator="out"/><feColorMatrix type="matrix" values="0 0 0 0 0.716848 0 0 0 0 0.716848 0 0 0 0 0.716848 0 0 0 1 0"/><feBlend in2="BackgroundImageFix" mode="normal" result="effect1_dropShadow_61_1042"/><feColorMatrix in="SourceAlpha" result="hardAlpha" type="matrix" values="0 0 0 0 0 0 0 0 0 0 0 0 0 0 0 0 0 0 127 0"/><feOffset dy="-.245787"/><feComposite in2="hardAlpha" operator="out"/><feColorMatrix type="matrix" values="0 0 0 0 1 0 0 0 0 1 0 0 0 0 1 0 0 0 0.5 0"/><feBlend in2="effect1_dropShadow_61_1042" mode="normal" result="effect2_dropShadow_61_1042"/><feBlend in="SourceGraphic" in2="effect2_dropShadow_61_1042" mode="normal" result="shape"/></filter><filter id="c" color-interpolation-filters="sRGB" filterUnits="userSpaceOnUse" height="18.9005" width="17.7709" x="20.7158" y="26.4004"><feFlood flood-opacity="0" result="BackgroundImageFix"/><feColorMatrix in="SourceAlpha" result="hardAlpha" type="matrix" values="0 0 0 0 0 0 0 0 0 0 0 0 0 0 0 0 0 0 127 0"/><feOffset dy="-.245787"/><feComposite in2="hardAlpha" operator="out"/><feColorMatrix type="matrix" values="0 0 0 0 1 0 0 0 0 1 0 0 0 0 1 0 0 0 0.5 0"/><feBlend in2="BackgroundImageFix" mode="normal" result="effect1_dropShadow_61_1042"/><feBlend in="SourceGraphic" in2="effect1_dropShadow_61_1042" mode="normal" result="shape"/><feColorMatrix in="SourceAlpha" result="hardAlpha" type="matrix" values="0 0 0 0 0 0 0 0 0 0 0 0 0 0 0 0 0 0 127 0"/><feOffset dx="1.22893"/><feGaussianBlur stdDeviation=".614466"/><feComposite in2="hardAlpha" k2="-1" k3="1" operator="arithmetic"/><feColorMatrix type="matrix" values="0 0 0 0 0 0 0 0 0 0 0 0 0 0 0 0 0 0 0.35 0"/><feBlend in2="shape" mode="normal" result="effect2_innerShadow_61_1042"/></filter><filter id="d" color-interpolation-filters="sRGB" filterUnits="userSpaceOnUse" height="14.6822" width="21.2639" x="18.9643" y="25.7073"><feFlood flood-opacity="0" result="BackgroundImageFix"/><feBlend in="SourceGraphic" in2="BackgroundImageFix" mode="normal" result="shape"/><feGaussianBlur result="effect1_foregroundBlur_61_1042" stdDeviation="1.72051"/></filter><filter id="e" color-interpolation-filters="sRGB" filterUnits="userSpaceOnUse" height="9.54544" width="10.2644" x="24.332" y="31.5981"><feFlood flood-opacity="0" result="BackgroundImageFix"/><feColorMatrix in="SourceAlpha" result="hardAlpha" type="matrix" values="0 0 0 0 0 0 0 0 0 0 0 0 0 0 0 0 0 0 127 0"/><feOffset dx=".486208"/><feGaussianBlur stdDeviation=".243104"/><feComposite in2="hardAlpha" operator="out"/><feColorMatrix type="matrix" values="0 0 0 0 0 0 0 0 0 0 0 0 0 0 0 0 0 0 0.25 0"/><feBlend in2="BackgroundImageFix" mode="normal" result="effect1_dropShadow_61_1042"/><feBlend in="SourceGraphic" in2="effect1_dropShadow_61_1042" mode="normal" result="shape"/></filter><linearGradient id="f" gradientUnits="userSpaceOnUse" x1="6" x2="66" y1="6" y2="70.2"><stop offset="0" stop-color="#404c8a"/><stop offset="1" stop-color="#17233f"/></linearGradient><linearGradient id="g" gradientUnits="userSpaceOnUse" x1="6" x2="66" y1="6" y2="66"><stop offset="0" stop-color="#fee37d"/><stop offset="1" stop-color="#f2c13f"/></linearGradient><linearGradient id="h" gradientUnits="userSpaceOnUse" x1="26.2031" x2="57.0718" y1="24.1171" y2="24.1171"><stop offset=".412101" stop-color="#959595"/><stop offset="1" stop-color="#dfdfdf"/></linearGradient><linearGradient id="i" gradientUnits="userSpaceOnUse" x1="29.1085" x2="29.1085" y1="19.7638" y2="52.427"><stop offset="0" stop-color="#d4d4d4"/><stop offset=".26157" stop-color="#c6c6c6"/><stop offset=".501157" stop-color="#969696"/><stop offset=".777204" stop-color="#acacac"/><stop offset="1" stop-color="#d2d2d2"/></linearGradient><linearGradient id="j" gradientUnits="userSpaceOnUse" x1="29.1085" x2="29.1085" y1="19.7638" y2="52.427"><stop offset="0" stop-color="#e7e7e7"/><stop offset=".511574" stop-color="#d8d8d8"/><stop offset="1" stop-color="#dfdfdf"/></linearGradient><linearGradient id="k" gradientUnits="userSpaceOnUse" x1="28.987" x2="28.987" y1="22.9326" y2="49.2581"><stop offset="0" stop-color="#eaeaea"/><stop offset="1" stop-color="#ababab"/></linearGradient><linearGradient id="l" gradientUnits="userSpaceOnUse" x1="28.901" x2="28.9837" y1="22.9326" y2="49.2582"><stop offset=".0004" stop-color="#6c6c6c"/><stop offset=".506366" stop-color="#696969"/><stop offset="1" stop-color="#5d5d5d"/></linearGradient><linearGradient id="m" gradientUnits="userSpaceOnUse" x1="28.9869" x2="28.9869" y1="26.3452" y2="45.6019"><stop offset="0" stop-color="#909090"/><stop offset=".0001" stop-color="#6b6b6b"/><stop offset=".0002" stop-color="#929292"/><stop offset="1" stop-color="#545454"/></linearGradient><linearGradient id="n" gradientUnits="userSpaceOnUse" x1="29.2034" x2="29.2034" y1="26.8327" y2="45.6018"><stop offset="0" stop-color="#d2eee4"/><stop offset="1" stop-color="#2bb885"/></linearGradient><mask id="o" height="19" maskUnits="userSpaceOnUse" width="17" x="21" y="27"><path d="m28.6037 27.1781c.3712-.2138.8282-.2138 1.1994 0l3.4178 1.9684 3.4008 2.0319c.3601.2152.582.6026.5853 1.0222l.0314 4.0167-.0314 4.0166c-.0033.4196-.2252.807-.5853 1.0222l-3.4008 2.0319-3.4178 1.9684c-.3712.2138-.8282.2138-1.1994 0l-3.4178-1.9684-3.4008-2.0319c-.3601-.2152-.582-.6026-.5853-1.0222l-.0314-4.0166.0314-4.0167c.0033-.4196.2252-.807.5853-1.0222l3.4008-2.0319z" fill="url(#n)"/></mask><g filter="url(#a)"><rect fill="#f2c03f" height="60" rx="4" width="60" x="6" y="6"/></g><rect fill="url(#f)" height="59.5" rx="3.75" stroke="url(#g)" stroke-width=".5" width="59.5" x="6.25" y="6.25"/><path d="m26.2031 27.6921c0-1.9745 1.6006-3.575 3.575-3.575h23.7187c1.9745 0 3.575 1.6005 3.575 3.575v16.5951c0 1.9745-1.6005 3.575-3.575 3.575h-23.7187c-1.9744 0-3.575-1.6005-3.575-3.575z" fill="url(#h)"/><path d="m50.3946 42.011h-2.5961v-8.5008l-2.4062 2.0896v-2.7703l2.4062-2.0896h2.5961z" fill="#646464"/><path d="m28.1223 20.3356c.61-.3536 1.3625-.3536 1.9725 0l5.9589 3.4549 5.9376 3.5712c.5865.3528.9474.9853.9527 1.6697l.0549 7.064-.0549 7.064c-.0053.6845-.3662 1.3169-.9527 1.6697l-5.9376 3.5712-5.9589 3.4549c-.61.3537-1.3625.3537-1.9725 0l-5.9589-3.4549-5.9376-3.5712c-.5865-.3528-.9474-.9852-.9527-1.6697l-.0549-7.064.0549-7.064c.0053-.6844.3662-1.3169.9527-1.6697l5.9376-3.5712z" fill="url(#i)" stroke="url(#j)" stroke-width=".245787"/><path d="m42.8623 32.6828h-.4837c-.6648 0-1.2038.539-1.2038 1.2038v4.3425c0 .6648.539 1.2038 1.2038 1.2038h.4837z" fill="#d6d6d6"/><path d="m15.3359 32.4391h.4837c.6649 0 1.2039.5389 1.2039 1.2038v4.3425c0 .6648-.539 1.2038-1.2039 1.2038h-.4837z" fill="#d2d2d2"/><g filter="url(#b)"><path d="m28.0174 23.4821c.6015-.3409 1.3377-.3409 1.9392 0l4.7562 2.6959 4.7128 2.7711c.5959.3504.9641.988.9696 1.6793l.0434 5.467-.0434 5.4669c-.0055.6913-.3737 1.3289-.9696 1.6793l-4.7128 2.7712-4.7562 2.6958c-.6015.3409-1.3377.3409-1.9392 0l-4.7562-2.6958-4.7128-2.7712c-.5959-.3504-.9641-.988-.9696-1.6793l-.0434-5.4669.0434-5.467c.0055-.6913.3737-1.3289.9696-1.6793l4.7128-2.7711z" fill="url(#k)"/><path d="m28.0174 23.4821c.6015-.3409 1.3377-.3409 1.9392 0l4.7562 2.6959 4.7128 2.7711c.5959.3504.9641.988.9696 1.6793l.0434 5.467-.0434 5.4669c-.0055.6913-.3737 1.3289-.9696 1.6793l-4.7128 2.7712-4.7562 2.6958c-.6015.3409-1.3377.3409-1.9392 0l-4.7562-2.6958-4.7128-2.7712c-.5959-.3504-.9641-.988-.9696-1.6793l-.0434-5.4669.0434-5.467c.0055-.6913.3737-1.3289.9696-1.6793l4.7128-2.7711z" stroke="url(#l)" stroke-width=".491573"/></g><g filter="url(#c)"><path d="m28.008 26.9072c.6062-.348 1.3516-.348 1.9579 0l3.1563 1.8119 3.1461 1.8736c.5907.3518.9548.9865.9601 1.674l.0291 3.7068-.0291 3.7069c-.0053.6874-.3694 1.3221-.9601 1.6739l-3.1461 1.8736-3.1563 1.812c-.6063.348-1.3517.348-1.9579 0l-3.1564-1.812-3.1461-1.8736c-.5906-.3518-.9547-.9865-.9601-1.674l-.0291-3.7068.0291-3.7068c.0054-.6875.3695-1.3222.9601-1.674l3.1461-1.8736z" fill="url(#m)"/></g><g mask="url(#o)"><path clip-rule="evenodd" d="m30.1662 36.5976 4.0616 4.0057 2.5636-2.528c.4584-.407 1.1598-.3889 1.596.0412s.4545 1.1217.0417 1.5738l-3.3831 3.3367c-.4544.4407-1.1833.4407-1.6377 0l-4.881-4.8144v2.8616c0 .6315-.5192 1.1435-1.1597 1.1435-.6404 0-1.1596-.512-1.1596-1.1435v-8.9568c0-.6316.5192-1.1435 1.1596-1.1435.6405 0 1.1597.5119 1.1597 1.1435v2.8615l4.8804-4.8131c.4543-.4411 1.1834-.4411 1.6377 0l3.3856 3.3361c.4128.452.3944 1.1436-.0417 1.5737-.4362.4302-1.1376.4483-1.596.0412l-2.5636-2.528zm4.0635-1.1447c-.4696-.0003-.8931.2785-1.073.7062-.1799.4278-.0807.9202.2512 1.2478.332.3275.8314.4256 1.2652.2484.4339-.1771.7168-.5946.7168-1.0577.0002-.3036-.122-.5948-.3395-.8096-.2176-.2148-.5128-.3356-.8207-.3357z" fill="#fff" fill-opacity=".08" fill-rule="evenodd"/></g><g filter="url(#d)"><path d="m22.4053 32.6828c-.0001 1.5135 5.4153-.9241 8.1658.2437l6.2157 4.022c-.2843-2.397-.8531-4.2657-1.2187-4.7533-.3656-.4875-3.7782-2.3156-6.2158-3.0469-2.0719.2438-6.947 2.085-6.947 3.5345z" fill="#c9c9c9" fill-opacity=".6"/></g><g filter="url(#e)"><path d="m24.332 32.0843h2.7719l1.9298 6.1696 1.9006-6.1696h2.69l-3.1813 8.573h-2.8713z" fill="#ececec"/></g></svg>