<svg fill="none" height="36" viewBox="0 0 36 36" width="36" xmlns="http://www.w3.org/2000/svg"><circle cx="17.9994" cy="18" fill="#fff" fill-opacity=".2" r="15.0004"/><circle cx="17.9994" cy="18" r="14.5004" stroke="#fff" stroke-opacity=".4"/><path clip-rule="evenodd" d="m18 19.0446 4.0611 4.0593c.288.2878.7548.2877 1.0427-.0001.2878-.2879.2879-.7547.0001-1.0427l-4.0593-4.0611 4.0593-4.0611c.2878-.288.2877-.7548-.0001-1.0426-.2879-.2879-.7547-.288-1.0427-.0002l-4.0611 4.0593-4.0611-4.0593c-.288-.2878-.7548-.2877-1.0426.0002-.2879.2878-.288.7546-.0002 1.0426l4.0593 4.0611-4.0593 4.0611c-.2878.288-.2877.7548.0002 1.0427.2878.2878.7546.2879 1.0426.0001z" fill="#fff" fill-rule="evenodd"/></svg>