<svg fill="none" height="400" viewBox="0 0 375 400" width="375" xmlns="http://www.w3.org/2000/svg" xmlns:xlink="http://www.w3.org/1999/xlink"><linearGradient id="a" gradientUnits="userSpaceOnUse" x1="187.5" x2="187.5" y1="0" y2="400"><stop offset=".505113" stop-color="#d9d9d9"/><stop offset=".778544" stop-color="#d9d9d9" stop-opacity=".34"/><stop offset=".94299" stop-color="#d9d9d9" stop-opacity="0"/></linearGradient><linearGradient id="b"><stop offset="0" stop-color="#5019eb" stop-opacity=".78"/><stop offset="1" stop-color="#61ffff" stop-opacity=".33"/></linearGradient><linearGradient id="c" gradientUnits="userSpaceOnUse" x1="523" x2="372.112" xlink:href="#b" y1="354.393" y2="354.393"/><linearGradient id="d" gradientUnits="userSpaceOnUse" x1="523" x2="357.852" xlink:href="#b" y1="274.13" y2="274.13"/><linearGradient id="e" gradientUnits="userSpaceOnUse" x1="482.052" x2="343.593" xlink:href="#b" y1="231.659" y2="231.659"/><linearGradient id="f" gradientUnits="userSpaceOnUse" x1="423.126" x2="329.334" xlink:href="#b" y1="224.521" y2="224.521"/><linearGradient id="g" gradientUnits="userSpaceOnUse" x1="371.489" x2="315.08" xlink:href="#b" y1="217.38" y2="217.38"/><linearGradient id="h" gradientUnits="userSpaceOnUse" x1="325.853" x2="300.826" xlink:href="#b" y1="210.241" y2="210.241"/><linearGradient id="i" gradientUnits="userSpaceOnUse" x1="285.662" x2="285.148" xlink:href="#b" y1="203.108" y2="203.111"/><linearGradient id="j" gradientUnits="userSpaceOnUse" x1="523" x2="286.482" xlink:href="#b" y1="513.732" y2="513.732"/><linearGradient id="k" gradientUnits="userSpaceOnUse" x1="523" x2="286.418" xlink:href="#b" y1="503.338" y2="503.338"/><linearGradient id="l" gradientUnits="userSpaceOnUse" x1="523" x2="286.349" xlink:href="#b" y1="492.499" y2="492.499"/><linearGradient id="m" gradientUnits="userSpaceOnUse" x1="523" x2="286.26" xlink:href="#b" y1="481.173" y2="481.173"/><linearGradient id="n" gradientUnits="userSpaceOnUse" x1="523" x2="286.22" xlink:href="#b" y1="469.36" y2="469.36"/><linearGradient id="o" gradientUnits="userSpaceOnUse" x1="523" x2="286.146" xlink:href="#b" y1="456.989" y2="456.989"/><linearGradient id="p" gradientUnits="userSpaceOnUse" x1="523" x2="285.973" xlink:href="#b" y1="430.436" y2="430.436"/><linearGradient id="q" gradientUnits="userSpaceOnUse" x1="523" x2="286.057" xlink:href="#b" y1="444.021" y2="444.021"/><linearGradient id="r" gradientUnits="userSpaceOnUse" x1="523" x2="285.889" xlink:href="#b" y1="416.179" y2="416.179"/><linearGradient id="s" gradientUnits="userSpaceOnUse" x1="523" x2="285.706" xlink:href="#b" y1="385.428" y2="385.428"/><linearGradient id="t" gradientUnits="userSpaceOnUse" x1="523" x2="285.8" xlink:href="#b" y1="401.194" y2="401.194"/><linearGradient id="u" gradientUnits="userSpaceOnUse" x1="523" x2="285.582" xlink:href="#b" y1="368.848" y2="368.848"/><linearGradient id="v" gradientUnits="userSpaceOnUse" x1="523" x2="285.39" xlink:href="#b" y1="332.769" y2="332.769"/><linearGradient id="w" gradientUnits="userSpaceOnUse" x1="523" x2="285.503" xlink:href="#b" y1="351.289" y2="351.289"/><linearGradient id="x" gradientUnits="userSpaceOnUse" x1="523" x2="285.276" xlink:href="#b" y1="313.172" y2="313.172"/><linearGradient id="y" gradientUnits="userSpaceOnUse" x1="523" x2="285.019" xlink:href="#b" y1="270.333" y2="270.333"/><linearGradient id="z" gradientUnits="userSpaceOnUse" x1="523" x2="285.152" xlink:href="#b" y1="292.394" y2="292.394"/><linearGradient id="A" gradientUnits="userSpaceOnUse" x1="523" x2="284.88" xlink:href="#b" y1="246.862" y2="246.862"/><linearGradient id="B" gradientUnits="userSpaceOnUse" x1="523" x2="284.574" xlink:href="#b" y1="195.116" y2="195.116"/><linearGradient id="C" gradientUnits="userSpaceOnUse" x1="523" x2="284.732" xlink:href="#b" y1="221.844" y2="221.844"/><linearGradient id="D" gradientUnits="userSpaceOnUse" x1="523" x2="284.218" xlink:href="#b" y1="135.793" y2="135.793"/><linearGradient id="E" gradientUnits="userSpaceOnUse" x1="523" x2="284.401" xlink:href="#b" y1="166.504" y2="166.504"/><linearGradient id="F" gradientUnits="userSpaceOnUse" x1="523" x2="318.175" xlink:href="#b" y1="84.47" y2="84.47"/><linearGradient id="G" gradientUnits="userSpaceOnUse" x1="523" x2="284.02" xlink:href="#b" y1="102.752" y2="102.752"/><linearGradient id="H" gradientUnits="userSpaceOnUse" x1="523" x2="356.626" xlink:href="#b" y1="65.2335" y2="65.2335"/><linearGradient id="I" gradientUnits="userSpaceOnUse" x1="16.9417" x2="-26.8" xlink:href="#b" y1="3.88261" y2="3.88261"/><linearGradient id="J" gradientUnits="userSpaceOnUse" x1="72.2529" x2="-26.8" xlink:href="#b" y1="31.5539" y2="31.5539"/><linearGradient id="K" gradientUnits="userSpaceOnUse" x1="122.61" x2="-26.8004" xlink:href="#b" y1="56.7467" y2="56.7467"/><linearGradient id="L" gradientUnits="userSpaceOnUse" x1="168.646" x2="-26.7999" xlink:href="#b" y1="79.7776" y2="79.7776"/><linearGradient id="M" gradientUnits="userSpaceOnUse" x1="210.894" x2="-26.8001" xlink:href="#b" y1="100.914" y2="100.914"/><linearGradient id="N" gradientUnits="userSpaceOnUse" x1="249.805" x2="-26.8001" xlink:href="#b" y1="120.38" y2="120.38"/><linearGradient id="O" gradientUnits="userSpaceOnUse" x1="284.38" x2="-26.8002" xlink:href="#b" y1="138.872" y2="138.872"/><linearGradient id="P" gradientUnits="userSpaceOnUse" x1="284.578" x2="-26.8002" xlink:href="#b" y1="172.114" y2="172.114"/><linearGradient id="Q" gradientUnits="userSpaceOnUse" x1="284.761" x2="-26.7999" xlink:href="#b" y1="203.006" y2="203.006"/><linearGradient id="R" gradientUnits="userSpaceOnUse" x1="284.934" x2="-26.8003" xlink:href="#b" y1="231.79" y2="231.79"/><linearGradient id="S" gradientUnits="userSpaceOnUse" x1="285.093" x2="-26.7998" xlink:href="#b" y1="258.677" y2="258.677"/><linearGradient id="T" gradientUnits="userSpaceOnUse" x1="285.241" x2="-26.8002" xlink:href="#b" y1="283.843" y2="283.843"/><linearGradient id="U" gradientUnits="userSpaceOnUse" x1="285.384" x2="-26.7998" xlink:href="#b" y1="307.455" y2="307.455"/><linearGradient id="V" gradientUnits="userSpaceOnUse" x1="285.513" x2="-26.7997" xlink:href="#b" y1="329.648" y2="329.648"/><linearGradient id="W" gradientUnits="userSpaceOnUse" x1="285.637" x2="-26.7996" xlink:href="#b" y1="350.816" y2="350.816"/><linearGradient id="X" gradientUnits="userSpaceOnUse" x1="285.755" x2="-26.7998" xlink:href="#b" y1="370.263" y2="370.263"/><linearGradient id="Y" gradientUnits="userSpaceOnUse" x1="285.864" x2="-26.7997" xlink:href="#b" y1="388.893" y2="388.893"/><linearGradient id="Z" gradientUnits="userSpaceOnUse" x1="285.968" x2="-26.7998" xlink:href="#b" y1="406.524" y2="406.524"/><linearGradient id="aa" gradientUnits="userSpaceOnUse" x1="286.067" x2="-26.7998" xlink:href="#b" y1="423.236" y2="423.236"/><linearGradient id="ab" gradientUnits="userSpaceOnUse" x1="286.161" x2="-26.7999" xlink:href="#b" y1="439.096" y2="439.096"/><linearGradient id="ac" gradientUnits="userSpaceOnUse" x1="286.249" x2="-26.8001" xlink:href="#b" y1="454.169" y2="454.169"/><linearGradient id="ad" gradientUnits="userSpaceOnUse" x1="286.339" x2="-26.7998" xlink:href="#b" y1="468.513" y2="468.513"/><linearGradient id="ae" gradientUnits="userSpaceOnUse" x1="286.418" x2="-26.8" xlink:href="#b" y1="482.179" y2="482.179"/><linearGradient id="af" gradientUnits="userSpaceOnUse" x1="286.497" x2="-26.8001" xlink:href="#b" y1="495.217" y2="495.217"/><linearGradient id="ag" gradientUnits="userSpaceOnUse" x1="286.566" x2="-26.7998" xlink:href="#b" y1="507.662" y2="507.662"/><linearGradient id="ah" gradientUnits="userSpaceOnUse" x1="286.64" x2="-26.7998" xlink:href="#b" y1="519.559" y2="519.559"/><linearGradient id="ai" gradientUnits="userSpaceOnUse" x1="286.705" x2="-26.7998" xlink:href="#b" y1="530.943" y2="530.943"/><linearGradient id="aj" gradientUnits="userSpaceOnUse" x1="286.769" x2="-26.7999" xlink:href="#b" y1="541.843" y2="541.843"/><linearGradient id="ak" gradientUnits="userSpaceOnUse" x1="286.833" x2="-26.8" xlink:href="#b" y1="552.296" y2="552.296"/><linearGradient id="al" gradientUnits="userSpaceOnUse" x1="119.851" x2="-26.7997" xlink:href="#b" y1="463.411" y2="463.411"/><linearGradient id="am" gradientUnits="userSpaceOnUse" x1="133.789" x2="-26.8001" xlink:href="#b" y1="417.594" y2="417.594"/><linearGradient id="an" gradientUnits="userSpaceOnUse" x1="147.727" x2="-26.8001" xlink:href="#b" y1="364.161" y2="364.161"/><linearGradient id="ao" gradientUnits="userSpaceOnUse" x1="161.665" x2="-26.8" xlink:href="#b" y1="300.621" y2="300.621"/><linearGradient id="ap" gradientUnits="userSpaceOnUse" x1="175.602" x2="-4.2646" xlink:href="#b" y1="258.91" y2="258.91"/><linearGradient id="aq" gradientUnits="userSpaceOnUse" x1="189.54" x2="41.3515" xlink:href="#b" y1="251.932" y2="251.932"/><linearGradient id="ar" gradientUnits="userSpaceOnUse" x1="203.478" x2="83.6244" xlink:href="#b" y1="244.957" y2="244.957"/><linearGradient id="as" gradientUnits="userSpaceOnUse" x1="217.411" x2="122.912" xlink:href="#b" y1="237.982" y2="237.982"/><linearGradient id="at" gradientUnits="userSpaceOnUse" x1="231.344" x2="159.514" xlink:href="#b" y1="231.006" y2="231.006"/><linearGradient id="au" gradientUnits="userSpaceOnUse" x1="245.277" x2="193.703" xlink:href="#b" y1="224.031" y2="224.031"/><linearGradient id="av" gradientUnits="userSpaceOnUse" x1="259.214" x2="225.702" xlink:href="#b" y1="217.056" y2="217.056"/><linearGradient id="aw" gradientUnits="userSpaceOnUse" x1="273.147" x2="255.724" xlink:href="#b" y1="210.083" y2="210.083"/><linearGradient id="ax" gradientUnits="userSpaceOnUse" x1="286.226" x2="285.712" xlink:href="#b" y1="203.11" y2="203.113"/><mask id="ay" height="400" maskUnits="userSpaceOnUse" width="375" x="0" y="0"><path d="m0 0h375v400h-375z" fill="url(#a)"/></mask><g mask="url(#ay)" opacity=".3"><path d="m523-18.0002h-238.021l1.849 442.2112 236.172 236.305z" fill="#000"/><path d="m523 198.902-150.888 310.759.464.222 150.424-309.803z" fill="url(#c)"/><path d="m523 52.6583-165.148 442.7647.48.178 164.668-441.4735z" fill="url(#d)"/><path d="m482.052-18.0004h-.534l-137.925 499.1854.495.134z" fill="url(#e)"/><path d="m423.126-18.0004h-.519l-93.273 484.9434.504.099z" fill="url(#f)"/><path d="m371.489-18.0004h-.519l-55.89 470.7004.509.06z" fill="url(#g)"/><path d="m325.853-18.0004h-.514l-24.513 456.4584.514.025z" fill="url(#h)"/><path d="m287.079 424.218-2.834-442.2203-.515.0033 2.835 442.221z" fill="url(#i)"/><path d="m523 631.511-236.152-236.285-.366.361 236.518 236.651z" fill="url(#j)"/><path d="m523 621.152-236.221-236.355-.361.366 236.582 236.716z" fill="url(#k)"/><path d="m523 610.348-236.285-236.424-.366.366 236.651 236.785z" fill="url(#l)"/><path d="m523 599.063-236.374-236.507-.366.361 236.74 236.874z" fill="url(#m)"/><path d="m523 587.275-236.419-236.553-.361.361 236.78 236.914z" fill="url(#n)"/><path d="m523 574.937-236.488-236.622-.366.361 236.854 236.988z" fill="url(#o)"/><path d="m523 548.475-236.661-236.8-.366.366 237.027 237.156z" fill="url(#p)"/><path d="m523 562.015-236.582-236.716-.361.366 236.943 237.077z" fill="url(#q)"/><path d="m523 534.257-236.75-236.884-.361.366 237.111 237.246z" fill="url(#r)"/><path d="m523 503.596-236.933-237.062-.361.361 237.294 237.428z" fill="url(#s)"/><path d="m523 519.317-236.839-236.973-.361.366 237.2 237.334z" fill="url(#t)"/><path d="m523 487.082-237.052-237.19-.366.366 237.418 237.546z" fill="url(#u)"/><path d="m523 451.098-237.245-237.384-.365.366 237.61 237.745z" fill="url(#v)"/><path d="m523 469.56-237.136-237.27-.361.361 237.497 237.636z" fill="url(#w)"/><path d="m523 431.557-237.363-237.498-.361.362 237.724 237.863z" fill="url(#x)"/><path d="m523 388.844-237.615-237.75-.366.362 237.981 238.115z" fill="url(#y)"/><path d="m523 410.844-237.487-237.622-.361.362 237.848 237.982z" fill="url(#z)"/><path d="m523 365.445-237.759-237.894-.361.367 238.12 238.254z" fill="url(#A)"/><path d="m523 313.852-238.065-238.1999-.361.3661 238.426 238.5608z" fill="url(#B)"/><path d="m523 340.502-237.907-238.042-.361.361 238.268 238.408z" fill="url(#C)"/><path d="m523 254.705-238.421-238.5509-.361.3611 238.782 238.9168z" fill="url(#D)"/><path d="m523 285.327-238.238-238.3727-.361.3661 238.599 238.7346z" fill="url(#E)"/><path d="m318.175-18.0004 204.825 204.9414v-.728l-204.098-204.2134z" fill="url(#F)"/><path d="m523 221.763-238.619-238.7492-.361.3612 238.98 239.115z" fill="url(#G)"/><path d="m356.626-18.0004 166.374 166.4674v-.727l-165.647-165.7404z" fill="url(#H)"/><path d="m-26.7998 738.06 313.6278-313.805-2.625-442.2555h-311.0028z" fill="#000"/><path d="m-26.8 25.7658 43.7417-43.7664h-.7268l-43.0149 43.0392z" fill="url(#I)"/><path d="m-26.8 81.1083 99.0529-99.1089h-.7268l-98.3261 98.3817z" fill="url(#J)"/><path d="m-26.8004 131.494 149.4104-149.4946h-.727l-148.6834 148.7676z" fill="url(#K)"/><path d="m-26.7999 177.556 195.4459-195.5566h-.727l-194.7189 194.8296z" fill="url(#L)"/><path d="m-26.8001 219.828 237.6941-237.8286h-.727l-236.9671 237.1016z" fill="url(#M)"/><path d="m-26.8001 258.761 276.6051-276.7616h-.726l-275.8791 276.0346z" fill="url(#N)"/><path d="m-26.8002 294.731 311.1802-311.3563-.361-.3612-310.8192 310.9955z" fill="url(#O)"/><path d="m-26.8002 328.074 311.3782-311.5591-.361-.3611-311.0172 311.1932z" fill="url(#P)"/><path d="m-26.8 359.058 311.561-311.7379-.361-.3661-311.2 311.376z" fill="url(#Q)"/><path d="m-26.8004 387.929 311.7344-311.9111-.361-.3661-311.3734 311.5492z" fill="url(#R)"/><path d="m-26.7998 414.895 311.8928-312.074-.361-.361-311.5318 311.708z" fill="url(#S)"/><path d="m-26.8002 440.135 312.0412-312.218-.361-.366-311.6802 311.856z" fill="url(#T)"/><path d="m-26.7998 463.816 312.1838-312.361-.365-.361-311.8188 311.995z" fill="url(#U)"/><path d="m-26.7997 486.073 312.3127-312.49-.361-.361-311.9517 312.129z" fill="url(#V)"/><path d="m-26.7996 507.306 312.4366-312.619-.361-.361-312.0756 312.252z" fill="url(#W)"/><path d="m-26.7998 526.812 312.5548-312.732-.366-.366-312.1888 312.37z" fill="url(#X)"/><path d="m-26.7997 545.497 312.6637-312.846-.361-.361-312.3027 312.479z" fill="url(#Y)"/><path d="m-26.7998 563.177 312.7678-312.944-.361-.362-312.4068 312.579z" fill="url(#Z)"/><path d="m-26.7998 579.938 312.8668-313.044-.361-.361-312.5058 312.678z" fill="url(#aa)"/><path d="m-26.7999 595.848 312.9609-313.138-.361-.366-312.5999 312.776z" fill="url(#ab)"/><path d="m-26.8001 610.966 313.0491-313.227-.361-.366-312.6881 312.866z" fill="url(#ac)"/><path d="m-26.7998 625.352 313.1388-313.311-.366-.366-312.7728 312.95z" fill="url(#ad)"/><path d="m-26.8 639.06 313.218-313.395-.361-.366-312.857 313.034z" fill="url(#ae)"/><path d="m-26.8002 652.135 313.2972-313.474-.366-.361-312.9312 313.108z" fill="url(#af)"/><path d="m-26.7998 664.616 313.3658-313.548-.361-.361-313.0048 313.182z" fill="url(#ag)"/><path d="m-26.7998 676.549 313.4398-313.618-.366-.361-313.0738 313.251z" fill="url(#ah)"/><path d="m-26.7998 687.967 313.5048-313.682-.361-.366-313.1438 313.32z" fill="url(#ai)"/><path d="m-26.8 698.899 313.569-313.746-.361-.366-313.208 313.385z" fill="url(#aj)"/><path d="m-26.8 709.382 313.633-313.81-.361-.361-313.272 313.444z" fill="url(#ak)"/><path d="m-26.7997 336.227 146.2057 255.401.445-.252-146.6507-256.183z" fill="url(#al)"/><path d="m-26.8001 258.658 160.1291 319.019.46-.227-160.5891-319.94z" fill="url(#am)"/><path d="m-26.8001 165.876 174.0571 397.851.47-.208-174.5271-398.924z" fill="url(#an)"/><path d="m-26.8 52.9252 187.985 496.8458.48-.183-188.465-498.1172z" fill="url(#ao)"/><path d="m-4.26459-18.0005 179.37659 553.8205.49-.158-179.32267-553.6625z" fill="url(#ap)"/><path d="m41.3515-18.0005 147.6945 539.8655.494-.134-147.6545-539.7315z" fill="url(#aq)"/><path d="m83.6244-18.0005 119.3486 525.9145.505-.114-119.3246-525.8005z" fill="url(#ar)"/><path d="m122.912-18.0005 93.994 511.9645.505-.094-93.975-511.8705z" fill="url(#as)"/><path d="m159.514-18.0005 71.321 498.0135.509-.074-71.311-497.9395z" fill="url(#at)"/><path d="m193.703-18.0005 51.064 484.0625.51-.054-51.06-484.0085z" fill="url(#au)"/><path d="m225.702-18.0005 32.998 470.1125.514-.035-32.997-470.0775z" fill="url(#av)"/><path d="m255.724-18.0005 16.909 456.1665.514-.02-16.909-456.1465z" fill="url(#aw)"/><path d="m287.54 424.22-2.627-442.2205-.515.0031 2.628 442.2204z" fill="url(#ax)"/></g></svg>