<svg fill="none" height="110" viewBox="0 0 110 110" width="110" xmlns="http://www.w3.org/2000/svg" xmlns:xlink="http://www.w3.org/1999/xlink"><linearGradient id="a" gradientUnits="userSpaceOnUse" x1="37.7958" x2="37.7958" y1="0" y2="82.6588"><stop offset="0" stop-color="#3ec099"/><stop offset="1" stop-color="#25b087" stop-opacity=".11"/></linearGradient><linearGradient id="b" gradientUnits="userSpaceOnUse" x1="37.7958" x2="37.7958" y1="0" y2="82.6588"><stop offset="0" stop-color="#d9ffeb"/><stop offset="1" stop-color="#9afcc9"/></linearGradient><linearGradient id="c" gradientUnits="userSpaceOnUse" x1="28.3589" x2="28.3589" y1="0" y2="62.0204"><stop offset="0" stop-color="#4ac8a2"/><stop offset="1" stop-color="#12a278"/></linearGradient><linearGradient id="d" gradientUnits="userSpaceOnUse" x1="28.3589" x2="28.3589" y1="0" y2="62.0204"><stop offset="0" stop-color="#2e694b"/><stop offset="1" stop-color="#214e37"/></linearGradient><linearGradient id="e" gradientUnits="userSpaceOnUse" x1="28.3589" x2="28.3589" y1="0" y2="62.0204"><stop offset="0" stop-color="#a3ffde"/><stop offset="1" stop-color="#26c49c"/></linearGradient><linearGradient id="f" gradientUnits="userSpaceOnUse" x1="54.3308" x2="54.3308" y1="43.6313" y2="60.266"><stop offset="0" stop-color="#49c8a1"/><stop offset="1" stop-color="#1da37f"/></linearGradient><linearGradient id="g" gradientUnits="userSpaceOnUse" x1="52.844" x2="52.844" y1="42.1478" y2="58.7825"><stop offset="0" stop-color="#fff"/><stop offset="1" stop-color="#bfffe0"/></linearGradient><mask id="h" height="62" maskUnits="userSpaceOnUse" width="60" x="21" y="20"><ellipse cx="28.3589" cy="31.0102" fill="url(#d)" rx="28.3589" ry="31.0102" transform="matrix(1 0 -.247372 .968921 30.1055 20.9965)"/></mask><ellipse cx="37.7958" cy="41.3294" fill="url(#a)" rx="37.7958" ry="41.3294" transform="matrix(1 0 -.247372 .968921 31.6011 19.333)"/><ellipse cx="37.7958" cy="41.3294" fill="url(#b)" rx="37.7958" ry="41.3294" transform="matrix(1 0 -.247372 .968921 23.1963 11)"/><ellipse cx="28.3589" cy="31.0102" fill="url(#c)" rx="28.3589" ry="31.0102" transform="matrix(1 0 -.247372 .968921 30.0889 20.9968)"/><g mask="url(#h)"><ellipse cx="28.3589" cy="31.0102" fill="url(#e)" rx="28.3589" ry="31.0102" transform="matrix(1 0 -.247372 .968921 31.7852 22.6626)"/></g><path d="m40.6979 43.6313-6.3322 16.6347h-3.2719l5.1449-13.5156h-1.636l1.1873-3.1191zm7.0891 0c1.807 0 2.7404 1.3965 2.0846 3.1191l-3.9576 10.3966c-.6557 1.7226-2.6522 3.119-4.4592 3.119h-2.1813c-1.807 0-2.7403-1.3964-2.0846-3.119l3.9577-10.3966c.6557-1.7226 2.6521-3.1191 4.4592-3.1191zm10.9064 0c1.807 0 2.7403 1.3965 2.0846 3.1191l-3.9576 10.3966c-.6558 1.7226-2.6522 3.119-4.4592 3.119h-2.1813c-1.807 0-2.7404-1.3964-2.0846-3.119l3.9576-10.3966c.6557-1.7226 2.6522-3.1191 4.4592-3.1191zm7.6344 0 .0529 4.1587 3.219-4.1587h3.2719l-6.438 8.3174.1058 8.3173h-3.2719l-.0529-4.1586-3.219 4.1586h-3.2719l6.438-8.3173-.1058-8.3174zm-19.7281 3.1191h-2.1812l-3.9577 10.3966h2.1813zm10.9064 0h-2.1813l-3.9576 10.3966h2.1812z" fill="url(#f)"/><path d="m39.2111 42.1478-6.3322 16.6347h-3.2719l5.1449-13.5157h-1.636l1.1873-3.119zm7.0891 0c1.807 0 2.7403 1.3965 2.0846 3.119l-3.9576 10.3967c-.6557 1.7226-2.6522 3.119-4.4592 3.119h-2.1813c-1.807 0-2.7403-1.3964-2.0846-3.119l3.9576-10.3967c.6558-1.7225 2.6522-3.119 4.4592-3.119zm10.9064 0c1.807 0 2.7403 1.3965 2.0846 3.119l-3.9577 10.3967c-.6557 1.7226-2.6521 3.119-4.4592 3.119h-2.1812c-1.8071 0-2.7404-1.3964-2.0846-3.119l3.9576-10.3967c.6557-1.7225 2.6522-3.119 4.4592-3.119zm7.6344 0 .0529 4.1587 3.219-4.1587h3.2719l-6.438 8.3174.1058 8.3173h-3.2719l-.0529-4.1586-3.219 4.1586h-3.2719l6.438-8.3173-.1058-8.3174zm-19.7281 3.119h-2.1813l-3.9576 10.3967h2.1813zm10.9064 0h-2.1813l-3.9576 10.3967h2.1812z" fill="url(#g)"/></svg>