<svg fill="none" height="110" viewBox="0 0 110 110" width="110" xmlns="http://www.w3.org/2000/svg" xmlns:xlink="http://www.w3.org/1999/xlink"><linearGradient id="a" gradientUnits="userSpaceOnUse" x1="67.6637" x2="41.5393" y1="18.6832" y2="91.5126"><stop offset="0" stop-color="#6d9fff"/><stop offset=".825167" stop-color="#89eaff"/></linearGradient><linearGradient id="b" gradientUnits="userSpaceOnUse" x1="88.9684" x2="67.0618" y1="70.4491" y2="31.1867"><stop offset=".17573" stop-color="#90edcc"/><stop offset="1" stop-color="#57d9aa"/></linearGradient><mask id="c" height="17" maskUnits="userSpaceOnUse" width="33" x="3" y="35"><path d="m4.81463 40.5692c2.38545 1.5654 13.10737 7.6097 18.17017 10.4362l12.2914-8.5164c-6.0232-1.3813-19.4419-4.5242-24.9308-6.0459-6.86107-1.9021-8.51259 2.1693-5.53077 4.1261z" fill="#fff"/></mask><mask id="d" height="37" maskUnits="userSpaceOnUse" width="71" x="17" y="38"><path d="m78.0157 43.9032 7.8221-5.1574c.75-.4946 1.7445.0699 1.7044.9674l-.7316 16.3669c-.1041 2.3273-.9025 4.6205-2.7627 6.0229-8.4619 6.3794-28.3671 11.7176-39.01 12.3759-11.9776.7409-31.1169-.9879-26.6716-17.4106 4.4453-16.4228 20.0038-18.6455 29.8822-17.6576 7.1752.7175 19.508 3.4573 26.2772 5.0955 1.1973.2897 2.4616.0751 3.49-.603z" fill="#d9d9d9"/></mask><mask id="e" height="22" maskUnits="userSpaceOnUse" width="59" x="48" y="57"><path d="m53.3336 60.5257c-3.6323 1.7759-6.2962 4.1975-2.8253 5.8119l38.3263 11.7864c3.3035 1.0159 6.8528.8911 10.0768-.3546l6.7416-2.6046c.917-.3543.944-1.6419.043-2.0346l-35.9761-15.6719c-2.3409-.9686-12.7539 1.2916-16.3863 3.0674z" fill="#fff"/></mask><path d="m92.0041 65.9819c-7.2141 20.1113-34.1171 31.3947-52.9602 24.6355-18.8431-6.7591-29.7653-26.0397-22.5513-46.151 7.2141-20.1113 32.3282-32.5423 51.1713-25.7832 18.8431 6.7592 31.5542 27.1875 24.3402 47.2987z" fill="url(#a)"/><g mask="url(#c)"><path d="m4.81463 40.5692c2.38545 1.5654 13.10737 7.6097 18.17017 10.4362l12.2914-8.5164c-6.0232-1.3813-19.4419-4.5242-24.9308-6.0459-6.86107-1.9021-8.51259 2.1693-5.53077 4.1261z" fill="#fff"/><g stroke-width="1.1"><path d="m-.876545 34.5706 33.569245 10.9786" stroke="#81e8c3"/><path d="m22.9535 50.3579c-5.1843-2.8965-15.51842-8.7269-17.83712-10.2486-.65608-.4305-1.01006-.9458-1.12688-1.4116-.1139-.4542-.01547-.9012.31311-1.2762.68082-.777 2.52274-1.3835 5.89589-.4484 5.1588 1.4302 17.2848 4.2841 23.7411 5.7729z" stroke="#000" stroke-linecap="round"/></g></g><g mask="url(#d)"><path d="m78.0157 43.9032 7.8221-5.1574c.75-.4946 1.7445.0699 1.7044.9674l-.7316 16.3669c-.1041 2.3273-.9025 4.6205-2.7627 6.0229-8.4619 6.3794-28.3671 11.7176-39.01 12.3759-11.9776.7409-31.1169-.9879-26.6716-17.4106 4.4453-16.4228 20.0038-18.6455 29.8822-17.6576 7.1752.7175 19.508 3.4573 26.2772 5.0955 1.1973.2897 2.4616.0751 3.49-.603z" fill="#fff"/><path d="m74.6527 60.6488c8.533-8.0493 4.8093-16.8718-1.2591-16.8718 0-1.7627 12.339-7.9322 14.7313-5.9177 1.9138 1.6117.1259 16.8718-1.0073 24.3004-7.0509 3.2736-22.1599 10.5512-26.189 13.4722-5.0363 3.6514-30.9736 1.7628-38.654-1.7627-6.1443-2.8203-6.5892-9.9887-6.0436-13.2204 5.54 6.925 15.109 9.0654 28.5812 9.4432 13.4723.3777 26.4409-3.5255 29.8405-9.4432z" fill="url(#b)"/><g fill="#000"><path d="m37.9359 59.2516c-8.5014.5876-15.328-3.5096-17.6786-5.6317.3526-3.6826 3.477-6.8233 4.9951-7.9333 1.8282 1.4201 6.6601 4.6131 11.3613 6.0234 3.759 1.1277 8.5825 1.2243 11.6918 1.0759.8617-.0411 1.4862.8597 1.1114 1.6367l-1.0769 2.2319c-.4735.9816-1.4011 1.6673-2.4822 1.8054-1.9002.2428-4.7936.5662-7.9219.7917z"/><path d="m52.2575 53.3933-1.2781 3.4739c-.12.3261.1677.6561.5072.5817l2.0318-.4453c.2286-.0501.4136-.2175.4862-.44l1.1334-3.4733c.0486-.149-.0698-.2996-.2261-.2876l-2.0856.1604c-.2574.0198-.4796.1879-.5688.4302z"/><path d="m57.3252 53.0901-.8258 2.5714c-.1037.323.1818.637.5132.5643l1.3744-.3012c.2394-.0525.43-.2333.4951-.4696l.7313-2.6574c.0404-.1468-.0771-.2894-.229-.2777l-1.4814.114c-.2674.0205-.4958.2009-.5778.4562z"/><path d="m61.5446 52.8318-.5994 2.2562c-.0418.1575.0961.3042.2558.2722l1.5232-.3046c.2512-.0503.4507-.2414.5116-.4903l.5034-2.0564c.0356-.1454-.0813-.2831-.2306-.2716l-1.3767.1059c-.2797.0215-.5153.2175-.5873.4886z"/></g><path d="m87.4153 45.4818s-2.7125 2.0578-9.0423-1.1385c3.3834-2.2755 8.4672-4.6664 8.4672-4.6664z" fill="#fff"/><path d="m78.3185 44.3623 7.822-5.1574c.375-.2472.8723.035.8522.4838l-.7316 16.3669c-.0998 2.2337-.8625 4.3403-2.5443 5.6082-4.1505 3.129-11.165 6.0361-18.5144 8.2458-7.3382 2.2064-14.9319 3.6946-20.1985 4.0203-5.9701.3693-13.6434.1142-19.2483-2.2274-2.7932-1.167-5.0233-2.8316-6.2999-5.1468-1.2713-2.3057-1.6423-5.3395-.5585-9.3437 2.1753-8.0364 7.0519-12.5733 12.5932-14.9976 5.565-2.4347 11.8212-2.7447 16.7033-2.2565 7.1323.7133 19.4302 3.4439 26.2027 5.0828 1.3437.3252 2.7647.0848 3.9221-.6784z" stroke="#000" stroke-linecap="round" stroke-width="1.1"/></g><g mask="url(#e)"><path d="m53.3336 60.5257c-3.6323 1.7759-6.2962 4.1975-2.8253 5.8119l38.3263 11.7864c3.3035 1.0159 6.8528.8911 10.0768-.3546l6.7416-2.6046c.917-.3543.944-1.6419.043-2.0346l-35.9761-15.6719c-2.3409-.9686-12.7539 1.2916-16.3863 3.0674z" fill="#fff"/><g stroke-width="1.1"><path d="m59.3193 56.8514 44.3757 19.018" stroke="#81e8c3"/><path d="m50.7068 65.8232c-.79-.3733-1.1118-.7386-1.2175-1.019-.0967-.2567-.0607-.5776.2256-1.0069.2898-.4347.7938-.9086 1.4754-1.393.6753-.48 1.4953-.9496 2.3849-1.3845 1.7509-.856 5.2059-1.8541 8.5431-2.5175 1.6616-.3303 3.2731-.5734 4.6061-.6746.6669-.0507 1.2547-.065 1.7391-.0393.4913.0262.835.0918 1.0419.1764l35.9706 15.6697c.451.1963.437.8401-.021 1.0172l-6.7418 2.6047c-3.1088 1.2011-6.5314 1.3216-9.717.3419z" stroke="#000" stroke-linecap="round"/></g></g></svg>