<svg fill="none" height="99" viewBox="0 0 91 99" width="91" xmlns="http://www.w3.org/2000/svg" xmlns:xlink="http://www.w3.org/1999/xlink"><linearGradient id="a" gradientUnits="userSpaceOnUse" x1="91.0017" x2="47.1233" y1="62.5756" y2="11.5089"><stop offset=".17573" stop-color="#90edcc"/><stop offset="1" stop-color="#57d9aa"/></linearGradient><linearGradient id="b" gradientUnits="userSpaceOnUse" x1="76.0082" x2="44.7888" y1="10.4117" y2="100.549"><stop offset="0" stop-color="#dbfdf1"/><stop offset="1" stop-color="#91efcd"/></linearGradient><linearGradient id="c" gradientUnits="userSpaceOnUse" x1="45.4301" x2="51.2721" y1="33.0355" y2="67.9275"><stop offset="0" stop-color="#000d1d"/><stop offset="1" stop-color="#2f3032"/></linearGradient><mask id="d" height="86" maskUnits="userSpaceOnUse" width="80" x="11" y="13"><path d="m80.7577 20.0004-.0181.0205.3909.3307c6.908 5.8459 10.5402 15.6489 9.0315 27.7443-1.4095 11.2997-7.0383 22.4178-15.0168 31.2496-7.9792 8.8326-18.2774 15.3444-28.9887 17.4751-10.3468 2.0581-19.1563-.3502-25.1802-5.874l-.0774-.0709-.013-.0124-.0038-.0035c-.1215-.1127-.242-.2267-.3613-.342l-.0038-.0035-4.7221-4.4685.1633.0083.9301.0473-.4745-.8013c-3.3431-5.6467-4.8099-12.9951-3.7531-21.4671 1.4094-11.2997 7.0382-22.4178 15.0167-31.2496 7.9792-8.8326 18.2775-15.3444 28.9888-17.475 7.7684-1.5453 14.6688-.5715 20.1702 2.3418l1.0406.5511-.2681-.93z" fill="#d9d9d9" stroke="#000"/></mask><mask id="e" height="85" maskUnits="userSpaceOnUse" width="80" x="4" y="7"><path d="m83.1602 41.6846c-2.8165 22.5801-22.4657 44.3055-43.8518 48.5595-21.3861 4.2539-36.47748-10.5611-33.66098-33.1412 2.8165-22.5802 22.46578-44.3056 43.85178-48.55951 21.3861-4.25395 36.4775 10.56111 33.661 33.14121z" fill="#fff" stroke="#000"/></mask><g mask="url(#d)"><path d="m46.254 97.311c21.6754-4.3116 41.5558-26.3182 44.4041-49.1532 1.525-12.2261-2.1416-22.2109-9.2046-28.1879l.0025-.0028-4.8271-4.4903.4415 1.5316c-5.6172-2.9747-12.6374-3.9547-20.5018-2.3904-21.6754 4.3115-41.5558 26.3181-44.4041 49.1531-1.0681 8.563.4106 16.0265 3.8191 21.7837-.5533-.0282-1.0688-.0544-1.5167-.0772l5.7065 5.3999c.1218.1176.2447.234.3688.349l.0953.0902.0009-.0016c6.1593 5.648 15.1383 8.0799 25.6156 5.9959z" fill="url(#a)"/><path d="m73.8186 61.103 12.709 12.1665-20.1581 19.8765-37.2369 11.191-19.46182-23.128z" fill="#000"/><path d="m77.5617 54.2571 9.1422 9.3032 4.702-5.7127-9.5144-10.1559z" fill="#000"/><path d="m80.7577 20.0004-.0181.0205.3909.3307c6.908 5.8459 10.5402 15.6489 9.0315 27.7443-1.4095 11.2997-7.0383 22.4178-15.0168 31.2496-7.9792 8.8326-18.2774 15.3444-28.9887 17.4751-10.3468 2.0581-19.1563-.3502-25.1802-5.874l-.0774-.0709-.013-.0124-.0038-.0035c-.1215-.1127-.242-.2267-.3613-.342l-.0038-.0035-4.7221-4.4685.1633.0083.9301.0473-.4745-.8013c-3.3431-5.6467-4.8099-12.9951-3.7531-21.4671 1.4094-11.2997 7.0382-22.4178 15.0167-31.2496 7.9792-8.8326 18.2775-15.3444 28.9888-17.475 7.7684-1.5453 14.6688-.5715 20.1702 2.3418l1.0406.5511-.2681-.93z" stroke="#000"/></g><g mask="url(#e)"><path d="m83.1602 41.6846c-2.8165 22.5801-22.4657 44.3055-43.8518 48.5595-21.3861 4.2539-36.47748-10.5611-33.66098-33.1412 2.8165-22.5802 22.46578-44.3056 43.85178-48.55951 21.3861-4.25395 36.4775 10.56111 33.661 33.14121z" fill="url(#b)" stroke="#000"/><path d="m11.0134 12.7671 81.8765-12.8053385-2.3281 46.7588385-89.05533 14.7456z" fill="#fff"/><path d="m83.1602 41.6846c-2.8165 22.5801-22.4657 44.3055-43.8518 48.5595-21.3861 4.2539-36.47748-10.5611-33.66098-33.1412 2.8165-22.5802 22.46578-44.3056 43.85178-48.55951 21.3861-4.25395 36.4775 10.56111 33.661 33.14121z" stroke="#000"/><path d="m74.323 43.444c-2.1752 17.4383-17.3479 34.2084-33.8533 37.4916-16.5054 3.2831-28.1601-8.1507-25.985-25.589 2.1752-17.4383 17.3479-34.2084 33.8533-37.4916 16.5054-3.2831 28.1601 8.1507 25.985 25.589z" stroke="#61daae"/><path clip-rule="evenodd" d="m59.2558 30.7207-1.1542 7.4766-10.1713 1.703-.7547 4.8891c8.1721-.9608 14.0874-.1924 13.7535 1.9706-.334 2.1639-6.8066 5.0055-15.108 6.8047l-2.4206 15.6808-7.2459 1.2132 2.42-15.6772c-8.2043.9714-14.1506.2055-13.8156-1.9646.335-2.1702 6.8395-5.0206 15.1713-6.8179l.754-4.8846-10.1714 1.703 1.1543-7.4775zm-13.1411 20.9694c6.553-1.4211 11.5513-3.4247 11.7715-4.8512l.0008-.0001c.2203-1.4274-4.4099-1.8189-10.8652-1.0611l-.6974 4.5181c-1.164.262-2.4004.5047-3.6714.7175-1.2517.2096-2.4518.3748-3.5759.4995l.7001-4.5352c-6.5841 1.4246-11.6146 3.4336-11.8361 4.8681-.2213 1.4337 4.4381 1.8238 10.9215 1.0569l.4268-.0506.0056-.0009c.4298-.0545.8656-.1127 1.3093-.1757l.0418-.007.374-.0539.1096-.0183.3134-.0482 2.0136-.3371.319-.0586.1136-.0191.4041-.0763.0185-.0031c.3016-.0575.5995-.1169.8943-.1768l.0427-.0071.3964-.082.0467-.0079z" fill="url(#c)" fill-rule="evenodd"/></g></svg>