<svg fill="none" height="99" viewBox="0 0 91 99" width="91" xmlns="http://www.w3.org/2000/svg" xmlns:xlink="http://www.w3.org/1999/xlink"><linearGradient id="a" gradientUnits="userSpaceOnUse" x1="91.0018" x2="47.1235" y1="62.335" y2="11.2683"><stop offset=".17573" stop-color="#fff280"/><stop offset="1" stop-color="#ffd25e"/></linearGradient><linearGradient id="b" gradientUnits="userSpaceOnUse" x1="76.0083" x2="44.7889" y1="10.1711" y2="100.309"><stop offset="0" stop-color="#fffddc"/><stop offset="1" stop-color="#fff997"/></linearGradient><linearGradient id="c" gradientUnits="userSpaceOnUse" x1="45.4302" x2="51.2722" y1="33.0357" y2="67.9277"><stop offset="0" stop-color="#000d1d"/><stop offset="1" stop-color="#2f3032"/></linearGradient><mask id="d" height="85" maskUnits="userSpaceOnUse" width="80" x="11" y="13"><path d="m80.7579 19.7598-.0182.0204.3909.3308c6.9081 5.8458 10.5402 15.6489 9.0315 27.7443-1.4095 11.2997-7.0383 22.4178-15.0168 31.2496-7.9792 8.8326-18.2774 15.3444-28.9887 17.475-10.3468 2.0581-19.1563-.3502-25.1802-5.8739l-.0774-.071-.013-.0123-.0037-.0035c-.1216-.1127-.2421-.2267-.3614-.342l-.0038-.0035-4.7221-4.4685.1633.0083.9301.0473-.4745-.8014c-3.3431-5.6466-4.8098-12.995-3.7531-21.467 1.4094-11.2997 7.0382-22.4178 15.0168-31.2496 7.9792-8.8326 18.2774-15.3444 28.9887-17.4751 7.7684-1.5452 14.6688-.5714 20.1702 2.3419l1.0406.551-.2681-.9299z" fill="#d9d9d9" stroke="#000"/></mask><mask id="e" height="85" maskUnits="userSpaceOnUse" width="80" x="4" y="7"><path d="m83.1604 41.444c-2.8166 22.5801-22.4658 44.3055-43.8519 48.5594-21.386 4.254-36.47746-10.5611-33.66096-33.1412s22.46576-44.3055 43.85186-48.55944c21.386-4.25395 36.4775 10.56114 33.661 33.14124z" fill="#fff" stroke="#000"/></mask><g mask="url(#d)"><path d="m46.2541 97.0703c21.6754-4.3115 41.5558-26.3181 44.4041-49.1531 1.5251-12.2262-2.1416-22.2109-9.2046-28.1879l.0025-.0028-4.8271-4.4904.4415 1.5316c-5.6172-2.9746-12.6374-3.9547-20.5018-2.3904-21.6754 4.3116-41.5558 26.3182-44.4041 49.1532-1.0681 8.563.4106 16.0265 3.8191 21.7837-.5533-.0282-1.0688-.0544-1.5167-.0773l5.7065 5.3999c.1218.1177.2447.2341.3689.3491l.0952.0901.0009-.0015c6.1594 5.648 15.1383 8.0799 25.6156 5.9958z" fill="url(#a)"/><path d="m73.8187 60.8623 12.709 12.1666-20.1581 19.8765-37.2368 11.1916-19.4619-23.1287z" fill="#000"/><path d="m77.5615 54.0165 9.1423 9.3032 4.702-5.7127-9.5144-10.156z" fill="#000"/><path d="m80.7579 19.7598-.0182.0204.3909.3308c6.9081 5.8458 10.5402 15.6489 9.0315 27.7443-1.4095 11.2997-7.0383 22.4178-15.0168 31.2496-7.9792 8.8326-18.2774 15.3444-28.9887 17.475-10.3468 2.0581-19.1563-.3502-25.1802-5.8739l-.0774-.071-.013-.0123-.0037-.0035c-.1216-.1127-.2421-.2267-.3614-.342l-.0038-.0035-4.7221-4.4685.1633.0083.9301.0473-.4745-.8014c-3.3431-5.6466-4.8098-12.995-3.7531-21.467 1.4094-11.2997 7.0382-22.4178 15.0168-31.2496 7.9792-8.8326 18.2774-15.3444 28.9887-17.4751 7.7684-1.5452 14.6688-.5714 20.1702 2.3419l1.0406.551-.2681-.9299z" stroke="#000"/></g><g mask="url(#e)"><path d="m83.1604 41.444c-2.8166 22.5801-22.4658 44.3055-43.8519 48.5594-21.386 4.254-36.47746-10.5611-33.66096-33.1412s22.46576-44.3055 43.85186-48.55944c21.386-4.25395 36.4775 10.56114 33.661 33.14124z" fill="url(#b)" stroke="#000"/><path d="m11.0138 12.5265 81.8764-12.80537-2.3281 46.75887-89.05526 14.7455z" fill="#fff"/><path d="m83.1604 41.444c-2.8166 22.5801-22.4658 44.3055-43.8519 48.5594-21.386 4.254-36.47746-10.5611-33.66096-33.1412s22.46576-44.3055 43.85186-48.55944c21.386-4.25395 36.4775 10.56114 33.661 33.14124z" stroke="#000"/><path d="m74.3233 43.2034c-2.1751 17.4383-17.3479 34.2084-33.8532 37.4916-16.5054 3.2831-28.1602-8.1507-25.985-25.589 2.1751-17.4383 17.3479-34.2084 33.8532-37.4916 16.5054-3.2831 28.1602 8.1507 25.985 25.589z" stroke="#ffdd85"/><path clip-rule="evenodd" d="m59.2559 30.7209-1.1541 7.4766-10.1714 1.703-.7546 4.8891c8.172-.9608 14.0873-.1924 13.7534 1.9706-.334 2.1639-6.8066 5.0055-15.108 6.8047l-2.4205 15.6808-7.2459 1.2132 2.4199-15.6773c-8.2043.9714-14.1506.2056-13.8156-1.9645.335-2.1702 6.8395-5.0207 15.1713-6.8179l.754-4.8846-10.1713 1.703 1.1542-7.4775zm-13.1411 20.9694c6.553-1.4211 11.5513-3.4247 11.7715-4.8512l.0008-.0001c.2203-1.4274-4.4098-1.8189-10.8651-1.0611l-.6975 4.5181c-1.164.262-2.4004.5047-3.6714.7175-1.2517.2096-2.4518.3748-3.5758.4994l.7-4.5351c-6.5841 1.4246-11.6146 3.4336-11.8361 4.8681-.2213 1.4337 4.4381 1.8237 10.9215 1.0569l.4268-.0506.0057-.0009c.4297-.0546.8656-.1127 1.3092-.1757l.0419-.007.3739-.0539.1096-.0183.3134-.0482 2.0137-.3371.3189-.0587.1136-.019.4041-.0763.0186-.0031c.3015-.0575.5994-.117.8943-.1768l.0427-.0071.3963-.082.0467-.0079z" fill="url(#c)" fill-rule="evenodd"/></g></svg>