<svg fill="none" height="18" viewBox="0 0 20 18" width="20" xmlns="http://www.w3.org/2000/svg"><path clip-rule="evenodd" d="m1.35549 17.2774.46751-.8797c1.4946-2.5058 4.27838-4.0598 7.77491-4.299v4.3047c-.00001.1306.03742.2584.10785.3684s.1709.1975.28953.2522c.11861.0546.25041.0741.37981.0561.1293-.0179.2509-.0727.3502-.1576l8.9669-7.67499c.0749-.06414.135-.14372.1763-.23329.0412-.08957.0625-.187.0625-.2856s-.0213-.19603-.0625-.2856c-.0412-.08954-.1014-.16917-.1763-.2333l-8.967-7.68572c-.0993-.084892-.2208-.139559-.3501-.157522-.1294-.017962-.2612.001531-.37981.05617-.11863.05464-.2191.142136-.28953.252125-.07043.109988-.10786.237858-.10785.368447v4.37646c-5.30463.42379-9.457363 4.85402-9.5289098 10.26302v1.2743c.0000569.1525.0510828.3005.1449618.4206.093878.12.225216.2053.373122.2421.147905.0369.303881.0232.443116-.0388.13924-.0621.25375-.1689.32529-.3035zm10.11941-3.4133v-3.6853h-.9389c-2.9394-.1198-5.80748.8499-8.07394 2.6931 1.23239-3.33992 4.42641-5.63051 8.06594-5.60452h.9469v-3.7707l5.9728 5.18856z" fill="#f3f3f3" fill-rule="evenodd"/></svg>