<svg fill="none" height="26" viewBox="0 0 28 26" width="28" xmlns="http://www.w3.org/2000/svg" xmlns:xlink="http://www.w3.org/1999/xlink"><filter id="a" color-interpolation-filters="sRGB" filterUnits="userSpaceOnUse" height="15.2123" width="18.6554" x="3.2196" y="5.9965"><feFlood flood-opacity="0" result="BackgroundImageFix"/><feBlend in="SourceGraphic" in2="BackgroundImageFix" mode="normal" result="shape"/><feGaussianBlur result="effect1_foregroundBlur_703_1436" stdDeviation=".266605"/></filter><filter id="b" color-interpolation-filters="sRGB" filterUnits="userSpaceOnUse" height="8.48698" width="8.84658" x="9.01537" y="6.02938"><feFlood flood-opacity="0" result="BackgroundImageFix"/><feBlend in="SourceGraphic" in2="BackgroundImageFix" mode="normal" result="shape"/><feGaussianBlur result="effect1_foregroundBlur_703_1436" stdDeviation=".533209"/></filter><linearGradient id="c"><stop offset="0" stop-color="#d5ffe9"/><stop offset="1" stop-color="#8af2d9"/></linearGradient><linearGradient id="d" gradientUnits="userSpaceOnUse" x1="21.7447" x2="6.34686" xlink:href="#c" y1="5.71455" y2="16.0839"/><linearGradient id="e" gradientUnits="userSpaceOnUse" x1="20.6713" x2="8.64768" y1="6.33648" y2="21.8944"><stop offset="0" stop-color="#c18bd5"/><stop offset="1" stop-color="#6b60d6"/></linearGradient><linearGradient id="f" gradientUnits="userSpaceOnUse" x1="20.0157" x2="7.08205" xlink:href="#c" y1="6.31887" y2="20.2808"/><linearGradient id="g"><stop offset="0" stop-color="#faf2ff"/><stop offset="1" stop-color="#ebcffb"/></linearGradient><linearGradient id="h" gradientUnits="userSpaceOnUse" x1="20.0157" x2="7.08205" xlink:href="#g" y1="6.31887" y2="20.2808"/><linearGradient id="i" gradientUnits="userSpaceOnUse" x1="19.7348" x2="6.52076" y1="8.57507" y2="18.7326"><stop offset="0" stop-color="#d6b3f4"/><stop offset=".307292" stop-color="#6452be"/><stop offset="1" stop-color="#d6b3f4" stop-opacity=".5"/></linearGradient><linearGradient id="j" gradientUnits="userSpaceOnUse" x1="13.4898" x2="9.33169" y1="11.1067" y2="19.1104"><stop offset=".119802" stop-color="#bcf8e3" stop-opacity="0"/><stop offset="1" stop-color="#bcf8e3"/></linearGradient><linearGradient id="k" gradientUnits="userSpaceOnUse" x1="22.3629" x2="7.47286" y1="5.87773" y2="17.9656"><stop offset="0" stop-color="#dba3e2"/><stop offset="1" stop-color="#4e42b7"/></linearGradient><linearGradient id="l" gradientUnits="userSpaceOnUse" x1="21.7449" x2="6.3471" xlink:href="#g" y1="5.71478" y2="16.0841"/><linearGradient id="m" gradientUnits="userSpaceOnUse" x1="18.5864" x2="8.4404" y1="4.92805" y2="15.8449"><stop offset="0" stop-color="#b98bda"/><stop offset="1" stop-color="#58208f"/></linearGradient><linearGradient id="n" gradientUnits="userSpaceOnUse" x1="19.1866" x2="8.58734" y1="6.71524" y2="15.9874"><stop offset="0" stop-color="#fae2ff"/><stop offset="1" stop-color="#b394f4"/></linearGradient><linearGradient id="o" gradientUnits="userSpaceOnUse" x1="16.8952" x2="9.95098" y1="9.17277" y2="9.48248"><stop offset="0" stop-color="#cc98e0" stop-opacity=".42"/><stop offset="1" stop-color="#8457af"/></linearGradient><linearGradient id="p" gradientUnits="userSpaceOnUse" x1="14.3015" x2="13.1057" y1="7.0261" y2="13.6741"><stop offset="0" stop-color="#d59fe8"/><stop offset="1" stop-color="#784ba5"/></linearGradient><linearGradient id="q" gradientUnits="userSpaceOnUse" x1="12.6723" x2="14.2646" y1="7.2633" y2="13.1962"><stop offset="0" stop-color="#fff"/><stop offset="1" stop-color="#f9e8ff"/></linearGradient><mask id="r" height="18" maskUnits="userSpaceOnUse" width="21" x="4" y="4"><path d="m23.5719 11.3181c-.522.2884-1.0433-.1427-1.4278.0757-.9334.5303-.1818.9516-.9788 1.5462-.9112.6798-7.2566 6.0686-9.0791 7.4283s-2.81726.4651-3.14884.1669-3.74755-5.1693-4.09583-5.7824c-.34827-.613-1.02812-1.5243-.13357-2.519 1.41794-1.8435 6.88694-5.10173 9.44414-6.50039.6131-.34828.978.57967 1.8893-.10018.2681-.26563-.1447-.7287.2648-.96135.4904-.27862 1.044-.16061 1.2595-.06678 1.8678 1.4798 5.7361 4.55867 6.2666 5.03577.5883.52903.4051 1.30943-.2604 1.67723z" fill="url(#f)"/></mask><mask id="s" height="13" maskUnits="userSpaceOnUse" width="17" x="5" y="4"><path d="m6.61884 8.22399c3.33999-2.13312 8.99756-3.53052 9.38856-3.65317.5359-.16813 1.2265.22452 1.6089.64787.2029.22465 3.0846 4.19484 3.5457 4.93071.2071.3304.3319.95-.331 1.5237s-7.9278 4.0535-9.7235 4.8499-2.22925.0031-2.54736-.3248c-.3181-.3279-2.5655-5.7547-2.59844-6.2084-.01621-.22315-.46097-1.05168.65714-1.76581z" fill="#f0f0f0"/></mask><path d="m19.8958 3.46504-.0098-.01239-.0127-.00946c-.2015-.15055-.7401-.40658-1.3175-.23698-.1534.04505-.2468.1337-.3004.24528-.0475.09889-.0609.21162-.0714.30085l-.001.00839c-.0198.16605-.0375.25586-.116.30798-.2662.11411-.4554.11989-.6032.08451-.1543-.0369-.2774-.12096-.4137-.21571l-.0098-.00676c-.1962-.13646-.427-.29695-.7659-.19783-1.3726.37924-3.5404 1.03749-5.5859 1.78067-1.02293.37166-2.01679.76509-2.86597 1.15602-.84472.38887-1.55443.77888-2.00649 1.1466-.53835.37573-.72311.82555-.73928 1.27026-.21704.56344-.03268 1.15443.10224 1.58693l.00451.0144c.01962.063.03816.1224.05477.179.02587.088.08185.2515.15904.4677-.32008.2911-.5874.5677-.78308.8214-.44902.5011-.52729.993-.43878 1.4401-.08419.6122.23799 1.1579.47422 1.558l.00772.013c.03434.0582.06682.1133.09668.1658.1772.3119 1.08517 1.673 1.97354 2.9828.44527.6565.88715 1.3024 1.23264 1.8011.17272.2493.32154.4621.43472.6212.11093.1559.19237.2669.22727.3065.29739.3373.82122.7152 1.49205.8316.6763.1173 1.4883-.0336 2.3494-.733.7807-.6342 2.5498-2.1543 4.3068-3.6641l.0024-.0021c2.0183-1.7343 4.0156-3.4504 4.4978-3.8101.2032-.1516.3199-.2987.3878-.4468.0658-.1438.0811-.2802.094-.3956l.0006-.0052c.0089-.0794.0168-.1471.0349-.213.0533-.0749.0889-.15.1171-.2208.0661-.0782.1684-.1637.3318-.2565.133-.0756.293-.0512.5286-.0074l.0114.0021c.2516.0468.5687.1058.8865-.0697l-.047-.0851.047.0851c.0256-.0142.0506-.029.075-.0443.0618-.0038.1252-.0141.1902-.0324.5866-.1648.9704-.6529.896-1.2052.177-.3333.1638-.7429-.0984-1.12017-.4001-.57554-3.3894-4.3673-4.8304-6.18669z" fill="url(#d)" stroke="#000" stroke-width=".242368"/><path d="m23.6055 11.9481c-.5221.2884-1.0433-.1427-1.4278.0757-.9334.5303-.1818.9516-.9788 1.5462-.9112.6799-7.1384 6.1207-8.811 7.4794-1.6725 1.3586-3.10861.5566-3.67408-.0847-.23729-.2691-3.50543-5.0783-3.8537-5.6913-.34828-.6131-1.02813-1.5243-.13357-2.5191 1.41793-1.8435 6.90185-4.99219 9.45915-6.39085.613-.34828.978.57967 1.8893-.10018.2681-.26563-.1448-.7287.2648-.96135.4904-.27862 1.044-.16061 1.2595-.06678 1.8678 1.4798 5.7361 4.55867 6.2666 5.03576.5882.529.4051 1.3095-.2604 1.6772z" fill="url(#e)"/><g mask="url(#r)"><path d="m23.5719 11.3181c-.522.2884-1.0433-.1427-1.4278.0757-.9334.5303-.1818.9516-.9788 1.5462-.9112.6798-7.2566 6.0686-9.0791 7.4283s-2.81726.4651-3.14884.1669-3.74755-5.1693-4.09583-5.7824c-.34827-.613-1.02812-1.5243-.13357-2.519 1.41794-1.8435 6.88694-5.10173 9.44414-6.50039.6131-.34828.978.57967 1.8893-.10018.2681-.26563-.1447-.7287.2648-.96135.4904-.27862 1.044-.16061 1.2595-.06678 1.8678 1.4798 5.7361 4.55867 6.2666 5.03577.5883.52903.4051 1.30943-.2604 1.67723z" fill="url(#h)"/><g filter="url(#a)"><path d="m20.7495 12.8672c-.4727.2228-.9042-.1836-1.2528-.0143-.8462.4112-.2126.822-.9431 1.297-.8352.5432-6.6878 4.8981-8.3582 5.9845-1.67036 1.0864-2.48985.248-2.76302-.0314-.27316-.2795-2.98595-4.7317-3.25597-5.2875-.27002-.5557-.81321-1.3909.02513-2.2104 1.34384-1.5322 6.30996-4.07339 8.62506-5.15243.5558-.27002.8227.56203 1.6579.01885.2494-.21718-.0856-.6454.2857-.82577.4446-.21602.922-.08164 1.1052.01256 1.55 1.39932 4.7593 4.30969 5.1964 4.75689.4846.4957.2805 1.1679-.3223 1.452z" fill="url(#i)"/></g><path d="m23.8467 11.9887c-.56.1574-.9587-.3684-1.3725-.2468-1.0047.2951-.3851.8629-1.2746 1.2495-1.017.4421-8.1446 4.218-10.036 5.1345-1.89144.9166-3.20773-.2503-3.52573-1.0844-.12467-.327-2.13858-5.4207-2.3324-6.0806-.19381-.6599-.63588-1.6769.4356-2.42169 1.75793-1.43382 7.66793-3.19917 10.40833-3.95627.6599-.19381.7993.76877 1.8163.32669.3139-.19235.0253-.72422.4661-.85368.5279-.15505 1.0271.08059 1.2108.2178 1.4431 1.8221 4.4287 5.60916 4.8259 6.18065.4404.6336.0923 1.3338-.6218 1.5343z" fill="url(#j)"/></g><path d="m23.896 11.8611c-.56.1573-.9587-.3684-1.3725-.2469-1.0047.2951-.3851.863-1.2746 1.2496-1.017.4421-8.1445 4.2179-10.036 5.1345-1.89143.9166-3.07594-.1655-3.46967-.9007-.16522-.3085-2.19463-5.6045-2.38844-6.2643-.19381-.6599-.63589-1.67693.4356-2.42171 1.75792-1.43383 7.66801-3.19918 10.40841-3.95628.6598-.19381.7992.76877 1.8162.3267.3139-.19235.0253-.72422.4661-.85369.5279-.15505 1.0272.0806 1.2108.2178 1.4431 1.8221 4.4287 5.60917 4.8259 6.18058.4404.6337.0923 1.3338-.6218 1.5344z" fill="url(#k)"/><path d="m24.0054 11.2555c-.5601.1574-.9587-.3684-1.3726-.2468-1.0047.2951-.3851.8629-1.2745 1.2495-1.0171.4421-8.2452 4.1421-10.2793 5.0262-2.03401.8842-2.7788-.1873-3.02706-.5445s-2.40419-5.745-2.598-6.4049c-.19381-.65986-.63589-1.67689.43559-2.42168 1.75793-1.43383 7.67817-3.30648 10.41857-4.06358.6599-.19381.7992.76877 1.8163.3267.3139-.19236.0252-.72422.466-.85369.5279-.15505 1.0272.08059 1.2109.2178 1.4431 1.8221 4.4286 5.60916 4.8258 6.18062.4405.63363.0924 1.33383-.6217 1.53433z" fill="url(#l)"/><g mask="url(#s)"><path d="m6.61884 8.22399c3.33999-2.13312 8.99756-3.53052 9.38856-3.65317.5359-.16813 1.2265.22452 1.6089.64787.2029.22465 3.0846 4.19484 3.5457 4.93071.2071.3304.3319.95-.331 1.5237s-7.9278 4.0535-9.7235 4.8499-2.22925.0031-2.54736-.3248c-.3181-.3279-2.5655-5.7547-2.59844-6.2084-.01621-.22315-.46097-1.05168.65714-1.76581z" fill="url(#m)"/><path d="m6.56586 8.51696c3.33999-2.13312 8.99754-3.53052 9.38854-3.65317.5359-.16813 1.2265.22452 1.6089.64787.2029.22465 3.0846 4.19484 3.5457 4.93064.2071.3304.3319.9501-.331 1.5238s-7.9278 4.0535-9.7235 4.8499c-1.79568.7964-2.22923.0031-2.54734-.3248-.3181-.328-2.5655-5.7547-2.59844-6.2084-.0162-.2232-.46096-1.05171.65714-1.76584z" fill="url(#n)"/></g><rect fill="#ebc4fe" height="1.13419" rx=".139301" transform="matrix(.80858899 -.5883739 .5883739 .80858899 .708608 12.157673)" width=".278601" x="19.0399" y="4.98975"/><rect fill="#af81d3" height="1.07173" rx=".107174" transform="matrix(.80858899 -.5883739 .5883739 .80858899 .686264 12.189472)" width=".214348" x="19.0776" y="5.03999"/><rect fill="#ebc4fe" height="1.13419" rx=".139301" transform="matrix(.80858899 -.5883739 .5883739 .80858899 .130615 12.987893)" width=".278601" x="20.0269" y="6.2932"/><rect fill="#af81d3" height="1.07173" rx=".107174" transform="matrix(.80858899 -.5883739 .5883739 .80858899 .108165 13.019465)" width=".214348" x="20.0642" y="6.34349"/><rect fill="#ebc4fe" height="1.13419" rx=".139301" transform="matrix(.80858899 -.5883739 .5883739 .80858899 -.439213 13.771473)" width=".278601" x="20.9463" y="7.56078"/><rect fill="#af81d3" height="1.07173" rx=".107174" transform="matrix(.80858899 -.5883739 .5883739 .80858899 -.46163 13.803165)" width=".214348" x="20.9838" y="7.61108"/><rect fill="#ebc4fe" height="1.13419" rx=".139301" transform="matrix(.80858899 -.5883739 .5883739 .80858899 -1.005418 14.58055)" width=".278601" x="21.9067" y="8.83554"/><rect fill="#af81d3" height="1.07173" rx=".107174" transform="matrix(.80858899 -.5883739 .5883739 .80858899 -1.02807 14.612059)" width=".214348" x="21.9438" y="8.88611"/><g filter="url(#b)"><path clip-rule="evenodd" d="m15.6885 12.2103 1.1071-.4267-2.1053-4.6878-1.107.42675-.6388 1.26842.5133 1.15724.6388-1.26841zm-3.2269-.1211.9832-.3791-.4005-.9896-.9832.379-.3952-.9767-.9961.384.3952.9767-.9832.3791.4005.9896.9832-.379.3953.9767.9961-.384z" fill="url(#o)" fill-rule="evenodd"/></g><g clip-rule="evenodd" fill-rule="evenodd"><path d="m15.6885 12.2103 1.1071-.4267-2.1053-4.6878-1.107.42675-.6388 1.26842.5133 1.15724.6388-1.26841zm-3.2269-.1211.9832-.3791-.4005-.9896-.9832.379-.3952-.9767-.9961.384.3952.9767-.9832.3791.4005.9896.9832-.379.3953.9767.9961-.384z" fill="url(#p)"/><path d="m15.8327 11.8805 1.107-.4267-2.1052-4.6878-1.107.42675-.6388 1.26842.5133 1.15724.6388-1.26841zm-3.2269-.1211.9832-.3791-.4005-.9896-.9832.379-.3953-.97673-.9961.38403.3953.9767-.9832.3791.4005.9896.9831-.379.3953.9767.9961-.384z" fill="url(#q)"/></g></svg>