<svg fill="none" height="99" viewBox="0 0 91 99" width="91" xmlns="http://www.w3.org/2000/svg" xmlns:xlink="http://www.w3.org/1999/xlink"><linearGradient id="a" gradientUnits="userSpaceOnUse" x1="91.0018" x2="47.1235" y1="62.335" y2="11.2683"><stop offset=".17573" stop-color="#fff280"/><stop offset="1" stop-color="#ffd25e"/></linearGradient><linearGradient id="b" gradientUnits="userSpaceOnUse" x1="76.0086" x2="44.7892" y1="10.1711" y2="100.309"><stop offset="0" stop-color="#fffddc"/><stop offset="1" stop-color="#fff997"/></linearGradient><linearGradient id="c" gradientUnits="userSpaceOnUse" x1="58.2838" x2="85.898" y1="-39.3724" y2="121.333"><stop offset="0" stop-color="#000d1d"/><stop offset="1" stop-color="#2f3032"/></linearGradient><mask id="d" height="85" maskUnits="userSpaceOnUse" width="81" x="11" y="13"><path d="m80.7579 19.7598-.0182.0205.3909.3307c6.9081 5.8459 10.5402 15.6489 9.0315 27.7443-1.4095 11.2997-7.0383 22.4178-15.0168 31.2496-7.9792 8.8326-18.2774 15.3444-28.9887 17.4751-10.3468 2.0581-19.1563-.3502-25.1802-5.874l-.0774-.0709-.013-.0124-.0037-.0035c-.1216-.1127-.2421-.2267-.3614-.342l-.0038-.0035-4.7221-4.4685.1633.0083.9301.0473-.4745-.8013c-3.3431-5.6467-4.8098-12.9951-3.7531-21.4671 1.4094-11.2997 7.0382-22.4178 15.0168-31.2496 7.9792-8.8326 18.2774-15.3444 28.9887-17.475 7.7684-1.5453 14.6688-.5715 20.1702 2.3418l1.0406.5511-.2681-.93z" fill="#d9d9d9" stroke="#000"/></mask><mask id="e" height="85" maskUnits="userSpaceOnUse" width="80" x="4" y="7"><path d="m83.1606 41.444c-2.8165 22.5801-22.4658 44.3055-43.8518 48.5594-21.3861 4.254-36.47752-10.5611-33.66102-33.1412 2.81651-22.5801 22.46572-44.3055 43.85182-48.55944 21.3861-4.25395 36.4775 10.56114 33.661 33.14124z" fill="#fff" stroke="#000"/></mask><g mask="url(#d)"><path d="m46.2541 97.0704c21.6754-4.3116 41.5558-26.3182 44.4041-49.1532 1.5251-12.2261-2.1416-22.2109-9.2046-28.1879l.0025-.0028-4.8271-4.4903.4415 1.5316c-5.6172-2.9747-12.6374-3.9547-20.5018-2.3904-21.6754 4.3115-41.5558 26.3181-44.4041 49.1531-1.0681 8.563.4106 16.0265 3.8191 21.7837-.5533-.0282-1.0688-.0544-1.5167-.0772l5.7065 5.3999c.1218.1176.2447.234.3689.349l.0952.0901.0009-.0015c6.1594 5.648 15.1383 8.0799 25.6156 5.9959z" fill="url(#a)"/><path d="m73.8187 60.8624 12.709 12.1665-20.1581 19.8765-37.2368 11.1916-19.4619-23.1286z" fill="#000"/><path d="m77.5618 54.0166 9.1422 9.3032 4.702-5.7127-9.5143-10.156z" fill="#000"/><path d="m80.7579 19.7598-.0182.0205.3909.3307c6.9081 5.8459 10.5402 15.6489 9.0315 27.7443-1.4095 11.2997-7.0383 22.4178-15.0168 31.2496-7.9792 8.8326-18.2774 15.3444-28.9887 17.4751-10.3468 2.0581-19.1563-.3502-25.1802-5.874l-.0774-.0709-.013-.0124-.0037-.0035c-.1216-.1127-.2421-.2267-.3614-.342l-.0038-.0035-4.7221-4.4685.1633.0083.9301.0473-.4745-.8013c-3.3431-5.6467-4.8098-12.9951-3.7531-21.4671 1.4094-11.2997 7.0382-22.4178 15.0168-31.2496 7.9792-8.8326 18.2774-15.3444 28.9887-17.475 7.7684-1.5453 14.6688-.5715 20.1702 2.3418l1.0406.5511-.2681-.93z" stroke="#000"/></g><g mask="url(#e)"><path d="m83.1606 41.444c-2.8165 22.5801-22.4658 44.3055-43.8518 48.5594-21.3861 4.254-36.47752-10.5611-33.66102-33.1412 2.81651-22.5801 22.46572-44.3055 43.85182-48.55944 21.3861-4.25395 36.4775 10.56114 33.661 33.14124z" fill="url(#b)" stroke="#000"/><path d="m11.0138 12.5265 81.8764-12.80537-2.3281 46.75887-89.05526 14.7455z" fill="#fff"/><path d="m83.1606 41.444c-2.8165 22.5801-22.4658 44.3055-43.8518 48.5594-21.3861 4.254-36.47752-10.5611-33.66102-33.1412 2.81651-22.5801 22.46572-44.3055 43.85182-48.55944 21.3861-4.25395 36.4775 10.56114 33.661 33.14124z" stroke="#000"/><path d="m74.3233 43.2034c-2.1751 17.4383-17.3479 34.2084-33.8532 37.4916-16.5054 3.2831-28.1602-8.1507-25.985-25.589 2.1751-17.4383 17.3479-34.2084 33.8532-37.4916 16.5054-3.2831 28.1602 8.1507 25.985 25.589z" stroke="#ffdd85"/><g fill="url(#c)"><path d="m31.2076 55.0357c-.5217 3.4783-.1156 4.1582 2.2158 3.7576 2.3006-.3953 2.9422-1.2852 3.4592-4.7327l2.0545-13.6976 5.4603-.9383-2.0544 13.6976c-.5079 3.386-1.0623 4.8907-2.2992 6.3627-1.7095 2.033-3.8449 3.1197-7.2806 3.71-3.6811.6326-5.7252.1141-6.801-1.6802-.6129-1.0942-.6812-2.4319-.2149-5.5408l2.0545-13.6976 5.4603-.9383z"/><path d="m45.4175 60.6608 3.2963-21.9778 7.6383-1.3125c3.3437-.5745 4.9877-.3772 6.0515.6995 1.0377 1.0512 1.267 2.5112.8469 5.3122-.4155 2.7703-1.2922 4.6303-2.8526 6.068-1.4239 1.3242-3.1405 2.009-6.2387 2.5414l-2.178.3742-1.1034 7.3567zm7.1272-12.6501 2.3007-.3953c1.9326-.3321 2.6876-1.1816 3.02-3.3978s-.201-2.8443-2.1335-2.5122l-2.3007.3953z"/></g></g></svg>