<svg fill="none" height="106" viewBox="0 0 97 106" width="97" xmlns="http://www.w3.org/2000/svg" xmlns:xlink="http://www.w3.org/1999/xlink"><linearGradient id="a" gradientUnits="userSpaceOnUse" x1="97.0018" x2="50.2306" y1="66.8122" y2="12.3787"><stop offset=".17573" stop-color="#90edcc"/><stop offset="1" stop-color="#57d9aa"/></linearGradient><linearGradient id="b" gradientUnits="userSpaceOnUse" x1="81.0199" x2="47.7422" y1="11.2092" y2="107.29"><stop offset="0" stop-color="#dbfdf1"/><stop offset="1" stop-color="#91efcd"/></linearGradient><linearGradient id="c" gradientUnits="userSpaceOnUse" x1="48.4257" x2="54.6529" y1="35.3246" y2="72.517"><stop offset="0" stop-color="#000d1d"/><stop offset="1" stop-color="#2f3032"/></linearGradient><mask id="d" height="91" maskUnits="userSpaceOnUse" width="85" x="12" y="14"><path d="m86.1287 21.4281-.0183.0206.3907.3306c7.3737 6.2398 11.2476 16.7012 9.6383 29.6026-1.5033 12.0525-7.5067 23.9097-16.015 33.3279-8.509 9.4191-19.4922 16.3642-30.918 18.6372-11.0375 2.196-20.4391-.373-26.869-6.269l-.0822-.0754-.0145-.0137-.0038-.0035c-.1298-.1203-.2583-.242-.3857-.365l-.0037-.0036-5.0984-4.8245.2633.0134.9301.0473-.4745-.8013c-3.5678-6.0263-5.1321-13.8668-4.0049-22.9033 1.5033-12.0524 7.5068-23.9096 16.015-33.3279 8.509-9.419 19.4922-16.3646 30.918-18.6373 8.2869-1.6484 15.6502-.61 21.5219 2.4994l1.0406.5511-.2972-1.031z" fill="#d9d9d9" stroke="#000"/></mask><mask id="e" height="91" maskUnits="userSpaceOnUse" width="85" x="5" y="7"><path d="m88.6758 44.5374c-3.0043 24.0856-23.9643 47.2619-46.7794 51.8001-22.8151 4.5385-38.91275-11.2668-35.90846-35.3524s23.96426-47.2619 46.77936-51.80011 38.9128 11.26681 35.9085 35.35241z" fill="#fff" stroke="#000"/></mask><g mask="url(#d)"><path d="m49.3039 103.838c23.1045-4.5961 44.2956-28.0536 47.3317-52.3942 1.6255-13.0322-2.2829-23.6752-9.8115-30.0462l.0026-.0031-5.1453-4.7863.4706 1.6325c-5.9875-3.1707-13.4705-4.2154-21.8534-2.5479-23.1045 4.5957-44.2956 28.0532-47.3317 52.3938-1.1385 9.1275.4376 17.0831 4.0709 23.2198-.5898-.03-1.1392-.058-1.6167-.0823l6.0827 5.7559c.1298.1254.2609.2494.3932.3721l.1015.096.001-.0016c6.5654 6.0205 16.1363 8.6125 27.3044 6.3915z" fill="url(#a)"/><path d="m78.6859 65.2425 13.5469 12.9686-21.4871 21.187-39.6919 11.9289-20.745-24.653z" fill="#000"/><path d="m82.6757 57.9453 9.745 9.9165 5.012-6.0893-10.1417-10.8255z" fill="#000"/><path d="m86.1287 21.4281-.0183.0206.3907.3306c7.3737 6.2398 11.2476 16.7012 9.6383 29.6026-1.5033 12.0525-7.5067 23.9097-16.015 33.3279-8.509 9.4191-19.4922 16.3642-30.918 18.6372-11.0375 2.196-20.4391-.373-26.869-6.269l-.0822-.0754-.0145-.0137-.0038-.0035c-.1298-.1203-.2583-.242-.3857-.365l-.0037-.0036-5.0984-4.8245.2633.0134.9301.0473-.4745-.8013c-3.5678-6.0263-5.1321-13.8668-4.0049-22.9033 1.5033-12.0524 7.5068-23.9096 16.015-33.3279 8.509-9.419 19.4922-16.3646 30.918-18.6373 8.2869-1.6484 15.6502-.61 21.5219 2.4994l1.0406.5511-.2972-1.031z" stroke="#000"/></g><g mask="url(#e)"><path d="m88.6758 44.5374c-3.0043 24.0856-23.9643 47.2619-46.7794 51.8001-22.8151 4.5385-38.91275-11.2668-35.90846-35.3524s23.96426-47.2619 46.77936-51.80011 38.9128 11.26681 35.9085 35.35241z" fill="url(#b)" stroke="#000"/><path d="m11.74 13.7199 87.2746-13.649618-2.4817 49.841618-94.92658 15.7177z" fill="#fff"/><path d="m88.6758 44.5374c-3.0043 24.0856-23.9643 47.2619-46.7794 51.8001-22.8151 4.5385-38.91275-11.2668-35.90846-35.3524s23.96426-47.2619 46.77936-51.80011 38.9128 11.26681 35.9085 35.35241z" stroke="#000"/><path d="m79.2558 46.4129c-2.3206 18.6048-18.5089 36.4991-36.1216 40.0024-17.6126 3.5034-30.047-8.6975-27.7264-27.3023 2.3207-18.6048 18.509-36.4991 36.1216-40.0025 17.6126-3.5033 30.0471 8.6976 27.7264 27.3024z" stroke="#61daae"/><path clip-rule="evenodd" d="m63.163 32.8571-1.2302 7.9696-10.842 1.8152-.8044 5.2114c8.7108-1.0241 15.0161-.205 14.6602 2.1006-.356 2.3065-7.2553 5.3355-16.1041 7.2533l-2.5801 16.7146-7.7236 1.2932 2.5795-16.7108c-8.7452 1.0354-15.0835.2191-14.7264-2.0941.357-2.3132 7.2904-5.3516 16.1715-7.2674l.8037-5.2066-10.8419 1.8153 1.2303-7.9706zm-14.0075 22.352c6.985-1.5148 12.3129-3.6505 12.5476-5.1711l.0008-.0001c.2349-1.5215-4.7005-1.9388-11.5814-1.1311l-.7434 4.8161c-1.2408.2792-2.5587.5379-3.9135.7647-1.3342.2234-2.6135.3995-3.8116.5324l.7462-4.8341c-7.0182 1.5184-12.3804 3.6599-12.6164 5.189-.2359 1.5282 4.7307 1.944 11.6415 1.1266l.455-.0539.006-.001c.4581-.0582.9226-.1202 1.3955-.1873l.0446-.0075.3987-.0574.1167-.0196.3341-.0513 2.1464-.3593.3401-.0625.121-.0203.4308-.0814.0197-.0033c.3214-.0613.639-.1246.9533-.1884l.0455-.0076.4225-.0875.0498-.0083z" fill="url(#c)" fill-rule="evenodd"/></g></svg>