<svg fill="none" height="20" viewBox="0 0 20 20" width="20" xmlns="http://www.w3.org/2000/svg"><path clip-rule="evenodd" d="m8.0056 4.4107c.32543.32544.32543.85308 0 1.17851l-3.57741 3.57742h12.98811c.4603 0 .8334.37309.8334.83333s-.3731.83334-.8334.83334h-12.98811l3.57741 3.5774c.32543.3254.32543.8531 0 1.1785-.32544.3255-.85308.3255-1.17851 0l-4.9997-4.9997c-.0001-.0001-.0002-.0002-.0003-.0003-.00059-.0006-.00118-.0012-.00177-.0018-.07902-.0794-.13871-.1709-.17908-.2685-.04074-.0982-.06323-.2059-.06323-.31894 0-.22922.09254-.43682.24231-.58749.00059-.00059.00118-.00118.00177-.00177.0001-.0001.0002-.0002.0003-.0003l4.9997-4.9997c.32543-.32543.85307-.32543 1.17851 0z" fill="#fff" fill-rule="evenodd"/></svg>