<svg height="957" viewBox="0 0 1025 957" width="1025" xmlns="http://www.w3.org/2000/svg" xmlns:xlink="http://www.w3.org/1999/xlink"><defs><radialGradient id="a" cx="52.758276%" cy="45.23124%" gradientTransform="matrix(0 .999866 -1.025441 0 .991402 -.0752)" r="48.281604%"><stop offset="0" stop-color="#fff" stop-opacity=".374377"/><stop offset="1" stop-color="#e8eaee" stop-opacity="0"/></radialGradient><path id="b" d="m809.891877 864.461684-203.229498-117.348711 203.229498-117.35076 203.229503 117.35076zm-205.27777 118.532769-203.22745-117.35076 203.22745-117.350759 203.229498 117.350759zm-408.50522-235.88148 203.229499-117.35076 203.229498 117.35076-203.229498 117.348711zm.002049-237.065537 203.22745-117.348711 203.22745 117.348711-203.22745 117.348711zm-.002049-237.063489 203.229499-117.35076 203.22745 117.35076-203.22745 117.350759zm408.50522-235.88148 203.229498 117.348711-203.229498 117.348711-203.22745-117.348711zm205.27777 118.53072 203.229503 117.35076-203.229503 117.348711-203.229498-117.348711zm-408.50522 235.883528 203.22745-117.350759 203.229498 117.348711-203.229498 117.35076zm406.456948 237.063489-203.229498 117.35076-203.22745-117.35076 203.22745-117.350759zm205.277775-118.532768-203.229503 117.348711-203.231547-117.348711 203.231547-117.35076zm11.0156 470.132319v-2.364018l-8.96938 5.176667-203.2295-117.348711 203.2295-117.348711 8.96938 5.176667v-2.364018l-6.92111-3.994658 6.92111-3.996706v-2.366067l-8.96938 5.180764-203.2295-117.35076 203.2295-117.350759 8.96938 5.178715v-2.366066l-6.92111-3.994658 6.92111-3.996707v-2.364018l-8.96938 5.178716-203.2295-117.35076 203.2295-117.348711 8.96938 5.176667v-2.364018l-6.92111-3.994658 6.92111-3.998755v-2.36197l-8.96938 5.176667-203.227452-117.348711 203.229502-117.3507596 8.96733 5.1766671v-2.3619696l-6.92111-3.9967065 6.92111-3.994658v-2.3660666l-8.96733 5.1787155-58.660451-33.87265092h-4.094494l60.706675 35.05466002-203.229503 117.3507596-203.229498-117.3507596 60.708719-35.05466002h-4.096543l-58.660448 33.87265092-58.658399-33.87265092h-4.094495l60.704623 35.05466002-203.22745 117.3507596-203.229499-117.3507596 60.706671-35.05466002h-4.096543l-58.658399 33.87265092-58.658399-33.87265092h-4.096543l60.708719 35.05466002-192.01316404 110.8732686v2.364018l194.05938704-112.0552776 203.231546 117.3507596-203.229498 117.348711-194.06143504-112.055277v2.364018l192.01316404 110.875317-192.01316404 110.873268v2.366067l194.06143504-112.057326 203.229498 117.348711-203.229498 117.35076-194.06143504-112.057326v2.364018l192.01316404 110.875317-192.01316404 110.873268v2.366066l194.06143504-112.057325 203.229498 117.350759-203.229498 117.35076-194.06143504-112.057326v2.364018l192.01316404 110.875317-192.01316404 110.873268v2.364018l194.06143504-112.057325 203.229498 117.350759-203.229498 117.35076-194.06143504-112.057326v2.364018l192.01316404 110.875317-70.935739 40.960608h4.094495l68.887467-39.776551 68.887467 39.776551h4.096543l-70.935739-40.962657 203.229499-117.348711 203.229498 117.348711-70.935739 40.962657h4.094495l68.887467-39.778599 68.887467 39.778599h4.094495l-70.93369-40.962657 203.229498-117.348711 203.229503 117.348711-70.935743 40.962657h4.096543l68.88747-39.778599 8.96733 5.176667v-2.36197l-6.92111-3.998755z"/><filter id="c" height="281.8%" width="281.8%" x="-90.9%" y="-90.9%"><feGaussianBlur in="SourceGraphic" stdDeviation="50"/></filter><filter id="d" height="281.8%" width="281.8%" x="-90.9%" y="-90.9%"><feGaussianBlur in="SourceGraphic" stdDeviation="50"/></filter><filter id="e" height="281.8%" width="281.8%" x="-90.9%" y="-90.9%"><feGaussianBlur in="SourceGraphic" stdDeviation="50"/></filter><path id="f" d="m634 362.668662c0 2.392138-3.679124 4.331338-8.216917 4.331338-4.537792 0-8.216917-1.9392-8.216917-4.331338 0-2.392137 3.679125-4.329376 8.216917-4.329376 4.537793 0 8.216917 1.937239 8.216917 4.329376"/><filter id="g" height="688.9%" width="410.3%" x="-155.2%" y="-294.4%"><feOffset dx="0" dy="0" in="SourceAlpha" result="shadowOffsetOuter1"/><feGaussianBlur in="shadowOffsetOuter1" result="shadowBlurOuter1" stdDeviation="8.5"/><feColorMatrix in="shadowBlurOuter1" type="matrix" values="0 0 0 0 0.996078431   0 0 0 0 0.956862745   0 0 0 0 0.874509804  0 0 0 1 0"/></filter><path id="h" d="m16.4338336 243.150805c0 2.392138-3.6791245 4.331338-8.21691682 4.331338-4.53779229 0-8.21691678-1.9392-8.21691678-4.331338 0-2.392137 3.67912449-4.329376 8.21691678-4.329376 4.53779232 0 8.21691682 1.937239 8.21691682 4.329376"/><filter id="i" height="688.9%" width="410.3%" x="-155.2%" y="-294.4%"><feOffset dx="0" dy="0" in="SourceAlpha" result="shadowOffsetOuter1"/><feGaussianBlur in="shadowOffsetOuter1" result="shadowBlurOuter1" stdDeviation="8.5"/><feColorMatrix in="shadowBlurOuter1" type="matrix" values="0 0 0 0 0.996078431   0 0 0 0 0.956862745   0 0 0 0 0.874509804  0 0 0 1 0"/></filter><path id="j" d="m429.433834 4.33035714c0 2.39267922-3.679125 4.33035715-8.216917 4.33035715-4.537793 0-8.216917-1.93767793-8.216917-4.33035715s3.679124-4.33035714 8.216917-4.33035714c4.537792 0 8.216917 1.93767792 8.216917 4.33035714"/><filter id="k" height="688.9%" width="410.3%" x="-155.2%" y="-294.4%"><feOffset dx="0" dy="0" in="SourceAlpha" result="shadowOffsetOuter1"/><feGaussianBlur in="shadowOffsetOuter1" result="shadowBlurOuter1" stdDeviation="8.5"/><feColorMatrix in="shadowBlurOuter1" type="matrix" values="0 0 0 0 0.996078431   0 0 0 0 0.956862745   0 0 0 0 0.874509804  0 0 0 1 0"/></filter><filter id="l" height="100%" width="100%" x="0%" y="0%"><feGaussianBlur in="SourceGraphic" stdDeviation="0"/></filter><path id="m" d="m212.290927 164.146003-34.942861-20.17418 35.041989-20.363536 35.051934-20.370165 35.041989-20.3651938 34.678788 20.0217178 34.452151-20.0217178 35.272376 20.3635358 35.269061 20.363536-35.041989 20.363536-35.270719-20.363536-34.665547-20.015081-34.455447 20.023368-35.050276 20.368509-34.942866 20.307586 34.931263 20.167552 35.270719 20.363536-35.041989 20.363536-35.270718-20.363536-35.270719-20.363536zm211.551062.423058-35.041989 20.365193-35.050276 20.368508-35.041989 20.365194-35.282321-20.370166 35.041989-20.363536 35.051934-20.370166 35.041989-20.365193zm34.561326 59.661878 35.041989-20.363536 35.280663 20.370166 35.043646-20.363536 35.269061 20.363536-35.041989 20.361879-35.041989 20.365193-35.051934 20.370166 35.272376 20.363536-35.041989 20.365193-35.270718-20.365193-35.041989 20.365193-35.270718-20.363536 35.041989-20.363536-35.280663-20.371823-35.272376-20.363536 35.043646-20.361878 35.050277-20.371824 35.270718 20.363536-35.051934 20.370166 35.282321 20.370166 35.051933-20.370166zm-247.683978-224.230939 35.280663 20.3685083-35.041989 20.3635359-35.040331 20.3651934-35.053592 20.3701657 35.270719 20.3651937-35.040332 20.361878-35.270718-20.361878-35.041989 20.361878-35.2823205-20.368508 35.0403315-20.3651935-35.2674033-20.3635359-35.2723757-20.3635359 35.041989-20.363536 35.0519337-20.3701657 35.2690603 20.3635359-35.0502758 20.3701658 35.2707178 20.3635359 35.050277-20.3685083-35.270719-20.3651934 35.043647-20.3635359 35.269061 20.3635359z"/><linearGradient id="n" x1="50%" x2="50%" y1="0%" y2="100%"><stop offset="0" stop-color="#00054a"/><stop offset="1" stop-color="#00043d"/></linearGradient><linearGradient id="o" x1="50%" x2="50%" y1="-24.156104%" y2="100%"><stop offset="0" stop-color="#0d1472"/><stop offset="1" stop-color="#00054a"/></linearGradient><mask id="p" fill="#fff"><use fill="#fff" fill-rule="evenodd" xlink:href="#b"/></mask><mask id="q" fill="#fff"><path d="m.84 6.269c19.362 2.176 6.746 30.395 29.48 46.861 26.693 19.334 56.001-15.056 57.708-21.292 1.284-7.776-5.466-5.244-7.301-2.771-.905 1.222-4.336 7.987-13.101 8.699-17.118 1.389-16.661-9.383-24.999-21.782-6.08-9.041-15.807-15.062-25.972-15.062-5.304 0-10.729 1.64-15.815 5.347" fill="#fff" fill-rule="evenodd"/></mask><mask id="r" fill="#fff"><path d="m.84 6.269c19.362 2.176 6.746 30.395 29.48 46.861 26.693 19.334 56.001-15.056 57.708-21.292 1.284-7.776-5.466-5.244-7.301-2.771-.905 1.222-4.336 7.987-13.101 8.699-17.118 1.389-16.661-9.383-24.999-21.782-6.08-9.041-15.807-15.062-25.972-15.062-5.304 0-10.729 1.64-15.815 5.347" fill="#fff" fill-rule="evenodd"/></mask><mask id="s" fill="#fff"><path d="m.84 6.269c19.362 2.176 6.746 30.395 29.48 46.861 26.693 19.334 56.001-15.056 57.708-21.292 1.284-7.776-5.466-5.244-7.301-2.771-.905 1.222-4.336 7.987-13.101 8.699-17.118 1.389-16.661-9.383-24.999-21.782-6.08-9.041-15.807-15.062-25.972-15.062-5.304 0-10.729 1.64-15.815 5.347" fill="#fff" fill-rule="evenodd"/></mask><mask id="t" fill="#fff"><path d="m.84 6.269c19.362 2.176 6.746 30.395 29.48 46.861 26.693 19.334 56.001-15.056 57.708-21.292 1.284-7.776-5.466-5.244-7.301-2.771-.905 1.222-4.336 7.987-13.101 8.699-17.118 1.389-16.661-9.383-24.999-21.782-6.08-9.041-15.807-15.062-25.972-15.062-5.304 0-10.729 1.64-15.815 5.347" fill="#fff" fill-rule="evenodd"/></mask><mask id="u" fill="#fff"><path d="m.84 6.269c19.362 2.176 6.746 30.395 29.48 46.861 26.693 19.334 56.001-15.056 57.708-21.292 1.284-7.776-5.466-5.244-7.301-2.771-.905 1.222-4.336 7.987-13.101 8.699-17.118 1.389-16.661-9.383-24.999-21.782-6.08-9.041-15.807-15.062-25.972-15.062-5.304 0-10.729 1.64-15.815 5.347" fill="#fff" fill-rule="evenodd"/></mask><mask id="v" fill="#fff"><path d="m.84 6.269c19.362 2.176 6.746 30.395 29.48 46.861 26.693 19.334 56.001-15.056 57.708-21.292 1.284-7.776-5.466-5.244-7.301-2.771-.905 1.222-4.336 7.987-13.101 8.699-17.118 1.389-16.661-9.383-24.999-21.782-6.08-9.041-15.807-15.062-25.972-15.062-5.304 0-10.729 1.64-15.815 5.347" fill="#fff" fill-rule="evenodd"/></mask><mask id="w" fill="#fff"><path d="m.84 6.269c19.362 2.176 6.746 30.395 29.48 46.861 26.693 19.334 56.001-15.056 57.708-21.292 1.284-7.776-5.466-5.244-7.301-2.771-.905 1.222-4.336 7.987-13.101 8.699-17.118 1.389-16.661-9.383-24.999-21.782-6.08-9.041-15.807-15.062-25.972-15.062-5.304 0-10.729 1.64-15.815 5.347" fill="#fff" fill-rule="evenodd"/></mask><mask id="x" fill="#fff"><path d="m.953 13.269c7.833-2.362 22.372.253 26.739 7.635 1.422-8.315-10.644-19.38-16.562-20.772z" fill="#fff" fill-rule="evenodd"/></mask><mask id="y" fill="#fff"><path d="m.953 13.269c7.833-2.362 22.372.253 26.739 7.635 1.422-8.315-10.644-19.38-16.562-20.772z" fill="#fff" fill-rule="evenodd"/></mask><mask id="z" fill="#fff"><path d="m.4358.6576h27.867625v16.3424h-27.867625z" fill="#fff" fill-rule="evenodd"/></mask><mask id="A" fill="#fff"><path d="m.435 8.292c7.126 5.731 23.291 8.677 27.076 8.708h.109c.355-.003.584-.035.663-.096.557-.434-10.361-12.669-13.992-16.246z" fill="#fff" fill-rule="evenodd"/></mask><mask id="B" fill="#fff"><path d="m.871 30.092c-2.199 18.252 11.303 34.982 30.057 37.241 18.753 2.258 35.841-10.786 38.041-29.039 2.198-18.253-11.303-34.982-30.057-37.242-1.42-.171-2.83-.254-4.224-.254-17.032 0-31.785 12.422-33.817 29.294z" fill="#fff" fill-rule="evenodd"/></mask><mask id="C" fill="#fff"><path d="m.871 30.092c-2.199 18.252 11.303 34.982 30.057 37.241 18.753 2.258 35.841-10.786 38.041-29.039 2.198-18.253-11.303-34.982-30.057-37.242-1.42-.171-2.83-.254-4.224-.254-17.032 0-31.785 12.422-33.817 29.294" fill="#fff" fill-rule="evenodd"/></mask><mask id="D" fill="#fff"><path d="m.624 19.552c-1.442 11.973 6.082 22.784 16.751 24.069 10.669 1.286 20.544-7.43 21.987-19.402s-6.082-22.783-16.751-24.068c-.7-.084-1.399-.126-2.09-.126-9.84 0-18.55 8.343-19.897 19.527" fill="#fff" fill-rule="evenodd"/></mask><mask id="E" fill="#fff"><path d="m.624 19.552c-1.442 11.973 6.082 22.784 16.751 24.069 10.669 1.286 20.544-7.43 21.987-19.402s-6.082-22.783-16.751-24.068c-.7-.084-1.399-.126-2.09-.126-9.84 0-18.55 8.343-19.897 19.527" fill="#fff" fill-rule="evenodd"/></mask><mask id="F" fill="#fff"><path d="m5.836 39.982c-3.539 5.192-4.049 8.011-4.774 14.029-1.774 14.722 8.602 28.242 23.168 30.435 8.208 1.226 17.086 6.684 17.746 15.126 3.906.471 6.936.836 10.843 1.307 2.646-8.045 12.566-11.234 20.829-10.481 14.67 1.337 27.961-9.339 29.734-24.062.724-6.017.898-8.877-1.306-14.761 5.789-9.666 10.561-30.725 6.62-39.186-12.429-.329-26.95 9.004-34.856 20.778l-36.203-4.362c-4.886-13.315-16.775-25.828-28.926-28.459-5.838 7.282-6.203 28.872-2.875 39.636z" fill="#fff" fill-rule="evenodd"/></mask><mask id="G" fill="#fff"><path d="m5.836 39.982c-3.539 5.192-4.049 8.011-4.774 14.029-1.774 14.722 8.602 28.242 23.168 30.435 8.208 1.226 17.086 6.684 17.746 15.126 3.906.471 6.936.836 10.843 1.307 2.646-8.045 12.566-11.234 20.829-10.481 14.67 1.337 27.961-9.339 29.734-24.062.724-6.017.898-8.877-1.306-14.761 5.789-9.666 10.561-30.725 6.62-39.186-12.429-.329-26.95 9.004-34.856 20.778l-36.203-4.362c-4.886-13.315-16.775-25.828-28.926-28.459-5.838 7.282-6.203 28.872-2.875 39.636z" fill="#fff" fill-rule="evenodd"/></mask><mask id="H" fill="#fff"><path d="m5.433.707c-.036.05-.071.102-.108.153-.053.077-.107.152-.159.229-.039.057-.076.118-.114.177-.051.077-.101.154-.15.233-.038.063-.075.127-.113.19-.046.077-.091.153-.136.232-.039.068-.077.138-.115.208-.044.08-.089.16-.132.241-.037.072-.074.145-.11.217-.043.081-.083.163-.124.246-.036.074-.072.149-.108.224-.041.087-.08.174-.121.262l-.106.239c-.037.084-.075.171-.112.257l-.105.255c-.035.085-.069.173-.104.26l-.106.273-.095.253c-.035.096-.07.192-.105.289-.03.089-.062.179-.092.269l-.097.285c-.03.091-.059.186-.09.279-.031.099-.063.197-.093.297-.029.09-.055.181-.082.272-.033.106-.064.211-.095.319-.026.089-.051.18-.076.271-.031.108-.06.215-.09.325-.027.103-.054.209-.081.312l-.077.297c-.025.102-.05.205-.074.308-.115.477-.225.965-.328 1.462l-.025.123-.068.349c-.022.109-.044.217-.063.326l-.062.337-.056.32c-.023.13-.045.263-.066.395l-.046.275c-.022.139-.044.279-.066.42l-.04.269c-.019.132-.039.266-.058.399l-.04.295c-.02.142-.037.284-.056.427l-.033.26-.052.433-.033.292-.043.399-.034.323-.042.425-.022.243-.043.488-.019.235-.037.486-.016.219-.036.532-.008.143c-.011.191-.024.383-.033.576l-.007.136c-.12 2.339-.135 4.715-.048 7.042l.004.089c.008.218.018.436.028.653l.001.046c.011.221.022.441.035.66l.002.057c.04.696.088 1.386.145 2.066l.001.014c.33 3.912.953 7.533 1.837 10.389h-.001c.199.643.41 1.25.635 1.81l33.232-4.749c-.354-2.728-1.063-5.502-2.067-8.242-.044-.12-.09-.239-.136-.358l-.123-.324c-.046-.123-.095-.245-.143-.368-.044-.109-.088-.22-.133-.33l-.143-.35-.141-.336c-.05-.118-.1-.237-.151-.356l-.144-.327c-.067-.151-.134-.302-.203-.452-.081-.178-.162-.355-.245-.532l-.144-.3c-.059-.125-.119-.251-.182-.376-.054-.114-.11-.227-.167-.341l-.159-.317-.186-.362-.165-.315c-.061-.117-.123-.234-.186-.351-.068-.129-.138-.256-.208-.384l-.144-.262c-.117-.21-.233-.418-.352-.625l-.179-.308-.21-.357-.182-.303c-.07-.117-.142-.235-.215-.352l-.189-.308-.223-.354-.181-.285c-.091-.141-.182-.28-.274-.419l-.247-.373c-.102-.152-.204-.304-.308-.456l-.173-.249c-.088-.129-.178-.259-.268-.387l-.189-.266-.262-.362-.193-.263c-.093-.127-.188-.252-.282-.379l-.178-.237c-.152-.2-.305-.398-.458-.595l-.003-.005-.019-.022c-.146-.186-.292-.371-.44-.554-.072-.089-.144-.178-.216-.265-.092-.113-.184-.225-.276-.336l-.21-.251-.294-.347-.206-.24c-.101-.117-.203-.232-.304-.347l-.202-.23c-.164-.184-.33-.367-.496-.548l-.101-.109c-.136-.146-.273-.292-.41-.438l-.208-.218c-.111-.115-.221-.229-.331-.342l-.201-.205c-.11-.11-.219-.22-.33-.33l-.223-.221c-.119-.117-.237-.231-.355-.345l-.178-.17c-.179-.172-.361-.341-.543-.511l-.101-.091c-.151-.139-.303-.278-.457-.414l-.184-.162c-.126-.111-.251-.222-.377-.33l-.21-.181c-.125-.107-.25-.212-.376-.317l-.197-.164c-.14-.116-.282-.231-.425-.346l-.15-.121c-.189-.152-.379-.302-.571-.448l-.153-.117c-.145-.111-.292-.222-.439-.332l-.194-.142c-.133-.097-.265-.193-.398-.289l-.221-.157c-.125-.088-.25-.175-.375-.26l-.225-.156c-.154-.104-.308-.206-.461-.308l-.133-.087c-.199-.131-.399-.259-.599-.384l-.16-.099c-.149-.091-.297-.182-.447-.272l-.221-.132c-.132-.077-.264-.154-.396-.23l-.227-.128c-.138-.078-.275-.154-.414-.229l-.201-.11c-.176-.095-.353-.186-.528-.277l-.09-.047c-.208-.106-.415-.209-.624-.31l-.158-.075c-.156-.074-.311-.147-.467-.218l-.213-.096c-.137-.062-.276-.123-.414-.182l-.234-.099c-.144-.061-.288-.119-.431-.177l-.192-.078c-.194-.076-.387-.149-.581-.22l-.053-.021c-.21-.077-.418-.15-.628-.221l-.204-.067c-.144-.048-.288-.094-.431-.139-.08-.025-.159-.049-.238-.073-.132-.039-.263-.077-.394-.115l-.259-.072c-.14-.039-.28-.075-.422-.111l-.201-.051c-.213-.053-.425-.102-.638-.147-.094.116-.187.237-.278.361z" fill="#fff" fill-rule="evenodd"/></mask><mask id="I" fill="#fff"><path d="m39.07.141-.208.002c-.145.002-.291.003-.437.007l-.267.01c-.137.004-.274.011-.41.018-.083.004-.165.008-.248.013-.15.01-.302.021-.454.033l-.213.017c-.22.019-.441.04-.662.065l-.057.008c-.205.022-.41.048-.616.076l-.207.03c-.152.021-.305.045-.459.069l-.252.041c-.146.025-.296.051-.444.079l-.23.042c-.168.033-.337.066-.505.101l-.171.035c-.227.05-.454.1-.681.153l-.098.024c-.193.046-.386.094-.58.144l-.221.059c-.152.04-.304.082-.456.124l-.25.072c-.147.042-.294.085-.441.129l-.245.074c-.167.053-.332.106-.499.16l-.178.057c-.225.075-.449.152-.674.231l-.15.053c-.173.062-.347.125-.521.19l-.256.097c-.141.054-.283.108-.425.164l-.253.101c-.151.061-.303.123-.454.185l-.223.093c-.168.071-.337.144-.506.218l-.176.076c-.22.098-.44.198-.66.3l-.176.083c-.165.076-.33.155-.495.234l-.229.113c-.148.072-.295.146-.441.22l-.247.125c-.149.076-.297.153-.445.23l-.216.114c-.181.097-.362.195-.543.295l-.12.064c-.217.121-.434.243-.649.367l-.212.123c-.143.083-.285.166-.426.25l-.271.162c-.132.08-.265.161-.399.243l-.243.15c-.135.084-.269.17-.403.255l-.254.162c-.168.108-.334.218-.502.329l-.125.082c-.203.135-.407.274-.61.414l-.252.175c-.126.088-.252.176-.378.266l-.256.183-.369.267-.263.194c-.116.086-.232.174-.348.261-.091.068-.182.137-.272.206-.188.143-.375.288-.56.434l-.024.018-.003.004c-.196.153-.392.31-.586.468l-.23.189c-.122.099-.244.199-.364.3l-.25.211-.34.289-.247.214c-.118.102-.235.207-.353.31l-.227.202c-.137.122-.272.246-.407.371l-.329.302c-.121.113-.244.228-.364.342l-.245.235-.301.291-.256.253c-.099.097-.196.194-.294.291l-.247.252-.289.297-.247.257c-.164.172-.328.346-.49.522l-.203.221c-.098.108-.196.215-.294.323-.088.099-.175.198-.264.297l-.235.267-.264.307-.231.271c-.082.097-.164.194-.244.291-.09.107-.178.214-.266.322l-.21.258c-.123.152-.244.305-.365.458-.103.129-.203.261-.304.391l-.217.284c-.078.102-.156.206-.233.309l-.216.293-.223.307c-.07.096-.138.192-.207.29-.076.107-.152.214-.227.321l-.195.285c-.072.105-.145.212-.217.317-1.627 2.423-2.975 4.949-3.966 7.516l31.155 12.504c.351-.491.7-1.029 1.045-1.607 1.537-2.566 3.001-5.935 4.251-9.657l.004-.012c.217-.648.428-1.307.631-1.973l.018-.054c.063-.211.126-.422.189-.634l.013-.044c.061-.209.122-.418.181-.626l.025-.087c.636-2.24 1.188-4.552 1.626-6.852l.026-.135c.036-.189.071-.378.105-.567l.025-.139.092-.527.037-.217.079-.48.037-.232.075-.484.035-.242.061-.424.044-.321.052-.398.038-.29.051-.433.031-.261c.016-.143.032-.286.047-.43l.03-.294c.014-.134.027-.269.039-.402l.024-.27c.013-.142.026-.284.036-.425l.022-.277c.011-.133.021-.268.03-.401l.019-.323.021-.342c.007-.111.012-.221.017-.331l.016-.356.004-.125c.019-.507.03-1.007.031-1.498 0-.105.001-.213 0-.317l-.004-.306c-.001-.108-.002-.217-.005-.323-.002-.113-.006-.225-.01-.338-.003-.094-.006-.188-.009-.28-.006-.113-.01-.223-.016-.333-.005-.095-.008-.19-.015-.284-.007-.104-.013-.208-.021-.31-.006-.098-.013-.196-.021-.294l-.026-.298c-.009-.095-.016-.19-.026-.284-.011-.103-.022-.204-.034-.305l-.031-.269-.038-.29c-.013-.094-.025-.185-.04-.277l-.042-.272c-.015-.094-.03-.186-.047-.278l-.046-.257c-.018-.095-.037-.189-.056-.282-.016-.082-.034-.163-.052-.243-.018-.091-.039-.18-.061-.269-.019-.079-.037-.159-.056-.236-.023-.09-.046-.178-.07-.266-.021-.077-.041-.154-.064-.231-.024-.086-.05-.171-.075-.256-.022-.071-.043-.143-.066-.212-.03-.089-.059-.175-.09-.262-.022-.066-.045-.134-.069-.199-.033-.089-.067-.173-.101-.26-.023-.058-.045-.118-.068-.174-.059-.143-.119-.282-.184-.418-.189-.006-.38-.008-.572-.008-.027 0-.055 0-.082 0z" fill="#fff" fill-rule="evenodd"/></mask><mask id="J" fill="#fff"><path d="m1.426 20.221 15.769-2.253c-.983-7.586-7.755-15.908-14.707-17.413-2.935 3.662-2.955 14.948-1.062 19.666z" fill="#fff" fill-rule="evenodd"/></mask><mask id="K" fill="#fff"><path d="m5.852 12.761-.082.121c-2.048 3.045-3.51 6.538-4.199 10.332-.173 1.071-.321 2.237-.481 3.556-.403 3.355-.174 6.647.59 9.757 9.229-21.541 34.111-20.711 47.3-3.989 1.584 2.008 4.525 2.364 6.541.79 16.784-13.113 41.152-8.011 45.002 15.105 1.48-2.839 2.483-5.983 2.888-9.337.158-1.32.291-2.488.378-3.569.231-3.852-.36-7.594-1.628-11.04l-.045-.124c-3.485-9.328-11.934-16.472-22.452-17.738l-5.796-.699-36.203-4.361-5.795-.698c-1.102-.132-2.197-.197-3.281-.197-9.263 0-17.724 4.723-22.737 12.091" fill="#fff" fill-rule="evenodd"/></mask><mask id="L" fill="#fff"><use fill="#fff" fill-rule="evenodd" xlink:href="#m"/></mask></defs><g fill="none" fill-rule="evenodd"><g><use fill="url(#a)" opacity=".1" xlink:href="#b"/><g fill="#fff"><circle cx="183.5" cy="513.5" filter="url(#c)" mask="url(#p)" opacity=".3" r="82.5"/><circle cx="806.5" cy="617.5" filter="url(#d)" mask="url(#p)" opacity=".3" r="82.5"/><circle cx="606.5" cy="267.5" filter="url(#e)" mask="url(#p)" opacity=".3" r="82.5"/></g></g><g opacity=".7" transform="translate(184 268)"><g><use fill="#000" filter="url(#g)" xlink:href="#f"/><use fill="#fff" fill-rule="evenodd" xlink:href="#f"/></g><g><use fill="#000" filter="url(#i)" xlink:href="#h"/><use fill="#fff" fill-rule="evenodd" xlink:href="#h"/></g><g><use fill="#000" filter="url(#k)" xlink:href="#j"/><use fill="#fff" fill-rule="evenodd" xlink:href="#j"/></g></g><g transform="translate(702 351)"><ellipse cx="75.5" cy="144" fill="#00043d" filter="url(#l)" opacity=".5" rx="67.5" ry="14"/><path d="m88.0281 93.6443c-1.707 6.236-31.015 40.626-57.708 21.293-22.734-16.466-10.118-44.685-29.48-46.861 14.834-10.809 32.534-4.043 41.787 9.714 8.338 12.4 7.88 23.171 24.999 21.783 8.765-.712 12.196-7.478 13.101-8.699 1.835-2.473 8.584-5.004 7.301 2.77" fill="#e95506"/><path d="m76.3309 36.6879c-13.351 15.608-32.801 21.886-48.843 6.967-15.644-14.55-8.837-33.411-21.928-36.935 16.129 3.838 8.174 17.65 25.728 33.016 15.207 13.312 32.011 10.24 45.043-3.048" fill="#ec6d20" mask="url(#q)" transform="translate(0 61.807)"/><path d="m1.5877 6.1376c14.209-10.181 31.094-3.685 39.94 9.47 8.01 11.908 7.57 22.254 24.012 20.92 2.313-.187 4.237-.813 5.832-1.648-1.93 1.523-4.571 2.848-8.126 3.136-16.442 1.334-16.003-9.011-24.012-20.92-8.375-12.453-23.954-18.939-37.646-10.958" fill="#e0370d" mask="url(#r)" transform="translate(0 61.807)"/><path d="m1.8719-10.3971c11.651-8.306 27.837-5.593 36.143 6.058 8.306 11.652 5.593 27.837-6.058 36.143-11.652 8.306-27.837 5.593-36.143-6.058s-5.593-27.837 6.058-36.143" fill="#fbe1b9" mask="url(#s)" transform="translate(0 61.807)"/><path d="m42.1541 16.5619c-.274 1.184-.632 2.35-1.07 3.487-.568-.969-1.178-1.956-1.85-2.953-8.375-12.454-23.954-18.939-37.646-10.958 14.209-10.181 31.093-3.685 39.94 9.469.215.32.423.638.626.955" fill="#f9cd9d" mask="url(#t)" transform="translate(0 61.807)"/><path d="m21.4139 36.2279c-7.869-12.902-4.911-26.562-15.854-29.508 14.384 3.422 9.615 14.778 20.864 28.093-1.635.646-3.314 1.117-5.01 1.415" fill="#fdeac7" mask="url(#u)" transform="translate(0 61.807)"/><path d="m52.8484 43.5511c-7.383 1.634-12.813 12.475-9.311 23.867l8.015 9.594 3.384-17.911c-2.105-2.644-.758-12.234-2.088-15.55" fill="#cf200d" mask="url(#v)" transform="translate(0 61.807)"/><path d="m56.6561 33.4798c-6.085 2.154-10.226 12.8-6.918 23.216l7 8.346 2.193-17.121c-1.841-2.308-1.053-11.436-2.275-14.441" fill="#cf200d" mask="url(#w)" transform="translate(0 61.807)"/><path d="m121.1297 96.9382-10.177 13.138c7.834-2.362 22.372.253 26.739 7.635 1.422-8.316-10.643-19.38-16.562-20.773" fill="#e95506"/><path d="m12.242 13.4046c6.349.751 12.959 3.525 15.607 8.27.124-.773.139-1.57.059-2.379-3.427-3.916-9.795-6.109-15.666-6.534z" fill="#d8340c" mask="url(#x)" transform="translate(110 96.807)"/><path d="m11.4803 1.5961c2.643 2.764 3.98 8.922 2.665 12.823l-6.616-.678 1.967-8.536z" fill="#d8340c" mask="url(#y)" transform="translate(110 96.807)"/><path d="m14.2908.6576c3.631 3.578 14.55 15.813 13.992 16.246-.878.682-19.934-2.248-27.847-8.612z" fill="#e95506" mask="url(#z)" transform="translate(92 126.807)"/><path d="m16.0047 2.4154 6.657 5.794c-5.366-2.427-15.662 1.545-17.33 5.232l-3.683-2.283z" fill="#cf200d" mask="url(#A)" transform="translate(92 126.807)"/><path d="m83.9275 138.1394c18.754 2.259 35.842-10.785 38.041-29.038 2.198-18.253-11.303-34.983-30.057-37.242s-35.842 10.786-38.041 29.039 11.303 34.982 30.057 37.241" fill="#e95506"/><path d="m3.0809 18.9164c7.734-2.725 19.03 1.104 24.347 7.009.799 1.092 1.436 2.222 1.872 3.355l.367-6.091-7.967-9.633-15.175-2.087z" fill="#d8340c" mask="url(#B)" transform="translate(53 70.807)"/><path d="m30.9275 67.3324c15.855 1.91 30.52-7.119 36.003-20.987-6.033 12.763-20.057 20.876-35.164 19.055-18.753-2.258-32.255-18.988-30.057-37.241.34-2.82 1.036-5.516 2.038-8.051-1.456 3.081-2.449 6.433-2.877 9.983-2.199 18.253 11.303 34.982 30.057 37.241" fill="#e0370d" mask="url(#C)" transform="translate(53 70.807)"/><path d="m84.3748 134.4284c10.669 1.286 20.545-7.431 21.987-19.402 1.443-11.972-6.082-22.784-16.751-24.069-10.668-1.285-20.545 7.431-21.987 19.402-1.442 11.972 6.083 22.784 16.751 24.069" fill="#fef4df"/><path d="m23.0379 12.7621c-1.514-1.119-3.056-1.99-4.568-3.109l-4.062-10.24-4.675 2.91c-2.89-.074-14.209-.013-6.089 6.853 2.977.924 8.626-.326 10.426-1.13.47.828.579 1.379.779 2.188.893 3.62 7.303 3.22 8.189 2.528" fill="#fbe1b9" mask="url(#D)" transform="translate(67 90.807)"/><path d="m17.0936 43.5882c2.968.357 5.875-.061 8.557-1.106-2.411.791-4.984 1.08-7.604.764-10.668-1.286-18.192-12.097-16.751-24.069 1.041-8.641 6.476-15.584 13.431-18.296-7.407 2.429-13.296 9.605-14.384 18.638-1.442 11.971 6.083 22.784 16.751 24.069" fill="#fefefe" mask="url(#E)" transform="translate(67 90.807)"/><path d="m78.6365 29.6125 36.203 4.361c7.906-11.774 22.428-21.107 34.857-20.777 3.941 8.461-.831 29.52-6.621 39.186 2.205 5.883 2.031 8.744 1.306 14.761-1.773 14.722-15.063 25.398-29.733 24.061-8.263-.753-18.184 2.437-20.829 10.482-3.908-.472-6.937-.836-10.844-1.307-.659-8.442-9.537-13.9-17.745-15.127-14.567-2.193-24.942-15.712-23.168-30.435.724-6.017 1.235-8.837 4.773-14.028-3.328-10.764-2.963-32.354 2.875-39.637 12.152 2.631 24.041 15.145 28.926 28.46" fill="#fbe1b9"/><path d="m7.3445 54.2743c1.872 12.87 8.661 25.044 21.755 28.179 8.156 1.952 13.898 10.896 13.53 17.198l-2.2 5.852-42.132-19.275.101-20.338z" fill="#f9cd9d" mask="url(#F)" transform="translate(41 .807)"/><path d="m24.0447 92.9242 5.532-.971 3.714-1.177 10.235-6.378 2.215-2.1c2.67 7.128-3.075 16.694-9.174 19.79z" fill="#f9cd9d" mask="url(#G)" transform="translate(41 .807)"/><path d="m80.7015 37.8505c-.353-2.729-1.062-5.502-2.067-8.242-.044-.12-.09-.24-.136-.359l-.122-.324c-.047-.123-.095-.245-.143-.367-.044-.11-.088-.22-.133-.33l-.144-.351-.14-.335c-.05-.119-.101-.238-.152-.356l-.144-.327c-.067-.151-.134-.303-.202-.453-.081-.177-.162-.355-.245-.531l-.144-.301c-.06-.125-.12-.251-.182-.376-.054-.113-.111-.227-.168-.34l-.159-.317-.185-.362-.165-.316c-.062-.117-.123-.234-.186-.351-.068-.128-.139-.255-.209-.383l-.144-.263c-.116-.209-.233-.417-.352-.624l-.179-.308-.21-.357-.181-.303c-.071-.118-.143-.235-.215-.353l-.19-.307-.222-.354-.182-.286c-.091-.14-.182-.279-.273-.419l-.247-.372c-.102-.153-.205-.305-.308-.457l-.173-.249c-.089-.129-.179-.258-.268-.386l-.19-.266-.262-.362-.192-.264c-.094-.126-.189-.252-.282-.378l-.179-.238c-.151-.199-.304-.398-.458-.595l-.003-.004-.018-.022c-.146-.186-.292-.371-.441-.555-.071-.088-.143-.177-.216-.265-.092-.113-.183-.224-.276-.336l-.21-.251-.294-.346-.205-.241c-.102-.116-.203-.231-.305-.347l-.202-.23c-.164-.183-.329-.366-.496-.547l-.101-.109c-.135-.147-.272-.293-.41-.438l-.208-.218c-.11-.115-.22-.23-.331-.343l-.201-.204c-.109-.111-.219-.221-.329-.331l-.224-.221c-.118-.116-.236-.231-.355-.345l-.177-.17c-.18-.171-.361-.341-.544-.51l-.1-.092c-.152-.139-.304-.277-.458-.414l-.183-.162c-.126-.111-.251-.221-.377-.329l-.21-.181c-.125-.107-.25-.213-.376-.318l-.197-.163c-.141-.117-.282-.232-.425-.347l-.15-.121c-.19-.152-.379-.301-.571-.448l-.153-.116c-.146-.112-.293-.223-.44-.332l-.194-.143c-.132-.097-.265-.193-.397-.288l-.222-.158c-.124-.088-.249-.174-.374-.26l-.226-.156c-.153-.104-.307-.206-.461-.308l-.132-.087c-.2-.13-.4-.258-.6-.384l-.16-.098c-.149-.092-.297-.183-.446-.273l-.222-.131c-.131-.077-.264-.154-.396-.23l-.226-.129c-.138-.077-.276-.153-.414-.229l-.201-.11c-.176-.094-.353-.186-.529-.277l-.09-.047c-.208-.106-.415-.208-.624-.309l-.158-.076c-.155-.074-.311-.147-.467-.218l-.212-.096c-.138-.062-.277-.123-.415-.182l-.234-.099c-.143-.06-.287-.119-.431-.177l-.192-.077c-.193-.076-.387-.15-.58-.221l-.054-.02c-.209-.077-.418-.15-.628-.222l-.204-.066c-.143-.048-.288-.095-.431-.14-.08-.025-.159-.048-.238-.072-.132-.04-.262-.078-.394-.115l-.258-.072c-.141-.039-.281-.075-.422-.111l-.202-.051c-.212-.054-.425-.103-.638-.148-.094.116-.186.237-.277.361-.036.05-.071.103-.109.154-.052.076-.106.151-.159.229-.038.057-.076.117-.114.176-.05.078-.101.154-.149.234-.038.062-.076.126-.114.19-.046.076-.09.153-.135.231-.039.069-.078.139-.116.209-.044.08-.089.159-.131.241-.038.071-.075.144-.111.216-.042.082-.083.164-.124.247-.036.074-.071.149-.107.223-.041.087-.081.174-.121.262l-.107.239c-.037.085-.074.171-.111.258l-.106.254c-.035.086-.069.173-.104.26l-.106.273-.094.254c-.035.095-.071.191-.105.288-.031.09-.062.18-.093.27l-.096.284c-.031.092-.06.186-.09.279-.031.099-.064.197-.094.297-.028.09-.055.181-.082.272-.032.106-.063.212-.095.32-.025.089-.05.18-.076.271-.03.107-.06.215-.09.324-.027.104-.053.209-.081.313l-.076.297c-.025.101-.051.205-.075.307-.115.478-.225.966-.327 1.463l-.026.123-.068.349c-.021.108-.043.216-.062.325l-.062.338-.057.319c-.022.131-.045.263-.066.395l-.046.276c-.022.139-.044.279-.065.42l-.04.268c-.02.133-.039.267-.058.4l-.041.294c-.02.142-.037.285-.056.428l-.033.26-.052.433-.033.291-.043.399-.033.323-.042.426-.022.243-.043.488-.02.234-.037.487-.016.218-.035.533-.009.142c-.011.192-.023.384-.033.576l-.007.137c-.12 2.338-.134 4.714-.048 7.041l.004.09c.008.218.018.435.028.652l.002.046c.01.221.021.441.034.66l.003.058c.04.695.088 1.385.144 2.066l.001.013c.33 3.913.953 7.533 1.837 10.39h-.001c.199.642.41 1.249.635 1.809z" fill="#e95506"/><path d="m-5.6262.1932 10.603 1.189c-4.425 11.404-3.25 30.328 2.139 41.331l-5.98 2.879-6.406-20.635z" fill="#d8340c" mask="url(#H)" transform="translate(44 .807)"/><path d="m110.905 41.2451c.991-2.567 2.339-5.093 3.966-7.516.071-.106.144-.211.217-.317l.195-.285c.075-.107.151-.215.228-.322.068-.096.136-.193.206-.29l.223-.306.216-.292c.077-.104.154-.207.233-.31l.217-.284c.101-.131.201-.262.304-.391.121-.154.242-.306.364-.459l.211-.257c.088-.108.176-.215.266-.322.08-.098.162-.194.244-.291l.23-.27.265-.308.235-.267c.088-.099.176-.198.264-.297.098-.108.196-.215.294-.323l.203-.221c.162-.176.325-.35.49-.522l.246-.257.29-.297.248-.252c.097-.097.194-.194.293-.292l.256-.252.301-.291.244-.235c.121-.115.243-.229.366-.342l.328-.303c.134-.124.27-.248.407-.37l.227-.202c.118-.104.235-.208.353-.311l.247-.213.34-.29.25-.21c.12-.101.242-.201.364-.301l.23-.188c.194-.158.389-.315.586-.469l.004-.004.023-.018c.185-.145.372-.29.56-.433.089-.069.181-.138.272-.206.116-.088.231-.175.348-.261l.263-.194.368-.267.257-.184c.126-.089.252-.177.378-.265l.252-.175c.203-.14.406-.278.611-.415l.125-.081c.167-.111.334-.221.501-.329l.254-.162c.134-.086.269-.171.404-.255l.243-.15c.133-.082.266-.163.398-.243l.271-.162c.141-.085.283-.168.426-.25l.212-.123c.215-.124.432-.246.649-.367l.12-.065c.181-.099.361-.198.543-.293l.217-.115c.147-.078.296-.154.444-.23l.246-.126c.148-.074.294-.147.442-.219l.229-.113c.165-.079.33-.158.495-.235l.176-.083c.22-.101.439-.201.66-.299l.176-.076c.169-.074.338-.147.507-.218l.221-.093c.152-.063.304-.125.456-.186l.252-.1c.142-.056.284-.11.425-.164l.256-.097c.174-.065.348-.128.522-.19l.149-.054c.225-.079.449-.155.674-.23l.179-.057c.166-.054.332-.108.498-.159l.246-.075c.146-.044.293-.087.439-.129l.251-.072c.152-.043.304-.084.456-.124l.222-.059c.193-.05.387-.098.579-.144l.099-.024c.226-.054.453-.104.679-.153l.172-.035c.168-.035.337-.069.505-.101l.23-.042c.148-.028.297-.054.445-.079l.252-.041c.153-.024.306-.047.459-.069l.207-.03c.205-.028.41-.054.615-.077l.057-.007c.221-.025.442-.046.662-.065l.214-.017c.151-.012.302-.023.453-.033.083-.005.165-.009.248-.014.137-.007.273-.013.41-.018l.268-.009c.145-.004.291-.006.436-.007l.208-.002c.219-.001.438.002.654.008.065.135.125.275.184.417.023.057.046.117.068.175.035.086.069.171.101.26.024.065.047.133.069.199.031.086.061.173.09.262.023.069.044.141.066.212.025.085.051.169.076.256.022.076.042.154.063.231.024.088.047.176.07.265.019.078.038.158.056.237.022.089.042.178.062.268.017.08.035.162.051.244.019.093.038.187.056.282l.046.257c.017.092.032.184.047.277l.042.272c.015.092.027.184.04.278l.038.29.031.268c.012.102.023.203.034.306.009.094.017.189.026.284l.026.299c.008.097.015.194.021.292.008.104.014.207.021.311.006.094.01.189.015.284.006.11.011.22.016.332.003.093.006.187.009.281.004.113.008.224.01.337.003.107.004.216.005.324l.004.306c.001.105 0 .211 0 .317-.001.491-.012.99-.03 1.498l-.004.125-.017.356c-.005.11-.01.22-.017.331l-.02.342-.021.323c-.008.134-.018.267-.029.401l-.021.277c-.011.141-.024.283-.036.424l-.025.27c-.012.134-.025.268-.039.403l-.03.295c-.015.142-.031.285-.047.429l-.03.261-.052.433-.037.29-.053.398-.044.321-.061.424-.036.241-.074.485-.037.232-.079.481-.037.217-.092.525-.025.141c-.035.189-.07.377-.105.566l-.026.135c-.438 2.3-.989 4.612-1.626 6.852l-.025.086c-.059.209-.12.418-.181.627l-.013.044c-.062.212-.126.423-.189.633l-.018.055c-.203.667-.414 1.325-.631 1.973l-.004.012c-1.25 3.723-2.715 7.091-4.251 9.657-.345.577-.694 1.116-1.046 1.607z" fill="#e95506"/><path d="m38.2332.1566c-14.335 2.535-26.041 12.446-31.498 23.509l-14.9-1.885 11.097-20.663 21.574-8.01z" fill="#d8340c" mask="url(#I)" transform="translate(110 12.807)"/><g transform="translate(54 16.807)"><path d="m66.8426 23.9481c2.756-7.136 11.31-13.611 18.42-13.423 1.982 4.255-.68 15.224-3.637 19.357z" fill="#9e3028"/><path d="m66.8426 23.9486c2.48-6.422 9.655-12.307 16.248-13.284-5.655 1.996-11.16 7.07-13.269 12.532l12.75 5.118c-.308.591-.625 1.119-.946 1.568z" fill="#86262a"/><path d="m17.1951 17.9676c-.983-7.586-7.755-15.908-14.707-17.414-2.936 3.663-2.955 14.95-1.063 19.668z" fill="#9e3028"/></g><path d="m17.8201 18.8089c-.103-.791-.533-3.182-.755-3.979l-14.05 2.008c-1.35-3.765-1.797-11.968-.282-16.864-4.381 3.638-4.995 14.315-2.19 20.94z" fill="#86262a" mask="url(#J)" transform="translate(54 16.807)"/><path d="m120.6639 34.4314-5.796-.698-36.202-4.361-5.796-.698c-10.516-1.267-20.418 3.663-26.018 11.893l-.082.121c-2.048 3.046-3.509 6.538-4.199 10.333-.173 1.071-.321 2.236-.48 3.556-.404 3.354-.175 6.646.589 9.757 9.229-21.541 34.111-20.711 47.3-3.989 1.584 2.008 4.525 2.363 6.54.789 16.785-13.112 41.153-8.011 45.003 15.106 1.48-2.84 2.484-5.983 2.888-9.338.158-1.32.291-2.487.378-3.568.23-3.852-.359-7.594-1.628-11.041l-.045-.123c-3.484-9.328-11.933-16.472-22.452-17.739" fill="#e95506"/><path d="m7.7215 29.5106c-.989-5.503.035-11.558 2.851-16.501 6.999-12.289 22.257-11.699 34.529-10.549.421-5.258-35.544-6.857-36.489-12.907-.607-3.878.38-8.215.855-12.158.757-6.282.226-4.2-1.43 1.045-2.942 9.318-3.888 18.078-5.07 27.651l-3.545 28.704c-.603 4.891-.479 8.681 4.081 5.1 3.104-2.436 3.822-6.694 4.218-10.385" fill="#e0370d" mask="url(#K)" transform="translate(41 27.807)"/><g transform="translate(44 36.807)"><path d="m5.8826 34.4032 10.05 1.21c2.492.3 4.286 2.586 3.985 5.079-.3 2.492-2.585 4.286-5.077 3.986l-10.05-1.211c-2.492-.3-4.286-2.585-3.986-5.078.301-2.492 2.586-4.287 5.078-3.986" fill="#e50113"/><path d="m78.8426 43.1918 10.05 1.21c2.492.301 4.286 2.586 3.985 5.079-.3 2.492-2.586 4.286-5.077 3.986l-10.05-1.211c-2.493-.299-4.286-2.585-3.986-5.078.301-2.493 2.586-4.287 5.078-3.986" fill="#e50113"/><path d="m20.5428 3.5629c4.585-3.32 13.335-.839 15.435 3.961-.154-7.338-11.493-10.463-15.435-3.961" fill="#fefefe"/><path d="m84.366 11.2513c-3.666-4.314-12.754-3.982-15.935.182 1.893-7.092 13.649-7.435 15.935-.182" fill="#fefefe"/><path d="m23.5584 39.8734c6.76.814 12.924-3.92 13.721-10.539s-4.066-12.681-10.825-13.496c-6.761-.814-12.924 3.92-13.722 10.539-.797 6.619 4.065 12.682 10.826 13.496" fill="#f6b981"/><path d="m23.4861 40.4735c6.618.797 12.667-3.951 13.465-10.57s-3.951-12.668-10.569-13.465c-6.621-.797-12.668 3.951-13.466 10.57-.797 6.619 3.951 12.668 10.57 13.465" fill="#fefefe"/><path d="m24.6189 31.0658c1.437.173 2.751-.858 2.924-2.295s-.858-2.751-2.295-2.924c-1.438-.173-2.751.858-2.924 2.295-.173 1.438.858 2.751 2.295 2.924" fill="#530000"/><path d="m70.4285 45.5199c6.76.814 12.924-3.92 13.722-10.54.797-6.618-4.067-12.681-10.826-13.495-6.761-.815-12.924 3.92-13.721 10.539-.798 6.619 4.065 12.682 10.825 13.496" fill="#f6b981"/><path d="m70.3562 46.1195c6.618.798 12.668-3.951 13.465-10.57.798-6.619-3.951-12.668-10.57-13.465-6.619-.798-12.667 3.951-13.465 10.57-.797 6.619 3.951 12.667 10.57 13.465" fill="#fefefe"/><path d="m44.0799 66.8529c3.005.361 5.603-.575 5.784-2.084.183-1.509-2.12-3.037-5.124-3.398-3.004-.363-5.602.575-5.784 2.084s2.12 3.036 5.124 3.398" fill="#231916"/><path d="m48.6092 64.4056c-.06.494-.739.817-1.518.724-.78-.094-1.363-.57-1.303-1.064.059-.493.739-.817 1.518-.723.779.093 1.363.57 1.303 1.063" fill="#595757"/><path d="m71.4891 36.7118c1.437.173 2.751-.858 2.925-2.295.173-1.437-.859-2.751-2.296-2.924-1.438-.173-2.751.858-2.924 2.295s.858 2.751 2.295 2.924" fill="#530000"/><path d="m6.5379 70.0668c-6.413 6.917-1.373 26.053 10.08 30.962 3.9 1.671 11.191-2.539 11.693-6.752 1.476-12.373-12.576-26.306-21.773-24.211z" fill="#e1450a"/><g fill="#fefefe"><path d="m13.6746 82.4281c3.341-1.929 7.967-.171 10.331 3.924 2.364 4.096 1.573 8.98-1.767 10.909s-7.966.171-10.331-3.924c-2.364-4.096-1.573-8.98 1.767-10.909"/><path d="m10.2986 77.0033c.815-.471 1.856-.191 2.327.623s.192 1.856-.623 2.327-1.857.192-2.327-.624c-.471-.814-.191-1.856.623-2.326"/><path d="m7.2908 81.6605c.815-.471 1.856-.191 2.327.623.471.815.192 1.856-.623 2.327s-1.857.192-2.327-.623c-.471-.815-.191-1.856.623-2.327"/><path d="m16.202 76.515c.815-.47 1.857-.191 2.327.624.471.814.192 1.856-.623 2.327-.815.47-1.857.192-2.327-.624-.471-.814-.191-1.856.623-2.327"/></g><path d="m18.1551 51.6761 5.609.298 3.883-.312 6.915-1.736 4.494-2.175 2.63-1.547.234 1.727-1.238 3.787-2.311 4.087-3.746 4.146-2.907 1.926-4.247 1.207z" fill="#e95506"/><path d="m42.1111 45.3285c.568.204.8 1.201.648 2.314-.359 2.653-1.781 5.57-3.294 7.76-2.99 4.331-8.101 8.197-13.159 7.75 5.163-.878 9.165-3.967 11.991-8.234 1.406-2.124 2.813-4.774 3.161-7.338.079-.577.103-.925.065-.939-.014-.004-.036.052-.161.147-6.331 4.808-16.049 7.009-24.239 4.685 8.133.692 16.66-.558 23.185-5.351.473-.35 1.175-1.013 1.803-.794" fill="#fefefe"/><path d="m104.9793 13.6854c-.589-.203-.902-.846-.7-1.435.203-.589.846-.903 1.435-.7.761.264 1.743.377 2.75.377v-.005c1.181 0 2.368-.154 3.285-.399.604-.162 1.224.197 1.386.801.129.485-.076.98-.474 1.24h.001c-1.939 1.267-2.987 2.303-3.371 3.145-.217.475-.152.871.109 1.197.401.5 1.162.936 2.128 1.307 3.097 1.19 7.93 1.565 10.732 1.434.623-.026 1.152.457 1.178 1.081.025.586-.4 1.087-.969 1.167-2.735.436-5.073 1.316-6.854 2.533-1.362.931-2.391 2.059-3.012 3.336-.608 1.25-.829 2.655-.589 4.168.227 1.429.862 2.968 1.964 4.58.353.516.22 1.22-.296 1.572-.389.266-.885.255-1.256.014-1.099-.666-2.499-1.156-3.949-1.46-1.603-.337-3.25-.444-4.62-.312-.622.059-1.173-.397-1.232-1.019-.058-.621.398-1.172 1.019-1.231 1.59-.153 3.477-.034 5.293.347.526.111 1.049.243 1.56.398-.348-.862-.584-1.709-.715-2.535-.317-1.997-.024-3.856.784-5.515.794-1.631 2.084-3.057 3.772-4.211.521-.356 1.08-.687 1.676-.99-1.887-.258-3.771-.664-5.292-1.248-1.327-.51-2.418-1.167-3.085-1.999-.806-1.007-1.025-2.186-.401-3.552.229-.504.588-1.033 1.092-1.586-1.192-.011-2.375-.162-3.349-.5" fill="#e50113"/></g></g><g transform="translate(224 353)"><use fill="#1e3c64" xlink:href="#m"/><g mask="url(#L)"><g transform="translate(0 -.657459)"><path d="m210.843646.65745856 35.270719 20.36353594-.114365 40.5331491-35.270718-20.3635359z" fill="url(#n)"/><path d="m140.521492.65165746 35.280663 20.37016574-.114365 136.8314918-35.280663-20.370166z" fill="url(#n)"/><path d="m175.80232 21.0211602 35.041989-20.36353589-.116022 50.53314919-35.040331 20.3635359z" fill="url(#o)"/><path d="m70.2089503.65165746 35.2707187 20.36353594-.114365 40.5331491-35.2707184-20.3635359z" fill="url(#n)"/><path d="m105.48 21.0155249 35.041989-20.36353595-.116022 40.53314915-35.040332 20.3635359z" fill="url(#o)"/><path d="m35.1556463 21.4494099-.1131601 40.1062255-35.04198896 20.3635359.11436464-40.5331492 35.04132482-20.36315 35.0519348-20.3710489-.1143646 90.2569061-35.0519337 20.3701657z" fill="url(#o)"/><g fill="#0c0202"><path d="m246.114696 21.0211602-.114365 40.5331492-35.041988 20.3635359.114364-40.5331492z"/><path d="m140.760994 41.3856906-.114364 40.5331492-35.280663-20.3701658.114364-40.5331491z"/><path d="m105.48 21.0155249-.114365 40.5331491-35.0535908 20.3701658.1160221-40.5331492z"/><path d="m211.073536 41.3848619-.114365 40.5331491-35.041989 20.363536.114365-40.5331492z"/></g><path d="m105.708232 61.7551934 35.051934-20.3701658-.114365 90.2569064-35.051934 20.370165z" fill="url(#o)"/><path d="m70.4274033 41.3856906 35.2806627 20.3701658-.114364 90.2569056-35.2806633-20.370165z" fill="url(#n)"/><path d="m0 81.9188398 35.2723757 20.3635362.1143646-40.5331495-35.27237566-20.3635359z" fill="#0c0202"/><path d="m176.03221 61.7487293-.114365 40.5331487-35.053591 20.370166.116022-40.533149z" fill="url(#n)"/><path d="m70.6669061 82.1197238-.1143647 40.5331492-35.2806629-20.370166.1143646-40.533149z" fill="#0c0202"/><path d="m35.6255801 102.483425 35.041989-20.3635355-.1160221 40.5314915-35.0403315 20.365194z" fill="url(#o)"/><path d="m141.209337 122.846464-.114365 40.533149-35.272375-20.363536.116022-40.533149z" fill="#0c0202"/><path d="m176.250663 102.482597-.114365 40.533149-35.041989 20.363536.114365-40.533149z" fill="#0c0202"/><path d="m70.8967956 122.847293-.1143647 40.533149-35.2723757-20.363536.1160221-40.533149z" fill="#0c0202"/><path d="m105.938122 102.483425-.114365 40.53315-35.041989 20.363535.1143646-40.533149z" fill="#0c0202"/><path d="m281.625414 82.118895 35.270719 20.363536-.114365 57.107735-35.270718-20.363536z" fill="url(#n)"/><path d="m211.485815 145.661285-.069682 34.297886-35.040332 20.365194.114365-57.107735 35.041325-20.36315 35.051934-20.370718-.114364 57.107735-35.051934 20.370166zm35.098273-43.178688 35.041989-20.3635362-.116022 57.1060772-35.040331 20.365193z" fill="url(#o)"/><path d="m351.937956 82.1180663 35.270718 20.3635357-.114365 57.107735-35.270718-20.363536zm35.271215 20.3637017 35.280663 20.370166-.114364 57.107735-35.280663-20.370166z" fill="url(#n)"/><path d="m316.89663 102.481768 35.041989-20.363536-.116022 50.533149-35.040332 20.363536z" fill="url(#o)"/><path d="m387.448674 143.215801 35.270718 20.363536-.114364 57.107735-35.270719-20.363536z" fill="url(#n)"/><path d="m317.309075 206.758191-.069683 34.297886-35.040331 20.365194.114364-57.107735 35.041325-20.36315 35.051935-20.370717-.114365 57.107734-35.051933 20.370166zm35.098273-43.178688 35.041989-20.363536-.116022 57.106077-35.040332 20.365194z" fill="url(#o)"/><path d="m211.761381 163.580331 35.270718 20.363536-.114364 50.53315-35.270718-20.363536zm35.271216 20.363868 35.280663 20.370166-.114365 50.531491-35.280663-20.368508z" fill="url(#n)"/><path d="m176.720055 183.944199 35.041989-20.363536-.116022 40.531492-35.040331 20.365193z" fill="url(#o)"/><path d="m282.313425 204.313536-.114364 40.533149-35.041989 20.363536.114364-40.533149z" fill="#0c0202"/><path d="m563.584475 204.311878 35.270718 20.363536-.114364 57.107735-35.270719-20.363536z" fill="url(#n)"/><path d="m493.271934 204.312707 35.270718 20.363536-.114365 145.125747-35.270718-20.363536z" fill="url(#n)"/><path d="m528.543149 224.675746 35.041989-20.363536-.116022 50.533149-35.040331 20.363536z" fill="url(#o)"/><path d="m422.948122 204.306243 35.28232 20.370166-.114365 125.98105-35.28232-20.370166z" fill="url(#n)"/><path d="m458.230608 224.676575 35.041989-20.363536-.116022 90.255248-35.040332 20.365194z" fill="url(#o)"/><path d="m387.897679 224.676189 35.049614-20.36978-.114365 90.256906-35.050276 20.370166.068678-54.200553-.069673 54.19989-35.040331 20.365193.114365-90.256906 35.041989-20.365193z" fill="url(#o)"/><path d="m528.77138 265.404256 35.040663-20.364422 35.043648-20.364088-.114365 40.533149-35.042982 20.36315-35.041324 20.3637-35.051937 20.371548.116022-40.533149 35.050276-20.370166z" fill="#0c0202"/><path d="m493.500166 245.040276-.114365 40.533149-35.270718-20.365193.116022-40.531492z" fill="#0c0202"/><path d="m458.230608 224.676575-.114365 40.533149-35.053591 20.370166.116022-40.53315z" fill="#0c0202"/><path d="m458.449227 265.409613 35.050276-20.370165-.114365 106.831491-35.050276 20.370166z" fill="url(#o)"/><path d="m423.178011 245.04674 35.270718 20.363536-.114364 90.256906-35.270719-20.363536z" fill="url(#n)"/><path d="m388.136685 265.410442-.114365 40.533149-35.280663-20.370166.114365-40.533149z" fill="#0c0202"/><path d="m423.407735 285.774309-.114365 40.53315-35.272376-20.365194.116023-40.531492z" fill="#0c0202"/><path d="m493.720276 285.773481 35.280663 20.370165-.114364 40.53315-35.280663-20.370166z" fill="url(#n)"/><path d="m388.364917 306.138011 35.043647-20.363536-.116023 40.531492-35.041989 20.365193z" fill="url(#o)"/><path d="m458.562928 346.670994 35.282321 20.370166.114364-40.533149-35.28232-20.370166z" fill="#0c0202"/><path d="m493.959779 326.507514-.114365 40.533149 35.041989-20.365193.114365-40.531492z" fill="#0c0202"/><path d="m388.249558 346.670994 35.272376 20.363536.114364-40.533149-35.272375-20.363536z" fill="#0c0202"/><path d="m423.635967 326.501547-.114365 40.533149 35.041989-20.363536.114365-40.533149z" fill="#0c0202"/></g></g></g></g></svg>