<svg height="19" viewBox="0 0 20 19" width="20" xmlns="http://www.w3.org/2000/svg"><g fill="#b8c6d8" fill-opacity=".6" fill-rule="evenodd" transform="translate(-2 -2)"><path d="m20 7c-2.9847683 4.6666667-6.3181017 7-10 7-.95248044 0-1.88163424-.1561512-2.78746139-.4684536l1.21076972-1.2120122c.51997598.1206602 1.04550332.1804658 1.57669167.1804658 2.8075148 0 5.4568898-1.6706628 7.9643143-5.1668769l.2346557-.3331231-.2346557-.3331231c-.5785149-.8066492-1.1645861-1.51612052-1.7584125-2.13031626l1.0593727-1.05965797c.9419564.97099033 1.8535316 2.1453561 2.7347255 3.52309733zm-10-7c.6841272 0 1.3562202.08055766 2.0162792.24167299l-1.2967093 1.2953625c-.238698-.02472299-.4785512-.03703549-.7195699-.03703549-2.89524963 0-5.62232131 1.77671072-8.19896999 5.5.49884612.72083883 1.0033304 1.368716 1.51358168 1.94486418l-1.06215488 1.06036382c-.77166736-.86218098-1.52248629-1.86392365-2.25245681-3.005228 2.98476833-4.66666667 6.31810167-7 10-7z" fill-rule="nonzero" transform="translate(2 5)"/><path d="m11 0h2v23h-2z" transform="matrix(.70710678 .70710678 -.70710678 .70710678 11.646447 -5.117009)"/></g></svg>