<svg fill="none" height="24" viewBox="0 0 24 24" width="24" xmlns="http://www.w3.org/2000/svg"><path clip-rule="evenodd" d="m11.9998 3c-4.97055 0-8.99998 4.02944-8.99998 9l.00655.3455c.04438 1.1697.31355 2.3005.78094 3.3408l1.85023-.7635c-.40929-.8895-.63754-1.8795-.63754-2.9228 0-3.86599 3.13401-7 7-7 3.866 0 7 3.13401 7 7 0 3.866-3.134 7-7 7-2.13961 0-4.05501-.9599-5.33902-2.4727l-1.42596 1.4077h-.00025l-3.06338 3.065h9.82841c4.9706 0 9-4.0294 9-9 0-4.97056-4.0294-9-9-9zm.0002 4c-1.6569 0-3 1.34315-3 3 0 1.1518.64908 2.152 1.6014 2.6547.2319.1224.3978.3464.398.6086l.0006.7367h2v-1c0-.7405-.4024-1.387-1.0005-1.7327l-.1001-.0618c-.6964-.3684-.9291-.7321-.8994-1.2055.0346-.5512.4477-1 1-1 .5128 0 .9355.38604.9933.88338l.0067.11662h2c0-1.65685-1.3431-3-3-3zm-1 10v-2h2v2z" fill="#1d1d1d" fill-rule="evenodd"/></svg>