<svg fill="none" height="14" viewBox="0 0 14 14" width="14" xmlns="http://www.w3.org/2000/svg"><g fill="#8c8c8c" fill-opacity=".6"><path d="m9.33335 5.43223c0-1.28866-1.04467-2.33333-2.33333-2.33333s-2.33333 1.04467-2.33333 2.33333c0 1.08724.74362 2.0008 1.75 2.25982v.65685c0 .32216.26116.58333.58333.58333s.58333-.26117.58333-.58333v-1.16667c0-.32217-.26116-.58333-.58333-.58333-.64433 0-1.16667-.52234-1.16667-1.16667s.52234-1.16667 1.16667-1.16667 1.16667.52234 1.16667 1.16667c0 .32217.26116.58333.58333.58333s.58333-.26116.58333-.58333z"/><path d="m6.27085 10.2447c0 .4027.32647.7292.72917.7292s.72917-.3265.72917-.7292c0-.40266-.32647-.72913-.72917-.72913s-.72917.32647-.72917.72913z"/><path clip-rule="evenodd" d="m11.5373 2.46273c-1.1606-1.16055-2.76554-1.879396-4.53728-1.879396s-3.37671.718846-4.53726 1.879396c-1.16055 1.16056-1.879407 2.76553-1.879407 4.53727s.718857 3.3767 1.879407 4.5373c1.16055 1.1605 2.76552 1.8794 4.53726 1.8794s3.37668-.7189 4.53728-1.8794c1.1605-1.1606 1.8794-2.76556 1.8794-4.5373s-.7189-3.37671-1.8794-4.53727zm-4.53728-.71273c1.44989 0 2.7616.58699 3.71228 1.53769.9507.95072 1.5377 2.26242 1.5377 3.71231 0 1.4499-.587 2.7616-1.5377 3.7123-.95069.9507-2.26239 1.5377-3.71228 1.5377s-2.76159-.587-3.7123-1.5377c-.95071-.95071-1.5377-2.26241-1.5377-3.7123s.58699-2.76159 1.5377-3.71231c.9507-.9507 2.26241-1.53769 3.7123-1.53769z" fill-rule="evenodd"/></g></svg>