<svg fill="none" height="14" viewBox="0 0 14 14" width="14" xmlns="http://www.w3.org/2000/svg" xmlns:xlink="http://www.w3.org/1999/xlink"><clipPath id="a"><path d="m0 0h14v14h-14z"/></clipPath><g clip-path="url(#a)" fill="#8c8c8c" fill-opacity=".6"><path d="m4.66671 5.43215c0-1.28866 1.04467-2.33334 2.33333-2.33334s2.33333 1.04468 2.33333 2.33334c0 1.08724-.74361 2.0008-1.75 2.25982v.65684c0 .32217-.26116.58334-.58333.58334-.32216 0-.58333-.26117-.58333-.58334v-1.16666c0-.32217.26117-.58334.58333-.58334.64433 0 1.16667-.52233 1.16667-1.16666s-.52234-1.16667-1.16667-1.16667-1.16667.52234-1.16667 1.16667c0 .32216-.26116.58333-.58333.58333-.32216 0-.58333-.26117-.58333-.58333z"/><path d="m7.72921 10.2447c0 .4027-.32646.7291-.72917.7291-.4027 0-.72917-.3264-.72917-.7291 0-.40275.32647-.72921.72917-.72921.40271 0 .72917.32646.72917.72921z"/><path clip-rule="evenodd" d="m2.46277 2.46265c1.16057-1.16055 2.76553-1.879398 4.53727-1.879398s3.37666.718848 4.53726 1.879398c1.1605 1.16056 1.8794 2.76553 1.8794 4.53727s-.7188 3.37668-1.8794 4.53728c-1.1606 1.1605-2.76552 1.8794-4.53726 1.8794s-3.37671-.7189-4.53727-1.8794c-1.16054-1.1606-1.879396-2.76554-1.879396-4.53728s.718856-3.37671 1.879396-4.53727zm4.53727-.71273c-1.44989 0-2.76159.58699-3.71231 1.53769-.95071.95072-1.53769 2.26242-1.53769 3.71231s.58699 2.76159 1.53769 3.71228c.95072.9507 2.26242 1.5377 3.71231 1.5377s2.76159-.587 3.71226-1.5377c.9507-.95069 1.5377-2.26239 1.5377-3.71228s-.587-2.76159-1.5377-3.71231c-.95066-.9507-2.26236-1.53769-3.71226-1.53769z" fill-rule="evenodd"/></g></svg>