<svg fill="none" height="16" viewBox="0 0 16 16" width="16" xmlns="http://www.w3.org/2000/svg" xmlns:xlink="http://www.w3.org/1999/xlink"><clipPath id="a"><path d="m0 0h16v16h-16z"/></clipPath><g clip-path="url(#a)" fill="#737e8d" fill-opacity=".6"><path d="m5.33342 6.20761c0-1.47276 1.1939-2.66667 2.66666-2.66667s2.66662 1.19391 2.66662 2.66667c0 1.24256-.8498 2.28663-1.99995 2.58266v.75068c0 .36818-.29848.66665-.66667.66665s-.66666-.29847-.66666-.66665v-1.33334c0-.36819.29847-.66667.66666-.66667.73638 0 1.33334-.59695 1.33334-1.33333s-.59696-1.33333-1.33334-1.33333-1.33333.59695-1.33333 1.33333c0 .36819-.29848.66667-.66667.66667s-.66666-.29848-.66666-.66667z"/><path d="m8.83342 11.7076c0 .4603-.37311.8334-.83334.8334s-.83333-.3731-.83333-.8334c0-.4602.3731-.8333.83333-.8333s.83334.3731.83334.8333z"/><path clip-rule="evenodd" d="m2.81463 2.81389c1.32636-1.32633 3.16061-2.147874 5.18545-2.147874 2.02482 0 3.85912.821544 5.18542 2.147884 1.3264 1.32635 2.1479 3.1606 2.1479 5.18545s-.8215 3.85905-2.1479 5.18545c-1.3263 1.3263-3.1606 2.1479-5.18542 2.1479-2.02485 0-3.85909-.8216-5.18545-2.1479-1.32633-1.3264-2.147882-3.1606-2.147882-5.18545s.821552-3.8591 2.147882-5.18546zm5.18545-.81454c-1.65702 0-3.15611.67084-4.24264 1.75736-1.08652 1.08654-1.75736 2.58562-1.75736 4.24264s.67084 3.15615 1.75736 4.24265c1.08653 1.0865 2.58562 1.7573 4.24264 1.7573s3.15612-.6708 4.24262-1.7573 1.7574-2.58563 1.7574-4.24265-.6709-3.15611-1.7574-4.24264c-1.0865-1.08652-2.5856-1.75736-4.24262-1.75736z" fill-rule="evenodd"/></g></svg>