<svg fill="none" height="20" viewBox="0 0 20 20" width="20" xmlns="http://www.w3.org/2000/svg"><path clip-rule="evenodd" d="m9.99975 20.0002c-5.52298 0-10.0002398-4.4773-10.00023931-10.00026.00000048-5.52298 4.47725931-10.00024463 10.00024931-10.00024414 5.52294.00000048 10.00024 4.47726414 10.00024 10.00024414 0 5.52296-4.4773 10.00026-10.00025 10.00026zm-.00034-1.4286c4.73399 0 8.57159-3.8377 8.57159-8.57166 0-4.73399-3.8376-8.57164-8.57159-8.57164s-8.57164 3.83765-8.57164 8.57164c0 4.73396 3.83765 8.57166 8.57164 8.57166zm4.23249-12.02158 1.0607 1.06066-6.36398 6.36392-4.24265-4.2426 1.06066-1.06066 3.18198 3.18196z" fill="#2dbd96" fill-rule="evenodd"/></svg>