<svg fill="none" height="18" viewBox="0 0 18 18" width="18" xmlns="http://www.w3.org/2000/svg"><path clip-rule="evenodd" d="m17.3333 8.99999c0-4.60249-3.731-8.333539-8.3335-8.333539-4.60249 0-8.33354 3.731049-8.33354 8.333539 0 4.60251 3.73105 8.33351 8.33354 8.33351 4.6025 0 8.3335-3.731 8.3335-8.33351zm-15.47624 0c0-3.94499 3.19804-7.14303 7.14303-7.14303 3.94501 0 7.14301 3.19804 7.14301 7.14303 0 3.94501-3.198 7.14301-7.14301 7.14301-3.94499 0-7.14303-3.198-7.14303-7.14301zm6.51794-5.00003h1.25v7.50004h-1.25zm1.25 8.75004h-1.25v1.25h1.25z" fill="#ffb547" fill-rule="evenodd"/></svg>