<?xml version="1.0" encoding="UTF-8"?>
<svg width="20px" height="20px" viewBox="0 0 20 20" version="1.1" xmlns="http://www.w3.org/2000/svg" xmlns:xlink="http://www.w3.org/1999/xlink">
    <!-- Generator: Sketch 59.1 (86144) - https://sketch.com -->
    <title>编组 9</title>
    <desc>Created with Sketch.</desc>
    <g id="优化" stroke="none" stroke-width="1" fill="none" fill-rule="evenodd">
        <g id="杠杆页面-布局" transform="translate(-284.000000, -805.000000)">
            <g id="小banner" transform="translate(10.000000, 799.000000)">
                <g id="编组-21" transform="translate(274.000000, 6.000000)">
                    <g id="编组-9">
                        <circle id="椭圆形" fill="#10141C" opacity="0.7" cx="10" cy="10" r="10"></circle>
                        <path d="M10,9.425905 L5.69347545,5.11938044 C5.53456177,4.96177272 5.27829412,4.96177272 5.11938044,5.11938044 C5.04296602,5.19535876 5,5.29866957 5,5.40642795 C5,5.51418633 5.04296602,5.61749713 5.11938044,5.69347545 L9.425905,10 L5.11938044,14.3065245 C4.96177272,14.4654382 4.96177272,14.7217059 5.11938044,14.8806196 C5.19535876,14.957034 5.29866957,15 5.40642795,15 C5.51418633,15 5.61749713,14.957034 5.69347545,14.8806196 L10,10.574095 L14.3065245,14.8806196 C14.4628375,15.0369326 14.7218705,15.0389626 14.8806196,14.8806196 C14.957034,14.8046412 15,14.7013304 15,14.5935721 C15,14.4858137 14.957034,14.3825029 14.8806196,14.3065245 L10.574095,10 L14.8806196,5.69347545 C15.0382273,5.53456177 15.0382273,5.27829412 14.8806196,5.11938044 C14.8046412,5.04296602 14.7013304,5 14.5935721,5 C14.4858137,5 14.3825029,5.04296602 14.3065245,5.11938044 L10,9.425905 Z" id="Path" fill="#FFFFFF" opacity="0.899088542"></path>
                    </g>
                </g>
            </g>
        </g>
    </g>
</svg>