<svg xmlns="http://www.w3.org/2000/svg" width="20" height="20" viewBox="0 0 20 20" fill="none">
  <g clip-path="url(#clip0_794_84935)">
    <path d="M1.53711 7H18.4602V13.5492C18.4602 15.2956 18.4602 16.1688 18.1203 16.8359C17.8214 17.4226 17.3443 17.8996 16.7576 18.1986C16.0905 18.5385 15.2173 18.5385 13.4709 18.5385H6.52636C4.77995 18.5385 3.90675 18.5385 3.23972 18.1986C2.65298 17.8996 2.17594 17.4226 1.87698 16.8359C1.53711 16.1688 1.53711 15.2956 1.53711 13.5492V7Z" fill="#00C288"/>
    <path d="M0 5.66308C0 5.08095 0 4.78988 0.113291 4.56754C0.212944 4.37196 0.371956 4.21294 0.567536 4.11329C0.789882 4 1.08095 4 1.66308 4H18.3369C18.9191 4 19.2101 4 19.4325 4.11329C19.628 4.21294 19.7871 4.37196 19.8867 4.56754C20 4.78988 20 5.08095 20 5.66308V6.18307C20 6.76521 20 7.05627 19.8867 7.27862C19.7871 7.4742 19.628 7.63321 19.4325 7.73286C19.2101 7.84615 18.9191 7.84615 18.3369 7.84615H1.66308C1.08095 7.84615 0.789882 7.84615 0.567536 7.73286C0.371956 7.63321 0.212944 7.4742 0.113291 7.27862C0 7.05627 0 6.76521 0 6.18307V5.66308Z" fill="#FFAE64"/>
    <path d="M0 5.66308C0 5.08095 0 4.78988 0.113291 4.56754C0.212944 4.37196 0.371956 4.21294 0.567536 4.11329C0.789882 4 1.08095 4 1.66308 4H18.3369C18.9191 4 19.2101 4 19.4325 4.11329C19.628 4.21294 19.7871 4.37196 19.8867 4.56754C20 4.78988 20 5.08095 20 5.66308V6.18307C20 6.76521 20 7.05627 19.8867 7.27862C19.7871 7.4742 19.628 7.63321 19.4325 7.73286C19.2101 7.84615 18.9191 7.84615 18.3369 7.84615H1.66308C1.08095 7.84615 0.789882 7.84615 0.567536 7.73286C0.371956 7.63321 0.212944 7.4742 0.113291 7.27862C0 7.05627 0 6.76521 0 6.18307V5.66308Z" fill="#6AD9BD"/>
    <path d="M8.63281 10.6585C8.63281 10.0212 9.14941 9.50464 9.78666 9.50464C10.4239 9.50464 10.9405 10.0212 10.9405 10.6585V14.5046C10.9405 15.1419 10.4239 15.6585 9.78666 15.6585C9.14941 15.6585 8.63281 15.1419 8.63281 14.5046L8.63281 10.6585Z" fill="white"/>
    <path d="M10.0032 3.09221L7.15248 1.57185C6.26435 1.09818 5.82028 0.861344 5.46501 0.808459C4.48255 0.662213 3.53389 1.23141 3.2006 2.1671C3.08008 2.50547 3.08008 3.00874 3.08008 4.01529H16.9262C16.9262 3.00874 16.9262 2.50547 16.8057 2.1671C16.4724 1.23141 15.5238 0.662213 14.5413 0.808459C14.186 0.861344 13.742 1.09818 12.8538 1.57185L10.0032 3.09221Z" fill="#C1F0E4"/>
  </g>
  <defs>
    <clipPath id="clip0_794_84935">
      <rect width="20" height="20" fill="white"/>
    </clipPath>
  </defs>
</svg>