<?xml version="1.0" encoding="UTF-8"?>
<svg width="460px" height="313px" viewBox="0 0 460 313" version="1.1" xmlns="http://www.w3.org/2000/svg" xmlns:xlink="http://www.w3.org/1999/xlink">
    <!-- Generator: Sketch 59.1 (86144) - https://sketch.com -->
    <title>编组 2备份 2123 copy</title>
    <desc>Created with Sketch.</desc>
    <defs>
        <linearGradient x1="50%" y1="16.472234%" x2="50%" y2="91.4312029%" id="linearGradient-1">
            <stop stop-color="#6D726E" offset="0%"></stop>
            <stop stop-color="#A2ABA1" offset="75.1518989%"></stop>
            <stop stop-color="#D1D7CF" offset="100%"></stop>
        </linearGradient>
        <path d="M35.6808511,0 L136.319149,0 L144.515142,68.0839208 C145.127022,73.1667941 147.664798,77.8214922 151.605779,81.0893147 L165.596929,92.6906373 C166.872355,93.7482077 167.048962,95.6394748 165.991391,96.9149006 C165.421446,97.6022527 164.57494,98 163.682029,98 L8.31797138,98 C6.66111713,98 5.31797138,96.6568542 5.31797138,95 C5.31797138,94.1070885 5.71571869,93.2605829 6.40307082,92.6906373 L20.394221,81.0893147 C24.3352023,77.8214922 26.8729783,73.1667941 27.4848584,68.0839208 L35.6808511,0 L35.6808511,0 Z" id="path-2"></path>
        <filter x="1.6%" y="-2.6%" width="96.7%" height="105.1%" filterUnits="objectBoundingBox" id="filter-4">
            <feOffset dx="0" dy="-3" in="SourceAlpha" result="shadowOffsetInner1"></feOffset>
            <feComposite in="shadowOffsetInner1" in2="SourceAlpha" operator="arithmetic" k2="-1" k3="1" result="shadowInnerInner1"></feComposite>
            <feColorMatrix values="0 0 0 0 0.239031964   0 0 0 0 0.265596694   0 0 0 0 0.263825712  0 0 0 1 0" type="matrix" in="shadowInnerInner1" result="shadowMatrixInner1"></feColorMatrix>
            <feOffset dx="0" dy="-4" in="SourceAlpha" result="shadowOffsetInner2"></feOffset>
            <feComposite in="shadowOffsetInner2" in2="SourceAlpha" operator="arithmetic" k2="-1" k3="1" result="shadowInnerInner2"></feComposite>
            <feColorMatrix values="0 0 0 0 1   0 0 0 0 1   0 0 0 0 1  0 0 0 0.5 0" type="matrix" in="shadowInnerInner2" result="shadowMatrixInner2"></feColorMatrix>
            <feMerge>
                <feMergeNode in="shadowMatrixInner1"></feMergeNode>
                <feMergeNode in="shadowMatrixInner2"></feMergeNode>
            </feMerge>
        </filter>
        <linearGradient x1="50%" y1="0%" x2="50%" y2="100%" id="linearGradient-5">
            <stop stop-color="#67786A" offset="0%"></stop>
            <stop stop-color="#778778" stop-opacity="0.452114292" offset="100%"></stop>
        </linearGradient>
        <filter x="-5.1%" y="-8.7%" width="110.2%" height="117.4%" filterUnits="objectBoundingBox" id="filter-6">
            <feGaussianBlur stdDeviation="2" in="SourceGraphic"></feGaussianBlur>
        </filter>
        <linearGradient x1="50%" y1="0%" x2="50%" y2="137.951209%" id="linearGradient-7">
            <stop stop-color="#9DA1A1" stop-opacity="0.298322771" offset="0%"></stop>
            <stop stop-color="#D8D8D8" stop-opacity="0" offset="100%"></stop>
        </linearGradient>
        <linearGradient x1="50%" y1="0%" x2="50%" y2="100%" id="linearGradient-8">
            <stop stop-color="#2C6C58" offset="0%"></stop>
            <stop stop-color="#0D2A28" offset="100%"></stop>
        </linearGradient>
        <path d="M362.043011,0 C374.395186,0 384.408602,10.0134163 384.408602,22.3655914 L384.408602,237.634409 C384.408602,249.986584 374.395186,260 362.043011,260 L22.3655914,260 C10.0134163,260 0,249.986584 0,237.634409 L0,22.3655914 C0,10.0134163 10.0134163,0 22.3655914,0 L362.043011,0 Z" id="path-9"></path>
        <filter x="-0.5%" y="-0.8%" width="101.0%" height="101.5%" filterUnits="objectBoundingBox" id="filter-10">
            <feGaussianBlur stdDeviation="1.5" in="SourceAlpha" result="shadowBlurInner1"></feGaussianBlur>
            <feOffset dx="0" dy="1" in="shadowBlurInner1" result="shadowOffsetInner1"></feOffset>
            <feComposite in="shadowOffsetInner1" in2="SourceAlpha" operator="arithmetic" k2="-1" k3="1" result="shadowInnerInner1"></feComposite>
            <feColorMatrix values="0 0 0 0 0.461089939   0 0 0 0 1   0 0 0 0 0.894449707  0 0 0 0.5 0" type="matrix" in="shadowInnerInner1"></feColorMatrix>
        </filter>
        <linearGradient x1="50%" y1="0%" x2="50%" y2="100%" id="linearGradient-11">
            <stop stop-color="#54CCB9" offset="0%"></stop>
            <stop stop-color="#0092A8" offset="100%"></stop>
        </linearGradient>
        <path d="M352.956989,0 L13.2795699,0 C5.94546596,0 0,5.94546596 0,13.2795699 L0,228.548387 C0,235.882491 5.94546596,241.827957 13.2795699,241.827957 L352.956989,241.827957 C360.291093,241.827957 366.236559,235.882491 366.236559,228.548387 L366.236559,13.2795699 C366.236559,5.94546596 360.291093,0 352.956989,0 Z" id="path-12"></path>
    </defs>
    <g id="编组-2备份-2123-copy" stroke="none" stroke-width="1" fill="none" fill-rule="evenodd">
        <g>
            <g id="编组-2备份-2" transform="translate(106.000000, 212.000000)">
                <g id="矩形">
                    <mask id="mask-3" fill="white">
                        <use xlink:href="#path-2"></use>
                    </mask>
                    <g id="蒙版" opacity="0.49874442">
                        <use fill="url(#linearGradient-1)" fill-rule="evenodd" xlink:href="#path-2"></use>
                        <use fill="black" fill-opacity="1" filter="url(#filter-4)" xlink:href="#path-2"></use>
                        <use stroke="#EBEBEB" stroke-width="1" xlink:href="#path-2"></use>
                    </g>
                    <rect fill="url(#linearGradient-5)" style="mix-blend-mode: multiply;" opacity="0.332287016" filter="url(#filter-6)" mask="url(#mask-3)" x="27" y="25" width="118" height="69"></rect>
                </g>
                <rect id="矩形" fill="url(#linearGradient-7)" x="5" y="98" width="162" height="3" rx="1.5"></rect>
            </g>
            <g id="编组-2备份-2">
                <g id="路径">
                    <use fill="url(#linearGradient-8)" fill-rule="evenodd" xlink:href="#path-9"></use>
                    <use fill="black" fill-opacity="1" filter="url(#filter-10)" xlink:href="#path-9"></use>
                </g>
                <g id="路径-2" transform="translate(9.086022, 9.305904)">
                    <mask id="mask-13" fill="white">
                        <use xlink:href="#path-12"></use>
                    </mask>
                    <use id="蒙版" fill="url(#linearGradient-11)" xlink:href="#path-12"></use>
                    <g id="无网络" opacity="0.8" mask="url(#mask-13)" fill="#FFFFFF" fill-rule="nonzero">
                        <g transform="translate(42.913978, 102.694096)" id="路径">
                            <path d="M17.3311389,20.6381652 C15.5398105,21.4249003 13.9323689,22.4806817 12.7278542,24.0370893 C12.075822,24.8795866 12.0455511,25.8456859 12.5188359,26.7960587 C12.9749553,27.7119977 13.7372784,28.2090778 14.7697784,28.2936719 C15.7912801,28.3773923 16.5515989,27.9066771 17.2455169,27.2210334 C19.7654542,24.7312643 23.6307763,24.327618 26.6062675,26.2634141 C26.6417806,26.2865413 26.6768825,26.3102852 26.7117788,26.3342861 L20.1662738,19.7887811 C19.1370631,19.968505 18.2206101,20.2475215 17.3311389,20.6381652 Z"></path>
                            <path d="M1.03485636,9.77692339 C0.637377288,10.152149 0.309639475,10.6904983 0.157462684,11.2126072 C-0.200340452,12.4408145 0.360005374,13.6292943 1.45859766,14.2594842 C2.50476835,14.8597116 3.8363284,14.6719703 4.81835973,13.7526393 C6.49055742,12.1872378 8.28594588,10.8776742 10.2068892,9.82944778 L6.18265758,5.80521621 C4.36383357,6.92847748 2.64810541,8.25407588 1.03485636,9.77692339 Z"></path>
                            <path d="M22.5409723,29.0675072 C20.7161353,29.0523461 19.2075753,30.557103 19.2248949,32.3750533 C19.242266,34.1954191 20.710225,35.6369103 22.5400472,35.6306096 C24.3682249,35.6241132 25.8333572,34.1659191 25.8330489,32.3529026 C25.8328433,30.5475438 24.3647815,29.0825656 22.5409723,29.0675072 Z"></path>
                            <path d="M32.2714494,19.1315067 C33.1272577,19.7752131 33.9094702,20.5164648 34.7746836,21.1464492 C35.605566,21.7516103 36.9446295,21.6561722 37.8089178,21.0231556 C38.6726408,20.3902418 39.0863603,19.215998 38.8590459,18.2281592 C38.644991,17.2974702 37.9786713,16.7284389 37.3150755,16.1384903 C33.1123021,12.4020635 28.2001925,10.4699164 22.1131196,10.4005863 C21.6380874,10.4414957 20.8537163,10.4813258 20.0277163,10.5710079 L25.6483398,16.1916314 C28.0085453,16.6508343 30.2810731,17.6347158 32.2714494,19.1315067 Z"></path>
                            <path d="M44.0690335,9.79912547 C38.0181417,4.13522844 30.8066254,1.34331564 21.657874,1.24129908 C20.7293949,1.33920412 18.9504524,1.44348203 17.2009072,1.72645589 C15.5284012,1.99704385 13.9178246,2.39354643 12.3673272,2.91051598 L16.8269151,7.37010382 C17.5775718,7.20667175 18.3428245,7.07361343 19.1239063,6.9735498 C23.3262171,6.43504636 27.4305201,6.8549845 31.418108,8.29056546 C34.7022185,9.47303232 37.5992829,11.2819887 40.1346382,13.661878 C40.8120589,14.2977212 41.5921128,14.6954059 42.5359587,14.5812604 C43.6633828,14.4448614 44.4770997,13.8398031 44.849807,12.7550357 C45.2423522,11.6131185 44.9356859,10.610324 44.0690335,9.79912547 Z"></path>
                            <path d="M7.05074901,16.7772629 C5.43852783,18.3298673 6.00190584,20.7474796 8.1036009,21.4208402 C9.14026374,21.7531007 10.0441252,21.4212514 10.8724379,20.7466573 C11.9183516,19.8948063 12.9414979,18.9917157 14.0834152,18.2838186 C15.0710484,17.6715651 16.109767,17.1783909 17.1795788,16.802086 L12.9706896,12.5931968 C10.8204788,13.6382883 8.85086568,15.0437525 7.05074901,16.7772629 Z"></path>
                            <path d="M5.54974383,0.632643198 C6.35498076,-0.172593733 7.6579659,-0.175112026 8.46572108,0.632643198 L32.6679519,24.8348741 C33.4731889,25.640111 33.4715443,26.947259 32.6679519,27.7508513 C31.862715,28.5560882 30.5597299,28.5586065 29.7519747,27.7508513 L5.54974383,3.5486205 C4.7445069,2.74338357 4.74615151,1.43623552 5.54974383,0.632643198 Z"></path>
                        </g>
                    </g>
                    <g id="VPN-(1)" opacity="0.8" mask="url(#mask-13)" fill="#FFFFFF" fill-rule="nonzero">
                        <g transform="translate(274.913978, 110.694096)" id="形状">
                            <path d="M0,2.84217094e-14 L4.76821189,2.84217094e-14 L6.85430461,9.10596029 C7.48344369,11.192053 7.68211916,13.2450332 8.31125824,15.5298013 C8.94039732,13.4437086 9.13907279,11.3907285 9.76821188,9.10596029 L11.8543046,2.84217094e-14 L16.423841,2.84217094e-14 L10.8278146,19.8675497 L5.43046354,19.8675497 L0,2.84217094e-14 Z M18.2119205,2.84217094e-14 L24.8344371,2.84217094e-14 C28.9735099,2.84217094e-14 32.2847682,1.45695363 32.2847682,6.42384105 C32.2847682,11.1920529 28.9735099,13.2450331 25.0331126,13.2450331 L22.9470199,13.2450331 L22.9470199,19.8675497 L18.6092715,19.8675497 L18.6092715,2.84217094e-14 L18.2119205,2.84217094e-14 Z M24.6357616,9.50331129 C26.7218543,9.50331129 27.7483444,8.47682121 27.7483444,6.3907285 C27.7483444,4.30463578 26.4900662,3.70860926 24.4370861,3.70860926 L22.781457,3.70860926 L22.781457,9.50331129 L24.6357616,9.50331129 L24.6357616,9.50331129 Z M34.9668874,0 L39.5364238,0 L44.1059603,9.53642385 L45.9602649,13.8741722 L46.1589404,13.8741722 C45.9602649,11.7880795 45.5298013,8.90728477 45.5298013,6.62251658 L45.5298013,0 L49.6688742,0 L49.6688742,19.8675497 L45.0993377,19.8675497 L40.5298013,10.3311258 L38.6754967,5.9933775 L38.4768212,5.9933775 C38.6754966,8.27814568 39.1059602,10.9602649 39.1059602,13.2450331 L39.1059602,19.8675497 L34.9668874,19.8675497 L34.9668874,0 L34.9668874,0 Z"></path>
                        </g>
                    </g>
                    <g id="插件" opacity="0.8" mask="url(#mask-13)" fill="#FFFFFF" fill-rule="nonzero" stroke="#FFFFFF" stroke-width="4">
                        <g transform="translate(166.913978, 100.694096)" id="路径">
                            <path d="M21.6295057,33.9974082 L19.3593742,33.9974082 L21.2455025,36.6626298 C21.553899,35.7882216 21.6769318,34.8836132 21.6295057,33.9974082 Z M7.83008003,33.9974082 C7.78265392,34.8836132 7.9056868,35.7882216 8.21408323,36.6626298 L10.1002116,33.9974082 L7.83008003,33.9974082 Z M2,28.1713309 L2,25.8997376 L-0.666687377,27.7853483 C0.208074348,28.0946341 1.11320554,28.2183255 2,28.1713309 Z M2,14.3715226 C1.11320554,14.324528 0.208074348,14.4482194 -0.666687377,14.7575052 L2,16.643116 L2,14.3715226 Z M14.8546959,2.00267772 L19.5661166,2.00789662 L16.1440064,-1.41421356 L14.7297929,0 L14.7297929,2 C14.77155,2 14.8131925,2.00089678 14.8546959,2.00267772 Z"></path>
                        </g>
                    </g>
                    <circle id="椭圆形" stroke="#FFFFFF" stroke-width="2" opacity="0.30359468" mask="url(#mask-13)" cx="299.913978" cy="120.694096" r="41"></circle>
                    <circle id="椭圆形备份" stroke="#FFFFFF" stroke-width="2" opacity="0.30359468" mask="url(#mask-13)" cx="182.913978" cy="120.694096" r="41"></circle>
                    <circle id="椭圆形备份-3" stroke="#FFFFFF" stroke-width="2" opacity="0.30359468" mask="url(#mask-13)" cx="65.9139785" cy="120.694096" r="41"></circle>
                    <g id="升级-(1)" mask="url(#mask-13)">
                        <g transform="translate(363.580645, 53.094096)" id="浏览器-(1)">
                            <g transform="translate(60.666667, 0.000000)">
                                <path d="M34.6666667,0 C15.6,0 0,15.6 0,34.6666667 C0,53.7333333 15.6,69.3333333 34.6666667,69.3333333 C53.7333333,69.3333333 69.3333333,53.7333333 69.3333333,34.6666667 C69.3333333,15.6 53.7333333,0 34.6666667,0 Z M65.3466667,39.6933333 L65.1733333,39.52 L63.6133333,37.96 L63.2666667,37.6133333 C63.2666667,37.0933333 63.0933333,36.92 63.2666667,36.7466667 C63.44,36.5733333 62.7466667,35.7066667 62.5733333,35.36 C63.2666667,34.6666667 63.7866667,33.8 63.7866667,32.9333333 C63.6133333,31.72 63.2666667,30.5066667 62.92,29.4666667 C62.92,28.7733333 63.44,28.6 63.6133333,28.08 C63.7866667,27.3866667 64.1333333,26.52 64.3066667,25.8266667 C65.8666667,30.16 66.2133333,35.0133333 65.3466667,39.6933333 L65.3466667,39.6933333 Z M54.6,10.92 C54.2533333,10.92 54.6,11.44 54.08,11.2666667 C53.9066667,11.2666667 53.9066667,11.2666667 53.9066667,11.0933333 L53.56,11.0933333 C53.2133333,10.92 53.04,10.5733333 52.6933333,10.5733333 L52,10.5733333 C51.8266667,10.5733333 52,10.4 51.6533333,10.2266667 C51.3066667,10.0533333 51.48,10.0533333 51.48,10.0533333 C50.96,9.88 50.6133333,9.36 50.44,9.01333333 C50.44,8.84 50.44,9.01333333 50.6133333,8.84 C50.2666667,8.66666667 50.2666667,8.84 50.0933333,8.66666667 C49.92,8.49333333 49.92,8.49333333 49.92,8.32 C49.92,8.14666667 49.2266667,7.97333333 49.2266667,7.8 C49.2266667,7.62666667 49.2266667,7.8 49.4,7.62666667 L49.0533333,7.62666667 L49.0533333,7.45333333 C49.2266667,7.28 49.4,7.28 49.5733333,7.28 C51.3066667,8.32 53.04,9.36 54.6,10.92 C54.6,10.7466667 54.6,10.92 54.6,10.92 L54.6,10.92 Z M43.5066667,6.24 L43.3333333,6.24 L43.16,6.06666667 C42.64,5.89333333 42.2933333,5.89333333 41.7733333,5.72 C41.2533333,5.54666667 39.8666667,5.54666667 40.2133333,5.2 C39.52,5.02666667 39.1733333,4.85333333 38.6533333,4.68 C38.48,4.68 38.48,4.85333333 38.3066667,4.85333333 L37.96,4.85333333 C37.7866667,4.85333333 37.6133333,5.02666667 37.2666667,4.85333333 C36.92,4.68 36.4,4.68 36.4,4.50666667 C36.4,4.33333333 36.92,4.33333333 37.2666667,4.33333333 L39,4.33333333 L38.6533333,4.16 L39.1733333,4.16 C39.3466667,4.16 39.52,3.98666667 39.6933333,3.98666667 C40.56,4.16 41.6,4.33333333 42.4666667,4.50666667 L42.8133333,4.50666667 L42.4666667,4.50666667 L42.4666667,4.68 L42.64,4.68 C42.8133333,4.85333333 42.9866667,5.02666667 43.16,5.02666667 C43.5066667,5.02666667 43.68,5.02666667 43.68,5.2 L44.0266667,5.2 L44.0266667,5.37333333 L44.3733333,5.54666667 C44.3733333,5.54666667 44.2,5.72 44.2,5.89333333 C43.5066667,5.72 42.9866667,5.54666667 42.2933333,5.37333333 L41.9466667,5.37333333 C42.2933333,5.72 43.3333333,5.89333333 43.5066667,6.24 L43.5066667,6.24 Z M33.1066667,3.81333333 L32.4133333,3.81333333 C32.24,3.81333333 31.8933333,3.64 31.72,3.64 C32.5866667,3.64 33.4533333,3.46666667 34.32,3.46666667 C33.9733333,3.64 33.4533333,3.81333333 33.28,3.81333333 L33.1066667,3.81333333 L33.1066667,3.81333333 Z M31.5466667,3.81333333 C31.5466667,3.98666667 30.8533333,3.98666667 30.5066667,3.98666667 C30.16,3.98666667 29.9866667,3.98666667 29.64,3.81333333 C30.3333333,3.64 30.8533333,3.64 31.5466667,3.46666667 L31.5466667,3.81333333 Z M43.5066667,4.85333333 L44.72,5.2 L44.5466667,5.2 C44.2,5.2 43.8533333,5.02666667 43.5066667,4.85333333 Z M29.2933333,3.98666667 C29.8133333,4.16 30.3333333,4.16 30.8533333,4.16 L30.8533333,4.33333333 C30.5066667,4.50666667 30.16,4.68 29.8133333,4.68 L29.2933333,4.68 C29.12,4.68 29.2933333,5.02666667 28.7733333,4.85333333 C27.04,4.68 27.7333333,4.85333333 27.56,4.85333333 C27.9066667,4.85333333 28.6,4.85333333 28.6,5.02666667 C28.6,5.2 28.2533333,5.02666667 27.9066667,5.2 C27.7333333,5.37333333 27.3866667,5.54666667 27.2133333,5.72 C26.6933333,5.89333333 26.52,6.41333333 26.3466667,6.93333333 L26.3466667,7.45333333 C26.52,7.45333333 26.6933333,7.28 26.8666667,7.28 C27.04,7.28 27.56,7.97333333 27.7333333,8.14666667 C28.08,8.14666667 28.2533333,7.97333333 28.6,7.97333333 C28.9466667,7.97333333 29.2933333,8.14666667 29.4666667,8.14666667 C30.3333333,8.32 31.2,8.49333333 32.0666667,8.84 C32.5866667,8.84 32.9333333,9.01333333 33.4533333,9.01333333 C33.9733333,9.01333333 34.1466667,9.53333333 34.1466667,9.88 C34.1466667,10.2266667 35.0133333,10.7466667 35.5333333,11.0933333 L36.2266667,11.0933333 C36.2266667,10.92 36.4,10.7466667 36.5733333,10.5733333 C36.2266667,10.2266667 36.5733333,9.70666667 35.7066667,9.36 C36.2266667,9.36 37.44,8.84 37.44,8.49333333 C37.44,8.14666667 37.6133333,7.8 37.2666667,7.62666667 C36.92,7.45333333 36.5733333,7.62666667 36.4,7.28 C36.7466667,7.28 37.2666667,7.10666667 37.0933333,6.76 C36.92,6.41333333 36.4,6.41333333 36.5733333,6.24 C37.2666667,6.06666667 36.5733333,5.89333333 36.5733333,5.72 C36.5733333,5.54666667 36.92,5.37333333 37.2666667,5.37333333 C37.7866667,5.37333333 38.1333333,5.54666667 38.8266667,5.72 L39.3466667,5.72 C39.8666667,5.72 39.8666667,5.89333333 40.3866667,6.06666667 C40.3866667,6.41333333 41.4266667,6.41333333 41.6,6.58666667 C41.7733333,6.93333333 41.6,7.45333333 41.9466667,7.45333333 C42.2933333,7.45333333 42.4666667,7.97333333 42.8133333,7.97333333 C43.16,7.97333333 43.16,7.8 43.5066667,7.8 C43.8533333,7.8 44.2,7.62666667 44.0266667,7.45333333 C43.8533333,7.28 44.3733333,7.28 44.3733333,7.10666667 C44.5466667,7.10666667 44.5466667,7.28 44.72,7.28 C44.8933333,7.62666667 45.5866667,7.8 45.4133333,7.97333333 C45.24,8.14666667 45.9333333,8.49333333 46.1066667,8.49333333 C46.28,8.49333333 46.28,8.66666667 46.28,8.84 C46.28,9.01333333 46.1066667,9.01333333 46.1066667,9.01333333 C46.4533333,9.18666667 46.8,9.36 47.1466667,9.36 C47.1466667,9.88 48.1866667,10.0533333 48.7066667,10.0533333 L48.88,10.2266667 C48.88,10.2266667 47.84,10.4 47.32,10.5733333 L47.4933333,10.5733333 C48.0133333,10.5733333 48.7066667,10.5733333 49.2266667,10.4 L49.2266667,10.5733333 C49.2266667,10.5733333 49.2266667,10.7466667 49.4,10.7466667 C49.5733333,10.92 49.7466667,11.0933333 49.7466667,11.44 C49.7466667,11.7866667 48.36,11.6133333 48.0133333,11.96 C47.4933333,12.48 46.6266667,12.1333333 45.5866667,11.96 C44.8933333,11.7866667 44.2,11.7866667 43.68,11.96 C43.16,12.1333333 43.3333333,12.3066667 43.16,12.48 C42.9866667,12.6533333 42.2933333,12.6533333 42.12,13.1733333 C42.8133333,13.1733333 43.16,12.6533333 44.0266667,12.6533333 C44.5466667,12.6533333 45.0666667,12.6533333 45.0666667,13 C45.0666667,13.3466667 44.3733333,13.3466667 44.2,13.52 L44.72,13.52 C44.72,14.04 45.76,14.56 46.28,14.56 C46.4533333,14.56 46.9733333,14.56 46.9733333,14.9066667 C46.4533333,15.08 46.1066667,15.2533333 45.5866667,15.4266667 C45.24,15.6 44.72,15.9466667 44.72,15.9466667 C44.5466667,15.9466667 44.5466667,15.7733333 44.3733333,15.6 C44.3733333,15.2533333 45.0666667,14.9066667 45.5866667,14.9066667 C45.24,14.9066667 45.24,14.9066667 45.24,14.56 C44.8933333,14.56 44.8933333,14.7333333 44.72,14.9066667 L43.68,14.9066667 C43.68,14.9066667 43.68,15.08 43.8533333,15.08 C43.5066667,15.4266667 43.3333333,15.6 42.9866667,15.6 C42.8133333,15.6 42.64,15.6 42.4666667,15.7733333 C42.12,16.12 41.4266667,15.7733333 41.4266667,16.4666667 L41.4266667,16.64 L41.6,16.9866667 L41.7733333,16.8133333 L41.7733333,16.9866667 L41.08,16.9866667 C40.56,17.16 39.8666667,17.16 39.52,17.3333333 L40.3866667,17.3333333 L39.3466667,17.3333333 L39.1733333,17.5066667 L39.3466667,17.68 C39.3466667,17.68 38.8266667,18.5466667 38.6533333,18.5466667 C38.48,18.5466667 38.48,18.3733333 38.48,18.3733333 L38.3066667,18.5466667 C38.3066667,18.72 38.48,18.72 38.48,18.8933333 C38.3066667,19.24 38.1333333,19.4133333 37.96,19.76 L37.96,19.4133333 C37.96,19.4133333 37.7866667,18.8933333 37.7866667,18.72 L37.7866667,18.8933333 C37.7866667,19.0666667 37.96,19.4133333 37.96,19.5866667 L37.96,19.9333333 C37.96,20.1066667 38.1333333,19.9333333 38.1333333,19.9333333 L38.1333333,20.1066667 C38.1333333,20.1066667 37.96,20.28 37.7866667,20.28 C37.7866667,20.4533333 37.96,20.4533333 38.1333333,20.4533333 C38.1333333,20.6266667 37.96,20.6266667 37.7866667,20.6266667 C37.6133333,20.6266667 37.7866667,20.8 37.7866667,20.8 L37.96,20.9733333 L37.7866667,21.1466667 C37.7866667,21.1466667 37.44,21.32 37.2666667,21.32 C37.0933333,21.32 36.92,21.4933333 36.92,21.4933333 C35.88,22.0133333 34.6666667,22.0133333 34.6666667,23.5733333 C34.6666667,24.2666667 35.36,24.44 35.36,25.1333333 L35.36,25.3066667 C35.36,25.48 35.7066667,25.8266667 35.7066667,26.1733333 C35.7066667,26.52 35.5333333,27.04 35.1866667,27.04 C34.84,27.04 34.84,26.6933333 34.6666667,26.52 C34.32,26.3466667 34.1466667,26 33.9733333,25.8266667 C33.6266667,25.1333333 33.9733333,23.92 32.9333333,23.92 C32.76,23.92 32.5866667,24.2666667 32.4133333,24.2666667 C31.8933333,24.2666667 31.72,23.7466667 31.2,23.7466667 C30.68,23.7466667 30.68,23.92 30.68,23.92 L30.5066667,23.7466667 C30.16,23.7466667 29.64,23.7466667 29.2933333,23.92 L29.64,23.92 C29.64,24.2666667 29.4666667,24.44 29.64,24.6133333 C28.9466667,24.96 28.4266667,24.2666667 27.9066667,24.2666667 C27.7333333,24.2666667 27.7333333,24.44 27.56,24.44 L27.04,24.44 C26.3466667,24.44 26,24.96 25.8266667,25.1333333 C25.6533333,25.3066667 25.48,25.1333333 25.1333333,25.3066667 C24.6133333,25.48 24.2666667,26 24.2666667,26.52 L24.44,26.6933333 C24.44,26.8666667 24.44,26.8666667 24.6133333,27.04 C24.6133333,27.3866667 24.44,27.56 24.44,27.9066667 L24.44,29.9866667 C24.6133333,30.16 24.7866667,30.3333333 24.96,30.68 C25.3066667,31.0266667 25.3066667,31.3733333 26,31.5466667 C26.1733333,31.5466667 26.1733333,31.72 26.3466667,31.72 C26.8666667,31.72 27.2133333,31.3733333 27.56,31.3733333 C27.7333333,31.3733333 27.9066667,31.3733333 28.08,31.5466667 C28.2533333,31.5466667 28.4266667,31.2 28.4266667,31.2 C28.4266667,31.2 28.9466667,30.68 28.9466667,30.3333333 C28.9466667,29.64 29.8133333,29.64 30.5066667,29.64 L31.2,29.64 L31.2,29.8133333 C31.2,29.8133333 30.8533333,30.5066667 30.8533333,30.8533333 C30.8533333,31.2 30.68,31.3733333 30.5066667,31.5466667 L30.5066667,31.3733333 L30.5066667,32.4133333 C30.5066667,32.76 30.16,32.76 30.16,32.9333333 L30.16,33.1066667 C30.16,33.28 30.3333333,33.28 30.5066667,33.28 C31.3733333,33.28 31.8933333,33.1066667 32.76,33.1066667 C33.6266667,33.1066667 33.4533333,33.4533333 33.8,33.6266667 L33.8,33.9733333 C33.8,34.32 33.8,34.84 33.6266667,35.1866667 L33.6266667,36.5733333 C33.6266667,37.0933333 34.1466667,37.2666667 34.4933333,37.44 C34.84,37.6133333 34.6666667,37.96 35.1866667,37.96 C35.7066667,37.96 36.0533333,37.6133333 36.5733333,37.44 C37.0933333,37.2666667 37.2666667,38.1333333 37.6133333,38.3066667 L37.44,38.48 L37.6133333,38.3066667 L37.96,38.3066667 L37.96,38.1333333 L38.1333333,37.96 C38.1333333,37.7866667 38.3066667,37.6133333 38.48,37.6133333 C38.6533333,37.6133333 38.6533333,37.2666667 38.6533333,37.0933333 C38.6533333,36.92 39,36.7466667 39.3466667,36.5733333 L40.9066667,36.0533333 C41.2533333,35.88 41.2533333,35.7066667 41.6,35.7066667 C41.9466667,35.7066667 41.7733333,35.88 41.7733333,35.88 C41.7733333,36.0533333 41.6,36.0533333 41.6,36.0533333 C41.4266667,36.4 41.4266667,36.5733333 41.4266667,36.92 C41.4266667,37.0933333 41.4266667,37.6133333 41.7733333,37.6133333 C42.12,37.6133333 41.9466667,37.2666667 41.9466667,37.2666667 C41.9466667,37.2666667 41.6,36.92 41.7733333,36.5733333 C41.9466667,36.2266667 42.12,36.4 42.2933333,36.2266667 L42.8133333,36.2266667 C42.8133333,36.0533333 42.2933333,36.0533333 42.4666667,35.88 L42.8133333,35.88 C42.8133333,36.2266667 43.5066667,36.4 43.68,36.4 C43.68,36.5733333 43.8533333,36.7466667 43.8533333,36.7466667 L45.0666667,36.7466667 C45.0666667,36.92 45.4133333,36.92 45.5866667,36.92 C45.76,36.92 46.1066667,36.92 46.28,36.5733333 C46.4533333,36.5733333 46.6266667,36.5733333 46.8,36.4 L47.32,36.4 L46.9733333,36.4 L46.9733333,36.5733333 C46.9733333,36.5733333 47.4933333,36.92 47.84,37.0933333 C48.1866667,37.2666667 48.0133333,37.44 48.1866667,37.7866667 L48.5333333,37.7866667 C48.88,38.1333333 49.0533333,38.1333333 49.4,38.6533333 C49.4,38.6533333 49.5733333,38.8266667 49.7466667,38.8266667 C49.92,39.3466667 50.6133333,39.3466667 51.3066667,39.3466667 L51.8266667,39.3466667 C52,39.52 52.1733333,39.52 52.52,39.52 L52.6933333,39.52 C53.04,39.52 53.3866667,40.2133333 53.7333333,40.2133333 C53.7333333,40.56 53.9066667,41.08 54.08,41.4266667 C54.08,41.6 54.4266667,41.6 54.4266667,41.7733333 C53.9066667,42.2933333 53.56,42.8133333 53.3866667,43.5066667 C53.3866667,43.68 53.56,43.68 53.56,43.68 C53.7333333,43.68 53.9066667,43.8533333 53.9066667,44.0266667 L54.4266667,44.0266667 L54.4266667,44.2 L54.6,44.0266667 C54.6,44.0266667 54.9466667,43.3333333 55.2933333,43.3333333 C55.64,43.3333333 56.16,43.5066667 56.5066667,43.68 C56.68,43.68 56.8533333,43.68 56.8533333,43.8533333 L56.8533333,44.3733333 L57.0266667,44.3733333 C57.2,44.3733333 57.2,44.2 57.3733333,44.2 C57.5466667,44.2 57.72,44.3733333 58.0666667,44.3733333 L58.76,44.2 C58.9333333,44.2 59.28,44.3733333 59.4533333,44.3733333 C59.6266667,44.72 59.8,44.8933333 60.1466667,45.0666667 L60.6666667,45.0666667 C60.84,45.0666667 61.0133333,45.4133333 61.0133333,45.76 C60.84,46.8 60.32,47.84 59.6266667,48.5333333 L59.28,48.88 L58.76,49.4 C58.4133333,49.7466667 58.76,49.7466667 58.76,50.2666667 C58.76,50.7866667 58.4133333,51.48 58.4133333,51.6533333 C58.4133333,51.8266667 58.4133333,51.8266667 58.24,51.8266667 L57.8933333,52.1733333 C57.8933333,52.3466667 57.72,52.52 57.72,52.6933333 C57.3733333,53.04 57.3733333,53.2133333 57.0266667,53.56 C56.68,53.9066667 56.8533333,53.9066667 56.8533333,53.9066667 C56.68,54.2533333 56.3333333,54.4266667 56.16,54.4266667 C55.8133333,54.4266667 55.64,54.6 55.2933333,54.6 C55.12,54.6 55.12,54.7733333 55.12,54.7733333 C54.6,55.2933333 54.2533333,55.12 53.9066667,55.64 C53.56,56.16 53.56,55.9866667 53.3866667,55.9866667 C53.2133333,55.9866667 53.2133333,55.9866667 53.2133333,56.16 C53.2133333,56.3333333 53.04,57.0266667 53.04,57.3733333 C52.6933333,57.5466667 52.52,57.8933333 52.1733333,58.24 C52,58.4133333 52.1733333,58.0666667 52,58.4133333 C51.8266667,58.76 51.1333333,59.28 50.7866667,59.6266667 C50.44,59.9733333 50.0933333,60.84 49.2266667,61.0133333 L47.6666667,61.0133333 C47.6666667,61.0133333 47.84,61.1866667 48.0133333,61.1866667 C48.1866667,61.1866667 48.0133333,61.36 48.1866667,61.5333333 C48.36,61.7066667 48.5333333,61.5333333 48.36,61.7066667 C48.1866667,61.88 48.36,61.88 48.1866667,62.0533333 L47.6666667,62.5733333 C47.32,62.7466667 46.9733333,62.92 46.4533333,63.0933333 C46.1066667,63.2666667 45.5866667,63.0933333 45.4133333,63.2666667 C45.24,63.44 45.4133333,63.6133333 45.24,63.7866667 L44.5466667,64.1333333 L44.0266667,64.1333333 C43.8533333,64.1333333 43.8533333,64.1333333 43.8533333,64.3066667 C42.4666667,64.6533333 41.08,65 39.52,65.1733333 L39.6933333,64.8266667 L39.6933333,64.6533333 L39.52,64.6533333 C39.3466667,64.6533333 39.3466667,64.8266667 39.1733333,64.8266667 C39,64.8266667 39.1733333,64.48 39.1733333,64.3066667 C39.1733333,64.1333333 39.3466667,63.96 39.3466667,63.7866667 C39.3466667,63.6133333 39.52,63.7866667 39.52,63.7866667 C39.52,63.7866667 39.52,63.6133333 39.3466667,63.6133333 L39.3466667,63.0933333 C39.52,62.7466667 39.6933333,62.5733333 39.8666667,62.2266667 C39.8666667,62.0533333 40.04,61.88 40.04,61.88 C40.04,61.88 40.2133333,61.88 40.2133333,61.7066667 C40.3866667,61.36 40.3866667,61.1866667 40.56,60.84 C40.7333333,60.4933333 40.56,60.1466667 40.56,59.8 C40.56,59.4533333 40.7333333,59.28 40.7333333,59.1066667 C40.7333333,58.5866667 41.08,58.24 41.2533333,57.72 L41.2533333,57.5466667 C41.2533333,57.3733333 41.4266667,57.2 41.4266667,57.0266667 L41.4266667,56.3333333 C41.4266667,56.16 41.6,55.64 41.6,55.2933333 L41.6,53.9066667 C41.4266667,53.56 41.08,53.2133333 40.7333333,53.04 C40.3866667,53.04 40.2133333,53.04 39.8666667,52.8666667 C39.6933333,52.6933333 39.52,52.52 39.1733333,52.52 C38.6533333,52.3466667 38.3066667,52.1733333 37.96,51.8266667 C37.7866667,51.6533333 37.96,51.48 37.96,51.3066667 C37.96,51.1333333 37.6133333,50.96 37.6133333,50.6133333 C37.6133333,50.2666667 37.2666667,49.7466667 37.2666667,49.4 L36.7466667,48.36 C36.7466667,48.5333333 36.4,48.5333333 36.4,48.5333333 C36.2266667,48.36 36.2266667,48.1866667 36.2266667,48.0133333 C36.2266667,47.84 36.0533333,47.84 35.88,47.84 C35.5333333,47.6666667 35.36,47.32 35.36,46.9733333 C35.36,46.8 35.5333333,46.4533333 35.5333333,46.28 C35.7066667,45.9333333 36.2266667,45.9333333 36.2266667,45.5866667 C36.0533333,45.4133333 36.0533333,45.5866667 35.88,45.5866667 C35.7066667,45.5866667 35.5333333,45.24 35.5333333,44.8933333 C35.7066667,44.3733333 35.7066667,43.68 35.7066667,43.16 C36.4,43.16 36.5733333,42.64 36.7466667,42.2933333 C36.92,41.9466667 37.6133333,41.9466667 37.7866667,41.4266667 L37.6133333,41.2533333 L37.6133333,40.9066667 C37.6133333,40.7333333 37.44,40.56 37.44,40.3866667 C37.44,40.2133333 37.6133333,40.04 37.6133333,39.8666667 C37.6133333,39.6933333 37.2666667,39.52 37.2666667,39.1733333 L37.2666667,39 L37.0933333,38.8266667 L37.2666667,38.6533333 C37.0933333,38.48 37.0933333,38.1333333 36.92,38.1333333 C36.5733333,38.3066667 36.4,38.48 36.0533333,38.6533333 L36.2266667,38.8266667 C36.2266667,39 36.0533333,39.1733333 35.88,39.1733333 C35.5333333,39.1733333 35.1866667,38.8266667 35.0133333,38.6533333 C34.84,38.48 34.4933333,38.6533333 34.32,38.6533333 C34.1466667,38.6533333 34.1466667,38.6533333 34.1466667,38.48 C33.8,38.48 33.8,38.1333333 33.8,37.96 C33.4533333,37.7866667 33.28,37.6133333 32.9333333,37.44 L32.9333333,37.6133333 L32.76,37.6133333 C32.4133333,37.44 32.5866667,37.0933333 32.5866667,36.7466667 C32.4133333,36.5733333 32.24,36.4 32.0666667,36.4 C31.72,36.0533333 31.3733333,35.88 31.2,35.36 L31.0266667,35.36 C30.8533333,35.36 30.68,35.5333333 30.5066667,35.5333333 C30.16,35.5333333 29.8133333,35.36 29.4666667,35.1866667 C28.9466667,35.0133333 28.7733333,35.1866667 28.2533333,34.84 C27.56,34.4933333 27.3866667,33.6266667 26.6933333,33.28 L26.52,33.28 C26.3466667,33.1066667 26.1733333,33.1066667 26,33.1066667 C25.6533333,33.1066667 25.48,33.4533333 25.1333333,33.4533333 C24.96,33.4533333 24.7866667,33.28 24.6133333,33.28 L24.0933333,33.28 C23.5733333,33.1066667 23.2266667,32.9333333 22.88,32.5866667 C22.7066667,32.4133333 22.5333333,32.5866667 22.1866667,32.5866667 C21.84,32.5866667 21.84,32.24 21.4933333,32.0666667 C21.1466667,31.8933333 20.9733333,32.0666667 20.8,31.8933333 L20.6266667,31.72 C20.28,31.5466667 19.76,31.3733333 19.5866667,31.0266667 C19.4133333,31.0266667 19.24,30.68 19.24,30.68 C19.24,30.68 19.4133333,30.3333333 19.4133333,30.16 C19.4133333,29.9866667 19.24,29.8133333 19.24,29.64 C19.0666667,28.9466667 18.5466667,28.2533333 18.0266667,27.7333333 C17.8533333,27.56 17.5066667,27.3866667 17.3333333,27.2133333 C17.16,27.04 17.3333333,26.8666667 17.16,26.6933333 C16.9866667,26.52 16.2933333,26.3466667 16.2933333,26 L16.12,26 L15.4266667,25.3066667 C15.2533333,25.1333333 15.2533333,24.7866667 15.08,24.6133333 C14.9066667,24.44 14.9066667,23.92 14.7333333,23.92 C14.56,23.92 14.04,23.7466667 13.8666667,23.5733333 L13.8666667,23.7466667 C13.8666667,24.0933333 14.04,24.44 14.2133333,24.7866667 C14.3866667,25.1333333 14.56,25.1333333 14.9066667,25.3066667 C15.08,25.48 15.2533333,25.8266667 15.2533333,26 C15.4266667,26.52 15.7733333,26.6933333 15.9466667,27.04 C15.9466667,27.56 16.2933333,27.9066667 16.64,28.2533333 C16.8133333,28.08 16.9866667,28.4266667 16.9866667,28.6 C16.9866667,28.7733333 16.8133333,28.9466667 16.8133333,28.9466667 C16.64,28.7733333 16.64,28.6 16.4666667,28.4266667 C16.12,28.4266667 15.9466667,27.9066667 15.6,27.7333333 C15.2533333,27.56 15.4266667,27.7333333 15.4266667,27.56 L15.4266667,27.04 C15.4266667,26.8666667 15.08,26.52 14.9066667,26.3466667 C14.7333333,26.1733333 14.04,26.3466667 13.8666667,26 C14.04,26 14.3866667,26 14.2133333,25.8266667 C14.04,25.48 13.6933333,25.1333333 13.1733333,24.7866667 C13,24.6133333 13,24.0933333 12.8266667,23.92 C12.6533333,23.5733333 12.48,23.4 12.3066667,23.0533333 L12.3066667,22.88 C11.7866667,22.36 11.0933333,21.84 10.4,21.84 C10.2266667,21.84 10.2266667,21.4933333 10.2266667,21.4933333 C10.0533333,20.8 9.53333333,21.1466667 9.70666667,20.4533333 C9.36,20.4533333 9.01333333,19.5866667 8.66666667,19.0666667 C8.66666667,18.8933333 8.84,18.72 8.84,18.72 C8.66666667,18.3733333 8.66666667,18.0266667 8.66666667,17.68 L8.66666667,16.9866667 C13.8666667,10.0533333 21.1466667,5.37333333 29.2933333,3.98666667 L29.2933333,3.98666667 Z" id="形状" fill="#000000" fill-rule="nonzero"></path>
                            </g>
                            <g transform="translate(0.000000, 162.933333)">
                                <path d="M34.6666667,0 C15.6,0 0,15.6 0,34.6666667 C0,53.7333333 15.6,69.3333333 34.6666667,69.3333333 C53.7333333,69.3333333 69.3333333,53.7333333 69.3333333,34.6666667 C69.3333333,15.6 53.7333333,0 34.6666667,0 Z M65.3466667,39.6933333 L65.1733333,39.52 L63.6133333,37.96 L63.2666667,37.6133333 C63.2666667,37.0933333 63.0933333,36.92 63.2666667,36.7466667 C63.44,36.5733333 62.7466667,35.7066667 62.5733333,35.36 C63.2666667,34.6666667 63.7866667,33.8 63.7866667,32.9333333 C63.6133333,31.72 63.2666667,30.5066667 62.92,29.4666667 C62.92,28.7733333 63.44,28.6 63.6133333,28.08 C63.7866667,27.3866667 64.1333333,26.52 64.3066667,25.8266667 C65.8666667,30.16 66.2133333,35.0133333 65.3466667,39.6933333 L65.3466667,39.6933333 Z M54.6,10.92 C54.2533333,10.92 54.6,11.44 54.08,11.2666667 C53.9066667,11.2666667 53.9066667,11.2666667 53.9066667,11.0933333 L53.56,11.0933333 C53.2133333,10.92 53.04,10.5733333 52.6933333,10.5733333 L52,10.5733333 C51.8266667,10.5733333 52,10.4 51.6533333,10.2266667 C51.3066667,10.0533333 51.48,10.0533333 51.48,10.0533333 C50.96,9.88 50.6133333,9.36 50.44,9.01333333 C50.44,8.84 50.44,9.01333333 50.6133333,8.84 C50.2666667,8.66666667 50.2666667,8.84 50.0933333,8.66666667 C49.92,8.49333333 49.92,8.49333333 49.92,8.32 C49.92,8.14666667 49.2266667,7.97333333 49.2266667,7.8 C49.2266667,7.62666667 49.2266667,7.8 49.4,7.62666667 L49.0533333,7.62666667 L49.0533333,7.45333333 C49.2266667,7.28 49.4,7.28 49.5733333,7.28 C51.3066667,8.32 53.04,9.36 54.6,10.92 C54.6,10.7466667 54.6,10.92 54.6,10.92 L54.6,10.92 Z M43.5066667,6.24 L43.3333333,6.24 L43.16,6.06666667 C42.64,5.89333333 42.2933333,5.89333333 41.7733333,5.72 C41.2533333,5.54666667 39.8666667,5.54666667 40.2133333,5.2 C39.52,5.02666667 39.1733333,4.85333333 38.6533333,4.68 C38.48,4.68 38.48,4.85333333 38.3066667,4.85333333 L37.96,4.85333333 C37.7866667,4.85333333 37.6133333,5.02666667 37.2666667,4.85333333 C36.92,4.68 36.4,4.68 36.4,4.50666667 C36.4,4.33333333 36.92,4.33333333 37.2666667,4.33333333 L39,4.33333333 L38.6533333,4.16 L39.1733333,4.16 C39.3466667,4.16 39.52,3.98666667 39.6933333,3.98666667 C40.56,4.16 41.6,4.33333333 42.4666667,4.50666667 L42.8133333,4.50666667 L42.4666667,4.50666667 L42.4666667,4.68 L42.64,4.68 C42.8133333,4.85333333 42.9866667,5.02666667 43.16,5.02666667 C43.5066667,5.02666667 43.68,5.02666667 43.68,5.2 L44.0266667,5.2 L44.0266667,5.37333333 L44.3733333,5.54666667 C44.3733333,5.54666667 44.2,5.72 44.2,5.89333333 C43.5066667,5.72 42.9866667,5.54666667 42.2933333,5.37333333 L41.9466667,5.37333333 C42.2933333,5.72 43.3333333,5.89333333 43.5066667,6.24 L43.5066667,6.24 Z M33.1066667,3.81333333 L32.4133333,3.81333333 C32.24,3.81333333 31.8933333,3.64 31.72,3.64 C32.5866667,3.64 33.4533333,3.46666667 34.32,3.46666667 C33.9733333,3.64 33.4533333,3.81333333 33.28,3.81333333 L33.1066667,3.81333333 L33.1066667,3.81333333 Z M31.5466667,3.81333333 C31.5466667,3.98666667 30.8533333,3.98666667 30.5066667,3.98666667 C30.16,3.98666667 29.9866667,3.98666667 29.64,3.81333333 C30.3333333,3.64 30.8533333,3.64 31.5466667,3.46666667 L31.5466667,3.81333333 Z M43.5066667,4.85333333 L44.72,5.2 L44.5466667,5.2 C44.2,5.2 43.8533333,5.02666667 43.5066667,4.85333333 Z M29.2933333,3.98666667 C29.8133333,4.16 30.3333333,4.16 30.8533333,4.16 L30.8533333,4.33333333 C30.5066667,4.50666667 30.16,4.68 29.8133333,4.68 L29.2933333,4.68 C29.12,4.68 29.2933333,5.02666667 28.7733333,4.85333333 C27.04,4.68 27.7333333,4.85333333 27.56,4.85333333 C27.9066667,4.85333333 28.6,4.85333333 28.6,5.02666667 C28.6,5.2 28.2533333,5.02666667 27.9066667,5.2 C27.7333333,5.37333333 27.3866667,5.54666667 27.2133333,5.72 C26.6933333,5.89333333 26.52,6.41333333 26.3466667,6.93333333 L26.3466667,7.45333333 C26.52,7.45333333 26.6933333,7.28 26.8666667,7.28 C27.04,7.28 27.56,7.97333333 27.7333333,8.14666667 C28.08,8.14666667 28.2533333,7.97333333 28.6,7.97333333 C28.9466667,7.97333333 29.2933333,8.14666667 29.4666667,8.14666667 C30.3333333,8.32 31.2,8.49333333 32.0666667,8.84 C32.5866667,8.84 32.9333333,9.01333333 33.4533333,9.01333333 C33.9733333,9.01333333 34.1466667,9.53333333 34.1466667,9.88 C34.1466667,10.2266667 35.0133333,10.7466667 35.5333333,11.0933333 L36.2266667,11.0933333 C36.2266667,10.92 36.4,10.7466667 36.5733333,10.5733333 C36.2266667,10.2266667 36.5733333,9.70666667 35.7066667,9.36 C36.2266667,9.36 37.44,8.84 37.44,8.49333333 C37.44,8.14666667 37.6133333,7.8 37.2666667,7.62666667 C36.92,7.45333333 36.5733333,7.62666667 36.4,7.28 C36.7466667,7.28 37.2666667,7.10666667 37.0933333,6.76 C36.92,6.41333333 36.4,6.41333333 36.5733333,6.24 C37.2666667,6.06666667 36.5733333,5.89333333 36.5733333,5.72 C36.5733333,5.54666667 36.92,5.37333333 37.2666667,5.37333333 C37.7866667,5.37333333 38.1333333,5.54666667 38.8266667,5.72 L39.3466667,5.72 C39.8666667,5.72 39.8666667,5.89333333 40.3866667,6.06666667 C40.3866667,6.41333333 41.4266667,6.41333333 41.6,6.58666667 C41.7733333,6.93333333 41.6,7.45333333 41.9466667,7.45333333 C42.2933333,7.45333333 42.4666667,7.97333333 42.8133333,7.97333333 C43.16,7.97333333 43.16,7.8 43.5066667,7.8 C43.8533333,7.8 44.2,7.62666667 44.0266667,7.45333333 C43.8533333,7.28 44.3733333,7.28 44.3733333,7.10666667 C44.5466667,7.10666667 44.5466667,7.28 44.72,7.28 C44.8933333,7.62666667 45.5866667,7.8 45.4133333,7.97333333 C45.24,8.14666667 45.9333333,8.49333333 46.1066667,8.49333333 C46.28,8.49333333 46.28,8.66666667 46.28,8.84 C46.28,9.01333333 46.1066667,9.01333333 46.1066667,9.01333333 C46.4533333,9.18666667 46.8,9.36 47.1466667,9.36 C47.1466667,9.88 48.1866667,10.0533333 48.7066667,10.0533333 L48.88,10.2266667 C48.88,10.2266667 47.84,10.4 47.32,10.5733333 L47.4933333,10.5733333 C48.0133333,10.5733333 48.7066667,10.5733333 49.2266667,10.4 L49.2266667,10.5733333 C49.2266667,10.5733333 49.2266667,10.7466667 49.4,10.7466667 C49.5733333,10.92 49.7466667,11.0933333 49.7466667,11.44 C49.7466667,11.7866667 48.36,11.6133333 48.0133333,11.96 C47.4933333,12.48 46.6266667,12.1333333 45.5866667,11.96 C44.8933333,11.7866667 44.2,11.7866667 43.68,11.96 C43.16,12.1333333 43.3333333,12.3066667 43.16,12.48 C42.9866667,12.6533333 42.2933333,12.6533333 42.12,13.1733333 C42.8133333,13.1733333 43.16,12.6533333 44.0266667,12.6533333 C44.5466667,12.6533333 45.0666667,12.6533333 45.0666667,13 C45.0666667,13.3466667 44.3733333,13.3466667 44.2,13.52 L44.72,13.52 C44.72,14.04 45.76,14.56 46.28,14.56 C46.4533333,14.56 46.9733333,14.56 46.9733333,14.9066667 C46.4533333,15.08 46.1066667,15.2533333 45.5866667,15.4266667 C45.24,15.6 44.72,15.9466667 44.72,15.9466667 C44.5466667,15.9466667 44.5466667,15.7733333 44.3733333,15.6 C44.3733333,15.2533333 45.0666667,14.9066667 45.5866667,14.9066667 C45.24,14.9066667 45.24,14.9066667 45.24,14.56 C44.8933333,14.56 44.8933333,14.7333333 44.72,14.9066667 L43.68,14.9066667 C43.68,14.9066667 43.68,15.08 43.8533333,15.08 C43.5066667,15.4266667 43.3333333,15.6 42.9866667,15.6 C42.8133333,15.6 42.64,15.6 42.4666667,15.7733333 C42.12,16.12 41.4266667,15.7733333 41.4266667,16.4666667 L41.4266667,16.64 L41.6,16.9866667 L41.7733333,16.8133333 L41.7733333,16.9866667 L41.08,16.9866667 C40.56,17.16 39.8666667,17.16 39.52,17.3333333 L40.3866667,17.3333333 L39.3466667,17.3333333 L39.1733333,17.5066667 L39.3466667,17.68 C39.3466667,17.68 38.8266667,18.5466667 38.6533333,18.5466667 C38.48,18.5466667 38.48,18.3733333 38.48,18.3733333 L38.3066667,18.5466667 C38.3066667,18.72 38.48,18.72 38.48,18.8933333 C38.3066667,19.24 38.1333333,19.4133333 37.96,19.76 L37.96,19.4133333 C37.96,19.4133333 37.7866667,18.8933333 37.7866667,18.72 L37.7866667,18.8933333 C37.7866667,19.0666667 37.96,19.4133333 37.96,19.5866667 L37.96,19.9333333 C37.96,20.1066667 38.1333333,19.9333333 38.1333333,19.9333333 L38.1333333,20.1066667 C38.1333333,20.1066667 37.96,20.28 37.7866667,20.28 C37.7866667,20.4533333 37.96,20.4533333 38.1333333,20.4533333 C38.1333333,20.6266667 37.96,20.6266667 37.7866667,20.6266667 C37.6133333,20.6266667 37.7866667,20.8 37.7866667,20.8 L37.96,20.9733333 L37.7866667,21.1466667 C37.7866667,21.1466667 37.44,21.32 37.2666667,21.32 C37.0933333,21.32 36.92,21.4933333 36.92,21.4933333 C35.88,22.0133333 34.6666667,22.0133333 34.6666667,23.5733333 C34.6666667,24.2666667 35.36,24.44 35.36,25.1333333 L35.36,25.3066667 C35.36,25.48 35.7066667,25.8266667 35.7066667,26.1733333 C35.7066667,26.52 35.5333333,27.04 35.1866667,27.04 C34.84,27.04 34.84,26.6933333 34.6666667,26.52 C34.32,26.3466667 34.1466667,26 33.9733333,25.8266667 C33.6266667,25.1333333 33.9733333,23.92 32.9333333,23.92 C32.76,23.92 32.5866667,24.2666667 32.4133333,24.2666667 C31.8933333,24.2666667 31.72,23.7466667 31.2,23.7466667 C30.68,23.7466667 30.68,23.92 30.68,23.92 L30.5066667,23.7466667 C30.16,23.7466667 29.64,23.7466667 29.2933333,23.92 L29.64,23.92 C29.64,24.2666667 29.4666667,24.44 29.64,24.6133333 C28.9466667,24.96 28.4266667,24.2666667 27.9066667,24.2666667 C27.7333333,24.2666667 27.7333333,24.44 27.56,24.44 L27.04,24.44 C26.3466667,24.44 26,24.96 25.8266667,25.1333333 C25.6533333,25.3066667 25.48,25.1333333 25.1333333,25.3066667 C24.6133333,25.48 24.2666667,26 24.2666667,26.52 L24.44,26.6933333 C24.44,26.8666667 24.44,26.8666667 24.6133333,27.04 C24.6133333,27.3866667 24.44,27.56 24.44,27.9066667 L24.44,29.9866667 C24.6133333,30.16 24.7866667,30.3333333 24.96,30.68 C25.3066667,31.0266667 25.3066667,31.3733333 26,31.5466667 C26.1733333,31.5466667 26.1733333,31.72 26.3466667,31.72 C26.8666667,31.72 27.2133333,31.3733333 27.56,31.3733333 C27.7333333,31.3733333 27.9066667,31.3733333 28.08,31.5466667 C28.2533333,31.5466667 28.4266667,31.2 28.4266667,31.2 C28.4266667,31.2 28.9466667,30.68 28.9466667,30.3333333 C28.9466667,29.64 29.8133333,29.64 30.5066667,29.64 L31.2,29.64 L31.2,29.8133333 C31.2,29.8133333 30.8533333,30.5066667 30.8533333,30.8533333 C30.8533333,31.2 30.68,31.3733333 30.5066667,31.5466667 L30.5066667,31.3733333 L30.5066667,32.4133333 C30.5066667,32.76 30.16,32.76 30.16,32.9333333 L30.16,33.1066667 C30.16,33.28 30.3333333,33.28 30.5066667,33.28 C31.3733333,33.28 31.8933333,33.1066667 32.76,33.1066667 C33.6266667,33.1066667 33.4533333,33.4533333 33.8,33.6266667 L33.8,33.9733333 C33.8,34.32 33.8,34.84 33.6266667,35.1866667 L33.6266667,36.5733333 C33.6266667,37.0933333 34.1466667,37.2666667 34.4933333,37.44 C34.84,37.6133333 34.6666667,37.96 35.1866667,37.96 C35.7066667,37.96 36.0533333,37.6133333 36.5733333,37.44 C37.0933333,37.2666667 37.2666667,38.1333333 37.6133333,38.3066667 L37.44,38.48 L37.6133333,38.3066667 L37.96,38.3066667 L37.96,38.1333333 L38.1333333,37.96 C38.1333333,37.7866667 38.3066667,37.6133333 38.48,37.6133333 C38.6533333,37.6133333 38.6533333,37.2666667 38.6533333,37.0933333 C38.6533333,36.92 39,36.7466667 39.3466667,36.5733333 L40.9066667,36.0533333 C41.2533333,35.88 41.2533333,35.7066667 41.6,35.7066667 C41.9466667,35.7066667 41.7733333,35.88 41.7733333,35.88 C41.7733333,36.0533333 41.6,36.0533333 41.6,36.0533333 C41.4266667,36.4 41.4266667,36.5733333 41.4266667,36.92 C41.4266667,37.0933333 41.4266667,37.6133333 41.7733333,37.6133333 C42.12,37.6133333 41.9466667,37.2666667 41.9466667,37.2666667 C41.9466667,37.2666667 41.6,36.92 41.7733333,36.5733333 C41.9466667,36.2266667 42.12,36.4 42.2933333,36.2266667 L42.8133333,36.2266667 C42.8133333,36.0533333 42.2933333,36.0533333 42.4666667,35.88 L42.8133333,35.88 C42.8133333,36.2266667 43.5066667,36.4 43.68,36.4 C43.68,36.5733333 43.8533333,36.7466667 43.8533333,36.7466667 L45.0666667,36.7466667 C45.0666667,36.92 45.4133333,36.92 45.5866667,36.92 C45.76,36.92 46.1066667,36.92 46.28,36.5733333 C46.4533333,36.5733333 46.6266667,36.5733333 46.8,36.4 L47.32,36.4 L46.9733333,36.4 L46.9733333,36.5733333 C46.9733333,36.5733333 47.4933333,36.92 47.84,37.0933333 C48.1866667,37.2666667 48.0133333,37.44 48.1866667,37.7866667 L48.5333333,37.7866667 C48.88,38.1333333 49.0533333,38.1333333 49.4,38.6533333 C49.4,38.6533333 49.5733333,38.8266667 49.7466667,38.8266667 C49.92,39.3466667 50.6133333,39.3466667 51.3066667,39.3466667 L51.8266667,39.3466667 C52,39.52 52.1733333,39.52 52.52,39.52 L52.6933333,39.52 C53.04,39.52 53.3866667,40.2133333 53.7333333,40.2133333 C53.7333333,40.56 53.9066667,41.08 54.08,41.4266667 C54.08,41.6 54.4266667,41.6 54.4266667,41.7733333 C53.9066667,42.2933333 53.56,42.8133333 53.3866667,43.5066667 C53.3866667,43.68 53.56,43.68 53.56,43.68 C53.7333333,43.68 53.9066667,43.8533333 53.9066667,44.0266667 L54.4266667,44.0266667 L54.4266667,44.2 L54.6,44.0266667 C54.6,44.0266667 54.9466667,43.3333333 55.2933333,43.3333333 C55.64,43.3333333 56.16,43.5066667 56.5066667,43.68 C56.68,43.68 56.8533333,43.68 56.8533333,43.8533333 L56.8533333,44.3733333 L57.0266667,44.3733333 C57.2,44.3733333 57.2,44.2 57.3733333,44.2 C57.5466667,44.2 57.72,44.3733333 58.0666667,44.3733333 L58.76,44.2 C58.9333333,44.2 59.28,44.3733333 59.4533333,44.3733333 C59.6266667,44.72 59.8,44.8933333 60.1466667,45.0666667 L60.6666667,45.0666667 C60.84,45.0666667 61.0133333,45.4133333 61.0133333,45.76 C60.84,46.8 60.32,47.84 59.6266667,48.5333333 L59.28,48.88 L58.76,49.4 C58.4133333,49.7466667 58.76,49.7466667 58.76,50.2666667 C58.76,50.7866667 58.4133333,51.48 58.4133333,51.6533333 C58.4133333,51.8266667 58.4133333,51.8266667 58.24,51.8266667 L57.8933333,52.1733333 C57.8933333,52.3466667 57.72,52.52 57.72,52.6933333 C57.3733333,53.04 57.3733333,53.2133333 57.0266667,53.56 C56.68,53.9066667 56.8533333,53.9066667 56.8533333,53.9066667 C56.68,54.2533333 56.3333333,54.4266667 56.16,54.4266667 C55.8133333,54.4266667 55.64,54.6 55.2933333,54.6 C55.12,54.6 55.12,54.7733333 55.12,54.7733333 C54.6,55.2933333 54.2533333,55.12 53.9066667,55.64 C53.56,56.16 53.56,55.9866667 53.3866667,55.9866667 C53.2133333,55.9866667 53.2133333,55.9866667 53.2133333,56.16 C53.2133333,56.3333333 53.04,57.0266667 53.04,57.3733333 C52.6933333,57.5466667 52.52,57.8933333 52.1733333,58.24 C52,58.4133333 52.1733333,58.0666667 52,58.4133333 C51.8266667,58.76 51.1333333,59.28 50.7866667,59.6266667 C50.44,59.9733333 50.0933333,60.84 49.2266667,61.0133333 L47.6666667,61.0133333 C47.6666667,61.0133333 47.84,61.1866667 48.0133333,61.1866667 C48.1866667,61.1866667 48.0133333,61.36 48.1866667,61.5333333 C48.36,61.7066667 48.5333333,61.5333333 48.36,61.7066667 C48.1866667,61.88 48.36,61.88 48.1866667,62.0533333 L47.6666667,62.5733333 C47.32,62.7466667 46.9733333,62.92 46.4533333,63.0933333 C46.1066667,63.2666667 45.5866667,63.0933333 45.4133333,63.2666667 C45.24,63.44 45.4133333,63.6133333 45.24,63.7866667 L44.5466667,64.1333333 L44.0266667,64.1333333 C43.8533333,64.1333333 43.8533333,64.1333333 43.8533333,64.3066667 C42.4666667,64.6533333 41.08,65 39.52,65.1733333 L39.6933333,64.8266667 L39.6933333,64.6533333 L39.52,64.6533333 C39.3466667,64.6533333 39.3466667,64.8266667 39.1733333,64.8266667 C39,64.8266667 39.1733333,64.48 39.1733333,64.3066667 C39.1733333,64.1333333 39.3466667,63.96 39.3466667,63.7866667 C39.3466667,63.6133333 39.52,63.7866667 39.52,63.7866667 C39.52,63.7866667 39.52,63.6133333 39.3466667,63.6133333 L39.3466667,63.0933333 C39.52,62.7466667 39.6933333,62.5733333 39.8666667,62.2266667 C39.8666667,62.0533333 40.04,61.88 40.04,61.88 C40.04,61.88 40.2133333,61.88 40.2133333,61.7066667 C40.3866667,61.36 40.3866667,61.1866667 40.56,60.84 C40.7333333,60.4933333 40.56,60.1466667 40.56,59.8 C40.56,59.4533333 40.7333333,59.28 40.7333333,59.1066667 C40.7333333,58.5866667 41.08,58.24 41.2533333,57.72 L41.2533333,57.5466667 C41.2533333,57.3733333 41.4266667,57.2 41.4266667,57.0266667 L41.4266667,56.3333333 C41.4266667,56.16 41.6,55.64 41.6,55.2933333 L41.6,53.9066667 C41.4266667,53.56 41.08,53.2133333 40.7333333,53.04 C40.3866667,53.04 40.2133333,53.04 39.8666667,52.8666667 C39.6933333,52.6933333 39.52,52.52 39.1733333,52.52 C38.6533333,52.3466667 38.3066667,52.1733333 37.96,51.8266667 C37.7866667,51.6533333 37.96,51.48 37.96,51.3066667 C37.96,51.1333333 37.6133333,50.96 37.6133333,50.6133333 C37.6133333,50.2666667 37.2666667,49.7466667 37.2666667,49.4 L36.7466667,48.36 C36.7466667,48.5333333 36.4,48.5333333 36.4,48.5333333 C36.2266667,48.36 36.2266667,48.1866667 36.2266667,48.0133333 C36.2266667,47.84 36.0533333,47.84 35.88,47.84 C35.5333333,47.6666667 35.36,47.32 35.36,46.9733333 C35.36,46.8 35.5333333,46.4533333 35.5333333,46.28 C35.7066667,45.9333333 36.2266667,45.9333333 36.2266667,45.5866667 C36.0533333,45.4133333 36.0533333,45.5866667 35.88,45.5866667 C35.7066667,45.5866667 35.5333333,45.24 35.5333333,44.8933333 C35.7066667,44.3733333 35.7066667,43.68 35.7066667,43.16 C36.4,43.16 36.5733333,42.64 36.7466667,42.2933333 C36.92,41.9466667 37.6133333,41.9466667 37.7866667,41.4266667 L37.6133333,41.2533333 L37.6133333,40.9066667 C37.6133333,40.7333333 37.44,40.56 37.44,40.3866667 C37.44,40.2133333 37.6133333,40.04 37.6133333,39.8666667 C37.6133333,39.6933333 37.2666667,39.52 37.2666667,39.1733333 L37.2666667,39 L37.0933333,38.8266667 L37.2666667,38.6533333 C37.0933333,38.48 37.0933333,38.1333333 36.92,38.1333333 C36.5733333,38.3066667 36.4,38.48 36.0533333,38.6533333 L36.2266667,38.8266667 C36.2266667,39 36.0533333,39.1733333 35.88,39.1733333 C35.5333333,39.1733333 35.1866667,38.8266667 35.0133333,38.6533333 C34.84,38.48 34.4933333,38.6533333 34.32,38.6533333 C34.1466667,38.6533333 34.1466667,38.6533333 34.1466667,38.48 C33.8,38.48 33.8,38.1333333 33.8,37.96 C33.4533333,37.7866667 33.28,37.6133333 32.9333333,37.44 L32.9333333,37.6133333 L32.76,37.6133333 C32.4133333,37.44 32.5866667,37.0933333 32.5866667,36.7466667 C32.4133333,36.5733333 32.24,36.4 32.0666667,36.4 C31.72,36.0533333 31.3733333,35.88 31.2,35.36 L31.0266667,35.36 C30.8533333,35.36 30.68,35.5333333 30.5066667,35.5333333 C30.16,35.5333333 29.8133333,35.36 29.4666667,35.1866667 C28.9466667,35.0133333 28.7733333,35.1866667 28.2533333,34.84 C27.56,34.4933333 27.3866667,33.6266667 26.6933333,33.28 L26.52,33.28 C26.3466667,33.1066667 26.1733333,33.1066667 26,33.1066667 C25.6533333,33.1066667 25.48,33.4533333 25.1333333,33.4533333 C24.96,33.4533333 24.7866667,33.28 24.6133333,33.28 L24.0933333,33.28 C23.5733333,33.1066667 23.2266667,32.9333333 22.88,32.5866667 C22.7066667,32.4133333 22.5333333,32.5866667 22.1866667,32.5866667 C21.84,32.5866667 21.84,32.24 21.4933333,32.0666667 C21.1466667,31.8933333 20.9733333,32.0666667 20.8,31.8933333 L20.6266667,31.72 C20.28,31.5466667 19.76,31.3733333 19.5866667,31.0266667 C19.4133333,31.0266667 19.24,30.68 19.24,30.68 C19.24,30.68 19.4133333,30.3333333 19.4133333,30.16 C19.4133333,29.9866667 19.24,29.8133333 19.24,29.64 C19.0666667,28.9466667 18.5466667,28.2533333 18.0266667,27.7333333 C17.8533333,27.56 17.5066667,27.3866667 17.3333333,27.2133333 C17.16,27.04 17.3333333,26.8666667 17.16,26.6933333 C16.9866667,26.52 16.2933333,26.3466667 16.2933333,26 L16.12,26 L15.4266667,25.3066667 C15.2533333,25.1333333 15.2533333,24.7866667 15.08,24.6133333 C14.9066667,24.44 14.9066667,23.92 14.7333333,23.92 C14.56,23.92 14.04,23.7466667 13.8666667,23.5733333 L13.8666667,23.7466667 C13.8666667,24.0933333 14.04,24.44 14.2133333,24.7866667 C14.3866667,25.1333333 14.56,25.1333333 14.9066667,25.3066667 C15.08,25.48 15.2533333,25.8266667 15.2533333,26 C15.4266667,26.52 15.7733333,26.6933333 15.9466667,27.04 C15.9466667,27.56 16.2933333,27.9066667 16.64,28.2533333 C16.8133333,28.08 16.9866667,28.4266667 16.9866667,28.6 C16.9866667,28.7733333 16.8133333,28.9466667 16.8133333,28.9466667 C16.64,28.7733333 16.64,28.6 16.4666667,28.4266667 C16.12,28.4266667 15.9466667,27.9066667 15.6,27.7333333 C15.2533333,27.56 15.4266667,27.7333333 15.4266667,27.56 L15.4266667,27.04 C15.4266667,26.8666667 15.08,26.52 14.9066667,26.3466667 C14.7333333,26.1733333 14.04,26.3466667 13.8666667,26 C14.04,26 14.3866667,26 14.2133333,25.8266667 C14.04,25.48 13.6933333,25.1333333 13.1733333,24.7866667 C13,24.6133333 13,24.0933333 12.8266667,23.92 C12.6533333,23.5733333 12.48,23.4 12.3066667,23.0533333 L12.3066667,22.88 C11.7866667,22.36 11.0933333,21.84 10.4,21.84 C10.2266667,21.84 10.2266667,21.4933333 10.2266667,21.4933333 C10.0533333,20.8 9.53333333,21.1466667 9.70666667,20.4533333 C9.36,20.4533333 9.01333333,19.5866667 8.66666667,19.0666667 C8.66666667,18.8933333 8.84,18.72 8.84,18.72 C8.66666667,18.3733333 8.66666667,18.0266667 8.66666667,17.68 L8.66666667,16.9866667 C13.8666667,10.0533333 21.1466667,5.37333333 29.2933333,3.98666667 L29.2933333,3.98666667 Z" id="形状" fill="#000000" fill-rule="nonzero"></path>
                            </g>
                        </g>
                    </g>
                    <polygon fill="#FFFFFF" opacity="0.115373884" mask="url(#mask-13)" points="0 -37.9096774 251.826991 -37.9096774 0 293.510937"></polygon>
                </g>
            </g>
            <g id="盾牌备份-2" transform="translate(340.000000, 152.000000)">
                <path d="M115.350554,16.4732326 C114.02214,16.5472592 112.767528,16.5472592 111.439114,16.5472592 C78.0811808,16.5472592 63.3948339,1.5938853 63.3210332,1.4458321 C61.6236162,-0.404832987 58.7453875,-0.47885959 56.900369,1.22375229 L56.6789668,1.4458321 C56.5313653,1.5938853 41.0332103,17.7316848 4.64944649,16.4732326 C2.1402214,16.399206 0.073800738,18.3238977 0,20.8408022 L0,84.2075746 C0,101.973959 6.05166052,127.883271 58.3763838,147.7224 C59.4095941,148.092533 60.5904059,148.092533 61.6236162,147.7224 C113.948339,127.883271 120,101.973959 120,84.2075746 L120,20.9888554 C120,18.4719509 118.00738,16.4732326 115.498155,16.4732326 L115.350554,16.4732326 L115.350554,16.4732326 Z" id="路径" fill="#1BC9A2" fill-rule="nonzero"></path>
                <path d="M60,39 C64.1838488,39 67.5755284,42.3916796 67.5755284,46.5755284 C67.5755284,46.7131374 67.5717789,46.8507209 67.5642841,46.9881257 L65.2723225,89.0074215 C65.1195816,91.8076712 62.8044123,94 60,94 C57.1955877,94 54.8804184,91.8076712 54.7276775,89.0074215 L52.4357159,46.9881257 C52.2078447,42.8104869 55.409764,39.2391155 59.5874027,39.0112443 C59.7248075,39.0037495 59.862391,39 60,39 Z" id="矩形" fill="#FFFFFF"></path>
                <rect id="矩形备份" fill="#FFFFFF" x="55" y="100" width="10" height="10" rx="5"></rect>
            </g>
        </g>
    </g>
</svg>