<svg width="26" height="14" viewBox="0 0 26 14" fill="none" xmlns="http://www.w3.org/2000/svg">
<path fill-rule="evenodd" clip-rule="evenodd" d="M0 2C0 0.89543 0.895431 0 2 0H24C25.1046 0 26 0.895431 26 2V12C26 13.1046 25.1046 14 24 14H2C0.89543 14 0 13.1046 0 12V2Z" fill="#01BC8D" fill-opacity="0.12"/>
<path d="M8.91895 11H7.82995L4.21095 5.48897V11H3.02295V3.16797H4.11195L7.73095 8.66797V3.16797H8.91895V11Z" fill="#01BC8D"/>
<path d="M15.2734 8.53597H11.6544C11.6544 9.0273 11.7754 9.4123 12.0174 9.69097C12.2668 9.9623 12.6188 10.098 13.0734 10.098C13.3741 10.098 13.6234 10.054 13.8214 9.96597C14.0194 9.87797 14.2211 9.7313 14.4264 9.52597L15.1414 10.197C14.8408 10.4976 14.5328 10.7176 14.2174 10.857C13.9094 10.9963 13.5208 11.066 13.0514 11.066C12.2888 11.066 11.6801 10.8386 11.2254 10.384C10.7708 9.9293 10.5434 9.2033 10.5434 8.20597C10.5434 7.3113 10.7561 6.61464 11.1814 6.11597C11.6068 5.60997 12.1824 5.35697 12.9084 5.35697C13.6491 5.35697 14.2284 5.60264 14.6464 6.09397C15.0644 6.5853 15.2734 7.24164 15.2734 8.06297V8.53597ZM14.1624 7.75497C14.1404 7.42497 14.0891 7.17197 14.0084 6.99597C13.7958 6.52664 13.4291 6.29197 12.9084 6.29197C12.3804 6.29197 12.0101 6.52664 11.7974 6.99597C11.7094 7.18664 11.6618 7.43964 11.6544 7.75497H14.1624Z" fill="#01BC8D"/>
<path d="M23.8994 5.42297L22.1614 11H21.2044L19.8954 7.10597L18.5974 11H17.6294L15.9024 5.42297H17.0904L18.1684 9.34997L19.4664 5.42297H20.3354L21.6224 9.34997L22.7004 5.42297H23.8994Z" fill="#01BC8D"/>
</svg>
