<?xml version="1.0" encoding="UTF-8"?>
<svg width="43px" height="43px" viewBox="0 0 43 43" version="1.1" xmlns="http://www.w3.org/2000/svg" xmlns:xlink="http://www.w3.org/1999/xlink">
    <!-- Generator: Sketch 52.2 (67145) - http://www.bohemiancoding.com/sketch -->
    <title>沙漏倒计时</title>
    <desc>Created with Sketch.</desc>
    <defs>
        <linearGradient x1="100%" y1="50%" x2="0%" y2="50%" id="linearGradient-1">
            <stop stop-color="#394353" offset="0%"></stop>
            <stop stop-color="#364255" offset="100%"></stop>
        </linearGradient>
    </defs>
    <g id="1680" stroke="none" stroke-width="1" fill="none" fill-rule="evenodd">
        <g id="暂停交易状态" transform="translate(-689.000000, -610.000000)">
            <g id="Group-3" transform="translate(344.000000, 468.000000)">
                <g id="Group-3-Copy-6">
                    <g id="沙漏倒计时" transform="translate(345.000000, 142.000000)">
                        <path d="M32.869125,42.437625 L9.595125,42.437625 C4.309125,42.437625 0.031125,38.153625 0.031125,32.873625 L0.031125,9.599625 C0.031125,4.319625 4.309125,0.035625 9.595125,0.035625 L32.869125,0.035625 C38.149125,0.035625 42.433125,4.319625 42.433125,9.599625 L42.433125,32.873625 C42.433125,38.159625 38.149125,42.437625 32.869125,42.437625 Z" id="Path" fill="#2D333B"></path>
                        <path d="M30.019125,32.345625 C29.941125,31.847625 29.839125,31.361625 29.725125,30.893625 C29.671125,30.671625 29.599125,30.461625 29.533125,30.245625 C29.449125,29.963625 29.371125,29.681625 29.269125,29.411625 C29.179125,29.165625 29.083125,28.937625 28.981125,28.697625 C28.885125,28.475625 28.795125,28.247625 28.693125,28.031625 C28.579125,27.791625 28.453125,27.557625 28.327125,27.329625 C28.225125,27.143625 28.117125,26.957625 28.009125,26.777625 C27.871125,26.549625 27.721125,26.333625 27.571125,26.117625 C27.457125,25.955625 27.343125,25.805625 27.223125,25.655625 C27.061125,25.451625 26.893125,25.247625 26.719125,25.055625 C26.593125,24.923625 26.467125,24.797625 26.341125,24.671625 C26.161125,24.491625 25.975125,24.317625 25.783125,24.155625 C25.645125,24.041625 25.501125,23.945625 25.363125,23.843625 C25.165125,23.699625 24.973125,23.549625 24.769125,23.429625 C24.757125,23.423625 24.745125,23.411625 24.733125,23.405625 C24.109125,23.033625 23.731125,22.373625 23.731125,21.647625 L23.731125,20.825625 C23.731125,20.099625 24.115125,19.439625 24.733125,19.067625 C24.745125,19.061625 24.757125,19.049625 24.769125,19.043625 C24.973125,18.917625 25.165125,18.773625 25.363125,18.629625 C25.507125,18.527625 25.645125,18.431625 25.783125,18.317625 C25.975125,18.155625 26.155125,17.981625 26.341125,17.801625 C26.467125,17.675625 26.599125,17.549625 26.725125,17.417625 C26.899125,17.225625 27.067125,17.027625 27.229125,16.823625 C27.349125,16.673625 27.463125,16.517625 27.577125,16.361625 C27.727125,16.151625 27.877125,15.929625 28.015125,15.701625 C28.129125,15.521625 28.231125,15.335625 28.333125,15.149625 C28.459125,14.921625 28.585125,14.687625 28.699125,14.447625 C28.801125,14.231625 28.897125,14.009625 28.987125,13.781625 C29.083125,13.547625 29.185125,13.313625 29.275125,13.067625 C29.371125,12.797625 29.455125,12.515625 29.539125,12.233625 C29.605125,12.017625 29.677125,11.807625 29.731125,11.585625 C29.851125,11.111625 29.947125,10.625625 30.025125,10.133625 C30.031125,10.091625 30.043125,10.055625 30.049125,10.013625 C30.241125,8.759625 29.281125,7.619625 28.009125,7.619625 L14.455125,7.619625 C13.183125,7.619625 12.223125,8.759625 12.415125,10.013625 C12.421125,10.055625 12.433125,10.091625 12.439125,10.133625 C12.517125,10.631625 12.619125,11.117625 12.733125,11.591625 C12.787125,11.813625 12.859125,12.023625 12.925125,12.239625 C13.009125,12.521625 13.087125,12.803625 13.189125,13.073625 C13.279125,13.319625 13.375125,13.547625 13.477125,13.787625 C13.573125,14.009625 13.663125,14.237625 13.765125,14.453625 C13.879125,14.693625 14.005125,14.927625 14.131125,15.155625 C14.233125,15.341625 14.341125,15.527625 14.449125,15.707625 C14.587125,15.935625 14.737125,16.151625 14.887125,16.367625 C15.001125,16.529625 15.115125,16.679625 15.235125,16.829625 C15.397125,17.033625 15.565125,17.237625 15.739125,17.423625 C15.865125,17.555625 15.991125,17.681625 16.123125,17.807625 C16.303125,17.987625 16.489125,18.161625 16.681125,18.323625 C16.819125,18.437625 16.963125,18.533625 17.101125,18.635625 C17.299125,18.779625 17.491125,18.929625 17.695125,19.049625 C17.707125,19.055625 17.719125,19.067625 17.731125,19.073625 C18.355125,19.445625 18.733125,20.105625 18.733125,20.831625 L18.733125,21.653625 C18.733125,22.379625 18.349125,23.039625 17.731125,23.411625 C17.719125,23.417625 17.707125,23.429625 17.695125,23.435625 C17.491125,23.561625 17.299125,23.705625 17.101125,23.849625 C16.963125,23.951625 16.819125,24.047625 16.681125,24.161625 C16.489125,24.323625 16.309125,24.497625 16.123125,24.677625 C15.997125,24.803625 15.865125,24.923625 15.745125,25.061625 C15.571125,25.253625 15.403125,25.451625 15.241125,25.661625 C15.121125,25.811625 15.007125,25.967625 14.893125,26.123625 C14.743125,26.339625 14.593125,26.555625 14.455125,26.783625 C14.347125,26.963625 14.239125,27.149625 14.137125,27.335625 C14.011125,27.563625 13.885125,27.797625 13.771125,28.037625 C13.669125,28.253625 13.573125,28.475625 13.483125,28.703625 C13.387125,28.937625 13.285125,29.171625 13.195125,29.417625 C13.099125,29.687625 13.015125,29.969625 12.931125,30.251625 C12.865125,30.467625 12.793125,30.677625 12.739125,30.899625 C12.619125,31.373625 12.523125,31.859625 12.445125,32.357625 C12.439125,32.399625 12.427125,32.435625 12.421125,32.477625 C12.229125,33.731625 13.189125,34.871625 14.461125,34.871625 L28.009125,34.871625 C29.281125,34.871625 30.241125,33.731625 30.049125,32.477625 C30.037125,32.429625 30.025125,32.387625 30.019125,32.345625 Z" id="Path" fill="#F2F5FA"></path>
                        <path d="M16.447125,32.939625 L26.017125,32.939625 C26.377125,32.939625 26.545125,32.483625 26.263125,32.255625 L21.859125,28.823625 C21.769125,28.751625 21.721125,28.643625 21.721125,28.523625 L21.721125,17.477625 C21.721125,17.369625 21.769125,17.267625 21.847125,17.195625 L24.469125,15.041625 C24.727125,14.801625 24.559125,14.369625 24.205125,14.369625 L18.253125,14.369625 C17.899125,14.369625 17.731125,14.801625 17.989125,15.041625 L20.581125,17.183625 C20.659125,17.255625 20.707125,17.357625 20.707125,17.465625 L20.707125,28.511625 C20.707125,28.625625 20.653125,28.733625 20.569125,28.811625 L16.195125,32.255625 C15.919125,32.489625 16.081125,32.939625 16.447125,32.939625 Z" id="Path" fill="url(#linearGradient-1)"></path>
                    </g>
                </g>
            </g>
        </g>
    </g>
</svg>