<?xml version="1.0" standalone="no"?><!DOCTYPE svg PUBLIC "-//W3C//DTD SVG 1.1//EN" "http://www.w3.org/Graphics/SVG/1.1/DTD/svg11.dtd"><svg t="1656935982429" class="icon" viewBox="0 0 1024 1024" version="1.1" xmlns="http://www.w3.org/2000/svg" p-id="1298" xmlns:xlink="http://www.w3.org/1999/xlink" width="200" height="200"><defs><style type="text/css">@font-face { font-family: feedback-iconfont; src: url("//at.alicdn.com/t/font_1031158_u69w8yhxdu.woff2?t=1630033759944") format("woff2"), url("//at.alicdn.com/t/font_1031158_u69w8yhxdu.woff?t=1630033759944") format("woff"), url("//at.alicdn.com/t/font_1031158_u69w8yhxdu.ttf?t=1630033759944") format("truetype"); }
</style></defs><path d="M640 832a192 192 0 1 0 384 0 192 192 0 0 0-384 0z m131.669333 90.496l-30.165333-30.165333 60.330667-60.330667-60.330667-60.330667 30.165333-30.165333 60.330667 60.330667 60.330667-60.330667 30.165333 30.165333-60.330667 60.330667 60.330667 60.330667-30.165333 30.165333-60.330667-60.330667-60.330667 60.330667z" p-id="1299"></path><path d="M85.333333 42.666667H42.666667v938.666666h555.605333a275.754667 275.754667 0 0 1-36.181333-85.333333H128V128h768v434.090667c30.72 7.253333 59.52 19.626667 85.333333 36.181333V42.666667H85.333333z m725.333334 512.810666V426.666667l-256 256-128-42.666667-213.333334 213.333333h342.144A277.333333 277.333333 0 0 1 810.666667 555.477333zM341.333333 213.333333v128H213.333333V213.333333h128z" p-id="1300"></path></svg>