<?xml version="1.0" standalone="no"?><!DOCTYPE svg PUBLIC "-//W3C//DTD SVG 1.1//EN" "http://www.w3.org/Graphics/SVG/1.1/DTD/svg11.dtd"><svg t="1642990633594" class="icon" viewBox="0 0 1024 1024" version="1.1" xmlns="http://www.w3.org/2000/svg" p-id="6668" xmlns:xlink="http://www.w3.org/1999/xlink" width="200" height="200"><defs><style type="text/css"></style></defs><path d="M512 986.112A474.112 474.112 0 1 1 512 37.888a474.112 474.112 0 0 1 0 948.224z m0-67.754667A406.357333 406.357333 0 1 0 512 105.642667a406.357333 406.357333 0 0 0 0 812.714666z m146.659556-594.944l50.289777 50.289778-146.659555 146.659556 138.24 138.296889-50.232889 50.289777L512 570.709333l-138.353778 138.24-50.289778-50.289777 138.296889-138.24-146.659555-146.716445 50.289778-50.289778L512 470.072889l146.659556-146.659556z" p-id="6669"></path></svg>