<?xml version="1.0" standalone="no"?><!DOCTYPE svg PUBLIC "-//W3C//DTD SVG 1.1//EN" "http://www.w3.org/Graphics/SVG/1.1/DTD/svg11.dtd"><svg t="1746693625168" class="icon" viewBox="0 0 1024 1024" version="1.1" xmlns="http://www.w3.org/2000/svg" p-id="28791" xmlns:xlink="http://www.w3.org/1999/xlink" width="200" height="200"><path d="M213.344 512c0-23.552 19.104-42.656 42.656-42.656h384a42.656 42.656 0 0 1 0 85.312H256A42.656 42.656 0 0 1 213.344 512zM256 640a42.656 42.656 0 0 0 0 85.312h170.656a42.656 42.656 0 0 0 0-85.312H256z" p-id="28792"></path><path d="M602.496 136.832a128 128 0 0 0-181.024 0L280.96 277.344H127.968a85.344 85.344 0 0 0-85.344 85.344v469.344a85.344 85.344 0 0 0 85.344 85.344h768a85.344 85.344 0 0 0 85.344-85.344V362.688a85.344 85.344 0 0 0-85.344-85.344h-152.992l-140.512-140.512z m-120.672 60.352a42.656 42.656 0 0 1 60.352 0l80.16 80.16h-220.64l80.16-80.16zM128 362.656h768V832H128V362.656z" p-id="28793"></path></svg>