<?xml version="1.0" standalone="no"?><!DOCTYPE svg PUBLIC "-//W3C//DTD SVG 1.1//EN" "http://www.w3.org/Graphics/SVG/1.1/DTD/svg11.dtd"><svg t="1746693615378" class="icon" viewBox="0 0 1024 1024" version="1.1" xmlns="http://www.w3.org/2000/svg" p-id="28160" xmlns:xlink="http://www.w3.org/1999/xlink" width="200" height="200"><path d="M42.656 192a128 128 0 0 1 128-128h201.632c30.592 0 60.16 10.944 83.36 30.88l77.824 66.784h293.6a128 128 0 0 1 128 128v174.176a345.28 345.28 0 0 0-85.344-43.744V289.696c0-23.552-19.104-42.656-42.656-42.656h-309.408c-10.208 0-20.064-3.648-27.776-10.304l-89.792-77.088a42.784 42.784 0 0 0-27.776-10.304H170.688c-23.552 0-42.656 19.104-42.656 42.656v618.656c0 23.552 19.104 42.656 42.656 42.656h256.352c9.856 30.528 23.84 59.168 41.28 85.344H170.688a128 128 0 0 1-128-128V192z" p-id="28161"></path><path d="M790.4 500.064a38.4 38.4 0 0 0-68.224 0l-60.416 116.8-129.76 21.344a38.4 38.4 0 0 0-21.056 64.864l92.416 93.536-19.776 129.984a38.4 38.4 0 0 0 55.2 40.096l117.504-58.976 117.504 58.976a38.4 38.4 0 0 0 55.2-40.096l-19.776-129.984 92.416-93.536a38.4 38.4 0 0 0-21.056-64.864l-129.76-21.344-60.416-116.8z m-69.248 169.184l35.136-67.968 35.136 67.968a38.4 38.4 0 0 0 27.872 20.256l75.488 12.416-53.76 54.432c-8.512 8.64-12.48 20.768-10.656 32.768l11.52 75.648-68.384-34.336a38.4 38.4 0 0 0-34.464 0l-68.384 34.336 11.52-75.648a38.368 38.368 0 0 0-10.656-32.768l-53.76-54.432 75.488-12.416a38.4 38.4 0 0 0 27.872-20.256z" p-id="28162"></path></svg>