<?xml version="1.0" standalone="no"?><!DOCTYPE svg PUBLIC "-//W3C//DTD SVG 1.1//EN" "http://www.w3.org/Graphics/SVG/1.1/DTD/svg11.dtd"><svg t="1746693600718" class="icon" viewBox="0 0 1024 1024" version="1.1" xmlns="http://www.w3.org/2000/svg" p-id="27059" xmlns:xlink="http://www.w3.org/1999/xlink" width="200" height="200"><path d="M204.992 774.784a64 64 0 0 1 64-64h483.84a64 64 0 0 1 64 64v135.328a64 64 0 0 1-64 64H268.992a64 64 0 0 1-64-64v-135.328z m85.312 21.344v92.672h441.184v-92.672H290.304z" p-id="27060"></path><path d="M512 32C248.416 32 93.92 213.952 76.352 401.408 72.096 446.688 109.28 480 149.344 480h99.776l61.44 234.016h88.224L337.344 480h131.552v234.016h85.344V480h129.632l-61.44 234.016h88.224L772.096 480h102.592c40.064 0 77.216-33.312 72.992-78.592C930.112 213.952 775.616 32 512.032 32z m0 85.344c210.304 0 328.896 136.832 348.96 277.344H163.072c20.064-140.512 138.656-277.344 348.96-277.344z" p-id="27061"></path></svg>