<?xml version="1.0" standalone="no"?><!DOCTYPE svg PUBLIC "-//W3C//DTD SVG 1.1//EN" "http://www.w3.org/Graphics/SVG/1.1/DTD/svg11.dtd"><svg t="1746693690208" class="icon" viewBox="0 0 1024 1024" version="1.1" xmlns="http://www.w3.org/2000/svg" p-id="33043" xmlns:xlink="http://www.w3.org/1999/xlink" width="200" height="200"><path d="M566.496 277.344v37.568h17.408c69.216 0 122.912 60.32 122.912 122.912a122.56 122.56 0 0 1-15.808 60.352c32.864 21.504 55.68 56.576 55.68 99.648 0 72.96-65.376 122.912-134.24 122.912h-45.952v37.088a42.656 42.656 0 0 1-85.312 0v-37.088h-14.592v37.088a42.656 42.656 0 0 1-85.312 0V720.64a68.16 68.16 0 0 1-3.68-0.384h-57.536a42.656 42.656 0 0 1 0-85.312h21.344v-234.688h-21.344a42.656 42.656 0 0 1 0-85.312h61.216V277.376a42.656 42.656 0 0 1 85.312 0v37.568h14.592V277.376a42.656 42.656 0 0 1 85.312 0z m-106.688 357.568c2.208 0 4.352 0.16 6.464 0.48h51.072a42.976 42.976 0 0 1 12.928 0h82.144c32.576 0 48.896-21.92 48.896-37.568s-16.352-37.568-48.896-37.568h-17.472c-3.648 0.32-7.328 0.48-11.072 0.48h-157.216v74.176h33.152z m-33.152-234.656v74.656h163.296c17.856-2.912 31.488-18.432 31.488-37.088 0-18.144-18.176-37.568-37.568-37.568h-157.216z" p-id="33044"></path><path d="M512 42.656C252.8 42.656 42.656 252.768 42.656 512S252.768 981.344 512 981.344c259.2 0 469.344-210.144 469.344-469.344S771.2 42.656 512 42.656zM128 512C128 299.936 299.936 128 512 128s384 171.936 384 384-171.936 384-384 384S128 724.064 128 512z" p-id="33045"></path></svg>