<?xml version="1.0" standalone="no"?><!DOCTYPE svg PUBLIC "-//W3C//DTD SVG 1.1//EN" "http://www.w3.org/Graphics/SVG/1.1/DTD/svg11.dtd"><svg t="1746693734357" class="icon" viewBox="0 0 1024 1024" version="1.1" xmlns="http://www.w3.org/2000/svg" p-id="35884" xmlns:xlink="http://www.w3.org/1999/xlink" width="200" height="200"><path d="M128 405.344a128 128 0 0 1 128-128h341.344a128 128 0 0 1 0 256H384a42.656 42.656 0 0 0 0 85.312h213.344a213.344 213.344 0 0 0 0-426.688H256a213.344 213.344 0 0 0-160 354.464 42.656 42.656 0 1 0 63.968-56.48 127.36 127.36 0 0 1-32-84.64z" p-id="35885"></path><path d="M426.656 362.656a213.344 213.344 0 0 0 0 426.688H768a213.344 213.344 0 0 0 160-354.464 42.656 42.656 0 1 0-63.968 56.48 128 128 0 0 1-96 212.64H426.688a128 128 0 0 1 0-256h213.344a42.656 42.656 0 0 0 0-85.312h-213.344z" p-id="35886"></path></svg>