<?xml version="1.0" standalone="no"?><!DOCTYPE svg PUBLIC "-//W3C//DTD SVG 1.1//EN" "http://www.w3.org/Graphics/SVG/1.1/DTD/svg11.dtd"><svg t="1746693589477" class="icon" viewBox="0 0 1024 1024" version="1.1" xmlns="http://www.w3.org/2000/svg" p-id="26271" xmlns:xlink="http://www.w3.org/1999/xlink" width="200" height="200"><path d="M76.8 170.656a85.344 85.344 0 0 1 85.344-85.344h448a85.344 85.344 0 0 1 85.344 85.344v426.656a85.344 85.344 0 0 1-85.344 85.344h-96a42.656 42.656 0 0 1 0-85.312H588.8a21.344 21.344 0 0 0 21.344-21.344V192a21.344 21.344 0 0 0-21.344-21.344H183.456A21.344 21.344 0 0 0 162.112 192v384c0 11.776 9.536 21.344 21.344 21.344h49.792a42.656 42.656 0 0 1 0 85.312H162.144A85.344 85.344 0 0 1 76.8 597.312V170.656z" p-id="26272"></path><path d="M328.544 853.344a85.344 85.344 0 0 0 85.344 85.344h448a85.344 85.344 0 0 0 85.344-85.344V426.688a85.344 85.344 0 0 0-85.344-85.344h-74.656a42.656 42.656 0 0 0 0 85.312h53.344c11.776 0 21.344 9.568 21.344 21.344v384a21.344 21.344 0 0 1-21.344 21.344H435.232a21.344 21.344 0 0 1-21.344-21.344V448c0-11.776 9.536-21.344 21.344-21.344h71.104a42.656 42.656 0 0 0 0-85.312h-92.448a85.344 85.344 0 0 0-85.344 85.344v426.656z" p-id="26273"></path></svg>