<?xml version="1.0" standalone="no"?><!DOCTYPE svg PUBLIC "-//W3C//DTD SVG 1.1//EN" "http://www.w3.org/Graphics/SVG/1.1/DTD/svg11.dtd"><svg t="1746693609632" class="icon" viewBox="0 0 1024 1024" version="1.1" xmlns="http://www.w3.org/2000/svg" p-id="27688" xmlns:xlink="http://www.w3.org/1999/xlink" width="200" height="200"><path d="M384 184.8a85.344 85.344 0 0 1 85.344-85.344h85.344a85.344 85.344 0 0 1 85.344 85.344l24.8 138.752h103.2c70.688 0 128 72.96 128 143.68v84.512l42.336 324.864a42.752 42.752 0 0 1-42.336 47.968h-768a42.72 42.72 0 0 1-42.336-47.968l42.336-324.864v-84.512c0-70.688 57.312-143.68 128-143.68h106.112l21.888-138.752z m176.384 41.92a48.512 48.512 0 0 0-96.224 0.736l-16.736 138.72c0 23.552-19.104 42.656-42.656 42.656H256c-23.552 0-42.656 34.784-42.656 58.336v42.656h597.344v-42.656c0-23.552-19.104-58.336-42.656-58.336h-145.856a42.656 42.656 0 0 1-42.656-42.656l-19.072-139.488zM208.32 597.056l-32 242.176H640v-95.744a42.656 42.656 0 0 1 85.312 0v95.744h122.336l-32-242.176H208.32z" p-id="27689"></path></svg>