<?xml version="1.0" standalone="no"?><!DOCTYPE svg PUBLIC "-//W3C//DTD SVG 1.1//EN" "http://www.w3.org/Graphics/SVG/1.1/DTD/svg11.dtd"><svg t="1752807355113" class="icon" viewBox="0 0 1024 1024" version="1.1" xmlns="http://www.w3.org/2000/svg" p-id="4640" xmlns:xlink="http://www.w3.org/1999/xlink" width="200" height="200"><path d="M853.333333 170.666667a85.333333 85.333333 0 0 1 85.333334 85.333333v512a85.333333 85.333333 0 0 1-85.333334 85.333333H426.666667a170.666667 170.666667 0 0 1-136.533334-68.266666l-166.4-221.866667a85.333333 85.333333 0 0 1 0-102.4l166.4-221.866667A170.666667 170.666667 0 0 1 426.666667 170.666667h426.666666zM426.666667 256a85.333333 85.333333 0 0 0-68.266667 34.133333L192 512l166.4 221.866667a85.333333 85.333333 0 0 0 68.266667 34.133333h426.666666V256H426.666667z m225.834666 119.168a42.666667 42.666667 0 0 1 60.330667 60.330667L636.330667 512l76.501333 76.501333a42.666667 42.666667 0 1 1-60.330667 60.330667L576 572.330667l-76.501333 76.501333a42.666667 42.666667 0 0 1-60.330667-60.330667L515.669333 512l-76.501333-76.501333a42.666667 42.666667 0 0 1 60.330667-60.330667l76.501333 76.501333 76.501333-76.501333z" p-id="4641"></path></svg>