<?xml version="1.0" standalone="no"?><!DOCTYPE svg PUBLIC "-//W3C//DTD SVG 1.1//EN" "http://www.w3.org/Graphics/SVG/1.1/DTD/svg11.dtd"><svg t="1752807335839" class="icon" viewBox="0 0 1024 1024" version="1.1" xmlns="http://www.w3.org/2000/svg" p-id="3835" xmlns:xlink="http://www.w3.org/1999/xlink" width="200" height="200"><path d="M256 853.333333v85.333334h512v-85.333334H256z m-85.333333-85.333333V256a85.333333 85.333333 0 0 1 85.333333-85.333333h512a85.333333 85.333333 0 0 1 85.333333 85.333333v512a85.333333 85.333333 0 0 1-85.333333 85.333333v85.333334l8.789333-0.213334A170.666667 170.666667 0 0 0 938.666667 768V256a170.666667 170.666667 0 0 0-170.666667-170.666667H256a170.666667 170.666667 0 0 0-170.666667 170.666667v512a170.666667 170.666667 0 0 0 170.666667 170.666667v-85.333334a85.333333 85.333333 0 0 1-85.333333-85.333333z" p-id="3836"></path><path d="M640 128v768h85.333333V128h-85.333333zM414.165333 353.834667a42.666667 42.666667 0 1 0-60.330666 60.330666L451.669333 512l-97.834666 97.834667-2.901334 3.242666a42.666667 42.666667 0 0 0 59.989334 59.989334l3.242666-2.901334 128-128a42.666667 42.666667 0 0 0 0-60.330666l-128-128z" p-id="3837"></path></svg>