<?xml version="1.0" standalone="no"?><!DOCTYPE svg PUBLIC "-//W3C//DTD SVG 1.1//EN" "http://www.w3.org/Graphics/SVG/1.1/DTD/svg11.dtd"><svg t="1751029945587" class="icon" viewBox="0 0 1024 1024" version="1.1" xmlns="http://www.w3.org/2000/svg" p-id="2207" xmlns:xlink="http://www.w3.org/1999/xlink" width="200" height="200"><path d="M410.538667 719.829333l-152.234667 248.832-1.621333 1.92a8.576 8.576 0 0 1-12.288-0.981333l-1.28-2.176-52.266667-128.042667-134.314667 2.218667-2.389333-0.298667a8.533333 8.533333 0 0 1-5.034667-12.629333l175.061334-290.602667 186.368 181.76z m-242.005334 48.64l69.888-1.109333 23.808 58.325333 57.856-94.549333-81.322666-79.36-70.229334 116.693333zM613.76 719.829333l152.234667 248.832 1.621333 1.92a8.576 8.576 0 0 0 12.288-0.981333l1.28-2.176 52.266667-128.042667 134.314666 2.218667 2.389334-0.298667a8.533333 8.533333 0 0 0 5.034666-12.629333l-175.061333-290.602667-186.368 181.76z m242.005333 48.64l-69.888-1.109333-23.808 58.325333-57.856-94.549333 81.322667-79.36 70.229333 116.693333z" p-id="2208"></path><path d="M803.413333 405.333333A291.413333 291.413333 0 1 0 512 696.746667V768a362.666667 362.666667 0 1 1 0-725.333333 362.666667 362.666667 0 0 1 0 725.333333v-71.253333a291.413333 291.413333 0 0 0 291.413333-291.413334z" p-id="2209"></path><path d="M506.282667 263.210667a6.4 6.4 0 0 1 11.434666 0l42.666667 85.504 93.056 15.146666a6.4 6.4 0 0 1 3.541333 10.752l-66.645333 68.266667 14.677333 95.061333a6.4 6.4 0 0 1-9.301333 6.656L512 501.077333l-83.712 43.52a6.4 6.4 0 0 1-9.301333-6.656l14.677333-95.104L367.018667 374.613333a6.4 6.4 0 0 1 3.541333-10.752l93.013333-15.146666 42.666667-85.504z" p-id="2210"></path></svg>