<?xml version="1.0" standalone="no"?><!DOCTYPE svg PUBLIC "-//W3C//DTD SVG 1.1//EN" "http://www.w3.org/Graphics/SVG/1.1/DTD/svg11.dtd"><svg t="1746693618649" class="icon" viewBox="0 0 1024 1024" version="1.1" xmlns="http://www.w3.org/2000/svg" p-id="28318" xmlns:xlink="http://www.w3.org/1999/xlink" width="200" height="200"><path d="M790.336 115.712a115.2 115.2 0 0 1 23.04 228.16v95.392a45.152 45.152 0 0 1-90.304 0v-93.088h-282.848L304.576 461.12v356.864h418.464v-79.456a45.152 45.152 0 0 1 90.304 0v123.68a46.08 46.08 0 0 1-46.08 46.08H260.288a46.08 46.08 0 0 1-46.08-46.08V518.368A115.2 115.2 0 0 1 117.76 317.344l24.672-20.928a115.2 115.2 0 0 1 94.816-180.704h553.056zM388.768 206.08l-151.488-0.032a24.992 24.992 0 0 0-0.064 50.016h92.32l-149.312 126.592c-0.672 0.576-1.28 1.152-1.888 1.76l-2.144 1.824a24.864 24.864 0 1 0 32.192 37.952l2.912-2.464a35.84 35.84 0 0 0 1.28-1.024L406.848 256h383.936a24.96 24.96 0 1 0-0.416-50.016l-401.568 0.032z" p-id="28319"></path><path d="M928.736 525.76a45.184 45.184 0 0 0-59.552-23.136l-204.48 90.048a45.184 45.184 0 0 0 36.416 82.688l204.48-90.048a45.184 45.184 0 0 0 23.136-59.552z" p-id="28320"></path></svg>