<?xml version="1.0" standalone="no"?><!DOCTYPE svg PUBLIC "-//W3C//DTD SVG 1.1//EN" "http://www.w3.org/Graphics/SVG/1.1/DTD/svg11.dtd"><svg t="1746693687425" class="icon" viewBox="0 0 1024 1024" version="1.1" xmlns="http://www.w3.org/2000/svg" p-id="32886" xmlns:xlink="http://www.w3.org/1999/xlink" width="200" height="200"><path d="M42.656 170.656a128 128 0 0 1 128-128h128a42.656 42.656 0 0 1 0 85.312h-128C147.104 127.968 128 147.072 128 170.624v128a42.656 42.656 0 0 1-85.312 0v-128zM981.344 725.344v128a128 128 0 0 1-128 128h-128a42.656 42.656 0 0 1 0-85.312h128c23.552 0 42.656-19.104 42.656-42.656v-128a42.656 42.656 0 0 1 85.312 0zM341.344 298.656a42.656 42.656 0 0 0-85.312 0v42.656a42.656 42.656 0 0 0 85.312 0V298.656zM554.656 298.656a42.656 42.656 0 0 0-85.312 0v192c0 7.456-4.16 18.496-14.176 28.512s-21.024 14.176-28.512 14.176h-21.344a42.656 42.656 0 0 0 0 85.312h21.344c35.2 0 66.848-17.184 88.832-39.168s39.168-53.632 39.168-88.832v-192zM371.712 695.136a42.656 42.656 0 0 0-61.408 59.264l0.064 0.064 0.064 0.064 0.128 0.128 0.352 0.352 0.96 0.96 3.072 2.944c2.56 2.368 6.144 5.536 10.688 9.248 9.088 7.392 22.24 16.928 39.136 26.4a297.056 297.056 0 0 0 145.824 37.952 304.544 304.544 0 0 0 186.656-63.968 201.248 201.248 0 0 0 14.08-12.064l0.992-0.96 0.352-0.352 0.128-0.128 0.096-0.096a42.688 42.688 0 0 0-60.224-60.48l-0.032 0.032-0.064 0.064-1.344 1.248a127.36 127.36 0 0 1-6.688 5.568 219.36 219.36 0 0 1-133.92 45.728c-44.768 0-80-13.536-104.096-27.04a193.216 193.216 0 0 1-27.136-18.272 119.84 119.84 0 0 1-6.336-5.472l-1.248-1.184-0.096-0.096zM768 298.656a42.656 42.656 0 0 0-85.312 0v42.656a42.656 42.656 0 0 0 85.312 0V298.656zM170.656 981.344a128 128 0 0 1-128-128v-128a42.656 42.656 0 0 1 85.312 0v128c0 23.552 19.104 42.656 42.656 42.656h128a42.656 42.656 0 0 1 0 85.312h-128zM981.344 170.656v128a42.656 42.656 0 0 1-85.312 0v-128c0-23.552-19.104-42.656-42.656-42.656h-128a42.656 42.656 0 0 1 0-85.312h128a128 128 0 0 1 128 128z" p-id="32887"></path></svg>