<?xml version="1.0" standalone="no"?><!DOCTYPE svg PUBLIC "-//W3C//DTD SVG 1.1//EN" "http://www.w3.org/Graphics/SVG/1.1/DTD/svg11.dtd"><svg t="1746693663969" class="icon" viewBox="0 0 1024 1024" version="1.1" xmlns="http://www.w3.org/2000/svg" p-id="31467" xmlns:xlink="http://www.w3.org/1999/xlink" width="200" height="200"><path d="M630.496 381.408a38.4 38.4 0 1 0-66.336-38.688l-56.896 97.536-55.968-95.936a38.4 38.4 0 0 0-66.336 38.688l54.976 94.24h-111.392a38.4 38.4 0 1 0 0 76.8h112.352l-55.904 95.84a38.4 38.4 0 1 0 66.336 38.688l55.968-95.936 56.896 97.536a38.4 38.4 0 0 0 66.336-38.688l-56.832-97.44h113.28a38.4 38.4 0 1 0 0-76.8h-112.352l55.904-95.84z" p-id="31468"></path><path d="M320 37.664A298.656 298.656 0 0 0 21.344 336.32V704A298.656 298.656 0 0 0 320 1002.656h374.208A298.656 298.656 0 0 0 992.864 704V336.32a298.656 298.656 0 0 0-298.656-298.656H320zM106.656 336.32A213.344 213.344 0 0 1 320 122.976h374.208a213.344 213.344 0 0 1 213.344 213.344V704a213.344 213.344 0 0 1-213.344 213.344H320A213.344 213.344 0 0 1 106.656 704V336.32z" p-id="31469"></path></svg>