<?xml version="1.0" standalone="no"?><!DOCTYPE svg PUBLIC "-//W3C//DTD SVG 1.1//EN" "http://www.w3.org/Graphics/SVG/1.1/DTD/svg11.dtd"><svg t="1746693632000" class="icon" viewBox="0 0 1024 1024" version="1.1" xmlns="http://www.w3.org/2000/svg" p-id="29263" xmlns:xlink="http://www.w3.org/1999/xlink" width="200" height="200"><path d="M256 256v128a85.344 85.344 0 0 0 85.344 85.344h213.344A85.344 85.344 0 0 0 640.032 384V256a85.344 85.344 0 0 0-85.344-85.344h-213.344A85.344 85.344 0 0 0 256 256z m85.344 0h213.344v128h-213.344V256z" p-id="29264"></path><path d="M247.456 42.656h401.056a119.456 119.456 0 0 1 119.456 119.456v417.888c4.48 4.64 18.368 15.36 35.68 28.768a2175.04 2175.04 0 0 1 50.624 40c9.12 7.52 24.544 19.584 44.64 19.584s39.712-10.176 39.712-34.048v-169.248a42.656 42.656 0 1 1 85.312 0v187.584c-4.512 58.56-59.04 102.208-119.328 102.208s-94.016-29.536-94.016-29.536-29.184-17.568-42.624-36.96v173.504a119.456 119.456 0 0 1-119.456 119.456H247.456A119.456 119.456 0 0 1 128 861.856V162.112a119.456 119.456 0 0 1 119.456-119.456zM648.544 128H247.488c-18.848 0-34.144 15.296-34.144 34.144v699.744c0 18.848 15.296 34.144 34.144 34.144h401.056c18.848 0 34.144-15.296 34.144-34.144V162.144c0-18.848-15.296-34.144-34.144-34.144z" p-id="29265"></path></svg>