<?xml version="1.0" standalone="no"?><!DOCTYPE svg PUBLIC "-//W3C//DTD SVG 1.1//EN" "http://www.w3.org/Graphics/SVG/1.1/DTD/svg11.dtd"><svg t="1746693591739" class="icon" viewBox="0 0 1024 1024" version="1.1" xmlns="http://www.w3.org/2000/svg" p-id="26429" xmlns:xlink="http://www.w3.org/1999/xlink" width="200" height="200"><path d="M102.528 301.152c75.456-155.392 235.392-258.496 418.016-258.496 126.176 0 234.208 46.848 314.08 117.344a42.56 42.56 0 0 1 1.952 62.144l-119.456 119.456a42.688 42.688 0 0 1-58.272 1.952c-29.536-25.856-71.136-53.44-138.304-53.44a211.68 211.68 0 0 0-195.456 127.744c-0.832 1.952-1.824 3.84-2.912 5.632l-0.352 1.248a86.656 86.656 0 0 1-4.704 13.312c-6.4 20.128-9.888 44.48-9.888 69.664 0 26.112 3.776 51.328 10.624 71.84l0.16 0.48c28.576 89.312 110.528 149.536 202.56 149.536 56.8 0 98.464-15.168 123.744-34.144l1.312-0.96a164.736 164.736 0 0 0 51.52-58.784h-176.576a42.656 42.656 0 0 1-42.656-42.656v-157.856c0-23.552 19.104-42.656 42.656-42.656h401.056c20.864 0 38.656 15.072 42.08 35.648l0.096 0.608c4.256 25.6 9.024 54.08 9.024 91.744 0 142.176-50.56 265.312-141.856 347.2-77.088 72.096-185.92 113.6-310.432 113.6-182.624 0-342.56-103.072-418.016-258.496C70.112 657.92 51.2 587.52 51.2 511.968s18.912-145.952 51.328-210.848zM520.544 128C370.464 128 240.32 212.544 179.2 338.624l-0.224 0.48c-27.264 54.528-42.432 112.032-42.432 172.928s15.168 118.4 42.432 172.928l0.224 0.48c61.12 126.08 191.264 210.624 341.344 210.624 105.696 0 192.992-35.136 252.416-90.848l0.736-0.672c70.624-63.2 113.792-161.792 113.792-283.936 0-15.84-1.024-29.536-2.592-42.656H563.2v72.544h192a42.752 42.752 0 0 1 42.4 47.36c-5.44 48.992-36.448 120.192-102.784 166.432-42.944 31.936-103.424 50.72-174.272 50.72-129.76 0-244-84.736-283.744-208.608-10.176-30.624-14.912-65.056-14.912-98.592 0-33.632 4.768-68.16 14.976-98.816 0.64-1.888 1.408-3.744 2.272-5.536l1.44-4.96c0.576-2.016 1.76-6.112 3.616-10.432 1.024-2.4 2.496-5.312 4.512-8.48a297.056 297.056 0 0 1 271.808-174.72c72.352 0 124.864 23.616 162.912 49.824l58.752-58.752c-60.288-41.6-135.52-67.872-221.664-67.872z" p-id="26430"></path></svg>