<?xml version="1.0" standalone="no"?><!DOCTYPE svg PUBLIC "-//W3C//DTD SVG 1.1//EN" "http://www.w3.org/Graphics/SVG/1.1/DTD/svg11.dtd"><svg t="1746693650662" class="icon" viewBox="0 0 1024 1024" version="1.1" xmlns="http://www.w3.org/2000/svg" p-id="30523" xmlns:xlink="http://www.w3.org/1999/xlink" width="200" height="200"><path d="M85.344 42.656a42.656 42.656 0 0 0 0 85.312h74.24c21.056 0 37.728 18.304 36 39.136L160.16 592c-8.096 94.592 66.752 175.552 161.568 175.552h454.4c83.936 0 156.032-67.744 162.432-150.752l0.032-0.224 23.04-320c6.912-95.68-66.56-174.144-162.464-174.144H273.664a121.632 121.632 0 0 0-114.08-79.776h-74.24z m159.84 556.512L277.792 207.776h521.344c46.624 0 80.672 36.736 77.344 82.688l-0.576 8.192H384a42.656 42.656 0 0 0 0 85.312h485.76l-16.288 226.272v0.096c-3.04 38.976-38.432 71.872-77.344 71.872h-454.4a76.64 76.64 0 0 1-76.544-82.976v-0.096zM693.344 797.856a87.456 87.456 0 1 0 0 174.912 87.456 87.456 0 0 0 0-174.912z m-19.2 87.488a19.2 19.2 0 1 1 38.432 0.032 19.2 19.2 0 0 1-38.432-0.032zM264.544 885.344a87.456 87.456 0 1 1 174.912 0 87.456 87.456 0 0 1-174.912 0z m87.456-19.2a19.2 19.2 0 1 0 0.032 38.432 19.2 19.2 0 0 0-0.032-38.432z" p-id="30524"></path></svg>