<?xml version="1.0" standalone="no"?><!DOCTYPE svg PUBLIC "-//W3C//DTD SVG 1.1//EN" "http://www.w3.org/Graphics/SVG/1.1/DTD/svg11.dtd"><svg t="1746693659776" class="icon" viewBox="0 0 1024 1024" version="1.1" xmlns="http://www.w3.org/2000/svg" p-id="31151" xmlns:xlink="http://www.w3.org/1999/xlink" width="200" height="200"><path d="M537.312 50.976l405.344 298.656c10.912 8.032 17.344 20.8 17.344 34.336v512c0 23.552-19.104 42.656-42.656 42.656H106.688a42.656 42.656 0 0 1-42.656-42.656v-512c0-13.568 6.432-26.304 17.344-34.336L486.72 50.976a42.624 42.624 0 0 1 50.624 0z m124.032 802.368h213.344V405.568L512.032 138.336 149.376 405.568v447.776h213.344V576c0-23.552 19.104-42.656 42.656-42.656h213.344c23.552 0 42.656 19.104 42.656 42.656v277.344z m-213.344 0h128v-234.656h-128v234.656z" p-id="31152"></path><path d="M149.344 896c0-23.552 19.104-42.656 42.656-42.656h640a42.656 42.656 0 0 1 0 85.312H192A42.656 42.656 0 0 1 149.344 896z" p-id="31153"></path></svg>