<?xml version="1.0" standalone="no"?><!DOCTYPE svg PUBLIC "-//W3C//DTD SVG 1.1//EN" "http://www.w3.org/Graphics/SVG/1.1/DTD/svg11.dtd"><svg t="1746693694573" class="icon" viewBox="0 0 1024 1024" version="1.1" xmlns="http://www.w3.org/2000/svg" p-id="33358" xmlns:xlink="http://www.w3.org/1999/xlink" width="200" height="200"><path d="M292.704 160A132.704 132.704 0 0 0 160 292.704v438.624a132.704 132.704 0 0 0 132.704 132.704h438.624a132.704 132.704 0 0 0 132.704-132.704V292.704A132.704 132.704 0 0 0 731.328 160H292.704zM74.656 292.704a218.016 218.016 0 0 1 218.016-218.016h438.624a218.016 218.016 0 0 1 218.016 218.016v438.624a218.016 218.016 0 0 1-218.016 218.016H292.672a218.016 218.016 0 0 1-218.016-218.016V292.704z" p-id="33359"></path><path d="M512 402.336a109.664 109.664 0 1 0 0 219.296 109.664 109.664 0 0 0 0-219.296zM317.024 512a194.976 194.976 0 1 1 389.952 0 194.976 194.976 0 0 1-389.952 0zM731.744 337.92a43.936 43.936 0 1 0 0-87.904 43.936 43.936 0 0 0 0 87.904z" p-id="33360"></path></svg>