<?xml version="1.0" standalone="no"?><!DOCTYPE svg PUBLIC "-//W3C//DTD SVG 1.1//EN" "http://www.w3.org/Graphics/SVG/1.1/DTD/svg11.dtd"><svg t="1746693673446" class="icon" viewBox="0 0 1024 1024" version="1.1" xmlns="http://www.w3.org/2000/svg" p-id="32098" xmlns:xlink="http://www.w3.org/1999/xlink" width="200" height="200"><path d="M343.968 284.8a290.592 290.592 0 0 1 232.736-116.128c147.04 0 268.864 109.504 288.32 251.296 17.184 7.936 40.512 20.48 63.712 38.496 42.72 33.152 89.568 88.8 89.568 171.328 0 80.032-35.712 137.184-81.376 173.536-44.096 35.104-97.344 50.88-136.992 51.968h-0.32l-0.768 0.032H236.992a237.376 237.376 0 0 1-163.616-72A237.44 237.44 0 0 1 5.76 616.992a238.72 238.72 0 0 1 121.376-207.776 173.888 173.888 0 0 1 216.864-124.32zM238.912 769.952h559.232c22.08-0.736 56.96-10.56 85.632-33.408 27.328-21.76 49.184-55.2 49.184-106.752 0-46.368-25.472-79.776-56.576-103.936a243.104 243.104 0 0 0-64.736-35.616 42.88 42.88 0 0 1-28.992-34.4c-0.352-2.336-0.416-4.192-0.448-4.704-4.512-109.408-95.04-197.12-205.504-197.12a205.312 205.312 0 0 0-179.072 104.32 43.104 43.104 0 0 1-58.72 16.32 88.544 88.544 0 0 0-131.232 67.392 43.104 43.104 0 0 1-25.408 34.784 153.312 153.312 0 0 0-91.2 140.096c0 40.192 15.36 78.016 43.392 106.816a152.096 152.096 0 0 0 104.448 46.24z" p-id="32099"></path></svg>