<?xml version="1.0" standalone="no"?><!DOCTYPE svg PUBLIC "-//W3C//DTD SVG 1.1//EN" "http://www.w3.org/Graphics/SVG/1.1/DTD/svg11.dtd"><svg t="1746693598543" class="icon" viewBox="0 0 1024 1024" version="1.1" xmlns="http://www.w3.org/2000/svg" p-id="26902" xmlns:xlink="http://www.w3.org/1999/xlink" width="200" height="200"><path d="M292.192 725.984l72.16 1.44 411.04-399.328-73.6-73.6L290.752 653.824l1.44 72.16z m-25.44 83.136a58.88 58.88 0 0 1-57.696-57.696l-2.112-106.496c-0.32-16.032 5.888-31.488 17.248-42.816L660.192 177.824a58.848 58.848 0 0 1 83.264 0l108.608 108.608a58.848 58.848 0 0 1 0 83.264L416.064 793.984a58.88 58.88 0 0 1-42.816 17.248l-106.496-2.112z" p-id="26903"></path></svg>