<?xml version="1.0" standalone="no"?><!DOCTYPE svg PUBLIC "-//W3C//DTD SVG 1.1//EN" "http://www.w3.org/Graphics/SVG/1.1/DTD/svg11.dtd"><svg t="1746693596380" class="icon" viewBox="0 0 1024 1024" version="1.1" xmlns="http://www.w3.org/2000/svg" p-id="26744" xmlns:xlink="http://www.w3.org/1999/xlink" width="200" height="200"><path d="M362.112 110.656h88.032l-38.24 144.8a42.656 42.656 0 1 1-82.752-20.8l32.96-124zM717.536 591.744c0-113.12-91.712-204.8-204.832-204.8a204.832 204.832 0 1 0 204.832 204.8z m-85.344 0c0 65.952-53.472 119.456-119.52 119.456a119.488 119.488 0 1 1 0-238.912 119.488 119.488 0 0 1 119.52 119.456z" p-id="26745"></path><path d="M153.568 395.04L92.096 165.376A110.944 110.944 0 0 1 199.264 25.76h625.536a110.944 110.944 0 0 1 107.008 140.224l-62.944 229.888a404.416 404.416 0 0 1 50.272 195.872c0 224.416-181.952 406.304-406.4 406.304s-406.4-181.92-406.4-406.304c0-69.76 17.6-135.424 48.576-192.768a40.224 40.224 0 0 1-1.248-3.936z m45.696-283.968a25.6 25.6 0 0 0-24.736 32.224l44.768 167.264a405.28 405.28 0 0 1 293.376-125.12c114.368 0 217.696 47.232 291.552 123.232l45.248-165.248a25.6 25.6 0 0 0-24.704-32.352H199.232z m313.408 801.664c177.344 0 321.088-143.712 321.088-320.992S690.016 270.752 512.672 270.752c-177.344 0-321.088 143.712-321.088 320.992s143.744 320.992 321.088 320.992z" p-id="26746"></path></svg>