<?xml version="1.0" standalone="no"?><!DOCTYPE svg PUBLIC "-//W3C//DTD SVG 1.1//EN" "http://www.w3.org/Graphics/SVG/1.1/DTD/svg11.dtd"><svg t="1746693641324" class="icon" viewBox="0 0 1024 1024" version="1.1" xmlns="http://www.w3.org/2000/svg" p-id="29892" xmlns:xlink="http://www.w3.org/1999/xlink" width="200" height="200"><path d="M512 909.664C292.384 909.664 114.336 731.616 114.336 512S292.384 114.336 512 114.336c219.616 0 397.664 178.048 397.664 397.664S731.616 909.664 512 909.664z m0 71.68c259.2 0 469.344-210.144 469.344-469.344S771.2 42.656 512 42.656 42.656 252.768 42.656 512 252.768 981.344 512 981.344z" p-id="29893"></path><path d="M564.256 643.52L431.968 512l132.288-133.984 83.936 84.352c12.704 14.88 35.616 14.88 50.88 0s15.264-39.712 0-54.592l-109.376-109.184a37.536 37.536 0 0 0-53.408 0l-157.728 158.816v-94.304c0-19.84-17.792-37.216-38.144-37.216s-38.144 17.376-38.144 37.216v297.76c0 19.84 17.792 37.216 38.144 37.216s38.144-17.376 38.144-37.216v-94.304l157.728 158.816a37.536 37.536 0 0 0 53.408 0l109.376-109.184a38.272 38.272 0 0 0 0-54.592c-12.704-14.88-35.616-14.88-50.88 0l-83.936 81.888zM602.432 512c0-19.84-17.824-37.216-38.176-37.216s-38.144 17.376-38.144 37.216 17.824 37.216 38.144 37.216 38.176-17.376 38.176-37.216z" p-id="29894"></path></svg>