<?xml version="1.0" standalone="no"?><!DOCTYPE svg PUBLIC "-//W3C//DTD SVG 1.1//EN" "http://www.w3.org/Graphics/SVG/1.1/DTD/svg11.dtd"><svg t="1751029972326" class="icon" viewBox="0 0 1024 1024" version="1.1" xmlns="http://www.w3.org/2000/svg" p-id="3190" xmlns:xlink="http://www.w3.org/1999/xlink" width="200" height="200"><path d="M853.333333 298.666667c0-9.685333-4.266667-22.101333-18.432-36.992-14.378667-15.146667-37.205333-30.72-68.693333-44.714667C703.36 189.013333 613.461333 170.666667 512 170.666667c-101.504 0-191.36 18.346667-254.208 46.293333-31.488 13.994667-54.314667 29.568-68.693333 44.714667C174.890667 276.565333 170.666667 288.981333 170.666667 298.666667c0 9.685333 4.266667 22.101333 18.432 36.992 14.378667 15.146667 37.205333 30.72 68.693333 44.714666C320.64 408.32 410.538667 426.666667 512 426.666667c101.504 0 191.36-18.346667 254.208-46.293334 31.488-13.994667 54.314667-29.568 68.693333-44.714666 14.208-14.890667 18.432-27.306667 18.432-36.992z m85.333334 0c0 37.418667-17.237333 69.888-41.898667 95.829333-24.490667 25.728-57.898667 46.933333-95.914667 63.829333C724.736 492.16 622.592 512 512 512c-110.592 0-212.778667-19.84-288.853333-53.674667-38.016-16.896-71.424-38.101333-95.914667-63.829333C102.570667 368.554667 85.333333 336.085333 85.333333 298.666667s17.237333-69.888 41.898667-95.829334c24.490667-25.728 57.898667-46.933333 95.872-63.829333C299.221333 105.173333 401.493333 85.333333 512 85.333333c110.592 0 212.736 19.84 288.853333 53.674667 38.016 16.896 71.424 38.101333 95.914667 63.829333C921.429333 228.778667 938.666667 261.248 938.666667 298.666667z" p-id="3191"></path><path d="M85.333333 512V298.666667h85.333334v213.333333c0 9.685333 4.266667 22.101333 18.432 36.992 14.378667 15.146667 37.205333 30.72 68.693333 44.714667C320.64 621.653333 410.538667 640 512 640c101.504 0 191.36-18.346667 254.208-46.293333 31.488-13.994667 54.314667-29.568 68.693333-44.714667 14.208-14.890667 18.432-27.306667 18.432-36.992V298.666667h85.333334v213.333333c0 37.418667-17.237333 69.888-41.898667 95.829333-24.490667 25.728-57.898667 46.933333-95.914667 63.829334C724.736 705.493333 622.592 725.333333 512 725.333333c-110.592 0-212.778667-19.84-288.853333-53.674666-38.016-16.896-71.424-38.101333-95.914667-63.829334C102.570667 581.888 85.333333 549.418667 85.333333 512z" p-id="3192"></path><path d="M85.333333 725.333333v-213.333333h85.333334v213.333333c0 9.685333 4.266667 22.101333 18.432 36.992 14.378667 15.146667 37.205333 30.72 68.693333 44.714667C320.64 834.986667 410.538667 853.333333 512 853.333333c101.504 0 191.36-18.346667 254.208-46.293333 31.488-13.994667 54.314667-29.568 68.693333-44.714667 14.208-14.890667 18.432-27.306667 18.432-36.992v-213.333333h85.333334v213.333333c0 37.461333-17.237333 69.888-41.898667 95.829334-24.490667 25.728-57.898667 46.933333-95.914667 63.829333C724.736 918.826667 622.592 938.666667 512 938.666667c-110.592 0-212.778667-19.84-288.853333-53.674667-38.016-16.896-71.424-38.101333-95.914667-63.829333C102.570667 795.221333 85.333333 762.794667 85.333333 725.333333z" p-id="3193"></path></svg>