<?xml version="1.0" standalone="no"?><!DOCTYPE svg PUBLIC "-//W3C//DTD SVG 1.1//EN" "http://www.w3.org/Graphics/SVG/1.1/DTD/svg11.dtd"><svg t="1746693723342" class="icon" viewBox="0 0 1024 1024" version="1.1" xmlns="http://www.w3.org/2000/svg" p-id="35092" xmlns:xlink="http://www.w3.org/1999/xlink" width="200" height="200"><path d="M251.168 686.56a42.656 42.656 0 0 1-28.608 53.12c-36.384 10.912-62.72 23.072-79.008 34.624-11.2 7.936-14.432 13.152-15.296 15.008 0.864 1.888 4.096 7.072 15.296 15.008 16.288 11.552 42.624 23.712 79.008 34.624 72.224 21.664 174.56 35.68 289.44 35.68s217.216-14.016 289.44-35.68c36.384-10.912 62.72-23.072 79.008-34.624 11.2-7.936 14.432-13.152 15.296-15.008-0.864-1.888-4.096-7.072-15.296-15.008-16.288-11.552-42.624-23.712-79.008-34.624a42.688 42.688 0 0 1 24.512-81.728c40.832 12.256 76.96 27.68 103.872 46.752 25.792 18.272 51.52 46.272 51.52 84.64s-25.728 66.336-51.52 84.64c-26.88 19.072-63.04 34.496-103.872 46.752-82.176 24.672-193.184 39.296-313.952 39.296s-231.776-14.624-313.952-39.296c-40.832-12.256-76.96-27.68-103.872-46.752-25.792-18.272-51.52-46.272-51.52-84.64s25.728-66.336 51.52-84.64c26.88-19.072 63.04-34.496 103.872-46.752a42.656 42.656 0 0 1 53.12 28.608z" p-id="35093"></path><path d="M192 355.872c0-173.984 144.288-313.216 320-313.216s320 139.232 320 313.216c0 122.336-79.808 230.56-150.688 303.68a977.312 977.312 0 0 1-142.208 120.352l-2.624 1.76-0.96 0.64-0.064 0.032-23.392-35.68-23.36 35.712-0.096-0.064-0.224-0.16-0.736-0.48-2.624-1.76a816.416 816.416 0 0 1-42.464-31.168 980.736 980.736 0 0 1-99.744-89.184c-70.88-73.12-150.688-181.344-150.688-303.68z m320 390.784l-23.36 35.712c14.176 9.28 32.512 9.28 46.688 0L512 746.656z m0-52.224a897.152 897.152 0 0 0 108.064-94.272c67.776-69.888 126.624-157.056 126.624-244.256 0-124.864-104.064-227.872-234.656-227.872S277.376 231.04 277.376 355.904c0 87.2 58.848 174.368 126.624 244.256a894.176 894.176 0 0 0 108.032 94.272z" p-id="35094"></path><path d="M362.656 362.656a149.344 149.344 0 1 1 298.688 0 149.344 149.344 0 0 1-298.688 0z m149.344-64a64 64 0 1 0-0.032 127.968A64 64 0 0 0 512 298.656z" p-id="35095"></path></svg>