<?xml version="1.0" standalone="no"?><!DOCTYPE svg PUBLIC "-//W3C//DTD SVG 1.1//EN" "http://www.w3.org/Graphics/SVG/1.1/DTD/svg11.dtd"><svg t="1746693669266" class="icon" viewBox="0 0 1024 1024" version="1.1" xmlns="http://www.w3.org/2000/svg" p-id="31782" xmlns:xlink="http://www.w3.org/1999/xlink" width="200" height="200"><path d="M787.52 82.112a44.8 44.8 0 0 1 63.36 0l96 96c17.504 17.504 17.504 41.76 0 59.232l-96 96a44.8 44.8 0 1 1-63.36-63.36l19.584-19.584v-0.832H234.688a85.344 85.344 0 0 0-85.344 85.344v426.656a85.344 85.344 0 0 0 85.344 85.344h554.656a85.344 85.344 0 0 0 85.344-85.344v-298.656a42.656 42.656 0 0 1 85.312 0v298.656a170.656 170.656 0 0 1-170.656 170.656H234.688a170.656 170.656 0 0 1-170.656-170.656V334.912a170.656 170.656 0 0 1 170.656-170.656h571.744l-18.88-18.784a44.8 44.8 0 0 1 0-63.36z" p-id="31783"></path><path d="M506.336 356.256c23.552 0 42.656 19.104 42.656 42.656v320a42.656 42.656 0 0 1-85.312 0v-320c0-23.552 19.104-42.656 42.656-42.656zM335.68 531.84c23.552 0 42.656 19.104 42.656 42.656v144.416a42.656 42.656 0 0 1-85.312 0v-144.416c0-23.552 19.104-42.656 42.656-42.656zM719.648 496.64a42.656 42.656 0 0 0-85.312 0v222.272a42.656 42.656 0 0 0 85.312 0V496.64z" p-id="31784"></path></svg>