<?xml version="1.0" standalone="no"?><!DOCTYPE svg PUBLIC "-//W3C//DTD SVG 1.1//EN" "http://www.w3.org/Graphics/SVG/1.1/DTD/svg11.dtd"><svg t="1746693623214" class="icon" viewBox="0 0 1024 1024" version="1.1" xmlns="http://www.w3.org/2000/svg" p-id="28634" xmlns:xlink="http://www.w3.org/1999/xlink" width="200" height="200"><path d="M659.52 151.136a213.344 213.344 0 0 0-188.672 313.056 42.656 42.656 0 0 1-7.52 50.144l-294.528 294.528 46.336 46.336 294.528-294.528a42.624 42.624 0 0 1 50.144-7.52 213.344 213.344 0 0 0 308.896-230.848l-115.008 115.008a42.656 42.656 0 0 1-60.352 0l-106.656-106.656a42.656 42.656 0 0 1 0-60.352l115.008-115.008a214.976 214.976 0 0 0-42.176-4.16z m-298.656 213.344a298.656 298.656 0 0 1 438.336-264.032 42.656 42.656 0 0 1 10.176 67.872l-132.192 132.192 46.336 46.336 132.192-132.192a42.688 42.688 0 0 1 67.872 10.176 298.656 298.656 0 0 1-374.56 417.216l-303.68 303.68a42.656 42.656 0 0 1-60.352 0l-106.656-106.656a42.656 42.656 0 0 1 0-60.352l303.68-303.68a298.112 298.112 0 0 1-21.12-110.528z" p-id="28635"></path></svg>