<?xml version="1.0" standalone="no"?><!DOCTYPE svg PUBLIC "-//W3C//DTD SVG 1.1//EN" "http://www.w3.org/Graphics/SVG/1.1/DTD/svg11.dtd"><svg t="1746693732125" class="icon" viewBox="0 0 1024 1024" version="1.1" xmlns="http://www.w3.org/2000/svg" p-id="35726" xmlns:xlink="http://www.w3.org/1999/xlink" width="200" height="200"><path d="M298.656 85.344a213.344 213.344 0 0 0-213.344 213.344v426.656a213.344 213.344 0 0 0 213.344 213.344h426.656a213.344 213.344 0 0 0 213.344-213.344V640a42.656 42.656 0 0 0-85.312 0v85.344a128 128 0 0 1-128 128H298.688a128 128 0 0 1-128-128V298.688a128 128 0 0 1 128-128h85.344a42.656 42.656 0 0 0 0-85.312H298.688z" p-id="35727"></path><path d="M597.344 85.344a42.656 42.656 0 0 0 0 85.312h195.648l-272.736 272.736a42.656 42.656 0 1 0 60.352 60.352l272.768-272.768v195.68a42.656 42.656 0 0 0 85.312 0V128c0-23.552-19.104-42.656-42.656-42.656h-298.656z" p-id="35728"></path></svg>