<?xml version="1.0" standalone="no"?><!DOCTYPE svg PUBLIC "-//W3C//DTD SVG 1.1//EN" "http://www.w3.org/Graphics/SVG/1.1/DTD/svg11.dtd"><svg t="1746693613409" class="icon" viewBox="0 0 1024 1024" version="1.1" xmlns="http://www.w3.org/2000/svg" p-id="28003" xmlns:xlink="http://www.w3.org/1999/xlink" width="200" height="200"><path d="M332.928 107.872a111.552 111.552 0 0 0-111.552 111.552v259.712a111.552 111.552 0 0 0-146.4 106.016v219.424a111.552 111.552 0 0 0 117.312 111.392h29.088v0.16h477.248a221.248 221.248 0 0 0 221.248-221.248V219.456a111.552 111.552 0 0 0-111.552-111.552H332.896zM298.208 219.424c0-19.2 15.552-34.752 34.752-34.752h475.424c19.2 0 34.752 15.552 34.752 34.752v475.424a144.448 144.448 0 0 1-144.448 144.448H298.24V219.424zM151.808 585.152a34.752 34.752 0 1 1 69.504 0v219.424a34.752 34.752 0 1 1-69.504 0v-219.424z m286.944-157.504v172.128c0 8.096 6.56 14.624 14.624 14.624h40.416a14.624 14.624 0 0 0 14.624-14.624v-172.128h46.144a14.624 14.624 0 0 0 10.56-24.736l-80.96-84.64a14.656 14.656 0 0 0-21.152 0l-80.96 84.64a14.624 14.624 0 0 0 10.56 24.736h46.144z m195.296 168.704v-172.128c0-8.064 6.56-14.624 14.624-14.624h41.024c8.096 0 14.624 6.56 14.624 14.624v172.128h46.624c12.896 0 19.488 15.488 10.528 24.8l-81.76 84.736a14.656 14.656 0 0 1-21.056 0l-81.76-84.736a14.656 14.656 0 0 1 10.528-24.8h46.624z" p-id="28004"></path></svg>