<?xml version="1.0" standalone="no"?><!DOCTYPE svg PUBLIC "-//W3C//DTD SVG 1.1//EN" "http://www.w3.org/Graphics/SVG/1.1/DTD/svg11.dtd"><svg t="1746693652769" class="icon" viewBox="0 0 1024 1024" version="1.1" xmlns="http://www.w3.org/2000/svg" p-id="30680" xmlns:xlink="http://www.w3.org/1999/xlink" width="200" height="200"><path d="M89.92 269.344l384-191.392a85.408 85.408 0 0 1 76.128 0l384 191.392a85.312 85.312 0 0 1 47.264 76.384V720.32a85.344 85.344 0 0 1-47.232 76.352l-384 191.584a85.344 85.344 0 0 1-76.192 0l-384-191.584a85.28 85.28 0 0 1-47.232-76.352V345.728c0-32.352 18.304-61.952 47.264-76.384z m89.28 50.88l117.984 59.296 331.904-166.816L512 154.336 179.2 320.224z m212.992 107.04l117.632 59.136 332.8-167.264-118.144-58.88-332.288 167.04z m77.152 134.272L130.784 391.36A38.784 38.784 0 0 1 128 389.824v330.464l341.344 170.272V561.504zM896 386.88c-2.176 1.696-4.576 3.2-7.136 4.512l-334.208 168v331.232L896 720.352v-333.44z" p-id="30681"></path></svg>