<?xml version="1.0" standalone="no"?><!DOCTYPE svg PUBLIC "-//W3C//DTD SVG 1.1//EN" "http://www.w3.org/Graphics/SVG/1.1/DTD/svg11.dtd"><svg t="1752807369296" class="icon" viewBox="0 0 1024 1024" version="1.1" xmlns="http://www.w3.org/2000/svg" p-id="5285" xmlns:xlink="http://www.w3.org/1999/xlink" width="200" height="200"><path d="M398.976 535.594667a386.986667 386.986667 0 0 1 257.28 97.664c13.312 11.818667 20.992 28.672 20.992 46.293333v169.813333l19.114667 19.114667-0.426667-0.213333 12.458667 12.458666c6.613333 6.826667 0.896 16.384-1.834667 17.493334a929.493333 929.493333 0 0 1-307.797333 51.498666c-110.762667 0-199.850667-0.256-308.522667-28.074666-39.936-14.378667-70.997333-29.824-59.477333-113.237334l2.901333-17.621333c17.92-95.402667 49.066667-255.189333 365.312-255.189333z m0 85.333333c-144.384 0-204.970667 36.266667-232.874667 65.408-30.122667 31.530667-39.424 71.338667-48.554666 120.149333-2.901333 15.36-3.84 25.898667-3.882667 32.768l1.92 0.725334c95.146667 23.808 173.653333 24.405333 283.178667 24.405333 68.181333 0 131.882667-7.594667 193.152-21.845333v-152.021334a301.269333 301.269333 0 0 0-192.938667-69.632zM777.728 250.965333a181.162667 181.162667 0 0 1 218.026667 177.237334l-0.256 0.426666c0 74.026667-50.346667 154.368-125.866667 165.674667v19.413333l17.664 17.706667a13.013333 13.013333 0 0 1 3.968 9.557333v33.322667a14.848 14.848 0 0 1-4.266667 10.325333l-30.378666 30.378667a14.890667 14.890667 0 0 0-4.266667 10.325333v52.266667c0 3.84 1.578667 7.637333 4.266667 10.325333l18.986666 18.986667c2.688 2.688 4.266667 6.442667 4.266667 10.24v34.688a14.805333 14.805333 0 0 1-4.266667 10.24l-46.506666 46.506667a14.805333 14.805333 0 0 1-10.24 4.266666l-9.685334-1.109333a31.061333 31.061333 0 0 1-7.424-2.133333l-1.408-0.981334-43.434666-43.392a14.762667 14.762667 0 0 1-3.925334-7.424l-0.256-2.858666v-249.984a14.250667 14.250667 0 0 0-8.490666-12.885334c-73.898667-26.666667-124.970667-114.474667-106.410667-202.965333a180.266667 180.266667 0 0 1 127.061333-135.168l12.842667-2.986667z m37.12 87.68a90.538667 90.538667 0 1 0 0.042667 181.077334 90.538667 90.538667 0 0 0-0.085334-181.077334zM398.933333 74.24a215.893333 215.893333 0 1 1 0 431.829333 215.893333 215.893333 0 0 1 0-431.829333z m0 85.333333a130.56 130.56 0 1 0 0 261.162667 130.56 130.56 0 0 0 0-261.162667z" p-id="5286"></path></svg>