<?xml version="1.0" standalone="no"?><!DOCTYPE svg PUBLIC "-//W3C//DTD SVG 1.1//EN" "http://www.w3.org/Graphics/SVG/1.1/DTD/svg11.dtd"><svg t="1746693662007" class="icon" viewBox="0 0 1024 1024" version="1.1" xmlns="http://www.w3.org/2000/svg" p-id="31309" xmlns:xlink="http://www.w3.org/1999/xlink" width="200" height="200"><path d="M512 256a170.656 170.656 0 1 0 0 341.312A170.656 170.656 0 0 0 512 256z m-85.344 170.656a85.344 85.344 0 1 1 170.688 0 85.344 85.344 0 0 1-170.688 0z" p-id="31310"></path><path d="M601.664 93.824l-30.496-20.32a106.72 106.72 0 0 0-118.336 0l-30.496 20.32a469.344 469.344 0 0 0-207.808 357.024l-117.216 121.472c-7.68 7.968-11.968 18.56-11.968 29.632v102.016c0 23.552 19.104 42.656 42.656 42.656h768c23.552 0 42.656-19.104 42.656-42.656v-102.016c0-11.04-4.288-21.664-11.968-29.632l-117.216-121.472a469.216 469.216 0 0 0-207.808-357.024zM500.16 144.512a21.344 21.344 0 0 1 23.648 0l30.496 20.352a384.064 384.064 0 0 1 171.008 319.52v176.992H298.656v-176.992a384 384 0 0 1 171.008-319.52l30.496-20.352zM170.656 619.2l42.656-44.224v86.336H170.656v-42.144z m682.688 42.144h-42.656v-86.336l42.656 44.224v42.144zM554.656 810.656a42.656 42.656 0 0 0-85.312 0v128a42.656 42.656 0 0 0 85.312 0v-128zM341.344 810.656c23.552 0 42.656 19.104 42.656 42.656v42.656a42.656 42.656 0 0 1-85.312 0v-42.656c0-23.552 19.104-42.656 42.656-42.656zM725.344 853.344a42.656 42.656 0 0 0-85.312 0V896a42.656 42.656 0 0 0 85.312 0v-42.656z" p-id="31311"></path></svg>