<?xml version="1.0" standalone="no"?><!DOCTYPE svg PUBLIC "-//W3C//DTD SVG 1.1//EN" "http://www.w3.org/Graphics/SVG/1.1/DTD/svg11.dtd"><svg t="1746693721295" class="icon" viewBox="0 0 1024 1024" version="1.1" xmlns="http://www.w3.org/2000/svg" p-id="34934" xmlns:xlink="http://www.w3.org/1999/xlink" width="200" height="200"><path d="M459.104 597.344a42.656 42.656 0 0 0-85.312 0V748.8a42.656 42.656 0 0 0 85.312 0v-151.456zM612.704 554.656c23.552 0 42.656 19.104 42.656 42.656v151.456a42.656 42.656 0 0 1-85.312 0v-151.456c0-23.552 19.104-42.656 42.656-42.656z" p-id="34935"></path><path d="M406.112 115.456L314.88 206.912h394.24l-91.232-91.456a42.656 42.656 0 1 1 60.448-60.256l151.296 151.712h14.304c24.928 0 61.472 0.64 90.784 20.288 33.888 22.72 46.592 61.248 46.592 107.712 0 49.76-11.168 92.192-49.056 114.016-6.656 3.84-13.44 6.56-20.096 8.544l-67.296 350.912c-7.52 39.168-17.728 85.888-50.88 120.64-34.976 36.64-87.008 52.256-158.72 52.256h-257.28c-67.936 0-119.392-16.992-155.264-53.312-34.656-35.104-48.128-81.856-55.36-125.76L111.072 457.28a91.456 91.456 0 0 1-19.392-8.352c-37.888-21.824-49.056-64.288-49.056-114.016 0-46.464 12.704-85.024 46.592-107.712 29.312-19.616 65.856-20.288 90.784-20.288h14.304L345.6 55.2a42.688 42.688 0 0 1 60.448 60.256z m418.144 347.488H198.464l53.12 325.44c6.4 38.848 16.224 63.808 31.904 79.68 14.464 14.656 40.448 27.936 94.56 27.936h257.28c60.992 0 85.12-13.408 96.96-25.824 13.664-14.336 20.96-36.736 28.8-77.76l63.2-329.472zM136.704 298.144c-0.736 0.448-8.704 5.184-8.704 36.8 0 20.224 2.4 31.136 4.512 36.576a12.32 12.32 0 0 0 1.824 3.52c0.48 0.256 3.232 1.6 11.904 2.24 6.656 0.48 13.408 0.448 22.336 0.384a1209.6 1209.6 0 0 1 11.488-0.064h663.904l11.488 0.064c8.896 0.064 15.648 0.128 22.336-0.384 8.576-0.64 11.392-1.952 11.904-2.24 0.096-0.128 0.864-1.056 1.824-3.52 2.112-5.44 4.512-16.352 4.512-36.576 0-31.584-7.968-36.352-8.704-36.8l-0.032-0.032c-1.76-1.184-5.472-2.912-13.152-4.16a193.92 193.92 0 0 0-30.144-1.696H180.096a193.92 193.92 0 0 0-30.144 1.696c-7.712 1.248-11.424 2.976-13.152 4.16l-0.032 0.032z" p-id="34936"></path></svg>