<?xml version="1.0" standalone="no"?><!DOCTYPE svg PUBLIC "-//W3C//DTD SVG 1.1//EN" "http://www.w3.org/Graphics/SVG/1.1/DTD/svg11.dtd"><svg t="1746693680216" class="icon" viewBox="0 0 1024 1024" version="1.1" xmlns="http://www.w3.org/2000/svg" p-id="32570" xmlns:xlink="http://www.w3.org/1999/xlink" width="200" height="200"><path d="M367.68 85.344h288.672l28.832 230.528C698.208 420.032 616.992 512 512.032 512s-186.176-92-173.152-196.128l28.8-230.528z m75.328 85.312l-19.488 155.776a89.152 89.152 0 1 0 176.96 0l-19.488-155.776h-138.016z" p-id="32571"></path><path d="M73.696 218.4a151.936 151.936 0 0 1 150.752-133.088h229.216l-33.6 268.768a180.288 180.288 0 0 1-357.76-44.736l11.36-90.976z m150.752-47.744c-33.6 0-61.92 25.024-66.08 58.336l-11.36 90.976a94.944 94.944 0 1 0 188.416 23.552l21.6-172.832H224.48zM950.304 218.4a151.936 151.936 0 0 0-150.752-133.088h-229.216l33.6 268.768a180.288 180.288 0 0 0 357.76-44.736l-11.36-90.976z m-150.752-47.744c33.568 0 61.92 25.024 66.08 58.336l11.36 90.976a94.944 94.944 0 1 1-188.416 23.552l-21.6-172.832h132.544z" p-id="32572"></path><path d="M170.656 426.656v298.656a128 128 0 0 0 128 128h426.656a128 128 0 0 0 128-128v-298.656h85.344v298.656a213.344 213.344 0 0 1-213.344 213.344H298.656a213.344 213.344 0 0 1-213.344-213.344v-298.656h85.344z" p-id="32573"></path></svg>