<?xml version="1.0" standalone="no"?><!DOCTYPE svg PUBLIC "-//W3C//DTD SVG 1.1//EN" "http://www.w3.org/Graphics/SVG/1.1/DTD/svg11.dtd"><svg t="1752807358208" class="icon" viewBox="0 0 1024 1024" version="1.1" xmlns="http://www.w3.org/2000/svg" p-id="4802" xmlns:xlink="http://www.w3.org/1999/xlink" width="200" height="200"><path d="M469.333333 85.333333a42.666667 42.666667 0 0 1 39.68 27.008l89.728 227.541334 227.584 89.728a42.666667 42.666667 0 0 1 0 79.445333l-227.584 89.685333-89.685333 227.584a42.666667 42.666667 0 0 1-79.445333 0l-89.728-227.584-227.541334-89.685333a42.666667 42.666667 0 0 1 0-79.445333l227.541334-89.728 89.728-227.541334 2.858666-5.845333A42.666667 42.666667 0 0 1 469.333333 85.333333zM412.501333 388.437333a42.709333 42.709333 0 0 1-24.064 24.064L244.352 469.333333l144.085333 56.832 4.010667 1.834667a42.666667 42.666667 0 0 1 20.053333 22.186667L469.333333 694.314667l56.832-144.085334c4.352-11.008 13.056-19.712 24.021334-24.064L694.314667 469.333333l-144.085334-56.832a42.709333 42.709333 0 0 1-24.064-24.064L469.333333 244.352 412.501333 388.437333zM779.093333 623.232a10.965333 10.965333 0 0 1 20.48 0l42.325334 107.349333a10.965333 10.965333 0 0 0 6.186666 6.186667l107.392 42.368a10.965333 10.965333 0 0 1 0 20.394667l-107.392 42.368a10.965333 10.965333 0 0 0-6.186666 6.186666l-42.368 107.392a10.965333 10.965333 0 0 1-20.394667 0l-42.368-107.392a10.965333 10.965333 0 0 0-6.186667-6.186666l-107.392-42.368a10.965333 10.965333 0 0 1 0-20.394667l107.392-42.368a10.965333 10.965333 0 0 0 6.186667-6.186667l42.368-107.392z" p-id="4803"></path></svg>