<?xml version="1.0" standalone="no"?><!DOCTYPE svg PUBLIC "-//W3C//DTD SVG 1.1//EN" "http://www.w3.org/Graphics/SVG/1.1/DTD/svg11.dtd"><svg t="1746693671571" class="icon" viewBox="0 0 1024 1024" version="1.1" xmlns="http://www.w3.org/2000/svg" p-id="31940" xmlns:xlink="http://www.w3.org/1999/xlink" width="200" height="200"><path d="M117.76 809.824a32 32 0 0 1 32-32h31.584v-30.304a32 32 0 0 1 64 0v30.304h31.584a32 32 0 0 1 0 64h-31.584v33.28a32 32 0 0 1-64 0v-33.28H149.76a32 32 0 0 1-32-32z" p-id="31941"></path><path d="M134.4 83.392c37.984-31.008 88.704-40.736 148.064-40.736H741.12c59.328 0 110.08 9.728 148.064 40.736 38.528 31.456 55.584 77.952 63.904 131.104a31.904 31.904 0 0 1 0.224 1.728l11.968 103.84c4.96 44.128-7.456 83.424-31.2 114.368 0.48 2.432 0.736 4.96 0.736 7.52v206.88c0 106.624-19.36 191.232-72.384 248.576-53.728 58.08-133.92 79.648-234.368 79.648H398.08c-19.2 0-37.632-0.8-55.328-2.624a205.216 205.216 0 0 1-129.44 45.312 206.656 206.656 0 0 1-158.72-73.92l-0.064-0.096-1.248-1.312a158.016 158.016 0 0 1-18.944-26.336 205.76 205.76 0 0 1-30.08-107.424c0-65.632 30.208-124.736 78.272-162.976 2.88-2.336 5.792-4.608 8.8-6.752v-198.976c0-1.696 0.096-3.36 0.32-4.992-25.12-31.264-38.432-71.52-33.344-116.896v-0.096l11.936-103.712 0.224-1.728c8.32-53.184 25.376-99.648 63.904-131.104z m33.696 523.2a206.976 206.976 0 0 1 45.216-4.992c51.712 0 98.656 18.56 135.168 49.984 7.36 5.696 13.504 11.968 18.208 17.152a209.536 209.536 0 0 1 55.68 141.952c0 31.808-7.232 62.336-20.352 89.6h226.016c91.552 0 145.536-19.904 177.984-55.008 33.152-35.84 51.968-96.16 51.968-196.416V490.88a205.6 205.6 0 0 1-75.936 14.336 195.84 195.84 0 0 1-136-55.904c-31.904 34.912-80.384 55.904-132.8 55.904-52.928 0-102.048-21.44-134.112-57.056a196.064 196.064 0 0 1-137.248 57.056 206.528 206.528 0 0 1-73.824-13.472v114.88z m139.648 296.064c6.624-6.208 12.864-14.208 18.496-23.68l0.32-0.544a128.928 128.928 0 0 0 19.04-67.744c0-34.528-13.44-65.952-35.552-90.112l-0.096-0.128a69.44 69.44 0 0 0-10.88-10.112 128.96 128.96 0 0 0-85.696-31.936c-23.36 0-45.44 6.24-64.64 17.152l-1.12 0.608a96.288 96.288 0 0 0-16.512 11.008l-0.544 0.448a130.976 130.976 0 0 0-49.472 103.04c0 24.8 6.944 48.128 19.04 67.744l0.768 1.344c2.336 4.16 5.44 8.512 9.344 13.024l0.352 0.416 1.248 1.344a129.824 129.824 0 0 0 101.504 48.416 128.192 128.192 0 0 0 86.24-32.544 39.04 39.04 0 0 1 8.16-7.744zM154.912 226.88l-11.84 102.784c-5.024 44.832 32.064 90.176 98.848 90.176 53.088 0 94.4-38.304 98.4-74.752v-0.128L364.832 128H282.464c-52.448 0-78.944 9.12-94.08 21.504-14.496 11.84-26.4 33.056-33.44 77.376zM572.864 128l25.6 226.528 0.064 0.448 0.256 1.888c-4.192 32.992-34.56 62.976-85.472 62.976-58.688 0-90.24-39.776-86.016-77.824L451.584 128h121.312z m111.808 224.192c8.896 34.592 48.288 67.648 97.408 67.648 66.592 0 103.456-45.184 98.4-90.176v-0.032l-11.84-102.72c-7.04-44.32-18.944-65.568-33.44-77.376-15.136-12.352-41.632-21.504-94.08-21.504h-80.64l23.2 204.576c0.736 6.656 1.056 13.216 0.992 19.616z" p-id="31942"></path></svg>