<?xml version="1.0" standalone="no"?><!DOCTYPE svg PUBLIC "-//W3C//DTD SVG 1.1//EN" "http://www.w3.org/Graphics/SVG/1.1/DTD/svg11.dtd"><svg t="1746693692368" class="icon" viewBox="0 0 1024 1024" version="1.1" xmlns="http://www.w3.org/2000/svg" p-id="33201" xmlns:xlink="http://www.w3.org/1999/xlink" width="200" height="200"><path d="M452.384 58.592a213.6 213.6 0 0 1 119.616 0l243.872 71.264a170.688 170.688 0 0 1 122.784 163.84v133.952a604.16 604.16 0 0 1-356.16 550.88 172 172 0 0 1-140.928 0A604.16 604.16 0 0 1 85.312 427.584V293.76a170.72 170.72 0 0 1 122.88-163.84l244.16-71.296z m303.104 295.52a42.624 42.624 0 0 0-60.32 0l-225.824 225.824-119.168-119.168a42.624 42.624 0 1 0-60.32 60.32l149.344 149.344a42.624 42.624 0 0 0 60.32 0l256-256a42.624 42.624 0 0 0 0-60.32z" p-id="33202"></path></svg>