<?xml version="1.0" standalone="no"?><!DOCTYPE svg PUBLIC "-//W3C//DTD SVG 1.1//EN" "http://www.w3.org/Graphics/SVG/1.1/DTD/svg11.dtd"><svg t="1751029948586" class="icon" viewBox="0 0 1024 1024" version="1.1" xmlns="http://www.w3.org/2000/svg" p-id="2373" xmlns:xlink="http://www.w3.org/1999/xlink" width="200" height="200"><path d="M853.333333 213.333333a42.666667 42.666667 0 0 0-42.666666-42.666666h-220.672a42.666667 42.666667 0 0 0-30.165334 12.501333l-384 384a42.666667 42.666667 0 0 0 0 60.330667l220.672 220.672a42.666667 42.666667 0 0 0 60.330667 0l384-384a42.666667 42.666667 0 0 0 12.501333-30.165334V213.333333z m85.333334 220.672a128 128 0 0 1-37.504 90.496l-384 384a128 128 0 0 1-180.992 0l-220.672-220.672a128 128 0 0 1 0-180.992l384-384A128 128 0 0 1 589.994667 85.333333H810.666667a128 128 0 0 1 128 128v220.672z" p-id="2374"></path><path d="M682.666667 298.666667m-42.666667 0a42.666667 42.666667 0 1 0 85.333333 0 42.666667 42.666667 0 1 0-85.333333 0Z" p-id="2375"></path></svg>