<?xml version="1.0" standalone="no"?><!DOCTYPE svg PUBLIC "-//W3C//DTD SVG 1.1//EN" "http://www.w3.org/Graphics/SVG/1.1/DTD/svg11.dtd"><svg t="1746693739303" class="icon" viewBox="0 0 1024 1024" version="1.1" xmlns="http://www.w3.org/2000/svg" p-id="36200" xmlns:xlink="http://www.w3.org/1999/xlink" width="200" height="200"><path d="M879.04 86.848c9.728 0.832 19.904 3.744 30.112 9.824l4.992 3.36c11.36 8.512 20.416 21.76 24.256 35.776l1.376 6.016c2.656 13.984 1.408 28.192-1.888 43.008l0.032 0.032-131.552 673.664-0.128 0.32-1.248 3.072 0.032 0.032-0.032 0.096a0.768 0.768 0 0 0-0.096 0.224l-0.288 0.704-1.152 2.592a97.248 97.248 0 0 1-26.112 33.088h-0.032c-20.064 16.16-57.472 25.024-94.24 8.928v0.032l-3.84-1.664-0.448-0.224-0.384-0.288-167.552-128.544-99.328 90.464-1.216 0.96h-0.032v0.032l-0.096 0.032-0.256 0.16a8.736 8.736 0 0 1-0.832 0.576c-0.704 0.48-1.728 1.184-3.04 1.952-2.624 1.568-6.464 3.52-11.168 5.216a58.624 58.624 0 0 1-36.864 1.344c-1.6-0.256-2.816-0.352-4.416-0.832l-0.096-0.032c-0.448-0.16-0.8-0.352-0.992-0.448l-0.288-0.16-0.16-0.096 0.384 0.096v-0.096a4.8 4.8 0 0 1-0.832-0.384v0.096a41.984 41.984 0 0 1-7.136-3.328l-0.032-0.032a53.376 53.376 0 0 1-14.368-13.344v-0.032c-6.048-7.584-11.168-16.864-16-29.6l-4.8-13.984c-10.496-33.056-53.504-174.304-62.592-203.616l-170.336-57.248-0.128-0.032-0.416-0.16-1.536-0.576a103.36 103.36 0 0 1-13.216-6.432l-8.992-5.76c-11.424-8.096-27.552-22.752-32.288-46.784l-0.8-4.928a62.272 62.272 0 0 1 10.432-41.696l5.28-6.88c5.376-6.208 11.072-10.656 16.32-14.08l9.92-6.08a116.864 116.864 0 0 1 14.56-6.752c0.288-0.096 0.544-0.256 0.8-0.32l1.152-0.448 6.176-2.592 23.296-9.824c20.096-8.48 48.864-20.544 83.424-35.136l254.784-107.328 391.008-164.224a107.456 107.456 0 0 1 33.376-7.84l9.536 0.16z m-143.872 134.336l0.032 0.032-259.744 109.472-254.88 107.328-83.424 35.168-23.328 9.824c-0.8 0.352-1.6 0.608-2.304 0.928l195.552 65.824 426.752-264.32 0.192-0.096 0.8-0.384c0.672-0.288 1.6-0.704 2.72-1.12 2.176-0.864 5.184-1.888 8.288-2.368a14.816 14.816 0 0 1 9.92 1.376c3.168 1.92 4.576 5.28 4.672 9.472l0.224 0.288a7.2 7.2 0 0 1 0.32 4.96c-0.672 2.592-2.528 5.856-6.432 10.08l-4.64 4.576-175.2 163.296-113.536 105.824-37.12 34.592-10.336 9.664c-1.152 1.088-2.08 1.888-2.72 2.464l-24.544 156.512 120-109.344 2.528 1.952 207.584 159.136c5.344 2.112 8.032 2.656 9.504 2.624 1.024-0.032 1.44-0.288 2.592-1.216l0.032-0.032 2.08-2.176a16.352 16.352 0 0 0 0.8-1.344l130.016-665.28v-0.544c-11.552 4.8-61.376 25.504-126.432 52.832z" p-id="36201"></path></svg>