<?xml version="1.0" standalone="no"?><!DOCTYPE svg PUBLIC "-//W3C//DTD SVG 1.1//EN" "http://www.w3.org/Graphics/SVG/1.1/DTD/svg11.dtd"><svg t="1746693647733" class="icon" viewBox="0 0 1024 1024" version="1.1" xmlns="http://www.w3.org/2000/svg" p-id="30365" xmlns:xlink="http://www.w3.org/1999/xlink" width="200" height="200"><path d="M554.656 426.656h128a42.656 42.656 0 0 0 0-85.312H341.312a42.656 42.656 0 0 0 0 85.312h128V640a42.656 42.656 0 0 0 85.312 0v-213.344z" p-id="30366"></path><path d="M227.552 128.16c26.56-16.448 58.88-27.904 91.168-27.904h386.56c32.288 0 64.608 11.456 91.168 27.872s51.296 40.192 65.664 69.248l102.368 205.568c17.248 34.528 20.288 74.24 13.504 110.112-6.72 35.392-23.648 70.592-51.136 96.288l-294.752 310.048a38.08 38.08 0 0 1-2.304 2.24c-65.312 59.072-169.824 59.072-235.168 0a50.976 50.976 0 0 1-2.304-2.24l-294.688-309.984c-27.744-25.76-44.736-61.024-51.36-96.448-6.752-35.936-3.52-75.616 13.664-110.048l102.304-205.44c14.176-29.12 38.848-52.96 65.312-69.344z m44.928 72.544c-16.352 10.144-28.096 22.912-33.568 34.208l-0.192 0.416-102.432 205.728c-7.52 15.04-10.08 35.296-6.144 56.192s13.632 38.848 26.08 50.112c0.8 0.704 1.536 1.44 2.272 2.208l294.464 309.76c32.576 28.416 85.952 28.416 118.528 0l294.464-309.76c0.672-0.704 1.376-1.408 2.112-2.08 12.384-11.328 22.112-29.376 26.08-50.336s1.472-41.152-5.984-56.128l-0.032-0.064-102.432-205.76c-5.696-11.488-17.632-24.384-34.048-34.528s-33.376-15.136-46.304-15.136H318.784c-12.96 0-29.888 4.992-46.24 15.104z" p-id="30367"></path></svg>