<?xml version="1.0" standalone="no"?><!DOCTYPE svg PUBLIC "-//W3C//DTD SVG 1.1//EN" "http://www.w3.org/Graphics/SVG/1.1/DTD/svg11.dtd"><svg t="1746693704322" class="icon" viewBox="0 0 1024 1024" version="1.1" xmlns="http://www.w3.org/2000/svg" p-id="33988" xmlns:xlink="http://www.w3.org/1999/xlink" width="200" height="200"><path d="M479.968 162.656a218.688 218.688 0 0 0-309.248 309.248l93.312 93.312a42.656 42.656 0 1 0 60.352-60.352l-93.312-93.312a133.376 133.376 0 0 1 188.576-188.576l93.312 93.312a42.656 42.656 0 1 0 60.352-60.352L480 162.624zM842.144 173.792a42.656 42.656 0 0 0-60.352 0L181.824 773.76a42.656 42.656 0 1 0 60.352 60.352L842.144 234.144a42.656 42.656 0 0 0 0-60.352zM699.648 442.656a42.656 42.656 0 0 0 0 60.352l93.312 93.312a133.376 133.376 0 0 1-188.576 188.576l-93.312-93.312a42.656 42.656 0 1 0-60.352 60.352l93.312 93.312a218.688 218.688 0 0 0 309.248-309.248l-93.312-93.312a42.656 42.656 0 0 0-60.352 0z" p-id="33989"></path></svg>