<?xml version="1.0" standalone="no"?><!DOCTYPE svg PUBLIC "-//W3C//DTD SVG 1.1//EN" "http://www.w3.org/Graphics/SVG/1.1/DTD/svg11.dtd"><svg t="1752807340854" class="icon" viewBox="0 0 1024 1024" version="1.1" xmlns="http://www.w3.org/2000/svg" p-id="3998" xmlns:xlink="http://www.w3.org/1999/xlink" width="200" height="200"><path d="M97.834667 225.834667a42.666667 42.666667 0 0 0 60.330666 60.330666L213.333333 230.997333V640a170.666667 170.666667 0 0 0 170.666667 170.666667h42.666667a42.666667 42.666667 0 1 0 0-85.333334H384a85.333333 85.333333 0 0 1-85.333333-85.333333V230.997333l55.168 55.168a42.666667 42.666667 0 0 0 60.330666-60.330666l-128-128a42.666667 42.666667 0 0 0-60.330666 0l-128 128zM670.165333 737.834667a42.666667 42.666667 0 0 0-60.330666 60.330666l128 128a42.666667 42.666667 0 0 0 60.330666 0l128-128a42.666667 42.666667 0 0 0-60.330666-60.330666L810.666667 793.002667V384a170.666667 170.666667 0 0 0-170.666667-170.666667h-42.666667a42.666667 42.666667 0 1 0 0 85.333334h42.666667a85.333333 85.333333 0 0 1 85.333333 85.333333v409.002667l-55.168-55.168z" p-id="3999"></path></svg>