<?xml version="1.0" standalone="no"?><!DOCTYPE svg PUBLIC "-//W3C//DTD SVG 1.1//EN" "http://www.w3.org/Graphics/SVG/1.1/DTD/svg11.dtd"><svg t="1746693643058" class="icon" viewBox="0 0 1024 1024" version="1.1" xmlns="http://www.w3.org/2000/svg" p-id="30050" xmlns:xlink="http://www.w3.org/1999/xlink" width="200" height="200"><path d="M150.048 458.368l181.024 181.024 120.576-120.576-0.096-0.096 60.352-60.352 0.096 0.096 0.096-0.096 60.352 60.352-0.096 0.096 120.576 120.576 181.024-181.024 60.352 60.352-241.344 241.344-180.896-180.896-180.928 180.896-241.344-241.344 60.352-60.352zM331.264 409.888l-30.176 30.176-60.352-60.352 30.176-30.176c133.312-133.312 349.408-133.312 482.72 0l30.176 30.176-60.352 60.352-30.176-30.176a256 256 0 0 0-362.048 0z" p-id="30051"></path></svg>