<?xml version="1.0" standalone="no"?><!DOCTYPE svg PUBLIC "-//W3C//DTD SVG 1.1//EN" "http://www.w3.org/Graphics/SVG/1.1/DTD/svg11.dtd"><svg t="1751029935651" class="icon" viewBox="0 0 1024 1024" version="1.1" xmlns="http://www.w3.org/2000/svg" p-id="1885" xmlns:xlink="http://www.w3.org/1999/xlink" width="200" height="200"><path d="M874.666667 362.666667a42.666667 42.666667 0 1 1 0 85.333333h-256a42.666667 42.666667 0 0 1-42.666667-42.666667v-256a42.666667 42.666667 0 1 1 85.333333 0v153.002667l204.501334-204.501333a42.666667 42.666667 0 1 1 60.330666 60.330666L721.664 362.666667H874.666667zM97.834667 926.165333a42.666667 42.666667 0 0 1 0-60.330666L302.336 661.333333H149.333333a42.666667 42.666667 0 1 1 0-85.333333h256a42.666667 42.666667 0 0 1 42.666667 42.666667v256a42.666667 42.666667 0 1 1-85.333333 0v-153.002667l-204.501334 204.501333a42.666667 42.666667 0 0 1-60.330666 0z" p-id="1886"></path></svg>