<?xml version="1.0" standalone="no"?><!DOCTYPE svg PUBLIC "-//W3C//DTD SVG 1.1//EN" "http://www.w3.org/Graphics/SVG/1.1/DTD/svg11.dtd"><svg t="1669042111946" class="icon" viewBox="0 0 1024 1024" version="1.1" xmlns="http://www.w3.org/2000/svg" p-id="21851" xmlns:xlink="http://www.w3.org/1999/xlink" width="200" height="200"><path d="M512 42.656C252.8 42.656 42.656 252.768 42.656 512S252.768 981.344 512 981.344c259.2 0 469.344-210.112 469.344-469.344S771.232 42.656 512 42.656z m0 256c23.552 0 42.656 19.104 42.656 42.656v128h128a42.656 42.656 0 0 1 0 85.312h-128v128a42.656 42.656 0 0 1-85.312 0v-128h-128a42.656 42.656 0 0 1 0-85.312h128v-128c0-23.552 19.104-42.656 42.656-42.656z" p-id="21852"></path></svg>