<?xml version="1.0" standalone="no"?><!DOCTYPE svg PUBLIC "-//W3C//DTD SVG 1.1//EN" "http://www.w3.org/Graphics/SVG/1.1/DTD/svg11.dtd"><svg t="1669042115262" class="icon" viewBox="0 0 1024 1024" version="1.1" xmlns="http://www.w3.org/2000/svg" p-id="22005" xmlns:xlink="http://www.w3.org/1999/xlink" width="200" height="200"><path d="M512 106.656a298.656 298.656 0 0 0-298.656 298.656v341.344c0 23.552 19.104 42.656 42.656 42.656h512c23.552 0 42.656-19.104 42.656-42.656V405.312A298.656 298.656 0 0 0 512 106.656z m-2.336 229.856c6.816-10.912 23.648-6.08 23.648 6.784v126.016h40.992a12.8 12.8 0 0 1 10.848 19.584l-70.784 113.248c-6.816 10.912-23.648 6.08-23.648-6.784v-126.016h-40.992a12.8 12.8 0 0 1-10.848-19.584l70.784-113.248zM149.344 853.344a42.656 42.656 0 0 0 0 85.312h725.344a42.656 42.656 0 0 0 0-85.312H149.344z" p-id="22006"></path></svg>