<?xml version="1.0" standalone="no"?><!DOCTYPE svg PUBLIC "-//W3C//DTD SVG 1.1//EN" "http://www.w3.org/Graphics/SVG/1.1/DTD/svg11.dtd"><svg t="1722934066894" class="icon" viewBox="0 0 1024 1024" version="1.1" xmlns="http://www.w3.org/2000/svg" p-id="8737" xmlns:xlink="http://www.w3.org/1999/xlink" width="200" height="200"><path d="M213.333333 512a42.666667 42.666667 0 0 1 42.666667-42.666667h384a42.666667 42.666667 0 1 1 0 85.333334H256a42.666667 42.666667 0 0 1-42.666667-42.666667zM256 640a42.666667 42.666667 0 1 0 0 85.333333h170.666667a42.666667 42.666667 0 1 0 0-85.333333H256z" p-id="8738"></path><path d="M602.496 136.832a128 128 0 0 0-180.992 0L281.002667 277.333333H128a85.333333 85.333333 0 0 0-85.333333 85.333334v469.333333a85.333333 85.333333 0 0 0 85.333333 85.333333h768a85.333333 85.333333 0 0 0 85.333333-85.333333v-469.333333a85.333333 85.333333 0 0 0-85.333333-85.333334h-153.002667l-140.501333-140.501333z m-120.661333 60.330667a42.666667 42.666667 0 0 1 60.330666 0L622.336 277.333333H401.664l80.170667-80.170666zM128 362.666667h768v469.333333H128v-469.333333z" p-id="8739"></path></svg>