<?xml version="1.0" standalone="no"?><!DOCTYPE svg PUBLIC "-//W3C//DTD SVG 1.1//EN" "http://www.w3.org/Graphics/SVG/1.1/DTD/svg11.dtd"><svg t="1669099478421" class="icon" viewBox="0 0 1024 1024" version="1.1" xmlns="http://www.w3.org/2000/svg" p-id="2448" xmlns:xlink="http://www.w3.org/1999/xlink" width="200" height="200"><path d="M213.344 743.232A85.344 85.344 0 0 1 128 657.888V362.88a85.344 85.344 0 0 1 85.344-85.344H313.6a617.44 617.44 0 0 1 66.88-83.104c48.608-50.336 124.256-109.152 216.832-109.152 23.552 0 42.656 19.104 42.656 42.656v768c0 23.552-19.104 42.656-42.656 42.656-92.864 0-168.576-59.936-217.088-111.008-25.088-26.4-58.592-72.224-58.592-72.224l-9.824-8.672-98.496-3.552z m160.672-402.08s-2.656 7.008-15.008 15.488c-9.984 6.88-21.664 6.24-21.664 6.24H256c-23.552 0-42.656 19.104-42.656 42.656v209.6c0 23.552 19.104 42.656 42.656 42.656h85.152s12.288 1.504 21.824 8.832c7.84 6.016 12.704 15.488 12.704 15.488l2.624 4.288a533.376 533.376 0 0 0 63.776 82.464c33.024 34.752 71.648 64.576 112.544 77.536V177.376c-41.088 12.736-79.808 42.176-112.8 76.352a527.648 527.648 0 0 0-63.744 81.024l-4.16 6.368zM739.008 671.488a42.656 42.656 0 1 0 56.672 63.776A298.368 298.368 0 0 0 896 512.32a298.688 298.688 0 0 0-99.84-223.168 42.72 42.72 0 0 0-56.832 63.68 213.28 213.28 0 0 1-0.352 318.656z" p-id="2449"></path></svg>