<?xml version="1.0" standalone="no"?><!DOCTYPE svg PUBLIC "-//W3C//DTD SVG 1.1//EN" "http://www.w3.org/Graphics/SVG/1.1/DTD/svg11.dtd"><svg t="1669041228794" class="icon" viewBox="0 0 1024 1024" version="1.1" xmlns="http://www.w3.org/2000/svg" p-id="5555" xmlns:xlink="http://www.w3.org/1999/xlink" width="200" height="200"><path d="M926.176 97.824a42.656 42.656 0 0 1 0 60.352l-79.552 79.552c30.368 46.4 35.488 97.12 28.896 140.672-7.872 52.032-32.896 98.016-56.032 121.12l-64 64a42.656 42.656 0 0 1-60.352 0l-234.656-234.656a42.656 42.656 0 0 1 0-60.352l64-64c23.104-23.104 69.088-48.128 121.12-56 43.584-6.592 94.272-1.504 140.672 28.896l79.552-79.552a42.656 42.656 0 0 1 60.352 0z m-167.008 167.008c-31.04-31.04-67.04-37.088-100.768-32-35.968 5.44-64.672 23.104-73.568 32l-33.824 33.824 174.336 174.336 33.824-33.824c8.896-8.896 26.528-37.568 31.968-73.568 5.12-33.728-0.96-69.728-31.968-100.768z m-302.336 152.992a42.656 42.656 0 0 1 0 60.352l-55.168 55.168 88.992 88.992 55.168-55.168a42.656 42.656 0 1 1 60.352 60.352l-55.168 55.168 12.512 12.512a42.656 42.656 0 0 1 0 60.352l-64 64c-23.104 23.104-69.088 48.128-121.12 56.032-43.584 6.592-94.272 1.504-140.672-28.896l-79.552 79.552a42.656 42.656 0 1 1-60.352-60.352l79.552-79.552c-30.368-46.4-35.488-97.12-28.896-140.672 7.872-52.032 32.896-98.016 56-121.12l64-64a42.656 42.656 0 0 1 60.352 0l12.512 12.512 55.168-55.168a42.656 42.656 0 0 1 60.352 0z m-158.176 133.184l-33.824 33.824c-8.896 8.896-26.528 37.568-32 73.568-5.12 33.728 0.96 69.728 32 100.768s67.04 37.088 100.768 31.968c35.968-5.44 64.672-23.104 73.568-31.968l33.824-33.824-174.336-174.336z" p-id="5556"></path></svg>