<?xml version="1.0" standalone="no"?><!DOCTYPE svg PUBLIC "-//W3C//DTD SVG 1.1//EN" "http://www.w3.org/Graphics/SVG/1.1/DTD/svg11.dtd"><svg t="1722934169231" class="icon" viewBox="0 0 1024 1024" version="1.1" xmlns="http://www.w3.org/2000/svg" p-id="10191" xmlns:xlink="http://www.w3.org/1999/xlink" width="200" height="200"><path d="M98.986667 256a213.333333 213.333333 0 0 1 213.333333-213.333333h399.786667a213.333333 213.333333 0 0 1 213.333333 213.333333v620.074667c0 80-84.736 131.498667-155.733333 94.72l-218.24-113.066667a85.333333 85.333333 0 0 0-78.506667 0l-218.24 113.066667c-70.997333 36.778667-155.733333-14.72-155.733333-94.72V256z m213.333333-128a128 128 0 0 0-128 128v620.074667a21.333333 21.333333 0 0 0 31.146667 18.944l218.24-113.066667a170.666667 170.666667 0 0 1 157.013333 0l218.24 113.066667a21.333333 21.333333 0 0 0 31.146667-18.944V256a128 128 0 0 0-128-128H312.32z" p-id="10192"></path><path d="M691.498667 332.501333a42.666667 42.666667 0 0 1 0 60.330667l-170.666667 170.666667a42.666667 42.666667 0 0 1-60.330667 0l-106.666666-106.666667a42.666667 42.666667 0 1 1 60.330666-60.330667l76.501334 76.501334 140.501333-140.501334a42.666667 42.666667 0 0 1 60.330667 0z" p-id="10193"></path></svg>