<?xml version="1.0" standalone="no"?><!DOCTYPE svg PUBLIC "-//W3C//DTD SVG 1.1//EN" "http://www.w3.org/Graphics/SVG/1.1/DTD/svg11.dtd"><svg t="1669041287903" class="icon" viewBox="0 0 1024 1024" version="1.1" xmlns="http://www.w3.org/2000/svg" p-id="7252" xmlns:xlink="http://www.w3.org/1999/xlink" width="200" height="200"><path d="M161.504 316.448a217.376 217.376 0 1 1 434.752 0 217.376 217.376 0 0 1-434.752 0z m217.408-132.064a132.064 132.064 0 1 0 0 264.16 132.064 132.064 0 0 0 0-264.16zM74.144 882.272c0-171.456 138.496-289.152 303.552-289.152 164.512 0 305.952 117.216 305.952 289.152a42.656 42.656 0 0 1-85.312 0c0-117.568-95.648-203.808-220.608-203.808-124.448 0-218.24 85.76-218.24 203.808a42.656 42.656 0 0 1-85.312 0zM669.76 426.656c0-23.552 19.104-42.656 42.656-42.656h252.512a42.656 42.656 0 0 1 0 85.312h-252.512a42.656 42.656 0 0 1-42.656-42.656zM717.984 597.344c0-23.552 19.104-42.656 42.656-42.656h156a42.656 42.656 0 0 1 0 85.312H760.64a42.656 42.656 0 0 1-42.656-42.656z" p-id="7253"></path></svg>