<?xml version="1.0" standalone="no"?><!DOCTYPE svg PUBLIC "-//W3C//DTD SVG 1.1//EN" "http://www.w3.org/Graphics/SVG/1.1/DTD/svg11.dtd"><svg t="1708675210255" class="icon" viewBox="0 0 1024 1024" version="1.1" xmlns="http://www.w3.org/2000/svg" p-id="1749" xmlns:xlink="http://www.w3.org/1999/xlink" width="200" height="200"><path d="M708.309333 67.669333a42.666667 42.666667 0 1 0-85.333333 0v172.629334L567.808 185.173333a42.666667 42.666667 0 1 0-60.330667 60.330667l128 128a42.666667 42.666667 0 0 0 60.330667 0l128-128a42.666667 42.666667 0 1 0-60.330667-60.330667l-55.168 55.168V67.669333zM334.250667 497.493333V324.821333l55.168 55.168A42.666667 42.666667 0 0 0 449.706667 319.573333l-128-128a42.666667 42.666667 0 0 0-60.330667 0l-128 128A42.666667 42.666667 0 1 0 193.706667 379.989333l55.168-55.168v172.672a42.666667 42.666667 0 1 0 85.333333 0zM880.426667 622.336a368.768 368.768 0 0 0-74.88-56.192c-31.018667-17.408-63.274667-28.544-93.056-28.544-14.293333 0-36.565333 3.712-64.341334 11.221333-27.136 7.338667-57.130667 17.578667-85.930666 29.141334-28.8 11.52-55.68 24.064-76.714667 35.669333a366.549333 366.549333 0 0 0-18.048 10.709333 179.114667 179.114667 0 0 0-7.424 5.077334 96.426667 96.426667 0 0 0-6.485333 4.992c2.048 3.882667 6.016 9.429333 12.416 16.128 6.058667 6.314667 12.8 12.202667 18.858666 17.066666l97.92-32a39.253333 39.253333 0 0 1 49.493334 24.277334c6.826667 20.096-4.266667 41.813333-24.746667 48.554666l-117.333333 38.4-0.469334 0.128-0.597333 0.170667a40.106667 40.106667 0 0 1-18.986667 0.938667l-12.629333-2.474667a14100.096 14100.096 0 0 0-138.496-26.24c-39.04-7.210667-79.061333-14.336-111.701333-19.669333a1531.648 1531.648 0 0 0-42.794667-6.485334c2.304 2.858667 5.12 5.973333 8.448 9.258667 17.92 17.578667 59.733333 54.101333 110.677333 85.930667 52.053333 32.512 107.818667 56.405333 155.050667 56.405333 52.053333 0 95.957333-12.672 139.221333-26.837333l13.312-4.394667c37.632-12.501333 79.274667-26.368 121.301334-26.368h195.584c21.632 0 39.125333 17.194667 39.125333 38.4s-17.493333 38.4-39.125333 38.4h-195.584c-28.373333 0-57.173333 9.514667-97.621334 22.826667l-12.245333 4.010666c-44.8 14.634667-98.688 30.762667-163.968 30.762667-70.101333 0-141.525333-33.706667-197.034667-68.394667a780.032 780.032 0 0 1-124.032-96.426666c-22.570667-22.186667-40.789333-50.645333-40.789333-79.957334 0-16.128 5.802667-33.536 20.693333-46.293333 14.208-12.245333 31.914667-16.128 47.786667-16.128 13.781333 0 43.349333 4.352 74.88 9.514667a4365.824 4365.824 0 0 1 95.146667 16.64l18.090666 3.328c14.848 2.688 29.482667 5.418667 43.52 8.064-5.12-18.090667-4.608-40.32 10.88-60.586667a123.306667 123.306667 0 0 1 26.026667-23.893333 290.730667 290.730667 0 0 1 27.477333-17.493334l5.802667-3.2a783.189333 783.189333 0 0 1 85.589333-39.936c31.104-12.458667 64.042667-23.765333 94.72-32.042666 29.952-8.106667 60.245333-13.994667 85.077334-13.994667 48.469333 0 94.421333 17.664 131.84 38.656a446.805333 446.805333 0 0 1 91.392 68.608 37.888 37.888 0 0 1 0 54.272 39.637333 39.637333 0 0 1-55.296 0z" p-id="1750"></path></svg>