<?xml version="1.0" standalone="no"?><!DOCTYPE svg PUBLIC "-//W3C//DTD SVG 1.1//EN" "http://www.w3.org/Graphics/SVG/1.1/DTD/svg11.dtd"><svg t="1669041964389" class="icon" viewBox="0 0 1024 1024" version="1.1" xmlns="http://www.w3.org/2000/svg" p-id="17240" xmlns:xlink="http://www.w3.org/1999/xlink" width="200" height="200"><path d="M867.904 254.304a46.816 46.816 0 1 0-74.944-56.192l-134.496 179.264a8.544 8.544 0 0 1-15.36-5.12V214.912a46.816 46.816 0 1 0-93.632 0v438.88a46.816 46.816 0 1 0 93.632 0v-196.48c0-8.672 11.392-11.808 15.84-4.384l131.296 218.848a46.848 46.848 0 0 0 80.32-48.192l-124.32-207.136 121.6-162.112zM174.816 700.608c25.856 0 46.816-20.96 46.816-46.816v-176.64h93.664a140.48 140.48 0 0 0 140.48-140.48V289.856a140.48 140.48 0 0 0-140.48-140.48H127.968v504.448c0 25.856 20.96 46.816 46.816 46.816zM221.664 242.976h93.664c25.856 0 46.816 20.96 46.816 46.816v46.816c0 25.856-20.96 46.816-46.816 46.816H221.664v-140.48zM128 832.736c0-23.136 18.752-41.888 41.888-41.888h684.224a41.888 41.888 0 1 1 0 83.776H169.888A41.888 41.888 0 0 1 128 832.736z" p-id="17241"></path></svg>