<?xml version="1.0" standalone="no"?><!DOCTYPE svg PUBLIC "-//W3C//DTD SVG 1.1//EN" "http://www.w3.org/Graphics/SVG/1.1/DTD/svg11.dtd"><svg t="1669041904466" class="icon" viewBox="0 0 1024 1024" version="1.1" xmlns="http://www.w3.org/2000/svg" p-id="14943" xmlns:xlink="http://www.w3.org/1999/xlink" width="200" height="200"><path d="M662.848 451.648l-90.496-90.496a85.344 85.344 0 0 0-120.672 0l-90.496 90.496a85.344 85.344 0 0 0 0 120.672l90.496 90.496a85.344 85.344 0 0 0 120.672 0l90.496-90.496a85.344 85.344 0 0 0 0-120.672zM512 421.472l90.496 90.496L512 602.464l-90.496-90.496L512 421.472z" p-id="14944"></path><path d="M512 42.656C252.8 42.656 42.656 252.768 42.656 512S252.768 981.344 512 981.344c259.2 0 469.344-210.144 469.344-469.344S771.2 42.656 512 42.656zM128 512C128 299.936 299.936 128 512 128s384 171.936 384 384-171.936 384-384 384S128 724.064 128 512z" p-id="14945"></path></svg>