<?xml version="1.0" standalone="no"?><!DOCTYPE svg PUBLIC "-//W3C//DTD SVG 1.1//EN" "http://www.w3.org/Graphics/SVG/1.1/DTD/svg11.dtd"><svg t="1708658919219" class="icon" viewBox="0 0 1024 1024" version="1.1" xmlns="http://www.w3.org/2000/svg" p-id="4750" xmlns:xlink="http://www.w3.org/1999/xlink" width="200" height="200"><path d="M871.808 98.048a85.312 85.312 0 0 0-38.976 0.48l-0.192 0.064-453.952 114.752H298.656a213.44 213.44 0 0 0-150.848 364.192l1.664 1.632L206.496 870.4a85.248 85.248 0 0 0 84.832 68.288h49.984a85.376 85.376 0 0 0 85.344-85.344v-201.344l406.176 101.536a85.216 85.216 0 0 0 97.184-45.408c5.696-11.616 8.64-24.448 8.64-37.376V183.168a85.344 85.344 0 0 0-66.848-85.088z m-18.464 572.64l-426.656-106.656V289.248l426.688-107.872-0.032 1.248v488.064zM298.656 640h42.656v213.344h-51.2l-43.008-219.68c16.736 4.16 34.016 6.336 51.552 6.336z m0-85.344a127.84 127.84 0 0 1-90.944-37.92 128 128 0 0 1 90.944-218.08h42.656v256H298.656z" p-id="4751"></path></svg>