<?xml version="1.0" standalone="no"?><!DOCTYPE svg PUBLIC "-//W3C//DTD SVG 1.1//EN" "http://www.w3.org/Graphics/SVG/1.1/DTD/svg11.dtd"><svg t="1670138544076" class="icon" viewBox="0 0 1024 1024" version="1.1" xmlns="http://www.w3.org/2000/svg" p-id="1814" xmlns:xlink="http://www.w3.org/1999/xlink" width="200" height="200"><path d="M433.6 382.144a208.48 208.48 0 0 1 78.4-15.2 208.32 208.32 0 0 1 133.92 48.512 38.4 38.4 0 0 1 75.136 11.2V576a38.4 38.4 0 0 1-38.144 38.4h-0.256a38.4 38.4 0 0 1-38.4-38.4 132.256 132.256 0 0 0-181.856-122.656 38.4 38.4 0 0 1-28.832-71.2zM379.744 576a38.4 38.4 0 1 0-76.8 0v149.344a38.4 38.4 0 0 0 75.136 11.2A208.192 208.192 0 0 0 512 785.056c27.648 0 54.144-5.376 78.4-15.2a38.4 38.4 0 0 0-28.832-71.2A132.256 132.256 0 0 1 379.712 576z" p-id="1815"></path><path d="M410.464 85.728h202.464c32.096 0 61.44 17.984 76.032 46.56l41.312 81.024h123.072a128 128 0 0 1 128 128v469.344a128 128 0 0 1-128 128H170.688a128 128 0 0 1-128-128V341.312a128 128 0 0 1 128-128h122.464l41.312-81.024a85.312 85.312 0 0 1 76.032-46.56z m224 127.616l-9.664-18.976a42.688 42.688 0 0 0-38.016-23.296h-150.176c-16.032 0-30.72 8.992-38.016 23.296l-9.664 18.976h245.536zM170.656 298.656C147.104 298.656 128 317.76 128 341.312v469.344c0 23.552 19.104 42.656 42.656 42.656h682.656c23.552 0 42.656-19.104 42.656-42.656V341.312c0-23.552-19.104-42.656-42.656-42.656H170.656z" p-id="1816"></path></svg>