<?xml version="1.0" standalone="no"?><!DOCTYPE svg PUBLIC "-//W3C//DTD SVG 1.1//EN" "http://www.w3.org/Graphics/SVG/1.1/DTD/svg11.dtd"><svg t="1708658647892" class="icon" viewBox="0 0 1024 1024" version="1.1" xmlns="http://www.w3.org/2000/svg" p-id="3220" xmlns:xlink="http://www.w3.org/1999/xlink" width="200" height="200"><path d="M597.344 554.656a42.656 42.656 0 0 0 0 85.312H768a42.656 42.656 0 0 0 0-85.312h-170.656z" p-id="3221"></path><path d="M42.656 298.656v426.656a170.656 170.656 0 0 0 170.656 170.656h597.344a170.656 170.656 0 0 0 170.656-170.656V298.656A170.656 170.656 0 0 0 810.656 128H213.312a170.656 170.656 0 0 0-170.656 170.656z m170.688-85.312h597.344a85.344 85.344 0 0 1 85.344 85.344v64h-768v-64a85.344 85.344 0 0 1 85.344-85.344zM128 725.344V448h768v277.344a85.344 85.344 0 0 1-85.344 85.344H213.312a85.344 85.344 0 0 1-85.344-85.344z" p-id="3222"></path></svg>