<?xml version="1.0" standalone="no"?><!DOCTYPE svg PUBLIC "-//W3C//DTD SVG 1.1//EN" "http://www.w3.org/Graphics/SVG/1.1/DTD/svg11.dtd"><svg t="1669041892277" class="icon" viewBox="0 0 1024 1024" version="1.1" xmlns="http://www.w3.org/2000/svg" p-id="14480" xmlns:xlink="http://www.w3.org/1999/xlink" width="200" height="200"><path d="M511.808 85.344a418.24 418.24 0 0 0-298.464 124.064v-38.72a42.656 42.656 0 0 0-85.312 0v169.728a42.208 42.208 0 0 0 6.4 23.392 42.464 42.464 0 0 0 37.152 20.16h143.776a42.656 42.656 0 0 0 0-85.312H248.032c61.984-78.24 156.32-128 263.84-128 133.984 0 249.984 77.152 305.888 189.664a42.688 42.688 0 0 0 76.416-37.952c-69.76-140.384-214.688-237.024-382.304-237.024zM208.896 663.68a42.688 42.688 0 0 0-76.416 37.952c69.76 140.384 214.688 237.024 382.304 237.024a418.24 418.24 0 0 0 298.464-124.064v38.72a42.656 42.656 0 0 0 85.312 0v-169.728A42.624 42.624 0 0 0 855.008 640h-143.776a42.656 42.656 0 0 0 0 85.312h67.328c-61.984 78.24-156.32 128-263.84 128a341.312 341.312 0 0 1-305.888-189.664z" p-id="14481"></path><path d="M362.688 453.152a85.344 85.344 0 0 0 0 120.672l90.496 90.496a85.344 85.344 0 0 0 120.672 0l90.528-90.496a85.344 85.344 0 0 0 0-120.672l-90.528-90.496a85.344 85.344 0 0 0-120.672 0l-90.496 90.496z m60.352 60.352l90.496-90.496 90.496 90.496-90.496 90.496-90.496-90.496z" p-id="14482"></path></svg>