<?xml version="1.0" standalone="no"?><!DOCTYPE svg PUBLIC "-//W3C//DTD SVG 1.1//EN" "http://www.w3.org/Graphics/SVG/1.1/DTD/svg11.dtd"><svg t="1708658326588" class="icon" viewBox="0 0 1024 1024" version="1.1" xmlns="http://www.w3.org/2000/svg" p-id="1375" xmlns:xlink="http://www.w3.org/1999/xlink" width="200" height="200"><path d="M285.856 456.544c0-23.552 19.104-42.656 42.656-42.656h384a42.656 42.656 0 0 1 0 85.312h-384a42.656 42.656 0 0 1-42.656-42.656zM328.544 627.2a42.656 42.656 0 0 0 0 85.312h213.344a42.656 42.656 0 0 0 0-85.312h-213.344z" p-id="1376"></path><path d="M93.856 512C93.856 281.056 281.056 93.856 512 93.856S930.144 281.056 930.144 512c0 230.912-187.2 418.144-418.144 418.144H179.2a85.248 85.248 0 0 1-85.312-85.248V512zM512 179.2C328.192 179.2 179.2 328.192 179.2 512v332.8H512c183.808 0 332.8-148.992 332.8-332.8S695.808 179.2 512 179.2z" p-id="1377"></path></svg>