<?xml version="1.0" standalone="no"?><!DOCTYPE svg PUBLIC "-//W3C//DTD SVG 1.1//EN" "http://www.w3.org/Graphics/SVG/1.1/DTD/svg11.dtd"><svg t="1669042077363" class="icon" viewBox="0 0 1024 1024" version="1.1" xmlns="http://www.w3.org/2000/svg" p-id="20323" xmlns:xlink="http://www.w3.org/1999/xlink" width="200" height="200"><path d="M42.656 512C42.656 252.8 252.768 42.656 512 42.656S981.344 252.768 981.344 512c0 259.2-210.112 469.344-469.344 469.344S42.656 771.232 42.656 512z m378.816-150.88a42.656 42.656 0 1 0-60.352 60.352L451.648 512l-90.528 90.528a42.656 42.656 0 1 0 60.352 60.352L512 572.352l90.528 90.528a42.656 42.656 0 1 0 60.352-60.352L572.352 512l90.528-90.528a42.656 42.656 0 1 0-60.352-60.352L512 451.648l-90.528-90.528z" p-id="20324"></path></svg>