<?xml version="1.0" standalone="no"?><!DOCTYPE svg PUBLIC "-//W3C//DTD SVG 1.1//EN" "http://www.w3.org/Graphics/SVG/1.1/DTD/svg11.dtd"><svg t="1722934099083" class="icon" viewBox="0 0 1024 1024" version="1.1" xmlns="http://www.w3.org/2000/svg" p-id="9221" xmlns:xlink="http://www.w3.org/1999/xlink" width="200" height="200"><path d="M384 184.789333a85.333333 85.333333 0 0 1 85.333333-85.333333h85.333334a85.333333 85.333333 0 0 1 85.333333 85.333333l24.789333 138.752H768c70.698667 0 128 72.96 128 143.658667v84.522667l42.325333 324.864A42.666667 42.666667 0 0 1 896 924.586667H128a42.666667 42.666667 0 0 1-42.325333-47.957334L128 551.722667v-84.48c0-70.698667 57.301333-143.701333 128-143.701334h106.112L384 184.789333z m176.384 41.941334a48.512 48.512 0 0 0-96.213333 0.768l-16.725334 138.709333a42.666667 42.666667 0 0 1-42.666666 42.666667H256c-23.552 0-42.666667 34.773333-42.666667 58.325333v42.666667h597.333334v-42.666667c0-23.552-19.114667-58.325333-42.666667-58.325333H622.08a42.666667 42.666667 0 0 1-42.666667-42.666667l-19.072-139.477333z m-352.042667 370.346666l-32 242.133334H640v-95.744a42.666667 42.666667 0 0 1 85.333333 0v95.744h122.325334l-32-242.176H208.341333z" p-id="9222"></path></svg>