<?xml version="1.0" standalone="no"?><!DOCTYPE svg PUBLIC "-//W3C//DTD SVG 1.1//EN" "http://www.w3.org/Graphics/SVG/1.1/DTD/svg11.dtd"><svg t="1669042145895" class="icon" viewBox="0 0 1024 1024" version="1.1" xmlns="http://www.w3.org/2000/svg" p-id="23236" xmlns:xlink="http://www.w3.org/1999/xlink" width="200" height="200"><path d="M772 64a42.656 42.656 0 0 1 0 85.312H166.656a17.344 17.344 0 0 0-17.344 17.344v605.344a42.656 42.656 0 0 1-85.312 0V166.656A102.656 102.656 0 0 1 166.656 64h605.344z" p-id="23237"></path><path d="M337.344 234.656a102.656 102.656 0 0 0-102.656 102.656v520a102.656 102.656 0 0 0 102.656 102.656h520A102.656 102.656 0 0 0 960 857.312v-520a102.656 102.656 0 0 0-102.656-102.656h-520zM320 337.344c0-9.568 7.744-17.344 17.344-17.344h520c9.568 0 17.344 7.744 17.344 17.344v520a17.344 17.344 0 0 1-17.344 17.344h-520a17.344 17.344 0 0 1-17.344-17.344v-520z" p-id="23238"></path></svg>