<?xml version="1.0" standalone="no"?><!DOCTYPE svg PUBLIC "-//W3C//DTD SVG 1.1//EN" "http://www.w3.org/Graphics/SVG/1.1/DTD/svg11.dtd"><svg t="1669041922613" class="icon" viewBox="0 0 1024 1024" version="1.1" xmlns="http://www.w3.org/2000/svg" p-id="15560" xmlns:xlink="http://www.w3.org/1999/xlink" width="200" height="200"><path d="M213.344 234.656A85.344 85.344 0 0 0 128 320v65.28a160.224 160.224 0 0 1 77.568 137.376v0.096-0.096A159.904 159.904 0 0 1 128 660.032v65.28a85.344 85.344 0 0 0 85.344 85.344h597.344a85.344 85.344 0 0 0 85.344-85.344v-65.28a160 160 0 0 1-77.568-137.376 159.904 159.904 0 0 1 77.568-137.376V320a85.344 85.344 0 0 0-85.344-85.344H213.344zM42.688 320a170.656 170.656 0 0 1 170.656-170.656h597.344A170.656 170.656 0 0 1 981.344 320v92c0 17.984-11.296 34.048-28.192 40.128a74.56 74.56 0 0 0-49.376 70.432v0.192a74.784 74.784 0 0 0 49.376 70.432c16.928 6.112 28.192 22.144 28.192 40.128v92a170.656 170.656 0 0 1-170.656 170.656H213.344a170.656 170.656 0 0 1-170.656-170.656v-92c0-17.984 11.296-34.048 28.192-40.128a74.56 74.56 0 0 0 49.376-70.432v-0.192a74.784 74.784 0 0 0-49.376-70.432 42.656 42.656 0 0 1-28.192-40.128V320z" p-id="15561"></path><path d="M341.344 600.896c0-23.552 19.104-42.656 42.656-42.656h256a42.656 42.656 0 0 1 0 85.312h-256a42.656 42.656 0 0 1-42.656-42.656zM341.344 448c0-23.552 19.104-42.656 42.656-42.656h256a42.656 42.656 0 0 1 0 85.312h-256A42.656 42.656 0 0 1 341.344 448z" p-id="15562"></path></svg>