<?xml version="1.0" standalone="no"?><!DOCTYPE svg PUBLIC "-//W3C//DTD SVG 1.1//EN" "http://www.w3.org/Graphics/SVG/1.1/DTD/svg11.dtd"><svg t="1669042149013" class="icon" viewBox="0 0 1024 1024" version="1.1" xmlns="http://www.w3.org/2000/svg" p-id="23389" xmlns:xlink="http://www.w3.org/1999/xlink" width="200" height="200"><path d="M298.656 256a213.344 213.344 0 1 1 426.688 0A213.344 213.344 0 0 1 298.656 256zM512 128a128 128 0 1 0 0 256 128 128 0 0 0 0-256zM85.344 938.656C85.344 703.008 276.384 512 512 512s426.656 191.04 426.656 426.656a42.656 42.656 0 0 1-85.312 0c0-168.256-121.76-308.096-281.984-336.192l66.752 216.992c4.16 13.504 1.344 28.192-7.456 39.2l-85.344 106.656a42.688 42.688 0 0 1-66.624 0l-85.344-106.656a42.624 42.624 0 0 1-7.456-39.2l66.752-216.992c-160.224 28.096-281.984 167.936-281.984 336.192a42.656 42.656 0 0 1-85.312 0zM512 870.368l-37.92-47.392L512 699.744l37.92 123.232L512 870.368z" p-id="23390"></path></svg>