<?xml version="1.0" standalone="no"?><!DOCTYPE svg PUBLIC "-//W3C//DTD SVG 1.1//EN" "http://www.w3.org/Graphics/SVG/1.1/DTD/svg11.dtd"><svg t="1669042160712" class="icon" viewBox="0 0 1024 1024" version="1.1" xmlns="http://www.w3.org/2000/svg" p-id="23849" xmlns:xlink="http://www.w3.org/1999/xlink" width="200" height="200"><path d="M416.16 179.392c-140.8 33.568-245.504 160.192-245.504 311.296 0 176.736 143.264 320 320 320 151.072 0 277.696-104.704 311.296-245.504A273.44 273.44 0 0 1 416.192 179.424zM85.344 490.656c0-223.872 181.472-405.344 405.344-405.344 28.096 0 55.552 2.848 82.08 8.32a42.656 42.656 0 0 1 2.144 83.072 188.128 188.128 0 1 0 229.664 229.696 42.656 42.656 0 0 1 83.072 2.144c5.472 26.528 8.32 54.016 8.32 82.08 0 223.872-181.472 405.344-405.344 405.344S85.28 714.496 85.28 490.624z" p-id="23850"></path></svg>