<?xml version="1.0" standalone="no"?><!DOCTYPE svg PUBLIC "-//W3C//DTD SVG 1.1//EN" "http://www.w3.org/Graphics/SVG/1.1/DTD/svg11.dtd"><svg t="1708658453818" class="icon" viewBox="0 0 1024 1024" version="1.1" xmlns="http://www.w3.org/2000/svg" p-id="2298" xmlns:xlink="http://www.w3.org/1999/xlink" width="200" height="200"><path d="M369.792 234.656a71.104 71.104 0 1 1-142.208 0 71.104 71.104 0 0 1 142.208 0zM369.792 448a71.104 71.104 0 1 1-142.208 0 71.104 71.104 0 0 1 142.208 0zM369.792 661.344a71.104 71.104 0 1 1-142.208 0 71.104 71.104 0 0 1 142.208 0zM583.104 234.656a71.104 71.104 0 1 1-142.208 0 71.104 71.104 0 0 1 142.208 0zM583.104 448a71.104 71.104 0 1 1-142.208 0 71.104 71.104 0 0 1 142.208 0zM583.104 661.344a71.104 71.104 0 1 1-142.208 0 71.104 71.104 0 0 1 142.208 0zM583.104 874.656a71.104 71.104 0 1 1-142.208 0 71.104 71.104 0 0 1 142.208 0zM796.448 234.656a71.104 71.104 0 1 1-142.208 0 71.104 71.104 0 0 1 142.208 0zM796.448 448a71.104 71.104 0 1 1-142.208 0 71.104 71.104 0 0 1 142.208 0zM796.448 661.344a71.104 71.104 0 1 1-142.208 0 71.104 71.104 0 0 1 142.208 0z" p-id="2299"></path></svg>