<?xml version="1.0" standalone="no"?><!DOCTYPE svg PUBLIC "-//W3C//DTD SVG 1.1//EN" "http://www.w3.org/Graphics/SVG/1.1/DTD/svg11.dtd"><svg t="1722934021058" class="icon" viewBox="0 0 1024 1024" version="1.1" xmlns="http://www.w3.org/2000/svg" p-id="8084" xmlns:xlink="http://www.w3.org/1999/xlink" width="200" height="200"><path d="M954.453333 689.621333c-7.850667 22.186667-33.322667 31.488-54.741333 21.674667-21.333333-9.813333-30.506667-35.114667-23.082667-57.429333a384.085333 384.085333 0 1 0-725.12 11.818666c8.106667 22.101333-0.170667 47.616-21.205333 58.154667-21.077333 10.496-46.848 2.005333-55.466667-19.882667a469.333333 469.333333 0 1 1 879.616-14.336z" p-id="8085"></path><path d="M662.869333 472.746667l-90.538666-90.538667a85.333333 85.333333 0 0 0-120.661334 0L361.130667 472.746667a85.333333 85.333333 0 0 0 0 120.661333l90.538666 90.496a85.333333 85.333333 0 0 0 120.661334 0l90.538666-90.453333a85.333333 85.333333 0 0 0 0-120.746667zM512 442.581333l90.496 90.453334L512 623.616l-90.496-90.496L512 442.581333z" p-id="8086"></path><path d="M752.170667 884.736A42.666667 42.666667 0 0 0 709.76 810.666667l-175.317333 87.893333a42.666667 42.666667 0 0 1-42.794667-0.213333L314.496 810.666667a42.666667 42.666667 0 1 0-43.221333 73.6l177.194666 87.68a128 128 0 0 0 128.384 0.682666l175.317334-87.893333z" p-id="8087"></path></svg>