<?xml version="1.0" standalone="no"?><!DOCTYPE svg PUBLIC "-//W3C//DTD SVG 1.1//EN" "http://www.w3.org/Graphics/SVG/1.1/DTD/svg11.dtd"><svg t="1669042073924" class="icon" viewBox="0 0 1024 1024" version="1.1" xmlns="http://www.w3.org/2000/svg" p-id="20171" xmlns:xlink="http://www.w3.org/1999/xlink" width="200" height="200"><path d="M766.72 158.24a128 128 0 0 0-181.088 0.032L216.96 527.36A85.44 85.44 0 0 0 192 587.68v94.976A85.344 85.344 0 0 0 277.344 768h95.744c22.624 0 44.352-8.992 60.352-24.992L801.888 374.4a128.032 128.032 0 0 0 0-180.992L766.72 158.24z m-120.736 60.352a42.656 42.656 0 0 1 60.352 0l35.168 35.168c16.64 16.672 16.64 43.68 0 60.32L373.056 682.688H277.312v-94.976L645.984 218.592zM149.344 853.344a42.656 42.656 0 0 0 0 85.312h768a42.656 42.656 0 0 0 0-85.312h-768z" p-id="20172"></path></svg>