<?xml version="1.0" standalone="no"?><!DOCTYPE svg PUBLIC "-//W3C//DTD SVG 1.1//EN" "http://www.w3.org/Graphics/SVG/1.1/DTD/svg11.dtd"><svg t="1669041885707" class="icon" viewBox="0 0 1024 1024" version="1.1" xmlns="http://www.w3.org/2000/svg" p-id="14326" xmlns:xlink="http://www.w3.org/1999/xlink" width="200" height="200"><path d="M97.824 97.824a42.656 42.656 0 0 1 60.352 0l768 768a42.656 42.656 0 1 1-60.352 60.352l-282.752-282.752a149.28 149.28 0 0 1-202.464-202.496L97.856 158.176a42.656 42.656 0 0 1 0-60.352z m350.112 410.464a64 64 0 0 0 67.776 67.776l-67.808-67.808z m64-225.568a308.16 308.16 0 0 0-74.368 9.408 42.656 42.656 0 1 1-20.544-82.816 394.048 394.048 0 0 1 94.912-11.936c111.136 0 210.272 52.928 285.632 110.272 75.904 57.76 132.256 123.52 158.656 156.864 21.312 26.912 23.36 64.128 4.576 93.216-20.16 31.264-61.056 88.32-118.272 135.776a42.656 42.656 0 1 1-54.432-65.696c45.952-38.08 80.48-84.928 99.008-113.184-24.96-31.2-75.2-88.864-141.152-139.072-68.544-52.192-149.568-92.864-233.952-92.864z m-269.536 52.864c15.04 18.144 12.512 45.056-5.632 60.064-45.984 38.112-80.864 85.216-99.648 113.664 25.088 31.04 75.392 88.128 141.312 137.792 68.512 51.584 149.504 91.84 233.856 91.84 25.376 0 50.432-3.424 74.976-9.568a42.688 42.688 0 0 1 20.704 82.784c-30.56 7.648-62.592 12.096-95.68 12.096-110.816 0-209.824-52.256-285.184-108.992-75.904-57.152-132.32-122.272-158.912-155.488a79.808 79.808 0 0 1-4.672-93.824c20.384-31.36 61.632-88.608 118.784-136a42.656 42.656 0 0 1 60.064 5.632z" p-id="14327"></path></svg>