<?xml version="1.0" standalone="no"?><!DOCTYPE svg PUBLIC "-//W3C//DTD SVG 1.1//EN" "http://www.w3.org/Graphics/SVG/1.1/DTD/svg11.dtd"><svg t="1669042100986" class="icon" viewBox="0 0 1024 1024" version="1.1" xmlns="http://www.w3.org/2000/svg" p-id="21395" xmlns:xlink="http://www.w3.org/1999/xlink" width="200" height="200"><path d="M435.584 165.6c31.136-63.552 121.632-63.776 153.056-0.384l83.68 168.64 187.232 27.296c69.888 10.176 97.856 96 47.392 145.408l-136.608 133.824 32 183.552c12.224 70.016-61.504 123.392-124.192 89.952l-166.176-88.576-166.048 88.512c-62.752 33.44-136.512-20.032-124.192-90.08l32.256-183.36-136.768-133.696c-50.528-49.408-22.528-135.328 47.424-145.472l188.512-27.328 82.432-168.256z m160.32 206.208l-83.68-168.64-82.432 168.256a85.376 85.376 0 0 1-64.384 46.912l-188.512 27.328 136.768 133.696c20.128 19.68 29.28 48.064 24.384 75.808l-32.256 183.36 166.048-88.512a85.344 85.344 0 0 1 80.288 0l166.176 88.576-32-183.552a85.312 85.312 0 0 1 24.352-75.616l136.608-133.824-187.232-27.296a85.28 85.28 0 0 1-64.128-46.496z" p-id="21396"></path></svg>