<?xml version="1.0" standalone="no"?><!DOCTYPE svg PUBLIC "-//W3C//DTD SVG 1.1//EN" "http://www.w3.org/Graphics/SVG/1.1/DTD/svg11.dtd"><svg t="1669041941744" class="icon" viewBox="0 0 1024 1024" version="1.1" xmlns="http://www.w3.org/2000/svg" p-id="16328" xmlns:xlink="http://www.w3.org/1999/xlink" width="200" height="200"><path d="M276.32 234.656a25.6 25.6 0 0 0-19.456 42.24l210.72 246.112c6.624 7.744 10.272 17.568 10.272 27.744V793.6l68.256 33.728v-276.576c0-10.176 3.648-20.032 10.272-27.744l210.72-246.112a25.6 25.6 0 0 0-19.456-42.24H276.288z m-84.256 97.76c-61.632-71.968-10.496-183.072 84.256-183.072h471.36c94.752 0 145.888 111.104 84.256 183.072l-200.48 234.144V896a42.592 42.592 0 0 1-61.568 38.24l-153.6-75.84a42.656 42.656 0 0 1-23.776-38.24v-253.6l-200.48-234.144z" p-id="16329"></path></svg>