<?xml version="1.0" standalone="no"?><!DOCTYPE svg PUBLIC "-//W3C//DTD SVG 1.1//EN" "http://www.w3.org/Graphics/SVG/1.1/DTD/svg11.dtd"><svg t="1669042089418" class="icon" viewBox="0 0 1024 1024" version="1.1" xmlns="http://www.w3.org/2000/svg" p-id="20934" xmlns:xlink="http://www.w3.org/1999/xlink" width="200" height="200"><path d="M170.656 85.344a85.344 85.344 0 0 0-85.344 85.344v213.344a85.344 85.344 0 0 0 85.344 85.344H384a85.344 85.344 0 0 0 85.344-85.344V170.688A85.344 85.344 0 0 0 384 85.344H170.656z m0 85.312H384V384H170.656V170.656zM170.656 661.344a42.656 42.656 0 0 0-85.312 0v149.344a128 128 0 0 0 128 128h149.344a42.656 42.656 0 0 0 0-85.312H213.344a42.656 42.656 0 0 1-42.656-42.656v-149.344zM840.416 597.344a42.656 42.656 0 0 0-85.312 0V704h-106.656a42.656 42.656 0 0 0 0 85.312h106.656v106.656a42.656 42.656 0 0 0 85.312 0v-106.656h106.656a42.656 42.656 0 0 0 0-85.312h-106.656v-106.656zM661.344 85.344a42.656 42.656 0 0 0 0 85.312h149.344c23.552 0 42.656 19.104 42.656 42.656v149.344a42.656 42.656 0 0 0 85.312 0V213.312a128 128 0 0 0-128-128h-149.344z" p-id="20935"></path></svg>