<?xml version="1.0" standalone="no"?><!DOCTYPE svg PUBLIC "-//W3C//DTD SVG 1.1//EN" "http://www.w3.org/Graphics/SVG/1.1/DTD/svg11.dtd"><svg t="1708658493677" class="icon" viewBox="0 0 1024 1024" version="1.1" xmlns="http://www.w3.org/2000/svg" p-id="2605" xmlns:xlink="http://www.w3.org/1999/xlink" width="200" height="200"><path d="M110.4 849.664a82.112 82.112 0 0 0 60.256 25.056H512a42.656 42.656 0 0 0 0-85.312H170.656V234.752H832v213.344a42.656 42.656 0 0 0 85.312 0V234.752c0-23.456-8.352-43.552-25.056-60.256s-36.832-25.088-60.288-25.088H170.624c-23.456 0-43.552 8.352-60.256 25.088s-25.088 36.768-25.088 60.256v554.656c0 23.456 8.352 43.552 25.088 60.288z" p-id="2606"></path><path d="M581.12 366.976c16.352 0.416 31.008 10.144 37.76 25.056l132 291.328 49.28-68.288a42.72 42.72 0 0 1 34.592-17.696h95.392a42.656 42.656 0 0 1 0 85.312h-73.568l-79.584 110.304a42.688 42.688 0 0 1-73.472-7.36l-126.08-278.24-78.784 152.256a42.656 42.656 0 0 1-37.888 23.072H298.624a42.656 42.656 0 0 1 0-85.312h136.16l107.296-207.328a42.656 42.656 0 0 1 39.008-23.04z" p-id="2607"></path></svg>