<?xml version="1.0" standalone="no"?><!DOCTYPE svg PUBLIC "-//W3C//DTD SVG 1.1//EN" "http://www.w3.org/Graphics/SVG/1.1/DTD/svg11.dtd"><svg t="1669041967324" class="icon" viewBox="0 0 1024 1024" version="1.1" xmlns="http://www.w3.org/2000/svg" p-id="17390" xmlns:xlink="http://www.w3.org/1999/xlink" width="200" height="200"><path d="M85.344 213.344a128 128 0 0 1 128-128H384a42.656 42.656 0 0 1 0 85.312H213.344c-23.552 0-42.656 19.104-42.656 42.656v170.656a42.656 42.656 0 0 1-85.312 0V213.312zM640 170.656a42.656 42.656 0 0 1 0-85.312h256c23.552 0 42.656 19.104 42.656 42.656v256a42.656 42.656 0 0 1-85.312 0V231.008l-204.512 204.512a42.656 42.656 0 1 1-60.352-60.352l204.512-204.512H640z m-204.512 417.856a42.656 42.656 0 0 1 0 60.352l-204.512 204.512h152.992a42.656 42.656 0 0 1 0 85.312h-256a42.656 42.656 0 0 1-42.656-42.656v-256a42.656 42.656 0 0 1 85.312 0v152.992l204.512-204.512a42.656 42.656 0 0 1 60.352 0zM938.656 640v170.656a128 128 0 0 1-128 128H640a42.656 42.656 0 0 1 0-85.312h170.656c23.552 0 42.656-19.104 42.656-42.656v-170.656a42.656 42.656 0 0 1 85.312 0z" p-id="17391"></path></svg>