<?xml version="1.0" standalone="no"?><!DOCTYPE svg PUBLIC "-//W3C//DTD SVG 1.1//EN" "http://www.w3.org/Graphics/SVG/1.1/DTD/svg11.dtd"><svg t="1669041419870" class="icon" viewBox="0 0 1024 1024" version="1.1" xmlns="http://www.w3.org/2000/svg" p-id="8943" xmlns:xlink="http://www.w3.org/1999/xlink" width="200" height="200"><path d="M138.304 786.944l0.032 0.032c31.648 18.72 69.792 27.968 114.176 27.968 44.896 0 83.744-9.248 116.384-27.936l0.064-0.032a186.144 186.144 0 0 0 74.08-80.608c17.28-34.432 25.824-74.656 25.824-120.512v-79.648c0-6.688-1.632-12.512-5.472-16.832a19.36 19.36 0 0 0-15.968-7.328H278.656a20.736 20.736 0 0 0-15.872 7.232c-3.904 4.352-5.568 10.208-5.568 16.96v26.56a27.84 27.84 0 0 0 5.376 17.536l0.192 0.256 0.224 0.224c4.32 4.096 9.6 6.144 15.648 6.144h107.744v30.56c0 34.4-5.888 62.4-17.44 84.288-11.584 21.984-27.424 38.176-47.488 48.8-19.712 10.144-42.432 15.264-68.224 15.264-38.4 0-69.12-11.584-92.576-34.432-23.264-23.232-36.32-61.728-38.304-116.576a2407.968 2407.968 0 0 1 0-147.392c1.984-54.304 14.816-92.256 37.568-114.912 23.488-22.88 54.208-34.432 92.576-34.432 26.432 0 47.552 4.64 63.648 13.568l0.128 0.064c16.896 8.576 30.048 19.52 39.552 32.704l0.064 0.064c10.208 13.504 17.408 27.168 21.728 40.992l0.064 0.16c2.016 5.632 4.256 10.176 6.816 13.024l-0.032 0.032 0.352 0.32c3.584 3.168 8.512 4.384 14.048 4.384h44.064a21.12 21.12 0 0 0 14.848-5.28l0.256-0.288a19.712 19.712 0 0 0 4.832-15.584c-0.544-14.56-5.248-31.104-13.824-49.6-8.224-18.816-20.992-36.64-38.208-53.504-16.896-17.6-38.528-32-64.832-43.232-26.528-11.328-57.76-16.928-93.536-16.928-43.904 0-81.792 9.248-113.44 27.968a185.76 185.76 0 0 0-72.576 78.08l-0.032 0.032c-16.224 33.28-25.312 72.576-27.296 117.824v0.096a3858.56 3858.56 0 0 0-0.736 78.912c0 27.136 0.256 52.864 0.736 77.248v0.096c2.016 45.248 11.072 84.832 27.296 118.624l0.032 0.032c16.768 33.888 40.736 60.224 71.808 78.912z m369.28-11.68l-0.128 0.384-0.064 0.384a67.84 67.84 0 0 0-0.8 9.76c0 5.472 1.888 10.368 5.568 14.464s8.288 6.4 13.632 6.4h38.08c6.752 0 12.576-1.888 16.608-6.4a24.032 24.032 0 0 0 6.176-10.88l39.968-114.656h238.88l40.096 114.976c1.184 3.296 3.168 6.72 5.824 10.24l0.256 0.288c4.032 4.48 9.856 6.4 16.608 6.4h38.08c5.344 0 9.952-2.304 13.632-6.4s5.568-8.992 5.568-14.464c0-3.264-0.576-6.72-1.664-10.368l-0.064-0.16L799.36 238.4a34.4 34.4 0 0 0-10.144-15.008c-4.512-4.224-10.656-6.048-17.76-6.048h-50.784c-7.584 0-14.048 1.792-18.624 6.144a37.696 37.696 0 0 0-9.28 14.912l-0.032 0.064-185.184 536.768z m143.68-180.416l94.848-277.088 94.848 277.088h-189.696z" p-id="8944"></path></svg>