<?xml version="1.0" standalone="no"?><!DOCTYPE svg PUBLIC "-//W3C//DTD SVG 1.1//EN" "http://www.w3.org/Graphics/SVG/1.1/DTD/svg11.dtd"><svg t="1722934034387" class="icon" viewBox="0 0 1024 1024" version="1.1" xmlns="http://www.w3.org/2000/svg" p-id="8248" xmlns:xlink="http://www.w3.org/1999/xlink" width="200" height="200"><path d="M102.528 301.141333C177.92 145.749333 337.92 42.666667 520.533333 42.666667c126.165333 0 234.24 46.848 314.112 117.333333a42.666667 42.666667 0 0 1 1.92 62.165333l-119.466666 119.466667a42.666667 42.666667 0 0 1-58.24 1.962667C629.248 317.738667 587.690667 290.133333 520.533333 290.133333a211.669333 211.669333 0 0 0-195.413333 127.744 42.666667 42.666667 0 0 1-2.986667 5.632l-0.341333 1.237334A235.136 235.136 0 0 0 307.2 507.733333c0 26.112 3.754667 51.328 10.624 71.850667l0.128 0.469333c28.586667 89.344 110.506667 149.546667 202.581333 149.546667 56.789333 0 98.474667-15.189333 123.733334-34.133333a164.778667 164.778667 0 0 0 52.821333-59.733334H520.533333a42.666667 42.666667 0 0 1-42.666666-42.666666v-157.866667a42.666667 42.666667 0 0 1 42.666666-42.666667h401.066667a42.666667 42.666667 0 0 1 42.069333 35.669334l0.128 0.597333c4.266667 25.6 9.002667 54.058667 9.002667 91.733333 0 142.208-50.56 265.301333-141.866667 347.178667C753.92 939.818667 645.034667 981.333333 520.533333 981.333333c-182.613333 0-342.570667-103.082667-418.005333-258.474666C70.101333 657.92 51.2 587.52 51.2 512c0-75.52 18.901333-145.962667 51.328-210.858667zM520.533333 128c-150.058667 0-280.234667 84.565333-341.333333 210.602667l-0.256 0.469333C151.722667 393.6 136.533333 451.114667 136.533333 512s15.189333 118.4 42.410667 172.928l0.256 0.426667C240.298667 811.52 370.474667 896 520.533333 896c105.728 0 192.981333-35.157333 252.416-90.88l0.725334-0.64c70.613333-63.189333 113.792-161.792 113.792-283.946667 0-15.829333-1.024-29.525333-2.56-42.666666H563.2v72.533333h192a42.666667 42.666667 0 0 1 42.410667 47.36c-5.461333 49.024-36.48 120.192-102.826667 166.485333-42.922667 31.914667-103.424 50.688-174.250667 50.688-129.749333 0-244.010667-84.736-283.733333-208.64-10.197333-30.592-14.933333-65.024-14.933333-98.56 0-33.621333 4.778667-68.138667 14.976-98.816 0.64-1.92 1.408-3.754667 2.304-5.546666l1.408-4.949334c0.597333-2.005333 1.749333-6.101333 3.669333-10.453333 1.024-2.346667 2.474667-5.290667 4.522667-8.448A297.045333 297.045333 0 0 1 520.533333 204.8c72.362667 0 124.885333 23.594667 162.901334 49.834667l58.752-58.752C681.898667 154.282667 606.72 128 520.533333 128z" p-id="8249"></path></svg>