<?xml version="1.0" standalone="no"?><!DOCTYPE svg PUBLIC "-//W3C//DTD SVG 1.1//EN" "http://www.w3.org/Graphics/SVG/1.1/DTD/svg11.dtd"><svg t="1669041482695" class="icon" viewBox="0 0 1024 1024" version="1.1" xmlns="http://www.w3.org/2000/svg" p-id="10179" xmlns:xlink="http://www.w3.org/1999/xlink" width="200" height="200"><path d="M64 298.656A170.656 170.656 0 0 1 234.656 128h554.656a170.656 170.656 0 0 1 170.656 170.656v426.656a170.656 170.656 0 0 1-170.656 170.656H234.656A170.656 170.656 0 0 1 64 725.312V298.656z m170.656-85.312a85.344 85.344 0 0 0-85.344 85.344v426.656a85.344 85.344 0 0 0 85.344 85.344h554.656a85.344 85.344 0 0 0 85.344-85.344V298.688a85.344 85.344 0 0 0-85.344-85.344H234.656z" p-id="10180"></path><path d="M294.816 432.096a74.656 74.656 0 1 0 0-149.312 74.656 74.656 0 0 0 0 149.312zM522.272 420.224a42.656 42.656 0 0 1 58.304-6.112l362.656 277.344-51.84 67.776-330.624-252.832-101.728 118.688a42.656 42.656 0 0 1-59.04 5.536l-76.832-61.472-186.336 186.336-60.352-60.352 213.344-213.344a42.656 42.656 0 0 1 56.832-3.136l74.464 59.584 101.152-118.016z" p-id="10181"></path></svg>