<?xml version="1.0" standalone="no"?><!DOCTYPE svg PUBLIC "-//W3C//DTD SVG 1.1//EN" "http://www.w3.org/Graphics/SVG/1.1/DTD/svg11.dtd"><svg t="1669099472319" class="icon" viewBox="0 0 1024 1024" version="1.1" xmlns="http://www.w3.org/2000/svg" p-id="2294" xmlns:xlink="http://www.w3.org/1999/xlink" width="200" height="200"><path d="M512 42.656c259.2 0 469.344 210.112 469.344 469.344S771.232 981.344 512 981.344C252.8 981.344 42.656 771.232 42.656 512S252.768 42.656 512 42.656z m10.432 342.304h-42.656a42.656 42.656 0 0 0 0 85.312v213.344h-32.256a42.656 42.656 0 0 0 0 85.312h150.016a42.656 42.656 0 0 0 0-85.312h-32.448v-256c0-23.552-19.104-42.656-42.656-42.656z m-10.144-150.368a53.696 53.696 0 1 0 0 107.36 53.696 53.696 0 0 0 0-107.36z" p-id="2295"></path></svg>