<?xml version="1.0" standalone="no"?><!DOCTYPE svg PUBLIC "-//W3C//DTD SVG 1.1//EN" "http://www.w3.org/Graphics/SVG/1.1/DTD/svg11.dtd"><svg t="1669041970627" class="icon" viewBox="0 0 1024 1024" version="1.1" xmlns="http://www.w3.org/2000/svg" p-id="17544" xmlns:xlink="http://www.w3.org/1999/xlink" width="200" height="200"><path d="M512 234.656a53.216 53.216 0 0 1 37.728 91.008 53.44 53.44 0 0 1-91.072-37.696A53.344 53.344 0 0 1 512 234.656zM437.344 426.656c0-23.552 19.104-42.656 42.656-42.656h42.656c23.552 0 42.656 19.104 42.656 42.656v256h32a42.656 42.656 0 0 1 0 85.312h-149.344a42.656 42.656 0 0 1 0-85.312h32v-213.344a42.656 42.656 0 0 1-42.656-42.656z" p-id="17545"></path><path d="M42.656 512C42.656 252.8 252.768 42.656 512 42.656S981.344 252.768 981.344 512c0 259.2-210.144 469.344-469.344 469.344S42.656 771.2 42.656 512zM512 128C299.936 128 128 299.936 128 512s171.936 384 384 384 384-171.936 384-384S724.064 128 512 128z" p-id="17546"></path></svg>