<?xml version="1.0" standalone="no"?><!DOCTYPE svg PUBLIC "-//W3C//DTD SVG 1.1//EN" "http://www.w3.org/Graphics/SVG/1.1/DTD/svg11.dtd"><svg t="1669041403721" class="icon" viewBox="0 0 1024 1024" version="1.1" xmlns="http://www.w3.org/2000/svg" p-id="8328" xmlns:xlink="http://www.w3.org/1999/xlink" width="200" height="200"><path d="M192 213.344a170.656 170.656 0 0 1 170.656-170.656h298.656a170.656 170.656 0 0 1 170.656 170.656v597.344a170.656 170.656 0 0 1-170.656 170.656h-298.656A170.656 170.656 0 0 1 192 810.688V213.344zM362.656 128a85.344 85.344 0 0 0-85.344 85.344v597.344a85.344 85.344 0 0 0 85.344 85.344h298.656a85.344 85.344 0 0 0 85.344-85.344V213.344A85.344 85.344 0 0 0 661.312 128h-298.656z m64 85.344c0-23.552 19.104-42.656 42.656-42.656h85.344a42.656 42.656 0 0 1 0 85.312h-85.344a42.656 42.656 0 0 1-42.656-42.656zM384 810.656c0-23.552 19.104-42.656 42.656-42.656h170.656a42.656 42.656 0 0 1 0 85.312h-170.656A42.656 42.656 0 0 1 384 810.656z" p-id="8329"></path></svg>