<?xml version="1.0" standalone="no"?><!DOCTYPE svg PUBLIC "-//W3C//DTD SVG 1.1//EN" "http://www.w3.org/Graphics/SVG/1.1/DTD/svg11.dtd"><svg t="1669041399420" class="icon" viewBox="0 0 1024 1024" version="1.1" xmlns="http://www.w3.org/2000/svg" p-id="8175" xmlns:xlink="http://www.w3.org/1999/xlink" width="200" height="200"><path d="M234.656 960a85.344 85.344 0 0 1-85.344-85.344V149.312a85.344 85.344 0 0 1 85.344-85.344h554.656a85.344 85.344 0 0 1 85.344 85.344v725.344A85.344 85.344 0 0 1 789.312 960H234.656z m0-810.656v725.344h554.656V149.344H234.656z" p-id="8176"></path><path d="M426.656 789.344c0-23.552 19.104-42.656 42.656-42.656h85.344a42.656 42.656 0 0 1 0 85.312h-85.344a42.656 42.656 0 0 1-42.656-42.656z" p-id="8177"></path></svg>