<?xml version="1.0" standalone="no"?><!DOCTYPE svg PUBLIC "-//W3C//DTD SVG 1.1//EN" "http://www.w3.org/Graphics/SVG/1.1/DTD/svg11.dtd"><svg t="1722934112941" class="icon" viewBox="0 0 1024 1024" version="1.1" xmlns="http://www.w3.org/2000/svg" p-id="9381" xmlns:xlink="http://www.w3.org/1999/xlink" width="200" height="200"><path d="M919.168 640.298667a403.2 403.2 0 0 0-81.664-62.464c-33.834667-19.328-69.077333-31.701333-101.546667-31.701334-15.530667 0-39.850667 4.138667-70.144 12.458667-29.610667 8.106667-62.293333 19.541333-93.696 32.384-31.445333 12.8-60.757333 26.709333-83.669333 39.68-11.52 6.4-20.821333 12.373333-27.818667 17.493333a105.813333 105.813333 0 0 0-7.04 5.546667c2.218667 4.309333 6.528 10.453333 13.525334 17.92 6.570667 6.997333 13.952 13.568 20.565333 18.986667l106.837333-35.626667a42.666667 42.666667 0 0 1 26.965334 80.938667l-127.573334 42.538666c-7.424 2.56-15.445333 3.072-23.210666 1.322667l-12.8-2.56a16378.112 16378.112 0 0 0-151.125334-29.141333c-42.538667-7.978667-86.186667-15.914667-121.813333-21.845334a1647.402667 1647.402667 0 0 0-46.677333-7.253333c2.56 3.242667 5.546667 6.698667 9.216 10.325333 19.541333 19.541333 65.152 60.117333 120.746666 95.488 56.746667 36.138667 117.546667 62.677333 169.088 62.677334 56.746667 0 104.661333-14.08 151.850667-29.824l14.506667-4.864c41.045333-13.909333 86.442667-29.312 132.266666-29.312h213.333334a42.666667 42.666667 0 1 1 0 85.333333h-213.333334c-30.933333 0-62.378667 10.538667-106.453333 25.344l-13.354667 4.48c-48.810667 16.213333-107.605333 34.133333-178.816 34.133333-76.501333 0-154.368-37.418667-214.912-75.946666a853.290667 853.290667 0 0 1-135.253333-107.178667C62.549333 765.013333 42.666667 733.397333 42.666667 700.8c0-17.92 6.314667-37.248 22.570666-51.456 15.488-13.568 34.773333-17.92 52.053334-17.92 15.104 0 47.36 4.906667 81.706666 10.624 36.437333 6.058667 80.768 14.122667 123.52 22.144l47.445334 8.96c-5.546667-20.053333-4.992-44.757333 11.904-67.285333 7.722667-10.325333 18.346667-19.285333 28.373333-26.581334 10.538667-7.722667 22.912-15.445333 36.266667-22.997333A847.786667 847.786667 0 0 1 539.904 512c33.92-13.866667 69.888-26.453333 103.296-35.626667 32.682667-9.002667 65.706667-15.530667 92.842667-15.530666 52.864 0 102.997333 19.626667 143.786666 42.965333a488.021333 488.021333 0 0 1 99.712 76.202667 42.666667 42.666667 0 0 1-60.330666 60.330666z" p-id="9382"></path><path d="M242.517333 61.44c20.053333-50.944 92.16-50.944 112.256 0l45.909334 116.309333 116.309333 45.866667c50.944 20.053333 50.944 92.16 0 112.256L400.64 381.738667l-45.909333 116.352c-20.053333 50.944-92.16 50.944-112.213334 0L196.608 381.781333 80.341333 335.829333c-50.944-20.053333-50.944-92.16 0-112.256l116.309334-45.866666 45.866666-116.352zM298.666667 128.426667l-33.194667 84.138666a60.330667 60.330667 0 0 1-34.005333 34.005334l-84.138667 33.194666 84.138667 33.152c15.573333 6.144 27.861333 18.474667 34.005333 34.005334L298.666667 431.104l33.194666-84.181333c6.101333-15.530667 18.432-27.861333 33.962667-34.005334l84.181333-33.152-84.181333-33.194666a60.330667 60.330667 0 0 1-33.962667-34.005334L298.666667 128.426667z" p-id="9383"></path></svg>