<?xml version="1.0" standalone="no"?><!DOCTYPE svg PUBLIC "-//W3C//DTD SVG 1.1//EN" "http://www.w3.org/Graphics/SVG/1.1/DTD/svg11.dtd"><svg t="1708658709880" class="icon" viewBox="0 0 1024 1024" version="1.1" xmlns="http://www.w3.org/2000/svg" p-id="3677" xmlns:xlink="http://www.w3.org/1999/xlink" width="200" height="200"><path d="M439.168 375.168a42.656 42.656 0 0 1 60.352 0l76.512 76.512 76.512-76.512a42.656 42.656 0 1 1 60.352 60.352l-76.512 76.512 76.512 76.512a42.656 42.656 0 1 1-60.352 60.352l-76.512-76.512-76.512 76.512a42.656 42.656 0 1 1-60.352-60.352l76.512-76.512-76.512-76.512a42.656 42.656 0 0 1 0-60.352z" p-id="3678"></path><path d="M290.144 238.944l-166.4 221.856a85.344 85.344 0 0 0 0 102.4l166.4 221.856a170.656 170.656 0 0 0 136.544 68.256h426.656a85.344 85.344 0 0 0 85.344-85.344v-512a85.344 85.344 0 0 0-85.344-85.344H426.688c-53.728 0-104.288 25.28-136.544 68.256zM426.656 256h426.656v512H426.656c-26.848 0-52.16-12.64-68.256-34.144L192 512l166.4-221.856A85.408 85.408 0 0 1 426.656 256z" p-id="3679"></path></svg>