<?xml version="1.0" standalone="no"?><!DOCTYPE svg PUBLIC "-//W3C//DTD SVG 1.1//EN" "http://www.w3.org/Graphics/SVG/1.1/DTD/svg11.dtd"><svg t="1669041997202" class="icon" viewBox="0 0 1024 1024" version="1.1" xmlns="http://www.w3.org/2000/svg" p-id="18464" xmlns:xlink="http://www.w3.org/1999/xlink" width="200" height="200"><path d="M341.344 128v128h85.344c23.552 0 42.656 19.104 42.656 42.656v426.656c0 23.552-19.104 42.656-42.656 42.656h-85.344v128a42.656 42.656 0 0 1-85.312 0v-128H170.688a42.656 42.656 0 0 1-42.656-42.656V298.656C128.032 275.104 147.136 256 170.688 256h85.344V128a42.656 42.656 0 0 1 85.312 0zM384 682.656V341.312H213.344v341.344H384zM746.656 192v106.656H832c23.552 0 42.656 19.104 42.656 42.656v341.344c0 23.552-19.104 42.656-42.656 42.656h-85.344v106.656a42.656 42.656 0 0 1-85.312 0v-106.656H576a42.656 42.656 0 0 1-42.656-42.656V341.312c0-23.552 19.104-42.656 42.656-42.656h85.344V192a42.656 42.656 0 0 1 85.312 0z m42.688 448v-256h-170.656v256h170.656z" p-id="18465"></path></svg>