<?xml version="1.0" standalone="no"?><!DOCTYPE svg PUBLIC "-//W3C//DTD SVG 1.1//EN" "http://www.w3.org/Graphics/SVG/1.1/DTD/svg11.dtd"><svg t="1669099455959" class="icon" viewBox="0 0 1024 1024" version="1.1" xmlns="http://www.w3.org/2000/svg" p-id="1682" xmlns:xlink="http://www.w3.org/1999/xlink" width="200" height="200"><path d="M512 981.344C252.8 981.344 42.656 771.232 42.656 512S252.768 42.656 512 42.656c259.2 0 469.344 210.112 469.344 469.344S771.232 981.344 512 981.344z m-104.736-101.248c-46.304-98.208-68.192-216.416-74.048-324.832H128c9.12 72.224 44.576 149.728 91.648 205.248s117.888 98.688 187.616 119.584z m12.288-324.864c7.072 114.464 39.808 225.696 92.448 320.576 54.08-97.408 85.664-209.376 92.448-320.576H419.52z m475.264 0h-205.152c-5.856 108.416-26.464 226.624-72.768 324.832 69.728-20.896 140.672-64.032 187.744-119.584s81.056-133.024 90.176-205.248zM127.968 468.416h205.248c5.856-108.416 27.776-226.08 74.08-324.32-69.728 20.864-140.608 63.712-187.648 119.264s-82.56 132.832-91.68 205.056z m291.584 0h184.832c-6.784-111.2-38.304-222.848-92.352-320.256-54.08 97.408-85.728 209.056-92.512 320.256h0.032z m197.376-324.288c46.304 98.208 66.848 215.872 72.704 324.32h205.152c-9.12-72.224-43.072-149.792-90.144-205.344s-117.984-98.08-187.744-118.976z" p-id="1683"></path></svg>