<?xml version="1.0" standalone="no"?><!DOCTYPE svg PUBLIC "-//W3C//DTD SVG 1.1//EN" "http://www.w3.org/Graphics/SVG/1.1/DTD/svg11.dtd"><svg t="1708658433356" class="icon" viewBox="0 0 1024 1024" version="1.1" xmlns="http://www.w3.org/2000/svg" p-id="2146" xmlns:xlink="http://www.w3.org/1999/xlink" width="200" height="200"><path d="M98.144 238.944v546.144a140.8 140.8 0 0 0 140.8 140.8h546.144a140.8 140.8 0 0 0 140.8-140.8V238.944a140.8 140.8 0 0 0-140.8-140.8H238.944a140.8 140.8 0 0 0-140.8 140.8z m140.8-64h546.144a64 64 0 0 1 64 64v93.888H174.944V238.944a64 64 0 0 1 64-64z m-64 610.112V409.632h439.488v439.424H238.944a64 64 0 0 1-64-64z m516.256 64V409.632h157.856v375.424a64 64 0 0 1-64 64H691.2z" p-id="2147"></path></svg>