<?xml version="1.0" standalone="no"?><!DOCTYPE svg PUBLIC "-//W3C//DTD SVG 1.1//EN" "http://www.w3.org/Graphics/SVG/1.1/DTD/svg11.dtd"><svg t="1708658171445" class="icon" viewBox="0 0 1024 1024" version="1.1" xmlns="http://www.w3.org/2000/svg" p-id="2618" xmlns:xlink="http://www.w3.org/1999/xlink" width="200" height="200"><path d="M554.656 618.656a42.656 42.656 0 0 0-85.312 0v128a42.656 42.656 0 0 0 85.312 0v-128z" p-id="2619"></path><path d="M256 320v86.368l-42.688-1.024a85.344 85.344 0 0 0-85.344 85.344v384a85.344 85.344 0 0 0 85.344 85.344h597.344A85.344 85.344 0 0 0 896 874.688v-384a85.344 85.344 0 0 0-85.344-85.344L768 405.632V298.688c0-128-114.624-234.656-256-234.656s-256 114.624-256 256z m554.656 170.656v384H213.312v-384h597.344z m-469.344-84.288V320c0-94.272 76.416-170.656 170.656-170.656s170.656 64 170.656 149.344v106.944l-341.344 0.736z" p-id="2620"></path></svg>