<?xml version="1.0" standalone="no"?><!DOCTYPE svg PUBLIC "-//W3C//DTD SVG 1.1//EN" "http://www.w3.org/Graphics/SVG/1.1/DTD/svg11.dtd"><svg t="1669041413852" class="icon" viewBox="0 0 1024 1024" version="1.1" xmlns="http://www.w3.org/2000/svg" p-id="8635" xmlns:xlink="http://www.w3.org/1999/xlink" width="200" height="200"><path d="M512 384a256 256 0 1 0 0 512 256 256 0 0 0 0-512zM170.656 640c0-188.512 152.832-341.344 341.344-341.344S853.344 451.488 853.344 640 700.512 981.344 512 981.344 170.656 828.512 170.656 640z" p-id="8636"></path><path d="M438.528 57.28a191.68 191.68 0 0 1 146.944 0 191.84 191.84 0 0 1 118.56 177.408v149.344h-85.344V234.688a106.496 106.496 0 0 0-31.264-75.424A106.944 106.944 0 0 0 512 128a106.496 106.496 0 0 0-75.424 31.264 106.368 106.368 0 0 0-31.264 75.424v149.344H319.968V234.688a191.68 191.68 0 0 1 56.256-135.776 192.32 192.32 0 0 1 62.304-41.632zM512 512c23.552 0 42.656 19.104 42.656 42.656v170.656a42.656 42.656 0 0 1-85.312 0v-170.656c0-23.552 19.104-42.656 42.656-42.656z" p-id="8637"></path></svg>