<?xml version="1.0" standalone="no"?><!DOCTYPE svg PUBLIC "-//W3C//DTD SVG 1.1//EN" "http://www.w3.org/Graphics/SVG/1.1/DTD/svg11.dtd"><svg t="1708658554815" class="icon" viewBox="0 0 1024 1024" version="1.1" xmlns="http://www.w3.org/2000/svg" p-id="2758" xmlns:xlink="http://www.w3.org/1999/xlink" width="200" height="200"><path d="M793.6 110.944a170.656 170.656 0 1 0 0 341.344 170.656 170.656 0 0 0 0-341.344zM708.256 281.6a85.344 85.344 0 1 1 170.688 0 85.344 85.344 0 0 1-170.688 0zM59.744 435.2a221.856 221.856 0 1 1 443.712 0 221.856 221.856 0 0 1-443.712 0zM281.6 298.656a136.544 136.544 0 1 0 0 273.088 136.544 136.544 0 0 0 0-273.088zM960.704 603.68a42.656 42.656 0 1 0-27.008-80.96l-768 256a42.656 42.656 0 1 0 27.008 80.96l391.968-130.656-68.608 114.368a28.16 28.16 0 0 0 24.16 42.656h144.544a28.16 28.16 0 0 0 24.16-42.656l-77.888-129.824 329.664-109.888z" p-id="2759"></path></svg>