<?xml version="1.0" standalone="no"?><!DOCTYPE svg PUBLIC "-//W3C//DTD SVG 1.1//EN" "http://www.w3.org/Graphics/SVG/1.1/DTD/svg11.dtd"><svg t="1722933995461" class="icon" viewBox="0 0 1024 1024" version="1.1" xmlns="http://www.w3.org/2000/svg" p-id="7923" xmlns:xlink="http://www.w3.org/1999/xlink" width="200" height="200"><path d="M787.498667 82.133333a44.8 44.8 0 0 1 63.36 0l96 96c17.493333 17.493333 17.493333 41.728 0 59.221334l-96 96a44.8 44.8 0 0 1-63.36-63.36l19.626666-19.541334v-0.853333H234.666667a85.333333 85.333333 0 0 0-85.333334 85.333333v426.666667a85.333333 85.333333 0 0 0 85.333334 85.333333h554.666666a85.333333 85.333333 0 0 0 85.333334-85.333333v-298.666667a42.666667 42.666667 0 1 1 85.333333 0v298.666667a170.666667 170.666667 0 0 1-170.666667 170.666667h-554.666666a170.666667 170.666667 0 0 1-170.666667-170.666667v-426.666667a170.666667 170.666667 0 0 1 170.666667-170.666666h571.733333l-18.858667-18.773334a44.8 44.8 0 0 1 0-63.36z" p-id="7924"></path><path d="M506.325333 356.266667a42.666667 42.666667 0 0 1 42.666667 42.666666v320a42.666667 42.666667 0 1 1-85.333333 0v-320a42.666667 42.666667 0 0 1 42.666666-42.666666zM335.658667 531.84a42.666667 42.666667 0 0 1 42.666666 42.666667v144.426666a42.666667 42.666667 0 1 1-85.333333 0v-144.426666a42.666667 42.666667 0 0 1 42.666667-42.666667zM719.658667 496.64a42.666667 42.666667 0 1 0-85.333334 0v222.293333a42.666667 42.666667 0 0 0 85.333334 0v-222.293333z" p-id="7925"></path></svg>