<?xml version="1.0" standalone="no"?><!DOCTYPE svg PUBLIC "-//W3C//DTD SVG 1.1//EN" "http://www.w3.org/Graphics/SVG/1.1/DTD/svg11.dtd"><svg t="1681957747069" class="icon" viewBox="0 0 1024 1024" version="1.1" xmlns="http://www.w3.org/2000/svg" p-id="1723" xmlns:xlink="http://www.w3.org/1999/xlink" width="200" height="200"><path d="M153.6 256a51.2 51.2 0 0 1 51.2-51.2h614.4a51.2 51.2 0 1 1 0 102.4H204.8A51.2 51.2 0 0 1 153.6 256zM153.6 512a51.2 51.2 0 0 1 51.2-51.2H512a51.2 51.2 0 1 1 0 102.4H204.8A51.2 51.2 0 0 1 153.6 512zM153.6 768a51.2 51.2 0 0 1 51.2-51.2h614.4a51.2 51.2 0 1 1 0 102.4H204.8A51.2 51.2 0 0 1 153.6 768z" p-id="1724"></path></svg>