<?xml version="1.0" standalone="no"?><!DOCTYPE svg PUBLIC "-//W3C//DTD SVG 1.1//EN" "http://www.w3.org/Graphics/SVG/1.1/DTD/svg11.dtd"><svg t="1669041953319" class="icon" viewBox="0 0 1024 1024" version="1.1" xmlns="http://www.w3.org/2000/svg" p-id="16780" xmlns:xlink="http://www.w3.org/1999/xlink" width="200" height="200"><path d="M170.656 85.344a85.344 85.344 0 0 0-85.344 85.344v213.344a85.344 85.344 0 0 0 85.344 85.344H384a85.344 85.344 0 0 0 85.344-85.344V170.688A85.344 85.344 0 0 0 384 85.344H170.656z m0 85.312H384V384H170.656V170.656zM170.656 554.656A85.344 85.344 0 0 0 85.312 640v213.344a85.344 85.344 0 0 0 85.344 85.344H384a85.344 85.344 0 0 0 85.344-85.344V640A85.344 85.344 0 0 0 384 554.656H170.656z m0 85.344H384v213.344H170.656V640zM554.656 170.656A85.344 85.344 0 0 1 640 85.312h213.344a85.344 85.344 0 0 1 85.344 85.344V384a85.344 85.344 0 0 1-85.344 85.344H640A85.344 85.344 0 0 1 554.656 384V170.656z m298.688 0H640V384h213.344V170.656zM640 554.656A85.344 85.344 0 0 0 554.656 640v213.344A85.344 85.344 0 0 0 640 938.688h213.344a85.344 85.344 0 0 0 85.344-85.344V640a85.344 85.344 0 0 0-85.344-85.344H640zM640 640h213.344v213.344H640V640z" p-id="16781"></path></svg>