<?xml version="1.0" standalone="no"?><!DOCTYPE svg PUBLIC "-//W3C//DTD SVG 1.1//EN" "http://www.w3.org/Graphics/SVG/1.1/DTD/svg11.dtd"><svg t="1669041238544" class="icon" viewBox="0 0 1024 1024" version="1.1" xmlns="http://www.w3.org/2000/svg" p-id="5864" xmlns:xlink="http://www.w3.org/1999/xlink" width="200" height="200"><path d="M85.344 192A106.656 106.656 0 0 1 192 85.344h640A106.656 106.656 0 0 1 938.656 192v640A106.656 106.656 0 0 1 832 938.656H192A106.656 106.656 0 0 1 85.344 832V192zM192 170.656A21.344 21.344 0 0 0 170.656 192v640c0 11.776 9.536 21.344 21.344 21.344h640a21.344 21.344 0 0 0 21.344-21.344V192A21.344 21.344 0 0 0 832 170.656H192z" p-id="5865"></path><path d="M298.656 341.344c0-23.552 19.104-42.656 42.656-42.656h341.344c23.552 0 42.656 19.104 42.656 42.656v341.344c0 23.552-19.104 42.656-42.656 42.656H341.312a42.656 42.656 0 0 1-42.656-42.656V341.344zM384 384v256h256v-256h-256z" p-id="5866"></path></svg>