<?xml version="1.0" standalone="no"?><!DOCTYPE svg PUBLIC "-//W3C//DTD SVG 1.1//EN" "http://www.w3.org/Graphics/SVG/1.1/DTD/svg11.dtd"><svg t="1686540804294" class="icon" viewBox="0 0 1024 1024" version="1.1" xmlns="http://www.w3.org/2000/svg" p-id="1590" xmlns:xlink="http://www.w3.org/1999/xlink" width="200" height="200"><path d="M128 938.6496c-47.104 0-85.3504-38.1952-85.3504-85.2992v-640c0-47.104 38.2464-85.3504 85.3504-85.3504h768c47.104 0 85.3504 38.1952 85.3504 85.3504v640c0 47.104-38.2464 85.2992-85.3504 85.2992h-768z m768-725.2992h-768v640h46.2336a256.0512 256.0512 0 0 1 252.416-213.3504h170.7008a256.0512 256.0512 0 0 1 252.416 213.2992h46.2336v-640z m-298.6496 512H426.6496c-77.1072 0-142.2848 51.1488-163.4304 121.344l-1.8432 6.656h501.248l-1.8432-6.656a170.752 170.752 0 0 0-154.9312-121.1392l-8.4992-0.2048zM512 298.6496a149.3504 149.3504 0 1 1 0 298.7008 149.3504 149.3504 0 0 1 0-298.7008zM512 384a64 64 0 1 0 0 128 64 64 0 0 0 0-128z" p-id="1591"></path></svg>