<?xml version="1.0" standalone="no"?><!DOCTYPE svg PUBLIC "-//W3C//DTD SVG 1.1//EN" "http://www.w3.org/Graphics/SVG/1.1/DTD/svg11.dtd"><svg t="1737426901839" class="icon" viewBox="0 0 1024 1024" version="1.1" xmlns="http://www.w3.org/2000/svg" p-id="2060" xmlns:xlink="http://www.w3.org/1999/xlink" width="200" height="200"><path d="M85.344 298.656v426.656a213.344 213.344 0 0 0 213.344 213.344h426.656a213.344 213.344 0 0 0 213.344-213.344V298.656a213.344 213.344 0 0 0-213.344-213.344H298.688a213.344 213.344 0 0 0-213.344 213.344z m213.312-120.864h426.656a120.896 120.896 0 0 1 120.896 120.896v426.656a120.896 120.896 0 0 1-120.896 120.896H298.656a120.896 120.896 0 0 1-120.896-120.896V298.688a120.896 120.896 0 0 1 120.896-120.896z" p-id="2061"></path><path d="M714.592 451.776a46.208 46.208 0 1 0-73.088-56.64l-75.52 97.408-57.024-44.864a81.92 81.92 0 0 0-114.976 14.72l-84.672 109.92a46.24 46.24 0 1 0 73.248 56.416l78.112-101.408 56.832 44.704a82.176 82.176 0 0 0 114.656-13.952l82.4-106.304z" p-id="2062"></path></svg>