<?xml version="1.0" standalone="no"?><!DOCTYPE svg PUBLIC "-//W3C//DTD SVG 1.1//EN" "http://www.w3.org/Graphics/SVG/1.1/DTD/svg11.dtd"><svg t="1669099468244" class="icon" viewBox="0 0 1024 1024" version="1.1" xmlns="http://www.w3.org/2000/svg" p-id="2142" xmlns:xlink="http://www.w3.org/1999/xlink" width="200" height="200"><path d="M214.752 254.24l67.008 67.008a256.096 256.096 0 0 0-8.672 66.304v332.8h407.776l85.344 85.344h-88.32a149.344 149.344 0 0 1-297.6 0H128a42.656 42.656 0 0 1 0-85.312h59.744v-332.8c0-47.296 9.632-92.352 27.008-133.312z m375.264 560h-121.952s16.128 43.776 61.28 43.552 60.672-43.552 60.672-43.552zM233.44 55.168l73.344 73.344a339.968 339.968 0 0 1 222.304-82.304c188.512 0 341.344 152.832 341.344 341.344v304.576l82.656 82.656a42.656 42.656 0 1 1-60.352 60.352L173.12 115.52a42.656 42.656 0 1 1 60.352-60.352z m295.616 76.384A254.848 254.848 0 0 0 376.32 182.08l-8.992 7.008 417.728 417.728v-219.264a256 256 0 0 0-256-256z" p-id="2143"></path></svg>