<?xml version="1.0" standalone="no"?><!DOCTYPE svg PUBLIC "-//W3C//DTD SVG 1.1//EN" "http://www.w3.org/Graphics/SVG/1.1/DTD/svg11.dtd"><svg t="1686540809971" class="icon" viewBox="0 0 1024 1024" version="1.1" xmlns="http://www.w3.org/2000/svg" p-id="1740" xmlns:xlink="http://www.w3.org/1999/xlink" width="200" height="200"><path d="M362.6496 725.3504H252.3136l12.544-12.544a42.6496 42.6496 0 0 0-60.3648-60.3136l-85.2992 85.3504a42.8544 42.8544 0 0 0 0 60.3136l85.2992 85.3504a42.6496 42.6496 0 0 0 60.3648-60.3136l-12.544-12.544h110.336a42.6496 42.6496 0 1 0 0-85.2992z m542.208 12.4928l-85.3504-85.3504a42.6496 42.6496 0 0 0-60.3136 60.3136l12.4928 12.544h-110.336a42.6496 42.6496 0 0 0 0 85.2992h110.336l-12.4928 12.544a42.7008 42.7008 0 1 0 60.3136 60.3136l85.3504-85.3504a42.8544 42.8544 0 0 0 0-60.3136zM880.64 416.9216a147.968 147.968 0 0 0-7.0144-202.496 149.3504 149.3504 0 0 0-254.976 105.5744 147.968 147.968 0 0 0 36.7104 96.9216 212.7872 212.7872 0 0 0-100.6592 180.4288 42.6496 42.6496 0 1 0 85.2992 0 128 128 0 0 1 256 0 42.7008 42.7008 0 1 0 85.3504 0A212.7872 212.7872 0 0 0 880.64 416.9216zM768 384A64 64 0 1 1 768 256a64 64 0 0 1 0 128z m-399.36 32.9216a147.968 147.968 0 0 0-7.0144-202.496 149.3504 149.3504 0 0 0-254.976 105.5744A147.968 147.968 0 0 0 143.36 416.9216a212.8384 212.8384 0 0 0-100.7104 180.4288 42.6496 42.6496 0 1 0 85.3504 0 128 128 0 0 1 256 0 42.6496 42.6496 0 1 0 85.3504 0A212.8384 212.8384 0 0 0 368.64 416.9216zM256 384A64 64 0 1 1 256 256a64 64 0 0 1 0 128z" p-id="1741"></path></svg>