<?xml version="1.0" standalone="no"?><!DOCTYPE svg PUBLIC "-//W3C//DTD SVG 1.1//EN" "http://www.w3.org/Graphics/SVG/1.1/DTD/svg11.dtd"><svg t="1669041934624" class="icon" viewBox="0 0 1024 1024" version="1.1" xmlns="http://www.w3.org/2000/svg" p-id="16022" xmlns:xlink="http://www.w3.org/1999/xlink" width="200" height="200"><path d="M640 170.656a85.344 85.344 0 0 1 85.344-85.344h128a85.344 85.344 0 0 1 85.344 85.344v128A85.344 85.344 0 0 1 853.344 384h-128A85.344 85.344 0 0 1 640 298.656v-128z m213.344 0h-128v128h128v-128zM640 725.344A85.344 85.344 0 0 1 725.344 640h128a85.344 85.344 0 0 1 85.344 85.344v128a85.344 85.344 0 0 1-85.344 85.344h-128A85.344 85.344 0 0 1 640 853.344v-128z m213.344 0h-128v128h128v-128zM170.656 640a85.344 85.344 0 0 0-85.344 85.344v128a85.344 85.344 0 0 0 85.344 85.344h128A85.344 85.344 0 0 0 384 853.344v-128A85.344 85.344 0 0 0 298.656 640h-128z m0 85.344h128v128h-128v-128zM85.344 170.656a85.344 85.344 0 0 1 85.344-85.344h128a85.344 85.344 0 0 1 85.344 85.344v128A85.344 85.344 0 0 1 298.688 384h-128a85.344 85.344 0 0 1-85.344-85.344v-128z m213.312 0h-128v128h128v-128zM170.656 469.344a42.656 42.656 0 0 0 0 85.312h298.656v106.656a42.656 42.656 0 0 0 85.312 0v-106.656h85.344a42.656 42.656 0 0 0 0-85.312h-85.344v-106.656a42.656 42.656 0 0 0-85.312 0v106.656H170.656zM768 512c0-23.552 19.104-42.656 42.656-42.656h42.656a42.656 42.656 0 0 1 0 85.312h-42.656A42.656 42.656 0 0 1 768 512zM554.656 789.344a42.656 42.656 0 0 0-85.312 0V832a42.656 42.656 0 0 0 85.312 0v-42.656zM554.656 170.656a42.656 42.656 0 0 0-85.312 0v42.656a42.656 42.656 0 0 0 85.312 0V170.656z" p-id="16023"></path></svg>