<?xml version="1.0" standalone="no"?><!DOCTYPE svg PUBLIC "-//W3C//DTD SVG 1.1//EN" "http://www.w3.org/Graphics/SVG/1.1/DTD/svg11.dtd"><svg t="1670138550410" class="icon" viewBox="0 0 1024 1024" version="1.1" xmlns="http://www.w3.org/2000/svg" p-id="2122" xmlns:xlink="http://www.w3.org/1999/xlink" width="200" height="200"><path d="M512 128a213.344 213.344 0 0 0-213.344 213.344 42.656 42.656 0 0 0 85.312 0 128 128 0 1 1 128 128c-23.552 0-42.656 19.104-42.656 42.656v113.792a42.656 42.656 0 0 0 85.312 0V550.4A213.408 213.408 0 0 0 511.936 128zM583.104 810.656a71.104 71.104 0 1 1-142.208 0 71.104 71.104 0 0 1 142.208 0z" p-id="2123"></path></svg>