<?xml version="1.0" standalone="no"?><!DOCTYPE svg PUBLIC "-//W3C//DTD SVG 1.1//EN" "http://www.w3.org/Graphics/SVG/1.1/DTD/svg11.dtd"><svg t="1669042125745" class="icon" viewBox="0 0 1024 1024" version="1.1" xmlns="http://www.w3.org/2000/svg" p-id="22464" xmlns:xlink="http://www.w3.org/1999/xlink" width="200" height="200"><path d="M385.728 414.496a42.656 42.656 0 0 0 0 85.312h252.512a42.656 42.656 0 0 0 0-85.312h-252.512zM343.072 650.496c0-23.552 19.104-42.656 42.656-42.656h156a42.656 42.656 0 0 1 0 85.312h-156a42.656 42.656 0 0 1-42.656-42.656z" p-id="22465"></path><path d="M405.312 49.824h213.344A85.344 85.344 0 0 1 704 135.168v7.072h59.584a128 128 0 0 1 128 128v524.512a170.656 170.656 0 0 1-170.656 170.656H305.312a170.656 170.656 0 0 1-170.656-170.656V270.24a128 128 0 0 1 128-128H320v-7.072a85.344 85.344 0 0 1 85.344-85.344z m295.968 177.76a85.376 85.376 0 0 1-82.624 63.936h-213.344a85.344 85.344 0 0 1-82.624-63.936H262.624c-23.552 0-42.656 19.104-42.656 42.656v524.512a85.344 85.344 0 0 0 85.344 85.344h415.616a85.344 85.344 0 0 0 85.344-85.344V270.24c0-23.552-19.104-42.656-42.656-42.656h-62.304z m-295.968-92.416v71.04h213.344v-71.04h-213.344z" p-id="22466"></path></svg>