<?xml version="1.0" standalone="no"?><!DOCTYPE svg PUBLIC "-//W3C//DTD SVG 1.1//EN" "http://www.w3.org/Graphics/SVG/1.1/DTD/svg11.dtd"><svg t="1669041455179" class="icon" viewBox="0 0 1024 1024" version="1.1" xmlns="http://www.w3.org/2000/svg" p-id="9407" xmlns:xlink="http://www.w3.org/1999/xlink" width="200" height="200"><path d="M471.616 703.168L480 661.344l-8.384 41.824c7.296 1.44 14.816 0.992 21.856-1.376l128-42.656a42.656 42.656 0 1 0-27.008-80.96l-117.28 39.104-2.784-0.544a15861.952 15861.952 0 0 0-151.936-29.312 6320.96 6320.96 0 0 0-123.52-22.144c-34.4-5.728-66.624-10.592-81.696-10.592-17.312 0-36.608 4.32-52.096 17.888-16.256 14.208-22.56 33.536-22.56 51.456 0 32.608 19.872 64.224 44.512 88.832 23.136 23.136 73.536 67.872 135.264 107.168 60.544 38.528 138.432 76 214.912 76 71.232 0 130.016-17.92 178.816-34.176l13.344-4.48c44.096-14.784 75.52-25.344 106.496-25.344h213.312l0.032-85.344h-213.344c-45.856 0-91.264 15.392-132.288 29.28l-14.528 4.896c-47.168 15.712-95.072 29.824-151.84 29.824-51.52 0-112.32-26.528-169.088-62.656-55.584-35.36-101.184-75.968-120.736-95.52a114.56 114.56 0 0 1-9.216-10.304c11.552 1.568 27.264 3.968 46.688 7.2 35.584 5.92 79.264 13.856 121.824 21.856 42.528 7.968 83.744 15.936 114.336 21.92l36.736 7.232 13.76 2.72zM115.52 640.096z m833.824 106.56a42.656 42.656 0 1 1-0.032 85.312l0.032-85.344z" p-id="9408"></path><path d="M837.504 501.056a403.168 403.168 0 0 1 81.664 62.464 42.656 42.656 0 1 0 60.352-60.352 486.848 486.848 0 0 0-99.68-76.192c-40.832-23.328-90.976-42.944-143.84-42.944-27.104 0-60.128 6.528-92.832 15.52a937.28 937.28 0 0 0-103.296 35.648 849.056 849.056 0 0 0-93.344 44.32c-13.344 7.52-25.76 15.264-36.288 22.976-9.984 7.296-20.64 16.256-28.384 26.592-19.2 25.6-17.312 53.952-9.312 75.232 7.392 19.744 20.832 36.608 32.32 48.864 12 12.8 24.8 23.616 34.304 31.072 4.832 3.776 8.96 6.816 11.936 8.96l3.616 2.528 1.088 0.736 0.352 0.224 0.128 0.096 0.032 0.032s0.032 0.032 23.712-35.488l-23.68 35.488a42.656 42.656 0 0 0 47.392-70.976l-0.032-0.032-0.544-0.384-2.368-1.664a232.48 232.48 0 0 1-8.928-6.72 223.136 223.136 0 0 1-24.704-22.272 85.376 85.376 0 0 1-13.536-17.92c1.792-1.568 4.096-3.424 7.04-5.568a289.28 289.28 0 0 1 27.808-17.504 760.64 760.64 0 0 1 83.68-39.68 855.04 855.04 0 0 1 93.696-32.352c30.304-8.352 54.624-12.48 70.176-12.48 32.448 0 67.68 12.384 101.504 31.712zM510.176 286.176a42.656 42.656 0 0 1-60.352 0L352 188.352 254.176 286.176a42.656 42.656 0 1 1-60.352-60.352l128-128a42.656 42.656 0 0 1 60.352 0l128 128a42.656 42.656 0 0 1 0 60.352z" p-id="9409"></path><path d="M352 448a42.656 42.656 0 0 1-42.656-42.656V128a42.656 42.656 0 0 1 85.312 0v277.344c0 23.552-19.104 42.656-42.656 42.656z" p-id="9410"></path></svg>