<?xml version="1.0" standalone="no"?><!DOCTYPE svg PUBLIC "-//W3C//DTD SVG 1.1//EN" "http://www.w3.org/Graphics/SVG/1.1/DTD/svg11.dtd"><svg t="1672110138153" class="icon" viewBox="0 0 1024 1024" version="1.1" xmlns="http://www.w3.org/2000/svg" p-id="1638" xmlns:xlink="http://www.w3.org/1999/xlink" width="200" height="200"><path d="M512 170.656C323.488 170.656 170.656 323.488 170.656 512S323.488 853.344 512 853.344c94.272 0 179.552-38.144 241.344-99.968a42.656 42.656 0 1 1 60.352 60.352A425.504 425.504 0 0 1 512 938.688c-235.648 0-426.656-191.04-426.656-426.656S276.384 85.376 512 85.376c117.824 0 224.544 47.808 301.696 124.96a1499.84 1499.84 0 0 1 39.648 41.664l-53.248 68.128s-29.888-32.608-46.72-49.44a340.128 340.128 0 0 0-241.344-99.968z" p-id="1639"></path><path d="M896 128c23.552 0 42.656 19.104 42.656 42.656v192c0 23.552-19.104 42.656-42.656 42.656h-192A42.656 42.656 0 0 1 704 320l96.064 0.096 53.248-68.128V170.656c0-23.552 19.104-42.656 42.656-42.656z" p-id="1640"></path></svg>