<?xml version="1.0" standalone="no"?><!DOCTYPE svg PUBLIC "-//W3C//DTD SVG 1.1//EN" "http://www.w3.org/Graphics/SVG/1.1/DTD/svg11.dtd"><svg t="1708658775727" class="icon" viewBox="0 0 1024 1024" version="1.1" xmlns="http://www.w3.org/2000/svg" p-id="4133" xmlns:xlink="http://www.w3.org/1999/xlink" width="200" height="200"><path d="M13.888 531.904A12.8 12.8 0 0 1 24.544 512h122.848a12.8 12.8 0 0 1 10.656 19.904l-54.304 81.472a21.312 21.312 0 0 1-35.488 0L13.952 531.904zM533.984 298.688a42.656 42.656 0 1 0-85.312-0.032l-0.032 213.536c0 11.328 4.48 22.176 12.512 30.176l127.808 127.808a42.656 42.656 0 1 0 60.352-60.352l-115.296-115.296 0.032-195.84z" p-id="4134"></path><path d="M512.64 128c-212.064 0-384 171.936-384 384H43.296c0-259.2 210.112-469.344 469.344-469.344S981.984 252.768 981.984 512c0 259.2-210.144 469.344-469.344 469.344a468.8 468.8 0 0 1-375.488-187.712 42.688 42.688 0 0 1 68.224-51.264A383.36 383.36 0 0 0 512.64 896c212.064 0 384-171.936 384-384s-171.936-384-384-384z" p-id="4135"></path></svg>