<?xml version="1.0" standalone="no"?><!DOCTYPE svg PUBLIC "-//W3C//DTD SVG 1.1//EN" "http://www.w3.org/Graphics/SVG/1.1/DTD/svg11.dtd"><svg t="1669042202055" class="icon" viewBox="0 0 1024 1024" version="1.1" xmlns="http://www.w3.org/2000/svg" p-id="24154" xmlns:xlink="http://www.w3.org/1999/xlink" width="200" height="200"><path d="M213.344 170.656c-23.552 0-42.656 19.104-42.656 42.656v106.656a42.656 42.656 0 0 1-85.312 0V213.312a128 128 0 0 1 128-128h106.656a42.656 42.656 0 0 1 0 85.312H213.376zM128 661.344c23.552 0 42.656 19.104 42.656 42.656v106.656c0 23.552 19.104 42.656 42.656 42.656h106.656a42.656 42.656 0 0 1 0 85.312H213.312a128 128 0 0 1-128-128v-106.656c0-23.552 19.104-42.656 42.656-42.656zM938.656 704a42.656 42.656 0 0 0-85.312 0v106.656c0 23.552-19.104 42.656-42.656 42.656h-106.656a42.656 42.656 0 0 0 0 85.312h106.656a128 128 0 0 0 128-128v-106.656zM661.344 128c0-23.552 19.104-42.656 42.656-42.656h106.656a128 128 0 0 1 128 128V320a42.656 42.656 0 0 1-85.312 0V213.344c0-23.552-19.104-42.656-42.656-42.656h-106.656a42.656 42.656 0 0 1-42.656-42.656zM213.344 469.344a42.656 42.656 0 0 0 0 85.312h597.344a42.656 42.656 0 0 0 0-85.312H213.344z" p-id="24155"></path></svg>