<?xml version="1.0" standalone="no"?><!DOCTYPE svg PUBLIC "-//W3C//DTD SVG 1.1//EN" "http://www.w3.org/Graphics/SVG/1.1/DTD/svg11.dtd"><svg t="1669041919413" class="icon" viewBox="0 0 1024 1024" version="1.1" xmlns="http://www.w3.org/2000/svg" p-id="15405" xmlns:xlink="http://www.w3.org/1999/xlink" width="200" height="200"><path d="M554.496 682.656a42.656 42.656 0 0 1-85.312 0V231.168l-119.008 119.008a42.656 42.656 0 1 1-60.352-60.352l189.632-189.632a42.624 42.624 0 0 1 32.352-14.848h0.096c10.944-0.032 21.92 4.128 30.272 12.512l192 192a42.656 42.656 0 1 1-60.352 60.352l-119.328-119.328v451.84z" p-id="15406"></path><path d="M938.656 512a42.656 42.656 0 0 0-85.312 0v256A85.344 85.344 0 0 1 768 853.344H256A85.344 85.344 0 0 1 170.656 768v-255.84a42.656 42.656 0 0 0-85.312 0V768A170.656 170.656 0 0 0 256 938.656h512A170.656 170.656 0 0 0 938.656 768v-256z" p-id="15407"></path></svg>