<?xml version="1.0" standalone="no"?><!DOCTYPE svg PUBLIC "-//W3C//DTD SVG 1.1//EN" "http://www.w3.org/Graphics/SVG/1.1/DTD/svg11.dtd"><svg t="1669042135878" class="icon" viewBox="0 0 1024 1024" version="1.1" xmlns="http://www.w3.org/2000/svg" p-id="22929" xmlns:xlink="http://www.w3.org/1999/xlink" width="200" height="200"><path d="M755.488 414.176a42.656 42.656 0 1 0-60.352-60.352l-225.824 225.824-119.168-119.168a42.656 42.656 0 1 0-60.352 60.352l149.344 149.344a42.656 42.656 0 0 0 60.352 0l256-256z" p-id="22930"></path><path d="M571.968 58.336a213.216 213.216 0 0 0-119.584 0L208.192 129.6a170.688 170.688 0 0 0-122.848 163.84v133.856A604.192 604.192 0 0 0 441.6 978.272c44.8 20.128 96.128 20.128 140.928 0a604.16 604.16 0 0 0 356.16-550.88V293.408a170.624 170.624 0 0 0-122.816-163.808l-243.872-71.232z m-95.68 81.92a127.84 127.84 0 0 1 71.744 0l243.872 71.232a85.344 85.344 0 0 1 61.408 81.92v133.984a518.784 518.784 0 0 1-305.824 473.056 86.496 86.496 0 0 1-70.944 0 518.88 518.88 0 0 1-305.92-473.152V293.44c0-37.92 25.024-71.296 61.44-81.92l244.192-71.264z" p-id="22931"></path></svg>