<?xml version="1.0" standalone="no"?><!DOCTYPE svg PUBLIC "-//W3C//DTD SVG 1.1//EN" "http://www.w3.org/Graphics/SVG/1.1/DTD/svg11.dtd"><svg t="1737426887803" class="icon" viewBox="0 0 1056 1024" version="1.1" xmlns="http://www.w3.org/2000/svg" p-id="1897" xmlns:xlink="http://www.w3.org/1999/xlink" width="206.25" height="200"><path d="M584.224 399.04a32 32 0 0 0-64 0v53.376h-53.376a32 32 0 0 0 0 64h53.376v53.376a32 32 0 0 0 64 0v-53.376h53.376a32 32 0 0 0 0-64h-53.376V399.04z" p-id="1898"></path><path d="M552.256 95.84a288.096 288.096 0 0 0-288.096 288.096v159.52l-48.864 48.832a124.928 124.928 0 0 0-36.512 88.16 119.68 119.68 0 0 0 119.616 119.648h115.936a138.24 138.24 0 0 0 137.824 128.064h0.096a138.24 138.24 0 0 0 137.92-128.064h115.936a119.68 119.68 0 0 0 119.648-119.648 124.864 124.864 0 0 0-36.512-88.128l-48.864-48.832v-159.52a288.096 288.096 0 0 0-288.096-288.096z m106.368 640.256H298.432a55.616 55.616 0 0 1-55.616-55.616c0-16.096 6.4-31.552 17.792-42.976l58.208-58.144a32 32 0 0 0 9.376-22.624v-172.8c0-123.776 100.32-224.096 224.096-224.096s224.096 100.32 224.096 224.096v172.8c0 8.48 3.36 16.64 9.376 22.624l58.176 58.144a60.8 60.8 0 0 1 17.792 42.976 55.68 55.68 0 0 1-55.648 55.616h-147.488z m-179.968 64h147.168a74.272 74.272 0 0 1-73.568 64.064h-0.096a74.176 74.176 0 0 1-73.504-64.064z" p-id="1899"></path></svg>