<?xml version="1.0" standalone="no"?><!DOCTYPE svg PUBLIC "-//W3C//DTD SVG 1.1//EN" "http://www.w3.org/Graphics/SVG/1.1/DTD/svg11.dtd"><svg t="1669042104392" class="icon" viewBox="0 0 1024 1024" version="1.1" xmlns="http://www.w3.org/2000/svg" p-id="21547" xmlns:xlink="http://www.w3.org/1999/xlink" width="200" height="200"><path d="M170.656 149.344a42.656 42.656 0 0 0 0 85.312h682.656a42.656 42.656 0 0 0 0-85.312H170.656zM481.824 311.168a42.656 42.656 0 0 1 60.352 0l256 256a42.656 42.656 0 1 1-60.352 60.352l-183.168-183.168v494.336a42.656 42.656 0 0 1-85.312 0V444.352L286.176 627.52a42.656 42.656 0 1 1-60.352-60.352l256-256z" p-id="21548"></path></svg>