<?xml version="1.0" standalone="no"?><!DOCTYPE svg PUBLIC "-//W3C//DTD SVG 1.1//EN" "http://www.w3.org/Graphics/SVG/1.1/DTD/svg11.dtd"><svg t="1737426943074" class="icon" viewBox="0 0 1024 1024" version="1.1" xmlns="http://www.w3.org/2000/svg" p-id="2221" xmlns:xlink="http://www.w3.org/1999/xlink" width="200" height="200"><path d="M604.512 106.656a417.216 417.216 0 1 0 312.8 312.8 32 32 0 0 0-62.368 14.368 353.184 353.184 0 0 1-593.92 329.088 353.216 353.216 0 0 1 329.088-593.92 32 32 0 0 0 14.368-62.368z" p-id="2222"></path><path d="M736 192.032a32 32 0 0 0 0 64h31.968V288a32 32 0 0 0 64 0v-31.968H864a32 32 0 0 0 0-64h-32.032V160a32 32 0 0 0-64 0v32.032H736zM544 341.344a32 32 0 0 0-64 0V640a32 32 0 0 0 64 0v-298.656zM341.344 432.576a32 32 0 0 1 32 32V640a32 32 0 0 1-64 0v-175.424a32 32 0 0 1 32-32zM714.656 523.072a32 32 0 0 0-64 0V640a32 32 0 0 0 64 0v-116.928z" p-id="2223"></path></svg>