<?xml version="1.0" standalone="no"?><!DOCTYPE svg PUBLIC "-//W3C//DTD SVG 1.1//EN" "http://www.w3.org/Graphics/SVG/1.1/DTD/svg11.dtd"><svg t="1669042164545" class="icon" viewBox="0 0 1024 1024" version="1.1" xmlns="http://www.w3.org/2000/svg" p-id="24001" xmlns:xlink="http://www.w3.org/1999/xlink" width="200" height="200"><path d="M341.344 397.344a170.656 170.656 0 1 1 213.312 165.28v48.032a42.656 42.656 0 0 1-85.312 0v-85.344c0-23.552 19.104-42.656 42.656-42.656a85.344 85.344 0 1 0-85.344-85.344 42.656 42.656 0 0 1-85.312 0zM565.344 749.344a53.344 53.344 0 1 1-106.688 0 53.344 53.344 0 0 1 106.688 0z" p-id="24002"></path><path d="M85.344 192A106.656 106.656 0 0 1 192 85.344h640A106.656 106.656 0 0 1 938.656 192v640A106.656 106.656 0 0 1 832 938.656H192A106.656 106.656 0 0 1 85.344 832V192zM192 170.656A21.344 21.344 0 0 0 170.656 192v640c0 11.776 9.536 21.344 21.344 21.344h640a21.344 21.344 0 0 0 21.344-21.344V192A21.344 21.344 0 0 0 832 170.656H192z" p-id="24003"></path></svg>