<?xml version="1.0" standalone="no"?><!DOCTYPE svg PUBLIC "-//W3C//DTD SVG 1.1//EN" "http://www.w3.org/Graphics/SVG/1.1/DTD/svg11.dtd"><svg t="1669041578896" class="icon" viewBox="0 0 1024 1024" version="1.1" xmlns="http://www.w3.org/2000/svg" p-id="11091" xmlns:xlink="http://www.w3.org/1999/xlink" width="200" height="200"><path d="M180.128 180.128C265.024 95.232 382.4 42.656 512 42.656s246.976 52.576 331.872 137.472C928.768 265.024 981.344 382.4 981.344 512s-52.576 246.976-137.472 331.872C758.976 928.768 641.6 981.344 512 981.344s-246.976-52.576-331.872-137.472C95.232 758.976 42.656 641.6 42.656 512S95.232 265.024 180.128 180.128z m575.36 234.048a42.656 42.656 0 1 0-60.352-60.352l-225.824 225.824-97.824-97.824a42.656 42.656 0 1 0-60.352 60.352l128 128a42.656 42.656 0 0 0 60.352 0l256-256z" p-id="11092"></path></svg>