<?xml version="1.0" standalone="no"?><!DOCTYPE svg PUBLIC "-//W3C//DTD SVG 1.1//EN" "http://www.w3.org/Graphics/SVG/1.1/DTD/svg11.dtd"><svg t="1722934044967" class="icon" viewBox="0 0 1024 1024" version="1.1" xmlns="http://www.w3.org/2000/svg" p-id="8410" xmlns:xlink="http://www.w3.org/1999/xlink" width="200" height="200"><path d="M554.666667 426.666667h128a42.666667 42.666667 0 1 0 0-85.333334H341.333333a42.666667 42.666667 0 0 0 0 85.333334h128v213.333333a42.666667 42.666667 0 1 0 85.333334 0v-213.333333z" p-id="8411"></path><path d="M227.541333 128.170667c26.581333-16.469333 58.88-27.904 91.178667-27.904h386.56c32.298667 0 64.597333 11.434667 91.178667 27.861333 26.538667 16.426667 51.285333 40.192 65.664 69.248l102.314666 205.525333c17.28 34.56 20.352 74.282667 13.525334 110.165334-6.698667 35.413333-23.637333 70.613333-51.114667 96.298666l-294.741333 310.058667a44.16 44.16 0 0 1-2.304 2.261333c-65.322667 59.050667-169.813333 59.050667-235.178667 0a43.605333 43.605333 0 0 1-2.304-2.261333L97.706667 609.450667c-27.733333-25.770667-44.757333-61.013333-51.370667-96.426667-6.741333-35.968-3.541333-75.648 13.653333-110.08l102.314667-205.44c14.165333-29.141333 38.826667-52.949333 65.28-69.333333z m44.970667 72.533333c-16.384 10.112-28.117333 22.912-33.578667 34.218667l-0.213333 0.426666-102.4 205.696c-7.552 15.061333-10.112 35.328-6.186667 56.192 3.925333 20.906667 13.653333 38.826667 26.112 50.133334l2.261334 2.218666 294.442666 309.76c32.554667 28.373333 85.973333 28.373333 118.528 0l294.442667-309.76 2.133333-2.090666c12.373333-11.306667 22.101333-29.354667 26.069334-50.346667 3.968-20.906667 1.493333-41.130667-5.973334-56.106667l-0.042666-0.042666-102.442667-205.781334c-5.717333-11.477333-17.664-24.32-34.048-34.517333-16.426667-10.112-33.408-15.104-46.336-15.104H318.72c-12.928 0-29.866667 4.992-46.208 15.104z" p-id="8412"></path></svg>