<?xml version="1.0" standalone="no"?><!DOCTYPE svg PUBLIC "-//W3C//DTD SVG 1.1//EN" "http://www.w3.org/Graphics/SVG/1.1/DTD/svg11.dtd"><svg t="1708658251021" class="icon" viewBox="0 0 1024 1024" version="1.1" xmlns="http://www.w3.org/2000/svg" p-id="3080" xmlns:xlink="http://www.w3.org/1999/xlink" width="200" height="200"><path d="M473.6 85.344c-16.864 0-32.128 9.92-38.976 25.344l-140.448 316H217.824c-69.184-0.992-123.552 54.944-132.096 118.016a42.688 42.688 0 0 0-0.384 5.728v268.8c0 1.92 0.128 3.808 0.384 5.728a131.424 131.424 0 0 0 132.096 113.76h549.952c60.64 0.544 108.64-43.936 117.408-101.504v-0.064l52.992-345.6a119.488 119.488 0 0 0-119.2-137.376h-187.52V243.232A157.856 157.856 0 0 0 473.6 85.376z m-110.944 397.312l136.576-307.328A72.576 72.576 0 0 1 546.112 243.2v153.6c0 23.552 19.104 42.656 42.656 42.656h230.88a34.24 34.24 0 0 1 34.144 39.232L800.8 824.32c-2.752 18.048-16.544 29.184-32.352 29.024H362.624V482.656z" p-id="3081"></path></svg>