<?xml version="1.0" standalone="no"?><!DOCTYPE svg PUBLIC "-//W3C//DTD SVG 1.1//EN" "http://www.w3.org/Graphics/SVG/1.1/DTD/svg11.dtd"><svg t="1669041989683" class="icon" viewBox="0 0 1024 1024" version="1.1" xmlns="http://www.w3.org/2000/svg" p-id="18158" xmlns:xlink="http://www.w3.org/1999/xlink" width="200" height="200"><path d="M256 85.344h512A170.656 170.656 0 0 1 938.656 256v512A170.656 170.656 0 0 1 768 938.656H256A170.656 170.656 0 0 1 85.344 768V256A170.656 170.656 0 0 1 256 85.344z m213.344 85.312H256A85.344 85.344 0 0 0 170.656 256v512A85.344 85.344 0 0 0 256 853.344h213.344V170.688z m85.312 682.688H768A85.344 85.344 0 0 0 853.344 768v-213.344h-298.656v298.656z m298.688-384V256A85.344 85.344 0 0 0 768 170.656h-213.344v298.656h298.656z" p-id="18159"></path></svg>