<?xml version="1.0" standalone="no"?><!DOCTYPE svg PUBLIC "-//W3C//DTD SVG 1.1//EN" "http://www.w3.org/Graphics/SVG/1.1/DTD/svg11.dtd"><svg t="1669041949093" class="icon" viewBox="0 0 1024 1024" version="1.1" xmlns="http://www.w3.org/2000/svg" p-id="16630" xmlns:xlink="http://www.w3.org/1999/xlink" width="200" height="200"><path d="M670.176 119.168a42.656 42.656 0 1 0-60.352 60.352l183.168 183.168H128A42.656 42.656 0 0 0 128 448h768a42.56 42.56 0 0 0 39.296-25.952 42.304 42.304 0 0 0 0-33.472 42.88 42.88 0 0 0-8.16-12.48l-1.024-1.056-255.904-255.904zM128.704 579.232c5.024-2.08 10.56-3.232 16.32-3.232h768a42.656 42.656 0 0 1 0 85.312H248.032l183.168 183.168a42.656 42.656 0 1 1-60.352 60.352l-256-256a42.464 42.464 0 0 1-12.48-30.144 42.528 42.528 0 0 1 26.336-39.424z" p-id="16631"></path></svg>