<?xml version="1.0" standalone="no"?><!DOCTYPE svg PUBLIC "-//W3C//DTD SVG 1.1//EN" "http://www.w3.org/Graphics/SVG/1.1/DTD/svg11.dtd"><svg t="1708658751500" class="icon" viewBox="0 0 1024 1024" version="1.1" xmlns="http://www.w3.org/2000/svg" p-id="3983" xmlns:xlink="http://www.w3.org/1999/xlink" width="200" height="200"><path d="M128 85.344c-23.552 0-42.656 19.104-42.656 42.656v256c0 23.552 19.104 42.656 42.656 42.656h256c23.552 0 42.656-19.104 42.656-42.656V298.656h170.656v40.512l-258.144 258.144h-211.2c-23.552 0-42.656 19.104-42.656 42.656v256c0 23.552 19.104 42.656 42.656 42.656h256c23.552 0 42.656-19.104 42.656-42.656v-85.344h170.656v85.344c0 23.552 19.104 42.656 42.656 42.656h256c23.552 0 42.656-19.104 42.656-42.656v-256c0-23.552-19.104-42.656-42.656-42.656h-256c-23.552 0-42.656 19.104-42.656 42.656v85.344h-170.656v-85.344c0-2.944-0.288-5.824-0.864-8.608l205.6-205.6c2.784 0.576 5.664 0.864 8.608 0.864h256c23.552 0 42.656-19.104 42.656-42.656v-256c0-23.552-19.104-42.656-42.656-42.656h-256c-23.552 0-42.656 19.104-42.656 42.656v85.344h-170.656V127.968c0-23.552-19.104-42.656-42.656-42.656H128z m42.656 597.312h170.656v170.656H170.656v-170.656z m682.688 170.688h-170.656v-170.656h170.656v170.656zM170.656 170.656h170.656v170.656H170.656V170.656z m512 0h170.656v170.656h-170.656V170.656z" p-id="3984"></path></svg>