<?xml version="1.0" standalone="no"?><!DOCTYPE svg PUBLIC "-//W3C//DTD SVG 1.1//EN" "http://www.w3.org/Graphics/SVG/1.1/DTD/svg11.dtd"><svg t="1669041927443" class="icon" viewBox="0 0 1024 1024" version="1.1" xmlns="http://www.w3.org/2000/svg" p-id="15713" xmlns:xlink="http://www.w3.org/1999/xlink" width="200" height="200"><path d="M651.2 410.88a42.688 42.688 0 0 0-53.408-51.36l-164.992 48.512a42.656 42.656 0 0 0-29.344 30.528l-41.952 166.784a42.688 42.688 0 0 0 53.408 51.36l164.992-48.544c14.496-4.256 25.664-15.872 29.344-30.528l41.952-166.784z m-188.736 142.912l17.792-70.752 69.984-20.576-17.792 70.752-69.984 20.576z" p-id="15714"></path><path d="M42.656 512C42.656 252.8 252.768 42.656 512 42.656S981.344 252.768 981.344 512c0 259.2-210.144 469.344-469.344 469.344S42.656 771.2 42.656 512zM512 128C299.936 128 128 299.936 128 512s171.936 384 384 384 384-171.936 384-384S724.064 128 512 128z" p-id="15715"></path></svg>