<?xml version="1.0" standalone="no"?><!DOCTYPE svg PUBLIC "-//W3C//DTD SVG 1.1//EN" "http://www.w3.org/Graphics/SVG/1.1/DTD/svg11.dtd"><svg t="1722934124091" class="icon" viewBox="0 0 1024 1024" version="1.1" xmlns="http://www.w3.org/2000/svg" p-id="9544" xmlns:xlink="http://www.w3.org/1999/xlink" width="200" height="200"><path d="M42.24 512a236.970667 236.970667 0 0 1 236.8-236.8c78.933333 0 147.328 38.826667 189.866667 97.408a42.666667 42.666667 0 1 1-69.12 50.090667A148.224 148.224 0 0 0 279.04 360.533333 151.637333 151.637333 0 0 0 127.573333 512a151.637333 151.637333 0 0 0 151.466667 151.466667 163.029333 163.029333 0 0 0 139.648-79.146667l56.704-94.208 0.042667-0.128 56.32-94.250667A248.362667 248.362667 0 0 1 744.533333 275.2 236.970667 236.970667 0 0 1 981.333333 512a236.970667 236.970667 0 0 1-236.8 236.8c-78.634667 0-146.858667-38.912-189.696-97.194667a42.666667 42.666667 0 0 1 68.778667-50.517333c27.989333 38.144 71.552 62.378667 120.917333 62.378667A151.637333 151.637333 0 0 0 896 512a151.637333 151.637333 0 0 0-151.466667-151.466667 163.029333 163.029333 0 0 0-139.605333 79.104l-56.32 94.250667-0.042667 0.128-56.746666 94.250667A248.405333 248.405333 0 0 1 279.04 748.8 236.970667 236.970667 0 0 1 42.24 512z" p-id="9545"></path></svg>