<?xml version="1.0" standalone="no"?><!DOCTYPE svg PUBLIC "-//W3C//DTD SVG 1.1//EN" "http://www.w3.org/Graphics/SVG/1.1/DTD/svg11.dtd"><svg t="1669041931328" class="icon" viewBox="0 0 1024 1024" version="1.1" xmlns="http://www.w3.org/2000/svg" p-id="15868" xmlns:xlink="http://www.w3.org/1999/xlink" width="200" height="200"><path d="M634.816 115.488a128 128 0 0 1 181.024 0l92.64 92.64a128 128 0 0 1 0 181.024L389.152 908.48a128 128 0 0 1-181.024 0l-92.64-92.64a128 128 0 0 1 0-181.024L634.816 115.488z m-16.16 136.864l-46.336 46.336 97.824 97.824a42.656 42.656 0 1 1-60.352 60.352l-97.824-97.824-46.336 46.336 55.168 55.168a42.656 42.656 0 1 1-60.352 60.352l-55.168-55.168-46.336 46.336 97.824 97.824a42.656 42.656 0 1 1-60.352 60.352l-97.824-97.824-46.336 46.336 55.168 55.168a42.656 42.656 0 1 1-60.352 60.352l-55.168-55.168-16.16 16.16a42.656 42.656 0 0 0 0 60.352l92.64 92.64a42.656 42.656 0 0 0 60.352 0l519.328-519.328a42.656 42.656 0 0 0 0-60.352l-92.64-92.64a42.656 42.656 0 0 0-60.352 0l-16.16 16.16 55.168 55.168a42.656 42.656 0 1 1-60.352 60.352L618.56 252.448z" p-id="15869"></path></svg>