<?xml version="1.0" standalone="no"?><!DOCTYPE svg PUBLIC "-//W3C//DTD SVG 1.1//EN" "http://www.w3.org/Graphics/SVG/1.1/DTD/svg11.dtd"><svg t="1708658208433" class="icon" viewBox="0 0 1024 1024" version="1.1" xmlns="http://www.w3.org/2000/svg" p-id="2773" xmlns:xlink="http://www.w3.org/1999/xlink" width="200" height="200"><path d="M512 576c23.552 0 42.656 19.104 42.656 42.656v128a42.656 42.656 0 0 1-85.312 0v-128c0-23.552 19.104-42.656 42.656-42.656z" p-id="2774"></path><path d="M512 64c141.376 0 256 106.656 256 234.656a42.656 42.656 0 0 1-85.312 0c0-85.344-76.416-149.344-170.656-149.344s-170.656 76.416-170.656 170.656v86.368l469.344-1.024a85.344 85.344 0 0 1 85.344 85.344v384A85.344 85.344 0 0 1 810.72 960H213.376a85.344 85.344 0 0 1-85.344-85.344v-384a85.344 85.344 0 0 1 85.344-85.344l42.688 1.024V319.968a256 256 0 0 1 256-256z m298.656 810.656v-384H213.312v384h597.344z" p-id="2775"></path></svg>