<?xml version="1.0" standalone="no"?><!DOCTYPE svg PUBLIC "-//W3C//DTD SVG 1.1//EN" "http://www.w3.org/Graphics/SVG/1.1/DTD/svg11.dtd"><svg t="1722934077117" class="icon" viewBox="0 0 1024 1024" version="1.1" xmlns="http://www.w3.org/2000/svg" p-id="8898" xmlns:xlink="http://www.w3.org/1999/xlink" width="200" height="200"><path d="M441.386667 351.829333c-1.450667 108.970667-7.68 117.76-20.949334 129.834667 59.349333 39.466667 137.941333 31.018667 186.453334 8.533333-26.112-42.112-21.845333-80.085333-18.389334-110.421333 1.152-10.24 2.176-19.584 1.962667-27.946667 124.714667-48.213333 154.026667-149.888 163.242667-194.688 14.762667-75.776-9.130667-76.928-22.912-68.010666-25.685333 43.605333-58.325333 53.845333-71.466667 53.504-81.493333-6.314667-131.584 26.794667-146.432 44.117333-37.418667-38.144-83.029333-53.930667-107.178667-50.346667-54.058667 12.8-79.402667 0-98.048-16.810666-19.968-24.149333-40.832-28.672-40.832-11.989334-14.165333 138.496 101.845333 219.562667 174.549334 244.224zM378.453333 199.765333c-40.789333-1.706667-62.762667-32.554667-69.845333-52.48 26.922667 26.154667 59.733333 26.666667 88.064 27.093334a307.2 307.2 0 0 1 21.461333 0.810666c42.453333 1.194667 56.32 33.109333 56.106667 61.098667-32.341333-29.994667-64.853333-35.285333-95.786667-36.522667z" p-id="8899"></path><path d="M484.693333 568.746667c-89.088-48.213333-176.64 8.874667-213.333333 46.421333 88.362667-31.232 163.541333 1.194667 228.522667 29.269333 17.28 7.466667 33.834667 14.592 49.706666 20.138667 97.92 40.789333 162.56-16.768 191.061334-80.042667-79.786667 66.56-166.528 32.554667-255.914667-15.786666z" p-id="8900"></path><path d="M271.317333 734.165333c36.778667-37.546667 124.288-94.677333 213.418667-46.464 89.386667 48.341333 176.170667 82.389333 255.914667 15.786667-28.501333 63.317333-93.141333 120.832-191.061334 80.085333-15.872-5.546667-32.426667-12.672-49.706666-20.138666-64.981333-28.074667-140.16-60.501333-228.565334-29.269334z" p-id="8901"></path><path d="M807.594667 370.005333l1.152 1.877334a341.333333 341.333333 0 1 1-592.341334-1.877334 42.666667 42.666667 0 0 0-72.96-44.16l-0.128-0.042666A424.704 424.704 0 0 0 85.333333 540.672c0 235.648 191.018667 426.666667 426.666667 426.666667s426.666667-191.018667 426.666667-426.666667a424.704 424.704 0 0 0-58.026667-214.869333l-0.042667 0.042666a42.666667 42.666667 0 0 0-72.96 44.16z" p-id="8902"></path></svg>