<svg width="48" height="48" viewBox="0 0 48 48" fill="none" xmlns="http://www.w3.org/2000/svg">
<g clip-path="url(#clip0_4235_35228)">
<circle cx="24" cy="24" r="24" fill="#F3F3F3" fill-opacity="0.04"/>
<mask id="mask0_4235_35228" style="mask-type:alpha" maskUnits="userSpaceOnUse" x="10" y="12" width="26" height="24">
<path d="M31.8305 13.4825C31.8486 13.4478 31.8709 13.3949 31.8771 13.3322L33.4811 14.1924L33.4894 14.1969L33.498 14.2007C34.0882 14.4622 34.5085 15.0446 34.547 15.8212L35.1818 28.6167C35.2435 29.8603 34.2975 31.0896 33.0795 31.3485L14.6466 35.2665C14.1121 35.3801 13.6237 35.2863 13.2423 35.0497L13.242 35.0495L11.189 33.7803L11.4423 33.4667C11.4823 33.492 11.527 33.5213 11.5754 33.5529C11.5868 33.5604 11.5984 33.5679 11.6102 33.5756C11.7091 33.6402 11.8228 33.7138 11.9129 33.7604C11.9516 33.7804 12.0155 33.8116 12.0818 33.8219C12.1105 33.8263 12.1955 33.8365 12.2796 33.7828C12.3872 33.7142 12.406 33.6031 12.4029 33.5398L11.7681 20.7444C11.7064 19.501 12.652 18.272 13.8696 18.0128C13.8698 18.0127 13.8701 18.0126 13.8704 18.0126L30.8137 14.5304L31.1157 14.4684L31.0285 14.2683C31.0354 14.2602 31.0437 14.251 31.0536 14.2406C31.1254 14.1649 31.2319 14.0749 31.3549 13.9712L31.3585 13.9682C31.473 13.8716 31.6029 13.7621 31.6974 13.6611C31.7447 13.6107 31.7955 13.5496 31.8305 13.4825Z" fill="black" stroke="black" stroke-width="0.5"/>
</mask>
<g mask="url(#mask0_4235_35228)">
<path d="M31.8305 13.4825C31.8486 13.4478 31.8709 13.3949 31.8771 13.3322L33.4811 14.1924L33.4894 14.1969L33.498 14.2007C34.0882 14.4622 34.5085 15.0446 34.547 15.8212L35.1818 28.6167C35.2435 29.8603 34.2975 31.0896 33.0795 31.3485L14.6466 35.2665C14.1121 35.3801 13.6237 35.2863 13.2423 35.0497L13.242 35.0495L11.189 33.7803L11.4423 33.4667C11.4823 33.492 11.527 33.5213 11.5754 33.5529C11.5868 33.5604 11.5984 33.5679 11.6102 33.5756C11.7091 33.6402 11.8228 33.7138 11.9129 33.7604C11.9516 33.7804 12.0155 33.8116 12.0818 33.8219C12.1105 33.8263 12.1955 33.8365 12.2796 33.7828C12.3872 33.7142 12.406 33.6031 12.4029 33.5398L11.7681 20.7444C11.7064 19.501 12.652 18.272 13.8696 18.0128C13.8698 18.0127 13.8701 18.0126 13.8704 18.0126L30.8137 14.5304L31.1157 14.4684L31.0285 14.2683C31.0354 14.2602 31.0437 14.251 31.0536 14.2406C31.1254 14.1649 31.2319 14.0749 31.3549 13.9712L31.3585 13.9682C31.473 13.8716 31.6029 13.7621 31.6974 13.6611C31.7447 13.6107 31.7955 13.5496 31.8305 13.4825Z" fill="black" stroke="black" stroke-width="0.5"/>
<path d="M30.0816 28.5713L34.1148 31.2988L33.3071 31.7132L28.9394 28.7095L30.0816 28.5713Z" fill="#44494F"/>
<path d="M36.3466 27.5577L32.6209 25.0352L31.2499 27.8407L35.3158 30.5972L36.3466 27.5577Z" fill="#44494F"/>
<path d="M12.7742 33.2619L16.784 35.893L14.0299 36.863L9.55069 33.9724L12.7742 33.2619Z" fill="#44494F"/>
<path d="M16.0975 34.3279L19.9513 33.4609" stroke="#25D17F" stroke-width="0.5" stroke-linecap="round"/>
<path d="M33.3436 14.8128C33.5721 14.9934 33.892 15.3484 33.9813 16.5982C33.9813 16.815 34.1104 18.5144 34.2114 20.4007" stroke="#25D17F" stroke-width="0.5" stroke-linecap="round"/>
<path d="M31.8305 13.4823C31.8486 13.4476 31.8709 13.3947 31.8771 13.332L33.4811 14.1922L33.4894 14.1967L33.498 14.2005C34.0882 14.462 34.5085 15.0443 34.547 15.821L35.1818 28.6164C35.2435 29.8601 34.2975 31.0894 33.0795 31.3483L14.6466 35.2663C14.1121 35.3799 13.6237 35.2861 13.2423 35.0495L13.242 35.0492L11.189 33.7801L11.4423 33.4664C11.4823 33.4918 11.527 33.5211 11.5754 33.5527C11.5868 33.5602 11.5984 33.5677 11.6102 33.5754C11.7091 33.64 11.8228 33.7136 11.9129 33.7602C11.9516 33.7802 12.0155 33.8114 12.0818 33.8217C12.1105 33.8261 12.1955 33.8363 12.2796 33.7826C12.3872 33.714 12.406 33.6029 12.4029 33.5396L11.7681 20.7442C11.7064 19.5008 12.652 18.2718 13.8696 18.0125C13.8698 18.0125 13.8701 18.0124 13.8704 18.0124L30.8137 14.5302L31.1157 14.4682L31.0285 14.2681C31.0354 14.26 31.0437 14.2508 31.0536 14.2404C31.1254 14.1647 31.2319 14.0746 31.3549 13.971L31.3585 13.968C31.473 13.8714 31.6029 13.7619 31.6974 13.6609C31.7447 13.6105 31.7955 13.5494 31.8305 13.4823Z" stroke="black" stroke-width="0.5"/>
</g>
<mask id="mask1_4235_35228" style="mask-type:alpha" maskUnits="userSpaceOnUse" x="9" y="12" width="25" height="23">
<rect x="0.256924" y="0.197715" width="23.2984" height="17.2648" rx="2.41667" transform="matrix(0.978148 -0.207912 0.0495471 0.998772 9.03683 16.9782)" fill="white" stroke="black" stroke-width="0.5"/>
</mask>
<g mask="url(#mask1_4235_35228)">
<rect x="0.256924" y="0.197715" width="23.2984" height="17.2648" rx="2.41667" transform="matrix(0.978148 -0.207912 0.0495471 0.998772 9.03683 16.9782)" fill="#44494F" stroke="black" stroke-width="0.5"/>
<rect width="23.7984" height="17.7648" rx="1.8" transform="matrix(0.978148 -0.207912 0.0495471 0.998772 7.58594 15.8208)" fill="#777E87"/>
<path d="M10.7637 33.9788L17.8167 22.814" stroke="#44494F" stroke-width="1.5"/>
<path d="M32.2462 28.913L22.7734 21.5122" stroke="#44494F" stroke-width="1.5"/>
<mask id="mask2_4235_35228" style="mask-type:alpha" maskUnits="userSpaceOnUse" x="8" y="10" width="25" height="17">
<path d="M19.0294 25.6011L8.53514 16.6924L9.66 14.8046L29.1652 11.0894L31.9071 12.1887L21.9139 25.2894C21.2191 26.2002 19.9027 26.3424 19.0294 25.6011Z" fill="#66DD8C" stroke="black" stroke-width="0.5"/>
</mask>
<g mask="url(#mask2_4235_35228)">
<path d="M19.0294 25.6011L8.53514 16.6924L9.66 14.8046L29.1652 11.0894L31.9071 12.1887L21.9139 25.2894C21.2191 26.2002 19.9027 26.3424 19.0294 25.6011Z" fill="#25D17F" stroke="black" stroke-width="0.5"/>
<path d="M13.1094 15.4351L26.9767 12.4875C27.0453 14.1457 25.7849 15.7697 24.1616 16.1147L16.173 17.8128C14.5497 18.1578 13.178 17.0933 13.1094 15.4351Z" fill="#777E87"/>
<path d="M19.0294 25.6011L8.53514 16.6924L9.66 14.8046L29.1652 11.0894L31.9071 12.1887L21.9139 25.2894C21.2191 26.2002 19.9027 26.3424 19.0294 25.6011Z" stroke="black" stroke-width="0.5"/>
</g>
<rect x="0.256924" y="0.197715" width="23.2984" height="17.2648" rx="2.41667" transform="matrix(0.978148 -0.207912 0.0495471 0.998772 9.03683 16.9782)" stroke="black" stroke-width="0.5"/>
</g>
<path d="M37.5527 23.9879V23.5352L38.5501 24.0548L38.5469 24.0563C38.72 24.159 38.8401 24.3347 38.8728 24.555C38.8728 24.555 38.9829 25.9014 38.9536 28.1943C38.6207 32.1404 35.6319 34.8972 33.8186 35.3075C32.0047 35.718 28.257 33.6165 28.1321 30.5969C28.063 28.9289 28.0067 27.4115 28.0078 27.0285C28.0089 26.6456 28.2816 26.2655 28.6605 26.1187C29.4054 25.8814 30.1311 25.5375 30.8134 25.0985C31.5534 24.7017 32.2252 24.1565 32.7794 23.503C33.089 23.2053 33.5191 23.1079 33.8473 23.2614C34.4751 23.596 35.1636 23.83 35.8928 23.9567C36.4399 23.9966 36.9939 24.007 37.5527 23.9879Z" fill="black"/>
<path d="M34.8168 23.6953L34.8271 23.6971L34.8377 23.6979C35.5879 23.7527 36.3509 23.7527 37.1211 23.6981C37.3925 23.695 37.5937 23.8682 37.6338 24.1148L37.6343 24.1207L37.6376 24.1661C37.6405 24.2065 37.6446 24.2672 37.6495 24.3473C37.6593 24.5076 37.672 24.7456 37.6839 25.0552C37.7075 25.6727 37.7276 26.5748 37.7133 27.712C37.5504 29.6156 36.7494 31.229 35.7722 32.4163C34.7868 33.6135 33.641 34.3561 32.8118 34.5438C32.4144 34.6337 31.8817 34.5898 31.2905 34.4086C30.704 34.2288 30.0804 33.9202 29.5064 33.5057C28.3506 32.6711 27.4379 31.4399 27.3795 30.0277C27.3103 28.3559 27.2544 26.8464 27.2554 26.4707C27.2562 26.2172 27.4365 25.9531 27.7045 25.8459C28.466 25.6024 29.2081 25.2509 29.9064 24.8028C30.6705 24.3914 31.3654 23.8281 31.9408 23.153C32.1674 22.9423 32.4786 22.8736 32.7166 22.9824C33.3616 23.3254 34.0685 23.5654 34.8168 23.6953Z" fill="#777E87" stroke="black" stroke-width="0.5"/>
<mask id="mask3_4235_35228" style="mask-type:alpha" maskUnits="userSpaceOnUse" x="28" y="24" width="9" height="10">
<path d="M35.7343 25.2168C35.9934 25.2114 36.1945 25.3767 36.2316 25.6256C36.2316 25.6256 36.3072 26.5464 36.2866 28.1148C36.0568 30.8144 33.9993 32.703 32.7512 32.9854C31.5027 33.2679 28.9238 31.8341 28.8383 29.7687C28.7911 28.6278 28.7526 27.59 28.7534 27.328C28.7543 27.066 28.942 26.8058 29.2028 26.705C29.7155 26.542 30.215 26.3061 30.6847 26.0051C31.1941 25.733 31.6565 25.3594 32.038 24.9119C32.2512 24.7079 32.5472 24.6409 32.7731 24.7456C33.2051 24.9738 33.6789 25.1332 34.1808 25.2192C34.6912 25.2555 35.2103 25.2547 35.7343 25.2168Z" fill="black"/>
</mask>
<g mask="url(#mask3_4235_35228)">
<path d="M35.7343 25.2183C35.9934 25.2129 36.1945 25.3782 36.2316 25.6271C36.2316 25.6271 36.3072 26.5479 36.2866 28.1164C36.0568 30.8159 33.9993 32.7045 32.7512 32.9869C31.5027 33.2694 28.9238 31.8356 28.8383 29.7702C28.7911 28.6293 28.7526 27.5915 28.7534 27.3295C28.7543 27.0676 28.942 26.8073 29.2028 26.7065C29.7155 26.5435 30.215 26.3076 30.6847 26.0067C31.1941 25.7345 31.6565 25.3609 32.038 24.9134C32.2512 24.7094 32.5472 24.6425 32.7731 24.7471C33.2051 24.9753 33.6789 25.1348 34.1808 25.2207C34.6912 25.257 35.2103 25.2562 35.7343 25.2183Z" fill="black"/>
<path d="M29.5742 26.0086L30.8508 25.7765L30.9698 28.932L29.6933 29.1642L29.5742 26.0086Z" fill="#25D17F"/>
<path d="M31.9082 27.2557L33.1848 27.0235L33.2915 30.0508L32.0149 30.2829L31.9082 27.2557Z" fill="#25D17F"/>
<path d="M34.2285 26.3155L35.505 26.0833L35.7066 32.0903L34.43 32.3225L34.2285 26.3155Z" fill="#25D17F"/>
<path d="M29.7617 30.475L31.0383 30.2428L31.1048 31.8407L29.8283 32.0728L29.7617 30.475Z" fill="#25D17F"/>
</g>
</g>
<defs>
<clipPath id="clip0_4235_35228">
<rect width="48" height="48" rx="24" fill="white"/>
</clipPath>
</defs>
</svg>
