<svg width="84" height="84" viewBox="0 0 84 84" fill="none" xmlns="http://www.w3.org/2000/svg">
<g clip-path="url(#clip0_5528_53499)">
<path d="M42.7032 35.8299C52.1749 35.8299 59.8532 31.196 59.8532 25.4799C59.8532 19.7637 52.1749 15.1299 42.7032 15.1299C33.2315 15.1299 25.5532 19.7637 25.5532 25.4799C25.5532 31.196 33.2315 35.8299 42.7032 35.8299Z" fill="#25D17F" stroke="black" stroke-width="0.5" stroke-linecap="round" stroke-linejoin="round"/>
<path opacity="0.2" d="M31.4032 25.4801C31.4032 20.3701 37.5532 16.1201 45.6332 15.2901C44.6832 15.1901 43.7032 15.1401 42.7032 15.1401C33.2332 15.1401 25.5532 19.7701 25.5532 25.4901C25.5532 31.2101 33.2332 35.8401 42.7032 35.8401C43.7032 35.8401 44.6732 35.7901 45.6332 35.6901C37.5532 34.8501 31.4032 30.6101 31.4032 25.5001V25.4801Z" fill="white"/>
<path d="M42.7035 32.8201C49.4192 32.8201 54.8635 29.5339 54.8635 25.4801C54.8635 21.4264 49.4192 18.1401 42.7035 18.1401C35.9877 18.1401 30.5435 21.4264 30.5435 25.4801C30.5435 29.5339 35.9877 32.8201 42.7035 32.8201Z" stroke="white" stroke-width="0.5" stroke-linecap="round" stroke-linejoin="round"/>
<path d="M42.7036 72.88C58.1896 72.88 70.7436 65.3047 70.7436 55.96C70.7436 46.6154 58.1896 39.04 42.7036 39.04C27.2175 39.04 14.6636 46.6154 14.6636 55.96C14.6636 65.3047 27.2175 72.88 42.7036 72.88Z" fill="#777E87" stroke="black" stroke-width="0.5" stroke-linecap="round" stroke-linejoin="round"/>
<path d="M42.7031 39.04C58.1931 39.04 70.7431 46.61 70.7431 55.96C70.7431 59.25 69.1831 62.33 66.4831 64.93L49.8831 60.28" fill="#303030"/>
<path d="M25.6831 24.2202V24.2502C25.6831 24.2402 25.6831 24.2302 25.6831 24.2202Z" fill="#25D17F" stroke="black" stroke-width="0.5" stroke-linecap="round" stroke-linejoin="round"/>
<path d="M59.8532 25.4802C59.8532 31.1902 52.1732 35.8302 42.7032 35.8302C33.2332 35.8302 25.5532 31.2002 25.5532 25.4802C25.5532 25.2002 25.5732 24.9302 25.6132 24.6602L20.5332 55.9602C20.5332 63.3502 30.4632 69.3402 42.7032 69.3402C54.9432 69.3402 64.8732 63.3502 64.8732 55.9602L59.8532 25.4802Z" fill="#25D17F" stroke="black" stroke-width="0.5" stroke-linecap="round" stroke-linejoin="round"/>
<path d="M25.6836 24.2202V24.2502C25.6836 24.2402 25.6836 24.2302 25.6836 24.2202Z" fill="#25D17F" stroke="black" stroke-width="0.5" stroke-linecap="round" stroke-linejoin="round"/>
<path opacity="0.5" d="M34.6835 34.63C33.3335 34.2 32.0935 33.66 30.9835 33.04L25.2935 64.32C26.2935 65.21 27.6935 65.77 29.0135 66.49L34.6835 34.64V34.63Z" fill="white"/>
<path d="M25.6831 24.2202V24.2502C25.6831 24.2402 25.6831 24.2302 25.6831 24.2202Z" fill="white" stroke="black" stroke-width="0.5" stroke-linecap="round" stroke-linejoin="round"/>
<path d="M57.873 30.3202C59.143 28.8802 59.853 27.2302 59.853 25.4902L64.873 55.9702C64.873 57.5302 64.433 59.0302 63.613 60.4202L62.833 61.5802" fill="black"/>
<path d="M42.7334 7.73168V1.08008" stroke="white" stroke-width="0.8" stroke-linecap="round" stroke-linejoin="round"/>
<path d="M34.5609 9.79354L32.1133 2.97021" stroke="white" stroke-width="0.8" stroke-linecap="round" stroke-linejoin="round"/>
<path d="M27.4311 13.315L22.7734 8.37988" stroke="white" stroke-width="0.8" stroke-linecap="round" stroke-linejoin="round"/>
<path d="M21.8476 19.7575L15.8535 16.6499" stroke="white" stroke-width="0.8" stroke-linecap="round" stroke-linejoin="round"/>
<path d="M18.5825 27.6978L12.1733 26.79" stroke="white" stroke-width="0.8" stroke-linecap="round" stroke-linejoin="round"/>
<path d="M18.3941 36.5555L12.1934 37.5812" stroke="white" stroke-width="0.8" stroke-linecap="round" stroke-linejoin="round"/>
<path d="M67.4608 36.0786L73.3635 37.4898" stroke="white" stroke-width="0.8" stroke-linecap="round" stroke-linejoin="round"/>
<path d="M67.1172 27.9183L73.3535 26.71" stroke="white" stroke-width="0.8" stroke-linecap="round" stroke-linejoin="round"/>
<path d="M63.9389 19.6719L69.6529 16.5801" stroke="white" stroke-width="0.8" stroke-linecap="round" stroke-linejoin="round"/>
<path d="M58.2694 13.1437L62.7034 8.32031" stroke="white" stroke-width="0.8" stroke-linecap="round" stroke-linejoin="round"/>
<path d="M50.9679 9.36355L53.3533 2.93994" stroke="white" stroke-width="0.8" stroke-linecap="round" stroke-linejoin="round"/>
<path d="M42.7032 69.3401C54.9474 69.3401 64.8732 63.3496 64.8732 55.9601C64.8732 48.5705 54.9474 42.5801 42.7032 42.5801C30.459 42.5801 20.5332 48.5705 20.5332 55.9601C20.5332 63.3496 30.459 69.3401 42.7032 69.3401Z" stroke="black" stroke-width="0.5" stroke-linecap="round" stroke-linejoin="round"/>
<path d="M15.2734 52.4302V52.4802C15.2734 52.4802 15.2734 52.4502 15.2734 52.4302Z" fill="white" stroke="black" stroke-width="0.5" stroke-linecap="round" stroke-linejoin="round"/>
<path d="M15.2732 52.4302L15.2632 52.4802C15.2632 52.4602 15.2732 52.4502 15.2832 52.4302H15.2732Z" fill="white" stroke="black" stroke-width="0.5" stroke-linecap="round" stroke-linejoin="round"/>
<path d="M70.3233 53.03C70.6033 53.98 70.7533 54.96 70.7533 55.96C70.7533 65.3 58.1933 72.88 42.7133 72.88C27.2333 72.88 14.6733 65.31 14.6733 55.96C14.6733 54.85 14.8533 53.76 15.1933 52.71L12.6333 60.61C11.2933 64.74 12.0933 69.32 14.9033 72.64C20.0633 78.74 30.5833 82.92 42.7133 82.92C56.0233 82.92 67.3833 77.9 71.8733 70.82C73.6833 67.97 74.0334 64.42 72.9934 61.21L70.3433 53.03H70.3233Z" fill="white" stroke="black" stroke-width="0.5" stroke-linecap="round" stroke-linejoin="round"/>
<path d="M70.3233 53.03C70.6033 53.98 70.7533 54.96 70.7533 55.96C70.7533 65.3 58.1933 72.88 42.7133 72.88C27.2333 72.88 14.6733 65.31 14.6733 55.96C14.6733 54.85 14.8533 53.76 15.1933 52.71L12.6333 60.61C11.2933 64.74 12.0933 69.32 14.9033 72.64C20.0633 78.74 30.5833 82.92 42.7133 82.92C56.0233 82.92 67.3833 77.9 71.8733 70.82C73.6833 67.97 74.0334 64.42 72.9934 61.21L70.3433 53.03H70.3233Z" fill="#777E87" stroke="black" stroke-width="0.5" stroke-linecap="round" stroke-linejoin="round"/>
<path d="M69.3334 73.9103C70.7234 72.6503 71.8634 70.8203 71.8634 70.8203C73.6734 67.9703 74.0234 64.4203 72.9834 61.2103L70.3334 53.0303C70.6134 53.9803 70.7634 54.9603 70.7634 55.9603C70.7634 58.7103 69.6734 61.3103 67.7434 63.6003L66.5034 64.9203" fill="black"/>
<path d="M66.5436 64.8699C64.7836 66.5799 62.5236 68.0899 59.8936 69.3199L62.4136 78.6799C65.1436 77.3399 67.4836 75.7199 69.3336 73.8999L66.4936 64.9199L66.5436 64.8599V64.8699Z" fill="#303030"/>
<path d="M62.5336 44C67.6036 47.06 70.7436 51.29 70.7436 55.96C70.7436 65.3 58.1836 72.88 42.7036 72.88C27.2236 72.88 14.6636 65.31 14.6636 55.96C14.6636 51.43 17.6136 47.31 22.4236 44.28" stroke="black" stroke-width="0.5" stroke-linecap="round" stroke-linejoin="round"/>
<path d="M42.7032 35.8299C52.1749 35.8299 59.8532 31.196 59.8532 25.4799C59.8532 19.7637 52.1749 15.1299 42.7032 15.1299C33.2315 15.1299 25.5532 19.7637 25.5532 25.4799C25.5532 31.196 33.2315 35.8299 42.7032 35.8299Z" stroke="black" stroke-width="0.5" stroke-linecap="round" stroke-linejoin="round"/>
<path d="M27.6304 49.1699V54.7999" stroke="white" stroke-width="1.3" stroke-linecap="round" stroke-linejoin="round"/>
<path d="M32.3003 46.2598V57.7098" stroke="white" stroke-width="1.3" stroke-linecap="round" stroke-linejoin="round"/>
<path d="M36.9805 47.5596V56.5496" stroke="white" stroke-width="1.3" stroke-linecap="round" stroke-linejoin="round"/>
<path d="M41.6504 50.6499V56.5499" stroke="white" stroke-width="1.3" stroke-linecap="round" stroke-linejoin="round"/>
<path d="M46.3203 49.1699V54.7999" stroke="white" stroke-width="1.3" stroke-linecap="round" stroke-linejoin="round"/>
<path d="M51.0005 46.2598V57.7098" stroke="white" stroke-width="1.3" stroke-linecap="round" stroke-linejoin="round"/>
<path d="M55.6704 50.3496V53.6196" stroke="white" stroke-width="1.3" stroke-linecap="round" stroke-linejoin="round"/>
</g>
<defs>
<clipPath id="clip0_5528_53499">
<rect width="84" height="84" fill="white"/>
</clipPath>
</defs>
</svg>
