<svg width="36" height="36" viewBox="0 0 36 36" fill="none" xmlns="http://www.w3.org/2000/svg">
<mask id="mask0_130_15176" style="mask-type:alpha" maskUnits="userSpaceOnUse" x="8" y="5" width="23" height="29">
<path d="M19.4271 32.7806L19.4055 32.807L19.4189 32.7798L16.4918 31.3319C12.9112 28.6548 9.27137 24.6952 9.04075 19.1232C8.79649 13.2213 13.2911 7.43007 19.0689 6.20197C19.4522 6.12049 19.7981 6.02866 20.1178 5.94285C20.1357 5.93804 20.1535 5.93326 20.1712 5.9285C20.4718 5.84772 20.7467 5.77388 21.0158 5.71695C21.5589 5.60205 22.0661 5.55904 22.653 5.68017L22.6551 5.68191L22.6616 5.68687C22.6642 5.68874 22.6707 5.6932 22.6746 5.69575C22.6808 5.69963 22.6989 5.70952 22.711 5.71509C22.7202 5.71837 22.7386 5.72124 22.7621 5.72257L24.6318 6.62953L24.6306 6.63403C27.6388 7.87752 29.738 10.7878 29.8963 14.6047C30.0265 17.7511 28.6852 21.0758 26.8813 24.1348C25.08 27.1893 22.8377 29.9458 21.2028 31.9551C21.082 32.1036 20.9645 32.2481 20.8508 32.3882L20.8507 32.3882C20.6453 32.6414 20.3699 32.812 20.088 32.8713C19.8417 32.9232 19.6106 32.8865 19.4271 32.7806Z" fill="black" stroke="black" stroke-width="0.5" stroke-linecap="round"/>
</mask>
<g mask="url(#mask0_130_15176)">
<path d="M19.4271 32.7806L19.4055 32.807L19.4189 32.7798L16.4918 31.3319C12.9112 28.6548 9.27137 24.6952 9.04075 19.1232C8.79649 13.2213 13.2911 7.43007 19.0689 6.20197C19.4522 6.12049 19.7981 6.02866 20.1178 5.94285C20.1357 5.93804 20.1535 5.93326 20.1712 5.9285C20.4718 5.84772 20.7467 5.77388 21.0158 5.71695C21.5589 5.60205 22.0661 5.55904 22.653 5.68017L22.6551 5.68191L22.6616 5.68687C22.6642 5.68874 22.6707 5.6932 22.6746 5.69575C22.6808 5.69963 22.6989 5.70952 22.711 5.71509C22.7202 5.71837 22.7386 5.72124 22.7621 5.72257L24.6318 6.62953L24.6306 6.63403C27.6388 7.87752 29.738 10.7878 29.8963 14.6047C30.0265 17.7511 28.6852 21.0758 26.8813 24.1348C25.08 27.1893 22.8377 29.9458 21.2028 31.9551C21.082 32.1036 20.9645 32.2481 20.8508 32.3882L20.8507 32.3882C20.6453 32.6414 20.3699 32.812 20.088 32.8713C19.8417 32.9232 19.6106 32.8865 19.4271 32.7806Z" fill="black" stroke="black" stroke-width="0.5" stroke-linecap="round"/>
<path d="M28.3203 10.8994C28.8414 11.6763 29.0223 12.4986 29.2133 13.4144C29.3392 14.0182 29.4114 14.859 29.3609 15.6646" stroke="#25D17F" stroke-width="0.5" stroke-linecap="round"/>
<path d="M19.1309 31.9549C19.6741 32.3754 19.9789 32.4966 20.6767 31.7256C21.3746 30.9547 22.9722 28.8184 23.6839 27.8467" stroke="#25D17F" stroke-width="0.5" stroke-linecap="round"/>
<mask id="mask1_130_15176" style="mask-type:alpha" maskUnits="userSpaceOnUse" x="5" y="3" width="24" height="30">
<path d="M17.0541 32.2468L17.0336 32.2717L17.0462 32.2463L13.9653 30.7225C10.1965 27.9048 6.36229 23.7352 6.11939 17.8662C5.86212 11.6502 10.5955 5.55117 16.6809 4.25768C17.0839 4.17203 17.4476 4.0755 17.7839 3.9852C17.8027 3.98014 17.8215 3.9751 17.8402 3.97009C18.1564 3.88512 18.4459 3.80734 18.7294 3.74736C19.303 3.62603 19.8393 3.58057 20.4604 3.70929L20.465 3.71299L20.4715 3.71796C20.4741 3.71983 20.4806 3.72428 20.4845 3.72683C20.4907 3.73071 20.5089 3.7406 20.5209 3.74617C20.5303 3.74956 20.5496 3.75249 20.5741 3.75376L22.5418 4.70823L22.5405 4.71299C25.7106 6.0234 27.9222 9.09022 28.0889 13.1109C28.2261 16.4253 26.8133 19.926 24.9148 23.1453C23.019 26.3601 20.6591 29.2612 18.9391 31.3753C18.8119 31.5315 18.6883 31.6835 18.5686 31.8309L18.5686 31.8309C18.3507 32.0994 18.0584 32.2806 17.7587 32.3438C17.4966 32.3989 17.2502 32.36 17.0541 32.2468Z" fill="#B8A9A9" stroke="black" stroke-width="0.5" stroke-linecap="round"/>
</mask>
<g mask="url(#mask1_130_15176)">
<path d="M17.0541 32.2468L17.0336 32.2717L17.0462 32.2463L13.9653 30.7225C10.1965 27.9048 6.36229 23.7352 6.11939 17.8662C5.86212 11.6502 10.5955 5.55117 16.6809 4.25768C17.0839 4.17203 17.4476 4.0755 17.7839 3.9852C17.8027 3.98014 17.8215 3.9751 17.8402 3.97009C18.1564 3.88512 18.4459 3.80734 18.7294 3.74736C19.303 3.62603 19.8393 3.58057 20.4604 3.70929L20.465 3.71299L20.4715 3.71796C20.4741 3.71983 20.4806 3.72428 20.4845 3.72683C20.4907 3.73071 20.5089 3.7406 20.5209 3.74617C20.5303 3.74956 20.5496 3.75249 20.5741 3.75376L22.5418 4.70823L22.5405 4.71299C25.7106 6.0234 27.9222 9.09022 28.0889 13.1109C28.2261 16.4253 26.8133 19.926 24.9148 23.1453C23.019 26.3601 20.6591 29.2612 18.9391 31.3753C18.8119 31.5315 18.6883 31.6835 18.5686 31.8309L18.5686 31.8309C18.3507 32.0994 18.0584 32.2806 17.7587 32.3438C17.4966 32.3989 17.2502 32.36 17.0541 32.2468Z" fill="#B8A9A9" stroke="black" stroke-width="0.5" stroke-linecap="round"/>
<path d="M27.9449 10.6438C26.9626 10.3437 24.9545 9.72754 24.7799 9.6624L23.2246 6.08789L26.3078 7.06989L27.9449 10.6438Z" fill="white"/>
<path d="M29.041 13.0983C28.0588 12.7981 26.0506 12.182 25.876 12.1168L25.1035 10.6504L28.1867 11.6324L29.041 13.0983Z" fill="white"/>
<path d="M19.7705 31.55L17.8691 30.3407L19.2486 28.522L21.0681 29.7318L19.7705 31.55Z" fill="white"/>
<path d="M17.0541 32.2467L17.0336 32.2716L17.0462 32.2462L13.9653 30.7223C10.1965 27.9046 6.36229 23.7351 6.11939 17.866C5.86212 11.65 10.5955 5.55101 16.6809 4.25752C17.0839 4.17187 17.4476 4.07534 17.7839 3.98504C17.8027 3.97998 17.8215 3.97494 17.8402 3.96993C18.1564 3.88496 18.4459 3.80718 18.7294 3.7472C19.303 3.62587 19.8393 3.58041 20.4604 3.70914L20.465 3.71283L20.4715 3.7178C20.4741 3.71967 20.4806 3.72412 20.4845 3.72667C20.4907 3.73055 20.5089 3.74045 20.5209 3.74601C20.5303 3.7494 20.5496 3.75233 20.5741 3.75361L22.5418 4.70807L22.5405 4.71283C25.7106 6.02324 27.9222 9.09006 28.0889 13.1108C28.2261 16.4251 26.8133 19.9259 24.9148 23.1452C23.019 26.36 20.6591 29.261 18.9391 31.3751C18.8119 31.5313 18.6883 31.6833 18.5686 31.8308L18.5686 31.8308C18.3507 32.0993 18.0584 32.2805 17.7587 32.3436C17.4966 32.3988 17.2502 32.3598 17.0541 32.2467Z" stroke="black" stroke-width="0.5" stroke-linecap="round"/>
</g>
<path d="M19.4271 32.7806L19.4055 32.807L19.4189 32.7798L16.4918 31.3319C12.9112 28.6548 9.27137 24.6952 9.04075 19.1232C8.79649 13.2213 13.2911 7.43007 19.0689 6.20197C19.4522 6.12049 19.7981 6.02866 20.1178 5.94285C20.1357 5.93804 20.1535 5.93326 20.1712 5.9285C20.4718 5.84772 20.7467 5.77388 21.0158 5.71695C21.5589 5.60205 22.0661 5.55904 22.653 5.68017L22.6551 5.68191L22.6616 5.68687C22.6642 5.68874 22.6707 5.6932 22.6746 5.69575C22.6808 5.69963 22.6989 5.70952 22.711 5.71509C22.7202 5.71837 22.7386 5.72124 22.7621 5.72257L24.6318 6.62953L24.6306 6.63403C27.6388 7.87752 29.738 10.7878 29.8963 14.6047C30.0265 17.7511 28.6852 21.0758 26.8813 24.1348C25.08 27.1893 22.8377 29.9458 21.2028 31.9551C21.082 32.1036 20.9645 32.2481 20.8508 32.3882L20.8507 32.3882C20.6453 32.6414 20.3699 32.812 20.088 32.8713C19.8417 32.9232 19.6106 32.8865 19.4271 32.7806Z" stroke="black" stroke-width="0.5" stroke-linecap="round"/>
</g>
<mask id="mask2_130_15176" style="mask-type:alpha" maskUnits="userSpaceOnUse" x="5" y="4" width="23" height="28">
<path d="M17.7403 30.8639L17.7403 30.8639C17.5456 31.1039 17.2809 31.2706 17.001 31.3295C16.7212 31.3885 16.4478 31.335 16.2375 31.1804L16.2369 31.18C16.0931 31.075 15.9443 30.9668 15.7913 30.8556C13.9812 29.5401 11.5719 27.7885 9.58088 25.5687C7.58855 23.3475 6.03665 20.6807 5.90687 17.545C5.66328 11.6593 10.1366 5.89543 15.8986 4.67068C21.6606 3.44593 26.5289 7.22418 26.7729 13.1098C26.9029 16.251 25.5649 19.5667 23.765 22.6189C21.9667 25.6683 19.7276 28.421 18.0925 30.4308L18.0904 30.4334C17.9703 30.5809 17.8534 30.7246 17.7403 30.8639Z" fill="white" stroke="black" stroke-width="0.5" stroke-linecap="round"/>
</mask>
<g mask="url(#mask2_130_15176)">
<path d="M17.7403 30.8639L17.7403 30.8639C17.5456 31.1039 17.2809 31.2706 17.001 31.3295C16.7212 31.3885 16.4478 31.335 16.2375 31.1804L16.2369 31.18C16.0931 31.075 15.9443 30.9668 15.7913 30.8556C13.9812 29.5401 11.5719 27.7885 9.58088 25.5687C7.58855 23.3475 6.03665 20.6807 5.90687 17.545C5.66328 11.6593 10.1366 5.89543 15.8986 4.67068C21.6606 3.44593 26.5289 7.22418 26.7729 13.1098C26.9029 16.251 25.5649 19.5667 23.765 22.6189C21.9667 25.6683 19.7276 28.421 18.0925 30.4308L18.0904 30.4334C17.9703 30.5809 17.8534 30.7246 17.7403 30.8639Z" fill="white" stroke="black" stroke-width="0.5" stroke-linecap="round"/>
<path d="M15.4173 28.9012L16.3345 27.9633L16.6108 33.4135L15.6513 33.6174L15.4173 28.9012Z" fill="#25D17F"/>
<path d="M17.2227 26.5996L18.1822 27.1433L18.4161 31.1118L17.4566 31.3158L17.2227 26.5996Z" fill="#25D17F"/>
<path d="M17.7403 30.8639L17.7403 30.8639C17.5456 31.1039 17.2809 31.2706 17.001 31.3295C16.7212 31.3885 16.4478 31.335 16.2375 31.1804L16.2369 31.18C16.0931 31.075 15.9443 30.9668 15.7913 30.8556C13.9812 29.5401 11.5719 27.7885 9.58088 25.5687C7.58855 23.3475 6.03665 20.6807 5.90687 17.545C5.66328 11.6593 10.1366 5.89543 15.8986 4.67068C21.6606 3.44593 26.5289 7.22418 26.7729 13.1098C26.9029 16.251 25.5649 19.5667 23.765 22.6189C21.9667 25.6683 19.7276 28.421 18.0925 30.4308L18.0904 30.4334C17.9703 30.5809 17.8534 30.7246 17.7403 30.8639Z" stroke="black" stroke-width="0.5" stroke-linecap="round"/>
</g>
<circle cx="7.68153" cy="7.68153" r="7.18153" transform="matrix(0.975342 -0.220697 0.0413525 0.999145 8.42383 9.26953)" stroke="#25D17F"/>
<mask id="mask3_130_15176" style="mask-type:alpha" maskUnits="userSpaceOnUse" x="11" y="9" width="11" height="12">
<circle cx="5.22721" cy="5.22721" r="5.22721" transform="matrix(0.975342 -0.220697 0.0413525 0.999145 10.9199 11.1797)" fill="black"/>
</mask>
<g mask="url(#mask3_130_15176)">
<circle cx="5.22721" cy="5.22721" r="5.22721" transform="matrix(0.975342 -0.220697 0.0413525 0.999145 10.9199 11.1797)" fill="black"/>
<path d="M10.9199 12.7188L12.3914 12.4512L12.5286 16.0885L11.0572 16.3562L10.9199 12.7188Z" fill="#25D17F"/>
<path d="M13.6426 13.939L15.1141 13.6714L15.1903 16.4341L13.7188 16.7017L13.6426 13.939Z" fill="#25D17F"/>
<path d="M19.168 16.2364L20.6395 15.9687L20.7157 18.7315L19.2442 18.9991L19.168 16.2364Z" fill="#25D17F"/>
<path d="M16.3594 12.5801L17.8309 12.3125L17.9929 18.1795L16.5214 18.4471L16.3594 12.5801Z" fill="#25D17F"/>
<path d="M11.1152 17.3189L12.5867 17.0513L12.6591 18.9289L11.1876 19.1966L11.1152 17.3189Z" fill="#25D17F"/>
<path d="M16.2578 9.69683L17.7293 9.4292L17.8016 11.3069L16.3302 11.5745L16.2578 9.69683Z" fill="#25D17F"/>
<path d="M19.0469 13.3721L20.5184 13.1045L20.5907 14.9822L19.1192 15.2498L19.0469 13.3721Z" fill="#25D17F"/>
</g>
</svg>
