<svg width="48" height="48" viewBox="0 0 48 48" fill="none" xmlns="http://www.w3.org/2000/svg">
<g clip-path="url(#clip0_4235_35222)">
<circle cx="24" cy="24" r="24" fill="#F3F3F3" fill-opacity="0.04"/>
<mask id="mask0_4235_35222" style="mask-type:alpha" maskUnits="userSpaceOnUse" x="12" y="13" width="26" height="23">
<path d="M33.5922 13.712C33.6103 13.6773 33.6326 13.6244 33.6389 13.5617L35.2428 14.4219L35.2511 14.4264L35.2597 14.4302C35.8499 14.6917 36.2702 15.274 36.3087 16.0507L36.9435 28.8461C37.0052 30.0898 36.0592 31.3191 34.8412 31.578L16.4083 35.496C15.8739 35.6096 15.3855 35.5158 15.0041 35.2792L15.0037 35.279L12.9507 34.0098L13.2041 33.6961C13.244 33.7215 13.2888 33.7508 13.3371 33.7824C13.3485 33.7899 13.3601 33.7974 13.3719 33.8051C13.4708 33.8697 13.5845 33.9433 13.6746 33.9899C13.7133 34.0099 13.7772 34.0411 13.8436 34.0514C13.8722 34.0558 13.9572 34.066 14.0414 34.0123C14.1489 33.9437 14.1677 33.8326 14.1646 33.7693L13.5298 20.9739C13.4681 19.7305 14.4137 18.5015 15.6313 18.2423C15.6315 18.2422 15.6318 18.2421 15.6321 18.2421L32.5754 14.7599L32.8774 14.6979L32.7902 14.4978C32.7971 14.4897 32.8054 14.4805 32.8153 14.4701C32.8871 14.3944 32.9936 14.3043 33.1166 14.2007L33.1202 14.1977C33.2347 14.1011 33.3646 13.9916 33.4592 13.8906C33.5064 13.8402 33.5572 13.7791 33.5922 13.712Z" fill="black" stroke="black" stroke-width="0.5"/>
</mask>
<g mask="url(#mask0_4235_35222)">
<path d="M33.5922 13.712C33.6103 13.6773 33.6326 13.6244 33.6389 13.5617L35.2428 14.4219L35.2511 14.4264L35.2597 14.4302C35.8499 14.6917 36.2702 15.274 36.3087 16.0507L36.9435 28.8461C37.0052 30.0898 36.0592 31.3191 34.8412 31.578L16.4083 35.496C15.8739 35.6096 15.3855 35.5158 15.0041 35.2792L15.0037 35.279L12.9507 34.0098L13.2041 33.6961C13.244 33.7215 13.2888 33.7508 13.3371 33.7824C13.3485 33.7899 13.3601 33.7974 13.3719 33.8051C13.4708 33.8697 13.5845 33.9433 13.6746 33.9899C13.7133 34.0099 13.7772 34.0411 13.8436 34.0514C13.8722 34.0558 13.9572 34.066 14.0414 34.0123C14.1489 33.9437 14.1677 33.8326 14.1646 33.7693L13.5298 20.9739C13.4681 19.7305 14.4137 18.5015 15.6313 18.2423C15.6315 18.2422 15.6318 18.2421 15.6321 18.2421L32.5754 14.7599L32.8774 14.6979L32.7902 14.4978C32.7971 14.4897 32.8054 14.4805 32.8153 14.4701C32.8871 14.3944 32.9936 14.3043 33.1166 14.2007L33.1202 14.1977C33.2347 14.1011 33.3646 13.9916 33.4592 13.8906C33.5064 13.8402 33.5572 13.7791 33.5922 13.712Z" fill="black" stroke="black" stroke-width="0.5"/>
<path d="M31.8434 28.8008L35.8766 31.5283L35.0689 31.9427L30.7011 28.9389L31.8434 28.8008Z" fill="#44494F"/>
<path d="M38.1083 27.7872L34.3826 25.2647L33.0117 28.0702L37.0775 30.8267L38.1083 27.7872Z" fill="#44494F"/>
<path d="M14.5359 33.4914L18.5457 36.1225L15.7916 37.0925L11.3124 34.2019L14.5359 33.4914Z" fill="#44494F"/>
<path d="M17.8592 34.5574L21.713 33.6904" stroke="#25D17F" stroke-width="0.5" stroke-linecap="round"/>
<path d="M35.1053 15.0423C35.3338 15.2229 35.6537 15.5779 35.743 16.8277C35.743 17.0445 35.8721 18.7439 35.9731 20.6302" stroke="#25D17F" stroke-width="0.5" stroke-linecap="round"/>
<path d="M33.5922 13.7118C33.6103 13.6771 33.6326 13.6242 33.6388 13.5615L35.2428 14.4217L35.2511 14.4262L35.2597 14.43C35.8499 14.6915 36.2702 15.2738 36.3087 16.0505L36.9435 28.8459C37.0052 30.0896 36.0592 31.3189 34.8412 31.5778L16.4083 35.4958C15.8739 35.6094 15.3855 35.5156 15.0041 35.279L15.0037 35.2787L12.9507 34.0096L13.204 33.6959C13.244 33.7213 13.2888 33.7506 13.3371 33.7822C13.3485 33.7896 13.3601 33.7972 13.3719 33.8049C13.4708 33.8695 13.5845 33.9431 13.6746 33.9897C13.7133 34.0097 13.7772 34.0409 13.8436 34.0511C13.8722 34.0556 13.9572 34.0658 14.0413 34.0121C14.1489 33.9435 14.1677 33.8324 14.1646 33.7691L13.5298 20.9737C13.4681 19.7303 14.4137 18.5013 15.6313 18.242C15.6315 18.242 15.6318 18.2419 15.6321 18.2419L32.5754 14.7597L32.8774 14.6977L32.7902 14.4975C32.7971 14.4895 32.8054 14.4803 32.8153 14.4699C32.8871 14.3942 32.9936 14.3041 33.1166 14.2005L33.1202 14.1974C33.2347 14.1009 33.3646 13.9914 33.4592 13.8904C33.5064 13.84 33.5572 13.7789 33.5922 13.7118Z" stroke="black" stroke-width="0.5"/>
</g>
<mask id="mask1_4235_35222" style="mask-type:alpha" maskUnits="userSpaceOnUse" x="10" y="12" width="25" height="23">
<rect x="0.256924" y="0.197715" width="23.2984" height="17.2648" rx="2.41667" transform="matrix(0.978148 -0.207912 0.0495471 0.998772 10.7986 17.2077)" fill="white" stroke="black" stroke-width="0.5"/>
</mask>
<g mask="url(#mask1_4235_35222)">
<rect x="0.256924" y="0.197715" width="23.2984" height="17.2648" rx="2.41667" transform="matrix(0.978148 -0.207912 0.0495471 0.998772 10.7986 17.2077)" fill="#2D3033" stroke="black" stroke-width="0.5"/>
<rect width="23.7984" height="17.7648" rx="1.8" transform="matrix(0.978148 -0.207912 0.0495471 0.998772 9.34766 16.0503)" fill="#777E87"/>
<path d="M12.5254 34.2083L19.5785 23.0435" stroke="#44494F" stroke-width="1.5"/>
<path d="M34.0079 29.1425L24.5352 21.7417" stroke="#44494F" stroke-width="1.5"/>
<mask id="mask2_4235_35222" style="mask-type:alpha" maskUnits="userSpaceOnUse" x="9" y="11" width="26" height="16">
<path d="M20.7911 25.8306L10.2969 16.9219L11.4217 15.0341L30.9269 11.3188L33.6688 12.4182L23.6756 25.5189C22.9808 26.4297 21.6644 26.5719 20.7911 25.8306Z" fill="#66DD8C" stroke="black" stroke-width="0.5"/>
</mask>
<g mask="url(#mask2_4235_35222)">
<path d="M20.7911 25.8306L10.2969 16.9219L11.4217 15.0341L30.9269 11.3188L33.6688 12.4182L23.6756 25.5189C22.9808 26.4297 21.6644 26.5719 20.7911 25.8306Z" fill="#25D17F" stroke="black" stroke-width="0.5"/>
<path d="M14.8711 15.6646L28.7384 12.717C28.807 14.3752 27.5467 15.9992 25.9233 16.3442L17.9347 18.0422C16.3114 18.3873 14.9397 17.3228 14.8711 15.6646Z" fill="#777E87"/>
<path d="M20.7911 25.8306L10.2969 16.9219L11.4217 15.0341L30.9269 11.3188L33.6688 12.4182L23.6756 25.5189C22.9808 26.4297 21.6644 26.5719 20.7911 25.8306Z" stroke="black" stroke-width="0.5"/>
</g>
<rect x="0.256924" y="0.197715" width="23.2984" height="17.2648" rx="2.41667" transform="matrix(0.978148 -0.207912 0.0495471 0.998772 10.7986 17.2077)" stroke="black" stroke-width="0.5"/>
</g>
</g>
<defs>
<clipPath id="clip0_4235_35222">
<rect width="48" height="48" rx="24" fill="white"/>
</clipPath>
</defs>
</svg>
