<svg width="48" height="48" viewBox="0 0 48 48" fill="none" xmlns="http://www.w3.org/2000/svg">
<g clip-path="url(#clip0_4235_35226)">
<circle cx="24" cy="24" r="24" fill="#F3F3F3" fill-opacity="0.04"/>
<mask id="mask0_4235_35226" style="mask-type:alpha" maskUnits="userSpaceOnUse" x="12" y="7" width="23" height="21">
<path d="M13.4977 24.7685L13.4976 24.7677L13.2277 18.4904L13.2277 18.4488C13.2277 16.3851 13.6106 14.1535 15.135 12.2219C16.6517 10.2998 19.0514 8.98646 22.4293 8.21302C24.2216 7.87582 26.921 7.81711 29.2036 8.7175C30.3421 9.1666 31.3697 9.8513 32.1343 10.8524C32.8977 11.8521 33.4104 13.1821 33.4967 14.9422L33.4972 14.9544L33.499 14.9664C33.5675 15.4308 33.6369 16.7508 33.7098 18.3533C33.7307 18.812 33.7518 19.2925 33.7732 19.7802C33.8261 20.9856 33.881 22.2353 33.939 23.311C34.0021 24.4787 33.1065 25.4764 31.9388 25.5394C30.7711 25.6024 29.7734 24.7069 29.7104 23.5392C29.6414 22.2611 29.5793 20.8223 29.523 19.5182C29.5103 19.2229 29.4978 18.9345 29.4857 18.6564C29.4204 17.1631 29.3627 15.946 29.3096 15.5851C29.2607 14.7404 28.9826 14.0809 28.552 13.5788C28.1209 13.0761 27.5497 12.7457 26.9399 12.5366C25.7264 12.1206 24.3165 12.1697 23.3895 12.3379C22.1742 12.5584 20.6532 12.9928 19.4541 13.9145C18.2413 14.8466 17.3705 16.2687 17.4629 18.4147L17.7292 24.6006C17.7292 24.6007 17.7292 24.6009 17.7292 24.6011C17.7753 25.7694 16.8657 26.754 15.6974 26.8003C14.5289 26.8467 13.544 25.937 13.4977 24.7685Z" fill="white" stroke="black" stroke-width="0.5" stroke-linecap="round"/>
</mask>
<g mask="url(#mask0_4235_35226)">
<path d="M13.4977 24.7685L13.4976 24.7677L13.2277 18.4904L13.2277 18.4488C13.2277 16.3851 13.6106 14.1535 15.135 12.2219C16.6517 10.2998 19.0514 8.98646 22.4293 8.21302C24.2216 7.87582 26.921 7.81711 29.2036 8.7175C30.3421 9.1666 31.3697 9.8513 32.1343 10.8524C32.8977 11.8521 33.4104 13.1821 33.4967 14.9422L33.4972 14.9544L33.499 14.9664C33.5675 15.4308 33.6369 16.7508 33.7098 18.3533C33.7307 18.812 33.7518 19.2925 33.7732 19.7802C33.8261 20.9856 33.881 22.2353 33.939 23.311C34.0021 24.4787 33.1065 25.4764 31.9388 25.5394C30.7711 25.6024 29.7734 24.7069 29.7104 23.5392C29.6414 22.2611 29.5793 20.8223 29.523 19.5182C29.5103 19.2229 29.4978 18.9345 29.4857 18.6564C29.4204 17.1631 29.3627 15.946 29.3096 15.5851C29.2607 14.7404 28.9826 14.0809 28.552 13.5788C28.1209 13.0761 27.5497 12.7457 26.9399 12.5366C25.7264 12.1206 24.3165 12.1697 23.3895 12.3379C22.1742 12.5584 20.6532 12.9928 19.4541 13.9145C18.2413 14.8466 17.3705 16.2687 17.4629 18.4147L17.7292 24.6006C17.7292 24.6007 17.7292 24.6009 17.7292 24.6011C17.7753 25.7694 16.8657 26.754 15.6974 26.8003C14.5289 26.8467 13.544 25.937 13.4977 24.7685Z" fill="#25D17F" stroke="black" stroke-width="0.5" stroke-linecap="round"/>
<ellipse cx="15.9451" cy="18.6396" rx="3.72833" ry="3.13063" fill="#777E87"/>
<path d="M13.8973 24.7527L13.8973 24.7505L13.6277 18.4818L13.6277 18.4488C13.6277 16.4317 14.0022 14.303 15.449 12.4697C16.8883 10.6457 19.189 9.36646 22.5109 8.60469C24.2573 8.27741 26.8702 8.22706 29.0568 9.0896C30.1428 9.51799 31.105 10.1637 31.8164 11.0952C32.5248 12.0229 33.0143 13.2725 33.0971 14.9618L33.0987 14.9934L33.1033 15.0248C33.168 15.4635 33.2368 16.756 33.3102 18.3715C33.331 18.8286 33.3521 19.308 33.3734 19.7951C33.4264 21.0014 33.4815 22.2547 33.5396 23.3325C33.5907 24.2796 32.8644 25.0889 31.9173 25.14C30.9701 25.1911 30.1609 24.4648 30.1098 23.5176C30.0409 22.2418 29.9789 20.8056 29.9227 19.5014C29.9099 19.206 29.8975 18.9174 29.8853 18.6389C29.8217 17.1846 29.7641 15.9521 29.7079 15.545C29.6516 14.6281 29.3449 13.8889 28.8557 13.3184C28.3664 12.7479 27.7276 12.3838 27.0696 12.1582C25.77 11.7126 24.2857 11.7687 23.318 11.9443C22.0794 12.169 20.4842 12.6182 19.2103 13.5973C17.9009 14.6037 16.9649 16.1475 17.0632 18.4319L17.3295 24.6165C17.3295 24.6168 17.3295 24.6172 17.3295 24.6175C17.3665 25.5648 16.6289 26.363 15.6815 26.4006C14.7338 26.4382 13.935 25.7004 13.8973 24.7527Z" stroke="#777E87" stroke-width="1.3" stroke-linecap="round"/>
<path d="M19.4235 18.6396C19.4235 20.1914 17.9089 21.5203 15.9451 21.5203C13.9814 21.5203 12.4668 20.1914 12.4668 18.6396C12.4668 17.0878 13.9814 15.759 15.9451 15.759C17.9089 15.759 19.4235 17.0878 19.4235 18.6396Z" stroke="black" stroke-width="0.5"/>
<path d="M19.3401 19.7419C19.3401 21.2346 17.8771 22.5391 15.9451 22.5391C14.0132 22.5391 12.5501 21.2346 12.5501 19.7419C12.5501 18.2491 14.0132 16.9446 15.9451 16.9446C17.8771 16.9446 19.3401 18.2491 19.3401 19.7419Z" stroke="#44494F" stroke-width="0.666667"/>
<path d="M13.4977 24.7685L13.4976 24.7677L13.2277 18.4904L13.2277 18.4488C13.2277 16.3851 13.6106 14.1535 15.135 12.2219C16.6517 10.2998 19.0514 8.98646 22.4293 8.21302C24.2216 7.87582 26.921 7.81711 29.2036 8.7175C30.342 9.1666 31.3697 9.8513 32.1343 10.8524C32.8977 11.8521 33.4104 13.1821 33.4966 14.9422L33.4972 14.9544L33.499 14.9664C33.5675 15.4308 33.6369 16.7508 33.7098 18.3533C33.7307 18.8119 33.7518 19.2923 33.7732 19.7799C33.8261 20.9854 33.881 22.2352 33.939 23.311C34.0021 24.4787 33.1065 25.4764 31.9388 25.5394C30.7711 25.6024 29.7734 24.7069 29.7104 23.5392C29.6414 22.2611 29.5793 20.8223 29.523 19.5182C29.5103 19.2229 29.4978 18.9345 29.4857 18.6564C29.4204 17.1631 29.3627 15.946 29.3096 15.5851C29.2607 14.7404 28.9826 14.0809 28.552 13.5788C28.1209 13.0761 27.5497 12.7457 26.9399 12.5366C25.7264 12.1206 24.3165 12.1697 23.3895 12.3379C22.1742 12.5584 20.6532 12.9928 19.4541 13.9145C18.2413 14.8466 17.3705 16.2687 17.4629 18.4147L17.7292 24.6006C17.7292 24.6008 17.7292 24.6009 17.7292 24.6011C17.7753 25.7694 16.8657 26.754 15.6974 26.8003C14.5289 26.8467 13.544 25.937 13.4977 24.7685Z" stroke="black" stroke-width="0.5" stroke-linecap="round"/>
</g>
<mask id="mask1_4235_35226" style="mask-type:alpha" maskUnits="userSpaceOnUse" x="12" y="17" width="26" height="24">
<path d="M16.3434 40.2506C16.3313 40.2433 16.3189 40.2371 16.3063 40.232L12.8697 38.1273C14.2205 37.8136 15.1904 36.5704 15.1196 35.1421L14.6939 26.5617C14.6175 25.0214 15.787 23.5016 17.2955 23.181L29.6633 20.5522C30.7148 20.3286 31.5582 19.5448 31.8579 18.5124L32.1315 17.57L35.973 19.8643C35.9869 19.8801 36.0032 19.8947 36.022 19.9075L36.0287 19.8976L36.022 19.9075C36.5772 20.285 36.9546 20.9278 36.9949 21.7401L37.5801 33.5377C37.6565 35.078 36.487 36.5977 34.9785 36.9183L18.0755 40.5112C17.4199 40.6505 16.8176 40.5388 16.3434 40.2507L16.3434 40.2506ZM36.0362 19.9021C36.0361 19.902 36.0359 19.9019 36.0358 19.9018L36.0362 19.9021L36.1117 19.7757L36.1117 19.7756L36.0362 19.9021Z" fill="white" stroke="black" stroke-width="0.5"/>
</mask>
<g mask="url(#mask1_4235_35226)">
<path d="M16.3434 40.251C16.3313 40.2436 16.3189 40.2374 16.3063 40.2324L12.8697 38.1276C14.2205 37.8139 15.1904 36.5708 15.1196 35.1424L14.6939 26.562C14.6175 25.0217 15.787 23.502 17.2955 23.1813L29.6633 20.5525C30.7148 20.329 31.5582 19.5451 31.8579 18.5127L32.1315 17.5703L35.973 19.8646C35.9869 19.8805 36.0032 19.895 36.022 19.9078L36.0287 19.8979L36.022 19.9078C36.5772 20.2853 36.9546 20.9282 36.9949 21.7404L37.5801 33.538C37.6565 35.0783 36.487 36.598 34.9785 36.9187L18.0755 40.5115C17.4199 40.6509 16.8176 40.5391 16.3434 40.251L16.3434 40.251ZM36.0362 19.9024C36.0361 19.9023 36.0359 19.9022 36.0358 19.9021L36.0362 19.9024L36.1117 19.776L36.1117 19.776L36.0362 19.9024Z" fill="black" stroke="black" stroke-width="0.5"/>
<path d="M38.2556 33.9129L34.4722 31.49L33.1013 34.2955L37.2247 36.9523L38.2556 33.9129Z" fill="#44494F"/>
<path d="M31.8784 35.0393L36.023 37.6536L35.2153 38.0681L30.7361 35.1775L31.8784 35.0393Z" fill="#44494F"/>
<path d="M15.3502 38.3869L19.4948 41.0013L16.6059 41.988L12.1267 39.0974L15.3502 38.3869Z" fill="#44494F"/>
<mask id="mask2_4235_35226" style="mask-type:alpha" maskUnits="userSpaceOnUse" x="6" y="14" width="29" height="26">
<path d="M28.7653 14.9562L33.0005 17.4857C33.0149 17.5025 33.032 17.518 33.0519 17.5315L33.0519 17.5315C33.663 17.9471 34.0775 18.6542 34.1217 19.5458L34.1217 19.5461L34.7244 31.4325C34.7244 31.4326 34.7244 31.4327 34.7244 31.4328M28.7653 14.9562L34.7244 31.4328M28.7653 14.9562L28.4642 15.7557C28.1137 16.6861 27.3136 17.3739 26.3411 17.5806L12.5901 20.5034C10.9357 20.8551 9.65381 22.5208 9.73761 24.2102L10.213 33.7936C10.2877 35.2979 9.2079 36.5967 7.74468 36.8208L11.5069 39.125C11.5201 39.1302 11.533 39.1366 11.5457 39.1443L11.5457 39.1443C12.0675 39.4614 12.7297 39.5839 13.4494 39.4309L13.4494 39.4309L31.5418 35.5873C31.5418 35.5873 31.5418 35.5873 31.5418 35.5873C32.353 35.4148 33.1735 34.8106 33.7845 34.0121C34.3954 33.2137 34.7655 32.262 34.7244 31.4328M28.7653 14.9562L34.7244 31.4328M33.0659 17.5247L33.0662 17.5249L33.137 17.4065L33.1371 17.4062L33.1923 17.3137L33.1372 17.4061L33.137 17.4064L33.0662 17.5249C33.0661 17.5248 33.066 17.5248 33.0659 17.5247Z" fill="#B8A9A9" stroke="black" stroke-width="0.5"/>
</mask>
<g mask="url(#mask2_4235_35226)">
<path d="M28.7653 14.9562L33.0005 17.4857C33.0149 17.5025 33.032 17.518 33.0519 17.5315L33.0519 17.5315C33.663 17.9471 34.0775 18.6542 34.1217 19.5458L34.1217 19.5461L34.7244 31.4325C34.7244 31.4326 34.7244 31.4327 34.7244 31.4328M28.7653 14.9562L34.7244 31.4328M28.7653 14.9562L28.4642 15.7557C28.1137 16.6861 27.3136 17.3739 26.3411 17.5806L12.5901 20.5034C10.9357 20.8551 9.65381 22.5208 9.73761 24.2102L10.213 33.7936C10.2877 35.2979 9.2079 36.5967 7.74468 36.8208L11.5069 39.125C11.5201 39.1302 11.533 39.1366 11.5457 39.1443L11.5457 39.1443C12.0675 39.4614 12.7297 39.5839 13.4494 39.4309L13.4494 39.4309L31.5418 35.5873C31.5418 35.5873 31.5418 35.5873 31.5418 35.5873C32.353 35.4148 33.1735 34.8106 33.7845 34.0121C34.3954 33.2137 34.7655 32.262 34.7244 31.4328M28.7653 14.9562L34.7244 31.4328M33.0659 17.5247L33.0662 17.5249L33.137 17.4065L33.1371 17.4062L33.1923 17.3137L33.1372 17.4061L33.137 17.4064L33.0662 17.5249C33.0661 17.5248 33.066 17.5248 33.0659 17.5247Z" fill="#44494F" stroke="black" stroke-width="0.5"/>
<path d="M33.0738 20.811L34.8048 21.9377L34.6089 19.1924L32.8941 18.0655L33.0738 20.811Z" fill="#777E87"/>
<path d="M33.0738 23.2157L34.8048 24.3425L34.6089 22.9144L32.8941 21.7875L33.0738 23.2157Z" fill="#777E87"/>
<path d="M31.0153 33.9195L33.2035 35.3439L34.7278 33.9197L32.5602 32.4952L31.0153 33.9195Z" fill="#777E87"/>
<path d="M28.7653 14.9562L33.0005 17.4857C33.0149 17.5025 33.032 17.518 33.0519 17.5315L33.0519 17.5315C33.663 17.9471 34.0775 18.6542 34.1217 19.5458L34.1217 19.5461L34.7244 31.4325C34.7244 31.4326 34.7244 31.4327 34.7244 31.4328M28.7653 14.9562L34.7244 31.4328M28.7653 14.9562L28.4642 15.7557C28.1137 16.6861 27.3136 17.3739 26.3411 17.5806L12.5901 20.5034C10.9357 20.8551 9.65381 22.5208 9.73761 24.2102L10.213 33.7936C10.2877 35.2979 9.2079 36.5967 7.74468 36.8208L11.5069 39.125C11.5201 39.1302 11.533 39.1366 11.5457 39.1443L11.5457 39.1443C12.0675 39.4614 12.7297 39.5839 13.4494 39.4309L13.4494 39.4309L31.5418 35.5873C31.5418 35.5873 31.5418 35.5873 31.5418 35.5873C32.353 35.4148 33.1735 34.8106 33.7845 34.0121C34.3954 33.2137 34.7655 32.262 34.7244 31.4328M28.7653 14.9562L34.7244 31.4328M33.0659 17.5247L33.0662 17.5249L33.137 17.4065L33.1371 17.4062L33.1923 17.3137L33.1372 17.4061L33.137 17.4064L33.0662 17.5249C33.0661 17.5248 33.066 17.5248 33.0659 17.5247Z" stroke="black" stroke-width="0.5"/>
</g>
<path d="M35.871 20.3153C36.1005 20.5079 36.5728 21.0395 36.6262 21.6259C36.6795 22.2123 36.8249 26.3951 36.9434 28.4386" stroke="#25D17F" stroke-width="0.5" stroke-linecap="round"/>
<path d="M18.5878 39.8839L22.1707 39.064" stroke="#25D17F" stroke-width="0.5" stroke-linecap="round"/>
<path d="M16.3434 40.2506C16.3313 40.2433 16.3189 40.2371 16.3063 40.232L12.8697 38.1273C14.2205 37.8136 15.1904 36.5704 15.1196 35.1421L14.6939 26.5617C14.6175 25.0214 15.787 23.5016 17.2955 23.181L29.6633 20.5522C30.7148 20.3286 31.5582 19.5448 31.8579 18.5124L32.1315 17.57L35.973 19.8643C35.9869 19.8801 36.0032 19.8947 36.022 19.9075L36.0287 19.8976L36.022 19.9075C36.5772 20.285 36.9546 20.9278 36.9949 21.7401L37.5801 33.5377C37.6565 35.078 36.487 36.5977 34.9785 36.9183L18.0755 40.5112C17.4199 40.6505 16.8176 40.5388 16.3434 40.2507L16.3434 40.2506ZM36.0362 19.9021C36.0361 19.902 36.0359 19.9019 36.0358 19.9018L36.0362 19.9021L36.1117 19.7757L36.1117 19.7756L36.0362 19.9021Z" stroke="black" stroke-width="0.5"/>
</g>
<rect x="0.256924" y="0.197715" width="22.8097" height="17.3412" rx="2.41667" transform="matrix(0.978148 -0.207912 0.0495471 0.998772 10.1618 21.1047)" fill="#777E87" stroke="black" stroke-width="0.5"/>
<mask id="mask3_4235_35226" style="mask-type:alpha" maskUnits="userSpaceOnUse" x="14" y="23" width="16" height="10">
<path d="M14.3321 27.0695C14.3017 26.413 14.7542 25.8323 15.3982 25.7013L27.7578 23.1873C28.5595 23.0242 29.3176 23.615 29.3555 24.4322L29.5279 28.1582C29.5583 28.8147 29.1058 29.3954 28.4618 29.5264L16.1022 32.0404C15.3005 32.2034 14.5424 31.6127 14.5045 30.7954L14.3321 27.0695Z" fill="black"/>
</mask>
<g mask="url(#mask3_4235_35226)">
<path d="M14.3321 27.0695C14.3017 26.413 14.7542 25.8323 15.3982 25.7013L27.7578 23.1873C28.5595 23.0242 29.3176 23.615 29.3555 24.4322L29.5279 28.1582C29.5583 28.8147 29.1058 29.3954 28.4618 29.5264L16.1022 32.0404C15.3005 32.2034 14.5424 31.6127 14.5045 30.7954L14.3321 27.0695Z" fill="black"/>
<path d="M15.3945 25.5596L16.6711 25.3275L16.7901 28.483L15.5136 28.7152L15.3945 25.5596Z" fill="#25D17F"/>
<path d="M17.7559 26.6184L19.0324 26.3862L19.0985 28.783L17.822 29.0152L17.7559 26.6184Z" fill="#25D17F"/>
<path d="M22.5488 28.6111L23.8254 28.3789L23.8915 30.7757L22.6149 31.0078L22.5488 28.6111Z" fill="#25D17F"/>
<path d="M26.7305 23.365L28.007 23.1328L28.0731 25.5296L26.7966 25.7617L26.7305 23.365Z" fill="#25D17F"/>
<path d="M20.1133 25.4392L21.3898 25.207L21.5304 30.2968L20.2538 30.529L20.1133 25.4392Z" fill="#25D17F"/>
<path d="M24.7149 26.2068L25.9914 25.9746L26.1105 29.1301L24.8339 29.3623L24.7149 26.2068Z" fill="#25D17F"/>
<path d="M24.5645 23.7708L25.841 23.5386L25.8792 24.5568L24.6026 24.789L24.5645 23.7708Z" fill="#25D17F"/>
<path d="M22.4004 26.3347L23.677 26.1025L23.7151 27.1207L22.4386 27.3529L22.4004 26.3347Z" fill="#25D17F"/>
<path d="M15.582 30.0253L16.8586 29.7931L16.8968 30.8113L15.6202 31.0435L15.582 30.0253Z" fill="#25D17F"/>
</g>
<path d="M12.5462 27.1473C12.4756 25.748 13.4383 24.5073 14.8112 24.228L27.5826 21.6302C29.2816 21.2847 30.8897 22.5324 30.9771 24.2639L31.1697 28.0799C31.2403 29.4791 30.2776 30.7199 28.9047 30.9991L16.1332 33.5969C14.4342 33.9425 12.8261 32.6948 12.7387 30.9632L12.5462 27.1473Z" stroke="#25D17F"/>
</g>
<defs>
<clipPath id="clip0_4235_35226">
<rect width="48" height="48" rx="24" fill="white"/>
</clipPath>
</defs>
</svg>
