<svg width="48" height="48" viewBox="0 0 48 48" fill="none" xmlns="http://www.w3.org/2000/svg">
<g clip-path="url(#clip0_4235_35230)">
<circle cx="24" cy="24" r="24" fill="#F3F3F3" fill-opacity="0.04"/>
<circle cx="12.397" cy="12.397" r="12.147" transform="matrix(0.978148 -0.207912 0.0495471 0.998772 11.9668 15.0205)" fill="black" stroke="black" stroke-width="0.5"/>
<mask id="mask0_4235_35230" style="mask-type:alpha" maskUnits="userSpaceOnUse" x="12" y="12" width="25" height="26">
<circle cx="12.397" cy="12.397" r="12.147" transform="matrix(0.978148 -0.207912 0.0495471 0.998772 11.9668 15.0237)" fill="black" stroke="black" stroke-width="0.5"/>
</mask>
<g mask="url(#mask0_4235_35230)">
<path d="M17.2798 34.0637L22.4659 37.9695L16.6067 37.0884L12.3379 32.9888L17.2798 34.0637Z" fill="#44494F"/>
<path d="M34.9198 18.0825C35.5485 18.9208 35.9203 20.9193 35.9866 22.2573C36.075 24.0378 35.8549 25.2602 35.2681 26.931" stroke="#25D17F" stroke-width="0.5" stroke-linecap="round"/>
<path d="M21.7597 36.4866C22.7595 36.5237 23.6341 36.5386 24.7969 36.3138C25.4935 36.1791 26.332 35.9422 26.9588 35.5399" stroke="#25D17F" stroke-width="0.5" stroke-linecap="round"/>
</g>
<circle cx="12.397" cy="12.397" r="12.147" transform="matrix(0.978148 -0.207912 0.0495471 0.998772 11.9668 15.0205)" stroke="black" stroke-width="0.5"/>
<circle cx="12.397" cy="12.397" r="12.147" transform="matrix(0.978148 -0.207912 0.0495471 0.998772 9.35742 13.0866)" fill="#777E87" stroke="black" stroke-width="0.5"/>
<circle cx="8.91443" cy="8.91443" r="8.66443" transform="matrix(0.978148 -0.207912 0.0495471 0.998772 12.9375 15.8284)" fill="#25D17F" stroke="black" stroke-width="0.5"/>
<path d="M18.0263 19.9017L19.8905 19.5054L19.8096 17.8738L20.8749 17.6473L20.9558 19.279L21.7548 19.1091L21.6738 17.4775L22.7391 17.2511L22.8201 18.8827C25.7496 18.26 25.9115 21.5233 24.3203 21.9989C26.4442 21.4101 27.1927 25.6479 23.1978 26.497L23.2788 28.1286L22.2135 28.3551L22.1325 26.7234L21.3335 26.8933L21.4145 28.5249L20.3492 28.7513L20.2683 27.1197L18.404 27.516L18.6163 26.3716L19.149 26.2584C19.2903 26.2283 19.4229 26.1422 19.5177 26.019C19.6126 25.8958 19.6618 25.7455 19.6547 25.6013L19.4388 21.2502C19.4317 21.106 19.3687 20.9796 19.2637 20.8988C19.1588 20.8181 19.0205 20.7896 18.8792 20.8196L18.0802 20.9894L18.0263 19.9017ZM21.0098 20.3667L21.1177 22.5422C21.1177 22.5422 23.5214 22.1687 23.4607 20.945C23.3999 19.7213 21.0098 20.3667 21.0098 20.3667ZM21.1582 23.358L21.2796 25.8055C21.2796 25.8055 24.2091 25.1828 24.1484 23.9591C24.0877 22.7353 21.1582 23.358 21.1582 23.358Z" fill="black"/>
<path d="M37.5527 23.9879V23.5352L38.5501 24.0548L38.5469 24.0563C38.72 24.159 38.8401 24.3347 38.8728 24.555C38.8728 24.555 38.9829 25.9014 38.9536 28.1943C38.6207 32.1404 35.6319 34.8972 33.8186 35.3075C32.0047 35.718 28.257 33.6165 28.1321 30.5969C28.063 28.9289 28.0067 27.4115 28.0078 27.0285C28.0089 26.6456 28.2816 26.2655 28.6605 26.1187C29.4054 25.8814 30.1311 25.5375 30.8134 25.0985C31.5534 24.7017 32.2252 24.1565 32.7794 23.503C33.089 23.2053 33.5191 23.1079 33.8473 23.2614C34.4751 23.596 35.1636 23.83 35.8928 23.9567C36.4399 23.9966 36.9939 24.007 37.5527 23.9879Z" fill="black"/>
<path d="M34.8168 23.6953L34.8271 23.6971L34.8377 23.6979C35.5879 23.7527 36.3509 23.7527 37.1211 23.6981C37.3925 23.695 37.5937 23.8682 37.6338 24.1148L37.6343 24.1207L37.6376 24.1661C37.6405 24.2065 37.6446 24.2672 37.6495 24.3473C37.6593 24.5076 37.672 24.7456 37.6839 25.0552C37.7075 25.6727 37.7276 26.5748 37.7133 27.712C37.5504 29.6156 36.7494 31.229 35.7722 32.4163C34.7868 33.6135 33.641 34.3561 32.8118 34.5438C32.4144 34.6337 31.8817 34.5898 31.2905 34.4086C30.704 34.2288 30.0804 33.9202 29.5064 33.5057C28.3506 32.6711 27.4379 31.4399 27.3795 30.0277C27.3103 28.3559 27.2544 26.8464 27.2554 26.4707C27.2562 26.2172 27.4365 25.9531 27.7045 25.8459C28.466 25.6024 29.2081 25.2509 29.9064 24.8028C30.6705 24.3914 31.3654 23.8281 31.9408 23.153C32.1674 22.9423 32.4786 22.8736 32.7166 22.9824C33.3616 23.3254 34.0685 23.5654 34.8168 23.6953Z" fill="#777E87" stroke="black" stroke-width="0.5"/>
<mask id="mask1_4235_35230" style="mask-type:alpha" maskUnits="userSpaceOnUse" x="28" y="24" width="9" height="10">
<path d="M35.7343 25.2168C35.9934 25.2114 36.1945 25.3767 36.2316 25.6256C36.2316 25.6256 36.3072 26.5464 36.2866 28.1148C36.0568 30.8144 33.9993 32.703 32.7512 32.9854C31.5027 33.2679 28.9238 31.8341 28.8383 29.7687C28.7911 28.6278 28.7526 27.59 28.7534 27.328C28.7543 27.066 28.942 26.8058 29.2028 26.705C29.7155 26.542 30.215 26.3061 30.6847 26.0051C31.1941 25.733 31.6565 25.3594 32.038 24.9119C32.2512 24.7079 32.5472 24.6409 32.7731 24.7456C33.2051 24.9738 33.6789 25.1332 34.1808 25.2192C34.6912 25.2555 35.2103 25.2547 35.7343 25.2168Z" fill="black"/>
</mask>
<g mask="url(#mask1_4235_35230)">
<path d="M35.7343 25.2183C35.9934 25.2129 36.1945 25.3782 36.2316 25.6271C36.2316 25.6271 36.3072 26.5479 36.2866 28.1164C36.0568 30.8159 33.9993 32.7045 32.7512 32.9869C31.5027 33.2694 28.9238 31.8356 28.8383 29.7702C28.7911 28.6293 28.7526 27.5915 28.7534 27.3295C28.7543 27.0676 28.942 26.8073 29.2028 26.7065C29.7155 26.5435 30.215 26.3076 30.6847 26.0067C31.1941 25.7345 31.6565 25.3609 32.038 24.9134C32.2512 24.7094 32.5472 24.6425 32.7731 24.7471C33.2051 24.9753 33.6789 25.1348 34.1808 25.2207C34.6912 25.257 35.2103 25.2562 35.7343 25.2183Z" fill="black"/>
<path d="M29.5742 26.0086L30.8508 25.7765L30.9698 28.932L29.6933 29.1642L29.5742 26.0086Z" fill="#25D17F"/>
<path d="M31.9082 27.2557L33.1848 27.0235L33.2915 30.0508L32.0149 30.2829L31.9082 27.2557Z" fill="#25D17F"/>
<path d="M34.2285 26.3155L35.5051 26.0833L35.7066 32.0903L34.43 32.3225L34.2285 26.3155Z" fill="#25D17F"/>
<path d="M29.7617 30.475L31.0383 30.2428L31.1048 31.8407L29.8283 32.0728L29.7617 30.475Z" fill="#25D17F"/>
</g>
</g>
<defs>
<clipPath id="clip0_4235_35230">
<rect width="48" height="48" rx="24" fill="white"/>
</clipPath>
</defs>
</svg>
