<svg fill="none" height="16" viewBox="0 0 16 16" width="16" xmlns="http://www.w3.org/2000/svg"><path d="m0 0h16v16h-16z" fill="#000" opacity=".01"/><path clip-rule="evenodd" d="m2.45781 1.5h11.08439c.2797 0 .5047.225.5047.50313 0 .27812-.225.50312-.5032.50312h-11.08589c-.27813 0-.50313-.225-.50313-.50312 0-.27813.225-.50313.50313-.50313zm4.82968 2.31094c.19688-.19688.45469-.29532.7125-.29532.25782 0 .51563.09844.7125.29532l4.62971 4.63125c.0906.09062.1469.21719.1469.35625s-.0563.26562-.1469.35625c-.0906.09062-.2172.14687-.3563.14687-.139 0-.2656-.05625-.3562-.14687l-4.12814-4.12813v8.96874c0 .2781-.225.5031-.50313.5031-.27812 0-.50312-.225-.50312-.5031v-8.96874l-4.12813 4.12813c-.09062.09062-.21719.14687-.35625.14687s-.26562-.05625-.35625-.14687c-.09062-.09063-.14687-.21719-.14687-.35625s.05625-.26563.14687-.35625z" fill="#fff" fill-rule="evenodd"/></svg>