<svg fill="none" height="16" viewBox="0 0 16 16" width="16" xmlns="http://www.w3.org/2000/svg" xmlns:xlink="http://www.w3.org/1999/xlink"><clipPath id="a"><path d="m0 0h16v16h-16z"/></clipPath><g clip-path="url(#a)" fill="#f65454"><path d="m8.00008 3.66628c.36819 0 .66667.29848.66667.66667v4.66666c0 .36819-.29848.66667-.66667.66667s-.66666-.29848-.66666-.66667v-4.66666c0-.36819.29847-.66667.66666-.66667z"/><path d="m8.00008 11.9996c.22102 0 .43298-.0878.58926-.2441.15628-.1562.24408-.3682.24408-.5892s-.0878-.433-.24408-.5893-.36824-.2441-.58926-.2441c-.22101 0-.43297.0878-.58925.2441s-.24408.3683-.24408.5893.0878.433.24408.5892c.15628.1563.36824.2441.58925.2441z"/><path clip-rule="evenodd" d="m.666748 8c0-4.05009 3.283242-7.333336 7.333332-7.333336 4.05012 0 7.33332 3.283246 7.33332 7.333336 0 4.0501-3.2832 7.3333-7.33332 7.3333-4.05009 0-7.333332-3.2832-7.333332-7.3333zm7.333332-6c-3.31371 0-6 2.68629-6 6 0 3.3137 2.68629 6 6 6 3.31372 0 6.00002-2.6863 6.00002-6 0-3.31371-2.6863-6-6.00002-6z" fill-rule="evenodd"/></g></svg>