<svg width="18" height="19" viewBox="0 0 18 19" fill="none" xmlns="http://www.w3.org/2000/svg">
<path d="M0.75 3.50006C0.75 2.25742 1.75736 1.25006 3 1.25006H5.25C5.66421 1.25006 6 1.58585 6 2.00006C6 2.41427 5.66421 2.75006 5.25 2.75006H3C2.58579 2.75006 2.25 3.08585 2.25 3.50006V5.75006C2.25 6.16427 1.91421 6.50006 1.5 6.50006C1.08579 6.50006 0.75 6.16427 0.75 5.75006V3.50006Z" fill="currentColor"/>
<path d="M17.25 13.2501V15.5001C17.25 16.7427 16.2426 17.7501 15 17.7501H12.75C12.3358 17.7501 12 17.4143 12 17.0001C12 16.5858 12.3358 16.2501 12.75 16.2501H15C15.4142 16.2501 15.75 15.9143 15.75 15.5001V13.2501C15.75 12.8358 16.0858 12.5001 16.5 12.5001C16.9142 12.5001 17.25 12.8358 17.25 13.2501Z" fill="currentColor"/>
<path d="M6 5.75006C6 5.33585 5.66421 5.00006 5.25 5.00006C4.83579 5.00006 4.5 5.33585 4.5 5.75006V6.50006C4.5 6.91427 4.83579 7.25006 5.25 7.25006C5.66421 7.25006 6 6.91427 6 6.50006V5.75006Z" fill="currentColor"/>
<path d="M9.75 5.75006C9.75 5.33585 9.41421 5.00006 9 5.00006C8.58579 5.00006 8.25 5.33585 8.25 5.75006V9.12506C8.25 9.25614 8.17691 9.44999 8.00092 9.62598C7.82493 9.80197 7.63108 9.87506 7.5 9.87506H7.125C6.71079 9.87506 6.375 10.2108 6.375 10.6251C6.375 11.0393 6.71079 11.3751 7.125 11.3751H7.5C8.11892 11.3751 8.67507 11.0732 9.06158 10.6866C9.44809 10.3001 9.75 9.74398 9.75 9.12506V5.75006Z" fill="currentColor"/>
<path d="M6.53426 12.719C6.24731 12.4236 5.77523 12.4147 5.47741 12.7002C5.17835 12.9868 5.16825 13.4615 5.45485 13.7606L5.45578 13.7615L5.45681 13.7626L5.45918 13.7651L5.4652 13.7712L5.48229 13.7883C5.49592 13.8017 5.51402 13.8192 5.53654 13.8401C5.58154 13.882 5.64438 13.9377 5.72449 14.0027C5.8844 14.1323 6.11523 14.3003 6.41249 14.467C7.00735 14.8005 7.87775 15.1339 8.97594 15.1339C10.0732 15.1339 10.953 14.8011 11.556 14.4704C11.8577 14.3049 12.0932 14.1383 12.2567 14.0099C12.3385 13.9456 12.4028 13.8905 12.4488 13.8493C12.4718 13.8287 12.4903 13.8115 12.5041 13.7983L12.5215 13.7817L12.5275 13.7757L12.5299 13.7734L12.5309 13.7724L12.5318 13.7715C12.8244 13.4783 12.824 13.0034 12.5308 12.7108C12.2387 12.4193 11.7663 12.4186 11.4734 12.7085L11.4728 12.7092L11.4717 12.7103C11.4679 12.7139 11.4596 12.7215 11.4478 12.7322C11.4241 12.7534 11.3846 12.7875 11.3301 12.8303C11.2208 12.9161 11.0536 13.0351 10.8346 13.1552C10.3963 13.3956 9.76362 13.6339 8.97594 13.6339C8.18923 13.6339 7.56984 13.3962 7.14612 13.1586C6.93409 13.0397 6.77344 12.9221 6.66918 12.8375C6.61722 12.7954 6.57981 12.7619 6.55758 12.7413C6.54648 12.731 6.53923 12.7239 6.5359 12.7206L6.53426 12.719Z" fill="currentColor"/>
<path d="M13.5 5.75006C13.5 5.33585 13.1642 5.00006 12.75 5.00006C12.3358 5.00006 12 5.33585 12 5.75006V6.50006C12 6.91427 12.3358 7.25006 12.75 7.25006C13.1642 7.25006 13.5 6.91427 13.5 6.50006V5.75006Z" fill="currentColor"/>
<path d="M3 17.7501C1.75736 17.7501 0.75 16.7427 0.75 15.5001V13.2501C0.75 12.8358 1.08579 12.5001 1.5 12.5001C1.91421 12.5001 2.25 12.8358 2.25 13.2501V15.5001C2.25 15.9143 2.58579 16.2501 3 16.2501H5.25C5.66421 16.2501 6 16.5858 6 17.0001C6 17.4143 5.66421 17.7501 5.25 17.7501H3Z" fill="currentColor"/>
<path d="M17.25 3.50006V5.75006C17.25 6.16428 16.9142 6.50006 16.5 6.50006C16.0858 6.50006 15.75 6.16428 15.75 5.75006V3.50006C15.75 3.08585 15.4142 2.75006 15 2.75006H12.75C12.3358 2.75006 12 2.41427 12 2.00006C12 1.58585 12.3358 1.25006 12.75 1.25006H15C16.2426 1.25006 17.25 2.25742 17.25 3.50006Z" fill="currentColor"/>
</svg>
