<svg xmlns="http://www.w3.org/2000/svg" width="17" height="17" viewBox="0 0 17 17" fill="none">
  <path d="M8.97548 4.36946C7.65 4.36946 6.57548 5.44398 6.57548 6.76946C6.57548 7.10083 6.84411 7.36946 7.17548 7.36946C7.50685 7.36946 7.77548 7.10083 7.77548 6.76946C7.77548 6.10672 8.31274 5.56946 8.97548 5.56946C9.63822 5.56946 10.1755 6.10672 10.1755 6.76946C10.1755 7.4322 9.63822 7.96946 8.97548 7.96946C8.64411 7.96946 8.37548 8.23809 8.37548 8.56946V9.76946C8.37548 10.1008 8.64411 10.3695 8.97548 10.3695C9.30685 10.3695 9.57548 10.1008 9.57548 9.76946V9.09385C10.6106 8.82742 11.3755 7.88776 11.3755 6.76946C11.3755 5.44398 10.301 4.36946 8.97548 4.36946Z" fill="currentColor"/>
  <path d="M8.97548 12.4695C9.38969 12.4695 9.72548 12.1337 9.72548 11.7195C9.72548 11.3053 9.38969 10.9695 8.97548 10.9695C8.56127 10.9695 8.22548 11.3053 8.22548 11.7195C8.22548 12.1337 8.56127 12.4695 8.97548 12.4695Z" fill="currentColor"/>
  <path fill-rule="evenodd" clip-rule="evenodd" d="M5.712 1.0592C4.23924 1.0592 3.04533 2.25311 3.04533 3.72587V4.39254H2.05338C1.68519 4.39254 1.38672 4.69101 1.38672 5.0592C1.38672 5.42739 1.68519 5.72587 2.05338 5.72587H3.04533V7.72587H2.05338C1.68519 7.72587 1.38672 8.02435 1.38672 8.39254C1.38672 8.76073 1.68519 9.0592 2.05338 9.0592H3.04533V11.0592H2.05338C1.68519 11.0592 1.38672 11.3577 1.38672 11.7259C1.38672 12.0941 1.68519 12.3925 2.05338 12.3925H3.04533V13.0592C3.04533 14.532 4.23924 15.7259 5.712 15.7259H12.3787C13.8514 15.7259 15.0453 14.532 15.0453 13.0592V3.72587C15.0453 2.25311 13.8514 1.0592 12.3787 1.0592H5.712ZM4.37866 13.0592C4.37866 13.7956 4.97562 14.3925 5.712 14.3925H12.3787C13.115 14.3925 13.712 13.7956 13.712 13.0592V3.72587C13.712 2.98949 13.115 2.39254 12.3787 2.39254H5.712C4.97562 2.39254 4.37866 2.98949 4.37866 3.72587V13.0592Z" fill="currentColor"/>
</svg>